<?xml version="1.0" encoding="utf-8" standalone="no"?>
<!DOCTYPE svg PUBLIC "-//W3C//DTD SVG 1.1//EN"
  "http://www.w3.org/Graphics/SVG/1.1/DTD/svg11.dtd">
<!-- Created with matplotlib (https://matplotlib.org/) -->
<svg height="180pt" version="1.1" viewBox="0 0 720 180" width="720pt" xmlns="http://www.w3.org/2000/svg" xmlns:xlink="http://www.w3.org/1999/xlink">
 <metadata>
  <rdf:RDF xmlns:cc="http://creativecommons.org/ns#" xmlns:dc="http://purl.org/dc/elements/1.1/" xmlns:rdf="http://www.w3.org/1999/02/22-rdf-syntax-ns#">
   <cc:Work>
    <dc:type rdf:resource="http://purl.org/dc/dcmitype/StillImage"/>
    <dc:date>2021-08-04T23:34:01.240354</dc:date>
    <dc:format>image/svg+xml</dc:format>
    <dc:creator>
     <cc:Agent>
      <dc:title>Matplotlib v3.3.2, https://matplotlib.org/</dc:title>
     </cc:Agent>
    </dc:creator>
   </cc:Work>
  </rdf:RDF>
 </metadata>
 <defs>
  <style type="text/css">*{stroke-linecap:butt;stroke-linejoin:round;}</style>
 </defs>
 <g id="figure_1">
  <g id="patch_1">
   <path d="M 0 180 
L 720 180 
L 720 0 
L 0 0 
z
" style="fill:none;"/>
  </g>
  <g id="axes_1">
   <g id="line2d_1">
    <path clip-path="url(#pea978857fe)" d="M 90 157.5 
L 648 157.5 
" style="fill:none;stroke:#000000;stroke-linecap:square;stroke-width:0.5;"/>
   </g>
   <g id="patch_2">
    <path clip-path="url(#pea978857fe)" d="M 90 142.4 
L 121.274336 142.4 
L 121.274336 145.344921 
L 110.022848 145.344921 
L 110.022848 157.5 
L 101.273307 157.5 
L 101.273307 145.344921 
L 90 145.344921 
z
" style="fill:#ff0000;"/>
   </g>
   <g id="patch_3">
    <path clip-path="url(#pea978857fe)" d="M 121.274336 138.301384 
Q 118.120268 140.350692 114.727893 141.380025 
Q 111.335518 142.4 107.718853 142.4 
Q 99.546312 142.4 94.773156 136.298864 
Q 90 130.197728 90 119.764036 
Q 90 109.208697 94.857265 103.154348 
Q 99.721538 97.1 108.18145 97.1 
Q 111.440653 97.1 114.426504 97.923466 
Q 117.419364 98.737575 120.068781 100.347077 
L 120.068781 109.377133 
Q 117.335256 107.30911 114.629766 106.289134 
Q 111.924277 105.259802 109.204769 105.259802 
Q 104.172279 105.259802 101.445762 109.021545 
Q 98.719246 112.773931 98.719246 119.764036 
Q 98.719246 126.688639 101.347636 130.469097 
Q 103.976026 134.240198 108.812263 134.240198 
Q 110.129963 134.240198 111.258418 134.024974 
Q 112.386874 133.800392 113.284031 133.332514 
L 113.284031 124.854555 
L 108.132386 124.854555 
L 108.132386 117.302995 
L 121.274336 117.302995 
z
" style="fill:#ffa600;"/>
   </g>
   <g id="patch_4">
    <path clip-path="url(#pea978857fe)" d="M 111.66376 83.346249 
L 99.636153 83.346249 
L 97.737057 97.1 
L 90 97.1 
L 101.049285 21.6 
L 110.225051 21.6 
L 121.274336 97.1 
L 113.543673 97.1 
z
M 101.554432 69.333605 
L 109.726299 69.333605 
L 105.64676 39.301886 
z
" style="fill:#008000;"/>
   </g>
   <g id="patch_5">
    <path clip-path="url(#pea978857fe)" d="M 154.19469 154.767589 
Q 151.040622 156.133795 147.648247 156.820017 
Q 144.255872 157.5 140.639207 157.5 
Q 132.466666 157.5 127.69351 153.432576 
Q 122.920354 149.365152 122.920354 142.409358 
Q 122.920354 135.372464 127.777619 131.336232 
Q 132.641892 127.3 141.101804 127.3 
Q 144.361007 127.3 147.346858 127.848977 
Q 150.339718 128.391717 152.989135 129.464718 
L 152.989135 135.484755 
Q 150.25561 134.106073 147.55012 133.42609 
Q 144.844631 132.739868 142.125123 132.739868 
Q 137.092633 132.739868 134.366116 135.247697 
Q 131.6396 137.749287 131.6396 142.409358 
Q 131.6396 147.025759 134.26799 149.546065 
Q 136.89638 152.060132 141.732617 152.060132 
Q 143.050317 152.060132 144.178772 151.916649 
Q 145.307228 151.766928 146.204385 151.455009 
L 146.204385 145.803037 
L 141.05274 145.803037 
L 141.05274 140.768663 
L 154.19469 140.768663 
z
" style="fill:#ffa600;"/>
   </g>
   <g id="patch_6">
    <path clip-path="url(#pea978857fe)" d="M 122.920354 21.6 
L 154.19469 21.6 
L 154.19469 42.214445 
L 142.943202 42.214445 
L 142.943202 127.3 
L 134.193661 127.3 
L 134.193661 42.214445 
L 122.920354 42.214445 
z
" style="fill:#ff0000;"/>
   </g>
   <g id="patch_7">
    <path clip-path="url(#pea978857fe)" d="M 155.840708 142.4 
L 187.115044 142.4 
L 187.115044 145.344921 
L 175.863556 145.344921 
L 175.863556 157.5 
L 167.114015 157.5 
L 167.114015 145.344921 
L 155.840708 145.344921 
z
" style="fill:#ff0000;"/>
   </g>
   <g id="patch_8">
    <path clip-path="url(#pea978857fe)" d="M 187.115044 131.470357 
Q 183.960976 136.935179 180.568601 139.680066 
Q 177.176226 142.4 173.559561 142.4 
Q 165.38702 142.4 160.613864 126.130304 
Q 155.840708 109.860607 155.840708 82.03743 
Q 155.840708 53.889857 160.697973 37.744929 
Q 165.562246 21.6 174.022158 21.6 
Q 177.281361 21.6 180.267212 23.79591 
Q 183.260072 25.966866 185.909489 30.258872 
L 185.909489 54.339021 
Q 183.175964 48.824293 180.470474 46.104359 
Q 177.764985 43.359471 175.045477 43.359471 
Q 170.012987 43.359471 167.28647 53.390787 
Q 164.559954 63.397149 164.559954 82.03743 
Q 164.559954 100.503037 167.188344 110.584259 
Q 169.816734 120.640529 174.652971 120.640529 
Q 175.970671 120.640529 177.099126 120.066598 
Q 178.227582 119.467713 179.124739 118.220037 
L 179.124739 95.612146 
L 173.973094 95.612146 
L 173.973094 75.474654 
L 187.115044 75.474654 
z
" style="fill:#ffa600;"/>
   </g>
   <g id="patch_9">
    <path clip-path="url(#pea978857fe)" d="M 188.761062 112.2 
L 220.035398 112.2 
L 220.035398 121.034762 
L 208.78391 121.034762 
L 208.78391 157.5 
L 200.034369 157.5 
L 200.034369 121.034762 
L 188.761062 121.034762 
z
" style="fill:#ff0000;"/>
   </g>
   <g id="patch_10">
    <path clip-path="url(#pea978857fe)" d="M 220.035398 104.002768 
Q 216.88133 108.101384 213.488955 110.16005 
Q 210.09658 112.2 206.479915 112.2 
Q 198.307374 112.2 193.534218 99.997728 
Q 188.761062 87.795455 188.761062 66.928073 
Q 188.761062 45.817393 193.618327 33.708697 
Q 198.4826 21.6 206.942512 21.6 
Q 210.201715 21.6 213.187566 23.246932 
Q 216.180426 24.87515 218.829843 28.094154 
L 218.829843 46.154266 
Q 216.096318 42.018219 213.390828 39.978269 
Q 210.685339 37.919603 207.965831 37.919603 
Q 202.933341 37.919603 200.206824 45.44309 
Q 197.480308 52.947862 197.480308 66.928073 
Q 197.480308 80.777277 200.108698 88.338195 
Q 202.737088 95.880397 207.573325 95.880397 
Q 208.891025 95.880397 210.01948 95.449948 
Q 211.147936 95.000785 212.045093 94.065028 
L 212.045093 77.10911 
L 206.893448 77.10911 
L 206.893448 62.00599 
L 220.035398 62.00599 
z
" style="fill:#ffa600;"/>
   </g>
   <g id="patch_11">
    <path clip-path="url(#pea978857fe)" d="M 243.345176 154.74925 
L 231.317569 154.74925 
L 229.418473 157.5 
L 221.681416 157.5 
L 232.730701 142.4 
L 241.906467 142.4 
L 252.955752 157.5 
L 245.225089 157.5 
z
M 233.235848 151.946721 
L 241.407715 151.946721 
L 237.328175 145.940377 
z
" style="fill:#008000;"/>
   </g>
   <g id="patch_12">
    <path clip-path="url(#pea978857fe)" d="M 252.955752 141.317641 
Q 250.339708 141.854142 247.510913 142.125511 
Q 244.682118 142.4 241.601175 142.4 
Q 232.413501 142.4 227.047459 140.366288 
Q 221.681416 138.332576 221.681416 134.854679 
Q 221.681416 131.364305 227.047459 129.333712 
Q 232.413501 127.3 241.601175 127.3 
Q 244.682118 127.3 247.510913 127.574489 
Q 250.339708 127.845858 252.955752 128.382359 
L 252.955752 131.392378 
Q 250.316069 130.681202 247.755182 130.350568 
Q 245.194296 130.019934 242.365501 130.019934 
Q 237.291005 130.019934 234.383414 131.308159 
Q 231.483702 132.593266 231.483702 134.854679 
Q 231.483702 137.106734 234.383414 138.39496 
Q 237.291005 139.680066 242.365501 139.680066 
Q 245.194296 139.680066 247.755182 139.349432 
Q 250.316069 139.015679 252.955752 138.304503 
z
" style="fill:#0000ff;"/>
   </g>
   <g id="patch_13">
    <path clip-path="url(#pea978857fe)" d="M 252.955752 117.736563 
Q 249.801684 122.518281 246.409309 124.920058 
Q 243.016934 127.3 239.400269 127.3 
Q 231.227728 127.3 226.454572 113.064016 
Q 221.681416 98.828031 221.681416 74.482751 
Q 221.681416 49.853625 226.538681 35.726813 
Q 231.402954 21.6 239.862866 21.6 
Q 243.122069 21.6 246.10792 23.521421 
Q 249.10078 25.421008 251.750197 29.176513 
L 251.750197 50.246643 
Q 249.016672 45.421256 246.311182 43.041314 
Q 243.605693 40.639537 240.886185 40.639537 
Q 235.853695 40.639537 233.127178 49.416939 
Q 230.400662 58.172506 230.400662 74.482751 
Q 230.400662 90.640157 233.029052 99.461227 
Q 235.657442 108.260463 240.493679 108.260463 
Q 241.811379 108.260463 242.939834 107.758273 
Q 244.06829 107.234249 244.965447 106.142533 
L 244.965447 86.360628 
L 239.813802 86.360628 
L 239.813802 68.740322 
L 252.955752 68.740322 
z
" style="fill:#ffa600;"/>
   </g>
   <g id="patch_14">
    <path clip-path="url(#pea978857fe)" d="M 254.60177 142.4 
L 285.876106 142.4 
L 285.876106 145.344921 
L 274.624618 145.344921 
L 274.624618 157.5 
L 265.875077 157.5 
L 265.875077 145.344921 
L 254.60177 145.344921 
z
" style="fill:#ff0000;"/>
   </g>
   <g id="patch_15">
    <path clip-path="url(#pea978857fe)" d="M 276.26553 134.14775 
L 264.237923 134.14775 
L 262.338827 142.4 
L 254.60177 142.4 
L 265.651055 97.1 
L 274.826821 97.1 
L 285.876106 142.4 
L 278.145443 142.4 
z
M 266.156202 125.740163 
L 274.328069 125.740163 
L 270.248529 107.721132 
z
" style="fill:#008000;"/>
   </g>
   <g id="patch_16">
    <path clip-path="url(#pea978857fe)" d="M 285.876106 90.268973 
Q 282.722038 93.684487 279.329663 95.400041 
Q 275.937288 97.1 272.320623 97.1 
Q 264.148082 97.1 259.374926 86.93144 
Q 254.60177 76.76288 254.60177 59.373394 
Q 254.60177 41.781161 259.459035 31.69058 
Q 264.323308 21.6 272.78322 21.6 
Q 276.042423 21.6 279.028274 22.972444 
Q 282.021134 24.329291 284.670551 27.011795 
L 284.670551 42.061888 
Q 281.937026 38.615183 279.231536 36.915224 
Q 276.526047 35.199669 273.806539 35.199669 
Q 268.774049 35.199669 266.047532 41.469242 
Q 263.321016 47.723218 263.321016 59.373394 
Q 263.321016 70.914398 265.949406 77.215162 
Q 268.577796 83.500331 273.414033 83.500331 
Q 274.731733 83.500331 275.860188 83.141624 
Q 276.988644 82.767321 277.885801 81.987523 
L 277.885801 67.857591 
L 272.734156 67.857591 
L 272.734156 55.271659 
L 285.876106 55.271659 
z
" style="fill:#ffa600;"/>
   </g>
   <g id="patch_17">
    <path clip-path="url(#pea978857fe)" d="M 287.522124 21.6 
L 318.79646 21.6 
L 318.79646 48.104286 
L 307.544972 48.104286 
L 307.544972 157.5 
L 298.795431 157.5 
L 298.795431 48.104286 
L 287.522124 48.104286 
z
" style="fill:#ff0000;"/>
   </g>
   <g id="patch_18">
    <path clip-path="url(#pea978857fe)" d="M 351.716814 154.767589 
Q 348.562746 156.133795 345.170371 156.820017 
Q 341.777996 157.5 338.161331 157.5 
Q 329.98879 157.5 325.215634 153.432576 
Q 320.442478 149.365152 320.442478 142.409358 
Q 320.442478 135.372464 325.299743 131.336232 
Q 330.164016 127.3 338.623928 127.3 
Q 341.883131 127.3 344.868982 127.848977 
Q 347.861842 128.391717 350.511259 129.464718 
L 350.511259 135.484755 
Q 347.777734 134.106073 345.072244 133.42609 
Q 342.366755 132.739868 339.647247 132.739868 
Q 334.614757 132.739868 331.88824 135.247697 
Q 329.161724 137.749287 329.161724 142.409358 
Q 329.161724 147.025759 331.790114 149.546065 
Q 334.418504 152.060132 339.254741 152.060132 
Q 340.572441 152.060132 341.700896 151.916649 
Q 342.829351 151.766928 343.726509 151.455009 
L 343.726509 145.803037 
L 338.574864 145.803037 
L 338.574864 140.768663 
L 351.716814 140.768663 
z
" style="fill:#ffa600;"/>
   </g>
   <g id="patch_19">
    <path clip-path="url(#pea978857fe)" d="M 342.106238 108.044749 
L 330.078631 108.044749 
L 328.179535 127.3 
L 320.442478 127.3 
L 331.491763 21.6 
L 340.667529 21.6 
L 351.716814 127.3 
L 343.986151 127.3 
z
M 331.99691 88.427047 
L 340.168777 88.427047 
L 336.089237 46.38264 
z
" style="fill:#008000;"/>
   </g>
   <g id="patch_20">
    <path clip-path="url(#pea978857fe)" d="M 375.026592 149.24775 
L 362.998985 149.24775 
L 361.099889 157.5 
L 353.362832 157.5 
L 364.412117 112.2 
L 373.587883 112.2 
L 384.637168 157.5 
L 376.906505 157.5 
z
M 364.917264 140.840163 
L 373.089131 140.840163 
L 369.009591 122.821132 
z
" style="fill:#008000;"/>
   </g>
   <g id="patch_21">
    <path clip-path="url(#pea978857fe)" d="M 384.637168 104.002768 
Q 381.4831 108.101384 378.090725 110.16005 
Q 374.698349 112.2 371.081685 112.2 
Q 362.909144 112.2 358.135988 99.997728 
Q 353.362832 87.795455 353.362832 66.928073 
Q 353.362832 45.817393 358.220097 33.708697 
Q 363.08437 21.6 371.544282 21.6 
Q 374.803485 21.6 377.789336 23.246932 
Q 380.782196 24.87515 383.431613 28.094154 
L 383.431613 46.154266 
Q 380.698088 42.018219 377.992598 39.978269 
Q 375.287109 37.919603 372.567601 37.919603 
Q 367.535111 37.919603 364.808594 45.44309 
Q 362.082078 52.947862 362.082078 66.928073 
Q 362.082078 80.777277 364.710468 88.338195 
Q 367.338858 95.880397 372.175095 95.880397 
Q 373.492795 95.880397 374.62125 95.449948 
Q 375.749705 95.000785 376.646863 94.065028 
L 376.646863 77.10911 
L 371.495218 77.10911 
L 371.495218 62.00599 
L 384.637168 62.00599 
z
" style="fill:#ffa600;"/>
   </g>
   <g id="patch_22">
    <path clip-path="url(#pea978857fe)" d="M 407.946946 151.9985 
L 395.919339 151.9985 
L 394.020243 157.5 
L 386.283186 157.5 
L 397.332471 127.3 
L 406.508237 127.3 
L 417.557522 157.5 
L 409.826859 157.5 
z
M 397.837618 146.393442 
L 406.009485 146.393442 
L 401.929945 134.380754 
z
" style="fill:#008000;"/>
   </g>
   <g id="patch_23">
    <path clip-path="url(#pea978857fe)" d="M 417.557522 117.736563 
Q 414.403454 122.518281 411.011079 124.920058 
Q 407.618703 127.3 404.002039 127.3 
Q 395.829498 127.3 391.056342 113.064016 
Q 386.283186 98.828031 386.283186 74.482751 
Q 386.283186 49.853625 391.140451 35.726813 
Q 396.004724 21.6 404.464635 21.6 
Q 407.723839 21.6 410.70969 23.521421 
Q 413.70255 25.421008 416.351967 29.176513 
L 416.351967 50.246643 
Q 413.618442 45.421256 410.912952 43.041314 
Q 408.207463 40.639537 405.487955 40.639537 
Q 400.455465 40.639537 397.728948 49.416939 
Q 395.002432 58.172506 395.002432 74.482751 
Q 395.002432 90.640157 397.630822 99.461227 
Q 400.259212 108.260463 405.095449 108.260463 
Q 406.413149 108.260463 407.541604 107.758273 
Q 408.670059 107.234249 409.567217 106.142533 
L 409.567217 86.360628 
L 404.415572 86.360628 
L 404.415572 68.740322 
L 417.557522 68.740322 
z
" style="fill:#ffa600;"/>
   </g>
   <g id="patch_24">
    <path clip-path="url(#pea978857fe)" d="M 440.8673 151.9985 
L 428.839693 151.9985 
L 426.940597 157.5 
L 419.20354 157.5 
L 430.252825 127.3 
L 439.428591 127.3 
L 450.477876 157.5 
L 442.747213 157.5 
z
M 430.757972 146.393442 
L 438.929839 146.393442 
L 434.850299 134.380754 
z
" style="fill:#008000;"/>
   </g>
   <g id="patch_25">
    <path clip-path="url(#pea978857fe)" d="M 419.20354 97.1 
L 450.477876 97.1 
L 450.477876 102.989841 
L 439.226388 102.989841 
L 439.226388 127.3 
L 430.476847 127.3 
L 430.476847 102.989841 
L 419.20354 102.989841 
z
" style="fill:#ff0000;"/>
   </g>
   <g id="patch_26">
    <path clip-path="url(#pea978857fe)" d="M 450.477876 90.268973 
Q 447.323808 93.684487 443.931433 95.400041 
Q 440.539057 97.1 436.922393 97.1 
Q 428.749852 97.1 423.976696 86.93144 
Q 419.20354 76.76288 419.20354 59.373394 
Q 419.20354 41.781161 424.060805 31.69058 
Q 428.925078 21.6 437.384989 21.6 
Q 440.644193 21.6 443.630044 22.972444 
Q 446.622904 24.329291 449.272321 27.011795 
L 449.272321 42.061888 
Q 446.538796 38.615183 443.833306 36.915224 
Q 441.127817 35.199669 438.408309 35.199669 
Q 433.375819 35.199669 430.649302 41.469242 
Q 427.922786 47.723218 427.922786 59.373394 
Q 427.922786 70.914398 430.551176 77.215162 
Q 433.179565 83.500331 438.015803 83.500331 
Q 439.333503 83.500331 440.461958 83.141624 
Q 441.590413 82.767321 442.487571 81.987523 
L 442.487571 67.857591 
L 437.335926 67.857591 
L 437.335926 55.271659 
L 450.477876 55.271659 
z
" style="fill:#ffa600;"/>
   </g>
   <g id="patch_27">
    <path clip-path="url(#pea978857fe)" d="M 483.39823 156.417641 
Q 480.782186 156.954142 477.953391 157.225511 
Q 475.124596 157.5 472.043652 157.5 
Q 462.855979 157.5 457.489936 155.466288 
Q 452.123894 153.432576 452.123894 149.954679 
Q 452.123894 146.464305 457.489936 144.433712 
Q 462.855979 142.4 472.043652 142.4 
Q 475.124596 142.4 477.953391 142.674489 
Q 480.782186 142.945858 483.39823 143.482359 
L 483.39823 146.492378 
Q 480.758547 145.781202 478.19766 145.450568 
Q 475.636773 145.119934 472.807979 145.119934 
Q 467.733483 145.119934 464.825892 146.408159 
Q 461.92618 147.693266 461.92618 149.954679 
Q 461.92618 152.206734 464.825892 153.49496 
Q 467.733483 154.780066 472.807979 154.780066 
Q 475.636773 154.780066 478.19766 154.449432 
Q 480.758547 154.115679 483.39823 153.404503 
z
" style="fill:#0000ff;"/>
   </g>
   <g id="patch_28">
    <path clip-path="url(#pea978857fe)" d="M 452.123894 112.2 
L 483.39823 112.2 
L 483.39823 118.089841 
L 472.146742 118.089841 
L 472.146742 142.4 
L 463.397201 142.4 
L 463.397201 118.089841 
L 452.123894 118.089841 
z
" style="fill:#ff0000;"/>
   </g>
   <g id="patch_29">
    <path clip-path="url(#pea978857fe)" d="M 473.787654 103.94775 
L 461.760047 103.94775 
L 459.860951 112.2 
L 452.123894 112.2 
L 463.173179 66.9 
L 472.348945 66.9 
L 483.39823 112.2 
L 475.667567 112.2 
z
M 463.678326 95.540163 
L 471.850193 95.540163 
L 467.770653 77.521132 
z
" style="fill:#008000;"/>
   </g>
   <g id="patch_30">
    <path clip-path="url(#pea978857fe)" d="M 483.39823 62.801384 
Q 480.244162 64.850692 476.851787 65.880025 
Q 473.459411 66.9 469.842747 66.9 
Q 461.670206 66.9 456.89705 60.798864 
Q 452.123894 54.697728 452.123894 44.264036 
Q 452.123894 33.708697 456.981158 27.654348 
Q 461.845432 21.6 470.305343 21.6 
Q 473.564547 21.6 476.550398 22.423466 
Q 479.543258 23.237575 482.192675 24.847077 
L 482.192675 33.877133 
Q 479.45915 31.80911 476.75366 30.789134 
Q 474.048171 29.759802 471.328663 29.759802 
Q 466.296173 29.759802 463.569656 33.521545 
Q 460.84314 37.273931 460.84314 44.264036 
Q 460.84314 51.188639 463.471529 54.969097 
Q 466.099919 58.740198 470.936157 58.740198 
Q 472.253857 58.740198 473.382312 58.524974 
Q 474.510767 58.300392 475.407925 57.832514 
L 475.407925 49.354555 
L 470.25628 49.354555 
L 470.25628 41.802995 
L 483.39823 41.802995 
z
" style="fill:#ffa600;"/>
   </g>
   <g id="patch_31">
    <path clip-path="url(#pea978857fe)" d="M 516.318584 153.401384 
Q 513.164516 155.450692 509.772141 156.480025 
Q 506.379765 157.5 502.763101 157.5 
Q 494.59056 157.5 489.817404 151.398864 
Q 485.044248 145.297728 485.044248 134.864036 
Q 485.044248 124.308697 489.901512 118.254348 
Q 494.765786 112.2 503.225697 112.2 
Q 506.484901 112.2 509.470752 113.023466 
Q 512.463612 113.837575 515.113029 115.447077 
L 515.113029 124.477133 
Q 512.379504 122.40911 509.674014 121.389134 
Q 506.968525 120.359802 504.249017 120.359802 
Q 499.216527 120.359802 496.49001 124.121545 
Q 493.763493 127.873931 493.763493 134.864036 
Q 493.763493 141.788639 496.391883 145.569097 
Q 499.020273 149.340198 503.856511 149.340198 
Q 505.174211 149.340198 506.302666 149.124974 
Q 507.431121 148.900392 508.328279 148.432514 
L 508.328279 139.954555 
L 503.176634 139.954555 
L 503.176634 132.402995 
L 516.318584 132.402995 
z
" style="fill:#ffa600;"/>
   </g>
   <g id="patch_32">
    <path clip-path="url(#pea978857fe)" d="M 506.708008 95.695499 
L 494.680401 95.695499 
L 492.781305 112.2 
L 485.044248 112.2 
L 496.093533 21.6 
L 505.269299 21.6 
L 516.318584 112.2 
L 508.587921 112.2 
z
M 496.59868 78.880326 
L 504.770547 78.880326 
L 500.691007 42.842263 
z
" style="fill:#008000;"/>
   </g>
   <g id="patch_33">
    <path clip-path="url(#pea978857fe)" d="M 549.238938 156.417641 
Q 546.622894 156.954142 543.794099 157.225511 
Q 540.965304 157.5 537.88436 157.5 
Q 528.696687 157.5 523.330644 155.466288 
Q 517.964602 153.432576 517.964602 149.954679 
Q 517.964602 146.464305 523.330644 144.433712 
Q 528.696687 142.4 537.88436 142.4 
Q 540.965304 142.4 543.794099 142.674489 
Q 546.622894 142.945858 549.238938 143.482359 
L 549.238938 146.492378 
Q 546.599255 145.781202 544.038368 145.450568 
Q 541.477481 145.119934 538.648687 145.119934 
Q 533.574191 145.119934 530.6666 146.408159 
Q 527.766888 147.693266 527.766888 149.954679 
Q 527.766888 152.206734 530.6666 153.49496 
Q 533.574191 154.780066 538.648687 154.780066 
Q 541.477481 154.780066 544.038368 154.449432 
Q 546.599255 154.115679 549.238938 153.404503 
z
" style="fill:#0000ff;"/>
   </g>
   <g id="patch_34">
    <path clip-path="url(#pea978857fe)" d="M 549.238938 141.033795 
Q 546.08487 141.716897 542.692495 142.060008 
Q 539.300119 142.4 535.683455 142.4 
Q 527.510914 142.4 522.737758 140.366288 
Q 517.964602 138.332576 517.964602 134.854679 
Q 517.964602 131.336232 522.821866 129.318116 
Q 527.68614 127.3 536.146051 127.3 
Q 539.405255 127.3 542.391106 127.574489 
Q 545.383966 127.845858 548.033383 128.382359 
L 548.033383 131.392378 
Q 545.299858 130.703037 542.594368 130.363045 
Q 539.888879 130.019934 537.169371 130.019934 
Q 532.136881 130.019934 529.410364 131.273848 
Q 526.683847 132.524644 526.683847 134.854679 
Q 526.683847 137.16288 529.312237 138.423032 
Q 531.940627 139.680066 536.776865 139.680066 
Q 538.094565 139.680066 539.22302 139.608325 
Q 540.351475 139.533464 541.248633 139.377505 
L 541.248633 136.551518 
L 536.096988 136.551518 
L 536.096988 134.034332 
L 549.238938 134.034332 
z
" style="fill:#ffa600;"/>
   </g>
   <g id="patch_35">
    <path clip-path="url(#pea978857fe)" d="M 517.964602 82 
L 549.238938 82 
L 549.238938 90.834762 
L 537.98745 90.834762 
L 537.98745 127.3 
L 529.237909 127.3 
L 529.237909 90.834762 
L 517.964602 90.834762 
z
" style="fill:#ff0000;"/>
   </g>
   <g id="patch_36">
    <path clip-path="url(#pea978857fe)" d="M 539.628362 70.997 
L 527.600755 70.997 
L 525.701659 82 
L 517.964602 82 
L 529.013887 21.6 
L 538.189653 21.6 
L 549.238938 82 
L 541.508275 82 
z
M 529.519034 59.786884 
L 537.690901 59.786884 
L 533.611361 35.761509 
z
" style="fill:#008000;"/>
   </g>
   <g id="patch_37">
    <path clip-path="url(#pea978857fe)" d="M 572.548716 154.74925 
L 560.521109 154.74925 
L 558.622013 157.5 
L 550.884956 157.5 
L 561.934241 142.4 
L 571.110007 142.4 
L 582.159292 157.5 
L 574.428629 157.5 
z
M 562.439387 151.946721 
L 570.611255 151.946721 
L 566.531715 145.940377 
z
" style="fill:#008000;"/>
   </g>
   <g id="patch_38">
    <path clip-path="url(#pea978857fe)" d="M 582.159292 141.317641 
Q 579.543248 141.854142 576.714453 142.125511 
Q 573.885658 142.4 570.804714 142.4 
Q 561.617041 142.4 556.250998 140.366288 
Q 550.884956 138.332576 550.884956 134.854679 
Q 550.884956 131.364305 556.250998 129.333712 
Q 561.617041 127.3 570.804714 127.3 
Q 573.885658 127.3 576.714453 127.574489 
Q 579.543248 127.845858 582.159292 128.382359 
L 582.159292 131.392378 
Q 579.519609 130.681202 576.958722 130.350568 
Q 574.397835 130.019934 571.569041 130.019934 
Q 566.494545 130.019934 563.586954 131.308159 
Q 560.687242 132.593266 560.687242 134.854679 
Q 560.687242 137.106734 563.586954 138.39496 
Q 566.494545 139.680066 571.569041 139.680066 
Q 574.397835 139.680066 576.958722 139.349432 
Q 579.519609 139.015679 582.159292 138.304503 
z
" style="fill:#0000ff;"/>
   </g>
   <g id="patch_39">
    <path clip-path="url(#pea978857fe)" d="M 550.884956 21.6 
L 582.159292 21.6 
L 582.159292 42.214445 
L 570.907804 42.214445 
L 570.907804 127.3 
L 562.158263 127.3 
L 562.158263 42.214445 
L 550.884956 42.214445 
z
" style="fill:#ff0000;"/>
   </g>
   <g id="patch_40">
    <path clip-path="url(#pea978857fe)" d="M 615.079646 156.417641 
Q 612.463602 156.954142 609.634807 157.225511 
Q 606.806012 157.5 603.725068 157.5 
Q 594.537395 157.5 589.171352 155.466288 
Q 583.80531 153.432576 583.80531 149.954679 
Q 583.80531 146.464305 589.171352 144.433712 
Q 594.537395 142.4 603.725068 142.4 
Q 606.806012 142.4 609.634807 142.674489 
Q 612.463602 142.945858 615.079646 143.482359 
L 615.079646 146.492378 
Q 612.439963 145.781202 609.879076 145.450568 
Q 607.318189 145.119934 604.489395 145.119934 
Q 599.414899 145.119934 596.507308 146.408159 
Q 593.607596 147.693266 593.607596 149.954679 
Q 593.607596 152.206734 596.507308 153.49496 
Q 599.414899 154.780066 604.489395 154.780066 
Q 607.318189 154.780066 609.879076 154.449432 
Q 612.439963 154.115679 615.079646 153.404503 
z
" style="fill:#0000ff;"/>
   </g>
   <g id="patch_41">
    <path clip-path="url(#pea978857fe)" d="M 605.46907 136.8985 
L 593.441463 136.8985 
L 591.542367 142.4 
L 583.80531 142.4 
L 594.854595 112.2 
L 604.030361 112.2 
L 615.079646 142.4 
L 607.348983 142.4 
z
M 595.359741 131.293442 
L 603.531609 131.293442 
L 599.452069 119.280754 
z
" style="fill:#008000;"/>
   </g>
   <g id="patch_42">
    <path clip-path="url(#pea978857fe)" d="M 583.80531 21.6 
L 615.079646 21.6 
L 615.079646 39.269524 
L 603.828158 39.269524 
L 603.828158 112.2 
L 595.078617 112.2 
L 595.078617 39.269524 
L 583.80531 39.269524 
z
" style="fill:#ff0000;"/>
   </g>
   <g id="patch_43">
    <path clip-path="url(#pea978857fe)" d="M 648 155.335282 
Q 645.383956 156.408283 642.555161 156.951023 
Q 639.726366 157.5 636.645422 157.5 
Q 627.457749 157.5 622.091706 153.432576 
Q 616.725664 149.365152 616.725664 142.409358 
Q 616.725664 135.42861 622.091706 131.367424 
Q 627.457749 127.3 636.645422 127.3 
Q 639.726366 127.3 642.555161 127.848977 
Q 645.383956 128.391717 648 129.464718 
L 648 135.484755 
Q 645.360317 134.062404 642.79943 133.401136 
Q 640.238543 132.739868 637.409749 132.739868 
Q 632.335253 132.739868 629.427662 135.316319 
Q 626.52795 137.886532 626.52795 142.409358 
Q 626.52795 146.913468 629.427662 149.489919 
Q 632.335253 152.060132 637.409749 152.060132 
Q 640.238543 152.060132 642.79943 151.398864 
Q 645.360317 150.731357 648 149.309006 
z
" style="fill:#0000ff;"/>
   </g>
   <g id="patch_44">
    <path clip-path="url(#pea978857fe)" d="M 648 124.567589 
Q 644.845932 125.933795 641.453557 126.620017 
Q 638.061181 127.3 634.444517 127.3 
Q 626.271976 127.3 621.49882 123.232576 
Q 616.725664 119.165152 616.725664 112.209358 
Q 616.725664 105.172464 621.582928 101.136232 
Q 626.447202 97.1 634.907113 97.1 
Q 638.166317 97.1 641.152168 97.648977 
Q 644.145028 98.191717 646.794445 99.264718 
L 646.794445 105.284755 
Q 644.06092 103.906073 641.35543 103.22609 
Q 638.649941 102.539868 635.930433 102.539868 
Q 630.897943 102.539868 628.171426 105.047697 
Q 625.444909 107.549287 625.444909 112.209358 
Q 625.444909 116.825759 628.073299 119.346065 
Q 630.701689 121.860132 635.537927 121.860132 
Q 636.855626 121.860132 637.984082 121.716649 
Q 639.112537 121.566928 640.009694 121.255009 
L 640.009694 115.603037 
L 634.85805 115.603037 
L 634.85805 110.568663 
L 648 110.568663 
z
" style="fill:#ffa600;"/>
   </g>
   <g id="patch_45">
    <path clip-path="url(#pea978857fe)" d="M 616.725664 66.9 
L 648 66.9 
L 648 72.789841 
L 636.748512 72.789841 
L 636.748512 97.1 
L 627.998971 97.1 
L 627.998971 72.789841 
L 616.725664 72.789841 
z
" style="fill:#ff0000;"/>
   </g>
   <g id="patch_46">
    <path clip-path="url(#pea978857fe)" d="M 638.389424 58.64775 
L 626.361817 58.64775 
L 624.462721 66.9 
L 616.725664 66.9 
L 627.774949 21.6 
L 636.950715 21.6 
L 648 66.9 
L 640.269337 66.9 
z
M 628.280095 50.240163 
L 636.451963 50.240163 
L 632.372423 32.221132 
z
" style="fill:#008000;"/>
   </g>
  </g>
 </g>
 <defs>
  <clipPath id="pea978857fe">
   <rect height="135.9" width="558" x="90" y="21.6"/>
  </clipPath>
 </defs>
</svg>
