<?xml version="1.0" encoding="utf-8" standalone="no"?>
<!DOCTYPE svg PUBLIC "-//W3C//DTD SVG 1.1//EN"
  "http://www.w3.org/Graphics/SVG/1.1/DTD/svg11.dtd">
<!-- Created with matplotlib (https://matplotlib.org/) -->
<svg height="180pt" version="1.1" viewBox="0 0 720 180" width="720pt" xmlns="http://www.w3.org/2000/svg" xmlns:xlink="http://www.w3.org/1999/xlink">
 <metadata>
  <rdf:RDF xmlns:cc="http://creativecommons.org/ns#" xmlns:dc="http://purl.org/dc/elements/1.1/" xmlns:rdf="http://www.w3.org/1999/02/22-rdf-syntax-ns#">
   <cc:Work>
    <dc:type rdf:resource="http://purl.org/dc/dcmitype/StillImage"/>
    <dc:date>2021-08-04T23:34:03.490568</dc:date>
    <dc:format>image/svg+xml</dc:format>
    <dc:creator>
     <cc:Agent>
      <dc:title>Matplotlib v3.3.2, https://matplotlib.org/</dc:title>
     </cc:Agent>
    </dc:creator>
   </cc:Work>
  </rdf:RDF>
 </metadata>
 <defs>
  <style type="text/css">*{stroke-linecap:butt;stroke-linejoin:round;}</style>
 </defs>
 <g id="figure_1">
  <g id="patch_1">
   <path d="M 0 180 
L 720 180 
L 720 0 
L 0 0 
z
" style="fill:none;"/>
  </g>
  <g id="axes_1">
   <g id="line2d_1">
    <path clip-path="url(#pd6c04557cf)" d="M 90 157.5 
L 648 157.5 
" style="fill:none;stroke:#000000;stroke-linecap:square;stroke-width:0.5;"/>
   </g>
   <g id="patch_2">
    <path clip-path="url(#pd6c04557cf)" d="M 90 142.4 
L 121.274336 142.4 
L 121.274336 145.344921 
L 110.022848 145.344921 
L 110.022848 157.5 
L 101.273307 157.5 
L 101.273307 145.344921 
L 90 145.344921 
z
" style="fill:#ff0000;"/>
   </g>
   <g id="patch_3">
    <path clip-path="url(#pd6c04557cf)" d="M 144.584114 154.74925 
L 132.556507 154.74925 
L 130.657411 157.5 
L 122.920354 157.5 
L 133.969639 142.4 
L 143.145405 142.4 
L 154.19469 157.5 
L 146.464027 157.5 
z
M 134.474786 151.946721 
L 142.646653 151.946721 
L 138.567114 145.940377 
z
" style="fill:#008000;"/>
   </g>
   <g id="patch_4">
    <path clip-path="url(#pd6c04557cf)" d="M 155.840708 142.4 
L 187.115044 142.4 
L 187.115044 145.344921 
L 175.863556 145.344921 
L 175.863556 157.5 
L 167.114015 157.5 
L 167.114015 145.344921 
L 155.840708 145.344921 
z
" style="fill:#ff0000;"/>
   </g>
   <g id="patch_5">
    <path clip-path="url(#pd6c04557cf)" d="M 210.424822 154.74925 
L 198.397215 154.74925 
L 196.498119 157.5 
L 188.761062 157.5 
L 199.810347 142.4 
L 208.986113 142.4 
L 220.035398 157.5 
L 212.304735 157.5 
z
M 200.315494 151.946721 
L 208.487361 151.946721 
L 204.407821 145.940377 
z
" style="fill:#008000;"/>
   </g>
   <g id="patch_6">
    <path clip-path="url(#pd6c04557cf)" d="M 243.345176 154.74925 
L 231.317569 154.74925 
L 229.418473 157.5 
L 221.681416 157.5 
L 232.730701 142.4 
L 241.906467 142.4 
L 252.955752 157.5 
L 245.225089 157.5 
z
M 233.235848 151.946721 
L 241.407715 151.946721 
L 237.328175 145.940377 
z
" style="fill:#008000;"/>
   </g>
   <g id="patch_7">
    <path clip-path="url(#pd6c04557cf)" d="M 285.876106 156.133795 
Q 282.722038 156.816897 279.329663 157.160008 
Q 275.937288 157.5 272.320623 157.5 
Q 264.148082 157.5 259.374926 155.466288 
Q 254.60177 153.432576 254.60177 149.954679 
Q 254.60177 146.436232 259.459035 144.418116 
Q 264.323308 142.4 272.78322 142.4 
Q 276.042423 142.4 279.028274 142.674489 
Q 282.021134 142.945858 284.670551 143.482359 
L 284.670551 146.492378 
Q 281.937026 145.803037 279.231536 145.463045 
Q 276.526047 145.119934 273.806539 145.119934 
Q 268.774049 145.119934 266.047532 146.373848 
Q 263.321016 147.624644 263.321016 149.954679 
Q 263.321016 152.26288 265.949406 153.523032 
Q 268.577796 154.780066 273.414033 154.780066 
Q 274.731733 154.780066 275.860188 154.708325 
Q 276.988644 154.633464 277.885801 154.477505 
L 277.885801 151.651518 
L 272.734156 151.651518 
L 272.734156 149.134332 
L 285.876106 149.134332 
z
" style="fill:#ffa600;"/>
   </g>
   <g id="patch_8">
    <path clip-path="url(#pd6c04557cf)" d="M 318.79646 156.133795 
Q 315.642392 156.816897 312.250017 157.160008 
Q 308.857642 157.5 305.240977 157.5 
Q 297.068436 157.5 292.29528 155.466288 
Q 287.522124 153.432576 287.522124 149.954679 
Q 287.522124 146.436232 292.379389 144.418116 
Q 297.243662 142.4 305.703574 142.4 
Q 308.962777 142.4 311.948628 142.674489 
Q 314.941488 142.945858 317.590905 143.482359 
L 317.590905 146.492378 
Q 314.85738 145.803037 312.15189 145.463045 
Q 309.446401 145.119934 306.726893 145.119934 
Q 301.694403 145.119934 298.967886 146.373848 
Q 296.24137 147.624644 296.24137 149.954679 
Q 296.24137 152.26288 298.86976 153.523032 
Q 301.49815 154.780066 306.334387 154.780066 
Q 307.652087 154.780066 308.780542 154.708325 
Q 309.908998 154.633464 310.806155 154.477505 
L 310.806155 151.651518 
L 305.65451 151.651518 
L 305.65451 149.134332 
L 318.79646 149.134332 
z
" style="fill:#ffa600;"/>
   </g>
   <g id="patch_9">
    <path clip-path="url(#pd6c04557cf)" d="M 351.716814 156.133795 
Q 348.562746 156.816897 345.170371 157.160008 
Q 341.777996 157.5 338.161331 157.5 
Q 329.98879 157.5 325.215634 155.466288 
Q 320.442478 153.432576 320.442478 149.954679 
Q 320.442478 146.436232 325.299743 144.418116 
Q 330.164016 142.4 338.623928 142.4 
Q 341.883131 142.4 344.868982 142.674489 
Q 347.861842 142.945858 350.511259 143.482359 
L 350.511259 146.492378 
Q 347.777734 145.803037 345.072244 145.463045 
Q 342.366755 145.119934 339.647247 145.119934 
Q 334.614757 145.119934 331.88824 146.373848 
Q 329.161724 147.624644 329.161724 149.954679 
Q 329.161724 152.26288 331.790114 153.523032 
Q 334.418504 154.780066 339.254741 154.780066 
Q 340.572441 154.780066 341.700896 154.708325 
Q 342.829351 154.633464 343.726509 154.477505 
L 343.726509 151.651518 
L 338.574864 151.651518 
L 338.574864 149.134332 
L 351.716814 149.134332 
z
" style="fill:#ffa600;"/>
   </g>
   <g id="patch_10">
    <path clip-path="url(#pd6c04557cf)" d="M 384.637168 156.417641 
Q 382.021124 156.954142 379.192329 157.225511 
Q 376.363534 157.5 373.282591 157.5 
Q 364.094917 157.5 358.728874 155.466288 
Q 353.362832 153.432576 353.362832 149.954679 
Q 353.362832 146.464305 358.728874 144.433712 
Q 364.094917 142.4 373.282591 142.4 
Q 376.363534 142.4 379.192329 142.674489 
Q 382.021124 142.945858 384.637168 143.482359 
L 384.637168 146.492378 
Q 381.997485 145.781202 379.436598 145.450568 
Q 376.875712 145.119934 374.046917 145.119934 
Q 368.972421 145.119934 366.06483 146.408159 
Q 363.165118 147.693266 363.165118 149.954679 
Q 363.165118 152.206734 366.06483 153.49496 
Q 368.972421 154.780066 374.046917 154.780066 
Q 376.875712 154.780066 379.436598 154.449432 
Q 381.997485 154.115679 384.637168 153.404503 
z
" style="fill:#0000ff;"/>
   </g>
   <g id="patch_11">
    <path clip-path="url(#pd6c04557cf)" d="M 375.026592 136.8985 
L 362.998985 136.8985 
L 361.099889 142.4 
L 353.362832 142.4 
L 364.412117 112.2 
L 373.587883 112.2 
L 384.637168 142.4 
L 376.906505 142.4 
z
M 364.917264 131.293442 
L 373.089131 131.293442 
L 369.009591 119.280754 
z
" style="fill:#008000;"/>
   </g>
   <g id="patch_12">
    <path clip-path="url(#pd6c04557cf)" d="M 353.362832 82 
L 384.637168 82 
L 384.637168 87.889841 
L 373.38568 87.889841 
L 373.38568 112.2 
L 364.636139 112.2 
L 364.636139 87.889841 
L 353.362832 87.889841 
z
" style="fill:#ff0000;"/>
   </g>
   <g id="patch_13">
    <path clip-path="url(#pd6c04557cf)" d="M 384.637168 76.535179 
Q 381.4831 79.267589 378.090725 80.640033 
Q 374.698349 82 371.081685 82 
Q 362.909144 82 358.135988 73.865152 
Q 353.362832 65.730304 353.362832 51.818715 
Q 353.362832 37.744929 358.220097 29.672464 
Q 363.08437 21.6 371.544282 21.6 
Q 374.803485 21.6 377.789336 22.697955 
Q 380.782196 23.783433 383.431613 25.929436 
L 383.431613 37.96951 
Q 380.698088 35.212146 377.992598 33.852179 
Q 375.287109 32.479736 372.567601 32.479736 
Q 367.535111 32.479736 364.808594 37.495394 
Q 362.082078 42.498575 362.082078 51.818715 
Q 362.082078 61.051518 364.710468 66.09213 
Q 367.338858 71.120264 372.175095 71.120264 
Q 373.492795 71.120264 374.62125 70.833299 
Q 375.749705 70.533857 376.646863 69.910019 
L 376.646863 58.606073 
L 371.495218 58.606073 
L 371.495218 48.537327 
L 384.637168 48.537327 
z
" style="fill:#ffa600;"/>
   </g>
   <g id="patch_14">
    <path clip-path="url(#pd6c04557cf)" d="M 386.283186 142.4 
L 417.557522 142.4 
L 417.557522 145.344921 
L 406.306034 145.344921 
L 406.306034 157.5 
L 397.556493 157.5 
L 397.556493 145.344921 
L 386.283186 145.344921 
z
" style="fill:#ff0000;"/>
   </g>
   <g id="patch_15">
    <path clip-path="url(#pd6c04557cf)" d="M 407.946946 134.14775 
L 395.919339 134.14775 
L 394.020243 142.4 
L 386.283186 142.4 
L 397.332471 97.1 
L 406.508237 97.1 
L 417.557522 142.4 
L 409.826859 142.4 
z
M 397.837618 125.740163 
L 406.009485 125.740163 
L 401.929945 107.721132 
z
" style="fill:#008000;"/>
   </g>
   <g id="patch_16">
    <path clip-path="url(#pd6c04557cf)" d="M 417.557522 90.268973 
Q 414.403454 93.684487 411.011079 95.400041 
Q 407.618703 97.1 404.002039 97.1 
Q 395.829498 97.1 391.056342 86.93144 
Q 386.283186 76.76288 386.283186 59.373394 
Q 386.283186 41.781161 391.140451 31.69058 
Q 396.004724 21.6 404.464635 21.6 
Q 407.723839 21.6 410.70969 22.972444 
Q 413.70255 24.329291 416.351967 27.011795 
L 416.351967 42.061888 
Q 413.618442 38.615183 410.912952 36.915224 
Q 408.207463 35.199669 405.487955 35.199669 
Q 400.455465 35.199669 397.728948 41.469242 
Q 395.002432 47.723218 395.002432 59.373394 
Q 395.002432 70.914398 397.630822 77.215162 
Q 400.259212 83.500331 405.095449 83.500331 
Q 406.413149 83.500331 407.541604 83.141624 
Q 408.670059 82.767321 409.567217 81.987523 
L 409.567217 67.857591 
L 404.415572 67.857591 
L 404.415572 55.271659 
L 417.557522 55.271659 
z
" style="fill:#ffa600;"/>
   </g>
   <g id="patch_17">
    <path clip-path="url(#pd6c04557cf)" d="M 450.477876 156.133795 
Q 447.323808 156.816897 443.931433 157.160008 
Q 440.539057 157.5 436.922393 157.5 
Q 428.749852 157.5 423.976696 155.466288 
Q 419.20354 153.432576 419.20354 149.954679 
Q 419.20354 146.436232 424.060805 144.418116 
Q 428.925078 142.4 437.384989 142.4 
Q 440.644193 142.4 443.630044 142.674489 
Q 446.622904 142.945858 449.272321 143.482359 
L 449.272321 146.492378 
Q 446.538796 145.803037 443.833306 145.463045 
Q 441.127817 145.119934 438.408309 145.119934 
Q 433.375819 145.119934 430.649302 146.373848 
Q 427.922786 147.624644 427.922786 149.954679 
Q 427.922786 152.26288 430.551176 153.523032 
Q 433.179565 154.780066 438.015803 154.780066 
Q 439.333503 154.780066 440.461958 154.708325 
Q 441.590413 154.633464 442.487571 154.477505 
L 442.487571 151.651518 
L 437.335926 151.651518 
L 437.335926 149.134332 
L 450.477876 149.134332 
z
" style="fill:#ffa600;"/>
   </g>
   <g id="patch_18">
    <path clip-path="url(#pd6c04557cf)" d="M 419.20354 21.6 
L 450.477876 21.6 
L 450.477876 45.159366 
L 439.226388 45.159366 
L 439.226388 142.4 
L 430.476847 142.4 
L 430.476847 45.159366 
L 419.20354 45.159366 
z
" style="fill:#ff0000;"/>
   </g>
   <g id="patch_19">
    <path clip-path="url(#pd6c04557cf)" d="M 473.787654 146.497 
L 461.760047 146.497 
L 459.860951 157.5 
L 452.123894 157.5 
L 463.173179 97.1 
L 472.348945 97.1 
L 483.39823 157.5 
L 475.667567 157.5 
z
M 463.678326 135.286884 
L 471.850193 135.286884 
L 467.770653 111.261509 
z
" style="fill:#008000;"/>
   </g>
   <g id="patch_20">
    <path clip-path="url(#pd6c04557cf)" d="M 483.39823 90.268973 
Q 480.244162 93.684487 476.851787 95.400041 
Q 473.459411 97.1 469.842747 97.1 
Q 461.670206 97.1 456.89705 86.93144 
Q 452.123894 76.76288 452.123894 59.373394 
Q 452.123894 41.781161 456.981158 31.69058 
Q 461.845432 21.6 470.305343 21.6 
Q 473.564547 21.6 476.550398 22.972444 
Q 479.543258 24.329291 482.192675 27.011795 
L 482.192675 42.061888 
Q 479.45915 38.615183 476.75366 36.915224 
Q 474.048171 35.199669 471.328663 35.199669 
Q 466.296173 35.199669 463.569656 41.469242 
Q 460.84314 47.723218 460.84314 59.373394 
Q 460.84314 70.914398 463.471529 77.215162 
Q 466.099919 83.500331 470.936157 83.500331 
Q 472.253857 83.500331 473.382312 83.141624 
Q 474.510767 82.767321 475.407925 81.987523 
L 475.407925 67.857591 
L 470.25628 67.857591 
L 470.25628 55.271659 
L 483.39823 55.271659 
z
" style="fill:#ffa600;"/>
   </g>
   <g id="patch_21">
    <path clip-path="url(#pd6c04557cf)" d="M 516.318584 156.417641 
Q 513.70254 156.954142 510.873745 157.225511 
Q 508.04495 157.5 504.964006 157.5 
Q 495.776333 157.5 490.41029 155.466288 
Q 485.044248 153.432576 485.044248 149.954679 
Q 485.044248 146.464305 490.41029 144.433712 
Q 495.776333 142.4 504.964006 142.4 
Q 508.04495 142.4 510.873745 142.674489 
Q 513.70254 142.945858 516.318584 143.482359 
L 516.318584 146.492378 
Q 513.678901 145.781202 511.118014 145.450568 
Q 508.557127 145.119934 505.728333 145.119934 
Q 500.653837 145.119934 497.746246 146.408159 
Q 494.846534 147.693266 494.846534 149.954679 
Q 494.846534 152.206734 497.746246 153.49496 
Q 500.653837 154.780066 505.728333 154.780066 
Q 508.557127 154.780066 511.118014 154.449432 
Q 513.678901 154.115679 516.318584 153.404503 
z
" style="fill:#0000ff;"/>
   </g>
   <g id="patch_22">
    <path clip-path="url(#pd6c04557cf)" d="M 506.708008 120.393999 
L 494.680401 120.393999 
L 492.781305 142.4 
L 485.044248 142.4 
L 496.093533 21.6 
L 505.269299 21.6 
L 516.318584 142.4 
L 508.587921 142.4 
z
M 496.59868 97.973768 
L 504.770547 97.973768 
L 500.691007 49.923018 
z
" style="fill:#008000;"/>
   </g>
   <g id="patch_23">
    <path clip-path="url(#pd6c04557cf)" d="M 549.238938 156.417641 
Q 546.622894 156.954142 543.794099 157.225511 
Q 540.965304 157.5 537.88436 157.5 
Q 528.696687 157.5 523.330644 155.466288 
Q 517.964602 153.432576 517.964602 149.954679 
Q 517.964602 146.464305 523.330644 144.433712 
Q 528.696687 142.4 537.88436 142.4 
Q 540.965304 142.4 543.794099 142.674489 
Q 546.622894 142.945858 549.238938 143.482359 
L 549.238938 146.492378 
Q 546.599255 145.781202 544.038368 145.450568 
Q 541.477481 145.119934 538.648687 145.119934 
Q 533.574191 145.119934 530.6666 146.408159 
Q 527.766888 147.693266 527.766888 149.954679 
Q 527.766888 152.206734 530.6666 153.49496 
Q 533.574191 154.780066 538.648687 154.780066 
Q 541.477481 154.780066 544.038368 154.449432 
Q 546.599255 154.115679 549.238938 153.404503 
z
" style="fill:#0000ff;"/>
   </g>
   <g id="patch_24">
    <path clip-path="url(#pd6c04557cf)" d="M 549.238938 131.470357 
Q 546.08487 136.935179 542.692495 139.680066 
Q 539.300119 142.4 535.683455 142.4 
Q 527.510914 142.4 522.737758 126.130304 
Q 517.964602 109.860607 517.964602 82.03743 
Q 517.964602 53.889857 522.821866 37.744929 
Q 527.68614 21.6 536.146051 21.6 
Q 539.405255 21.6 542.391106 23.79591 
Q 545.383966 25.966866 548.033383 30.258872 
L 548.033383 54.339021 
Q 545.299858 48.824293 542.594368 46.104359 
Q 539.888879 43.359471 537.169371 43.359471 
Q 532.136881 43.359471 529.410364 53.390787 
Q 526.683847 63.397149 526.683847 82.03743 
Q 526.683847 100.503037 529.312237 110.584259 
Q 531.940627 120.640529 536.776865 120.640529 
Q 538.094565 120.640529 539.22302 120.066598 
Q 540.351475 119.467713 541.248633 118.220037 
L 541.248633 95.612146 
L 536.096988 95.612146 
L 536.096988 75.474654 
L 549.238938 75.474654 
z
" style="fill:#ffa600;"/>
   </g>
   <g id="patch_25">
    <path clip-path="url(#pd6c04557cf)" d="M 550.884956 142.4 
L 582.159292 142.4 
L 582.159292 145.344921 
L 570.907804 145.344921 
L 570.907804 157.5 
L 562.158263 157.5 
L 562.158263 145.344921 
L 550.884956 145.344921 
z
" style="fill:#ff0000;"/>
   </g>
   <g id="patch_26">
    <path clip-path="url(#pd6c04557cf)" d="M 582.159292 131.470357 
Q 579.005224 136.935179 575.612849 139.680066 
Q 572.220473 142.4 568.603809 142.4 
Q 560.431268 142.4 555.658112 126.130304 
Q 550.884956 109.860607 550.884956 82.03743 
Q 550.884956 53.889857 555.74222 37.744929 
Q 560.606494 21.6 569.066405 21.6 
Q 572.325609 21.6 575.31146 23.79591 
Q 578.30432 25.966866 580.953737 30.258872 
L 580.953737 54.339021 
Q 578.220212 48.824293 575.514722 46.104359 
Q 572.809233 43.359471 570.089725 43.359471 
Q 565.057235 43.359471 562.330718 53.390787 
Q 559.604201 63.397149 559.604201 82.03743 
Q 559.604201 100.503037 562.232591 110.584259 
Q 564.860981 120.640529 569.697219 120.640529 
Q 571.014919 120.640529 572.143374 120.066598 
Q 573.271829 119.467713 574.168986 118.220037 
L 574.168986 95.612146 
L 569.017342 95.612146 
L 569.017342 75.474654 
L 582.159292 75.474654 
z
" style="fill:#ffa600;"/>
   </g>
   <g id="patch_27">
    <path clip-path="url(#pd6c04557cf)" d="M 615.079646 156.417641 
Q 612.463602 156.954142 609.634807 157.225511 
Q 606.806012 157.5 603.725068 157.5 
Q 594.537395 157.5 589.171352 155.466288 
Q 583.80531 153.432576 583.80531 149.954679 
Q 583.80531 146.464305 589.171352 144.433712 
Q 594.537395 142.4 603.725068 142.4 
Q 606.806012 142.4 609.634807 142.674489 
Q 612.463602 142.945858 615.079646 143.482359 
L 615.079646 146.492378 
Q 612.439963 145.781202 609.879076 145.450568 
Q 607.318189 145.119934 604.489395 145.119934 
Q 599.414899 145.119934 596.507308 146.408159 
Q 593.607596 147.693266 593.607596 149.954679 
Q 593.607596 152.206734 596.507308 153.49496 
Q 599.414899 154.780066 604.489395 154.780066 
Q 607.318189 154.780066 609.879076 154.449432 
Q 612.439963 154.115679 615.079646 153.404503 
z
" style="fill:#0000ff;"/>
   </g>
   <g id="patch_28">
    <path clip-path="url(#pd6c04557cf)" d="M 615.079646 131.470357 
Q 611.925578 136.935179 608.533203 139.680066 
Q 605.140827 142.4 601.524163 142.4 
Q 593.351622 142.4 588.578466 126.130304 
Q 583.80531 109.860607 583.80531 82.03743 
Q 583.80531 53.889857 588.662574 37.744929 
Q 593.526848 21.6 601.986759 21.6 
Q 605.245963 21.6 608.231814 23.79591 
Q 611.224674 25.966866 613.874091 30.258872 
L 613.874091 54.339021 
Q 611.140566 48.824293 608.435076 46.104359 
Q 605.729587 43.359471 603.010079 43.359471 
Q 597.977589 43.359471 595.251072 53.390787 
Q 592.524555 63.397149 592.524555 82.03743 
Q 592.524555 100.503037 595.152945 110.584259 
Q 597.781335 120.640529 602.617573 120.640529 
Q 603.935272 120.640529 605.063728 120.066598 
Q 606.192183 119.467713 607.08934 118.220037 
L 607.08934 95.612146 
L 601.937696 95.612146 
L 601.937696 75.474654 
L 615.079646 75.474654 
z
" style="fill:#ffa600;"/>
   </g>
   <g id="patch_29">
    <path clip-path="url(#pd6c04557cf)" d="M 648 156.133795 
Q 644.845932 156.816897 641.453557 157.160008 
Q 638.061181 157.5 634.444517 157.5 
Q 626.271976 157.5 621.49882 155.466288 
Q 616.725664 153.432576 616.725664 149.954679 
Q 616.725664 146.436232 621.582928 144.418116 
Q 626.447202 142.4 634.907113 142.4 
Q 638.166317 142.4 641.152168 142.674489 
Q 644.145028 142.945858 646.794445 143.482359 
L 646.794445 146.492378 
Q 644.06092 145.803037 641.35543 145.463045 
Q 638.649941 145.119934 635.930433 145.119934 
Q 630.897943 145.119934 628.171426 146.373848 
Q 625.444909 147.624644 625.444909 149.954679 
Q 625.444909 152.26288 628.073299 153.523032 
Q 630.701689 154.780066 635.537927 154.780066 
Q 636.855626 154.780066 637.984082 154.708325 
Q 639.112537 154.633464 640.009694 154.477505 
L 640.009694 151.651518 
L 634.85805 151.651518 
L 634.85805 149.134332 
L 648 149.134332 
z
" style="fill:#ffa600;"/>
   </g>
   <g id="patch_30">
    <path clip-path="url(#pd6c04557cf)" d="M 648 133.741128 
Q 645.383956 138.033134 642.555161 140.20409 
Q 639.726366 142.4 636.645422 142.4 
Q 627.457749 142.4 622.091706 126.130304 
Q 616.725664 109.860607 616.725664 82.03743 
Q 616.725664 54.114439 622.091706 37.869696 
Q 627.457749 21.6 636.645422 21.6 
Q 639.726366 21.6 642.555161 23.79591 
Q 645.383956 25.966866 648 30.258872 
L 648 54.339021 
Q 645.360317 48.649618 642.79943 46.004545 
Q 640.238543 43.359471 637.409749 43.359471 
Q 632.335253 43.359471 629.427662 53.665276 
Q 626.52795 63.946127 626.52795 82.03743 
Q 626.52795 100.053873 629.427662 110.359678 
Q 632.335253 120.640529 637.409749 120.640529 
Q 640.238543 120.640529 642.79943 117.995455 
Q 645.360317 115.325429 648 109.636026 
z
" style="fill:#0000ff;"/>
   </g>
  </g>
 </g>
 <defs>
  <clipPath id="pd6c04557cf">
   <rect height="135.9" width="558" x="90" y="21.6"/>
  </clipPath>
 </defs>
</svg>
