<?xml version="1.0" encoding="utf-8" standalone="no"?>
<!DOCTYPE svg PUBLIC "-//W3C//DTD SVG 1.1//EN"
  "http://www.w3.org/Graphics/SVG/1.1/DTD/svg11.dtd">
<!-- Created with matplotlib (https://matplotlib.org/) -->
<svg height="180pt" version="1.1" viewBox="0 0 720 180" width="720pt" xmlns="http://www.w3.org/2000/svg" xmlns:xlink="http://www.w3.org/1999/xlink">
 <metadata>
  <rdf:RDF xmlns:cc="http://creativecommons.org/ns#" xmlns:dc="http://purl.org/dc/elements/1.1/" xmlns:rdf="http://www.w3.org/1999/02/22-rdf-syntax-ns#">
   <cc:Work>
    <dc:type rdf:resource="http://purl.org/dc/dcmitype/StillImage"/>
    <dc:date>2021-08-04T23:34:02.920125</dc:date>
    <dc:format>image/svg+xml</dc:format>
    <dc:creator>
     <cc:Agent>
      <dc:title>Matplotlib v3.3.2, https://matplotlib.org/</dc:title>
     </cc:Agent>
    </dc:creator>
   </cc:Work>
  </rdf:RDF>
 </metadata>
 <defs>
  <style type="text/css">*{stroke-linecap:butt;stroke-linejoin:round;}</style>
 </defs>
 <g id="figure_1">
  <g id="patch_1">
   <path d="M 0 180 
L 720 180 
L 720 0 
L 0 0 
z
" style="fill:none;"/>
  </g>
  <g id="axes_1">
   <g id="line2d_1">
    <path clip-path="url(#p511300dace)" d="M 90 157.5 
L 648 157.5 
" style="fill:none;stroke:#000000;stroke-linecap:square;stroke-width:0.5;"/>
   </g>
   <g id="patch_2">
    <path clip-path="url(#p511300dace)" d="M 90 21.6 
L 143.276382 21.6 
L 143.276382 48.104286 
L 124.109274 48.104286 
L 124.109274 157.5 
L 109.204277 157.5 
L 109.204277 48.104286 
L 90 48.104286 
z
" style="fill:#ff0000;"/>
   </g>
   <g id="patch_3">
    <path clip-path="url(#p511300dace)" d="M 182.984999 132.743249 
L 162.495758 132.743249 
L 159.260615 157.5 
L 146.080402 157.5 
L 164.903053 21.6 
L 180.534133 21.6 
L 199.356784 157.5 
L 186.187464 157.5 
z
M 165.76358 107.520489 
L 179.684499 107.520489 
L 172.734932 53.463395 
z
" style="fill:#008000;"/>
   </g>
   <g id="patch_4">
    <path clip-path="url(#p511300dace)" d="M 239.065401 154.74925 
L 218.57616 154.74925 
L 215.341017 157.5 
L 202.160804 157.5 
L 220.983455 142.4 
L 236.614535 142.4 
L 255.437186 157.5 
L 242.267866 157.5 
z
M 221.843982 151.946721 
L 235.764901 151.946721 
L 228.815334 145.940377 
z
" style="fill:#008000;"/>
   </g>
   <g id="patch_5">
    <path clip-path="url(#p511300dace)" d="M 255.437186 131.470357 
Q 250.064176 136.935179 244.285205 139.680066 
Q 238.506234 142.4 232.345182 142.4 
Q 218.423115 142.4 210.29196 126.130304 
Q 202.160804 109.860607 202.160804 82.03743 
Q 202.160804 53.889857 210.43524 37.744929 
Q 218.721616 21.6 233.133223 21.6 
Q 238.685334 21.6 243.771784 23.79591 
Q 248.870173 25.966866 253.383502 30.258872 
L 253.383502 54.339021 
Q 248.726893 48.824293 244.118044 46.104359 
Q 239.509195 43.359471 234.876467 43.359471 
Q 226.30353 43.359471 221.658861 53.390787 
Q 217.014192 63.397149 217.014192 82.03743 
Q 217.014192 100.503037 221.491701 110.584259 
Q 225.96921 120.640529 234.207825 120.640529 
Q 236.45255 120.640529 238.374893 120.066598 
Q 240.297237 119.467713 241.82556 118.220037 
L 241.82556 95.612146 
L 233.049643 95.612146 
L 233.049643 75.474654 
L 255.437186 75.474654 
z
" style="fill:#ffa600;"/>
   </g>
   <g id="patch_6">
    <path clip-path="url(#p511300dace)" d="M 311.517588 155.335282 
Q 307.061111 156.408283 302.242209 156.951023 
Q 297.423307 157.5 292.174865 157.5 
Q 276.523502 157.5 267.382354 153.432576 
Q 258.241206 149.365152 258.241206 142.409358 
Q 258.241206 135.42861 267.382354 131.367424 
Q 276.523502 127.3 292.174865 127.3 
Q 297.423307 127.3 302.242209 127.848977 
Q 307.061111 128.391717 311.517588 129.464718 
L 311.517588 135.484755 
Q 307.020841 134.062404 302.658326 133.401136 
Q 298.29581 132.739868 293.476908 132.739868 
Q 284.832416 132.739868 279.879283 135.316319 
Q 274.939573 137.886532 274.939573 142.409358 
Q 274.939573 146.913468 279.879283 149.489919 
Q 284.832416 152.060132 293.476908 152.060132 
Q 298.29581 152.060132 302.658326 151.398864 
Q 307.020841 150.731357 311.517588 149.309006 
z
" style="fill:#0000ff;"/>
   </g>
   <g id="patch_7">
    <path clip-path="url(#p511300dace)" d="M 311.517588 117.736563 
Q 306.144578 122.518281 300.365607 124.920058 
Q 294.586636 127.3 288.425584 127.3 
Q 274.503517 127.3 266.372362 113.064016 
Q 258.241206 98.828031 258.241206 74.482751 
Q 258.241206 49.853625 266.515642 35.726813 
Q 274.802018 21.6 289.213625 21.6 
Q 294.765736 21.6 299.852186 23.521421 
Q 304.950575 25.421008 309.463904 29.176513 
L 309.463904 50.246643 
Q 304.807295 45.421256 300.198446 43.041314 
Q 295.589597 40.639537 290.956869 40.639537 
Q 282.383932 40.639537 277.739263 49.416939 
Q 273.094594 58.172506 273.094594 74.482751 
Q 273.094594 90.640157 277.572103 99.461227 
Q 282.049612 108.260463 290.288227 108.260463 
Q 292.532952 108.260463 294.455295 107.758273 
Q 296.377639 107.234249 297.905962 106.142533 
L 297.905962 86.360628 
L 289.130045 86.360628 
L 289.130045 68.740322 
L 311.517588 68.740322 
z
" style="fill:#ffa600;"/>
   </g>
   <g id="patch_8">
    <path clip-path="url(#p511300dace)" d="M 314.321608 21.6 
L 367.59799 21.6 
L 367.59799 48.104286 
L 348.430882 48.104286 
L 348.430882 157.5 
L 333.525885 157.5 
L 333.525885 48.104286 
L 314.321608 48.104286 
z
" style="fill:#ff0000;"/>
   </g>
   <g id="patch_9">
    <path clip-path="url(#p511300dace)" d="M 423.678392 154.767589 
Q 418.305382 156.133795 412.526411 156.820017 
Q 406.74744 157.5 400.586388 157.5 
Q 386.664321 157.5 378.533166 153.432576 
Q 370.40201 149.365152 370.40201 142.409358 
Q 370.40201 135.372464 378.676446 131.336232 
Q 386.962822 127.3 401.374429 127.3 
Q 406.92654 127.3 412.01299 127.848977 
Q 417.111379 128.391717 421.624708 129.464718 
L 421.624708 135.484755 
Q 416.968099 134.106073 412.35925 133.42609 
Q 407.750401 132.739868 403.117673 132.739868 
Q 394.544736 132.739868 389.900067 135.247697 
Q 385.255398 137.749287 385.255398 142.409358 
Q 385.255398 147.025759 389.732907 149.546065 
Q 394.210416 152.060132 402.449031 152.060132 
Q 404.693756 152.060132 406.616099 151.916649 
Q 408.538443 151.766928 410.066766 151.455009 
L 410.066766 145.803037 
L 401.290849 145.803037 
L 401.290849 140.768663 
L 423.678392 140.768663 
z
" style="fill:#ffa600;"/>
   </g>
   <g id="patch_10">
    <path clip-path="url(#p511300dace)" d="M 407.306607 108.044749 
L 386.817366 108.044749 
L 383.582223 127.3 
L 370.40201 127.3 
L 389.224661 21.6 
L 404.855741 21.6 
L 423.678392 127.3 
L 410.509072 127.3 
z
M 390.085188 88.427047 
L 404.006107 88.427047 
L 397.05654 46.38264 
z
" style="fill:#008000;"/>
   </g>
   <g id="patch_11">
    <path clip-path="url(#p511300dace)" d="M 479.758794 153.401384 
Q 474.385784 155.450692 468.606813 156.480025 
Q 462.827842 157.5 456.66679 157.5 
Q 442.744723 157.5 434.613568 151.398864 
Q 426.482412 145.297728 426.482412 134.864036 
Q 426.482412 124.308697 434.756848 118.254348 
Q 443.043224 112.2 457.454831 112.2 
Q 463.006942 112.2 468.093392 113.023466 
Q 473.191781 113.837575 477.70511 115.447077 
L 477.70511 124.477133 
Q 473.048501 122.40911 468.439652 121.389134 
Q 463.830804 120.359802 459.198075 120.359802 
Q 450.625138 120.359802 445.980469 124.121545 
Q 441.3358 127.873931 441.3358 134.864036 
Q 441.3358 141.788639 445.813309 145.569097 
Q 450.290818 149.340198 458.529433 149.340198 
Q 460.774158 149.340198 462.696501 149.124974 
Q 464.618845 148.900392 466.147168 148.432514 
L 466.147168 139.954555 
L 457.371251 139.954555 
L 457.371251 132.402995 
L 479.758794 132.402995 
z
" style="fill:#ffa600;"/>
   </g>
   <g id="patch_12">
    <path clip-path="url(#p511300dace)" d="M 463.387009 95.695499 
L 442.897768 95.695499 
L 439.662625 112.2 
L 426.482412 112.2 
L 445.305063 21.6 
L 460.936143 21.6 
L 479.758794 112.2 
L 466.589474 112.2 
z
M 446.16559 78.880326 
L 460.086509 78.880326 
L 453.136942 42.842263 
z
" style="fill:#008000;"/>
   </g>
   <g id="patch_13">
    <path clip-path="url(#p511300dace)" d="M 535.839196 156.133795 
Q 530.466186 156.816897 524.687215 157.160008 
Q 518.908244 157.5 512.747192 157.5 
Q 498.825125 157.5 490.69397 155.466288 
Q 482.562814 153.432576 482.562814 149.954679 
Q 482.562814 146.436232 490.83725 144.418116 
Q 499.123626 142.4 513.535233 142.4 
Q 519.087344 142.4 524.173794 142.674489 
Q 529.272183 142.945858 533.785512 143.482359 
L 533.785512 146.492378 
Q 529.128903 145.803037 524.520054 145.463045 
Q 519.911206 145.119934 515.278477 145.119934 
Q 506.70554 145.119934 502.060871 146.373848 
Q 497.416202 147.624644 497.416202 149.954679 
Q 497.416202 152.26288 501.893711 153.523032 
Q 506.37122 154.780066 514.609835 154.780066 
Q 516.85456 154.780066 518.776903 154.708325 
Q 520.699247 154.633464 522.22757 154.477505 
L 522.22757 151.651518 
L 513.451653 151.651518 
L 513.451653 149.134332 
L 535.839196 149.134332 
z
" style="fill:#ffa600;"/>
   </g>
   <g id="patch_14">
    <path clip-path="url(#p511300dace)" d="M 519.467411 136.8985 
L 498.97817 136.8985 
L 495.743027 142.4 
L 482.562814 142.4 
L 501.385465 112.2 
L 517.016545 112.2 
L 535.839196 142.4 
L 522.669876 142.4 
z
M 502.245992 131.293442 
L 516.166911 131.293442 
L 509.217344 119.280754 
z
" style="fill:#008000;"/>
   </g>
   <g id="patch_15">
    <path clip-path="url(#p511300dace)" d="M 482.562814 21.6 
L 535.839196 21.6 
L 535.839196 39.269524 
L 516.672088 39.269524 
L 516.672088 112.2 
L 501.767091 112.2 
L 501.767091 39.269524 
L 482.562814 39.269524 
z
" style="fill:#ff0000;"/>
   </g>
   <g id="patch_16">
    <path clip-path="url(#p511300dace)" d="M 591.919598 153.401384 
Q 586.546588 155.450692 580.767617 156.480025 
Q 574.988646 157.5 568.827594 157.5 
Q 554.905527 157.5 546.774372 151.398864 
Q 538.643216 145.297728 538.643216 134.864036 
Q 538.643216 124.308697 546.917652 118.254348 
Q 555.204028 112.2 569.615635 112.2 
Q 575.167746 112.2 580.254196 113.023466 
Q 585.352585 113.837575 589.865914 115.447077 
L 589.865914 124.477133 
Q 585.209305 122.40911 580.600456 121.389134 
Q 575.991608 120.359802 571.358879 120.359802 
Q 562.785942 120.359802 558.141273 124.121545 
Q 553.496604 127.873931 553.496604 134.864036 
Q 553.496604 141.788639 557.974113 145.569097 
Q 562.451622 149.340198 570.690237 149.340198 
Q 572.934962 149.340198 574.857305 149.124974 
Q 576.779649 148.900392 578.307972 148.432514 
L 578.307972 139.954555 
L 569.532055 139.954555 
L 569.532055 132.402995 
L 591.919598 132.402995 
z
" style="fill:#ffa600;"/>
   </g>
   <g id="patch_17">
    <path clip-path="url(#p511300dace)" d="M 575.547813 95.695499 
L 555.058572 95.695499 
L 551.823429 112.2 
L 538.643216 112.2 
L 557.465867 21.6 
L 573.096947 21.6 
L 591.919598 112.2 
L 578.750278 112.2 
z
M 558.326394 78.880326 
L 572.247313 78.880326 
L 565.297746 42.842263 
z
" style="fill:#008000;"/>
   </g>
   <g id="patch_18">
    <path clip-path="url(#p511300dace)" d="M 648 152.035179 
Q 642.62699 154.767589 636.848019 156.140033 
Q 631.069048 157.5 624.907996 157.5 
Q 610.985929 157.5 602.854774 149.365152 
Q 594.723618 141.230304 594.723618 127.318715 
Q 594.723618 113.244929 602.998054 105.172464 
Q 611.28443 97.1 625.696037 97.1 
Q 631.248148 97.1 636.334598 98.197955 
Q 641.432987 99.283433 645.946316 101.429436 
L 645.946316 113.46951 
Q 641.289707 110.712146 636.680858 109.352179 
Q 632.07201 107.979736 627.439281 107.979736 
Q 618.866344 107.979736 614.221675 112.995394 
Q 609.577007 117.998575 609.577007 127.318715 
Q 609.577007 136.551518 614.054515 141.59213 
Q 618.532024 146.620264 626.770639 146.620264 
Q 629.015364 146.620264 630.937707 146.333299 
Q 632.860051 146.033857 634.388374 145.410019 
L 634.388374 134.106073 
L 625.612457 134.106073 
L 625.612457 124.037327 
L 648 124.037327 
z
" style="fill:#ffa600;"/>
   </g>
   <g id="patch_19">
    <path clip-path="url(#p511300dace)" d="M 631.628215 83.346249 
L 611.138974 83.346249 
L 607.903831 97.1 
L 594.723618 97.1 
L 613.546269 21.6 
L 629.177349 21.6 
L 648 97.1 
L 634.83068 97.1 
z
M 614.406796 69.333605 
L 628.327715 69.333605 
L 621.378148 39.301886 
z
" style="fill:#008000;"/>
   </g>
  </g>
 </g>
 <defs>
  <clipPath id="p511300dace">
   <rect height="135.9" width="558" x="90" y="21.6"/>
  </clipPath>
 </defs>
</svg>
