<?xml version="1.0" encoding="utf-8" standalone="no"?>
<!DOCTYPE svg PUBLIC "-//W3C//DTD SVG 1.1//EN"
  "http://www.w3.org/Graphics/SVG/1.1/DTD/svg11.dtd">
<!-- Created with matplotlib (https://matplotlib.org/) -->
<svg height="180pt" version="1.1" viewBox="0 0 720 180" width="720pt" xmlns="http://www.w3.org/2000/svg" xmlns:xlink="http://www.w3.org/1999/xlink">
 <metadata>
  <rdf:RDF xmlns:cc="http://creativecommons.org/ns#" xmlns:dc="http://purl.org/dc/elements/1.1/" xmlns:rdf="http://www.w3.org/1999/02/22-rdf-syntax-ns#">
   <cc:Work>
    <dc:type rdf:resource="http://purl.org/dc/dcmitype/StillImage"/>
    <dc:date>2021-08-04T23:33:37.918912</dc:date>
    <dc:format>image/svg+xml</dc:format>
    <dc:creator>
     <cc:Agent>
      <dc:title>Matplotlib v3.3.2, https://matplotlib.org/</dc:title>
     </cc:Agent>
    </dc:creator>
   </cc:Work>
  </rdf:RDF>
 </metadata>
 <defs>
  <style type="text/css">*{stroke-linecap:butt;stroke-linejoin:round;}</style>
 </defs>
 <g id="figure_1">
  <g id="patch_1">
   <path d="M 0 180 
L 720 180 
L 720 0 
L 0 0 
z
" style="fill:none;"/>
  </g>
  <g id="axes_1">
   <g id="line2d_1">
    <path clip-path="url(#p22e71fcb4f)" d="M 90 157.5 
L 648 157.5 
" style="fill:none;stroke:#000000;stroke-linecap:square;stroke-width:0.5;"/>
   </g>
   <g id="patch_2">
    <path clip-path="url(#p22e71fcb4f)" d="M 121.274336 156.417641 
Q 118.658292 156.954142 115.829497 157.225511 
Q 113.000702 157.5 109.919759 157.5 
Q 100.732085 157.5 95.366043 155.466288 
Q 90 153.432576 90 149.954679 
Q 90 146.464305 95.366043 144.433712 
Q 100.732085 142.4 109.919759 142.4 
Q 113.000702 142.4 115.829497 142.674489 
Q 118.658292 142.945858 121.274336 143.482359 
L 121.274336 146.492378 
Q 118.634653 145.781202 116.073766 145.450568 
Q 113.51288 145.119934 110.684085 145.119934 
Q 105.609589 145.119934 102.701998 146.408159 
Q 99.802286 147.693266 99.802286 149.954679 
Q 99.802286 152.206734 102.701998 153.49496 
Q 105.609589 154.780066 110.684085 154.780066 
Q 113.51288 154.780066 116.073766 154.449432 
Q 118.634653 154.115679 121.274336 153.404503 
z
" style="fill:#0000ff;"/>
   </g>
   <g id="patch_3">
    <path clip-path="url(#p22e71fcb4f)" d="M 111.66376 136.8985 
L 99.636153 136.8985 
L 97.737057 142.4 
L 90 142.4 
L 101.049285 112.2 
L 110.225051 112.2 
L 121.274336 142.4 
L 113.543673 142.4 
z
M 101.554432 131.293442 
L 109.726299 131.293442 
L 105.64676 119.280754 
z
" style="fill:#008000;"/>
   </g>
   <g id="patch_4">
    <path clip-path="url(#p22e71fcb4f)" d="M 121.274336 109.467589 
Q 118.120268 110.833795 114.727893 111.520017 
Q 111.335518 112.2 107.718853 112.2 
Q 99.546312 112.2 94.773156 108.132576 
Q 90 104.065152 90 97.109358 
Q 90 90.072464 94.857265 86.036232 
Q 99.721538 82 108.18145 82 
Q 111.440653 82 114.426504 82.548977 
Q 117.419364 83.091717 120.068781 84.164718 
L 120.068781 90.184755 
Q 117.335256 88.806073 114.629766 88.12609 
Q 111.924277 87.439868 109.204769 87.439868 
Q 104.172279 87.439868 101.445762 89.947697 
Q 98.719246 92.449287 98.719246 97.109358 
Q 98.719246 101.725759 101.347636 104.246065 
Q 103.976026 106.760132 108.812263 106.760132 
Q 110.129963 106.760132 111.258418 106.616649 
Q 112.386874 106.466928 113.284031 106.155009 
L 113.284031 100.503037 
L 108.132386 100.503037 
L 108.132386 95.468663 
L 121.274336 95.468663 
z
" style="fill:#ffa600;"/>
   </g>
   <g id="patch_5">
    <path clip-path="url(#p22e71fcb4f)" d="M 90 36.7 
L 121.274336 36.7 
L 121.274336 45.534762 
L 110.022848 45.534762 
L 110.022848 82 
L 101.273307 82 
L 101.273307 45.534762 
L 90 45.534762 
z
" style="fill:#ff0000;"/>
   </g>
   <g id="patch_6">
    <path clip-path="url(#p22e71fcb4f)" d="M 154.19469 156.417641 
Q 151.578646 156.954142 148.749851 157.225511 
Q 145.921056 157.5 142.840113 157.5 
Q 133.652439 157.5 128.286397 155.466288 
Q 122.920354 153.432576 122.920354 149.954679 
Q 122.920354 146.464305 128.286397 144.433712 
Q 133.652439 142.4 142.840113 142.4 
Q 145.921056 142.4 148.749851 142.674489 
Q 151.578646 142.945858 154.19469 143.482359 
L 154.19469 146.492378 
Q 151.555007 145.781202 148.99412 145.450568 
Q 146.433234 145.119934 143.604439 145.119934 
Q 138.529943 145.119934 135.622352 146.408159 
Q 132.72264 147.693266 132.72264 149.954679 
Q 132.72264 152.206734 135.622352 153.49496 
Q 138.529943 154.780066 143.604439 154.780066 
Q 146.433234 154.780066 148.99412 154.449432 
Q 151.555007 154.115679 154.19469 153.404503 
z
" style="fill:#0000ff;"/>
   </g>
   <g id="patch_7">
    <path clip-path="url(#p22e71fcb4f)" d="M 154.19469 141.033795 
Q 151.040622 141.716897 147.648247 142.060008 
Q 144.255872 142.4 140.639207 142.4 
Q 132.466666 142.4 127.69351 140.366288 
Q 122.920354 138.332576 122.920354 134.854679 
Q 122.920354 131.336232 127.777619 129.318116 
Q 132.641892 127.3 141.101804 127.3 
Q 144.361007 127.3 147.346858 127.574489 
Q 150.339718 127.845858 152.989135 128.382359 
L 152.989135 131.392378 
Q 150.25561 130.703037 147.55012 130.363045 
Q 144.844631 130.019934 142.125123 130.019934 
Q 137.092633 130.019934 134.366116 131.273848 
Q 131.6396 132.524644 131.6396 134.854679 
Q 131.6396 137.16288 134.26799 138.423032 
Q 136.89638 139.680066 141.732617 139.680066 
Q 143.050317 139.680066 144.178772 139.608325 
Q 145.307228 139.533464 146.204385 139.377505 
L 146.204385 136.551518 
L 141.05274 136.551518 
L 141.05274 134.034332 
L 154.19469 134.034332 
z
" style="fill:#ffa600;"/>
   </g>
   <g id="patch_8">
    <path clip-path="url(#p22e71fcb4f)" d="M 144.584114 121.7985 
L 132.556507 121.7985 
L 130.657411 127.3 
L 122.920354 127.3 
L 133.969639 97.1 
L 143.145405 97.1 
L 154.19469 127.3 
L 146.464027 127.3 
z
M 134.474786 116.193442 
L 142.646653 116.193442 
L 138.567114 104.180754 
z
" style="fill:#008000;"/>
   </g>
   <g id="patch_9">
    <path clip-path="url(#p22e71fcb4f)" d="M 122.920354 36.7 
L 154.19469 36.7 
L 154.19469 48.479683 
L 142.943202 48.479683 
L 142.943202 97.1 
L 134.193661 97.1 
L 134.193661 48.479683 
L 122.920354 48.479683 
z
" style="fill:#ff0000;"/>
   </g>
   <g id="patch_10">
    <path clip-path="url(#p22e71fcb4f)" d="M 187.115044 156.417641 
Q 184.499 156.954142 181.670205 157.225511 
Q 178.84141 157.5 175.760467 157.5 
Q 166.572793 157.5 161.206751 155.466288 
Q 155.840708 153.432576 155.840708 149.954679 
Q 155.840708 146.464305 161.206751 144.433712 
Q 166.572793 142.4 175.760467 142.4 
Q 178.84141 142.4 181.670205 142.674489 
Q 184.499 142.945858 187.115044 143.482359 
L 187.115044 146.492378 
Q 184.475361 145.781202 181.914474 145.450568 
Q 179.353588 145.119934 176.524793 145.119934 
Q 171.450297 145.119934 168.542706 146.408159 
Q 165.642994 147.693266 165.642994 149.954679 
Q 165.642994 152.206734 168.542706 153.49496 
Q 171.450297 154.780066 176.524793 154.780066 
Q 179.353588 154.780066 181.914474 154.449432 
Q 184.475361 154.115679 187.115044 153.404503 
z
" style="fill:#0000ff;"/>
   </g>
   <g id="patch_11">
    <path clip-path="url(#p22e71fcb4f)" d="M 187.115044 139.667589 
Q 183.960976 141.033795 180.568601 141.720017 
Q 177.176226 142.4 173.559561 142.4 
Q 165.38702 142.4 160.613864 138.332576 
Q 155.840708 134.265152 155.840708 127.309358 
Q 155.840708 120.272464 160.697973 116.236232 
Q 165.562246 112.2 174.022158 112.2 
Q 177.281361 112.2 180.267212 112.748977 
Q 183.260072 113.291717 185.909489 114.364718 
L 185.909489 120.384755 
Q 183.175964 119.006073 180.470474 118.32609 
Q 177.764985 117.639868 175.045477 117.639868 
Q 170.012987 117.639868 167.28647 120.147697 
Q 164.559954 122.649287 164.559954 127.309358 
Q 164.559954 131.925759 167.188344 134.446065 
Q 169.816734 136.960132 174.652971 136.960132 
Q 175.970671 136.960132 177.099126 136.816649 
Q 178.227582 136.666928 179.124739 136.355009 
L 179.124739 130.703037 
L 173.973094 130.703037 
L 173.973094 125.668663 
L 187.115044 125.668663 
z
" style="fill:#ffa600;"/>
   </g>
   <g id="patch_12">
    <path clip-path="url(#p22e71fcb4f)" d="M 177.504468 98.446249 
L 165.476861 98.446249 
L 163.577765 112.2 
L 155.840708 112.2 
L 166.889993 36.7 
L 176.065759 36.7 
L 187.115044 112.2 
L 179.384381 112.2 
z
M 167.39514 84.433605 
L 175.567007 84.433605 
L 171.487467 54.401886 
z
" style="fill:#008000;"/>
   </g>
   <g id="patch_13">
    <path clip-path="url(#p22e71fcb4f)" d="M 210.424822 149.24775 
L 198.397215 149.24775 
L 196.498119 157.5 
L 188.761062 157.5 
L 199.810347 112.2 
L 208.986113 112.2 
L 220.035398 157.5 
L 212.304735 157.5 
z
M 200.315494 140.840163 
L 208.487361 140.840163 
L 204.407821 122.821132 
z
" style="fill:#008000;"/>
   </g>
   <g id="patch_14">
    <path clip-path="url(#p22e71fcb4f)" d="M 220.035398 105.368973 
Q 216.88133 108.784487 213.488955 110.500041 
Q 210.09658 112.2 206.479915 112.2 
Q 198.307374 112.2 193.534218 102.03144 
Q 188.761062 91.86288 188.761062 74.473394 
Q 188.761062 56.881161 193.618327 46.79058 
Q 198.4826 36.7 206.942512 36.7 
Q 210.201715 36.7 213.187566 38.072444 
Q 216.180426 39.429291 218.829843 42.111795 
L 218.829843 57.161888 
Q 216.096318 53.715183 213.390828 52.015224 
Q 210.685339 50.299669 207.965831 50.299669 
Q 202.933341 50.299669 200.206824 56.569242 
Q 197.480308 62.823218 197.480308 74.473394 
Q 197.480308 86.014398 200.108698 92.315162 
Q 202.737088 98.600331 207.573325 98.600331 
Q 208.891025 98.600331 210.01948 98.241624 
Q 211.147936 97.867321 212.045093 97.087523 
L 212.045093 82.957591 
L 206.893448 82.957591 
L 206.893448 70.371659 
L 220.035398 70.371659 
z
" style="fill:#ffa600;"/>
   </g>
   <g id="patch_15">
    <path clip-path="url(#p22e71fcb4f)" d="M 243.345176 154.74925 
L 231.317569 154.74925 
L 229.418473 157.5 
L 221.681416 157.5 
L 232.730701 142.4 
L 241.906467 142.4 
L 252.955752 157.5 
L 245.225089 157.5 
z
M 233.235848 151.946721 
L 241.407715 151.946721 
L 237.328175 145.940377 
z
" style="fill:#008000;"/>
   </g>
   <g id="patch_16">
    <path clip-path="url(#p22e71fcb4f)" d="M 252.955752 141.317641 
Q 250.339708 141.854142 247.510913 142.125511 
Q 244.682118 142.4 241.601175 142.4 
Q 232.413501 142.4 227.047459 140.366288 
Q 221.681416 138.332576 221.681416 134.854679 
Q 221.681416 131.364305 227.047459 129.333712 
Q 232.413501 127.3 241.601175 127.3 
Q 244.682118 127.3 247.510913 127.574489 
Q 250.339708 127.845858 252.955752 128.382359 
L 252.955752 131.392378 
Q 250.316069 130.681202 247.755182 130.350568 
Q 245.194296 130.019934 242.365501 130.019934 
Q 237.291005 130.019934 234.383414 131.308159 
Q 231.483702 132.593266 231.483702 134.854679 
Q 231.483702 137.106734 234.383414 138.39496 
Q 237.291005 139.680066 242.365501 139.680066 
Q 245.194296 139.680066 247.755182 139.349432 
Q 250.316069 139.015679 252.955752 138.304503 
z
" style="fill:#0000ff;"/>
   </g>
   <g id="patch_17">
    <path clip-path="url(#p22e71fcb4f)" d="M 221.681416 36.7 
L 252.955752 36.7 
L 252.955752 54.369524 
L 241.704264 54.369524 
L 241.704264 127.3 
L 232.954723 127.3 
L 232.954723 54.369524 
L 221.681416 54.369524 
z
" style="fill:#ff0000;"/>
   </g>
   <g id="patch_18">
    <path clip-path="url(#p22e71fcb4f)" d="M 254.60177 142.4 
L 285.876106 142.4 
L 285.876106 145.344921 
L 274.624618 145.344921 
L 274.624618 157.5 
L 265.875077 157.5 
L 265.875077 145.344921 
L 254.60177 145.344921 
z
" style="fill:#ff0000;"/>
   </g>
   <g id="patch_19">
    <path clip-path="url(#p22e71fcb4f)" d="M 285.876106 139.667589 
Q 282.722038 141.033795 279.329663 141.720017 
Q 275.937288 142.4 272.320623 142.4 
Q 264.148082 142.4 259.374926 138.332576 
Q 254.60177 134.265152 254.60177 127.309358 
Q 254.60177 120.272464 259.459035 116.236232 
Q 264.323308 112.2 272.78322 112.2 
Q 276.042423 112.2 279.028274 112.748977 
Q 282.021134 113.291717 284.670551 114.364718 
L 284.670551 120.384755 
Q 281.937026 119.006073 279.231536 118.32609 
Q 276.526047 117.639868 273.806539 117.639868 
Q 268.774049 117.639868 266.047532 120.147697 
Q 263.321016 122.649287 263.321016 127.309358 
Q 263.321016 131.925759 265.949406 134.446065 
Q 268.577796 136.960132 273.414033 136.960132 
Q 274.731733 136.960132 275.860188 136.816649 
Q 276.988644 136.666928 277.885801 136.355009 
L 277.885801 130.703037 
L 272.734156 130.703037 
L 272.734156 125.668663 
L 285.876106 125.668663 
z
" style="fill:#ffa600;"/>
   </g>
   <g id="patch_20">
    <path clip-path="url(#p22e71fcb4f)" d="M 276.26553 98.446249 
L 264.237923 98.446249 
L 262.338827 112.2 
L 254.60177 112.2 
L 265.651055 36.7 
L 274.826821 36.7 
L 285.876106 112.2 
L 278.145443 112.2 
z
M 266.156202 84.433605 
L 274.328069 84.433605 
L 270.248529 54.401886 
z
" style="fill:#008000;"/>
   </g>
   <g id="patch_21">
    <path clip-path="url(#p22e71fcb4f)" d="M 309.185884 146.497 
L 297.158277 146.497 
L 295.259181 157.5 
L 287.522124 157.5 
L 298.571409 97.1 
L 307.747175 97.1 
L 318.79646 157.5 
L 311.065797 157.5 
z
M 299.076556 135.286884 
L 307.248423 135.286884 
L 303.168883 111.261509 
z
" style="fill:#008000;"/>
   </g>
   <g id="patch_22">
    <path clip-path="url(#p22e71fcb4f)" d="M 318.79646 91.635179 
Q 315.642392 94.367589 312.250017 95.740033 
Q 308.857642 97.1 305.240977 97.1 
Q 297.068436 97.1 292.29528 88.965152 
Q 287.522124 80.830304 287.522124 66.918715 
Q 287.522124 52.844929 292.379389 44.772464 
Q 297.243662 36.7 305.703574 36.7 
Q 308.962777 36.7 311.948628 37.797955 
Q 314.941488 38.883433 317.590905 41.029436 
L 317.590905 53.06951 
Q 314.85738 50.312146 312.15189 48.952179 
Q 309.446401 47.579736 306.726893 47.579736 
Q 301.694403 47.579736 298.967886 52.595394 
Q 296.24137 57.598575 296.24137 66.918715 
Q 296.24137 76.151518 298.86976 81.19213 
Q 301.49815 86.220264 306.334387 86.220264 
Q 307.652087 86.220264 308.780542 85.933299 
Q 309.908998 85.633857 310.806155 85.010019 
L 310.806155 73.706073 
L 305.65451 73.706073 
L 305.65451 63.637327 
L 318.79646 63.637327 
z
" style="fill:#ffa600;"/>
   </g>
   <g id="patch_23">
    <path clip-path="url(#p22e71fcb4f)" d="M 342.106238 154.74925 
L 330.078631 154.74925 
L 328.179535 157.5 
L 320.442478 157.5 
L 331.491763 142.4 
L 340.667529 142.4 
L 351.716814 157.5 
L 343.986151 157.5 
z
M 331.99691 151.946721 
L 340.168777 151.946721 
L 336.089237 145.940377 
z
" style="fill:#008000;"/>
   </g>
   <g id="patch_24">
    <path clip-path="url(#p22e71fcb4f)" d="M 351.716814 141.317641 
Q 349.10077 141.854142 346.271975 142.125511 
Q 343.44318 142.4 340.362237 142.4 
Q 331.174563 142.4 325.80852 140.366288 
Q 320.442478 138.332576 320.442478 134.854679 
Q 320.442478 131.364305 325.80852 129.333712 
Q 331.174563 127.3 340.362237 127.3 
Q 343.44318 127.3 346.271975 127.574489 
Q 349.10077 127.845858 351.716814 128.382359 
L 351.716814 131.392378 
Q 349.077131 130.681202 346.516244 130.350568 
Q 343.955358 130.019934 341.126563 130.019934 
Q 336.052067 130.019934 333.144476 131.308159 
Q 330.244764 132.593266 330.244764 134.854679 
Q 330.244764 137.106734 333.144476 138.39496 
Q 336.052067 139.680066 341.126563 139.680066 
Q 343.955358 139.680066 346.516244 139.349432 
Q 349.077131 139.015679 351.716814 138.304503 
z
" style="fill:#0000ff;"/>
   </g>
   <g id="patch_25">
    <path clip-path="url(#p22e71fcb4f)" d="M 320.442478 21.6 
L 351.716814 21.6 
L 351.716814 42.214445 
L 340.465326 42.214445 
L 340.465326 127.3 
L 331.715785 127.3 
L 331.715785 42.214445 
L 320.442478 42.214445 
z
" style="fill:#ff0000;"/>
   </g>
   <g id="patch_26">
    <path clip-path="url(#p22e71fcb4f)" d="M 384.637168 156.417641 
Q 382.021124 156.954142 379.192329 157.225511 
Q 376.363534 157.5 373.282591 157.5 
Q 364.094917 157.5 358.728874 155.466288 
Q 353.362832 153.432576 353.362832 149.954679 
Q 353.362832 146.464305 358.728874 144.433712 
Q 364.094917 142.4 373.282591 142.4 
Q 376.363534 142.4 379.192329 142.674489 
Q 382.021124 142.945858 384.637168 143.482359 
L 384.637168 146.492378 
Q 381.997485 145.781202 379.436598 145.450568 
Q 376.875712 145.119934 374.046917 145.119934 
Q 368.972421 145.119934 366.06483 146.408159 
Q 363.165118 147.693266 363.165118 149.954679 
Q 363.165118 152.206734 366.06483 153.49496 
Q 368.972421 154.780066 374.046917 154.780066 
Q 376.875712 154.780066 379.436598 154.449432 
Q 381.997485 154.115679 384.637168 153.404503 
z
" style="fill:#0000ff;"/>
   </g>
   <g id="patch_27">
    <path clip-path="url(#p22e71fcb4f)" d="M 353.362832 127.3 
L 384.637168 127.3 
L 384.637168 130.244921 
L 373.38568 130.244921 
L 373.38568 142.4 
L 364.636139 142.4 
L 364.636139 130.244921 
L 353.362832 130.244921 
z
" style="fill:#ff0000;"/>
   </g>
   <g id="patch_28">
    <path clip-path="url(#p22e71fcb4f)" d="M 384.637168 124.567589 
Q 381.4831 125.933795 378.090725 126.620017 
Q 374.698349 127.3 371.081685 127.3 
Q 362.909144 127.3 358.135988 123.232576 
Q 353.362832 119.165152 353.362832 112.209358 
Q 353.362832 105.172464 358.220097 101.136232 
Q 363.08437 97.1 371.544282 97.1 
Q 374.803485 97.1 377.789336 97.648977 
Q 380.782196 98.191717 383.431613 99.264718 
L 383.431613 105.284755 
Q 380.698088 103.906073 377.992598 103.22609 
Q 375.287109 102.539868 372.567601 102.539868 
Q 367.535111 102.539868 364.808594 105.047697 
Q 362.082078 107.549287 362.082078 112.209358 
Q 362.082078 116.825759 364.710468 119.346065 
Q 367.338858 121.860132 372.175095 121.860132 
Q 373.492795 121.860132 374.62125 121.716649 
Q 375.749705 121.566928 376.646863 121.255009 
L 376.646863 115.603037 
L 371.495218 115.603037 
L 371.495218 110.568663 
L 384.637168 110.568663 
z
" style="fill:#ffa600;"/>
   </g>
   <g id="patch_29">
    <path clip-path="url(#p22e71fcb4f)" d="M 375.026592 83.346249 
L 362.998985 83.346249 
L 361.099889 97.1 
L 353.362832 97.1 
L 364.412117 21.6 
L 373.587883 21.6 
L 384.637168 97.1 
L 376.906505 97.1 
z
M 364.917264 69.333605 
L 373.089131 69.333605 
L 369.009591 39.301886 
z
" style="fill:#008000;"/>
   </g>
   <g id="patch_30">
    <path clip-path="url(#p22e71fcb4f)" d="M 417.557522 156.133795 
Q 414.403454 156.816897 411.011079 157.160008 
Q 407.618703 157.5 404.002039 157.5 
Q 395.829498 157.5 391.056342 155.466288 
Q 386.283186 153.432576 386.283186 149.954679 
Q 386.283186 146.436232 391.140451 144.418116 
Q 396.004724 142.4 404.464635 142.4 
Q 407.723839 142.4 410.70969 142.674489 
Q 413.70255 142.945858 416.351967 143.482359 
L 416.351967 146.492378 
Q 413.618442 145.803037 410.912952 145.463045 
Q 408.207463 145.119934 405.487955 145.119934 
Q 400.455465 145.119934 397.728948 146.373848 
Q 395.002432 147.624644 395.002432 149.954679 
Q 395.002432 152.26288 397.630822 153.523032 
Q 400.259212 154.780066 405.095449 154.780066 
Q 406.413149 154.780066 407.541604 154.708325 
Q 408.670059 154.633464 409.567217 154.477505 
L 409.567217 151.651518 
L 404.415572 151.651518 
L 404.415572 149.134332 
L 417.557522 149.134332 
z
" style="fill:#ffa600;"/>
   </g>
   <g id="patch_31">
    <path clip-path="url(#p22e71fcb4f)" d="M 386.283186 127.3 
L 417.557522 127.3 
L 417.557522 130.244921 
L 406.306034 130.244921 
L 406.306034 142.4 
L 397.556493 142.4 
L 397.556493 130.244921 
L 386.283186 130.244921 
z
" style="fill:#ff0000;"/>
   </g>
   <g id="patch_32">
    <path clip-path="url(#p22e71fcb4f)" d="M 407.946946 108.044749 
L 395.919339 108.044749 
L 394.020243 127.3 
L 386.283186 127.3 
L 397.332471 21.6 
L 406.508237 21.6 
L 417.557522 127.3 
L 409.826859 127.3 
z
M 397.837618 88.427047 
L 406.009485 88.427047 
L 401.929945 46.38264 
z
" style="fill:#008000;"/>
   </g>
   <g id="patch_33">
    <path clip-path="url(#p22e71fcb4f)" d="M 440.8673 132.743249 
L 428.839693 132.743249 
L 426.940597 157.5 
L 419.20354 157.5 
L 430.252825 21.6 
L 439.428591 21.6 
L 450.477876 157.5 
L 442.747213 157.5 
z
M 430.757972 107.520489 
L 438.929839 107.520489 
L 434.850299 53.463395 
z
" style="fill:#008000;"/>
   </g>
   <g id="patch_34">
    <path clip-path="url(#p22e71fcb4f)" d="M 483.39823 156.417641 
Q 480.782186 156.954142 477.953391 157.225511 
Q 475.124596 157.5 472.043652 157.5 
Q 462.855979 157.5 457.489936 155.466288 
Q 452.123894 153.432576 452.123894 149.954679 
Q 452.123894 146.464305 457.489936 144.433712 
Q 462.855979 142.4 472.043652 142.4 
Q 475.124596 142.4 477.953391 142.674489 
Q 480.782186 142.945858 483.39823 143.482359 
L 483.39823 146.492378 
Q 480.758547 145.781202 478.19766 145.450568 
Q 475.636773 145.119934 472.807979 145.119934 
Q 467.733483 145.119934 464.825892 146.408159 
Q 461.92618 147.693266 461.92618 149.954679 
Q 461.92618 152.206734 464.825892 153.49496 
Q 467.733483 154.780066 472.807979 154.780066 
Q 475.636773 154.780066 478.19766 154.449432 
Q 480.758547 154.115679 483.39823 153.404503 
z
" style="fill:#0000ff;"/>
   </g>
   <g id="patch_35">
    <path clip-path="url(#p22e71fcb4f)" d="M 452.123894 21.6 
L 483.39823 21.6 
L 483.39823 45.159366 
L 472.146742 45.159366 
L 472.146742 142.4 
L 463.397201 142.4 
L 463.397201 45.159366 
L 452.123894 45.159366 
z
" style="fill:#ff0000;"/>
   </g>
   <g id="patch_36">
    <path clip-path="url(#p22e71fcb4f)" d="M 516.318584 145.204152 
Q 513.164516 151.352076 509.772141 154.440074 
Q 506.379765 157.5 502.763101 157.5 
Q 494.59056 157.5 489.817404 139.196592 
Q 485.044248 120.893183 485.044248 89.592109 
Q 485.044248 57.92609 489.901512 39.763045 
Q 494.765786 21.6 503.225697 21.6 
Q 506.484901 21.6 509.470752 24.070399 
Q 512.463612 26.512725 515.113029 31.341231 
L 515.113029 58.431398 
Q 512.379504 52.227329 509.674014 49.167403 
Q 506.968525 46.079405 504.249017 46.079405 
Q 499.216527 46.079405 496.49001 57.364635 
Q 493.763493 68.621793 493.763493 89.592109 
Q 493.763493 110.365916 496.391883 121.707292 
Q 499.020273 133.020595 503.856511 133.020595 
Q 505.174211 133.020595 506.302666 132.374923 
Q 507.431121 131.701177 508.328279 130.297542 
L 508.328279 104.863665 
L 503.176634 104.863665 
L 503.176634 82.208986 
L 516.318584 82.208986 
z
" style="fill:#ffa600;"/>
   </g>
   <g id="patch_37">
    <path clip-path="url(#p22e71fcb4f)" d="M 517.964602 142.4 
L 549.238938 142.4 
L 549.238938 145.344921 
L 537.98745 145.344921 
L 537.98745 157.5 
L 529.237909 157.5 
L 529.237909 145.344921 
L 517.964602 145.344921 
z
" style="fill:#ff0000;"/>
   </g>
   <g id="patch_38">
    <path clip-path="url(#p22e71fcb4f)" d="M 549.238938 140.235282 
Q 546.622894 141.308283 543.794099 141.851023 
Q 540.965304 142.4 537.88436 142.4 
Q 528.696687 142.4 523.330644 138.332576 
Q 517.964602 134.265152 517.964602 127.309358 
Q 517.964602 120.32861 523.330644 116.267424 
Q 528.696687 112.2 537.88436 112.2 
Q 540.965304 112.2 543.794099 112.748977 
Q 546.622894 113.291717 549.238938 114.364718 
L 549.238938 120.384755 
Q 546.599255 118.962404 544.038368 118.301136 
Q 541.477481 117.639868 538.648687 117.639868 
Q 533.574191 117.639868 530.6666 120.216319 
Q 527.766888 122.786532 527.766888 127.309358 
Q 527.766888 131.813468 530.6666 134.389919 
Q 533.574191 136.960132 538.648687 136.960132 
Q 541.477481 136.960132 544.038368 136.298864 
Q 546.599255 135.631357 549.238938 134.209006 
z
" style="fill:#0000ff;"/>
   </g>
   <g id="patch_39">
    <path clip-path="url(#p22e71fcb4f)" d="M 539.628362 95.695499 
L 527.600755 95.695499 
L 525.701659 112.2 
L 517.964602 112.2 
L 529.013887 21.6 
L 538.189653 21.6 
L 549.238938 112.2 
L 541.508275 112.2 
z
M 529.519034 78.880326 
L 537.690901 78.880326 
L 533.611361 42.842263 
z
" style="fill:#008000;"/>
   </g>
   <g id="patch_40">
    <path clip-path="url(#p22e71fcb4f)" d="M 582.159292 154.767589 
Q 579.005224 156.133795 575.612849 156.820017 
Q 572.220473 157.5 568.603809 157.5 
Q 560.431268 157.5 555.658112 153.432576 
Q 550.884956 149.365152 550.884956 142.409358 
Q 550.884956 135.372464 555.74222 131.336232 
Q 560.606494 127.3 569.066405 127.3 
Q 572.325609 127.3 575.31146 127.848977 
Q 578.30432 128.391717 580.953737 129.464718 
L 580.953737 135.484755 
Q 578.220212 134.106073 575.514722 133.42609 
Q 572.809233 132.739868 570.089725 132.739868 
Q 565.057235 132.739868 562.330718 135.247697 
Q 559.604201 137.749287 559.604201 142.409358 
Q 559.604201 147.025759 562.232591 149.546065 
Q 564.860981 152.060132 569.697219 152.060132 
Q 571.014919 152.060132 572.143374 151.916649 
Q 573.271829 151.766928 574.168986 151.455009 
L 574.168986 145.803037 
L 569.017342 145.803037 
L 569.017342 140.768663 
L 582.159292 140.768663 
z
" style="fill:#ffa600;"/>
   </g>
   <g id="patch_41">
    <path clip-path="url(#p22e71fcb4f)" d="M 550.884956 21.6 
L 582.159292 21.6 
L 582.159292 42.214445 
L 570.907804 42.214445 
L 570.907804 127.3 
L 562.158263 127.3 
L 562.158263 42.214445 
L 550.884956 42.214445 
z
" style="fill:#ff0000;"/>
   </g>
   <g id="patch_42">
    <path clip-path="url(#p22e71fcb4f)" d="M 615.079646 156.417641 
Q 612.463602 156.954142 609.634807 157.225511 
Q 606.806012 157.5 603.725068 157.5 
Q 594.537395 157.5 589.171352 155.466288 
Q 583.80531 153.432576 583.80531 149.954679 
Q 583.80531 146.464305 589.171352 144.433712 
Q 594.537395 142.4 603.725068 142.4 
Q 606.806012 142.4 609.634807 142.674489 
Q 612.463602 142.945858 615.079646 143.482359 
L 615.079646 146.492378 
Q 612.439963 145.781202 609.879076 145.450568 
Q 607.318189 145.119934 604.489395 145.119934 
Q 599.414899 145.119934 596.507308 146.408159 
Q 593.607596 147.693266 593.607596 149.954679 
Q 593.607596 152.206734 596.507308 153.49496 
Q 599.414899 154.780066 604.489395 154.780066 
Q 607.318189 154.780066 609.879076 154.449432 
Q 612.439963 154.115679 615.079646 153.404503 
z
" style="fill:#0000ff;"/>
   </g>
   <g id="patch_43">
    <path clip-path="url(#p22e71fcb4f)" d="M 605.46907 134.14775 
L 593.441463 134.14775 
L 591.542367 142.4 
L 583.80531 142.4 
L 594.854595 97.1 
L 604.030361 97.1 
L 615.079646 142.4 
L 607.348983 142.4 
z
M 595.359741 125.740163 
L 603.531609 125.740163 
L 599.452069 107.721132 
z
" style="fill:#008000;"/>
   </g>
   <g id="patch_44">
    <path clip-path="url(#p22e71fcb4f)" d="M 615.079646 90.268973 
Q 611.925578 93.684487 608.533203 95.400041 
Q 605.140827 97.1 601.524163 97.1 
Q 593.351622 97.1 588.578466 86.93144 
Q 583.80531 76.76288 583.80531 59.373394 
Q 583.80531 41.781161 588.662574 31.69058 
Q 593.526848 21.6 601.986759 21.6 
Q 605.245963 21.6 608.231814 22.972444 
Q 611.224674 24.329291 613.874091 27.011795 
L 613.874091 42.061888 
Q 611.140566 38.615183 608.435076 36.915224 
Q 605.729587 35.199669 603.010079 35.199669 
Q 597.977589 35.199669 595.251072 41.469242 
Q 592.524555 47.723218 592.524555 59.373394 
Q 592.524555 70.914398 595.152945 77.215162 
Q 597.781335 83.500331 602.617573 83.500331 
Q 603.935272 83.500331 605.063728 83.141624 
Q 606.192183 82.767321 607.08934 81.987523 
L 607.08934 67.857591 
L 601.937696 67.857591 
L 601.937696 55.271659 
L 615.079646 55.271659 
z
" style="fill:#ffa600;"/>
   </g>
   <g id="patch_45">
    <path clip-path="url(#p22e71fcb4f)" d="M 638.389424 151.9985 
L 626.361817 151.9985 
L 624.462721 157.5 
L 616.725664 157.5 
L 627.774949 127.3 
L 636.950715 127.3 
L 648 157.5 
L 640.269337 157.5 
z
M 628.280095 146.393442 
L 636.451963 146.393442 
L 632.372423 134.380754 
z
" style="fill:#008000;"/>
   </g>
   <g id="patch_46">
    <path clip-path="url(#p22e71fcb4f)" d="M 616.725664 97.1 
L 648 97.1 
L 648 102.989841 
L 636.748512 102.989841 
L 636.748512 127.3 
L 627.998971 127.3 
L 627.998971 102.989841 
L 616.725664 102.989841 
z
" style="fill:#ff0000;"/>
   </g>
   <g id="patch_47">
    <path clip-path="url(#p22e71fcb4f)" d="M 648 90.268973 
Q 644.845932 93.684487 641.453557 95.400041 
Q 638.061181 97.1 634.444517 97.1 
Q 626.271976 97.1 621.49882 86.93144 
Q 616.725664 76.76288 616.725664 59.373394 
Q 616.725664 41.781161 621.582928 31.69058 
Q 626.447202 21.6 634.907113 21.6 
Q 638.166317 21.6 641.152168 22.972444 
Q 644.145028 24.329291 646.794445 27.011795 
L 646.794445 42.061888 
Q 644.06092 38.615183 641.35543 36.915224 
Q 638.649941 35.199669 635.930433 35.199669 
Q 630.897943 35.199669 628.171426 41.469242 
Q 625.444909 47.723218 625.444909 59.373394 
Q 625.444909 70.914398 628.073299 77.215162 
Q 630.701689 83.500331 635.537927 83.500331 
Q 636.855626 83.500331 637.984082 83.141624 
Q 639.112537 82.767321 640.009694 81.987523 
L 640.009694 67.857591 
L 634.85805 67.857591 
L 634.85805 55.271659 
L 648 55.271659 
z
" style="fill:#ffa600;"/>
   </g>
  </g>
 </g>
 <defs>
  <clipPath id="p22e71fcb4f">
   <rect height="135.9" width="558" x="90" y="21.6"/>
  </clipPath>
 </defs>
</svg>
