<?xml version="1.0" encoding="utf-8" standalone="no"?>
<!DOCTYPE svg PUBLIC "-//W3C//DTD SVG 1.1//EN"
  "http://www.w3.org/Graphics/SVG/1.1/DTD/svg11.dtd">
<!-- Created with matplotlib (https://matplotlib.org/) -->
<svg height="180pt" version="1.1" viewBox="0 0 720 180" width="720pt" xmlns="http://www.w3.org/2000/svg" xmlns:xlink="http://www.w3.org/1999/xlink">
 <metadata>
  <rdf:RDF xmlns:cc="http://creativecommons.org/ns#" xmlns:dc="http://purl.org/dc/elements/1.1/" xmlns:rdf="http://www.w3.org/1999/02/22-rdf-syntax-ns#">
   <cc:Work>
    <dc:type rdf:resource="http://purl.org/dc/dcmitype/StillImage"/>
    <dc:date>2021-08-04T23:34:01.522284</dc:date>
    <dc:format>image/svg+xml</dc:format>
    <dc:creator>
     <cc:Agent>
      <dc:title>Matplotlib v3.3.2, https://matplotlib.org/</dc:title>
     </cc:Agent>
    </dc:creator>
   </cc:Work>
  </rdf:RDF>
 </metadata>
 <defs>
  <style type="text/css">*{stroke-linecap:butt;stroke-linejoin:round;}</style>
 </defs>
 <g id="figure_1">
  <g id="patch_1">
   <path d="M 0 180 
L 720 180 
L 720 0 
L 0 0 
z
" style="fill:none;"/>
  </g>
  <g id="axes_1">
   <g id="line2d_1">
    <path clip-path="url(#pf633ccbb21)" d="M 90 157.5 
L 648 157.5 
" style="fill:none;stroke:#000000;stroke-linecap:square;stroke-width:0.5;"/>
   </g>
   <g id="patch_2">
    <path clip-path="url(#pf633ccbb21)" d="M 121.274336 155.335282 
Q 118.658292 156.408283 115.829497 156.951023 
Q 113.000702 157.5 109.919759 157.5 
Q 100.732085 157.5 95.366043 153.432576 
Q 90 149.365152 90 142.409358 
Q 90 135.42861 95.366043 131.367424 
Q 100.732085 127.3 109.919759 127.3 
Q 113.000702 127.3 115.829497 127.848977 
Q 118.658292 128.391717 121.274336 129.464718 
L 121.274336 135.484755 
Q 118.634653 134.062404 116.073766 133.401136 
Q 113.51288 132.739868 110.684085 132.739868 
Q 105.609589 132.739868 102.701998 135.316319 
Q 99.802286 137.886532 99.802286 142.409358 
Q 99.802286 146.913468 102.701998 149.489919 
Q 105.609589 152.060132 110.684085 152.060132 
Q 113.51288 152.060132 116.073766 151.398864 
Q 118.634653 150.731357 121.274336 149.309006 
z
" style="fill:#0000ff;"/>
   </g>
   <g id="patch_3">
    <path clip-path="url(#pf633ccbb21)" d="M 121.274336 124.567589 
Q 118.120268 125.933795 114.727893 126.620017 
Q 111.335518 127.3 107.718853 127.3 
Q 99.546312 127.3 94.773156 123.232576 
Q 90 119.165152 90 112.209358 
Q 90 105.172464 94.857265 101.136232 
Q 99.721538 97.1 108.18145 97.1 
Q 111.440653 97.1 114.426504 97.648977 
Q 117.419364 98.191717 120.068781 99.264718 
L 120.068781 105.284755 
Q 117.335256 103.906073 114.629766 103.22609 
Q 111.924277 102.539868 109.204769 102.539868 
Q 104.172279 102.539868 101.445762 105.047697 
Q 98.719246 107.549287 98.719246 112.209358 
Q 98.719246 116.825759 101.347636 119.346065 
Q 103.976026 121.860132 108.812263 121.860132 
Q 110.129963 121.860132 111.258418 121.716649 
Q 112.386874 121.566928 113.284031 121.255009 
L 113.284031 115.603037 
L 108.132386 115.603037 
L 108.132386 110.568663 
L 121.274336 110.568663 
z
" style="fill:#ffa600;"/>
   </g>
   <g id="patch_4">
    <path clip-path="url(#pf633ccbb21)" d="M 90 66.9 
L 121.274336 66.9 
L 121.274336 72.789841 
L 110.022848 72.789841 
L 110.022848 97.1 
L 101.273307 97.1 
L 101.273307 72.789841 
L 90 72.789841 
z
" style="fill:#ff0000;"/>
   </g>
   <g id="patch_5">
    <path clip-path="url(#pf633ccbb21)" d="M 111.66376 58.64775 
L 99.636153 58.64775 
L 97.737057 66.9 
L 90 66.9 
L 101.049285 21.6 
L 110.225051 21.6 
L 121.274336 66.9 
L 113.543673 66.9 
z
M 101.554432 50.240163 
L 109.726299 50.240163 
L 105.64676 32.221132 
z
" style="fill:#008000;"/>
   </g>
   <g id="patch_6">
    <path clip-path="url(#pf633ccbb21)" d="M 154.19469 153.401384 
Q 151.040622 155.450692 147.648247 156.480025 
Q 144.255872 157.5 140.639207 157.5 
Q 132.466666 157.5 127.69351 151.398864 
Q 122.920354 145.297728 122.920354 134.864036 
Q 122.920354 124.308697 127.777619 118.254348 
Q 132.641892 112.2 141.101804 112.2 
Q 144.361007 112.2 147.346858 113.023466 
Q 150.339718 113.837575 152.989135 115.447077 
L 152.989135 124.477133 
Q 150.25561 122.40911 147.55012 121.389134 
Q 144.844631 120.359802 142.125123 120.359802 
Q 137.092633 120.359802 134.366116 124.121545 
Q 131.6396 127.873931 131.6396 134.864036 
Q 131.6396 141.788639 134.26799 145.569097 
Q 136.89638 149.340198 141.732617 149.340198 
Q 143.050317 149.340198 144.178772 149.124974 
Q 145.307228 148.900392 146.204385 148.432514 
L 146.204385 139.954555 
L 141.05274 139.954555 
L 141.05274 132.402995 
L 154.19469 132.402995 
z
" style="fill:#ffa600;"/>
   </g>
   <g id="patch_7">
    <path clip-path="url(#pf633ccbb21)" d="M 144.584114 95.695499 
L 132.556507 95.695499 
L 130.657411 112.2 
L 122.920354 112.2 
L 133.969639 21.6 
L 143.145405 21.6 
L 154.19469 112.2 
L 146.464027 112.2 
z
M 134.474786 78.880326 
L 142.646653 78.880326 
L 138.567114 42.842263 
z
" style="fill:#008000;"/>
   </g>
   <g id="patch_8">
    <path clip-path="url(#pf633ccbb21)" d="M 177.504468 151.9985 
L 165.476861 151.9985 
L 163.577765 157.5 
L 155.840708 157.5 
L 166.889993 127.3 
L 176.065759 127.3 
L 187.115044 157.5 
L 179.384381 157.5 
z
M 167.39514 146.393442 
L 175.567007 146.393442 
L 171.487467 134.380754 
z
" style="fill:#008000;"/>
   </g>
   <g id="patch_9">
    <path clip-path="url(#pf633ccbb21)" d="M 187.115044 125.135282 
Q 184.499 126.208283 181.670205 126.751023 
Q 178.84141 127.3 175.760467 127.3 
Q 166.572793 127.3 161.206751 123.232576 
Q 155.840708 119.165152 155.840708 112.209358 
Q 155.840708 105.22861 161.206751 101.167424 
Q 166.572793 97.1 175.760467 97.1 
Q 178.84141 97.1 181.670205 97.648977 
Q 184.499 98.191717 187.115044 99.264718 
L 187.115044 105.284755 
Q 184.475361 103.862404 181.914474 103.201136 
Q 179.353588 102.539868 176.524793 102.539868 
Q 171.450297 102.539868 168.542706 105.116319 
Q 165.642994 107.686532 165.642994 112.209358 
Q 165.642994 116.713468 168.542706 119.289919 
Q 171.450297 121.860132 176.524793 121.860132 
Q 179.353588 121.860132 181.914474 121.198864 
Q 184.475361 120.531357 187.115044 119.109006 
z
" style="fill:#0000ff;"/>
   </g>
   <g id="patch_10">
    <path clip-path="url(#pf633ccbb21)" d="M 187.115044 94.367589 
Q 183.960976 95.733795 180.568601 96.420017 
Q 177.176226 97.1 173.559561 97.1 
Q 165.38702 97.1 160.613864 93.032576 
Q 155.840708 88.965152 155.840708 82.009358 
Q 155.840708 74.972464 160.697973 70.936232 
Q 165.562246 66.9 174.022158 66.9 
Q 177.281361 66.9 180.267212 67.448977 
Q 183.260072 67.991717 185.909489 69.064718 
L 185.909489 75.084755 
Q 183.175964 73.706073 180.470474 73.02609 
Q 177.764985 72.339868 175.045477 72.339868 
Q 170.012987 72.339868 167.28647 74.847697 
Q 164.559954 77.349287 164.559954 82.009358 
Q 164.559954 86.625759 167.188344 89.146065 
Q 169.816734 91.660132 174.652971 91.660132 
Q 175.970671 91.660132 177.099126 91.516649 
Q 178.227582 91.366928 179.124739 91.055009 
L 179.124739 85.403037 
L 173.973094 85.403037 
L 173.973094 80.368663 
L 187.115044 80.368663 
z
" style="fill:#ffa600;"/>
   </g>
   <g id="patch_11">
    <path clip-path="url(#pf633ccbb21)" d="M 155.840708 21.6 
L 187.115044 21.6 
L 187.115044 30.434762 
L 175.863556 30.434762 
L 175.863556 66.9 
L 167.114015 66.9 
L 167.114015 30.434762 
L 155.840708 30.434762 
z
" style="fill:#ff0000;"/>
   </g>
   <g id="patch_12">
    <path clip-path="url(#pf633ccbb21)" d="M 210.424822 151.9985 
L 198.397215 151.9985 
L 196.498119 157.5 
L 188.761062 157.5 
L 199.810347 127.3 
L 208.986113 127.3 
L 220.035398 157.5 
L 212.304735 157.5 
z
M 200.315494 146.393442 
L 208.487361 146.393442 
L 204.407821 134.380754 
z
" style="fill:#008000;"/>
   </g>
   <g id="patch_13">
    <path clip-path="url(#pf633ccbb21)" d="M 220.035398 125.135282 
Q 217.419354 126.208283 214.590559 126.751023 
Q 211.761764 127.3 208.680821 127.3 
Q 199.493147 127.3 194.127105 123.232576 
Q 188.761062 119.165152 188.761062 112.209358 
Q 188.761062 105.22861 194.127105 101.167424 
Q 199.493147 97.1 208.680821 97.1 
Q 211.761764 97.1 214.590559 97.648977 
Q 217.419354 98.191717 220.035398 99.264718 
L 220.035398 105.284755 
Q 217.395715 103.862404 214.834828 103.201136 
Q 212.273942 102.539868 209.445147 102.539868 
Q 204.370651 102.539868 201.46306 105.116319 
Q 198.563348 107.686532 198.563348 112.209358 
Q 198.563348 116.713468 201.46306 119.289919 
Q 204.370651 121.860132 209.445147 121.860132 
Q 212.273942 121.860132 214.834828 121.198864 
Q 217.395715 120.531357 220.035398 119.109006 
z
" style="fill:#0000ff;"/>
   </g>
   <g id="patch_14">
    <path clip-path="url(#pf633ccbb21)" d="M 220.035398 90.268973 
Q 216.88133 93.684487 213.488955 95.400041 
Q 210.09658 97.1 206.479915 97.1 
Q 198.307374 97.1 193.534218 86.93144 
Q 188.761062 76.76288 188.761062 59.373394 
Q 188.761062 41.781161 193.618327 31.69058 
Q 198.4826 21.6 206.942512 21.6 
Q 210.201715 21.6 213.187566 22.972444 
Q 216.180426 24.329291 218.829843 27.011795 
L 218.829843 42.061888 
Q 216.096318 38.615183 213.390828 36.915224 
Q 210.685339 35.199669 207.965831 35.199669 
Q 202.933341 35.199669 200.206824 41.469242 
Q 197.480308 47.723218 197.480308 59.373394 
Q 197.480308 70.914398 200.108698 77.215162 
Q 202.737088 83.500331 207.573325 83.500331 
Q 208.891025 83.500331 210.01948 83.141624 
Q 211.147936 82.767321 212.045093 81.987523 
L 212.045093 67.857591 
L 206.893448 67.857591 
L 206.893448 55.271659 
L 220.035398 55.271659 
z
" style="fill:#ffa600;"/>
   </g>
   <g id="patch_15">
    <path clip-path="url(#pf633ccbb21)" d="M 243.345176 132.743249 
L 231.317569 132.743249 
L 229.418473 157.5 
L 221.681416 157.5 
L 232.730701 21.6 
L 241.906467 21.6 
L 252.955752 157.5 
L 245.225089 157.5 
z
M 233.235848 107.520489 
L 241.407715 107.520489 
L 237.328175 53.463395 
z
" style="fill:#008000;"/>
   </g>
   <g id="patch_16">
    <path clip-path="url(#pf633ccbb21)" d="M 254.60177 21.6 
L 285.876106 21.6 
L 285.876106 48.104286 
L 274.624618 48.104286 
L 274.624618 157.5 
L 265.875077 157.5 
L 265.875077 48.104286 
L 254.60177 48.104286 
z
" style="fill:#ff0000;"/>
   </g>
   <g id="patch_17">
    <path clip-path="url(#pf633ccbb21)" d="M 318.79646 145.204152 
Q 315.642392 151.352076 312.250017 154.440074 
Q 308.857642 157.5 305.240977 157.5 
Q 297.068436 157.5 292.29528 139.196592 
Q 287.522124 120.893183 287.522124 89.592109 
Q 287.522124 57.92609 292.379389 39.763045 
Q 297.243662 21.6 305.703574 21.6 
Q 308.962777 21.6 311.948628 24.070399 
Q 314.941488 26.512725 317.590905 31.341231 
L 317.590905 58.431398 
Q 314.85738 52.227329 312.15189 49.167403 
Q 309.446401 46.079405 306.726893 46.079405 
Q 301.694403 46.079405 298.967886 57.364635 
Q 296.24137 68.621793 296.24137 89.592109 
Q 296.24137 110.365916 298.86976 121.707292 
Q 301.49815 133.020595 306.334387 133.020595 
Q 307.652087 133.020595 308.780542 132.374923 
Q 309.908998 131.701177 310.806155 130.297542 
L 310.806155 104.863665 
L 305.65451 104.863665 
L 305.65451 82.208986 
L 318.79646 82.208986 
z
" style="fill:#ffa600;"/>
   </g>
   <g id="patch_18">
    <path clip-path="url(#pf633ccbb21)" d="M 342.106238 132.743249 
L 330.078631 132.743249 
L 328.179535 157.5 
L 320.442478 157.5 
L 331.491763 21.6 
L 340.667529 21.6 
L 351.716814 157.5 
L 343.986151 157.5 
z
M 331.99691 107.520489 
L 340.168777 107.520489 
L 336.089237 53.463395 
z
" style="fill:#008000;"/>
   </g>
   <g id="patch_19">
    <path clip-path="url(#pf633ccbb21)" d="M 384.637168 156.133795 
Q 381.4831 156.816897 378.090725 157.160008 
Q 374.698349 157.5 371.081685 157.5 
Q 362.909144 157.5 358.135988 155.466288 
Q 353.362832 153.432576 353.362832 149.954679 
Q 353.362832 146.436232 358.220097 144.418116 
Q 363.08437 142.4 371.544282 142.4 
Q 374.803485 142.4 377.789336 142.674489 
Q 380.782196 142.945858 383.431613 143.482359 
L 383.431613 146.492378 
Q 380.698088 145.803037 377.992598 145.463045 
Q 375.287109 145.119934 372.567601 145.119934 
Q 367.535111 145.119934 364.808594 146.373848 
Q 362.082078 147.624644 362.082078 149.954679 
Q 362.082078 152.26288 364.710468 153.523032 
Q 367.338858 154.780066 372.175095 154.780066 
Q 373.492795 154.780066 374.62125 154.708325 
Q 375.749705 154.633464 376.646863 154.477505 
L 376.646863 151.651518 
L 371.495218 151.651518 
L 371.495218 149.134332 
L 384.637168 149.134332 
z
" style="fill:#ffa600;"/>
   </g>
   <g id="patch_20">
    <path clip-path="url(#pf633ccbb21)" d="M 353.362832 127.3 
L 384.637168 127.3 
L 384.637168 130.244921 
L 373.38568 130.244921 
L 373.38568 142.4 
L 364.636139 142.4 
L 364.636139 130.244921 
L 353.362832 130.244921 
z
" style="fill:#ff0000;"/>
   </g>
   <g id="patch_21">
    <path clip-path="url(#pf633ccbb21)" d="M 375.026592 121.7985 
L 362.998985 121.7985 
L 361.099889 127.3 
L 353.362832 127.3 
L 364.412117 97.1 
L 373.587883 97.1 
L 384.637168 127.3 
L 376.906505 127.3 
z
M 364.917264 116.193442 
L 373.089131 116.193442 
L 369.009591 104.180754 
z
" style="fill:#008000;"/>
   </g>
   <g id="patch_22">
    <path clip-path="url(#pf633ccbb21)" d="M 384.637168 91.688205 
Q 382.021124 94.370709 379.192329 95.727556 
Q 376.363534 97.1 373.282591 97.1 
Q 364.094917 97.1 358.728874 86.93144 
Q 353.362832 76.76288 353.362832 59.373394 
Q 353.362832 41.921524 358.728874 31.76856 
Q 364.094917 21.6 373.282591 21.6 
Q 376.363534 21.6 379.192329 22.972444 
Q 382.021124 24.329291 384.637168 27.011795 
L 384.637168 42.061888 
Q 381.997485 38.506011 379.436598 36.85284 
Q 376.875712 35.199669 374.046917 35.199669 
Q 368.972421 35.199669 366.06483 41.640797 
Q 363.165118 48.066329 363.165118 59.373394 
Q 363.165118 70.633671 366.06483 77.074799 
Q 368.972421 83.500331 374.046917 83.500331 
Q 376.875712 83.500331 379.436598 81.84716 
Q 381.997485 80.178393 384.637168 76.622516 
z
" style="fill:#0000ff;"/>
   </g>
   <g id="patch_23">
    <path clip-path="url(#pf633ccbb21)" d="M 407.946946 154.74925 
L 395.919339 154.74925 
L 394.020243 157.5 
L 386.283186 157.5 
L 397.332471 142.4 
L 406.508237 142.4 
L 417.557522 157.5 
L 409.826859 157.5 
z
M 397.837618 151.946721 
L 406.009485 151.946721 
L 401.929945 145.940377 
z
" style="fill:#008000;"/>
   </g>
   <g id="patch_24">
    <path clip-path="url(#pf633ccbb21)" d="M 417.557522 133.741128 
Q 414.941478 138.033134 412.112683 140.20409 
Q 409.283888 142.4 406.202945 142.4 
Q 397.015271 142.4 391.649228 126.130304 
Q 386.283186 109.860607 386.283186 82.03743 
Q 386.283186 54.114439 391.649228 37.869696 
Q 397.015271 21.6 406.202945 21.6 
Q 409.283888 21.6 412.112683 23.79591 
Q 414.941478 25.966866 417.557522 30.258872 
L 417.557522 54.339021 
Q 414.917839 48.649618 412.356952 46.004545 
Q 409.796066 43.359471 406.967271 43.359471 
Q 401.892775 43.359471 398.985184 53.665276 
Q 396.085472 63.946127 396.085472 82.03743 
Q 396.085472 100.053873 398.985184 110.359678 
Q 401.892775 120.640529 406.967271 120.640529 
Q 409.796066 120.640529 412.356952 117.995455 
Q 414.917839 115.325429 417.557522 109.636026 
z
" style="fill:#0000ff;"/>
   </g>
   <g id="patch_25">
    <path clip-path="url(#pf633ccbb21)" d="M 440.8673 154.74925 
L 428.839693 154.74925 
L 426.940597 157.5 
L 419.20354 157.5 
L 430.252825 142.4 
L 439.428591 142.4 
L 450.477876 157.5 
L 442.747213 157.5 
z
M 430.757972 151.946721 
L 438.929839 151.946721 
L 434.850299 145.940377 
z
" style="fill:#008000;"/>
   </g>
   <g id="patch_26">
    <path clip-path="url(#pf633ccbb21)" d="M 450.477876 133.741128 
Q 447.861832 138.033134 445.033037 140.20409 
Q 442.204242 142.4 439.123298 142.4 
Q 429.935625 142.4 424.569582 126.130304 
Q 419.20354 109.860607 419.20354 82.03743 
Q 419.20354 54.114439 424.569582 37.869696 
Q 429.935625 21.6 439.123298 21.6 
Q 442.204242 21.6 445.033037 23.79591 
Q 447.861832 25.966866 450.477876 30.258872 
L 450.477876 54.339021 
Q 447.838193 48.649618 445.277306 46.004545 
Q 442.71642 43.359471 439.887625 43.359471 
Q 434.813129 43.359471 431.905538 53.665276 
Q 429.005826 63.946127 429.005826 82.03743 
Q 429.005826 100.053873 431.905538 110.359678 
Q 434.813129 120.640529 439.887625 120.640529 
Q 442.71642 120.640529 445.277306 117.995455 
Q 447.838193 115.325429 450.477876 109.636026 
z
" style="fill:#0000ff;"/>
   </g>
   <g id="patch_27">
    <path clip-path="url(#pf633ccbb21)" d="M 452.123894 127.3 
L 483.39823 127.3 
L 483.39823 133.189841 
L 472.146742 133.189841 
L 472.146742 157.5 
L 463.397201 157.5 
L 463.397201 133.189841 
L 452.123894 133.189841 
z
" style="fill:#ff0000;"/>
   </g>
   <g id="patch_28">
    <path clip-path="url(#pf633ccbb21)" d="M 483.39823 119.723487 
Q 480.782186 123.478992 477.953391 125.378579 
Q 475.124596 127.3 472.043652 127.3 
Q 462.855979 127.3 457.489936 113.064016 
Q 452.123894 98.828031 452.123894 74.482751 
Q 452.123894 50.050134 457.489936 35.835984 
Q 462.855979 21.6 472.043652 21.6 
Q 475.124596 21.6 477.953391 23.521421 
Q 480.782186 25.421008 483.39823 29.176513 
L 483.39823 50.246643 
Q 480.758547 45.268416 478.19766 42.953976 
Q 475.636773 40.639537 472.807979 40.639537 
Q 467.733483 40.639537 464.825892 49.657116 
Q 461.92618 58.652861 461.92618 74.482751 
Q 461.92618 90.247139 464.825892 99.264718 
Q 467.733483 108.260463 472.807979 108.260463 
Q 475.636773 108.260463 478.19766 105.946024 
Q 480.758547 103.60975 483.39823 98.631522 
z
" style="fill:#0000ff;"/>
   </g>
   <g id="patch_29">
    <path clip-path="url(#pf633ccbb21)" d="M 506.708008 154.74925 
L 494.680401 154.74925 
L 492.781305 157.5 
L 485.044248 157.5 
L 496.093533 142.4 
L 505.269299 142.4 
L 516.318584 157.5 
L 508.587921 157.5 
z
M 496.59868 151.946721 
L 504.770547 151.946721 
L 500.691007 145.940377 
z
" style="fill:#008000;"/>
   </g>
   <g id="patch_30">
    <path clip-path="url(#pf633ccbb21)" d="M 485.044248 97.1 
L 516.318584 97.1 
L 516.318584 105.934762 
L 505.067096 105.934762 
L 505.067096 142.4 
L 496.317555 142.4 
L 496.317555 105.934762 
L 485.044248 105.934762 
z
" style="fill:#ff0000;"/>
   </g>
   <g id="patch_31">
    <path clip-path="url(#pf633ccbb21)" d="M 516.318584 91.688205 
Q 513.70254 94.370709 510.873745 95.727556 
Q 508.04495 97.1 504.964006 97.1 
Q 495.776333 97.1 490.41029 86.93144 
Q 485.044248 76.76288 485.044248 59.373394 
Q 485.044248 41.921524 490.41029 31.76856 
Q 495.776333 21.6 504.964006 21.6 
Q 508.04495 21.6 510.873745 22.972444 
Q 513.70254 24.329291 516.318584 27.011795 
L 516.318584 42.061888 
Q 513.678901 38.506011 511.118014 36.85284 
Q 508.557127 35.199669 505.728333 35.199669 
Q 500.653837 35.199669 497.746246 41.640797 
Q 494.846534 48.066329 494.846534 59.373394 
Q 494.846534 70.633671 497.746246 77.074799 
Q 500.653837 83.500331 505.728333 83.500331 
Q 508.557127 83.500331 511.118014 81.84716 
Q 513.678901 80.178393 516.318584 76.622516 
z
" style="fill:#0000ff;"/>
   </g>
   <g id="patch_32">
    <path clip-path="url(#pf633ccbb21)" d="M 549.238938 156.417641 
Q 546.622894 156.954142 543.794099 157.225511 
Q 540.965304 157.5 537.88436 157.5 
Q 528.696687 157.5 523.330644 155.466288 
Q 517.964602 153.432576 517.964602 149.954679 
Q 517.964602 146.464305 523.330644 144.433712 
Q 528.696687 142.4 537.88436 142.4 
Q 540.965304 142.4 543.794099 142.674489 
Q 546.622894 142.945858 549.238938 143.482359 
L 549.238938 146.492378 
Q 546.599255 145.781202 544.038368 145.450568 
Q 541.477481 145.119934 538.648687 145.119934 
Q 533.574191 145.119934 530.6666 146.408159 
Q 527.766888 147.693266 527.766888 149.954679 
Q 527.766888 152.206734 530.6666 153.49496 
Q 533.574191 154.780066 538.648687 154.780066 
Q 541.477481 154.780066 544.038368 154.449432 
Q 546.599255 154.115679 549.238938 153.404503 
z
" style="fill:#0000ff;"/>
   </g>
   <g id="patch_33">
    <path clip-path="url(#pf633ccbb21)" d="M 549.238938 141.033795 
Q 546.08487 141.716897 542.692495 142.060008 
Q 539.300119 142.4 535.683455 142.4 
Q 527.510914 142.4 522.737758 140.366288 
Q 517.964602 138.332576 517.964602 134.854679 
Q 517.964602 131.336232 522.821866 129.318116 
Q 527.68614 127.3 536.146051 127.3 
Q 539.405255 127.3 542.391106 127.574489 
Q 545.383966 127.845858 548.033383 128.382359 
L 548.033383 131.392378 
Q 545.299858 130.703037 542.594368 130.363045 
Q 539.888879 130.019934 537.169371 130.019934 
Q 532.136881 130.019934 529.410364 131.273848 
Q 526.683847 132.524644 526.683847 134.854679 
Q 526.683847 137.16288 529.312237 138.423032 
Q 531.940627 139.680066 536.776865 139.680066 
Q 538.094565 139.680066 539.22302 139.608325 
Q 540.351475 139.533464 541.248633 139.377505 
L 541.248633 136.551518 
L 536.096988 136.551518 
L 536.096988 134.034332 
L 549.238938 134.034332 
z
" style="fill:#ffa600;"/>
   </g>
   <g id="patch_34">
    <path clip-path="url(#pf633ccbb21)" d="M 517.964602 112.2 
L 549.238938 112.2 
L 549.238938 115.144921 
L 537.98745 115.144921 
L 537.98745 127.3 
L 529.237909 127.3 
L 529.237909 115.144921 
L 517.964602 115.144921 
z
" style="fill:#ff0000;"/>
   </g>
   <g id="patch_35">
    <path clip-path="url(#pf633ccbb21)" d="M 539.628362 95.695499 
L 527.600755 95.695499 
L 525.701659 112.2 
L 517.964602 112.2 
L 529.013887 21.6 
L 538.189653 21.6 
L 549.238938 112.2 
L 541.508275 112.2 
z
M 529.519034 78.880326 
L 537.690901 78.880326 
L 533.611361 42.842263 
z
" style="fill:#008000;"/>
   </g>
   <g id="patch_36">
    <path clip-path="url(#pf633ccbb21)" d="M 550.884956 142.4 
L 582.159292 142.4 
L 582.159292 145.344921 
L 570.907804 145.344921 
L 570.907804 157.5 
L 562.158263 157.5 
L 562.158263 145.344921 
L 550.884956 145.344921 
z
" style="fill:#ff0000;"/>
   </g>
   <g id="patch_37">
    <path clip-path="url(#pf633ccbb21)" d="M 582.159292 140.235282 
Q 579.543248 141.308283 576.714453 141.851023 
Q 573.885658 142.4 570.804714 142.4 
Q 561.617041 142.4 556.250998 138.332576 
Q 550.884956 134.265152 550.884956 127.309358 
Q 550.884956 120.32861 556.250998 116.267424 
Q 561.617041 112.2 570.804714 112.2 
Q 573.885658 112.2 576.714453 112.748977 
Q 579.543248 113.291717 582.159292 114.364718 
L 582.159292 120.384755 
Q 579.519609 118.962404 576.958722 118.301136 
Q 574.397835 117.639868 571.569041 117.639868 
Q 566.494545 117.639868 563.586954 120.216319 
Q 560.687242 122.786532 560.687242 127.309358 
Q 560.687242 131.813468 563.586954 134.389919 
Q 566.494545 136.960132 571.569041 136.960132 
Q 574.397835 136.960132 576.958722 136.298864 
Q 579.519609 135.631357 582.159292 134.209006 
z
" style="fill:#0000ff;"/>
   </g>
   <g id="patch_38">
    <path clip-path="url(#pf633ccbb21)" d="M 572.548716 95.695499 
L 560.521109 95.695499 
L 558.622013 112.2 
L 550.884956 112.2 
L 561.934241 21.6 
L 571.110007 21.6 
L 582.159292 112.2 
L 574.428629 112.2 
z
M 562.439387 78.880326 
L 570.611255 78.880326 
L 566.531715 42.842263 
z
" style="fill:#008000;"/>
   </g>
   <g id="patch_39">
    <path clip-path="url(#pf633ccbb21)" d="M 605.46907 151.9985 
L 593.441463 151.9985 
L 591.542367 157.5 
L 583.80531 157.5 
L 594.854595 127.3 
L 604.030361 127.3 
L 615.079646 157.5 
L 607.348983 157.5 
z
M 595.359741 146.393442 
L 603.531609 146.393442 
L 599.452069 134.380754 
z
" style="fill:#008000;"/>
   </g>
   <g id="patch_40">
    <path clip-path="url(#pf633ccbb21)" d="M 615.079646 117.736563 
Q 611.925578 122.518281 608.533203 124.920058 
Q 605.140827 127.3 601.524163 127.3 
Q 593.351622 127.3 588.578466 113.064016 
Q 583.80531 98.828031 583.80531 74.482751 
Q 583.80531 49.853625 588.662574 35.726813 
Q 593.526848 21.6 601.986759 21.6 
Q 605.245963 21.6 608.231814 23.521421 
Q 611.224674 25.421008 613.874091 29.176513 
L 613.874091 50.246643 
Q 611.140566 45.421256 608.435076 43.041314 
Q 605.729587 40.639537 603.010079 40.639537 
Q 597.977589 40.639537 595.251072 49.416939 
Q 592.524555 58.172506 592.524555 74.482751 
Q 592.524555 90.640157 595.152945 99.461227 
Q 597.781335 108.260463 602.617573 108.260463 
Q 603.935272 108.260463 605.063728 107.758273 
Q 606.192183 107.234249 607.08934 106.142533 
L 607.08934 86.360628 
L 601.937696 86.360628 
L 601.937696 68.740322 
L 615.079646 68.740322 
z
" style="fill:#ffa600;"/>
   </g>
   <g id="patch_41">
    <path clip-path="url(#pf633ccbb21)" d="M 648 156.417641 
Q 645.383956 156.954142 642.555161 157.225511 
Q 639.726366 157.5 636.645422 157.5 
Q 627.457749 157.5 622.091706 155.466288 
Q 616.725664 153.432576 616.725664 149.954679 
Q 616.725664 146.464305 622.091706 144.433712 
Q 627.457749 142.4 636.645422 142.4 
Q 639.726366 142.4 642.555161 142.674489 
Q 645.383956 142.945858 648 143.482359 
L 648 146.492378 
Q 645.360317 145.781202 642.79943 145.450568 
Q 640.238543 145.119934 637.409749 145.119934 
Q 632.335253 145.119934 629.427662 146.408159 
Q 626.52795 147.693266 626.52795 149.954679 
Q 626.52795 152.206734 629.427662 153.49496 
Q 632.335253 154.780066 637.409749 154.780066 
Q 640.238543 154.780066 642.79943 154.449432 
Q 645.360317 154.115679 648 153.404503 
z
" style="fill:#0000ff;"/>
   </g>
   <g id="patch_42">
    <path clip-path="url(#pf633ccbb21)" d="M 616.725664 127.3 
L 648 127.3 
L 648 130.244921 
L 636.748512 130.244921 
L 636.748512 142.4 
L 627.998971 142.4 
L 627.998971 130.244921 
L 616.725664 130.244921 
z
" style="fill:#ff0000;"/>
   </g>
   <g id="patch_43">
    <path clip-path="url(#pf633ccbb21)" d="M 648 123.201384 
Q 644.845932 125.250692 641.453557 126.280025 
Q 638.061181 127.3 634.444517 127.3 
Q 626.271976 127.3 621.49882 121.198864 
Q 616.725664 115.097728 616.725664 104.664036 
Q 616.725664 94.108697 621.582928 88.054348 
Q 626.447202 82 634.907113 82 
Q 638.166317 82 641.152168 82.823466 
Q 644.145028 83.637575 646.794445 85.247077 
L 646.794445 94.277133 
Q 644.06092 92.20911 641.35543 91.189134 
Q 638.649941 90.159802 635.930433 90.159802 
Q 630.897943 90.159802 628.171426 93.921545 
Q 625.444909 97.673931 625.444909 104.664036 
Q 625.444909 111.588639 628.073299 115.369097 
Q 630.701689 119.140198 635.537927 119.140198 
Q 636.855626 119.140198 637.984082 118.924974 
Q 639.112537 118.700392 640.009694 118.232514 
L 640.009694 109.754555 
L 634.85805 109.754555 
L 634.85805 102.202995 
L 648 102.202995 
z
" style="fill:#ffa600;"/>
   </g>
   <g id="patch_44">
    <path clip-path="url(#pf633ccbb21)" d="M 638.389424 70.997 
L 626.361817 70.997 
L 624.462721 82 
L 616.725664 82 
L 627.774949 21.6 
L 636.950715 21.6 
L 648 82 
L 640.269337 82 
z
M 628.280095 59.786884 
L 636.451963 59.786884 
L 632.372423 35.761509 
z
" style="fill:#008000;"/>
   </g>
  </g>
 </g>
 <defs>
  <clipPath id="pf633ccbb21">
   <rect height="135.9" width="558" x="90" y="21.6"/>
  </clipPath>
 </defs>
</svg>
