<?xml version="1.0" encoding="utf-8" standalone="no"?>
<!DOCTYPE svg PUBLIC "-//W3C//DTD SVG 1.1//EN"
  "http://www.w3.org/Graphics/SVG/1.1/DTD/svg11.dtd">
<!-- Created with matplotlib (https://matplotlib.org/) -->
<svg height="180pt" version="1.1" viewBox="0 0 720 180" width="720pt" xmlns="http://www.w3.org/2000/svg" xmlns:xlink="http://www.w3.org/1999/xlink">
 <metadata>
  <rdf:RDF xmlns:cc="http://creativecommons.org/ns#" xmlns:dc="http://purl.org/dc/elements/1.1/" xmlns:rdf="http://www.w3.org/1999/02/22-rdf-syntax-ns#">
   <cc:Work>
    <dc:type rdf:resource="http://purl.org/dc/dcmitype/StillImage"/>
    <dc:date>2021-08-04T23:33:28.221008</dc:date>
    <dc:format>image/svg+xml</dc:format>
    <dc:creator>
     <cc:Agent>
      <dc:title>Matplotlib v3.3.2, https://matplotlib.org/</dc:title>
     </cc:Agent>
    </dc:creator>
   </cc:Work>
  </rdf:RDF>
 </metadata>
 <defs>
  <style type="text/css">*{stroke-linecap:butt;stroke-linejoin:round;}</style>
 </defs>
 <g id="figure_1">
  <g id="patch_1">
   <path d="M 0 180 
L 720 180 
L 720 0 
L 0 0 
z
" style="fill:none;"/>
  </g>
  <g id="axes_1">
   <g id="line2d_1">
    <path clip-path="url(#p259dc43e66)" d="M 90 157.5 
L 648 157.5 
" style="fill:none;stroke:#000000;stroke-linecap:square;stroke-width:0.5;"/>
   </g>
   <g id="patch_2">
    <path clip-path="url(#p259dc43e66)" d="M 111.66376 151.9985 
L 99.636153 151.9985 
L 97.737057 157.5 
L 90 157.5 
L 101.049285 127.3 
L 110.225051 127.3 
L 121.274336 157.5 
L 113.543673 157.5 
z
M 101.554432 146.393442 
L 109.726299 146.393442 
L 105.64676 134.380754 
z
" style="fill:#008000;"/>
   </g>
   <g id="patch_3">
    <path clip-path="url(#p259dc43e66)" d="M 121.274336 123.201384 
Q 118.120268 125.250692 114.727893 126.280025 
Q 111.335518 127.3 107.718853 127.3 
Q 99.546312 127.3 94.773156 121.198864 
Q 90 115.097728 90 104.664036 
Q 90 94.108697 94.857265 88.054348 
Q 99.721538 82 108.18145 82 
Q 111.440653 82 114.426504 82.823466 
Q 117.419364 83.637575 120.068781 85.247077 
L 120.068781 94.277133 
Q 117.335256 92.20911 114.629766 91.189134 
Q 111.924277 90.159802 109.204769 90.159802 
Q 104.172279 90.159802 101.445762 93.921545 
Q 98.719246 97.673931 98.719246 104.664036 
Q 98.719246 111.588639 101.347636 115.369097 
Q 103.976026 119.140198 108.812263 119.140198 
Q 110.129963 119.140198 111.258418 118.924974 
Q 112.386874 118.700392 113.284031 118.232514 
L 113.284031 109.754555 
L 108.132386 109.754555 
L 108.132386 102.202995 
L 121.274336 102.202995 
z
" style="fill:#ffa600;"/>
   </g>
   <g id="patch_4">
    <path clip-path="url(#p259dc43e66)" d="M 121.274336 77.670564 
Q 118.658292 79.816567 115.829497 80.902045 
Q 113.000702 82 109.919759 82 
Q 100.732085 82 95.366043 73.865152 
Q 90 65.730304 90 51.818715 
Q 90 37.85722 95.366043 29.734848 
Q 100.732085 21.6 109.919759 21.6 
Q 113.000702 21.6 115.829497 22.697955 
Q 118.658292 23.783433 121.274336 25.929436 
L 121.274336 37.96951 
Q 118.634653 35.124809 116.073766 33.802272 
Q 113.51288 32.479736 110.684085 32.479736 
Q 105.609589 32.479736 102.701998 37.632638 
Q 99.802286 42.773063 99.802286 51.818715 
Q 99.802286 60.826937 102.701998 65.979839 
Q 105.609589 71.120264 110.684085 71.120264 
Q 113.51288 71.120264 116.073766 69.797728 
Q 118.634653 68.462714 121.274336 65.618013 
z
" style="fill:#0000ff;"/>
   </g>
   <g id="patch_5">
    <path clip-path="url(#p259dc43e66)" d="M 122.920354 142.4 
L 154.19469 142.4 
L 154.19469 145.344921 
L 142.943202 145.344921 
L 142.943202 157.5 
L 134.193661 157.5 
L 134.193661 145.344921 
L 122.920354 145.344921 
z
" style="fill:#ff0000;"/>
   </g>
   <g id="patch_6">
    <path clip-path="url(#p259dc43e66)" d="M 154.19469 138.070564 
Q 151.578646 140.216567 148.749851 141.302045 
Q 145.921056 142.4 142.840113 142.4 
Q 133.652439 142.4 128.286397 134.265152 
Q 122.920354 126.130304 122.920354 112.218715 
Q 122.920354 98.25722 128.286397 90.134848 
Q 133.652439 82 142.840113 82 
Q 145.921056 82 148.749851 83.097955 
Q 151.578646 84.183433 154.19469 86.329436 
L 154.19469 98.36951 
Q 151.555007 95.524809 148.99412 94.202272 
Q 146.433234 92.879736 143.604439 92.879736 
Q 138.529943 92.879736 135.622352 98.032638 
Q 132.72264 103.173063 132.72264 112.218715 
Q 132.72264 121.226937 135.622352 126.379839 
Q 138.529943 131.520264 143.604439 131.520264 
Q 146.433234 131.520264 148.99412 130.197728 
Q 151.555007 128.862714 154.19469 126.018013 
z
" style="fill:#0000ff;"/>
   </g>
   <g id="patch_7">
    <path clip-path="url(#p259dc43e66)" d="M 154.19469 76.535179 
Q 151.040622 79.267589 147.648247 80.640033 
Q 144.255872 82 140.639207 82 
Q 132.466666 82 127.69351 73.865152 
Q 122.920354 65.730304 122.920354 51.818715 
Q 122.920354 37.744929 127.777619 29.672464 
Q 132.641892 21.6 141.101804 21.6 
Q 144.361007 21.6 147.346858 22.697955 
Q 150.339718 23.783433 152.989135 25.929436 
L 152.989135 37.96951 
Q 150.25561 35.212146 147.55012 33.852179 
Q 144.844631 32.479736 142.125123 32.479736 
Q 137.092633 32.479736 134.366116 37.495394 
Q 131.6396 42.498575 131.6396 51.818715 
Q 131.6396 61.051518 134.26799 66.09213 
Q 136.89638 71.120264 141.732617 71.120264 
Q 143.050317 71.120264 144.178772 70.833299 
Q 145.307228 70.533857 146.204385 69.910019 
L 146.204385 58.606073 
L 141.05274 58.606073 
L 141.05274 48.537327 
L 154.19469 48.537327 
z
" style="fill:#ffa600;"/>
   </g>
   <g id="patch_8">
    <path clip-path="url(#p259dc43e66)" d="M 177.504468 154.74925 
L 165.476861 154.74925 
L 163.577765 157.5 
L 155.840708 157.5 
L 166.889993 142.4 
L 176.065759 142.4 
L 187.115044 157.5 
L 179.384381 157.5 
z
M 167.39514 151.946721 
L 175.567007 151.946721 
L 171.487467 145.940377 
z
" style="fill:#008000;"/>
   </g>
   <g id="patch_9">
    <path clip-path="url(#p259dc43e66)" d="M 187.115044 141.033795 
Q 183.960976 141.716897 180.568601 142.060008 
Q 177.176226 142.4 173.559561 142.4 
Q 165.38702 142.4 160.613864 140.366288 
Q 155.840708 138.332576 155.840708 134.854679 
Q 155.840708 131.336232 160.697973 129.318116 
Q 165.562246 127.3 174.022158 127.3 
Q 177.281361 127.3 180.267212 127.574489 
Q 183.260072 127.845858 185.909489 128.382359 
L 185.909489 131.392378 
Q 183.175964 130.703037 180.470474 130.363045 
Q 177.764985 130.019934 175.045477 130.019934 
Q 170.012987 130.019934 167.28647 131.273848 
Q 164.559954 132.524644 164.559954 134.854679 
Q 164.559954 137.16288 167.188344 138.423032 
Q 169.816734 139.680066 174.652971 139.680066 
Q 175.970671 139.680066 177.099126 139.608325 
Q 178.227582 139.533464 179.124739 139.377505 
L 179.124739 136.551518 
L 173.973094 136.551518 
L 173.973094 134.034332 
L 187.115044 134.034332 
z
" style="fill:#ffa600;"/>
   </g>
   <g id="patch_10">
    <path clip-path="url(#p259dc43e66)" d="M 155.840708 112.2 
L 187.115044 112.2 
L 187.115044 115.144921 
L 175.863556 115.144921 
L 175.863556 127.3 
L 167.114015 127.3 
L 167.114015 115.144921 
L 155.840708 115.144921 
z
" style="fill:#ff0000;"/>
   </g>
   <g id="patch_11">
    <path clip-path="url(#p259dc43e66)" d="M 187.115044 105.705846 
Q 184.499 108.92485 181.670205 110.553068 
Q 178.84141 112.2 175.760467 112.2 
Q 166.572793 112.2 161.206751 99.997728 
Q 155.840708 87.795455 155.840708 66.928073 
Q 155.840708 45.985829 161.206751 33.802272 
Q 166.572793 21.6 175.760467 21.6 
Q 178.84141 21.6 181.670205 23.246932 
Q 184.499 24.87515 187.115044 28.094154 
L 187.115044 46.154266 
Q 184.475361 41.887213 181.914474 39.903408 
Q 179.353588 37.919603 176.524793 37.919603 
Q 171.450297 37.919603 168.542706 45.648957 
Q 165.642994 53.359595 165.642994 66.928073 
Q 165.642994 80.440405 168.542706 88.169758 
Q 171.450297 95.880397 176.524793 95.880397 
Q 179.353588 95.880397 181.914474 93.896592 
Q 184.475361 91.894071 187.115044 87.627019 
z
" style="fill:#0000ff;"/>
   </g>
   <g id="patch_12">
    <path clip-path="url(#p259dc43e66)" d="M 220.035398 147.758769 
Q 217.419354 152.587275 214.590559 155.029601 
Q 211.761764 157.5 208.680821 157.5 
Q 199.493147 157.5 194.127105 139.196592 
Q 188.761062 120.893183 188.761062 89.592109 
Q 188.761062 58.178744 194.127105 39.903408 
Q 199.493147 21.6 208.680821 21.6 
Q 211.761764 21.6 214.590559 24.070399 
Q 217.419354 26.512725 220.035398 31.341231 
L 220.035398 58.431398 
Q 217.395715 52.03082 214.834828 49.055113 
Q 212.273942 46.079405 209.445147 46.079405 
Q 204.370651 46.079405 201.46306 57.673435 
Q 198.563348 69.239393 198.563348 89.592109 
Q 198.563348 109.860607 201.46306 121.454637 
Q 204.370651 133.020595 209.445147 133.020595 
Q 212.273942 133.020595 214.834828 130.044887 
Q 217.395715 127.041107 220.035398 120.640529 
z
" style="fill:#0000ff;"/>
   </g>
   <g id="patch_13">
    <path clip-path="url(#p259dc43e66)" d="M 252.955752 154.767589 
Q 249.801684 156.133795 246.409309 156.820017 
Q 243.016934 157.5 239.400269 157.5 
Q 231.227728 157.5 226.454572 153.432576 
Q 221.681416 149.365152 221.681416 142.409358 
Q 221.681416 135.372464 226.538681 131.336232 
Q 231.402954 127.3 239.862866 127.3 
Q 243.122069 127.3 246.10792 127.848977 
Q 249.10078 128.391717 251.750197 129.464718 
L 251.750197 135.484755 
Q 249.016672 134.106073 246.311182 133.42609 
Q 243.605693 132.739868 240.886185 132.739868 
Q 235.853695 132.739868 233.127178 135.247697 
Q 230.400662 137.749287 230.400662 142.409358 
Q 230.400662 147.025759 233.029052 149.546065 
Q 235.657442 152.060132 240.493679 152.060132 
Q 241.811379 152.060132 242.939834 151.916649 
Q 244.06829 151.766928 244.965447 151.455009 
L 244.965447 145.803037 
L 239.813802 145.803037 
L 239.813802 140.768663 
L 252.955752 140.768663 
z
" style="fill:#ffa600;"/>
   </g>
   <g id="patch_14">
    <path clip-path="url(#p259dc43e66)" d="M 252.955752 119.723487 
Q 250.339708 123.478992 247.510913 125.378579 
Q 244.682118 127.3 241.601175 127.3 
Q 232.413501 127.3 227.047459 113.064016 
Q 221.681416 98.828031 221.681416 74.482751 
Q 221.681416 50.050134 227.047459 35.835984 
Q 232.413501 21.6 241.601175 21.6 
Q 244.682118 21.6 247.510913 23.521421 
Q 250.339708 25.421008 252.955752 29.176513 
L 252.955752 50.246643 
Q 250.316069 45.268416 247.755182 42.953976 
Q 245.194296 40.639537 242.365501 40.639537 
Q 237.291005 40.639537 234.383414 49.657116 
Q 231.483702 58.652861 231.483702 74.482751 
Q 231.483702 90.247139 234.383414 99.264718 
Q 237.291005 108.260463 242.365501 108.260463 
Q 245.194296 108.260463 247.755182 105.946024 
Q 250.316069 103.60975 252.955752 98.631522 
z
" style="fill:#0000ff;"/>
   </g>
   <g id="patch_15">
    <path clip-path="url(#p259dc43e66)" d="M 285.876106 156.133795 
Q 282.722038 156.816897 279.329663 157.160008 
Q 275.937288 157.5 272.320623 157.5 
Q 264.148082 157.5 259.374926 155.466288 
Q 254.60177 153.432576 254.60177 149.954679 
Q 254.60177 146.436232 259.459035 144.418116 
Q 264.323308 142.4 272.78322 142.4 
Q 276.042423 142.4 279.028274 142.674489 
Q 282.021134 142.945858 284.670551 143.482359 
L 284.670551 146.492378 
Q 281.937026 145.803037 279.231536 145.463045 
Q 276.526047 145.119934 273.806539 145.119934 
Q 268.774049 145.119934 266.047532 146.373848 
Q 263.321016 147.624644 263.321016 149.954679 
Q 263.321016 152.26288 265.949406 153.523032 
Q 268.577796 154.780066 273.414033 154.780066 
Q 274.731733 154.780066 275.860188 154.708325 
Q 276.988644 154.633464 277.885801 154.477505 
L 277.885801 151.651518 
L 272.734156 151.651518 
L 272.734156 149.134332 
L 285.876106 149.134332 
z
" style="fill:#ffa600;"/>
   </g>
   <g id="patch_16">
    <path clip-path="url(#p259dc43e66)" d="M 285.876106 133.741128 
Q 283.260062 138.033134 280.431267 140.20409 
Q 277.602472 142.4 274.521529 142.4 
Q 265.333855 142.4 259.967812 126.130304 
Q 254.60177 109.860607 254.60177 82.03743 
Q 254.60177 54.114439 259.967812 37.869696 
Q 265.333855 21.6 274.521529 21.6 
Q 277.602472 21.6 280.431267 23.79591 
Q 283.260062 25.966866 285.876106 30.258872 
L 285.876106 54.339021 
Q 283.236423 48.649618 280.675536 46.004545 
Q 278.11465 43.359471 275.285855 43.359471 
Q 270.211359 43.359471 267.303768 53.665276 
Q 264.404056 63.946127 264.404056 82.03743 
Q 264.404056 100.053873 267.303768 110.359678 
Q 270.211359 120.640529 275.285855 120.640529 
Q 278.11465 120.640529 280.675536 117.995455 
Q 283.236423 115.325429 285.876106 109.636026 
z
" style="fill:#0000ff;"/>
   </g>
   <g id="patch_17">
    <path clip-path="url(#p259dc43e66)" d="M 318.79646 154.767589 
Q 315.642392 156.133795 312.250017 156.820017 
Q 308.857642 157.5 305.240977 157.5 
Q 297.068436 157.5 292.29528 153.432576 
Q 287.522124 149.365152 287.522124 142.409358 
Q 287.522124 135.372464 292.379389 131.336232 
Q 297.243662 127.3 305.703574 127.3 
Q 308.962777 127.3 311.948628 127.848977 
Q 314.941488 128.391717 317.590905 129.464718 
L 317.590905 135.484755 
Q 314.85738 134.106073 312.15189 133.42609 
Q 309.446401 132.739868 306.726893 132.739868 
Q 301.694403 132.739868 298.967886 135.247697 
Q 296.24137 137.749287 296.24137 142.409358 
Q 296.24137 147.025759 298.86976 149.546065 
Q 301.49815 152.060132 306.334387 152.060132 
Q 307.652087 152.060132 308.780542 151.916649 
Q 309.908998 151.766928 310.806155 151.455009 
L 310.806155 145.803037 
L 305.65451 145.803037 
L 305.65451 140.768663 
L 318.79646 140.768663 
z
" style="fill:#ffa600;"/>
   </g>
   <g id="patch_18">
    <path clip-path="url(#p259dc43e66)" d="M 318.79646 119.723487 
Q 316.180416 123.478992 313.351621 125.378579 
Q 310.522826 127.3 307.441883 127.3 
Q 298.254209 127.3 292.888166 113.064016 
Q 287.522124 98.828031 287.522124 74.482751 
Q 287.522124 50.050134 292.888166 35.835984 
Q 298.254209 21.6 307.441883 21.6 
Q 310.522826 21.6 313.351621 23.521421 
Q 316.180416 25.421008 318.79646 29.176513 
L 318.79646 50.246643 
Q 316.156777 45.268416 313.59589 42.953976 
Q 311.035004 40.639537 308.206209 40.639537 
Q 303.131713 40.639537 300.224122 49.657116 
Q 297.32441 58.652861 297.32441 74.482751 
Q 297.32441 90.247139 300.224122 99.264718 
Q 303.131713 108.260463 308.206209 108.260463 
Q 311.035004 108.260463 313.59589 105.946024 
Q 316.156777 103.60975 318.79646 98.631522 
z
" style="fill:#0000ff;"/>
   </g>
   <g id="patch_19">
    <path clip-path="url(#p259dc43e66)" d="M 342.106238 151.9985 
L 330.078631 151.9985 
L 328.179535 157.5 
L 320.442478 157.5 
L 331.491763 127.3 
L 340.667529 127.3 
L 351.716814 157.5 
L 343.986151 157.5 
z
M 331.99691 146.393442 
L 340.168777 146.393442 
L 336.089237 134.380754 
z
" style="fill:#008000;"/>
   </g>
   <g id="patch_20">
    <path clip-path="url(#p259dc43e66)" d="M 351.716814 125.135282 
Q 349.10077 126.208283 346.271975 126.751023 
Q 343.44318 127.3 340.362237 127.3 
Q 331.174563 127.3 325.80852 123.232576 
Q 320.442478 119.165152 320.442478 112.209358 
Q 320.442478 105.22861 325.80852 101.167424 
Q 331.174563 97.1 340.362237 97.1 
Q 343.44318 97.1 346.271975 97.648977 
Q 349.10077 98.191717 351.716814 99.264718 
L 351.716814 105.284755 
Q 349.077131 103.862404 346.516244 103.201136 
Q 343.955358 102.539868 341.126563 102.539868 
Q 336.052067 102.539868 333.144476 105.116319 
Q 330.244764 107.686532 330.244764 112.209358 
Q 330.244764 116.713468 333.144476 119.289919 
Q 336.052067 121.860132 341.126563 121.860132 
Q 343.955358 121.860132 346.516244 121.198864 
Q 349.077131 120.531357 351.716814 119.109006 
z
" style="fill:#0000ff;"/>
   </g>
   <g id="patch_21">
    <path clip-path="url(#p259dc43e66)" d="M 351.716814 90.268973 
Q 348.562746 93.684487 345.170371 95.400041 
Q 341.777996 97.1 338.161331 97.1 
Q 329.98879 97.1 325.215634 86.93144 
Q 320.442478 76.76288 320.442478 59.373394 
Q 320.442478 41.781161 325.299743 31.69058 
Q 330.164016 21.6 338.623928 21.6 
Q 341.883131 21.6 344.868982 22.972444 
Q 347.861842 24.329291 350.511259 27.011795 
L 350.511259 42.061888 
Q 347.777734 38.615183 345.072244 36.915224 
Q 342.366755 35.199669 339.647247 35.199669 
Q 334.614757 35.199669 331.88824 41.469242 
Q 329.161724 47.723218 329.161724 59.373394 
Q 329.161724 70.914398 331.790114 77.215162 
Q 334.418504 83.500331 339.254741 83.500331 
Q 340.572441 83.500331 341.700896 83.141624 
Q 342.829351 82.767321 343.726509 81.987523 
L 343.726509 67.857591 
L 338.574864 67.857591 
L 338.574864 55.271659 
L 351.716814 55.271659 
z
" style="fill:#ffa600;"/>
   </g>
   <g id="patch_22">
    <path clip-path="url(#p259dc43e66)" d="M 375.026592 154.74925 
L 362.998985 154.74925 
L 361.099889 157.5 
L 353.362832 157.5 
L 364.412117 142.4 
L 373.587883 142.4 
L 384.637168 157.5 
L 376.906505 157.5 
z
M 364.917264 151.946721 
L 373.089131 151.946721 
L 369.009591 145.940377 
z
" style="fill:#008000;"/>
   </g>
   <g id="patch_23">
    <path clip-path="url(#p259dc43e66)" d="M 384.637168 141.033795 
Q 381.4831 141.716897 378.090725 142.060008 
Q 374.698349 142.4 371.081685 142.4 
Q 362.909144 142.4 358.135988 140.366288 
Q 353.362832 138.332576 353.362832 134.854679 
Q 353.362832 131.336232 358.220097 129.318116 
Q 363.08437 127.3 371.544282 127.3 
Q 374.803485 127.3 377.789336 127.574489 
Q 380.782196 127.845858 383.431613 128.382359 
L 383.431613 131.392378 
Q 380.698088 130.703037 377.992598 130.363045 
Q 375.287109 130.019934 372.567601 130.019934 
Q 367.535111 130.019934 364.808594 131.273848 
Q 362.082078 132.524644 362.082078 134.854679 
Q 362.082078 137.16288 364.710468 138.423032 
Q 367.338858 139.680066 372.175095 139.680066 
Q 373.492795 139.680066 374.62125 139.608325 
Q 375.749705 139.533464 376.646863 139.377505 
L 376.646863 136.551518 
L 371.495218 136.551518 
L 371.495218 134.034332 
L 384.637168 134.034332 
z
" style="fill:#ffa600;"/>
   </g>
   <g id="patch_24">
    <path clip-path="url(#p259dc43e66)" d="M 353.362832 112.2 
L 384.637168 112.2 
L 384.637168 115.144921 
L 373.38568 115.144921 
L 373.38568 127.3 
L 364.636139 127.3 
L 364.636139 115.144921 
L 353.362832 115.144921 
z
" style="fill:#ff0000;"/>
   </g>
   <g id="patch_25">
    <path clip-path="url(#p259dc43e66)" d="M 384.637168 105.705846 
Q 382.021124 108.92485 379.192329 110.553068 
Q 376.363534 112.2 373.282591 112.2 
Q 364.094917 112.2 358.728874 99.997728 
Q 353.362832 87.795455 353.362832 66.928073 
Q 353.362832 45.985829 358.728874 33.802272 
Q 364.094917 21.6 373.282591 21.6 
Q 376.363534 21.6 379.192329 23.246932 
Q 382.021124 24.87515 384.637168 28.094154 
L 384.637168 46.154266 
Q 381.997485 41.887213 379.436598 39.903408 
Q 376.875712 37.919603 374.046917 37.919603 
Q 368.972421 37.919603 366.06483 45.648957 
Q 363.165118 53.359595 363.165118 66.928073 
Q 363.165118 80.440405 366.06483 88.169758 
Q 368.972421 95.880397 374.046917 95.880397 
Q 376.875712 95.880397 379.436598 93.896592 
Q 381.997485 91.894071 384.637168 87.627019 
z
" style="fill:#0000ff;"/>
   </g>
   <g id="patch_26">
    <path clip-path="url(#p259dc43e66)" d="M 417.557522 154.767589 
Q 414.403454 156.133795 411.011079 156.820017 
Q 407.618703 157.5 404.002039 157.5 
Q 395.829498 157.5 391.056342 153.432576 
Q 386.283186 149.365152 386.283186 142.409358 
Q 386.283186 135.372464 391.140451 131.336232 
Q 396.004724 127.3 404.464635 127.3 
Q 407.723839 127.3 410.70969 127.848977 
Q 413.70255 128.391717 416.351967 129.464718 
L 416.351967 135.484755 
Q 413.618442 134.106073 410.912952 133.42609 
Q 408.207463 132.739868 405.487955 132.739868 
Q 400.455465 132.739868 397.728948 135.247697 
Q 395.002432 137.749287 395.002432 142.409358 
Q 395.002432 147.025759 397.630822 149.546065 
Q 400.259212 152.060132 405.095449 152.060132 
Q 406.413149 152.060132 407.541604 151.916649 
Q 408.670059 151.766928 409.567217 151.455009 
L 409.567217 145.803037 
L 404.415572 145.803037 
L 404.415572 140.768663 
L 417.557522 140.768663 
z
" style="fill:#ffa600;"/>
   </g>
   <g id="patch_27">
    <path clip-path="url(#p259dc43e66)" d="M 417.557522 119.723487 
Q 414.941478 123.478992 412.112683 125.378579 
Q 409.283888 127.3 406.202945 127.3 
Q 397.015271 127.3 391.649228 113.064016 
Q 386.283186 98.828031 386.283186 74.482751 
Q 386.283186 50.050134 391.649228 35.835984 
Q 397.015271 21.6 406.202945 21.6 
Q 409.283888 21.6 412.112683 23.521421 
Q 414.941478 25.421008 417.557522 29.176513 
L 417.557522 50.246643 
Q 414.917839 45.268416 412.356952 42.953976 
Q 409.796066 40.639537 406.967271 40.639537 
Q 401.892775 40.639537 398.985184 49.657116 
Q 396.085472 58.652861 396.085472 74.482751 
Q 396.085472 90.247139 398.985184 99.264718 
Q 401.892775 108.260463 406.967271 108.260463 
Q 409.796066 108.260463 412.356952 105.946024 
Q 414.917839 103.60975 417.557522 98.631522 
z
" style="fill:#0000ff;"/>
   </g>
   <g id="patch_28">
    <path clip-path="url(#p259dc43e66)" d="M 440.8673 154.74925 
L 428.839693 154.74925 
L 426.940597 157.5 
L 419.20354 157.5 
L 430.252825 142.4 
L 439.428591 142.4 
L 450.477876 157.5 
L 442.747213 157.5 
z
M 430.757972 151.946721 
L 438.929839 151.946721 
L 434.850299 145.940377 
z
" style="fill:#008000;"/>
   </g>
   <g id="patch_29">
    <path clip-path="url(#p259dc43e66)" d="M 450.477876 139.667589 
Q 447.323808 141.033795 443.931433 141.720017 
Q 440.539057 142.4 436.922393 142.4 
Q 428.749852 142.4 423.976696 138.332576 
Q 419.20354 134.265152 419.20354 127.309358 
Q 419.20354 120.272464 424.060805 116.236232 
Q 428.925078 112.2 437.384989 112.2 
Q 440.644193 112.2 443.630044 112.748977 
Q 446.622904 113.291717 449.272321 114.364718 
L 449.272321 120.384755 
Q 446.538796 119.006073 443.833306 118.32609 
Q 441.127817 117.639868 438.408309 117.639868 
Q 433.375819 117.639868 430.649302 120.147697 
Q 427.922786 122.649287 427.922786 127.309358 
Q 427.922786 131.925759 430.551176 134.446065 
Q 433.179565 136.960132 438.015803 136.960132 
Q 439.333503 136.960132 440.461958 136.816649 
Q 441.590413 136.666928 442.487571 136.355009 
L 442.487571 130.703037 
L 437.335926 130.703037 
L 437.335926 125.668663 
L 450.477876 125.668663 
z
" style="fill:#ffa600;"/>
   </g>
   <g id="patch_30">
    <path clip-path="url(#p259dc43e66)" d="M 450.477876 105.705846 
Q 447.861832 108.92485 445.033037 110.553068 
Q 442.204242 112.2 439.123298 112.2 
Q 429.935625 112.2 424.569582 99.997728 
Q 419.20354 87.795455 419.20354 66.928073 
Q 419.20354 45.985829 424.569582 33.802272 
Q 429.935625 21.6 439.123298 21.6 
Q 442.204242 21.6 445.033037 23.246932 
Q 447.861832 24.87515 450.477876 28.094154 
L 450.477876 46.154266 
Q 447.838193 41.887213 445.277306 39.903408 
Q 442.71642 37.919603 439.887625 37.919603 
Q 434.813129 37.919603 431.905538 45.648957 
Q 429.005826 53.359595 429.005826 66.928073 
Q 429.005826 80.440405 431.905538 88.169758 
Q 434.813129 95.880397 439.887625 95.880397 
Q 442.71642 95.880397 445.277306 93.896592 
Q 447.838193 91.894071 450.477876 87.627019 
z
" style="fill:#0000ff;"/>
   </g>
   <g id="patch_31">
    <path clip-path="url(#p259dc43e66)" d="M 452.123894 127.3 
L 483.39823 127.3 
L 483.39823 133.189841 
L 472.146742 133.189841 
L 472.146742 157.5 
L 463.397201 157.5 
L 463.397201 133.189841 
L 452.123894 133.189841 
z
" style="fill:#ff0000;"/>
   </g>
   <g id="patch_32">
    <path clip-path="url(#p259dc43e66)" d="M 483.39823 123.201384 
Q 480.244162 125.250692 476.851787 126.280025 
Q 473.459411 127.3 469.842747 127.3 
Q 461.670206 127.3 456.89705 121.198864 
Q 452.123894 115.097728 452.123894 104.664036 
Q 452.123894 94.108697 456.981158 88.054348 
Q 461.845432 82 470.305343 82 
Q 473.564547 82 476.550398 82.823466 
Q 479.543258 83.637575 482.192675 85.247077 
L 482.192675 94.277133 
Q 479.45915 92.20911 476.75366 91.189134 
Q 474.048171 90.159802 471.328663 90.159802 
Q 466.296173 90.159802 463.569656 93.921545 
Q 460.84314 97.673931 460.84314 104.664036 
Q 460.84314 111.588639 463.471529 115.369097 
Q 466.099919 119.140198 470.936157 119.140198 
Q 472.253857 119.140198 473.382312 118.924974 
Q 474.510767 118.700392 475.407925 118.232514 
L 475.407925 109.754555 
L 470.25628 109.754555 
L 470.25628 102.202995 
L 483.39823 102.202995 
z
" style="fill:#ffa600;"/>
   </g>
   <g id="patch_33">
    <path clip-path="url(#p259dc43e66)" d="M 483.39823 77.670564 
Q 480.782186 79.816567 477.953391 80.902045 
Q 475.124596 82 472.043652 82 
Q 462.855979 82 457.489936 73.865152 
Q 452.123894 65.730304 452.123894 51.818715 
Q 452.123894 37.85722 457.489936 29.734848 
Q 462.855979 21.6 472.043652 21.6 
Q 475.124596 21.6 477.953391 22.697955 
Q 480.782186 23.783433 483.39823 25.929436 
L 483.39823 37.96951 
Q 480.758547 35.124809 478.19766 33.802272 
Q 475.636773 32.479736 472.807979 32.479736 
Q 467.733483 32.479736 464.825892 37.632638 
Q 461.92618 42.773063 461.92618 51.818715 
Q 461.92618 60.826937 464.825892 65.979839 
Q 467.733483 71.120264 472.807979 71.120264 
Q 475.636773 71.120264 478.19766 69.797728 
Q 480.758547 68.462714 483.39823 65.618013 
z
" style="fill:#0000ff;"/>
   </g>
   <g id="patch_34">
    <path clip-path="url(#p259dc43e66)" d="M 485.044248 142.4 
L 516.318584 142.4 
L 516.318584 145.344921 
L 505.067096 145.344921 
L 505.067096 157.5 
L 496.317555 157.5 
L 496.317555 145.344921 
L 485.044248 145.344921 
z
" style="fill:#ff0000;"/>
   </g>
   <g id="patch_35">
    <path clip-path="url(#p259dc43e66)" d="M 516.318584 140.235282 
Q 513.70254 141.308283 510.873745 141.851023 
Q 508.04495 142.4 504.964006 142.4 
Q 495.776333 142.4 490.41029 138.332576 
Q 485.044248 134.265152 485.044248 127.309358 
Q 485.044248 120.32861 490.41029 116.267424 
Q 495.776333 112.2 504.964006 112.2 
Q 508.04495 112.2 510.873745 112.748977 
Q 513.70254 113.291717 516.318584 114.364718 
L 516.318584 120.384755 
Q 513.678901 118.962404 511.118014 118.301136 
Q 508.557127 117.639868 505.728333 117.639868 
Q 500.653837 117.639868 497.746246 120.216319 
Q 494.846534 122.786532 494.846534 127.309358 
Q 494.846534 131.813468 497.746246 134.389919 
Q 500.653837 136.960132 505.728333 136.960132 
Q 508.557127 136.960132 511.118014 136.298864 
Q 513.678901 135.631357 516.318584 134.209006 
z
" style="fill:#0000ff;"/>
   </g>
   <g id="patch_36">
    <path clip-path="url(#p259dc43e66)" d="M 516.318584 104.002768 
Q 513.164516 108.101384 509.772141 110.16005 
Q 506.379765 112.2 502.763101 112.2 
Q 494.59056 112.2 489.817404 99.997728 
Q 485.044248 87.795455 485.044248 66.928073 
Q 485.044248 45.817393 489.901512 33.708697 
Q 494.765786 21.6 503.225697 21.6 
Q 506.484901 21.6 509.470752 23.246932 
Q 512.463612 24.87515 515.113029 28.094154 
L 515.113029 46.154266 
Q 512.379504 42.018219 509.674014 39.978269 
Q 506.968525 37.919603 504.249017 37.919603 
Q 499.216527 37.919603 496.49001 45.44309 
Q 493.763493 52.947862 493.763493 66.928073 
Q 493.763493 80.777277 496.391883 88.338195 
Q 499.020273 95.880397 503.856511 95.880397 
Q 505.174211 95.880397 506.302666 95.449948 
Q 507.431121 95.000785 508.328279 94.065028 
L 508.328279 77.10911 
L 503.176634 77.10911 
L 503.176634 62.00599 
L 516.318584 62.00599 
z
" style="fill:#ffa600;"/>
   </g>
   <g id="patch_37">
    <path clip-path="url(#p259dc43e66)" d="M 539.628362 151.9985 
L 527.600755 151.9985 
L 525.701659 157.5 
L 517.964602 157.5 
L 529.013887 127.3 
L 538.189653 127.3 
L 549.238938 157.5 
L 541.508275 157.5 
z
M 529.519034 146.393442 
L 537.690901 146.393442 
L 533.611361 134.380754 
z
" style="fill:#008000;"/>
   </g>
   <g id="patch_38">
    <path clip-path="url(#p259dc43e66)" d="M 549.238938 125.135282 
Q 546.622894 126.208283 543.794099 126.751023 
Q 540.965304 127.3 537.88436 127.3 
Q 528.696687 127.3 523.330644 123.232576 
Q 517.964602 119.165152 517.964602 112.209358 
Q 517.964602 105.22861 523.330644 101.167424 
Q 528.696687 97.1 537.88436 97.1 
Q 540.965304 97.1 543.794099 97.648977 
Q 546.622894 98.191717 549.238938 99.264718 
L 549.238938 105.284755 
Q 546.599255 103.862404 544.038368 103.201136 
Q 541.477481 102.539868 538.648687 102.539868 
Q 533.574191 102.539868 530.6666 105.116319 
Q 527.766888 107.686532 527.766888 112.209358 
Q 527.766888 116.713468 530.6666 119.289919 
Q 533.574191 121.860132 538.648687 121.860132 
Q 541.477481 121.860132 544.038368 121.198864 
Q 546.599255 120.531357 549.238938 119.109006 
z
" style="fill:#0000ff;"/>
   </g>
   <g id="patch_39">
    <path clip-path="url(#p259dc43e66)" d="M 549.238938 90.268973 
Q 546.08487 93.684487 542.692495 95.400041 
Q 539.300119 97.1 535.683455 97.1 
Q 527.510914 97.1 522.737758 86.93144 
Q 517.964602 76.76288 517.964602 59.373394 
Q 517.964602 41.781161 522.821866 31.69058 
Q 527.68614 21.6 536.146051 21.6 
Q 539.405255 21.6 542.391106 22.972444 
Q 545.383966 24.329291 548.033383 27.011795 
L 548.033383 42.061888 
Q 545.299858 38.615183 542.594368 36.915224 
Q 539.888879 35.199669 537.169371 35.199669 
Q 532.136881 35.199669 529.410364 41.469242 
Q 526.683847 47.723218 526.683847 59.373394 
Q 526.683847 70.914398 529.312237 77.215162 
Q 531.940627 83.500331 536.776865 83.500331 
Q 538.094565 83.500331 539.22302 83.141624 
Q 540.351475 82.767321 541.248633 81.987523 
L 541.248633 67.857591 
L 536.096988 67.857591 
L 536.096988 55.271659 
L 549.238938 55.271659 
z
" style="fill:#ffa600;"/>
   </g>
   <g id="patch_40">
    <path clip-path="url(#p259dc43e66)" d="M 582.159292 156.133795 
Q 579.005224 156.816897 575.612849 157.160008 
Q 572.220473 157.5 568.603809 157.5 
Q 560.431268 157.5 555.658112 155.466288 
Q 550.884956 153.432576 550.884956 149.954679 
Q 550.884956 146.436232 555.74222 144.418116 
Q 560.606494 142.4 569.066405 142.4 
Q 572.325609 142.4 575.31146 142.674489 
Q 578.30432 142.945858 580.953737 143.482359 
L 580.953737 146.492378 
Q 578.220212 145.803037 575.514722 145.463045 
Q 572.809233 145.119934 570.089725 145.119934 
Q 565.057235 145.119934 562.330718 146.373848 
Q 559.604201 147.624644 559.604201 149.954679 
Q 559.604201 152.26288 562.232591 153.523032 
Q 564.860981 154.780066 569.697219 154.780066 
Q 571.014919 154.780066 572.143374 154.708325 
Q 573.271829 154.633464 574.168986 154.477505 
L 574.168986 151.651518 
L 569.017342 151.651518 
L 569.017342 149.134332 
L 582.159292 149.134332 
z
" style="fill:#ffa600;"/>
   </g>
   <g id="patch_41">
    <path clip-path="url(#p259dc43e66)" d="M 550.884956 112.2 
L 582.159292 112.2 
L 582.159292 118.089841 
L 570.907804 118.089841 
L 570.907804 142.4 
L 562.158263 142.4 
L 562.158263 118.089841 
L 550.884956 118.089841 
z
" style="fill:#ff0000;"/>
   </g>
   <g id="patch_42">
    <path clip-path="url(#p259dc43e66)" d="M 582.159292 105.705846 
Q 579.543248 108.92485 576.714453 110.553068 
Q 573.885658 112.2 570.804714 112.2 
Q 561.617041 112.2 556.250998 99.997728 
Q 550.884956 87.795455 550.884956 66.928073 
Q 550.884956 45.985829 556.250998 33.802272 
Q 561.617041 21.6 570.804714 21.6 
Q 573.885658 21.6 576.714453 23.246932 
Q 579.543248 24.87515 582.159292 28.094154 
L 582.159292 46.154266 
Q 579.519609 41.887213 576.958722 39.903408 
Q 574.397835 37.919603 571.569041 37.919603 
Q 566.494545 37.919603 563.586954 45.648957 
Q 560.687242 53.359595 560.687242 66.928073 
Q 560.687242 80.440405 563.586954 88.169758 
Q 566.494545 95.880397 571.569041 95.880397 
Q 574.397835 95.880397 576.958722 93.896592 
Q 579.519609 91.894071 582.159292 87.627019 
z
" style="fill:#0000ff;"/>
   </g>
   <g id="patch_43">
    <path clip-path="url(#p259dc43e66)" d="M 615.079646 156.417641 
Q 612.463602 156.954142 609.634807 157.225511 
Q 606.806012 157.5 603.725068 157.5 
Q 594.537395 157.5 589.171352 155.466288 
Q 583.80531 153.432576 583.80531 149.954679 
Q 583.80531 146.464305 589.171352 144.433712 
Q 594.537395 142.4 603.725068 142.4 
Q 606.806012 142.4 609.634807 142.674489 
Q 612.463602 142.945858 615.079646 143.482359 
L 615.079646 146.492378 
Q 612.439963 145.781202 609.879076 145.450568 
Q 607.318189 145.119934 604.489395 145.119934 
Q 599.414899 145.119934 596.507308 146.408159 
Q 593.607596 147.693266 593.607596 149.954679 
Q 593.607596 152.206734 596.507308 153.49496 
Q 599.414899 154.780066 604.489395 154.780066 
Q 607.318189 154.780066 609.879076 154.449432 
Q 612.439963 154.115679 615.079646 153.404503 
z
" style="fill:#0000ff;"/>
   </g>
   <g id="patch_44">
    <path clip-path="url(#p259dc43e66)" d="M 583.80531 127.3 
L 615.079646 127.3 
L 615.079646 130.244921 
L 603.828158 130.244921 
L 603.828158 142.4 
L 595.078617 142.4 
L 595.078617 130.244921 
L 583.80531 130.244921 
z
" style="fill:#ff0000;"/>
   </g>
   <g id="patch_45">
    <path clip-path="url(#p259dc43e66)" d="M 605.46907 121.7985 
L 593.441463 121.7985 
L 591.542367 127.3 
L 583.80531 127.3 
L 594.854595 97.1 
L 604.030361 97.1 
L 615.079646 127.3 
L 607.348983 127.3 
z
M 595.359741 116.193442 
L 603.531609 116.193442 
L 599.452069 104.180754 
z
" style="fill:#008000;"/>
   </g>
   <g id="patch_46">
    <path clip-path="url(#p259dc43e66)" d="M 615.079646 90.268973 
Q 611.925578 93.684487 608.533203 95.400041 
Q 605.140827 97.1 601.524163 97.1 
Q 593.351622 97.1 588.578466 86.93144 
Q 583.80531 76.76288 583.80531 59.373394 
Q 583.80531 41.781161 588.662574 31.69058 
Q 593.526848 21.6 601.986759 21.6 
Q 605.245963 21.6 608.231814 22.972444 
Q 611.224674 24.329291 613.874091 27.011795 
L 613.874091 42.061888 
Q 611.140566 38.615183 608.435076 36.915224 
Q 605.729587 35.199669 603.010079 35.199669 
Q 597.977589 35.199669 595.251072 41.469242 
Q 592.524555 47.723218 592.524555 59.373394 
Q 592.524555 70.914398 595.152945 77.215162 
Q 597.781335 83.500331 602.617573 83.500331 
Q 603.935272 83.500331 605.063728 83.141624 
Q 606.192183 82.767321 607.08934 81.987523 
L 607.08934 67.857591 
L 601.937696 67.857591 
L 601.937696 55.271659 
L 615.079646 55.271659 
z
" style="fill:#ffa600;"/>
   </g>
   <g id="patch_47">
    <path clip-path="url(#p259dc43e66)" d="M 638.389424 154.74925 
L 626.361817 154.74925 
L 624.462721 157.5 
L 616.725664 157.5 
L 627.774949 142.4 
L 636.950715 142.4 
L 648 157.5 
L 640.269337 157.5 
z
M 628.280095 151.946721 
L 636.451963 151.946721 
L 632.372423 145.940377 
z
" style="fill:#008000;"/>
   </g>
   <g id="patch_48">
    <path clip-path="url(#p259dc43e66)" d="M 616.725664 127.3 
L 648 127.3 
L 648 130.244921 
L 636.748512 130.244921 
L 636.748512 142.4 
L 627.998971 142.4 
L 627.998971 130.244921 
L 616.725664 130.244921 
z
" style="fill:#ff0000;"/>
   </g>
   <g id="patch_49">
    <path clip-path="url(#p259dc43e66)" d="M 648 123.201384 
Q 644.845932 125.250692 641.453557 126.280025 
Q 638.061181 127.3 634.444517 127.3 
Q 626.271976 127.3 621.49882 121.198864 
Q 616.725664 115.097728 616.725664 104.664036 
Q 616.725664 94.108697 621.582928 88.054348 
Q 626.447202 82 634.907113 82 
Q 638.166317 82 641.152168 82.823466 
Q 644.145028 83.637575 646.794445 85.247077 
L 646.794445 94.277133 
Q 644.06092 92.20911 641.35543 91.189134 
Q 638.649941 90.159802 635.930433 90.159802 
Q 630.897943 90.159802 628.171426 93.921545 
Q 625.444909 97.673931 625.444909 104.664036 
Q 625.444909 111.588639 628.073299 115.369097 
Q 630.701689 119.140198 635.537927 119.140198 
Q 636.855626 119.140198 637.984082 118.924974 
Q 639.112537 118.700392 640.009694 118.232514 
L 640.009694 109.754555 
L 634.85805 109.754555 
L 634.85805 102.202995 
L 648 102.202995 
z
" style="fill:#ffa600;"/>
   </g>
   <g id="patch_50">
    <path clip-path="url(#p259dc43e66)" d="M 648 77.670564 
Q 645.383956 79.816567 642.555161 80.902045 
Q 639.726366 82 636.645422 82 
Q 627.457749 82 622.091706 73.865152 
Q 616.725664 65.730304 616.725664 51.818715 
Q 616.725664 37.85722 622.091706 29.734848 
Q 627.457749 21.6 636.645422 21.6 
Q 639.726366 21.6 642.555161 22.697955 
Q 645.383956 23.783433 648 25.929436 
L 648 37.96951 
Q 645.360317 35.124809 642.79943 33.802272 
Q 640.238543 32.479736 637.409749 32.479736 
Q 632.335253 32.479736 629.427662 37.632638 
Q 626.52795 42.773063 626.52795 51.818715 
Q 626.52795 60.826937 629.427662 65.979839 
Q 632.335253 71.120264 637.409749 71.120264 
Q 640.238543 71.120264 642.79943 69.797728 
Q 645.360317 68.462714 648 65.618013 
z
" style="fill:#0000ff;"/>
   </g>
  </g>
 </g>
 <defs>
  <clipPath id="p259dc43e66">
   <rect height="135.9" width="558" x="90" y="21.6"/>
  </clipPath>
 </defs>
</svg>
