<?xml version="1.0" encoding="utf-8" standalone="no"?>
<!DOCTYPE svg PUBLIC "-//W3C//DTD SVG 1.1//EN"
  "http://www.w3.org/Graphics/SVG/1.1/DTD/svg11.dtd">
<!-- Created with matplotlib (https://matplotlib.org/) -->
<svg height="180pt" version="1.1" viewBox="0 0 720 180" width="720pt" xmlns="http://www.w3.org/2000/svg" xmlns:xlink="http://www.w3.org/1999/xlink">
 <metadata>
  <rdf:RDF xmlns:cc="http://creativecommons.org/ns#" xmlns:dc="http://purl.org/dc/elements/1.1/" xmlns:rdf="http://www.w3.org/1999/02/22-rdf-syntax-ns#">
   <cc:Work>
    <dc:type rdf:resource="http://purl.org/dc/dcmitype/StillImage"/>
    <dc:date>2021-08-04T23:34:08.393434</dc:date>
    <dc:format>image/svg+xml</dc:format>
    <dc:creator>
     <cc:Agent>
      <dc:title>Matplotlib v3.3.2, https://matplotlib.org/</dc:title>
     </cc:Agent>
    </dc:creator>
   </cc:Work>
  </rdf:RDF>
 </metadata>
 <defs>
  <style type="text/css">*{stroke-linecap:butt;stroke-linejoin:round;}</style>
 </defs>
 <g id="figure_1">
  <g id="patch_1">
   <path d="M 0 180 
L 720 180 
L 720 0 
L 0 0 
z
" style="fill:none;"/>
  </g>
  <g id="axes_1">
   <g id="line2d_1">
    <path clip-path="url(#p77fbafeb3a)" d="M 90 157.5 
L 648 157.5 
" style="fill:none;stroke:#000000;stroke-linecap:square;stroke-width:0.5;"/>
   </g>
   <g id="patch_2">
    <path clip-path="url(#p77fbafeb3a)" d="M 111.66376 154.74925 
L 99.636153 154.74925 
L 97.737057 157.5 
L 90 157.5 
L 101.049285 142.4 
L 110.225051 142.4 
L 121.274336 157.5 
L 113.543673 157.5 
z
M 101.554432 151.946721 
L 109.726299 151.946721 
L 105.64676 145.940377 
z
" style="fill:#008000;"/>
   </g>
   <g id="patch_3">
    <path clip-path="url(#p77fbafeb3a)" d="M 90 127.3 
L 121.274336 127.3 
L 121.274336 130.244921 
L 110.022848 130.244921 
L 110.022848 142.4 
L 101.273307 142.4 
L 101.273307 130.244921 
L 90 130.244921 
z
" style="fill:#ff0000;"/>
   </g>
   <g id="patch_4">
    <path clip-path="url(#p77fbafeb3a)" d="M 121.274336 124.052923 
Q 118.658292 125.662425 115.829497 126.476534 
Q 113.000702 127.3 109.919759 127.3 
Q 100.732085 127.3 95.366043 121.198864 
Q 90 115.097728 90 104.664036 
Q 90 94.192915 95.366043 88.101136 
Q 100.732085 82 109.919759 82 
Q 113.000702 82 115.829497 82.823466 
Q 118.658292 83.637575 121.274336 85.247077 
L 121.274336 94.277133 
Q 118.634653 92.143607 116.073766 91.151704 
Q 113.51288 90.159802 110.684085 90.159802 
Q 105.609589 90.159802 102.701998 94.024478 
Q 99.802286 97.879798 99.802286 104.664036 
Q 99.802286 111.420202 102.701998 115.284879 
Q 105.609589 119.140198 110.684085 119.140198 
Q 113.51288 119.140198 116.073766 118.148296 
Q 118.634653 117.147036 121.274336 115.01351 
z
" style="fill:#0000ff;"/>
   </g>
   <g id="patch_5">
    <path clip-path="url(#p77fbafeb3a)" d="M 121.274336 76.535179 
Q 118.120268 79.267589 114.727893 80.640033 
Q 111.335518 82 107.718853 82 
Q 99.546312 82 94.773156 73.865152 
Q 90 65.730304 90 51.818715 
Q 90 37.744929 94.857265 29.672464 
Q 99.721538 21.6 108.18145 21.6 
Q 111.440653 21.6 114.426504 22.697955 
Q 117.419364 23.783433 120.068781 25.929436 
L 120.068781 37.96951 
Q 117.335256 35.212146 114.629766 33.852179 
Q 111.924277 32.479736 109.204769 32.479736 
Q 104.172279 32.479736 101.445762 37.495394 
Q 98.719246 42.498575 98.719246 51.818715 
Q 98.719246 61.051518 101.347636 66.09213 
Q 103.976026 71.120264 108.812263 71.120264 
Q 110.129963 71.120264 111.258418 70.833299 
Q 112.386874 70.533857 113.284031 69.910019 
L 113.284031 58.606073 
L 108.132386 58.606073 
L 108.132386 48.537327 
L 121.274336 48.537327 
z
" style="fill:#ffa600;"/>
   </g>
   <g id="patch_6">
    <path clip-path="url(#p77fbafeb3a)" d="M 144.584114 154.74925 
L 132.556507 154.74925 
L 130.657411 157.5 
L 122.920354 157.5 
L 133.969639 142.4 
L 143.145405 142.4 
L 154.19469 157.5 
L 146.464027 157.5 
z
M 134.474786 151.946721 
L 142.646653 151.946721 
L 138.567114 145.940377 
z
" style="fill:#008000;"/>
   </g>
   <g id="patch_7">
    <path clip-path="url(#p77fbafeb3a)" d="M 122.920354 112.2 
L 154.19469 112.2 
L 154.19469 118.089841 
L 142.943202 118.089841 
L 142.943202 142.4 
L 134.193661 142.4 
L 134.193661 118.089841 
L 122.920354 118.089841 
z
" style="fill:#ff0000;"/>
   </g>
   <g id="patch_8">
    <path clip-path="url(#p77fbafeb3a)" d="M 154.19469 105.705846 
Q 151.578646 108.92485 148.749851 110.553068 
Q 145.921056 112.2 142.840113 112.2 
Q 133.652439 112.2 128.286397 99.997728 
Q 122.920354 87.795455 122.920354 66.928073 
Q 122.920354 45.985829 128.286397 33.802272 
Q 133.652439 21.6 142.840113 21.6 
Q 145.921056 21.6 148.749851 23.246932 
Q 151.578646 24.87515 154.19469 28.094154 
L 154.19469 46.154266 
Q 151.555007 41.887213 148.99412 39.903408 
Q 146.433234 37.919603 143.604439 37.919603 
Q 138.529943 37.919603 135.622352 45.648957 
Q 132.72264 53.359595 132.72264 66.928073 
Q 132.72264 80.440405 135.622352 88.169758 
Q 138.529943 95.880397 143.604439 95.880397 
Q 146.433234 95.880397 148.99412 93.896592 
Q 151.555007 91.894071 154.19469 87.627019 
z
" style="fill:#0000ff;"/>
   </g>
   <g id="patch_9">
    <path clip-path="url(#p77fbafeb3a)" d="M 187.115044 152.035179 
Q 183.960976 154.767589 180.568601 156.140033 
Q 177.176226 157.5 173.559561 157.5 
Q 165.38702 157.5 160.613864 149.365152 
Q 155.840708 141.230304 155.840708 127.318715 
Q 155.840708 113.244929 160.697973 105.172464 
Q 165.562246 97.1 174.022158 97.1 
Q 177.281361 97.1 180.267212 98.197955 
Q 183.260072 99.283433 185.909489 101.429436 
L 185.909489 113.46951 
Q 183.175964 110.712146 180.470474 109.352179 
Q 177.764985 107.979736 175.045477 107.979736 
Q 170.012987 107.979736 167.28647 112.995394 
Q 164.559954 117.998575 164.559954 127.318715 
Q 164.559954 136.551518 167.188344 141.59213 
Q 169.816734 146.620264 174.652971 146.620264 
Q 175.970671 146.620264 177.099126 146.333299 
Q 178.227582 146.033857 179.124739 145.410019 
L 179.124739 134.106073 
L 173.973094 134.106073 
L 173.973094 124.037327 
L 187.115044 124.037327 
z
" style="fill:#ffa600;"/>
   </g>
   <g id="patch_10">
    <path clip-path="url(#p77fbafeb3a)" d="M 177.504468 83.346249 
L 165.476861 83.346249 
L 163.577765 97.1 
L 155.840708 97.1 
L 166.889993 21.6 
L 176.065759 21.6 
L 187.115044 97.1 
L 179.384381 97.1 
z
M 167.39514 69.333605 
L 175.567007 69.333605 
L 171.487467 39.301886 
z
" style="fill:#008000;"/>
   </g>
   <g id="patch_11">
    <path clip-path="url(#p77fbafeb3a)" d="M 210.424822 154.74925 
L 198.397215 154.74925 
L 196.498119 157.5 
L 188.761062 157.5 
L 199.810347 142.4 
L 208.986113 142.4 
L 220.035398 157.5 
L 212.304735 157.5 
z
M 200.315494 151.946721 
L 208.487361 151.946721 
L 204.407821 145.940377 
z
" style="fill:#008000;"/>
   </g>
   <g id="patch_12">
    <path clip-path="url(#p77fbafeb3a)" d="M 188.761062 112.2 
L 220.035398 112.2 
L 220.035398 118.089841 
L 208.78391 118.089841 
L 208.78391 142.4 
L 200.034369 142.4 
L 200.034369 118.089841 
L 188.761062 118.089841 
z
" style="fill:#ff0000;"/>
   </g>
   <g id="patch_13">
    <path clip-path="url(#p77fbafeb3a)" d="M 220.035398 108.952923 
Q 217.419354 110.562425 214.590559 111.376534 
Q 211.761764 112.2 208.680821 112.2 
Q 199.493147 112.2 194.127105 106.098864 
Q 188.761062 99.997728 188.761062 89.564036 
Q 188.761062 79.092915 194.127105 73.001136 
Q 199.493147 66.9 208.680821 66.9 
Q 211.761764 66.9 214.590559 67.723466 
Q 217.419354 68.537575 220.035398 70.147077 
L 220.035398 79.177133 
Q 217.395715 77.043607 214.834828 76.051704 
Q 212.273942 75.059802 209.445147 75.059802 
Q 204.370651 75.059802 201.46306 78.924478 
Q 198.563348 82.779798 198.563348 89.564036 
Q 198.563348 96.320202 201.46306 100.184879 
Q 204.370651 104.040198 209.445147 104.040198 
Q 212.273942 104.040198 214.834828 103.048296 
Q 217.395715 102.047036 220.035398 99.91351 
z
" style="fill:#0000ff;"/>
   </g>
   <g id="patch_14">
    <path clip-path="url(#p77fbafeb3a)" d="M 220.035398 62.801384 
Q 216.88133 64.850692 213.488955 65.880025 
Q 210.09658 66.9 206.479915 66.9 
Q 198.307374 66.9 193.534218 60.798864 
Q 188.761062 54.697728 188.761062 44.264036 
Q 188.761062 33.708697 193.618327 27.654348 
Q 198.4826 21.6 206.942512 21.6 
Q 210.201715 21.6 213.187566 22.423466 
Q 216.180426 23.237575 218.829843 24.847077 
L 218.829843 33.877133 
Q 216.096318 31.80911 213.390828 30.789134 
Q 210.685339 29.759802 207.965831 29.759802 
Q 202.933341 29.759802 200.206824 33.521545 
Q 197.480308 37.273931 197.480308 44.264036 
Q 197.480308 51.188639 200.108698 54.969097 
Q 202.737088 58.740198 207.573325 58.740198 
Q 208.891025 58.740198 210.01948 58.524974 
Q 211.147936 58.300392 212.045093 57.832514 
L 212.045093 49.354555 
L 206.893448 49.354555 
L 206.893448 41.802995 
L 220.035398 41.802995 
z
" style="fill:#ffa600;"/>
   </g>
   <g id="patch_15">
    <path clip-path="url(#p77fbafeb3a)" d="M 252.955752 156.133795 
Q 249.801684 156.816897 246.409309 157.160008 
Q 243.016934 157.5 239.400269 157.5 
Q 231.227728 157.5 226.454572 155.466288 
Q 221.681416 153.432576 221.681416 149.954679 
Q 221.681416 146.436232 226.538681 144.418116 
Q 231.402954 142.4 239.862866 142.4 
Q 243.122069 142.4 246.10792 142.674489 
Q 249.10078 142.945858 251.750197 143.482359 
L 251.750197 146.492378 
Q 249.016672 145.803037 246.311182 145.463045 
Q 243.605693 145.119934 240.886185 145.119934 
Q 235.853695 145.119934 233.127178 146.373848 
Q 230.400662 147.624644 230.400662 149.954679 
Q 230.400662 152.26288 233.029052 153.523032 
Q 235.657442 154.780066 240.493679 154.780066 
Q 241.811379 154.780066 242.939834 154.708325 
Q 244.06829 154.633464 244.965447 154.477505 
L 244.965447 151.651518 
L 239.813802 151.651518 
L 239.813802 149.134332 
L 252.955752 149.134332 
z
" style="fill:#ffa600;"/>
   </g>
   <g id="patch_16">
    <path clip-path="url(#p77fbafeb3a)" d="M 252.955752 139.152923 
Q 250.339708 140.762425 247.510913 141.576534 
Q 244.682118 142.4 241.601175 142.4 
Q 232.413501 142.4 227.047459 136.298864 
Q 221.681416 130.197728 221.681416 119.764036 
Q 221.681416 109.292915 227.047459 103.201136 
Q 232.413501 97.1 241.601175 97.1 
Q 244.682118 97.1 247.510913 97.923466 
Q 250.339708 98.737575 252.955752 100.347077 
L 252.955752 109.377133 
Q 250.316069 107.243607 247.755182 106.251704 
Q 245.194296 105.259802 242.365501 105.259802 
Q 237.291005 105.259802 234.383414 109.124478 
Q 231.483702 112.979798 231.483702 119.764036 
Q 231.483702 126.520202 234.383414 130.384879 
Q 237.291005 134.240198 242.365501 134.240198 
Q 245.194296 134.240198 247.755182 133.248296 
Q 250.316069 132.247036 252.955752 130.11351 
z
" style="fill:#0000ff;"/>
   </g>
   <g id="patch_17">
    <path clip-path="url(#p77fbafeb3a)" d="M 243.345176 83.346249 
L 231.317569 83.346249 
L 229.418473 97.1 
L 221.681416 97.1 
L 232.730701 21.6 
L 241.906467 21.6 
L 252.955752 97.1 
L 245.225089 97.1 
z
M 233.235848 69.333605 
L 241.407715 69.333605 
L 237.328175 39.301886 
z
" style="fill:#008000;"/>
   </g>
   <g id="patch_18">
    <path clip-path="url(#p77fbafeb3a)" d="M 276.26553 132.743249 
L 264.237923 132.743249 
L 262.338827 157.5 
L 254.60177 157.5 
L 265.651055 21.6 
L 274.826821 21.6 
L 285.876106 157.5 
L 278.145443 157.5 
z
M 266.156202 107.520489 
L 274.328069 107.520489 
L 270.248529 53.463395 
z
" style="fill:#008000;"/>
   </g>
   <g id="patch_19">
    <path clip-path="url(#p77fbafeb3a)" d="M 287.522124 142.4 
L 318.79646 142.4 
L 318.79646 145.344921 
L 307.544972 145.344921 
L 307.544972 157.5 
L 298.795431 157.5 
L 298.795431 145.344921 
L 287.522124 145.344921 
z
" style="fill:#ff0000;"/>
   </g>
   <g id="patch_20">
    <path clip-path="url(#p77fbafeb3a)" d="M 309.185884 120.393999 
L 297.158277 120.393999 
L 295.259181 142.4 
L 287.522124 142.4 
L 298.571409 21.6 
L 307.747175 21.6 
L 318.79646 142.4 
L 311.065797 142.4 
z
M 299.076556 97.973768 
L 307.248423 97.973768 
L 303.168883 49.923018 
z
" style="fill:#008000;"/>
   </g>
   <g id="patch_21">
    <path clip-path="url(#p77fbafeb3a)" d="M 320.442478 142.4 
L 351.716814 142.4 
L 351.716814 145.344921 
L 340.465326 145.344921 
L 340.465326 157.5 
L 331.715785 157.5 
L 331.715785 145.344921 
L 320.442478 145.344921 
z
" style="fill:#ff0000;"/>
   </g>
   <g id="patch_22">
    <path clip-path="url(#p77fbafeb3a)" d="M 351.716814 140.235282 
Q 349.10077 141.308283 346.271975 141.851023 
Q 343.44318 142.4 340.362237 142.4 
Q 331.174563 142.4 325.80852 138.332576 
Q 320.442478 134.265152 320.442478 127.309358 
Q 320.442478 120.32861 325.80852 116.267424 
Q 331.174563 112.2 340.362237 112.2 
Q 343.44318 112.2 346.271975 112.748977 
Q 349.10077 113.291717 351.716814 114.364718 
L 351.716814 120.384755 
Q 349.077131 118.962404 346.516244 118.301136 
Q 343.955358 117.639868 341.126563 117.639868 
Q 336.052067 117.639868 333.144476 120.216319 
Q 330.244764 122.786532 330.244764 127.309358 
Q 330.244764 131.813468 333.144476 134.389919 
Q 336.052067 136.960132 341.126563 136.960132 
Q 343.955358 136.960132 346.516244 136.298864 
Q 349.077131 135.631357 351.716814 134.209006 
z
" style="fill:#0000ff;"/>
   </g>
   <g id="patch_23">
    <path clip-path="url(#p77fbafeb3a)" d="M 351.716814 104.002768 
Q 348.562746 108.101384 345.170371 110.16005 
Q 341.777996 112.2 338.161331 112.2 
Q 329.98879 112.2 325.215634 99.997728 
Q 320.442478 87.795455 320.442478 66.928073 
Q 320.442478 45.817393 325.299743 33.708697 
Q 330.164016 21.6 338.623928 21.6 
Q 341.883131 21.6 344.868982 23.246932 
Q 347.861842 24.87515 350.511259 28.094154 
L 350.511259 46.154266 
Q 347.777734 42.018219 345.072244 39.978269 
Q 342.366755 37.919603 339.647247 37.919603 
Q 334.614757 37.919603 331.88824 45.44309 
Q 329.161724 52.947862 329.161724 66.928073 
Q 329.161724 80.777277 331.790114 88.338195 
Q 334.418504 95.880397 339.254741 95.880397 
Q 340.572441 95.880397 341.700896 95.449948 
Q 342.829351 95.000785 343.726509 94.065028 
L 343.726509 77.10911 
L 338.574864 77.10911 
L 338.574864 62.00599 
L 351.716814 62.00599 
z
" style="fill:#ffa600;"/>
   </g>
   <g id="patch_24">
    <path clip-path="url(#p77fbafeb3a)" d="M 384.637168 156.417641 
Q 382.021124 156.954142 379.192329 157.225511 
Q 376.363534 157.5 373.282591 157.5 
Q 364.094917 157.5 358.728874 155.466288 
Q 353.362832 153.432576 353.362832 149.954679 
Q 353.362832 146.464305 358.728874 144.433712 
Q 364.094917 142.4 373.282591 142.4 
Q 376.363534 142.4 379.192329 142.674489 
Q 382.021124 142.945858 384.637168 143.482359 
L 384.637168 146.492378 
Q 381.997485 145.781202 379.436598 145.450568 
Q 376.875712 145.119934 374.046917 145.119934 
Q 368.972421 145.119934 366.06483 146.408159 
Q 363.165118 147.693266 363.165118 149.954679 
Q 363.165118 152.206734 366.06483 153.49496 
Q 368.972421 154.780066 374.046917 154.780066 
Q 376.875712 154.780066 379.436598 154.449432 
Q 381.997485 154.115679 384.637168 153.404503 
z
" style="fill:#0000ff;"/>
   </g>
   <g id="patch_25">
    <path clip-path="url(#p77fbafeb3a)" d="M 384.637168 139.667589 
Q 381.4831 141.033795 378.090725 141.720017 
Q 374.698349 142.4 371.081685 142.4 
Q 362.909144 142.4 358.135988 138.332576 
Q 353.362832 134.265152 353.362832 127.309358 
Q 353.362832 120.272464 358.220097 116.236232 
Q 363.08437 112.2 371.544282 112.2 
Q 374.803485 112.2 377.789336 112.748977 
Q 380.782196 113.291717 383.431613 114.364718 
L 383.431613 120.384755 
Q 380.698088 119.006073 377.992598 118.32609 
Q 375.287109 117.639868 372.567601 117.639868 
Q 367.535111 117.639868 364.808594 120.147697 
Q 362.082078 122.649287 362.082078 127.309358 
Q 362.082078 131.925759 364.710468 134.446065 
Q 367.338858 136.960132 372.175095 136.960132 
Q 373.492795 136.960132 374.62125 136.816649 
Q 375.749705 136.666928 376.646863 136.355009 
L 376.646863 130.703037 
L 371.495218 130.703037 
L 371.495218 125.668663 
L 384.637168 125.668663 
z
" style="fill:#ffa600;"/>
   </g>
   <g id="patch_26">
    <path clip-path="url(#p77fbafeb3a)" d="M 375.026592 95.695499 
L 362.998985 95.695499 
L 361.099889 112.2 
L 353.362832 112.2 
L 364.412117 21.6 
L 373.587883 21.6 
L 384.637168 112.2 
L 376.906505 112.2 
z
M 364.917264 78.880326 
L 373.089131 78.880326 
L 369.009591 42.842263 
z
" style="fill:#008000;"/>
   </g>
   <g id="patch_27">
    <path clip-path="url(#p77fbafeb3a)" d="M 417.557522 156.417641 
Q 414.941478 156.954142 412.112683 157.225511 
Q 409.283888 157.5 406.202945 157.5 
Q 397.015271 157.5 391.649228 155.466288 
Q 386.283186 153.432576 386.283186 149.954679 
Q 386.283186 146.464305 391.649228 144.433712 
Q 397.015271 142.4 406.202945 142.4 
Q 409.283888 142.4 412.112683 142.674489 
Q 414.941478 142.945858 417.557522 143.482359 
L 417.557522 146.492378 
Q 414.917839 145.781202 412.356952 145.450568 
Q 409.796066 145.119934 406.967271 145.119934 
Q 401.892775 145.119934 398.985184 146.408159 
Q 396.085472 147.693266 396.085472 149.954679 
Q 396.085472 152.206734 398.985184 153.49496 
Q 401.892775 154.780066 406.967271 154.780066 
Q 409.796066 154.780066 412.356952 154.449432 
Q 414.917839 154.115679 417.557522 153.404503 
z
" style="fill:#0000ff;"/>
   </g>
   <g id="patch_28">
    <path clip-path="url(#p77fbafeb3a)" d="M 386.283186 21.6 
L 417.557522 21.6 
L 417.557522 45.159366 
L 406.306034 45.159366 
L 406.306034 142.4 
L 397.556493 142.4 
L 397.556493 45.159366 
L 386.283186 45.159366 
z
" style="fill:#ff0000;"/>
   </g>
   <g id="patch_29">
    <path clip-path="url(#p77fbafeb3a)" d="M 450.477876 145.204152 
Q 447.323808 151.352076 443.931433 154.440074 
Q 440.539057 157.5 436.922393 157.5 
Q 428.749852 157.5 423.976696 139.196592 
Q 419.20354 120.893183 419.20354 89.592109 
Q 419.20354 57.92609 424.060805 39.763045 
Q 428.925078 21.6 437.384989 21.6 
Q 440.644193 21.6 443.630044 24.070399 
Q 446.622904 26.512725 449.272321 31.341231 
L 449.272321 58.431398 
Q 446.538796 52.227329 443.833306 49.167403 
Q 441.127817 46.079405 438.408309 46.079405 
Q 433.375819 46.079405 430.649302 57.364635 
Q 427.922786 68.621793 427.922786 89.592109 
Q 427.922786 110.365916 430.551176 121.707292 
Q 433.179565 133.020595 438.015803 133.020595 
Q 439.333503 133.020595 440.461958 132.374923 
Q 441.590413 131.701177 442.487571 130.297542 
L 442.487571 104.863665 
L 437.335926 104.863665 
L 437.335926 82.208986 
L 450.477876 82.208986 
z
" style="fill:#ffa600;"/>
   </g>
   <g id="patch_30">
    <path clip-path="url(#p77fbafeb3a)" d="M 452.123894 97.1 
L 483.39823 97.1 
L 483.39823 108.879683 
L 472.146742 108.879683 
L 472.146742 157.5 
L 463.397201 157.5 
L 463.397201 108.879683 
L 452.123894 108.879683 
z
" style="fill:#ff0000;"/>
   </g>
   <g id="patch_31">
    <path clip-path="url(#p77fbafeb3a)" d="M 483.39823 90.268973 
Q 480.244162 93.684487 476.851787 95.400041 
Q 473.459411 97.1 469.842747 97.1 
Q 461.670206 97.1 456.89705 86.93144 
Q 452.123894 76.76288 452.123894 59.373394 
Q 452.123894 41.781161 456.981158 31.69058 
Q 461.845432 21.6 470.305343 21.6 
Q 473.564547 21.6 476.550398 22.972444 
Q 479.543258 24.329291 482.192675 27.011795 
L 482.192675 42.061888 
Q 479.45915 38.615183 476.75366 36.915224 
Q 474.048171 35.199669 471.328663 35.199669 
Q 466.296173 35.199669 463.569656 41.469242 
Q 460.84314 47.723218 460.84314 59.373394 
Q 460.84314 70.914398 463.471529 77.215162 
Q 466.099919 83.500331 470.936157 83.500331 
Q 472.253857 83.500331 473.382312 83.141624 
Q 474.510767 82.767321 475.407925 81.987523 
L 475.407925 67.857591 
L 470.25628 67.857591 
L 470.25628 55.271659 
L 483.39823 55.271659 
z
" style="fill:#ffa600;"/>
   </g>
   <g id="patch_32">
    <path clip-path="url(#p77fbafeb3a)" d="M 485.044248 142.4 
L 516.318584 142.4 
L 516.318584 145.344921 
L 505.067096 145.344921 
L 505.067096 157.5 
L 496.317555 157.5 
L 496.317555 145.344921 
L 485.044248 145.344921 
z
" style="fill:#ff0000;"/>
   </g>
   <g id="patch_33">
    <path clip-path="url(#p77fbafeb3a)" d="M 516.318584 131.470357 
Q 513.164516 136.935179 509.772141 139.680066 
Q 506.379765 142.4 502.763101 142.4 
Q 494.59056 142.4 489.817404 126.130304 
Q 485.044248 109.860607 485.044248 82.03743 
Q 485.044248 53.889857 489.901512 37.744929 
Q 494.765786 21.6 503.225697 21.6 
Q 506.484901 21.6 509.470752 23.79591 
Q 512.463612 25.966866 515.113029 30.258872 
L 515.113029 54.339021 
Q 512.379504 48.824293 509.674014 46.104359 
Q 506.968525 43.359471 504.249017 43.359471 
Q 499.216527 43.359471 496.49001 53.390787 
Q 493.763493 63.397149 493.763493 82.03743 
Q 493.763493 100.503037 496.391883 110.584259 
Q 499.020273 120.640529 503.856511 120.640529 
Q 505.174211 120.640529 506.302666 120.066598 
Q 507.431121 119.467713 508.328279 118.220037 
L 508.328279 95.612146 
L 503.176634 95.612146 
L 503.176634 75.474654 
L 516.318584 75.474654 
z
" style="fill:#ffa600;"/>
   </g>
   <g id="patch_34">
    <path clip-path="url(#p77fbafeb3a)" d="M 549.238938 155.335282 
Q 546.622894 156.408283 543.794099 156.951023 
Q 540.965304 157.5 537.88436 157.5 
Q 528.696687 157.5 523.330644 153.432576 
Q 517.964602 149.365152 517.964602 142.409358 
Q 517.964602 135.42861 523.330644 131.367424 
Q 528.696687 127.3 537.88436 127.3 
Q 540.965304 127.3 543.794099 127.848977 
Q 546.622894 128.391717 549.238938 129.464718 
L 549.238938 135.484755 
Q 546.599255 134.062404 544.038368 133.401136 
Q 541.477481 132.739868 538.648687 132.739868 
Q 533.574191 132.739868 530.6666 135.316319 
Q 527.766888 137.886532 527.766888 142.409358 
Q 527.766888 146.913468 530.6666 149.489919 
Q 533.574191 152.060132 538.648687 152.060132 
Q 541.477481 152.060132 544.038368 151.398864 
Q 546.599255 150.731357 549.238938 149.309006 
z
" style="fill:#0000ff;"/>
   </g>
   <g id="patch_35">
    <path clip-path="url(#p77fbafeb3a)" d="M 549.238938 124.567589 
Q 546.08487 125.933795 542.692495 126.620017 
Q 539.300119 127.3 535.683455 127.3 
Q 527.510914 127.3 522.737758 123.232576 
Q 517.964602 119.165152 517.964602 112.209358 
Q 517.964602 105.172464 522.821866 101.136232 
Q 527.68614 97.1 536.146051 97.1 
Q 539.405255 97.1 542.391106 97.648977 
Q 545.383966 98.191717 548.033383 99.264718 
L 548.033383 105.284755 
Q 545.299858 103.906073 542.594368 103.22609 
Q 539.888879 102.539868 537.169371 102.539868 
Q 532.136881 102.539868 529.410364 105.047697 
Q 526.683847 107.549287 526.683847 112.209358 
Q 526.683847 116.825759 529.312237 119.346065 
Q 531.940627 121.860132 536.776865 121.860132 
Q 538.094565 121.860132 539.22302 121.716649 
Q 540.351475 121.566928 541.248633 121.255009 
L 541.248633 115.603037 
L 536.096988 115.603037 
L 536.096988 110.568663 
L 549.238938 110.568663 
z
" style="fill:#ffa600;"/>
   </g>
   <g id="patch_36">
    <path clip-path="url(#p77fbafeb3a)" d="M 539.628362 83.346249 
L 527.600755 83.346249 
L 525.701659 97.1 
L 517.964602 97.1 
L 529.013887 21.6 
L 538.189653 21.6 
L 549.238938 97.1 
L 541.508275 97.1 
z
M 529.519034 69.333605 
L 537.690901 69.333605 
L 533.611361 39.301886 
z
" style="fill:#008000;"/>
   </g>
   <g id="patch_37">
    <path clip-path="url(#p77fbafeb3a)" d="M 582.159292 156.417641 
Q 579.543248 156.954142 576.714453 157.225511 
Q 573.885658 157.5 570.804714 157.5 
Q 561.617041 157.5 556.250998 155.466288 
Q 550.884956 153.432576 550.884956 149.954679 
Q 550.884956 146.464305 556.250998 144.433712 
Q 561.617041 142.4 570.804714 142.4 
Q 573.885658 142.4 576.714453 142.674489 
Q 579.543248 142.945858 582.159292 143.482359 
L 582.159292 146.492378 
Q 579.519609 145.781202 576.958722 145.450568 
Q 574.397835 145.119934 571.569041 145.119934 
Q 566.494545 145.119934 563.586954 146.408159 
Q 560.687242 147.693266 560.687242 149.954679 
Q 560.687242 152.206734 563.586954 153.49496 
Q 566.494545 154.780066 571.569041 154.780066 
Q 574.397835 154.780066 576.958722 154.449432 
Q 579.519609 154.115679 582.159292 153.404503 
z
" style="fill:#0000ff;"/>
   </g>
   <g id="patch_38">
    <path clip-path="url(#p77fbafeb3a)" d="M 582.159292 141.033795 
Q 579.005224 141.716897 575.612849 142.060008 
Q 572.220473 142.4 568.603809 142.4 
Q 560.431268 142.4 555.658112 140.366288 
Q 550.884956 138.332576 550.884956 134.854679 
Q 550.884956 131.336232 555.74222 129.318116 
Q 560.606494 127.3 569.066405 127.3 
Q 572.325609 127.3 575.31146 127.574489 
Q 578.30432 127.845858 580.953737 128.382359 
L 580.953737 131.392378 
Q 578.220212 130.703037 575.514722 130.363045 
Q 572.809233 130.019934 570.089725 130.019934 
Q 565.057235 130.019934 562.330718 131.273848 
Q 559.604201 132.524644 559.604201 134.854679 
Q 559.604201 137.16288 562.232591 138.423032 
Q 564.860981 139.680066 569.697219 139.680066 
Q 571.014919 139.680066 572.143374 139.608325 
Q 573.271829 139.533464 574.168986 139.377505 
L 574.168986 136.551518 
L 569.017342 136.551518 
L 569.017342 134.034332 
L 582.159292 134.034332 
z
" style="fill:#ffa600;"/>
   </g>
   <g id="patch_39">
    <path clip-path="url(#p77fbafeb3a)" d="M 572.548716 121.7985 
L 560.521109 121.7985 
L 558.622013 127.3 
L 550.884956 127.3 
L 561.934241 97.1 
L 571.110007 97.1 
L 582.159292 127.3 
L 574.428629 127.3 
z
M 562.439387 116.193442 
L 570.611255 116.193442 
L 566.531715 104.180754 
z
" style="fill:#008000;"/>
   </g>
   <g id="patch_40">
    <path clip-path="url(#p77fbafeb3a)" d="M 550.884956 21.6 
L 582.159292 21.6 
L 582.159292 36.324604 
L 570.907804 36.324604 
L 570.907804 97.1 
L 562.158263 97.1 
L 562.158263 36.324604 
L 550.884956 36.324604 
z
" style="fill:#ff0000;"/>
   </g>
   <g id="patch_41">
    <path clip-path="url(#p77fbafeb3a)" d="M 605.46907 149.24775 
L 593.441463 149.24775 
L 591.542367 157.5 
L 583.80531 157.5 
L 594.854595 112.2 
L 604.030361 112.2 
L 615.079646 157.5 
L 607.348983 157.5 
z
M 595.359741 140.840163 
L 603.531609 140.840163 
L 599.452069 122.821132 
z
" style="fill:#008000;"/>
   </g>
   <g id="patch_42">
    <path clip-path="url(#p77fbafeb3a)" d="M 615.079646 108.952923 
Q 612.463602 110.562425 609.634807 111.376534 
Q 606.806012 112.2 603.725068 112.2 
Q 594.537395 112.2 589.171352 106.098864 
Q 583.80531 99.997728 583.80531 89.564036 
Q 583.80531 79.092915 589.171352 73.001136 
Q 594.537395 66.9 603.725068 66.9 
Q 606.806012 66.9 609.634807 67.723466 
Q 612.463602 68.537575 615.079646 70.147077 
L 615.079646 79.177133 
Q 612.439963 77.043607 609.879076 76.051704 
Q 607.318189 75.059802 604.489395 75.059802 
Q 599.414899 75.059802 596.507308 78.924478 
Q 593.607596 82.779798 593.607596 89.564036 
Q 593.607596 96.320202 596.507308 100.184879 
Q 599.414899 104.040198 604.489395 104.040198 
Q 607.318189 104.040198 609.879076 103.048296 
Q 612.439963 102.047036 615.079646 99.91351 
z
" style="fill:#0000ff;"/>
   </g>
   <g id="patch_43">
    <path clip-path="url(#p77fbafeb3a)" d="M 583.80531 21.6 
L 615.079646 21.6 
L 615.079646 30.434762 
L 603.828158 30.434762 
L 603.828158 66.9 
L 595.078617 66.9 
L 595.078617 30.434762 
L 583.80531 30.434762 
z
" style="fill:#ff0000;"/>
   </g>
   <g id="patch_44">
    <path clip-path="url(#p77fbafeb3a)" d="M 648 156.133795 
Q 644.845932 156.816897 641.453557 157.160008 
Q 638.061181 157.5 634.444517 157.5 
Q 626.271976 157.5 621.49882 155.466288 
Q 616.725664 153.432576 616.725664 149.954679 
Q 616.725664 146.436232 621.582928 144.418116 
Q 626.447202 142.4 634.907113 142.4 
Q 638.166317 142.4 641.152168 142.674489 
Q 644.145028 142.945858 646.794445 143.482359 
L 646.794445 146.492378 
Q 644.06092 145.803037 641.35543 145.463045 
Q 638.649941 145.119934 635.930433 145.119934 
Q 630.897943 145.119934 628.171426 146.373848 
Q 625.444909 147.624644 625.444909 149.954679 
Q 625.444909 152.26288 628.073299 153.523032 
Q 630.701689 154.780066 635.537927 154.780066 
Q 636.855626 154.780066 637.984082 154.708325 
Q 639.112537 154.633464 640.009694 154.477505 
L 640.009694 151.651518 
L 634.85805 151.651518 
L 634.85805 149.134332 
L 648 149.134332 
z
" style="fill:#ffa600;"/>
   </g>
   <g id="patch_45">
    <path clip-path="url(#p77fbafeb3a)" d="M 616.725664 112.2 
L 648 112.2 
L 648 118.089841 
L 636.748512 118.089841 
L 636.748512 142.4 
L 627.998971 142.4 
L 627.998971 118.089841 
L 616.725664 118.089841 
z
" style="fill:#ff0000;"/>
   </g>
   <g id="patch_46">
    <path clip-path="url(#p77fbafeb3a)" d="M 638.389424 103.94775 
L 626.361817 103.94775 
L 624.462721 112.2 
L 616.725664 112.2 
L 627.774949 66.9 
L 636.950715 66.9 
L 648 112.2 
L 640.269337 112.2 
z
M 628.280095 95.540163 
L 636.451963 95.540163 
L 632.372423 77.521132 
z
" style="fill:#008000;"/>
   </g>
   <g id="patch_47">
    <path clip-path="url(#p77fbafeb3a)" d="M 648 63.652923 
Q 645.383956 65.262425 642.555161 66.076534 
Q 639.726366 66.9 636.645422 66.9 
Q 627.457749 66.9 622.091706 60.798864 
Q 616.725664 54.697728 616.725664 44.264036 
Q 616.725664 33.792915 622.091706 27.701136 
Q 627.457749 21.6 636.645422 21.6 
Q 639.726366 21.6 642.555161 22.423466 
Q 645.383956 23.237575 648 24.847077 
L 648 33.877133 
Q 645.360317 31.743607 642.79943 30.751704 
Q 640.238543 29.759802 637.409749 29.759802 
Q 632.335253 29.759802 629.427662 33.624478 
Q 626.52795 37.479798 626.52795 44.264036 
Q 626.52795 51.020202 629.427662 54.884879 
Q 632.335253 58.740198 637.409749 58.740198 
Q 640.238543 58.740198 642.79943 57.748296 
Q 645.360317 56.747036 648 54.61351 
z
" style="fill:#0000ff;"/>
   </g>
  </g>
 </g>
 <defs>
  <clipPath id="p77fbafeb3a">
   <rect height="135.9" width="558" x="90" y="21.6"/>
  </clipPath>
 </defs>
</svg>
