<?xml version="1.0" encoding="utf-8" standalone="no"?>
<!DOCTYPE svg PUBLIC "-//W3C//DTD SVG 1.1//EN"
  "http://www.w3.org/Graphics/SVG/1.1/DTD/svg11.dtd">
<!-- Created with matplotlib (https://matplotlib.org/) -->
<svg height="180pt" version="1.1" viewBox="0 0 720 180" width="720pt" xmlns="http://www.w3.org/2000/svg" xmlns:xlink="http://www.w3.org/1999/xlink">
 <metadata>
  <rdf:RDF xmlns:cc="http://creativecommons.org/ns#" xmlns:dc="http://purl.org/dc/elements/1.1/" xmlns:rdf="http://www.w3.org/1999/02/22-rdf-syntax-ns#">
   <cc:Work>
    <dc:type rdf:resource="http://purl.org/dc/dcmitype/StillImage"/>
    <dc:date>2021-08-04T23:33:03.399680</dc:date>
    <dc:format>image/svg+xml</dc:format>
    <dc:creator>
     <cc:Agent>
      <dc:title>Matplotlib v3.3.2, https://matplotlib.org/</dc:title>
     </cc:Agent>
    </dc:creator>
   </cc:Work>
  </rdf:RDF>
 </metadata>
 <defs>
  <style type="text/css">*{stroke-linecap:butt;stroke-linejoin:round;}</style>
 </defs>
 <g id="figure_1">
  <g id="patch_1">
   <path d="M 0 180 
L 720 180 
L 720 0 
L 0 0 
z
" style="fill:none;"/>
  </g>
  <g id="axes_1">
   <g id="line2d_1">
    <path clip-path="url(#p91c3a28801)" d="M 90 157.5 
L 648 157.5 
" style="fill:none;stroke:#000000;stroke-linecap:square;stroke-width:0.5;"/>
   </g>
   <g id="patch_2">
    <path clip-path="url(#p91c3a28801)" d="M 90 142.4 
L 121.274336 142.4 
L 121.274336 145.344921 
L 110.022848 145.344921 
L 110.022848 157.5 
L 101.273307 157.5 
L 101.273307 145.344921 
L 90 145.344921 
z
" style="fill:#ff0000;"/>
   </g>
   <g id="patch_3">
    <path clip-path="url(#p91c3a28801)" d="M 111.66376 136.8985 
L 99.636153 136.8985 
L 97.737057 142.4 
L 90 142.4 
L 101.049285 112.2 
L 110.225051 112.2 
L 121.274336 142.4 
L 113.543673 142.4 
z
M 101.554432 131.293442 
L 109.726299 131.293442 
L 105.64676 119.280754 
z
" style="fill:#008000;"/>
   </g>
   <g id="patch_4">
    <path clip-path="url(#p91c3a28801)" d="M 121.274336 109.467589 
Q 118.120268 110.833795 114.727893 111.520017 
Q 111.335518 112.2 107.718853 112.2 
Q 99.546312 112.2 94.773156 108.132576 
Q 90 104.065152 90 97.109358 
Q 90 90.072464 94.857265 86.036232 
Q 99.721538 82 108.18145 82 
Q 111.440653 82 114.426504 82.548977 
Q 117.419364 83.091717 120.068781 84.164718 
L 120.068781 90.184755 
Q 117.335256 88.806073 114.629766 88.12609 
Q 111.924277 87.439868 109.204769 87.439868 
Q 104.172279 87.439868 101.445762 89.947697 
Q 98.719246 92.449287 98.719246 97.109358 
Q 98.719246 101.725759 101.347636 104.246065 
Q 103.976026 106.760132 108.812263 106.760132 
Q 110.129963 106.760132 111.258418 106.616649 
Q 112.386874 106.466928 113.284031 106.155009 
L 113.284031 100.503037 
L 108.132386 100.503037 
L 108.132386 95.468663 
L 121.274336 95.468663 
z
" style="fill:#ffa600;"/>
   </g>
   <g id="patch_5">
    <path clip-path="url(#p91c3a28801)" d="M 121.274336 77.670564 
Q 118.658292 79.816567 115.829497 80.902045 
Q 113.000702 82 109.919759 82 
Q 100.732085 82 95.366043 73.865152 
Q 90 65.730304 90 51.818715 
Q 90 37.85722 95.366043 29.734848 
Q 100.732085 21.6 109.919759 21.6 
Q 113.000702 21.6 115.829497 22.697955 
Q 118.658292 23.783433 121.274336 25.929436 
L 121.274336 37.96951 
Q 118.634653 35.124809 116.073766 33.802272 
Q 113.51288 32.479736 110.684085 32.479736 
Q 105.609589 32.479736 102.701998 37.632638 
Q 99.802286 42.773063 99.802286 51.818715 
Q 99.802286 60.826937 102.701998 65.979839 
Q 105.609589 71.120264 110.684085 71.120264 
Q 113.51288 71.120264 116.073766 69.797728 
Q 118.634653 68.462714 121.274336 65.618013 
z
" style="fill:#0000ff;"/>
   </g>
   <g id="patch_6">
    <path clip-path="url(#p91c3a28801)" d="M 154.19469 156.417641 
Q 151.578646 156.954142 148.749851 157.225511 
Q 145.921056 157.5 142.840113 157.5 
Q 133.652439 157.5 128.286397 155.466288 
Q 122.920354 153.432576 122.920354 149.954679 
Q 122.920354 146.464305 128.286397 144.433712 
Q 133.652439 142.4 142.840113 142.4 
Q 145.921056 142.4 148.749851 142.674489 
Q 151.578646 142.945858 154.19469 143.482359 
L 154.19469 146.492378 
Q 151.555007 145.781202 148.99412 145.450568 
Q 146.433234 145.119934 143.604439 145.119934 
Q 138.529943 145.119934 135.622352 146.408159 
Q 132.72264 147.693266 132.72264 149.954679 
Q 132.72264 152.206734 135.622352 153.49496 
Q 138.529943 154.780066 143.604439 154.780066 
Q 146.433234 154.780066 148.99412 154.449432 
Q 151.555007 154.115679 154.19469 153.404503 
z
" style="fill:#0000ff;"/>
   </g>
   <g id="patch_7">
    <path clip-path="url(#p91c3a28801)" d="M 144.584114 136.8985 
L 132.556507 136.8985 
L 130.657411 142.4 
L 122.920354 142.4 
L 133.969639 112.2 
L 143.145405 112.2 
L 154.19469 142.4 
L 146.464027 142.4 
z
M 134.474786 131.293442 
L 142.646653 131.293442 
L 138.567114 119.280754 
z
" style="fill:#008000;"/>
   </g>
   <g id="patch_8">
    <path clip-path="url(#p91c3a28801)" d="M 154.19469 104.002768 
Q 151.040622 108.101384 147.648247 110.16005 
Q 144.255872 112.2 140.639207 112.2 
Q 132.466666 112.2 127.69351 99.997728 
Q 122.920354 87.795455 122.920354 66.928073 
Q 122.920354 45.817393 127.777619 33.708697 
Q 132.641892 21.6 141.101804 21.6 
Q 144.361007 21.6 147.346858 23.246932 
Q 150.339718 24.87515 152.989135 28.094154 
L 152.989135 46.154266 
Q 150.25561 42.018219 147.55012 39.978269 
Q 144.844631 37.919603 142.125123 37.919603 
Q 137.092633 37.919603 134.366116 45.44309 
Q 131.6396 52.947862 131.6396 66.928073 
Q 131.6396 80.777277 134.26799 88.338195 
Q 136.89638 95.880397 141.732617 95.880397 
Q 143.050317 95.880397 144.178772 95.449948 
Q 145.307228 95.000785 146.204385 94.065028 
L 146.204385 77.10911 
L 141.05274 77.10911 
L 141.05274 62.00599 
L 154.19469 62.00599 
z
" style="fill:#ffa600;"/>
   </g>
   <g id="patch_9">
    <path clip-path="url(#p91c3a28801)" d="M 187.115044 156.133795 
Q 183.960976 156.816897 180.568601 157.160008 
Q 177.176226 157.5 173.559561 157.5 
Q 165.38702 157.5 160.613864 155.466288 
Q 155.840708 153.432576 155.840708 149.954679 
Q 155.840708 146.436232 160.697973 144.418116 
Q 165.562246 142.4 174.022158 142.4 
Q 177.281361 142.4 180.267212 142.674489 
Q 183.260072 142.945858 185.909489 143.482359 
L 185.909489 146.492378 
Q 183.175964 145.803037 180.470474 145.463045 
Q 177.764985 145.119934 175.045477 145.119934 
Q 170.012987 145.119934 167.28647 146.373848 
Q 164.559954 147.624644 164.559954 149.954679 
Q 164.559954 152.26288 167.188344 153.523032 
Q 169.816734 154.780066 174.652971 154.780066 
Q 175.970671 154.780066 177.099126 154.708325 
Q 178.227582 154.633464 179.124739 154.477505 
L 179.124739 151.651518 
L 173.973094 151.651518 
L 173.973094 149.134332 
L 187.115044 149.134332 
z
" style="fill:#ffa600;"/>
   </g>
   <g id="patch_10">
    <path clip-path="url(#p91c3a28801)" d="M 155.840708 127.3 
L 187.115044 127.3 
L 187.115044 130.244921 
L 175.863556 130.244921 
L 175.863556 142.4 
L 167.114015 142.4 
L 167.114015 130.244921 
L 155.840708 130.244921 
z
" style="fill:#ff0000;"/>
   </g>
   <g id="patch_11">
    <path clip-path="url(#p91c3a28801)" d="M 177.504468 108.044749 
L 165.476861 108.044749 
L 163.577765 127.3 
L 155.840708 127.3 
L 166.889993 21.6 
L 176.065759 21.6 
L 187.115044 127.3 
L 179.384381 127.3 
z
M 167.39514 88.427047 
L 175.567007 88.427047 
L 171.487467 46.38264 
z
" style="fill:#008000;"/>
   </g>
   <g id="patch_12">
    <path clip-path="url(#p91c3a28801)" d="M 220.035398 154.767589 
Q 216.88133 156.133795 213.488955 156.820017 
Q 210.09658 157.5 206.479915 157.5 
Q 198.307374 157.5 193.534218 153.432576 
Q 188.761062 149.365152 188.761062 142.409358 
Q 188.761062 135.372464 193.618327 131.336232 
Q 198.4826 127.3 206.942512 127.3 
Q 210.201715 127.3 213.187566 127.848977 
Q 216.180426 128.391717 218.829843 129.464718 
L 218.829843 135.484755 
Q 216.096318 134.106073 213.390828 133.42609 
Q 210.685339 132.739868 207.965831 132.739868 
Q 202.933341 132.739868 200.206824 135.247697 
Q 197.480308 137.749287 197.480308 142.409358 
Q 197.480308 147.025759 200.108698 149.546065 
Q 202.737088 152.060132 207.573325 152.060132 
Q 208.891025 152.060132 210.01948 151.916649 
Q 211.147936 151.766928 212.045093 151.455009 
L 212.045093 145.803037 
L 206.893448 145.803037 
L 206.893448 140.768663 
L 220.035398 140.768663 
z
" style="fill:#ffa600;"/>
   </g>
   <g id="patch_13">
    <path clip-path="url(#p91c3a28801)" d="M 188.761062 21.6 
L 220.035398 21.6 
L 220.035398 42.214445 
L 208.78391 42.214445 
L 208.78391 127.3 
L 200.034369 127.3 
L 200.034369 42.214445 
L 188.761062 42.214445 
z
" style="fill:#ff0000;"/>
   </g>
   <g id="patch_14">
    <path clip-path="url(#p91c3a28801)" d="M 243.345176 154.74925 
L 231.317569 154.74925 
L 229.418473 157.5 
L 221.681416 157.5 
L 232.730701 142.4 
L 241.906467 142.4 
L 252.955752 157.5 
L 245.225089 157.5 
z
M 233.235848 151.946721 
L 241.407715 151.946721 
L 237.328175 145.940377 
z
" style="fill:#008000;"/>
   </g>
   <g id="patch_15">
    <path clip-path="url(#p91c3a28801)" d="M 252.955752 131.470357 
Q 249.801684 136.935179 246.409309 139.680066 
Q 243.016934 142.4 239.400269 142.4 
Q 231.227728 142.4 226.454572 126.130304 
Q 221.681416 109.860607 221.681416 82.03743 
Q 221.681416 53.889857 226.538681 37.744929 
Q 231.402954 21.6 239.862866 21.6 
Q 243.122069 21.6 246.10792 23.79591 
Q 249.10078 25.966866 251.750197 30.258872 
L 251.750197 54.339021 
Q 249.016672 48.824293 246.311182 46.104359 
Q 243.605693 43.359471 240.886185 43.359471 
Q 235.853695 43.359471 233.127178 53.390787 
Q 230.400662 63.397149 230.400662 82.03743 
Q 230.400662 100.503037 233.029052 110.584259 
Q 235.657442 120.640529 240.493679 120.640529 
Q 241.811379 120.640529 242.939834 120.066598 
Q 244.06829 119.467713 244.965447 118.220037 
L 244.965447 95.612146 
L 239.813802 95.612146 
L 239.813802 75.474654 
L 252.955752 75.474654 
z
" style="fill:#ffa600;"/>
   </g>
   <g id="patch_16">
    <path clip-path="url(#p91c3a28801)" d="M 254.60177 142.4 
L 285.876106 142.4 
L 285.876106 145.344921 
L 274.624618 145.344921 
L 274.624618 157.5 
L 265.875077 157.5 
L 265.875077 145.344921 
L 254.60177 145.344921 
z
" style="fill:#ff0000;"/>
   </g>
   <g id="patch_17">
    <path clip-path="url(#p91c3a28801)" d="M 285.876106 131.470357 
Q 282.722038 136.935179 279.329663 139.680066 
Q 275.937288 142.4 272.320623 142.4 
Q 264.148082 142.4 259.374926 126.130304 
Q 254.60177 109.860607 254.60177 82.03743 
Q 254.60177 53.889857 259.459035 37.744929 
Q 264.323308 21.6 272.78322 21.6 
Q 276.042423 21.6 279.028274 23.79591 
Q 282.021134 25.966866 284.670551 30.258872 
L 284.670551 54.339021 
Q 281.937026 48.824293 279.231536 46.104359 
Q 276.526047 43.359471 273.806539 43.359471 
Q 268.774049 43.359471 266.047532 53.390787 
Q 263.321016 63.397149 263.321016 82.03743 
Q 263.321016 100.503037 265.949406 110.584259 
Q 268.577796 120.640529 273.414033 120.640529 
Q 274.731733 120.640529 275.860188 120.066598 
Q 276.988644 119.467713 277.885801 118.220037 
L 277.885801 95.612146 
L 272.734156 95.612146 
L 272.734156 75.474654 
L 285.876106 75.474654 
z
" style="fill:#ffa600;"/>
   </g>
   <g id="patch_18">
    <path clip-path="url(#p91c3a28801)" d="M 318.79646 156.417641 
Q 316.180416 156.954142 313.351621 157.225511 
Q 310.522826 157.5 307.441883 157.5 
Q 298.254209 157.5 292.888166 155.466288 
Q 287.522124 153.432576 287.522124 149.954679 
Q 287.522124 146.464305 292.888166 144.433712 
Q 298.254209 142.4 307.441883 142.4 
Q 310.522826 142.4 313.351621 142.674489 
Q 316.180416 142.945858 318.79646 143.482359 
L 318.79646 146.492378 
Q 316.156777 145.781202 313.59589 145.450568 
Q 311.035004 145.119934 308.206209 145.119934 
Q 303.131713 145.119934 300.224122 146.408159 
Q 297.32441 147.693266 297.32441 149.954679 
Q 297.32441 152.206734 300.224122 153.49496 
Q 303.131713 154.780066 308.206209 154.780066 
Q 311.035004 154.780066 313.59589 154.449432 
Q 316.156777 154.115679 318.79646 153.404503 
z
" style="fill:#0000ff;"/>
   </g>
   <g id="patch_19">
    <path clip-path="url(#p91c3a28801)" d="M 318.79646 131.470357 
Q 315.642392 136.935179 312.250017 139.680066 
Q 308.857642 142.4 305.240977 142.4 
Q 297.068436 142.4 292.29528 126.130304 
Q 287.522124 109.860607 287.522124 82.03743 
Q 287.522124 53.889857 292.379389 37.744929 
Q 297.243662 21.6 305.703574 21.6 
Q 308.962777 21.6 311.948628 23.79591 
Q 314.941488 25.966866 317.590905 30.258872 
L 317.590905 54.339021 
Q 314.85738 48.824293 312.15189 46.104359 
Q 309.446401 43.359471 306.726893 43.359471 
Q 301.694403 43.359471 298.967886 53.390787 
Q 296.24137 63.397149 296.24137 82.03743 
Q 296.24137 100.503037 298.86976 110.584259 
Q 301.49815 120.640529 306.334387 120.640529 
Q 307.652087 120.640529 308.780542 120.066598 
Q 309.908998 119.467713 310.806155 118.220037 
L 310.806155 95.612146 
L 305.65451 95.612146 
L 305.65451 75.474654 
L 318.79646 75.474654 
z
" style="fill:#ffa600;"/>
   </g>
   <g id="patch_20">
    <path clip-path="url(#p91c3a28801)" d="M 351.716814 152.035179 
Q 348.562746 154.767589 345.170371 156.140033 
Q 341.777996 157.5 338.161331 157.5 
Q 329.98879 157.5 325.215634 149.365152 
Q 320.442478 141.230304 320.442478 127.318715 
Q 320.442478 113.244929 325.299743 105.172464 
Q 330.164016 97.1 338.623928 97.1 
Q 341.883131 97.1 344.868982 98.197955 
Q 347.861842 99.283433 350.511259 101.429436 
L 350.511259 113.46951 
Q 347.777734 110.712146 345.072244 109.352179 
Q 342.366755 107.979736 339.647247 107.979736 
Q 334.614757 107.979736 331.88824 112.995394 
Q 329.161724 117.998575 329.161724 127.318715 
Q 329.161724 136.551518 331.790114 141.59213 
Q 334.418504 146.620264 339.254741 146.620264 
Q 340.572441 146.620264 341.700896 146.333299 
Q 342.829351 146.033857 343.726509 145.410019 
L 343.726509 134.106073 
L 338.574864 134.106073 
L 338.574864 124.037327 
L 351.716814 124.037327 
z
" style="fill:#ffa600;"/>
   </g>
   <g id="patch_21">
    <path clip-path="url(#p91c3a28801)" d="M 320.442478 21.6 
L 351.716814 21.6 
L 351.716814 36.324604 
L 340.465326 36.324604 
L 340.465326 97.1 
L 331.715785 97.1 
L 331.715785 36.324604 
L 320.442478 36.324604 
z
" style="fill:#ff0000;"/>
   </g>
   <g id="patch_22">
    <path clip-path="url(#p91c3a28801)" d="M 384.637168 156.133795 
Q 381.4831 156.816897 378.090725 157.160008 
Q 374.698349 157.5 371.081685 157.5 
Q 362.909144 157.5 358.135988 155.466288 
Q 353.362832 153.432576 353.362832 149.954679 
Q 353.362832 146.436232 358.220097 144.418116 
Q 363.08437 142.4 371.544282 142.4 
Q 374.803485 142.4 377.789336 142.674489 
Q 380.782196 142.945858 383.431613 143.482359 
L 383.431613 146.492378 
Q 380.698088 145.803037 377.992598 145.463045 
Q 375.287109 145.119934 372.567601 145.119934 
Q 367.535111 145.119934 364.808594 146.373848 
Q 362.082078 147.624644 362.082078 149.954679 
Q 362.082078 152.26288 364.710468 153.523032 
Q 367.338858 154.780066 372.175095 154.780066 
Q 373.492795 154.780066 374.62125 154.708325 
Q 375.749705 154.633464 376.646863 154.477505 
L 376.646863 151.651518 
L 371.495218 151.651518 
L 371.495218 149.134332 
L 384.637168 149.134332 
z
" style="fill:#ffa600;"/>
   </g>
   <g id="patch_23">
    <path clip-path="url(#p91c3a28801)" d="M 375.026592 134.14775 
L 362.998985 134.14775 
L 361.099889 142.4 
L 353.362832 142.4 
L 364.412117 97.1 
L 373.587883 97.1 
L 384.637168 142.4 
L 376.906505 142.4 
z
M 364.917264 125.740163 
L 373.089131 125.740163 
L 369.009591 107.721132 
z
" style="fill:#008000;"/>
   </g>
   <g id="patch_24">
    <path clip-path="url(#p91c3a28801)" d="M 384.637168 91.688205 
Q 382.021124 94.370709 379.192329 95.727556 
Q 376.363534 97.1 373.282591 97.1 
Q 364.094917 97.1 358.728874 86.93144 
Q 353.362832 76.76288 353.362832 59.373394 
Q 353.362832 41.921524 358.728874 31.76856 
Q 364.094917 21.6 373.282591 21.6 
Q 376.363534 21.6 379.192329 22.972444 
Q 382.021124 24.329291 384.637168 27.011795 
L 384.637168 42.061888 
Q 381.997485 38.506011 379.436598 36.85284 
Q 376.875712 35.199669 374.046917 35.199669 
Q 368.972421 35.199669 366.06483 41.640797 
Q 363.165118 48.066329 363.165118 59.373394 
Q 363.165118 70.633671 366.06483 77.074799 
Q 368.972421 83.500331 374.046917 83.500331 
Q 376.875712 83.500331 379.436598 81.84716 
Q 381.997485 80.178393 384.637168 76.622516 
z
" style="fill:#0000ff;"/>
   </g>
   <g id="patch_25">
    <path clip-path="url(#p91c3a28801)" d="M 407.946946 146.497 
L 395.919339 146.497 
L 394.020243 157.5 
L 386.283186 157.5 
L 397.332471 97.1 
L 406.508237 97.1 
L 417.557522 157.5 
L 409.826859 157.5 
z
M 397.837618 135.286884 
L 406.009485 135.286884 
L 401.929945 111.261509 
z
" style="fill:#008000;"/>
   </g>
   <g id="patch_26">
    <path clip-path="url(#p91c3a28801)" d="M 417.557522 91.688205 
Q 414.941478 94.370709 412.112683 95.727556 
Q 409.283888 97.1 406.202945 97.1 
Q 397.015271 97.1 391.649228 86.93144 
Q 386.283186 76.76288 386.283186 59.373394 
Q 386.283186 41.921524 391.649228 31.76856 
Q 397.015271 21.6 406.202945 21.6 
Q 409.283888 21.6 412.112683 22.972444 
Q 414.941478 24.329291 417.557522 27.011795 
L 417.557522 42.061888 
Q 414.917839 38.506011 412.356952 36.85284 
Q 409.796066 35.199669 406.967271 35.199669 
Q 401.892775 35.199669 398.985184 41.640797 
Q 396.085472 48.066329 396.085472 59.373394 
Q 396.085472 70.633671 398.985184 77.074799 
Q 401.892775 83.500331 406.967271 83.500331 
Q 409.796066 83.500331 412.356952 81.84716 
Q 414.917839 80.178393 417.557522 76.622516 
z
" style="fill:#0000ff;"/>
   </g>
   <g id="patch_27">
    <path clip-path="url(#p91c3a28801)" d="M 419.20354 142.4 
L 450.477876 142.4 
L 450.477876 145.344921 
L 439.226388 145.344921 
L 439.226388 157.5 
L 430.476847 157.5 
L 430.476847 145.344921 
L 419.20354 145.344921 
z
" style="fill:#ff0000;"/>
   </g>
   <g id="patch_28">
    <path clip-path="url(#p91c3a28801)" d="M 440.8673 134.14775 
L 428.839693 134.14775 
L 426.940597 142.4 
L 419.20354 142.4 
L 430.252825 97.1 
L 439.428591 97.1 
L 450.477876 142.4 
L 442.747213 142.4 
z
M 430.757972 125.740163 
L 438.929839 125.740163 
L 434.850299 107.721132 
z
" style="fill:#008000;"/>
   </g>
   <g id="patch_29">
    <path clip-path="url(#p91c3a28801)" d="M 450.477876 91.688205 
Q 447.861832 94.370709 445.033037 95.727556 
Q 442.204242 97.1 439.123298 97.1 
Q 429.935625 97.1 424.569582 86.93144 
Q 419.20354 76.76288 419.20354 59.373394 
Q 419.20354 41.921524 424.569582 31.76856 
Q 429.935625 21.6 439.123298 21.6 
Q 442.204242 21.6 445.033037 22.972444 
Q 447.861832 24.329291 450.477876 27.011795 
L 450.477876 42.061888 
Q 447.838193 38.506011 445.277306 36.85284 
Q 442.71642 35.199669 439.887625 35.199669 
Q 434.813129 35.199669 431.905538 41.640797 
Q 429.005826 48.066329 429.005826 59.373394 
Q 429.005826 70.633671 431.905538 77.074799 
Q 434.813129 83.500331 439.887625 83.500331 
Q 442.71642 83.500331 445.277306 81.84716 
Q 447.838193 80.178393 450.477876 76.622516 
z
" style="fill:#0000ff;"/>
   </g>
   <g id="patch_30">
    <path clip-path="url(#p91c3a28801)" d="M 452.123894 142.4 
L 483.39823 142.4 
L 483.39823 145.344921 
L 472.146742 145.344921 
L 472.146742 157.5 
L 463.397201 157.5 
L 463.397201 145.344921 
L 452.123894 145.344921 
z
" style="fill:#ff0000;"/>
   </g>
   <g id="patch_31">
    <path clip-path="url(#p91c3a28801)" d="M 473.787654 136.8985 
L 461.760047 136.8985 
L 459.860951 142.4 
L 452.123894 142.4 
L 463.173179 112.2 
L 472.348945 112.2 
L 483.39823 142.4 
L 475.667567 142.4 
z
M 463.678326 131.293442 
L 471.850193 131.293442 
L 467.770653 119.280754 
z
" style="fill:#008000;"/>
   </g>
   <g id="patch_32">
    <path clip-path="url(#p91c3a28801)" d="M 483.39823 105.705846 
Q 480.782186 108.92485 477.953391 110.553068 
Q 475.124596 112.2 472.043652 112.2 
Q 462.855979 112.2 457.489936 99.997728 
Q 452.123894 87.795455 452.123894 66.928073 
Q 452.123894 45.985829 457.489936 33.802272 
Q 462.855979 21.6 472.043652 21.6 
Q 475.124596 21.6 477.953391 23.246932 
Q 480.782186 24.87515 483.39823 28.094154 
L 483.39823 46.154266 
Q 480.758547 41.887213 478.19766 39.903408 
Q 475.636773 37.919603 472.807979 37.919603 
Q 467.733483 37.919603 464.825892 45.648957 
Q 461.92618 53.359595 461.92618 66.928073 
Q 461.92618 80.440405 464.825892 88.169758 
Q 467.733483 95.880397 472.807979 95.880397 
Q 475.636773 95.880397 478.19766 93.896592 
Q 480.758547 91.894071 483.39823 87.627019 
z
" style="fill:#0000ff;"/>
   </g>
   <g id="patch_33">
    <path clip-path="url(#p91c3a28801)" d="M 516.318584 156.417641 
Q 513.70254 156.954142 510.873745 157.225511 
Q 508.04495 157.5 504.964006 157.5 
Q 495.776333 157.5 490.41029 155.466288 
Q 485.044248 153.432576 485.044248 149.954679 
Q 485.044248 146.464305 490.41029 144.433712 
Q 495.776333 142.4 504.964006 142.4 
Q 508.04495 142.4 510.873745 142.674489 
Q 513.70254 142.945858 516.318584 143.482359 
L 516.318584 146.492378 
Q 513.678901 145.781202 511.118014 145.450568 
Q 508.557127 145.119934 505.728333 145.119934 
Q 500.653837 145.119934 497.746246 146.408159 
Q 494.846534 147.693266 494.846534 149.954679 
Q 494.846534 152.206734 497.746246 153.49496 
Q 500.653837 154.780066 505.728333 154.780066 
Q 508.557127 154.780066 511.118014 154.449432 
Q 513.678901 154.115679 516.318584 153.404503 
z
" style="fill:#0000ff;"/>
   </g>
   <g id="patch_34">
    <path clip-path="url(#p91c3a28801)" d="M 516.318584 141.033795 
Q 513.164516 141.716897 509.772141 142.060008 
Q 506.379765 142.4 502.763101 142.4 
Q 494.59056 142.4 489.817404 140.366288 
Q 485.044248 138.332576 485.044248 134.854679 
Q 485.044248 131.336232 489.901512 129.318116 
Q 494.765786 127.3 503.225697 127.3 
Q 506.484901 127.3 509.470752 127.574489 
Q 512.463612 127.845858 515.113029 128.382359 
L 515.113029 131.392378 
Q 512.379504 130.703037 509.674014 130.363045 
Q 506.968525 130.019934 504.249017 130.019934 
Q 499.216527 130.019934 496.49001 131.273848 
Q 493.763493 132.524644 493.763493 134.854679 
Q 493.763493 137.16288 496.391883 138.423032 
Q 499.020273 139.680066 503.856511 139.680066 
Q 505.174211 139.680066 506.302666 139.608325 
Q 507.431121 139.533464 508.328279 139.377505 
L 508.328279 136.551518 
L 503.176634 136.551518 
L 503.176634 134.034332 
L 516.318584 134.034332 
z
" style="fill:#ffa600;"/>
   </g>
   <g id="patch_35">
    <path clip-path="url(#p91c3a28801)" d="M 485.044248 82 
L 516.318584 82 
L 516.318584 90.834762 
L 505.067096 90.834762 
L 505.067096 127.3 
L 496.317555 127.3 
L 496.317555 90.834762 
L 485.044248 90.834762 
z
" style="fill:#ff0000;"/>
   </g>
   <g id="patch_36">
    <path clip-path="url(#p91c3a28801)" d="M 506.708008 70.997 
L 494.680401 70.997 
L 492.781305 82 
L 485.044248 82 
L 496.093533 21.6 
L 505.269299 21.6 
L 516.318584 82 
L 508.587921 82 
z
M 496.59868 59.786884 
L 504.770547 59.786884 
L 500.691007 35.761509 
z
" style="fill:#008000;"/>
   </g>
   <g id="patch_37">
    <path clip-path="url(#p91c3a28801)" d="M 549.238938 153.170564 
Q 546.622894 155.316567 543.794099 156.402045 
Q 540.965304 157.5 537.88436 157.5 
Q 528.696687 157.5 523.330644 149.365152 
Q 517.964602 141.230304 517.964602 127.318715 
Q 517.964602 113.35722 523.330644 105.234848 
Q 528.696687 97.1 537.88436 97.1 
Q 540.965304 97.1 543.794099 98.197955 
Q 546.622894 99.283433 549.238938 101.429436 
L 549.238938 113.46951 
Q 546.599255 110.624809 544.038368 109.302272 
Q 541.477481 107.979736 538.648687 107.979736 
Q 533.574191 107.979736 530.6666 113.132638 
Q 527.766888 118.273063 527.766888 127.318715 
Q 527.766888 136.326937 530.6666 141.479839 
Q 533.574191 146.620264 538.648687 146.620264 
Q 541.477481 146.620264 544.038368 145.297728 
Q 546.599255 143.962714 549.238938 141.118013 
z
" style="fill:#0000ff;"/>
   </g>
   <g id="patch_38">
    <path clip-path="url(#p91c3a28801)" d="M 539.628362 83.346249 
L 527.600755 83.346249 
L 525.701659 97.1 
L 517.964602 97.1 
L 529.013887 21.6 
L 538.189653 21.6 
L 549.238938 97.1 
L 541.508275 97.1 
z
M 529.519034 69.333605 
L 537.690901 69.333605 
L 533.611361 39.301886 
z
" style="fill:#008000;"/>
   </g>
   <g id="patch_39">
    <path clip-path="url(#p91c3a28801)" d="M 582.159292 156.417641 
Q 579.543248 156.954142 576.714453 157.225511 
Q 573.885658 157.5 570.804714 157.5 
Q 561.617041 157.5 556.250998 155.466288 
Q 550.884956 153.432576 550.884956 149.954679 
Q 550.884956 146.464305 556.250998 144.433712 
Q 561.617041 142.4 570.804714 142.4 
Q 573.885658 142.4 576.714453 142.674489 
Q 579.543248 142.945858 582.159292 143.482359 
L 582.159292 146.492378 
Q 579.519609 145.781202 576.958722 145.450568 
Q 574.397835 145.119934 571.569041 145.119934 
Q 566.494545 145.119934 563.586954 146.408159 
Q 560.687242 147.693266 560.687242 149.954679 
Q 560.687242 152.206734 563.586954 153.49496 
Q 566.494545 154.780066 571.569041 154.780066 
Q 574.397835 154.780066 576.958722 154.449432 
Q 579.519609 154.115679 582.159292 153.404503 
z
" style="fill:#0000ff;"/>
   </g>
   <g id="patch_40">
    <path clip-path="url(#p91c3a28801)" d="M 582.159292 138.301384 
Q 579.005224 140.350692 575.612849 141.380025 
Q 572.220473 142.4 568.603809 142.4 
Q 560.431268 142.4 555.658112 136.298864 
Q 550.884956 130.197728 550.884956 119.764036 
Q 550.884956 109.208697 555.74222 103.154348 
Q 560.606494 97.1 569.066405 97.1 
Q 572.325609 97.1 575.31146 97.923466 
Q 578.30432 98.737575 580.953737 100.347077 
L 580.953737 109.377133 
Q 578.220212 107.30911 575.514722 106.289134 
Q 572.809233 105.259802 570.089725 105.259802 
Q 565.057235 105.259802 562.330718 109.021545 
Q 559.604201 112.773931 559.604201 119.764036 
Q 559.604201 126.688639 562.232591 130.469097 
Q 564.860981 134.240198 569.697219 134.240198 
Q 571.014919 134.240198 572.143374 134.024974 
Q 573.271829 133.800392 574.168986 133.332514 
L 574.168986 124.854555 
L 569.017342 124.854555 
L 569.017342 117.302995 
L 582.159292 117.302995 
z
" style="fill:#ffa600;"/>
   </g>
   <g id="patch_41">
    <path clip-path="url(#p91c3a28801)" d="M 572.548716 83.346249 
L 560.521109 83.346249 
L 558.622013 97.1 
L 550.884956 97.1 
L 561.934241 21.6 
L 571.110007 21.6 
L 582.159292 97.1 
L 574.428629 97.1 
z
M 562.439387 69.333605 
L 570.611255 69.333605 
L 566.531715 39.301886 
z
" style="fill:#008000;"/>
   </g>
   <g id="patch_42">
    <path clip-path="url(#p91c3a28801)" d="M 583.80531 142.4 
L 615.079646 142.4 
L 615.079646 145.344921 
L 603.828158 145.344921 
L 603.828158 157.5 
L 595.078617 157.5 
L 595.078617 145.344921 
L 583.80531 145.344921 
z
" style="fill:#ff0000;"/>
   </g>
   <g id="patch_43">
    <path clip-path="url(#p91c3a28801)" d="M 615.079646 140.235282 
Q 612.463602 141.308283 609.634807 141.851023 
Q 606.806012 142.4 603.725068 142.4 
Q 594.537395 142.4 589.171352 138.332576 
Q 583.80531 134.265152 583.80531 127.309358 
Q 583.80531 120.32861 589.171352 116.267424 
Q 594.537395 112.2 603.725068 112.2 
Q 606.806012 112.2 609.634807 112.748977 
Q 612.463602 113.291717 615.079646 114.364718 
L 615.079646 120.384755 
Q 612.439963 118.962404 609.879076 118.301136 
Q 607.318189 117.639868 604.489395 117.639868 
Q 599.414899 117.639868 596.507308 120.216319 
Q 593.607596 122.786532 593.607596 127.309358 
Q 593.607596 131.813468 596.507308 134.389919 
Q 599.414899 136.960132 604.489395 136.960132 
Q 607.318189 136.960132 609.879076 136.298864 
Q 612.439963 135.631357 615.079646 134.209006 
z
" style="fill:#0000ff;"/>
   </g>
   <g id="patch_44">
    <path clip-path="url(#p91c3a28801)" d="M 605.46907 103.94775 
L 593.441463 103.94775 
L 591.542367 112.2 
L 583.80531 112.2 
L 594.854595 66.9 
L 604.030361 66.9 
L 615.079646 112.2 
L 607.348983 112.2 
z
M 595.359741 95.540163 
L 603.531609 95.540163 
L 599.452069 77.521132 
z
" style="fill:#008000;"/>
   </g>
   <g id="patch_45">
    <path clip-path="url(#p91c3a28801)" d="M 615.079646 62.801384 
Q 611.925578 64.850692 608.533203 65.880025 
Q 605.140827 66.9 601.524163 66.9 
Q 593.351622 66.9 588.578466 60.798864 
Q 583.80531 54.697728 583.80531 44.264036 
Q 583.80531 33.708697 588.662574 27.654348 
Q 593.526848 21.6 601.986759 21.6 
Q 605.245963 21.6 608.231814 22.423466 
Q 611.224674 23.237575 613.874091 24.847077 
L 613.874091 33.877133 
Q 611.140566 31.80911 608.435076 30.789134 
Q 605.729587 29.759802 603.010079 29.759802 
Q 597.977589 29.759802 595.251072 33.521545 
Q 592.524555 37.273931 592.524555 44.264036 
Q 592.524555 51.188639 595.152945 54.969097 
Q 597.781335 58.740198 602.617573 58.740198 
Q 603.935272 58.740198 605.063728 58.524974 
Q 606.192183 58.300392 607.08934 57.832514 
L 607.08934 49.354555 
L 601.937696 49.354555 
L 601.937696 41.802995 
L 615.079646 41.802995 
z
" style="fill:#ffa600;"/>
   </g>
   <g id="patch_46">
    <path clip-path="url(#p91c3a28801)" d="M 648 156.417641 
Q 645.383956 156.954142 642.555161 157.225511 
Q 639.726366 157.5 636.645422 157.5 
Q 627.457749 157.5 622.091706 155.466288 
Q 616.725664 153.432576 616.725664 149.954679 
Q 616.725664 146.464305 622.091706 144.433712 
Q 627.457749 142.4 636.645422 142.4 
Q 639.726366 142.4 642.555161 142.674489 
Q 645.383956 142.945858 648 143.482359 
L 648 146.492378 
Q 645.360317 145.781202 642.79943 145.450568 
Q 640.238543 145.119934 637.409749 145.119934 
Q 632.335253 145.119934 629.427662 146.408159 
Q 626.52795 147.693266 626.52795 149.954679 
Q 626.52795 152.206734 629.427662 153.49496 
Q 632.335253 154.780066 637.409749 154.780066 
Q 640.238543 154.780066 642.79943 154.449432 
Q 645.360317 154.115679 648 153.404503 
z
" style="fill:#0000ff;"/>
   </g>
   <g id="patch_47">
    <path clip-path="url(#p91c3a28801)" d="M 616.725664 127.3 
L 648 127.3 
L 648 130.244921 
L 636.748512 130.244921 
L 636.748512 142.4 
L 627.998971 142.4 
L 627.998971 130.244921 
L 616.725664 130.244921 
z
" style="fill:#ff0000;"/>
   </g>
   <g id="patch_48">
    <path clip-path="url(#p91c3a28801)" d="M 648 124.567589 
Q 644.845932 125.933795 641.453557 126.620017 
Q 638.061181 127.3 634.444517 127.3 
Q 626.271976 127.3 621.49882 123.232576 
Q 616.725664 119.165152 616.725664 112.209358 
Q 616.725664 105.172464 621.582928 101.136232 
Q 626.447202 97.1 634.907113 97.1 
Q 638.166317 97.1 641.152168 97.648977 
Q 644.145028 98.191717 646.794445 99.264718 
L 646.794445 105.284755 
Q 644.06092 103.906073 641.35543 103.22609 
Q 638.649941 102.539868 635.930433 102.539868 
Q 630.897943 102.539868 628.171426 105.047697 
Q 625.444909 107.549287 625.444909 112.209358 
Q 625.444909 116.825759 628.073299 119.346065 
Q 630.701689 121.860132 635.537927 121.860132 
Q 636.855626 121.860132 637.984082 121.716649 
Q 639.112537 121.566928 640.009694 121.255009 
L 640.009694 115.603037 
L 634.85805 115.603037 
L 634.85805 110.568663 
L 648 110.568663 
z
" style="fill:#ffa600;"/>
   </g>
   <g id="patch_49">
    <path clip-path="url(#p91c3a28801)" d="M 638.389424 83.346249 
L 626.361817 83.346249 
L 624.462721 97.1 
L 616.725664 97.1 
L 627.774949 21.6 
L 636.950715 21.6 
L 648 97.1 
L 640.269337 97.1 
z
M 628.280095 69.333605 
L 636.451963 69.333605 
L 632.372423 39.301886 
z
" style="fill:#008000;"/>
   </g>
  </g>
 </g>
 <defs>
  <clipPath id="p91c3a28801">
   <rect height="135.9" width="558" x="90" y="21.6"/>
  </clipPath>
 </defs>
</svg>
