<?xml version="1.0" encoding="utf-8" standalone="no"?>
<!DOCTYPE svg PUBLIC "-//W3C//DTD SVG 1.1//EN"
  "http://www.w3.org/Graphics/SVG/1.1/DTD/svg11.dtd">
<!-- Created with matplotlib (https://matplotlib.org/) -->
<svg height="180pt" version="1.1" viewBox="0 0 720 180" width="720pt" xmlns="http://www.w3.org/2000/svg" xmlns:xlink="http://www.w3.org/1999/xlink">
 <metadata>
  <rdf:RDF xmlns:cc="http://creativecommons.org/ns#" xmlns:dc="http://purl.org/dc/elements/1.1/" xmlns:rdf="http://www.w3.org/1999/02/22-rdf-syntax-ns#">
   <cc:Work>
    <dc:type rdf:resource="http://purl.org/dc/dcmitype/StillImage"/>
    <dc:date>2021-08-04T23:33:33.956622</dc:date>
    <dc:format>image/svg+xml</dc:format>
    <dc:creator>
     <cc:Agent>
      <dc:title>Matplotlib v3.3.2, https://matplotlib.org/</dc:title>
     </cc:Agent>
    </dc:creator>
   </cc:Work>
  </rdf:RDF>
 </metadata>
 <defs>
  <style type="text/css">*{stroke-linecap:butt;stroke-linejoin:round;}</style>
 </defs>
 <g id="figure_1">
  <g id="patch_1">
   <path d="M 0 180 
L 720 180 
L 720 0 
L 0 0 
z
" style="fill:none;"/>
  </g>
  <g id="axes_1">
   <g id="line2d_1">
    <path clip-path="url(#p74db4f9efd)" d="M 90 157.5 
L 648 157.5 
" style="fill:none;stroke:#000000;stroke-linecap:square;stroke-width:0.5;"/>
   </g>
   <g id="patch_2">
    <path clip-path="url(#p74db4f9efd)" d="M 111.66376 151.9985 
L 99.636153 151.9985 
L 97.737057 157.5 
L 90 157.5 
L 101.049285 127.3 
L 110.225051 127.3 
L 121.274336 157.5 
L 113.543673 157.5 
z
M 101.554432 146.393442 
L 109.726299 146.393442 
L 105.64676 134.380754 
z
" style="fill:#008000;"/>
   </g>
   <g id="patch_3">
    <path clip-path="url(#p74db4f9efd)" d="M 90 97.1 
L 121.274336 97.1 
L 121.274336 102.989841 
L 110.022848 102.989841 
L 110.022848 127.3 
L 101.273307 127.3 
L 101.273307 102.989841 
L 90 102.989841 
z
" style="fill:#ff0000;"/>
   </g>
   <g id="patch_4">
    <path clip-path="url(#p74db4f9efd)" d="M 121.274336 92.770564 
Q 118.658292 94.916567 115.829497 96.002045 
Q 113.000702 97.1 109.919759 97.1 
Q 100.732085 97.1 95.366043 88.965152 
Q 90 80.830304 90 66.918715 
Q 90 52.95722 95.366043 44.834848 
Q 100.732085 36.7 109.919759 36.7 
Q 113.000702 36.7 115.829497 37.797955 
Q 118.658292 38.883433 121.274336 41.029436 
L 121.274336 53.06951 
Q 118.634653 50.224809 116.073766 48.902272 
Q 113.51288 47.579736 110.684085 47.579736 
Q 105.609589 47.579736 102.701998 52.732638 
Q 99.802286 57.873063 99.802286 66.918715 
Q 99.802286 75.926937 102.701998 81.079839 
Q 105.609589 86.220264 110.684085 86.220264 
Q 113.51288 86.220264 116.073766 84.897728 
Q 118.634653 83.562714 121.274336 80.718013 
z
" style="fill:#0000ff;"/>
   </g>
   <g id="patch_5">
    <path clip-path="url(#p74db4f9efd)" d="M 154.19469 156.133795 
Q 151.040622 156.816897 147.648247 157.160008 
Q 144.255872 157.5 140.639207 157.5 
Q 132.466666 157.5 127.69351 155.466288 
Q 122.920354 153.432576 122.920354 149.954679 
Q 122.920354 146.436232 127.777619 144.418116 
Q 132.641892 142.4 141.101804 142.4 
Q 144.361007 142.4 147.346858 142.674489 
Q 150.339718 142.945858 152.989135 143.482359 
L 152.989135 146.492378 
Q 150.25561 145.803037 147.55012 145.463045 
Q 144.844631 145.119934 142.125123 145.119934 
Q 137.092633 145.119934 134.366116 146.373848 
Q 131.6396 147.624644 131.6396 149.954679 
Q 131.6396 152.26288 134.26799 153.523032 
Q 136.89638 154.780066 141.732617 154.780066 
Q 143.050317 154.780066 144.178772 154.708325 
Q 145.307228 154.633464 146.204385 154.477505 
L 146.204385 151.651518 
L 141.05274 151.651518 
L 141.05274 149.134332 
L 154.19469 149.134332 
z
" style="fill:#ffa600;"/>
   </g>
   <g id="patch_6">
    <path clip-path="url(#p74db4f9efd)" d="M 122.920354 127.3 
L 154.19469 127.3 
L 154.19469 130.244921 
L 142.943202 130.244921 
L 142.943202 142.4 
L 134.193661 142.4 
L 134.193661 130.244921 
L 122.920354 130.244921 
z
" style="fill:#ff0000;"/>
   </g>
   <g id="patch_7">
    <path clip-path="url(#p74db4f9efd)" d="M 144.584114 110.795499 
L 132.556507 110.795499 
L 130.657411 127.3 
L 122.920354 127.3 
L 133.969639 36.7 
L 143.145405 36.7 
L 154.19469 127.3 
L 146.464027 127.3 
z
M 134.474786 93.980326 
L 142.646653 93.980326 
L 138.567114 57.942263 
z
" style="fill:#008000;"/>
   </g>
   <g id="patch_8">
    <path clip-path="url(#p74db4f9efd)" d="M 177.504468 151.9985 
L 165.476861 151.9985 
L 163.577765 157.5 
L 155.840708 157.5 
L 166.889993 127.3 
L 176.065759 127.3 
L 187.115044 157.5 
L 179.384381 157.5 
z
M 167.39514 146.393442 
L 175.567007 146.393442 
L 171.487467 134.380754 
z
" style="fill:#008000;"/>
   </g>
   <g id="patch_9">
    <path clip-path="url(#p74db4f9efd)" d="M 187.115044 125.135282 
Q 184.499 126.208283 181.670205 126.751023 
Q 178.84141 127.3 175.760467 127.3 
Q 166.572793 127.3 161.206751 123.232576 
Q 155.840708 119.165152 155.840708 112.209358 
Q 155.840708 105.22861 161.206751 101.167424 
Q 166.572793 97.1 175.760467 97.1 
Q 178.84141 97.1 181.670205 97.648977 
Q 184.499 98.191717 187.115044 99.264718 
L 187.115044 105.284755 
Q 184.475361 103.862404 181.914474 103.201136 
Q 179.353588 102.539868 176.524793 102.539868 
Q 171.450297 102.539868 168.542706 105.116319 
Q 165.642994 107.686532 165.642994 112.209358 
Q 165.642994 116.713468 168.542706 119.289919 
Q 171.450297 121.860132 176.524793 121.860132 
Q 179.353588 121.860132 181.914474 121.198864 
Q 184.475361 120.531357 187.115044 119.109006 
z
" style="fill:#0000ff;"/>
   </g>
   <g id="patch_10">
    <path clip-path="url(#p74db4f9efd)" d="M 155.840708 36.7 
L 187.115044 36.7 
L 187.115044 48.479683 
L 175.863556 48.479683 
L 175.863556 97.1 
L 167.114015 97.1 
L 167.114015 48.479683 
L 155.840708 48.479683 
z
" style="fill:#ff0000;"/>
   </g>
   <g id="patch_11">
    <path clip-path="url(#p74db4f9efd)" d="M 220.035398 156.133795 
Q 216.88133 156.816897 213.488955 157.160008 
Q 210.09658 157.5 206.479915 157.5 
Q 198.307374 157.5 193.534218 155.466288 
Q 188.761062 153.432576 188.761062 149.954679 
Q 188.761062 146.436232 193.618327 144.418116 
Q 198.4826 142.4 206.942512 142.4 
Q 210.201715 142.4 213.187566 142.674489 
Q 216.180426 142.945858 218.829843 143.482359 
L 218.829843 146.492378 
Q 216.096318 145.803037 213.390828 145.463045 
Q 210.685339 145.119934 207.965831 145.119934 
Q 202.933341 145.119934 200.206824 146.373848 
Q 197.480308 147.624644 197.480308 149.954679 
Q 197.480308 152.26288 200.108698 153.523032 
Q 202.737088 154.780066 207.573325 154.780066 
Q 208.891025 154.780066 210.01948 154.708325 
Q 211.147936 154.633464 212.045093 154.477505 
L 212.045093 151.651518 
L 206.893448 151.651518 
L 206.893448 149.134332 
L 220.035398 149.134332 
z
" style="fill:#ffa600;"/>
   </g>
   <g id="patch_12">
    <path clip-path="url(#p74db4f9efd)" d="M 210.424822 136.8985 
L 198.397215 136.8985 
L 196.498119 142.4 
L 188.761062 142.4 
L 199.810347 112.2 
L 208.986113 112.2 
L 220.035398 142.4 
L 212.304735 142.4 
z
M 200.315494 131.293442 
L 208.487361 131.293442 
L 204.407821 119.280754 
z
" style="fill:#008000;"/>
   </g>
   <g id="patch_13">
    <path clip-path="url(#p74db4f9efd)" d="M 220.035398 106.788205 
Q 217.419354 109.470709 214.590559 110.827556 
Q 211.761764 112.2 208.680821 112.2 
Q 199.493147 112.2 194.127105 102.03144 
Q 188.761062 91.86288 188.761062 74.473394 
Q 188.761062 57.021524 194.127105 46.86856 
Q 199.493147 36.7 208.680821 36.7 
Q 211.761764 36.7 214.590559 38.072444 
Q 217.419354 39.429291 220.035398 42.111795 
L 220.035398 57.161888 
Q 217.395715 53.606011 214.834828 51.95284 
Q 212.273942 50.299669 209.445147 50.299669 
Q 204.370651 50.299669 201.46306 56.740797 
Q 198.563348 63.166329 198.563348 74.473394 
Q 198.563348 85.733671 201.46306 92.174799 
Q 204.370651 98.600331 209.445147 98.600331 
Q 212.273942 98.600331 214.834828 96.94716 
Q 217.395715 95.278393 220.035398 91.722516 
z
" style="fill:#0000ff;"/>
   </g>
   <g id="patch_14">
    <path clip-path="url(#p74db4f9efd)" d="M 252.955752 156.417641 
Q 250.339708 156.954142 247.510913 157.225511 
Q 244.682118 157.5 241.601175 157.5 
Q 232.413501 157.5 227.047459 155.466288 
Q 221.681416 153.432576 221.681416 149.954679 
Q 221.681416 146.464305 227.047459 144.433712 
Q 232.413501 142.4 241.601175 142.4 
Q 244.682118 142.4 247.510913 142.674489 
Q 250.339708 142.945858 252.955752 143.482359 
L 252.955752 146.492378 
Q 250.316069 145.781202 247.755182 145.450568 
Q 245.194296 145.119934 242.365501 145.119934 
Q 237.291005 145.119934 234.383414 146.408159 
Q 231.483702 147.693266 231.483702 149.954679 
Q 231.483702 152.206734 234.383414 153.49496 
Q 237.291005 154.780066 242.365501 154.780066 
Q 245.194296 154.780066 247.755182 154.449432 
Q 250.316069 154.115679 252.955752 153.404503 
z
" style="fill:#0000ff;"/>
   </g>
   <g id="patch_15">
    <path clip-path="url(#p74db4f9efd)" d="M 252.955752 141.033795 
Q 249.801684 141.716897 246.409309 142.060008 
Q 243.016934 142.4 239.400269 142.4 
Q 231.227728 142.4 226.454572 140.366288 
Q 221.681416 138.332576 221.681416 134.854679 
Q 221.681416 131.336232 226.538681 129.318116 
Q 231.402954 127.3 239.862866 127.3 
Q 243.122069 127.3 246.10792 127.574489 
Q 249.10078 127.845858 251.750197 128.382359 
L 251.750197 131.392378 
Q 249.016672 130.703037 246.311182 130.363045 
Q 243.605693 130.019934 240.886185 130.019934 
Q 235.853695 130.019934 233.127178 131.273848 
Q 230.400662 132.524644 230.400662 134.854679 
Q 230.400662 137.16288 233.029052 138.423032 
Q 235.657442 139.680066 240.493679 139.680066 
Q 241.811379 139.680066 242.939834 139.608325 
Q 244.06829 139.533464 244.965447 139.377505 
L 244.965447 136.551518 
L 239.813802 136.551518 
L 239.813802 134.034332 
L 252.955752 134.034332 
z
" style="fill:#ffa600;"/>
   </g>
   <g id="patch_16">
    <path clip-path="url(#p74db4f9efd)" d="M 243.345176 110.795499 
L 231.317569 110.795499 
L 229.418473 127.3 
L 221.681416 127.3 
L 232.730701 36.7 
L 241.906467 36.7 
L 252.955752 127.3 
L 245.225089 127.3 
z
M 233.235848 93.980326 
L 241.407715 93.980326 
L 237.328175 57.942263 
z
" style="fill:#008000;"/>
   </g>
   <g id="patch_17">
    <path clip-path="url(#p74db4f9efd)" d="M 276.26553 154.74925 
L 264.237923 154.74925 
L 262.338827 157.5 
L 254.60177 157.5 
L 265.651055 142.4 
L 274.826821 142.4 
L 285.876106 157.5 
L 278.145443 157.5 
z
M 266.156202 151.946721 
L 274.328069 151.946721 
L 270.248529 145.940377 
z
" style="fill:#008000;"/>
   </g>
   <g id="patch_18">
    <path clip-path="url(#p74db4f9efd)" d="M 285.876106 140.235282 
Q 283.260062 141.308283 280.431267 141.851023 
Q 277.602472 142.4 274.521529 142.4 
Q 265.333855 142.4 259.967812 138.332576 
Q 254.60177 134.265152 254.60177 127.309358 
Q 254.60177 120.32861 259.967812 116.267424 
Q 265.333855 112.2 274.521529 112.2 
Q 277.602472 112.2 280.431267 112.748977 
Q 283.260062 113.291717 285.876106 114.364718 
L 285.876106 120.384755 
Q 283.236423 118.962404 280.675536 118.301136 
Q 278.11465 117.639868 275.285855 117.639868 
Q 270.211359 117.639868 267.303768 120.216319 
Q 264.404056 122.786532 264.404056 127.309358 
Q 264.404056 131.813468 267.303768 134.389919 
Q 270.211359 136.960132 275.285855 136.960132 
Q 278.11465 136.960132 280.675536 136.298864 
Q 283.236423 135.631357 285.876106 134.209006 
z
" style="fill:#0000ff;"/>
   </g>
   <g id="patch_19">
    <path clip-path="url(#p74db4f9efd)" d="M 285.876106 109.467589 
Q 282.722038 110.833795 279.329663 111.520017 
Q 275.937288 112.2 272.320623 112.2 
Q 264.148082 112.2 259.374926 108.132576 
Q 254.60177 104.065152 254.60177 97.109358 
Q 254.60177 90.072464 259.459035 86.036232 
Q 264.323308 82 272.78322 82 
Q 276.042423 82 279.028274 82.548977 
Q 282.021134 83.091717 284.670551 84.164718 
L 284.670551 90.184755 
Q 281.937026 88.806073 279.231536 88.12609 
Q 276.526047 87.439868 273.806539 87.439868 
Q 268.774049 87.439868 266.047532 89.947697 
Q 263.321016 92.449287 263.321016 97.109358 
Q 263.321016 101.725759 265.949406 104.246065 
Q 268.577796 106.760132 273.414033 106.760132 
Q 274.731733 106.760132 275.860188 106.616649 
Q 276.988644 106.466928 277.885801 106.155009 
L 277.885801 100.503037 
L 272.734156 100.503037 
L 272.734156 95.468663 
L 285.876106 95.468663 
z
" style="fill:#ffa600;"/>
   </g>
   <g id="patch_20">
    <path clip-path="url(#p74db4f9efd)" d="M 254.60177 36.7 
L 285.876106 36.7 
L 285.876106 45.534762 
L 274.624618 45.534762 
L 274.624618 82 
L 265.875077 82 
L 265.875077 45.534762 
L 254.60177 45.534762 
z
" style="fill:#ff0000;"/>
   </g>
   <g id="patch_21">
    <path clip-path="url(#p74db4f9efd)" d="M 318.79646 156.417641 
Q 316.180416 156.954142 313.351621 157.225511 
Q 310.522826 157.5 307.441883 157.5 
Q 298.254209 157.5 292.888166 155.466288 
Q 287.522124 153.432576 287.522124 149.954679 
Q 287.522124 146.464305 292.888166 144.433712 
Q 298.254209 142.4 307.441883 142.4 
Q 310.522826 142.4 313.351621 142.674489 
Q 316.180416 142.945858 318.79646 143.482359 
L 318.79646 146.492378 
Q 316.156777 145.781202 313.59589 145.450568 
Q 311.035004 145.119934 308.206209 145.119934 
Q 303.131713 145.119934 300.224122 146.408159 
Q 297.32441 147.693266 297.32441 149.954679 
Q 297.32441 152.206734 300.224122 153.49496 
Q 303.131713 154.780066 308.206209 154.780066 
Q 311.035004 154.780066 313.59589 154.449432 
Q 316.156777 154.115679 318.79646 153.404503 
z
" style="fill:#0000ff;"/>
   </g>
   <g id="patch_22">
    <path clip-path="url(#p74db4f9efd)" d="M 287.522124 97.1 
L 318.79646 97.1 
L 318.79646 105.934762 
L 307.544972 105.934762 
L 307.544972 142.4 
L 298.795431 142.4 
L 298.795431 105.934762 
L 287.522124 105.934762 
z
" style="fill:#ff0000;"/>
   </g>
   <g id="patch_23">
    <path clip-path="url(#p74db4f9efd)" d="M 318.79646 91.635179 
Q 315.642392 94.367589 312.250017 95.740033 
Q 308.857642 97.1 305.240977 97.1 
Q 297.068436 97.1 292.29528 88.965152 
Q 287.522124 80.830304 287.522124 66.918715 
Q 287.522124 52.844929 292.379389 44.772464 
Q 297.243662 36.7 305.703574 36.7 
Q 308.962777 36.7 311.948628 37.797955 
Q 314.941488 38.883433 317.590905 41.029436 
L 317.590905 53.06951 
Q 314.85738 50.312146 312.15189 48.952179 
Q 309.446401 47.579736 306.726893 47.579736 
Q 301.694403 47.579736 298.967886 52.595394 
Q 296.24137 57.598575 296.24137 66.918715 
Q 296.24137 76.151518 298.86976 81.19213 
Q 301.49815 86.220264 306.334387 86.220264 
Q 307.652087 86.220264 308.780542 85.933299 
Q 309.908998 85.633857 310.806155 85.010019 
L 310.806155 73.706073 
L 305.65451 73.706073 
L 305.65451 63.637327 
L 318.79646 63.637327 
z
" style="fill:#ffa600;"/>
   </g>
   <g id="patch_24">
    <path clip-path="url(#p74db4f9efd)" d="M 351.716814 148.841128 
Q 349.10077 153.133134 346.271975 155.30409 
Q 343.44318 157.5 340.362237 157.5 
Q 331.174563 157.5 325.80852 141.230304 
Q 320.442478 124.960607 320.442478 97.13743 
Q 320.442478 69.214439 325.80852 52.969696 
Q 331.174563 36.7 340.362237 36.7 
Q 343.44318 36.7 346.271975 38.89591 
Q 349.10077 41.066866 351.716814 45.358872 
L 351.716814 69.439021 
Q 349.077131 63.749618 346.516244 61.104545 
Q 343.955358 58.459471 341.126563 58.459471 
Q 336.052067 58.459471 333.144476 68.765276 
Q 330.244764 79.046127 330.244764 97.13743 
Q 330.244764 115.153873 333.144476 125.459678 
Q 336.052067 135.740529 341.126563 135.740529 
Q 343.955358 135.740529 346.516244 133.095455 
Q 349.077131 130.425429 351.716814 124.736026 
z
" style="fill:#0000ff;"/>
   </g>
   <g id="patch_25">
    <path clip-path="url(#p74db4f9efd)" d="M 353.362832 142.4 
L 384.637168 142.4 
L 384.637168 145.344921 
L 373.38568 145.344921 
L 373.38568 157.5 
L 364.636139 157.5 
L 364.636139 145.344921 
L 353.362832 145.344921 
z
" style="fill:#ff0000;"/>
   </g>
   <g id="patch_26">
    <path clip-path="url(#p74db4f9efd)" d="M 375.026592 136.8985 
L 362.998985 136.8985 
L 361.099889 142.4 
L 353.362832 142.4 
L 364.412117 112.2 
L 373.587883 112.2 
L 384.637168 142.4 
L 376.906505 142.4 
z
M 364.917264 131.293442 
L 373.089131 131.293442 
L 369.009591 119.280754 
z
" style="fill:#008000;"/>
   </g>
   <g id="patch_27">
    <path clip-path="url(#p74db4f9efd)" d="M 384.637168 104.002768 
Q 381.4831 108.101384 378.090725 110.16005 
Q 374.698349 112.2 371.081685 112.2 
Q 362.909144 112.2 358.135988 99.997728 
Q 353.362832 87.795455 353.362832 66.928073 
Q 353.362832 45.817393 358.220097 33.708697 
Q 363.08437 21.6 371.544282 21.6 
Q 374.803485 21.6 377.789336 23.246932 
Q 380.782196 24.87515 383.431613 28.094154 
L 383.431613 46.154266 
Q 380.698088 42.018219 377.992598 39.978269 
Q 375.287109 37.919603 372.567601 37.919603 
Q 367.535111 37.919603 364.808594 45.44309 
Q 362.082078 52.947862 362.082078 66.928073 
Q 362.082078 80.777277 364.710468 88.338195 
Q 367.338858 95.880397 372.175095 95.880397 
Q 373.492795 95.880397 374.62125 95.449948 
Q 375.749705 95.000785 376.646863 94.065028 
L 376.646863 77.10911 
L 371.495218 77.10911 
L 371.495218 62.00599 
L 384.637168 62.00599 
z
" style="fill:#ffa600;"/>
   </g>
   <g id="patch_28">
    <path clip-path="url(#p74db4f9efd)" d="M 407.946946 154.74925 
L 395.919339 154.74925 
L 394.020243 157.5 
L 386.283186 157.5 
L 397.332471 142.4 
L 406.508237 142.4 
L 417.557522 157.5 
L 409.826859 157.5 
z
M 397.837618 151.946721 
L 406.009485 151.946721 
L 401.929945 145.940377 
z
" style="fill:#008000;"/>
   </g>
   <g id="patch_29">
    <path clip-path="url(#p74db4f9efd)" d="M 386.283186 112.2 
L 417.557522 112.2 
L 417.557522 118.089841 
L 406.306034 118.089841 
L 406.306034 142.4 
L 397.556493 142.4 
L 397.556493 118.089841 
L 386.283186 118.089841 
z
" style="fill:#ff0000;"/>
   </g>
   <g id="patch_30">
    <path clip-path="url(#p74db4f9efd)" d="M 417.557522 104.002768 
Q 414.403454 108.101384 411.011079 110.16005 
Q 407.618703 112.2 404.002039 112.2 
Q 395.829498 112.2 391.056342 99.997728 
Q 386.283186 87.795455 386.283186 66.928073 
Q 386.283186 45.817393 391.140451 33.708697 
Q 396.004724 21.6 404.464635 21.6 
Q 407.723839 21.6 410.70969 23.246932 
Q 413.70255 24.87515 416.351967 28.094154 
L 416.351967 46.154266 
Q 413.618442 42.018219 410.912952 39.978269 
Q 408.207463 37.919603 405.487955 37.919603 
Q 400.455465 37.919603 397.728948 45.44309 
Q 395.002432 52.947862 395.002432 66.928073 
Q 395.002432 80.777277 397.630822 88.338195 
Q 400.259212 95.880397 405.095449 95.880397 
Q 406.413149 95.880397 407.541604 95.449948 
Q 408.670059 95.000785 409.567217 94.065028 
L 409.567217 77.10911 
L 404.415572 77.10911 
L 404.415572 62.00599 
L 417.557522 62.00599 
z
" style="fill:#ffa600;"/>
   </g>
   <g id="patch_31">
    <path clip-path="url(#p74db4f9efd)" d="M 440.8673 154.74925 
L 428.839693 154.74925 
L 426.940597 157.5 
L 419.20354 157.5 
L 430.252825 142.4 
L 439.428591 142.4 
L 450.477876 157.5 
L 442.747213 157.5 
z
M 430.757972 151.946721 
L 438.929839 151.946721 
L 434.850299 145.940377 
z
" style="fill:#008000;"/>
   </g>
   <g id="patch_32">
    <path clip-path="url(#p74db4f9efd)" d="M 419.20354 127.3 
L 450.477876 127.3 
L 450.477876 130.244921 
L 439.226388 130.244921 
L 439.226388 142.4 
L 430.476847 142.4 
L 430.476847 130.244921 
L 419.20354 130.244921 
z
" style="fill:#ff0000;"/>
   </g>
   <g id="patch_33">
    <path clip-path="url(#p74db4f9efd)" d="M 450.477876 119.723487 
Q 447.861832 123.478992 445.033037 125.378579 
Q 442.204242 127.3 439.123298 127.3 
Q 429.935625 127.3 424.569582 113.064016 
Q 419.20354 98.828031 419.20354 74.482751 
Q 419.20354 50.050134 424.569582 35.835984 
Q 429.935625 21.6 439.123298 21.6 
Q 442.204242 21.6 445.033037 23.521421 
Q 447.861832 25.421008 450.477876 29.176513 
L 450.477876 50.246643 
Q 447.838193 45.268416 445.277306 42.953976 
Q 442.71642 40.639537 439.887625 40.639537 
Q 434.813129 40.639537 431.905538 49.657116 
Q 429.005826 58.652861 429.005826 74.482751 
Q 429.005826 90.247139 431.905538 99.264718 
Q 434.813129 108.260463 439.887625 108.260463 
Q 442.71642 108.260463 445.277306 105.946024 
Q 447.838193 103.60975 450.477876 98.631522 
z
" style="fill:#0000ff;"/>
   </g>
   <g id="patch_34">
    <path clip-path="url(#p74db4f9efd)" d="M 473.787654 154.74925 
L 461.760047 154.74925 
L 459.860951 157.5 
L 452.123894 157.5 
L 463.173179 142.4 
L 472.348945 142.4 
L 483.39823 157.5 
L 475.667567 157.5 
z
M 463.678326 151.946721 
L 471.850193 151.946721 
L 467.770653 145.940377 
z
" style="fill:#008000;"/>
   </g>
   <g id="patch_35">
    <path clip-path="url(#p74db4f9efd)" d="M 483.39823 141.317641 
Q 480.782186 141.854142 477.953391 142.125511 
Q 475.124596 142.4 472.043652 142.4 
Q 462.855979 142.4 457.489936 140.366288 
Q 452.123894 138.332576 452.123894 134.854679 
Q 452.123894 131.364305 457.489936 129.333712 
Q 462.855979 127.3 472.043652 127.3 
Q 475.124596 127.3 477.953391 127.574489 
Q 480.782186 127.845858 483.39823 128.382359 
L 483.39823 131.392378 
Q 480.758547 130.681202 478.19766 130.350568 
Q 475.636773 130.019934 472.807979 130.019934 
Q 467.733483 130.019934 464.825892 131.308159 
Q 461.92618 132.593266 461.92618 134.854679 
Q 461.92618 137.106734 464.825892 138.39496 
Q 467.733483 139.680066 472.807979 139.680066 
Q 475.636773 139.680066 478.19766 139.349432 
Q 480.758547 139.015679 483.39823 138.304503 
z
" style="fill:#0000ff;"/>
   </g>
   <g id="patch_36">
    <path clip-path="url(#p74db4f9efd)" d="M 452.123894 112.2 
L 483.39823 112.2 
L 483.39823 115.144921 
L 472.146742 115.144921 
L 472.146742 127.3 
L 463.397201 127.3 
L 463.397201 115.144921 
L 452.123894 115.144921 
z
" style="fill:#ff0000;"/>
   </g>
   <g id="patch_37">
    <path clip-path="url(#p74db4f9efd)" d="M 483.39823 104.002768 
Q 480.244162 108.101384 476.851787 110.16005 
Q 473.459411 112.2 469.842747 112.2 
Q 461.670206 112.2 456.89705 99.997728 
Q 452.123894 87.795455 452.123894 66.928073 
Q 452.123894 45.817393 456.981158 33.708697 
Q 461.845432 21.6 470.305343 21.6 
Q 473.564547 21.6 476.550398 23.246932 
Q 479.543258 24.87515 482.192675 28.094154 
L 482.192675 46.154266 
Q 479.45915 42.018219 476.75366 39.978269 
Q 474.048171 37.919603 471.328663 37.919603 
Q 466.296173 37.919603 463.569656 45.44309 
Q 460.84314 52.947862 460.84314 66.928073 
Q 460.84314 80.777277 463.471529 88.338195 
Q 466.099919 95.880397 470.936157 95.880397 
Q 472.253857 95.880397 473.382312 95.449948 
Q 474.510767 95.000785 475.407925 94.065028 
L 475.407925 77.10911 
L 470.25628 77.10911 
L 470.25628 62.00599 
L 483.39823 62.00599 
z
" style="fill:#ffa600;"/>
   </g>
   <g id="patch_38">
    <path clip-path="url(#p74db4f9efd)" d="M 506.708008 154.74925 
L 494.680401 154.74925 
L 492.781305 157.5 
L 485.044248 157.5 
L 496.093533 142.4 
L 505.269299 142.4 
L 516.318584 157.5 
L 508.587921 157.5 
z
M 496.59868 151.946721 
L 504.770547 151.946721 
L 500.691007 145.940377 
z
" style="fill:#008000;"/>
   </g>
   <g id="patch_39">
    <path clip-path="url(#p74db4f9efd)" d="M 516.318584 139.667589 
Q 513.164516 141.033795 509.772141 141.720017 
Q 506.379765 142.4 502.763101 142.4 
Q 494.59056 142.4 489.817404 138.332576 
Q 485.044248 134.265152 485.044248 127.309358 
Q 485.044248 120.272464 489.901512 116.236232 
Q 494.765786 112.2 503.225697 112.2 
Q 506.484901 112.2 509.470752 112.748977 
Q 512.463612 113.291717 515.113029 114.364718 
L 515.113029 120.384755 
Q 512.379504 119.006073 509.674014 118.32609 
Q 506.968525 117.639868 504.249017 117.639868 
Q 499.216527 117.639868 496.49001 120.147697 
Q 493.763493 122.649287 493.763493 127.309358 
Q 493.763493 131.925759 496.391883 134.446065 
Q 499.020273 136.960132 503.856511 136.960132 
Q 505.174211 136.960132 506.302666 136.816649 
Q 507.431121 136.666928 508.328279 136.355009 
L 508.328279 130.703037 
L 503.176634 130.703037 
L 503.176634 125.668663 
L 516.318584 125.668663 
z
" style="fill:#ffa600;"/>
   </g>
   <g id="patch_40">
    <path clip-path="url(#p74db4f9efd)" d="M 485.044248 21.6 
L 516.318584 21.6 
L 516.318584 39.269524 
L 505.067096 39.269524 
L 505.067096 112.2 
L 496.317555 112.2 
L 496.317555 39.269524 
L 485.044248 39.269524 
z
" style="fill:#ff0000;"/>
   </g>
   <g id="patch_41">
    <path clip-path="url(#p74db4f9efd)" d="M 539.628362 151.9985 
L 527.600755 151.9985 
L 525.701659 157.5 
L 517.964602 157.5 
L 529.013887 127.3 
L 538.189653 127.3 
L 549.238938 157.5 
L 541.508275 157.5 
z
M 529.519034 146.393442 
L 537.690901 146.393442 
L 533.611361 134.380754 
z
" style="fill:#008000;"/>
   </g>
   <g id="patch_42">
    <path clip-path="url(#p74db4f9efd)" d="M 549.238938 123.201384 
Q 546.08487 125.250692 542.692495 126.280025 
Q 539.300119 127.3 535.683455 127.3 
Q 527.510914 127.3 522.737758 121.198864 
Q 517.964602 115.097728 517.964602 104.664036 
Q 517.964602 94.108697 522.821866 88.054348 
Q 527.68614 82 536.146051 82 
Q 539.405255 82 542.391106 82.823466 
Q 545.383966 83.637575 548.033383 85.247077 
L 548.033383 94.277133 
Q 545.299858 92.20911 542.594368 91.189134 
Q 539.888879 90.159802 537.169371 90.159802 
Q 532.136881 90.159802 529.410364 93.921545 
Q 526.683847 97.673931 526.683847 104.664036 
Q 526.683847 111.588639 529.312237 115.369097 
Q 531.940627 119.140198 536.776865 119.140198 
Q 538.094565 119.140198 539.22302 118.924974 
Q 540.351475 118.700392 541.248633 118.232514 
L 541.248633 109.754555 
L 536.096988 109.754555 
L 536.096988 102.202995 
L 549.238938 102.202995 
z
" style="fill:#ffa600;"/>
   </g>
   <g id="patch_43">
    <path clip-path="url(#p74db4f9efd)" d="M 549.238938 77.670564 
Q 546.622894 79.816567 543.794099 80.902045 
Q 540.965304 82 537.88436 82 
Q 528.696687 82 523.330644 73.865152 
Q 517.964602 65.730304 517.964602 51.818715 
Q 517.964602 37.85722 523.330644 29.734848 
Q 528.696687 21.6 537.88436 21.6 
Q 540.965304 21.6 543.794099 22.697955 
Q 546.622894 23.783433 549.238938 25.929436 
L 549.238938 37.96951 
Q 546.599255 35.124809 544.038368 33.802272 
Q 541.477481 32.479736 538.648687 32.479736 
Q 533.574191 32.479736 530.6666 37.632638 
Q 527.766888 42.773063 527.766888 51.818715 
Q 527.766888 60.826937 530.6666 65.979839 
Q 533.574191 71.120264 538.648687 71.120264 
Q 541.477481 71.120264 544.038368 69.797728 
Q 546.599255 68.462714 549.238938 65.618013 
z
" style="fill:#0000ff;"/>
   </g>
   <g id="patch_44">
    <path clip-path="url(#p74db4f9efd)" d="M 572.548716 154.74925 
L 560.521109 154.74925 
L 558.622013 157.5 
L 550.884956 157.5 
L 561.934241 142.4 
L 571.110007 142.4 
L 582.159292 157.5 
L 574.428629 157.5 
z
M 562.439387 151.946721 
L 570.611255 151.946721 
L 566.531715 145.940377 
z
" style="fill:#008000;"/>
   </g>
   <g id="patch_45">
    <path clip-path="url(#p74db4f9efd)" d="M 582.159292 140.235282 
Q 579.543248 141.308283 576.714453 141.851023 
Q 573.885658 142.4 570.804714 142.4 
Q 561.617041 142.4 556.250998 138.332576 
Q 550.884956 134.265152 550.884956 127.309358 
Q 550.884956 120.32861 556.250998 116.267424 
Q 561.617041 112.2 570.804714 112.2 
Q 573.885658 112.2 576.714453 112.748977 
Q 579.543248 113.291717 582.159292 114.364718 
L 582.159292 120.384755 
Q 579.519609 118.962404 576.958722 118.301136 
Q 574.397835 117.639868 571.569041 117.639868 
Q 566.494545 117.639868 563.586954 120.216319 
Q 560.687242 122.786532 560.687242 127.309358 
Q 560.687242 131.813468 563.586954 134.389919 
Q 566.494545 136.960132 571.569041 136.960132 
Q 574.397835 136.960132 576.958722 136.298864 
Q 579.519609 135.631357 582.159292 134.209006 
z
" style="fill:#0000ff;"/>
   </g>
   <g id="patch_46">
    <path clip-path="url(#p74db4f9efd)" d="M 582.159292 104.002768 
Q 579.005224 108.101384 575.612849 110.16005 
Q 572.220473 112.2 568.603809 112.2 
Q 560.431268 112.2 555.658112 99.997728 
Q 550.884956 87.795455 550.884956 66.928073 
Q 550.884956 45.817393 555.74222 33.708697 
Q 560.606494 21.6 569.066405 21.6 
Q 572.325609 21.6 575.31146 23.246932 
Q 578.30432 24.87515 580.953737 28.094154 
L 580.953737 46.154266 
Q 578.220212 42.018219 575.514722 39.978269 
Q 572.809233 37.919603 570.089725 37.919603 
Q 565.057235 37.919603 562.330718 45.44309 
Q 559.604201 52.947862 559.604201 66.928073 
Q 559.604201 80.777277 562.232591 88.338195 
Q 564.860981 95.880397 569.697219 95.880397 
Q 571.014919 95.880397 572.143374 95.449948 
Q 573.271829 95.000785 574.168986 94.065028 
L 574.168986 77.10911 
L 569.017342 77.10911 
L 569.017342 62.00599 
L 582.159292 62.00599 
z
" style="fill:#ffa600;"/>
   </g>
   <g id="patch_47">
    <path clip-path="url(#p74db4f9efd)" d="M 615.079646 155.335282 
Q 612.463602 156.408283 609.634807 156.951023 
Q 606.806012 157.5 603.725068 157.5 
Q 594.537395 157.5 589.171352 153.432576 
Q 583.80531 149.365152 583.80531 142.409358 
Q 583.80531 135.42861 589.171352 131.367424 
Q 594.537395 127.3 603.725068 127.3 
Q 606.806012 127.3 609.634807 127.848977 
Q 612.463602 128.391717 615.079646 129.464718 
L 615.079646 135.484755 
Q 612.439963 134.062404 609.879076 133.401136 
Q 607.318189 132.739868 604.489395 132.739868 
Q 599.414899 132.739868 596.507308 135.316319 
Q 593.607596 137.886532 593.607596 142.409358 
Q 593.607596 146.913468 596.507308 149.489919 
Q 599.414899 152.060132 604.489395 152.060132 
Q 607.318189 152.060132 609.879076 151.398864 
Q 612.439963 150.731357 615.079646 149.309006 
z
" style="fill:#0000ff;"/>
   </g>
   <g id="patch_48">
    <path clip-path="url(#p74db4f9efd)" d="M 615.079646 123.201384 
Q 611.925578 125.250692 608.533203 126.280025 
Q 605.140827 127.3 601.524163 127.3 
Q 593.351622 127.3 588.578466 121.198864 
Q 583.80531 115.097728 583.80531 104.664036 
Q 583.80531 94.108697 588.662574 88.054348 
Q 593.526848 82 601.986759 82 
Q 605.245963 82 608.231814 82.823466 
Q 611.224674 83.637575 613.874091 85.247077 
L 613.874091 94.277133 
Q 611.140566 92.20911 608.435076 91.189134 
Q 605.729587 90.159802 603.010079 90.159802 
Q 597.977589 90.159802 595.251072 93.921545 
Q 592.524555 97.673931 592.524555 104.664036 
Q 592.524555 111.588639 595.152945 115.369097 
Q 597.781335 119.140198 602.617573 119.140198 
Q 603.935272 119.140198 605.063728 118.924974 
Q 606.192183 118.700392 607.08934 118.232514 
L 607.08934 109.754555 
L 601.937696 109.754555 
L 601.937696 102.202995 
L 615.079646 102.202995 
z
" style="fill:#ffa600;"/>
   </g>
   <g id="patch_49">
    <path clip-path="url(#p74db4f9efd)" d="M 605.46907 70.997 
L 593.441463 70.997 
L 591.542367 82 
L 583.80531 82 
L 594.854595 21.6 
L 604.030361 21.6 
L 615.079646 82 
L 607.348983 82 
z
M 595.359741 59.786884 
L 603.531609 59.786884 
L 599.452069 35.761509 
z
" style="fill:#008000;"/>
   </g>
   <g id="patch_50">
    <path clip-path="url(#p74db4f9efd)" d="M 638.389424 151.9985 
L 626.361817 151.9985 
L 624.462721 157.5 
L 616.725664 157.5 
L 627.774949 127.3 
L 636.950715 127.3 
L 648 157.5 
L 640.269337 157.5 
z
M 628.280095 146.393442 
L 636.451963 146.393442 
L 632.372423 134.380754 
z
" style="fill:#008000;"/>
   </g>
   <g id="patch_51">
    <path clip-path="url(#p74db4f9efd)" d="M 648 125.135282 
Q 645.383956 126.208283 642.555161 126.751023 
Q 639.726366 127.3 636.645422 127.3 
Q 627.457749 127.3 622.091706 123.232576 
Q 616.725664 119.165152 616.725664 112.209358 
Q 616.725664 105.22861 622.091706 101.167424 
Q 627.457749 97.1 636.645422 97.1 
Q 639.726366 97.1 642.555161 97.648977 
Q 645.383956 98.191717 648 99.264718 
L 648 105.284755 
Q 645.360317 103.862404 642.79943 103.201136 
Q 640.238543 102.539868 637.409749 102.539868 
Q 632.335253 102.539868 629.427662 105.116319 
Q 626.52795 107.686532 626.52795 112.209358 
Q 626.52795 116.713468 629.427662 119.289919 
Q 632.335253 121.860132 637.409749 121.860132 
Q 640.238543 121.860132 642.79943 121.198864 
Q 645.360317 120.531357 648 119.109006 
z
" style="fill:#0000ff;"/>
   </g>
   <g id="patch_52">
    <path clip-path="url(#p74db4f9efd)" d="M 616.725664 66.9 
L 648 66.9 
L 648 72.789841 
L 636.748512 72.789841 
L 636.748512 97.1 
L 627.998971 97.1 
L 627.998971 72.789841 
L 616.725664 72.789841 
z
" style="fill:#ff0000;"/>
   </g>
   <g id="patch_53">
    <path clip-path="url(#p74db4f9efd)" d="M 648 62.801384 
Q 644.845932 64.850692 641.453557 65.880025 
Q 638.061181 66.9 634.444517 66.9 
Q 626.271976 66.9 621.49882 60.798864 
Q 616.725664 54.697728 616.725664 44.264036 
Q 616.725664 33.708697 621.582928 27.654348 
Q 626.447202 21.6 634.907113 21.6 
Q 638.166317 21.6 641.152168 22.423466 
Q 644.145028 23.237575 646.794445 24.847077 
L 646.794445 33.877133 
Q 644.06092 31.80911 641.35543 30.789134 
Q 638.649941 29.759802 635.930433 29.759802 
Q 630.897943 29.759802 628.171426 33.521545 
Q 625.444909 37.273931 625.444909 44.264036 
Q 625.444909 51.188639 628.073299 54.969097 
Q 630.701689 58.740198 635.537927 58.740198 
Q 636.855626 58.740198 637.984082 58.524974 
Q 639.112537 58.300392 640.009694 57.832514 
L 640.009694 49.354555 
L 634.85805 49.354555 
L 634.85805 41.802995 
L 648 41.802995 
z
" style="fill:#ffa600;"/>
   </g>
  </g>
 </g>
 <defs>
  <clipPath id="p74db4f9efd">
   <rect height="135.9" width="558" x="90" y="21.6"/>
  </clipPath>
 </defs>
</svg>
