<?xml version="1.0" encoding="utf-8" standalone="no"?>
<!DOCTYPE svg PUBLIC "-//W3C//DTD SVG 1.1//EN"
  "http://www.w3.org/Graphics/SVG/1.1/DTD/svg11.dtd">
<!-- Created with matplotlib (https://matplotlib.org/) -->
<svg height="180pt" version="1.1" viewBox="0 0 720 180" width="720pt" xmlns="http://www.w3.org/2000/svg" xmlns:xlink="http://www.w3.org/1999/xlink">
 <metadata>
  <rdf:RDF xmlns:cc="http://creativecommons.org/ns#" xmlns:dc="http://purl.org/dc/elements/1.1/" xmlns:rdf="http://www.w3.org/1999/02/22-rdf-syntax-ns#">
   <cc:Work>
    <dc:type rdf:resource="http://purl.org/dc/dcmitype/StillImage"/>
    <dc:date>2021-08-04T23:33:44.431617</dc:date>
    <dc:format>image/svg+xml</dc:format>
    <dc:creator>
     <cc:Agent>
      <dc:title>Matplotlib v3.3.2, https://matplotlib.org/</dc:title>
     </cc:Agent>
    </dc:creator>
   </cc:Work>
  </rdf:RDF>
 </metadata>
 <defs>
  <style type="text/css">*{stroke-linecap:butt;stroke-linejoin:round;}</style>
 </defs>
 <g id="figure_1">
  <g id="patch_1">
   <path d="M 0 180 
L 720 180 
L 720 0 
L 0 0 
z
" style="fill:none;"/>
  </g>
  <g id="axes_1">
   <g id="line2d_1">
    <path clip-path="url(#p493c055fdb)" d="M 90 157.5 
L 648 157.5 
" style="fill:none;stroke:#000000;stroke-linecap:square;stroke-width:0.5;"/>
   </g>
   <g id="patch_2">
    <path clip-path="url(#p493c055fdb)" d="M 121.274336 155.335282 
Q 118.658292 156.408283 115.829497 156.951023 
Q 113.000702 157.5 109.919759 157.5 
Q 100.732085 157.5 95.366043 153.432576 
Q 90 149.365152 90 142.409358 
Q 90 135.42861 95.366043 131.367424 
Q 100.732085 127.3 109.919759 127.3 
Q 113.000702 127.3 115.829497 127.848977 
Q 118.658292 128.391717 121.274336 129.464718 
L 121.274336 135.484755 
Q 118.634653 134.062404 116.073766 133.401136 
Q 113.51288 132.739868 110.684085 132.739868 
Q 105.609589 132.739868 102.701998 135.316319 
Q 99.802286 137.886532 99.802286 142.409358 
Q 99.802286 146.913468 102.701998 149.489919 
Q 105.609589 152.060132 110.684085 152.060132 
Q 113.51288 152.060132 116.073766 151.398864 
Q 118.634653 150.731357 121.274336 149.309006 
z
" style="fill:#0000ff;"/>
   </g>
   <g id="patch_3">
    <path clip-path="url(#p493c055fdb)" d="M 121.274336 124.567589 
Q 118.120268 125.933795 114.727893 126.620017 
Q 111.335518 127.3 107.718853 127.3 
Q 99.546312 127.3 94.773156 123.232576 
Q 90 119.165152 90 112.209358 
Q 90 105.172464 94.857265 101.136232 
Q 99.721538 97.1 108.18145 97.1 
Q 111.440653 97.1 114.426504 97.648977 
Q 117.419364 98.191717 120.068781 99.264718 
L 120.068781 105.284755 
Q 117.335256 103.906073 114.629766 103.22609 
Q 111.924277 102.539868 109.204769 102.539868 
Q 104.172279 102.539868 101.445762 105.047697 
Q 98.719246 107.549287 98.719246 112.209358 
Q 98.719246 116.825759 101.347636 119.346065 
Q 103.976026 121.860132 108.812263 121.860132 
Q 110.129963 121.860132 111.258418 121.716649 
Q 112.386874 121.566928 113.284031 121.255009 
L 113.284031 115.603037 
L 108.132386 115.603037 
L 108.132386 110.568663 
L 121.274336 110.568663 
z
" style="fill:#ffa600;"/>
   </g>
   <g id="patch_4">
    <path clip-path="url(#p493c055fdb)" d="M 90 66.9 
L 121.274336 66.9 
L 121.274336 72.789841 
L 110.022848 72.789841 
L 110.022848 97.1 
L 101.273307 97.1 
L 101.273307 72.789841 
L 90 72.789841 
z
" style="fill:#ff0000;"/>
   </g>
   <g id="patch_5">
    <path clip-path="url(#p493c055fdb)" d="M 111.66376 58.64775 
L 99.636153 58.64775 
L 97.737057 66.9 
L 90 66.9 
L 101.049285 21.6 
L 110.225051 21.6 
L 121.274336 66.9 
L 113.543673 66.9 
z
M 101.554432 50.240163 
L 109.726299 50.240163 
L 105.64676 32.221132 
z
" style="fill:#008000;"/>
   </g>
   <g id="patch_6">
    <path clip-path="url(#p493c055fdb)" d="M 154.19469 156.417641 
Q 151.578646 156.954142 148.749851 157.225511 
Q 145.921056 157.5 142.840113 157.5 
Q 133.652439 157.5 128.286397 155.466288 
Q 122.920354 153.432576 122.920354 149.954679 
Q 122.920354 146.464305 128.286397 144.433712 
Q 133.652439 142.4 142.840113 142.4 
Q 145.921056 142.4 148.749851 142.674489 
Q 151.578646 142.945858 154.19469 143.482359 
L 154.19469 146.492378 
Q 151.555007 145.781202 148.99412 145.450568 
Q 146.433234 145.119934 143.604439 145.119934 
Q 138.529943 145.119934 135.622352 146.408159 
Q 132.72264 147.693266 132.72264 149.954679 
Q 132.72264 152.206734 135.622352 153.49496 
Q 138.529943 154.780066 143.604439 154.780066 
Q 146.433234 154.780066 148.99412 154.449432 
Q 151.555007 154.115679 154.19469 153.404503 
z
" style="fill:#0000ff;"/>
   </g>
   <g id="patch_7">
    <path clip-path="url(#p493c055fdb)" d="M 144.584114 136.8985 
L 132.556507 136.8985 
L 130.657411 142.4 
L 122.920354 142.4 
L 133.969639 112.2 
L 143.145405 112.2 
L 154.19469 142.4 
L 146.464027 142.4 
z
M 134.474786 131.293442 
L 142.646653 131.293442 
L 138.567114 119.280754 
z
" style="fill:#008000;"/>
   </g>
   <g id="patch_8">
    <path clip-path="url(#p493c055fdb)" d="M 154.19469 104.002768 
Q 151.040622 108.101384 147.648247 110.16005 
Q 144.255872 112.2 140.639207 112.2 
Q 132.466666 112.2 127.69351 99.997728 
Q 122.920354 87.795455 122.920354 66.928073 
Q 122.920354 45.817393 127.777619 33.708697 
Q 132.641892 21.6 141.101804 21.6 
Q 144.361007 21.6 147.346858 23.246932 
Q 150.339718 24.87515 152.989135 28.094154 
L 152.989135 46.154266 
Q 150.25561 42.018219 147.55012 39.978269 
Q 144.844631 37.919603 142.125123 37.919603 
Q 137.092633 37.919603 134.366116 45.44309 
Q 131.6396 52.947862 131.6396 66.928073 
Q 131.6396 80.777277 134.26799 88.338195 
Q 136.89638 95.880397 141.732617 95.880397 
Q 143.050317 95.880397 144.178772 95.449948 
Q 145.307228 95.000785 146.204385 94.065028 
L 146.204385 77.10911 
L 141.05274 77.10911 
L 141.05274 62.00599 
L 154.19469 62.00599 
z
" style="fill:#ffa600;"/>
   </g>
   <g id="patch_9">
    <path clip-path="url(#p493c055fdb)" d="M 155.840708 142.4 
L 187.115044 142.4 
L 187.115044 145.344921 
L 175.863556 145.344921 
L 175.863556 157.5 
L 167.114015 157.5 
L 167.114015 145.344921 
L 155.840708 145.344921 
z
" style="fill:#ff0000;"/>
   </g>
   <g id="patch_10">
    <path clip-path="url(#p493c055fdb)" d="M 177.504468 131.397 
L 165.476861 131.397 
L 163.577765 142.4 
L 155.840708 142.4 
L 166.889993 82 
L 176.065759 82 
L 187.115044 142.4 
L 179.384381 142.4 
z
M 167.39514 120.186884 
L 175.567007 120.186884 
L 171.487467 96.161509 
z
" style="fill:#008000;"/>
   </g>
   <g id="patch_11">
    <path clip-path="url(#p493c055fdb)" d="M 187.115044 76.535179 
Q 183.960976 79.267589 180.568601 80.640033 
Q 177.176226 82 173.559561 82 
Q 165.38702 82 160.613864 73.865152 
Q 155.840708 65.730304 155.840708 51.818715 
Q 155.840708 37.744929 160.697973 29.672464 
Q 165.562246 21.6 174.022158 21.6 
Q 177.281361 21.6 180.267212 22.697955 
Q 183.260072 23.783433 185.909489 25.929436 
L 185.909489 37.96951 
Q 183.175964 35.212146 180.470474 33.852179 
Q 177.764985 32.479736 175.045477 32.479736 
Q 170.012987 32.479736 167.28647 37.495394 
Q 164.559954 42.498575 164.559954 51.818715 
Q 164.559954 61.051518 167.188344 66.09213 
Q 169.816734 71.120264 174.652971 71.120264 
Q 175.970671 71.120264 177.099126 70.833299 
Q 178.227582 70.533857 179.124739 69.910019 
L 179.124739 58.606073 
L 173.973094 58.606073 
L 173.973094 48.537327 
L 187.115044 48.537327 
z
" style="fill:#ffa600;"/>
   </g>
   <g id="patch_12">
    <path clip-path="url(#p493c055fdb)" d="M 210.424822 154.74925 
L 198.397215 154.74925 
L 196.498119 157.5 
L 188.761062 157.5 
L 199.810347 142.4 
L 208.986113 142.4 
L 220.035398 157.5 
L 212.304735 157.5 
z
M 200.315494 151.946721 
L 208.487361 151.946721 
L 204.407821 145.940377 
z
" style="fill:#008000;"/>
   </g>
   <g id="patch_13">
    <path clip-path="url(#p493c055fdb)" d="M 220.035398 140.235282 
Q 217.419354 141.308283 214.590559 141.851023 
Q 211.761764 142.4 208.680821 142.4 
Q 199.493147 142.4 194.127105 138.332576 
Q 188.761062 134.265152 188.761062 127.309358 
Q 188.761062 120.32861 194.127105 116.267424 
Q 199.493147 112.2 208.680821 112.2 
Q 211.761764 112.2 214.590559 112.748977 
Q 217.419354 113.291717 220.035398 114.364718 
L 220.035398 120.384755 
Q 217.395715 118.962404 214.834828 118.301136 
Q 212.273942 117.639868 209.445147 117.639868 
Q 204.370651 117.639868 201.46306 120.216319 
Q 198.563348 122.786532 198.563348 127.309358 
Q 198.563348 131.813468 201.46306 134.389919 
Q 204.370651 136.960132 209.445147 136.960132 
Q 212.273942 136.960132 214.834828 136.298864 
Q 217.395715 135.631357 220.035398 134.209006 
z
" style="fill:#0000ff;"/>
   </g>
   <g id="patch_14">
    <path clip-path="url(#p493c055fdb)" d="M 188.761062 21.6 
L 220.035398 21.6 
L 220.035398 39.269524 
L 208.78391 39.269524 
L 208.78391 112.2 
L 200.034369 112.2 
L 200.034369 39.269524 
L 188.761062 39.269524 
z
" style="fill:#ff0000;"/>
   </g>
   <g id="patch_15">
    <path clip-path="url(#p493c055fdb)" d="M 243.345176 151.9985 
L 231.317569 151.9985 
L 229.418473 157.5 
L 221.681416 157.5 
L 232.730701 127.3 
L 241.906467 127.3 
L 252.955752 157.5 
L 245.225089 157.5 
z
M 233.235848 146.393442 
L 241.407715 146.393442 
L 237.328175 134.380754 
z
" style="fill:#008000;"/>
   </g>
   <g id="patch_16">
    <path clip-path="url(#p493c055fdb)" d="M 252.955752 124.052923 
Q 250.339708 125.662425 247.510913 126.476534 
Q 244.682118 127.3 241.601175 127.3 
Q 232.413501 127.3 227.047459 121.198864 
Q 221.681416 115.097728 221.681416 104.664036 
Q 221.681416 94.192915 227.047459 88.101136 
Q 232.413501 82 241.601175 82 
Q 244.682118 82 247.510913 82.823466 
Q 250.339708 83.637575 252.955752 85.247077 
L 252.955752 94.277133 
Q 250.316069 92.143607 247.755182 91.151704 
Q 245.194296 90.159802 242.365501 90.159802 
Q 237.291005 90.159802 234.383414 94.024478 
Q 231.483702 97.879798 231.483702 104.664036 
Q 231.483702 111.420202 234.383414 115.284879 
Q 237.291005 119.140198 242.365501 119.140198 
Q 245.194296 119.140198 247.755182 118.148296 
Q 250.316069 117.147036 252.955752 115.01351 
z
" style="fill:#0000ff;"/>
   </g>
   <g id="patch_17">
    <path clip-path="url(#p493c055fdb)" d="M 252.955752 76.535179 
Q 249.801684 79.267589 246.409309 80.640033 
Q 243.016934 82 239.400269 82 
Q 231.227728 82 226.454572 73.865152 
Q 221.681416 65.730304 221.681416 51.818715 
Q 221.681416 37.744929 226.538681 29.672464 
Q 231.402954 21.6 239.862866 21.6 
Q 243.122069 21.6 246.10792 22.697955 
Q 249.10078 23.783433 251.750197 25.929436 
L 251.750197 37.96951 
Q 249.016672 35.212146 246.311182 33.852179 
Q 243.605693 32.479736 240.886185 32.479736 
Q 235.853695 32.479736 233.127178 37.495394 
Q 230.400662 42.498575 230.400662 51.818715 
Q 230.400662 61.051518 233.029052 66.09213 
Q 235.657442 71.120264 240.493679 71.120264 
Q 241.811379 71.120264 242.939834 70.833299 
Q 244.06829 70.533857 244.965447 69.910019 
L 244.965447 58.606073 
L 239.813802 58.606073 
L 239.813802 48.537327 
L 252.955752 48.537327 
z
" style="fill:#ffa600;"/>
   </g>
   <g id="patch_18">
    <path clip-path="url(#p493c055fdb)" d="M 285.876106 156.133795 
Q 282.722038 156.816897 279.329663 157.160008 
Q 275.937288 157.5 272.320623 157.5 
Q 264.148082 157.5 259.374926 155.466288 
Q 254.60177 153.432576 254.60177 149.954679 
Q 254.60177 146.436232 259.459035 144.418116 
Q 264.323308 142.4 272.78322 142.4 
Q 276.042423 142.4 279.028274 142.674489 
Q 282.021134 142.945858 284.670551 143.482359 
L 284.670551 146.492378 
Q 281.937026 145.803037 279.231536 145.463045 
Q 276.526047 145.119934 273.806539 145.119934 
Q 268.774049 145.119934 266.047532 146.373848 
Q 263.321016 147.624644 263.321016 149.954679 
Q 263.321016 152.26288 265.949406 153.523032 
Q 268.577796 154.780066 273.414033 154.780066 
Q 274.731733 154.780066 275.860188 154.708325 
Q 276.988644 154.633464 277.885801 154.477505 
L 277.885801 151.651518 
L 272.734156 151.651518 
L 272.734156 149.134332 
L 285.876106 149.134332 
z
" style="fill:#ffa600;"/>
   </g>
   <g id="patch_19">
    <path clip-path="url(#p493c055fdb)" d="M 254.60177 97.1 
L 285.876106 97.1 
L 285.876106 105.934762 
L 274.624618 105.934762 
L 274.624618 142.4 
L 265.875077 142.4 
L 265.875077 105.934762 
L 254.60177 105.934762 
z
" style="fill:#ff0000;"/>
   </g>
   <g id="patch_20">
    <path clip-path="url(#p493c055fdb)" d="M 276.26553 83.346249 
L 264.237923 83.346249 
L 262.338827 97.1 
L 254.60177 97.1 
L 265.651055 21.6 
L 274.826821 21.6 
L 285.876106 97.1 
L 278.145443 97.1 
z
M 266.156202 69.333605 
L 274.328069 69.333605 
L 270.248529 39.301886 
z
" style="fill:#008000;"/>
   </g>
   <g id="patch_21">
    <path clip-path="url(#p493c055fdb)" d="M 309.185884 154.74925 
L 297.158277 154.74925 
L 295.259181 157.5 
L 287.522124 157.5 
L 298.571409 142.4 
L 307.747175 142.4 
L 318.79646 157.5 
L 311.065797 157.5 
z
M 299.076556 151.946721 
L 307.248423 151.946721 
L 303.168883 145.940377 
z
" style="fill:#008000;"/>
   </g>
   <g id="patch_22">
    <path clip-path="url(#p493c055fdb)" d="M 318.79646 140.235282 
Q 316.180416 141.308283 313.351621 141.851023 
Q 310.522826 142.4 307.441883 142.4 
Q 298.254209 142.4 292.888166 138.332576 
Q 287.522124 134.265152 287.522124 127.309358 
Q 287.522124 120.32861 292.888166 116.267424 
Q 298.254209 112.2 307.441883 112.2 
Q 310.522826 112.2 313.351621 112.748977 
Q 316.180416 113.291717 318.79646 114.364718 
L 318.79646 120.384755 
Q 316.156777 118.962404 313.59589 118.301136 
Q 311.035004 117.639868 308.206209 117.639868 
Q 303.131713 117.639868 300.224122 120.216319 
Q 297.32441 122.786532 297.32441 127.309358 
Q 297.32441 131.813468 300.224122 134.389919 
Q 303.131713 136.960132 308.206209 136.960132 
Q 311.035004 136.960132 313.59589 136.298864 
Q 316.156777 135.631357 318.79646 134.209006 
z
" style="fill:#0000ff;"/>
   </g>
   <g id="patch_23">
    <path clip-path="url(#p493c055fdb)" d="M 318.79646 109.467589 
Q 315.642392 110.833795 312.250017 111.520017 
Q 308.857642 112.2 305.240977 112.2 
Q 297.068436 112.2 292.29528 108.132576 
Q 287.522124 104.065152 287.522124 97.109358 
Q 287.522124 90.072464 292.379389 86.036232 
Q 297.243662 82 305.703574 82 
Q 308.962777 82 311.948628 82.548977 
Q 314.941488 83.091717 317.590905 84.164718 
L 317.590905 90.184755 
Q 314.85738 88.806073 312.15189 88.12609 
Q 309.446401 87.439868 306.726893 87.439868 
Q 301.694403 87.439868 298.967886 89.947697 
Q 296.24137 92.449287 296.24137 97.109358 
Q 296.24137 101.725759 298.86976 104.246065 
Q 301.49815 106.760132 306.334387 106.760132 
Q 307.652087 106.760132 308.780542 106.616649 
Q 309.908998 106.466928 310.806155 106.155009 
L 310.806155 100.503037 
L 305.65451 100.503037 
L 305.65451 95.468663 
L 318.79646 95.468663 
z
" style="fill:#ffa600;"/>
   </g>
   <g id="patch_24">
    <path clip-path="url(#p493c055fdb)" d="M 287.522124 21.6 
L 318.79646 21.6 
L 318.79646 33.379683 
L 307.544972 33.379683 
L 307.544972 82 
L 298.795431 82 
L 298.795431 33.379683 
L 287.522124 33.379683 
z
" style="fill:#ff0000;"/>
   </g>
   <g id="patch_25">
    <path clip-path="url(#p493c055fdb)" d="M 342.106238 151.9985 
L 330.078631 151.9985 
L 328.179535 157.5 
L 320.442478 157.5 
L 331.491763 127.3 
L 340.667529 127.3 
L 351.716814 157.5 
L 343.986151 157.5 
z
M 331.99691 146.393442 
L 340.168777 146.393442 
L 336.089237 134.380754 
z
" style="fill:#008000;"/>
   </g>
   <g id="patch_26">
    <path clip-path="url(#p493c055fdb)" d="M 351.716814 117.736563 
Q 348.562746 122.518281 345.170371 124.920058 
Q 341.777996 127.3 338.161331 127.3 
Q 329.98879 127.3 325.215634 113.064016 
Q 320.442478 98.828031 320.442478 74.482751 
Q 320.442478 49.853625 325.299743 35.726813 
Q 330.164016 21.6 338.623928 21.6 
Q 341.883131 21.6 344.868982 23.521421 
Q 347.861842 25.421008 350.511259 29.176513 
L 350.511259 50.246643 
Q 347.777734 45.421256 345.072244 43.041314 
Q 342.366755 40.639537 339.647247 40.639537 
Q 334.614757 40.639537 331.88824 49.416939 
Q 329.161724 58.172506 329.161724 74.482751 
Q 329.161724 90.640157 331.790114 99.461227 
Q 334.418504 108.260463 339.254741 108.260463 
Q 340.572441 108.260463 341.700896 107.758273 
Q 342.829351 107.234249 343.726509 106.142533 
L 343.726509 86.360628 
L 338.574864 86.360628 
L 338.574864 68.740322 
L 351.716814 68.740322 
z
" style="fill:#ffa600;"/>
   </g>
   <g id="patch_27">
    <path clip-path="url(#p493c055fdb)" d="M 375.026592 132.743249 
L 362.998985 132.743249 
L 361.099889 157.5 
L 353.362832 157.5 
L 364.412117 21.6 
L 373.587883 21.6 
L 384.637168 157.5 
L 376.906505 157.5 
z
M 364.917264 107.520489 
L 373.089131 107.520489 
L 369.009591 53.463395 
z
" style="fill:#008000;"/>
   </g>
   <g id="patch_28">
    <path clip-path="url(#p493c055fdb)" d="M 386.283186 21.6 
L 417.557522 21.6 
L 417.557522 48.104286 
L 406.306034 48.104286 
L 406.306034 157.5 
L 397.556493 157.5 
L 397.556493 48.104286 
L 386.283186 48.104286 
z
" style="fill:#ff0000;"/>
   </g>
   <g id="patch_29">
    <path clip-path="url(#p493c055fdb)" d="M 450.477876 145.204152 
Q 447.323808 151.352076 443.931433 154.440074 
Q 440.539057 157.5 436.922393 157.5 
Q 428.749852 157.5 423.976696 139.196592 
Q 419.20354 120.893183 419.20354 89.592109 
Q 419.20354 57.92609 424.060805 39.763045 
Q 428.925078 21.6 437.384989 21.6 
Q 440.644193 21.6 443.630044 24.070399 
Q 446.622904 26.512725 449.272321 31.341231 
L 449.272321 58.431398 
Q 446.538796 52.227329 443.833306 49.167403 
Q 441.127817 46.079405 438.408309 46.079405 
Q 433.375819 46.079405 430.649302 57.364635 
Q 427.922786 68.621793 427.922786 89.592109 
Q 427.922786 110.365916 430.551176 121.707292 
Q 433.179565 133.020595 438.015803 133.020595 
Q 439.333503 133.020595 440.461958 132.374923 
Q 441.590413 131.701177 442.487571 130.297542 
L 442.487571 104.863665 
L 437.335926 104.863665 
L 437.335926 82.208986 
L 450.477876 82.208986 
z
" style="fill:#ffa600;"/>
   </g>
   <g id="patch_30">
    <path clip-path="url(#p493c055fdb)" d="M 473.787654 154.74925 
L 461.760047 154.74925 
L 459.860951 157.5 
L 452.123894 157.5 
L 463.173179 142.4 
L 472.348945 142.4 
L 483.39823 157.5 
L 475.667567 157.5 
z
M 463.678326 151.946721 
L 471.850193 151.946721 
L 467.770653 145.940377 
z
" style="fill:#008000;"/>
   </g>
   <g id="patch_31">
    <path clip-path="url(#p493c055fdb)" d="M 452.123894 127.3 
L 483.39823 127.3 
L 483.39823 130.244921 
L 472.146742 130.244921 
L 472.146742 142.4 
L 463.397201 142.4 
L 463.397201 130.244921 
L 452.123894 130.244921 
z
" style="fill:#ff0000;"/>
   </g>
   <g id="patch_32">
    <path clip-path="url(#p493c055fdb)" d="M 483.39823 124.052923 
Q 480.782186 125.662425 477.953391 126.476534 
Q 475.124596 127.3 472.043652 127.3 
Q 462.855979 127.3 457.489936 121.198864 
Q 452.123894 115.097728 452.123894 104.664036 
Q 452.123894 94.192915 457.489936 88.101136 
Q 462.855979 82 472.043652 82 
Q 475.124596 82 477.953391 82.823466 
Q 480.782186 83.637575 483.39823 85.247077 
L 483.39823 94.277133 
Q 480.758547 92.143607 478.19766 91.151704 
Q 475.636773 90.159802 472.807979 90.159802 
Q 467.733483 90.159802 464.825892 94.024478 
Q 461.92618 97.879798 461.92618 104.664036 
Q 461.92618 111.420202 464.825892 115.284879 
Q 467.733483 119.140198 472.807979 119.140198 
Q 475.636773 119.140198 478.19766 118.148296 
Q 480.758547 117.147036 483.39823 115.01351 
z
" style="fill:#0000ff;"/>
   </g>
   <g id="patch_33">
    <path clip-path="url(#p493c055fdb)" d="M 483.39823 76.535179 
Q 480.244162 79.267589 476.851787 80.640033 
Q 473.459411 82 469.842747 82 
Q 461.670206 82 456.89705 73.865152 
Q 452.123894 65.730304 452.123894 51.818715 
Q 452.123894 37.744929 456.981158 29.672464 
Q 461.845432 21.6 470.305343 21.6 
Q 473.564547 21.6 476.550398 22.697955 
Q 479.543258 23.783433 482.192675 25.929436 
L 482.192675 37.96951 
Q 479.45915 35.212146 476.75366 33.852179 
Q 474.048171 32.479736 471.328663 32.479736 
Q 466.296173 32.479736 463.569656 37.495394 
Q 460.84314 42.498575 460.84314 51.818715 
Q 460.84314 61.051518 463.471529 66.09213 
Q 466.099919 71.120264 470.936157 71.120264 
Q 472.253857 71.120264 473.382312 70.833299 
Q 474.510767 70.533857 475.407925 69.910019 
L 475.407925 58.606073 
L 470.25628 58.606073 
L 470.25628 48.537327 
L 483.39823 48.537327 
z
" style="fill:#ffa600;"/>
   </g>
   <g id="patch_34">
    <path clip-path="url(#p493c055fdb)" d="M 516.318584 153.401384 
Q 513.164516 155.450692 509.772141 156.480025 
Q 506.379765 157.5 502.763101 157.5 
Q 494.59056 157.5 489.817404 151.398864 
Q 485.044248 145.297728 485.044248 134.864036 
Q 485.044248 124.308697 489.901512 118.254348 
Q 494.765786 112.2 503.225697 112.2 
Q 506.484901 112.2 509.470752 113.023466 
Q 512.463612 113.837575 515.113029 115.447077 
L 515.113029 124.477133 
Q 512.379504 122.40911 509.674014 121.389134 
Q 506.968525 120.359802 504.249017 120.359802 
Q 499.216527 120.359802 496.49001 124.121545 
Q 493.763493 127.873931 493.763493 134.864036 
Q 493.763493 141.788639 496.391883 145.569097 
Q 499.020273 149.340198 503.856511 149.340198 
Q 505.174211 149.340198 506.302666 149.124974 
Q 507.431121 148.900392 508.328279 148.432514 
L 508.328279 139.954555 
L 503.176634 139.954555 
L 503.176634 132.402995 
L 516.318584 132.402995 
z
" style="fill:#ffa600;"/>
   </g>
   <g id="patch_35">
    <path clip-path="url(#p493c055fdb)" d="M 516.318584 105.705846 
Q 513.70254 108.92485 510.873745 110.553068 
Q 508.04495 112.2 504.964006 112.2 
Q 495.776333 112.2 490.41029 99.997728 
Q 485.044248 87.795455 485.044248 66.928073 
Q 485.044248 45.985829 490.41029 33.802272 
Q 495.776333 21.6 504.964006 21.6 
Q 508.04495 21.6 510.873745 23.246932 
Q 513.70254 24.87515 516.318584 28.094154 
L 516.318584 46.154266 
Q 513.678901 41.887213 511.118014 39.903408 
Q 508.557127 37.919603 505.728333 37.919603 
Q 500.653837 37.919603 497.746246 45.648957 
Q 494.846534 53.359595 494.846534 66.928073 
Q 494.846534 80.440405 497.746246 88.169758 
Q 500.653837 95.880397 505.728333 95.880397 
Q 508.557127 95.880397 511.118014 93.896592 
Q 513.678901 91.894071 516.318584 87.627019 
z
" style="fill:#0000ff;"/>
   </g>
   <g id="patch_36">
    <path clip-path="url(#p493c055fdb)" d="M 539.628362 154.74925 
L 527.600755 154.74925 
L 525.701659 157.5 
L 517.964602 157.5 
L 529.013887 142.4 
L 538.189653 142.4 
L 549.238938 157.5 
L 541.508275 157.5 
z
M 529.519034 151.946721 
L 537.690901 151.946721 
L 533.611361 145.940377 
z
" style="fill:#008000;"/>
   </g>
   <g id="patch_37">
    <path clip-path="url(#p493c055fdb)" d="M 549.238938 140.235282 
Q 546.622894 141.308283 543.794099 141.851023 
Q 540.965304 142.4 537.88436 142.4 
Q 528.696687 142.4 523.330644 138.332576 
Q 517.964602 134.265152 517.964602 127.309358 
Q 517.964602 120.32861 523.330644 116.267424 
Q 528.696687 112.2 537.88436 112.2 
Q 540.965304 112.2 543.794099 112.748977 
Q 546.622894 113.291717 549.238938 114.364718 
L 549.238938 120.384755 
Q 546.599255 118.962404 544.038368 118.301136 
Q 541.477481 117.639868 538.648687 117.639868 
Q 533.574191 117.639868 530.6666 120.216319 
Q 527.766888 122.786532 527.766888 127.309358 
Q 527.766888 131.813468 530.6666 134.389919 
Q 533.574191 136.960132 538.648687 136.960132 
Q 541.477481 136.960132 544.038368 136.298864 
Q 546.599255 135.631357 549.238938 134.209006 
z
" style="fill:#0000ff;"/>
   </g>
   <g id="patch_38">
    <path clip-path="url(#p493c055fdb)" d="M 549.238938 104.002768 
Q 546.08487 108.101384 542.692495 110.16005 
Q 539.300119 112.2 535.683455 112.2 
Q 527.510914 112.2 522.737758 99.997728 
Q 517.964602 87.795455 517.964602 66.928073 
Q 517.964602 45.817393 522.821866 33.708697 
Q 527.68614 21.6 536.146051 21.6 
Q 539.405255 21.6 542.391106 23.246932 
Q 545.383966 24.87515 548.033383 28.094154 
L 548.033383 46.154266 
Q 545.299858 42.018219 542.594368 39.978269 
Q 539.888879 37.919603 537.169371 37.919603 
Q 532.136881 37.919603 529.410364 45.44309 
Q 526.683847 52.947862 526.683847 66.928073 
Q 526.683847 80.777277 529.312237 88.338195 
Q 531.940627 95.880397 536.776865 95.880397 
Q 538.094565 95.880397 539.22302 95.449948 
Q 540.351475 95.000785 541.248633 94.065028 
L 541.248633 77.10911 
L 536.096988 77.10911 
L 536.096988 62.00599 
L 549.238938 62.00599 
z
" style="fill:#ffa600;"/>
   </g>
   <g id="patch_39">
    <path clip-path="url(#p493c055fdb)" d="M 572.548716 154.74925 
L 560.521109 154.74925 
L 558.622013 157.5 
L 550.884956 157.5 
L 561.934241 142.4 
L 571.110007 142.4 
L 582.159292 157.5 
L 574.428629 157.5 
z
M 562.439387 151.946721 
L 570.611255 151.946721 
L 566.531715 145.940377 
z
" style="fill:#008000;"/>
   </g>
   <g id="patch_40">
    <path clip-path="url(#p493c055fdb)" d="M 582.159292 139.667589 
Q 579.005224 141.033795 575.612849 141.720017 
Q 572.220473 142.4 568.603809 142.4 
Q 560.431268 142.4 555.658112 138.332576 
Q 550.884956 134.265152 550.884956 127.309358 
Q 550.884956 120.272464 555.74222 116.236232 
Q 560.606494 112.2 569.066405 112.2 
Q 572.325609 112.2 575.31146 112.748977 
Q 578.30432 113.291717 580.953737 114.364718 
L 580.953737 120.384755 
Q 578.220212 119.006073 575.514722 118.32609 
Q 572.809233 117.639868 570.089725 117.639868 
Q 565.057235 117.639868 562.330718 120.147697 
Q 559.604201 122.649287 559.604201 127.309358 
Q 559.604201 131.925759 562.232591 134.446065 
Q 564.860981 136.960132 569.697219 136.960132 
Q 571.014919 136.960132 572.143374 136.816649 
Q 573.271829 136.666928 574.168986 136.355009 
L 574.168986 130.703037 
L 569.017342 130.703037 
L 569.017342 125.668663 
L 582.159292 125.668663 
z
" style="fill:#ffa600;"/>
   </g>
   <g id="patch_41">
    <path clip-path="url(#p493c055fdb)" d="M 582.159292 108.952923 
Q 579.543248 110.562425 576.714453 111.376534 
Q 573.885658 112.2 570.804714 112.2 
Q 561.617041 112.2 556.250998 106.098864 
Q 550.884956 99.997728 550.884956 89.564036 
Q 550.884956 79.092915 556.250998 73.001136 
Q 561.617041 66.9 570.804714 66.9 
Q 573.885658 66.9 576.714453 67.723466 
Q 579.543248 68.537575 582.159292 70.147077 
L 582.159292 79.177133 
Q 579.519609 77.043607 576.958722 76.051704 
Q 574.397835 75.059802 571.569041 75.059802 
Q 566.494545 75.059802 563.586954 78.924478 
Q 560.687242 82.779798 560.687242 89.564036 
Q 560.687242 96.320202 563.586954 100.184879 
Q 566.494545 104.040198 571.569041 104.040198 
Q 574.397835 104.040198 576.958722 103.048296 
Q 579.519609 102.047036 582.159292 99.91351 
z
" style="fill:#0000ff;"/>
   </g>
   <g id="patch_42">
    <path clip-path="url(#p493c055fdb)" d="M 550.884956 21.6 
L 582.159292 21.6 
L 582.159292 30.434762 
L 570.907804 30.434762 
L 570.907804 66.9 
L 562.158263 66.9 
L 562.158263 30.434762 
L 550.884956 30.434762 
z
" style="fill:#ff0000;"/>
   </g>
   <g id="patch_43">
    <path clip-path="url(#p493c055fdb)" d="M 605.46907 154.74925 
L 593.441463 154.74925 
L 591.542367 157.5 
L 583.80531 157.5 
L 594.854595 142.4 
L 604.030361 142.4 
L 615.079646 157.5 
L 607.348983 157.5 
z
M 595.359741 151.946721 
L 603.531609 151.946721 
L 599.452069 145.940377 
z
" style="fill:#008000;"/>
   </g>
   <g id="patch_44">
    <path clip-path="url(#p493c055fdb)" d="M 615.079646 140.235282 
Q 612.463602 141.308283 609.634807 141.851023 
Q 606.806012 142.4 603.725068 142.4 
Q 594.537395 142.4 589.171352 138.332576 
Q 583.80531 134.265152 583.80531 127.309358 
Q 583.80531 120.32861 589.171352 116.267424 
Q 594.537395 112.2 603.725068 112.2 
Q 606.806012 112.2 609.634807 112.748977 
Q 612.463602 113.291717 615.079646 114.364718 
L 615.079646 120.384755 
Q 612.439963 118.962404 609.879076 118.301136 
Q 607.318189 117.639868 604.489395 117.639868 
Q 599.414899 117.639868 596.507308 120.216319 
Q 593.607596 122.786532 593.607596 127.309358 
Q 593.607596 131.813468 596.507308 134.389919 
Q 599.414899 136.960132 604.489395 136.960132 
Q 607.318189 136.960132 609.879076 136.298864 
Q 612.439963 135.631357 615.079646 134.209006 
z
" style="fill:#0000ff;"/>
   </g>
   <g id="patch_45">
    <path clip-path="url(#p493c055fdb)" d="M 583.80531 82 
L 615.079646 82 
L 615.079646 87.889841 
L 603.828158 87.889841 
L 603.828158 112.2 
L 595.078617 112.2 
L 595.078617 87.889841 
L 583.80531 87.889841 
z
" style="fill:#ff0000;"/>
   </g>
   <g id="patch_46">
    <path clip-path="url(#p493c055fdb)" d="M 615.079646 76.535179 
Q 611.925578 79.267589 608.533203 80.640033 
Q 605.140827 82 601.524163 82 
Q 593.351622 82 588.578466 73.865152 
Q 583.80531 65.730304 583.80531 51.818715 
Q 583.80531 37.744929 588.662574 29.672464 
Q 593.526848 21.6 601.986759 21.6 
Q 605.245963 21.6 608.231814 22.697955 
Q 611.224674 23.783433 613.874091 25.929436 
L 613.874091 37.96951 
Q 611.140566 35.212146 608.435076 33.852179 
Q 605.729587 32.479736 603.010079 32.479736 
Q 597.977589 32.479736 595.251072 37.495394 
Q 592.524555 42.498575 592.524555 51.818715 
Q 592.524555 61.051518 595.152945 66.09213 
Q 597.781335 71.120264 602.617573 71.120264 
Q 603.935272 71.120264 605.063728 70.833299 
Q 606.192183 70.533857 607.08934 69.910019 
L 607.08934 58.606073 
L 601.937696 58.606073 
L 601.937696 48.537327 
L 615.079646 48.537327 
z
" style="fill:#ffa600;"/>
   </g>
   <g id="patch_47">
    <path clip-path="url(#p493c055fdb)" d="M 638.389424 154.74925 
L 626.361817 154.74925 
L 624.462721 157.5 
L 616.725664 157.5 
L 627.774949 142.4 
L 636.950715 142.4 
L 648 157.5 
L 640.269337 157.5 
z
M 628.280095 151.946721 
L 636.451963 151.946721 
L 632.372423 145.940377 
z
" style="fill:#008000;"/>
   </g>
   <g id="patch_48">
    <path clip-path="url(#p493c055fdb)" d="M 648 139.667589 
Q 644.845932 141.033795 641.453557 141.720017 
Q 638.061181 142.4 634.444517 142.4 
Q 626.271976 142.4 621.49882 138.332576 
Q 616.725664 134.265152 616.725664 127.309358 
Q 616.725664 120.272464 621.582928 116.236232 
Q 626.447202 112.2 634.907113 112.2 
Q 638.166317 112.2 641.152168 112.748977 
Q 644.145028 113.291717 646.794445 114.364718 
L 646.794445 120.384755 
Q 644.06092 119.006073 641.35543 118.32609 
Q 638.649941 117.639868 635.930433 117.639868 
Q 630.897943 117.639868 628.171426 120.147697 
Q 625.444909 122.649287 625.444909 127.309358 
Q 625.444909 131.925759 628.073299 134.446065 
Q 630.701689 136.960132 635.537927 136.960132 
Q 636.855626 136.960132 637.984082 136.816649 
Q 639.112537 136.666928 640.009694 136.355009 
L 640.009694 130.703037 
L 634.85805 130.703037 
L 634.85805 125.668663 
L 648 125.668663 
z
" style="fill:#ffa600;"/>
   </g>
   <g id="patch_49">
    <path clip-path="url(#p493c055fdb)" d="M 616.725664 82 
L 648 82 
L 648 87.889841 
L 636.748512 87.889841 
L 636.748512 112.2 
L 627.998971 112.2 
L 627.998971 87.889841 
L 616.725664 87.889841 
z
" style="fill:#ff0000;"/>
   </g>
   <g id="patch_50">
    <path clip-path="url(#p493c055fdb)" d="M 648 77.670564 
Q 645.383956 79.816567 642.555161 80.902045 
Q 639.726366 82 636.645422 82 
Q 627.457749 82 622.091706 73.865152 
Q 616.725664 65.730304 616.725664 51.818715 
Q 616.725664 37.85722 622.091706 29.734848 
Q 627.457749 21.6 636.645422 21.6 
Q 639.726366 21.6 642.555161 22.697955 
Q 645.383956 23.783433 648 25.929436 
L 648 37.96951 
Q 645.360317 35.124809 642.79943 33.802272 
Q 640.238543 32.479736 637.409749 32.479736 
Q 632.335253 32.479736 629.427662 37.632638 
Q 626.52795 42.773063 626.52795 51.818715 
Q 626.52795 60.826937 629.427662 65.979839 
Q 632.335253 71.120264 637.409749 71.120264 
Q 640.238543 71.120264 642.79943 69.797728 
Q 645.360317 68.462714 648 65.618013 
z
" style="fill:#0000ff;"/>
   </g>
  </g>
 </g>
 <defs>
  <clipPath id="p493c055fdb">
   <rect height="135.9" width="558" x="90" y="21.6"/>
  </clipPath>
 </defs>
</svg>
