<?xml version="1.0" encoding="utf-8" standalone="no"?>
<!DOCTYPE svg PUBLIC "-//W3C//DTD SVG 1.1//EN"
  "http://www.w3.org/Graphics/SVG/1.1/DTD/svg11.dtd">
<!-- Created with matplotlib (https://matplotlib.org/) -->
<svg height="180pt" version="1.1" viewBox="0 0 720 180" width="720pt" xmlns="http://www.w3.org/2000/svg" xmlns:xlink="http://www.w3.org/1999/xlink">
 <metadata>
  <rdf:RDF xmlns:cc="http://creativecommons.org/ns#" xmlns:dc="http://purl.org/dc/elements/1.1/" xmlns:rdf="http://www.w3.org/1999/02/22-rdf-syntax-ns#">
   <cc:Work>
    <dc:type rdf:resource="http://purl.org/dc/dcmitype/StillImage"/>
    <dc:date>2021-08-04T23:33:24.739928</dc:date>
    <dc:format>image/svg+xml</dc:format>
    <dc:creator>
     <cc:Agent>
      <dc:title>Matplotlib v3.3.2, https://matplotlib.org/</dc:title>
     </cc:Agent>
    </dc:creator>
   </cc:Work>
  </rdf:RDF>
 </metadata>
 <defs>
  <style type="text/css">*{stroke-linecap:butt;stroke-linejoin:round;}</style>
 </defs>
 <g id="figure_1">
  <g id="patch_1">
   <path d="M 0 180 
L 720 180 
L 720 0 
L 0 0 
z
" style="fill:none;"/>
  </g>
  <g id="axes_1">
   <g id="line2d_1">
    <path clip-path="url(#p8bc862c46a)" d="M 90 157.5 
L 648 157.5 
" style="fill:none;stroke:#000000;stroke-linecap:square;stroke-width:0.5;"/>
   </g>
   <g id="patch_2">
    <path clip-path="url(#p8bc862c46a)" d="M 121.274336 155.335282 
Q 118.658292 156.408283 115.829497 156.951023 
Q 113.000702 157.5 109.919759 157.5 
Q 100.732085 157.5 95.366043 153.432576 
Q 90 149.365152 90 142.409358 
Q 90 135.42861 95.366043 131.367424 
Q 100.732085 127.3 109.919759 127.3 
Q 113.000702 127.3 115.829497 127.848977 
Q 118.658292 128.391717 121.274336 129.464718 
L 121.274336 135.484755 
Q 118.634653 134.062404 116.073766 133.401136 
Q 113.51288 132.739868 110.684085 132.739868 
Q 105.609589 132.739868 102.701998 135.316319 
Q 99.802286 137.886532 99.802286 142.409358 
Q 99.802286 146.913468 102.701998 149.489919 
Q 105.609589 152.060132 110.684085 152.060132 
Q 113.51288 152.060132 116.073766 151.398864 
Q 118.634653 150.731357 121.274336 149.309006 
z
" style="fill:#0000ff;"/>
   </g>
   <g id="patch_3">
    <path clip-path="url(#p8bc862c46a)" d="M 121.274336 124.567589 
Q 118.120268 125.933795 114.727893 126.620017 
Q 111.335518 127.3 107.718853 127.3 
Q 99.546312 127.3 94.773156 123.232576 
Q 90 119.165152 90 112.209358 
Q 90 105.172464 94.857265 101.136232 
Q 99.721538 97.1 108.18145 97.1 
Q 111.440653 97.1 114.426504 97.648977 
Q 117.419364 98.191717 120.068781 99.264718 
L 120.068781 105.284755 
Q 117.335256 103.906073 114.629766 103.22609 
Q 111.924277 102.539868 109.204769 102.539868 
Q 104.172279 102.539868 101.445762 105.047697 
Q 98.719246 107.549287 98.719246 112.209358 
Q 98.719246 116.825759 101.347636 119.346065 
Q 103.976026 121.860132 108.812263 121.860132 
Q 110.129963 121.860132 111.258418 121.716649 
Q 112.386874 121.566928 113.284031 121.255009 
L 113.284031 115.603037 
L 108.132386 115.603037 
L 108.132386 110.568663 
L 121.274336 110.568663 
z
" style="fill:#ffa600;"/>
   </g>
   <g id="patch_4">
    <path clip-path="url(#p8bc862c46a)" d="M 111.66376 83.346249 
L 99.636153 83.346249 
L 97.737057 97.1 
L 90 97.1 
L 101.049285 21.6 
L 110.225051 21.6 
L 121.274336 97.1 
L 113.543673 97.1 
z
M 101.554432 69.333605 
L 109.726299 69.333605 
L 105.64676 39.301886 
z
" style="fill:#008000;"/>
   </g>
   <g id="patch_5">
    <path clip-path="url(#p8bc862c46a)" d="M 154.19469 153.401384 
Q 151.040622 155.450692 147.648247 156.480025 
Q 144.255872 157.5 140.639207 157.5 
Q 132.466666 157.5 127.69351 151.398864 
Q 122.920354 145.297728 122.920354 134.864036 
Q 122.920354 124.308697 127.777619 118.254348 
Q 132.641892 112.2 141.101804 112.2 
Q 144.361007 112.2 147.346858 113.023466 
Q 150.339718 113.837575 152.989135 115.447077 
L 152.989135 124.477133 
Q 150.25561 122.40911 147.55012 121.389134 
Q 144.844631 120.359802 142.125123 120.359802 
Q 137.092633 120.359802 134.366116 124.121545 
Q 131.6396 127.873931 131.6396 134.864036 
Q 131.6396 141.788639 134.26799 145.569097 
Q 136.89638 149.340198 141.732617 149.340198 
Q 143.050317 149.340198 144.178772 149.124974 
Q 145.307228 148.900392 146.204385 148.432514 
L 146.204385 139.954555 
L 141.05274 139.954555 
L 141.05274 132.402995 
L 154.19469 132.402995 
z
" style="fill:#ffa600;"/>
   </g>
   <g id="patch_6">
    <path clip-path="url(#p8bc862c46a)" d="M 144.584114 95.695499 
L 132.556507 95.695499 
L 130.657411 112.2 
L 122.920354 112.2 
L 133.969639 21.6 
L 143.145405 21.6 
L 154.19469 112.2 
L 146.464027 112.2 
z
M 134.474786 78.880326 
L 142.646653 78.880326 
L 138.567114 42.842263 
z
" style="fill:#008000;"/>
   </g>
   <g id="patch_7">
    <path clip-path="url(#p8bc862c46a)" d="M 187.115044 156.133795 
Q 183.960976 156.816897 180.568601 157.160008 
Q 177.176226 157.5 173.559561 157.5 
Q 165.38702 157.5 160.613864 155.466288 
Q 155.840708 153.432576 155.840708 149.954679 
Q 155.840708 146.436232 160.697973 144.418116 
Q 165.562246 142.4 174.022158 142.4 
Q 177.281361 142.4 180.267212 142.674489 
Q 183.260072 142.945858 185.909489 143.482359 
L 185.909489 146.492378 
Q 183.175964 145.803037 180.470474 145.463045 
Q 177.764985 145.119934 175.045477 145.119934 
Q 170.012987 145.119934 167.28647 146.373848 
Q 164.559954 147.624644 164.559954 149.954679 
Q 164.559954 152.26288 167.188344 153.523032 
Q 169.816734 154.780066 174.652971 154.780066 
Q 175.970671 154.780066 177.099126 154.708325 
Q 178.227582 154.633464 179.124739 154.477505 
L 179.124739 151.651518 
L 173.973094 151.651518 
L 173.973094 149.134332 
L 187.115044 149.134332 
z
" style="fill:#ffa600;"/>
   </g>
   <g id="patch_8">
    <path clip-path="url(#p8bc862c46a)" d="M 187.115044 140.235282 
Q 184.499 141.308283 181.670205 141.851023 
Q 178.84141 142.4 175.760467 142.4 
Q 166.572793 142.4 161.206751 138.332576 
Q 155.840708 134.265152 155.840708 127.309358 
Q 155.840708 120.32861 161.206751 116.267424 
Q 166.572793 112.2 175.760467 112.2 
Q 178.84141 112.2 181.670205 112.748977 
Q 184.499 113.291717 187.115044 114.364718 
L 187.115044 120.384755 
Q 184.475361 118.962404 181.914474 118.301136 
Q 179.353588 117.639868 176.524793 117.639868 
Q 171.450297 117.639868 168.542706 120.216319 
Q 165.642994 122.786532 165.642994 127.309358 
Q 165.642994 131.813468 168.542706 134.389919 
Q 171.450297 136.960132 176.524793 136.960132 
Q 179.353588 136.960132 181.914474 136.298864 
Q 184.475361 135.631357 187.115044 134.209006 
z
" style="fill:#0000ff;"/>
   </g>
   <g id="patch_9">
    <path clip-path="url(#p8bc862c46a)" d="M 155.840708 82 
L 187.115044 82 
L 187.115044 87.889841 
L 175.863556 87.889841 
L 175.863556 112.2 
L 167.114015 112.2 
L 167.114015 87.889841 
L 155.840708 87.889841 
z
" style="fill:#ff0000;"/>
   </g>
   <g id="patch_10">
    <path clip-path="url(#p8bc862c46a)" d="M 177.504468 70.997 
L 165.476861 70.997 
L 163.577765 82 
L 155.840708 82 
L 166.889993 21.6 
L 176.065759 21.6 
L 187.115044 82 
L 179.384381 82 
z
M 167.39514 59.786884 
L 175.567007 59.786884 
L 171.487467 35.761509 
z
" style="fill:#008000;"/>
   </g>
   <g id="patch_11">
    <path clip-path="url(#p8bc862c46a)" d="M 210.424822 151.9985 
L 198.397215 151.9985 
L 196.498119 157.5 
L 188.761062 157.5 
L 199.810347 127.3 
L 208.986113 127.3 
L 220.035398 157.5 
L 212.304735 157.5 
z
M 200.315494 146.393442 
L 208.487361 146.393442 
L 204.407821 134.380754 
z
" style="fill:#008000;"/>
   </g>
   <g id="patch_12">
    <path clip-path="url(#p8bc862c46a)" d="M 220.035398 125.135282 
Q 217.419354 126.208283 214.590559 126.751023 
Q 211.761764 127.3 208.680821 127.3 
Q 199.493147 127.3 194.127105 123.232576 
Q 188.761062 119.165152 188.761062 112.209358 
Q 188.761062 105.22861 194.127105 101.167424 
Q 199.493147 97.1 208.680821 97.1 
Q 211.761764 97.1 214.590559 97.648977 
Q 217.419354 98.191717 220.035398 99.264718 
L 220.035398 105.284755 
Q 217.395715 103.862404 214.834828 103.201136 
Q 212.273942 102.539868 209.445147 102.539868 
Q 204.370651 102.539868 201.46306 105.116319 
Q 198.563348 107.686532 198.563348 112.209358 
Q 198.563348 116.713468 201.46306 119.289919 
Q 204.370651 121.860132 209.445147 121.860132 
Q 212.273942 121.860132 214.834828 121.198864 
Q 217.395715 120.531357 220.035398 119.109006 
z
" style="fill:#0000ff;"/>
   </g>
   <g id="patch_13">
    <path clip-path="url(#p8bc862c46a)" d="M 220.035398 90.268973 
Q 216.88133 93.684487 213.488955 95.400041 
Q 210.09658 97.1 206.479915 97.1 
Q 198.307374 97.1 193.534218 86.93144 
Q 188.761062 76.76288 188.761062 59.373394 
Q 188.761062 41.781161 193.618327 31.69058 
Q 198.4826 21.6 206.942512 21.6 
Q 210.201715 21.6 213.187566 22.972444 
Q 216.180426 24.329291 218.829843 27.011795 
L 218.829843 42.061888 
Q 216.096318 38.615183 213.390828 36.915224 
Q 210.685339 35.199669 207.965831 35.199669 
Q 202.933341 35.199669 200.206824 41.469242 
Q 197.480308 47.723218 197.480308 59.373394 
Q 197.480308 70.914398 200.108698 77.215162 
Q 202.737088 83.500331 207.573325 83.500331 
Q 208.891025 83.500331 210.01948 83.141624 
Q 211.147936 82.767321 212.045093 81.987523 
L 212.045093 67.857591 
L 206.893448 67.857591 
L 206.893448 55.271659 
L 220.035398 55.271659 
z
" style="fill:#ffa600;"/>
   </g>
   <g id="patch_14">
    <path clip-path="url(#p8bc862c46a)" d="M 243.345176 132.743249 
L 231.317569 132.743249 
L 229.418473 157.5 
L 221.681416 157.5 
L 232.730701 21.6 
L 241.906467 21.6 
L 252.955752 157.5 
L 245.225089 157.5 
z
M 233.235848 107.520489 
L 241.407715 107.520489 
L 237.328175 53.463395 
z
" style="fill:#008000;"/>
   </g>
   <g id="patch_15">
    <path clip-path="url(#p8bc862c46a)" d="M 254.60177 21.6 
L 285.876106 21.6 
L 285.876106 48.104286 
L 274.624618 48.104286 
L 274.624618 157.5 
L 265.875077 157.5 
L 265.875077 48.104286 
L 254.60177 48.104286 
z
" style="fill:#ff0000;"/>
   </g>
   <g id="patch_16">
    <path clip-path="url(#p8bc862c46a)" d="M 318.79646 145.204152 
Q 315.642392 151.352076 312.250017 154.440074 
Q 308.857642 157.5 305.240977 157.5 
Q 297.068436 157.5 292.29528 139.196592 
Q 287.522124 120.893183 287.522124 89.592109 
Q 287.522124 57.92609 292.379389 39.763045 
Q 297.243662 21.6 305.703574 21.6 
Q 308.962777 21.6 311.948628 24.070399 
Q 314.941488 26.512725 317.590905 31.341231 
L 317.590905 58.431398 
Q 314.85738 52.227329 312.15189 49.167403 
Q 309.446401 46.079405 306.726893 46.079405 
Q 301.694403 46.079405 298.967886 57.364635 
Q 296.24137 68.621793 296.24137 89.592109 
Q 296.24137 110.365916 298.86976 121.707292 
Q 301.49815 133.020595 306.334387 133.020595 
Q 307.652087 133.020595 308.780542 132.374923 
Q 309.908998 131.701177 310.806155 130.297542 
L 310.806155 104.863665 
L 305.65451 104.863665 
L 305.65451 82.208986 
L 318.79646 82.208986 
z
" style="fill:#ffa600;"/>
   </g>
   <g id="patch_17">
    <path clip-path="url(#p8bc862c46a)" d="M 351.716814 145.204152 
Q 348.562746 151.352076 345.170371 154.440074 
Q 341.777996 157.5 338.161331 157.5 
Q 329.98879 157.5 325.215634 139.196592 
Q 320.442478 120.893183 320.442478 89.592109 
Q 320.442478 57.92609 325.299743 39.763045 
Q 330.164016 21.6 338.623928 21.6 
Q 341.883131 21.6 344.868982 24.070399 
Q 347.861842 26.512725 350.511259 31.341231 
L 350.511259 58.431398 
Q 347.777734 52.227329 345.072244 49.167403 
Q 342.366755 46.079405 339.647247 46.079405 
Q 334.614757 46.079405 331.88824 57.364635 
Q 329.161724 68.621793 329.161724 89.592109 
Q 329.161724 110.365916 331.790114 121.707292 
Q 334.418504 133.020595 339.254741 133.020595 
Q 340.572441 133.020595 341.700896 132.374923 
Q 342.829351 131.701177 343.726509 130.297542 
L 343.726509 104.863665 
L 338.574864 104.863665 
L 338.574864 82.208986 
L 351.716814 82.208986 
z
" style="fill:#ffa600;"/>
   </g>
   <g id="patch_18">
    <path clip-path="url(#p8bc862c46a)" d="M 384.637168 156.133795 
Q 381.4831 156.816897 378.090725 157.160008 
Q 374.698349 157.5 371.081685 157.5 
Q 362.909144 157.5 358.135988 155.466288 
Q 353.362832 153.432576 353.362832 149.954679 
Q 353.362832 146.436232 358.220097 144.418116 
Q 363.08437 142.4 371.544282 142.4 
Q 374.803485 142.4 377.789336 142.674489 
Q 380.782196 142.945858 383.431613 143.482359 
L 383.431613 146.492378 
Q 380.698088 145.803037 377.992598 145.463045 
Q 375.287109 145.119934 372.567601 145.119934 
Q 367.535111 145.119934 364.808594 146.373848 
Q 362.082078 147.624644 362.082078 149.954679 
Q 362.082078 152.26288 364.710468 153.523032 
Q 367.338858 154.780066 372.175095 154.780066 
Q 373.492795 154.780066 374.62125 154.708325 
Q 375.749705 154.633464 376.646863 154.477505 
L 376.646863 151.651518 
L 371.495218 151.651518 
L 371.495218 149.134332 
L 384.637168 149.134332 
z
" style="fill:#ffa600;"/>
   </g>
   <g id="patch_19">
    <path clip-path="url(#p8bc862c46a)" d="M 384.637168 133.741128 
Q 382.021124 138.033134 379.192329 140.20409 
Q 376.363534 142.4 373.282591 142.4 
Q 364.094917 142.4 358.728874 126.130304 
Q 353.362832 109.860607 353.362832 82.03743 
Q 353.362832 54.114439 358.728874 37.869696 
Q 364.094917 21.6 373.282591 21.6 
Q 376.363534 21.6 379.192329 23.79591 
Q 382.021124 25.966866 384.637168 30.258872 
L 384.637168 54.339021 
Q 381.997485 48.649618 379.436598 46.004545 
Q 376.875712 43.359471 374.046917 43.359471 
Q 368.972421 43.359471 366.06483 53.665276 
Q 363.165118 63.946127 363.165118 82.03743 
Q 363.165118 100.053873 366.06483 110.359678 
Q 368.972421 120.640529 374.046917 120.640529 
Q 376.875712 120.640529 379.436598 117.995455 
Q 381.997485 115.325429 384.637168 109.636026 
z
" style="fill:#0000ff;"/>
   </g>
   <g id="patch_20">
    <path clip-path="url(#p8bc862c46a)" d="M 386.283186 142.4 
L 417.557522 142.4 
L 417.557522 145.344921 
L 406.306034 145.344921 
L 406.306034 157.5 
L 397.556493 157.5 
L 397.556493 145.344921 
L 386.283186 145.344921 
z
" style="fill:#ff0000;"/>
   </g>
   <g id="patch_21">
    <path clip-path="url(#p8bc862c46a)" d="M 417.557522 138.070564 
Q 414.941478 140.216567 412.112683 141.302045 
Q 409.283888 142.4 406.202945 142.4 
Q 397.015271 142.4 391.649228 134.265152 
Q 386.283186 126.130304 386.283186 112.218715 
Q 386.283186 98.25722 391.649228 90.134848 
Q 397.015271 82 406.202945 82 
Q 409.283888 82 412.112683 83.097955 
Q 414.941478 84.183433 417.557522 86.329436 
L 417.557522 98.36951 
Q 414.917839 95.524809 412.356952 94.202272 
Q 409.796066 92.879736 406.967271 92.879736 
Q 401.892775 92.879736 398.985184 98.032638 
Q 396.085472 103.173063 396.085472 112.218715 
Q 396.085472 121.226937 398.985184 126.379839 
Q 401.892775 131.520264 406.967271 131.520264 
Q 409.796066 131.520264 412.356952 130.197728 
Q 414.917839 128.862714 417.557522 126.018013 
z
" style="fill:#0000ff;"/>
   </g>
   <g id="patch_22">
    <path clip-path="url(#p8bc862c46a)" d="M 417.557522 76.535179 
Q 414.403454 79.267589 411.011079 80.640033 
Q 407.618703 82 404.002039 82 
Q 395.829498 82 391.056342 73.865152 
Q 386.283186 65.730304 386.283186 51.818715 
Q 386.283186 37.744929 391.140451 29.672464 
Q 396.004724 21.6 404.464635 21.6 
Q 407.723839 21.6 410.70969 22.697955 
Q 413.70255 23.783433 416.351967 25.929436 
L 416.351967 37.96951 
Q 413.618442 35.212146 410.912952 33.852179 
Q 408.207463 32.479736 405.487955 32.479736 
Q 400.455465 32.479736 397.728948 37.495394 
Q 395.002432 42.498575 395.002432 51.818715 
Q 395.002432 61.051518 397.630822 66.09213 
Q 400.259212 71.120264 405.095449 71.120264 
Q 406.413149 71.120264 407.541604 70.833299 
Q 408.670059 70.533857 409.567217 69.910019 
L 409.567217 58.606073 
L 404.415572 58.606073 
L 404.415572 48.537327 
L 417.557522 48.537327 
z
" style="fill:#ffa600;"/>
   </g>
   <g id="patch_23">
    <path clip-path="url(#p8bc862c46a)" d="M 450.477876 152.035179 
Q 447.323808 154.767589 443.931433 156.140033 
Q 440.539057 157.5 436.922393 157.5 
Q 428.749852 157.5 423.976696 149.365152 
Q 419.20354 141.230304 419.20354 127.318715 
Q 419.20354 113.244929 424.060805 105.172464 
Q 428.925078 97.1 437.384989 97.1 
Q 440.644193 97.1 443.630044 98.197955 
Q 446.622904 99.283433 449.272321 101.429436 
L 449.272321 113.46951 
Q 446.538796 110.712146 443.833306 109.352179 
Q 441.127817 107.979736 438.408309 107.979736 
Q 433.375819 107.979736 430.649302 112.995394 
Q 427.922786 117.998575 427.922786 127.318715 
Q 427.922786 136.551518 430.551176 141.59213 
Q 433.179565 146.620264 438.015803 146.620264 
Q 439.333503 146.620264 440.461958 146.333299 
Q 441.590413 146.033857 442.487571 145.410019 
L 442.487571 134.106073 
L 437.335926 134.106073 
L 437.335926 124.037327 
L 450.477876 124.037327 
z
" style="fill:#ffa600;"/>
   </g>
   <g id="patch_24">
    <path clip-path="url(#p8bc862c46a)" d="M 450.477876 91.688205 
Q 447.861832 94.370709 445.033037 95.727556 
Q 442.204242 97.1 439.123298 97.1 
Q 429.935625 97.1 424.569582 86.93144 
Q 419.20354 76.76288 419.20354 59.373394 
Q 419.20354 41.921524 424.569582 31.76856 
Q 429.935625 21.6 439.123298 21.6 
Q 442.204242 21.6 445.033037 22.972444 
Q 447.861832 24.329291 450.477876 27.011795 
L 450.477876 42.061888 
Q 447.838193 38.506011 445.277306 36.85284 
Q 442.71642 35.199669 439.887625 35.199669 
Q 434.813129 35.199669 431.905538 41.640797 
Q 429.005826 48.066329 429.005826 59.373394 
Q 429.005826 70.633671 431.905538 77.074799 
Q 434.813129 83.500331 439.887625 83.500331 
Q 442.71642 83.500331 445.277306 81.84716 
Q 447.838193 80.178393 450.477876 76.622516 
z
" style="fill:#0000ff;"/>
   </g>
   <g id="patch_25">
    <path clip-path="url(#p8bc862c46a)" d="M 483.39823 156.133795 
Q 480.244162 156.816897 476.851787 157.160008 
Q 473.459411 157.5 469.842747 157.5 
Q 461.670206 157.5 456.89705 155.466288 
Q 452.123894 153.432576 452.123894 149.954679 
Q 452.123894 146.436232 456.981158 144.418116 
Q 461.845432 142.4 470.305343 142.4 
Q 473.564547 142.4 476.550398 142.674489 
Q 479.543258 142.945858 482.192675 143.482359 
L 482.192675 146.492378 
Q 479.45915 145.803037 476.75366 145.463045 
Q 474.048171 145.119934 471.328663 145.119934 
Q 466.296173 145.119934 463.569656 146.373848 
Q 460.84314 147.624644 460.84314 149.954679 
Q 460.84314 152.26288 463.471529 153.523032 
Q 466.099919 154.780066 470.936157 154.780066 
Q 472.253857 154.780066 473.382312 154.708325 
Q 474.510767 154.633464 475.407925 154.477505 
L 475.407925 151.651518 
L 470.25628 151.651518 
L 470.25628 149.134332 
L 483.39823 149.134332 
z
" style="fill:#ffa600;"/>
   </g>
   <g id="patch_26">
    <path clip-path="url(#p8bc862c46a)" d="M 452.123894 127.3 
L 483.39823 127.3 
L 483.39823 130.244921 
L 472.146742 130.244921 
L 472.146742 142.4 
L 463.397201 142.4 
L 463.397201 130.244921 
L 452.123894 130.244921 
z
" style="fill:#ff0000;"/>
   </g>
   <g id="patch_27">
    <path clip-path="url(#p8bc862c46a)" d="M 483.39823 119.723487 
Q 480.782186 123.478992 477.953391 125.378579 
Q 475.124596 127.3 472.043652 127.3 
Q 462.855979 127.3 457.489936 113.064016 
Q 452.123894 98.828031 452.123894 74.482751 
Q 452.123894 50.050134 457.489936 35.835984 
Q 462.855979 21.6 472.043652 21.6 
Q 475.124596 21.6 477.953391 23.521421 
Q 480.782186 25.421008 483.39823 29.176513 
L 483.39823 50.246643 
Q 480.758547 45.268416 478.19766 42.953976 
Q 475.636773 40.639537 472.807979 40.639537 
Q 467.733483 40.639537 464.825892 49.657116 
Q 461.92618 58.652861 461.92618 74.482751 
Q 461.92618 90.247139 464.825892 99.264718 
Q 467.733483 108.260463 472.807979 108.260463 
Q 475.636773 108.260463 478.19766 105.946024 
Q 480.758547 103.60975 483.39823 98.631522 
z
" style="fill:#0000ff;"/>
   </g>
   <g id="patch_28">
    <path clip-path="url(#p8bc862c46a)" d="M 506.708008 154.74925 
L 494.680401 154.74925 
L 492.781305 157.5 
L 485.044248 157.5 
L 496.093533 142.4 
L 505.269299 142.4 
L 516.318584 157.5 
L 508.587921 157.5 
z
M 496.59868 151.946721 
L 504.770547 151.946721 
L 500.691007 145.940377 
z
" style="fill:#008000;"/>
   </g>
   <g id="patch_29">
    <path clip-path="url(#p8bc862c46a)" d="M 516.318584 139.152923 
Q 513.70254 140.762425 510.873745 141.576534 
Q 508.04495 142.4 504.964006 142.4 
Q 495.776333 142.4 490.41029 136.298864 
Q 485.044248 130.197728 485.044248 119.764036 
Q 485.044248 109.292915 490.41029 103.201136 
Q 495.776333 97.1 504.964006 97.1 
Q 508.04495 97.1 510.873745 97.923466 
Q 513.70254 98.737575 516.318584 100.347077 
L 516.318584 109.377133 
Q 513.678901 107.243607 511.118014 106.251704 
Q 508.557127 105.259802 505.728333 105.259802 
Q 500.653837 105.259802 497.746246 109.124478 
Q 494.846534 112.979798 494.846534 119.764036 
Q 494.846534 126.520202 497.746246 130.384879 
Q 500.653837 134.240198 505.728333 134.240198 
Q 508.557127 134.240198 511.118014 133.248296 
Q 513.678901 132.247036 516.318584 130.11351 
z
" style="fill:#0000ff;"/>
   </g>
   <g id="patch_30">
    <path clip-path="url(#p8bc862c46a)" d="M 516.318584 90.268973 
Q 513.164516 93.684487 509.772141 95.400041 
Q 506.379765 97.1 502.763101 97.1 
Q 494.59056 97.1 489.817404 86.93144 
Q 485.044248 76.76288 485.044248 59.373394 
Q 485.044248 41.781161 489.901512 31.69058 
Q 494.765786 21.6 503.225697 21.6 
Q 506.484901 21.6 509.470752 22.972444 
Q 512.463612 24.329291 515.113029 27.011795 
L 515.113029 42.061888 
Q 512.379504 38.615183 509.674014 36.915224 
Q 506.968525 35.199669 504.249017 35.199669 
Q 499.216527 35.199669 496.49001 41.469242 
Q 493.763493 47.723218 493.763493 59.373394 
Q 493.763493 70.914398 496.391883 77.215162 
Q 499.020273 83.500331 503.856511 83.500331 
Q 505.174211 83.500331 506.302666 83.141624 
Q 507.431121 82.767321 508.328279 81.987523 
L 508.328279 67.857591 
L 503.176634 67.857591 
L 503.176634 55.271659 
L 516.318584 55.271659 
z
" style="fill:#ffa600;"/>
   </g>
   <g id="patch_31">
    <path clip-path="url(#p8bc862c46a)" d="M 539.628362 151.9985 
L 527.600755 151.9985 
L 525.701659 157.5 
L 517.964602 157.5 
L 529.013887 127.3 
L 538.189653 127.3 
L 549.238938 157.5 
L 541.508275 157.5 
z
M 529.519034 146.393442 
L 537.690901 146.393442 
L 533.611361 134.380754 
z
" style="fill:#008000;"/>
   </g>
   <g id="patch_32">
    <path clip-path="url(#p8bc862c46a)" d="M 549.238938 124.567589 
Q 546.08487 125.933795 542.692495 126.620017 
Q 539.300119 127.3 535.683455 127.3 
Q 527.510914 127.3 522.737758 123.232576 
Q 517.964602 119.165152 517.964602 112.209358 
Q 517.964602 105.172464 522.821866 101.136232 
Q 527.68614 97.1 536.146051 97.1 
Q 539.405255 97.1 542.391106 97.648977 
Q 545.383966 98.191717 548.033383 99.264718 
L 548.033383 105.284755 
Q 545.299858 103.906073 542.594368 103.22609 
Q 539.888879 102.539868 537.169371 102.539868 
Q 532.136881 102.539868 529.410364 105.047697 
Q 526.683847 107.549287 526.683847 112.209358 
Q 526.683847 116.825759 529.312237 119.346065 
Q 531.940627 121.860132 536.776865 121.860132 
Q 538.094565 121.860132 539.22302 121.716649 
Q 540.351475 121.566928 541.248633 121.255009 
L 541.248633 115.603037 
L 536.096988 115.603037 
L 536.096988 110.568663 
L 549.238938 110.568663 
z
" style="fill:#ffa600;"/>
   </g>
   <g id="patch_33">
    <path clip-path="url(#p8bc862c46a)" d="M 549.238938 91.688205 
Q 546.622894 94.370709 543.794099 95.727556 
Q 540.965304 97.1 537.88436 97.1 
Q 528.696687 97.1 523.330644 86.93144 
Q 517.964602 76.76288 517.964602 59.373394 
Q 517.964602 41.921524 523.330644 31.76856 
Q 528.696687 21.6 537.88436 21.6 
Q 540.965304 21.6 543.794099 22.972444 
Q 546.622894 24.329291 549.238938 27.011795 
L 549.238938 42.061888 
Q 546.599255 38.506011 544.038368 36.85284 
Q 541.477481 35.199669 538.648687 35.199669 
Q 533.574191 35.199669 530.6666 41.640797 
Q 527.766888 48.066329 527.766888 59.373394 
Q 527.766888 70.633671 530.6666 77.074799 
Q 533.574191 83.500331 538.648687 83.500331 
Q 541.477481 83.500331 544.038368 81.84716 
Q 546.599255 80.178393 549.238938 76.622516 
z
" style="fill:#0000ff;"/>
   </g>
   <g id="patch_34">
    <path clip-path="url(#p8bc862c46a)" d="M 572.548716 154.74925 
L 560.521109 154.74925 
L 558.622013 157.5 
L 550.884956 157.5 
L 561.934241 142.4 
L 571.110007 142.4 
L 582.159292 157.5 
L 574.428629 157.5 
z
M 562.439387 151.946721 
L 570.611255 151.946721 
L 566.531715 145.940377 
z
" style="fill:#008000;"/>
   </g>
   <g id="patch_35">
    <path clip-path="url(#p8bc862c46a)" d="M 582.159292 141.033795 
Q 579.005224 141.716897 575.612849 142.060008 
Q 572.220473 142.4 568.603809 142.4 
Q 560.431268 142.4 555.658112 140.366288 
Q 550.884956 138.332576 550.884956 134.854679 
Q 550.884956 131.336232 555.74222 129.318116 
Q 560.606494 127.3 569.066405 127.3 
Q 572.325609 127.3 575.31146 127.574489 
Q 578.30432 127.845858 580.953737 128.382359 
L 580.953737 131.392378 
Q 578.220212 130.703037 575.514722 130.363045 
Q 572.809233 130.019934 570.089725 130.019934 
Q 565.057235 130.019934 562.330718 131.273848 
Q 559.604201 132.524644 559.604201 134.854679 
Q 559.604201 137.16288 562.232591 138.423032 
Q 564.860981 139.680066 569.697219 139.680066 
Q 571.014919 139.680066 572.143374 139.608325 
Q 573.271829 139.533464 574.168986 139.377505 
L 574.168986 136.551518 
L 569.017342 136.551518 
L 569.017342 134.034332 
L 582.159292 134.034332 
z
" style="fill:#ffa600;"/>
   </g>
   <g id="patch_36">
    <path clip-path="url(#p8bc862c46a)" d="M 550.884956 112.2 
L 582.159292 112.2 
L 582.159292 115.144921 
L 570.907804 115.144921 
L 570.907804 127.3 
L 562.158263 127.3 
L 562.158263 115.144921 
L 550.884956 115.144921 
z
" style="fill:#ff0000;"/>
   </g>
   <g id="patch_37">
    <path clip-path="url(#p8bc862c46a)" d="M 582.159292 105.705846 
Q 579.543248 108.92485 576.714453 110.553068 
Q 573.885658 112.2 570.804714 112.2 
Q 561.617041 112.2 556.250998 99.997728 
Q 550.884956 87.795455 550.884956 66.928073 
Q 550.884956 45.985829 556.250998 33.802272 
Q 561.617041 21.6 570.804714 21.6 
Q 573.885658 21.6 576.714453 23.246932 
Q 579.543248 24.87515 582.159292 28.094154 
L 582.159292 46.154266 
Q 579.519609 41.887213 576.958722 39.903408 
Q 574.397835 37.919603 571.569041 37.919603 
Q 566.494545 37.919603 563.586954 45.648957 
Q 560.687242 53.359595 560.687242 66.928073 
Q 560.687242 80.440405 563.586954 88.169758 
Q 566.494545 95.880397 571.569041 95.880397 
Q 574.397835 95.880397 576.958722 93.896592 
Q 579.519609 91.894071 582.159292 87.627019 
z
" style="fill:#0000ff;"/>
   </g>
   <g id="patch_38">
    <path clip-path="url(#p8bc862c46a)" d="M 605.46907 151.9985 
L 593.441463 151.9985 
L 591.542367 157.5 
L 583.80531 157.5 
L 594.854595 127.3 
L 604.030361 127.3 
L 615.079646 157.5 
L 607.348983 157.5 
z
M 595.359741 146.393442 
L 603.531609 146.393442 
L 599.452069 134.380754 
z
" style="fill:#008000;"/>
   </g>
   <g id="patch_39">
    <path clip-path="url(#p8bc862c46a)" d="M 615.079646 124.567589 
Q 611.925578 125.933795 608.533203 126.620017 
Q 605.140827 127.3 601.524163 127.3 
Q 593.351622 127.3 588.578466 123.232576 
Q 583.80531 119.165152 583.80531 112.209358 
Q 583.80531 105.172464 588.662574 101.136232 
Q 593.526848 97.1 601.986759 97.1 
Q 605.245963 97.1 608.231814 97.648977 
Q 611.224674 98.191717 613.874091 99.264718 
L 613.874091 105.284755 
Q 611.140566 103.906073 608.435076 103.22609 
Q 605.729587 102.539868 603.010079 102.539868 
Q 597.977589 102.539868 595.251072 105.047697 
Q 592.524555 107.549287 592.524555 112.209358 
Q 592.524555 116.825759 595.152945 119.346065 
Q 597.781335 121.860132 602.617573 121.860132 
Q 603.935272 121.860132 605.063728 121.716649 
Q 606.192183 121.566928 607.08934 121.255009 
L 607.08934 115.603037 
L 601.937696 115.603037 
L 601.937696 110.568663 
L 615.079646 110.568663 
z
" style="fill:#ffa600;"/>
   </g>
   <g id="patch_40">
    <path clip-path="url(#p8bc862c46a)" d="M 583.80531 66.9 
L 615.079646 66.9 
L 615.079646 72.789841 
L 603.828158 72.789841 
L 603.828158 97.1 
L 595.078617 97.1 
L 595.078617 72.789841 
L 583.80531 72.789841 
z
" style="fill:#ff0000;"/>
   </g>
   <g id="patch_41">
    <path clip-path="url(#p8bc862c46a)" d="M 615.079646 63.652923 
Q 612.463602 65.262425 609.634807 66.076534 
Q 606.806012 66.9 603.725068 66.9 
Q 594.537395 66.9 589.171352 60.798864 
Q 583.80531 54.697728 583.80531 44.264036 
Q 583.80531 33.792915 589.171352 27.701136 
Q 594.537395 21.6 603.725068 21.6 
Q 606.806012 21.6 609.634807 22.423466 
Q 612.463602 23.237575 615.079646 24.847077 
L 615.079646 33.877133 
Q 612.439963 31.743607 609.879076 30.751704 
Q 607.318189 29.759802 604.489395 29.759802 
Q 599.414899 29.759802 596.507308 33.624478 
Q 593.607596 37.479798 593.607596 44.264036 
Q 593.607596 51.020202 596.507308 54.884879 
Q 599.414899 58.740198 604.489395 58.740198 
Q 607.318189 58.740198 609.879076 57.748296 
Q 612.439963 56.747036 615.079646 54.61351 
z
" style="fill:#0000ff;"/>
   </g>
   <g id="patch_42">
    <path clip-path="url(#p8bc862c46a)" d="M 638.389424 151.9985 
L 626.361817 151.9985 
L 624.462721 157.5 
L 616.725664 157.5 
L 627.774949 127.3 
L 636.950715 127.3 
L 648 157.5 
L 640.269337 157.5 
z
M 628.280095 146.393442 
L 636.451963 146.393442 
L 632.372423 134.380754 
z
" style="fill:#008000;"/>
   </g>
   <g id="patch_43">
    <path clip-path="url(#p8bc862c46a)" d="M 648 125.135282 
Q 645.383956 126.208283 642.555161 126.751023 
Q 639.726366 127.3 636.645422 127.3 
Q 627.457749 127.3 622.091706 123.232576 
Q 616.725664 119.165152 616.725664 112.209358 
Q 616.725664 105.22861 622.091706 101.167424 
Q 627.457749 97.1 636.645422 97.1 
Q 639.726366 97.1 642.555161 97.648977 
Q 645.383956 98.191717 648 99.264718 
L 648 105.284755 
Q 645.360317 103.862404 642.79943 103.201136 
Q 640.238543 102.539868 637.409749 102.539868 
Q 632.335253 102.539868 629.427662 105.116319 
Q 626.52795 107.686532 626.52795 112.209358 
Q 626.52795 116.713468 629.427662 119.289919 
Q 632.335253 121.860132 637.409749 121.860132 
Q 640.238543 121.860132 642.79943 121.198864 
Q 645.360317 120.531357 648 119.109006 
z
" style="fill:#0000ff;"/>
   </g>
   <g id="patch_44">
    <path clip-path="url(#p8bc862c46a)" d="M 616.725664 66.9 
L 648 66.9 
L 648 72.789841 
L 636.748512 72.789841 
L 636.748512 97.1 
L 627.998971 97.1 
L 627.998971 72.789841 
L 616.725664 72.789841 
z
" style="fill:#ff0000;"/>
   </g>
   <g id="patch_45">
    <path clip-path="url(#p8bc862c46a)" d="M 648 62.801384 
Q 644.845932 64.850692 641.453557 65.880025 
Q 638.061181 66.9 634.444517 66.9 
Q 626.271976 66.9 621.49882 60.798864 
Q 616.725664 54.697728 616.725664 44.264036 
Q 616.725664 33.708697 621.582928 27.654348 
Q 626.447202 21.6 634.907113 21.6 
Q 638.166317 21.6 641.152168 22.423466 
Q 644.145028 23.237575 646.794445 24.847077 
L 646.794445 33.877133 
Q 644.06092 31.80911 641.35543 30.789134 
Q 638.649941 29.759802 635.930433 29.759802 
Q 630.897943 29.759802 628.171426 33.521545 
Q 625.444909 37.273931 625.444909 44.264036 
Q 625.444909 51.188639 628.073299 54.969097 
Q 630.701689 58.740198 635.537927 58.740198 
Q 636.855626 58.740198 637.984082 58.524974 
Q 639.112537 58.300392 640.009694 57.832514 
L 640.009694 49.354555 
L 634.85805 49.354555 
L 634.85805 41.802995 
L 648 41.802995 
z
" style="fill:#ffa600;"/>
   </g>
  </g>
 </g>
 <defs>
  <clipPath id="p8bc862c46a">
   <rect height="135.9" width="558" x="90" y="21.6"/>
  </clipPath>
 </defs>
</svg>
