<?xml version="1.0" encoding="utf-8" standalone="no"?>
<!DOCTYPE svg PUBLIC "-//W3C//DTD SVG 1.1//EN"
  "http://www.w3.org/Graphics/SVG/1.1/DTD/svg11.dtd">
<!-- Created with matplotlib (https://matplotlib.org/) -->
<svg height="180pt" version="1.1" viewBox="0 0 720 180" width="720pt" xmlns="http://www.w3.org/2000/svg" xmlns:xlink="http://www.w3.org/1999/xlink">
 <metadata>
  <rdf:RDF xmlns:cc="http://creativecommons.org/ns#" xmlns:dc="http://purl.org/dc/elements/1.1/" xmlns:rdf="http://www.w3.org/1999/02/22-rdf-syntax-ns#">
   <cc:Work>
    <dc:type rdf:resource="http://purl.org/dc/dcmitype/StillImage"/>
    <dc:date>2021-08-04T23:33:13.800188</dc:date>
    <dc:format>image/svg+xml</dc:format>
    <dc:creator>
     <cc:Agent>
      <dc:title>Matplotlib v3.3.2, https://matplotlib.org/</dc:title>
     </cc:Agent>
    </dc:creator>
   </cc:Work>
  </rdf:RDF>
 </metadata>
 <defs>
  <style type="text/css">*{stroke-linecap:butt;stroke-linejoin:round;}</style>
 </defs>
 <g id="figure_1">
  <g id="patch_1">
   <path d="M 0 180 
L 720 180 
L 720 0 
L 0 0 
z
" style="fill:none;"/>
  </g>
  <g id="axes_1">
   <g id="line2d_1">
    <path clip-path="url(#pdfc116e5fa)" d="M 90 157.5 
L 648 157.5 
" style="fill:none;stroke:#000000;stroke-linecap:square;stroke-width:0.5;"/>
   </g>
   <g id="patch_2">
    <path clip-path="url(#pdfc116e5fa)" d="M 111.66376 154.74925 
L 99.636153 154.74925 
L 97.737057 157.5 
L 90 157.5 
L 101.049285 142.4 
L 110.225051 142.4 
L 121.274336 157.5 
L 113.543673 157.5 
z
M 101.554432 151.946721 
L 109.726299 151.946721 
L 105.64676 145.940377 
z
" style="fill:#008000;"/>
   </g>
   <g id="patch_3">
    <path clip-path="url(#pdfc116e5fa)" d="M 90 97.1 
L 121.274336 97.1 
L 121.274336 105.934762 
L 110.022848 105.934762 
L 110.022848 142.4 
L 101.273307 142.4 
L 101.273307 105.934762 
L 90 105.934762 
z
" style="fill:#ff0000;"/>
   </g>
   <g id="patch_4">
    <path clip-path="url(#pdfc116e5fa)" d="M 121.274336 91.688205 
Q 118.658292 94.370709 115.829497 95.727556 
Q 113.000702 97.1 109.919759 97.1 
Q 100.732085 97.1 95.366043 86.93144 
Q 90 76.76288 90 59.373394 
Q 90 41.921524 95.366043 31.76856 
Q 100.732085 21.6 109.919759 21.6 
Q 113.000702 21.6 115.829497 22.972444 
Q 118.658292 24.329291 121.274336 27.011795 
L 121.274336 42.061888 
Q 118.634653 38.506011 116.073766 36.85284 
Q 113.51288 35.199669 110.684085 35.199669 
Q 105.609589 35.199669 102.701998 41.640797 
Q 99.802286 48.066329 99.802286 59.373394 
Q 99.802286 70.633671 102.701998 77.074799 
Q 105.609589 83.500331 110.684085 83.500331 
Q 113.51288 83.500331 116.073766 81.84716 
Q 118.634653 80.178393 121.274336 76.622516 
z
" style="fill:#0000ff;"/>
   </g>
   <g id="patch_5">
    <path clip-path="url(#pdfc116e5fa)" d="M 154.19469 155.335282 
Q 151.578646 156.408283 148.749851 156.951023 
Q 145.921056 157.5 142.840113 157.5 
Q 133.652439 157.5 128.286397 153.432576 
Q 122.920354 149.365152 122.920354 142.409358 
Q 122.920354 135.42861 128.286397 131.367424 
Q 133.652439 127.3 142.840113 127.3 
Q 145.921056 127.3 148.749851 127.848977 
Q 151.578646 128.391717 154.19469 129.464718 
L 154.19469 135.484755 
Q 151.555007 134.062404 148.99412 133.401136 
Q 146.433234 132.739868 143.604439 132.739868 
Q 138.529943 132.739868 135.622352 135.316319 
Q 132.72264 137.886532 132.72264 142.409358 
Q 132.72264 146.913468 135.622352 149.489919 
Q 138.529943 152.060132 143.604439 152.060132 
Q 146.433234 152.060132 148.99412 151.398864 
Q 151.555007 150.731357 154.19469 149.309006 
z
" style="fill:#0000ff;"/>
   </g>
   <g id="patch_6">
    <path clip-path="url(#pdfc116e5fa)" d="M 154.19469 117.736563 
Q 151.040622 122.518281 147.648247 124.920058 
Q 144.255872 127.3 140.639207 127.3 
Q 132.466666 127.3 127.69351 113.064016 
Q 122.920354 98.828031 122.920354 74.482751 
Q 122.920354 49.853625 127.777619 35.726813 
Q 132.641892 21.6 141.101804 21.6 
Q 144.361007 21.6 147.346858 23.521421 
Q 150.339718 25.421008 152.989135 29.176513 
L 152.989135 50.246643 
Q 150.25561 45.421256 147.55012 43.041314 
Q 144.844631 40.639537 142.125123 40.639537 
Q 137.092633 40.639537 134.366116 49.416939 
Q 131.6396 58.172506 131.6396 74.482751 
Q 131.6396 90.640157 134.26799 99.461227 
Q 136.89638 108.260463 141.732617 108.260463 
Q 143.050317 108.260463 144.178772 107.758273 
Q 145.307228 107.234249 146.204385 106.142533 
L 146.204385 86.360628 
L 141.05274 86.360628 
L 141.05274 68.740322 
L 154.19469 68.740322 
z
" style="fill:#ffa600;"/>
   </g>
   <g id="patch_7">
    <path clip-path="url(#pdfc116e5fa)" d="M 187.115044 145.204152 
Q 183.960976 151.352076 180.568601 154.440074 
Q 177.176226 157.5 173.559561 157.5 
Q 165.38702 157.5 160.613864 139.196592 
Q 155.840708 120.893183 155.840708 89.592109 
Q 155.840708 57.92609 160.697973 39.763045 
Q 165.562246 21.6 174.022158 21.6 
Q 177.281361 21.6 180.267212 24.070399 
Q 183.260072 26.512725 185.909489 31.341231 
L 185.909489 58.431398 
Q 183.175964 52.227329 180.470474 49.167403 
Q 177.764985 46.079405 175.045477 46.079405 
Q 170.012987 46.079405 167.28647 57.364635 
Q 164.559954 68.621793 164.559954 89.592109 
Q 164.559954 110.365916 167.188344 121.707292 
Q 169.816734 133.020595 174.652971 133.020595 
Q 175.970671 133.020595 177.099126 132.374923 
Q 178.227582 131.701177 179.124739 130.297542 
L 179.124739 104.863665 
L 173.973094 104.863665 
L 173.973094 82.208986 
L 187.115044 82.208986 
z
" style="fill:#ffa600;"/>
   </g>
   <g id="patch_8">
    <path clip-path="url(#pdfc116e5fa)" d="M 188.761062 97.1 
L 220.035398 97.1 
L 220.035398 108.879683 
L 208.78391 108.879683 
L 208.78391 157.5 
L 200.034369 157.5 
L 200.034369 108.879683 
L 188.761062 108.879683 
z
" style="fill:#ff0000;"/>
   </g>
   <g id="patch_9">
    <path clip-path="url(#pdfc116e5fa)" d="M 220.035398 91.688205 
Q 217.419354 94.370709 214.590559 95.727556 
Q 211.761764 97.1 208.680821 97.1 
Q 199.493147 97.1 194.127105 86.93144 
Q 188.761062 76.76288 188.761062 59.373394 
Q 188.761062 41.921524 194.127105 31.76856 
Q 199.493147 21.6 208.680821 21.6 
Q 211.761764 21.6 214.590559 22.972444 
Q 217.419354 24.329291 220.035398 27.011795 
L 220.035398 42.061888 
Q 217.395715 38.506011 214.834828 36.85284 
Q 212.273942 35.199669 209.445147 35.199669 
Q 204.370651 35.199669 201.46306 41.640797 
Q 198.563348 48.066329 198.563348 59.373394 
Q 198.563348 70.633671 201.46306 77.074799 
Q 204.370651 83.500331 209.445147 83.500331 
Q 212.273942 83.500331 214.834828 81.84716 
Q 217.395715 80.178393 220.035398 76.622516 
z
" style="fill:#0000ff;"/>
   </g>
   <g id="patch_10">
    <path clip-path="url(#pdfc116e5fa)" d="M 243.345176 151.9985 
L 231.317569 151.9985 
L 229.418473 157.5 
L 221.681416 157.5 
L 232.730701 127.3 
L 241.906467 127.3 
L 252.955752 157.5 
L 245.225089 157.5 
z
M 233.235848 146.393442 
L 241.407715 146.393442 
L 237.328175 134.380754 
z
" style="fill:#008000;"/>
   </g>
   <g id="patch_11">
    <path clip-path="url(#pdfc116e5fa)" d="M 252.955752 117.736563 
Q 249.801684 122.518281 246.409309 124.920058 
Q 243.016934 127.3 239.400269 127.3 
Q 231.227728 127.3 226.454572 113.064016 
Q 221.681416 98.828031 221.681416 74.482751 
Q 221.681416 49.853625 226.538681 35.726813 
Q 231.402954 21.6 239.862866 21.6 
Q 243.122069 21.6 246.10792 23.521421 
Q 249.10078 25.421008 251.750197 29.176513 
L 251.750197 50.246643 
Q 249.016672 45.421256 246.311182 43.041314 
Q 243.605693 40.639537 240.886185 40.639537 
Q 235.853695 40.639537 233.127178 49.416939 
Q 230.400662 58.172506 230.400662 74.482751 
Q 230.400662 90.640157 233.029052 99.461227 
Q 235.657442 108.260463 240.493679 108.260463 
Q 241.811379 108.260463 242.939834 107.758273 
Q 244.06829 107.234249 244.965447 106.142533 
L 244.965447 86.360628 
L 239.813802 86.360628 
L 239.813802 68.740322 
L 252.955752 68.740322 
z
" style="fill:#ffa600;"/>
   </g>
   <g id="patch_12">
    <path clip-path="url(#pdfc116e5fa)" d="M 285.876106 156.133795 
Q 282.722038 156.816897 279.329663 157.160008 
Q 275.937288 157.5 272.320623 157.5 
Q 264.148082 157.5 259.374926 155.466288 
Q 254.60177 153.432576 254.60177 149.954679 
Q 254.60177 146.436232 259.459035 144.418116 
Q 264.323308 142.4 272.78322 142.4 
Q 276.042423 142.4 279.028274 142.674489 
Q 282.021134 142.945858 284.670551 143.482359 
L 284.670551 146.492378 
Q 281.937026 145.803037 279.231536 145.463045 
Q 276.526047 145.119934 273.806539 145.119934 
Q 268.774049 145.119934 266.047532 146.373848 
Q 263.321016 147.624644 263.321016 149.954679 
Q 263.321016 152.26288 265.949406 153.523032 
Q 268.577796 154.780066 273.414033 154.780066 
Q 274.731733 154.780066 275.860188 154.708325 
Q 276.988644 154.633464 277.885801 154.477505 
L 277.885801 151.651518 
L 272.734156 151.651518 
L 272.734156 149.134332 
L 285.876106 149.134332 
z
" style="fill:#ffa600;"/>
   </g>
   <g id="patch_13">
    <path clip-path="url(#pdfc116e5fa)" d="M 285.876106 133.741128 
Q 283.260062 138.033134 280.431267 140.20409 
Q 277.602472 142.4 274.521529 142.4 
Q 265.333855 142.4 259.967812 126.130304 
Q 254.60177 109.860607 254.60177 82.03743 
Q 254.60177 54.114439 259.967812 37.869696 
Q 265.333855 21.6 274.521529 21.6 
Q 277.602472 21.6 280.431267 23.79591 
Q 283.260062 25.966866 285.876106 30.258872 
L 285.876106 54.339021 
Q 283.236423 48.649618 280.675536 46.004545 
Q 278.11465 43.359471 275.285855 43.359471 
Q 270.211359 43.359471 267.303768 53.665276 
Q 264.404056 63.946127 264.404056 82.03743 
Q 264.404056 100.053873 267.303768 110.359678 
Q 270.211359 120.640529 275.285855 120.640529 
Q 278.11465 120.640529 280.675536 117.995455 
Q 283.236423 115.325429 285.876106 109.636026 
z
" style="fill:#0000ff;"/>
   </g>
   <g id="patch_14">
    <path clip-path="url(#pdfc116e5fa)" d="M 309.185884 154.74925 
L 297.158277 154.74925 
L 295.259181 157.5 
L 287.522124 157.5 
L 298.571409 142.4 
L 307.747175 142.4 
L 318.79646 157.5 
L 311.065797 157.5 
z
M 299.076556 151.946721 
L 307.248423 151.946721 
L 303.168883 145.940377 
z
" style="fill:#008000;"/>
   </g>
   <g id="patch_15">
    <path clip-path="url(#pdfc116e5fa)" d="M 318.79646 140.235282 
Q 316.180416 141.308283 313.351621 141.851023 
Q 310.522826 142.4 307.441883 142.4 
Q 298.254209 142.4 292.888166 138.332576 
Q 287.522124 134.265152 287.522124 127.309358 
Q 287.522124 120.32861 292.888166 116.267424 
Q 298.254209 112.2 307.441883 112.2 
Q 310.522826 112.2 313.351621 112.748977 
Q 316.180416 113.291717 318.79646 114.364718 
L 318.79646 120.384755 
Q 316.156777 118.962404 313.59589 118.301136 
Q 311.035004 117.639868 308.206209 117.639868 
Q 303.131713 117.639868 300.224122 120.216319 
Q 297.32441 122.786532 297.32441 127.309358 
Q 297.32441 131.813468 300.224122 134.389919 
Q 303.131713 136.960132 308.206209 136.960132 
Q 311.035004 136.960132 313.59589 136.298864 
Q 316.156777 135.631357 318.79646 134.209006 
z
" style="fill:#0000ff;"/>
   </g>
   <g id="patch_16">
    <path clip-path="url(#pdfc116e5fa)" d="M 318.79646 104.002768 
Q 315.642392 108.101384 312.250017 110.16005 
Q 308.857642 112.2 305.240977 112.2 
Q 297.068436 112.2 292.29528 99.997728 
Q 287.522124 87.795455 287.522124 66.928073 
Q 287.522124 45.817393 292.379389 33.708697 
Q 297.243662 21.6 305.703574 21.6 
Q 308.962777 21.6 311.948628 23.246932 
Q 314.941488 24.87515 317.590905 28.094154 
L 317.590905 46.154266 
Q 314.85738 42.018219 312.15189 39.978269 
Q 309.446401 37.919603 306.726893 37.919603 
Q 301.694403 37.919603 298.967886 45.44309 
Q 296.24137 52.947862 296.24137 66.928073 
Q 296.24137 80.777277 298.86976 88.338195 
Q 301.49815 95.880397 306.334387 95.880397 
Q 307.652087 95.880397 308.780542 95.449948 
Q 309.908998 95.000785 310.806155 94.065028 
L 310.806155 77.10911 
L 305.65451 77.10911 
L 305.65451 62.00599 
L 318.79646 62.00599 
z
" style="fill:#ffa600;"/>
   </g>
   <g id="patch_17">
    <path clip-path="url(#pdfc116e5fa)" d="M 351.716814 156.417641 
Q 349.10077 156.954142 346.271975 157.225511 
Q 343.44318 157.5 340.362237 157.5 
Q 331.174563 157.5 325.80852 155.466288 
Q 320.442478 153.432576 320.442478 149.954679 
Q 320.442478 146.464305 325.80852 144.433712 
Q 331.174563 142.4 340.362237 142.4 
Q 343.44318 142.4 346.271975 142.674489 
Q 349.10077 142.945858 351.716814 143.482359 
L 351.716814 146.492378 
Q 349.077131 145.781202 346.516244 145.450568 
Q 343.955358 145.119934 341.126563 145.119934 
Q 336.052067 145.119934 333.144476 146.408159 
Q 330.244764 147.693266 330.244764 149.954679 
Q 330.244764 152.206734 333.144476 153.49496 
Q 336.052067 154.780066 341.126563 154.780066 
Q 343.955358 154.780066 346.516244 154.449432 
Q 349.077131 154.115679 351.716814 153.404503 
z
" style="fill:#0000ff;"/>
   </g>
   <g id="patch_18">
    <path clip-path="url(#pdfc116e5fa)" d="M 351.716814 141.033795 
Q 348.562746 141.716897 345.170371 142.060008 
Q 341.777996 142.4 338.161331 142.4 
Q 329.98879 142.4 325.215634 140.366288 
Q 320.442478 138.332576 320.442478 134.854679 
Q 320.442478 131.336232 325.299743 129.318116 
Q 330.164016 127.3 338.623928 127.3 
Q 341.883131 127.3 344.868982 127.574489 
Q 347.861842 127.845858 350.511259 128.382359 
L 350.511259 131.392378 
Q 347.777734 130.703037 345.072244 130.363045 
Q 342.366755 130.019934 339.647247 130.019934 
Q 334.614757 130.019934 331.88824 131.273848 
Q 329.161724 132.524644 329.161724 134.854679 
Q 329.161724 137.16288 331.790114 138.423032 
Q 334.418504 139.680066 339.254741 139.680066 
Q 340.572441 139.680066 341.700896 139.608325 
Q 342.829351 139.533464 343.726509 139.377505 
L 343.726509 136.551518 
L 338.574864 136.551518 
L 338.574864 134.034332 
L 351.716814 134.034332 
z
" style="fill:#ffa600;"/>
   </g>
   <g id="patch_19">
    <path clip-path="url(#pdfc116e5fa)" d="M 342.106238 119.04775 
L 330.078631 119.04775 
L 328.179535 127.3 
L 320.442478 127.3 
L 331.491763 82 
L 340.667529 82 
L 351.716814 127.3 
L 343.986151 127.3 
z
M 331.99691 110.640163 
L 340.168777 110.640163 
L 336.089237 92.621132 
z
" style="fill:#008000;"/>
   </g>
   <g id="patch_20">
    <path clip-path="url(#pdfc116e5fa)" d="M 320.442478 21.6 
L 351.716814 21.6 
L 351.716814 33.379683 
L 340.465326 33.379683 
L 340.465326 82 
L 331.715785 82 
L 331.715785 33.379683 
L 320.442478 33.379683 
z
" style="fill:#ff0000;"/>
   </g>
   <g id="patch_21">
    <path clip-path="url(#pdfc116e5fa)" d="M 353.362832 127.3 
L 384.637168 127.3 
L 384.637168 133.189841 
L 373.38568 133.189841 
L 373.38568 157.5 
L 364.636139 157.5 
L 364.636139 133.189841 
L 353.362832 133.189841 
z
" style="fill:#ff0000;"/>
   </g>
   <g id="patch_22">
    <path clip-path="url(#pdfc116e5fa)" d="M 384.637168 119.723487 
Q 382.021124 123.478992 379.192329 125.378579 
Q 376.363534 127.3 373.282591 127.3 
Q 364.094917 127.3 358.728874 113.064016 
Q 353.362832 98.828031 353.362832 74.482751 
Q 353.362832 50.050134 358.728874 35.835984 
Q 364.094917 21.6 373.282591 21.6 
Q 376.363534 21.6 379.192329 23.521421 
Q 382.021124 25.421008 384.637168 29.176513 
L 384.637168 50.246643 
Q 381.997485 45.268416 379.436598 42.953976 
Q 376.875712 40.639537 374.046917 40.639537 
Q 368.972421 40.639537 366.06483 49.657116 
Q 363.165118 58.652861 363.165118 74.482751 
Q 363.165118 90.247139 366.06483 99.264718 
Q 368.972421 108.260463 374.046917 108.260463 
Q 376.875712 108.260463 379.436598 105.946024 
Q 381.997485 103.60975 384.637168 98.631522 
z
" style="fill:#0000ff;"/>
   </g>
   <g id="patch_23">
    <path clip-path="url(#pdfc116e5fa)" d="M 407.946946 154.74925 
L 395.919339 154.74925 
L 394.020243 157.5 
L 386.283186 157.5 
L 397.332471 142.4 
L 406.508237 142.4 
L 417.557522 157.5 
L 409.826859 157.5 
z
M 397.837618 151.946721 
L 406.009485 151.946721 
L 401.929945 145.940377 
z
" style="fill:#008000;"/>
   </g>
   <g id="patch_24">
    <path clip-path="url(#pdfc116e5fa)" d="M 417.557522 141.317641 
Q 414.941478 141.854142 412.112683 142.125511 
Q 409.283888 142.4 406.202945 142.4 
Q 397.015271 142.4 391.649228 140.366288 
Q 386.283186 138.332576 386.283186 134.854679 
Q 386.283186 131.364305 391.649228 129.333712 
Q 397.015271 127.3 406.202945 127.3 
Q 409.283888 127.3 412.112683 127.574489 
Q 414.941478 127.845858 417.557522 128.382359 
L 417.557522 131.392378 
Q 414.917839 130.681202 412.356952 130.350568 
Q 409.796066 130.019934 406.967271 130.019934 
Q 401.892775 130.019934 398.985184 131.308159 
Q 396.085472 132.593266 396.085472 134.854679 
Q 396.085472 137.106734 398.985184 138.39496 
Q 401.892775 139.680066 406.967271 139.680066 
Q 409.796066 139.680066 412.356952 139.349432 
Q 414.917839 139.015679 417.557522 138.304503 
z
" style="fill:#0000ff;"/>
   </g>
   <g id="patch_25">
    <path clip-path="url(#pdfc116e5fa)" d="M 417.557522 125.933795 
Q 414.403454 126.616897 411.011079 126.960008 
Q 407.618703 127.3 404.002039 127.3 
Q 395.829498 127.3 391.056342 125.266288 
Q 386.283186 123.232576 386.283186 119.754679 
Q 386.283186 116.236232 391.140451 114.218116 
Q 396.004724 112.2 404.464635 112.2 
Q 407.723839 112.2 410.70969 112.474489 
Q 413.70255 112.745858 416.351967 113.282359 
L 416.351967 116.292378 
Q 413.618442 115.603037 410.912952 115.263045 
Q 408.207463 114.919934 405.487955 114.919934 
Q 400.455465 114.919934 397.728948 116.173848 
Q 395.002432 117.424644 395.002432 119.754679 
Q 395.002432 122.06288 397.630822 123.323032 
Q 400.259212 124.580066 405.095449 124.580066 
Q 406.413149 124.580066 407.541604 124.508325 
Q 408.670059 124.433464 409.567217 124.277505 
L 409.567217 121.451518 
L 404.415572 121.451518 
L 404.415572 118.934332 
L 417.557522 118.934332 
z
" style="fill:#ffa600;"/>
   </g>
   <g id="patch_26">
    <path clip-path="url(#pdfc116e5fa)" d="M 386.283186 21.6 
L 417.557522 21.6 
L 417.557522 39.269524 
L 406.306034 39.269524 
L 406.306034 112.2 
L 397.556493 112.2 
L 397.556493 39.269524 
L 386.283186 39.269524 
z
" style="fill:#ff0000;"/>
   </g>
   <g id="patch_27">
    <path clip-path="url(#pdfc116e5fa)" d="M 419.20354 142.4 
L 450.477876 142.4 
L 450.477876 145.344921 
L 439.226388 145.344921 
L 439.226388 157.5 
L 430.476847 157.5 
L 430.476847 145.344921 
L 419.20354 145.344921 
z
" style="fill:#ff0000;"/>
   </g>
   <g id="patch_28">
    <path clip-path="url(#pdfc116e5fa)" d="M 450.477876 140.235282 
Q 447.861832 141.308283 445.033037 141.851023 
Q 442.204242 142.4 439.123298 142.4 
Q 429.935625 142.4 424.569582 138.332576 
Q 419.20354 134.265152 419.20354 127.309358 
Q 419.20354 120.32861 424.569582 116.267424 
Q 429.935625 112.2 439.123298 112.2 
Q 442.204242 112.2 445.033037 112.748977 
Q 447.861832 113.291717 450.477876 114.364718 
L 450.477876 120.384755 
Q 447.838193 118.962404 445.277306 118.301136 
Q 442.71642 117.639868 439.887625 117.639868 
Q 434.813129 117.639868 431.905538 120.216319 
Q 429.005826 122.786532 429.005826 127.309358 
Q 429.005826 131.813468 431.905538 134.389919 
Q 434.813129 136.960132 439.887625 136.960132 
Q 442.71642 136.960132 445.277306 136.298864 
Q 447.838193 135.631357 450.477876 134.209006 
z
" style="fill:#0000ff;"/>
   </g>
   <g id="patch_29">
    <path clip-path="url(#pdfc116e5fa)" d="M 450.477876 109.467589 
Q 447.323808 110.833795 443.931433 111.520017 
Q 440.539057 112.2 436.922393 112.2 
Q 428.749852 112.2 423.976696 108.132576 
Q 419.20354 104.065152 419.20354 97.109358 
Q 419.20354 90.072464 424.060805 86.036232 
Q 428.925078 82 437.384989 82 
Q 440.644193 82 443.630044 82.548977 
Q 446.622904 83.091717 449.272321 84.164718 
L 449.272321 90.184755 
Q 446.538796 88.806073 443.833306 88.12609 
Q 441.127817 87.439868 438.408309 87.439868 
Q 433.375819 87.439868 430.649302 89.947697 
Q 427.922786 92.449287 427.922786 97.109358 
Q 427.922786 101.725759 430.551176 104.246065 
Q 433.179565 106.760132 438.015803 106.760132 
Q 439.333503 106.760132 440.461958 106.616649 
Q 441.590413 106.466928 442.487571 106.155009 
L 442.487571 100.503037 
L 437.335926 100.503037 
L 437.335926 95.468663 
L 450.477876 95.468663 
z
" style="fill:#ffa600;"/>
   </g>
   <g id="patch_30">
    <path clip-path="url(#pdfc116e5fa)" d="M 440.8673 70.997 
L 428.839693 70.997 
L 426.940597 82 
L 419.20354 82 
L 430.252825 21.6 
L 439.428591 21.6 
L 450.477876 82 
L 442.747213 82 
z
M 430.757972 59.786884 
L 438.929839 59.786884 
L 434.850299 35.761509 
z
" style="fill:#008000;"/>
   </g>
   <g id="patch_31">
    <path clip-path="url(#pdfc116e5fa)" d="M 473.787654 154.74925 
L 461.760047 154.74925 
L 459.860951 157.5 
L 452.123894 157.5 
L 463.173179 142.4 
L 472.348945 142.4 
L 483.39823 157.5 
L 475.667567 157.5 
z
M 463.678326 151.946721 
L 471.850193 151.946721 
L 467.770653 145.940377 
z
" style="fill:#008000;"/>
   </g>
   <g id="patch_32">
    <path clip-path="url(#pdfc116e5fa)" d="M 483.39823 139.667589 
Q 480.244162 141.033795 476.851787 141.720017 
Q 473.459411 142.4 469.842747 142.4 
Q 461.670206 142.4 456.89705 138.332576 
Q 452.123894 134.265152 452.123894 127.309358 
Q 452.123894 120.272464 456.981158 116.236232 
Q 461.845432 112.2 470.305343 112.2 
Q 473.564547 112.2 476.550398 112.748977 
Q 479.543258 113.291717 482.192675 114.364718 
L 482.192675 120.384755 
Q 479.45915 119.006073 476.75366 118.32609 
Q 474.048171 117.639868 471.328663 117.639868 
Q 466.296173 117.639868 463.569656 120.147697 
Q 460.84314 122.649287 460.84314 127.309358 
Q 460.84314 131.925759 463.471529 134.446065 
Q 466.099919 136.960132 470.936157 136.960132 
Q 472.253857 136.960132 473.382312 136.816649 
Q 474.510767 136.666928 475.407925 136.355009 
L 475.407925 130.703037 
L 470.25628 130.703037 
L 470.25628 125.668663 
L 483.39823 125.668663 
z
" style="fill:#ffa600;"/>
   </g>
   <g id="patch_33">
    <path clip-path="url(#pdfc116e5fa)" d="M 483.39823 108.952923 
Q 480.782186 110.562425 477.953391 111.376534 
Q 475.124596 112.2 472.043652 112.2 
Q 462.855979 112.2 457.489936 106.098864 
Q 452.123894 99.997728 452.123894 89.564036 
Q 452.123894 79.092915 457.489936 73.001136 
Q 462.855979 66.9 472.043652 66.9 
Q 475.124596 66.9 477.953391 67.723466 
Q 480.782186 68.537575 483.39823 70.147077 
L 483.39823 79.177133 
Q 480.758547 77.043607 478.19766 76.051704 
Q 475.636773 75.059802 472.807979 75.059802 
Q 467.733483 75.059802 464.825892 78.924478 
Q 461.92618 82.779798 461.92618 89.564036 
Q 461.92618 96.320202 464.825892 100.184879 
Q 467.733483 104.040198 472.807979 104.040198 
Q 475.636773 104.040198 478.19766 103.048296 
Q 480.758547 102.047036 483.39823 99.91351 
z
" style="fill:#0000ff;"/>
   </g>
   <g id="patch_34">
    <path clip-path="url(#pdfc116e5fa)" d="M 452.123894 21.6 
L 483.39823 21.6 
L 483.39823 30.434762 
L 472.146742 30.434762 
L 472.146742 66.9 
L 463.397201 66.9 
L 463.397201 30.434762 
L 452.123894 30.434762 
z
" style="fill:#ff0000;"/>
   </g>
   <g id="patch_35">
    <path clip-path="url(#pdfc116e5fa)" d="M 485.044248 127.3 
L 516.318584 127.3 
L 516.318584 133.189841 
L 505.067096 133.189841 
L 505.067096 157.5 
L 496.317555 157.5 
L 496.317555 133.189841 
L 485.044248 133.189841 
z
" style="fill:#ff0000;"/>
   </g>
   <g id="patch_36">
    <path clip-path="url(#pdfc116e5fa)" d="M 516.318584 124.052923 
Q 513.70254 125.662425 510.873745 126.476534 
Q 508.04495 127.3 504.964006 127.3 
Q 495.776333 127.3 490.41029 121.198864 
Q 485.044248 115.097728 485.044248 104.664036 
Q 485.044248 94.192915 490.41029 88.101136 
Q 495.776333 82 504.964006 82 
Q 508.04495 82 510.873745 82.823466 
Q 513.70254 83.637575 516.318584 85.247077 
L 516.318584 94.277133 
Q 513.678901 92.143607 511.118014 91.151704 
Q 508.557127 90.159802 505.728333 90.159802 
Q 500.653837 90.159802 497.746246 94.024478 
Q 494.846534 97.879798 494.846534 104.664036 
Q 494.846534 111.420202 497.746246 115.284879 
Q 500.653837 119.140198 505.728333 119.140198 
Q 508.557127 119.140198 511.118014 118.148296 
Q 513.678901 117.147036 516.318584 115.01351 
z
" style="fill:#0000ff;"/>
   </g>
   <g id="patch_37">
    <path clip-path="url(#pdfc116e5fa)" d="M 506.708008 70.997 
L 494.680401 70.997 
L 492.781305 82 
L 485.044248 82 
L 496.093533 21.6 
L 505.269299 21.6 
L 516.318584 82 
L 508.587921 82 
z
M 496.59868 59.786884 
L 504.770547 59.786884 
L 500.691007 35.761509 
z
" style="fill:#008000;"/>
   </g>
   <g id="patch_38">
    <path clip-path="url(#pdfc116e5fa)" d="M 549.238938 156.133795 
Q 546.08487 156.816897 542.692495 157.160008 
Q 539.300119 157.5 535.683455 157.5 
Q 527.510914 157.5 522.737758 155.466288 
Q 517.964602 153.432576 517.964602 149.954679 
Q 517.964602 146.436232 522.821866 144.418116 
Q 527.68614 142.4 536.146051 142.4 
Q 539.405255 142.4 542.391106 142.674489 
Q 545.383966 142.945858 548.033383 143.482359 
L 548.033383 146.492378 
Q 545.299858 145.803037 542.594368 145.463045 
Q 539.888879 145.119934 537.169371 145.119934 
Q 532.136881 145.119934 529.410364 146.373848 
Q 526.683847 147.624644 526.683847 149.954679 
Q 526.683847 152.26288 529.312237 153.523032 
Q 531.940627 154.780066 536.776865 154.780066 
Q 538.094565 154.780066 539.22302 154.708325 
Q 540.351475 154.633464 541.248633 154.477505 
L 541.248633 151.651518 
L 536.096988 151.651518 
L 536.096988 149.134332 
L 549.238938 149.134332 
z
" style="fill:#ffa600;"/>
   </g>
   <g id="patch_39">
    <path clip-path="url(#pdfc116e5fa)" d="M 549.238938 140.235282 
Q 546.622894 141.308283 543.794099 141.851023 
Q 540.965304 142.4 537.88436 142.4 
Q 528.696687 142.4 523.330644 138.332576 
Q 517.964602 134.265152 517.964602 127.309358 
Q 517.964602 120.32861 523.330644 116.267424 
Q 528.696687 112.2 537.88436 112.2 
Q 540.965304 112.2 543.794099 112.748977 
Q 546.622894 113.291717 549.238938 114.364718 
L 549.238938 120.384755 
Q 546.599255 118.962404 544.038368 118.301136 
Q 541.477481 117.639868 538.648687 117.639868 
Q 533.574191 117.639868 530.6666 120.216319 
Q 527.766888 122.786532 527.766888 127.309358 
Q 527.766888 131.813468 530.6666 134.389919 
Q 533.574191 136.960132 538.648687 136.960132 
Q 541.477481 136.960132 544.038368 136.298864 
Q 546.599255 135.631357 549.238938 134.209006 
z
" style="fill:#0000ff;"/>
   </g>
   <g id="patch_40">
    <path clip-path="url(#pdfc116e5fa)" d="M 539.628362 103.94775 
L 527.600755 103.94775 
L 525.701659 112.2 
L 517.964602 112.2 
L 529.013887 66.9 
L 538.189653 66.9 
L 549.238938 112.2 
L 541.508275 112.2 
z
M 529.519034 95.540163 
L 537.690901 95.540163 
L 533.611361 77.521132 
z
" style="fill:#008000;"/>
   </g>
   <g id="patch_41">
    <path clip-path="url(#pdfc116e5fa)" d="M 517.964602 21.6 
L 549.238938 21.6 
L 549.238938 30.434762 
L 537.98745 30.434762 
L 537.98745 66.9 
L 529.237909 66.9 
L 529.237909 30.434762 
L 517.964602 30.434762 
z
" style="fill:#ff0000;"/>
   </g>
   <g id="patch_42">
    <path clip-path="url(#pdfc116e5fa)" d="M 550.884956 142.4 
L 582.159292 142.4 
L 582.159292 145.344921 
L 570.907804 145.344921 
L 570.907804 157.5 
L 562.158263 157.5 
L 562.158263 145.344921 
L 550.884956 145.344921 
z
" style="fill:#ff0000;"/>
   </g>
   <g id="patch_43">
    <path clip-path="url(#pdfc116e5fa)" d="M 582.159292 139.667589 
Q 579.005224 141.033795 575.612849 141.720017 
Q 572.220473 142.4 568.603809 142.4 
Q 560.431268 142.4 555.658112 138.332576 
Q 550.884956 134.265152 550.884956 127.309358 
Q 550.884956 120.272464 555.74222 116.236232 
Q 560.606494 112.2 569.066405 112.2 
Q 572.325609 112.2 575.31146 112.748977 
Q 578.30432 113.291717 580.953737 114.364718 
L 580.953737 120.384755 
Q 578.220212 119.006073 575.514722 118.32609 
Q 572.809233 117.639868 570.089725 117.639868 
Q 565.057235 117.639868 562.330718 120.147697 
Q 559.604201 122.649287 559.604201 127.309358 
Q 559.604201 131.925759 562.232591 134.446065 
Q 564.860981 136.960132 569.697219 136.960132 
Q 571.014919 136.960132 572.143374 136.816649 
Q 573.271829 136.666928 574.168986 136.355009 
L 574.168986 130.703037 
L 569.017342 130.703037 
L 569.017342 125.668663 
L 582.159292 125.668663 
z
" style="fill:#ffa600;"/>
   </g>
   <g id="patch_44">
    <path clip-path="url(#pdfc116e5fa)" d="M 572.548716 95.695499 
L 560.521109 95.695499 
L 558.622013 112.2 
L 550.884956 112.2 
L 561.934241 21.6 
L 571.110007 21.6 
L 582.159292 112.2 
L 574.428629 112.2 
z
M 562.439387 78.880326 
L 570.611255 78.880326 
L 566.531715 42.842263 
z
" style="fill:#008000;"/>
   </g>
   <g id="patch_45">
    <path clip-path="url(#pdfc116e5fa)" d="M 605.46907 154.74925 
L 593.441463 154.74925 
L 591.542367 157.5 
L 583.80531 157.5 
L 594.854595 142.4 
L 604.030361 142.4 
L 615.079646 157.5 
L 607.348983 157.5 
z
M 595.359741 151.946721 
L 603.531609 151.946721 
L 599.452069 145.940377 
z
" style="fill:#008000;"/>
   </g>
   <g id="patch_46">
    <path clip-path="url(#pdfc116e5fa)" d="M 615.079646 141.033795 
Q 611.925578 141.716897 608.533203 142.060008 
Q 605.140827 142.4 601.524163 142.4 
Q 593.351622 142.4 588.578466 140.366288 
Q 583.80531 138.332576 583.80531 134.854679 
Q 583.80531 131.336232 588.662574 129.318116 
Q 593.526848 127.3 601.986759 127.3 
Q 605.245963 127.3 608.231814 127.574489 
Q 611.224674 127.845858 613.874091 128.382359 
L 613.874091 131.392378 
Q 611.140566 130.703037 608.435076 130.363045 
Q 605.729587 130.019934 603.010079 130.019934 
Q 597.977589 130.019934 595.251072 131.273848 
Q 592.524555 132.524644 592.524555 134.854679 
Q 592.524555 137.16288 595.152945 138.423032 
Q 597.781335 139.680066 602.617573 139.680066 
Q 603.935272 139.680066 605.063728 139.608325 
Q 606.192183 139.533464 607.08934 139.377505 
L 607.08934 136.551518 
L 601.937696 136.551518 
L 601.937696 134.034332 
L 615.079646 134.034332 
z
" style="fill:#ffa600;"/>
   </g>
   <g id="patch_47">
    <path clip-path="url(#pdfc116e5fa)" d="M 615.079646 125.135282 
Q 612.463602 126.208283 609.634807 126.751023 
Q 606.806012 127.3 603.725068 127.3 
Q 594.537395 127.3 589.171352 123.232576 
Q 583.80531 119.165152 583.80531 112.209358 
Q 583.80531 105.22861 589.171352 101.167424 
Q 594.537395 97.1 603.725068 97.1 
Q 606.806012 97.1 609.634807 97.648977 
Q 612.463602 98.191717 615.079646 99.264718 
L 615.079646 105.284755 
Q 612.439963 103.862404 609.879076 103.201136 
Q 607.318189 102.539868 604.489395 102.539868 
Q 599.414899 102.539868 596.507308 105.116319 
Q 593.607596 107.686532 593.607596 112.209358 
Q 593.607596 116.713468 596.507308 119.289919 
Q 599.414899 121.860132 604.489395 121.860132 
Q 607.318189 121.860132 609.879076 121.198864 
Q 612.439963 120.531357 615.079646 119.109006 
z
" style="fill:#0000ff;"/>
   </g>
   <g id="patch_48">
    <path clip-path="url(#pdfc116e5fa)" d="M 583.80531 21.6 
L 615.079646 21.6 
L 615.079646 36.324604 
L 603.828158 36.324604 
L 603.828158 97.1 
L 595.078617 97.1 
L 595.078617 36.324604 
L 583.80531 36.324604 
z
" style="fill:#ff0000;"/>
   </g>
   <g id="patch_49">
    <path clip-path="url(#pdfc116e5fa)" d="M 638.389424 154.74925 
L 626.361817 154.74925 
L 624.462721 157.5 
L 616.725664 157.5 
L 627.774949 142.4 
L 636.950715 142.4 
L 648 157.5 
L 640.269337 157.5 
z
M 628.280095 151.946721 
L 636.451963 151.946721 
L 632.372423 145.940377 
z
" style="fill:#008000;"/>
   </g>
   <g id="patch_50">
    <path clip-path="url(#pdfc116e5fa)" d="M 648 140.235282 
Q 645.383956 141.308283 642.555161 141.851023 
Q 639.726366 142.4 636.645422 142.4 
Q 627.457749 142.4 622.091706 138.332576 
Q 616.725664 134.265152 616.725664 127.309358 
Q 616.725664 120.32861 622.091706 116.267424 
Q 627.457749 112.2 636.645422 112.2 
Q 639.726366 112.2 642.555161 112.748977 
Q 645.383956 113.291717 648 114.364718 
L 648 120.384755 
Q 645.360317 118.962404 642.79943 118.301136 
Q 640.238543 117.639868 637.409749 117.639868 
Q 632.335253 117.639868 629.427662 120.216319 
Q 626.52795 122.786532 626.52795 127.309358 
Q 626.52795 131.813468 629.427662 134.389919 
Q 632.335253 136.960132 637.409749 136.960132 
Q 640.238543 136.960132 642.79943 136.298864 
Q 645.360317 135.631357 648 134.209006 
z
" style="fill:#0000ff;"/>
   </g>
   <g id="patch_51">
    <path clip-path="url(#pdfc116e5fa)" d="M 648 104.002768 
Q 644.845932 108.101384 641.453557 110.16005 
Q 638.061181 112.2 634.444517 112.2 
Q 626.271976 112.2 621.49882 99.997728 
Q 616.725664 87.795455 616.725664 66.928073 
Q 616.725664 45.817393 621.582928 33.708697 
Q 626.447202 21.6 634.907113 21.6 
Q 638.166317 21.6 641.152168 23.246932 
Q 644.145028 24.87515 646.794445 28.094154 
L 646.794445 46.154266 
Q 644.06092 42.018219 641.35543 39.978269 
Q 638.649941 37.919603 635.930433 37.919603 
Q 630.897943 37.919603 628.171426 45.44309 
Q 625.444909 52.947862 625.444909 66.928073 
Q 625.444909 80.777277 628.073299 88.338195 
Q 630.701689 95.880397 635.537927 95.880397 
Q 636.855626 95.880397 637.984082 95.449948 
Q 639.112537 95.000785 640.009694 94.065028 
L 640.009694 77.10911 
L 634.85805 77.10911 
L 634.85805 62.00599 
L 648 62.00599 
z
" style="fill:#ffa600;"/>
   </g>
  </g>
 </g>
 <defs>
  <clipPath id="pdfc116e5fa">
   <rect height="135.9" width="558" x="90" y="21.6"/>
  </clipPath>
 </defs>
</svg>
