<?xml version="1.0" encoding="utf-8" standalone="no"?>
<!DOCTYPE svg PUBLIC "-//W3C//DTD SVG 1.1//EN"
  "http://www.w3.org/Graphics/SVG/1.1/DTD/svg11.dtd">
<!-- Created with matplotlib (https://matplotlib.org/) -->
<svg height="180pt" version="1.1" viewBox="0 0 720 180" width="720pt" xmlns="http://www.w3.org/2000/svg" xmlns:xlink="http://www.w3.org/1999/xlink">
 <metadata>
  <rdf:RDF xmlns:cc="http://creativecommons.org/ns#" xmlns:dc="http://purl.org/dc/elements/1.1/" xmlns:rdf="http://www.w3.org/1999/02/22-rdf-syntax-ns#">
   <cc:Work>
    <dc:type rdf:resource="http://purl.org/dc/dcmitype/StillImage"/>
    <dc:date>2021-08-04T23:33:32.518562</dc:date>
    <dc:format>image/svg+xml</dc:format>
    <dc:creator>
     <cc:Agent>
      <dc:title>Matplotlib v3.3.2, https://matplotlib.org/</dc:title>
     </cc:Agent>
    </dc:creator>
   </cc:Work>
  </rdf:RDF>
 </metadata>
 <defs>
  <style type="text/css">*{stroke-linecap:butt;stroke-linejoin:round;}</style>
 </defs>
 <g id="figure_1">
  <g id="patch_1">
   <path d="M 0 180 
L 720 180 
L 720 0 
L 0 0 
z
" style="fill:none;"/>
  </g>
  <g id="axes_1">
   <g id="line2d_1">
    <path clip-path="url(#p92d147bf84)" d="M 90 157.5 
L 648 157.5 
" style="fill:none;stroke:#000000;stroke-linecap:square;stroke-width:0.5;"/>
   </g>
   <g id="patch_2">
    <path clip-path="url(#p92d147bf84)" d="M 90 97.1 
L 121.274336 97.1 
L 121.274336 108.879683 
L 110.022848 108.879683 
L 110.022848 157.5 
L 101.273307 157.5 
L 101.273307 108.879683 
L 90 108.879683 
z
" style="fill:#ff0000;"/>
   </g>
   <g id="patch_3">
    <path clip-path="url(#p92d147bf84)" d="M 154.19469 156.417641 
Q 151.578646 156.954142 148.749851 157.225511 
Q 145.921056 157.5 142.840113 157.5 
Q 133.652439 157.5 128.286397 155.466288 
Q 122.920354 153.432576 122.920354 149.954679 
Q 122.920354 146.464305 128.286397 144.433712 
Q 133.652439 142.4 142.840113 142.4 
Q 145.921056 142.4 148.749851 142.674489 
Q 151.578646 142.945858 154.19469 143.482359 
L 154.19469 146.492378 
Q 151.555007 145.781202 148.99412 145.450568 
Q 146.433234 145.119934 143.604439 145.119934 
Q 138.529943 145.119934 135.622352 146.408159 
Q 132.72264 147.693266 132.72264 149.954679 
Q 132.72264 152.206734 135.622352 153.49496 
Q 138.529943 154.780066 143.604439 154.780066 
Q 146.433234 154.780066 148.99412 154.449432 
Q 151.555007 154.115679 154.19469 153.404503 
z
" style="fill:#0000ff;"/>
   </g>
   <g id="patch_4">
    <path clip-path="url(#p92d147bf84)" d="M 122.920354 127.3 
L 154.19469 127.3 
L 154.19469 130.244921 
L 142.943202 130.244921 
L 142.943202 142.4 
L 134.193661 142.4 
L 134.193661 130.244921 
L 122.920354 130.244921 
z
" style="fill:#ff0000;"/>
   </g>
   <g id="patch_5">
    <path clip-path="url(#p92d147bf84)" d="M 154.19469 124.567589 
Q 151.040622 125.933795 147.648247 126.620017 
Q 144.255872 127.3 140.639207 127.3 
Q 132.466666 127.3 127.69351 123.232576 
Q 122.920354 119.165152 122.920354 112.209358 
Q 122.920354 105.172464 127.777619 101.136232 
Q 132.641892 97.1 141.101804 97.1 
Q 144.361007 97.1 147.346858 97.648977 
Q 150.339718 98.191717 152.989135 99.264718 
L 152.989135 105.284755 
Q 150.25561 103.906073 147.55012 103.22609 
Q 144.844631 102.539868 142.125123 102.539868 
Q 137.092633 102.539868 134.366116 105.047697 
Q 131.6396 107.549287 131.6396 112.209358 
Q 131.6396 116.825759 134.26799 119.346065 
Q 136.89638 121.860132 141.732617 121.860132 
Q 143.050317 121.860132 144.178772 121.716649 
Q 145.307228 121.566928 146.204385 121.255009 
L 146.204385 115.603037 
L 141.05274 115.603037 
L 141.05274 110.568663 
L 154.19469 110.568663 
z
" style="fill:#ffa600;"/>
   </g>
   <g id="patch_6">
    <path clip-path="url(#p92d147bf84)" d="M 155.840708 97.1 
L 187.115044 97.1 
L 187.115044 108.879683 
L 175.863556 108.879683 
L 175.863556 157.5 
L 167.114015 157.5 
L 167.114015 108.879683 
L 155.840708 108.879683 
z
" style="fill:#ff0000;"/>
   </g>
   <g id="patch_7">
    <path clip-path="url(#p92d147bf84)" d="M 210.424822 154.74925 
L 198.397215 154.74925 
L 196.498119 157.5 
L 188.761062 157.5 
L 199.810347 142.4 
L 208.986113 142.4 
L 220.035398 157.5 
L 212.304735 157.5 
z
M 200.315494 151.946721 
L 208.487361 151.946721 
L 204.407821 145.940377 
z
" style="fill:#008000;"/>
   </g>
   <g id="patch_8">
    <path clip-path="url(#p92d147bf84)" d="M 220.035398 138.301384 
Q 216.88133 140.350692 213.488955 141.380025 
Q 210.09658 142.4 206.479915 142.4 
Q 198.307374 142.4 193.534218 136.298864 
Q 188.761062 130.197728 188.761062 119.764036 
Q 188.761062 109.208697 193.618327 103.154348 
Q 198.4826 97.1 206.942512 97.1 
Q 210.201715 97.1 213.187566 97.923466 
Q 216.180426 98.737575 218.829843 100.347077 
L 218.829843 109.377133 
Q 216.096318 107.30911 213.390828 106.289134 
Q 210.685339 105.259802 207.965831 105.259802 
Q 202.933341 105.259802 200.206824 109.021545 
Q 197.480308 112.773931 197.480308 119.764036 
Q 197.480308 126.688639 200.108698 130.469097 
Q 202.737088 134.240198 207.573325 134.240198 
Q 208.891025 134.240198 210.01948 134.024974 
Q 211.147936 133.800392 212.045093 133.332514 
L 212.045093 124.854555 
L 206.893448 124.854555 
L 206.893448 117.302995 
L 220.035398 117.302995 
z
" style="fill:#ffa600;"/>
   </g>
   <g id="patch_9">
    <path clip-path="url(#p92d147bf84)" d="M 252.955752 156.133795 
Q 249.801684 156.816897 246.409309 157.160008 
Q 243.016934 157.5 239.400269 157.5 
Q 231.227728 157.5 226.454572 155.466288 
Q 221.681416 153.432576 221.681416 149.954679 
Q 221.681416 146.436232 226.538681 144.418116 
Q 231.402954 142.4 239.862866 142.4 
Q 243.122069 142.4 246.10792 142.674489 
Q 249.10078 142.945858 251.750197 143.482359 
L 251.750197 146.492378 
Q 249.016672 145.803037 246.311182 145.463045 
Q 243.605693 145.119934 240.886185 145.119934 
Q 235.853695 145.119934 233.127178 146.373848 
Q 230.400662 147.624644 230.400662 149.954679 
Q 230.400662 152.26288 233.029052 153.523032 
Q 235.657442 154.780066 240.493679 154.780066 
Q 241.811379 154.780066 242.939834 154.708325 
Q 244.06829 154.633464 244.965447 154.477505 
L 244.965447 151.651518 
L 239.813802 151.651518 
L 239.813802 149.134332 
L 252.955752 149.134332 
z
" style="fill:#ffa600;"/>
   </g>
   <g id="patch_10">
    <path clip-path="url(#p92d147bf84)" d="M 243.345176 134.14775 
L 231.317569 134.14775 
L 229.418473 142.4 
L 221.681416 142.4 
L 232.730701 97.1 
L 241.906467 97.1 
L 252.955752 142.4 
L 245.225089 142.4 
z
M 233.235848 125.740163 
L 241.407715 125.740163 
L 237.328175 107.721132 
z
" style="fill:#008000;"/>
   </g>
   <g id="patch_11">
    <path clip-path="url(#p92d147bf84)" d="M 254.60177 97.1 
L 285.876106 97.1 
L 285.876106 108.879683 
L 274.624618 108.879683 
L 274.624618 157.5 
L 265.875077 157.5 
L 265.875077 108.879683 
L 254.60177 108.879683 
z
" style="fill:#ff0000;"/>
   </g>
   <g id="patch_12">
    <path clip-path="url(#p92d147bf84)" d="M 309.185884 146.497 
L 297.158277 146.497 
L 295.259181 157.5 
L 287.522124 157.5 
L 298.571409 97.1 
L 307.747175 97.1 
L 318.79646 157.5 
L 311.065797 157.5 
z
M 299.076556 135.286884 
L 307.248423 135.286884 
L 303.168883 111.261509 
z
" style="fill:#008000;"/>
   </g>
   <g id="patch_13">
    <path clip-path="url(#p92d147bf84)" d="M 351.716814 152.035179 
Q 348.562746 154.767589 345.170371 156.140033 
Q 341.777996 157.5 338.161331 157.5 
Q 329.98879 157.5 325.215634 149.365152 
Q 320.442478 141.230304 320.442478 127.318715 
Q 320.442478 113.244929 325.299743 105.172464 
Q 330.164016 97.1 338.623928 97.1 
Q 341.883131 97.1 344.868982 98.197955 
Q 347.861842 99.283433 350.511259 101.429436 
L 350.511259 113.46951 
Q 347.777734 110.712146 345.072244 109.352179 
Q 342.366755 107.979736 339.647247 107.979736 
Q 334.614757 107.979736 331.88824 112.995394 
Q 329.161724 117.998575 329.161724 127.318715 
Q 329.161724 136.551518 331.790114 141.59213 
Q 334.418504 146.620264 339.254741 146.620264 
Q 340.572441 146.620264 341.700896 146.333299 
Q 342.829351 146.033857 343.726509 145.410019 
L 343.726509 134.106073 
L 338.574864 134.106073 
L 338.574864 124.037327 
L 351.716814 124.037327 
z
" style="fill:#ffa600;"/>
   </g>
   <g id="patch_14">
    <path clip-path="url(#p92d147bf84)" d="M 384.637168 156.417641 
Q 382.021124 156.954142 379.192329 157.225511 
Q 376.363534 157.5 373.282591 157.5 
Q 364.094917 157.5 358.728874 155.466288 
Q 353.362832 153.432576 353.362832 149.954679 
Q 353.362832 146.464305 358.728874 144.433712 
Q 364.094917 142.4 373.282591 142.4 
Q 376.363534 142.4 379.192329 142.674489 
Q 382.021124 142.945858 384.637168 143.482359 
L 384.637168 146.492378 
Q 381.997485 145.781202 379.436598 145.450568 
Q 376.875712 145.119934 374.046917 145.119934 
Q 368.972421 145.119934 366.06483 146.408159 
Q 363.165118 147.693266 363.165118 149.954679 
Q 363.165118 152.206734 366.06483 153.49496 
Q 368.972421 154.780066 374.046917 154.780066 
Q 376.875712 154.780066 379.436598 154.449432 
Q 381.997485 154.115679 384.637168 153.404503 
z
" style="fill:#0000ff;"/>
   </g>
   <g id="patch_15">
    <path clip-path="url(#p92d147bf84)" d="M 384.637168 136.935179 
Q 381.4831 139.667589 378.090725 141.040033 
Q 374.698349 142.4 371.081685 142.4 
Q 362.909144 142.4 358.135988 134.265152 
Q 353.362832 126.130304 353.362832 112.218715 
Q 353.362832 98.144929 358.220097 90.072464 
Q 363.08437 82 371.544282 82 
Q 374.803485 82 377.789336 83.097955 
Q 380.782196 84.183433 383.431613 86.329436 
L 383.431613 98.36951 
Q 380.698088 95.612146 377.992598 94.252179 
Q 375.287109 92.879736 372.567601 92.879736 
Q 367.535111 92.879736 364.808594 97.895394 
Q 362.082078 102.898575 362.082078 112.218715 
Q 362.082078 121.451518 364.710468 126.49213 
Q 367.338858 131.520264 372.175095 131.520264 
Q 373.492795 131.520264 374.62125 131.233299 
Q 375.749705 130.933857 376.646863 130.310019 
L 376.646863 119.006073 
L 371.495218 119.006073 
L 371.495218 108.937327 
L 384.637168 108.937327 
z
" style="fill:#ffa600;"/>
   </g>
   <g id="patch_16">
    <path clip-path="url(#p92d147bf84)" d="M 353.362832 21.6 
L 384.637168 21.6 
L 384.637168 33.379683 
L 373.38568 33.379683 
L 373.38568 82 
L 364.636139 82 
L 364.636139 33.379683 
L 353.362832 33.379683 
z
" style="fill:#ff0000;"/>
   </g>
   <g id="patch_17">
    <path clip-path="url(#p92d147bf84)" d="M 417.557522 155.335282 
Q 414.941478 156.408283 412.112683 156.951023 
Q 409.283888 157.5 406.202945 157.5 
Q 397.015271 157.5 391.649228 153.432576 
Q 386.283186 149.365152 386.283186 142.409358 
Q 386.283186 135.42861 391.649228 131.367424 
Q 397.015271 127.3 406.202945 127.3 
Q 409.283888 127.3 412.112683 127.848977 
Q 414.941478 128.391717 417.557522 129.464718 
L 417.557522 135.484755 
Q 414.917839 134.062404 412.356952 133.401136 
Q 409.796066 132.739868 406.967271 132.739868 
Q 401.892775 132.739868 398.985184 135.316319 
Q 396.085472 137.886532 396.085472 142.409358 
Q 396.085472 146.913468 398.985184 149.489919 
Q 401.892775 152.060132 406.967271 152.060132 
Q 409.796066 152.060132 412.356952 151.398864 
Q 414.917839 150.731357 417.557522 149.309006 
z
" style="fill:#0000ff;"/>
   </g>
   <g id="patch_18">
    <path clip-path="url(#p92d147bf84)" d="M 386.283186 82 
L 417.557522 82 
L 417.557522 90.834762 
L 406.306034 90.834762 
L 406.306034 127.3 
L 397.556493 127.3 
L 397.556493 90.834762 
L 386.283186 90.834762 
z
" style="fill:#ff0000;"/>
   </g>
   <g id="patch_19">
    <path clip-path="url(#p92d147bf84)" d="M 417.557522 76.535179 
Q 414.403454 79.267589 411.011079 80.640033 
Q 407.618703 82 404.002039 82 
Q 395.829498 82 391.056342 73.865152 
Q 386.283186 65.730304 386.283186 51.818715 
Q 386.283186 37.744929 391.140451 29.672464 
Q 396.004724 21.6 404.464635 21.6 
Q 407.723839 21.6 410.70969 22.697955 
Q 413.70255 23.783433 416.351967 25.929436 
L 416.351967 37.96951 
Q 413.618442 35.212146 410.912952 33.852179 
Q 408.207463 32.479736 405.487955 32.479736 
Q 400.455465 32.479736 397.728948 37.495394 
Q 395.002432 42.498575 395.002432 51.818715 
Q 395.002432 61.051518 397.630822 66.09213 
Q 400.259212 71.120264 405.095449 71.120264 
Q 406.413149 71.120264 407.541604 70.833299 
Q 408.670059 70.533857 409.567217 69.910019 
L 409.567217 58.606073 
L 404.415572 58.606073 
L 404.415572 48.537327 
L 417.557522 48.537327 
z
" style="fill:#ffa600;"/>
   </g>
   <g id="patch_20">
    <path clip-path="url(#p92d147bf84)" d="M 450.477876 156.133795 
Q 447.323808 156.816897 443.931433 157.160008 
Q 440.539057 157.5 436.922393 157.5 
Q 428.749852 157.5 423.976696 155.466288 
Q 419.20354 153.432576 419.20354 149.954679 
Q 419.20354 146.436232 424.060805 144.418116 
Q 428.925078 142.4 437.384989 142.4 
Q 440.644193 142.4 443.630044 142.674489 
Q 446.622904 142.945858 449.272321 143.482359 
L 449.272321 146.492378 
Q 446.538796 145.803037 443.833306 145.463045 
Q 441.127817 145.119934 438.408309 145.119934 
Q 433.375819 145.119934 430.649302 146.373848 
Q 427.922786 147.624644 427.922786 149.954679 
Q 427.922786 152.26288 430.551176 153.523032 
Q 433.179565 154.780066 438.015803 154.780066 
Q 439.333503 154.780066 440.461958 154.708325 
Q 441.590413 154.633464 442.487571 154.477505 
L 442.487571 151.651518 
L 437.335926 151.651518 
L 437.335926 149.134332 
L 450.477876 149.134332 
z
" style="fill:#ffa600;"/>
   </g>
   <g id="patch_21">
    <path clip-path="url(#p92d147bf84)" d="M 450.477876 139.152923 
Q 447.861832 140.762425 445.033037 141.576534 
Q 442.204242 142.4 439.123298 142.4 
Q 429.935625 142.4 424.569582 136.298864 
Q 419.20354 130.197728 419.20354 119.764036 
Q 419.20354 109.292915 424.569582 103.201136 
Q 429.935625 97.1 439.123298 97.1 
Q 442.204242 97.1 445.033037 97.923466 
Q 447.861832 98.737575 450.477876 100.347077 
L 450.477876 109.377133 
Q 447.838193 107.243607 445.277306 106.251704 
Q 442.71642 105.259802 439.887625 105.259802 
Q 434.813129 105.259802 431.905538 109.124478 
Q 429.005826 112.979798 429.005826 119.764036 
Q 429.005826 126.520202 431.905538 130.384879 
Q 434.813129 134.240198 439.887625 134.240198 
Q 442.71642 134.240198 445.277306 133.248296 
Q 447.838193 132.247036 450.477876 130.11351 
z
" style="fill:#0000ff;"/>
   </g>
   <g id="patch_22">
    <path clip-path="url(#p92d147bf84)" d="M 419.20354 21.6 
L 450.477876 21.6 
L 450.477876 36.324604 
L 439.226388 36.324604 
L 439.226388 97.1 
L 430.476847 97.1 
L 430.476847 36.324604 
L 419.20354 36.324604 
z
" style="fill:#ff0000;"/>
   </g>
   <g id="patch_23">
    <path clip-path="url(#p92d147bf84)" d="M 452.123894 142.4 
L 483.39823 142.4 
L 483.39823 145.344921 
L 472.146742 145.344921 
L 472.146742 157.5 
L 463.397201 157.5 
L 463.397201 145.344921 
L 452.123894 145.344921 
z
" style="fill:#ff0000;"/>
   </g>
   <g id="patch_24">
    <path clip-path="url(#p92d147bf84)" d="M 473.787654 136.8985 
L 461.760047 136.8985 
L 459.860951 142.4 
L 452.123894 142.4 
L 463.173179 112.2 
L 472.348945 112.2 
L 483.39823 142.4 
L 475.667567 142.4 
z
M 463.678326 131.293442 
L 471.850193 131.293442 
L 467.770653 119.280754 
z
" style="fill:#008000;"/>
   </g>
   <g id="patch_25">
    <path clip-path="url(#p92d147bf84)" d="M 483.39823 110.035282 
Q 480.782186 111.108283 477.953391 111.651023 
Q 475.124596 112.2 472.043652 112.2 
Q 462.855979 112.2 457.489936 108.132576 
Q 452.123894 104.065152 452.123894 97.109358 
Q 452.123894 90.12861 457.489936 86.067424 
Q 462.855979 82 472.043652 82 
Q 475.124596 82 477.953391 82.548977 
Q 480.782186 83.091717 483.39823 84.164718 
L 483.39823 90.184755 
Q 480.758547 88.762404 478.19766 88.101136 
Q 475.636773 87.439868 472.807979 87.439868 
Q 467.733483 87.439868 464.825892 90.016319 
Q 461.92618 92.586532 461.92618 97.109358 
Q 461.92618 101.613468 464.825892 104.189919 
Q 467.733483 106.760132 472.807979 106.760132 
Q 475.636773 106.760132 478.19766 106.098864 
Q 480.758547 105.431357 483.39823 104.009006 
z
" style="fill:#0000ff;"/>
   </g>
   <g id="patch_26">
    <path clip-path="url(#p92d147bf84)" d="M 483.39823 76.535179 
Q 480.244162 79.267589 476.851787 80.640033 
Q 473.459411 82 469.842747 82 
Q 461.670206 82 456.89705 73.865152 
Q 452.123894 65.730304 452.123894 51.818715 
Q 452.123894 37.744929 456.981158 29.672464 
Q 461.845432 21.6 470.305343 21.6 
Q 473.564547 21.6 476.550398 22.697955 
Q 479.543258 23.783433 482.192675 25.929436 
L 482.192675 37.96951 
Q 479.45915 35.212146 476.75366 33.852179 
Q 474.048171 32.479736 471.328663 32.479736 
Q 466.296173 32.479736 463.569656 37.495394 
Q 460.84314 42.498575 460.84314 51.818715 
Q 460.84314 61.051518 463.471529 66.09213 
Q 466.099919 71.120264 470.936157 71.120264 
Q 472.253857 71.120264 473.382312 70.833299 
Q 474.510767 70.533857 475.407925 69.910019 
L 475.407925 58.606073 
L 470.25628 58.606073 
L 470.25628 48.537327 
L 483.39823 48.537327 
z
" style="fill:#ffa600;"/>
   </g>
   <g id="patch_27">
    <path clip-path="url(#p92d147bf84)" d="M 485.044248 142.4 
L 516.318584 142.4 
L 516.318584 145.344921 
L 505.067096 145.344921 
L 505.067096 157.5 
L 496.317555 157.5 
L 496.317555 145.344921 
L 485.044248 145.344921 
z
" style="fill:#ff0000;"/>
   </g>
   <g id="patch_28">
    <path clip-path="url(#p92d147bf84)" d="M 516.318584 140.235282 
Q 513.70254 141.308283 510.873745 141.851023 
Q 508.04495 142.4 504.964006 142.4 
Q 495.776333 142.4 490.41029 138.332576 
Q 485.044248 134.265152 485.044248 127.309358 
Q 485.044248 120.32861 490.41029 116.267424 
Q 495.776333 112.2 504.964006 112.2 
Q 508.04495 112.2 510.873745 112.748977 
Q 513.70254 113.291717 516.318584 114.364718 
L 516.318584 120.384755 
Q 513.678901 118.962404 511.118014 118.301136 
Q 508.557127 117.639868 505.728333 117.639868 
Q 500.653837 117.639868 497.746246 120.216319 
Q 494.846534 122.786532 494.846534 127.309358 
Q 494.846534 131.813468 497.746246 134.389919 
Q 500.653837 136.960132 505.728333 136.960132 
Q 508.557127 136.960132 511.118014 136.298864 
Q 513.678901 135.631357 516.318584 134.209006 
z
" style="fill:#0000ff;"/>
   </g>
   <g id="patch_29">
    <path clip-path="url(#p92d147bf84)" d="M 506.708008 103.94775 
L 494.680401 103.94775 
L 492.781305 112.2 
L 485.044248 112.2 
L 496.093533 66.9 
L 505.269299 66.9 
L 516.318584 112.2 
L 508.587921 112.2 
z
M 496.59868 95.540163 
L 504.770547 95.540163 
L 500.691007 77.521132 
z
" style="fill:#008000;"/>
   </g>
   <g id="patch_30">
    <path clip-path="url(#p92d147bf84)" d="M 516.318584 62.801384 
Q 513.164516 64.850692 509.772141 65.880025 
Q 506.379765 66.9 502.763101 66.9 
Q 494.59056 66.9 489.817404 60.798864 
Q 485.044248 54.697728 485.044248 44.264036 
Q 485.044248 33.708697 489.901512 27.654348 
Q 494.765786 21.6 503.225697 21.6 
Q 506.484901 21.6 509.470752 22.423466 
Q 512.463612 23.237575 515.113029 24.847077 
L 515.113029 33.877133 
Q 512.379504 31.80911 509.674014 30.789134 
Q 506.968525 29.759802 504.249017 29.759802 
Q 499.216527 29.759802 496.49001 33.521545 
Q 493.763493 37.273931 493.763493 44.264036 
Q 493.763493 51.188639 496.391883 54.969097 
Q 499.020273 58.740198 503.856511 58.740198 
Q 505.174211 58.740198 506.302666 58.524974 
Q 507.431121 58.300392 508.328279 57.832514 
L 508.328279 49.354555 
L 503.176634 49.354555 
L 503.176634 41.802995 
L 516.318584 41.802995 
z
" style="fill:#ffa600;"/>
   </g>
   <g id="patch_31">
    <path clip-path="url(#p92d147bf84)" d="M 539.628362 154.74925 
L 527.600755 154.74925 
L 525.701659 157.5 
L 517.964602 157.5 
L 529.013887 142.4 
L 538.189653 142.4 
L 549.238938 157.5 
L 541.508275 157.5 
z
M 529.519034 151.946721 
L 537.690901 151.946721 
L 533.611361 145.940377 
z
" style="fill:#008000;"/>
   </g>
   <g id="patch_32">
    <path clip-path="url(#p92d147bf84)" d="M 549.238938 139.152923 
Q 546.622894 140.762425 543.794099 141.576534 
Q 540.965304 142.4 537.88436 142.4 
Q 528.696687 142.4 523.330644 136.298864 
Q 517.964602 130.197728 517.964602 119.764036 
Q 517.964602 109.292915 523.330644 103.201136 
Q 528.696687 97.1 537.88436 97.1 
Q 540.965304 97.1 543.794099 97.923466 
Q 546.622894 98.737575 549.238938 100.347077 
L 549.238938 109.377133 
Q 546.599255 107.243607 544.038368 106.251704 
Q 541.477481 105.259802 538.648687 105.259802 
Q 533.574191 105.259802 530.6666 109.124478 
Q 527.766888 112.979798 527.766888 119.764036 
Q 527.766888 126.520202 530.6666 130.384879 
Q 533.574191 134.240198 538.648687 134.240198 
Q 541.477481 134.240198 544.038368 133.248296 
Q 546.599255 132.247036 549.238938 130.11351 
z
" style="fill:#0000ff;"/>
   </g>
   <g id="patch_33">
    <path clip-path="url(#p92d147bf84)" d="M 517.964602 21.6 
L 549.238938 21.6 
L 549.238938 36.324604 
L 537.98745 36.324604 
L 537.98745 97.1 
L 529.237909 97.1 
L 529.237909 36.324604 
L 517.964602 36.324604 
z
" style="fill:#ff0000;"/>
   </g>
   <g id="patch_34">
    <path clip-path="url(#p92d147bf84)" d="M 582.159292 156.133795 
Q 579.005224 156.816897 575.612849 157.160008 
Q 572.220473 157.5 568.603809 157.5 
Q 560.431268 157.5 555.658112 155.466288 
Q 550.884956 153.432576 550.884956 149.954679 
Q 550.884956 146.436232 555.74222 144.418116 
Q 560.606494 142.4 569.066405 142.4 
Q 572.325609 142.4 575.31146 142.674489 
Q 578.30432 142.945858 580.953737 143.482359 
L 580.953737 146.492378 
Q 578.220212 145.803037 575.514722 145.463045 
Q 572.809233 145.119934 570.089725 145.119934 
Q 565.057235 145.119934 562.330718 146.373848 
Q 559.604201 147.624644 559.604201 149.954679 
Q 559.604201 152.26288 562.232591 153.523032 
Q 564.860981 154.780066 569.697219 154.780066 
Q 571.014919 154.780066 572.143374 154.708325 
Q 573.271829 154.633464 574.168986 154.477505 
L 574.168986 151.651518 
L 569.017342 151.651518 
L 569.017342 149.134332 
L 582.159292 149.134332 
z
" style="fill:#ffa600;"/>
   </g>
   <g id="patch_35">
    <path clip-path="url(#p92d147bf84)" d="M 550.884956 112.2 
L 582.159292 112.2 
L 582.159292 118.089841 
L 570.907804 118.089841 
L 570.907804 142.4 
L 562.158263 142.4 
L 562.158263 118.089841 
L 550.884956 118.089841 
z
" style="fill:#ff0000;"/>
   </g>
   <g id="patch_36">
    <path clip-path="url(#p92d147bf84)" d="M 572.548716 95.695499 
L 560.521109 95.695499 
L 558.622013 112.2 
L 550.884956 112.2 
L 561.934241 21.6 
L 571.110007 21.6 
L 582.159292 112.2 
L 574.428629 112.2 
z
M 562.439387 78.880326 
L 570.611255 78.880326 
L 566.531715 42.842263 
z
" style="fill:#008000;"/>
   </g>
   <g id="patch_37">
    <path clip-path="url(#p92d147bf84)" d="M 605.46907 154.74925 
L 593.441463 154.74925 
L 591.542367 157.5 
L 583.80531 157.5 
L 594.854595 142.4 
L 604.030361 142.4 
L 615.079646 157.5 
L 607.348983 157.5 
z
M 595.359741 151.946721 
L 603.531609 151.946721 
L 599.452069 145.940377 
z
" style="fill:#008000;"/>
   </g>
   <g id="patch_38">
    <path clip-path="url(#p92d147bf84)" d="M 615.079646 141.317641 
Q 612.463602 141.854142 609.634807 142.125511 
Q 606.806012 142.4 603.725068 142.4 
Q 594.537395 142.4 589.171352 140.366288 
Q 583.80531 138.332576 583.80531 134.854679 
Q 583.80531 131.364305 589.171352 129.333712 
Q 594.537395 127.3 603.725068 127.3 
Q 606.806012 127.3 609.634807 127.574489 
Q 612.463602 127.845858 615.079646 128.382359 
L 615.079646 131.392378 
Q 612.439963 130.681202 609.879076 130.350568 
Q 607.318189 130.019934 604.489395 130.019934 
Q 599.414899 130.019934 596.507308 131.308159 
Q 593.607596 132.593266 593.607596 134.854679 
Q 593.607596 137.106734 596.507308 138.39496 
Q 599.414899 139.680066 604.489395 139.680066 
Q 607.318189 139.680066 609.879076 139.349432 
Q 612.439963 139.015679 615.079646 138.304503 
z
" style="fill:#0000ff;"/>
   </g>
   <g id="patch_39">
    <path clip-path="url(#p92d147bf84)" d="M 583.80531 112.2 
L 615.079646 112.2 
L 615.079646 115.144921 
L 603.828158 115.144921 
L 603.828158 127.3 
L 595.078617 127.3 
L 595.078617 115.144921 
L 583.80531 115.144921 
z
" style="fill:#ff0000;"/>
   </g>
   <g id="patch_40">
    <path clip-path="url(#p92d147bf84)" d="M 615.079646 104.002768 
Q 611.925578 108.101384 608.533203 110.16005 
Q 605.140827 112.2 601.524163 112.2 
Q 593.351622 112.2 588.578466 99.997728 
Q 583.80531 87.795455 583.80531 66.928073 
Q 583.80531 45.817393 588.662574 33.708697 
Q 593.526848 21.6 601.986759 21.6 
Q 605.245963 21.6 608.231814 23.246932 
Q 611.224674 24.87515 613.874091 28.094154 
L 613.874091 46.154266 
Q 611.140566 42.018219 608.435076 39.978269 
Q 605.729587 37.919603 603.010079 37.919603 
Q 597.977589 37.919603 595.251072 45.44309 
Q 592.524555 52.947862 592.524555 66.928073 
Q 592.524555 80.777277 595.152945 88.338195 
Q 597.781335 95.880397 602.617573 95.880397 
Q 603.935272 95.880397 605.063728 95.449948 
Q 606.192183 95.000785 607.08934 94.065028 
L 607.08934 77.10911 
L 601.937696 77.10911 
L 601.937696 62.00599 
L 615.079646 62.00599 
z
" style="fill:#ffa600;"/>
   </g>
   <g id="patch_41">
    <path clip-path="url(#p92d147bf84)" d="M 616.725664 142.4 
L 648 142.4 
L 648 145.344921 
L 636.748512 145.344921 
L 636.748512 157.5 
L 627.998971 157.5 
L 627.998971 145.344921 
L 616.725664 145.344921 
z
" style="fill:#ff0000;"/>
   </g>
   <g id="patch_42">
    <path clip-path="url(#p92d147bf84)" d="M 648 140.235282 
Q 645.383956 141.308283 642.555161 141.851023 
Q 639.726366 142.4 636.645422 142.4 
Q 627.457749 142.4 622.091706 138.332576 
Q 616.725664 134.265152 616.725664 127.309358 
Q 616.725664 120.32861 622.091706 116.267424 
Q 627.457749 112.2 636.645422 112.2 
Q 639.726366 112.2 642.555161 112.748977 
Q 645.383956 113.291717 648 114.364718 
L 648 120.384755 
Q 645.360317 118.962404 642.79943 118.301136 
Q 640.238543 117.639868 637.409749 117.639868 
Q 632.335253 117.639868 629.427662 120.216319 
Q 626.52795 122.786532 626.52795 127.309358 
Q 626.52795 131.813468 629.427662 134.389919 
Q 632.335253 136.960132 637.409749 136.960132 
Q 640.238543 136.960132 642.79943 136.298864 
Q 645.360317 135.631357 648 134.209006 
z
" style="fill:#0000ff;"/>
   </g>
   <g id="patch_43">
    <path clip-path="url(#p92d147bf84)" d="M 648 104.002768 
Q 644.845932 108.101384 641.453557 110.16005 
Q 638.061181 112.2 634.444517 112.2 
Q 626.271976 112.2 621.49882 99.997728 
Q 616.725664 87.795455 616.725664 66.928073 
Q 616.725664 45.817393 621.582928 33.708697 
Q 626.447202 21.6 634.907113 21.6 
Q 638.166317 21.6 641.152168 23.246932 
Q 644.145028 24.87515 646.794445 28.094154 
L 646.794445 46.154266 
Q 644.06092 42.018219 641.35543 39.978269 
Q 638.649941 37.919603 635.930433 37.919603 
Q 630.897943 37.919603 628.171426 45.44309 
Q 625.444909 52.947862 625.444909 66.928073 
Q 625.444909 80.777277 628.073299 88.338195 
Q 630.701689 95.880397 635.537927 95.880397 
Q 636.855626 95.880397 637.984082 95.449948 
Q 639.112537 95.000785 640.009694 94.065028 
L 640.009694 77.10911 
L 634.85805 77.10911 
L 634.85805 62.00599 
L 648 62.00599 
z
" style="fill:#ffa600;"/>
   </g>
  </g>
 </g>
 <defs>
  <clipPath id="p92d147bf84">
   <rect height="135.9" width="558" x="90" y="21.6"/>
  </clipPath>
 </defs>
</svg>
