<?xml version="1.0" encoding="utf-8" standalone="no"?>
<!DOCTYPE svg PUBLIC "-//W3C//DTD SVG 1.1//EN"
  "http://www.w3.org/Graphics/SVG/1.1/DTD/svg11.dtd">
<!-- Created with matplotlib (https://matplotlib.org/) -->
<svg height="180pt" version="1.1" viewBox="0 0 720 180" width="720pt" xmlns="http://www.w3.org/2000/svg" xmlns:xlink="http://www.w3.org/1999/xlink">
 <metadata>
  <rdf:RDF xmlns:cc="http://creativecommons.org/ns#" xmlns:dc="http://purl.org/dc/elements/1.1/" xmlns:rdf="http://www.w3.org/1999/02/22-rdf-syntax-ns#">
   <cc:Work>
    <dc:type rdf:resource="http://purl.org/dc/dcmitype/StillImage"/>
    <dc:date>2021-08-04T23:32:59.023183</dc:date>
    <dc:format>image/svg+xml</dc:format>
    <dc:creator>
     <cc:Agent>
      <dc:title>Matplotlib v3.3.2, https://matplotlib.org/</dc:title>
     </cc:Agent>
    </dc:creator>
   </cc:Work>
  </rdf:RDF>
 </metadata>
 <defs>
  <style type="text/css">*{stroke-linecap:butt;stroke-linejoin:round;}</style>
 </defs>
 <g id="figure_1">
  <g id="patch_1">
   <path d="M 0 180 
L 720 180 
L 720 0 
L 0 0 
z
" style="fill:none;"/>
  </g>
  <g id="axes_1">
   <g id="line2d_1">
    <path clip-path="url(#pb4b815fd74)" d="M 90 157.5 
L 648 157.5 
" style="fill:none;stroke:#000000;stroke-linecap:square;stroke-width:0.5;"/>
   </g>
   <g id="patch_2">
    <path clip-path="url(#pb4b815fd74)" d="M 111.66376 154.74925 
L 99.636153 154.74925 
L 97.737057 157.5 
L 90 157.5 
L 101.049285 142.4 
L 110.225051 142.4 
L 121.274336 157.5 
L 113.543673 157.5 
z
M 101.554432 151.946721 
L 109.726299 151.946721 
L 105.64676 145.940377 
z
" style="fill:#008000;"/>
   </g>
   <g id="patch_3">
    <path clip-path="url(#pb4b815fd74)" d="M 121.274336 140.235282 
Q 118.658292 141.308283 115.829497 141.851023 
Q 113.000702 142.4 109.919759 142.4 
Q 100.732085 142.4 95.366043 138.332576 
Q 90 134.265152 90 127.309358 
Q 90 120.32861 95.366043 116.267424 
Q 100.732085 112.2 109.919759 112.2 
Q 113.000702 112.2 115.829497 112.748977 
Q 118.658292 113.291717 121.274336 114.364718 
L 121.274336 120.384755 
Q 118.634653 118.962404 116.073766 118.301136 
Q 113.51288 117.639868 110.684085 117.639868 
Q 105.609589 117.639868 102.701998 120.216319 
Q 99.802286 122.786532 99.802286 127.309358 
Q 99.802286 131.813468 102.701998 134.389919 
Q 105.609589 136.960132 110.684085 136.960132 
Q 113.51288 136.960132 116.073766 136.298864 
Q 118.634653 135.631357 121.274336 134.209006 
z
" style="fill:#0000ff;"/>
   </g>
   <g id="patch_4">
    <path clip-path="url(#pb4b815fd74)" d="M 121.274336 108.101384 
Q 118.120268 110.150692 114.727893 111.180025 
Q 111.335518 112.2 107.718853 112.2 
Q 99.546312 112.2 94.773156 106.098864 
Q 90 99.997728 90 89.564036 
Q 90 79.008697 94.857265 72.954348 
Q 99.721538 66.9 108.18145 66.9 
Q 111.440653 66.9 114.426504 67.723466 
Q 117.419364 68.537575 120.068781 70.147077 
L 120.068781 79.177133 
Q 117.335256 77.10911 114.629766 76.089134 
Q 111.924277 75.059802 109.204769 75.059802 
Q 104.172279 75.059802 101.445762 78.821545 
Q 98.719246 82.573931 98.719246 89.564036 
Q 98.719246 96.488639 101.347636 100.269097 
Q 103.976026 104.040198 108.812263 104.040198 
Q 110.129963 104.040198 111.258418 103.824974 
Q 112.386874 103.600392 113.284031 103.132514 
L 113.284031 94.654555 
L 108.132386 94.654555 
L 108.132386 87.102995 
L 121.274336 87.102995 
z
" style="fill:#ffa600;"/>
   </g>
   <g id="patch_5">
    <path clip-path="url(#pb4b815fd74)" d="M 90 21.6 
L 121.274336 21.6 
L 121.274336 30.434762 
L 110.022848 30.434762 
L 110.022848 66.9 
L 101.273307 66.9 
L 101.273307 30.434762 
L 90 30.434762 
z
" style="fill:#ff0000;"/>
   </g>
   <g id="patch_6">
    <path clip-path="url(#pb4b815fd74)" d="M 154.19469 154.767589 
Q 151.040622 156.133795 147.648247 156.820017 
Q 144.255872 157.5 140.639207 157.5 
Q 132.466666 157.5 127.69351 153.432576 
Q 122.920354 149.365152 122.920354 142.409358 
Q 122.920354 135.372464 127.777619 131.336232 
Q 132.641892 127.3 141.101804 127.3 
Q 144.361007 127.3 147.346858 127.848977 
Q 150.339718 128.391717 152.989135 129.464718 
L 152.989135 135.484755 
Q 150.25561 134.106073 147.55012 133.42609 
Q 144.844631 132.739868 142.125123 132.739868 
Q 137.092633 132.739868 134.366116 135.247697 
Q 131.6396 137.749287 131.6396 142.409358 
Q 131.6396 147.025759 134.26799 149.546065 
Q 136.89638 152.060132 141.732617 152.060132 
Q 143.050317 152.060132 144.178772 151.916649 
Q 145.307228 151.766928 146.204385 151.455009 
L 146.204385 145.803037 
L 141.05274 145.803037 
L 141.05274 140.768663 
L 154.19469 140.768663 
z
" style="fill:#ffa600;"/>
   </g>
   <g id="patch_7">
    <path clip-path="url(#pb4b815fd74)" d="M 154.19469 124.052923 
Q 151.578646 125.662425 148.749851 126.476534 
Q 145.921056 127.3 142.840113 127.3 
Q 133.652439 127.3 128.286397 121.198864 
Q 122.920354 115.097728 122.920354 104.664036 
Q 122.920354 94.192915 128.286397 88.101136 
Q 133.652439 82 142.840113 82 
Q 145.921056 82 148.749851 82.823466 
Q 151.578646 83.637575 154.19469 85.247077 
L 154.19469 94.277133 
Q 151.555007 92.143607 148.99412 91.151704 
Q 146.433234 90.159802 143.604439 90.159802 
Q 138.529943 90.159802 135.622352 94.024478 
Q 132.72264 97.879798 132.72264 104.664036 
Q 132.72264 111.420202 135.622352 115.284879 
Q 138.529943 119.140198 143.604439 119.140198 
Q 146.433234 119.140198 148.99412 118.148296 
Q 151.555007 117.147036 154.19469 115.01351 
z
" style="fill:#0000ff;"/>
   </g>
   <g id="patch_8">
    <path clip-path="url(#pb4b815fd74)" d="M 144.584114 70.997 
L 132.556507 70.997 
L 130.657411 82 
L 122.920354 82 
L 133.969639 21.6 
L 143.145405 21.6 
L 154.19469 82 
L 146.464027 82 
z
M 134.474786 59.786884 
L 142.646653 59.786884 
L 138.567114 35.761509 
z
" style="fill:#008000;"/>
   </g>
   <g id="patch_9">
    <path clip-path="url(#pb4b815fd74)" d="M 187.115044 154.767589 
Q 183.960976 156.133795 180.568601 156.820017 
Q 177.176226 157.5 173.559561 157.5 
Q 165.38702 157.5 160.613864 153.432576 
Q 155.840708 149.365152 155.840708 142.409358 
Q 155.840708 135.372464 160.697973 131.336232 
Q 165.562246 127.3 174.022158 127.3 
Q 177.281361 127.3 180.267212 127.848977 
Q 183.260072 128.391717 185.909489 129.464718 
L 185.909489 135.484755 
Q 183.175964 134.106073 180.470474 133.42609 
Q 177.764985 132.739868 175.045477 132.739868 
Q 170.012987 132.739868 167.28647 135.247697 
Q 164.559954 137.749287 164.559954 142.409358 
Q 164.559954 147.025759 167.188344 149.546065 
Q 169.816734 152.060132 174.652971 152.060132 
Q 175.970671 152.060132 177.099126 151.916649 
Q 178.227582 151.766928 179.124739 151.455009 
L 179.124739 145.803037 
L 173.973094 145.803037 
L 173.973094 140.768663 
L 187.115044 140.768663 
z
" style="fill:#ffa600;"/>
   </g>
   <g id="patch_10">
    <path clip-path="url(#pb4b815fd74)" d="M 177.504468 108.044749 
L 165.476861 108.044749 
L 163.577765 127.3 
L 155.840708 127.3 
L 166.889993 21.6 
L 176.065759 21.6 
L 187.115044 127.3 
L 179.384381 127.3 
z
M 167.39514 88.427047 
L 175.567007 88.427047 
L 171.487467 46.38264 
z
" style="fill:#008000;"/>
   </g>
   <g id="patch_11">
    <path clip-path="url(#pb4b815fd74)" d="M 210.424822 154.74925 
L 198.397215 154.74925 
L 196.498119 157.5 
L 188.761062 157.5 
L 199.810347 142.4 
L 208.986113 142.4 
L 220.035398 157.5 
L 212.304735 157.5 
z
M 200.315494 151.946721 
L 208.487361 151.946721 
L 204.407821 145.940377 
z
" style="fill:#008000;"/>
   </g>
   <g id="patch_12">
    <path clip-path="url(#pb4b815fd74)" d="M 220.035398 141.033795 
Q 216.88133 141.716897 213.488955 142.060008 
Q 210.09658 142.4 206.479915 142.4 
Q 198.307374 142.4 193.534218 140.366288 
Q 188.761062 138.332576 188.761062 134.854679 
Q 188.761062 131.336232 193.618327 129.318116 
Q 198.4826 127.3 206.942512 127.3 
Q 210.201715 127.3 213.187566 127.574489 
Q 216.180426 127.845858 218.829843 128.382359 
L 218.829843 131.392378 
Q 216.096318 130.703037 213.390828 130.363045 
Q 210.685339 130.019934 207.965831 130.019934 
Q 202.933341 130.019934 200.206824 131.273848 
Q 197.480308 132.524644 197.480308 134.854679 
Q 197.480308 137.16288 200.108698 138.423032 
Q 202.737088 139.680066 207.573325 139.680066 
Q 208.891025 139.680066 210.01948 139.608325 
Q 211.147936 139.533464 212.045093 139.377505 
L 212.045093 136.551518 
L 206.893448 136.551518 
L 206.893448 134.034332 
L 220.035398 134.034332 
z
" style="fill:#ffa600;"/>
   </g>
   <g id="patch_13">
    <path clip-path="url(#pb4b815fd74)" d="M 220.035398 125.135282 
Q 217.419354 126.208283 214.590559 126.751023 
Q 211.761764 127.3 208.680821 127.3 
Q 199.493147 127.3 194.127105 123.232576 
Q 188.761062 119.165152 188.761062 112.209358 
Q 188.761062 105.22861 194.127105 101.167424 
Q 199.493147 97.1 208.680821 97.1 
Q 211.761764 97.1 214.590559 97.648977 
Q 217.419354 98.191717 220.035398 99.264718 
L 220.035398 105.284755 
Q 217.395715 103.862404 214.834828 103.201136 
Q 212.273942 102.539868 209.445147 102.539868 
Q 204.370651 102.539868 201.46306 105.116319 
Q 198.563348 107.686532 198.563348 112.209358 
Q 198.563348 116.713468 201.46306 119.289919 
Q 204.370651 121.860132 209.445147 121.860132 
Q 212.273942 121.860132 214.834828 121.198864 
Q 217.395715 120.531357 220.035398 119.109006 
z
" style="fill:#0000ff;"/>
   </g>
   <g id="patch_14">
    <path clip-path="url(#pb4b815fd74)" d="M 188.761062 21.6 
L 220.035398 21.6 
L 220.035398 36.324604 
L 208.78391 36.324604 
L 208.78391 97.1 
L 200.034369 97.1 
L 200.034369 36.324604 
L 188.761062 36.324604 
z
" style="fill:#ff0000;"/>
   </g>
   <g id="patch_15">
    <path clip-path="url(#pb4b815fd74)" d="M 243.345176 154.74925 
L 231.317569 154.74925 
L 229.418473 157.5 
L 221.681416 157.5 
L 232.730701 142.4 
L 241.906467 142.4 
L 252.955752 157.5 
L 245.225089 157.5 
z
M 233.235848 151.946721 
L 241.407715 151.946721 
L 237.328175 145.940377 
z
" style="fill:#008000;"/>
   </g>
   <g id="patch_16">
    <path clip-path="url(#pb4b815fd74)" d="M 221.681416 97.1 
L 252.955752 97.1 
L 252.955752 105.934762 
L 241.704264 105.934762 
L 241.704264 142.4 
L 232.954723 142.4 
L 232.954723 105.934762 
L 221.681416 105.934762 
z
" style="fill:#ff0000;"/>
   </g>
   <g id="patch_17">
    <path clip-path="url(#pb4b815fd74)" d="M 252.955752 90.268973 
Q 249.801684 93.684487 246.409309 95.400041 
Q 243.016934 97.1 239.400269 97.1 
Q 231.227728 97.1 226.454572 86.93144 
Q 221.681416 76.76288 221.681416 59.373394 
Q 221.681416 41.781161 226.538681 31.69058 
Q 231.402954 21.6 239.862866 21.6 
Q 243.122069 21.6 246.10792 22.972444 
Q 249.10078 24.329291 251.750197 27.011795 
L 251.750197 42.061888 
Q 249.016672 38.615183 246.311182 36.915224 
Q 243.605693 35.199669 240.886185 35.199669 
Q 235.853695 35.199669 233.127178 41.469242 
Q 230.400662 47.723218 230.400662 59.373394 
Q 230.400662 70.914398 233.029052 77.215162 
Q 235.657442 83.500331 240.493679 83.500331 
Q 241.811379 83.500331 242.939834 83.141624 
Q 244.06829 82.767321 244.965447 81.987523 
L 244.965447 67.857591 
L 239.813802 67.857591 
L 239.813802 55.271659 
L 252.955752 55.271659 
z
" style="fill:#ffa600;"/>
   </g>
   <g id="patch_18">
    <path clip-path="url(#pb4b815fd74)" d="M 285.876106 156.417641 
Q 283.260062 156.954142 280.431267 157.225511 
Q 277.602472 157.5 274.521529 157.5 
Q 265.333855 157.5 259.967812 155.466288 
Q 254.60177 153.432576 254.60177 149.954679 
Q 254.60177 146.464305 259.967812 144.433712 
Q 265.333855 142.4 274.521529 142.4 
Q 277.602472 142.4 280.431267 142.674489 
Q 283.260062 142.945858 285.876106 143.482359 
L 285.876106 146.492378 
Q 283.236423 145.781202 280.675536 145.450568 
Q 278.11465 145.119934 275.285855 145.119934 
Q 270.211359 145.119934 267.303768 146.408159 
Q 264.404056 147.693266 264.404056 149.954679 
Q 264.404056 152.206734 267.303768 153.49496 
Q 270.211359 154.780066 275.285855 154.780066 
Q 278.11465 154.780066 280.675536 154.449432 
Q 283.236423 154.115679 285.876106 153.404503 
z
" style="fill:#0000ff;"/>
   </g>
   <g id="patch_19">
    <path clip-path="url(#pb4b815fd74)" d="M 254.60177 127.3 
L 285.876106 127.3 
L 285.876106 130.244921 
L 274.624618 130.244921 
L 274.624618 142.4 
L 265.875077 142.4 
L 265.875077 130.244921 
L 254.60177 130.244921 
z
" style="fill:#ff0000;"/>
   </g>
   <g id="patch_20">
    <path clip-path="url(#pb4b815fd74)" d="M 276.26553 121.7985 
L 264.237923 121.7985 
L 262.338827 127.3 
L 254.60177 127.3 
L 265.651055 97.1 
L 274.826821 97.1 
L 285.876106 127.3 
L 278.145443 127.3 
z
M 266.156202 116.193442 
L 274.328069 116.193442 
L 270.248529 104.180754 
z
" style="fill:#008000;"/>
   </g>
   <g id="patch_21">
    <path clip-path="url(#pb4b815fd74)" d="M 285.876106 90.268973 
Q 282.722038 93.684487 279.329663 95.400041 
Q 275.937288 97.1 272.320623 97.1 
Q 264.148082 97.1 259.374926 86.93144 
Q 254.60177 76.76288 254.60177 59.373394 
Q 254.60177 41.781161 259.459035 31.69058 
Q 264.323308 21.6 272.78322 21.6 
Q 276.042423 21.6 279.028274 22.972444 
Q 282.021134 24.329291 284.670551 27.011795 
L 284.670551 42.061888 
Q 281.937026 38.615183 279.231536 36.915224 
Q 276.526047 35.199669 273.806539 35.199669 
Q 268.774049 35.199669 266.047532 41.469242 
Q 263.321016 47.723218 263.321016 59.373394 
Q 263.321016 70.914398 265.949406 77.215162 
Q 268.577796 83.500331 273.414033 83.500331 
Q 274.731733 83.500331 275.860188 83.141624 
Q 276.988644 82.767321 277.885801 81.987523 
L 277.885801 67.857591 
L 272.734156 67.857591 
L 272.734156 55.271659 
L 285.876106 55.271659 
z
" style="fill:#ffa600;"/>
   </g>
   <g id="patch_22">
    <path clip-path="url(#pb4b815fd74)" d="M 287.522124 127.3 
L 318.79646 127.3 
L 318.79646 133.189841 
L 307.544972 133.189841 
L 307.544972 157.5 
L 298.795431 157.5 
L 298.795431 133.189841 
L 287.522124 133.189841 
z
" style="fill:#ff0000;"/>
   </g>
   <g id="patch_23">
    <path clip-path="url(#pb4b815fd74)" d="M 318.79646 119.723487 
Q 316.180416 123.478992 313.351621 125.378579 
Q 310.522826 127.3 307.441883 127.3 
Q 298.254209 127.3 292.888166 113.064016 
Q 287.522124 98.828031 287.522124 74.482751 
Q 287.522124 50.050134 292.888166 35.835984 
Q 298.254209 21.6 307.441883 21.6 
Q 310.522826 21.6 313.351621 23.521421 
Q 316.180416 25.421008 318.79646 29.176513 
L 318.79646 50.246643 
Q 316.156777 45.268416 313.59589 42.953976 
Q 311.035004 40.639537 308.206209 40.639537 
Q 303.131713 40.639537 300.224122 49.657116 
Q 297.32441 58.652861 297.32441 74.482751 
Q 297.32441 90.247139 300.224122 99.264718 
Q 303.131713 108.260463 308.206209 108.260463 
Q 311.035004 108.260463 313.59589 105.946024 
Q 316.156777 103.60975 318.79646 98.631522 
z
" style="fill:#0000ff;"/>
   </g>
   <g id="patch_24">
    <path clip-path="url(#pb4b815fd74)" d="M 351.716814 145.204152 
Q 348.562746 151.352076 345.170371 154.440074 
Q 341.777996 157.5 338.161331 157.5 
Q 329.98879 157.5 325.215634 139.196592 
Q 320.442478 120.893183 320.442478 89.592109 
Q 320.442478 57.92609 325.299743 39.763045 
Q 330.164016 21.6 338.623928 21.6 
Q 341.883131 21.6 344.868982 24.070399 
Q 347.861842 26.512725 350.511259 31.341231 
L 350.511259 58.431398 
Q 347.777734 52.227329 345.072244 49.167403 
Q 342.366755 46.079405 339.647247 46.079405 
Q 334.614757 46.079405 331.88824 57.364635 
Q 329.161724 68.621793 329.161724 89.592109 
Q 329.161724 110.365916 331.790114 121.707292 
Q 334.418504 133.020595 339.254741 133.020595 
Q 340.572441 133.020595 341.700896 132.374923 
Q 342.829351 131.701177 343.726509 130.297542 
L 343.726509 104.863665 
L 338.574864 104.863665 
L 338.574864 82.208986 
L 351.716814 82.208986 
z
" style="fill:#ffa600;"/>
   </g>
   <g id="patch_25">
    <path clip-path="url(#pb4b815fd74)" d="M 375.026592 154.74925 
L 362.998985 154.74925 
L 361.099889 157.5 
L 353.362832 157.5 
L 364.412117 142.4 
L 373.587883 142.4 
L 384.637168 157.5 
L 376.906505 157.5 
z
M 364.917264 151.946721 
L 373.089131 151.946721 
L 369.009591 145.940377 
z
" style="fill:#008000;"/>
   </g>
   <g id="patch_26">
    <path clip-path="url(#pb4b815fd74)" d="M 384.637168 139.667589 
Q 381.4831 141.033795 378.090725 141.720017 
Q 374.698349 142.4 371.081685 142.4 
Q 362.909144 142.4 358.135988 138.332576 
Q 353.362832 134.265152 353.362832 127.309358 
Q 353.362832 120.272464 358.220097 116.236232 
Q 363.08437 112.2 371.544282 112.2 
Q 374.803485 112.2 377.789336 112.748977 
Q 380.782196 113.291717 383.431613 114.364718 
L 383.431613 120.384755 
Q 380.698088 119.006073 377.992598 118.32609 
Q 375.287109 117.639868 372.567601 117.639868 
Q 367.535111 117.639868 364.808594 120.147697 
Q 362.082078 122.649287 362.082078 127.309358 
Q 362.082078 131.925759 364.710468 134.446065 
Q 367.338858 136.960132 372.175095 136.960132 
Q 373.492795 136.960132 374.62125 136.816649 
Q 375.749705 136.666928 376.646863 136.355009 
L 376.646863 130.703037 
L 371.495218 130.703037 
L 371.495218 125.668663 
L 384.637168 125.668663 
z
" style="fill:#ffa600;"/>
   </g>
   <g id="patch_27">
    <path clip-path="url(#pb4b815fd74)" d="M 353.362832 82 
L 384.637168 82 
L 384.637168 87.889841 
L 373.38568 87.889841 
L 373.38568 112.2 
L 364.636139 112.2 
L 364.636139 87.889841 
L 353.362832 87.889841 
z
" style="fill:#ff0000;"/>
   </g>
   <g id="patch_28">
    <path clip-path="url(#pb4b815fd74)" d="M 384.637168 77.670564 
Q 382.021124 79.816567 379.192329 80.902045 
Q 376.363534 82 373.282591 82 
Q 364.094917 82 358.728874 73.865152 
Q 353.362832 65.730304 353.362832 51.818715 
Q 353.362832 37.85722 358.728874 29.734848 
Q 364.094917 21.6 373.282591 21.6 
Q 376.363534 21.6 379.192329 22.697955 
Q 382.021124 23.783433 384.637168 25.929436 
L 384.637168 37.96951 
Q 381.997485 35.124809 379.436598 33.802272 
Q 376.875712 32.479736 374.046917 32.479736 
Q 368.972421 32.479736 366.06483 37.632638 
Q 363.165118 42.773063 363.165118 51.818715 
Q 363.165118 60.826937 366.06483 65.979839 
Q 368.972421 71.120264 374.046917 71.120264 
Q 376.875712 71.120264 379.436598 69.797728 
Q 381.997485 68.462714 384.637168 65.618013 
z
" style="fill:#0000ff;"/>
   </g>
   <g id="patch_29">
    <path clip-path="url(#pb4b815fd74)" d="M 407.946946 154.74925 
L 395.919339 154.74925 
L 394.020243 157.5 
L 386.283186 157.5 
L 397.332471 142.4 
L 406.508237 142.4 
L 417.557522 157.5 
L 409.826859 157.5 
z
M 397.837618 151.946721 
L 406.009485 151.946721 
L 401.929945 145.940377 
z
" style="fill:#008000;"/>
   </g>
   <g id="patch_30">
    <path clip-path="url(#pb4b815fd74)" d="M 417.557522 133.741128 
Q 414.941478 138.033134 412.112683 140.20409 
Q 409.283888 142.4 406.202945 142.4 
Q 397.015271 142.4 391.649228 126.130304 
Q 386.283186 109.860607 386.283186 82.03743 
Q 386.283186 54.114439 391.649228 37.869696 
Q 397.015271 21.6 406.202945 21.6 
Q 409.283888 21.6 412.112683 23.79591 
Q 414.941478 25.966866 417.557522 30.258872 
L 417.557522 54.339021 
Q 414.917839 48.649618 412.356952 46.004545 
Q 409.796066 43.359471 406.967271 43.359471 
Q 401.892775 43.359471 398.985184 53.665276 
Q 396.085472 63.946127 396.085472 82.03743 
Q 396.085472 100.053873 398.985184 110.359678 
Q 401.892775 120.640529 406.967271 120.640529 
Q 409.796066 120.640529 412.356952 117.995455 
Q 414.917839 115.325429 417.557522 109.636026 
z
" style="fill:#0000ff;"/>
   </g>
   <g id="patch_31">
    <path clip-path="url(#pb4b815fd74)" d="M 450.477876 153.401384 
Q 447.323808 155.450692 443.931433 156.480025 
Q 440.539057 157.5 436.922393 157.5 
Q 428.749852 157.5 423.976696 151.398864 
Q 419.20354 145.297728 419.20354 134.864036 
Q 419.20354 124.308697 424.060805 118.254348 
Q 428.925078 112.2 437.384989 112.2 
Q 440.644193 112.2 443.630044 113.023466 
Q 446.622904 113.837575 449.272321 115.447077 
L 449.272321 124.477133 
Q 446.538796 122.40911 443.833306 121.389134 
Q 441.127817 120.359802 438.408309 120.359802 
Q 433.375819 120.359802 430.649302 124.121545 
Q 427.922786 127.873931 427.922786 134.864036 
Q 427.922786 141.788639 430.551176 145.569097 
Q 433.179565 149.340198 438.015803 149.340198 
Q 439.333503 149.340198 440.461958 149.124974 
Q 441.590413 148.900392 442.487571 148.432514 
L 442.487571 139.954555 
L 437.335926 139.954555 
L 437.335926 132.402995 
L 450.477876 132.402995 
z
" style="fill:#ffa600;"/>
   </g>
   <g id="patch_32">
    <path clip-path="url(#pb4b815fd74)" d="M 450.477876 105.705846 
Q 447.861832 108.92485 445.033037 110.553068 
Q 442.204242 112.2 439.123298 112.2 
Q 429.935625 112.2 424.569582 99.997728 
Q 419.20354 87.795455 419.20354 66.928073 
Q 419.20354 45.985829 424.569582 33.802272 
Q 429.935625 21.6 439.123298 21.6 
Q 442.204242 21.6 445.033037 23.246932 
Q 447.861832 24.87515 450.477876 28.094154 
L 450.477876 46.154266 
Q 447.838193 41.887213 445.277306 39.903408 
Q 442.71642 37.919603 439.887625 37.919603 
Q 434.813129 37.919603 431.905538 45.648957 
Q 429.005826 53.359595 429.005826 66.928073 
Q 429.005826 80.440405 431.905538 88.169758 
Q 434.813129 95.880397 439.887625 95.880397 
Q 442.71642 95.880397 445.277306 93.896592 
Q 447.838193 91.894071 450.477876 87.627019 
z
" style="fill:#0000ff;"/>
   </g>
   <g id="patch_33">
    <path clip-path="url(#pb4b815fd74)" d="M 483.39823 155.335282 
Q 480.782186 156.408283 477.953391 156.951023 
Q 475.124596 157.5 472.043652 157.5 
Q 462.855979 157.5 457.489936 153.432576 
Q 452.123894 149.365152 452.123894 142.409358 
Q 452.123894 135.42861 457.489936 131.367424 
Q 462.855979 127.3 472.043652 127.3 
Q 475.124596 127.3 477.953391 127.848977 
Q 480.782186 128.391717 483.39823 129.464718 
L 483.39823 135.484755 
Q 480.758547 134.062404 478.19766 133.401136 
Q 475.636773 132.739868 472.807979 132.739868 
Q 467.733483 132.739868 464.825892 135.316319 
Q 461.92618 137.886532 461.92618 142.409358 
Q 461.92618 146.913468 464.825892 149.489919 
Q 467.733483 152.060132 472.807979 152.060132 
Q 475.636773 152.060132 478.19766 151.398864 
Q 480.758547 150.731357 483.39823 149.309006 
z
" style="fill:#0000ff;"/>
   </g>
   <g id="patch_34">
    <path clip-path="url(#pb4b815fd74)" d="M 452.123894 21.6 
L 483.39823 21.6 
L 483.39823 42.214445 
L 472.146742 42.214445 
L 472.146742 127.3 
L 463.397201 127.3 
L 463.397201 42.214445 
L 452.123894 42.214445 
z
" style="fill:#ff0000;"/>
   </g>
   <g id="patch_35">
    <path clip-path="url(#pb4b815fd74)" d="M 506.708008 154.74925 
L 494.680401 154.74925 
L 492.781305 157.5 
L 485.044248 157.5 
L 496.093533 142.4 
L 505.269299 142.4 
L 516.318584 157.5 
L 508.587921 157.5 
z
M 496.59868 151.946721 
L 504.770547 151.946721 
L 500.691007 145.940377 
z
" style="fill:#008000;"/>
   </g>
   <g id="patch_36">
    <path clip-path="url(#pb4b815fd74)" d="M 485.044248 127.3 
L 516.318584 127.3 
L 516.318584 130.244921 
L 505.067096 130.244921 
L 505.067096 142.4 
L 496.317555 142.4 
L 496.317555 130.244921 
L 485.044248 130.244921 
z
" style="fill:#ff0000;"/>
   </g>
   <g id="patch_37">
    <path clip-path="url(#pb4b815fd74)" d="M 516.318584 124.052923 
Q 513.70254 125.662425 510.873745 126.476534 
Q 508.04495 127.3 504.964006 127.3 
Q 495.776333 127.3 490.41029 121.198864 
Q 485.044248 115.097728 485.044248 104.664036 
Q 485.044248 94.192915 490.41029 88.101136 
Q 495.776333 82 504.964006 82 
Q 508.04495 82 510.873745 82.823466 
Q 513.70254 83.637575 516.318584 85.247077 
L 516.318584 94.277133 
Q 513.678901 92.143607 511.118014 91.151704 
Q 508.557127 90.159802 505.728333 90.159802 
Q 500.653837 90.159802 497.746246 94.024478 
Q 494.846534 97.879798 494.846534 104.664036 
Q 494.846534 111.420202 497.746246 115.284879 
Q 500.653837 119.140198 505.728333 119.140198 
Q 508.557127 119.140198 511.118014 118.148296 
Q 513.678901 117.147036 516.318584 115.01351 
z
" style="fill:#0000ff;"/>
   </g>
   <g id="patch_38">
    <path clip-path="url(#pb4b815fd74)" d="M 516.318584 76.535179 
Q 513.164516 79.267589 509.772141 80.640033 
Q 506.379765 82 502.763101 82 
Q 494.59056 82 489.817404 73.865152 
Q 485.044248 65.730304 485.044248 51.818715 
Q 485.044248 37.744929 489.901512 29.672464 
Q 494.765786 21.6 503.225697 21.6 
Q 506.484901 21.6 509.470752 22.697955 
Q 512.463612 23.783433 515.113029 25.929436 
L 515.113029 37.96951 
Q 512.379504 35.212146 509.674014 33.852179 
Q 506.968525 32.479736 504.249017 32.479736 
Q 499.216527 32.479736 496.49001 37.495394 
Q 493.763493 42.498575 493.763493 51.818715 
Q 493.763493 61.051518 496.391883 66.09213 
Q 499.020273 71.120264 503.856511 71.120264 
Q 505.174211 71.120264 506.302666 70.833299 
Q 507.431121 70.533857 508.328279 69.910019 
L 508.328279 58.606073 
L 503.176634 58.606073 
L 503.176634 48.537327 
L 516.318584 48.537327 
z
" style="fill:#ffa600;"/>
   </g>
   <g id="patch_39">
    <path clip-path="url(#pb4b815fd74)" d="M 539.628362 154.74925 
L 527.600755 154.74925 
L 525.701659 157.5 
L 517.964602 157.5 
L 529.013887 142.4 
L 538.189653 142.4 
L 549.238938 157.5 
L 541.508275 157.5 
z
M 529.519034 151.946721 
L 537.690901 151.946721 
L 533.611361 145.940377 
z
" style="fill:#008000;"/>
   </g>
   <g id="patch_40">
    <path clip-path="url(#pb4b815fd74)" d="M 549.238938 139.667589 
Q 546.08487 141.033795 542.692495 141.720017 
Q 539.300119 142.4 535.683455 142.4 
Q 527.510914 142.4 522.737758 138.332576 
Q 517.964602 134.265152 517.964602 127.309358 
Q 517.964602 120.272464 522.821866 116.236232 
Q 527.68614 112.2 536.146051 112.2 
Q 539.405255 112.2 542.391106 112.748977 
Q 545.383966 113.291717 548.033383 114.364718 
L 548.033383 120.384755 
Q 545.299858 119.006073 542.594368 118.32609 
Q 539.888879 117.639868 537.169371 117.639868 
Q 532.136881 117.639868 529.410364 120.147697 
Q 526.683847 122.649287 526.683847 127.309358 
Q 526.683847 131.925759 529.312237 134.446065 
Q 531.940627 136.960132 536.776865 136.960132 
Q 538.094565 136.960132 539.22302 136.816649 
Q 540.351475 136.666928 541.248633 136.355009 
L 541.248633 130.703037 
L 536.096988 130.703037 
L 536.096988 125.668663 
L 549.238938 125.668663 
z
" style="fill:#ffa600;"/>
   </g>
   <g id="patch_41">
    <path clip-path="url(#pb4b815fd74)" d="M 517.964602 82 
L 549.238938 82 
L 549.238938 87.889841 
L 537.98745 87.889841 
L 537.98745 112.2 
L 529.237909 112.2 
L 529.237909 87.889841 
L 517.964602 87.889841 
z
" style="fill:#ff0000;"/>
   </g>
   <g id="patch_42">
    <path clip-path="url(#pb4b815fd74)" d="M 549.238938 77.670564 
Q 546.622894 79.816567 543.794099 80.902045 
Q 540.965304 82 537.88436 82 
Q 528.696687 82 523.330644 73.865152 
Q 517.964602 65.730304 517.964602 51.818715 
Q 517.964602 37.85722 523.330644 29.734848 
Q 528.696687 21.6 537.88436 21.6 
Q 540.965304 21.6 543.794099 22.697955 
Q 546.622894 23.783433 549.238938 25.929436 
L 549.238938 37.96951 
Q 546.599255 35.124809 544.038368 33.802272 
Q 541.477481 32.479736 538.648687 32.479736 
Q 533.574191 32.479736 530.6666 37.632638 
Q 527.766888 42.773063 527.766888 51.818715 
Q 527.766888 60.826937 530.6666 65.979839 
Q 533.574191 71.120264 538.648687 71.120264 
Q 541.477481 71.120264 544.038368 69.797728 
Q 546.599255 68.462714 549.238938 65.618013 
z
" style="fill:#0000ff;"/>
   </g>
   <g id="patch_43">
    <path clip-path="url(#pb4b815fd74)" d="M 582.159292 156.133795 
Q 579.005224 156.816897 575.612849 157.160008 
Q 572.220473 157.5 568.603809 157.5 
Q 560.431268 157.5 555.658112 155.466288 
Q 550.884956 153.432576 550.884956 149.954679 
Q 550.884956 146.436232 555.74222 144.418116 
Q 560.606494 142.4 569.066405 142.4 
Q 572.325609 142.4 575.31146 142.674489 
Q 578.30432 142.945858 580.953737 143.482359 
L 580.953737 146.492378 
Q 578.220212 145.803037 575.514722 145.463045 
Q 572.809233 145.119934 570.089725 145.119934 
Q 565.057235 145.119934 562.330718 146.373848 
Q 559.604201 147.624644 559.604201 149.954679 
Q 559.604201 152.26288 562.232591 153.523032 
Q 564.860981 154.780066 569.697219 154.780066 
Q 571.014919 154.780066 572.143374 154.708325 
Q 573.271829 154.633464 574.168986 154.477505 
L 574.168986 151.651518 
L 569.017342 151.651518 
L 569.017342 149.134332 
L 582.159292 149.134332 
z
" style="fill:#ffa600;"/>
   </g>
   <g id="patch_44">
    <path clip-path="url(#pb4b815fd74)" d="M 572.548716 120.393999 
L 560.521109 120.393999 
L 558.622013 142.4 
L 550.884956 142.4 
L 561.934241 21.6 
L 571.110007 21.6 
L 582.159292 142.4 
L 574.428629 142.4 
z
M 562.439387 97.973768 
L 570.611255 97.973768 
L 566.531715 49.923018 
z
" style="fill:#008000;"/>
   </g>
   <g id="patch_45">
    <path clip-path="url(#pb4b815fd74)" d="M 605.46907 151.9985 
L 593.441463 151.9985 
L 591.542367 157.5 
L 583.80531 157.5 
L 594.854595 127.3 
L 604.030361 127.3 
L 615.079646 157.5 
L 607.348983 157.5 
z
M 595.359741 146.393442 
L 603.531609 146.393442 
L 599.452069 134.380754 
z
" style="fill:#008000;"/>
   </g>
   <g id="patch_46">
    <path clip-path="url(#pb4b815fd74)" d="M 615.079646 124.567589 
Q 611.925578 125.933795 608.533203 126.620017 
Q 605.140827 127.3 601.524163 127.3 
Q 593.351622 127.3 588.578466 123.232576 
Q 583.80531 119.165152 583.80531 112.209358 
Q 583.80531 105.172464 588.662574 101.136232 
Q 593.526848 97.1 601.986759 97.1 
Q 605.245963 97.1 608.231814 97.648977 
Q 611.224674 98.191717 613.874091 99.264718 
L 613.874091 105.284755 
Q 611.140566 103.906073 608.435076 103.22609 
Q 605.729587 102.539868 603.010079 102.539868 
Q 597.977589 102.539868 595.251072 105.047697 
Q 592.524555 107.549287 592.524555 112.209358 
Q 592.524555 116.825759 595.152945 119.346065 
Q 597.781335 121.860132 602.617573 121.860132 
Q 603.935272 121.860132 605.063728 121.716649 
Q 606.192183 121.566928 607.08934 121.255009 
L 607.08934 115.603037 
L 601.937696 115.603037 
L 601.937696 110.568663 
L 615.079646 110.568663 
z
" style="fill:#ffa600;"/>
   </g>
   <g id="patch_47">
    <path clip-path="url(#pb4b815fd74)" d="M 583.80531 21.6 
L 615.079646 21.6 
L 615.079646 36.324604 
L 603.828158 36.324604 
L 603.828158 97.1 
L 595.078617 97.1 
L 595.078617 36.324604 
L 583.80531 36.324604 
z
" style="fill:#ff0000;"/>
   </g>
   <g id="patch_48">
    <path clip-path="url(#pb4b815fd74)" d="M 638.389424 151.9985 
L 626.361817 151.9985 
L 624.462721 157.5 
L 616.725664 157.5 
L 627.774949 127.3 
L 636.950715 127.3 
L 648 157.5 
L 640.269337 157.5 
z
M 628.280095 146.393442 
L 636.451963 146.393442 
L 632.372423 134.380754 
z
" style="fill:#008000;"/>
   </g>
   <g id="patch_49">
    <path clip-path="url(#pb4b815fd74)" d="M 648 117.736563 
Q 644.845932 122.518281 641.453557 124.920058 
Q 638.061181 127.3 634.444517 127.3 
Q 626.271976 127.3 621.49882 113.064016 
Q 616.725664 98.828031 616.725664 74.482751 
Q 616.725664 49.853625 621.582928 35.726813 
Q 626.447202 21.6 634.907113 21.6 
Q 638.166317 21.6 641.152168 23.521421 
Q 644.145028 25.421008 646.794445 29.176513 
L 646.794445 50.246643 
Q 644.06092 45.421256 641.35543 43.041314 
Q 638.649941 40.639537 635.930433 40.639537 
Q 630.897943 40.639537 628.171426 49.416939 
Q 625.444909 58.172506 625.444909 74.482751 
Q 625.444909 90.640157 628.073299 99.461227 
Q 630.701689 108.260463 635.537927 108.260463 
Q 636.855626 108.260463 637.984082 107.758273 
Q 639.112537 107.234249 640.009694 106.142533 
L 640.009694 86.360628 
L 634.85805 86.360628 
L 634.85805 68.740322 
L 648 68.740322 
z
" style="fill:#ffa600;"/>
   </g>
  </g>
 </g>
 <defs>
  <clipPath id="pb4b815fd74">
   <rect height="135.9" width="558" x="90" y="21.6"/>
  </clipPath>
 </defs>
</svg>
