<?xml version="1.0" encoding="utf-8" standalone="no"?>
<!DOCTYPE svg PUBLIC "-//W3C//DTD SVG 1.1//EN"
  "http://www.w3.org/Graphics/SVG/1.1/DTD/svg11.dtd">
<!-- Created with matplotlib (https://matplotlib.org/) -->
<svg height="180pt" version="1.1" viewBox="0 0 720 180" width="720pt" xmlns="http://www.w3.org/2000/svg" xmlns:xlink="http://www.w3.org/1999/xlink">
 <metadata>
  <rdf:RDF xmlns:cc="http://creativecommons.org/ns#" xmlns:dc="http://purl.org/dc/elements/1.1/" xmlns:rdf="http://www.w3.org/1999/02/22-rdf-syntax-ns#">
   <cc:Work>
    <dc:type rdf:resource="http://purl.org/dc/dcmitype/StillImage"/>
    <dc:date>2021-08-04T23:33:56.457908</dc:date>
    <dc:format>image/svg+xml</dc:format>
    <dc:creator>
     <cc:Agent>
      <dc:title>Matplotlib v3.3.2, https://matplotlib.org/</dc:title>
     </cc:Agent>
    </dc:creator>
   </cc:Work>
  </rdf:RDF>
 </metadata>
 <defs>
  <style type="text/css">*{stroke-linecap:butt;stroke-linejoin:round;}</style>
 </defs>
 <g id="figure_1">
  <g id="patch_1">
   <path d="M 0 180 
L 720 180 
L 720 0 
L 0 0 
z
" style="fill:none;"/>
  </g>
  <g id="axes_1">
   <g id="line2d_1">
    <path clip-path="url(#p5dfc0b3def)" d="M 90 157.5 
L 648 157.5 
" style="fill:none;stroke:#000000;stroke-linecap:square;stroke-width:0.5;"/>
   </g>
   <g id="patch_2">
    <path clip-path="url(#p5dfc0b3def)" d="M 121.274336 149.923487 
Q 118.658292 153.678992 115.829497 155.578579 
Q 113.000702 157.5 109.919759 157.5 
Q 100.732085 157.5 95.366043 143.264016 
Q 90 129.028031 90 104.682751 
Q 90 80.250134 95.366043 66.035984 
Q 100.732085 51.8 109.919759 51.8 
Q 113.000702 51.8 115.829497 53.721421 
Q 118.658292 55.621008 121.274336 59.376513 
L 121.274336 80.446643 
Q 118.634653 75.468416 116.073766 73.153976 
Q 113.51288 70.839537 110.684085 70.839537 
Q 105.609589 70.839537 102.701998 79.857116 
Q 99.802286 88.852861 99.802286 104.682751 
Q 99.802286 120.447139 102.701998 129.464718 
Q 105.609589 138.460463 110.684085 138.460463 
Q 113.51288 138.460463 116.073766 136.146024 
Q 118.634653 133.80975 121.274336 128.831522 
z
" style="fill:#0000ff;"/>
   </g>
   <g id="patch_3">
    <path clip-path="url(#p5dfc0b3def)" d="M 154.19469 154.767589 
Q 151.040622 156.133795 147.648247 156.820017 
Q 144.255872 157.5 140.639207 157.5 
Q 132.466666 157.5 127.69351 153.432576 
Q 122.920354 149.365152 122.920354 142.409358 
Q 122.920354 135.372464 127.777619 131.336232 
Q 132.641892 127.3 141.101804 127.3 
Q 144.361007 127.3 147.346858 127.848977 
Q 150.339718 128.391717 152.989135 129.464718 
L 152.989135 135.484755 
Q 150.25561 134.106073 147.55012 133.42609 
Q 144.844631 132.739868 142.125123 132.739868 
Q 137.092633 132.739868 134.366116 135.247697 
Q 131.6396 137.749287 131.6396 142.409358 
Q 131.6396 147.025759 134.26799 149.546065 
Q 136.89638 152.060132 141.732617 152.060132 
Q 143.050317 152.060132 144.178772 151.916649 
Q 145.307228 151.766928 146.204385 151.455009 
L 146.204385 145.803037 
L 141.05274 145.803037 
L 141.05274 140.768663 
L 154.19469 140.768663 
z
" style="fill:#ffa600;"/>
   </g>
   <g id="patch_4">
    <path clip-path="url(#p5dfc0b3def)" d="M 144.584114 113.546249 
L 132.556507 113.546249 
L 130.657411 127.3 
L 122.920354 127.3 
L 133.969639 51.8 
L 143.145405 51.8 
L 154.19469 127.3 
L 146.464027 127.3 
z
M 134.474786 99.533605 
L 142.646653 99.533605 
L 138.567114 69.501886 
z
" style="fill:#008000;"/>
   </g>
   <g id="patch_5">
    <path clip-path="url(#p5dfc0b3def)" d="M 177.504468 154.74925 
L 165.476861 154.74925 
L 163.577765 157.5 
L 155.840708 157.5 
L 166.889993 142.4 
L 176.065759 142.4 
L 187.115044 157.5 
L 179.384381 157.5 
z
M 167.39514 151.946721 
L 175.567007 151.946721 
L 171.487467 145.940377 
z
" style="fill:#008000;"/>
   </g>
   <g id="patch_6">
    <path clip-path="url(#p5dfc0b3def)" d="M 187.115044 140.235282 
Q 184.499 141.308283 181.670205 141.851023 
Q 178.84141 142.4 175.760467 142.4 
Q 166.572793 142.4 161.206751 138.332576 
Q 155.840708 134.265152 155.840708 127.309358 
Q 155.840708 120.32861 161.206751 116.267424 
Q 166.572793 112.2 175.760467 112.2 
Q 178.84141 112.2 181.670205 112.748977 
Q 184.499 113.291717 187.115044 114.364718 
L 187.115044 120.384755 
Q 184.475361 118.962404 181.914474 118.301136 
Q 179.353588 117.639868 176.524793 117.639868 
Q 171.450297 117.639868 168.542706 120.216319 
Q 165.642994 122.786532 165.642994 127.309358 
Q 165.642994 131.813468 168.542706 134.389919 
Q 171.450297 136.960132 176.524793 136.960132 
Q 179.353588 136.960132 181.914474 136.298864 
Q 184.475361 135.631357 187.115044 134.209006 
z
" style="fill:#0000ff;"/>
   </g>
   <g id="patch_7">
    <path clip-path="url(#p5dfc0b3def)" d="M 187.115044 109.467589 
Q 183.960976 110.833795 180.568601 111.520017 
Q 177.176226 112.2 173.559561 112.2 
Q 165.38702 112.2 160.613864 108.132576 
Q 155.840708 104.065152 155.840708 97.109358 
Q 155.840708 90.072464 160.697973 86.036232 
Q 165.562246 82 174.022158 82 
Q 177.281361 82 180.267212 82.548977 
Q 183.260072 83.091717 185.909489 84.164718 
L 185.909489 90.184755 
Q 183.175964 88.806073 180.470474 88.12609 
Q 177.764985 87.439868 175.045477 87.439868 
Q 170.012987 87.439868 167.28647 89.947697 
Q 164.559954 92.449287 164.559954 97.109358 
Q 164.559954 101.725759 167.188344 104.246065 
Q 169.816734 106.760132 174.652971 106.760132 
Q 175.970671 106.760132 177.099126 106.616649 
Q 178.227582 106.466928 179.124739 106.155009 
L 179.124739 100.503037 
L 173.973094 100.503037 
L 173.973094 95.468663 
L 187.115044 95.468663 
z
" style="fill:#ffa600;"/>
   </g>
   <g id="patch_8">
    <path clip-path="url(#p5dfc0b3def)" d="M 155.840708 51.8 
L 187.115044 51.8 
L 187.115044 57.689841 
L 175.863556 57.689841 
L 175.863556 82 
L 167.114015 82 
L 167.114015 57.689841 
L 155.840708 57.689841 
z
" style="fill:#ff0000;"/>
   </g>
   <g id="patch_9">
    <path clip-path="url(#p5dfc0b3def)" d="M 220.035398 154.767589 
Q 216.88133 156.133795 213.488955 156.820017 
Q 210.09658 157.5 206.479915 157.5 
Q 198.307374 157.5 193.534218 153.432576 
Q 188.761062 149.365152 188.761062 142.409358 
Q 188.761062 135.372464 193.618327 131.336232 
Q 198.4826 127.3 206.942512 127.3 
Q 210.201715 127.3 213.187566 127.848977 
Q 216.180426 128.391717 218.829843 129.464718 
L 218.829843 135.484755 
Q 216.096318 134.106073 213.390828 133.42609 
Q 210.685339 132.739868 207.965831 132.739868 
Q 202.933341 132.739868 200.206824 135.247697 
Q 197.480308 137.749287 197.480308 142.409358 
Q 197.480308 147.025759 200.108698 149.546065 
Q 202.737088 152.060132 207.573325 152.060132 
Q 208.891025 152.060132 210.01948 151.916649 
Q 211.147936 151.766928 212.045093 151.455009 
L 212.045093 145.803037 
L 206.893448 145.803037 
L 206.893448 140.768663 
L 220.035398 140.768663 
z
" style="fill:#ffa600;"/>
   </g>
   <g id="patch_10">
    <path clip-path="url(#p5dfc0b3def)" d="M 220.035398 121.888205 
Q 217.419354 124.570709 214.590559 125.927556 
Q 211.761764 127.3 208.680821 127.3 
Q 199.493147 127.3 194.127105 117.13144 
Q 188.761062 106.96288 188.761062 89.573394 
Q 188.761062 72.121524 194.127105 61.96856 
Q 199.493147 51.8 208.680821 51.8 
Q 211.761764 51.8 214.590559 53.172444 
Q 217.419354 54.529291 220.035398 57.211795 
L 220.035398 72.261888 
Q 217.395715 68.706011 214.834828 67.05284 
Q 212.273942 65.399669 209.445147 65.399669 
Q 204.370651 65.399669 201.46306 71.840797 
Q 198.563348 78.266329 198.563348 89.573394 
Q 198.563348 100.833671 201.46306 107.274799 
Q 204.370651 113.700331 209.445147 113.700331 
Q 212.273942 113.700331 214.834828 112.04716 
Q 217.395715 110.378393 220.035398 106.822516 
z
" style="fill:#0000ff;"/>
   </g>
   <g id="patch_11">
    <path clip-path="url(#p5dfc0b3def)" d="M 221.681416 142.4 
L 252.955752 142.4 
L 252.955752 145.344921 
L 241.704264 145.344921 
L 241.704264 157.5 
L 232.954723 157.5 
L 232.954723 145.344921 
L 221.681416 145.344921 
z
" style="fill:#ff0000;"/>
   </g>
   <g id="patch_12">
    <path clip-path="url(#p5dfc0b3def)" d="M 243.345176 134.14775 
L 231.317569 134.14775 
L 229.418473 142.4 
L 221.681416 142.4 
L 232.730701 97.1 
L 241.906467 97.1 
L 252.955752 142.4 
L 245.225089 142.4 
z
M 233.235848 125.740163 
L 241.407715 125.740163 
L 237.328175 107.721132 
z
" style="fill:#008000;"/>
   </g>
   <g id="patch_13">
    <path clip-path="url(#p5dfc0b3def)" d="M 252.955752 93.001384 
Q 249.801684 95.050692 246.409309 96.080025 
Q 243.016934 97.1 239.400269 97.1 
Q 231.227728 97.1 226.454572 90.998864 
Q 221.681416 84.897728 221.681416 74.464036 
Q 221.681416 63.908697 226.538681 57.854348 
Q 231.402954 51.8 239.862866 51.8 
Q 243.122069 51.8 246.10792 52.623466 
Q 249.10078 53.437575 251.750197 55.047077 
L 251.750197 64.077133 
Q 249.016672 62.00911 246.311182 60.989134 
Q 243.605693 59.959802 240.886185 59.959802 
Q 235.853695 59.959802 233.127178 63.721545 
Q 230.400662 67.473931 230.400662 74.464036 
Q 230.400662 81.388639 233.029052 85.169097 
Q 235.657442 88.940198 240.493679 88.940198 
Q 241.811379 88.940198 242.939834 88.724974 
Q 244.06829 88.500392 244.965447 88.032514 
L 244.965447 79.554555 
L 239.813802 79.554555 
L 239.813802 72.002995 
L 252.955752 72.002995 
z
" style="fill:#ffa600;"/>
   </g>
   <g id="patch_14">
    <path clip-path="url(#p5dfc0b3def)" d="M 276.26553 154.74925 
L 264.237923 154.74925 
L 262.338827 157.5 
L 254.60177 157.5 
L 265.651055 142.4 
L 274.826821 142.4 
L 285.876106 157.5 
L 278.145443 157.5 
z
M 266.156202 151.946721 
L 274.328069 151.946721 
L 270.248529 145.940377 
z
" style="fill:#008000;"/>
   </g>
   <g id="patch_15">
    <path clip-path="url(#p5dfc0b3def)" d="M 254.60177 127.3 
L 285.876106 127.3 
L 285.876106 130.244921 
L 274.624618 130.244921 
L 274.624618 142.4 
L 265.875077 142.4 
L 265.875077 130.244921 
L 254.60177 130.244921 
z
" style="fill:#ff0000;"/>
   </g>
   <g id="patch_16">
    <path clip-path="url(#p5dfc0b3def)" d="M 285.876106 125.135282 
Q 283.260062 126.208283 280.431267 126.751023 
Q 277.602472 127.3 274.521529 127.3 
Q 265.333855 127.3 259.967812 123.232576 
Q 254.60177 119.165152 254.60177 112.209358 
Q 254.60177 105.22861 259.967812 101.167424 
Q 265.333855 97.1 274.521529 97.1 
Q 277.602472 97.1 280.431267 97.648977 
Q 283.260062 98.191717 285.876106 99.264718 
L 285.876106 105.284755 
Q 283.236423 103.862404 280.675536 103.201136 
Q 278.11465 102.539868 275.285855 102.539868 
Q 270.211359 102.539868 267.303768 105.116319 
Q 264.404056 107.686532 264.404056 112.209358 
Q 264.404056 116.713468 267.303768 119.289919 
Q 270.211359 121.860132 275.285855 121.860132 
Q 278.11465 121.860132 280.675536 121.198864 
Q 283.236423 120.531357 285.876106 119.109006 
z
" style="fill:#0000ff;"/>
   </g>
   <g id="patch_17">
    <path clip-path="url(#p5dfc0b3def)" d="M 285.876106 93.001384 
Q 282.722038 95.050692 279.329663 96.080025 
Q 275.937288 97.1 272.320623 97.1 
Q 264.148082 97.1 259.374926 90.998864 
Q 254.60177 84.897728 254.60177 74.464036 
Q 254.60177 63.908697 259.459035 57.854348 
Q 264.323308 51.8 272.78322 51.8 
Q 276.042423 51.8 279.028274 52.623466 
Q 282.021134 53.437575 284.670551 55.047077 
L 284.670551 64.077133 
Q 281.937026 62.00911 279.231536 60.989134 
Q 276.526047 59.959802 273.806539 59.959802 
Q 268.774049 59.959802 266.047532 63.721545 
Q 263.321016 67.473931 263.321016 74.464036 
Q 263.321016 81.388639 265.949406 85.169097 
Q 268.577796 88.940198 273.414033 88.940198 
Q 274.731733 88.940198 275.860188 88.724974 
Q 276.988644 88.500392 277.885801 88.032514 
L 277.885801 79.554555 
L 272.734156 79.554555 
L 272.734156 72.002995 
L 285.876106 72.002995 
z
" style="fill:#ffa600;"/>
   </g>
   <g id="patch_18">
    <path clip-path="url(#p5dfc0b3def)" d="M 318.79646 153.401384 
Q 315.642392 155.450692 312.250017 156.480025 
Q 308.857642 157.5 305.240977 157.5 
Q 297.068436 157.5 292.29528 151.398864 
Q 287.522124 145.297728 287.522124 134.864036 
Q 287.522124 124.308697 292.379389 118.254348 
Q 297.243662 112.2 305.703574 112.2 
Q 308.962777 112.2 311.948628 113.023466 
Q 314.941488 113.837575 317.590905 115.447077 
L 317.590905 124.477133 
Q 314.85738 122.40911 312.15189 121.389134 
Q 309.446401 120.359802 306.726893 120.359802 
Q 301.694403 120.359802 298.967886 124.121545 
Q 296.24137 127.873931 296.24137 134.864036 
Q 296.24137 141.788639 298.86976 145.569097 
Q 301.49815 149.340198 306.334387 149.340198 
Q 307.652087 149.340198 308.780542 149.124974 
Q 309.908998 148.900392 310.806155 148.432514 
L 310.806155 139.954555 
L 305.65451 139.954555 
L 305.65451 132.402995 
L 318.79646 132.402995 
z
" style="fill:#ffa600;"/>
   </g>
   <g id="patch_19">
    <path clip-path="url(#p5dfc0b3def)" d="M 318.79646 107.870564 
Q 316.180416 110.016567 313.351621 111.102045 
Q 310.522826 112.2 307.441883 112.2 
Q 298.254209 112.2 292.888166 104.065152 
Q 287.522124 95.930304 287.522124 82.018715 
Q 287.522124 68.05722 292.888166 59.934848 
Q 298.254209 51.8 307.441883 51.8 
Q 310.522826 51.8 313.351621 52.897955 
Q 316.180416 53.983433 318.79646 56.129436 
L 318.79646 68.16951 
Q 316.156777 65.324809 313.59589 64.002272 
Q 311.035004 62.679736 308.206209 62.679736 
Q 303.131713 62.679736 300.224122 67.832638 
Q 297.32441 72.973063 297.32441 82.018715 
Q 297.32441 91.026937 300.224122 96.179839 
Q 303.131713 101.320264 308.206209 101.320264 
Q 311.035004 101.320264 313.59589 99.997728 
Q 316.156777 98.662714 318.79646 95.818013 
z
" style="fill:#0000ff;"/>
   </g>
   <g id="patch_20">
    <path clip-path="url(#p5dfc0b3def)" d="M 351.716814 156.133795 
Q 348.562746 156.816897 345.170371 157.160008 
Q 341.777996 157.5 338.161331 157.5 
Q 329.98879 157.5 325.215634 155.466288 
Q 320.442478 153.432576 320.442478 149.954679 
Q 320.442478 146.436232 325.299743 144.418116 
Q 330.164016 142.4 338.623928 142.4 
Q 341.883131 142.4 344.868982 142.674489 
Q 347.861842 142.945858 350.511259 143.482359 
L 350.511259 146.492378 
Q 347.777734 145.803037 345.072244 145.463045 
Q 342.366755 145.119934 339.647247 145.119934 
Q 334.614757 145.119934 331.88824 146.373848 
Q 329.161724 147.624644 329.161724 149.954679 
Q 329.161724 152.26288 331.790114 153.523032 
Q 334.418504 154.780066 339.254741 154.780066 
Q 340.572441 154.780066 341.700896 154.708325 
Q 342.829351 154.633464 343.726509 154.477505 
L 343.726509 151.651518 
L 338.574864 151.651518 
L 338.574864 149.134332 
L 351.716814 149.134332 
z
" style="fill:#ffa600;"/>
   </g>
   <g id="patch_21">
    <path clip-path="url(#p5dfc0b3def)" d="M 351.716814 133.741128 
Q 349.10077 138.033134 346.271975 140.20409 
Q 343.44318 142.4 340.362237 142.4 
Q 331.174563 142.4 325.80852 126.130304 
Q 320.442478 109.860607 320.442478 82.03743 
Q 320.442478 54.114439 325.80852 37.869696 
Q 331.174563 21.6 340.362237 21.6 
Q 343.44318 21.6 346.271975 23.79591 
Q 349.10077 25.966866 351.716814 30.258872 
L 351.716814 54.339021 
Q 349.077131 48.649618 346.516244 46.004545 
Q 343.955358 43.359471 341.126563 43.359471 
Q 336.052067 43.359471 333.144476 53.665276 
Q 330.244764 63.946127 330.244764 82.03743 
Q 330.244764 100.053873 333.144476 110.359678 
Q 336.052067 120.640529 341.126563 120.640529 
Q 343.955358 120.640529 346.516244 117.995455 
Q 349.077131 115.325429 351.716814 109.636026 
z
" style="fill:#0000ff;"/>
   </g>
   <g id="patch_22">
    <path clip-path="url(#p5dfc0b3def)" d="M 384.637168 156.133795 
Q 381.4831 156.816897 378.090725 157.160008 
Q 374.698349 157.5 371.081685 157.5 
Q 362.909144 157.5 358.135988 155.466288 
Q 353.362832 153.432576 353.362832 149.954679 
Q 353.362832 146.436232 358.220097 144.418116 
Q 363.08437 142.4 371.544282 142.4 
Q 374.803485 142.4 377.789336 142.674489 
Q 380.782196 142.945858 383.431613 143.482359 
L 383.431613 146.492378 
Q 380.698088 145.803037 377.992598 145.463045 
Q 375.287109 145.119934 372.567601 145.119934 
Q 367.535111 145.119934 364.808594 146.373848 
Q 362.082078 147.624644 362.082078 149.954679 
Q 362.082078 152.26288 364.710468 153.523032 
Q 367.338858 154.780066 372.175095 154.780066 
Q 373.492795 154.780066 374.62125 154.708325 
Q 375.749705 154.633464 376.646863 154.477505 
L 376.646863 151.651518 
L 371.495218 151.651518 
L 371.495218 149.134332 
L 384.637168 149.134332 
z
" style="fill:#ffa600;"/>
   </g>
   <g id="patch_23">
    <path clip-path="url(#p5dfc0b3def)" d="M 384.637168 133.741128 
Q 382.021124 138.033134 379.192329 140.20409 
Q 376.363534 142.4 373.282591 142.4 
Q 364.094917 142.4 358.728874 126.130304 
Q 353.362832 109.860607 353.362832 82.03743 
Q 353.362832 54.114439 358.728874 37.869696 
Q 364.094917 21.6 373.282591 21.6 
Q 376.363534 21.6 379.192329 23.79591 
Q 382.021124 25.966866 384.637168 30.258872 
L 384.637168 54.339021 
Q 381.997485 48.649618 379.436598 46.004545 
Q 376.875712 43.359471 374.046917 43.359471 
Q 368.972421 43.359471 366.06483 53.665276 
Q 363.165118 63.946127 363.165118 82.03743 
Q 363.165118 100.053873 366.06483 110.359678 
Q 368.972421 120.640529 374.046917 120.640529 
Q 376.875712 120.640529 379.436598 117.995455 
Q 381.997485 115.325429 384.637168 109.636026 
z
" style="fill:#0000ff;"/>
   </g>
   <g id="patch_24">
    <path clip-path="url(#p5dfc0b3def)" d="M 386.283186 142.4 
L 417.557522 142.4 
L 417.557522 145.344921 
L 406.306034 145.344921 
L 406.306034 157.5 
L 397.556493 157.5 
L 397.556493 145.344921 
L 386.283186 145.344921 
z
" style="fill:#ff0000;"/>
   </g>
   <g id="patch_25">
    <path clip-path="url(#p5dfc0b3def)" d="M 417.557522 133.741128 
Q 414.941478 138.033134 412.112683 140.20409 
Q 409.283888 142.4 406.202945 142.4 
Q 397.015271 142.4 391.649228 126.130304 
Q 386.283186 109.860607 386.283186 82.03743 
Q 386.283186 54.114439 391.649228 37.869696 
Q 397.015271 21.6 406.202945 21.6 
Q 409.283888 21.6 412.112683 23.79591 
Q 414.941478 25.966866 417.557522 30.258872 
L 417.557522 54.339021 
Q 414.917839 48.649618 412.356952 46.004545 
Q 409.796066 43.359471 406.967271 43.359471 
Q 401.892775 43.359471 398.985184 53.665276 
Q 396.085472 63.946127 396.085472 82.03743 
Q 396.085472 100.053873 398.985184 110.359678 
Q 401.892775 120.640529 406.967271 120.640529 
Q 409.796066 120.640529 412.356952 117.995455 
Q 414.917839 115.325429 417.557522 109.636026 
z
" style="fill:#0000ff;"/>
   </g>
   <g id="patch_26">
    <path clip-path="url(#p5dfc0b3def)" d="M 450.477876 156.133795 
Q 447.323808 156.816897 443.931433 157.160008 
Q 440.539057 157.5 436.922393 157.5 
Q 428.749852 157.5 423.976696 155.466288 
Q 419.20354 153.432576 419.20354 149.954679 
Q 419.20354 146.436232 424.060805 144.418116 
Q 428.925078 142.4 437.384989 142.4 
Q 440.644193 142.4 443.630044 142.674489 
Q 446.622904 142.945858 449.272321 143.482359 
L 449.272321 146.492378 
Q 446.538796 145.803037 443.833306 145.463045 
Q 441.127817 145.119934 438.408309 145.119934 
Q 433.375819 145.119934 430.649302 146.373848 
Q 427.922786 147.624644 427.922786 149.954679 
Q 427.922786 152.26288 430.551176 153.523032 
Q 433.179565 154.780066 438.015803 154.780066 
Q 439.333503 154.780066 440.461958 154.708325 
Q 441.590413 154.633464 442.487571 154.477505 
L 442.487571 151.651518 
L 437.335926 151.651518 
L 437.335926 149.134332 
L 450.477876 149.134332 
z
" style="fill:#ffa600;"/>
   </g>
   <g id="patch_27">
    <path clip-path="url(#p5dfc0b3def)" d="M 419.20354 112.2 
L 450.477876 112.2 
L 450.477876 118.089841 
L 439.226388 118.089841 
L 439.226388 142.4 
L 430.476847 142.4 
L 430.476847 118.089841 
L 419.20354 118.089841 
z
" style="fill:#ff0000;"/>
   </g>
   <g id="patch_28">
    <path clip-path="url(#p5dfc0b3def)" d="M 450.477876 105.705846 
Q 447.861832 108.92485 445.033037 110.553068 
Q 442.204242 112.2 439.123298 112.2 
Q 429.935625 112.2 424.569582 99.997728 
Q 419.20354 87.795455 419.20354 66.928073 
Q 419.20354 45.985829 424.569582 33.802272 
Q 429.935625 21.6 439.123298 21.6 
Q 442.204242 21.6 445.033037 23.246932 
Q 447.861832 24.87515 450.477876 28.094154 
L 450.477876 46.154266 
Q 447.838193 41.887213 445.277306 39.903408 
Q 442.71642 37.919603 439.887625 37.919603 
Q 434.813129 37.919603 431.905538 45.648957 
Q 429.005826 53.359595 429.005826 66.928073 
Q 429.005826 80.440405 431.905538 88.169758 
Q 434.813129 95.880397 439.887625 95.880397 
Q 442.71642 95.880397 445.277306 93.896592 
Q 447.838193 91.894071 450.477876 87.627019 
z
" style="fill:#0000ff;"/>
   </g>
   <g id="patch_29">
    <path clip-path="url(#p5dfc0b3def)" d="M 483.39823 156.417641 
Q 480.782186 156.954142 477.953391 157.225511 
Q 475.124596 157.5 472.043652 157.5 
Q 462.855979 157.5 457.489936 155.466288 
Q 452.123894 153.432576 452.123894 149.954679 
Q 452.123894 146.464305 457.489936 144.433712 
Q 462.855979 142.4 472.043652 142.4 
Q 475.124596 142.4 477.953391 142.674489 
Q 480.782186 142.945858 483.39823 143.482359 
L 483.39823 146.492378 
Q 480.758547 145.781202 478.19766 145.450568 
Q 475.636773 145.119934 472.807979 145.119934 
Q 467.733483 145.119934 464.825892 146.408159 
Q 461.92618 147.693266 461.92618 149.954679 
Q 461.92618 152.206734 464.825892 153.49496 
Q 467.733483 154.780066 472.807979 154.780066 
Q 475.636773 154.780066 478.19766 154.449432 
Q 480.758547 154.115679 483.39823 153.404503 
z
" style="fill:#0000ff;"/>
   </g>
   <g id="patch_30">
    <path clip-path="url(#p5dfc0b3def)" d="M 483.39823 141.033795 
Q 480.244162 141.716897 476.851787 142.060008 
Q 473.459411 142.4 469.842747 142.4 
Q 461.670206 142.4 456.89705 140.366288 
Q 452.123894 138.332576 452.123894 134.854679 
Q 452.123894 131.336232 456.981158 129.318116 
Q 461.845432 127.3 470.305343 127.3 
Q 473.564547 127.3 476.550398 127.574489 
Q 479.543258 127.845858 482.192675 128.382359 
L 482.192675 131.392378 
Q 479.45915 130.703037 476.75366 130.363045 
Q 474.048171 130.019934 471.328663 130.019934 
Q 466.296173 130.019934 463.569656 131.273848 
Q 460.84314 132.524644 460.84314 134.854679 
Q 460.84314 137.16288 463.471529 138.423032 
Q 466.099919 139.680066 470.936157 139.680066 
Q 472.253857 139.680066 473.382312 139.608325 
Q 474.510767 139.533464 475.407925 139.377505 
L 475.407925 136.551518 
L 470.25628 136.551518 
L 470.25628 134.034332 
L 483.39823 134.034332 
z
" style="fill:#ffa600;"/>
   </g>
   <g id="patch_31">
    <path clip-path="url(#p5dfc0b3def)" d="M 452.123894 21.6 
L 483.39823 21.6 
L 483.39823 42.214445 
L 472.146742 42.214445 
L 472.146742 127.3 
L 463.397201 127.3 
L 463.397201 42.214445 
L 452.123894 42.214445 
z
" style="fill:#ff0000;"/>
   </g>
   <g id="patch_32">
    <path clip-path="url(#p5dfc0b3def)" d="M 485.044248 112.2 
L 516.318584 112.2 
L 516.318584 121.034762 
L 505.067096 121.034762 
L 505.067096 157.5 
L 496.317555 157.5 
L 496.317555 121.034762 
L 485.044248 121.034762 
z
" style="fill:#ff0000;"/>
   </g>
   <g id="patch_33">
    <path clip-path="url(#p5dfc0b3def)" d="M 506.708008 95.695499 
L 494.680401 95.695499 
L 492.781305 112.2 
L 485.044248 112.2 
L 496.093533 21.6 
L 505.269299 21.6 
L 516.318584 112.2 
L 508.587921 112.2 
z
M 496.59868 78.880326 
L 504.770547 78.880326 
L 500.691007 42.842263 
z
" style="fill:#008000;"/>
   </g>
   <g id="patch_34">
    <path clip-path="url(#p5dfc0b3def)" d="M 517.964602 142.4 
L 549.238938 142.4 
L 549.238938 145.344921 
L 537.98745 145.344921 
L 537.98745 157.5 
L 529.237909 157.5 
L 529.237909 145.344921 
L 517.964602 145.344921 
z
" style="fill:#ff0000;"/>
   </g>
   <g id="patch_35">
    <path clip-path="url(#p5dfc0b3def)" d="M 549.238938 139.667589 
Q 546.08487 141.033795 542.692495 141.720017 
Q 539.300119 142.4 535.683455 142.4 
Q 527.510914 142.4 522.737758 138.332576 
Q 517.964602 134.265152 517.964602 127.309358 
Q 517.964602 120.272464 522.821866 116.236232 
Q 527.68614 112.2 536.146051 112.2 
Q 539.405255 112.2 542.391106 112.748977 
Q 545.383966 113.291717 548.033383 114.364718 
L 548.033383 120.384755 
Q 545.299858 119.006073 542.594368 118.32609 
Q 539.888879 117.639868 537.169371 117.639868 
Q 532.136881 117.639868 529.410364 120.147697 
Q 526.683847 122.649287 526.683847 127.309358 
Q 526.683847 131.925759 529.312237 134.446065 
Q 531.940627 136.960132 536.776865 136.960132 
Q 538.094565 136.960132 539.22302 136.816649 
Q 540.351475 136.666928 541.248633 136.355009 
L 541.248633 130.703037 
L 536.096988 130.703037 
L 536.096988 125.668663 
L 549.238938 125.668663 
z
" style="fill:#ffa600;"/>
   </g>
   <g id="patch_36">
    <path clip-path="url(#p5dfc0b3def)" d="M 539.628362 95.695499 
L 527.600755 95.695499 
L 525.701659 112.2 
L 517.964602 112.2 
L 529.013887 21.6 
L 538.189653 21.6 
L 549.238938 112.2 
L 541.508275 112.2 
z
M 529.519034 78.880326 
L 537.690901 78.880326 
L 533.611361 42.842263 
z
" style="fill:#008000;"/>
   </g>
   <g id="patch_37">
    <path clip-path="url(#p5dfc0b3def)" d="M 582.159292 156.133795 
Q 579.005224 156.816897 575.612849 157.160008 
Q 572.220473 157.5 568.603809 157.5 
Q 560.431268 157.5 555.658112 155.466288 
Q 550.884956 153.432576 550.884956 149.954679 
Q 550.884956 146.436232 555.74222 144.418116 
Q 560.606494 142.4 569.066405 142.4 
Q 572.325609 142.4 575.31146 142.674489 
Q 578.30432 142.945858 580.953737 143.482359 
L 580.953737 146.492378 
Q 578.220212 145.803037 575.514722 145.463045 
Q 572.809233 145.119934 570.089725 145.119934 
Q 565.057235 145.119934 562.330718 146.373848 
Q 559.604201 147.624644 559.604201 149.954679 
Q 559.604201 152.26288 562.232591 153.523032 
Q 564.860981 154.780066 569.697219 154.780066 
Q 571.014919 154.780066 572.143374 154.708325 
Q 573.271829 154.633464 574.168986 154.477505 
L 574.168986 151.651518 
L 569.017342 151.651518 
L 569.017342 149.134332 
L 582.159292 149.134332 
z
" style="fill:#ffa600;"/>
   </g>
   <g id="patch_38">
    <path clip-path="url(#p5dfc0b3def)" d="M 550.884956 112.2 
L 582.159292 112.2 
L 582.159292 118.089841 
L 570.907804 118.089841 
L 570.907804 142.4 
L 562.158263 142.4 
L 562.158263 118.089841 
L 550.884956 118.089841 
z
" style="fill:#ff0000;"/>
   </g>
   <g id="patch_39">
    <path clip-path="url(#p5dfc0b3def)" d="M 572.548716 95.695499 
L 560.521109 95.695499 
L 558.622013 112.2 
L 550.884956 112.2 
L 561.934241 21.6 
L 571.110007 21.6 
L 582.159292 112.2 
L 574.428629 112.2 
z
M 562.439387 78.880326 
L 570.611255 78.880326 
L 566.531715 42.842263 
z
" style="fill:#008000;"/>
   </g>
   <g id="patch_40">
    <path clip-path="url(#p5dfc0b3def)" d="M 605.46907 154.74925 
L 593.441463 154.74925 
L 591.542367 157.5 
L 583.80531 157.5 
L 594.854595 142.4 
L 604.030361 142.4 
L 615.079646 157.5 
L 607.348983 157.5 
z
M 595.359741 151.946721 
L 603.531609 151.946721 
L 599.452069 145.940377 
z
" style="fill:#008000;"/>
   </g>
   <g id="patch_41">
    <path clip-path="url(#p5dfc0b3def)" d="M 615.079646 138.301384 
Q 611.925578 140.350692 608.533203 141.380025 
Q 605.140827 142.4 601.524163 142.4 
Q 593.351622 142.4 588.578466 136.298864 
Q 583.80531 130.197728 583.80531 119.764036 
Q 583.80531 109.208697 588.662574 103.154348 
Q 593.526848 97.1 601.986759 97.1 
Q 605.245963 97.1 608.231814 97.923466 
Q 611.224674 98.737575 613.874091 100.347077 
L 613.874091 109.377133 
Q 611.140566 107.30911 608.435076 106.289134 
Q 605.729587 105.259802 603.010079 105.259802 
Q 597.977589 105.259802 595.251072 109.021545 
Q 592.524555 112.773931 592.524555 119.764036 
Q 592.524555 126.688639 595.152945 130.469097 
Q 597.781335 134.240198 602.617573 134.240198 
Q 603.935272 134.240198 605.063728 134.024974 
Q 606.192183 133.800392 607.08934 133.332514 
L 607.08934 124.854555 
L 601.937696 124.854555 
L 601.937696 117.302995 
L 615.079646 117.302995 
z
" style="fill:#ffa600;"/>
   </g>
   <g id="patch_42">
    <path clip-path="url(#p5dfc0b3def)" d="M 615.079646 91.688205 
Q 612.463602 94.370709 609.634807 95.727556 
Q 606.806012 97.1 603.725068 97.1 
Q 594.537395 97.1 589.171352 86.93144 
Q 583.80531 76.76288 583.80531 59.373394 
Q 583.80531 41.921524 589.171352 31.76856 
Q 594.537395 21.6 603.725068 21.6 
Q 606.806012 21.6 609.634807 22.972444 
Q 612.463602 24.329291 615.079646 27.011795 
L 615.079646 42.061888 
Q 612.439963 38.506011 609.879076 36.85284 
Q 607.318189 35.199669 604.489395 35.199669 
Q 599.414899 35.199669 596.507308 41.640797 
Q 593.607596 48.066329 593.607596 59.373394 
Q 593.607596 70.633671 596.507308 77.074799 
Q 599.414899 83.500331 604.489395 83.500331 
Q 607.318189 83.500331 609.879076 81.84716 
Q 612.439963 80.178393 615.079646 76.622516 
z
" style="fill:#0000ff;"/>
   </g>
   <g id="patch_43">
    <path clip-path="url(#p5dfc0b3def)" d="M 638.389424 154.74925 
L 626.361817 154.74925 
L 624.462721 157.5 
L 616.725664 157.5 
L 627.774949 142.4 
L 636.950715 142.4 
L 648 157.5 
L 640.269337 157.5 
z
M 628.280095 151.946721 
L 636.451963 151.946721 
L 632.372423 145.940377 
z
" style="fill:#008000;"/>
   </g>
   <g id="patch_44">
    <path clip-path="url(#p5dfc0b3def)" d="M 648 141.317641 
Q 645.383956 141.854142 642.555161 142.125511 
Q 639.726366 142.4 636.645422 142.4 
Q 627.457749 142.4 622.091706 140.366288 
Q 616.725664 138.332576 616.725664 134.854679 
Q 616.725664 131.364305 622.091706 129.333712 
Q 627.457749 127.3 636.645422 127.3 
Q 639.726366 127.3 642.555161 127.574489 
Q 645.383956 127.845858 648 128.382359 
L 648 131.392378 
Q 645.360317 130.681202 642.79943 130.350568 
Q 640.238543 130.019934 637.409749 130.019934 
Q 632.335253 130.019934 629.427662 131.308159 
Q 626.52795 132.593266 626.52795 134.854679 
Q 626.52795 137.106734 629.427662 138.39496 
Q 632.335253 139.680066 637.409749 139.680066 
Q 640.238543 139.680066 642.79943 139.349432 
Q 645.360317 139.015679 648 138.304503 
z
" style="fill:#0000ff;"/>
   </g>
   <g id="patch_45">
    <path clip-path="url(#p5dfc0b3def)" d="M 616.725664 82 
L 648 82 
L 648 90.834762 
L 636.748512 90.834762 
L 636.748512 127.3 
L 627.998971 127.3 
L 627.998971 90.834762 
L 616.725664 90.834762 
z
" style="fill:#ff0000;"/>
   </g>
   <g id="patch_46">
    <path clip-path="url(#p5dfc0b3def)" d="M 648 76.535179 
Q 644.845932 79.267589 641.453557 80.640033 
Q 638.061181 82 634.444517 82 
Q 626.271976 82 621.49882 73.865152 
Q 616.725664 65.730304 616.725664 51.818715 
Q 616.725664 37.744929 621.582928 29.672464 
Q 626.447202 21.6 634.907113 21.6 
Q 638.166317 21.6 641.152168 22.697955 
Q 644.145028 23.783433 646.794445 25.929436 
L 646.794445 37.96951 
Q 644.06092 35.212146 641.35543 33.852179 
Q 638.649941 32.479736 635.930433 32.479736 
Q 630.897943 32.479736 628.171426 37.495394 
Q 625.444909 42.498575 625.444909 51.818715 
Q 625.444909 61.051518 628.073299 66.09213 
Q 630.701689 71.120264 635.537927 71.120264 
Q 636.855626 71.120264 637.984082 70.833299 
Q 639.112537 70.533857 640.009694 69.910019 
L 640.009694 58.606073 
L 634.85805 58.606073 
L 634.85805 48.537327 
L 648 48.537327 
z
" style="fill:#ffa600;"/>
   </g>
  </g>
 </g>
 <defs>
  <clipPath id="p5dfc0b3def">
   <rect height="135.9" width="558" x="90" y="21.6"/>
  </clipPath>
 </defs>
</svg>
