<?xml version="1.0" encoding="utf-8" standalone="no"?>
<!DOCTYPE svg PUBLIC "-//W3C//DTD SVG 1.1//EN"
  "http://www.w3.org/Graphics/SVG/1.1/DTD/svg11.dtd">
<!-- Created with matplotlib (https://matplotlib.org/) -->
<svg height="180pt" version="1.1" viewBox="0 0 720 180" width="720pt" xmlns="http://www.w3.org/2000/svg" xmlns:xlink="http://www.w3.org/1999/xlink">
 <metadata>
  <rdf:RDF xmlns:cc="http://creativecommons.org/ns#" xmlns:dc="http://purl.org/dc/elements/1.1/" xmlns:rdf="http://www.w3.org/1999/02/22-rdf-syntax-ns#">
   <cc:Work>
    <dc:type rdf:resource="http://purl.org/dc/dcmitype/StillImage"/>
    <dc:date>2021-08-04T23:34:05.035518</dc:date>
    <dc:format>image/svg+xml</dc:format>
    <dc:creator>
     <cc:Agent>
      <dc:title>Matplotlib v3.3.2, https://matplotlib.org/</dc:title>
     </cc:Agent>
    </dc:creator>
   </cc:Work>
  </rdf:RDF>
 </metadata>
 <defs>
  <style type="text/css">*{stroke-linecap:butt;stroke-linejoin:round;}</style>
 </defs>
 <g id="figure_1">
  <g id="patch_1">
   <path d="M 0 180 
L 720 180 
L 720 0 
L 0 0 
z
" style="fill:none;"/>
  </g>
  <g id="axes_1">
   <g id="line2d_1">
    <path clip-path="url(#p74de0413e1)" d="M 90 157.5 
L 648 157.5 
" style="fill:none;stroke:#000000;stroke-linecap:square;stroke-width:0.5;"/>
   </g>
   <g id="patch_2">
    <path clip-path="url(#p74de0413e1)" d="M 111.66376 149.24775 
L 99.636153 149.24775 
L 97.737057 157.5 
L 90 157.5 
L 101.049285 112.2 
L 110.225051 112.2 
L 121.274336 157.5 
L 113.543673 157.5 
z
M 101.554432 140.840163 
L 109.726299 140.840163 
L 105.64676 122.821132 
z
" style="fill:#008000;"/>
   </g>
   <g id="patch_3">
    <path clip-path="url(#p74de0413e1)" d="M 121.274336 108.952923 
Q 118.658292 110.562425 115.829497 111.376534 
Q 113.000702 112.2 109.919759 112.2 
Q 100.732085 112.2 95.366043 106.098864 
Q 90 99.997728 90 89.564036 
Q 90 79.092915 95.366043 73.001136 
Q 100.732085 66.9 109.919759 66.9 
Q 113.000702 66.9 115.829497 67.723466 
Q 118.658292 68.537575 121.274336 70.147077 
L 121.274336 79.177133 
Q 118.634653 77.043607 116.073766 76.051704 
Q 113.51288 75.059802 110.684085 75.059802 
Q 105.609589 75.059802 102.701998 78.924478 
Q 99.802286 82.779798 99.802286 89.564036 
Q 99.802286 96.320202 102.701998 100.184879 
Q 105.609589 104.040198 110.684085 104.040198 
Q 113.51288 104.040198 116.073766 103.048296 
Q 118.634653 102.047036 121.274336 99.91351 
z
" style="fill:#0000ff;"/>
   </g>
   <g id="patch_4">
    <path clip-path="url(#p74de0413e1)" d="M 90 21.6 
L 121.274336 21.6 
L 121.274336 30.434762 
L 110.022848 30.434762 
L 110.022848 66.9 
L 101.273307 66.9 
L 101.273307 30.434762 
L 90 30.434762 
z
" style="fill:#ff0000;"/>
   </g>
   <g id="patch_5">
    <path clip-path="url(#p74de0413e1)" d="M 122.920354 21.6 
L 154.19469 21.6 
L 154.19469 48.104286 
L 142.943202 48.104286 
L 142.943202 157.5 
L 134.193661 157.5 
L 134.193661 48.104286 
L 122.920354 48.104286 
z
" style="fill:#ff0000;"/>
   </g>
   <g id="patch_6">
    <path clip-path="url(#p74de0413e1)" d="M 177.504468 154.74925 
L 165.476861 154.74925 
L 163.577765 157.5 
L 155.840708 157.5 
L 166.889993 142.4 
L 176.065759 142.4 
L 187.115044 157.5 
L 179.384381 157.5 
z
M 167.39514 151.946721 
L 175.567007 151.946721 
L 171.487467 145.940377 
z
" style="fill:#008000;"/>
   </g>
   <g id="patch_7">
    <path clip-path="url(#p74de0413e1)" d="M 187.115044 141.317641 
Q 184.499 141.854142 181.670205 142.125511 
Q 178.84141 142.4 175.760467 142.4 
Q 166.572793 142.4 161.206751 140.366288 
Q 155.840708 138.332576 155.840708 134.854679 
Q 155.840708 131.364305 161.206751 129.333712 
Q 166.572793 127.3 175.760467 127.3 
Q 178.84141 127.3 181.670205 127.574489 
Q 184.499 127.845858 187.115044 128.382359 
L 187.115044 131.392378 
Q 184.475361 130.681202 181.914474 130.350568 
Q 179.353588 130.019934 176.524793 130.019934 
Q 171.450297 130.019934 168.542706 131.308159 
Q 165.642994 132.593266 165.642994 134.854679 
Q 165.642994 137.106734 168.542706 138.39496 
Q 171.450297 139.680066 176.524793 139.680066 
Q 179.353588 139.680066 181.914474 139.349432 
Q 184.475361 139.015679 187.115044 138.304503 
z
" style="fill:#0000ff;"/>
   </g>
   <g id="patch_8">
    <path clip-path="url(#p74de0413e1)" d="M 155.840708 21.6 
L 187.115044 21.6 
L 187.115044 42.214445 
L 175.863556 42.214445 
L 175.863556 127.3 
L 167.114015 127.3 
L 167.114015 42.214445 
L 155.840708 42.214445 
z
" style="fill:#ff0000;"/>
   </g>
   <g id="patch_9">
    <path clip-path="url(#p74de0413e1)" d="M 210.424822 154.74925 
L 198.397215 154.74925 
L 196.498119 157.5 
L 188.761062 157.5 
L 199.810347 142.4 
L 208.986113 142.4 
L 220.035398 157.5 
L 212.304735 157.5 
z
M 200.315494 151.946721 
L 208.487361 151.946721 
L 204.407821 145.940377 
z
" style="fill:#008000;"/>
   </g>
   <g id="patch_10">
    <path clip-path="url(#p74de0413e1)" d="M 220.035398 133.741128 
Q 217.419354 138.033134 214.590559 140.20409 
Q 211.761764 142.4 208.680821 142.4 
Q 199.493147 142.4 194.127105 126.130304 
Q 188.761062 109.860607 188.761062 82.03743 
Q 188.761062 54.114439 194.127105 37.869696 
Q 199.493147 21.6 208.680821 21.6 
Q 211.761764 21.6 214.590559 23.79591 
Q 217.419354 25.966866 220.035398 30.258872 
L 220.035398 54.339021 
Q 217.395715 48.649618 214.834828 46.004545 
Q 212.273942 43.359471 209.445147 43.359471 
Q 204.370651 43.359471 201.46306 53.665276 
Q 198.563348 63.946127 198.563348 82.03743 
Q 198.563348 100.053873 201.46306 110.359678 
Q 204.370651 120.640529 209.445147 120.640529 
Q 212.273942 120.640529 214.834828 117.995455 
Q 217.395715 115.325429 220.035398 109.636026 
z
" style="fill:#0000ff;"/>
   </g>
   <g id="patch_11">
    <path clip-path="url(#p74de0413e1)" d="M 243.345176 132.743249 
L 231.317569 132.743249 
L 229.418473 157.5 
L 221.681416 157.5 
L 232.730701 21.6 
L 241.906467 21.6 
L 252.955752 157.5 
L 245.225089 157.5 
z
M 233.235848 107.520489 
L 241.407715 107.520489 
L 237.328175 53.463395 
z
" style="fill:#008000;"/>
   </g>
   <g id="patch_12">
    <path clip-path="url(#p74de0413e1)" d="M 276.26553 132.743249 
L 264.237923 132.743249 
L 262.338827 157.5 
L 254.60177 157.5 
L 265.651055 21.6 
L 274.826821 21.6 
L 285.876106 157.5 
L 278.145443 157.5 
z
M 266.156202 107.520489 
L 274.328069 107.520489 
L 270.248529 53.463395 
z
" style="fill:#008000;"/>
   </g>
   <g id="patch_13">
    <path clip-path="url(#p74de0413e1)" d="M 318.79646 155.335282 
Q 316.180416 156.408283 313.351621 156.951023 
Q 310.522826 157.5 307.441883 157.5 
Q 298.254209 157.5 292.888166 153.432576 
Q 287.522124 149.365152 287.522124 142.409358 
Q 287.522124 135.42861 292.888166 131.367424 
Q 298.254209 127.3 307.441883 127.3 
Q 310.522826 127.3 313.351621 127.848977 
Q 316.180416 128.391717 318.79646 129.464718 
L 318.79646 135.484755 
Q 316.156777 134.062404 313.59589 133.401136 
Q 311.035004 132.739868 308.206209 132.739868 
Q 303.131713 132.739868 300.224122 135.316319 
Q 297.32441 137.886532 297.32441 142.409358 
Q 297.32441 146.913468 300.224122 149.489919 
Q 303.131713 152.060132 308.206209 152.060132 
Q 311.035004 152.060132 313.59589 151.398864 
Q 316.156777 150.731357 318.79646 149.309006 
z
" style="fill:#0000ff;"/>
   </g>
   <g id="patch_14">
    <path clip-path="url(#p74de0413e1)" d="M 318.79646 124.567589 
Q 315.642392 125.933795 312.250017 126.620017 
Q 308.857642 127.3 305.240977 127.3 
Q 297.068436 127.3 292.29528 123.232576 
Q 287.522124 119.165152 287.522124 112.209358 
Q 287.522124 105.172464 292.379389 101.136232 
Q 297.243662 97.1 305.703574 97.1 
Q 308.962777 97.1 311.948628 97.648977 
Q 314.941488 98.191717 317.590905 99.264718 
L 317.590905 105.284755 
Q 314.85738 103.906073 312.15189 103.22609 
Q 309.446401 102.539868 306.726893 102.539868 
Q 301.694403 102.539868 298.967886 105.047697 
Q 296.24137 107.549287 296.24137 112.209358 
Q 296.24137 116.825759 298.86976 119.346065 
Q 301.49815 121.860132 306.334387 121.860132 
Q 307.652087 121.860132 308.780542 121.716649 
Q 309.908998 121.566928 310.806155 121.255009 
L 310.806155 115.603037 
L 305.65451 115.603037 
L 305.65451 110.568663 
L 318.79646 110.568663 
z
" style="fill:#ffa600;"/>
   </g>
   <g id="patch_15">
    <path clip-path="url(#p74de0413e1)" d="M 309.185884 83.346249 
L 297.158277 83.346249 
L 295.259181 97.1 
L 287.522124 97.1 
L 298.571409 21.6 
L 307.747175 21.6 
L 318.79646 97.1 
L 311.065797 97.1 
z
M 299.076556 69.333605 
L 307.248423 69.333605 
L 303.168883 39.301886 
z
" style="fill:#008000;"/>
   </g>
   <g id="patch_16">
    <path clip-path="url(#p74de0413e1)" d="M 342.106238 132.743249 
L 330.078631 132.743249 
L 328.179535 157.5 
L 320.442478 157.5 
L 331.491763 21.6 
L 340.667529 21.6 
L 351.716814 157.5 
L 343.986151 157.5 
z
M 331.99691 107.520489 
L 340.168777 107.520489 
L 336.089237 53.463395 
z
" style="fill:#008000;"/>
   </g>
   <g id="patch_17">
    <path clip-path="url(#p74de0413e1)" d="M 353.362832 21.6 
L 384.637168 21.6 
L 384.637168 48.104286 
L 373.38568 48.104286 
L 373.38568 157.5 
L 364.636139 157.5 
L 364.636139 48.104286 
L 353.362832 48.104286 
z
" style="fill:#ff0000;"/>
   </g>
   <g id="patch_18">
    <path clip-path="url(#p74de0413e1)" d="M 417.557522 145.204152 
Q 414.403454 151.352076 411.011079 154.440074 
Q 407.618703 157.5 404.002039 157.5 
Q 395.829498 157.5 391.056342 139.196592 
Q 386.283186 120.893183 386.283186 89.592109 
Q 386.283186 57.92609 391.140451 39.763045 
Q 396.004724 21.6 404.464635 21.6 
Q 407.723839 21.6 410.70969 24.070399 
Q 413.70255 26.512725 416.351967 31.341231 
L 416.351967 58.431398 
Q 413.618442 52.227329 410.912952 49.167403 
Q 408.207463 46.079405 405.487955 46.079405 
Q 400.455465 46.079405 397.728948 57.364635 
Q 395.002432 68.621793 395.002432 89.592109 
Q 395.002432 110.365916 397.630822 121.707292 
Q 400.259212 133.020595 405.095449 133.020595 
Q 406.413149 133.020595 407.541604 132.374923 
Q 408.670059 131.701177 409.567217 130.297542 
L 409.567217 104.863665 
L 404.415572 104.863665 
L 404.415572 82.208986 
L 417.557522 82.208986 
z
" style="fill:#ffa600;"/>
   </g>
   <g id="patch_19">
    <path clip-path="url(#p74de0413e1)" d="M 440.8673 151.9985 
L 428.839693 151.9985 
L 426.940597 157.5 
L 419.20354 157.5 
L 430.252825 127.3 
L 439.428591 127.3 
L 450.477876 157.5 
L 442.747213 157.5 
z
M 430.757972 146.393442 
L 438.929839 146.393442 
L 434.850299 134.380754 
z
" style="fill:#008000;"/>
   </g>
   <g id="patch_20">
    <path clip-path="url(#p74de0413e1)" d="M 419.20354 97.1 
L 450.477876 97.1 
L 450.477876 102.989841 
L 439.226388 102.989841 
L 439.226388 127.3 
L 430.476847 127.3 
L 430.476847 102.989841 
L 419.20354 102.989841 
z
" style="fill:#ff0000;"/>
   </g>
   <g id="patch_21">
    <path clip-path="url(#p74de0413e1)" d="M 450.477876 90.268973 
Q 447.323808 93.684487 443.931433 95.400041 
Q 440.539057 97.1 436.922393 97.1 
Q 428.749852 97.1 423.976696 86.93144 
Q 419.20354 76.76288 419.20354 59.373394 
Q 419.20354 41.781161 424.060805 31.69058 
Q 428.925078 21.6 437.384989 21.6 
Q 440.644193 21.6 443.630044 22.972444 
Q 446.622904 24.329291 449.272321 27.011795 
L 449.272321 42.061888 
Q 446.538796 38.615183 443.833306 36.915224 
Q 441.127817 35.199669 438.408309 35.199669 
Q 433.375819 35.199669 430.649302 41.469242 
Q 427.922786 47.723218 427.922786 59.373394 
Q 427.922786 70.914398 430.551176 77.215162 
Q 433.179565 83.500331 438.015803 83.500331 
Q 439.333503 83.500331 440.461958 83.141624 
Q 441.590413 82.767321 442.487571 81.987523 
L 442.487571 67.857591 
L 437.335926 67.857591 
L 437.335926 55.271659 
L 450.477876 55.271659 
z
" style="fill:#ffa600;"/>
   </g>
   <g id="patch_22">
    <path clip-path="url(#p74de0413e1)" d="M 452.123894 127.3 
L 483.39823 127.3 
L 483.39823 133.189841 
L 472.146742 133.189841 
L 472.146742 157.5 
L 463.397201 157.5 
L 463.397201 133.189841 
L 452.123894 133.189841 
z
" style="fill:#ff0000;"/>
   </g>
   <g id="patch_23">
    <path clip-path="url(#p74de0413e1)" d="M 473.787654 119.04775 
L 461.760047 119.04775 
L 459.860951 127.3 
L 452.123894 127.3 
L 463.173179 82 
L 472.348945 82 
L 483.39823 127.3 
L 475.667567 127.3 
z
M 463.678326 110.640163 
L 471.850193 110.640163 
L 467.770653 92.621132 
z
" style="fill:#008000;"/>
   </g>
   <g id="patch_24">
    <path clip-path="url(#p74de0413e1)" d="M 483.39823 77.670564 
Q 480.782186 79.816567 477.953391 80.902045 
Q 475.124596 82 472.043652 82 
Q 462.855979 82 457.489936 73.865152 
Q 452.123894 65.730304 452.123894 51.818715 
Q 452.123894 37.85722 457.489936 29.734848 
Q 462.855979 21.6 472.043652 21.6 
Q 475.124596 21.6 477.953391 22.697955 
Q 480.782186 23.783433 483.39823 25.929436 
L 483.39823 37.96951 
Q 480.758547 35.124809 478.19766 33.802272 
Q 475.636773 32.479736 472.807979 32.479736 
Q 467.733483 32.479736 464.825892 37.632638 
Q 461.92618 42.773063 461.92618 51.818715 
Q 461.92618 60.826937 464.825892 65.979839 
Q 467.733483 71.120264 472.807979 71.120264 
Q 475.636773 71.120264 478.19766 69.797728 
Q 480.758547 68.462714 483.39823 65.618013 
z
" style="fill:#0000ff;"/>
   </g>
   <g id="patch_25">
    <path clip-path="url(#p74de0413e1)" d="M 506.708008 151.9985 
L 494.680401 151.9985 
L 492.781305 157.5 
L 485.044248 157.5 
L 496.093533 127.3 
L 505.269299 127.3 
L 516.318584 157.5 
L 508.587921 157.5 
z
M 496.59868 146.393442 
L 504.770547 146.393442 
L 500.691007 134.380754 
z
" style="fill:#008000;"/>
   </g>
   <g id="patch_26">
    <path clip-path="url(#p74de0413e1)" d="M 516.318584 124.567589 
Q 513.164516 125.933795 509.772141 126.620017 
Q 506.379765 127.3 502.763101 127.3 
Q 494.59056 127.3 489.817404 123.232576 
Q 485.044248 119.165152 485.044248 112.209358 
Q 485.044248 105.172464 489.901512 101.136232 
Q 494.765786 97.1 503.225697 97.1 
Q 506.484901 97.1 509.470752 97.648977 
Q 512.463612 98.191717 515.113029 99.264718 
L 515.113029 105.284755 
Q 512.379504 103.906073 509.674014 103.22609 
Q 506.968525 102.539868 504.249017 102.539868 
Q 499.216527 102.539868 496.49001 105.047697 
Q 493.763493 107.549287 493.763493 112.209358 
Q 493.763493 116.825759 496.391883 119.346065 
Q 499.020273 121.860132 503.856511 121.860132 
Q 505.174211 121.860132 506.302666 121.716649 
Q 507.431121 121.566928 508.328279 121.255009 
L 508.328279 115.603037 
L 503.176634 115.603037 
L 503.176634 110.568663 
L 516.318584 110.568663 
z
" style="fill:#ffa600;"/>
   </g>
   <g id="patch_27">
    <path clip-path="url(#p74de0413e1)" d="M 485.044248 66.9 
L 516.318584 66.9 
L 516.318584 72.789841 
L 505.067096 72.789841 
L 505.067096 97.1 
L 496.317555 97.1 
L 496.317555 72.789841 
L 485.044248 72.789841 
z
" style="fill:#ff0000;"/>
   </g>
   <g id="patch_28">
    <path clip-path="url(#p74de0413e1)" d="M 516.318584 63.652923 
Q 513.70254 65.262425 510.873745 66.076534 
Q 508.04495 66.9 504.964006 66.9 
Q 495.776333 66.9 490.41029 60.798864 
Q 485.044248 54.697728 485.044248 44.264036 
Q 485.044248 33.792915 490.41029 27.701136 
Q 495.776333 21.6 504.964006 21.6 
Q 508.04495 21.6 510.873745 22.423466 
Q 513.70254 23.237575 516.318584 24.847077 
L 516.318584 33.877133 
Q 513.678901 31.743607 511.118014 30.751704 
Q 508.557127 29.759802 505.728333 29.759802 
Q 500.653837 29.759802 497.746246 33.624478 
Q 494.846534 37.479798 494.846534 44.264036 
Q 494.846534 51.020202 497.746246 54.884879 
Q 500.653837 58.740198 505.728333 58.740198 
Q 508.557127 58.740198 511.118014 57.748296 
Q 513.678901 56.747036 516.318584 54.61351 
z
" style="fill:#0000ff;"/>
   </g>
   <g id="patch_29">
    <path clip-path="url(#p74de0413e1)" d="M 549.238938 154.767589 
Q 546.08487 156.133795 542.692495 156.820017 
Q 539.300119 157.5 535.683455 157.5 
Q 527.510914 157.5 522.737758 153.432576 
Q 517.964602 149.365152 517.964602 142.409358 
Q 517.964602 135.372464 522.821866 131.336232 
Q 527.68614 127.3 536.146051 127.3 
Q 539.405255 127.3 542.391106 127.848977 
Q 545.383966 128.391717 548.033383 129.464718 
L 548.033383 135.484755 
Q 545.299858 134.106073 542.594368 133.42609 
Q 539.888879 132.739868 537.169371 132.739868 
Q 532.136881 132.739868 529.410364 135.247697 
Q 526.683847 137.749287 526.683847 142.409358 
Q 526.683847 147.025759 529.312237 149.546065 
Q 531.940627 152.060132 536.776865 152.060132 
Q 538.094565 152.060132 539.22302 151.916649 
Q 540.351475 151.766928 541.248633 151.455009 
L 541.248633 145.803037 
L 536.096988 145.803037 
L 536.096988 140.768663 
L 549.238938 140.768663 
z
" style="fill:#ffa600;"/>
   </g>
   <g id="patch_30">
    <path clip-path="url(#p74de0413e1)" d="M 517.964602 97.1 
L 549.238938 97.1 
L 549.238938 102.989841 
L 537.98745 102.989841 
L 537.98745 127.3 
L 529.237909 127.3 
L 529.237909 102.989841 
L 517.964602 102.989841 
z
" style="fill:#ff0000;"/>
   </g>
   <g id="patch_31">
    <path clip-path="url(#p74de0413e1)" d="M 539.628362 83.346249 
L 527.600755 83.346249 
L 525.701659 97.1 
L 517.964602 97.1 
L 529.013887 21.6 
L 538.189653 21.6 
L 549.238938 97.1 
L 541.508275 97.1 
z
M 529.519034 69.333605 
L 537.690901 69.333605 
L 533.611361 39.301886 
z
" style="fill:#008000;"/>
   </g>
   <g id="patch_32">
    <path clip-path="url(#p74de0413e1)" d="M 582.159292 155.335282 
Q 579.543248 156.408283 576.714453 156.951023 
Q 573.885658 157.5 570.804714 157.5 
Q 561.617041 157.5 556.250998 153.432576 
Q 550.884956 149.365152 550.884956 142.409358 
Q 550.884956 135.42861 556.250998 131.367424 
Q 561.617041 127.3 570.804714 127.3 
Q 573.885658 127.3 576.714453 127.848977 
Q 579.543248 128.391717 582.159292 129.464718 
L 582.159292 135.484755 
Q 579.519609 134.062404 576.958722 133.401136 
Q 574.397835 132.739868 571.569041 132.739868 
Q 566.494545 132.739868 563.586954 135.316319 
Q 560.687242 137.886532 560.687242 142.409358 
Q 560.687242 146.913468 563.586954 149.489919 
Q 566.494545 152.060132 571.569041 152.060132 
Q 574.397835 152.060132 576.958722 151.398864 
Q 579.519609 150.731357 582.159292 149.309006 
z
" style="fill:#0000ff;"/>
   </g>
   <g id="patch_33">
    <path clip-path="url(#p74de0413e1)" d="M 550.884956 97.1 
L 582.159292 97.1 
L 582.159292 102.989841 
L 570.907804 102.989841 
L 570.907804 127.3 
L 562.158263 127.3 
L 562.158263 102.989841 
L 550.884956 102.989841 
z
" style="fill:#ff0000;"/>
   </g>
   <g id="patch_34">
    <path clip-path="url(#p74de0413e1)" d="M 572.548716 83.346249 
L 560.521109 83.346249 
L 558.622013 97.1 
L 550.884956 97.1 
L 561.934241 21.6 
L 571.110007 21.6 
L 582.159292 97.1 
L 574.428629 97.1 
z
M 562.439387 69.333605 
L 570.611255 69.333605 
L 566.531715 39.301886 
z
" style="fill:#008000;"/>
   </g>
   <g id="patch_35">
    <path clip-path="url(#p74de0413e1)" d="M 615.079646 154.767589 
Q 611.925578 156.133795 608.533203 156.820017 
Q 605.140827 157.5 601.524163 157.5 
Q 593.351622 157.5 588.578466 153.432576 
Q 583.80531 149.365152 583.80531 142.409358 
Q 583.80531 135.372464 588.662574 131.336232 
Q 593.526848 127.3 601.986759 127.3 
Q 605.245963 127.3 608.231814 127.848977 
Q 611.224674 128.391717 613.874091 129.464718 
L 613.874091 135.484755 
Q 611.140566 134.106073 608.435076 133.42609 
Q 605.729587 132.739868 603.010079 132.739868 
Q 597.977589 132.739868 595.251072 135.247697 
Q 592.524555 137.749287 592.524555 142.409358 
Q 592.524555 147.025759 595.152945 149.546065 
Q 597.781335 152.060132 602.617573 152.060132 
Q 603.935272 152.060132 605.063728 151.916649 
Q 606.192183 151.766928 607.08934 151.455009 
L 607.08934 145.803037 
L 601.937696 145.803037 
L 601.937696 140.768663 
L 615.079646 140.768663 
z
" style="fill:#ffa600;"/>
   </g>
   <g id="patch_36">
    <path clip-path="url(#p74de0413e1)" d="M 583.80531 97.1 
L 615.079646 97.1 
L 615.079646 102.989841 
L 603.828158 102.989841 
L 603.828158 127.3 
L 595.078617 127.3 
L 595.078617 102.989841 
L 583.80531 102.989841 
z
" style="fill:#ff0000;"/>
   </g>
   <g id="patch_37">
    <path clip-path="url(#p74de0413e1)" d="M 605.46907 83.346249 
L 593.441463 83.346249 
L 591.542367 97.1 
L 583.80531 97.1 
L 594.854595 21.6 
L 604.030361 21.6 
L 615.079646 97.1 
L 607.348983 97.1 
z
M 595.359741 69.333605 
L 603.531609 69.333605 
L 599.452069 39.301886 
z
" style="fill:#008000;"/>
   </g>
   <g id="patch_38">
    <path clip-path="url(#p74de0413e1)" d="M 616.725664 142.4 
L 648 142.4 
L 648 145.344921 
L 636.748512 145.344921 
L 636.748512 157.5 
L 627.998971 157.5 
L 627.998971 145.344921 
L 616.725664 145.344921 
z
" style="fill:#ff0000;"/>
   </g>
   <g id="patch_39">
    <path clip-path="url(#p74de0413e1)" d="M 648 138.301384 
Q 644.845932 140.350692 641.453557 141.380025 
Q 638.061181 142.4 634.444517 142.4 
Q 626.271976 142.4 621.49882 136.298864 
Q 616.725664 130.197728 616.725664 119.764036 
Q 616.725664 109.208697 621.582928 103.154348 
Q 626.447202 97.1 634.907113 97.1 
Q 638.166317 97.1 641.152168 97.923466 
Q 644.145028 98.737575 646.794445 100.347077 
L 646.794445 109.377133 
Q 644.06092 107.30911 641.35543 106.289134 
Q 638.649941 105.259802 635.930433 105.259802 
Q 630.897943 105.259802 628.171426 109.021545 
Q 625.444909 112.773931 625.444909 119.764036 
Q 625.444909 126.688639 628.073299 130.469097 
Q 630.701689 134.240198 635.537927 134.240198 
Q 636.855626 134.240198 637.984082 134.024974 
Q 639.112537 133.800392 640.009694 133.332514 
L 640.009694 124.854555 
L 634.85805 124.854555 
L 634.85805 117.302995 
L 648 117.302995 
z
" style="fill:#ffa600;"/>
   </g>
   <g id="patch_40">
    <path clip-path="url(#p74de0413e1)" d="M 638.389424 83.346249 
L 626.361817 83.346249 
L 624.462721 97.1 
L 616.725664 97.1 
L 627.774949 21.6 
L 636.950715 21.6 
L 648 97.1 
L 640.269337 97.1 
z
M 628.280095 69.333605 
L 636.451963 69.333605 
L 632.372423 39.301886 
z
" style="fill:#008000;"/>
   </g>
  </g>
 </g>
 <defs>
  <clipPath id="p74de0413e1">
   <rect height="135.9" width="558" x="90" y="21.6"/>
  </clipPath>
 </defs>
</svg>
