<?xml version="1.0" encoding="utf-8" standalone="no"?>
<!DOCTYPE svg PUBLIC "-//W3C//DTD SVG 1.1//EN"
  "http://www.w3.org/Graphics/SVG/1.1/DTD/svg11.dtd">
<!-- Created with matplotlib (https://matplotlib.org/) -->
<svg height="180pt" version="1.1" viewBox="0 0 720 180" width="720pt" xmlns="http://www.w3.org/2000/svg" xmlns:xlink="http://www.w3.org/1999/xlink">
 <metadata>
  <rdf:RDF xmlns:cc="http://creativecommons.org/ns#" xmlns:dc="http://purl.org/dc/elements/1.1/" xmlns:rdf="http://www.w3.org/1999/02/22-rdf-syntax-ns#">
   <cc:Work>
    <dc:type rdf:resource="http://purl.org/dc/dcmitype/StillImage"/>
    <dc:date>2021-08-04T23:33:03.729935</dc:date>
    <dc:format>image/svg+xml</dc:format>
    <dc:creator>
     <cc:Agent>
      <dc:title>Matplotlib v3.3.2, https://matplotlib.org/</dc:title>
     </cc:Agent>
    </dc:creator>
   </cc:Work>
  </rdf:RDF>
 </metadata>
 <defs>
  <style type="text/css">*{stroke-linecap:butt;stroke-linejoin:round;}</style>
 </defs>
 <g id="figure_1">
  <g id="patch_1">
   <path d="M 0 180 
L 720 180 
L 720 0 
L 0 0 
z
" style="fill:none;"/>
  </g>
  <g id="axes_1">
   <g id="line2d_1">
    <path clip-path="url(#p10003c0b93)" d="M 90 157.5 
L 648 157.5 
" style="fill:none;stroke:#000000;stroke-linecap:square;stroke-width:0.5;"/>
   </g>
   <g id="patch_2">
    <path clip-path="url(#p10003c0b93)" d="M 121.274336 156.133795 
Q 118.120268 156.816897 114.727893 157.160008 
Q 111.335518 157.5 107.718853 157.5 
Q 99.546312 157.5 94.773156 155.466288 
Q 90 153.432576 90 149.954679 
Q 90 146.436232 94.857265 144.418116 
Q 99.721538 142.4 108.18145 142.4 
Q 111.440653 142.4 114.426504 142.674489 
Q 117.419364 142.945858 120.068781 143.482359 
L 120.068781 146.492378 
Q 117.335256 145.803037 114.629766 145.463045 
Q 111.924277 145.119934 109.204769 145.119934 
Q 104.172279 145.119934 101.445762 146.373848 
Q 98.719246 147.624644 98.719246 149.954679 
Q 98.719246 152.26288 101.347636 153.523032 
Q 103.976026 154.780066 108.812263 154.780066 
Q 110.129963 154.780066 111.258418 154.708325 
Q 112.386874 154.633464 113.284031 154.477505 
L 113.284031 151.651518 
L 108.132386 151.651518 
L 108.132386 149.134332 
L 121.274336 149.134332 
z
" style="fill:#ffa600;"/>
   </g>
   <g id="patch_3">
    <path clip-path="url(#p10003c0b93)" d="M 90 97.1 
L 121.274336 97.1 
L 121.274336 105.934762 
L 110.022848 105.934762 
L 110.022848 142.4 
L 101.273307 142.4 
L 101.273307 105.934762 
L 90 105.934762 
z
" style="fill:#ff0000;"/>
   </g>
   <g id="patch_4">
    <path clip-path="url(#p10003c0b93)" d="M 121.274336 91.688205 
Q 118.658292 94.370709 115.829497 95.727556 
Q 113.000702 97.1 109.919759 97.1 
Q 100.732085 97.1 95.366043 86.93144 
Q 90 76.76288 90 59.373394 
Q 90 41.921524 95.366043 31.76856 
Q 100.732085 21.6 109.919759 21.6 
Q 113.000702 21.6 115.829497 22.972444 
Q 118.658292 24.329291 121.274336 27.011795 
L 121.274336 42.061888 
Q 118.634653 38.506011 116.073766 36.85284 
Q 113.51288 35.199669 110.684085 35.199669 
Q 105.609589 35.199669 102.701998 41.640797 
Q 99.802286 48.066329 99.802286 59.373394 
Q 99.802286 70.633671 102.701998 77.074799 
Q 105.609589 83.500331 110.684085 83.500331 
Q 113.51288 83.500331 116.073766 81.84716 
Q 118.634653 80.178393 121.274336 76.622516 
z
" style="fill:#0000ff;"/>
   </g>
   <g id="patch_5">
    <path clip-path="url(#p10003c0b93)" d="M 144.584114 154.74925 
L 132.556507 154.74925 
L 130.657411 157.5 
L 122.920354 157.5 
L 133.969639 142.4 
L 143.145405 142.4 
L 154.19469 157.5 
L 146.464027 157.5 
z
M 134.474786 151.946721 
L 142.646653 151.946721 
L 138.567114 145.940377 
z
" style="fill:#008000;"/>
   </g>
   <g id="patch_6">
    <path clip-path="url(#p10003c0b93)" d="M 154.19469 141.317641 
Q 151.578646 141.854142 148.749851 142.125511 
Q 145.921056 142.4 142.840113 142.4 
Q 133.652439 142.4 128.286397 140.366288 
Q 122.920354 138.332576 122.920354 134.854679 
Q 122.920354 131.364305 128.286397 129.333712 
Q 133.652439 127.3 142.840113 127.3 
Q 145.921056 127.3 148.749851 127.574489 
Q 151.578646 127.845858 154.19469 128.382359 
L 154.19469 131.392378 
Q 151.555007 130.681202 148.99412 130.350568 
Q 146.433234 130.019934 143.604439 130.019934 
Q 138.529943 130.019934 135.622352 131.308159 
Q 132.72264 132.593266 132.72264 134.854679 
Q 132.72264 137.106734 135.622352 138.39496 
Q 138.529943 139.680066 143.604439 139.680066 
Q 146.433234 139.680066 148.99412 139.349432 
Q 151.555007 139.015679 154.19469 138.304503 
z
" style="fill:#0000ff;"/>
   </g>
   <g id="patch_7">
    <path clip-path="url(#p10003c0b93)" d="M 122.920354 112.2 
L 154.19469 112.2 
L 154.19469 115.144921 
L 142.943202 115.144921 
L 142.943202 127.3 
L 134.193661 127.3 
L 134.193661 115.144921 
L 122.920354 115.144921 
z
" style="fill:#ff0000;"/>
   </g>
   <g id="patch_8">
    <path clip-path="url(#p10003c0b93)" d="M 154.19469 104.002768 
Q 151.040622 108.101384 147.648247 110.16005 
Q 144.255872 112.2 140.639207 112.2 
Q 132.466666 112.2 127.69351 99.997728 
Q 122.920354 87.795455 122.920354 66.928073 
Q 122.920354 45.817393 127.777619 33.708697 
Q 132.641892 21.6 141.101804 21.6 
Q 144.361007 21.6 147.346858 23.246932 
Q 150.339718 24.87515 152.989135 28.094154 
L 152.989135 46.154266 
Q 150.25561 42.018219 147.55012 39.978269 
Q 144.844631 37.919603 142.125123 37.919603 
Q 137.092633 37.919603 134.366116 45.44309 
Q 131.6396 52.947862 131.6396 66.928073 
Q 131.6396 80.777277 134.26799 88.338195 
Q 136.89638 95.880397 141.732617 95.880397 
Q 143.050317 95.880397 144.178772 95.449948 
Q 145.307228 95.000785 146.204385 94.065028 
L 146.204385 77.10911 
L 141.05274 77.10911 
L 141.05274 62.00599 
L 154.19469 62.00599 
z
" style="fill:#ffa600;"/>
   </g>
   <g id="patch_9">
    <path clip-path="url(#p10003c0b93)" d="M 187.115044 154.767589 
Q 183.960976 156.133795 180.568601 156.820017 
Q 177.176226 157.5 173.559561 157.5 
Q 165.38702 157.5 160.613864 153.432576 
Q 155.840708 149.365152 155.840708 142.409358 
Q 155.840708 135.372464 160.697973 131.336232 
Q 165.562246 127.3 174.022158 127.3 
Q 177.281361 127.3 180.267212 127.848977 
Q 183.260072 128.391717 185.909489 129.464718 
L 185.909489 135.484755 
Q 183.175964 134.106073 180.470474 133.42609 
Q 177.764985 132.739868 175.045477 132.739868 
Q 170.012987 132.739868 167.28647 135.247697 
Q 164.559954 137.749287 164.559954 142.409358 
Q 164.559954 147.025759 167.188344 149.546065 
Q 169.816734 152.060132 174.652971 152.060132 
Q 175.970671 152.060132 177.099126 151.916649 
Q 178.227582 151.766928 179.124739 151.455009 
L 179.124739 145.803037 
L 173.973094 145.803037 
L 173.973094 140.768663 
L 187.115044 140.768663 
z
" style="fill:#ffa600;"/>
   </g>
   <g id="patch_10">
    <path clip-path="url(#p10003c0b93)" d="M 187.115044 124.052923 
Q 184.499 125.662425 181.670205 126.476534 
Q 178.84141 127.3 175.760467 127.3 
Q 166.572793 127.3 161.206751 121.198864 
Q 155.840708 115.097728 155.840708 104.664036 
Q 155.840708 94.192915 161.206751 88.101136 
Q 166.572793 82 175.760467 82 
Q 178.84141 82 181.670205 82.823466 
Q 184.499 83.637575 187.115044 85.247077 
L 187.115044 94.277133 
Q 184.475361 92.143607 181.914474 91.151704 
Q 179.353588 90.159802 176.524793 90.159802 
Q 171.450297 90.159802 168.542706 94.024478 
Q 165.642994 97.879798 165.642994 104.664036 
Q 165.642994 111.420202 168.542706 115.284879 
Q 171.450297 119.140198 176.524793 119.140198 
Q 179.353588 119.140198 181.914474 118.148296 
Q 184.475361 117.147036 187.115044 115.01351 
z
" style="fill:#0000ff;"/>
   </g>
   <g id="patch_11">
    <path clip-path="url(#p10003c0b93)" d="M 177.504468 70.997 
L 165.476861 70.997 
L 163.577765 82 
L 155.840708 82 
L 166.889993 21.6 
L 176.065759 21.6 
L 187.115044 82 
L 179.384381 82 
z
M 167.39514 59.786884 
L 175.567007 59.786884 
L 171.487467 35.761509 
z
" style="fill:#008000;"/>
   </g>
   <g id="patch_12">
    <path clip-path="url(#p10003c0b93)" d="M 188.761062 112.2 
L 220.035398 112.2 
L 220.035398 121.034762 
L 208.78391 121.034762 
L 208.78391 157.5 
L 200.034369 157.5 
L 200.034369 121.034762 
L 188.761062 121.034762 
z
" style="fill:#ff0000;"/>
   </g>
   <g id="patch_13">
    <path clip-path="url(#p10003c0b93)" d="M 210.424822 95.695499 
L 198.397215 95.695499 
L 196.498119 112.2 
L 188.761062 112.2 
L 199.810347 21.6 
L 208.986113 21.6 
L 220.035398 112.2 
L 212.304735 112.2 
z
M 200.315494 78.880326 
L 208.487361 78.880326 
L 204.407821 42.842263 
z
" style="fill:#008000;"/>
   </g>
   <g id="patch_14">
    <path clip-path="url(#p10003c0b93)" d="M 243.345176 151.9985 
L 231.317569 151.9985 
L 229.418473 157.5 
L 221.681416 157.5 
L 232.730701 127.3 
L 241.906467 127.3 
L 252.955752 157.5 
L 245.225089 157.5 
z
M 233.235848 146.393442 
L 241.407715 146.393442 
L 237.328175 134.380754 
z
" style="fill:#008000;"/>
   </g>
   <g id="patch_15">
    <path clip-path="url(#p10003c0b93)" d="M 252.955752 124.567589 
Q 249.801684 125.933795 246.409309 126.620017 
Q 243.016934 127.3 239.400269 127.3 
Q 231.227728 127.3 226.454572 123.232576 
Q 221.681416 119.165152 221.681416 112.209358 
Q 221.681416 105.172464 226.538681 101.136232 
Q 231.402954 97.1 239.862866 97.1 
Q 243.122069 97.1 246.10792 97.648977 
Q 249.10078 98.191717 251.750197 99.264718 
L 251.750197 105.284755 
Q 249.016672 103.906073 246.311182 103.22609 
Q 243.605693 102.539868 240.886185 102.539868 
Q 235.853695 102.539868 233.127178 105.047697 
Q 230.400662 107.549287 230.400662 112.209358 
Q 230.400662 116.825759 233.029052 119.346065 
Q 235.657442 121.860132 240.493679 121.860132 
Q 241.811379 121.860132 242.939834 121.716649 
Q 244.06829 121.566928 244.965447 121.255009 
L 244.965447 115.603037 
L 239.813802 115.603037 
L 239.813802 110.568663 
L 252.955752 110.568663 
z
" style="fill:#ffa600;"/>
   </g>
   <g id="patch_16">
    <path clip-path="url(#p10003c0b93)" d="M 221.681416 21.6 
L 252.955752 21.6 
L 252.955752 36.324604 
L 241.704264 36.324604 
L 241.704264 97.1 
L 232.954723 97.1 
L 232.954723 36.324604 
L 221.681416 36.324604 
z
" style="fill:#ff0000;"/>
   </g>
   <g id="patch_17">
    <path clip-path="url(#p10003c0b93)" d="M 276.26553 146.497 
L 264.237923 146.497 
L 262.338827 157.5 
L 254.60177 157.5 
L 265.651055 97.1 
L 274.826821 97.1 
L 285.876106 157.5 
L 278.145443 157.5 
z
M 266.156202 135.286884 
L 274.328069 135.286884 
L 270.248529 111.261509 
z
" style="fill:#008000;"/>
   </g>
   <g id="patch_18">
    <path clip-path="url(#p10003c0b93)" d="M 285.876106 90.268973 
Q 282.722038 93.684487 279.329663 95.400041 
Q 275.937288 97.1 272.320623 97.1 
Q 264.148082 97.1 259.374926 86.93144 
Q 254.60177 76.76288 254.60177 59.373394 
Q 254.60177 41.781161 259.459035 31.69058 
Q 264.323308 21.6 272.78322 21.6 
Q 276.042423 21.6 279.028274 22.972444 
Q 282.021134 24.329291 284.670551 27.011795 
L 284.670551 42.061888 
Q 281.937026 38.615183 279.231536 36.915224 
Q 276.526047 35.199669 273.806539 35.199669 
Q 268.774049 35.199669 266.047532 41.469242 
Q 263.321016 47.723218 263.321016 59.373394 
Q 263.321016 70.914398 265.949406 77.215162 
Q 268.577796 83.500331 273.414033 83.500331 
Q 274.731733 83.500331 275.860188 83.141624 
Q 276.988644 82.767321 277.885801 81.987523 
L 277.885801 67.857591 
L 272.734156 67.857591 
L 272.734156 55.271659 
L 285.876106 55.271659 
z
" style="fill:#ffa600;"/>
   </g>
   <g id="patch_19">
    <path clip-path="url(#p10003c0b93)" d="M 287.522124 142.4 
L 318.79646 142.4 
L 318.79646 145.344921 
L 307.544972 145.344921 
L 307.544972 157.5 
L 298.795431 157.5 
L 298.795431 145.344921 
L 287.522124 145.344921 
z
" style="fill:#ff0000;"/>
   </g>
   <g id="patch_20">
    <path clip-path="url(#p10003c0b93)" d="M 318.79646 133.741128 
Q 316.180416 138.033134 313.351621 140.20409 
Q 310.522826 142.4 307.441883 142.4 
Q 298.254209 142.4 292.888166 126.130304 
Q 287.522124 109.860607 287.522124 82.03743 
Q 287.522124 54.114439 292.888166 37.869696 
Q 298.254209 21.6 307.441883 21.6 
Q 310.522826 21.6 313.351621 23.79591 
Q 316.180416 25.966866 318.79646 30.258872 
L 318.79646 54.339021 
Q 316.156777 48.649618 313.59589 46.004545 
Q 311.035004 43.359471 308.206209 43.359471 
Q 303.131713 43.359471 300.224122 53.665276 
Q 297.32441 63.946127 297.32441 82.03743 
Q 297.32441 100.053873 300.224122 110.359678 
Q 303.131713 120.640529 308.206209 120.640529 
Q 311.035004 120.640529 313.59589 117.995455 
Q 316.156777 115.325429 318.79646 109.636026 
z
" style="fill:#0000ff;"/>
   </g>
   <g id="patch_21">
    <path clip-path="url(#p10003c0b93)" d="M 320.442478 21.6 
L 351.716814 21.6 
L 351.716814 48.104286 
L 340.465326 48.104286 
L 340.465326 157.5 
L 331.715785 157.5 
L 331.715785 48.104286 
L 320.442478 48.104286 
z
" style="fill:#ff0000;"/>
   </g>
   <g id="patch_22">
    <path clip-path="url(#p10003c0b93)" d="M 353.362832 142.4 
L 384.637168 142.4 
L 384.637168 145.344921 
L 373.38568 145.344921 
L 373.38568 157.5 
L 364.636139 157.5 
L 364.636139 145.344921 
L 353.362832 145.344921 
z
" style="fill:#ff0000;"/>
   </g>
   <g id="patch_23">
    <path clip-path="url(#p10003c0b93)" d="M 384.637168 131.470357 
Q 381.4831 136.935179 378.090725 139.680066 
Q 374.698349 142.4 371.081685 142.4 
Q 362.909144 142.4 358.135988 126.130304 
Q 353.362832 109.860607 353.362832 82.03743 
Q 353.362832 53.889857 358.220097 37.744929 
Q 363.08437 21.6 371.544282 21.6 
Q 374.803485 21.6 377.789336 23.79591 
Q 380.782196 25.966866 383.431613 30.258872 
L 383.431613 54.339021 
Q 380.698088 48.824293 377.992598 46.104359 
Q 375.287109 43.359471 372.567601 43.359471 
Q 367.535111 43.359471 364.808594 53.390787 
Q 362.082078 63.397149 362.082078 82.03743 
Q 362.082078 100.503037 364.710468 110.584259 
Q 367.338858 120.640529 372.175095 120.640529 
Q 373.492795 120.640529 374.62125 120.066598 
Q 375.749705 119.467713 376.646863 118.220037 
L 376.646863 95.612146 
L 371.495218 95.612146 
L 371.495218 75.474654 
L 384.637168 75.474654 
z
" style="fill:#ffa600;"/>
   </g>
   <g id="patch_24">
    <path clip-path="url(#p10003c0b93)" d="M 407.946946 154.74925 
L 395.919339 154.74925 
L 394.020243 157.5 
L 386.283186 157.5 
L 397.332471 142.4 
L 406.508237 142.4 
L 417.557522 157.5 
L 409.826859 157.5 
z
M 397.837618 151.946721 
L 406.009485 151.946721 
L 401.929945 145.940377 
z
" style="fill:#008000;"/>
   </g>
   <g id="patch_25">
    <path clip-path="url(#p10003c0b93)" d="M 417.557522 131.470357 
Q 414.403454 136.935179 411.011079 139.680066 
Q 407.618703 142.4 404.002039 142.4 
Q 395.829498 142.4 391.056342 126.130304 
Q 386.283186 109.860607 386.283186 82.03743 
Q 386.283186 53.889857 391.140451 37.744929 
Q 396.004724 21.6 404.464635 21.6 
Q 407.723839 21.6 410.70969 23.79591 
Q 413.70255 25.966866 416.351967 30.258872 
L 416.351967 54.339021 
Q 413.618442 48.824293 410.912952 46.104359 
Q 408.207463 43.359471 405.487955 43.359471 
Q 400.455465 43.359471 397.728948 53.390787 
Q 395.002432 63.397149 395.002432 82.03743 
Q 395.002432 100.503037 397.630822 110.584259 
Q 400.259212 120.640529 405.095449 120.640529 
Q 406.413149 120.640529 407.541604 120.066598 
Q 408.670059 119.467713 409.567217 118.220037 
L 409.567217 95.612146 
L 404.415572 95.612146 
L 404.415572 75.474654 
L 417.557522 75.474654 
z
" style="fill:#ffa600;"/>
   </g>
   <g id="patch_26">
    <path clip-path="url(#p10003c0b93)" d="M 419.20354 142.4 
L 450.477876 142.4 
L 450.477876 145.344921 
L 439.226388 145.344921 
L 439.226388 157.5 
L 430.476847 157.5 
L 430.476847 145.344921 
L 419.20354 145.344921 
z
" style="fill:#ff0000;"/>
   </g>
   <g id="patch_27">
    <path clip-path="url(#p10003c0b93)" d="M 440.8673 136.8985 
L 428.839693 136.8985 
L 426.940597 142.4 
L 419.20354 142.4 
L 430.252825 112.2 
L 439.428591 112.2 
L 450.477876 142.4 
L 442.747213 142.4 
z
M 430.757972 131.293442 
L 438.929839 131.293442 
L 434.850299 119.280754 
z
" style="fill:#008000;"/>
   </g>
   <g id="patch_28">
    <path clip-path="url(#p10003c0b93)" d="M 450.477876 109.467589 
Q 447.323808 110.833795 443.931433 111.520017 
Q 440.539057 112.2 436.922393 112.2 
Q 428.749852 112.2 423.976696 108.132576 
Q 419.20354 104.065152 419.20354 97.109358 
Q 419.20354 90.072464 424.060805 86.036232 
Q 428.925078 82 437.384989 82 
Q 440.644193 82 443.630044 82.548977 
Q 446.622904 83.091717 449.272321 84.164718 
L 449.272321 90.184755 
Q 446.538796 88.806073 443.833306 88.12609 
Q 441.127817 87.439868 438.408309 87.439868 
Q 433.375819 87.439868 430.649302 89.947697 
Q 427.922786 92.449287 427.922786 97.109358 
Q 427.922786 101.725759 430.551176 104.246065 
Q 433.179565 106.760132 438.015803 106.760132 
Q 439.333503 106.760132 440.461958 106.616649 
Q 441.590413 106.466928 442.487571 106.155009 
L 442.487571 100.503037 
L 437.335926 100.503037 
L 437.335926 95.468663 
L 450.477876 95.468663 
z
" style="fill:#ffa600;"/>
   </g>
   <g id="patch_29">
    <path clip-path="url(#p10003c0b93)" d="M 450.477876 77.670564 
Q 447.861832 79.816567 445.033037 80.902045 
Q 442.204242 82 439.123298 82 
Q 429.935625 82 424.569582 73.865152 
Q 419.20354 65.730304 419.20354 51.818715 
Q 419.20354 37.85722 424.569582 29.734848 
Q 429.935625 21.6 439.123298 21.6 
Q 442.204242 21.6 445.033037 22.697955 
Q 447.861832 23.783433 450.477876 25.929436 
L 450.477876 37.96951 
Q 447.838193 35.124809 445.277306 33.802272 
Q 442.71642 32.479736 439.887625 32.479736 
Q 434.813129 32.479736 431.905538 37.632638 
Q 429.005826 42.773063 429.005826 51.818715 
Q 429.005826 60.826937 431.905538 65.979839 
Q 434.813129 71.120264 439.887625 71.120264 
Q 442.71642 71.120264 445.277306 69.797728 
Q 447.838193 68.462714 450.477876 65.618013 
z
" style="fill:#0000ff;"/>
   </g>
   <g id="patch_30">
    <path clip-path="url(#p10003c0b93)" d="M 473.787654 154.74925 
L 461.760047 154.74925 
L 459.860951 157.5 
L 452.123894 157.5 
L 463.173179 142.4 
L 472.348945 142.4 
L 483.39823 157.5 
L 475.667567 157.5 
z
M 463.678326 151.946721 
L 471.850193 151.946721 
L 467.770653 145.940377 
z
" style="fill:#008000;"/>
   </g>
   <g id="patch_31">
    <path clip-path="url(#p10003c0b93)" d="M 483.39823 141.317641 
Q 480.782186 141.854142 477.953391 142.125511 
Q 475.124596 142.4 472.043652 142.4 
Q 462.855979 142.4 457.489936 140.366288 
Q 452.123894 138.332576 452.123894 134.854679 
Q 452.123894 131.364305 457.489936 129.333712 
Q 462.855979 127.3 472.043652 127.3 
Q 475.124596 127.3 477.953391 127.574489 
Q 480.782186 127.845858 483.39823 128.382359 
L 483.39823 131.392378 
Q 480.758547 130.681202 478.19766 130.350568 
Q 475.636773 130.019934 472.807979 130.019934 
Q 467.733483 130.019934 464.825892 131.308159 
Q 461.92618 132.593266 461.92618 134.854679 
Q 461.92618 137.106734 464.825892 138.39496 
Q 467.733483 139.680066 472.807979 139.680066 
Q 475.636773 139.680066 478.19766 139.349432 
Q 480.758547 139.015679 483.39823 138.304503 
z
" style="fill:#0000ff;"/>
   </g>
   <g id="patch_32">
    <path clip-path="url(#p10003c0b93)" d="M 483.39823 117.736563 
Q 480.244162 122.518281 476.851787 124.920058 
Q 473.459411 127.3 469.842747 127.3 
Q 461.670206 127.3 456.89705 113.064016 
Q 452.123894 98.828031 452.123894 74.482751 
Q 452.123894 49.853625 456.981158 35.726813 
Q 461.845432 21.6 470.305343 21.6 
Q 473.564547 21.6 476.550398 23.521421 
Q 479.543258 25.421008 482.192675 29.176513 
L 482.192675 50.246643 
Q 479.45915 45.421256 476.75366 43.041314 
Q 474.048171 40.639537 471.328663 40.639537 
Q 466.296173 40.639537 463.569656 49.416939 
Q 460.84314 58.172506 460.84314 74.482751 
Q 460.84314 90.640157 463.471529 99.461227 
Q 466.099919 108.260463 470.936157 108.260463 
Q 472.253857 108.260463 473.382312 107.758273 
Q 474.510767 107.234249 475.407925 106.142533 
L 475.407925 86.360628 
L 470.25628 86.360628 
L 470.25628 68.740322 
L 483.39823 68.740322 
z
" style="fill:#ffa600;"/>
   </g>
   <g id="patch_33">
    <path clip-path="url(#p10003c0b93)" d="M 485.044248 142.4 
L 516.318584 142.4 
L 516.318584 145.344921 
L 505.067096 145.344921 
L 505.067096 157.5 
L 496.317555 157.5 
L 496.317555 145.344921 
L 485.044248 145.344921 
z
" style="fill:#ff0000;"/>
   </g>
   <g id="patch_34">
    <path clip-path="url(#p10003c0b93)" d="M 516.318584 140.235282 
Q 513.70254 141.308283 510.873745 141.851023 
Q 508.04495 142.4 504.964006 142.4 
Q 495.776333 142.4 490.41029 138.332576 
Q 485.044248 134.265152 485.044248 127.309358 
Q 485.044248 120.32861 490.41029 116.267424 
Q 495.776333 112.2 504.964006 112.2 
Q 508.04495 112.2 510.873745 112.748977 
Q 513.70254 113.291717 516.318584 114.364718 
L 516.318584 120.384755 
Q 513.678901 118.962404 511.118014 118.301136 
Q 508.557127 117.639868 505.728333 117.639868 
Q 500.653837 117.639868 497.746246 120.216319 
Q 494.846534 122.786532 494.846534 127.309358 
Q 494.846534 131.813468 497.746246 134.389919 
Q 500.653837 136.960132 505.728333 136.960132 
Q 508.557127 136.960132 511.118014 136.298864 
Q 513.678901 135.631357 516.318584 134.209006 
z
" style="fill:#0000ff;"/>
   </g>
   <g id="patch_35">
    <path clip-path="url(#p10003c0b93)" d="M 516.318584 109.467589 
Q 513.164516 110.833795 509.772141 111.520017 
Q 506.379765 112.2 502.763101 112.2 
Q 494.59056 112.2 489.817404 108.132576 
Q 485.044248 104.065152 485.044248 97.109358 
Q 485.044248 90.072464 489.901512 86.036232 
Q 494.765786 82 503.225697 82 
Q 506.484901 82 509.470752 82.548977 
Q 512.463612 83.091717 515.113029 84.164718 
L 515.113029 90.184755 
Q 512.379504 88.806073 509.674014 88.12609 
Q 506.968525 87.439868 504.249017 87.439868 
Q 499.216527 87.439868 496.49001 89.947697 
Q 493.763493 92.449287 493.763493 97.109358 
Q 493.763493 101.725759 496.391883 104.246065 
Q 499.020273 106.760132 503.856511 106.760132 
Q 505.174211 106.760132 506.302666 106.616649 
Q 507.431121 106.466928 508.328279 106.155009 
L 508.328279 100.503037 
L 503.176634 100.503037 
L 503.176634 95.468663 
L 516.318584 95.468663 
z
" style="fill:#ffa600;"/>
   </g>
   <g id="patch_36">
    <path clip-path="url(#p10003c0b93)" d="M 506.708008 70.997 
L 494.680401 70.997 
L 492.781305 82 
L 485.044248 82 
L 496.093533 21.6 
L 505.269299 21.6 
L 516.318584 82 
L 508.587921 82 
z
M 496.59868 59.786884 
L 504.770547 59.786884 
L 500.691007 35.761509 
z
" style="fill:#008000;"/>
   </g>
   <g id="patch_37">
    <path clip-path="url(#p10003c0b93)" d="M 517.964602 142.4 
L 549.238938 142.4 
L 549.238938 145.344921 
L 537.98745 145.344921 
L 537.98745 157.5 
L 529.237909 157.5 
L 529.237909 145.344921 
L 517.964602 145.344921 
z
" style="fill:#ff0000;"/>
   </g>
   <g id="patch_38">
    <path clip-path="url(#p10003c0b93)" d="M 549.238938 131.470357 
Q 546.08487 136.935179 542.692495 139.680066 
Q 539.300119 142.4 535.683455 142.4 
Q 527.510914 142.4 522.737758 126.130304 
Q 517.964602 109.860607 517.964602 82.03743 
Q 517.964602 53.889857 522.821866 37.744929 
Q 527.68614 21.6 536.146051 21.6 
Q 539.405255 21.6 542.391106 23.79591 
Q 545.383966 25.966866 548.033383 30.258872 
L 548.033383 54.339021 
Q 545.299858 48.824293 542.594368 46.104359 
Q 539.888879 43.359471 537.169371 43.359471 
Q 532.136881 43.359471 529.410364 53.390787 
Q 526.683847 63.397149 526.683847 82.03743 
Q 526.683847 100.503037 529.312237 110.584259 
Q 531.940627 120.640529 536.776865 120.640529 
Q 538.094565 120.640529 539.22302 120.066598 
Q 540.351475 119.467713 541.248633 118.220037 
L 541.248633 95.612146 
L 536.096988 95.612146 
L 536.096988 75.474654 
L 549.238938 75.474654 
z
" style="fill:#ffa600;"/>
   </g>
   <g id="patch_39">
    <path clip-path="url(#p10003c0b93)" d="M 582.159292 156.417641 
Q 579.543248 156.954142 576.714453 157.225511 
Q 573.885658 157.5 570.804714 157.5 
Q 561.617041 157.5 556.250998 155.466288 
Q 550.884956 153.432576 550.884956 149.954679 
Q 550.884956 146.464305 556.250998 144.433712 
Q 561.617041 142.4 570.804714 142.4 
Q 573.885658 142.4 576.714453 142.674489 
Q 579.543248 142.945858 582.159292 143.482359 
L 582.159292 146.492378 
Q 579.519609 145.781202 576.958722 145.450568 
Q 574.397835 145.119934 571.569041 145.119934 
Q 566.494545 145.119934 563.586954 146.408159 
Q 560.687242 147.693266 560.687242 149.954679 
Q 560.687242 152.206734 563.586954 153.49496 
Q 566.494545 154.780066 571.569041 154.780066 
Q 574.397835 154.780066 576.958722 154.449432 
Q 579.519609 154.115679 582.159292 153.404503 
z
" style="fill:#0000ff;"/>
   </g>
   <g id="patch_40">
    <path clip-path="url(#p10003c0b93)" d="M 550.884956 127.3 
L 582.159292 127.3 
L 582.159292 130.244921 
L 570.907804 130.244921 
L 570.907804 142.4 
L 562.158263 142.4 
L 562.158263 130.244921 
L 550.884956 130.244921 
z
" style="fill:#ff0000;"/>
   </g>
   <g id="patch_41">
    <path clip-path="url(#p10003c0b93)" d="M 582.159292 124.567589 
Q 579.005224 125.933795 575.612849 126.620017 
Q 572.220473 127.3 568.603809 127.3 
Q 560.431268 127.3 555.658112 123.232576 
Q 550.884956 119.165152 550.884956 112.209358 
Q 550.884956 105.172464 555.74222 101.136232 
Q 560.606494 97.1 569.066405 97.1 
Q 572.325609 97.1 575.31146 97.648977 
Q 578.30432 98.191717 580.953737 99.264718 
L 580.953737 105.284755 
Q 578.220212 103.906073 575.514722 103.22609 
Q 572.809233 102.539868 570.089725 102.539868 
Q 565.057235 102.539868 562.330718 105.047697 
Q 559.604201 107.549287 559.604201 112.209358 
Q 559.604201 116.825759 562.232591 119.346065 
Q 564.860981 121.860132 569.697219 121.860132 
Q 571.014919 121.860132 572.143374 121.716649 
Q 573.271829 121.566928 574.168986 121.255009 
L 574.168986 115.603037 
L 569.017342 115.603037 
L 569.017342 110.568663 
L 582.159292 110.568663 
z
" style="fill:#ffa600;"/>
   </g>
   <g id="patch_42">
    <path clip-path="url(#p10003c0b93)" d="M 572.548716 83.346249 
L 560.521109 83.346249 
L 558.622013 97.1 
L 550.884956 97.1 
L 561.934241 21.6 
L 571.110007 21.6 
L 582.159292 97.1 
L 574.428629 97.1 
z
M 562.439387 69.333605 
L 570.611255 69.333605 
L 566.531715 39.301886 
z
" style="fill:#008000;"/>
   </g>
   <g id="patch_43">
    <path clip-path="url(#p10003c0b93)" d="M 615.079646 156.133795 
Q 611.925578 156.816897 608.533203 157.160008 
Q 605.140827 157.5 601.524163 157.5 
Q 593.351622 157.5 588.578466 155.466288 
Q 583.80531 153.432576 583.80531 149.954679 
Q 583.80531 146.436232 588.662574 144.418116 
Q 593.526848 142.4 601.986759 142.4 
Q 605.245963 142.4 608.231814 142.674489 
Q 611.224674 142.945858 613.874091 143.482359 
L 613.874091 146.492378 
Q 611.140566 145.803037 608.435076 145.463045 
Q 605.729587 145.119934 603.010079 145.119934 
Q 597.977589 145.119934 595.251072 146.373848 
Q 592.524555 147.624644 592.524555 149.954679 
Q 592.524555 152.26288 595.152945 153.523032 
Q 597.781335 154.780066 602.617573 154.780066 
Q 603.935272 154.780066 605.063728 154.708325 
Q 606.192183 154.633464 607.08934 154.477505 
L 607.08934 151.651518 
L 601.937696 151.651518 
L 601.937696 149.134332 
L 615.079646 149.134332 
z
" style="fill:#ffa600;"/>
   </g>
   <g id="patch_44">
    <path clip-path="url(#p10003c0b93)" d="M 583.80531 112.2 
L 615.079646 112.2 
L 615.079646 118.089841 
L 603.828158 118.089841 
L 603.828158 142.4 
L 595.078617 142.4 
L 595.078617 118.089841 
L 583.80531 118.089841 
z
" style="fill:#ff0000;"/>
   </g>
   <g id="patch_45">
    <path clip-path="url(#p10003c0b93)" d="M 605.46907 103.94775 
L 593.441463 103.94775 
L 591.542367 112.2 
L 583.80531 112.2 
L 594.854595 66.9 
L 604.030361 66.9 
L 615.079646 112.2 
L 607.348983 112.2 
z
M 595.359741 95.540163 
L 603.531609 95.540163 
L 599.452069 77.521132 
z
" style="fill:#008000;"/>
   </g>
   <g id="patch_46">
    <path clip-path="url(#p10003c0b93)" d="M 615.079646 63.652923 
Q 612.463602 65.262425 609.634807 66.076534 
Q 606.806012 66.9 603.725068 66.9 
Q 594.537395 66.9 589.171352 60.798864 
Q 583.80531 54.697728 583.80531 44.264036 
Q 583.80531 33.792915 589.171352 27.701136 
Q 594.537395 21.6 603.725068 21.6 
Q 606.806012 21.6 609.634807 22.423466 
Q 612.463602 23.237575 615.079646 24.847077 
L 615.079646 33.877133 
Q 612.439963 31.743607 609.879076 30.751704 
Q 607.318189 29.759802 604.489395 29.759802 
Q 599.414899 29.759802 596.507308 33.624478 
Q 593.607596 37.479798 593.607596 44.264036 
Q 593.607596 51.020202 596.507308 54.884879 
Q 599.414899 58.740198 604.489395 58.740198 
Q 607.318189 58.740198 609.879076 57.748296 
Q 612.439963 56.747036 615.079646 54.61351 
z
" style="fill:#0000ff;"/>
   </g>
   <g id="patch_47">
    <path clip-path="url(#p10003c0b93)" d="M 648 156.133795 
Q 644.845932 156.816897 641.453557 157.160008 
Q 638.061181 157.5 634.444517 157.5 
Q 626.271976 157.5 621.49882 155.466288 
Q 616.725664 153.432576 616.725664 149.954679 
Q 616.725664 146.436232 621.582928 144.418116 
Q 626.447202 142.4 634.907113 142.4 
Q 638.166317 142.4 641.152168 142.674489 
Q 644.145028 142.945858 646.794445 143.482359 
L 646.794445 146.492378 
Q 644.06092 145.803037 641.35543 145.463045 
Q 638.649941 145.119934 635.930433 145.119934 
Q 630.897943 145.119934 628.171426 146.373848 
Q 625.444909 147.624644 625.444909 149.954679 
Q 625.444909 152.26288 628.073299 153.523032 
Q 630.701689 154.780066 635.537927 154.780066 
Q 636.855626 154.780066 637.984082 154.708325 
Q 639.112537 154.633464 640.009694 154.477505 
L 640.009694 151.651518 
L 634.85805 151.651518 
L 634.85805 149.134332 
L 648 149.134332 
z
" style="fill:#ffa600;"/>
   </g>
   <g id="patch_48">
    <path clip-path="url(#p10003c0b93)" d="M 638.389424 136.8985 
L 626.361817 136.8985 
L 624.462721 142.4 
L 616.725664 142.4 
L 627.774949 112.2 
L 636.950715 112.2 
L 648 142.4 
L 640.269337 142.4 
z
M 628.280095 131.293442 
L 636.451963 131.293442 
L 632.372423 119.280754 
z
" style="fill:#008000;"/>
   </g>
   <g id="patch_49">
    <path clip-path="url(#p10003c0b93)" d="M 648 110.035282 
Q 645.383956 111.108283 642.555161 111.651023 
Q 639.726366 112.2 636.645422 112.2 
Q 627.457749 112.2 622.091706 108.132576 
Q 616.725664 104.065152 616.725664 97.109358 
Q 616.725664 90.12861 622.091706 86.067424 
Q 627.457749 82 636.645422 82 
Q 639.726366 82 642.555161 82.548977 
Q 645.383956 83.091717 648 84.164718 
L 648 90.184755 
Q 645.360317 88.762404 642.79943 88.101136 
Q 640.238543 87.439868 637.409749 87.439868 
Q 632.335253 87.439868 629.427662 90.016319 
Q 626.52795 92.586532 626.52795 97.109358 
Q 626.52795 101.613468 629.427662 104.189919 
Q 632.335253 106.760132 637.409749 106.760132 
Q 640.238543 106.760132 642.79943 106.098864 
Q 645.360317 105.431357 648 104.009006 
z
" style="fill:#0000ff;"/>
   </g>
   <g id="patch_50">
    <path clip-path="url(#p10003c0b93)" d="M 616.725664 21.6 
L 648 21.6 
L 648 33.379683 
L 636.748512 33.379683 
L 636.748512 82 
L 627.998971 82 
L 627.998971 33.379683 
L 616.725664 33.379683 
z
" style="fill:#ff0000;"/>
   </g>
  </g>
 </g>
 <defs>
  <clipPath id="p10003c0b93">
   <rect height="135.9" width="558" x="90" y="21.6"/>
  </clipPath>
 </defs>
</svg>
