<?xml version="1.0" encoding="utf-8" standalone="no"?>
<!DOCTYPE svg PUBLIC "-//W3C//DTD SVG 1.1//EN"
  "http://www.w3.org/Graphics/SVG/1.1/DTD/svg11.dtd">
<!-- Created with matplotlib (https://matplotlib.org/) -->
<svg height="180pt" version="1.1" viewBox="0 0 720 180" width="720pt" xmlns="http://www.w3.org/2000/svg" xmlns:xlink="http://www.w3.org/1999/xlink">
 <metadata>
  <rdf:RDF xmlns:cc="http://creativecommons.org/ns#" xmlns:dc="http://purl.org/dc/elements/1.1/" xmlns:rdf="http://www.w3.org/1999/02/22-rdf-syntax-ns#">
   <cc:Work>
    <dc:type rdf:resource="http://purl.org/dc/dcmitype/StillImage"/>
    <dc:date>2021-08-04T23:33:07.706617</dc:date>
    <dc:format>image/svg+xml</dc:format>
    <dc:creator>
     <cc:Agent>
      <dc:title>Matplotlib v3.3.2, https://matplotlib.org/</dc:title>
     </cc:Agent>
    </dc:creator>
   </cc:Work>
  </rdf:RDF>
 </metadata>
 <defs>
  <style type="text/css">*{stroke-linecap:butt;stroke-linejoin:round;}</style>
 </defs>
 <g id="figure_1">
  <g id="patch_1">
   <path d="M 0 180 
L 720 180 
L 720 0 
L 0 0 
z
" style="fill:none;"/>
  </g>
  <g id="axes_1">
   <g id="line2d_1">
    <path clip-path="url(#pb2e424bfd6)" d="M 90 157.5 
L 648 157.5 
" style="fill:none;stroke:#000000;stroke-linecap:square;stroke-width:0.5;"/>
   </g>
   <g id="patch_2">
    <path clip-path="url(#pb2e424bfd6)" d="M 111.66376 151.9985 
L 99.636153 151.9985 
L 97.737057 157.5 
L 90 157.5 
L 101.049285 127.3 
L 110.225051 127.3 
L 121.274336 157.5 
L 113.543673 157.5 
z
M 101.554432 146.393442 
L 109.726299 146.393442 
L 105.64676 134.380754 
z
" style="fill:#008000;"/>
   </g>
   <g id="patch_3">
    <path clip-path="url(#pb2e424bfd6)" d="M 121.274336 125.135282 
Q 118.658292 126.208283 115.829497 126.751023 
Q 113.000702 127.3 109.919759 127.3 
Q 100.732085 127.3 95.366043 123.232576 
Q 90 119.165152 90 112.209358 
Q 90 105.22861 95.366043 101.167424 
Q 100.732085 97.1 109.919759 97.1 
Q 113.000702 97.1 115.829497 97.648977 
Q 118.658292 98.191717 121.274336 99.264718 
L 121.274336 105.284755 
Q 118.634653 103.862404 116.073766 103.201136 
Q 113.51288 102.539868 110.684085 102.539868 
Q 105.609589 102.539868 102.701998 105.116319 
Q 99.802286 107.686532 99.802286 112.209358 
Q 99.802286 116.713468 102.701998 119.289919 
Q 105.609589 121.860132 110.684085 121.860132 
Q 113.51288 121.860132 116.073766 121.198864 
Q 118.634653 120.531357 121.274336 119.109006 
z
" style="fill:#0000ff;"/>
   </g>
   <g id="patch_4">
    <path clip-path="url(#pb2e424bfd6)" d="M 121.274336 94.367589 
Q 118.120268 95.733795 114.727893 96.420017 
Q 111.335518 97.1 107.718853 97.1 
Q 99.546312 97.1 94.773156 93.032576 
Q 90 88.965152 90 82.009358 
Q 90 74.972464 94.857265 70.936232 
Q 99.721538 66.9 108.18145 66.9 
Q 111.440653 66.9 114.426504 67.448977 
Q 117.419364 67.991717 120.068781 69.064718 
L 120.068781 75.084755 
Q 117.335256 73.706073 114.629766 73.02609 
Q 111.924277 72.339868 109.204769 72.339868 
Q 104.172279 72.339868 101.445762 74.847697 
Q 98.719246 77.349287 98.719246 82.009358 
Q 98.719246 86.625759 101.347636 89.146065 
Q 103.976026 91.660132 108.812263 91.660132 
Q 110.129963 91.660132 111.258418 91.516649 
Q 112.386874 91.366928 113.284031 91.055009 
L 113.284031 85.403037 
L 108.132386 85.403037 
L 108.132386 80.368663 
L 121.274336 80.368663 
z
" style="fill:#ffa600;"/>
   </g>
   <g id="patch_5">
    <path clip-path="url(#pb2e424bfd6)" d="M 90 36.7 
L 121.274336 36.7 
L 121.274336 42.589841 
L 110.022848 42.589841 
L 110.022848 66.9 
L 101.273307 66.9 
L 101.273307 42.589841 
L 90 42.589841 
z
" style="fill:#ff0000;"/>
   </g>
   <g id="patch_6">
    <path clip-path="url(#pb2e424bfd6)" d="M 154.19469 156.133795 
Q 151.040622 156.816897 147.648247 157.160008 
Q 144.255872 157.5 140.639207 157.5 
Q 132.466666 157.5 127.69351 155.466288 
Q 122.920354 153.432576 122.920354 149.954679 
Q 122.920354 146.436232 127.777619 144.418116 
Q 132.641892 142.4 141.101804 142.4 
Q 144.361007 142.4 147.346858 142.674489 
Q 150.339718 142.945858 152.989135 143.482359 
L 152.989135 146.492378 
Q 150.25561 145.803037 147.55012 145.463045 
Q 144.844631 145.119934 142.125123 145.119934 
Q 137.092633 145.119934 134.366116 146.373848 
Q 131.6396 147.624644 131.6396 149.954679 
Q 131.6396 152.26288 134.26799 153.523032 
Q 136.89638 154.780066 141.732617 154.780066 
Q 143.050317 154.780066 144.178772 154.708325 
Q 145.307228 154.633464 146.204385 154.477505 
L 146.204385 151.651518 
L 141.05274 151.651518 
L 141.05274 149.134332 
L 154.19469 149.134332 
z
" style="fill:#ffa600;"/>
   </g>
   <g id="patch_7">
    <path clip-path="url(#pb2e424bfd6)" d="M 144.584114 136.8985 
L 132.556507 136.8985 
L 130.657411 142.4 
L 122.920354 142.4 
L 133.969639 112.2 
L 143.145405 112.2 
L 154.19469 142.4 
L 146.464027 142.4 
z
M 134.474786 131.293442 
L 142.646653 131.293442 
L 138.567114 119.280754 
z
" style="fill:#008000;"/>
   </g>
   <g id="patch_8">
    <path clip-path="url(#pb2e424bfd6)" d="M 154.19469 106.788205 
Q 151.578646 109.470709 148.749851 110.827556 
Q 145.921056 112.2 142.840113 112.2 
Q 133.652439 112.2 128.286397 102.03144 
Q 122.920354 91.86288 122.920354 74.473394 
Q 122.920354 57.021524 128.286397 46.86856 
Q 133.652439 36.7 142.840113 36.7 
Q 145.921056 36.7 148.749851 38.072444 
Q 151.578646 39.429291 154.19469 42.111795 
L 154.19469 57.161888 
Q 151.555007 53.606011 148.99412 51.95284 
Q 146.433234 50.299669 143.604439 50.299669 
Q 138.529943 50.299669 135.622352 56.740797 
Q 132.72264 63.166329 132.72264 74.473394 
Q 132.72264 85.733671 135.622352 92.174799 
Q 138.529943 98.600331 143.604439 98.600331 
Q 146.433234 98.600331 148.99412 96.94716 
Q 151.555007 95.278393 154.19469 91.722516 
z
" style="fill:#0000ff;"/>
   </g>
   <g id="patch_9">
    <path clip-path="url(#pb2e424bfd6)" d="M 187.115044 156.133795 
Q 183.960976 156.816897 180.568601 157.160008 
Q 177.176226 157.5 173.559561 157.5 
Q 165.38702 157.5 160.613864 155.466288 
Q 155.840708 153.432576 155.840708 149.954679 
Q 155.840708 146.436232 160.697973 144.418116 
Q 165.562246 142.4 174.022158 142.4 
Q 177.281361 142.4 180.267212 142.674489 
Q 183.260072 142.945858 185.909489 143.482359 
L 185.909489 146.492378 
Q 183.175964 145.803037 180.470474 145.463045 
Q 177.764985 145.119934 175.045477 145.119934 
Q 170.012987 145.119934 167.28647 146.373848 
Q 164.559954 147.624644 164.559954 149.954679 
Q 164.559954 152.26288 167.188344 153.523032 
Q 169.816734 154.780066 174.652971 154.780066 
Q 175.970671 154.780066 177.099126 154.708325 
Q 178.227582 154.633464 179.124739 154.477505 
L 179.124739 151.651518 
L 173.973094 151.651518 
L 173.973094 149.134332 
L 187.115044 149.134332 
z
" style="fill:#ffa600;"/>
   </g>
   <g id="patch_10">
    <path clip-path="url(#pb2e424bfd6)" d="M 155.840708 127.3 
L 187.115044 127.3 
L 187.115044 130.244921 
L 175.863556 130.244921 
L 175.863556 142.4 
L 167.114015 142.4 
L 167.114015 130.244921 
L 155.840708 130.244921 
z
" style="fill:#ff0000;"/>
   </g>
   <g id="patch_11">
    <path clip-path="url(#pb2e424bfd6)" d="M 177.504468 121.7985 
L 165.476861 121.7985 
L 163.577765 127.3 
L 155.840708 127.3 
L 166.889993 97.1 
L 176.065759 97.1 
L 187.115044 127.3 
L 179.384381 127.3 
z
M 167.39514 116.193442 
L 175.567007 116.193442 
L 171.487467 104.180754 
z
" style="fill:#008000;"/>
   </g>
   <g id="patch_12">
    <path clip-path="url(#pb2e424bfd6)" d="M 187.115044 92.770564 
Q 184.499 94.916567 181.670205 96.002045 
Q 178.84141 97.1 175.760467 97.1 
Q 166.572793 97.1 161.206751 88.965152 
Q 155.840708 80.830304 155.840708 66.918715 
Q 155.840708 52.95722 161.206751 44.834848 
Q 166.572793 36.7 175.760467 36.7 
Q 178.84141 36.7 181.670205 37.797955 
Q 184.499 38.883433 187.115044 41.029436 
L 187.115044 53.06951 
Q 184.475361 50.224809 181.914474 48.902272 
Q 179.353588 47.579736 176.524793 47.579736 
Q 171.450297 47.579736 168.542706 52.732638 
Q 165.642994 57.873063 165.642994 66.918715 
Q 165.642994 75.926937 168.542706 81.079839 
Q 171.450297 86.220264 176.524793 86.220264 
Q 179.353588 86.220264 181.914474 84.897728 
Q 184.475361 83.562714 187.115044 80.718013 
z
" style="fill:#0000ff;"/>
   </g>
   <g id="patch_13">
    <path clip-path="url(#pb2e424bfd6)" d="M 210.424822 154.74925 
L 198.397215 154.74925 
L 196.498119 157.5 
L 188.761062 157.5 
L 199.810347 142.4 
L 208.986113 142.4 
L 220.035398 157.5 
L 212.304735 157.5 
z
M 200.315494 151.946721 
L 208.487361 151.946721 
L 204.407821 145.940377 
z
" style="fill:#008000;"/>
   </g>
   <g id="patch_14">
    <path clip-path="url(#pb2e424bfd6)" d="M 220.035398 141.033795 
Q 216.88133 141.716897 213.488955 142.060008 
Q 210.09658 142.4 206.479915 142.4 
Q 198.307374 142.4 193.534218 140.366288 
Q 188.761062 138.332576 188.761062 134.854679 
Q 188.761062 131.336232 193.618327 129.318116 
Q 198.4826 127.3 206.942512 127.3 
Q 210.201715 127.3 213.187566 127.574489 
Q 216.180426 127.845858 218.829843 128.382359 
L 218.829843 131.392378 
Q 216.096318 130.703037 213.390828 130.363045 
Q 210.685339 130.019934 207.965831 130.019934 
Q 202.933341 130.019934 200.206824 131.273848 
Q 197.480308 132.524644 197.480308 134.854679 
Q 197.480308 137.16288 200.108698 138.423032 
Q 202.737088 139.680066 207.573325 139.680066 
Q 208.891025 139.680066 210.01948 139.608325 
Q 211.147936 139.533464 212.045093 139.377505 
L 212.045093 136.551518 
L 206.893448 136.551518 
L 206.893448 134.034332 
L 220.035398 134.034332 
z
" style="fill:#ffa600;"/>
   </g>
   <g id="patch_15">
    <path clip-path="url(#pb2e424bfd6)" d="M 188.761062 112.2 
L 220.035398 112.2 
L 220.035398 115.144921 
L 208.78391 115.144921 
L 208.78391 127.3 
L 200.034369 127.3 
L 200.034369 115.144921 
L 188.761062 115.144921 
z
" style="fill:#ff0000;"/>
   </g>
   <g id="patch_16">
    <path clip-path="url(#pb2e424bfd6)" d="M 220.035398 106.788205 
Q 217.419354 109.470709 214.590559 110.827556 
Q 211.761764 112.2 208.680821 112.2 
Q 199.493147 112.2 194.127105 102.03144 
Q 188.761062 91.86288 188.761062 74.473394 
Q 188.761062 57.021524 194.127105 46.86856 
Q 199.493147 36.7 208.680821 36.7 
Q 211.761764 36.7 214.590559 38.072444 
Q 217.419354 39.429291 220.035398 42.111795 
L 220.035398 57.161888 
Q 217.395715 53.606011 214.834828 51.95284 
Q 212.273942 50.299669 209.445147 50.299669 
Q 204.370651 50.299669 201.46306 56.740797 
Q 198.563348 63.166329 198.563348 74.473394 
Q 198.563348 85.733671 201.46306 92.174799 
Q 204.370651 98.600331 209.445147 98.600331 
Q 212.273942 98.600331 214.834828 96.94716 
Q 217.395715 95.278393 220.035398 91.722516 
z
" style="fill:#0000ff;"/>
   </g>
   <g id="patch_17">
    <path clip-path="url(#pb2e424bfd6)" d="M 252.955752 154.252923 
Q 250.339708 155.862425 247.510913 156.676534 
Q 244.682118 157.5 241.601175 157.5 
Q 232.413501 157.5 227.047459 151.398864 
Q 221.681416 145.297728 221.681416 134.864036 
Q 221.681416 124.392915 227.047459 118.301136 
Q 232.413501 112.2 241.601175 112.2 
Q 244.682118 112.2 247.510913 113.023466 
Q 250.339708 113.837575 252.955752 115.447077 
L 252.955752 124.477133 
Q 250.316069 122.343607 247.755182 121.351704 
Q 245.194296 120.359802 242.365501 120.359802 
Q 237.291005 120.359802 234.383414 124.224478 
Q 231.483702 128.079798 231.483702 134.864036 
Q 231.483702 141.620202 234.383414 145.484879 
Q 237.291005 149.340198 242.365501 149.340198 
Q 245.194296 149.340198 247.755182 148.348296 
Q 250.316069 147.347036 252.955752 145.21351 
z
" style="fill:#0000ff;"/>
   </g>
   <g id="patch_18">
    <path clip-path="url(#pb2e424bfd6)" d="M 243.345176 98.446249 
L 231.317569 98.446249 
L 229.418473 112.2 
L 221.681416 112.2 
L 232.730701 36.7 
L 241.906467 36.7 
L 252.955752 112.2 
L 245.225089 112.2 
z
M 233.235848 84.433605 
L 241.407715 84.433605 
L 237.328175 54.401886 
z
" style="fill:#008000;"/>
   </g>
   <g id="patch_19">
    <path clip-path="url(#pb2e424bfd6)" d="M 276.26553 154.74925 
L 264.237923 154.74925 
L 262.338827 157.5 
L 254.60177 157.5 
L 265.651055 142.4 
L 274.826821 142.4 
L 285.876106 157.5 
L 278.145443 157.5 
z
M 266.156202 151.946721 
L 274.328069 151.946721 
L 270.248529 145.940377 
z
" style="fill:#008000;"/>
   </g>
   <g id="patch_20">
    <path clip-path="url(#pb2e424bfd6)" d="M 285.876106 141.033795 
Q 282.722038 141.716897 279.329663 142.060008 
Q 275.937288 142.4 272.320623 142.4 
Q 264.148082 142.4 259.374926 140.366288 
Q 254.60177 138.332576 254.60177 134.854679 
Q 254.60177 131.336232 259.459035 129.318116 
Q 264.323308 127.3 272.78322 127.3 
Q 276.042423 127.3 279.028274 127.574489 
Q 282.021134 127.845858 284.670551 128.382359 
L 284.670551 131.392378 
Q 281.937026 130.703037 279.231536 130.363045 
Q 276.526047 130.019934 273.806539 130.019934 
Q 268.774049 130.019934 266.047532 131.273848 
Q 263.321016 132.524644 263.321016 134.854679 
Q 263.321016 137.16288 265.949406 138.423032 
Q 268.577796 139.680066 273.414033 139.680066 
Q 274.731733 139.680066 275.860188 139.608325 
Q 276.988644 139.533464 277.885801 139.377505 
L 277.885801 136.551518 
L 272.734156 136.551518 
L 272.734156 134.034332 
L 285.876106 134.034332 
z
" style="fill:#ffa600;"/>
   </g>
   <g id="patch_21">
    <path clip-path="url(#pb2e424bfd6)" d="M 254.60177 97.1 
L 285.876106 97.1 
L 285.876106 102.989841 
L 274.624618 102.989841 
L 274.624618 127.3 
L 265.875077 127.3 
L 265.875077 102.989841 
L 254.60177 102.989841 
z
" style="fill:#ff0000;"/>
   </g>
   <g id="patch_22">
    <path clip-path="url(#pb2e424bfd6)" d="M 285.876106 92.770564 
Q 283.260062 94.916567 280.431267 96.002045 
Q 277.602472 97.1 274.521529 97.1 
Q 265.333855 97.1 259.967812 88.965152 
Q 254.60177 80.830304 254.60177 66.918715 
Q 254.60177 52.95722 259.967812 44.834848 
Q 265.333855 36.7 274.521529 36.7 
Q 277.602472 36.7 280.431267 37.797955 
Q 283.260062 38.883433 285.876106 41.029436 
L 285.876106 53.06951 
Q 283.236423 50.224809 280.675536 48.902272 
Q 278.11465 47.579736 275.285855 47.579736 
Q 270.211359 47.579736 267.303768 52.732638 
Q 264.404056 57.873063 264.404056 66.918715 
Q 264.404056 75.926937 267.303768 81.079839 
Q 270.211359 86.220264 275.285855 86.220264 
Q 278.11465 86.220264 280.675536 84.897728 
Q 283.236423 83.562714 285.876106 80.718013 
z
" style="fill:#0000ff;"/>
   </g>
   <g id="patch_23">
    <path clip-path="url(#pb2e424bfd6)" d="M 318.79646 148.841128 
Q 316.180416 153.133134 313.351621 155.30409 
Q 310.522826 157.5 307.441883 157.5 
Q 298.254209 157.5 292.888166 141.230304 
Q 287.522124 124.960607 287.522124 97.13743 
Q 287.522124 69.214439 292.888166 52.969696 
Q 298.254209 36.7 307.441883 36.7 
Q 310.522826 36.7 313.351621 38.89591 
Q 316.180416 41.066866 318.79646 45.358872 
L 318.79646 69.439021 
Q 316.156777 63.749618 313.59589 61.104545 
Q 311.035004 58.459471 308.206209 58.459471 
Q 303.131713 58.459471 300.224122 68.765276 
Q 297.32441 79.046127 297.32441 97.13743 
Q 297.32441 115.153873 300.224122 125.459678 
Q 303.131713 135.740529 308.206209 135.740529 
Q 311.035004 135.740529 313.59589 133.095455 
Q 316.156777 130.425429 318.79646 124.736026 
z
" style="fill:#0000ff;"/>
   </g>
   <g id="patch_24">
    <path clip-path="url(#pb2e424bfd6)" d="M 342.106238 154.74925 
L 330.078631 154.74925 
L 328.179535 157.5 
L 320.442478 157.5 
L 331.491763 142.4 
L 340.667529 142.4 
L 351.716814 157.5 
L 343.986151 157.5 
z
M 331.99691 151.946721 
L 340.168777 151.946721 
L 336.089237 145.940377 
z
" style="fill:#008000;"/>
   </g>
   <g id="patch_25">
    <path clip-path="url(#pb2e424bfd6)" d="M 351.716814 141.033795 
Q 348.562746 141.716897 345.170371 142.060008 
Q 341.777996 142.4 338.161331 142.4 
Q 329.98879 142.4 325.215634 140.366288 
Q 320.442478 138.332576 320.442478 134.854679 
Q 320.442478 131.336232 325.299743 129.318116 
Q 330.164016 127.3 338.623928 127.3 
Q 341.883131 127.3 344.868982 127.574489 
Q 347.861842 127.845858 350.511259 128.382359 
L 350.511259 131.392378 
Q 347.777734 130.703037 345.072244 130.363045 
Q 342.366755 130.019934 339.647247 130.019934 
Q 334.614757 130.019934 331.88824 131.273848 
Q 329.161724 132.524644 329.161724 134.854679 
Q 329.161724 137.16288 331.790114 138.423032 
Q 334.418504 139.680066 339.254741 139.680066 
Q 340.572441 139.680066 341.700896 139.608325 
Q 342.829351 139.533464 343.726509 139.377505 
L 343.726509 136.551518 
L 338.574864 136.551518 
L 338.574864 134.034332 
L 351.716814 134.034332 
z
" style="fill:#ffa600;"/>
   </g>
   <g id="patch_26">
    <path clip-path="url(#pb2e424bfd6)" d="M 351.716814 119.723487 
Q 349.10077 123.478992 346.271975 125.378579 
Q 343.44318 127.3 340.362237 127.3 
Q 331.174563 127.3 325.80852 113.064016 
Q 320.442478 98.828031 320.442478 74.482751 
Q 320.442478 50.050134 325.80852 35.835984 
Q 331.174563 21.6 340.362237 21.6 
Q 343.44318 21.6 346.271975 23.521421 
Q 349.10077 25.421008 351.716814 29.176513 
L 351.716814 50.246643 
Q 349.077131 45.268416 346.516244 42.953976 
Q 343.955358 40.639537 341.126563 40.639537 
Q 336.052067 40.639537 333.144476 49.657116 
Q 330.244764 58.652861 330.244764 74.482751 
Q 330.244764 90.247139 333.144476 99.264718 
Q 336.052067 108.260463 341.126563 108.260463 
Q 343.955358 108.260463 346.516244 105.946024 
Q 349.077131 103.60975 351.716814 98.631522 
z
" style="fill:#0000ff;"/>
   </g>
   <g id="patch_27">
    <path clip-path="url(#pb2e424bfd6)" d="M 384.637168 155.335282 
Q 382.021124 156.408283 379.192329 156.951023 
Q 376.363534 157.5 373.282591 157.5 
Q 364.094917 157.5 358.728874 153.432576 
Q 353.362832 149.365152 353.362832 142.409358 
Q 353.362832 135.42861 358.728874 131.367424 
Q 364.094917 127.3 373.282591 127.3 
Q 376.363534 127.3 379.192329 127.848977 
Q 382.021124 128.391717 384.637168 129.464718 
L 384.637168 135.484755 
Q 381.997485 134.062404 379.436598 133.401136 
Q 376.875712 132.739868 374.046917 132.739868 
Q 368.972421 132.739868 366.06483 135.316319 
Q 363.165118 137.886532 363.165118 142.409358 
Q 363.165118 146.913468 366.06483 149.489919 
Q 368.972421 152.060132 374.046917 152.060132 
Q 376.875712 152.060132 379.436598 151.398864 
Q 381.997485 150.731357 384.637168 149.309006 
z
" style="fill:#0000ff;"/>
   </g>
   <g id="patch_28">
    <path clip-path="url(#pb2e424bfd6)" d="M 375.026592 108.044749 
L 362.998985 108.044749 
L 361.099889 127.3 
L 353.362832 127.3 
L 364.412117 21.6 
L 373.587883 21.6 
L 384.637168 127.3 
L 376.906505 127.3 
z
M 364.917264 88.427047 
L 373.089131 88.427047 
L 369.009591 46.38264 
z
" style="fill:#008000;"/>
   </g>
   <g id="patch_29">
    <path clip-path="url(#pb2e424bfd6)" d="M 417.557522 147.758769 
Q 414.941478 152.587275 412.112683 155.029601 
Q 409.283888 157.5 406.202945 157.5 
Q 397.015271 157.5 391.649228 139.196592 
Q 386.283186 120.893183 386.283186 89.592109 
Q 386.283186 58.178744 391.649228 39.903408 
Q 397.015271 21.6 406.202945 21.6 
Q 409.283888 21.6 412.112683 24.070399 
Q 414.941478 26.512725 417.557522 31.341231 
L 417.557522 58.431398 
Q 414.917839 52.03082 412.356952 49.055113 
Q 409.796066 46.079405 406.967271 46.079405 
Q 401.892775 46.079405 398.985184 57.673435 
Q 396.085472 69.239393 396.085472 89.592109 
Q 396.085472 109.860607 398.985184 121.454637 
Q 401.892775 133.020595 406.967271 133.020595 
Q 409.796066 133.020595 412.356952 130.044887 
Q 414.917839 127.041107 417.557522 120.640529 
z
" style="fill:#0000ff;"/>
   </g>
   <g id="patch_30">
    <path clip-path="url(#pb2e424bfd6)" d="M 450.477876 147.758769 
Q 447.861832 152.587275 445.033037 155.029601 
Q 442.204242 157.5 439.123298 157.5 
Q 429.935625 157.5 424.569582 139.196592 
Q 419.20354 120.893183 419.20354 89.592109 
Q 419.20354 58.178744 424.569582 39.903408 
Q 429.935625 21.6 439.123298 21.6 
Q 442.204242 21.6 445.033037 24.070399 
Q 447.861832 26.512725 450.477876 31.341231 
L 450.477876 58.431398 
Q 447.838193 52.03082 445.277306 49.055113 
Q 442.71642 46.079405 439.887625 46.079405 
Q 434.813129 46.079405 431.905538 57.673435 
Q 429.005826 69.239393 429.005826 89.592109 
Q 429.005826 109.860607 431.905538 121.454637 
Q 434.813129 133.020595 439.887625 133.020595 
Q 442.71642 133.020595 445.277306 130.044887 
Q 447.838193 127.041107 450.477876 120.640529 
z
" style="fill:#0000ff;"/>
   </g>
   <g id="patch_31">
    <path clip-path="url(#pb2e424bfd6)" d="M 483.39823 156.417641 
Q 480.782186 156.954142 477.953391 157.225511 
Q 475.124596 157.5 472.043652 157.5 
Q 462.855979 157.5 457.489936 155.466288 
Q 452.123894 153.432576 452.123894 149.954679 
Q 452.123894 146.464305 457.489936 144.433712 
Q 462.855979 142.4 472.043652 142.4 
Q 475.124596 142.4 477.953391 142.674489 
Q 480.782186 142.945858 483.39823 143.482359 
L 483.39823 146.492378 
Q 480.758547 145.781202 478.19766 145.450568 
Q 475.636773 145.119934 472.807979 145.119934 
Q 467.733483 145.119934 464.825892 146.408159 
Q 461.92618 147.693266 461.92618 149.954679 
Q 461.92618 152.206734 464.825892 153.49496 
Q 467.733483 154.780066 472.807979 154.780066 
Q 475.636773 154.780066 478.19766 154.449432 
Q 480.758547 154.115679 483.39823 153.404503 
z
" style="fill:#0000ff;"/>
   </g>
   <g id="patch_32">
    <path clip-path="url(#pb2e424bfd6)" d="M 483.39823 141.033795 
Q 480.244162 141.716897 476.851787 142.060008 
Q 473.459411 142.4 469.842747 142.4 
Q 461.670206 142.4 456.89705 140.366288 
Q 452.123894 138.332576 452.123894 134.854679 
Q 452.123894 131.336232 456.981158 129.318116 
Q 461.845432 127.3 470.305343 127.3 
Q 473.564547 127.3 476.550398 127.574489 
Q 479.543258 127.845858 482.192675 128.382359 
L 482.192675 131.392378 
Q 479.45915 130.703037 476.75366 130.363045 
Q 474.048171 130.019934 471.328663 130.019934 
Q 466.296173 130.019934 463.569656 131.273848 
Q 460.84314 132.524644 460.84314 134.854679 
Q 460.84314 137.16288 463.471529 138.423032 
Q 466.099919 139.680066 470.936157 139.680066 
Q 472.253857 139.680066 473.382312 139.608325 
Q 474.510767 139.533464 475.407925 139.377505 
L 475.407925 136.551518 
L 470.25628 136.551518 
L 470.25628 134.034332 
L 483.39823 134.034332 
z
" style="fill:#ffa600;"/>
   </g>
   <g id="patch_33">
    <path clip-path="url(#pb2e424bfd6)" d="M 473.787654 108.044749 
L 461.760047 108.044749 
L 459.860951 127.3 
L 452.123894 127.3 
L 463.173179 21.6 
L 472.348945 21.6 
L 483.39823 127.3 
L 475.667567 127.3 
z
M 463.678326 88.427047 
L 471.850193 88.427047 
L 467.770653 46.38264 
z
" style="fill:#008000;"/>
   </g>
   <g id="patch_34">
    <path clip-path="url(#pb2e424bfd6)" d="M 516.318584 156.133795 
Q 513.164516 156.816897 509.772141 157.160008 
Q 506.379765 157.5 502.763101 157.5 
Q 494.59056 157.5 489.817404 155.466288 
Q 485.044248 153.432576 485.044248 149.954679 
Q 485.044248 146.436232 489.901512 144.418116 
Q 494.765786 142.4 503.225697 142.4 
Q 506.484901 142.4 509.470752 142.674489 
Q 512.463612 142.945858 515.113029 143.482359 
L 515.113029 146.492378 
Q 512.379504 145.803037 509.674014 145.463045 
Q 506.968525 145.119934 504.249017 145.119934 
Q 499.216527 145.119934 496.49001 146.373848 
Q 493.763493 147.624644 493.763493 149.954679 
Q 493.763493 152.26288 496.391883 153.523032 
Q 499.020273 154.780066 503.856511 154.780066 
Q 505.174211 154.780066 506.302666 154.708325 
Q 507.431121 154.633464 508.328279 154.477505 
L 508.328279 151.651518 
L 503.176634 151.651518 
L 503.176634 149.134332 
L 516.318584 149.134332 
z
" style="fill:#ffa600;"/>
   </g>
   <g id="patch_35">
    <path clip-path="url(#pb2e424bfd6)" d="M 506.708008 134.14775 
L 494.680401 134.14775 
L 492.781305 142.4 
L 485.044248 142.4 
L 496.093533 97.1 
L 505.269299 97.1 
L 516.318584 142.4 
L 508.587921 142.4 
z
M 496.59868 125.740163 
L 504.770547 125.740163 
L 500.691007 107.721132 
z
" style="fill:#008000;"/>
   </g>
   <g id="patch_36">
    <path clip-path="url(#pb2e424bfd6)" d="M 516.318584 91.688205 
Q 513.70254 94.370709 510.873745 95.727556 
Q 508.04495 97.1 504.964006 97.1 
Q 495.776333 97.1 490.41029 86.93144 
Q 485.044248 76.76288 485.044248 59.373394 
Q 485.044248 41.921524 490.41029 31.76856 
Q 495.776333 21.6 504.964006 21.6 
Q 508.04495 21.6 510.873745 22.972444 
Q 513.70254 24.329291 516.318584 27.011795 
L 516.318584 42.061888 
Q 513.678901 38.506011 511.118014 36.85284 
Q 508.557127 35.199669 505.728333 35.199669 
Q 500.653837 35.199669 497.746246 41.640797 
Q 494.846534 48.066329 494.846534 59.373394 
Q 494.846534 70.633671 497.746246 77.074799 
Q 500.653837 83.500331 505.728333 83.500331 
Q 508.557127 83.500331 511.118014 81.84716 
Q 513.678901 80.178393 516.318584 76.622516 
z
" style="fill:#0000ff;"/>
   </g>
   <g id="patch_37">
    <path clip-path="url(#pb2e424bfd6)" d="M 549.238938 147.758769 
Q 546.622894 152.587275 543.794099 155.029601 
Q 540.965304 157.5 537.88436 157.5 
Q 528.696687 157.5 523.330644 139.196592 
Q 517.964602 120.893183 517.964602 89.592109 
Q 517.964602 58.178744 523.330644 39.903408 
Q 528.696687 21.6 537.88436 21.6 
Q 540.965304 21.6 543.794099 24.070399 
Q 546.622894 26.512725 549.238938 31.341231 
L 549.238938 58.431398 
Q 546.599255 52.03082 544.038368 49.055113 
Q 541.477481 46.079405 538.648687 46.079405 
Q 533.574191 46.079405 530.6666 57.673435 
Q 527.766888 69.239393 527.766888 89.592109 
Q 527.766888 109.860607 530.6666 121.454637 
Q 533.574191 133.020595 538.648687 133.020595 
Q 541.477481 133.020595 544.038368 130.044887 
Q 546.599255 127.041107 549.238938 120.640529 
z
" style="fill:#0000ff;"/>
   </g>
   <g id="patch_38">
    <path clip-path="url(#pb2e424bfd6)" d="M 572.548716 154.74925 
L 560.521109 154.74925 
L 558.622013 157.5 
L 550.884956 157.5 
L 561.934241 142.4 
L 571.110007 142.4 
L 582.159292 157.5 
L 574.428629 157.5 
z
M 562.439387 151.946721 
L 570.611255 151.946721 
L 566.531715 145.940377 
z
" style="fill:#008000;"/>
   </g>
   <g id="patch_39">
    <path clip-path="url(#pb2e424bfd6)" d="M 550.884956 127.3 
L 582.159292 127.3 
L 582.159292 130.244921 
L 570.907804 130.244921 
L 570.907804 142.4 
L 562.158263 142.4 
L 562.158263 130.244921 
L 550.884956 130.244921 
z
" style="fill:#ff0000;"/>
   </g>
   <g id="patch_40">
    <path clip-path="url(#pb2e424bfd6)" d="M 582.159292 123.201384 
Q 579.005224 125.250692 575.612849 126.280025 
Q 572.220473 127.3 568.603809 127.3 
Q 560.431268 127.3 555.658112 121.198864 
Q 550.884956 115.097728 550.884956 104.664036 
Q 550.884956 94.108697 555.74222 88.054348 
Q 560.606494 82 569.066405 82 
Q 572.325609 82 575.31146 82.823466 
Q 578.30432 83.637575 580.953737 85.247077 
L 580.953737 94.277133 
Q 578.220212 92.20911 575.514722 91.189134 
Q 572.809233 90.159802 570.089725 90.159802 
Q 565.057235 90.159802 562.330718 93.921545 
Q 559.604201 97.673931 559.604201 104.664036 
Q 559.604201 111.588639 562.232591 115.369097 
Q 564.860981 119.140198 569.697219 119.140198 
Q 571.014919 119.140198 572.143374 118.924974 
Q 573.271829 118.700392 574.168986 118.232514 
L 574.168986 109.754555 
L 569.017342 109.754555 
L 569.017342 102.202995 
L 582.159292 102.202995 
z
" style="fill:#ffa600;"/>
   </g>
   <g id="patch_41">
    <path clip-path="url(#pb2e424bfd6)" d="M 582.159292 77.670564 
Q 579.543248 79.816567 576.714453 80.902045 
Q 573.885658 82 570.804714 82 
Q 561.617041 82 556.250998 73.865152 
Q 550.884956 65.730304 550.884956 51.818715 
Q 550.884956 37.85722 556.250998 29.734848 
Q 561.617041 21.6 570.804714 21.6 
Q 573.885658 21.6 576.714453 22.697955 
Q 579.543248 23.783433 582.159292 25.929436 
L 582.159292 37.96951 
Q 579.519609 35.124809 576.958722 33.802272 
Q 574.397835 32.479736 571.569041 32.479736 
Q 566.494545 32.479736 563.586954 37.632638 
Q 560.687242 42.773063 560.687242 51.818715 
Q 560.687242 60.826937 563.586954 65.979839 
Q 566.494545 71.120264 571.569041 71.120264 
Q 574.397835 71.120264 576.958722 69.797728 
Q 579.519609 68.462714 582.159292 65.618013 
z
" style="fill:#0000ff;"/>
   </g>
   <g id="patch_42">
    <path clip-path="url(#pb2e424bfd6)" d="M 615.079646 156.133795 
Q 611.925578 156.816897 608.533203 157.160008 
Q 605.140827 157.5 601.524163 157.5 
Q 593.351622 157.5 588.578466 155.466288 
Q 583.80531 153.432576 583.80531 149.954679 
Q 583.80531 146.436232 588.662574 144.418116 
Q 593.526848 142.4 601.986759 142.4 
Q 605.245963 142.4 608.231814 142.674489 
Q 611.224674 142.945858 613.874091 143.482359 
L 613.874091 146.492378 
Q 611.140566 145.803037 608.435076 145.463045 
Q 605.729587 145.119934 603.010079 145.119934 
Q 597.977589 145.119934 595.251072 146.373848 
Q 592.524555 147.624644 592.524555 149.954679 
Q 592.524555 152.26288 595.152945 153.523032 
Q 597.781335 154.780066 602.617573 154.780066 
Q 603.935272 154.780066 605.063728 154.708325 
Q 606.192183 154.633464 607.08934 154.477505 
L 607.08934 151.651518 
L 601.937696 151.651518 
L 601.937696 149.134332 
L 615.079646 149.134332 
z
" style="fill:#ffa600;"/>
   </g>
   <g id="patch_43">
    <path clip-path="url(#pb2e424bfd6)" d="M 583.80531 112.2 
L 615.079646 112.2 
L 615.079646 118.089841 
L 603.828158 118.089841 
L 603.828158 142.4 
L 595.078617 142.4 
L 595.078617 118.089841 
L 583.80531 118.089841 
z
" style="fill:#ff0000;"/>
   </g>
   <g id="patch_44">
    <path clip-path="url(#pb2e424bfd6)" d="M 605.46907 103.94775 
L 593.441463 103.94775 
L 591.542367 112.2 
L 583.80531 112.2 
L 594.854595 66.9 
L 604.030361 66.9 
L 615.079646 112.2 
L 607.348983 112.2 
z
M 595.359741 95.540163 
L 603.531609 95.540163 
L 599.452069 77.521132 
z
" style="fill:#008000;"/>
   </g>
   <g id="patch_45">
    <path clip-path="url(#pb2e424bfd6)" d="M 615.079646 63.652923 
Q 612.463602 65.262425 609.634807 66.076534 
Q 606.806012 66.9 603.725068 66.9 
Q 594.537395 66.9 589.171352 60.798864 
Q 583.80531 54.697728 583.80531 44.264036 
Q 583.80531 33.792915 589.171352 27.701136 
Q 594.537395 21.6 603.725068 21.6 
Q 606.806012 21.6 609.634807 22.423466 
Q 612.463602 23.237575 615.079646 24.847077 
L 615.079646 33.877133 
Q 612.439963 31.743607 609.879076 30.751704 
Q 607.318189 29.759802 604.489395 29.759802 
Q 599.414899 29.759802 596.507308 33.624478 
Q 593.607596 37.479798 593.607596 44.264036 
Q 593.607596 51.020202 596.507308 54.884879 
Q 599.414899 58.740198 604.489395 58.740198 
Q 607.318189 58.740198 609.879076 57.748296 
Q 612.439963 56.747036 615.079646 54.61351 
z
" style="fill:#0000ff;"/>
   </g>
   <g id="patch_46">
    <path clip-path="url(#pb2e424bfd6)" d="M 648 155.335282 
Q 645.383956 156.408283 642.555161 156.951023 
Q 639.726366 157.5 636.645422 157.5 
Q 627.457749 157.5 622.091706 153.432576 
Q 616.725664 149.365152 616.725664 142.409358 
Q 616.725664 135.42861 622.091706 131.367424 
Q 627.457749 127.3 636.645422 127.3 
Q 639.726366 127.3 642.555161 127.848977 
Q 645.383956 128.391717 648 129.464718 
L 648 135.484755 
Q 645.360317 134.062404 642.79943 133.401136 
Q 640.238543 132.739868 637.409749 132.739868 
Q 632.335253 132.739868 629.427662 135.316319 
Q 626.52795 137.886532 626.52795 142.409358 
Q 626.52795 146.913468 629.427662 149.489919 
Q 632.335253 152.060132 637.409749 152.060132 
Q 640.238543 152.060132 642.79943 151.398864 
Q 645.360317 150.731357 648 149.309006 
z
" style="fill:#0000ff;"/>
   </g>
   <g id="patch_47">
    <path clip-path="url(#pb2e424bfd6)" d="M 616.725664 82 
L 648 82 
L 648 90.834762 
L 636.748512 90.834762 
L 636.748512 127.3 
L 627.998971 127.3 
L 627.998971 90.834762 
L 616.725664 90.834762 
z
" style="fill:#ff0000;"/>
   </g>
   <g id="patch_48">
    <path clip-path="url(#pb2e424bfd6)" d="M 638.389424 70.997 
L 626.361817 70.997 
L 624.462721 82 
L 616.725664 82 
L 627.774949 21.6 
L 636.950715 21.6 
L 648 82 
L 640.269337 82 
z
M 628.280095 59.786884 
L 636.451963 59.786884 
L 632.372423 35.761509 
z
" style="fill:#008000;"/>
   </g>
  </g>
 </g>
 <defs>
  <clipPath id="pb2e424bfd6">
   <rect height="135.9" width="558" x="90" y="21.6"/>
  </clipPath>
 </defs>
</svg>
