<?xml version="1.0" encoding="utf-8" standalone="no"?>
<!DOCTYPE svg PUBLIC "-//W3C//DTD SVG 1.1//EN"
  "http://www.w3.org/Graphics/SVG/1.1/DTD/svg11.dtd">
<!-- Created with matplotlib (https://matplotlib.org/) -->
<svg height="180pt" version="1.1" viewBox="0 0 720 180" width="720pt" xmlns="http://www.w3.org/2000/svg" xmlns:xlink="http://www.w3.org/1999/xlink">
 <metadata>
  <rdf:RDF xmlns:cc="http://creativecommons.org/ns#" xmlns:dc="http://purl.org/dc/elements/1.1/" xmlns:rdf="http://www.w3.org/1999/02/22-rdf-syntax-ns#">
   <cc:Work>
    <dc:type rdf:resource="http://purl.org/dc/dcmitype/StillImage"/>
    <dc:date>2021-08-04T23:33:00.507409</dc:date>
    <dc:format>image/svg+xml</dc:format>
    <dc:creator>
     <cc:Agent>
      <dc:title>Matplotlib v3.3.2, https://matplotlib.org/</dc:title>
     </cc:Agent>
    </dc:creator>
   </cc:Work>
  </rdf:RDF>
 </metadata>
 <defs>
  <style type="text/css">*{stroke-linecap:butt;stroke-linejoin:round;}</style>
 </defs>
 <g id="figure_1">
  <g id="patch_1">
   <path d="M 0 180 
L 720 180 
L 720 0 
L 0 0 
z
" style="fill:none;"/>
  </g>
  <g id="axes_1">
   <g id="line2d_1">
    <path clip-path="url(#pd21b7a5933)" d="M 90 157.5 
L 648 157.5 
" style="fill:none;stroke:#000000;stroke-linecap:square;stroke-width:0.5;"/>
   </g>
   <g id="patch_2">
    <path clip-path="url(#pd21b7a5933)" d="M 121.274336 156.133795 
Q 118.120268 156.816897 114.727893 157.160008 
Q 111.335518 157.5 107.718853 157.5 
Q 99.546312 157.5 94.773156 155.466288 
Q 90 153.432576 90 149.954679 
Q 90 146.436232 94.857265 144.418116 
Q 99.721538 142.4 108.18145 142.4 
Q 111.440653 142.4 114.426504 142.674489 
Q 117.419364 142.945858 120.068781 143.482359 
L 120.068781 146.492378 
Q 117.335256 145.803037 114.629766 145.463045 
Q 111.924277 145.119934 109.204769 145.119934 
Q 104.172279 145.119934 101.445762 146.373848 
Q 98.719246 147.624644 98.719246 149.954679 
Q 98.719246 152.26288 101.347636 153.523032 
Q 103.976026 154.780066 108.812263 154.780066 
Q 110.129963 154.780066 111.258418 154.708325 
Q 112.386874 154.633464 113.284031 154.477505 
L 113.284031 151.651518 
L 108.132386 151.651518 
L 108.132386 149.134332 
L 121.274336 149.134332 
z
" style="fill:#ffa600;"/>
   </g>
   <g id="patch_3">
    <path clip-path="url(#pd21b7a5933)" d="M 90 97.1 
L 121.274336 97.1 
L 121.274336 105.934762 
L 110.022848 105.934762 
L 110.022848 142.4 
L 101.273307 142.4 
L 101.273307 105.934762 
L 90 105.934762 
z
" style="fill:#ff0000;"/>
   </g>
   <g id="patch_4">
    <path clip-path="url(#pd21b7a5933)" d="M 111.66376 83.346249 
L 99.636153 83.346249 
L 97.737057 97.1 
L 90 97.1 
L 101.049285 21.6 
L 110.225051 21.6 
L 121.274336 97.1 
L 113.543673 97.1 
z
M 101.554432 69.333605 
L 109.726299 69.333605 
L 105.64676 39.301886 
z
" style="fill:#008000;"/>
   </g>
   <g id="patch_5">
    <path clip-path="url(#pd21b7a5933)" d="M 144.584114 154.74925 
L 132.556507 154.74925 
L 130.657411 157.5 
L 122.920354 157.5 
L 133.969639 142.4 
L 143.145405 142.4 
L 154.19469 157.5 
L 146.464027 157.5 
z
M 134.474786 151.946721 
L 142.646653 151.946721 
L 138.567114 145.940377 
z
" style="fill:#008000;"/>
   </g>
   <g id="patch_6">
    <path clip-path="url(#pd21b7a5933)" d="M 122.920354 127.3 
L 154.19469 127.3 
L 154.19469 130.244921 
L 142.943202 130.244921 
L 142.943202 142.4 
L 134.193661 142.4 
L 134.193661 130.244921 
L 122.920354 130.244921 
z
" style="fill:#ff0000;"/>
   </g>
   <g id="patch_7">
    <path clip-path="url(#pd21b7a5933)" d="M 154.19469 124.052923 
Q 151.578646 125.662425 148.749851 126.476534 
Q 145.921056 127.3 142.840113 127.3 
Q 133.652439 127.3 128.286397 121.198864 
Q 122.920354 115.097728 122.920354 104.664036 
Q 122.920354 94.192915 128.286397 88.101136 
Q 133.652439 82 142.840113 82 
Q 145.921056 82 148.749851 82.823466 
Q 151.578646 83.637575 154.19469 85.247077 
L 154.19469 94.277133 
Q 151.555007 92.143607 148.99412 91.151704 
Q 146.433234 90.159802 143.604439 90.159802 
Q 138.529943 90.159802 135.622352 94.024478 
Q 132.72264 97.879798 132.72264 104.664036 
Q 132.72264 111.420202 135.622352 115.284879 
Q 138.529943 119.140198 143.604439 119.140198 
Q 146.433234 119.140198 148.99412 118.148296 
Q 151.555007 117.147036 154.19469 115.01351 
z
" style="fill:#0000ff;"/>
   </g>
   <g id="patch_8">
    <path clip-path="url(#pd21b7a5933)" d="M 154.19469 76.535179 
Q 151.040622 79.267589 147.648247 80.640033 
Q 144.255872 82 140.639207 82 
Q 132.466666 82 127.69351 73.865152 
Q 122.920354 65.730304 122.920354 51.818715 
Q 122.920354 37.744929 127.777619 29.672464 
Q 132.641892 21.6 141.101804 21.6 
Q 144.361007 21.6 147.346858 22.697955 
Q 150.339718 23.783433 152.989135 25.929436 
L 152.989135 37.96951 
Q 150.25561 35.212146 147.55012 33.852179 
Q 144.844631 32.479736 142.125123 32.479736 
Q 137.092633 32.479736 134.366116 37.495394 
Q 131.6396 42.498575 131.6396 51.818715 
Q 131.6396 61.051518 134.26799 66.09213 
Q 136.89638 71.120264 141.732617 71.120264 
Q 143.050317 71.120264 144.178772 70.833299 
Q 145.307228 70.533857 146.204385 69.910019 
L 146.204385 58.606073 
L 141.05274 58.606073 
L 141.05274 48.537327 
L 154.19469 48.537327 
z
" style="fill:#ffa600;"/>
   </g>
   <g id="patch_9">
    <path clip-path="url(#pd21b7a5933)" d="M 187.115044 154.767589 
Q 183.960976 156.133795 180.568601 156.820017 
Q 177.176226 157.5 173.559561 157.5 
Q 165.38702 157.5 160.613864 153.432576 
Q 155.840708 149.365152 155.840708 142.409358 
Q 155.840708 135.372464 160.697973 131.336232 
Q 165.562246 127.3 174.022158 127.3 
Q 177.281361 127.3 180.267212 127.848977 
Q 183.260072 128.391717 185.909489 129.464718 
L 185.909489 135.484755 
Q 183.175964 134.106073 180.470474 133.42609 
Q 177.764985 132.739868 175.045477 132.739868 
Q 170.012987 132.739868 167.28647 135.247697 
Q 164.559954 137.749287 164.559954 142.409358 
Q 164.559954 147.025759 167.188344 149.546065 
Q 169.816734 152.060132 174.652971 152.060132 
Q 175.970671 152.060132 177.099126 151.916649 
Q 178.227582 151.766928 179.124739 151.455009 
L 179.124739 145.803037 
L 173.973094 145.803037 
L 173.973094 140.768663 
L 187.115044 140.768663 
z
" style="fill:#ffa600;"/>
   </g>
   <g id="patch_10">
    <path clip-path="url(#pd21b7a5933)" d="M 177.504468 119.04775 
L 165.476861 119.04775 
L 163.577765 127.3 
L 155.840708 127.3 
L 166.889993 82 
L 176.065759 82 
L 187.115044 127.3 
L 179.384381 127.3 
z
M 167.39514 110.640163 
L 175.567007 110.640163 
L 171.487467 92.621132 
z
" style="fill:#008000;"/>
   </g>
   <g id="patch_11">
    <path clip-path="url(#pd21b7a5933)" d="M 187.115044 77.670564 
Q 184.499 79.816567 181.670205 80.902045 
Q 178.84141 82 175.760467 82 
Q 166.572793 82 161.206751 73.865152 
Q 155.840708 65.730304 155.840708 51.818715 
Q 155.840708 37.85722 161.206751 29.734848 
Q 166.572793 21.6 175.760467 21.6 
Q 178.84141 21.6 181.670205 22.697955 
Q 184.499 23.783433 187.115044 25.929436 
L 187.115044 37.96951 
Q 184.475361 35.124809 181.914474 33.802272 
Q 179.353588 32.479736 176.524793 32.479736 
Q 171.450297 32.479736 168.542706 37.632638 
Q 165.642994 42.773063 165.642994 51.818715 
Q 165.642994 60.826937 168.542706 65.979839 
Q 171.450297 71.120264 176.524793 71.120264 
Q 179.353588 71.120264 181.914474 69.797728 
Q 184.475361 68.462714 187.115044 65.618013 
z
" style="fill:#0000ff;"/>
   </g>
   <g id="patch_12">
    <path clip-path="url(#pd21b7a5933)" d="M 188.761062 21.6 
L 220.035398 21.6 
L 220.035398 48.104286 
L 208.78391 48.104286 
L 208.78391 157.5 
L 200.034369 157.5 
L 200.034369 48.104286 
L 188.761062 48.104286 
z
" style="fill:#ff0000;"/>
   </g>
   <g id="patch_13">
    <path clip-path="url(#pd21b7a5933)" d="M 243.345176 132.743249 
L 231.317569 132.743249 
L 229.418473 157.5 
L 221.681416 157.5 
L 232.730701 21.6 
L 241.906467 21.6 
L 252.955752 157.5 
L 245.225089 157.5 
z
M 233.235848 107.520489 
L 241.407715 107.520489 
L 237.328175 53.463395 
z
" style="fill:#008000;"/>
   </g>
   <g id="patch_14">
    <path clip-path="url(#pd21b7a5933)" d="M 276.26553 154.74925 
L 264.237923 154.74925 
L 262.338827 157.5 
L 254.60177 157.5 
L 265.651055 142.4 
L 274.826821 142.4 
L 285.876106 157.5 
L 278.145443 157.5 
z
M 266.156202 151.946721 
L 274.328069 151.946721 
L 270.248529 145.940377 
z
" style="fill:#008000;"/>
   </g>
   <g id="patch_15">
    <path clip-path="url(#pd21b7a5933)" d="M 285.876106 131.470357 
Q 282.722038 136.935179 279.329663 139.680066 
Q 275.937288 142.4 272.320623 142.4 
Q 264.148082 142.4 259.374926 126.130304 
Q 254.60177 109.860607 254.60177 82.03743 
Q 254.60177 53.889857 259.459035 37.744929 
Q 264.323308 21.6 272.78322 21.6 
Q 276.042423 21.6 279.028274 23.79591 
Q 282.021134 25.966866 284.670551 30.258872 
L 284.670551 54.339021 
Q 281.937026 48.824293 279.231536 46.104359 
Q 276.526047 43.359471 273.806539 43.359471 
Q 268.774049 43.359471 266.047532 53.390787 
Q 263.321016 63.397149 263.321016 82.03743 
Q 263.321016 100.503037 265.949406 110.584259 
Q 268.577796 120.640529 273.414033 120.640529 
Q 274.731733 120.640529 275.860188 120.066598 
Q 276.988644 119.467713 277.885801 118.220037 
L 277.885801 95.612146 
L 272.734156 95.612146 
L 272.734156 75.474654 
L 285.876106 75.474654 
z
" style="fill:#ffa600;"/>
   </g>
   <g id="patch_16">
    <path clip-path="url(#pd21b7a5933)" d="M 287.522124 21.6 
L 318.79646 21.6 
L 318.79646 48.104286 
L 307.544972 48.104286 
L 307.544972 157.5 
L 298.795431 157.5 
L 298.795431 48.104286 
L 287.522124 48.104286 
z
" style="fill:#ff0000;"/>
   </g>
   <g id="patch_17">
    <path clip-path="url(#pd21b7a5933)" d="M 351.716814 156.133795 
Q 348.562746 156.816897 345.170371 157.160008 
Q 341.777996 157.5 338.161331 157.5 
Q 329.98879 157.5 325.215634 155.466288 
Q 320.442478 153.432576 320.442478 149.954679 
Q 320.442478 146.436232 325.299743 144.418116 
Q 330.164016 142.4 338.623928 142.4 
Q 341.883131 142.4 344.868982 142.674489 
Q 347.861842 142.945858 350.511259 143.482359 
L 350.511259 146.492378 
Q 347.777734 145.803037 345.072244 145.463045 
Q 342.366755 145.119934 339.647247 145.119934 
Q 334.614757 145.119934 331.88824 146.373848 
Q 329.161724 147.624644 329.161724 149.954679 
Q 329.161724 152.26288 331.790114 153.523032 
Q 334.418504 154.780066 339.254741 154.780066 
Q 340.572441 154.780066 341.700896 154.708325 
Q 342.829351 154.633464 343.726509 154.477505 
L 343.726509 151.651518 
L 338.574864 151.651518 
L 338.574864 149.134332 
L 351.716814 149.134332 
z
" style="fill:#ffa600;"/>
   </g>
   <g id="patch_18">
    <path clip-path="url(#pd21b7a5933)" d="M 342.106238 120.393999 
L 330.078631 120.393999 
L 328.179535 142.4 
L 320.442478 142.4 
L 331.491763 21.6 
L 340.667529 21.6 
L 351.716814 142.4 
L 343.986151 142.4 
z
M 331.99691 97.973768 
L 340.168777 97.973768 
L 336.089237 49.923018 
z
" style="fill:#008000;"/>
   </g>
   <g id="patch_19">
    <path clip-path="url(#pd21b7a5933)" d="M 375.026592 149.24775 
L 362.998985 149.24775 
L 361.099889 157.5 
L 353.362832 157.5 
L 364.412117 112.2 
L 373.587883 112.2 
L 384.637168 157.5 
L 376.906505 157.5 
z
M 364.917264 140.840163 
L 373.089131 140.840163 
L 369.009591 122.821132 
z
" style="fill:#008000;"/>
   </g>
   <g id="patch_20">
    <path clip-path="url(#pd21b7a5933)" d="M 384.637168 104.002768 
Q 381.4831 108.101384 378.090725 110.16005 
Q 374.698349 112.2 371.081685 112.2 
Q 362.909144 112.2 358.135988 99.997728 
Q 353.362832 87.795455 353.362832 66.928073 
Q 353.362832 45.817393 358.220097 33.708697 
Q 363.08437 21.6 371.544282 21.6 
Q 374.803485 21.6 377.789336 23.246932 
Q 380.782196 24.87515 383.431613 28.094154 
L 383.431613 46.154266 
Q 380.698088 42.018219 377.992598 39.978269 
Q 375.287109 37.919603 372.567601 37.919603 
Q 367.535111 37.919603 364.808594 45.44309 
Q 362.082078 52.947862 362.082078 66.928073 
Q 362.082078 80.777277 364.710468 88.338195 
Q 367.338858 95.880397 372.175095 95.880397 
Q 373.492795 95.880397 374.62125 95.449948 
Q 375.749705 95.000785 376.646863 94.065028 
L 376.646863 77.10911 
L 371.495218 77.10911 
L 371.495218 62.00599 
L 384.637168 62.00599 
z
" style="fill:#ffa600;"/>
   </g>
   <g id="patch_21">
    <path clip-path="url(#pd21b7a5933)" d="M 386.283186 21.6 
L 417.557522 21.6 
L 417.557522 48.104286 
L 406.306034 48.104286 
L 406.306034 157.5 
L 397.556493 157.5 
L 397.556493 48.104286 
L 386.283186 48.104286 
z
" style="fill:#ff0000;"/>
   </g>
   <g id="patch_22">
    <path clip-path="url(#pd21b7a5933)" d="M 450.477876 154.767589 
Q 447.323808 156.133795 443.931433 156.820017 
Q 440.539057 157.5 436.922393 157.5 
Q 428.749852 157.5 423.976696 153.432576 
Q 419.20354 149.365152 419.20354 142.409358 
Q 419.20354 135.372464 424.060805 131.336232 
Q 428.925078 127.3 437.384989 127.3 
Q 440.644193 127.3 443.630044 127.848977 
Q 446.622904 128.391717 449.272321 129.464718 
L 449.272321 135.484755 
Q 446.538796 134.106073 443.833306 133.42609 
Q 441.127817 132.739868 438.408309 132.739868 
Q 433.375819 132.739868 430.649302 135.247697 
Q 427.922786 137.749287 427.922786 142.409358 
Q 427.922786 147.025759 430.551176 149.546065 
Q 433.179565 152.060132 438.015803 152.060132 
Q 439.333503 152.060132 440.461958 151.916649 
Q 441.590413 151.766928 442.487571 151.455009 
L 442.487571 145.803037 
L 437.335926 145.803037 
L 437.335926 140.768663 
L 450.477876 140.768663 
z
" style="fill:#ffa600;"/>
   </g>
   <g id="patch_23">
    <path clip-path="url(#pd21b7a5933)" d="M 440.8673 108.044749 
L 428.839693 108.044749 
L 426.940597 127.3 
L 419.20354 127.3 
L 430.252825 21.6 
L 439.428591 21.6 
L 450.477876 127.3 
L 442.747213 127.3 
z
M 430.757972 88.427047 
L 438.929839 88.427047 
L 434.850299 46.38264 
z
" style="fill:#008000;"/>
   </g>
   <g id="patch_24">
    <path clip-path="url(#pd21b7a5933)" d="M 483.39823 156.133795 
Q 480.244162 156.816897 476.851787 157.160008 
Q 473.459411 157.5 469.842747 157.5 
Q 461.670206 157.5 456.89705 155.466288 
Q 452.123894 153.432576 452.123894 149.954679 
Q 452.123894 146.436232 456.981158 144.418116 
Q 461.845432 142.4 470.305343 142.4 
Q 473.564547 142.4 476.550398 142.674489 
Q 479.543258 142.945858 482.192675 143.482359 
L 482.192675 146.492378 
Q 479.45915 145.803037 476.75366 145.463045 
Q 474.048171 145.119934 471.328663 145.119934 
Q 466.296173 145.119934 463.569656 146.373848 
Q 460.84314 147.624644 460.84314 149.954679 
Q 460.84314 152.26288 463.471529 153.523032 
Q 466.099919 154.780066 470.936157 154.780066 
Q 472.253857 154.780066 473.382312 154.708325 
Q 474.510767 154.633464 475.407925 154.477505 
L 475.407925 151.651518 
L 470.25628 151.651518 
L 470.25628 149.134332 
L 483.39823 149.134332 
z
" style="fill:#ffa600;"/>
   </g>
   <g id="patch_25">
    <path clip-path="url(#pd21b7a5933)" d="M 473.787654 120.393999 
L 461.760047 120.393999 
L 459.860951 142.4 
L 452.123894 142.4 
L 463.173179 21.6 
L 472.348945 21.6 
L 483.39823 142.4 
L 475.667567 142.4 
z
M 463.678326 97.973768 
L 471.850193 97.973768 
L 467.770653 49.923018 
z
" style="fill:#008000;"/>
   </g>
   <g id="patch_26">
    <path clip-path="url(#pd21b7a5933)" d="M 506.708008 151.9985 
L 494.680401 151.9985 
L 492.781305 157.5 
L 485.044248 157.5 
L 496.093533 127.3 
L 505.269299 127.3 
L 516.318584 157.5 
L 508.587921 157.5 
z
M 496.59868 146.393442 
L 504.770547 146.393442 
L 500.691007 134.380754 
z
" style="fill:#008000;"/>
   </g>
   <g id="patch_27">
    <path clip-path="url(#pd21b7a5933)" d="M 485.044248 97.1 
L 516.318584 97.1 
L 516.318584 102.989841 
L 505.067096 102.989841 
L 505.067096 127.3 
L 496.317555 127.3 
L 496.317555 102.989841 
L 485.044248 102.989841 
z
" style="fill:#ff0000;"/>
   </g>
   <g id="patch_28">
    <path clip-path="url(#pd21b7a5933)" d="M 516.318584 91.688205 
Q 513.70254 94.370709 510.873745 95.727556 
Q 508.04495 97.1 504.964006 97.1 
Q 495.776333 97.1 490.41029 86.93144 
Q 485.044248 76.76288 485.044248 59.373394 
Q 485.044248 41.921524 490.41029 31.76856 
Q 495.776333 21.6 504.964006 21.6 
Q 508.04495 21.6 510.873745 22.972444 
Q 513.70254 24.329291 516.318584 27.011795 
L 516.318584 42.061888 
Q 513.678901 38.506011 511.118014 36.85284 
Q 508.557127 35.199669 505.728333 35.199669 
Q 500.653837 35.199669 497.746246 41.640797 
Q 494.846534 48.066329 494.846534 59.373394 
Q 494.846534 70.633671 497.746246 77.074799 
Q 500.653837 83.500331 505.728333 83.500331 
Q 508.557127 83.500331 511.118014 81.84716 
Q 513.678901 80.178393 516.318584 76.622516 
z
" style="fill:#0000ff;"/>
   </g>
   <g id="patch_29">
    <path clip-path="url(#pd21b7a5933)" d="M 549.238938 156.133795 
Q 546.08487 156.816897 542.692495 157.160008 
Q 539.300119 157.5 535.683455 157.5 
Q 527.510914 157.5 522.737758 155.466288 
Q 517.964602 153.432576 517.964602 149.954679 
Q 517.964602 146.436232 522.821866 144.418116 
Q 527.68614 142.4 536.146051 142.4 
Q 539.405255 142.4 542.391106 142.674489 
Q 545.383966 142.945858 548.033383 143.482359 
L 548.033383 146.492378 
Q 545.299858 145.803037 542.594368 145.463045 
Q 539.888879 145.119934 537.169371 145.119934 
Q 532.136881 145.119934 529.410364 146.373848 
Q 526.683847 147.624644 526.683847 149.954679 
Q 526.683847 152.26288 529.312237 153.523032 
Q 531.940627 154.780066 536.776865 154.780066 
Q 538.094565 154.780066 539.22302 154.708325 
Q 540.351475 154.633464 541.248633 154.477505 
L 541.248633 151.651518 
L 536.096988 151.651518 
L 536.096988 149.134332 
L 549.238938 149.134332 
z
" style="fill:#ffa600;"/>
   </g>
   <g id="patch_30">
    <path clip-path="url(#pd21b7a5933)" d="M 539.628362 136.8985 
L 527.600755 136.8985 
L 525.701659 142.4 
L 517.964602 142.4 
L 529.013887 112.2 
L 538.189653 112.2 
L 549.238938 142.4 
L 541.508275 142.4 
z
M 529.519034 131.293442 
L 537.690901 131.293442 
L 533.611361 119.280754 
z
" style="fill:#008000;"/>
   </g>
   <g id="patch_31">
    <path clip-path="url(#pd21b7a5933)" d="M 549.238938 108.952923 
Q 546.622894 110.562425 543.794099 111.376534 
Q 540.965304 112.2 537.88436 112.2 
Q 528.696687 112.2 523.330644 106.098864 
Q 517.964602 99.997728 517.964602 89.564036 
Q 517.964602 79.092915 523.330644 73.001136 
Q 528.696687 66.9 537.88436 66.9 
Q 540.965304 66.9 543.794099 67.723466 
Q 546.622894 68.537575 549.238938 70.147077 
L 549.238938 79.177133 
Q 546.599255 77.043607 544.038368 76.051704 
Q 541.477481 75.059802 538.648687 75.059802 
Q 533.574191 75.059802 530.6666 78.924478 
Q 527.766888 82.779798 527.766888 89.564036 
Q 527.766888 96.320202 530.6666 100.184879 
Q 533.574191 104.040198 538.648687 104.040198 
Q 541.477481 104.040198 544.038368 103.048296 
Q 546.599255 102.047036 549.238938 99.91351 
z
" style="fill:#0000ff;"/>
   </g>
   <g id="patch_32">
    <path clip-path="url(#pd21b7a5933)" d="M 517.964602 21.6 
L 549.238938 21.6 
L 549.238938 30.434762 
L 537.98745 30.434762 
L 537.98745 66.9 
L 529.237909 66.9 
L 529.237909 30.434762 
L 517.964602 30.434762 
z
" style="fill:#ff0000;"/>
   </g>
   <g id="patch_33">
    <path clip-path="url(#pd21b7a5933)" d="M 582.159292 156.133795 
Q 579.005224 156.816897 575.612849 157.160008 
Q 572.220473 157.5 568.603809 157.5 
Q 560.431268 157.5 555.658112 155.466288 
Q 550.884956 153.432576 550.884956 149.954679 
Q 550.884956 146.436232 555.74222 144.418116 
Q 560.606494 142.4 569.066405 142.4 
Q 572.325609 142.4 575.31146 142.674489 
Q 578.30432 142.945858 580.953737 143.482359 
L 580.953737 146.492378 
Q 578.220212 145.803037 575.514722 145.463045 
Q 572.809233 145.119934 570.089725 145.119934 
Q 565.057235 145.119934 562.330718 146.373848 
Q 559.604201 147.624644 559.604201 149.954679 
Q 559.604201 152.26288 562.232591 153.523032 
Q 564.860981 154.780066 569.697219 154.780066 
Q 571.014919 154.780066 572.143374 154.708325 
Q 573.271829 154.633464 574.168986 154.477505 
L 574.168986 151.651518 
L 569.017342 151.651518 
L 569.017342 149.134332 
L 582.159292 149.134332 
z
" style="fill:#ffa600;"/>
   </g>
   <g id="patch_34">
    <path clip-path="url(#pd21b7a5933)" d="M 572.548716 136.8985 
L 560.521109 136.8985 
L 558.622013 142.4 
L 550.884956 142.4 
L 561.934241 112.2 
L 571.110007 112.2 
L 582.159292 142.4 
L 574.428629 142.4 
z
M 562.439387 131.293442 
L 570.611255 131.293442 
L 566.531715 119.280754 
z
" style="fill:#008000;"/>
   </g>
   <g id="patch_35">
    <path clip-path="url(#pd21b7a5933)" d="M 550.884956 82 
L 582.159292 82 
L 582.159292 87.889841 
L 570.907804 87.889841 
L 570.907804 112.2 
L 562.158263 112.2 
L 562.158263 87.889841 
L 550.884956 87.889841 
z
" style="fill:#ff0000;"/>
   </g>
   <g id="patch_36">
    <path clip-path="url(#pd21b7a5933)" d="M 582.159292 77.670564 
Q 579.543248 79.816567 576.714453 80.902045 
Q 573.885658 82 570.804714 82 
Q 561.617041 82 556.250998 73.865152 
Q 550.884956 65.730304 550.884956 51.818715 
Q 550.884956 37.85722 556.250998 29.734848 
Q 561.617041 21.6 570.804714 21.6 
Q 573.885658 21.6 576.714453 22.697955 
Q 579.543248 23.783433 582.159292 25.929436 
L 582.159292 37.96951 
Q 579.519609 35.124809 576.958722 33.802272 
Q 574.397835 32.479736 571.569041 32.479736 
Q 566.494545 32.479736 563.586954 37.632638 
Q 560.687242 42.773063 560.687242 51.818715 
Q 560.687242 60.826937 563.586954 65.979839 
Q 566.494545 71.120264 571.569041 71.120264 
Q 574.397835 71.120264 576.958722 69.797728 
Q 579.519609 68.462714 582.159292 65.618013 
z
" style="fill:#0000ff;"/>
   </g>
   <g id="patch_37">
    <path clip-path="url(#pd21b7a5933)" d="M 615.079646 156.417641 
Q 612.463602 156.954142 609.634807 157.225511 
Q 606.806012 157.5 603.725068 157.5 
Q 594.537395 157.5 589.171352 155.466288 
Q 583.80531 153.432576 583.80531 149.954679 
Q 583.80531 146.464305 589.171352 144.433712 
Q 594.537395 142.4 603.725068 142.4 
Q 606.806012 142.4 609.634807 142.674489 
Q 612.463602 142.945858 615.079646 143.482359 
L 615.079646 146.492378 
Q 612.439963 145.781202 609.879076 145.450568 
Q 607.318189 145.119934 604.489395 145.119934 
Q 599.414899 145.119934 596.507308 146.408159 
Q 593.607596 147.693266 593.607596 149.954679 
Q 593.607596 152.206734 596.507308 153.49496 
Q 599.414899 154.780066 604.489395 154.780066 
Q 607.318189 154.780066 609.879076 154.449432 
Q 612.439963 154.115679 615.079646 153.404503 
z
" style="fill:#0000ff;"/>
   </g>
   <g id="patch_38">
    <path clip-path="url(#pd21b7a5933)" d="M 583.80531 127.3 
L 615.079646 127.3 
L 615.079646 130.244921 
L 603.828158 130.244921 
L 603.828158 142.4 
L 595.078617 142.4 
L 595.078617 130.244921 
L 583.80531 130.244921 
z
" style="fill:#ff0000;"/>
   </g>
   <g id="patch_39">
    <path clip-path="url(#pd21b7a5933)" d="M 605.46907 121.7985 
L 593.441463 121.7985 
L 591.542367 127.3 
L 583.80531 127.3 
L 594.854595 97.1 
L 604.030361 97.1 
L 615.079646 127.3 
L 607.348983 127.3 
z
M 595.359741 116.193442 
L 603.531609 116.193442 
L 599.452069 104.180754 
z
" style="fill:#008000;"/>
   </g>
   <g id="patch_40">
    <path clip-path="url(#pd21b7a5933)" d="M 615.079646 90.268973 
Q 611.925578 93.684487 608.533203 95.400041 
Q 605.140827 97.1 601.524163 97.1 
Q 593.351622 97.1 588.578466 86.93144 
Q 583.80531 76.76288 583.80531 59.373394 
Q 583.80531 41.781161 588.662574 31.69058 
Q 593.526848 21.6 601.986759 21.6 
Q 605.245963 21.6 608.231814 22.972444 
Q 611.224674 24.329291 613.874091 27.011795 
L 613.874091 42.061888 
Q 611.140566 38.615183 608.435076 36.915224 
Q 605.729587 35.199669 603.010079 35.199669 
Q 597.977589 35.199669 595.251072 41.469242 
Q 592.524555 47.723218 592.524555 59.373394 
Q 592.524555 70.914398 595.152945 77.215162 
Q 597.781335 83.500331 602.617573 83.500331 
Q 603.935272 83.500331 605.063728 83.141624 
Q 606.192183 82.767321 607.08934 81.987523 
L 607.08934 67.857591 
L 601.937696 67.857591 
L 601.937696 55.271659 
L 615.079646 55.271659 
z
" style="fill:#ffa600;"/>
   </g>
   <g id="patch_41">
    <path clip-path="url(#pd21b7a5933)" d="M 638.389424 151.9985 
L 626.361817 151.9985 
L 624.462721 157.5 
L 616.725664 157.5 
L 627.774949 127.3 
L 636.950715 127.3 
L 648 157.5 
L 640.269337 157.5 
z
M 628.280095 146.393442 
L 636.451963 146.393442 
L 632.372423 134.380754 
z
" style="fill:#008000;"/>
   </g>
   <g id="patch_42">
    <path clip-path="url(#pd21b7a5933)" d="M 648 123.201384 
Q 644.845932 125.250692 641.453557 126.280025 
Q 638.061181 127.3 634.444517 127.3 
Q 626.271976 127.3 621.49882 121.198864 
Q 616.725664 115.097728 616.725664 104.664036 
Q 616.725664 94.108697 621.582928 88.054348 
Q 626.447202 82 634.907113 82 
Q 638.166317 82 641.152168 82.823466 
Q 644.145028 83.637575 646.794445 85.247077 
L 646.794445 94.277133 
Q 644.06092 92.20911 641.35543 91.189134 
Q 638.649941 90.159802 635.930433 90.159802 
Q 630.897943 90.159802 628.171426 93.921545 
Q 625.444909 97.673931 625.444909 104.664036 
Q 625.444909 111.588639 628.073299 115.369097 
Q 630.701689 119.140198 635.537927 119.140198 
Q 636.855626 119.140198 637.984082 118.924974 
Q 639.112537 118.700392 640.009694 118.232514 
L 640.009694 109.754555 
L 634.85805 109.754555 
L 634.85805 102.202995 
L 648 102.202995 
z
" style="fill:#ffa600;"/>
   </g>
   <g id="patch_43">
    <path clip-path="url(#pd21b7a5933)" d="M 616.725664 21.6 
L 648 21.6 
L 648 33.379683 
L 636.748512 33.379683 
L 636.748512 82 
L 627.998971 82 
L 627.998971 33.379683 
L 616.725664 33.379683 
z
" style="fill:#ff0000;"/>
   </g>
  </g>
 </g>
 <defs>
  <clipPath id="pd21b7a5933">
   <rect height="135.9" width="558" x="90" y="21.6"/>
  </clipPath>
 </defs>
</svg>
