<?xml version="1.0" encoding="utf-8" standalone="no"?>
<!DOCTYPE svg PUBLIC "-//W3C//DTD SVG 1.1//EN"
  "http://www.w3.org/Graphics/SVG/1.1/DTD/svg11.dtd">
<!-- Created with matplotlib (https://matplotlib.org/) -->
<svg height="180pt" version="1.1" viewBox="0 0 720 180" width="720pt" xmlns="http://www.w3.org/2000/svg" xmlns:xlink="http://www.w3.org/1999/xlink">
 <metadata>
  <rdf:RDF xmlns:cc="http://creativecommons.org/ns#" xmlns:dc="http://purl.org/dc/elements/1.1/" xmlns:rdf="http://www.w3.org/1999/02/22-rdf-syntax-ns#">
   <cc:Work>
    <dc:type rdf:resource="http://purl.org/dc/dcmitype/StillImage"/>
    <dc:date>2021-08-04T23:33:48.133566</dc:date>
    <dc:format>image/svg+xml</dc:format>
    <dc:creator>
     <cc:Agent>
      <dc:title>Matplotlib v3.3.2, https://matplotlib.org/</dc:title>
     </cc:Agent>
    </dc:creator>
   </cc:Work>
  </rdf:RDF>
 </metadata>
 <defs>
  <style type="text/css">*{stroke-linecap:butt;stroke-linejoin:round;}</style>
 </defs>
 <g id="figure_1">
  <g id="patch_1">
   <path d="M 0 180 
L 720 180 
L 720 0 
L 0 0 
z
" style="fill:none;"/>
  </g>
  <g id="axes_1">
   <g id="line2d_1">
    <path clip-path="url(#pf87d0661bb)" d="M 90 157.5 
L 648 157.5 
" style="fill:none;stroke:#000000;stroke-linecap:square;stroke-width:0.5;"/>
   </g>
   <g id="patch_2">
    <path clip-path="url(#pf87d0661bb)" d="M 121.274336 156.133795 
Q 118.120268 156.816897 114.727893 157.160008 
Q 111.335518 157.5 107.718853 157.5 
Q 99.546312 157.5 94.773156 155.466288 
Q 90 153.432576 90 149.954679 
Q 90 146.436232 94.857265 144.418116 
Q 99.721538 142.4 108.18145 142.4 
Q 111.440653 142.4 114.426504 142.674489 
Q 117.419364 142.945858 120.068781 143.482359 
L 120.068781 146.492378 
Q 117.335256 145.803037 114.629766 145.463045 
Q 111.924277 145.119934 109.204769 145.119934 
Q 104.172279 145.119934 101.445762 146.373848 
Q 98.719246 147.624644 98.719246 149.954679 
Q 98.719246 152.26288 101.347636 153.523032 
Q 103.976026 154.780066 108.812263 154.780066 
Q 110.129963 154.780066 111.258418 154.708325 
Q 112.386874 154.633464 113.284031 154.477505 
L 113.284031 151.651518 
L 108.132386 151.651518 
L 108.132386 149.134332 
L 121.274336 149.134332 
z
" style="fill:#ffa600;"/>
   </g>
   <g id="patch_3">
    <path clip-path="url(#pf87d0661bb)" d="M 121.274336 139.152923 
Q 118.658292 140.762425 115.829497 141.576534 
Q 113.000702 142.4 109.919759 142.4 
Q 100.732085 142.4 95.366043 136.298864 
Q 90 130.197728 90 119.764036 
Q 90 109.292915 95.366043 103.201136 
Q 100.732085 97.1 109.919759 97.1 
Q 113.000702 97.1 115.829497 97.923466 
Q 118.658292 98.737575 121.274336 100.347077 
L 121.274336 109.377133 
Q 118.634653 107.243607 116.073766 106.251704 
Q 113.51288 105.259802 110.684085 105.259802 
Q 105.609589 105.259802 102.701998 109.124478 
Q 99.802286 112.979798 99.802286 119.764036 
Q 99.802286 126.520202 102.701998 130.384879 
Q 105.609589 134.240198 110.684085 134.240198 
Q 113.51288 134.240198 116.073766 133.248296 
Q 118.634653 132.247036 121.274336 130.11351 
z
" style="fill:#0000ff;"/>
   </g>
   <g id="patch_4">
    <path clip-path="url(#pf87d0661bb)" d="M 111.66376 83.346249 
L 99.636153 83.346249 
L 97.737057 97.1 
L 90 97.1 
L 101.049285 21.6 
L 110.225051 21.6 
L 121.274336 97.1 
L 113.543673 97.1 
z
M 101.554432 69.333605 
L 109.726299 69.333605 
L 105.64676 39.301886 
z
" style="fill:#008000;"/>
   </g>
   <g id="patch_5">
    <path clip-path="url(#pf87d0661bb)" d="M 122.920354 142.4 
L 154.19469 142.4 
L 154.19469 145.344921 
L 142.943202 145.344921 
L 142.943202 157.5 
L 134.193661 157.5 
L 134.193661 145.344921 
L 122.920354 145.344921 
z
" style="fill:#ff0000;"/>
   </g>
   <g id="patch_6">
    <path clip-path="url(#pf87d0661bb)" d="M 154.19469 140.235282 
Q 151.578646 141.308283 148.749851 141.851023 
Q 145.921056 142.4 142.840113 142.4 
Q 133.652439 142.4 128.286397 138.332576 
Q 122.920354 134.265152 122.920354 127.309358 
Q 122.920354 120.32861 128.286397 116.267424 
Q 133.652439 112.2 142.840113 112.2 
Q 145.921056 112.2 148.749851 112.748977 
Q 151.578646 113.291717 154.19469 114.364718 
L 154.19469 120.384755 
Q 151.555007 118.962404 148.99412 118.301136 
Q 146.433234 117.639868 143.604439 117.639868 
Q 138.529943 117.639868 135.622352 120.216319 
Q 132.72264 122.786532 132.72264 127.309358 
Q 132.72264 131.813468 135.622352 134.389919 
Q 138.529943 136.960132 143.604439 136.960132 
Q 146.433234 136.960132 148.99412 136.298864 
Q 151.555007 135.631357 154.19469 134.209006 
z
" style="fill:#0000ff;"/>
   </g>
   <g id="patch_7">
    <path clip-path="url(#pf87d0661bb)" d="M 144.584114 103.94775 
L 132.556507 103.94775 
L 130.657411 112.2 
L 122.920354 112.2 
L 133.969639 66.9 
L 143.145405 66.9 
L 154.19469 112.2 
L 146.464027 112.2 
z
M 134.474786 95.540163 
L 142.646653 95.540163 
L 138.567114 77.521132 
z
" style="fill:#008000;"/>
   </g>
   <g id="patch_8">
    <path clip-path="url(#pf87d0661bb)" d="M 154.19469 62.801384 
Q 151.040622 64.850692 147.648247 65.880025 
Q 144.255872 66.9 140.639207 66.9 
Q 132.466666 66.9 127.69351 60.798864 
Q 122.920354 54.697728 122.920354 44.264036 
Q 122.920354 33.708697 127.777619 27.654348 
Q 132.641892 21.6 141.101804 21.6 
Q 144.361007 21.6 147.346858 22.423466 
Q 150.339718 23.237575 152.989135 24.847077 
L 152.989135 33.877133 
Q 150.25561 31.80911 147.55012 30.789134 
Q 144.844631 29.759802 142.125123 29.759802 
Q 137.092633 29.759802 134.366116 33.521545 
Q 131.6396 37.273931 131.6396 44.264036 
Q 131.6396 51.188639 134.26799 54.969097 
Q 136.89638 58.740198 141.732617 58.740198 
Q 143.050317 58.740198 144.178772 58.524974 
Q 145.307228 58.300392 146.204385 57.832514 
L 146.204385 49.354555 
L 141.05274 49.354555 
L 141.05274 41.802995 
L 154.19469 41.802995 
z
" style="fill:#ffa600;"/>
   </g>
   <g id="patch_9">
    <path clip-path="url(#pf87d0661bb)" d="M 187.115044 156.133795 
Q 183.960976 156.816897 180.568601 157.160008 
Q 177.176226 157.5 173.559561 157.5 
Q 165.38702 157.5 160.613864 155.466288 
Q 155.840708 153.432576 155.840708 149.954679 
Q 155.840708 146.436232 160.697973 144.418116 
Q 165.562246 142.4 174.022158 142.4 
Q 177.281361 142.4 180.267212 142.674489 
Q 183.260072 142.945858 185.909489 143.482359 
L 185.909489 146.492378 
Q 183.175964 145.803037 180.470474 145.463045 
Q 177.764985 145.119934 175.045477 145.119934 
Q 170.012987 145.119934 167.28647 146.373848 
Q 164.559954 147.624644 164.559954 149.954679 
Q 164.559954 152.26288 167.188344 153.523032 
Q 169.816734 154.780066 174.652971 154.780066 
Q 175.970671 154.780066 177.099126 154.708325 
Q 178.227582 154.633464 179.124739 154.477505 
L 179.124739 151.651518 
L 173.973094 151.651518 
L 173.973094 149.134332 
L 187.115044 149.134332 
z
" style="fill:#ffa600;"/>
   </g>
   <g id="patch_10">
    <path clip-path="url(#pf87d0661bb)" d="M 155.840708 97.1 
L 187.115044 97.1 
L 187.115044 105.934762 
L 175.863556 105.934762 
L 175.863556 142.4 
L 167.114015 142.4 
L 167.114015 105.934762 
L 155.840708 105.934762 
z
" style="fill:#ff0000;"/>
   </g>
   <g id="patch_11">
    <path clip-path="url(#pf87d0661bb)" d="M 187.115044 91.688205 
Q 184.499 94.370709 181.670205 95.727556 
Q 178.84141 97.1 175.760467 97.1 
Q 166.572793 97.1 161.206751 86.93144 
Q 155.840708 76.76288 155.840708 59.373394 
Q 155.840708 41.921524 161.206751 31.76856 
Q 166.572793 21.6 175.760467 21.6 
Q 178.84141 21.6 181.670205 22.972444 
Q 184.499 24.329291 187.115044 27.011795 
L 187.115044 42.061888 
Q 184.475361 38.506011 181.914474 36.85284 
Q 179.353588 35.199669 176.524793 35.199669 
Q 171.450297 35.199669 168.542706 41.640797 
Q 165.642994 48.066329 165.642994 59.373394 
Q 165.642994 70.633671 168.542706 77.074799 
Q 171.450297 83.500331 176.524793 83.500331 
Q 179.353588 83.500331 181.914474 81.84716 
Q 184.475361 80.178393 187.115044 76.622516 
z
" style="fill:#0000ff;"/>
   </g>
   <g id="patch_12">
    <path clip-path="url(#pf87d0661bb)" d="M 220.035398 156.133795 
Q 216.88133 156.816897 213.488955 157.160008 
Q 210.09658 157.5 206.479915 157.5 
Q 198.307374 157.5 193.534218 155.466288 
Q 188.761062 153.432576 188.761062 149.954679 
Q 188.761062 146.436232 193.618327 144.418116 
Q 198.4826 142.4 206.942512 142.4 
Q 210.201715 142.4 213.187566 142.674489 
Q 216.180426 142.945858 218.829843 143.482359 
L 218.829843 146.492378 
Q 216.096318 145.803037 213.390828 145.463045 
Q 210.685339 145.119934 207.965831 145.119934 
Q 202.933341 145.119934 200.206824 146.373848 
Q 197.480308 147.624644 197.480308 149.954679 
Q 197.480308 152.26288 200.108698 153.523032 
Q 202.737088 154.780066 207.573325 154.780066 
Q 208.891025 154.780066 210.01948 154.708325 
Q 211.147936 154.633464 212.045093 154.477505 
L 212.045093 151.651518 
L 206.893448 151.651518 
L 206.893448 149.134332 
L 220.035398 149.134332 
z
" style="fill:#ffa600;"/>
   </g>
   <g id="patch_13">
    <path clip-path="url(#pf87d0661bb)" d="M 210.424822 134.14775 
L 198.397215 134.14775 
L 196.498119 142.4 
L 188.761062 142.4 
L 199.810347 97.1 
L 208.986113 97.1 
L 220.035398 142.4 
L 212.304735 142.4 
z
M 200.315494 125.740163 
L 208.487361 125.740163 
L 204.407821 107.721132 
z
" style="fill:#008000;"/>
   </g>
   <g id="patch_14">
    <path clip-path="url(#pf87d0661bb)" d="M 220.035398 91.688205 
Q 217.419354 94.370709 214.590559 95.727556 
Q 211.761764 97.1 208.680821 97.1 
Q 199.493147 97.1 194.127105 86.93144 
Q 188.761062 76.76288 188.761062 59.373394 
Q 188.761062 41.921524 194.127105 31.76856 
Q 199.493147 21.6 208.680821 21.6 
Q 211.761764 21.6 214.590559 22.972444 
Q 217.419354 24.329291 220.035398 27.011795 
L 220.035398 42.061888 
Q 217.395715 38.506011 214.834828 36.85284 
Q 212.273942 35.199669 209.445147 35.199669 
Q 204.370651 35.199669 201.46306 41.640797 
Q 198.563348 48.066329 198.563348 59.373394 
Q 198.563348 70.633671 201.46306 77.074799 
Q 204.370651 83.500331 209.445147 83.500331 
Q 212.273942 83.500331 214.834828 81.84716 
Q 217.395715 80.178393 220.035398 76.622516 
z
" style="fill:#0000ff;"/>
   </g>
   <g id="patch_15">
    <path clip-path="url(#pf87d0661bb)" d="M 252.955752 154.252923 
Q 250.339708 155.862425 247.510913 156.676534 
Q 244.682118 157.5 241.601175 157.5 
Q 232.413501 157.5 227.047459 151.398864 
Q 221.681416 145.297728 221.681416 134.864036 
Q 221.681416 124.392915 227.047459 118.301136 
Q 232.413501 112.2 241.601175 112.2 
Q 244.682118 112.2 247.510913 113.023466 
Q 250.339708 113.837575 252.955752 115.447077 
L 252.955752 124.477133 
Q 250.316069 122.343607 247.755182 121.351704 
Q 245.194296 120.359802 242.365501 120.359802 
Q 237.291005 120.359802 234.383414 124.224478 
Q 231.483702 128.079798 231.483702 134.864036 
Q 231.483702 141.620202 234.383414 145.484879 
Q 237.291005 149.340198 242.365501 149.340198 
Q 245.194296 149.340198 247.755182 148.348296 
Q 250.316069 147.347036 252.955752 145.21351 
z
" style="fill:#0000ff;"/>
   </g>
   <g id="patch_16">
    <path clip-path="url(#pf87d0661bb)" d="M 243.345176 95.695499 
L 231.317569 95.695499 
L 229.418473 112.2 
L 221.681416 112.2 
L 232.730701 21.6 
L 241.906467 21.6 
L 252.955752 112.2 
L 245.225089 112.2 
z
M 233.235848 78.880326 
L 241.407715 78.880326 
L 237.328175 42.842263 
z
" style="fill:#008000;"/>
   </g>
   <g id="patch_17">
    <path clip-path="url(#pf87d0661bb)" d="M 285.876106 156.133795 
Q 282.722038 156.816897 279.329663 157.160008 
Q 275.937288 157.5 272.320623 157.5 
Q 264.148082 157.5 259.374926 155.466288 
Q 254.60177 153.432576 254.60177 149.954679 
Q 254.60177 146.436232 259.459035 144.418116 
Q 264.323308 142.4 272.78322 142.4 
Q 276.042423 142.4 279.028274 142.674489 
Q 282.021134 142.945858 284.670551 143.482359 
L 284.670551 146.492378 
Q 281.937026 145.803037 279.231536 145.463045 
Q 276.526047 145.119934 273.806539 145.119934 
Q 268.774049 145.119934 266.047532 146.373848 
Q 263.321016 147.624644 263.321016 149.954679 
Q 263.321016 152.26288 265.949406 153.523032 
Q 268.577796 154.780066 273.414033 154.780066 
Q 274.731733 154.780066 275.860188 154.708325 
Q 276.988644 154.633464 277.885801 154.477505 
L 277.885801 151.651518 
L 272.734156 151.651518 
L 272.734156 149.134332 
L 285.876106 149.134332 
z
" style="fill:#ffa600;"/>
   </g>
   <g id="patch_18">
    <path clip-path="url(#pf87d0661bb)" d="M 276.26553 136.8985 
L 264.237923 136.8985 
L 262.338827 142.4 
L 254.60177 142.4 
L 265.651055 112.2 
L 274.826821 112.2 
L 285.876106 142.4 
L 278.145443 142.4 
z
M 266.156202 131.293442 
L 274.328069 131.293442 
L 270.248529 119.280754 
z
" style="fill:#008000;"/>
   </g>
   <g id="patch_19">
    <path clip-path="url(#pf87d0661bb)" d="M 285.876106 108.952923 
Q 283.260062 110.562425 280.431267 111.376534 
Q 277.602472 112.2 274.521529 112.2 
Q 265.333855 112.2 259.967812 106.098864 
Q 254.60177 99.997728 254.60177 89.564036 
Q 254.60177 79.092915 259.967812 73.001136 
Q 265.333855 66.9 274.521529 66.9 
Q 277.602472 66.9 280.431267 67.723466 
Q 283.260062 68.537575 285.876106 70.147077 
L 285.876106 79.177133 
Q 283.236423 77.043607 280.675536 76.051704 
Q 278.11465 75.059802 275.285855 75.059802 
Q 270.211359 75.059802 267.303768 78.924478 
Q 264.404056 82.779798 264.404056 89.564036 
Q 264.404056 96.320202 267.303768 100.184879 
Q 270.211359 104.040198 275.285855 104.040198 
Q 278.11465 104.040198 280.675536 103.048296 
Q 283.236423 102.047036 285.876106 99.91351 
z
" style="fill:#0000ff;"/>
   </g>
   <g id="patch_20">
    <path clip-path="url(#pf87d0661bb)" d="M 254.60177 21.6 
L 285.876106 21.6 
L 285.876106 30.434762 
L 274.624618 30.434762 
L 274.624618 66.9 
L 265.875077 66.9 
L 265.875077 30.434762 
L 254.60177 30.434762 
z
" style="fill:#ff0000;"/>
   </g>
   <g id="patch_21">
    <path clip-path="url(#pf87d0661bb)" d="M 287.522124 142.4 
L 318.79646 142.4 
L 318.79646 145.344921 
L 307.544972 145.344921 
L 307.544972 157.5 
L 298.795431 157.5 
L 298.795431 145.344921 
L 287.522124 145.344921 
z
" style="fill:#ff0000;"/>
   </g>
   <g id="patch_22">
    <path clip-path="url(#pf87d0661bb)" d="M 318.79646 133.741128 
Q 316.180416 138.033134 313.351621 140.20409 
Q 310.522826 142.4 307.441883 142.4 
Q 298.254209 142.4 292.888166 126.130304 
Q 287.522124 109.860607 287.522124 82.03743 
Q 287.522124 54.114439 292.888166 37.869696 
Q 298.254209 21.6 307.441883 21.6 
Q 310.522826 21.6 313.351621 23.79591 
Q 316.180416 25.966866 318.79646 30.258872 
L 318.79646 54.339021 
Q 316.156777 48.649618 313.59589 46.004545 
Q 311.035004 43.359471 308.206209 43.359471 
Q 303.131713 43.359471 300.224122 53.665276 
Q 297.32441 63.946127 297.32441 82.03743 
Q 297.32441 100.053873 300.224122 110.359678 
Q 303.131713 120.640529 308.206209 120.640529 
Q 311.035004 120.640529 313.59589 117.995455 
Q 316.156777 115.325429 318.79646 109.636026 
z
" style="fill:#0000ff;"/>
   </g>
   <g id="patch_23">
    <path clip-path="url(#pf87d0661bb)" d="M 351.716814 156.133795 
Q 348.562746 156.816897 345.170371 157.160008 
Q 341.777996 157.5 338.161331 157.5 
Q 329.98879 157.5 325.215634 155.466288 
Q 320.442478 153.432576 320.442478 149.954679 
Q 320.442478 146.436232 325.299743 144.418116 
Q 330.164016 142.4 338.623928 142.4 
Q 341.883131 142.4 344.868982 142.674489 
Q 347.861842 142.945858 350.511259 143.482359 
L 350.511259 146.492378 
Q 347.777734 145.803037 345.072244 145.463045 
Q 342.366755 145.119934 339.647247 145.119934 
Q 334.614757 145.119934 331.88824 146.373848 
Q 329.161724 147.624644 329.161724 149.954679 
Q 329.161724 152.26288 331.790114 153.523032 
Q 334.418504 154.780066 339.254741 154.780066 
Q 340.572441 154.780066 341.700896 154.708325 
Q 342.829351 154.633464 343.726509 154.477505 
L 343.726509 151.651518 
L 338.574864 151.651518 
L 338.574864 149.134332 
L 351.716814 149.134332 
z
" style="fill:#ffa600;"/>
   </g>
   <g id="patch_24">
    <path clip-path="url(#pf87d0661bb)" d="M 351.716814 140.235282 
Q 349.10077 141.308283 346.271975 141.851023 
Q 343.44318 142.4 340.362237 142.4 
Q 331.174563 142.4 325.80852 138.332576 
Q 320.442478 134.265152 320.442478 127.309358 
Q 320.442478 120.32861 325.80852 116.267424 
Q 331.174563 112.2 340.362237 112.2 
Q 343.44318 112.2 346.271975 112.748977 
Q 349.10077 113.291717 351.716814 114.364718 
L 351.716814 120.384755 
Q 349.077131 118.962404 346.516244 118.301136 
Q 343.955358 117.639868 341.126563 117.639868 
Q 336.052067 117.639868 333.144476 120.216319 
Q 330.244764 122.786532 330.244764 127.309358 
Q 330.244764 131.813468 333.144476 134.389919 
Q 336.052067 136.960132 341.126563 136.960132 
Q 343.955358 136.960132 346.516244 136.298864 
Q 349.077131 135.631357 351.716814 134.209006 
z
" style="fill:#0000ff;"/>
   </g>
   <g id="patch_25">
    <path clip-path="url(#pf87d0661bb)" d="M 342.106238 95.695499 
L 330.078631 95.695499 
L 328.179535 112.2 
L 320.442478 112.2 
L 331.491763 21.6 
L 340.667529 21.6 
L 351.716814 112.2 
L 343.986151 112.2 
z
M 331.99691 78.880326 
L 340.168777 78.880326 
L 336.089237 42.842263 
z
" style="fill:#008000;"/>
   </g>
   <g id="patch_26">
    <path clip-path="url(#pf87d0661bb)" d="M 375.026592 146.497 
L 362.998985 146.497 
L 361.099889 157.5 
L 353.362832 157.5 
L 364.412117 97.1 
L 373.587883 97.1 
L 384.637168 157.5 
L 376.906505 157.5 
z
M 364.917264 135.286884 
L 373.089131 135.286884 
L 369.009591 111.261509 
z
" style="fill:#008000;"/>
   </g>
   <g id="patch_27">
    <path clip-path="url(#pf87d0661bb)" d="M 353.362832 21.6 
L 384.637168 21.6 
L 384.637168 36.324604 
L 373.38568 36.324604 
L 373.38568 97.1 
L 364.636139 97.1 
L 364.636139 36.324604 
L 353.362832 36.324604 
z
" style="fill:#ff0000;"/>
   </g>
   <g id="patch_28">
    <path clip-path="url(#pf87d0661bb)" d="M 407.946946 154.74925 
L 395.919339 154.74925 
L 394.020243 157.5 
L 386.283186 157.5 
L 397.332471 142.4 
L 406.508237 142.4 
L 417.557522 157.5 
L 409.826859 157.5 
z
M 397.837618 151.946721 
L 406.009485 151.946721 
L 401.929945 145.940377 
z
" style="fill:#008000;"/>
   </g>
   <g id="patch_29">
    <path clip-path="url(#pf87d0661bb)" d="M 417.557522 141.317641 
Q 414.941478 141.854142 412.112683 142.125511 
Q 409.283888 142.4 406.202945 142.4 
Q 397.015271 142.4 391.649228 140.366288 
Q 386.283186 138.332576 386.283186 134.854679 
Q 386.283186 131.364305 391.649228 129.333712 
Q 397.015271 127.3 406.202945 127.3 
Q 409.283888 127.3 412.112683 127.574489 
Q 414.941478 127.845858 417.557522 128.382359 
L 417.557522 131.392378 
Q 414.917839 130.681202 412.356952 130.350568 
Q 409.796066 130.019934 406.967271 130.019934 
Q 401.892775 130.019934 398.985184 131.308159 
Q 396.085472 132.593266 396.085472 134.854679 
Q 396.085472 137.106734 398.985184 138.39496 
Q 401.892775 139.680066 406.967271 139.680066 
Q 409.796066 139.680066 412.356952 139.349432 
Q 414.917839 139.015679 417.557522 138.304503 
z
" style="fill:#0000ff;"/>
   </g>
   <g id="patch_30">
    <path clip-path="url(#pf87d0661bb)" d="M 386.283186 112.2 
L 417.557522 112.2 
L 417.557522 115.144921 
L 406.306034 115.144921 
L 406.306034 127.3 
L 397.556493 127.3 
L 397.556493 115.144921 
L 386.283186 115.144921 
z
" style="fill:#ff0000;"/>
   </g>
   <g id="patch_31">
    <path clip-path="url(#pf87d0661bb)" d="M 417.557522 104.002768 
Q 414.403454 108.101384 411.011079 110.16005 
Q 407.618703 112.2 404.002039 112.2 
Q 395.829498 112.2 391.056342 99.997728 
Q 386.283186 87.795455 386.283186 66.928073 
Q 386.283186 45.817393 391.140451 33.708697 
Q 396.004724 21.6 404.464635 21.6 
Q 407.723839 21.6 410.70969 23.246932 
Q 413.70255 24.87515 416.351967 28.094154 
L 416.351967 46.154266 
Q 413.618442 42.018219 410.912952 39.978269 
Q 408.207463 37.919603 405.487955 37.919603 
Q 400.455465 37.919603 397.728948 45.44309 
Q 395.002432 52.947862 395.002432 66.928073 
Q 395.002432 80.777277 397.630822 88.338195 
Q 400.259212 95.880397 405.095449 95.880397 
Q 406.413149 95.880397 407.541604 95.449948 
Q 408.670059 95.000785 409.567217 94.065028 
L 409.567217 77.10911 
L 404.415572 77.10911 
L 404.415572 62.00599 
L 417.557522 62.00599 
z
" style="fill:#ffa600;"/>
   </g>
   <g id="patch_32">
    <path clip-path="url(#pf87d0661bb)" d="M 440.8673 149.24775 
L 428.839693 149.24775 
L 426.940597 157.5 
L 419.20354 157.5 
L 430.252825 112.2 
L 439.428591 112.2 
L 450.477876 157.5 
L 442.747213 157.5 
z
M 430.757972 140.840163 
L 438.929839 140.840163 
L 434.850299 122.821132 
z
" style="fill:#008000;"/>
   </g>
   <g id="patch_33">
    <path clip-path="url(#pf87d0661bb)" d="M 450.477876 104.002768 
Q 447.323808 108.101384 443.931433 110.16005 
Q 440.539057 112.2 436.922393 112.2 
Q 428.749852 112.2 423.976696 99.997728 
Q 419.20354 87.795455 419.20354 66.928073 
Q 419.20354 45.817393 424.060805 33.708697 
Q 428.925078 21.6 437.384989 21.6 
Q 440.644193 21.6 443.630044 23.246932 
Q 446.622904 24.87515 449.272321 28.094154 
L 449.272321 46.154266 
Q 446.538796 42.018219 443.833306 39.978269 
Q 441.127817 37.919603 438.408309 37.919603 
Q 433.375819 37.919603 430.649302 45.44309 
Q 427.922786 52.947862 427.922786 66.928073 
Q 427.922786 80.777277 430.551176 88.338195 
Q 433.179565 95.880397 438.015803 95.880397 
Q 439.333503 95.880397 440.461958 95.449948 
Q 441.590413 95.000785 442.487571 94.065028 
L 442.487571 77.10911 
L 437.335926 77.10911 
L 437.335926 62.00599 
L 450.477876 62.00599 
z
" style="fill:#ffa600;"/>
   </g>
   <g id="patch_34">
    <path clip-path="url(#pf87d0661bb)" d="M 452.123894 142.4 
L 483.39823 142.4 
L 483.39823 145.344921 
L 472.146742 145.344921 
L 472.146742 157.5 
L 463.397201 157.5 
L 463.397201 145.344921 
L 452.123894 145.344921 
z
" style="fill:#ff0000;"/>
   </g>
   <g id="patch_35">
    <path clip-path="url(#pf87d0661bb)" d="M 473.787654 134.14775 
L 461.760047 134.14775 
L 459.860951 142.4 
L 452.123894 142.4 
L 463.173179 97.1 
L 472.348945 97.1 
L 483.39823 142.4 
L 475.667567 142.4 
z
M 463.678326 125.740163 
L 471.850193 125.740163 
L 467.770653 107.721132 
z
" style="fill:#008000;"/>
   </g>
   <g id="patch_36">
    <path clip-path="url(#pf87d0661bb)" d="M 483.39823 91.688205 
Q 480.782186 94.370709 477.953391 95.727556 
Q 475.124596 97.1 472.043652 97.1 
Q 462.855979 97.1 457.489936 86.93144 
Q 452.123894 76.76288 452.123894 59.373394 
Q 452.123894 41.921524 457.489936 31.76856 
Q 462.855979 21.6 472.043652 21.6 
Q 475.124596 21.6 477.953391 22.972444 
Q 480.782186 24.329291 483.39823 27.011795 
L 483.39823 42.061888 
Q 480.758547 38.506011 478.19766 36.85284 
Q 475.636773 35.199669 472.807979 35.199669 
Q 467.733483 35.199669 464.825892 41.640797 
Q 461.92618 48.066329 461.92618 59.373394 
Q 461.92618 70.633671 464.825892 77.074799 
Q 467.733483 83.500331 472.807979 83.500331 
Q 475.636773 83.500331 478.19766 81.84716 
Q 480.758547 80.178393 483.39823 76.622516 
z
" style="fill:#0000ff;"/>
   </g>
   <g id="patch_37">
    <path clip-path="url(#pf87d0661bb)" d="M 485.044248 112.2 
L 516.318584 112.2 
L 516.318584 121.034762 
L 505.067096 121.034762 
L 505.067096 157.5 
L 496.317555 157.5 
L 496.317555 121.034762 
L 485.044248 121.034762 
z
" style="fill:#ff0000;"/>
   </g>
   <g id="patch_38">
    <path clip-path="url(#pf87d0661bb)" d="M 516.318584 104.002768 
Q 513.164516 108.101384 509.772141 110.16005 
Q 506.379765 112.2 502.763101 112.2 
Q 494.59056 112.2 489.817404 99.997728 
Q 485.044248 87.795455 485.044248 66.928073 
Q 485.044248 45.817393 489.901512 33.708697 
Q 494.765786 21.6 503.225697 21.6 
Q 506.484901 21.6 509.470752 23.246932 
Q 512.463612 24.87515 515.113029 28.094154 
L 515.113029 46.154266 
Q 512.379504 42.018219 509.674014 39.978269 
Q 506.968525 37.919603 504.249017 37.919603 
Q 499.216527 37.919603 496.49001 45.44309 
Q 493.763493 52.947862 493.763493 66.928073 
Q 493.763493 80.777277 496.391883 88.338195 
Q 499.020273 95.880397 503.856511 95.880397 
Q 505.174211 95.880397 506.302666 95.449948 
Q 507.431121 95.000785 508.328279 94.065028 
L 508.328279 77.10911 
L 503.176634 77.10911 
L 503.176634 62.00599 
L 516.318584 62.00599 
z
" style="fill:#ffa600;"/>
   </g>
   <g id="patch_39">
    <path clip-path="url(#pf87d0661bb)" d="M 549.238938 154.252923 
Q 546.622894 155.862425 543.794099 156.676534 
Q 540.965304 157.5 537.88436 157.5 
Q 528.696687 157.5 523.330644 151.398864 
Q 517.964602 145.297728 517.964602 134.864036 
Q 517.964602 124.392915 523.330644 118.301136 
Q 528.696687 112.2 537.88436 112.2 
Q 540.965304 112.2 543.794099 113.023466 
Q 546.622894 113.837575 549.238938 115.447077 
L 549.238938 124.477133 
Q 546.599255 122.343607 544.038368 121.351704 
Q 541.477481 120.359802 538.648687 120.359802 
Q 533.574191 120.359802 530.6666 124.224478 
Q 527.766888 128.079798 527.766888 134.864036 
Q 527.766888 141.620202 530.6666 145.484879 
Q 533.574191 149.340198 538.648687 149.340198 
Q 541.477481 149.340198 544.038368 148.348296 
Q 546.599255 147.347036 549.238938 145.21351 
z
" style="fill:#0000ff;"/>
   </g>
   <g id="patch_40">
    <path clip-path="url(#pf87d0661bb)" d="M 549.238938 104.002768 
Q 546.08487 108.101384 542.692495 110.16005 
Q 539.300119 112.2 535.683455 112.2 
Q 527.510914 112.2 522.737758 99.997728 
Q 517.964602 87.795455 517.964602 66.928073 
Q 517.964602 45.817393 522.821866 33.708697 
Q 527.68614 21.6 536.146051 21.6 
Q 539.405255 21.6 542.391106 23.246932 
Q 545.383966 24.87515 548.033383 28.094154 
L 548.033383 46.154266 
Q 545.299858 42.018219 542.594368 39.978269 
Q 539.888879 37.919603 537.169371 37.919603 
Q 532.136881 37.919603 529.410364 45.44309 
Q 526.683847 52.947862 526.683847 66.928073 
Q 526.683847 80.777277 529.312237 88.338195 
Q 531.940627 95.880397 536.776865 95.880397 
Q 538.094565 95.880397 539.22302 95.449948 
Q 540.351475 95.000785 541.248633 94.065028 
L 541.248633 77.10911 
L 536.096988 77.10911 
L 536.096988 62.00599 
L 549.238938 62.00599 
z
" style="fill:#ffa600;"/>
   </g>
   <g id="patch_41">
    <path clip-path="url(#pf87d0661bb)" d="M 572.548716 154.74925 
L 560.521109 154.74925 
L 558.622013 157.5 
L 550.884956 157.5 
L 561.934241 142.4 
L 571.110007 142.4 
L 582.159292 157.5 
L 574.428629 157.5 
z
M 562.439387 151.946721 
L 570.611255 151.946721 
L 566.531715 145.940377 
z
" style="fill:#008000;"/>
   </g>
   <g id="patch_42">
    <path clip-path="url(#pf87d0661bb)" d="M 582.159292 140.235282 
Q 579.543248 141.308283 576.714453 141.851023 
Q 573.885658 142.4 570.804714 142.4 
Q 561.617041 142.4 556.250998 138.332576 
Q 550.884956 134.265152 550.884956 127.309358 
Q 550.884956 120.32861 556.250998 116.267424 
Q 561.617041 112.2 570.804714 112.2 
Q 573.885658 112.2 576.714453 112.748977 
Q 579.543248 113.291717 582.159292 114.364718 
L 582.159292 120.384755 
Q 579.519609 118.962404 576.958722 118.301136 
Q 574.397835 117.639868 571.569041 117.639868 
Q 566.494545 117.639868 563.586954 120.216319 
Q 560.687242 122.786532 560.687242 127.309358 
Q 560.687242 131.813468 563.586954 134.389919 
Q 566.494545 136.960132 571.569041 136.960132 
Q 574.397835 136.960132 576.958722 136.298864 
Q 579.519609 135.631357 582.159292 134.209006 
z
" style="fill:#0000ff;"/>
   </g>
   <g id="patch_43">
    <path clip-path="url(#pf87d0661bb)" d="M 582.159292 104.002768 
Q 579.005224 108.101384 575.612849 110.16005 
Q 572.220473 112.2 568.603809 112.2 
Q 560.431268 112.2 555.658112 99.997728 
Q 550.884956 87.795455 550.884956 66.928073 
Q 550.884956 45.817393 555.74222 33.708697 
Q 560.606494 21.6 569.066405 21.6 
Q 572.325609 21.6 575.31146 23.246932 
Q 578.30432 24.87515 580.953737 28.094154 
L 580.953737 46.154266 
Q 578.220212 42.018219 575.514722 39.978269 
Q 572.809233 37.919603 570.089725 37.919603 
Q 565.057235 37.919603 562.330718 45.44309 
Q 559.604201 52.947862 559.604201 66.928073 
Q 559.604201 80.777277 562.232591 88.338195 
Q 564.860981 95.880397 569.697219 95.880397 
Q 571.014919 95.880397 572.143374 95.449948 
Q 573.271829 95.000785 574.168986 94.065028 
L 574.168986 77.10911 
L 569.017342 77.10911 
L 569.017342 62.00599 
L 582.159292 62.00599 
z
" style="fill:#ffa600;"/>
   </g>
   <g id="patch_44">
    <path clip-path="url(#pf87d0661bb)" d="M 615.079646 155.335282 
Q 612.463602 156.408283 609.634807 156.951023 
Q 606.806012 157.5 603.725068 157.5 
Q 594.537395 157.5 589.171352 153.432576 
Q 583.80531 149.365152 583.80531 142.409358 
Q 583.80531 135.42861 589.171352 131.367424 
Q 594.537395 127.3 603.725068 127.3 
Q 606.806012 127.3 609.634807 127.848977 
Q 612.463602 128.391717 615.079646 129.464718 
L 615.079646 135.484755 
Q 612.439963 134.062404 609.879076 133.401136 
Q 607.318189 132.739868 604.489395 132.739868 
Q 599.414899 132.739868 596.507308 135.316319 
Q 593.607596 137.886532 593.607596 142.409358 
Q 593.607596 146.913468 596.507308 149.489919 
Q 599.414899 152.060132 604.489395 152.060132 
Q 607.318189 152.060132 609.879076 151.398864 
Q 612.439963 150.731357 615.079646 149.309006 
z
" style="fill:#0000ff;"/>
   </g>
   <g id="patch_45">
    <path clip-path="url(#pf87d0661bb)" d="M 583.80531 82 
L 615.079646 82 
L 615.079646 90.834762 
L 603.828158 90.834762 
L 603.828158 127.3 
L 595.078617 127.3 
L 595.078617 90.834762 
L 583.80531 90.834762 
z
" style="fill:#ff0000;"/>
   </g>
   <g id="patch_46">
    <path clip-path="url(#pf87d0661bb)" d="M 615.079646 76.535179 
Q 611.925578 79.267589 608.533203 80.640033 
Q 605.140827 82 601.524163 82 
Q 593.351622 82 588.578466 73.865152 
Q 583.80531 65.730304 583.80531 51.818715 
Q 583.80531 37.744929 588.662574 29.672464 
Q 593.526848 21.6 601.986759 21.6 
Q 605.245963 21.6 608.231814 22.697955 
Q 611.224674 23.783433 613.874091 25.929436 
L 613.874091 37.96951 
Q 611.140566 35.212146 608.435076 33.852179 
Q 605.729587 32.479736 603.010079 32.479736 
Q 597.977589 32.479736 595.251072 37.495394 
Q 592.524555 42.498575 592.524555 51.818715 
Q 592.524555 61.051518 595.152945 66.09213 
Q 597.781335 71.120264 602.617573 71.120264 
Q 603.935272 71.120264 605.063728 70.833299 
Q 606.192183 70.533857 607.08934 69.910019 
L 607.08934 58.606073 
L 601.937696 58.606073 
L 601.937696 48.537327 
L 615.079646 48.537327 
z
" style="fill:#ffa600;"/>
   </g>
   <g id="patch_47">
    <path clip-path="url(#pf87d0661bb)" d="M 648 156.417641 
Q 645.383956 156.954142 642.555161 157.225511 
Q 639.726366 157.5 636.645422 157.5 
Q 627.457749 157.5 622.091706 155.466288 
Q 616.725664 153.432576 616.725664 149.954679 
Q 616.725664 146.464305 622.091706 144.433712 
Q 627.457749 142.4 636.645422 142.4 
Q 639.726366 142.4 642.555161 142.674489 
Q 645.383956 142.945858 648 143.482359 
L 648 146.492378 
Q 645.360317 145.781202 642.79943 145.450568 
Q 640.238543 145.119934 637.409749 145.119934 
Q 632.335253 145.119934 629.427662 146.408159 
Q 626.52795 147.693266 626.52795 149.954679 
Q 626.52795 152.206734 629.427662 153.49496 
Q 632.335253 154.780066 637.409749 154.780066 
Q 640.238543 154.780066 642.79943 154.449432 
Q 645.360317 154.115679 648 153.404503 
z
" style="fill:#0000ff;"/>
   </g>
   <g id="patch_48">
    <path clip-path="url(#pf87d0661bb)" d="M 638.389424 136.8985 
L 626.361817 136.8985 
L 624.462721 142.4 
L 616.725664 142.4 
L 627.774949 112.2 
L 636.950715 112.2 
L 648 142.4 
L 640.269337 142.4 
z
M 628.280095 131.293442 
L 636.451963 131.293442 
L 632.372423 119.280754 
z
" style="fill:#008000;"/>
   </g>
   <g id="patch_49">
    <path clip-path="url(#pf87d0661bb)" d="M 648 108.101384 
Q 644.845932 110.150692 641.453557 111.180025 
Q 638.061181 112.2 634.444517 112.2 
Q 626.271976 112.2 621.49882 106.098864 
Q 616.725664 99.997728 616.725664 89.564036 
Q 616.725664 79.008697 621.582928 72.954348 
Q 626.447202 66.9 634.907113 66.9 
Q 638.166317 66.9 641.152168 67.723466 
Q 644.145028 68.537575 646.794445 70.147077 
L 646.794445 79.177133 
Q 644.06092 77.10911 641.35543 76.089134 
Q 638.649941 75.059802 635.930433 75.059802 
Q 630.897943 75.059802 628.171426 78.821545 
Q 625.444909 82.573931 625.444909 89.564036 
Q 625.444909 96.488639 628.073299 100.269097 
Q 630.701689 104.040198 635.537927 104.040198 
Q 636.855626 104.040198 637.984082 103.824974 
Q 639.112537 103.600392 640.009694 103.132514 
L 640.009694 94.654555 
L 634.85805 94.654555 
L 634.85805 87.102995 
L 648 87.102995 
z
" style="fill:#ffa600;"/>
   </g>
   <g id="patch_50">
    <path clip-path="url(#pf87d0661bb)" d="M 616.725664 21.6 
L 648 21.6 
L 648 30.434762 
L 636.748512 30.434762 
L 636.748512 66.9 
L 627.998971 66.9 
L 627.998971 30.434762 
L 616.725664 30.434762 
z
" style="fill:#ff0000;"/>
   </g>
  </g>
 </g>
 <defs>
  <clipPath id="pf87d0661bb">
   <rect height="135.9" width="558" x="90" y="21.6"/>
  </clipPath>
 </defs>
</svg>
