<?xml version="1.0" encoding="utf-8" standalone="no"?>
<!DOCTYPE svg PUBLIC "-//W3C//DTD SVG 1.1//EN"
  "http://www.w3.org/Graphics/SVG/1.1/DTD/svg11.dtd">
<!-- Created with matplotlib (https://matplotlib.org/) -->
<svg height="180pt" version="1.1" viewBox="0 0 720 180" width="720pt" xmlns="http://www.w3.org/2000/svg" xmlns:xlink="http://www.w3.org/1999/xlink">
 <metadata>
  <rdf:RDF xmlns:cc="http://creativecommons.org/ns#" xmlns:dc="http://purl.org/dc/elements/1.1/" xmlns:rdf="http://www.w3.org/1999/02/22-rdf-syntax-ns#">
   <cc:Work>
    <dc:type rdf:resource="http://purl.org/dc/dcmitype/StillImage"/>
    <dc:date>2021-08-04T23:33:54.992489</dc:date>
    <dc:format>image/svg+xml</dc:format>
    <dc:creator>
     <cc:Agent>
      <dc:title>Matplotlib v3.3.2, https://matplotlib.org/</dc:title>
     </cc:Agent>
    </dc:creator>
   </cc:Work>
  </rdf:RDF>
 </metadata>
 <defs>
  <style type="text/css">*{stroke-linecap:butt;stroke-linejoin:round;}</style>
 </defs>
 <g id="figure_1">
  <g id="patch_1">
   <path d="M 0 180 
L 720 180 
L 720 0 
L 0 0 
z
" style="fill:none;"/>
  </g>
  <g id="axes_1">
   <g id="line2d_1">
    <path clip-path="url(#pda2e23418e)" d="M 90 157.5 
L 648 157.5 
" style="fill:none;stroke:#000000;stroke-linecap:square;stroke-width:0.5;"/>
   </g>
   <g id="patch_2">
    <path clip-path="url(#pda2e23418e)" d="M 90 142.4 
L 121.274336 142.4 
L 121.274336 145.344921 
L 110.022848 145.344921 
L 110.022848 157.5 
L 101.273307 157.5 
L 101.273307 145.344921 
L 90 145.344921 
z
" style="fill:#ff0000;"/>
   </g>
   <g id="patch_3">
    <path clip-path="url(#pda2e23418e)" d="M 144.584114 154.74925 
L 132.556507 154.74925 
L 130.657411 157.5 
L 122.920354 157.5 
L 133.969639 142.4 
L 143.145405 142.4 
L 154.19469 157.5 
L 146.464027 157.5 
z
M 134.474786 151.946721 
L 142.646653 151.946721 
L 138.567114 145.940377 
z
" style="fill:#008000;"/>
   </g>
   <g id="patch_4">
    <path clip-path="url(#pda2e23418e)" d="M 187.115044 156.417641 
Q 184.499 156.954142 181.670205 157.225511 
Q 178.84141 157.5 175.760467 157.5 
Q 166.572793 157.5 161.206751 155.466288 
Q 155.840708 153.432576 155.840708 149.954679 
Q 155.840708 146.464305 161.206751 144.433712 
Q 166.572793 142.4 175.760467 142.4 
Q 178.84141 142.4 181.670205 142.674489 
Q 184.499 142.945858 187.115044 143.482359 
L 187.115044 146.492378 
Q 184.475361 145.781202 181.914474 145.450568 
Q 179.353588 145.119934 176.524793 145.119934 
Q 171.450297 145.119934 168.542706 146.408159 
Q 165.642994 147.693266 165.642994 149.954679 
Q 165.642994 152.206734 168.542706 153.49496 
Q 171.450297 154.780066 176.524793 154.780066 
Q 179.353588 154.780066 181.914474 154.449432 
Q 184.475361 154.115679 187.115044 153.404503 
z
" style="fill:#0000ff;"/>
   </g>
   <g id="patch_5">
    <path clip-path="url(#pda2e23418e)" d="M 220.035398 156.133795 
Q 216.88133 156.816897 213.488955 157.160008 
Q 210.09658 157.5 206.479915 157.5 
Q 198.307374 157.5 193.534218 155.466288 
Q 188.761062 153.432576 188.761062 149.954679 
Q 188.761062 146.436232 193.618327 144.418116 
Q 198.4826 142.4 206.942512 142.4 
Q 210.201715 142.4 213.187566 142.674489 
Q 216.180426 142.945858 218.829843 143.482359 
L 218.829843 146.492378 
Q 216.096318 145.803037 213.390828 145.463045 
Q 210.685339 145.119934 207.965831 145.119934 
Q 202.933341 145.119934 200.206824 146.373848 
Q 197.480308 147.624644 197.480308 149.954679 
Q 197.480308 152.26288 200.108698 153.523032 
Q 202.737088 154.780066 207.573325 154.780066 
Q 208.891025 154.780066 210.01948 154.708325 
Q 211.147936 154.633464 212.045093 154.477505 
L 212.045093 151.651518 
L 206.893448 151.651518 
L 206.893448 149.134332 
L 220.035398 149.134332 
z
" style="fill:#ffa600;"/>
   </g>
   <g id="patch_6">
    <path clip-path="url(#pda2e23418e)" d="M 252.955752 156.417641 
Q 250.339708 156.954142 247.510913 157.225511 
Q 244.682118 157.5 241.601175 157.5 
Q 232.413501 157.5 227.047459 155.466288 
Q 221.681416 153.432576 221.681416 149.954679 
Q 221.681416 146.464305 227.047459 144.433712 
Q 232.413501 142.4 241.601175 142.4 
Q 244.682118 142.4 247.510913 142.674489 
Q 250.339708 142.945858 252.955752 143.482359 
L 252.955752 146.492378 
Q 250.316069 145.781202 247.755182 145.450568 
Q 245.194296 145.119934 242.365501 145.119934 
Q 237.291005 145.119934 234.383414 146.408159 
Q 231.483702 147.693266 231.483702 149.954679 
Q 231.483702 152.206734 234.383414 153.49496 
Q 237.291005 154.780066 242.365501 154.780066 
Q 245.194296 154.780066 247.755182 154.449432 
Q 250.316069 154.115679 252.955752 153.404503 
z
" style="fill:#0000ff;"/>
   </g>
   <g id="patch_7">
    <path clip-path="url(#pda2e23418e)" d="M 285.876106 156.417641 
Q 283.260062 156.954142 280.431267 157.225511 
Q 277.602472 157.5 274.521529 157.5 
Q 265.333855 157.5 259.967812 155.466288 
Q 254.60177 153.432576 254.60177 149.954679 
Q 254.60177 146.464305 259.967812 144.433712 
Q 265.333855 142.4 274.521529 142.4 
Q 277.602472 142.4 280.431267 142.674489 
Q 283.260062 142.945858 285.876106 143.482359 
L 285.876106 146.492378 
Q 283.236423 145.781202 280.675536 145.450568 
Q 278.11465 145.119934 275.285855 145.119934 
Q 270.211359 145.119934 267.303768 146.408159 
Q 264.404056 147.693266 264.404056 149.954679 
Q 264.404056 152.206734 267.303768 153.49496 
Q 270.211359 154.780066 275.285855 154.780066 
Q 278.11465 154.780066 280.675536 154.449432 
Q 283.236423 154.115679 285.876106 153.404503 
z
" style="fill:#0000ff;"/>
   </g>
   <g id="patch_8">
    <path clip-path="url(#pda2e23418e)" d="M 318.79646 156.133795 
Q 315.642392 156.816897 312.250017 157.160008 
Q 308.857642 157.5 305.240977 157.5 
Q 297.068436 157.5 292.29528 155.466288 
Q 287.522124 153.432576 287.522124 149.954679 
Q 287.522124 146.436232 292.379389 144.418116 
Q 297.243662 142.4 305.703574 142.4 
Q 308.962777 142.4 311.948628 142.674489 
Q 314.941488 142.945858 317.590905 143.482359 
L 317.590905 146.492378 
Q 314.85738 145.803037 312.15189 145.463045 
Q 309.446401 145.119934 306.726893 145.119934 
Q 301.694403 145.119934 298.967886 146.373848 
Q 296.24137 147.624644 296.24137 149.954679 
Q 296.24137 152.26288 298.86976 153.523032 
Q 301.49815 154.780066 306.334387 154.780066 
Q 307.652087 154.780066 308.780542 154.708325 
Q 309.908998 154.633464 310.806155 154.477505 
L 310.806155 151.651518 
L 305.65451 151.651518 
L 305.65451 149.134332 
L 318.79646 149.134332 
z
" style="fill:#ffa600;"/>
   </g>
   <g id="patch_9">
    <path clip-path="url(#pda2e23418e)" d="M 342.106238 154.74925 
L 330.078631 154.74925 
L 328.179535 157.5 
L 320.442478 157.5 
L 331.491763 142.4 
L 340.667529 142.4 
L 351.716814 157.5 
L 343.986151 157.5 
z
M 331.99691 151.946721 
L 340.168777 151.946721 
L 336.089237 145.940377 
z
" style="fill:#008000;"/>
   </g>
   <g id="patch_10">
    <path clip-path="url(#pda2e23418e)" d="M 351.716814 133.741128 
Q 349.10077 138.033134 346.271975 140.20409 
Q 343.44318 142.4 340.362237 142.4 
Q 331.174563 142.4 325.80852 126.130304 
Q 320.442478 109.860607 320.442478 82.03743 
Q 320.442478 54.114439 325.80852 37.869696 
Q 331.174563 21.6 340.362237 21.6 
Q 343.44318 21.6 346.271975 23.79591 
Q 349.10077 25.966866 351.716814 30.258872 
L 351.716814 54.339021 
Q 349.077131 48.649618 346.516244 46.004545 
Q 343.955358 43.359471 341.126563 43.359471 
Q 336.052067 43.359471 333.144476 53.665276 
Q 330.244764 63.946127 330.244764 82.03743 
Q 330.244764 100.053873 333.144476 110.359678 
Q 336.052067 120.640529 341.126563 120.640529 
Q 343.955358 120.640529 346.516244 117.995455 
Q 349.077131 115.325429 351.716814 109.636026 
z
" style="fill:#0000ff;"/>
   </g>
   <g id="patch_11">
    <path clip-path="url(#pda2e23418e)" d="M 384.637168 147.758769 
Q 382.021124 152.587275 379.192329 155.029601 
Q 376.363534 157.5 373.282591 157.5 
Q 364.094917 157.5 358.728874 139.196592 
Q 353.362832 120.893183 353.362832 89.592109 
Q 353.362832 58.178744 358.728874 39.903408 
Q 364.094917 21.6 373.282591 21.6 
Q 376.363534 21.6 379.192329 24.070399 
Q 382.021124 26.512725 384.637168 31.341231 
L 384.637168 58.431398 
Q 381.997485 52.03082 379.436598 49.055113 
Q 376.875712 46.079405 374.046917 46.079405 
Q 368.972421 46.079405 366.06483 57.673435 
Q 363.165118 69.239393 363.165118 89.592109 
Q 363.165118 109.860607 366.06483 121.454637 
Q 368.972421 133.020595 374.046917 133.020595 
Q 376.875712 133.020595 379.436598 130.044887 
Q 381.997485 127.041107 384.637168 120.640529 
z
" style="fill:#0000ff;"/>
   </g>
   <g id="patch_12">
    <path clip-path="url(#pda2e23418e)" d="M 407.946946 132.743249 
L 395.919339 132.743249 
L 394.020243 157.5 
L 386.283186 157.5 
L 397.332471 21.6 
L 406.508237 21.6 
L 417.557522 157.5 
L 409.826859 157.5 
z
M 397.837618 107.520489 
L 406.009485 107.520489 
L 401.929945 53.463395 
z
" style="fill:#008000;"/>
   </g>
   <g id="patch_13">
    <path clip-path="url(#pda2e23418e)" d="M 419.20354 21.6 
L 450.477876 21.6 
L 450.477876 48.104286 
L 439.226388 48.104286 
L 439.226388 157.5 
L 430.476847 157.5 
L 430.476847 48.104286 
L 419.20354 48.104286 
z
" style="fill:#ff0000;"/>
   </g>
   <g id="patch_14">
    <path clip-path="url(#pda2e23418e)" d="M 483.39823 145.204152 
Q 480.244162 151.352076 476.851787 154.440074 
Q 473.459411 157.5 469.842747 157.5 
Q 461.670206 157.5 456.89705 139.196592 
Q 452.123894 120.893183 452.123894 89.592109 
Q 452.123894 57.92609 456.981158 39.763045 
Q 461.845432 21.6 470.305343 21.6 
Q 473.564547 21.6 476.550398 24.070399 
Q 479.543258 26.512725 482.192675 31.341231 
L 482.192675 58.431398 
Q 479.45915 52.227329 476.75366 49.167403 
Q 474.048171 46.079405 471.328663 46.079405 
Q 466.296173 46.079405 463.569656 57.364635 
Q 460.84314 68.621793 460.84314 89.592109 
Q 460.84314 110.365916 463.471529 121.707292 
Q 466.099919 133.020595 470.936157 133.020595 
Q 472.253857 133.020595 473.382312 132.374923 
Q 474.510767 131.701177 475.407925 130.297542 
L 475.407925 104.863665 
L 470.25628 104.863665 
L 470.25628 82.208986 
L 483.39823 82.208986 
z
" style="fill:#ffa600;"/>
   </g>
   <g id="patch_15">
    <path clip-path="url(#pda2e23418e)" d="M 516.318584 145.204152 
Q 513.164516 151.352076 509.772141 154.440074 
Q 506.379765 157.5 502.763101 157.5 
Q 494.59056 157.5 489.817404 139.196592 
Q 485.044248 120.893183 485.044248 89.592109 
Q 485.044248 57.92609 489.901512 39.763045 
Q 494.765786 21.6 503.225697 21.6 
Q 506.484901 21.6 509.470752 24.070399 
Q 512.463612 26.512725 515.113029 31.341231 
L 515.113029 58.431398 
Q 512.379504 52.227329 509.674014 49.167403 
Q 506.968525 46.079405 504.249017 46.079405 
Q 499.216527 46.079405 496.49001 57.364635 
Q 493.763493 68.621793 493.763493 89.592109 
Q 493.763493 110.365916 496.391883 121.707292 
Q 499.020273 133.020595 503.856511 133.020595 
Q 505.174211 133.020595 506.302666 132.374923 
Q 507.431121 131.701177 508.328279 130.297542 
L 508.328279 104.863665 
L 503.176634 104.863665 
L 503.176634 82.208986 
L 516.318584 82.208986 
z
" style="fill:#ffa600;"/>
   </g>
   <g id="patch_16">
    <path clip-path="url(#pda2e23418e)" d="M 549.238938 147.758769 
Q 546.622894 152.587275 543.794099 155.029601 
Q 540.965304 157.5 537.88436 157.5 
Q 528.696687 157.5 523.330644 139.196592 
Q 517.964602 120.893183 517.964602 89.592109 
Q 517.964602 58.178744 523.330644 39.903408 
Q 528.696687 21.6 537.88436 21.6 
Q 540.965304 21.6 543.794099 24.070399 
Q 546.622894 26.512725 549.238938 31.341231 
L 549.238938 58.431398 
Q 546.599255 52.03082 544.038368 49.055113 
Q 541.477481 46.079405 538.648687 46.079405 
Q 533.574191 46.079405 530.6666 57.673435 
Q 527.766888 69.239393 527.766888 89.592109 
Q 527.766888 109.860607 530.6666 121.454637 
Q 533.574191 133.020595 538.648687 133.020595 
Q 541.477481 133.020595 544.038368 130.044887 
Q 546.599255 127.041107 549.238938 120.640529 
z
" style="fill:#0000ff;"/>
   </g>
   <g id="patch_17">
    <path clip-path="url(#pda2e23418e)" d="M 550.884956 127.3 
L 582.159292 127.3 
L 582.159292 133.189841 
L 570.907804 133.189841 
L 570.907804 157.5 
L 562.158263 157.5 
L 562.158263 133.189841 
L 550.884956 133.189841 
z
" style="fill:#ff0000;"/>
   </g>
   <g id="patch_18">
    <path clip-path="url(#pda2e23418e)" d="M 582.159292 117.736563 
Q 579.005224 122.518281 575.612849 124.920058 
Q 572.220473 127.3 568.603809 127.3 
Q 560.431268 127.3 555.658112 113.064016 
Q 550.884956 98.828031 550.884956 74.482751 
Q 550.884956 49.853625 555.74222 35.726813 
Q 560.606494 21.6 569.066405 21.6 
Q 572.325609 21.6 575.31146 23.521421 
Q 578.30432 25.421008 580.953737 29.176513 
L 580.953737 50.246643 
Q 578.220212 45.421256 575.514722 43.041314 
Q 572.809233 40.639537 570.089725 40.639537 
Q 565.057235 40.639537 562.330718 49.416939 
Q 559.604201 58.172506 559.604201 74.482751 
Q 559.604201 90.640157 562.232591 99.461227 
Q 564.860981 108.260463 569.697219 108.260463 
Q 571.014919 108.260463 572.143374 107.758273 
Q 573.271829 107.234249 574.168986 106.142533 
L 574.168986 86.360628 
L 569.017342 86.360628 
L 569.017342 68.740322 
L 582.159292 68.740322 
z
" style="fill:#ffa600;"/>
   </g>
   <g id="patch_19">
    <path clip-path="url(#pda2e23418e)" d="M 615.079646 154.767589 
Q 611.925578 156.133795 608.533203 156.820017 
Q 605.140827 157.5 601.524163 157.5 
Q 593.351622 157.5 588.578466 153.432576 
Q 583.80531 149.365152 583.80531 142.409358 
Q 583.80531 135.372464 588.662574 131.336232 
Q 593.526848 127.3 601.986759 127.3 
Q 605.245963 127.3 608.231814 127.848977 
Q 611.224674 128.391717 613.874091 129.464718 
L 613.874091 135.484755 
Q 611.140566 134.106073 608.435076 133.42609 
Q 605.729587 132.739868 603.010079 132.739868 
Q 597.977589 132.739868 595.251072 135.247697 
Q 592.524555 137.749287 592.524555 142.409358 
Q 592.524555 147.025759 595.152945 149.546065 
Q 597.781335 152.060132 602.617573 152.060132 
Q 603.935272 152.060132 605.063728 151.916649 
Q 606.192183 151.766928 607.08934 151.455009 
L 607.08934 145.803037 
L 601.937696 145.803037 
L 601.937696 140.768663 
L 615.079646 140.768663 
z
" style="fill:#ffa600;"/>
   </g>
   <g id="patch_20">
    <path clip-path="url(#pda2e23418e)" d="M 583.80531 97.1 
L 615.079646 97.1 
L 615.079646 102.989841 
L 603.828158 102.989841 
L 603.828158 127.3 
L 595.078617 127.3 
L 595.078617 102.989841 
L 583.80531 102.989841 
z
" style="fill:#ff0000;"/>
   </g>
   <g id="patch_21">
    <path clip-path="url(#pda2e23418e)" d="M 615.079646 91.688205 
Q 612.463602 94.370709 609.634807 95.727556 
Q 606.806012 97.1 603.725068 97.1 
Q 594.537395 97.1 589.171352 86.93144 
Q 583.80531 76.76288 583.80531 59.373394 
Q 583.80531 41.921524 589.171352 31.76856 
Q 594.537395 21.6 603.725068 21.6 
Q 606.806012 21.6 609.634807 22.972444 
Q 612.463602 24.329291 615.079646 27.011795 
L 615.079646 42.061888 
Q 612.439963 38.506011 609.879076 36.85284 
Q 607.318189 35.199669 604.489395 35.199669 
Q 599.414899 35.199669 596.507308 41.640797 
Q 593.607596 48.066329 593.607596 59.373394 
Q 593.607596 70.633671 596.507308 77.074799 
Q 599.414899 83.500331 604.489395 83.500331 
Q 607.318189 83.500331 609.879076 81.84716 
Q 612.439963 80.178393 615.079646 76.622516 
z
" style="fill:#0000ff;"/>
   </g>
   <g id="patch_22">
    <path clip-path="url(#pda2e23418e)" d="M 638.389424 154.74925 
L 626.361817 154.74925 
L 624.462721 157.5 
L 616.725664 157.5 
L 627.774949 142.4 
L 636.950715 142.4 
L 648 157.5 
L 640.269337 157.5 
z
M 628.280095 151.946721 
L 636.451963 151.946721 
L 632.372423 145.940377 
z
" style="fill:#008000;"/>
   </g>
   <g id="patch_23">
    <path clip-path="url(#pda2e23418e)" d="M 648 138.301384 
Q 644.845932 140.350692 641.453557 141.380025 
Q 638.061181 142.4 634.444517 142.4 
Q 626.271976 142.4 621.49882 136.298864 
Q 616.725664 130.197728 616.725664 119.764036 
Q 616.725664 109.208697 621.582928 103.154348 
Q 626.447202 97.1 634.907113 97.1 
Q 638.166317 97.1 641.152168 97.923466 
Q 644.145028 98.737575 646.794445 100.347077 
L 646.794445 109.377133 
Q 644.06092 107.30911 641.35543 106.289134 
Q 638.649941 105.259802 635.930433 105.259802 
Q 630.897943 105.259802 628.171426 109.021545 
Q 625.444909 112.773931 625.444909 119.764036 
Q 625.444909 126.688639 628.073299 130.469097 
Q 630.701689 134.240198 635.537927 134.240198 
Q 636.855626 134.240198 637.984082 134.024974 
Q 639.112537 133.800392 640.009694 133.332514 
L 640.009694 124.854555 
L 634.85805 124.854555 
L 634.85805 117.302995 
L 648 117.302995 
z
" style="fill:#ffa600;"/>
   </g>
   <g id="patch_24">
    <path clip-path="url(#pda2e23418e)" d="M 648 91.688205 
Q 645.383956 94.370709 642.555161 95.727556 
Q 639.726366 97.1 636.645422 97.1 
Q 627.457749 97.1 622.091706 86.93144 
Q 616.725664 76.76288 616.725664 59.373394 
Q 616.725664 41.921524 622.091706 31.76856 
Q 627.457749 21.6 636.645422 21.6 
Q 639.726366 21.6 642.555161 22.972444 
Q 645.383956 24.329291 648 27.011795 
L 648 42.061888 
Q 645.360317 38.506011 642.79943 36.85284 
Q 640.238543 35.199669 637.409749 35.199669 
Q 632.335253 35.199669 629.427662 41.640797 
Q 626.52795 48.066329 626.52795 59.373394 
Q 626.52795 70.633671 629.427662 77.074799 
Q 632.335253 83.500331 637.409749 83.500331 
Q 640.238543 83.500331 642.79943 81.84716 
Q 645.360317 80.178393 648 76.622516 
z
" style="fill:#0000ff;"/>
   </g>
  </g>
 </g>
 <defs>
  <clipPath id="pda2e23418e">
   <rect height="135.9" width="558" x="90" y="21.6"/>
  </clipPath>
 </defs>
</svg>
