<?xml version="1.0" encoding="utf-8" standalone="no"?>
<!DOCTYPE svg PUBLIC "-//W3C//DTD SVG 1.1//EN"
  "http://www.w3.org/Graphics/SVG/1.1/DTD/svg11.dtd">
<!-- Created with matplotlib (https://matplotlib.org/) -->
<svg height="180pt" version="1.1" viewBox="0 0 720 180" width="720pt" xmlns="http://www.w3.org/2000/svg" xmlns:xlink="http://www.w3.org/1999/xlink">
 <metadata>
  <rdf:RDF xmlns:cc="http://creativecommons.org/ns#" xmlns:dc="http://purl.org/dc/elements/1.1/" xmlns:rdf="http://www.w3.org/1999/02/22-rdf-syntax-ns#">
   <cc:Work>
    <dc:type rdf:resource="http://purl.org/dc/dcmitype/StillImage"/>
    <dc:date>2021-08-04T23:33:18.667194</dc:date>
    <dc:format>image/svg+xml</dc:format>
    <dc:creator>
     <cc:Agent>
      <dc:title>Matplotlib v3.3.2, https://matplotlib.org/</dc:title>
     </cc:Agent>
    </dc:creator>
   </cc:Work>
  </rdf:RDF>
 </metadata>
 <defs>
  <style type="text/css">*{stroke-linecap:butt;stroke-linejoin:round;}</style>
 </defs>
 <g id="figure_1">
  <g id="patch_1">
   <path d="M 0 180 
L 720 180 
L 720 0 
L 0 0 
z
" style="fill:none;"/>
  </g>
  <g id="axes_1">
   <g id="line2d_1">
    <path clip-path="url(#pe99d3bebb9)" d="M 90 157.5 
L 648 157.5 
" style="fill:none;stroke:#000000;stroke-linecap:square;stroke-width:0.5;"/>
   </g>
   <g id="patch_2">
    <path clip-path="url(#pe99d3bebb9)" d="M 143.276382 156.417641 
Q 138.819905 156.954142 134.001003 157.225511 
Q 129.182101 157.5 123.933659 157.5 
Q 108.282296 157.5 99.141148 155.466288 
Q 90 153.432576 90 149.954679 
Q 90 146.464305 99.141148 144.433712 
Q 108.282296 142.4 123.933659 142.4 
Q 129.182101 142.4 134.001003 142.674489 
Q 138.819905 142.945858 143.276382 143.482359 
L 143.276382 146.492378 
Q 138.779635 145.781202 134.41712 145.450568 
Q 130.054604 145.119934 125.235702 145.119934 
Q 116.59121 145.119934 111.638077 146.408159 
Q 106.698367 147.693266 106.698367 149.954679 
Q 106.698367 152.206734 111.638077 153.49496 
Q 116.59121 154.780066 125.235702 154.780066 
Q 130.054604 154.780066 134.41712 154.449432 
Q 138.779635 154.115679 143.276382 153.404503 
z
" style="fill:#0000ff;"/>
   </g>
   <g id="patch_3">
    <path clip-path="url(#pe99d3bebb9)" d="M 143.276382 141.033795 
Q 137.903372 141.716897 132.124401 142.060008 
Q 126.34543 142.4 120.184378 142.4 
Q 106.262311 142.4 98.131156 140.366288 
Q 90 138.332576 90 134.854679 
Q 90 131.336232 98.274436 129.318116 
Q 106.560812 127.3 120.972419 127.3 
Q 126.52453 127.3 131.61098 127.574489 
Q 136.709369 127.845858 141.222698 128.382359 
L 141.222698 131.392378 
Q 136.566089 130.703037 131.95724 130.363045 
Q 127.348391 130.019934 122.715663 130.019934 
Q 114.142726 130.019934 109.498057 131.273848 
Q 104.853388 132.524644 104.853388 134.854679 
Q 104.853388 137.16288 109.330897 138.423032 
Q 113.808406 139.680066 122.047021 139.680066 
Q 124.291746 139.680066 126.214089 139.608325 
Q 128.136433 139.533464 129.664756 139.377505 
L 129.664756 136.551518 
L 120.888839 136.551518 
L 120.888839 134.034332 
L 143.276382 134.034332 
z
" style="fill:#ffa600;"/>
   </g>
   <g id="patch_4">
    <path clip-path="url(#pe99d3bebb9)" d="M 199.356784 155.335282 
Q 194.900307 156.408283 190.081405 156.951023 
Q 185.262503 157.5 180.014061 157.5 
Q 164.362698 157.5 155.22155 153.432576 
Q 146.080402 149.365152 146.080402 142.409358 
Q 146.080402 135.42861 155.22155 131.367424 
Q 164.362698 127.3 180.014061 127.3 
Q 185.262503 127.3 190.081405 127.848977 
Q 194.900307 128.391717 199.356784 129.464718 
L 199.356784 135.484755 
Q 194.860037 134.062404 190.497522 133.401136 
Q 186.135006 132.739868 181.316104 132.739868 
Q 172.671612 132.739868 167.718479 135.316319 
Q 162.778769 137.886532 162.778769 142.409358 
Q 162.778769 146.913468 167.718479 149.489919 
Q 172.671612 152.060132 181.316104 152.060132 
Q 186.135006 152.060132 190.497522 151.398864 
Q 194.860037 150.731357 199.356784 149.309006 
z
" style="fill:#0000ff;"/>
   </g>
   <g id="patch_5">
    <path clip-path="url(#pe99d3bebb9)" d="M 255.437186 155.335282 
Q 250.980709 156.408283 246.161807 156.951023 
Q 241.342905 157.5 236.094463 157.5 
Q 220.4431 157.5 211.301952 153.432576 
Q 202.160804 149.365152 202.160804 142.409358 
Q 202.160804 135.42861 211.301952 131.367424 
Q 220.4431 127.3 236.094463 127.3 
Q 241.342905 127.3 246.161807 127.848977 
Q 250.980709 128.391717 255.437186 129.464718 
L 255.437186 135.484755 
Q 250.940439 134.062404 246.577924 133.401136 
Q 242.215408 132.739868 237.396506 132.739868 
Q 228.752014 132.739868 223.798881 135.316319 
Q 218.859171 137.886532 218.859171 142.409358 
Q 218.859171 146.913468 223.798881 149.489919 
Q 228.752014 152.060132 237.396506 152.060132 
Q 242.215408 152.060132 246.577924 151.398864 
Q 250.940439 150.731357 255.437186 149.309006 
z
" style="fill:#0000ff;"/>
   </g>
   <g id="patch_6">
    <path clip-path="url(#pe99d3bebb9)" d="M 311.517588 155.335282 
Q 307.061111 156.408283 302.242209 156.951023 
Q 297.423307 157.5 292.174865 157.5 
Q 276.523502 157.5 267.382354 153.432576 
Q 258.241206 149.365152 258.241206 142.409358 
Q 258.241206 135.42861 267.382354 131.367424 
Q 276.523502 127.3 292.174865 127.3 
Q 297.423307 127.3 302.242209 127.848977 
Q 307.061111 128.391717 311.517588 129.464718 
L 311.517588 135.484755 
Q 307.020841 134.062404 302.658326 133.401136 
Q 298.29581 132.739868 293.476908 132.739868 
Q 284.832416 132.739868 279.879283 135.316319 
Q 274.939573 137.886532 274.939573 142.409358 
Q 274.939573 146.913468 279.879283 149.489919 
Q 284.832416 152.060132 293.476908 152.060132 
Q 298.29581 152.060132 302.658326 151.398864 
Q 307.020841 150.731357 311.517588 149.309006 
z
" style="fill:#0000ff;"/>
   </g>
   <g id="patch_7">
    <path clip-path="url(#pe99d3bebb9)" d="M 367.59799 155.335282 
Q 363.141513 156.408283 358.322611 156.951023 
Q 353.503709 157.5 348.255267 157.5 
Q 332.603904 157.5 323.462756 153.432576 
Q 314.321608 149.365152 314.321608 142.409358 
Q 314.321608 135.42861 323.462756 131.367424 
Q 332.603904 127.3 348.255267 127.3 
Q 353.503709 127.3 358.322611 127.848977 
Q 363.141513 128.391717 367.59799 129.464718 
L 367.59799 135.484755 
Q 363.101243 134.062404 358.738728 133.401136 
Q 354.376212 132.739868 349.55731 132.739868 
Q 340.912818 132.739868 335.959685 135.316319 
Q 331.019975 137.886532 331.019975 142.409358 
Q 331.019975 146.913468 335.959685 149.489919 
Q 340.912818 152.060132 349.55731 152.060132 
Q 354.376212 152.060132 358.738728 151.398864 
Q 363.101243 150.731357 367.59799 149.309006 
z
" style="fill:#0000ff;"/>
   </g>
   <g id="patch_8">
    <path clip-path="url(#pe99d3bebb9)" d="M 407.306607 154.74925 
L 386.817366 154.74925 
L 383.582223 157.5 
L 370.40201 157.5 
L 389.224661 142.4 
L 404.855741 142.4 
L 423.678392 157.5 
L 410.509072 157.5 
z
M 390.085188 151.946721 
L 404.006107 151.946721 
L 397.05654 145.940377 
z
" style="fill:#008000;"/>
   </g>
   <g id="patch_9">
    <path clip-path="url(#pe99d3bebb9)" d="M 423.678392 141.317641 
Q 419.221915 141.854142 414.403013 142.125511 
Q 409.584111 142.4 404.335669 142.4 
Q 388.684306 142.4 379.543158 140.366288 
Q 370.40201 138.332576 370.40201 134.854679 
Q 370.40201 131.364305 379.543158 129.333712 
Q 388.684306 127.3 404.335669 127.3 
Q 409.584111 127.3 414.403013 127.574489 
Q 419.221915 127.845858 423.678392 128.382359 
L 423.678392 131.392378 
Q 419.181645 130.681202 414.81913 130.350568 
Q 410.456614 130.019934 405.637712 130.019934 
Q 396.99322 130.019934 392.040087 131.308159 
Q 387.100377 132.593266 387.100377 134.854679 
Q 387.100377 137.106734 392.040087 138.39496 
Q 396.99322 139.680066 405.637712 139.680066 
Q 410.456614 139.680066 414.81913 139.349432 
Q 419.181645 139.015679 423.678392 138.304503 
z
" style="fill:#0000ff;"/>
   </g>
   <g id="patch_10">
    <path clip-path="url(#pe99d3bebb9)" d="M 479.758794 156.417641 
Q 475.302317 156.954142 470.483415 157.225511 
Q 465.664513 157.5 460.416071 157.5 
Q 444.764708 157.5 435.62356 155.466288 
Q 426.482412 153.432576 426.482412 149.954679 
Q 426.482412 146.464305 435.62356 144.433712 
Q 444.764708 142.4 460.416071 142.4 
Q 465.664513 142.4 470.483415 142.674489 
Q 475.302317 142.945858 479.758794 143.482359 
L 479.758794 146.492378 
Q 475.262047 145.781202 470.899532 145.450568 
Q 466.537016 145.119934 461.718114 145.119934 
Q 453.073622 145.119934 448.120489 146.408159 
Q 443.180779 147.693266 443.180779 149.954679 
Q 443.180779 152.206734 448.120489 153.49496 
Q 453.073622 154.780066 461.718114 154.780066 
Q 466.537016 154.780066 470.899532 154.449432 
Q 475.262047 154.115679 479.758794 153.404503 
z
" style="fill:#0000ff;"/>
   </g>
   <g id="patch_11">
    <path clip-path="url(#pe99d3bebb9)" d="M 426.482412 127.3 
L 479.758794 127.3 
L 479.758794 130.244921 
L 460.591686 130.244921 
L 460.591686 142.4 
L 445.686689 142.4 
L 445.686689 130.244921 
L 426.482412 130.244921 
z
" style="fill:#ff0000;"/>
   </g>
   <g id="patch_12">
    <path clip-path="url(#pe99d3bebb9)" d="M 519.467411 154.74925 
L 498.97817 154.74925 
L 495.743027 157.5 
L 482.562814 157.5 
L 501.385465 142.4 
L 517.016545 142.4 
L 535.839196 157.5 
L 522.669876 157.5 
z
M 502.245992 151.946721 
L 516.166911 151.946721 
L 509.217344 145.940377 
z
" style="fill:#008000;"/>
   </g>
   <g id="patch_13">
    <path clip-path="url(#pe99d3bebb9)" d="M 535.839196 141.033795 
Q 530.466186 141.716897 524.687215 142.060008 
Q 518.908244 142.4 512.747192 142.4 
Q 498.825125 142.4 490.69397 140.366288 
Q 482.562814 138.332576 482.562814 134.854679 
Q 482.562814 131.336232 490.83725 129.318116 
Q 499.123626 127.3 513.535233 127.3 
Q 519.087344 127.3 524.173794 127.574489 
Q 529.272183 127.845858 533.785512 128.382359 
L 533.785512 131.392378 
Q 529.128903 130.703037 524.520054 130.363045 
Q 519.911206 130.019934 515.278477 130.019934 
Q 506.70554 130.019934 502.060871 131.273848 
Q 497.416202 132.524644 497.416202 134.854679 
Q 497.416202 137.16288 501.893711 138.423032 
Q 506.37122 139.680066 514.609835 139.680066 
Q 516.85456 139.680066 518.776903 139.608325 
Q 520.699247 139.533464 522.22757 139.377505 
L 522.22757 136.551518 
L 513.451653 136.551518 
L 513.451653 134.034332 
L 535.839196 134.034332 
z
" style="fill:#ffa600;"/>
   </g>
   <g id="patch_14">
    <path clip-path="url(#pe99d3bebb9)" d="M 591.919598 156.133795 
Q 586.546588 156.816897 580.767617 157.160008 
Q 574.988646 157.5 568.827594 157.5 
Q 554.905527 157.5 546.774372 155.466288 
Q 538.643216 153.432576 538.643216 149.954679 
Q 538.643216 146.436232 546.917652 144.418116 
Q 555.204028 142.4 569.615635 142.4 
Q 575.167746 142.4 580.254196 142.674489 
Q 585.352585 142.945858 589.865914 143.482359 
L 589.865914 146.492378 
Q 585.209305 145.803037 580.600456 145.463045 
Q 575.991608 145.119934 571.358879 145.119934 
Q 562.785942 145.119934 558.141273 146.373848 
Q 553.496604 147.624644 553.496604 149.954679 
Q 553.496604 152.26288 557.974113 153.523032 
Q 562.451622 154.780066 570.690237 154.780066 
Q 572.934962 154.780066 574.857305 154.708325 
Q 576.779649 154.633464 578.307972 154.477505 
L 578.307972 151.651518 
L 569.532055 151.651518 
L 569.532055 149.134332 
L 591.919598 149.134332 
z
" style="fill:#ffa600;"/>
   </g>
   <g id="patch_15">
    <path clip-path="url(#pe99d3bebb9)" d="M 538.643216 127.3 
L 591.919598 127.3 
L 591.919598 130.244921 
L 572.75249 130.244921 
L 572.75249 142.4 
L 557.847493 142.4 
L 557.847493 130.244921 
L 538.643216 130.244921 
z
" style="fill:#ff0000;"/>
   </g>
   <g id="patch_16">
    <path clip-path="url(#pe99d3bebb9)" d="M 591.919598 119.723487 
Q 587.463121 123.478992 582.644219 125.378579 
Q 577.825317 127.3 572.576875 127.3 
Q 556.925512 127.3 547.784364 113.064016 
Q 538.643216 98.828031 538.643216 74.482751 
Q 538.643216 50.050134 547.784364 35.835984 
Q 556.925512 21.6 572.576875 21.6 
Q 577.825317 21.6 582.644219 23.521421 
Q 587.463121 25.421008 591.919598 29.176513 
L 591.919598 50.246643 
Q 587.422851 45.268416 583.060336 42.953976 
Q 578.69782 40.639537 573.878918 40.639537 
Q 565.234426 40.639537 560.281293 49.657116 
Q 555.341583 58.652861 555.341583 74.482751 
Q 555.341583 90.247139 560.281293 99.264718 
Q 565.234426 108.260463 573.878918 108.260463 
Q 578.69782 108.260463 583.060336 105.946024 
Q 587.422851 103.60975 591.919598 98.631522 
z
" style="fill:#0000ff;"/>
   </g>
   <g id="patch_17">
    <path clip-path="url(#pe99d3bebb9)" d="M 648 156.133795 
Q 642.62699 156.816897 636.848019 157.160008 
Q 631.069048 157.5 624.907996 157.5 
Q 610.985929 157.5 602.854774 155.466288 
Q 594.723618 153.432576 594.723618 149.954679 
Q 594.723618 146.436232 602.998054 144.418116 
Q 611.28443 142.4 625.696037 142.4 
Q 631.248148 142.4 636.334598 142.674489 
Q 641.432987 142.945858 645.946316 143.482359 
L 645.946316 146.492378 
Q 641.289707 145.803037 636.680858 145.463045 
Q 632.07201 145.119934 627.439281 145.119934 
Q 618.866344 145.119934 614.221675 146.373848 
Q 609.577007 147.624644 609.577007 149.954679 
Q 609.577007 152.26288 614.054515 153.523032 
Q 618.532024 154.780066 626.770639 154.780066 
Q 629.015364 154.780066 630.937707 154.708325 
Q 632.860051 154.633464 634.388374 154.477505 
L 634.388374 151.651518 
L 625.612457 151.651518 
L 625.612457 149.134332 
L 648 149.134332 
z
" style="fill:#ffa600;"/>
   </g>
   <g id="patch_18">
    <path clip-path="url(#pe99d3bebb9)" d="M 648 133.741128 
Q 643.543523 138.033134 638.724621 140.20409 
Q 633.905719 142.4 628.657277 142.4 
Q 613.005914 142.4 603.864766 126.130304 
Q 594.723618 109.860607 594.723618 82.03743 
Q 594.723618 54.114439 603.864766 37.869696 
Q 613.005914 21.6 628.657277 21.6 
Q 633.905719 21.6 638.724621 23.79591 
Q 643.543523 25.966866 648 30.258872 
L 648 54.339021 
Q 643.503253 48.649618 639.140738 46.004545 
Q 634.778222 43.359471 629.95932 43.359471 
Q 621.314828 43.359471 616.361695 53.665276 
Q 611.421985 63.946127 611.421985 82.03743 
Q 611.421985 100.053873 616.361695 110.359678 
Q 621.314828 120.640529 629.95932 120.640529 
Q 634.778222 120.640529 639.140738 117.995455 
Q 643.503253 115.325429 648 109.636026 
z
" style="fill:#0000ff;"/>
   </g>
  </g>
 </g>
 <defs>
  <clipPath id="pe99d3bebb9">
   <rect height="135.9" width="558" x="90" y="21.6"/>
  </clipPath>
 </defs>
</svg>
