<?xml version="1.0" encoding="utf-8" standalone="no"?>
<!DOCTYPE svg PUBLIC "-//W3C//DTD SVG 1.1//EN"
  "http://www.w3.org/Graphics/SVG/1.1/DTD/svg11.dtd">
<!-- Created with matplotlib (https://matplotlib.org/) -->
<svg height="180pt" version="1.1" viewBox="0 0 720 180" width="720pt" xmlns="http://www.w3.org/2000/svg" xmlns:xlink="http://www.w3.org/1999/xlink">
 <metadata>
  <rdf:RDF xmlns:cc="http://creativecommons.org/ns#" xmlns:dc="http://purl.org/dc/elements/1.1/" xmlns:rdf="http://www.w3.org/1999/02/22-rdf-syntax-ns#">
   <cc:Work>
    <dc:type rdf:resource="http://purl.org/dc/dcmitype/StillImage"/>
    <dc:date>2021-08-04T23:33:31.943718</dc:date>
    <dc:format>image/svg+xml</dc:format>
    <dc:creator>
     <cc:Agent>
      <dc:title>Matplotlib v3.3.2, https://matplotlib.org/</dc:title>
     </cc:Agent>
    </dc:creator>
   </cc:Work>
  </rdf:RDF>
 </metadata>
 <defs>
  <style type="text/css">*{stroke-linecap:butt;stroke-linejoin:round;}</style>
 </defs>
 <g id="figure_1">
  <g id="patch_1">
   <path d="M 0 180 
L 720 180 
L 720 0 
L 0 0 
z
" style="fill:none;"/>
  </g>
  <g id="axes_1">
   <g id="line2d_1">
    <path clip-path="url(#pe0b1266aa0)" d="M 90 157.5 
L 648 157.5 
" style="fill:none;stroke:#000000;stroke-linecap:square;stroke-width:0.5;"/>
   </g>
   <g id="patch_2">
    <path clip-path="url(#pe0b1266aa0)" d="M 111.66376 154.74925 
L 99.636153 154.74925 
L 97.737057 157.5 
L 90 157.5 
L 101.049285 142.4 
L 110.225051 142.4 
L 121.274336 157.5 
L 113.543673 157.5 
z
M 101.554432 151.946721 
L 109.726299 151.946721 
L 105.64676 145.940377 
z
" style="fill:#008000;"/>
   </g>
   <g id="patch_3">
    <path clip-path="url(#pe0b1266aa0)" d="M 121.274336 139.152923 
Q 118.658292 140.762425 115.829497 141.576534 
Q 113.000702 142.4 109.919759 142.4 
Q 100.732085 142.4 95.366043 136.298864 
Q 90 130.197728 90 119.764036 
Q 90 109.292915 95.366043 103.201136 
Q 100.732085 97.1 109.919759 97.1 
Q 113.000702 97.1 115.829497 97.923466 
Q 118.658292 98.737575 121.274336 100.347077 
L 121.274336 109.377133 
Q 118.634653 107.243607 116.073766 106.251704 
Q 113.51288 105.259802 110.684085 105.259802 
Q 105.609589 105.259802 102.701998 109.124478 
Q 99.802286 112.979798 99.802286 119.764036 
Q 99.802286 126.520202 102.701998 130.384879 
Q 105.609589 134.240198 110.684085 134.240198 
Q 113.51288 134.240198 116.073766 133.248296 
Q 118.634653 132.247036 121.274336 130.11351 
z
" style="fill:#0000ff;"/>
   </g>
   <g id="patch_4">
    <path clip-path="url(#pe0b1266aa0)" d="M 121.274336 90.268973 
Q 118.120268 93.684487 114.727893 95.400041 
Q 111.335518 97.1 107.718853 97.1 
Q 99.546312 97.1 94.773156 86.93144 
Q 90 76.76288 90 59.373394 
Q 90 41.781161 94.857265 31.69058 
Q 99.721538 21.6 108.18145 21.6 
Q 111.440653 21.6 114.426504 22.972444 
Q 117.419364 24.329291 120.068781 27.011795 
L 120.068781 42.061888 
Q 117.335256 38.615183 114.629766 36.915224 
Q 111.924277 35.199669 109.204769 35.199669 
Q 104.172279 35.199669 101.445762 41.469242 
Q 98.719246 47.723218 98.719246 59.373394 
Q 98.719246 70.914398 101.347636 77.215162 
Q 103.976026 83.500331 108.812263 83.500331 
Q 110.129963 83.500331 111.258418 83.141624 
Q 112.386874 82.767321 113.284031 81.987523 
L 113.284031 67.857591 
L 108.132386 67.857591 
L 108.132386 55.271659 
L 121.274336 55.271659 
z
" style="fill:#ffa600;"/>
   </g>
   <g id="patch_5">
    <path clip-path="url(#pe0b1266aa0)" d="M 154.19469 154.767589 
Q 151.040622 156.133795 147.648247 156.820017 
Q 144.255872 157.5 140.639207 157.5 
Q 132.466666 157.5 127.69351 153.432576 
Q 122.920354 149.365152 122.920354 142.409358 
Q 122.920354 135.372464 127.777619 131.336232 
Q 132.641892 127.3 141.101804 127.3 
Q 144.361007 127.3 147.346858 127.848977 
Q 150.339718 128.391717 152.989135 129.464718 
L 152.989135 135.484755 
Q 150.25561 134.106073 147.55012 133.42609 
Q 144.844631 132.739868 142.125123 132.739868 
Q 137.092633 132.739868 134.366116 135.247697 
Q 131.6396 137.749287 131.6396 142.409358 
Q 131.6396 147.025759 134.26799 149.546065 
Q 136.89638 152.060132 141.732617 152.060132 
Q 143.050317 152.060132 144.178772 151.916649 
Q 145.307228 151.766928 146.204385 151.455009 
L 146.204385 145.803037 
L 141.05274 145.803037 
L 141.05274 140.768663 
L 154.19469 140.768663 
z
" style="fill:#ffa600;"/>
   </g>
   <g id="patch_6">
    <path clip-path="url(#pe0b1266aa0)" d="M 154.19469 124.052923 
Q 151.578646 125.662425 148.749851 126.476534 
Q 145.921056 127.3 142.840113 127.3 
Q 133.652439 127.3 128.286397 121.198864 
Q 122.920354 115.097728 122.920354 104.664036 
Q 122.920354 94.192915 128.286397 88.101136 
Q 133.652439 82 142.840113 82 
Q 145.921056 82 148.749851 82.823466 
Q 151.578646 83.637575 154.19469 85.247077 
L 154.19469 94.277133 
Q 151.555007 92.143607 148.99412 91.151704 
Q 146.433234 90.159802 143.604439 90.159802 
Q 138.529943 90.159802 135.622352 94.024478 
Q 132.72264 97.879798 132.72264 104.664036 
Q 132.72264 111.420202 135.622352 115.284879 
Q 138.529943 119.140198 143.604439 119.140198 
Q 146.433234 119.140198 148.99412 118.148296 
Q 151.555007 117.147036 154.19469 115.01351 
z
" style="fill:#0000ff;"/>
   </g>
   <g id="patch_7">
    <path clip-path="url(#pe0b1266aa0)" d="M 122.920354 21.6 
L 154.19469 21.6 
L 154.19469 33.379683 
L 142.943202 33.379683 
L 142.943202 82 
L 134.193661 82 
L 134.193661 33.379683 
L 122.920354 33.379683 
z
" style="fill:#ff0000;"/>
   </g>
   <g id="patch_8">
    <path clip-path="url(#pe0b1266aa0)" d="M 155.840708 142.4 
L 187.115044 142.4 
L 187.115044 145.344921 
L 175.863556 145.344921 
L 175.863556 157.5 
L 167.114015 157.5 
L 167.114015 145.344921 
L 155.840708 145.344921 
z
" style="fill:#ff0000;"/>
   </g>
   <g id="patch_9">
    <path clip-path="url(#pe0b1266aa0)" d="M 187.115044 131.470357 
Q 183.960976 136.935179 180.568601 139.680066 
Q 177.176226 142.4 173.559561 142.4 
Q 165.38702 142.4 160.613864 126.130304 
Q 155.840708 109.860607 155.840708 82.03743 
Q 155.840708 53.889857 160.697973 37.744929 
Q 165.562246 21.6 174.022158 21.6 
Q 177.281361 21.6 180.267212 23.79591 
Q 183.260072 25.966866 185.909489 30.258872 
L 185.909489 54.339021 
Q 183.175964 48.824293 180.470474 46.104359 
Q 177.764985 43.359471 175.045477 43.359471 
Q 170.012987 43.359471 167.28647 53.390787 
Q 164.559954 63.397149 164.559954 82.03743 
Q 164.559954 100.503037 167.188344 110.584259 
Q 169.816734 120.640529 174.652971 120.640529 
Q 175.970671 120.640529 177.099126 120.066598 
Q 178.227582 119.467713 179.124739 118.220037 
L 179.124739 95.612146 
L 173.973094 95.612146 
L 173.973094 75.474654 
L 187.115044 75.474654 
z
" style="fill:#ffa600;"/>
   </g>
   <g id="patch_10">
    <path clip-path="url(#pe0b1266aa0)" d="M 210.424822 154.74925 
L 198.397215 154.74925 
L 196.498119 157.5 
L 188.761062 157.5 
L 199.810347 142.4 
L 208.986113 142.4 
L 220.035398 157.5 
L 212.304735 157.5 
z
M 200.315494 151.946721 
L 208.487361 151.946721 
L 204.407821 145.940377 
z
" style="fill:#008000;"/>
   </g>
   <g id="patch_11">
    <path clip-path="url(#pe0b1266aa0)" d="M 220.035398 140.235282 
Q 217.419354 141.308283 214.590559 141.851023 
Q 211.761764 142.4 208.680821 142.4 
Q 199.493147 142.4 194.127105 138.332576 
Q 188.761062 134.265152 188.761062 127.309358 
Q 188.761062 120.32861 194.127105 116.267424 
Q 199.493147 112.2 208.680821 112.2 
Q 211.761764 112.2 214.590559 112.748977 
Q 217.419354 113.291717 220.035398 114.364718 
L 220.035398 120.384755 
Q 217.395715 118.962404 214.834828 118.301136 
Q 212.273942 117.639868 209.445147 117.639868 
Q 204.370651 117.639868 201.46306 120.216319 
Q 198.563348 122.786532 198.563348 127.309358 
Q 198.563348 131.813468 201.46306 134.389919 
Q 204.370651 136.960132 209.445147 136.960132 
Q 212.273942 136.960132 214.834828 136.298864 
Q 217.395715 135.631357 220.035398 134.209006 
z
" style="fill:#0000ff;"/>
   </g>
   <g id="patch_12">
    <path clip-path="url(#pe0b1266aa0)" d="M 188.761062 21.6 
L 220.035398 21.6 
L 220.035398 39.269524 
L 208.78391 39.269524 
L 208.78391 112.2 
L 200.034369 112.2 
L 200.034369 39.269524 
L 188.761062 39.269524 
z
" style="fill:#ff0000;"/>
   </g>
   <g id="patch_13">
    <path clip-path="url(#pe0b1266aa0)" d="M 252.955752 154.767589 
Q 249.801684 156.133795 246.409309 156.820017 
Q 243.016934 157.5 239.400269 157.5 
Q 231.227728 157.5 226.454572 153.432576 
Q 221.681416 149.365152 221.681416 142.409358 
Q 221.681416 135.372464 226.538681 131.336232 
Q 231.402954 127.3 239.862866 127.3 
Q 243.122069 127.3 246.10792 127.848977 
Q 249.10078 128.391717 251.750197 129.464718 
L 251.750197 135.484755 
Q 249.016672 134.106073 246.311182 133.42609 
Q 243.605693 132.739868 240.886185 132.739868 
Q 235.853695 132.739868 233.127178 135.247697 
Q 230.400662 137.749287 230.400662 142.409358 
Q 230.400662 147.025759 233.029052 149.546065 
Q 235.657442 152.060132 240.493679 152.060132 
Q 241.811379 152.060132 242.939834 151.916649 
Q 244.06829 151.766928 244.965447 151.455009 
L 244.965447 145.803037 
L 239.813802 145.803037 
L 239.813802 140.768663 
L 252.955752 140.768663 
z
" style="fill:#ffa600;"/>
   </g>
   <g id="patch_14">
    <path clip-path="url(#pe0b1266aa0)" d="M 252.955752 124.052923 
Q 250.339708 125.662425 247.510913 126.476534 
Q 244.682118 127.3 241.601175 127.3 
Q 232.413501 127.3 227.047459 121.198864 
Q 221.681416 115.097728 221.681416 104.664036 
Q 221.681416 94.192915 227.047459 88.101136 
Q 232.413501 82 241.601175 82 
Q 244.682118 82 247.510913 82.823466 
Q 250.339708 83.637575 252.955752 85.247077 
L 252.955752 94.277133 
Q 250.316069 92.143607 247.755182 91.151704 
Q 245.194296 90.159802 242.365501 90.159802 
Q 237.291005 90.159802 234.383414 94.024478 
Q 231.483702 97.879798 231.483702 104.664036 
Q 231.483702 111.420202 234.383414 115.284879 
Q 237.291005 119.140198 242.365501 119.140198 
Q 245.194296 119.140198 247.755182 118.148296 
Q 250.316069 117.147036 252.955752 115.01351 
z
" style="fill:#0000ff;"/>
   </g>
   <g id="patch_15">
    <path clip-path="url(#pe0b1266aa0)" d="M 243.345176 70.997 
L 231.317569 70.997 
L 229.418473 82 
L 221.681416 82 
L 232.730701 21.6 
L 241.906467 21.6 
L 252.955752 82 
L 245.225089 82 
z
M 233.235848 59.786884 
L 241.407715 59.786884 
L 237.328175 35.761509 
z
" style="fill:#008000;"/>
   </g>
   <g id="patch_16">
    <path clip-path="url(#pe0b1266aa0)" d="M 254.60177 142.4 
L 285.876106 142.4 
L 285.876106 145.344921 
L 274.624618 145.344921 
L 274.624618 157.5 
L 265.875077 157.5 
L 265.875077 145.344921 
L 254.60177 145.344921 
z
" style="fill:#ff0000;"/>
   </g>
   <g id="patch_17">
    <path clip-path="url(#pe0b1266aa0)" d="M 285.876106 139.152923 
Q 283.260062 140.762425 280.431267 141.576534 
Q 277.602472 142.4 274.521529 142.4 
Q 265.333855 142.4 259.967812 136.298864 
Q 254.60177 130.197728 254.60177 119.764036 
Q 254.60177 109.292915 259.967812 103.201136 
Q 265.333855 97.1 274.521529 97.1 
Q 277.602472 97.1 280.431267 97.923466 
Q 283.260062 98.737575 285.876106 100.347077 
L 285.876106 109.377133 
Q 283.236423 107.243607 280.675536 106.251704 
Q 278.11465 105.259802 275.285855 105.259802 
Q 270.211359 105.259802 267.303768 109.124478 
Q 264.404056 112.979798 264.404056 119.764036 
Q 264.404056 126.520202 267.303768 130.384879 
Q 270.211359 134.240198 275.285855 134.240198 
Q 278.11465 134.240198 280.675536 133.248296 
Q 283.236423 132.247036 285.876106 130.11351 
z
" style="fill:#0000ff;"/>
   </g>
   <g id="patch_18">
    <path clip-path="url(#pe0b1266aa0)" d="M 276.26553 83.346249 
L 264.237923 83.346249 
L 262.338827 97.1 
L 254.60177 97.1 
L 265.651055 21.6 
L 274.826821 21.6 
L 285.876106 97.1 
L 278.145443 97.1 
z
M 266.156202 69.333605 
L 274.328069 69.333605 
L 270.248529 39.301886 
z
" style="fill:#008000;"/>
   </g>
   <g id="patch_19">
    <path clip-path="url(#pe0b1266aa0)" d="M 309.185884 151.9985 
L 297.158277 151.9985 
L 295.259181 157.5 
L 287.522124 157.5 
L 298.571409 127.3 
L 307.747175 127.3 
L 318.79646 157.5 
L 311.065797 157.5 
z
M 299.076556 146.393442 
L 307.248423 146.393442 
L 303.168883 134.380754 
z
" style="fill:#008000;"/>
   </g>
   <g id="patch_20">
    <path clip-path="url(#pe0b1266aa0)" d="M 318.79646 117.736563 
Q 315.642392 122.518281 312.250017 124.920058 
Q 308.857642 127.3 305.240977 127.3 
Q 297.068436 127.3 292.29528 113.064016 
Q 287.522124 98.828031 287.522124 74.482751 
Q 287.522124 49.853625 292.379389 35.726813 
Q 297.243662 21.6 305.703574 21.6 
Q 308.962777 21.6 311.948628 23.521421 
Q 314.941488 25.421008 317.590905 29.176513 
L 317.590905 50.246643 
Q 314.85738 45.421256 312.15189 43.041314 
Q 309.446401 40.639537 306.726893 40.639537 
Q 301.694403 40.639537 298.967886 49.416939 
Q 296.24137 58.172506 296.24137 74.482751 
Q 296.24137 90.640157 298.86976 99.461227 
Q 301.49815 108.260463 306.334387 108.260463 
Q 307.652087 108.260463 308.780542 107.758273 
Q 309.908998 107.234249 310.806155 106.142533 
L 310.806155 86.360628 
L 305.65451 86.360628 
L 305.65451 68.740322 
L 318.79646 68.740322 
z
" style="fill:#ffa600;"/>
   </g>
   <g id="patch_21">
    <path clip-path="url(#pe0b1266aa0)" d="M 320.442478 142.4 
L 351.716814 142.4 
L 351.716814 145.344921 
L 340.465326 145.344921 
L 340.465326 157.5 
L 331.715785 157.5 
L 331.715785 145.344921 
L 320.442478 145.344921 
z
" style="fill:#ff0000;"/>
   </g>
   <g id="patch_22">
    <path clip-path="url(#pe0b1266aa0)" d="M 351.716814 131.470357 
Q 348.562746 136.935179 345.170371 139.680066 
Q 341.777996 142.4 338.161331 142.4 
Q 329.98879 142.4 325.215634 126.130304 
Q 320.442478 109.860607 320.442478 82.03743 
Q 320.442478 53.889857 325.299743 37.744929 
Q 330.164016 21.6 338.623928 21.6 
Q 341.883131 21.6 344.868982 23.79591 
Q 347.861842 25.966866 350.511259 30.258872 
L 350.511259 54.339021 
Q 347.777734 48.824293 345.072244 46.104359 
Q 342.366755 43.359471 339.647247 43.359471 
Q 334.614757 43.359471 331.88824 53.390787 
Q 329.161724 63.397149 329.161724 82.03743 
Q 329.161724 100.503037 331.790114 110.584259 
Q 334.418504 120.640529 339.254741 120.640529 
Q 340.572441 120.640529 341.700896 120.066598 
Q 342.829351 119.467713 343.726509 118.220037 
L 343.726509 95.612146 
L 338.574864 95.612146 
L 338.574864 75.474654 
L 351.716814 75.474654 
z
" style="fill:#ffa600;"/>
   </g>
   <g id="patch_23">
    <path clip-path="url(#pe0b1266aa0)" d="M 353.362832 21.6 
L 384.637168 21.6 
L 384.637168 48.104286 
L 373.38568 48.104286 
L 373.38568 157.5 
L 364.636139 157.5 
L 364.636139 48.104286 
L 353.362832 48.104286 
z
" style="fill:#ff0000;"/>
   </g>
   <g id="patch_24">
    <path clip-path="url(#pe0b1266aa0)" d="M 417.557522 156.133795 
Q 414.403454 156.816897 411.011079 157.160008 
Q 407.618703 157.5 404.002039 157.5 
Q 395.829498 157.5 391.056342 155.466288 
Q 386.283186 153.432576 386.283186 149.954679 
Q 386.283186 146.436232 391.140451 144.418116 
Q 396.004724 142.4 404.464635 142.4 
Q 407.723839 142.4 410.70969 142.674489 
Q 413.70255 142.945858 416.351967 143.482359 
L 416.351967 146.492378 
Q 413.618442 145.803037 410.912952 145.463045 
Q 408.207463 145.119934 405.487955 145.119934 
Q 400.455465 145.119934 397.728948 146.373848 
Q 395.002432 147.624644 395.002432 149.954679 
Q 395.002432 152.26288 397.630822 153.523032 
Q 400.259212 154.780066 405.095449 154.780066 
Q 406.413149 154.780066 407.541604 154.708325 
Q 408.670059 154.633464 409.567217 154.477505 
L 409.567217 151.651518 
L 404.415572 151.651518 
L 404.415572 149.134332 
L 417.557522 149.134332 
z
" style="fill:#ffa600;"/>
   </g>
   <g id="patch_25">
    <path clip-path="url(#pe0b1266aa0)" d="M 407.946946 120.393999 
L 395.919339 120.393999 
L 394.020243 142.4 
L 386.283186 142.4 
L 397.332471 21.6 
L 406.508237 21.6 
L 417.557522 142.4 
L 409.826859 142.4 
z
M 397.837618 97.973768 
L 406.009485 97.973768 
L 401.929945 49.923018 
z
" style="fill:#008000;"/>
   </g>
   <g id="patch_26">
    <path clip-path="url(#pe0b1266aa0)" d="M 419.20354 21.6 
L 450.477876 21.6 
L 450.477876 48.104286 
L 439.226388 48.104286 
L 439.226388 157.5 
L 430.476847 157.5 
L 430.476847 48.104286 
L 419.20354 48.104286 
z
" style="fill:#ff0000;"/>
   </g>
   <g id="patch_27">
    <path clip-path="url(#pe0b1266aa0)" d="M 473.787654 132.743249 
L 461.760047 132.743249 
L 459.860951 157.5 
L 452.123894 157.5 
L 463.173179 21.6 
L 472.348945 21.6 
L 483.39823 157.5 
L 475.667567 157.5 
z
M 463.678326 107.520489 
L 471.850193 107.520489 
L 467.770653 53.463395 
z
" style="fill:#008000;"/>
   </g>
   <g id="patch_28">
    <path clip-path="url(#pe0b1266aa0)" d="M 506.708008 149.24775 
L 494.680401 149.24775 
L 492.781305 157.5 
L 485.044248 157.5 
L 496.093533 112.2 
L 505.269299 112.2 
L 516.318584 157.5 
L 508.587921 157.5 
z
M 496.59868 140.840163 
L 504.770547 140.840163 
L 500.691007 122.821132 
z
" style="fill:#008000;"/>
   </g>
   <g id="patch_29">
    <path clip-path="url(#pe0b1266aa0)" d="M 516.318584 104.002768 
Q 513.164516 108.101384 509.772141 110.16005 
Q 506.379765 112.2 502.763101 112.2 
Q 494.59056 112.2 489.817404 99.997728 
Q 485.044248 87.795455 485.044248 66.928073 
Q 485.044248 45.817393 489.901512 33.708697 
Q 494.765786 21.6 503.225697 21.6 
Q 506.484901 21.6 509.470752 23.246932 
Q 512.463612 24.87515 515.113029 28.094154 
L 515.113029 46.154266 
Q 512.379504 42.018219 509.674014 39.978269 
Q 506.968525 37.919603 504.249017 37.919603 
Q 499.216527 37.919603 496.49001 45.44309 
Q 493.763493 52.947862 493.763493 66.928073 
Q 493.763493 80.777277 496.391883 88.338195 
Q 499.020273 95.880397 503.856511 95.880397 
Q 505.174211 95.880397 506.302666 95.449948 
Q 507.431121 95.000785 508.328279 94.065028 
L 508.328279 77.10911 
L 503.176634 77.10911 
L 503.176634 62.00599 
L 516.318584 62.00599 
z
" style="fill:#ffa600;"/>
   </g>
   <g id="patch_30">
    <path clip-path="url(#pe0b1266aa0)" d="M 517.964602 142.4 
L 549.238938 142.4 
L 549.238938 145.344921 
L 537.98745 145.344921 
L 537.98745 157.5 
L 529.237909 157.5 
L 529.237909 145.344921 
L 517.964602 145.344921 
z
" style="fill:#ff0000;"/>
   </g>
   <g id="patch_31">
    <path clip-path="url(#pe0b1266aa0)" d="M 549.238938 131.470357 
Q 546.08487 136.935179 542.692495 139.680066 
Q 539.300119 142.4 535.683455 142.4 
Q 527.510914 142.4 522.737758 126.130304 
Q 517.964602 109.860607 517.964602 82.03743 
Q 517.964602 53.889857 522.821866 37.744929 
Q 527.68614 21.6 536.146051 21.6 
Q 539.405255 21.6 542.391106 23.79591 
Q 545.383966 25.966866 548.033383 30.258872 
L 548.033383 54.339021 
Q 545.299858 48.824293 542.594368 46.104359 
Q 539.888879 43.359471 537.169371 43.359471 
Q 532.136881 43.359471 529.410364 53.390787 
Q 526.683847 63.397149 526.683847 82.03743 
Q 526.683847 100.503037 529.312237 110.584259 
Q 531.940627 120.640529 536.776865 120.640529 
Q 538.094565 120.640529 539.22302 120.066598 
Q 540.351475 119.467713 541.248633 118.220037 
L 541.248633 95.612146 
L 536.096988 95.612146 
L 536.096988 75.474654 
L 549.238938 75.474654 
z
" style="fill:#ffa600;"/>
   </g>
   <g id="patch_32">
    <path clip-path="url(#pe0b1266aa0)" d="M 572.548716 151.9985 
L 560.521109 151.9985 
L 558.622013 157.5 
L 550.884956 157.5 
L 561.934241 127.3 
L 571.110007 127.3 
L 582.159292 157.5 
L 574.428629 157.5 
z
M 562.439387 146.393442 
L 570.611255 146.393442 
L 566.531715 134.380754 
z
" style="fill:#008000;"/>
   </g>
   <g id="patch_33">
    <path clip-path="url(#pe0b1266aa0)" d="M 582.159292 117.736563 
Q 579.005224 122.518281 575.612849 124.920058 
Q 572.220473 127.3 568.603809 127.3 
Q 560.431268 127.3 555.658112 113.064016 
Q 550.884956 98.828031 550.884956 74.482751 
Q 550.884956 49.853625 555.74222 35.726813 
Q 560.606494 21.6 569.066405 21.6 
Q 572.325609 21.6 575.31146 23.521421 
Q 578.30432 25.421008 580.953737 29.176513 
L 580.953737 50.246643 
Q 578.220212 45.421256 575.514722 43.041314 
Q 572.809233 40.639537 570.089725 40.639537 
Q 565.057235 40.639537 562.330718 49.416939 
Q 559.604201 58.172506 559.604201 74.482751 
Q 559.604201 90.640157 562.232591 99.461227 
Q 564.860981 108.260463 569.697219 108.260463 
Q 571.014919 108.260463 572.143374 107.758273 
Q 573.271829 107.234249 574.168986 106.142533 
L 574.168986 86.360628 
L 569.017342 86.360628 
L 569.017342 68.740322 
L 582.159292 68.740322 
z
" style="fill:#ffa600;"/>
   </g>
   <g id="patch_34">
    <path clip-path="url(#pe0b1266aa0)" d="M 583.80531 142.4 
L 615.079646 142.4 
L 615.079646 145.344921 
L 603.828158 145.344921 
L 603.828158 157.5 
L 595.078617 157.5 
L 595.078617 145.344921 
L 583.80531 145.344921 
z
" style="fill:#ff0000;"/>
   </g>
   <g id="patch_35">
    <path clip-path="url(#pe0b1266aa0)" d="M 615.079646 138.301384 
Q 611.925578 140.350692 608.533203 141.380025 
Q 605.140827 142.4 601.524163 142.4 
Q 593.351622 142.4 588.578466 136.298864 
Q 583.80531 130.197728 583.80531 119.764036 
Q 583.80531 109.208697 588.662574 103.154348 
Q 593.526848 97.1 601.986759 97.1 
Q 605.245963 97.1 608.231814 97.923466 
Q 611.224674 98.737575 613.874091 100.347077 
L 613.874091 109.377133 
Q 611.140566 107.30911 608.435076 106.289134 
Q 605.729587 105.259802 603.010079 105.259802 
Q 597.977589 105.259802 595.251072 109.021545 
Q 592.524555 112.773931 592.524555 119.764036 
Q 592.524555 126.688639 595.152945 130.469097 
Q 597.781335 134.240198 602.617573 134.240198 
Q 603.935272 134.240198 605.063728 134.024974 
Q 606.192183 133.800392 607.08934 133.332514 
L 607.08934 124.854555 
L 601.937696 124.854555 
L 601.937696 117.302995 
L 615.079646 117.302995 
z
" style="fill:#ffa600;"/>
   </g>
   <g id="patch_36">
    <path clip-path="url(#pe0b1266aa0)" d="M 615.079646 91.688205 
Q 612.463602 94.370709 609.634807 95.727556 
Q 606.806012 97.1 603.725068 97.1 
Q 594.537395 97.1 589.171352 86.93144 
Q 583.80531 76.76288 583.80531 59.373394 
Q 583.80531 41.921524 589.171352 31.76856 
Q 594.537395 21.6 603.725068 21.6 
Q 606.806012 21.6 609.634807 22.972444 
Q 612.463602 24.329291 615.079646 27.011795 
L 615.079646 42.061888 
Q 612.439963 38.506011 609.879076 36.85284 
Q 607.318189 35.199669 604.489395 35.199669 
Q 599.414899 35.199669 596.507308 41.640797 
Q 593.607596 48.066329 593.607596 59.373394 
Q 593.607596 70.633671 596.507308 77.074799 
Q 599.414899 83.500331 604.489395 83.500331 
Q 607.318189 83.500331 609.879076 81.84716 
Q 612.439963 80.178393 615.079646 76.622516 
z
" style="fill:#0000ff;"/>
   </g>
   <g id="patch_37">
    <path clip-path="url(#pe0b1266aa0)" d="M 638.389424 151.9985 
L 626.361817 151.9985 
L 624.462721 157.5 
L 616.725664 157.5 
L 627.774949 127.3 
L 636.950715 127.3 
L 648 157.5 
L 640.269337 157.5 
z
M 628.280095 146.393442 
L 636.451963 146.393442 
L 632.372423 134.380754 
z
" style="fill:#008000;"/>
   </g>
   <g id="patch_38">
    <path clip-path="url(#pe0b1266aa0)" d="M 648 125.135282 
Q 645.383956 126.208283 642.555161 126.751023 
Q 639.726366 127.3 636.645422 127.3 
Q 627.457749 127.3 622.091706 123.232576 
Q 616.725664 119.165152 616.725664 112.209358 
Q 616.725664 105.22861 622.091706 101.167424 
Q 627.457749 97.1 636.645422 97.1 
Q 639.726366 97.1 642.555161 97.648977 
Q 645.383956 98.191717 648 99.264718 
L 648 105.284755 
Q 645.360317 103.862404 642.79943 103.201136 
Q 640.238543 102.539868 637.409749 102.539868 
Q 632.335253 102.539868 629.427662 105.116319 
Q 626.52795 107.686532 626.52795 112.209358 
Q 626.52795 116.713468 629.427662 119.289919 
Q 632.335253 121.860132 637.409749 121.860132 
Q 640.238543 121.860132 642.79943 121.198864 
Q 645.360317 120.531357 648 119.109006 
z
" style="fill:#0000ff;"/>
   </g>
   <g id="patch_39">
    <path clip-path="url(#pe0b1266aa0)" d="M 648 94.367589 
Q 644.845932 95.733795 641.453557 96.420017 
Q 638.061181 97.1 634.444517 97.1 
Q 626.271976 97.1 621.49882 93.032576 
Q 616.725664 88.965152 616.725664 82.009358 
Q 616.725664 74.972464 621.582928 70.936232 
Q 626.447202 66.9 634.907113 66.9 
Q 638.166317 66.9 641.152168 67.448977 
Q 644.145028 67.991717 646.794445 69.064718 
L 646.794445 75.084755 
Q 644.06092 73.706073 641.35543 73.02609 
Q 638.649941 72.339868 635.930433 72.339868 
Q 630.897943 72.339868 628.171426 74.847697 
Q 625.444909 77.349287 625.444909 82.009358 
Q 625.444909 86.625759 628.073299 89.146065 
Q 630.701689 91.660132 635.537927 91.660132 
Q 636.855626 91.660132 637.984082 91.516649 
Q 639.112537 91.366928 640.009694 91.055009 
L 640.009694 85.403037 
L 634.85805 85.403037 
L 634.85805 80.368663 
L 648 80.368663 
z
" style="fill:#ffa600;"/>
   </g>
   <g id="patch_40">
    <path clip-path="url(#pe0b1266aa0)" d="M 616.725664 21.6 
L 648 21.6 
L 648 30.434762 
L 636.748512 30.434762 
L 636.748512 66.9 
L 627.998971 66.9 
L 627.998971 30.434762 
L 616.725664 30.434762 
z
" style="fill:#ff0000;"/>
   </g>
  </g>
 </g>
 <defs>
  <clipPath id="pe0b1266aa0">
   <rect height="135.9" width="558" x="90" y="21.6"/>
  </clipPath>
 </defs>
</svg>
