<?xml version="1.0" encoding="utf-8" standalone="no"?>
<!DOCTYPE svg PUBLIC "-//W3C//DTD SVG 1.1//EN"
  "http://www.w3.org/Graphics/SVG/1.1/DTD/svg11.dtd">
<!-- Created with matplotlib (https://matplotlib.org/) -->
<svg height="180pt" version="1.1" viewBox="0 0 720 180" width="720pt" xmlns="http://www.w3.org/2000/svg" xmlns:xlink="http://www.w3.org/1999/xlink">
 <metadata>
  <rdf:RDF xmlns:cc="http://creativecommons.org/ns#" xmlns:dc="http://purl.org/dc/elements/1.1/" xmlns:rdf="http://www.w3.org/1999/02/22-rdf-syntax-ns#">
   <cc:Work>
    <dc:type rdf:resource="http://purl.org/dc/dcmitype/StillImage"/>
    <dc:date>2021-08-04T23:33:44.112301</dc:date>
    <dc:format>image/svg+xml</dc:format>
    <dc:creator>
     <cc:Agent>
      <dc:title>Matplotlib v3.3.2, https://matplotlib.org/</dc:title>
     </cc:Agent>
    </dc:creator>
   </cc:Work>
  </rdf:RDF>
 </metadata>
 <defs>
  <style type="text/css">*{stroke-linecap:butt;stroke-linejoin:round;}</style>
 </defs>
 <g id="figure_1">
  <g id="patch_1">
   <path d="M 0 180 
L 720 180 
L 720 0 
L 0 0 
z
" style="fill:none;"/>
  </g>
  <g id="axes_1">
   <g id="line2d_1">
    <path clip-path="url(#p95e1894b47)" d="M 90 157.5 
L 648 157.5 
" style="fill:none;stroke:#000000;stroke-linecap:square;stroke-width:0.5;"/>
   </g>
   <g id="patch_2">
    <path clip-path="url(#p95e1894b47)" d="M 111.66376 154.74925 
L 99.636153 154.74925 
L 97.737057 157.5 
L 90 157.5 
L 101.049285 142.4 
L 110.225051 142.4 
L 121.274336 157.5 
L 113.543673 157.5 
z
M 101.554432 151.946721 
L 109.726299 151.946721 
L 105.64676 145.940377 
z
" style="fill:#008000;"/>
   </g>
   <g id="patch_3">
    <path clip-path="url(#p95e1894b47)" d="M 121.274336 141.033795 
Q 118.120268 141.716897 114.727893 142.060008 
Q 111.335518 142.4 107.718853 142.4 
Q 99.546312 142.4 94.773156 140.366288 
Q 90 138.332576 90 134.854679 
Q 90 131.336232 94.857265 129.318116 
Q 99.721538 127.3 108.18145 127.3 
Q 111.440653 127.3 114.426504 127.574489 
Q 117.419364 127.845858 120.068781 128.382359 
L 120.068781 131.392378 
Q 117.335256 130.703037 114.629766 130.363045 
Q 111.924277 130.019934 109.204769 130.019934 
Q 104.172279 130.019934 101.445762 131.273848 
Q 98.719246 132.524644 98.719246 134.854679 
Q 98.719246 137.16288 101.347636 138.423032 
Q 103.976026 139.680066 108.812263 139.680066 
Q 110.129963 139.680066 111.258418 139.608325 
Q 112.386874 139.533464 113.284031 139.377505 
L 113.284031 136.551518 
L 108.132386 136.551518 
L 108.132386 134.034332 
L 121.274336 134.034332 
z
" style="fill:#ffa600;"/>
   </g>
   <g id="patch_4">
    <path clip-path="url(#p95e1894b47)" d="M 90 112.2 
L 121.274336 112.2 
L 121.274336 115.144921 
L 110.022848 115.144921 
L 110.022848 127.3 
L 101.273307 127.3 
L 101.273307 115.144921 
L 90 115.144921 
z
" style="fill:#ff0000;"/>
   </g>
   <g id="patch_5">
    <path clip-path="url(#p95e1894b47)" d="M 121.274336 108.952923 
Q 118.658292 110.562425 115.829497 111.376534 
Q 113.000702 112.2 109.919759 112.2 
Q 100.732085 112.2 95.366043 106.098864 
Q 90 99.997728 90 89.564036 
Q 90 79.092915 95.366043 73.001136 
Q 100.732085 66.9 109.919759 66.9 
Q 113.000702 66.9 115.829497 67.723466 
Q 118.658292 68.537575 121.274336 70.147077 
L 121.274336 79.177133 
Q 118.634653 77.043607 116.073766 76.051704 
Q 113.51288 75.059802 110.684085 75.059802 
Q 105.609589 75.059802 102.701998 78.924478 
Q 99.802286 82.779798 99.802286 89.564036 
Q 99.802286 96.320202 102.701998 100.184879 
Q 105.609589 104.040198 110.684085 104.040198 
Q 113.51288 104.040198 116.073766 103.048296 
Q 118.634653 102.047036 121.274336 99.91351 
z
" style="fill:#0000ff;"/>
   </g>
   <g id="patch_6">
    <path clip-path="url(#p95e1894b47)" d="M 144.584114 140.995499 
L 132.556507 140.995499 
L 130.657411 157.5 
L 122.920354 157.5 
L 133.969639 66.9 
L 143.145405 66.9 
L 154.19469 157.5 
L 146.464027 157.5 
z
M 134.474786 124.180326 
L 142.646653 124.180326 
L 138.567114 88.142263 
z
" style="fill:#008000;"/>
   </g>
   <g id="patch_7">
    <path clip-path="url(#p95e1894b47)" d="M 155.840708 142.4 
L 187.115044 142.4 
L 187.115044 145.344921 
L 175.863556 145.344921 
L 175.863556 157.5 
L 167.114015 157.5 
L 167.114015 145.344921 
L 155.840708 145.344921 
z
" style="fill:#ff0000;"/>
   </g>
   <g id="patch_8">
    <path clip-path="url(#p95e1894b47)" d="M 187.115044 139.667589 
Q 183.960976 141.033795 180.568601 141.720017 
Q 177.176226 142.4 173.559561 142.4 
Q 165.38702 142.4 160.613864 138.332576 
Q 155.840708 134.265152 155.840708 127.309358 
Q 155.840708 120.272464 160.697973 116.236232 
Q 165.562246 112.2 174.022158 112.2 
Q 177.281361 112.2 180.267212 112.748977 
Q 183.260072 113.291717 185.909489 114.364718 
L 185.909489 120.384755 
Q 183.175964 119.006073 180.470474 118.32609 
Q 177.764985 117.639868 175.045477 117.639868 
Q 170.012987 117.639868 167.28647 120.147697 
Q 164.559954 122.649287 164.559954 127.309358 
Q 164.559954 131.925759 167.188344 134.446065 
Q 169.816734 136.960132 174.652971 136.960132 
Q 175.970671 136.960132 177.099126 136.816649 
Q 178.227582 136.666928 179.124739 136.355009 
L 179.124739 130.703037 
L 173.973094 130.703037 
L 173.973094 125.668663 
L 187.115044 125.668663 
z
" style="fill:#ffa600;"/>
   </g>
   <g id="patch_9">
    <path clip-path="url(#p95e1894b47)" d="M 177.504468 103.94775 
L 165.476861 103.94775 
L 163.577765 112.2 
L 155.840708 112.2 
L 166.889993 66.9 
L 176.065759 66.9 
L 187.115044 112.2 
L 179.384381 112.2 
z
M 167.39514 95.540163 
L 175.567007 95.540163 
L 171.487467 77.521132 
z
" style="fill:#008000;"/>
   </g>
   <g id="patch_10">
    <path clip-path="url(#p95e1894b47)" d="M 210.424822 154.74925 
L 198.397215 154.74925 
L 196.498119 157.5 
L 188.761062 157.5 
L 199.810347 142.4 
L 208.986113 142.4 
L 220.035398 157.5 
L 212.304735 157.5 
z
M 200.315494 151.946721 
L 208.487361 151.946721 
L 204.407821 145.940377 
z
" style="fill:#008000;"/>
   </g>
   <g id="patch_11">
    <path clip-path="url(#p95e1894b47)" d="M 188.761062 127.3 
L 220.035398 127.3 
L 220.035398 130.244921 
L 208.78391 130.244921 
L 208.78391 142.4 
L 200.034369 142.4 
L 200.034369 130.244921 
L 188.761062 130.244921 
z
" style="fill:#ff0000;"/>
   </g>
   <g id="patch_12">
    <path clip-path="url(#p95e1894b47)" d="M 220.035398 121.835179 
Q 216.88133 124.567589 213.488955 125.940033 
Q 210.09658 127.3 206.479915 127.3 
Q 198.307374 127.3 193.534218 119.165152 
Q 188.761062 111.030304 188.761062 97.118715 
Q 188.761062 83.044929 193.618327 74.972464 
Q 198.4826 66.9 206.942512 66.9 
Q 210.201715 66.9 213.187566 67.997955 
Q 216.180426 69.083433 218.829843 71.229436 
L 218.829843 83.26951 
Q 216.096318 80.512146 213.390828 79.152179 
Q 210.685339 77.779736 207.965831 77.779736 
Q 202.933341 77.779736 200.206824 82.795394 
Q 197.480308 87.798575 197.480308 97.118715 
Q 197.480308 106.351518 200.108698 111.39213 
Q 202.737088 116.420264 207.573325 116.420264 
Q 208.891025 116.420264 210.01948 116.133299 
Q 211.147936 115.833857 212.045093 115.210019 
L 212.045093 103.906073 
L 206.893448 103.906073 
L 206.893448 93.837327 
L 220.035398 93.837327 
z
" style="fill:#ffa600;"/>
   </g>
   <g id="patch_13">
    <path clip-path="url(#p95e1894b47)" d="M 221.681416 142.4 
L 252.955752 142.4 
L 252.955752 145.344921 
L 241.704264 145.344921 
L 241.704264 157.5 
L 232.954723 157.5 
L 232.954723 145.344921 
L 221.681416 145.344921 
z
" style="fill:#ff0000;"/>
   </g>
   <g id="patch_14">
    <path clip-path="url(#p95e1894b47)" d="M 243.345176 136.8985 
L 231.317569 136.8985 
L 229.418473 142.4 
L 221.681416 142.4 
L 232.730701 112.2 
L 241.906467 112.2 
L 252.955752 142.4 
L 245.225089 142.4 
z
M 233.235848 131.293442 
L 241.407715 131.293442 
L 237.328175 119.280754 
z
" style="fill:#008000;"/>
   </g>
   <g id="patch_15">
    <path clip-path="url(#p95e1894b47)" d="M 252.955752 108.101384 
Q 249.801684 110.150692 246.409309 111.180025 
Q 243.016934 112.2 239.400269 112.2 
Q 231.227728 112.2 226.454572 106.098864 
Q 221.681416 99.997728 221.681416 89.564036 
Q 221.681416 79.008697 226.538681 72.954348 
Q 231.402954 66.9 239.862866 66.9 
Q 243.122069 66.9 246.10792 67.723466 
Q 249.10078 68.537575 251.750197 70.147077 
L 251.750197 79.177133 
Q 249.016672 77.10911 246.311182 76.089134 
Q 243.605693 75.059802 240.886185 75.059802 
Q 235.853695 75.059802 233.127178 78.821545 
Q 230.400662 82.573931 230.400662 89.564036 
Q 230.400662 96.488639 233.029052 100.269097 
Q 235.657442 104.040198 240.493679 104.040198 
Q 241.811379 104.040198 242.939834 103.824974 
Q 244.06829 103.600392 244.965447 103.132514 
L 244.965447 94.654555 
L 239.813802 94.654555 
L 239.813802 87.102995 
L 252.955752 87.102995 
z
" style="fill:#ffa600;"/>
   </g>
   <g id="patch_16">
    <path clip-path="url(#p95e1894b47)" d="M 254.60177 66.9 
L 285.876106 66.9 
L 285.876106 84.569524 
L 274.624618 84.569524 
L 274.624618 157.5 
L 265.875077 157.5 
L 265.875077 84.569524 
L 254.60177 84.569524 
z
" style="fill:#ff0000;"/>
   </g>
   <g id="patch_17">
    <path clip-path="url(#p95e1894b47)" d="M 318.79646 154.767589 
Q 315.642392 156.133795 312.250017 156.820017 
Q 308.857642 157.5 305.240977 157.5 
Q 297.068436 157.5 292.29528 153.432576 
Q 287.522124 149.365152 287.522124 142.409358 
Q 287.522124 135.372464 292.379389 131.336232 
Q 297.243662 127.3 305.703574 127.3 
Q 308.962777 127.3 311.948628 127.848977 
Q 314.941488 128.391717 317.590905 129.464718 
L 317.590905 135.484755 
Q 314.85738 134.106073 312.15189 133.42609 
Q 309.446401 132.739868 306.726893 132.739868 
Q 301.694403 132.739868 298.967886 135.247697 
Q 296.24137 137.749287 296.24137 142.409358 
Q 296.24137 147.025759 298.86976 149.546065 
Q 301.49815 152.060132 306.334387 152.060132 
Q 307.652087 152.060132 308.780542 151.916649 
Q 309.908998 151.766928 310.806155 151.455009 
L 310.806155 145.803037 
L 305.65451 145.803037 
L 305.65451 140.768663 
L 318.79646 140.768663 
z
" style="fill:#ffa600;"/>
   </g>
   <g id="patch_18">
    <path clip-path="url(#p95e1894b47)" d="M 287.522124 66.9 
L 318.79646 66.9 
L 318.79646 78.679683 
L 307.544972 78.679683 
L 307.544972 127.3 
L 298.795431 127.3 
L 298.795431 78.679683 
L 287.522124 78.679683 
z
" style="fill:#ff0000;"/>
   </g>
   <g id="patch_19">
    <path clip-path="url(#p95e1894b47)" d="M 351.716814 154.767589 
Q 348.562746 156.133795 345.170371 156.820017 
Q 341.777996 157.5 338.161331 157.5 
Q 329.98879 157.5 325.215634 153.432576 
Q 320.442478 149.365152 320.442478 142.409358 
Q 320.442478 135.372464 325.299743 131.336232 
Q 330.164016 127.3 338.623928 127.3 
Q 341.883131 127.3 344.868982 127.848977 
Q 347.861842 128.391717 350.511259 129.464718 
L 350.511259 135.484755 
Q 347.777734 134.106073 345.072244 133.42609 
Q 342.366755 132.739868 339.647247 132.739868 
Q 334.614757 132.739868 331.88824 135.247697 
Q 329.161724 137.749287 329.161724 142.409358 
Q 329.161724 147.025759 331.790114 149.546065 
Q 334.418504 152.060132 339.254741 152.060132 
Q 340.572441 152.060132 341.700896 151.916649 
Q 342.829351 151.766928 343.726509 151.455009 
L 343.726509 145.803037 
L 338.574864 145.803037 
L 338.574864 140.768663 
L 351.716814 140.768663 
z
" style="fill:#ffa600;"/>
   </g>
   <g id="patch_20">
    <path clip-path="url(#p95e1894b47)" d="M 320.442478 21.6 
L 351.716814 21.6 
L 351.716814 42.214445 
L 340.465326 42.214445 
L 340.465326 127.3 
L 331.715785 127.3 
L 331.715785 42.214445 
L 320.442478 42.214445 
z
" style="fill:#ff0000;"/>
   </g>
   <g id="patch_21">
    <path clip-path="url(#p95e1894b47)" d="M 375.026592 154.74925 
L 362.998985 154.74925 
L 361.099889 157.5 
L 353.362832 157.5 
L 364.412117 142.4 
L 373.587883 142.4 
L 384.637168 157.5 
L 376.906505 157.5 
z
M 364.917264 151.946721 
L 373.089131 151.946721 
L 369.009591 145.940377 
z
" style="fill:#008000;"/>
   </g>
   <g id="patch_22">
    <path clip-path="url(#p95e1894b47)" d="M 353.362832 21.6 
L 384.637168 21.6 
L 384.637168 45.159366 
L 373.38568 45.159366 
L 373.38568 142.4 
L 364.636139 142.4 
L 364.636139 45.159366 
L 353.362832 45.159366 
z
" style="fill:#ff0000;"/>
   </g>
   <g id="patch_23">
    <path clip-path="url(#p95e1894b47)" d="M 407.946946 154.74925 
L 395.919339 154.74925 
L 394.020243 157.5 
L 386.283186 157.5 
L 397.332471 142.4 
L 406.508237 142.4 
L 417.557522 157.5 
L 409.826859 157.5 
z
M 397.837618 151.946721 
L 406.009485 151.946721 
L 401.929945 145.940377 
z
" style="fill:#008000;"/>
   </g>
   <g id="patch_24">
    <path clip-path="url(#p95e1894b47)" d="M 417.557522 136.935179 
Q 414.403454 139.667589 411.011079 141.040033 
Q 407.618703 142.4 404.002039 142.4 
Q 395.829498 142.4 391.056342 134.265152 
Q 386.283186 126.130304 386.283186 112.218715 
Q 386.283186 98.144929 391.140451 90.072464 
Q 396.004724 82 404.464635 82 
Q 407.723839 82 410.70969 83.097955 
Q 413.70255 84.183433 416.351967 86.329436 
L 416.351967 98.36951 
Q 413.618442 95.612146 410.912952 94.252179 
Q 408.207463 92.879736 405.487955 92.879736 
Q 400.455465 92.879736 397.728948 97.895394 
Q 395.002432 102.898575 395.002432 112.218715 
Q 395.002432 121.451518 397.630822 126.49213 
Q 400.259212 131.520264 405.095449 131.520264 
Q 406.413149 131.520264 407.541604 131.233299 
Q 408.670059 130.933857 409.567217 130.310019 
L 409.567217 119.006073 
L 404.415572 119.006073 
L 404.415572 108.937327 
L 417.557522 108.937327 
z
" style="fill:#ffa600;"/>
   </g>
   <g id="patch_25">
    <path clip-path="url(#p95e1894b47)" d="M 386.283186 21.6 
L 417.557522 21.6 
L 417.557522 33.379683 
L 406.306034 33.379683 
L 406.306034 82 
L 397.556493 82 
L 397.556493 33.379683 
L 386.283186 33.379683 
z
" style="fill:#ff0000;"/>
   </g>
   <g id="patch_26">
    <path clip-path="url(#p95e1894b47)" d="M 450.477876 156.417641 
Q 447.861832 156.954142 445.033037 157.225511 
Q 442.204242 157.5 439.123298 157.5 
Q 429.935625 157.5 424.569582 155.466288 
Q 419.20354 153.432576 419.20354 149.954679 
Q 419.20354 146.464305 424.569582 144.433712 
Q 429.935625 142.4 439.123298 142.4 
Q 442.204242 142.4 445.033037 142.674489 
Q 447.861832 142.945858 450.477876 143.482359 
L 450.477876 146.492378 
Q 447.838193 145.781202 445.277306 145.450568 
Q 442.71642 145.119934 439.887625 145.119934 
Q 434.813129 145.119934 431.905538 146.408159 
Q 429.005826 147.693266 429.005826 149.954679 
Q 429.005826 152.206734 431.905538 153.49496 
Q 434.813129 154.780066 439.887625 154.780066 
Q 442.71642 154.780066 445.277306 154.449432 
Q 447.838193 154.115679 450.477876 153.404503 
z
" style="fill:#0000ff;"/>
   </g>
   <g id="patch_27">
    <path clip-path="url(#p95e1894b47)" d="M 419.20354 112.2 
L 450.477876 112.2 
L 450.477876 118.089841 
L 439.226388 118.089841 
L 439.226388 142.4 
L 430.476847 142.4 
L 430.476847 118.089841 
L 419.20354 118.089841 
z
" style="fill:#ff0000;"/>
   </g>
   <g id="patch_28">
    <path clip-path="url(#p95e1894b47)" d="M 450.477876 104.002768 
Q 447.323808 108.101384 443.931433 110.16005 
Q 440.539057 112.2 436.922393 112.2 
Q 428.749852 112.2 423.976696 99.997728 
Q 419.20354 87.795455 419.20354 66.928073 
Q 419.20354 45.817393 424.060805 33.708697 
Q 428.925078 21.6 437.384989 21.6 
Q 440.644193 21.6 443.630044 23.246932 
Q 446.622904 24.87515 449.272321 28.094154 
L 449.272321 46.154266 
Q 446.538796 42.018219 443.833306 39.978269 
Q 441.127817 37.919603 438.408309 37.919603 
Q 433.375819 37.919603 430.649302 45.44309 
Q 427.922786 52.947862 427.922786 66.928073 
Q 427.922786 80.777277 430.551176 88.338195 
Q 433.179565 95.880397 438.015803 95.880397 
Q 439.333503 95.880397 440.461958 95.449948 
Q 441.590413 95.000785 442.487571 94.065028 
L 442.487571 77.10911 
L 437.335926 77.10911 
L 437.335926 62.00599 
L 450.477876 62.00599 
z
" style="fill:#ffa600;"/>
   </g>
   <g id="patch_29">
    <path clip-path="url(#p95e1894b47)" d="M 473.787654 151.9985 
L 461.760047 151.9985 
L 459.860951 157.5 
L 452.123894 157.5 
L 463.173179 127.3 
L 472.348945 127.3 
L 483.39823 157.5 
L 475.667567 157.5 
z
M 463.678326 146.393442 
L 471.850193 146.393442 
L 467.770653 134.380754 
z
" style="fill:#008000;"/>
   </g>
   <g id="patch_30">
    <path clip-path="url(#p95e1894b47)" d="M 452.123894 97.1 
L 483.39823 97.1 
L 483.39823 102.989841 
L 472.146742 102.989841 
L 472.146742 127.3 
L 463.397201 127.3 
L 463.397201 102.989841 
L 452.123894 102.989841 
z
" style="fill:#ff0000;"/>
   </g>
   <g id="patch_31">
    <path clip-path="url(#p95e1894b47)" d="M 483.39823 91.688205 
Q 480.782186 94.370709 477.953391 95.727556 
Q 475.124596 97.1 472.043652 97.1 
Q 462.855979 97.1 457.489936 86.93144 
Q 452.123894 76.76288 452.123894 59.373394 
Q 452.123894 41.921524 457.489936 31.76856 
Q 462.855979 21.6 472.043652 21.6 
Q 475.124596 21.6 477.953391 22.972444 
Q 480.782186 24.329291 483.39823 27.011795 
L 483.39823 42.061888 
Q 480.758547 38.506011 478.19766 36.85284 
Q 475.636773 35.199669 472.807979 35.199669 
Q 467.733483 35.199669 464.825892 41.640797 
Q 461.92618 48.066329 461.92618 59.373394 
Q 461.92618 70.633671 464.825892 77.074799 
Q 467.733483 83.500331 472.807979 83.500331 
Q 475.636773 83.500331 478.19766 81.84716 
Q 480.758547 80.178393 483.39823 76.622516 
z
" style="fill:#0000ff;"/>
   </g>
   <g id="patch_32">
    <path clip-path="url(#p95e1894b47)" d="M 516.318584 145.204152 
Q 513.164516 151.352076 509.772141 154.440074 
Q 506.379765 157.5 502.763101 157.5 
Q 494.59056 157.5 489.817404 139.196592 
Q 485.044248 120.893183 485.044248 89.592109 
Q 485.044248 57.92609 489.901512 39.763045 
Q 494.765786 21.6 503.225697 21.6 
Q 506.484901 21.6 509.470752 24.070399 
Q 512.463612 26.512725 515.113029 31.341231 
L 515.113029 58.431398 
Q 512.379504 52.227329 509.674014 49.167403 
Q 506.968525 46.079405 504.249017 46.079405 
Q 499.216527 46.079405 496.49001 57.364635 
Q 493.763493 68.621793 493.763493 89.592109 
Q 493.763493 110.365916 496.391883 121.707292 
Q 499.020273 133.020595 503.856511 133.020595 
Q 505.174211 133.020595 506.302666 132.374923 
Q 507.431121 131.701177 508.328279 130.297542 
L 508.328279 104.863665 
L 503.176634 104.863665 
L 503.176634 82.208986 
L 516.318584 82.208986 
z
" style="fill:#ffa600;"/>
   </g>
   <g id="patch_33">
    <path clip-path="url(#p95e1894b47)" d="M 549.238938 156.133795 
Q 546.08487 156.816897 542.692495 157.160008 
Q 539.300119 157.5 535.683455 157.5 
Q 527.510914 157.5 522.737758 155.466288 
Q 517.964602 153.432576 517.964602 149.954679 
Q 517.964602 146.436232 522.821866 144.418116 
Q 527.68614 142.4 536.146051 142.4 
Q 539.405255 142.4 542.391106 142.674489 
Q 545.383966 142.945858 548.033383 143.482359 
L 548.033383 146.492378 
Q 545.299858 145.803037 542.594368 145.463045 
Q 539.888879 145.119934 537.169371 145.119934 
Q 532.136881 145.119934 529.410364 146.373848 
Q 526.683847 147.624644 526.683847 149.954679 
Q 526.683847 152.26288 529.312237 153.523032 
Q 531.940627 154.780066 536.776865 154.780066 
Q 538.094565 154.780066 539.22302 154.708325 
Q 540.351475 154.633464 541.248633 154.477505 
L 541.248633 151.651518 
L 536.096988 151.651518 
L 536.096988 149.134332 
L 549.238938 149.134332 
z
" style="fill:#ffa600;"/>
   </g>
   <g id="patch_34">
    <path clip-path="url(#p95e1894b47)" d="M 517.964602 21.6 
L 549.238938 21.6 
L 549.238938 45.159366 
L 537.98745 45.159366 
L 537.98745 142.4 
L 529.237909 142.4 
L 529.237909 45.159366 
L 517.964602 45.159366 
z
" style="fill:#ff0000;"/>
   </g>
   <g id="patch_35">
    <path clip-path="url(#p95e1894b47)" d="M 550.884956 21.6 
L 582.159292 21.6 
L 582.159292 48.104286 
L 570.907804 48.104286 
L 570.907804 157.5 
L 562.158263 157.5 
L 562.158263 48.104286 
L 550.884956 48.104286 
z
" style="fill:#ff0000;"/>
   </g>
   <g id="patch_36">
    <path clip-path="url(#p95e1894b47)" d="M 615.079646 156.133795 
Q 611.925578 156.816897 608.533203 157.160008 
Q 605.140827 157.5 601.524163 157.5 
Q 593.351622 157.5 588.578466 155.466288 
Q 583.80531 153.432576 583.80531 149.954679 
Q 583.80531 146.436232 588.662574 144.418116 
Q 593.526848 142.4 601.986759 142.4 
Q 605.245963 142.4 608.231814 142.674489 
Q 611.224674 142.945858 613.874091 143.482359 
L 613.874091 146.492378 
Q 611.140566 145.803037 608.435076 145.463045 
Q 605.729587 145.119934 603.010079 145.119934 
Q 597.977589 145.119934 595.251072 146.373848 
Q 592.524555 147.624644 592.524555 149.954679 
Q 592.524555 152.26288 595.152945 153.523032 
Q 597.781335 154.780066 602.617573 154.780066 
Q 603.935272 154.780066 605.063728 154.708325 
Q 606.192183 154.633464 607.08934 154.477505 
L 607.08934 151.651518 
L 601.937696 151.651518 
L 601.937696 149.134332 
L 615.079646 149.134332 
z
" style="fill:#ffa600;"/>
   </g>
   <g id="patch_37">
    <path clip-path="url(#p95e1894b47)" d="M 583.80531 21.6 
L 615.079646 21.6 
L 615.079646 45.159366 
L 603.828158 45.159366 
L 603.828158 142.4 
L 595.078617 142.4 
L 595.078617 45.159366 
L 583.80531 45.159366 
z
" style="fill:#ff0000;"/>
   </g>
   <g id="patch_38">
    <path clip-path="url(#p95e1894b47)" d="M 616.725664 142.4 
L 648 142.4 
L 648 145.344921 
L 636.748512 145.344921 
L 636.748512 157.5 
L 627.998971 157.5 
L 627.998971 145.344921 
L 616.725664 145.344921 
z
" style="fill:#ff0000;"/>
   </g>
   <g id="patch_39">
    <path clip-path="url(#p95e1894b47)" d="M 648 139.667589 
Q 644.845932 141.033795 641.453557 141.720017 
Q 638.061181 142.4 634.444517 142.4 
Q 626.271976 142.4 621.49882 138.332576 
Q 616.725664 134.265152 616.725664 127.309358 
Q 616.725664 120.272464 621.582928 116.236232 
Q 626.447202 112.2 634.907113 112.2 
Q 638.166317 112.2 641.152168 112.748977 
Q 644.145028 113.291717 646.794445 114.364718 
L 646.794445 120.384755 
Q 644.06092 119.006073 641.35543 118.32609 
Q 638.649941 117.639868 635.930433 117.639868 
Q 630.897943 117.639868 628.171426 120.147697 
Q 625.444909 122.649287 625.444909 127.309358 
Q 625.444909 131.925759 628.073299 134.446065 
Q 630.701689 136.960132 635.537927 136.960132 
Q 636.855626 136.960132 637.984082 136.816649 
Q 639.112537 136.666928 640.009694 136.355009 
L 640.009694 130.703037 
L 634.85805 130.703037 
L 634.85805 125.668663 
L 648 125.668663 
z
" style="fill:#ffa600;"/>
   </g>
   <g id="patch_40">
    <path clip-path="url(#p95e1894b47)" d="M 638.389424 103.94775 
L 626.361817 103.94775 
L 624.462721 112.2 
L 616.725664 112.2 
L 627.774949 66.9 
L 636.950715 66.9 
L 648 112.2 
L 640.269337 112.2 
z
M 628.280095 95.540163 
L 636.451963 95.540163 
L 632.372423 77.521132 
z
" style="fill:#008000;"/>
   </g>
   <g id="patch_41">
    <path clip-path="url(#p95e1894b47)" d="M 648 63.652923 
Q 645.383956 65.262425 642.555161 66.076534 
Q 639.726366 66.9 636.645422 66.9 
Q 627.457749 66.9 622.091706 60.798864 
Q 616.725664 54.697728 616.725664 44.264036 
Q 616.725664 33.792915 622.091706 27.701136 
Q 627.457749 21.6 636.645422 21.6 
Q 639.726366 21.6 642.555161 22.423466 
Q 645.383956 23.237575 648 24.847077 
L 648 33.877133 
Q 645.360317 31.743607 642.79943 30.751704 
Q 640.238543 29.759802 637.409749 29.759802 
Q 632.335253 29.759802 629.427662 33.624478 
Q 626.52795 37.479798 626.52795 44.264036 
Q 626.52795 51.020202 629.427662 54.884879 
Q 632.335253 58.740198 637.409749 58.740198 
Q 640.238543 58.740198 642.79943 57.748296 
Q 645.360317 56.747036 648 54.61351 
z
" style="fill:#0000ff;"/>
   </g>
  </g>
 </g>
 <defs>
  <clipPath id="p95e1894b47">
   <rect height="135.9" width="558" x="90" y="21.6"/>
  </clipPath>
 </defs>
</svg>
