<?xml version="1.0" encoding="utf-8" standalone="no"?>
<!DOCTYPE svg PUBLIC "-//W3C//DTD SVG 1.1//EN"
  "http://www.w3.org/Graphics/SVG/1.1/DTD/svg11.dtd">
<!-- Created with matplotlib (https://matplotlib.org/) -->
<svg height="180pt" version="1.1" viewBox="0 0 720 180" width="720pt" xmlns="http://www.w3.org/2000/svg" xmlns:xlink="http://www.w3.org/1999/xlink">
 <metadata>
  <rdf:RDF xmlns:cc="http://creativecommons.org/ns#" xmlns:dc="http://purl.org/dc/elements/1.1/" xmlns:rdf="http://www.w3.org/1999/02/22-rdf-syntax-ns#">
   <cc:Work>
    <dc:type rdf:resource="http://purl.org/dc/dcmitype/StillImage"/>
    <dc:date>2021-08-04T23:33:57.436926</dc:date>
    <dc:format>image/svg+xml</dc:format>
    <dc:creator>
     <cc:Agent>
      <dc:title>Matplotlib v3.3.2, https://matplotlib.org/</dc:title>
     </cc:Agent>
    </dc:creator>
   </cc:Work>
  </rdf:RDF>
 </metadata>
 <defs>
  <style type="text/css">*{stroke-linecap:butt;stroke-linejoin:round;}</style>
 </defs>
 <g id="figure_1">
  <g id="patch_1">
   <path d="M 0 180 
L 720 180 
L 720 0 
L 0 0 
z
" style="fill:none;"/>
  </g>
  <g id="axes_1">
   <g id="line2d_1">
    <path clip-path="url(#p91be9f2a6c)" d="M 90 157.5 
L 648 157.5 
" style="fill:none;stroke:#000000;stroke-linecap:square;stroke-width:0.5;"/>
   </g>
   <g id="patch_2">
    <path clip-path="url(#p91be9f2a6c)" d="M 126.904597 132.743249 
L 106.415356 132.743249 
L 103.180213 157.5 
L 90 157.5 
L 108.822651 21.6 
L 124.453731 21.6 
L 143.276382 157.5 
L 130.107062 157.5 
z
M 109.683178 107.520489 
L 123.604097 107.520489 
L 116.65453 53.463395 
z
" style="fill:#008000;"/>
   </g>
   <g id="patch_3">
    <path clip-path="url(#p91be9f2a6c)" d="M 146.080402 21.6 
L 199.356784 21.6 
L 199.356784 48.104286 
L 180.189676 48.104286 
L 180.189676 157.5 
L 165.284679 157.5 
L 165.284679 48.104286 
L 146.080402 48.104286 
z
" style="fill:#ff0000;"/>
   </g>
   <g id="patch_4">
    <path clip-path="url(#p91be9f2a6c)" d="M 255.437186 145.204152 
Q 250.064176 151.352076 244.285205 154.440074 
Q 238.506234 157.5 232.345182 157.5 
Q 218.423115 157.5 210.29196 139.196592 
Q 202.160804 120.893183 202.160804 89.592109 
Q 202.160804 57.92609 210.43524 39.763045 
Q 218.721616 21.6 233.133223 21.6 
Q 238.685334 21.6 243.771784 24.070399 
Q 248.870173 26.512725 253.383502 31.341231 
L 253.383502 58.431398 
Q 248.726893 52.227329 244.118044 49.167403 
Q 239.509195 46.079405 234.876467 46.079405 
Q 226.30353 46.079405 221.658861 57.364635 
Q 217.014192 68.621793 217.014192 89.592109 
Q 217.014192 110.365916 221.491701 121.707292 
Q 225.96921 133.020595 234.207825 133.020595 
Q 236.45255 133.020595 238.374893 132.374923 
Q 240.297237 131.701177 241.82556 130.297542 
L 241.82556 104.863665 
L 233.049643 104.863665 
L 233.049643 82.208986 
L 255.437186 82.208986 
z
" style="fill:#ffa600;"/>
   </g>
   <g id="patch_5">
    <path clip-path="url(#p91be9f2a6c)" d="M 295.145803 132.743249 
L 274.656562 132.743249 
L 271.421419 157.5 
L 258.241206 157.5 
L 277.063857 21.6 
L 292.694937 21.6 
L 311.517588 157.5 
L 298.348268 157.5 
z
M 277.924384 107.520489 
L 291.845303 107.520489 
L 284.895736 53.463395 
z
" style="fill:#008000;"/>
   </g>
   <g id="patch_6">
    <path clip-path="url(#p91be9f2a6c)" d="M 314.321608 21.6 
L 367.59799 21.6 
L 367.59799 48.104286 
L 348.430882 48.104286 
L 348.430882 157.5 
L 333.525885 157.5 
L 333.525885 48.104286 
L 314.321608 48.104286 
z
" style="fill:#ff0000;"/>
   </g>
   <g id="patch_7">
    <path clip-path="url(#p91be9f2a6c)" d="M 423.678392 145.204152 
Q 418.305382 151.352076 412.526411 154.440074 
Q 406.74744 157.5 400.586388 157.5 
Q 386.664321 157.5 378.533166 139.196592 
Q 370.40201 120.893183 370.40201 89.592109 
Q 370.40201 57.92609 378.676446 39.763045 
Q 386.962822 21.6 401.374429 21.6 
Q 406.92654 21.6 412.01299 24.070399 
Q 417.111379 26.512725 421.624708 31.341231 
L 421.624708 58.431398 
Q 416.968099 52.227329 412.35925 49.167403 
Q 407.750401 46.079405 403.117673 46.079405 
Q 394.544736 46.079405 389.900067 57.364635 
Q 385.255398 68.621793 385.255398 89.592109 
Q 385.255398 110.365916 389.732907 121.707292 
Q 394.210416 133.020595 402.449031 133.020595 
Q 404.693756 133.020595 406.616099 132.374923 
Q 408.538443 131.701177 410.066766 130.297542 
L 410.066766 104.863665 
L 401.290849 104.863665 
L 401.290849 82.208986 
L 423.678392 82.208986 
z
" style="fill:#ffa600;"/>
   </g>
   <g id="patch_8">
    <path clip-path="url(#p91be9f2a6c)" d="M 479.758794 154.767589 
Q 474.385784 156.133795 468.606813 156.820017 
Q 462.827842 157.5 456.66679 157.5 
Q 442.744723 157.5 434.613568 153.432576 
Q 426.482412 149.365152 426.482412 142.409358 
Q 426.482412 135.372464 434.756848 131.336232 
Q 443.043224 127.3 457.454831 127.3 
Q 463.006942 127.3 468.093392 127.848977 
Q 473.191781 128.391717 477.70511 129.464718 
L 477.70511 135.484755 
Q 473.048501 134.106073 468.439652 133.42609 
Q 463.830804 132.739868 459.198075 132.739868 
Q 450.625138 132.739868 445.980469 135.247697 
Q 441.3358 137.749287 441.3358 142.409358 
Q 441.3358 147.025759 445.813309 149.546065 
Q 450.290818 152.060132 458.529433 152.060132 
Q 460.774158 152.060132 462.696501 151.916649 
Q 464.618845 151.766928 466.147168 151.455009 
L 466.147168 145.803037 
L 457.371251 145.803037 
L 457.371251 140.768663 
L 479.758794 140.768663 
z
" style="fill:#ffa600;"/>
   </g>
   <g id="patch_9">
    <path clip-path="url(#p91be9f2a6c)" d="M 463.387009 108.044749 
L 442.897768 108.044749 
L 439.662625 127.3 
L 426.482412 127.3 
L 445.305063 21.6 
L 460.936143 21.6 
L 479.758794 127.3 
L 466.589474 127.3 
z
M 446.16559 88.427047 
L 460.086509 88.427047 
L 453.136942 46.38264 
z
" style="fill:#008000;"/>
   </g>
   <g id="patch_10">
    <path clip-path="url(#p91be9f2a6c)" d="M 519.467411 151.9985 
L 498.97817 151.9985 
L 495.743027 157.5 
L 482.562814 157.5 
L 501.385465 127.3 
L 517.016545 127.3 
L 535.839196 157.5 
L 522.669876 157.5 
z
M 502.245992 146.393442 
L 516.166911 146.393442 
L 509.217344 134.380754 
z
" style="fill:#008000;"/>
   </g>
   <g id="patch_11">
    <path clip-path="url(#p91be9f2a6c)" d="M 535.839196 125.135282 
Q 531.382719 126.208283 526.563817 126.751023 
Q 521.744915 127.3 516.496473 127.3 
Q 500.84511 127.3 491.703962 123.232576 
Q 482.562814 119.165152 482.562814 112.209358 
Q 482.562814 105.22861 491.703962 101.167424 
Q 500.84511 97.1 516.496473 97.1 
Q 521.744915 97.1 526.563817 97.648977 
Q 531.382719 98.191717 535.839196 99.264718 
L 535.839196 105.284755 
Q 531.342449 103.862404 526.979934 103.201136 
Q 522.617418 102.539868 517.798516 102.539868 
Q 509.154024 102.539868 504.200891 105.116319 
Q 499.261181 107.686532 499.261181 112.209358 
Q 499.261181 116.713468 504.200891 119.289919 
Q 509.154024 121.860132 517.798516 121.860132 
Q 522.617418 121.860132 526.979934 121.198864 
Q 531.342449 120.531357 535.839196 119.109006 
z
" style="fill:#0000ff;"/>
   </g>
   <g id="patch_12">
    <path clip-path="url(#p91be9f2a6c)" d="M 482.562814 66.9 
L 535.839196 66.9 
L 535.839196 72.789841 
L 516.672088 72.789841 
L 516.672088 97.1 
L 501.767091 97.1 
L 501.767091 72.789841 
L 482.562814 72.789841 
z
" style="fill:#ff0000;"/>
   </g>
   <g id="patch_13">
    <path clip-path="url(#p91be9f2a6c)" d="M 535.839196 62.801384 
Q 530.466186 64.850692 524.687215 65.880025 
Q 518.908244 66.9 512.747192 66.9 
Q 498.825125 66.9 490.69397 60.798864 
Q 482.562814 54.697728 482.562814 44.264036 
Q 482.562814 33.708697 490.83725 27.654348 
Q 499.123626 21.6 513.535233 21.6 
Q 519.087344 21.6 524.173794 22.423466 
Q 529.272183 23.237575 533.785512 24.847077 
L 533.785512 33.877133 
Q 529.128903 31.80911 524.520054 30.789134 
Q 519.911206 29.759802 515.278477 29.759802 
Q 506.70554 29.759802 502.060871 33.521545 
Q 497.416202 37.273931 497.416202 44.264036 
Q 497.416202 51.188639 501.893711 54.969097 
Q 506.37122 58.740198 514.609835 58.740198 
Q 516.85456 58.740198 518.776903 58.524974 
Q 520.699247 58.300392 522.22757 57.832514 
L 522.22757 49.354555 
L 513.451653 49.354555 
L 513.451653 41.802995 
L 535.839196 41.802995 
z
" style="fill:#ffa600;"/>
   </g>
   <g id="patch_14">
    <path clip-path="url(#p91be9f2a6c)" d="M 591.919598 156.417641 
Q 587.463121 156.954142 582.644219 157.225511 
Q 577.825317 157.5 572.576875 157.5 
Q 556.925512 157.5 547.784364 155.466288 
Q 538.643216 153.432576 538.643216 149.954679 
Q 538.643216 146.464305 547.784364 144.433712 
Q 556.925512 142.4 572.576875 142.4 
Q 577.825317 142.4 582.644219 142.674489 
Q 587.463121 142.945858 591.919598 143.482359 
L 591.919598 146.492378 
Q 587.422851 145.781202 583.060336 145.450568 
Q 578.69782 145.119934 573.878918 145.119934 
Q 565.234426 145.119934 560.281293 146.408159 
Q 555.341583 147.693266 555.341583 149.954679 
Q 555.341583 152.206734 560.281293 153.49496 
Q 565.234426 154.780066 573.878918 154.780066 
Q 578.69782 154.780066 583.060336 154.449432 
Q 587.422851 154.115679 591.919598 153.404503 
z
" style="fill:#0000ff;"/>
   </g>
   <g id="patch_15">
    <path clip-path="url(#p91be9f2a6c)" d="M 575.547813 136.8985 
L 555.058572 136.8985 
L 551.823429 142.4 
L 538.643216 142.4 
L 557.465867 112.2 
L 573.096947 112.2 
L 591.919598 142.4 
L 578.750278 142.4 
z
M 558.326394 131.293442 
L 572.247313 131.293442 
L 565.297746 119.280754 
z
" style="fill:#008000;"/>
   </g>
   <g id="patch_16">
    <path clip-path="url(#p91be9f2a6c)" d="M 538.643216 82 
L 591.919598 82 
L 591.919598 87.889841 
L 572.75249 87.889841 
L 572.75249 112.2 
L 557.847493 112.2 
L 557.847493 87.889841 
L 538.643216 87.889841 
z
" style="fill:#ff0000;"/>
   </g>
   <g id="patch_17">
    <path clip-path="url(#p91be9f2a6c)" d="M 591.919598 76.535179 
Q 586.546588 79.267589 580.767617 80.640033 
Q 574.988646 82 568.827594 82 
Q 554.905527 82 546.774372 73.865152 
Q 538.643216 65.730304 538.643216 51.818715 
Q 538.643216 37.744929 546.917652 29.672464 
Q 555.204028 21.6 569.615635 21.6 
Q 575.167746 21.6 580.254196 22.697955 
Q 585.352585 23.783433 589.865914 25.929436 
L 589.865914 37.96951 
Q 585.209305 35.212146 580.600456 33.852179 
Q 575.991608 32.479736 571.358879 32.479736 
Q 562.785942 32.479736 558.141273 37.495394 
Q 553.496604 42.498575 553.496604 51.818715 
Q 553.496604 61.051518 557.974113 66.09213 
Q 562.451622 71.120264 570.690237 71.120264 
Q 572.934962 71.120264 574.857305 70.833299 
Q 576.779649 70.533857 578.307972 69.910019 
L 578.307972 58.606073 
L 569.532055 58.606073 
L 569.532055 48.537327 
L 591.919598 48.537327 
z
" style="fill:#ffa600;"/>
   </g>
   <g id="patch_18">
    <path clip-path="url(#p91be9f2a6c)" d="M 648 154.767589 
Q 642.62699 156.133795 636.848019 156.820017 
Q 631.069048 157.5 624.907996 157.5 
Q 610.985929 157.5 602.854774 153.432576 
Q 594.723618 149.365152 594.723618 142.409358 
Q 594.723618 135.372464 602.998054 131.336232 
Q 611.28443 127.3 625.696037 127.3 
Q 631.248148 127.3 636.334598 127.848977 
Q 641.432987 128.391717 645.946316 129.464718 
L 645.946316 135.484755 
Q 641.289707 134.106073 636.680858 133.42609 
Q 632.07201 132.739868 627.439281 132.739868 
Q 618.866344 132.739868 614.221675 135.247697 
Q 609.577007 137.749287 609.577007 142.409358 
Q 609.577007 147.025759 614.054515 149.546065 
Q 618.532024 152.060132 626.770639 152.060132 
Q 629.015364 152.060132 630.937707 151.916649 
Q 632.860051 151.766928 634.388374 151.455009 
L 634.388374 145.803037 
L 625.612457 145.803037 
L 625.612457 140.768663 
L 648 140.768663 
z
" style="fill:#ffa600;"/>
   </g>
   <g id="patch_19">
    <path clip-path="url(#p91be9f2a6c)" d="M 594.723618 82 
L 648 82 
L 648 90.834762 
L 628.832892 90.834762 
L 628.832892 127.3 
L 613.927895 127.3 
L 613.927895 90.834762 
L 594.723618 90.834762 
z
" style="fill:#ff0000;"/>
   </g>
   <g id="patch_20">
    <path clip-path="url(#p91be9f2a6c)" d="M 648 77.670564 
Q 643.543523 79.816567 638.724621 80.902045 
Q 633.905719 82 628.657277 82 
Q 613.005914 82 603.864766 73.865152 
Q 594.723618 65.730304 594.723618 51.818715 
Q 594.723618 37.85722 603.864766 29.734848 
Q 613.005914 21.6 628.657277 21.6 
Q 633.905719 21.6 638.724621 22.697955 
Q 643.543523 23.783433 648 25.929436 
L 648 37.96951 
Q 643.503253 35.124809 639.140738 33.802272 
Q 634.778222 32.479736 629.95932 32.479736 
Q 621.314828 32.479736 616.361695 37.632638 
Q 611.421985 42.773063 611.421985 51.818715 
Q 611.421985 60.826937 616.361695 65.979839 
Q 621.314828 71.120264 629.95932 71.120264 
Q 634.778222 71.120264 639.140738 69.797728 
Q 643.503253 68.462714 648 65.618013 
z
" style="fill:#0000ff;"/>
   </g>
  </g>
 </g>
 <defs>
  <clipPath id="p91be9f2a6c">
   <rect height="135.9" width="558" x="90" y="21.6"/>
  </clipPath>
 </defs>
</svg>
