<?xml version="1.0" encoding="utf-8" standalone="no"?>
<!DOCTYPE svg PUBLIC "-//W3C//DTD SVG 1.1//EN"
  "http://www.w3.org/Graphics/SVG/1.1/DTD/svg11.dtd">
<!-- Created with matplotlib (https://matplotlib.org/) -->
<svg height="180pt" version="1.1" viewBox="0 0 720 180" width="720pt" xmlns="http://www.w3.org/2000/svg" xmlns:xlink="http://www.w3.org/1999/xlink">
 <metadata>
  <rdf:RDF xmlns:cc="http://creativecommons.org/ns#" xmlns:dc="http://purl.org/dc/elements/1.1/" xmlns:rdf="http://www.w3.org/1999/02/22-rdf-syntax-ns#">
   <cc:Work>
    <dc:type rdf:resource="http://purl.org/dc/dcmitype/StillImage"/>
    <dc:date>2021-08-04T23:33:31.658911</dc:date>
    <dc:format>image/svg+xml</dc:format>
    <dc:creator>
     <cc:Agent>
      <dc:title>Matplotlib v3.3.2, https://matplotlib.org/</dc:title>
     </cc:Agent>
    </dc:creator>
   </cc:Work>
  </rdf:RDF>
 </metadata>
 <defs>
  <style type="text/css">*{stroke-linecap:butt;stroke-linejoin:round;}</style>
 </defs>
 <g id="figure_1">
  <g id="patch_1">
   <path d="M 0 180 
L 720 180 
L 720 0 
L 0 0 
z
" style="fill:none;"/>
  </g>
  <g id="axes_1">
   <g id="line2d_1">
    <path clip-path="url(#pbe4662c7d0)" d="M 90 157.5 
L 648 157.5 
" style="fill:none;stroke:#000000;stroke-linecap:square;stroke-width:0.5;"/>
   </g>
   <g id="patch_2">
    <path clip-path="url(#pbe4662c7d0)" d="M 121.274336 156.133795 
Q 118.120268 156.816897 114.727893 157.160008 
Q 111.335518 157.5 107.718853 157.5 
Q 99.546312 157.5 94.773156 155.466288 
Q 90 153.432576 90 149.954679 
Q 90 146.436232 94.857265 144.418116 
Q 99.721538 142.4 108.18145 142.4 
Q 111.440653 142.4 114.426504 142.674489 
Q 117.419364 142.945858 120.068781 143.482359 
L 120.068781 146.492378 
Q 117.335256 145.803037 114.629766 145.463045 
Q 111.924277 145.119934 109.204769 145.119934 
Q 104.172279 145.119934 101.445762 146.373848 
Q 98.719246 147.624644 98.719246 149.954679 
Q 98.719246 152.26288 101.347636 153.523032 
Q 103.976026 154.780066 108.812263 154.780066 
Q 110.129963 154.780066 111.258418 154.708325 
Q 112.386874 154.633464 113.284031 154.477505 
L 113.284031 151.651518 
L 108.132386 151.651518 
L 108.132386 149.134332 
L 121.274336 149.134332 
z
" style="fill:#ffa600;"/>
   </g>
   <g id="patch_3">
    <path clip-path="url(#pbe4662c7d0)" d="M 121.274336 139.152923 
Q 118.658292 140.762425 115.829497 141.576534 
Q 113.000702 142.4 109.919759 142.4 
Q 100.732085 142.4 95.366043 136.298864 
Q 90 130.197728 90 119.764036 
Q 90 109.292915 95.366043 103.201136 
Q 100.732085 97.1 109.919759 97.1 
Q 113.000702 97.1 115.829497 97.923466 
Q 118.658292 98.737575 121.274336 100.347077 
L 121.274336 109.377133 
Q 118.634653 107.243607 116.073766 106.251704 
Q 113.51288 105.259802 110.684085 105.259802 
Q 105.609589 105.259802 102.701998 109.124478 
Q 99.802286 112.979798 99.802286 119.764036 
Q 99.802286 126.520202 102.701998 130.384879 
Q 105.609589 134.240198 110.684085 134.240198 
Q 113.51288 134.240198 116.073766 133.248296 
Q 118.634653 132.247036 121.274336 130.11351 
z
" style="fill:#0000ff;"/>
   </g>
   <g id="patch_4">
    <path clip-path="url(#pbe4662c7d0)" d="M 90 51.8 
L 121.274336 51.8 
L 121.274336 60.634762 
L 110.022848 60.634762 
L 110.022848 97.1 
L 101.273307 97.1 
L 101.273307 60.634762 
L 90 60.634762 
z
" style="fill:#ff0000;"/>
   </g>
   <g id="patch_5">
    <path clip-path="url(#pbe4662c7d0)" d="M 122.920354 127.3 
L 154.19469 127.3 
L 154.19469 133.189841 
L 142.943202 133.189841 
L 142.943202 157.5 
L 134.193661 157.5 
L 134.193661 133.189841 
L 122.920354 133.189841 
z
" style="fill:#ff0000;"/>
   </g>
   <g id="patch_6">
    <path clip-path="url(#pbe4662c7d0)" d="M 154.19469 120.468973 
Q 151.040622 123.884487 147.648247 125.600041 
Q 144.255872 127.3 140.639207 127.3 
Q 132.466666 127.3 127.69351 117.13144 
Q 122.920354 106.96288 122.920354 89.573394 
Q 122.920354 71.981161 127.777619 61.89058 
Q 132.641892 51.8 141.101804 51.8 
Q 144.361007 51.8 147.346858 53.172444 
Q 150.339718 54.529291 152.989135 57.211795 
L 152.989135 72.261888 
Q 150.25561 68.815183 147.55012 67.115224 
Q 144.844631 65.399669 142.125123 65.399669 
Q 137.092633 65.399669 134.366116 71.669242 
Q 131.6396 77.923218 131.6396 89.573394 
Q 131.6396 101.114398 134.26799 107.415162 
Q 136.89638 113.700331 141.732617 113.700331 
Q 143.050317 113.700331 144.178772 113.341624 
Q 145.307228 112.967321 146.204385 112.187523 
L 146.204385 98.057591 
L 141.05274 98.057591 
L 141.05274 85.471659 
L 154.19469 85.471659 
z
" style="fill:#ffa600;"/>
   </g>
   <g id="patch_7">
    <path clip-path="url(#pbe4662c7d0)" d="M 177.504468 154.74925 
L 165.476861 154.74925 
L 163.577765 157.5 
L 155.840708 157.5 
L 166.889993 142.4 
L 176.065759 142.4 
L 187.115044 157.5 
L 179.384381 157.5 
z
M 167.39514 151.946721 
L 175.567007 151.946721 
L 171.487467 145.940377 
z
" style="fill:#008000;"/>
   </g>
   <g id="patch_8">
    <path clip-path="url(#pbe4662c7d0)" d="M 187.115044 141.317641 
Q 184.499 141.854142 181.670205 142.125511 
Q 178.84141 142.4 175.760467 142.4 
Q 166.572793 142.4 161.206751 140.366288 
Q 155.840708 138.332576 155.840708 134.854679 
Q 155.840708 131.364305 161.206751 129.333712 
Q 166.572793 127.3 175.760467 127.3 
Q 178.84141 127.3 181.670205 127.574489 
Q 184.499 127.845858 187.115044 128.382359 
L 187.115044 131.392378 
Q 184.475361 130.681202 181.914474 130.350568 
Q 179.353588 130.019934 176.524793 130.019934 
Q 171.450297 130.019934 168.542706 131.308159 
Q 165.642994 132.593266 165.642994 134.854679 
Q 165.642994 137.106734 168.542706 138.39496 
Q 171.450297 139.680066 176.524793 139.680066 
Q 179.353588 139.680066 181.914474 139.349432 
Q 184.475361 139.015679 187.115044 138.304503 
z
" style="fill:#0000ff;"/>
   </g>
   <g id="patch_9">
    <path clip-path="url(#pbe4662c7d0)" d="M 155.840708 112.2 
L 187.115044 112.2 
L 187.115044 115.144921 
L 175.863556 115.144921 
L 175.863556 127.3 
L 167.114015 127.3 
L 167.114015 115.144921 
L 155.840708 115.144921 
z
" style="fill:#ff0000;"/>
   </g>
   <g id="patch_10">
    <path clip-path="url(#pbe4662c7d0)" d="M 187.115044 106.735179 
Q 183.960976 109.467589 180.568601 110.840033 
Q 177.176226 112.2 173.559561 112.2 
Q 165.38702 112.2 160.613864 104.065152 
Q 155.840708 95.930304 155.840708 82.018715 
Q 155.840708 67.944929 160.697973 59.872464 
Q 165.562246 51.8 174.022158 51.8 
Q 177.281361 51.8 180.267212 52.897955 
Q 183.260072 53.983433 185.909489 56.129436 
L 185.909489 68.16951 
Q 183.175964 65.412146 180.470474 64.052179 
Q 177.764985 62.679736 175.045477 62.679736 
Q 170.012987 62.679736 167.28647 67.695394 
Q 164.559954 72.698575 164.559954 82.018715 
Q 164.559954 91.251518 167.188344 96.29213 
Q 169.816734 101.320264 174.652971 101.320264 
Q 175.970671 101.320264 177.099126 101.033299 
Q 178.227582 100.733857 179.124739 100.110019 
L 179.124739 88.806073 
L 173.973094 88.806073 
L 173.973094 78.737327 
L 187.115044 78.737327 
z
" style="fill:#ffa600;"/>
   </g>
   <g id="patch_11">
    <path clip-path="url(#pbe4662c7d0)" d="M 210.424822 149.24775 
L 198.397215 149.24775 
L 196.498119 157.5 
L 188.761062 157.5 
L 199.810347 112.2 
L 208.986113 112.2 
L 220.035398 157.5 
L 212.304735 157.5 
z
M 200.315494 140.840163 
L 208.487361 140.840163 
L 204.407821 122.821132 
z
" style="fill:#008000;"/>
   </g>
   <g id="patch_12">
    <path clip-path="url(#pbe4662c7d0)" d="M 220.035398 107.870564 
Q 217.419354 110.016567 214.590559 111.102045 
Q 211.761764 112.2 208.680821 112.2 
Q 199.493147 112.2 194.127105 104.065152 
Q 188.761062 95.930304 188.761062 82.018715 
Q 188.761062 68.05722 194.127105 59.934848 
Q 199.493147 51.8 208.680821 51.8 
Q 211.761764 51.8 214.590559 52.897955 
Q 217.419354 53.983433 220.035398 56.129436 
L 220.035398 68.16951 
Q 217.395715 65.324809 214.834828 64.002272 
Q 212.273942 62.679736 209.445147 62.679736 
Q 204.370651 62.679736 201.46306 67.832638 
Q 198.563348 72.973063 198.563348 82.018715 
Q 198.563348 91.026937 201.46306 96.179839 
Q 204.370651 101.320264 209.445147 101.320264 
Q 212.273942 101.320264 214.834828 99.997728 
Q 217.395715 98.662714 220.035398 95.818013 
z
" style="fill:#0000ff;"/>
   </g>
   <g id="patch_13">
    <path clip-path="url(#pbe4662c7d0)" d="M 243.345176 154.74925 
L 231.317569 154.74925 
L 229.418473 157.5 
L 221.681416 157.5 
L 232.730701 142.4 
L 241.906467 142.4 
L 252.955752 157.5 
L 245.225089 157.5 
z
M 233.235848 151.946721 
L 241.407715 151.946721 
L 237.328175 145.940377 
z
" style="fill:#008000;"/>
   </g>
   <g id="patch_14">
    <path clip-path="url(#pbe4662c7d0)" d="M 252.955752 141.317641 
Q 250.339708 141.854142 247.510913 142.125511 
Q 244.682118 142.4 241.601175 142.4 
Q 232.413501 142.4 227.047459 140.366288 
Q 221.681416 138.332576 221.681416 134.854679 
Q 221.681416 131.364305 227.047459 129.333712 
Q 232.413501 127.3 241.601175 127.3 
Q 244.682118 127.3 247.510913 127.574489 
Q 250.339708 127.845858 252.955752 128.382359 
L 252.955752 131.392378 
Q 250.316069 130.681202 247.755182 130.350568 
Q 245.194296 130.019934 242.365501 130.019934 
Q 237.291005 130.019934 234.383414 131.308159 
Q 231.483702 132.593266 231.483702 134.854679 
Q 231.483702 137.106734 234.383414 138.39496 
Q 237.291005 139.680066 242.365501 139.680066 
Q 245.194296 139.680066 247.755182 139.349432 
Q 250.316069 139.015679 252.955752 138.304503 
z
" style="fill:#0000ff;"/>
   </g>
   <g id="patch_15">
    <path clip-path="url(#pbe4662c7d0)" d="M 252.955752 120.468973 
Q 249.801684 123.884487 246.409309 125.600041 
Q 243.016934 127.3 239.400269 127.3 
Q 231.227728 127.3 226.454572 117.13144 
Q 221.681416 106.96288 221.681416 89.573394 
Q 221.681416 71.981161 226.538681 61.89058 
Q 231.402954 51.8 239.862866 51.8 
Q 243.122069 51.8 246.10792 53.172444 
Q 249.10078 54.529291 251.750197 57.211795 
L 251.750197 72.261888 
Q 249.016672 68.815183 246.311182 67.115224 
Q 243.605693 65.399669 240.886185 65.399669 
Q 235.853695 65.399669 233.127178 71.669242 
Q 230.400662 77.923218 230.400662 89.573394 
Q 230.400662 101.114398 233.029052 107.415162 
Q 235.657442 113.700331 240.493679 113.700331 
Q 241.811379 113.700331 242.939834 113.341624 
Q 244.06829 112.967321 244.965447 112.187523 
L 244.965447 98.057591 
L 239.813802 98.057591 
L 239.813802 85.471659 
L 252.955752 85.471659 
z
" style="fill:#ffa600;"/>
   </g>
   <g id="patch_16">
    <path clip-path="url(#pbe4662c7d0)" d="M 285.876106 156.417641 
Q 283.260062 156.954142 280.431267 157.225511 
Q 277.602472 157.5 274.521529 157.5 
Q 265.333855 157.5 259.967812 155.466288 
Q 254.60177 153.432576 254.60177 149.954679 
Q 254.60177 146.464305 259.967812 144.433712 
Q 265.333855 142.4 274.521529 142.4 
Q 277.602472 142.4 280.431267 142.674489 
Q 283.260062 142.945858 285.876106 143.482359 
L 285.876106 146.492378 
Q 283.236423 145.781202 280.675536 145.450568 
Q 278.11465 145.119934 275.285855 145.119934 
Q 270.211359 145.119934 267.303768 146.408159 
Q 264.404056 147.693266 264.404056 149.954679 
Q 264.404056 152.206734 267.303768 153.49496 
Q 270.211359 154.780066 275.285855 154.780066 
Q 278.11465 154.780066 280.675536 154.449432 
Q 283.236423 154.115679 285.876106 153.404503 
z
" style="fill:#0000ff;"/>
   </g>
   <g id="patch_17">
    <path clip-path="url(#pbe4662c7d0)" d="M 285.876106 139.667589 
Q 282.722038 141.033795 279.329663 141.720017 
Q 275.937288 142.4 272.320623 142.4 
Q 264.148082 142.4 259.374926 138.332576 
Q 254.60177 134.265152 254.60177 127.309358 
Q 254.60177 120.272464 259.459035 116.236232 
Q 264.323308 112.2 272.78322 112.2 
Q 276.042423 112.2 279.028274 112.748977 
Q 282.021134 113.291717 284.670551 114.364718 
L 284.670551 120.384755 
Q 281.937026 119.006073 279.231536 118.32609 
Q 276.526047 117.639868 273.806539 117.639868 
Q 268.774049 117.639868 266.047532 120.147697 
Q 263.321016 122.649287 263.321016 127.309358 
Q 263.321016 131.925759 265.949406 134.446065 
Q 268.577796 136.960132 273.414033 136.960132 
Q 274.731733 136.960132 275.860188 136.816649 
Q 276.988644 136.666928 277.885801 136.355009 
L 277.885801 130.703037 
L 272.734156 130.703037 
L 272.734156 125.668663 
L 285.876106 125.668663 
z
" style="fill:#ffa600;"/>
   </g>
   <g id="patch_18">
    <path clip-path="url(#pbe4662c7d0)" d="M 254.60177 51.8 
L 285.876106 51.8 
L 285.876106 63.579683 
L 274.624618 63.579683 
L 274.624618 112.2 
L 265.875077 112.2 
L 265.875077 63.579683 
L 254.60177 63.579683 
z
" style="fill:#ff0000;"/>
   </g>
   <g id="patch_19">
    <path clip-path="url(#pbe4662c7d0)" d="M 318.79646 149.923487 
Q 316.180416 153.678992 313.351621 155.578579 
Q 310.522826 157.5 307.441883 157.5 
Q 298.254209 157.5 292.888166 143.264016 
Q 287.522124 129.028031 287.522124 104.682751 
Q 287.522124 80.250134 292.888166 66.035984 
Q 298.254209 51.8 307.441883 51.8 
Q 310.522826 51.8 313.351621 53.721421 
Q 316.180416 55.621008 318.79646 59.376513 
L 318.79646 80.446643 
Q 316.156777 75.468416 313.59589 73.153976 
Q 311.035004 70.839537 308.206209 70.839537 
Q 303.131713 70.839537 300.224122 79.857116 
Q 297.32441 88.852861 297.32441 104.682751 
Q 297.32441 120.447139 300.224122 129.464718 
Q 303.131713 138.460463 308.206209 138.460463 
Q 311.035004 138.460463 313.59589 136.146024 
Q 316.156777 133.80975 318.79646 128.831522 
z
" style="fill:#0000ff;"/>
   </g>
   <g id="patch_20">
    <path clip-path="url(#pbe4662c7d0)" d="M 320.442478 142.4 
L 351.716814 142.4 
L 351.716814 145.344921 
L 340.465326 145.344921 
L 340.465326 157.5 
L 331.715785 157.5 
L 331.715785 145.344921 
L 320.442478 145.344921 
z
" style="fill:#ff0000;"/>
   </g>
   <g id="patch_21">
    <path clip-path="url(#pbe4662c7d0)" d="M 351.716814 131.470357 
Q 348.562746 136.935179 345.170371 139.680066 
Q 341.777996 142.4 338.161331 142.4 
Q 329.98879 142.4 325.215634 126.130304 
Q 320.442478 109.860607 320.442478 82.03743 
Q 320.442478 53.889857 325.299743 37.744929 
Q 330.164016 21.6 338.623928 21.6 
Q 341.883131 21.6 344.868982 23.79591 
Q 347.861842 25.966866 350.511259 30.258872 
L 350.511259 54.339021 
Q 347.777734 48.824293 345.072244 46.104359 
Q 342.366755 43.359471 339.647247 43.359471 
Q 334.614757 43.359471 331.88824 53.390787 
Q 329.161724 63.397149 329.161724 82.03743 
Q 329.161724 100.503037 331.790114 110.584259 
Q 334.418504 120.640529 339.254741 120.640529 
Q 340.572441 120.640529 341.700896 120.066598 
Q 342.829351 119.467713 343.726509 118.220037 
L 343.726509 95.612146 
L 338.574864 95.612146 
L 338.574864 75.474654 
L 351.716814 75.474654 
z
" style="fill:#ffa600;"/>
   </g>
   <g id="patch_22">
    <path clip-path="url(#pbe4662c7d0)" d="M 384.637168 155.335282 
Q 382.021124 156.408283 379.192329 156.951023 
Q 376.363534 157.5 373.282591 157.5 
Q 364.094917 157.5 358.728874 153.432576 
Q 353.362832 149.365152 353.362832 142.409358 
Q 353.362832 135.42861 358.728874 131.367424 
Q 364.094917 127.3 373.282591 127.3 
Q 376.363534 127.3 379.192329 127.848977 
Q 382.021124 128.391717 384.637168 129.464718 
L 384.637168 135.484755 
Q 381.997485 134.062404 379.436598 133.401136 
Q 376.875712 132.739868 374.046917 132.739868 
Q 368.972421 132.739868 366.06483 135.316319 
Q 363.165118 137.886532 363.165118 142.409358 
Q 363.165118 146.913468 366.06483 149.489919 
Q 368.972421 152.060132 374.046917 152.060132 
Q 376.875712 152.060132 379.436598 151.398864 
Q 381.997485 150.731357 384.637168 149.309006 
z
" style="fill:#0000ff;"/>
   </g>
   <g id="patch_23">
    <path clip-path="url(#pbe4662c7d0)" d="M 353.362832 97.1 
L 384.637168 97.1 
L 384.637168 102.989841 
L 373.38568 102.989841 
L 373.38568 127.3 
L 364.636139 127.3 
L 364.636139 102.989841 
L 353.362832 102.989841 
z
" style="fill:#ff0000;"/>
   </g>
   <g id="patch_24">
    <path clip-path="url(#pbe4662c7d0)" d="M 384.637168 90.268973 
Q 381.4831 93.684487 378.090725 95.400041 
Q 374.698349 97.1 371.081685 97.1 
Q 362.909144 97.1 358.135988 86.93144 
Q 353.362832 76.76288 353.362832 59.373394 
Q 353.362832 41.781161 358.220097 31.69058 
Q 363.08437 21.6 371.544282 21.6 
Q 374.803485 21.6 377.789336 22.972444 
Q 380.782196 24.329291 383.431613 27.011795 
L 383.431613 42.061888 
Q 380.698088 38.615183 377.992598 36.915224 
Q 375.287109 35.199669 372.567601 35.199669 
Q 367.535111 35.199669 364.808594 41.469242 
Q 362.082078 47.723218 362.082078 59.373394 
Q 362.082078 70.914398 364.710468 77.215162 
Q 367.338858 83.500331 372.175095 83.500331 
Q 373.492795 83.500331 374.62125 83.141624 
Q 375.749705 82.767321 376.646863 81.987523 
L 376.646863 67.857591 
L 371.495218 67.857591 
L 371.495218 55.271659 
L 384.637168 55.271659 
z
" style="fill:#ffa600;"/>
   </g>
   <g id="patch_25">
    <path clip-path="url(#pbe4662c7d0)" d="M 417.557522 156.417641 
Q 414.941478 156.954142 412.112683 157.225511 
Q 409.283888 157.5 406.202945 157.5 
Q 397.015271 157.5 391.649228 155.466288 
Q 386.283186 153.432576 386.283186 149.954679 
Q 386.283186 146.464305 391.649228 144.433712 
Q 397.015271 142.4 406.202945 142.4 
Q 409.283888 142.4 412.112683 142.674489 
Q 414.941478 142.945858 417.557522 143.482359 
L 417.557522 146.492378 
Q 414.917839 145.781202 412.356952 145.450568 
Q 409.796066 145.119934 406.967271 145.119934 
Q 401.892775 145.119934 398.985184 146.408159 
Q 396.085472 147.693266 396.085472 149.954679 
Q 396.085472 152.206734 398.985184 153.49496 
Q 401.892775 154.780066 406.967271 154.780066 
Q 409.796066 154.780066 412.356952 154.449432 
Q 414.917839 154.115679 417.557522 153.404503 
z
" style="fill:#0000ff;"/>
   </g>
   <g id="patch_26">
    <path clip-path="url(#pbe4662c7d0)" d="M 386.283186 21.6 
L 417.557522 21.6 
L 417.557522 45.159366 
L 406.306034 45.159366 
L 406.306034 142.4 
L 397.556493 142.4 
L 397.556493 45.159366 
L 386.283186 45.159366 
z
" style="fill:#ff0000;"/>
   </g>
   <g id="patch_27">
    <path clip-path="url(#pbe4662c7d0)" d="M 440.8673 154.74925 
L 428.839693 154.74925 
L 426.940597 157.5 
L 419.20354 157.5 
L 430.252825 142.4 
L 439.428591 142.4 
L 450.477876 157.5 
L 442.747213 157.5 
z
M 430.757972 151.946721 
L 438.929839 151.946721 
L 434.850299 145.940377 
z
" style="fill:#008000;"/>
   </g>
   <g id="patch_28">
    <path clip-path="url(#pbe4662c7d0)" d="M 450.477876 141.033795 
Q 447.323808 141.716897 443.931433 142.060008 
Q 440.539057 142.4 436.922393 142.4 
Q 428.749852 142.4 423.976696 140.366288 
Q 419.20354 138.332576 419.20354 134.854679 
Q 419.20354 131.336232 424.060805 129.318116 
Q 428.925078 127.3 437.384989 127.3 
Q 440.644193 127.3 443.630044 127.574489 
Q 446.622904 127.845858 449.272321 128.382359 
L 449.272321 131.392378 
Q 446.538796 130.703037 443.833306 130.363045 
Q 441.127817 130.019934 438.408309 130.019934 
Q 433.375819 130.019934 430.649302 131.273848 
Q 427.922786 132.524644 427.922786 134.854679 
Q 427.922786 137.16288 430.551176 138.423032 
Q 433.179565 139.680066 438.015803 139.680066 
Q 439.333503 139.680066 440.461958 139.608325 
Q 441.590413 139.533464 442.487571 139.377505 
L 442.487571 136.551518 
L 437.335926 136.551518 
L 437.335926 134.034332 
L 450.477876 134.034332 
z
" style="fill:#ffa600;"/>
   </g>
   <g id="patch_29">
    <path clip-path="url(#pbe4662c7d0)" d="M 419.20354 21.6 
L 450.477876 21.6 
L 450.477876 42.214445 
L 439.226388 42.214445 
L 439.226388 127.3 
L 430.476847 127.3 
L 430.476847 42.214445 
L 419.20354 42.214445 
z
" style="fill:#ff0000;"/>
   </g>
   <g id="patch_30">
    <path clip-path="url(#pbe4662c7d0)" d="M 483.39823 156.133795 
Q 480.244162 156.816897 476.851787 157.160008 
Q 473.459411 157.5 469.842747 157.5 
Q 461.670206 157.5 456.89705 155.466288 
Q 452.123894 153.432576 452.123894 149.954679 
Q 452.123894 146.436232 456.981158 144.418116 
Q 461.845432 142.4 470.305343 142.4 
Q 473.564547 142.4 476.550398 142.674489 
Q 479.543258 142.945858 482.192675 143.482359 
L 482.192675 146.492378 
Q 479.45915 145.803037 476.75366 145.463045 
Q 474.048171 145.119934 471.328663 145.119934 
Q 466.296173 145.119934 463.569656 146.373848 
Q 460.84314 147.624644 460.84314 149.954679 
Q 460.84314 152.26288 463.471529 153.523032 
Q 466.099919 154.780066 470.936157 154.780066 
Q 472.253857 154.780066 473.382312 154.708325 
Q 474.510767 154.633464 475.407925 154.477505 
L 475.407925 151.651518 
L 470.25628 151.651518 
L 470.25628 149.134332 
L 483.39823 149.134332 
z
" style="fill:#ffa600;"/>
   </g>
   <g id="patch_31">
    <path clip-path="url(#pbe4662c7d0)" d="M 452.123894 127.3 
L 483.39823 127.3 
L 483.39823 130.244921 
L 472.146742 130.244921 
L 472.146742 142.4 
L 463.397201 142.4 
L 463.397201 130.244921 
L 452.123894 130.244921 
z
" style="fill:#ff0000;"/>
   </g>
   <g id="patch_32">
    <path clip-path="url(#pbe4662c7d0)" d="M 473.787654 108.044749 
L 461.760047 108.044749 
L 459.860951 127.3 
L 452.123894 127.3 
L 463.173179 21.6 
L 472.348945 21.6 
L 483.39823 127.3 
L 475.667567 127.3 
z
M 463.678326 88.427047 
L 471.850193 88.427047 
L 467.770653 46.38264 
z
" style="fill:#008000;"/>
   </g>
   <g id="patch_33">
    <path clip-path="url(#pbe4662c7d0)" d="M 506.708008 132.743249 
L 494.680401 132.743249 
L 492.781305 157.5 
L 485.044248 157.5 
L 496.093533 21.6 
L 505.269299 21.6 
L 516.318584 157.5 
L 508.587921 157.5 
z
M 496.59868 107.520489 
L 504.770547 107.520489 
L 500.691007 53.463395 
z
" style="fill:#008000;"/>
   </g>
   <g id="patch_34">
    <path clip-path="url(#pbe4662c7d0)" d="M 517.964602 21.6 
L 549.238938 21.6 
L 549.238938 48.104286 
L 537.98745 48.104286 
L 537.98745 157.5 
L 529.237909 157.5 
L 529.237909 48.104286 
L 517.964602 48.104286 
z
" style="fill:#ff0000;"/>
   </g>
   <g id="patch_35">
    <path clip-path="url(#pbe4662c7d0)" d="M 582.159292 145.204152 
Q 579.005224 151.352076 575.612849 154.440074 
Q 572.220473 157.5 568.603809 157.5 
Q 560.431268 157.5 555.658112 139.196592 
Q 550.884956 120.893183 550.884956 89.592109 
Q 550.884956 57.92609 555.74222 39.763045 
Q 560.606494 21.6 569.066405 21.6 
Q 572.325609 21.6 575.31146 24.070399 
Q 578.30432 26.512725 580.953737 31.341231 
L 580.953737 58.431398 
Q 578.220212 52.227329 575.514722 49.167403 
Q 572.809233 46.079405 570.089725 46.079405 
Q 565.057235 46.079405 562.330718 57.364635 
Q 559.604201 68.621793 559.604201 89.592109 
Q 559.604201 110.365916 562.232591 121.707292 
Q 564.860981 133.020595 569.697219 133.020595 
Q 571.014919 133.020595 572.143374 132.374923 
Q 573.271829 131.701177 574.168986 130.297542 
L 574.168986 104.863665 
L 569.017342 104.863665 
L 569.017342 82.208986 
L 582.159292 82.208986 
z
" style="fill:#ffa600;"/>
   </g>
   <g id="patch_36">
    <path clip-path="url(#pbe4662c7d0)" d="M 615.079646 156.133795 
Q 611.925578 156.816897 608.533203 157.160008 
Q 605.140827 157.5 601.524163 157.5 
Q 593.351622 157.5 588.578466 155.466288 
Q 583.80531 153.432576 583.80531 149.954679 
Q 583.80531 146.436232 588.662574 144.418116 
Q 593.526848 142.4 601.986759 142.4 
Q 605.245963 142.4 608.231814 142.674489 
Q 611.224674 142.945858 613.874091 143.482359 
L 613.874091 146.492378 
Q 611.140566 145.803037 608.435076 145.463045 
Q 605.729587 145.119934 603.010079 145.119934 
Q 597.977589 145.119934 595.251072 146.373848 
Q 592.524555 147.624644 592.524555 149.954679 
Q 592.524555 152.26288 595.152945 153.523032 
Q 597.781335 154.780066 602.617573 154.780066 
Q 603.935272 154.780066 605.063728 154.708325 
Q 606.192183 154.633464 607.08934 154.477505 
L 607.08934 151.651518 
L 601.937696 151.651518 
L 601.937696 149.134332 
L 615.079646 149.134332 
z
" style="fill:#ffa600;"/>
   </g>
   <g id="patch_37">
    <path clip-path="url(#pbe4662c7d0)" d="M 615.079646 140.235282 
Q 612.463602 141.308283 609.634807 141.851023 
Q 606.806012 142.4 603.725068 142.4 
Q 594.537395 142.4 589.171352 138.332576 
Q 583.80531 134.265152 583.80531 127.309358 
Q 583.80531 120.32861 589.171352 116.267424 
Q 594.537395 112.2 603.725068 112.2 
Q 606.806012 112.2 609.634807 112.748977 
Q 612.463602 113.291717 615.079646 114.364718 
L 615.079646 120.384755 
Q 612.439963 118.962404 609.879076 118.301136 
Q 607.318189 117.639868 604.489395 117.639868 
Q 599.414899 117.639868 596.507308 120.216319 
Q 593.607596 122.786532 593.607596 127.309358 
Q 593.607596 131.813468 596.507308 134.389919 
Q 599.414899 136.960132 604.489395 136.960132 
Q 607.318189 136.960132 609.879076 136.298864 
Q 612.439963 135.631357 615.079646 134.209006 
z
" style="fill:#0000ff;"/>
   </g>
   <g id="patch_38">
    <path clip-path="url(#pbe4662c7d0)" d="M 583.80531 21.6 
L 615.079646 21.6 
L 615.079646 39.269524 
L 603.828158 39.269524 
L 603.828158 112.2 
L 595.078617 112.2 
L 595.078617 39.269524 
L 583.80531 39.269524 
z
" style="fill:#ff0000;"/>
   </g>
   <g id="patch_39">
    <path clip-path="url(#pbe4662c7d0)" d="M 648 156.417641 
Q 645.383956 156.954142 642.555161 157.225511 
Q 639.726366 157.5 636.645422 157.5 
Q 627.457749 157.5 622.091706 155.466288 
Q 616.725664 153.432576 616.725664 149.954679 
Q 616.725664 146.464305 622.091706 144.433712 
Q 627.457749 142.4 636.645422 142.4 
Q 639.726366 142.4 642.555161 142.674489 
Q 645.383956 142.945858 648 143.482359 
L 648 146.492378 
Q 645.360317 145.781202 642.79943 145.450568 
Q 640.238543 145.119934 637.409749 145.119934 
Q 632.335253 145.119934 629.427662 146.408159 
Q 626.52795 147.693266 626.52795 149.954679 
Q 626.52795 152.206734 629.427662 153.49496 
Q 632.335253 154.780066 637.409749 154.780066 
Q 640.238543 154.780066 642.79943 154.449432 
Q 645.360317 154.115679 648 153.404503 
z
" style="fill:#0000ff;"/>
   </g>
   <g id="patch_40">
    <path clip-path="url(#pbe4662c7d0)" d="M 648 139.667589 
Q 644.845932 141.033795 641.453557 141.720017 
Q 638.061181 142.4 634.444517 142.4 
Q 626.271976 142.4 621.49882 138.332576 
Q 616.725664 134.265152 616.725664 127.309358 
Q 616.725664 120.272464 621.582928 116.236232 
Q 626.447202 112.2 634.907113 112.2 
Q 638.166317 112.2 641.152168 112.748977 
Q 644.145028 113.291717 646.794445 114.364718 
L 646.794445 120.384755 
Q 644.06092 119.006073 641.35543 118.32609 
Q 638.649941 117.639868 635.930433 117.639868 
Q 630.897943 117.639868 628.171426 120.147697 
Q 625.444909 122.649287 625.444909 127.309358 
Q 625.444909 131.925759 628.073299 134.446065 
Q 630.701689 136.960132 635.537927 136.960132 
Q 636.855626 136.960132 637.984082 136.816649 
Q 639.112537 136.666928 640.009694 136.355009 
L 640.009694 130.703037 
L 634.85805 130.703037 
L 634.85805 125.668663 
L 648 125.668663 
z
" style="fill:#ffa600;"/>
   </g>
   <g id="patch_41">
    <path clip-path="url(#pbe4662c7d0)" d="M 638.389424 95.695499 
L 626.361817 95.695499 
L 624.462721 112.2 
L 616.725664 112.2 
L 627.774949 21.6 
L 636.950715 21.6 
L 648 112.2 
L 640.269337 112.2 
z
M 628.280095 78.880326 
L 636.451963 78.880326 
L 632.372423 42.842263 
z
" style="fill:#008000;"/>
   </g>
  </g>
 </g>
 <defs>
  <clipPath id="pbe4662c7d0">
   <rect height="135.9" width="558" x="90" y="21.6"/>
  </clipPath>
 </defs>
</svg>
