<?xml version="1.0" encoding="utf-8" standalone="no"?>
<!DOCTYPE svg PUBLIC "-//W3C//DTD SVG 1.1//EN"
  "http://www.w3.org/Graphics/SVG/1.1/DTD/svg11.dtd">
<!-- Created with matplotlib (https://matplotlib.org/) -->
<svg height="180pt" version="1.1" viewBox="0 0 720 180" width="720pt" xmlns="http://www.w3.org/2000/svg" xmlns:xlink="http://www.w3.org/1999/xlink">
 <metadata>
  <rdf:RDF xmlns:cc="http://creativecommons.org/ns#" xmlns:dc="http://purl.org/dc/elements/1.1/" xmlns:rdf="http://www.w3.org/1999/02/22-rdf-syntax-ns#">
   <cc:Work>
    <dc:type rdf:resource="http://purl.org/dc/dcmitype/StillImage"/>
    <dc:date>2021-08-04T23:32:52.998536</dc:date>
    <dc:format>image/svg+xml</dc:format>
    <dc:creator>
     <cc:Agent>
      <dc:title>Matplotlib v3.3.2, https://matplotlib.org/</dc:title>
     </cc:Agent>
    </dc:creator>
   </cc:Work>
  </rdf:RDF>
 </metadata>
 <defs>
  <style type="text/css">*{stroke-linecap:butt;stroke-linejoin:round;}</style>
 </defs>
 <g id="figure_1">
  <g id="patch_1">
   <path d="M 0 180 
L 720 180 
L 720 0 
L 0 0 
z
" style="fill:none;"/>
  </g>
  <g id="axes_1">
   <g id="line2d_1">
    <path clip-path="url(#pfb68471e98)" d="M 90 157.5 
L 648 157.5 
" style="fill:none;stroke:#000000;stroke-linecap:square;stroke-width:0.5;"/>
   </g>
   <g id="patch_2">
    <path clip-path="url(#pfb68471e98)" d="M 121.274336 154.252923 
Q 118.658292 155.862425 115.829497 156.676534 
Q 113.000702 157.5 109.919759 157.5 
Q 100.732085 157.5 95.366043 151.398864 
Q 90 145.297728 90 134.864036 
Q 90 124.392915 95.366043 118.301136 
Q 100.732085 112.2 109.919759 112.2 
Q 113.000702 112.2 115.829497 113.023466 
Q 118.658292 113.837575 121.274336 115.447077 
L 121.274336 124.477133 
Q 118.634653 122.343607 116.073766 121.351704 
Q 113.51288 120.359802 110.684085 120.359802 
Q 105.609589 120.359802 102.701998 124.224478 
Q 99.802286 128.079798 99.802286 134.864036 
Q 99.802286 141.620202 102.701998 145.484879 
Q 105.609589 149.340198 110.684085 149.340198 
Q 113.51288 149.340198 116.073766 148.348296 
Q 118.634653 147.347036 121.274336 145.21351 
z
" style="fill:#0000ff;"/>
   </g>
   <g id="patch_3">
    <path clip-path="url(#pfb68471e98)" d="M 121.274336 108.101384 
Q 118.120268 110.150692 114.727893 111.180025 
Q 111.335518 112.2 107.718853 112.2 
Q 99.546312 112.2 94.773156 106.098864 
Q 90 99.997728 90 89.564036 
Q 90 79.008697 94.857265 72.954348 
Q 99.721538 66.9 108.18145 66.9 
Q 111.440653 66.9 114.426504 67.723466 
Q 117.419364 68.537575 120.068781 70.147077 
L 120.068781 79.177133 
Q 117.335256 77.10911 114.629766 76.089134 
Q 111.924277 75.059802 109.204769 75.059802 
Q 104.172279 75.059802 101.445762 78.821545 
Q 98.719246 82.573931 98.719246 89.564036 
Q 98.719246 96.488639 101.347636 100.269097 
Q 103.976026 104.040198 108.812263 104.040198 
Q 110.129963 104.040198 111.258418 103.824974 
Q 112.386874 103.600392 113.284031 103.132514 
L 113.284031 94.654555 
L 108.132386 94.654555 
L 108.132386 87.102995 
L 121.274336 87.102995 
z
" style="fill:#ffa600;"/>
   </g>
   <g id="patch_4">
    <path clip-path="url(#pfb68471e98)" d="M 144.584114 154.74925 
L 132.556507 154.74925 
L 130.657411 157.5 
L 122.920354 157.5 
L 133.969639 142.4 
L 143.145405 142.4 
L 154.19469 157.5 
L 146.464027 157.5 
z
M 134.474786 151.946721 
L 142.646653 151.946721 
L 138.567114 145.940377 
z
" style="fill:#008000;"/>
   </g>
   <g id="patch_5">
    <path clip-path="url(#pfb68471e98)" d="M 154.19469 141.317641 
Q 151.578646 141.854142 148.749851 142.125511 
Q 145.921056 142.4 142.840113 142.4 
Q 133.652439 142.4 128.286397 140.366288 
Q 122.920354 138.332576 122.920354 134.854679 
Q 122.920354 131.364305 128.286397 129.333712 
Q 133.652439 127.3 142.840113 127.3 
Q 145.921056 127.3 148.749851 127.574489 
Q 151.578646 127.845858 154.19469 128.382359 
L 154.19469 131.392378 
Q 151.555007 130.681202 148.99412 130.350568 
Q 146.433234 130.019934 143.604439 130.019934 
Q 138.529943 130.019934 135.622352 131.308159 
Q 132.72264 132.593266 132.72264 134.854679 
Q 132.72264 137.106734 135.622352 138.39496 
Q 138.529943 139.680066 143.604439 139.680066 
Q 146.433234 139.680066 148.99412 139.349432 
Q 151.555007 139.015679 154.19469 138.304503 
z
" style="fill:#0000ff;"/>
   </g>
   <g id="patch_6">
    <path clip-path="url(#pfb68471e98)" d="M 154.19469 124.567589 
Q 151.040622 125.933795 147.648247 126.620017 
Q 144.255872 127.3 140.639207 127.3 
Q 132.466666 127.3 127.69351 123.232576 
Q 122.920354 119.165152 122.920354 112.209358 
Q 122.920354 105.172464 127.777619 101.136232 
Q 132.641892 97.1 141.101804 97.1 
Q 144.361007 97.1 147.346858 97.648977 
Q 150.339718 98.191717 152.989135 99.264718 
L 152.989135 105.284755 
Q 150.25561 103.906073 147.55012 103.22609 
Q 144.844631 102.539868 142.125123 102.539868 
Q 137.092633 102.539868 134.366116 105.047697 
Q 131.6396 107.549287 131.6396 112.209358 
Q 131.6396 116.825759 134.26799 119.346065 
Q 136.89638 121.860132 141.732617 121.860132 
Q 143.050317 121.860132 144.178772 121.716649 
Q 145.307228 121.566928 146.204385 121.255009 
L 146.204385 115.603037 
L 141.05274 115.603037 
L 141.05274 110.568663 
L 154.19469 110.568663 
z
" style="fill:#ffa600;"/>
   </g>
   <g id="patch_7">
    <path clip-path="url(#pfb68471e98)" d="M 122.920354 66.9 
L 154.19469 66.9 
L 154.19469 72.789841 
L 142.943202 72.789841 
L 142.943202 97.1 
L 134.193661 97.1 
L 134.193661 72.789841 
L 122.920354 72.789841 
z
" style="fill:#ff0000;"/>
   </g>
   <g id="patch_8">
    <path clip-path="url(#pfb68471e98)" d="M 187.115044 156.133795 
Q 183.960976 156.816897 180.568601 157.160008 
Q 177.176226 157.5 173.559561 157.5 
Q 165.38702 157.5 160.613864 155.466288 
Q 155.840708 153.432576 155.840708 149.954679 
Q 155.840708 146.436232 160.697973 144.418116 
Q 165.562246 142.4 174.022158 142.4 
Q 177.281361 142.4 180.267212 142.674489 
Q 183.260072 142.945858 185.909489 143.482359 
L 185.909489 146.492378 
Q 183.175964 145.803037 180.470474 145.463045 
Q 177.764985 145.119934 175.045477 145.119934 
Q 170.012987 145.119934 167.28647 146.373848 
Q 164.559954 147.624644 164.559954 149.954679 
Q 164.559954 152.26288 167.188344 153.523032 
Q 169.816734 154.780066 174.652971 154.780066 
Q 175.970671 154.780066 177.099126 154.708325 
Q 178.227582 154.633464 179.124739 154.477505 
L 179.124739 151.651518 
L 173.973094 151.651518 
L 173.973094 149.134332 
L 187.115044 149.134332 
z
" style="fill:#ffa600;"/>
   </g>
   <g id="patch_9">
    <path clip-path="url(#pfb68471e98)" d="M 187.115044 140.235282 
Q 184.499 141.308283 181.670205 141.851023 
Q 178.84141 142.4 175.760467 142.4 
Q 166.572793 142.4 161.206751 138.332576 
Q 155.840708 134.265152 155.840708 127.309358 
Q 155.840708 120.32861 161.206751 116.267424 
Q 166.572793 112.2 175.760467 112.2 
Q 178.84141 112.2 181.670205 112.748977 
Q 184.499 113.291717 187.115044 114.364718 
L 187.115044 120.384755 
Q 184.475361 118.962404 181.914474 118.301136 
Q 179.353588 117.639868 176.524793 117.639868 
Q 171.450297 117.639868 168.542706 120.216319 
Q 165.642994 122.786532 165.642994 127.309358 
Q 165.642994 131.813468 168.542706 134.389919 
Q 171.450297 136.960132 176.524793 136.960132 
Q 179.353588 136.960132 181.914474 136.298864 
Q 184.475361 135.631357 187.115044 134.209006 
z
" style="fill:#0000ff;"/>
   </g>
   <g id="patch_10">
    <path clip-path="url(#pfb68471e98)" d="M 177.504468 103.94775 
L 165.476861 103.94775 
L 163.577765 112.2 
L 155.840708 112.2 
L 166.889993 66.9 
L 176.065759 66.9 
L 187.115044 112.2 
L 179.384381 112.2 
z
M 167.39514 95.540163 
L 175.567007 95.540163 
L 171.487467 77.521132 
z
" style="fill:#008000;"/>
   </g>
   <g id="patch_11">
    <path clip-path="url(#pfb68471e98)" d="M 220.035398 156.133795 
Q 216.88133 156.816897 213.488955 157.160008 
Q 210.09658 157.5 206.479915 157.5 
Q 198.307374 157.5 193.534218 155.466288 
Q 188.761062 153.432576 188.761062 149.954679 
Q 188.761062 146.436232 193.618327 144.418116 
Q 198.4826 142.4 206.942512 142.4 
Q 210.201715 142.4 213.187566 142.674489 
Q 216.180426 142.945858 218.829843 143.482359 
L 218.829843 146.492378 
Q 216.096318 145.803037 213.390828 145.463045 
Q 210.685339 145.119934 207.965831 145.119934 
Q 202.933341 145.119934 200.206824 146.373848 
Q 197.480308 147.624644 197.480308 149.954679 
Q 197.480308 152.26288 200.108698 153.523032 
Q 202.737088 154.780066 207.573325 154.780066 
Q 208.891025 154.780066 210.01948 154.708325 
Q 211.147936 154.633464 212.045093 154.477505 
L 212.045093 151.651518 
L 206.893448 151.651518 
L 206.893448 149.134332 
L 220.035398 149.134332 
z
" style="fill:#ffa600;"/>
   </g>
   <g id="patch_12">
    <path clip-path="url(#pfb68471e98)" d="M 188.761062 127.3 
L 220.035398 127.3 
L 220.035398 130.244921 
L 208.78391 130.244921 
L 208.78391 142.4 
L 200.034369 142.4 
L 200.034369 130.244921 
L 188.761062 130.244921 
z
" style="fill:#ff0000;"/>
   </g>
   <g id="patch_13">
    <path clip-path="url(#pfb68471e98)" d="M 210.424822 121.7985 
L 198.397215 121.7985 
L 196.498119 127.3 
L 188.761062 127.3 
L 199.810347 97.1 
L 208.986113 97.1 
L 220.035398 127.3 
L 212.304735 127.3 
z
M 200.315494 116.193442 
L 208.487361 116.193442 
L 204.407821 104.180754 
z
" style="fill:#008000;"/>
   </g>
   <g id="patch_14">
    <path clip-path="url(#pfb68471e98)" d="M 220.035398 94.935282 
Q 217.419354 96.008283 214.590559 96.551023 
Q 211.761764 97.1 208.680821 97.1 
Q 199.493147 97.1 194.127105 93.032576 
Q 188.761062 88.965152 188.761062 82.009358 
Q 188.761062 75.02861 194.127105 70.967424 
Q 199.493147 66.9 208.680821 66.9 
Q 211.761764 66.9 214.590559 67.448977 
Q 217.419354 67.991717 220.035398 69.064718 
L 220.035398 75.084755 
Q 217.395715 73.662404 214.834828 73.001136 
Q 212.273942 72.339868 209.445147 72.339868 
Q 204.370651 72.339868 201.46306 74.916319 
Q 198.563348 77.486532 198.563348 82.009358 
Q 198.563348 86.513468 201.46306 89.089919 
Q 204.370651 91.660132 209.445147 91.660132 
Q 212.273942 91.660132 214.834828 90.998864 
Q 217.395715 90.331357 220.035398 88.909006 
z
" style="fill:#0000ff;"/>
   </g>
   <g id="patch_15">
    <path clip-path="url(#pfb68471e98)" d="M 221.681416 142.4 
L 252.955752 142.4 
L 252.955752 145.344921 
L 241.704264 145.344921 
L 241.704264 157.5 
L 232.954723 157.5 
L 232.954723 145.344921 
L 221.681416 145.344921 
z
" style="fill:#ff0000;"/>
   </g>
   <g id="patch_16">
    <path clip-path="url(#pfb68471e98)" d="M 243.345176 136.8985 
L 231.317569 136.8985 
L 229.418473 142.4 
L 221.681416 142.4 
L 232.730701 112.2 
L 241.906467 112.2 
L 252.955752 142.4 
L 245.225089 142.4 
z
M 233.235848 131.293442 
L 241.407715 131.293442 
L 237.328175 119.280754 
z
" style="fill:#008000;"/>
   </g>
   <g id="patch_17">
    <path clip-path="url(#pfb68471e98)" d="M 252.955752 108.952923 
Q 250.339708 110.562425 247.510913 111.376534 
Q 244.682118 112.2 241.601175 112.2 
Q 232.413501 112.2 227.047459 106.098864 
Q 221.681416 99.997728 221.681416 89.564036 
Q 221.681416 79.092915 227.047459 73.001136 
Q 232.413501 66.9 241.601175 66.9 
Q 244.682118 66.9 247.510913 67.723466 
Q 250.339708 68.537575 252.955752 70.147077 
L 252.955752 79.177133 
Q 250.316069 77.043607 247.755182 76.051704 
Q 245.194296 75.059802 242.365501 75.059802 
Q 237.291005 75.059802 234.383414 78.924478 
Q 231.483702 82.779798 231.483702 89.564036 
Q 231.483702 96.320202 234.383414 100.184879 
Q 237.291005 104.040198 242.365501 104.040198 
Q 245.194296 104.040198 247.755182 103.048296 
Q 250.316069 102.047036 252.955752 99.91351 
z
" style="fill:#0000ff;"/>
   </g>
   <g id="patch_18">
    <path clip-path="url(#pfb68471e98)" d="M 276.26553 151.9985 
L 264.237923 151.9985 
L 262.338827 157.5 
L 254.60177 157.5 
L 265.651055 127.3 
L 274.826821 127.3 
L 285.876106 157.5 
L 278.145443 157.5 
z
M 266.156202 146.393442 
L 274.328069 146.393442 
L 270.248529 134.380754 
z
" style="fill:#008000;"/>
   </g>
   <g id="patch_19">
    <path clip-path="url(#pfb68471e98)" d="M 285.876106 125.135282 
Q 283.260062 126.208283 280.431267 126.751023 
Q 277.602472 127.3 274.521529 127.3 
Q 265.333855 127.3 259.967812 123.232576 
Q 254.60177 119.165152 254.60177 112.209358 
Q 254.60177 105.22861 259.967812 101.167424 
Q 265.333855 97.1 274.521529 97.1 
Q 277.602472 97.1 280.431267 97.648977 
Q 283.260062 98.191717 285.876106 99.264718 
L 285.876106 105.284755 
Q 283.236423 103.862404 280.675536 103.201136 
Q 278.11465 102.539868 275.285855 102.539868 
Q 270.211359 102.539868 267.303768 105.116319 
Q 264.404056 107.686532 264.404056 112.209358 
Q 264.404056 116.713468 267.303768 119.289919 
Q 270.211359 121.860132 275.285855 121.860132 
Q 278.11465 121.860132 280.675536 121.198864 
Q 283.236423 120.531357 285.876106 119.109006 
z
" style="fill:#0000ff;"/>
   </g>
   <g id="patch_20">
    <path clip-path="url(#pfb68471e98)" d="M 254.60177 66.9 
L 285.876106 66.9 
L 285.876106 72.789841 
L 274.624618 72.789841 
L 274.624618 97.1 
L 265.875077 97.1 
L 265.875077 72.789841 
L 254.60177 72.789841 
z
" style="fill:#ff0000;"/>
   </g>
   <g id="patch_21">
    <path clip-path="url(#pfb68471e98)" d="M 318.79646 155.335282 
Q 316.180416 156.408283 313.351621 156.951023 
Q 310.522826 157.5 307.441883 157.5 
Q 298.254209 157.5 292.888166 153.432576 
Q 287.522124 149.365152 287.522124 142.409358 
Q 287.522124 135.42861 292.888166 131.367424 
Q 298.254209 127.3 307.441883 127.3 
Q 310.522826 127.3 313.351621 127.848977 
Q 316.180416 128.391717 318.79646 129.464718 
L 318.79646 135.484755 
Q 316.156777 134.062404 313.59589 133.401136 
Q 311.035004 132.739868 308.206209 132.739868 
Q 303.131713 132.739868 300.224122 135.316319 
Q 297.32441 137.886532 297.32441 142.409358 
Q 297.32441 146.913468 300.224122 149.489919 
Q 303.131713 152.060132 308.206209 152.060132 
Q 311.035004 152.060132 313.59589 151.398864 
Q 316.156777 150.731357 318.79646 149.309006 
z
" style="fill:#0000ff;"/>
   </g>
   <g id="patch_22">
    <path clip-path="url(#pfb68471e98)" d="M 309.185884 116.297 
L 297.158277 116.297 
L 295.259181 127.3 
L 287.522124 127.3 
L 298.571409 66.9 
L 307.747175 66.9 
L 318.79646 127.3 
L 311.065797 127.3 
z
M 299.076556 105.086884 
L 307.248423 105.086884 
L 303.168883 81.061509 
z
" style="fill:#008000;"/>
   </g>
   <g id="patch_23">
    <path clip-path="url(#pfb68471e98)" d="M 342.106238 151.9985 
L 330.078631 151.9985 
L 328.179535 157.5 
L 320.442478 157.5 
L 331.491763 127.3 
L 340.667529 127.3 
L 351.716814 157.5 
L 343.986151 157.5 
z
M 331.99691 146.393442 
L 340.168777 146.393442 
L 336.089237 134.380754 
z
" style="fill:#008000;"/>
   </g>
   <g id="patch_24">
    <path clip-path="url(#pfb68471e98)" d="M 351.716814 124.052923 
Q 349.10077 125.662425 346.271975 126.476534 
Q 343.44318 127.3 340.362237 127.3 
Q 331.174563 127.3 325.80852 121.198864 
Q 320.442478 115.097728 320.442478 104.664036 
Q 320.442478 94.192915 325.80852 88.101136 
Q 331.174563 82 340.362237 82 
Q 343.44318 82 346.271975 82.823466 
Q 349.10077 83.637575 351.716814 85.247077 
L 351.716814 94.277133 
Q 349.077131 92.143607 346.516244 91.151704 
Q 343.955358 90.159802 341.126563 90.159802 
Q 336.052067 90.159802 333.144476 94.024478 
Q 330.244764 97.879798 330.244764 104.664036 
Q 330.244764 111.420202 333.144476 115.284879 
Q 336.052067 119.140198 341.126563 119.140198 
Q 343.955358 119.140198 346.516244 118.148296 
Q 349.077131 117.147036 351.716814 115.01351 
z
" style="fill:#0000ff;"/>
   </g>
   <g id="patch_25">
    <path clip-path="url(#pfb68471e98)" d="M 351.716814 76.535179 
Q 348.562746 79.267589 345.170371 80.640033 
Q 341.777996 82 338.161331 82 
Q 329.98879 82 325.215634 73.865152 
Q 320.442478 65.730304 320.442478 51.818715 
Q 320.442478 37.744929 325.299743 29.672464 
Q 330.164016 21.6 338.623928 21.6 
Q 341.883131 21.6 344.868982 22.697955 
Q 347.861842 23.783433 350.511259 25.929436 
L 350.511259 37.96951 
Q 347.777734 35.212146 345.072244 33.852179 
Q 342.366755 32.479736 339.647247 32.479736 
Q 334.614757 32.479736 331.88824 37.495394 
Q 329.161724 42.498575 329.161724 51.818715 
Q 329.161724 61.051518 331.790114 66.09213 
Q 334.418504 71.120264 339.254741 71.120264 
Q 340.572441 71.120264 341.700896 70.833299 
Q 342.829351 70.533857 343.726509 69.910019 
L 343.726509 58.606073 
L 338.574864 58.606073 
L 338.574864 48.537327 
L 351.716814 48.537327 
z
" style="fill:#ffa600;"/>
   </g>
   <g id="patch_26">
    <path clip-path="url(#pfb68471e98)" d="M 384.637168 154.252923 
Q 382.021124 155.862425 379.192329 156.676534 
Q 376.363534 157.5 373.282591 157.5 
Q 364.094917 157.5 358.728874 151.398864 
Q 353.362832 145.297728 353.362832 134.864036 
Q 353.362832 124.392915 358.728874 118.301136 
Q 364.094917 112.2 373.282591 112.2 
Q 376.363534 112.2 379.192329 113.023466 
Q 382.021124 113.837575 384.637168 115.447077 
L 384.637168 124.477133 
Q 381.997485 122.343607 379.436598 121.351704 
Q 376.875712 120.359802 374.046917 120.359802 
Q 368.972421 120.359802 366.06483 124.224478 
Q 363.165118 128.079798 363.165118 134.864036 
Q 363.165118 141.620202 366.06483 145.484879 
Q 368.972421 149.340198 374.046917 149.340198 
Q 376.875712 149.340198 379.436598 148.348296 
Q 381.997485 147.347036 384.637168 145.21351 
z
" style="fill:#0000ff;"/>
   </g>
   <g id="patch_27">
    <path clip-path="url(#pfb68471e98)" d="M 375.026592 95.695499 
L 362.998985 95.695499 
L 361.099889 112.2 
L 353.362832 112.2 
L 364.412117 21.6 
L 373.587883 21.6 
L 384.637168 112.2 
L 376.906505 112.2 
z
M 364.917264 78.880326 
L 373.089131 78.880326 
L 369.009591 42.842263 
z
" style="fill:#008000;"/>
   </g>
   <g id="patch_28">
    <path clip-path="url(#pfb68471e98)" d="M 417.557522 156.133795 
Q 414.403454 156.816897 411.011079 157.160008 
Q 407.618703 157.5 404.002039 157.5 
Q 395.829498 157.5 391.056342 155.466288 
Q 386.283186 153.432576 386.283186 149.954679 
Q 386.283186 146.436232 391.140451 144.418116 
Q 396.004724 142.4 404.464635 142.4 
Q 407.723839 142.4 410.70969 142.674489 
Q 413.70255 142.945858 416.351967 143.482359 
L 416.351967 146.492378 
Q 413.618442 145.803037 410.912952 145.463045 
Q 408.207463 145.119934 405.487955 145.119934 
Q 400.455465 145.119934 397.728948 146.373848 
Q 395.002432 147.624644 395.002432 149.954679 
Q 395.002432 152.26288 397.630822 153.523032 
Q 400.259212 154.780066 405.095449 154.780066 
Q 406.413149 154.780066 407.541604 154.708325 
Q 408.670059 154.633464 409.567217 154.477505 
L 409.567217 151.651518 
L 404.415572 151.651518 
L 404.415572 149.134332 
L 417.557522 149.134332 
z
" style="fill:#ffa600;"/>
   </g>
   <g id="patch_29">
    <path clip-path="url(#pfb68471e98)" d="M 386.283186 97.1 
L 417.557522 97.1 
L 417.557522 105.934762 
L 406.306034 105.934762 
L 406.306034 142.4 
L 397.556493 142.4 
L 397.556493 105.934762 
L 386.283186 105.934762 
z
" style="fill:#ff0000;"/>
   </g>
   <g id="patch_30">
    <path clip-path="url(#pfb68471e98)" d="M 417.557522 91.688205 
Q 414.941478 94.370709 412.112683 95.727556 
Q 409.283888 97.1 406.202945 97.1 
Q 397.015271 97.1 391.649228 86.93144 
Q 386.283186 76.76288 386.283186 59.373394 
Q 386.283186 41.921524 391.649228 31.76856 
Q 397.015271 21.6 406.202945 21.6 
Q 409.283888 21.6 412.112683 22.972444 
Q 414.941478 24.329291 417.557522 27.011795 
L 417.557522 42.061888 
Q 414.917839 38.506011 412.356952 36.85284 
Q 409.796066 35.199669 406.967271 35.199669 
Q 401.892775 35.199669 398.985184 41.640797 
Q 396.085472 48.066329 396.085472 59.373394 
Q 396.085472 70.633671 398.985184 77.074799 
Q 401.892775 83.500331 406.967271 83.500331 
Q 409.796066 83.500331 412.356952 81.84716 
Q 414.917839 80.178393 417.557522 76.622516 
z
" style="fill:#0000ff;"/>
   </g>
   <g id="patch_31">
    <path clip-path="url(#pfb68471e98)" d="M 450.477876 156.133795 
Q 447.323808 156.816897 443.931433 157.160008 
Q 440.539057 157.5 436.922393 157.5 
Q 428.749852 157.5 423.976696 155.466288 
Q 419.20354 153.432576 419.20354 149.954679 
Q 419.20354 146.436232 424.060805 144.418116 
Q 428.925078 142.4 437.384989 142.4 
Q 440.644193 142.4 443.630044 142.674489 
Q 446.622904 142.945858 449.272321 143.482359 
L 449.272321 146.492378 
Q 446.538796 145.803037 443.833306 145.463045 
Q 441.127817 145.119934 438.408309 145.119934 
Q 433.375819 145.119934 430.649302 146.373848 
Q 427.922786 147.624644 427.922786 149.954679 
Q 427.922786 152.26288 430.551176 153.523032 
Q 433.179565 154.780066 438.015803 154.780066 
Q 439.333503 154.780066 440.461958 154.708325 
Q 441.590413 154.633464 442.487571 154.477505 
L 442.487571 151.651518 
L 437.335926 151.651518 
L 437.335926 149.134332 
L 450.477876 149.134332 
z
" style="fill:#ffa600;"/>
   </g>
   <g id="patch_32">
    <path clip-path="url(#pfb68471e98)" d="M 450.477876 133.741128 
Q 447.861832 138.033134 445.033037 140.20409 
Q 442.204242 142.4 439.123298 142.4 
Q 429.935625 142.4 424.569582 126.130304 
Q 419.20354 109.860607 419.20354 82.03743 
Q 419.20354 54.114439 424.569582 37.869696 
Q 429.935625 21.6 439.123298 21.6 
Q 442.204242 21.6 445.033037 23.79591 
Q 447.861832 25.966866 450.477876 30.258872 
L 450.477876 54.339021 
Q 447.838193 48.649618 445.277306 46.004545 
Q 442.71642 43.359471 439.887625 43.359471 
Q 434.813129 43.359471 431.905538 53.665276 
Q 429.005826 63.946127 429.005826 82.03743 
Q 429.005826 100.053873 431.905538 110.359678 
Q 434.813129 120.640529 439.887625 120.640529 
Q 442.71642 120.640529 445.277306 117.995455 
Q 447.838193 115.325429 450.477876 109.636026 
z
" style="fill:#0000ff;"/>
   </g>
   <g id="patch_33">
    <path clip-path="url(#pfb68471e98)" d="M 473.787654 154.74925 
L 461.760047 154.74925 
L 459.860951 157.5 
L 452.123894 157.5 
L 463.173179 142.4 
L 472.348945 142.4 
L 483.39823 157.5 
L 475.667567 157.5 
z
M 463.678326 151.946721 
L 471.850193 151.946721 
L 467.770653 145.940377 
z
" style="fill:#008000;"/>
   </g>
   <g id="patch_34">
    <path clip-path="url(#pfb68471e98)" d="M 483.39823 133.741128 
Q 480.782186 138.033134 477.953391 140.20409 
Q 475.124596 142.4 472.043652 142.4 
Q 462.855979 142.4 457.489936 126.130304 
Q 452.123894 109.860607 452.123894 82.03743 
Q 452.123894 54.114439 457.489936 37.869696 
Q 462.855979 21.6 472.043652 21.6 
Q 475.124596 21.6 477.953391 23.79591 
Q 480.782186 25.966866 483.39823 30.258872 
L 483.39823 54.339021 
Q 480.758547 48.649618 478.19766 46.004545 
Q 475.636773 43.359471 472.807979 43.359471 
Q 467.733483 43.359471 464.825892 53.665276 
Q 461.92618 63.946127 461.92618 82.03743 
Q 461.92618 100.053873 464.825892 110.359678 
Q 467.733483 120.640529 472.807979 120.640529 
Q 475.636773 120.640529 478.19766 117.995455 
Q 480.758547 115.325429 483.39823 109.636026 
z
" style="fill:#0000ff;"/>
   </g>
   <g id="patch_35">
    <path clip-path="url(#pfb68471e98)" d="M 516.318584 147.758769 
Q 513.70254 152.587275 510.873745 155.029601 
Q 508.04495 157.5 504.964006 157.5 
Q 495.776333 157.5 490.41029 139.196592 
Q 485.044248 120.893183 485.044248 89.592109 
Q 485.044248 58.178744 490.41029 39.903408 
Q 495.776333 21.6 504.964006 21.6 
Q 508.04495 21.6 510.873745 24.070399 
Q 513.70254 26.512725 516.318584 31.341231 
L 516.318584 58.431398 
Q 513.678901 52.03082 511.118014 49.055113 
Q 508.557127 46.079405 505.728333 46.079405 
Q 500.653837 46.079405 497.746246 57.673435 
Q 494.846534 69.239393 494.846534 89.592109 
Q 494.846534 109.860607 497.746246 121.454637 
Q 500.653837 133.020595 505.728333 133.020595 
Q 508.557127 133.020595 511.118014 130.044887 
Q 513.678901 127.041107 516.318584 120.640529 
z
" style="fill:#0000ff;"/>
   </g>
   <g id="patch_36">
    <path clip-path="url(#pfb68471e98)" d="M 549.238938 147.758769 
Q 546.622894 152.587275 543.794099 155.029601 
Q 540.965304 157.5 537.88436 157.5 
Q 528.696687 157.5 523.330644 139.196592 
Q 517.964602 120.893183 517.964602 89.592109 
Q 517.964602 58.178744 523.330644 39.903408 
Q 528.696687 21.6 537.88436 21.6 
Q 540.965304 21.6 543.794099 24.070399 
Q 546.622894 26.512725 549.238938 31.341231 
L 549.238938 58.431398 
Q 546.599255 52.03082 544.038368 49.055113 
Q 541.477481 46.079405 538.648687 46.079405 
Q 533.574191 46.079405 530.6666 57.673435 
Q 527.766888 69.239393 527.766888 89.592109 
Q 527.766888 109.860607 530.6666 121.454637 
Q 533.574191 133.020595 538.648687 133.020595 
Q 541.477481 133.020595 544.038368 130.044887 
Q 546.599255 127.041107 549.238938 120.640529 
z
" style="fill:#0000ff;"/>
   </g>
   <g id="patch_37">
    <path clip-path="url(#pfb68471e98)" d="M 582.159292 147.758769 
Q 579.543248 152.587275 576.714453 155.029601 
Q 573.885658 157.5 570.804714 157.5 
Q 561.617041 157.5 556.250998 139.196592 
Q 550.884956 120.893183 550.884956 89.592109 
Q 550.884956 58.178744 556.250998 39.903408 
Q 561.617041 21.6 570.804714 21.6 
Q 573.885658 21.6 576.714453 24.070399 
Q 579.543248 26.512725 582.159292 31.341231 
L 582.159292 58.431398 
Q 579.519609 52.03082 576.958722 49.055113 
Q 574.397835 46.079405 571.569041 46.079405 
Q 566.494545 46.079405 563.586954 57.673435 
Q 560.687242 69.239393 560.687242 89.592109 
Q 560.687242 109.860607 563.586954 121.454637 
Q 566.494545 133.020595 571.569041 133.020595 
Q 574.397835 133.020595 576.958722 130.044887 
Q 579.519609 127.041107 582.159292 120.640529 
z
" style="fill:#0000ff;"/>
   </g>
   <g id="patch_38">
    <path clip-path="url(#pfb68471e98)" d="M 615.079646 156.133795 
Q 611.925578 156.816897 608.533203 157.160008 
Q 605.140827 157.5 601.524163 157.5 
Q 593.351622 157.5 588.578466 155.466288 
Q 583.80531 153.432576 583.80531 149.954679 
Q 583.80531 146.436232 588.662574 144.418116 
Q 593.526848 142.4 601.986759 142.4 
Q 605.245963 142.4 608.231814 142.674489 
Q 611.224674 142.945858 613.874091 143.482359 
L 613.874091 146.492378 
Q 611.140566 145.803037 608.435076 145.463045 
Q 605.729587 145.119934 603.010079 145.119934 
Q 597.977589 145.119934 595.251072 146.373848 
Q 592.524555 147.624644 592.524555 149.954679 
Q 592.524555 152.26288 595.152945 153.523032 
Q 597.781335 154.780066 602.617573 154.780066 
Q 603.935272 154.780066 605.063728 154.708325 
Q 606.192183 154.633464 607.08934 154.477505 
L 607.08934 151.651518 
L 601.937696 151.651518 
L 601.937696 149.134332 
L 615.079646 149.134332 
z
" style="fill:#ffa600;"/>
   </g>
   <g id="patch_39">
    <path clip-path="url(#pfb68471e98)" d="M 615.079646 133.741128 
Q 612.463602 138.033134 609.634807 140.20409 
Q 606.806012 142.4 603.725068 142.4 
Q 594.537395 142.4 589.171352 126.130304 
Q 583.80531 109.860607 583.80531 82.03743 
Q 583.80531 54.114439 589.171352 37.869696 
Q 594.537395 21.6 603.725068 21.6 
Q 606.806012 21.6 609.634807 23.79591 
Q 612.463602 25.966866 615.079646 30.258872 
L 615.079646 54.339021 
Q 612.439963 48.649618 609.879076 46.004545 
Q 607.318189 43.359471 604.489395 43.359471 
Q 599.414899 43.359471 596.507308 53.665276 
Q 593.607596 63.946127 593.607596 82.03743 
Q 593.607596 100.053873 596.507308 110.359678 
Q 599.414899 120.640529 604.489395 120.640529 
Q 607.318189 120.640529 609.879076 117.995455 
Q 612.439963 115.325429 615.079646 109.636026 
z
" style="fill:#0000ff;"/>
   </g>
   <g id="patch_40">
    <path clip-path="url(#pfb68471e98)" d="M 638.389424 151.9985 
L 626.361817 151.9985 
L 624.462721 157.5 
L 616.725664 157.5 
L 627.774949 127.3 
L 636.950715 127.3 
L 648 157.5 
L 640.269337 157.5 
z
M 628.280095 146.393442 
L 636.451963 146.393442 
L 632.372423 134.380754 
z
" style="fill:#008000;"/>
   </g>
   <g id="patch_41">
    <path clip-path="url(#pfb68471e98)" d="M 648 124.052923 
Q 645.383956 125.662425 642.555161 126.476534 
Q 639.726366 127.3 636.645422 127.3 
Q 627.457749 127.3 622.091706 121.198864 
Q 616.725664 115.097728 616.725664 104.664036 
Q 616.725664 94.192915 622.091706 88.101136 
Q 627.457749 82 636.645422 82 
Q 639.726366 82 642.555161 82.823466 
Q 645.383956 83.637575 648 85.247077 
L 648 94.277133 
Q 645.360317 92.143607 642.79943 91.151704 
Q 640.238543 90.159802 637.409749 90.159802 
Q 632.335253 90.159802 629.427662 94.024478 
Q 626.52795 97.879798 626.52795 104.664036 
Q 626.52795 111.420202 629.427662 115.284879 
Q 632.335253 119.140198 637.409749 119.140198 
Q 640.238543 119.140198 642.79943 118.148296 
Q 645.360317 117.147036 648 115.01351 
z
" style="fill:#0000ff;"/>
   </g>
   <g id="patch_42">
    <path clip-path="url(#pfb68471e98)" d="M 648 76.535179 
Q 644.845932 79.267589 641.453557 80.640033 
Q 638.061181 82 634.444517 82 
Q 626.271976 82 621.49882 73.865152 
Q 616.725664 65.730304 616.725664 51.818715 
Q 616.725664 37.744929 621.582928 29.672464 
Q 626.447202 21.6 634.907113 21.6 
Q 638.166317 21.6 641.152168 22.697955 
Q 644.145028 23.783433 646.794445 25.929436 
L 646.794445 37.96951 
Q 644.06092 35.212146 641.35543 33.852179 
Q 638.649941 32.479736 635.930433 32.479736 
Q 630.897943 32.479736 628.171426 37.495394 
Q 625.444909 42.498575 625.444909 51.818715 
Q 625.444909 61.051518 628.073299 66.09213 
Q 630.701689 71.120264 635.537927 71.120264 
Q 636.855626 71.120264 637.984082 70.833299 
Q 639.112537 70.533857 640.009694 69.910019 
L 640.009694 58.606073 
L 634.85805 58.606073 
L 634.85805 48.537327 
L 648 48.537327 
z
" style="fill:#ffa600;"/>
   </g>
  </g>
 </g>
 <defs>
  <clipPath id="pfb68471e98">
   <rect height="135.9" width="558" x="90" y="21.6"/>
  </clipPath>
 </defs>
</svg>
