<?xml version="1.0" encoding="utf-8" standalone="no"?>
<!DOCTYPE svg PUBLIC "-//W3C//DTD SVG 1.1//EN"
  "http://www.w3.org/Graphics/SVG/1.1/DTD/svg11.dtd">
<!-- Created with matplotlib (https://matplotlib.org/) -->
<svg height="180pt" version="1.1" viewBox="0 0 720 180" width="720pt" xmlns="http://www.w3.org/2000/svg" xmlns:xlink="http://www.w3.org/1999/xlink">
 <metadata>
  <rdf:RDF xmlns:cc="http://creativecommons.org/ns#" xmlns:dc="http://purl.org/dc/elements/1.1/" xmlns:rdf="http://www.w3.org/1999/02/22-rdf-syntax-ns#">
   <cc:Work>
    <dc:type rdf:resource="http://purl.org/dc/dcmitype/StillImage"/>
    <dc:date>2021-08-04T23:33:53.548932</dc:date>
    <dc:format>image/svg+xml</dc:format>
    <dc:creator>
     <cc:Agent>
      <dc:title>Matplotlib v3.3.2, https://matplotlib.org/</dc:title>
     </cc:Agent>
    </dc:creator>
   </cc:Work>
  </rdf:RDF>
 </metadata>
 <defs>
  <style type="text/css">*{stroke-linecap:butt;stroke-linejoin:round;}</style>
 </defs>
 <g id="figure_1">
  <g id="patch_1">
   <path d="M 0 180 
L 720 180 
L 720 0 
L 0 0 
z
" style="fill:none;"/>
  </g>
  <g id="axes_1">
   <g id="line2d_1">
    <path clip-path="url(#p261cde4327)" d="M 90 157.5 
L 648 157.5 
" style="fill:none;stroke:#000000;stroke-linecap:square;stroke-width:0.5;"/>
   </g>
   <g id="patch_2">
    <path clip-path="url(#p261cde4327)" d="M 121.274336 156.133795 
Q 118.120268 156.816897 114.727893 157.160008 
Q 111.335518 157.5 107.718853 157.5 
Q 99.546312 157.5 94.773156 155.466288 
Q 90 153.432576 90 149.954679 
Q 90 146.436232 94.857265 144.418116 
Q 99.721538 142.4 108.18145 142.4 
Q 111.440653 142.4 114.426504 142.674489 
Q 117.419364 142.945858 120.068781 143.482359 
L 120.068781 146.492378 
Q 117.335256 145.803037 114.629766 145.463045 
Q 111.924277 145.119934 109.204769 145.119934 
Q 104.172279 145.119934 101.445762 146.373848 
Q 98.719246 147.624644 98.719246 149.954679 
Q 98.719246 152.26288 101.347636 153.523032 
Q 103.976026 154.780066 108.812263 154.780066 
Q 110.129963 154.780066 111.258418 154.708325 
Q 112.386874 154.633464 113.284031 154.477505 
L 113.284031 151.651518 
L 108.132386 151.651518 
L 108.132386 149.134332 
L 121.274336 149.134332 
z
" style="fill:#ffa600;"/>
   </g>
   <g id="patch_3">
    <path clip-path="url(#p261cde4327)" d="M 121.274336 139.152923 
Q 118.658292 140.762425 115.829497 141.576534 
Q 113.000702 142.4 109.919759 142.4 
Q 100.732085 142.4 95.366043 136.298864 
Q 90 130.197728 90 119.764036 
Q 90 109.292915 95.366043 103.201136 
Q 100.732085 97.1 109.919759 97.1 
Q 113.000702 97.1 115.829497 97.923466 
Q 118.658292 98.737575 121.274336 100.347077 
L 121.274336 109.377133 
Q 118.634653 107.243607 116.073766 106.251704 
Q 113.51288 105.259802 110.684085 105.259802 
Q 105.609589 105.259802 102.701998 109.124478 
Q 99.802286 112.979798 99.802286 119.764036 
Q 99.802286 126.520202 102.701998 130.384879 
Q 105.609589 134.240198 110.684085 134.240198 
Q 113.51288 134.240198 116.073766 133.248296 
Q 118.634653 132.247036 121.274336 130.11351 
z
" style="fill:#0000ff;"/>
   </g>
   <g id="patch_4">
    <path clip-path="url(#p261cde4327)" d="M 111.66376 86.097 
L 99.636153 86.097 
L 97.737057 97.1 
L 90 97.1 
L 101.049285 36.7 
L 110.225051 36.7 
L 121.274336 97.1 
L 113.543673 97.1 
z
M 101.554432 74.886884 
L 109.726299 74.886884 
L 105.64676 50.861509 
z
" style="fill:#008000;"/>
   </g>
   <g id="patch_5">
    <path clip-path="url(#p261cde4327)" d="M 144.584114 154.74925 
L 132.556507 154.74925 
L 130.657411 157.5 
L 122.920354 157.5 
L 133.969639 142.4 
L 143.145405 142.4 
L 154.19469 157.5 
L 146.464027 157.5 
z
M 134.474786 151.946721 
L 142.646653 151.946721 
L 138.567114 145.940377 
z
" style="fill:#008000;"/>
   </g>
   <g id="patch_6">
    <path clip-path="url(#p261cde4327)" d="M 122.920354 127.3 
L 154.19469 127.3 
L 154.19469 130.244921 
L 142.943202 130.244921 
L 142.943202 142.4 
L 134.193661 142.4 
L 134.193661 130.244921 
L 122.920354 130.244921 
z
" style="fill:#ff0000;"/>
   </g>
   <g id="patch_7">
    <path clip-path="url(#p261cde4327)" d="M 154.19469 125.135282 
Q 151.578646 126.208283 148.749851 126.751023 
Q 145.921056 127.3 142.840113 127.3 
Q 133.652439 127.3 128.286397 123.232576 
Q 122.920354 119.165152 122.920354 112.209358 
Q 122.920354 105.22861 128.286397 101.167424 
Q 133.652439 97.1 142.840113 97.1 
Q 145.921056 97.1 148.749851 97.648977 
Q 151.578646 98.191717 154.19469 99.264718 
L 154.19469 105.284755 
Q 151.555007 103.862404 148.99412 103.201136 
Q 146.433234 102.539868 143.604439 102.539868 
Q 138.529943 102.539868 135.622352 105.116319 
Q 132.72264 107.686532 132.72264 112.209358 
Q 132.72264 116.713468 135.622352 119.289919 
Q 138.529943 121.860132 143.604439 121.860132 
Q 146.433234 121.860132 148.99412 121.198864 
Q 151.555007 120.531357 154.19469 119.109006 
z
" style="fill:#0000ff;"/>
   </g>
   <g id="patch_8">
    <path clip-path="url(#p261cde4327)" d="M 154.19469 91.635179 
Q 151.040622 94.367589 147.648247 95.740033 
Q 144.255872 97.1 140.639207 97.1 
Q 132.466666 97.1 127.69351 88.965152 
Q 122.920354 80.830304 122.920354 66.918715 
Q 122.920354 52.844929 127.777619 44.772464 
Q 132.641892 36.7 141.101804 36.7 
Q 144.361007 36.7 147.346858 37.797955 
Q 150.339718 38.883433 152.989135 41.029436 
L 152.989135 53.06951 
Q 150.25561 50.312146 147.55012 48.952179 
Q 144.844631 47.579736 142.125123 47.579736 
Q 137.092633 47.579736 134.366116 52.595394 
Q 131.6396 57.598575 131.6396 66.918715 
Q 131.6396 76.151518 134.26799 81.19213 
Q 136.89638 86.220264 141.732617 86.220264 
Q 143.050317 86.220264 144.178772 85.933299 
Q 145.307228 85.633857 146.204385 85.010019 
L 146.204385 73.706073 
L 141.05274 73.706073 
L 141.05274 63.637327 
L 154.19469 63.637327 
z
" style="fill:#ffa600;"/>
   </g>
   <g id="patch_9">
    <path clip-path="url(#p261cde4327)" d="M 155.840708 127.3 
L 187.115044 127.3 
L 187.115044 133.189841 
L 175.863556 133.189841 
L 175.863556 157.5 
L 167.114015 157.5 
L 167.114015 133.189841 
L 155.840708 133.189841 
z
" style="fill:#ff0000;"/>
   </g>
   <g id="patch_10">
    <path clip-path="url(#p261cde4327)" d="M 187.115044 124.052923 
Q 184.499 125.662425 181.670205 126.476534 
Q 178.84141 127.3 175.760467 127.3 
Q 166.572793 127.3 161.206751 121.198864 
Q 155.840708 115.097728 155.840708 104.664036 
Q 155.840708 94.192915 161.206751 88.101136 
Q 166.572793 82 175.760467 82 
Q 178.84141 82 181.670205 82.823466 
Q 184.499 83.637575 187.115044 85.247077 
L 187.115044 94.277133 
Q 184.475361 92.143607 181.914474 91.151704 
Q 179.353588 90.159802 176.524793 90.159802 
Q 171.450297 90.159802 168.542706 94.024478 
Q 165.642994 97.879798 165.642994 104.664036 
Q 165.642994 111.420202 168.542706 115.284879 
Q 171.450297 119.140198 176.524793 119.140198 
Q 179.353588 119.140198 181.914474 118.148296 
Q 184.475361 117.147036 187.115044 115.01351 
z
" style="fill:#0000ff;"/>
   </g>
   <g id="patch_11">
    <path clip-path="url(#p261cde4327)" d="M 187.115044 77.901384 
Q 183.960976 79.950692 180.568601 80.980025 
Q 177.176226 82 173.559561 82 
Q 165.38702 82 160.613864 75.898864 
Q 155.840708 69.797728 155.840708 59.364036 
Q 155.840708 48.808697 160.697973 42.754348 
Q 165.562246 36.7 174.022158 36.7 
Q 177.281361 36.7 180.267212 37.523466 
Q 183.260072 38.337575 185.909489 39.947077 
L 185.909489 48.977133 
Q 183.175964 46.90911 180.470474 45.889134 
Q 177.764985 44.859802 175.045477 44.859802 
Q 170.012987 44.859802 167.28647 48.621545 
Q 164.559954 52.373931 164.559954 59.364036 
Q 164.559954 66.288639 167.188344 70.069097 
Q 169.816734 73.840198 174.652971 73.840198 
Q 175.970671 73.840198 177.099126 73.624974 
Q 178.227582 73.400392 179.124739 72.932514 
L 179.124739 64.454555 
L 173.973094 64.454555 
L 173.973094 56.902995 
L 187.115044 56.902995 
z
" style="fill:#ffa600;"/>
   </g>
   <g id="patch_12">
    <path clip-path="url(#p261cde4327)" d="M 220.035398 156.133795 
Q 216.88133 156.816897 213.488955 157.160008 
Q 210.09658 157.5 206.479915 157.5 
Q 198.307374 157.5 193.534218 155.466288 
Q 188.761062 153.432576 188.761062 149.954679 
Q 188.761062 146.436232 193.618327 144.418116 
Q 198.4826 142.4 206.942512 142.4 
Q 210.201715 142.4 213.187566 142.674489 
Q 216.180426 142.945858 218.829843 143.482359 
L 218.829843 146.492378 
Q 216.096318 145.803037 213.390828 145.463045 
Q 210.685339 145.119934 207.965831 145.119934 
Q 202.933341 145.119934 200.206824 146.373848 
Q 197.480308 147.624644 197.480308 149.954679 
Q 197.480308 152.26288 200.108698 153.523032 
Q 202.737088 154.780066 207.573325 154.780066 
Q 208.891025 154.780066 210.01948 154.708325 
Q 211.147936 154.633464 212.045093 154.477505 
L 212.045093 151.651518 
L 206.893448 151.651518 
L 206.893448 149.134332 
L 220.035398 149.134332 
z
" style="fill:#ffa600;"/>
   </g>
   <g id="patch_13">
    <path clip-path="url(#p261cde4327)" d="M 220.035398 134.823487 
Q 217.419354 138.578992 214.590559 140.478579 
Q 211.761764 142.4 208.680821 142.4 
Q 199.493147 142.4 194.127105 128.164016 
Q 188.761062 113.928031 188.761062 89.582751 
Q 188.761062 65.150134 194.127105 50.935984 
Q 199.493147 36.7 208.680821 36.7 
Q 211.761764 36.7 214.590559 38.621421 
Q 217.419354 40.521008 220.035398 44.276513 
L 220.035398 65.346643 
Q 217.395715 60.368416 214.834828 58.053976 
Q 212.273942 55.739537 209.445147 55.739537 
Q 204.370651 55.739537 201.46306 64.757116 
Q 198.563348 73.752861 198.563348 89.582751 
Q 198.563348 105.347139 201.46306 114.364718 
Q 204.370651 123.360463 209.445147 123.360463 
Q 212.273942 123.360463 214.834828 121.046024 
Q 217.395715 118.70975 220.035398 113.731522 
z
" style="fill:#0000ff;"/>
   </g>
   <g id="patch_14">
    <path clip-path="url(#p261cde4327)" d="M 252.955752 156.417641 
Q 250.339708 156.954142 247.510913 157.225511 
Q 244.682118 157.5 241.601175 157.5 
Q 232.413501 157.5 227.047459 155.466288 
Q 221.681416 153.432576 221.681416 149.954679 
Q 221.681416 146.464305 227.047459 144.433712 
Q 232.413501 142.4 241.601175 142.4 
Q 244.682118 142.4 247.510913 142.674489 
Q 250.339708 142.945858 252.955752 143.482359 
L 252.955752 146.492378 
Q 250.316069 145.781202 247.755182 145.450568 
Q 245.194296 145.119934 242.365501 145.119934 
Q 237.291005 145.119934 234.383414 146.408159 
Q 231.483702 147.693266 231.483702 149.954679 
Q 231.483702 152.206734 234.383414 153.49496 
Q 237.291005 154.780066 242.365501 154.780066 
Q 245.194296 154.780066 247.755182 154.449432 
Q 250.316069 154.115679 252.955752 153.404503 
z
" style="fill:#0000ff;"/>
   </g>
   <g id="patch_15">
    <path clip-path="url(#p261cde4327)" d="M 221.681416 112.2 
L 252.955752 112.2 
L 252.955752 118.089841 
L 241.704264 118.089841 
L 241.704264 142.4 
L 232.954723 142.4 
L 232.954723 118.089841 
L 221.681416 118.089841 
z
" style="fill:#ff0000;"/>
   </g>
   <g id="patch_16">
    <path clip-path="url(#p261cde4327)" d="M 243.345176 98.446249 
L 231.317569 98.446249 
L 229.418473 112.2 
L 221.681416 112.2 
L 232.730701 36.7 
L 241.906467 36.7 
L 252.955752 112.2 
L 245.225089 112.2 
z
M 233.235848 84.433605 
L 241.407715 84.433605 
L 237.328175 54.401886 
z
" style="fill:#008000;"/>
   </g>
   <g id="patch_17">
    <path clip-path="url(#p261cde4327)" d="M 254.60177 112.2 
L 285.876106 112.2 
L 285.876106 121.034762 
L 274.624618 121.034762 
L 274.624618 157.5 
L 265.875077 157.5 
L 265.875077 121.034762 
L 254.60177 121.034762 
z
" style="fill:#ff0000;"/>
   </g>
   <g id="patch_18">
    <path clip-path="url(#p261cde4327)" d="M 285.876106 106.788205 
Q 283.260062 109.470709 280.431267 110.827556 
Q 277.602472 112.2 274.521529 112.2 
Q 265.333855 112.2 259.967812 102.03144 
Q 254.60177 91.86288 254.60177 74.473394 
Q 254.60177 57.021524 259.967812 46.86856 
Q 265.333855 36.7 274.521529 36.7 
Q 277.602472 36.7 280.431267 38.072444 
Q 283.260062 39.429291 285.876106 42.111795 
L 285.876106 57.161888 
Q 283.236423 53.606011 280.675536 51.95284 
Q 278.11465 50.299669 275.285855 50.299669 
Q 270.211359 50.299669 267.303768 56.740797 
Q 264.404056 63.166329 264.404056 74.473394 
Q 264.404056 85.733671 267.303768 92.174799 
Q 270.211359 98.600331 275.285855 98.600331 
Q 278.11465 98.600331 280.675536 96.94716 
Q 283.236423 95.278393 285.876106 91.722516 
z
" style="fill:#0000ff;"/>
   </g>
   <g id="patch_19">
    <path clip-path="url(#p261cde4327)" d="M 318.79646 154.252923 
Q 316.180416 155.862425 313.351621 156.676534 
Q 310.522826 157.5 307.441883 157.5 
Q 298.254209 157.5 292.888166 151.398864 
Q 287.522124 145.297728 287.522124 134.864036 
Q 287.522124 124.392915 292.888166 118.301136 
Q 298.254209 112.2 307.441883 112.2 
Q 310.522826 112.2 313.351621 113.023466 
Q 316.180416 113.837575 318.79646 115.447077 
L 318.79646 124.477133 
Q 316.156777 122.343607 313.59589 121.351704 
Q 311.035004 120.359802 308.206209 120.359802 
Q 303.131713 120.359802 300.224122 124.224478 
Q 297.32441 128.079798 297.32441 134.864036 
Q 297.32441 141.620202 300.224122 145.484879 
Q 303.131713 149.340198 308.206209 149.340198 
Q 311.035004 149.340198 313.59589 148.348296 
Q 316.156777 147.347036 318.79646 145.21351 
z
" style="fill:#0000ff;"/>
   </g>
   <g id="patch_20">
    <path clip-path="url(#p261cde4327)" d="M 318.79646 105.368973 
Q 315.642392 108.784487 312.250017 110.500041 
Q 308.857642 112.2 305.240977 112.2 
Q 297.068436 112.2 292.29528 102.03144 
Q 287.522124 91.86288 287.522124 74.473394 
Q 287.522124 56.881161 292.379389 46.79058 
Q 297.243662 36.7 305.703574 36.7 
Q 308.962777 36.7 311.948628 38.072444 
Q 314.941488 39.429291 317.590905 42.111795 
L 317.590905 57.161888 
Q 314.85738 53.715183 312.15189 52.015224 
Q 309.446401 50.299669 306.726893 50.299669 
Q 301.694403 50.299669 298.967886 56.569242 
Q 296.24137 62.823218 296.24137 74.473394 
Q 296.24137 86.014398 298.86976 92.315162 
Q 301.49815 98.600331 306.334387 98.600331 
Q 307.652087 98.600331 308.780542 98.241624 
Q 309.908998 97.867321 310.806155 97.087523 
L 310.806155 82.957591 
L 305.65451 82.957591 
L 305.65451 70.371659 
L 318.79646 70.371659 
z
" style="fill:#ffa600;"/>
   </g>
   <g id="patch_21">
    <path clip-path="url(#p261cde4327)" d="M 342.106238 151.9985 
L 330.078631 151.9985 
L 328.179535 157.5 
L 320.442478 157.5 
L 331.491763 127.3 
L 340.667529 127.3 
L 351.716814 157.5 
L 343.986151 157.5 
z
M 331.99691 146.393442 
L 340.168777 146.393442 
L 336.089237 134.380754 
z
" style="fill:#008000;"/>
   </g>
   <g id="patch_22">
    <path clip-path="url(#p261cde4327)" d="M 320.442478 21.6 
L 351.716814 21.6 
L 351.716814 42.214445 
L 340.465326 42.214445 
L 340.465326 127.3 
L 331.715785 127.3 
L 331.715785 42.214445 
L 320.442478 42.214445 
z
" style="fill:#ff0000;"/>
   </g>
   <g id="patch_23">
    <path clip-path="url(#p261cde4327)" d="M 384.637168 156.133795 
Q 381.4831 156.816897 378.090725 157.160008 
Q 374.698349 157.5 371.081685 157.5 
Q 362.909144 157.5 358.135988 155.466288 
Q 353.362832 153.432576 353.362832 149.954679 
Q 353.362832 146.436232 358.220097 144.418116 
Q 363.08437 142.4 371.544282 142.4 
Q 374.803485 142.4 377.789336 142.674489 
Q 380.782196 142.945858 383.431613 143.482359 
L 383.431613 146.492378 
Q 380.698088 145.803037 377.992598 145.463045 
Q 375.287109 145.119934 372.567601 145.119934 
Q 367.535111 145.119934 364.808594 146.373848 
Q 362.082078 147.624644 362.082078 149.954679 
Q 362.082078 152.26288 364.710468 153.523032 
Q 367.338858 154.780066 372.175095 154.780066 
Q 373.492795 154.780066 374.62125 154.708325 
Q 375.749705 154.633464 376.646863 154.477505 
L 376.646863 151.651518 
L 371.495218 151.651518 
L 371.495218 149.134332 
L 384.637168 149.134332 
z
" style="fill:#ffa600;"/>
   </g>
   <g id="patch_24">
    <path clip-path="url(#p261cde4327)" d="M 353.362832 127.3 
L 384.637168 127.3 
L 384.637168 130.244921 
L 373.38568 130.244921 
L 373.38568 142.4 
L 364.636139 142.4 
L 364.636139 130.244921 
L 353.362832 130.244921 
z
" style="fill:#ff0000;"/>
   </g>
   <g id="patch_25">
    <path clip-path="url(#p261cde4327)" d="M 375.026592 108.044749 
L 362.998985 108.044749 
L 361.099889 127.3 
L 353.362832 127.3 
L 364.412117 21.6 
L 373.587883 21.6 
L 384.637168 127.3 
L 376.906505 127.3 
z
M 364.917264 88.427047 
L 373.089131 88.427047 
L 369.009591 46.38264 
z
" style="fill:#008000;"/>
   </g>
   <g id="patch_26">
    <path clip-path="url(#p261cde4327)" d="M 407.946946 146.497 
L 395.919339 146.497 
L 394.020243 157.5 
L 386.283186 157.5 
L 397.332471 97.1 
L 406.508237 97.1 
L 417.557522 157.5 
L 409.826859 157.5 
z
M 397.837618 135.286884 
L 406.009485 135.286884 
L 401.929945 111.261509 
z
" style="fill:#008000;"/>
   </g>
   <g id="patch_27">
    <path clip-path="url(#p261cde4327)" d="M 417.557522 90.268973 
Q 414.403454 93.684487 411.011079 95.400041 
Q 407.618703 97.1 404.002039 97.1 
Q 395.829498 97.1 391.056342 86.93144 
Q 386.283186 76.76288 386.283186 59.373394 
Q 386.283186 41.781161 391.140451 31.69058 
Q 396.004724 21.6 404.464635 21.6 
Q 407.723839 21.6 410.70969 22.972444 
Q 413.70255 24.329291 416.351967 27.011795 
L 416.351967 42.061888 
Q 413.618442 38.615183 410.912952 36.915224 
Q 408.207463 35.199669 405.487955 35.199669 
Q 400.455465 35.199669 397.728948 41.469242 
Q 395.002432 47.723218 395.002432 59.373394 
Q 395.002432 70.914398 397.630822 77.215162 
Q 400.259212 83.500331 405.095449 83.500331 
Q 406.413149 83.500331 407.541604 83.141624 
Q 408.670059 82.767321 409.567217 81.987523 
L 409.567217 67.857591 
L 404.415572 67.857591 
L 404.415572 55.271659 
L 417.557522 55.271659 
z
" style="fill:#ffa600;"/>
   </g>
   <g id="patch_28">
    <path clip-path="url(#p261cde4327)" d="M 450.477876 156.417641 
Q 447.861832 156.954142 445.033037 157.225511 
Q 442.204242 157.5 439.123298 157.5 
Q 429.935625 157.5 424.569582 155.466288 
Q 419.20354 153.432576 419.20354 149.954679 
Q 419.20354 146.464305 424.569582 144.433712 
Q 429.935625 142.4 439.123298 142.4 
Q 442.204242 142.4 445.033037 142.674489 
Q 447.861832 142.945858 450.477876 143.482359 
L 450.477876 146.492378 
Q 447.838193 145.781202 445.277306 145.450568 
Q 442.71642 145.119934 439.887625 145.119934 
Q 434.813129 145.119934 431.905538 146.408159 
Q 429.005826 147.693266 429.005826 149.954679 
Q 429.005826 152.206734 431.905538 153.49496 
Q 434.813129 154.780066 439.887625 154.780066 
Q 442.71642 154.780066 445.277306 154.449432 
Q 447.838193 154.115679 450.477876 153.404503 
z
" style="fill:#0000ff;"/>
   </g>
   <g id="patch_29">
    <path clip-path="url(#p261cde4327)" d="M 450.477876 141.033795 
Q 447.323808 141.716897 443.931433 142.060008 
Q 440.539057 142.4 436.922393 142.4 
Q 428.749852 142.4 423.976696 140.366288 
Q 419.20354 138.332576 419.20354 134.854679 
Q 419.20354 131.336232 424.060805 129.318116 
Q 428.925078 127.3 437.384989 127.3 
Q 440.644193 127.3 443.630044 127.574489 
Q 446.622904 127.845858 449.272321 128.382359 
L 449.272321 131.392378 
Q 446.538796 130.703037 443.833306 130.363045 
Q 441.127817 130.019934 438.408309 130.019934 
Q 433.375819 130.019934 430.649302 131.273848 
Q 427.922786 132.524644 427.922786 134.854679 
Q 427.922786 137.16288 430.551176 138.423032 
Q 433.179565 139.680066 438.015803 139.680066 
Q 439.333503 139.680066 440.461958 139.608325 
Q 441.590413 139.533464 442.487571 139.377505 
L 442.487571 136.551518 
L 437.335926 136.551518 
L 437.335926 134.034332 
L 450.477876 134.034332 
z
" style="fill:#ffa600;"/>
   </g>
   <g id="patch_30">
    <path clip-path="url(#p261cde4327)" d="M 440.8673 108.044749 
L 428.839693 108.044749 
L 426.940597 127.3 
L 419.20354 127.3 
L 430.252825 21.6 
L 439.428591 21.6 
L 450.477876 127.3 
L 442.747213 127.3 
z
M 430.757972 88.427047 
L 438.929839 88.427047 
L 434.850299 46.38264 
z
" style="fill:#008000;"/>
   </g>
   <g id="patch_31">
    <path clip-path="url(#p261cde4327)" d="M 483.39823 156.417641 
Q 480.782186 156.954142 477.953391 157.225511 
Q 475.124596 157.5 472.043652 157.5 
Q 462.855979 157.5 457.489936 155.466288 
Q 452.123894 153.432576 452.123894 149.954679 
Q 452.123894 146.464305 457.489936 144.433712 
Q 462.855979 142.4 472.043652 142.4 
Q 475.124596 142.4 477.953391 142.674489 
Q 480.782186 142.945858 483.39823 143.482359 
L 483.39823 146.492378 
Q 480.758547 145.781202 478.19766 145.450568 
Q 475.636773 145.119934 472.807979 145.119934 
Q 467.733483 145.119934 464.825892 146.408159 
Q 461.92618 147.693266 461.92618 149.954679 
Q 461.92618 152.206734 464.825892 153.49496 
Q 467.733483 154.780066 472.807979 154.780066 
Q 475.636773 154.780066 478.19766 154.449432 
Q 480.758547 154.115679 483.39823 153.404503 
z
" style="fill:#0000ff;"/>
   </g>
   <g id="patch_32">
    <path clip-path="url(#p261cde4327)" d="M 483.39823 139.667589 
Q 480.244162 141.033795 476.851787 141.720017 
Q 473.459411 142.4 469.842747 142.4 
Q 461.670206 142.4 456.89705 138.332576 
Q 452.123894 134.265152 452.123894 127.309358 
Q 452.123894 120.272464 456.981158 116.236232 
Q 461.845432 112.2 470.305343 112.2 
Q 473.564547 112.2 476.550398 112.748977 
Q 479.543258 113.291717 482.192675 114.364718 
L 482.192675 120.384755 
Q 479.45915 119.006073 476.75366 118.32609 
Q 474.048171 117.639868 471.328663 117.639868 
Q 466.296173 117.639868 463.569656 120.147697 
Q 460.84314 122.649287 460.84314 127.309358 
Q 460.84314 131.925759 463.471529 134.446065 
Q 466.099919 136.960132 470.936157 136.960132 
Q 472.253857 136.960132 473.382312 136.816649 
Q 474.510767 136.666928 475.407925 136.355009 
L 475.407925 130.703037 
L 470.25628 130.703037 
L 470.25628 125.668663 
L 483.39823 125.668663 
z
" style="fill:#ffa600;"/>
   </g>
   <g id="patch_33">
    <path clip-path="url(#p261cde4327)" d="M 452.123894 21.6 
L 483.39823 21.6 
L 483.39823 39.269524 
L 472.146742 39.269524 
L 472.146742 112.2 
L 463.397201 112.2 
L 463.397201 39.269524 
L 452.123894 39.269524 
z
" style="fill:#ff0000;"/>
   </g>
   <g id="patch_34">
    <path clip-path="url(#p261cde4327)" d="M 516.318584 156.417641 
Q 513.70254 156.954142 510.873745 157.225511 
Q 508.04495 157.5 504.964006 157.5 
Q 495.776333 157.5 490.41029 155.466288 
Q 485.044248 153.432576 485.044248 149.954679 
Q 485.044248 146.464305 490.41029 144.433712 
Q 495.776333 142.4 504.964006 142.4 
Q 508.04495 142.4 510.873745 142.674489 
Q 513.70254 142.945858 516.318584 143.482359 
L 516.318584 146.492378 
Q 513.678901 145.781202 511.118014 145.450568 
Q 508.557127 145.119934 505.728333 145.119934 
Q 500.653837 145.119934 497.746246 146.408159 
Q 494.846534 147.693266 494.846534 149.954679 
Q 494.846534 152.206734 497.746246 153.49496 
Q 500.653837 154.780066 505.728333 154.780066 
Q 508.557127 154.780066 511.118014 154.449432 
Q 513.678901 154.115679 516.318584 153.404503 
z
" style="fill:#0000ff;"/>
   </g>
   <g id="patch_35">
    <path clip-path="url(#p261cde4327)" d="M 485.044248 112.2 
L 516.318584 112.2 
L 516.318584 118.089841 
L 505.067096 118.089841 
L 505.067096 142.4 
L 496.317555 142.4 
L 496.317555 118.089841 
L 485.044248 118.089841 
z
" style="fill:#ff0000;"/>
   </g>
   <g id="patch_36">
    <path clip-path="url(#p261cde4327)" d="M 516.318584 104.002768 
Q 513.164516 108.101384 509.772141 110.16005 
Q 506.379765 112.2 502.763101 112.2 
Q 494.59056 112.2 489.817404 99.997728 
Q 485.044248 87.795455 485.044248 66.928073 
Q 485.044248 45.817393 489.901512 33.708697 
Q 494.765786 21.6 503.225697 21.6 
Q 506.484901 21.6 509.470752 23.246932 
Q 512.463612 24.87515 515.113029 28.094154 
L 515.113029 46.154266 
Q 512.379504 42.018219 509.674014 39.978269 
Q 506.968525 37.919603 504.249017 37.919603 
Q 499.216527 37.919603 496.49001 45.44309 
Q 493.763493 52.947862 493.763493 66.928073 
Q 493.763493 80.777277 496.391883 88.338195 
Q 499.020273 95.880397 503.856511 95.880397 
Q 505.174211 95.880397 506.302666 95.449948 
Q 507.431121 95.000785 508.328279 94.065028 
L 508.328279 77.10911 
L 503.176634 77.10911 
L 503.176634 62.00599 
L 516.318584 62.00599 
z
" style="fill:#ffa600;"/>
   </g>
   <g id="patch_37">
    <path clip-path="url(#p261cde4327)" d="M 539.628362 154.74925 
L 527.600755 154.74925 
L 525.701659 157.5 
L 517.964602 157.5 
L 529.013887 142.4 
L 538.189653 142.4 
L 549.238938 157.5 
L 541.508275 157.5 
z
M 529.519034 151.946721 
L 537.690901 151.946721 
L 533.611361 145.940377 
z
" style="fill:#008000;"/>
   </g>
   <g id="patch_38">
    <path clip-path="url(#p261cde4327)" d="M 549.238938 141.317641 
Q 546.622894 141.854142 543.794099 142.125511 
Q 540.965304 142.4 537.88436 142.4 
Q 528.696687 142.4 523.330644 140.366288 
Q 517.964602 138.332576 517.964602 134.854679 
Q 517.964602 131.364305 523.330644 129.333712 
Q 528.696687 127.3 537.88436 127.3 
Q 540.965304 127.3 543.794099 127.574489 
Q 546.622894 127.845858 549.238938 128.382359 
L 549.238938 131.392378 
Q 546.599255 130.681202 544.038368 130.350568 
Q 541.477481 130.019934 538.648687 130.019934 
Q 533.574191 130.019934 530.6666 131.308159 
Q 527.766888 132.593266 527.766888 134.854679 
Q 527.766888 137.106734 530.6666 138.39496 
Q 533.574191 139.680066 538.648687 139.680066 
Q 541.477481 139.680066 544.038368 139.349432 
Q 546.599255 139.015679 549.238938 138.304503 
z
" style="fill:#0000ff;"/>
   </g>
   <g id="patch_39">
    <path clip-path="url(#p261cde4327)" d="M 517.964602 97.1 
L 549.238938 97.1 
L 549.238938 102.989841 
L 537.98745 102.989841 
L 537.98745 127.3 
L 529.237909 127.3 
L 529.237909 102.989841 
L 517.964602 102.989841 
z
" style="fill:#ff0000;"/>
   </g>
   <g id="patch_40">
    <path clip-path="url(#p261cde4327)" d="M 549.238938 90.268973 
Q 546.08487 93.684487 542.692495 95.400041 
Q 539.300119 97.1 535.683455 97.1 
Q 527.510914 97.1 522.737758 86.93144 
Q 517.964602 76.76288 517.964602 59.373394 
Q 517.964602 41.781161 522.821866 31.69058 
Q 527.68614 21.6 536.146051 21.6 
Q 539.405255 21.6 542.391106 22.972444 
Q 545.383966 24.329291 548.033383 27.011795 
L 548.033383 42.061888 
Q 545.299858 38.615183 542.594368 36.915224 
Q 539.888879 35.199669 537.169371 35.199669 
Q 532.136881 35.199669 529.410364 41.469242 
Q 526.683847 47.723218 526.683847 59.373394 
Q 526.683847 70.914398 529.312237 77.215162 
Q 531.940627 83.500331 536.776865 83.500331 
Q 538.094565 83.500331 539.22302 83.141624 
Q 540.351475 82.767321 541.248633 81.987523 
L 541.248633 67.857591 
L 536.096988 67.857591 
L 536.096988 55.271659 
L 549.238938 55.271659 
z
" style="fill:#ffa600;"/>
   </g>
   <g id="patch_41">
    <path clip-path="url(#p261cde4327)" d="M 582.159292 155.335282 
Q 579.543248 156.408283 576.714453 156.951023 
Q 573.885658 157.5 570.804714 157.5 
Q 561.617041 157.5 556.250998 153.432576 
Q 550.884956 149.365152 550.884956 142.409358 
Q 550.884956 135.42861 556.250998 131.367424 
Q 561.617041 127.3 570.804714 127.3 
Q 573.885658 127.3 576.714453 127.848977 
Q 579.543248 128.391717 582.159292 129.464718 
L 582.159292 135.484755 
Q 579.519609 134.062404 576.958722 133.401136 
Q 574.397835 132.739868 571.569041 132.739868 
Q 566.494545 132.739868 563.586954 135.316319 
Q 560.687242 137.886532 560.687242 142.409358 
Q 560.687242 146.913468 563.586954 149.489919 
Q 566.494545 152.060132 571.569041 152.060132 
Q 574.397835 152.060132 576.958722 151.398864 
Q 579.519609 150.731357 582.159292 149.309006 
z
" style="fill:#0000ff;"/>
   </g>
   <g id="patch_42">
    <path clip-path="url(#p261cde4327)" d="M 582.159292 124.567589 
Q 579.005224 125.933795 575.612849 126.620017 
Q 572.220473 127.3 568.603809 127.3 
Q 560.431268 127.3 555.658112 123.232576 
Q 550.884956 119.165152 550.884956 112.209358 
Q 550.884956 105.172464 555.74222 101.136232 
Q 560.606494 97.1 569.066405 97.1 
Q 572.325609 97.1 575.31146 97.648977 
Q 578.30432 98.191717 580.953737 99.264718 
L 580.953737 105.284755 
Q 578.220212 103.906073 575.514722 103.22609 
Q 572.809233 102.539868 570.089725 102.539868 
Q 565.057235 102.539868 562.330718 105.047697 
Q 559.604201 107.549287 559.604201 112.209358 
Q 559.604201 116.825759 562.232591 119.346065 
Q 564.860981 121.860132 569.697219 121.860132 
Q 571.014919 121.860132 572.143374 121.716649 
Q 573.271829 121.566928 574.168986 121.255009 
L 574.168986 115.603037 
L 569.017342 115.603037 
L 569.017342 110.568663 
L 582.159292 110.568663 
z
" style="fill:#ffa600;"/>
   </g>
   <g id="patch_43">
    <path clip-path="url(#p261cde4327)" d="M 572.548716 83.346249 
L 560.521109 83.346249 
L 558.622013 97.1 
L 550.884956 97.1 
L 561.934241 21.6 
L 571.110007 21.6 
L 582.159292 97.1 
L 574.428629 97.1 
z
M 562.439387 69.333605 
L 570.611255 69.333605 
L 566.531715 39.301886 
z
" style="fill:#008000;"/>
   </g>
   <g id="patch_44">
    <path clip-path="url(#p261cde4327)" d="M 605.46907 154.74925 
L 593.441463 154.74925 
L 591.542367 157.5 
L 583.80531 157.5 
L 594.854595 142.4 
L 604.030361 142.4 
L 615.079646 157.5 
L 607.348983 157.5 
z
M 595.359741 151.946721 
L 603.531609 151.946721 
L 599.452069 145.940377 
z
" style="fill:#008000;"/>
   </g>
   <g id="patch_45">
    <path clip-path="url(#p261cde4327)" d="M 615.079646 141.317641 
Q 612.463602 141.854142 609.634807 142.125511 
Q 606.806012 142.4 603.725068 142.4 
Q 594.537395 142.4 589.171352 140.366288 
Q 583.80531 138.332576 583.80531 134.854679 
Q 583.80531 131.364305 589.171352 129.333712 
Q 594.537395 127.3 603.725068 127.3 
Q 606.806012 127.3 609.634807 127.574489 
Q 612.463602 127.845858 615.079646 128.382359 
L 615.079646 131.392378 
Q 612.439963 130.681202 609.879076 130.350568 
Q 607.318189 130.019934 604.489395 130.019934 
Q 599.414899 130.019934 596.507308 131.308159 
Q 593.607596 132.593266 593.607596 134.854679 
Q 593.607596 137.106734 596.507308 138.39496 
Q 599.414899 139.680066 604.489395 139.680066 
Q 607.318189 139.680066 609.879076 139.349432 
Q 612.439963 139.015679 615.079646 138.304503 
z
" style="fill:#0000ff;"/>
   </g>
   <g id="patch_46">
    <path clip-path="url(#p261cde4327)" d="M 615.079646 117.736563 
Q 611.925578 122.518281 608.533203 124.920058 
Q 605.140827 127.3 601.524163 127.3 
Q 593.351622 127.3 588.578466 113.064016 
Q 583.80531 98.828031 583.80531 74.482751 
Q 583.80531 49.853625 588.662574 35.726813 
Q 593.526848 21.6 601.986759 21.6 
Q 605.245963 21.6 608.231814 23.521421 
Q 611.224674 25.421008 613.874091 29.176513 
L 613.874091 50.246643 
Q 611.140566 45.421256 608.435076 43.041314 
Q 605.729587 40.639537 603.010079 40.639537 
Q 597.977589 40.639537 595.251072 49.416939 
Q 592.524555 58.172506 592.524555 74.482751 
Q 592.524555 90.640157 595.152945 99.461227 
Q 597.781335 108.260463 602.617573 108.260463 
Q 603.935272 108.260463 605.063728 107.758273 
Q 606.192183 107.234249 607.08934 106.142533 
L 607.08934 86.360628 
L 601.937696 86.360628 
L 601.937696 68.740322 
L 615.079646 68.740322 
z
" style="fill:#ffa600;"/>
   </g>
   <g id="patch_47">
    <path clip-path="url(#p261cde4327)" d="M 616.725664 142.4 
L 648 142.4 
L 648 145.344921 
L 636.748512 145.344921 
L 636.748512 157.5 
L 627.998971 157.5 
L 627.998971 145.344921 
L 616.725664 145.344921 
z
" style="fill:#ff0000;"/>
   </g>
   <g id="patch_48">
    <path clip-path="url(#p261cde4327)" d="M 648 140.235282 
Q 645.383956 141.308283 642.555161 141.851023 
Q 639.726366 142.4 636.645422 142.4 
Q 627.457749 142.4 622.091706 138.332576 
Q 616.725664 134.265152 616.725664 127.309358 
Q 616.725664 120.32861 622.091706 116.267424 
Q 627.457749 112.2 636.645422 112.2 
Q 639.726366 112.2 642.555161 112.748977 
Q 645.383956 113.291717 648 114.364718 
L 648 120.384755 
Q 645.360317 118.962404 642.79943 118.301136 
Q 640.238543 117.639868 637.409749 117.639868 
Q 632.335253 117.639868 629.427662 120.216319 
Q 626.52795 122.786532 626.52795 127.309358 
Q 626.52795 131.813468 629.427662 134.389919 
Q 632.335253 136.960132 637.409749 136.960132 
Q 640.238543 136.960132 642.79943 136.298864 
Q 645.360317 135.631357 648 134.209006 
z
" style="fill:#0000ff;"/>
   </g>
   <g id="patch_49">
    <path clip-path="url(#p261cde4327)" d="M 648 109.467589 
Q 644.845932 110.833795 641.453557 111.520017 
Q 638.061181 112.2 634.444517 112.2 
Q 626.271976 112.2 621.49882 108.132576 
Q 616.725664 104.065152 616.725664 97.109358 
Q 616.725664 90.072464 621.582928 86.036232 
Q 626.447202 82 634.907113 82 
Q 638.166317 82 641.152168 82.548977 
Q 644.145028 83.091717 646.794445 84.164718 
L 646.794445 90.184755 
Q 644.06092 88.806073 641.35543 88.12609 
Q 638.649941 87.439868 635.930433 87.439868 
Q 630.897943 87.439868 628.171426 89.947697 
Q 625.444909 92.449287 625.444909 97.109358 
Q 625.444909 101.725759 628.073299 104.246065 
Q 630.701689 106.760132 635.537927 106.760132 
Q 636.855626 106.760132 637.984082 106.616649 
Q 639.112537 106.466928 640.009694 106.155009 
L 640.009694 100.503037 
L 634.85805 100.503037 
L 634.85805 95.468663 
L 648 95.468663 
z
" style="fill:#ffa600;"/>
   </g>
   <g id="patch_50">
    <path clip-path="url(#p261cde4327)" d="M 638.389424 70.997 
L 626.361817 70.997 
L 624.462721 82 
L 616.725664 82 
L 627.774949 21.6 
L 636.950715 21.6 
L 648 82 
L 640.269337 82 
z
M 628.280095 59.786884 
L 636.451963 59.786884 
L 632.372423 35.761509 
z
" style="fill:#008000;"/>
   </g>
  </g>
 </g>
 <defs>
  <clipPath id="p261cde4327">
   <rect height="135.9" width="558" x="90" y="21.6"/>
  </clipPath>
 </defs>
</svg>
