<?xml version="1.0" encoding="utf-8" standalone="no"?>
<!DOCTYPE svg PUBLIC "-//W3C//DTD SVG 1.1//EN"
  "http://www.w3.org/Graphics/SVG/1.1/DTD/svg11.dtd">
<!-- Created with matplotlib (https://matplotlib.org/) -->
<svg height="180pt" version="1.1" viewBox="0 0 720 180" width="720pt" xmlns="http://www.w3.org/2000/svg" xmlns:xlink="http://www.w3.org/1999/xlink">
 <metadata>
  <rdf:RDF xmlns:cc="http://creativecommons.org/ns#" xmlns:dc="http://purl.org/dc/elements/1.1/" xmlns:rdf="http://www.w3.org/1999/02/22-rdf-syntax-ns#">
   <cc:Work>
    <dc:type rdf:resource="http://purl.org/dc/dcmitype/StillImage"/>
    <dc:date>2021-08-04T23:33:11.823932</dc:date>
    <dc:format>image/svg+xml</dc:format>
    <dc:creator>
     <cc:Agent>
      <dc:title>Matplotlib v3.3.2, https://matplotlib.org/</dc:title>
     </cc:Agent>
    </dc:creator>
   </cc:Work>
  </rdf:RDF>
 </metadata>
 <defs>
  <style type="text/css">*{stroke-linecap:butt;stroke-linejoin:round;}</style>
 </defs>
 <g id="figure_1">
  <g id="patch_1">
   <path d="M 0 180 
L 720 180 
L 720 0 
L 0 0 
z
" style="fill:none;"/>
  </g>
  <g id="axes_1">
   <g id="line2d_1">
    <path clip-path="url(#p29247c8c3b)" d="M 90 157.5 
L 648 157.5 
" style="fill:none;stroke:#000000;stroke-linecap:square;stroke-width:0.5;"/>
   </g>
   <g id="patch_2">
    <path clip-path="url(#p29247c8c3b)" d="M 90 21.6 
L 143.276382 21.6 
L 143.276382 48.104286 
L 124.109274 48.104286 
L 124.109274 157.5 
L 109.204277 157.5 
L 109.204277 48.104286 
L 90 48.104286 
z
" style="fill:#ff0000;"/>
   </g>
   <g id="patch_3">
    <path clip-path="url(#p29247c8c3b)" d="M 182.984999 154.74925 
L 162.495758 154.74925 
L 159.260615 157.5 
L 146.080402 157.5 
L 164.903053 142.4 
L 180.534133 142.4 
L 199.356784 157.5 
L 186.187464 157.5 
z
M 165.76358 151.946721 
L 179.684499 151.946721 
L 172.734932 145.940377 
z
" style="fill:#008000;"/>
   </g>
   <g id="patch_4">
    <path clip-path="url(#p29247c8c3b)" d="M 199.356784 131.470357 
Q 193.983774 136.935179 188.204803 139.680066 
Q 182.425832 142.4 176.26478 142.4 
Q 162.342713 142.4 154.211558 126.130304 
Q 146.080402 109.860607 146.080402 82.03743 
Q 146.080402 53.889857 154.354838 37.744929 
Q 162.641214 21.6 177.052821 21.6 
Q 182.604932 21.6 187.691382 23.79591 
Q 192.789771 25.966866 197.3031 30.258872 
L 197.3031 54.339021 
Q 192.646491 48.824293 188.037642 46.104359 
Q 183.428793 43.359471 178.796065 43.359471 
Q 170.223128 43.359471 165.578459 53.390787 
Q 160.93379 63.397149 160.93379 82.03743 
Q 160.93379 100.503037 165.411299 110.584259 
Q 169.888808 120.640529 178.127423 120.640529 
Q 180.372148 120.640529 182.294491 120.066598 
Q 184.216835 119.467713 185.745158 118.220037 
L 185.745158 95.612146 
L 176.969241 95.612146 
L 176.969241 75.474654 
L 199.356784 75.474654 
z
" style="fill:#ffa600;"/>
   </g>
   <g id="patch_5">
    <path clip-path="url(#p29247c8c3b)" d="M 239.065401 132.743249 
L 218.57616 132.743249 
L 215.341017 157.5 
L 202.160804 157.5 
L 220.983455 21.6 
L 236.614535 21.6 
L 255.437186 157.5 
L 242.267866 157.5 
z
M 221.843982 107.520489 
L 235.764901 107.520489 
L 228.815334 53.463395 
z
" style="fill:#008000;"/>
   </g>
   <g id="patch_6">
    <path clip-path="url(#p29247c8c3b)" d="M 258.241206 21.6 
L 311.517588 21.6 
L 311.517588 48.104286 
L 292.35048 48.104286 
L 292.35048 157.5 
L 277.445483 157.5 
L 277.445483 48.104286 
L 258.241206 48.104286 
z
" style="fill:#ff0000;"/>
   </g>
   <g id="patch_7">
    <path clip-path="url(#p29247c8c3b)" d="M 351.226205 132.743249 
L 330.736964 132.743249 
L 327.501821 157.5 
L 314.321608 157.5 
L 333.144259 21.6 
L 348.775339 21.6 
L 367.59799 157.5 
L 354.42867 157.5 
z
M 334.004786 107.520489 
L 347.925705 107.520489 
L 340.976138 53.463395 
z
" style="fill:#008000;"/>
   </g>
   <g id="patch_8">
    <path clip-path="url(#p29247c8c3b)" d="M 407.306607 132.743249 
L 386.817366 132.743249 
L 383.582223 157.5 
L 370.40201 157.5 
L 389.224661 21.6 
L 404.855741 21.6 
L 423.678392 157.5 
L 410.509072 157.5 
z
M 390.085188 107.520489 
L 404.006107 107.520489 
L 397.05654 53.463395 
z
" style="fill:#008000;"/>
   </g>
   <g id="patch_9">
    <path clip-path="url(#p29247c8c3b)" d="M 479.758794 156.417641 
Q 475.302317 156.954142 470.483415 157.225511 
Q 465.664513 157.5 460.416071 157.5 
Q 444.764708 157.5 435.62356 155.466288 
Q 426.482412 153.432576 426.482412 149.954679 
Q 426.482412 146.464305 435.62356 144.433712 
Q 444.764708 142.4 460.416071 142.4 
Q 465.664513 142.4 470.483415 142.674489 
Q 475.302317 142.945858 479.758794 143.482359 
L 479.758794 146.492378 
Q 475.262047 145.781202 470.899532 145.450568 
Q 466.537016 145.119934 461.718114 145.119934 
Q 453.073622 145.119934 448.120489 146.408159 
Q 443.180779 147.693266 443.180779 149.954679 
Q 443.180779 152.206734 448.120489 153.49496 
Q 453.073622 154.780066 461.718114 154.780066 
Q 466.537016 154.780066 470.899532 154.449432 
Q 475.262047 154.115679 479.758794 153.404503 
z
" style="fill:#0000ff;"/>
   </g>
   <g id="patch_10">
    <path clip-path="url(#p29247c8c3b)" d="M 479.758794 139.667589 
Q 474.385784 141.033795 468.606813 141.720017 
Q 462.827842 142.4 456.66679 142.4 
Q 442.744723 142.4 434.613568 138.332576 
Q 426.482412 134.265152 426.482412 127.309358 
Q 426.482412 120.272464 434.756848 116.236232 
Q 443.043224 112.2 457.454831 112.2 
Q 463.006942 112.2 468.093392 112.748977 
Q 473.191781 113.291717 477.70511 114.364718 
L 477.70511 120.384755 
Q 473.048501 119.006073 468.439652 118.32609 
Q 463.830804 117.639868 459.198075 117.639868 
Q 450.625138 117.639868 445.980469 120.147697 
Q 441.3358 122.649287 441.3358 127.309358 
Q 441.3358 131.925759 445.813309 134.446065 
Q 450.290818 136.960132 458.529433 136.960132 
Q 460.774158 136.960132 462.696501 136.816649 
Q 464.618845 136.666928 466.147168 136.355009 
L 466.147168 130.703037 
L 457.371251 130.703037 
L 457.371251 125.668663 
L 479.758794 125.668663 
z
" style="fill:#ffa600;"/>
   </g>
   <g id="patch_11">
    <path clip-path="url(#p29247c8c3b)" d="M 463.387009 95.695499 
L 442.897768 95.695499 
L 439.662625 112.2 
L 426.482412 112.2 
L 445.305063 21.6 
L 460.936143 21.6 
L 479.758794 112.2 
L 466.589474 112.2 
z
M 446.16559 78.880326 
L 460.086509 78.880326 
L 453.136942 42.842263 
z
" style="fill:#008000;"/>
   </g>
   <g id="patch_12">
    <path clip-path="url(#p29247c8c3b)" d="M 535.839196 156.417641 
Q 531.382719 156.954142 526.563817 157.225511 
Q 521.744915 157.5 516.496473 157.5 
Q 500.84511 157.5 491.703962 155.466288 
Q 482.562814 153.432576 482.562814 149.954679 
Q 482.562814 146.464305 491.703962 144.433712 
Q 500.84511 142.4 516.496473 142.4 
Q 521.744915 142.4 526.563817 142.674489 
Q 531.382719 142.945858 535.839196 143.482359 
L 535.839196 146.492378 
Q 531.342449 145.781202 526.979934 145.450568 
Q 522.617418 145.119934 517.798516 145.119934 
Q 509.154024 145.119934 504.200891 146.408159 
Q 499.261181 147.693266 499.261181 149.954679 
Q 499.261181 152.206734 504.200891 153.49496 
Q 509.154024 154.780066 517.798516 154.780066 
Q 522.617418 154.780066 526.979934 154.449432 
Q 531.342449 154.115679 535.839196 153.404503 
z
" style="fill:#0000ff;"/>
   </g>
   <g id="patch_13">
    <path clip-path="url(#p29247c8c3b)" d="M 482.562814 127.3 
L 535.839196 127.3 
L 535.839196 130.244921 
L 516.672088 130.244921 
L 516.672088 142.4 
L 501.767091 142.4 
L 501.767091 130.244921 
L 482.562814 130.244921 
z
" style="fill:#ff0000;"/>
   </g>
   <g id="patch_14">
    <path clip-path="url(#p29247c8c3b)" d="M 535.839196 117.736563 
Q 530.466186 122.518281 524.687215 124.920058 
Q 518.908244 127.3 512.747192 127.3 
Q 498.825125 127.3 490.69397 113.064016 
Q 482.562814 98.828031 482.562814 74.482751 
Q 482.562814 49.853625 490.83725 35.726813 
Q 499.123626 21.6 513.535233 21.6 
Q 519.087344 21.6 524.173794 23.521421 
Q 529.272183 25.421008 533.785512 29.176513 
L 533.785512 50.246643 
Q 529.128903 45.421256 524.520054 43.041314 
Q 519.911206 40.639537 515.278477 40.639537 
Q 506.70554 40.639537 502.060871 49.416939 
Q 497.416202 58.172506 497.416202 74.482751 
Q 497.416202 90.640157 501.893711 99.461227 
Q 506.37122 108.260463 514.609835 108.260463 
Q 516.85456 108.260463 518.776903 107.758273 
Q 520.699247 107.234249 522.22757 106.142533 
L 522.22757 86.360628 
L 513.451653 86.360628 
L 513.451653 68.740322 
L 535.839196 68.740322 
z
" style="fill:#ffa600;"/>
   </g>
   <g id="patch_15">
    <path clip-path="url(#p29247c8c3b)" d="M 591.919598 155.335282 
Q 587.463121 156.408283 582.644219 156.951023 
Q 577.825317 157.5 572.576875 157.5 
Q 556.925512 157.5 547.784364 153.432576 
Q 538.643216 149.365152 538.643216 142.409358 
Q 538.643216 135.42861 547.784364 131.367424 
Q 556.925512 127.3 572.576875 127.3 
Q 577.825317 127.3 582.644219 127.848977 
Q 587.463121 128.391717 591.919598 129.464718 
L 591.919598 135.484755 
Q 587.422851 134.062404 583.060336 133.401136 
Q 578.69782 132.739868 573.878918 132.739868 
Q 565.234426 132.739868 560.281293 135.316319 
Q 555.341583 137.886532 555.341583 142.409358 
Q 555.341583 146.913468 560.281293 149.489919 
Q 565.234426 152.060132 573.878918 152.060132 
Q 578.69782 152.060132 583.060336 151.398864 
Q 587.422851 150.731357 591.919598 149.309006 
z
" style="fill:#0000ff;"/>
   </g>
   <g id="patch_16">
    <path clip-path="url(#p29247c8c3b)" d="M 591.919598 124.567589 
Q 586.546588 125.933795 580.767617 126.620017 
Q 574.988646 127.3 568.827594 127.3 
Q 554.905527 127.3 546.774372 123.232576 
Q 538.643216 119.165152 538.643216 112.209358 
Q 538.643216 105.172464 546.917652 101.136232 
Q 555.204028 97.1 569.615635 97.1 
Q 575.167746 97.1 580.254196 97.648977 
Q 585.352585 98.191717 589.865914 99.264718 
L 589.865914 105.284755 
Q 585.209305 103.906073 580.600456 103.22609 
Q 575.991608 102.539868 571.358879 102.539868 
Q 562.785942 102.539868 558.141273 105.047697 
Q 553.496604 107.549287 553.496604 112.209358 
Q 553.496604 116.825759 557.974113 119.346065 
Q 562.451622 121.860132 570.690237 121.860132 
Q 572.934962 121.860132 574.857305 121.716649 
Q 576.779649 121.566928 578.307972 121.255009 
L 578.307972 115.603037 
L 569.532055 115.603037 
L 569.532055 110.568663 
L 591.919598 110.568663 
z
" style="fill:#ffa600;"/>
   </g>
   <g id="patch_17">
    <path clip-path="url(#p29247c8c3b)" d="M 538.643216 21.6 
L 591.919598 21.6 
L 591.919598 36.324604 
L 572.75249 36.324604 
L 572.75249 97.1 
L 557.847493 97.1 
L 557.847493 36.324604 
L 538.643216 36.324604 
z
" style="fill:#ff0000;"/>
   </g>
   <g id="patch_18">
    <path clip-path="url(#p29247c8c3b)" d="M 594.723618 142.4 
L 648 142.4 
L 648 145.344921 
L 628.832892 145.344921 
L 628.832892 157.5 
L 613.927895 157.5 
L 613.927895 145.344921 
L 594.723618 145.344921 
z
" style="fill:#ff0000;"/>
   </g>
   <g id="patch_19">
    <path clip-path="url(#p29247c8c3b)" d="M 631.628215 134.14775 
L 611.138974 134.14775 
L 607.903831 142.4 
L 594.723618 142.4 
L 613.546269 97.1 
L 629.177349 97.1 
L 648 142.4 
L 634.83068 142.4 
z
M 614.406796 125.740163 
L 628.327715 125.740163 
L 621.378148 107.721132 
z
" style="fill:#008000;"/>
   </g>
   <g id="patch_20">
    <path clip-path="url(#p29247c8c3b)" d="M 648 91.688205 
Q 643.543523 94.370709 638.724621 95.727556 
Q 633.905719 97.1 628.657277 97.1 
Q 613.005914 97.1 603.864766 86.93144 
Q 594.723618 76.76288 594.723618 59.373394 
Q 594.723618 41.921524 603.864766 31.76856 
Q 613.005914 21.6 628.657277 21.6 
Q 633.905719 21.6 638.724621 22.972444 
Q 643.543523 24.329291 648 27.011795 
L 648 42.061888 
Q 643.503253 38.506011 639.140738 36.85284 
Q 634.778222 35.199669 629.95932 35.199669 
Q 621.314828 35.199669 616.361695 41.640797 
Q 611.421985 48.066329 611.421985 59.373394 
Q 611.421985 70.633671 616.361695 77.074799 
Q 621.314828 83.500331 629.95932 83.500331 
Q 634.778222 83.500331 639.140738 81.84716 
Q 643.503253 80.178393 648 76.622516 
z
" style="fill:#0000ff;"/>
   </g>
  </g>
 </g>
 <defs>
  <clipPath id="p29247c8c3b">
   <rect height="135.9" width="558" x="90" y="21.6"/>
  </clipPath>
 </defs>
</svg>
