<?xml version="1.0" encoding="utf-8" standalone="no"?>
<!DOCTYPE svg PUBLIC "-//W3C//DTD SVG 1.1//EN"
  "http://www.w3.org/Graphics/SVG/1.1/DTD/svg11.dtd">
<!-- Created with matplotlib (https://matplotlib.org/) -->
<svg height="180pt" version="1.1" viewBox="0 0 720 180" width="720pt" xmlns="http://www.w3.org/2000/svg" xmlns:xlink="http://www.w3.org/1999/xlink">
 <metadata>
  <rdf:RDF xmlns:cc="http://creativecommons.org/ns#" xmlns:dc="http://purl.org/dc/elements/1.1/" xmlns:rdf="http://www.w3.org/1999/02/22-rdf-syntax-ns#">
   <cc:Work>
    <dc:type rdf:resource="http://purl.org/dc/dcmitype/StillImage"/>
    <dc:date>2021-08-04T23:33:22.627397</dc:date>
    <dc:format>image/svg+xml</dc:format>
    <dc:creator>
     <cc:Agent>
      <dc:title>Matplotlib v3.3.2, https://matplotlib.org/</dc:title>
     </cc:Agent>
    </dc:creator>
   </cc:Work>
  </rdf:RDF>
 </metadata>
 <defs>
  <style type="text/css">*{stroke-linecap:butt;stroke-linejoin:round;}</style>
 </defs>
 <g id="figure_1">
  <g id="patch_1">
   <path d="M 0 180 
L 720 180 
L 720 0 
L 0 0 
z
" style="fill:none;"/>
  </g>
  <g id="axes_1">
   <g id="line2d_1">
    <path clip-path="url(#p7dedc4f10e)" d="M 90 157.5 
L 648 157.5 
" style="fill:none;stroke:#000000;stroke-linecap:square;stroke-width:0.5;"/>
   </g>
   <g id="patch_2">
    <path clip-path="url(#p7dedc4f10e)" d="M 143.276382 155.335282 
Q 138.819905 156.408283 134.001003 156.951023 
Q 129.182101 157.5 123.933659 157.5 
Q 108.282296 157.5 99.141148 153.432576 
Q 90 149.365152 90 142.409358 
Q 90 135.42861 99.141148 131.367424 
Q 108.282296 127.3 123.933659 127.3 
Q 129.182101 127.3 134.001003 127.848977 
Q 138.819905 128.391717 143.276382 129.464718 
L 143.276382 135.484755 
Q 138.779635 134.062404 134.41712 133.401136 
Q 130.054604 132.739868 125.235702 132.739868 
Q 116.59121 132.739868 111.638077 135.316319 
Q 106.698367 137.886532 106.698367 142.409358 
Q 106.698367 146.913468 111.638077 149.489919 
Q 116.59121 152.060132 125.235702 152.060132 
Q 130.054604 152.060132 134.41712 151.398864 
Q 138.779635 150.731357 143.276382 149.309006 
z
" style="fill:#0000ff;"/>
   </g>
   <g id="patch_3">
    <path clip-path="url(#p7dedc4f10e)" d="M 199.356784 155.335282 
Q 194.900307 156.408283 190.081405 156.951023 
Q 185.262503 157.5 180.014061 157.5 
Q 164.362698 157.5 155.22155 153.432576 
Q 146.080402 149.365152 146.080402 142.409358 
Q 146.080402 135.42861 155.22155 131.367424 
Q 164.362698 127.3 180.014061 127.3 
Q 185.262503 127.3 190.081405 127.848977 
Q 194.900307 128.391717 199.356784 129.464718 
L 199.356784 135.484755 
Q 194.860037 134.062404 190.497522 133.401136 
Q 186.135006 132.739868 181.316104 132.739868 
Q 172.671612 132.739868 167.718479 135.316319 
Q 162.778769 137.886532 162.778769 142.409358 
Q 162.778769 146.913468 167.718479 149.489919 
Q 172.671612 152.060132 181.316104 152.060132 
Q 186.135006 152.060132 190.497522 151.398864 
Q 194.860037 150.731357 199.356784 149.309006 
z
" style="fill:#0000ff;"/>
   </g>
   <g id="patch_4">
    <path clip-path="url(#p7dedc4f10e)" d="M 255.437186 155.335282 
Q 250.980709 156.408283 246.161807 156.951023 
Q 241.342905 157.5 236.094463 157.5 
Q 220.4431 157.5 211.301952 153.432576 
Q 202.160804 149.365152 202.160804 142.409358 
Q 202.160804 135.42861 211.301952 131.367424 
Q 220.4431 127.3 236.094463 127.3 
Q 241.342905 127.3 246.161807 127.848977 
Q 250.980709 128.391717 255.437186 129.464718 
L 255.437186 135.484755 
Q 250.940439 134.062404 246.577924 133.401136 
Q 242.215408 132.739868 237.396506 132.739868 
Q 228.752014 132.739868 223.798881 135.316319 
Q 218.859171 137.886532 218.859171 142.409358 
Q 218.859171 146.913468 223.798881 149.489919 
Q 228.752014 152.060132 237.396506 152.060132 
Q 242.215408 152.060132 246.577924 151.398864 
Q 250.940439 150.731357 255.437186 149.309006 
z
" style="fill:#0000ff;"/>
   </g>
   <g id="patch_5">
    <path clip-path="url(#p7dedc4f10e)" d="M 258.241206 127.3 
L 311.517588 127.3 
L 311.517588 133.189841 
L 292.35048 133.189841 
L 292.35048 157.5 
L 277.445483 157.5 
L 277.445483 133.189841 
L 258.241206 133.189841 
z
" style="fill:#ff0000;"/>
   </g>
   <g id="patch_6">
    <path clip-path="url(#p7dedc4f10e)" d="M 351.226205 151.9985 
L 330.736964 151.9985 
L 327.501821 157.5 
L 314.321608 157.5 
L 333.144259 127.3 
L 348.775339 127.3 
L 367.59799 157.5 
L 354.42867 157.5 
z
M 334.004786 146.393442 
L 347.925705 146.393442 
L 340.976138 134.380754 
z
" style="fill:#008000;"/>
   </g>
   <g id="patch_7">
    <path clip-path="url(#p7dedc4f10e)" d="M 370.40201 127.3 
L 423.678392 127.3 
L 423.678392 133.189841 
L 404.511284 133.189841 
L 404.511284 157.5 
L 389.606287 157.5 
L 389.606287 133.189841 
L 370.40201 133.189841 
z
" style="fill:#ff0000;"/>
   </g>
   <g id="patch_8">
    <path clip-path="url(#p7dedc4f10e)" d="M 463.387009 151.9985 
L 442.897768 151.9985 
L 439.662625 157.5 
L 426.482412 157.5 
L 445.305063 127.3 
L 460.936143 127.3 
L 479.758794 157.5 
L 466.589474 157.5 
z
M 446.16559 146.393442 
L 460.086509 146.393442 
L 453.136942 134.380754 
z
" style="fill:#008000;"/>
   </g>
   <g id="patch_9">
    <path clip-path="url(#p7dedc4f10e)" d="M 519.467411 151.9985 
L 498.97817 151.9985 
L 495.743027 157.5 
L 482.562814 157.5 
L 501.385465 127.3 
L 517.016545 127.3 
L 535.839196 157.5 
L 522.669876 157.5 
z
M 502.245992 146.393442 
L 516.166911 146.393442 
L 509.217344 134.380754 
z
" style="fill:#008000;"/>
   </g>
   <g id="patch_10">
    <path clip-path="url(#p7dedc4f10e)" d="M 591.919598 145.204152 
Q 586.546588 151.352076 580.767617 154.440074 
Q 574.988646 157.5 568.827594 157.5 
Q 554.905527 157.5 546.774372 139.196592 
Q 538.643216 120.893183 538.643216 89.592109 
Q 538.643216 57.92609 546.917652 39.763045 
Q 555.204028 21.6 569.615635 21.6 
Q 575.167746 21.6 580.254196 24.070399 
Q 585.352585 26.512725 589.865914 31.341231 
L 589.865914 58.431398 
Q 585.209305 52.227329 580.600456 49.167403 
Q 575.991608 46.079405 571.358879 46.079405 
Q 562.785942 46.079405 558.141273 57.364635 
Q 553.496604 68.621793 553.496604 89.592109 
Q 553.496604 110.365916 557.974113 121.707292 
Q 562.451622 133.020595 570.690237 133.020595 
Q 572.934962 133.020595 574.857305 132.374923 
Q 576.779649 131.701177 578.307972 130.297542 
L 578.307972 104.863665 
L 569.532055 104.863665 
L 569.532055 82.208986 
L 591.919598 82.208986 
z
" style="fill:#ffa600;"/>
   </g>
   <g id="patch_11">
    <path clip-path="url(#p7dedc4f10e)" d="M 631.628215 151.9985 
L 611.138974 151.9985 
L 607.903831 157.5 
L 594.723618 157.5 
L 613.546269 127.3 
L 629.177349 127.3 
L 648 157.5 
L 634.83068 157.5 
z
M 614.406796 146.393442 
L 628.327715 146.393442 
L 621.378148 134.380754 
z
" style="fill:#008000;"/>
   </g>
   <g id="patch_12">
    <path clip-path="url(#p7dedc4f10e)" d="M 648 117.736563 
Q 642.62699 122.518281 636.848019 124.920058 
Q 631.069048 127.3 624.907996 127.3 
Q 610.985929 127.3 602.854774 113.064016 
Q 594.723618 98.828031 594.723618 74.482751 
Q 594.723618 49.853625 602.998054 35.726813 
Q 611.28443 21.6 625.696037 21.6 
Q 631.248148 21.6 636.334598 23.521421 
Q 641.432987 25.421008 645.946316 29.176513 
L 645.946316 50.246643 
Q 641.289707 45.421256 636.680858 43.041314 
Q 632.07201 40.639537 627.439281 40.639537 
Q 618.866344 40.639537 614.221675 49.416939 
Q 609.577007 58.172506 609.577007 74.482751 
Q 609.577007 90.640157 614.054515 99.461227 
Q 618.532024 108.260463 626.770639 108.260463 
Q 629.015364 108.260463 630.937707 107.758273 
Q 632.860051 107.234249 634.388374 106.142533 
L 634.388374 86.360628 
L 625.612457 86.360628 
L 625.612457 68.740322 
L 648 68.740322 
z
" style="fill:#ffa600;"/>
   </g>
  </g>
 </g>
 <defs>
  <clipPath id="p7dedc4f10e">
   <rect height="135.9" width="558" x="90" y="21.6"/>
  </clipPath>
 </defs>
</svg>
