<?xml version="1.0" encoding="utf-8" standalone="no"?>
<!DOCTYPE svg PUBLIC "-//W3C//DTD SVG 1.1//EN"
  "http://www.w3.org/Graphics/SVG/1.1/DTD/svg11.dtd">
<!-- Created with matplotlib (https://matplotlib.org/) -->
<svg height="180pt" version="1.1" viewBox="0 0 720 180" width="720pt" xmlns="http://www.w3.org/2000/svg" xmlns:xlink="http://www.w3.org/1999/xlink">
 <metadata>
  <rdf:RDF xmlns:cc="http://creativecommons.org/ns#" xmlns:dc="http://purl.org/dc/elements/1.1/" xmlns:rdf="http://www.w3.org/1999/02/22-rdf-syntax-ns#">
   <cc:Work>
    <dc:type rdf:resource="http://purl.org/dc/dcmitype/StillImage"/>
    <dc:date>2021-08-04T23:33:16.781832</dc:date>
    <dc:format>image/svg+xml</dc:format>
    <dc:creator>
     <cc:Agent>
      <dc:title>Matplotlib v3.3.2, https://matplotlib.org/</dc:title>
     </cc:Agent>
    </dc:creator>
   </cc:Work>
  </rdf:RDF>
 </metadata>
 <defs>
  <style type="text/css">*{stroke-linecap:butt;stroke-linejoin:round;}</style>
 </defs>
 <g id="figure_1">
  <g id="patch_1">
   <path d="M 0 180 
L 720 180 
L 720 0 
L 0 0 
z
" style="fill:none;"/>
  </g>
  <g id="axes_1">
   <g id="line2d_1">
    <path clip-path="url(#p855096f29d)" d="M 90 157.5 
L 648 157.5 
" style="fill:none;stroke:#000000;stroke-linecap:square;stroke-width:0.5;"/>
   </g>
   <g id="patch_2">
    <path clip-path="url(#p855096f29d)" d="M 121.274336 156.133795 
Q 118.120268 156.816897 114.727893 157.160008 
Q 111.335518 157.5 107.718853 157.5 
Q 99.546312 157.5 94.773156 155.466288 
Q 90 153.432576 90 149.954679 
Q 90 146.436232 94.857265 144.418116 
Q 99.721538 142.4 108.18145 142.4 
Q 111.440653 142.4 114.426504 142.674489 
Q 117.419364 142.945858 120.068781 143.482359 
L 120.068781 146.492378 
Q 117.335256 145.803037 114.629766 145.463045 
Q 111.924277 145.119934 109.204769 145.119934 
Q 104.172279 145.119934 101.445762 146.373848 
Q 98.719246 147.624644 98.719246 149.954679 
Q 98.719246 152.26288 101.347636 153.523032 
Q 103.976026 154.780066 108.812263 154.780066 
Q 110.129963 154.780066 111.258418 154.708325 
Q 112.386874 154.633464 113.284031 154.477505 
L 113.284031 151.651518 
L 108.132386 151.651518 
L 108.132386 149.134332 
L 121.274336 149.134332 
z
" style="fill:#ffa600;"/>
   </g>
   <g id="patch_3">
    <path clip-path="url(#p855096f29d)" d="M 90 127.3 
L 121.274336 127.3 
L 121.274336 130.244921 
L 110.022848 130.244921 
L 110.022848 142.4 
L 101.273307 142.4 
L 101.273307 130.244921 
L 90 130.244921 
z
" style="fill:#ff0000;"/>
   </g>
   <g id="patch_4">
    <path clip-path="url(#p855096f29d)" d="M 111.66376 119.04775 
L 99.636153 119.04775 
L 97.737057 127.3 
L 90 127.3 
L 101.049285 82 
L 110.225051 82 
L 121.274336 127.3 
L 113.543673 127.3 
z
M 101.554432 110.640163 
L 109.726299 110.640163 
L 105.64676 92.621132 
z
" style="fill:#008000;"/>
   </g>
   <g id="patch_5">
    <path clip-path="url(#p855096f29d)" d="M 121.274336 77.670564 
Q 118.658292 79.816567 115.829497 80.902045 
Q 113.000702 82 109.919759 82 
Q 100.732085 82 95.366043 73.865152 
Q 90 65.730304 90 51.818715 
Q 90 37.85722 95.366043 29.734848 
Q 100.732085 21.6 109.919759 21.6 
Q 113.000702 21.6 115.829497 22.697955 
Q 118.658292 23.783433 121.274336 25.929436 
L 121.274336 37.96951 
Q 118.634653 35.124809 116.073766 33.802272 
Q 113.51288 32.479736 110.684085 32.479736 
Q 105.609589 32.479736 102.701998 37.632638 
Q 99.802286 42.773063 99.802286 51.818715 
Q 99.802286 60.826937 102.701998 65.979839 
Q 105.609589 71.120264 110.684085 71.120264 
Q 113.51288 71.120264 116.073766 69.797728 
Q 118.634653 68.462714 121.274336 65.618013 
z
" style="fill:#0000ff;"/>
   </g>
   <g id="patch_6">
    <path clip-path="url(#p855096f29d)" d="M 154.19469 156.417641 
Q 151.578646 156.954142 148.749851 157.225511 
Q 145.921056 157.5 142.840113 157.5 
Q 133.652439 157.5 128.286397 155.466288 
Q 122.920354 153.432576 122.920354 149.954679 
Q 122.920354 146.464305 128.286397 144.433712 
Q 133.652439 142.4 142.840113 142.4 
Q 145.921056 142.4 148.749851 142.674489 
Q 151.578646 142.945858 154.19469 143.482359 
L 154.19469 146.492378 
Q 151.555007 145.781202 148.99412 145.450568 
Q 146.433234 145.119934 143.604439 145.119934 
Q 138.529943 145.119934 135.622352 146.408159 
Q 132.72264 147.693266 132.72264 149.954679 
Q 132.72264 152.206734 135.622352 153.49496 
Q 138.529943 154.780066 143.604439 154.780066 
Q 146.433234 154.780066 148.99412 154.449432 
Q 151.555007 154.115679 154.19469 153.404503 
z
" style="fill:#0000ff;"/>
   </g>
   <g id="patch_7">
    <path clip-path="url(#p855096f29d)" d="M 144.584114 134.14775 
L 132.556507 134.14775 
L 130.657411 142.4 
L 122.920354 142.4 
L 133.969639 97.1 
L 143.145405 97.1 
L 154.19469 142.4 
L 146.464027 142.4 
z
M 134.474786 125.740163 
L 142.646653 125.740163 
L 138.567114 107.721132 
z
" style="fill:#008000;"/>
   </g>
   <g id="patch_8">
    <path clip-path="url(#p855096f29d)" d="M 154.19469 90.268973 
Q 151.040622 93.684487 147.648247 95.400041 
Q 144.255872 97.1 140.639207 97.1 
Q 132.466666 97.1 127.69351 86.93144 
Q 122.920354 76.76288 122.920354 59.373394 
Q 122.920354 41.781161 127.777619 31.69058 
Q 132.641892 21.6 141.101804 21.6 
Q 144.361007 21.6 147.346858 22.972444 
Q 150.339718 24.329291 152.989135 27.011795 
L 152.989135 42.061888 
Q 150.25561 38.615183 147.55012 36.915224 
Q 144.844631 35.199669 142.125123 35.199669 
Q 137.092633 35.199669 134.366116 41.469242 
Q 131.6396 47.723218 131.6396 59.373394 
Q 131.6396 70.914398 134.26799 77.215162 
Q 136.89638 83.500331 141.732617 83.500331 
Q 143.050317 83.500331 144.178772 83.141624 
Q 145.307228 82.767321 146.204385 81.987523 
L 146.204385 67.857591 
L 141.05274 67.857591 
L 141.05274 55.271659 
L 154.19469 55.271659 
z
" style="fill:#ffa600;"/>
   </g>
   <g id="patch_9">
    <path clip-path="url(#p855096f29d)" d="M 187.115044 155.335282 
Q 184.499 156.408283 181.670205 156.951023 
Q 178.84141 157.5 175.760467 157.5 
Q 166.572793 157.5 161.206751 153.432576 
Q 155.840708 149.365152 155.840708 142.409358 
Q 155.840708 135.42861 161.206751 131.367424 
Q 166.572793 127.3 175.760467 127.3 
Q 178.84141 127.3 181.670205 127.848977 
Q 184.499 128.391717 187.115044 129.464718 
L 187.115044 135.484755 
Q 184.475361 134.062404 181.914474 133.401136 
Q 179.353588 132.739868 176.524793 132.739868 
Q 171.450297 132.739868 168.542706 135.316319 
Q 165.642994 137.886532 165.642994 142.409358 
Q 165.642994 146.913468 168.542706 149.489919 
Q 171.450297 152.060132 176.524793 152.060132 
Q 179.353588 152.060132 181.914474 151.398864 
Q 184.475361 150.731357 187.115044 149.309006 
z
" style="fill:#0000ff;"/>
   </g>
   <g id="patch_10">
    <path clip-path="url(#p855096f29d)" d="M 187.115044 123.201384 
Q 183.960976 125.250692 180.568601 126.280025 
Q 177.176226 127.3 173.559561 127.3 
Q 165.38702 127.3 160.613864 121.198864 
Q 155.840708 115.097728 155.840708 104.664036 
Q 155.840708 94.108697 160.697973 88.054348 
Q 165.562246 82 174.022158 82 
Q 177.281361 82 180.267212 82.823466 
Q 183.260072 83.637575 185.909489 85.247077 
L 185.909489 94.277133 
Q 183.175964 92.20911 180.470474 91.189134 
Q 177.764985 90.159802 175.045477 90.159802 
Q 170.012987 90.159802 167.28647 93.921545 
Q 164.559954 97.673931 164.559954 104.664036 
Q 164.559954 111.588639 167.188344 115.369097 
Q 169.816734 119.140198 174.652971 119.140198 
Q 175.970671 119.140198 177.099126 118.924974 
Q 178.227582 118.700392 179.124739 118.232514 
L 179.124739 109.754555 
L 173.973094 109.754555 
L 173.973094 102.202995 
L 187.115044 102.202995 
z
" style="fill:#ffa600;"/>
   </g>
   <g id="patch_11">
    <path clip-path="url(#p855096f29d)" d="M 177.504468 70.997 
L 165.476861 70.997 
L 163.577765 82 
L 155.840708 82 
L 166.889993 21.6 
L 176.065759 21.6 
L 187.115044 82 
L 179.384381 82 
z
M 167.39514 59.786884 
L 175.567007 59.786884 
L 171.487467 35.761509 
z
" style="fill:#008000;"/>
   </g>
   <g id="patch_12">
    <path clip-path="url(#p855096f29d)" d="M 220.035398 156.417641 
Q 217.419354 156.954142 214.590559 157.225511 
Q 211.761764 157.5 208.680821 157.5 
Q 199.493147 157.5 194.127105 155.466288 
Q 188.761062 153.432576 188.761062 149.954679 
Q 188.761062 146.464305 194.127105 144.433712 
Q 199.493147 142.4 208.680821 142.4 
Q 211.761764 142.4 214.590559 142.674489 
Q 217.419354 142.945858 220.035398 143.482359 
L 220.035398 146.492378 
Q 217.395715 145.781202 214.834828 145.450568 
Q 212.273942 145.119934 209.445147 145.119934 
Q 204.370651 145.119934 201.46306 146.408159 
Q 198.563348 147.693266 198.563348 149.954679 
Q 198.563348 152.206734 201.46306 153.49496 
Q 204.370651 154.780066 209.445147 154.780066 
Q 212.273942 154.780066 214.834828 154.449432 
Q 217.395715 154.115679 220.035398 153.404503 
z
" style="fill:#0000ff;"/>
   </g>
   <g id="patch_13">
    <path clip-path="url(#p855096f29d)" d="M 188.761062 127.3 
L 220.035398 127.3 
L 220.035398 130.244921 
L 208.78391 130.244921 
L 208.78391 142.4 
L 200.034369 142.4 
L 200.034369 130.244921 
L 188.761062 130.244921 
z
" style="fill:#ff0000;"/>
   </g>
   <g id="patch_14">
    <path clip-path="url(#p855096f29d)" d="M 220.035398 117.736563 
Q 216.88133 122.518281 213.488955 124.920058 
Q 210.09658 127.3 206.479915 127.3 
Q 198.307374 127.3 193.534218 113.064016 
Q 188.761062 98.828031 188.761062 74.482751 
Q 188.761062 49.853625 193.618327 35.726813 
Q 198.4826 21.6 206.942512 21.6 
Q 210.201715 21.6 213.187566 23.521421 
Q 216.180426 25.421008 218.829843 29.176513 
L 218.829843 50.246643 
Q 216.096318 45.421256 213.390828 43.041314 
Q 210.685339 40.639537 207.965831 40.639537 
Q 202.933341 40.639537 200.206824 49.416939 
Q 197.480308 58.172506 197.480308 74.482751 
Q 197.480308 90.640157 200.108698 99.461227 
Q 202.737088 108.260463 207.573325 108.260463 
Q 208.891025 108.260463 210.01948 107.758273 
Q 211.147936 107.234249 212.045093 106.142533 
L 212.045093 86.360628 
L 206.893448 86.360628 
L 206.893448 68.740322 
L 220.035398 68.740322 
z
" style="fill:#ffa600;"/>
   </g>
   <g id="patch_15">
    <path clip-path="url(#p855096f29d)" d="M 243.345176 154.74925 
L 231.317569 154.74925 
L 229.418473 157.5 
L 221.681416 157.5 
L 232.730701 142.4 
L 241.906467 142.4 
L 252.955752 157.5 
L 245.225089 157.5 
z
M 233.235848 151.946721 
L 241.407715 151.946721 
L 237.328175 145.940377 
z
" style="fill:#008000;"/>
   </g>
   <g id="patch_16">
    <path clip-path="url(#p855096f29d)" d="M 252.955752 139.667589 
Q 249.801684 141.033795 246.409309 141.720017 
Q 243.016934 142.4 239.400269 142.4 
Q 231.227728 142.4 226.454572 138.332576 
Q 221.681416 134.265152 221.681416 127.309358 
Q 221.681416 120.272464 226.538681 116.236232 
Q 231.402954 112.2 239.862866 112.2 
Q 243.122069 112.2 246.10792 112.748977 
Q 249.10078 113.291717 251.750197 114.364718 
L 251.750197 120.384755 
Q 249.016672 119.006073 246.311182 118.32609 
Q 243.605693 117.639868 240.886185 117.639868 
Q 235.853695 117.639868 233.127178 120.147697 
Q 230.400662 122.649287 230.400662 127.309358 
Q 230.400662 131.925759 233.029052 134.446065 
Q 235.657442 136.960132 240.493679 136.960132 
Q 241.811379 136.960132 242.939834 136.816649 
Q 244.06829 136.666928 244.965447 136.355009 
L 244.965447 130.703037 
L 239.813802 130.703037 
L 239.813802 125.668663 
L 252.955752 125.668663 
z
" style="fill:#ffa600;"/>
   </g>
   <g id="patch_17">
    <path clip-path="url(#p855096f29d)" d="M 252.955752 105.705846 
Q 250.339708 108.92485 247.510913 110.553068 
Q 244.682118 112.2 241.601175 112.2 
Q 232.413501 112.2 227.047459 99.997728 
Q 221.681416 87.795455 221.681416 66.928073 
Q 221.681416 45.985829 227.047459 33.802272 
Q 232.413501 21.6 241.601175 21.6 
Q 244.682118 21.6 247.510913 23.246932 
Q 250.339708 24.87515 252.955752 28.094154 
L 252.955752 46.154266 
Q 250.316069 41.887213 247.755182 39.903408 
Q 245.194296 37.919603 242.365501 37.919603 
Q 237.291005 37.919603 234.383414 45.648957 
Q 231.483702 53.359595 231.483702 66.928073 
Q 231.483702 80.440405 234.383414 88.169758 
Q 237.291005 95.880397 242.365501 95.880397 
Q 245.194296 95.880397 247.755182 93.896592 
Q 250.316069 91.894071 252.955752 87.627019 
z
" style="fill:#0000ff;"/>
   </g>
   <g id="patch_18">
    <path clip-path="url(#p855096f29d)" d="M 285.876106 154.767589 
Q 282.722038 156.133795 279.329663 156.820017 
Q 275.937288 157.5 272.320623 157.5 
Q 264.148082 157.5 259.374926 153.432576 
Q 254.60177 149.365152 254.60177 142.409358 
Q 254.60177 135.372464 259.459035 131.336232 
Q 264.323308 127.3 272.78322 127.3 
Q 276.042423 127.3 279.028274 127.848977 
Q 282.021134 128.391717 284.670551 129.464718 
L 284.670551 135.484755 
Q 281.937026 134.106073 279.231536 133.42609 
Q 276.526047 132.739868 273.806539 132.739868 
Q 268.774049 132.739868 266.047532 135.247697 
Q 263.321016 137.749287 263.321016 142.409358 
Q 263.321016 147.025759 265.949406 149.546065 
Q 268.577796 152.060132 273.414033 152.060132 
Q 274.731733 152.060132 275.860188 151.916649 
Q 276.988644 151.766928 277.885801 151.455009 
L 277.885801 145.803037 
L 272.734156 145.803037 
L 272.734156 140.768663 
L 285.876106 140.768663 
z
" style="fill:#ffa600;"/>
   </g>
   <g id="patch_19">
    <path clip-path="url(#p855096f29d)" d="M 285.876106 119.723487 
Q 283.260062 123.478992 280.431267 125.378579 
Q 277.602472 127.3 274.521529 127.3 
Q 265.333855 127.3 259.967812 113.064016 
Q 254.60177 98.828031 254.60177 74.482751 
Q 254.60177 50.050134 259.967812 35.835984 
Q 265.333855 21.6 274.521529 21.6 
Q 277.602472 21.6 280.431267 23.521421 
Q 283.260062 25.421008 285.876106 29.176513 
L 285.876106 50.246643 
Q 283.236423 45.268416 280.675536 42.953976 
Q 278.11465 40.639537 275.285855 40.639537 
Q 270.211359 40.639537 267.303768 49.657116 
Q 264.404056 58.652861 264.404056 74.482751 
Q 264.404056 90.247139 267.303768 99.264718 
Q 270.211359 108.260463 275.285855 108.260463 
Q 278.11465 108.260463 280.675536 105.946024 
Q 283.236423 103.60975 285.876106 98.631522 
z
" style="fill:#0000ff;"/>
   </g>
   <g id="patch_20">
    <path clip-path="url(#p855096f29d)" d="M 287.522124 127.3 
L 318.79646 127.3 
L 318.79646 133.189841 
L 307.544972 133.189841 
L 307.544972 157.5 
L 298.795431 157.5 
L 298.795431 133.189841 
L 287.522124 133.189841 
z
" style="fill:#ff0000;"/>
   </g>
   <g id="patch_21">
    <path clip-path="url(#p855096f29d)" d="M 318.79646 123.201384 
Q 315.642392 125.250692 312.250017 126.280025 
Q 308.857642 127.3 305.240977 127.3 
Q 297.068436 127.3 292.29528 121.198864 
Q 287.522124 115.097728 287.522124 104.664036 
Q 287.522124 94.108697 292.379389 88.054348 
Q 297.243662 82 305.703574 82 
Q 308.962777 82 311.948628 82.823466 
Q 314.941488 83.637575 317.590905 85.247077 
L 317.590905 94.277133 
Q 314.85738 92.20911 312.15189 91.189134 
Q 309.446401 90.159802 306.726893 90.159802 
Q 301.694403 90.159802 298.967886 93.921545 
Q 296.24137 97.673931 296.24137 104.664036 
Q 296.24137 111.588639 298.86976 115.369097 
Q 301.49815 119.140198 306.334387 119.140198 
Q 307.652087 119.140198 308.780542 118.924974 
Q 309.908998 118.700392 310.806155 118.232514 
L 310.806155 109.754555 
L 305.65451 109.754555 
L 305.65451 102.202995 
L 318.79646 102.202995 
z
" style="fill:#ffa600;"/>
   </g>
   <g id="patch_22">
    <path clip-path="url(#p855096f29d)" d="M 309.185884 70.997 
L 297.158277 70.997 
L 295.259181 82 
L 287.522124 82 
L 298.571409 21.6 
L 307.747175 21.6 
L 318.79646 82 
L 311.065797 82 
z
M 299.076556 59.786884 
L 307.248423 59.786884 
L 303.168883 35.761509 
z
" style="fill:#008000;"/>
   </g>
   <g id="patch_23">
    <path clip-path="url(#p855096f29d)" d="M 351.716814 155.335282 
Q 349.10077 156.408283 346.271975 156.951023 
Q 343.44318 157.5 340.362237 157.5 
Q 331.174563 157.5 325.80852 153.432576 
Q 320.442478 149.365152 320.442478 142.409358 
Q 320.442478 135.42861 325.80852 131.367424 
Q 331.174563 127.3 340.362237 127.3 
Q 343.44318 127.3 346.271975 127.848977 
Q 349.10077 128.391717 351.716814 129.464718 
L 351.716814 135.484755 
Q 349.077131 134.062404 346.516244 133.401136 
Q 343.955358 132.739868 341.126563 132.739868 
Q 336.052067 132.739868 333.144476 135.316319 
Q 330.244764 137.886532 330.244764 142.409358 
Q 330.244764 146.913468 333.144476 149.489919 
Q 336.052067 152.060132 341.126563 152.060132 
Q 343.955358 152.060132 346.516244 151.398864 
Q 349.077131 150.731357 351.716814 149.309006 
z
" style="fill:#0000ff;"/>
   </g>
   <g id="patch_24">
    <path clip-path="url(#p855096f29d)" d="M 351.716814 117.736563 
Q 348.562746 122.518281 345.170371 124.920058 
Q 341.777996 127.3 338.161331 127.3 
Q 329.98879 127.3 325.215634 113.064016 
Q 320.442478 98.828031 320.442478 74.482751 
Q 320.442478 49.853625 325.299743 35.726813 
Q 330.164016 21.6 338.623928 21.6 
Q 341.883131 21.6 344.868982 23.521421 
Q 347.861842 25.421008 350.511259 29.176513 
L 350.511259 50.246643 
Q 347.777734 45.421256 345.072244 43.041314 
Q 342.366755 40.639537 339.647247 40.639537 
Q 334.614757 40.639537 331.88824 49.416939 
Q 329.161724 58.172506 329.161724 74.482751 
Q 329.161724 90.640157 331.790114 99.461227 
Q 334.418504 108.260463 339.254741 108.260463 
Q 340.572441 108.260463 341.700896 107.758273 
Q 342.829351 107.234249 343.726509 106.142533 
L 343.726509 86.360628 
L 338.574864 86.360628 
L 338.574864 68.740322 
L 351.716814 68.740322 
z
" style="fill:#ffa600;"/>
   </g>
   <g id="patch_25">
    <path clip-path="url(#p855096f29d)" d="M 384.637168 153.401384 
Q 381.4831 155.450692 378.090725 156.480025 
Q 374.698349 157.5 371.081685 157.5 
Q 362.909144 157.5 358.135988 151.398864 
Q 353.362832 145.297728 353.362832 134.864036 
Q 353.362832 124.308697 358.220097 118.254348 
Q 363.08437 112.2 371.544282 112.2 
Q 374.803485 112.2 377.789336 113.023466 
Q 380.782196 113.837575 383.431613 115.447077 
L 383.431613 124.477133 
Q 380.698088 122.40911 377.992598 121.389134 
Q 375.287109 120.359802 372.567601 120.359802 
Q 367.535111 120.359802 364.808594 124.121545 
Q 362.082078 127.873931 362.082078 134.864036 
Q 362.082078 141.788639 364.710468 145.569097 
Q 367.338858 149.340198 372.175095 149.340198 
Q 373.492795 149.340198 374.62125 149.124974 
Q 375.749705 148.900392 376.646863 148.432514 
L 376.646863 139.954555 
L 371.495218 139.954555 
L 371.495218 132.402995 
L 384.637168 132.402995 
z
" style="fill:#ffa600;"/>
   </g>
   <g id="patch_26">
    <path clip-path="url(#p855096f29d)" d="M 384.637168 105.705846 
Q 382.021124 108.92485 379.192329 110.553068 
Q 376.363534 112.2 373.282591 112.2 
Q 364.094917 112.2 358.728874 99.997728 
Q 353.362832 87.795455 353.362832 66.928073 
Q 353.362832 45.985829 358.728874 33.802272 
Q 364.094917 21.6 373.282591 21.6 
Q 376.363534 21.6 379.192329 23.246932 
Q 382.021124 24.87515 384.637168 28.094154 
L 384.637168 46.154266 
Q 381.997485 41.887213 379.436598 39.903408 
Q 376.875712 37.919603 374.046917 37.919603 
Q 368.972421 37.919603 366.06483 45.648957 
Q 363.165118 53.359595 363.165118 66.928073 
Q 363.165118 80.440405 366.06483 88.169758 
Q 368.972421 95.880397 374.046917 95.880397 
Q 376.875712 95.880397 379.436598 93.896592 
Q 381.997485 91.894071 384.637168 87.627019 
z
" style="fill:#0000ff;"/>
   </g>
   <g id="patch_27">
    <path clip-path="url(#p855096f29d)" d="M 386.283186 142.4 
L 417.557522 142.4 
L 417.557522 145.344921 
L 406.306034 145.344921 
L 406.306034 157.5 
L 397.556493 157.5 
L 397.556493 145.344921 
L 386.283186 145.344921 
z
" style="fill:#ff0000;"/>
   </g>
   <g id="patch_28">
    <path clip-path="url(#p855096f29d)" d="M 407.946946 134.14775 
L 395.919339 134.14775 
L 394.020243 142.4 
L 386.283186 142.4 
L 397.332471 97.1 
L 406.508237 97.1 
L 417.557522 142.4 
L 409.826859 142.4 
z
M 397.837618 125.740163 
L 406.009485 125.740163 
L 401.929945 107.721132 
z
" style="fill:#008000;"/>
   </g>
   <g id="patch_29">
    <path clip-path="url(#p855096f29d)" d="M 417.557522 90.268973 
Q 414.403454 93.684487 411.011079 95.400041 
Q 407.618703 97.1 404.002039 97.1 
Q 395.829498 97.1 391.056342 86.93144 
Q 386.283186 76.76288 386.283186 59.373394 
Q 386.283186 41.781161 391.140451 31.69058 
Q 396.004724 21.6 404.464635 21.6 
Q 407.723839 21.6 410.70969 22.972444 
Q 413.70255 24.329291 416.351967 27.011795 
L 416.351967 42.061888 
Q 413.618442 38.615183 410.912952 36.915224 
Q 408.207463 35.199669 405.487955 35.199669 
Q 400.455465 35.199669 397.728948 41.469242 
Q 395.002432 47.723218 395.002432 59.373394 
Q 395.002432 70.914398 397.630822 77.215162 
Q 400.259212 83.500331 405.095449 83.500331 
Q 406.413149 83.500331 407.541604 83.141624 
Q 408.670059 82.767321 409.567217 81.987523 
L 409.567217 67.857591 
L 404.415572 67.857591 
L 404.415572 55.271659 
L 417.557522 55.271659 
z
" style="fill:#ffa600;"/>
   </g>
   <g id="patch_30">
    <path clip-path="url(#p855096f29d)" d="M 440.8673 154.74925 
L 428.839693 154.74925 
L 426.940597 157.5 
L 419.20354 157.5 
L 430.252825 142.4 
L 439.428591 142.4 
L 450.477876 157.5 
L 442.747213 157.5 
z
M 430.757972 151.946721 
L 438.929839 151.946721 
L 434.850299 145.940377 
z
" style="fill:#008000;"/>
   </g>
   <g id="patch_31">
    <path clip-path="url(#p855096f29d)" d="M 450.477876 133.741128 
Q 447.861832 138.033134 445.033037 140.20409 
Q 442.204242 142.4 439.123298 142.4 
Q 429.935625 142.4 424.569582 126.130304 
Q 419.20354 109.860607 419.20354 82.03743 
Q 419.20354 54.114439 424.569582 37.869696 
Q 429.935625 21.6 439.123298 21.6 
Q 442.204242 21.6 445.033037 23.79591 
Q 447.861832 25.966866 450.477876 30.258872 
L 450.477876 54.339021 
Q 447.838193 48.649618 445.277306 46.004545 
Q 442.71642 43.359471 439.887625 43.359471 
Q 434.813129 43.359471 431.905538 53.665276 
Q 429.005826 63.946127 429.005826 82.03743 
Q 429.005826 100.053873 431.905538 110.359678 
Q 434.813129 120.640529 439.887625 120.640529 
Q 442.71642 120.640529 445.277306 117.995455 
Q 447.838193 115.325429 450.477876 109.636026 
z
" style="fill:#0000ff;"/>
   </g>
   <g id="patch_32">
    <path clip-path="url(#p855096f29d)" d="M 483.39823 147.758769 
Q 480.782186 152.587275 477.953391 155.029601 
Q 475.124596 157.5 472.043652 157.5 
Q 462.855979 157.5 457.489936 139.196592 
Q 452.123894 120.893183 452.123894 89.592109 
Q 452.123894 58.178744 457.489936 39.903408 
Q 462.855979 21.6 472.043652 21.6 
Q 475.124596 21.6 477.953391 24.070399 
Q 480.782186 26.512725 483.39823 31.341231 
L 483.39823 58.431398 
Q 480.758547 52.03082 478.19766 49.055113 
Q 475.636773 46.079405 472.807979 46.079405 
Q 467.733483 46.079405 464.825892 57.673435 
Q 461.92618 69.239393 461.92618 89.592109 
Q 461.92618 109.860607 464.825892 121.454637 
Q 467.733483 133.020595 472.807979 133.020595 
Q 475.636773 133.020595 478.19766 130.044887 
Q 480.758547 127.041107 483.39823 120.640529 
z
" style="fill:#0000ff;"/>
   </g>
   <g id="patch_33">
    <path clip-path="url(#p855096f29d)" d="M 485.044248 142.4 
L 516.318584 142.4 
L 516.318584 145.344921 
L 505.067096 145.344921 
L 505.067096 157.5 
L 496.317555 157.5 
L 496.317555 145.344921 
L 485.044248 145.344921 
z
" style="fill:#ff0000;"/>
   </g>
   <g id="patch_34">
    <path clip-path="url(#p855096f29d)" d="M 516.318584 140.235282 
Q 513.70254 141.308283 510.873745 141.851023 
Q 508.04495 142.4 504.964006 142.4 
Q 495.776333 142.4 490.41029 138.332576 
Q 485.044248 134.265152 485.044248 127.309358 
Q 485.044248 120.32861 490.41029 116.267424 
Q 495.776333 112.2 504.964006 112.2 
Q 508.04495 112.2 510.873745 112.748977 
Q 513.70254 113.291717 516.318584 114.364718 
L 516.318584 120.384755 
Q 513.678901 118.962404 511.118014 118.301136 
Q 508.557127 117.639868 505.728333 117.639868 
Q 500.653837 117.639868 497.746246 120.216319 
Q 494.846534 122.786532 494.846534 127.309358 
Q 494.846534 131.813468 497.746246 134.389919 
Q 500.653837 136.960132 505.728333 136.960132 
Q 508.557127 136.960132 511.118014 136.298864 
Q 513.678901 135.631357 516.318584 134.209006 
z
" style="fill:#0000ff;"/>
   </g>
   <g id="patch_35">
    <path clip-path="url(#p855096f29d)" d="M 506.708008 95.695499 
L 494.680401 95.695499 
L 492.781305 112.2 
L 485.044248 112.2 
L 496.093533 21.6 
L 505.269299 21.6 
L 516.318584 112.2 
L 508.587921 112.2 
z
M 496.59868 78.880326 
L 504.770547 78.880326 
L 500.691007 42.842263 
z
" style="fill:#008000;"/>
   </g>
   <g id="patch_36">
    <path clip-path="url(#p855096f29d)" d="M 539.628362 154.74925 
L 527.600755 154.74925 
L 525.701659 157.5 
L 517.964602 157.5 
L 529.013887 142.4 
L 538.189653 142.4 
L 549.238938 157.5 
L 541.508275 157.5 
z
M 529.519034 151.946721 
L 537.690901 151.946721 
L 533.611361 145.940377 
z
" style="fill:#008000;"/>
   </g>
   <g id="patch_37">
    <path clip-path="url(#p855096f29d)" d="M 517.964602 127.3 
L 549.238938 127.3 
L 549.238938 130.244921 
L 537.98745 130.244921 
L 537.98745 142.4 
L 529.237909 142.4 
L 529.237909 130.244921 
L 517.964602 130.244921 
z
" style="fill:#ff0000;"/>
   </g>
   <g id="patch_38">
    <path clip-path="url(#p855096f29d)" d="M 549.238938 125.135282 
Q 546.622894 126.208283 543.794099 126.751023 
Q 540.965304 127.3 537.88436 127.3 
Q 528.696687 127.3 523.330644 123.232576 
Q 517.964602 119.165152 517.964602 112.209358 
Q 517.964602 105.22861 523.330644 101.167424 
Q 528.696687 97.1 537.88436 97.1 
Q 540.965304 97.1 543.794099 97.648977 
Q 546.622894 98.191717 549.238938 99.264718 
L 549.238938 105.284755 
Q 546.599255 103.862404 544.038368 103.201136 
Q 541.477481 102.539868 538.648687 102.539868 
Q 533.574191 102.539868 530.6666 105.116319 
Q 527.766888 107.686532 527.766888 112.209358 
Q 527.766888 116.713468 530.6666 119.289919 
Q 533.574191 121.860132 538.648687 121.860132 
Q 541.477481 121.860132 544.038368 121.198864 
Q 546.599255 120.531357 549.238938 119.109006 
z
" style="fill:#0000ff;"/>
   </g>
   <g id="patch_39">
    <path clip-path="url(#p855096f29d)" d="M 549.238938 90.268973 
Q 546.08487 93.684487 542.692495 95.400041 
Q 539.300119 97.1 535.683455 97.1 
Q 527.510914 97.1 522.737758 86.93144 
Q 517.964602 76.76288 517.964602 59.373394 
Q 517.964602 41.781161 522.821866 31.69058 
Q 527.68614 21.6 536.146051 21.6 
Q 539.405255 21.6 542.391106 22.972444 
Q 545.383966 24.329291 548.033383 27.011795 
L 548.033383 42.061888 
Q 545.299858 38.615183 542.594368 36.915224 
Q 539.888879 35.199669 537.169371 35.199669 
Q 532.136881 35.199669 529.410364 41.469242 
Q 526.683847 47.723218 526.683847 59.373394 
Q 526.683847 70.914398 529.312237 77.215162 
Q 531.940627 83.500331 536.776865 83.500331 
Q 538.094565 83.500331 539.22302 83.141624 
Q 540.351475 82.767321 541.248633 81.987523 
L 541.248633 67.857591 
L 536.096988 67.857591 
L 536.096988 55.271659 
L 549.238938 55.271659 
z
" style="fill:#ffa600;"/>
   </g>
   <g id="patch_40">
    <path clip-path="url(#p855096f29d)" d="M 550.884956 142.4 
L 582.159292 142.4 
L 582.159292 145.344921 
L 570.907804 145.344921 
L 570.907804 157.5 
L 562.158263 157.5 
L 562.158263 145.344921 
L 550.884956 145.344921 
z
" style="fill:#ff0000;"/>
   </g>
   <g id="patch_41">
    <path clip-path="url(#p855096f29d)" d="M 572.548716 136.8985 
L 560.521109 136.8985 
L 558.622013 142.4 
L 550.884956 142.4 
L 561.934241 112.2 
L 571.110007 112.2 
L 582.159292 142.4 
L 574.428629 142.4 
z
M 562.439387 131.293442 
L 570.611255 131.293442 
L 566.531715 119.280754 
z
" style="fill:#008000;"/>
   </g>
   <g id="patch_42">
    <path clip-path="url(#p855096f29d)" d="M 582.159292 109.467589 
Q 579.005224 110.833795 575.612849 111.520017 
Q 572.220473 112.2 568.603809 112.2 
Q 560.431268 112.2 555.658112 108.132576 
Q 550.884956 104.065152 550.884956 97.109358 
Q 550.884956 90.072464 555.74222 86.036232 
Q 560.606494 82 569.066405 82 
Q 572.325609 82 575.31146 82.548977 
Q 578.30432 83.091717 580.953737 84.164718 
L 580.953737 90.184755 
Q 578.220212 88.806073 575.514722 88.12609 
Q 572.809233 87.439868 570.089725 87.439868 
Q 565.057235 87.439868 562.330718 89.947697 
Q 559.604201 92.449287 559.604201 97.109358 
Q 559.604201 101.725759 562.232591 104.246065 
Q 564.860981 106.760132 569.697219 106.760132 
Q 571.014919 106.760132 572.143374 106.616649 
Q 573.271829 106.466928 574.168986 106.155009 
L 574.168986 100.503037 
L 569.017342 100.503037 
L 569.017342 95.468663 
L 582.159292 95.468663 
z
" style="fill:#ffa600;"/>
   </g>
   <g id="patch_43">
    <path clip-path="url(#p855096f29d)" d="M 582.159292 77.670564 
Q 579.543248 79.816567 576.714453 80.902045 
Q 573.885658 82 570.804714 82 
Q 561.617041 82 556.250998 73.865152 
Q 550.884956 65.730304 550.884956 51.818715 
Q 550.884956 37.85722 556.250998 29.734848 
Q 561.617041 21.6 570.804714 21.6 
Q 573.885658 21.6 576.714453 22.697955 
Q 579.543248 23.783433 582.159292 25.929436 
L 582.159292 37.96951 
Q 579.519609 35.124809 576.958722 33.802272 
Q 574.397835 32.479736 571.569041 32.479736 
Q 566.494545 32.479736 563.586954 37.632638 
Q 560.687242 42.773063 560.687242 51.818715 
Q 560.687242 60.826937 563.586954 65.979839 
Q 566.494545 71.120264 571.569041 71.120264 
Q 574.397835 71.120264 576.958722 69.797728 
Q 579.519609 68.462714 582.159292 65.618013 
z
" style="fill:#0000ff;"/>
   </g>
   <g id="patch_44">
    <path clip-path="url(#p855096f29d)" d="M 583.80531 142.4 
L 615.079646 142.4 
L 615.079646 145.344921 
L 603.828158 145.344921 
L 603.828158 157.5 
L 595.078617 157.5 
L 595.078617 145.344921 
L 583.80531 145.344921 
z
" style="fill:#ff0000;"/>
   </g>
   <g id="patch_45">
    <path clip-path="url(#p855096f29d)" d="M 615.079646 140.235282 
Q 612.463602 141.308283 609.634807 141.851023 
Q 606.806012 142.4 603.725068 142.4 
Q 594.537395 142.4 589.171352 138.332576 
Q 583.80531 134.265152 583.80531 127.309358 
Q 583.80531 120.32861 589.171352 116.267424 
Q 594.537395 112.2 603.725068 112.2 
Q 606.806012 112.2 609.634807 112.748977 
Q 612.463602 113.291717 615.079646 114.364718 
L 615.079646 120.384755 
Q 612.439963 118.962404 609.879076 118.301136 
Q 607.318189 117.639868 604.489395 117.639868 
Q 599.414899 117.639868 596.507308 120.216319 
Q 593.607596 122.786532 593.607596 127.309358 
Q 593.607596 131.813468 596.507308 134.389919 
Q 599.414899 136.960132 604.489395 136.960132 
Q 607.318189 136.960132 609.879076 136.298864 
Q 612.439963 135.631357 615.079646 134.209006 
z
" style="fill:#0000ff;"/>
   </g>
   <g id="patch_46">
    <path clip-path="url(#p855096f29d)" d="M 605.46907 103.94775 
L 593.441463 103.94775 
L 591.542367 112.2 
L 583.80531 112.2 
L 594.854595 66.9 
L 604.030361 66.9 
L 615.079646 112.2 
L 607.348983 112.2 
z
M 595.359741 95.540163 
L 603.531609 95.540163 
L 599.452069 77.521132 
z
" style="fill:#008000;"/>
   </g>
   <g id="patch_47">
    <path clip-path="url(#p855096f29d)" d="M 615.079646 62.801384 
Q 611.925578 64.850692 608.533203 65.880025 
Q 605.140827 66.9 601.524163 66.9 
Q 593.351622 66.9 588.578466 60.798864 
Q 583.80531 54.697728 583.80531 44.264036 
Q 583.80531 33.708697 588.662574 27.654348 
Q 593.526848 21.6 601.986759 21.6 
Q 605.245963 21.6 608.231814 22.423466 
Q 611.224674 23.237575 613.874091 24.847077 
L 613.874091 33.877133 
Q 611.140566 31.80911 608.435076 30.789134 
Q 605.729587 29.759802 603.010079 29.759802 
Q 597.977589 29.759802 595.251072 33.521545 
Q 592.524555 37.273931 592.524555 44.264036 
Q 592.524555 51.188639 595.152945 54.969097 
Q 597.781335 58.740198 602.617573 58.740198 
Q 603.935272 58.740198 605.063728 58.524974 
Q 606.192183 58.300392 607.08934 57.832514 
L 607.08934 49.354555 
L 601.937696 49.354555 
L 601.937696 41.802995 
L 615.079646 41.802995 
z
" style="fill:#ffa600;"/>
   </g>
   <g id="patch_48">
    <path clip-path="url(#p855096f29d)" d="M 638.389424 151.9985 
L 626.361817 151.9985 
L 624.462721 157.5 
L 616.725664 157.5 
L 627.774949 127.3 
L 636.950715 127.3 
L 648 157.5 
L 640.269337 157.5 
z
M 628.280095 146.393442 
L 636.451963 146.393442 
L 632.372423 134.380754 
z
" style="fill:#008000;"/>
   </g>
   <g id="patch_49">
    <path clip-path="url(#p855096f29d)" d="M 648 124.567589 
Q 644.845932 125.933795 641.453557 126.620017 
Q 638.061181 127.3 634.444517 127.3 
Q 626.271976 127.3 621.49882 123.232576 
Q 616.725664 119.165152 616.725664 112.209358 
Q 616.725664 105.172464 621.582928 101.136232 
Q 626.447202 97.1 634.907113 97.1 
Q 638.166317 97.1 641.152168 97.648977 
Q 644.145028 98.191717 646.794445 99.264718 
L 646.794445 105.284755 
Q 644.06092 103.906073 641.35543 103.22609 
Q 638.649941 102.539868 635.930433 102.539868 
Q 630.897943 102.539868 628.171426 105.047697 
Q 625.444909 107.549287 625.444909 112.209358 
Q 625.444909 116.825759 628.073299 119.346065 
Q 630.701689 121.860132 635.537927 121.860132 
Q 636.855626 121.860132 637.984082 121.716649 
Q 639.112537 121.566928 640.009694 121.255009 
L 640.009694 115.603037 
L 634.85805 115.603037 
L 634.85805 110.568663 
L 648 110.568663 
z
" style="fill:#ffa600;"/>
   </g>
   <g id="patch_50">
    <path clip-path="url(#p855096f29d)" d="M 616.725664 66.9 
L 648 66.9 
L 648 72.789841 
L 636.748512 72.789841 
L 636.748512 97.1 
L 627.998971 97.1 
L 627.998971 72.789841 
L 616.725664 72.789841 
z
" style="fill:#ff0000;"/>
   </g>
   <g id="patch_51">
    <path clip-path="url(#p855096f29d)" d="M 648 63.652923 
Q 645.383956 65.262425 642.555161 66.076534 
Q 639.726366 66.9 636.645422 66.9 
Q 627.457749 66.9 622.091706 60.798864 
Q 616.725664 54.697728 616.725664 44.264036 
Q 616.725664 33.792915 622.091706 27.701136 
Q 627.457749 21.6 636.645422 21.6 
Q 639.726366 21.6 642.555161 22.423466 
Q 645.383956 23.237575 648 24.847077 
L 648 33.877133 
Q 645.360317 31.743607 642.79943 30.751704 
Q 640.238543 29.759802 637.409749 29.759802 
Q 632.335253 29.759802 629.427662 33.624478 
Q 626.52795 37.479798 626.52795 44.264036 
Q 626.52795 51.020202 629.427662 54.884879 
Q 632.335253 58.740198 637.409749 58.740198 
Q 640.238543 58.740198 642.79943 57.748296 
Q 645.360317 56.747036 648 54.61351 
z
" style="fill:#0000ff;"/>
   </g>
  </g>
 </g>
 <defs>
  <clipPath id="p855096f29d">
   <rect height="135.9" width="558" x="90" y="21.6"/>
  </clipPath>
 </defs>
</svg>
