<?xml version="1.0" encoding="utf-8" standalone="no"?>
<!DOCTYPE svg PUBLIC "-//W3C//DTD SVG 1.1//EN"
  "http://www.w3.org/Graphics/SVG/1.1/DTD/svg11.dtd">
<!-- Created with matplotlib (https://matplotlib.org/) -->
<svg height="180pt" version="1.1" viewBox="0 0 720 180" width="720pt" xmlns="http://www.w3.org/2000/svg" xmlns:xlink="http://www.w3.org/1999/xlink">
 <metadata>
  <rdf:RDF xmlns:cc="http://creativecommons.org/ns#" xmlns:dc="http://purl.org/dc/elements/1.1/" xmlns:rdf="http://www.w3.org/1999/02/22-rdf-syntax-ns#">
   <cc:Work>
    <dc:type rdf:resource="http://purl.org/dc/dcmitype/StillImage"/>
    <dc:date>2021-08-04T23:34:00.635557</dc:date>
    <dc:format>image/svg+xml</dc:format>
    <dc:creator>
     <cc:Agent>
      <dc:title>Matplotlib v3.3.2, https://matplotlib.org/</dc:title>
     </cc:Agent>
    </dc:creator>
   </cc:Work>
  </rdf:RDF>
 </metadata>
 <defs>
  <style type="text/css">*{stroke-linecap:butt;stroke-linejoin:round;}</style>
 </defs>
 <g id="figure_1">
  <g id="patch_1">
   <path d="M 0 180 
L 720 180 
L 720 0 
L 0 0 
z
" style="fill:none;"/>
  </g>
  <g id="axes_1">
   <g id="line2d_1">
    <path clip-path="url(#pf071e16276)" d="M 90 157.5 
L 648 157.5 
" style="fill:none;stroke:#000000;stroke-linecap:square;stroke-width:0.5;"/>
   </g>
   <g id="patch_2">
    <path clip-path="url(#pf071e16276)" d="M 121.274336 153.170564 
Q 118.658292 155.316567 115.829497 156.402045 
Q 113.000702 157.5 109.919759 157.5 
Q 100.732085 157.5 95.366043 149.365152 
Q 90 141.230304 90 127.318715 
Q 90 113.35722 95.366043 105.234848 
Q 100.732085 97.1 109.919759 97.1 
Q 113.000702 97.1 115.829497 98.197955 
Q 118.658292 99.283433 121.274336 101.429436 
L 121.274336 113.46951 
Q 118.634653 110.624809 116.073766 109.302272 
Q 113.51288 107.979736 110.684085 107.979736 
Q 105.609589 107.979736 102.701998 113.132638 
Q 99.802286 118.273063 99.802286 127.318715 
Q 99.802286 136.326937 102.701998 141.479839 
Q 105.609589 146.620264 110.684085 146.620264 
Q 113.51288 146.620264 116.073766 145.297728 
Q 118.634653 143.962714 121.274336 141.118013 
z
" style="fill:#0000ff;"/>
   </g>
   <g id="patch_3">
    <path clip-path="url(#pf071e16276)" d="M 111.66376 83.346249 
L 99.636153 83.346249 
L 97.737057 97.1 
L 90 97.1 
L 101.049285 21.6 
L 110.225051 21.6 
L 121.274336 97.1 
L 113.543673 97.1 
z
M 101.554432 69.333605 
L 109.726299 69.333605 
L 105.64676 39.301886 
z
" style="fill:#008000;"/>
   </g>
   <g id="patch_4">
    <path clip-path="url(#pf071e16276)" d="M 154.19469 152.035179 
Q 151.040622 154.767589 147.648247 156.140033 
Q 144.255872 157.5 140.639207 157.5 
Q 132.466666 157.5 127.69351 149.365152 
Q 122.920354 141.230304 122.920354 127.318715 
Q 122.920354 113.244929 127.777619 105.172464 
Q 132.641892 97.1 141.101804 97.1 
Q 144.361007 97.1 147.346858 98.197955 
Q 150.339718 99.283433 152.989135 101.429436 
L 152.989135 113.46951 
Q 150.25561 110.712146 147.55012 109.352179 
Q 144.844631 107.979736 142.125123 107.979736 
Q 137.092633 107.979736 134.366116 112.995394 
Q 131.6396 117.998575 131.6396 127.318715 
Q 131.6396 136.551518 134.26799 141.59213 
Q 136.89638 146.620264 141.732617 146.620264 
Q 143.050317 146.620264 144.178772 146.333299 
Q 145.307228 146.033857 146.204385 145.410019 
L 146.204385 134.106073 
L 141.05274 134.106073 
L 141.05274 124.037327 
L 154.19469 124.037327 
z
" style="fill:#ffa600;"/>
   </g>
   <g id="patch_5">
    <path clip-path="url(#pf071e16276)" d="M 144.584114 83.346249 
L 132.556507 83.346249 
L 130.657411 97.1 
L 122.920354 97.1 
L 133.969639 21.6 
L 143.145405 21.6 
L 154.19469 97.1 
L 146.464027 97.1 
z
M 134.474786 69.333605 
L 142.646653 69.333605 
L 138.567114 39.301886 
z
" style="fill:#008000;"/>
   </g>
   <g id="patch_6">
    <path clip-path="url(#pf071e16276)" d="M 155.840708 142.4 
L 187.115044 142.4 
L 187.115044 145.344921 
L 175.863556 145.344921 
L 175.863556 157.5 
L 167.114015 157.5 
L 167.114015 145.344921 
L 155.840708 145.344921 
z
" style="fill:#ff0000;"/>
   </g>
   <g id="patch_7">
    <path clip-path="url(#pf071e16276)" d="M 187.115044 139.667589 
Q 183.960976 141.033795 180.568601 141.720017 
Q 177.176226 142.4 173.559561 142.4 
Q 165.38702 142.4 160.613864 138.332576 
Q 155.840708 134.265152 155.840708 127.309358 
Q 155.840708 120.272464 160.697973 116.236232 
Q 165.562246 112.2 174.022158 112.2 
Q 177.281361 112.2 180.267212 112.748977 
Q 183.260072 113.291717 185.909489 114.364718 
L 185.909489 120.384755 
Q 183.175964 119.006073 180.470474 118.32609 
Q 177.764985 117.639868 175.045477 117.639868 
Q 170.012987 117.639868 167.28647 120.147697 
Q 164.559954 122.649287 164.559954 127.309358 
Q 164.559954 131.925759 167.188344 134.446065 
Q 169.816734 136.960132 174.652971 136.960132 
Q 175.970671 136.960132 177.099126 136.816649 
Q 178.227582 136.666928 179.124739 136.355009 
L 179.124739 130.703037 
L 173.973094 130.703037 
L 173.973094 125.668663 
L 187.115044 125.668663 
z
" style="fill:#ffa600;"/>
   </g>
   <g id="patch_8">
    <path clip-path="url(#pf071e16276)" d="M 177.504468 95.695499 
L 165.476861 95.695499 
L 163.577765 112.2 
L 155.840708 112.2 
L 166.889993 21.6 
L 176.065759 21.6 
L 187.115044 112.2 
L 179.384381 112.2 
z
M 167.39514 78.880326 
L 175.567007 78.880326 
L 171.487467 42.842263 
z
" style="fill:#008000;"/>
   </g>
   <g id="patch_9">
    <path clip-path="url(#pf071e16276)" d="M 220.035398 156.417641 
Q 217.419354 156.954142 214.590559 157.225511 
Q 211.761764 157.5 208.680821 157.5 
Q 199.493147 157.5 194.127105 155.466288 
Q 188.761062 153.432576 188.761062 149.954679 
Q 188.761062 146.464305 194.127105 144.433712 
Q 199.493147 142.4 208.680821 142.4 
Q 211.761764 142.4 214.590559 142.674489 
Q 217.419354 142.945858 220.035398 143.482359 
L 220.035398 146.492378 
Q 217.395715 145.781202 214.834828 145.450568 
Q 212.273942 145.119934 209.445147 145.119934 
Q 204.370651 145.119934 201.46306 146.408159 
Q 198.563348 147.693266 198.563348 149.954679 
Q 198.563348 152.206734 201.46306 153.49496 
Q 204.370651 154.780066 209.445147 154.780066 
Q 212.273942 154.780066 214.834828 154.449432 
Q 217.395715 154.115679 220.035398 153.404503 
z
" style="fill:#0000ff;"/>
   </g>
   <g id="patch_10">
    <path clip-path="url(#pf071e16276)" d="M 220.035398 141.033795 
Q 216.88133 141.716897 213.488955 142.060008 
Q 210.09658 142.4 206.479915 142.4 
Q 198.307374 142.4 193.534218 140.366288 
Q 188.761062 138.332576 188.761062 134.854679 
Q 188.761062 131.336232 193.618327 129.318116 
Q 198.4826 127.3 206.942512 127.3 
Q 210.201715 127.3 213.187566 127.574489 
Q 216.180426 127.845858 218.829843 128.382359 
L 218.829843 131.392378 
Q 216.096318 130.703037 213.390828 130.363045 
Q 210.685339 130.019934 207.965831 130.019934 
Q 202.933341 130.019934 200.206824 131.273848 
Q 197.480308 132.524644 197.480308 134.854679 
Q 197.480308 137.16288 200.108698 138.423032 
Q 202.737088 139.680066 207.573325 139.680066 
Q 208.891025 139.680066 210.01948 139.608325 
Q 211.147936 139.533464 212.045093 139.377505 
L 212.045093 136.551518 
L 206.893448 136.551518 
L 206.893448 134.034332 
L 220.035398 134.034332 
z
" style="fill:#ffa600;"/>
   </g>
   <g id="patch_11">
    <path clip-path="url(#pf071e16276)" d="M 210.424822 121.7985 
L 198.397215 121.7985 
L 196.498119 127.3 
L 188.761062 127.3 
L 199.810347 97.1 
L 208.986113 97.1 
L 220.035398 127.3 
L 212.304735 127.3 
z
M 200.315494 116.193442 
L 208.487361 116.193442 
L 204.407821 104.180754 
z
" style="fill:#008000;"/>
   </g>
   <g id="patch_12">
    <path clip-path="url(#pf071e16276)" d="M 188.761062 21.6 
L 220.035398 21.6 
L 220.035398 36.324604 
L 208.78391 36.324604 
L 208.78391 97.1 
L 200.034369 97.1 
L 200.034369 36.324604 
L 188.761062 36.324604 
z
" style="fill:#ff0000;"/>
   </g>
   <g id="patch_13">
    <path clip-path="url(#pf071e16276)" d="M 252.955752 156.417641 
Q 250.339708 156.954142 247.510913 157.225511 
Q 244.682118 157.5 241.601175 157.5 
Q 232.413501 157.5 227.047459 155.466288 
Q 221.681416 153.432576 221.681416 149.954679 
Q 221.681416 146.464305 227.047459 144.433712 
Q 232.413501 142.4 241.601175 142.4 
Q 244.682118 142.4 247.510913 142.674489 
Q 250.339708 142.945858 252.955752 143.482359 
L 252.955752 146.492378 
Q 250.316069 145.781202 247.755182 145.450568 
Q 245.194296 145.119934 242.365501 145.119934 
Q 237.291005 145.119934 234.383414 146.408159 
Q 231.483702 147.693266 231.483702 149.954679 
Q 231.483702 152.206734 234.383414 153.49496 
Q 237.291005 154.780066 242.365501 154.780066 
Q 245.194296 154.780066 247.755182 154.449432 
Q 250.316069 154.115679 252.955752 153.404503 
z
" style="fill:#0000ff;"/>
   </g>
   <g id="patch_14">
    <path clip-path="url(#pf071e16276)" d="M 252.955752 141.033795 
Q 249.801684 141.716897 246.409309 142.060008 
Q 243.016934 142.4 239.400269 142.4 
Q 231.227728 142.4 226.454572 140.366288 
Q 221.681416 138.332576 221.681416 134.854679 
Q 221.681416 131.336232 226.538681 129.318116 
Q 231.402954 127.3 239.862866 127.3 
Q 243.122069 127.3 246.10792 127.574489 
Q 249.10078 127.845858 251.750197 128.382359 
L 251.750197 131.392378 
Q 249.016672 130.703037 246.311182 130.363045 
Q 243.605693 130.019934 240.886185 130.019934 
Q 235.853695 130.019934 233.127178 131.273848 
Q 230.400662 132.524644 230.400662 134.854679 
Q 230.400662 137.16288 233.029052 138.423032 
Q 235.657442 139.680066 240.493679 139.680066 
Q 241.811379 139.680066 242.939834 139.608325 
Q 244.06829 139.533464 244.965447 139.377505 
L 244.965447 136.551518 
L 239.813802 136.551518 
L 239.813802 134.034332 
L 252.955752 134.034332 
z
" style="fill:#ffa600;"/>
   </g>
   <g id="patch_15">
    <path clip-path="url(#pf071e16276)" d="M 243.345176 108.044749 
L 231.317569 108.044749 
L 229.418473 127.3 
L 221.681416 127.3 
L 232.730701 21.6 
L 241.906467 21.6 
L 252.955752 127.3 
L 245.225089 127.3 
z
M 233.235848 88.427047 
L 241.407715 88.427047 
L 237.328175 46.38264 
z
" style="fill:#008000;"/>
   </g>
   <g id="patch_16">
    <path clip-path="url(#pf071e16276)" d="M 285.876106 154.767589 
Q 282.722038 156.133795 279.329663 156.820017 
Q 275.937288 157.5 272.320623 157.5 
Q 264.148082 157.5 259.374926 153.432576 
Q 254.60177 149.365152 254.60177 142.409358 
Q 254.60177 135.372464 259.459035 131.336232 
Q 264.323308 127.3 272.78322 127.3 
Q 276.042423 127.3 279.028274 127.848977 
Q 282.021134 128.391717 284.670551 129.464718 
L 284.670551 135.484755 
Q 281.937026 134.106073 279.231536 133.42609 
Q 276.526047 132.739868 273.806539 132.739868 
Q 268.774049 132.739868 266.047532 135.247697 
Q 263.321016 137.749287 263.321016 142.409358 
Q 263.321016 147.025759 265.949406 149.546065 
Q 268.577796 152.060132 273.414033 152.060132 
Q 274.731733 152.060132 275.860188 151.916649 
Q 276.988644 151.766928 277.885801 151.455009 
L 277.885801 145.803037 
L 272.734156 145.803037 
L 272.734156 140.768663 
L 285.876106 140.768663 
z
" style="fill:#ffa600;"/>
   </g>
   <g id="patch_17">
    <path clip-path="url(#pf071e16276)" d="M 276.26553 119.04775 
L 264.237923 119.04775 
L 262.338827 127.3 
L 254.60177 127.3 
L 265.651055 82 
L 274.826821 82 
L 285.876106 127.3 
L 278.145443 127.3 
z
M 266.156202 110.640163 
L 274.328069 110.640163 
L 270.248529 92.621132 
z
" style="fill:#008000;"/>
   </g>
   <g id="patch_18">
    <path clip-path="url(#pf071e16276)" d="M 254.60177 21.6 
L 285.876106 21.6 
L 285.876106 33.379683 
L 274.624618 33.379683 
L 274.624618 82 
L 265.875077 82 
L 265.875077 33.379683 
L 254.60177 33.379683 
z
" style="fill:#ff0000;"/>
   </g>
   <g id="patch_19">
    <path clip-path="url(#pf071e16276)" d="M 318.79646 156.417641 
Q 316.180416 156.954142 313.351621 157.225511 
Q 310.522826 157.5 307.441883 157.5 
Q 298.254209 157.5 292.888166 155.466288 
Q 287.522124 153.432576 287.522124 149.954679 
Q 287.522124 146.464305 292.888166 144.433712 
Q 298.254209 142.4 307.441883 142.4 
Q 310.522826 142.4 313.351621 142.674489 
Q 316.180416 142.945858 318.79646 143.482359 
L 318.79646 146.492378 
Q 316.156777 145.781202 313.59589 145.450568 
Q 311.035004 145.119934 308.206209 145.119934 
Q 303.131713 145.119934 300.224122 146.408159 
Q 297.32441 147.693266 297.32441 149.954679 
Q 297.32441 152.206734 300.224122 153.49496 
Q 303.131713 154.780066 308.206209 154.780066 
Q 311.035004 154.780066 313.59589 154.449432 
Q 316.156777 154.115679 318.79646 153.404503 
z
" style="fill:#0000ff;"/>
   </g>
   <g id="patch_20">
    <path clip-path="url(#pf071e16276)" d="M 309.185884 131.397 
L 297.158277 131.397 
L 295.259181 142.4 
L 287.522124 142.4 
L 298.571409 82 
L 307.747175 82 
L 318.79646 142.4 
L 311.065797 142.4 
z
M 299.076556 120.186884 
L 307.248423 120.186884 
L 303.168883 96.161509 
z
" style="fill:#008000;"/>
   </g>
   <g id="patch_21">
    <path clip-path="url(#pf071e16276)" d="M 318.79646 76.535179 
Q 315.642392 79.267589 312.250017 80.640033 
Q 308.857642 82 305.240977 82 
Q 297.068436 82 292.29528 73.865152 
Q 287.522124 65.730304 287.522124 51.818715 
Q 287.522124 37.744929 292.379389 29.672464 
Q 297.243662 21.6 305.703574 21.6 
Q 308.962777 21.6 311.948628 22.697955 
Q 314.941488 23.783433 317.590905 25.929436 
L 317.590905 37.96951 
Q 314.85738 35.212146 312.15189 33.852179 
Q 309.446401 32.479736 306.726893 32.479736 
Q 301.694403 32.479736 298.967886 37.495394 
Q 296.24137 42.498575 296.24137 51.818715 
Q 296.24137 61.051518 298.86976 66.09213 
Q 301.49815 71.120264 306.334387 71.120264 
Q 307.652087 71.120264 308.780542 70.833299 
Q 309.908998 70.533857 310.806155 69.910019 
L 310.806155 58.606073 
L 305.65451 58.606073 
L 305.65451 48.537327 
L 318.79646 48.537327 
z
" style="fill:#ffa600;"/>
   </g>
   <g id="patch_22">
    <path clip-path="url(#pf071e16276)" d="M 342.106238 132.743249 
L 330.078631 132.743249 
L 328.179535 157.5 
L 320.442478 157.5 
L 331.491763 21.6 
L 340.667529 21.6 
L 351.716814 157.5 
L 343.986151 157.5 
z
M 331.99691 107.520489 
L 340.168777 107.520489 
L 336.089237 53.463395 
z
" style="fill:#008000;"/>
   </g>
   <g id="patch_23">
    <path clip-path="url(#pf071e16276)" d="M 353.362832 21.6 
L 384.637168 21.6 
L 384.637168 48.104286 
L 373.38568 48.104286 
L 373.38568 157.5 
L 364.636139 157.5 
L 364.636139 48.104286 
L 353.362832 48.104286 
z
" style="fill:#ff0000;"/>
   </g>
   <g id="patch_24">
    <path clip-path="url(#pf071e16276)" d="M 407.946946 154.74925 
L 395.919339 154.74925 
L 394.020243 157.5 
L 386.283186 157.5 
L 397.332471 142.4 
L 406.508237 142.4 
L 417.557522 157.5 
L 409.826859 157.5 
z
M 397.837618 151.946721 
L 406.009485 151.946721 
L 401.929945 145.940377 
z
" style="fill:#008000;"/>
   </g>
   <g id="patch_25">
    <path clip-path="url(#pf071e16276)" d="M 417.557522 131.470357 
Q 414.403454 136.935179 411.011079 139.680066 
Q 407.618703 142.4 404.002039 142.4 
Q 395.829498 142.4 391.056342 126.130304 
Q 386.283186 109.860607 386.283186 82.03743 
Q 386.283186 53.889857 391.140451 37.744929 
Q 396.004724 21.6 404.464635 21.6 
Q 407.723839 21.6 410.70969 23.79591 
Q 413.70255 25.966866 416.351967 30.258872 
L 416.351967 54.339021 
Q 413.618442 48.824293 410.912952 46.104359 
Q 408.207463 43.359471 405.487955 43.359471 
Q 400.455465 43.359471 397.728948 53.390787 
Q 395.002432 63.397149 395.002432 82.03743 
Q 395.002432 100.503037 397.630822 110.584259 
Q 400.259212 120.640529 405.095449 120.640529 
Q 406.413149 120.640529 407.541604 120.066598 
Q 408.670059 119.467713 409.567217 118.220037 
L 409.567217 95.612146 
L 404.415572 95.612146 
L 404.415572 75.474654 
L 417.557522 75.474654 
z
" style="fill:#ffa600;"/>
   </g>
   <g id="patch_26">
    <path clip-path="url(#pf071e16276)" d="M 450.477876 156.417641 
Q 447.861832 156.954142 445.033037 157.225511 
Q 442.204242 157.5 439.123298 157.5 
Q 429.935625 157.5 424.569582 155.466288 
Q 419.20354 153.432576 419.20354 149.954679 
Q 419.20354 146.464305 424.569582 144.433712 
Q 429.935625 142.4 439.123298 142.4 
Q 442.204242 142.4 445.033037 142.674489 
Q 447.861832 142.945858 450.477876 143.482359 
L 450.477876 146.492378 
Q 447.838193 145.781202 445.277306 145.450568 
Q 442.71642 145.119934 439.887625 145.119934 
Q 434.813129 145.119934 431.905538 146.408159 
Q 429.005826 147.693266 429.005826 149.954679 
Q 429.005826 152.206734 431.905538 153.49496 
Q 434.813129 154.780066 439.887625 154.780066 
Q 442.71642 154.780066 445.277306 154.449432 
Q 447.838193 154.115679 450.477876 153.404503 
z
" style="fill:#0000ff;"/>
   </g>
   <g id="patch_27">
    <path clip-path="url(#pf071e16276)" d="M 450.477876 139.667589 
Q 447.323808 141.033795 443.931433 141.720017 
Q 440.539057 142.4 436.922393 142.4 
Q 428.749852 142.4 423.976696 138.332576 
Q 419.20354 134.265152 419.20354 127.309358 
Q 419.20354 120.272464 424.060805 116.236232 
Q 428.925078 112.2 437.384989 112.2 
Q 440.644193 112.2 443.630044 112.748977 
Q 446.622904 113.291717 449.272321 114.364718 
L 449.272321 120.384755 
Q 446.538796 119.006073 443.833306 118.32609 
Q 441.127817 117.639868 438.408309 117.639868 
Q 433.375819 117.639868 430.649302 120.147697 
Q 427.922786 122.649287 427.922786 127.309358 
Q 427.922786 131.925759 430.551176 134.446065 
Q 433.179565 136.960132 438.015803 136.960132 
Q 439.333503 136.960132 440.461958 136.816649 
Q 441.590413 136.666928 442.487571 136.355009 
L 442.487571 130.703037 
L 437.335926 130.703037 
L 437.335926 125.668663 
L 450.477876 125.668663 
z
" style="fill:#ffa600;"/>
   </g>
   <g id="patch_28">
    <path clip-path="url(#pf071e16276)" d="M 440.8673 95.695499 
L 428.839693 95.695499 
L 426.940597 112.2 
L 419.20354 112.2 
L 430.252825 21.6 
L 439.428591 21.6 
L 450.477876 112.2 
L 442.747213 112.2 
z
M 430.757972 78.880326 
L 438.929839 78.880326 
L 434.850299 42.842263 
z
" style="fill:#008000;"/>
   </g>
   <g id="patch_29">
    <path clip-path="url(#pf071e16276)" d="M 483.39823 153.401384 
Q 480.244162 155.450692 476.851787 156.480025 
Q 473.459411 157.5 469.842747 157.5 
Q 461.670206 157.5 456.89705 151.398864 
Q 452.123894 145.297728 452.123894 134.864036 
Q 452.123894 124.308697 456.981158 118.254348 
Q 461.845432 112.2 470.305343 112.2 
Q 473.564547 112.2 476.550398 113.023466 
Q 479.543258 113.837575 482.192675 115.447077 
L 482.192675 124.477133 
Q 479.45915 122.40911 476.75366 121.389134 
Q 474.048171 120.359802 471.328663 120.359802 
Q 466.296173 120.359802 463.569656 124.121545 
Q 460.84314 127.873931 460.84314 134.864036 
Q 460.84314 141.788639 463.471529 145.569097 
Q 466.099919 149.340198 470.936157 149.340198 
Q 472.253857 149.340198 473.382312 149.124974 
Q 474.510767 148.900392 475.407925 148.432514 
L 475.407925 139.954555 
L 470.25628 139.954555 
L 470.25628 132.402995 
L 483.39823 132.402995 
z
" style="fill:#ffa600;"/>
   </g>
   <g id="patch_30">
    <path clip-path="url(#pf071e16276)" d="M 452.123894 21.6 
L 483.39823 21.6 
L 483.39823 39.269524 
L 472.146742 39.269524 
L 472.146742 112.2 
L 463.397201 112.2 
L 463.397201 39.269524 
L 452.123894 39.269524 
z
" style="fill:#ff0000;"/>
   </g>
   <g id="patch_31">
    <path clip-path="url(#pf071e16276)" d="M 516.318584 156.417641 
Q 513.70254 156.954142 510.873745 157.225511 
Q 508.04495 157.5 504.964006 157.5 
Q 495.776333 157.5 490.41029 155.466288 
Q 485.044248 153.432576 485.044248 149.954679 
Q 485.044248 146.464305 490.41029 144.433712 
Q 495.776333 142.4 504.964006 142.4 
Q 508.04495 142.4 510.873745 142.674489 
Q 513.70254 142.945858 516.318584 143.482359 
L 516.318584 146.492378 
Q 513.678901 145.781202 511.118014 145.450568 
Q 508.557127 145.119934 505.728333 145.119934 
Q 500.653837 145.119934 497.746246 146.408159 
Q 494.846534 147.693266 494.846534 149.954679 
Q 494.846534 152.206734 497.746246 153.49496 
Q 500.653837 154.780066 505.728333 154.780066 
Q 508.557127 154.780066 511.118014 154.449432 
Q 513.678901 154.115679 516.318584 153.404503 
z
" style="fill:#0000ff;"/>
   </g>
   <g id="patch_32">
    <path clip-path="url(#pf071e16276)" d="M 485.044248 127.3 
L 516.318584 127.3 
L 516.318584 130.244921 
L 505.067096 130.244921 
L 505.067096 142.4 
L 496.317555 142.4 
L 496.317555 130.244921 
L 485.044248 130.244921 
z
" style="fill:#ff0000;"/>
   </g>
   <g id="patch_33">
    <path clip-path="url(#pf071e16276)" d="M 506.708008 121.7985 
L 494.680401 121.7985 
L 492.781305 127.3 
L 485.044248 127.3 
L 496.093533 97.1 
L 505.269299 97.1 
L 516.318584 127.3 
L 508.587921 127.3 
z
M 496.59868 116.193442 
L 504.770547 116.193442 
L 500.691007 104.180754 
z
" style="fill:#008000;"/>
   </g>
   <g id="patch_34">
    <path clip-path="url(#pf071e16276)" d="M 516.318584 90.268973 
Q 513.164516 93.684487 509.772141 95.400041 
Q 506.379765 97.1 502.763101 97.1 
Q 494.59056 97.1 489.817404 86.93144 
Q 485.044248 76.76288 485.044248 59.373394 
Q 485.044248 41.781161 489.901512 31.69058 
Q 494.765786 21.6 503.225697 21.6 
Q 506.484901 21.6 509.470752 22.972444 
Q 512.463612 24.329291 515.113029 27.011795 
L 515.113029 42.061888 
Q 512.379504 38.615183 509.674014 36.915224 
Q 506.968525 35.199669 504.249017 35.199669 
Q 499.216527 35.199669 496.49001 41.469242 
Q 493.763493 47.723218 493.763493 59.373394 
Q 493.763493 70.914398 496.391883 77.215162 
Q 499.020273 83.500331 503.856511 83.500331 
Q 505.174211 83.500331 506.302666 83.141624 
Q 507.431121 82.767321 508.328279 81.987523 
L 508.328279 67.857591 
L 503.176634 67.857591 
L 503.176634 55.271659 
L 516.318584 55.271659 
z
" style="fill:#ffa600;"/>
   </g>
   <g id="patch_35">
    <path clip-path="url(#pf071e16276)" d="M 539.628362 146.497 
L 527.600755 146.497 
L 525.701659 157.5 
L 517.964602 157.5 
L 529.013887 97.1 
L 538.189653 97.1 
L 549.238938 157.5 
L 541.508275 157.5 
z
M 529.519034 135.286884 
L 537.690901 135.286884 
L 533.611361 111.261509 
z
" style="fill:#008000;"/>
   </g>
   <g id="patch_36">
    <path clip-path="url(#pf071e16276)" d="M 549.238938 90.268973 
Q 546.08487 93.684487 542.692495 95.400041 
Q 539.300119 97.1 535.683455 97.1 
Q 527.510914 97.1 522.737758 86.93144 
Q 517.964602 76.76288 517.964602 59.373394 
Q 517.964602 41.781161 522.821866 31.69058 
Q 527.68614 21.6 536.146051 21.6 
Q 539.405255 21.6 542.391106 22.972444 
Q 545.383966 24.329291 548.033383 27.011795 
L 548.033383 42.061888 
Q 545.299858 38.615183 542.594368 36.915224 
Q 539.888879 35.199669 537.169371 35.199669 
Q 532.136881 35.199669 529.410364 41.469242 
Q 526.683847 47.723218 526.683847 59.373394 
Q 526.683847 70.914398 529.312237 77.215162 
Q 531.940627 83.500331 536.776865 83.500331 
Q 538.094565 83.500331 539.22302 83.141624 
Q 540.351475 82.767321 541.248633 81.987523 
L 541.248633 67.857591 
L 536.096988 67.857591 
L 536.096988 55.271659 
L 549.238938 55.271659 
z
" style="fill:#ffa600;"/>
   </g>
   <g id="patch_37">
    <path clip-path="url(#pf071e16276)" d="M 582.159292 156.417641 
Q 579.543248 156.954142 576.714453 157.225511 
Q 573.885658 157.5 570.804714 157.5 
Q 561.617041 157.5 556.250998 155.466288 
Q 550.884956 153.432576 550.884956 149.954679 
Q 550.884956 146.464305 556.250998 144.433712 
Q 561.617041 142.4 570.804714 142.4 
Q 573.885658 142.4 576.714453 142.674489 
Q 579.543248 142.945858 582.159292 143.482359 
L 582.159292 146.492378 
Q 579.519609 145.781202 576.958722 145.450568 
Q 574.397835 145.119934 571.569041 145.119934 
Q 566.494545 145.119934 563.586954 146.408159 
Q 560.687242 147.693266 560.687242 149.954679 
Q 560.687242 152.206734 563.586954 153.49496 
Q 566.494545 154.780066 571.569041 154.780066 
Q 574.397835 154.780066 576.958722 154.449432 
Q 579.519609 154.115679 582.159292 153.404503 
z
" style="fill:#0000ff;"/>
   </g>
   <g id="patch_38">
    <path clip-path="url(#pf071e16276)" d="M 572.548716 131.397 
L 560.521109 131.397 
L 558.622013 142.4 
L 550.884956 142.4 
L 561.934241 82 
L 571.110007 82 
L 582.159292 142.4 
L 574.428629 142.4 
z
M 562.439387 120.186884 
L 570.611255 120.186884 
L 566.531715 96.161509 
z
" style="fill:#008000;"/>
   </g>
   <g id="patch_39">
    <path clip-path="url(#pf071e16276)" d="M 550.884956 21.6 
L 582.159292 21.6 
L 582.159292 33.379683 
L 570.907804 33.379683 
L 570.907804 82 
L 562.158263 82 
L 562.158263 33.379683 
L 550.884956 33.379683 
z
" style="fill:#ff0000;"/>
   </g>
   <g id="patch_40">
    <path clip-path="url(#pf071e16276)" d="M 615.079646 156.417641 
Q 612.463602 156.954142 609.634807 157.225511 
Q 606.806012 157.5 603.725068 157.5 
Q 594.537395 157.5 589.171352 155.466288 
Q 583.80531 153.432576 583.80531 149.954679 
Q 583.80531 146.464305 589.171352 144.433712 
Q 594.537395 142.4 603.725068 142.4 
Q 606.806012 142.4 609.634807 142.674489 
Q 612.463602 142.945858 615.079646 143.482359 
L 615.079646 146.492378 
Q 612.439963 145.781202 609.879076 145.450568 
Q 607.318189 145.119934 604.489395 145.119934 
Q 599.414899 145.119934 596.507308 146.408159 
Q 593.607596 147.693266 593.607596 149.954679 
Q 593.607596 152.206734 596.507308 153.49496 
Q 599.414899 154.780066 604.489395 154.780066 
Q 607.318189 154.780066 609.879076 154.449432 
Q 612.439963 154.115679 615.079646 153.404503 
z
" style="fill:#0000ff;"/>
   </g>
   <g id="patch_41">
    <path clip-path="url(#pf071e16276)" d="M 583.80531 112.2 
L 615.079646 112.2 
L 615.079646 118.089841 
L 603.828158 118.089841 
L 603.828158 142.4 
L 595.078617 142.4 
L 595.078617 118.089841 
L 583.80531 118.089841 
z
" style="fill:#ff0000;"/>
   </g>
   <g id="patch_42">
    <path clip-path="url(#pf071e16276)" d="M 615.079646 104.002768 
Q 611.925578 108.101384 608.533203 110.16005 
Q 605.140827 112.2 601.524163 112.2 
Q 593.351622 112.2 588.578466 99.997728 
Q 583.80531 87.795455 583.80531 66.928073 
Q 583.80531 45.817393 588.662574 33.708697 
Q 593.526848 21.6 601.986759 21.6 
Q 605.245963 21.6 608.231814 23.246932 
Q 611.224674 24.87515 613.874091 28.094154 
L 613.874091 46.154266 
Q 611.140566 42.018219 608.435076 39.978269 
Q 605.729587 37.919603 603.010079 37.919603 
Q 597.977589 37.919603 595.251072 45.44309 
Q 592.524555 52.947862 592.524555 66.928073 
Q 592.524555 80.777277 595.152945 88.338195 
Q 597.781335 95.880397 602.617573 95.880397 
Q 603.935272 95.880397 605.063728 95.449948 
Q 606.192183 95.000785 607.08934 94.065028 
L 607.08934 77.10911 
L 601.937696 77.10911 
L 601.937696 62.00599 
L 615.079646 62.00599 
z
" style="fill:#ffa600;"/>
   </g>
   <g id="patch_43">
    <path clip-path="url(#pf071e16276)" d="M 648 154.767589 
Q 644.845932 156.133795 641.453557 156.820017 
Q 638.061181 157.5 634.444517 157.5 
Q 626.271976 157.5 621.49882 153.432576 
Q 616.725664 149.365152 616.725664 142.409358 
Q 616.725664 135.372464 621.582928 131.336232 
Q 626.447202 127.3 634.907113 127.3 
Q 638.166317 127.3 641.152168 127.848977 
Q 644.145028 128.391717 646.794445 129.464718 
L 646.794445 135.484755 
Q 644.06092 134.106073 641.35543 133.42609 
Q 638.649941 132.739868 635.930433 132.739868 
Q 630.897943 132.739868 628.171426 135.247697 
Q 625.444909 137.749287 625.444909 142.409358 
Q 625.444909 147.025759 628.073299 149.546065 
Q 630.701689 152.060132 635.537927 152.060132 
Q 636.855626 152.060132 637.984082 151.916649 
Q 639.112537 151.766928 640.009694 151.455009 
L 640.009694 145.803037 
L 634.85805 145.803037 
L 634.85805 140.768663 
L 648 140.768663 
z
" style="fill:#ffa600;"/>
   </g>
   <g id="patch_44">
    <path clip-path="url(#pf071e16276)" d="M 648 124.052923 
Q 645.383956 125.662425 642.555161 126.476534 
Q 639.726366 127.3 636.645422 127.3 
Q 627.457749 127.3 622.091706 121.198864 
Q 616.725664 115.097728 616.725664 104.664036 
Q 616.725664 94.192915 622.091706 88.101136 
Q 627.457749 82 636.645422 82 
Q 639.726366 82 642.555161 82.823466 
Q 645.383956 83.637575 648 85.247077 
L 648 94.277133 
Q 645.360317 92.143607 642.79943 91.151704 
Q 640.238543 90.159802 637.409749 90.159802 
Q 632.335253 90.159802 629.427662 94.024478 
Q 626.52795 97.879798 626.52795 104.664036 
Q 626.52795 111.420202 629.427662 115.284879 
Q 632.335253 119.140198 637.409749 119.140198 
Q 640.238543 119.140198 642.79943 118.148296 
Q 645.360317 117.147036 648 115.01351 
z
" style="fill:#0000ff;"/>
   </g>
   <g id="patch_45">
    <path clip-path="url(#pf071e16276)" d="M 638.389424 70.997 
L 626.361817 70.997 
L 624.462721 82 
L 616.725664 82 
L 627.774949 21.6 
L 636.950715 21.6 
L 648 82 
L 640.269337 82 
z
M 628.280095 59.786884 
L 636.451963 59.786884 
L 632.372423 35.761509 
z
" style="fill:#008000;"/>
   </g>
  </g>
 </g>
 <defs>
  <clipPath id="pf071e16276">
   <rect height="135.9" width="558" x="90" y="21.6"/>
  </clipPath>
 </defs>
</svg>
