<?xml version="1.0" encoding="utf-8" standalone="no"?>
<!DOCTYPE svg PUBLIC "-//W3C//DTD SVG 1.1//EN"
  "http://www.w3.org/Graphics/SVG/1.1/DTD/svg11.dtd">
<!-- Created with matplotlib (https://matplotlib.org/) -->
<svg height="180pt" version="1.1" viewBox="0 0 720 180" width="720pt" xmlns="http://www.w3.org/2000/svg" xmlns:xlink="http://www.w3.org/1999/xlink">
 <metadata>
  <rdf:RDF xmlns:cc="http://creativecommons.org/ns#" xmlns:dc="http://purl.org/dc/elements/1.1/" xmlns:rdf="http://www.w3.org/1999/02/22-rdf-syntax-ns#">
   <cc:Work>
    <dc:type rdf:resource="http://purl.org/dc/dcmitype/StillImage"/>
    <dc:date>2021-08-04T23:33:56.985984</dc:date>
    <dc:format>image/svg+xml</dc:format>
    <dc:creator>
     <cc:Agent>
      <dc:title>Matplotlib v3.3.2, https://matplotlib.org/</dc:title>
     </cc:Agent>
    </dc:creator>
   </cc:Work>
  </rdf:RDF>
 </metadata>
 <defs>
  <style type="text/css">*{stroke-linecap:butt;stroke-linejoin:round;}</style>
 </defs>
 <g id="figure_1">
  <g id="patch_1">
   <path d="M 0 180 
L 720 180 
L 720 0 
L 0 0 
z
" style="fill:none;"/>
  </g>
  <g id="axes_1">
   <g id="line2d_1">
    <path clip-path="url(#paeecbd379c)" d="M 90 157.5 
L 648 157.5 
" style="fill:none;stroke:#000000;stroke-linecap:square;stroke-width:0.5;"/>
   </g>
   <g id="patch_2">
    <path clip-path="url(#paeecbd379c)" d="M 90 142.4 
L 121.274336 142.4 
L 121.274336 145.344921 
L 110.022848 145.344921 
L 110.022848 157.5 
L 101.273307 157.5 
L 101.273307 145.344921 
L 90 145.344921 
z
" style="fill:#ff0000;"/>
   </g>
   <g id="patch_3">
    <path clip-path="url(#paeecbd379c)" d="M 111.66376 136.8985 
L 99.636153 136.8985 
L 97.737057 142.4 
L 90 142.4 
L 101.049285 112.2 
L 110.225051 112.2 
L 121.274336 142.4 
L 113.543673 142.4 
z
M 101.554432 131.293442 
L 109.726299 131.293442 
L 105.64676 119.280754 
z
" style="fill:#008000;"/>
   </g>
   <g id="patch_4">
    <path clip-path="url(#paeecbd379c)" d="M 121.274336 110.035282 
Q 118.658292 111.108283 115.829497 111.651023 
Q 113.000702 112.2 109.919759 112.2 
Q 100.732085 112.2 95.366043 108.132576 
Q 90 104.065152 90 97.109358 
Q 90 90.12861 95.366043 86.067424 
Q 100.732085 82 109.919759 82 
Q 113.000702 82 115.829497 82.548977 
Q 118.658292 83.091717 121.274336 84.164718 
L 121.274336 90.184755 
Q 118.634653 88.762404 116.073766 88.101136 
Q 113.51288 87.439868 110.684085 87.439868 
Q 105.609589 87.439868 102.701998 90.016319 
Q 99.802286 92.586532 99.802286 97.109358 
Q 99.802286 101.613468 102.701998 104.189919 
Q 105.609589 106.760132 110.684085 106.760132 
Q 113.51288 106.760132 116.073766 106.098864 
Q 118.634653 105.431357 121.274336 104.009006 
z
" style="fill:#0000ff;"/>
   </g>
   <g id="patch_5">
    <path clip-path="url(#paeecbd379c)" d="M 121.274336 79.267589 
Q 118.120268 80.633795 114.727893 81.320017 
Q 111.335518 82 107.718853 82 
Q 99.546312 82 94.773156 77.932576 
Q 90 73.865152 90 66.909358 
Q 90 59.872464 94.857265 55.836232 
Q 99.721538 51.8 108.18145 51.8 
Q 111.440653 51.8 114.426504 52.348977 
Q 117.419364 52.891717 120.068781 53.964718 
L 120.068781 59.984755 
Q 117.335256 58.606073 114.629766 57.92609 
Q 111.924277 57.239868 109.204769 57.239868 
Q 104.172279 57.239868 101.445762 59.747697 
Q 98.719246 62.249287 98.719246 66.909358 
Q 98.719246 71.525759 101.347636 74.046065 
Q 103.976026 76.560132 108.812263 76.560132 
Q 110.129963 76.560132 111.258418 76.416649 
Q 112.386874 76.266928 113.284031 75.955009 
L 113.284031 70.303037 
L 108.132386 70.303037 
L 108.132386 65.268663 
L 121.274336 65.268663 
z
" style="fill:#ffa600;"/>
   </g>
   <g id="patch_6">
    <path clip-path="url(#paeecbd379c)" d="M 154.19469 155.335282 
Q 151.578646 156.408283 148.749851 156.951023 
Q 145.921056 157.5 142.840113 157.5 
Q 133.652439 157.5 128.286397 153.432576 
Q 122.920354 149.365152 122.920354 142.409358 
Q 122.920354 135.42861 128.286397 131.367424 
Q 133.652439 127.3 142.840113 127.3 
Q 145.921056 127.3 148.749851 127.848977 
Q 151.578646 128.391717 154.19469 129.464718 
L 154.19469 135.484755 
Q 151.555007 134.062404 148.99412 133.401136 
Q 146.433234 132.739868 143.604439 132.739868 
Q 138.529943 132.739868 135.622352 135.316319 
Q 132.72264 137.886532 132.72264 142.409358 
Q 132.72264 146.913468 135.622352 149.489919 
Q 138.529943 152.060132 143.604439 152.060132 
Q 146.433234 152.060132 148.99412 151.398864 
Q 151.555007 150.731357 154.19469 149.309006 
z
" style="fill:#0000ff;"/>
   </g>
   <g id="patch_7">
    <path clip-path="url(#paeecbd379c)" d="M 144.584114 113.546249 
L 132.556507 113.546249 
L 130.657411 127.3 
L 122.920354 127.3 
L 133.969639 51.8 
L 143.145405 51.8 
L 154.19469 127.3 
L 146.464027 127.3 
z
M 134.474786 99.533605 
L 142.646653 99.533605 
L 138.567114 69.501886 
z
" style="fill:#008000;"/>
   </g>
   <g id="patch_8">
    <path clip-path="url(#paeecbd379c)" d="M 155.840708 51.8 
L 187.115044 51.8 
L 187.115044 72.414445 
L 175.863556 72.414445 
L 175.863556 157.5 
L 167.114015 157.5 
L 167.114015 72.414445 
L 155.840708 72.414445 
z
" style="fill:#ff0000;"/>
   </g>
   <g id="patch_9">
    <path clip-path="url(#paeecbd379c)" d="M 210.424822 154.74925 
L 198.397215 154.74925 
L 196.498119 157.5 
L 188.761062 157.5 
L 199.810347 142.4 
L 208.986113 142.4 
L 220.035398 157.5 
L 212.304735 157.5 
z
M 200.315494 151.946721 
L 208.487361 151.946721 
L 204.407821 145.940377 
z
" style="fill:#008000;"/>
   </g>
   <g id="patch_10">
    <path clip-path="url(#paeecbd379c)" d="M 220.035398 134.202768 
Q 216.88133 138.301384 213.488955 140.36005 
Q 210.09658 142.4 206.479915 142.4 
Q 198.307374 142.4 193.534218 130.197728 
Q 188.761062 117.995455 188.761062 97.128073 
Q 188.761062 76.017393 193.618327 63.908697 
Q 198.4826 51.8 206.942512 51.8 
Q 210.201715 51.8 213.187566 53.446932 
Q 216.180426 55.07515 218.829843 58.294154 
L 218.829843 76.354266 
Q 216.096318 72.218219 213.390828 70.178269 
Q 210.685339 68.119603 207.965831 68.119603 
Q 202.933341 68.119603 200.206824 75.64309 
Q 197.480308 83.147862 197.480308 97.128073 
Q 197.480308 110.977277 200.108698 118.538195 
Q 202.737088 126.080397 207.573325 126.080397 
Q 208.891025 126.080397 210.01948 125.649948 
Q 211.147936 125.200785 212.045093 124.265028 
L 212.045093 107.30911 
L 206.893448 107.30911 
L 206.893448 92.20599 
L 220.035398 92.20599 
z
" style="fill:#ffa600;"/>
   </g>
   <g id="patch_11">
    <path clip-path="url(#paeecbd379c)" d="M 243.345176 138.244749 
L 231.317569 138.244749 
L 229.418473 157.5 
L 221.681416 157.5 
L 232.730701 51.8 
L 241.906467 51.8 
L 252.955752 157.5 
L 245.225089 157.5 
z
M 233.235848 118.627047 
L 241.407715 118.627047 
L 237.328175 76.58264 
z
" style="fill:#008000;"/>
   </g>
   <g id="patch_12">
    <path clip-path="url(#paeecbd379c)" d="M 254.60177 142.4 
L 285.876106 142.4 
L 285.876106 145.344921 
L 274.624618 145.344921 
L 274.624618 157.5 
L 265.875077 157.5 
L 265.875077 145.344921 
L 254.60177 145.344921 
z
" style="fill:#ff0000;"/>
   </g>
   <g id="patch_13">
    <path clip-path="url(#paeecbd379c)" d="M 276.26553 136.8985 
L 264.237923 136.8985 
L 262.338827 142.4 
L 254.60177 142.4 
L 265.651055 112.2 
L 274.826821 112.2 
L 285.876106 142.4 
L 278.145443 142.4 
z
M 266.156202 131.293442 
L 274.328069 131.293442 
L 270.248529 119.280754 
z
" style="fill:#008000;"/>
   </g>
   <g id="patch_14">
    <path clip-path="url(#paeecbd379c)" d="M 285.876106 106.735179 
Q 282.722038 109.467589 279.329663 110.840033 
Q 275.937288 112.2 272.320623 112.2 
Q 264.148082 112.2 259.374926 104.065152 
Q 254.60177 95.930304 254.60177 82.018715 
Q 254.60177 67.944929 259.459035 59.872464 
Q 264.323308 51.8 272.78322 51.8 
Q 276.042423 51.8 279.028274 52.897955 
Q 282.021134 53.983433 284.670551 56.129436 
L 284.670551 68.16951 
Q 281.937026 65.412146 279.231536 64.052179 
Q 276.526047 62.679736 273.806539 62.679736 
Q 268.774049 62.679736 266.047532 67.695394 
Q 263.321016 72.698575 263.321016 82.018715 
Q 263.321016 91.251518 265.949406 96.29213 
Q 268.577796 101.320264 273.414033 101.320264 
Q 274.731733 101.320264 275.860188 101.033299 
Q 276.988644 100.733857 277.885801 100.110019 
L 277.885801 88.806073 
L 272.734156 88.806073 
L 272.734156 78.737327 
L 285.876106 78.737327 
z
" style="fill:#ffa600;"/>
   </g>
   <g id="patch_15">
    <path clip-path="url(#paeecbd379c)" d="M 309.185884 151.9985 
L 297.158277 151.9985 
L 295.259181 157.5 
L 287.522124 157.5 
L 298.571409 127.3 
L 307.747175 127.3 
L 318.79646 157.5 
L 311.065797 157.5 
z
M 299.076556 146.393442 
L 307.248423 146.393442 
L 303.168883 134.380754 
z
" style="fill:#008000;"/>
   </g>
   <g id="patch_16">
    <path clip-path="url(#paeecbd379c)" d="M 318.79646 120.468973 
Q 315.642392 123.884487 312.250017 125.600041 
Q 308.857642 127.3 305.240977 127.3 
Q 297.068436 127.3 292.29528 117.13144 
Q 287.522124 106.96288 287.522124 89.573394 
Q 287.522124 71.981161 292.379389 61.89058 
Q 297.243662 51.8 305.703574 51.8 
Q 308.962777 51.8 311.948628 53.172444 
Q 314.941488 54.529291 317.590905 57.211795 
L 317.590905 72.261888 
Q 314.85738 68.815183 312.15189 67.115224 
Q 309.446401 65.399669 306.726893 65.399669 
Q 301.694403 65.399669 298.967886 71.669242 
Q 296.24137 77.923218 296.24137 89.573394 
Q 296.24137 101.114398 298.86976 107.415162 
Q 301.49815 113.700331 306.334387 113.700331 
Q 307.652087 113.700331 308.780542 113.341624 
Q 309.908998 112.967321 310.806155 112.187523 
L 310.806155 98.057591 
L 305.65451 98.057591 
L 305.65451 85.471659 
L 318.79646 85.471659 
z
" style="fill:#ffa600;"/>
   </g>
   <g id="patch_17">
    <path clip-path="url(#paeecbd379c)" d="M 342.106238 154.74925 
L 330.078631 154.74925 
L 328.179535 157.5 
L 320.442478 157.5 
L 331.491763 142.4 
L 340.667529 142.4 
L 351.716814 157.5 
L 343.986151 157.5 
z
M 331.99691 151.946721 
L 340.168777 151.946721 
L 336.089237 145.940377 
z
" style="fill:#008000;"/>
   </g>
   <g id="patch_18">
    <path clip-path="url(#paeecbd379c)" d="M 320.442478 97.1 
L 351.716814 97.1 
L 351.716814 105.934762 
L 340.465326 105.934762 
L 340.465326 142.4 
L 331.715785 142.4 
L 331.715785 105.934762 
L 320.442478 105.934762 
z
" style="fill:#ff0000;"/>
   </g>
   <g id="patch_19">
    <path clip-path="url(#paeecbd379c)" d="M 351.716814 90.268973 
Q 348.562746 93.684487 345.170371 95.400041 
Q 341.777996 97.1 338.161331 97.1 
Q 329.98879 97.1 325.215634 86.93144 
Q 320.442478 76.76288 320.442478 59.373394 
Q 320.442478 41.781161 325.299743 31.69058 
Q 330.164016 21.6 338.623928 21.6 
Q 341.883131 21.6 344.868982 22.972444 
Q 347.861842 24.329291 350.511259 27.011795 
L 350.511259 42.061888 
Q 347.777734 38.615183 345.072244 36.915224 
Q 342.366755 35.199669 339.647247 35.199669 
Q 334.614757 35.199669 331.88824 41.469242 
Q 329.161724 47.723218 329.161724 59.373394 
Q 329.161724 70.914398 331.790114 77.215162 
Q 334.418504 83.500331 339.254741 83.500331 
Q 340.572441 83.500331 341.700896 83.141624 
Q 342.829351 82.767321 343.726509 81.987523 
L 343.726509 67.857591 
L 338.574864 67.857591 
L 338.574864 55.271659 
L 351.716814 55.271659 
z
" style="fill:#ffa600;"/>
   </g>
   <g id="patch_20">
    <path clip-path="url(#paeecbd379c)" d="M 375.026592 154.74925 
L 362.998985 154.74925 
L 361.099889 157.5 
L 353.362832 157.5 
L 364.412117 142.4 
L 373.587883 142.4 
L 384.637168 157.5 
L 376.906505 157.5 
z
M 364.917264 151.946721 
L 373.089131 151.946721 
L 369.009591 145.940377 
z
" style="fill:#008000;"/>
   </g>
   <g id="patch_21">
    <path clip-path="url(#paeecbd379c)" d="M 353.362832 127.3 
L 384.637168 127.3 
L 384.637168 130.244921 
L 373.38568 130.244921 
L 373.38568 142.4 
L 364.636139 142.4 
L 364.636139 130.244921 
L 353.362832 130.244921 
z
" style="fill:#ff0000;"/>
   </g>
   <g id="patch_22">
    <path clip-path="url(#paeecbd379c)" d="M 384.637168 119.723487 
Q 382.021124 123.478992 379.192329 125.378579 
Q 376.363534 127.3 373.282591 127.3 
Q 364.094917 127.3 358.728874 113.064016 
Q 353.362832 98.828031 353.362832 74.482751 
Q 353.362832 50.050134 358.728874 35.835984 
Q 364.094917 21.6 373.282591 21.6 
Q 376.363534 21.6 379.192329 23.521421 
Q 382.021124 25.421008 384.637168 29.176513 
L 384.637168 50.246643 
Q 381.997485 45.268416 379.436598 42.953976 
Q 376.875712 40.639537 374.046917 40.639537 
Q 368.972421 40.639537 366.06483 49.657116 
Q 363.165118 58.652861 363.165118 74.482751 
Q 363.165118 90.247139 366.06483 99.264718 
Q 368.972421 108.260463 374.046917 108.260463 
Q 376.875712 108.260463 379.436598 105.946024 
Q 381.997485 103.60975 384.637168 98.631522 
z
" style="fill:#0000ff;"/>
   </g>
   <g id="patch_23">
    <path clip-path="url(#paeecbd379c)" d="M 407.946946 151.9985 
L 395.919339 151.9985 
L 394.020243 157.5 
L 386.283186 157.5 
L 397.332471 127.3 
L 406.508237 127.3 
L 417.557522 157.5 
L 409.826859 157.5 
z
M 397.837618 146.393442 
L 406.009485 146.393442 
L 401.929945 134.380754 
z
" style="fill:#008000;"/>
   </g>
   <g id="patch_24">
    <path clip-path="url(#paeecbd379c)" d="M 386.283186 97.1 
L 417.557522 97.1 
L 417.557522 102.989841 
L 406.306034 102.989841 
L 406.306034 127.3 
L 397.556493 127.3 
L 397.556493 102.989841 
L 386.283186 102.989841 
z
" style="fill:#ff0000;"/>
   </g>
   <g id="patch_25">
    <path clip-path="url(#paeecbd379c)" d="M 417.557522 91.688205 
Q 414.941478 94.370709 412.112683 95.727556 
Q 409.283888 97.1 406.202945 97.1 
Q 397.015271 97.1 391.649228 86.93144 
Q 386.283186 76.76288 386.283186 59.373394 
Q 386.283186 41.921524 391.649228 31.76856 
Q 397.015271 21.6 406.202945 21.6 
Q 409.283888 21.6 412.112683 22.972444 
Q 414.941478 24.329291 417.557522 27.011795 
L 417.557522 42.061888 
Q 414.917839 38.506011 412.356952 36.85284 
Q 409.796066 35.199669 406.967271 35.199669 
Q 401.892775 35.199669 398.985184 41.640797 
Q 396.085472 48.066329 396.085472 59.373394 
Q 396.085472 70.633671 398.985184 77.074799 
Q 401.892775 83.500331 406.967271 83.500331 
Q 409.796066 83.500331 412.356952 81.84716 
Q 414.917839 80.178393 417.557522 76.622516 
z
" style="fill:#0000ff;"/>
   </g>
   <g id="patch_26">
    <path clip-path="url(#paeecbd379c)" d="M 450.477876 154.767589 
Q 447.323808 156.133795 443.931433 156.820017 
Q 440.539057 157.5 436.922393 157.5 
Q 428.749852 157.5 423.976696 153.432576 
Q 419.20354 149.365152 419.20354 142.409358 
Q 419.20354 135.372464 424.060805 131.336232 
Q 428.925078 127.3 437.384989 127.3 
Q 440.644193 127.3 443.630044 127.848977 
Q 446.622904 128.391717 449.272321 129.464718 
L 449.272321 135.484755 
Q 446.538796 134.106073 443.833306 133.42609 
Q 441.127817 132.739868 438.408309 132.739868 
Q 433.375819 132.739868 430.649302 135.247697 
Q 427.922786 137.749287 427.922786 142.409358 
Q 427.922786 147.025759 430.551176 149.546065 
Q 433.179565 152.060132 438.015803 152.060132 
Q 439.333503 152.060132 440.461958 151.916649 
Q 441.590413 151.766928 442.487571 151.455009 
L 442.487571 145.803037 
L 437.335926 145.803037 
L 437.335926 140.768663 
L 450.477876 140.768663 
z
" style="fill:#ffa600;"/>
   </g>
   <g id="patch_27">
    <path clip-path="url(#paeecbd379c)" d="M 440.8673 119.04775 
L 428.839693 119.04775 
L 426.940597 127.3 
L 419.20354 127.3 
L 430.252825 82 
L 439.428591 82 
L 450.477876 127.3 
L 442.747213 127.3 
z
M 430.757972 110.640163 
L 438.929839 110.640163 
L 434.850299 92.621132 
z
" style="fill:#008000;"/>
   </g>
   <g id="patch_28">
    <path clip-path="url(#paeecbd379c)" d="M 419.20354 21.6 
L 450.477876 21.6 
L 450.477876 33.379683 
L 439.226388 33.379683 
L 439.226388 82 
L 430.476847 82 
L 430.476847 33.379683 
L 419.20354 33.379683 
z
" style="fill:#ff0000;"/>
   </g>
   <g id="patch_29">
    <path clip-path="url(#paeecbd379c)" d="M 483.39823 154.767589 
Q 480.244162 156.133795 476.851787 156.820017 
Q 473.459411 157.5 469.842747 157.5 
Q 461.670206 157.5 456.89705 153.432576 
Q 452.123894 149.365152 452.123894 142.409358 
Q 452.123894 135.372464 456.981158 131.336232 
Q 461.845432 127.3 470.305343 127.3 
Q 473.564547 127.3 476.550398 127.848977 
Q 479.543258 128.391717 482.192675 129.464718 
L 482.192675 135.484755 
Q 479.45915 134.106073 476.75366 133.42609 
Q 474.048171 132.739868 471.328663 132.739868 
Q 466.296173 132.739868 463.569656 135.247697 
Q 460.84314 137.749287 460.84314 142.409358 
Q 460.84314 147.025759 463.471529 149.546065 
Q 466.099919 152.060132 470.936157 152.060132 
Q 472.253857 152.060132 473.382312 151.916649 
Q 474.510767 151.766928 475.407925 151.455009 
L 475.407925 145.803037 
L 470.25628 145.803037 
L 470.25628 140.768663 
L 483.39823 140.768663 
z
" style="fill:#ffa600;"/>
   </g>
   <g id="patch_30">
    <path clip-path="url(#paeecbd379c)" d="M 473.787654 108.044749 
L 461.760047 108.044749 
L 459.860951 127.3 
L 452.123894 127.3 
L 463.173179 21.6 
L 472.348945 21.6 
L 483.39823 127.3 
L 475.667567 127.3 
z
M 463.678326 88.427047 
L 471.850193 88.427047 
L 467.770653 46.38264 
z
" style="fill:#008000;"/>
   </g>
   <g id="patch_31">
    <path clip-path="url(#paeecbd379c)" d="M 516.318584 156.417641 
Q 513.70254 156.954142 510.873745 157.225511 
Q 508.04495 157.5 504.964006 157.5 
Q 495.776333 157.5 490.41029 155.466288 
Q 485.044248 153.432576 485.044248 149.954679 
Q 485.044248 146.464305 490.41029 144.433712 
Q 495.776333 142.4 504.964006 142.4 
Q 508.04495 142.4 510.873745 142.674489 
Q 513.70254 142.945858 516.318584 143.482359 
L 516.318584 146.492378 
Q 513.678901 145.781202 511.118014 145.450568 
Q 508.557127 145.119934 505.728333 145.119934 
Q 500.653837 145.119934 497.746246 146.408159 
Q 494.846534 147.693266 494.846534 149.954679 
Q 494.846534 152.206734 497.746246 153.49496 
Q 500.653837 154.780066 505.728333 154.780066 
Q 508.557127 154.780066 511.118014 154.449432 
Q 513.678901 154.115679 516.318584 153.404503 
z
" style="fill:#0000ff;"/>
   </g>
   <g id="patch_32">
    <path clip-path="url(#paeecbd379c)" d="M 485.044248 21.6 
L 516.318584 21.6 
L 516.318584 45.159366 
L 505.067096 45.159366 
L 505.067096 142.4 
L 496.317555 142.4 
L 496.317555 45.159366 
L 485.044248 45.159366 
z
" style="fill:#ff0000;"/>
   </g>
   <g id="patch_33">
    <path clip-path="url(#paeecbd379c)" d="M 539.628362 132.743249 
L 527.600755 132.743249 
L 525.701659 157.5 
L 517.964602 157.5 
L 529.013887 21.6 
L 538.189653 21.6 
L 549.238938 157.5 
L 541.508275 157.5 
z
M 529.519034 107.520489 
L 537.690901 107.520489 
L 533.611361 53.463395 
z
" style="fill:#008000;"/>
   </g>
   <g id="patch_34">
    <path clip-path="url(#paeecbd379c)" d="M 572.548716 149.24775 
L 560.521109 149.24775 
L 558.622013 157.5 
L 550.884956 157.5 
L 561.934241 112.2 
L 571.110007 112.2 
L 582.159292 157.5 
L 574.428629 157.5 
z
M 562.439387 140.840163 
L 570.611255 140.840163 
L 566.531715 122.821132 
z
" style="fill:#008000;"/>
   </g>
   <g id="patch_35">
    <path clip-path="url(#paeecbd379c)" d="M 582.159292 104.002768 
Q 579.005224 108.101384 575.612849 110.16005 
Q 572.220473 112.2 568.603809 112.2 
Q 560.431268 112.2 555.658112 99.997728 
Q 550.884956 87.795455 550.884956 66.928073 
Q 550.884956 45.817393 555.74222 33.708697 
Q 560.606494 21.6 569.066405 21.6 
Q 572.325609 21.6 575.31146 23.246932 
Q 578.30432 24.87515 580.953737 28.094154 
L 580.953737 46.154266 
Q 578.220212 42.018219 575.514722 39.978269 
Q 572.809233 37.919603 570.089725 37.919603 
Q 565.057235 37.919603 562.330718 45.44309 
Q 559.604201 52.947862 559.604201 66.928073 
Q 559.604201 80.777277 562.232591 88.338195 
Q 564.860981 95.880397 569.697219 95.880397 
Q 571.014919 95.880397 572.143374 95.449948 
Q 573.271829 95.000785 574.168986 94.065028 
L 574.168986 77.10911 
L 569.017342 77.10911 
L 569.017342 62.00599 
L 582.159292 62.00599 
z
" style="fill:#ffa600;"/>
   </g>
   <g id="patch_36">
    <path clip-path="url(#paeecbd379c)" d="M 605.46907 151.9985 
L 593.441463 151.9985 
L 591.542367 157.5 
L 583.80531 157.5 
L 594.854595 127.3 
L 604.030361 127.3 
L 615.079646 157.5 
L 607.348983 157.5 
z
M 595.359741 146.393442 
L 603.531609 146.393442 
L 599.452069 134.380754 
z
" style="fill:#008000;"/>
   </g>
   <g id="patch_37">
    <path clip-path="url(#paeecbd379c)" d="M 583.80531 97.1 
L 615.079646 97.1 
L 615.079646 102.989841 
L 603.828158 102.989841 
L 603.828158 127.3 
L 595.078617 127.3 
L 595.078617 102.989841 
L 583.80531 102.989841 
z
" style="fill:#ff0000;"/>
   </g>
   <g id="patch_38">
    <path clip-path="url(#paeecbd379c)" d="M 615.079646 90.268973 
Q 611.925578 93.684487 608.533203 95.400041 
Q 605.140827 97.1 601.524163 97.1 
Q 593.351622 97.1 588.578466 86.93144 
Q 583.80531 76.76288 583.80531 59.373394 
Q 583.80531 41.781161 588.662574 31.69058 
Q 593.526848 21.6 601.986759 21.6 
Q 605.245963 21.6 608.231814 22.972444 
Q 611.224674 24.329291 613.874091 27.011795 
L 613.874091 42.061888 
Q 611.140566 38.615183 608.435076 36.915224 
Q 605.729587 35.199669 603.010079 35.199669 
Q 597.977589 35.199669 595.251072 41.469242 
Q 592.524555 47.723218 592.524555 59.373394 
Q 592.524555 70.914398 595.152945 77.215162 
Q 597.781335 83.500331 602.617573 83.500331 
Q 603.935272 83.500331 605.063728 83.141624 
Q 606.192183 82.767321 607.08934 81.987523 
L 607.08934 67.857591 
L 601.937696 67.857591 
L 601.937696 55.271659 
L 615.079646 55.271659 
z
" style="fill:#ffa600;"/>
   </g>
   <g id="patch_39">
    <path clip-path="url(#paeecbd379c)" d="M 616.725664 142.4 
L 648 142.4 
L 648 145.344921 
L 636.748512 145.344921 
L 636.748512 157.5 
L 627.998971 157.5 
L 627.998971 145.344921 
L 616.725664 145.344921 
z
" style="fill:#ff0000;"/>
   </g>
   <g id="patch_40">
    <path clip-path="url(#paeecbd379c)" d="M 648 140.235282 
Q 645.383956 141.308283 642.555161 141.851023 
Q 639.726366 142.4 636.645422 142.4 
Q 627.457749 142.4 622.091706 138.332576 
Q 616.725664 134.265152 616.725664 127.309358 
Q 616.725664 120.32861 622.091706 116.267424 
Q 627.457749 112.2 636.645422 112.2 
Q 639.726366 112.2 642.555161 112.748977 
Q 645.383956 113.291717 648 114.364718 
L 648 120.384755 
Q 645.360317 118.962404 642.79943 118.301136 
Q 640.238543 117.639868 637.409749 117.639868 
Q 632.335253 117.639868 629.427662 120.216319 
Q 626.52795 122.786532 626.52795 127.309358 
Q 626.52795 131.813468 629.427662 134.389919 
Q 632.335253 136.960132 637.409749 136.960132 
Q 640.238543 136.960132 642.79943 136.298864 
Q 645.360317 135.631357 648 134.209006 
z
" style="fill:#0000ff;"/>
   </g>
   <g id="patch_41">
    <path clip-path="url(#paeecbd379c)" d="M 648 109.467589 
Q 644.845932 110.833795 641.453557 111.520017 
Q 638.061181 112.2 634.444517 112.2 
Q 626.271976 112.2 621.49882 108.132576 
Q 616.725664 104.065152 616.725664 97.109358 
Q 616.725664 90.072464 621.582928 86.036232 
Q 626.447202 82 634.907113 82 
Q 638.166317 82 641.152168 82.548977 
Q 644.145028 83.091717 646.794445 84.164718 
L 646.794445 90.184755 
Q 644.06092 88.806073 641.35543 88.12609 
Q 638.649941 87.439868 635.930433 87.439868 
Q 630.897943 87.439868 628.171426 89.947697 
Q 625.444909 92.449287 625.444909 97.109358 
Q 625.444909 101.725759 628.073299 104.246065 
Q 630.701689 106.760132 635.537927 106.760132 
Q 636.855626 106.760132 637.984082 106.616649 
Q 639.112537 106.466928 640.009694 106.155009 
L 640.009694 100.503037 
L 634.85805 100.503037 
L 634.85805 95.468663 
L 648 95.468663 
z
" style="fill:#ffa600;"/>
   </g>
   <g id="patch_42">
    <path clip-path="url(#paeecbd379c)" d="M 638.389424 70.997 
L 626.361817 70.997 
L 624.462721 82 
L 616.725664 82 
L 627.774949 21.6 
L 636.950715 21.6 
L 648 82 
L 640.269337 82 
z
M 628.280095 59.786884 
L 636.451963 59.786884 
L 632.372423 35.761509 
z
" style="fill:#008000;"/>
   </g>
  </g>
 </g>
 <defs>
  <clipPath id="paeecbd379c">
   <rect height="135.9" width="558" x="90" y="21.6"/>
  </clipPath>
 </defs>
</svg>
