<?xml version="1.0" encoding="utf-8" standalone="no"?>
<!DOCTYPE svg PUBLIC "-//W3C//DTD SVG 1.1//EN"
  "http://www.w3.org/Graphics/SVG/1.1/DTD/svg11.dtd">
<!-- Created with matplotlib (https://matplotlib.org/) -->
<svg height="180pt" version="1.1" viewBox="0 0 720 180" width="720pt" xmlns="http://www.w3.org/2000/svg" xmlns:xlink="http://www.w3.org/1999/xlink">
 <metadata>
  <rdf:RDF xmlns:cc="http://creativecommons.org/ns#" xmlns:dc="http://purl.org/dc/elements/1.1/" xmlns:rdf="http://www.w3.org/1999/02/22-rdf-syntax-ns#">
   <cc:Work>
    <dc:type rdf:resource="http://purl.org/dc/dcmitype/StillImage"/>
    <dc:date>2021-08-04T23:32:59.308476</dc:date>
    <dc:format>image/svg+xml</dc:format>
    <dc:creator>
     <cc:Agent>
      <dc:title>Matplotlib v3.3.2, https://matplotlib.org/</dc:title>
     </cc:Agent>
    </dc:creator>
   </cc:Work>
  </rdf:RDF>
 </metadata>
 <defs>
  <style type="text/css">*{stroke-linecap:butt;stroke-linejoin:round;}</style>
 </defs>
 <g id="figure_1">
  <g id="patch_1">
   <path d="M 0 180 
L 720 180 
L 720 0 
L 0 0 
z
" style="fill:none;"/>
  </g>
  <g id="axes_1">
   <g id="line2d_1">
    <path clip-path="url(#p5dfe724514)" d="M 90 157.5 
L 648 157.5 
" style="fill:none;stroke:#000000;stroke-linecap:square;stroke-width:0.5;"/>
   </g>
   <g id="patch_2">
    <path clip-path="url(#p5dfe724514)" d="M 121.274336 153.401384 
Q 118.120268 155.450692 114.727893 156.480025 
Q 111.335518 157.5 107.718853 157.5 
Q 99.546312 157.5 94.773156 151.398864 
Q 90 145.297728 90 134.864036 
Q 90 124.308697 94.857265 118.254348 
Q 99.721538 112.2 108.18145 112.2 
Q 111.440653 112.2 114.426504 113.023466 
Q 117.419364 113.837575 120.068781 115.447077 
L 120.068781 124.477133 
Q 117.335256 122.40911 114.629766 121.389134 
Q 111.924277 120.359802 109.204769 120.359802 
Q 104.172279 120.359802 101.445762 124.121545 
Q 98.719246 127.873931 98.719246 134.864036 
Q 98.719246 141.788639 101.347636 145.569097 
Q 103.976026 149.340198 108.812263 149.340198 
Q 110.129963 149.340198 111.258418 149.124974 
Q 112.386874 148.900392 113.284031 148.432514 
L 113.284031 139.954555 
L 108.132386 139.954555 
L 108.132386 132.402995 
L 121.274336 132.402995 
z
" style="fill:#ffa600;"/>
   </g>
   <g id="patch_3">
    <path clip-path="url(#p5dfe724514)" d="M 111.66376 95.695499 
L 99.636153 95.695499 
L 97.737057 112.2 
L 90 112.2 
L 101.049285 21.6 
L 110.225051 21.6 
L 121.274336 112.2 
L 113.543673 112.2 
z
M 101.554432 78.880326 
L 109.726299 78.880326 
L 105.64676 42.842263 
z
" style="fill:#008000;"/>
   </g>
   <g id="patch_4">
    <path clip-path="url(#p5dfe724514)" d="M 144.584114 154.74925 
L 132.556507 154.74925 
L 130.657411 157.5 
L 122.920354 157.5 
L 133.969639 142.4 
L 143.145405 142.4 
L 154.19469 157.5 
L 146.464027 157.5 
z
M 134.474786 151.946721 
L 142.646653 151.946721 
L 138.567114 145.940377 
z
" style="fill:#008000;"/>
   </g>
   <g id="patch_5">
    <path clip-path="url(#p5dfe724514)" d="M 154.19469 140.235282 
Q 151.578646 141.308283 148.749851 141.851023 
Q 145.921056 142.4 142.840113 142.4 
Q 133.652439 142.4 128.286397 138.332576 
Q 122.920354 134.265152 122.920354 127.309358 
Q 122.920354 120.32861 128.286397 116.267424 
Q 133.652439 112.2 142.840113 112.2 
Q 145.921056 112.2 148.749851 112.748977 
Q 151.578646 113.291717 154.19469 114.364718 
L 154.19469 120.384755 
Q 151.555007 118.962404 148.99412 118.301136 
Q 146.433234 117.639868 143.604439 117.639868 
Q 138.529943 117.639868 135.622352 120.216319 
Q 132.72264 122.786532 132.72264 127.309358 
Q 132.72264 131.813468 135.622352 134.389919 
Q 138.529943 136.960132 143.604439 136.960132 
Q 146.433234 136.960132 148.99412 136.298864 
Q 151.555007 135.631357 154.19469 134.209006 
z
" style="fill:#0000ff;"/>
   </g>
   <g id="patch_6">
    <path clip-path="url(#p5dfe724514)" d="M 154.19469 108.101384 
Q 151.040622 110.150692 147.648247 111.180025 
Q 144.255872 112.2 140.639207 112.2 
Q 132.466666 112.2 127.69351 106.098864 
Q 122.920354 99.997728 122.920354 89.564036 
Q 122.920354 79.008697 127.777619 72.954348 
Q 132.641892 66.9 141.101804 66.9 
Q 144.361007 66.9 147.346858 67.723466 
Q 150.339718 68.537575 152.989135 70.147077 
L 152.989135 79.177133 
Q 150.25561 77.10911 147.55012 76.089134 
Q 144.844631 75.059802 142.125123 75.059802 
Q 137.092633 75.059802 134.366116 78.821545 
Q 131.6396 82.573931 131.6396 89.564036 
Q 131.6396 96.488639 134.26799 100.269097 
Q 136.89638 104.040198 141.732617 104.040198 
Q 143.050317 104.040198 144.178772 103.824974 
Q 145.307228 103.600392 146.204385 103.132514 
L 146.204385 94.654555 
L 141.05274 94.654555 
L 141.05274 87.102995 
L 154.19469 87.102995 
z
" style="fill:#ffa600;"/>
   </g>
   <g id="patch_7">
    <path clip-path="url(#p5dfe724514)" d="M 122.920354 21.6 
L 154.19469 21.6 
L 154.19469 30.434762 
L 142.943202 30.434762 
L 142.943202 66.9 
L 134.193661 66.9 
L 134.193661 30.434762 
L 122.920354 30.434762 
z
" style="fill:#ff0000;"/>
   </g>
   <g id="patch_8">
    <path clip-path="url(#p5dfe724514)" d="M 187.115044 147.758769 
Q 184.499 152.587275 181.670205 155.029601 
Q 178.84141 157.5 175.760467 157.5 
Q 166.572793 157.5 161.206751 139.196592 
Q 155.840708 120.893183 155.840708 89.592109 
Q 155.840708 58.178744 161.206751 39.903408 
Q 166.572793 21.6 175.760467 21.6 
Q 178.84141 21.6 181.670205 24.070399 
Q 184.499 26.512725 187.115044 31.341231 
L 187.115044 58.431398 
Q 184.475361 52.03082 181.914474 49.055113 
Q 179.353588 46.079405 176.524793 46.079405 
Q 171.450297 46.079405 168.542706 57.673435 
Q 165.642994 69.239393 165.642994 89.592109 
Q 165.642994 109.860607 168.542706 121.454637 
Q 171.450297 133.020595 176.524793 133.020595 
Q 179.353588 133.020595 181.914474 130.044887 
Q 184.475361 127.041107 187.115044 120.640529 
z
" style="fill:#0000ff;"/>
   </g>
   <g id="patch_9">
    <path clip-path="url(#p5dfe724514)" d="M 210.424822 132.743249 
L 198.397215 132.743249 
L 196.498119 157.5 
L 188.761062 157.5 
L 199.810347 21.6 
L 208.986113 21.6 
L 220.035398 157.5 
L 212.304735 157.5 
z
M 200.315494 107.520489 
L 208.487361 107.520489 
L 204.407821 53.463395 
z
" style="fill:#008000;"/>
   </g>
   <g id="patch_10">
    <path clip-path="url(#p5dfe724514)" d="M 221.681416 127.3 
L 252.955752 127.3 
L 252.955752 133.189841 
L 241.704264 133.189841 
L 241.704264 157.5 
L 232.954723 157.5 
L 232.954723 133.189841 
L 221.681416 133.189841 
z
" style="fill:#ff0000;"/>
   </g>
   <g id="patch_11">
    <path clip-path="url(#p5dfe724514)" d="M 243.345176 108.044749 
L 231.317569 108.044749 
L 229.418473 127.3 
L 221.681416 127.3 
L 232.730701 21.6 
L 241.906467 21.6 
L 252.955752 127.3 
L 245.225089 127.3 
z
M 233.235848 88.427047 
L 241.407715 88.427047 
L 237.328175 46.38264 
z
" style="fill:#008000;"/>
   </g>
   <g id="patch_12">
    <path clip-path="url(#p5dfe724514)" d="M 285.876106 153.401384 
Q 282.722038 155.450692 279.329663 156.480025 
Q 275.937288 157.5 272.320623 157.5 
Q 264.148082 157.5 259.374926 151.398864 
Q 254.60177 145.297728 254.60177 134.864036 
Q 254.60177 124.308697 259.459035 118.254348 
Q 264.323308 112.2 272.78322 112.2 
Q 276.042423 112.2 279.028274 113.023466 
Q 282.021134 113.837575 284.670551 115.447077 
L 284.670551 124.477133 
Q 281.937026 122.40911 279.231536 121.389134 
Q 276.526047 120.359802 273.806539 120.359802 
Q 268.774049 120.359802 266.047532 124.121545 
Q 263.321016 127.873931 263.321016 134.864036 
Q 263.321016 141.788639 265.949406 145.569097 
Q 268.577796 149.340198 273.414033 149.340198 
Q 274.731733 149.340198 275.860188 149.124974 
Q 276.988644 148.900392 277.885801 148.432514 
L 277.885801 139.954555 
L 272.734156 139.954555 
L 272.734156 132.402995 
L 285.876106 132.402995 
z
" style="fill:#ffa600;"/>
   </g>
   <g id="patch_13">
    <path clip-path="url(#p5dfe724514)" d="M 276.26553 95.695499 
L 264.237923 95.695499 
L 262.338827 112.2 
L 254.60177 112.2 
L 265.651055 21.6 
L 274.826821 21.6 
L 285.876106 112.2 
L 278.145443 112.2 
z
M 266.156202 78.880326 
L 274.328069 78.880326 
L 270.248529 42.842263 
z
" style="fill:#008000;"/>
   </g>
   <g id="patch_14">
    <path clip-path="url(#p5dfe724514)" d="M 318.79646 154.767589 
Q 315.642392 156.133795 312.250017 156.820017 
Q 308.857642 157.5 305.240977 157.5 
Q 297.068436 157.5 292.29528 153.432576 
Q 287.522124 149.365152 287.522124 142.409358 
Q 287.522124 135.372464 292.379389 131.336232 
Q 297.243662 127.3 305.703574 127.3 
Q 308.962777 127.3 311.948628 127.848977 
Q 314.941488 128.391717 317.590905 129.464718 
L 317.590905 135.484755 
Q 314.85738 134.106073 312.15189 133.42609 
Q 309.446401 132.739868 306.726893 132.739868 
Q 301.694403 132.739868 298.967886 135.247697 
Q 296.24137 137.749287 296.24137 142.409358 
Q 296.24137 147.025759 298.86976 149.546065 
Q 301.49815 152.060132 306.334387 152.060132 
Q 307.652087 152.060132 308.780542 151.916649 
Q 309.908998 151.766928 310.806155 151.455009 
L 310.806155 145.803037 
L 305.65451 145.803037 
L 305.65451 140.768663 
L 318.79646 140.768663 
z
" style="fill:#ffa600;"/>
   </g>
   <g id="patch_15">
    <path clip-path="url(#p5dfe724514)" d="M 309.185884 108.044749 
L 297.158277 108.044749 
L 295.259181 127.3 
L 287.522124 127.3 
L 298.571409 21.6 
L 307.747175 21.6 
L 318.79646 127.3 
L 311.065797 127.3 
z
M 299.076556 88.427047 
L 307.248423 88.427047 
L 303.168883 46.38264 
z
" style="fill:#008000;"/>
   </g>
   <g id="patch_16">
    <path clip-path="url(#p5dfe724514)" d="M 342.106238 151.9985 
L 330.078631 151.9985 
L 328.179535 157.5 
L 320.442478 157.5 
L 331.491763 127.3 
L 340.667529 127.3 
L 351.716814 157.5 
L 343.986151 157.5 
z
M 331.99691 146.393442 
L 340.168777 146.393442 
L 336.089237 134.380754 
z
" style="fill:#008000;"/>
   </g>
   <g id="patch_17">
    <path clip-path="url(#p5dfe724514)" d="M 320.442478 21.6 
L 351.716814 21.6 
L 351.716814 42.214445 
L 340.465326 42.214445 
L 340.465326 127.3 
L 331.715785 127.3 
L 331.715785 42.214445 
L 320.442478 42.214445 
z
" style="fill:#ff0000;"/>
   </g>
   <g id="patch_18">
    <path clip-path="url(#p5dfe724514)" d="M 384.637168 145.204152 
Q 381.4831 151.352076 378.090725 154.440074 
Q 374.698349 157.5 371.081685 157.5 
Q 362.909144 157.5 358.135988 139.196592 
Q 353.362832 120.893183 353.362832 89.592109 
Q 353.362832 57.92609 358.220097 39.763045 
Q 363.08437 21.6 371.544282 21.6 
Q 374.803485 21.6 377.789336 24.070399 
Q 380.782196 26.512725 383.431613 31.341231 
L 383.431613 58.431398 
Q 380.698088 52.227329 377.992598 49.167403 
Q 375.287109 46.079405 372.567601 46.079405 
Q 367.535111 46.079405 364.808594 57.364635 
Q 362.082078 68.621793 362.082078 89.592109 
Q 362.082078 110.365916 364.710468 121.707292 
Q 367.338858 133.020595 372.175095 133.020595 
Q 373.492795 133.020595 374.62125 132.374923 
Q 375.749705 131.701177 376.646863 130.297542 
L 376.646863 104.863665 
L 371.495218 104.863665 
L 371.495218 82.208986 
L 384.637168 82.208986 
z
" style="fill:#ffa600;"/>
   </g>
   <g id="patch_19">
    <path clip-path="url(#p5dfe724514)" d="M 386.283186 142.4 
L 417.557522 142.4 
L 417.557522 145.344921 
L 406.306034 145.344921 
L 406.306034 157.5 
L 397.556493 157.5 
L 397.556493 145.344921 
L 386.283186 145.344921 
z
" style="fill:#ff0000;"/>
   </g>
   <g id="patch_20">
    <path clip-path="url(#p5dfe724514)" d="M 407.946946 134.14775 
L 395.919339 134.14775 
L 394.020243 142.4 
L 386.283186 142.4 
L 397.332471 97.1 
L 406.508237 97.1 
L 417.557522 142.4 
L 409.826859 142.4 
z
M 397.837618 125.740163 
L 406.009485 125.740163 
L 401.929945 107.721132 
z
" style="fill:#008000;"/>
   </g>
   <g id="patch_21">
    <path clip-path="url(#p5dfe724514)" d="M 417.557522 90.268973 
Q 414.403454 93.684487 411.011079 95.400041 
Q 407.618703 97.1 404.002039 97.1 
Q 395.829498 97.1 391.056342 86.93144 
Q 386.283186 76.76288 386.283186 59.373394 
Q 386.283186 41.781161 391.140451 31.69058 
Q 396.004724 21.6 404.464635 21.6 
Q 407.723839 21.6 410.70969 22.972444 
Q 413.70255 24.329291 416.351967 27.011795 
L 416.351967 42.061888 
Q 413.618442 38.615183 410.912952 36.915224 
Q 408.207463 35.199669 405.487955 35.199669 
Q 400.455465 35.199669 397.728948 41.469242 
Q 395.002432 47.723218 395.002432 59.373394 
Q 395.002432 70.914398 397.630822 77.215162 
Q 400.259212 83.500331 405.095449 83.500331 
Q 406.413149 83.500331 407.541604 83.141624 
Q 408.670059 82.767321 409.567217 81.987523 
L 409.567217 67.857591 
L 404.415572 67.857591 
L 404.415572 55.271659 
L 417.557522 55.271659 
z
" style="fill:#ffa600;"/>
   </g>
   <g id="patch_22">
    <path clip-path="url(#p5dfe724514)" d="M 440.8673 149.24775 
L 428.839693 149.24775 
L 426.940597 157.5 
L 419.20354 157.5 
L 430.252825 112.2 
L 439.428591 112.2 
L 450.477876 157.5 
L 442.747213 157.5 
z
M 430.757972 140.840163 
L 438.929839 140.840163 
L 434.850299 122.821132 
z
" style="fill:#008000;"/>
   </g>
   <g id="patch_23">
    <path clip-path="url(#p5dfe724514)" d="M 450.477876 108.952923 
Q 447.861832 110.562425 445.033037 111.376534 
Q 442.204242 112.2 439.123298 112.2 
Q 429.935625 112.2 424.569582 106.098864 
Q 419.20354 99.997728 419.20354 89.564036 
Q 419.20354 79.092915 424.569582 73.001136 
Q 429.935625 66.9 439.123298 66.9 
Q 442.204242 66.9 445.033037 67.723466 
Q 447.861832 68.537575 450.477876 70.147077 
L 450.477876 79.177133 
Q 447.838193 77.043607 445.277306 76.051704 
Q 442.71642 75.059802 439.887625 75.059802 
Q 434.813129 75.059802 431.905538 78.924478 
Q 429.005826 82.779798 429.005826 89.564036 
Q 429.005826 96.320202 431.905538 100.184879 
Q 434.813129 104.040198 439.887625 104.040198 
Q 442.71642 104.040198 445.277306 103.048296 
Q 447.838193 102.047036 450.477876 99.91351 
z
" style="fill:#0000ff;"/>
   </g>
   <g id="patch_24">
    <path clip-path="url(#p5dfe724514)" d="M 419.20354 21.6 
L 450.477876 21.6 
L 450.477876 30.434762 
L 439.226388 30.434762 
L 439.226388 66.9 
L 430.476847 66.9 
L 430.476847 30.434762 
L 419.20354 30.434762 
z
" style="fill:#ff0000;"/>
   </g>
   <g id="patch_25">
    <path clip-path="url(#p5dfe724514)" d="M 483.39823 155.335282 
Q 480.782186 156.408283 477.953391 156.951023 
Q 475.124596 157.5 472.043652 157.5 
Q 462.855979 157.5 457.489936 153.432576 
Q 452.123894 149.365152 452.123894 142.409358 
Q 452.123894 135.42861 457.489936 131.367424 
Q 462.855979 127.3 472.043652 127.3 
Q 475.124596 127.3 477.953391 127.848977 
Q 480.782186 128.391717 483.39823 129.464718 
L 483.39823 135.484755 
Q 480.758547 134.062404 478.19766 133.401136 
Q 475.636773 132.739868 472.807979 132.739868 
Q 467.733483 132.739868 464.825892 135.316319 
Q 461.92618 137.886532 461.92618 142.409358 
Q 461.92618 146.913468 464.825892 149.489919 
Q 467.733483 152.060132 472.807979 152.060132 
Q 475.636773 152.060132 478.19766 151.398864 
Q 480.758547 150.731357 483.39823 149.309006 
z
" style="fill:#0000ff;"/>
   </g>
   <g id="patch_26">
    <path clip-path="url(#p5dfe724514)" d="M 452.123894 97.1 
L 483.39823 97.1 
L 483.39823 102.989841 
L 472.146742 102.989841 
L 472.146742 127.3 
L 463.397201 127.3 
L 463.397201 102.989841 
L 452.123894 102.989841 
z
" style="fill:#ff0000;"/>
   </g>
   <g id="patch_27">
    <path clip-path="url(#p5dfe724514)" d="M 483.39823 90.268973 
Q 480.244162 93.684487 476.851787 95.400041 
Q 473.459411 97.1 469.842747 97.1 
Q 461.670206 97.1 456.89705 86.93144 
Q 452.123894 76.76288 452.123894 59.373394 
Q 452.123894 41.781161 456.981158 31.69058 
Q 461.845432 21.6 470.305343 21.6 
Q 473.564547 21.6 476.550398 22.972444 
Q 479.543258 24.329291 482.192675 27.011795 
L 482.192675 42.061888 
Q 479.45915 38.615183 476.75366 36.915224 
Q 474.048171 35.199669 471.328663 35.199669 
Q 466.296173 35.199669 463.569656 41.469242 
Q 460.84314 47.723218 460.84314 59.373394 
Q 460.84314 70.914398 463.471529 77.215162 
Q 466.099919 83.500331 470.936157 83.500331 
Q 472.253857 83.500331 473.382312 83.141624 
Q 474.510767 82.767321 475.407925 81.987523 
L 475.407925 67.857591 
L 470.25628 67.857591 
L 470.25628 55.271659 
L 483.39823 55.271659 
z
" style="fill:#ffa600;"/>
   </g>
   <g id="patch_28">
    <path clip-path="url(#p5dfe724514)" d="M 506.708008 151.9985 
L 494.680401 151.9985 
L 492.781305 157.5 
L 485.044248 157.5 
L 496.093533 127.3 
L 505.269299 127.3 
L 516.318584 157.5 
L 508.587921 157.5 
z
M 496.59868 146.393442 
L 504.770547 146.393442 
L 500.691007 134.380754 
z
" style="fill:#008000;"/>
   </g>
   <g id="patch_29">
    <path clip-path="url(#p5dfe724514)" d="M 516.318584 124.567589 
Q 513.164516 125.933795 509.772141 126.620017 
Q 506.379765 127.3 502.763101 127.3 
Q 494.59056 127.3 489.817404 123.232576 
Q 485.044248 119.165152 485.044248 112.209358 
Q 485.044248 105.172464 489.901512 101.136232 
Q 494.765786 97.1 503.225697 97.1 
Q 506.484901 97.1 509.470752 97.648977 
Q 512.463612 98.191717 515.113029 99.264718 
L 515.113029 105.284755 
Q 512.379504 103.906073 509.674014 103.22609 
Q 506.968525 102.539868 504.249017 102.539868 
Q 499.216527 102.539868 496.49001 105.047697 
Q 493.763493 107.549287 493.763493 112.209358 
Q 493.763493 116.825759 496.391883 119.346065 
Q 499.020273 121.860132 503.856511 121.860132 
Q 505.174211 121.860132 506.302666 121.716649 
Q 507.431121 121.566928 508.328279 121.255009 
L 508.328279 115.603037 
L 503.176634 115.603037 
L 503.176634 110.568663 
L 516.318584 110.568663 
z
" style="fill:#ffa600;"/>
   </g>
   <g id="patch_30">
    <path clip-path="url(#p5dfe724514)" d="M 485.044248 66.9 
L 516.318584 66.9 
L 516.318584 72.789841 
L 505.067096 72.789841 
L 505.067096 97.1 
L 496.317555 97.1 
L 496.317555 72.789841 
L 485.044248 72.789841 
z
" style="fill:#ff0000;"/>
   </g>
   <g id="patch_31">
    <path clip-path="url(#p5dfe724514)" d="M 516.318584 63.652923 
Q 513.70254 65.262425 510.873745 66.076534 
Q 508.04495 66.9 504.964006 66.9 
Q 495.776333 66.9 490.41029 60.798864 
Q 485.044248 54.697728 485.044248 44.264036 
Q 485.044248 33.792915 490.41029 27.701136 
Q 495.776333 21.6 504.964006 21.6 
Q 508.04495 21.6 510.873745 22.423466 
Q 513.70254 23.237575 516.318584 24.847077 
L 516.318584 33.877133 
Q 513.678901 31.743607 511.118014 30.751704 
Q 508.557127 29.759802 505.728333 29.759802 
Q 500.653837 29.759802 497.746246 33.624478 
Q 494.846534 37.479798 494.846534 44.264036 
Q 494.846534 51.020202 497.746246 54.884879 
Q 500.653837 58.740198 505.728333 58.740198 
Q 508.557127 58.740198 511.118014 57.748296 
Q 513.678901 56.747036 516.318584 54.61351 
z
" style="fill:#0000ff;"/>
   </g>
   <g id="patch_32">
    <path clip-path="url(#p5dfe724514)" d="M 549.238938 155.335282 
Q 546.622894 156.408283 543.794099 156.951023 
Q 540.965304 157.5 537.88436 157.5 
Q 528.696687 157.5 523.330644 153.432576 
Q 517.964602 149.365152 517.964602 142.409358 
Q 517.964602 135.42861 523.330644 131.367424 
Q 528.696687 127.3 537.88436 127.3 
Q 540.965304 127.3 543.794099 127.848977 
Q 546.622894 128.391717 549.238938 129.464718 
L 549.238938 135.484755 
Q 546.599255 134.062404 544.038368 133.401136 
Q 541.477481 132.739868 538.648687 132.739868 
Q 533.574191 132.739868 530.6666 135.316319 
Q 527.766888 137.886532 527.766888 142.409358 
Q 527.766888 146.913468 530.6666 149.489919 
Q 533.574191 152.060132 538.648687 152.060132 
Q 541.477481 152.060132 544.038368 151.398864 
Q 546.599255 150.731357 549.238938 149.309006 
z
" style="fill:#0000ff;"/>
   </g>
   <g id="patch_33">
    <path clip-path="url(#p5dfe724514)" d="M 549.238938 123.201384 
Q 546.08487 125.250692 542.692495 126.280025 
Q 539.300119 127.3 535.683455 127.3 
Q 527.510914 127.3 522.737758 121.198864 
Q 517.964602 115.097728 517.964602 104.664036 
Q 517.964602 94.108697 522.821866 88.054348 
Q 527.68614 82 536.146051 82 
Q 539.405255 82 542.391106 82.823466 
Q 545.383966 83.637575 548.033383 85.247077 
L 548.033383 94.277133 
Q 545.299858 92.20911 542.594368 91.189134 
Q 539.888879 90.159802 537.169371 90.159802 
Q 532.136881 90.159802 529.410364 93.921545 
Q 526.683847 97.673931 526.683847 104.664036 
Q 526.683847 111.588639 529.312237 115.369097 
Q 531.940627 119.140198 536.776865 119.140198 
Q 538.094565 119.140198 539.22302 118.924974 
Q 540.351475 118.700392 541.248633 118.232514 
L 541.248633 109.754555 
L 536.096988 109.754555 
L 536.096988 102.202995 
L 549.238938 102.202995 
z
" style="fill:#ffa600;"/>
   </g>
   <g id="patch_34">
    <path clip-path="url(#p5dfe724514)" d="M 539.628362 70.997 
L 527.600755 70.997 
L 525.701659 82 
L 517.964602 82 
L 529.013887 21.6 
L 538.189653 21.6 
L 549.238938 82 
L 541.508275 82 
z
M 529.519034 59.786884 
L 537.690901 59.786884 
L 533.611361 35.761509 
z
" style="fill:#008000;"/>
   </g>
   <g id="patch_35">
    <path clip-path="url(#p5dfe724514)" d="M 550.884956 142.4 
L 582.159292 142.4 
L 582.159292 145.344921 
L 570.907804 145.344921 
L 570.907804 157.5 
L 562.158263 157.5 
L 562.158263 145.344921 
L 550.884956 145.344921 
z
" style="fill:#ff0000;"/>
   </g>
   <g id="patch_36">
    <path clip-path="url(#p5dfe724514)" d="M 582.159292 139.667589 
Q 579.005224 141.033795 575.612849 141.720017 
Q 572.220473 142.4 568.603809 142.4 
Q 560.431268 142.4 555.658112 138.332576 
Q 550.884956 134.265152 550.884956 127.309358 
Q 550.884956 120.272464 555.74222 116.236232 
Q 560.606494 112.2 569.066405 112.2 
Q 572.325609 112.2 575.31146 112.748977 
Q 578.30432 113.291717 580.953737 114.364718 
L 580.953737 120.384755 
Q 578.220212 119.006073 575.514722 118.32609 
Q 572.809233 117.639868 570.089725 117.639868 
Q 565.057235 117.639868 562.330718 120.147697 
Q 559.604201 122.649287 559.604201 127.309358 
Q 559.604201 131.925759 562.232591 134.446065 
Q 564.860981 136.960132 569.697219 136.960132 
Q 571.014919 136.960132 572.143374 136.816649 
Q 573.271829 136.666928 574.168986 136.355009 
L 574.168986 130.703037 
L 569.017342 130.703037 
L 569.017342 125.668663 
L 582.159292 125.668663 
z
" style="fill:#ffa600;"/>
   </g>
   <g id="patch_37">
    <path clip-path="url(#p5dfe724514)" d="M 582.159292 105.705846 
Q 579.543248 108.92485 576.714453 110.553068 
Q 573.885658 112.2 570.804714 112.2 
Q 561.617041 112.2 556.250998 99.997728 
Q 550.884956 87.795455 550.884956 66.928073 
Q 550.884956 45.985829 556.250998 33.802272 
Q 561.617041 21.6 570.804714 21.6 
Q 573.885658 21.6 576.714453 23.246932 
Q 579.543248 24.87515 582.159292 28.094154 
L 582.159292 46.154266 
Q 579.519609 41.887213 576.958722 39.903408 
Q 574.397835 37.919603 571.569041 37.919603 
Q 566.494545 37.919603 563.586954 45.648957 
Q 560.687242 53.359595 560.687242 66.928073 
Q 560.687242 80.440405 563.586954 88.169758 
Q 566.494545 95.880397 571.569041 95.880397 
Q 574.397835 95.880397 576.958722 93.896592 
Q 579.519609 91.894071 582.159292 87.627019 
z
" style="fill:#0000ff;"/>
   </g>
   <g id="patch_38">
    <path clip-path="url(#p5dfe724514)" d="M 605.46907 151.9985 
L 593.441463 151.9985 
L 591.542367 157.5 
L 583.80531 157.5 
L 594.854595 127.3 
L 604.030361 127.3 
L 615.079646 157.5 
L 607.348983 157.5 
z
M 595.359741 146.393442 
L 603.531609 146.393442 
L 599.452069 134.380754 
z
" style="fill:#008000;"/>
   </g>
   <g id="patch_39">
    <path clip-path="url(#p5dfe724514)" d="M 615.079646 124.567589 
Q 611.925578 125.933795 608.533203 126.620017 
Q 605.140827 127.3 601.524163 127.3 
Q 593.351622 127.3 588.578466 123.232576 
Q 583.80531 119.165152 583.80531 112.209358 
Q 583.80531 105.172464 588.662574 101.136232 
Q 593.526848 97.1 601.986759 97.1 
Q 605.245963 97.1 608.231814 97.648977 
Q 611.224674 98.191717 613.874091 99.264718 
L 613.874091 105.284755 
Q 611.140566 103.906073 608.435076 103.22609 
Q 605.729587 102.539868 603.010079 102.539868 
Q 597.977589 102.539868 595.251072 105.047697 
Q 592.524555 107.549287 592.524555 112.209358 
Q 592.524555 116.825759 595.152945 119.346065 
Q 597.781335 121.860132 602.617573 121.860132 
Q 603.935272 121.860132 605.063728 121.716649 
Q 606.192183 121.566928 607.08934 121.255009 
L 607.08934 115.603037 
L 601.937696 115.603037 
L 601.937696 110.568663 
L 615.079646 110.568663 
z
" style="fill:#ffa600;"/>
   </g>
   <g id="patch_40">
    <path clip-path="url(#p5dfe724514)" d="M 583.80531 66.9 
L 615.079646 66.9 
L 615.079646 72.789841 
L 603.828158 72.789841 
L 603.828158 97.1 
L 595.078617 97.1 
L 595.078617 72.789841 
L 583.80531 72.789841 
z
" style="fill:#ff0000;"/>
   </g>
   <g id="patch_41">
    <path clip-path="url(#p5dfe724514)" d="M 615.079646 63.652923 
Q 612.463602 65.262425 609.634807 66.076534 
Q 606.806012 66.9 603.725068 66.9 
Q 594.537395 66.9 589.171352 60.798864 
Q 583.80531 54.697728 583.80531 44.264036 
Q 583.80531 33.792915 589.171352 27.701136 
Q 594.537395 21.6 603.725068 21.6 
Q 606.806012 21.6 609.634807 22.423466 
Q 612.463602 23.237575 615.079646 24.847077 
L 615.079646 33.877133 
Q 612.439963 31.743607 609.879076 30.751704 
Q 607.318189 29.759802 604.489395 29.759802 
Q 599.414899 29.759802 596.507308 33.624478 
Q 593.607596 37.479798 593.607596 44.264036 
Q 593.607596 51.020202 596.507308 54.884879 
Q 599.414899 58.740198 604.489395 58.740198 
Q 607.318189 58.740198 609.879076 57.748296 
Q 612.439963 56.747036 615.079646 54.61351 
z
" style="fill:#0000ff;"/>
   </g>
   <g id="patch_42">
    <path clip-path="url(#p5dfe724514)" d="M 638.389424 151.9985 
L 626.361817 151.9985 
L 624.462721 157.5 
L 616.725664 157.5 
L 627.774949 127.3 
L 636.950715 127.3 
L 648 157.5 
L 640.269337 157.5 
z
M 628.280095 146.393442 
L 636.451963 146.393442 
L 632.372423 134.380754 
z
" style="fill:#008000;"/>
   </g>
   <g id="patch_43">
    <path clip-path="url(#p5dfe724514)" d="M 616.725664 82 
L 648 82 
L 648 90.834762 
L 636.748512 90.834762 
L 636.748512 127.3 
L 627.998971 127.3 
L 627.998971 90.834762 
L 616.725664 90.834762 
z
" style="fill:#ff0000;"/>
   </g>
   <g id="patch_44">
    <path clip-path="url(#p5dfe724514)" d="M 648 76.535179 
Q 644.845932 79.267589 641.453557 80.640033 
Q 638.061181 82 634.444517 82 
Q 626.271976 82 621.49882 73.865152 
Q 616.725664 65.730304 616.725664 51.818715 
Q 616.725664 37.744929 621.582928 29.672464 
Q 626.447202 21.6 634.907113 21.6 
Q 638.166317 21.6 641.152168 22.697955 
Q 644.145028 23.783433 646.794445 25.929436 
L 646.794445 37.96951 
Q 644.06092 35.212146 641.35543 33.852179 
Q 638.649941 32.479736 635.930433 32.479736 
Q 630.897943 32.479736 628.171426 37.495394 
Q 625.444909 42.498575 625.444909 51.818715 
Q 625.444909 61.051518 628.073299 66.09213 
Q 630.701689 71.120264 635.537927 71.120264 
Q 636.855626 71.120264 637.984082 70.833299 
Q 639.112537 70.533857 640.009694 69.910019 
L 640.009694 58.606073 
L 634.85805 58.606073 
L 634.85805 48.537327 
L 648 48.537327 
z
" style="fill:#ffa600;"/>
   </g>
  </g>
 </g>
 <defs>
  <clipPath id="p5dfe724514">
   <rect height="135.9" width="558" x="90" y="21.6"/>
  </clipPath>
 </defs>
</svg>
