<?xml version="1.0" encoding="utf-8" standalone="no"?>
<!DOCTYPE svg PUBLIC "-//W3C//DTD SVG 1.1//EN"
  "http://www.w3.org/Graphics/SVG/1.1/DTD/svg11.dtd">
<!-- Created with matplotlib (https://matplotlib.org/) -->
<svg height="180pt" version="1.1" viewBox="0 0 720 180" width="720pt" xmlns="http://www.w3.org/2000/svg" xmlns:xlink="http://www.w3.org/1999/xlink">
 <metadata>
  <rdf:RDF xmlns:cc="http://creativecommons.org/ns#" xmlns:dc="http://purl.org/dc/elements/1.1/" xmlns:rdf="http://www.w3.org/1999/02/22-rdf-syntax-ns#">
   <cc:Work>
    <dc:type rdf:resource="http://purl.org/dc/dcmitype/StillImage"/>
    <dc:date>2021-08-04T23:33:51.241457</dc:date>
    <dc:format>image/svg+xml</dc:format>
    <dc:creator>
     <cc:Agent>
      <dc:title>Matplotlib v3.3.2, https://matplotlib.org/</dc:title>
     </cc:Agent>
    </dc:creator>
   </cc:Work>
  </rdf:RDF>
 </metadata>
 <defs>
  <style type="text/css">*{stroke-linecap:butt;stroke-linejoin:round;}</style>
 </defs>
 <g id="figure_1">
  <g id="patch_1">
   <path d="M 0 180 
L 720 180 
L 720 0 
L 0 0 
z
" style="fill:none;"/>
  </g>
  <g id="axes_1">
   <g id="line2d_1">
    <path clip-path="url(#p7116fab5ee)" d="M 90 157.5 
L 648 157.5 
" style="fill:none;stroke:#000000;stroke-linecap:square;stroke-width:0.5;"/>
   </g>
   <g id="patch_2">
    <path clip-path="url(#p7116fab5ee)" d="M 121.274336 156.133795 
Q 118.120268 156.816897 114.727893 157.160008 
Q 111.335518 157.5 107.718853 157.5 
Q 99.546312 157.5 94.773156 155.466288 
Q 90 153.432576 90 149.954679 
Q 90 146.436232 94.857265 144.418116 
Q 99.721538 142.4 108.18145 142.4 
Q 111.440653 142.4 114.426504 142.674489 
Q 117.419364 142.945858 120.068781 143.482359 
L 120.068781 146.492378 
Q 117.335256 145.803037 114.629766 145.463045 
Q 111.924277 145.119934 109.204769 145.119934 
Q 104.172279 145.119934 101.445762 146.373848 
Q 98.719246 147.624644 98.719246 149.954679 
Q 98.719246 152.26288 101.347636 153.523032 
Q 103.976026 154.780066 108.812263 154.780066 
Q 110.129963 154.780066 111.258418 154.708325 
Q 112.386874 154.633464 113.284031 154.477505 
L 113.284031 151.651518 
L 108.132386 151.651518 
L 108.132386 149.134332 
L 121.274336 149.134332 
z
" style="fill:#ffa600;"/>
   </g>
   <g id="patch_3">
    <path clip-path="url(#p7116fab5ee)" d="M 90 127.3 
L 121.274336 127.3 
L 121.274336 130.244921 
L 110.022848 130.244921 
L 110.022848 142.4 
L 101.273307 142.4 
L 101.273307 130.244921 
L 90 130.244921 
z
" style="fill:#ff0000;"/>
   </g>
   <g id="patch_4">
    <path clip-path="url(#p7116fab5ee)" d="M 154.19469 155.335282 
Q 151.578646 156.408283 148.749851 156.951023 
Q 145.921056 157.5 142.840113 157.5 
Q 133.652439 157.5 128.286397 153.432576 
Q 122.920354 149.365152 122.920354 142.409358 
Q 122.920354 135.42861 128.286397 131.367424 
Q 133.652439 127.3 142.840113 127.3 
Q 145.921056 127.3 148.749851 127.848977 
Q 151.578646 128.391717 154.19469 129.464718 
L 154.19469 135.484755 
Q 151.555007 134.062404 148.99412 133.401136 
Q 146.433234 132.739868 143.604439 132.739868 
Q 138.529943 132.739868 135.622352 135.316319 
Q 132.72264 137.886532 132.72264 142.409358 
Q 132.72264 146.913468 135.622352 149.489919 
Q 138.529943 152.060132 143.604439 152.060132 
Q 146.433234 152.060132 148.99412 151.398864 
Q 151.555007 150.731357 154.19469 149.309006 
z
" style="fill:#0000ff;"/>
   </g>
   <g id="patch_5">
    <path clip-path="url(#p7116fab5ee)" d="M 177.504468 154.74925 
L 165.476861 154.74925 
L 163.577765 157.5 
L 155.840708 157.5 
L 166.889993 142.4 
L 176.065759 142.4 
L 187.115044 157.5 
L 179.384381 157.5 
z
M 167.39514 151.946721 
L 175.567007 151.946721 
L 171.487467 145.940377 
z
" style="fill:#008000;"/>
   </g>
   <g id="patch_6">
    <path clip-path="url(#p7116fab5ee)" d="M 187.115044 141.033795 
Q 183.960976 141.716897 180.568601 142.060008 
Q 177.176226 142.4 173.559561 142.4 
Q 165.38702 142.4 160.613864 140.366288 
Q 155.840708 138.332576 155.840708 134.854679 
Q 155.840708 131.336232 160.697973 129.318116 
Q 165.562246 127.3 174.022158 127.3 
Q 177.281361 127.3 180.267212 127.574489 
Q 183.260072 127.845858 185.909489 128.382359 
L 185.909489 131.392378 
Q 183.175964 130.703037 180.470474 130.363045 
Q 177.764985 130.019934 175.045477 130.019934 
Q 170.012987 130.019934 167.28647 131.273848 
Q 164.559954 132.524644 164.559954 134.854679 
Q 164.559954 137.16288 167.188344 138.423032 
Q 169.816734 139.680066 174.652971 139.680066 
Q 175.970671 139.680066 177.099126 139.608325 
Q 178.227582 139.533464 179.124739 139.377505 
L 179.124739 136.551518 
L 173.973094 136.551518 
L 173.973094 134.034332 
L 187.115044 134.034332 
z
" style="fill:#ffa600;"/>
   </g>
   <g id="patch_7">
    <path clip-path="url(#p7116fab5ee)" d="M 220.035398 155.335282 
Q 217.419354 156.408283 214.590559 156.951023 
Q 211.761764 157.5 208.680821 157.5 
Q 199.493147 157.5 194.127105 153.432576 
Q 188.761062 149.365152 188.761062 142.409358 
Q 188.761062 135.42861 194.127105 131.367424 
Q 199.493147 127.3 208.680821 127.3 
Q 211.761764 127.3 214.590559 127.848977 
Q 217.419354 128.391717 220.035398 129.464718 
L 220.035398 135.484755 
Q 217.395715 134.062404 214.834828 133.401136 
Q 212.273942 132.739868 209.445147 132.739868 
Q 204.370651 132.739868 201.46306 135.316319 
Q 198.563348 137.886532 198.563348 142.409358 
Q 198.563348 146.913468 201.46306 149.489919 
Q 204.370651 152.060132 209.445147 152.060132 
Q 212.273942 152.060132 214.834828 151.398864 
Q 217.395715 150.731357 220.035398 149.309006 
z
" style="fill:#0000ff;"/>
   </g>
   <g id="patch_8">
    <path clip-path="url(#p7116fab5ee)" d="M 252.955752 156.417641 
Q 250.339708 156.954142 247.510913 157.225511 
Q 244.682118 157.5 241.601175 157.5 
Q 232.413501 157.5 227.047459 155.466288 
Q 221.681416 153.432576 221.681416 149.954679 
Q 221.681416 146.464305 227.047459 144.433712 
Q 232.413501 142.4 241.601175 142.4 
Q 244.682118 142.4 247.510913 142.674489 
Q 250.339708 142.945858 252.955752 143.482359 
L 252.955752 146.492378 
Q 250.316069 145.781202 247.755182 145.450568 
Q 245.194296 145.119934 242.365501 145.119934 
Q 237.291005 145.119934 234.383414 146.408159 
Q 231.483702 147.693266 231.483702 149.954679 
Q 231.483702 152.206734 234.383414 153.49496 
Q 237.291005 154.780066 242.365501 154.780066 
Q 245.194296 154.780066 247.755182 154.449432 
Q 250.316069 154.115679 252.955752 153.404503 
z
" style="fill:#0000ff;"/>
   </g>
   <g id="patch_9">
    <path clip-path="url(#p7116fab5ee)" d="M 252.955752 141.033795 
Q 249.801684 141.716897 246.409309 142.060008 
Q 243.016934 142.4 239.400269 142.4 
Q 231.227728 142.4 226.454572 140.366288 
Q 221.681416 138.332576 221.681416 134.854679 
Q 221.681416 131.336232 226.538681 129.318116 
Q 231.402954 127.3 239.862866 127.3 
Q 243.122069 127.3 246.10792 127.574489 
Q 249.10078 127.845858 251.750197 128.382359 
L 251.750197 131.392378 
Q 249.016672 130.703037 246.311182 130.363045 
Q 243.605693 130.019934 240.886185 130.019934 
Q 235.853695 130.019934 233.127178 131.273848 
Q 230.400662 132.524644 230.400662 134.854679 
Q 230.400662 137.16288 233.029052 138.423032 
Q 235.657442 139.680066 240.493679 139.680066 
Q 241.811379 139.680066 242.939834 139.608325 
Q 244.06829 139.533464 244.965447 139.377505 
L 244.965447 136.551518 
L 239.813802 136.551518 
L 239.813802 134.034332 
L 252.955752 134.034332 
z
" style="fill:#ffa600;"/>
   </g>
   <g id="patch_10">
    <path clip-path="url(#p7116fab5ee)" d="M 285.876106 155.335282 
Q 283.260062 156.408283 280.431267 156.951023 
Q 277.602472 157.5 274.521529 157.5 
Q 265.333855 157.5 259.967812 153.432576 
Q 254.60177 149.365152 254.60177 142.409358 
Q 254.60177 135.42861 259.967812 131.367424 
Q 265.333855 127.3 274.521529 127.3 
Q 277.602472 127.3 280.431267 127.848977 
Q 283.260062 128.391717 285.876106 129.464718 
L 285.876106 135.484755 
Q 283.236423 134.062404 280.675536 133.401136 
Q 278.11465 132.739868 275.285855 132.739868 
Q 270.211359 132.739868 267.303768 135.316319 
Q 264.404056 137.886532 264.404056 142.409358 
Q 264.404056 146.913468 267.303768 149.489919 
Q 270.211359 152.060132 275.285855 152.060132 
Q 278.11465 152.060132 280.675536 151.398864 
Q 283.236423 150.731357 285.876106 149.309006 
z
" style="fill:#0000ff;"/>
   </g>
   <g id="patch_11">
    <path clip-path="url(#p7116fab5ee)" d="M 318.79646 155.335282 
Q 316.180416 156.408283 313.351621 156.951023 
Q 310.522826 157.5 307.441883 157.5 
Q 298.254209 157.5 292.888166 153.432576 
Q 287.522124 149.365152 287.522124 142.409358 
Q 287.522124 135.42861 292.888166 131.367424 
Q 298.254209 127.3 307.441883 127.3 
Q 310.522826 127.3 313.351621 127.848977 
Q 316.180416 128.391717 318.79646 129.464718 
L 318.79646 135.484755 
Q 316.156777 134.062404 313.59589 133.401136 
Q 311.035004 132.739868 308.206209 132.739868 
Q 303.131713 132.739868 300.224122 135.316319 
Q 297.32441 137.886532 297.32441 142.409358 
Q 297.32441 146.913468 300.224122 149.489919 
Q 303.131713 152.060132 308.206209 152.060132 
Q 311.035004 152.060132 313.59589 151.398864 
Q 316.156777 150.731357 318.79646 149.309006 
z
" style="fill:#0000ff;"/>
   </g>
   <g id="patch_12">
    <path clip-path="url(#p7116fab5ee)" d="M 351.716814 147.758769 
Q 349.10077 152.587275 346.271975 155.029601 
Q 343.44318 157.5 340.362237 157.5 
Q 331.174563 157.5 325.80852 139.196592 
Q 320.442478 120.893183 320.442478 89.592109 
Q 320.442478 58.178744 325.80852 39.903408 
Q 331.174563 21.6 340.362237 21.6 
Q 343.44318 21.6 346.271975 24.070399 
Q 349.10077 26.512725 351.716814 31.341231 
L 351.716814 58.431398 
Q 349.077131 52.03082 346.516244 49.055113 
Q 343.955358 46.079405 341.126563 46.079405 
Q 336.052067 46.079405 333.144476 57.673435 
Q 330.244764 69.239393 330.244764 89.592109 
Q 330.244764 109.860607 333.144476 121.454637 
Q 336.052067 133.020595 341.126563 133.020595 
Q 343.955358 133.020595 346.516244 130.044887 
Q 349.077131 127.041107 351.716814 120.640529 
z
" style="fill:#0000ff;"/>
   </g>
   <g id="patch_13">
    <path clip-path="url(#p7116fab5ee)" d="M 384.637168 147.758769 
Q 382.021124 152.587275 379.192329 155.029601 
Q 376.363534 157.5 373.282591 157.5 
Q 364.094917 157.5 358.728874 139.196592 
Q 353.362832 120.893183 353.362832 89.592109 
Q 353.362832 58.178744 358.728874 39.903408 
Q 364.094917 21.6 373.282591 21.6 
Q 376.363534 21.6 379.192329 24.070399 
Q 382.021124 26.512725 384.637168 31.341231 
L 384.637168 58.431398 
Q 381.997485 52.03082 379.436598 49.055113 
Q 376.875712 46.079405 374.046917 46.079405 
Q 368.972421 46.079405 366.06483 57.673435 
Q 363.165118 69.239393 363.165118 89.592109 
Q 363.165118 109.860607 366.06483 121.454637 
Q 368.972421 133.020595 374.046917 133.020595 
Q 376.875712 133.020595 379.436598 130.044887 
Q 381.997485 127.041107 384.637168 120.640529 
z
" style="fill:#0000ff;"/>
   </g>
   <g id="patch_14">
    <path clip-path="url(#p7116fab5ee)" d="M 417.557522 147.758769 
Q 414.941478 152.587275 412.112683 155.029601 
Q 409.283888 157.5 406.202945 157.5 
Q 397.015271 157.5 391.649228 139.196592 
Q 386.283186 120.893183 386.283186 89.592109 
Q 386.283186 58.178744 391.649228 39.903408 
Q 397.015271 21.6 406.202945 21.6 
Q 409.283888 21.6 412.112683 24.070399 
Q 414.941478 26.512725 417.557522 31.341231 
L 417.557522 58.431398 
Q 414.917839 52.03082 412.356952 49.055113 
Q 409.796066 46.079405 406.967271 46.079405 
Q 401.892775 46.079405 398.985184 57.673435 
Q 396.085472 69.239393 396.085472 89.592109 
Q 396.085472 109.860607 398.985184 121.454637 
Q 401.892775 133.020595 406.967271 133.020595 
Q 409.796066 133.020595 412.356952 130.044887 
Q 414.917839 127.041107 417.557522 120.640529 
z
" style="fill:#0000ff;"/>
   </g>
   <g id="patch_15">
    <path clip-path="url(#p7116fab5ee)" d="M 450.477876 155.335282 
Q 447.861832 156.408283 445.033037 156.951023 
Q 442.204242 157.5 439.123298 157.5 
Q 429.935625 157.5 424.569582 153.432576 
Q 419.20354 149.365152 419.20354 142.409358 
Q 419.20354 135.42861 424.569582 131.367424 
Q 429.935625 127.3 439.123298 127.3 
Q 442.204242 127.3 445.033037 127.848977 
Q 447.861832 128.391717 450.477876 129.464718 
L 450.477876 135.484755 
Q 447.838193 134.062404 445.277306 133.401136 
Q 442.71642 132.739868 439.887625 132.739868 
Q 434.813129 132.739868 431.905538 135.316319 
Q 429.005826 137.886532 429.005826 142.409358 
Q 429.005826 146.913468 431.905538 149.489919 
Q 434.813129 152.060132 439.887625 152.060132 
Q 442.71642 152.060132 445.277306 151.398864 
Q 447.838193 150.731357 450.477876 149.309006 
z
" style="fill:#0000ff;"/>
   </g>
   <g id="patch_16">
    <path clip-path="url(#p7116fab5ee)" d="M 440.8673 108.044749 
L 428.839693 108.044749 
L 426.940597 127.3 
L 419.20354 127.3 
L 430.252825 21.6 
L 439.428591 21.6 
L 450.477876 127.3 
L 442.747213 127.3 
z
M 430.757972 88.427047 
L 438.929839 88.427047 
L 434.850299 46.38264 
z
" style="fill:#008000;"/>
   </g>
   <g id="patch_17">
    <path clip-path="url(#p7116fab5ee)" d="M 473.787654 151.9985 
L 461.760047 151.9985 
L 459.860951 157.5 
L 452.123894 157.5 
L 463.173179 127.3 
L 472.348945 127.3 
L 483.39823 157.5 
L 475.667567 157.5 
z
M 463.678326 146.393442 
L 471.850193 146.393442 
L 467.770653 134.380754 
z
" style="fill:#008000;"/>
   </g>
   <g id="patch_18">
    <path clip-path="url(#p7116fab5ee)" d="M 452.123894 21.6 
L 483.39823 21.6 
L 483.39823 42.214445 
L 472.146742 42.214445 
L 472.146742 127.3 
L 463.397201 127.3 
L 463.397201 42.214445 
L 452.123894 42.214445 
z
" style="fill:#ff0000;"/>
   </g>
   <g id="patch_19">
    <path clip-path="url(#p7116fab5ee)" d="M 485.044248 127.3 
L 516.318584 127.3 
L 516.318584 133.189841 
L 505.067096 133.189841 
L 505.067096 157.5 
L 496.317555 157.5 
L 496.317555 133.189841 
L 485.044248 133.189841 
z
" style="fill:#ff0000;"/>
   </g>
   <g id="patch_20">
    <path clip-path="url(#p7116fab5ee)" d="M 516.318584 117.736563 
Q 513.164516 122.518281 509.772141 124.920058 
Q 506.379765 127.3 502.763101 127.3 
Q 494.59056 127.3 489.817404 113.064016 
Q 485.044248 98.828031 485.044248 74.482751 
Q 485.044248 49.853625 489.901512 35.726813 
Q 494.765786 21.6 503.225697 21.6 
Q 506.484901 21.6 509.470752 23.521421 
Q 512.463612 25.421008 515.113029 29.176513 
L 515.113029 50.246643 
Q 512.379504 45.421256 509.674014 43.041314 
Q 506.968525 40.639537 504.249017 40.639537 
Q 499.216527 40.639537 496.49001 49.416939 
Q 493.763493 58.172506 493.763493 74.482751 
Q 493.763493 90.640157 496.391883 99.461227 
Q 499.020273 108.260463 503.856511 108.260463 
Q 505.174211 108.260463 506.302666 107.758273 
Q 507.431121 107.234249 508.328279 106.142533 
L 508.328279 86.360628 
L 503.176634 86.360628 
L 503.176634 68.740322 
L 516.318584 68.740322 
z
" style="fill:#ffa600;"/>
   </g>
   <g id="patch_21">
    <path clip-path="url(#p7116fab5ee)" d="M 539.628362 149.24775 
L 527.600755 149.24775 
L 525.701659 157.5 
L 517.964602 157.5 
L 529.013887 112.2 
L 538.189653 112.2 
L 549.238938 157.5 
L 541.508275 157.5 
z
M 529.519034 140.840163 
L 537.690901 140.840163 
L 533.611361 122.821132 
z
" style="fill:#008000;"/>
   </g>
   <g id="patch_22">
    <path clip-path="url(#p7116fab5ee)" d="M 549.238938 104.002768 
Q 546.08487 108.101384 542.692495 110.16005 
Q 539.300119 112.2 535.683455 112.2 
Q 527.510914 112.2 522.737758 99.997728 
Q 517.964602 87.795455 517.964602 66.928073 
Q 517.964602 45.817393 522.821866 33.708697 
Q 527.68614 21.6 536.146051 21.6 
Q 539.405255 21.6 542.391106 23.246932 
Q 545.383966 24.87515 548.033383 28.094154 
L 548.033383 46.154266 
Q 545.299858 42.018219 542.594368 39.978269 
Q 539.888879 37.919603 537.169371 37.919603 
Q 532.136881 37.919603 529.410364 45.44309 
Q 526.683847 52.947862 526.683847 66.928073 
Q 526.683847 80.777277 529.312237 88.338195 
Q 531.940627 95.880397 536.776865 95.880397 
Q 538.094565 95.880397 539.22302 95.449948 
Q 540.351475 95.000785 541.248633 94.065028 
L 541.248633 77.10911 
L 536.096988 77.10911 
L 536.096988 62.00599 
L 549.238938 62.00599 
z
" style="fill:#ffa600;"/>
   </g>
   <g id="patch_23">
    <path clip-path="url(#p7116fab5ee)" d="M 582.159292 156.417641 
Q 579.543248 156.954142 576.714453 157.225511 
Q 573.885658 157.5 570.804714 157.5 
Q 561.617041 157.5 556.250998 155.466288 
Q 550.884956 153.432576 550.884956 149.954679 
Q 550.884956 146.464305 556.250998 144.433712 
Q 561.617041 142.4 570.804714 142.4 
Q 573.885658 142.4 576.714453 142.674489 
Q 579.543248 142.945858 582.159292 143.482359 
L 582.159292 146.492378 
Q 579.519609 145.781202 576.958722 145.450568 
Q 574.397835 145.119934 571.569041 145.119934 
Q 566.494545 145.119934 563.586954 146.408159 
Q 560.687242 147.693266 560.687242 149.954679 
Q 560.687242 152.206734 563.586954 153.49496 
Q 566.494545 154.780066 571.569041 154.780066 
Q 574.397835 154.780066 576.958722 154.449432 
Q 579.519609 154.115679 582.159292 153.404503 
z
" style="fill:#0000ff;"/>
   </g>
   <g id="patch_24">
    <path clip-path="url(#p7116fab5ee)" d="M 550.884956 97.1 
L 582.159292 97.1 
L 582.159292 105.934762 
L 570.907804 105.934762 
L 570.907804 142.4 
L 562.158263 142.4 
L 562.158263 105.934762 
L 550.884956 105.934762 
z
" style="fill:#ff0000;"/>
   </g>
   <g id="patch_25">
    <path clip-path="url(#p7116fab5ee)" d="M 582.159292 90.268973 
Q 579.005224 93.684487 575.612849 95.400041 
Q 572.220473 97.1 568.603809 97.1 
Q 560.431268 97.1 555.658112 86.93144 
Q 550.884956 76.76288 550.884956 59.373394 
Q 550.884956 41.781161 555.74222 31.69058 
Q 560.606494 21.6 569.066405 21.6 
Q 572.325609 21.6 575.31146 22.972444 
Q 578.30432 24.329291 580.953737 27.011795 
L 580.953737 42.061888 
Q 578.220212 38.615183 575.514722 36.915224 
Q 572.809233 35.199669 570.089725 35.199669 
Q 565.057235 35.199669 562.330718 41.469242 
Q 559.604201 47.723218 559.604201 59.373394 
Q 559.604201 70.914398 562.232591 77.215162 
Q 564.860981 83.500331 569.697219 83.500331 
Q 571.014919 83.500331 572.143374 83.141624 
Q 573.271829 82.767321 574.168986 81.987523 
L 574.168986 67.857591 
L 569.017342 67.857591 
L 569.017342 55.271659 
L 582.159292 55.271659 
z
" style="fill:#ffa600;"/>
   </g>
   <g id="patch_26">
    <path clip-path="url(#p7116fab5ee)" d="M 605.46907 154.74925 
L 593.441463 154.74925 
L 591.542367 157.5 
L 583.80531 157.5 
L 594.854595 142.4 
L 604.030361 142.4 
L 615.079646 157.5 
L 607.348983 157.5 
z
M 595.359741 151.946721 
L 603.531609 151.946721 
L 599.452069 145.940377 
z
" style="fill:#008000;"/>
   </g>
   <g id="patch_27">
    <path clip-path="url(#p7116fab5ee)" d="M 615.079646 139.152923 
Q 612.463602 140.762425 609.634807 141.576534 
Q 606.806012 142.4 603.725068 142.4 
Q 594.537395 142.4 589.171352 136.298864 
Q 583.80531 130.197728 583.80531 119.764036 
Q 583.80531 109.292915 589.171352 103.201136 
Q 594.537395 97.1 603.725068 97.1 
Q 606.806012 97.1 609.634807 97.923466 
Q 612.463602 98.737575 615.079646 100.347077 
L 615.079646 109.377133 
Q 612.439963 107.243607 609.879076 106.251704 
Q 607.318189 105.259802 604.489395 105.259802 
Q 599.414899 105.259802 596.507308 109.124478 
Q 593.607596 112.979798 593.607596 119.764036 
Q 593.607596 126.520202 596.507308 130.384879 
Q 599.414899 134.240198 604.489395 134.240198 
Q 607.318189 134.240198 609.879076 133.248296 
Q 612.439963 132.247036 615.079646 130.11351 
z
" style="fill:#0000ff;"/>
   </g>
   <g id="patch_28">
    <path clip-path="url(#p7116fab5ee)" d="M 615.079646 90.268973 
Q 611.925578 93.684487 608.533203 95.400041 
Q 605.140827 97.1 601.524163 97.1 
Q 593.351622 97.1 588.578466 86.93144 
Q 583.80531 76.76288 583.80531 59.373394 
Q 583.80531 41.781161 588.662574 31.69058 
Q 593.526848 21.6 601.986759 21.6 
Q 605.245963 21.6 608.231814 22.972444 
Q 611.224674 24.329291 613.874091 27.011795 
L 613.874091 42.061888 
Q 611.140566 38.615183 608.435076 36.915224 
Q 605.729587 35.199669 603.010079 35.199669 
Q 597.977589 35.199669 595.251072 41.469242 
Q 592.524555 47.723218 592.524555 59.373394 
Q 592.524555 70.914398 595.152945 77.215162 
Q 597.781335 83.500331 602.617573 83.500331 
Q 603.935272 83.500331 605.063728 83.141624 
Q 606.192183 82.767321 607.08934 81.987523 
L 607.08934 67.857591 
L 601.937696 67.857591 
L 601.937696 55.271659 
L 615.079646 55.271659 
z
" style="fill:#ffa600;"/>
   </g>
   <g id="patch_29">
    <path clip-path="url(#p7116fab5ee)" d="M 638.389424 154.74925 
L 626.361817 154.74925 
L 624.462721 157.5 
L 616.725664 157.5 
L 627.774949 142.4 
L 636.950715 142.4 
L 648 157.5 
L 640.269337 157.5 
z
M 628.280095 151.946721 
L 636.451963 151.946721 
L 632.372423 145.940377 
z
" style="fill:#008000;"/>
   </g>
   <g id="patch_30">
    <path clip-path="url(#p7116fab5ee)" d="M 648 138.070564 
Q 645.383956 140.216567 642.555161 141.302045 
Q 639.726366 142.4 636.645422 142.4 
Q 627.457749 142.4 622.091706 134.265152 
Q 616.725664 126.130304 616.725664 112.218715 
Q 616.725664 98.25722 622.091706 90.134848 
Q 627.457749 82 636.645422 82 
Q 639.726366 82 642.555161 83.097955 
Q 645.383956 84.183433 648 86.329436 
L 648 98.36951 
Q 645.360317 95.524809 642.79943 94.202272 
Q 640.238543 92.879736 637.409749 92.879736 
Q 632.335253 92.879736 629.427662 98.032638 
Q 626.52795 103.173063 626.52795 112.218715 
Q 626.52795 121.226937 629.427662 126.379839 
Q 632.335253 131.520264 637.409749 131.520264 
Q 640.238543 131.520264 642.79943 130.197728 
Q 645.360317 128.862714 648 126.018013 
z
" style="fill:#0000ff;"/>
   </g>
   <g id="patch_31">
    <path clip-path="url(#p7116fab5ee)" d="M 648 76.535179 
Q 644.845932 79.267589 641.453557 80.640033 
Q 638.061181 82 634.444517 82 
Q 626.271976 82 621.49882 73.865152 
Q 616.725664 65.730304 616.725664 51.818715 
Q 616.725664 37.744929 621.582928 29.672464 
Q 626.447202 21.6 634.907113 21.6 
Q 638.166317 21.6 641.152168 22.697955 
Q 644.145028 23.783433 646.794445 25.929436 
L 646.794445 37.96951 
Q 644.06092 35.212146 641.35543 33.852179 
Q 638.649941 32.479736 635.930433 32.479736 
Q 630.897943 32.479736 628.171426 37.495394 
Q 625.444909 42.498575 625.444909 51.818715 
Q 625.444909 61.051518 628.073299 66.09213 
Q 630.701689 71.120264 635.537927 71.120264 
Q 636.855626 71.120264 637.984082 70.833299 
Q 639.112537 70.533857 640.009694 69.910019 
L 640.009694 58.606073 
L 634.85805 58.606073 
L 634.85805 48.537327 
L 648 48.537327 
z
" style="fill:#ffa600;"/>
   </g>
  </g>
 </g>
 <defs>
  <clipPath id="p7116fab5ee">
   <rect height="135.9" width="558" x="90" y="21.6"/>
  </clipPath>
 </defs>
</svg>
