<?xml version="1.0" encoding="utf-8" standalone="no"?>
<!DOCTYPE svg PUBLIC "-//W3C//DTD SVG 1.1//EN"
  "http://www.w3.org/Graphics/SVG/1.1/DTD/svg11.dtd">
<!-- Created with matplotlib (https://matplotlib.org/) -->
<svg height="180pt" version="1.1" viewBox="0 0 720 180" width="720pt" xmlns="http://www.w3.org/2000/svg" xmlns:xlink="http://www.w3.org/1999/xlink">
 <metadata>
  <rdf:RDF xmlns:cc="http://creativecommons.org/ns#" xmlns:dc="http://purl.org/dc/elements/1.1/" xmlns:rdf="http://www.w3.org/1999/02/22-rdf-syntax-ns#">
   <cc:Work>
    <dc:type rdf:resource="http://purl.org/dc/dcmitype/StillImage"/>
    <dc:date>2021-08-04T23:33:15.256300</dc:date>
    <dc:format>image/svg+xml</dc:format>
    <dc:creator>
     <cc:Agent>
      <dc:title>Matplotlib v3.3.2, https://matplotlib.org/</dc:title>
     </cc:Agent>
    </dc:creator>
   </cc:Work>
  </rdf:RDF>
 </metadata>
 <defs>
  <style type="text/css">*{stroke-linecap:butt;stroke-linejoin:round;}</style>
 </defs>
 <g id="figure_1">
  <g id="patch_1">
   <path d="M 0 180 
L 720 180 
L 720 0 
L 0 0 
z
" style="fill:none;"/>
  </g>
  <g id="axes_1">
   <g id="line2d_1">
    <path clip-path="url(#p84e5cccfd9)" d="M 90 157.5 
L 648 157.5 
" style="fill:none;stroke:#000000;stroke-linecap:square;stroke-width:0.5;"/>
   </g>
   <g id="patch_2">
    <path clip-path="url(#p84e5cccfd9)" d="M 111.66376 151.9985 
L 99.636153 151.9985 
L 97.737057 157.5 
L 90 157.5 
L 101.049285 127.3 
L 110.225051 127.3 
L 121.274336 157.5 
L 113.543673 157.5 
z
M 101.554432 146.393442 
L 109.726299 146.393442 
L 105.64676 134.380754 
z
" style="fill:#008000;"/>
   </g>
   <g id="patch_3">
    <path clip-path="url(#p84e5cccfd9)" d="M 121.274336 125.135282 
Q 118.658292 126.208283 115.829497 126.751023 
Q 113.000702 127.3 109.919759 127.3 
Q 100.732085 127.3 95.366043 123.232576 
Q 90 119.165152 90 112.209358 
Q 90 105.22861 95.366043 101.167424 
Q 100.732085 97.1 109.919759 97.1 
Q 113.000702 97.1 115.829497 97.648977 
Q 118.658292 98.191717 121.274336 99.264718 
L 121.274336 105.284755 
Q 118.634653 103.862404 116.073766 103.201136 
Q 113.51288 102.539868 110.684085 102.539868 
Q 105.609589 102.539868 102.701998 105.116319 
Q 99.802286 107.686532 99.802286 112.209358 
Q 99.802286 116.713468 102.701998 119.289919 
Q 105.609589 121.860132 110.684085 121.860132 
Q 113.51288 121.860132 116.073766 121.198864 
Q 118.634653 120.531357 121.274336 119.109006 
z
" style="fill:#0000ff;"/>
   </g>
   <g id="patch_4">
    <path clip-path="url(#p84e5cccfd9)" d="M 90 66.9 
L 121.274336 66.9 
L 121.274336 72.789841 
L 110.022848 72.789841 
L 110.022848 97.1 
L 101.273307 97.1 
L 101.273307 72.789841 
L 90 72.789841 
z
" style="fill:#ff0000;"/>
   </g>
   <g id="patch_5">
    <path clip-path="url(#p84e5cccfd9)" d="M 121.274336 62.801384 
Q 118.120268 64.850692 114.727893 65.880025 
Q 111.335518 66.9 107.718853 66.9 
Q 99.546312 66.9 94.773156 60.798864 
Q 90 54.697728 90 44.264036 
Q 90 33.708697 94.857265 27.654348 
Q 99.721538 21.6 108.18145 21.6 
Q 111.440653 21.6 114.426504 22.423466 
Q 117.419364 23.237575 120.068781 24.847077 
L 120.068781 33.877133 
Q 117.335256 31.80911 114.629766 30.789134 
Q 111.924277 29.759802 109.204769 29.759802 
Q 104.172279 29.759802 101.445762 33.521545 
Q 98.719246 37.273931 98.719246 44.264036 
Q 98.719246 51.188639 101.347636 54.969097 
Q 103.976026 58.740198 108.812263 58.740198 
Q 110.129963 58.740198 111.258418 58.524974 
Q 112.386874 58.300392 113.284031 57.832514 
L 113.284031 49.354555 
L 108.132386 49.354555 
L 108.132386 41.802995 
L 121.274336 41.802995 
z
" style="fill:#ffa600;"/>
   </g>
   <g id="patch_6">
    <path clip-path="url(#p84e5cccfd9)" d="M 122.920354 142.4 
L 154.19469 142.4 
L 154.19469 145.344921 
L 142.943202 145.344921 
L 142.943202 157.5 
L 134.193661 157.5 
L 134.193661 145.344921 
L 122.920354 145.344921 
z
" style="fill:#ff0000;"/>
   </g>
   <g id="patch_7">
    <path clip-path="url(#p84e5cccfd9)" d="M 144.584114 136.8985 
L 132.556507 136.8985 
L 130.657411 142.4 
L 122.920354 142.4 
L 133.969639 112.2 
L 143.145405 112.2 
L 154.19469 142.4 
L 146.464027 142.4 
z
M 134.474786 131.293442 
L 142.646653 131.293442 
L 138.567114 119.280754 
z
" style="fill:#008000;"/>
   </g>
   <g id="patch_8">
    <path clip-path="url(#p84e5cccfd9)" d="M 154.19469 104.002768 
Q 151.040622 108.101384 147.648247 110.16005 
Q 144.255872 112.2 140.639207 112.2 
Q 132.466666 112.2 127.69351 99.997728 
Q 122.920354 87.795455 122.920354 66.928073 
Q 122.920354 45.817393 127.777619 33.708697 
Q 132.641892 21.6 141.101804 21.6 
Q 144.361007 21.6 147.346858 23.246932 
Q 150.339718 24.87515 152.989135 28.094154 
L 152.989135 46.154266 
Q 150.25561 42.018219 147.55012 39.978269 
Q 144.844631 37.919603 142.125123 37.919603 
Q 137.092633 37.919603 134.366116 45.44309 
Q 131.6396 52.947862 131.6396 66.928073 
Q 131.6396 80.777277 134.26799 88.338195 
Q 136.89638 95.880397 141.732617 95.880397 
Q 143.050317 95.880397 144.178772 95.449948 
Q 145.307228 95.000785 146.204385 94.065028 
L 146.204385 77.10911 
L 141.05274 77.10911 
L 141.05274 62.00599 
L 154.19469 62.00599 
z
" style="fill:#ffa600;"/>
   </g>
   <g id="patch_9">
    <path clip-path="url(#p84e5cccfd9)" d="M 177.504468 149.24775 
L 165.476861 149.24775 
L 163.577765 157.5 
L 155.840708 157.5 
L 166.889993 112.2 
L 176.065759 112.2 
L 187.115044 157.5 
L 179.384381 157.5 
z
M 167.39514 140.840163 
L 175.567007 140.840163 
L 171.487467 122.821132 
z
" style="fill:#008000;"/>
   </g>
   <g id="patch_10">
    <path clip-path="url(#p84e5cccfd9)" d="M 155.840708 21.6 
L 187.115044 21.6 
L 187.115044 39.269524 
L 175.863556 39.269524 
L 175.863556 112.2 
L 167.114015 112.2 
L 167.114015 39.269524 
L 155.840708 39.269524 
z
" style="fill:#ff0000;"/>
   </g>
   <g id="patch_11">
    <path clip-path="url(#p84e5cccfd9)" d="M 220.035398 153.401384 
Q 216.88133 155.450692 213.488955 156.480025 
Q 210.09658 157.5 206.479915 157.5 
Q 198.307374 157.5 193.534218 151.398864 
Q 188.761062 145.297728 188.761062 134.864036 
Q 188.761062 124.308697 193.618327 118.254348 
Q 198.4826 112.2 206.942512 112.2 
Q 210.201715 112.2 213.187566 113.023466 
Q 216.180426 113.837575 218.829843 115.447077 
L 218.829843 124.477133 
Q 216.096318 122.40911 213.390828 121.389134 
Q 210.685339 120.359802 207.965831 120.359802 
Q 202.933341 120.359802 200.206824 124.121545 
Q 197.480308 127.873931 197.480308 134.864036 
Q 197.480308 141.788639 200.108698 145.569097 
Q 202.737088 149.340198 207.573325 149.340198 
Q 208.891025 149.340198 210.01948 149.124974 
Q 211.147936 148.900392 212.045093 148.432514 
L 212.045093 139.954555 
L 206.893448 139.954555 
L 206.893448 132.402995 
L 220.035398 132.402995 
z
" style="fill:#ffa600;"/>
   </g>
   <g id="patch_12">
    <path clip-path="url(#p84e5cccfd9)" d="M 210.424822 95.695499 
L 198.397215 95.695499 
L 196.498119 112.2 
L 188.761062 112.2 
L 199.810347 21.6 
L 208.986113 21.6 
L 220.035398 112.2 
L 212.304735 112.2 
z
M 200.315494 78.880326 
L 208.487361 78.880326 
L 204.407821 42.842263 
z
" style="fill:#008000;"/>
   </g>
   <g id="patch_13">
    <path clip-path="url(#p84e5cccfd9)" d="M 243.345176 132.743249 
L 231.317569 132.743249 
L 229.418473 157.5 
L 221.681416 157.5 
L 232.730701 21.6 
L 241.906467 21.6 
L 252.955752 157.5 
L 245.225089 157.5 
z
M 233.235848 107.520489 
L 241.407715 107.520489 
L 237.328175 53.463395 
z
" style="fill:#008000;"/>
   </g>
   <g id="patch_14">
    <path clip-path="url(#p84e5cccfd9)" d="M 285.876106 154.767589 
Q 282.722038 156.133795 279.329663 156.820017 
Q 275.937288 157.5 272.320623 157.5 
Q 264.148082 157.5 259.374926 153.432576 
Q 254.60177 149.365152 254.60177 142.409358 
Q 254.60177 135.372464 259.459035 131.336232 
Q 264.323308 127.3 272.78322 127.3 
Q 276.042423 127.3 279.028274 127.848977 
Q 282.021134 128.391717 284.670551 129.464718 
L 284.670551 135.484755 
Q 281.937026 134.106073 279.231536 133.42609 
Q 276.526047 132.739868 273.806539 132.739868 
Q 268.774049 132.739868 266.047532 135.247697 
Q 263.321016 137.749287 263.321016 142.409358 
Q 263.321016 147.025759 265.949406 149.546065 
Q 268.577796 152.060132 273.414033 152.060132 
Q 274.731733 152.060132 275.860188 151.916649 
Q 276.988644 151.766928 277.885801 151.455009 
L 277.885801 145.803037 
L 272.734156 145.803037 
L 272.734156 140.768663 
L 285.876106 140.768663 
z
" style="fill:#ffa600;"/>
   </g>
   <g id="patch_15">
    <path clip-path="url(#p84e5cccfd9)" d="M 254.60177 21.6 
L 285.876106 21.6 
L 285.876106 42.214445 
L 274.624618 42.214445 
L 274.624618 127.3 
L 265.875077 127.3 
L 265.875077 42.214445 
L 254.60177 42.214445 
z
" style="fill:#ff0000;"/>
   </g>
   <g id="patch_16">
    <path clip-path="url(#p84e5cccfd9)" d="M 318.79646 156.133795 
Q 315.642392 156.816897 312.250017 157.160008 
Q 308.857642 157.5 305.240977 157.5 
Q 297.068436 157.5 292.29528 155.466288 
Q 287.522124 153.432576 287.522124 149.954679 
Q 287.522124 146.436232 292.379389 144.418116 
Q 297.243662 142.4 305.703574 142.4 
Q 308.962777 142.4 311.948628 142.674489 
Q 314.941488 142.945858 317.590905 143.482359 
L 317.590905 146.492378 
Q 314.85738 145.803037 312.15189 145.463045 
Q 309.446401 145.119934 306.726893 145.119934 
Q 301.694403 145.119934 298.967886 146.373848 
Q 296.24137 147.624644 296.24137 149.954679 
Q 296.24137 152.26288 298.86976 153.523032 
Q 301.49815 154.780066 306.334387 154.780066 
Q 307.652087 154.780066 308.780542 154.708325 
Q 309.908998 154.633464 310.806155 154.477505 
L 310.806155 151.651518 
L 305.65451 151.651518 
L 305.65451 149.134332 
L 318.79646 149.134332 
z
" style="fill:#ffa600;"/>
   </g>
   <g id="patch_17">
    <path clip-path="url(#p84e5cccfd9)" d="M 309.185884 120.393999 
L 297.158277 120.393999 
L 295.259181 142.4 
L 287.522124 142.4 
L 298.571409 21.6 
L 307.747175 21.6 
L 318.79646 142.4 
L 311.065797 142.4 
z
M 299.076556 97.973768 
L 307.248423 97.973768 
L 303.168883 49.923018 
z
" style="fill:#008000;"/>
   </g>
   <g id="patch_18">
    <path clip-path="url(#p84e5cccfd9)" d="M 342.106238 132.743249 
L 330.078631 132.743249 
L 328.179535 157.5 
L 320.442478 157.5 
L 331.491763 21.6 
L 340.667529 21.6 
L 351.716814 157.5 
L 343.986151 157.5 
z
M 331.99691 107.520489 
L 340.168777 107.520489 
L 336.089237 53.463395 
z
" style="fill:#008000;"/>
   </g>
   <g id="patch_19">
    <path clip-path="url(#p84e5cccfd9)" d="M 375.026592 154.74925 
L 362.998985 154.74925 
L 361.099889 157.5 
L 353.362832 157.5 
L 364.412117 142.4 
L 373.587883 142.4 
L 384.637168 157.5 
L 376.906505 157.5 
z
M 364.917264 151.946721 
L 373.089131 151.946721 
L 369.009591 145.940377 
z
" style="fill:#008000;"/>
   </g>
   <g id="patch_20">
    <path clip-path="url(#p84e5cccfd9)" d="M 384.637168 141.033795 
Q 381.4831 141.716897 378.090725 142.060008 
Q 374.698349 142.4 371.081685 142.4 
Q 362.909144 142.4 358.135988 140.366288 
Q 353.362832 138.332576 353.362832 134.854679 
Q 353.362832 131.336232 358.220097 129.318116 
Q 363.08437 127.3 371.544282 127.3 
Q 374.803485 127.3 377.789336 127.574489 
Q 380.782196 127.845858 383.431613 128.382359 
L 383.431613 131.392378 
Q 380.698088 130.703037 377.992598 130.363045 
Q 375.287109 130.019934 372.567601 130.019934 
Q 367.535111 130.019934 364.808594 131.273848 
Q 362.082078 132.524644 362.082078 134.854679 
Q 362.082078 137.16288 364.710468 138.423032 
Q 367.338858 139.680066 372.175095 139.680066 
Q 373.492795 139.680066 374.62125 139.608325 
Q 375.749705 139.533464 376.646863 139.377505 
L 376.646863 136.551518 
L 371.495218 136.551518 
L 371.495218 134.034332 
L 384.637168 134.034332 
z
" style="fill:#ffa600;"/>
   </g>
   <g id="patch_21">
    <path clip-path="url(#p84e5cccfd9)" d="M 353.362832 21.6 
L 384.637168 21.6 
L 384.637168 42.214445 
L 373.38568 42.214445 
L 373.38568 127.3 
L 364.636139 127.3 
L 364.636139 42.214445 
L 353.362832 42.214445 
z
" style="fill:#ff0000;"/>
   </g>
   <g id="patch_22">
    <path clip-path="url(#p84e5cccfd9)" d="M 407.946946 151.9985 
L 395.919339 151.9985 
L 394.020243 157.5 
L 386.283186 157.5 
L 397.332471 127.3 
L 406.508237 127.3 
L 417.557522 157.5 
L 409.826859 157.5 
z
M 397.837618 146.393442 
L 406.009485 146.393442 
L 401.929945 134.380754 
z
" style="fill:#008000;"/>
   </g>
   <g id="patch_23">
    <path clip-path="url(#p84e5cccfd9)" d="M 417.557522 117.736563 
Q 414.403454 122.518281 411.011079 124.920058 
Q 407.618703 127.3 404.002039 127.3 
Q 395.829498 127.3 391.056342 113.064016 
Q 386.283186 98.828031 386.283186 74.482751 
Q 386.283186 49.853625 391.140451 35.726813 
Q 396.004724 21.6 404.464635 21.6 
Q 407.723839 21.6 410.70969 23.521421 
Q 413.70255 25.421008 416.351967 29.176513 
L 416.351967 50.246643 
Q 413.618442 45.421256 410.912952 43.041314 
Q 408.207463 40.639537 405.487955 40.639537 
Q 400.455465 40.639537 397.728948 49.416939 
Q 395.002432 58.172506 395.002432 74.482751 
Q 395.002432 90.640157 397.630822 99.461227 
Q 400.259212 108.260463 405.095449 108.260463 
Q 406.413149 108.260463 407.541604 107.758273 
Q 408.670059 107.234249 409.567217 106.142533 
L 409.567217 86.360628 
L 404.415572 86.360628 
L 404.415572 68.740322 
L 417.557522 68.740322 
z
" style="fill:#ffa600;"/>
   </g>
   <g id="patch_24">
    <path clip-path="url(#p84e5cccfd9)" d="M 440.8673 151.9985 
L 428.839693 151.9985 
L 426.940597 157.5 
L 419.20354 157.5 
L 430.252825 127.3 
L 439.428591 127.3 
L 450.477876 157.5 
L 442.747213 157.5 
z
M 430.757972 146.393442 
L 438.929839 146.393442 
L 434.850299 134.380754 
z
" style="fill:#008000;"/>
   </g>
   <g id="patch_25">
    <path clip-path="url(#p84e5cccfd9)" d="M 419.20354 82 
L 450.477876 82 
L 450.477876 90.834762 
L 439.226388 90.834762 
L 439.226388 127.3 
L 430.476847 127.3 
L 430.476847 90.834762 
L 419.20354 90.834762 
z
" style="fill:#ff0000;"/>
   </g>
   <g id="patch_26">
    <path clip-path="url(#p84e5cccfd9)" d="M 450.477876 76.535179 
Q 447.323808 79.267589 443.931433 80.640033 
Q 440.539057 82 436.922393 82 
Q 428.749852 82 423.976696 73.865152 
Q 419.20354 65.730304 419.20354 51.818715 
Q 419.20354 37.744929 424.060805 29.672464 
Q 428.925078 21.6 437.384989 21.6 
Q 440.644193 21.6 443.630044 22.697955 
Q 446.622904 23.783433 449.272321 25.929436 
L 449.272321 37.96951 
Q 446.538796 35.212146 443.833306 33.852179 
Q 441.127817 32.479736 438.408309 32.479736 
Q 433.375819 32.479736 430.649302 37.495394 
Q 427.922786 42.498575 427.922786 51.818715 
Q 427.922786 61.051518 430.551176 66.09213 
Q 433.179565 71.120264 438.015803 71.120264 
Q 439.333503 71.120264 440.461958 70.833299 
Q 441.590413 70.533857 442.487571 69.910019 
L 442.487571 58.606073 
L 437.335926 58.606073 
L 437.335926 48.537327 
L 450.477876 48.537327 
z
" style="fill:#ffa600;"/>
   </g>
   <g id="patch_27">
    <path clip-path="url(#p84e5cccfd9)" d="M 483.39823 156.417641 
Q 480.782186 156.954142 477.953391 157.225511 
Q 475.124596 157.5 472.043652 157.5 
Q 462.855979 157.5 457.489936 155.466288 
Q 452.123894 153.432576 452.123894 149.954679 
Q 452.123894 146.464305 457.489936 144.433712 
Q 462.855979 142.4 472.043652 142.4 
Q 475.124596 142.4 477.953391 142.674489 
Q 480.782186 142.945858 483.39823 143.482359 
L 483.39823 146.492378 
Q 480.758547 145.781202 478.19766 145.450568 
Q 475.636773 145.119934 472.807979 145.119934 
Q 467.733483 145.119934 464.825892 146.408159 
Q 461.92618 147.693266 461.92618 149.954679 
Q 461.92618 152.206734 464.825892 153.49496 
Q 467.733483 154.780066 472.807979 154.780066 
Q 475.636773 154.780066 478.19766 154.449432 
Q 480.758547 154.115679 483.39823 153.404503 
z
" style="fill:#0000ff;"/>
   </g>
   <g id="patch_28">
    <path clip-path="url(#p84e5cccfd9)" d="M 483.39823 138.301384 
Q 480.244162 140.350692 476.851787 141.380025 
Q 473.459411 142.4 469.842747 142.4 
Q 461.670206 142.4 456.89705 136.298864 
Q 452.123894 130.197728 452.123894 119.764036 
Q 452.123894 109.208697 456.981158 103.154348 
Q 461.845432 97.1 470.305343 97.1 
Q 473.564547 97.1 476.550398 97.923466 
Q 479.543258 98.737575 482.192675 100.347077 
L 482.192675 109.377133 
Q 479.45915 107.30911 476.75366 106.289134 
Q 474.048171 105.259802 471.328663 105.259802 
Q 466.296173 105.259802 463.569656 109.021545 
Q 460.84314 112.773931 460.84314 119.764036 
Q 460.84314 126.688639 463.471529 130.469097 
Q 466.099919 134.240198 470.936157 134.240198 
Q 472.253857 134.240198 473.382312 134.024974 
Q 474.510767 133.800392 475.407925 133.332514 
L 475.407925 124.854555 
L 470.25628 124.854555 
L 470.25628 117.302995 
L 483.39823 117.302995 
z
" style="fill:#ffa600;"/>
   </g>
   <g id="patch_29">
    <path clip-path="url(#p84e5cccfd9)" d="M 473.787654 83.346249 
L 461.760047 83.346249 
L 459.860951 97.1 
L 452.123894 97.1 
L 463.173179 21.6 
L 472.348945 21.6 
L 483.39823 97.1 
L 475.667567 97.1 
z
M 463.678326 69.333605 
L 471.850193 69.333605 
L 467.770653 39.301886 
z
" style="fill:#008000;"/>
   </g>
   <g id="patch_30">
    <path clip-path="url(#p84e5cccfd9)" d="M 516.318584 154.767589 
Q 513.164516 156.133795 509.772141 156.820017 
Q 506.379765 157.5 502.763101 157.5 
Q 494.59056 157.5 489.817404 153.432576 
Q 485.044248 149.365152 485.044248 142.409358 
Q 485.044248 135.372464 489.901512 131.336232 
Q 494.765786 127.3 503.225697 127.3 
Q 506.484901 127.3 509.470752 127.848977 
Q 512.463612 128.391717 515.113029 129.464718 
L 515.113029 135.484755 
Q 512.379504 134.106073 509.674014 133.42609 
Q 506.968525 132.739868 504.249017 132.739868 
Q 499.216527 132.739868 496.49001 135.247697 
Q 493.763493 137.749287 493.763493 142.409358 
Q 493.763493 147.025759 496.391883 149.546065 
Q 499.020273 152.060132 503.856511 152.060132 
Q 505.174211 152.060132 506.302666 151.916649 
Q 507.431121 151.766928 508.328279 151.455009 
L 508.328279 145.803037 
L 503.176634 145.803037 
L 503.176634 140.768663 
L 516.318584 140.768663 
z
" style="fill:#ffa600;"/>
   </g>
   <g id="patch_31">
    <path clip-path="url(#p84e5cccfd9)" d="M 485.044248 82 
L 516.318584 82 
L 516.318584 90.834762 
L 505.067096 90.834762 
L 505.067096 127.3 
L 496.317555 127.3 
L 496.317555 90.834762 
L 485.044248 90.834762 
z
" style="fill:#ff0000;"/>
   </g>
   <g id="patch_32">
    <path clip-path="url(#p84e5cccfd9)" d="M 506.708008 70.997 
L 494.680401 70.997 
L 492.781305 82 
L 485.044248 82 
L 496.093533 21.6 
L 505.269299 21.6 
L 516.318584 82 
L 508.587921 82 
z
M 496.59868 59.786884 
L 504.770547 59.786884 
L 500.691007 35.761509 
z
" style="fill:#008000;"/>
   </g>
   <g id="patch_33">
    <path clip-path="url(#p84e5cccfd9)" d="M 549.238938 156.417641 
Q 546.622894 156.954142 543.794099 157.225511 
Q 540.965304 157.5 537.88436 157.5 
Q 528.696687 157.5 523.330644 155.466288 
Q 517.964602 153.432576 517.964602 149.954679 
Q 517.964602 146.464305 523.330644 144.433712 
Q 528.696687 142.4 537.88436 142.4 
Q 540.965304 142.4 543.794099 142.674489 
Q 546.622894 142.945858 549.238938 143.482359 
L 549.238938 146.492378 
Q 546.599255 145.781202 544.038368 145.450568 
Q 541.477481 145.119934 538.648687 145.119934 
Q 533.574191 145.119934 530.6666 146.408159 
Q 527.766888 147.693266 527.766888 149.954679 
Q 527.766888 152.206734 530.6666 153.49496 
Q 533.574191 154.780066 538.648687 154.780066 
Q 541.477481 154.780066 544.038368 154.449432 
Q 546.599255 154.115679 549.238938 153.404503 
z
" style="fill:#0000ff;"/>
   </g>
   <g id="patch_34">
    <path clip-path="url(#p84e5cccfd9)" d="M 539.628362 136.8985 
L 527.600755 136.8985 
L 525.701659 142.4 
L 517.964602 142.4 
L 529.013887 112.2 
L 538.189653 112.2 
L 549.238938 142.4 
L 541.508275 142.4 
z
M 529.519034 131.293442 
L 537.690901 131.293442 
L 533.611361 119.280754 
z
" style="fill:#008000;"/>
   </g>
   <g id="patch_35">
    <path clip-path="url(#p84e5cccfd9)" d="M 549.238938 109.467589 
Q 546.08487 110.833795 542.692495 111.520017 
Q 539.300119 112.2 535.683455 112.2 
Q 527.510914 112.2 522.737758 108.132576 
Q 517.964602 104.065152 517.964602 97.109358 
Q 517.964602 90.072464 522.821866 86.036232 
Q 527.68614 82 536.146051 82 
Q 539.405255 82 542.391106 82.548977 
Q 545.383966 83.091717 548.033383 84.164718 
L 548.033383 90.184755 
Q 545.299858 88.806073 542.594368 88.12609 
Q 539.888879 87.439868 537.169371 87.439868 
Q 532.136881 87.439868 529.410364 89.947697 
Q 526.683847 92.449287 526.683847 97.109358 
Q 526.683847 101.725759 529.312237 104.246065 
Q 531.940627 106.760132 536.776865 106.760132 
Q 538.094565 106.760132 539.22302 106.616649 
Q 540.351475 106.466928 541.248633 106.155009 
L 541.248633 100.503037 
L 536.096988 100.503037 
L 536.096988 95.468663 
L 549.238938 95.468663 
z
" style="fill:#ffa600;"/>
   </g>
   <g id="patch_36">
    <path clip-path="url(#p84e5cccfd9)" d="M 517.964602 21.6 
L 549.238938 21.6 
L 549.238938 33.379683 
L 537.98745 33.379683 
L 537.98745 82 
L 529.237909 82 
L 529.237909 33.379683 
L 517.964602 33.379683 
z
" style="fill:#ff0000;"/>
   </g>
   <g id="patch_37">
    <path clip-path="url(#p84e5cccfd9)" d="M 572.548716 151.9985 
L 560.521109 151.9985 
L 558.622013 157.5 
L 550.884956 157.5 
L 561.934241 127.3 
L 571.110007 127.3 
L 582.159292 157.5 
L 574.428629 157.5 
z
M 562.439387 146.393442 
L 570.611255 146.393442 
L 566.531715 134.380754 
z
" style="fill:#008000;"/>
   </g>
   <g id="patch_38">
    <path clip-path="url(#p84e5cccfd9)" d="M 550.884956 82 
L 582.159292 82 
L 582.159292 90.834762 
L 570.907804 90.834762 
L 570.907804 127.3 
L 562.158263 127.3 
L 562.158263 90.834762 
L 550.884956 90.834762 
z
" style="fill:#ff0000;"/>
   </g>
   <g id="patch_39">
    <path clip-path="url(#p84e5cccfd9)" d="M 582.159292 76.535179 
Q 579.005224 79.267589 575.612849 80.640033 
Q 572.220473 82 568.603809 82 
Q 560.431268 82 555.658112 73.865152 
Q 550.884956 65.730304 550.884956 51.818715 
Q 550.884956 37.744929 555.74222 29.672464 
Q 560.606494 21.6 569.066405 21.6 
Q 572.325609 21.6 575.31146 22.697955 
Q 578.30432 23.783433 580.953737 25.929436 
L 580.953737 37.96951 
Q 578.220212 35.212146 575.514722 33.852179 
Q 572.809233 32.479736 570.089725 32.479736 
Q 565.057235 32.479736 562.330718 37.495394 
Q 559.604201 42.498575 559.604201 51.818715 
Q 559.604201 61.051518 562.232591 66.09213 
Q 564.860981 71.120264 569.697219 71.120264 
Q 571.014919 71.120264 572.143374 70.833299 
Q 573.271829 70.533857 574.168986 69.910019 
L 574.168986 58.606073 
L 569.017342 58.606073 
L 569.017342 48.537327 
L 582.159292 48.537327 
z
" style="fill:#ffa600;"/>
   </g>
   <g id="patch_40">
    <path clip-path="url(#p84e5cccfd9)" d="M 615.079646 156.417641 
Q 612.463602 156.954142 609.634807 157.225511 
Q 606.806012 157.5 603.725068 157.5 
Q 594.537395 157.5 589.171352 155.466288 
Q 583.80531 153.432576 583.80531 149.954679 
Q 583.80531 146.464305 589.171352 144.433712 
Q 594.537395 142.4 603.725068 142.4 
Q 606.806012 142.4 609.634807 142.674489 
Q 612.463602 142.945858 615.079646 143.482359 
L 615.079646 146.492378 
Q 612.439963 145.781202 609.879076 145.450568 
Q 607.318189 145.119934 604.489395 145.119934 
Q 599.414899 145.119934 596.507308 146.408159 
Q 593.607596 147.693266 593.607596 149.954679 
Q 593.607596 152.206734 596.507308 153.49496 
Q 599.414899 154.780066 604.489395 154.780066 
Q 607.318189 154.780066 609.879076 154.449432 
Q 612.439963 154.115679 615.079646 153.404503 
z
" style="fill:#0000ff;"/>
   </g>
   <g id="patch_41">
    <path clip-path="url(#p84e5cccfd9)" d="M 615.079646 141.033795 
Q 611.925578 141.716897 608.533203 142.060008 
Q 605.140827 142.4 601.524163 142.4 
Q 593.351622 142.4 588.578466 140.366288 
Q 583.80531 138.332576 583.80531 134.854679 
Q 583.80531 131.336232 588.662574 129.318116 
Q 593.526848 127.3 601.986759 127.3 
Q 605.245963 127.3 608.231814 127.574489 
Q 611.224674 127.845858 613.874091 128.382359 
L 613.874091 131.392378 
Q 611.140566 130.703037 608.435076 130.363045 
Q 605.729587 130.019934 603.010079 130.019934 
Q 597.977589 130.019934 595.251072 131.273848 
Q 592.524555 132.524644 592.524555 134.854679 
Q 592.524555 137.16288 595.152945 138.423032 
Q 597.781335 139.680066 602.617573 139.680066 
Q 603.935272 139.680066 605.063728 139.608325 
Q 606.192183 139.533464 607.08934 139.377505 
L 607.08934 136.551518 
L 601.937696 136.551518 
L 601.937696 134.034332 
L 615.079646 134.034332 
z
" style="fill:#ffa600;"/>
   </g>
   <g id="patch_42">
    <path clip-path="url(#p84e5cccfd9)" d="M 583.80531 112.2 
L 615.079646 112.2 
L 615.079646 115.144921 
L 603.828158 115.144921 
L 603.828158 127.3 
L 595.078617 127.3 
L 595.078617 115.144921 
L 583.80531 115.144921 
z
" style="fill:#ff0000;"/>
   </g>
   <g id="patch_43">
    <path clip-path="url(#p84e5cccfd9)" d="M 605.46907 95.695499 
L 593.441463 95.695499 
L 591.542367 112.2 
L 583.80531 112.2 
L 594.854595 21.6 
L 604.030361 21.6 
L 615.079646 112.2 
L 607.348983 112.2 
z
M 595.359741 78.880326 
L 603.531609 78.880326 
L 599.452069 42.842263 
z
" style="fill:#008000;"/>
   </g>
   <g id="patch_44">
    <path clip-path="url(#p84e5cccfd9)" d="M 648 156.417641 
Q 645.383956 156.954142 642.555161 157.225511 
Q 639.726366 157.5 636.645422 157.5 
Q 627.457749 157.5 622.091706 155.466288 
Q 616.725664 153.432576 616.725664 149.954679 
Q 616.725664 146.464305 622.091706 144.433712 
Q 627.457749 142.4 636.645422 142.4 
Q 639.726366 142.4 642.555161 142.674489 
Q 645.383956 142.945858 648 143.482359 
L 648 146.492378 
Q 645.360317 145.781202 642.79943 145.450568 
Q 640.238543 145.119934 637.409749 145.119934 
Q 632.335253 145.119934 629.427662 146.408159 
Q 626.52795 147.693266 626.52795 149.954679 
Q 626.52795 152.206734 629.427662 153.49496 
Q 632.335253 154.780066 637.409749 154.780066 
Q 640.238543 154.780066 642.79943 154.449432 
Q 645.360317 154.115679 648 153.404503 
z
" style="fill:#0000ff;"/>
   </g>
   <g id="patch_45">
    <path clip-path="url(#p84e5cccfd9)" d="M 648 141.033795 
Q 644.845932 141.716897 641.453557 142.060008 
Q 638.061181 142.4 634.444517 142.4 
Q 626.271976 142.4 621.49882 140.366288 
Q 616.725664 138.332576 616.725664 134.854679 
Q 616.725664 131.336232 621.582928 129.318116 
Q 626.447202 127.3 634.907113 127.3 
Q 638.166317 127.3 641.152168 127.574489 
Q 644.145028 127.845858 646.794445 128.382359 
L 646.794445 131.392378 
Q 644.06092 130.703037 641.35543 130.363045 
Q 638.649941 130.019934 635.930433 130.019934 
Q 630.897943 130.019934 628.171426 131.273848 
Q 625.444909 132.524644 625.444909 134.854679 
Q 625.444909 137.16288 628.073299 138.423032 
Q 630.701689 139.680066 635.537927 139.680066 
Q 636.855626 139.680066 637.984082 139.608325 
Q 639.112537 139.533464 640.009694 139.377505 
L 640.009694 136.551518 
L 634.85805 136.551518 
L 634.85805 134.034332 
L 648 134.034332 
z
" style="fill:#ffa600;"/>
   </g>
   <g id="patch_46">
    <path clip-path="url(#p84e5cccfd9)" d="M 638.389424 119.04775 
L 626.361817 119.04775 
L 624.462721 127.3 
L 616.725664 127.3 
L 627.774949 82 
L 636.950715 82 
L 648 127.3 
L 640.269337 127.3 
z
M 628.280095 110.640163 
L 636.451963 110.640163 
L 632.372423 92.621132 
z
" style="fill:#008000;"/>
   </g>
   <g id="patch_47">
    <path clip-path="url(#p84e5cccfd9)" d="M 616.725664 21.6 
L 648 21.6 
L 648 33.379683 
L 636.748512 33.379683 
L 636.748512 82 
L 627.998971 82 
L 627.998971 33.379683 
L 616.725664 33.379683 
z
" style="fill:#ff0000;"/>
   </g>
  </g>
 </g>
 <defs>
  <clipPath id="p84e5cccfd9">
   <rect height="135.9" width="558" x="90" y="21.6"/>
  </clipPath>
 </defs>
</svg>
