<?xml version="1.0" encoding="utf-8" standalone="no"?>
<!DOCTYPE svg PUBLIC "-//W3C//DTD SVG 1.1//EN"
  "http://www.w3.org/Graphics/SVG/1.1/DTD/svg11.dtd">
<!-- Created with matplotlib (https://matplotlib.org/) -->
<svg height="180pt" version="1.1" viewBox="0 0 720 180" width="720pt" xmlns="http://www.w3.org/2000/svg" xmlns:xlink="http://www.w3.org/1999/xlink">
 <metadata>
  <rdf:RDF xmlns:cc="http://creativecommons.org/ns#" xmlns:dc="http://purl.org/dc/elements/1.1/" xmlns:rdf="http://www.w3.org/1999/02/22-rdf-syntax-ns#">
   <cc:Work>
    <dc:type rdf:resource="http://purl.org/dc/dcmitype/StillImage"/>
    <dc:date>2021-08-04T23:33:27.566269</dc:date>
    <dc:format>image/svg+xml</dc:format>
    <dc:creator>
     <cc:Agent>
      <dc:title>Matplotlib v3.3.2, https://matplotlib.org/</dc:title>
     </cc:Agent>
    </dc:creator>
   </cc:Work>
  </rdf:RDF>
 </metadata>
 <defs>
  <style type="text/css">*{stroke-linecap:butt;stroke-linejoin:round;}</style>
 </defs>
 <g id="figure_1">
  <g id="patch_1">
   <path d="M 0 180 
L 720 180 
L 720 0 
L 0 0 
z
" style="fill:none;"/>
  </g>
  <g id="axes_1">
   <g id="line2d_1">
    <path clip-path="url(#p749b093626)" d="M 90 157.5 
L 648 157.5 
" style="fill:none;stroke:#000000;stroke-linecap:square;stroke-width:0.5;"/>
   </g>
   <g id="patch_2">
    <path clip-path="url(#p749b093626)" d="M 121.274336 154.767589 
Q 118.120268 156.133795 114.727893 156.820017 
Q 111.335518 157.5 107.718853 157.5 
Q 99.546312 157.5 94.773156 153.432576 
Q 90 149.365152 90 142.409358 
Q 90 135.372464 94.857265 131.336232 
Q 99.721538 127.3 108.18145 127.3 
Q 111.440653 127.3 114.426504 127.848977 
Q 117.419364 128.391717 120.068781 129.464718 
L 120.068781 135.484755 
Q 117.335256 134.106073 114.629766 133.42609 
Q 111.924277 132.739868 109.204769 132.739868 
Q 104.172279 132.739868 101.445762 135.247697 
Q 98.719246 137.749287 98.719246 142.409358 
Q 98.719246 147.025759 101.347636 149.546065 
Q 103.976026 152.060132 108.812263 152.060132 
Q 110.129963 152.060132 111.258418 151.916649 
Q 112.386874 151.766928 113.284031 151.455009 
L 113.284031 145.803037 
L 108.132386 145.803037 
L 108.132386 140.768663 
L 121.274336 140.768663 
z
" style="fill:#ffa600;"/>
   </g>
   <g id="patch_3">
    <path clip-path="url(#p749b093626)" d="M 121.274336 124.052923 
Q 118.658292 125.662425 115.829497 126.476534 
Q 113.000702 127.3 109.919759 127.3 
Q 100.732085 127.3 95.366043 121.198864 
Q 90 115.097728 90 104.664036 
Q 90 94.192915 95.366043 88.101136 
Q 100.732085 82 109.919759 82 
Q 113.000702 82 115.829497 82.823466 
Q 118.658292 83.637575 121.274336 85.247077 
L 121.274336 94.277133 
Q 118.634653 92.143607 116.073766 91.151704 
Q 113.51288 90.159802 110.684085 90.159802 
Q 105.609589 90.159802 102.701998 94.024478 
Q 99.802286 97.879798 99.802286 104.664036 
Q 99.802286 111.420202 102.701998 115.284879 
Q 105.609589 119.140198 110.684085 119.140198 
Q 113.51288 119.140198 116.073766 118.148296 
Q 118.634653 117.147036 121.274336 115.01351 
z
" style="fill:#0000ff;"/>
   </g>
   <g id="patch_4">
    <path clip-path="url(#p749b093626)" d="M 90 21.6 
L 121.274336 21.6 
L 121.274336 33.379683 
L 110.022848 33.379683 
L 110.022848 82 
L 101.273307 82 
L 101.273307 33.379683 
L 90 33.379683 
z
" style="fill:#ff0000;"/>
   </g>
   <g id="patch_5">
    <path clip-path="url(#p749b093626)" d="M 144.584114 154.74925 
L 132.556507 154.74925 
L 130.657411 157.5 
L 122.920354 157.5 
L 133.969639 142.4 
L 143.145405 142.4 
L 154.19469 157.5 
L 146.464027 157.5 
z
M 134.474786 151.946721 
L 142.646653 151.946721 
L 138.567114 145.940377 
z
" style="fill:#008000;"/>
   </g>
   <g id="patch_6">
    <path clip-path="url(#p749b093626)" d="M 154.19469 140.235282 
Q 151.578646 141.308283 148.749851 141.851023 
Q 145.921056 142.4 142.840113 142.4 
Q 133.652439 142.4 128.286397 138.332576 
Q 122.920354 134.265152 122.920354 127.309358 
Q 122.920354 120.32861 128.286397 116.267424 
Q 133.652439 112.2 142.840113 112.2 
Q 145.921056 112.2 148.749851 112.748977 
Q 151.578646 113.291717 154.19469 114.364718 
L 154.19469 120.384755 
Q 151.555007 118.962404 148.99412 118.301136 
Q 146.433234 117.639868 143.604439 117.639868 
Q 138.529943 117.639868 135.622352 120.216319 
Q 132.72264 122.786532 132.72264 127.309358 
Q 132.72264 131.813468 135.622352 134.389919 
Q 138.529943 136.960132 143.604439 136.960132 
Q 146.433234 136.960132 148.99412 136.298864 
Q 151.555007 135.631357 154.19469 134.209006 
z
" style="fill:#0000ff;"/>
   </g>
   <g id="patch_7">
    <path clip-path="url(#p749b093626)" d="M 154.19469 109.467589 
Q 151.040622 110.833795 147.648247 111.520017 
Q 144.255872 112.2 140.639207 112.2 
Q 132.466666 112.2 127.69351 108.132576 
Q 122.920354 104.065152 122.920354 97.109358 
Q 122.920354 90.072464 127.777619 86.036232 
Q 132.641892 82 141.101804 82 
Q 144.361007 82 147.346858 82.548977 
Q 150.339718 83.091717 152.989135 84.164718 
L 152.989135 90.184755 
Q 150.25561 88.806073 147.55012 88.12609 
Q 144.844631 87.439868 142.125123 87.439868 
Q 137.092633 87.439868 134.366116 89.947697 
Q 131.6396 92.449287 131.6396 97.109358 
Q 131.6396 101.725759 134.26799 104.246065 
Q 136.89638 106.760132 141.732617 106.760132 
Q 143.050317 106.760132 144.178772 106.616649 
Q 145.307228 106.466928 146.204385 106.155009 
L 146.204385 100.503037 
L 141.05274 100.503037 
L 141.05274 95.468663 
L 154.19469 95.468663 
z
" style="fill:#ffa600;"/>
   </g>
   <g id="patch_8">
    <path clip-path="url(#p749b093626)" d="M 122.920354 21.6 
L 154.19469 21.6 
L 154.19469 33.379683 
L 142.943202 33.379683 
L 142.943202 82 
L 134.193661 82 
L 134.193661 33.379683 
L 122.920354 33.379683 
z
" style="fill:#ff0000;"/>
   </g>
   <g id="patch_9">
    <path clip-path="url(#p749b093626)" d="M 155.840708 142.4 
L 187.115044 142.4 
L 187.115044 145.344921 
L 175.863556 145.344921 
L 175.863556 157.5 
L 167.114015 157.5 
L 167.114015 145.344921 
L 155.840708 145.344921 
z
" style="fill:#ff0000;"/>
   </g>
   <g id="patch_10">
    <path clip-path="url(#p749b093626)" d="M 187.115044 140.235282 
Q 184.499 141.308283 181.670205 141.851023 
Q 178.84141 142.4 175.760467 142.4 
Q 166.572793 142.4 161.206751 138.332576 
Q 155.840708 134.265152 155.840708 127.309358 
Q 155.840708 120.32861 161.206751 116.267424 
Q 166.572793 112.2 175.760467 112.2 
Q 178.84141 112.2 181.670205 112.748977 
Q 184.499 113.291717 187.115044 114.364718 
L 187.115044 120.384755 
Q 184.475361 118.962404 181.914474 118.301136 
Q 179.353588 117.639868 176.524793 117.639868 
Q 171.450297 117.639868 168.542706 120.216319 
Q 165.642994 122.786532 165.642994 127.309358 
Q 165.642994 131.813468 168.542706 134.389919 
Q 171.450297 136.960132 176.524793 136.960132 
Q 179.353588 136.960132 181.914474 136.298864 
Q 184.475361 135.631357 187.115044 134.209006 
z
" style="fill:#0000ff;"/>
   </g>
   <g id="patch_11">
    <path clip-path="url(#p749b093626)" d="M 177.504468 103.94775 
L 165.476861 103.94775 
L 163.577765 112.2 
L 155.840708 112.2 
L 166.889993 66.9 
L 176.065759 66.9 
L 187.115044 112.2 
L 179.384381 112.2 
z
M 167.39514 95.540163 
L 175.567007 95.540163 
L 171.487467 77.521132 
z
" style="fill:#008000;"/>
   </g>
   <g id="patch_12">
    <path clip-path="url(#p749b093626)" d="M 187.115044 62.801384 
Q 183.960976 64.850692 180.568601 65.880025 
Q 177.176226 66.9 173.559561 66.9 
Q 165.38702 66.9 160.613864 60.798864 
Q 155.840708 54.697728 155.840708 44.264036 
Q 155.840708 33.708697 160.697973 27.654348 
Q 165.562246 21.6 174.022158 21.6 
Q 177.281361 21.6 180.267212 22.423466 
Q 183.260072 23.237575 185.909489 24.847077 
L 185.909489 33.877133 
Q 183.175964 31.80911 180.470474 30.789134 
Q 177.764985 29.759802 175.045477 29.759802 
Q 170.012987 29.759802 167.28647 33.521545 
Q 164.559954 37.273931 164.559954 44.264036 
Q 164.559954 51.188639 167.188344 54.969097 
Q 169.816734 58.740198 174.652971 58.740198 
Q 175.970671 58.740198 177.099126 58.524974 
Q 178.227582 58.300392 179.124739 57.832514 
L 179.124739 49.354555 
L 173.973094 49.354555 
L 173.973094 41.802995 
L 187.115044 41.802995 
z
" style="fill:#ffa600;"/>
   </g>
   <g id="patch_13">
    <path clip-path="url(#p749b093626)" d="M 220.035398 153.170564 
Q 217.419354 155.316567 214.590559 156.402045 
Q 211.761764 157.5 208.680821 157.5 
Q 199.493147 157.5 194.127105 149.365152 
Q 188.761062 141.230304 188.761062 127.318715 
Q 188.761062 113.35722 194.127105 105.234848 
Q 199.493147 97.1 208.680821 97.1 
Q 211.761764 97.1 214.590559 98.197955 
Q 217.419354 99.283433 220.035398 101.429436 
L 220.035398 113.46951 
Q 217.395715 110.624809 214.834828 109.302272 
Q 212.273942 107.979736 209.445147 107.979736 
Q 204.370651 107.979736 201.46306 113.132638 
Q 198.563348 118.273063 198.563348 127.318715 
Q 198.563348 136.326937 201.46306 141.479839 
Q 204.370651 146.620264 209.445147 146.620264 
Q 212.273942 146.620264 214.834828 145.297728 
Q 217.395715 143.962714 220.035398 141.118013 
z
" style="fill:#0000ff;"/>
   </g>
   <g id="patch_14">
    <path clip-path="url(#p749b093626)" d="M 210.424822 83.346249 
L 198.397215 83.346249 
L 196.498119 97.1 
L 188.761062 97.1 
L 199.810347 21.6 
L 208.986113 21.6 
L 220.035398 97.1 
L 212.304735 97.1 
z
M 200.315494 69.333605 
L 208.487361 69.333605 
L 204.407821 39.301886 
z
" style="fill:#008000;"/>
   </g>
   <g id="patch_15">
    <path clip-path="url(#p749b093626)" d="M 252.955752 156.133795 
Q 249.801684 156.816897 246.409309 157.160008 
Q 243.016934 157.5 239.400269 157.5 
Q 231.227728 157.5 226.454572 155.466288 
Q 221.681416 153.432576 221.681416 149.954679 
Q 221.681416 146.436232 226.538681 144.418116 
Q 231.402954 142.4 239.862866 142.4 
Q 243.122069 142.4 246.10792 142.674489 
Q 249.10078 142.945858 251.750197 143.482359 
L 251.750197 146.492378 
Q 249.016672 145.803037 246.311182 145.463045 
Q 243.605693 145.119934 240.886185 145.119934 
Q 235.853695 145.119934 233.127178 146.373848 
Q 230.400662 147.624644 230.400662 149.954679 
Q 230.400662 152.26288 233.029052 153.523032 
Q 235.657442 154.780066 240.493679 154.780066 
Q 241.811379 154.780066 242.939834 154.708325 
Q 244.06829 154.633464 244.965447 154.477505 
L 244.965447 151.651518 
L 239.813802 151.651518 
L 239.813802 149.134332 
L 252.955752 149.134332 
z
" style="fill:#ffa600;"/>
   </g>
   <g id="patch_16">
    <path clip-path="url(#p749b093626)" d="M 252.955752 140.235282 
Q 250.339708 141.308283 247.510913 141.851023 
Q 244.682118 142.4 241.601175 142.4 
Q 232.413501 142.4 227.047459 138.332576 
Q 221.681416 134.265152 221.681416 127.309358 
Q 221.681416 120.32861 227.047459 116.267424 
Q 232.413501 112.2 241.601175 112.2 
Q 244.682118 112.2 247.510913 112.748977 
Q 250.339708 113.291717 252.955752 114.364718 
L 252.955752 120.384755 
Q 250.316069 118.962404 247.755182 118.301136 
Q 245.194296 117.639868 242.365501 117.639868 
Q 237.291005 117.639868 234.383414 120.216319 
Q 231.483702 122.786532 231.483702 127.309358 
Q 231.483702 131.813468 234.383414 134.389919 
Q 237.291005 136.960132 242.365501 136.960132 
Q 245.194296 136.960132 247.755182 136.298864 
Q 250.316069 135.631357 252.955752 134.209006 
z
" style="fill:#0000ff;"/>
   </g>
   <g id="patch_17">
    <path clip-path="url(#p749b093626)" d="M 221.681416 21.6 
L 252.955752 21.6 
L 252.955752 39.269524 
L 241.704264 39.269524 
L 241.704264 112.2 
L 232.954723 112.2 
L 232.954723 39.269524 
L 221.681416 39.269524 
z
" style="fill:#ff0000;"/>
   </g>
   <g id="patch_18">
    <path clip-path="url(#p749b093626)" d="M 285.876106 153.401384 
Q 282.722038 155.450692 279.329663 156.480025 
Q 275.937288 157.5 272.320623 157.5 
Q 264.148082 157.5 259.374926 151.398864 
Q 254.60177 145.297728 254.60177 134.864036 
Q 254.60177 124.308697 259.459035 118.254348 
Q 264.323308 112.2 272.78322 112.2 
Q 276.042423 112.2 279.028274 113.023466 
Q 282.021134 113.837575 284.670551 115.447077 
L 284.670551 124.477133 
Q 281.937026 122.40911 279.231536 121.389134 
Q 276.526047 120.359802 273.806539 120.359802 
Q 268.774049 120.359802 266.047532 124.121545 
Q 263.321016 127.873931 263.321016 134.864036 
Q 263.321016 141.788639 265.949406 145.569097 
Q 268.577796 149.340198 273.414033 149.340198 
Q 274.731733 149.340198 275.860188 149.124974 
Q 276.988644 148.900392 277.885801 148.432514 
L 277.885801 139.954555 
L 272.734156 139.954555 
L 272.734156 132.402995 
L 285.876106 132.402995 
z
" style="fill:#ffa600;"/>
   </g>
   <g id="patch_19">
    <path clip-path="url(#p749b093626)" d="M 285.876106 105.705846 
Q 283.260062 108.92485 280.431267 110.553068 
Q 277.602472 112.2 274.521529 112.2 
Q 265.333855 112.2 259.967812 99.997728 
Q 254.60177 87.795455 254.60177 66.928073 
Q 254.60177 45.985829 259.967812 33.802272 
Q 265.333855 21.6 274.521529 21.6 
Q 277.602472 21.6 280.431267 23.246932 
Q 283.260062 24.87515 285.876106 28.094154 
L 285.876106 46.154266 
Q 283.236423 41.887213 280.675536 39.903408 
Q 278.11465 37.919603 275.285855 37.919603 
Q 270.211359 37.919603 267.303768 45.648957 
Q 264.404056 53.359595 264.404056 66.928073 
Q 264.404056 80.440405 267.303768 88.169758 
Q 270.211359 95.880397 275.285855 95.880397 
Q 278.11465 95.880397 280.675536 93.896592 
Q 283.236423 91.894071 285.876106 87.627019 
z
" style="fill:#0000ff;"/>
   </g>
   <g id="patch_20">
    <path clip-path="url(#p749b093626)" d="M 318.79646 154.767589 
Q 315.642392 156.133795 312.250017 156.820017 
Q 308.857642 157.5 305.240977 157.5 
Q 297.068436 157.5 292.29528 153.432576 
Q 287.522124 149.365152 287.522124 142.409358 
Q 287.522124 135.372464 292.379389 131.336232 
Q 297.243662 127.3 305.703574 127.3 
Q 308.962777 127.3 311.948628 127.848977 
Q 314.941488 128.391717 317.590905 129.464718 
L 317.590905 135.484755 
Q 314.85738 134.106073 312.15189 133.42609 
Q 309.446401 132.739868 306.726893 132.739868 
Q 301.694403 132.739868 298.967886 135.247697 
Q 296.24137 137.749287 296.24137 142.409358 
Q 296.24137 147.025759 298.86976 149.546065 
Q 301.49815 152.060132 306.334387 152.060132 
Q 307.652087 152.060132 308.780542 151.916649 
Q 309.908998 151.766928 310.806155 151.455009 
L 310.806155 145.803037 
L 305.65451 145.803037 
L 305.65451 140.768663 
L 318.79646 140.768663 
z
" style="fill:#ffa600;"/>
   </g>
   <g id="patch_21">
    <path clip-path="url(#p749b093626)" d="M 309.185884 119.04775 
L 297.158277 119.04775 
L 295.259181 127.3 
L 287.522124 127.3 
L 298.571409 82 
L 307.747175 82 
L 318.79646 127.3 
L 311.065797 127.3 
z
M 299.076556 110.640163 
L 307.248423 110.640163 
L 303.168883 92.621132 
z
" style="fill:#008000;"/>
   </g>
   <g id="patch_22">
    <path clip-path="url(#p749b093626)" d="M 318.79646 77.670564 
Q 316.180416 79.816567 313.351621 80.902045 
Q 310.522826 82 307.441883 82 
Q 298.254209 82 292.888166 73.865152 
Q 287.522124 65.730304 287.522124 51.818715 
Q 287.522124 37.85722 292.888166 29.734848 
Q 298.254209 21.6 307.441883 21.6 
Q 310.522826 21.6 313.351621 22.697955 
Q 316.180416 23.783433 318.79646 25.929436 
L 318.79646 37.96951 
Q 316.156777 35.124809 313.59589 33.802272 
Q 311.035004 32.479736 308.206209 32.479736 
Q 303.131713 32.479736 300.224122 37.632638 
Q 297.32441 42.773063 297.32441 51.818715 
Q 297.32441 60.826937 300.224122 65.979839 
Q 303.131713 71.120264 308.206209 71.120264 
Q 311.035004 71.120264 313.59589 69.797728 
Q 316.156777 68.462714 318.79646 65.618013 
z
" style="fill:#0000ff;"/>
   </g>
   <g id="patch_23">
    <path clip-path="url(#p749b093626)" d="M 351.716814 155.335282 
Q 349.10077 156.408283 346.271975 156.951023 
Q 343.44318 157.5 340.362237 157.5 
Q 331.174563 157.5 325.80852 153.432576 
Q 320.442478 149.365152 320.442478 142.409358 
Q 320.442478 135.42861 325.80852 131.367424 
Q 331.174563 127.3 340.362237 127.3 
Q 343.44318 127.3 346.271975 127.848977 
Q 349.10077 128.391717 351.716814 129.464718 
L 351.716814 135.484755 
Q 349.077131 134.062404 346.516244 133.401136 
Q 343.955358 132.739868 341.126563 132.739868 
Q 336.052067 132.739868 333.144476 135.316319 
Q 330.244764 137.886532 330.244764 142.409358 
Q 330.244764 146.913468 333.144476 149.489919 
Q 336.052067 152.060132 341.126563 152.060132 
Q 343.955358 152.060132 346.516244 151.398864 
Q 349.077131 150.731357 351.716814 149.309006 
z
" style="fill:#0000ff;"/>
   </g>
   <g id="patch_24">
    <path clip-path="url(#p749b093626)" d="M 320.442478 21.6 
L 351.716814 21.6 
L 351.716814 42.214445 
L 340.465326 42.214445 
L 340.465326 127.3 
L 331.715785 127.3 
L 331.715785 42.214445 
L 320.442478 42.214445 
z
" style="fill:#ff0000;"/>
   </g>
   <g id="patch_25">
    <path clip-path="url(#p749b093626)" d="M 384.637168 156.133795 
Q 381.4831 156.816897 378.090725 157.160008 
Q 374.698349 157.5 371.081685 157.5 
Q 362.909144 157.5 358.135988 155.466288 
Q 353.362832 153.432576 353.362832 149.954679 
Q 353.362832 146.436232 358.220097 144.418116 
Q 363.08437 142.4 371.544282 142.4 
Q 374.803485 142.4 377.789336 142.674489 
Q 380.782196 142.945858 383.431613 143.482359 
L 383.431613 146.492378 
Q 380.698088 145.803037 377.992598 145.463045 
Q 375.287109 145.119934 372.567601 145.119934 
Q 367.535111 145.119934 364.808594 146.373848 
Q 362.082078 147.624644 362.082078 149.954679 
Q 362.082078 152.26288 364.710468 153.523032 
Q 367.338858 154.780066 372.175095 154.780066 
Q 373.492795 154.780066 374.62125 154.708325 
Q 375.749705 154.633464 376.646863 154.477505 
L 376.646863 151.651518 
L 371.495218 151.651518 
L 371.495218 149.134332 
L 384.637168 149.134332 
z
" style="fill:#ffa600;"/>
   </g>
   <g id="patch_26">
    <path clip-path="url(#p749b093626)" d="M 375.026592 131.397 
L 362.998985 131.397 
L 361.099889 142.4 
L 353.362832 142.4 
L 364.412117 82 
L 373.587883 82 
L 384.637168 142.4 
L 376.906505 142.4 
z
M 364.917264 120.186884 
L 373.089131 120.186884 
L 369.009591 96.161509 
z
" style="fill:#008000;"/>
   </g>
   <g id="patch_27">
    <path clip-path="url(#p749b093626)" d="M 384.637168 77.670564 
Q 382.021124 79.816567 379.192329 80.902045 
Q 376.363534 82 373.282591 82 
Q 364.094917 82 358.728874 73.865152 
Q 353.362832 65.730304 353.362832 51.818715 
Q 353.362832 37.85722 358.728874 29.734848 
Q 364.094917 21.6 373.282591 21.6 
Q 376.363534 21.6 379.192329 22.697955 
Q 382.021124 23.783433 384.637168 25.929436 
L 384.637168 37.96951 
Q 381.997485 35.124809 379.436598 33.802272 
Q 376.875712 32.479736 374.046917 32.479736 
Q 368.972421 32.479736 366.06483 37.632638 
Q 363.165118 42.773063 363.165118 51.818715 
Q 363.165118 60.826937 366.06483 65.979839 
Q 368.972421 71.120264 374.046917 71.120264 
Q 376.875712 71.120264 379.436598 69.797728 
Q 381.997485 68.462714 384.637168 65.618013 
z
" style="fill:#0000ff;"/>
   </g>
   <g id="patch_28">
    <path clip-path="url(#p749b093626)" d="M 407.946946 132.743249 
L 395.919339 132.743249 
L 394.020243 157.5 
L 386.283186 157.5 
L 397.332471 21.6 
L 406.508237 21.6 
L 417.557522 157.5 
L 409.826859 157.5 
z
M 397.837618 107.520489 
L 406.009485 107.520489 
L 401.929945 53.463395 
z
" style="fill:#008000;"/>
   </g>
   <g id="patch_29">
    <path clip-path="url(#p749b093626)" d="M 440.8673 132.743249 
L 428.839693 132.743249 
L 426.940597 157.5 
L 419.20354 157.5 
L 430.252825 21.6 
L 439.428591 21.6 
L 450.477876 157.5 
L 442.747213 157.5 
z
M 430.757972 107.520489 
L 438.929839 107.520489 
L 434.850299 53.463395 
z
" style="fill:#008000;"/>
   </g>
   <g id="patch_30">
    <path clip-path="url(#p749b093626)" d="M 452.123894 21.6 
L 483.39823 21.6 
L 483.39823 48.104286 
L 472.146742 48.104286 
L 472.146742 157.5 
L 463.397201 157.5 
L 463.397201 48.104286 
L 452.123894 48.104286 
z
" style="fill:#ff0000;"/>
   </g>
   <g id="patch_31">
    <path clip-path="url(#p749b093626)" d="M 516.318584 145.204152 
Q 513.164516 151.352076 509.772141 154.440074 
Q 506.379765 157.5 502.763101 157.5 
Q 494.59056 157.5 489.817404 139.196592 
Q 485.044248 120.893183 485.044248 89.592109 
Q 485.044248 57.92609 489.901512 39.763045 
Q 494.765786 21.6 503.225697 21.6 
Q 506.484901 21.6 509.470752 24.070399 
Q 512.463612 26.512725 515.113029 31.341231 
L 515.113029 58.431398 
Q 512.379504 52.227329 509.674014 49.167403 
Q 506.968525 46.079405 504.249017 46.079405 
Q 499.216527 46.079405 496.49001 57.364635 
Q 493.763493 68.621793 493.763493 89.592109 
Q 493.763493 110.365916 496.391883 121.707292 
Q 499.020273 133.020595 503.856511 133.020595 
Q 505.174211 133.020595 506.302666 132.374923 
Q 507.431121 131.701177 508.328279 130.297542 
L 508.328279 104.863665 
L 503.176634 104.863665 
L 503.176634 82.208986 
L 516.318584 82.208986 
z
" style="fill:#ffa600;"/>
   </g>
   <g id="patch_32">
    <path clip-path="url(#p749b093626)" d="M 539.628362 151.9985 
L 527.600755 151.9985 
L 525.701659 157.5 
L 517.964602 157.5 
L 529.013887 127.3 
L 538.189653 127.3 
L 549.238938 157.5 
L 541.508275 157.5 
z
M 529.519034 146.393442 
L 537.690901 146.393442 
L 533.611361 134.380754 
z
" style="fill:#008000;"/>
   </g>
   <g id="patch_33">
    <path clip-path="url(#p749b093626)" d="M 549.238938 117.736563 
Q 546.08487 122.518281 542.692495 124.920058 
Q 539.300119 127.3 535.683455 127.3 
Q 527.510914 127.3 522.737758 113.064016 
Q 517.964602 98.828031 517.964602 74.482751 
Q 517.964602 49.853625 522.821866 35.726813 
Q 527.68614 21.6 536.146051 21.6 
Q 539.405255 21.6 542.391106 23.521421 
Q 545.383966 25.421008 548.033383 29.176513 
L 548.033383 50.246643 
Q 545.299858 45.421256 542.594368 43.041314 
Q 539.888879 40.639537 537.169371 40.639537 
Q 532.136881 40.639537 529.410364 49.416939 
Q 526.683847 58.172506 526.683847 74.482751 
Q 526.683847 90.640157 529.312237 99.461227 
Q 531.940627 108.260463 536.776865 108.260463 
Q 538.094565 108.260463 539.22302 107.758273 
Q 540.351475 107.234249 541.248633 106.142533 
L 541.248633 86.360628 
L 536.096988 86.360628 
L 536.096988 68.740322 
L 549.238938 68.740322 
z
" style="fill:#ffa600;"/>
   </g>
   <g id="patch_34">
    <path clip-path="url(#p749b093626)" d="M 572.548716 154.74925 
L 560.521109 154.74925 
L 558.622013 157.5 
L 550.884956 157.5 
L 561.934241 142.4 
L 571.110007 142.4 
L 582.159292 157.5 
L 574.428629 157.5 
z
M 562.439387 151.946721 
L 570.611255 151.946721 
L 566.531715 145.940377 
z
" style="fill:#008000;"/>
   </g>
   <g id="patch_35">
    <path clip-path="url(#p749b093626)" d="M 550.884956 112.2 
L 582.159292 112.2 
L 582.159292 118.089841 
L 570.907804 118.089841 
L 570.907804 142.4 
L 562.158263 142.4 
L 562.158263 118.089841 
L 550.884956 118.089841 
z
" style="fill:#ff0000;"/>
   </g>
   <g id="patch_36">
    <path clip-path="url(#p749b093626)" d="M 582.159292 105.705846 
Q 579.543248 108.92485 576.714453 110.553068 
Q 573.885658 112.2 570.804714 112.2 
Q 561.617041 112.2 556.250998 99.997728 
Q 550.884956 87.795455 550.884956 66.928073 
Q 550.884956 45.985829 556.250998 33.802272 
Q 561.617041 21.6 570.804714 21.6 
Q 573.885658 21.6 576.714453 23.246932 
Q 579.543248 24.87515 582.159292 28.094154 
L 582.159292 46.154266 
Q 579.519609 41.887213 576.958722 39.903408 
Q 574.397835 37.919603 571.569041 37.919603 
Q 566.494545 37.919603 563.586954 45.648957 
Q 560.687242 53.359595 560.687242 66.928073 
Q 560.687242 80.440405 563.586954 88.169758 
Q 566.494545 95.880397 571.569041 95.880397 
Q 574.397835 95.880397 576.958722 93.896592 
Q 579.519609 91.894071 582.159292 87.627019 
z
" style="fill:#0000ff;"/>
   </g>
   <g id="patch_37">
    <path clip-path="url(#p749b093626)" d="M 605.46907 149.24775 
L 593.441463 149.24775 
L 591.542367 157.5 
L 583.80531 157.5 
L 594.854595 112.2 
L 604.030361 112.2 
L 615.079646 157.5 
L 607.348983 157.5 
z
M 595.359741 140.840163 
L 603.531609 140.840163 
L 599.452069 122.821132 
z
" style="fill:#008000;"/>
   </g>
   <g id="patch_38">
    <path clip-path="url(#p749b093626)" d="M 615.079646 104.002768 
Q 611.925578 108.101384 608.533203 110.16005 
Q 605.140827 112.2 601.524163 112.2 
Q 593.351622 112.2 588.578466 99.997728 
Q 583.80531 87.795455 583.80531 66.928073 
Q 583.80531 45.817393 588.662574 33.708697 
Q 593.526848 21.6 601.986759 21.6 
Q 605.245963 21.6 608.231814 23.246932 
Q 611.224674 24.87515 613.874091 28.094154 
L 613.874091 46.154266 
Q 611.140566 42.018219 608.435076 39.978269 
Q 605.729587 37.919603 603.010079 37.919603 
Q 597.977589 37.919603 595.251072 45.44309 
Q 592.524555 52.947862 592.524555 66.928073 
Q 592.524555 80.777277 595.152945 88.338195 
Q 597.781335 95.880397 602.617573 95.880397 
Q 603.935272 95.880397 605.063728 95.449948 
Q 606.192183 95.000785 607.08934 94.065028 
L 607.08934 77.10911 
L 601.937696 77.10911 
L 601.937696 62.00599 
L 615.079646 62.00599 
z
" style="fill:#ffa600;"/>
   </g>
   <g id="patch_39">
    <path clip-path="url(#p749b093626)" d="M 648 156.417641 
Q 645.383956 156.954142 642.555161 157.225511 
Q 639.726366 157.5 636.645422 157.5 
Q 627.457749 157.5 622.091706 155.466288 
Q 616.725664 153.432576 616.725664 149.954679 
Q 616.725664 146.464305 622.091706 144.433712 
Q 627.457749 142.4 636.645422 142.4 
Q 639.726366 142.4 642.555161 142.674489 
Q 645.383956 142.945858 648 143.482359 
L 648 146.492378 
Q 645.360317 145.781202 642.79943 145.450568 
Q 640.238543 145.119934 637.409749 145.119934 
Q 632.335253 145.119934 629.427662 146.408159 
Q 626.52795 147.693266 626.52795 149.954679 
Q 626.52795 152.206734 629.427662 153.49496 
Q 632.335253 154.780066 637.409749 154.780066 
Q 640.238543 154.780066 642.79943 154.449432 
Q 645.360317 154.115679 648 153.404503 
z
" style="fill:#0000ff;"/>
   </g>
   <g id="patch_40">
    <path clip-path="url(#p749b093626)" d="M 616.725664 127.3 
L 648 127.3 
L 648 130.244921 
L 636.748512 130.244921 
L 636.748512 142.4 
L 627.998971 142.4 
L 627.998971 130.244921 
L 616.725664 130.244921 
z
" style="fill:#ff0000;"/>
   </g>
   <g id="patch_41">
    <path clip-path="url(#p749b093626)" d="M 648 123.201384 
Q 644.845932 125.250692 641.453557 126.280025 
Q 638.061181 127.3 634.444517 127.3 
Q 626.271976 127.3 621.49882 121.198864 
Q 616.725664 115.097728 616.725664 104.664036 
Q 616.725664 94.108697 621.582928 88.054348 
Q 626.447202 82 634.907113 82 
Q 638.166317 82 641.152168 82.823466 
Q 644.145028 83.637575 646.794445 85.247077 
L 646.794445 94.277133 
Q 644.06092 92.20911 641.35543 91.189134 
Q 638.649941 90.159802 635.930433 90.159802 
Q 630.897943 90.159802 628.171426 93.921545 
Q 625.444909 97.673931 625.444909 104.664036 
Q 625.444909 111.588639 628.073299 115.369097 
Q 630.701689 119.140198 635.537927 119.140198 
Q 636.855626 119.140198 637.984082 118.924974 
Q 639.112537 118.700392 640.009694 118.232514 
L 640.009694 109.754555 
L 634.85805 109.754555 
L 634.85805 102.202995 
L 648 102.202995 
z
" style="fill:#ffa600;"/>
   </g>
   <g id="patch_42">
    <path clip-path="url(#p749b093626)" d="M 638.389424 70.997 
L 626.361817 70.997 
L 624.462721 82 
L 616.725664 82 
L 627.774949 21.6 
L 636.950715 21.6 
L 648 82 
L 640.269337 82 
z
M 628.280095 59.786884 
L 636.451963 59.786884 
L 632.372423 35.761509 
z
" style="fill:#008000;"/>
   </g>
  </g>
 </g>
 <defs>
  <clipPath id="p749b093626">
   <rect height="135.9" width="558" x="90" y="21.6"/>
  </clipPath>
 </defs>
</svg>
