<?xml version="1.0" encoding="utf-8" standalone="no"?>
<!DOCTYPE svg PUBLIC "-//W3C//DTD SVG 1.1//EN"
  "http://www.w3.org/Graphics/SVG/1.1/DTD/svg11.dtd">
<!-- Created with matplotlib (https://matplotlib.org/) -->
<svg height="180pt" version="1.1" viewBox="0 0 720 180" width="720pt" xmlns="http://www.w3.org/2000/svg" xmlns:xlink="http://www.w3.org/1999/xlink">
 <metadata>
  <rdf:RDF xmlns:cc="http://creativecommons.org/ns#" xmlns:dc="http://purl.org/dc/elements/1.1/" xmlns:rdf="http://www.w3.org/1999/02/22-rdf-syntax-ns#">
   <cc:Work>
    <dc:type rdf:resource="http://purl.org/dc/dcmitype/StillImage"/>
    <dc:date>2021-08-04T23:32:58.248368</dc:date>
    <dc:format>image/svg+xml</dc:format>
    <dc:creator>
     <cc:Agent>
      <dc:title>Matplotlib v3.3.2, https://matplotlib.org/</dc:title>
     </cc:Agent>
    </dc:creator>
   </cc:Work>
  </rdf:RDF>
 </metadata>
 <defs>
  <style type="text/css">*{stroke-linecap:butt;stroke-linejoin:round;}</style>
 </defs>
 <g id="figure_1">
  <g id="patch_1">
   <path d="M 0 180 
L 720 180 
L 720 0 
L 0 0 
z
" style="fill:none;"/>
  </g>
  <g id="axes_1">
   <g id="line2d_1">
    <path clip-path="url(#p2456a64434)" d="M 90 157.5 
L 648 157.5 
" style="fill:none;stroke:#000000;stroke-linecap:square;stroke-width:0.5;"/>
   </g>
   <g id="patch_2">
    <path clip-path="url(#p2456a64434)" d="M 111.66376 154.74925 
L 99.636153 154.74925 
L 97.737057 157.5 
L 90 157.5 
L 101.049285 142.4 
L 110.225051 142.4 
L 121.274336 157.5 
L 113.543673 157.5 
z
M 101.554432 151.946721 
L 109.726299 151.946721 
L 105.64676 145.940377 
z
" style="fill:#008000;"/>
   </g>
   <g id="patch_3">
    <path clip-path="url(#p2456a64434)" d="M 90 127.3 
L 121.274336 127.3 
L 121.274336 130.244921 
L 110.022848 130.244921 
L 110.022848 142.4 
L 101.273307 142.4 
L 101.273307 130.244921 
L 90 130.244921 
z
" style="fill:#ff0000;"/>
   </g>
   <g id="patch_4">
    <path clip-path="url(#p2456a64434)" d="M 121.274336 125.135282 
Q 118.658292 126.208283 115.829497 126.751023 
Q 113.000702 127.3 109.919759 127.3 
Q 100.732085 127.3 95.366043 123.232576 
Q 90 119.165152 90 112.209358 
Q 90 105.22861 95.366043 101.167424 
Q 100.732085 97.1 109.919759 97.1 
Q 113.000702 97.1 115.829497 97.648977 
Q 118.658292 98.191717 121.274336 99.264718 
L 121.274336 105.284755 
Q 118.634653 103.862404 116.073766 103.201136 
Q 113.51288 102.539868 110.684085 102.539868 
Q 105.609589 102.539868 102.701998 105.116319 
Q 99.802286 107.686532 99.802286 112.209358 
Q 99.802286 116.713468 102.701998 119.289919 
Q 105.609589 121.860132 110.684085 121.860132 
Q 113.51288 121.860132 116.073766 121.198864 
Q 118.634653 120.531357 121.274336 119.109006 
z
" style="fill:#0000ff;"/>
   </g>
   <g id="patch_5">
    <path clip-path="url(#p2456a64434)" d="M 121.274336 90.268973 
Q 118.120268 93.684487 114.727893 95.400041 
Q 111.335518 97.1 107.718853 97.1 
Q 99.546312 97.1 94.773156 86.93144 
Q 90 76.76288 90 59.373394 
Q 90 41.781161 94.857265 31.69058 
Q 99.721538 21.6 108.18145 21.6 
Q 111.440653 21.6 114.426504 22.972444 
Q 117.419364 24.329291 120.068781 27.011795 
L 120.068781 42.061888 
Q 117.335256 38.615183 114.629766 36.915224 
Q 111.924277 35.199669 109.204769 35.199669 
Q 104.172279 35.199669 101.445762 41.469242 
Q 98.719246 47.723218 98.719246 59.373394 
Q 98.719246 70.914398 101.347636 77.215162 
Q 103.976026 83.500331 108.812263 83.500331 
Q 110.129963 83.500331 111.258418 83.141624 
Q 112.386874 82.767321 113.284031 81.987523 
L 113.284031 67.857591 
L 108.132386 67.857591 
L 108.132386 55.271659 
L 121.274336 55.271659 
z
" style="fill:#ffa600;"/>
   </g>
   <g id="patch_6">
    <path clip-path="url(#p2456a64434)" d="M 122.920354 142.4 
L 154.19469 142.4 
L 154.19469 145.344921 
L 142.943202 145.344921 
L 142.943202 157.5 
L 134.193661 157.5 
L 134.193661 145.344921 
L 122.920354 145.344921 
z
" style="fill:#ff0000;"/>
   </g>
   <g id="patch_7">
    <path clip-path="url(#p2456a64434)" d="M 144.584114 136.8985 
L 132.556507 136.8985 
L 130.657411 142.4 
L 122.920354 142.4 
L 133.969639 112.2 
L 143.145405 112.2 
L 154.19469 142.4 
L 146.464027 142.4 
z
M 134.474786 131.293442 
L 142.646653 131.293442 
L 138.567114 119.280754 
z
" style="fill:#008000;"/>
   </g>
   <g id="patch_8">
    <path clip-path="url(#p2456a64434)" d="M 154.19469 108.952923 
Q 151.578646 110.562425 148.749851 111.376534 
Q 145.921056 112.2 142.840113 112.2 
Q 133.652439 112.2 128.286397 106.098864 
Q 122.920354 99.997728 122.920354 89.564036 
Q 122.920354 79.092915 128.286397 73.001136 
Q 133.652439 66.9 142.840113 66.9 
Q 145.921056 66.9 148.749851 67.723466 
Q 151.578646 68.537575 154.19469 70.147077 
L 154.19469 79.177133 
Q 151.555007 77.043607 148.99412 76.051704 
Q 146.433234 75.059802 143.604439 75.059802 
Q 138.529943 75.059802 135.622352 78.924478 
Q 132.72264 82.779798 132.72264 89.564036 
Q 132.72264 96.320202 135.622352 100.184879 
Q 138.529943 104.040198 143.604439 104.040198 
Q 146.433234 104.040198 148.99412 103.048296 
Q 151.555007 102.047036 154.19469 99.91351 
z
" style="fill:#0000ff;"/>
   </g>
   <g id="patch_9">
    <path clip-path="url(#p2456a64434)" d="M 154.19469 62.801384 
Q 151.040622 64.850692 147.648247 65.880025 
Q 144.255872 66.9 140.639207 66.9 
Q 132.466666 66.9 127.69351 60.798864 
Q 122.920354 54.697728 122.920354 44.264036 
Q 122.920354 33.708697 127.777619 27.654348 
Q 132.641892 21.6 141.101804 21.6 
Q 144.361007 21.6 147.346858 22.423466 
Q 150.339718 23.237575 152.989135 24.847077 
L 152.989135 33.877133 
Q 150.25561 31.80911 147.55012 30.789134 
Q 144.844631 29.759802 142.125123 29.759802 
Q 137.092633 29.759802 134.366116 33.521545 
Q 131.6396 37.273931 131.6396 44.264036 
Q 131.6396 51.188639 134.26799 54.969097 
Q 136.89638 58.740198 141.732617 58.740198 
Q 143.050317 58.740198 144.178772 58.524974 
Q 145.307228 58.300392 146.204385 57.832514 
L 146.204385 49.354555 
L 141.05274 49.354555 
L 141.05274 41.802995 
L 154.19469 41.802995 
z
" style="fill:#ffa600;"/>
   </g>
   <g id="patch_10">
    <path clip-path="url(#p2456a64434)" d="M 187.115044 156.133795 
Q 183.960976 156.816897 180.568601 157.160008 
Q 177.176226 157.5 173.559561 157.5 
Q 165.38702 157.5 160.613864 155.466288 
Q 155.840708 153.432576 155.840708 149.954679 
Q 155.840708 146.436232 160.697973 144.418116 
Q 165.562246 142.4 174.022158 142.4 
Q 177.281361 142.4 180.267212 142.674489 
Q 183.260072 142.945858 185.909489 143.482359 
L 185.909489 146.492378 
Q 183.175964 145.803037 180.470474 145.463045 
Q 177.764985 145.119934 175.045477 145.119934 
Q 170.012987 145.119934 167.28647 146.373848 
Q 164.559954 147.624644 164.559954 149.954679 
Q 164.559954 152.26288 167.188344 153.523032 
Q 169.816734 154.780066 174.652971 154.780066 
Q 175.970671 154.780066 177.099126 154.708325 
Q 178.227582 154.633464 179.124739 154.477505 
L 179.124739 151.651518 
L 173.973094 151.651518 
L 173.973094 149.134332 
L 187.115044 149.134332 
z
" style="fill:#ffa600;"/>
   </g>
   <g id="patch_11">
    <path clip-path="url(#p2456a64434)" d="M 155.840708 127.3 
L 187.115044 127.3 
L 187.115044 130.244921 
L 175.863556 130.244921 
L 175.863556 142.4 
L 167.114015 142.4 
L 167.114015 130.244921 
L 155.840708 130.244921 
z
" style="fill:#ff0000;"/>
   </g>
   <g id="patch_12">
    <path clip-path="url(#p2456a64434)" d="M 187.115044 124.052923 
Q 184.499 125.662425 181.670205 126.476534 
Q 178.84141 127.3 175.760467 127.3 
Q 166.572793 127.3 161.206751 121.198864 
Q 155.840708 115.097728 155.840708 104.664036 
Q 155.840708 94.192915 161.206751 88.101136 
Q 166.572793 82 175.760467 82 
Q 178.84141 82 181.670205 82.823466 
Q 184.499 83.637575 187.115044 85.247077 
L 187.115044 94.277133 
Q 184.475361 92.143607 181.914474 91.151704 
Q 179.353588 90.159802 176.524793 90.159802 
Q 171.450297 90.159802 168.542706 94.024478 
Q 165.642994 97.879798 165.642994 104.664036 
Q 165.642994 111.420202 168.542706 115.284879 
Q 171.450297 119.140198 176.524793 119.140198 
Q 179.353588 119.140198 181.914474 118.148296 
Q 184.475361 117.147036 187.115044 115.01351 
z
" style="fill:#0000ff;"/>
   </g>
   <g id="patch_13">
    <path clip-path="url(#p2456a64434)" d="M 177.504468 70.997 
L 165.476861 70.997 
L 163.577765 82 
L 155.840708 82 
L 166.889993 21.6 
L 176.065759 21.6 
L 187.115044 82 
L 179.384381 82 
z
M 167.39514 59.786884 
L 175.567007 59.786884 
L 171.487467 35.761509 
z
" style="fill:#008000;"/>
   </g>
   <g id="patch_14">
    <path clip-path="url(#p2456a64434)" d="M 220.035398 156.133795 
Q 216.88133 156.816897 213.488955 157.160008 
Q 210.09658 157.5 206.479915 157.5 
Q 198.307374 157.5 193.534218 155.466288 
Q 188.761062 153.432576 188.761062 149.954679 
Q 188.761062 146.436232 193.618327 144.418116 
Q 198.4826 142.4 206.942512 142.4 
Q 210.201715 142.4 213.187566 142.674489 
Q 216.180426 142.945858 218.829843 143.482359 
L 218.829843 146.492378 
Q 216.096318 145.803037 213.390828 145.463045 
Q 210.685339 145.119934 207.965831 145.119934 
Q 202.933341 145.119934 200.206824 146.373848 
Q 197.480308 147.624644 197.480308 149.954679 
Q 197.480308 152.26288 200.108698 153.523032 
Q 202.737088 154.780066 207.573325 154.780066 
Q 208.891025 154.780066 210.01948 154.708325 
Q 211.147936 154.633464 212.045093 154.477505 
L 212.045093 151.651518 
L 206.893448 151.651518 
L 206.893448 149.134332 
L 220.035398 149.134332 
z
" style="fill:#ffa600;"/>
   </g>
   <g id="patch_15">
    <path clip-path="url(#p2456a64434)" d="M 220.035398 140.235282 
Q 217.419354 141.308283 214.590559 141.851023 
Q 211.761764 142.4 208.680821 142.4 
Q 199.493147 142.4 194.127105 138.332576 
Q 188.761062 134.265152 188.761062 127.309358 
Q 188.761062 120.32861 194.127105 116.267424 
Q 199.493147 112.2 208.680821 112.2 
Q 211.761764 112.2 214.590559 112.748977 
Q 217.419354 113.291717 220.035398 114.364718 
L 220.035398 120.384755 
Q 217.395715 118.962404 214.834828 118.301136 
Q 212.273942 117.639868 209.445147 117.639868 
Q 204.370651 117.639868 201.46306 120.216319 
Q 198.563348 122.786532 198.563348 127.309358 
Q 198.563348 131.813468 201.46306 134.389919 
Q 204.370651 136.960132 209.445147 136.960132 
Q 212.273942 136.960132 214.834828 136.298864 
Q 217.395715 135.631357 220.035398 134.209006 
z
" style="fill:#0000ff;"/>
   </g>
   <g id="patch_16">
    <path clip-path="url(#p2456a64434)" d="M 210.424822 95.695499 
L 198.397215 95.695499 
L 196.498119 112.2 
L 188.761062 112.2 
L 199.810347 21.6 
L 208.986113 21.6 
L 220.035398 112.2 
L 212.304735 112.2 
z
M 200.315494 78.880326 
L 208.487361 78.880326 
L 204.407821 42.842263 
z
" style="fill:#008000;"/>
   </g>
   <g id="patch_17">
    <path clip-path="url(#p2456a64434)" d="M 243.345176 132.743249 
L 231.317569 132.743249 
L 229.418473 157.5 
L 221.681416 157.5 
L 232.730701 21.6 
L 241.906467 21.6 
L 252.955752 157.5 
L 245.225089 157.5 
z
M 233.235848 107.520489 
L 241.407715 107.520489 
L 237.328175 53.463395 
z
" style="fill:#008000;"/>
   </g>
   <g id="patch_18">
    <path clip-path="url(#p2456a64434)" d="M 285.876106 153.401384 
Q 282.722038 155.450692 279.329663 156.480025 
Q 275.937288 157.5 272.320623 157.5 
Q 264.148082 157.5 259.374926 151.398864 
Q 254.60177 145.297728 254.60177 134.864036 
Q 254.60177 124.308697 259.459035 118.254348 
Q 264.323308 112.2 272.78322 112.2 
Q 276.042423 112.2 279.028274 113.023466 
Q 282.021134 113.837575 284.670551 115.447077 
L 284.670551 124.477133 
Q 281.937026 122.40911 279.231536 121.389134 
Q 276.526047 120.359802 273.806539 120.359802 
Q 268.774049 120.359802 266.047532 124.121545 
Q 263.321016 127.873931 263.321016 134.864036 
Q 263.321016 141.788639 265.949406 145.569097 
Q 268.577796 149.340198 273.414033 149.340198 
Q 274.731733 149.340198 275.860188 149.124974 
Q 276.988644 148.900392 277.885801 148.432514 
L 277.885801 139.954555 
L 272.734156 139.954555 
L 272.734156 132.402995 
L 285.876106 132.402995 
z
" style="fill:#ffa600;"/>
   </g>
   <g id="patch_19">
    <path clip-path="url(#p2456a64434)" d="M 276.26553 95.695499 
L 264.237923 95.695499 
L 262.338827 112.2 
L 254.60177 112.2 
L 265.651055 21.6 
L 274.826821 21.6 
L 285.876106 112.2 
L 278.145443 112.2 
z
M 266.156202 78.880326 
L 274.328069 78.880326 
L 270.248529 42.842263 
z
" style="fill:#008000;"/>
   </g>
   <g id="patch_20">
    <path clip-path="url(#p2456a64434)" d="M 318.79646 156.133795 
Q 315.642392 156.816897 312.250017 157.160008 
Q 308.857642 157.5 305.240977 157.5 
Q 297.068436 157.5 292.29528 155.466288 
Q 287.522124 153.432576 287.522124 149.954679 
Q 287.522124 146.436232 292.379389 144.418116 
Q 297.243662 142.4 305.703574 142.4 
Q 308.962777 142.4 311.948628 142.674489 
Q 314.941488 142.945858 317.590905 143.482359 
L 317.590905 146.492378 
Q 314.85738 145.803037 312.15189 145.463045 
Q 309.446401 145.119934 306.726893 145.119934 
Q 301.694403 145.119934 298.967886 146.373848 
Q 296.24137 147.624644 296.24137 149.954679 
Q 296.24137 152.26288 298.86976 153.523032 
Q 301.49815 154.780066 306.334387 154.780066 
Q 307.652087 154.780066 308.780542 154.708325 
Q 309.908998 154.633464 310.806155 154.477505 
L 310.806155 151.651518 
L 305.65451 151.651518 
L 305.65451 149.134332 
L 318.79646 149.134332 
z
" style="fill:#ffa600;"/>
   </g>
   <g id="patch_21">
    <path clip-path="url(#p2456a64434)" d="M 309.185884 136.8985 
L 297.158277 136.8985 
L 295.259181 142.4 
L 287.522124 142.4 
L 298.571409 112.2 
L 307.747175 112.2 
L 318.79646 142.4 
L 311.065797 142.4 
z
M 299.076556 131.293442 
L 307.248423 131.293442 
L 303.168883 119.280754 
z
" style="fill:#008000;"/>
   </g>
   <g id="patch_22">
    <path clip-path="url(#p2456a64434)" d="M 318.79646 110.035282 
Q 316.180416 111.108283 313.351621 111.651023 
Q 310.522826 112.2 307.441883 112.2 
Q 298.254209 112.2 292.888166 108.132576 
Q 287.522124 104.065152 287.522124 97.109358 
Q 287.522124 90.12861 292.888166 86.067424 
Q 298.254209 82 307.441883 82 
Q 310.522826 82 313.351621 82.548977 
Q 316.180416 83.091717 318.79646 84.164718 
L 318.79646 90.184755 
Q 316.156777 88.762404 313.59589 88.101136 
Q 311.035004 87.439868 308.206209 87.439868 
Q 303.131713 87.439868 300.224122 90.016319 
Q 297.32441 92.586532 297.32441 97.109358 
Q 297.32441 101.613468 300.224122 104.189919 
Q 303.131713 106.760132 308.206209 106.760132 
Q 311.035004 106.760132 313.59589 106.098864 
Q 316.156777 105.431357 318.79646 104.009006 
z
" style="fill:#0000ff;"/>
   </g>
   <g id="patch_23">
    <path clip-path="url(#p2456a64434)" d="M 287.522124 21.6 
L 318.79646 21.6 
L 318.79646 33.379683 
L 307.544972 33.379683 
L 307.544972 82 
L 298.795431 82 
L 298.795431 33.379683 
L 287.522124 33.379683 
z
" style="fill:#ff0000;"/>
   </g>
   <g id="patch_24">
    <path clip-path="url(#p2456a64434)" d="M 351.716814 156.417641 
Q 349.10077 156.954142 346.271975 157.225511 
Q 343.44318 157.5 340.362237 157.5 
Q 331.174563 157.5 325.80852 155.466288 
Q 320.442478 153.432576 320.442478 149.954679 
Q 320.442478 146.464305 325.80852 144.433712 
Q 331.174563 142.4 340.362237 142.4 
Q 343.44318 142.4 346.271975 142.674489 
Q 349.10077 142.945858 351.716814 143.482359 
L 351.716814 146.492378 
Q 349.077131 145.781202 346.516244 145.450568 
Q 343.955358 145.119934 341.126563 145.119934 
Q 336.052067 145.119934 333.144476 146.408159 
Q 330.244764 147.693266 330.244764 149.954679 
Q 330.244764 152.206734 333.144476 153.49496 
Q 336.052067 154.780066 341.126563 154.780066 
Q 343.955358 154.780066 346.516244 154.449432 
Q 349.077131 154.115679 351.716814 153.404503 
z
" style="fill:#0000ff;"/>
   </g>
   <g id="patch_25">
    <path clip-path="url(#p2456a64434)" d="M 351.716814 141.033795 
Q 348.562746 141.716897 345.170371 142.060008 
Q 341.777996 142.4 338.161331 142.4 
Q 329.98879 142.4 325.215634 140.366288 
Q 320.442478 138.332576 320.442478 134.854679 
Q 320.442478 131.336232 325.299743 129.318116 
Q 330.164016 127.3 338.623928 127.3 
Q 341.883131 127.3 344.868982 127.574489 
Q 347.861842 127.845858 350.511259 128.382359 
L 350.511259 131.392378 
Q 347.777734 130.703037 345.072244 130.363045 
Q 342.366755 130.019934 339.647247 130.019934 
Q 334.614757 130.019934 331.88824 131.273848 
Q 329.161724 132.524644 329.161724 134.854679 
Q 329.161724 137.16288 331.790114 138.423032 
Q 334.418504 139.680066 339.254741 139.680066 
Q 340.572441 139.680066 341.700896 139.608325 
Q 342.829351 139.533464 343.726509 139.377505 
L 343.726509 136.551518 
L 338.574864 136.551518 
L 338.574864 134.034332 
L 351.716814 134.034332 
z
" style="fill:#ffa600;"/>
   </g>
   <g id="patch_26">
    <path clip-path="url(#p2456a64434)" d="M 342.106238 121.7985 
L 330.078631 121.7985 
L 328.179535 127.3 
L 320.442478 127.3 
L 331.491763 97.1 
L 340.667529 97.1 
L 351.716814 127.3 
L 343.986151 127.3 
z
M 331.99691 116.193442 
L 340.168777 116.193442 
L 336.089237 104.180754 
z
" style="fill:#008000;"/>
   </g>
   <g id="patch_27">
    <path clip-path="url(#p2456a64434)" d="M 320.442478 21.6 
L 351.716814 21.6 
L 351.716814 36.324604 
L 340.465326 36.324604 
L 340.465326 97.1 
L 331.715785 97.1 
L 331.715785 36.324604 
L 320.442478 36.324604 
z
" style="fill:#ff0000;"/>
   </g>
   <g id="patch_28">
    <path clip-path="url(#p2456a64434)" d="M 375.026592 132.743249 
L 362.998985 132.743249 
L 361.099889 157.5 
L 353.362832 157.5 
L 364.412117 21.6 
L 373.587883 21.6 
L 384.637168 157.5 
L 376.906505 157.5 
z
M 364.917264 107.520489 
L 373.089131 107.520489 
L 369.009591 53.463395 
z
" style="fill:#008000;"/>
   </g>
   <g id="patch_29">
    <path clip-path="url(#p2456a64434)" d="M 386.283186 21.6 
L 417.557522 21.6 
L 417.557522 48.104286 
L 406.306034 48.104286 
L 406.306034 157.5 
L 397.556493 157.5 
L 397.556493 48.104286 
L 386.283186 48.104286 
z
" style="fill:#ff0000;"/>
   </g>
   <g id="patch_30">
    <path clip-path="url(#p2456a64434)" d="M 450.477876 145.204152 
Q 447.323808 151.352076 443.931433 154.440074 
Q 440.539057 157.5 436.922393 157.5 
Q 428.749852 157.5 423.976696 139.196592 
Q 419.20354 120.893183 419.20354 89.592109 
Q 419.20354 57.92609 424.060805 39.763045 
Q 428.925078 21.6 437.384989 21.6 
Q 440.644193 21.6 443.630044 24.070399 
Q 446.622904 26.512725 449.272321 31.341231 
L 449.272321 58.431398 
Q 446.538796 52.227329 443.833306 49.167403 
Q 441.127817 46.079405 438.408309 46.079405 
Q 433.375819 46.079405 430.649302 57.364635 
Q 427.922786 68.621793 427.922786 89.592109 
Q 427.922786 110.365916 430.551176 121.707292 
Q 433.179565 133.020595 438.015803 133.020595 
Q 439.333503 133.020595 440.461958 132.374923 
Q 441.590413 131.701177 442.487571 130.297542 
L 442.487571 104.863665 
L 437.335926 104.863665 
L 437.335926 82.208986 
L 450.477876 82.208986 
z
" style="fill:#ffa600;"/>
   </g>
   <g id="patch_31">
    <path clip-path="url(#p2456a64434)" d="M 452.123894 142.4 
L 483.39823 142.4 
L 483.39823 145.344921 
L 472.146742 145.344921 
L 472.146742 157.5 
L 463.397201 157.5 
L 463.397201 145.344921 
L 452.123894 145.344921 
z
" style="fill:#ff0000;"/>
   </g>
   <g id="patch_32">
    <path clip-path="url(#p2456a64434)" d="M 473.787654 120.393999 
L 461.760047 120.393999 
L 459.860951 142.4 
L 452.123894 142.4 
L 463.173179 21.6 
L 472.348945 21.6 
L 483.39823 142.4 
L 475.667567 142.4 
z
M 463.678326 97.973768 
L 471.850193 97.973768 
L 467.770653 49.923018 
z
" style="fill:#008000;"/>
   </g>
   <g id="patch_33">
    <path clip-path="url(#p2456a64434)" d="M 485.044248 142.4 
L 516.318584 142.4 
L 516.318584 145.344921 
L 505.067096 145.344921 
L 505.067096 157.5 
L 496.317555 157.5 
L 496.317555 145.344921 
L 485.044248 145.344921 
z
" style="fill:#ff0000;"/>
   </g>
   <g id="patch_34">
    <path clip-path="url(#p2456a64434)" d="M 506.708008 131.397 
L 494.680401 131.397 
L 492.781305 142.4 
L 485.044248 142.4 
L 496.093533 82 
L 505.269299 82 
L 516.318584 142.4 
L 508.587921 142.4 
z
M 496.59868 120.186884 
L 504.770547 120.186884 
L 500.691007 96.161509 
z
" style="fill:#008000;"/>
   </g>
   <g id="patch_35">
    <path clip-path="url(#p2456a64434)" d="M 516.318584 76.535179 
Q 513.164516 79.267589 509.772141 80.640033 
Q 506.379765 82 502.763101 82 
Q 494.59056 82 489.817404 73.865152 
Q 485.044248 65.730304 485.044248 51.818715 
Q 485.044248 37.744929 489.901512 29.672464 
Q 494.765786 21.6 503.225697 21.6 
Q 506.484901 21.6 509.470752 22.697955 
Q 512.463612 23.783433 515.113029 25.929436 
L 515.113029 37.96951 
Q 512.379504 35.212146 509.674014 33.852179 
Q 506.968525 32.479736 504.249017 32.479736 
Q 499.216527 32.479736 496.49001 37.495394 
Q 493.763493 42.498575 493.763493 51.818715 
Q 493.763493 61.051518 496.391883 66.09213 
Q 499.020273 71.120264 503.856511 71.120264 
Q 505.174211 71.120264 506.302666 70.833299 
Q 507.431121 70.533857 508.328279 69.910019 
L 508.328279 58.606073 
L 503.176634 58.606073 
L 503.176634 48.537327 
L 516.318584 48.537327 
z
" style="fill:#ffa600;"/>
   </g>
   <g id="patch_36">
    <path clip-path="url(#p2456a64434)" d="M 517.964602 112.2 
L 549.238938 112.2 
L 549.238938 121.034762 
L 537.98745 121.034762 
L 537.98745 157.5 
L 529.237909 157.5 
L 529.237909 121.034762 
L 517.964602 121.034762 
z
" style="fill:#ff0000;"/>
   </g>
   <g id="patch_37">
    <path clip-path="url(#p2456a64434)" d="M 549.238938 105.705846 
Q 546.622894 108.92485 543.794099 110.553068 
Q 540.965304 112.2 537.88436 112.2 
Q 528.696687 112.2 523.330644 99.997728 
Q 517.964602 87.795455 517.964602 66.928073 
Q 517.964602 45.985829 523.330644 33.802272 
Q 528.696687 21.6 537.88436 21.6 
Q 540.965304 21.6 543.794099 23.246932 
Q 546.622894 24.87515 549.238938 28.094154 
L 549.238938 46.154266 
Q 546.599255 41.887213 544.038368 39.903408 
Q 541.477481 37.919603 538.648687 37.919603 
Q 533.574191 37.919603 530.6666 45.648957 
Q 527.766888 53.359595 527.766888 66.928073 
Q 527.766888 80.440405 530.6666 88.169758 
Q 533.574191 95.880397 538.648687 95.880397 
Q 541.477481 95.880397 544.038368 93.896592 
Q 546.599255 91.894071 549.238938 87.627019 
z
" style="fill:#0000ff;"/>
   </g>
   <g id="patch_38">
    <path clip-path="url(#p2456a64434)" d="M 582.159292 153.170564 
Q 579.543248 155.316567 576.714453 156.402045 
Q 573.885658 157.5 570.804714 157.5 
Q 561.617041 157.5 556.250998 149.365152 
Q 550.884956 141.230304 550.884956 127.318715 
Q 550.884956 113.35722 556.250998 105.234848 
Q 561.617041 97.1 570.804714 97.1 
Q 573.885658 97.1 576.714453 98.197955 
Q 579.543248 99.283433 582.159292 101.429436 
L 582.159292 113.46951 
Q 579.519609 110.624809 576.958722 109.302272 
Q 574.397835 107.979736 571.569041 107.979736 
Q 566.494545 107.979736 563.586954 113.132638 
Q 560.687242 118.273063 560.687242 127.318715 
Q 560.687242 136.326937 563.586954 141.479839 
Q 566.494545 146.620264 571.569041 146.620264 
Q 574.397835 146.620264 576.958722 145.297728 
Q 579.519609 143.962714 582.159292 141.118013 
z
" style="fill:#0000ff;"/>
   </g>
   <g id="patch_39">
    <path clip-path="url(#p2456a64434)" d="M 550.884956 21.6 
L 582.159292 21.6 
L 582.159292 36.324604 
L 570.907804 36.324604 
L 570.907804 97.1 
L 562.158263 97.1 
L 562.158263 36.324604 
L 550.884956 36.324604 
z
" style="fill:#ff0000;"/>
   </g>
   <g id="patch_40">
    <path clip-path="url(#p2456a64434)" d="M 615.079646 156.417641 
Q 612.463602 156.954142 609.634807 157.225511 
Q 606.806012 157.5 603.725068 157.5 
Q 594.537395 157.5 589.171352 155.466288 
Q 583.80531 153.432576 583.80531 149.954679 
Q 583.80531 146.464305 589.171352 144.433712 
Q 594.537395 142.4 603.725068 142.4 
Q 606.806012 142.4 609.634807 142.674489 
Q 612.463602 142.945858 615.079646 143.482359 
L 615.079646 146.492378 
Q 612.439963 145.781202 609.879076 145.450568 
Q 607.318189 145.119934 604.489395 145.119934 
Q 599.414899 145.119934 596.507308 146.408159 
Q 593.607596 147.693266 593.607596 149.954679 
Q 593.607596 152.206734 596.507308 153.49496 
Q 599.414899 154.780066 604.489395 154.780066 
Q 607.318189 154.780066 609.879076 154.449432 
Q 612.439963 154.115679 615.079646 153.404503 
z
" style="fill:#0000ff;"/>
   </g>
   <g id="patch_41">
    <path clip-path="url(#p2456a64434)" d="M 615.079646 141.033795 
Q 611.925578 141.716897 608.533203 142.060008 
Q 605.140827 142.4 601.524163 142.4 
Q 593.351622 142.4 588.578466 140.366288 
Q 583.80531 138.332576 583.80531 134.854679 
Q 583.80531 131.336232 588.662574 129.318116 
Q 593.526848 127.3 601.986759 127.3 
Q 605.245963 127.3 608.231814 127.574489 
Q 611.224674 127.845858 613.874091 128.382359 
L 613.874091 131.392378 
Q 611.140566 130.703037 608.435076 130.363045 
Q 605.729587 130.019934 603.010079 130.019934 
Q 597.977589 130.019934 595.251072 131.273848 
Q 592.524555 132.524644 592.524555 134.854679 
Q 592.524555 137.16288 595.152945 138.423032 
Q 597.781335 139.680066 602.617573 139.680066 
Q 603.935272 139.680066 605.063728 139.608325 
Q 606.192183 139.533464 607.08934 139.377505 
L 607.08934 136.551518 
L 601.937696 136.551518 
L 601.937696 134.034332 
L 615.079646 134.034332 
z
" style="fill:#ffa600;"/>
   </g>
   <g id="patch_42">
    <path clip-path="url(#p2456a64434)" d="M 605.46907 121.7985 
L 593.441463 121.7985 
L 591.542367 127.3 
L 583.80531 127.3 
L 594.854595 97.1 
L 604.030361 97.1 
L 615.079646 127.3 
L 607.348983 127.3 
z
M 595.359741 116.193442 
L 603.531609 116.193442 
L 599.452069 104.180754 
z
" style="fill:#008000;"/>
   </g>
   <g id="patch_43">
    <path clip-path="url(#p2456a64434)" d="M 583.80531 21.6 
L 615.079646 21.6 
L 615.079646 36.324604 
L 603.828158 36.324604 
L 603.828158 97.1 
L 595.078617 97.1 
L 595.078617 36.324604 
L 583.80531 36.324604 
z
" style="fill:#ff0000;"/>
   </g>
   <g id="patch_44">
    <path clip-path="url(#p2456a64434)" d="M 648 156.417641 
Q 645.383956 156.954142 642.555161 157.225511 
Q 639.726366 157.5 636.645422 157.5 
Q 627.457749 157.5 622.091706 155.466288 
Q 616.725664 153.432576 616.725664 149.954679 
Q 616.725664 146.464305 622.091706 144.433712 
Q 627.457749 142.4 636.645422 142.4 
Q 639.726366 142.4 642.555161 142.674489 
Q 645.383956 142.945858 648 143.482359 
L 648 146.492378 
Q 645.360317 145.781202 642.79943 145.450568 
Q 640.238543 145.119934 637.409749 145.119934 
Q 632.335253 145.119934 629.427662 146.408159 
Q 626.52795 147.693266 626.52795 149.954679 
Q 626.52795 152.206734 629.427662 153.49496 
Q 632.335253 154.780066 637.409749 154.780066 
Q 640.238543 154.780066 642.79943 154.449432 
Q 645.360317 154.115679 648 153.404503 
z
" style="fill:#0000ff;"/>
   </g>
   <g id="patch_45">
    <path clip-path="url(#p2456a64434)" d="M 638.389424 136.8985 
L 626.361817 136.8985 
L 624.462721 142.4 
L 616.725664 142.4 
L 627.774949 112.2 
L 636.950715 112.2 
L 648 142.4 
L 640.269337 142.4 
z
M 628.280095 131.293442 
L 636.451963 131.293442 
L 632.372423 119.280754 
z
" style="fill:#008000;"/>
   </g>
   <g id="patch_46">
    <path clip-path="url(#p2456a64434)" d="M 648 109.467589 
Q 644.845932 110.833795 641.453557 111.520017 
Q 638.061181 112.2 634.444517 112.2 
Q 626.271976 112.2 621.49882 108.132576 
Q 616.725664 104.065152 616.725664 97.109358 
Q 616.725664 90.072464 621.582928 86.036232 
Q 626.447202 82 634.907113 82 
Q 638.166317 82 641.152168 82.548977 
Q 644.145028 83.091717 646.794445 84.164718 
L 646.794445 90.184755 
Q 644.06092 88.806073 641.35543 88.12609 
Q 638.649941 87.439868 635.930433 87.439868 
Q 630.897943 87.439868 628.171426 89.947697 
Q 625.444909 92.449287 625.444909 97.109358 
Q 625.444909 101.725759 628.073299 104.246065 
Q 630.701689 106.760132 635.537927 106.760132 
Q 636.855626 106.760132 637.984082 106.616649 
Q 639.112537 106.466928 640.009694 106.155009 
L 640.009694 100.503037 
L 634.85805 100.503037 
L 634.85805 95.468663 
L 648 95.468663 
z
" style="fill:#ffa600;"/>
   </g>
   <g id="patch_47">
    <path clip-path="url(#p2456a64434)" d="M 616.725664 21.6 
L 648 21.6 
L 648 33.379683 
L 636.748512 33.379683 
L 636.748512 82 
L 627.998971 82 
L 627.998971 33.379683 
L 616.725664 33.379683 
z
" style="fill:#ff0000;"/>
   </g>
  </g>
 </g>
 <defs>
  <clipPath id="p2456a64434">
   <rect height="135.9" width="558" x="90" y="21.6"/>
  </clipPath>
 </defs>
</svg>
