<?xml version="1.0" encoding="utf-8" standalone="no"?>
<!DOCTYPE svg PUBLIC "-//W3C//DTD SVG 1.1//EN"
  "http://www.w3.org/Graphics/SVG/1.1/DTD/svg11.dtd">
<!-- Created with matplotlib (https://matplotlib.org/) -->
<svg height="180pt" version="1.1" viewBox="0 0 720 180" width="720pt" xmlns="http://www.w3.org/2000/svg" xmlns:xlink="http://www.w3.org/1999/xlink">
 <metadata>
  <rdf:RDF xmlns:cc="http://creativecommons.org/ns#" xmlns:dc="http://purl.org/dc/elements/1.1/" xmlns:rdf="http://www.w3.org/1999/02/22-rdf-syntax-ns#">
   <cc:Work>
    <dc:type rdf:resource="http://purl.org/dc/dcmitype/StillImage"/>
    <dc:date>2021-08-04T23:33:05.743618</dc:date>
    <dc:format>image/svg+xml</dc:format>
    <dc:creator>
     <cc:Agent>
      <dc:title>Matplotlib v3.3.2, https://matplotlib.org/</dc:title>
     </cc:Agent>
    </dc:creator>
   </cc:Work>
  </rdf:RDF>
 </metadata>
 <defs>
  <style type="text/css">*{stroke-linecap:butt;stroke-linejoin:round;}</style>
 </defs>
 <g id="figure_1">
  <g id="patch_1">
   <path d="M 0 180 
L 720 180 
L 720 0 
L 0 0 
z
" style="fill:none;"/>
  </g>
  <g id="axes_1">
   <g id="line2d_1">
    <path clip-path="url(#p5a0efc25ae)" d="M 90 157.5 
L 648 157.5 
" style="fill:none;stroke:#000000;stroke-linecap:square;stroke-width:0.5;"/>
   </g>
   <g id="patch_2">
    <path clip-path="url(#p5a0efc25ae)" d="M 121.274336 156.417641 
Q 118.658292 156.954142 115.829497 157.225511 
Q 113.000702 157.5 109.919759 157.5 
Q 100.732085 157.5 95.366043 155.466288 
Q 90 153.432576 90 149.954679 
Q 90 146.464305 95.366043 144.433712 
Q 100.732085 142.4 109.919759 142.4 
Q 113.000702 142.4 115.829497 142.674489 
Q 118.658292 142.945858 121.274336 143.482359 
L 121.274336 146.492378 
Q 118.634653 145.781202 116.073766 145.450568 
Q 113.51288 145.119934 110.684085 145.119934 
Q 105.609589 145.119934 102.701998 146.408159 
Q 99.802286 147.693266 99.802286 149.954679 
Q 99.802286 152.206734 102.701998 153.49496 
Q 105.609589 154.780066 110.684085 154.780066 
Q 113.51288 154.780066 116.073766 154.449432 
Q 118.634653 154.115679 121.274336 153.404503 
z
" style="fill:#0000ff;"/>
   </g>
   <g id="patch_3">
    <path clip-path="url(#p5a0efc25ae)" d="M 111.66376 136.8985 
L 99.636153 136.8985 
L 97.737057 142.4 
L 90 142.4 
L 101.049285 112.2 
L 110.225051 112.2 
L 121.274336 142.4 
L 113.543673 142.4 
z
M 101.554432 131.293442 
L 109.726299 131.293442 
L 105.64676 119.280754 
z
" style="fill:#008000;"/>
   </g>
   <g id="patch_4">
    <path clip-path="url(#p5a0efc25ae)" d="M 121.274336 109.467589 
Q 118.120268 110.833795 114.727893 111.520017 
Q 111.335518 112.2 107.718853 112.2 
Q 99.546312 112.2 94.773156 108.132576 
Q 90 104.065152 90 97.109358 
Q 90 90.072464 94.857265 86.036232 
Q 99.721538 82 108.18145 82 
Q 111.440653 82 114.426504 82.548977 
Q 117.419364 83.091717 120.068781 84.164718 
L 120.068781 90.184755 
Q 117.335256 88.806073 114.629766 88.12609 
Q 111.924277 87.439868 109.204769 87.439868 
Q 104.172279 87.439868 101.445762 89.947697 
Q 98.719246 92.449287 98.719246 97.109358 
Q 98.719246 101.725759 101.347636 104.246065 
Q 103.976026 106.760132 108.812263 106.760132 
Q 110.129963 106.760132 111.258418 106.616649 
Q 112.386874 106.466928 113.284031 106.155009 
L 113.284031 100.503037 
L 108.132386 100.503037 
L 108.132386 95.468663 
L 121.274336 95.468663 
z
" style="fill:#ffa600;"/>
   </g>
   <g id="patch_5">
    <path clip-path="url(#p5a0efc25ae)" d="M 90 36.7 
L 121.274336 36.7 
L 121.274336 45.534762 
L 110.022848 45.534762 
L 110.022848 82 
L 101.273307 82 
L 101.273307 45.534762 
L 90 45.534762 
z
" style="fill:#ff0000;"/>
   </g>
   <g id="patch_6">
    <path clip-path="url(#p5a0efc25ae)" d="M 154.19469 156.133795 
Q 151.040622 156.816897 147.648247 157.160008 
Q 144.255872 157.5 140.639207 157.5 
Q 132.466666 157.5 127.69351 155.466288 
Q 122.920354 153.432576 122.920354 149.954679 
Q 122.920354 146.436232 127.777619 144.418116 
Q 132.641892 142.4 141.101804 142.4 
Q 144.361007 142.4 147.346858 142.674489 
Q 150.339718 142.945858 152.989135 143.482359 
L 152.989135 146.492378 
Q 150.25561 145.803037 147.55012 145.463045 
Q 144.844631 145.119934 142.125123 145.119934 
Q 137.092633 145.119934 134.366116 146.373848 
Q 131.6396 147.624644 131.6396 149.954679 
Q 131.6396 152.26288 134.26799 153.523032 
Q 136.89638 154.780066 141.732617 154.780066 
Q 143.050317 154.780066 144.178772 154.708325 
Q 145.307228 154.633464 146.204385 154.477505 
L 146.204385 151.651518 
L 141.05274 151.651518 
L 141.05274 149.134332 
L 154.19469 149.134332 
z
" style="fill:#ffa600;"/>
   </g>
   <g id="patch_7">
    <path clip-path="url(#p5a0efc25ae)" d="M 144.584114 134.14775 
L 132.556507 134.14775 
L 130.657411 142.4 
L 122.920354 142.4 
L 133.969639 97.1 
L 143.145405 97.1 
L 154.19469 142.4 
L 146.464027 142.4 
z
M 134.474786 125.740163 
L 142.646653 125.740163 
L 138.567114 107.721132 
z
" style="fill:#008000;"/>
   </g>
   <g id="patch_8">
    <path clip-path="url(#p5a0efc25ae)" d="M 154.19469 92.770564 
Q 151.578646 94.916567 148.749851 96.002045 
Q 145.921056 97.1 142.840113 97.1 
Q 133.652439 97.1 128.286397 88.965152 
Q 122.920354 80.830304 122.920354 66.918715 
Q 122.920354 52.95722 128.286397 44.834848 
Q 133.652439 36.7 142.840113 36.7 
Q 145.921056 36.7 148.749851 37.797955 
Q 151.578646 38.883433 154.19469 41.029436 
L 154.19469 53.06951 
Q 151.555007 50.224809 148.99412 48.902272 
Q 146.433234 47.579736 143.604439 47.579736 
Q 138.529943 47.579736 135.622352 52.732638 
Q 132.72264 57.873063 132.72264 66.918715 
Q 132.72264 75.926937 135.622352 81.079839 
Q 138.529943 86.220264 143.604439 86.220264 
Q 146.433234 86.220264 148.99412 84.897728 
Q 151.555007 83.562714 154.19469 80.718013 
z
" style="fill:#0000ff;"/>
   </g>
   <g id="patch_9">
    <path clip-path="url(#p5a0efc25ae)" d="M 187.115044 156.417641 
Q 184.499 156.954142 181.670205 157.225511 
Q 178.84141 157.5 175.760467 157.5 
Q 166.572793 157.5 161.206751 155.466288 
Q 155.840708 153.432576 155.840708 149.954679 
Q 155.840708 146.464305 161.206751 144.433712 
Q 166.572793 142.4 175.760467 142.4 
Q 178.84141 142.4 181.670205 142.674489 
Q 184.499 142.945858 187.115044 143.482359 
L 187.115044 146.492378 
Q 184.475361 145.781202 181.914474 145.450568 
Q 179.353588 145.119934 176.524793 145.119934 
Q 171.450297 145.119934 168.542706 146.408159 
Q 165.642994 147.693266 165.642994 149.954679 
Q 165.642994 152.206734 168.542706 153.49496 
Q 171.450297 154.780066 176.524793 154.780066 
Q 179.353588 154.780066 181.914474 154.449432 
Q 184.475361 154.115679 187.115044 153.404503 
z
" style="fill:#0000ff;"/>
   </g>
   <g id="patch_10">
    <path clip-path="url(#p5a0efc25ae)" d="M 155.840708 127.3 
L 187.115044 127.3 
L 187.115044 130.244921 
L 175.863556 130.244921 
L 175.863556 142.4 
L 167.114015 142.4 
L 167.114015 130.244921 
L 155.840708 130.244921 
z
" style="fill:#ff0000;"/>
   </g>
   <g id="patch_11">
    <path clip-path="url(#p5a0efc25ae)" d="M 177.504468 110.795499 
L 165.476861 110.795499 
L 163.577765 127.3 
L 155.840708 127.3 
L 166.889993 36.7 
L 176.065759 36.7 
L 187.115044 127.3 
L 179.384381 127.3 
z
M 167.39514 93.980326 
L 175.567007 93.980326 
L 171.487467 57.942263 
z
" style="fill:#008000;"/>
   </g>
   <g id="patch_12">
    <path clip-path="url(#p5a0efc25ae)" d="M 210.424822 154.74925 
L 198.397215 154.74925 
L 196.498119 157.5 
L 188.761062 157.5 
L 199.810347 142.4 
L 208.986113 142.4 
L 220.035398 157.5 
L 212.304735 157.5 
z
M 200.315494 151.946721 
L 208.487361 151.946721 
L 204.407821 145.940377 
z
" style="fill:#008000;"/>
   </g>
   <g id="patch_13">
    <path clip-path="url(#p5a0efc25ae)" d="M 220.035398 132.836563 
Q 216.88133 137.618281 213.488955 140.020058 
Q 210.09658 142.4 206.479915 142.4 
Q 198.307374 142.4 193.534218 128.164016 
Q 188.761062 113.928031 188.761062 89.582751 
Q 188.761062 64.953625 193.618327 50.826813 
Q 198.4826 36.7 206.942512 36.7 
Q 210.201715 36.7 213.187566 38.621421 
Q 216.180426 40.521008 218.829843 44.276513 
L 218.829843 65.346643 
Q 216.096318 60.521256 213.390828 58.141314 
Q 210.685339 55.739537 207.965831 55.739537 
Q 202.933341 55.739537 200.206824 64.516939 
Q 197.480308 73.272506 197.480308 89.582751 
Q 197.480308 105.740157 200.108698 114.561227 
Q 202.737088 123.360463 207.573325 123.360463 
Q 208.891025 123.360463 210.01948 122.858273 
Q 211.147936 122.334249 212.045093 121.242533 
L 212.045093 101.460628 
L 206.893448 101.460628 
L 206.893448 83.840322 
L 220.035398 83.840322 
z
" style="fill:#ffa600;"/>
   </g>
   <g id="patch_14">
    <path clip-path="url(#p5a0efc25ae)" d="M 221.681416 36.7 
L 252.955752 36.7 
L 252.955752 60.259366 
L 241.704264 60.259366 
L 241.704264 157.5 
L 232.954723 157.5 
L 232.954723 60.259366 
L 221.681416 60.259366 
z
" style="fill:#ff0000;"/>
   </g>
   <g id="patch_15">
    <path clip-path="url(#p5a0efc25ae)" d="M 285.876106 156.133795 
Q 282.722038 156.816897 279.329663 157.160008 
Q 275.937288 157.5 272.320623 157.5 
Q 264.148082 157.5 259.374926 155.466288 
Q 254.60177 153.432576 254.60177 149.954679 
Q 254.60177 146.436232 259.459035 144.418116 
Q 264.323308 142.4 272.78322 142.4 
Q 276.042423 142.4 279.028274 142.674489 
Q 282.021134 142.945858 284.670551 143.482359 
L 284.670551 146.492378 
Q 281.937026 145.803037 279.231536 145.463045 
Q 276.526047 145.119934 273.806539 145.119934 
Q 268.774049 145.119934 266.047532 146.373848 
Q 263.321016 147.624644 263.321016 149.954679 
Q 263.321016 152.26288 265.949406 153.523032 
Q 268.577796 154.780066 273.414033 154.780066 
Q 274.731733 154.780066 275.860188 154.708325 
Q 276.988644 154.633464 277.885801 154.477505 
L 277.885801 151.651518 
L 272.734156 151.651518 
L 272.734156 149.134332 
L 285.876106 149.134332 
z
" style="fill:#ffa600;"/>
   </g>
   <g id="patch_16">
    <path clip-path="url(#p5a0efc25ae)" d="M 254.60177 36.7 
L 285.876106 36.7 
L 285.876106 57.314445 
L 274.624618 57.314445 
L 274.624618 142.4 
L 265.875077 142.4 
L 265.875077 57.314445 
L 254.60177 57.314445 
z
" style="fill:#ff0000;"/>
   </g>
   <g id="patch_17">
    <path clip-path="url(#p5a0efc25ae)" d="M 309.185884 151.9985 
L 297.158277 151.9985 
L 295.259181 157.5 
L 287.522124 157.5 
L 298.571409 127.3 
L 307.747175 127.3 
L 318.79646 157.5 
L 311.065797 157.5 
z
M 299.076556 146.393442 
L 307.248423 146.393442 
L 303.168883 134.380754 
z
" style="fill:#008000;"/>
   </g>
   <g id="patch_18">
    <path clip-path="url(#p5a0efc25ae)" d="M 318.79646 124.567589 
Q 315.642392 125.933795 312.250017 126.620017 
Q 308.857642 127.3 305.240977 127.3 
Q 297.068436 127.3 292.29528 123.232576 
Q 287.522124 119.165152 287.522124 112.209358 
Q 287.522124 105.172464 292.379389 101.136232 
Q 297.243662 97.1 305.703574 97.1 
Q 308.962777 97.1 311.948628 97.648977 
Q 314.941488 98.191717 317.590905 99.264718 
L 317.590905 105.284755 
Q 314.85738 103.906073 312.15189 103.22609 
Q 309.446401 102.539868 306.726893 102.539868 
Q 301.694403 102.539868 298.967886 105.047697 
Q 296.24137 107.549287 296.24137 112.209358 
Q 296.24137 116.825759 298.86976 119.346065 
Q 301.49815 121.860132 306.334387 121.860132 
Q 307.652087 121.860132 308.780542 121.716649 
Q 309.908998 121.566928 310.806155 121.255009 
L 310.806155 115.603037 
L 305.65451 115.603037 
L 305.65451 110.568663 
L 318.79646 110.568663 
z
" style="fill:#ffa600;"/>
   </g>
   <g id="patch_19">
    <path clip-path="url(#p5a0efc25ae)" d="M 287.522124 36.7 
L 318.79646 36.7 
L 318.79646 48.479683 
L 307.544972 48.479683 
L 307.544972 97.1 
L 298.795431 97.1 
L 298.795431 48.479683 
L 287.522124 48.479683 
z
" style="fill:#ff0000;"/>
   </g>
   <g id="patch_20">
    <path clip-path="url(#p5a0efc25ae)" d="M 320.442478 21.6 
L 351.716814 21.6 
L 351.716814 48.104286 
L 340.465326 48.104286 
L 340.465326 157.5 
L 331.715785 157.5 
L 331.715785 48.104286 
L 320.442478 48.104286 
z
" style="fill:#ff0000;"/>
   </g>
   <g id="patch_21">
    <path clip-path="url(#p5a0efc25ae)" d="M 353.362832 127.3 
L 384.637168 127.3 
L 384.637168 133.189841 
L 373.38568 133.189841 
L 373.38568 157.5 
L 364.636139 157.5 
L 364.636139 133.189841 
L 353.362832 133.189841 
z
" style="fill:#ff0000;"/>
   </g>
   <g id="patch_22">
    <path clip-path="url(#p5a0efc25ae)" d="M 375.026592 108.044749 
L 362.998985 108.044749 
L 361.099889 127.3 
L 353.362832 127.3 
L 364.412117 21.6 
L 373.587883 21.6 
L 384.637168 127.3 
L 376.906505 127.3 
z
M 364.917264 88.427047 
L 373.089131 88.427047 
L 369.009591 46.38264 
z
" style="fill:#008000;"/>
   </g>
   <g id="patch_23">
    <path clip-path="url(#p5a0efc25ae)" d="M 417.557522 155.335282 
Q 414.941478 156.408283 412.112683 156.951023 
Q 409.283888 157.5 406.202945 157.5 
Q 397.015271 157.5 391.649228 153.432576 
Q 386.283186 149.365152 386.283186 142.409358 
Q 386.283186 135.42861 391.649228 131.367424 
Q 397.015271 127.3 406.202945 127.3 
Q 409.283888 127.3 412.112683 127.848977 
Q 414.941478 128.391717 417.557522 129.464718 
L 417.557522 135.484755 
Q 414.917839 134.062404 412.356952 133.401136 
Q 409.796066 132.739868 406.967271 132.739868 
Q 401.892775 132.739868 398.985184 135.316319 
Q 396.085472 137.886532 396.085472 142.409358 
Q 396.085472 146.913468 398.985184 149.489919 
Q 401.892775 152.060132 406.967271 152.060132 
Q 409.796066 152.060132 412.356952 151.398864 
Q 414.917839 150.731357 417.557522 149.309006 
z
" style="fill:#0000ff;"/>
   </g>
   <g id="patch_24">
    <path clip-path="url(#p5a0efc25ae)" d="M 386.283186 21.6 
L 417.557522 21.6 
L 417.557522 42.214445 
L 406.306034 42.214445 
L 406.306034 127.3 
L 397.556493 127.3 
L 397.556493 42.214445 
L 386.283186 42.214445 
z
" style="fill:#ff0000;"/>
   </g>
   <g id="patch_25">
    <path clip-path="url(#p5a0efc25ae)" d="M 440.8673 151.9985 
L 428.839693 151.9985 
L 426.940597 157.5 
L 419.20354 157.5 
L 430.252825 127.3 
L 439.428591 127.3 
L 450.477876 157.5 
L 442.747213 157.5 
z
M 430.757972 146.393442 
L 438.929839 146.393442 
L 434.850299 134.380754 
z
" style="fill:#008000;"/>
   </g>
   <g id="patch_26">
    <path clip-path="url(#p5a0efc25ae)" d="M 419.20354 97.1 
L 450.477876 97.1 
L 450.477876 102.989841 
L 439.226388 102.989841 
L 439.226388 127.3 
L 430.476847 127.3 
L 430.476847 102.989841 
L 419.20354 102.989841 
z
" style="fill:#ff0000;"/>
   </g>
   <g id="patch_27">
    <path clip-path="url(#p5a0efc25ae)" d="M 450.477876 90.268973 
Q 447.323808 93.684487 443.931433 95.400041 
Q 440.539057 97.1 436.922393 97.1 
Q 428.749852 97.1 423.976696 86.93144 
Q 419.20354 76.76288 419.20354 59.373394 
Q 419.20354 41.781161 424.060805 31.69058 
Q 428.925078 21.6 437.384989 21.6 
Q 440.644193 21.6 443.630044 22.972444 
Q 446.622904 24.329291 449.272321 27.011795 
L 449.272321 42.061888 
Q 446.538796 38.615183 443.833306 36.915224 
Q 441.127817 35.199669 438.408309 35.199669 
Q 433.375819 35.199669 430.649302 41.469242 
Q 427.922786 47.723218 427.922786 59.373394 
Q 427.922786 70.914398 430.551176 77.215162 
Q 433.179565 83.500331 438.015803 83.500331 
Q 439.333503 83.500331 440.461958 83.141624 
Q 441.590413 82.767321 442.487571 81.987523 
L 442.487571 67.857591 
L 437.335926 67.857591 
L 437.335926 55.271659 
L 450.477876 55.271659 
z
" style="fill:#ffa600;"/>
   </g>
   <g id="patch_28">
    <path clip-path="url(#p5a0efc25ae)" d="M 452.123894 127.3 
L 483.39823 127.3 
L 483.39823 133.189841 
L 472.146742 133.189841 
L 472.146742 157.5 
L 463.397201 157.5 
L 463.397201 133.189841 
L 452.123894 133.189841 
z
" style="fill:#ff0000;"/>
   </g>
   <g id="patch_29">
    <path clip-path="url(#p5a0efc25ae)" d="M 483.39823 124.052923 
Q 480.782186 125.662425 477.953391 126.476534 
Q 475.124596 127.3 472.043652 127.3 
Q 462.855979 127.3 457.489936 121.198864 
Q 452.123894 115.097728 452.123894 104.664036 
Q 452.123894 94.192915 457.489936 88.101136 
Q 462.855979 82 472.043652 82 
Q 475.124596 82 477.953391 82.823466 
Q 480.782186 83.637575 483.39823 85.247077 
L 483.39823 94.277133 
Q 480.758547 92.143607 478.19766 91.151704 
Q 475.636773 90.159802 472.807979 90.159802 
Q 467.733483 90.159802 464.825892 94.024478 
Q 461.92618 97.879798 461.92618 104.664036 
Q 461.92618 111.420202 464.825892 115.284879 
Q 467.733483 119.140198 472.807979 119.140198 
Q 475.636773 119.140198 478.19766 118.148296 
Q 480.758547 117.147036 483.39823 115.01351 
z
" style="fill:#0000ff;"/>
   </g>
   <g id="patch_30">
    <path clip-path="url(#p5a0efc25ae)" d="M 473.787654 70.997 
L 461.760047 70.997 
L 459.860951 82 
L 452.123894 82 
L 463.173179 21.6 
L 472.348945 21.6 
L 483.39823 82 
L 475.667567 82 
z
M 463.678326 59.786884 
L 471.850193 59.786884 
L 467.770653 35.761509 
z
" style="fill:#008000;"/>
   </g>
   <g id="patch_31">
    <path clip-path="url(#p5a0efc25ae)" d="M 516.318584 156.417641 
Q 513.70254 156.954142 510.873745 157.225511 
Q 508.04495 157.5 504.964006 157.5 
Q 495.776333 157.5 490.41029 155.466288 
Q 485.044248 153.432576 485.044248 149.954679 
Q 485.044248 146.464305 490.41029 144.433712 
Q 495.776333 142.4 504.964006 142.4 
Q 508.04495 142.4 510.873745 142.674489 
Q 513.70254 142.945858 516.318584 143.482359 
L 516.318584 146.492378 
Q 513.678901 145.781202 511.118014 145.450568 
Q 508.557127 145.119934 505.728333 145.119934 
Q 500.653837 145.119934 497.746246 146.408159 
Q 494.846534 147.693266 494.846534 149.954679 
Q 494.846534 152.206734 497.746246 153.49496 
Q 500.653837 154.780066 505.728333 154.780066 
Q 508.557127 154.780066 511.118014 154.449432 
Q 513.678901 154.115679 516.318584 153.404503 
z
" style="fill:#0000ff;"/>
   </g>
   <g id="patch_32">
    <path clip-path="url(#p5a0efc25ae)" d="M 516.318584 139.667589 
Q 513.164516 141.033795 509.772141 141.720017 
Q 506.379765 142.4 502.763101 142.4 
Q 494.59056 142.4 489.817404 138.332576 
Q 485.044248 134.265152 485.044248 127.309358 
Q 485.044248 120.272464 489.901512 116.236232 
Q 494.765786 112.2 503.225697 112.2 
Q 506.484901 112.2 509.470752 112.748977 
Q 512.463612 113.291717 515.113029 114.364718 
L 515.113029 120.384755 
Q 512.379504 119.006073 509.674014 118.32609 
Q 506.968525 117.639868 504.249017 117.639868 
Q 499.216527 117.639868 496.49001 120.147697 
Q 493.763493 122.649287 493.763493 127.309358 
Q 493.763493 131.925759 496.391883 134.446065 
Q 499.020273 136.960132 503.856511 136.960132 
Q 505.174211 136.960132 506.302666 136.816649 
Q 507.431121 136.666928 508.328279 136.355009 
L 508.328279 130.703037 
L 503.176634 130.703037 
L 503.176634 125.668663 
L 516.318584 125.668663 
z
" style="fill:#ffa600;"/>
   </g>
   <g id="patch_33">
    <path clip-path="url(#p5a0efc25ae)" d="M 506.708008 95.695499 
L 494.680401 95.695499 
L 492.781305 112.2 
L 485.044248 112.2 
L 496.093533 21.6 
L 505.269299 21.6 
L 516.318584 112.2 
L 508.587921 112.2 
z
M 496.59868 78.880326 
L 504.770547 78.880326 
L 500.691007 42.842263 
z
" style="fill:#008000;"/>
   </g>
   <g id="patch_34">
    <path clip-path="url(#p5a0efc25ae)" d="M 549.238938 156.133795 
Q 546.08487 156.816897 542.692495 157.160008 
Q 539.300119 157.5 535.683455 157.5 
Q 527.510914 157.5 522.737758 155.466288 
Q 517.964602 153.432576 517.964602 149.954679 
Q 517.964602 146.436232 522.821866 144.418116 
Q 527.68614 142.4 536.146051 142.4 
Q 539.405255 142.4 542.391106 142.674489 
Q 545.383966 142.945858 548.033383 143.482359 
L 548.033383 146.492378 
Q 545.299858 145.803037 542.594368 145.463045 
Q 539.888879 145.119934 537.169371 145.119934 
Q 532.136881 145.119934 529.410364 146.373848 
Q 526.683847 147.624644 526.683847 149.954679 
Q 526.683847 152.26288 529.312237 153.523032 
Q 531.940627 154.780066 536.776865 154.780066 
Q 538.094565 154.780066 539.22302 154.708325 
Q 540.351475 154.633464 541.248633 154.477505 
L 541.248633 151.651518 
L 536.096988 151.651518 
L 536.096988 149.134332 
L 549.238938 149.134332 
z
" style="fill:#ffa600;"/>
   </g>
   <g id="patch_35">
    <path clip-path="url(#p5a0efc25ae)" d="M 549.238938 140.235282 
Q 546.622894 141.308283 543.794099 141.851023 
Q 540.965304 142.4 537.88436 142.4 
Q 528.696687 142.4 523.330644 138.332576 
Q 517.964602 134.265152 517.964602 127.309358 
Q 517.964602 120.32861 523.330644 116.267424 
Q 528.696687 112.2 537.88436 112.2 
Q 540.965304 112.2 543.794099 112.748977 
Q 546.622894 113.291717 549.238938 114.364718 
L 549.238938 120.384755 
Q 546.599255 118.962404 544.038368 118.301136 
Q 541.477481 117.639868 538.648687 117.639868 
Q 533.574191 117.639868 530.6666 120.216319 
Q 527.766888 122.786532 527.766888 127.309358 
Q 527.766888 131.813468 530.6666 134.389919 
Q 533.574191 136.960132 538.648687 136.960132 
Q 541.477481 136.960132 544.038368 136.298864 
Q 546.599255 135.631357 549.238938 134.209006 
z
" style="fill:#0000ff;"/>
   </g>
   <g id="patch_36">
    <path clip-path="url(#p5a0efc25ae)" d="M 539.628362 95.695499 
L 527.600755 95.695499 
L 525.701659 112.2 
L 517.964602 112.2 
L 529.013887 21.6 
L 538.189653 21.6 
L 549.238938 112.2 
L 541.508275 112.2 
z
M 529.519034 78.880326 
L 537.690901 78.880326 
L 533.611361 42.842263 
z
" style="fill:#008000;"/>
   </g>
   <g id="patch_37">
    <path clip-path="url(#p5a0efc25ae)" d="M 572.548716 151.9985 
L 560.521109 151.9985 
L 558.622013 157.5 
L 550.884956 157.5 
L 561.934241 127.3 
L 571.110007 127.3 
L 582.159292 157.5 
L 574.428629 157.5 
z
M 562.439387 146.393442 
L 570.611255 146.393442 
L 566.531715 134.380754 
z
" style="fill:#008000;"/>
   </g>
   <g id="patch_38">
    <path clip-path="url(#p5a0efc25ae)" d="M 582.159292 125.135282 
Q 579.543248 126.208283 576.714453 126.751023 
Q 573.885658 127.3 570.804714 127.3 
Q 561.617041 127.3 556.250998 123.232576 
Q 550.884956 119.165152 550.884956 112.209358 
Q 550.884956 105.22861 556.250998 101.167424 
Q 561.617041 97.1 570.804714 97.1 
Q 573.885658 97.1 576.714453 97.648977 
Q 579.543248 98.191717 582.159292 99.264718 
L 582.159292 105.284755 
Q 579.519609 103.862404 576.958722 103.201136 
Q 574.397835 102.539868 571.569041 102.539868 
Q 566.494545 102.539868 563.586954 105.116319 
Q 560.687242 107.686532 560.687242 112.209358 
Q 560.687242 116.713468 563.586954 119.289919 
Q 566.494545 121.860132 571.569041 121.860132 
Q 574.397835 121.860132 576.958722 121.198864 
Q 579.519609 120.531357 582.159292 119.109006 
z
" style="fill:#0000ff;"/>
   </g>
   <g id="patch_39">
    <path clip-path="url(#p5a0efc25ae)" d="M 582.159292 90.268973 
Q 579.005224 93.684487 575.612849 95.400041 
Q 572.220473 97.1 568.603809 97.1 
Q 560.431268 97.1 555.658112 86.93144 
Q 550.884956 76.76288 550.884956 59.373394 
Q 550.884956 41.781161 555.74222 31.69058 
Q 560.606494 21.6 569.066405 21.6 
Q 572.325609 21.6 575.31146 22.972444 
Q 578.30432 24.329291 580.953737 27.011795 
L 580.953737 42.061888 
Q 578.220212 38.615183 575.514722 36.915224 
Q 572.809233 35.199669 570.089725 35.199669 
Q 565.057235 35.199669 562.330718 41.469242 
Q 559.604201 47.723218 559.604201 59.373394 
Q 559.604201 70.914398 562.232591 77.215162 
Q 564.860981 83.500331 569.697219 83.500331 
Q 571.014919 83.500331 572.143374 83.141624 
Q 573.271829 82.767321 574.168986 81.987523 
L 574.168986 67.857591 
L 569.017342 67.857591 
L 569.017342 55.271659 
L 582.159292 55.271659 
z
" style="fill:#ffa600;"/>
   </g>
   <g id="patch_40">
    <path clip-path="url(#p5a0efc25ae)" d="M 615.079646 156.417641 
Q 612.463602 156.954142 609.634807 157.225511 
Q 606.806012 157.5 603.725068 157.5 
Q 594.537395 157.5 589.171352 155.466288 
Q 583.80531 153.432576 583.80531 149.954679 
Q 583.80531 146.464305 589.171352 144.433712 
Q 594.537395 142.4 603.725068 142.4 
Q 606.806012 142.4 609.634807 142.674489 
Q 612.463602 142.945858 615.079646 143.482359 
L 615.079646 146.492378 
Q 612.439963 145.781202 609.879076 145.450568 
Q 607.318189 145.119934 604.489395 145.119934 
Q 599.414899 145.119934 596.507308 146.408159 
Q 593.607596 147.693266 593.607596 149.954679 
Q 593.607596 152.206734 596.507308 153.49496 
Q 599.414899 154.780066 604.489395 154.780066 
Q 607.318189 154.780066 609.879076 154.449432 
Q 612.439963 154.115679 615.079646 153.404503 
z
" style="fill:#0000ff;"/>
   </g>
   <g id="patch_41">
    <path clip-path="url(#p5a0efc25ae)" d="M 583.80531 127.3 
L 615.079646 127.3 
L 615.079646 130.244921 
L 603.828158 130.244921 
L 603.828158 142.4 
L 595.078617 142.4 
L 595.078617 130.244921 
L 583.80531 130.244921 
z
" style="fill:#ff0000;"/>
   </g>
   <g id="patch_42">
    <path clip-path="url(#p5a0efc25ae)" d="M 615.079646 124.567589 
Q 611.925578 125.933795 608.533203 126.620017 
Q 605.140827 127.3 601.524163 127.3 
Q 593.351622 127.3 588.578466 123.232576 
Q 583.80531 119.165152 583.80531 112.209358 
Q 583.80531 105.172464 588.662574 101.136232 
Q 593.526848 97.1 601.986759 97.1 
Q 605.245963 97.1 608.231814 97.648977 
Q 611.224674 98.191717 613.874091 99.264718 
L 613.874091 105.284755 
Q 611.140566 103.906073 608.435076 103.22609 
Q 605.729587 102.539868 603.010079 102.539868 
Q 597.977589 102.539868 595.251072 105.047697 
Q 592.524555 107.549287 592.524555 112.209358 
Q 592.524555 116.825759 595.152945 119.346065 
Q 597.781335 121.860132 602.617573 121.860132 
Q 603.935272 121.860132 605.063728 121.716649 
Q 606.192183 121.566928 607.08934 121.255009 
L 607.08934 115.603037 
L 601.937696 115.603037 
L 601.937696 110.568663 
L 615.079646 110.568663 
z
" style="fill:#ffa600;"/>
   </g>
   <g id="patch_43">
    <path clip-path="url(#p5a0efc25ae)" d="M 605.46907 83.346249 
L 593.441463 83.346249 
L 591.542367 97.1 
L 583.80531 97.1 
L 594.854595 21.6 
L 604.030361 21.6 
L 615.079646 97.1 
L 607.348983 97.1 
z
M 595.359741 69.333605 
L 603.531609 69.333605 
L 599.452069 39.301886 
z
" style="fill:#008000;"/>
   </g>
   <g id="patch_44">
    <path clip-path="url(#p5a0efc25ae)" d="M 638.389424 154.74925 
L 626.361817 154.74925 
L 624.462721 157.5 
L 616.725664 157.5 
L 627.774949 142.4 
L 636.950715 142.4 
L 648 157.5 
L 640.269337 157.5 
z
M 628.280095 151.946721 
L 636.451963 151.946721 
L 632.372423 145.940377 
z
" style="fill:#008000;"/>
   </g>
   <g id="patch_45">
    <path clip-path="url(#p5a0efc25ae)" d="M 648 141.317641 
Q 645.383956 141.854142 642.555161 142.125511 
Q 639.726366 142.4 636.645422 142.4 
Q 627.457749 142.4 622.091706 140.366288 
Q 616.725664 138.332576 616.725664 134.854679 
Q 616.725664 131.364305 622.091706 129.333712 
Q 627.457749 127.3 636.645422 127.3 
Q 639.726366 127.3 642.555161 127.574489 
Q 645.383956 127.845858 648 128.382359 
L 648 131.392378 
Q 645.360317 130.681202 642.79943 130.350568 
Q 640.238543 130.019934 637.409749 130.019934 
Q 632.335253 130.019934 629.427662 131.308159 
Q 626.52795 132.593266 626.52795 134.854679 
Q 626.52795 137.106734 629.427662 138.39496 
Q 632.335253 139.680066 637.409749 139.680066 
Q 640.238543 139.680066 642.79943 139.349432 
Q 645.360317 139.015679 648 138.304503 
z
" style="fill:#0000ff;"/>
   </g>
   <g id="patch_46">
    <path clip-path="url(#p5a0efc25ae)" d="M 616.725664 82 
L 648 82 
L 648 90.834762 
L 636.748512 90.834762 
L 636.748512 127.3 
L 627.998971 127.3 
L 627.998971 90.834762 
L 616.725664 90.834762 
z
" style="fill:#ff0000;"/>
   </g>
   <g id="patch_47">
    <path clip-path="url(#p5a0efc25ae)" d="M 648 76.535179 
Q 644.845932 79.267589 641.453557 80.640033 
Q 638.061181 82 634.444517 82 
Q 626.271976 82 621.49882 73.865152 
Q 616.725664 65.730304 616.725664 51.818715 
Q 616.725664 37.744929 621.582928 29.672464 
Q 626.447202 21.6 634.907113 21.6 
Q 638.166317 21.6 641.152168 22.697955 
Q 644.145028 23.783433 646.794445 25.929436 
L 646.794445 37.96951 
Q 644.06092 35.212146 641.35543 33.852179 
Q 638.649941 32.479736 635.930433 32.479736 
Q 630.897943 32.479736 628.171426 37.495394 
Q 625.444909 42.498575 625.444909 51.818715 
Q 625.444909 61.051518 628.073299 66.09213 
Q 630.701689 71.120264 635.537927 71.120264 
Q 636.855626 71.120264 637.984082 70.833299 
Q 639.112537 70.533857 640.009694 69.910019 
L 640.009694 58.606073 
L 634.85805 58.606073 
L 634.85805 48.537327 
L 648 48.537327 
z
" style="fill:#ffa600;"/>
   </g>
  </g>
 </g>
 <defs>
  <clipPath id="p5a0efc25ae">
   <rect height="135.9" width="558" x="90" y="21.6"/>
  </clipPath>
 </defs>
</svg>
