<?xml version="1.0" encoding="utf-8" standalone="no"?>
<!DOCTYPE svg PUBLIC "-//W3C//DTD SVG 1.1//EN"
  "http://www.w3.org/Graphics/SVG/1.1/DTD/svg11.dtd">
<!-- Created with matplotlib (https://matplotlib.org/) -->
<svg height="180pt" version="1.1" viewBox="0 0 720 180" width="720pt" xmlns="http://www.w3.org/2000/svg" xmlns:xlink="http://www.w3.org/1999/xlink">
 <metadata>
  <rdf:RDF xmlns:cc="http://creativecommons.org/ns#" xmlns:dc="http://purl.org/dc/elements/1.1/" xmlns:rdf="http://www.w3.org/1999/02/22-rdf-syntax-ns#">
   <cc:Work>
    <dc:type rdf:resource="http://purl.org/dc/dcmitype/StillImage"/>
    <dc:date>2021-08-04T23:33:50.691063</dc:date>
    <dc:format>image/svg+xml</dc:format>
    <dc:creator>
     <cc:Agent>
      <dc:title>Matplotlib v3.3.2, https://matplotlib.org/</dc:title>
     </cc:Agent>
    </dc:creator>
   </cc:Work>
  </rdf:RDF>
 </metadata>
 <defs>
  <style type="text/css">*{stroke-linecap:butt;stroke-linejoin:round;}</style>
 </defs>
 <g id="figure_1">
  <g id="patch_1">
   <path d="M 0 180 
L 720 180 
L 720 0 
L 0 0 
z
" style="fill:none;"/>
  </g>
  <g id="axes_1">
   <g id="line2d_1">
    <path clip-path="url(#p44734e4fe4)" d="M 90 157.5 
L 648 157.5 
" style="fill:none;stroke:#000000;stroke-linecap:square;stroke-width:0.5;"/>
   </g>
   <g id="patch_2">
    <path clip-path="url(#p44734e4fe4)" d="M 121.274336 156.417641 
Q 118.658292 156.954142 115.829497 157.225511 
Q 113.000702 157.5 109.919759 157.5 
Q 100.732085 157.5 95.366043 155.466288 
Q 90 153.432576 90 149.954679 
Q 90 146.464305 95.366043 144.433712 
Q 100.732085 142.4 109.919759 142.4 
Q 113.000702 142.4 115.829497 142.674489 
Q 118.658292 142.945858 121.274336 143.482359 
L 121.274336 146.492378 
Q 118.634653 145.781202 116.073766 145.450568 
Q 113.51288 145.119934 110.684085 145.119934 
Q 105.609589 145.119934 102.701998 146.408159 
Q 99.802286 147.693266 99.802286 149.954679 
Q 99.802286 152.206734 102.701998 153.49496 
Q 105.609589 154.780066 110.684085 154.780066 
Q 113.51288 154.780066 116.073766 154.449432 
Q 118.634653 154.115679 121.274336 153.404503 
z
" style="fill:#0000ff;"/>
   </g>
   <g id="patch_3">
    <path clip-path="url(#p44734e4fe4)" d="M 90 127.3 
L 121.274336 127.3 
L 121.274336 130.244921 
L 110.022848 130.244921 
L 110.022848 142.4 
L 101.273307 142.4 
L 101.273307 130.244921 
L 90 130.244921 
z
" style="fill:#ff0000;"/>
   </g>
   <g id="patch_4">
    <path clip-path="url(#p44734e4fe4)" d="M 122.920354 127.3 
L 154.19469 127.3 
L 154.19469 133.189841 
L 142.943202 133.189841 
L 142.943202 157.5 
L 134.193661 157.5 
L 134.193661 133.189841 
L 122.920354 133.189841 
z
" style="fill:#ff0000;"/>
   </g>
   <g id="patch_5">
    <path clip-path="url(#p44734e4fe4)" d="M 177.504468 154.74925 
L 165.476861 154.74925 
L 163.577765 157.5 
L 155.840708 157.5 
L 166.889993 142.4 
L 176.065759 142.4 
L 187.115044 157.5 
L 179.384381 157.5 
z
M 167.39514 151.946721 
L 175.567007 151.946721 
L 171.487467 145.940377 
z
" style="fill:#008000;"/>
   </g>
   <g id="patch_6">
    <path clip-path="url(#p44734e4fe4)" d="M 187.115044 141.033795 
Q 183.960976 141.716897 180.568601 142.060008 
Q 177.176226 142.4 173.559561 142.4 
Q 165.38702 142.4 160.613864 140.366288 
Q 155.840708 138.332576 155.840708 134.854679 
Q 155.840708 131.336232 160.697973 129.318116 
Q 165.562246 127.3 174.022158 127.3 
Q 177.281361 127.3 180.267212 127.574489 
Q 183.260072 127.845858 185.909489 128.382359 
L 185.909489 131.392378 
Q 183.175964 130.703037 180.470474 130.363045 
Q 177.764985 130.019934 175.045477 130.019934 
Q 170.012987 130.019934 167.28647 131.273848 
Q 164.559954 132.524644 164.559954 134.854679 
Q 164.559954 137.16288 167.188344 138.423032 
Q 169.816734 139.680066 174.652971 139.680066 
Q 175.970671 139.680066 177.099126 139.608325 
Q 178.227582 139.533464 179.124739 139.377505 
L 179.124739 136.551518 
L 173.973094 136.551518 
L 173.973094 134.034332 
L 187.115044 134.034332 
z
" style="fill:#ffa600;"/>
   </g>
   <g id="patch_7">
    <path clip-path="url(#p44734e4fe4)" d="M 210.424822 154.74925 
L 198.397215 154.74925 
L 196.498119 157.5 
L 188.761062 157.5 
L 199.810347 142.4 
L 208.986113 142.4 
L 220.035398 157.5 
L 212.304735 157.5 
z
M 200.315494 151.946721 
L 208.487361 151.946721 
L 204.407821 145.940377 
z
" style="fill:#008000;"/>
   </g>
   <g id="patch_8">
    <path clip-path="url(#p44734e4fe4)" d="M 220.035398 141.033795 
Q 216.88133 141.716897 213.488955 142.060008 
Q 210.09658 142.4 206.479915 142.4 
Q 198.307374 142.4 193.534218 140.366288 
Q 188.761062 138.332576 188.761062 134.854679 
Q 188.761062 131.336232 193.618327 129.318116 
Q 198.4826 127.3 206.942512 127.3 
Q 210.201715 127.3 213.187566 127.574489 
Q 216.180426 127.845858 218.829843 128.382359 
L 218.829843 131.392378 
Q 216.096318 130.703037 213.390828 130.363045 
Q 210.685339 130.019934 207.965831 130.019934 
Q 202.933341 130.019934 200.206824 131.273848 
Q 197.480308 132.524644 197.480308 134.854679 
Q 197.480308 137.16288 200.108698 138.423032 
Q 202.737088 139.680066 207.573325 139.680066 
Q 208.891025 139.680066 210.01948 139.608325 
Q 211.147936 139.533464 212.045093 139.377505 
L 212.045093 136.551518 
L 206.893448 136.551518 
L 206.893448 134.034332 
L 220.035398 134.034332 
z
" style="fill:#ffa600;"/>
   </g>
   <g id="patch_9">
    <path clip-path="url(#p44734e4fe4)" d="M 221.681416 127.3 
L 252.955752 127.3 
L 252.955752 133.189841 
L 241.704264 133.189841 
L 241.704264 157.5 
L 232.954723 157.5 
L 232.954723 133.189841 
L 221.681416 133.189841 
z
" style="fill:#ff0000;"/>
   </g>
   <g id="patch_10">
    <path clip-path="url(#p44734e4fe4)" d="M 276.26553 154.74925 
L 264.237923 154.74925 
L 262.338827 157.5 
L 254.60177 157.5 
L 265.651055 142.4 
L 274.826821 142.4 
L 285.876106 157.5 
L 278.145443 157.5 
z
M 266.156202 151.946721 
L 274.328069 151.946721 
L 270.248529 145.940377 
z
" style="fill:#008000;"/>
   </g>
   <g id="patch_11">
    <path clip-path="url(#p44734e4fe4)" d="M 285.876106 141.033795 
Q 282.722038 141.716897 279.329663 142.060008 
Q 275.937288 142.4 272.320623 142.4 
Q 264.148082 142.4 259.374926 140.366288 
Q 254.60177 138.332576 254.60177 134.854679 
Q 254.60177 131.336232 259.459035 129.318116 
Q 264.323308 127.3 272.78322 127.3 
Q 276.042423 127.3 279.028274 127.574489 
Q 282.021134 127.845858 284.670551 128.382359 
L 284.670551 131.392378 
Q 281.937026 130.703037 279.231536 130.363045 
Q 276.526047 130.019934 273.806539 130.019934 
Q 268.774049 130.019934 266.047532 131.273848 
Q 263.321016 132.524644 263.321016 134.854679 
Q 263.321016 137.16288 265.949406 138.423032 
Q 268.577796 139.680066 273.414033 139.680066 
Q 274.731733 139.680066 275.860188 139.608325 
Q 276.988644 139.533464 277.885801 139.377505 
L 277.885801 136.551518 
L 272.734156 136.551518 
L 272.734156 134.034332 
L 285.876106 134.034332 
z
" style="fill:#ffa600;"/>
   </g>
   <g id="patch_12">
    <path clip-path="url(#p44734e4fe4)" d="M 309.185884 151.9985 
L 297.158277 151.9985 
L 295.259181 157.5 
L 287.522124 157.5 
L 298.571409 127.3 
L 307.747175 127.3 
L 318.79646 157.5 
L 311.065797 157.5 
z
M 299.076556 146.393442 
L 307.248423 146.393442 
L 303.168883 134.380754 
z
" style="fill:#008000;"/>
   </g>
   <g id="patch_13">
    <path clip-path="url(#p44734e4fe4)" d="M 342.106238 154.74925 
L 330.078631 154.74925 
L 328.179535 157.5 
L 320.442478 157.5 
L 331.491763 142.4 
L 340.667529 142.4 
L 351.716814 157.5 
L 343.986151 157.5 
z
M 331.99691 151.946721 
L 340.168777 151.946721 
L 336.089237 145.940377 
z
" style="fill:#008000;"/>
   </g>
   <g id="patch_14">
    <path clip-path="url(#p44734e4fe4)" d="M 351.716814 141.033795 
Q 348.562746 141.716897 345.170371 142.060008 
Q 341.777996 142.4 338.161331 142.4 
Q 329.98879 142.4 325.215634 140.366288 
Q 320.442478 138.332576 320.442478 134.854679 
Q 320.442478 131.336232 325.299743 129.318116 
Q 330.164016 127.3 338.623928 127.3 
Q 341.883131 127.3 344.868982 127.574489 
Q 347.861842 127.845858 350.511259 128.382359 
L 350.511259 131.392378 
Q 347.777734 130.703037 345.072244 130.363045 
Q 342.366755 130.019934 339.647247 130.019934 
Q 334.614757 130.019934 331.88824 131.273848 
Q 329.161724 132.524644 329.161724 134.854679 
Q 329.161724 137.16288 331.790114 138.423032 
Q 334.418504 139.680066 339.254741 139.680066 
Q 340.572441 139.680066 341.700896 139.608325 
Q 342.829351 139.533464 343.726509 139.377505 
L 343.726509 136.551518 
L 338.574864 136.551518 
L 338.574864 134.034332 
L 351.716814 134.034332 
z
" style="fill:#ffa600;"/>
   </g>
   <g id="patch_15">
    <path clip-path="url(#p44734e4fe4)" d="M 375.026592 151.9985 
L 362.998985 151.9985 
L 361.099889 157.5 
L 353.362832 157.5 
L 364.412117 127.3 
L 373.587883 127.3 
L 384.637168 157.5 
L 376.906505 157.5 
z
M 364.917264 146.393442 
L 373.089131 146.393442 
L 369.009591 134.380754 
z
" style="fill:#008000;"/>
   </g>
   <g id="patch_16">
    <path clip-path="url(#p44734e4fe4)" d="M 384.637168 124.052923 
Q 382.021124 125.662425 379.192329 126.476534 
Q 376.363534 127.3 373.282591 127.3 
Q 364.094917 127.3 358.728874 121.198864 
Q 353.362832 115.097728 353.362832 104.664036 
Q 353.362832 94.192915 358.728874 88.101136 
Q 364.094917 82 373.282591 82 
Q 376.363534 82 379.192329 82.823466 
Q 382.021124 83.637575 384.637168 85.247077 
L 384.637168 94.277133 
Q 381.997485 92.143607 379.436598 91.151704 
Q 376.875712 90.159802 374.046917 90.159802 
Q 368.972421 90.159802 366.06483 94.024478 
Q 363.165118 97.879798 363.165118 104.664036 
Q 363.165118 111.420202 366.06483 115.284879 
Q 368.972421 119.140198 374.046917 119.140198 
Q 376.875712 119.140198 379.436598 118.148296 
Q 381.997485 117.147036 384.637168 115.01351 
z
" style="fill:#0000ff;"/>
   </g>
   <g id="patch_17">
    <path clip-path="url(#p44734e4fe4)" d="M 353.362832 21.6 
L 384.637168 21.6 
L 384.637168 33.379683 
L 373.38568 33.379683 
L 373.38568 82 
L 364.636139 82 
L 364.636139 33.379683 
L 353.362832 33.379683 
z
" style="fill:#ff0000;"/>
   </g>
   <g id="patch_18">
    <path clip-path="url(#p44734e4fe4)" d="M 407.946946 151.9985 
L 395.919339 151.9985 
L 394.020243 157.5 
L 386.283186 157.5 
L 397.332471 127.3 
L 406.508237 127.3 
L 417.557522 157.5 
L 409.826859 157.5 
z
M 397.837618 146.393442 
L 406.009485 146.393442 
L 401.929945 134.380754 
z
" style="fill:#008000;"/>
   </g>
   <g id="patch_19">
    <path clip-path="url(#p44734e4fe4)" d="M 386.283186 21.6 
L 417.557522 21.6 
L 417.557522 42.214445 
L 406.306034 42.214445 
L 406.306034 127.3 
L 397.556493 127.3 
L 397.556493 42.214445 
L 386.283186 42.214445 
z
" style="fill:#ff0000;"/>
   </g>
   <g id="patch_20">
    <path clip-path="url(#p44734e4fe4)" d="M 450.477876 156.133795 
Q 447.323808 156.816897 443.931433 157.160008 
Q 440.539057 157.5 436.922393 157.5 
Q 428.749852 157.5 423.976696 155.466288 
Q 419.20354 153.432576 419.20354 149.954679 
Q 419.20354 146.436232 424.060805 144.418116 
Q 428.925078 142.4 437.384989 142.4 
Q 440.644193 142.4 443.630044 142.674489 
Q 446.622904 142.945858 449.272321 143.482359 
L 449.272321 146.492378 
Q 446.538796 145.803037 443.833306 145.463045 
Q 441.127817 145.119934 438.408309 145.119934 
Q 433.375819 145.119934 430.649302 146.373848 
Q 427.922786 147.624644 427.922786 149.954679 
Q 427.922786 152.26288 430.551176 153.523032 
Q 433.179565 154.780066 438.015803 154.780066 
Q 439.333503 154.780066 440.461958 154.708325 
Q 441.590413 154.633464 442.487571 154.477505 
L 442.487571 151.651518 
L 437.335926 151.651518 
L 437.335926 149.134332 
L 450.477876 149.134332 
z
" style="fill:#ffa600;"/>
   </g>
   <g id="patch_21">
    <path clip-path="url(#p44734e4fe4)" d="M 440.8673 120.393999 
L 428.839693 120.393999 
L 426.940597 142.4 
L 419.20354 142.4 
L 430.252825 21.6 
L 439.428591 21.6 
L 450.477876 142.4 
L 442.747213 142.4 
z
M 430.757972 97.973768 
L 438.929839 97.973768 
L 434.850299 49.923018 
z
" style="fill:#008000;"/>
   </g>
   <g id="patch_22">
    <path clip-path="url(#p44734e4fe4)" d="M 483.39823 156.133795 
Q 480.244162 156.816897 476.851787 157.160008 
Q 473.459411 157.5 469.842747 157.5 
Q 461.670206 157.5 456.89705 155.466288 
Q 452.123894 153.432576 452.123894 149.954679 
Q 452.123894 146.436232 456.981158 144.418116 
Q 461.845432 142.4 470.305343 142.4 
Q 473.564547 142.4 476.550398 142.674489 
Q 479.543258 142.945858 482.192675 143.482359 
L 482.192675 146.492378 
Q 479.45915 145.803037 476.75366 145.463045 
Q 474.048171 145.119934 471.328663 145.119934 
Q 466.296173 145.119934 463.569656 146.373848 
Q 460.84314 147.624644 460.84314 149.954679 
Q 460.84314 152.26288 463.471529 153.523032 
Q 466.099919 154.780066 470.936157 154.780066 
Q 472.253857 154.780066 473.382312 154.708325 
Q 474.510767 154.633464 475.407925 154.477505 
L 475.407925 151.651518 
L 470.25628 151.651518 
L 470.25628 149.134332 
L 483.39823 149.134332 
z
" style="fill:#ffa600;"/>
   </g>
   <g id="patch_23">
    <path clip-path="url(#p44734e4fe4)" d="M 473.787654 120.393999 
L 461.760047 120.393999 
L 459.860951 142.4 
L 452.123894 142.4 
L 463.173179 21.6 
L 472.348945 21.6 
L 483.39823 142.4 
L 475.667567 142.4 
z
M 463.678326 97.973768 
L 471.850193 97.973768 
L 467.770653 49.923018 
z
" style="fill:#008000;"/>
   </g>
   <g id="patch_24">
    <path clip-path="url(#p44734e4fe4)" d="M 516.318584 156.133795 
Q 513.164516 156.816897 509.772141 157.160008 
Q 506.379765 157.5 502.763101 157.5 
Q 494.59056 157.5 489.817404 155.466288 
Q 485.044248 153.432576 485.044248 149.954679 
Q 485.044248 146.436232 489.901512 144.418116 
Q 494.765786 142.4 503.225697 142.4 
Q 506.484901 142.4 509.470752 142.674489 
Q 512.463612 142.945858 515.113029 143.482359 
L 515.113029 146.492378 
Q 512.379504 145.803037 509.674014 145.463045 
Q 506.968525 145.119934 504.249017 145.119934 
Q 499.216527 145.119934 496.49001 146.373848 
Q 493.763493 147.624644 493.763493 149.954679 
Q 493.763493 152.26288 496.391883 153.523032 
Q 499.020273 154.780066 503.856511 154.780066 
Q 505.174211 154.780066 506.302666 154.708325 
Q 507.431121 154.633464 508.328279 154.477505 
L 508.328279 151.651518 
L 503.176634 151.651518 
L 503.176634 149.134332 
L 516.318584 149.134332 
z
" style="fill:#ffa600;"/>
   </g>
   <g id="patch_25">
    <path clip-path="url(#p44734e4fe4)" d="M 485.044248 21.6 
L 516.318584 21.6 
L 516.318584 45.159366 
L 505.067096 45.159366 
L 505.067096 142.4 
L 496.317555 142.4 
L 496.317555 45.159366 
L 485.044248 45.159366 
z
" style="fill:#ff0000;"/>
   </g>
   <g id="patch_26">
    <path clip-path="url(#p44734e4fe4)" d="M 517.964602 142.4 
L 549.238938 142.4 
L 549.238938 145.344921 
L 537.98745 145.344921 
L 537.98745 157.5 
L 529.237909 157.5 
L 529.237909 145.344921 
L 517.964602 145.344921 
z
" style="fill:#ff0000;"/>
   </g>
   <g id="patch_27">
    <path clip-path="url(#p44734e4fe4)" d="M 549.238938 131.470357 
Q 546.08487 136.935179 542.692495 139.680066 
Q 539.300119 142.4 535.683455 142.4 
Q 527.510914 142.4 522.737758 126.130304 
Q 517.964602 109.860607 517.964602 82.03743 
Q 517.964602 53.889857 522.821866 37.744929 
Q 527.68614 21.6 536.146051 21.6 
Q 539.405255 21.6 542.391106 23.79591 
Q 545.383966 25.966866 548.033383 30.258872 
L 548.033383 54.339021 
Q 545.299858 48.824293 542.594368 46.104359 
Q 539.888879 43.359471 537.169371 43.359471 
Q 532.136881 43.359471 529.410364 53.390787 
Q 526.683847 63.397149 526.683847 82.03743 
Q 526.683847 100.503037 529.312237 110.584259 
Q 531.940627 120.640529 536.776865 120.640529 
Q 538.094565 120.640529 539.22302 120.066598 
Q 540.351475 119.467713 541.248633 118.220037 
L 541.248633 95.612146 
L 536.096988 95.612146 
L 536.096988 75.474654 
L 549.238938 75.474654 
z
" style="fill:#ffa600;"/>
   </g>
   <g id="patch_28">
    <path clip-path="url(#p44734e4fe4)" d="M 582.159292 156.133795 
Q 579.005224 156.816897 575.612849 157.160008 
Q 572.220473 157.5 568.603809 157.5 
Q 560.431268 157.5 555.658112 155.466288 
Q 550.884956 153.432576 550.884956 149.954679 
Q 550.884956 146.436232 555.74222 144.418116 
Q 560.606494 142.4 569.066405 142.4 
Q 572.325609 142.4 575.31146 142.674489 
Q 578.30432 142.945858 580.953737 143.482359 
L 580.953737 146.492378 
Q 578.220212 145.803037 575.514722 145.463045 
Q 572.809233 145.119934 570.089725 145.119934 
Q 565.057235 145.119934 562.330718 146.373848 
Q 559.604201 147.624644 559.604201 149.954679 
Q 559.604201 152.26288 562.232591 153.523032 
Q 564.860981 154.780066 569.697219 154.780066 
Q 571.014919 154.780066 572.143374 154.708325 
Q 573.271829 154.633464 574.168986 154.477505 
L 574.168986 151.651518 
L 569.017342 151.651518 
L 569.017342 149.134332 
L 582.159292 149.134332 
z
" style="fill:#ffa600;"/>
   </g>
   <g id="patch_29">
    <path clip-path="url(#p44734e4fe4)" d="M 572.548716 120.393999 
L 560.521109 120.393999 
L 558.622013 142.4 
L 550.884956 142.4 
L 561.934241 21.6 
L 571.110007 21.6 
L 582.159292 142.4 
L 574.428629 142.4 
z
M 562.439387 97.973768 
L 570.611255 97.973768 
L 566.531715 49.923018 
z
" style="fill:#008000;"/>
   </g>
   <g id="patch_30">
    <path clip-path="url(#p44734e4fe4)" d="M 615.079646 145.204152 
Q 611.925578 151.352076 608.533203 154.440074 
Q 605.140827 157.5 601.524163 157.5 
Q 593.351622 157.5 588.578466 139.196592 
Q 583.80531 120.893183 583.80531 89.592109 
Q 583.80531 57.92609 588.662574 39.763045 
Q 593.526848 21.6 601.986759 21.6 
Q 605.245963 21.6 608.231814 24.070399 
Q 611.224674 26.512725 613.874091 31.341231 
L 613.874091 58.431398 
Q 611.140566 52.227329 608.435076 49.167403 
Q 605.729587 46.079405 603.010079 46.079405 
Q 597.977589 46.079405 595.251072 57.364635 
Q 592.524555 68.621793 592.524555 89.592109 
Q 592.524555 110.365916 595.152945 121.707292 
Q 597.781335 133.020595 602.617573 133.020595 
Q 603.935272 133.020595 605.063728 132.374923 
Q 606.192183 131.701177 607.08934 130.297542 
L 607.08934 104.863665 
L 601.937696 104.863665 
L 601.937696 82.208986 
L 615.079646 82.208986 
z
" style="fill:#ffa600;"/>
   </g>
   <g id="patch_31">
    <path clip-path="url(#p44734e4fe4)" d="M 648 156.417641 
Q 645.383956 156.954142 642.555161 157.225511 
Q 639.726366 157.5 636.645422 157.5 
Q 627.457749 157.5 622.091706 155.466288 
Q 616.725664 153.432576 616.725664 149.954679 
Q 616.725664 146.464305 622.091706 144.433712 
Q 627.457749 142.4 636.645422 142.4 
Q 639.726366 142.4 642.555161 142.674489 
Q 645.383956 142.945858 648 143.482359 
L 648 146.492378 
Q 645.360317 145.781202 642.79943 145.450568 
Q 640.238543 145.119934 637.409749 145.119934 
Q 632.335253 145.119934 629.427662 146.408159 
Q 626.52795 147.693266 626.52795 149.954679 
Q 626.52795 152.206734 629.427662 153.49496 
Q 632.335253 154.780066 637.409749 154.780066 
Q 640.238543 154.780066 642.79943 154.449432 
Q 645.360317 154.115679 648 153.404503 
z
" style="fill:#0000ff;"/>
   </g>
   <g id="patch_32">
    <path clip-path="url(#p44734e4fe4)" d="M 616.725664 127.3 
L 648 127.3 
L 648 130.244921 
L 636.748512 130.244921 
L 636.748512 142.4 
L 627.998971 142.4 
L 627.998971 130.244921 
L 616.725664 130.244921 
z
" style="fill:#ff0000;"/>
   </g>
   <g id="patch_33">
    <path clip-path="url(#p44734e4fe4)" d="M 638.389424 108.044749 
L 626.361817 108.044749 
L 624.462721 127.3 
L 616.725664 127.3 
L 627.774949 21.6 
L 636.950715 21.6 
L 648 127.3 
L 640.269337 127.3 
z
M 628.280095 88.427047 
L 636.451963 88.427047 
L 632.372423 46.38264 
z
" style="fill:#008000;"/>
   </g>
  </g>
 </g>
 <defs>
  <clipPath id="p44734e4fe4">
   <rect height="135.9" width="558" x="90" y="21.6"/>
  </clipPath>
 </defs>
</svg>
