<?xml version="1.0" encoding="utf-8" standalone="no"?>
<!DOCTYPE svg PUBLIC "-//W3C//DTD SVG 1.1//EN"
  "http://www.w3.org/Graphics/SVG/1.1/DTD/svg11.dtd">
<!-- Created with matplotlib (https://matplotlib.org/) -->
<svg height="180pt" version="1.1" viewBox="0 0 720 180" width="720pt" xmlns="http://www.w3.org/2000/svg" xmlns:xlink="http://www.w3.org/1999/xlink">
 <metadata>
  <rdf:RDF xmlns:cc="http://creativecommons.org/ns#" xmlns:dc="http://purl.org/dc/elements/1.1/" xmlns:rdf="http://www.w3.org/1999/02/22-rdf-syntax-ns#">
   <cc:Work>
    <dc:type rdf:resource="http://purl.org/dc/dcmitype/StillImage"/>
    <dc:date>2021-08-04T23:33:32.814018</dc:date>
    <dc:format>image/svg+xml</dc:format>
    <dc:creator>
     <cc:Agent>
      <dc:title>Matplotlib v3.3.2, https://matplotlib.org/</dc:title>
     </cc:Agent>
    </dc:creator>
   </cc:Work>
  </rdf:RDF>
 </metadata>
 <defs>
  <style type="text/css">*{stroke-linecap:butt;stroke-linejoin:round;}</style>
 </defs>
 <g id="figure_1">
  <g id="patch_1">
   <path d="M 0 180 
L 720 180 
L 720 0 
L 0 0 
z
" style="fill:none;"/>
  </g>
  <g id="axes_1">
   <g id="line2d_1">
    <path clip-path="url(#pcc6d3ee8a4)" d="M 90 157.5 
L 648 157.5 
" style="fill:none;stroke:#000000;stroke-linecap:square;stroke-width:0.5;"/>
   </g>
   <g id="patch_2">
    <path clip-path="url(#pcc6d3ee8a4)" d="M 111.66376 151.9985 
L 99.636153 151.9985 
L 97.737057 157.5 
L 90 157.5 
L 101.049285 127.3 
L 110.225051 127.3 
L 121.274336 157.5 
L 113.543673 157.5 
z
M 101.554432 146.393442 
L 109.726299 146.393442 
L 105.64676 134.380754 
z
" style="fill:#008000;"/>
   </g>
   <g id="patch_3">
    <path clip-path="url(#pcc6d3ee8a4)" d="M 90 82 
L 121.274336 82 
L 121.274336 90.834762 
L 110.022848 90.834762 
L 110.022848 127.3 
L 101.273307 127.3 
L 101.273307 90.834762 
L 90 90.834762 
z
" style="fill:#ff0000;"/>
   </g>
   <g id="patch_4">
    <path clip-path="url(#pcc6d3ee8a4)" d="M 121.274336 76.535179 
Q 118.120268 79.267589 114.727893 80.640033 
Q 111.335518 82 107.718853 82 
Q 99.546312 82 94.773156 73.865152 
Q 90 65.730304 90 51.818715 
Q 90 37.744929 94.857265 29.672464 
Q 99.721538 21.6 108.18145 21.6 
Q 111.440653 21.6 114.426504 22.697955 
Q 117.419364 23.783433 120.068781 25.929436 
L 120.068781 37.96951 
Q 117.335256 35.212146 114.629766 33.852179 
Q 111.924277 32.479736 109.204769 32.479736 
Q 104.172279 32.479736 101.445762 37.495394 
Q 98.719246 42.498575 98.719246 51.818715 
Q 98.719246 61.051518 101.347636 66.09213 
Q 103.976026 71.120264 108.812263 71.120264 
Q 110.129963 71.120264 111.258418 70.833299 
Q 112.386874 70.533857 113.284031 69.910019 
L 113.284031 58.606073 
L 108.132386 58.606073 
L 108.132386 48.537327 
L 121.274336 48.537327 
z
" style="fill:#ffa600;"/>
   </g>
   <g id="patch_5">
    <path clip-path="url(#pcc6d3ee8a4)" d="M 154.19469 156.417641 
Q 151.578646 156.954142 148.749851 157.225511 
Q 145.921056 157.5 142.840113 157.5 
Q 133.652439 157.5 128.286397 155.466288 
Q 122.920354 153.432576 122.920354 149.954679 
Q 122.920354 146.464305 128.286397 144.433712 
Q 133.652439 142.4 142.840113 142.4 
Q 145.921056 142.4 148.749851 142.674489 
Q 151.578646 142.945858 154.19469 143.482359 
L 154.19469 146.492378 
Q 151.555007 145.781202 148.99412 145.450568 
Q 146.433234 145.119934 143.604439 145.119934 
Q 138.529943 145.119934 135.622352 146.408159 
Q 132.72264 147.693266 132.72264 149.954679 
Q 132.72264 152.206734 135.622352 153.49496 
Q 138.529943 154.780066 143.604439 154.780066 
Q 146.433234 154.780066 148.99412 154.449432 
Q 151.555007 154.115679 154.19469 153.404503 
z
" style="fill:#0000ff;"/>
   </g>
   <g id="patch_6">
    <path clip-path="url(#pcc6d3ee8a4)" d="M 144.584114 136.8985 
L 132.556507 136.8985 
L 130.657411 142.4 
L 122.920354 142.4 
L 133.969639 112.2 
L 143.145405 112.2 
L 154.19469 142.4 
L 146.464027 142.4 
z
M 134.474786 131.293442 
L 142.646653 131.293442 
L 138.567114 119.280754 
z
" style="fill:#008000;"/>
   </g>
   <g id="patch_7">
    <path clip-path="url(#pcc6d3ee8a4)" d="M 154.19469 104.002768 
Q 151.040622 108.101384 147.648247 110.16005 
Q 144.255872 112.2 140.639207 112.2 
Q 132.466666 112.2 127.69351 99.997728 
Q 122.920354 87.795455 122.920354 66.928073 
Q 122.920354 45.817393 127.777619 33.708697 
Q 132.641892 21.6 141.101804 21.6 
Q 144.361007 21.6 147.346858 23.246932 
Q 150.339718 24.87515 152.989135 28.094154 
L 152.989135 46.154266 
Q 150.25561 42.018219 147.55012 39.978269 
Q 144.844631 37.919603 142.125123 37.919603 
Q 137.092633 37.919603 134.366116 45.44309 
Q 131.6396 52.947862 131.6396 66.928073 
Q 131.6396 80.777277 134.26799 88.338195 
Q 136.89638 95.880397 141.732617 95.880397 
Q 143.050317 95.880397 144.178772 95.449948 
Q 145.307228 95.000785 146.204385 94.065028 
L 146.204385 77.10911 
L 141.05274 77.10911 
L 141.05274 62.00599 
L 154.19469 62.00599 
z
" style="fill:#ffa600;"/>
   </g>
   <g id="patch_8">
    <path clip-path="url(#pcc6d3ee8a4)" d="M 187.115044 145.204152 
Q 183.960976 151.352076 180.568601 154.440074 
Q 177.176226 157.5 173.559561 157.5 
Q 165.38702 157.5 160.613864 139.196592 
Q 155.840708 120.893183 155.840708 89.592109 
Q 155.840708 57.92609 160.697973 39.763045 
Q 165.562246 21.6 174.022158 21.6 
Q 177.281361 21.6 180.267212 24.070399 
Q 183.260072 26.512725 185.909489 31.341231 
L 185.909489 58.431398 
Q 183.175964 52.227329 180.470474 49.167403 
Q 177.764985 46.079405 175.045477 46.079405 
Q 170.012987 46.079405 167.28647 57.364635 
Q 164.559954 68.621793 164.559954 89.592109 
Q 164.559954 110.365916 167.188344 121.707292 
Q 169.816734 133.020595 174.652971 133.020595 
Q 175.970671 133.020595 177.099126 132.374923 
Q 178.227582 131.701177 179.124739 130.297542 
L 179.124739 104.863665 
L 173.973094 104.863665 
L 173.973094 82.208986 
L 187.115044 82.208986 
z
" style="fill:#ffa600;"/>
   </g>
   <g id="patch_9">
    <path clip-path="url(#pcc6d3ee8a4)" d="M 220.035398 154.767589 
Q 216.88133 156.133795 213.488955 156.820017 
Q 210.09658 157.5 206.479915 157.5 
Q 198.307374 157.5 193.534218 153.432576 
Q 188.761062 149.365152 188.761062 142.409358 
Q 188.761062 135.372464 193.618327 131.336232 
Q 198.4826 127.3 206.942512 127.3 
Q 210.201715 127.3 213.187566 127.848977 
Q 216.180426 128.391717 218.829843 129.464718 
L 218.829843 135.484755 
Q 216.096318 134.106073 213.390828 133.42609 
Q 210.685339 132.739868 207.965831 132.739868 
Q 202.933341 132.739868 200.206824 135.247697 
Q 197.480308 137.749287 197.480308 142.409358 
Q 197.480308 147.025759 200.108698 149.546065 
Q 202.737088 152.060132 207.573325 152.060132 
Q 208.891025 152.060132 210.01948 151.916649 
Q 211.147936 151.766928 212.045093 151.455009 
L 212.045093 145.803037 
L 206.893448 145.803037 
L 206.893448 140.768663 
L 220.035398 140.768663 
z
" style="fill:#ffa600;"/>
   </g>
   <g id="patch_10">
    <path clip-path="url(#pcc6d3ee8a4)" d="M 188.761062 82 
L 220.035398 82 
L 220.035398 90.834762 
L 208.78391 90.834762 
L 208.78391 127.3 
L 200.034369 127.3 
L 200.034369 90.834762 
L 188.761062 90.834762 
z
" style="fill:#ff0000;"/>
   </g>
   <g id="patch_11">
    <path clip-path="url(#pcc6d3ee8a4)" d="M 210.424822 70.997 
L 198.397215 70.997 
L 196.498119 82 
L 188.761062 82 
L 199.810347 21.6 
L 208.986113 21.6 
L 220.035398 82 
L 212.304735 82 
z
M 200.315494 59.786884 
L 208.487361 59.786884 
L 204.407821 35.761509 
z
" style="fill:#008000;"/>
   </g>
   <g id="patch_12">
    <path clip-path="url(#pcc6d3ee8a4)" d="M 243.345176 149.24775 
L 231.317569 149.24775 
L 229.418473 157.5 
L 221.681416 157.5 
L 232.730701 112.2 
L 241.906467 112.2 
L 252.955752 157.5 
L 245.225089 157.5 
z
M 233.235848 140.840163 
L 241.407715 140.840163 
L 237.328175 122.821132 
z
" style="fill:#008000;"/>
   </g>
   <g id="patch_13">
    <path clip-path="url(#pcc6d3ee8a4)" d="M 252.955752 104.002768 
Q 249.801684 108.101384 246.409309 110.16005 
Q 243.016934 112.2 239.400269 112.2 
Q 231.227728 112.2 226.454572 99.997728 
Q 221.681416 87.795455 221.681416 66.928073 
Q 221.681416 45.817393 226.538681 33.708697 
Q 231.402954 21.6 239.862866 21.6 
Q 243.122069 21.6 246.10792 23.246932 
Q 249.10078 24.87515 251.750197 28.094154 
L 251.750197 46.154266 
Q 249.016672 42.018219 246.311182 39.978269 
Q 243.605693 37.919603 240.886185 37.919603 
Q 235.853695 37.919603 233.127178 45.44309 
Q 230.400662 52.947862 230.400662 66.928073 
Q 230.400662 80.777277 233.029052 88.338195 
Q 235.657442 95.880397 240.493679 95.880397 
Q 241.811379 95.880397 242.939834 95.449948 
Q 244.06829 95.000785 244.965447 94.065028 
L 244.965447 77.10911 
L 239.813802 77.10911 
L 239.813802 62.00599 
L 252.955752 62.00599 
z
" style="fill:#ffa600;"/>
   </g>
   <g id="patch_14">
    <path clip-path="url(#pcc6d3ee8a4)" d="M 276.26553 154.74925 
L 264.237923 154.74925 
L 262.338827 157.5 
L 254.60177 157.5 
L 265.651055 142.4 
L 274.826821 142.4 
L 285.876106 157.5 
L 278.145443 157.5 
z
M 266.156202 151.946721 
L 274.328069 151.946721 
L 270.248529 145.940377 
z
" style="fill:#008000;"/>
   </g>
   <g id="patch_15">
    <path clip-path="url(#pcc6d3ee8a4)" d="M 285.876106 141.033795 
Q 282.722038 141.716897 279.329663 142.060008 
Q 275.937288 142.4 272.320623 142.4 
Q 264.148082 142.4 259.374926 140.366288 
Q 254.60177 138.332576 254.60177 134.854679 
Q 254.60177 131.336232 259.459035 129.318116 
Q 264.323308 127.3 272.78322 127.3 
Q 276.042423 127.3 279.028274 127.574489 
Q 282.021134 127.845858 284.670551 128.382359 
L 284.670551 131.392378 
Q 281.937026 130.703037 279.231536 130.363045 
Q 276.526047 130.019934 273.806539 130.019934 
Q 268.774049 130.019934 266.047532 131.273848 
Q 263.321016 132.524644 263.321016 134.854679 
Q 263.321016 137.16288 265.949406 138.423032 
Q 268.577796 139.680066 273.414033 139.680066 
Q 274.731733 139.680066 275.860188 139.608325 
Q 276.988644 139.533464 277.885801 139.377505 
L 277.885801 136.551518 
L 272.734156 136.551518 
L 272.734156 134.034332 
L 285.876106 134.034332 
z
" style="fill:#ffa600;"/>
   </g>
   <g id="patch_16">
    <path clip-path="url(#pcc6d3ee8a4)" d="M 285.876106 124.052923 
Q 283.260062 125.662425 280.431267 126.476534 
Q 277.602472 127.3 274.521529 127.3 
Q 265.333855 127.3 259.967812 121.198864 
Q 254.60177 115.097728 254.60177 104.664036 
Q 254.60177 94.192915 259.967812 88.101136 
Q 265.333855 82 274.521529 82 
Q 277.602472 82 280.431267 82.823466 
Q 283.260062 83.637575 285.876106 85.247077 
L 285.876106 94.277133 
Q 283.236423 92.143607 280.675536 91.151704 
Q 278.11465 90.159802 275.285855 90.159802 
Q 270.211359 90.159802 267.303768 94.024478 
Q 264.404056 97.879798 264.404056 104.664036 
Q 264.404056 111.420202 267.303768 115.284879 
Q 270.211359 119.140198 275.285855 119.140198 
Q 278.11465 119.140198 280.675536 118.148296 
Q 283.236423 117.147036 285.876106 115.01351 
z
" style="fill:#0000ff;"/>
   </g>
   <g id="patch_17">
    <path clip-path="url(#pcc6d3ee8a4)" d="M 254.60177 21.6 
L 285.876106 21.6 
L 285.876106 33.379683 
L 274.624618 33.379683 
L 274.624618 82 
L 265.875077 82 
L 265.875077 33.379683 
L 254.60177 33.379683 
z
" style="fill:#ff0000;"/>
   </g>
   <g id="patch_18">
    <path clip-path="url(#pcc6d3ee8a4)" d="M 318.79646 156.133795 
Q 315.642392 156.816897 312.250017 157.160008 
Q 308.857642 157.5 305.240977 157.5 
Q 297.068436 157.5 292.29528 155.466288 
Q 287.522124 153.432576 287.522124 149.954679 
Q 287.522124 146.436232 292.379389 144.418116 
Q 297.243662 142.4 305.703574 142.4 
Q 308.962777 142.4 311.948628 142.674489 
Q 314.941488 142.945858 317.590905 143.482359 
L 317.590905 146.492378 
Q 314.85738 145.803037 312.15189 145.463045 
Q 309.446401 145.119934 306.726893 145.119934 
Q 301.694403 145.119934 298.967886 146.373848 
Q 296.24137 147.624644 296.24137 149.954679 
Q 296.24137 152.26288 298.86976 153.523032 
Q 301.49815 154.780066 306.334387 154.780066 
Q 307.652087 154.780066 308.780542 154.708325 
Q 309.908998 154.633464 310.806155 154.477505 
L 310.806155 151.651518 
L 305.65451 151.651518 
L 305.65451 149.134332 
L 318.79646 149.134332 
z
" style="fill:#ffa600;"/>
   </g>
   <g id="patch_19">
    <path clip-path="url(#pcc6d3ee8a4)" d="M 287.522124 127.3 
L 318.79646 127.3 
L 318.79646 130.244921 
L 307.544972 130.244921 
L 307.544972 142.4 
L 298.795431 142.4 
L 298.795431 130.244921 
L 287.522124 130.244921 
z
" style="fill:#ff0000;"/>
   </g>
   <g id="patch_20">
    <path clip-path="url(#pcc6d3ee8a4)" d="M 318.79646 119.723487 
Q 316.180416 123.478992 313.351621 125.378579 
Q 310.522826 127.3 307.441883 127.3 
Q 298.254209 127.3 292.888166 113.064016 
Q 287.522124 98.828031 287.522124 74.482751 
Q 287.522124 50.050134 292.888166 35.835984 
Q 298.254209 21.6 307.441883 21.6 
Q 310.522826 21.6 313.351621 23.521421 
Q 316.180416 25.421008 318.79646 29.176513 
L 318.79646 50.246643 
Q 316.156777 45.268416 313.59589 42.953976 
Q 311.035004 40.639537 308.206209 40.639537 
Q 303.131713 40.639537 300.224122 49.657116 
Q 297.32441 58.652861 297.32441 74.482751 
Q 297.32441 90.247139 300.224122 99.264718 
Q 303.131713 108.260463 308.206209 108.260463 
Q 311.035004 108.260463 313.59589 105.946024 
Q 316.156777 103.60975 318.79646 98.631522 
z
" style="fill:#0000ff;"/>
   </g>
   <g id="patch_21">
    <path clip-path="url(#pcc6d3ee8a4)" d="M 320.442478 142.4 
L 351.716814 142.4 
L 351.716814 145.344921 
L 340.465326 145.344921 
L 340.465326 157.5 
L 331.715785 157.5 
L 331.715785 145.344921 
L 320.442478 145.344921 
z
" style="fill:#ff0000;"/>
   </g>
   <g id="patch_22">
    <path clip-path="url(#pcc6d3ee8a4)" d="M 342.106238 134.14775 
L 330.078631 134.14775 
L 328.179535 142.4 
L 320.442478 142.4 
L 331.491763 97.1 
L 340.667529 97.1 
L 351.716814 142.4 
L 343.986151 142.4 
z
M 331.99691 125.740163 
L 340.168777 125.740163 
L 336.089237 107.721132 
z
" style="fill:#008000;"/>
   </g>
   <g id="patch_23">
    <path clip-path="url(#pcc6d3ee8a4)" d="M 351.716814 90.268973 
Q 348.562746 93.684487 345.170371 95.400041 
Q 341.777996 97.1 338.161331 97.1 
Q 329.98879 97.1 325.215634 86.93144 
Q 320.442478 76.76288 320.442478 59.373394 
Q 320.442478 41.781161 325.299743 31.69058 
Q 330.164016 21.6 338.623928 21.6 
Q 341.883131 21.6 344.868982 22.972444 
Q 347.861842 24.329291 350.511259 27.011795 
L 350.511259 42.061888 
Q 347.777734 38.615183 345.072244 36.915224 
Q 342.366755 35.199669 339.647247 35.199669 
Q 334.614757 35.199669 331.88824 41.469242 
Q 329.161724 47.723218 329.161724 59.373394 
Q 329.161724 70.914398 331.790114 77.215162 
Q 334.418504 83.500331 339.254741 83.500331 
Q 340.572441 83.500331 341.700896 83.141624 
Q 342.829351 82.767321 343.726509 81.987523 
L 343.726509 67.857591 
L 338.574864 67.857591 
L 338.574864 55.271659 
L 351.716814 55.271659 
z
" style="fill:#ffa600;"/>
   </g>
   <g id="patch_24">
    <path clip-path="url(#pcc6d3ee8a4)" d="M 384.637168 156.417641 
Q 382.021124 156.954142 379.192329 157.225511 
Q 376.363534 157.5 373.282591 157.5 
Q 364.094917 157.5 358.728874 155.466288 
Q 353.362832 153.432576 353.362832 149.954679 
Q 353.362832 146.464305 358.728874 144.433712 
Q 364.094917 142.4 373.282591 142.4 
Q 376.363534 142.4 379.192329 142.674489 
Q 382.021124 142.945858 384.637168 143.482359 
L 384.637168 146.492378 
Q 381.997485 145.781202 379.436598 145.450568 
Q 376.875712 145.119934 374.046917 145.119934 
Q 368.972421 145.119934 366.06483 146.408159 
Q 363.165118 147.693266 363.165118 149.954679 
Q 363.165118 152.206734 366.06483 153.49496 
Q 368.972421 154.780066 374.046917 154.780066 
Q 376.875712 154.780066 379.436598 154.449432 
Q 381.997485 154.115679 384.637168 153.404503 
z
" style="fill:#0000ff;"/>
   </g>
   <g id="patch_25">
    <path clip-path="url(#pcc6d3ee8a4)" d="M 353.362832 97.1 
L 384.637168 97.1 
L 384.637168 105.934762 
L 373.38568 105.934762 
L 373.38568 142.4 
L 364.636139 142.4 
L 364.636139 105.934762 
L 353.362832 105.934762 
z
" style="fill:#ff0000;"/>
   </g>
   <g id="patch_26">
    <path clip-path="url(#pcc6d3ee8a4)" d="M 375.026592 83.346249 
L 362.998985 83.346249 
L 361.099889 97.1 
L 353.362832 97.1 
L 364.412117 21.6 
L 373.587883 21.6 
L 384.637168 97.1 
L 376.906505 97.1 
z
M 364.917264 69.333605 
L 373.089131 69.333605 
L 369.009591 39.301886 
z
" style="fill:#008000;"/>
   </g>
   <g id="patch_27">
    <path clip-path="url(#pcc6d3ee8a4)" d="M 417.557522 153.170564 
Q 414.941478 155.316567 412.112683 156.402045 
Q 409.283888 157.5 406.202945 157.5 
Q 397.015271 157.5 391.649228 149.365152 
Q 386.283186 141.230304 386.283186 127.318715 
Q 386.283186 113.35722 391.649228 105.234848 
Q 397.015271 97.1 406.202945 97.1 
Q 409.283888 97.1 412.112683 98.197955 
Q 414.941478 99.283433 417.557522 101.429436 
L 417.557522 113.46951 
Q 414.917839 110.624809 412.356952 109.302272 
Q 409.796066 107.979736 406.967271 107.979736 
Q 401.892775 107.979736 398.985184 113.132638 
Q 396.085472 118.273063 396.085472 127.318715 
Q 396.085472 136.326937 398.985184 141.479839 
Q 401.892775 146.620264 406.967271 146.620264 
Q 409.796066 146.620264 412.356952 145.297728 
Q 414.917839 143.962714 417.557522 141.118013 
z
" style="fill:#0000ff;"/>
   </g>
   <g id="patch_28">
    <path clip-path="url(#pcc6d3ee8a4)" d="M 407.946946 83.346249 
L 395.919339 83.346249 
L 394.020243 97.1 
L 386.283186 97.1 
L 397.332471 21.6 
L 406.508237 21.6 
L 417.557522 97.1 
L 409.826859 97.1 
z
M 397.837618 69.333605 
L 406.009485 69.333605 
L 401.929945 39.301886 
z
" style="fill:#008000;"/>
   </g>
   <g id="patch_29">
    <path clip-path="url(#pcc6d3ee8a4)" d="M 440.8673 132.743249 
L 428.839693 132.743249 
L 426.940597 157.5 
L 419.20354 157.5 
L 430.252825 21.6 
L 439.428591 21.6 
L 450.477876 157.5 
L 442.747213 157.5 
z
M 430.757972 107.520489 
L 438.929839 107.520489 
L 434.850299 53.463395 
z
" style="fill:#008000;"/>
   </g>
   <g id="patch_30">
    <path clip-path="url(#pcc6d3ee8a4)" d="M 473.787654 154.74925 
L 461.760047 154.74925 
L 459.860951 157.5 
L 452.123894 157.5 
L 463.173179 142.4 
L 472.348945 142.4 
L 483.39823 157.5 
L 475.667567 157.5 
z
M 463.678326 151.946721 
L 471.850193 151.946721 
L 467.770653 145.940377 
z
" style="fill:#008000;"/>
   </g>
   <g id="patch_31">
    <path clip-path="url(#pcc6d3ee8a4)" d="M 483.39823 138.070564 
Q 480.782186 140.216567 477.953391 141.302045 
Q 475.124596 142.4 472.043652 142.4 
Q 462.855979 142.4 457.489936 134.265152 
Q 452.123894 126.130304 452.123894 112.218715 
Q 452.123894 98.25722 457.489936 90.134848 
Q 462.855979 82 472.043652 82 
Q 475.124596 82 477.953391 83.097955 
Q 480.782186 84.183433 483.39823 86.329436 
L 483.39823 98.36951 
Q 480.758547 95.524809 478.19766 94.202272 
Q 475.636773 92.879736 472.807979 92.879736 
Q 467.733483 92.879736 464.825892 98.032638 
Q 461.92618 103.173063 461.92618 112.218715 
Q 461.92618 121.226937 464.825892 126.379839 
Q 467.733483 131.520264 472.807979 131.520264 
Q 475.636773 131.520264 478.19766 130.197728 
Q 480.758547 128.862714 483.39823 126.018013 
z
" style="fill:#0000ff;"/>
   </g>
   <g id="patch_32">
    <path clip-path="url(#pcc6d3ee8a4)" d="M 483.39823 76.535179 
Q 480.244162 79.267589 476.851787 80.640033 
Q 473.459411 82 469.842747 82 
Q 461.670206 82 456.89705 73.865152 
Q 452.123894 65.730304 452.123894 51.818715 
Q 452.123894 37.744929 456.981158 29.672464 
Q 461.845432 21.6 470.305343 21.6 
Q 473.564547 21.6 476.550398 22.697955 
Q 479.543258 23.783433 482.192675 25.929436 
L 482.192675 37.96951 
Q 479.45915 35.212146 476.75366 33.852179 
Q 474.048171 32.479736 471.328663 32.479736 
Q 466.296173 32.479736 463.569656 37.495394 
Q 460.84314 42.498575 460.84314 51.818715 
Q 460.84314 61.051518 463.471529 66.09213 
Q 466.099919 71.120264 470.936157 71.120264 
Q 472.253857 71.120264 473.382312 70.833299 
Q 474.510767 70.533857 475.407925 69.910019 
L 475.407925 58.606073 
L 470.25628 58.606073 
L 470.25628 48.537327 
L 483.39823 48.537327 
z
" style="fill:#ffa600;"/>
   </g>
   <g id="patch_33">
    <path clip-path="url(#pcc6d3ee8a4)" d="M 485.044248 142.4 
L 516.318584 142.4 
L 516.318584 145.344921 
L 505.067096 145.344921 
L 505.067096 157.5 
L 496.317555 157.5 
L 496.317555 145.344921 
L 485.044248 145.344921 
z
" style="fill:#ff0000;"/>
   </g>
   <g id="patch_34">
    <path clip-path="url(#pcc6d3ee8a4)" d="M 506.708008 136.8985 
L 494.680401 136.8985 
L 492.781305 142.4 
L 485.044248 142.4 
L 496.093533 112.2 
L 505.269299 112.2 
L 516.318584 142.4 
L 508.587921 142.4 
z
M 496.59868 131.293442 
L 504.770547 131.293442 
L 500.691007 119.280754 
z
" style="fill:#008000;"/>
   </g>
   <g id="patch_35">
    <path clip-path="url(#pcc6d3ee8a4)" d="M 516.318584 104.002768 
Q 513.164516 108.101384 509.772141 110.16005 
Q 506.379765 112.2 502.763101 112.2 
Q 494.59056 112.2 489.817404 99.997728 
Q 485.044248 87.795455 485.044248 66.928073 
Q 485.044248 45.817393 489.901512 33.708697 
Q 494.765786 21.6 503.225697 21.6 
Q 506.484901 21.6 509.470752 23.246932 
Q 512.463612 24.87515 515.113029 28.094154 
L 515.113029 46.154266 
Q 512.379504 42.018219 509.674014 39.978269 
Q 506.968525 37.919603 504.249017 37.919603 
Q 499.216527 37.919603 496.49001 45.44309 
Q 493.763493 52.947862 493.763493 66.928073 
Q 493.763493 80.777277 496.391883 88.338195 
Q 499.020273 95.880397 503.856511 95.880397 
Q 505.174211 95.880397 506.302666 95.449948 
Q 507.431121 95.000785 508.328279 94.065028 
L 508.328279 77.10911 
L 503.176634 77.10911 
L 503.176634 62.00599 
L 516.318584 62.00599 
z
" style="fill:#ffa600;"/>
   </g>
   <g id="patch_36">
    <path clip-path="url(#pcc6d3ee8a4)" d="M 539.628362 149.24775 
L 527.600755 149.24775 
L 525.701659 157.5 
L 517.964602 157.5 
L 529.013887 112.2 
L 538.189653 112.2 
L 549.238938 157.5 
L 541.508275 157.5 
z
M 529.519034 140.840163 
L 537.690901 140.840163 
L 533.611361 122.821132 
z
" style="fill:#008000;"/>
   </g>
   <g id="patch_37">
    <path clip-path="url(#pcc6d3ee8a4)" d="M 517.964602 21.6 
L 549.238938 21.6 
L 549.238938 39.269524 
L 537.98745 39.269524 
L 537.98745 112.2 
L 529.237909 112.2 
L 529.237909 39.269524 
L 517.964602 39.269524 
z
" style="fill:#ff0000;"/>
   </g>
   <g id="patch_38">
    <path clip-path="url(#pcc6d3ee8a4)" d="M 582.159292 156.133795 
Q 579.005224 156.816897 575.612849 157.160008 
Q 572.220473 157.5 568.603809 157.5 
Q 560.431268 157.5 555.658112 155.466288 
Q 550.884956 153.432576 550.884956 149.954679 
Q 550.884956 146.436232 555.74222 144.418116 
Q 560.606494 142.4 569.066405 142.4 
Q 572.325609 142.4 575.31146 142.674489 
Q 578.30432 142.945858 580.953737 143.482359 
L 580.953737 146.492378 
Q 578.220212 145.803037 575.514722 145.463045 
Q 572.809233 145.119934 570.089725 145.119934 
Q 565.057235 145.119934 562.330718 146.373848 
Q 559.604201 147.624644 559.604201 149.954679 
Q 559.604201 152.26288 562.232591 153.523032 
Q 564.860981 154.780066 569.697219 154.780066 
Q 571.014919 154.780066 572.143374 154.708325 
Q 573.271829 154.633464 574.168986 154.477505 
L 574.168986 151.651518 
L 569.017342 151.651518 
L 569.017342 149.134332 
L 582.159292 149.134332 
z
" style="fill:#ffa600;"/>
   </g>
   <g id="patch_39">
    <path clip-path="url(#pcc6d3ee8a4)" d="M 550.884956 127.3 
L 582.159292 127.3 
L 582.159292 130.244921 
L 570.907804 130.244921 
L 570.907804 142.4 
L 562.158263 142.4 
L 562.158263 130.244921 
L 550.884956 130.244921 
z
" style="fill:#ff0000;"/>
   </g>
   <g id="patch_40">
    <path clip-path="url(#pcc6d3ee8a4)" d="M 572.548716 108.044749 
L 560.521109 108.044749 
L 558.622013 127.3 
L 550.884956 127.3 
L 561.934241 21.6 
L 571.110007 21.6 
L 582.159292 127.3 
L 574.428629 127.3 
z
M 562.439387 88.427047 
L 570.611255 88.427047 
L 566.531715 46.38264 
z
" style="fill:#008000;"/>
   </g>
   <g id="patch_41">
    <path clip-path="url(#pcc6d3ee8a4)" d="M 605.46907 146.497 
L 593.441463 146.497 
L 591.542367 157.5 
L 583.80531 157.5 
L 594.854595 97.1 
L 604.030361 97.1 
L 615.079646 157.5 
L 607.348983 157.5 
z
M 595.359741 135.286884 
L 603.531609 135.286884 
L 599.452069 111.261509 
z
" style="fill:#008000;"/>
   </g>
   <g id="patch_42">
    <path clip-path="url(#pcc6d3ee8a4)" d="M 615.079646 90.268973 
Q 611.925578 93.684487 608.533203 95.400041 
Q 605.140827 97.1 601.524163 97.1 
Q 593.351622 97.1 588.578466 86.93144 
Q 583.80531 76.76288 583.80531 59.373394 
Q 583.80531 41.781161 588.662574 31.69058 
Q 593.526848 21.6 601.986759 21.6 
Q 605.245963 21.6 608.231814 22.972444 
Q 611.224674 24.329291 613.874091 27.011795 
L 613.874091 42.061888 
Q 611.140566 38.615183 608.435076 36.915224 
Q 605.729587 35.199669 603.010079 35.199669 
Q 597.977589 35.199669 595.251072 41.469242 
Q 592.524555 47.723218 592.524555 59.373394 
Q 592.524555 70.914398 595.152945 77.215162 
Q 597.781335 83.500331 602.617573 83.500331 
Q 603.935272 83.500331 605.063728 83.141624 
Q 606.192183 82.767321 607.08934 81.987523 
L 607.08934 67.857591 
L 601.937696 67.857591 
L 601.937696 55.271659 
L 615.079646 55.271659 
z
" style="fill:#ffa600;"/>
   </g>
   <g id="patch_43">
    <path clip-path="url(#pcc6d3ee8a4)" d="M 648 156.417641 
Q 645.383956 156.954142 642.555161 157.225511 
Q 639.726366 157.5 636.645422 157.5 
Q 627.457749 157.5 622.091706 155.466288 
Q 616.725664 153.432576 616.725664 149.954679 
Q 616.725664 146.464305 622.091706 144.433712 
Q 627.457749 142.4 636.645422 142.4 
Q 639.726366 142.4 642.555161 142.674489 
Q 645.383956 142.945858 648 143.482359 
L 648 146.492378 
Q 645.360317 145.781202 642.79943 145.450568 
Q 640.238543 145.119934 637.409749 145.119934 
Q 632.335253 145.119934 629.427662 146.408159 
Q 626.52795 147.693266 626.52795 149.954679 
Q 626.52795 152.206734 629.427662 153.49496 
Q 632.335253 154.780066 637.409749 154.780066 
Q 640.238543 154.780066 642.79943 154.449432 
Q 645.360317 154.115679 648 153.404503 
z
" style="fill:#0000ff;"/>
   </g>
   <g id="patch_44">
    <path clip-path="url(#pcc6d3ee8a4)" d="M 638.389424 136.8985 
L 626.361817 136.8985 
L 624.462721 142.4 
L 616.725664 142.4 
L 627.774949 112.2 
L 636.950715 112.2 
L 648 142.4 
L 640.269337 142.4 
z
M 628.280095 131.293442 
L 636.451963 131.293442 
L 632.372423 119.280754 
z
" style="fill:#008000;"/>
   </g>
   <g id="patch_45">
    <path clip-path="url(#pcc6d3ee8a4)" d="M 616.725664 82 
L 648 82 
L 648 87.889841 
L 636.748512 87.889841 
L 636.748512 112.2 
L 627.998971 112.2 
L 627.998971 87.889841 
L 616.725664 87.889841 
z
" style="fill:#ff0000;"/>
   </g>
   <g id="patch_46">
    <path clip-path="url(#pcc6d3ee8a4)" d="M 648 76.535179 
Q 644.845932 79.267589 641.453557 80.640033 
Q 638.061181 82 634.444517 82 
Q 626.271976 82 621.49882 73.865152 
Q 616.725664 65.730304 616.725664 51.818715 
Q 616.725664 37.744929 621.582928 29.672464 
Q 626.447202 21.6 634.907113 21.6 
Q 638.166317 21.6 641.152168 22.697955 
Q 644.145028 23.783433 646.794445 25.929436 
L 646.794445 37.96951 
Q 644.06092 35.212146 641.35543 33.852179 
Q 638.649941 32.479736 635.930433 32.479736 
Q 630.897943 32.479736 628.171426 37.495394 
Q 625.444909 42.498575 625.444909 51.818715 
Q 625.444909 61.051518 628.073299 66.09213 
Q 630.701689 71.120264 635.537927 71.120264 
Q 636.855626 71.120264 637.984082 70.833299 
Q 639.112537 70.533857 640.009694 69.910019 
L 640.009694 58.606073 
L 634.85805 58.606073 
L 634.85805 48.537327 
L 648 48.537327 
z
" style="fill:#ffa600;"/>
   </g>
  </g>
 </g>
 <defs>
  <clipPath id="pcc6d3ee8a4">
   <rect height="135.9" width="558" x="90" y="21.6"/>
  </clipPath>
 </defs>
</svg>
