<?xml version="1.0" encoding="utf-8" standalone="no"?>
<!DOCTYPE svg PUBLIC "-//W3C//DTD SVG 1.1//EN"
  "http://www.w3.org/Graphics/SVG/1.1/DTD/svg11.dtd">
<!-- Created with matplotlib (https://matplotlib.org/) -->
<svg height="180pt" version="1.1" viewBox="0 0 720 180" width="720pt" xmlns="http://www.w3.org/2000/svg" xmlns:xlink="http://www.w3.org/1999/xlink">
 <metadata>
  <rdf:RDF xmlns:cc="http://creativecommons.org/ns#" xmlns:dc="http://purl.org/dc/elements/1.1/" xmlns:rdf="http://www.w3.org/1999/02/22-rdf-syntax-ns#">
   <cc:Work>
    <dc:type rdf:resource="http://purl.org/dc/dcmitype/StillImage"/>
    <dc:date>2021-08-04T23:33:48.969995</dc:date>
    <dc:format>image/svg+xml</dc:format>
    <dc:creator>
     <cc:Agent>
      <dc:title>Matplotlib v3.3.2, https://matplotlib.org/</dc:title>
     </cc:Agent>
    </dc:creator>
   </cc:Work>
  </rdf:RDF>
 </metadata>
 <defs>
  <style type="text/css">*{stroke-linecap:butt;stroke-linejoin:round;}</style>
 </defs>
 <g id="figure_1">
  <g id="patch_1">
   <path d="M 0 180 
L 720 180 
L 720 0 
L 0 0 
z
" style="fill:none;"/>
  </g>
  <g id="axes_1">
   <g id="line2d_1">
    <path clip-path="url(#p6022d0291e)" d="M 90 157.5 
L 648 157.5 
" style="fill:none;stroke:#000000;stroke-linecap:square;stroke-width:0.5;"/>
   </g>
   <g id="patch_2">
    <path clip-path="url(#p6022d0291e)" d="M 121.274336 156.417641 
Q 118.658292 156.954142 115.829497 157.225511 
Q 113.000702 157.5 109.919759 157.5 
Q 100.732085 157.5 95.366043 155.466288 
Q 90 153.432576 90 149.954679 
Q 90 146.464305 95.366043 144.433712 
Q 100.732085 142.4 109.919759 142.4 
Q 113.000702 142.4 115.829497 142.674489 
Q 118.658292 142.945858 121.274336 143.482359 
L 121.274336 146.492378 
Q 118.634653 145.781202 116.073766 145.450568 
Q 113.51288 145.119934 110.684085 145.119934 
Q 105.609589 145.119934 102.701998 146.408159 
Q 99.802286 147.693266 99.802286 149.954679 
Q 99.802286 152.206734 102.701998 153.49496 
Q 105.609589 154.780066 110.684085 154.780066 
Q 113.51288 154.780066 116.073766 154.449432 
Q 118.634653 154.115679 121.274336 153.404503 
z
" style="fill:#0000ff;"/>
   </g>
   <g id="patch_3">
    <path clip-path="url(#p6022d0291e)" d="M 121.274336 139.667589 
Q 118.120268 141.033795 114.727893 141.720017 
Q 111.335518 142.4 107.718853 142.4 
Q 99.546312 142.4 94.773156 138.332576 
Q 90 134.265152 90 127.309358 
Q 90 120.272464 94.857265 116.236232 
Q 99.721538 112.2 108.18145 112.2 
Q 111.440653 112.2 114.426504 112.748977 
Q 117.419364 113.291717 120.068781 114.364718 
L 120.068781 120.384755 
Q 117.335256 119.006073 114.629766 118.32609 
Q 111.924277 117.639868 109.204769 117.639868 
Q 104.172279 117.639868 101.445762 120.147697 
Q 98.719246 122.649287 98.719246 127.309358 
Q 98.719246 131.925759 101.347636 134.446065 
Q 103.976026 136.960132 108.812263 136.960132 
Q 110.129963 136.960132 111.258418 136.816649 
Q 112.386874 136.666928 113.284031 136.355009 
L 113.284031 130.703037 
L 108.132386 130.703037 
L 108.132386 125.668663 
L 121.274336 125.668663 
z
" style="fill:#ffa600;"/>
   </g>
   <g id="patch_4">
    <path clip-path="url(#p6022d0291e)" d="M 111.66376 103.94775 
L 99.636153 103.94775 
L 97.737057 112.2 
L 90 112.2 
L 101.049285 66.9 
L 110.225051 66.9 
L 121.274336 112.2 
L 113.543673 112.2 
z
M 101.554432 95.540163 
L 109.726299 95.540163 
L 105.64676 77.521132 
z
" style="fill:#008000;"/>
   </g>
   <g id="patch_5">
    <path clip-path="url(#p6022d0291e)" d="M 90 21.6 
L 121.274336 21.6 
L 121.274336 30.434762 
L 110.022848 30.434762 
L 110.022848 66.9 
L 101.273307 66.9 
L 101.273307 30.434762 
L 90 30.434762 
z
" style="fill:#ff0000;"/>
   </g>
   <g id="patch_6">
    <path clip-path="url(#p6022d0291e)" d="M 154.19469 156.417641 
Q 151.578646 156.954142 148.749851 157.225511 
Q 145.921056 157.5 142.840113 157.5 
Q 133.652439 157.5 128.286397 155.466288 
Q 122.920354 153.432576 122.920354 149.954679 
Q 122.920354 146.464305 128.286397 144.433712 
Q 133.652439 142.4 142.840113 142.4 
Q 145.921056 142.4 148.749851 142.674489 
Q 151.578646 142.945858 154.19469 143.482359 
L 154.19469 146.492378 
Q 151.555007 145.781202 148.99412 145.450568 
Q 146.433234 145.119934 143.604439 145.119934 
Q 138.529943 145.119934 135.622352 146.408159 
Q 132.72264 147.693266 132.72264 149.954679 
Q 132.72264 152.206734 135.622352 153.49496 
Q 138.529943 154.780066 143.604439 154.780066 
Q 146.433234 154.780066 148.99412 154.449432 
Q 151.555007 154.115679 154.19469 153.404503 
z
" style="fill:#0000ff;"/>
   </g>
   <g id="patch_7">
    <path clip-path="url(#p6022d0291e)" d="M 122.920354 127.3 
L 154.19469 127.3 
L 154.19469 130.244921 
L 142.943202 130.244921 
L 142.943202 142.4 
L 134.193661 142.4 
L 134.193661 130.244921 
L 122.920354 130.244921 
z
" style="fill:#ff0000;"/>
   </g>
   <g id="patch_8">
    <path clip-path="url(#p6022d0291e)" d="M 154.19469 117.736563 
Q 151.040622 122.518281 147.648247 124.920058 
Q 144.255872 127.3 140.639207 127.3 
Q 132.466666 127.3 127.69351 113.064016 
Q 122.920354 98.828031 122.920354 74.482751 
Q 122.920354 49.853625 127.777619 35.726813 
Q 132.641892 21.6 141.101804 21.6 
Q 144.361007 21.6 147.346858 23.521421 
Q 150.339718 25.421008 152.989135 29.176513 
L 152.989135 50.246643 
Q 150.25561 45.421256 147.55012 43.041314 
Q 144.844631 40.639537 142.125123 40.639537 
Q 137.092633 40.639537 134.366116 49.416939 
Q 131.6396 58.172506 131.6396 74.482751 
Q 131.6396 90.640157 134.26799 99.461227 
Q 136.89638 108.260463 141.732617 108.260463 
Q 143.050317 108.260463 144.178772 107.758273 
Q 145.307228 107.234249 146.204385 106.142533 
L 146.204385 86.360628 
L 141.05274 86.360628 
L 141.05274 68.740322 
L 154.19469 68.740322 
z
" style="fill:#ffa600;"/>
   </g>
   <g id="patch_9">
    <path clip-path="url(#p6022d0291e)" d="M 177.504468 154.74925 
L 165.476861 154.74925 
L 163.577765 157.5 
L 155.840708 157.5 
L 166.889993 142.4 
L 176.065759 142.4 
L 187.115044 157.5 
L 179.384381 157.5 
z
M 167.39514 151.946721 
L 175.567007 151.946721 
L 171.487467 145.940377 
z
" style="fill:#008000;"/>
   </g>
   <g id="patch_10">
    <path clip-path="url(#p6022d0291e)" d="M 155.840708 127.3 
L 187.115044 127.3 
L 187.115044 130.244921 
L 175.863556 130.244921 
L 175.863556 142.4 
L 167.114015 142.4 
L 167.114015 130.244921 
L 155.840708 130.244921 
z
" style="fill:#ff0000;"/>
   </g>
   <g id="patch_11">
    <path clip-path="url(#p6022d0291e)" d="M 187.115044 123.201384 
Q 183.960976 125.250692 180.568601 126.280025 
Q 177.176226 127.3 173.559561 127.3 
Q 165.38702 127.3 160.613864 121.198864 
Q 155.840708 115.097728 155.840708 104.664036 
Q 155.840708 94.108697 160.697973 88.054348 
Q 165.562246 82 174.022158 82 
Q 177.281361 82 180.267212 82.823466 
Q 183.260072 83.637575 185.909489 85.247077 
L 185.909489 94.277133 
Q 183.175964 92.20911 180.470474 91.189134 
Q 177.764985 90.159802 175.045477 90.159802 
Q 170.012987 90.159802 167.28647 93.921545 
Q 164.559954 97.673931 164.559954 104.664036 
Q 164.559954 111.588639 167.188344 115.369097 
Q 169.816734 119.140198 174.652971 119.140198 
Q 175.970671 119.140198 177.099126 118.924974 
Q 178.227582 118.700392 179.124739 118.232514 
L 179.124739 109.754555 
L 173.973094 109.754555 
L 173.973094 102.202995 
L 187.115044 102.202995 
z
" style="fill:#ffa600;"/>
   </g>
   <g id="patch_12">
    <path clip-path="url(#p6022d0291e)" d="M 187.115044 77.670564 
Q 184.499 79.816567 181.670205 80.902045 
Q 178.84141 82 175.760467 82 
Q 166.572793 82 161.206751 73.865152 
Q 155.840708 65.730304 155.840708 51.818715 
Q 155.840708 37.85722 161.206751 29.734848 
Q 166.572793 21.6 175.760467 21.6 
Q 178.84141 21.6 181.670205 22.697955 
Q 184.499 23.783433 187.115044 25.929436 
L 187.115044 37.96951 
Q 184.475361 35.124809 181.914474 33.802272 
Q 179.353588 32.479736 176.524793 32.479736 
Q 171.450297 32.479736 168.542706 37.632638 
Q 165.642994 42.773063 165.642994 51.818715 
Q 165.642994 60.826937 168.542706 65.979839 
Q 171.450297 71.120264 176.524793 71.120264 
Q 179.353588 71.120264 181.914474 69.797728 
Q 184.475361 68.462714 187.115044 65.618013 
z
" style="fill:#0000ff;"/>
   </g>
   <g id="patch_13">
    <path clip-path="url(#p6022d0291e)" d="M 220.035398 156.133795 
Q 216.88133 156.816897 213.488955 157.160008 
Q 210.09658 157.5 206.479915 157.5 
Q 198.307374 157.5 193.534218 155.466288 
Q 188.761062 153.432576 188.761062 149.954679 
Q 188.761062 146.436232 193.618327 144.418116 
Q 198.4826 142.4 206.942512 142.4 
Q 210.201715 142.4 213.187566 142.674489 
Q 216.180426 142.945858 218.829843 143.482359 
L 218.829843 146.492378 
Q 216.096318 145.803037 213.390828 145.463045 
Q 210.685339 145.119934 207.965831 145.119934 
Q 202.933341 145.119934 200.206824 146.373848 
Q 197.480308 147.624644 197.480308 149.954679 
Q 197.480308 152.26288 200.108698 153.523032 
Q 202.737088 154.780066 207.573325 154.780066 
Q 208.891025 154.780066 210.01948 154.708325 
Q 211.147936 154.633464 212.045093 154.477505 
L 212.045093 151.651518 
L 206.893448 151.651518 
L 206.893448 149.134332 
L 220.035398 149.134332 
z
" style="fill:#ffa600;"/>
   </g>
   <g id="patch_14">
    <path clip-path="url(#p6022d0291e)" d="M 210.424822 136.8985 
L 198.397215 136.8985 
L 196.498119 142.4 
L 188.761062 142.4 
L 199.810347 112.2 
L 208.986113 112.2 
L 220.035398 142.4 
L 212.304735 142.4 
z
M 200.315494 131.293442 
L 208.487361 131.293442 
L 204.407821 119.280754 
z
" style="fill:#008000;"/>
   </g>
   <g id="patch_15">
    <path clip-path="url(#p6022d0291e)" d="M 188.761062 21.6 
L 220.035398 21.6 
L 220.035398 39.269524 
L 208.78391 39.269524 
L 208.78391 112.2 
L 200.034369 112.2 
L 200.034369 39.269524 
L 188.761062 39.269524 
z
" style="fill:#ff0000;"/>
   </g>
   <g id="patch_16">
    <path clip-path="url(#p6022d0291e)" d="M 243.345176 151.9985 
L 231.317569 151.9985 
L 229.418473 157.5 
L 221.681416 157.5 
L 232.730701 127.3 
L 241.906467 127.3 
L 252.955752 157.5 
L 245.225089 157.5 
z
M 233.235848 146.393442 
L 241.407715 146.393442 
L 237.328175 134.380754 
z
" style="fill:#008000;"/>
   </g>
   <g id="patch_17">
    <path clip-path="url(#p6022d0291e)" d="M 221.681416 21.6 
L 252.955752 21.6 
L 252.955752 42.214445 
L 241.704264 42.214445 
L 241.704264 127.3 
L 232.954723 127.3 
L 232.954723 42.214445 
L 221.681416 42.214445 
z
" style="fill:#ff0000;"/>
   </g>
   <g id="patch_18">
    <path clip-path="url(#p6022d0291e)" d="M 285.876106 156.417641 
Q 283.260062 156.954142 280.431267 157.225511 
Q 277.602472 157.5 274.521529 157.5 
Q 265.333855 157.5 259.967812 155.466288 
Q 254.60177 153.432576 254.60177 149.954679 
Q 254.60177 146.464305 259.967812 144.433712 
Q 265.333855 142.4 274.521529 142.4 
Q 277.602472 142.4 280.431267 142.674489 
Q 283.260062 142.945858 285.876106 143.482359 
L 285.876106 146.492378 
Q 283.236423 145.781202 280.675536 145.450568 
Q 278.11465 145.119934 275.285855 145.119934 
Q 270.211359 145.119934 267.303768 146.408159 
Q 264.404056 147.693266 264.404056 149.954679 
Q 264.404056 152.206734 267.303768 153.49496 
Q 270.211359 154.780066 275.285855 154.780066 
Q 278.11465 154.780066 280.675536 154.449432 
Q 283.236423 154.115679 285.876106 153.404503 
z
" style="fill:#0000ff;"/>
   </g>
   <g id="patch_19">
    <path clip-path="url(#p6022d0291e)" d="M 285.876106 141.033795 
Q 282.722038 141.716897 279.329663 142.060008 
Q 275.937288 142.4 272.320623 142.4 
Q 264.148082 142.4 259.374926 140.366288 
Q 254.60177 138.332576 254.60177 134.854679 
Q 254.60177 131.336232 259.459035 129.318116 
Q 264.323308 127.3 272.78322 127.3 
Q 276.042423 127.3 279.028274 127.574489 
Q 282.021134 127.845858 284.670551 128.382359 
L 284.670551 131.392378 
Q 281.937026 130.703037 279.231536 130.363045 
Q 276.526047 130.019934 273.806539 130.019934 
Q 268.774049 130.019934 266.047532 131.273848 
Q 263.321016 132.524644 263.321016 134.854679 
Q 263.321016 137.16288 265.949406 138.423032 
Q 268.577796 139.680066 273.414033 139.680066 
Q 274.731733 139.680066 275.860188 139.608325 
Q 276.988644 139.533464 277.885801 139.377505 
L 277.885801 136.551518 
L 272.734156 136.551518 
L 272.734156 134.034332 
L 285.876106 134.034332 
z
" style="fill:#ffa600;"/>
   </g>
   <g id="patch_20">
    <path clip-path="url(#p6022d0291e)" d="M 276.26553 108.044749 
L 264.237923 108.044749 
L 262.338827 127.3 
L 254.60177 127.3 
L 265.651055 21.6 
L 274.826821 21.6 
L 285.876106 127.3 
L 278.145443 127.3 
z
M 266.156202 88.427047 
L 274.328069 88.427047 
L 270.248529 46.38264 
z
" style="fill:#008000;"/>
   </g>
   <g id="patch_21">
    <path clip-path="url(#p6022d0291e)" d="M 309.185884 149.24775 
L 297.158277 149.24775 
L 295.259181 157.5 
L 287.522124 157.5 
L 298.571409 112.2 
L 307.747175 112.2 
L 318.79646 157.5 
L 311.065797 157.5 
z
M 299.076556 140.840163 
L 307.248423 140.840163 
L 303.168883 122.821132 
z
" style="fill:#008000;"/>
   </g>
   <g id="patch_22">
    <path clip-path="url(#p6022d0291e)" d="M 318.79646 105.705846 
Q 316.180416 108.92485 313.351621 110.553068 
Q 310.522826 112.2 307.441883 112.2 
Q 298.254209 112.2 292.888166 99.997728 
Q 287.522124 87.795455 287.522124 66.928073 
Q 287.522124 45.985829 292.888166 33.802272 
Q 298.254209 21.6 307.441883 21.6 
Q 310.522826 21.6 313.351621 23.246932 
Q 316.180416 24.87515 318.79646 28.094154 
L 318.79646 46.154266 
Q 316.156777 41.887213 313.59589 39.903408 
Q 311.035004 37.919603 308.206209 37.919603 
Q 303.131713 37.919603 300.224122 45.648957 
Q 297.32441 53.359595 297.32441 66.928073 
Q 297.32441 80.440405 300.224122 88.169758 
Q 303.131713 95.880397 308.206209 95.880397 
Q 311.035004 95.880397 313.59589 93.896592 
Q 316.156777 91.894071 318.79646 87.627019 
z
" style="fill:#0000ff;"/>
   </g>
   <g id="patch_23">
    <path clip-path="url(#p6022d0291e)" d="M 351.716814 155.335282 
Q 349.10077 156.408283 346.271975 156.951023 
Q 343.44318 157.5 340.362237 157.5 
Q 331.174563 157.5 325.80852 153.432576 
Q 320.442478 149.365152 320.442478 142.409358 
Q 320.442478 135.42861 325.80852 131.367424 
Q 331.174563 127.3 340.362237 127.3 
Q 343.44318 127.3 346.271975 127.848977 
Q 349.10077 128.391717 351.716814 129.464718 
L 351.716814 135.484755 
Q 349.077131 134.062404 346.516244 133.401136 
Q 343.955358 132.739868 341.126563 132.739868 
Q 336.052067 132.739868 333.144476 135.316319 
Q 330.244764 137.886532 330.244764 142.409358 
Q 330.244764 146.913468 333.144476 149.489919 
Q 336.052067 152.060132 341.126563 152.060132 
Q 343.955358 152.060132 346.516244 151.398864 
Q 349.077131 150.731357 351.716814 149.309006 
z
" style="fill:#0000ff;"/>
   </g>
   <g id="patch_24">
    <path clip-path="url(#p6022d0291e)" d="M 342.106238 108.044749 
L 330.078631 108.044749 
L 328.179535 127.3 
L 320.442478 127.3 
L 331.491763 21.6 
L 340.667529 21.6 
L 351.716814 127.3 
L 343.986151 127.3 
z
M 331.99691 88.427047 
L 340.168777 88.427047 
L 336.089237 46.38264 
z
" style="fill:#008000;"/>
   </g>
   <g id="patch_25">
    <path clip-path="url(#p6022d0291e)" d="M 384.637168 156.133795 
Q 381.4831 156.816897 378.090725 157.160008 
Q 374.698349 157.5 371.081685 157.5 
Q 362.909144 157.5 358.135988 155.466288 
Q 353.362832 153.432576 353.362832 149.954679 
Q 353.362832 146.436232 358.220097 144.418116 
Q 363.08437 142.4 371.544282 142.4 
Q 374.803485 142.4 377.789336 142.674489 
Q 380.782196 142.945858 383.431613 143.482359 
L 383.431613 146.492378 
Q 380.698088 145.803037 377.992598 145.463045 
Q 375.287109 145.119934 372.567601 145.119934 
Q 367.535111 145.119934 364.808594 146.373848 
Q 362.082078 147.624644 362.082078 149.954679 
Q 362.082078 152.26288 364.710468 153.523032 
Q 367.338858 154.780066 372.175095 154.780066 
Q 373.492795 154.780066 374.62125 154.708325 
Q 375.749705 154.633464 376.646863 154.477505 
L 376.646863 151.651518 
L 371.495218 151.651518 
L 371.495218 149.134332 
L 384.637168 149.134332 
z
" style="fill:#ffa600;"/>
   </g>
   <g id="patch_26">
    <path clip-path="url(#p6022d0291e)" d="M 375.026592 120.393999 
L 362.998985 120.393999 
L 361.099889 142.4 
L 353.362832 142.4 
L 364.412117 21.6 
L 373.587883 21.6 
L 384.637168 142.4 
L 376.906505 142.4 
z
M 364.917264 97.973768 
L 373.089131 97.973768 
L 369.009591 49.923018 
z
" style="fill:#008000;"/>
   </g>
   <g id="patch_27">
    <path clip-path="url(#p6022d0291e)" d="M 417.557522 156.133795 
Q 414.403454 156.816897 411.011079 157.160008 
Q 407.618703 157.5 404.002039 157.5 
Q 395.829498 157.5 391.056342 155.466288 
Q 386.283186 153.432576 386.283186 149.954679 
Q 386.283186 146.436232 391.140451 144.418116 
Q 396.004724 142.4 404.464635 142.4 
Q 407.723839 142.4 410.70969 142.674489 
Q 413.70255 142.945858 416.351967 143.482359 
L 416.351967 146.492378 
Q 413.618442 145.803037 410.912952 145.463045 
Q 408.207463 145.119934 405.487955 145.119934 
Q 400.455465 145.119934 397.728948 146.373848 
Q 395.002432 147.624644 395.002432 149.954679 
Q 395.002432 152.26288 397.630822 153.523032 
Q 400.259212 154.780066 405.095449 154.780066 
Q 406.413149 154.780066 407.541604 154.708325 
Q 408.670059 154.633464 409.567217 154.477505 
L 409.567217 151.651518 
L 404.415572 151.651518 
L 404.415572 149.134332 
L 417.557522 149.134332 
z
" style="fill:#ffa600;"/>
   </g>
   <g id="patch_28">
    <path clip-path="url(#p6022d0291e)" d="M 407.946946 120.393999 
L 395.919339 120.393999 
L 394.020243 142.4 
L 386.283186 142.4 
L 397.332471 21.6 
L 406.508237 21.6 
L 417.557522 142.4 
L 409.826859 142.4 
z
M 397.837618 97.973768 
L 406.009485 97.973768 
L 401.929945 49.923018 
z
" style="fill:#008000;"/>
   </g>
   <g id="patch_29">
    <path clip-path="url(#p6022d0291e)" d="M 450.477876 156.417641 
Q 447.861832 156.954142 445.033037 157.225511 
Q 442.204242 157.5 439.123298 157.5 
Q 429.935625 157.5 424.569582 155.466288 
Q 419.20354 153.432576 419.20354 149.954679 
Q 419.20354 146.464305 424.569582 144.433712 
Q 429.935625 142.4 439.123298 142.4 
Q 442.204242 142.4 445.033037 142.674489 
Q 447.861832 142.945858 450.477876 143.482359 
L 450.477876 146.492378 
Q 447.838193 145.781202 445.277306 145.450568 
Q 442.71642 145.119934 439.887625 145.119934 
Q 434.813129 145.119934 431.905538 146.408159 
Q 429.005826 147.693266 429.005826 149.954679 
Q 429.005826 152.206734 431.905538 153.49496 
Q 434.813129 154.780066 439.887625 154.780066 
Q 442.71642 154.780066 445.277306 154.449432 
Q 447.838193 154.115679 450.477876 153.404503 
z
" style="fill:#0000ff;"/>
   </g>
   <g id="patch_30">
    <path clip-path="url(#p6022d0291e)" d="M 450.477876 139.667589 
Q 447.323808 141.033795 443.931433 141.720017 
Q 440.539057 142.4 436.922393 142.4 
Q 428.749852 142.4 423.976696 138.332576 
Q 419.20354 134.265152 419.20354 127.309358 
Q 419.20354 120.272464 424.060805 116.236232 
Q 428.925078 112.2 437.384989 112.2 
Q 440.644193 112.2 443.630044 112.748977 
Q 446.622904 113.291717 449.272321 114.364718 
L 449.272321 120.384755 
Q 446.538796 119.006073 443.833306 118.32609 
Q 441.127817 117.639868 438.408309 117.639868 
Q 433.375819 117.639868 430.649302 120.147697 
Q 427.922786 122.649287 427.922786 127.309358 
Q 427.922786 131.925759 430.551176 134.446065 
Q 433.179565 136.960132 438.015803 136.960132 
Q 439.333503 136.960132 440.461958 136.816649 
Q 441.590413 136.666928 442.487571 136.355009 
L 442.487571 130.703037 
L 437.335926 130.703037 
L 437.335926 125.668663 
L 450.477876 125.668663 
z
" style="fill:#ffa600;"/>
   </g>
   <g id="patch_31">
    <path clip-path="url(#p6022d0291e)" d="M 440.8673 95.695499 
L 428.839693 95.695499 
L 426.940597 112.2 
L 419.20354 112.2 
L 430.252825 21.6 
L 439.428591 21.6 
L 450.477876 112.2 
L 442.747213 112.2 
z
M 430.757972 78.880326 
L 438.929839 78.880326 
L 434.850299 42.842263 
z
" style="fill:#008000;"/>
   </g>
   <g id="patch_32">
    <path clip-path="url(#p6022d0291e)" d="M 483.39823 156.133795 
Q 480.244162 156.816897 476.851787 157.160008 
Q 473.459411 157.5 469.842747 157.5 
Q 461.670206 157.5 456.89705 155.466288 
Q 452.123894 153.432576 452.123894 149.954679 
Q 452.123894 146.436232 456.981158 144.418116 
Q 461.845432 142.4 470.305343 142.4 
Q 473.564547 142.4 476.550398 142.674489 
Q 479.543258 142.945858 482.192675 143.482359 
L 482.192675 146.492378 
Q 479.45915 145.803037 476.75366 145.463045 
Q 474.048171 145.119934 471.328663 145.119934 
Q 466.296173 145.119934 463.569656 146.373848 
Q 460.84314 147.624644 460.84314 149.954679 
Q 460.84314 152.26288 463.471529 153.523032 
Q 466.099919 154.780066 470.936157 154.780066 
Q 472.253857 154.780066 473.382312 154.708325 
Q 474.510767 154.633464 475.407925 154.477505 
L 475.407925 151.651518 
L 470.25628 151.651518 
L 470.25628 149.134332 
L 483.39823 149.134332 
z
" style="fill:#ffa600;"/>
   </g>
   <g id="patch_33">
    <path clip-path="url(#p6022d0291e)" d="M 473.787654 120.393999 
L 461.760047 120.393999 
L 459.860951 142.4 
L 452.123894 142.4 
L 463.173179 21.6 
L 472.348945 21.6 
L 483.39823 142.4 
L 475.667567 142.4 
z
M 463.678326 97.973768 
L 471.850193 97.973768 
L 467.770653 49.923018 
z
" style="fill:#008000;"/>
   </g>
   <g id="patch_34">
    <path clip-path="url(#p6022d0291e)" d="M 516.318584 156.133795 
Q 513.164516 156.816897 509.772141 157.160008 
Q 506.379765 157.5 502.763101 157.5 
Q 494.59056 157.5 489.817404 155.466288 
Q 485.044248 153.432576 485.044248 149.954679 
Q 485.044248 146.436232 489.901512 144.418116 
Q 494.765786 142.4 503.225697 142.4 
Q 506.484901 142.4 509.470752 142.674489 
Q 512.463612 142.945858 515.113029 143.482359 
L 515.113029 146.492378 
Q 512.379504 145.803037 509.674014 145.463045 
Q 506.968525 145.119934 504.249017 145.119934 
Q 499.216527 145.119934 496.49001 146.373848 
Q 493.763493 147.624644 493.763493 149.954679 
Q 493.763493 152.26288 496.391883 153.523032 
Q 499.020273 154.780066 503.856511 154.780066 
Q 505.174211 154.780066 506.302666 154.708325 
Q 507.431121 154.633464 508.328279 154.477505 
L 508.328279 151.651518 
L 503.176634 151.651518 
L 503.176634 149.134332 
L 516.318584 149.134332 
z
" style="fill:#ffa600;"/>
   </g>
   <g id="patch_35">
    <path clip-path="url(#p6022d0291e)" d="M 485.044248 21.6 
L 516.318584 21.6 
L 516.318584 45.159366 
L 505.067096 45.159366 
L 505.067096 142.4 
L 496.317555 142.4 
L 496.317555 45.159366 
L 485.044248 45.159366 
z
" style="fill:#ff0000;"/>
   </g>
   <g id="patch_36">
    <path clip-path="url(#p6022d0291e)" d="M 517.964602 97.1 
L 549.238938 97.1 
L 549.238938 108.879683 
L 537.98745 108.879683 
L 537.98745 157.5 
L 529.237909 157.5 
L 529.237909 108.879683 
L 517.964602 108.879683 
z
" style="fill:#ff0000;"/>
   </g>
   <g id="patch_37">
    <path clip-path="url(#p6022d0291e)" d="M 539.628362 83.346249 
L 527.600755 83.346249 
L 525.701659 97.1 
L 517.964602 97.1 
L 529.013887 21.6 
L 538.189653 21.6 
L 549.238938 97.1 
L 541.508275 97.1 
z
M 529.519034 69.333605 
L 537.690901 69.333605 
L 533.611361 39.301886 
z
" style="fill:#008000;"/>
   </g>
   <g id="patch_38">
    <path clip-path="url(#p6022d0291e)" d="M 572.548716 154.74925 
L 560.521109 154.74925 
L 558.622013 157.5 
L 550.884956 157.5 
L 561.934241 142.4 
L 571.110007 142.4 
L 582.159292 157.5 
L 574.428629 157.5 
z
M 562.439387 151.946721 
L 570.611255 151.946721 
L 566.531715 145.940377 
z
" style="fill:#008000;"/>
   </g>
   <g id="patch_39">
    <path clip-path="url(#p6022d0291e)" d="M 582.159292 139.667589 
Q 579.005224 141.033795 575.612849 141.720017 
Q 572.220473 142.4 568.603809 142.4 
Q 560.431268 142.4 555.658112 138.332576 
Q 550.884956 134.265152 550.884956 127.309358 
Q 550.884956 120.272464 555.74222 116.236232 
Q 560.606494 112.2 569.066405 112.2 
Q 572.325609 112.2 575.31146 112.748977 
Q 578.30432 113.291717 580.953737 114.364718 
L 580.953737 120.384755 
Q 578.220212 119.006073 575.514722 118.32609 
Q 572.809233 117.639868 570.089725 117.639868 
Q 565.057235 117.639868 562.330718 120.147697 
Q 559.604201 122.649287 559.604201 127.309358 
Q 559.604201 131.925759 562.232591 134.446065 
Q 564.860981 136.960132 569.697219 136.960132 
Q 571.014919 136.960132 572.143374 136.816649 
Q 573.271829 136.666928 574.168986 136.355009 
L 574.168986 130.703037 
L 569.017342 130.703037 
L 569.017342 125.668663 
L 582.159292 125.668663 
z
" style="fill:#ffa600;"/>
   </g>
   <g id="patch_40">
    <path clip-path="url(#p6022d0291e)" d="M 550.884956 21.6 
L 582.159292 21.6 
L 582.159292 39.269524 
L 570.907804 39.269524 
L 570.907804 112.2 
L 562.158263 112.2 
L 562.158263 39.269524 
L 550.884956 39.269524 
z
" style="fill:#ff0000;"/>
   </g>
   <g id="patch_41">
    <path clip-path="url(#p6022d0291e)" d="M 605.46907 151.9985 
L 593.441463 151.9985 
L 591.542367 157.5 
L 583.80531 157.5 
L 594.854595 127.3 
L 604.030361 127.3 
L 615.079646 157.5 
L 607.348983 157.5 
z
M 595.359741 146.393442 
L 603.531609 146.393442 
L 599.452069 134.380754 
z
" style="fill:#008000;"/>
   </g>
   <g id="patch_42">
    <path clip-path="url(#p6022d0291e)" d="M 615.079646 124.567589 
Q 611.925578 125.933795 608.533203 126.620017 
Q 605.140827 127.3 601.524163 127.3 
Q 593.351622 127.3 588.578466 123.232576 
Q 583.80531 119.165152 583.80531 112.209358 
Q 583.80531 105.172464 588.662574 101.136232 
Q 593.526848 97.1 601.986759 97.1 
Q 605.245963 97.1 608.231814 97.648977 
Q 611.224674 98.191717 613.874091 99.264718 
L 613.874091 105.284755 
Q 611.140566 103.906073 608.435076 103.22609 
Q 605.729587 102.539868 603.010079 102.539868 
Q 597.977589 102.539868 595.251072 105.047697 
Q 592.524555 107.549287 592.524555 112.209358 
Q 592.524555 116.825759 595.152945 119.346065 
Q 597.781335 121.860132 602.617573 121.860132 
Q 603.935272 121.860132 605.063728 121.716649 
Q 606.192183 121.566928 607.08934 121.255009 
L 607.08934 115.603037 
L 601.937696 115.603037 
L 601.937696 110.568663 
L 615.079646 110.568663 
z
" style="fill:#ffa600;"/>
   </g>
   <g id="patch_43">
    <path clip-path="url(#p6022d0291e)" d="M 583.80531 21.6 
L 615.079646 21.6 
L 615.079646 36.324604 
L 603.828158 36.324604 
L 603.828158 97.1 
L 595.078617 97.1 
L 595.078617 36.324604 
L 583.80531 36.324604 
z
" style="fill:#ff0000;"/>
   </g>
   <g id="patch_44">
    <path clip-path="url(#p6022d0291e)" d="M 648 156.417641 
Q 645.383956 156.954142 642.555161 157.225511 
Q 639.726366 157.5 636.645422 157.5 
Q 627.457749 157.5 622.091706 155.466288 
Q 616.725664 153.432576 616.725664 149.954679 
Q 616.725664 146.464305 622.091706 144.433712 
Q 627.457749 142.4 636.645422 142.4 
Q 639.726366 142.4 642.555161 142.674489 
Q 645.383956 142.945858 648 143.482359 
L 648 146.492378 
Q 645.360317 145.781202 642.79943 145.450568 
Q 640.238543 145.119934 637.409749 145.119934 
Q 632.335253 145.119934 629.427662 146.408159 
Q 626.52795 147.693266 626.52795 149.954679 
Q 626.52795 152.206734 629.427662 153.49496 
Q 632.335253 154.780066 637.409749 154.780066 
Q 640.238543 154.780066 642.79943 154.449432 
Q 645.360317 154.115679 648 153.404503 
z
" style="fill:#0000ff;"/>
   </g>
   <g id="patch_45">
    <path clip-path="url(#p6022d0291e)" d="M 638.389424 131.397 
L 626.361817 131.397 
L 624.462721 142.4 
L 616.725664 142.4 
L 627.774949 82 
L 636.950715 82 
L 648 142.4 
L 640.269337 142.4 
z
M 628.280095 120.186884 
L 636.451963 120.186884 
L 632.372423 96.161509 
z
" style="fill:#008000;"/>
   </g>
   <g id="patch_46">
    <path clip-path="url(#p6022d0291e)" d="M 648 76.535179 
Q 644.845932 79.267589 641.453557 80.640033 
Q 638.061181 82 634.444517 82 
Q 626.271976 82 621.49882 73.865152 
Q 616.725664 65.730304 616.725664 51.818715 
Q 616.725664 37.744929 621.582928 29.672464 
Q 626.447202 21.6 634.907113 21.6 
Q 638.166317 21.6 641.152168 22.697955 
Q 644.145028 23.783433 646.794445 25.929436 
L 646.794445 37.96951 
Q 644.06092 35.212146 641.35543 33.852179 
Q 638.649941 32.479736 635.930433 32.479736 
Q 630.897943 32.479736 628.171426 37.495394 
Q 625.444909 42.498575 625.444909 51.818715 
Q 625.444909 61.051518 628.073299 66.09213 
Q 630.701689 71.120264 635.537927 71.120264 
Q 636.855626 71.120264 637.984082 70.833299 
Q 639.112537 70.533857 640.009694 69.910019 
L 640.009694 58.606073 
L 634.85805 58.606073 
L 634.85805 48.537327 
L 648 48.537327 
z
" style="fill:#ffa600;"/>
   </g>
  </g>
 </g>
 <defs>
  <clipPath id="p6022d0291e">
   <rect height="135.9" width="558" x="90" y="21.6"/>
  </clipPath>
 </defs>
</svg>
