<?xml version="1.0" encoding="utf-8" standalone="no"?>
<!DOCTYPE svg PUBLIC "-//W3C//DTD SVG 1.1//EN"
  "http://www.w3.org/Graphics/SVG/1.1/DTD/svg11.dtd">
<!-- Created with matplotlib (https://matplotlib.org/) -->
<svg height="180pt" version="1.1" viewBox="0 0 720 180" width="720pt" xmlns="http://www.w3.org/2000/svg" xmlns:xlink="http://www.w3.org/1999/xlink">
 <metadata>
  <rdf:RDF xmlns:cc="http://creativecommons.org/ns#" xmlns:dc="http://purl.org/dc/elements/1.1/" xmlns:rdf="http://www.w3.org/1999/02/22-rdf-syntax-ns#">
   <cc:Work>
    <dc:type rdf:resource="http://purl.org/dc/dcmitype/StillImage"/>
    <dc:date>2021-08-04T23:32:56.191956</dc:date>
    <dc:format>image/svg+xml</dc:format>
    <dc:creator>
     <cc:Agent>
      <dc:title>Matplotlib v3.3.2, https://matplotlib.org/</dc:title>
     </cc:Agent>
    </dc:creator>
   </cc:Work>
  </rdf:RDF>
 </metadata>
 <defs>
  <style type="text/css">*{stroke-linecap:butt;stroke-linejoin:round;}</style>
 </defs>
 <g id="figure_1">
  <g id="patch_1">
   <path d="M 0 180 
L 720 180 
L 720 0 
L 0 0 
z
" style="fill:none;"/>
  </g>
  <g id="axes_1">
   <g id="line2d_1">
    <path clip-path="url(#p0daacf95d6)" d="M 90 157.5 
L 648 157.5 
" style="fill:none;stroke:#000000;stroke-linecap:square;stroke-width:0.5;"/>
   </g>
   <g id="patch_2">
    <path clip-path="url(#p0daacf95d6)" d="M 90 127.3 
L 121.274336 127.3 
L 121.274336 133.189841 
L 110.022848 133.189841 
L 110.022848 157.5 
L 101.273307 157.5 
L 101.273307 133.189841 
L 90 133.189841 
z
" style="fill:#ff0000;"/>
   </g>
   <g id="patch_3">
    <path clip-path="url(#p0daacf95d6)" d="M 111.66376 113.546249 
L 99.636153 113.546249 
L 97.737057 127.3 
L 90 127.3 
L 101.049285 51.8 
L 110.225051 51.8 
L 121.274336 127.3 
L 113.543673 127.3 
z
M 101.554432 99.533605 
L 109.726299 99.533605 
L 105.64676 69.501886 
z
" style="fill:#008000;"/>
   </g>
   <g id="patch_4">
    <path clip-path="url(#p0daacf95d6)" d="M 122.920354 142.4 
L 154.19469 142.4 
L 154.19469 145.344921 
L 142.943202 145.344921 
L 142.943202 157.5 
L 134.193661 157.5 
L 134.193661 145.344921 
L 122.920354 145.344921 
z
" style="fill:#ff0000;"/>
   </g>
   <g id="patch_5">
    <path clip-path="url(#p0daacf95d6)" d="M 144.584114 136.8985 
L 132.556507 136.8985 
L 130.657411 142.4 
L 122.920354 142.4 
L 133.969639 112.2 
L 143.145405 112.2 
L 154.19469 142.4 
L 146.464027 142.4 
z
M 134.474786 131.293442 
L 142.646653 131.293442 
L 138.567114 119.280754 
z
" style="fill:#008000;"/>
   </g>
   <g id="patch_6">
    <path clip-path="url(#p0daacf95d6)" d="M 154.19469 110.035282 
Q 151.578646 111.108283 148.749851 111.651023 
Q 145.921056 112.2 142.840113 112.2 
Q 133.652439 112.2 128.286397 108.132576 
Q 122.920354 104.065152 122.920354 97.109358 
Q 122.920354 90.12861 128.286397 86.067424 
Q 133.652439 82 142.840113 82 
Q 145.921056 82 148.749851 82.548977 
Q 151.578646 83.091717 154.19469 84.164718 
L 154.19469 90.184755 
Q 151.555007 88.762404 148.99412 88.101136 
Q 146.433234 87.439868 143.604439 87.439868 
Q 138.529943 87.439868 135.622352 90.016319 
Q 132.72264 92.586532 132.72264 97.109358 
Q 132.72264 101.613468 135.622352 104.189919 
Q 138.529943 106.760132 143.604439 106.760132 
Q 146.433234 106.760132 148.99412 106.098864 
Q 151.555007 105.431357 154.19469 104.009006 
z
" style="fill:#0000ff;"/>
   </g>
   <g id="patch_7">
    <path clip-path="url(#p0daacf95d6)" d="M 154.19469 79.267589 
Q 151.040622 80.633795 147.648247 81.320017 
Q 144.255872 82 140.639207 82 
Q 132.466666 82 127.69351 77.932576 
Q 122.920354 73.865152 122.920354 66.909358 
Q 122.920354 59.872464 127.777619 55.836232 
Q 132.641892 51.8 141.101804 51.8 
Q 144.361007 51.8 147.346858 52.348977 
Q 150.339718 52.891717 152.989135 53.964718 
L 152.989135 59.984755 
Q 150.25561 58.606073 147.55012 57.92609 
Q 144.844631 57.239868 142.125123 57.239868 
Q 137.092633 57.239868 134.366116 59.747697 
Q 131.6396 62.249287 131.6396 66.909358 
Q 131.6396 71.525759 134.26799 74.046065 
Q 136.89638 76.560132 141.732617 76.560132 
Q 143.050317 76.560132 144.178772 76.416649 
Q 145.307228 76.266928 146.204385 75.955009 
L 146.204385 70.303037 
L 141.05274 70.303037 
L 141.05274 65.268663 
L 154.19469 65.268663 
z
" style="fill:#ffa600;"/>
   </g>
   <g id="patch_8">
    <path clip-path="url(#p0daacf95d6)" d="M 187.115044 156.417641 
Q 184.499 156.954142 181.670205 157.225511 
Q 178.84141 157.5 175.760467 157.5 
Q 166.572793 157.5 161.206751 155.466288 
Q 155.840708 153.432576 155.840708 149.954679 
Q 155.840708 146.464305 161.206751 144.433712 
Q 166.572793 142.4 175.760467 142.4 
Q 178.84141 142.4 181.670205 142.674489 
Q 184.499 142.945858 187.115044 143.482359 
L 187.115044 146.492378 
Q 184.475361 145.781202 181.914474 145.450568 
Q 179.353588 145.119934 176.524793 145.119934 
Q 171.450297 145.119934 168.542706 146.408159 
Q 165.642994 147.693266 165.642994 149.954679 
Q 165.642994 152.206734 168.542706 153.49496 
Q 171.450297 154.780066 176.524793 154.780066 
Q 179.353588 154.780066 181.914474 154.449432 
Q 184.475361 154.115679 187.115044 153.404503 
z
" style="fill:#0000ff;"/>
   </g>
   <g id="patch_9">
    <path clip-path="url(#p0daacf95d6)" d="M 187.115044 141.033795 
Q 183.960976 141.716897 180.568601 142.060008 
Q 177.176226 142.4 173.559561 142.4 
Q 165.38702 142.4 160.613864 140.366288 
Q 155.840708 138.332576 155.840708 134.854679 
Q 155.840708 131.336232 160.697973 129.318116 
Q 165.562246 127.3 174.022158 127.3 
Q 177.281361 127.3 180.267212 127.574489 
Q 183.260072 127.845858 185.909489 128.382359 
L 185.909489 131.392378 
Q 183.175964 130.703037 180.470474 130.363045 
Q 177.764985 130.019934 175.045477 130.019934 
Q 170.012987 130.019934 167.28647 131.273848 
Q 164.559954 132.524644 164.559954 134.854679 
Q 164.559954 137.16288 167.188344 138.423032 
Q 169.816734 139.680066 174.652971 139.680066 
Q 175.970671 139.680066 177.099126 139.608325 
Q 178.227582 139.533464 179.124739 139.377505 
L 179.124739 136.551518 
L 173.973094 136.551518 
L 173.973094 134.034332 
L 187.115044 134.034332 
z
" style="fill:#ffa600;"/>
   </g>
   <g id="patch_10">
    <path clip-path="url(#p0daacf95d6)" d="M 155.840708 112.2 
L 187.115044 112.2 
L 187.115044 115.144921 
L 175.863556 115.144921 
L 175.863556 127.3 
L 167.114015 127.3 
L 167.114015 115.144921 
L 155.840708 115.144921 
z
" style="fill:#ff0000;"/>
   </g>
   <g id="patch_11">
    <path clip-path="url(#p0daacf95d6)" d="M 177.504468 101.197 
L 165.476861 101.197 
L 163.577765 112.2 
L 155.840708 112.2 
L 166.889993 51.8 
L 176.065759 51.8 
L 187.115044 112.2 
L 179.384381 112.2 
z
M 167.39514 89.986884 
L 175.567007 89.986884 
L 171.487467 65.961509 
z
" style="fill:#008000;"/>
   </g>
   <g id="patch_12">
    <path clip-path="url(#p0daacf95d6)" d="M 220.035398 155.335282 
Q 217.419354 156.408283 214.590559 156.951023 
Q 211.761764 157.5 208.680821 157.5 
Q 199.493147 157.5 194.127105 153.432576 
Q 188.761062 149.365152 188.761062 142.409358 
Q 188.761062 135.42861 194.127105 131.367424 
Q 199.493147 127.3 208.680821 127.3 
Q 211.761764 127.3 214.590559 127.848977 
Q 217.419354 128.391717 220.035398 129.464718 
L 220.035398 135.484755 
Q 217.395715 134.062404 214.834828 133.401136 
Q 212.273942 132.739868 209.445147 132.739868 
Q 204.370651 132.739868 201.46306 135.316319 
Q 198.563348 137.886532 198.563348 142.409358 
Q 198.563348 146.913468 201.46306 149.489919 
Q 204.370651 152.060132 209.445147 152.060132 
Q 212.273942 152.060132 214.834828 151.398864 
Q 217.395715 150.731357 220.035398 149.309006 
z
" style="fill:#0000ff;"/>
   </g>
   <g id="patch_13">
    <path clip-path="url(#p0daacf95d6)" d="M 210.424822 113.546249 
L 198.397215 113.546249 
L 196.498119 127.3 
L 188.761062 127.3 
L 199.810347 51.8 
L 208.986113 51.8 
L 220.035398 127.3 
L 212.304735 127.3 
z
M 200.315494 99.533605 
L 208.487361 99.533605 
L 204.407821 69.501886 
z
" style="fill:#008000;"/>
   </g>
   <g id="patch_14">
    <path clip-path="url(#p0daacf95d6)" d="M 252.955752 156.417641 
Q 250.339708 156.954142 247.510913 157.225511 
Q 244.682118 157.5 241.601175 157.5 
Q 232.413501 157.5 227.047459 155.466288 
Q 221.681416 153.432576 221.681416 149.954679 
Q 221.681416 146.464305 227.047459 144.433712 
Q 232.413501 142.4 241.601175 142.4 
Q 244.682118 142.4 247.510913 142.674489 
Q 250.339708 142.945858 252.955752 143.482359 
L 252.955752 146.492378 
Q 250.316069 145.781202 247.755182 145.450568 
Q 245.194296 145.119934 242.365501 145.119934 
Q 237.291005 145.119934 234.383414 146.408159 
Q 231.483702 147.693266 231.483702 149.954679 
Q 231.483702 152.206734 234.383414 153.49496 
Q 237.291005 154.780066 242.365501 154.780066 
Q 245.194296 154.780066 247.755182 154.449432 
Q 250.316069 154.115679 252.955752 153.404503 
z
" style="fill:#0000ff;"/>
   </g>
   <g id="patch_15">
    <path clip-path="url(#p0daacf95d6)" d="M 243.345176 125.895499 
L 231.317569 125.895499 
L 229.418473 142.4 
L 221.681416 142.4 
L 232.730701 51.8 
L 241.906467 51.8 
L 252.955752 142.4 
L 245.225089 142.4 
z
M 233.235848 109.080326 
L 241.407715 109.080326 
L 237.328175 73.042263 
z
" style="fill:#008000;"/>
   </g>
   <g id="patch_16">
    <path clip-path="url(#p0daacf95d6)" d="M 285.876106 156.133795 
Q 282.722038 156.816897 279.329663 157.160008 
Q 275.937288 157.5 272.320623 157.5 
Q 264.148082 157.5 259.374926 155.466288 
Q 254.60177 153.432576 254.60177 149.954679 
Q 254.60177 146.436232 259.459035 144.418116 
Q 264.323308 142.4 272.78322 142.4 
Q 276.042423 142.4 279.028274 142.674489 
Q 282.021134 142.945858 284.670551 143.482359 
L 284.670551 146.492378 
Q 281.937026 145.803037 279.231536 145.463045 
Q 276.526047 145.119934 273.806539 145.119934 
Q 268.774049 145.119934 266.047532 146.373848 
Q 263.321016 147.624644 263.321016 149.954679 
Q 263.321016 152.26288 265.949406 153.523032 
Q 268.577796 154.780066 273.414033 154.780066 
Q 274.731733 154.780066 275.860188 154.708325 
Q 276.988644 154.633464 277.885801 154.477505 
L 277.885801 151.651518 
L 272.734156 151.651518 
L 272.734156 149.134332 
L 285.876106 149.134332 
z
" style="fill:#ffa600;"/>
   </g>
   <g id="patch_17">
    <path clip-path="url(#p0daacf95d6)" d="M 276.26553 125.895499 
L 264.237923 125.895499 
L 262.338827 142.4 
L 254.60177 142.4 
L 265.651055 51.8 
L 274.826821 51.8 
L 285.876106 142.4 
L 278.145443 142.4 
z
M 266.156202 109.080326 
L 274.328069 109.080326 
L 270.248529 73.042263 
z
" style="fill:#008000;"/>
   </g>
   <g id="patch_18">
    <path clip-path="url(#p0daacf95d6)" d="M 309.185884 154.74925 
L 297.158277 154.74925 
L 295.259181 157.5 
L 287.522124 157.5 
L 298.571409 142.4 
L 307.747175 142.4 
L 318.79646 157.5 
L 311.065797 157.5 
z
M 299.076556 151.946721 
L 307.248423 151.946721 
L 303.168883 145.940377 
z
" style="fill:#008000;"/>
   </g>
   <g id="patch_19">
    <path clip-path="url(#p0daacf95d6)" d="M 287.522124 51.8 
L 318.79646 51.8 
L 318.79646 69.469524 
L 307.544972 69.469524 
L 307.544972 142.4 
L 298.795431 142.4 
L 298.795431 69.469524 
L 287.522124 69.469524 
z
" style="fill:#ff0000;"/>
   </g>
   <g id="patch_20">
    <path clip-path="url(#p0daacf95d6)" d="M 351.716814 145.204152 
Q 348.562746 151.352076 345.170371 154.440074 
Q 341.777996 157.5 338.161331 157.5 
Q 329.98879 157.5 325.215634 139.196592 
Q 320.442478 120.893183 320.442478 89.592109 
Q 320.442478 57.92609 325.299743 39.763045 
Q 330.164016 21.6 338.623928 21.6 
Q 341.883131 21.6 344.868982 24.070399 
Q 347.861842 26.512725 350.511259 31.341231 
L 350.511259 58.431398 
Q 347.777734 52.227329 345.072244 49.167403 
Q 342.366755 46.079405 339.647247 46.079405 
Q 334.614757 46.079405 331.88824 57.364635 
Q 329.161724 68.621793 329.161724 89.592109 
Q 329.161724 110.365916 331.790114 121.707292 
Q 334.418504 133.020595 339.254741 133.020595 
Q 340.572441 133.020595 341.700896 132.374923 
Q 342.829351 131.701177 343.726509 130.297542 
L 343.726509 104.863665 
L 338.574864 104.863665 
L 338.574864 82.208986 
L 351.716814 82.208986 
z
" style="fill:#ffa600;"/>
   </g>
   <g id="patch_21">
    <path clip-path="url(#p0daacf95d6)" d="M 353.362832 97.1 
L 384.637168 97.1 
L 384.637168 108.879683 
L 373.38568 108.879683 
L 373.38568 157.5 
L 364.636139 157.5 
L 364.636139 108.879683 
L 353.362832 108.879683 
z
" style="fill:#ff0000;"/>
   </g>
   <g id="patch_22">
    <path clip-path="url(#p0daacf95d6)" d="M 375.026592 83.346249 
L 362.998985 83.346249 
L 361.099889 97.1 
L 353.362832 97.1 
L 364.412117 21.6 
L 373.587883 21.6 
L 384.637168 97.1 
L 376.906505 97.1 
z
M 364.917264 69.333605 
L 373.089131 69.333605 
L 369.009591 39.301886 
z
" style="fill:#008000;"/>
   </g>
   <g id="patch_23">
    <path clip-path="url(#p0daacf95d6)" d="M 407.946946 154.74925 
L 395.919339 154.74925 
L 394.020243 157.5 
L 386.283186 157.5 
L 397.332471 142.4 
L 406.508237 142.4 
L 417.557522 157.5 
L 409.826859 157.5 
z
M 397.837618 151.946721 
L 406.009485 151.946721 
L 401.929945 145.940377 
z
" style="fill:#008000;"/>
   </g>
   <g id="patch_24">
    <path clip-path="url(#p0daacf95d6)" d="M 417.557522 141.317641 
Q 414.941478 141.854142 412.112683 142.125511 
Q 409.283888 142.4 406.202945 142.4 
Q 397.015271 142.4 391.649228 140.366288 
Q 386.283186 138.332576 386.283186 134.854679 
Q 386.283186 131.364305 391.649228 129.333712 
Q 397.015271 127.3 406.202945 127.3 
Q 409.283888 127.3 412.112683 127.574489 
Q 414.941478 127.845858 417.557522 128.382359 
L 417.557522 131.392378 
Q 414.917839 130.681202 412.356952 130.350568 
Q 409.796066 130.019934 406.967271 130.019934 
Q 401.892775 130.019934 398.985184 131.308159 
Q 396.085472 132.593266 396.085472 134.854679 
Q 396.085472 137.106734 398.985184 138.39496 
Q 401.892775 139.680066 406.967271 139.680066 
Q 409.796066 139.680066 412.356952 139.349432 
Q 414.917839 139.015679 417.557522 138.304503 
z
" style="fill:#0000ff;"/>
   </g>
   <g id="patch_25">
    <path clip-path="url(#p0daacf95d6)" d="M 417.557522 125.933795 
Q 414.403454 126.616897 411.011079 126.960008 
Q 407.618703 127.3 404.002039 127.3 
Q 395.829498 127.3 391.056342 125.266288 
Q 386.283186 123.232576 386.283186 119.754679 
Q 386.283186 116.236232 391.140451 114.218116 
Q 396.004724 112.2 404.464635 112.2 
Q 407.723839 112.2 410.70969 112.474489 
Q 413.70255 112.745858 416.351967 113.282359 
L 416.351967 116.292378 
Q 413.618442 115.603037 410.912952 115.263045 
Q 408.207463 114.919934 405.487955 114.919934 
Q 400.455465 114.919934 397.728948 116.173848 
Q 395.002432 117.424644 395.002432 119.754679 
Q 395.002432 122.06288 397.630822 123.323032 
Q 400.259212 124.580066 405.095449 124.580066 
Q 406.413149 124.580066 407.541604 124.508325 
Q 408.670059 124.433464 409.567217 124.277505 
L 409.567217 121.451518 
L 404.415572 121.451518 
L 404.415572 118.934332 
L 417.557522 118.934332 
z
" style="fill:#ffa600;"/>
   </g>
   <g id="patch_26">
    <path clip-path="url(#p0daacf95d6)" d="M 386.283186 21.6 
L 417.557522 21.6 
L 417.557522 39.269524 
L 406.306034 39.269524 
L 406.306034 112.2 
L 397.556493 112.2 
L 397.556493 39.269524 
L 386.283186 39.269524 
z
" style="fill:#ff0000;"/>
   </g>
   <g id="patch_27">
    <path clip-path="url(#p0daacf95d6)" d="M 419.20354 21.6 
L 450.477876 21.6 
L 450.477876 48.104286 
L 439.226388 48.104286 
L 439.226388 157.5 
L 430.476847 157.5 
L 430.476847 48.104286 
L 419.20354 48.104286 
z
" style="fill:#ff0000;"/>
   </g>
   <g id="patch_28">
    <path clip-path="url(#p0daacf95d6)" d="M 473.787654 132.743249 
L 461.760047 132.743249 
L 459.860951 157.5 
L 452.123894 157.5 
L 463.173179 21.6 
L 472.348945 21.6 
L 483.39823 157.5 
L 475.667567 157.5 
z
M 463.678326 107.520489 
L 471.850193 107.520489 
L 467.770653 53.463395 
z
" style="fill:#008000;"/>
   </g>
   <g id="patch_29">
    <path clip-path="url(#p0daacf95d6)" d="M 485.044248 127.3 
L 516.318584 127.3 
L 516.318584 133.189841 
L 505.067096 133.189841 
L 505.067096 157.5 
L 496.317555 157.5 
L 496.317555 133.189841 
L 485.044248 133.189841 
z
" style="fill:#ff0000;"/>
   </g>
   <g id="patch_30">
    <path clip-path="url(#p0daacf95d6)" d="M 516.318584 123.201384 
Q 513.164516 125.250692 509.772141 126.280025 
Q 506.379765 127.3 502.763101 127.3 
Q 494.59056 127.3 489.817404 121.198864 
Q 485.044248 115.097728 485.044248 104.664036 
Q 485.044248 94.108697 489.901512 88.054348 
Q 494.765786 82 503.225697 82 
Q 506.484901 82 509.470752 82.823466 
Q 512.463612 83.637575 515.113029 85.247077 
L 515.113029 94.277133 
Q 512.379504 92.20911 509.674014 91.189134 
Q 506.968525 90.159802 504.249017 90.159802 
Q 499.216527 90.159802 496.49001 93.921545 
Q 493.763493 97.673931 493.763493 104.664036 
Q 493.763493 111.588639 496.391883 115.369097 
Q 499.020273 119.140198 503.856511 119.140198 
Q 505.174211 119.140198 506.302666 118.924974 
Q 507.431121 118.700392 508.328279 118.232514 
L 508.328279 109.754555 
L 503.176634 109.754555 
L 503.176634 102.202995 
L 516.318584 102.202995 
z
" style="fill:#ffa600;"/>
   </g>
   <g id="patch_31">
    <path clip-path="url(#p0daacf95d6)" d="M 506.708008 70.997 
L 494.680401 70.997 
L 492.781305 82 
L 485.044248 82 
L 496.093533 21.6 
L 505.269299 21.6 
L 516.318584 82 
L 508.587921 82 
z
M 496.59868 59.786884 
L 504.770547 59.786884 
L 500.691007 35.761509 
z
" style="fill:#008000;"/>
   </g>
   <g id="patch_32">
    <path clip-path="url(#p0daacf95d6)" d="M 517.964602 21.6 
L 549.238938 21.6 
L 549.238938 48.104286 
L 537.98745 48.104286 
L 537.98745 157.5 
L 529.237909 157.5 
L 529.237909 48.104286 
L 517.964602 48.104286 
z
" style="fill:#ff0000;"/>
   </g>
   <g id="patch_33">
    <path clip-path="url(#p0daacf95d6)" d="M 582.159292 153.401384 
Q 579.005224 155.450692 575.612849 156.480025 
Q 572.220473 157.5 568.603809 157.5 
Q 560.431268 157.5 555.658112 151.398864 
Q 550.884956 145.297728 550.884956 134.864036 
Q 550.884956 124.308697 555.74222 118.254348 
Q 560.606494 112.2 569.066405 112.2 
Q 572.325609 112.2 575.31146 113.023466 
Q 578.30432 113.837575 580.953737 115.447077 
L 580.953737 124.477133 
Q 578.220212 122.40911 575.514722 121.389134 
Q 572.809233 120.359802 570.089725 120.359802 
Q 565.057235 120.359802 562.330718 124.121545 
Q 559.604201 127.873931 559.604201 134.864036 
Q 559.604201 141.788639 562.232591 145.569097 
Q 564.860981 149.340198 569.697219 149.340198 
Q 571.014919 149.340198 572.143374 149.124974 
Q 573.271829 148.900392 574.168986 148.432514 
L 574.168986 139.954555 
L 569.017342 139.954555 
L 569.017342 132.402995 
L 582.159292 132.402995 
z
" style="fill:#ffa600;"/>
   </g>
   <g id="patch_34">
    <path clip-path="url(#p0daacf95d6)" d="M 572.548716 95.695499 
L 560.521109 95.695499 
L 558.622013 112.2 
L 550.884956 112.2 
L 561.934241 21.6 
L 571.110007 21.6 
L 582.159292 112.2 
L 574.428629 112.2 
z
M 562.439387 78.880326 
L 570.611255 78.880326 
L 566.531715 42.842263 
z
" style="fill:#008000;"/>
   </g>
   <g id="patch_35">
    <path clip-path="url(#p0daacf95d6)" d="M 615.079646 153.401384 
Q 611.925578 155.450692 608.533203 156.480025 
Q 605.140827 157.5 601.524163 157.5 
Q 593.351622 157.5 588.578466 151.398864 
Q 583.80531 145.297728 583.80531 134.864036 
Q 583.80531 124.308697 588.662574 118.254348 
Q 593.526848 112.2 601.986759 112.2 
Q 605.245963 112.2 608.231814 113.023466 
Q 611.224674 113.837575 613.874091 115.447077 
L 613.874091 124.477133 
Q 611.140566 122.40911 608.435076 121.389134 
Q 605.729587 120.359802 603.010079 120.359802 
Q 597.977589 120.359802 595.251072 124.121545 
Q 592.524555 127.873931 592.524555 134.864036 
Q 592.524555 141.788639 595.152945 145.569097 
Q 597.781335 149.340198 602.617573 149.340198 
Q 603.935272 149.340198 605.063728 149.124974 
Q 606.192183 148.900392 607.08934 148.432514 
L 607.08934 139.954555 
L 601.937696 139.954555 
L 601.937696 132.402995 
L 615.079646 132.402995 
z
" style="fill:#ffa600;"/>
   </g>
   <g id="patch_36">
    <path clip-path="url(#p0daacf95d6)" d="M 605.46907 95.695499 
L 593.441463 95.695499 
L 591.542367 112.2 
L 583.80531 112.2 
L 594.854595 21.6 
L 604.030361 21.6 
L 615.079646 112.2 
L 607.348983 112.2 
z
M 595.359741 78.880326 
L 603.531609 78.880326 
L 599.452069 42.842263 
z
" style="fill:#008000;"/>
   </g>
   <g id="patch_37">
    <path clip-path="url(#p0daacf95d6)" d="M 616.725664 142.4 
L 648 142.4 
L 648 145.344921 
L 636.748512 145.344921 
L 636.748512 157.5 
L 627.998971 157.5 
L 627.998971 145.344921 
L 616.725664 145.344921 
z
" style="fill:#ff0000;"/>
   </g>
   <g id="patch_38">
    <path clip-path="url(#p0daacf95d6)" d="M 638.389424 136.8985 
L 626.361817 136.8985 
L 624.462721 142.4 
L 616.725664 142.4 
L 627.774949 112.2 
L 636.950715 112.2 
L 648 142.4 
L 640.269337 142.4 
z
M 628.280095 131.293442 
L 636.451963 131.293442 
L 632.372423 119.280754 
z
" style="fill:#008000;"/>
   </g>
   <g id="patch_39">
    <path clip-path="url(#p0daacf95d6)" d="M 648 108.952923 
Q 645.383956 110.562425 642.555161 111.376534 
Q 639.726366 112.2 636.645422 112.2 
Q 627.457749 112.2 622.091706 106.098864 
Q 616.725664 99.997728 616.725664 89.564036 
Q 616.725664 79.092915 622.091706 73.001136 
Q 627.457749 66.9 636.645422 66.9 
Q 639.726366 66.9 642.555161 67.723466 
Q 645.383956 68.537575 648 70.147077 
L 648 79.177133 
Q 645.360317 77.043607 642.79943 76.051704 
Q 640.238543 75.059802 637.409749 75.059802 
Q 632.335253 75.059802 629.427662 78.924478 
Q 626.52795 82.779798 626.52795 89.564036 
Q 626.52795 96.320202 629.427662 100.184879 
Q 632.335253 104.040198 637.409749 104.040198 
Q 640.238543 104.040198 642.79943 103.048296 
Q 645.360317 102.047036 648 99.91351 
z
" style="fill:#0000ff;"/>
   </g>
   <g id="patch_40">
    <path clip-path="url(#p0daacf95d6)" d="M 648 62.801384 
Q 644.845932 64.850692 641.453557 65.880025 
Q 638.061181 66.9 634.444517 66.9 
Q 626.271976 66.9 621.49882 60.798864 
Q 616.725664 54.697728 616.725664 44.264036 
Q 616.725664 33.708697 621.582928 27.654348 
Q 626.447202 21.6 634.907113 21.6 
Q 638.166317 21.6 641.152168 22.423466 
Q 644.145028 23.237575 646.794445 24.847077 
L 646.794445 33.877133 
Q 644.06092 31.80911 641.35543 30.789134 
Q 638.649941 29.759802 635.930433 29.759802 
Q 630.897943 29.759802 628.171426 33.521545 
Q 625.444909 37.273931 625.444909 44.264036 
Q 625.444909 51.188639 628.073299 54.969097 
Q 630.701689 58.740198 635.537927 58.740198 
Q 636.855626 58.740198 637.984082 58.524974 
Q 639.112537 58.300392 640.009694 57.832514 
L 640.009694 49.354555 
L 634.85805 49.354555 
L 634.85805 41.802995 
L 648 41.802995 
z
" style="fill:#ffa600;"/>
   </g>
  </g>
 </g>
 <defs>
  <clipPath id="p0daacf95d6">
   <rect height="135.9" width="558" x="90" y="21.6"/>
  </clipPath>
 </defs>
</svg>
