<?xml version="1.0" encoding="utf-8" standalone="no"?>
<!DOCTYPE svg PUBLIC "-//W3C//DTD SVG 1.1//EN"
  "http://www.w3.org/Graphics/SVG/1.1/DTD/svg11.dtd">
<!-- Created with matplotlib (https://matplotlib.org/) -->
<svg height="180pt" version="1.1" viewBox="0 0 720 180" width="720pt" xmlns="http://www.w3.org/2000/svg" xmlns:xlink="http://www.w3.org/1999/xlink">
 <metadata>
  <rdf:RDF xmlns:cc="http://creativecommons.org/ns#" xmlns:dc="http://purl.org/dc/elements/1.1/" xmlns:rdf="http://www.w3.org/1999/02/22-rdf-syntax-ns#">
   <cc:Work>
    <dc:type rdf:resource="http://purl.org/dc/dcmitype/StillImage"/>
    <dc:date>2021-08-04T23:33:14.290725</dc:date>
    <dc:format>image/svg+xml</dc:format>
    <dc:creator>
     <cc:Agent>
      <dc:title>Matplotlib v3.3.2, https://matplotlib.org/</dc:title>
     </cc:Agent>
    </dc:creator>
   </cc:Work>
  </rdf:RDF>
 </metadata>
 <defs>
  <style type="text/css">*{stroke-linecap:butt;stroke-linejoin:round;}</style>
 </defs>
 <g id="figure_1">
  <g id="patch_1">
   <path d="M 0 180 
L 720 180 
L 720 0 
L 0 0 
z
" style="fill:none;"/>
  </g>
  <g id="axes_1">
   <g id="line2d_1">
    <path clip-path="url(#pa23a74074f)" d="M 90 157.5 
L 648 157.5 
" style="fill:none;stroke:#000000;stroke-linecap:square;stroke-width:0.5;"/>
   </g>
   <g id="patch_2">
    <path clip-path="url(#pa23a74074f)" d="M 121.274336 156.133795 
Q 118.120268 156.816897 114.727893 157.160008 
Q 111.335518 157.5 107.718853 157.5 
Q 99.546312 157.5 94.773156 155.466288 
Q 90 153.432576 90 149.954679 
Q 90 146.436232 94.857265 144.418116 
Q 99.721538 142.4 108.18145 142.4 
Q 111.440653 142.4 114.426504 142.674489 
Q 117.419364 142.945858 120.068781 143.482359 
L 120.068781 146.492378 
Q 117.335256 145.803037 114.629766 145.463045 
Q 111.924277 145.119934 109.204769 145.119934 
Q 104.172279 145.119934 101.445762 146.373848 
Q 98.719246 147.624644 98.719246 149.954679 
Q 98.719246 152.26288 101.347636 153.523032 
Q 103.976026 154.780066 108.812263 154.780066 
Q 110.129963 154.780066 111.258418 154.708325 
Q 112.386874 154.633464 113.284031 154.477505 
L 113.284031 151.651518 
L 108.132386 151.651518 
L 108.132386 149.134332 
L 121.274336 149.134332 
z
" style="fill:#ffa600;"/>
   </g>
   <g id="patch_3">
    <path clip-path="url(#pa23a74074f)" d="M 111.66376 136.8985 
L 99.636153 136.8985 
L 97.737057 142.4 
L 90 142.4 
L 101.049285 112.2 
L 110.225051 112.2 
L 121.274336 142.4 
L 113.543673 142.4 
z
M 101.554432 131.293442 
L 109.726299 131.293442 
L 105.64676 119.280754 
z
" style="fill:#008000;"/>
   </g>
   <g id="patch_4">
    <path clip-path="url(#pa23a74074f)" d="M 90 82 
L 121.274336 82 
L 121.274336 87.889841 
L 110.022848 87.889841 
L 110.022848 112.2 
L 101.273307 112.2 
L 101.273307 87.889841 
L 90 87.889841 
z
" style="fill:#ff0000;"/>
   </g>
   <g id="patch_5">
    <path clip-path="url(#pa23a74074f)" d="M 121.274336 77.670564 
Q 118.658292 79.816567 115.829497 80.902045 
Q 113.000702 82 109.919759 82 
Q 100.732085 82 95.366043 73.865152 
Q 90 65.730304 90 51.818715 
Q 90 37.85722 95.366043 29.734848 
Q 100.732085 21.6 109.919759 21.6 
Q 113.000702 21.6 115.829497 22.697955 
Q 118.658292 23.783433 121.274336 25.929436 
L 121.274336 37.96951 
Q 118.634653 35.124809 116.073766 33.802272 
Q 113.51288 32.479736 110.684085 32.479736 
Q 105.609589 32.479736 102.701998 37.632638 
Q 99.802286 42.773063 99.802286 51.818715 
Q 99.802286 60.826937 102.701998 65.979839 
Q 105.609589 71.120264 110.684085 71.120264 
Q 113.51288 71.120264 116.073766 69.797728 
Q 118.634653 68.462714 121.274336 65.618013 
z
" style="fill:#0000ff;"/>
   </g>
   <g id="patch_6">
    <path clip-path="url(#pa23a74074f)" d="M 154.19469 156.417641 
Q 151.578646 156.954142 148.749851 157.225511 
Q 145.921056 157.5 142.840113 157.5 
Q 133.652439 157.5 128.286397 155.466288 
Q 122.920354 153.432576 122.920354 149.954679 
Q 122.920354 146.464305 128.286397 144.433712 
Q 133.652439 142.4 142.840113 142.4 
Q 145.921056 142.4 148.749851 142.674489 
Q 151.578646 142.945858 154.19469 143.482359 
L 154.19469 146.492378 
Q 151.555007 145.781202 148.99412 145.450568 
Q 146.433234 145.119934 143.604439 145.119934 
Q 138.529943 145.119934 135.622352 146.408159 
Q 132.72264 147.693266 132.72264 149.954679 
Q 132.72264 152.206734 135.622352 153.49496 
Q 138.529943 154.780066 143.604439 154.780066 
Q 146.433234 154.780066 148.99412 154.449432 
Q 151.555007 154.115679 154.19469 153.404503 
z
" style="fill:#0000ff;"/>
   </g>
   <g id="patch_7">
    <path clip-path="url(#pa23a74074f)" d="M 122.920354 112.2 
L 154.19469 112.2 
L 154.19469 118.089841 
L 142.943202 118.089841 
L 142.943202 142.4 
L 134.193661 142.4 
L 134.193661 118.089841 
L 122.920354 118.089841 
z
" style="fill:#ff0000;"/>
   </g>
   <g id="patch_8">
    <path clip-path="url(#pa23a74074f)" d="M 144.584114 103.94775 
L 132.556507 103.94775 
L 130.657411 112.2 
L 122.920354 112.2 
L 133.969639 66.9 
L 143.145405 66.9 
L 154.19469 112.2 
L 146.464027 112.2 
z
M 134.474786 95.540163 
L 142.646653 95.540163 
L 138.567114 77.521132 
z
" style="fill:#008000;"/>
   </g>
   <g id="patch_9">
    <path clip-path="url(#pa23a74074f)" d="M 154.19469 62.801384 
Q 151.040622 64.850692 147.648247 65.880025 
Q 144.255872 66.9 140.639207 66.9 
Q 132.466666 66.9 127.69351 60.798864 
Q 122.920354 54.697728 122.920354 44.264036 
Q 122.920354 33.708697 127.777619 27.654348 
Q 132.641892 21.6 141.101804 21.6 
Q 144.361007 21.6 147.346858 22.423466 
Q 150.339718 23.237575 152.989135 24.847077 
L 152.989135 33.877133 
Q 150.25561 31.80911 147.55012 30.789134 
Q 144.844631 29.759802 142.125123 29.759802 
Q 137.092633 29.759802 134.366116 33.521545 
Q 131.6396 37.273931 131.6396 44.264036 
Q 131.6396 51.188639 134.26799 54.969097 
Q 136.89638 58.740198 141.732617 58.740198 
Q 143.050317 58.740198 144.178772 58.524974 
Q 145.307228 58.300392 146.204385 57.832514 
L 146.204385 49.354555 
L 141.05274 49.354555 
L 141.05274 41.802995 
L 154.19469 41.802995 
z
" style="fill:#ffa600;"/>
   </g>
   <g id="patch_10">
    <path clip-path="url(#pa23a74074f)" d="M 177.504468 154.74925 
L 165.476861 154.74925 
L 163.577765 157.5 
L 155.840708 157.5 
L 166.889993 142.4 
L 176.065759 142.4 
L 187.115044 157.5 
L 179.384381 157.5 
z
M 167.39514 151.946721 
L 175.567007 151.946721 
L 171.487467 145.940377 
z
" style="fill:#008000;"/>
   </g>
   <g id="patch_11">
    <path clip-path="url(#pa23a74074f)" d="M 187.115044 141.317641 
Q 184.499 141.854142 181.670205 142.125511 
Q 178.84141 142.4 175.760467 142.4 
Q 166.572793 142.4 161.206751 140.366288 
Q 155.840708 138.332576 155.840708 134.854679 
Q 155.840708 131.364305 161.206751 129.333712 
Q 166.572793 127.3 175.760467 127.3 
Q 178.84141 127.3 181.670205 127.574489 
Q 184.499 127.845858 187.115044 128.382359 
L 187.115044 131.392378 
Q 184.475361 130.681202 181.914474 130.350568 
Q 179.353588 130.019934 176.524793 130.019934 
Q 171.450297 130.019934 168.542706 131.308159 
Q 165.642994 132.593266 165.642994 134.854679 
Q 165.642994 137.106734 168.542706 138.39496 
Q 171.450297 139.680066 176.524793 139.680066 
Q 179.353588 139.680066 181.914474 139.349432 
Q 184.475361 139.015679 187.115044 138.304503 
z
" style="fill:#0000ff;"/>
   </g>
   <g id="patch_12">
    <path clip-path="url(#pa23a74074f)" d="M 155.840708 82 
L 187.115044 82 
L 187.115044 90.834762 
L 175.863556 90.834762 
L 175.863556 127.3 
L 167.114015 127.3 
L 167.114015 90.834762 
L 155.840708 90.834762 
z
" style="fill:#ff0000;"/>
   </g>
   <g id="patch_13">
    <path clip-path="url(#pa23a74074f)" d="M 187.115044 76.535179 
Q 183.960976 79.267589 180.568601 80.640033 
Q 177.176226 82 173.559561 82 
Q 165.38702 82 160.613864 73.865152 
Q 155.840708 65.730304 155.840708 51.818715 
Q 155.840708 37.744929 160.697973 29.672464 
Q 165.562246 21.6 174.022158 21.6 
Q 177.281361 21.6 180.267212 22.697955 
Q 183.260072 23.783433 185.909489 25.929436 
L 185.909489 37.96951 
Q 183.175964 35.212146 180.470474 33.852179 
Q 177.764985 32.479736 175.045477 32.479736 
Q 170.012987 32.479736 167.28647 37.495394 
Q 164.559954 42.498575 164.559954 51.818715 
Q 164.559954 61.051518 167.188344 66.09213 
Q 169.816734 71.120264 174.652971 71.120264 
Q 175.970671 71.120264 177.099126 70.833299 
Q 178.227582 70.533857 179.124739 69.910019 
L 179.124739 58.606073 
L 173.973094 58.606073 
L 173.973094 48.537327 
L 187.115044 48.537327 
z
" style="fill:#ffa600;"/>
   </g>
   <g id="patch_14">
    <path clip-path="url(#pa23a74074f)" d="M 210.424822 132.743249 
L 198.397215 132.743249 
L 196.498119 157.5 
L 188.761062 157.5 
L 199.810347 21.6 
L 208.986113 21.6 
L 220.035398 157.5 
L 212.304735 157.5 
z
M 200.315494 107.520489 
L 208.487361 107.520489 
L 204.407821 53.463395 
z
" style="fill:#008000;"/>
   </g>
   <g id="patch_15">
    <path clip-path="url(#pa23a74074f)" d="M 221.681416 21.6 
L 252.955752 21.6 
L 252.955752 48.104286 
L 241.704264 48.104286 
L 241.704264 157.5 
L 232.954723 157.5 
L 232.954723 48.104286 
L 221.681416 48.104286 
z
" style="fill:#ff0000;"/>
   </g>
   <g id="patch_16">
    <path clip-path="url(#pa23a74074f)" d="M 285.876106 145.204152 
Q 282.722038 151.352076 279.329663 154.440074 
Q 275.937288 157.5 272.320623 157.5 
Q 264.148082 157.5 259.374926 139.196592 
Q 254.60177 120.893183 254.60177 89.592109 
Q 254.60177 57.92609 259.459035 39.763045 
Q 264.323308 21.6 272.78322 21.6 
Q 276.042423 21.6 279.028274 24.070399 
Q 282.021134 26.512725 284.670551 31.341231 
L 284.670551 58.431398 
Q 281.937026 52.227329 279.231536 49.167403 
Q 276.526047 46.079405 273.806539 46.079405 
Q 268.774049 46.079405 266.047532 57.364635 
Q 263.321016 68.621793 263.321016 89.592109 
Q 263.321016 110.365916 265.949406 121.707292 
Q 268.577796 133.020595 273.414033 133.020595 
Q 274.731733 133.020595 275.860188 132.374923 
Q 276.988644 131.701177 277.885801 130.297542 
L 277.885801 104.863665 
L 272.734156 104.863665 
L 272.734156 82.208986 
L 285.876106 82.208986 
z
" style="fill:#ffa600;"/>
   </g>
   <g id="patch_17">
    <path clip-path="url(#pa23a74074f)" d="M 309.185884 132.743249 
L 297.158277 132.743249 
L 295.259181 157.5 
L 287.522124 157.5 
L 298.571409 21.6 
L 307.747175 21.6 
L 318.79646 157.5 
L 311.065797 157.5 
z
M 299.076556 107.520489 
L 307.248423 107.520489 
L 303.168883 53.463395 
z
" style="fill:#008000;"/>
   </g>
   <g id="patch_18">
    <path clip-path="url(#pa23a74074f)" d="M 320.442478 21.6 
L 351.716814 21.6 
L 351.716814 48.104286 
L 340.465326 48.104286 
L 340.465326 157.5 
L 331.715785 157.5 
L 331.715785 48.104286 
L 320.442478 48.104286 
z
" style="fill:#ff0000;"/>
   </g>
   <g id="patch_19">
    <path clip-path="url(#pa23a74074f)" d="M 384.637168 145.204152 
Q 381.4831 151.352076 378.090725 154.440074 
Q 374.698349 157.5 371.081685 157.5 
Q 362.909144 157.5 358.135988 139.196592 
Q 353.362832 120.893183 353.362832 89.592109 
Q 353.362832 57.92609 358.220097 39.763045 
Q 363.08437 21.6 371.544282 21.6 
Q 374.803485 21.6 377.789336 24.070399 
Q 380.782196 26.512725 383.431613 31.341231 
L 383.431613 58.431398 
Q 380.698088 52.227329 377.992598 49.167403 
Q 375.287109 46.079405 372.567601 46.079405 
Q 367.535111 46.079405 364.808594 57.364635 
Q 362.082078 68.621793 362.082078 89.592109 
Q 362.082078 110.365916 364.710468 121.707292 
Q 367.338858 133.020595 372.175095 133.020595 
Q 373.492795 133.020595 374.62125 132.374923 
Q 375.749705 131.701177 376.646863 130.297542 
L 376.646863 104.863665 
L 371.495218 104.863665 
L 371.495218 82.208986 
L 384.637168 82.208986 
z
" style="fill:#ffa600;"/>
   </g>
   <g id="patch_20">
    <path clip-path="url(#pa23a74074f)" d="M 407.946946 154.74925 
L 395.919339 154.74925 
L 394.020243 157.5 
L 386.283186 157.5 
L 397.332471 142.4 
L 406.508237 142.4 
L 417.557522 157.5 
L 409.826859 157.5 
z
M 397.837618 151.946721 
L 406.009485 151.946721 
L 401.929945 145.940377 
z
" style="fill:#008000;"/>
   </g>
   <g id="patch_21">
    <path clip-path="url(#pa23a74074f)" d="M 417.557522 141.317641 
Q 414.941478 141.854142 412.112683 142.125511 
Q 409.283888 142.4 406.202945 142.4 
Q 397.015271 142.4 391.649228 140.366288 
Q 386.283186 138.332576 386.283186 134.854679 
Q 386.283186 131.364305 391.649228 129.333712 
Q 397.015271 127.3 406.202945 127.3 
Q 409.283888 127.3 412.112683 127.574489 
Q 414.941478 127.845858 417.557522 128.382359 
L 417.557522 131.392378 
Q 414.917839 130.681202 412.356952 130.350568 
Q 409.796066 130.019934 406.967271 130.019934 
Q 401.892775 130.019934 398.985184 131.308159 
Q 396.085472 132.593266 396.085472 134.854679 
Q 396.085472 137.106734 398.985184 138.39496 
Q 401.892775 139.680066 406.967271 139.680066 
Q 409.796066 139.680066 412.356952 139.349432 
Q 414.917839 139.015679 417.557522 138.304503 
z
" style="fill:#0000ff;"/>
   </g>
   <g id="patch_22">
    <path clip-path="url(#pa23a74074f)" d="M 386.283186 112.2 
L 417.557522 112.2 
L 417.557522 115.144921 
L 406.306034 115.144921 
L 406.306034 127.3 
L 397.556493 127.3 
L 397.556493 115.144921 
L 386.283186 115.144921 
z
" style="fill:#ff0000;"/>
   </g>
   <g id="patch_23">
    <path clip-path="url(#pa23a74074f)" d="M 417.557522 104.002768 
Q 414.403454 108.101384 411.011079 110.16005 
Q 407.618703 112.2 404.002039 112.2 
Q 395.829498 112.2 391.056342 99.997728 
Q 386.283186 87.795455 386.283186 66.928073 
Q 386.283186 45.817393 391.140451 33.708697 
Q 396.004724 21.6 404.464635 21.6 
Q 407.723839 21.6 410.70969 23.246932 
Q 413.70255 24.87515 416.351967 28.094154 
L 416.351967 46.154266 
Q 413.618442 42.018219 410.912952 39.978269 
Q 408.207463 37.919603 405.487955 37.919603 
Q 400.455465 37.919603 397.728948 45.44309 
Q 395.002432 52.947862 395.002432 66.928073 
Q 395.002432 80.777277 397.630822 88.338195 
Q 400.259212 95.880397 405.095449 95.880397 
Q 406.413149 95.880397 407.541604 95.449948 
Q 408.670059 95.000785 409.567217 94.065028 
L 409.567217 77.10911 
L 404.415572 77.10911 
L 404.415572 62.00599 
L 417.557522 62.00599 
z
" style="fill:#ffa600;"/>
   </g>
   <g id="patch_24">
    <path clip-path="url(#pa23a74074f)" d="M 440.8673 154.74925 
L 428.839693 154.74925 
L 426.940597 157.5 
L 419.20354 157.5 
L 430.252825 142.4 
L 439.428591 142.4 
L 450.477876 157.5 
L 442.747213 157.5 
z
M 430.757972 151.946721 
L 438.929839 151.946721 
L 434.850299 145.940377 
z
" style="fill:#008000;"/>
   </g>
   <g id="patch_25">
    <path clip-path="url(#pa23a74074f)" d="M 419.20354 112.2 
L 450.477876 112.2 
L 450.477876 118.089841 
L 439.226388 118.089841 
L 439.226388 142.4 
L 430.476847 142.4 
L 430.476847 118.089841 
L 419.20354 118.089841 
z
" style="fill:#ff0000;"/>
   </g>
   <g id="patch_26">
    <path clip-path="url(#pa23a74074f)" d="M 450.477876 104.002768 
Q 447.323808 108.101384 443.931433 110.16005 
Q 440.539057 112.2 436.922393 112.2 
Q 428.749852 112.2 423.976696 99.997728 
Q 419.20354 87.795455 419.20354 66.928073 
Q 419.20354 45.817393 424.060805 33.708697 
Q 428.925078 21.6 437.384989 21.6 
Q 440.644193 21.6 443.630044 23.246932 
Q 446.622904 24.87515 449.272321 28.094154 
L 449.272321 46.154266 
Q 446.538796 42.018219 443.833306 39.978269 
Q 441.127817 37.919603 438.408309 37.919603 
Q 433.375819 37.919603 430.649302 45.44309 
Q 427.922786 52.947862 427.922786 66.928073 
Q 427.922786 80.777277 430.551176 88.338195 
Q 433.179565 95.880397 438.015803 95.880397 
Q 439.333503 95.880397 440.461958 95.449948 
Q 441.590413 95.000785 442.487571 94.065028 
L 442.487571 77.10911 
L 437.335926 77.10911 
L 437.335926 62.00599 
L 450.477876 62.00599 
z
" style="fill:#ffa600;"/>
   </g>
   <g id="patch_27">
    <path clip-path="url(#pa23a74074f)" d="M 452.123894 97.1 
L 483.39823 97.1 
L 483.39823 108.879683 
L 472.146742 108.879683 
L 472.146742 157.5 
L 463.397201 157.5 
L 463.397201 108.879683 
L 452.123894 108.879683 
z
" style="fill:#ff0000;"/>
   </g>
   <g id="patch_28">
    <path clip-path="url(#pa23a74074f)" d="M 483.39823 90.268973 
Q 480.244162 93.684487 476.851787 95.400041 
Q 473.459411 97.1 469.842747 97.1 
Q 461.670206 97.1 456.89705 86.93144 
Q 452.123894 76.76288 452.123894 59.373394 
Q 452.123894 41.781161 456.981158 31.69058 
Q 461.845432 21.6 470.305343 21.6 
Q 473.564547 21.6 476.550398 22.972444 
Q 479.543258 24.329291 482.192675 27.011795 
L 482.192675 42.061888 
Q 479.45915 38.615183 476.75366 36.915224 
Q 474.048171 35.199669 471.328663 35.199669 
Q 466.296173 35.199669 463.569656 41.469242 
Q 460.84314 47.723218 460.84314 59.373394 
Q 460.84314 70.914398 463.471529 77.215162 
Q 466.099919 83.500331 470.936157 83.500331 
Q 472.253857 83.500331 473.382312 83.141624 
Q 474.510767 82.767321 475.407925 81.987523 
L 475.407925 67.857591 
L 470.25628 67.857591 
L 470.25628 55.271659 
L 483.39823 55.271659 
z
" style="fill:#ffa600;"/>
   </g>
   <g id="patch_29">
    <path clip-path="url(#pa23a74074f)" d="M 506.708008 149.24775 
L 494.680401 149.24775 
L 492.781305 157.5 
L 485.044248 157.5 
L 496.093533 112.2 
L 505.269299 112.2 
L 516.318584 157.5 
L 508.587921 157.5 
z
M 496.59868 140.840163 
L 504.770547 140.840163 
L 500.691007 122.821132 
z
" style="fill:#008000;"/>
   </g>
   <g id="patch_30">
    <path clip-path="url(#pa23a74074f)" d="M 485.044248 21.6 
L 516.318584 21.6 
L 516.318584 39.269524 
L 505.067096 39.269524 
L 505.067096 112.2 
L 496.317555 112.2 
L 496.317555 39.269524 
L 485.044248 39.269524 
z
" style="fill:#ff0000;"/>
   </g>
   <g id="patch_31">
    <path clip-path="url(#pa23a74074f)" d="M 549.238938 156.133795 
Q 546.08487 156.816897 542.692495 157.160008 
Q 539.300119 157.5 535.683455 157.5 
Q 527.510914 157.5 522.737758 155.466288 
Q 517.964602 153.432576 517.964602 149.954679 
Q 517.964602 146.436232 522.821866 144.418116 
Q 527.68614 142.4 536.146051 142.4 
Q 539.405255 142.4 542.391106 142.674489 
Q 545.383966 142.945858 548.033383 143.482359 
L 548.033383 146.492378 
Q 545.299858 145.803037 542.594368 145.463045 
Q 539.888879 145.119934 537.169371 145.119934 
Q 532.136881 145.119934 529.410364 146.373848 
Q 526.683847 147.624644 526.683847 149.954679 
Q 526.683847 152.26288 529.312237 153.523032 
Q 531.940627 154.780066 536.776865 154.780066 
Q 538.094565 154.780066 539.22302 154.708325 
Q 540.351475 154.633464 541.248633 154.477505 
L 541.248633 151.651518 
L 536.096988 151.651518 
L 536.096988 149.134332 
L 549.238938 149.134332 
z
" style="fill:#ffa600;"/>
   </g>
   <g id="patch_32">
    <path clip-path="url(#pa23a74074f)" d="M 549.238938 140.235282 
Q 546.622894 141.308283 543.794099 141.851023 
Q 540.965304 142.4 537.88436 142.4 
Q 528.696687 142.4 523.330644 138.332576 
Q 517.964602 134.265152 517.964602 127.309358 
Q 517.964602 120.32861 523.330644 116.267424 
Q 528.696687 112.2 537.88436 112.2 
Q 540.965304 112.2 543.794099 112.748977 
Q 546.622894 113.291717 549.238938 114.364718 
L 549.238938 120.384755 
Q 546.599255 118.962404 544.038368 118.301136 
Q 541.477481 117.639868 538.648687 117.639868 
Q 533.574191 117.639868 530.6666 120.216319 
Q 527.766888 122.786532 527.766888 127.309358 
Q 527.766888 131.813468 530.6666 134.389919 
Q 533.574191 136.960132 538.648687 136.960132 
Q 541.477481 136.960132 544.038368 136.298864 
Q 546.599255 135.631357 549.238938 134.209006 
z
" style="fill:#0000ff;"/>
   </g>
   <g id="patch_33">
    <path clip-path="url(#pa23a74074f)" d="M 539.628362 95.695499 
L 527.600755 95.695499 
L 525.701659 112.2 
L 517.964602 112.2 
L 529.013887 21.6 
L 538.189653 21.6 
L 549.238938 112.2 
L 541.508275 112.2 
z
M 529.519034 78.880326 
L 537.690901 78.880326 
L 533.611361 42.842263 
z
" style="fill:#008000;"/>
   </g>
   <g id="patch_34">
    <path clip-path="url(#pa23a74074f)" d="M 572.548716 151.9985 
L 560.521109 151.9985 
L 558.622013 157.5 
L 550.884956 157.5 
L 561.934241 127.3 
L 571.110007 127.3 
L 582.159292 157.5 
L 574.428629 157.5 
z
M 562.439387 146.393442 
L 570.611255 146.393442 
L 566.531715 134.380754 
z
" style="fill:#008000;"/>
   </g>
   <g id="patch_35">
    <path clip-path="url(#pa23a74074f)" d="M 582.159292 117.736563 
Q 579.005224 122.518281 575.612849 124.920058 
Q 572.220473 127.3 568.603809 127.3 
Q 560.431268 127.3 555.658112 113.064016 
Q 550.884956 98.828031 550.884956 74.482751 
Q 550.884956 49.853625 555.74222 35.726813 
Q 560.606494 21.6 569.066405 21.6 
Q 572.325609 21.6 575.31146 23.521421 
Q 578.30432 25.421008 580.953737 29.176513 
L 580.953737 50.246643 
Q 578.220212 45.421256 575.514722 43.041314 
Q 572.809233 40.639537 570.089725 40.639537 
Q 565.057235 40.639537 562.330718 49.416939 
Q 559.604201 58.172506 559.604201 74.482751 
Q 559.604201 90.640157 562.232591 99.461227 
Q 564.860981 108.260463 569.697219 108.260463 
Q 571.014919 108.260463 572.143374 107.758273 
Q 573.271829 107.234249 574.168986 106.142533 
L 574.168986 86.360628 
L 569.017342 86.360628 
L 569.017342 68.740322 
L 582.159292 68.740322 
z
" style="fill:#ffa600;"/>
   </g>
   <g id="patch_36">
    <path clip-path="url(#pa23a74074f)" d="M 615.079646 156.133795 
Q 611.925578 156.816897 608.533203 157.160008 
Q 605.140827 157.5 601.524163 157.5 
Q 593.351622 157.5 588.578466 155.466288 
Q 583.80531 153.432576 583.80531 149.954679 
Q 583.80531 146.436232 588.662574 144.418116 
Q 593.526848 142.4 601.986759 142.4 
Q 605.245963 142.4 608.231814 142.674489 
Q 611.224674 142.945858 613.874091 143.482359 
L 613.874091 146.492378 
Q 611.140566 145.803037 608.435076 145.463045 
Q 605.729587 145.119934 603.010079 145.119934 
Q 597.977589 145.119934 595.251072 146.373848 
Q 592.524555 147.624644 592.524555 149.954679 
Q 592.524555 152.26288 595.152945 153.523032 
Q 597.781335 154.780066 602.617573 154.780066 
Q 603.935272 154.780066 605.063728 154.708325 
Q 606.192183 154.633464 607.08934 154.477505 
L 607.08934 151.651518 
L 601.937696 151.651518 
L 601.937696 149.134332 
L 615.079646 149.134332 
z
" style="fill:#ffa600;"/>
   </g>
   <g id="patch_37">
    <path clip-path="url(#pa23a74074f)" d="M 605.46907 131.397 
L 593.441463 131.397 
L 591.542367 142.4 
L 583.80531 142.4 
L 594.854595 82 
L 604.030361 82 
L 615.079646 142.4 
L 607.348983 142.4 
z
M 595.359741 120.186884 
L 603.531609 120.186884 
L 599.452069 96.161509 
z
" style="fill:#008000;"/>
   </g>
   <g id="patch_38">
    <path clip-path="url(#pa23a74074f)" d="M 583.80531 21.6 
L 615.079646 21.6 
L 615.079646 33.379683 
L 603.828158 33.379683 
L 603.828158 82 
L 595.078617 82 
L 595.078617 33.379683 
L 583.80531 33.379683 
z
" style="fill:#ff0000;"/>
   </g>
   <g id="patch_39">
    <path clip-path="url(#pa23a74074f)" d="M 648 154.767589 
Q 644.845932 156.133795 641.453557 156.820017 
Q 638.061181 157.5 634.444517 157.5 
Q 626.271976 157.5 621.49882 153.432576 
Q 616.725664 149.365152 616.725664 142.409358 
Q 616.725664 135.372464 621.582928 131.336232 
Q 626.447202 127.3 634.907113 127.3 
Q 638.166317 127.3 641.152168 127.848977 
Q 644.145028 128.391717 646.794445 129.464718 
L 646.794445 135.484755 
Q 644.06092 134.106073 641.35543 133.42609 
Q 638.649941 132.739868 635.930433 132.739868 
Q 630.897943 132.739868 628.171426 135.247697 
Q 625.444909 137.749287 625.444909 142.409358 
Q 625.444909 147.025759 628.073299 149.546065 
Q 630.701689 152.060132 635.537927 152.060132 
Q 636.855626 152.060132 637.984082 151.916649 
Q 639.112537 151.766928 640.009694 151.455009 
L 640.009694 145.803037 
L 634.85805 145.803037 
L 634.85805 140.768663 
L 648 140.768663 
z
" style="fill:#ffa600;"/>
   </g>
   <g id="patch_40">
    <path clip-path="url(#pa23a74074f)" d="M 648 124.052923 
Q 645.383956 125.662425 642.555161 126.476534 
Q 639.726366 127.3 636.645422 127.3 
Q 627.457749 127.3 622.091706 121.198864 
Q 616.725664 115.097728 616.725664 104.664036 
Q 616.725664 94.192915 622.091706 88.101136 
Q 627.457749 82 636.645422 82 
Q 639.726366 82 642.555161 82.823466 
Q 645.383956 83.637575 648 85.247077 
L 648 94.277133 
Q 645.360317 92.143607 642.79943 91.151704 
Q 640.238543 90.159802 637.409749 90.159802 
Q 632.335253 90.159802 629.427662 94.024478 
Q 626.52795 97.879798 626.52795 104.664036 
Q 626.52795 111.420202 629.427662 115.284879 
Q 632.335253 119.140198 637.409749 119.140198 
Q 640.238543 119.140198 642.79943 118.148296 
Q 645.360317 117.147036 648 115.01351 
z
" style="fill:#0000ff;"/>
   </g>
   <g id="patch_41">
    <path clip-path="url(#pa23a74074f)" d="M 638.389424 70.997 
L 626.361817 70.997 
L 624.462721 82 
L 616.725664 82 
L 627.774949 21.6 
L 636.950715 21.6 
L 648 82 
L 640.269337 82 
z
M 628.280095 59.786884 
L 636.451963 59.786884 
L 632.372423 35.761509 
z
" style="fill:#008000;"/>
   </g>
  </g>
 </g>
 <defs>
  <clipPath id="pa23a74074f">
   <rect height="135.9" width="558" x="90" y="21.6"/>
  </clipPath>
 </defs>
</svg>
