<?xml version="1.0" encoding="utf-8" standalone="no"?>
<!DOCTYPE svg PUBLIC "-//W3C//DTD SVG 1.1//EN"
  "http://www.w3.org/Graphics/SVG/1.1/DTD/svg11.dtd">
<!-- Created with matplotlib (https://matplotlib.org/) -->
<svg height="180pt" version="1.1" viewBox="0 0 720 180" width="720pt" xmlns="http://www.w3.org/2000/svg" xmlns:xlink="http://www.w3.org/1999/xlink">
 <metadata>
  <rdf:RDF xmlns:cc="http://creativecommons.org/ns#" xmlns:dc="http://purl.org/dc/elements/1.1/" xmlns:rdf="http://www.w3.org/1999/02/22-rdf-syntax-ns#">
   <cc:Work>
    <dc:type rdf:resource="http://purl.org/dc/dcmitype/StillImage"/>
    <dc:date>2021-08-04T23:33:19.240570</dc:date>
    <dc:format>image/svg+xml</dc:format>
    <dc:creator>
     <cc:Agent>
      <dc:title>Matplotlib v3.3.2, https://matplotlib.org/</dc:title>
     </cc:Agent>
    </dc:creator>
   </cc:Work>
  </rdf:RDF>
 </metadata>
 <defs>
  <style type="text/css">*{stroke-linecap:butt;stroke-linejoin:round;}</style>
 </defs>
 <g id="figure_1">
  <g id="patch_1">
   <path d="M 0 180 
L 720 180 
L 720 0 
L 0 0 
z
" style="fill:none;"/>
  </g>
  <g id="axes_1">
   <g id="line2d_1">
    <path clip-path="url(#p771f5135f5)" d="M 90 157.5 
L 648 157.5 
" style="fill:none;stroke:#000000;stroke-linecap:square;stroke-width:0.5;"/>
   </g>
   <g id="patch_2">
    <path clip-path="url(#p771f5135f5)" d="M 111.66376 154.74925 
L 99.636153 154.74925 
L 97.737057 157.5 
L 90 157.5 
L 101.049285 142.4 
L 110.225051 142.4 
L 121.274336 157.5 
L 113.543673 157.5 
z
M 101.554432 151.946721 
L 109.726299 151.946721 
L 105.64676 145.940377 
z
" style="fill:#008000;"/>
   </g>
   <g id="patch_3">
    <path clip-path="url(#p771f5135f5)" d="M 90 127.3 
L 121.274336 127.3 
L 121.274336 130.244921 
L 110.022848 130.244921 
L 110.022848 142.4 
L 101.273307 142.4 
L 101.273307 130.244921 
L 90 130.244921 
z
" style="fill:#ff0000;"/>
   </g>
   <g id="patch_4">
    <path clip-path="url(#p771f5135f5)" d="M 121.274336 124.567589 
Q 118.120268 125.933795 114.727893 126.620017 
Q 111.335518 127.3 107.718853 127.3 
Q 99.546312 127.3 94.773156 123.232576 
Q 90 119.165152 90 112.209358 
Q 90 105.172464 94.857265 101.136232 
Q 99.721538 97.1 108.18145 97.1 
Q 111.440653 97.1 114.426504 97.648977 
Q 117.419364 98.191717 120.068781 99.264718 
L 120.068781 105.284755 
Q 117.335256 103.906073 114.629766 103.22609 
Q 111.924277 102.539868 109.204769 102.539868 
Q 104.172279 102.539868 101.445762 105.047697 
Q 98.719246 107.549287 98.719246 112.209358 
Q 98.719246 116.825759 101.347636 119.346065 
Q 103.976026 121.860132 108.812263 121.860132 
Q 110.129963 121.860132 111.258418 121.716649 
Q 112.386874 121.566928 113.284031 121.255009 
L 113.284031 115.603037 
L 108.132386 115.603037 
L 108.132386 110.568663 
L 121.274336 110.568663 
z
" style="fill:#ffa600;"/>
   </g>
   <g id="patch_5">
    <path clip-path="url(#p771f5135f5)" d="M 121.274336 93.852923 
Q 118.658292 95.462425 115.829497 96.276534 
Q 113.000702 97.1 109.919759 97.1 
Q 100.732085 97.1 95.366043 90.998864 
Q 90 84.897728 90 74.464036 
Q 90 63.992915 95.366043 57.901136 
Q 100.732085 51.8 109.919759 51.8 
Q 113.000702 51.8 115.829497 52.623466 
Q 118.658292 53.437575 121.274336 55.047077 
L 121.274336 64.077133 
Q 118.634653 61.943607 116.073766 60.951704 
Q 113.51288 59.959802 110.684085 59.959802 
Q 105.609589 59.959802 102.701998 63.824478 
Q 99.802286 67.679798 99.802286 74.464036 
Q 99.802286 81.220202 102.701998 85.084879 
Q 105.609589 88.940198 110.684085 88.940198 
Q 113.51288 88.940198 116.073766 87.948296 
Q 118.634653 86.947036 121.274336 84.81351 
z
" style="fill:#0000ff;"/>
   </g>
   <g id="patch_6">
    <path clip-path="url(#p771f5135f5)" d="M 122.920354 142.4 
L 154.19469 142.4 
L 154.19469 145.344921 
L 142.943202 145.344921 
L 142.943202 157.5 
L 134.193661 157.5 
L 134.193661 145.344921 
L 122.920354 145.344921 
z
" style="fill:#ff0000;"/>
   </g>
   <g id="patch_7">
    <path clip-path="url(#p771f5135f5)" d="M 154.19469 139.667589 
Q 151.040622 141.033795 147.648247 141.720017 
Q 144.255872 142.4 140.639207 142.4 
Q 132.466666 142.4 127.69351 138.332576 
Q 122.920354 134.265152 122.920354 127.309358 
Q 122.920354 120.272464 127.777619 116.236232 
Q 132.641892 112.2 141.101804 112.2 
Q 144.361007 112.2 147.346858 112.748977 
Q 150.339718 113.291717 152.989135 114.364718 
L 152.989135 120.384755 
Q 150.25561 119.006073 147.55012 118.32609 
Q 144.844631 117.639868 142.125123 117.639868 
Q 137.092633 117.639868 134.366116 120.147697 
Q 131.6396 122.649287 131.6396 127.309358 
Q 131.6396 131.925759 134.26799 134.446065 
Q 136.89638 136.960132 141.732617 136.960132 
Q 143.050317 136.960132 144.178772 136.816649 
Q 145.307228 136.666928 146.204385 136.355009 
L 146.204385 130.703037 
L 141.05274 130.703037 
L 141.05274 125.668663 
L 154.19469 125.668663 
z
" style="fill:#ffa600;"/>
   </g>
   <g id="patch_8">
    <path clip-path="url(#p771f5135f5)" d="M 144.584114 101.197 
L 132.556507 101.197 
L 130.657411 112.2 
L 122.920354 112.2 
L 133.969639 51.8 
L 143.145405 51.8 
L 154.19469 112.2 
L 146.464027 112.2 
z
M 134.474786 89.986884 
L 142.646653 89.986884 
L 138.567114 65.961509 
z
" style="fill:#008000;"/>
   </g>
   <g id="patch_9">
    <path clip-path="url(#p771f5135f5)" d="M 177.504468 154.74925 
L 165.476861 154.74925 
L 163.577765 157.5 
L 155.840708 157.5 
L 166.889993 142.4 
L 176.065759 142.4 
L 187.115044 157.5 
L 179.384381 157.5 
z
M 167.39514 151.946721 
L 175.567007 151.946721 
L 171.487467 145.940377 
z
" style="fill:#008000;"/>
   </g>
   <g id="patch_10">
    <path clip-path="url(#p771f5135f5)" d="M 187.115044 141.317641 
Q 184.499 141.854142 181.670205 142.125511 
Q 178.84141 142.4 175.760467 142.4 
Q 166.572793 142.4 161.206751 140.366288 
Q 155.840708 138.332576 155.840708 134.854679 
Q 155.840708 131.364305 161.206751 129.333712 
Q 166.572793 127.3 175.760467 127.3 
Q 178.84141 127.3 181.670205 127.574489 
Q 184.499 127.845858 187.115044 128.382359 
L 187.115044 131.392378 
Q 184.475361 130.681202 181.914474 130.350568 
Q 179.353588 130.019934 176.524793 130.019934 
Q 171.450297 130.019934 168.542706 131.308159 
Q 165.642994 132.593266 165.642994 134.854679 
Q 165.642994 137.106734 168.542706 138.39496 
Q 171.450297 139.680066 176.524793 139.680066 
Q 179.353588 139.680066 181.914474 139.349432 
Q 184.475361 139.015679 187.115044 138.304503 
z
" style="fill:#0000ff;"/>
   </g>
   <g id="patch_11">
    <path clip-path="url(#p771f5135f5)" d="M 187.115044 124.567589 
Q 183.960976 125.933795 180.568601 126.620017 
Q 177.176226 127.3 173.559561 127.3 
Q 165.38702 127.3 160.613864 123.232576 
Q 155.840708 119.165152 155.840708 112.209358 
Q 155.840708 105.172464 160.697973 101.136232 
Q 165.562246 97.1 174.022158 97.1 
Q 177.281361 97.1 180.267212 97.648977 
Q 183.260072 98.191717 185.909489 99.264718 
L 185.909489 105.284755 
Q 183.175964 103.906073 180.470474 103.22609 
Q 177.764985 102.539868 175.045477 102.539868 
Q 170.012987 102.539868 167.28647 105.047697 
Q 164.559954 107.549287 164.559954 112.209358 
Q 164.559954 116.825759 167.188344 119.346065 
Q 169.816734 121.860132 174.652971 121.860132 
Q 175.970671 121.860132 177.099126 121.716649 
Q 178.227582 121.566928 179.124739 121.255009 
L 179.124739 115.603037 
L 173.973094 115.603037 
L 173.973094 110.568663 
L 187.115044 110.568663 
z
" style="fill:#ffa600;"/>
   </g>
   <g id="patch_12">
    <path clip-path="url(#p771f5135f5)" d="M 155.840708 51.8 
L 187.115044 51.8 
L 187.115044 60.634762 
L 175.863556 60.634762 
L 175.863556 97.1 
L 167.114015 97.1 
L 167.114015 60.634762 
L 155.840708 60.634762 
z
" style="fill:#ff0000;"/>
   </g>
   <g id="patch_13">
    <path clip-path="url(#p771f5135f5)" d="M 220.035398 155.335282 
Q 217.419354 156.408283 214.590559 156.951023 
Q 211.761764 157.5 208.680821 157.5 
Q 199.493147 157.5 194.127105 153.432576 
Q 188.761062 149.365152 188.761062 142.409358 
Q 188.761062 135.42861 194.127105 131.367424 
Q 199.493147 127.3 208.680821 127.3 
Q 211.761764 127.3 214.590559 127.848977 
Q 217.419354 128.391717 220.035398 129.464718 
L 220.035398 135.484755 
Q 217.395715 134.062404 214.834828 133.401136 
Q 212.273942 132.739868 209.445147 132.739868 
Q 204.370651 132.739868 201.46306 135.316319 
Q 198.563348 137.886532 198.563348 142.409358 
Q 198.563348 146.913468 201.46306 149.489919 
Q 204.370651 152.060132 209.445147 152.060132 
Q 212.273942 152.060132 214.834828 151.398864 
Q 217.395715 150.731357 220.035398 149.309006 
z
" style="fill:#0000ff;"/>
   </g>
   <g id="patch_14">
    <path clip-path="url(#p771f5135f5)" d="M 220.035398 124.567589 
Q 216.88133 125.933795 213.488955 126.620017 
Q 210.09658 127.3 206.479915 127.3 
Q 198.307374 127.3 193.534218 123.232576 
Q 188.761062 119.165152 188.761062 112.209358 
Q 188.761062 105.172464 193.618327 101.136232 
Q 198.4826 97.1 206.942512 97.1 
Q 210.201715 97.1 213.187566 97.648977 
Q 216.180426 98.191717 218.829843 99.264718 
L 218.829843 105.284755 
Q 216.096318 103.906073 213.390828 103.22609 
Q 210.685339 102.539868 207.965831 102.539868 
Q 202.933341 102.539868 200.206824 105.047697 
Q 197.480308 107.549287 197.480308 112.209358 
Q 197.480308 116.825759 200.108698 119.346065 
Q 202.737088 121.860132 207.573325 121.860132 
Q 208.891025 121.860132 210.01948 121.716649 
Q 211.147936 121.566928 212.045093 121.255009 
L 212.045093 115.603037 
L 206.893448 115.603037 
L 206.893448 110.568663 
L 220.035398 110.568663 
z
" style="fill:#ffa600;"/>
   </g>
   <g id="patch_15">
    <path clip-path="url(#p771f5135f5)" d="M 210.424822 88.84775 
L 198.397215 88.84775 
L 196.498119 97.1 
L 188.761062 97.1 
L 199.810347 51.8 
L 208.986113 51.8 
L 220.035398 97.1 
L 212.304735 97.1 
z
M 200.315494 80.440163 
L 208.487361 80.440163 
L 204.407821 62.421132 
z
" style="fill:#008000;"/>
   </g>
   <g id="patch_16">
    <path clip-path="url(#p771f5135f5)" d="M 243.345176 151.9985 
L 231.317569 151.9985 
L 229.418473 157.5 
L 221.681416 157.5 
L 232.730701 127.3 
L 241.906467 127.3 
L 252.955752 157.5 
L 245.225089 157.5 
z
M 233.235848 146.393442 
L 241.407715 146.393442 
L 237.328175 134.380754 
z
" style="fill:#008000;"/>
   </g>
   <g id="patch_17">
    <path clip-path="url(#p771f5135f5)" d="M 252.955752 120.468973 
Q 249.801684 123.884487 246.409309 125.600041 
Q 243.016934 127.3 239.400269 127.3 
Q 231.227728 127.3 226.454572 117.13144 
Q 221.681416 106.96288 221.681416 89.573394 
Q 221.681416 71.981161 226.538681 61.89058 
Q 231.402954 51.8 239.862866 51.8 
Q 243.122069 51.8 246.10792 53.172444 
Q 249.10078 54.529291 251.750197 57.211795 
L 251.750197 72.261888 
Q 249.016672 68.815183 246.311182 67.115224 
Q 243.605693 65.399669 240.886185 65.399669 
Q 235.853695 65.399669 233.127178 71.669242 
Q 230.400662 77.923218 230.400662 89.573394 
Q 230.400662 101.114398 233.029052 107.415162 
Q 235.657442 113.700331 240.493679 113.700331 
Q 241.811379 113.700331 242.939834 113.341624 
Q 244.06829 112.967321 244.965447 112.187523 
L 244.965447 98.057591 
L 239.813802 98.057591 
L 239.813802 85.471659 
L 252.955752 85.471659 
z
" style="fill:#ffa600;"/>
   </g>
   <g id="patch_18">
    <path clip-path="url(#p771f5135f5)" d="M 276.26553 154.74925 
L 264.237923 154.74925 
L 262.338827 157.5 
L 254.60177 157.5 
L 265.651055 142.4 
L 274.826821 142.4 
L 285.876106 157.5 
L 278.145443 157.5 
z
M 266.156202 151.946721 
L 274.328069 151.946721 
L 270.248529 145.940377 
z
" style="fill:#008000;"/>
   </g>
   <g id="patch_19">
    <path clip-path="url(#p771f5135f5)" d="M 254.60177 112.2 
L 285.876106 112.2 
L 285.876106 118.089841 
L 274.624618 118.089841 
L 274.624618 142.4 
L 265.875077 142.4 
L 265.875077 118.089841 
L 254.60177 118.089841 
z
" style="fill:#ff0000;"/>
   </g>
   <g id="patch_20">
    <path clip-path="url(#p771f5135f5)" d="M 285.876106 107.870564 
Q 283.260062 110.016567 280.431267 111.102045 
Q 277.602472 112.2 274.521529 112.2 
Q 265.333855 112.2 259.967812 104.065152 
Q 254.60177 95.930304 254.60177 82.018715 
Q 254.60177 68.05722 259.967812 59.934848 
Q 265.333855 51.8 274.521529 51.8 
Q 277.602472 51.8 280.431267 52.897955 
Q 283.260062 53.983433 285.876106 56.129436 
L 285.876106 68.16951 
Q 283.236423 65.324809 280.675536 64.002272 
Q 278.11465 62.679736 275.285855 62.679736 
Q 270.211359 62.679736 267.303768 67.832638 
Q 264.404056 72.973063 264.404056 82.018715 
Q 264.404056 91.026937 267.303768 96.179839 
Q 270.211359 101.320264 275.285855 101.320264 
Q 278.11465 101.320264 280.675536 99.997728 
Q 283.236423 98.662714 285.876106 95.818013 
z
" style="fill:#0000ff;"/>
   </g>
   <g id="patch_21">
    <path clip-path="url(#p771f5135f5)" d="M 309.185884 154.74925 
L 297.158277 154.74925 
L 295.259181 157.5 
L 287.522124 157.5 
L 298.571409 142.4 
L 307.747175 142.4 
L 318.79646 157.5 
L 311.065797 157.5 
z
M 299.076556 151.946721 
L 307.248423 151.946721 
L 303.168883 145.940377 
z
" style="fill:#008000;"/>
   </g>
   <g id="patch_22">
    <path clip-path="url(#p771f5135f5)" d="M 318.79646 141.317641 
Q 316.180416 141.854142 313.351621 142.125511 
Q 310.522826 142.4 307.441883 142.4 
Q 298.254209 142.4 292.888166 140.366288 
Q 287.522124 138.332576 287.522124 134.854679 
Q 287.522124 131.364305 292.888166 129.333712 
Q 298.254209 127.3 307.441883 127.3 
Q 310.522826 127.3 313.351621 127.574489 
Q 316.180416 127.845858 318.79646 128.382359 
L 318.79646 131.392378 
Q 316.156777 130.681202 313.59589 130.350568 
Q 311.035004 130.019934 308.206209 130.019934 
Q 303.131713 130.019934 300.224122 131.308159 
Q 297.32441 132.593266 297.32441 134.854679 
Q 297.32441 137.106734 300.224122 138.39496 
Q 303.131713 139.680066 308.206209 139.680066 
Q 311.035004 139.680066 313.59589 139.349432 
Q 316.156777 139.015679 318.79646 138.304503 
z
" style="fill:#0000ff;"/>
   </g>
   <g id="patch_23">
    <path clip-path="url(#p771f5135f5)" d="M 318.79646 120.468973 
Q 315.642392 123.884487 312.250017 125.600041 
Q 308.857642 127.3 305.240977 127.3 
Q 297.068436 127.3 292.29528 117.13144 
Q 287.522124 106.96288 287.522124 89.573394 
Q 287.522124 71.981161 292.379389 61.89058 
Q 297.243662 51.8 305.703574 51.8 
Q 308.962777 51.8 311.948628 53.172444 
Q 314.941488 54.529291 317.590905 57.211795 
L 317.590905 72.261888 
Q 314.85738 68.815183 312.15189 67.115224 
Q 309.446401 65.399669 306.726893 65.399669 
Q 301.694403 65.399669 298.967886 71.669242 
Q 296.24137 77.923218 296.24137 89.573394 
Q 296.24137 101.114398 298.86976 107.415162 
Q 301.49815 113.700331 306.334387 113.700331 
Q 307.652087 113.700331 308.780542 113.341624 
Q 309.908998 112.967321 310.806155 112.187523 
L 310.806155 98.057591 
L 305.65451 98.057591 
L 305.65451 85.471659 
L 318.79646 85.471659 
z
" style="fill:#ffa600;"/>
   </g>
   <g id="patch_24">
    <path clip-path="url(#p771f5135f5)" d="M 351.716814 154.767589 
Q 348.562746 156.133795 345.170371 156.820017 
Q 341.777996 157.5 338.161331 157.5 
Q 329.98879 157.5 325.215634 153.432576 
Q 320.442478 149.365152 320.442478 142.409358 
Q 320.442478 135.372464 325.299743 131.336232 
Q 330.164016 127.3 338.623928 127.3 
Q 341.883131 127.3 344.868982 127.848977 
Q 347.861842 128.391717 350.511259 129.464718 
L 350.511259 135.484755 
Q 347.777734 134.106073 345.072244 133.42609 
Q 342.366755 132.739868 339.647247 132.739868 
Q 334.614757 132.739868 331.88824 135.247697 
Q 329.161724 137.749287 329.161724 142.409358 
Q 329.161724 147.025759 331.790114 149.546065 
Q 334.418504 152.060132 339.254741 152.060132 
Q 340.572441 152.060132 341.700896 151.916649 
Q 342.829351 151.766928 343.726509 151.455009 
L 343.726509 145.803037 
L 338.574864 145.803037 
L 338.574864 140.768663 
L 351.716814 140.768663 
z
" style="fill:#ffa600;"/>
   </g>
   <g id="patch_25">
    <path clip-path="url(#p771f5135f5)" d="M 342.106238 108.044749 
L 330.078631 108.044749 
L 328.179535 127.3 
L 320.442478 127.3 
L 331.491763 21.6 
L 340.667529 21.6 
L 351.716814 127.3 
L 343.986151 127.3 
z
M 331.99691 88.427047 
L 340.168777 88.427047 
L 336.089237 46.38264 
z
" style="fill:#008000;"/>
   </g>
   <g id="patch_26">
    <path clip-path="url(#p771f5135f5)" d="M 375.026592 154.74925 
L 362.998985 154.74925 
L 361.099889 157.5 
L 353.362832 157.5 
L 364.412117 142.4 
L 373.587883 142.4 
L 384.637168 157.5 
L 376.906505 157.5 
z
M 364.917264 151.946721 
L 373.089131 151.946721 
L 369.009591 145.940377 
z
" style="fill:#008000;"/>
   </g>
   <g id="patch_27">
    <path clip-path="url(#p771f5135f5)" d="M 384.637168 138.070564 
Q 382.021124 140.216567 379.192329 141.302045 
Q 376.363534 142.4 373.282591 142.4 
Q 364.094917 142.4 358.728874 134.265152 
Q 353.362832 126.130304 353.362832 112.218715 
Q 353.362832 98.25722 358.728874 90.134848 
Q 364.094917 82 373.282591 82 
Q 376.363534 82 379.192329 83.097955 
Q 382.021124 84.183433 384.637168 86.329436 
L 384.637168 98.36951 
Q 381.997485 95.524809 379.436598 94.202272 
Q 376.875712 92.879736 374.046917 92.879736 
Q 368.972421 92.879736 366.06483 98.032638 
Q 363.165118 103.173063 363.165118 112.218715 
Q 363.165118 121.226937 366.06483 126.379839 
Q 368.972421 131.520264 374.046917 131.520264 
Q 376.875712 131.520264 379.436598 130.197728 
Q 381.997485 128.862714 384.637168 126.018013 
z
" style="fill:#0000ff;"/>
   </g>
   <g id="patch_28">
    <path clip-path="url(#p771f5135f5)" d="M 353.362832 21.6 
L 384.637168 21.6 
L 384.637168 33.379683 
L 373.38568 33.379683 
L 373.38568 82 
L 364.636139 82 
L 364.636139 33.379683 
L 353.362832 33.379683 
z
" style="fill:#ff0000;"/>
   </g>
   <g id="patch_29">
    <path clip-path="url(#p771f5135f5)" d="M 407.946946 154.74925 
L 395.919339 154.74925 
L 394.020243 157.5 
L 386.283186 157.5 
L 397.332471 142.4 
L 406.508237 142.4 
L 417.557522 157.5 
L 409.826859 157.5 
z
M 397.837618 151.946721 
L 406.009485 151.946721 
L 401.929945 145.940377 
z
" style="fill:#008000;"/>
   </g>
   <g id="patch_30">
    <path clip-path="url(#p771f5135f5)" d="M 417.557522 140.235282 
Q 414.941478 141.308283 412.112683 141.851023 
Q 409.283888 142.4 406.202945 142.4 
Q 397.015271 142.4 391.649228 138.332576 
Q 386.283186 134.265152 386.283186 127.309358 
Q 386.283186 120.32861 391.649228 116.267424 
Q 397.015271 112.2 406.202945 112.2 
Q 409.283888 112.2 412.112683 112.748977 
Q 414.941478 113.291717 417.557522 114.364718 
L 417.557522 120.384755 
Q 414.917839 118.962404 412.356952 118.301136 
Q 409.796066 117.639868 406.967271 117.639868 
Q 401.892775 117.639868 398.985184 120.216319 
Q 396.085472 122.786532 396.085472 127.309358 
Q 396.085472 131.813468 398.985184 134.389919 
Q 401.892775 136.960132 406.967271 136.960132 
Q 409.796066 136.960132 412.356952 136.298864 
Q 414.917839 135.631357 417.557522 134.209006 
z
" style="fill:#0000ff;"/>
   </g>
   <g id="patch_31">
    <path clip-path="url(#p771f5135f5)" d="M 417.557522 104.002768 
Q 414.403454 108.101384 411.011079 110.16005 
Q 407.618703 112.2 404.002039 112.2 
Q 395.829498 112.2 391.056342 99.997728 
Q 386.283186 87.795455 386.283186 66.928073 
Q 386.283186 45.817393 391.140451 33.708697 
Q 396.004724 21.6 404.464635 21.6 
Q 407.723839 21.6 410.70969 23.246932 
Q 413.70255 24.87515 416.351967 28.094154 
L 416.351967 46.154266 
Q 413.618442 42.018219 410.912952 39.978269 
Q 408.207463 37.919603 405.487955 37.919603 
Q 400.455465 37.919603 397.728948 45.44309 
Q 395.002432 52.947862 395.002432 66.928073 
Q 395.002432 80.777277 397.630822 88.338195 
Q 400.259212 95.880397 405.095449 95.880397 
Q 406.413149 95.880397 407.541604 95.449948 
Q 408.670059 95.000785 409.567217 94.065028 
L 409.567217 77.10911 
L 404.415572 77.10911 
L 404.415572 62.00599 
L 417.557522 62.00599 
z
" style="fill:#ffa600;"/>
   </g>
   <g id="patch_32">
    <path clip-path="url(#p771f5135f5)" d="M 440.8673 132.743249 
L 428.839693 132.743249 
L 426.940597 157.5 
L 419.20354 157.5 
L 430.252825 21.6 
L 439.428591 21.6 
L 450.477876 157.5 
L 442.747213 157.5 
z
M 430.757972 107.520489 
L 438.929839 107.520489 
L 434.850299 53.463395 
z
" style="fill:#008000;"/>
   </g>
   <g id="patch_33">
    <path clip-path="url(#p771f5135f5)" d="M 452.123894 21.6 
L 483.39823 21.6 
L 483.39823 48.104286 
L 472.146742 48.104286 
L 472.146742 157.5 
L 463.397201 157.5 
L 463.397201 48.104286 
L 452.123894 48.104286 
z
" style="fill:#ff0000;"/>
   </g>
   <g id="patch_34">
    <path clip-path="url(#p771f5135f5)" d="M 516.318584 145.204152 
Q 513.164516 151.352076 509.772141 154.440074 
Q 506.379765 157.5 502.763101 157.5 
Q 494.59056 157.5 489.817404 139.196592 
Q 485.044248 120.893183 485.044248 89.592109 
Q 485.044248 57.92609 489.901512 39.763045 
Q 494.765786 21.6 503.225697 21.6 
Q 506.484901 21.6 509.470752 24.070399 
Q 512.463612 26.512725 515.113029 31.341231 
L 515.113029 58.431398 
Q 512.379504 52.227329 509.674014 49.167403 
Q 506.968525 46.079405 504.249017 46.079405 
Q 499.216527 46.079405 496.49001 57.364635 
Q 493.763493 68.621793 493.763493 89.592109 
Q 493.763493 110.365916 496.391883 121.707292 
Q 499.020273 133.020595 503.856511 133.020595 
Q 505.174211 133.020595 506.302666 132.374923 
Q 507.431121 131.701177 508.328279 130.297542 
L 508.328279 104.863665 
L 503.176634 104.863665 
L 503.176634 82.208986 
L 516.318584 82.208986 
z
" style="fill:#ffa600;"/>
   </g>
   <g id="patch_35">
    <path clip-path="url(#p771f5135f5)" d="M 549.238938 145.204152 
Q 546.08487 151.352076 542.692495 154.440074 
Q 539.300119 157.5 535.683455 157.5 
Q 527.510914 157.5 522.737758 139.196592 
Q 517.964602 120.893183 517.964602 89.592109 
Q 517.964602 57.92609 522.821866 39.763045 
Q 527.68614 21.6 536.146051 21.6 
Q 539.405255 21.6 542.391106 24.070399 
Q 545.383966 26.512725 548.033383 31.341231 
L 548.033383 58.431398 
Q 545.299858 52.227329 542.594368 49.167403 
Q 539.888879 46.079405 537.169371 46.079405 
Q 532.136881 46.079405 529.410364 57.364635 
Q 526.683847 68.621793 526.683847 89.592109 
Q 526.683847 110.365916 529.312237 121.707292 
Q 531.940627 133.020595 536.776865 133.020595 
Q 538.094565 133.020595 539.22302 132.374923 
Q 540.351475 131.701177 541.248633 130.297542 
L 541.248633 104.863665 
L 536.096988 104.863665 
L 536.096988 82.208986 
L 549.238938 82.208986 
z
" style="fill:#ffa600;"/>
   </g>
   <g id="patch_36">
    <path clip-path="url(#p771f5135f5)" d="M 572.548716 151.9985 
L 560.521109 151.9985 
L 558.622013 157.5 
L 550.884956 157.5 
L 561.934241 127.3 
L 571.110007 127.3 
L 582.159292 157.5 
L 574.428629 157.5 
z
M 562.439387 146.393442 
L 570.611255 146.393442 
L 566.531715 134.380754 
z
" style="fill:#008000;"/>
   </g>
   <g id="patch_37">
    <path clip-path="url(#p771f5135f5)" d="M 582.159292 119.723487 
Q 579.543248 123.478992 576.714453 125.378579 
Q 573.885658 127.3 570.804714 127.3 
Q 561.617041 127.3 556.250998 113.064016 
Q 550.884956 98.828031 550.884956 74.482751 
Q 550.884956 50.050134 556.250998 35.835984 
Q 561.617041 21.6 570.804714 21.6 
Q 573.885658 21.6 576.714453 23.521421 
Q 579.543248 25.421008 582.159292 29.176513 
L 582.159292 50.246643 
Q 579.519609 45.268416 576.958722 42.953976 
Q 574.397835 40.639537 571.569041 40.639537 
Q 566.494545 40.639537 563.586954 49.657116 
Q 560.687242 58.652861 560.687242 74.482751 
Q 560.687242 90.247139 563.586954 99.264718 
Q 566.494545 108.260463 571.569041 108.260463 
Q 574.397835 108.260463 576.958722 105.946024 
Q 579.519609 103.60975 582.159292 98.631522 
z
" style="fill:#0000ff;"/>
   </g>
   <g id="patch_38">
    <path clip-path="url(#p771f5135f5)" d="M 615.079646 156.133795 
Q 611.925578 156.816897 608.533203 157.160008 
Q 605.140827 157.5 601.524163 157.5 
Q 593.351622 157.5 588.578466 155.466288 
Q 583.80531 153.432576 583.80531 149.954679 
Q 583.80531 146.436232 588.662574 144.418116 
Q 593.526848 142.4 601.986759 142.4 
Q 605.245963 142.4 608.231814 142.674489 
Q 611.224674 142.945858 613.874091 143.482359 
L 613.874091 146.492378 
Q 611.140566 145.803037 608.435076 145.463045 
Q 605.729587 145.119934 603.010079 145.119934 
Q 597.977589 145.119934 595.251072 146.373848 
Q 592.524555 147.624644 592.524555 149.954679 
Q 592.524555 152.26288 595.152945 153.523032 
Q 597.781335 154.780066 602.617573 154.780066 
Q 603.935272 154.780066 605.063728 154.708325 
Q 606.192183 154.633464 607.08934 154.477505 
L 607.08934 151.651518 
L 601.937696 151.651518 
L 601.937696 149.134332 
L 615.079646 149.134332 
z
" style="fill:#ffa600;"/>
   </g>
   <g id="patch_39">
    <path clip-path="url(#p771f5135f5)" d="M 605.46907 136.8985 
L 593.441463 136.8985 
L 591.542367 142.4 
L 583.80531 142.4 
L 594.854595 112.2 
L 604.030361 112.2 
L 615.079646 142.4 
L 607.348983 142.4 
z
M 595.359741 131.293442 
L 603.531609 131.293442 
L 599.452069 119.280754 
z
" style="fill:#008000;"/>
   </g>
   <g id="patch_40">
    <path clip-path="url(#p771f5135f5)" d="M 615.079646 108.952923 
Q 612.463602 110.562425 609.634807 111.376534 
Q 606.806012 112.2 603.725068 112.2 
Q 594.537395 112.2 589.171352 106.098864 
Q 583.80531 99.997728 583.80531 89.564036 
Q 583.80531 79.092915 589.171352 73.001136 
Q 594.537395 66.9 603.725068 66.9 
Q 606.806012 66.9 609.634807 67.723466 
Q 612.463602 68.537575 615.079646 70.147077 
L 615.079646 79.177133 
Q 612.439963 77.043607 609.879076 76.051704 
Q 607.318189 75.059802 604.489395 75.059802 
Q 599.414899 75.059802 596.507308 78.924478 
Q 593.607596 82.779798 593.607596 89.564036 
Q 593.607596 96.320202 596.507308 100.184879 
Q 599.414899 104.040198 604.489395 104.040198 
Q 607.318189 104.040198 609.879076 103.048296 
Q 612.439963 102.047036 615.079646 99.91351 
z
" style="fill:#0000ff;"/>
   </g>
   <g id="patch_41">
    <path clip-path="url(#p771f5135f5)" d="M 583.80531 21.6 
L 615.079646 21.6 
L 615.079646 30.434762 
L 603.828158 30.434762 
L 603.828158 66.9 
L 595.078617 66.9 
L 595.078617 30.434762 
L 583.80531 30.434762 
z
" style="fill:#ff0000;"/>
   </g>
   <g id="patch_42">
    <path clip-path="url(#p771f5135f5)" d="M 648 154.767589 
Q 644.845932 156.133795 641.453557 156.820017 
Q 638.061181 157.5 634.444517 157.5 
Q 626.271976 157.5 621.49882 153.432576 
Q 616.725664 149.365152 616.725664 142.409358 
Q 616.725664 135.372464 621.582928 131.336232 
Q 626.447202 127.3 634.907113 127.3 
Q 638.166317 127.3 641.152168 127.848977 
Q 644.145028 128.391717 646.794445 129.464718 
L 646.794445 135.484755 
Q 644.06092 134.106073 641.35543 133.42609 
Q 638.649941 132.739868 635.930433 132.739868 
Q 630.897943 132.739868 628.171426 135.247697 
Q 625.444909 137.749287 625.444909 142.409358 
Q 625.444909 147.025759 628.073299 149.546065 
Q 630.701689 152.060132 635.537927 152.060132 
Q 636.855626 152.060132 637.984082 151.916649 
Q 639.112537 151.766928 640.009694 151.455009 
L 640.009694 145.803037 
L 634.85805 145.803037 
L 634.85805 140.768663 
L 648 140.768663 
z
" style="fill:#ffa600;"/>
   </g>
   <g id="patch_43">
    <path clip-path="url(#p771f5135f5)" d="M 648 119.723487 
Q 645.383956 123.478992 642.555161 125.378579 
Q 639.726366 127.3 636.645422 127.3 
Q 627.457749 127.3 622.091706 113.064016 
Q 616.725664 98.828031 616.725664 74.482751 
Q 616.725664 50.050134 622.091706 35.835984 
Q 627.457749 21.6 636.645422 21.6 
Q 639.726366 21.6 642.555161 23.521421 
Q 645.383956 25.421008 648 29.176513 
L 648 50.246643 
Q 645.360317 45.268416 642.79943 42.953976 
Q 640.238543 40.639537 637.409749 40.639537 
Q 632.335253 40.639537 629.427662 49.657116 
Q 626.52795 58.652861 626.52795 74.482751 
Q 626.52795 90.247139 629.427662 99.264718 
Q 632.335253 108.260463 637.409749 108.260463 
Q 640.238543 108.260463 642.79943 105.946024 
Q 645.360317 103.60975 648 98.631522 
z
" style="fill:#0000ff;"/>
   </g>
  </g>
 </g>
 <defs>
  <clipPath id="p771f5135f5">
   <rect height="135.9" width="558" x="90" y="21.6"/>
  </clipPath>
 </defs>
</svg>
