<?xml version="1.0" encoding="utf-8" standalone="no"?>
<!DOCTYPE svg PUBLIC "-//W3C//DTD SVG 1.1//EN"
  "http://www.w3.org/Graphics/SVG/1.1/DTD/svg11.dtd">
<!-- Created with matplotlib (https://matplotlib.org/) -->
<svg height="180pt" version="1.1" viewBox="0 0 720 180" width="720pt" xmlns="http://www.w3.org/2000/svg" xmlns:xlink="http://www.w3.org/1999/xlink">
 <metadata>
  <rdf:RDF xmlns:cc="http://creativecommons.org/ns#" xmlns:dc="http://purl.org/dc/elements/1.1/" xmlns:rdf="http://www.w3.org/1999/02/22-rdf-syntax-ns#">
   <cc:Work>
    <dc:type rdf:resource="http://purl.org/dc/dcmitype/StillImage"/>
    <dc:date>2021-08-04T23:33:12.825057</dc:date>
    <dc:format>image/svg+xml</dc:format>
    <dc:creator>
     <cc:Agent>
      <dc:title>Matplotlib v3.3.2, https://matplotlib.org/</dc:title>
     </cc:Agent>
    </dc:creator>
   </cc:Work>
  </rdf:RDF>
 </metadata>
 <defs>
  <style type="text/css">*{stroke-linecap:butt;stroke-linejoin:round;}</style>
 </defs>
 <g id="figure_1">
  <g id="patch_1">
   <path d="M 0 180 
L 720 180 
L 720 0 
L 0 0 
z
" style="fill:none;"/>
  </g>
  <g id="axes_1">
   <g id="line2d_1">
    <path clip-path="url(#p67f9d71fe6)" d="M 90 157.5 
L 648 157.5 
" style="fill:none;stroke:#000000;stroke-linecap:square;stroke-width:0.5;"/>
   </g>
   <g id="patch_2">
    <path clip-path="url(#p67f9d71fe6)" d="M 121.274336 156.417641 
Q 118.658292 156.954142 115.829497 157.225511 
Q 113.000702 157.5 109.919759 157.5 
Q 100.732085 157.5 95.366043 155.466288 
Q 90 153.432576 90 149.954679 
Q 90 146.464305 95.366043 144.433712 
Q 100.732085 142.4 109.919759 142.4 
Q 113.000702 142.4 115.829497 142.674489 
Q 118.658292 142.945858 121.274336 143.482359 
L 121.274336 146.492378 
Q 118.634653 145.781202 116.073766 145.450568 
Q 113.51288 145.119934 110.684085 145.119934 
Q 105.609589 145.119934 102.701998 146.408159 
Q 99.802286 147.693266 99.802286 149.954679 
Q 99.802286 152.206734 102.701998 153.49496 
Q 105.609589 154.780066 110.684085 154.780066 
Q 113.51288 154.780066 116.073766 154.449432 
Q 118.634653 154.115679 121.274336 153.404503 
z
" style="fill:#0000ff;"/>
   </g>
   <g id="patch_3">
    <path clip-path="url(#p67f9d71fe6)" d="M 111.66376 136.8985 
L 99.636153 136.8985 
L 97.737057 142.4 
L 90 142.4 
L 101.049285 112.2 
L 110.225051 112.2 
L 121.274336 142.4 
L 113.543673 142.4 
z
M 101.554432 131.293442 
L 109.726299 131.293442 
L 105.64676 119.280754 
z
" style="fill:#008000;"/>
   </g>
   <g id="patch_4">
    <path clip-path="url(#p67f9d71fe6)" d="M 90 82 
L 121.274336 82 
L 121.274336 87.889841 
L 110.022848 87.889841 
L 110.022848 112.2 
L 101.273307 112.2 
L 101.273307 87.889841 
L 90 87.889841 
z
" style="fill:#ff0000;"/>
   </g>
   <g id="patch_5">
    <path clip-path="url(#p67f9d71fe6)" d="M 121.274336 76.535179 
Q 118.120268 79.267589 114.727893 80.640033 
Q 111.335518 82 107.718853 82 
Q 99.546312 82 94.773156 73.865152 
Q 90 65.730304 90 51.818715 
Q 90 37.744929 94.857265 29.672464 
Q 99.721538 21.6 108.18145 21.6 
Q 111.440653 21.6 114.426504 22.697955 
Q 117.419364 23.783433 120.068781 25.929436 
L 120.068781 37.96951 
Q 117.335256 35.212146 114.629766 33.852179 
Q 111.924277 32.479736 109.204769 32.479736 
Q 104.172279 32.479736 101.445762 37.495394 
Q 98.719246 42.498575 98.719246 51.818715 
Q 98.719246 61.051518 101.347636 66.09213 
Q 103.976026 71.120264 108.812263 71.120264 
Q 110.129963 71.120264 111.258418 70.833299 
Q 112.386874 70.533857 113.284031 69.910019 
L 113.284031 58.606073 
L 108.132386 58.606073 
L 108.132386 48.537327 
L 121.274336 48.537327 
z
" style="fill:#ffa600;"/>
   </g>
   <g id="patch_6">
    <path clip-path="url(#p67f9d71fe6)" d="M 144.584114 151.9985 
L 132.556507 151.9985 
L 130.657411 157.5 
L 122.920354 157.5 
L 133.969639 127.3 
L 143.145405 127.3 
L 154.19469 157.5 
L 146.464027 157.5 
z
M 134.474786 146.393442 
L 142.646653 146.393442 
L 138.567114 134.380754 
z
" style="fill:#008000;"/>
   </g>
   <g id="patch_7">
    <path clip-path="url(#p67f9d71fe6)" d="M 122.920354 82 
L 154.19469 82 
L 154.19469 90.834762 
L 142.943202 90.834762 
L 142.943202 127.3 
L 134.193661 127.3 
L 134.193661 90.834762 
L 122.920354 90.834762 
z
" style="fill:#ff0000;"/>
   </g>
   <g id="patch_8">
    <path clip-path="url(#p67f9d71fe6)" d="M 154.19469 76.535179 
Q 151.040622 79.267589 147.648247 80.640033 
Q 144.255872 82 140.639207 82 
Q 132.466666 82 127.69351 73.865152 
Q 122.920354 65.730304 122.920354 51.818715 
Q 122.920354 37.744929 127.777619 29.672464 
Q 132.641892 21.6 141.101804 21.6 
Q 144.361007 21.6 147.346858 22.697955 
Q 150.339718 23.783433 152.989135 25.929436 
L 152.989135 37.96951 
Q 150.25561 35.212146 147.55012 33.852179 
Q 144.844631 32.479736 142.125123 32.479736 
Q 137.092633 32.479736 134.366116 37.495394 
Q 131.6396 42.498575 131.6396 51.818715 
Q 131.6396 61.051518 134.26799 66.09213 
Q 136.89638 71.120264 141.732617 71.120264 
Q 143.050317 71.120264 144.178772 70.833299 
Q 145.307228 70.533857 146.204385 69.910019 
L 146.204385 58.606073 
L 141.05274 58.606073 
L 141.05274 48.537327 
L 154.19469 48.537327 
z
" style="fill:#ffa600;"/>
   </g>
   <g id="patch_9">
    <path clip-path="url(#p67f9d71fe6)" d="M 177.504468 154.74925 
L 165.476861 154.74925 
L 163.577765 157.5 
L 155.840708 157.5 
L 166.889993 142.4 
L 176.065759 142.4 
L 187.115044 157.5 
L 179.384381 157.5 
z
M 167.39514 151.946721 
L 175.567007 151.946721 
L 171.487467 145.940377 
z
" style="fill:#008000;"/>
   </g>
   <g id="patch_10">
    <path clip-path="url(#p67f9d71fe6)" d="M 187.115044 138.301384 
Q 183.960976 140.350692 180.568601 141.380025 
Q 177.176226 142.4 173.559561 142.4 
Q 165.38702 142.4 160.613864 136.298864 
Q 155.840708 130.197728 155.840708 119.764036 
Q 155.840708 109.208697 160.697973 103.154348 
Q 165.562246 97.1 174.022158 97.1 
Q 177.281361 97.1 180.267212 97.923466 
Q 183.260072 98.737575 185.909489 100.347077 
L 185.909489 109.377133 
Q 183.175964 107.30911 180.470474 106.289134 
Q 177.764985 105.259802 175.045477 105.259802 
Q 170.012987 105.259802 167.28647 109.021545 
Q 164.559954 112.773931 164.559954 119.764036 
Q 164.559954 126.688639 167.188344 130.469097 
Q 169.816734 134.240198 174.652971 134.240198 
Q 175.970671 134.240198 177.099126 134.024974 
Q 178.227582 133.800392 179.124739 133.332514 
L 179.124739 124.854555 
L 173.973094 124.854555 
L 173.973094 117.302995 
L 187.115044 117.302995 
z
" style="fill:#ffa600;"/>
   </g>
   <g id="patch_11">
    <path clip-path="url(#p67f9d71fe6)" d="M 187.115044 91.688205 
Q 184.499 94.370709 181.670205 95.727556 
Q 178.84141 97.1 175.760467 97.1 
Q 166.572793 97.1 161.206751 86.93144 
Q 155.840708 76.76288 155.840708 59.373394 
Q 155.840708 41.921524 161.206751 31.76856 
Q 166.572793 21.6 175.760467 21.6 
Q 178.84141 21.6 181.670205 22.972444 
Q 184.499 24.329291 187.115044 27.011795 
L 187.115044 42.061888 
Q 184.475361 38.506011 181.914474 36.85284 
Q 179.353588 35.199669 176.524793 35.199669 
Q 171.450297 35.199669 168.542706 41.640797 
Q 165.642994 48.066329 165.642994 59.373394 
Q 165.642994 70.633671 168.542706 77.074799 
Q 171.450297 83.500331 176.524793 83.500331 
Q 179.353588 83.500331 181.914474 81.84716 
Q 184.475361 80.178393 187.115044 76.622516 
z
" style="fill:#0000ff;"/>
   </g>
   <g id="patch_12">
    <path clip-path="url(#p67f9d71fe6)" d="M 220.035398 154.767589 
Q 216.88133 156.133795 213.488955 156.820017 
Q 210.09658 157.5 206.479915 157.5 
Q 198.307374 157.5 193.534218 153.432576 
Q 188.761062 149.365152 188.761062 142.409358 
Q 188.761062 135.372464 193.618327 131.336232 
Q 198.4826 127.3 206.942512 127.3 
Q 210.201715 127.3 213.187566 127.848977 
Q 216.180426 128.391717 218.829843 129.464718 
L 218.829843 135.484755 
Q 216.096318 134.106073 213.390828 133.42609 
Q 210.685339 132.739868 207.965831 132.739868 
Q 202.933341 132.739868 200.206824 135.247697 
Q 197.480308 137.749287 197.480308 142.409358 
Q 197.480308 147.025759 200.108698 149.546065 
Q 202.737088 152.060132 207.573325 152.060132 
Q 208.891025 152.060132 210.01948 151.916649 
Q 211.147936 151.766928 212.045093 151.455009 
L 212.045093 145.803037 
L 206.893448 145.803037 
L 206.893448 140.768663 
L 220.035398 140.768663 
z
" style="fill:#ffa600;"/>
   </g>
   <g id="patch_13">
    <path clip-path="url(#p67f9d71fe6)" d="M 210.424822 108.044749 
L 198.397215 108.044749 
L 196.498119 127.3 
L 188.761062 127.3 
L 199.810347 21.6 
L 208.986113 21.6 
L 220.035398 127.3 
L 212.304735 127.3 
z
M 200.315494 88.427047 
L 208.487361 88.427047 
L 204.407821 46.38264 
z
" style="fill:#008000;"/>
   </g>
   <g id="patch_14">
    <path clip-path="url(#p67f9d71fe6)" d="M 252.955752 156.133795 
Q 249.801684 156.816897 246.409309 157.160008 
Q 243.016934 157.5 239.400269 157.5 
Q 231.227728 157.5 226.454572 155.466288 
Q 221.681416 153.432576 221.681416 149.954679 
Q 221.681416 146.436232 226.538681 144.418116 
Q 231.402954 142.4 239.862866 142.4 
Q 243.122069 142.4 246.10792 142.674489 
Q 249.10078 142.945858 251.750197 143.482359 
L 251.750197 146.492378 
Q 249.016672 145.803037 246.311182 145.463045 
Q 243.605693 145.119934 240.886185 145.119934 
Q 235.853695 145.119934 233.127178 146.373848 
Q 230.400662 147.624644 230.400662 149.954679 
Q 230.400662 152.26288 233.029052 153.523032 
Q 235.657442 154.780066 240.493679 154.780066 
Q 241.811379 154.780066 242.939834 154.708325 
Q 244.06829 154.633464 244.965447 154.477505 
L 244.965447 151.651518 
L 239.813802 151.651518 
L 239.813802 149.134332 
L 252.955752 149.134332 
z
" style="fill:#ffa600;"/>
   </g>
   <g id="patch_15">
    <path clip-path="url(#p67f9d71fe6)" d="M 221.681416 112.2 
L 252.955752 112.2 
L 252.955752 118.089841 
L 241.704264 118.089841 
L 241.704264 142.4 
L 232.954723 142.4 
L 232.954723 118.089841 
L 221.681416 118.089841 
z
" style="fill:#ff0000;"/>
   </g>
   <g id="patch_16">
    <path clip-path="url(#p67f9d71fe6)" d="M 243.345176 103.94775 
L 231.317569 103.94775 
L 229.418473 112.2 
L 221.681416 112.2 
L 232.730701 66.9 
L 241.906467 66.9 
L 252.955752 112.2 
L 245.225089 112.2 
z
M 233.235848 95.540163 
L 241.407715 95.540163 
L 237.328175 77.521132 
z
" style="fill:#008000;"/>
   </g>
   <g id="patch_17">
    <path clip-path="url(#p67f9d71fe6)" d="M 252.955752 63.652923 
Q 250.339708 65.262425 247.510913 66.076534 
Q 244.682118 66.9 241.601175 66.9 
Q 232.413501 66.9 227.047459 60.798864 
Q 221.681416 54.697728 221.681416 44.264036 
Q 221.681416 33.792915 227.047459 27.701136 
Q 232.413501 21.6 241.601175 21.6 
Q 244.682118 21.6 247.510913 22.423466 
Q 250.339708 23.237575 252.955752 24.847077 
L 252.955752 33.877133 
Q 250.316069 31.743607 247.755182 30.751704 
Q 245.194296 29.759802 242.365501 29.759802 
Q 237.291005 29.759802 234.383414 33.624478 
Q 231.483702 37.479798 231.483702 44.264036 
Q 231.483702 51.020202 234.383414 54.884879 
Q 237.291005 58.740198 242.365501 58.740198 
Q 245.194296 58.740198 247.755182 57.748296 
Q 250.316069 56.747036 252.955752 54.61351 
z
" style="fill:#0000ff;"/>
   </g>
   <g id="patch_18">
    <path clip-path="url(#p67f9d71fe6)" d="M 285.876106 156.133795 
Q 282.722038 156.816897 279.329663 157.160008 
Q 275.937288 157.5 272.320623 157.5 
Q 264.148082 157.5 259.374926 155.466288 
Q 254.60177 153.432576 254.60177 149.954679 
Q 254.60177 146.436232 259.459035 144.418116 
Q 264.323308 142.4 272.78322 142.4 
Q 276.042423 142.4 279.028274 142.674489 
Q 282.021134 142.945858 284.670551 143.482359 
L 284.670551 146.492378 
Q 281.937026 145.803037 279.231536 145.463045 
Q 276.526047 145.119934 273.806539 145.119934 
Q 268.774049 145.119934 266.047532 146.373848 
Q 263.321016 147.624644 263.321016 149.954679 
Q 263.321016 152.26288 265.949406 153.523032 
Q 268.577796 154.780066 273.414033 154.780066 
Q 274.731733 154.780066 275.860188 154.708325 
Q 276.988644 154.633464 277.885801 154.477505 
L 277.885801 151.651518 
L 272.734156 151.651518 
L 272.734156 149.134332 
L 285.876106 149.134332 
z
" style="fill:#ffa600;"/>
   </g>
   <g id="patch_19">
    <path clip-path="url(#p67f9d71fe6)" d="M 276.26553 134.14775 
L 264.237923 134.14775 
L 262.338827 142.4 
L 254.60177 142.4 
L 265.651055 97.1 
L 274.826821 97.1 
L 285.876106 142.4 
L 278.145443 142.4 
z
M 266.156202 125.740163 
L 274.328069 125.740163 
L 270.248529 107.721132 
z
" style="fill:#008000;"/>
   </g>
   <g id="patch_20">
    <path clip-path="url(#p67f9d71fe6)" d="M 285.876106 91.688205 
Q 283.260062 94.370709 280.431267 95.727556 
Q 277.602472 97.1 274.521529 97.1 
Q 265.333855 97.1 259.967812 86.93144 
Q 254.60177 76.76288 254.60177 59.373394 
Q 254.60177 41.921524 259.967812 31.76856 
Q 265.333855 21.6 274.521529 21.6 
Q 277.602472 21.6 280.431267 22.972444 
Q 283.260062 24.329291 285.876106 27.011795 
L 285.876106 42.061888 
Q 283.236423 38.506011 280.675536 36.85284 
Q 278.11465 35.199669 275.285855 35.199669 
Q 270.211359 35.199669 267.303768 41.640797 
Q 264.404056 48.066329 264.404056 59.373394 
Q 264.404056 70.633671 267.303768 77.074799 
Q 270.211359 83.500331 275.285855 83.500331 
Q 278.11465 83.500331 280.675536 81.84716 
Q 283.236423 80.178393 285.876106 76.622516 
z
" style="fill:#0000ff;"/>
   </g>
   <g id="patch_21">
    <path clip-path="url(#p67f9d71fe6)" d="M 309.185884 132.743249 
L 297.158277 132.743249 
L 295.259181 157.5 
L 287.522124 157.5 
L 298.571409 21.6 
L 307.747175 21.6 
L 318.79646 157.5 
L 311.065797 157.5 
z
M 299.076556 107.520489 
L 307.248423 107.520489 
L 303.168883 53.463395 
z
" style="fill:#008000;"/>
   </g>
   <g id="patch_22">
    <path clip-path="url(#p67f9d71fe6)" d="M 320.442478 21.6 
L 351.716814 21.6 
L 351.716814 48.104286 
L 340.465326 48.104286 
L 340.465326 157.5 
L 331.715785 157.5 
L 331.715785 48.104286 
L 320.442478 48.104286 
z
" style="fill:#ff0000;"/>
   </g>
   <g id="patch_23">
    <path clip-path="url(#p67f9d71fe6)" d="M 384.637168 145.204152 
Q 381.4831 151.352076 378.090725 154.440074 
Q 374.698349 157.5 371.081685 157.5 
Q 362.909144 157.5 358.135988 139.196592 
Q 353.362832 120.893183 353.362832 89.592109 
Q 353.362832 57.92609 358.220097 39.763045 
Q 363.08437 21.6 371.544282 21.6 
Q 374.803485 21.6 377.789336 24.070399 
Q 380.782196 26.512725 383.431613 31.341231 
L 383.431613 58.431398 
Q 380.698088 52.227329 377.992598 49.167403 
Q 375.287109 46.079405 372.567601 46.079405 
Q 367.535111 46.079405 364.808594 57.364635 
Q 362.082078 68.621793 362.082078 89.592109 
Q 362.082078 110.365916 364.710468 121.707292 
Q 367.338858 133.020595 372.175095 133.020595 
Q 373.492795 133.020595 374.62125 132.374923 
Q 375.749705 131.701177 376.646863 130.297542 
L 376.646863 104.863665 
L 371.495218 104.863665 
L 371.495218 82.208986 
L 384.637168 82.208986 
z
" style="fill:#ffa600;"/>
   </g>
   <g id="patch_24">
    <path clip-path="url(#p67f9d71fe6)" d="M 407.946946 132.743249 
L 395.919339 132.743249 
L 394.020243 157.5 
L 386.283186 157.5 
L 397.332471 21.6 
L 406.508237 21.6 
L 417.557522 157.5 
L 409.826859 157.5 
z
M 397.837618 107.520489 
L 406.009485 107.520489 
L 401.929945 53.463395 
z
" style="fill:#008000;"/>
   </g>
   <g id="patch_25">
    <path clip-path="url(#p67f9d71fe6)" d="M 419.20354 21.6 
L 450.477876 21.6 
L 450.477876 48.104286 
L 439.226388 48.104286 
L 439.226388 157.5 
L 430.476847 157.5 
L 430.476847 48.104286 
L 419.20354 48.104286 
z
" style="fill:#ff0000;"/>
   </g>
   <g id="patch_26">
    <path clip-path="url(#p67f9d71fe6)" d="M 483.39823 145.204152 
Q 480.244162 151.352076 476.851787 154.440074 
Q 473.459411 157.5 469.842747 157.5 
Q 461.670206 157.5 456.89705 139.196592 
Q 452.123894 120.893183 452.123894 89.592109 
Q 452.123894 57.92609 456.981158 39.763045 
Q 461.845432 21.6 470.305343 21.6 
Q 473.564547 21.6 476.550398 24.070399 
Q 479.543258 26.512725 482.192675 31.341231 
L 482.192675 58.431398 
Q 479.45915 52.227329 476.75366 49.167403 
Q 474.048171 46.079405 471.328663 46.079405 
Q 466.296173 46.079405 463.569656 57.364635 
Q 460.84314 68.621793 460.84314 89.592109 
Q 460.84314 110.365916 463.471529 121.707292 
Q 466.099919 133.020595 470.936157 133.020595 
Q 472.253857 133.020595 473.382312 132.374923 
Q 474.510767 131.701177 475.407925 130.297542 
L 475.407925 104.863665 
L 470.25628 104.863665 
L 470.25628 82.208986 
L 483.39823 82.208986 
z
" style="fill:#ffa600;"/>
   </g>
   <g id="patch_27">
    <path clip-path="url(#p67f9d71fe6)" d="M 516.318584 156.417641 
Q 513.70254 156.954142 510.873745 157.225511 
Q 508.04495 157.5 504.964006 157.5 
Q 495.776333 157.5 490.41029 155.466288 
Q 485.044248 153.432576 485.044248 149.954679 
Q 485.044248 146.464305 490.41029 144.433712 
Q 495.776333 142.4 504.964006 142.4 
Q 508.04495 142.4 510.873745 142.674489 
Q 513.70254 142.945858 516.318584 143.482359 
L 516.318584 146.492378 
Q 513.678901 145.781202 511.118014 145.450568 
Q 508.557127 145.119934 505.728333 145.119934 
Q 500.653837 145.119934 497.746246 146.408159 
Q 494.846534 147.693266 494.846534 149.954679 
Q 494.846534 152.206734 497.746246 153.49496 
Q 500.653837 154.780066 505.728333 154.780066 
Q 508.557127 154.780066 511.118014 154.449432 
Q 513.678901 154.115679 516.318584 153.404503 
z
" style="fill:#0000ff;"/>
   </g>
   <g id="patch_28">
    <path clip-path="url(#p67f9d71fe6)" d="M 485.044248 127.3 
L 516.318584 127.3 
L 516.318584 130.244921 
L 505.067096 130.244921 
L 505.067096 142.4 
L 496.317555 142.4 
L 496.317555 130.244921 
L 485.044248 130.244921 
z
" style="fill:#ff0000;"/>
   </g>
   <g id="patch_29">
    <path clip-path="url(#p67f9d71fe6)" d="M 516.318584 117.736563 
Q 513.164516 122.518281 509.772141 124.920058 
Q 506.379765 127.3 502.763101 127.3 
Q 494.59056 127.3 489.817404 113.064016 
Q 485.044248 98.828031 485.044248 74.482751 
Q 485.044248 49.853625 489.901512 35.726813 
Q 494.765786 21.6 503.225697 21.6 
Q 506.484901 21.6 509.470752 23.521421 
Q 512.463612 25.421008 515.113029 29.176513 
L 515.113029 50.246643 
Q 512.379504 45.421256 509.674014 43.041314 
Q 506.968525 40.639537 504.249017 40.639537 
Q 499.216527 40.639537 496.49001 49.416939 
Q 493.763493 58.172506 493.763493 74.482751 
Q 493.763493 90.640157 496.391883 99.461227 
Q 499.020273 108.260463 503.856511 108.260463 
Q 505.174211 108.260463 506.302666 107.758273 
Q 507.431121 107.234249 508.328279 106.142533 
L 508.328279 86.360628 
L 503.176634 86.360628 
L 503.176634 68.740322 
L 516.318584 68.740322 
z
" style="fill:#ffa600;"/>
   </g>
   <g id="patch_30">
    <path clip-path="url(#p67f9d71fe6)" d="M 517.964602 142.4 
L 549.238938 142.4 
L 549.238938 145.344921 
L 537.98745 145.344921 
L 537.98745 157.5 
L 529.237909 157.5 
L 529.237909 145.344921 
L 517.964602 145.344921 
z
" style="fill:#ff0000;"/>
   </g>
   <g id="patch_31">
    <path clip-path="url(#p67f9d71fe6)" d="M 549.238938 140.235282 
Q 546.622894 141.308283 543.794099 141.851023 
Q 540.965304 142.4 537.88436 142.4 
Q 528.696687 142.4 523.330644 138.332576 
Q 517.964602 134.265152 517.964602 127.309358 
Q 517.964602 120.32861 523.330644 116.267424 
Q 528.696687 112.2 537.88436 112.2 
Q 540.965304 112.2 543.794099 112.748977 
Q 546.622894 113.291717 549.238938 114.364718 
L 549.238938 120.384755 
Q 546.599255 118.962404 544.038368 118.301136 
Q 541.477481 117.639868 538.648687 117.639868 
Q 533.574191 117.639868 530.6666 120.216319 
Q 527.766888 122.786532 527.766888 127.309358 
Q 527.766888 131.813468 530.6666 134.389919 
Q 533.574191 136.960132 538.648687 136.960132 
Q 541.477481 136.960132 544.038368 136.298864 
Q 546.599255 135.631357 549.238938 134.209006 
z
" style="fill:#0000ff;"/>
   </g>
   <g id="patch_32">
    <path clip-path="url(#p67f9d71fe6)" d="M 539.628362 103.94775 
L 527.600755 103.94775 
L 525.701659 112.2 
L 517.964602 112.2 
L 529.013887 66.9 
L 538.189653 66.9 
L 549.238938 112.2 
L 541.508275 112.2 
z
M 529.519034 95.540163 
L 537.690901 95.540163 
L 533.611361 77.521132 
z
" style="fill:#008000;"/>
   </g>
   <g id="patch_33">
    <path clip-path="url(#p67f9d71fe6)" d="M 549.238938 62.801384 
Q 546.08487 64.850692 542.692495 65.880025 
Q 539.300119 66.9 535.683455 66.9 
Q 527.510914 66.9 522.737758 60.798864 
Q 517.964602 54.697728 517.964602 44.264036 
Q 517.964602 33.708697 522.821866 27.654348 
Q 527.68614 21.6 536.146051 21.6 
Q 539.405255 21.6 542.391106 22.423466 
Q 545.383966 23.237575 548.033383 24.847077 
L 548.033383 33.877133 
Q 545.299858 31.80911 542.594368 30.789134 
Q 539.888879 29.759802 537.169371 29.759802 
Q 532.136881 29.759802 529.410364 33.521545 
Q 526.683847 37.273931 526.683847 44.264036 
Q 526.683847 51.188639 529.312237 54.969097 
Q 531.940627 58.740198 536.776865 58.740198 
Q 538.094565 58.740198 539.22302 58.524974 
Q 540.351475 58.300392 541.248633 57.832514 
L 541.248633 49.354555 
L 536.096988 49.354555 
L 536.096988 41.802995 
L 549.238938 41.802995 
z
" style="fill:#ffa600;"/>
   </g>
   <g id="patch_34">
    <path clip-path="url(#p67f9d71fe6)" d="M 582.159292 154.252923 
Q 579.543248 155.862425 576.714453 156.676534 
Q 573.885658 157.5 570.804714 157.5 
Q 561.617041 157.5 556.250998 151.398864 
Q 550.884956 145.297728 550.884956 134.864036 
Q 550.884956 124.392915 556.250998 118.301136 
Q 561.617041 112.2 570.804714 112.2 
Q 573.885658 112.2 576.714453 113.023466 
Q 579.543248 113.837575 582.159292 115.447077 
L 582.159292 124.477133 
Q 579.519609 122.343607 576.958722 121.351704 
Q 574.397835 120.359802 571.569041 120.359802 
Q 566.494545 120.359802 563.586954 124.224478 
Q 560.687242 128.079798 560.687242 134.864036 
Q 560.687242 141.620202 563.586954 145.484879 
Q 566.494545 149.340198 571.569041 149.340198 
Q 574.397835 149.340198 576.958722 148.348296 
Q 579.519609 147.347036 582.159292 145.21351 
z
" style="fill:#0000ff;"/>
   </g>
   <g id="patch_35">
    <path clip-path="url(#p67f9d71fe6)" d="M 550.884956 21.6 
L 582.159292 21.6 
L 582.159292 39.269524 
L 570.907804 39.269524 
L 570.907804 112.2 
L 562.158263 112.2 
L 562.158263 39.269524 
L 550.884956 39.269524 
z
" style="fill:#ff0000;"/>
   </g>
   <g id="patch_36">
    <path clip-path="url(#p67f9d71fe6)" d="M 615.079646 154.767589 
Q 611.925578 156.133795 608.533203 156.820017 
Q 605.140827 157.5 601.524163 157.5 
Q 593.351622 157.5 588.578466 153.432576 
Q 583.80531 149.365152 583.80531 142.409358 
Q 583.80531 135.372464 588.662574 131.336232 
Q 593.526848 127.3 601.986759 127.3 
Q 605.245963 127.3 608.231814 127.848977 
Q 611.224674 128.391717 613.874091 129.464718 
L 613.874091 135.484755 
Q 611.140566 134.106073 608.435076 133.42609 
Q 605.729587 132.739868 603.010079 132.739868 
Q 597.977589 132.739868 595.251072 135.247697 
Q 592.524555 137.749287 592.524555 142.409358 
Q 592.524555 147.025759 595.152945 149.546065 
Q 597.781335 152.060132 602.617573 152.060132 
Q 603.935272 152.060132 605.063728 151.916649 
Q 606.192183 151.766928 607.08934 151.455009 
L 607.08934 145.803037 
L 601.937696 145.803037 
L 601.937696 140.768663 
L 615.079646 140.768663 
z
" style="fill:#ffa600;"/>
   </g>
   <g id="patch_37">
    <path clip-path="url(#p67f9d71fe6)" d="M 615.079646 124.052923 
Q 612.463602 125.662425 609.634807 126.476534 
Q 606.806012 127.3 603.725068 127.3 
Q 594.537395 127.3 589.171352 121.198864 
Q 583.80531 115.097728 583.80531 104.664036 
Q 583.80531 94.192915 589.171352 88.101136 
Q 594.537395 82 603.725068 82 
Q 606.806012 82 609.634807 82.823466 
Q 612.463602 83.637575 615.079646 85.247077 
L 615.079646 94.277133 
Q 612.439963 92.143607 609.879076 91.151704 
Q 607.318189 90.159802 604.489395 90.159802 
Q 599.414899 90.159802 596.507308 94.024478 
Q 593.607596 97.879798 593.607596 104.664036 
Q 593.607596 111.420202 596.507308 115.284879 
Q 599.414899 119.140198 604.489395 119.140198 
Q 607.318189 119.140198 609.879076 118.148296 
Q 612.439963 117.147036 615.079646 115.01351 
z
" style="fill:#0000ff;"/>
   </g>
   <g id="patch_38">
    <path clip-path="url(#p67f9d71fe6)" d="M 583.80531 21.6 
L 615.079646 21.6 
L 615.079646 33.379683 
L 603.828158 33.379683 
L 603.828158 82 
L 595.078617 82 
L 595.078617 33.379683 
L 583.80531 33.379683 
z
" style="fill:#ff0000;"/>
   </g>
   <g id="patch_39">
    <path clip-path="url(#p67f9d71fe6)" d="M 638.389424 154.74925 
L 626.361817 154.74925 
L 624.462721 157.5 
L 616.725664 157.5 
L 627.774949 142.4 
L 636.950715 142.4 
L 648 157.5 
L 640.269337 157.5 
z
M 628.280095 151.946721 
L 636.451963 151.946721 
L 632.372423 145.940377 
z
" style="fill:#008000;"/>
   </g>
   <g id="patch_40">
    <path clip-path="url(#p67f9d71fe6)" d="M 648 141.033795 
Q 644.845932 141.716897 641.453557 142.060008 
Q 638.061181 142.4 634.444517 142.4 
Q 626.271976 142.4 621.49882 140.366288 
Q 616.725664 138.332576 616.725664 134.854679 
Q 616.725664 131.336232 621.582928 129.318116 
Q 626.447202 127.3 634.907113 127.3 
Q 638.166317 127.3 641.152168 127.574489 
Q 644.145028 127.845858 646.794445 128.382359 
L 646.794445 131.392378 
Q 644.06092 130.703037 641.35543 130.363045 
Q 638.649941 130.019934 635.930433 130.019934 
Q 630.897943 130.019934 628.171426 131.273848 
Q 625.444909 132.524644 625.444909 134.854679 
Q 625.444909 137.16288 628.073299 138.423032 
Q 630.701689 139.680066 635.537927 139.680066 
Q 636.855626 139.680066 637.984082 139.608325 
Q 639.112537 139.533464 640.009694 139.377505 
L 640.009694 136.551518 
L 634.85805 136.551518 
L 634.85805 134.034332 
L 648 134.034332 
z
" style="fill:#ffa600;"/>
   </g>
   <g id="patch_41">
    <path clip-path="url(#p67f9d71fe6)" d="M 616.725664 97.1 
L 648 97.1 
L 648 102.989841 
L 636.748512 102.989841 
L 636.748512 127.3 
L 627.998971 127.3 
L 627.998971 102.989841 
L 616.725664 102.989841 
z
" style="fill:#ff0000;"/>
   </g>
   <g id="patch_42">
    <path clip-path="url(#p67f9d71fe6)" d="M 648 91.688205 
Q 645.383956 94.370709 642.555161 95.727556 
Q 639.726366 97.1 636.645422 97.1 
Q 627.457749 97.1 622.091706 86.93144 
Q 616.725664 76.76288 616.725664 59.373394 
Q 616.725664 41.921524 622.091706 31.76856 
Q 627.457749 21.6 636.645422 21.6 
Q 639.726366 21.6 642.555161 22.972444 
Q 645.383956 24.329291 648 27.011795 
L 648 42.061888 
Q 645.360317 38.506011 642.79943 36.85284 
Q 640.238543 35.199669 637.409749 35.199669 
Q 632.335253 35.199669 629.427662 41.640797 
Q 626.52795 48.066329 626.52795 59.373394 
Q 626.52795 70.633671 629.427662 77.074799 
Q 632.335253 83.500331 637.409749 83.500331 
Q 640.238543 83.500331 642.79943 81.84716 
Q 645.360317 80.178393 648 76.622516 
z
" style="fill:#0000ff;"/>
   </g>
  </g>
 </g>
 <defs>
  <clipPath id="p67f9d71fe6">
   <rect height="135.9" width="558" x="90" y="21.6"/>
  </clipPath>
 </defs>
</svg>
