<?xml version="1.0" encoding="utf-8" standalone="no"?>
<!DOCTYPE svg PUBLIC "-//W3C//DTD SVG 1.1//EN"
  "http://www.w3.org/Graphics/SVG/1.1/DTD/svg11.dtd">
<!-- Created with matplotlib (https://matplotlib.org/) -->
<svg height="180pt" version="1.1" viewBox="0 0 720 180" width="720pt" xmlns="http://www.w3.org/2000/svg" xmlns:xlink="http://www.w3.org/1999/xlink">
 <metadata>
  <rdf:RDF xmlns:cc="http://creativecommons.org/ns#" xmlns:dc="http://purl.org/dc/elements/1.1/" xmlns:rdf="http://www.w3.org/1999/02/22-rdf-syntax-ns#">
   <cc:Work>
    <dc:type rdf:resource="http://purl.org/dc/dcmitype/StillImage"/>
    <dc:date>2021-08-04T23:33:01.456849</dc:date>
    <dc:format>image/svg+xml</dc:format>
    <dc:creator>
     <cc:Agent>
      <dc:title>Matplotlib v3.3.2, https://matplotlib.org/</dc:title>
     </cc:Agent>
    </dc:creator>
   </cc:Work>
  </rdf:RDF>
 </metadata>
 <defs>
  <style type="text/css">*{stroke-linecap:butt;stroke-linejoin:round;}</style>
 </defs>
 <g id="figure_1">
  <g id="patch_1">
   <path d="M 0 180 
L 720 180 
L 720 0 
L 0 0 
z
" style="fill:none;"/>
  </g>
  <g id="axes_1">
   <g id="line2d_1">
    <path clip-path="url(#p2ed5295943)" d="M 90 157.5 
L 648 157.5 
" style="fill:none;stroke:#000000;stroke-linecap:square;stroke-width:0.5;"/>
   </g>
   <g id="patch_2">
    <path clip-path="url(#p2ed5295943)" d="M 121.274336 156.417641 
Q 118.658292 156.954142 115.829497 157.225511 
Q 113.000702 157.5 109.919759 157.5 
Q 100.732085 157.5 95.366043 155.466288 
Q 90 153.432576 90 149.954679 
Q 90 146.464305 95.366043 144.433712 
Q 100.732085 142.4 109.919759 142.4 
Q 113.000702 142.4 115.829497 142.674489 
Q 118.658292 142.945858 121.274336 143.482359 
L 121.274336 146.492378 
Q 118.634653 145.781202 116.073766 145.450568 
Q 113.51288 145.119934 110.684085 145.119934 
Q 105.609589 145.119934 102.701998 146.408159 
Q 99.802286 147.693266 99.802286 149.954679 
Q 99.802286 152.206734 102.701998 153.49496 
Q 105.609589 154.780066 110.684085 154.780066 
Q 113.51288 154.780066 116.073766 154.449432 
Q 118.634653 154.115679 121.274336 153.404503 
z
" style="fill:#0000ff;"/>
   </g>
   <g id="patch_3">
    <path clip-path="url(#p2ed5295943)" d="M 121.274336 139.667589 
Q 118.120268 141.033795 114.727893 141.720017 
Q 111.335518 142.4 107.718853 142.4 
Q 99.546312 142.4 94.773156 138.332576 
Q 90 134.265152 90 127.309358 
Q 90 120.272464 94.857265 116.236232 
Q 99.721538 112.2 108.18145 112.2 
Q 111.440653 112.2 114.426504 112.748977 
Q 117.419364 113.291717 120.068781 114.364718 
L 120.068781 120.384755 
Q 117.335256 119.006073 114.629766 118.32609 
Q 111.924277 117.639868 109.204769 117.639868 
Q 104.172279 117.639868 101.445762 120.147697 
Q 98.719246 122.649287 98.719246 127.309358 
Q 98.719246 131.925759 101.347636 134.446065 
Q 103.976026 136.960132 108.812263 136.960132 
Q 110.129963 136.960132 111.258418 136.816649 
Q 112.386874 136.666928 113.284031 136.355009 
L 113.284031 130.703037 
L 108.132386 130.703037 
L 108.132386 125.668663 
L 121.274336 125.668663 
z
" style="fill:#ffa600;"/>
   </g>
   <g id="patch_4">
    <path clip-path="url(#p2ed5295943)" d="M 111.66376 98.446249 
L 99.636153 98.446249 
L 97.737057 112.2 
L 90 112.2 
L 101.049285 36.7 
L 110.225051 36.7 
L 121.274336 112.2 
L 113.543673 112.2 
z
M 101.554432 84.433605 
L 109.726299 84.433605 
L 105.64676 54.401886 
z
" style="fill:#008000;"/>
   </g>
   <g id="patch_5">
    <path clip-path="url(#p2ed5295943)" d="M 144.584114 154.74925 
L 132.556507 154.74925 
L 130.657411 157.5 
L 122.920354 157.5 
L 133.969639 142.4 
L 143.145405 142.4 
L 154.19469 157.5 
L 146.464027 157.5 
z
M 134.474786 151.946721 
L 142.646653 151.946721 
L 138.567114 145.940377 
z
" style="fill:#008000;"/>
   </g>
   <g id="patch_6">
    <path clip-path="url(#p2ed5295943)" d="M 154.19469 141.317641 
Q 151.578646 141.854142 148.749851 142.125511 
Q 145.921056 142.4 142.840113 142.4 
Q 133.652439 142.4 128.286397 140.366288 
Q 122.920354 138.332576 122.920354 134.854679 
Q 122.920354 131.364305 128.286397 129.333712 
Q 133.652439 127.3 142.840113 127.3 
Q 145.921056 127.3 148.749851 127.574489 
Q 151.578646 127.845858 154.19469 128.382359 
L 154.19469 131.392378 
Q 151.555007 130.681202 148.99412 130.350568 
Q 146.433234 130.019934 143.604439 130.019934 
Q 138.529943 130.019934 135.622352 131.308159 
Q 132.72264 132.593266 132.72264 134.854679 
Q 132.72264 137.106734 135.622352 138.39496 
Q 138.529943 139.680066 143.604439 139.680066 
Q 146.433234 139.680066 148.99412 139.349432 
Q 151.555007 139.015679 154.19469 138.304503 
z
" style="fill:#0000ff;"/>
   </g>
   <g id="patch_7">
    <path clip-path="url(#p2ed5295943)" d="M 122.920354 97.1 
L 154.19469 97.1 
L 154.19469 102.989841 
L 142.943202 102.989841 
L 142.943202 127.3 
L 134.193661 127.3 
L 134.193661 102.989841 
L 122.920354 102.989841 
z
" style="fill:#ff0000;"/>
   </g>
   <g id="patch_8">
    <path clip-path="url(#p2ed5295943)" d="M 154.19469 91.635179 
Q 151.040622 94.367589 147.648247 95.740033 
Q 144.255872 97.1 140.639207 97.1 
Q 132.466666 97.1 127.69351 88.965152 
Q 122.920354 80.830304 122.920354 66.918715 
Q 122.920354 52.844929 127.777619 44.772464 
Q 132.641892 36.7 141.101804 36.7 
Q 144.361007 36.7 147.346858 37.797955 
Q 150.339718 38.883433 152.989135 41.029436 
L 152.989135 53.06951 
Q 150.25561 50.312146 147.55012 48.952179 
Q 144.844631 47.579736 142.125123 47.579736 
Q 137.092633 47.579736 134.366116 52.595394 
Q 131.6396 57.598575 131.6396 66.918715 
Q 131.6396 76.151518 134.26799 81.19213 
Q 136.89638 86.220264 141.732617 86.220264 
Q 143.050317 86.220264 144.178772 85.933299 
Q 145.307228 85.633857 146.204385 85.010019 
L 146.204385 73.706073 
L 141.05274 73.706073 
L 141.05274 63.637327 
L 154.19469 63.637327 
z
" style="fill:#ffa600;"/>
   </g>
   <g id="patch_9">
    <path clip-path="url(#p2ed5295943)" d="M 187.115044 155.335282 
Q 184.499 156.408283 181.670205 156.951023 
Q 178.84141 157.5 175.760467 157.5 
Q 166.572793 157.5 161.206751 153.432576 
Q 155.840708 149.365152 155.840708 142.409358 
Q 155.840708 135.42861 161.206751 131.367424 
Q 166.572793 127.3 175.760467 127.3 
Q 178.84141 127.3 181.670205 127.848977 
Q 184.499 128.391717 187.115044 129.464718 
L 187.115044 135.484755 
Q 184.475361 134.062404 181.914474 133.401136 
Q 179.353588 132.739868 176.524793 132.739868 
Q 171.450297 132.739868 168.542706 135.316319 
Q 165.642994 137.886532 165.642994 142.409358 
Q 165.642994 146.913468 168.542706 149.489919 
Q 171.450297 152.060132 176.524793 152.060132 
Q 179.353588 152.060132 181.914474 151.398864 
Q 184.475361 150.731357 187.115044 149.309006 
z
" style="fill:#0000ff;"/>
   </g>
   <g id="patch_10">
    <path clip-path="url(#p2ed5295943)" d="M 155.840708 36.7 
L 187.115044 36.7 
L 187.115044 54.369524 
L 175.863556 54.369524 
L 175.863556 127.3 
L 167.114015 127.3 
L 167.114015 54.369524 
L 155.840708 54.369524 
z
" style="fill:#ff0000;"/>
   </g>
   <g id="patch_11">
    <path clip-path="url(#p2ed5295943)" d="M 188.761062 142.4 
L 220.035398 142.4 
L 220.035398 145.344921 
L 208.78391 145.344921 
L 208.78391 157.5 
L 200.034369 157.5 
L 200.034369 145.344921 
L 188.761062 145.344921 
z
" style="fill:#ff0000;"/>
   </g>
   <g id="patch_12">
    <path clip-path="url(#p2ed5295943)" d="M 210.424822 123.144749 
L 198.397215 123.144749 
L 196.498119 142.4 
L 188.761062 142.4 
L 199.810347 36.7 
L 208.986113 36.7 
L 220.035398 142.4 
L 212.304735 142.4 
z
M 200.315494 103.527047 
L 208.487361 103.527047 
L 204.407821 61.48264 
z
" style="fill:#008000;"/>
   </g>
   <g id="patch_13">
    <path clip-path="url(#p2ed5295943)" d="M 252.955752 156.133795 
Q 249.801684 156.816897 246.409309 157.160008 
Q 243.016934 157.5 239.400269 157.5 
Q 231.227728 157.5 226.454572 155.466288 
Q 221.681416 153.432576 221.681416 149.954679 
Q 221.681416 146.436232 226.538681 144.418116 
Q 231.402954 142.4 239.862866 142.4 
Q 243.122069 142.4 246.10792 142.674489 
Q 249.10078 142.945858 251.750197 143.482359 
L 251.750197 146.492378 
Q 249.016672 145.803037 246.311182 145.463045 
Q 243.605693 145.119934 240.886185 145.119934 
Q 235.853695 145.119934 233.127178 146.373848 
Q 230.400662 147.624644 230.400662 149.954679 
Q 230.400662 152.26288 233.029052 153.523032 
Q 235.657442 154.780066 240.493679 154.780066 
Q 241.811379 154.780066 242.939834 154.708325 
Q 244.06829 154.633464 244.965447 154.477505 
L 244.965447 151.651518 
L 239.813802 151.651518 
L 239.813802 149.134332 
L 252.955752 149.134332 
z
" style="fill:#ffa600;"/>
   </g>
   <g id="patch_14">
    <path clip-path="url(#p2ed5295943)" d="M 243.345176 123.144749 
L 231.317569 123.144749 
L 229.418473 142.4 
L 221.681416 142.4 
L 232.730701 36.7 
L 241.906467 36.7 
L 252.955752 142.4 
L 245.225089 142.4 
z
M 233.235848 103.527047 
L 241.407715 103.527047 
L 237.328175 61.48264 
z
" style="fill:#008000;"/>
   </g>
   <g id="patch_15">
    <path clip-path="url(#p2ed5295943)" d="M 285.876106 154.767589 
Q 282.722038 156.133795 279.329663 156.820017 
Q 275.937288 157.5 272.320623 157.5 
Q 264.148082 157.5 259.374926 153.432576 
Q 254.60177 149.365152 254.60177 142.409358 
Q 254.60177 135.372464 259.459035 131.336232 
Q 264.323308 127.3 272.78322 127.3 
Q 276.042423 127.3 279.028274 127.848977 
Q 282.021134 128.391717 284.670551 129.464718 
L 284.670551 135.484755 
Q 281.937026 134.106073 279.231536 133.42609 
Q 276.526047 132.739868 273.806539 132.739868 
Q 268.774049 132.739868 266.047532 135.247697 
Q 263.321016 137.749287 263.321016 142.409358 
Q 263.321016 147.025759 265.949406 149.546065 
Q 268.577796 152.060132 273.414033 152.060132 
Q 274.731733 152.060132 275.860188 151.916649 
Q 276.988644 151.766928 277.885801 151.455009 
L 277.885801 145.803037 
L 272.734156 145.803037 
L 272.734156 140.768663 
L 285.876106 140.768663 
z
" style="fill:#ffa600;"/>
   </g>
   <g id="patch_16">
    <path clip-path="url(#p2ed5295943)" d="M 276.26553 119.04775 
L 264.237923 119.04775 
L 262.338827 127.3 
L 254.60177 127.3 
L 265.651055 82 
L 274.826821 82 
L 285.876106 127.3 
L 278.145443 127.3 
z
M 266.156202 110.640163 
L 274.328069 110.640163 
L 270.248529 92.621132 
z
" style="fill:#008000;"/>
   </g>
   <g id="patch_17">
    <path clip-path="url(#p2ed5295943)" d="M 285.876106 78.752923 
Q 283.260062 80.362425 280.431267 81.176534 
Q 277.602472 82 274.521529 82 
Q 265.333855 82 259.967812 75.898864 
Q 254.60177 69.797728 254.60177 59.364036 
Q 254.60177 48.892915 259.967812 42.801136 
Q 265.333855 36.7 274.521529 36.7 
Q 277.602472 36.7 280.431267 37.523466 
Q 283.260062 38.337575 285.876106 39.947077 
L 285.876106 48.977133 
Q 283.236423 46.843607 280.675536 45.851704 
Q 278.11465 44.859802 275.285855 44.859802 
Q 270.211359 44.859802 267.303768 48.724478 
Q 264.404056 52.579798 264.404056 59.364036 
Q 264.404056 66.120202 267.303768 69.984879 
Q 270.211359 73.840198 275.285855 73.840198 
Q 278.11465 73.840198 280.675536 72.848296 
Q 283.236423 71.847036 285.876106 69.71351 
z
" style="fill:#0000ff;"/>
   </g>
   <g id="patch_18">
    <path clip-path="url(#p2ed5295943)" d="M 318.79646 156.133795 
Q 315.642392 156.816897 312.250017 157.160008 
Q 308.857642 157.5 305.240977 157.5 
Q 297.068436 157.5 292.29528 155.466288 
Q 287.522124 153.432576 287.522124 149.954679 
Q 287.522124 146.436232 292.379389 144.418116 
Q 297.243662 142.4 305.703574 142.4 
Q 308.962777 142.4 311.948628 142.674489 
Q 314.941488 142.945858 317.590905 143.482359 
L 317.590905 146.492378 
Q 314.85738 145.803037 312.15189 145.463045 
Q 309.446401 145.119934 306.726893 145.119934 
Q 301.694403 145.119934 298.967886 146.373848 
Q 296.24137 147.624644 296.24137 149.954679 
Q 296.24137 152.26288 298.86976 153.523032 
Q 301.49815 154.780066 306.334387 154.780066 
Q 307.652087 154.780066 308.780542 154.708325 
Q 309.908998 154.633464 310.806155 154.477505 
L 310.806155 151.651518 
L 305.65451 151.651518 
L 305.65451 149.134332 
L 318.79646 149.134332 
z
" style="fill:#ffa600;"/>
   </g>
   <g id="patch_19">
    <path clip-path="url(#p2ed5295943)" d="M 287.522124 127.3 
L 318.79646 127.3 
L 318.79646 130.244921 
L 307.544972 130.244921 
L 307.544972 142.4 
L 298.795431 142.4 
L 298.795431 130.244921 
L 287.522124 130.244921 
z
" style="fill:#ff0000;"/>
   </g>
   <g id="patch_20">
    <path clip-path="url(#p2ed5295943)" d="M 309.185884 121.7985 
L 297.158277 121.7985 
L 295.259181 127.3 
L 287.522124 127.3 
L 298.571409 97.1 
L 307.747175 97.1 
L 318.79646 127.3 
L 311.065797 127.3 
z
M 299.076556 116.193442 
L 307.248423 116.193442 
L 303.168883 104.180754 
z
" style="fill:#008000;"/>
   </g>
   <g id="patch_21">
    <path clip-path="url(#p2ed5295943)" d="M 318.79646 92.770564 
Q 316.180416 94.916567 313.351621 96.002045 
Q 310.522826 97.1 307.441883 97.1 
Q 298.254209 97.1 292.888166 88.965152 
Q 287.522124 80.830304 287.522124 66.918715 
Q 287.522124 52.95722 292.888166 44.834848 
Q 298.254209 36.7 307.441883 36.7 
Q 310.522826 36.7 313.351621 37.797955 
Q 316.180416 38.883433 318.79646 41.029436 
L 318.79646 53.06951 
Q 316.156777 50.224809 313.59589 48.902272 
Q 311.035004 47.579736 308.206209 47.579736 
Q 303.131713 47.579736 300.224122 52.732638 
Q 297.32441 57.873063 297.32441 66.918715 
Q 297.32441 75.926937 300.224122 81.079839 
Q 303.131713 86.220264 308.206209 86.220264 
Q 311.035004 86.220264 313.59589 84.897728 
Q 316.156777 83.562714 318.79646 80.718013 
z
" style="fill:#0000ff;"/>
   </g>
   <g id="patch_22">
    <path clip-path="url(#p2ed5295943)" d="M 351.716814 154.767589 
Q 348.562746 156.133795 345.170371 156.820017 
Q 341.777996 157.5 338.161331 157.5 
Q 329.98879 157.5 325.215634 153.432576 
Q 320.442478 149.365152 320.442478 142.409358 
Q 320.442478 135.372464 325.299743 131.336232 
Q 330.164016 127.3 338.623928 127.3 
Q 341.883131 127.3 344.868982 127.848977 
Q 347.861842 128.391717 350.511259 129.464718 
L 350.511259 135.484755 
Q 347.777734 134.106073 345.072244 133.42609 
Q 342.366755 132.739868 339.647247 132.739868 
Q 334.614757 132.739868 331.88824 135.247697 
Q 329.161724 137.749287 329.161724 142.409358 
Q 329.161724 147.025759 331.790114 149.546065 
Q 334.418504 152.060132 339.254741 152.060132 
Q 340.572441 152.060132 341.700896 151.916649 
Q 342.829351 151.766928 343.726509 151.455009 
L 343.726509 145.803037 
L 338.574864 145.803037 
L 338.574864 140.768663 
L 351.716814 140.768663 
z
" style="fill:#ffa600;"/>
   </g>
   <g id="patch_23">
    <path clip-path="url(#p2ed5295943)" d="M 342.106238 108.044749 
L 330.078631 108.044749 
L 328.179535 127.3 
L 320.442478 127.3 
L 331.491763 21.6 
L 340.667529 21.6 
L 351.716814 127.3 
L 343.986151 127.3 
z
M 331.99691 88.427047 
L 340.168777 88.427047 
L 336.089237 46.38264 
z
" style="fill:#008000;"/>
   </g>
   <g id="patch_24">
    <path clip-path="url(#p2ed5295943)" d="M 353.362832 21.6 
L 384.637168 21.6 
L 384.637168 48.104286 
L 373.38568 48.104286 
L 373.38568 157.5 
L 364.636139 157.5 
L 364.636139 48.104286 
L 353.362832 48.104286 
z
" style="fill:#ff0000;"/>
   </g>
   <g id="patch_25">
    <path clip-path="url(#p2ed5295943)" d="M 417.557522 155.335282 
Q 414.941478 156.408283 412.112683 156.951023 
Q 409.283888 157.5 406.202945 157.5 
Q 397.015271 157.5 391.649228 153.432576 
Q 386.283186 149.365152 386.283186 142.409358 
Q 386.283186 135.42861 391.649228 131.367424 
Q 397.015271 127.3 406.202945 127.3 
Q 409.283888 127.3 412.112683 127.848977 
Q 414.941478 128.391717 417.557522 129.464718 
L 417.557522 135.484755 
Q 414.917839 134.062404 412.356952 133.401136 
Q 409.796066 132.739868 406.967271 132.739868 
Q 401.892775 132.739868 398.985184 135.316319 
Q 396.085472 137.886532 396.085472 142.409358 
Q 396.085472 146.913468 398.985184 149.489919 
Q 401.892775 152.060132 406.967271 152.060132 
Q 409.796066 152.060132 412.356952 151.398864 
Q 414.917839 150.731357 417.557522 149.309006 
z
" style="fill:#0000ff;"/>
   </g>
   <g id="patch_26">
    <path clip-path="url(#p2ed5295943)" d="M 417.557522 117.736563 
Q 414.403454 122.518281 411.011079 124.920058 
Q 407.618703 127.3 404.002039 127.3 
Q 395.829498 127.3 391.056342 113.064016 
Q 386.283186 98.828031 386.283186 74.482751 
Q 386.283186 49.853625 391.140451 35.726813 
Q 396.004724 21.6 404.464635 21.6 
Q 407.723839 21.6 410.70969 23.521421 
Q 413.70255 25.421008 416.351967 29.176513 
L 416.351967 50.246643 
Q 413.618442 45.421256 410.912952 43.041314 
Q 408.207463 40.639537 405.487955 40.639537 
Q 400.455465 40.639537 397.728948 49.416939 
Q 395.002432 58.172506 395.002432 74.482751 
Q 395.002432 90.640157 397.630822 99.461227 
Q 400.259212 108.260463 405.095449 108.260463 
Q 406.413149 108.260463 407.541604 107.758273 
Q 408.670059 107.234249 409.567217 106.142533 
L 409.567217 86.360628 
L 404.415572 86.360628 
L 404.415572 68.740322 
L 417.557522 68.740322 
z
" style="fill:#ffa600;"/>
   </g>
   <g id="patch_27">
    <path clip-path="url(#p2ed5295943)" d="M 440.8673 151.9985 
L 428.839693 151.9985 
L 426.940597 157.5 
L 419.20354 157.5 
L 430.252825 127.3 
L 439.428591 127.3 
L 450.477876 157.5 
L 442.747213 157.5 
z
M 430.757972 146.393442 
L 438.929839 146.393442 
L 434.850299 134.380754 
z
" style="fill:#008000;"/>
   </g>
   <g id="patch_28">
    <path clip-path="url(#p2ed5295943)" d="M 450.477876 117.736563 
Q 447.323808 122.518281 443.931433 124.920058 
Q 440.539057 127.3 436.922393 127.3 
Q 428.749852 127.3 423.976696 113.064016 
Q 419.20354 98.828031 419.20354 74.482751 
Q 419.20354 49.853625 424.060805 35.726813 
Q 428.925078 21.6 437.384989 21.6 
Q 440.644193 21.6 443.630044 23.521421 
Q 446.622904 25.421008 449.272321 29.176513 
L 449.272321 50.246643 
Q 446.538796 45.421256 443.833306 43.041314 
Q 441.127817 40.639537 438.408309 40.639537 
Q 433.375819 40.639537 430.649302 49.416939 
Q 427.922786 58.172506 427.922786 74.482751 
Q 427.922786 90.640157 430.551176 99.461227 
Q 433.179565 108.260463 438.015803 108.260463 
Q 439.333503 108.260463 440.461958 107.758273 
Q 441.590413 107.234249 442.487571 106.142533 
L 442.487571 86.360628 
L 437.335926 86.360628 
L 437.335926 68.740322 
L 450.477876 68.740322 
z
" style="fill:#ffa600;"/>
   </g>
   <g id="patch_29">
    <path clip-path="url(#p2ed5295943)" d="M 452.123894 142.4 
L 483.39823 142.4 
L 483.39823 145.344921 
L 472.146742 145.344921 
L 472.146742 157.5 
L 463.397201 157.5 
L 463.397201 145.344921 
L 452.123894 145.344921 
z
" style="fill:#ff0000;"/>
   </g>
   <g id="patch_30">
    <path clip-path="url(#p2ed5295943)" d="M 483.39823 133.741128 
Q 480.782186 138.033134 477.953391 140.20409 
Q 475.124596 142.4 472.043652 142.4 
Q 462.855979 142.4 457.489936 126.130304 
Q 452.123894 109.860607 452.123894 82.03743 
Q 452.123894 54.114439 457.489936 37.869696 
Q 462.855979 21.6 472.043652 21.6 
Q 475.124596 21.6 477.953391 23.79591 
Q 480.782186 25.966866 483.39823 30.258872 
L 483.39823 54.339021 
Q 480.758547 48.649618 478.19766 46.004545 
Q 475.636773 43.359471 472.807979 43.359471 
Q 467.733483 43.359471 464.825892 53.665276 
Q 461.92618 63.946127 461.92618 82.03743 
Q 461.92618 100.053873 464.825892 110.359678 
Q 467.733483 120.640529 472.807979 120.640529 
Q 475.636773 120.640529 478.19766 117.995455 
Q 480.758547 115.325429 483.39823 109.636026 
z
" style="fill:#0000ff;"/>
   </g>
   <g id="patch_31">
    <path clip-path="url(#p2ed5295943)" d="M 485.044248 112.2 
L 516.318584 112.2 
L 516.318584 121.034762 
L 505.067096 121.034762 
L 505.067096 157.5 
L 496.317555 157.5 
L 496.317555 121.034762 
L 485.044248 121.034762 
z
" style="fill:#ff0000;"/>
   </g>
   <g id="patch_32">
    <path clip-path="url(#p2ed5295943)" d="M 516.318584 104.002768 
Q 513.164516 108.101384 509.772141 110.16005 
Q 506.379765 112.2 502.763101 112.2 
Q 494.59056 112.2 489.817404 99.997728 
Q 485.044248 87.795455 485.044248 66.928073 
Q 485.044248 45.817393 489.901512 33.708697 
Q 494.765786 21.6 503.225697 21.6 
Q 506.484901 21.6 509.470752 23.246932 
Q 512.463612 24.87515 515.113029 28.094154 
L 515.113029 46.154266 
Q 512.379504 42.018219 509.674014 39.978269 
Q 506.968525 37.919603 504.249017 37.919603 
Q 499.216527 37.919603 496.49001 45.44309 
Q 493.763493 52.947862 493.763493 66.928073 
Q 493.763493 80.777277 496.391883 88.338195 
Q 499.020273 95.880397 503.856511 95.880397 
Q 505.174211 95.880397 506.302666 95.449948 
Q 507.431121 95.000785 508.328279 94.065028 
L 508.328279 77.10911 
L 503.176634 77.10911 
L 503.176634 62.00599 
L 516.318584 62.00599 
z
" style="fill:#ffa600;"/>
   </g>
   <g id="patch_33">
    <path clip-path="url(#p2ed5295943)" d="M 539.628362 154.74925 
L 527.600755 154.74925 
L 525.701659 157.5 
L 517.964602 157.5 
L 529.013887 142.4 
L 538.189653 142.4 
L 549.238938 157.5 
L 541.508275 157.5 
z
M 529.519034 151.946721 
L 537.690901 151.946721 
L 533.611361 145.940377 
z
" style="fill:#008000;"/>
   </g>
   <g id="patch_34">
    <path clip-path="url(#p2ed5295943)" d="M 549.238938 138.070564 
Q 546.622894 140.216567 543.794099 141.302045 
Q 540.965304 142.4 537.88436 142.4 
Q 528.696687 142.4 523.330644 134.265152 
Q 517.964602 126.130304 517.964602 112.218715 
Q 517.964602 98.25722 523.330644 90.134848 
Q 528.696687 82 537.88436 82 
Q 540.965304 82 543.794099 83.097955 
Q 546.622894 84.183433 549.238938 86.329436 
L 549.238938 98.36951 
Q 546.599255 95.524809 544.038368 94.202272 
Q 541.477481 92.879736 538.648687 92.879736 
Q 533.574191 92.879736 530.6666 98.032638 
Q 527.766888 103.173063 527.766888 112.218715 
Q 527.766888 121.226937 530.6666 126.379839 
Q 533.574191 131.520264 538.648687 131.520264 
Q 541.477481 131.520264 544.038368 130.197728 
Q 546.599255 128.862714 549.238938 126.018013 
z
" style="fill:#0000ff;"/>
   </g>
   <g id="patch_35">
    <path clip-path="url(#p2ed5295943)" d="M 549.238938 76.535179 
Q 546.08487 79.267589 542.692495 80.640033 
Q 539.300119 82 535.683455 82 
Q 527.510914 82 522.737758 73.865152 
Q 517.964602 65.730304 517.964602 51.818715 
Q 517.964602 37.744929 522.821866 29.672464 
Q 527.68614 21.6 536.146051 21.6 
Q 539.405255 21.6 542.391106 22.697955 
Q 545.383966 23.783433 548.033383 25.929436 
L 548.033383 37.96951 
Q 545.299858 35.212146 542.594368 33.852179 
Q 539.888879 32.479736 537.169371 32.479736 
Q 532.136881 32.479736 529.410364 37.495394 
Q 526.683847 42.498575 526.683847 51.818715 
Q 526.683847 61.051518 529.312237 66.09213 
Q 531.940627 71.120264 536.776865 71.120264 
Q 538.094565 71.120264 539.22302 70.833299 
Q 540.351475 70.533857 541.248633 69.910019 
L 541.248633 58.606073 
L 536.096988 58.606073 
L 536.096988 48.537327 
L 549.238938 48.537327 
z
" style="fill:#ffa600;"/>
   </g>
   <g id="patch_36">
    <path clip-path="url(#p2ed5295943)" d="M 572.548716 154.74925 
L 560.521109 154.74925 
L 558.622013 157.5 
L 550.884956 157.5 
L 561.934241 142.4 
L 571.110007 142.4 
L 582.159292 157.5 
L 574.428629 157.5 
z
M 562.439387 151.946721 
L 570.611255 151.946721 
L 566.531715 145.940377 
z
" style="fill:#008000;"/>
   </g>
   <g id="patch_37">
    <path clip-path="url(#p2ed5295943)" d="M 582.159292 139.152923 
Q 579.543248 140.762425 576.714453 141.576534 
Q 573.885658 142.4 570.804714 142.4 
Q 561.617041 142.4 556.250998 136.298864 
Q 550.884956 130.197728 550.884956 119.764036 
Q 550.884956 109.292915 556.250998 103.201136 
Q 561.617041 97.1 570.804714 97.1 
Q 573.885658 97.1 576.714453 97.923466 
Q 579.543248 98.737575 582.159292 100.347077 
L 582.159292 109.377133 
Q 579.519609 107.243607 576.958722 106.251704 
Q 574.397835 105.259802 571.569041 105.259802 
Q 566.494545 105.259802 563.586954 109.124478 
Q 560.687242 112.979798 560.687242 119.764036 
Q 560.687242 126.520202 563.586954 130.384879 
Q 566.494545 134.240198 571.569041 134.240198 
Q 574.397835 134.240198 576.958722 133.248296 
Q 579.519609 132.247036 582.159292 130.11351 
z
" style="fill:#0000ff;"/>
   </g>
   <g id="patch_38">
    <path clip-path="url(#p2ed5295943)" d="M 582.159292 90.268973 
Q 579.005224 93.684487 575.612849 95.400041 
Q 572.220473 97.1 568.603809 97.1 
Q 560.431268 97.1 555.658112 86.93144 
Q 550.884956 76.76288 550.884956 59.373394 
Q 550.884956 41.781161 555.74222 31.69058 
Q 560.606494 21.6 569.066405 21.6 
Q 572.325609 21.6 575.31146 22.972444 
Q 578.30432 24.329291 580.953737 27.011795 
L 580.953737 42.061888 
Q 578.220212 38.615183 575.514722 36.915224 
Q 572.809233 35.199669 570.089725 35.199669 
Q 565.057235 35.199669 562.330718 41.469242 
Q 559.604201 47.723218 559.604201 59.373394 
Q 559.604201 70.914398 562.232591 77.215162 
Q 564.860981 83.500331 569.697219 83.500331 
Q 571.014919 83.500331 572.143374 83.141624 
Q 573.271829 82.767321 574.168986 81.987523 
L 574.168986 67.857591 
L 569.017342 67.857591 
L 569.017342 55.271659 
L 582.159292 55.271659 
z
" style="fill:#ffa600;"/>
   </g>
   <g id="patch_39">
    <path clip-path="url(#p2ed5295943)" d="M 605.46907 154.74925 
L 593.441463 154.74925 
L 591.542367 157.5 
L 583.80531 157.5 
L 594.854595 142.4 
L 604.030361 142.4 
L 615.079646 157.5 
L 607.348983 157.5 
z
M 595.359741 151.946721 
L 603.531609 151.946721 
L 599.452069 145.940377 
z
" style="fill:#008000;"/>
   </g>
   <g id="patch_40">
    <path clip-path="url(#p2ed5295943)" d="M 615.079646 141.033795 
Q 611.925578 141.716897 608.533203 142.060008 
Q 605.140827 142.4 601.524163 142.4 
Q 593.351622 142.4 588.578466 140.366288 
Q 583.80531 138.332576 583.80531 134.854679 
Q 583.80531 131.336232 588.662574 129.318116 
Q 593.526848 127.3 601.986759 127.3 
Q 605.245963 127.3 608.231814 127.574489 
Q 611.224674 127.845858 613.874091 128.382359 
L 613.874091 131.392378 
Q 611.140566 130.703037 608.435076 130.363045 
Q 605.729587 130.019934 603.010079 130.019934 
Q 597.977589 130.019934 595.251072 131.273848 
Q 592.524555 132.524644 592.524555 134.854679 
Q 592.524555 137.16288 595.152945 138.423032 
Q 597.781335 139.680066 602.617573 139.680066 
Q 603.935272 139.680066 605.063728 139.608325 
Q 606.192183 139.533464 607.08934 139.377505 
L 607.08934 136.551518 
L 601.937696 136.551518 
L 601.937696 134.034332 
L 615.079646 134.034332 
z
" style="fill:#ffa600;"/>
   </g>
   <g id="patch_41">
    <path clip-path="url(#p2ed5295943)" d="M 615.079646 125.135282 
Q 612.463602 126.208283 609.634807 126.751023 
Q 606.806012 127.3 603.725068 127.3 
Q 594.537395 127.3 589.171352 123.232576 
Q 583.80531 119.165152 583.80531 112.209358 
Q 583.80531 105.22861 589.171352 101.167424 
Q 594.537395 97.1 603.725068 97.1 
Q 606.806012 97.1 609.634807 97.648977 
Q 612.463602 98.191717 615.079646 99.264718 
L 615.079646 105.284755 
Q 612.439963 103.862404 609.879076 103.201136 
Q 607.318189 102.539868 604.489395 102.539868 
Q 599.414899 102.539868 596.507308 105.116319 
Q 593.607596 107.686532 593.607596 112.209358 
Q 593.607596 116.713468 596.507308 119.289919 
Q 599.414899 121.860132 604.489395 121.860132 
Q 607.318189 121.860132 609.879076 121.198864 
Q 612.439963 120.531357 615.079646 119.109006 
z
" style="fill:#0000ff;"/>
   </g>
   <g id="patch_42">
    <path clip-path="url(#p2ed5295943)" d="M 583.80531 21.6 
L 615.079646 21.6 
L 615.079646 36.324604 
L 603.828158 36.324604 
L 603.828158 97.1 
L 595.078617 97.1 
L 595.078617 36.324604 
L 583.80531 36.324604 
z
" style="fill:#ff0000;"/>
   </g>
   <g id="patch_43">
    <path clip-path="url(#p2ed5295943)" d="M 648 154.767589 
Q 644.845932 156.133795 641.453557 156.820017 
Q 638.061181 157.5 634.444517 157.5 
Q 626.271976 157.5 621.49882 153.432576 
Q 616.725664 149.365152 616.725664 142.409358 
Q 616.725664 135.372464 621.582928 131.336232 
Q 626.447202 127.3 634.907113 127.3 
Q 638.166317 127.3 641.152168 127.848977 
Q 644.145028 128.391717 646.794445 129.464718 
L 646.794445 135.484755 
Q 644.06092 134.106073 641.35543 133.42609 
Q 638.649941 132.739868 635.930433 132.739868 
Q 630.897943 132.739868 628.171426 135.247697 
Q 625.444909 137.749287 625.444909 142.409358 
Q 625.444909 147.025759 628.073299 149.546065 
Q 630.701689 152.060132 635.537927 152.060132 
Q 636.855626 152.060132 637.984082 151.916649 
Q 639.112537 151.766928 640.009694 151.455009 
L 640.009694 145.803037 
L 634.85805 145.803037 
L 634.85805 140.768663 
L 648 140.768663 
z
" style="fill:#ffa600;"/>
   </g>
   <g id="patch_44">
    <path clip-path="url(#p2ed5295943)" d="M 616.725664 82 
L 648 82 
L 648 90.834762 
L 636.748512 90.834762 
L 636.748512 127.3 
L 627.998971 127.3 
L 627.998971 90.834762 
L 616.725664 90.834762 
z
" style="fill:#ff0000;"/>
   </g>
   <g id="patch_45">
    <path clip-path="url(#p2ed5295943)" d="M 648 77.670564 
Q 645.383956 79.816567 642.555161 80.902045 
Q 639.726366 82 636.645422 82 
Q 627.457749 82 622.091706 73.865152 
Q 616.725664 65.730304 616.725664 51.818715 
Q 616.725664 37.85722 622.091706 29.734848 
Q 627.457749 21.6 636.645422 21.6 
Q 639.726366 21.6 642.555161 22.697955 
Q 645.383956 23.783433 648 25.929436 
L 648 37.96951 
Q 645.360317 35.124809 642.79943 33.802272 
Q 640.238543 32.479736 637.409749 32.479736 
Q 632.335253 32.479736 629.427662 37.632638 
Q 626.52795 42.773063 626.52795 51.818715 
Q 626.52795 60.826937 629.427662 65.979839 
Q 632.335253 71.120264 637.409749 71.120264 
Q 640.238543 71.120264 642.79943 69.797728 
Q 645.360317 68.462714 648 65.618013 
z
" style="fill:#0000ff;"/>
   </g>
  </g>
 </g>
 <defs>
  <clipPath id="p2ed5295943">
   <rect height="135.9" width="558" x="90" y="21.6"/>
  </clipPath>
 </defs>
</svg>
