<?xml version="1.0" encoding="utf-8" standalone="no"?>
<!DOCTYPE svg PUBLIC "-//W3C//DTD SVG 1.1//EN"
  "http://www.w3.org/Graphics/SVG/1.1/DTD/svg11.dtd">
<!-- Created with matplotlib (https://matplotlib.org/) -->
<svg height="180pt" version="1.1" viewBox="0 0 720 180" width="720pt" xmlns="http://www.w3.org/2000/svg" xmlns:xlink="http://www.w3.org/1999/xlink">
 <metadata>
  <rdf:RDF xmlns:cc="http://creativecommons.org/ns#" xmlns:dc="http://purl.org/dc/elements/1.1/" xmlns:rdf="http://www.w3.org/1999/02/22-rdf-syntax-ns#">
   <cc:Work>
    <dc:type rdf:resource="http://purl.org/dc/dcmitype/StillImage"/>
    <dc:date>2021-08-04T23:33:40.532630</dc:date>
    <dc:format>image/svg+xml</dc:format>
    <dc:creator>
     <cc:Agent>
      <dc:title>Matplotlib v3.3.2, https://matplotlib.org/</dc:title>
     </cc:Agent>
    </dc:creator>
   </cc:Work>
  </rdf:RDF>
 </metadata>
 <defs>
  <style type="text/css">*{stroke-linecap:butt;stroke-linejoin:round;}</style>
 </defs>
 <g id="figure_1">
  <g id="patch_1">
   <path d="M 0 180 
L 720 180 
L 720 0 
L 0 0 
z
" style="fill:none;"/>
  </g>
  <g id="axes_1">
   <g id="line2d_1">
    <path clip-path="url(#pb2dfa477dd)" d="M 90 157.5 
L 648 157.5 
" style="fill:none;stroke:#000000;stroke-linecap:square;stroke-width:0.5;"/>
   </g>
   <g id="patch_2">
    <path clip-path="url(#pb2dfa477dd)" d="M 111.66376 151.9985 
L 99.636153 151.9985 
L 97.737057 157.5 
L 90 157.5 
L 101.049285 127.3 
L 110.225051 127.3 
L 121.274336 157.5 
L 113.543673 157.5 
z
M 101.554432 146.393442 
L 109.726299 146.393442 
L 105.64676 134.380754 
z
" style="fill:#008000;"/>
   </g>
   <g id="patch_3">
    <path clip-path="url(#pb2dfa477dd)" d="M 154.19469 156.133795 
Q 151.040622 156.816897 147.648247 157.160008 
Q 144.255872 157.5 140.639207 157.5 
Q 132.466666 157.5 127.69351 155.466288 
Q 122.920354 153.432576 122.920354 149.954679 
Q 122.920354 146.436232 127.777619 144.418116 
Q 132.641892 142.4 141.101804 142.4 
Q 144.361007 142.4 147.346858 142.674489 
Q 150.339718 142.945858 152.989135 143.482359 
L 152.989135 146.492378 
Q 150.25561 145.803037 147.55012 145.463045 
Q 144.844631 145.119934 142.125123 145.119934 
Q 137.092633 145.119934 134.366116 146.373848 
Q 131.6396 147.624644 131.6396 149.954679 
Q 131.6396 152.26288 134.26799 153.523032 
Q 136.89638 154.780066 141.732617 154.780066 
Q 143.050317 154.780066 144.178772 154.708325 
Q 145.307228 154.633464 146.204385 154.477505 
L 146.204385 151.651518 
L 141.05274 151.651518 
L 141.05274 149.134332 
L 154.19469 149.134332 
z
" style="fill:#ffa600;"/>
   </g>
   <g id="patch_4">
    <path clip-path="url(#pb2dfa477dd)" d="M 122.920354 127.3 
L 154.19469 127.3 
L 154.19469 130.244921 
L 142.943202 130.244921 
L 142.943202 142.4 
L 134.193661 142.4 
L 134.193661 130.244921 
L 122.920354 130.244921 
z
" style="fill:#ff0000;"/>
   </g>
   <g id="patch_5">
    <path clip-path="url(#pb2dfa477dd)" d="M 187.115044 156.133795 
Q 183.960976 156.816897 180.568601 157.160008 
Q 177.176226 157.5 173.559561 157.5 
Q 165.38702 157.5 160.613864 155.466288 
Q 155.840708 153.432576 155.840708 149.954679 
Q 155.840708 146.436232 160.697973 144.418116 
Q 165.562246 142.4 174.022158 142.4 
Q 177.281361 142.4 180.267212 142.674489 
Q 183.260072 142.945858 185.909489 143.482359 
L 185.909489 146.492378 
Q 183.175964 145.803037 180.470474 145.463045 
Q 177.764985 145.119934 175.045477 145.119934 
Q 170.012987 145.119934 167.28647 146.373848 
Q 164.559954 147.624644 164.559954 149.954679 
Q 164.559954 152.26288 167.188344 153.523032 
Q 169.816734 154.780066 174.652971 154.780066 
Q 175.970671 154.780066 177.099126 154.708325 
Q 178.227582 154.633464 179.124739 154.477505 
L 179.124739 151.651518 
L 173.973094 151.651518 
L 173.973094 149.134332 
L 187.115044 149.134332 
z
" style="fill:#ffa600;"/>
   </g>
   <g id="patch_6">
    <path clip-path="url(#pb2dfa477dd)" d="M 155.840708 127.3 
L 187.115044 127.3 
L 187.115044 130.244921 
L 175.863556 130.244921 
L 175.863556 142.4 
L 167.114015 142.4 
L 167.114015 130.244921 
L 155.840708 130.244921 
z
" style="fill:#ff0000;"/>
   </g>
   <g id="patch_7">
    <path clip-path="url(#pb2dfa477dd)" d="M 210.424822 154.74925 
L 198.397215 154.74925 
L 196.498119 157.5 
L 188.761062 157.5 
L 199.810347 142.4 
L 208.986113 142.4 
L 220.035398 157.5 
L 212.304735 157.5 
z
M 200.315494 151.946721 
L 208.487361 151.946721 
L 204.407821 145.940377 
z
" style="fill:#008000;"/>
   </g>
   <g id="patch_8">
    <path clip-path="url(#pb2dfa477dd)" d="M 220.035398 141.317641 
Q 217.419354 141.854142 214.590559 142.125511 
Q 211.761764 142.4 208.680821 142.4 
Q 199.493147 142.4 194.127105 140.366288 
Q 188.761062 138.332576 188.761062 134.854679 
Q 188.761062 131.364305 194.127105 129.333712 
Q 199.493147 127.3 208.680821 127.3 
Q 211.761764 127.3 214.590559 127.574489 
Q 217.419354 127.845858 220.035398 128.382359 
L 220.035398 131.392378 
Q 217.395715 130.681202 214.834828 130.350568 
Q 212.273942 130.019934 209.445147 130.019934 
Q 204.370651 130.019934 201.46306 131.308159 
Q 198.563348 132.593266 198.563348 134.854679 
Q 198.563348 137.106734 201.46306 138.39496 
Q 204.370651 139.680066 209.445147 139.680066 
Q 212.273942 139.680066 214.834828 139.349432 
Q 217.395715 139.015679 220.035398 138.304503 
z
" style="fill:#0000ff;"/>
   </g>
   <g id="patch_9">
    <path clip-path="url(#pb2dfa477dd)" d="M 252.955752 154.767589 
Q 249.801684 156.133795 246.409309 156.820017 
Q 243.016934 157.5 239.400269 157.5 
Q 231.227728 157.5 226.454572 153.432576 
Q 221.681416 149.365152 221.681416 142.409358 
Q 221.681416 135.372464 226.538681 131.336232 
Q 231.402954 127.3 239.862866 127.3 
Q 243.122069 127.3 246.10792 127.848977 
Q 249.10078 128.391717 251.750197 129.464718 
L 251.750197 135.484755 
Q 249.016672 134.106073 246.311182 133.42609 
Q 243.605693 132.739868 240.886185 132.739868 
Q 235.853695 132.739868 233.127178 135.247697 
Q 230.400662 137.749287 230.400662 142.409358 
Q 230.400662 147.025759 233.029052 149.546065 
Q 235.657442 152.060132 240.493679 152.060132 
Q 241.811379 152.060132 242.939834 151.916649 
Q 244.06829 151.766928 244.965447 151.455009 
L 244.965447 145.803037 
L 239.813802 145.803037 
L 239.813802 140.768663 
L 252.955752 140.768663 
z
" style="fill:#ffa600;"/>
   </g>
   <g id="patch_10">
    <path clip-path="url(#pb2dfa477dd)" d="M 285.876106 156.417641 
Q 283.260062 156.954142 280.431267 157.225511 
Q 277.602472 157.5 274.521529 157.5 
Q 265.333855 157.5 259.967812 155.466288 
Q 254.60177 153.432576 254.60177 149.954679 
Q 254.60177 146.464305 259.967812 144.433712 
Q 265.333855 142.4 274.521529 142.4 
Q 277.602472 142.4 280.431267 142.674489 
Q 283.260062 142.945858 285.876106 143.482359 
L 285.876106 146.492378 
Q 283.236423 145.781202 280.675536 145.450568 
Q 278.11465 145.119934 275.285855 145.119934 
Q 270.211359 145.119934 267.303768 146.408159 
Q 264.404056 147.693266 264.404056 149.954679 
Q 264.404056 152.206734 267.303768 153.49496 
Q 270.211359 154.780066 275.285855 154.780066 
Q 278.11465 154.780066 280.675536 154.449432 
Q 283.236423 154.115679 285.876106 153.404503 
z
" style="fill:#0000ff;"/>
   </g>
   <g id="patch_11">
    <path clip-path="url(#pb2dfa477dd)" d="M 254.60177 127.3 
L 285.876106 127.3 
L 285.876106 130.244921 
L 274.624618 130.244921 
L 274.624618 142.4 
L 265.875077 142.4 
L 265.875077 130.244921 
L 254.60177 130.244921 
z
" style="fill:#ff0000;"/>
   </g>
   <g id="patch_12">
    <path clip-path="url(#pb2dfa477dd)" d="M 318.79646 154.767589 
Q 315.642392 156.133795 312.250017 156.820017 
Q 308.857642 157.5 305.240977 157.5 
Q 297.068436 157.5 292.29528 153.432576 
Q 287.522124 149.365152 287.522124 142.409358 
Q 287.522124 135.372464 292.379389 131.336232 
Q 297.243662 127.3 305.703574 127.3 
Q 308.962777 127.3 311.948628 127.848977 
Q 314.941488 128.391717 317.590905 129.464718 
L 317.590905 135.484755 
Q 314.85738 134.106073 312.15189 133.42609 
Q 309.446401 132.739868 306.726893 132.739868 
Q 301.694403 132.739868 298.967886 135.247697 
Q 296.24137 137.749287 296.24137 142.409358 
Q 296.24137 147.025759 298.86976 149.546065 
Q 301.49815 152.060132 306.334387 152.060132 
Q 307.652087 152.060132 308.780542 151.916649 
Q 309.908998 151.766928 310.806155 151.455009 
L 310.806155 145.803037 
L 305.65451 145.803037 
L 305.65451 140.768663 
L 318.79646 140.768663 
z
" style="fill:#ffa600;"/>
   </g>
   <g id="patch_13">
    <path clip-path="url(#pb2dfa477dd)" d="M 351.716814 155.335282 
Q 349.10077 156.408283 346.271975 156.951023 
Q 343.44318 157.5 340.362237 157.5 
Q 331.174563 157.5 325.80852 153.432576 
Q 320.442478 149.365152 320.442478 142.409358 
Q 320.442478 135.42861 325.80852 131.367424 
Q 331.174563 127.3 340.362237 127.3 
Q 343.44318 127.3 346.271975 127.848977 
Q 349.10077 128.391717 351.716814 129.464718 
L 351.716814 135.484755 
Q 349.077131 134.062404 346.516244 133.401136 
Q 343.955358 132.739868 341.126563 132.739868 
Q 336.052067 132.739868 333.144476 135.316319 
Q 330.244764 137.886532 330.244764 142.409358 
Q 330.244764 146.913468 333.144476 149.489919 
Q 336.052067 152.060132 341.126563 152.060132 
Q 343.955358 152.060132 346.516244 151.398864 
Q 349.077131 150.731357 351.716814 149.309006 
z
" style="fill:#0000ff;"/>
   </g>
   <g id="patch_14">
    <path clip-path="url(#pb2dfa477dd)" d="M 375.026592 151.9985 
L 362.998985 151.9985 
L 361.099889 157.5 
L 353.362832 157.5 
L 364.412117 127.3 
L 373.587883 127.3 
L 384.637168 157.5 
L 376.906505 157.5 
z
M 364.917264 146.393442 
L 373.089131 146.393442 
L 369.009591 134.380754 
z
" style="fill:#008000;"/>
   </g>
   <g id="patch_15">
    <path clip-path="url(#pb2dfa477dd)" d="M 384.637168 123.201384 
Q 381.4831 125.250692 378.090725 126.280025 
Q 374.698349 127.3 371.081685 127.3 
Q 362.909144 127.3 358.135988 121.198864 
Q 353.362832 115.097728 353.362832 104.664036 
Q 353.362832 94.108697 358.220097 88.054348 
Q 363.08437 82 371.544282 82 
Q 374.803485 82 377.789336 82.823466 
Q 380.782196 83.637575 383.431613 85.247077 
L 383.431613 94.277133 
Q 380.698088 92.20911 377.992598 91.189134 
Q 375.287109 90.159802 372.567601 90.159802 
Q 367.535111 90.159802 364.808594 93.921545 
Q 362.082078 97.673931 362.082078 104.664036 
Q 362.082078 111.588639 364.710468 115.369097 
Q 367.338858 119.140198 372.175095 119.140198 
Q 373.492795 119.140198 374.62125 118.924974 
Q 375.749705 118.700392 376.646863 118.232514 
L 376.646863 109.754555 
L 371.495218 109.754555 
L 371.495218 102.202995 
L 384.637168 102.202995 
z
" style="fill:#ffa600;"/>
   </g>
   <g id="patch_16">
    <path clip-path="url(#pb2dfa477dd)" d="M 384.637168 77.670564 
Q 382.021124 79.816567 379.192329 80.902045 
Q 376.363534 82 373.282591 82 
Q 364.094917 82 358.728874 73.865152 
Q 353.362832 65.730304 353.362832 51.818715 
Q 353.362832 37.85722 358.728874 29.734848 
Q 364.094917 21.6 373.282591 21.6 
Q 376.363534 21.6 379.192329 22.697955 
Q 382.021124 23.783433 384.637168 25.929436 
L 384.637168 37.96951 
Q 381.997485 35.124809 379.436598 33.802272 
Q 376.875712 32.479736 374.046917 32.479736 
Q 368.972421 32.479736 366.06483 37.632638 
Q 363.165118 42.773063 363.165118 51.818715 
Q 363.165118 60.826937 366.06483 65.979839 
Q 368.972421 71.120264 374.046917 71.120264 
Q 376.875712 71.120264 379.436598 69.797728 
Q 381.997485 68.462714 384.637168 65.618013 
z
" style="fill:#0000ff;"/>
   </g>
   <g id="patch_17">
    <path clip-path="url(#pb2dfa477dd)" d="M 417.557522 156.417641 
Q 414.941478 156.954142 412.112683 157.225511 
Q 409.283888 157.5 406.202945 157.5 
Q 397.015271 157.5 391.649228 155.466288 
Q 386.283186 153.432576 386.283186 149.954679 
Q 386.283186 146.464305 391.649228 144.433712 
Q 397.015271 142.4 406.202945 142.4 
Q 409.283888 142.4 412.112683 142.674489 
Q 414.941478 142.945858 417.557522 143.482359 
L 417.557522 146.492378 
Q 414.917839 145.781202 412.356952 145.450568 
Q 409.796066 145.119934 406.967271 145.119934 
Q 401.892775 145.119934 398.985184 146.408159 
Q 396.085472 147.693266 396.085472 149.954679 
Q 396.085472 152.206734 398.985184 153.49496 
Q 401.892775 154.780066 406.967271 154.780066 
Q 409.796066 154.780066 412.356952 154.449432 
Q 414.917839 154.115679 417.557522 153.404503 
z
" style="fill:#0000ff;"/>
   </g>
   <g id="patch_18">
    <path clip-path="url(#pb2dfa477dd)" d="M 417.557522 136.935179 
Q 414.403454 139.667589 411.011079 141.040033 
Q 407.618703 142.4 404.002039 142.4 
Q 395.829498 142.4 391.056342 134.265152 
Q 386.283186 126.130304 386.283186 112.218715 
Q 386.283186 98.144929 391.140451 90.072464 
Q 396.004724 82 404.464635 82 
Q 407.723839 82 410.70969 83.097955 
Q 413.70255 84.183433 416.351967 86.329436 
L 416.351967 98.36951 
Q 413.618442 95.612146 410.912952 94.252179 
Q 408.207463 92.879736 405.487955 92.879736 
Q 400.455465 92.879736 397.728948 97.895394 
Q 395.002432 102.898575 395.002432 112.218715 
Q 395.002432 121.451518 397.630822 126.49213 
Q 400.259212 131.520264 405.095449 131.520264 
Q 406.413149 131.520264 407.541604 131.233299 
Q 408.670059 130.933857 409.567217 130.310019 
L 409.567217 119.006073 
L 404.415572 119.006073 
L 404.415572 108.937327 
L 417.557522 108.937327 
z
" style="fill:#ffa600;"/>
   </g>
   <g id="patch_19">
    <path clip-path="url(#pb2dfa477dd)" d="M 386.283186 21.6 
L 417.557522 21.6 
L 417.557522 33.379683 
L 406.306034 33.379683 
L 406.306034 82 
L 397.556493 82 
L 397.556493 33.379683 
L 386.283186 33.379683 
z
" style="fill:#ff0000;"/>
   </g>
   <g id="patch_20">
    <path clip-path="url(#pb2dfa477dd)" d="M 450.477876 156.133795 
Q 447.323808 156.816897 443.931433 157.160008 
Q 440.539057 157.5 436.922393 157.5 
Q 428.749852 157.5 423.976696 155.466288 
Q 419.20354 153.432576 419.20354 149.954679 
Q 419.20354 146.436232 424.060805 144.418116 
Q 428.925078 142.4 437.384989 142.4 
Q 440.644193 142.4 443.630044 142.674489 
Q 446.622904 142.945858 449.272321 143.482359 
L 449.272321 146.492378 
Q 446.538796 145.803037 443.833306 145.463045 
Q 441.127817 145.119934 438.408309 145.119934 
Q 433.375819 145.119934 430.649302 146.373848 
Q 427.922786 147.624644 427.922786 149.954679 
Q 427.922786 152.26288 430.551176 153.523032 
Q 433.179565 154.780066 438.015803 154.780066 
Q 439.333503 154.780066 440.461958 154.708325 
Q 441.590413 154.633464 442.487571 154.477505 
L 442.487571 151.651518 
L 437.335926 151.651518 
L 437.335926 149.134332 
L 450.477876 149.134332 
z
" style="fill:#ffa600;"/>
   </g>
   <g id="patch_21">
    <path clip-path="url(#pb2dfa477dd)" d="M 450.477876 138.070564 
Q 447.861832 140.216567 445.033037 141.302045 
Q 442.204242 142.4 439.123298 142.4 
Q 429.935625 142.4 424.569582 134.265152 
Q 419.20354 126.130304 419.20354 112.218715 
Q 419.20354 98.25722 424.569582 90.134848 
Q 429.935625 82 439.123298 82 
Q 442.204242 82 445.033037 83.097955 
Q 447.861832 84.183433 450.477876 86.329436 
L 450.477876 98.36951 
Q 447.838193 95.524809 445.277306 94.202272 
Q 442.71642 92.879736 439.887625 92.879736 
Q 434.813129 92.879736 431.905538 98.032638 
Q 429.005826 103.173063 429.005826 112.218715 
Q 429.005826 121.226937 431.905538 126.379839 
Q 434.813129 131.520264 439.887625 131.520264 
Q 442.71642 131.520264 445.277306 130.197728 
Q 447.838193 128.862714 450.477876 126.018013 
z
" style="fill:#0000ff;"/>
   </g>
   <g id="patch_22">
    <path clip-path="url(#pb2dfa477dd)" d="M 419.20354 21.6 
L 450.477876 21.6 
L 450.477876 33.379683 
L 439.226388 33.379683 
L 439.226388 82 
L 430.476847 82 
L 430.476847 33.379683 
L 419.20354 33.379683 
z
" style="fill:#ff0000;"/>
   </g>
   <g id="patch_23">
    <path clip-path="url(#pb2dfa477dd)" d="M 483.39823 156.417641 
Q 480.782186 156.954142 477.953391 157.225511 
Q 475.124596 157.5 472.043652 157.5 
Q 462.855979 157.5 457.489936 155.466288 
Q 452.123894 153.432576 452.123894 149.954679 
Q 452.123894 146.464305 457.489936 144.433712 
Q 462.855979 142.4 472.043652 142.4 
Q 475.124596 142.4 477.953391 142.674489 
Q 480.782186 142.945858 483.39823 143.482359 
L 483.39823 146.492378 
Q 480.758547 145.781202 478.19766 145.450568 
Q 475.636773 145.119934 472.807979 145.119934 
Q 467.733483 145.119934 464.825892 146.408159 
Q 461.92618 147.693266 461.92618 149.954679 
Q 461.92618 152.206734 464.825892 153.49496 
Q 467.733483 154.780066 472.807979 154.780066 
Q 475.636773 154.780066 478.19766 154.449432 
Q 480.758547 154.115679 483.39823 153.404503 
z
" style="fill:#0000ff;"/>
   </g>
   <g id="patch_24">
    <path clip-path="url(#pb2dfa477dd)" d="M 483.39823 131.470357 
Q 480.244162 136.935179 476.851787 139.680066 
Q 473.459411 142.4 469.842747 142.4 
Q 461.670206 142.4 456.89705 126.130304 
Q 452.123894 109.860607 452.123894 82.03743 
Q 452.123894 53.889857 456.981158 37.744929 
Q 461.845432 21.6 470.305343 21.6 
Q 473.564547 21.6 476.550398 23.79591 
Q 479.543258 25.966866 482.192675 30.258872 
L 482.192675 54.339021 
Q 479.45915 48.824293 476.75366 46.104359 
Q 474.048171 43.359471 471.328663 43.359471 
Q 466.296173 43.359471 463.569656 53.390787 
Q 460.84314 63.397149 460.84314 82.03743 
Q 460.84314 100.503037 463.471529 110.584259 
Q 466.099919 120.640529 470.936157 120.640529 
Q 472.253857 120.640529 473.382312 120.066598 
Q 474.510767 119.467713 475.407925 118.220037 
L 475.407925 95.612146 
L 470.25628 95.612146 
L 470.25628 75.474654 
L 483.39823 75.474654 
z
" style="fill:#ffa600;"/>
   </g>
   <g id="patch_25">
    <path clip-path="url(#pb2dfa477dd)" d="M 506.708008 154.74925 
L 494.680401 154.74925 
L 492.781305 157.5 
L 485.044248 157.5 
L 496.093533 142.4 
L 505.269299 142.4 
L 516.318584 157.5 
L 508.587921 157.5 
z
M 496.59868 151.946721 
L 504.770547 151.946721 
L 500.691007 145.940377 
z
" style="fill:#008000;"/>
   </g>
   <g id="patch_26">
    <path clip-path="url(#pb2dfa477dd)" d="M 516.318584 131.470357 
Q 513.164516 136.935179 509.772141 139.680066 
Q 506.379765 142.4 502.763101 142.4 
Q 494.59056 142.4 489.817404 126.130304 
Q 485.044248 109.860607 485.044248 82.03743 
Q 485.044248 53.889857 489.901512 37.744929 
Q 494.765786 21.6 503.225697 21.6 
Q 506.484901 21.6 509.470752 23.79591 
Q 512.463612 25.966866 515.113029 30.258872 
L 515.113029 54.339021 
Q 512.379504 48.824293 509.674014 46.104359 
Q 506.968525 43.359471 504.249017 43.359471 
Q 499.216527 43.359471 496.49001 53.390787 
Q 493.763493 63.397149 493.763493 82.03743 
Q 493.763493 100.503037 496.391883 110.584259 
Q 499.020273 120.640529 503.856511 120.640529 
Q 505.174211 120.640529 506.302666 120.066598 
Q 507.431121 119.467713 508.328279 118.220037 
L 508.328279 95.612146 
L 503.176634 95.612146 
L 503.176634 75.474654 
L 516.318584 75.474654 
z
" style="fill:#ffa600;"/>
   </g>
   <g id="patch_27">
    <path clip-path="url(#pb2dfa477dd)" d="M 539.628362 154.74925 
L 527.600755 154.74925 
L 525.701659 157.5 
L 517.964602 157.5 
L 529.013887 142.4 
L 538.189653 142.4 
L 549.238938 157.5 
L 541.508275 157.5 
z
M 529.519034 151.946721 
L 537.690901 151.946721 
L 533.611361 145.940377 
z
" style="fill:#008000;"/>
   </g>
   <g id="patch_28">
    <path clip-path="url(#pb2dfa477dd)" d="M 549.238938 139.152923 
Q 546.622894 140.762425 543.794099 141.576534 
Q 540.965304 142.4 537.88436 142.4 
Q 528.696687 142.4 523.330644 136.298864 
Q 517.964602 130.197728 517.964602 119.764036 
Q 517.964602 109.292915 523.330644 103.201136 
Q 528.696687 97.1 537.88436 97.1 
Q 540.965304 97.1 543.794099 97.923466 
Q 546.622894 98.737575 549.238938 100.347077 
L 549.238938 109.377133 
Q 546.599255 107.243607 544.038368 106.251704 
Q 541.477481 105.259802 538.648687 105.259802 
Q 533.574191 105.259802 530.6666 109.124478 
Q 527.766888 112.979798 527.766888 119.764036 
Q 527.766888 126.520202 530.6666 130.384879 
Q 533.574191 134.240198 538.648687 134.240198 
Q 541.477481 134.240198 544.038368 133.248296 
Q 546.599255 132.247036 549.238938 130.11351 
z
" style="fill:#0000ff;"/>
   </g>
   <g id="patch_29">
    <path clip-path="url(#pb2dfa477dd)" d="M 517.964602 21.6 
L 549.238938 21.6 
L 549.238938 36.324604 
L 537.98745 36.324604 
L 537.98745 97.1 
L 529.237909 97.1 
L 529.237909 36.324604 
L 517.964602 36.324604 
z
" style="fill:#ff0000;"/>
   </g>
   <g id="patch_30">
    <path clip-path="url(#pb2dfa477dd)" d="M 582.159292 155.335282 
Q 579.543248 156.408283 576.714453 156.951023 
Q 573.885658 157.5 570.804714 157.5 
Q 561.617041 157.5 556.250998 153.432576 
Q 550.884956 149.365152 550.884956 142.409358 
Q 550.884956 135.42861 556.250998 131.367424 
Q 561.617041 127.3 570.804714 127.3 
Q 573.885658 127.3 576.714453 127.848977 
Q 579.543248 128.391717 582.159292 129.464718 
L 582.159292 135.484755 
Q 579.519609 134.062404 576.958722 133.401136 
Q 574.397835 132.739868 571.569041 132.739868 
Q 566.494545 132.739868 563.586954 135.316319 
Q 560.687242 137.886532 560.687242 142.409358 
Q 560.687242 146.913468 563.586954 149.489919 
Q 566.494545 152.060132 571.569041 152.060132 
Q 574.397835 152.060132 576.958722 151.398864 
Q 579.519609 150.731357 582.159292 149.309006 
z
" style="fill:#0000ff;"/>
   </g>
   <g id="patch_31">
    <path clip-path="url(#pb2dfa477dd)" d="M 582.159292 117.736563 
Q 579.005224 122.518281 575.612849 124.920058 
Q 572.220473 127.3 568.603809 127.3 
Q 560.431268 127.3 555.658112 113.064016 
Q 550.884956 98.828031 550.884956 74.482751 
Q 550.884956 49.853625 555.74222 35.726813 
Q 560.606494 21.6 569.066405 21.6 
Q 572.325609 21.6 575.31146 23.521421 
Q 578.30432 25.421008 580.953737 29.176513 
L 580.953737 50.246643 
Q 578.220212 45.421256 575.514722 43.041314 
Q 572.809233 40.639537 570.089725 40.639537 
Q 565.057235 40.639537 562.330718 49.416939 
Q 559.604201 58.172506 559.604201 74.482751 
Q 559.604201 90.640157 562.232591 99.461227 
Q 564.860981 108.260463 569.697219 108.260463 
Q 571.014919 108.260463 572.143374 107.758273 
Q 573.271829 107.234249 574.168986 106.142533 
L 574.168986 86.360628 
L 569.017342 86.360628 
L 569.017342 68.740322 
L 582.159292 68.740322 
z
" style="fill:#ffa600;"/>
   </g>
   <g id="patch_32">
    <path clip-path="url(#pb2dfa477dd)" d="M 615.079646 147.758769 
Q 612.463602 152.587275 609.634807 155.029601 
Q 606.806012 157.5 603.725068 157.5 
Q 594.537395 157.5 589.171352 139.196592 
Q 583.80531 120.893183 583.80531 89.592109 
Q 583.80531 58.178744 589.171352 39.903408 
Q 594.537395 21.6 603.725068 21.6 
Q 606.806012 21.6 609.634807 24.070399 
Q 612.463602 26.512725 615.079646 31.341231 
L 615.079646 58.431398 
Q 612.439963 52.03082 609.879076 49.055113 
Q 607.318189 46.079405 604.489395 46.079405 
Q 599.414899 46.079405 596.507308 57.673435 
Q 593.607596 69.239393 593.607596 89.592109 
Q 593.607596 109.860607 596.507308 121.454637 
Q 599.414899 133.020595 604.489395 133.020595 
Q 607.318189 133.020595 609.879076 130.044887 
Q 612.439963 127.041107 615.079646 120.640529 
z
" style="fill:#0000ff;"/>
   </g>
   <g id="patch_33">
    <path clip-path="url(#pb2dfa477dd)" d="M 648 156.133795 
Q 644.845932 156.816897 641.453557 157.160008 
Q 638.061181 157.5 634.444517 157.5 
Q 626.271976 157.5 621.49882 155.466288 
Q 616.725664 153.432576 616.725664 149.954679 
Q 616.725664 146.436232 621.582928 144.418116 
Q 626.447202 142.4 634.907113 142.4 
Q 638.166317 142.4 641.152168 142.674489 
Q 644.145028 142.945858 646.794445 143.482359 
L 646.794445 146.492378 
Q 644.06092 145.803037 641.35543 145.463045 
Q 638.649941 145.119934 635.930433 145.119934 
Q 630.897943 145.119934 628.171426 146.373848 
Q 625.444909 147.624644 625.444909 149.954679 
Q 625.444909 152.26288 628.073299 153.523032 
Q 630.701689 154.780066 635.537927 154.780066 
Q 636.855626 154.780066 637.984082 154.708325 
Q 639.112537 154.633464 640.009694 154.477505 
L 640.009694 151.651518 
L 634.85805 151.651518 
L 634.85805 149.134332 
L 648 149.134332 
z
" style="fill:#ffa600;"/>
   </g>
   <g id="patch_34">
    <path clip-path="url(#pb2dfa477dd)" d="M 616.725664 127.3 
L 648 127.3 
L 648 130.244921 
L 636.748512 130.244921 
L 636.748512 142.4 
L 627.998971 142.4 
L 627.998971 130.244921 
L 616.725664 130.244921 
z
" style="fill:#ff0000;"/>
   </g>
   <g id="patch_35">
    <path clip-path="url(#pb2dfa477dd)" d="M 648 119.723487 
Q 645.383956 123.478992 642.555161 125.378579 
Q 639.726366 127.3 636.645422 127.3 
Q 627.457749 127.3 622.091706 113.064016 
Q 616.725664 98.828031 616.725664 74.482751 
Q 616.725664 50.050134 622.091706 35.835984 
Q 627.457749 21.6 636.645422 21.6 
Q 639.726366 21.6 642.555161 23.521421 
Q 645.383956 25.421008 648 29.176513 
L 648 50.246643 
Q 645.360317 45.268416 642.79943 42.953976 
Q 640.238543 40.639537 637.409749 40.639537 
Q 632.335253 40.639537 629.427662 49.657116 
Q 626.52795 58.652861 626.52795 74.482751 
Q 626.52795 90.247139 629.427662 99.264718 
Q 632.335253 108.260463 637.409749 108.260463 
Q 640.238543 108.260463 642.79943 105.946024 
Q 645.360317 103.60975 648 98.631522 
z
" style="fill:#0000ff;"/>
   </g>
  </g>
 </g>
 <defs>
  <clipPath id="pb2dfa477dd">
   <rect height="135.9" width="558" x="90" y="21.6"/>
  </clipPath>
 </defs>
</svg>
