<?xml version="1.0" encoding="utf-8" standalone="no"?>
<!DOCTYPE svg PUBLIC "-//W3C//DTD SVG 1.1//EN"
  "http://www.w3.org/Graphics/SVG/1.1/DTD/svg11.dtd">
<!-- Created with matplotlib (https://matplotlib.org/) -->
<svg height="180pt" version="1.1" viewBox="0 0 720 180" width="720pt" xmlns="http://www.w3.org/2000/svg" xmlns:xlink="http://www.w3.org/1999/xlink">
 <metadata>
  <rdf:RDF xmlns:cc="http://creativecommons.org/ns#" xmlns:dc="http://purl.org/dc/elements/1.1/" xmlns:rdf="http://www.w3.org/1999/02/22-rdf-syntax-ns#">
   <cc:Work>
    <dc:type rdf:resource="http://purl.org/dc/dcmitype/StillImage"/>
    <dc:date>2021-08-04T23:34:07.070266</dc:date>
    <dc:format>image/svg+xml</dc:format>
    <dc:creator>
     <cc:Agent>
      <dc:title>Matplotlib v3.3.2, https://matplotlib.org/</dc:title>
     </cc:Agent>
    </dc:creator>
   </cc:Work>
  </rdf:RDF>
 </metadata>
 <defs>
  <style type="text/css">*{stroke-linecap:butt;stroke-linejoin:round;}</style>
 </defs>
 <g id="figure_1">
  <g id="patch_1">
   <path d="M 0 180 
L 720 180 
L 720 0 
L 0 0 
z
" style="fill:none;"/>
  </g>
  <g id="axes_1">
   <g id="line2d_1">
    <path clip-path="url(#p6417ada9df)" d="M 90 157.5 
L 648 157.5 
" style="fill:none;stroke:#000000;stroke-linecap:square;stroke-width:0.5;"/>
   </g>
   <g id="patch_2">
    <path clip-path="url(#p6417ada9df)" d="M 111.66376 151.9985 
L 99.636153 151.9985 
L 97.737057 157.5 
L 90 157.5 
L 101.049285 127.3 
L 110.225051 127.3 
L 121.274336 157.5 
L 113.543673 157.5 
z
M 101.554432 146.393442 
L 109.726299 146.393442 
L 105.64676 134.380754 
z
" style="fill:#008000;"/>
   </g>
   <g id="patch_3">
    <path clip-path="url(#p6417ada9df)" d="M 121.274336 125.135282 
Q 118.658292 126.208283 115.829497 126.751023 
Q 113.000702 127.3 109.919759 127.3 
Q 100.732085 127.3 95.366043 123.232576 
Q 90 119.165152 90 112.209358 
Q 90 105.22861 95.366043 101.167424 
Q 100.732085 97.1 109.919759 97.1 
Q 113.000702 97.1 115.829497 97.648977 
Q 118.658292 98.191717 121.274336 99.264718 
L 121.274336 105.284755 
Q 118.634653 103.862404 116.073766 103.201136 
Q 113.51288 102.539868 110.684085 102.539868 
Q 105.609589 102.539868 102.701998 105.116319 
Q 99.802286 107.686532 99.802286 112.209358 
Q 99.802286 116.713468 102.701998 119.289919 
Q 105.609589 121.860132 110.684085 121.860132 
Q 113.51288 121.860132 116.073766 121.198864 
Q 118.634653 120.531357 121.274336 119.109006 
z
" style="fill:#0000ff;"/>
   </g>
   <g id="patch_4">
    <path clip-path="url(#p6417ada9df)" d="M 90 66.9 
L 121.274336 66.9 
L 121.274336 72.789841 
L 110.022848 72.789841 
L 110.022848 97.1 
L 101.273307 97.1 
L 101.273307 72.789841 
L 90 72.789841 
z
" style="fill:#ff0000;"/>
   </g>
   <g id="patch_5">
    <path clip-path="url(#p6417ada9df)" d="M 144.584114 154.74925 
L 132.556507 154.74925 
L 130.657411 157.5 
L 122.920354 157.5 
L 133.969639 142.4 
L 143.145405 142.4 
L 154.19469 157.5 
L 146.464027 157.5 
z
M 134.474786 151.946721 
L 142.646653 151.946721 
L 138.567114 145.940377 
z
" style="fill:#008000;"/>
   </g>
   <g id="patch_6">
    <path clip-path="url(#p6417ada9df)" d="M 154.19469 141.033795 
Q 151.040622 141.716897 147.648247 142.060008 
Q 144.255872 142.4 140.639207 142.4 
Q 132.466666 142.4 127.69351 140.366288 
Q 122.920354 138.332576 122.920354 134.854679 
Q 122.920354 131.336232 127.777619 129.318116 
Q 132.641892 127.3 141.101804 127.3 
Q 144.361007 127.3 147.346858 127.574489 
Q 150.339718 127.845858 152.989135 128.382359 
L 152.989135 131.392378 
Q 150.25561 130.703037 147.55012 130.363045 
Q 144.844631 130.019934 142.125123 130.019934 
Q 137.092633 130.019934 134.366116 131.273848 
Q 131.6396 132.524644 131.6396 134.854679 
Q 131.6396 137.16288 134.26799 138.423032 
Q 136.89638 139.680066 141.732617 139.680066 
Q 143.050317 139.680066 144.178772 139.608325 
Q 145.307228 139.533464 146.204385 139.377505 
L 146.204385 136.551518 
L 141.05274 136.551518 
L 141.05274 134.034332 
L 154.19469 134.034332 
z
" style="fill:#ffa600;"/>
   </g>
   <g id="patch_7">
    <path clip-path="url(#p6417ada9df)" d="M 122.920354 66.9 
L 154.19469 66.9 
L 154.19469 78.679683 
L 142.943202 78.679683 
L 142.943202 127.3 
L 134.193661 127.3 
L 134.193661 78.679683 
L 122.920354 78.679683 
z
" style="fill:#ff0000;"/>
   </g>
   <g id="patch_8">
    <path clip-path="url(#p6417ada9df)" d="M 187.115044 156.133795 
Q 183.960976 156.816897 180.568601 157.160008 
Q 177.176226 157.5 173.559561 157.5 
Q 165.38702 157.5 160.613864 155.466288 
Q 155.840708 153.432576 155.840708 149.954679 
Q 155.840708 146.436232 160.697973 144.418116 
Q 165.562246 142.4 174.022158 142.4 
Q 177.281361 142.4 180.267212 142.674489 
Q 183.260072 142.945858 185.909489 143.482359 
L 185.909489 146.492378 
Q 183.175964 145.803037 180.470474 145.463045 
Q 177.764985 145.119934 175.045477 145.119934 
Q 170.012987 145.119934 167.28647 146.373848 
Q 164.559954 147.624644 164.559954 149.954679 
Q 164.559954 152.26288 167.188344 153.523032 
Q 169.816734 154.780066 174.652971 154.780066 
Q 175.970671 154.780066 177.099126 154.708325 
Q 178.227582 154.633464 179.124739 154.477505 
L 179.124739 151.651518 
L 173.973094 151.651518 
L 173.973094 149.134332 
L 187.115044 149.134332 
z
" style="fill:#ffa600;"/>
   </g>
   <g id="patch_9">
    <path clip-path="url(#p6417ada9df)" d="M 177.504468 136.8985 
L 165.476861 136.8985 
L 163.577765 142.4 
L 155.840708 142.4 
L 166.889993 112.2 
L 176.065759 112.2 
L 187.115044 142.4 
L 179.384381 142.4 
z
M 167.39514 131.293442 
L 175.567007 131.293442 
L 171.487467 119.280754 
z
" style="fill:#008000;"/>
   </g>
   <g id="patch_10">
    <path clip-path="url(#p6417ada9df)" d="M 155.840708 66.9 
L 187.115044 66.9 
L 187.115044 75.734762 
L 175.863556 75.734762 
L 175.863556 112.2 
L 167.114015 112.2 
L 167.114015 75.734762 
L 155.840708 75.734762 
z
" style="fill:#ff0000;"/>
   </g>
   <g id="patch_11">
    <path clip-path="url(#p6417ada9df)" d="M 220.035398 156.417641 
Q 217.419354 156.954142 214.590559 157.225511 
Q 211.761764 157.5 208.680821 157.5 
Q 199.493147 157.5 194.127105 155.466288 
Q 188.761062 153.432576 188.761062 149.954679 
Q 188.761062 146.464305 194.127105 144.433712 
Q 199.493147 142.4 208.680821 142.4 
Q 211.761764 142.4 214.590559 142.674489 
Q 217.419354 142.945858 220.035398 143.482359 
L 220.035398 146.492378 
Q 217.395715 145.781202 214.834828 145.450568 
Q 212.273942 145.119934 209.445147 145.119934 
Q 204.370651 145.119934 201.46306 146.408159 
Q 198.563348 147.693266 198.563348 149.954679 
Q 198.563348 152.206734 201.46306 153.49496 
Q 204.370651 154.780066 209.445147 154.780066 
Q 212.273942 154.780066 214.834828 154.449432 
Q 217.395715 154.115679 220.035398 153.404503 
z
" style="fill:#0000ff;"/>
   </g>
   <g id="patch_12">
    <path clip-path="url(#p6417ada9df)" d="M 188.761062 127.3 
L 220.035398 127.3 
L 220.035398 130.244921 
L 208.78391 130.244921 
L 208.78391 142.4 
L 200.034369 142.4 
L 200.034369 130.244921 
L 188.761062 130.244921 
z
" style="fill:#ff0000;"/>
   </g>
   <g id="patch_13">
    <path clip-path="url(#p6417ada9df)" d="M 210.424822 121.7985 
L 198.397215 121.7985 
L 196.498119 127.3 
L 188.761062 127.3 
L 199.810347 97.1 
L 208.986113 97.1 
L 220.035398 127.3 
L 212.304735 127.3 
z
M 200.315494 116.193442 
L 208.487361 116.193442 
L 204.407821 104.180754 
z
" style="fill:#008000;"/>
   </g>
   <g id="patch_14">
    <path clip-path="url(#p6417ada9df)" d="M 220.035398 94.367589 
Q 216.88133 95.733795 213.488955 96.420017 
Q 210.09658 97.1 206.479915 97.1 
Q 198.307374 97.1 193.534218 93.032576 
Q 188.761062 88.965152 188.761062 82.009358 
Q 188.761062 74.972464 193.618327 70.936232 
Q 198.4826 66.9 206.942512 66.9 
Q 210.201715 66.9 213.187566 67.448977 
Q 216.180426 67.991717 218.829843 69.064718 
L 218.829843 75.084755 
Q 216.096318 73.706073 213.390828 73.02609 
Q 210.685339 72.339868 207.965831 72.339868 
Q 202.933341 72.339868 200.206824 74.847697 
Q 197.480308 77.349287 197.480308 82.009358 
Q 197.480308 86.625759 200.108698 89.146065 
Q 202.737088 91.660132 207.573325 91.660132 
Q 208.891025 91.660132 210.01948 91.516649 
Q 211.147936 91.366928 212.045093 91.055009 
L 212.045093 85.403037 
L 206.893448 85.403037 
L 206.893448 80.368663 
L 220.035398 80.368663 
z
" style="fill:#ffa600;"/>
   </g>
   <g id="patch_15">
    <path clip-path="url(#p6417ada9df)" d="M 243.345176 154.74925 
L 231.317569 154.74925 
L 229.418473 157.5 
L 221.681416 157.5 
L 232.730701 142.4 
L 241.906467 142.4 
L 252.955752 157.5 
L 245.225089 157.5 
z
M 233.235848 151.946721 
L 241.407715 151.946721 
L 237.328175 145.940377 
z
" style="fill:#008000;"/>
   </g>
   <g id="patch_16">
    <path clip-path="url(#p6417ada9df)" d="M 221.681416 66.9 
L 252.955752 66.9 
L 252.955752 81.624604 
L 241.704264 81.624604 
L 241.704264 142.4 
L 232.954723 142.4 
L 232.954723 81.624604 
L 221.681416 81.624604 
z
" style="fill:#ff0000;"/>
   </g>
   <g id="patch_17">
    <path clip-path="url(#p6417ada9df)" d="M 285.876106 156.417641 
Q 283.260062 156.954142 280.431267 157.225511 
Q 277.602472 157.5 274.521529 157.5 
Q 265.333855 157.5 259.967812 155.466288 
Q 254.60177 153.432576 254.60177 149.954679 
Q 254.60177 146.464305 259.967812 144.433712 
Q 265.333855 142.4 274.521529 142.4 
Q 277.602472 142.4 280.431267 142.674489 
Q 283.260062 142.945858 285.876106 143.482359 
L 285.876106 146.492378 
Q 283.236423 145.781202 280.675536 145.450568 
Q 278.11465 145.119934 275.285855 145.119934 
Q 270.211359 145.119934 267.303768 146.408159 
Q 264.404056 147.693266 264.404056 149.954679 
Q 264.404056 152.206734 267.303768 153.49496 
Q 270.211359 154.780066 275.285855 154.780066 
Q 278.11465 154.780066 280.675536 154.449432 
Q 283.236423 154.115679 285.876106 153.404503 
z
" style="fill:#0000ff;"/>
   </g>
   <g id="patch_18">
    <path clip-path="url(#p6417ada9df)" d="M 276.26553 136.8985 
L 264.237923 136.8985 
L 262.338827 142.4 
L 254.60177 142.4 
L 265.651055 112.2 
L 274.826821 112.2 
L 285.876106 142.4 
L 278.145443 142.4 
z
M 266.156202 131.293442 
L 274.328069 131.293442 
L 270.248529 119.280754 
z
" style="fill:#008000;"/>
   </g>
   <g id="patch_19">
    <path clip-path="url(#p6417ada9df)" d="M 285.876106 108.101384 
Q 282.722038 110.150692 279.329663 111.180025 
Q 275.937288 112.2 272.320623 112.2 
Q 264.148082 112.2 259.374926 106.098864 
Q 254.60177 99.997728 254.60177 89.564036 
Q 254.60177 79.008697 259.459035 72.954348 
Q 264.323308 66.9 272.78322 66.9 
Q 276.042423 66.9 279.028274 67.723466 
Q 282.021134 68.537575 284.670551 70.147077 
L 284.670551 79.177133 
Q 281.937026 77.10911 279.231536 76.089134 
Q 276.526047 75.059802 273.806539 75.059802 
Q 268.774049 75.059802 266.047532 78.821545 
Q 263.321016 82.573931 263.321016 89.564036 
Q 263.321016 96.488639 265.949406 100.269097 
Q 268.577796 104.040198 273.414033 104.040198 
Q 274.731733 104.040198 275.860188 103.824974 
Q 276.988644 103.600392 277.885801 103.132514 
L 277.885801 94.654555 
L 272.734156 94.654555 
L 272.734156 87.102995 
L 285.876106 87.102995 
z
" style="fill:#ffa600;"/>
   </g>
   <g id="patch_20">
    <path clip-path="url(#p6417ada9df)" d="M 318.79646 156.133795 
Q 315.642392 156.816897 312.250017 157.160008 
Q 308.857642 157.5 305.240977 157.5 
Q 297.068436 157.5 292.29528 155.466288 
Q 287.522124 153.432576 287.522124 149.954679 
Q 287.522124 146.436232 292.379389 144.418116 
Q 297.243662 142.4 305.703574 142.4 
Q 308.962777 142.4 311.948628 142.674489 
Q 314.941488 142.945858 317.590905 143.482359 
L 317.590905 146.492378 
Q 314.85738 145.803037 312.15189 145.463045 
Q 309.446401 145.119934 306.726893 145.119934 
Q 301.694403 145.119934 298.967886 146.373848 
Q 296.24137 147.624644 296.24137 149.954679 
Q 296.24137 152.26288 298.86976 153.523032 
Q 301.49815 154.780066 306.334387 154.780066 
Q 307.652087 154.780066 308.780542 154.708325 
Q 309.908998 154.633464 310.806155 154.477505 
L 310.806155 151.651518 
L 305.65451 151.651518 
L 305.65451 149.134332 
L 318.79646 149.134332 
z
" style="fill:#ffa600;"/>
   </g>
   <g id="patch_21">
    <path clip-path="url(#p6417ada9df)" d="M 309.185884 128.646249 
L 297.158277 128.646249 
L 295.259181 142.4 
L 287.522124 142.4 
L 298.571409 66.9 
L 307.747175 66.9 
L 318.79646 142.4 
L 311.065797 142.4 
z
M 299.076556 114.633605 
L 307.248423 114.633605 
L 303.168883 84.601886 
z
" style="fill:#008000;"/>
   </g>
   <g id="patch_22">
    <path clip-path="url(#p6417ada9df)" d="M 320.442478 21.6 
L 351.716814 21.6 
L 351.716814 48.104286 
L 340.465326 48.104286 
L 340.465326 157.5 
L 331.715785 157.5 
L 331.715785 48.104286 
L 320.442478 48.104286 
z
" style="fill:#ff0000;"/>
   </g>
   <g id="patch_23">
    <path clip-path="url(#p6417ada9df)" d="M 384.637168 145.204152 
Q 381.4831 151.352076 378.090725 154.440074 
Q 374.698349 157.5 371.081685 157.5 
Q 362.909144 157.5 358.135988 139.196592 
Q 353.362832 120.893183 353.362832 89.592109 
Q 353.362832 57.92609 358.220097 39.763045 
Q 363.08437 21.6 371.544282 21.6 
Q 374.803485 21.6 377.789336 24.070399 
Q 380.782196 26.512725 383.431613 31.341231 
L 383.431613 58.431398 
Q 380.698088 52.227329 377.992598 49.167403 
Q 375.287109 46.079405 372.567601 46.079405 
Q 367.535111 46.079405 364.808594 57.364635 
Q 362.082078 68.621793 362.082078 89.592109 
Q 362.082078 110.365916 364.710468 121.707292 
Q 367.338858 133.020595 372.175095 133.020595 
Q 373.492795 133.020595 374.62125 132.374923 
Q 375.749705 131.701177 376.646863 130.297542 
L 376.646863 104.863665 
L 371.495218 104.863665 
L 371.495218 82.208986 
L 384.637168 82.208986 
z
" style="fill:#ffa600;"/>
   </g>
   <g id="patch_24">
    <path clip-path="url(#p6417ada9df)" d="M 407.946946 132.743249 
L 395.919339 132.743249 
L 394.020243 157.5 
L 386.283186 157.5 
L 397.332471 21.6 
L 406.508237 21.6 
L 417.557522 157.5 
L 409.826859 157.5 
z
M 397.837618 107.520489 
L 406.009485 107.520489 
L 401.929945 53.463395 
z
" style="fill:#008000;"/>
   </g>
   <g id="patch_25">
    <path clip-path="url(#p6417ada9df)" d="M 419.20354 21.6 
L 450.477876 21.6 
L 450.477876 48.104286 
L 439.226388 48.104286 
L 439.226388 157.5 
L 430.476847 157.5 
L 430.476847 48.104286 
L 419.20354 48.104286 
z
" style="fill:#ff0000;"/>
   </g>
   <g id="patch_26">
    <path clip-path="url(#p6417ada9df)" d="M 483.39823 145.204152 
Q 480.244162 151.352076 476.851787 154.440074 
Q 473.459411 157.5 469.842747 157.5 
Q 461.670206 157.5 456.89705 139.196592 
Q 452.123894 120.893183 452.123894 89.592109 
Q 452.123894 57.92609 456.981158 39.763045 
Q 461.845432 21.6 470.305343 21.6 
Q 473.564547 21.6 476.550398 24.070399 
Q 479.543258 26.512725 482.192675 31.341231 
L 482.192675 58.431398 
Q 479.45915 52.227329 476.75366 49.167403 
Q 474.048171 46.079405 471.328663 46.079405 
Q 466.296173 46.079405 463.569656 57.364635 
Q 460.84314 68.621793 460.84314 89.592109 
Q 460.84314 110.365916 463.471529 121.707292 
Q 466.099919 133.020595 470.936157 133.020595 
Q 472.253857 133.020595 473.382312 132.374923 
Q 474.510767 131.701177 475.407925 130.297542 
L 475.407925 104.863665 
L 470.25628 104.863665 
L 470.25628 82.208986 
L 483.39823 82.208986 
z
" style="fill:#ffa600;"/>
   </g>
   <g id="patch_27">
    <path clip-path="url(#p6417ada9df)" d="M 506.708008 132.743249 
L 494.680401 132.743249 
L 492.781305 157.5 
L 485.044248 157.5 
L 496.093533 21.6 
L 505.269299 21.6 
L 516.318584 157.5 
L 508.587921 157.5 
z
M 496.59868 107.520489 
L 504.770547 107.520489 
L 500.691007 53.463395 
z
" style="fill:#008000;"/>
   </g>
   <g id="patch_28">
    <path clip-path="url(#p6417ada9df)" d="M 517.964602 127.3 
L 549.238938 127.3 
L 549.238938 133.189841 
L 537.98745 133.189841 
L 537.98745 157.5 
L 529.237909 157.5 
L 529.237909 133.189841 
L 517.964602 133.189841 
z
" style="fill:#ff0000;"/>
   </g>
   <g id="patch_29">
    <path clip-path="url(#p6417ada9df)" d="M 539.628362 119.04775 
L 527.600755 119.04775 
L 525.701659 127.3 
L 517.964602 127.3 
L 529.013887 82 
L 538.189653 82 
L 549.238938 127.3 
L 541.508275 127.3 
z
M 529.519034 110.640163 
L 537.690901 110.640163 
L 533.611361 92.621132 
z
" style="fill:#008000;"/>
   </g>
   <g id="patch_30">
    <path clip-path="url(#p6417ada9df)" d="M 549.238938 76.535179 
Q 546.08487 79.267589 542.692495 80.640033 
Q 539.300119 82 535.683455 82 
Q 527.510914 82 522.737758 73.865152 
Q 517.964602 65.730304 517.964602 51.818715 
Q 517.964602 37.744929 522.821866 29.672464 
Q 527.68614 21.6 536.146051 21.6 
Q 539.405255 21.6 542.391106 22.697955 
Q 545.383966 23.783433 548.033383 25.929436 
L 548.033383 37.96951 
Q 545.299858 35.212146 542.594368 33.852179 
Q 539.888879 32.479736 537.169371 32.479736 
Q 532.136881 32.479736 529.410364 37.495394 
Q 526.683847 42.498575 526.683847 51.818715 
Q 526.683847 61.051518 529.312237 66.09213 
Q 531.940627 71.120264 536.776865 71.120264 
Q 538.094565 71.120264 539.22302 70.833299 
Q 540.351475 70.533857 541.248633 69.910019 
L 541.248633 58.606073 
L 536.096988 58.606073 
L 536.096988 48.537327 
L 549.238938 48.537327 
z
" style="fill:#ffa600;"/>
   </g>
   <g id="patch_31">
    <path clip-path="url(#p6417ada9df)" d="M 582.159292 156.133795 
Q 579.005224 156.816897 575.612849 157.160008 
Q 572.220473 157.5 568.603809 157.5 
Q 560.431268 157.5 555.658112 155.466288 
Q 550.884956 153.432576 550.884956 149.954679 
Q 550.884956 146.436232 555.74222 144.418116 
Q 560.606494 142.4 569.066405 142.4 
Q 572.325609 142.4 575.31146 142.674489 
Q 578.30432 142.945858 580.953737 143.482359 
L 580.953737 146.492378 
Q 578.220212 145.803037 575.514722 145.463045 
Q 572.809233 145.119934 570.089725 145.119934 
Q 565.057235 145.119934 562.330718 146.373848 
Q 559.604201 147.624644 559.604201 149.954679 
Q 559.604201 152.26288 562.232591 153.523032 
Q 564.860981 154.780066 569.697219 154.780066 
Q 571.014919 154.780066 572.143374 154.708325 
Q 573.271829 154.633464 574.168986 154.477505 
L 574.168986 151.651518 
L 569.017342 151.651518 
L 569.017342 149.134332 
L 582.159292 149.134332 
z
" style="fill:#ffa600;"/>
   </g>
   <g id="patch_32">
    <path clip-path="url(#p6417ada9df)" d="M 572.548716 120.393999 
L 560.521109 120.393999 
L 558.622013 142.4 
L 550.884956 142.4 
L 561.934241 21.6 
L 571.110007 21.6 
L 582.159292 142.4 
L 574.428629 142.4 
z
M 562.439387 97.973768 
L 570.611255 97.973768 
L 566.531715 49.923018 
z
" style="fill:#008000;"/>
   </g>
   <g id="patch_33">
    <path clip-path="url(#p6417ada9df)" d="M 615.079646 156.417641 
Q 612.463602 156.954142 609.634807 157.225511 
Q 606.806012 157.5 603.725068 157.5 
Q 594.537395 157.5 589.171352 155.466288 
Q 583.80531 153.432576 583.80531 149.954679 
Q 583.80531 146.464305 589.171352 144.433712 
Q 594.537395 142.4 603.725068 142.4 
Q 606.806012 142.4 609.634807 142.674489 
Q 612.463602 142.945858 615.079646 143.482359 
L 615.079646 146.492378 
Q 612.439963 145.781202 609.879076 145.450568 
Q 607.318189 145.119934 604.489395 145.119934 
Q 599.414899 145.119934 596.507308 146.408159 
Q 593.607596 147.693266 593.607596 149.954679 
Q 593.607596 152.206734 596.507308 153.49496 
Q 599.414899 154.780066 604.489395 154.780066 
Q 607.318189 154.780066 609.879076 154.449432 
Q 612.439963 154.115679 615.079646 153.404503 
z
" style="fill:#0000ff;"/>
   </g>
   <g id="patch_34">
    <path clip-path="url(#p6417ada9df)" d="M 583.80531 127.3 
L 615.079646 127.3 
L 615.079646 130.244921 
L 603.828158 130.244921 
L 603.828158 142.4 
L 595.078617 142.4 
L 595.078617 130.244921 
L 583.80531 130.244921 
z
" style="fill:#ff0000;"/>
   </g>
   <g id="patch_35">
    <path clip-path="url(#p6417ada9df)" d="M 615.079646 123.201384 
Q 611.925578 125.250692 608.533203 126.280025 
Q 605.140827 127.3 601.524163 127.3 
Q 593.351622 127.3 588.578466 121.198864 
Q 583.80531 115.097728 583.80531 104.664036 
Q 583.80531 94.108697 588.662574 88.054348 
Q 593.526848 82 601.986759 82 
Q 605.245963 82 608.231814 82.823466 
Q 611.224674 83.637575 613.874091 85.247077 
L 613.874091 94.277133 
Q 611.140566 92.20911 608.435076 91.189134 
Q 605.729587 90.159802 603.010079 90.159802 
Q 597.977589 90.159802 595.251072 93.921545 
Q 592.524555 97.673931 592.524555 104.664036 
Q 592.524555 111.588639 595.152945 115.369097 
Q 597.781335 119.140198 602.617573 119.140198 
Q 603.935272 119.140198 605.063728 118.924974 
Q 606.192183 118.700392 607.08934 118.232514 
L 607.08934 109.754555 
L 601.937696 109.754555 
L 601.937696 102.202995 
L 615.079646 102.202995 
z
" style="fill:#ffa600;"/>
   </g>
   <g id="patch_36">
    <path clip-path="url(#p6417ada9df)" d="M 605.46907 70.997 
L 593.441463 70.997 
L 591.542367 82 
L 583.80531 82 
L 594.854595 21.6 
L 604.030361 21.6 
L 615.079646 82 
L 607.348983 82 
z
M 595.359741 59.786884 
L 603.531609 59.786884 
L 599.452069 35.761509 
z
" style="fill:#008000;"/>
   </g>
   <g id="patch_37">
    <path clip-path="url(#p6417ada9df)" d="M 638.389424 151.9985 
L 626.361817 151.9985 
L 624.462721 157.5 
L 616.725664 157.5 
L 627.774949 127.3 
L 636.950715 127.3 
L 648 157.5 
L 640.269337 157.5 
z
M 628.280095 146.393442 
L 636.451963 146.393442 
L 632.372423 134.380754 
z
" style="fill:#008000;"/>
   </g>
   <g id="patch_38">
    <path clip-path="url(#p6417ada9df)" d="M 648 124.567589 
Q 644.845932 125.933795 641.453557 126.620017 
Q 638.061181 127.3 634.444517 127.3 
Q 626.271976 127.3 621.49882 123.232576 
Q 616.725664 119.165152 616.725664 112.209358 
Q 616.725664 105.172464 621.582928 101.136232 
Q 626.447202 97.1 634.907113 97.1 
Q 638.166317 97.1 641.152168 97.648977 
Q 644.145028 98.191717 646.794445 99.264718 
L 646.794445 105.284755 
Q 644.06092 103.906073 641.35543 103.22609 
Q 638.649941 102.539868 635.930433 102.539868 
Q 630.897943 102.539868 628.171426 105.047697 
Q 625.444909 107.549287 625.444909 112.209358 
Q 625.444909 116.825759 628.073299 119.346065 
Q 630.701689 121.860132 635.537927 121.860132 
Q 636.855626 121.860132 637.984082 121.716649 
Q 639.112537 121.566928 640.009694 121.255009 
L 640.009694 115.603037 
L 634.85805 115.603037 
L 634.85805 110.568663 
L 648 110.568663 
z
" style="fill:#ffa600;"/>
   </g>
   <g id="patch_39">
    <path clip-path="url(#p6417ada9df)" d="M 648 91.688205 
Q 645.383956 94.370709 642.555161 95.727556 
Q 639.726366 97.1 636.645422 97.1 
Q 627.457749 97.1 622.091706 86.93144 
Q 616.725664 76.76288 616.725664 59.373394 
Q 616.725664 41.921524 622.091706 31.76856 
Q 627.457749 21.6 636.645422 21.6 
Q 639.726366 21.6 642.555161 22.972444 
Q 645.383956 24.329291 648 27.011795 
L 648 42.061888 
Q 645.360317 38.506011 642.79943 36.85284 
Q 640.238543 35.199669 637.409749 35.199669 
Q 632.335253 35.199669 629.427662 41.640797 
Q 626.52795 48.066329 626.52795 59.373394 
Q 626.52795 70.633671 629.427662 77.074799 
Q 632.335253 83.500331 637.409749 83.500331 
Q 640.238543 83.500331 642.79943 81.84716 
Q 645.360317 80.178393 648 76.622516 
z
" style="fill:#0000ff;"/>
   </g>
  </g>
 </g>
 <defs>
  <clipPath id="p6417ada9df">
   <rect height="135.9" width="558" x="90" y="21.6"/>
  </clipPath>
 </defs>
</svg>
