<?xml version="1.0" encoding="utf-8" standalone="no"?>
<!DOCTYPE svg PUBLIC "-//W3C//DTD SVG 1.1//EN"
  "http://www.w3.org/Graphics/SVG/1.1/DTD/svg11.dtd">
<!-- Created with matplotlib (https://matplotlib.org/) -->
<svg height="180pt" version="1.1" viewBox="0 0 720 180" width="720pt" xmlns="http://www.w3.org/2000/svg" xmlns:xlink="http://www.w3.org/1999/xlink">
 <metadata>
  <rdf:RDF xmlns:cc="http://creativecommons.org/ns#" xmlns:dc="http://purl.org/dc/elements/1.1/" xmlns:rdf="http://www.w3.org/1999/02/22-rdf-syntax-ns#">
   <cc:Work>
    <dc:type rdf:resource="http://purl.org/dc/dcmitype/StillImage"/>
    <dc:date>2021-08-04T23:33:43.818577</dc:date>
    <dc:format>image/svg+xml</dc:format>
    <dc:creator>
     <cc:Agent>
      <dc:title>Matplotlib v3.3.2, https://matplotlib.org/</dc:title>
     </cc:Agent>
    </dc:creator>
   </cc:Work>
  </rdf:RDF>
 </metadata>
 <defs>
  <style type="text/css">*{stroke-linecap:butt;stroke-linejoin:round;}</style>
 </defs>
 <g id="figure_1">
  <g id="patch_1">
   <path d="M 0 180 
L 720 180 
L 720 0 
L 0 0 
z
" style="fill:none;"/>
  </g>
  <g id="axes_1">
   <g id="line2d_1">
    <path clip-path="url(#p50828fe53f)" d="M 90 157.5 
L 648 157.5 
" style="fill:none;stroke:#000000;stroke-linecap:square;stroke-width:0.5;"/>
   </g>
   <g id="patch_2">
    <path clip-path="url(#p50828fe53f)" d="M 121.274336 156.133795 
Q 118.120268 156.816897 114.727893 157.160008 
Q 111.335518 157.5 107.718853 157.5 
Q 99.546312 157.5 94.773156 155.466288 
Q 90 153.432576 90 149.954679 
Q 90 146.436232 94.857265 144.418116 
Q 99.721538 142.4 108.18145 142.4 
Q 111.440653 142.4 114.426504 142.674489 
Q 117.419364 142.945858 120.068781 143.482359 
L 120.068781 146.492378 
Q 117.335256 145.803037 114.629766 145.463045 
Q 111.924277 145.119934 109.204769 145.119934 
Q 104.172279 145.119934 101.445762 146.373848 
Q 98.719246 147.624644 98.719246 149.954679 
Q 98.719246 152.26288 101.347636 153.523032 
Q 103.976026 154.780066 108.812263 154.780066 
Q 110.129963 154.780066 111.258418 154.708325 
Q 112.386874 154.633464 113.284031 154.477505 
L 113.284031 151.651518 
L 108.132386 151.651518 
L 108.132386 149.134332 
L 121.274336 149.134332 
z
" style="fill:#ffa600;"/>
   </g>
   <g id="patch_3">
    <path clip-path="url(#p50828fe53f)" d="M 90 127.3 
L 121.274336 127.3 
L 121.274336 130.244921 
L 110.022848 130.244921 
L 110.022848 142.4 
L 101.273307 142.4 
L 101.273307 130.244921 
L 90 130.244921 
z
" style="fill:#ff0000;"/>
   </g>
   <g id="patch_4">
    <path clip-path="url(#p50828fe53f)" d="M 121.274336 125.135282 
Q 118.658292 126.208283 115.829497 126.751023 
Q 113.000702 127.3 109.919759 127.3 
Q 100.732085 127.3 95.366043 123.232576 
Q 90 119.165152 90 112.209358 
Q 90 105.22861 95.366043 101.167424 
Q 100.732085 97.1 109.919759 97.1 
Q 113.000702 97.1 115.829497 97.648977 
Q 118.658292 98.191717 121.274336 99.264718 
L 121.274336 105.284755 
Q 118.634653 103.862404 116.073766 103.201136 
Q 113.51288 102.539868 110.684085 102.539868 
Q 105.609589 102.539868 102.701998 105.116319 
Q 99.802286 107.686532 99.802286 112.209358 
Q 99.802286 116.713468 102.701998 119.289919 
Q 105.609589 121.860132 110.684085 121.860132 
Q 113.51288 121.860132 116.073766 121.198864 
Q 118.634653 120.531357 121.274336 119.109006 
z
" style="fill:#0000ff;"/>
   </g>
   <g id="patch_5">
    <path clip-path="url(#p50828fe53f)" d="M 111.66376 83.346249 
L 99.636153 83.346249 
L 97.737057 97.1 
L 90 97.1 
L 101.049285 21.6 
L 110.225051 21.6 
L 121.274336 97.1 
L 113.543673 97.1 
z
M 101.554432 69.333605 
L 109.726299 69.333605 
L 105.64676 39.301886 
z
" style="fill:#008000;"/>
   </g>
   <g id="patch_6">
    <path clip-path="url(#p50828fe53f)" d="M 144.584114 154.74925 
L 132.556507 154.74925 
L 130.657411 157.5 
L 122.920354 157.5 
L 133.969639 142.4 
L 143.145405 142.4 
L 154.19469 157.5 
L 146.464027 157.5 
z
M 134.474786 151.946721 
L 142.646653 151.946721 
L 138.567114 145.940377 
z
" style="fill:#008000;"/>
   </g>
   <g id="patch_7">
    <path clip-path="url(#p50828fe53f)" d="M 154.19469 139.667589 
Q 151.040622 141.033795 147.648247 141.720017 
Q 144.255872 142.4 140.639207 142.4 
Q 132.466666 142.4 127.69351 138.332576 
Q 122.920354 134.265152 122.920354 127.309358 
Q 122.920354 120.272464 127.777619 116.236232 
Q 132.641892 112.2 141.101804 112.2 
Q 144.361007 112.2 147.346858 112.748977 
Q 150.339718 113.291717 152.989135 114.364718 
L 152.989135 120.384755 
Q 150.25561 119.006073 147.55012 118.32609 
Q 144.844631 117.639868 142.125123 117.639868 
Q 137.092633 117.639868 134.366116 120.147697 
Q 131.6396 122.649287 131.6396 127.309358 
Q 131.6396 131.925759 134.26799 134.446065 
Q 136.89638 136.960132 141.732617 136.960132 
Q 143.050317 136.960132 144.178772 136.816649 
Q 145.307228 136.666928 146.204385 136.355009 
L 146.204385 130.703037 
L 141.05274 130.703037 
L 141.05274 125.668663 
L 154.19469 125.668663 
z
" style="fill:#ffa600;"/>
   </g>
   <g id="patch_8">
    <path clip-path="url(#p50828fe53f)" d="M 122.920354 82 
L 154.19469 82 
L 154.19469 87.889841 
L 142.943202 87.889841 
L 142.943202 112.2 
L 134.193661 112.2 
L 134.193661 87.889841 
L 122.920354 87.889841 
z
" style="fill:#ff0000;"/>
   </g>
   <g id="patch_9">
    <path clip-path="url(#p50828fe53f)" d="M 154.19469 77.670564 
Q 151.578646 79.816567 148.749851 80.902045 
Q 145.921056 82 142.840113 82 
Q 133.652439 82 128.286397 73.865152 
Q 122.920354 65.730304 122.920354 51.818715 
Q 122.920354 37.85722 128.286397 29.734848 
Q 133.652439 21.6 142.840113 21.6 
Q 145.921056 21.6 148.749851 22.697955 
Q 151.578646 23.783433 154.19469 25.929436 
L 154.19469 37.96951 
Q 151.555007 35.124809 148.99412 33.802272 
Q 146.433234 32.479736 143.604439 32.479736 
Q 138.529943 32.479736 135.622352 37.632638 
Q 132.72264 42.773063 132.72264 51.818715 
Q 132.72264 60.826937 135.622352 65.979839 
Q 138.529943 71.120264 143.604439 71.120264 
Q 146.433234 71.120264 148.99412 69.797728 
Q 151.555007 68.462714 154.19469 65.618013 
z
" style="fill:#0000ff;"/>
   </g>
   <g id="patch_10">
    <path clip-path="url(#p50828fe53f)" d="M 155.840708 142.4 
L 187.115044 142.4 
L 187.115044 145.344921 
L 175.863556 145.344921 
L 175.863556 157.5 
L 167.114015 157.5 
L 167.114015 145.344921 
L 155.840708 145.344921 
z
" style="fill:#ff0000;"/>
   </g>
   <g id="patch_11">
    <path clip-path="url(#p50828fe53f)" d="M 187.115044 139.152923 
Q 184.499 140.762425 181.670205 141.576534 
Q 178.84141 142.4 175.760467 142.4 
Q 166.572793 142.4 161.206751 136.298864 
Q 155.840708 130.197728 155.840708 119.764036 
Q 155.840708 109.292915 161.206751 103.201136 
Q 166.572793 97.1 175.760467 97.1 
Q 178.84141 97.1 181.670205 97.923466 
Q 184.499 98.737575 187.115044 100.347077 
L 187.115044 109.377133 
Q 184.475361 107.243607 181.914474 106.251704 
Q 179.353588 105.259802 176.524793 105.259802 
Q 171.450297 105.259802 168.542706 109.124478 
Q 165.642994 112.979798 165.642994 119.764036 
Q 165.642994 126.520202 168.542706 130.384879 
Q 171.450297 134.240198 176.524793 134.240198 
Q 179.353588 134.240198 181.914474 133.248296 
Q 184.475361 132.247036 187.115044 130.11351 
z
" style="fill:#0000ff;"/>
   </g>
   <g id="patch_12">
    <path clip-path="url(#p50828fe53f)" d="M 177.504468 83.346249 
L 165.476861 83.346249 
L 163.577765 97.1 
L 155.840708 97.1 
L 166.889993 21.6 
L 176.065759 21.6 
L 187.115044 97.1 
L 179.384381 97.1 
z
M 167.39514 69.333605 
L 175.567007 69.333605 
L 171.487467 39.301886 
z
" style="fill:#008000;"/>
   </g>
   <g id="patch_13">
    <path clip-path="url(#p50828fe53f)" d="M 220.035398 156.417641 
Q 217.419354 156.954142 214.590559 157.225511 
Q 211.761764 157.5 208.680821 157.5 
Q 199.493147 157.5 194.127105 155.466288 
Q 188.761062 153.432576 188.761062 149.954679 
Q 188.761062 146.464305 194.127105 144.433712 
Q 199.493147 142.4 208.680821 142.4 
Q 211.761764 142.4 214.590559 142.674489 
Q 217.419354 142.945858 220.035398 143.482359 
L 220.035398 146.492378 
Q 217.395715 145.781202 214.834828 145.450568 
Q 212.273942 145.119934 209.445147 145.119934 
Q 204.370651 145.119934 201.46306 146.408159 
Q 198.563348 147.693266 198.563348 149.954679 
Q 198.563348 152.206734 201.46306 153.49496 
Q 204.370651 154.780066 209.445147 154.780066 
Q 212.273942 154.780066 214.834828 154.449432 
Q 217.395715 154.115679 220.035398 153.404503 
z
" style="fill:#0000ff;"/>
   </g>
   <g id="patch_14">
    <path clip-path="url(#p50828fe53f)" d="M 188.761062 112.2 
L 220.035398 112.2 
L 220.035398 118.089841 
L 208.78391 118.089841 
L 208.78391 142.4 
L 200.034369 142.4 
L 200.034369 118.089841 
L 188.761062 118.089841 
z
" style="fill:#ff0000;"/>
   </g>
   <g id="patch_15">
    <path clip-path="url(#p50828fe53f)" d="M 210.424822 95.695499 
L 198.397215 95.695499 
L 196.498119 112.2 
L 188.761062 112.2 
L 199.810347 21.6 
L 208.986113 21.6 
L 220.035398 112.2 
L 212.304735 112.2 
z
M 200.315494 78.880326 
L 208.487361 78.880326 
L 204.407821 42.842263 
z
" style="fill:#008000;"/>
   </g>
   <g id="patch_16">
    <path clip-path="url(#p50828fe53f)" d="M 252.955752 156.417641 
Q 250.339708 156.954142 247.510913 157.225511 
Q 244.682118 157.5 241.601175 157.5 
Q 232.413501 157.5 227.047459 155.466288 
Q 221.681416 153.432576 221.681416 149.954679 
Q 221.681416 146.464305 227.047459 144.433712 
Q 232.413501 142.4 241.601175 142.4 
Q 244.682118 142.4 247.510913 142.674489 
Q 250.339708 142.945858 252.955752 143.482359 
L 252.955752 146.492378 
Q 250.316069 145.781202 247.755182 145.450568 
Q 245.194296 145.119934 242.365501 145.119934 
Q 237.291005 145.119934 234.383414 146.408159 
Q 231.483702 147.693266 231.483702 149.954679 
Q 231.483702 152.206734 234.383414 153.49496 
Q 237.291005 154.780066 242.365501 154.780066 
Q 245.194296 154.780066 247.755182 154.449432 
Q 250.316069 154.115679 252.955752 153.404503 
z
" style="fill:#0000ff;"/>
   </g>
   <g id="patch_17">
    <path clip-path="url(#p50828fe53f)" d="M 252.955752 138.301384 
Q 249.801684 140.350692 246.409309 141.380025 
Q 243.016934 142.4 239.400269 142.4 
Q 231.227728 142.4 226.454572 136.298864 
Q 221.681416 130.197728 221.681416 119.764036 
Q 221.681416 109.208697 226.538681 103.154348 
Q 231.402954 97.1 239.862866 97.1 
Q 243.122069 97.1 246.10792 97.923466 
Q 249.10078 98.737575 251.750197 100.347077 
L 251.750197 109.377133 
Q 249.016672 107.30911 246.311182 106.289134 
Q 243.605693 105.259802 240.886185 105.259802 
Q 235.853695 105.259802 233.127178 109.021545 
Q 230.400662 112.773931 230.400662 119.764036 
Q 230.400662 126.688639 233.029052 130.469097 
Q 235.657442 134.240198 240.493679 134.240198 
Q 241.811379 134.240198 242.939834 134.024974 
Q 244.06829 133.800392 244.965447 133.332514 
L 244.965447 124.854555 
L 239.813802 124.854555 
L 239.813802 117.302995 
L 252.955752 117.302995 
z
" style="fill:#ffa600;"/>
   </g>
   <g id="patch_18">
    <path clip-path="url(#p50828fe53f)" d="M 243.345176 83.346249 
L 231.317569 83.346249 
L 229.418473 97.1 
L 221.681416 97.1 
L 232.730701 21.6 
L 241.906467 21.6 
L 252.955752 97.1 
L 245.225089 97.1 
z
M 233.235848 69.333605 
L 241.407715 69.333605 
L 237.328175 39.301886 
z
" style="fill:#008000;"/>
   </g>
   <g id="patch_19">
    <path clip-path="url(#p50828fe53f)" d="M 276.26553 154.74925 
L 264.237923 154.74925 
L 262.338827 157.5 
L 254.60177 157.5 
L 265.651055 142.4 
L 274.826821 142.4 
L 285.876106 157.5 
L 278.145443 157.5 
z
M 266.156202 151.946721 
L 274.328069 151.946721 
L 270.248529 145.940377 
z
" style="fill:#008000;"/>
   </g>
   <g id="patch_20">
    <path clip-path="url(#p50828fe53f)" d="M 254.60177 97.1 
L 285.876106 97.1 
L 285.876106 105.934762 
L 274.624618 105.934762 
L 274.624618 142.4 
L 265.875077 142.4 
L 265.875077 105.934762 
L 254.60177 105.934762 
z
" style="fill:#ff0000;"/>
   </g>
   <g id="patch_21">
    <path clip-path="url(#p50828fe53f)" d="M 285.876106 90.268973 
Q 282.722038 93.684487 279.329663 95.400041 
Q 275.937288 97.1 272.320623 97.1 
Q 264.148082 97.1 259.374926 86.93144 
Q 254.60177 76.76288 254.60177 59.373394 
Q 254.60177 41.781161 259.459035 31.69058 
Q 264.323308 21.6 272.78322 21.6 
Q 276.042423 21.6 279.028274 22.972444 
Q 282.021134 24.329291 284.670551 27.011795 
L 284.670551 42.061888 
Q 281.937026 38.615183 279.231536 36.915224 
Q 276.526047 35.199669 273.806539 35.199669 
Q 268.774049 35.199669 266.047532 41.469242 
Q 263.321016 47.723218 263.321016 59.373394 
Q 263.321016 70.914398 265.949406 77.215162 
Q 268.577796 83.500331 273.414033 83.500331 
Q 274.731733 83.500331 275.860188 83.141624 
Q 276.988644 82.767321 277.885801 81.987523 
L 277.885801 67.857591 
L 272.734156 67.857591 
L 272.734156 55.271659 
L 285.876106 55.271659 
z
" style="fill:#ffa600;"/>
   </g>
   <g id="patch_22">
    <path clip-path="url(#p50828fe53f)" d="M 318.79646 156.133795 
Q 315.642392 156.816897 312.250017 157.160008 
Q 308.857642 157.5 305.240977 157.5 
Q 297.068436 157.5 292.29528 155.466288 
Q 287.522124 153.432576 287.522124 149.954679 
Q 287.522124 146.436232 292.379389 144.418116 
Q 297.243662 142.4 305.703574 142.4 
Q 308.962777 142.4 311.948628 142.674489 
Q 314.941488 142.945858 317.590905 143.482359 
L 317.590905 146.492378 
Q 314.85738 145.803037 312.15189 145.463045 
Q 309.446401 145.119934 306.726893 145.119934 
Q 301.694403 145.119934 298.967886 146.373848 
Q 296.24137 147.624644 296.24137 149.954679 
Q 296.24137 152.26288 298.86976 153.523032 
Q 301.49815 154.780066 306.334387 154.780066 
Q 307.652087 154.780066 308.780542 154.708325 
Q 309.908998 154.633464 310.806155 154.477505 
L 310.806155 151.651518 
L 305.65451 151.651518 
L 305.65451 149.134332 
L 318.79646 149.134332 
z
" style="fill:#ffa600;"/>
   </g>
   <g id="patch_23">
    <path clip-path="url(#p50828fe53f)" d="M 287.522124 21.6 
L 318.79646 21.6 
L 318.79646 45.159366 
L 307.544972 45.159366 
L 307.544972 142.4 
L 298.795431 142.4 
L 298.795431 45.159366 
L 287.522124 45.159366 
z
" style="fill:#ff0000;"/>
   </g>
   <g id="patch_24">
    <path clip-path="url(#p50828fe53f)" d="M 320.442478 21.6 
L 351.716814 21.6 
L 351.716814 48.104286 
L 340.465326 48.104286 
L 340.465326 157.5 
L 331.715785 157.5 
L 331.715785 48.104286 
L 320.442478 48.104286 
z
" style="fill:#ff0000;"/>
   </g>
   <g id="patch_25">
    <path clip-path="url(#p50828fe53f)" d="M 353.362832 21.6 
L 384.637168 21.6 
L 384.637168 48.104286 
L 373.38568 48.104286 
L 373.38568 157.5 
L 364.636139 157.5 
L 364.636139 48.104286 
L 353.362832 48.104286 
z
" style="fill:#ff0000;"/>
   </g>
   <g id="patch_26">
    <path clip-path="url(#p50828fe53f)" d="M 407.946946 149.24775 
L 395.919339 149.24775 
L 394.020243 157.5 
L 386.283186 157.5 
L 397.332471 112.2 
L 406.508237 112.2 
L 417.557522 157.5 
L 409.826859 157.5 
z
M 397.837618 140.840163 
L 406.009485 140.840163 
L 401.929945 122.821132 
z
" style="fill:#008000;"/>
   </g>
   <g id="patch_27">
    <path clip-path="url(#p50828fe53f)" d="M 386.283186 21.6 
L 417.557522 21.6 
L 417.557522 39.269524 
L 406.306034 39.269524 
L 406.306034 112.2 
L 397.556493 112.2 
L 397.556493 39.269524 
L 386.283186 39.269524 
z
" style="fill:#ff0000;"/>
   </g>
   <g id="patch_28">
    <path clip-path="url(#p50828fe53f)" d="M 419.20354 127.3 
L 450.477876 127.3 
L 450.477876 133.189841 
L 439.226388 133.189841 
L 439.226388 157.5 
L 430.476847 157.5 
L 430.476847 133.189841 
L 419.20354 133.189841 
z
" style="fill:#ff0000;"/>
   </g>
   <g id="patch_29">
    <path clip-path="url(#p50828fe53f)" d="M 440.8673 119.04775 
L 428.839693 119.04775 
L 426.940597 127.3 
L 419.20354 127.3 
L 430.252825 82 
L 439.428591 82 
L 450.477876 127.3 
L 442.747213 127.3 
z
M 430.757972 110.640163 
L 438.929839 110.640163 
L 434.850299 92.621132 
z
" style="fill:#008000;"/>
   </g>
   <g id="patch_30">
    <path clip-path="url(#p50828fe53f)" d="M 450.477876 77.670564 
Q 447.861832 79.816567 445.033037 80.902045 
Q 442.204242 82 439.123298 82 
Q 429.935625 82 424.569582 73.865152 
Q 419.20354 65.730304 419.20354 51.818715 
Q 419.20354 37.85722 424.569582 29.734848 
Q 429.935625 21.6 439.123298 21.6 
Q 442.204242 21.6 445.033037 22.697955 
Q 447.861832 23.783433 450.477876 25.929436 
L 450.477876 37.96951 
Q 447.838193 35.124809 445.277306 33.802272 
Q 442.71642 32.479736 439.887625 32.479736 
Q 434.813129 32.479736 431.905538 37.632638 
Q 429.005826 42.773063 429.005826 51.818715 
Q 429.005826 60.826937 431.905538 65.979839 
Q 434.813129 71.120264 439.887625 71.120264 
Q 442.71642 71.120264 445.277306 69.797728 
Q 447.838193 68.462714 450.477876 65.618013 
z
" style="fill:#0000ff;"/>
   </g>
   <g id="patch_31">
    <path clip-path="url(#p50828fe53f)" d="M 483.39823 156.417641 
Q 480.782186 156.954142 477.953391 157.225511 
Q 475.124596 157.5 472.043652 157.5 
Q 462.855979 157.5 457.489936 155.466288 
Q 452.123894 153.432576 452.123894 149.954679 
Q 452.123894 146.464305 457.489936 144.433712 
Q 462.855979 142.4 472.043652 142.4 
Q 475.124596 142.4 477.953391 142.674489 
Q 480.782186 142.945858 483.39823 143.482359 
L 483.39823 146.492378 
Q 480.758547 145.781202 478.19766 145.450568 
Q 475.636773 145.119934 472.807979 145.119934 
Q 467.733483 145.119934 464.825892 146.408159 
Q 461.92618 147.693266 461.92618 149.954679 
Q 461.92618 152.206734 464.825892 153.49496 
Q 467.733483 154.780066 472.807979 154.780066 
Q 475.636773 154.780066 478.19766 154.449432 
Q 480.758547 154.115679 483.39823 153.404503 
z
" style="fill:#0000ff;"/>
   </g>
   <g id="patch_32">
    <path clip-path="url(#p50828fe53f)" d="M 452.123894 127.3 
L 483.39823 127.3 
L 483.39823 130.244921 
L 472.146742 130.244921 
L 472.146742 142.4 
L 463.397201 142.4 
L 463.397201 130.244921 
L 452.123894 130.244921 
z
" style="fill:#ff0000;"/>
   </g>
   <g id="patch_33">
    <path clip-path="url(#p50828fe53f)" d="M 473.787654 119.04775 
L 461.760047 119.04775 
L 459.860951 127.3 
L 452.123894 127.3 
L 463.173179 82 
L 472.348945 82 
L 483.39823 127.3 
L 475.667567 127.3 
z
M 463.678326 110.640163 
L 471.850193 110.640163 
L 467.770653 92.621132 
z
" style="fill:#008000;"/>
   </g>
   <g id="patch_34">
    <path clip-path="url(#p50828fe53f)" d="M 483.39823 76.535179 
Q 480.244162 79.267589 476.851787 80.640033 
Q 473.459411 82 469.842747 82 
Q 461.670206 82 456.89705 73.865152 
Q 452.123894 65.730304 452.123894 51.818715 
Q 452.123894 37.744929 456.981158 29.672464 
Q 461.845432 21.6 470.305343 21.6 
Q 473.564547 21.6 476.550398 22.697955 
Q 479.543258 23.783433 482.192675 25.929436 
L 482.192675 37.96951 
Q 479.45915 35.212146 476.75366 33.852179 
Q 474.048171 32.479736 471.328663 32.479736 
Q 466.296173 32.479736 463.569656 37.495394 
Q 460.84314 42.498575 460.84314 51.818715 
Q 460.84314 61.051518 463.471529 66.09213 
Q 466.099919 71.120264 470.936157 71.120264 
Q 472.253857 71.120264 473.382312 70.833299 
Q 474.510767 70.533857 475.407925 69.910019 
L 475.407925 58.606073 
L 470.25628 58.606073 
L 470.25628 48.537327 
L 483.39823 48.537327 
z
" style="fill:#ffa600;"/>
   </g>
   <g id="patch_35">
    <path clip-path="url(#p50828fe53f)" d="M 516.318584 156.417641 
Q 513.70254 156.954142 510.873745 157.225511 
Q 508.04495 157.5 504.964006 157.5 
Q 495.776333 157.5 490.41029 155.466288 
Q 485.044248 153.432576 485.044248 149.954679 
Q 485.044248 146.464305 490.41029 144.433712 
Q 495.776333 142.4 504.964006 142.4 
Q 508.04495 142.4 510.873745 142.674489 
Q 513.70254 142.945858 516.318584 143.482359 
L 516.318584 146.492378 
Q 513.678901 145.781202 511.118014 145.450568 
Q 508.557127 145.119934 505.728333 145.119934 
Q 500.653837 145.119934 497.746246 146.408159 
Q 494.846534 147.693266 494.846534 149.954679 
Q 494.846534 152.206734 497.746246 153.49496 
Q 500.653837 154.780066 505.728333 154.780066 
Q 508.557127 154.780066 511.118014 154.449432 
Q 513.678901 154.115679 516.318584 153.404503 
z
" style="fill:#0000ff;"/>
   </g>
   <g id="patch_36">
    <path clip-path="url(#p50828fe53f)" d="M 516.318584 139.667589 
Q 513.164516 141.033795 509.772141 141.720017 
Q 506.379765 142.4 502.763101 142.4 
Q 494.59056 142.4 489.817404 138.332576 
Q 485.044248 134.265152 485.044248 127.309358 
Q 485.044248 120.272464 489.901512 116.236232 
Q 494.765786 112.2 503.225697 112.2 
Q 506.484901 112.2 509.470752 112.748977 
Q 512.463612 113.291717 515.113029 114.364718 
L 515.113029 120.384755 
Q 512.379504 119.006073 509.674014 118.32609 
Q 506.968525 117.639868 504.249017 117.639868 
Q 499.216527 117.639868 496.49001 120.147697 
Q 493.763493 122.649287 493.763493 127.309358 
Q 493.763493 131.925759 496.391883 134.446065 
Q 499.020273 136.960132 503.856511 136.960132 
Q 505.174211 136.960132 506.302666 136.816649 
Q 507.431121 136.666928 508.328279 136.355009 
L 508.328279 130.703037 
L 503.176634 130.703037 
L 503.176634 125.668663 
L 516.318584 125.668663 
z
" style="fill:#ffa600;"/>
   </g>
   <g id="patch_37">
    <path clip-path="url(#p50828fe53f)" d="M 485.044248 21.6 
L 516.318584 21.6 
L 516.318584 39.269524 
L 505.067096 39.269524 
L 505.067096 112.2 
L 496.317555 112.2 
L 496.317555 39.269524 
L 485.044248 39.269524 
z
" style="fill:#ff0000;"/>
   </g>
   <g id="patch_38">
    <path clip-path="url(#p50828fe53f)" d="M 517.964602 142.4 
L 549.238938 142.4 
L 549.238938 145.344921 
L 537.98745 145.344921 
L 537.98745 157.5 
L 529.237909 157.5 
L 529.237909 145.344921 
L 517.964602 145.344921 
z
" style="fill:#ff0000;"/>
   </g>
   <g id="patch_39">
    <path clip-path="url(#p50828fe53f)" d="M 549.238938 140.235282 
Q 546.622894 141.308283 543.794099 141.851023 
Q 540.965304 142.4 537.88436 142.4 
Q 528.696687 142.4 523.330644 138.332576 
Q 517.964602 134.265152 517.964602 127.309358 
Q 517.964602 120.32861 523.330644 116.267424 
Q 528.696687 112.2 537.88436 112.2 
Q 540.965304 112.2 543.794099 112.748977 
Q 546.622894 113.291717 549.238938 114.364718 
L 549.238938 120.384755 
Q 546.599255 118.962404 544.038368 118.301136 
Q 541.477481 117.639868 538.648687 117.639868 
Q 533.574191 117.639868 530.6666 120.216319 
Q 527.766888 122.786532 527.766888 127.309358 
Q 527.766888 131.813468 530.6666 134.389919 
Q 533.574191 136.960132 538.648687 136.960132 
Q 541.477481 136.960132 544.038368 136.298864 
Q 546.599255 135.631357 549.238938 134.209006 
z
" style="fill:#0000ff;"/>
   </g>
   <g id="patch_40">
    <path clip-path="url(#p50828fe53f)" d="M 539.628362 103.94775 
L 527.600755 103.94775 
L 525.701659 112.2 
L 517.964602 112.2 
L 529.013887 66.9 
L 538.189653 66.9 
L 549.238938 112.2 
L 541.508275 112.2 
z
M 529.519034 95.540163 
L 537.690901 95.540163 
L 533.611361 77.521132 
z
" style="fill:#008000;"/>
   </g>
   <g id="patch_41">
    <path clip-path="url(#p50828fe53f)" d="M 549.238938 62.801384 
Q 546.08487 64.850692 542.692495 65.880025 
Q 539.300119 66.9 535.683455 66.9 
Q 527.510914 66.9 522.737758 60.798864 
Q 517.964602 54.697728 517.964602 44.264036 
Q 517.964602 33.708697 522.821866 27.654348 
Q 527.68614 21.6 536.146051 21.6 
Q 539.405255 21.6 542.391106 22.423466 
Q 545.383966 23.237575 548.033383 24.847077 
L 548.033383 33.877133 
Q 545.299858 31.80911 542.594368 30.789134 
Q 539.888879 29.759802 537.169371 29.759802 
Q 532.136881 29.759802 529.410364 33.521545 
Q 526.683847 37.273931 526.683847 44.264036 
Q 526.683847 51.188639 529.312237 54.969097 
Q 531.940627 58.740198 536.776865 58.740198 
Q 538.094565 58.740198 539.22302 58.524974 
Q 540.351475 58.300392 541.248633 57.832514 
L 541.248633 49.354555 
L 536.096988 49.354555 
L 536.096988 41.802995 
L 549.238938 41.802995 
z
" style="fill:#ffa600;"/>
   </g>
   <g id="patch_42">
    <path clip-path="url(#p50828fe53f)" d="M 582.159292 156.133795 
Q 579.005224 156.816897 575.612849 157.160008 
Q 572.220473 157.5 568.603809 157.5 
Q 560.431268 157.5 555.658112 155.466288 
Q 550.884956 153.432576 550.884956 149.954679 
Q 550.884956 146.436232 555.74222 144.418116 
Q 560.606494 142.4 569.066405 142.4 
Q 572.325609 142.4 575.31146 142.674489 
Q 578.30432 142.945858 580.953737 143.482359 
L 580.953737 146.492378 
Q 578.220212 145.803037 575.514722 145.463045 
Q 572.809233 145.119934 570.089725 145.119934 
Q 565.057235 145.119934 562.330718 146.373848 
Q 559.604201 147.624644 559.604201 149.954679 
Q 559.604201 152.26288 562.232591 153.523032 
Q 564.860981 154.780066 569.697219 154.780066 
Q 571.014919 154.780066 572.143374 154.708325 
Q 573.271829 154.633464 574.168986 154.477505 
L 574.168986 151.651518 
L 569.017342 151.651518 
L 569.017342 149.134332 
L 582.159292 149.134332 
z
" style="fill:#ffa600;"/>
   </g>
   <g id="patch_43">
    <path clip-path="url(#p50828fe53f)" d="M 572.548716 136.8985 
L 560.521109 136.8985 
L 558.622013 142.4 
L 550.884956 142.4 
L 561.934241 112.2 
L 571.110007 112.2 
L 582.159292 142.4 
L 574.428629 142.4 
z
M 562.439387 131.293442 
L 570.611255 131.293442 
L 566.531715 119.280754 
z
" style="fill:#008000;"/>
   </g>
   <g id="patch_44">
    <path clip-path="url(#p50828fe53f)" d="M 550.884956 21.6 
L 582.159292 21.6 
L 582.159292 39.269524 
L 570.907804 39.269524 
L 570.907804 112.2 
L 562.158263 112.2 
L 562.158263 39.269524 
L 550.884956 39.269524 
z
" style="fill:#ff0000;"/>
   </g>
   <g id="patch_45">
    <path clip-path="url(#p50828fe53f)" d="M 615.079646 156.417641 
Q 612.463602 156.954142 609.634807 157.225511 
Q 606.806012 157.5 603.725068 157.5 
Q 594.537395 157.5 589.171352 155.466288 
Q 583.80531 153.432576 583.80531 149.954679 
Q 583.80531 146.464305 589.171352 144.433712 
Q 594.537395 142.4 603.725068 142.4 
Q 606.806012 142.4 609.634807 142.674489 
Q 612.463602 142.945858 615.079646 143.482359 
L 615.079646 146.492378 
Q 612.439963 145.781202 609.879076 145.450568 
Q 607.318189 145.119934 604.489395 145.119934 
Q 599.414899 145.119934 596.507308 146.408159 
Q 593.607596 147.693266 593.607596 149.954679 
Q 593.607596 152.206734 596.507308 153.49496 
Q 599.414899 154.780066 604.489395 154.780066 
Q 607.318189 154.780066 609.879076 154.449432 
Q 612.439963 154.115679 615.079646 153.404503 
z
" style="fill:#0000ff;"/>
   </g>
   <g id="patch_46">
    <path clip-path="url(#p50828fe53f)" d="M 583.80531 127.3 
L 615.079646 127.3 
L 615.079646 130.244921 
L 603.828158 130.244921 
L 603.828158 142.4 
L 595.078617 142.4 
L 595.078617 130.244921 
L 583.80531 130.244921 
z
" style="fill:#ff0000;"/>
   </g>
   <g id="patch_47">
    <path clip-path="url(#p50828fe53f)" d="M 615.079646 124.567589 
Q 611.925578 125.933795 608.533203 126.620017 
Q 605.140827 127.3 601.524163 127.3 
Q 593.351622 127.3 588.578466 123.232576 
Q 583.80531 119.165152 583.80531 112.209358 
Q 583.80531 105.172464 588.662574 101.136232 
Q 593.526848 97.1 601.986759 97.1 
Q 605.245963 97.1 608.231814 97.648977 
Q 611.224674 98.191717 613.874091 99.264718 
L 613.874091 105.284755 
Q 611.140566 103.906073 608.435076 103.22609 
Q 605.729587 102.539868 603.010079 102.539868 
Q 597.977589 102.539868 595.251072 105.047697 
Q 592.524555 107.549287 592.524555 112.209358 
Q 592.524555 116.825759 595.152945 119.346065 
Q 597.781335 121.860132 602.617573 121.860132 
Q 603.935272 121.860132 605.063728 121.716649 
Q 606.192183 121.566928 607.08934 121.255009 
L 607.08934 115.603037 
L 601.937696 115.603037 
L 601.937696 110.568663 
L 615.079646 110.568663 
z
" style="fill:#ffa600;"/>
   </g>
   <g id="patch_48">
    <path clip-path="url(#p50828fe53f)" d="M 605.46907 83.346249 
L 593.441463 83.346249 
L 591.542367 97.1 
L 583.80531 97.1 
L 594.854595 21.6 
L 604.030361 21.6 
L 615.079646 97.1 
L 607.348983 97.1 
z
M 595.359741 69.333605 
L 603.531609 69.333605 
L 599.452069 39.301886 
z
" style="fill:#008000;"/>
   </g>
   <g id="patch_49">
    <path clip-path="url(#p50828fe53f)" d="M 616.725664 142.4 
L 648 142.4 
L 648 145.344921 
L 636.748512 145.344921 
L 636.748512 157.5 
L 627.998971 157.5 
L 627.998971 145.344921 
L 616.725664 145.344921 
z
" style="fill:#ff0000;"/>
   </g>
   <g id="patch_50">
    <path clip-path="url(#p50828fe53f)" d="M 648 139.667589 
Q 644.845932 141.033795 641.453557 141.720017 
Q 638.061181 142.4 634.444517 142.4 
Q 626.271976 142.4 621.49882 138.332576 
Q 616.725664 134.265152 616.725664 127.309358 
Q 616.725664 120.272464 621.582928 116.236232 
Q 626.447202 112.2 634.907113 112.2 
Q 638.166317 112.2 641.152168 112.748977 
Q 644.145028 113.291717 646.794445 114.364718 
L 646.794445 120.384755 
Q 644.06092 119.006073 641.35543 118.32609 
Q 638.649941 117.639868 635.930433 117.639868 
Q 630.897943 117.639868 628.171426 120.147697 
Q 625.444909 122.649287 625.444909 127.309358 
Q 625.444909 131.925759 628.073299 134.446065 
Q 630.701689 136.960132 635.537927 136.960132 
Q 636.855626 136.960132 637.984082 136.816649 
Q 639.112537 136.666928 640.009694 136.355009 
L 640.009694 130.703037 
L 634.85805 130.703037 
L 634.85805 125.668663 
L 648 125.668663 
z
" style="fill:#ffa600;"/>
   </g>
   <g id="patch_51">
    <path clip-path="url(#p50828fe53f)" d="M 638.389424 103.94775 
L 626.361817 103.94775 
L 624.462721 112.2 
L 616.725664 112.2 
L 627.774949 66.9 
L 636.950715 66.9 
L 648 112.2 
L 640.269337 112.2 
z
M 628.280095 95.540163 
L 636.451963 95.540163 
L 632.372423 77.521132 
z
" style="fill:#008000;"/>
   </g>
   <g id="patch_52">
    <path clip-path="url(#p50828fe53f)" d="M 648 63.652923 
Q 645.383956 65.262425 642.555161 66.076534 
Q 639.726366 66.9 636.645422 66.9 
Q 627.457749 66.9 622.091706 60.798864 
Q 616.725664 54.697728 616.725664 44.264036 
Q 616.725664 33.792915 622.091706 27.701136 
Q 627.457749 21.6 636.645422 21.6 
Q 639.726366 21.6 642.555161 22.423466 
Q 645.383956 23.237575 648 24.847077 
L 648 33.877133 
Q 645.360317 31.743607 642.79943 30.751704 
Q 640.238543 29.759802 637.409749 29.759802 
Q 632.335253 29.759802 629.427662 33.624478 
Q 626.52795 37.479798 626.52795 44.264036 
Q 626.52795 51.020202 629.427662 54.884879 
Q 632.335253 58.740198 637.409749 58.740198 
Q 640.238543 58.740198 642.79943 57.748296 
Q 645.360317 56.747036 648 54.61351 
z
" style="fill:#0000ff;"/>
   </g>
  </g>
 </g>
 <defs>
  <clipPath id="p50828fe53f">
   <rect height="135.9" width="558" x="90" y="21.6"/>
  </clipPath>
 </defs>
</svg>
