<?xml version="1.0" encoding="utf-8" standalone="no"?>
<!DOCTYPE svg PUBLIC "-//W3C//DTD SVG 1.1//EN"
  "http://www.w3.org/Graphics/SVG/1.1/DTD/svg11.dtd">
<!-- Created with matplotlib (https://matplotlib.org/) -->
<svg height="180pt" version="1.1" viewBox="0 0 720 180" width="720pt" xmlns="http://www.w3.org/2000/svg" xmlns:xlink="http://www.w3.org/1999/xlink">
 <metadata>
  <rdf:RDF xmlns:cc="http://creativecommons.org/ns#" xmlns:dc="http://purl.org/dc/elements/1.1/" xmlns:rdf="http://www.w3.org/1999/02/22-rdf-syntax-ns#">
   <cc:Work>
    <dc:type rdf:resource="http://purl.org/dc/dcmitype/StillImage"/>
    <dc:date>2021-08-04T23:33:21.906393</dc:date>
    <dc:format>image/svg+xml</dc:format>
    <dc:creator>
     <cc:Agent>
      <dc:title>Matplotlib v3.3.2, https://matplotlib.org/</dc:title>
     </cc:Agent>
    </dc:creator>
   </cc:Work>
  </rdf:RDF>
 </metadata>
 <defs>
  <style type="text/css">*{stroke-linecap:butt;stroke-linejoin:round;}</style>
 </defs>
 <g id="figure_1">
  <g id="patch_1">
   <path d="M 0 180 
L 720 180 
L 720 0 
L 0 0 
z
" style="fill:none;"/>
  </g>
  <g id="axes_1">
   <g id="line2d_1">
    <path clip-path="url(#p9cb6b29713)" d="M 90 157.5 
L 648 157.5 
" style="fill:none;stroke:#000000;stroke-linecap:square;stroke-width:0.5;"/>
   </g>
   <g id="patch_2">
    <path clip-path="url(#p9cb6b29713)" d="M 121.274336 156.417641 
Q 118.658292 156.954142 115.829497 157.225511 
Q 113.000702 157.5 109.919759 157.5 
Q 100.732085 157.5 95.366043 155.466288 
Q 90 153.432576 90 149.954679 
Q 90 146.464305 95.366043 144.433712 
Q 100.732085 142.4 109.919759 142.4 
Q 113.000702 142.4 115.829497 142.674489 
Q 118.658292 142.945858 121.274336 143.482359 
L 121.274336 146.492378 
Q 118.634653 145.781202 116.073766 145.450568 
Q 113.51288 145.119934 110.684085 145.119934 
Q 105.609589 145.119934 102.701998 146.408159 
Q 99.802286 147.693266 99.802286 149.954679 
Q 99.802286 152.206734 102.701998 153.49496 
Q 105.609589 154.780066 110.684085 154.780066 
Q 113.51288 154.780066 116.073766 154.449432 
Q 118.634653 154.115679 121.274336 153.404503 
z
" style="fill:#0000ff;"/>
   </g>
   <g id="patch_3">
    <path clip-path="url(#p9cb6b29713)" d="M 121.274336 139.667589 
Q 118.120268 141.033795 114.727893 141.720017 
Q 111.335518 142.4 107.718853 142.4 
Q 99.546312 142.4 94.773156 138.332576 
Q 90 134.265152 90 127.309358 
Q 90 120.272464 94.857265 116.236232 
Q 99.721538 112.2 108.18145 112.2 
Q 111.440653 112.2 114.426504 112.748977 
Q 117.419364 113.291717 120.068781 114.364718 
L 120.068781 120.384755 
Q 117.335256 119.006073 114.629766 118.32609 
Q 111.924277 117.639868 109.204769 117.639868 
Q 104.172279 117.639868 101.445762 120.147697 
Q 98.719246 122.649287 98.719246 127.309358 
Q 98.719246 131.925759 101.347636 134.446065 
Q 103.976026 136.960132 108.812263 136.960132 
Q 110.129963 136.960132 111.258418 136.816649 
Q 112.386874 136.666928 113.284031 136.355009 
L 113.284031 130.703037 
L 108.132386 130.703037 
L 108.132386 125.668663 
L 121.274336 125.668663 
z
" style="fill:#ffa600;"/>
   </g>
   <g id="patch_4">
    <path clip-path="url(#p9cb6b29713)" d="M 111.66376 101.197 
L 99.636153 101.197 
L 97.737057 112.2 
L 90 112.2 
L 101.049285 51.8 
L 110.225051 51.8 
L 121.274336 112.2 
L 113.543673 112.2 
z
M 101.554432 89.986884 
L 109.726299 89.986884 
L 105.64676 65.961509 
z
" style="fill:#008000;"/>
   </g>
   <g id="patch_5">
    <path clip-path="url(#p9cb6b29713)" d="M 154.19469 156.417641 
Q 151.578646 156.954142 148.749851 157.225511 
Q 145.921056 157.5 142.840113 157.5 
Q 133.652439 157.5 128.286397 155.466288 
Q 122.920354 153.432576 122.920354 149.954679 
Q 122.920354 146.464305 128.286397 144.433712 
Q 133.652439 142.4 142.840113 142.4 
Q 145.921056 142.4 148.749851 142.674489 
Q 151.578646 142.945858 154.19469 143.482359 
L 154.19469 146.492378 
Q 151.555007 145.781202 148.99412 145.450568 
Q 146.433234 145.119934 143.604439 145.119934 
Q 138.529943 145.119934 135.622352 146.408159 
Q 132.72264 147.693266 132.72264 149.954679 
Q 132.72264 152.206734 135.622352 153.49496 
Q 138.529943 154.780066 143.604439 154.780066 
Q 146.433234 154.780066 148.99412 154.449432 
Q 151.555007 154.115679 154.19469 153.404503 
z
" style="fill:#0000ff;"/>
   </g>
   <g id="patch_6">
    <path clip-path="url(#p9cb6b29713)" d="M 122.920354 127.3 
L 154.19469 127.3 
L 154.19469 130.244921 
L 142.943202 130.244921 
L 142.943202 142.4 
L 134.193661 142.4 
L 134.193661 130.244921 
L 122.920354 130.244921 
z
" style="fill:#ff0000;"/>
   </g>
   <g id="patch_7">
    <path clip-path="url(#p9cb6b29713)" d="M 144.584114 113.546249 
L 132.556507 113.546249 
L 130.657411 127.3 
L 122.920354 127.3 
L 133.969639 51.8 
L 143.145405 51.8 
L 154.19469 127.3 
L 146.464027 127.3 
z
M 134.474786 99.533605 
L 142.646653 99.533605 
L 138.567114 69.501886 
z
" style="fill:#008000;"/>
   </g>
   <g id="patch_8">
    <path clip-path="url(#p9cb6b29713)" d="M 177.504468 151.9985 
L 165.476861 151.9985 
L 163.577765 157.5 
L 155.840708 157.5 
L 166.889993 127.3 
L 176.065759 127.3 
L 187.115044 157.5 
L 179.384381 157.5 
z
M 167.39514 146.393442 
L 175.567007 146.393442 
L 171.487467 134.380754 
z
" style="fill:#008000;"/>
   </g>
   <g id="patch_9">
    <path clip-path="url(#p9cb6b29713)" d="M 187.115044 125.135282 
Q 184.499 126.208283 181.670205 126.751023 
Q 178.84141 127.3 175.760467 127.3 
Q 166.572793 127.3 161.206751 123.232576 
Q 155.840708 119.165152 155.840708 112.209358 
Q 155.840708 105.22861 161.206751 101.167424 
Q 166.572793 97.1 175.760467 97.1 
Q 178.84141 97.1 181.670205 97.648977 
Q 184.499 98.191717 187.115044 99.264718 
L 187.115044 105.284755 
Q 184.475361 103.862404 181.914474 103.201136 
Q 179.353588 102.539868 176.524793 102.539868 
Q 171.450297 102.539868 168.542706 105.116319 
Q 165.642994 107.686532 165.642994 112.209358 
Q 165.642994 116.713468 168.542706 119.289919 
Q 171.450297 121.860132 176.524793 121.860132 
Q 179.353588 121.860132 181.914474 121.198864 
Q 184.475361 120.531357 187.115044 119.109006 
z
" style="fill:#0000ff;"/>
   </g>
   <g id="patch_10">
    <path clip-path="url(#p9cb6b29713)" d="M 187.115044 93.001384 
Q 183.960976 95.050692 180.568601 96.080025 
Q 177.176226 97.1 173.559561 97.1 
Q 165.38702 97.1 160.613864 90.998864 
Q 155.840708 84.897728 155.840708 74.464036 
Q 155.840708 63.908697 160.697973 57.854348 
Q 165.562246 51.8 174.022158 51.8 
Q 177.281361 51.8 180.267212 52.623466 
Q 183.260072 53.437575 185.909489 55.047077 
L 185.909489 64.077133 
Q 183.175964 62.00911 180.470474 60.989134 
Q 177.764985 59.959802 175.045477 59.959802 
Q 170.012987 59.959802 167.28647 63.721545 
Q 164.559954 67.473931 164.559954 74.464036 
Q 164.559954 81.388639 167.188344 85.169097 
Q 169.816734 88.940198 174.652971 88.940198 
Q 175.970671 88.940198 177.099126 88.724974 
Q 178.227582 88.500392 179.124739 88.032514 
L 179.124739 79.554555 
L 173.973094 79.554555 
L 173.973094 72.002995 
L 187.115044 72.002995 
z
" style="fill:#ffa600;"/>
   </g>
   <g id="patch_11">
    <path clip-path="url(#p9cb6b29713)" d="M 210.424822 138.244749 
L 198.397215 138.244749 
L 196.498119 157.5 
L 188.761062 157.5 
L 199.810347 51.8 
L 208.986113 51.8 
L 220.035398 157.5 
L 212.304735 157.5 
z
M 200.315494 118.627047 
L 208.487361 118.627047 
L 204.407821 76.58264 
z
" style="fill:#008000;"/>
   </g>
   <g id="patch_12">
    <path clip-path="url(#p9cb6b29713)" d="M 221.681416 51.8 
L 252.955752 51.8 
L 252.955752 72.414445 
L 241.704264 72.414445 
L 241.704264 157.5 
L 232.954723 157.5 
L 232.954723 72.414445 
L 221.681416 72.414445 
z
" style="fill:#ff0000;"/>
   </g>
   <g id="patch_13">
    <path clip-path="url(#p9cb6b29713)" d="M 285.876106 147.936563 
Q 282.722038 152.718281 279.329663 155.120058 
Q 275.937288 157.5 272.320623 157.5 
Q 264.148082 157.5 259.374926 143.264016 
Q 254.60177 129.028031 254.60177 104.682751 
Q 254.60177 80.053625 259.459035 65.926813 
Q 264.323308 51.8 272.78322 51.8 
Q 276.042423 51.8 279.028274 53.721421 
Q 282.021134 55.621008 284.670551 59.376513 
L 284.670551 80.446643 
Q 281.937026 75.621256 279.231536 73.241314 
Q 276.526047 70.839537 273.806539 70.839537 
Q 268.774049 70.839537 266.047532 79.616939 
Q 263.321016 88.372506 263.321016 104.682751 
Q 263.321016 120.840157 265.949406 129.661227 
Q 268.577796 138.460463 273.414033 138.460463 
Q 274.731733 138.460463 275.860188 137.958273 
Q 276.988644 137.434249 277.885801 136.342533 
L 277.885801 116.560628 
L 272.734156 116.560628 
L 272.734156 98.940322 
L 285.876106 98.940322 
z
" style="fill:#ffa600;"/>
   </g>
   <g id="patch_14">
    <path clip-path="url(#p9cb6b29713)" d="M 309.185884 151.9985 
L 297.158277 151.9985 
L 295.259181 157.5 
L 287.522124 157.5 
L 298.571409 127.3 
L 307.747175 127.3 
L 318.79646 157.5 
L 311.065797 157.5 
z
M 299.076556 146.393442 
L 307.248423 146.393442 
L 303.168883 134.380754 
z
" style="fill:#008000;"/>
   </g>
   <g id="patch_15">
    <path clip-path="url(#p9cb6b29713)" d="M 318.79646 120.468973 
Q 315.642392 123.884487 312.250017 125.600041 
Q 308.857642 127.3 305.240977 127.3 
Q 297.068436 127.3 292.29528 117.13144 
Q 287.522124 106.96288 287.522124 89.573394 
Q 287.522124 71.981161 292.379389 61.89058 
Q 297.243662 51.8 305.703574 51.8 
Q 308.962777 51.8 311.948628 53.172444 
Q 314.941488 54.529291 317.590905 57.211795 
L 317.590905 72.261888 
Q 314.85738 68.815183 312.15189 67.115224 
Q 309.446401 65.399669 306.726893 65.399669 
Q 301.694403 65.399669 298.967886 71.669242 
Q 296.24137 77.923218 296.24137 89.573394 
Q 296.24137 101.114398 298.86976 107.415162 
Q 301.49815 113.700331 306.334387 113.700331 
Q 307.652087 113.700331 308.780542 113.341624 
Q 309.908998 112.967321 310.806155 112.187523 
L 310.806155 98.057591 
L 305.65451 98.057591 
L 305.65451 85.471659 
L 318.79646 85.471659 
z
" style="fill:#ffa600;"/>
   </g>
   <g id="patch_16">
    <path clip-path="url(#p9cb6b29713)" d="M 342.106238 154.74925 
L 330.078631 154.74925 
L 328.179535 157.5 
L 320.442478 157.5 
L 331.491763 142.4 
L 340.667529 142.4 
L 351.716814 157.5 
L 343.986151 157.5 
z
M 331.99691 151.946721 
L 340.168777 151.946721 
L 336.089237 145.940377 
z
" style="fill:#008000;"/>
   </g>
   <g id="patch_17">
    <path clip-path="url(#p9cb6b29713)" d="M 351.716814 133.741128 
Q 349.10077 138.033134 346.271975 140.20409 
Q 343.44318 142.4 340.362237 142.4 
Q 331.174563 142.4 325.80852 126.130304 
Q 320.442478 109.860607 320.442478 82.03743 
Q 320.442478 54.114439 325.80852 37.869696 
Q 331.174563 21.6 340.362237 21.6 
Q 343.44318 21.6 346.271975 23.79591 
Q 349.10077 25.966866 351.716814 30.258872 
L 351.716814 54.339021 
Q 349.077131 48.649618 346.516244 46.004545 
Q 343.955358 43.359471 341.126563 43.359471 
Q 336.052067 43.359471 333.144476 53.665276 
Q 330.244764 63.946127 330.244764 82.03743 
Q 330.244764 100.053873 333.144476 110.359678 
Q 336.052067 120.640529 341.126563 120.640529 
Q 343.955358 120.640529 346.516244 117.995455 
Q 349.077131 115.325429 351.716814 109.636026 
z
" style="fill:#0000ff;"/>
   </g>
   <g id="patch_18">
    <path clip-path="url(#p9cb6b29713)" d="M 384.637168 156.133795 
Q 381.4831 156.816897 378.090725 157.160008 
Q 374.698349 157.5 371.081685 157.5 
Q 362.909144 157.5 358.135988 155.466288 
Q 353.362832 153.432576 353.362832 149.954679 
Q 353.362832 146.436232 358.220097 144.418116 
Q 363.08437 142.4 371.544282 142.4 
Q 374.803485 142.4 377.789336 142.674489 
Q 380.782196 142.945858 383.431613 143.482359 
L 383.431613 146.492378 
Q 380.698088 145.803037 377.992598 145.463045 
Q 375.287109 145.119934 372.567601 145.119934 
Q 367.535111 145.119934 364.808594 146.373848 
Q 362.082078 147.624644 362.082078 149.954679 
Q 362.082078 152.26288 364.710468 153.523032 
Q 367.338858 154.780066 372.175095 154.780066 
Q 373.492795 154.780066 374.62125 154.708325 
Q 375.749705 154.633464 376.646863 154.477505 
L 376.646863 151.651518 
L 371.495218 151.651518 
L 371.495218 149.134332 
L 384.637168 149.134332 
z
" style="fill:#ffa600;"/>
   </g>
   <g id="patch_19">
    <path clip-path="url(#p9cb6b29713)" d="M 353.362832 112.2 
L 384.637168 112.2 
L 384.637168 118.089841 
L 373.38568 118.089841 
L 373.38568 142.4 
L 364.636139 142.4 
L 364.636139 118.089841 
L 353.362832 118.089841 
z
" style="fill:#ff0000;"/>
   </g>
   <g id="patch_20">
    <path clip-path="url(#p9cb6b29713)" d="M 384.637168 105.705846 
Q 382.021124 108.92485 379.192329 110.553068 
Q 376.363534 112.2 373.282591 112.2 
Q 364.094917 112.2 358.728874 99.997728 
Q 353.362832 87.795455 353.362832 66.928073 
Q 353.362832 45.985829 358.728874 33.802272 
Q 364.094917 21.6 373.282591 21.6 
Q 376.363534 21.6 379.192329 23.246932 
Q 382.021124 24.87515 384.637168 28.094154 
L 384.637168 46.154266 
Q 381.997485 41.887213 379.436598 39.903408 
Q 376.875712 37.919603 374.046917 37.919603 
Q 368.972421 37.919603 366.06483 45.648957 
Q 363.165118 53.359595 363.165118 66.928073 
Q 363.165118 80.440405 366.06483 88.169758 
Q 368.972421 95.880397 374.046917 95.880397 
Q 376.875712 95.880397 379.436598 93.896592 
Q 381.997485 91.894071 384.637168 87.627019 
z
" style="fill:#0000ff;"/>
   </g>
   <g id="patch_21">
    <path clip-path="url(#p9cb6b29713)" d="M 386.283186 142.4 
L 417.557522 142.4 
L 417.557522 145.344921 
L 406.306034 145.344921 
L 406.306034 157.5 
L 397.556493 157.5 
L 397.556493 145.344921 
L 386.283186 145.344921 
z
" style="fill:#ff0000;"/>
   </g>
   <g id="patch_22">
    <path clip-path="url(#p9cb6b29713)" d="M 417.557522 133.741128 
Q 414.941478 138.033134 412.112683 140.20409 
Q 409.283888 142.4 406.202945 142.4 
Q 397.015271 142.4 391.649228 126.130304 
Q 386.283186 109.860607 386.283186 82.03743 
Q 386.283186 54.114439 391.649228 37.869696 
Q 397.015271 21.6 406.202945 21.6 
Q 409.283888 21.6 412.112683 23.79591 
Q 414.941478 25.966866 417.557522 30.258872 
L 417.557522 54.339021 
Q 414.917839 48.649618 412.356952 46.004545 
Q 409.796066 43.359471 406.967271 43.359471 
Q 401.892775 43.359471 398.985184 53.665276 
Q 396.085472 63.946127 396.085472 82.03743 
Q 396.085472 100.053873 398.985184 110.359678 
Q 401.892775 120.640529 406.967271 120.640529 
Q 409.796066 120.640529 412.356952 117.995455 
Q 414.917839 115.325429 417.557522 109.636026 
z
" style="fill:#0000ff;"/>
   </g>
   <g id="patch_23">
    <path clip-path="url(#p9cb6b29713)" d="M 440.8673 154.74925 
L 428.839693 154.74925 
L 426.940597 157.5 
L 419.20354 157.5 
L 430.252825 142.4 
L 439.428591 142.4 
L 450.477876 157.5 
L 442.747213 157.5 
z
M 430.757972 151.946721 
L 438.929839 151.946721 
L 434.850299 145.940377 
z
" style="fill:#008000;"/>
   </g>
   <g id="patch_24">
    <path clip-path="url(#p9cb6b29713)" d="M 419.20354 127.3 
L 450.477876 127.3 
L 450.477876 130.244921 
L 439.226388 130.244921 
L 439.226388 142.4 
L 430.476847 142.4 
L 430.476847 130.244921 
L 419.20354 130.244921 
z
" style="fill:#ff0000;"/>
   </g>
   <g id="patch_25">
    <path clip-path="url(#p9cb6b29713)" d="M 450.477876 124.567589 
Q 447.323808 125.933795 443.931433 126.620017 
Q 440.539057 127.3 436.922393 127.3 
Q 428.749852 127.3 423.976696 123.232576 
Q 419.20354 119.165152 419.20354 112.209358 
Q 419.20354 105.172464 424.060805 101.136232 
Q 428.925078 97.1 437.384989 97.1 
Q 440.644193 97.1 443.630044 97.648977 
Q 446.622904 98.191717 449.272321 99.264718 
L 449.272321 105.284755 
Q 446.538796 103.906073 443.833306 103.22609 
Q 441.127817 102.539868 438.408309 102.539868 
Q 433.375819 102.539868 430.649302 105.047697 
Q 427.922786 107.549287 427.922786 112.209358 
Q 427.922786 116.825759 430.551176 119.346065 
Q 433.179565 121.860132 438.015803 121.860132 
Q 439.333503 121.860132 440.461958 121.716649 
Q 441.590413 121.566928 442.487571 121.255009 
L 442.487571 115.603037 
L 437.335926 115.603037 
L 437.335926 110.568663 
L 450.477876 110.568663 
z
" style="fill:#ffa600;"/>
   </g>
   <g id="patch_26">
    <path clip-path="url(#p9cb6b29713)" d="M 450.477876 91.688205 
Q 447.861832 94.370709 445.033037 95.727556 
Q 442.204242 97.1 439.123298 97.1 
Q 429.935625 97.1 424.569582 86.93144 
Q 419.20354 76.76288 419.20354 59.373394 
Q 419.20354 41.921524 424.569582 31.76856 
Q 429.935625 21.6 439.123298 21.6 
Q 442.204242 21.6 445.033037 22.972444 
Q 447.861832 24.329291 450.477876 27.011795 
L 450.477876 42.061888 
Q 447.838193 38.506011 445.277306 36.85284 
Q 442.71642 35.199669 439.887625 35.199669 
Q 434.813129 35.199669 431.905538 41.640797 
Q 429.005826 48.066329 429.005826 59.373394 
Q 429.005826 70.633671 431.905538 77.074799 
Q 434.813129 83.500331 439.887625 83.500331 
Q 442.71642 83.500331 445.277306 81.84716 
Q 447.838193 80.178393 450.477876 76.622516 
z
" style="fill:#0000ff;"/>
   </g>
   <g id="patch_27">
    <path clip-path="url(#p9cb6b29713)" d="M 483.39823 156.417641 
Q 480.782186 156.954142 477.953391 157.225511 
Q 475.124596 157.5 472.043652 157.5 
Q 462.855979 157.5 457.489936 155.466288 
Q 452.123894 153.432576 452.123894 149.954679 
Q 452.123894 146.464305 457.489936 144.433712 
Q 462.855979 142.4 472.043652 142.4 
Q 475.124596 142.4 477.953391 142.674489 
Q 480.782186 142.945858 483.39823 143.482359 
L 483.39823 146.492378 
Q 480.758547 145.781202 478.19766 145.450568 
Q 475.636773 145.119934 472.807979 145.119934 
Q 467.733483 145.119934 464.825892 146.408159 
Q 461.92618 147.693266 461.92618 149.954679 
Q 461.92618 152.206734 464.825892 153.49496 
Q 467.733483 154.780066 472.807979 154.780066 
Q 475.636773 154.780066 478.19766 154.449432 
Q 480.758547 154.115679 483.39823 153.404503 
z
" style="fill:#0000ff;"/>
   </g>
   <g id="patch_28">
    <path clip-path="url(#p9cb6b29713)" d="M 483.39823 141.033795 
Q 480.244162 141.716897 476.851787 142.060008 
Q 473.459411 142.4 469.842747 142.4 
Q 461.670206 142.4 456.89705 140.366288 
Q 452.123894 138.332576 452.123894 134.854679 
Q 452.123894 131.336232 456.981158 129.318116 
Q 461.845432 127.3 470.305343 127.3 
Q 473.564547 127.3 476.550398 127.574489 
Q 479.543258 127.845858 482.192675 128.382359 
L 482.192675 131.392378 
Q 479.45915 130.703037 476.75366 130.363045 
Q 474.048171 130.019934 471.328663 130.019934 
Q 466.296173 130.019934 463.569656 131.273848 
Q 460.84314 132.524644 460.84314 134.854679 
Q 460.84314 137.16288 463.471529 138.423032 
Q 466.099919 139.680066 470.936157 139.680066 
Q 472.253857 139.680066 473.382312 139.608325 
Q 474.510767 139.533464 475.407925 139.377505 
L 475.407925 136.551518 
L 470.25628 136.551518 
L 470.25628 134.034332 
L 483.39823 134.034332 
z
" style="fill:#ffa600;"/>
   </g>
   <g id="patch_29">
    <path clip-path="url(#p9cb6b29713)" d="M 473.787654 119.04775 
L 461.760047 119.04775 
L 459.860951 127.3 
L 452.123894 127.3 
L 463.173179 82 
L 472.348945 82 
L 483.39823 127.3 
L 475.667567 127.3 
z
M 463.678326 110.640163 
L 471.850193 110.640163 
L 467.770653 92.621132 
z
" style="fill:#008000;"/>
   </g>
   <g id="patch_30">
    <path clip-path="url(#p9cb6b29713)" d="M 452.123894 21.6 
L 483.39823 21.6 
L 483.39823 33.379683 
L 472.146742 33.379683 
L 472.146742 82 
L 463.397201 82 
L 463.397201 33.379683 
L 452.123894 33.379683 
z
" style="fill:#ff0000;"/>
   </g>
   <g id="patch_31">
    <path clip-path="url(#p9cb6b29713)" d="M 516.318584 156.133795 
Q 513.164516 156.816897 509.772141 157.160008 
Q 506.379765 157.5 502.763101 157.5 
Q 494.59056 157.5 489.817404 155.466288 
Q 485.044248 153.432576 485.044248 149.954679 
Q 485.044248 146.436232 489.901512 144.418116 
Q 494.765786 142.4 503.225697 142.4 
Q 506.484901 142.4 509.470752 142.674489 
Q 512.463612 142.945858 515.113029 143.482359 
L 515.113029 146.492378 
Q 512.379504 145.803037 509.674014 145.463045 
Q 506.968525 145.119934 504.249017 145.119934 
Q 499.216527 145.119934 496.49001 146.373848 
Q 493.763493 147.624644 493.763493 149.954679 
Q 493.763493 152.26288 496.391883 153.523032 
Q 499.020273 154.780066 503.856511 154.780066 
Q 505.174211 154.780066 506.302666 154.708325 
Q 507.431121 154.633464 508.328279 154.477505 
L 508.328279 151.651518 
L 503.176634 151.651518 
L 503.176634 149.134332 
L 516.318584 149.134332 
z
" style="fill:#ffa600;"/>
   </g>
   <g id="patch_32">
    <path clip-path="url(#p9cb6b29713)" d="M 506.708008 131.397 
L 494.680401 131.397 
L 492.781305 142.4 
L 485.044248 142.4 
L 496.093533 82 
L 505.269299 82 
L 516.318584 142.4 
L 508.587921 142.4 
z
M 496.59868 120.186884 
L 504.770547 120.186884 
L 500.691007 96.161509 
z
" style="fill:#008000;"/>
   </g>
   <g id="patch_33">
    <path clip-path="url(#p9cb6b29713)" d="M 516.318584 77.670564 
Q 513.70254 79.816567 510.873745 80.902045 
Q 508.04495 82 504.964006 82 
Q 495.776333 82 490.41029 73.865152 
Q 485.044248 65.730304 485.044248 51.818715 
Q 485.044248 37.85722 490.41029 29.734848 
Q 495.776333 21.6 504.964006 21.6 
Q 508.04495 21.6 510.873745 22.697955 
Q 513.70254 23.783433 516.318584 25.929436 
L 516.318584 37.96951 
Q 513.678901 35.124809 511.118014 33.802272 
Q 508.557127 32.479736 505.728333 32.479736 
Q 500.653837 32.479736 497.746246 37.632638 
Q 494.846534 42.773063 494.846534 51.818715 
Q 494.846534 60.826937 497.746246 65.979839 
Q 500.653837 71.120264 505.728333 71.120264 
Q 508.557127 71.120264 511.118014 69.797728 
Q 513.678901 68.462714 516.318584 65.618013 
z
" style="fill:#0000ff;"/>
   </g>
   <g id="patch_34">
    <path clip-path="url(#p9cb6b29713)" d="M 549.238938 156.417641 
Q 546.622894 156.954142 543.794099 157.225511 
Q 540.965304 157.5 537.88436 157.5 
Q 528.696687 157.5 523.330644 155.466288 
Q 517.964602 153.432576 517.964602 149.954679 
Q 517.964602 146.464305 523.330644 144.433712 
Q 528.696687 142.4 537.88436 142.4 
Q 540.965304 142.4 543.794099 142.674489 
Q 546.622894 142.945858 549.238938 143.482359 
L 549.238938 146.492378 
Q 546.599255 145.781202 544.038368 145.450568 
Q 541.477481 145.119934 538.648687 145.119934 
Q 533.574191 145.119934 530.6666 146.408159 
Q 527.766888 147.693266 527.766888 149.954679 
Q 527.766888 152.206734 530.6666 153.49496 
Q 533.574191 154.780066 538.648687 154.780066 
Q 541.477481 154.780066 544.038368 154.449432 
Q 546.599255 154.115679 549.238938 153.404503 
z
" style="fill:#0000ff;"/>
   </g>
   <g id="patch_35">
    <path clip-path="url(#p9cb6b29713)" d="M 539.628362 136.8985 
L 527.600755 136.8985 
L 525.701659 142.4 
L 517.964602 142.4 
L 529.013887 112.2 
L 538.189653 112.2 
L 549.238938 142.4 
L 541.508275 142.4 
z
M 529.519034 131.293442 
L 537.690901 131.293442 
L 533.611361 119.280754 
z
" style="fill:#008000;"/>
   </g>
   <g id="patch_36">
    <path clip-path="url(#p9cb6b29713)" d="M 517.964602 21.6 
L 549.238938 21.6 
L 549.238938 39.269524 
L 537.98745 39.269524 
L 537.98745 112.2 
L 529.237909 112.2 
L 529.237909 39.269524 
L 517.964602 39.269524 
z
" style="fill:#ff0000;"/>
   </g>
   <g id="patch_37">
    <path clip-path="url(#p9cb6b29713)" d="M 582.159292 156.417641 
Q 579.543248 156.954142 576.714453 157.225511 
Q 573.885658 157.5 570.804714 157.5 
Q 561.617041 157.5 556.250998 155.466288 
Q 550.884956 153.432576 550.884956 149.954679 
Q 550.884956 146.464305 556.250998 144.433712 
Q 561.617041 142.4 570.804714 142.4 
Q 573.885658 142.4 576.714453 142.674489 
Q 579.543248 142.945858 582.159292 143.482359 
L 582.159292 146.492378 
Q 579.519609 145.781202 576.958722 145.450568 
Q 574.397835 145.119934 571.569041 145.119934 
Q 566.494545 145.119934 563.586954 146.408159 
Q 560.687242 147.693266 560.687242 149.954679 
Q 560.687242 152.206734 563.586954 153.49496 
Q 566.494545 154.780066 571.569041 154.780066 
Q 574.397835 154.780066 576.958722 154.449432 
Q 579.519609 154.115679 582.159292 153.404503 
z
" style="fill:#0000ff;"/>
   </g>
   <g id="patch_38">
    <path clip-path="url(#p9cb6b29713)" d="M 550.884956 112.2 
L 582.159292 112.2 
L 582.159292 118.089841 
L 570.907804 118.089841 
L 570.907804 142.4 
L 562.158263 142.4 
L 562.158263 118.089841 
L 550.884956 118.089841 
z
" style="fill:#ff0000;"/>
   </g>
   <g id="patch_39">
    <path clip-path="url(#p9cb6b29713)" d="M 572.548716 103.94775 
L 560.521109 103.94775 
L 558.622013 112.2 
L 550.884956 112.2 
L 561.934241 66.9 
L 571.110007 66.9 
L 582.159292 112.2 
L 574.428629 112.2 
z
M 562.439387 95.540163 
L 570.611255 95.540163 
L 566.531715 77.521132 
z
" style="fill:#008000;"/>
   </g>
   <g id="patch_40">
    <path clip-path="url(#p9cb6b29713)" d="M 582.159292 62.801384 
Q 579.005224 64.850692 575.612849 65.880025 
Q 572.220473 66.9 568.603809 66.9 
Q 560.431268 66.9 555.658112 60.798864 
Q 550.884956 54.697728 550.884956 44.264036 
Q 550.884956 33.708697 555.74222 27.654348 
Q 560.606494 21.6 569.066405 21.6 
Q 572.325609 21.6 575.31146 22.423466 
Q 578.30432 23.237575 580.953737 24.847077 
L 580.953737 33.877133 
Q 578.220212 31.80911 575.514722 30.789134 
Q 572.809233 29.759802 570.089725 29.759802 
Q 565.057235 29.759802 562.330718 33.521545 
Q 559.604201 37.273931 559.604201 44.264036 
Q 559.604201 51.188639 562.232591 54.969097 
Q 564.860981 58.740198 569.697219 58.740198 
Q 571.014919 58.740198 572.143374 58.524974 
Q 573.271829 58.300392 574.168986 57.832514 
L 574.168986 49.354555 
L 569.017342 49.354555 
L 569.017342 41.802995 
L 582.159292 41.802995 
z
" style="fill:#ffa600;"/>
   </g>
   <g id="patch_41">
    <path clip-path="url(#p9cb6b29713)" d="M 583.80531 127.3 
L 615.079646 127.3 
L 615.079646 133.189841 
L 603.828158 133.189841 
L 603.828158 157.5 
L 595.078617 157.5 
L 595.078617 133.189841 
L 583.80531 133.189841 
z
" style="fill:#ff0000;"/>
   </g>
   <g id="patch_42">
    <path clip-path="url(#p9cb6b29713)" d="M 605.46907 119.04775 
L 593.441463 119.04775 
L 591.542367 127.3 
L 583.80531 127.3 
L 594.854595 82 
L 604.030361 82 
L 615.079646 127.3 
L 607.348983 127.3 
z
M 595.359741 110.640163 
L 603.531609 110.640163 
L 599.452069 92.621132 
z
" style="fill:#008000;"/>
   </g>
   <g id="patch_43">
    <path clip-path="url(#p9cb6b29713)" d="M 615.079646 76.535179 
Q 611.925578 79.267589 608.533203 80.640033 
Q 605.140827 82 601.524163 82 
Q 593.351622 82 588.578466 73.865152 
Q 583.80531 65.730304 583.80531 51.818715 
Q 583.80531 37.744929 588.662574 29.672464 
Q 593.526848 21.6 601.986759 21.6 
Q 605.245963 21.6 608.231814 22.697955 
Q 611.224674 23.783433 613.874091 25.929436 
L 613.874091 37.96951 
Q 611.140566 35.212146 608.435076 33.852179 
Q 605.729587 32.479736 603.010079 32.479736 
Q 597.977589 32.479736 595.251072 37.495394 
Q 592.524555 42.498575 592.524555 51.818715 
Q 592.524555 61.051518 595.152945 66.09213 
Q 597.781335 71.120264 602.617573 71.120264 
Q 603.935272 71.120264 605.063728 70.833299 
Q 606.192183 70.533857 607.08934 69.910019 
L 607.08934 58.606073 
L 601.937696 58.606073 
L 601.937696 48.537327 
L 615.079646 48.537327 
z
" style="fill:#ffa600;"/>
   </g>
   <g id="patch_44">
    <path clip-path="url(#p9cb6b29713)" d="M 648 152.035179 
Q 644.845932 154.767589 641.453557 156.140033 
Q 638.061181 157.5 634.444517 157.5 
Q 626.271976 157.5 621.49882 149.365152 
Q 616.725664 141.230304 616.725664 127.318715 
Q 616.725664 113.244929 621.582928 105.172464 
Q 626.447202 97.1 634.907113 97.1 
Q 638.166317 97.1 641.152168 98.197955 
Q 644.145028 99.283433 646.794445 101.429436 
L 646.794445 113.46951 
Q 644.06092 110.712146 641.35543 109.352179 
Q 638.649941 107.979736 635.930433 107.979736 
Q 630.897943 107.979736 628.171426 112.995394 
Q 625.444909 117.998575 625.444909 127.318715 
Q 625.444909 136.551518 628.073299 141.59213 
Q 630.701689 146.620264 635.537927 146.620264 
Q 636.855626 146.620264 637.984082 146.333299 
Q 639.112537 146.033857 640.009694 145.410019 
L 640.009694 134.106073 
L 634.85805 134.106073 
L 634.85805 124.037327 
L 648 124.037327 
z
" style="fill:#ffa600;"/>
   </g>
   <g id="patch_45">
    <path clip-path="url(#p9cb6b29713)" d="M 638.389424 83.346249 
L 626.361817 83.346249 
L 624.462721 97.1 
L 616.725664 97.1 
L 627.774949 21.6 
L 636.950715 21.6 
L 648 97.1 
L 640.269337 97.1 
z
M 628.280095 69.333605 
L 636.451963 69.333605 
L 632.372423 39.301886 
z
" style="fill:#008000;"/>
   </g>
  </g>
 </g>
 <defs>
  <clipPath id="p9cb6b29713">
   <rect height="135.9" width="558" x="90" y="21.6"/>
  </clipPath>
 </defs>
</svg>
