<?xml version="1.0" encoding="utf-8" standalone="no"?>
<!DOCTYPE svg PUBLIC "-//W3C//DTD SVG 1.1//EN"
  "http://www.w3.org/Graphics/SVG/1.1/DTD/svg11.dtd">
<!-- Created with matplotlib (https://matplotlib.org/) -->
<svg height="180pt" version="1.1" viewBox="0 0 720 180" width="720pt" xmlns="http://www.w3.org/2000/svg" xmlns:xlink="http://www.w3.org/1999/xlink">
 <metadata>
  <rdf:RDF xmlns:cc="http://creativecommons.org/ns#" xmlns:dc="http://purl.org/dc/elements/1.1/" xmlns:rdf="http://www.w3.org/1999/02/22-rdf-syntax-ns#">
   <cc:Work>
    <dc:type rdf:resource="http://purl.org/dc/dcmitype/StillImage"/>
    <dc:date>2021-08-04T23:32:55.452100</dc:date>
    <dc:format>image/svg+xml</dc:format>
    <dc:creator>
     <cc:Agent>
      <dc:title>Matplotlib v3.3.2, https://matplotlib.org/</dc:title>
     </cc:Agent>
    </dc:creator>
   </cc:Work>
  </rdf:RDF>
 </metadata>
 <defs>
  <style type="text/css">*{stroke-linecap:butt;stroke-linejoin:round;}</style>
 </defs>
 <g id="figure_1">
  <g id="patch_1">
   <path d="M 0 180 
L 720 180 
L 720 0 
L 0 0 
z
" style="fill:none;"/>
  </g>
  <g id="axes_1">
   <g id="line2d_1">
    <path clip-path="url(#pae1fc7424d)" d="M 90 157.5 
L 648 157.5 
" style="fill:none;stroke:#000000;stroke-linecap:square;stroke-width:0.5;"/>
   </g>
   <g id="patch_2">
    <path clip-path="url(#pae1fc7424d)" d="M 111.66376 154.74925 
L 99.636153 154.74925 
L 97.737057 157.5 
L 90 157.5 
L 101.049285 142.4 
L 110.225051 142.4 
L 121.274336 157.5 
L 113.543673 157.5 
z
M 101.554432 151.946721 
L 109.726299 151.946721 
L 105.64676 145.940377 
z
" style="fill:#008000;"/>
   </g>
   <g id="patch_3">
    <path clip-path="url(#pae1fc7424d)" d="M 121.274336 138.070564 
Q 118.658292 140.216567 115.829497 141.302045 
Q 113.000702 142.4 109.919759 142.4 
Q 100.732085 142.4 95.366043 134.265152 
Q 90 126.130304 90 112.218715 
Q 90 98.25722 95.366043 90.134848 
Q 100.732085 82 109.919759 82 
Q 113.000702 82 115.829497 83.097955 
Q 118.658292 84.183433 121.274336 86.329436 
L 121.274336 98.36951 
Q 118.634653 95.524809 116.073766 94.202272 
Q 113.51288 92.879736 110.684085 92.879736 
Q 105.609589 92.879736 102.701998 98.032638 
Q 99.802286 103.173063 99.802286 112.218715 
Q 99.802286 121.226937 102.701998 126.379839 
Q 105.609589 131.520264 110.684085 131.520264 
Q 113.51288 131.520264 116.073766 130.197728 
Q 118.634653 128.862714 121.274336 126.018013 
z
" style="fill:#0000ff;"/>
   </g>
   <g id="patch_4">
    <path clip-path="url(#pae1fc7424d)" d="M 90 21.6 
L 121.274336 21.6 
L 121.274336 33.379683 
L 110.022848 33.379683 
L 110.022848 82 
L 101.273307 82 
L 101.273307 33.379683 
L 90 33.379683 
z
" style="fill:#ff0000;"/>
   </g>
   <g id="patch_5">
    <path clip-path="url(#pae1fc7424d)" d="M 122.920354 142.4 
L 154.19469 142.4 
L 154.19469 145.344921 
L 142.943202 145.344921 
L 142.943202 157.5 
L 134.193661 157.5 
L 134.193661 145.344921 
L 122.920354 145.344921 
z
" style="fill:#ff0000;"/>
   </g>
   <g id="patch_6">
    <path clip-path="url(#pae1fc7424d)" d="M 154.19469 140.235282 
Q 151.578646 141.308283 148.749851 141.851023 
Q 145.921056 142.4 142.840113 142.4 
Q 133.652439 142.4 128.286397 138.332576 
Q 122.920354 134.265152 122.920354 127.309358 
Q 122.920354 120.32861 128.286397 116.267424 
Q 133.652439 112.2 142.840113 112.2 
Q 145.921056 112.2 148.749851 112.748977 
Q 151.578646 113.291717 154.19469 114.364718 
L 154.19469 120.384755 
Q 151.555007 118.962404 148.99412 118.301136 
Q 146.433234 117.639868 143.604439 117.639868 
Q 138.529943 117.639868 135.622352 120.216319 
Q 132.72264 122.786532 132.72264 127.309358 
Q 132.72264 131.813468 135.622352 134.389919 
Q 138.529943 136.960132 143.604439 136.960132 
Q 146.433234 136.960132 148.99412 136.298864 
Q 151.555007 135.631357 154.19469 134.209006 
z
" style="fill:#0000ff;"/>
   </g>
   <g id="patch_7">
    <path clip-path="url(#pae1fc7424d)" d="M 154.19469 109.467589 
Q 151.040622 110.833795 147.648247 111.520017 
Q 144.255872 112.2 140.639207 112.2 
Q 132.466666 112.2 127.69351 108.132576 
Q 122.920354 104.065152 122.920354 97.109358 
Q 122.920354 90.072464 127.777619 86.036232 
Q 132.641892 82 141.101804 82 
Q 144.361007 82 147.346858 82.548977 
Q 150.339718 83.091717 152.989135 84.164718 
L 152.989135 90.184755 
Q 150.25561 88.806073 147.55012 88.12609 
Q 144.844631 87.439868 142.125123 87.439868 
Q 137.092633 87.439868 134.366116 89.947697 
Q 131.6396 92.449287 131.6396 97.109358 
Q 131.6396 101.725759 134.26799 104.246065 
Q 136.89638 106.760132 141.732617 106.760132 
Q 143.050317 106.760132 144.178772 106.616649 
Q 145.307228 106.466928 146.204385 106.155009 
L 146.204385 100.503037 
L 141.05274 100.503037 
L 141.05274 95.468663 
L 154.19469 95.468663 
z
" style="fill:#ffa600;"/>
   </g>
   <g id="patch_8">
    <path clip-path="url(#pae1fc7424d)" d="M 144.584114 70.997 
L 132.556507 70.997 
L 130.657411 82 
L 122.920354 82 
L 133.969639 21.6 
L 143.145405 21.6 
L 154.19469 82 
L 146.464027 82 
z
M 134.474786 59.786884 
L 142.646653 59.786884 
L 138.567114 35.761509 
z
" style="fill:#008000;"/>
   </g>
   <g id="patch_9">
    <path clip-path="url(#pae1fc7424d)" d="M 187.115044 156.417641 
Q 184.499 156.954142 181.670205 157.225511 
Q 178.84141 157.5 175.760467 157.5 
Q 166.572793 157.5 161.206751 155.466288 
Q 155.840708 153.432576 155.840708 149.954679 
Q 155.840708 146.464305 161.206751 144.433712 
Q 166.572793 142.4 175.760467 142.4 
Q 178.84141 142.4 181.670205 142.674489 
Q 184.499 142.945858 187.115044 143.482359 
L 187.115044 146.492378 
Q 184.475361 145.781202 181.914474 145.450568 
Q 179.353588 145.119934 176.524793 145.119934 
Q 171.450297 145.119934 168.542706 146.408159 
Q 165.642994 147.693266 165.642994 149.954679 
Q 165.642994 152.206734 168.542706 153.49496 
Q 171.450297 154.780066 176.524793 154.780066 
Q 179.353588 154.780066 181.914474 154.449432 
Q 184.475361 154.115679 187.115044 153.404503 
z
" style="fill:#0000ff;"/>
   </g>
   <g id="patch_10">
    <path clip-path="url(#pae1fc7424d)" d="M 155.840708 112.2 
L 187.115044 112.2 
L 187.115044 118.089841 
L 175.863556 118.089841 
L 175.863556 142.4 
L 167.114015 142.4 
L 167.114015 118.089841 
L 155.840708 118.089841 
z
" style="fill:#ff0000;"/>
   </g>
   <g id="patch_11">
    <path clip-path="url(#pae1fc7424d)" d="M 177.504468 103.94775 
L 165.476861 103.94775 
L 163.577765 112.2 
L 155.840708 112.2 
L 166.889993 66.9 
L 176.065759 66.9 
L 187.115044 112.2 
L 179.384381 112.2 
z
M 167.39514 95.540163 
L 175.567007 95.540163 
L 171.487467 77.521132 
z
" style="fill:#008000;"/>
   </g>
   <g id="patch_12">
    <path clip-path="url(#pae1fc7424d)" d="M 187.115044 62.801384 
Q 183.960976 64.850692 180.568601 65.880025 
Q 177.176226 66.9 173.559561 66.9 
Q 165.38702 66.9 160.613864 60.798864 
Q 155.840708 54.697728 155.840708 44.264036 
Q 155.840708 33.708697 160.697973 27.654348 
Q 165.562246 21.6 174.022158 21.6 
Q 177.281361 21.6 180.267212 22.423466 
Q 183.260072 23.237575 185.909489 24.847077 
L 185.909489 33.877133 
Q 183.175964 31.80911 180.470474 30.789134 
Q 177.764985 29.759802 175.045477 29.759802 
Q 170.012987 29.759802 167.28647 33.521545 
Q 164.559954 37.273931 164.559954 44.264036 
Q 164.559954 51.188639 167.188344 54.969097 
Q 169.816734 58.740198 174.652971 58.740198 
Q 175.970671 58.740198 177.099126 58.524974 
Q 178.227582 58.300392 179.124739 57.832514 
L 179.124739 49.354555 
L 173.973094 49.354555 
L 173.973094 41.802995 
L 187.115044 41.802995 
z
" style="fill:#ffa600;"/>
   </g>
   <g id="patch_13">
    <path clip-path="url(#pae1fc7424d)" d="M 220.035398 156.133795 
Q 216.88133 156.816897 213.488955 157.160008 
Q 210.09658 157.5 206.479915 157.5 
Q 198.307374 157.5 193.534218 155.466288 
Q 188.761062 153.432576 188.761062 149.954679 
Q 188.761062 146.436232 193.618327 144.418116 
Q 198.4826 142.4 206.942512 142.4 
Q 210.201715 142.4 213.187566 142.674489 
Q 216.180426 142.945858 218.829843 143.482359 
L 218.829843 146.492378 
Q 216.096318 145.803037 213.390828 145.463045 
Q 210.685339 145.119934 207.965831 145.119934 
Q 202.933341 145.119934 200.206824 146.373848 
Q 197.480308 147.624644 197.480308 149.954679 
Q 197.480308 152.26288 200.108698 153.523032 
Q 202.737088 154.780066 207.573325 154.780066 
Q 208.891025 154.780066 210.01948 154.708325 
Q 211.147936 154.633464 212.045093 154.477505 
L 212.045093 151.651518 
L 206.893448 151.651518 
L 206.893448 149.134332 
L 220.035398 149.134332 
z
" style="fill:#ffa600;"/>
   </g>
   <g id="patch_14">
    <path clip-path="url(#pae1fc7424d)" d="M 188.761062 127.3 
L 220.035398 127.3 
L 220.035398 130.244921 
L 208.78391 130.244921 
L 208.78391 142.4 
L 200.034369 142.4 
L 200.034369 130.244921 
L 188.761062 130.244921 
z
" style="fill:#ff0000;"/>
   </g>
   <g id="patch_15">
    <path clip-path="url(#pae1fc7424d)" d="M 210.424822 121.7985 
L 198.397215 121.7985 
L 196.498119 127.3 
L 188.761062 127.3 
L 199.810347 97.1 
L 208.986113 97.1 
L 220.035398 127.3 
L 212.304735 127.3 
z
M 200.315494 116.193442 
L 208.487361 116.193442 
L 204.407821 104.180754 
z
" style="fill:#008000;"/>
   </g>
   <g id="patch_16">
    <path clip-path="url(#pae1fc7424d)" d="M 220.035398 91.688205 
Q 217.419354 94.370709 214.590559 95.727556 
Q 211.761764 97.1 208.680821 97.1 
Q 199.493147 97.1 194.127105 86.93144 
Q 188.761062 76.76288 188.761062 59.373394 
Q 188.761062 41.921524 194.127105 31.76856 
Q 199.493147 21.6 208.680821 21.6 
Q 211.761764 21.6 214.590559 22.972444 
Q 217.419354 24.329291 220.035398 27.011795 
L 220.035398 42.061888 
Q 217.395715 38.506011 214.834828 36.85284 
Q 212.273942 35.199669 209.445147 35.199669 
Q 204.370651 35.199669 201.46306 41.640797 
Q 198.563348 48.066329 198.563348 59.373394 
Q 198.563348 70.633671 201.46306 77.074799 
Q 204.370651 83.500331 209.445147 83.500331 
Q 212.273942 83.500331 214.834828 81.84716 
Q 217.395715 80.178393 220.035398 76.622516 
z
" style="fill:#0000ff;"/>
   </g>
   <g id="patch_17">
    <path clip-path="url(#pae1fc7424d)" d="M 221.681416 127.3 
L 252.955752 127.3 
L 252.955752 133.189841 
L 241.704264 133.189841 
L 241.704264 157.5 
L 232.954723 157.5 
L 232.954723 133.189841 
L 221.681416 133.189841 
z
" style="fill:#ff0000;"/>
   </g>
   <g id="patch_18">
    <path clip-path="url(#pae1fc7424d)" d="M 243.345176 119.04775 
L 231.317569 119.04775 
L 229.418473 127.3 
L 221.681416 127.3 
L 232.730701 82 
L 241.906467 82 
L 252.955752 127.3 
L 245.225089 127.3 
z
M 233.235848 110.640163 
L 241.407715 110.640163 
L 237.328175 92.621132 
z
" style="fill:#008000;"/>
   </g>
   <g id="patch_19">
    <path clip-path="url(#pae1fc7424d)" d="M 252.955752 76.535179 
Q 249.801684 79.267589 246.409309 80.640033 
Q 243.016934 82 239.400269 82 
Q 231.227728 82 226.454572 73.865152 
Q 221.681416 65.730304 221.681416 51.818715 
Q 221.681416 37.744929 226.538681 29.672464 
Q 231.402954 21.6 239.862866 21.6 
Q 243.122069 21.6 246.10792 22.697955 
Q 249.10078 23.783433 251.750197 25.929436 
L 251.750197 37.96951 
Q 249.016672 35.212146 246.311182 33.852179 
Q 243.605693 32.479736 240.886185 32.479736 
Q 235.853695 32.479736 233.127178 37.495394 
Q 230.400662 42.498575 230.400662 51.818715 
Q 230.400662 61.051518 233.029052 66.09213 
Q 235.657442 71.120264 240.493679 71.120264 
Q 241.811379 71.120264 242.939834 70.833299 
Q 244.06829 70.533857 244.965447 69.910019 
L 244.965447 58.606073 
L 239.813802 58.606073 
L 239.813802 48.537327 
L 252.955752 48.537327 
z
" style="fill:#ffa600;"/>
   </g>
   <g id="patch_20">
    <path clip-path="url(#pae1fc7424d)" d="M 276.26553 154.74925 
L 264.237923 154.74925 
L 262.338827 157.5 
L 254.60177 157.5 
L 265.651055 142.4 
L 274.826821 142.4 
L 285.876106 157.5 
L 278.145443 157.5 
z
M 266.156202 151.946721 
L 274.328069 151.946721 
L 270.248529 145.940377 
z
" style="fill:#008000;"/>
   </g>
   <g id="patch_21">
    <path clip-path="url(#pae1fc7424d)" d="M 254.60177 112.2 
L 285.876106 112.2 
L 285.876106 118.089841 
L 274.624618 118.089841 
L 274.624618 142.4 
L 265.875077 142.4 
L 265.875077 118.089841 
L 254.60177 118.089841 
z
" style="fill:#ff0000;"/>
   </g>
   <g id="patch_22">
    <path clip-path="url(#pae1fc7424d)" d="M 285.876106 104.002768 
Q 282.722038 108.101384 279.329663 110.16005 
Q 275.937288 112.2 272.320623 112.2 
Q 264.148082 112.2 259.374926 99.997728 
Q 254.60177 87.795455 254.60177 66.928073 
Q 254.60177 45.817393 259.459035 33.708697 
Q 264.323308 21.6 272.78322 21.6 
Q 276.042423 21.6 279.028274 23.246932 
Q 282.021134 24.87515 284.670551 28.094154 
L 284.670551 46.154266 
Q 281.937026 42.018219 279.231536 39.978269 
Q 276.526047 37.919603 273.806539 37.919603 
Q 268.774049 37.919603 266.047532 45.44309 
Q 263.321016 52.947862 263.321016 66.928073 
Q 263.321016 80.777277 265.949406 88.338195 
Q 268.577796 95.880397 273.414033 95.880397 
Q 274.731733 95.880397 275.860188 95.449948 
Q 276.988644 95.000785 277.885801 94.065028 
L 277.885801 77.10911 
L 272.734156 77.10911 
L 272.734156 62.00599 
L 285.876106 62.00599 
z
" style="fill:#ffa600;"/>
   </g>
   <g id="patch_23">
    <path clip-path="url(#pae1fc7424d)" d="M 318.79646 154.767589 
Q 315.642392 156.133795 312.250017 156.820017 
Q 308.857642 157.5 305.240977 157.5 
Q 297.068436 157.5 292.29528 153.432576 
Q 287.522124 149.365152 287.522124 142.409358 
Q 287.522124 135.372464 292.379389 131.336232 
Q 297.243662 127.3 305.703574 127.3 
Q 308.962777 127.3 311.948628 127.848977 
Q 314.941488 128.391717 317.590905 129.464718 
L 317.590905 135.484755 
Q 314.85738 134.106073 312.15189 133.42609 
Q 309.446401 132.739868 306.726893 132.739868 
Q 301.694403 132.739868 298.967886 135.247697 
Q 296.24137 137.749287 296.24137 142.409358 
Q 296.24137 147.025759 298.86976 149.546065 
Q 301.49815 152.060132 306.334387 152.060132 
Q 307.652087 152.060132 308.780542 151.916649 
Q 309.908998 151.766928 310.806155 151.455009 
L 310.806155 145.803037 
L 305.65451 145.803037 
L 305.65451 140.768663 
L 318.79646 140.768663 
z
" style="fill:#ffa600;"/>
   </g>
   <g id="patch_24">
    <path clip-path="url(#pae1fc7424d)" d="M 309.185884 119.04775 
L 297.158277 119.04775 
L 295.259181 127.3 
L 287.522124 127.3 
L 298.571409 82 
L 307.747175 82 
L 318.79646 127.3 
L 311.065797 127.3 
z
M 299.076556 110.640163 
L 307.248423 110.640163 
L 303.168883 92.621132 
z
" style="fill:#008000;"/>
   </g>
   <g id="patch_25">
    <path clip-path="url(#pae1fc7424d)" d="M 318.79646 77.670564 
Q 316.180416 79.816567 313.351621 80.902045 
Q 310.522826 82 307.441883 82 
Q 298.254209 82 292.888166 73.865152 
Q 287.522124 65.730304 287.522124 51.818715 
Q 287.522124 37.85722 292.888166 29.734848 
Q 298.254209 21.6 307.441883 21.6 
Q 310.522826 21.6 313.351621 22.697955 
Q 316.180416 23.783433 318.79646 25.929436 
L 318.79646 37.96951 
Q 316.156777 35.124809 313.59589 33.802272 
Q 311.035004 32.479736 308.206209 32.479736 
Q 303.131713 32.479736 300.224122 37.632638 
Q 297.32441 42.773063 297.32441 51.818715 
Q 297.32441 60.826937 300.224122 65.979839 
Q 303.131713 71.120264 308.206209 71.120264 
Q 311.035004 71.120264 313.59589 69.797728 
Q 316.156777 68.462714 318.79646 65.618013 
z
" style="fill:#0000ff;"/>
   </g>
   <g id="patch_26">
    <path clip-path="url(#pae1fc7424d)" d="M 351.716814 152.035179 
Q 348.562746 154.767589 345.170371 156.140033 
Q 341.777996 157.5 338.161331 157.5 
Q 329.98879 157.5 325.215634 149.365152 
Q 320.442478 141.230304 320.442478 127.318715 
Q 320.442478 113.244929 325.299743 105.172464 
Q 330.164016 97.1 338.623928 97.1 
Q 341.883131 97.1 344.868982 98.197955 
Q 347.861842 99.283433 350.511259 101.429436 
L 350.511259 113.46951 
Q 347.777734 110.712146 345.072244 109.352179 
Q 342.366755 107.979736 339.647247 107.979736 
Q 334.614757 107.979736 331.88824 112.995394 
Q 329.161724 117.998575 329.161724 127.318715 
Q 329.161724 136.551518 331.790114 141.59213 
Q 334.418504 146.620264 339.254741 146.620264 
Q 340.572441 146.620264 341.700896 146.333299 
Q 342.829351 146.033857 343.726509 145.410019 
L 343.726509 134.106073 
L 338.574864 134.106073 
L 338.574864 124.037327 
L 351.716814 124.037327 
z
" style="fill:#ffa600;"/>
   </g>
   <g id="patch_27">
    <path clip-path="url(#pae1fc7424d)" d="M 351.716814 91.688205 
Q 349.10077 94.370709 346.271975 95.727556 
Q 343.44318 97.1 340.362237 97.1 
Q 331.174563 97.1 325.80852 86.93144 
Q 320.442478 76.76288 320.442478 59.373394 
Q 320.442478 41.921524 325.80852 31.76856 
Q 331.174563 21.6 340.362237 21.6 
Q 343.44318 21.6 346.271975 22.972444 
Q 349.10077 24.329291 351.716814 27.011795 
L 351.716814 42.061888 
Q 349.077131 38.506011 346.516244 36.85284 
Q 343.955358 35.199669 341.126563 35.199669 
Q 336.052067 35.199669 333.144476 41.640797 
Q 330.244764 48.066329 330.244764 59.373394 
Q 330.244764 70.633671 333.144476 77.074799 
Q 336.052067 83.500331 341.126563 83.500331 
Q 343.955358 83.500331 346.516244 81.84716 
Q 349.077131 80.178393 351.716814 76.622516 
z
" style="fill:#0000ff;"/>
   </g>
   <g id="patch_28">
    <path clip-path="url(#pae1fc7424d)" d="M 384.637168 147.758769 
Q 382.021124 152.587275 379.192329 155.029601 
Q 376.363534 157.5 373.282591 157.5 
Q 364.094917 157.5 358.728874 139.196592 
Q 353.362832 120.893183 353.362832 89.592109 
Q 353.362832 58.178744 358.728874 39.903408 
Q 364.094917 21.6 373.282591 21.6 
Q 376.363534 21.6 379.192329 24.070399 
Q 382.021124 26.512725 384.637168 31.341231 
L 384.637168 58.431398 
Q 381.997485 52.03082 379.436598 49.055113 
Q 376.875712 46.079405 374.046917 46.079405 
Q 368.972421 46.079405 366.06483 57.673435 
Q 363.165118 69.239393 363.165118 89.592109 
Q 363.165118 109.860607 366.06483 121.454637 
Q 368.972421 133.020595 374.046917 133.020595 
Q 376.875712 133.020595 379.436598 130.044887 
Q 381.997485 127.041107 384.637168 120.640529 
z
" style="fill:#0000ff;"/>
   </g>
   <g id="patch_29">
    <path clip-path="url(#pae1fc7424d)" d="M 417.557522 147.758769 
Q 414.941478 152.587275 412.112683 155.029601 
Q 409.283888 157.5 406.202945 157.5 
Q 397.015271 157.5 391.649228 139.196592 
Q 386.283186 120.893183 386.283186 89.592109 
Q 386.283186 58.178744 391.649228 39.903408 
Q 397.015271 21.6 406.202945 21.6 
Q 409.283888 21.6 412.112683 24.070399 
Q 414.941478 26.512725 417.557522 31.341231 
L 417.557522 58.431398 
Q 414.917839 52.03082 412.356952 49.055113 
Q 409.796066 46.079405 406.967271 46.079405 
Q 401.892775 46.079405 398.985184 57.673435 
Q 396.085472 69.239393 396.085472 89.592109 
Q 396.085472 109.860607 398.985184 121.454637 
Q 401.892775 133.020595 406.967271 133.020595 
Q 409.796066 133.020595 412.356952 130.044887 
Q 414.917839 127.041107 417.557522 120.640529 
z
" style="fill:#0000ff;"/>
   </g>
   <g id="patch_30">
    <path clip-path="url(#pae1fc7424d)" d="M 450.477876 147.758769 
Q 447.861832 152.587275 445.033037 155.029601 
Q 442.204242 157.5 439.123298 157.5 
Q 429.935625 157.5 424.569582 139.196592 
Q 419.20354 120.893183 419.20354 89.592109 
Q 419.20354 58.178744 424.569582 39.903408 
Q 429.935625 21.6 439.123298 21.6 
Q 442.204242 21.6 445.033037 24.070399 
Q 447.861832 26.512725 450.477876 31.341231 
L 450.477876 58.431398 
Q 447.838193 52.03082 445.277306 49.055113 
Q 442.71642 46.079405 439.887625 46.079405 
Q 434.813129 46.079405 431.905538 57.673435 
Q 429.005826 69.239393 429.005826 89.592109 
Q 429.005826 109.860607 431.905538 121.454637 
Q 434.813129 133.020595 439.887625 133.020595 
Q 442.71642 133.020595 445.277306 130.044887 
Q 447.838193 127.041107 450.477876 120.640529 
z
" style="fill:#0000ff;"/>
   </g>
   <g id="patch_31">
    <path clip-path="url(#pae1fc7424d)" d="M 483.39823 147.758769 
Q 480.782186 152.587275 477.953391 155.029601 
Q 475.124596 157.5 472.043652 157.5 
Q 462.855979 157.5 457.489936 139.196592 
Q 452.123894 120.893183 452.123894 89.592109 
Q 452.123894 58.178744 457.489936 39.903408 
Q 462.855979 21.6 472.043652 21.6 
Q 475.124596 21.6 477.953391 24.070399 
Q 480.782186 26.512725 483.39823 31.341231 
L 483.39823 58.431398 
Q 480.758547 52.03082 478.19766 49.055113 
Q 475.636773 46.079405 472.807979 46.079405 
Q 467.733483 46.079405 464.825892 57.673435 
Q 461.92618 69.239393 461.92618 89.592109 
Q 461.92618 109.860607 464.825892 121.454637 
Q 467.733483 133.020595 472.807979 133.020595 
Q 475.636773 133.020595 478.19766 130.044887 
Q 480.758547 127.041107 483.39823 120.640529 
z
" style="fill:#0000ff;"/>
   </g>
   <g id="patch_32">
    <path clip-path="url(#pae1fc7424d)" d="M 516.318584 147.758769 
Q 513.70254 152.587275 510.873745 155.029601 
Q 508.04495 157.5 504.964006 157.5 
Q 495.776333 157.5 490.41029 139.196592 
Q 485.044248 120.893183 485.044248 89.592109 
Q 485.044248 58.178744 490.41029 39.903408 
Q 495.776333 21.6 504.964006 21.6 
Q 508.04495 21.6 510.873745 24.070399 
Q 513.70254 26.512725 516.318584 31.341231 
L 516.318584 58.431398 
Q 513.678901 52.03082 511.118014 49.055113 
Q 508.557127 46.079405 505.728333 46.079405 
Q 500.653837 46.079405 497.746246 57.673435 
Q 494.846534 69.239393 494.846534 89.592109 
Q 494.846534 109.860607 497.746246 121.454637 
Q 500.653837 133.020595 505.728333 133.020595 
Q 508.557127 133.020595 511.118014 130.044887 
Q 513.678901 127.041107 516.318584 120.640529 
z
" style="fill:#0000ff;"/>
   </g>
   <g id="patch_33">
    <path clip-path="url(#pae1fc7424d)" d="M 549.238938 147.758769 
Q 546.622894 152.587275 543.794099 155.029601 
Q 540.965304 157.5 537.88436 157.5 
Q 528.696687 157.5 523.330644 139.196592 
Q 517.964602 120.893183 517.964602 89.592109 
Q 517.964602 58.178744 523.330644 39.903408 
Q 528.696687 21.6 537.88436 21.6 
Q 540.965304 21.6 543.794099 24.070399 
Q 546.622894 26.512725 549.238938 31.341231 
L 549.238938 58.431398 
Q 546.599255 52.03082 544.038368 49.055113 
Q 541.477481 46.079405 538.648687 46.079405 
Q 533.574191 46.079405 530.6666 57.673435 
Q 527.766888 69.239393 527.766888 89.592109 
Q 527.766888 109.860607 530.6666 121.454637 
Q 533.574191 133.020595 538.648687 133.020595 
Q 541.477481 133.020595 544.038368 130.044887 
Q 546.599255 127.041107 549.238938 120.640529 
z
" style="fill:#0000ff;"/>
   </g>
   <g id="patch_34">
    <path clip-path="url(#pae1fc7424d)" d="M 582.159292 155.335282 
Q 579.543248 156.408283 576.714453 156.951023 
Q 573.885658 157.5 570.804714 157.5 
Q 561.617041 157.5 556.250998 153.432576 
Q 550.884956 149.365152 550.884956 142.409358 
Q 550.884956 135.42861 556.250998 131.367424 
Q 561.617041 127.3 570.804714 127.3 
Q 573.885658 127.3 576.714453 127.848977 
Q 579.543248 128.391717 582.159292 129.464718 
L 582.159292 135.484755 
Q 579.519609 134.062404 576.958722 133.401136 
Q 574.397835 132.739868 571.569041 132.739868 
Q 566.494545 132.739868 563.586954 135.316319 
Q 560.687242 137.886532 560.687242 142.409358 
Q 560.687242 146.913468 563.586954 149.489919 
Q 566.494545 152.060132 571.569041 152.060132 
Q 574.397835 152.060132 576.958722 151.398864 
Q 579.519609 150.731357 582.159292 149.309006 
z
" style="fill:#0000ff;"/>
   </g>
   <g id="patch_35">
    <path clip-path="url(#pae1fc7424d)" d="M 550.884956 97.1 
L 582.159292 97.1 
L 582.159292 102.989841 
L 570.907804 102.989841 
L 570.907804 127.3 
L 562.158263 127.3 
L 562.158263 102.989841 
L 550.884956 102.989841 
z
" style="fill:#ff0000;"/>
   </g>
   <g id="patch_36">
    <path clip-path="url(#pae1fc7424d)" d="M 572.548716 83.346249 
L 560.521109 83.346249 
L 558.622013 97.1 
L 550.884956 97.1 
L 561.934241 21.6 
L 571.110007 21.6 
L 582.159292 97.1 
L 574.428629 97.1 
z
M 562.439387 69.333605 
L 570.611255 69.333605 
L 566.531715 39.301886 
z
" style="fill:#008000;"/>
   </g>
   <g id="patch_37">
    <path clip-path="url(#pae1fc7424d)" d="M 605.46907 154.74925 
L 593.441463 154.74925 
L 591.542367 157.5 
L 583.80531 157.5 
L 594.854595 142.4 
L 604.030361 142.4 
L 615.079646 157.5 
L 607.348983 157.5 
z
M 595.359741 151.946721 
L 603.531609 151.946721 
L 599.452069 145.940377 
z
" style="fill:#008000;"/>
   </g>
   <g id="patch_38">
    <path clip-path="url(#pae1fc7424d)" d="M 615.079646 139.667589 
Q 611.925578 141.033795 608.533203 141.720017 
Q 605.140827 142.4 601.524163 142.4 
Q 593.351622 142.4 588.578466 138.332576 
Q 583.80531 134.265152 583.80531 127.309358 
Q 583.80531 120.272464 588.662574 116.236232 
Q 593.526848 112.2 601.986759 112.2 
Q 605.245963 112.2 608.231814 112.748977 
Q 611.224674 113.291717 613.874091 114.364718 
L 613.874091 120.384755 
Q 611.140566 119.006073 608.435076 118.32609 
Q 605.729587 117.639868 603.010079 117.639868 
Q 597.977589 117.639868 595.251072 120.147697 
Q 592.524555 122.649287 592.524555 127.309358 
Q 592.524555 131.925759 595.152945 134.446065 
Q 597.781335 136.960132 602.617573 136.960132 
Q 603.935272 136.960132 605.063728 136.816649 
Q 606.192183 136.666928 607.08934 136.355009 
L 607.08934 130.703037 
L 601.937696 130.703037 
L 601.937696 125.668663 
L 615.079646 125.668663 
z
" style="fill:#ffa600;"/>
   </g>
   <g id="patch_39">
    <path clip-path="url(#pae1fc7424d)" d="M 615.079646 105.705846 
Q 612.463602 108.92485 609.634807 110.553068 
Q 606.806012 112.2 603.725068 112.2 
Q 594.537395 112.2 589.171352 99.997728 
Q 583.80531 87.795455 583.80531 66.928073 
Q 583.80531 45.985829 589.171352 33.802272 
Q 594.537395 21.6 603.725068 21.6 
Q 606.806012 21.6 609.634807 23.246932 
Q 612.463602 24.87515 615.079646 28.094154 
L 615.079646 46.154266 
Q 612.439963 41.887213 609.879076 39.903408 
Q 607.318189 37.919603 604.489395 37.919603 
Q 599.414899 37.919603 596.507308 45.648957 
Q 593.607596 53.359595 593.607596 66.928073 
Q 593.607596 80.440405 596.507308 88.169758 
Q 599.414899 95.880397 604.489395 95.880397 
Q 607.318189 95.880397 609.879076 93.896592 
Q 612.439963 91.894071 615.079646 87.627019 
z
" style="fill:#0000ff;"/>
   </g>
   <g id="patch_40">
    <path clip-path="url(#pae1fc7424d)" d="M 638.389424 151.9985 
L 626.361817 151.9985 
L 624.462721 157.5 
L 616.725664 157.5 
L 627.774949 127.3 
L 636.950715 127.3 
L 648 157.5 
L 640.269337 157.5 
z
M 628.280095 146.393442 
L 636.451963 146.393442 
L 632.372423 134.380754 
z
" style="fill:#008000;"/>
   </g>
   <g id="patch_41">
    <path clip-path="url(#pae1fc7424d)" d="M 648 124.567589 
Q 644.845932 125.933795 641.453557 126.620017 
Q 638.061181 127.3 634.444517 127.3 
Q 626.271976 127.3 621.49882 123.232576 
Q 616.725664 119.165152 616.725664 112.209358 
Q 616.725664 105.172464 621.582928 101.136232 
Q 626.447202 97.1 634.907113 97.1 
Q 638.166317 97.1 641.152168 97.648977 
Q 644.145028 98.191717 646.794445 99.264718 
L 646.794445 105.284755 
Q 644.06092 103.906073 641.35543 103.22609 
Q 638.649941 102.539868 635.930433 102.539868 
Q 630.897943 102.539868 628.171426 105.047697 
Q 625.444909 107.549287 625.444909 112.209358 
Q 625.444909 116.825759 628.073299 119.346065 
Q 630.701689 121.860132 635.537927 121.860132 
Q 636.855626 121.860132 637.984082 121.716649 
Q 639.112537 121.566928 640.009694 121.255009 
L 640.009694 115.603037 
L 634.85805 115.603037 
L 634.85805 110.568663 
L 648 110.568663 
z
" style="fill:#ffa600;"/>
   </g>
   <g id="patch_42">
    <path clip-path="url(#pae1fc7424d)" d="M 616.725664 66.9 
L 648 66.9 
L 648 72.789841 
L 636.748512 72.789841 
L 636.748512 97.1 
L 627.998971 97.1 
L 627.998971 72.789841 
L 616.725664 72.789841 
z
" style="fill:#ff0000;"/>
   </g>
   <g id="patch_43">
    <path clip-path="url(#pae1fc7424d)" d="M 648 63.652923 
Q 645.383956 65.262425 642.555161 66.076534 
Q 639.726366 66.9 636.645422 66.9 
Q 627.457749 66.9 622.091706 60.798864 
Q 616.725664 54.697728 616.725664 44.264036 
Q 616.725664 33.792915 622.091706 27.701136 
Q 627.457749 21.6 636.645422 21.6 
Q 639.726366 21.6 642.555161 22.423466 
Q 645.383956 23.237575 648 24.847077 
L 648 33.877133 
Q 645.360317 31.743607 642.79943 30.751704 
Q 640.238543 29.759802 637.409749 29.759802 
Q 632.335253 29.759802 629.427662 33.624478 
Q 626.52795 37.479798 626.52795 44.264036 
Q 626.52795 51.020202 629.427662 54.884879 
Q 632.335253 58.740198 637.409749 58.740198 
Q 640.238543 58.740198 642.79943 57.748296 
Q 645.360317 56.747036 648 54.61351 
z
" style="fill:#0000ff;"/>
   </g>
  </g>
 </g>
 <defs>
  <clipPath id="pae1fc7424d">
   <rect height="135.9" width="558" x="90" y="21.6"/>
  </clipPath>
 </defs>
</svg>
