<?xml version="1.0" encoding="utf-8" standalone="no"?>
<!DOCTYPE svg PUBLIC "-//W3C//DTD SVG 1.1//EN"
  "http://www.w3.org/Graphics/SVG/1.1/DTD/svg11.dtd">
<!-- Created with matplotlib (https://matplotlib.org/) -->
<svg height="180pt" version="1.1" viewBox="0 0 720 180" width="720pt" xmlns="http://www.w3.org/2000/svg" xmlns:xlink="http://www.w3.org/1999/xlink">
 <metadata>
  <rdf:RDF xmlns:cc="http://creativecommons.org/ns#" xmlns:dc="http://purl.org/dc/elements/1.1/" xmlns:rdf="http://www.w3.org/1999/02/22-rdf-syntax-ns#">
   <cc:Work>
    <dc:type rdf:resource="http://purl.org/dc/dcmitype/StillImage"/>
    <dc:date>2021-08-04T23:33:39.982059</dc:date>
    <dc:format>image/svg+xml</dc:format>
    <dc:creator>
     <cc:Agent>
      <dc:title>Matplotlib v3.3.2, https://matplotlib.org/</dc:title>
     </cc:Agent>
    </dc:creator>
   </cc:Work>
  </rdf:RDF>
 </metadata>
 <defs>
  <style type="text/css">*{stroke-linecap:butt;stroke-linejoin:round;}</style>
 </defs>
 <g id="figure_1">
  <g id="patch_1">
   <path d="M 0 180 
L 720 180 
L 720 0 
L 0 0 
z
" style="fill:none;"/>
  </g>
  <g id="axes_1">
   <g id="line2d_1">
    <path clip-path="url(#pa624a72a47)" d="M 90 157.5 
L 648 157.5 
" style="fill:none;stroke:#000000;stroke-linecap:square;stroke-width:0.5;"/>
   </g>
   <g id="patch_2">
    <path clip-path="url(#pa624a72a47)" d="M 121.274336 156.133795 
Q 118.120268 156.816897 114.727893 157.160008 
Q 111.335518 157.5 107.718853 157.5 
Q 99.546312 157.5 94.773156 155.466288 
Q 90 153.432576 90 149.954679 
Q 90 146.436232 94.857265 144.418116 
Q 99.721538 142.4 108.18145 142.4 
Q 111.440653 142.4 114.426504 142.674489 
Q 117.419364 142.945858 120.068781 143.482359 
L 120.068781 146.492378 
Q 117.335256 145.803037 114.629766 145.463045 
Q 111.924277 145.119934 109.204769 145.119934 
Q 104.172279 145.119934 101.445762 146.373848 
Q 98.719246 147.624644 98.719246 149.954679 
Q 98.719246 152.26288 101.347636 153.523032 
Q 103.976026 154.780066 108.812263 154.780066 
Q 110.129963 154.780066 111.258418 154.708325 
Q 112.386874 154.633464 113.284031 154.477505 
L 113.284031 151.651518 
L 108.132386 151.651518 
L 108.132386 149.134332 
L 121.274336 149.134332 
z
" style="fill:#ffa600;"/>
   </g>
   <g id="patch_3">
    <path clip-path="url(#pa624a72a47)" d="M 111.66376 134.14775 
L 99.636153 134.14775 
L 97.737057 142.4 
L 90 142.4 
L 101.049285 97.1 
L 110.225051 97.1 
L 121.274336 142.4 
L 113.543673 142.4 
z
M 101.554432 125.740163 
L 109.726299 125.740163 
L 105.64676 107.721132 
z
" style="fill:#008000;"/>
   </g>
   <g id="patch_4">
    <path clip-path="url(#pa624a72a47)" d="M 144.584114 151.9985 
L 132.556507 151.9985 
L 130.657411 157.5 
L 122.920354 157.5 
L 133.969639 127.3 
L 143.145405 127.3 
L 154.19469 157.5 
L 146.464027 157.5 
z
M 134.474786 146.393442 
L 142.646653 146.393442 
L 138.567114 134.380754 
z
" style="fill:#008000;"/>
   </g>
   <g id="patch_5">
    <path clip-path="url(#pa624a72a47)" d="M 154.19469 124.567589 
Q 151.040622 125.933795 147.648247 126.620017 
Q 144.255872 127.3 140.639207 127.3 
Q 132.466666 127.3 127.69351 123.232576 
Q 122.920354 119.165152 122.920354 112.209358 
Q 122.920354 105.172464 127.777619 101.136232 
Q 132.641892 97.1 141.101804 97.1 
Q 144.361007 97.1 147.346858 97.648977 
Q 150.339718 98.191717 152.989135 99.264718 
L 152.989135 105.284755 
Q 150.25561 103.906073 147.55012 103.22609 
Q 144.844631 102.539868 142.125123 102.539868 
Q 137.092633 102.539868 134.366116 105.047697 
Q 131.6396 107.549287 131.6396 112.209358 
Q 131.6396 116.825759 134.26799 119.346065 
Q 136.89638 121.860132 141.732617 121.860132 
Q 143.050317 121.860132 144.178772 121.716649 
Q 145.307228 121.566928 146.204385 121.255009 
L 146.204385 115.603037 
L 141.05274 115.603037 
L 141.05274 110.568663 
L 154.19469 110.568663 
z
" style="fill:#ffa600;"/>
   </g>
   <g id="patch_6">
    <path clip-path="url(#pa624a72a47)" d="M 187.115044 156.133795 
Q 183.960976 156.816897 180.568601 157.160008 
Q 177.176226 157.5 173.559561 157.5 
Q 165.38702 157.5 160.613864 155.466288 
Q 155.840708 153.432576 155.840708 149.954679 
Q 155.840708 146.436232 160.697973 144.418116 
Q 165.562246 142.4 174.022158 142.4 
Q 177.281361 142.4 180.267212 142.674489 
Q 183.260072 142.945858 185.909489 143.482359 
L 185.909489 146.492378 
Q 183.175964 145.803037 180.470474 145.463045 
Q 177.764985 145.119934 175.045477 145.119934 
Q 170.012987 145.119934 167.28647 146.373848 
Q 164.559954 147.624644 164.559954 149.954679 
Q 164.559954 152.26288 167.188344 153.523032 
Q 169.816734 154.780066 174.652971 154.780066 
Q 175.970671 154.780066 177.099126 154.708325 
Q 178.227582 154.633464 179.124739 154.477505 
L 179.124739 151.651518 
L 173.973094 151.651518 
L 173.973094 149.134332 
L 187.115044 149.134332 
z
" style="fill:#ffa600;"/>
   </g>
   <g id="patch_7">
    <path clip-path="url(#pa624a72a47)" d="M 155.840708 127.3 
L 187.115044 127.3 
L 187.115044 130.244921 
L 175.863556 130.244921 
L 175.863556 142.4 
L 167.114015 142.4 
L 167.114015 130.244921 
L 155.840708 130.244921 
z
" style="fill:#ff0000;"/>
   </g>
   <g id="patch_8">
    <path clip-path="url(#pa624a72a47)" d="M 177.504468 121.7985 
L 165.476861 121.7985 
L 163.577765 127.3 
L 155.840708 127.3 
L 166.889993 97.1 
L 176.065759 97.1 
L 187.115044 127.3 
L 179.384381 127.3 
z
M 167.39514 116.193442 
L 175.567007 116.193442 
L 171.487467 104.180754 
z
" style="fill:#008000;"/>
   </g>
   <g id="patch_9">
    <path clip-path="url(#pa624a72a47)" d="M 220.035398 155.335282 
Q 217.419354 156.408283 214.590559 156.951023 
Q 211.761764 157.5 208.680821 157.5 
Q 199.493147 157.5 194.127105 153.432576 
Q 188.761062 149.365152 188.761062 142.409358 
Q 188.761062 135.42861 194.127105 131.367424 
Q 199.493147 127.3 208.680821 127.3 
Q 211.761764 127.3 214.590559 127.848977 
Q 217.419354 128.391717 220.035398 129.464718 
L 220.035398 135.484755 
Q 217.395715 134.062404 214.834828 133.401136 
Q 212.273942 132.739868 209.445147 132.739868 
Q 204.370651 132.739868 201.46306 135.316319 
Q 198.563348 137.886532 198.563348 142.409358 
Q 198.563348 146.913468 201.46306 149.489919 
Q 204.370651 152.060132 209.445147 152.060132 
Q 212.273942 152.060132 214.834828 151.398864 
Q 217.395715 150.731357 220.035398 149.309006 
z
" style="fill:#0000ff;"/>
   </g>
   <g id="patch_10">
    <path clip-path="url(#pa624a72a47)" d="M 188.761062 97.1 
L 220.035398 97.1 
L 220.035398 102.989841 
L 208.78391 102.989841 
L 208.78391 127.3 
L 200.034369 127.3 
L 200.034369 102.989841 
L 188.761062 102.989841 
z
" style="fill:#ff0000;"/>
   </g>
   <g id="patch_11">
    <path clip-path="url(#pa624a72a47)" d="M 221.681416 142.4 
L 252.955752 142.4 
L 252.955752 145.344921 
L 241.704264 145.344921 
L 241.704264 157.5 
L 232.954723 157.5 
L 232.954723 145.344921 
L 221.681416 145.344921 
z
" style="fill:#ff0000;"/>
   </g>
   <g id="patch_12">
    <path clip-path="url(#pa624a72a47)" d="M 252.955752 139.152923 
Q 250.339708 140.762425 247.510913 141.576534 
Q 244.682118 142.4 241.601175 142.4 
Q 232.413501 142.4 227.047459 136.298864 
Q 221.681416 130.197728 221.681416 119.764036 
Q 221.681416 109.292915 227.047459 103.201136 
Q 232.413501 97.1 241.601175 97.1 
Q 244.682118 97.1 247.510913 97.923466 
Q 250.339708 98.737575 252.955752 100.347077 
L 252.955752 109.377133 
Q 250.316069 107.243607 247.755182 106.251704 
Q 245.194296 105.259802 242.365501 105.259802 
Q 237.291005 105.259802 234.383414 109.124478 
Q 231.483702 112.979798 231.483702 119.764036 
Q 231.483702 126.520202 234.383414 130.384879 
Q 237.291005 134.240198 242.365501 134.240198 
Q 245.194296 134.240198 247.755182 133.248296 
Q 250.316069 132.247036 252.955752 130.11351 
z
" style="fill:#0000ff;"/>
   </g>
   <g id="patch_13">
    <path clip-path="url(#pa624a72a47)" d="M 276.26553 151.9985 
L 264.237923 151.9985 
L 262.338827 157.5 
L 254.60177 157.5 
L 265.651055 127.3 
L 274.826821 127.3 
L 285.876106 157.5 
L 278.145443 157.5 
z
M 266.156202 146.393442 
L 274.328069 146.393442 
L 270.248529 134.380754 
z
" style="fill:#008000;"/>
   </g>
   <g id="patch_14">
    <path clip-path="url(#pa624a72a47)" d="M 285.876106 125.135282 
Q 283.260062 126.208283 280.431267 126.751023 
Q 277.602472 127.3 274.521529 127.3 
Q 265.333855 127.3 259.967812 123.232576 
Q 254.60177 119.165152 254.60177 112.209358 
Q 254.60177 105.22861 259.967812 101.167424 
Q 265.333855 97.1 274.521529 97.1 
Q 277.602472 97.1 280.431267 97.648977 
Q 283.260062 98.191717 285.876106 99.264718 
L 285.876106 105.284755 
Q 283.236423 103.862404 280.675536 103.201136 
Q 278.11465 102.539868 275.285855 102.539868 
Q 270.211359 102.539868 267.303768 105.116319 
Q 264.404056 107.686532 264.404056 112.209358 
Q 264.404056 116.713468 267.303768 119.289919 
Q 270.211359 121.860132 275.285855 121.860132 
Q 278.11465 121.860132 280.675536 121.198864 
Q 283.236423 120.531357 285.876106 119.109006 
z
" style="fill:#0000ff;"/>
   </g>
   <g id="patch_15">
    <path clip-path="url(#pa624a72a47)" d="M 309.185884 154.74925 
L 297.158277 154.74925 
L 295.259181 157.5 
L 287.522124 157.5 
L 298.571409 142.4 
L 307.747175 142.4 
L 318.79646 157.5 
L 311.065797 157.5 
z
M 299.076556 151.946721 
L 307.248423 151.946721 
L 303.168883 145.940377 
z
" style="fill:#008000;"/>
   </g>
   <g id="patch_16">
    <path clip-path="url(#pa624a72a47)" d="M 318.79646 141.033795 
Q 315.642392 141.716897 312.250017 142.060008 
Q 308.857642 142.4 305.240977 142.4 
Q 297.068436 142.4 292.29528 140.366288 
Q 287.522124 138.332576 287.522124 134.854679 
Q 287.522124 131.336232 292.379389 129.318116 
Q 297.243662 127.3 305.703574 127.3 
Q 308.962777 127.3 311.948628 127.574489 
Q 314.941488 127.845858 317.590905 128.382359 
L 317.590905 131.392378 
Q 314.85738 130.703037 312.15189 130.363045 
Q 309.446401 130.019934 306.726893 130.019934 
Q 301.694403 130.019934 298.967886 131.273848 
Q 296.24137 132.524644 296.24137 134.854679 
Q 296.24137 137.16288 298.86976 138.423032 
Q 301.49815 139.680066 306.334387 139.680066 
Q 307.652087 139.680066 308.780542 139.608325 
Q 309.908998 139.533464 310.806155 139.377505 
L 310.806155 136.551518 
L 305.65451 136.551518 
L 305.65451 134.034332 
L 318.79646 134.034332 
z
" style="fill:#ffa600;"/>
   </g>
   <g id="patch_17">
    <path clip-path="url(#pa624a72a47)" d="M 287.522124 97.1 
L 318.79646 97.1 
L 318.79646 102.989841 
L 307.544972 102.989841 
L 307.544972 127.3 
L 298.795431 127.3 
L 298.795431 102.989841 
L 287.522124 102.989841 
z
" style="fill:#ff0000;"/>
   </g>
   <g id="patch_18">
    <path clip-path="url(#pa624a72a47)" d="M 342.106238 151.9985 
L 330.078631 151.9985 
L 328.179535 157.5 
L 320.442478 157.5 
L 331.491763 127.3 
L 340.667529 127.3 
L 351.716814 157.5 
L 343.986151 157.5 
z
M 331.99691 146.393442 
L 340.168777 146.393442 
L 336.089237 134.380754 
z
" style="fill:#008000;"/>
   </g>
   <g id="patch_19">
    <path clip-path="url(#pa624a72a47)" d="M 320.442478 97.1 
L 351.716814 97.1 
L 351.716814 102.989841 
L 340.465326 102.989841 
L 340.465326 127.3 
L 331.715785 127.3 
L 331.715785 102.989841 
L 320.442478 102.989841 
z
" style="fill:#ff0000;"/>
   </g>
   <g id="patch_20">
    <path clip-path="url(#pa624a72a47)" d="M 351.716814 90.268973 
Q 348.562746 93.684487 345.170371 95.400041 
Q 341.777996 97.1 338.161331 97.1 
Q 329.98879 97.1 325.215634 86.93144 
Q 320.442478 76.76288 320.442478 59.373394 
Q 320.442478 41.781161 325.299743 31.69058 
Q 330.164016 21.6 338.623928 21.6 
Q 341.883131 21.6 344.868982 22.972444 
Q 347.861842 24.329291 350.511259 27.011795 
L 350.511259 42.061888 
Q 347.777734 38.615183 345.072244 36.915224 
Q 342.366755 35.199669 339.647247 35.199669 
Q 334.614757 35.199669 331.88824 41.469242 
Q 329.161724 47.723218 329.161724 59.373394 
Q 329.161724 70.914398 331.790114 77.215162 
Q 334.418504 83.500331 339.254741 83.500331 
Q 340.572441 83.500331 341.700896 83.141624 
Q 342.829351 82.767321 343.726509 81.987523 
L 343.726509 67.857591 
L 338.574864 67.857591 
L 338.574864 55.271659 
L 351.716814 55.271659 
z
" style="fill:#ffa600;"/>
   </g>
   <g id="patch_21">
    <path clip-path="url(#pa624a72a47)" d="M 384.637168 156.417641 
Q 382.021124 156.954142 379.192329 157.225511 
Q 376.363534 157.5 373.282591 157.5 
Q 364.094917 157.5 358.728874 155.466288 
Q 353.362832 153.432576 353.362832 149.954679 
Q 353.362832 146.464305 358.728874 144.433712 
Q 364.094917 142.4 373.282591 142.4 
Q 376.363534 142.4 379.192329 142.674489 
Q 382.021124 142.945858 384.637168 143.482359 
L 384.637168 146.492378 
Q 381.997485 145.781202 379.436598 145.450568 
Q 376.875712 145.119934 374.046917 145.119934 
Q 368.972421 145.119934 366.06483 146.408159 
Q 363.165118 147.693266 363.165118 149.954679 
Q 363.165118 152.206734 366.06483 153.49496 
Q 368.972421 154.780066 374.046917 154.780066 
Q 376.875712 154.780066 379.436598 154.449432 
Q 381.997485 154.115679 384.637168 153.404503 
z
" style="fill:#0000ff;"/>
   </g>
   <g id="patch_22">
    <path clip-path="url(#pa624a72a47)" d="M 375.026592 120.393999 
L 362.998985 120.393999 
L 361.099889 142.4 
L 353.362832 142.4 
L 364.412117 21.6 
L 373.587883 21.6 
L 384.637168 142.4 
L 376.906505 142.4 
z
M 364.917264 97.973768 
L 373.089131 97.973768 
L 369.009591 49.923018 
z
" style="fill:#008000;"/>
   </g>
   <g id="patch_23">
    <path clip-path="url(#pa624a72a47)" d="M 386.283186 21.6 
L 417.557522 21.6 
L 417.557522 48.104286 
L 406.306034 48.104286 
L 406.306034 157.5 
L 397.556493 157.5 
L 397.556493 48.104286 
L 386.283186 48.104286 
z
" style="fill:#ff0000;"/>
   </g>
   <g id="patch_24">
    <path clip-path="url(#pa624a72a47)" d="M 440.8673 154.74925 
L 428.839693 154.74925 
L 426.940597 157.5 
L 419.20354 157.5 
L 430.252825 142.4 
L 439.428591 142.4 
L 450.477876 157.5 
L 442.747213 157.5 
z
M 430.757972 151.946721 
L 438.929839 151.946721 
L 434.850299 145.940377 
z
" style="fill:#008000;"/>
   </g>
   <g id="patch_25">
    <path clip-path="url(#pa624a72a47)" d="M 450.477876 131.470357 
Q 447.323808 136.935179 443.931433 139.680066 
Q 440.539057 142.4 436.922393 142.4 
Q 428.749852 142.4 423.976696 126.130304 
Q 419.20354 109.860607 419.20354 82.03743 
Q 419.20354 53.889857 424.060805 37.744929 
Q 428.925078 21.6 437.384989 21.6 
Q 440.644193 21.6 443.630044 23.79591 
Q 446.622904 25.966866 449.272321 30.258872 
L 449.272321 54.339021 
Q 446.538796 48.824293 443.833306 46.104359 
Q 441.127817 43.359471 438.408309 43.359471 
Q 433.375819 43.359471 430.649302 53.390787 
Q 427.922786 63.397149 427.922786 82.03743 
Q 427.922786 100.503037 430.551176 110.584259 
Q 433.179565 120.640529 438.015803 120.640529 
Q 439.333503 120.640529 440.461958 120.066598 
Q 441.590413 119.467713 442.487571 118.220037 
L 442.487571 95.612146 
L 437.335926 95.612146 
L 437.335926 75.474654 
L 450.477876 75.474654 
z
" style="fill:#ffa600;"/>
   </g>
   <g id="patch_26">
    <path clip-path="url(#pa624a72a47)" d="M 452.123894 127.3 
L 483.39823 127.3 
L 483.39823 133.189841 
L 472.146742 133.189841 
L 472.146742 157.5 
L 463.397201 157.5 
L 463.397201 133.189841 
L 452.123894 133.189841 
z
" style="fill:#ff0000;"/>
   </g>
   <g id="patch_27">
    <path clip-path="url(#pa624a72a47)" d="M 483.39823 119.723487 
Q 480.782186 123.478992 477.953391 125.378579 
Q 475.124596 127.3 472.043652 127.3 
Q 462.855979 127.3 457.489936 113.064016 
Q 452.123894 98.828031 452.123894 74.482751 
Q 452.123894 50.050134 457.489936 35.835984 
Q 462.855979 21.6 472.043652 21.6 
Q 475.124596 21.6 477.953391 23.521421 
Q 480.782186 25.421008 483.39823 29.176513 
L 483.39823 50.246643 
Q 480.758547 45.268416 478.19766 42.953976 
Q 475.636773 40.639537 472.807979 40.639537 
Q 467.733483 40.639537 464.825892 49.657116 
Q 461.92618 58.652861 461.92618 74.482751 
Q 461.92618 90.247139 464.825892 99.264718 
Q 467.733483 108.260463 472.807979 108.260463 
Q 475.636773 108.260463 478.19766 105.946024 
Q 480.758547 103.60975 483.39823 98.631522 
z
" style="fill:#0000ff;"/>
   </g>
   <g id="patch_28">
    <path clip-path="url(#pa624a72a47)" d="M 516.318584 156.417641 
Q 513.70254 156.954142 510.873745 157.225511 
Q 508.04495 157.5 504.964006 157.5 
Q 495.776333 157.5 490.41029 155.466288 
Q 485.044248 153.432576 485.044248 149.954679 
Q 485.044248 146.464305 490.41029 144.433712 
Q 495.776333 142.4 504.964006 142.4 
Q 508.04495 142.4 510.873745 142.674489 
Q 513.70254 142.945858 516.318584 143.482359 
L 516.318584 146.492378 
Q 513.678901 145.781202 511.118014 145.450568 
Q 508.557127 145.119934 505.728333 145.119934 
Q 500.653837 145.119934 497.746246 146.408159 
Q 494.846534 147.693266 494.846534 149.954679 
Q 494.846534 152.206734 497.746246 153.49496 
Q 500.653837 154.780066 505.728333 154.780066 
Q 508.557127 154.780066 511.118014 154.449432 
Q 513.678901 154.115679 516.318584 153.404503 
z
" style="fill:#0000ff;"/>
   </g>
   <g id="patch_29">
    <path clip-path="url(#pa624a72a47)" d="M 506.708008 131.397 
L 494.680401 131.397 
L 492.781305 142.4 
L 485.044248 142.4 
L 496.093533 82 
L 505.269299 82 
L 516.318584 142.4 
L 508.587921 142.4 
z
M 496.59868 120.186884 
L 504.770547 120.186884 
L 500.691007 96.161509 
z
" style="fill:#008000;"/>
   </g>
   <g id="patch_30">
    <path clip-path="url(#pa624a72a47)" d="M 485.044248 21.6 
L 516.318584 21.6 
L 516.318584 33.379683 
L 505.067096 33.379683 
L 505.067096 82 
L 496.317555 82 
L 496.317555 33.379683 
L 485.044248 33.379683 
z
" style="fill:#ff0000;"/>
   </g>
   <g id="patch_31">
    <path clip-path="url(#pa624a72a47)" d="M 549.238938 156.417641 
Q 546.622894 156.954142 543.794099 157.225511 
Q 540.965304 157.5 537.88436 157.5 
Q 528.696687 157.5 523.330644 155.466288 
Q 517.964602 153.432576 517.964602 149.954679 
Q 517.964602 146.464305 523.330644 144.433712 
Q 528.696687 142.4 537.88436 142.4 
Q 540.965304 142.4 543.794099 142.674489 
Q 546.622894 142.945858 549.238938 143.482359 
L 549.238938 146.492378 
Q 546.599255 145.781202 544.038368 145.450568 
Q 541.477481 145.119934 538.648687 145.119934 
Q 533.574191 145.119934 530.6666 146.408159 
Q 527.766888 147.693266 527.766888 149.954679 
Q 527.766888 152.206734 530.6666 153.49496 
Q 533.574191 154.780066 538.648687 154.780066 
Q 541.477481 154.780066 544.038368 154.449432 
Q 546.599255 154.115679 549.238938 153.404503 
z
" style="fill:#0000ff;"/>
   </g>
   <g id="patch_32">
    <path clip-path="url(#pa624a72a47)" d="M 517.964602 112.2 
L 549.238938 112.2 
L 549.238938 118.089841 
L 537.98745 118.089841 
L 537.98745 142.4 
L 529.237909 142.4 
L 529.237909 118.089841 
L 517.964602 118.089841 
z
" style="fill:#ff0000;"/>
   </g>
   <g id="patch_33">
    <path clip-path="url(#pa624a72a47)" d="M 539.628362 95.695499 
L 527.600755 95.695499 
L 525.701659 112.2 
L 517.964602 112.2 
L 529.013887 21.6 
L 538.189653 21.6 
L 549.238938 112.2 
L 541.508275 112.2 
z
M 529.519034 78.880326 
L 537.690901 78.880326 
L 533.611361 42.842263 
z
" style="fill:#008000;"/>
   </g>
   <g id="patch_34">
    <path clip-path="url(#pa624a72a47)" d="M 550.884956 127.3 
L 582.159292 127.3 
L 582.159292 133.189841 
L 570.907804 133.189841 
L 570.907804 157.5 
L 562.158263 157.5 
L 562.158263 133.189841 
L 550.884956 133.189841 
z
" style="fill:#ff0000;"/>
   </g>
   <g id="patch_35">
    <path clip-path="url(#pa624a72a47)" d="M 582.159292 123.201384 
Q 579.005224 125.250692 575.612849 126.280025 
Q 572.220473 127.3 568.603809 127.3 
Q 560.431268 127.3 555.658112 121.198864 
Q 550.884956 115.097728 550.884956 104.664036 
Q 550.884956 94.108697 555.74222 88.054348 
Q 560.606494 82 569.066405 82 
Q 572.325609 82 575.31146 82.823466 
Q 578.30432 83.637575 580.953737 85.247077 
L 580.953737 94.277133 
Q 578.220212 92.20911 575.514722 91.189134 
Q 572.809233 90.159802 570.089725 90.159802 
Q 565.057235 90.159802 562.330718 93.921545 
Q 559.604201 97.673931 559.604201 104.664036 
Q 559.604201 111.588639 562.232591 115.369097 
Q 564.860981 119.140198 569.697219 119.140198 
Q 571.014919 119.140198 572.143374 118.924974 
Q 573.271829 118.700392 574.168986 118.232514 
L 574.168986 109.754555 
L 569.017342 109.754555 
L 569.017342 102.202995 
L 582.159292 102.202995 
z
" style="fill:#ffa600;"/>
   </g>
   <g id="patch_36">
    <path clip-path="url(#pa624a72a47)" d="M 572.548716 70.997 
L 560.521109 70.997 
L 558.622013 82 
L 550.884956 82 
L 561.934241 21.6 
L 571.110007 21.6 
L 582.159292 82 
L 574.428629 82 
z
M 562.439387 59.786884 
L 570.611255 59.786884 
L 566.531715 35.761509 
z
" style="fill:#008000;"/>
   </g>
   <g id="patch_37">
    <path clip-path="url(#pa624a72a47)" d="M 605.46907 149.24775 
L 593.441463 149.24775 
L 591.542367 157.5 
L 583.80531 157.5 
L 594.854595 112.2 
L 604.030361 112.2 
L 615.079646 157.5 
L 607.348983 157.5 
z
M 595.359741 140.840163 
L 603.531609 140.840163 
L 599.452069 122.821132 
z
" style="fill:#008000;"/>
   </g>
   <g id="patch_38">
    <path clip-path="url(#pa624a72a47)" d="M 615.079646 104.002768 
Q 611.925578 108.101384 608.533203 110.16005 
Q 605.140827 112.2 601.524163 112.2 
Q 593.351622 112.2 588.578466 99.997728 
Q 583.80531 87.795455 583.80531 66.928073 
Q 583.80531 45.817393 588.662574 33.708697 
Q 593.526848 21.6 601.986759 21.6 
Q 605.245963 21.6 608.231814 23.246932 
Q 611.224674 24.87515 613.874091 28.094154 
L 613.874091 46.154266 
Q 611.140566 42.018219 608.435076 39.978269 
Q 605.729587 37.919603 603.010079 37.919603 
Q 597.977589 37.919603 595.251072 45.44309 
Q 592.524555 52.947862 592.524555 66.928073 
Q 592.524555 80.777277 595.152945 88.338195 
Q 597.781335 95.880397 602.617573 95.880397 
Q 603.935272 95.880397 605.063728 95.449948 
Q 606.192183 95.000785 607.08934 94.065028 
L 607.08934 77.10911 
L 601.937696 77.10911 
L 601.937696 62.00599 
L 615.079646 62.00599 
z
" style="fill:#ffa600;"/>
   </g>
   <g id="patch_39">
    <path clip-path="url(#pa624a72a47)" d="M 638.389424 146.497 
L 626.361817 146.497 
L 624.462721 157.5 
L 616.725664 157.5 
L 627.774949 97.1 
L 636.950715 97.1 
L 648 157.5 
L 640.269337 157.5 
z
M 628.280095 135.286884 
L 636.451963 135.286884 
L 632.372423 111.261509 
z
" style="fill:#008000;"/>
   </g>
   <g id="patch_40">
    <path clip-path="url(#pa624a72a47)" d="M 648 90.268973 
Q 644.845932 93.684487 641.453557 95.400041 
Q 638.061181 97.1 634.444517 97.1 
Q 626.271976 97.1 621.49882 86.93144 
Q 616.725664 76.76288 616.725664 59.373394 
Q 616.725664 41.781161 621.582928 31.69058 
Q 626.447202 21.6 634.907113 21.6 
Q 638.166317 21.6 641.152168 22.972444 
Q 644.145028 24.329291 646.794445 27.011795 
L 646.794445 42.061888 
Q 644.06092 38.615183 641.35543 36.915224 
Q 638.649941 35.199669 635.930433 35.199669 
Q 630.897943 35.199669 628.171426 41.469242 
Q 625.444909 47.723218 625.444909 59.373394 
Q 625.444909 70.914398 628.073299 77.215162 
Q 630.701689 83.500331 635.537927 83.500331 
Q 636.855626 83.500331 637.984082 83.141624 
Q 639.112537 82.767321 640.009694 81.987523 
L 640.009694 67.857591 
L 634.85805 67.857591 
L 634.85805 55.271659 
L 648 55.271659 
z
" style="fill:#ffa600;"/>
   </g>
  </g>
 </g>
 <defs>
  <clipPath id="pa624a72a47">
   <rect height="135.9" width="558" x="90" y="21.6"/>
  </clipPath>
 </defs>
</svg>
