<?xml version="1.0" encoding="utf-8" standalone="no"?>
<!DOCTYPE svg PUBLIC "-//W3C//DTD SVG 1.1//EN"
  "http://www.w3.org/Graphics/SVG/1.1/DTD/svg11.dtd">
<!-- Created with matplotlib (https://matplotlib.org/) -->
<svg height="180pt" version="1.1" viewBox="0 0 720 180" width="720pt" xmlns="http://www.w3.org/2000/svg" xmlns:xlink="http://www.w3.org/1999/xlink">
 <metadata>
  <rdf:RDF xmlns:cc="http://creativecommons.org/ns#" xmlns:dc="http://purl.org/dc/elements/1.1/" xmlns:rdf="http://www.w3.org/1999/02/22-rdf-syntax-ns#">
   <cc:Work>
    <dc:type rdf:resource="http://purl.org/dc/dcmitype/StillImage"/>
    <dc:date>2021-08-04T23:33:39.726459</dc:date>
    <dc:format>image/svg+xml</dc:format>
    <dc:creator>
     <cc:Agent>
      <dc:title>Matplotlib v3.3.2, https://matplotlib.org/</dc:title>
     </cc:Agent>
    </dc:creator>
   </cc:Work>
  </rdf:RDF>
 </metadata>
 <defs>
  <style type="text/css">*{stroke-linecap:butt;stroke-linejoin:round;}</style>
 </defs>
 <g id="figure_1">
  <g id="patch_1">
   <path d="M 0 180 
L 720 180 
L 720 0 
L 0 0 
z
" style="fill:none;"/>
  </g>
  <g id="axes_1">
   <g id="line2d_1">
    <path clip-path="url(#p7548a26d9c)" d="M 90 157.5 
L 648 157.5 
" style="fill:none;stroke:#000000;stroke-linecap:square;stroke-width:0.5;"/>
   </g>
   <g id="patch_2">
    <path clip-path="url(#p7548a26d9c)" d="M 90 142.4 
L 121.274336 142.4 
L 121.274336 145.344921 
L 110.022848 145.344921 
L 110.022848 157.5 
L 101.273307 157.5 
L 101.273307 145.344921 
L 90 145.344921 
z
" style="fill:#ff0000;"/>
   </g>
   <g id="patch_3">
    <path clip-path="url(#p7548a26d9c)" d="M 121.274336 138.301384 
Q 118.120268 140.350692 114.727893 141.380025 
Q 111.335518 142.4 107.718853 142.4 
Q 99.546312 142.4 94.773156 136.298864 
Q 90 130.197728 90 119.764036 
Q 90 109.208697 94.857265 103.154348 
Q 99.721538 97.1 108.18145 97.1 
Q 111.440653 97.1 114.426504 97.923466 
Q 117.419364 98.737575 120.068781 100.347077 
L 120.068781 109.377133 
Q 117.335256 107.30911 114.629766 106.289134 
Q 111.924277 105.259802 109.204769 105.259802 
Q 104.172279 105.259802 101.445762 109.021545 
Q 98.719246 112.773931 98.719246 119.764036 
Q 98.719246 126.688639 101.347636 130.469097 
Q 103.976026 134.240198 108.812263 134.240198 
Q 110.129963 134.240198 111.258418 134.024974 
Q 112.386874 133.800392 113.284031 133.332514 
L 113.284031 124.854555 
L 108.132386 124.854555 
L 108.132386 117.302995 
L 121.274336 117.302995 
z
" style="fill:#ffa600;"/>
   </g>
   <g id="patch_4">
    <path clip-path="url(#p7548a26d9c)" d="M 111.66376 83.346249 
L 99.636153 83.346249 
L 97.737057 97.1 
L 90 97.1 
L 101.049285 21.6 
L 110.225051 21.6 
L 121.274336 97.1 
L 113.543673 97.1 
z
M 101.554432 69.333605 
L 109.726299 69.333605 
L 105.64676 39.301886 
z
" style="fill:#008000;"/>
   </g>
   <g id="patch_5">
    <path clip-path="url(#p7548a26d9c)" d="M 122.920354 142.4 
L 154.19469 142.4 
L 154.19469 145.344921 
L 142.943202 145.344921 
L 142.943202 157.5 
L 134.193661 157.5 
L 134.193661 145.344921 
L 122.920354 145.344921 
z
" style="fill:#ff0000;"/>
   </g>
   <g id="patch_6">
    <path clip-path="url(#p7548a26d9c)" d="M 154.19469 138.301384 
Q 151.040622 140.350692 147.648247 141.380025 
Q 144.255872 142.4 140.639207 142.4 
Q 132.466666 142.4 127.69351 136.298864 
Q 122.920354 130.197728 122.920354 119.764036 
Q 122.920354 109.208697 127.777619 103.154348 
Q 132.641892 97.1 141.101804 97.1 
Q 144.361007 97.1 147.346858 97.923466 
Q 150.339718 98.737575 152.989135 100.347077 
L 152.989135 109.377133 
Q 150.25561 107.30911 147.55012 106.289134 
Q 144.844631 105.259802 142.125123 105.259802 
Q 137.092633 105.259802 134.366116 109.021545 
Q 131.6396 112.773931 131.6396 119.764036 
Q 131.6396 126.688639 134.26799 130.469097 
Q 136.89638 134.240198 141.732617 134.240198 
Q 143.050317 134.240198 144.178772 134.024974 
Q 145.307228 133.800392 146.204385 133.332514 
L 146.204385 124.854555 
L 141.05274 124.854555 
L 141.05274 117.302995 
L 154.19469 117.302995 
z
" style="fill:#ffa600;"/>
   </g>
   <g id="patch_7">
    <path clip-path="url(#p7548a26d9c)" d="M 144.584114 83.346249 
L 132.556507 83.346249 
L 130.657411 97.1 
L 122.920354 97.1 
L 133.969639 21.6 
L 143.145405 21.6 
L 154.19469 97.1 
L 146.464027 97.1 
z
M 134.474786 69.333605 
L 142.646653 69.333605 
L 138.567114 39.301886 
z
" style="fill:#008000;"/>
   </g>
   <g id="patch_8">
    <path clip-path="url(#p7548a26d9c)" d="M 177.504468 154.74925 
L 165.476861 154.74925 
L 163.577765 157.5 
L 155.840708 157.5 
L 166.889993 142.4 
L 176.065759 142.4 
L 187.115044 157.5 
L 179.384381 157.5 
z
M 167.39514 151.946721 
L 175.567007 151.946721 
L 171.487467 145.940377 
z
" style="fill:#008000;"/>
   </g>
   <g id="patch_9">
    <path clip-path="url(#p7548a26d9c)" d="M 187.115044 141.317641 
Q 184.499 141.854142 181.670205 142.125511 
Q 178.84141 142.4 175.760467 142.4 
Q 166.572793 142.4 161.206751 140.366288 
Q 155.840708 138.332576 155.840708 134.854679 
Q 155.840708 131.364305 161.206751 129.333712 
Q 166.572793 127.3 175.760467 127.3 
Q 178.84141 127.3 181.670205 127.574489 
Q 184.499 127.845858 187.115044 128.382359 
L 187.115044 131.392378 
Q 184.475361 130.681202 181.914474 130.350568 
Q 179.353588 130.019934 176.524793 130.019934 
Q 171.450297 130.019934 168.542706 131.308159 
Q 165.642994 132.593266 165.642994 134.854679 
Q 165.642994 137.106734 168.542706 138.39496 
Q 171.450297 139.680066 176.524793 139.680066 
Q 179.353588 139.680066 181.914474 139.349432 
Q 184.475361 139.015679 187.115044 138.304503 
z
" style="fill:#0000ff;"/>
   </g>
   <g id="patch_10">
    <path clip-path="url(#p7548a26d9c)" d="M 187.115044 117.736563 
Q 183.960976 122.518281 180.568601 124.920058 
Q 177.176226 127.3 173.559561 127.3 
Q 165.38702 127.3 160.613864 113.064016 
Q 155.840708 98.828031 155.840708 74.482751 
Q 155.840708 49.853625 160.697973 35.726813 
Q 165.562246 21.6 174.022158 21.6 
Q 177.281361 21.6 180.267212 23.521421 
Q 183.260072 25.421008 185.909489 29.176513 
L 185.909489 50.246643 
Q 183.175964 45.421256 180.470474 43.041314 
Q 177.764985 40.639537 175.045477 40.639537 
Q 170.012987 40.639537 167.28647 49.416939 
Q 164.559954 58.172506 164.559954 74.482751 
Q 164.559954 90.640157 167.188344 99.461227 
Q 169.816734 108.260463 174.652971 108.260463 
Q 175.970671 108.260463 177.099126 107.758273 
Q 178.227582 107.234249 179.124739 106.142533 
L 179.124739 86.360628 
L 173.973094 86.360628 
L 173.973094 68.740322 
L 187.115044 68.740322 
z
" style="fill:#ffa600;"/>
   </g>
   <g id="patch_11">
    <path clip-path="url(#p7548a26d9c)" d="M 210.424822 154.74925 
L 198.397215 154.74925 
L 196.498119 157.5 
L 188.761062 157.5 
L 199.810347 142.4 
L 208.986113 142.4 
L 220.035398 157.5 
L 212.304735 157.5 
z
M 200.315494 151.946721 
L 208.487361 151.946721 
L 204.407821 145.940377 
z
" style="fill:#008000;"/>
   </g>
   <g id="patch_12">
    <path clip-path="url(#p7548a26d9c)" d="M 220.035398 141.317641 
Q 217.419354 141.854142 214.590559 142.125511 
Q 211.761764 142.4 208.680821 142.4 
Q 199.493147 142.4 194.127105 140.366288 
Q 188.761062 138.332576 188.761062 134.854679 
Q 188.761062 131.364305 194.127105 129.333712 
Q 199.493147 127.3 208.680821 127.3 
Q 211.761764 127.3 214.590559 127.574489 
Q 217.419354 127.845858 220.035398 128.382359 
L 220.035398 131.392378 
Q 217.395715 130.681202 214.834828 130.350568 
Q 212.273942 130.019934 209.445147 130.019934 
Q 204.370651 130.019934 201.46306 131.308159 
Q 198.563348 132.593266 198.563348 134.854679 
Q 198.563348 137.106734 201.46306 138.39496 
Q 204.370651 139.680066 209.445147 139.680066 
Q 212.273942 139.680066 214.834828 139.349432 
Q 217.395715 139.015679 220.035398 138.304503 
z
" style="fill:#0000ff;"/>
   </g>
   <g id="patch_13">
    <path clip-path="url(#p7548a26d9c)" d="M 188.761062 112.2 
L 220.035398 112.2 
L 220.035398 115.144921 
L 208.78391 115.144921 
L 208.78391 127.3 
L 200.034369 127.3 
L 200.034369 115.144921 
L 188.761062 115.144921 
z
" style="fill:#ff0000;"/>
   </g>
   <g id="patch_14">
    <path clip-path="url(#p7548a26d9c)" d="M 220.035398 104.002768 
Q 216.88133 108.101384 213.488955 110.16005 
Q 210.09658 112.2 206.479915 112.2 
Q 198.307374 112.2 193.534218 99.997728 
Q 188.761062 87.795455 188.761062 66.928073 
Q 188.761062 45.817393 193.618327 33.708697 
Q 198.4826 21.6 206.942512 21.6 
Q 210.201715 21.6 213.187566 23.246932 
Q 216.180426 24.87515 218.829843 28.094154 
L 218.829843 46.154266 
Q 216.096318 42.018219 213.390828 39.978269 
Q 210.685339 37.919603 207.965831 37.919603 
Q 202.933341 37.919603 200.206824 45.44309 
Q 197.480308 52.947862 197.480308 66.928073 
Q 197.480308 80.777277 200.108698 88.338195 
Q 202.737088 95.880397 207.573325 95.880397 
Q 208.891025 95.880397 210.01948 95.449948 
Q 211.147936 95.000785 212.045093 94.065028 
L 212.045093 77.10911 
L 206.893448 77.10911 
L 206.893448 62.00599 
L 220.035398 62.00599 
z
" style="fill:#ffa600;"/>
   </g>
   <g id="patch_15">
    <path clip-path="url(#p7548a26d9c)" d="M 252.955752 156.417641 
Q 250.339708 156.954142 247.510913 157.225511 
Q 244.682118 157.5 241.601175 157.5 
Q 232.413501 157.5 227.047459 155.466288 
Q 221.681416 153.432576 221.681416 149.954679 
Q 221.681416 146.464305 227.047459 144.433712 
Q 232.413501 142.4 241.601175 142.4 
Q 244.682118 142.4 247.510913 142.674489 
Q 250.339708 142.945858 252.955752 143.482359 
L 252.955752 146.492378 
Q 250.316069 145.781202 247.755182 145.450568 
Q 245.194296 145.119934 242.365501 145.119934 
Q 237.291005 145.119934 234.383414 146.408159 
Q 231.483702 147.693266 231.483702 149.954679 
Q 231.483702 152.206734 234.383414 153.49496 
Q 237.291005 154.780066 242.365501 154.780066 
Q 245.194296 154.780066 247.755182 154.449432 
Q 250.316069 154.115679 252.955752 153.404503 
z
" style="fill:#0000ff;"/>
   </g>
   <g id="patch_16">
    <path clip-path="url(#p7548a26d9c)" d="M 252.955752 138.301384 
Q 249.801684 140.350692 246.409309 141.380025 
Q 243.016934 142.4 239.400269 142.4 
Q 231.227728 142.4 226.454572 136.298864 
Q 221.681416 130.197728 221.681416 119.764036 
Q 221.681416 109.208697 226.538681 103.154348 
Q 231.402954 97.1 239.862866 97.1 
Q 243.122069 97.1 246.10792 97.923466 
Q 249.10078 98.737575 251.750197 100.347077 
L 251.750197 109.377133 
Q 249.016672 107.30911 246.311182 106.289134 
Q 243.605693 105.259802 240.886185 105.259802 
Q 235.853695 105.259802 233.127178 109.021545 
Q 230.400662 112.773931 230.400662 119.764036 
Q 230.400662 126.688639 233.029052 130.469097 
Q 235.657442 134.240198 240.493679 134.240198 
Q 241.811379 134.240198 242.939834 134.024974 
Q 244.06829 133.800392 244.965447 133.332514 
L 244.965447 124.854555 
L 239.813802 124.854555 
L 239.813802 117.302995 
L 252.955752 117.302995 
z
" style="fill:#ffa600;"/>
   </g>
   <g id="patch_17">
    <path clip-path="url(#p7548a26d9c)" d="M 243.345176 83.346249 
L 231.317569 83.346249 
L 229.418473 97.1 
L 221.681416 97.1 
L 232.730701 21.6 
L 241.906467 21.6 
L 252.955752 97.1 
L 245.225089 97.1 
z
M 233.235848 69.333605 
L 241.407715 69.333605 
L 237.328175 39.301886 
z
" style="fill:#008000;"/>
   </g>
   <g id="patch_18">
    <path clip-path="url(#p7548a26d9c)" d="M 285.876106 154.767589 
Q 282.722038 156.133795 279.329663 156.820017 
Q 275.937288 157.5 272.320623 157.5 
Q 264.148082 157.5 259.374926 153.432576 
Q 254.60177 149.365152 254.60177 142.409358 
Q 254.60177 135.372464 259.459035 131.336232 
Q 264.323308 127.3 272.78322 127.3 
Q 276.042423 127.3 279.028274 127.848977 
Q 282.021134 128.391717 284.670551 129.464718 
L 284.670551 135.484755 
Q 281.937026 134.106073 279.231536 133.42609 
Q 276.526047 132.739868 273.806539 132.739868 
Q 268.774049 132.739868 266.047532 135.247697 
Q 263.321016 137.749287 263.321016 142.409358 
Q 263.321016 147.025759 265.949406 149.546065 
Q 268.577796 152.060132 273.414033 152.060132 
Q 274.731733 152.060132 275.860188 151.916649 
Q 276.988644 151.766928 277.885801 151.455009 
L 277.885801 145.803037 
L 272.734156 145.803037 
L 272.734156 140.768663 
L 285.876106 140.768663 
z
" style="fill:#ffa600;"/>
   </g>
   <g id="patch_19">
    <path clip-path="url(#p7548a26d9c)" d="M 254.60177 21.6 
L 285.876106 21.6 
L 285.876106 42.214445 
L 274.624618 42.214445 
L 274.624618 127.3 
L 265.875077 127.3 
L 265.875077 42.214445 
L 254.60177 42.214445 
z
" style="fill:#ff0000;"/>
   </g>
   <g id="patch_20">
    <path clip-path="url(#p7548a26d9c)" d="M 318.79646 155.335282 
Q 316.180416 156.408283 313.351621 156.951023 
Q 310.522826 157.5 307.441883 157.5 
Q 298.254209 157.5 292.888166 153.432576 
Q 287.522124 149.365152 287.522124 142.409358 
Q 287.522124 135.42861 292.888166 131.367424 
Q 298.254209 127.3 307.441883 127.3 
Q 310.522826 127.3 313.351621 127.848977 
Q 316.180416 128.391717 318.79646 129.464718 
L 318.79646 135.484755 
Q 316.156777 134.062404 313.59589 133.401136 
Q 311.035004 132.739868 308.206209 132.739868 
Q 303.131713 132.739868 300.224122 135.316319 
Q 297.32441 137.886532 297.32441 142.409358 
Q 297.32441 146.913468 300.224122 149.489919 
Q 303.131713 152.060132 308.206209 152.060132 
Q 311.035004 152.060132 313.59589 151.398864 
Q 316.156777 150.731357 318.79646 149.309006 
z
" style="fill:#0000ff;"/>
   </g>
   <g id="patch_21">
    <path clip-path="url(#p7548a26d9c)" d="M 318.79646 117.736563 
Q 315.642392 122.518281 312.250017 124.920058 
Q 308.857642 127.3 305.240977 127.3 
Q 297.068436 127.3 292.29528 113.064016 
Q 287.522124 98.828031 287.522124 74.482751 
Q 287.522124 49.853625 292.379389 35.726813 
Q 297.243662 21.6 305.703574 21.6 
Q 308.962777 21.6 311.948628 23.521421 
Q 314.941488 25.421008 317.590905 29.176513 
L 317.590905 50.246643 
Q 314.85738 45.421256 312.15189 43.041314 
Q 309.446401 40.639537 306.726893 40.639537 
Q 301.694403 40.639537 298.967886 49.416939 
Q 296.24137 58.172506 296.24137 74.482751 
Q 296.24137 90.640157 298.86976 99.461227 
Q 301.49815 108.260463 306.334387 108.260463 
Q 307.652087 108.260463 308.780542 107.758273 
Q 309.908998 107.234249 310.806155 106.142533 
L 310.806155 86.360628 
L 305.65451 86.360628 
L 305.65451 68.740322 
L 318.79646 68.740322 
z
" style="fill:#ffa600;"/>
   </g>
   <g id="patch_22">
    <path clip-path="url(#p7548a26d9c)" d="M 342.106238 149.24775 
L 330.078631 149.24775 
L 328.179535 157.5 
L 320.442478 157.5 
L 331.491763 112.2 
L 340.667529 112.2 
L 351.716814 157.5 
L 343.986151 157.5 
z
M 331.99691 140.840163 
L 340.168777 140.840163 
L 336.089237 122.821132 
z
" style="fill:#008000;"/>
   </g>
   <g id="patch_23">
    <path clip-path="url(#p7548a26d9c)" d="M 351.716814 108.952923 
Q 349.10077 110.562425 346.271975 111.376534 
Q 343.44318 112.2 340.362237 112.2 
Q 331.174563 112.2 325.80852 106.098864 
Q 320.442478 99.997728 320.442478 89.564036 
Q 320.442478 79.092915 325.80852 73.001136 
Q 331.174563 66.9 340.362237 66.9 
Q 343.44318 66.9 346.271975 67.723466 
Q 349.10077 68.537575 351.716814 70.147077 
L 351.716814 79.177133 
Q 349.077131 77.043607 346.516244 76.051704 
Q 343.955358 75.059802 341.126563 75.059802 
Q 336.052067 75.059802 333.144476 78.924478 
Q 330.244764 82.779798 330.244764 89.564036 
Q 330.244764 96.320202 333.144476 100.184879 
Q 336.052067 104.040198 341.126563 104.040198 
Q 343.955358 104.040198 346.516244 103.048296 
Q 349.077131 102.047036 351.716814 99.91351 
z
" style="fill:#0000ff;"/>
   </g>
   <g id="patch_24">
    <path clip-path="url(#p7548a26d9c)" d="M 351.716814 62.801384 
Q 348.562746 64.850692 345.170371 65.880025 
Q 341.777996 66.9 338.161331 66.9 
Q 329.98879 66.9 325.215634 60.798864 
Q 320.442478 54.697728 320.442478 44.264036 
Q 320.442478 33.708697 325.299743 27.654348 
Q 330.164016 21.6 338.623928 21.6 
Q 341.883131 21.6 344.868982 22.423466 
Q 347.861842 23.237575 350.511259 24.847077 
L 350.511259 33.877133 
Q 347.777734 31.80911 345.072244 30.789134 
Q 342.366755 29.759802 339.647247 29.759802 
Q 334.614757 29.759802 331.88824 33.521545 
Q 329.161724 37.273931 329.161724 44.264036 
Q 329.161724 51.188639 331.790114 54.969097 
Q 334.418504 58.740198 339.254741 58.740198 
Q 340.572441 58.740198 341.700896 58.524974 
Q 342.829351 58.300392 343.726509 57.832514 
L 343.726509 49.354555 
L 338.574864 49.354555 
L 338.574864 41.802995 
L 351.716814 41.802995 
z
" style="fill:#ffa600;"/>
   </g>
   <g id="patch_25">
    <path clip-path="url(#p7548a26d9c)" d="M 375.026592 154.74925 
L 362.998985 154.74925 
L 361.099889 157.5 
L 353.362832 157.5 
L 364.412117 142.4 
L 373.587883 142.4 
L 384.637168 157.5 
L 376.906505 157.5 
z
M 364.917264 151.946721 
L 373.089131 151.946721 
L 369.009591 145.940377 
z
" style="fill:#008000;"/>
   </g>
   <g id="patch_26">
    <path clip-path="url(#p7548a26d9c)" d="M 384.637168 139.667589 
Q 381.4831 141.033795 378.090725 141.720017 
Q 374.698349 142.4 371.081685 142.4 
Q 362.909144 142.4 358.135988 138.332576 
Q 353.362832 134.265152 353.362832 127.309358 
Q 353.362832 120.272464 358.220097 116.236232 
Q 363.08437 112.2 371.544282 112.2 
Q 374.803485 112.2 377.789336 112.748977 
Q 380.782196 113.291717 383.431613 114.364718 
L 383.431613 120.384755 
Q 380.698088 119.006073 377.992598 118.32609 
Q 375.287109 117.639868 372.567601 117.639868 
Q 367.535111 117.639868 364.808594 120.147697 
Q 362.082078 122.649287 362.082078 127.309358 
Q 362.082078 131.925759 364.710468 134.446065 
Q 367.338858 136.960132 372.175095 136.960132 
Q 373.492795 136.960132 374.62125 136.816649 
Q 375.749705 136.666928 376.646863 136.355009 
L 376.646863 130.703037 
L 371.495218 130.703037 
L 371.495218 125.668663 
L 384.637168 125.668663 
z
" style="fill:#ffa600;"/>
   </g>
   <g id="patch_27">
    <path clip-path="url(#p7548a26d9c)" d="M 384.637168 105.705846 
Q 382.021124 108.92485 379.192329 110.553068 
Q 376.363534 112.2 373.282591 112.2 
Q 364.094917 112.2 358.728874 99.997728 
Q 353.362832 87.795455 353.362832 66.928073 
Q 353.362832 45.985829 358.728874 33.802272 
Q 364.094917 21.6 373.282591 21.6 
Q 376.363534 21.6 379.192329 23.246932 
Q 382.021124 24.87515 384.637168 28.094154 
L 384.637168 46.154266 
Q 381.997485 41.887213 379.436598 39.903408 
Q 376.875712 37.919603 374.046917 37.919603 
Q 368.972421 37.919603 366.06483 45.648957 
Q 363.165118 53.359595 363.165118 66.928073 
Q 363.165118 80.440405 366.06483 88.169758 
Q 368.972421 95.880397 374.046917 95.880397 
Q 376.875712 95.880397 379.436598 93.896592 
Q 381.997485 91.894071 384.637168 87.627019 
z
" style="fill:#0000ff;"/>
   </g>
   <g id="patch_28">
    <path clip-path="url(#p7548a26d9c)" d="M 417.557522 156.133795 
Q 414.403454 156.816897 411.011079 157.160008 
Q 407.618703 157.5 404.002039 157.5 
Q 395.829498 157.5 391.056342 155.466288 
Q 386.283186 153.432576 386.283186 149.954679 
Q 386.283186 146.436232 391.140451 144.418116 
Q 396.004724 142.4 404.464635 142.4 
Q 407.723839 142.4 410.70969 142.674489 
Q 413.70255 142.945858 416.351967 143.482359 
L 416.351967 146.492378 
Q 413.618442 145.803037 410.912952 145.463045 
Q 408.207463 145.119934 405.487955 145.119934 
Q 400.455465 145.119934 397.728948 146.373848 
Q 395.002432 147.624644 395.002432 149.954679 
Q 395.002432 152.26288 397.630822 153.523032 
Q 400.259212 154.780066 405.095449 154.780066 
Q 406.413149 154.780066 407.541604 154.708325 
Q 408.670059 154.633464 409.567217 154.477505 
L 409.567217 151.651518 
L 404.415572 151.651518 
L 404.415572 149.134332 
L 417.557522 149.134332 
z
" style="fill:#ffa600;"/>
   </g>
   <g id="patch_29">
    <path clip-path="url(#p7548a26d9c)" d="M 417.557522 133.741128 
Q 414.941478 138.033134 412.112683 140.20409 
Q 409.283888 142.4 406.202945 142.4 
Q 397.015271 142.4 391.649228 126.130304 
Q 386.283186 109.860607 386.283186 82.03743 
Q 386.283186 54.114439 391.649228 37.869696 
Q 397.015271 21.6 406.202945 21.6 
Q 409.283888 21.6 412.112683 23.79591 
Q 414.941478 25.966866 417.557522 30.258872 
L 417.557522 54.339021 
Q 414.917839 48.649618 412.356952 46.004545 
Q 409.796066 43.359471 406.967271 43.359471 
Q 401.892775 43.359471 398.985184 53.665276 
Q 396.085472 63.946127 396.085472 82.03743 
Q 396.085472 100.053873 398.985184 110.359678 
Q 401.892775 120.640529 406.967271 120.640529 
Q 409.796066 120.640529 412.356952 117.995455 
Q 414.917839 115.325429 417.557522 109.636026 
z
" style="fill:#0000ff;"/>
   </g>
   <g id="patch_30">
    <path clip-path="url(#p7548a26d9c)" d="M 450.477876 147.758769 
Q 447.861832 152.587275 445.033037 155.029601 
Q 442.204242 157.5 439.123298 157.5 
Q 429.935625 157.5 424.569582 139.196592 
Q 419.20354 120.893183 419.20354 89.592109 
Q 419.20354 58.178744 424.569582 39.903408 
Q 429.935625 21.6 439.123298 21.6 
Q 442.204242 21.6 445.033037 24.070399 
Q 447.861832 26.512725 450.477876 31.341231 
L 450.477876 58.431398 
Q 447.838193 52.03082 445.277306 49.055113 
Q 442.71642 46.079405 439.887625 46.079405 
Q 434.813129 46.079405 431.905538 57.673435 
Q 429.005826 69.239393 429.005826 89.592109 
Q 429.005826 109.860607 431.905538 121.454637 
Q 434.813129 133.020595 439.887625 133.020595 
Q 442.71642 133.020595 445.277306 130.044887 
Q 447.838193 127.041107 450.477876 120.640529 
z
" style="fill:#0000ff;"/>
   </g>
   <g id="patch_31">
    <path clip-path="url(#p7548a26d9c)" d="M 473.787654 154.74925 
L 461.760047 154.74925 
L 459.860951 157.5 
L 452.123894 157.5 
L 463.173179 142.4 
L 472.348945 142.4 
L 483.39823 157.5 
L 475.667567 157.5 
z
M 463.678326 151.946721 
L 471.850193 151.946721 
L 467.770653 145.940377 
z
" style="fill:#008000;"/>
   </g>
   <g id="patch_32">
    <path clip-path="url(#p7548a26d9c)" d="M 483.39823 133.741128 
Q 480.782186 138.033134 477.953391 140.20409 
Q 475.124596 142.4 472.043652 142.4 
Q 462.855979 142.4 457.489936 126.130304 
Q 452.123894 109.860607 452.123894 82.03743 
Q 452.123894 54.114439 457.489936 37.869696 
Q 462.855979 21.6 472.043652 21.6 
Q 475.124596 21.6 477.953391 23.79591 
Q 480.782186 25.966866 483.39823 30.258872 
L 483.39823 54.339021 
Q 480.758547 48.649618 478.19766 46.004545 
Q 475.636773 43.359471 472.807979 43.359471 
Q 467.733483 43.359471 464.825892 53.665276 
Q 461.92618 63.946127 461.92618 82.03743 
Q 461.92618 100.053873 464.825892 110.359678 
Q 467.733483 120.640529 472.807979 120.640529 
Q 475.636773 120.640529 478.19766 117.995455 
Q 480.758547 115.325429 483.39823 109.636026 
z
" style="fill:#0000ff;"/>
   </g>
   <g id="patch_33">
    <path clip-path="url(#p7548a26d9c)" d="M 506.708008 151.9985 
L 494.680401 151.9985 
L 492.781305 157.5 
L 485.044248 157.5 
L 496.093533 127.3 
L 505.269299 127.3 
L 516.318584 157.5 
L 508.587921 157.5 
z
M 496.59868 146.393442 
L 504.770547 146.393442 
L 500.691007 134.380754 
z
" style="fill:#008000;"/>
   </g>
   <g id="patch_34">
    <path clip-path="url(#p7548a26d9c)" d="M 516.318584 119.723487 
Q 513.70254 123.478992 510.873745 125.378579 
Q 508.04495 127.3 504.964006 127.3 
Q 495.776333 127.3 490.41029 113.064016 
Q 485.044248 98.828031 485.044248 74.482751 
Q 485.044248 50.050134 490.41029 35.835984 
Q 495.776333 21.6 504.964006 21.6 
Q 508.04495 21.6 510.873745 23.521421 
Q 513.70254 25.421008 516.318584 29.176513 
L 516.318584 50.246643 
Q 513.678901 45.268416 511.118014 42.953976 
Q 508.557127 40.639537 505.728333 40.639537 
Q 500.653837 40.639537 497.746246 49.657116 
Q 494.846534 58.652861 494.846534 74.482751 
Q 494.846534 90.247139 497.746246 99.264718 
Q 500.653837 108.260463 505.728333 108.260463 
Q 508.557127 108.260463 511.118014 105.946024 
Q 513.678901 103.60975 516.318584 98.631522 
z
" style="fill:#0000ff;"/>
   </g>
   <g id="patch_35">
    <path clip-path="url(#p7548a26d9c)" d="M 517.964602 142.4 
L 549.238938 142.4 
L 549.238938 145.344921 
L 537.98745 145.344921 
L 537.98745 157.5 
L 529.237909 157.5 
L 529.237909 145.344921 
L 517.964602 145.344921 
z
" style="fill:#ff0000;"/>
   </g>
   <g id="patch_36">
    <path clip-path="url(#p7548a26d9c)" d="M 539.628362 134.14775 
L 527.600755 134.14775 
L 525.701659 142.4 
L 517.964602 142.4 
L 529.013887 97.1 
L 538.189653 97.1 
L 549.238938 142.4 
L 541.508275 142.4 
z
M 529.519034 125.740163 
L 537.690901 125.740163 
L 533.611361 107.721132 
z
" style="fill:#008000;"/>
   </g>
   <g id="patch_37">
    <path clip-path="url(#p7548a26d9c)" d="M 549.238938 91.688205 
Q 546.622894 94.370709 543.794099 95.727556 
Q 540.965304 97.1 537.88436 97.1 
Q 528.696687 97.1 523.330644 86.93144 
Q 517.964602 76.76288 517.964602 59.373394 
Q 517.964602 41.921524 523.330644 31.76856 
Q 528.696687 21.6 537.88436 21.6 
Q 540.965304 21.6 543.794099 22.972444 
Q 546.622894 24.329291 549.238938 27.011795 
L 549.238938 42.061888 
Q 546.599255 38.506011 544.038368 36.85284 
Q 541.477481 35.199669 538.648687 35.199669 
Q 533.574191 35.199669 530.6666 41.640797 
Q 527.766888 48.066329 527.766888 59.373394 
Q 527.766888 70.633671 530.6666 77.074799 
Q 533.574191 83.500331 538.648687 83.500331 
Q 541.477481 83.500331 544.038368 81.84716 
Q 546.599255 80.178393 549.238938 76.622516 
z
" style="fill:#0000ff;"/>
   </g>
   <g id="patch_38">
    <path clip-path="url(#p7548a26d9c)" d="M 572.548716 149.24775 
L 560.521109 149.24775 
L 558.622013 157.5 
L 550.884956 157.5 
L 561.934241 112.2 
L 571.110007 112.2 
L 582.159292 157.5 
L 574.428629 157.5 
z
M 562.439387 140.840163 
L 570.611255 140.840163 
L 566.531715 122.821132 
z
" style="fill:#008000;"/>
   </g>
   <g id="patch_39">
    <path clip-path="url(#p7548a26d9c)" d="M 582.159292 108.952923 
Q 579.543248 110.562425 576.714453 111.376534 
Q 573.885658 112.2 570.804714 112.2 
Q 561.617041 112.2 556.250998 106.098864 
Q 550.884956 99.997728 550.884956 89.564036 
Q 550.884956 79.092915 556.250998 73.001136 
Q 561.617041 66.9 570.804714 66.9 
Q 573.885658 66.9 576.714453 67.723466 
Q 579.543248 68.537575 582.159292 70.147077 
L 582.159292 79.177133 
Q 579.519609 77.043607 576.958722 76.051704 
Q 574.397835 75.059802 571.569041 75.059802 
Q 566.494545 75.059802 563.586954 78.924478 
Q 560.687242 82.779798 560.687242 89.564036 
Q 560.687242 96.320202 563.586954 100.184879 
Q 566.494545 104.040198 571.569041 104.040198 
Q 574.397835 104.040198 576.958722 103.048296 
Q 579.519609 102.047036 582.159292 99.91351 
z
" style="fill:#0000ff;"/>
   </g>
   <g id="patch_40">
    <path clip-path="url(#p7548a26d9c)" d="M 582.159292 62.801384 
Q 579.005224 64.850692 575.612849 65.880025 
Q 572.220473 66.9 568.603809 66.9 
Q 560.431268 66.9 555.658112 60.798864 
Q 550.884956 54.697728 550.884956 44.264036 
Q 550.884956 33.708697 555.74222 27.654348 
Q 560.606494 21.6 569.066405 21.6 
Q 572.325609 21.6 575.31146 22.423466 
Q 578.30432 23.237575 580.953737 24.847077 
L 580.953737 33.877133 
Q 578.220212 31.80911 575.514722 30.789134 
Q 572.809233 29.759802 570.089725 29.759802 
Q 565.057235 29.759802 562.330718 33.521545 
Q 559.604201 37.273931 559.604201 44.264036 
Q 559.604201 51.188639 562.232591 54.969097 
Q 564.860981 58.740198 569.697219 58.740198 
Q 571.014919 58.740198 572.143374 58.524974 
Q 573.271829 58.300392 574.168986 57.832514 
L 574.168986 49.354555 
L 569.017342 49.354555 
L 569.017342 41.802995 
L 582.159292 41.802995 
z
" style="fill:#ffa600;"/>
   </g>
   <g id="patch_41">
    <path clip-path="url(#p7548a26d9c)" d="M 615.079646 156.417641 
Q 612.463602 156.954142 609.634807 157.225511 
Q 606.806012 157.5 603.725068 157.5 
Q 594.537395 157.5 589.171352 155.466288 
Q 583.80531 153.432576 583.80531 149.954679 
Q 583.80531 146.464305 589.171352 144.433712 
Q 594.537395 142.4 603.725068 142.4 
Q 606.806012 142.4 609.634807 142.674489 
Q 612.463602 142.945858 615.079646 143.482359 
L 615.079646 146.492378 
Q 612.439963 145.781202 609.879076 145.450568 
Q 607.318189 145.119934 604.489395 145.119934 
Q 599.414899 145.119934 596.507308 146.408159 
Q 593.607596 147.693266 593.607596 149.954679 
Q 593.607596 152.206734 596.507308 153.49496 
Q 599.414899 154.780066 604.489395 154.780066 
Q 607.318189 154.780066 609.879076 154.449432 
Q 612.439963 154.115679 615.079646 153.404503 
z
" style="fill:#0000ff;"/>
   </g>
   <g id="patch_42">
    <path clip-path="url(#p7548a26d9c)" d="M 615.079646 131.470357 
Q 611.925578 136.935179 608.533203 139.680066 
Q 605.140827 142.4 601.524163 142.4 
Q 593.351622 142.4 588.578466 126.130304 
Q 583.80531 109.860607 583.80531 82.03743 
Q 583.80531 53.889857 588.662574 37.744929 
Q 593.526848 21.6 601.986759 21.6 
Q 605.245963 21.6 608.231814 23.79591 
Q 611.224674 25.966866 613.874091 30.258872 
L 613.874091 54.339021 
Q 611.140566 48.824293 608.435076 46.104359 
Q 605.729587 43.359471 603.010079 43.359471 
Q 597.977589 43.359471 595.251072 53.390787 
Q 592.524555 63.397149 592.524555 82.03743 
Q 592.524555 100.503037 595.152945 110.584259 
Q 597.781335 120.640529 602.617573 120.640529 
Q 603.935272 120.640529 605.063728 120.066598 
Q 606.192183 119.467713 607.08934 118.220037 
L 607.08934 95.612146 
L 601.937696 95.612146 
L 601.937696 75.474654 
L 615.079646 75.474654 
z
" style="fill:#ffa600;"/>
   </g>
   <g id="patch_43">
    <path clip-path="url(#p7548a26d9c)" d="M 638.389424 154.74925 
L 626.361817 154.74925 
L 624.462721 157.5 
L 616.725664 157.5 
L 627.774949 142.4 
L 636.950715 142.4 
L 648 157.5 
L 640.269337 157.5 
z
M 628.280095 151.946721 
L 636.451963 151.946721 
L 632.372423 145.940377 
z
" style="fill:#008000;"/>
   </g>
   <g id="patch_44">
    <path clip-path="url(#p7548a26d9c)" d="M 616.725664 127.3 
L 648 127.3 
L 648 130.244921 
L 636.748512 130.244921 
L 636.748512 142.4 
L 627.998971 142.4 
L 627.998971 130.244921 
L 616.725664 130.244921 
z
" style="fill:#ff0000;"/>
   </g>
   <g id="patch_45">
    <path clip-path="url(#p7548a26d9c)" d="M 648 123.201384 
Q 644.845932 125.250692 641.453557 126.280025 
Q 638.061181 127.3 634.444517 127.3 
Q 626.271976 127.3 621.49882 121.198864 
Q 616.725664 115.097728 616.725664 104.664036 
Q 616.725664 94.108697 621.582928 88.054348 
Q 626.447202 82 634.907113 82 
Q 638.166317 82 641.152168 82.823466 
Q 644.145028 83.637575 646.794445 85.247077 
L 646.794445 94.277133 
Q 644.06092 92.20911 641.35543 91.189134 
Q 638.649941 90.159802 635.930433 90.159802 
Q 630.897943 90.159802 628.171426 93.921545 
Q 625.444909 97.673931 625.444909 104.664036 
Q 625.444909 111.588639 628.073299 115.369097 
Q 630.701689 119.140198 635.537927 119.140198 
Q 636.855626 119.140198 637.984082 118.924974 
Q 639.112537 118.700392 640.009694 118.232514 
L 640.009694 109.754555 
L 634.85805 109.754555 
L 634.85805 102.202995 
L 648 102.202995 
z
" style="fill:#ffa600;"/>
   </g>
   <g id="patch_46">
    <path clip-path="url(#p7548a26d9c)" d="M 648 77.670564 
Q 645.383956 79.816567 642.555161 80.902045 
Q 639.726366 82 636.645422 82 
Q 627.457749 82 622.091706 73.865152 
Q 616.725664 65.730304 616.725664 51.818715 
Q 616.725664 37.85722 622.091706 29.734848 
Q 627.457749 21.6 636.645422 21.6 
Q 639.726366 21.6 642.555161 22.697955 
Q 645.383956 23.783433 648 25.929436 
L 648 37.96951 
Q 645.360317 35.124809 642.79943 33.802272 
Q 640.238543 32.479736 637.409749 32.479736 
Q 632.335253 32.479736 629.427662 37.632638 
Q 626.52795 42.773063 626.52795 51.818715 
Q 626.52795 60.826937 629.427662 65.979839 
Q 632.335253 71.120264 637.409749 71.120264 
Q 640.238543 71.120264 642.79943 69.797728 
Q 645.360317 68.462714 648 65.618013 
z
" style="fill:#0000ff;"/>
   </g>
  </g>
 </g>
 <defs>
  <clipPath id="p7548a26d9c">
   <rect height="135.9" width="558" x="90" y="21.6"/>
  </clipPath>
 </defs>
</svg>
