<?xml version="1.0" encoding="utf-8" standalone="no"?>
<!DOCTYPE svg PUBLIC "-//W3C//DTD SVG 1.1//EN"
  "http://www.w3.org/Graphics/SVG/1.1/DTD/svg11.dtd">
<!-- Created with matplotlib (https://matplotlib.org/) -->
<svg height="180pt" version="1.1" viewBox="0 0 720 180" width="720pt" xmlns="http://www.w3.org/2000/svg" xmlns:xlink="http://www.w3.org/1999/xlink">
 <metadata>
  <rdf:RDF xmlns:cc="http://creativecommons.org/ns#" xmlns:dc="http://purl.org/dc/elements/1.1/" xmlns:rdf="http://www.w3.org/1999/02/22-rdf-syntax-ns#">
   <cc:Work>
    <dc:type rdf:resource="http://purl.org/dc/dcmitype/StillImage"/>
    <dc:date>2021-08-04T23:33:17.136370</dc:date>
    <dc:format>image/svg+xml</dc:format>
    <dc:creator>
     <cc:Agent>
      <dc:title>Matplotlib v3.3.2, https://matplotlib.org/</dc:title>
     </cc:Agent>
    </dc:creator>
   </cc:Work>
  </rdf:RDF>
 </metadata>
 <defs>
  <style type="text/css">*{stroke-linecap:butt;stroke-linejoin:round;}</style>
 </defs>
 <g id="figure_1">
  <g id="patch_1">
   <path d="M 0 180 
L 720 180 
L 720 0 
L 0 0 
z
" style="fill:none;"/>
  </g>
  <g id="axes_1">
   <g id="line2d_1">
    <path clip-path="url(#p0185efd6a1)" d="M 90 157.5 
L 648 157.5 
" style="fill:none;stroke:#000000;stroke-linecap:square;stroke-width:0.5;"/>
   </g>
   <g id="patch_2">
    <path clip-path="url(#p0185efd6a1)" d="M 111.66376 151.9985 
L 99.636153 151.9985 
L 97.737057 157.5 
L 90 157.5 
L 101.049285 127.3 
L 110.225051 127.3 
L 121.274336 157.5 
L 113.543673 157.5 
z
M 101.554432 146.393442 
L 109.726299 146.393442 
L 105.64676 134.380754 
z
" style="fill:#008000;"/>
   </g>
   <g id="patch_3">
    <path clip-path="url(#p0185efd6a1)" d="M 90 82 
L 121.274336 82 
L 121.274336 90.834762 
L 110.022848 90.834762 
L 110.022848 127.3 
L 101.273307 127.3 
L 101.273307 90.834762 
L 90 90.834762 
z
" style="fill:#ff0000;"/>
   </g>
   <g id="patch_4">
    <path clip-path="url(#p0185efd6a1)" d="M 121.274336 76.535179 
Q 118.120268 79.267589 114.727893 80.640033 
Q 111.335518 82 107.718853 82 
Q 99.546312 82 94.773156 73.865152 
Q 90 65.730304 90 51.818715 
Q 90 37.744929 94.857265 29.672464 
Q 99.721538 21.6 108.18145 21.6 
Q 111.440653 21.6 114.426504 22.697955 
Q 117.419364 23.783433 120.068781 25.929436 
L 120.068781 37.96951 
Q 117.335256 35.212146 114.629766 33.852179 
Q 111.924277 32.479736 109.204769 32.479736 
Q 104.172279 32.479736 101.445762 37.495394 
Q 98.719246 42.498575 98.719246 51.818715 
Q 98.719246 61.051518 101.347636 66.09213 
Q 103.976026 71.120264 108.812263 71.120264 
Q 110.129963 71.120264 111.258418 70.833299 
Q 112.386874 70.533857 113.284031 69.910019 
L 113.284031 58.606073 
L 108.132386 58.606073 
L 108.132386 48.537327 
L 121.274336 48.537327 
z
" style="fill:#ffa600;"/>
   </g>
   <g id="patch_5">
    <path clip-path="url(#p0185efd6a1)" d="M 154.19469 155.335282 
Q 151.578646 156.408283 148.749851 156.951023 
Q 145.921056 157.5 142.840113 157.5 
Q 133.652439 157.5 128.286397 153.432576 
Q 122.920354 149.365152 122.920354 142.409358 
Q 122.920354 135.42861 128.286397 131.367424 
Q 133.652439 127.3 142.840113 127.3 
Q 145.921056 127.3 148.749851 127.848977 
Q 151.578646 128.391717 154.19469 129.464718 
L 154.19469 135.484755 
Q 151.555007 134.062404 148.99412 133.401136 
Q 146.433234 132.739868 143.604439 132.739868 
Q 138.529943 132.739868 135.622352 135.316319 
Q 132.72264 137.886532 132.72264 142.409358 
Q 132.72264 146.913468 135.622352 149.489919 
Q 138.529943 152.060132 143.604439 152.060132 
Q 146.433234 152.060132 148.99412 151.398864 
Q 151.555007 150.731357 154.19469 149.309006 
z
" style="fill:#0000ff;"/>
   </g>
   <g id="patch_6">
    <path clip-path="url(#p0185efd6a1)" d="M 154.19469 123.201384 
Q 151.040622 125.250692 147.648247 126.280025 
Q 144.255872 127.3 140.639207 127.3 
Q 132.466666 127.3 127.69351 121.198864 
Q 122.920354 115.097728 122.920354 104.664036 
Q 122.920354 94.108697 127.777619 88.054348 
Q 132.641892 82 141.101804 82 
Q 144.361007 82 147.346858 82.823466 
Q 150.339718 83.637575 152.989135 85.247077 
L 152.989135 94.277133 
Q 150.25561 92.20911 147.55012 91.189134 
Q 144.844631 90.159802 142.125123 90.159802 
Q 137.092633 90.159802 134.366116 93.921545 
Q 131.6396 97.673931 131.6396 104.664036 
Q 131.6396 111.588639 134.26799 115.369097 
Q 136.89638 119.140198 141.732617 119.140198 
Q 143.050317 119.140198 144.178772 118.924974 
Q 145.307228 118.700392 146.204385 118.232514 
L 146.204385 109.754555 
L 141.05274 109.754555 
L 141.05274 102.202995 
L 154.19469 102.202995 
z
" style="fill:#ffa600;"/>
   </g>
   <g id="patch_7">
    <path clip-path="url(#p0185efd6a1)" d="M 122.920354 21.6 
L 154.19469 21.6 
L 154.19469 33.379683 
L 142.943202 33.379683 
L 142.943202 82 
L 134.193661 82 
L 134.193661 33.379683 
L 122.920354 33.379683 
z
" style="fill:#ff0000;"/>
   </g>
   <g id="patch_8">
    <path clip-path="url(#p0185efd6a1)" d="M 155.840708 21.6 
L 187.115044 21.6 
L 187.115044 48.104286 
L 175.863556 48.104286 
L 175.863556 157.5 
L 167.114015 157.5 
L 167.114015 48.104286 
L 155.840708 48.104286 
z
" style="fill:#ff0000;"/>
   </g>
   <g id="patch_9">
    <path clip-path="url(#p0185efd6a1)" d="M 220.035398 152.035179 
Q 216.88133 154.767589 213.488955 156.140033 
Q 210.09658 157.5 206.479915 157.5 
Q 198.307374 157.5 193.534218 149.365152 
Q 188.761062 141.230304 188.761062 127.318715 
Q 188.761062 113.244929 193.618327 105.172464 
Q 198.4826 97.1 206.942512 97.1 
Q 210.201715 97.1 213.187566 98.197955 
Q 216.180426 99.283433 218.829843 101.429436 
L 218.829843 113.46951 
Q 216.096318 110.712146 213.390828 109.352179 
Q 210.685339 107.979736 207.965831 107.979736 
Q 202.933341 107.979736 200.206824 112.995394 
Q 197.480308 117.998575 197.480308 127.318715 
Q 197.480308 136.551518 200.108698 141.59213 
Q 202.737088 146.620264 207.573325 146.620264 
Q 208.891025 146.620264 210.01948 146.333299 
Q 211.147936 146.033857 212.045093 145.410019 
L 212.045093 134.106073 
L 206.893448 134.106073 
L 206.893448 124.037327 
L 220.035398 124.037327 
z
" style="fill:#ffa600;"/>
   </g>
   <g id="patch_10">
    <path clip-path="url(#p0185efd6a1)" d="M 210.424822 83.346249 
L 198.397215 83.346249 
L 196.498119 97.1 
L 188.761062 97.1 
L 199.810347 21.6 
L 208.986113 21.6 
L 220.035398 97.1 
L 212.304735 97.1 
z
M 200.315494 69.333605 
L 208.487361 69.333605 
L 204.407821 39.301886 
z
" style="fill:#008000;"/>
   </g>
   <g id="patch_11">
    <path clip-path="url(#p0185efd6a1)" d="M 252.955752 152.035179 
Q 249.801684 154.767589 246.409309 156.140033 
Q 243.016934 157.5 239.400269 157.5 
Q 231.227728 157.5 226.454572 149.365152 
Q 221.681416 141.230304 221.681416 127.318715 
Q 221.681416 113.244929 226.538681 105.172464 
Q 231.402954 97.1 239.862866 97.1 
Q 243.122069 97.1 246.10792 98.197955 
Q 249.10078 99.283433 251.750197 101.429436 
L 251.750197 113.46951 
Q 249.016672 110.712146 246.311182 109.352179 
Q 243.605693 107.979736 240.886185 107.979736 
Q 235.853695 107.979736 233.127178 112.995394 
Q 230.400662 117.998575 230.400662 127.318715 
Q 230.400662 136.551518 233.029052 141.59213 
Q 235.657442 146.620264 240.493679 146.620264 
Q 241.811379 146.620264 242.939834 146.333299 
Q 244.06829 146.033857 244.965447 145.410019 
L 244.965447 134.106073 
L 239.813802 134.106073 
L 239.813802 124.037327 
L 252.955752 124.037327 
z
" style="fill:#ffa600;"/>
   </g>
   <g id="patch_12">
    <path clip-path="url(#p0185efd6a1)" d="M 243.345176 83.346249 
L 231.317569 83.346249 
L 229.418473 97.1 
L 221.681416 97.1 
L 232.730701 21.6 
L 241.906467 21.6 
L 252.955752 97.1 
L 245.225089 97.1 
z
M 233.235848 69.333605 
L 241.407715 69.333605 
L 237.328175 39.301886 
z
" style="fill:#008000;"/>
   </g>
   <g id="patch_13">
    <path clip-path="url(#p0185efd6a1)" d="M 254.60177 21.6 
L 285.876106 21.6 
L 285.876106 48.104286 
L 274.624618 48.104286 
L 274.624618 157.5 
L 265.875077 157.5 
L 265.875077 48.104286 
L 254.60177 48.104286 
z
" style="fill:#ff0000;"/>
   </g>
   <g id="patch_14">
    <path clip-path="url(#p0185efd6a1)" d="M 318.79646 156.133795 
Q 315.642392 156.816897 312.250017 157.160008 
Q 308.857642 157.5 305.240977 157.5 
Q 297.068436 157.5 292.29528 155.466288 
Q 287.522124 153.432576 287.522124 149.954679 
Q 287.522124 146.436232 292.379389 144.418116 
Q 297.243662 142.4 305.703574 142.4 
Q 308.962777 142.4 311.948628 142.674489 
Q 314.941488 142.945858 317.590905 143.482359 
L 317.590905 146.492378 
Q 314.85738 145.803037 312.15189 145.463045 
Q 309.446401 145.119934 306.726893 145.119934 
Q 301.694403 145.119934 298.967886 146.373848 
Q 296.24137 147.624644 296.24137 149.954679 
Q 296.24137 152.26288 298.86976 153.523032 
Q 301.49815 154.780066 306.334387 154.780066 
Q 307.652087 154.780066 308.780542 154.708325 
Q 309.908998 154.633464 310.806155 154.477505 
L 310.806155 151.651518 
L 305.65451 151.651518 
L 305.65451 149.134332 
L 318.79646 149.134332 
z
" style="fill:#ffa600;"/>
   </g>
   <g id="patch_15">
    <path clip-path="url(#p0185efd6a1)" d="M 309.185884 120.393999 
L 297.158277 120.393999 
L 295.259181 142.4 
L 287.522124 142.4 
L 298.571409 21.6 
L 307.747175 21.6 
L 318.79646 142.4 
L 311.065797 142.4 
z
M 299.076556 97.973768 
L 307.248423 97.973768 
L 303.168883 49.923018 
z
" style="fill:#008000;"/>
   </g>
   <g id="patch_16">
    <path clip-path="url(#p0185efd6a1)" d="M 351.716814 156.133795 
Q 348.562746 156.816897 345.170371 157.160008 
Q 341.777996 157.5 338.161331 157.5 
Q 329.98879 157.5 325.215634 155.466288 
Q 320.442478 153.432576 320.442478 149.954679 
Q 320.442478 146.436232 325.299743 144.418116 
Q 330.164016 142.4 338.623928 142.4 
Q 341.883131 142.4 344.868982 142.674489 
Q 347.861842 142.945858 350.511259 143.482359 
L 350.511259 146.492378 
Q 347.777734 145.803037 345.072244 145.463045 
Q 342.366755 145.119934 339.647247 145.119934 
Q 334.614757 145.119934 331.88824 146.373848 
Q 329.161724 147.624644 329.161724 149.954679 
Q 329.161724 152.26288 331.790114 153.523032 
Q 334.418504 154.780066 339.254741 154.780066 
Q 340.572441 154.780066 341.700896 154.708325 
Q 342.829351 154.633464 343.726509 154.477505 
L 343.726509 151.651518 
L 338.574864 151.651518 
L 338.574864 149.134332 
L 351.716814 149.134332 
z
" style="fill:#ffa600;"/>
   </g>
   <g id="patch_17">
    <path clip-path="url(#p0185efd6a1)" d="M 342.106238 120.393999 
L 330.078631 120.393999 
L 328.179535 142.4 
L 320.442478 142.4 
L 331.491763 21.6 
L 340.667529 21.6 
L 351.716814 142.4 
L 343.986151 142.4 
z
M 331.99691 97.973768 
L 340.168777 97.973768 
L 336.089237 49.923018 
z
" style="fill:#008000;"/>
   </g>
   <g id="patch_18">
    <path clip-path="url(#p0185efd6a1)" d="M 353.362832 21.6 
L 384.637168 21.6 
L 384.637168 48.104286 
L 373.38568 48.104286 
L 373.38568 157.5 
L 364.636139 157.5 
L 364.636139 48.104286 
L 353.362832 48.104286 
z
" style="fill:#ff0000;"/>
   </g>
   <g id="patch_19">
    <path clip-path="url(#p0185efd6a1)" d="M 407.946946 132.743249 
L 395.919339 132.743249 
L 394.020243 157.5 
L 386.283186 157.5 
L 397.332471 21.6 
L 406.508237 21.6 
L 417.557522 157.5 
L 409.826859 157.5 
z
M 397.837618 107.520489 
L 406.009485 107.520489 
L 401.929945 53.463395 
z
" style="fill:#008000;"/>
   </g>
   <g id="patch_20">
    <path clip-path="url(#p0185efd6a1)" d="M 440.8673 151.9985 
L 428.839693 151.9985 
L 426.940597 157.5 
L 419.20354 157.5 
L 430.252825 127.3 
L 439.428591 127.3 
L 450.477876 157.5 
L 442.747213 157.5 
z
M 430.757972 146.393442 
L 438.929839 146.393442 
L 434.850299 134.380754 
z
" style="fill:#008000;"/>
   </g>
   <g id="patch_21">
    <path clip-path="url(#p0185efd6a1)" d="M 450.477876 117.736563 
Q 447.323808 122.518281 443.931433 124.920058 
Q 440.539057 127.3 436.922393 127.3 
Q 428.749852 127.3 423.976696 113.064016 
Q 419.20354 98.828031 419.20354 74.482751 
Q 419.20354 49.853625 424.060805 35.726813 
Q 428.925078 21.6 437.384989 21.6 
Q 440.644193 21.6 443.630044 23.521421 
Q 446.622904 25.421008 449.272321 29.176513 
L 449.272321 50.246643 
Q 446.538796 45.421256 443.833306 43.041314 
Q 441.127817 40.639537 438.408309 40.639537 
Q 433.375819 40.639537 430.649302 49.416939 
Q 427.922786 58.172506 427.922786 74.482751 
Q 427.922786 90.640157 430.551176 99.461227 
Q 433.179565 108.260463 438.015803 108.260463 
Q 439.333503 108.260463 440.461958 107.758273 
Q 441.590413 107.234249 442.487571 106.142533 
L 442.487571 86.360628 
L 437.335926 86.360628 
L 437.335926 68.740322 
L 450.477876 68.740322 
z
" style="fill:#ffa600;"/>
   </g>
   <g id="patch_22">
    <path clip-path="url(#p0185efd6a1)" d="M 473.787654 151.9985 
L 461.760047 151.9985 
L 459.860951 157.5 
L 452.123894 157.5 
L 463.173179 127.3 
L 472.348945 127.3 
L 483.39823 157.5 
L 475.667567 157.5 
z
M 463.678326 146.393442 
L 471.850193 146.393442 
L 467.770653 134.380754 
z
" style="fill:#008000;"/>
   </g>
   <g id="patch_23">
    <path clip-path="url(#p0185efd6a1)" d="M 483.39823 117.736563 
Q 480.244162 122.518281 476.851787 124.920058 
Q 473.459411 127.3 469.842747 127.3 
Q 461.670206 127.3 456.89705 113.064016 
Q 452.123894 98.828031 452.123894 74.482751 
Q 452.123894 49.853625 456.981158 35.726813 
Q 461.845432 21.6 470.305343 21.6 
Q 473.564547 21.6 476.550398 23.521421 
Q 479.543258 25.421008 482.192675 29.176513 
L 482.192675 50.246643 
Q 479.45915 45.421256 476.75366 43.041314 
Q 474.048171 40.639537 471.328663 40.639537 
Q 466.296173 40.639537 463.569656 49.416939 
Q 460.84314 58.172506 460.84314 74.482751 
Q 460.84314 90.640157 463.471529 99.461227 
Q 466.099919 108.260463 470.936157 108.260463 
Q 472.253857 108.260463 473.382312 107.758273 
Q 474.510767 107.234249 475.407925 106.142533 
L 475.407925 86.360628 
L 470.25628 86.360628 
L 470.25628 68.740322 
L 483.39823 68.740322 
z
" style="fill:#ffa600;"/>
   </g>
   <g id="patch_24">
    <path clip-path="url(#p0185efd6a1)" d="M 506.708008 151.9985 
L 494.680401 151.9985 
L 492.781305 157.5 
L 485.044248 157.5 
L 496.093533 127.3 
L 505.269299 127.3 
L 516.318584 157.5 
L 508.587921 157.5 
z
M 496.59868 146.393442 
L 504.770547 146.393442 
L 500.691007 134.380754 
z
" style="fill:#008000;"/>
   </g>
   <g id="patch_25">
    <path clip-path="url(#p0185efd6a1)" d="M 516.318584 117.736563 
Q 513.164516 122.518281 509.772141 124.920058 
Q 506.379765 127.3 502.763101 127.3 
Q 494.59056 127.3 489.817404 113.064016 
Q 485.044248 98.828031 485.044248 74.482751 
Q 485.044248 49.853625 489.901512 35.726813 
Q 494.765786 21.6 503.225697 21.6 
Q 506.484901 21.6 509.470752 23.521421 
Q 512.463612 25.421008 515.113029 29.176513 
L 515.113029 50.246643 
Q 512.379504 45.421256 509.674014 43.041314 
Q 506.968525 40.639537 504.249017 40.639537 
Q 499.216527 40.639537 496.49001 49.416939 
Q 493.763493 58.172506 493.763493 74.482751 
Q 493.763493 90.640157 496.391883 99.461227 
Q 499.020273 108.260463 503.856511 108.260463 
Q 505.174211 108.260463 506.302666 107.758273 
Q 507.431121 107.234249 508.328279 106.142533 
L 508.328279 86.360628 
L 503.176634 86.360628 
L 503.176634 68.740322 
L 516.318584 68.740322 
z
" style="fill:#ffa600;"/>
   </g>
   <g id="patch_26">
    <path clip-path="url(#p0185efd6a1)" d="M 549.238938 153.170564 
Q 546.622894 155.316567 543.794099 156.402045 
Q 540.965304 157.5 537.88436 157.5 
Q 528.696687 157.5 523.330644 149.365152 
Q 517.964602 141.230304 517.964602 127.318715 
Q 517.964602 113.35722 523.330644 105.234848 
Q 528.696687 97.1 537.88436 97.1 
Q 540.965304 97.1 543.794099 98.197955 
Q 546.622894 99.283433 549.238938 101.429436 
L 549.238938 113.46951 
Q 546.599255 110.624809 544.038368 109.302272 
Q 541.477481 107.979736 538.648687 107.979736 
Q 533.574191 107.979736 530.6666 113.132638 
Q 527.766888 118.273063 527.766888 127.318715 
Q 527.766888 136.326937 530.6666 141.479839 
Q 533.574191 146.620264 538.648687 146.620264 
Q 541.477481 146.620264 544.038368 145.297728 
Q 546.599255 143.962714 549.238938 141.118013 
z
" style="fill:#0000ff;"/>
   </g>
   <g id="patch_27">
    <path clip-path="url(#p0185efd6a1)" d="M 549.238938 90.268973 
Q 546.08487 93.684487 542.692495 95.400041 
Q 539.300119 97.1 535.683455 97.1 
Q 527.510914 97.1 522.737758 86.93144 
Q 517.964602 76.76288 517.964602 59.373394 
Q 517.964602 41.781161 522.821866 31.69058 
Q 527.68614 21.6 536.146051 21.6 
Q 539.405255 21.6 542.391106 22.972444 
Q 545.383966 24.329291 548.033383 27.011795 
L 548.033383 42.061888 
Q 545.299858 38.615183 542.594368 36.915224 
Q 539.888879 35.199669 537.169371 35.199669 
Q 532.136881 35.199669 529.410364 41.469242 
Q 526.683847 47.723218 526.683847 59.373394 
Q 526.683847 70.914398 529.312237 77.215162 
Q 531.940627 83.500331 536.776865 83.500331 
Q 538.094565 83.500331 539.22302 83.141624 
Q 540.351475 82.767321 541.248633 81.987523 
L 541.248633 67.857591 
L 536.096988 67.857591 
L 536.096988 55.271659 
L 549.238938 55.271659 
z
" style="fill:#ffa600;"/>
   </g>
   <g id="patch_28">
    <path clip-path="url(#p0185efd6a1)" d="M 550.884956 142.4 
L 582.159292 142.4 
L 582.159292 145.344921 
L 570.907804 145.344921 
L 570.907804 157.5 
L 562.158263 157.5 
L 562.158263 145.344921 
L 550.884956 145.344921 
z
" style="fill:#ff0000;"/>
   </g>
   <g id="patch_29">
    <path clip-path="url(#p0185efd6a1)" d="M 582.159292 138.301384 
Q 579.005224 140.350692 575.612849 141.380025 
Q 572.220473 142.4 568.603809 142.4 
Q 560.431268 142.4 555.658112 136.298864 
Q 550.884956 130.197728 550.884956 119.764036 
Q 550.884956 109.208697 555.74222 103.154348 
Q 560.606494 97.1 569.066405 97.1 
Q 572.325609 97.1 575.31146 97.923466 
Q 578.30432 98.737575 580.953737 100.347077 
L 580.953737 109.377133 
Q 578.220212 107.30911 575.514722 106.289134 
Q 572.809233 105.259802 570.089725 105.259802 
Q 565.057235 105.259802 562.330718 109.021545 
Q 559.604201 112.773931 559.604201 119.764036 
Q 559.604201 126.688639 562.232591 130.469097 
Q 564.860981 134.240198 569.697219 134.240198 
Q 571.014919 134.240198 572.143374 134.024974 
Q 573.271829 133.800392 574.168986 133.332514 
L 574.168986 124.854555 
L 569.017342 124.854555 
L 569.017342 117.302995 
L 582.159292 117.302995 
z
" style="fill:#ffa600;"/>
   </g>
   <g id="patch_30">
    <path clip-path="url(#p0185efd6a1)" d="M 582.159292 91.688205 
Q 579.543248 94.370709 576.714453 95.727556 
Q 573.885658 97.1 570.804714 97.1 
Q 561.617041 97.1 556.250998 86.93144 
Q 550.884956 76.76288 550.884956 59.373394 
Q 550.884956 41.921524 556.250998 31.76856 
Q 561.617041 21.6 570.804714 21.6 
Q 573.885658 21.6 576.714453 22.972444 
Q 579.543248 24.329291 582.159292 27.011795 
L 582.159292 42.061888 
Q 579.519609 38.506011 576.958722 36.85284 
Q 574.397835 35.199669 571.569041 35.199669 
Q 566.494545 35.199669 563.586954 41.640797 
Q 560.687242 48.066329 560.687242 59.373394 
Q 560.687242 70.633671 563.586954 77.074799 
Q 566.494545 83.500331 571.569041 83.500331 
Q 574.397835 83.500331 576.958722 81.84716 
Q 579.519609 80.178393 582.159292 76.622516 
z
" style="fill:#0000ff;"/>
   </g>
   <g id="patch_31">
    <path clip-path="url(#p0185efd6a1)" d="M 583.80531 142.4 
L 615.079646 142.4 
L 615.079646 145.344921 
L 603.828158 145.344921 
L 603.828158 157.5 
L 595.078617 157.5 
L 595.078617 145.344921 
L 583.80531 145.344921 
z
" style="fill:#ff0000;"/>
   </g>
   <g id="patch_32">
    <path clip-path="url(#p0185efd6a1)" d="M 605.46907 136.8985 
L 593.441463 136.8985 
L 591.542367 142.4 
L 583.80531 142.4 
L 594.854595 112.2 
L 604.030361 112.2 
L 615.079646 142.4 
L 607.348983 142.4 
z
M 595.359741 131.293442 
L 603.531609 131.293442 
L 599.452069 119.280754 
z
" style="fill:#008000;"/>
   </g>
   <g id="patch_33">
    <path clip-path="url(#p0185efd6a1)" d="M 615.079646 109.467589 
Q 611.925578 110.833795 608.533203 111.520017 
Q 605.140827 112.2 601.524163 112.2 
Q 593.351622 112.2 588.578466 108.132576 
Q 583.80531 104.065152 583.80531 97.109358 
Q 583.80531 90.072464 588.662574 86.036232 
Q 593.526848 82 601.986759 82 
Q 605.245963 82 608.231814 82.548977 
Q 611.224674 83.091717 613.874091 84.164718 
L 613.874091 90.184755 
Q 611.140566 88.806073 608.435076 88.12609 
Q 605.729587 87.439868 603.010079 87.439868 
Q 597.977589 87.439868 595.251072 89.947697 
Q 592.524555 92.449287 592.524555 97.109358 
Q 592.524555 101.725759 595.152945 104.246065 
Q 597.781335 106.760132 602.617573 106.760132 
Q 603.935272 106.760132 605.063728 106.616649 
Q 606.192183 106.466928 607.08934 106.155009 
L 607.08934 100.503037 
L 601.937696 100.503037 
L 601.937696 95.468663 
L 615.079646 95.468663 
z
" style="fill:#ffa600;"/>
   </g>
   <g id="patch_34">
    <path clip-path="url(#p0185efd6a1)" d="M 615.079646 77.670564 
Q 612.463602 79.816567 609.634807 80.902045 
Q 606.806012 82 603.725068 82 
Q 594.537395 82 589.171352 73.865152 
Q 583.80531 65.730304 583.80531 51.818715 
Q 583.80531 37.85722 589.171352 29.734848 
Q 594.537395 21.6 603.725068 21.6 
Q 606.806012 21.6 609.634807 22.697955 
Q 612.463602 23.783433 615.079646 25.929436 
L 615.079646 37.96951 
Q 612.439963 35.124809 609.879076 33.802272 
Q 607.318189 32.479736 604.489395 32.479736 
Q 599.414899 32.479736 596.507308 37.632638 
Q 593.607596 42.773063 593.607596 51.818715 
Q 593.607596 60.826937 596.507308 65.979839 
Q 599.414899 71.120264 604.489395 71.120264 
Q 607.318189 71.120264 609.879076 69.797728 
Q 612.439963 68.462714 615.079646 65.618013 
z
" style="fill:#0000ff;"/>
   </g>
   <g id="patch_35">
    <path clip-path="url(#p0185efd6a1)" d="M 648 156.417641 
Q 645.383956 156.954142 642.555161 157.225511 
Q 639.726366 157.5 636.645422 157.5 
Q 627.457749 157.5 622.091706 155.466288 
Q 616.725664 153.432576 616.725664 149.954679 
Q 616.725664 146.464305 622.091706 144.433712 
Q 627.457749 142.4 636.645422 142.4 
Q 639.726366 142.4 642.555161 142.674489 
Q 645.383956 142.945858 648 143.482359 
L 648 146.492378 
Q 645.360317 145.781202 642.79943 145.450568 
Q 640.238543 145.119934 637.409749 145.119934 
Q 632.335253 145.119934 629.427662 146.408159 
Q 626.52795 147.693266 626.52795 149.954679 
Q 626.52795 152.206734 629.427662 153.49496 
Q 632.335253 154.780066 637.409749 154.780066 
Q 640.238543 154.780066 642.79943 154.449432 
Q 645.360317 154.115679 648 153.404503 
z
" style="fill:#0000ff;"/>
   </g>
   <g id="patch_36">
    <path clip-path="url(#p0185efd6a1)" d="M 616.725664 112.2 
L 648 112.2 
L 648 118.089841 
L 636.748512 118.089841 
L 636.748512 142.4 
L 627.998971 142.4 
L 627.998971 118.089841 
L 616.725664 118.089841 
z
" style="fill:#ff0000;"/>
   </g>
   <g id="patch_37">
    <path clip-path="url(#p0185efd6a1)" d="M 638.389424 103.94775 
L 626.361817 103.94775 
L 624.462721 112.2 
L 616.725664 112.2 
L 627.774949 66.9 
L 636.950715 66.9 
L 648 112.2 
L 640.269337 112.2 
z
M 628.280095 95.540163 
L 636.451963 95.540163 
L 632.372423 77.521132 
z
" style="fill:#008000;"/>
   </g>
   <g id="patch_38">
    <path clip-path="url(#p0185efd6a1)" d="M 648 62.801384 
Q 644.845932 64.850692 641.453557 65.880025 
Q 638.061181 66.9 634.444517 66.9 
Q 626.271976 66.9 621.49882 60.798864 
Q 616.725664 54.697728 616.725664 44.264036 
Q 616.725664 33.708697 621.582928 27.654348 
Q 626.447202 21.6 634.907113 21.6 
Q 638.166317 21.6 641.152168 22.423466 
Q 644.145028 23.237575 646.794445 24.847077 
L 646.794445 33.877133 
Q 644.06092 31.80911 641.35543 30.789134 
Q 638.649941 29.759802 635.930433 29.759802 
Q 630.897943 29.759802 628.171426 33.521545 
Q 625.444909 37.273931 625.444909 44.264036 
Q 625.444909 51.188639 628.073299 54.969097 
Q 630.701689 58.740198 635.537927 58.740198 
Q 636.855626 58.740198 637.984082 58.524974 
Q 639.112537 58.300392 640.009694 57.832514 
L 640.009694 49.354555 
L 634.85805 49.354555 
L 634.85805 41.802995 
L 648 41.802995 
z
" style="fill:#ffa600;"/>
   </g>
  </g>
 </g>
 <defs>
  <clipPath id="p0185efd6a1">
   <rect height="135.9" width="558" x="90" y="21.6"/>
  </clipPath>
 </defs>
</svg>
