<?xml version="1.0" encoding="utf-8" standalone="no"?>
<!DOCTYPE svg PUBLIC "-//W3C//DTD SVG 1.1//EN"
  "http://www.w3.org/Graphics/SVG/1.1/DTD/svg11.dtd">
<!-- Created with matplotlib (https://matplotlib.org/) -->
<svg height="180pt" version="1.1" viewBox="0 0 720 180" width="720pt" xmlns="http://www.w3.org/2000/svg" xmlns:xlink="http://www.w3.org/1999/xlink">
 <metadata>
  <rdf:RDF xmlns:cc="http://creativecommons.org/ns#" xmlns:dc="http://purl.org/dc/elements/1.1/" xmlns:rdf="http://www.w3.org/1999/02/22-rdf-syntax-ns#">
   <cc:Work>
    <dc:type rdf:resource="http://purl.org/dc/dcmitype/StillImage"/>
    <dc:date>2021-08-04T23:33:01.140000</dc:date>
    <dc:format>image/svg+xml</dc:format>
    <dc:creator>
     <cc:Agent>
      <dc:title>Matplotlib v3.3.2, https://matplotlib.org/</dc:title>
     </cc:Agent>
    </dc:creator>
   </cc:Work>
  </rdf:RDF>
 </metadata>
 <defs>
  <style type="text/css">*{stroke-linecap:butt;stroke-linejoin:round;}</style>
 </defs>
 <g id="figure_1">
  <g id="patch_1">
   <path d="M 0 180 
L 720 180 
L 720 0 
L 0 0 
z
" style="fill:none;"/>
  </g>
  <g id="axes_1">
   <g id="line2d_1">
    <path clip-path="url(#pa36ec8f4e9)" d="M 90 157.5 
L 648 157.5 
" style="fill:none;stroke:#000000;stroke-linecap:square;stroke-width:0.5;"/>
   </g>
   <g id="patch_2">
    <path clip-path="url(#pa36ec8f4e9)" d="M 111.66376 149.24775 
L 99.636153 149.24775 
L 97.737057 157.5 
L 90 157.5 
L 101.049285 112.2 
L 110.225051 112.2 
L 121.274336 157.5 
L 113.543673 157.5 
z
M 101.554432 140.840163 
L 109.726299 140.840163 
L 105.64676 122.821132 
z
" style="fill:#008000;"/>
   </g>
   <g id="patch_3">
    <path clip-path="url(#pa36ec8f4e9)" d="M 144.584114 149.24775 
L 132.556507 149.24775 
L 130.657411 157.5 
L 122.920354 157.5 
L 133.969639 112.2 
L 143.145405 112.2 
L 154.19469 157.5 
L 146.464027 157.5 
z
M 134.474786 140.840163 
L 142.646653 140.840163 
L 138.567114 122.821132 
z
" style="fill:#008000;"/>
   </g>
   <g id="patch_4">
    <path clip-path="url(#pa36ec8f4e9)" d="M 155.840708 142.4 
L 187.115044 142.4 
L 187.115044 145.344921 
L 175.863556 145.344921 
L 175.863556 157.5 
L 167.114015 157.5 
L 167.114015 145.344921 
L 155.840708 145.344921 
z
" style="fill:#ff0000;"/>
   </g>
   <g id="patch_5">
    <path clip-path="url(#pa36ec8f4e9)" d="M 177.504468 136.8985 
L 165.476861 136.8985 
L 163.577765 142.4 
L 155.840708 142.4 
L 166.889993 112.2 
L 176.065759 112.2 
L 187.115044 142.4 
L 179.384381 142.4 
z
M 167.39514 131.293442 
L 175.567007 131.293442 
L 171.487467 119.280754 
z
" style="fill:#008000;"/>
   </g>
   <g id="patch_6">
    <path clip-path="url(#pa36ec8f4e9)" d="M 210.424822 154.74925 
L 198.397215 154.74925 
L 196.498119 157.5 
L 188.761062 157.5 
L 199.810347 142.4 
L 208.986113 142.4 
L 220.035398 157.5 
L 212.304735 157.5 
z
M 200.315494 151.946721 
L 208.487361 151.946721 
L 204.407821 145.940377 
z
" style="fill:#008000;"/>
   </g>
   <g id="patch_7">
    <path clip-path="url(#pa36ec8f4e9)" d="M 188.761062 112.2 
L 220.035398 112.2 
L 220.035398 118.089841 
L 208.78391 118.089841 
L 208.78391 142.4 
L 200.034369 142.4 
L 200.034369 118.089841 
L 188.761062 118.089841 
z
" style="fill:#ff0000;"/>
   </g>
   <g id="patch_8">
    <path clip-path="url(#pa36ec8f4e9)" d="M 221.681416 142.4 
L 252.955752 142.4 
L 252.955752 145.344921 
L 241.704264 145.344921 
L 241.704264 157.5 
L 232.954723 157.5 
L 232.954723 145.344921 
L 221.681416 145.344921 
z
" style="fill:#ff0000;"/>
   </g>
   <g id="patch_9">
    <path clip-path="url(#pa36ec8f4e9)" d="M 252.955752 139.667589 
Q 249.801684 141.033795 246.409309 141.720017 
Q 243.016934 142.4 239.400269 142.4 
Q 231.227728 142.4 226.454572 138.332576 
Q 221.681416 134.265152 221.681416 127.309358 
Q 221.681416 120.272464 226.538681 116.236232 
Q 231.402954 112.2 239.862866 112.2 
Q 243.122069 112.2 246.10792 112.748977 
Q 249.10078 113.291717 251.750197 114.364718 
L 251.750197 120.384755 
Q 249.016672 119.006073 246.311182 118.32609 
Q 243.605693 117.639868 240.886185 117.639868 
Q 235.853695 117.639868 233.127178 120.147697 
Q 230.400662 122.649287 230.400662 127.309358 
Q 230.400662 131.925759 233.029052 134.446065 
Q 235.657442 136.960132 240.493679 136.960132 
Q 241.811379 136.960132 242.939834 136.816649 
Q 244.06829 136.666928 244.965447 136.355009 
L 244.965447 130.703037 
L 239.813802 130.703037 
L 239.813802 125.668663 
L 252.955752 125.668663 
z
" style="fill:#ffa600;"/>
   </g>
   <g id="patch_10">
    <path clip-path="url(#pa36ec8f4e9)" d="M 254.60177 142.4 
L 285.876106 142.4 
L 285.876106 145.344921 
L 274.624618 145.344921 
L 274.624618 157.5 
L 265.875077 157.5 
L 265.875077 145.344921 
L 254.60177 145.344921 
z
" style="fill:#ff0000;"/>
   </g>
   <g id="patch_11">
    <path clip-path="url(#pa36ec8f4e9)" d="M 285.876106 139.667589 
Q 282.722038 141.033795 279.329663 141.720017 
Q 275.937288 142.4 272.320623 142.4 
Q 264.148082 142.4 259.374926 138.332576 
Q 254.60177 134.265152 254.60177 127.309358 
Q 254.60177 120.272464 259.459035 116.236232 
Q 264.323308 112.2 272.78322 112.2 
Q 276.042423 112.2 279.028274 112.748977 
Q 282.021134 113.291717 284.670551 114.364718 
L 284.670551 120.384755 
Q 281.937026 119.006073 279.231536 118.32609 
Q 276.526047 117.639868 273.806539 117.639868 
Q 268.774049 117.639868 266.047532 120.147697 
Q 263.321016 122.649287 263.321016 127.309358 
Q 263.321016 131.925759 265.949406 134.446065 
Q 268.577796 136.960132 273.414033 136.960132 
Q 274.731733 136.960132 275.860188 136.816649 
Q 276.988644 136.666928 277.885801 136.355009 
L 277.885801 130.703037 
L 272.734156 130.703037 
L 272.734156 125.668663 
L 285.876106 125.668663 
z
" style="fill:#ffa600;"/>
   </g>
   <g id="patch_12">
    <path clip-path="url(#pa36ec8f4e9)" d="M 318.79646 154.252923 
Q 316.180416 155.862425 313.351621 156.676534 
Q 310.522826 157.5 307.441883 157.5 
Q 298.254209 157.5 292.888166 151.398864 
Q 287.522124 145.297728 287.522124 134.864036 
Q 287.522124 124.392915 292.888166 118.301136 
Q 298.254209 112.2 307.441883 112.2 
Q 310.522826 112.2 313.351621 113.023466 
Q 316.180416 113.837575 318.79646 115.447077 
L 318.79646 124.477133 
Q 316.156777 122.343607 313.59589 121.351704 
Q 311.035004 120.359802 308.206209 120.359802 
Q 303.131713 120.359802 300.224122 124.224478 
Q 297.32441 128.079798 297.32441 134.864036 
Q 297.32441 141.620202 300.224122 145.484879 
Q 303.131713 149.340198 308.206209 149.340198 
Q 311.035004 149.340198 313.59589 148.348296 
Q 316.156777 147.347036 318.79646 145.21351 
z
" style="fill:#0000ff;"/>
   </g>
   <g id="patch_13">
    <path clip-path="url(#pa36ec8f4e9)" d="M 351.716814 154.767589 
Q 348.562746 156.133795 345.170371 156.820017 
Q 341.777996 157.5 338.161331 157.5 
Q 329.98879 157.5 325.215634 153.432576 
Q 320.442478 149.365152 320.442478 142.409358 
Q 320.442478 135.372464 325.299743 131.336232 
Q 330.164016 127.3 338.623928 127.3 
Q 341.883131 127.3 344.868982 127.848977 
Q 347.861842 128.391717 350.511259 129.464718 
L 350.511259 135.484755 
Q 347.777734 134.106073 345.072244 133.42609 
Q 342.366755 132.739868 339.647247 132.739868 
Q 334.614757 132.739868 331.88824 135.247697 
Q 329.161724 137.749287 329.161724 142.409358 
Q 329.161724 147.025759 331.790114 149.546065 
Q 334.418504 152.060132 339.254741 152.060132 
Q 340.572441 152.060132 341.700896 151.916649 
Q 342.829351 151.766928 343.726509 151.455009 
L 343.726509 145.803037 
L 338.574864 145.803037 
L 338.574864 140.768663 
L 351.716814 140.768663 
z
" style="fill:#ffa600;"/>
   </g>
   <g id="patch_14">
    <path clip-path="url(#pa36ec8f4e9)" d="M 342.106238 119.04775 
L 330.078631 119.04775 
L 328.179535 127.3 
L 320.442478 127.3 
L 331.491763 82 
L 340.667529 82 
L 351.716814 127.3 
L 343.986151 127.3 
z
M 331.99691 110.640163 
L 340.168777 110.640163 
L 336.089237 92.621132 
z
" style="fill:#008000;"/>
   </g>
   <g id="patch_15">
    <path clip-path="url(#pa36ec8f4e9)" d="M 375.026592 151.9985 
L 362.998985 151.9985 
L 361.099889 157.5 
L 353.362832 157.5 
L 364.412117 127.3 
L 373.587883 127.3 
L 384.637168 157.5 
L 376.906505 157.5 
z
M 364.917264 146.393442 
L 373.089131 146.393442 
L 369.009591 134.380754 
z
" style="fill:#008000;"/>
   </g>
   <g id="patch_16">
    <path clip-path="url(#pa36ec8f4e9)" d="M 353.362832 82 
L 384.637168 82 
L 384.637168 90.834762 
L 373.38568 90.834762 
L 373.38568 127.3 
L 364.636139 127.3 
L 364.636139 90.834762 
L 353.362832 90.834762 
z
" style="fill:#ff0000;"/>
   </g>
   <g id="patch_17">
    <path clip-path="url(#pa36ec8f4e9)" d="M 417.557522 152.088205 
Q 414.941478 154.770709 412.112683 156.127556 
Q 409.283888 157.5 406.202945 157.5 
Q 397.015271 157.5 391.649228 147.33144 
Q 386.283186 137.16288 386.283186 119.773394 
Q 386.283186 102.321524 391.649228 92.16856 
Q 397.015271 82 406.202945 82 
Q 409.283888 82 412.112683 83.372444 
Q 414.941478 84.729291 417.557522 87.411795 
L 417.557522 102.461888 
Q 414.917839 98.906011 412.356952 97.25284 
Q 409.796066 95.599669 406.967271 95.599669 
Q 401.892775 95.599669 398.985184 102.040797 
Q 396.085472 108.466329 396.085472 119.773394 
Q 396.085472 131.033671 398.985184 137.474799 
Q 401.892775 143.900331 406.967271 143.900331 
Q 409.796066 143.900331 412.356952 142.24716 
Q 414.917839 140.578393 417.557522 137.022516 
z
" style="fill:#0000ff;"/>
   </g>
   <g id="patch_18">
    <path clip-path="url(#pa36ec8f4e9)" d="M 440.8673 143.746249 
L 428.839693 143.746249 
L 426.940597 157.5 
L 419.20354 157.5 
L 430.252825 82 
L 439.428591 82 
L 450.477876 157.5 
L 442.747213 157.5 
z
M 430.757972 129.733605 
L 438.929839 129.733605 
L 434.850299 99.701886 
z
" style="fill:#008000;"/>
   </g>
   <g id="patch_19">
    <path clip-path="url(#pa36ec8f4e9)" d="M 483.39823 155.335282 
Q 480.782186 156.408283 477.953391 156.951023 
Q 475.124596 157.5 472.043652 157.5 
Q 462.855979 157.5 457.489936 153.432576 
Q 452.123894 149.365152 452.123894 142.409358 
Q 452.123894 135.42861 457.489936 131.367424 
Q 462.855979 127.3 472.043652 127.3 
Q 475.124596 127.3 477.953391 127.848977 
Q 480.782186 128.391717 483.39823 129.464718 
L 483.39823 135.484755 
Q 480.758547 134.062404 478.19766 133.401136 
Q 475.636773 132.739868 472.807979 132.739868 
Q 467.733483 132.739868 464.825892 135.316319 
Q 461.92618 137.886532 461.92618 142.409358 
Q 461.92618 146.913468 464.825892 149.489919 
Q 467.733483 152.060132 472.807979 152.060132 
Q 475.636773 152.060132 478.19766 151.398864 
Q 480.758547 150.731357 483.39823 149.309006 
z
" style="fill:#0000ff;"/>
   </g>
   <g id="patch_20">
    <path clip-path="url(#pa36ec8f4e9)" d="M 452.123894 82 
L 483.39823 82 
L 483.39823 90.834762 
L 472.146742 90.834762 
L 472.146742 127.3 
L 463.397201 127.3 
L 463.397201 90.834762 
L 452.123894 90.834762 
z
" style="fill:#ff0000;"/>
   </g>
   <g id="patch_21">
    <path clip-path="url(#pa36ec8f4e9)" d="M 485.044248 142.4 
L 516.318584 142.4 
L 516.318584 145.344921 
L 505.067096 145.344921 
L 505.067096 157.5 
L 496.317555 157.5 
L 496.317555 145.344921 
L 485.044248 145.344921 
z
" style="fill:#ff0000;"/>
   </g>
   <g id="patch_22">
    <path clip-path="url(#pa36ec8f4e9)" d="M 516.318584 136.935179 
Q 513.164516 139.667589 509.772141 141.040033 
Q 506.379765 142.4 502.763101 142.4 
Q 494.59056 142.4 489.817404 134.265152 
Q 485.044248 126.130304 485.044248 112.218715 
Q 485.044248 98.144929 489.901512 90.072464 
Q 494.765786 82 503.225697 82 
Q 506.484901 82 509.470752 83.097955 
Q 512.463612 84.183433 515.113029 86.329436 
L 515.113029 98.36951 
Q 512.379504 95.612146 509.674014 94.252179 
Q 506.968525 92.879736 504.249017 92.879736 
Q 499.216527 92.879736 496.49001 97.895394 
Q 493.763493 102.898575 493.763493 112.218715 
Q 493.763493 121.451518 496.391883 126.49213 
Q 499.020273 131.520264 503.856511 131.520264 
Q 505.174211 131.520264 506.302666 131.233299 
Q 507.431121 130.933857 508.328279 130.310019 
L 508.328279 119.006073 
L 503.176634 119.006073 
L 503.176634 108.937327 
L 516.318584 108.937327 
z
" style="fill:#ffa600;"/>
   </g>
   <g id="patch_23">
    <path clip-path="url(#pa36ec8f4e9)" d="M 549.238938 156.417641 
Q 546.622894 156.954142 543.794099 157.225511 
Q 540.965304 157.5 537.88436 157.5 
Q 528.696687 157.5 523.330644 155.466288 
Q 517.964602 153.432576 517.964602 149.954679 
Q 517.964602 146.464305 523.330644 144.433712 
Q 528.696687 142.4 537.88436 142.4 
Q 540.965304 142.4 543.794099 142.674489 
Q 546.622894 142.945858 549.238938 143.482359 
L 549.238938 146.492378 
Q 546.599255 145.781202 544.038368 145.450568 
Q 541.477481 145.119934 538.648687 145.119934 
Q 533.574191 145.119934 530.6666 146.408159 
Q 527.766888 147.693266 527.766888 149.954679 
Q 527.766888 152.206734 530.6666 153.49496 
Q 533.574191 154.780066 538.648687 154.780066 
Q 541.477481 154.780066 544.038368 154.449432 
Q 546.599255 154.115679 549.238938 153.404503 
z
" style="fill:#0000ff;"/>
   </g>
   <g id="patch_24">
    <path clip-path="url(#pa36ec8f4e9)" d="M 517.964602 127.3 
L 549.238938 127.3 
L 549.238938 130.244921 
L 537.98745 130.244921 
L 537.98745 142.4 
L 529.237909 142.4 
L 529.237909 130.244921 
L 517.964602 130.244921 
z
" style="fill:#ff0000;"/>
   </g>
   <g id="patch_25">
    <path clip-path="url(#pa36ec8f4e9)" d="M 549.238938 123.201384 
Q 546.08487 125.250692 542.692495 126.280025 
Q 539.300119 127.3 535.683455 127.3 
Q 527.510914 127.3 522.737758 121.198864 
Q 517.964602 115.097728 517.964602 104.664036 
Q 517.964602 94.108697 522.821866 88.054348 
Q 527.68614 82 536.146051 82 
Q 539.405255 82 542.391106 82.823466 
Q 545.383966 83.637575 548.033383 85.247077 
L 548.033383 94.277133 
Q 545.299858 92.20911 542.594368 91.189134 
Q 539.888879 90.159802 537.169371 90.159802 
Q 532.136881 90.159802 529.410364 93.921545 
Q 526.683847 97.673931 526.683847 104.664036 
Q 526.683847 111.588639 529.312237 115.369097 
Q 531.940627 119.140198 536.776865 119.140198 
Q 538.094565 119.140198 539.22302 118.924974 
Q 540.351475 118.700392 541.248633 118.232514 
L 541.248633 109.754555 
L 536.096988 109.754555 
L 536.096988 102.202995 
L 549.238938 102.202995 
z
" style="fill:#ffa600;"/>
   </g>
   <g id="patch_26">
    <path clip-path="url(#pa36ec8f4e9)" d="M 582.159292 156.133795 
Q 579.005224 156.816897 575.612849 157.160008 
Q 572.220473 157.5 568.603809 157.5 
Q 560.431268 157.5 555.658112 155.466288 
Q 550.884956 153.432576 550.884956 149.954679 
Q 550.884956 146.436232 555.74222 144.418116 
Q 560.606494 142.4 569.066405 142.4 
Q 572.325609 142.4 575.31146 142.674489 
Q 578.30432 142.945858 580.953737 143.482359 
L 580.953737 146.492378 
Q 578.220212 145.803037 575.514722 145.463045 
Q 572.809233 145.119934 570.089725 145.119934 
Q 565.057235 145.119934 562.330718 146.373848 
Q 559.604201 147.624644 559.604201 149.954679 
Q 559.604201 152.26288 562.232591 153.523032 
Q 564.860981 154.780066 569.697219 154.780066 
Q 571.014919 154.780066 572.143374 154.708325 
Q 573.271829 154.633464 574.168986 154.477505 
L 574.168986 151.651518 
L 569.017342 151.651518 
L 569.017342 149.134332 
L 582.159292 149.134332 
z
" style="fill:#ffa600;"/>
   </g>
   <g id="patch_27">
    <path clip-path="url(#pa36ec8f4e9)" d="M 572.548716 131.397 
L 560.521109 131.397 
L 558.622013 142.4 
L 550.884956 142.4 
L 561.934241 82 
L 571.110007 82 
L 582.159292 142.4 
L 574.428629 142.4 
z
M 562.439387 120.186884 
L 570.611255 120.186884 
L 566.531715 96.161509 
z
" style="fill:#008000;"/>
   </g>
   <g id="patch_28">
    <path clip-path="url(#pa36ec8f4e9)" d="M 615.079646 156.133795 
Q 611.925578 156.816897 608.533203 157.160008 
Q 605.140827 157.5 601.524163 157.5 
Q 593.351622 157.5 588.578466 155.466288 
Q 583.80531 153.432576 583.80531 149.954679 
Q 583.80531 146.436232 588.662574 144.418116 
Q 593.526848 142.4 601.986759 142.4 
Q 605.245963 142.4 608.231814 142.674489 
Q 611.224674 142.945858 613.874091 143.482359 
L 613.874091 146.492378 
Q 611.140566 145.803037 608.435076 145.463045 
Q 605.729587 145.119934 603.010079 145.119934 
Q 597.977589 145.119934 595.251072 146.373848 
Q 592.524555 147.624644 592.524555 149.954679 
Q 592.524555 152.26288 595.152945 153.523032 
Q 597.781335 154.780066 602.617573 154.780066 
Q 603.935272 154.780066 605.063728 154.708325 
Q 606.192183 154.633464 607.08934 154.477505 
L 607.08934 151.651518 
L 601.937696 151.651518 
L 601.937696 149.134332 
L 615.079646 149.134332 
z
" style="fill:#ffa600;"/>
   </g>
   <g id="patch_29">
    <path clip-path="url(#pa36ec8f4e9)" d="M 583.80531 21.6 
L 615.079646 21.6 
L 615.079646 45.159366 
L 603.828158 45.159366 
L 603.828158 142.4 
L 595.078617 142.4 
L 595.078617 45.159366 
L 583.80531 45.159366 
z
" style="fill:#ff0000;"/>
   </g>
   <g id="patch_30">
    <path clip-path="url(#pa36ec8f4e9)" d="M 648 156.417641 
Q 645.383956 156.954142 642.555161 157.225511 
Q 639.726366 157.5 636.645422 157.5 
Q 627.457749 157.5 622.091706 155.466288 
Q 616.725664 153.432576 616.725664 149.954679 
Q 616.725664 146.464305 622.091706 144.433712 
Q 627.457749 142.4 636.645422 142.4 
Q 639.726366 142.4 642.555161 142.674489 
Q 645.383956 142.945858 648 143.482359 
L 648 146.492378 
Q 645.360317 145.781202 642.79943 145.450568 
Q 640.238543 145.119934 637.409749 145.119934 
Q 632.335253 145.119934 629.427662 146.408159 
Q 626.52795 147.693266 626.52795 149.954679 
Q 626.52795 152.206734 629.427662 153.49496 
Q 632.335253 154.780066 637.409749 154.780066 
Q 640.238543 154.780066 642.79943 154.449432 
Q 645.360317 154.115679 648 153.404503 
z
" style="fill:#0000ff;"/>
   </g>
   <g id="patch_31">
    <path clip-path="url(#pa36ec8f4e9)" d="M 648 131.470357 
Q 644.845932 136.935179 641.453557 139.680066 
Q 638.061181 142.4 634.444517 142.4 
Q 626.271976 142.4 621.49882 126.130304 
Q 616.725664 109.860607 616.725664 82.03743 
Q 616.725664 53.889857 621.582928 37.744929 
Q 626.447202 21.6 634.907113 21.6 
Q 638.166317 21.6 641.152168 23.79591 
Q 644.145028 25.966866 646.794445 30.258872 
L 646.794445 54.339021 
Q 644.06092 48.824293 641.35543 46.104359 
Q 638.649941 43.359471 635.930433 43.359471 
Q 630.897943 43.359471 628.171426 53.390787 
Q 625.444909 63.397149 625.444909 82.03743 
Q 625.444909 100.503037 628.073299 110.584259 
Q 630.701689 120.640529 635.537927 120.640529 
Q 636.855626 120.640529 637.984082 120.066598 
Q 639.112537 119.467713 640.009694 118.220037 
L 640.009694 95.612146 
L 634.85805 95.612146 
L 634.85805 75.474654 
L 648 75.474654 
z
" style="fill:#ffa600;"/>
   </g>
  </g>
 </g>
 <defs>
  <clipPath id="pa36ec8f4e9">
   <rect height="135.9" width="558" x="90" y="21.6"/>
  </clipPath>
 </defs>
</svg>
