<?xml version="1.0" encoding="utf-8" standalone="no"?>
<!DOCTYPE svg PUBLIC "-//W3C//DTD SVG 1.1//EN"
  "http://www.w3.org/Graphics/SVG/1.1/DTD/svg11.dtd">
<!-- Created with matplotlib (https://matplotlib.org/) -->
<svg height="180pt" version="1.1" viewBox="0 0 720 180" width="720pt" xmlns="http://www.w3.org/2000/svg" xmlns:xlink="http://www.w3.org/1999/xlink">
 <metadata>
  <rdf:RDF xmlns:cc="http://creativecommons.org/ns#" xmlns:dc="http://purl.org/dc/elements/1.1/" xmlns:rdf="http://www.w3.org/1999/02/22-rdf-syntax-ns#">
   <cc:Work>
    <dc:type rdf:resource="http://purl.org/dc/dcmitype/StillImage"/>
    <dc:date>2021-08-04T23:33:05.094663</dc:date>
    <dc:format>image/svg+xml</dc:format>
    <dc:creator>
     <cc:Agent>
      <dc:title>Matplotlib v3.3.2, https://matplotlib.org/</dc:title>
     </cc:Agent>
    </dc:creator>
   </cc:Work>
  </rdf:RDF>
 </metadata>
 <defs>
  <style type="text/css">*{stroke-linecap:butt;stroke-linejoin:round;}</style>
 </defs>
 <g id="figure_1">
  <g id="patch_1">
   <path d="M 0 180 
L 720 180 
L 720 0 
L 0 0 
z
" style="fill:none;"/>
  </g>
  <g id="axes_1">
   <g id="line2d_1">
    <path clip-path="url(#p06b8427895)" d="M 90 157.5 
L 648 157.5 
" style="fill:none;stroke:#000000;stroke-linecap:square;stroke-width:0.5;"/>
   </g>
   <g id="patch_2">
    <path clip-path="url(#p06b8427895)" d="M 111.66376 151.9985 
L 99.636153 151.9985 
L 97.737057 157.5 
L 90 157.5 
L 101.049285 127.3 
L 110.225051 127.3 
L 121.274336 157.5 
L 113.543673 157.5 
z
M 101.554432 146.393442 
L 109.726299 146.393442 
L 105.64676 134.380754 
z
" style="fill:#008000;"/>
   </g>
   <g id="patch_3">
    <path clip-path="url(#p06b8427895)" d="M 121.274336 124.567589 
Q 118.120268 125.933795 114.727893 126.620017 
Q 111.335518 127.3 107.718853 127.3 
Q 99.546312 127.3 94.773156 123.232576 
Q 90 119.165152 90 112.209358 
Q 90 105.172464 94.857265 101.136232 
Q 99.721538 97.1 108.18145 97.1 
Q 111.440653 97.1 114.426504 97.648977 
Q 117.419364 98.191717 120.068781 99.264718 
L 120.068781 105.284755 
Q 117.335256 103.906073 114.629766 103.22609 
Q 111.924277 102.539868 109.204769 102.539868 
Q 104.172279 102.539868 101.445762 105.047697 
Q 98.719246 107.549287 98.719246 112.209358 
Q 98.719246 116.825759 101.347636 119.346065 
Q 103.976026 121.860132 108.812263 121.860132 
Q 110.129963 121.860132 111.258418 121.716649 
Q 112.386874 121.566928 113.284031 121.255009 
L 113.284031 115.603037 
L 108.132386 115.603037 
L 108.132386 110.568663 
L 121.274336 110.568663 
z
" style="fill:#ffa600;"/>
   </g>
   <g id="patch_4">
    <path clip-path="url(#p06b8427895)" d="M 90 66.9 
L 121.274336 66.9 
L 121.274336 72.789841 
L 110.022848 72.789841 
L 110.022848 97.1 
L 101.273307 97.1 
L 101.273307 72.789841 
L 90 72.789841 
z
" style="fill:#ff0000;"/>
   </g>
   <g id="patch_5">
    <path clip-path="url(#p06b8427895)" d="M 121.274336 63.652923 
Q 118.658292 65.262425 115.829497 66.076534 
Q 113.000702 66.9 109.919759 66.9 
Q 100.732085 66.9 95.366043 60.798864 
Q 90 54.697728 90 44.264036 
Q 90 33.792915 95.366043 27.701136 
Q 100.732085 21.6 109.919759 21.6 
Q 113.000702 21.6 115.829497 22.423466 
Q 118.658292 23.237575 121.274336 24.847077 
L 121.274336 33.877133 
Q 118.634653 31.743607 116.073766 30.751704 
Q 113.51288 29.759802 110.684085 29.759802 
Q 105.609589 29.759802 102.701998 33.624478 
Q 99.802286 37.479798 99.802286 44.264036 
Q 99.802286 51.020202 102.701998 54.884879 
Q 105.609589 58.740198 110.684085 58.740198 
Q 113.51288 58.740198 116.073766 57.748296 
Q 118.634653 56.747036 121.274336 54.61351 
z
" style="fill:#0000ff;"/>
   </g>
   <g id="patch_6">
    <path clip-path="url(#p06b8427895)" d="M 144.584114 154.74925 
L 132.556507 154.74925 
L 130.657411 157.5 
L 122.920354 157.5 
L 133.969639 142.4 
L 143.145405 142.4 
L 154.19469 157.5 
L 146.464027 157.5 
z
M 134.474786 151.946721 
L 142.646653 151.946721 
L 138.567114 145.940377 
z
" style="fill:#008000;"/>
   </g>
   <g id="patch_7">
    <path clip-path="url(#p06b8427895)" d="M 122.920354 97.1 
L 154.19469 97.1 
L 154.19469 105.934762 
L 142.943202 105.934762 
L 142.943202 142.4 
L 134.193661 142.4 
L 134.193661 105.934762 
L 122.920354 105.934762 
z
" style="fill:#ff0000;"/>
   </g>
   <g id="patch_8">
    <path clip-path="url(#p06b8427895)" d="M 154.19469 90.268973 
Q 151.040622 93.684487 147.648247 95.400041 
Q 144.255872 97.1 140.639207 97.1 
Q 132.466666 97.1 127.69351 86.93144 
Q 122.920354 76.76288 122.920354 59.373394 
Q 122.920354 41.781161 127.777619 31.69058 
Q 132.641892 21.6 141.101804 21.6 
Q 144.361007 21.6 147.346858 22.972444 
Q 150.339718 24.329291 152.989135 27.011795 
L 152.989135 42.061888 
Q 150.25561 38.615183 147.55012 36.915224 
Q 144.844631 35.199669 142.125123 35.199669 
Q 137.092633 35.199669 134.366116 41.469242 
Q 131.6396 47.723218 131.6396 59.373394 
Q 131.6396 70.914398 134.26799 77.215162 
Q 136.89638 83.500331 141.732617 83.500331 
Q 143.050317 83.500331 144.178772 83.141624 
Q 145.307228 82.767321 146.204385 81.987523 
L 146.204385 67.857591 
L 141.05274 67.857591 
L 141.05274 55.271659 
L 154.19469 55.271659 
z
" style="fill:#ffa600;"/>
   </g>
   <g id="patch_9">
    <path clip-path="url(#p06b8427895)" d="M 187.115044 145.204152 
Q 183.960976 151.352076 180.568601 154.440074 
Q 177.176226 157.5 173.559561 157.5 
Q 165.38702 157.5 160.613864 139.196592 
Q 155.840708 120.893183 155.840708 89.592109 
Q 155.840708 57.92609 160.697973 39.763045 
Q 165.562246 21.6 174.022158 21.6 
Q 177.281361 21.6 180.267212 24.070399 
Q 183.260072 26.512725 185.909489 31.341231 
L 185.909489 58.431398 
Q 183.175964 52.227329 180.470474 49.167403 
Q 177.764985 46.079405 175.045477 46.079405 
Q 170.012987 46.079405 167.28647 57.364635 
Q 164.559954 68.621793 164.559954 89.592109 
Q 164.559954 110.365916 167.188344 121.707292 
Q 169.816734 133.020595 174.652971 133.020595 
Q 175.970671 133.020595 177.099126 132.374923 
Q 178.227582 131.701177 179.124739 130.297542 
L 179.124739 104.863665 
L 173.973094 104.863665 
L 173.973094 82.208986 
L 187.115044 82.208986 
z
" style="fill:#ffa600;"/>
   </g>
   <g id="patch_10">
    <path clip-path="url(#p06b8427895)" d="M 210.424822 154.74925 
L 198.397215 154.74925 
L 196.498119 157.5 
L 188.761062 157.5 
L 199.810347 142.4 
L 208.986113 142.4 
L 220.035398 157.5 
L 212.304735 157.5 
z
M 200.315494 151.946721 
L 208.487361 151.946721 
L 204.407821 145.940377 
z
" style="fill:#008000;"/>
   </g>
   <g id="patch_11">
    <path clip-path="url(#p06b8427895)" d="M 220.035398 141.317641 
Q 217.419354 141.854142 214.590559 142.125511 
Q 211.761764 142.4 208.680821 142.4 
Q 199.493147 142.4 194.127105 140.366288 
Q 188.761062 138.332576 188.761062 134.854679 
Q 188.761062 131.364305 194.127105 129.333712 
Q 199.493147 127.3 208.680821 127.3 
Q 211.761764 127.3 214.590559 127.574489 
Q 217.419354 127.845858 220.035398 128.382359 
L 220.035398 131.392378 
Q 217.395715 130.681202 214.834828 130.350568 
Q 212.273942 130.019934 209.445147 130.019934 
Q 204.370651 130.019934 201.46306 131.308159 
Q 198.563348 132.593266 198.563348 134.854679 
Q 198.563348 137.106734 201.46306 138.39496 
Q 204.370651 139.680066 209.445147 139.680066 
Q 212.273942 139.680066 214.834828 139.349432 
Q 217.395715 139.015679 220.035398 138.304503 
z
" style="fill:#0000ff;"/>
   </g>
   <g id="patch_12">
    <path clip-path="url(#p06b8427895)" d="M 188.761062 82 
L 220.035398 82 
L 220.035398 90.834762 
L 208.78391 90.834762 
L 208.78391 127.3 
L 200.034369 127.3 
L 200.034369 90.834762 
L 188.761062 90.834762 
z
" style="fill:#ff0000;"/>
   </g>
   <g id="patch_13">
    <path clip-path="url(#p06b8427895)" d="M 220.035398 76.535179 
Q 216.88133 79.267589 213.488955 80.640033 
Q 210.09658 82 206.479915 82 
Q 198.307374 82 193.534218 73.865152 
Q 188.761062 65.730304 188.761062 51.818715 
Q 188.761062 37.744929 193.618327 29.672464 
Q 198.4826 21.6 206.942512 21.6 
Q 210.201715 21.6 213.187566 22.697955 
Q 216.180426 23.783433 218.829843 25.929436 
L 218.829843 37.96951 
Q 216.096318 35.212146 213.390828 33.852179 
Q 210.685339 32.479736 207.965831 32.479736 
Q 202.933341 32.479736 200.206824 37.495394 
Q 197.480308 42.498575 197.480308 51.818715 
Q 197.480308 61.051518 200.108698 66.09213 
Q 202.737088 71.120264 207.573325 71.120264 
Q 208.891025 71.120264 210.01948 70.833299 
Q 211.147936 70.533857 212.045093 69.910019 
L 212.045093 58.606073 
L 206.893448 58.606073 
L 206.893448 48.537327 
L 220.035398 48.537327 
z
" style="fill:#ffa600;"/>
   </g>
   <g id="patch_14">
    <path clip-path="url(#p06b8427895)" d="M 243.345176 151.9985 
L 231.317569 151.9985 
L 229.418473 157.5 
L 221.681416 157.5 
L 232.730701 127.3 
L 241.906467 127.3 
L 252.955752 157.5 
L 245.225089 157.5 
z
M 233.235848 146.393442 
L 241.407715 146.393442 
L 237.328175 134.380754 
z
" style="fill:#008000;"/>
   </g>
   <g id="patch_15">
    <path clip-path="url(#p06b8427895)" d="M 252.955752 124.052923 
Q 250.339708 125.662425 247.510913 126.476534 
Q 244.682118 127.3 241.601175 127.3 
Q 232.413501 127.3 227.047459 121.198864 
Q 221.681416 115.097728 221.681416 104.664036 
Q 221.681416 94.192915 227.047459 88.101136 
Q 232.413501 82 241.601175 82 
Q 244.682118 82 247.510913 82.823466 
Q 250.339708 83.637575 252.955752 85.247077 
L 252.955752 94.277133 
Q 250.316069 92.143607 247.755182 91.151704 
Q 245.194296 90.159802 242.365501 90.159802 
Q 237.291005 90.159802 234.383414 94.024478 
Q 231.483702 97.879798 231.483702 104.664036 
Q 231.483702 111.420202 234.383414 115.284879 
Q 237.291005 119.140198 242.365501 119.140198 
Q 245.194296 119.140198 247.755182 118.148296 
Q 250.316069 117.147036 252.955752 115.01351 
z
" style="fill:#0000ff;"/>
   </g>
   <g id="patch_16">
    <path clip-path="url(#p06b8427895)" d="M 252.955752 76.535179 
Q 249.801684 79.267589 246.409309 80.640033 
Q 243.016934 82 239.400269 82 
Q 231.227728 82 226.454572 73.865152 
Q 221.681416 65.730304 221.681416 51.818715 
Q 221.681416 37.744929 226.538681 29.672464 
Q 231.402954 21.6 239.862866 21.6 
Q 243.122069 21.6 246.10792 22.697955 
Q 249.10078 23.783433 251.750197 25.929436 
L 251.750197 37.96951 
Q 249.016672 35.212146 246.311182 33.852179 
Q 243.605693 32.479736 240.886185 32.479736 
Q 235.853695 32.479736 233.127178 37.495394 
Q 230.400662 42.498575 230.400662 51.818715 
Q 230.400662 61.051518 233.029052 66.09213 
Q 235.657442 71.120264 240.493679 71.120264 
Q 241.811379 71.120264 242.939834 70.833299 
Q 244.06829 70.533857 244.965447 69.910019 
L 244.965447 58.606073 
L 239.813802 58.606073 
L 239.813802 48.537327 
L 252.955752 48.537327 
z
" style="fill:#ffa600;"/>
   </g>
   <g id="patch_17">
    <path clip-path="url(#p06b8427895)" d="M 285.876106 154.252923 
Q 283.260062 155.862425 280.431267 156.676534 
Q 277.602472 157.5 274.521529 157.5 
Q 265.333855 157.5 259.967812 151.398864 
Q 254.60177 145.297728 254.60177 134.864036 
Q 254.60177 124.392915 259.967812 118.301136 
Q 265.333855 112.2 274.521529 112.2 
Q 277.602472 112.2 280.431267 113.023466 
Q 283.260062 113.837575 285.876106 115.447077 
L 285.876106 124.477133 
Q 283.236423 122.343607 280.675536 121.351704 
Q 278.11465 120.359802 275.285855 120.359802 
Q 270.211359 120.359802 267.303768 124.224478 
Q 264.404056 128.079798 264.404056 134.864036 
Q 264.404056 141.620202 267.303768 145.484879 
Q 270.211359 149.340198 275.285855 149.340198 
Q 278.11465 149.340198 280.675536 148.348296 
Q 283.236423 147.347036 285.876106 145.21351 
z
" style="fill:#0000ff;"/>
   </g>
   <g id="patch_18">
    <path clip-path="url(#p06b8427895)" d="M 285.876106 108.101384 
Q 282.722038 110.150692 279.329663 111.180025 
Q 275.937288 112.2 272.320623 112.2 
Q 264.148082 112.2 259.374926 106.098864 
Q 254.60177 99.997728 254.60177 89.564036 
Q 254.60177 79.008697 259.459035 72.954348 
Q 264.323308 66.9 272.78322 66.9 
Q 276.042423 66.9 279.028274 67.723466 
Q 282.021134 68.537575 284.670551 70.147077 
L 284.670551 79.177133 
Q 281.937026 77.10911 279.231536 76.089134 
Q 276.526047 75.059802 273.806539 75.059802 
Q 268.774049 75.059802 266.047532 78.821545 
Q 263.321016 82.573931 263.321016 89.564036 
Q 263.321016 96.488639 265.949406 100.269097 
Q 268.577796 104.040198 273.414033 104.040198 
Q 274.731733 104.040198 275.860188 103.824974 
Q 276.988644 103.600392 277.885801 103.132514 
L 277.885801 94.654555 
L 272.734156 94.654555 
L 272.734156 87.102995 
L 285.876106 87.102995 
z
" style="fill:#ffa600;"/>
   </g>
   <g id="patch_19">
    <path clip-path="url(#p06b8427895)" d="M 254.60177 21.6 
L 285.876106 21.6 
L 285.876106 30.434762 
L 274.624618 30.434762 
L 274.624618 66.9 
L 265.875077 66.9 
L 265.875077 30.434762 
L 254.60177 30.434762 
z
" style="fill:#ff0000;"/>
   </g>
   <g id="patch_20">
    <path clip-path="url(#p06b8427895)" d="M 318.79646 156.417641 
Q 316.180416 156.954142 313.351621 157.225511 
Q 310.522826 157.5 307.441883 157.5 
Q 298.254209 157.5 292.888166 155.466288 
Q 287.522124 153.432576 287.522124 149.954679 
Q 287.522124 146.464305 292.888166 144.433712 
Q 298.254209 142.4 307.441883 142.4 
Q 310.522826 142.4 313.351621 142.674489 
Q 316.180416 142.945858 318.79646 143.482359 
L 318.79646 146.492378 
Q 316.156777 145.781202 313.59589 145.450568 
Q 311.035004 145.119934 308.206209 145.119934 
Q 303.131713 145.119934 300.224122 146.408159 
Q 297.32441 147.693266 297.32441 149.954679 
Q 297.32441 152.206734 300.224122 153.49496 
Q 303.131713 154.780066 308.206209 154.780066 
Q 311.035004 154.780066 313.59589 154.449432 
Q 316.156777 154.115679 318.79646 153.404503 
z
" style="fill:#0000ff;"/>
   </g>
   <g id="patch_21">
    <path clip-path="url(#p06b8427895)" d="M 287.522124 127.3 
L 318.79646 127.3 
L 318.79646 130.244921 
L 307.544972 130.244921 
L 307.544972 142.4 
L 298.795431 142.4 
L 298.795431 130.244921 
L 287.522124 130.244921 
z
" style="fill:#ff0000;"/>
   </g>
   <g id="patch_22">
    <path clip-path="url(#p06b8427895)" d="M 309.185884 121.7985 
L 297.158277 121.7985 
L 295.259181 127.3 
L 287.522124 127.3 
L 298.571409 97.1 
L 307.747175 97.1 
L 318.79646 127.3 
L 311.065797 127.3 
z
M 299.076556 116.193442 
L 307.248423 116.193442 
L 303.168883 104.180754 
z
" style="fill:#008000;"/>
   </g>
   <g id="patch_23">
    <path clip-path="url(#p06b8427895)" d="M 318.79646 90.268973 
Q 315.642392 93.684487 312.250017 95.400041 
Q 308.857642 97.1 305.240977 97.1 
Q 297.068436 97.1 292.29528 86.93144 
Q 287.522124 76.76288 287.522124 59.373394 
Q 287.522124 41.781161 292.379389 31.69058 
Q 297.243662 21.6 305.703574 21.6 
Q 308.962777 21.6 311.948628 22.972444 
Q 314.941488 24.329291 317.590905 27.011795 
L 317.590905 42.061888 
Q 314.85738 38.615183 312.15189 36.915224 
Q 309.446401 35.199669 306.726893 35.199669 
Q 301.694403 35.199669 298.967886 41.469242 
Q 296.24137 47.723218 296.24137 59.373394 
Q 296.24137 70.914398 298.86976 77.215162 
Q 301.49815 83.500331 306.334387 83.500331 
Q 307.652087 83.500331 308.780542 83.141624 
Q 309.908998 82.767321 310.806155 81.987523 
L 310.806155 67.857591 
L 305.65451 67.857591 
L 305.65451 55.271659 
L 318.79646 55.271659 
z
" style="fill:#ffa600;"/>
   </g>
   <g id="patch_24">
    <path clip-path="url(#p06b8427895)" d="M 351.716814 154.767589 
Q 348.562746 156.133795 345.170371 156.820017 
Q 341.777996 157.5 338.161331 157.5 
Q 329.98879 157.5 325.215634 153.432576 
Q 320.442478 149.365152 320.442478 142.409358 
Q 320.442478 135.372464 325.299743 131.336232 
Q 330.164016 127.3 338.623928 127.3 
Q 341.883131 127.3 344.868982 127.848977 
Q 347.861842 128.391717 350.511259 129.464718 
L 350.511259 135.484755 
Q 347.777734 134.106073 345.072244 133.42609 
Q 342.366755 132.739868 339.647247 132.739868 
Q 334.614757 132.739868 331.88824 135.247697 
Q 329.161724 137.749287 329.161724 142.409358 
Q 329.161724 147.025759 331.790114 149.546065 
Q 334.418504 152.060132 339.254741 152.060132 
Q 340.572441 152.060132 341.700896 151.916649 
Q 342.829351 151.766928 343.726509 151.455009 
L 343.726509 145.803037 
L 338.574864 145.803037 
L 338.574864 140.768663 
L 351.716814 140.768663 
z
" style="fill:#ffa600;"/>
   </g>
   <g id="patch_25">
    <path clip-path="url(#p06b8427895)" d="M 320.442478 82 
L 351.716814 82 
L 351.716814 90.834762 
L 340.465326 90.834762 
L 340.465326 127.3 
L 331.715785 127.3 
L 331.715785 90.834762 
L 320.442478 90.834762 
z
" style="fill:#ff0000;"/>
   </g>
   <g id="patch_26">
    <path clip-path="url(#p06b8427895)" d="M 351.716814 77.670564 
Q 349.10077 79.816567 346.271975 80.902045 
Q 343.44318 82 340.362237 82 
Q 331.174563 82 325.80852 73.865152 
Q 320.442478 65.730304 320.442478 51.818715 
Q 320.442478 37.85722 325.80852 29.734848 
Q 331.174563 21.6 340.362237 21.6 
Q 343.44318 21.6 346.271975 22.697955 
Q 349.10077 23.783433 351.716814 25.929436 
L 351.716814 37.96951 
Q 349.077131 35.124809 346.516244 33.802272 
Q 343.955358 32.479736 341.126563 32.479736 
Q 336.052067 32.479736 333.144476 37.632638 
Q 330.244764 42.773063 330.244764 51.818715 
Q 330.244764 60.826937 333.144476 65.979839 
Q 336.052067 71.120264 341.126563 71.120264 
Q 343.955358 71.120264 346.516244 69.797728 
Q 349.077131 68.462714 351.716814 65.618013 
z
" style="fill:#0000ff;"/>
   </g>
   <g id="patch_27">
    <path clip-path="url(#p06b8427895)" d="M 384.637168 153.401384 
Q 381.4831 155.450692 378.090725 156.480025 
Q 374.698349 157.5 371.081685 157.5 
Q 362.909144 157.5 358.135988 151.398864 
Q 353.362832 145.297728 353.362832 134.864036 
Q 353.362832 124.308697 358.220097 118.254348 
Q 363.08437 112.2 371.544282 112.2 
Q 374.803485 112.2 377.789336 113.023466 
Q 380.782196 113.837575 383.431613 115.447077 
L 383.431613 124.477133 
Q 380.698088 122.40911 377.992598 121.389134 
Q 375.287109 120.359802 372.567601 120.359802 
Q 367.535111 120.359802 364.808594 124.121545 
Q 362.082078 127.873931 362.082078 134.864036 
Q 362.082078 141.788639 364.710468 145.569097 
Q 367.338858 149.340198 372.175095 149.340198 
Q 373.492795 149.340198 374.62125 149.124974 
Q 375.749705 148.900392 376.646863 148.432514 
L 376.646863 139.954555 
L 371.495218 139.954555 
L 371.495218 132.402995 
L 384.637168 132.402995 
z
" style="fill:#ffa600;"/>
   </g>
   <g id="patch_28">
    <path clip-path="url(#p06b8427895)" d="M 375.026592 95.695499 
L 362.998985 95.695499 
L 361.099889 112.2 
L 353.362832 112.2 
L 364.412117 21.6 
L 373.587883 21.6 
L 384.637168 112.2 
L 376.906505 112.2 
z
M 364.917264 78.880326 
L 373.089131 78.880326 
L 369.009591 42.842263 
z
" style="fill:#008000;"/>
   </g>
   <g id="patch_29">
    <path clip-path="url(#p06b8427895)" d="M 407.946946 154.74925 
L 395.919339 154.74925 
L 394.020243 157.5 
L 386.283186 157.5 
L 397.332471 142.4 
L 406.508237 142.4 
L 417.557522 157.5 
L 409.826859 157.5 
z
M 397.837618 151.946721 
L 406.009485 151.946721 
L 401.929945 145.940377 
z
" style="fill:#008000;"/>
   </g>
   <g id="patch_30">
    <path clip-path="url(#p06b8427895)" d="M 417.557522 133.741128 
Q 414.941478 138.033134 412.112683 140.20409 
Q 409.283888 142.4 406.202945 142.4 
Q 397.015271 142.4 391.649228 126.130304 
Q 386.283186 109.860607 386.283186 82.03743 
Q 386.283186 54.114439 391.649228 37.869696 
Q 397.015271 21.6 406.202945 21.6 
Q 409.283888 21.6 412.112683 23.79591 
Q 414.941478 25.966866 417.557522 30.258872 
L 417.557522 54.339021 
Q 414.917839 48.649618 412.356952 46.004545 
Q 409.796066 43.359471 406.967271 43.359471 
Q 401.892775 43.359471 398.985184 53.665276 
Q 396.085472 63.946127 396.085472 82.03743 
Q 396.085472 100.053873 398.985184 110.359678 
Q 401.892775 120.640529 406.967271 120.640529 
Q 409.796066 120.640529 412.356952 117.995455 
Q 414.917839 115.325429 417.557522 109.636026 
z
" style="fill:#0000ff;"/>
   </g>
   <g id="patch_31">
    <path clip-path="url(#p06b8427895)" d="M 450.477876 153.170564 
Q 447.861832 155.316567 445.033037 156.402045 
Q 442.204242 157.5 439.123298 157.5 
Q 429.935625 157.5 424.569582 149.365152 
Q 419.20354 141.230304 419.20354 127.318715 
Q 419.20354 113.35722 424.569582 105.234848 
Q 429.935625 97.1 439.123298 97.1 
Q 442.204242 97.1 445.033037 98.197955 
Q 447.861832 99.283433 450.477876 101.429436 
L 450.477876 113.46951 
Q 447.838193 110.624809 445.277306 109.302272 
Q 442.71642 107.979736 439.887625 107.979736 
Q 434.813129 107.979736 431.905538 113.132638 
Q 429.005826 118.273063 429.005826 127.318715 
Q 429.005826 136.326937 431.905538 141.479839 
Q 434.813129 146.620264 439.887625 146.620264 
Q 442.71642 146.620264 445.277306 145.297728 
Q 447.838193 143.962714 450.477876 141.118013 
z
" style="fill:#0000ff;"/>
   </g>
   <g id="patch_32">
    <path clip-path="url(#p06b8427895)" d="M 450.477876 90.268973 
Q 447.323808 93.684487 443.931433 95.400041 
Q 440.539057 97.1 436.922393 97.1 
Q 428.749852 97.1 423.976696 86.93144 
Q 419.20354 76.76288 419.20354 59.373394 
Q 419.20354 41.781161 424.060805 31.69058 
Q 428.925078 21.6 437.384989 21.6 
Q 440.644193 21.6 443.630044 22.972444 
Q 446.622904 24.329291 449.272321 27.011795 
L 449.272321 42.061888 
Q 446.538796 38.615183 443.833306 36.915224 
Q 441.127817 35.199669 438.408309 35.199669 
Q 433.375819 35.199669 430.649302 41.469242 
Q 427.922786 47.723218 427.922786 59.373394 
Q 427.922786 70.914398 430.551176 77.215162 
Q 433.179565 83.500331 438.015803 83.500331 
Q 439.333503 83.500331 440.461958 83.141624 
Q 441.590413 82.767321 442.487571 81.987523 
L 442.487571 67.857591 
L 437.335926 67.857591 
L 437.335926 55.271659 
L 450.477876 55.271659 
z
" style="fill:#ffa600;"/>
   </g>
   <g id="patch_33">
    <path clip-path="url(#p06b8427895)" d="M 473.787654 132.743249 
L 461.760047 132.743249 
L 459.860951 157.5 
L 452.123894 157.5 
L 463.173179 21.6 
L 472.348945 21.6 
L 483.39823 157.5 
L 475.667567 157.5 
z
M 463.678326 107.520489 
L 471.850193 107.520489 
L 467.770653 53.463395 
z
" style="fill:#008000;"/>
   </g>
   <g id="patch_34">
    <path clip-path="url(#p06b8427895)" d="M 485.044248 21.6 
L 516.318584 21.6 
L 516.318584 48.104286 
L 505.067096 48.104286 
L 505.067096 157.5 
L 496.317555 157.5 
L 496.317555 48.104286 
L 485.044248 48.104286 
z
" style="fill:#ff0000;"/>
   </g>
   <g id="patch_35">
    <path clip-path="url(#p06b8427895)" d="M 549.238938 145.204152 
Q 546.08487 151.352076 542.692495 154.440074 
Q 539.300119 157.5 535.683455 157.5 
Q 527.510914 157.5 522.737758 139.196592 
Q 517.964602 120.893183 517.964602 89.592109 
Q 517.964602 57.92609 522.821866 39.763045 
Q 527.68614 21.6 536.146051 21.6 
Q 539.405255 21.6 542.391106 24.070399 
Q 545.383966 26.512725 548.033383 31.341231 
L 548.033383 58.431398 
Q 545.299858 52.227329 542.594368 49.167403 
Q 539.888879 46.079405 537.169371 46.079405 
Q 532.136881 46.079405 529.410364 57.364635 
Q 526.683847 68.621793 526.683847 89.592109 
Q 526.683847 110.365916 529.312237 121.707292 
Q 531.940627 133.020595 536.776865 133.020595 
Q 538.094565 133.020595 539.22302 132.374923 
Q 540.351475 131.701177 541.248633 130.297542 
L 541.248633 104.863665 
L 536.096988 104.863665 
L 536.096988 82.208986 
L 549.238938 82.208986 
z
" style="fill:#ffa600;"/>
   </g>
   <g id="patch_36">
    <path clip-path="url(#p06b8427895)" d="M 550.884956 142.4 
L 582.159292 142.4 
L 582.159292 145.344921 
L 570.907804 145.344921 
L 570.907804 157.5 
L 562.158263 157.5 
L 562.158263 145.344921 
L 550.884956 145.344921 
z
" style="fill:#ff0000;"/>
   </g>
   <g id="patch_37">
    <path clip-path="url(#p06b8427895)" d="M 582.159292 131.470357 
Q 579.005224 136.935179 575.612849 139.680066 
Q 572.220473 142.4 568.603809 142.4 
Q 560.431268 142.4 555.658112 126.130304 
Q 550.884956 109.860607 550.884956 82.03743 
Q 550.884956 53.889857 555.74222 37.744929 
Q 560.606494 21.6 569.066405 21.6 
Q 572.325609 21.6 575.31146 23.79591 
Q 578.30432 25.966866 580.953737 30.258872 
L 580.953737 54.339021 
Q 578.220212 48.824293 575.514722 46.104359 
Q 572.809233 43.359471 570.089725 43.359471 
Q 565.057235 43.359471 562.330718 53.390787 
Q 559.604201 63.397149 559.604201 82.03743 
Q 559.604201 100.503037 562.232591 110.584259 
Q 564.860981 120.640529 569.697219 120.640529 
Q 571.014919 120.640529 572.143374 120.066598 
Q 573.271829 119.467713 574.168986 118.220037 
L 574.168986 95.612146 
L 569.017342 95.612146 
L 569.017342 75.474654 
L 582.159292 75.474654 
z
" style="fill:#ffa600;"/>
   </g>
   <g id="patch_38">
    <path clip-path="url(#p06b8427895)" d="M 615.079646 154.767589 
Q 611.925578 156.133795 608.533203 156.820017 
Q 605.140827 157.5 601.524163 157.5 
Q 593.351622 157.5 588.578466 153.432576 
Q 583.80531 149.365152 583.80531 142.409358 
Q 583.80531 135.372464 588.662574 131.336232 
Q 593.526848 127.3 601.986759 127.3 
Q 605.245963 127.3 608.231814 127.848977 
Q 611.224674 128.391717 613.874091 129.464718 
L 613.874091 135.484755 
Q 611.140566 134.106073 608.435076 133.42609 
Q 605.729587 132.739868 603.010079 132.739868 
Q 597.977589 132.739868 595.251072 135.247697 
Q 592.524555 137.749287 592.524555 142.409358 
Q 592.524555 147.025759 595.152945 149.546065 
Q 597.781335 152.060132 602.617573 152.060132 
Q 603.935272 152.060132 605.063728 151.916649 
Q 606.192183 151.766928 607.08934 151.455009 
L 607.08934 145.803037 
L 601.937696 145.803037 
L 601.937696 140.768663 
L 615.079646 140.768663 
z
" style="fill:#ffa600;"/>
   </g>
   <g id="patch_39">
    <path clip-path="url(#p06b8427895)" d="M 605.46907 119.04775 
L 593.441463 119.04775 
L 591.542367 127.3 
L 583.80531 127.3 
L 594.854595 82 
L 604.030361 82 
L 615.079646 127.3 
L 607.348983 127.3 
z
M 595.359741 110.640163 
L 603.531609 110.640163 
L 599.452069 92.621132 
z
" style="fill:#008000;"/>
   </g>
   <g id="patch_40">
    <path clip-path="url(#p06b8427895)" d="M 615.079646 77.670564 
Q 612.463602 79.816567 609.634807 80.902045 
Q 606.806012 82 603.725068 82 
Q 594.537395 82 589.171352 73.865152 
Q 583.80531 65.730304 583.80531 51.818715 
Q 583.80531 37.85722 589.171352 29.734848 
Q 594.537395 21.6 603.725068 21.6 
Q 606.806012 21.6 609.634807 22.697955 
Q 612.463602 23.783433 615.079646 25.929436 
L 615.079646 37.96951 
Q 612.439963 35.124809 609.879076 33.802272 
Q 607.318189 32.479736 604.489395 32.479736 
Q 599.414899 32.479736 596.507308 37.632638 
Q 593.607596 42.773063 593.607596 51.818715 
Q 593.607596 60.826937 596.507308 65.979839 
Q 599.414899 71.120264 604.489395 71.120264 
Q 607.318189 71.120264 609.879076 69.797728 
Q 612.439963 68.462714 615.079646 65.618013 
z
" style="fill:#0000ff;"/>
   </g>
   <g id="patch_41">
    <path clip-path="url(#p06b8427895)" d="M 648 156.417641 
Q 645.383956 156.954142 642.555161 157.225511 
Q 639.726366 157.5 636.645422 157.5 
Q 627.457749 157.5 622.091706 155.466288 
Q 616.725664 153.432576 616.725664 149.954679 
Q 616.725664 146.464305 622.091706 144.433712 
Q 627.457749 142.4 636.645422 142.4 
Q 639.726366 142.4 642.555161 142.674489 
Q 645.383956 142.945858 648 143.482359 
L 648 146.492378 
Q 645.360317 145.781202 642.79943 145.450568 
Q 640.238543 145.119934 637.409749 145.119934 
Q 632.335253 145.119934 629.427662 146.408159 
Q 626.52795 147.693266 626.52795 149.954679 
Q 626.52795 152.206734 629.427662 153.49496 
Q 632.335253 154.780066 637.409749 154.780066 
Q 640.238543 154.780066 642.79943 154.449432 
Q 645.360317 154.115679 648 153.404503 
z
" style="fill:#0000ff;"/>
   </g>
   <g id="patch_42">
    <path clip-path="url(#p06b8427895)" d="M 616.725664 127.3 
L 648 127.3 
L 648 130.244921 
L 636.748512 130.244921 
L 636.748512 142.4 
L 627.998971 142.4 
L 627.998971 130.244921 
L 616.725664 130.244921 
z
" style="fill:#ff0000;"/>
   </g>
   <g id="patch_43">
    <path clip-path="url(#p06b8427895)" d="M 638.389424 121.7985 
L 626.361817 121.7985 
L 624.462721 127.3 
L 616.725664 127.3 
L 627.774949 97.1 
L 636.950715 97.1 
L 648 127.3 
L 640.269337 127.3 
z
M 628.280095 116.193442 
L 636.451963 116.193442 
L 632.372423 104.180754 
z
" style="fill:#008000;"/>
   </g>
   <g id="patch_44">
    <path clip-path="url(#p06b8427895)" d="M 648 90.268973 
Q 644.845932 93.684487 641.453557 95.400041 
Q 638.061181 97.1 634.444517 97.1 
Q 626.271976 97.1 621.49882 86.93144 
Q 616.725664 76.76288 616.725664 59.373394 
Q 616.725664 41.781161 621.582928 31.69058 
Q 626.447202 21.6 634.907113 21.6 
Q 638.166317 21.6 641.152168 22.972444 
Q 644.145028 24.329291 646.794445 27.011795 
L 646.794445 42.061888 
Q 644.06092 38.615183 641.35543 36.915224 
Q 638.649941 35.199669 635.930433 35.199669 
Q 630.897943 35.199669 628.171426 41.469242 
Q 625.444909 47.723218 625.444909 59.373394 
Q 625.444909 70.914398 628.073299 77.215162 
Q 630.701689 83.500331 635.537927 83.500331 
Q 636.855626 83.500331 637.984082 83.141624 
Q 639.112537 82.767321 640.009694 81.987523 
L 640.009694 67.857591 
L 634.85805 67.857591 
L 634.85805 55.271659 
L 648 55.271659 
z
" style="fill:#ffa600;"/>
   </g>
  </g>
 </g>
 <defs>
  <clipPath id="p06b8427895">
   <rect height="135.9" width="558" x="90" y="21.6"/>
  </clipPath>
 </defs>
</svg>
