<?xml version="1.0" encoding="utf-8" standalone="no"?>
<!DOCTYPE svg PUBLIC "-//W3C//DTD SVG 1.1//EN"
  "http://www.w3.org/Graphics/SVG/1.1/DTD/svg11.dtd">
<!-- Created with matplotlib (https://matplotlib.org/) -->
<svg height="180pt" version="1.1" viewBox="0 0 720 180" width="720pt" xmlns="http://www.w3.org/2000/svg" xmlns:xlink="http://www.w3.org/1999/xlink">
 <metadata>
  <rdf:RDF xmlns:cc="http://creativecommons.org/ns#" xmlns:dc="http://purl.org/dc/elements/1.1/" xmlns:rdf="http://www.w3.org/1999/02/22-rdf-syntax-ns#">
   <cc:Work>
    <dc:type rdf:resource="http://purl.org/dc/dcmitype/StillImage"/>
    <dc:date>2021-08-04T23:33:48.675911</dc:date>
    <dc:format>image/svg+xml</dc:format>
    <dc:creator>
     <cc:Agent>
      <dc:title>Matplotlib v3.3.2, https://matplotlib.org/</dc:title>
     </cc:Agent>
    </dc:creator>
   </cc:Work>
  </rdf:RDF>
 </metadata>
 <defs>
  <style type="text/css">*{stroke-linecap:butt;stroke-linejoin:round;}</style>
 </defs>
 <g id="figure_1">
  <g id="patch_1">
   <path d="M 0 180 
L 720 180 
L 720 0 
L 0 0 
z
" style="fill:none;"/>
  </g>
  <g id="axes_1">
   <g id="line2d_1">
    <path clip-path="url(#p434d9cf0f7)" d="M 90 157.5 
L 648 157.5 
" style="fill:none;stroke:#000000;stroke-linecap:square;stroke-width:0.5;"/>
   </g>
   <g id="patch_2">
    <path clip-path="url(#p434d9cf0f7)" d="M 121.274336 156.133795 
Q 118.120268 156.816897 114.727893 157.160008 
Q 111.335518 157.5 107.718853 157.5 
Q 99.546312 157.5 94.773156 155.466288 
Q 90 153.432576 90 149.954679 
Q 90 146.436232 94.857265 144.418116 
Q 99.721538 142.4 108.18145 142.4 
Q 111.440653 142.4 114.426504 142.674489 
Q 117.419364 142.945858 120.068781 143.482359 
L 120.068781 146.492378 
Q 117.335256 145.803037 114.629766 145.463045 
Q 111.924277 145.119934 109.204769 145.119934 
Q 104.172279 145.119934 101.445762 146.373848 
Q 98.719246 147.624644 98.719246 149.954679 
Q 98.719246 152.26288 101.347636 153.523032 
Q 103.976026 154.780066 108.812263 154.780066 
Q 110.129963 154.780066 111.258418 154.708325 
Q 112.386874 154.633464 113.284031 154.477505 
L 113.284031 151.651518 
L 108.132386 151.651518 
L 108.132386 149.134332 
L 121.274336 149.134332 
z
" style="fill:#ffa600;"/>
   </g>
   <g id="patch_3">
    <path clip-path="url(#p434d9cf0f7)" d="M 154.19469 156.133795 
Q 151.040622 156.816897 147.648247 157.160008 
Q 144.255872 157.5 140.639207 157.5 
Q 132.466666 157.5 127.69351 155.466288 
Q 122.920354 153.432576 122.920354 149.954679 
Q 122.920354 146.436232 127.777619 144.418116 
Q 132.641892 142.4 141.101804 142.4 
Q 144.361007 142.4 147.346858 142.674489 
Q 150.339718 142.945858 152.989135 143.482359 
L 152.989135 146.492378 
Q 150.25561 145.803037 147.55012 145.463045 
Q 144.844631 145.119934 142.125123 145.119934 
Q 137.092633 145.119934 134.366116 146.373848 
Q 131.6396 147.624644 131.6396 149.954679 
Q 131.6396 152.26288 134.26799 153.523032 
Q 136.89638 154.780066 141.732617 154.780066 
Q 143.050317 154.780066 144.178772 154.708325 
Q 145.307228 154.633464 146.204385 154.477505 
L 146.204385 151.651518 
L 141.05274 151.651518 
L 141.05274 149.134332 
L 154.19469 149.134332 
z
" style="fill:#ffa600;"/>
   </g>
   <g id="patch_4">
    <path clip-path="url(#p434d9cf0f7)" d="M 187.115044 156.133795 
Q 183.960976 156.816897 180.568601 157.160008 
Q 177.176226 157.5 173.559561 157.5 
Q 165.38702 157.5 160.613864 155.466288 
Q 155.840708 153.432576 155.840708 149.954679 
Q 155.840708 146.436232 160.697973 144.418116 
Q 165.562246 142.4 174.022158 142.4 
Q 177.281361 142.4 180.267212 142.674489 
Q 183.260072 142.945858 185.909489 143.482359 
L 185.909489 146.492378 
Q 183.175964 145.803037 180.470474 145.463045 
Q 177.764985 145.119934 175.045477 145.119934 
Q 170.012987 145.119934 167.28647 146.373848 
Q 164.559954 147.624644 164.559954 149.954679 
Q 164.559954 152.26288 167.188344 153.523032 
Q 169.816734 154.780066 174.652971 154.780066 
Q 175.970671 154.780066 177.099126 154.708325 
Q 178.227582 154.633464 179.124739 154.477505 
L 179.124739 151.651518 
L 173.973094 151.651518 
L 173.973094 149.134332 
L 187.115044 149.134332 
z
" style="fill:#ffa600;"/>
   </g>
   <g id="patch_5">
    <path clip-path="url(#p434d9cf0f7)" d="M 220.035398 156.133795 
Q 216.88133 156.816897 213.488955 157.160008 
Q 210.09658 157.5 206.479915 157.5 
Q 198.307374 157.5 193.534218 155.466288 
Q 188.761062 153.432576 188.761062 149.954679 
Q 188.761062 146.436232 193.618327 144.418116 
Q 198.4826 142.4 206.942512 142.4 
Q 210.201715 142.4 213.187566 142.674489 
Q 216.180426 142.945858 218.829843 143.482359 
L 218.829843 146.492378 
Q 216.096318 145.803037 213.390828 145.463045 
Q 210.685339 145.119934 207.965831 145.119934 
Q 202.933341 145.119934 200.206824 146.373848 
Q 197.480308 147.624644 197.480308 149.954679 
Q 197.480308 152.26288 200.108698 153.523032 
Q 202.737088 154.780066 207.573325 154.780066 
Q 208.891025 154.780066 210.01948 154.708325 
Q 211.147936 154.633464 212.045093 154.477505 
L 212.045093 151.651518 
L 206.893448 151.651518 
L 206.893448 149.134332 
L 220.035398 149.134332 
z
" style="fill:#ffa600;"/>
   </g>
   <g id="patch_6">
    <path clip-path="url(#p434d9cf0f7)" d="M 252.955752 156.417641 
Q 250.339708 156.954142 247.510913 157.225511 
Q 244.682118 157.5 241.601175 157.5 
Q 232.413501 157.5 227.047459 155.466288 
Q 221.681416 153.432576 221.681416 149.954679 
Q 221.681416 146.464305 227.047459 144.433712 
Q 232.413501 142.4 241.601175 142.4 
Q 244.682118 142.4 247.510913 142.674489 
Q 250.339708 142.945858 252.955752 143.482359 
L 252.955752 146.492378 
Q 250.316069 145.781202 247.755182 145.450568 
Q 245.194296 145.119934 242.365501 145.119934 
Q 237.291005 145.119934 234.383414 146.408159 
Q 231.483702 147.693266 231.483702 149.954679 
Q 231.483702 152.206734 234.383414 153.49496 
Q 237.291005 154.780066 242.365501 154.780066 
Q 245.194296 154.780066 247.755182 154.449432 
Q 250.316069 154.115679 252.955752 153.404503 
z
" style="fill:#0000ff;"/>
   </g>
   <g id="patch_7">
    <path clip-path="url(#p434d9cf0f7)" d="M 276.26553 154.74925 
L 264.237923 154.74925 
L 262.338827 157.5 
L 254.60177 157.5 
L 265.651055 142.4 
L 274.826821 142.4 
L 285.876106 157.5 
L 278.145443 157.5 
z
M 266.156202 151.946721 
L 274.328069 151.946721 
L 270.248529 145.940377 
z
" style="fill:#008000;"/>
   </g>
   <g id="patch_8">
    <path clip-path="url(#p434d9cf0f7)" d="M 287.522124 142.4 
L 318.79646 142.4 
L 318.79646 145.344921 
L 307.544972 145.344921 
L 307.544972 157.5 
L 298.795431 157.5 
L 298.795431 145.344921 
L 287.522124 145.344921 
z
" style="fill:#ff0000;"/>
   </g>
   <g id="patch_9">
    <path clip-path="url(#p434d9cf0f7)" d="M 351.716814 145.204152 
Q 348.562746 151.352076 345.170371 154.440074 
Q 341.777996 157.5 338.161331 157.5 
Q 329.98879 157.5 325.215634 139.196592 
Q 320.442478 120.893183 320.442478 89.592109 
Q 320.442478 57.92609 325.299743 39.763045 
Q 330.164016 21.6 338.623928 21.6 
Q 341.883131 21.6 344.868982 24.070399 
Q 347.861842 26.512725 350.511259 31.341231 
L 350.511259 58.431398 
Q 347.777734 52.227329 345.072244 49.167403 
Q 342.366755 46.079405 339.647247 46.079405 
Q 334.614757 46.079405 331.88824 57.364635 
Q 329.161724 68.621793 329.161724 89.592109 
Q 329.161724 110.365916 331.790114 121.707292 
Q 334.418504 133.020595 339.254741 133.020595 
Q 340.572441 133.020595 341.700896 132.374923 
Q 342.829351 131.701177 343.726509 130.297542 
L 343.726509 104.863665 
L 338.574864 104.863665 
L 338.574864 82.208986 
L 351.716814 82.208986 
z
" style="fill:#ffa600;"/>
   </g>
   <g id="patch_10">
    <path clip-path="url(#p434d9cf0f7)" d="M 384.637168 154.252923 
Q 382.021124 155.862425 379.192329 156.676534 
Q 376.363534 157.5 373.282591 157.5 
Q 364.094917 157.5 358.728874 151.398864 
Q 353.362832 145.297728 353.362832 134.864036 
Q 353.362832 124.392915 358.728874 118.301136 
Q 364.094917 112.2 373.282591 112.2 
Q 376.363534 112.2 379.192329 113.023466 
Q 382.021124 113.837575 384.637168 115.447077 
L 384.637168 124.477133 
Q 381.997485 122.343607 379.436598 121.351704 
Q 376.875712 120.359802 374.046917 120.359802 
Q 368.972421 120.359802 366.06483 124.224478 
Q 363.165118 128.079798 363.165118 134.864036 
Q 363.165118 141.620202 366.06483 145.484879 
Q 368.972421 149.340198 374.046917 149.340198 
Q 376.875712 149.340198 379.436598 148.348296 
Q 381.997485 147.347036 384.637168 145.21351 
z
" style="fill:#0000ff;"/>
   </g>
   <g id="patch_11">
    <path clip-path="url(#p434d9cf0f7)" d="M 353.362832 21.6 
L 384.637168 21.6 
L 384.637168 39.269524 
L 373.38568 39.269524 
L 373.38568 112.2 
L 364.636139 112.2 
L 364.636139 39.269524 
L 353.362832 39.269524 
z
" style="fill:#ff0000;"/>
   </g>
   <g id="patch_12">
    <path clip-path="url(#p434d9cf0f7)" d="M 417.557522 156.417641 
Q 414.941478 156.954142 412.112683 157.225511 
Q 409.283888 157.5 406.202945 157.5 
Q 397.015271 157.5 391.649228 155.466288 
Q 386.283186 153.432576 386.283186 149.954679 
Q 386.283186 146.464305 391.649228 144.433712 
Q 397.015271 142.4 406.202945 142.4 
Q 409.283888 142.4 412.112683 142.674489 
Q 414.941478 142.945858 417.557522 143.482359 
L 417.557522 146.492378 
Q 414.917839 145.781202 412.356952 145.450568 
Q 409.796066 145.119934 406.967271 145.119934 
Q 401.892775 145.119934 398.985184 146.408159 
Q 396.085472 147.693266 396.085472 149.954679 
Q 396.085472 152.206734 398.985184 153.49496 
Q 401.892775 154.780066 406.967271 154.780066 
Q 409.796066 154.780066 412.356952 154.449432 
Q 414.917839 154.115679 417.557522 153.404503 
z
" style="fill:#0000ff;"/>
   </g>
   <g id="patch_13">
    <path clip-path="url(#p434d9cf0f7)" d="M 386.283186 127.3 
L 417.557522 127.3 
L 417.557522 130.244921 
L 406.306034 130.244921 
L 406.306034 142.4 
L 397.556493 142.4 
L 397.556493 130.244921 
L 386.283186 130.244921 
z
" style="fill:#ff0000;"/>
   </g>
   <g id="patch_14">
    <path clip-path="url(#p434d9cf0f7)" d="M 417.557522 123.201384 
Q 414.403454 125.250692 411.011079 126.280025 
Q 407.618703 127.3 404.002039 127.3 
Q 395.829498 127.3 391.056342 121.198864 
Q 386.283186 115.097728 386.283186 104.664036 
Q 386.283186 94.108697 391.140451 88.054348 
Q 396.004724 82 404.464635 82 
Q 407.723839 82 410.70969 82.823466 
Q 413.70255 83.637575 416.351967 85.247077 
L 416.351967 94.277133 
Q 413.618442 92.20911 410.912952 91.189134 
Q 408.207463 90.159802 405.487955 90.159802 
Q 400.455465 90.159802 397.728948 93.921545 
Q 395.002432 97.673931 395.002432 104.664036 
Q 395.002432 111.588639 397.630822 115.369097 
Q 400.259212 119.140198 405.095449 119.140198 
Q 406.413149 119.140198 407.541604 118.924974 
Q 408.670059 118.700392 409.567217 118.232514 
L 409.567217 109.754555 
L 404.415572 109.754555 
L 404.415572 102.202995 
L 417.557522 102.202995 
z
" style="fill:#ffa600;"/>
   </g>
   <g id="patch_15">
    <path clip-path="url(#p434d9cf0f7)" d="M 407.946946 70.997 
L 395.919339 70.997 
L 394.020243 82 
L 386.283186 82 
L 397.332471 21.6 
L 406.508237 21.6 
L 417.557522 82 
L 409.826859 82 
z
M 397.837618 59.786884 
L 406.009485 59.786884 
L 401.929945 35.761509 
z
" style="fill:#008000;"/>
   </g>
   <g id="patch_16">
    <path clip-path="url(#p434d9cf0f7)" d="M 440.8673 154.74925 
L 428.839693 154.74925 
L 426.940597 157.5 
L 419.20354 157.5 
L 430.252825 142.4 
L 439.428591 142.4 
L 450.477876 157.5 
L 442.747213 157.5 
z
M 430.757972 151.946721 
L 438.929839 151.946721 
L 434.850299 145.940377 
z
" style="fill:#008000;"/>
   </g>
   <g id="patch_17">
    <path clip-path="url(#p434d9cf0f7)" d="M 450.477876 141.033795 
Q 447.323808 141.716897 443.931433 142.060008 
Q 440.539057 142.4 436.922393 142.4 
Q 428.749852 142.4 423.976696 140.366288 
Q 419.20354 138.332576 419.20354 134.854679 
Q 419.20354 131.336232 424.060805 129.318116 
Q 428.925078 127.3 437.384989 127.3 
Q 440.644193 127.3 443.630044 127.574489 
Q 446.622904 127.845858 449.272321 128.382359 
L 449.272321 131.392378 
Q 446.538796 130.703037 443.833306 130.363045 
Q 441.127817 130.019934 438.408309 130.019934 
Q 433.375819 130.019934 430.649302 131.273848 
Q 427.922786 132.524644 427.922786 134.854679 
Q 427.922786 137.16288 430.551176 138.423032 
Q 433.179565 139.680066 438.015803 139.680066 
Q 439.333503 139.680066 440.461958 139.608325 
Q 441.590413 139.533464 442.487571 139.377505 
L 442.487571 136.551518 
L 437.335926 136.551518 
L 437.335926 134.034332 
L 450.477876 134.034332 
z
" style="fill:#ffa600;"/>
   </g>
   <g id="patch_18">
    <path clip-path="url(#p434d9cf0f7)" d="M 419.20354 112.2 
L 450.477876 112.2 
L 450.477876 115.144921 
L 439.226388 115.144921 
L 439.226388 127.3 
L 430.476847 127.3 
L 430.476847 115.144921 
L 419.20354 115.144921 
z
" style="fill:#ff0000;"/>
   </g>
   <g id="patch_19">
    <path clip-path="url(#p434d9cf0f7)" d="M 450.477876 105.705846 
Q 447.861832 108.92485 445.033037 110.553068 
Q 442.204242 112.2 439.123298 112.2 
Q 429.935625 112.2 424.569582 99.997728 
Q 419.20354 87.795455 419.20354 66.928073 
Q 419.20354 45.985829 424.569582 33.802272 
Q 429.935625 21.6 439.123298 21.6 
Q 442.204242 21.6 445.033037 23.246932 
Q 447.861832 24.87515 450.477876 28.094154 
L 450.477876 46.154266 
Q 447.838193 41.887213 445.277306 39.903408 
Q 442.71642 37.919603 439.887625 37.919603 
Q 434.813129 37.919603 431.905538 45.648957 
Q 429.005826 53.359595 429.005826 66.928073 
Q 429.005826 80.440405 431.905538 88.169758 
Q 434.813129 95.880397 439.887625 95.880397 
Q 442.71642 95.880397 445.277306 93.896592 
Q 447.838193 91.894071 450.477876 87.627019 
z
" style="fill:#0000ff;"/>
   </g>
   <g id="patch_20">
    <path clip-path="url(#p434d9cf0f7)" d="M 473.787654 132.743249 
L 461.760047 132.743249 
L 459.860951 157.5 
L 452.123894 157.5 
L 463.173179 21.6 
L 472.348945 21.6 
L 483.39823 157.5 
L 475.667567 157.5 
z
M 463.678326 107.520489 
L 471.850193 107.520489 
L 467.770653 53.463395 
z
" style="fill:#008000;"/>
   </g>
   <g id="patch_21">
    <path clip-path="url(#p434d9cf0f7)" d="M 485.044248 21.6 
L 516.318584 21.6 
L 516.318584 48.104286 
L 505.067096 48.104286 
L 505.067096 157.5 
L 496.317555 157.5 
L 496.317555 48.104286 
L 485.044248 48.104286 
z
" style="fill:#ff0000;"/>
   </g>
   <g id="patch_22">
    <path clip-path="url(#p434d9cf0f7)" d="M 549.238938 145.204152 
Q 546.08487 151.352076 542.692495 154.440074 
Q 539.300119 157.5 535.683455 157.5 
Q 527.510914 157.5 522.737758 139.196592 
Q 517.964602 120.893183 517.964602 89.592109 
Q 517.964602 57.92609 522.821866 39.763045 
Q 527.68614 21.6 536.146051 21.6 
Q 539.405255 21.6 542.391106 24.070399 
Q 545.383966 26.512725 548.033383 31.341231 
L 548.033383 58.431398 
Q 545.299858 52.227329 542.594368 49.167403 
Q 539.888879 46.079405 537.169371 46.079405 
Q 532.136881 46.079405 529.410364 57.364635 
Q 526.683847 68.621793 526.683847 89.592109 
Q 526.683847 110.365916 529.312237 121.707292 
Q 531.940627 133.020595 536.776865 133.020595 
Q 538.094565 133.020595 539.22302 132.374923 
Q 540.351475 131.701177 541.248633 130.297542 
L 541.248633 104.863665 
L 536.096988 104.863665 
L 536.096988 82.208986 
L 549.238938 82.208986 
z
" style="fill:#ffa600;"/>
   </g>
   <g id="patch_23">
    <path clip-path="url(#p434d9cf0f7)" d="M 582.159292 154.767589 
Q 579.005224 156.133795 575.612849 156.820017 
Q 572.220473 157.5 568.603809 157.5 
Q 560.431268 157.5 555.658112 153.432576 
Q 550.884956 149.365152 550.884956 142.409358 
Q 550.884956 135.372464 555.74222 131.336232 
Q 560.606494 127.3 569.066405 127.3 
Q 572.325609 127.3 575.31146 127.848977 
Q 578.30432 128.391717 580.953737 129.464718 
L 580.953737 135.484755 
Q 578.220212 134.106073 575.514722 133.42609 
Q 572.809233 132.739868 570.089725 132.739868 
Q 565.057235 132.739868 562.330718 135.247697 
Q 559.604201 137.749287 559.604201 142.409358 
Q 559.604201 147.025759 562.232591 149.546065 
Q 564.860981 152.060132 569.697219 152.060132 
Q 571.014919 152.060132 572.143374 151.916649 
Q 573.271829 151.766928 574.168986 151.455009 
L 574.168986 145.803037 
L 569.017342 145.803037 
L 569.017342 140.768663 
L 582.159292 140.768663 
z
" style="fill:#ffa600;"/>
   </g>
   <g id="patch_24">
    <path clip-path="url(#p434d9cf0f7)" d="M 572.548716 108.044749 
L 560.521109 108.044749 
L 558.622013 127.3 
L 550.884956 127.3 
L 561.934241 21.6 
L 571.110007 21.6 
L 582.159292 127.3 
L 574.428629 127.3 
z
M 562.439387 88.427047 
L 570.611255 88.427047 
L 566.531715 46.38264 
z
" style="fill:#008000;"/>
   </g>
   <g id="patch_25">
    <path clip-path="url(#p434d9cf0f7)" d="M 615.079646 155.335282 
Q 612.463602 156.408283 609.634807 156.951023 
Q 606.806012 157.5 603.725068 157.5 
Q 594.537395 157.5 589.171352 153.432576 
Q 583.80531 149.365152 583.80531 142.409358 
Q 583.80531 135.42861 589.171352 131.367424 
Q 594.537395 127.3 603.725068 127.3 
Q 606.806012 127.3 609.634807 127.848977 
Q 612.463602 128.391717 615.079646 129.464718 
L 615.079646 135.484755 
Q 612.439963 134.062404 609.879076 133.401136 
Q 607.318189 132.739868 604.489395 132.739868 
Q 599.414899 132.739868 596.507308 135.316319 
Q 593.607596 137.886532 593.607596 142.409358 
Q 593.607596 146.913468 596.507308 149.489919 
Q 599.414899 152.060132 604.489395 152.060132 
Q 607.318189 152.060132 609.879076 151.398864 
Q 612.439963 150.731357 615.079646 149.309006 
z
" style="fill:#0000ff;"/>
   </g>
   <g id="patch_26">
    <path clip-path="url(#p434d9cf0f7)" d="M 605.46907 119.04775 
L 593.441463 119.04775 
L 591.542367 127.3 
L 583.80531 127.3 
L 594.854595 82 
L 604.030361 82 
L 615.079646 127.3 
L 607.348983 127.3 
z
M 595.359741 110.640163 
L 603.531609 110.640163 
L 599.452069 92.621132 
z
" style="fill:#008000;"/>
   </g>
   <g id="patch_27">
    <path clip-path="url(#p434d9cf0f7)" d="M 583.80531 21.6 
L 615.079646 21.6 
L 615.079646 33.379683 
L 603.828158 33.379683 
L 603.828158 82 
L 595.078617 82 
L 595.078617 33.379683 
L 583.80531 33.379683 
z
" style="fill:#ff0000;"/>
   </g>
   <g id="patch_28">
    <path clip-path="url(#p434d9cf0f7)" d="M 648 156.133795 
Q 644.845932 156.816897 641.453557 157.160008 
Q 638.061181 157.5 634.444517 157.5 
Q 626.271976 157.5 621.49882 155.466288 
Q 616.725664 153.432576 616.725664 149.954679 
Q 616.725664 146.436232 621.582928 144.418116 
Q 626.447202 142.4 634.907113 142.4 
Q 638.166317 142.4 641.152168 142.674489 
Q 644.145028 142.945858 646.794445 143.482359 
L 646.794445 146.492378 
Q 644.06092 145.803037 641.35543 145.463045 
Q 638.649941 145.119934 635.930433 145.119934 
Q 630.897943 145.119934 628.171426 146.373848 
Q 625.444909 147.624644 625.444909 149.954679 
Q 625.444909 152.26288 628.073299 153.523032 
Q 630.701689 154.780066 635.537927 154.780066 
Q 636.855626 154.780066 637.984082 154.708325 
Q 639.112537 154.633464 640.009694 154.477505 
L 640.009694 151.651518 
L 634.85805 151.651518 
L 634.85805 149.134332 
L 648 149.134332 
z
" style="fill:#ffa600;"/>
   </g>
   <g id="patch_29">
    <path clip-path="url(#p434d9cf0f7)" d="M 616.725664 97.1 
L 648 97.1 
L 648 105.934762 
L 636.748512 105.934762 
L 636.748512 142.4 
L 627.998971 142.4 
L 627.998971 105.934762 
L 616.725664 105.934762 
z
" style="fill:#ff0000;"/>
   </g>
   <g id="patch_30">
    <path clip-path="url(#p434d9cf0f7)" d="M 648 91.688205 
Q 645.383956 94.370709 642.555161 95.727556 
Q 639.726366 97.1 636.645422 97.1 
Q 627.457749 97.1 622.091706 86.93144 
Q 616.725664 76.76288 616.725664 59.373394 
Q 616.725664 41.921524 622.091706 31.76856 
Q 627.457749 21.6 636.645422 21.6 
Q 639.726366 21.6 642.555161 22.972444 
Q 645.383956 24.329291 648 27.011795 
L 648 42.061888 
Q 645.360317 38.506011 642.79943 36.85284 
Q 640.238543 35.199669 637.409749 35.199669 
Q 632.335253 35.199669 629.427662 41.640797 
Q 626.52795 48.066329 626.52795 59.373394 
Q 626.52795 70.633671 629.427662 77.074799 
Q 632.335253 83.500331 637.409749 83.500331 
Q 640.238543 83.500331 642.79943 81.84716 
Q 645.360317 80.178393 648 76.622516 
z
" style="fill:#0000ff;"/>
   </g>
  </g>
 </g>
 <defs>
  <clipPath id="p434d9cf0f7">
   <rect height="135.9" width="558" x="90" y="21.6"/>
  </clipPath>
 </defs>
</svg>
