<?xml version="1.0" encoding="utf-8" standalone="no"?>
<!DOCTYPE svg PUBLIC "-//W3C//DTD SVG 1.1//EN"
  "http://www.w3.org/Graphics/SVG/1.1/DTD/svg11.dtd">
<!-- Created with matplotlib (https://matplotlib.org/) -->
<svg height="180pt" version="1.1" viewBox="0 0 720 180" width="720pt" xmlns="http://www.w3.org/2000/svg" xmlns:xlink="http://www.w3.org/1999/xlink">
 <metadata>
  <rdf:RDF xmlns:cc="http://creativecommons.org/ns#" xmlns:dc="http://purl.org/dc/elements/1.1/" xmlns:rdf="http://www.w3.org/1999/02/22-rdf-syntax-ns#">
   <cc:Work>
    <dc:type rdf:resource="http://purl.org/dc/dcmitype/StillImage"/>
    <dc:date>2021-08-04T23:33:19.592319</dc:date>
    <dc:format>image/svg+xml</dc:format>
    <dc:creator>
     <cc:Agent>
      <dc:title>Matplotlib v3.3.2, https://matplotlib.org/</dc:title>
     </cc:Agent>
    </dc:creator>
   </cc:Work>
  </rdf:RDF>
 </metadata>
 <defs>
  <style type="text/css">*{stroke-linecap:butt;stroke-linejoin:round;}</style>
 </defs>
 <g id="figure_1">
  <g id="patch_1">
   <path d="M 0 180 
L 720 180 
L 720 0 
L 0 0 
z
" style="fill:none;"/>
  </g>
  <g id="axes_1">
   <g id="line2d_1">
    <path clip-path="url(#p883dcd9b7b)" d="M 90 157.5 
L 648 157.5 
" style="fill:none;stroke:#000000;stroke-linecap:square;stroke-width:0.5;"/>
   </g>
   <g id="patch_2">
    <path clip-path="url(#p883dcd9b7b)" d="M 121.274336 154.252923 
Q 118.658292 155.862425 115.829497 156.676534 
Q 113.000702 157.5 109.919759 157.5 
Q 100.732085 157.5 95.366043 151.398864 
Q 90 145.297728 90 134.864036 
Q 90 124.392915 95.366043 118.301136 
Q 100.732085 112.2 109.919759 112.2 
Q 113.000702 112.2 115.829497 113.023466 
Q 118.658292 113.837575 121.274336 115.447077 
L 121.274336 124.477133 
Q 118.634653 122.343607 116.073766 121.351704 
Q 113.51288 120.359802 110.684085 120.359802 
Q 105.609589 120.359802 102.701998 124.224478 
Q 99.802286 128.079798 99.802286 134.864036 
Q 99.802286 141.620202 102.701998 145.484879 
Q 105.609589 149.340198 110.684085 149.340198 
Q 113.51288 149.340198 116.073766 148.348296 
Q 118.634653 147.347036 121.274336 145.21351 
z
" style="fill:#0000ff;"/>
   </g>
   <g id="patch_3">
    <path clip-path="url(#p883dcd9b7b)" d="M 121.274336 108.101384 
Q 118.120268 110.150692 114.727893 111.180025 
Q 111.335518 112.2 107.718853 112.2 
Q 99.546312 112.2 94.773156 106.098864 
Q 90 99.997728 90 89.564036 
Q 90 79.008697 94.857265 72.954348 
Q 99.721538 66.9 108.18145 66.9 
Q 111.440653 66.9 114.426504 67.723466 
Q 117.419364 68.537575 120.068781 70.147077 
L 120.068781 79.177133 
Q 117.335256 77.10911 114.629766 76.089134 
Q 111.924277 75.059802 109.204769 75.059802 
Q 104.172279 75.059802 101.445762 78.821545 
Q 98.719246 82.573931 98.719246 89.564036 
Q 98.719246 96.488639 101.347636 100.269097 
Q 103.976026 104.040198 108.812263 104.040198 
Q 110.129963 104.040198 111.258418 103.824974 
Q 112.386874 103.600392 113.284031 103.132514 
L 113.284031 94.654555 
L 108.132386 94.654555 
L 108.132386 87.102995 
L 121.274336 87.102995 
z
" style="fill:#ffa600;"/>
   </g>
   <g id="patch_4">
    <path clip-path="url(#p883dcd9b7b)" d="M 90 21.6 
L 121.274336 21.6 
L 121.274336 30.434762 
L 110.022848 30.434762 
L 110.022848 66.9 
L 101.273307 66.9 
L 101.273307 30.434762 
L 90 30.434762 
z
" style="fill:#ff0000;"/>
   </g>
   <g id="patch_5">
    <path clip-path="url(#p883dcd9b7b)" d="M 154.19469 156.417641 
Q 151.578646 156.954142 148.749851 157.225511 
Q 145.921056 157.5 142.840113 157.5 
Q 133.652439 157.5 128.286397 155.466288 
Q 122.920354 153.432576 122.920354 149.954679 
Q 122.920354 146.464305 128.286397 144.433712 
Q 133.652439 142.4 142.840113 142.4 
Q 145.921056 142.4 148.749851 142.674489 
Q 151.578646 142.945858 154.19469 143.482359 
L 154.19469 146.492378 
Q 151.555007 145.781202 148.99412 145.450568 
Q 146.433234 145.119934 143.604439 145.119934 
Q 138.529943 145.119934 135.622352 146.408159 
Q 132.72264 147.693266 132.72264 149.954679 
Q 132.72264 152.206734 135.622352 153.49496 
Q 138.529943 154.780066 143.604439 154.780066 
Q 146.433234 154.780066 148.99412 154.449432 
Q 151.555007 154.115679 154.19469 153.404503 
z
" style="fill:#0000ff;"/>
   </g>
   <g id="patch_6">
    <path clip-path="url(#p883dcd9b7b)" d="M 144.584114 136.8985 
L 132.556507 136.8985 
L 130.657411 142.4 
L 122.920354 142.4 
L 133.969639 112.2 
L 143.145405 112.2 
L 154.19469 142.4 
L 146.464027 142.4 
z
M 134.474786 131.293442 
L 142.646653 131.293442 
L 138.567114 119.280754 
z
" style="fill:#008000;"/>
   </g>
   <g id="patch_7">
    <path clip-path="url(#p883dcd9b7b)" d="M 154.19469 108.101384 
Q 151.040622 110.150692 147.648247 111.180025 
Q 144.255872 112.2 140.639207 112.2 
Q 132.466666 112.2 127.69351 106.098864 
Q 122.920354 99.997728 122.920354 89.564036 
Q 122.920354 79.008697 127.777619 72.954348 
Q 132.641892 66.9 141.101804 66.9 
Q 144.361007 66.9 147.346858 67.723466 
Q 150.339718 68.537575 152.989135 70.147077 
L 152.989135 79.177133 
Q 150.25561 77.10911 147.55012 76.089134 
Q 144.844631 75.059802 142.125123 75.059802 
Q 137.092633 75.059802 134.366116 78.821545 
Q 131.6396 82.573931 131.6396 89.564036 
Q 131.6396 96.488639 134.26799 100.269097 
Q 136.89638 104.040198 141.732617 104.040198 
Q 143.050317 104.040198 144.178772 103.824974 
Q 145.307228 103.600392 146.204385 103.132514 
L 146.204385 94.654555 
L 141.05274 94.654555 
L 141.05274 87.102995 
L 154.19469 87.102995 
z
" style="fill:#ffa600;"/>
   </g>
   <g id="patch_8">
    <path clip-path="url(#p883dcd9b7b)" d="M 122.920354 21.6 
L 154.19469 21.6 
L 154.19469 30.434762 
L 142.943202 30.434762 
L 142.943202 66.9 
L 134.193661 66.9 
L 134.193661 30.434762 
L 122.920354 30.434762 
z
" style="fill:#ff0000;"/>
   </g>
   <g id="patch_9">
    <path clip-path="url(#p883dcd9b7b)" d="M 187.115044 156.133795 
Q 183.960976 156.816897 180.568601 157.160008 
Q 177.176226 157.5 173.559561 157.5 
Q 165.38702 157.5 160.613864 155.466288 
Q 155.840708 153.432576 155.840708 149.954679 
Q 155.840708 146.436232 160.697973 144.418116 
Q 165.562246 142.4 174.022158 142.4 
Q 177.281361 142.4 180.267212 142.674489 
Q 183.260072 142.945858 185.909489 143.482359 
L 185.909489 146.492378 
Q 183.175964 145.803037 180.470474 145.463045 
Q 177.764985 145.119934 175.045477 145.119934 
Q 170.012987 145.119934 167.28647 146.373848 
Q 164.559954 147.624644 164.559954 149.954679 
Q 164.559954 152.26288 167.188344 153.523032 
Q 169.816734 154.780066 174.652971 154.780066 
Q 175.970671 154.780066 177.099126 154.708325 
Q 178.227582 154.633464 179.124739 154.477505 
L 179.124739 151.651518 
L 173.973094 151.651518 
L 173.973094 149.134332 
L 187.115044 149.134332 
z
" style="fill:#ffa600;"/>
   </g>
   <g id="patch_10">
    <path clip-path="url(#p883dcd9b7b)" d="M 187.115044 138.070564 
Q 184.499 140.216567 181.670205 141.302045 
Q 178.84141 142.4 175.760467 142.4 
Q 166.572793 142.4 161.206751 134.265152 
Q 155.840708 126.130304 155.840708 112.218715 
Q 155.840708 98.25722 161.206751 90.134848 
Q 166.572793 82 175.760467 82 
Q 178.84141 82 181.670205 83.097955 
Q 184.499 84.183433 187.115044 86.329436 
L 187.115044 98.36951 
Q 184.475361 95.524809 181.914474 94.202272 
Q 179.353588 92.879736 176.524793 92.879736 
Q 171.450297 92.879736 168.542706 98.032638 
Q 165.642994 103.173063 165.642994 112.218715 
Q 165.642994 121.226937 168.542706 126.379839 
Q 171.450297 131.520264 176.524793 131.520264 
Q 179.353588 131.520264 181.914474 130.197728 
Q 184.475361 128.862714 187.115044 126.018013 
z
" style="fill:#0000ff;"/>
   </g>
   <g id="patch_11">
    <path clip-path="url(#p883dcd9b7b)" d="M 155.840708 21.6 
L 187.115044 21.6 
L 187.115044 33.379683 
L 175.863556 33.379683 
L 175.863556 82 
L 167.114015 82 
L 167.114015 33.379683 
L 155.840708 33.379683 
z
" style="fill:#ff0000;"/>
   </g>
   <g id="patch_12">
    <path clip-path="url(#p883dcd9b7b)" d="M 220.035398 154.252923 
Q 217.419354 155.862425 214.590559 156.676534 
Q 211.761764 157.5 208.680821 157.5 
Q 199.493147 157.5 194.127105 151.398864 
Q 188.761062 145.297728 188.761062 134.864036 
Q 188.761062 124.392915 194.127105 118.301136 
Q 199.493147 112.2 208.680821 112.2 
Q 211.761764 112.2 214.590559 113.023466 
Q 217.419354 113.837575 220.035398 115.447077 
L 220.035398 124.477133 
Q 217.395715 122.343607 214.834828 121.351704 
Q 212.273942 120.359802 209.445147 120.359802 
Q 204.370651 120.359802 201.46306 124.224478 
Q 198.563348 128.079798 198.563348 134.864036 
Q 198.563348 141.620202 201.46306 145.484879 
Q 204.370651 149.340198 209.445147 149.340198 
Q 212.273942 149.340198 214.834828 148.348296 
Q 217.395715 147.347036 220.035398 145.21351 
z
" style="fill:#0000ff;"/>
   </g>
   <g id="patch_13">
    <path clip-path="url(#p883dcd9b7b)" d="M 220.035398 108.101384 
Q 216.88133 110.150692 213.488955 111.180025 
Q 210.09658 112.2 206.479915 112.2 
Q 198.307374 112.2 193.534218 106.098864 
Q 188.761062 99.997728 188.761062 89.564036 
Q 188.761062 79.008697 193.618327 72.954348 
Q 198.4826 66.9 206.942512 66.9 
Q 210.201715 66.9 213.187566 67.723466 
Q 216.180426 68.537575 218.829843 70.147077 
L 218.829843 79.177133 
Q 216.096318 77.10911 213.390828 76.089134 
Q 210.685339 75.059802 207.965831 75.059802 
Q 202.933341 75.059802 200.206824 78.821545 
Q 197.480308 82.573931 197.480308 89.564036 
Q 197.480308 96.488639 200.108698 100.269097 
Q 202.737088 104.040198 207.573325 104.040198 
Q 208.891025 104.040198 210.01948 103.824974 
Q 211.147936 103.600392 212.045093 103.132514 
L 212.045093 94.654555 
L 206.893448 94.654555 
L 206.893448 87.102995 
L 220.035398 87.102995 
z
" style="fill:#ffa600;"/>
   </g>
   <g id="patch_14">
    <path clip-path="url(#p883dcd9b7b)" d="M 188.761062 21.6 
L 220.035398 21.6 
L 220.035398 30.434762 
L 208.78391 30.434762 
L 208.78391 66.9 
L 200.034369 66.9 
L 200.034369 30.434762 
L 188.761062 30.434762 
z
" style="fill:#ff0000;"/>
   </g>
   <g id="patch_15">
    <path clip-path="url(#p883dcd9b7b)" d="M 221.681416 97.1 
L 252.955752 97.1 
L 252.955752 108.879683 
L 241.704264 108.879683 
L 241.704264 157.5 
L 232.954723 157.5 
L 232.954723 108.879683 
L 221.681416 108.879683 
z
" style="fill:#ff0000;"/>
   </g>
   <g id="patch_16">
    <path clip-path="url(#p883dcd9b7b)" d="M 243.345176 83.346249 
L 231.317569 83.346249 
L 229.418473 97.1 
L 221.681416 97.1 
L 232.730701 21.6 
L 241.906467 21.6 
L 252.955752 97.1 
L 245.225089 97.1 
z
M 233.235848 69.333605 
L 241.407715 69.333605 
L 237.328175 39.301886 
z
" style="fill:#008000;"/>
   </g>
   <g id="patch_17">
    <path clip-path="url(#p883dcd9b7b)" d="M 276.26553 151.9985 
L 264.237923 151.9985 
L 262.338827 157.5 
L 254.60177 157.5 
L 265.651055 127.3 
L 274.826821 127.3 
L 285.876106 157.5 
L 278.145443 157.5 
z
M 266.156202 146.393442 
L 274.328069 146.393442 
L 270.248529 134.380754 
z
" style="fill:#008000;"/>
   </g>
   <g id="patch_18">
    <path clip-path="url(#p883dcd9b7b)" d="M 285.876106 124.567589 
Q 282.722038 125.933795 279.329663 126.620017 
Q 275.937288 127.3 272.320623 127.3 
Q 264.148082 127.3 259.374926 123.232576 
Q 254.60177 119.165152 254.60177 112.209358 
Q 254.60177 105.172464 259.459035 101.136232 
Q 264.323308 97.1 272.78322 97.1 
Q 276.042423 97.1 279.028274 97.648977 
Q 282.021134 98.191717 284.670551 99.264718 
L 284.670551 105.284755 
Q 281.937026 103.906073 279.231536 103.22609 
Q 276.526047 102.539868 273.806539 102.539868 
Q 268.774049 102.539868 266.047532 105.047697 
Q 263.321016 107.549287 263.321016 112.209358 
Q 263.321016 116.825759 265.949406 119.346065 
Q 268.577796 121.860132 273.414033 121.860132 
Q 274.731733 121.860132 275.860188 121.716649 
Q 276.988644 121.566928 277.885801 121.255009 
L 277.885801 115.603037 
L 272.734156 115.603037 
L 272.734156 110.568663 
L 285.876106 110.568663 
z
" style="fill:#ffa600;"/>
   </g>
   <g id="patch_19">
    <path clip-path="url(#p883dcd9b7b)" d="M 285.876106 91.688205 
Q 283.260062 94.370709 280.431267 95.727556 
Q 277.602472 97.1 274.521529 97.1 
Q 265.333855 97.1 259.967812 86.93144 
Q 254.60177 76.76288 254.60177 59.373394 
Q 254.60177 41.921524 259.967812 31.76856 
Q 265.333855 21.6 274.521529 21.6 
Q 277.602472 21.6 280.431267 22.972444 
Q 283.260062 24.329291 285.876106 27.011795 
L 285.876106 42.061888 
Q 283.236423 38.506011 280.675536 36.85284 
Q 278.11465 35.199669 275.285855 35.199669 
Q 270.211359 35.199669 267.303768 41.640797 
Q 264.404056 48.066329 264.404056 59.373394 
Q 264.404056 70.633671 267.303768 77.074799 
Q 270.211359 83.500331 275.285855 83.500331 
Q 278.11465 83.500331 280.675536 81.84716 
Q 283.236423 80.178393 285.876106 76.622516 
z
" style="fill:#0000ff;"/>
   </g>
   <g id="patch_20">
    <path clip-path="url(#p883dcd9b7b)" d="M 309.185884 154.74925 
L 297.158277 154.74925 
L 295.259181 157.5 
L 287.522124 157.5 
L 298.571409 142.4 
L 307.747175 142.4 
L 318.79646 157.5 
L 311.065797 157.5 
z
M 299.076556 151.946721 
L 307.248423 151.946721 
L 303.168883 145.940377 
z
" style="fill:#008000;"/>
   </g>
   <g id="patch_21">
    <path clip-path="url(#p883dcd9b7b)" d="M 318.79646 141.033795 
Q 315.642392 141.716897 312.250017 142.060008 
Q 308.857642 142.4 305.240977 142.4 
Q 297.068436 142.4 292.29528 140.366288 
Q 287.522124 138.332576 287.522124 134.854679 
Q 287.522124 131.336232 292.379389 129.318116 
Q 297.243662 127.3 305.703574 127.3 
Q 308.962777 127.3 311.948628 127.574489 
Q 314.941488 127.845858 317.590905 128.382359 
L 317.590905 131.392378 
Q 314.85738 130.703037 312.15189 130.363045 
Q 309.446401 130.019934 306.726893 130.019934 
Q 301.694403 130.019934 298.967886 131.273848 
Q 296.24137 132.524644 296.24137 134.854679 
Q 296.24137 137.16288 298.86976 138.423032 
Q 301.49815 139.680066 306.334387 139.680066 
Q 307.652087 139.680066 308.780542 139.608325 
Q 309.908998 139.533464 310.806155 139.377505 
L 310.806155 136.551518 
L 305.65451 136.551518 
L 305.65451 134.034332 
L 318.79646 134.034332 
z
" style="fill:#ffa600;"/>
   </g>
   <g id="patch_22">
    <path clip-path="url(#p883dcd9b7b)" d="M 318.79646 119.723487 
Q 316.180416 123.478992 313.351621 125.378579 
Q 310.522826 127.3 307.441883 127.3 
Q 298.254209 127.3 292.888166 113.064016 
Q 287.522124 98.828031 287.522124 74.482751 
Q 287.522124 50.050134 292.888166 35.835984 
Q 298.254209 21.6 307.441883 21.6 
Q 310.522826 21.6 313.351621 23.521421 
Q 316.180416 25.421008 318.79646 29.176513 
L 318.79646 50.246643 
Q 316.156777 45.268416 313.59589 42.953976 
Q 311.035004 40.639537 308.206209 40.639537 
Q 303.131713 40.639537 300.224122 49.657116 
Q 297.32441 58.652861 297.32441 74.482751 
Q 297.32441 90.247139 300.224122 99.264718 
Q 303.131713 108.260463 308.206209 108.260463 
Q 311.035004 108.260463 313.59589 105.946024 
Q 316.156777 103.60975 318.79646 98.631522 
z
" style="fill:#0000ff;"/>
   </g>
   <g id="patch_23">
    <path clip-path="url(#p883dcd9b7b)" d="M 351.716814 156.417641 
Q 349.10077 156.954142 346.271975 157.225511 
Q 343.44318 157.5 340.362237 157.5 
Q 331.174563 157.5 325.80852 155.466288 
Q 320.442478 153.432576 320.442478 149.954679 
Q 320.442478 146.464305 325.80852 144.433712 
Q 331.174563 142.4 340.362237 142.4 
Q 343.44318 142.4 346.271975 142.674489 
Q 349.10077 142.945858 351.716814 143.482359 
L 351.716814 146.492378 
Q 349.077131 145.781202 346.516244 145.450568 
Q 343.955358 145.119934 341.126563 145.119934 
Q 336.052067 145.119934 333.144476 146.408159 
Q 330.244764 147.693266 330.244764 149.954679 
Q 330.244764 152.206734 333.144476 153.49496 
Q 336.052067 154.780066 341.126563 154.780066 
Q 343.955358 154.780066 346.516244 154.449432 
Q 349.077131 154.115679 351.716814 153.404503 
z
" style="fill:#0000ff;"/>
   </g>
   <g id="patch_24">
    <path clip-path="url(#p883dcd9b7b)" d="M 342.106238 136.8985 
L 330.078631 136.8985 
L 328.179535 142.4 
L 320.442478 142.4 
L 331.491763 112.2 
L 340.667529 112.2 
L 351.716814 142.4 
L 343.986151 142.4 
z
M 331.99691 131.293442 
L 340.168777 131.293442 
L 336.089237 119.280754 
z
" style="fill:#008000;"/>
   </g>
   <g id="patch_25">
    <path clip-path="url(#p883dcd9b7b)" d="M 351.716814 104.002768 
Q 348.562746 108.101384 345.170371 110.16005 
Q 341.777996 112.2 338.161331 112.2 
Q 329.98879 112.2 325.215634 99.997728 
Q 320.442478 87.795455 320.442478 66.928073 
Q 320.442478 45.817393 325.299743 33.708697 
Q 330.164016 21.6 338.623928 21.6 
Q 341.883131 21.6 344.868982 23.246932 
Q 347.861842 24.87515 350.511259 28.094154 
L 350.511259 46.154266 
Q 347.777734 42.018219 345.072244 39.978269 
Q 342.366755 37.919603 339.647247 37.919603 
Q 334.614757 37.919603 331.88824 45.44309 
Q 329.161724 52.947862 329.161724 66.928073 
Q 329.161724 80.777277 331.790114 88.338195 
Q 334.418504 95.880397 339.254741 95.880397 
Q 340.572441 95.880397 341.700896 95.449948 
Q 342.829351 95.000785 343.726509 94.065028 
L 343.726509 77.10911 
L 338.574864 77.10911 
L 338.574864 62.00599 
L 351.716814 62.00599 
z
" style="fill:#ffa600;"/>
   </g>
   <g id="patch_26">
    <path clip-path="url(#p883dcd9b7b)" d="M 384.637168 156.133795 
Q 381.4831 156.816897 378.090725 157.160008 
Q 374.698349 157.5 371.081685 157.5 
Q 362.909144 157.5 358.135988 155.466288 
Q 353.362832 153.432576 353.362832 149.954679 
Q 353.362832 146.436232 358.220097 144.418116 
Q 363.08437 142.4 371.544282 142.4 
Q 374.803485 142.4 377.789336 142.674489 
Q 380.782196 142.945858 383.431613 143.482359 
L 383.431613 146.492378 
Q 380.698088 145.803037 377.992598 145.463045 
Q 375.287109 145.119934 372.567601 145.119934 
Q 367.535111 145.119934 364.808594 146.373848 
Q 362.082078 147.624644 362.082078 149.954679 
Q 362.082078 152.26288 364.710468 153.523032 
Q 367.338858 154.780066 372.175095 154.780066 
Q 373.492795 154.780066 374.62125 154.708325 
Q 375.749705 154.633464 376.646863 154.477505 
L 376.646863 151.651518 
L 371.495218 151.651518 
L 371.495218 149.134332 
L 384.637168 149.134332 
z
" style="fill:#ffa600;"/>
   </g>
   <g id="patch_27">
    <path clip-path="url(#p883dcd9b7b)" d="M 384.637168 139.152923 
Q 382.021124 140.762425 379.192329 141.576534 
Q 376.363534 142.4 373.282591 142.4 
Q 364.094917 142.4 358.728874 136.298864 
Q 353.362832 130.197728 353.362832 119.764036 
Q 353.362832 109.292915 358.728874 103.201136 
Q 364.094917 97.1 373.282591 97.1 
Q 376.363534 97.1 379.192329 97.923466 
Q 382.021124 98.737575 384.637168 100.347077 
L 384.637168 109.377133 
Q 381.997485 107.243607 379.436598 106.251704 
Q 376.875712 105.259802 374.046917 105.259802 
Q 368.972421 105.259802 366.06483 109.124478 
Q 363.165118 112.979798 363.165118 119.764036 
Q 363.165118 126.520202 366.06483 130.384879 
Q 368.972421 134.240198 374.046917 134.240198 
Q 376.875712 134.240198 379.436598 133.248296 
Q 381.997485 132.247036 384.637168 130.11351 
z
" style="fill:#0000ff;"/>
   </g>
   <g id="patch_28">
    <path clip-path="url(#p883dcd9b7b)" d="M 353.362832 21.6 
L 384.637168 21.6 
L 384.637168 36.324604 
L 373.38568 36.324604 
L 373.38568 97.1 
L 364.636139 97.1 
L 364.636139 36.324604 
L 353.362832 36.324604 
z
" style="fill:#ff0000;"/>
   </g>
   <g id="patch_29">
    <path clip-path="url(#p883dcd9b7b)" d="M 407.946946 154.74925 
L 395.919339 154.74925 
L 394.020243 157.5 
L 386.283186 157.5 
L 397.332471 142.4 
L 406.508237 142.4 
L 417.557522 157.5 
L 409.826859 157.5 
z
M 397.837618 151.946721 
L 406.009485 151.946721 
L 401.929945 145.940377 
z
" style="fill:#008000;"/>
   </g>
   <g id="patch_30">
    <path clip-path="url(#p883dcd9b7b)" d="M 417.557522 139.152923 
Q 414.941478 140.762425 412.112683 141.576534 
Q 409.283888 142.4 406.202945 142.4 
Q 397.015271 142.4 391.649228 136.298864 
Q 386.283186 130.197728 386.283186 119.764036 
Q 386.283186 109.292915 391.649228 103.201136 
Q 397.015271 97.1 406.202945 97.1 
Q 409.283888 97.1 412.112683 97.923466 
Q 414.941478 98.737575 417.557522 100.347077 
L 417.557522 109.377133 
Q 414.917839 107.243607 412.356952 106.251704 
Q 409.796066 105.259802 406.967271 105.259802 
Q 401.892775 105.259802 398.985184 109.124478 
Q 396.085472 112.979798 396.085472 119.764036 
Q 396.085472 126.520202 398.985184 130.384879 
Q 401.892775 134.240198 406.967271 134.240198 
Q 409.796066 134.240198 412.356952 133.248296 
Q 414.917839 132.247036 417.557522 130.11351 
z
" style="fill:#0000ff;"/>
   </g>
   <g id="patch_31">
    <path clip-path="url(#p883dcd9b7b)" d="M 417.557522 90.268973 
Q 414.403454 93.684487 411.011079 95.400041 
Q 407.618703 97.1 404.002039 97.1 
Q 395.829498 97.1 391.056342 86.93144 
Q 386.283186 76.76288 386.283186 59.373394 
Q 386.283186 41.781161 391.140451 31.69058 
Q 396.004724 21.6 404.464635 21.6 
Q 407.723839 21.6 410.70969 22.972444 
Q 413.70255 24.329291 416.351967 27.011795 
L 416.351967 42.061888 
Q 413.618442 38.615183 410.912952 36.915224 
Q 408.207463 35.199669 405.487955 35.199669 
Q 400.455465 35.199669 397.728948 41.469242 
Q 395.002432 47.723218 395.002432 59.373394 
Q 395.002432 70.914398 397.630822 77.215162 
Q 400.259212 83.500331 405.095449 83.500331 
Q 406.413149 83.500331 407.541604 83.141624 
Q 408.670059 82.767321 409.567217 81.987523 
L 409.567217 67.857591 
L 404.415572 67.857591 
L 404.415572 55.271659 
L 417.557522 55.271659 
z
" style="fill:#ffa600;"/>
   </g>
   <g id="patch_32">
    <path clip-path="url(#p883dcd9b7b)" d="M 450.477876 156.417641 
Q 447.861832 156.954142 445.033037 157.225511 
Q 442.204242 157.5 439.123298 157.5 
Q 429.935625 157.5 424.569582 155.466288 
Q 419.20354 153.432576 419.20354 149.954679 
Q 419.20354 146.464305 424.569582 144.433712 
Q 429.935625 142.4 439.123298 142.4 
Q 442.204242 142.4 445.033037 142.674489 
Q 447.861832 142.945858 450.477876 143.482359 
L 450.477876 146.492378 
Q 447.838193 145.781202 445.277306 145.450568 
Q 442.71642 145.119934 439.887625 145.119934 
Q 434.813129 145.119934 431.905538 146.408159 
Q 429.005826 147.693266 429.005826 149.954679 
Q 429.005826 152.206734 431.905538 153.49496 
Q 434.813129 154.780066 439.887625 154.780066 
Q 442.71642 154.780066 445.277306 154.449432 
Q 447.838193 154.115679 450.477876 153.404503 
z
" style="fill:#0000ff;"/>
   </g>
   <g id="patch_33">
    <path clip-path="url(#p883dcd9b7b)" d="M 450.477876 131.470357 
Q 447.323808 136.935179 443.931433 139.680066 
Q 440.539057 142.4 436.922393 142.4 
Q 428.749852 142.4 423.976696 126.130304 
Q 419.20354 109.860607 419.20354 82.03743 
Q 419.20354 53.889857 424.060805 37.744929 
Q 428.925078 21.6 437.384989 21.6 
Q 440.644193 21.6 443.630044 23.79591 
Q 446.622904 25.966866 449.272321 30.258872 
L 449.272321 54.339021 
Q 446.538796 48.824293 443.833306 46.104359 
Q 441.127817 43.359471 438.408309 43.359471 
Q 433.375819 43.359471 430.649302 53.390787 
Q 427.922786 63.397149 427.922786 82.03743 
Q 427.922786 100.503037 430.551176 110.584259 
Q 433.179565 120.640529 438.015803 120.640529 
Q 439.333503 120.640529 440.461958 120.066598 
Q 441.590413 119.467713 442.487571 118.220037 
L 442.487571 95.612146 
L 437.335926 95.612146 
L 437.335926 75.474654 
L 450.477876 75.474654 
z
" style="fill:#ffa600;"/>
   </g>
   <g id="patch_34">
    <path clip-path="url(#p883dcd9b7b)" d="M 483.39823 145.204152 
Q 480.244162 151.352076 476.851787 154.440074 
Q 473.459411 157.5 469.842747 157.5 
Q 461.670206 157.5 456.89705 139.196592 
Q 452.123894 120.893183 452.123894 89.592109 
Q 452.123894 57.92609 456.981158 39.763045 
Q 461.845432 21.6 470.305343 21.6 
Q 473.564547 21.6 476.550398 24.070399 
Q 479.543258 26.512725 482.192675 31.341231 
L 482.192675 58.431398 
Q 479.45915 52.227329 476.75366 49.167403 
Q 474.048171 46.079405 471.328663 46.079405 
Q 466.296173 46.079405 463.569656 57.364635 
Q 460.84314 68.621793 460.84314 89.592109 
Q 460.84314 110.365916 463.471529 121.707292 
Q 466.099919 133.020595 470.936157 133.020595 
Q 472.253857 133.020595 473.382312 132.374923 
Q 474.510767 131.701177 475.407925 130.297542 
L 475.407925 104.863665 
L 470.25628 104.863665 
L 470.25628 82.208986 
L 483.39823 82.208986 
z
" style="fill:#ffa600;"/>
   </g>
   <g id="patch_35">
    <path clip-path="url(#p883dcd9b7b)" d="M 516.318584 153.170564 
Q 513.70254 155.316567 510.873745 156.402045 
Q 508.04495 157.5 504.964006 157.5 
Q 495.776333 157.5 490.41029 149.365152 
Q 485.044248 141.230304 485.044248 127.318715 
Q 485.044248 113.35722 490.41029 105.234848 
Q 495.776333 97.1 504.964006 97.1 
Q 508.04495 97.1 510.873745 98.197955 
Q 513.70254 99.283433 516.318584 101.429436 
L 516.318584 113.46951 
Q 513.678901 110.624809 511.118014 109.302272 
Q 508.557127 107.979736 505.728333 107.979736 
Q 500.653837 107.979736 497.746246 113.132638 
Q 494.846534 118.273063 494.846534 127.318715 
Q 494.846534 136.326937 497.746246 141.479839 
Q 500.653837 146.620264 505.728333 146.620264 
Q 508.557127 146.620264 511.118014 145.297728 
Q 513.678901 143.962714 516.318584 141.118013 
z
" style="fill:#0000ff;"/>
   </g>
   <g id="patch_36">
    <path clip-path="url(#p883dcd9b7b)" d="M 516.318584 90.268973 
Q 513.164516 93.684487 509.772141 95.400041 
Q 506.379765 97.1 502.763101 97.1 
Q 494.59056 97.1 489.817404 86.93144 
Q 485.044248 76.76288 485.044248 59.373394 
Q 485.044248 41.781161 489.901512 31.69058 
Q 494.765786 21.6 503.225697 21.6 
Q 506.484901 21.6 509.470752 22.972444 
Q 512.463612 24.329291 515.113029 27.011795 
L 515.113029 42.061888 
Q 512.379504 38.615183 509.674014 36.915224 
Q 506.968525 35.199669 504.249017 35.199669 
Q 499.216527 35.199669 496.49001 41.469242 
Q 493.763493 47.723218 493.763493 59.373394 
Q 493.763493 70.914398 496.391883 77.215162 
Q 499.020273 83.500331 503.856511 83.500331 
Q 505.174211 83.500331 506.302666 83.141624 
Q 507.431121 82.767321 508.328279 81.987523 
L 508.328279 67.857591 
L 503.176634 67.857591 
L 503.176634 55.271659 
L 516.318584 55.271659 
z
" style="fill:#ffa600;"/>
   </g>
   <g id="patch_37">
    <path clip-path="url(#p883dcd9b7b)" d="M 549.238938 152.035179 
Q 546.08487 154.767589 542.692495 156.140033 
Q 539.300119 157.5 535.683455 157.5 
Q 527.510914 157.5 522.737758 149.365152 
Q 517.964602 141.230304 517.964602 127.318715 
Q 517.964602 113.244929 522.821866 105.172464 
Q 527.68614 97.1 536.146051 97.1 
Q 539.405255 97.1 542.391106 98.197955 
Q 545.383966 99.283433 548.033383 101.429436 
L 548.033383 113.46951 
Q 545.299858 110.712146 542.594368 109.352179 
Q 539.888879 107.979736 537.169371 107.979736 
Q 532.136881 107.979736 529.410364 112.995394 
Q 526.683847 117.998575 526.683847 127.318715 
Q 526.683847 136.551518 529.312237 141.59213 
Q 531.940627 146.620264 536.776865 146.620264 
Q 538.094565 146.620264 539.22302 146.333299 
Q 540.351475 146.033857 541.248633 145.410019 
L 541.248633 134.106073 
L 536.096988 134.106073 
L 536.096988 124.037327 
L 549.238938 124.037327 
z
" style="fill:#ffa600;"/>
   </g>
   <g id="patch_38">
    <path clip-path="url(#p883dcd9b7b)" d="M 549.238938 91.688205 
Q 546.622894 94.370709 543.794099 95.727556 
Q 540.965304 97.1 537.88436 97.1 
Q 528.696687 97.1 523.330644 86.93144 
Q 517.964602 76.76288 517.964602 59.373394 
Q 517.964602 41.921524 523.330644 31.76856 
Q 528.696687 21.6 537.88436 21.6 
Q 540.965304 21.6 543.794099 22.972444 
Q 546.622894 24.329291 549.238938 27.011795 
L 549.238938 42.061888 
Q 546.599255 38.506011 544.038368 36.85284 
Q 541.477481 35.199669 538.648687 35.199669 
Q 533.574191 35.199669 530.6666 41.640797 
Q 527.766888 48.066329 527.766888 59.373394 
Q 527.766888 70.633671 530.6666 77.074799 
Q 533.574191 83.500331 538.648687 83.500331 
Q 541.477481 83.500331 544.038368 81.84716 
Q 546.599255 80.178393 549.238938 76.622516 
z
" style="fill:#0000ff;"/>
   </g>
   <g id="patch_39">
    <path clip-path="url(#p883dcd9b7b)" d="M 572.548716 151.9985 
L 560.521109 151.9985 
L 558.622013 157.5 
L 550.884956 157.5 
L 561.934241 127.3 
L 571.110007 127.3 
L 582.159292 157.5 
L 574.428629 157.5 
z
M 562.439387 146.393442 
L 570.611255 146.393442 
L 566.531715 134.380754 
z
" style="fill:#008000;"/>
   </g>
   <g id="patch_40">
    <path clip-path="url(#p883dcd9b7b)" d="M 582.159292 124.052923 
Q 579.543248 125.662425 576.714453 126.476534 
Q 573.885658 127.3 570.804714 127.3 
Q 561.617041 127.3 556.250998 121.198864 
Q 550.884956 115.097728 550.884956 104.664036 
Q 550.884956 94.192915 556.250998 88.101136 
Q 561.617041 82 570.804714 82 
Q 573.885658 82 576.714453 82.823466 
Q 579.543248 83.637575 582.159292 85.247077 
L 582.159292 94.277133 
Q 579.519609 92.143607 576.958722 91.151704 
Q 574.397835 90.159802 571.569041 90.159802 
Q 566.494545 90.159802 563.586954 94.024478 
Q 560.687242 97.879798 560.687242 104.664036 
Q 560.687242 111.420202 563.586954 115.284879 
Q 566.494545 119.140198 571.569041 119.140198 
Q 574.397835 119.140198 576.958722 118.148296 
Q 579.519609 117.147036 582.159292 115.01351 
z
" style="fill:#0000ff;"/>
   </g>
   <g id="patch_41">
    <path clip-path="url(#p883dcd9b7b)" d="M 582.159292 76.535179 
Q 579.005224 79.267589 575.612849 80.640033 
Q 572.220473 82 568.603809 82 
Q 560.431268 82 555.658112 73.865152 
Q 550.884956 65.730304 550.884956 51.818715 
Q 550.884956 37.744929 555.74222 29.672464 
Q 560.606494 21.6 569.066405 21.6 
Q 572.325609 21.6 575.31146 22.697955 
Q 578.30432 23.783433 580.953737 25.929436 
L 580.953737 37.96951 
Q 578.220212 35.212146 575.514722 33.852179 
Q 572.809233 32.479736 570.089725 32.479736 
Q 565.057235 32.479736 562.330718 37.495394 
Q 559.604201 42.498575 559.604201 51.818715 
Q 559.604201 61.051518 562.232591 66.09213 
Q 564.860981 71.120264 569.697219 71.120264 
Q 571.014919 71.120264 572.143374 70.833299 
Q 573.271829 70.533857 574.168986 69.910019 
L 574.168986 58.606073 
L 569.017342 58.606073 
L 569.017342 48.537327 
L 582.159292 48.537327 
z
" style="fill:#ffa600;"/>
   </g>
   <g id="patch_42">
    <path clip-path="url(#p883dcd9b7b)" d="M 583.80531 127.3 
L 615.079646 127.3 
L 615.079646 133.189841 
L 603.828158 133.189841 
L 603.828158 157.5 
L 595.078617 157.5 
L 595.078617 133.189841 
L 583.80531 133.189841 
z
" style="fill:#ff0000;"/>
   </g>
   <g id="patch_43">
    <path clip-path="url(#p883dcd9b7b)" d="M 615.079646 124.052923 
Q 612.463602 125.662425 609.634807 126.476534 
Q 606.806012 127.3 603.725068 127.3 
Q 594.537395 127.3 589.171352 121.198864 
Q 583.80531 115.097728 583.80531 104.664036 
Q 583.80531 94.192915 589.171352 88.101136 
Q 594.537395 82 603.725068 82 
Q 606.806012 82 609.634807 82.823466 
Q 612.463602 83.637575 615.079646 85.247077 
L 615.079646 94.277133 
Q 612.439963 92.143607 609.879076 91.151704 
Q 607.318189 90.159802 604.489395 90.159802 
Q 599.414899 90.159802 596.507308 94.024478 
Q 593.607596 97.879798 593.607596 104.664036 
Q 593.607596 111.420202 596.507308 115.284879 
Q 599.414899 119.140198 604.489395 119.140198 
Q 607.318189 119.140198 609.879076 118.148296 
Q 612.439963 117.147036 615.079646 115.01351 
z
" style="fill:#0000ff;"/>
   </g>
   <g id="patch_44">
    <path clip-path="url(#p883dcd9b7b)" d="M 615.079646 76.535179 
Q 611.925578 79.267589 608.533203 80.640033 
Q 605.140827 82 601.524163 82 
Q 593.351622 82 588.578466 73.865152 
Q 583.80531 65.730304 583.80531 51.818715 
Q 583.80531 37.744929 588.662574 29.672464 
Q 593.526848 21.6 601.986759 21.6 
Q 605.245963 21.6 608.231814 22.697955 
Q 611.224674 23.783433 613.874091 25.929436 
L 613.874091 37.96951 
Q 611.140566 35.212146 608.435076 33.852179 
Q 605.729587 32.479736 603.010079 32.479736 
Q 597.977589 32.479736 595.251072 37.495394 
Q 592.524555 42.498575 592.524555 51.818715 
Q 592.524555 61.051518 595.152945 66.09213 
Q 597.781335 71.120264 602.617573 71.120264 
Q 603.935272 71.120264 605.063728 70.833299 
Q 606.192183 70.533857 607.08934 69.910019 
L 607.08934 58.606073 
L 601.937696 58.606073 
L 601.937696 48.537327 
L 615.079646 48.537327 
z
" style="fill:#ffa600;"/>
   </g>
   <g id="patch_45">
    <path clip-path="url(#p883dcd9b7b)" d="M 638.389424 154.74925 
L 626.361817 154.74925 
L 624.462721 157.5 
L 616.725664 157.5 
L 627.774949 142.4 
L 636.950715 142.4 
L 648 157.5 
L 640.269337 157.5 
z
M 628.280095 151.946721 
L 636.451963 151.946721 
L 632.372423 145.940377 
z
" style="fill:#008000;"/>
   </g>
   <g id="patch_46">
    <path clip-path="url(#p883dcd9b7b)" d="M 648 139.667589 
Q 644.845932 141.033795 641.453557 141.720017 
Q 638.061181 142.4 634.444517 142.4 
Q 626.271976 142.4 621.49882 138.332576 
Q 616.725664 134.265152 616.725664 127.309358 
Q 616.725664 120.272464 621.582928 116.236232 
Q 626.447202 112.2 634.907113 112.2 
Q 638.166317 112.2 641.152168 112.748977 
Q 644.145028 113.291717 646.794445 114.364718 
L 646.794445 120.384755 
Q 644.06092 119.006073 641.35543 118.32609 
Q 638.649941 117.639868 635.930433 117.639868 
Q 630.897943 117.639868 628.171426 120.147697 
Q 625.444909 122.649287 625.444909 127.309358 
Q 625.444909 131.925759 628.073299 134.446065 
Q 630.701689 136.960132 635.537927 136.960132 
Q 636.855626 136.960132 637.984082 136.816649 
Q 639.112537 136.666928 640.009694 136.355009 
L 640.009694 130.703037 
L 634.85805 130.703037 
L 634.85805 125.668663 
L 648 125.668663 
z
" style="fill:#ffa600;"/>
   </g>
   <g id="patch_47">
    <path clip-path="url(#p883dcd9b7b)" d="M 616.725664 82 
L 648 82 
L 648 87.889841 
L 636.748512 87.889841 
L 636.748512 112.2 
L 627.998971 112.2 
L 627.998971 87.889841 
L 616.725664 87.889841 
z
" style="fill:#ff0000;"/>
   </g>
   <g id="patch_48">
    <path clip-path="url(#p883dcd9b7b)" d="M 648 77.670564 
Q 645.383956 79.816567 642.555161 80.902045 
Q 639.726366 82 636.645422 82 
Q 627.457749 82 622.091706 73.865152 
Q 616.725664 65.730304 616.725664 51.818715 
Q 616.725664 37.85722 622.091706 29.734848 
Q 627.457749 21.6 636.645422 21.6 
Q 639.726366 21.6 642.555161 22.697955 
Q 645.383956 23.783433 648 25.929436 
L 648 37.96951 
Q 645.360317 35.124809 642.79943 33.802272 
Q 640.238543 32.479736 637.409749 32.479736 
Q 632.335253 32.479736 629.427662 37.632638 
Q 626.52795 42.773063 626.52795 51.818715 
Q 626.52795 60.826937 629.427662 65.979839 
Q 632.335253 71.120264 637.409749 71.120264 
Q 640.238543 71.120264 642.79943 69.797728 
Q 645.360317 68.462714 648 65.618013 
z
" style="fill:#0000ff;"/>
   </g>
  </g>
 </g>
 <defs>
  <clipPath id="p883dcd9b7b">
   <rect height="135.9" width="558" x="90" y="21.6"/>
  </clipPath>
 </defs>
</svg>
