<?xml version="1.0" encoding="utf-8" standalone="no"?>
<!DOCTYPE svg PUBLIC "-//W3C//DTD SVG 1.1//EN"
  "http://www.w3.org/Graphics/SVG/1.1/DTD/svg11.dtd">
<!-- Created with matplotlib (https://matplotlib.org/) -->
<svg height="180pt" version="1.1" viewBox="0 0 720 180" width="720pt" xmlns="http://www.w3.org/2000/svg" xmlns:xlink="http://www.w3.org/1999/xlink">
 <metadata>
  <rdf:RDF xmlns:cc="http://creativecommons.org/ns#" xmlns:dc="http://purl.org/dc/elements/1.1/" xmlns:rdf="http://www.w3.org/1999/02/22-rdf-syntax-ns#">
   <cc:Work>
    <dc:type rdf:resource="http://purl.org/dc/dcmitype/StillImage"/>
    <dc:date>2021-08-04T23:33:12.504055</dc:date>
    <dc:format>image/svg+xml</dc:format>
    <dc:creator>
     <cc:Agent>
      <dc:title>Matplotlib v3.3.2, https://matplotlib.org/</dc:title>
     </cc:Agent>
    </dc:creator>
   </cc:Work>
  </rdf:RDF>
 </metadata>
 <defs>
  <style type="text/css">*{stroke-linecap:butt;stroke-linejoin:round;}</style>
 </defs>
 <g id="figure_1">
  <g id="patch_1">
   <path d="M 0 180 
L 720 180 
L 720 0 
L 0 0 
z
" style="fill:none;"/>
  </g>
  <g id="axes_1">
   <g id="line2d_1">
    <path clip-path="url(#p93fa3f6c19)" d="M 90 157.5 
L 648 157.5 
" style="fill:none;stroke:#000000;stroke-linecap:square;stroke-width:0.5;"/>
   </g>
   <g id="patch_2">
    <path clip-path="url(#p93fa3f6c19)" d="M 121.274336 154.767589 
Q 118.120268 156.133795 114.727893 156.820017 
Q 111.335518 157.5 107.718853 157.5 
Q 99.546312 157.5 94.773156 153.432576 
Q 90 149.365152 90 142.409358 
Q 90 135.372464 94.857265 131.336232 
Q 99.721538 127.3 108.18145 127.3 
Q 111.440653 127.3 114.426504 127.848977 
Q 117.419364 128.391717 120.068781 129.464718 
L 120.068781 135.484755 
Q 117.335256 134.106073 114.629766 133.42609 
Q 111.924277 132.739868 109.204769 132.739868 
Q 104.172279 132.739868 101.445762 135.247697 
Q 98.719246 137.749287 98.719246 142.409358 
Q 98.719246 147.025759 101.347636 149.546065 
Q 103.976026 152.060132 108.812263 152.060132 
Q 110.129963 152.060132 111.258418 151.916649 
Q 112.386874 151.766928 113.284031 151.455009 
L 113.284031 145.803037 
L 108.132386 145.803037 
L 108.132386 140.768663 
L 121.274336 140.768663 
z
" style="fill:#ffa600;"/>
   </g>
   <g id="patch_3">
    <path clip-path="url(#p93fa3f6c19)" d="M 121.274336 124.052923 
Q 118.658292 125.662425 115.829497 126.476534 
Q 113.000702 127.3 109.919759 127.3 
Q 100.732085 127.3 95.366043 121.198864 
Q 90 115.097728 90 104.664036 
Q 90 94.192915 95.366043 88.101136 
Q 100.732085 82 109.919759 82 
Q 113.000702 82 115.829497 82.823466 
Q 118.658292 83.637575 121.274336 85.247077 
L 121.274336 94.277133 
Q 118.634653 92.143607 116.073766 91.151704 
Q 113.51288 90.159802 110.684085 90.159802 
Q 105.609589 90.159802 102.701998 94.024478 
Q 99.802286 97.879798 99.802286 104.664036 
Q 99.802286 111.420202 102.701998 115.284879 
Q 105.609589 119.140198 110.684085 119.140198 
Q 113.51288 119.140198 116.073766 118.148296 
Q 118.634653 117.147036 121.274336 115.01351 
z
" style="fill:#0000ff;"/>
   </g>
   <g id="patch_4">
    <path clip-path="url(#p93fa3f6c19)" d="M 111.66376 70.997 
L 99.636153 70.997 
L 97.737057 82 
L 90 82 
L 101.049285 21.6 
L 110.225051 21.6 
L 121.274336 82 
L 113.543673 82 
z
M 101.554432 59.786884 
L 109.726299 59.786884 
L 105.64676 35.761509 
z
" style="fill:#008000;"/>
   </g>
   <g id="patch_5">
    <path clip-path="url(#p93fa3f6c19)" d="M 154.19469 156.417641 
Q 151.578646 156.954142 148.749851 157.225511 
Q 145.921056 157.5 142.840113 157.5 
Q 133.652439 157.5 128.286397 155.466288 
Q 122.920354 153.432576 122.920354 149.954679 
Q 122.920354 146.464305 128.286397 144.433712 
Q 133.652439 142.4 142.840113 142.4 
Q 145.921056 142.4 148.749851 142.674489 
Q 151.578646 142.945858 154.19469 143.482359 
L 154.19469 146.492378 
Q 151.555007 145.781202 148.99412 145.450568 
Q 146.433234 145.119934 143.604439 145.119934 
Q 138.529943 145.119934 135.622352 146.408159 
Q 132.72264 147.693266 132.72264 149.954679 
Q 132.72264 152.206734 135.622352 153.49496 
Q 138.529943 154.780066 143.604439 154.780066 
Q 146.433234 154.780066 148.99412 154.449432 
Q 151.555007 154.115679 154.19469 153.404503 
z
" style="fill:#0000ff;"/>
   </g>
   <g id="patch_6">
    <path clip-path="url(#p93fa3f6c19)" d="M 154.19469 141.033795 
Q 151.040622 141.716897 147.648247 142.060008 
Q 144.255872 142.4 140.639207 142.4 
Q 132.466666 142.4 127.69351 140.366288 
Q 122.920354 138.332576 122.920354 134.854679 
Q 122.920354 131.336232 127.777619 129.318116 
Q 132.641892 127.3 141.101804 127.3 
Q 144.361007 127.3 147.346858 127.574489 
Q 150.339718 127.845858 152.989135 128.382359 
L 152.989135 131.392378 
Q 150.25561 130.703037 147.55012 130.363045 
Q 144.844631 130.019934 142.125123 130.019934 
Q 137.092633 130.019934 134.366116 131.273848 
Q 131.6396 132.524644 131.6396 134.854679 
Q 131.6396 137.16288 134.26799 138.423032 
Q 136.89638 139.680066 141.732617 139.680066 
Q 143.050317 139.680066 144.178772 139.608325 
Q 145.307228 139.533464 146.204385 139.377505 
L 146.204385 136.551518 
L 141.05274 136.551518 
L 141.05274 134.034332 
L 154.19469 134.034332 
z
" style="fill:#ffa600;"/>
   </g>
   <g id="patch_7">
    <path clip-path="url(#p93fa3f6c19)" d="M 144.584114 108.044749 
L 132.556507 108.044749 
L 130.657411 127.3 
L 122.920354 127.3 
L 133.969639 21.6 
L 143.145405 21.6 
L 154.19469 127.3 
L 146.464027 127.3 
z
M 134.474786 88.427047 
L 142.646653 88.427047 
L 138.567114 46.38264 
z
" style="fill:#008000;"/>
   </g>
   <g id="patch_8">
    <path clip-path="url(#p93fa3f6c19)" d="M 187.115044 156.133795 
Q 183.960976 156.816897 180.568601 157.160008 
Q 177.176226 157.5 173.559561 157.5 
Q 165.38702 157.5 160.613864 155.466288 
Q 155.840708 153.432576 155.840708 149.954679 
Q 155.840708 146.436232 160.697973 144.418116 
Q 165.562246 142.4 174.022158 142.4 
Q 177.281361 142.4 180.267212 142.674489 
Q 183.260072 142.945858 185.909489 143.482359 
L 185.909489 146.492378 
Q 183.175964 145.803037 180.470474 145.463045 
Q 177.764985 145.119934 175.045477 145.119934 
Q 170.012987 145.119934 167.28647 146.373848 
Q 164.559954 147.624644 164.559954 149.954679 
Q 164.559954 152.26288 167.188344 153.523032 
Q 169.816734 154.780066 174.652971 154.780066 
Q 175.970671 154.780066 177.099126 154.708325 
Q 178.227582 154.633464 179.124739 154.477505 
L 179.124739 151.651518 
L 173.973094 151.651518 
L 173.973094 149.134332 
L 187.115044 149.134332 
z
" style="fill:#ffa600;"/>
   </g>
   <g id="patch_9">
    <path clip-path="url(#p93fa3f6c19)" d="M 177.504468 131.397 
L 165.476861 131.397 
L 163.577765 142.4 
L 155.840708 142.4 
L 166.889993 82 
L 176.065759 82 
L 187.115044 142.4 
L 179.384381 142.4 
z
M 167.39514 120.186884 
L 175.567007 120.186884 
L 171.487467 96.161509 
z
" style="fill:#008000;"/>
   </g>
   <g id="patch_10">
    <path clip-path="url(#p93fa3f6c19)" d="M 187.115044 77.670564 
Q 184.499 79.816567 181.670205 80.902045 
Q 178.84141 82 175.760467 82 
Q 166.572793 82 161.206751 73.865152 
Q 155.840708 65.730304 155.840708 51.818715 
Q 155.840708 37.85722 161.206751 29.734848 
Q 166.572793 21.6 175.760467 21.6 
Q 178.84141 21.6 181.670205 22.697955 
Q 184.499 23.783433 187.115044 25.929436 
L 187.115044 37.96951 
Q 184.475361 35.124809 181.914474 33.802272 
Q 179.353588 32.479736 176.524793 32.479736 
Q 171.450297 32.479736 168.542706 37.632638 
Q 165.642994 42.773063 165.642994 51.818715 
Q 165.642994 60.826937 168.542706 65.979839 
Q 171.450297 71.120264 176.524793 71.120264 
Q 179.353588 71.120264 181.914474 69.797728 
Q 184.475361 68.462714 187.115044 65.618013 
z
" style="fill:#0000ff;"/>
   </g>
   <g id="patch_11">
    <path clip-path="url(#p93fa3f6c19)" d="M 220.035398 156.417641 
Q 217.419354 156.954142 214.590559 157.225511 
Q 211.761764 157.5 208.680821 157.5 
Q 199.493147 157.5 194.127105 155.466288 
Q 188.761062 153.432576 188.761062 149.954679 
Q 188.761062 146.464305 194.127105 144.433712 
Q 199.493147 142.4 208.680821 142.4 
Q 211.761764 142.4 214.590559 142.674489 
Q 217.419354 142.945858 220.035398 143.482359 
L 220.035398 146.492378 
Q 217.395715 145.781202 214.834828 145.450568 
Q 212.273942 145.119934 209.445147 145.119934 
Q 204.370651 145.119934 201.46306 146.408159 
Q 198.563348 147.693266 198.563348 149.954679 
Q 198.563348 152.206734 201.46306 153.49496 
Q 204.370651 154.780066 209.445147 154.780066 
Q 212.273942 154.780066 214.834828 154.449432 
Q 217.395715 154.115679 220.035398 153.404503 
z
" style="fill:#0000ff;"/>
   </g>
   <g id="patch_12">
    <path clip-path="url(#p93fa3f6c19)" d="M 220.035398 141.033795 
Q 216.88133 141.716897 213.488955 142.060008 
Q 210.09658 142.4 206.479915 142.4 
Q 198.307374 142.4 193.534218 140.366288 
Q 188.761062 138.332576 188.761062 134.854679 
Q 188.761062 131.336232 193.618327 129.318116 
Q 198.4826 127.3 206.942512 127.3 
Q 210.201715 127.3 213.187566 127.574489 
Q 216.180426 127.845858 218.829843 128.382359 
L 218.829843 131.392378 
Q 216.096318 130.703037 213.390828 130.363045 
Q 210.685339 130.019934 207.965831 130.019934 
Q 202.933341 130.019934 200.206824 131.273848 
Q 197.480308 132.524644 197.480308 134.854679 
Q 197.480308 137.16288 200.108698 138.423032 
Q 202.737088 139.680066 207.573325 139.680066 
Q 208.891025 139.680066 210.01948 139.608325 
Q 211.147936 139.533464 212.045093 139.377505 
L 212.045093 136.551518 
L 206.893448 136.551518 
L 206.893448 134.034332 
L 220.035398 134.034332 
z
" style="fill:#ffa600;"/>
   </g>
   <g id="patch_13">
    <path clip-path="url(#p93fa3f6c19)" d="M 210.424822 108.044749 
L 198.397215 108.044749 
L 196.498119 127.3 
L 188.761062 127.3 
L 199.810347 21.6 
L 208.986113 21.6 
L 220.035398 127.3 
L 212.304735 127.3 
z
M 200.315494 88.427047 
L 208.487361 88.427047 
L 204.407821 46.38264 
z
" style="fill:#008000;"/>
   </g>
   <g id="patch_14">
    <path clip-path="url(#p93fa3f6c19)" d="M 221.681416 127.3 
L 252.955752 127.3 
L 252.955752 133.189841 
L 241.704264 133.189841 
L 241.704264 157.5 
L 232.954723 157.5 
L 232.954723 133.189841 
L 221.681416 133.189841 
z
" style="fill:#ff0000;"/>
   </g>
   <g id="patch_15">
    <path clip-path="url(#p93fa3f6c19)" d="M 243.345176 108.044749 
L 231.317569 108.044749 
L 229.418473 127.3 
L 221.681416 127.3 
L 232.730701 21.6 
L 241.906467 21.6 
L 252.955752 127.3 
L 245.225089 127.3 
z
M 233.235848 88.427047 
L 241.407715 88.427047 
L 237.328175 46.38264 
z
" style="fill:#008000;"/>
   </g>
   <g id="patch_16">
    <path clip-path="url(#p93fa3f6c19)" d="M 285.876106 154.767589 
Q 282.722038 156.133795 279.329663 156.820017 
Q 275.937288 157.5 272.320623 157.5 
Q 264.148082 157.5 259.374926 153.432576 
Q 254.60177 149.365152 254.60177 142.409358 
Q 254.60177 135.372464 259.459035 131.336232 
Q 264.323308 127.3 272.78322 127.3 
Q 276.042423 127.3 279.028274 127.848977 
Q 282.021134 128.391717 284.670551 129.464718 
L 284.670551 135.484755 
Q 281.937026 134.106073 279.231536 133.42609 
Q 276.526047 132.739868 273.806539 132.739868 
Q 268.774049 132.739868 266.047532 135.247697 
Q 263.321016 137.749287 263.321016 142.409358 
Q 263.321016 147.025759 265.949406 149.546065 
Q 268.577796 152.060132 273.414033 152.060132 
Q 274.731733 152.060132 275.860188 151.916649 
Q 276.988644 151.766928 277.885801 151.455009 
L 277.885801 145.803037 
L 272.734156 145.803037 
L 272.734156 140.768663 
L 285.876106 140.768663 
z
" style="fill:#ffa600;"/>
   </g>
   <g id="patch_17">
    <path clip-path="url(#p93fa3f6c19)" d="M 254.60177 21.6 
L 285.876106 21.6 
L 285.876106 42.214445 
L 274.624618 42.214445 
L 274.624618 127.3 
L 265.875077 127.3 
L 265.875077 42.214445 
L 254.60177 42.214445 
z
" style="fill:#ff0000;"/>
   </g>
   <g id="patch_18">
    <path clip-path="url(#p93fa3f6c19)" d="M 318.79646 145.204152 
Q 315.642392 151.352076 312.250017 154.440074 
Q 308.857642 157.5 305.240977 157.5 
Q 297.068436 157.5 292.29528 139.196592 
Q 287.522124 120.893183 287.522124 89.592109 
Q 287.522124 57.92609 292.379389 39.763045 
Q 297.243662 21.6 305.703574 21.6 
Q 308.962777 21.6 311.948628 24.070399 
Q 314.941488 26.512725 317.590905 31.341231 
L 317.590905 58.431398 
Q 314.85738 52.227329 312.15189 49.167403 
Q 309.446401 46.079405 306.726893 46.079405 
Q 301.694403 46.079405 298.967886 57.364635 
Q 296.24137 68.621793 296.24137 89.592109 
Q 296.24137 110.365916 298.86976 121.707292 
Q 301.49815 133.020595 306.334387 133.020595 
Q 307.652087 133.020595 308.780542 132.374923 
Q 309.908998 131.701177 310.806155 130.297542 
L 310.806155 104.863665 
L 305.65451 104.863665 
L 305.65451 82.208986 
L 318.79646 82.208986 
z
" style="fill:#ffa600;"/>
   </g>
   <g id="patch_19">
    <path clip-path="url(#p93fa3f6c19)" d="M 351.716814 145.204152 
Q 348.562746 151.352076 345.170371 154.440074 
Q 341.777996 157.5 338.161331 157.5 
Q 329.98879 157.5 325.215634 139.196592 
Q 320.442478 120.893183 320.442478 89.592109 
Q 320.442478 57.92609 325.299743 39.763045 
Q 330.164016 21.6 338.623928 21.6 
Q 341.883131 21.6 344.868982 24.070399 
Q 347.861842 26.512725 350.511259 31.341231 
L 350.511259 58.431398 
Q 347.777734 52.227329 345.072244 49.167403 
Q 342.366755 46.079405 339.647247 46.079405 
Q 334.614757 46.079405 331.88824 57.364635 
Q 329.161724 68.621793 329.161724 89.592109 
Q 329.161724 110.365916 331.790114 121.707292 
Q 334.418504 133.020595 339.254741 133.020595 
Q 340.572441 133.020595 341.700896 132.374923 
Q 342.829351 131.701177 343.726509 130.297542 
L 343.726509 104.863665 
L 338.574864 104.863665 
L 338.574864 82.208986 
L 351.716814 82.208986 
z
" style="fill:#ffa600;"/>
   </g>
   <g id="patch_20">
    <path clip-path="url(#p93fa3f6c19)" d="M 353.362832 142.4 
L 384.637168 142.4 
L 384.637168 145.344921 
L 373.38568 145.344921 
L 373.38568 157.5 
L 364.636139 157.5 
L 364.636139 145.344921 
L 353.362832 145.344921 
z
" style="fill:#ff0000;"/>
   </g>
   <g id="patch_21">
    <path clip-path="url(#p93fa3f6c19)" d="M 384.637168 139.667589 
Q 381.4831 141.033795 378.090725 141.720017 
Q 374.698349 142.4 371.081685 142.4 
Q 362.909144 142.4 358.135988 138.332576 
Q 353.362832 134.265152 353.362832 127.309358 
Q 353.362832 120.272464 358.220097 116.236232 
Q 363.08437 112.2 371.544282 112.2 
Q 374.803485 112.2 377.789336 112.748977 
Q 380.782196 113.291717 383.431613 114.364718 
L 383.431613 120.384755 
Q 380.698088 119.006073 377.992598 118.32609 
Q 375.287109 117.639868 372.567601 117.639868 
Q 367.535111 117.639868 364.808594 120.147697 
Q 362.082078 122.649287 362.082078 127.309358 
Q 362.082078 131.925759 364.710468 134.446065 
Q 367.338858 136.960132 372.175095 136.960132 
Q 373.492795 136.960132 374.62125 136.816649 
Q 375.749705 136.666928 376.646863 136.355009 
L 376.646863 130.703037 
L 371.495218 130.703037 
L 371.495218 125.668663 
L 384.637168 125.668663 
z
" style="fill:#ffa600;"/>
   </g>
   <g id="patch_22">
    <path clip-path="url(#p93fa3f6c19)" d="M 384.637168 105.705846 
Q 382.021124 108.92485 379.192329 110.553068 
Q 376.363534 112.2 373.282591 112.2 
Q 364.094917 112.2 358.728874 99.997728 
Q 353.362832 87.795455 353.362832 66.928073 
Q 353.362832 45.985829 358.728874 33.802272 
Q 364.094917 21.6 373.282591 21.6 
Q 376.363534 21.6 379.192329 23.246932 
Q 382.021124 24.87515 384.637168 28.094154 
L 384.637168 46.154266 
Q 381.997485 41.887213 379.436598 39.903408 
Q 376.875712 37.919603 374.046917 37.919603 
Q 368.972421 37.919603 366.06483 45.648957 
Q 363.165118 53.359595 363.165118 66.928073 
Q 363.165118 80.440405 366.06483 88.169758 
Q 368.972421 95.880397 374.046917 95.880397 
Q 376.875712 95.880397 379.436598 93.896592 
Q 381.997485 91.894071 384.637168 87.627019 
z
" style="fill:#0000ff;"/>
   </g>
   <g id="patch_23">
    <path clip-path="url(#p93fa3f6c19)" d="M 386.283186 127.3 
L 417.557522 127.3 
L 417.557522 133.189841 
L 406.306034 133.189841 
L 406.306034 157.5 
L 397.556493 157.5 
L 397.556493 133.189841 
L 386.283186 133.189841 
z
" style="fill:#ff0000;"/>
   </g>
   <g id="patch_24">
    <path clip-path="url(#p93fa3f6c19)" d="M 417.557522 123.201384 
Q 414.403454 125.250692 411.011079 126.280025 
Q 407.618703 127.3 404.002039 127.3 
Q 395.829498 127.3 391.056342 121.198864 
Q 386.283186 115.097728 386.283186 104.664036 
Q 386.283186 94.108697 391.140451 88.054348 
Q 396.004724 82 404.464635 82 
Q 407.723839 82 410.70969 82.823466 
Q 413.70255 83.637575 416.351967 85.247077 
L 416.351967 94.277133 
Q 413.618442 92.20911 410.912952 91.189134 
Q 408.207463 90.159802 405.487955 90.159802 
Q 400.455465 90.159802 397.728948 93.921545 
Q 395.002432 97.673931 395.002432 104.664036 
Q 395.002432 111.588639 397.630822 115.369097 
Q 400.259212 119.140198 405.095449 119.140198 
Q 406.413149 119.140198 407.541604 118.924974 
Q 408.670059 118.700392 409.567217 118.232514 
L 409.567217 109.754555 
L 404.415572 109.754555 
L 404.415572 102.202995 
L 417.557522 102.202995 
z
" style="fill:#ffa600;"/>
   </g>
   <g id="patch_25">
    <path clip-path="url(#p93fa3f6c19)" d="M 417.557522 77.670564 
Q 414.941478 79.816567 412.112683 80.902045 
Q 409.283888 82 406.202945 82 
Q 397.015271 82 391.649228 73.865152 
Q 386.283186 65.730304 386.283186 51.818715 
Q 386.283186 37.85722 391.649228 29.734848 
Q 397.015271 21.6 406.202945 21.6 
Q 409.283888 21.6 412.112683 22.697955 
Q 414.941478 23.783433 417.557522 25.929436 
L 417.557522 37.96951 
Q 414.917839 35.124809 412.356952 33.802272 
Q 409.796066 32.479736 406.967271 32.479736 
Q 401.892775 32.479736 398.985184 37.632638 
Q 396.085472 42.773063 396.085472 51.818715 
Q 396.085472 60.826937 398.985184 65.979839 
Q 401.892775 71.120264 406.967271 71.120264 
Q 409.796066 71.120264 412.356952 69.797728 
Q 414.917839 68.462714 417.557522 65.618013 
z
" style="fill:#0000ff;"/>
   </g>
   <g id="patch_26">
    <path clip-path="url(#p93fa3f6c19)" d="M 440.8673 154.74925 
L 428.839693 154.74925 
L 426.940597 157.5 
L 419.20354 157.5 
L 430.252825 142.4 
L 439.428591 142.4 
L 450.477876 157.5 
L 442.747213 157.5 
z
M 430.757972 151.946721 
L 438.929839 151.946721 
L 434.850299 145.940377 
z
" style="fill:#008000;"/>
   </g>
   <g id="patch_27">
    <path clip-path="url(#p93fa3f6c19)" d="M 450.477876 141.033795 
Q 447.323808 141.716897 443.931433 142.060008 
Q 440.539057 142.4 436.922393 142.4 
Q 428.749852 142.4 423.976696 140.366288 
Q 419.20354 138.332576 419.20354 134.854679 
Q 419.20354 131.336232 424.060805 129.318116 
Q 428.925078 127.3 437.384989 127.3 
Q 440.644193 127.3 443.630044 127.574489 
Q 446.622904 127.845858 449.272321 128.382359 
L 449.272321 131.392378 
Q 446.538796 130.703037 443.833306 130.363045 
Q 441.127817 130.019934 438.408309 130.019934 
Q 433.375819 130.019934 430.649302 131.273848 
Q 427.922786 132.524644 427.922786 134.854679 
Q 427.922786 137.16288 430.551176 138.423032 
Q 433.179565 139.680066 438.015803 139.680066 
Q 439.333503 139.680066 440.461958 139.608325 
Q 441.590413 139.533464 442.487571 139.377505 
L 442.487571 136.551518 
L 437.335926 136.551518 
L 437.335926 134.034332 
L 450.477876 134.034332 
z
" style="fill:#ffa600;"/>
   </g>
   <g id="patch_28">
    <path clip-path="url(#p93fa3f6c19)" d="M 450.477876 119.723487 
Q 447.861832 123.478992 445.033037 125.378579 
Q 442.204242 127.3 439.123298 127.3 
Q 429.935625 127.3 424.569582 113.064016 
Q 419.20354 98.828031 419.20354 74.482751 
Q 419.20354 50.050134 424.569582 35.835984 
Q 429.935625 21.6 439.123298 21.6 
Q 442.204242 21.6 445.033037 23.521421 
Q 447.861832 25.421008 450.477876 29.176513 
L 450.477876 50.246643 
Q 447.838193 45.268416 445.277306 42.953976 
Q 442.71642 40.639537 439.887625 40.639537 
Q 434.813129 40.639537 431.905538 49.657116 
Q 429.005826 58.652861 429.005826 74.482751 
Q 429.005826 90.247139 431.905538 99.264718 
Q 434.813129 108.260463 439.887625 108.260463 
Q 442.71642 108.260463 445.277306 105.946024 
Q 447.838193 103.60975 450.477876 98.631522 
z
" style="fill:#0000ff;"/>
   </g>
   <g id="patch_29">
    <path clip-path="url(#p93fa3f6c19)" d="M 483.39823 156.417641 
Q 480.782186 156.954142 477.953391 157.225511 
Q 475.124596 157.5 472.043652 157.5 
Q 462.855979 157.5 457.489936 155.466288 
Q 452.123894 153.432576 452.123894 149.954679 
Q 452.123894 146.464305 457.489936 144.433712 
Q 462.855979 142.4 472.043652 142.4 
Q 475.124596 142.4 477.953391 142.674489 
Q 480.782186 142.945858 483.39823 143.482359 
L 483.39823 146.492378 
Q 480.758547 145.781202 478.19766 145.450568 
Q 475.636773 145.119934 472.807979 145.119934 
Q 467.733483 145.119934 464.825892 146.408159 
Q 461.92618 147.693266 461.92618 149.954679 
Q 461.92618 152.206734 464.825892 153.49496 
Q 467.733483 154.780066 472.807979 154.780066 
Q 475.636773 154.780066 478.19766 154.449432 
Q 480.758547 154.115679 483.39823 153.404503 
z
" style="fill:#0000ff;"/>
   </g>
   <g id="patch_30">
    <path clip-path="url(#p93fa3f6c19)" d="M 473.787654 131.397 
L 461.760047 131.397 
L 459.860951 142.4 
L 452.123894 142.4 
L 463.173179 82 
L 472.348945 82 
L 483.39823 142.4 
L 475.667567 142.4 
z
M 463.678326 120.186884 
L 471.850193 120.186884 
L 467.770653 96.161509 
z
" style="fill:#008000;"/>
   </g>
   <g id="patch_31">
    <path clip-path="url(#p93fa3f6c19)" d="M 483.39823 76.535179 
Q 480.244162 79.267589 476.851787 80.640033 
Q 473.459411 82 469.842747 82 
Q 461.670206 82 456.89705 73.865152 
Q 452.123894 65.730304 452.123894 51.818715 
Q 452.123894 37.744929 456.981158 29.672464 
Q 461.845432 21.6 470.305343 21.6 
Q 473.564547 21.6 476.550398 22.697955 
Q 479.543258 23.783433 482.192675 25.929436 
L 482.192675 37.96951 
Q 479.45915 35.212146 476.75366 33.852179 
Q 474.048171 32.479736 471.328663 32.479736 
Q 466.296173 32.479736 463.569656 37.495394 
Q 460.84314 42.498575 460.84314 51.818715 
Q 460.84314 61.051518 463.471529 66.09213 
Q 466.099919 71.120264 470.936157 71.120264 
Q 472.253857 71.120264 473.382312 70.833299 
Q 474.510767 70.533857 475.407925 69.910019 
L 475.407925 58.606073 
L 470.25628 58.606073 
L 470.25628 48.537327 
L 483.39823 48.537327 
z
" style="fill:#ffa600;"/>
   </g>
   <g id="patch_32">
    <path clip-path="url(#p93fa3f6c19)" d="M 516.318584 156.133795 
Q 513.164516 156.816897 509.772141 157.160008 
Q 506.379765 157.5 502.763101 157.5 
Q 494.59056 157.5 489.817404 155.466288 
Q 485.044248 153.432576 485.044248 149.954679 
Q 485.044248 146.436232 489.901512 144.418116 
Q 494.765786 142.4 503.225697 142.4 
Q 506.484901 142.4 509.470752 142.674489 
Q 512.463612 142.945858 515.113029 143.482359 
L 515.113029 146.492378 
Q 512.379504 145.803037 509.674014 145.463045 
Q 506.968525 145.119934 504.249017 145.119934 
Q 499.216527 145.119934 496.49001 146.373848 
Q 493.763493 147.624644 493.763493 149.954679 
Q 493.763493 152.26288 496.391883 153.523032 
Q 499.020273 154.780066 503.856511 154.780066 
Q 505.174211 154.780066 506.302666 154.708325 
Q 507.431121 154.633464 508.328279 154.477505 
L 508.328279 151.651518 
L 503.176634 151.651518 
L 503.176634 149.134332 
L 516.318584 149.134332 
z
" style="fill:#ffa600;"/>
   </g>
   <g id="patch_33">
    <path clip-path="url(#p93fa3f6c19)" d="M 516.318584 140.235282 
Q 513.70254 141.308283 510.873745 141.851023 
Q 508.04495 142.4 504.964006 142.4 
Q 495.776333 142.4 490.41029 138.332576 
Q 485.044248 134.265152 485.044248 127.309358 
Q 485.044248 120.32861 490.41029 116.267424 
Q 495.776333 112.2 504.964006 112.2 
Q 508.04495 112.2 510.873745 112.748977 
Q 513.70254 113.291717 516.318584 114.364718 
L 516.318584 120.384755 
Q 513.678901 118.962404 511.118014 118.301136 
Q 508.557127 117.639868 505.728333 117.639868 
Q 500.653837 117.639868 497.746246 120.216319 
Q 494.846534 122.786532 494.846534 127.309358 
Q 494.846534 131.813468 497.746246 134.389919 
Q 500.653837 136.960132 505.728333 136.960132 
Q 508.557127 136.960132 511.118014 136.298864 
Q 513.678901 135.631357 516.318584 134.209006 
z
" style="fill:#0000ff;"/>
   </g>
   <g id="patch_34">
    <path clip-path="url(#p93fa3f6c19)" d="M 506.708008 103.94775 
L 494.680401 103.94775 
L 492.781305 112.2 
L 485.044248 112.2 
L 496.093533 66.9 
L 505.269299 66.9 
L 516.318584 112.2 
L 508.587921 112.2 
z
M 496.59868 95.540163 
L 504.770547 95.540163 
L 500.691007 77.521132 
z
" style="fill:#008000;"/>
   </g>
   <g id="patch_35">
    <path clip-path="url(#p93fa3f6c19)" d="M 485.044248 21.6 
L 516.318584 21.6 
L 516.318584 30.434762 
L 505.067096 30.434762 
L 505.067096 66.9 
L 496.317555 66.9 
L 496.317555 30.434762 
L 485.044248 30.434762 
z
" style="fill:#ff0000;"/>
   </g>
   <g id="patch_36">
    <path clip-path="url(#p93fa3f6c19)" d="M 517.964602 97.1 
L 549.238938 97.1 
L 549.238938 108.879683 
L 537.98745 108.879683 
L 537.98745 157.5 
L 529.237909 157.5 
L 529.237909 108.879683 
L 517.964602 108.879683 
z
" style="fill:#ff0000;"/>
   </g>
   <g id="patch_37">
    <path clip-path="url(#p93fa3f6c19)" d="M 549.238938 91.688205 
Q 546.622894 94.370709 543.794099 95.727556 
Q 540.965304 97.1 537.88436 97.1 
Q 528.696687 97.1 523.330644 86.93144 
Q 517.964602 76.76288 517.964602 59.373394 
Q 517.964602 41.921524 523.330644 31.76856 
Q 528.696687 21.6 537.88436 21.6 
Q 540.965304 21.6 543.794099 22.972444 
Q 546.622894 24.329291 549.238938 27.011795 
L 549.238938 42.061888 
Q 546.599255 38.506011 544.038368 36.85284 
Q 541.477481 35.199669 538.648687 35.199669 
Q 533.574191 35.199669 530.6666 41.640797 
Q 527.766888 48.066329 527.766888 59.373394 
Q 527.766888 70.633671 530.6666 77.074799 
Q 533.574191 83.500331 538.648687 83.500331 
Q 541.477481 83.500331 544.038368 81.84716 
Q 546.599255 80.178393 549.238938 76.622516 
z
" style="fill:#0000ff;"/>
   </g>
   <g id="patch_38">
    <path clip-path="url(#p93fa3f6c19)" d="M 572.548716 151.9985 
L 560.521109 151.9985 
L 558.622013 157.5 
L 550.884956 157.5 
L 561.934241 127.3 
L 571.110007 127.3 
L 582.159292 157.5 
L 574.428629 157.5 
z
M 562.439387 146.393442 
L 570.611255 146.393442 
L 566.531715 134.380754 
z
" style="fill:#008000;"/>
   </g>
   <g id="patch_39">
    <path clip-path="url(#p93fa3f6c19)" d="M 582.159292 123.201384 
Q 579.005224 125.250692 575.612849 126.280025 
Q 572.220473 127.3 568.603809 127.3 
Q 560.431268 127.3 555.658112 121.198864 
Q 550.884956 115.097728 550.884956 104.664036 
Q 550.884956 94.108697 555.74222 88.054348 
Q 560.606494 82 569.066405 82 
Q 572.325609 82 575.31146 82.823466 
Q 578.30432 83.637575 580.953737 85.247077 
L 580.953737 94.277133 
Q 578.220212 92.20911 575.514722 91.189134 
Q 572.809233 90.159802 570.089725 90.159802 
Q 565.057235 90.159802 562.330718 93.921545 
Q 559.604201 97.673931 559.604201 104.664036 
Q 559.604201 111.588639 562.232591 115.369097 
Q 564.860981 119.140198 569.697219 119.140198 
Q 571.014919 119.140198 572.143374 118.924974 
Q 573.271829 118.700392 574.168986 118.232514 
L 574.168986 109.754555 
L 569.017342 109.754555 
L 569.017342 102.202995 
L 582.159292 102.202995 
z
" style="fill:#ffa600;"/>
   </g>
   <g id="patch_40">
    <path clip-path="url(#p93fa3f6c19)" d="M 582.159292 77.670564 
Q 579.543248 79.816567 576.714453 80.902045 
Q 573.885658 82 570.804714 82 
Q 561.617041 82 556.250998 73.865152 
Q 550.884956 65.730304 550.884956 51.818715 
Q 550.884956 37.85722 556.250998 29.734848 
Q 561.617041 21.6 570.804714 21.6 
Q 573.885658 21.6 576.714453 22.697955 
Q 579.543248 23.783433 582.159292 25.929436 
L 582.159292 37.96951 
Q 579.519609 35.124809 576.958722 33.802272 
Q 574.397835 32.479736 571.569041 32.479736 
Q 566.494545 32.479736 563.586954 37.632638 
Q 560.687242 42.773063 560.687242 51.818715 
Q 560.687242 60.826937 563.586954 65.979839 
Q 566.494545 71.120264 571.569041 71.120264 
Q 574.397835 71.120264 576.958722 69.797728 
Q 579.519609 68.462714 582.159292 65.618013 
z
" style="fill:#0000ff;"/>
   </g>
   <g id="patch_41">
    <path clip-path="url(#p93fa3f6c19)" d="M 605.46907 151.9985 
L 593.441463 151.9985 
L 591.542367 157.5 
L 583.80531 157.5 
L 594.854595 127.3 
L 604.030361 127.3 
L 615.079646 157.5 
L 607.348983 157.5 
z
M 595.359741 146.393442 
L 603.531609 146.393442 
L 599.452069 134.380754 
z
" style="fill:#008000;"/>
   </g>
   <g id="patch_42">
    <path clip-path="url(#p93fa3f6c19)" d="M 615.079646 117.736563 
Q 611.925578 122.518281 608.533203 124.920058 
Q 605.140827 127.3 601.524163 127.3 
Q 593.351622 127.3 588.578466 113.064016 
Q 583.80531 98.828031 583.80531 74.482751 
Q 583.80531 49.853625 588.662574 35.726813 
Q 593.526848 21.6 601.986759 21.6 
Q 605.245963 21.6 608.231814 23.521421 
Q 611.224674 25.421008 613.874091 29.176513 
L 613.874091 50.246643 
Q 611.140566 45.421256 608.435076 43.041314 
Q 605.729587 40.639537 603.010079 40.639537 
Q 597.977589 40.639537 595.251072 49.416939 
Q 592.524555 58.172506 592.524555 74.482751 
Q 592.524555 90.640157 595.152945 99.461227 
Q 597.781335 108.260463 602.617573 108.260463 
Q 603.935272 108.260463 605.063728 107.758273 
Q 606.192183 107.234249 607.08934 106.142533 
L 607.08934 86.360628 
L 601.937696 86.360628 
L 601.937696 68.740322 
L 615.079646 68.740322 
z
" style="fill:#ffa600;"/>
   </g>
   <g id="patch_43">
    <path clip-path="url(#p93fa3f6c19)" d="M 648 155.335282 
Q 645.383956 156.408283 642.555161 156.951023 
Q 639.726366 157.5 636.645422 157.5 
Q 627.457749 157.5 622.091706 153.432576 
Q 616.725664 149.365152 616.725664 142.409358 
Q 616.725664 135.42861 622.091706 131.367424 
Q 627.457749 127.3 636.645422 127.3 
Q 639.726366 127.3 642.555161 127.848977 
Q 645.383956 128.391717 648 129.464718 
L 648 135.484755 
Q 645.360317 134.062404 642.79943 133.401136 
Q 640.238543 132.739868 637.409749 132.739868 
Q 632.335253 132.739868 629.427662 135.316319 
Q 626.52795 137.886532 626.52795 142.409358 
Q 626.52795 146.913468 629.427662 149.489919 
Q 632.335253 152.060132 637.409749 152.060132 
Q 640.238543 152.060132 642.79943 151.398864 
Q 645.360317 150.731357 648 149.309006 
z
" style="fill:#0000ff;"/>
   </g>
   <g id="patch_44">
    <path clip-path="url(#p93fa3f6c19)" d="M 616.725664 97.1 
L 648 97.1 
L 648 102.989841 
L 636.748512 102.989841 
L 636.748512 127.3 
L 627.998971 127.3 
L 627.998971 102.989841 
L 616.725664 102.989841 
z
" style="fill:#ff0000;"/>
   </g>
   <g id="patch_45">
    <path clip-path="url(#p93fa3f6c19)" d="M 648 90.268973 
Q 644.845932 93.684487 641.453557 95.400041 
Q 638.061181 97.1 634.444517 97.1 
Q 626.271976 97.1 621.49882 86.93144 
Q 616.725664 76.76288 616.725664 59.373394 
Q 616.725664 41.781161 621.582928 31.69058 
Q 626.447202 21.6 634.907113 21.6 
Q 638.166317 21.6 641.152168 22.972444 
Q 644.145028 24.329291 646.794445 27.011795 
L 646.794445 42.061888 
Q 644.06092 38.615183 641.35543 36.915224 
Q 638.649941 35.199669 635.930433 35.199669 
Q 630.897943 35.199669 628.171426 41.469242 
Q 625.444909 47.723218 625.444909 59.373394 
Q 625.444909 70.914398 628.073299 77.215162 
Q 630.701689 83.500331 635.537927 83.500331 
Q 636.855626 83.500331 637.984082 83.141624 
Q 639.112537 82.767321 640.009694 81.987523 
L 640.009694 67.857591 
L 634.85805 67.857591 
L 634.85805 55.271659 
L 648 55.271659 
z
" style="fill:#ffa600;"/>
   </g>
  </g>
 </g>
 <defs>
  <clipPath id="p93fa3f6c19">
   <rect height="135.9" width="558" x="90" y="21.6"/>
  </clipPath>
 </defs>
</svg>
