<?xml version="1.0" encoding="utf-8" standalone="no"?>
<!DOCTYPE svg PUBLIC "-//W3C//DTD SVG 1.1//EN"
  "http://www.w3.org/Graphics/SVG/1.1/DTD/svg11.dtd">
<!-- Created with matplotlib (https://matplotlib.org/) -->
<svg height="180pt" version="1.1" viewBox="0 0 720 180" width="720pt" xmlns="http://www.w3.org/2000/svg" xmlns:xlink="http://www.w3.org/1999/xlink">
 <metadata>
  <rdf:RDF xmlns:cc="http://creativecommons.org/ns#" xmlns:dc="http://purl.org/dc/elements/1.1/" xmlns:rdf="http://www.w3.org/1999/02/22-rdf-syntax-ns#">
   <cc:Work>
    <dc:type rdf:resource="http://purl.org/dc/dcmitype/StillImage"/>
    <dc:date>2021-08-04T23:33:21.608903</dc:date>
    <dc:format>image/svg+xml</dc:format>
    <dc:creator>
     <cc:Agent>
      <dc:title>Matplotlib v3.3.2, https://matplotlib.org/</dc:title>
     </cc:Agent>
    </dc:creator>
   </cc:Work>
  </rdf:RDF>
 </metadata>
 <defs>
  <style type="text/css">*{stroke-linecap:butt;stroke-linejoin:round;}</style>
 </defs>
 <g id="figure_1">
  <g id="patch_1">
   <path d="M 0 180 
L 720 180 
L 720 0 
L 0 0 
z
" style="fill:none;"/>
  </g>
  <g id="axes_1">
   <g id="line2d_1">
    <path clip-path="url(#p45509a5641)" d="M 90 157.5 
L 648 157.5 
" style="fill:none;stroke:#000000;stroke-linecap:square;stroke-width:0.5;"/>
   </g>
   <g id="patch_2">
    <path clip-path="url(#p45509a5641)" d="M 121.274336 156.417641 
Q 118.658292 156.954142 115.829497 157.225511 
Q 113.000702 157.5 109.919759 157.5 
Q 100.732085 157.5 95.366043 155.466288 
Q 90 153.432576 90 149.954679 
Q 90 146.464305 95.366043 144.433712 
Q 100.732085 142.4 109.919759 142.4 
Q 113.000702 142.4 115.829497 142.674489 
Q 118.658292 142.945858 121.274336 143.482359 
L 121.274336 146.492378 
Q 118.634653 145.781202 116.073766 145.450568 
Q 113.51288 145.119934 110.684085 145.119934 
Q 105.609589 145.119934 102.701998 146.408159 
Q 99.802286 147.693266 99.802286 149.954679 
Q 99.802286 152.206734 102.701998 153.49496 
Q 105.609589 154.780066 110.684085 154.780066 
Q 113.51288 154.780066 116.073766 154.449432 
Q 118.634653 154.115679 121.274336 153.404503 
z
" style="fill:#0000ff;"/>
   </g>
   <g id="patch_3">
    <path clip-path="url(#p45509a5641)" d="M 111.66376 136.8985 
L 99.636153 136.8985 
L 97.737057 142.4 
L 90 142.4 
L 101.049285 112.2 
L 110.225051 112.2 
L 121.274336 142.4 
L 113.543673 142.4 
z
M 101.554432 131.293442 
L 109.726299 131.293442 
L 105.64676 119.280754 
z
" style="fill:#008000;"/>
   </g>
   <g id="patch_4">
    <path clip-path="url(#p45509a5641)" d="M 121.274336 108.101384 
Q 118.120268 110.150692 114.727893 111.180025 
Q 111.335518 112.2 107.718853 112.2 
Q 99.546312 112.2 94.773156 106.098864 
Q 90 99.997728 90 89.564036 
Q 90 79.008697 94.857265 72.954348 
Q 99.721538 66.9 108.18145 66.9 
Q 111.440653 66.9 114.426504 67.723466 
Q 117.419364 68.537575 120.068781 70.147077 
L 120.068781 79.177133 
Q 117.335256 77.10911 114.629766 76.089134 
Q 111.924277 75.059802 109.204769 75.059802 
Q 104.172279 75.059802 101.445762 78.821545 
Q 98.719246 82.573931 98.719246 89.564036 
Q 98.719246 96.488639 101.347636 100.269097 
Q 103.976026 104.040198 108.812263 104.040198 
Q 110.129963 104.040198 111.258418 103.824974 
Q 112.386874 103.600392 113.284031 103.132514 
L 113.284031 94.654555 
L 108.132386 94.654555 
L 108.132386 87.102995 
L 121.274336 87.102995 
z
" style="fill:#ffa600;"/>
   </g>
   <g id="patch_5">
    <path clip-path="url(#p45509a5641)" d="M 90 21.6 
L 121.274336 21.6 
L 121.274336 30.434762 
L 110.022848 30.434762 
L 110.022848 66.9 
L 101.273307 66.9 
L 101.273307 30.434762 
L 90 30.434762 
z
" style="fill:#ff0000;"/>
   </g>
   <g id="patch_6">
    <path clip-path="url(#p45509a5641)" d="M 144.584114 151.9985 
L 132.556507 151.9985 
L 130.657411 157.5 
L 122.920354 157.5 
L 133.969639 127.3 
L 143.145405 127.3 
L 154.19469 157.5 
L 146.464027 157.5 
z
M 134.474786 146.393442 
L 142.646653 146.393442 
L 138.567114 134.380754 
z
" style="fill:#008000;"/>
   </g>
   <g id="patch_7">
    <path clip-path="url(#p45509a5641)" d="M 154.19469 124.052923 
Q 151.578646 125.662425 148.749851 126.476534 
Q 145.921056 127.3 142.840113 127.3 
Q 133.652439 127.3 128.286397 121.198864 
Q 122.920354 115.097728 122.920354 104.664036 
Q 122.920354 94.192915 128.286397 88.101136 
Q 133.652439 82 142.840113 82 
Q 145.921056 82 148.749851 82.823466 
Q 151.578646 83.637575 154.19469 85.247077 
L 154.19469 94.277133 
Q 151.555007 92.143607 148.99412 91.151704 
Q 146.433234 90.159802 143.604439 90.159802 
Q 138.529943 90.159802 135.622352 94.024478 
Q 132.72264 97.879798 132.72264 104.664036 
Q 132.72264 111.420202 135.622352 115.284879 
Q 138.529943 119.140198 143.604439 119.140198 
Q 146.433234 119.140198 148.99412 118.148296 
Q 151.555007 117.147036 154.19469 115.01351 
z
" style="fill:#0000ff;"/>
   </g>
   <g id="patch_8">
    <path clip-path="url(#p45509a5641)" d="M 122.920354 21.6 
L 154.19469 21.6 
L 154.19469 33.379683 
L 142.943202 33.379683 
L 142.943202 82 
L 134.193661 82 
L 134.193661 33.379683 
L 122.920354 33.379683 
z
" style="fill:#ff0000;"/>
   </g>
   <g id="patch_9">
    <path clip-path="url(#p45509a5641)" d="M 187.115044 156.133795 
Q 183.960976 156.816897 180.568601 157.160008 
Q 177.176226 157.5 173.559561 157.5 
Q 165.38702 157.5 160.613864 155.466288 
Q 155.840708 153.432576 155.840708 149.954679 
Q 155.840708 146.436232 160.697973 144.418116 
Q 165.562246 142.4 174.022158 142.4 
Q 177.281361 142.4 180.267212 142.674489 
Q 183.260072 142.945858 185.909489 143.482359 
L 185.909489 146.492378 
Q 183.175964 145.803037 180.470474 145.463045 
Q 177.764985 145.119934 175.045477 145.119934 
Q 170.012987 145.119934 167.28647 146.373848 
Q 164.559954 147.624644 164.559954 149.954679 
Q 164.559954 152.26288 167.188344 153.523032 
Q 169.816734 154.780066 174.652971 154.780066 
Q 175.970671 154.780066 177.099126 154.708325 
Q 178.227582 154.633464 179.124739 154.477505 
L 179.124739 151.651518 
L 173.973094 151.651518 
L 173.973094 149.134332 
L 187.115044 149.134332 
z
" style="fill:#ffa600;"/>
   </g>
   <g id="patch_10">
    <path clip-path="url(#p45509a5641)" d="M 187.115044 140.235282 
Q 184.499 141.308283 181.670205 141.851023 
Q 178.84141 142.4 175.760467 142.4 
Q 166.572793 142.4 161.206751 138.332576 
Q 155.840708 134.265152 155.840708 127.309358 
Q 155.840708 120.32861 161.206751 116.267424 
Q 166.572793 112.2 175.760467 112.2 
Q 178.84141 112.2 181.670205 112.748977 
Q 184.499 113.291717 187.115044 114.364718 
L 187.115044 120.384755 
Q 184.475361 118.962404 181.914474 118.301136 
Q 179.353588 117.639868 176.524793 117.639868 
Q 171.450297 117.639868 168.542706 120.216319 
Q 165.642994 122.786532 165.642994 127.309358 
Q 165.642994 131.813468 168.542706 134.389919 
Q 171.450297 136.960132 176.524793 136.960132 
Q 179.353588 136.960132 181.914474 136.298864 
Q 184.475361 135.631357 187.115044 134.209006 
z
" style="fill:#0000ff;"/>
   </g>
   <g id="patch_11">
    <path clip-path="url(#p45509a5641)" d="M 155.840708 82 
L 187.115044 82 
L 187.115044 87.889841 
L 175.863556 87.889841 
L 175.863556 112.2 
L 167.114015 112.2 
L 167.114015 87.889841 
L 155.840708 87.889841 
z
" style="fill:#ff0000;"/>
   </g>
   <g id="patch_12">
    <path clip-path="url(#p45509a5641)" d="M 177.504468 70.997 
L 165.476861 70.997 
L 163.577765 82 
L 155.840708 82 
L 166.889993 21.6 
L 176.065759 21.6 
L 187.115044 82 
L 179.384381 82 
z
M 167.39514 59.786884 
L 175.567007 59.786884 
L 171.487467 35.761509 
z
" style="fill:#008000;"/>
   </g>
   <g id="patch_13">
    <path clip-path="url(#p45509a5641)" d="M 220.035398 153.401384 
Q 216.88133 155.450692 213.488955 156.480025 
Q 210.09658 157.5 206.479915 157.5 
Q 198.307374 157.5 193.534218 151.398864 
Q 188.761062 145.297728 188.761062 134.864036 
Q 188.761062 124.308697 193.618327 118.254348 
Q 198.4826 112.2 206.942512 112.2 
Q 210.201715 112.2 213.187566 113.023466 
Q 216.180426 113.837575 218.829843 115.447077 
L 218.829843 124.477133 
Q 216.096318 122.40911 213.390828 121.389134 
Q 210.685339 120.359802 207.965831 120.359802 
Q 202.933341 120.359802 200.206824 124.121545 
Q 197.480308 127.873931 197.480308 134.864036 
Q 197.480308 141.788639 200.108698 145.569097 
Q 202.737088 149.340198 207.573325 149.340198 
Q 208.891025 149.340198 210.01948 149.124974 
Q 211.147936 148.900392 212.045093 148.432514 
L 212.045093 139.954555 
L 206.893448 139.954555 
L 206.893448 132.402995 
L 220.035398 132.402995 
z
" style="fill:#ffa600;"/>
   </g>
   <g id="patch_14">
    <path clip-path="url(#p45509a5641)" d="M 210.424822 95.695499 
L 198.397215 95.695499 
L 196.498119 112.2 
L 188.761062 112.2 
L 199.810347 21.6 
L 208.986113 21.6 
L 220.035398 112.2 
L 212.304735 112.2 
z
M 200.315494 78.880326 
L 208.487361 78.880326 
L 204.407821 42.842263 
z
" style="fill:#008000;"/>
   </g>
   <g id="patch_15">
    <path clip-path="url(#p45509a5641)" d="M 221.681416 142.4 
L 252.955752 142.4 
L 252.955752 145.344921 
L 241.704264 145.344921 
L 241.704264 157.5 
L 232.954723 157.5 
L 232.954723 145.344921 
L 221.681416 145.344921 
z
" style="fill:#ff0000;"/>
   </g>
   <g id="patch_16">
    <path clip-path="url(#p45509a5641)" d="M 252.955752 140.235282 
Q 250.339708 141.308283 247.510913 141.851023 
Q 244.682118 142.4 241.601175 142.4 
Q 232.413501 142.4 227.047459 138.332576 
Q 221.681416 134.265152 221.681416 127.309358 
Q 221.681416 120.32861 227.047459 116.267424 
Q 232.413501 112.2 241.601175 112.2 
Q 244.682118 112.2 247.510913 112.748977 
Q 250.339708 113.291717 252.955752 114.364718 
L 252.955752 120.384755 
Q 250.316069 118.962404 247.755182 118.301136 
Q 245.194296 117.639868 242.365501 117.639868 
Q 237.291005 117.639868 234.383414 120.216319 
Q 231.483702 122.786532 231.483702 127.309358 
Q 231.483702 131.813468 234.383414 134.389919 
Q 237.291005 136.960132 242.365501 136.960132 
Q 245.194296 136.960132 247.755182 136.298864 
Q 250.316069 135.631357 252.955752 134.209006 
z
" style="fill:#0000ff;"/>
   </g>
   <g id="patch_17">
    <path clip-path="url(#p45509a5641)" d="M 243.345176 103.94775 
L 231.317569 103.94775 
L 229.418473 112.2 
L 221.681416 112.2 
L 232.730701 66.9 
L 241.906467 66.9 
L 252.955752 112.2 
L 245.225089 112.2 
z
M 233.235848 95.540163 
L 241.407715 95.540163 
L 237.328175 77.521132 
z
" style="fill:#008000;"/>
   </g>
   <g id="patch_18">
    <path clip-path="url(#p45509a5641)" d="M 252.955752 62.801384 
Q 249.801684 64.850692 246.409309 65.880025 
Q 243.016934 66.9 239.400269 66.9 
Q 231.227728 66.9 226.454572 60.798864 
Q 221.681416 54.697728 221.681416 44.264036 
Q 221.681416 33.708697 226.538681 27.654348 
Q 231.402954 21.6 239.862866 21.6 
Q 243.122069 21.6 246.10792 22.423466 
Q 249.10078 23.237575 251.750197 24.847077 
L 251.750197 33.877133 
Q 249.016672 31.80911 246.311182 30.789134 
Q 243.605693 29.759802 240.886185 29.759802 
Q 235.853695 29.759802 233.127178 33.521545 
Q 230.400662 37.273931 230.400662 44.264036 
Q 230.400662 51.188639 233.029052 54.969097 
Q 235.657442 58.740198 240.493679 58.740198 
Q 241.811379 58.740198 242.939834 58.524974 
Q 244.06829 58.300392 244.965447 57.832514 
L 244.965447 49.354555 
L 239.813802 49.354555 
L 239.813802 41.802995 
L 252.955752 41.802995 
z
" style="fill:#ffa600;"/>
   </g>
   <g id="patch_19">
    <path clip-path="url(#p45509a5641)" d="M 276.26553 151.9985 
L 264.237923 151.9985 
L 262.338827 157.5 
L 254.60177 157.5 
L 265.651055 127.3 
L 274.826821 127.3 
L 285.876106 157.5 
L 278.145443 157.5 
z
M 266.156202 146.393442 
L 274.328069 146.393442 
L 270.248529 134.380754 
z
" style="fill:#008000;"/>
   </g>
   <g id="patch_20">
    <path clip-path="url(#p45509a5641)" d="M 285.876106 124.567589 
Q 282.722038 125.933795 279.329663 126.620017 
Q 275.937288 127.3 272.320623 127.3 
Q 264.148082 127.3 259.374926 123.232576 
Q 254.60177 119.165152 254.60177 112.209358 
Q 254.60177 105.172464 259.459035 101.136232 
Q 264.323308 97.1 272.78322 97.1 
Q 276.042423 97.1 279.028274 97.648977 
Q 282.021134 98.191717 284.670551 99.264718 
L 284.670551 105.284755 
Q 281.937026 103.906073 279.231536 103.22609 
Q 276.526047 102.539868 273.806539 102.539868 
Q 268.774049 102.539868 266.047532 105.047697 
Q 263.321016 107.549287 263.321016 112.209358 
Q 263.321016 116.825759 265.949406 119.346065 
Q 268.577796 121.860132 273.414033 121.860132 
Q 274.731733 121.860132 275.860188 121.716649 
Q 276.988644 121.566928 277.885801 121.255009 
L 277.885801 115.603037 
L 272.734156 115.603037 
L 272.734156 110.568663 
L 285.876106 110.568663 
z
" style="fill:#ffa600;"/>
   </g>
   <g id="patch_21">
    <path clip-path="url(#p45509a5641)" d="M 285.876106 91.688205 
Q 283.260062 94.370709 280.431267 95.727556 
Q 277.602472 97.1 274.521529 97.1 
Q 265.333855 97.1 259.967812 86.93144 
Q 254.60177 76.76288 254.60177 59.373394 
Q 254.60177 41.921524 259.967812 31.76856 
Q 265.333855 21.6 274.521529 21.6 
Q 277.602472 21.6 280.431267 22.972444 
Q 283.260062 24.329291 285.876106 27.011795 
L 285.876106 42.061888 
Q 283.236423 38.506011 280.675536 36.85284 
Q 278.11465 35.199669 275.285855 35.199669 
Q 270.211359 35.199669 267.303768 41.640797 
Q 264.404056 48.066329 264.404056 59.373394 
Q 264.404056 70.633671 267.303768 77.074799 
Q 270.211359 83.500331 275.285855 83.500331 
Q 278.11465 83.500331 280.675536 81.84716 
Q 283.236423 80.178393 285.876106 76.622516 
z
" style="fill:#0000ff;"/>
   </g>
   <g id="patch_22">
    <path clip-path="url(#p45509a5641)" d="M 309.185884 132.743249 
L 297.158277 132.743249 
L 295.259181 157.5 
L 287.522124 157.5 
L 298.571409 21.6 
L 307.747175 21.6 
L 318.79646 157.5 
L 311.065797 157.5 
z
M 299.076556 107.520489 
L 307.248423 107.520489 
L 303.168883 53.463395 
z
" style="fill:#008000;"/>
   </g>
   <g id="patch_23">
    <path clip-path="url(#p45509a5641)" d="M 342.106238 154.74925 
L 330.078631 154.74925 
L 328.179535 157.5 
L 320.442478 157.5 
L 331.491763 142.4 
L 340.667529 142.4 
L 351.716814 157.5 
L 343.986151 157.5 
z
M 331.99691 151.946721 
L 340.168777 151.946721 
L 336.089237 145.940377 
z
" style="fill:#008000;"/>
   </g>
   <g id="patch_24">
    <path clip-path="url(#p45509a5641)" d="M 320.442478 21.6 
L 351.716814 21.6 
L 351.716814 45.159366 
L 340.465326 45.159366 
L 340.465326 142.4 
L 331.715785 142.4 
L 331.715785 45.159366 
L 320.442478 45.159366 
z
" style="fill:#ff0000;"/>
   </g>
   <g id="patch_25">
    <path clip-path="url(#p45509a5641)" d="M 375.026592 154.74925 
L 362.998985 154.74925 
L 361.099889 157.5 
L 353.362832 157.5 
L 364.412117 142.4 
L 373.587883 142.4 
L 384.637168 157.5 
L 376.906505 157.5 
z
M 364.917264 151.946721 
L 373.089131 151.946721 
L 369.009591 145.940377 
z
" style="fill:#008000;"/>
   </g>
   <g id="patch_26">
    <path clip-path="url(#p45509a5641)" d="M 384.637168 131.470357 
Q 381.4831 136.935179 378.090725 139.680066 
Q 374.698349 142.4 371.081685 142.4 
Q 362.909144 142.4 358.135988 126.130304 
Q 353.362832 109.860607 353.362832 82.03743 
Q 353.362832 53.889857 358.220097 37.744929 
Q 363.08437 21.6 371.544282 21.6 
Q 374.803485 21.6 377.789336 23.79591 
Q 380.782196 25.966866 383.431613 30.258872 
L 383.431613 54.339021 
Q 380.698088 48.824293 377.992598 46.104359 
Q 375.287109 43.359471 372.567601 43.359471 
Q 367.535111 43.359471 364.808594 53.390787 
Q 362.082078 63.397149 362.082078 82.03743 
Q 362.082078 100.503037 364.710468 110.584259 
Q 367.338858 120.640529 372.175095 120.640529 
Q 373.492795 120.640529 374.62125 120.066598 
Q 375.749705 119.467713 376.646863 118.220037 
L 376.646863 95.612146 
L 371.495218 95.612146 
L 371.495218 75.474654 
L 384.637168 75.474654 
z
" style="fill:#ffa600;"/>
   </g>
   <g id="patch_27">
    <path clip-path="url(#p45509a5641)" d="M 407.946946 132.743249 
L 395.919339 132.743249 
L 394.020243 157.5 
L 386.283186 157.5 
L 397.332471 21.6 
L 406.508237 21.6 
L 417.557522 157.5 
L 409.826859 157.5 
z
M 397.837618 107.520489 
L 406.009485 107.520489 
L 401.929945 53.463395 
z
" style="fill:#008000;"/>
   </g>
   <g id="patch_28">
    <path clip-path="url(#p45509a5641)" d="M 419.20354 21.6 
L 450.477876 21.6 
L 450.477876 48.104286 
L 439.226388 48.104286 
L 439.226388 157.5 
L 430.476847 157.5 
L 430.476847 48.104286 
L 419.20354 48.104286 
z
" style="fill:#ff0000;"/>
   </g>
   <g id="patch_29">
    <path clip-path="url(#p45509a5641)" d="M 483.39823 145.204152 
Q 480.244162 151.352076 476.851787 154.440074 
Q 473.459411 157.5 469.842747 157.5 
Q 461.670206 157.5 456.89705 139.196592 
Q 452.123894 120.893183 452.123894 89.592109 
Q 452.123894 57.92609 456.981158 39.763045 
Q 461.845432 21.6 470.305343 21.6 
Q 473.564547 21.6 476.550398 24.070399 
Q 479.543258 26.512725 482.192675 31.341231 
L 482.192675 58.431398 
Q 479.45915 52.227329 476.75366 49.167403 
Q 474.048171 46.079405 471.328663 46.079405 
Q 466.296173 46.079405 463.569656 57.364635 
Q 460.84314 68.621793 460.84314 89.592109 
Q 460.84314 110.365916 463.471529 121.707292 
Q 466.099919 133.020595 470.936157 133.020595 
Q 472.253857 133.020595 473.382312 132.374923 
Q 474.510767 131.701177 475.407925 130.297542 
L 475.407925 104.863665 
L 470.25628 104.863665 
L 470.25628 82.208986 
L 483.39823 82.208986 
z
" style="fill:#ffa600;"/>
   </g>
   <g id="patch_30">
    <path clip-path="url(#p45509a5641)" d="M 516.318584 145.204152 
Q 513.164516 151.352076 509.772141 154.440074 
Q 506.379765 157.5 502.763101 157.5 
Q 494.59056 157.5 489.817404 139.196592 
Q 485.044248 120.893183 485.044248 89.592109 
Q 485.044248 57.92609 489.901512 39.763045 
Q 494.765786 21.6 503.225697 21.6 
Q 506.484901 21.6 509.470752 24.070399 
Q 512.463612 26.512725 515.113029 31.341231 
L 515.113029 58.431398 
Q 512.379504 52.227329 509.674014 49.167403 
Q 506.968525 46.079405 504.249017 46.079405 
Q 499.216527 46.079405 496.49001 57.364635 
Q 493.763493 68.621793 493.763493 89.592109 
Q 493.763493 110.365916 496.391883 121.707292 
Q 499.020273 133.020595 503.856511 133.020595 
Q 505.174211 133.020595 506.302666 132.374923 
Q 507.431121 131.701177 508.328279 130.297542 
L 508.328279 104.863665 
L 503.176634 104.863665 
L 503.176634 82.208986 
L 516.318584 82.208986 
z
" style="fill:#ffa600;"/>
   </g>
   <g id="patch_31">
    <path clip-path="url(#p45509a5641)" d="M 549.238938 156.133795 
Q 546.08487 156.816897 542.692495 157.160008 
Q 539.300119 157.5 535.683455 157.5 
Q 527.510914 157.5 522.737758 155.466288 
Q 517.964602 153.432576 517.964602 149.954679 
Q 517.964602 146.436232 522.821866 144.418116 
Q 527.68614 142.4 536.146051 142.4 
Q 539.405255 142.4 542.391106 142.674489 
Q 545.383966 142.945858 548.033383 143.482359 
L 548.033383 146.492378 
Q 545.299858 145.803037 542.594368 145.463045 
Q 539.888879 145.119934 537.169371 145.119934 
Q 532.136881 145.119934 529.410364 146.373848 
Q 526.683847 147.624644 526.683847 149.954679 
Q 526.683847 152.26288 529.312237 153.523032 
Q 531.940627 154.780066 536.776865 154.780066 
Q 538.094565 154.780066 539.22302 154.708325 
Q 540.351475 154.633464 541.248633 154.477505 
L 541.248633 151.651518 
L 536.096988 151.651518 
L 536.096988 149.134332 
L 549.238938 149.134332 
z
" style="fill:#ffa600;"/>
   </g>
   <g id="patch_32">
    <path clip-path="url(#p45509a5641)" d="M 539.628362 131.397 
L 527.600755 131.397 
L 525.701659 142.4 
L 517.964602 142.4 
L 529.013887 82 
L 538.189653 82 
L 549.238938 142.4 
L 541.508275 142.4 
z
M 529.519034 120.186884 
L 537.690901 120.186884 
L 533.611361 96.161509 
z
" style="fill:#008000;"/>
   </g>
   <g id="patch_33">
    <path clip-path="url(#p45509a5641)" d="M 549.238938 77.670564 
Q 546.622894 79.816567 543.794099 80.902045 
Q 540.965304 82 537.88436 82 
Q 528.696687 82 523.330644 73.865152 
Q 517.964602 65.730304 517.964602 51.818715 
Q 517.964602 37.85722 523.330644 29.734848 
Q 528.696687 21.6 537.88436 21.6 
Q 540.965304 21.6 543.794099 22.697955 
Q 546.622894 23.783433 549.238938 25.929436 
L 549.238938 37.96951 
Q 546.599255 35.124809 544.038368 33.802272 
Q 541.477481 32.479736 538.648687 32.479736 
Q 533.574191 32.479736 530.6666 37.632638 
Q 527.766888 42.773063 527.766888 51.818715 
Q 527.766888 60.826937 530.6666 65.979839 
Q 533.574191 71.120264 538.648687 71.120264 
Q 541.477481 71.120264 544.038368 69.797728 
Q 546.599255 68.462714 549.238938 65.618013 
z
" style="fill:#0000ff;"/>
   </g>
   <g id="patch_34">
    <path clip-path="url(#p45509a5641)" d="M 572.548716 154.74925 
L 560.521109 154.74925 
L 558.622013 157.5 
L 550.884956 157.5 
L 561.934241 142.4 
L 571.110007 142.4 
L 582.159292 157.5 
L 574.428629 157.5 
z
M 562.439387 151.946721 
L 570.611255 151.946721 
L 566.531715 145.940377 
z
" style="fill:#008000;"/>
   </g>
   <g id="patch_35">
    <path clip-path="url(#p45509a5641)" d="M 582.159292 141.317641 
Q 579.543248 141.854142 576.714453 142.125511 
Q 573.885658 142.4 570.804714 142.4 
Q 561.617041 142.4 556.250998 140.366288 
Q 550.884956 138.332576 550.884956 134.854679 
Q 550.884956 131.364305 556.250998 129.333712 
Q 561.617041 127.3 570.804714 127.3 
Q 573.885658 127.3 576.714453 127.574489 
Q 579.543248 127.845858 582.159292 128.382359 
L 582.159292 131.392378 
Q 579.519609 130.681202 576.958722 130.350568 
Q 574.397835 130.019934 571.569041 130.019934 
Q 566.494545 130.019934 563.586954 131.308159 
Q 560.687242 132.593266 560.687242 134.854679 
Q 560.687242 137.106734 563.586954 138.39496 
Q 566.494545 139.680066 571.569041 139.680066 
Q 574.397835 139.680066 576.958722 139.349432 
Q 579.519609 139.015679 582.159292 138.304503 
z
" style="fill:#0000ff;"/>
   </g>
   <g id="patch_36">
    <path clip-path="url(#p45509a5641)" d="M 550.884956 82 
L 582.159292 82 
L 582.159292 90.834762 
L 570.907804 90.834762 
L 570.907804 127.3 
L 562.158263 127.3 
L 562.158263 90.834762 
L 550.884956 90.834762 
z
" style="fill:#ff0000;"/>
   </g>
   <g id="patch_37">
    <path clip-path="url(#p45509a5641)" d="M 582.159292 76.535179 
Q 579.005224 79.267589 575.612849 80.640033 
Q 572.220473 82 568.603809 82 
Q 560.431268 82 555.658112 73.865152 
Q 550.884956 65.730304 550.884956 51.818715 
Q 550.884956 37.744929 555.74222 29.672464 
Q 560.606494 21.6 569.066405 21.6 
Q 572.325609 21.6 575.31146 22.697955 
Q 578.30432 23.783433 580.953737 25.929436 
L 580.953737 37.96951 
Q 578.220212 35.212146 575.514722 33.852179 
Q 572.809233 32.479736 570.089725 32.479736 
Q 565.057235 32.479736 562.330718 37.495394 
Q 559.604201 42.498575 559.604201 51.818715 
Q 559.604201 61.051518 562.232591 66.09213 
Q 564.860981 71.120264 569.697219 71.120264 
Q 571.014919 71.120264 572.143374 70.833299 
Q 573.271829 70.533857 574.168986 69.910019 
L 574.168986 58.606073 
L 569.017342 58.606073 
L 569.017342 48.537327 
L 582.159292 48.537327 
z
" style="fill:#ffa600;"/>
   </g>
   <g id="patch_38">
    <path clip-path="url(#p45509a5641)" d="M 615.079646 155.335282 
Q 612.463602 156.408283 609.634807 156.951023 
Q 606.806012 157.5 603.725068 157.5 
Q 594.537395 157.5 589.171352 153.432576 
Q 583.80531 149.365152 583.80531 142.409358 
Q 583.80531 135.42861 589.171352 131.367424 
Q 594.537395 127.3 603.725068 127.3 
Q 606.806012 127.3 609.634807 127.848977 
Q 612.463602 128.391717 615.079646 129.464718 
L 615.079646 135.484755 
Q 612.439963 134.062404 609.879076 133.401136 
Q 607.318189 132.739868 604.489395 132.739868 
Q 599.414899 132.739868 596.507308 135.316319 
Q 593.607596 137.886532 593.607596 142.409358 
Q 593.607596 146.913468 596.507308 149.489919 
Q 599.414899 152.060132 604.489395 152.060132 
Q 607.318189 152.060132 609.879076 151.398864 
Q 612.439963 150.731357 615.079646 149.309006 
z
" style="fill:#0000ff;"/>
   </g>
   <g id="patch_39">
    <path clip-path="url(#p45509a5641)" d="M 615.079646 124.567589 
Q 611.925578 125.933795 608.533203 126.620017 
Q 605.140827 127.3 601.524163 127.3 
Q 593.351622 127.3 588.578466 123.232576 
Q 583.80531 119.165152 583.80531 112.209358 
Q 583.80531 105.172464 588.662574 101.136232 
Q 593.526848 97.1 601.986759 97.1 
Q 605.245963 97.1 608.231814 97.648977 
Q 611.224674 98.191717 613.874091 99.264718 
L 613.874091 105.284755 
Q 611.140566 103.906073 608.435076 103.22609 
Q 605.729587 102.539868 603.010079 102.539868 
Q 597.977589 102.539868 595.251072 105.047697 
Q 592.524555 107.549287 592.524555 112.209358 
Q 592.524555 116.825759 595.152945 119.346065 
Q 597.781335 121.860132 602.617573 121.860132 
Q 603.935272 121.860132 605.063728 121.716649 
Q 606.192183 121.566928 607.08934 121.255009 
L 607.08934 115.603037 
L 601.937696 115.603037 
L 601.937696 110.568663 
L 615.079646 110.568663 
z
" style="fill:#ffa600;"/>
   </g>
   <g id="patch_40">
    <path clip-path="url(#p45509a5641)" d="M 583.80531 21.6 
L 615.079646 21.6 
L 615.079646 36.324604 
L 603.828158 36.324604 
L 603.828158 97.1 
L 595.078617 97.1 
L 595.078617 36.324604 
L 583.80531 36.324604 
z
" style="fill:#ff0000;"/>
   </g>
   <g id="patch_41">
    <path clip-path="url(#p45509a5641)" d="M 638.389424 151.9985 
L 626.361817 151.9985 
L 624.462721 157.5 
L 616.725664 157.5 
L 627.774949 127.3 
L 636.950715 127.3 
L 648 157.5 
L 640.269337 157.5 
z
M 628.280095 146.393442 
L 636.451963 146.393442 
L 632.372423 134.380754 
z
" style="fill:#008000;"/>
   </g>
   <g id="patch_42">
    <path clip-path="url(#p45509a5641)" d="M 648 125.135282 
Q 645.383956 126.208283 642.555161 126.751023 
Q 639.726366 127.3 636.645422 127.3 
Q 627.457749 127.3 622.091706 123.232576 
Q 616.725664 119.165152 616.725664 112.209358 
Q 616.725664 105.22861 622.091706 101.167424 
Q 627.457749 97.1 636.645422 97.1 
Q 639.726366 97.1 642.555161 97.648977 
Q 645.383956 98.191717 648 99.264718 
L 648 105.284755 
Q 645.360317 103.862404 642.79943 103.201136 
Q 640.238543 102.539868 637.409749 102.539868 
Q 632.335253 102.539868 629.427662 105.116319 
Q 626.52795 107.686532 626.52795 112.209358 
Q 626.52795 116.713468 629.427662 119.289919 
Q 632.335253 121.860132 637.409749 121.860132 
Q 640.238543 121.860132 642.79943 121.198864 
Q 645.360317 120.531357 648 119.109006 
z
" style="fill:#0000ff;"/>
   </g>
   <g id="patch_43">
    <path clip-path="url(#p45509a5641)" d="M 616.725664 66.9 
L 648 66.9 
L 648 72.789841 
L 636.748512 72.789841 
L 636.748512 97.1 
L 627.998971 97.1 
L 627.998971 72.789841 
L 616.725664 72.789841 
z
" style="fill:#ff0000;"/>
   </g>
   <g id="patch_44">
    <path clip-path="url(#p45509a5641)" d="M 648 62.801384 
Q 644.845932 64.850692 641.453557 65.880025 
Q 638.061181 66.9 634.444517 66.9 
Q 626.271976 66.9 621.49882 60.798864 
Q 616.725664 54.697728 616.725664 44.264036 
Q 616.725664 33.708697 621.582928 27.654348 
Q 626.447202 21.6 634.907113 21.6 
Q 638.166317 21.6 641.152168 22.423466 
Q 644.145028 23.237575 646.794445 24.847077 
L 646.794445 33.877133 
Q 644.06092 31.80911 641.35543 30.789134 
Q 638.649941 29.759802 635.930433 29.759802 
Q 630.897943 29.759802 628.171426 33.521545 
Q 625.444909 37.273931 625.444909 44.264036 
Q 625.444909 51.188639 628.073299 54.969097 
Q 630.701689 58.740198 635.537927 58.740198 
Q 636.855626 58.740198 637.984082 58.524974 
Q 639.112537 58.300392 640.009694 57.832514 
L 640.009694 49.354555 
L 634.85805 49.354555 
L 634.85805 41.802995 
L 648 41.802995 
z
" style="fill:#ffa600;"/>
   </g>
  </g>
 </g>
 <defs>
  <clipPath id="p45509a5641">
   <rect height="135.9" width="558" x="90" y="21.6"/>
  </clipPath>
 </defs>
</svg>
