<?xml version="1.0" encoding="utf-8" standalone="no"?>
<!DOCTYPE svg PUBLIC "-//W3C//DTD SVG 1.1//EN"
  "http://www.w3.org/Graphics/SVG/1.1/DTD/svg11.dtd">
<!-- Created with matplotlib (https://matplotlib.org/) -->
<svg height="180pt" version="1.1" viewBox="0 0 720 180" width="720pt" xmlns="http://www.w3.org/2000/svg" xmlns:xlink="http://www.w3.org/1999/xlink">
 <metadata>
  <rdf:RDF xmlns:cc="http://creativecommons.org/ns#" xmlns:dc="http://purl.org/dc/elements/1.1/" xmlns:rdf="http://www.w3.org/1999/02/22-rdf-syntax-ns#">
   <cc:Work>
    <dc:type rdf:resource="http://purl.org/dc/dcmitype/StillImage"/>
    <dc:date>2021-08-04T23:33:47.796959</dc:date>
    <dc:format>image/svg+xml</dc:format>
    <dc:creator>
     <cc:Agent>
      <dc:title>Matplotlib v3.3.2, https://matplotlib.org/</dc:title>
     </cc:Agent>
    </dc:creator>
   </cc:Work>
  </rdf:RDF>
 </metadata>
 <defs>
  <style type="text/css">*{stroke-linecap:butt;stroke-linejoin:round;}</style>
 </defs>
 <g id="figure_1">
  <g id="patch_1">
   <path d="M 0 180 
L 720 180 
L 720 0 
L 0 0 
z
" style="fill:none;"/>
  </g>
  <g id="axes_1">
   <g id="line2d_1">
    <path clip-path="url(#p72de71910b)" d="M 90 157.5 
L 648 157.5 
" style="fill:none;stroke:#000000;stroke-linecap:square;stroke-width:0.5;"/>
   </g>
   <g id="patch_2">
    <path clip-path="url(#p72de71910b)" d="M 121.274336 154.767589 
Q 118.120268 156.133795 114.727893 156.820017 
Q 111.335518 157.5 107.718853 157.5 
Q 99.546312 157.5 94.773156 153.432576 
Q 90 149.365152 90 142.409358 
Q 90 135.372464 94.857265 131.336232 
Q 99.721538 127.3 108.18145 127.3 
Q 111.440653 127.3 114.426504 127.848977 
Q 117.419364 128.391717 120.068781 129.464718 
L 120.068781 135.484755 
Q 117.335256 134.106073 114.629766 133.42609 
Q 111.924277 132.739868 109.204769 132.739868 
Q 104.172279 132.739868 101.445762 135.247697 
Q 98.719246 137.749287 98.719246 142.409358 
Q 98.719246 147.025759 101.347636 149.546065 
Q 103.976026 152.060132 108.812263 152.060132 
Q 110.129963 152.060132 111.258418 151.916649 
Q 112.386874 151.766928 113.284031 151.455009 
L 113.284031 145.803037 
L 108.132386 145.803037 
L 108.132386 140.768663 
L 121.274336 140.768663 
z
" style="fill:#ffa600;"/>
   </g>
   <g id="patch_3">
    <path clip-path="url(#p72de71910b)" d="M 121.274336 119.723487 
Q 118.658292 123.478992 115.829497 125.378579 
Q 113.000702 127.3 109.919759 127.3 
Q 100.732085 127.3 95.366043 113.064016 
Q 90 98.828031 90 74.482751 
Q 90 50.050134 95.366043 35.835984 
Q 100.732085 21.6 109.919759 21.6 
Q 113.000702 21.6 115.829497 23.521421 
Q 118.658292 25.421008 121.274336 29.176513 
L 121.274336 50.246643 
Q 118.634653 45.268416 116.073766 42.953976 
Q 113.51288 40.639537 110.684085 40.639537 
Q 105.609589 40.639537 102.701998 49.657116 
Q 99.802286 58.652861 99.802286 74.482751 
Q 99.802286 90.247139 102.701998 99.264718 
Q 105.609589 108.260463 110.684085 108.260463 
Q 113.51288 108.260463 116.073766 105.946024 
Q 118.634653 103.60975 121.274336 98.631522 
z
" style="fill:#0000ff;"/>
   </g>
   <g id="patch_4">
    <path clip-path="url(#p72de71910b)" d="M 154.19469 155.335282 
Q 151.578646 156.408283 148.749851 156.951023 
Q 145.921056 157.5 142.840113 157.5 
Q 133.652439 157.5 128.286397 153.432576 
Q 122.920354 149.365152 122.920354 142.409358 
Q 122.920354 135.42861 128.286397 131.367424 
Q 133.652439 127.3 142.840113 127.3 
Q 145.921056 127.3 148.749851 127.848977 
Q 151.578646 128.391717 154.19469 129.464718 
L 154.19469 135.484755 
Q 151.555007 134.062404 148.99412 133.401136 
Q 146.433234 132.739868 143.604439 132.739868 
Q 138.529943 132.739868 135.622352 135.316319 
Q 132.72264 137.886532 132.72264 142.409358 
Q 132.72264 146.913468 135.622352 149.489919 
Q 138.529943 152.060132 143.604439 152.060132 
Q 146.433234 152.060132 148.99412 151.398864 
Q 151.555007 150.731357 154.19469 149.309006 
z
" style="fill:#0000ff;"/>
   </g>
   <g id="patch_5">
    <path clip-path="url(#p72de71910b)" d="M 154.19469 117.736563 
Q 151.040622 122.518281 147.648247 124.920058 
Q 144.255872 127.3 140.639207 127.3 
Q 132.466666 127.3 127.69351 113.064016 
Q 122.920354 98.828031 122.920354 74.482751 
Q 122.920354 49.853625 127.777619 35.726813 
Q 132.641892 21.6 141.101804 21.6 
Q 144.361007 21.6 147.346858 23.521421 
Q 150.339718 25.421008 152.989135 29.176513 
L 152.989135 50.246643 
Q 150.25561 45.421256 147.55012 43.041314 
Q 144.844631 40.639537 142.125123 40.639537 
Q 137.092633 40.639537 134.366116 49.416939 
Q 131.6396 58.172506 131.6396 74.482751 
Q 131.6396 90.640157 134.26799 99.461227 
Q 136.89638 108.260463 141.732617 108.260463 
Q 143.050317 108.260463 144.178772 107.758273 
Q 145.307228 107.234249 146.204385 106.142533 
L 146.204385 86.360628 
L 141.05274 86.360628 
L 141.05274 68.740322 
L 154.19469 68.740322 
z
" style="fill:#ffa600;"/>
   </g>
   <g id="patch_6">
    <path clip-path="url(#p72de71910b)" d="M 177.504468 154.74925 
L 165.476861 154.74925 
L 163.577765 157.5 
L 155.840708 157.5 
L 166.889993 142.4 
L 176.065759 142.4 
L 187.115044 157.5 
L 179.384381 157.5 
z
M 167.39514 151.946721 
L 175.567007 151.946721 
L 171.487467 145.940377 
z
" style="fill:#008000;"/>
   </g>
   <g id="patch_7">
    <path clip-path="url(#p72de71910b)" d="M 187.115044 140.235282 
Q 184.499 141.308283 181.670205 141.851023 
Q 178.84141 142.4 175.760467 142.4 
Q 166.572793 142.4 161.206751 138.332576 
Q 155.840708 134.265152 155.840708 127.309358 
Q 155.840708 120.32861 161.206751 116.267424 
Q 166.572793 112.2 175.760467 112.2 
Q 178.84141 112.2 181.670205 112.748977 
Q 184.499 113.291717 187.115044 114.364718 
L 187.115044 120.384755 
Q 184.475361 118.962404 181.914474 118.301136 
Q 179.353588 117.639868 176.524793 117.639868 
Q 171.450297 117.639868 168.542706 120.216319 
Q 165.642994 122.786532 165.642994 127.309358 
Q 165.642994 131.813468 168.542706 134.389919 
Q 171.450297 136.960132 176.524793 136.960132 
Q 179.353588 136.960132 181.914474 136.298864 
Q 184.475361 135.631357 187.115044 134.209006 
z
" style="fill:#0000ff;"/>
   </g>
   <g id="patch_8">
    <path clip-path="url(#p72de71910b)" d="M 155.840708 82 
L 187.115044 82 
L 187.115044 87.889841 
L 175.863556 87.889841 
L 175.863556 112.2 
L 167.114015 112.2 
L 167.114015 87.889841 
L 155.840708 87.889841 
z
" style="fill:#ff0000;"/>
   </g>
   <g id="patch_9">
    <path clip-path="url(#p72de71910b)" d="M 187.115044 76.535179 
Q 183.960976 79.267589 180.568601 80.640033 
Q 177.176226 82 173.559561 82 
Q 165.38702 82 160.613864 73.865152 
Q 155.840708 65.730304 155.840708 51.818715 
Q 155.840708 37.744929 160.697973 29.672464 
Q 165.562246 21.6 174.022158 21.6 
Q 177.281361 21.6 180.267212 22.697955 
Q 183.260072 23.783433 185.909489 25.929436 
L 185.909489 37.96951 
Q 183.175964 35.212146 180.470474 33.852179 
Q 177.764985 32.479736 175.045477 32.479736 
Q 170.012987 32.479736 167.28647 37.495394 
Q 164.559954 42.498575 164.559954 51.818715 
Q 164.559954 61.051518 167.188344 66.09213 
Q 169.816734 71.120264 174.652971 71.120264 
Q 175.970671 71.120264 177.099126 70.833299 
Q 178.227582 70.533857 179.124739 69.910019 
L 179.124739 58.606073 
L 173.973094 58.606073 
L 173.973094 48.537327 
L 187.115044 48.537327 
z
" style="fill:#ffa600;"/>
   </g>
   <g id="patch_10">
    <path clip-path="url(#p72de71910b)" d="M 220.035398 156.133795 
Q 216.88133 156.816897 213.488955 157.160008 
Q 210.09658 157.5 206.479915 157.5 
Q 198.307374 157.5 193.534218 155.466288 
Q 188.761062 153.432576 188.761062 149.954679 
Q 188.761062 146.436232 193.618327 144.418116 
Q 198.4826 142.4 206.942512 142.4 
Q 210.201715 142.4 213.187566 142.674489 
Q 216.180426 142.945858 218.829843 143.482359 
L 218.829843 146.492378 
Q 216.096318 145.803037 213.390828 145.463045 
Q 210.685339 145.119934 207.965831 145.119934 
Q 202.933341 145.119934 200.206824 146.373848 
Q 197.480308 147.624644 197.480308 149.954679 
Q 197.480308 152.26288 200.108698 153.523032 
Q 202.737088 154.780066 207.573325 154.780066 
Q 208.891025 154.780066 210.01948 154.708325 
Q 211.147936 154.633464 212.045093 154.477505 
L 212.045093 151.651518 
L 206.893448 151.651518 
L 206.893448 149.134332 
L 220.035398 149.134332 
z
" style="fill:#ffa600;"/>
   </g>
   <g id="patch_11">
    <path clip-path="url(#p72de71910b)" d="M 220.035398 133.741128 
Q 217.419354 138.033134 214.590559 140.20409 
Q 211.761764 142.4 208.680821 142.4 
Q 199.493147 142.4 194.127105 126.130304 
Q 188.761062 109.860607 188.761062 82.03743 
Q 188.761062 54.114439 194.127105 37.869696 
Q 199.493147 21.6 208.680821 21.6 
Q 211.761764 21.6 214.590559 23.79591 
Q 217.419354 25.966866 220.035398 30.258872 
L 220.035398 54.339021 
Q 217.395715 48.649618 214.834828 46.004545 
Q 212.273942 43.359471 209.445147 43.359471 
Q 204.370651 43.359471 201.46306 53.665276 
Q 198.563348 63.946127 198.563348 82.03743 
Q 198.563348 100.053873 201.46306 110.359678 
Q 204.370651 120.640529 209.445147 120.640529 
Q 212.273942 120.640529 214.834828 117.995455 
Q 217.395715 115.325429 220.035398 109.636026 
z
" style="fill:#0000ff;"/>
   </g>
   <g id="patch_12">
    <path clip-path="url(#p72de71910b)" d="M 252.955752 153.401384 
Q 249.801684 155.450692 246.409309 156.480025 
Q 243.016934 157.5 239.400269 157.5 
Q 231.227728 157.5 226.454572 151.398864 
Q 221.681416 145.297728 221.681416 134.864036 
Q 221.681416 124.308697 226.538681 118.254348 
Q 231.402954 112.2 239.862866 112.2 
Q 243.122069 112.2 246.10792 113.023466 
Q 249.10078 113.837575 251.750197 115.447077 
L 251.750197 124.477133 
Q 249.016672 122.40911 246.311182 121.389134 
Q 243.605693 120.359802 240.886185 120.359802 
Q 235.853695 120.359802 233.127178 124.121545 
Q 230.400662 127.873931 230.400662 134.864036 
Q 230.400662 141.788639 233.029052 145.569097 
Q 235.657442 149.340198 240.493679 149.340198 
Q 241.811379 149.340198 242.939834 149.124974 
Q 244.06829 148.900392 244.965447 148.432514 
L 244.965447 139.954555 
L 239.813802 139.954555 
L 239.813802 132.402995 
L 252.955752 132.402995 
z
" style="fill:#ffa600;"/>
   </g>
   <g id="patch_13">
    <path clip-path="url(#p72de71910b)" d="M 252.955752 105.705846 
Q 250.339708 108.92485 247.510913 110.553068 
Q 244.682118 112.2 241.601175 112.2 
Q 232.413501 112.2 227.047459 99.997728 
Q 221.681416 87.795455 221.681416 66.928073 
Q 221.681416 45.985829 227.047459 33.802272 
Q 232.413501 21.6 241.601175 21.6 
Q 244.682118 21.6 247.510913 23.246932 
Q 250.339708 24.87515 252.955752 28.094154 
L 252.955752 46.154266 
Q 250.316069 41.887213 247.755182 39.903408 
Q 245.194296 37.919603 242.365501 37.919603 
Q 237.291005 37.919603 234.383414 45.648957 
Q 231.483702 53.359595 231.483702 66.928073 
Q 231.483702 80.440405 234.383414 88.169758 
Q 237.291005 95.880397 242.365501 95.880397 
Q 245.194296 95.880397 247.755182 93.896592 
Q 250.316069 91.894071 252.955752 87.627019 
z
" style="fill:#0000ff;"/>
   </g>
   <g id="patch_14">
    <path clip-path="url(#p72de71910b)" d="M 285.876106 156.417641 
Q 283.260062 156.954142 280.431267 157.225511 
Q 277.602472 157.5 274.521529 157.5 
Q 265.333855 157.5 259.967812 155.466288 
Q 254.60177 153.432576 254.60177 149.954679 
Q 254.60177 146.464305 259.967812 144.433712 
Q 265.333855 142.4 274.521529 142.4 
Q 277.602472 142.4 280.431267 142.674489 
Q 283.260062 142.945858 285.876106 143.482359 
L 285.876106 146.492378 
Q 283.236423 145.781202 280.675536 145.450568 
Q 278.11465 145.119934 275.285855 145.119934 
Q 270.211359 145.119934 267.303768 146.408159 
Q 264.404056 147.693266 264.404056 149.954679 
Q 264.404056 152.206734 267.303768 153.49496 
Q 270.211359 154.780066 275.285855 154.780066 
Q 278.11465 154.780066 280.675536 154.449432 
Q 283.236423 154.115679 285.876106 153.404503 
z
" style="fill:#0000ff;"/>
   </g>
   <g id="patch_15">
    <path clip-path="url(#p72de71910b)" d="M 276.26553 134.14775 
L 264.237923 134.14775 
L 262.338827 142.4 
L 254.60177 142.4 
L 265.651055 97.1 
L 274.826821 97.1 
L 285.876106 142.4 
L 278.145443 142.4 
z
M 266.156202 125.740163 
L 274.328069 125.740163 
L 270.248529 107.721132 
z
" style="fill:#008000;"/>
   </g>
   <g id="patch_16">
    <path clip-path="url(#p72de71910b)" d="M 285.876106 90.268973 
Q 282.722038 93.684487 279.329663 95.400041 
Q 275.937288 97.1 272.320623 97.1 
Q 264.148082 97.1 259.374926 86.93144 
Q 254.60177 76.76288 254.60177 59.373394 
Q 254.60177 41.781161 259.459035 31.69058 
Q 264.323308 21.6 272.78322 21.6 
Q 276.042423 21.6 279.028274 22.972444 
Q 282.021134 24.329291 284.670551 27.011795 
L 284.670551 42.061888 
Q 281.937026 38.615183 279.231536 36.915224 
Q 276.526047 35.199669 273.806539 35.199669 
Q 268.774049 35.199669 266.047532 41.469242 
Q 263.321016 47.723218 263.321016 59.373394 
Q 263.321016 70.914398 265.949406 77.215162 
Q 268.577796 83.500331 273.414033 83.500331 
Q 274.731733 83.500331 275.860188 83.141624 
Q 276.988644 82.767321 277.885801 81.987523 
L 277.885801 67.857591 
L 272.734156 67.857591 
L 272.734156 55.271659 
L 285.876106 55.271659 
z
" style="fill:#ffa600;"/>
   </g>
   <g id="patch_17">
    <path clip-path="url(#p72de71910b)" d="M 287.522124 142.4 
L 318.79646 142.4 
L 318.79646 145.344921 
L 307.544972 145.344921 
L 307.544972 157.5 
L 298.795431 157.5 
L 298.795431 145.344921 
L 287.522124 145.344921 
z
" style="fill:#ff0000;"/>
   </g>
   <g id="patch_18">
    <path clip-path="url(#p72de71910b)" d="M 318.79646 138.301384 
Q 315.642392 140.350692 312.250017 141.380025 
Q 308.857642 142.4 305.240977 142.4 
Q 297.068436 142.4 292.29528 136.298864 
Q 287.522124 130.197728 287.522124 119.764036 
Q 287.522124 109.208697 292.379389 103.154348 
Q 297.243662 97.1 305.703574 97.1 
Q 308.962777 97.1 311.948628 97.923466 
Q 314.941488 98.737575 317.590905 100.347077 
L 317.590905 109.377133 
Q 314.85738 107.30911 312.15189 106.289134 
Q 309.446401 105.259802 306.726893 105.259802 
Q 301.694403 105.259802 298.967886 109.021545 
Q 296.24137 112.773931 296.24137 119.764036 
Q 296.24137 126.688639 298.86976 130.469097 
Q 301.49815 134.240198 306.334387 134.240198 
Q 307.652087 134.240198 308.780542 134.024974 
Q 309.908998 133.800392 310.806155 133.332514 
L 310.806155 124.854555 
L 305.65451 124.854555 
L 305.65451 117.302995 
L 318.79646 117.302995 
z
" style="fill:#ffa600;"/>
   </g>
   <g id="patch_19">
    <path clip-path="url(#p72de71910b)" d="M 318.79646 91.688205 
Q 316.180416 94.370709 313.351621 95.727556 
Q 310.522826 97.1 307.441883 97.1 
Q 298.254209 97.1 292.888166 86.93144 
Q 287.522124 76.76288 287.522124 59.373394 
Q 287.522124 41.921524 292.888166 31.76856 
Q 298.254209 21.6 307.441883 21.6 
Q 310.522826 21.6 313.351621 22.972444 
Q 316.180416 24.329291 318.79646 27.011795 
L 318.79646 42.061888 
Q 316.156777 38.506011 313.59589 36.85284 
Q 311.035004 35.199669 308.206209 35.199669 
Q 303.131713 35.199669 300.224122 41.640797 
Q 297.32441 48.066329 297.32441 59.373394 
Q 297.32441 70.633671 300.224122 77.074799 
Q 303.131713 83.500331 308.206209 83.500331 
Q 311.035004 83.500331 313.59589 81.84716 
Q 316.156777 80.178393 318.79646 76.622516 
z
" style="fill:#0000ff;"/>
   </g>
   <g id="patch_20">
    <path clip-path="url(#p72de71910b)" d="M 351.716814 156.417641 
Q 349.10077 156.954142 346.271975 157.225511 
Q 343.44318 157.5 340.362237 157.5 
Q 331.174563 157.5 325.80852 155.466288 
Q 320.442478 153.432576 320.442478 149.954679 
Q 320.442478 146.464305 325.80852 144.433712 
Q 331.174563 142.4 340.362237 142.4 
Q 343.44318 142.4 346.271975 142.674489 
Q 349.10077 142.945858 351.716814 143.482359 
L 351.716814 146.492378 
Q 349.077131 145.781202 346.516244 145.450568 
Q 343.955358 145.119934 341.126563 145.119934 
Q 336.052067 145.119934 333.144476 146.408159 
Q 330.244764 147.693266 330.244764 149.954679 
Q 330.244764 152.206734 333.144476 153.49496 
Q 336.052067 154.780066 341.126563 154.780066 
Q 343.955358 154.780066 346.516244 154.449432 
Q 349.077131 154.115679 351.716814 153.404503 
z
" style="fill:#0000ff;"/>
   </g>
   <g id="patch_21">
    <path clip-path="url(#p72de71910b)" d="M 342.106238 131.397 
L 330.078631 131.397 
L 328.179535 142.4 
L 320.442478 142.4 
L 331.491763 82 
L 340.667529 82 
L 351.716814 142.4 
L 343.986151 142.4 
z
M 331.99691 120.186884 
L 340.168777 120.186884 
L 336.089237 96.161509 
z
" style="fill:#008000;"/>
   </g>
   <g id="patch_22">
    <path clip-path="url(#p72de71910b)" d="M 351.716814 76.535179 
Q 348.562746 79.267589 345.170371 80.640033 
Q 341.777996 82 338.161331 82 
Q 329.98879 82 325.215634 73.865152 
Q 320.442478 65.730304 320.442478 51.818715 
Q 320.442478 37.744929 325.299743 29.672464 
Q 330.164016 21.6 338.623928 21.6 
Q 341.883131 21.6 344.868982 22.697955 
Q 347.861842 23.783433 350.511259 25.929436 
L 350.511259 37.96951 
Q 347.777734 35.212146 345.072244 33.852179 
Q 342.366755 32.479736 339.647247 32.479736 
Q 334.614757 32.479736 331.88824 37.495394 
Q 329.161724 42.498575 329.161724 51.818715 
Q 329.161724 61.051518 331.790114 66.09213 
Q 334.418504 71.120264 339.254741 71.120264 
Q 340.572441 71.120264 341.700896 70.833299 
Q 342.829351 70.533857 343.726509 69.910019 
L 343.726509 58.606073 
L 338.574864 58.606073 
L 338.574864 48.537327 
L 351.716814 48.537327 
z
" style="fill:#ffa600;"/>
   </g>
   <g id="patch_23">
    <path clip-path="url(#p72de71910b)" d="M 384.637168 156.417641 
Q 382.021124 156.954142 379.192329 157.225511 
Q 376.363534 157.5 373.282591 157.5 
Q 364.094917 157.5 358.728874 155.466288 
Q 353.362832 153.432576 353.362832 149.954679 
Q 353.362832 146.464305 358.728874 144.433712 
Q 364.094917 142.4 373.282591 142.4 
Q 376.363534 142.4 379.192329 142.674489 
Q 382.021124 142.945858 384.637168 143.482359 
L 384.637168 146.492378 
Q 381.997485 145.781202 379.436598 145.450568 
Q 376.875712 145.119934 374.046917 145.119934 
Q 368.972421 145.119934 366.06483 146.408159 
Q 363.165118 147.693266 363.165118 149.954679 
Q 363.165118 152.206734 366.06483 153.49496 
Q 368.972421 154.780066 374.046917 154.780066 
Q 376.875712 154.780066 379.436598 154.449432 
Q 381.997485 154.115679 384.637168 153.404503 
z
" style="fill:#0000ff;"/>
   </g>
   <g id="patch_24">
    <path clip-path="url(#p72de71910b)" d="M 384.637168 141.033795 
Q 381.4831 141.716897 378.090725 142.060008 
Q 374.698349 142.4 371.081685 142.4 
Q 362.909144 142.4 358.135988 140.366288 
Q 353.362832 138.332576 353.362832 134.854679 
Q 353.362832 131.336232 358.220097 129.318116 
Q 363.08437 127.3 371.544282 127.3 
Q 374.803485 127.3 377.789336 127.574489 
Q 380.782196 127.845858 383.431613 128.382359 
L 383.431613 131.392378 
Q 380.698088 130.703037 377.992598 130.363045 
Q 375.287109 130.019934 372.567601 130.019934 
Q 367.535111 130.019934 364.808594 131.273848 
Q 362.082078 132.524644 362.082078 134.854679 
Q 362.082078 137.16288 364.710468 138.423032 
Q 367.338858 139.680066 372.175095 139.680066 
Q 373.492795 139.680066 374.62125 139.608325 
Q 375.749705 139.533464 376.646863 139.377505 
L 376.646863 136.551518 
L 371.495218 136.551518 
L 371.495218 134.034332 
L 384.637168 134.034332 
z
" style="fill:#ffa600;"/>
   </g>
   <g id="patch_25">
    <path clip-path="url(#p72de71910b)" d="M 353.362832 112.2 
L 384.637168 112.2 
L 384.637168 115.144921 
L 373.38568 115.144921 
L 373.38568 127.3 
L 364.636139 127.3 
L 364.636139 115.144921 
L 353.362832 115.144921 
z
" style="fill:#ff0000;"/>
   </g>
   <g id="patch_26">
    <path clip-path="url(#p72de71910b)" d="M 375.026592 95.695499 
L 362.998985 95.695499 
L 361.099889 112.2 
L 353.362832 112.2 
L 364.412117 21.6 
L 373.587883 21.6 
L 384.637168 112.2 
L 376.906505 112.2 
z
M 364.917264 78.880326 
L 373.089131 78.880326 
L 369.009591 42.842263 
z
" style="fill:#008000;"/>
   </g>
   <g id="patch_27">
    <path clip-path="url(#p72de71910b)" d="M 407.946946 154.74925 
L 395.919339 154.74925 
L 394.020243 157.5 
L 386.283186 157.5 
L 397.332471 142.4 
L 406.508237 142.4 
L 417.557522 157.5 
L 409.826859 157.5 
z
M 397.837618 151.946721 
L 406.009485 151.946721 
L 401.929945 145.940377 
z
" style="fill:#008000;"/>
   </g>
   <g id="patch_28">
    <path clip-path="url(#p72de71910b)" d="M 417.557522 140.235282 
Q 414.941478 141.308283 412.112683 141.851023 
Q 409.283888 142.4 406.202945 142.4 
Q 397.015271 142.4 391.649228 138.332576 
Q 386.283186 134.265152 386.283186 127.309358 
Q 386.283186 120.32861 391.649228 116.267424 
Q 397.015271 112.2 406.202945 112.2 
Q 409.283888 112.2 412.112683 112.748977 
Q 414.941478 113.291717 417.557522 114.364718 
L 417.557522 120.384755 
Q 414.917839 118.962404 412.356952 118.301136 
Q 409.796066 117.639868 406.967271 117.639868 
Q 401.892775 117.639868 398.985184 120.216319 
Q 396.085472 122.786532 396.085472 127.309358 
Q 396.085472 131.813468 398.985184 134.389919 
Q 401.892775 136.960132 406.967271 136.960132 
Q 409.796066 136.960132 412.356952 136.298864 
Q 414.917839 135.631357 417.557522 134.209006 
z
" style="fill:#0000ff;"/>
   </g>
   <g id="patch_29">
    <path clip-path="url(#p72de71910b)" d="M 417.557522 109.467589 
Q 414.403454 110.833795 411.011079 111.520017 
Q 407.618703 112.2 404.002039 112.2 
Q 395.829498 112.2 391.056342 108.132576 
Q 386.283186 104.065152 386.283186 97.109358 
Q 386.283186 90.072464 391.140451 86.036232 
Q 396.004724 82 404.464635 82 
Q 407.723839 82 410.70969 82.548977 
Q 413.70255 83.091717 416.351967 84.164718 
L 416.351967 90.184755 
Q 413.618442 88.806073 410.912952 88.12609 
Q 408.207463 87.439868 405.487955 87.439868 
Q 400.455465 87.439868 397.728948 89.947697 
Q 395.002432 92.449287 395.002432 97.109358 
Q 395.002432 101.725759 397.630822 104.246065 
Q 400.259212 106.760132 405.095449 106.760132 
Q 406.413149 106.760132 407.541604 106.616649 
Q 408.670059 106.466928 409.567217 106.155009 
L 409.567217 100.503037 
L 404.415572 100.503037 
L 404.415572 95.468663 
L 417.557522 95.468663 
z
" style="fill:#ffa600;"/>
   </g>
   <g id="patch_30">
    <path clip-path="url(#p72de71910b)" d="M 386.283186 21.6 
L 417.557522 21.6 
L 417.557522 33.379683 
L 406.306034 33.379683 
L 406.306034 82 
L 397.556493 82 
L 397.556493 33.379683 
L 386.283186 33.379683 
z
" style="fill:#ff0000;"/>
   </g>
   <g id="patch_31">
    <path clip-path="url(#p72de71910b)" d="M 450.477876 145.204152 
Q 447.323808 151.352076 443.931433 154.440074 
Q 440.539057 157.5 436.922393 157.5 
Q 428.749852 157.5 423.976696 139.196592 
Q 419.20354 120.893183 419.20354 89.592109 
Q 419.20354 57.92609 424.060805 39.763045 
Q 428.925078 21.6 437.384989 21.6 
Q 440.644193 21.6 443.630044 24.070399 
Q 446.622904 26.512725 449.272321 31.341231 
L 449.272321 58.431398 
Q 446.538796 52.227329 443.833306 49.167403 
Q 441.127817 46.079405 438.408309 46.079405 
Q 433.375819 46.079405 430.649302 57.364635 
Q 427.922786 68.621793 427.922786 89.592109 
Q 427.922786 110.365916 430.551176 121.707292 
Q 433.179565 133.020595 438.015803 133.020595 
Q 439.333503 133.020595 440.461958 132.374923 
Q 441.590413 131.701177 442.487571 130.297542 
L 442.487571 104.863665 
L 437.335926 104.863665 
L 437.335926 82.208986 
L 450.477876 82.208986 
z
" style="fill:#ffa600;"/>
   </g>
   <g id="patch_32">
    <path clip-path="url(#p72de71910b)" d="M 483.39823 155.335282 
Q 480.782186 156.408283 477.953391 156.951023 
Q 475.124596 157.5 472.043652 157.5 
Q 462.855979 157.5 457.489936 153.432576 
Q 452.123894 149.365152 452.123894 142.409358 
Q 452.123894 135.42861 457.489936 131.367424 
Q 462.855979 127.3 472.043652 127.3 
Q 475.124596 127.3 477.953391 127.848977 
Q 480.782186 128.391717 483.39823 129.464718 
L 483.39823 135.484755 
Q 480.758547 134.062404 478.19766 133.401136 
Q 475.636773 132.739868 472.807979 132.739868 
Q 467.733483 132.739868 464.825892 135.316319 
Q 461.92618 137.886532 461.92618 142.409358 
Q 461.92618 146.913468 464.825892 149.489919 
Q 467.733483 152.060132 472.807979 152.060132 
Q 475.636773 152.060132 478.19766 151.398864 
Q 480.758547 150.731357 483.39823 149.309006 
z
" style="fill:#0000ff;"/>
   </g>
   <g id="patch_33">
    <path clip-path="url(#p72de71910b)" d="M 473.787654 119.04775 
L 461.760047 119.04775 
L 459.860951 127.3 
L 452.123894 127.3 
L 463.173179 82 
L 472.348945 82 
L 483.39823 127.3 
L 475.667567 127.3 
z
M 463.678326 110.640163 
L 471.850193 110.640163 
L 467.770653 92.621132 
z
" style="fill:#008000;"/>
   </g>
   <g id="patch_34">
    <path clip-path="url(#p72de71910b)" d="M 483.39823 76.535179 
Q 480.244162 79.267589 476.851787 80.640033 
Q 473.459411 82 469.842747 82 
Q 461.670206 82 456.89705 73.865152 
Q 452.123894 65.730304 452.123894 51.818715 
Q 452.123894 37.744929 456.981158 29.672464 
Q 461.845432 21.6 470.305343 21.6 
Q 473.564547 21.6 476.550398 22.697955 
Q 479.543258 23.783433 482.192675 25.929436 
L 482.192675 37.96951 
Q 479.45915 35.212146 476.75366 33.852179 
Q 474.048171 32.479736 471.328663 32.479736 
Q 466.296173 32.479736 463.569656 37.495394 
Q 460.84314 42.498575 460.84314 51.818715 
Q 460.84314 61.051518 463.471529 66.09213 
Q 466.099919 71.120264 470.936157 71.120264 
Q 472.253857 71.120264 473.382312 70.833299 
Q 474.510767 70.533857 475.407925 69.910019 
L 475.407925 58.606073 
L 470.25628 58.606073 
L 470.25628 48.537327 
L 483.39823 48.537327 
z
" style="fill:#ffa600;"/>
   </g>
   <g id="patch_35">
    <path clip-path="url(#p72de71910b)" d="M 516.318584 156.417641 
Q 513.70254 156.954142 510.873745 157.225511 
Q 508.04495 157.5 504.964006 157.5 
Q 495.776333 157.5 490.41029 155.466288 
Q 485.044248 153.432576 485.044248 149.954679 
Q 485.044248 146.464305 490.41029 144.433712 
Q 495.776333 142.4 504.964006 142.4 
Q 508.04495 142.4 510.873745 142.674489 
Q 513.70254 142.945858 516.318584 143.482359 
L 516.318584 146.492378 
Q 513.678901 145.781202 511.118014 145.450568 
Q 508.557127 145.119934 505.728333 145.119934 
Q 500.653837 145.119934 497.746246 146.408159 
Q 494.846534 147.693266 494.846534 149.954679 
Q 494.846534 152.206734 497.746246 153.49496 
Q 500.653837 154.780066 505.728333 154.780066 
Q 508.557127 154.780066 511.118014 154.449432 
Q 513.678901 154.115679 516.318584 153.404503 
z
" style="fill:#0000ff;"/>
   </g>
   <g id="patch_36">
    <path clip-path="url(#p72de71910b)" d="M 516.318584 141.033795 
Q 513.164516 141.716897 509.772141 142.060008 
Q 506.379765 142.4 502.763101 142.4 
Q 494.59056 142.4 489.817404 140.366288 
Q 485.044248 138.332576 485.044248 134.854679 
Q 485.044248 131.336232 489.901512 129.318116 
Q 494.765786 127.3 503.225697 127.3 
Q 506.484901 127.3 509.470752 127.574489 
Q 512.463612 127.845858 515.113029 128.382359 
L 515.113029 131.392378 
Q 512.379504 130.703037 509.674014 130.363045 
Q 506.968525 130.019934 504.249017 130.019934 
Q 499.216527 130.019934 496.49001 131.273848 
Q 493.763493 132.524644 493.763493 134.854679 
Q 493.763493 137.16288 496.391883 138.423032 
Q 499.020273 139.680066 503.856511 139.680066 
Q 505.174211 139.680066 506.302666 139.608325 
Q 507.431121 139.533464 508.328279 139.377505 
L 508.328279 136.551518 
L 503.176634 136.551518 
L 503.176634 134.034332 
L 516.318584 134.034332 
z
" style="fill:#ffa600;"/>
   </g>
   <g id="patch_37">
    <path clip-path="url(#p72de71910b)" d="M 485.044248 82 
L 516.318584 82 
L 516.318584 90.834762 
L 505.067096 90.834762 
L 505.067096 127.3 
L 496.317555 127.3 
L 496.317555 90.834762 
L 485.044248 90.834762 
z
" style="fill:#ff0000;"/>
   </g>
   <g id="patch_38">
    <path clip-path="url(#p72de71910b)" d="M 506.708008 70.997 
L 494.680401 70.997 
L 492.781305 82 
L 485.044248 82 
L 496.093533 21.6 
L 505.269299 21.6 
L 516.318584 82 
L 508.587921 82 
z
M 496.59868 59.786884 
L 504.770547 59.786884 
L 500.691007 35.761509 
z
" style="fill:#008000;"/>
   </g>
   <g id="patch_39">
    <path clip-path="url(#p72de71910b)" d="M 517.964602 142.4 
L 549.238938 142.4 
L 549.238938 145.344921 
L 537.98745 145.344921 
L 537.98745 157.5 
L 529.237909 157.5 
L 529.237909 145.344921 
L 517.964602 145.344921 
z
" style="fill:#ff0000;"/>
   </g>
   <g id="patch_40">
    <path clip-path="url(#p72de71910b)" d="M 539.628362 136.8985 
L 527.600755 136.8985 
L 525.701659 142.4 
L 517.964602 142.4 
L 529.013887 112.2 
L 538.189653 112.2 
L 549.238938 142.4 
L 541.508275 142.4 
z
M 529.519034 131.293442 
L 537.690901 131.293442 
L 533.611361 119.280754 
z
" style="fill:#008000;"/>
   </g>
   <g id="patch_41">
    <path clip-path="url(#p72de71910b)" d="M 549.238938 104.002768 
Q 546.08487 108.101384 542.692495 110.16005 
Q 539.300119 112.2 535.683455 112.2 
Q 527.510914 112.2 522.737758 99.997728 
Q 517.964602 87.795455 517.964602 66.928073 
Q 517.964602 45.817393 522.821866 33.708697 
Q 527.68614 21.6 536.146051 21.6 
Q 539.405255 21.6 542.391106 23.246932 
Q 545.383966 24.87515 548.033383 28.094154 
L 548.033383 46.154266 
Q 545.299858 42.018219 542.594368 39.978269 
Q 539.888879 37.919603 537.169371 37.919603 
Q 532.136881 37.919603 529.410364 45.44309 
Q 526.683847 52.947862 526.683847 66.928073 
Q 526.683847 80.777277 529.312237 88.338195 
Q 531.940627 95.880397 536.776865 95.880397 
Q 538.094565 95.880397 539.22302 95.449948 
Q 540.351475 95.000785 541.248633 94.065028 
L 541.248633 77.10911 
L 536.096988 77.10911 
L 536.096988 62.00599 
L 549.238938 62.00599 
z
" style="fill:#ffa600;"/>
   </g>
   <g id="patch_42">
    <path clip-path="url(#p72de71910b)" d="M 582.159292 156.417641 
Q 579.543248 156.954142 576.714453 157.225511 
Q 573.885658 157.5 570.804714 157.5 
Q 561.617041 157.5 556.250998 155.466288 
Q 550.884956 153.432576 550.884956 149.954679 
Q 550.884956 146.464305 556.250998 144.433712 
Q 561.617041 142.4 570.804714 142.4 
Q 573.885658 142.4 576.714453 142.674489 
Q 579.543248 142.945858 582.159292 143.482359 
L 582.159292 146.492378 
Q 579.519609 145.781202 576.958722 145.450568 
Q 574.397835 145.119934 571.569041 145.119934 
Q 566.494545 145.119934 563.586954 146.408159 
Q 560.687242 147.693266 560.687242 149.954679 
Q 560.687242 152.206734 563.586954 153.49496 
Q 566.494545 154.780066 571.569041 154.780066 
Q 574.397835 154.780066 576.958722 154.449432 
Q 579.519609 154.115679 582.159292 153.404503 
z
" style="fill:#0000ff;"/>
   </g>
   <g id="patch_43">
    <path clip-path="url(#p72de71910b)" d="M 582.159292 138.301384 
Q 579.005224 140.350692 575.612849 141.380025 
Q 572.220473 142.4 568.603809 142.4 
Q 560.431268 142.4 555.658112 136.298864 
Q 550.884956 130.197728 550.884956 119.764036 
Q 550.884956 109.208697 555.74222 103.154348 
Q 560.606494 97.1 569.066405 97.1 
Q 572.325609 97.1 575.31146 97.923466 
Q 578.30432 98.737575 580.953737 100.347077 
L 580.953737 109.377133 
Q 578.220212 107.30911 575.514722 106.289134 
Q 572.809233 105.259802 570.089725 105.259802 
Q 565.057235 105.259802 562.330718 109.021545 
Q 559.604201 112.773931 559.604201 119.764036 
Q 559.604201 126.688639 562.232591 130.469097 
Q 564.860981 134.240198 569.697219 134.240198 
Q 571.014919 134.240198 572.143374 134.024974 
Q 573.271829 133.800392 574.168986 133.332514 
L 574.168986 124.854555 
L 569.017342 124.854555 
L 569.017342 117.302995 
L 582.159292 117.302995 
z
" style="fill:#ffa600;"/>
   </g>
   <g id="patch_44">
    <path clip-path="url(#p72de71910b)" d="M 550.884956 21.6 
L 582.159292 21.6 
L 582.159292 36.324604 
L 570.907804 36.324604 
L 570.907804 97.1 
L 562.158263 97.1 
L 562.158263 36.324604 
L 550.884956 36.324604 
z
" style="fill:#ff0000;"/>
   </g>
   <g id="patch_45">
    <path clip-path="url(#p72de71910b)" d="M 583.80531 142.4 
L 615.079646 142.4 
L 615.079646 145.344921 
L 603.828158 145.344921 
L 603.828158 157.5 
L 595.078617 157.5 
L 595.078617 145.344921 
L 583.80531 145.344921 
z
" style="fill:#ff0000;"/>
   </g>
   <g id="patch_46">
    <path clip-path="url(#p72de71910b)" d="M 605.46907 131.397 
L 593.441463 131.397 
L 591.542367 142.4 
L 583.80531 142.4 
L 594.854595 82 
L 604.030361 82 
L 615.079646 142.4 
L 607.348983 142.4 
z
M 595.359741 120.186884 
L 603.531609 120.186884 
L 599.452069 96.161509 
z
" style="fill:#008000;"/>
   </g>
   <g id="patch_47">
    <path clip-path="url(#p72de71910b)" d="M 615.079646 76.535179 
Q 611.925578 79.267589 608.533203 80.640033 
Q 605.140827 82 601.524163 82 
Q 593.351622 82 588.578466 73.865152 
Q 583.80531 65.730304 583.80531 51.818715 
Q 583.80531 37.744929 588.662574 29.672464 
Q 593.526848 21.6 601.986759 21.6 
Q 605.245963 21.6 608.231814 22.697955 
Q 611.224674 23.783433 613.874091 25.929436 
L 613.874091 37.96951 
Q 611.140566 35.212146 608.435076 33.852179 
Q 605.729587 32.479736 603.010079 32.479736 
Q 597.977589 32.479736 595.251072 37.495394 
Q 592.524555 42.498575 592.524555 51.818715 
Q 592.524555 61.051518 595.152945 66.09213 
Q 597.781335 71.120264 602.617573 71.120264 
Q 603.935272 71.120264 605.063728 70.833299 
Q 606.192183 70.533857 607.08934 69.910019 
L 607.08934 58.606073 
L 601.937696 58.606073 
L 601.937696 48.537327 
L 615.079646 48.537327 
z
" style="fill:#ffa600;"/>
   </g>
   <g id="patch_48">
    <path clip-path="url(#p72de71910b)" d="M 638.389424 154.74925 
L 626.361817 154.74925 
L 624.462721 157.5 
L 616.725664 157.5 
L 627.774949 142.4 
L 636.950715 142.4 
L 648 157.5 
L 640.269337 157.5 
z
M 628.280095 151.946721 
L 636.451963 151.946721 
L 632.372423 145.940377 
z
" style="fill:#008000;"/>
   </g>
   <g id="patch_49">
    <path clip-path="url(#p72de71910b)" d="M 648 138.070564 
Q 645.383956 140.216567 642.555161 141.302045 
Q 639.726366 142.4 636.645422 142.4 
Q 627.457749 142.4 622.091706 134.265152 
Q 616.725664 126.130304 616.725664 112.218715 
Q 616.725664 98.25722 622.091706 90.134848 
Q 627.457749 82 636.645422 82 
Q 639.726366 82 642.555161 83.097955 
Q 645.383956 84.183433 648 86.329436 
L 648 98.36951 
Q 645.360317 95.524809 642.79943 94.202272 
Q 640.238543 92.879736 637.409749 92.879736 
Q 632.335253 92.879736 629.427662 98.032638 
Q 626.52795 103.173063 626.52795 112.218715 
Q 626.52795 121.226937 629.427662 126.379839 
Q 632.335253 131.520264 637.409749 131.520264 
Q 640.238543 131.520264 642.79943 130.197728 
Q 645.360317 128.862714 648 126.018013 
z
" style="fill:#0000ff;"/>
   </g>
   <g id="patch_50">
    <path clip-path="url(#p72de71910b)" d="M 648 76.535179 
Q 644.845932 79.267589 641.453557 80.640033 
Q 638.061181 82 634.444517 82 
Q 626.271976 82 621.49882 73.865152 
Q 616.725664 65.730304 616.725664 51.818715 
Q 616.725664 37.744929 621.582928 29.672464 
Q 626.447202 21.6 634.907113 21.6 
Q 638.166317 21.6 641.152168 22.697955 
Q 644.145028 23.783433 646.794445 25.929436 
L 646.794445 37.96951 
Q 644.06092 35.212146 641.35543 33.852179 
Q 638.649941 32.479736 635.930433 32.479736 
Q 630.897943 32.479736 628.171426 37.495394 
Q 625.444909 42.498575 625.444909 51.818715 
Q 625.444909 61.051518 628.073299 66.09213 
Q 630.701689 71.120264 635.537927 71.120264 
Q 636.855626 71.120264 637.984082 70.833299 
Q 639.112537 70.533857 640.009694 69.910019 
L 640.009694 58.606073 
L 634.85805 58.606073 
L 634.85805 48.537327 
L 648 48.537327 
z
" style="fill:#ffa600;"/>
   </g>
  </g>
 </g>
 <defs>
  <clipPath id="p72de71910b">
   <rect height="135.9" width="558" x="90" y="21.6"/>
  </clipPath>
 </defs>
</svg>
