<?xml version="1.0" encoding="utf-8" standalone="no"?>
<!DOCTYPE svg PUBLIC "-//W3C//DTD SVG 1.1//EN"
  "http://www.w3.org/Graphics/SVG/1.1/DTD/svg11.dtd">
<!-- Created with matplotlib (https://matplotlib.org/) -->
<svg height="180pt" version="1.1" viewBox="0 0 720 180" width="720pt" xmlns="http://www.w3.org/2000/svg" xmlns:xlink="http://www.w3.org/1999/xlink">
 <metadata>
  <rdf:RDF xmlns:cc="http://creativecommons.org/ns#" xmlns:dc="http://purl.org/dc/elements/1.1/" xmlns:rdf="http://www.w3.org/1999/02/22-rdf-syntax-ns#">
   <cc:Work>
    <dc:type rdf:resource="http://purl.org/dc/dcmitype/StillImage"/>
    <dc:date>2021-08-04T23:33:56.140017</dc:date>
    <dc:format>image/svg+xml</dc:format>
    <dc:creator>
     <cc:Agent>
      <dc:title>Matplotlib v3.3.2, https://matplotlib.org/</dc:title>
     </cc:Agent>
    </dc:creator>
   </cc:Work>
  </rdf:RDF>
 </metadata>
 <defs>
  <style type="text/css">*{stroke-linecap:butt;stroke-linejoin:round;}</style>
 </defs>
 <g id="figure_1">
  <g id="patch_1">
   <path d="M 0 180 
L 720 180 
L 720 0 
L 0 0 
z
" style="fill:none;"/>
  </g>
  <g id="axes_1">
   <g id="line2d_1">
    <path clip-path="url(#p947e9ae3c3)" d="M 90 157.5 
L 648 157.5 
" style="fill:none;stroke:#000000;stroke-linecap:square;stroke-width:0.5;"/>
   </g>
   <g id="patch_2">
    <path clip-path="url(#p947e9ae3c3)" d="M 111.66376 154.74925 
L 99.636153 154.74925 
L 97.737057 157.5 
L 90 157.5 
L 101.049285 142.4 
L 110.225051 142.4 
L 121.274336 157.5 
L 113.543673 157.5 
z
M 101.554432 151.946721 
L 109.726299 151.946721 
L 105.64676 145.940377 
z
" style="fill:#008000;"/>
   </g>
   <g id="patch_3">
    <path clip-path="url(#p947e9ae3c3)" d="M 121.274336 140.235282 
Q 118.658292 141.308283 115.829497 141.851023 
Q 113.000702 142.4 109.919759 142.4 
Q 100.732085 142.4 95.366043 138.332576 
Q 90 134.265152 90 127.309358 
Q 90 120.32861 95.366043 116.267424 
Q 100.732085 112.2 109.919759 112.2 
Q 113.000702 112.2 115.829497 112.748977 
Q 118.658292 113.291717 121.274336 114.364718 
L 121.274336 120.384755 
Q 118.634653 118.962404 116.073766 118.301136 
Q 113.51288 117.639868 110.684085 117.639868 
Q 105.609589 117.639868 102.701998 120.216319 
Q 99.802286 122.786532 99.802286 127.309358 
Q 99.802286 131.813468 102.701998 134.389919 
Q 105.609589 136.960132 110.684085 136.960132 
Q 113.51288 136.960132 116.073766 136.298864 
Q 118.634653 135.631357 121.274336 134.209006 
z
" style="fill:#0000ff;"/>
   </g>
   <g id="patch_4">
    <path clip-path="url(#p947e9ae3c3)" d="M 121.274336 108.101384 
Q 118.120268 110.150692 114.727893 111.180025 
Q 111.335518 112.2 107.718853 112.2 
Q 99.546312 112.2 94.773156 106.098864 
Q 90 99.997728 90 89.564036 
Q 90 79.008697 94.857265 72.954348 
Q 99.721538 66.9 108.18145 66.9 
Q 111.440653 66.9 114.426504 67.723466 
Q 117.419364 68.537575 120.068781 70.147077 
L 120.068781 79.177133 
Q 117.335256 77.10911 114.629766 76.089134 
Q 111.924277 75.059802 109.204769 75.059802 
Q 104.172279 75.059802 101.445762 78.821545 
Q 98.719246 82.573931 98.719246 89.564036 
Q 98.719246 96.488639 101.347636 100.269097 
Q 103.976026 104.040198 108.812263 104.040198 
Q 110.129963 104.040198 111.258418 103.824974 
Q 112.386874 103.600392 113.284031 103.132514 
L 113.284031 94.654555 
L 108.132386 94.654555 
L 108.132386 87.102995 
L 121.274336 87.102995 
z
" style="fill:#ffa600;"/>
   </g>
   <g id="patch_5">
    <path clip-path="url(#p947e9ae3c3)" d="M 144.584114 154.74925 
L 132.556507 154.74925 
L 130.657411 157.5 
L 122.920354 157.5 
L 133.969639 142.4 
L 143.145405 142.4 
L 154.19469 157.5 
L 146.464027 157.5 
z
M 134.474786 151.946721 
L 142.646653 151.946721 
L 138.567114 145.940377 
z
" style="fill:#008000;"/>
   </g>
   <g id="patch_6">
    <path clip-path="url(#p947e9ae3c3)" d="M 154.19469 139.667589 
Q 151.040622 141.033795 147.648247 141.720017 
Q 144.255872 142.4 140.639207 142.4 
Q 132.466666 142.4 127.69351 138.332576 
Q 122.920354 134.265152 122.920354 127.309358 
Q 122.920354 120.272464 127.777619 116.236232 
Q 132.641892 112.2 141.101804 112.2 
Q 144.361007 112.2 147.346858 112.748977 
Q 150.339718 113.291717 152.989135 114.364718 
L 152.989135 120.384755 
Q 150.25561 119.006073 147.55012 118.32609 
Q 144.844631 117.639868 142.125123 117.639868 
Q 137.092633 117.639868 134.366116 120.147697 
Q 131.6396 122.649287 131.6396 127.309358 
Q 131.6396 131.925759 134.26799 134.446065 
Q 136.89638 136.960132 141.732617 136.960132 
Q 143.050317 136.960132 144.178772 136.816649 
Q 145.307228 136.666928 146.204385 136.355009 
L 146.204385 130.703037 
L 141.05274 130.703037 
L 141.05274 125.668663 
L 154.19469 125.668663 
z
" style="fill:#ffa600;"/>
   </g>
   <g id="patch_7">
    <path clip-path="url(#p947e9ae3c3)" d="M 154.19469 108.952923 
Q 151.578646 110.562425 148.749851 111.376534 
Q 145.921056 112.2 142.840113 112.2 
Q 133.652439 112.2 128.286397 106.098864 
Q 122.920354 99.997728 122.920354 89.564036 
Q 122.920354 79.092915 128.286397 73.001136 
Q 133.652439 66.9 142.840113 66.9 
Q 145.921056 66.9 148.749851 67.723466 
Q 151.578646 68.537575 154.19469 70.147077 
L 154.19469 79.177133 
Q 151.555007 77.043607 148.99412 76.051704 
Q 146.433234 75.059802 143.604439 75.059802 
Q 138.529943 75.059802 135.622352 78.924478 
Q 132.72264 82.779798 132.72264 89.564036 
Q 132.72264 96.320202 135.622352 100.184879 
Q 138.529943 104.040198 143.604439 104.040198 
Q 146.433234 104.040198 148.99412 103.048296 
Q 151.555007 102.047036 154.19469 99.91351 
z
" style="fill:#0000ff;"/>
   </g>
   <g id="patch_8">
    <path clip-path="url(#p947e9ae3c3)" d="M 177.504468 154.74925 
L 165.476861 154.74925 
L 163.577765 157.5 
L 155.840708 157.5 
L 166.889993 142.4 
L 176.065759 142.4 
L 187.115044 157.5 
L 179.384381 157.5 
z
M 167.39514 151.946721 
L 175.567007 151.946721 
L 171.487467 145.940377 
z
" style="fill:#008000;"/>
   </g>
   <g id="patch_9">
    <path clip-path="url(#p947e9ae3c3)" d="M 155.840708 112.2 
L 187.115044 112.2 
L 187.115044 118.089841 
L 175.863556 118.089841 
L 175.863556 142.4 
L 167.114015 142.4 
L 167.114015 118.089841 
L 155.840708 118.089841 
z
" style="fill:#ff0000;"/>
   </g>
   <g id="patch_10">
    <path clip-path="url(#p947e9ae3c3)" d="M 187.115044 108.952923 
Q 184.499 110.562425 181.670205 111.376534 
Q 178.84141 112.2 175.760467 112.2 
Q 166.572793 112.2 161.206751 106.098864 
Q 155.840708 99.997728 155.840708 89.564036 
Q 155.840708 79.092915 161.206751 73.001136 
Q 166.572793 66.9 175.760467 66.9 
Q 178.84141 66.9 181.670205 67.723466 
Q 184.499 68.537575 187.115044 70.147077 
L 187.115044 79.177133 
Q 184.475361 77.043607 181.914474 76.051704 
Q 179.353588 75.059802 176.524793 75.059802 
Q 171.450297 75.059802 168.542706 78.924478 
Q 165.642994 82.779798 165.642994 89.564036 
Q 165.642994 96.320202 168.542706 100.184879 
Q 171.450297 104.040198 176.524793 104.040198 
Q 179.353588 104.040198 181.914474 103.048296 
Q 184.475361 102.047036 187.115044 99.91351 
z
" style="fill:#0000ff;"/>
   </g>
   <g id="patch_11">
    <path clip-path="url(#p947e9ae3c3)" d="M 220.035398 156.133795 
Q 216.88133 156.816897 213.488955 157.160008 
Q 210.09658 157.5 206.479915 157.5 
Q 198.307374 157.5 193.534218 155.466288 
Q 188.761062 153.432576 188.761062 149.954679 
Q 188.761062 146.436232 193.618327 144.418116 
Q 198.4826 142.4 206.942512 142.4 
Q 210.201715 142.4 213.187566 142.674489 
Q 216.180426 142.945858 218.829843 143.482359 
L 218.829843 146.492378 
Q 216.096318 145.803037 213.390828 145.463045 
Q 210.685339 145.119934 207.965831 145.119934 
Q 202.933341 145.119934 200.206824 146.373848 
Q 197.480308 147.624644 197.480308 149.954679 
Q 197.480308 152.26288 200.108698 153.523032 
Q 202.737088 154.780066 207.573325 154.780066 
Q 208.891025 154.780066 210.01948 154.708325 
Q 211.147936 154.633464 212.045093 154.477505 
L 212.045093 151.651518 
L 206.893448 151.651518 
L 206.893448 149.134332 
L 220.035398 149.134332 
z
" style="fill:#ffa600;"/>
   </g>
   <g id="patch_12">
    <path clip-path="url(#p947e9ae3c3)" d="M 188.761062 127.3 
L 220.035398 127.3 
L 220.035398 130.244921 
L 208.78391 130.244921 
L 208.78391 142.4 
L 200.034369 142.4 
L 200.034369 130.244921 
L 188.761062 130.244921 
z
" style="fill:#ff0000;"/>
   </g>
   <g id="patch_13">
    <path clip-path="url(#p947e9ae3c3)" d="M 220.035398 122.970564 
Q 217.419354 125.116567 214.590559 126.202045 
Q 211.761764 127.3 208.680821 127.3 
Q 199.493147 127.3 194.127105 119.165152 
Q 188.761062 111.030304 188.761062 97.118715 
Q 188.761062 83.15722 194.127105 75.034848 
Q 199.493147 66.9 208.680821 66.9 
Q 211.761764 66.9 214.590559 67.997955 
Q 217.419354 69.083433 220.035398 71.229436 
L 220.035398 83.26951 
Q 217.395715 80.424809 214.834828 79.102272 
Q 212.273942 77.779736 209.445147 77.779736 
Q 204.370651 77.779736 201.46306 82.932638 
Q 198.563348 88.073063 198.563348 97.118715 
Q 198.563348 106.126937 201.46306 111.279839 
Q 204.370651 116.420264 209.445147 116.420264 
Q 212.273942 116.420264 214.834828 115.097728 
Q 217.395715 113.762714 220.035398 110.918013 
z
" style="fill:#0000ff;"/>
   </g>
   <g id="patch_14">
    <path clip-path="url(#p947e9ae3c3)" d="M 243.345176 140.995499 
L 231.317569 140.995499 
L 229.418473 157.5 
L 221.681416 157.5 
L 232.730701 66.9 
L 241.906467 66.9 
L 252.955752 157.5 
L 245.225089 157.5 
z
M 233.235848 124.180326 
L 241.407715 124.180326 
L 237.328175 88.142263 
z
" style="fill:#008000;"/>
   </g>
   <g id="patch_15">
    <path clip-path="url(#p947e9ae3c3)" d="M 254.60177 66.9 
L 285.876106 66.9 
L 285.876106 84.569524 
L 274.624618 84.569524 
L 274.624618 157.5 
L 265.875077 157.5 
L 265.875077 84.569524 
L 254.60177 84.569524 
z
" style="fill:#ff0000;"/>
   </g>
   <g id="patch_16">
    <path clip-path="url(#p947e9ae3c3)" d="M 318.79646 149.302768 
Q 315.642392 153.401384 312.250017 155.46005 
Q 308.857642 157.5 305.240977 157.5 
Q 297.068436 157.5 292.29528 145.297728 
Q 287.522124 133.095455 287.522124 112.228073 
Q 287.522124 91.117393 292.379389 79.008697 
Q 297.243662 66.9 305.703574 66.9 
Q 308.962777 66.9 311.948628 68.546932 
Q 314.941488 70.17515 317.590905 73.394154 
L 317.590905 91.454266 
Q 314.85738 87.318219 312.15189 85.278269 
Q 309.446401 83.219603 306.726893 83.219603 
Q 301.694403 83.219603 298.967886 90.74309 
Q 296.24137 98.247862 296.24137 112.228073 
Q 296.24137 126.077277 298.86976 133.638195 
Q 301.49815 141.180397 306.334387 141.180397 
Q 307.652087 141.180397 308.780542 140.749948 
Q 309.908998 140.300785 310.806155 139.365028 
L 310.806155 122.40911 
L 305.65451 122.40911 
L 305.65451 107.30599 
L 318.79646 107.30599 
z
" style="fill:#ffa600;"/>
   </g>
   <g id="patch_17">
    <path clip-path="url(#p947e9ae3c3)" d="M 342.106238 132.743249 
L 330.078631 132.743249 
L 328.179535 157.5 
L 320.442478 157.5 
L 331.491763 21.6 
L 340.667529 21.6 
L 351.716814 157.5 
L 343.986151 157.5 
z
M 331.99691 107.520489 
L 340.168777 107.520489 
L 336.089237 53.463395 
z
" style="fill:#008000;"/>
   </g>
   <g id="patch_18">
    <path clip-path="url(#p947e9ae3c3)" d="M 353.362832 21.6 
L 384.637168 21.6 
L 384.637168 48.104286 
L 373.38568 48.104286 
L 373.38568 157.5 
L 364.636139 157.5 
L 364.636139 48.104286 
L 353.362832 48.104286 
z
" style="fill:#ff0000;"/>
   </g>
   <g id="patch_19">
    <path clip-path="url(#p947e9ae3c3)" d="M 417.557522 145.204152 
Q 414.403454 151.352076 411.011079 154.440074 
Q 407.618703 157.5 404.002039 157.5 
Q 395.829498 157.5 391.056342 139.196592 
Q 386.283186 120.893183 386.283186 89.592109 
Q 386.283186 57.92609 391.140451 39.763045 
Q 396.004724 21.6 404.464635 21.6 
Q 407.723839 21.6 410.70969 24.070399 
Q 413.70255 26.512725 416.351967 31.341231 
L 416.351967 58.431398 
Q 413.618442 52.227329 410.912952 49.167403 
Q 408.207463 46.079405 405.487955 46.079405 
Q 400.455465 46.079405 397.728948 57.364635 
Q 395.002432 68.621793 395.002432 89.592109 
Q 395.002432 110.365916 397.630822 121.707292 
Q 400.259212 133.020595 405.095449 133.020595 
Q 406.413149 133.020595 407.541604 132.374923 
Q 408.670059 131.701177 409.567217 130.297542 
L 409.567217 104.863665 
L 404.415572 104.863665 
L 404.415572 82.208986 
L 417.557522 82.208986 
z
" style="fill:#ffa600;"/>
   </g>
   <g id="patch_20">
    <path clip-path="url(#p947e9ae3c3)" d="M 440.8673 132.743249 
L 428.839693 132.743249 
L 426.940597 157.5 
L 419.20354 157.5 
L 430.252825 21.6 
L 439.428591 21.6 
L 450.477876 157.5 
L 442.747213 157.5 
z
M 430.757972 107.520489 
L 438.929839 107.520489 
L 434.850299 53.463395 
z
" style="fill:#008000;"/>
   </g>
   <g id="patch_21">
    <path clip-path="url(#p947e9ae3c3)" d="M 452.123894 21.6 
L 483.39823 21.6 
L 483.39823 48.104286 
L 472.146742 48.104286 
L 472.146742 157.5 
L 463.397201 157.5 
L 463.397201 48.104286 
L 452.123894 48.104286 
z
" style="fill:#ff0000;"/>
   </g>
   <g id="patch_22">
    <path clip-path="url(#p947e9ae3c3)" d="M 485.044248 142.4 
L 516.318584 142.4 
L 516.318584 145.344921 
L 505.067096 145.344921 
L 505.067096 157.5 
L 496.317555 157.5 
L 496.317555 145.344921 
L 485.044248 145.344921 
z
" style="fill:#ff0000;"/>
   </g>
   <g id="patch_23">
    <path clip-path="url(#p947e9ae3c3)" d="M 506.708008 134.14775 
L 494.680401 134.14775 
L 492.781305 142.4 
L 485.044248 142.4 
L 496.093533 97.1 
L 505.269299 97.1 
L 516.318584 142.4 
L 508.587921 142.4 
z
M 496.59868 125.740163 
L 504.770547 125.740163 
L 500.691007 107.721132 
z
" style="fill:#008000;"/>
   </g>
   <g id="patch_24">
    <path clip-path="url(#p947e9ae3c3)" d="M 516.318584 90.268973 
Q 513.164516 93.684487 509.772141 95.400041 
Q 506.379765 97.1 502.763101 97.1 
Q 494.59056 97.1 489.817404 86.93144 
Q 485.044248 76.76288 485.044248 59.373394 
Q 485.044248 41.781161 489.901512 31.69058 
Q 494.765786 21.6 503.225697 21.6 
Q 506.484901 21.6 509.470752 22.972444 
Q 512.463612 24.329291 515.113029 27.011795 
L 515.113029 42.061888 
Q 512.379504 38.615183 509.674014 36.915224 
Q 506.968525 35.199669 504.249017 35.199669 
Q 499.216527 35.199669 496.49001 41.469242 
Q 493.763493 47.723218 493.763493 59.373394 
Q 493.763493 70.914398 496.391883 77.215162 
Q 499.020273 83.500331 503.856511 83.500331 
Q 505.174211 83.500331 506.302666 83.141624 
Q 507.431121 82.767321 508.328279 81.987523 
L 508.328279 67.857591 
L 503.176634 67.857591 
L 503.176634 55.271659 
L 516.318584 55.271659 
z
" style="fill:#ffa600;"/>
   </g>
   <g id="patch_25">
    <path clip-path="url(#p947e9ae3c3)" d="M 549.238938 156.133795 
Q 546.08487 156.816897 542.692495 157.160008 
Q 539.300119 157.5 535.683455 157.5 
Q 527.510914 157.5 522.737758 155.466288 
Q 517.964602 153.432576 517.964602 149.954679 
Q 517.964602 146.436232 522.821866 144.418116 
Q 527.68614 142.4 536.146051 142.4 
Q 539.405255 142.4 542.391106 142.674489 
Q 545.383966 142.945858 548.033383 143.482359 
L 548.033383 146.492378 
Q 545.299858 145.803037 542.594368 145.463045 
Q 539.888879 145.119934 537.169371 145.119934 
Q 532.136881 145.119934 529.410364 146.373848 
Q 526.683847 147.624644 526.683847 149.954679 
Q 526.683847 152.26288 529.312237 153.523032 
Q 531.940627 154.780066 536.776865 154.780066 
Q 538.094565 154.780066 539.22302 154.708325 
Q 540.351475 154.633464 541.248633 154.477505 
L 541.248633 151.651518 
L 536.096988 151.651518 
L 536.096988 149.134332 
L 549.238938 149.134332 
z
" style="fill:#ffa600;"/>
   </g>
   <g id="patch_26">
    <path clip-path="url(#p947e9ae3c3)" d="M 517.964602 127.3 
L 549.238938 127.3 
L 549.238938 130.244921 
L 537.98745 130.244921 
L 537.98745 142.4 
L 529.237909 142.4 
L 529.237909 130.244921 
L 517.964602 130.244921 
z
" style="fill:#ff0000;"/>
   </g>
   <g id="patch_27">
    <path clip-path="url(#p947e9ae3c3)" d="M 539.628362 108.044749 
L 527.600755 108.044749 
L 525.701659 127.3 
L 517.964602 127.3 
L 529.013887 21.6 
L 538.189653 21.6 
L 549.238938 127.3 
L 541.508275 127.3 
z
M 529.519034 88.427047 
L 537.690901 88.427047 
L 533.611361 46.38264 
z
" style="fill:#008000;"/>
   </g>
   <g id="patch_28">
    <path clip-path="url(#p947e9ae3c3)" d="M 582.159292 156.417641 
Q 579.543248 156.954142 576.714453 157.225511 
Q 573.885658 157.5 570.804714 157.5 
Q 561.617041 157.5 556.250998 155.466288 
Q 550.884956 153.432576 550.884956 149.954679 
Q 550.884956 146.464305 556.250998 144.433712 
Q 561.617041 142.4 570.804714 142.4 
Q 573.885658 142.4 576.714453 142.674489 
Q 579.543248 142.945858 582.159292 143.482359 
L 582.159292 146.492378 
Q 579.519609 145.781202 576.958722 145.450568 
Q 574.397835 145.119934 571.569041 145.119934 
Q 566.494545 145.119934 563.586954 146.408159 
Q 560.687242 147.693266 560.687242 149.954679 
Q 560.687242 152.206734 563.586954 153.49496 
Q 566.494545 154.780066 571.569041 154.780066 
Q 574.397835 154.780066 576.958722 154.449432 
Q 579.519609 154.115679 582.159292 153.404503 
z
" style="fill:#0000ff;"/>
   </g>
   <g id="patch_29">
    <path clip-path="url(#p947e9ae3c3)" d="M 572.548716 134.14775 
L 560.521109 134.14775 
L 558.622013 142.4 
L 550.884956 142.4 
L 561.934241 97.1 
L 571.110007 97.1 
L 582.159292 142.4 
L 574.428629 142.4 
z
M 562.439387 125.740163 
L 570.611255 125.740163 
L 566.531715 107.721132 
z
" style="fill:#008000;"/>
   </g>
   <g id="patch_30">
    <path clip-path="url(#p947e9ae3c3)" d="M 582.159292 90.268973 
Q 579.005224 93.684487 575.612849 95.400041 
Q 572.220473 97.1 568.603809 97.1 
Q 560.431268 97.1 555.658112 86.93144 
Q 550.884956 76.76288 550.884956 59.373394 
Q 550.884956 41.781161 555.74222 31.69058 
Q 560.606494 21.6 569.066405 21.6 
Q 572.325609 21.6 575.31146 22.972444 
Q 578.30432 24.329291 580.953737 27.011795 
L 580.953737 42.061888 
Q 578.220212 38.615183 575.514722 36.915224 
Q 572.809233 35.199669 570.089725 35.199669 
Q 565.057235 35.199669 562.330718 41.469242 
Q 559.604201 47.723218 559.604201 59.373394 
Q 559.604201 70.914398 562.232591 77.215162 
Q 564.860981 83.500331 569.697219 83.500331 
Q 571.014919 83.500331 572.143374 83.141624 
Q 573.271829 82.767321 574.168986 81.987523 
L 574.168986 67.857591 
L 569.017342 67.857591 
L 569.017342 55.271659 
L 582.159292 55.271659 
z
" style="fill:#ffa600;"/>
   </g>
   <g id="patch_31">
    <path clip-path="url(#p947e9ae3c3)" d="M 615.079646 156.417641 
Q 612.463602 156.954142 609.634807 157.225511 
Q 606.806012 157.5 603.725068 157.5 
Q 594.537395 157.5 589.171352 155.466288 
Q 583.80531 153.432576 583.80531 149.954679 
Q 583.80531 146.464305 589.171352 144.433712 
Q 594.537395 142.4 603.725068 142.4 
Q 606.806012 142.4 609.634807 142.674489 
Q 612.463602 142.945858 615.079646 143.482359 
L 615.079646 146.492378 
Q 612.439963 145.781202 609.879076 145.450568 
Q 607.318189 145.119934 604.489395 145.119934 
Q 599.414899 145.119934 596.507308 146.408159 
Q 593.607596 147.693266 593.607596 149.954679 
Q 593.607596 152.206734 596.507308 153.49496 
Q 599.414899 154.780066 604.489395 154.780066 
Q 607.318189 154.780066 609.879076 154.449432 
Q 612.439963 154.115679 615.079646 153.404503 
z
" style="fill:#0000ff;"/>
   </g>
   <g id="patch_32">
    <path clip-path="url(#p947e9ae3c3)" d="M 583.80531 127.3 
L 615.079646 127.3 
L 615.079646 130.244921 
L 603.828158 130.244921 
L 603.828158 142.4 
L 595.078617 142.4 
L 595.078617 130.244921 
L 583.80531 130.244921 
z
" style="fill:#ff0000;"/>
   </g>
   <g id="patch_33">
    <path clip-path="url(#p947e9ae3c3)" d="M 615.079646 124.567589 
Q 611.925578 125.933795 608.533203 126.620017 
Q 605.140827 127.3 601.524163 127.3 
Q 593.351622 127.3 588.578466 123.232576 
Q 583.80531 119.165152 583.80531 112.209358 
Q 583.80531 105.172464 588.662574 101.136232 
Q 593.526848 97.1 601.986759 97.1 
Q 605.245963 97.1 608.231814 97.648977 
Q 611.224674 98.191717 613.874091 99.264718 
L 613.874091 105.284755 
Q 611.140566 103.906073 608.435076 103.22609 
Q 605.729587 102.539868 603.010079 102.539868 
Q 597.977589 102.539868 595.251072 105.047697 
Q 592.524555 107.549287 592.524555 112.209358 
Q 592.524555 116.825759 595.152945 119.346065 
Q 597.781335 121.860132 602.617573 121.860132 
Q 603.935272 121.860132 605.063728 121.716649 
Q 606.192183 121.566928 607.08934 121.255009 
L 607.08934 115.603037 
L 601.937696 115.603037 
L 601.937696 110.568663 
L 615.079646 110.568663 
z
" style="fill:#ffa600;"/>
   </g>
   <g id="patch_34">
    <path clip-path="url(#p947e9ae3c3)" d="M 605.46907 83.346249 
L 593.441463 83.346249 
L 591.542367 97.1 
L 583.80531 97.1 
L 594.854595 21.6 
L 604.030361 21.6 
L 615.079646 97.1 
L 607.348983 97.1 
z
M 595.359741 69.333605 
L 603.531609 69.333605 
L 599.452069 39.301886 
z
" style="fill:#008000;"/>
   </g>
   <g id="patch_35">
    <path clip-path="url(#p947e9ae3c3)" d="M 638.389424 154.74925 
L 626.361817 154.74925 
L 624.462721 157.5 
L 616.725664 157.5 
L 627.774949 142.4 
L 636.950715 142.4 
L 648 157.5 
L 640.269337 157.5 
z
M 628.280095 151.946721 
L 636.451963 151.946721 
L 632.372423 145.940377 
z
" style="fill:#008000;"/>
   </g>
   <g id="patch_36">
    <path clip-path="url(#p947e9ae3c3)" d="M 616.725664 112.2 
L 648 112.2 
L 648 118.089841 
L 636.748512 118.089841 
L 636.748512 142.4 
L 627.998971 142.4 
L 627.998971 118.089841 
L 616.725664 118.089841 
z
" style="fill:#ff0000;"/>
   </g>
   <g id="patch_37">
    <path clip-path="url(#p947e9ae3c3)" d="M 648 108.952923 
Q 645.383956 110.562425 642.555161 111.376534 
Q 639.726366 112.2 636.645422 112.2 
Q 627.457749 112.2 622.091706 106.098864 
Q 616.725664 99.997728 616.725664 89.564036 
Q 616.725664 79.092915 622.091706 73.001136 
Q 627.457749 66.9 636.645422 66.9 
Q 639.726366 66.9 642.555161 67.723466 
Q 645.383956 68.537575 648 70.147077 
L 648 79.177133 
Q 645.360317 77.043607 642.79943 76.051704 
Q 640.238543 75.059802 637.409749 75.059802 
Q 632.335253 75.059802 629.427662 78.924478 
Q 626.52795 82.779798 626.52795 89.564036 
Q 626.52795 96.320202 629.427662 100.184879 
Q 632.335253 104.040198 637.409749 104.040198 
Q 640.238543 104.040198 642.79943 103.048296 
Q 645.360317 102.047036 648 99.91351 
z
" style="fill:#0000ff;"/>
   </g>
   <g id="patch_38">
    <path clip-path="url(#p947e9ae3c3)" d="M 648 62.801384 
Q 644.845932 64.850692 641.453557 65.880025 
Q 638.061181 66.9 634.444517 66.9 
Q 626.271976 66.9 621.49882 60.798864 
Q 616.725664 54.697728 616.725664 44.264036 
Q 616.725664 33.708697 621.582928 27.654348 
Q 626.447202 21.6 634.907113 21.6 
Q 638.166317 21.6 641.152168 22.423466 
Q 644.145028 23.237575 646.794445 24.847077 
L 646.794445 33.877133 
Q 644.06092 31.80911 641.35543 30.789134 
Q 638.649941 29.759802 635.930433 29.759802 
Q 630.897943 29.759802 628.171426 33.521545 
Q 625.444909 37.273931 625.444909 44.264036 
Q 625.444909 51.188639 628.073299 54.969097 
Q 630.701689 58.740198 635.537927 58.740198 
Q 636.855626 58.740198 637.984082 58.524974 
Q 639.112537 58.300392 640.009694 57.832514 
L 640.009694 49.354555 
L 634.85805 49.354555 
L 634.85805 41.802995 
L 648 41.802995 
z
" style="fill:#ffa600;"/>
   </g>
  </g>
 </g>
 <defs>
  <clipPath id="p947e9ae3c3">
   <rect height="135.9" width="558" x="90" y="21.6"/>
  </clipPath>
 </defs>
</svg>
