<?xml version="1.0" encoding="utf-8" standalone="no"?>
<!DOCTYPE svg PUBLIC "-//W3C//DTD SVG 1.1//EN"
  "http://www.w3.org/Graphics/SVG/1.1/DTD/svg11.dtd">
<!-- Created with matplotlib (https://matplotlib.org/) -->
<svg height="180pt" version="1.1" viewBox="0 0 720 180" width="720pt" xmlns="http://www.w3.org/2000/svg" xmlns:xlink="http://www.w3.org/1999/xlink">
 <metadata>
  <rdf:RDF xmlns:cc="http://creativecommons.org/ns#" xmlns:dc="http://purl.org/dc/elements/1.1/" xmlns:rdf="http://www.w3.org/1999/02/22-rdf-syntax-ns#">
   <cc:Work>
    <dc:type rdf:resource="http://purl.org/dc/dcmitype/StillImage"/>
    <dc:date>2021-08-04T23:33:28.694520</dc:date>
    <dc:format>image/svg+xml</dc:format>
    <dc:creator>
     <cc:Agent>
      <dc:title>Matplotlib v3.3.2, https://matplotlib.org/</dc:title>
     </cc:Agent>
    </dc:creator>
   </cc:Work>
  </rdf:RDF>
 </metadata>
 <defs>
  <style type="text/css">*{stroke-linecap:butt;stroke-linejoin:round;}</style>
 </defs>
 <g id="figure_1">
  <g id="patch_1">
   <path d="M 0 180 
L 720 180 
L 720 0 
L 0 0 
z
" style="fill:none;"/>
  </g>
  <g id="axes_1">
   <g id="line2d_1">
    <path clip-path="url(#pc121a00c02)" d="M 90 157.5 
L 648 157.5 
" style="fill:none;stroke:#000000;stroke-linecap:square;stroke-width:0.5;"/>
   </g>
   <g id="patch_2">
    <path clip-path="url(#pc121a00c02)" d="M 111.66376 154.74925 
L 99.636153 154.74925 
L 97.737057 157.5 
L 90 157.5 
L 101.049285 142.4 
L 110.225051 142.4 
L 121.274336 157.5 
L 113.543673 157.5 
z
M 101.554432 151.946721 
L 109.726299 151.946721 
L 105.64676 145.940377 
z
" style="fill:#008000;"/>
   </g>
   <g id="patch_3">
    <path clip-path="url(#pc121a00c02)" d="M 121.274336 141.317641 
Q 118.658292 141.854142 115.829497 142.125511 
Q 113.000702 142.4 109.919759 142.4 
Q 100.732085 142.4 95.366043 140.366288 
Q 90 138.332576 90 134.854679 
Q 90 131.364305 95.366043 129.333712 
Q 100.732085 127.3 109.919759 127.3 
Q 113.000702 127.3 115.829497 127.574489 
Q 118.658292 127.845858 121.274336 128.382359 
L 121.274336 131.392378 
Q 118.634653 130.681202 116.073766 130.350568 
Q 113.51288 130.019934 110.684085 130.019934 
Q 105.609589 130.019934 102.701998 131.308159 
Q 99.802286 132.593266 99.802286 134.854679 
Q 99.802286 137.106734 102.701998 138.39496 
Q 105.609589 139.680066 110.684085 139.680066 
Q 113.51288 139.680066 116.073766 139.349432 
Q 118.634653 139.015679 121.274336 138.304503 
z
" style="fill:#0000ff;"/>
   </g>
   <g id="patch_4">
    <path clip-path="url(#pc121a00c02)" d="M 121.274336 117.736563 
Q 118.120268 122.518281 114.727893 124.920058 
Q 111.335518 127.3 107.718853 127.3 
Q 99.546312 127.3 94.773156 113.064016 
Q 90 98.828031 90 74.482751 
Q 90 49.853625 94.857265 35.726813 
Q 99.721538 21.6 108.18145 21.6 
Q 111.440653 21.6 114.426504 23.521421 
Q 117.419364 25.421008 120.068781 29.176513 
L 120.068781 50.246643 
Q 117.335256 45.421256 114.629766 43.041314 
Q 111.924277 40.639537 109.204769 40.639537 
Q 104.172279 40.639537 101.445762 49.416939 
Q 98.719246 58.172506 98.719246 74.482751 
Q 98.719246 90.640157 101.347636 99.461227 
Q 103.976026 108.260463 108.812263 108.260463 
Q 110.129963 108.260463 111.258418 107.758273 
Q 112.386874 107.234249 113.284031 106.142533 
L 113.284031 86.360628 
L 108.132386 86.360628 
L 108.132386 68.740322 
L 121.274336 68.740322 
z
" style="fill:#ffa600;"/>
   </g>
   <g id="patch_5">
    <path clip-path="url(#pc121a00c02)" d="M 144.584114 154.74925 
L 132.556507 154.74925 
L 130.657411 157.5 
L 122.920354 157.5 
L 133.969639 142.4 
L 143.145405 142.4 
L 154.19469 157.5 
L 146.464027 157.5 
z
M 134.474786 151.946721 
L 142.646653 151.946721 
L 138.567114 145.940377 
z
" style="fill:#008000;"/>
   </g>
   <g id="patch_6">
    <path clip-path="url(#pc121a00c02)" d="M 154.19469 138.301384 
Q 151.040622 140.350692 147.648247 141.380025 
Q 144.255872 142.4 140.639207 142.4 
Q 132.466666 142.4 127.69351 136.298864 
Q 122.920354 130.197728 122.920354 119.764036 
Q 122.920354 109.208697 127.777619 103.154348 
Q 132.641892 97.1 141.101804 97.1 
Q 144.361007 97.1 147.346858 97.923466 
Q 150.339718 98.737575 152.989135 100.347077 
L 152.989135 109.377133 
Q 150.25561 107.30911 147.55012 106.289134 
Q 144.844631 105.259802 142.125123 105.259802 
Q 137.092633 105.259802 134.366116 109.021545 
Q 131.6396 112.773931 131.6396 119.764036 
Q 131.6396 126.688639 134.26799 130.469097 
Q 136.89638 134.240198 141.732617 134.240198 
Q 143.050317 134.240198 144.178772 134.024974 
Q 145.307228 133.800392 146.204385 133.332514 
L 146.204385 124.854555 
L 141.05274 124.854555 
L 141.05274 117.302995 
L 154.19469 117.302995 
z
" style="fill:#ffa600;"/>
   </g>
   <g id="patch_7">
    <path clip-path="url(#pc121a00c02)" d="M 122.920354 21.6 
L 154.19469 21.6 
L 154.19469 36.324604 
L 142.943202 36.324604 
L 142.943202 97.1 
L 134.193661 97.1 
L 134.193661 36.324604 
L 122.920354 36.324604 
z
" style="fill:#ff0000;"/>
   </g>
   <g id="patch_8">
    <path clip-path="url(#pc121a00c02)" d="M 177.504468 154.74925 
L 165.476861 154.74925 
L 163.577765 157.5 
L 155.840708 157.5 
L 166.889993 142.4 
L 176.065759 142.4 
L 187.115044 157.5 
L 179.384381 157.5 
z
M 167.39514 151.946721 
L 175.567007 151.946721 
L 171.487467 145.940377 
z
" style="fill:#008000;"/>
   </g>
   <g id="patch_9">
    <path clip-path="url(#pc121a00c02)" d="M 155.840708 21.6 
L 187.115044 21.6 
L 187.115044 45.159366 
L 175.863556 45.159366 
L 175.863556 142.4 
L 167.114015 142.4 
L 167.114015 45.159366 
L 155.840708 45.159366 
z
" style="fill:#ff0000;"/>
   </g>
   <g id="patch_10">
    <path clip-path="url(#pc121a00c02)" d="M 210.424822 151.9985 
L 198.397215 151.9985 
L 196.498119 157.5 
L 188.761062 157.5 
L 199.810347 127.3 
L 208.986113 127.3 
L 220.035398 157.5 
L 212.304735 157.5 
z
M 200.315494 146.393442 
L 208.487361 146.393442 
L 204.407821 134.380754 
z
" style="fill:#008000;"/>
   </g>
   <g id="patch_11">
    <path clip-path="url(#pc121a00c02)" d="M 220.035398 117.736563 
Q 216.88133 122.518281 213.488955 124.920058 
Q 210.09658 127.3 206.479915 127.3 
Q 198.307374 127.3 193.534218 113.064016 
Q 188.761062 98.828031 188.761062 74.482751 
Q 188.761062 49.853625 193.618327 35.726813 
Q 198.4826 21.6 206.942512 21.6 
Q 210.201715 21.6 213.187566 23.521421 
Q 216.180426 25.421008 218.829843 29.176513 
L 218.829843 50.246643 
Q 216.096318 45.421256 213.390828 43.041314 
Q 210.685339 40.639537 207.965831 40.639537 
Q 202.933341 40.639537 200.206824 49.416939 
Q 197.480308 58.172506 197.480308 74.482751 
Q 197.480308 90.640157 200.108698 99.461227 
Q 202.737088 108.260463 207.573325 108.260463 
Q 208.891025 108.260463 210.01948 107.758273 
Q 211.147936 107.234249 212.045093 106.142533 
L 212.045093 86.360628 
L 206.893448 86.360628 
L 206.893448 68.740322 
L 220.035398 68.740322 
z
" style="fill:#ffa600;"/>
   </g>
   <g id="patch_12">
    <path clip-path="url(#pc121a00c02)" d="M 221.681416 142.4 
L 252.955752 142.4 
L 252.955752 145.344921 
L 241.704264 145.344921 
L 241.704264 157.5 
L 232.954723 157.5 
L 232.954723 145.344921 
L 221.681416 145.344921 
z
" style="fill:#ff0000;"/>
   </g>
   <g id="patch_13">
    <path clip-path="url(#pc121a00c02)" d="M 252.955752 139.667589 
Q 249.801684 141.033795 246.409309 141.720017 
Q 243.016934 142.4 239.400269 142.4 
Q 231.227728 142.4 226.454572 138.332576 
Q 221.681416 134.265152 221.681416 127.309358 
Q 221.681416 120.272464 226.538681 116.236232 
Q 231.402954 112.2 239.862866 112.2 
Q 243.122069 112.2 246.10792 112.748977 
Q 249.10078 113.291717 251.750197 114.364718 
L 251.750197 120.384755 
Q 249.016672 119.006073 246.311182 118.32609 
Q 243.605693 117.639868 240.886185 117.639868 
Q 235.853695 117.639868 233.127178 120.147697 
Q 230.400662 122.649287 230.400662 127.309358 
Q 230.400662 131.925759 233.029052 134.446065 
Q 235.657442 136.960132 240.493679 136.960132 
Q 241.811379 136.960132 242.939834 136.816649 
Q 244.06829 136.666928 244.965447 136.355009 
L 244.965447 130.703037 
L 239.813802 130.703037 
L 239.813802 125.668663 
L 252.955752 125.668663 
z
" style="fill:#ffa600;"/>
   </g>
   <g id="patch_14">
    <path clip-path="url(#pc121a00c02)" d="M 243.345176 95.695499 
L 231.317569 95.695499 
L 229.418473 112.2 
L 221.681416 112.2 
L 232.730701 21.6 
L 241.906467 21.6 
L 252.955752 112.2 
L 245.225089 112.2 
z
M 233.235848 78.880326 
L 241.407715 78.880326 
L 237.328175 42.842263 
z
" style="fill:#008000;"/>
   </g>
   <g id="patch_15">
    <path clip-path="url(#pc121a00c02)" d="M 285.876106 156.133795 
Q 282.722038 156.816897 279.329663 157.160008 
Q 275.937288 157.5 272.320623 157.5 
Q 264.148082 157.5 259.374926 155.466288 
Q 254.60177 153.432576 254.60177 149.954679 
Q 254.60177 146.436232 259.459035 144.418116 
Q 264.323308 142.4 272.78322 142.4 
Q 276.042423 142.4 279.028274 142.674489 
Q 282.021134 142.945858 284.670551 143.482359 
L 284.670551 146.492378 
Q 281.937026 145.803037 279.231536 145.463045 
Q 276.526047 145.119934 273.806539 145.119934 
Q 268.774049 145.119934 266.047532 146.373848 
Q 263.321016 147.624644 263.321016 149.954679 
Q 263.321016 152.26288 265.949406 153.523032 
Q 268.577796 154.780066 273.414033 154.780066 
Q 274.731733 154.780066 275.860188 154.708325 
Q 276.988644 154.633464 277.885801 154.477505 
L 277.885801 151.651518 
L 272.734156 151.651518 
L 272.734156 149.134332 
L 285.876106 149.134332 
z
" style="fill:#ffa600;"/>
   </g>
   <g id="patch_16">
    <path clip-path="url(#pc121a00c02)" d="M 276.26553 136.8985 
L 264.237923 136.8985 
L 262.338827 142.4 
L 254.60177 142.4 
L 265.651055 112.2 
L 274.826821 112.2 
L 285.876106 142.4 
L 278.145443 142.4 
z
M 266.156202 131.293442 
L 274.328069 131.293442 
L 270.248529 119.280754 
z
" style="fill:#008000;"/>
   </g>
   <g id="patch_17">
    <path clip-path="url(#pc121a00c02)" d="M 285.876106 108.952923 
Q 283.260062 110.562425 280.431267 111.376534 
Q 277.602472 112.2 274.521529 112.2 
Q 265.333855 112.2 259.967812 106.098864 
Q 254.60177 99.997728 254.60177 89.564036 
Q 254.60177 79.092915 259.967812 73.001136 
Q 265.333855 66.9 274.521529 66.9 
Q 277.602472 66.9 280.431267 67.723466 
Q 283.260062 68.537575 285.876106 70.147077 
L 285.876106 79.177133 
Q 283.236423 77.043607 280.675536 76.051704 
Q 278.11465 75.059802 275.285855 75.059802 
Q 270.211359 75.059802 267.303768 78.924478 
Q 264.404056 82.779798 264.404056 89.564036 
Q 264.404056 96.320202 267.303768 100.184879 
Q 270.211359 104.040198 275.285855 104.040198 
Q 278.11465 104.040198 280.675536 103.048296 
Q 283.236423 102.047036 285.876106 99.91351 
z
" style="fill:#0000ff;"/>
   </g>
   <g id="patch_18">
    <path clip-path="url(#pc121a00c02)" d="M 254.60177 21.6 
L 285.876106 21.6 
L 285.876106 30.434762 
L 274.624618 30.434762 
L 274.624618 66.9 
L 265.875077 66.9 
L 265.875077 30.434762 
L 254.60177 30.434762 
z
" style="fill:#ff0000;"/>
   </g>
   <g id="patch_19">
    <path clip-path="url(#pc121a00c02)" d="M 318.79646 155.335282 
Q 316.180416 156.408283 313.351621 156.951023 
Q 310.522826 157.5 307.441883 157.5 
Q 298.254209 157.5 292.888166 153.432576 
Q 287.522124 149.365152 287.522124 142.409358 
Q 287.522124 135.42861 292.888166 131.367424 
Q 298.254209 127.3 307.441883 127.3 
Q 310.522826 127.3 313.351621 127.848977 
Q 316.180416 128.391717 318.79646 129.464718 
L 318.79646 135.484755 
Q 316.156777 134.062404 313.59589 133.401136 
Q 311.035004 132.739868 308.206209 132.739868 
Q 303.131713 132.739868 300.224122 135.316319 
Q 297.32441 137.886532 297.32441 142.409358 
Q 297.32441 146.913468 300.224122 149.489919 
Q 303.131713 152.060132 308.206209 152.060132 
Q 311.035004 152.060132 313.59589 151.398864 
Q 316.156777 150.731357 318.79646 149.309006 
z
" style="fill:#0000ff;"/>
   </g>
   <g id="patch_20">
    <path clip-path="url(#pc121a00c02)" d="M 309.185884 108.044749 
L 297.158277 108.044749 
L 295.259181 127.3 
L 287.522124 127.3 
L 298.571409 21.6 
L 307.747175 21.6 
L 318.79646 127.3 
L 311.065797 127.3 
z
M 299.076556 88.427047 
L 307.248423 88.427047 
L 303.168883 46.38264 
z
" style="fill:#008000;"/>
   </g>
   <g id="patch_21">
    <path clip-path="url(#pc121a00c02)" d="M 342.106238 154.74925 
L 330.078631 154.74925 
L 328.179535 157.5 
L 320.442478 157.5 
L 331.491763 142.4 
L 340.667529 142.4 
L 351.716814 157.5 
L 343.986151 157.5 
z
M 331.99691 151.946721 
L 340.168777 151.946721 
L 336.089237 145.940377 
z
" style="fill:#008000;"/>
   </g>
   <g id="patch_22">
    <path clip-path="url(#pc121a00c02)" d="M 351.716814 141.317641 
Q 349.10077 141.854142 346.271975 142.125511 
Q 343.44318 142.4 340.362237 142.4 
Q 331.174563 142.4 325.80852 140.366288 
Q 320.442478 138.332576 320.442478 134.854679 
Q 320.442478 131.364305 325.80852 129.333712 
Q 331.174563 127.3 340.362237 127.3 
Q 343.44318 127.3 346.271975 127.574489 
Q 349.10077 127.845858 351.716814 128.382359 
L 351.716814 131.392378 
Q 349.077131 130.681202 346.516244 130.350568 
Q 343.955358 130.019934 341.126563 130.019934 
Q 336.052067 130.019934 333.144476 131.308159 
Q 330.244764 132.593266 330.244764 134.854679 
Q 330.244764 137.106734 333.144476 138.39496 
Q 336.052067 139.680066 341.126563 139.680066 
Q 343.955358 139.680066 346.516244 139.349432 
Q 349.077131 139.015679 351.716814 138.304503 
z
" style="fill:#0000ff;"/>
   </g>
   <g id="patch_23">
    <path clip-path="url(#pc121a00c02)" d="M 351.716814 117.736563 
Q 348.562746 122.518281 345.170371 124.920058 
Q 341.777996 127.3 338.161331 127.3 
Q 329.98879 127.3 325.215634 113.064016 
Q 320.442478 98.828031 320.442478 74.482751 
Q 320.442478 49.853625 325.299743 35.726813 
Q 330.164016 21.6 338.623928 21.6 
Q 341.883131 21.6 344.868982 23.521421 
Q 347.861842 25.421008 350.511259 29.176513 
L 350.511259 50.246643 
Q 347.777734 45.421256 345.072244 43.041314 
Q 342.366755 40.639537 339.647247 40.639537 
Q 334.614757 40.639537 331.88824 49.416939 
Q 329.161724 58.172506 329.161724 74.482751 
Q 329.161724 90.640157 331.790114 99.461227 
Q 334.418504 108.260463 339.254741 108.260463 
Q 340.572441 108.260463 341.700896 107.758273 
Q 342.829351 107.234249 343.726509 106.142533 
L 343.726509 86.360628 
L 338.574864 86.360628 
L 338.574864 68.740322 
L 351.716814 68.740322 
z
" style="fill:#ffa600;"/>
   </g>
   <g id="patch_24">
    <path clip-path="url(#pc121a00c02)" d="M 384.637168 156.133795 
Q 381.4831 156.816897 378.090725 157.160008 
Q 374.698349 157.5 371.081685 157.5 
Q 362.909144 157.5 358.135988 155.466288 
Q 353.362832 153.432576 353.362832 149.954679 
Q 353.362832 146.436232 358.220097 144.418116 
Q 363.08437 142.4 371.544282 142.4 
Q 374.803485 142.4 377.789336 142.674489 
Q 380.782196 142.945858 383.431613 143.482359 
L 383.431613 146.492378 
Q 380.698088 145.803037 377.992598 145.463045 
Q 375.287109 145.119934 372.567601 145.119934 
Q 367.535111 145.119934 364.808594 146.373848 
Q 362.082078 147.624644 362.082078 149.954679 
Q 362.082078 152.26288 364.710468 153.523032 
Q 367.338858 154.780066 372.175095 154.780066 
Q 373.492795 154.780066 374.62125 154.708325 
Q 375.749705 154.633464 376.646863 154.477505 
L 376.646863 151.651518 
L 371.495218 151.651518 
L 371.495218 149.134332 
L 384.637168 149.134332 
z
" style="fill:#ffa600;"/>
   </g>
   <g id="patch_25">
    <path clip-path="url(#pc121a00c02)" d="M 353.362832 21.6 
L 384.637168 21.6 
L 384.637168 45.159366 
L 373.38568 45.159366 
L 373.38568 142.4 
L 364.636139 142.4 
L 364.636139 45.159366 
L 353.362832 45.159366 
z
" style="fill:#ff0000;"/>
   </g>
   <g id="patch_26">
    <path clip-path="url(#pc121a00c02)" d="M 407.946946 154.74925 
L 395.919339 154.74925 
L 394.020243 157.5 
L 386.283186 157.5 
L 397.332471 142.4 
L 406.508237 142.4 
L 417.557522 157.5 
L 409.826859 157.5 
z
M 397.837618 151.946721 
L 406.009485 151.946721 
L 401.929945 145.940377 
z
" style="fill:#008000;"/>
   </g>
   <g id="patch_27">
    <path clip-path="url(#pc121a00c02)" d="M 417.557522 141.317641 
Q 414.941478 141.854142 412.112683 142.125511 
Q 409.283888 142.4 406.202945 142.4 
Q 397.015271 142.4 391.649228 140.366288 
Q 386.283186 138.332576 386.283186 134.854679 
Q 386.283186 131.364305 391.649228 129.333712 
Q 397.015271 127.3 406.202945 127.3 
Q 409.283888 127.3 412.112683 127.574489 
Q 414.941478 127.845858 417.557522 128.382359 
L 417.557522 131.392378 
Q 414.917839 130.681202 412.356952 130.350568 
Q 409.796066 130.019934 406.967271 130.019934 
Q 401.892775 130.019934 398.985184 131.308159 
Q 396.085472 132.593266 396.085472 134.854679 
Q 396.085472 137.106734 398.985184 138.39496 
Q 401.892775 139.680066 406.967271 139.680066 
Q 409.796066 139.680066 412.356952 139.349432 
Q 414.917839 139.015679 417.557522 138.304503 
z
" style="fill:#0000ff;"/>
   </g>
   <g id="patch_28">
    <path clip-path="url(#pc121a00c02)" d="M 417.557522 124.567589 
Q 414.403454 125.933795 411.011079 126.620017 
Q 407.618703 127.3 404.002039 127.3 
Q 395.829498 127.3 391.056342 123.232576 
Q 386.283186 119.165152 386.283186 112.209358 
Q 386.283186 105.172464 391.140451 101.136232 
Q 396.004724 97.1 404.464635 97.1 
Q 407.723839 97.1 410.70969 97.648977 
Q 413.70255 98.191717 416.351967 99.264718 
L 416.351967 105.284755 
Q 413.618442 103.906073 410.912952 103.22609 
Q 408.207463 102.539868 405.487955 102.539868 
Q 400.455465 102.539868 397.728948 105.047697 
Q 395.002432 107.549287 395.002432 112.209358 
Q 395.002432 116.825759 397.630822 119.346065 
Q 400.259212 121.860132 405.095449 121.860132 
Q 406.413149 121.860132 407.541604 121.716649 
Q 408.670059 121.566928 409.567217 121.255009 
L 409.567217 115.603037 
L 404.415572 115.603037 
L 404.415572 110.568663 
L 417.557522 110.568663 
z
" style="fill:#ffa600;"/>
   </g>
   <g id="patch_29">
    <path clip-path="url(#pc121a00c02)" d="M 386.283186 21.6 
L 417.557522 21.6 
L 417.557522 36.324604 
L 406.306034 36.324604 
L 406.306034 97.1 
L 397.556493 97.1 
L 397.556493 36.324604 
L 386.283186 36.324604 
z
" style="fill:#ff0000;"/>
   </g>
   <g id="patch_30">
    <path clip-path="url(#pc121a00c02)" d="M 450.477876 156.133795 
Q 447.323808 156.816897 443.931433 157.160008 
Q 440.539057 157.5 436.922393 157.5 
Q 428.749852 157.5 423.976696 155.466288 
Q 419.20354 153.432576 419.20354 149.954679 
Q 419.20354 146.436232 424.060805 144.418116 
Q 428.925078 142.4 437.384989 142.4 
Q 440.644193 142.4 443.630044 142.674489 
Q 446.622904 142.945858 449.272321 143.482359 
L 449.272321 146.492378 
Q 446.538796 145.803037 443.833306 145.463045 
Q 441.127817 145.119934 438.408309 145.119934 
Q 433.375819 145.119934 430.649302 146.373848 
Q 427.922786 147.624644 427.922786 149.954679 
Q 427.922786 152.26288 430.551176 153.523032 
Q 433.179565 154.780066 438.015803 154.780066 
Q 439.333503 154.780066 440.461958 154.708325 
Q 441.590413 154.633464 442.487571 154.477505 
L 442.487571 151.651518 
L 437.335926 151.651518 
L 437.335926 149.134332 
L 450.477876 149.134332 
z
" style="fill:#ffa600;"/>
   </g>
   <g id="patch_31">
    <path clip-path="url(#pc121a00c02)" d="M 440.8673 120.393999 
L 428.839693 120.393999 
L 426.940597 142.4 
L 419.20354 142.4 
L 430.252825 21.6 
L 439.428591 21.6 
L 450.477876 142.4 
L 442.747213 142.4 
z
M 430.757972 97.973768 
L 438.929839 97.973768 
L 434.850299 49.923018 
z
" style="fill:#008000;"/>
   </g>
   <g id="patch_32">
    <path clip-path="url(#pc121a00c02)" d="M 483.39823 156.133795 
Q 480.244162 156.816897 476.851787 157.160008 
Q 473.459411 157.5 469.842747 157.5 
Q 461.670206 157.5 456.89705 155.466288 
Q 452.123894 153.432576 452.123894 149.954679 
Q 452.123894 146.436232 456.981158 144.418116 
Q 461.845432 142.4 470.305343 142.4 
Q 473.564547 142.4 476.550398 142.674489 
Q 479.543258 142.945858 482.192675 143.482359 
L 482.192675 146.492378 
Q 479.45915 145.803037 476.75366 145.463045 
Q 474.048171 145.119934 471.328663 145.119934 
Q 466.296173 145.119934 463.569656 146.373848 
Q 460.84314 147.624644 460.84314 149.954679 
Q 460.84314 152.26288 463.471529 153.523032 
Q 466.099919 154.780066 470.936157 154.780066 
Q 472.253857 154.780066 473.382312 154.708325 
Q 474.510767 154.633464 475.407925 154.477505 
L 475.407925 151.651518 
L 470.25628 151.651518 
L 470.25628 149.134332 
L 483.39823 149.134332 
z
" style="fill:#ffa600;"/>
   </g>
   <g id="patch_33">
    <path clip-path="url(#pc121a00c02)" d="M 473.787654 120.393999 
L 461.760047 120.393999 
L 459.860951 142.4 
L 452.123894 142.4 
L 463.173179 21.6 
L 472.348945 21.6 
L 483.39823 142.4 
L 475.667567 142.4 
z
M 463.678326 97.973768 
L 471.850193 97.973768 
L 467.770653 49.923018 
z
" style="fill:#008000;"/>
   </g>
   <g id="patch_34">
    <path clip-path="url(#pc121a00c02)" d="M 506.708008 151.9985 
L 494.680401 151.9985 
L 492.781305 157.5 
L 485.044248 157.5 
L 496.093533 127.3 
L 505.269299 127.3 
L 516.318584 157.5 
L 508.587921 157.5 
z
M 496.59868 146.393442 
L 504.770547 146.393442 
L 500.691007 134.380754 
z
" style="fill:#008000;"/>
   </g>
   <g id="patch_35">
    <path clip-path="url(#pc121a00c02)" d="M 485.044248 82 
L 516.318584 82 
L 516.318584 90.834762 
L 505.067096 90.834762 
L 505.067096 127.3 
L 496.317555 127.3 
L 496.317555 90.834762 
L 485.044248 90.834762 
z
" style="fill:#ff0000;"/>
   </g>
   <g id="patch_36">
    <path clip-path="url(#pc121a00c02)" d="M 516.318584 77.670564 
Q 513.70254 79.816567 510.873745 80.902045 
Q 508.04495 82 504.964006 82 
Q 495.776333 82 490.41029 73.865152 
Q 485.044248 65.730304 485.044248 51.818715 
Q 485.044248 37.85722 490.41029 29.734848 
Q 495.776333 21.6 504.964006 21.6 
Q 508.04495 21.6 510.873745 22.697955 
Q 513.70254 23.783433 516.318584 25.929436 
L 516.318584 37.96951 
Q 513.678901 35.124809 511.118014 33.802272 
Q 508.557127 32.479736 505.728333 32.479736 
Q 500.653837 32.479736 497.746246 37.632638 
Q 494.846534 42.773063 494.846534 51.818715 
Q 494.846534 60.826937 497.746246 65.979839 
Q 500.653837 71.120264 505.728333 71.120264 
Q 508.557127 71.120264 511.118014 69.797728 
Q 513.678901 68.462714 516.318584 65.618013 
z
" style="fill:#0000ff;"/>
   </g>
   <g id="patch_37">
    <path clip-path="url(#pc121a00c02)" d="M 539.628362 154.74925 
L 527.600755 154.74925 
L 525.701659 157.5 
L 517.964602 157.5 
L 529.013887 142.4 
L 538.189653 142.4 
L 549.238938 157.5 
L 541.508275 157.5 
z
M 529.519034 151.946721 
L 537.690901 151.946721 
L 533.611361 145.940377 
z
" style="fill:#008000;"/>
   </g>
   <g id="patch_38">
    <path clip-path="url(#pc121a00c02)" d="M 549.238938 136.935179 
Q 546.08487 139.667589 542.692495 141.040033 
Q 539.300119 142.4 535.683455 142.4 
Q 527.510914 142.4 522.737758 134.265152 
Q 517.964602 126.130304 517.964602 112.218715 
Q 517.964602 98.144929 522.821866 90.072464 
Q 527.68614 82 536.146051 82 
Q 539.405255 82 542.391106 83.097955 
Q 545.383966 84.183433 548.033383 86.329436 
L 548.033383 98.36951 
Q 545.299858 95.612146 542.594368 94.252179 
Q 539.888879 92.879736 537.169371 92.879736 
Q 532.136881 92.879736 529.410364 97.895394 
Q 526.683847 102.898575 526.683847 112.218715 
Q 526.683847 121.451518 529.312237 126.49213 
Q 531.940627 131.520264 536.776865 131.520264 
Q 538.094565 131.520264 539.22302 131.233299 
Q 540.351475 130.933857 541.248633 130.310019 
L 541.248633 119.006073 
L 536.096988 119.006073 
L 536.096988 108.937327 
L 549.238938 108.937327 
z
" style="fill:#ffa600;"/>
   </g>
   <g id="patch_39">
    <path clip-path="url(#pc121a00c02)" d="M 517.964602 21.6 
L 549.238938 21.6 
L 549.238938 33.379683 
L 537.98745 33.379683 
L 537.98745 82 
L 529.237909 82 
L 529.237909 33.379683 
L 517.964602 33.379683 
z
" style="fill:#ff0000;"/>
   </g>
   <g id="patch_40">
    <path clip-path="url(#pc121a00c02)" d="M 550.884956 127.3 
L 582.159292 127.3 
L 582.159292 133.189841 
L 570.907804 133.189841 
L 570.907804 157.5 
L 562.158263 157.5 
L 562.158263 133.189841 
L 550.884956 133.189841 
z
" style="fill:#ff0000;"/>
   </g>
   <g id="patch_41">
    <path clip-path="url(#pc121a00c02)" d="M 572.548716 119.04775 
L 560.521109 119.04775 
L 558.622013 127.3 
L 550.884956 127.3 
L 561.934241 82 
L 571.110007 82 
L 582.159292 127.3 
L 574.428629 127.3 
z
M 562.439387 110.640163 
L 570.611255 110.640163 
L 566.531715 92.621132 
z
" style="fill:#008000;"/>
   </g>
   <g id="patch_42">
    <path clip-path="url(#pc121a00c02)" d="M 582.159292 76.535179 
Q 579.005224 79.267589 575.612849 80.640033 
Q 572.220473 82 568.603809 82 
Q 560.431268 82 555.658112 73.865152 
Q 550.884956 65.730304 550.884956 51.818715 
Q 550.884956 37.744929 555.74222 29.672464 
Q 560.606494 21.6 569.066405 21.6 
Q 572.325609 21.6 575.31146 22.697955 
Q 578.30432 23.783433 580.953737 25.929436 
L 580.953737 37.96951 
Q 578.220212 35.212146 575.514722 33.852179 
Q 572.809233 32.479736 570.089725 32.479736 
Q 565.057235 32.479736 562.330718 37.495394 
Q 559.604201 42.498575 559.604201 51.818715 
Q 559.604201 61.051518 562.232591 66.09213 
Q 564.860981 71.120264 569.697219 71.120264 
Q 571.014919 71.120264 572.143374 70.833299 
Q 573.271829 70.533857 574.168986 69.910019 
L 574.168986 58.606073 
L 569.017342 58.606073 
L 569.017342 48.537327 
L 582.159292 48.537327 
z
" style="fill:#ffa600;"/>
   </g>
   <g id="patch_43">
    <path clip-path="url(#pc121a00c02)" d="M 615.079646 156.417641 
Q 612.463602 156.954142 609.634807 157.225511 
Q 606.806012 157.5 603.725068 157.5 
Q 594.537395 157.5 589.171352 155.466288 
Q 583.80531 153.432576 583.80531 149.954679 
Q 583.80531 146.464305 589.171352 144.433712 
Q 594.537395 142.4 603.725068 142.4 
Q 606.806012 142.4 609.634807 142.674489 
Q 612.463602 142.945858 615.079646 143.482359 
L 615.079646 146.492378 
Q 612.439963 145.781202 609.879076 145.450568 
Q 607.318189 145.119934 604.489395 145.119934 
Q 599.414899 145.119934 596.507308 146.408159 
Q 593.607596 147.693266 593.607596 149.954679 
Q 593.607596 152.206734 596.507308 153.49496 
Q 599.414899 154.780066 604.489395 154.780066 
Q 607.318189 154.780066 609.879076 154.449432 
Q 612.439963 154.115679 615.079646 153.404503 
z
" style="fill:#0000ff;"/>
   </g>
   <g id="patch_44">
    <path clip-path="url(#pc121a00c02)" d="M 615.079646 141.033795 
Q 611.925578 141.716897 608.533203 142.060008 
Q 605.140827 142.4 601.524163 142.4 
Q 593.351622 142.4 588.578466 140.366288 
Q 583.80531 138.332576 583.80531 134.854679 
Q 583.80531 131.336232 588.662574 129.318116 
Q 593.526848 127.3 601.986759 127.3 
Q 605.245963 127.3 608.231814 127.574489 
Q 611.224674 127.845858 613.874091 128.382359 
L 613.874091 131.392378 
Q 611.140566 130.703037 608.435076 130.363045 
Q 605.729587 130.019934 603.010079 130.019934 
Q 597.977589 130.019934 595.251072 131.273848 
Q 592.524555 132.524644 592.524555 134.854679 
Q 592.524555 137.16288 595.152945 138.423032 
Q 597.781335 139.680066 602.617573 139.680066 
Q 603.935272 139.680066 605.063728 139.608325 
Q 606.192183 139.533464 607.08934 139.377505 
L 607.08934 136.551518 
L 601.937696 136.551518 
L 601.937696 134.034332 
L 615.079646 134.034332 
z
" style="fill:#ffa600;"/>
   </g>
   <g id="patch_45">
    <path clip-path="url(#pc121a00c02)" d="M 583.80531 82 
L 615.079646 82 
L 615.079646 90.834762 
L 603.828158 90.834762 
L 603.828158 127.3 
L 595.078617 127.3 
L 595.078617 90.834762 
L 583.80531 90.834762 
z
" style="fill:#ff0000;"/>
   </g>
   <g id="patch_46">
    <path clip-path="url(#pc121a00c02)" d="M 605.46907 70.997 
L 593.441463 70.997 
L 591.542367 82 
L 583.80531 82 
L 594.854595 21.6 
L 604.030361 21.6 
L 615.079646 82 
L 607.348983 82 
z
M 595.359741 59.786884 
L 603.531609 59.786884 
L 599.452069 35.761509 
z
" style="fill:#008000;"/>
   </g>
   <g id="patch_47">
    <path clip-path="url(#pc121a00c02)" d="M 648 155.335282 
Q 645.383956 156.408283 642.555161 156.951023 
Q 639.726366 157.5 636.645422 157.5 
Q 627.457749 157.5 622.091706 153.432576 
Q 616.725664 149.365152 616.725664 142.409358 
Q 616.725664 135.42861 622.091706 131.367424 
Q 627.457749 127.3 636.645422 127.3 
Q 639.726366 127.3 642.555161 127.848977 
Q 645.383956 128.391717 648 129.464718 
L 648 135.484755 
Q 645.360317 134.062404 642.79943 133.401136 
Q 640.238543 132.739868 637.409749 132.739868 
Q 632.335253 132.739868 629.427662 135.316319 
Q 626.52795 137.886532 626.52795 142.409358 
Q 626.52795 146.913468 629.427662 149.489919 
Q 632.335253 152.060132 637.409749 152.060132 
Q 640.238543 152.060132 642.79943 151.398864 
Q 645.360317 150.731357 648 149.309006 
z
" style="fill:#0000ff;"/>
   </g>
   <g id="patch_48">
    <path clip-path="url(#pc121a00c02)" d="M 616.725664 97.1 
L 648 97.1 
L 648 102.989841 
L 636.748512 102.989841 
L 636.748512 127.3 
L 627.998971 127.3 
L 627.998971 102.989841 
L 616.725664 102.989841 
z
" style="fill:#ff0000;"/>
   </g>
   <g id="patch_49">
    <path clip-path="url(#pc121a00c02)" d="M 648 90.268973 
Q 644.845932 93.684487 641.453557 95.400041 
Q 638.061181 97.1 634.444517 97.1 
Q 626.271976 97.1 621.49882 86.93144 
Q 616.725664 76.76288 616.725664 59.373394 
Q 616.725664 41.781161 621.582928 31.69058 
Q 626.447202 21.6 634.907113 21.6 
Q 638.166317 21.6 641.152168 22.972444 
Q 644.145028 24.329291 646.794445 27.011795 
L 646.794445 42.061888 
Q 644.06092 38.615183 641.35543 36.915224 
Q 638.649941 35.199669 635.930433 35.199669 
Q 630.897943 35.199669 628.171426 41.469242 
Q 625.444909 47.723218 625.444909 59.373394 
Q 625.444909 70.914398 628.073299 77.215162 
Q 630.701689 83.500331 635.537927 83.500331 
Q 636.855626 83.500331 637.984082 83.141624 
Q 639.112537 82.767321 640.009694 81.987523 
L 640.009694 67.857591 
L 634.85805 67.857591 
L 634.85805 55.271659 
L 648 55.271659 
z
" style="fill:#ffa600;"/>
   </g>
  </g>
 </g>
 <defs>
  <clipPath id="pc121a00c02">
   <rect height="135.9" width="558" x="90" y="21.6"/>
  </clipPath>
 </defs>
</svg>
