<?xml version="1.0" encoding="utf-8" standalone="no"?>
<!DOCTYPE svg PUBLIC "-//W3C//DTD SVG 1.1//EN"
  "http://www.w3.org/Graphics/SVG/1.1/DTD/svg11.dtd">
<!-- Created with matplotlib (https://matplotlib.org/) -->
<svg height="180pt" version="1.1" viewBox="0 0 720 180" width="720pt" xmlns="http://www.w3.org/2000/svg" xmlns:xlink="http://www.w3.org/1999/xlink">
 <metadata>
  <rdf:RDF xmlns:cc="http://creativecommons.org/ns#" xmlns:dc="http://purl.org/dc/elements/1.1/" xmlns:rdf="http://www.w3.org/1999/02/22-rdf-syntax-ns#">
   <cc:Work>
    <dc:type rdf:resource="http://purl.org/dc/dcmitype/StillImage"/>
    <dc:date>2021-08-04T23:33:47.115577</dc:date>
    <dc:format>image/svg+xml</dc:format>
    <dc:creator>
     <cc:Agent>
      <dc:title>Matplotlib v3.3.2, https://matplotlib.org/</dc:title>
     </cc:Agent>
    </dc:creator>
   </cc:Work>
  </rdf:RDF>
 </metadata>
 <defs>
  <style type="text/css">*{stroke-linecap:butt;stroke-linejoin:round;}</style>
 </defs>
 <g id="figure_1">
  <g id="patch_1">
   <path d="M 0 180 
L 720 180 
L 720 0 
L 0 0 
z
" style="fill:none;"/>
  </g>
  <g id="axes_1">
   <g id="line2d_1">
    <path clip-path="url(#pbbe04d5439)" d="M 90 157.5 
L 648 157.5 
" style="fill:none;stroke:#000000;stroke-linecap:square;stroke-width:0.5;"/>
   </g>
   <g id="patch_2">
    <path clip-path="url(#pbbe04d5439)" d="M 121.274336 156.133795 
Q 118.120268 156.816897 114.727893 157.160008 
Q 111.335518 157.5 107.718853 157.5 
Q 99.546312 157.5 94.773156 155.466288 
Q 90 153.432576 90 149.954679 
Q 90 146.436232 94.857265 144.418116 
Q 99.721538 142.4 108.18145 142.4 
Q 111.440653 142.4 114.426504 142.674489 
Q 117.419364 142.945858 120.068781 143.482359 
L 120.068781 146.492378 
Q 117.335256 145.803037 114.629766 145.463045 
Q 111.924277 145.119934 109.204769 145.119934 
Q 104.172279 145.119934 101.445762 146.373848 
Q 98.719246 147.624644 98.719246 149.954679 
Q 98.719246 152.26288 101.347636 153.523032 
Q 103.976026 154.780066 108.812263 154.780066 
Q 110.129963 154.780066 111.258418 154.708325 
Q 112.386874 154.633464 113.284031 154.477505 
L 113.284031 151.651518 
L 108.132386 151.651518 
L 108.132386 149.134332 
L 121.274336 149.134332 
z
" style="fill:#ffa600;"/>
   </g>
   <g id="patch_3">
    <path clip-path="url(#pbbe04d5439)" d="M 111.66376 131.397 
L 99.636153 131.397 
L 97.737057 142.4 
L 90 142.4 
L 101.049285 82 
L 110.225051 82 
L 121.274336 142.4 
L 113.543673 142.4 
z
M 101.554432 120.186884 
L 109.726299 120.186884 
L 105.64676 96.161509 
z
" style="fill:#008000;"/>
   </g>
   <g id="patch_4">
    <path clip-path="url(#pbbe04d5439)" d="M 90 21.6 
L 121.274336 21.6 
L 121.274336 33.379683 
L 110.022848 33.379683 
L 110.022848 82 
L 101.273307 82 
L 101.273307 33.379683 
L 90 33.379683 
z
" style="fill:#ff0000;"/>
   </g>
   <g id="patch_5">
    <path clip-path="url(#pbbe04d5439)" d="M 154.19469 156.417641 
Q 151.578646 156.954142 148.749851 157.225511 
Q 145.921056 157.5 142.840113 157.5 
Q 133.652439 157.5 128.286397 155.466288 
Q 122.920354 153.432576 122.920354 149.954679 
Q 122.920354 146.464305 128.286397 144.433712 
Q 133.652439 142.4 142.840113 142.4 
Q 145.921056 142.4 148.749851 142.674489 
Q 151.578646 142.945858 154.19469 143.482359 
L 154.19469 146.492378 
Q 151.555007 145.781202 148.99412 145.450568 
Q 146.433234 145.119934 143.604439 145.119934 
Q 138.529943 145.119934 135.622352 146.408159 
Q 132.72264 147.693266 132.72264 149.954679 
Q 132.72264 152.206734 135.622352 153.49496 
Q 138.529943 154.780066 143.604439 154.780066 
Q 146.433234 154.780066 148.99412 154.449432 
Q 151.555007 154.115679 154.19469 153.404503 
z
" style="fill:#0000ff;"/>
   </g>
   <g id="patch_6">
    <path clip-path="url(#pbbe04d5439)" d="M 154.19469 141.033795 
Q 151.040622 141.716897 147.648247 142.060008 
Q 144.255872 142.4 140.639207 142.4 
Q 132.466666 142.4 127.69351 140.366288 
Q 122.920354 138.332576 122.920354 134.854679 
Q 122.920354 131.336232 127.777619 129.318116 
Q 132.641892 127.3 141.101804 127.3 
Q 144.361007 127.3 147.346858 127.574489 
Q 150.339718 127.845858 152.989135 128.382359 
L 152.989135 131.392378 
Q 150.25561 130.703037 147.55012 130.363045 
Q 144.844631 130.019934 142.125123 130.019934 
Q 137.092633 130.019934 134.366116 131.273848 
Q 131.6396 132.524644 131.6396 134.854679 
Q 131.6396 137.16288 134.26799 138.423032 
Q 136.89638 139.680066 141.732617 139.680066 
Q 143.050317 139.680066 144.178772 139.608325 
Q 145.307228 139.533464 146.204385 139.377505 
L 146.204385 136.551518 
L 141.05274 136.551518 
L 141.05274 134.034332 
L 154.19469 134.034332 
z
" style="fill:#ffa600;"/>
   </g>
   <g id="patch_7">
    <path clip-path="url(#pbbe04d5439)" d="M 122.920354 97.1 
L 154.19469 97.1 
L 154.19469 102.989841 
L 142.943202 102.989841 
L 142.943202 127.3 
L 134.193661 127.3 
L 134.193661 102.989841 
L 122.920354 102.989841 
z
" style="fill:#ff0000;"/>
   </g>
   <g id="patch_8">
    <path clip-path="url(#pbbe04d5439)" d="M 144.584114 83.346249 
L 132.556507 83.346249 
L 130.657411 97.1 
L 122.920354 97.1 
L 133.969639 21.6 
L 143.145405 21.6 
L 154.19469 97.1 
L 146.464027 97.1 
z
M 134.474786 69.333605 
L 142.646653 69.333605 
L 138.567114 39.301886 
z
" style="fill:#008000;"/>
   </g>
   <g id="patch_9">
    <path clip-path="url(#pbbe04d5439)" d="M 187.115044 156.417641 
Q 184.499 156.954142 181.670205 157.225511 
Q 178.84141 157.5 175.760467 157.5 
Q 166.572793 157.5 161.206751 155.466288 
Q 155.840708 153.432576 155.840708 149.954679 
Q 155.840708 146.464305 161.206751 144.433712 
Q 166.572793 142.4 175.760467 142.4 
Q 178.84141 142.4 181.670205 142.674489 
Q 184.499 142.945858 187.115044 143.482359 
L 187.115044 146.492378 
Q 184.475361 145.781202 181.914474 145.450568 
Q 179.353588 145.119934 176.524793 145.119934 
Q 171.450297 145.119934 168.542706 146.408159 
Q 165.642994 147.693266 165.642994 149.954679 
Q 165.642994 152.206734 168.542706 153.49496 
Q 171.450297 154.780066 176.524793 154.780066 
Q 179.353588 154.780066 181.914474 154.449432 
Q 184.475361 154.115679 187.115044 153.404503 
z
" style="fill:#0000ff;"/>
   </g>
   <g id="patch_10">
    <path clip-path="url(#pbbe04d5439)" d="M 155.840708 127.3 
L 187.115044 127.3 
L 187.115044 130.244921 
L 175.863556 130.244921 
L 175.863556 142.4 
L 167.114015 142.4 
L 167.114015 130.244921 
L 155.840708 130.244921 
z
" style="fill:#ff0000;"/>
   </g>
   <g id="patch_11">
    <path clip-path="url(#pbbe04d5439)" d="M 187.115044 124.567589 
Q 183.960976 125.933795 180.568601 126.620017 
Q 177.176226 127.3 173.559561 127.3 
Q 165.38702 127.3 160.613864 123.232576 
Q 155.840708 119.165152 155.840708 112.209358 
Q 155.840708 105.172464 160.697973 101.136232 
Q 165.562246 97.1 174.022158 97.1 
Q 177.281361 97.1 180.267212 97.648977 
Q 183.260072 98.191717 185.909489 99.264718 
L 185.909489 105.284755 
Q 183.175964 103.906073 180.470474 103.22609 
Q 177.764985 102.539868 175.045477 102.539868 
Q 170.012987 102.539868 167.28647 105.047697 
Q 164.559954 107.549287 164.559954 112.209358 
Q 164.559954 116.825759 167.188344 119.346065 
Q 169.816734 121.860132 174.652971 121.860132 
Q 175.970671 121.860132 177.099126 121.716649 
Q 178.227582 121.566928 179.124739 121.255009 
L 179.124739 115.603037 
L 173.973094 115.603037 
L 173.973094 110.568663 
L 187.115044 110.568663 
z
" style="fill:#ffa600;"/>
   </g>
   <g id="patch_12">
    <path clip-path="url(#pbbe04d5439)" d="M 177.504468 83.346249 
L 165.476861 83.346249 
L 163.577765 97.1 
L 155.840708 97.1 
L 166.889993 21.6 
L 176.065759 21.6 
L 187.115044 97.1 
L 179.384381 97.1 
z
M 167.39514 69.333605 
L 175.567007 69.333605 
L 171.487467 39.301886 
z
" style="fill:#008000;"/>
   </g>
   <g id="patch_13">
    <path clip-path="url(#pbbe04d5439)" d="M 220.035398 155.335282 
Q 217.419354 156.408283 214.590559 156.951023 
Q 211.761764 157.5 208.680821 157.5 
Q 199.493147 157.5 194.127105 153.432576 
Q 188.761062 149.365152 188.761062 142.409358 
Q 188.761062 135.42861 194.127105 131.367424 
Q 199.493147 127.3 208.680821 127.3 
Q 211.761764 127.3 214.590559 127.848977 
Q 217.419354 128.391717 220.035398 129.464718 
L 220.035398 135.484755 
Q 217.395715 134.062404 214.834828 133.401136 
Q 212.273942 132.739868 209.445147 132.739868 
Q 204.370651 132.739868 201.46306 135.316319 
Q 198.563348 137.886532 198.563348 142.409358 
Q 198.563348 146.913468 201.46306 149.489919 
Q 204.370651 152.060132 209.445147 152.060132 
Q 212.273942 152.060132 214.834828 151.398864 
Q 217.395715 150.731357 220.035398 149.309006 
z
" style="fill:#0000ff;"/>
   </g>
   <g id="patch_14">
    <path clip-path="url(#pbbe04d5439)" d="M 210.424822 119.04775 
L 198.397215 119.04775 
L 196.498119 127.3 
L 188.761062 127.3 
L 199.810347 82 
L 208.986113 82 
L 220.035398 127.3 
L 212.304735 127.3 
z
M 200.315494 110.640163 
L 208.487361 110.640163 
L 204.407821 92.621132 
z
" style="fill:#008000;"/>
   </g>
   <g id="patch_15">
    <path clip-path="url(#pbbe04d5439)" d="M 188.761062 21.6 
L 220.035398 21.6 
L 220.035398 33.379683 
L 208.78391 33.379683 
L 208.78391 82 
L 200.034369 82 
L 200.034369 33.379683 
L 188.761062 33.379683 
z
" style="fill:#ff0000;"/>
   </g>
   <g id="patch_16">
    <path clip-path="url(#pbbe04d5439)" d="M 221.681416 142.4 
L 252.955752 142.4 
L 252.955752 145.344921 
L 241.704264 145.344921 
L 241.704264 157.5 
L 232.954723 157.5 
L 232.954723 145.344921 
L 221.681416 145.344921 
z
" style="fill:#ff0000;"/>
   </g>
   <g id="patch_17">
    <path clip-path="url(#pbbe04d5439)" d="M 252.955752 140.235282 
Q 250.339708 141.308283 247.510913 141.851023 
Q 244.682118 142.4 241.601175 142.4 
Q 232.413501 142.4 227.047459 138.332576 
Q 221.681416 134.265152 221.681416 127.309358 
Q 221.681416 120.32861 227.047459 116.267424 
Q 232.413501 112.2 241.601175 112.2 
Q 244.682118 112.2 247.510913 112.748977 
Q 250.339708 113.291717 252.955752 114.364718 
L 252.955752 120.384755 
Q 250.316069 118.962404 247.755182 118.301136 
Q 245.194296 117.639868 242.365501 117.639868 
Q 237.291005 117.639868 234.383414 120.216319 
Q 231.483702 122.786532 231.483702 127.309358 
Q 231.483702 131.813468 234.383414 134.389919 
Q 237.291005 136.960132 242.365501 136.960132 
Q 245.194296 136.960132 247.755182 136.298864 
Q 250.316069 135.631357 252.955752 134.209006 
z
" style="fill:#0000ff;"/>
   </g>
   <g id="patch_18">
    <path clip-path="url(#pbbe04d5439)" d="M 252.955752 104.002768 
Q 249.801684 108.101384 246.409309 110.16005 
Q 243.016934 112.2 239.400269 112.2 
Q 231.227728 112.2 226.454572 99.997728 
Q 221.681416 87.795455 221.681416 66.928073 
Q 221.681416 45.817393 226.538681 33.708697 
Q 231.402954 21.6 239.862866 21.6 
Q 243.122069 21.6 246.10792 23.246932 
Q 249.10078 24.87515 251.750197 28.094154 
L 251.750197 46.154266 
Q 249.016672 42.018219 246.311182 39.978269 
Q 243.605693 37.919603 240.886185 37.919603 
Q 235.853695 37.919603 233.127178 45.44309 
Q 230.400662 52.947862 230.400662 66.928073 
Q 230.400662 80.777277 233.029052 88.338195 
Q 235.657442 95.880397 240.493679 95.880397 
Q 241.811379 95.880397 242.939834 95.449948 
Q 244.06829 95.000785 244.965447 94.065028 
L 244.965447 77.10911 
L 239.813802 77.10911 
L 239.813802 62.00599 
L 252.955752 62.00599 
z
" style="fill:#ffa600;"/>
   </g>
   <g id="patch_19">
    <path clip-path="url(#pbbe04d5439)" d="M 276.26553 154.74925 
L 264.237923 154.74925 
L 262.338827 157.5 
L 254.60177 157.5 
L 265.651055 142.4 
L 274.826821 142.4 
L 285.876106 157.5 
L 278.145443 157.5 
z
M 266.156202 151.946721 
L 274.328069 151.946721 
L 270.248529 145.940377 
z
" style="fill:#008000;"/>
   </g>
   <g id="patch_20">
    <path clip-path="url(#pbbe04d5439)" d="M 285.876106 138.301384 
Q 282.722038 140.350692 279.329663 141.380025 
Q 275.937288 142.4 272.320623 142.4 
Q 264.148082 142.4 259.374926 136.298864 
Q 254.60177 130.197728 254.60177 119.764036 
Q 254.60177 109.208697 259.459035 103.154348 
Q 264.323308 97.1 272.78322 97.1 
Q 276.042423 97.1 279.028274 97.923466 
Q 282.021134 98.737575 284.670551 100.347077 
L 284.670551 109.377133 
Q 281.937026 107.30911 279.231536 106.289134 
Q 276.526047 105.259802 273.806539 105.259802 
Q 268.774049 105.259802 266.047532 109.021545 
Q 263.321016 112.773931 263.321016 119.764036 
Q 263.321016 126.688639 265.949406 130.469097 
Q 268.577796 134.240198 273.414033 134.240198 
Q 274.731733 134.240198 275.860188 134.024974 
Q 276.988644 133.800392 277.885801 133.332514 
L 277.885801 124.854555 
L 272.734156 124.854555 
L 272.734156 117.302995 
L 285.876106 117.302995 
z
" style="fill:#ffa600;"/>
   </g>
   <g id="patch_21">
    <path clip-path="url(#pbbe04d5439)" d="M 254.60177 21.6 
L 285.876106 21.6 
L 285.876106 36.324604 
L 274.624618 36.324604 
L 274.624618 97.1 
L 265.875077 97.1 
L 265.875077 36.324604 
L 254.60177 36.324604 
z
" style="fill:#ff0000;"/>
   </g>
   <g id="patch_22">
    <path clip-path="url(#pbbe04d5439)" d="M 287.522124 21.6 
L 318.79646 21.6 
L 318.79646 48.104286 
L 307.544972 48.104286 
L 307.544972 157.5 
L 298.795431 157.5 
L 298.795431 48.104286 
L 287.522124 48.104286 
z
" style="fill:#ff0000;"/>
   </g>
   <g id="patch_23">
    <path clip-path="url(#pbbe04d5439)" d="M 351.716814 145.204152 
Q 348.562746 151.352076 345.170371 154.440074 
Q 341.777996 157.5 338.161331 157.5 
Q 329.98879 157.5 325.215634 139.196592 
Q 320.442478 120.893183 320.442478 89.592109 
Q 320.442478 57.92609 325.299743 39.763045 
Q 330.164016 21.6 338.623928 21.6 
Q 341.883131 21.6 344.868982 24.070399 
Q 347.861842 26.512725 350.511259 31.341231 
L 350.511259 58.431398 
Q 347.777734 52.227329 345.072244 49.167403 
Q 342.366755 46.079405 339.647247 46.079405 
Q 334.614757 46.079405 331.88824 57.364635 
Q 329.161724 68.621793 329.161724 89.592109 
Q 329.161724 110.365916 331.790114 121.707292 
Q 334.418504 133.020595 339.254741 133.020595 
Q 340.572441 133.020595 341.700896 132.374923 
Q 342.829351 131.701177 343.726509 130.297542 
L 343.726509 104.863665 
L 338.574864 104.863665 
L 338.574864 82.208986 
L 351.716814 82.208986 
z
" style="fill:#ffa600;"/>
   </g>
   <g id="patch_24">
    <path clip-path="url(#pbbe04d5439)" d="M 375.026592 154.74925 
L 362.998985 154.74925 
L 361.099889 157.5 
L 353.362832 157.5 
L 364.412117 142.4 
L 373.587883 142.4 
L 384.637168 157.5 
L 376.906505 157.5 
z
M 364.917264 151.946721 
L 373.089131 151.946721 
L 369.009591 145.940377 
z
" style="fill:#008000;"/>
   </g>
   <g id="patch_25">
    <path clip-path="url(#pbbe04d5439)" d="M 353.362832 97.1 
L 384.637168 97.1 
L 384.637168 105.934762 
L 373.38568 105.934762 
L 373.38568 142.4 
L 364.636139 142.4 
L 364.636139 105.934762 
L 353.362832 105.934762 
z
" style="fill:#ff0000;"/>
   </g>
   <g id="patch_26">
    <path clip-path="url(#pbbe04d5439)" d="M 384.637168 91.688205 
Q 382.021124 94.370709 379.192329 95.727556 
Q 376.363534 97.1 373.282591 97.1 
Q 364.094917 97.1 358.728874 86.93144 
Q 353.362832 76.76288 353.362832 59.373394 
Q 353.362832 41.921524 358.728874 31.76856 
Q 364.094917 21.6 373.282591 21.6 
Q 376.363534 21.6 379.192329 22.972444 
Q 382.021124 24.329291 384.637168 27.011795 
L 384.637168 42.061888 
Q 381.997485 38.506011 379.436598 36.85284 
Q 376.875712 35.199669 374.046917 35.199669 
Q 368.972421 35.199669 366.06483 41.640797 
Q 363.165118 48.066329 363.165118 59.373394 
Q 363.165118 70.633671 366.06483 77.074799 
Q 368.972421 83.500331 374.046917 83.500331 
Q 376.875712 83.500331 379.436598 81.84716 
Q 381.997485 80.178393 384.637168 76.622516 
z
" style="fill:#0000ff;"/>
   </g>
   <g id="patch_27">
    <path clip-path="url(#pbbe04d5439)" d="M 407.946946 132.743249 
L 395.919339 132.743249 
L 394.020243 157.5 
L 386.283186 157.5 
L 397.332471 21.6 
L 406.508237 21.6 
L 417.557522 157.5 
L 409.826859 157.5 
z
M 397.837618 107.520489 
L 406.009485 107.520489 
L 401.929945 53.463395 
z
" style="fill:#008000;"/>
   </g>
   <g id="patch_28">
    <path clip-path="url(#pbbe04d5439)" d="M 419.20354 21.6 
L 450.477876 21.6 
L 450.477876 48.104286 
L 439.226388 48.104286 
L 439.226388 157.5 
L 430.476847 157.5 
L 430.476847 48.104286 
L 419.20354 48.104286 
z
" style="fill:#ff0000;"/>
   </g>
   <g id="patch_29">
    <path clip-path="url(#pbbe04d5439)" d="M 483.39823 145.204152 
Q 480.244162 151.352076 476.851787 154.440074 
Q 473.459411 157.5 469.842747 157.5 
Q 461.670206 157.5 456.89705 139.196592 
Q 452.123894 120.893183 452.123894 89.592109 
Q 452.123894 57.92609 456.981158 39.763045 
Q 461.845432 21.6 470.305343 21.6 
Q 473.564547 21.6 476.550398 24.070399 
Q 479.543258 26.512725 482.192675 31.341231 
L 482.192675 58.431398 
Q 479.45915 52.227329 476.75366 49.167403 
Q 474.048171 46.079405 471.328663 46.079405 
Q 466.296173 46.079405 463.569656 57.364635 
Q 460.84314 68.621793 460.84314 89.592109 
Q 460.84314 110.365916 463.471529 121.707292 
Q 466.099919 133.020595 470.936157 133.020595 
Q 472.253857 133.020595 473.382312 132.374923 
Q 474.510767 131.701177 475.407925 130.297542 
L 475.407925 104.863665 
L 470.25628 104.863665 
L 470.25628 82.208986 
L 483.39823 82.208986 
z
" style="fill:#ffa600;"/>
   </g>
   <g id="patch_30">
    <path clip-path="url(#pbbe04d5439)" d="M 506.708008 154.74925 
L 494.680401 154.74925 
L 492.781305 157.5 
L 485.044248 157.5 
L 496.093533 142.4 
L 505.269299 142.4 
L 516.318584 157.5 
L 508.587921 157.5 
z
M 496.59868 151.946721 
L 504.770547 151.946721 
L 500.691007 145.940377 
z
" style="fill:#008000;"/>
   </g>
   <g id="patch_31">
    <path clip-path="url(#pbbe04d5439)" d="M 516.318584 141.033795 
Q 513.164516 141.716897 509.772141 142.060008 
Q 506.379765 142.4 502.763101 142.4 
Q 494.59056 142.4 489.817404 140.366288 
Q 485.044248 138.332576 485.044248 134.854679 
Q 485.044248 131.336232 489.901512 129.318116 
Q 494.765786 127.3 503.225697 127.3 
Q 506.484901 127.3 509.470752 127.574489 
Q 512.463612 127.845858 515.113029 128.382359 
L 515.113029 131.392378 
Q 512.379504 130.703037 509.674014 130.363045 
Q 506.968525 130.019934 504.249017 130.019934 
Q 499.216527 130.019934 496.49001 131.273848 
Q 493.763493 132.524644 493.763493 134.854679 
Q 493.763493 137.16288 496.391883 138.423032 
Q 499.020273 139.680066 503.856511 139.680066 
Q 505.174211 139.680066 506.302666 139.608325 
Q 507.431121 139.533464 508.328279 139.377505 
L 508.328279 136.551518 
L 503.176634 136.551518 
L 503.176634 134.034332 
L 516.318584 134.034332 
z
" style="fill:#ffa600;"/>
   </g>
   <g id="patch_32">
    <path clip-path="url(#pbbe04d5439)" d="M 485.044248 112.2 
L 516.318584 112.2 
L 516.318584 115.144921 
L 505.067096 115.144921 
L 505.067096 127.3 
L 496.317555 127.3 
L 496.317555 115.144921 
L 485.044248 115.144921 
z
" style="fill:#ff0000;"/>
   </g>
   <g id="patch_33">
    <path clip-path="url(#pbbe04d5439)" d="M 516.318584 105.705846 
Q 513.70254 108.92485 510.873745 110.553068 
Q 508.04495 112.2 504.964006 112.2 
Q 495.776333 112.2 490.41029 99.997728 
Q 485.044248 87.795455 485.044248 66.928073 
Q 485.044248 45.985829 490.41029 33.802272 
Q 495.776333 21.6 504.964006 21.6 
Q 508.04495 21.6 510.873745 23.246932 
Q 513.70254 24.87515 516.318584 28.094154 
L 516.318584 46.154266 
Q 513.678901 41.887213 511.118014 39.903408 
Q 508.557127 37.919603 505.728333 37.919603 
Q 500.653837 37.919603 497.746246 45.648957 
Q 494.846534 53.359595 494.846534 66.928073 
Q 494.846534 80.440405 497.746246 88.169758 
Q 500.653837 95.880397 505.728333 95.880397 
Q 508.557127 95.880397 511.118014 93.896592 
Q 513.678901 91.894071 516.318584 87.627019 
z
" style="fill:#0000ff;"/>
   </g>
   <g id="patch_34">
    <path clip-path="url(#pbbe04d5439)" d="M 517.964602 142.4 
L 549.238938 142.4 
L 549.238938 145.344921 
L 537.98745 145.344921 
L 537.98745 157.5 
L 529.237909 157.5 
L 529.237909 145.344921 
L 517.964602 145.344921 
z
" style="fill:#ff0000;"/>
   </g>
   <g id="patch_35">
    <path clip-path="url(#pbbe04d5439)" d="M 539.628362 134.14775 
L 527.600755 134.14775 
L 525.701659 142.4 
L 517.964602 142.4 
L 529.013887 97.1 
L 538.189653 97.1 
L 549.238938 142.4 
L 541.508275 142.4 
z
M 529.519034 125.740163 
L 537.690901 125.740163 
L 533.611361 107.721132 
z
" style="fill:#008000;"/>
   </g>
   <g id="patch_36">
    <path clip-path="url(#pbbe04d5439)" d="M 549.238938 90.268973 
Q 546.08487 93.684487 542.692495 95.400041 
Q 539.300119 97.1 535.683455 97.1 
Q 527.510914 97.1 522.737758 86.93144 
Q 517.964602 76.76288 517.964602 59.373394 
Q 517.964602 41.781161 522.821866 31.69058 
Q 527.68614 21.6 536.146051 21.6 
Q 539.405255 21.6 542.391106 22.972444 
Q 545.383966 24.329291 548.033383 27.011795 
L 548.033383 42.061888 
Q 545.299858 38.615183 542.594368 36.915224 
Q 539.888879 35.199669 537.169371 35.199669 
Q 532.136881 35.199669 529.410364 41.469242 
Q 526.683847 47.723218 526.683847 59.373394 
Q 526.683847 70.914398 529.312237 77.215162 
Q 531.940627 83.500331 536.776865 83.500331 
Q 538.094565 83.500331 539.22302 83.141624 
Q 540.351475 82.767321 541.248633 81.987523 
L 541.248633 67.857591 
L 536.096988 67.857591 
L 536.096988 55.271659 
L 549.238938 55.271659 
z
" style="fill:#ffa600;"/>
   </g>
   <g id="patch_37">
    <path clip-path="url(#pbbe04d5439)" d="M 550.884956 142.4 
L 582.159292 142.4 
L 582.159292 145.344921 
L 570.907804 145.344921 
L 570.907804 157.5 
L 562.158263 157.5 
L 562.158263 145.344921 
L 550.884956 145.344921 
z
" style="fill:#ff0000;"/>
   </g>
   <g id="patch_38">
    <path clip-path="url(#pbbe04d5439)" d="M 582.159292 140.235282 
Q 579.543248 141.308283 576.714453 141.851023 
Q 573.885658 142.4 570.804714 142.4 
Q 561.617041 142.4 556.250998 138.332576 
Q 550.884956 134.265152 550.884956 127.309358 
Q 550.884956 120.32861 556.250998 116.267424 
Q 561.617041 112.2 570.804714 112.2 
Q 573.885658 112.2 576.714453 112.748977 
Q 579.543248 113.291717 582.159292 114.364718 
L 582.159292 120.384755 
Q 579.519609 118.962404 576.958722 118.301136 
Q 574.397835 117.639868 571.569041 117.639868 
Q 566.494545 117.639868 563.586954 120.216319 
Q 560.687242 122.786532 560.687242 127.309358 
Q 560.687242 131.813468 563.586954 134.389919 
Q 566.494545 136.960132 571.569041 136.960132 
Q 574.397835 136.960132 576.958722 136.298864 
Q 579.519609 135.631357 582.159292 134.209006 
z
" style="fill:#0000ff;"/>
   </g>
   <g id="patch_39">
    <path clip-path="url(#pbbe04d5439)" d="M 582.159292 109.467589 
Q 579.005224 110.833795 575.612849 111.520017 
Q 572.220473 112.2 568.603809 112.2 
Q 560.431268 112.2 555.658112 108.132576 
Q 550.884956 104.065152 550.884956 97.109358 
Q 550.884956 90.072464 555.74222 86.036232 
Q 560.606494 82 569.066405 82 
Q 572.325609 82 575.31146 82.548977 
Q 578.30432 83.091717 580.953737 84.164718 
L 580.953737 90.184755 
Q 578.220212 88.806073 575.514722 88.12609 
Q 572.809233 87.439868 570.089725 87.439868 
Q 565.057235 87.439868 562.330718 89.947697 
Q 559.604201 92.449287 559.604201 97.109358 
Q 559.604201 101.725759 562.232591 104.246065 
Q 564.860981 106.760132 569.697219 106.760132 
Q 571.014919 106.760132 572.143374 106.616649 
Q 573.271829 106.466928 574.168986 106.155009 
L 574.168986 100.503037 
L 569.017342 100.503037 
L 569.017342 95.468663 
L 582.159292 95.468663 
z
" style="fill:#ffa600;"/>
   </g>
   <g id="patch_40">
    <path clip-path="url(#pbbe04d5439)" d="M 572.548716 70.997 
L 560.521109 70.997 
L 558.622013 82 
L 550.884956 82 
L 561.934241 21.6 
L 571.110007 21.6 
L 582.159292 82 
L 574.428629 82 
z
M 562.439387 59.786884 
L 570.611255 59.786884 
L 566.531715 35.761509 
z
" style="fill:#008000;"/>
   </g>
   <g id="patch_41">
    <path clip-path="url(#pbbe04d5439)" d="M 615.079646 156.417641 
Q 612.463602 156.954142 609.634807 157.225511 
Q 606.806012 157.5 603.725068 157.5 
Q 594.537395 157.5 589.171352 155.466288 
Q 583.80531 153.432576 583.80531 149.954679 
Q 583.80531 146.464305 589.171352 144.433712 
Q 594.537395 142.4 603.725068 142.4 
Q 606.806012 142.4 609.634807 142.674489 
Q 612.463602 142.945858 615.079646 143.482359 
L 615.079646 146.492378 
Q 612.439963 145.781202 609.879076 145.450568 
Q 607.318189 145.119934 604.489395 145.119934 
Q 599.414899 145.119934 596.507308 146.408159 
Q 593.607596 147.693266 593.607596 149.954679 
Q 593.607596 152.206734 596.507308 153.49496 
Q 599.414899 154.780066 604.489395 154.780066 
Q 607.318189 154.780066 609.879076 154.449432 
Q 612.439963 154.115679 615.079646 153.404503 
z
" style="fill:#0000ff;"/>
   </g>
   <g id="patch_42">
    <path clip-path="url(#pbbe04d5439)" d="M 583.80531 127.3 
L 615.079646 127.3 
L 615.079646 130.244921 
L 603.828158 130.244921 
L 603.828158 142.4 
L 595.078617 142.4 
L 595.078617 130.244921 
L 583.80531 130.244921 
z
" style="fill:#ff0000;"/>
   </g>
   <g id="patch_43">
    <path clip-path="url(#pbbe04d5439)" d="M 605.46907 119.04775 
L 593.441463 119.04775 
L 591.542367 127.3 
L 583.80531 127.3 
L 594.854595 82 
L 604.030361 82 
L 615.079646 127.3 
L 607.348983 127.3 
z
M 595.359741 110.640163 
L 603.531609 110.640163 
L 599.452069 92.621132 
z
" style="fill:#008000;"/>
   </g>
   <g id="patch_44">
    <path clip-path="url(#pbbe04d5439)" d="M 615.079646 76.535179 
Q 611.925578 79.267589 608.533203 80.640033 
Q 605.140827 82 601.524163 82 
Q 593.351622 82 588.578466 73.865152 
Q 583.80531 65.730304 583.80531 51.818715 
Q 583.80531 37.744929 588.662574 29.672464 
Q 593.526848 21.6 601.986759 21.6 
Q 605.245963 21.6 608.231814 22.697955 
Q 611.224674 23.783433 613.874091 25.929436 
L 613.874091 37.96951 
Q 611.140566 35.212146 608.435076 33.852179 
Q 605.729587 32.479736 603.010079 32.479736 
Q 597.977589 32.479736 595.251072 37.495394 
Q 592.524555 42.498575 592.524555 51.818715 
Q 592.524555 61.051518 595.152945 66.09213 
Q 597.781335 71.120264 602.617573 71.120264 
Q 603.935272 71.120264 605.063728 70.833299 
Q 606.192183 70.533857 607.08934 69.910019 
L 607.08934 58.606073 
L 601.937696 58.606073 
L 601.937696 48.537327 
L 615.079646 48.537327 
z
" style="fill:#ffa600;"/>
   </g>
   <g id="patch_45">
    <path clip-path="url(#pbbe04d5439)" d="M 616.725664 142.4 
L 648 142.4 
L 648 145.344921 
L 636.748512 145.344921 
L 636.748512 157.5 
L 627.998971 157.5 
L 627.998971 145.344921 
L 616.725664 145.344921 
z
" style="fill:#ff0000;"/>
   </g>
   <g id="patch_46">
    <path clip-path="url(#pbbe04d5439)" d="M 648 140.235282 
Q 645.383956 141.308283 642.555161 141.851023 
Q 639.726366 142.4 636.645422 142.4 
Q 627.457749 142.4 622.091706 138.332576 
Q 616.725664 134.265152 616.725664 127.309358 
Q 616.725664 120.32861 622.091706 116.267424 
Q 627.457749 112.2 636.645422 112.2 
Q 639.726366 112.2 642.555161 112.748977 
Q 645.383956 113.291717 648 114.364718 
L 648 120.384755 
Q 645.360317 118.962404 642.79943 118.301136 
Q 640.238543 117.639868 637.409749 117.639868 
Q 632.335253 117.639868 629.427662 120.216319 
Q 626.52795 122.786532 626.52795 127.309358 
Q 626.52795 131.813468 629.427662 134.389919 
Q 632.335253 136.960132 637.409749 136.960132 
Q 640.238543 136.960132 642.79943 136.298864 
Q 645.360317 135.631357 648 134.209006 
z
" style="fill:#0000ff;"/>
   </g>
   <g id="patch_47">
    <path clip-path="url(#pbbe04d5439)" d="M 638.389424 103.94775 
L 626.361817 103.94775 
L 624.462721 112.2 
L 616.725664 112.2 
L 627.774949 66.9 
L 636.950715 66.9 
L 648 112.2 
L 640.269337 112.2 
z
M 628.280095 95.540163 
L 636.451963 95.540163 
L 632.372423 77.521132 
z
" style="fill:#008000;"/>
   </g>
   <g id="patch_48">
    <path clip-path="url(#pbbe04d5439)" d="M 648 62.801384 
Q 644.845932 64.850692 641.453557 65.880025 
Q 638.061181 66.9 634.444517 66.9 
Q 626.271976 66.9 621.49882 60.798864 
Q 616.725664 54.697728 616.725664 44.264036 
Q 616.725664 33.708697 621.582928 27.654348 
Q 626.447202 21.6 634.907113 21.6 
Q 638.166317 21.6 641.152168 22.423466 
Q 644.145028 23.237575 646.794445 24.847077 
L 646.794445 33.877133 
Q 644.06092 31.80911 641.35543 30.789134 
Q 638.649941 29.759802 635.930433 29.759802 
Q 630.897943 29.759802 628.171426 33.521545 
Q 625.444909 37.273931 625.444909 44.264036 
Q 625.444909 51.188639 628.073299 54.969097 
Q 630.701689 58.740198 635.537927 58.740198 
Q 636.855626 58.740198 637.984082 58.524974 
Q 639.112537 58.300392 640.009694 57.832514 
L 640.009694 49.354555 
L 634.85805 49.354555 
L 634.85805 41.802995 
L 648 41.802995 
z
" style="fill:#ffa600;"/>
   </g>
  </g>
 </g>
 <defs>
  <clipPath id="pbbe04d5439">
   <rect height="135.9" width="558" x="90" y="21.6"/>
  </clipPath>
 </defs>
</svg>
