<?xml version="1.0" encoding="utf-8" standalone="no"?>
<!DOCTYPE svg PUBLIC "-//W3C//DTD SVG 1.1//EN"
  "http://www.w3.org/Graphics/SVG/1.1/DTD/svg11.dtd">
<!-- Created with matplotlib (https://matplotlib.org/) -->
<svg height="180pt" version="1.1" viewBox="0 0 720 180" width="720pt" xmlns="http://www.w3.org/2000/svg" xmlns:xlink="http://www.w3.org/1999/xlink">
 <metadata>
  <rdf:RDF xmlns:cc="http://creativecommons.org/ns#" xmlns:dc="http://purl.org/dc/elements/1.1/" xmlns:rdf="http://www.w3.org/1999/02/22-rdf-syntax-ns#">
   <cc:Work>
    <dc:type rdf:resource="http://purl.org/dc/dcmitype/StillImage"/>
    <dc:date>2021-08-04T23:33:21.324437</dc:date>
    <dc:format>image/svg+xml</dc:format>
    <dc:creator>
     <cc:Agent>
      <dc:title>Matplotlib v3.3.2, https://matplotlib.org/</dc:title>
     </cc:Agent>
    </dc:creator>
   </cc:Work>
  </rdf:RDF>
 </metadata>
 <defs>
  <style type="text/css">*{stroke-linecap:butt;stroke-linejoin:round;}</style>
 </defs>
 <g id="figure_1">
  <g id="patch_1">
   <path d="M 0 180 
L 720 180 
L 720 0 
L 0 0 
z
" style="fill:none;"/>
  </g>
  <g id="axes_1">
   <g id="line2d_1">
    <path clip-path="url(#pffea29ae10)" d="M 90 157.5 
L 648 157.5 
" style="fill:none;stroke:#000000;stroke-linecap:square;stroke-width:0.5;"/>
   </g>
   <g id="patch_2">
    <path clip-path="url(#pffea29ae10)" d="M 90 142.4 
L 121.274336 142.4 
L 121.274336 145.344921 
L 110.022848 145.344921 
L 110.022848 157.5 
L 101.273307 157.5 
L 101.273307 145.344921 
L 90 145.344921 
z
" style="fill:#ff0000;"/>
   </g>
   <g id="patch_3">
    <path clip-path="url(#pffea29ae10)" d="M 111.66376 136.8985 
L 99.636153 136.8985 
L 97.737057 142.4 
L 90 142.4 
L 101.049285 112.2 
L 110.225051 112.2 
L 121.274336 142.4 
L 113.543673 142.4 
z
M 101.554432 131.293442 
L 109.726299 131.293442 
L 105.64676 119.280754 
z
" style="fill:#008000;"/>
   </g>
   <g id="patch_4">
    <path clip-path="url(#pffea29ae10)" d="M 121.274336 109.467589 
Q 118.120268 110.833795 114.727893 111.520017 
Q 111.335518 112.2 107.718853 112.2 
Q 99.546312 112.2 94.773156 108.132576 
Q 90 104.065152 90 97.109358 
Q 90 90.072464 94.857265 86.036232 
Q 99.721538 82 108.18145 82 
Q 111.440653 82 114.426504 82.548977 
Q 117.419364 83.091717 120.068781 84.164718 
L 120.068781 90.184755 
Q 117.335256 88.806073 114.629766 88.12609 
Q 111.924277 87.439868 109.204769 87.439868 
Q 104.172279 87.439868 101.445762 89.947697 
Q 98.719246 92.449287 98.719246 97.109358 
Q 98.719246 101.725759 101.347636 104.246065 
Q 103.976026 106.760132 108.812263 106.760132 
Q 110.129963 106.760132 111.258418 106.616649 
Q 112.386874 106.466928 113.284031 106.155009 
L 113.284031 100.503037 
L 108.132386 100.503037 
L 108.132386 95.468663 
L 121.274336 95.468663 
z
" style="fill:#ffa600;"/>
   </g>
   <g id="patch_5">
    <path clip-path="url(#pffea29ae10)" d="M 121.274336 77.670564 
Q 118.658292 79.816567 115.829497 80.902045 
Q 113.000702 82 109.919759 82 
Q 100.732085 82 95.366043 73.865152 
Q 90 65.730304 90 51.818715 
Q 90 37.85722 95.366043 29.734848 
Q 100.732085 21.6 109.919759 21.6 
Q 113.000702 21.6 115.829497 22.697955 
Q 118.658292 23.783433 121.274336 25.929436 
L 121.274336 37.96951 
Q 118.634653 35.124809 116.073766 33.802272 
Q 113.51288 32.479736 110.684085 32.479736 
Q 105.609589 32.479736 102.701998 37.632638 
Q 99.802286 42.773063 99.802286 51.818715 
Q 99.802286 60.826937 102.701998 65.979839 
Q 105.609589 71.120264 110.684085 71.120264 
Q 113.51288 71.120264 116.073766 69.797728 
Q 118.634653 68.462714 121.274336 65.618013 
z
" style="fill:#0000ff;"/>
   </g>
   <g id="patch_6">
    <path clip-path="url(#pffea29ae10)" d="M 144.584114 149.24775 
L 132.556507 149.24775 
L 130.657411 157.5 
L 122.920354 157.5 
L 133.969639 112.2 
L 143.145405 112.2 
L 154.19469 157.5 
L 146.464027 157.5 
z
M 134.474786 140.840163 
L 142.646653 140.840163 
L 138.567114 122.821132 
z
" style="fill:#008000;"/>
   </g>
   <g id="patch_7">
    <path clip-path="url(#pffea29ae10)" d="M 154.19469 104.002768 
Q 151.040622 108.101384 147.648247 110.16005 
Q 144.255872 112.2 140.639207 112.2 
Q 132.466666 112.2 127.69351 99.997728 
Q 122.920354 87.795455 122.920354 66.928073 
Q 122.920354 45.817393 127.777619 33.708697 
Q 132.641892 21.6 141.101804 21.6 
Q 144.361007 21.6 147.346858 23.246932 
Q 150.339718 24.87515 152.989135 28.094154 
L 152.989135 46.154266 
Q 150.25561 42.018219 147.55012 39.978269 
Q 144.844631 37.919603 142.125123 37.919603 
Q 137.092633 37.919603 134.366116 45.44309 
Q 131.6396 52.947862 131.6396 66.928073 
Q 131.6396 80.777277 134.26799 88.338195 
Q 136.89638 95.880397 141.732617 95.880397 
Q 143.050317 95.880397 144.178772 95.449948 
Q 145.307228 95.000785 146.204385 94.065028 
L 146.204385 77.10911 
L 141.05274 77.10911 
L 141.05274 62.00599 
L 154.19469 62.00599 
z
" style="fill:#ffa600;"/>
   </g>
   <g id="patch_8">
    <path clip-path="url(#pffea29ae10)" d="M 177.504468 151.9985 
L 165.476861 151.9985 
L 163.577765 157.5 
L 155.840708 157.5 
L 166.889993 127.3 
L 176.065759 127.3 
L 187.115044 157.5 
L 179.384381 157.5 
z
M 167.39514 146.393442 
L 175.567007 146.393442 
L 171.487467 134.380754 
z
" style="fill:#008000;"/>
   </g>
   <g id="patch_9">
    <path clip-path="url(#pffea29ae10)" d="M 187.115044 124.052923 
Q 184.499 125.662425 181.670205 126.476534 
Q 178.84141 127.3 175.760467 127.3 
Q 166.572793 127.3 161.206751 121.198864 
Q 155.840708 115.097728 155.840708 104.664036 
Q 155.840708 94.192915 161.206751 88.101136 
Q 166.572793 82 175.760467 82 
Q 178.84141 82 181.670205 82.823466 
Q 184.499 83.637575 187.115044 85.247077 
L 187.115044 94.277133 
Q 184.475361 92.143607 181.914474 91.151704 
Q 179.353588 90.159802 176.524793 90.159802 
Q 171.450297 90.159802 168.542706 94.024478 
Q 165.642994 97.879798 165.642994 104.664036 
Q 165.642994 111.420202 168.542706 115.284879 
Q 171.450297 119.140198 176.524793 119.140198 
Q 179.353588 119.140198 181.914474 118.148296 
Q 184.475361 117.147036 187.115044 115.01351 
z
" style="fill:#0000ff;"/>
   </g>
   <g id="patch_10">
    <path clip-path="url(#pffea29ae10)" d="M 155.840708 21.6 
L 187.115044 21.6 
L 187.115044 33.379683 
L 175.863556 33.379683 
L 175.863556 82 
L 167.114015 82 
L 167.114015 33.379683 
L 155.840708 33.379683 
z
" style="fill:#ff0000;"/>
   </g>
   <g id="patch_11">
    <path clip-path="url(#pffea29ae10)" d="M 220.035398 155.335282 
Q 217.419354 156.408283 214.590559 156.951023 
Q 211.761764 157.5 208.680821 157.5 
Q 199.493147 157.5 194.127105 153.432576 
Q 188.761062 149.365152 188.761062 142.409358 
Q 188.761062 135.42861 194.127105 131.367424 
Q 199.493147 127.3 208.680821 127.3 
Q 211.761764 127.3 214.590559 127.848977 
Q 217.419354 128.391717 220.035398 129.464718 
L 220.035398 135.484755 
Q 217.395715 134.062404 214.834828 133.401136 
Q 212.273942 132.739868 209.445147 132.739868 
Q 204.370651 132.739868 201.46306 135.316319 
Q 198.563348 137.886532 198.563348 142.409358 
Q 198.563348 146.913468 201.46306 149.489919 
Q 204.370651 152.060132 209.445147 152.060132 
Q 212.273942 152.060132 214.834828 151.398864 
Q 217.395715 150.731357 220.035398 149.309006 
z
" style="fill:#0000ff;"/>
   </g>
   <g id="patch_12">
    <path clip-path="url(#pffea29ae10)" d="M 220.035398 123.201384 
Q 216.88133 125.250692 213.488955 126.280025 
Q 210.09658 127.3 206.479915 127.3 
Q 198.307374 127.3 193.534218 121.198864 
Q 188.761062 115.097728 188.761062 104.664036 
Q 188.761062 94.108697 193.618327 88.054348 
Q 198.4826 82 206.942512 82 
Q 210.201715 82 213.187566 82.823466 
Q 216.180426 83.637575 218.829843 85.247077 
L 218.829843 94.277133 
Q 216.096318 92.20911 213.390828 91.189134 
Q 210.685339 90.159802 207.965831 90.159802 
Q 202.933341 90.159802 200.206824 93.921545 
Q 197.480308 97.673931 197.480308 104.664036 
Q 197.480308 111.588639 200.108698 115.369097 
Q 202.737088 119.140198 207.573325 119.140198 
Q 208.891025 119.140198 210.01948 118.924974 
Q 211.147936 118.700392 212.045093 118.232514 
L 212.045093 109.754555 
L 206.893448 109.754555 
L 206.893448 102.202995 
L 220.035398 102.202995 
z
" style="fill:#ffa600;"/>
   </g>
   <g id="patch_13">
    <path clip-path="url(#pffea29ae10)" d="M 188.761062 21.6 
L 220.035398 21.6 
L 220.035398 33.379683 
L 208.78391 33.379683 
L 208.78391 82 
L 200.034369 82 
L 200.034369 33.379683 
L 188.761062 33.379683 
z
" style="fill:#ff0000;"/>
   </g>
   <g id="patch_14">
    <path clip-path="url(#pffea29ae10)" d="M 243.345176 146.497 
L 231.317569 146.497 
L 229.418473 157.5 
L 221.681416 157.5 
L 232.730701 97.1 
L 241.906467 97.1 
L 252.955752 157.5 
L 245.225089 157.5 
z
M 233.235848 135.286884 
L 241.407715 135.286884 
L 237.328175 111.261509 
z
" style="fill:#008000;"/>
   </g>
   <g id="patch_15">
    <path clip-path="url(#pffea29ae10)" d="M 221.681416 21.6 
L 252.955752 21.6 
L 252.955752 36.324604 
L 241.704264 36.324604 
L 241.704264 97.1 
L 232.954723 97.1 
L 232.954723 36.324604 
L 221.681416 36.324604 
z
" style="fill:#ff0000;"/>
   </g>
   <g id="patch_16">
    <path clip-path="url(#pffea29ae10)" d="M 285.876106 156.417641 
Q 283.260062 156.954142 280.431267 157.225511 
Q 277.602472 157.5 274.521529 157.5 
Q 265.333855 157.5 259.967812 155.466288 
Q 254.60177 153.432576 254.60177 149.954679 
Q 254.60177 146.464305 259.967812 144.433712 
Q 265.333855 142.4 274.521529 142.4 
Q 277.602472 142.4 280.431267 142.674489 
Q 283.260062 142.945858 285.876106 143.482359 
L 285.876106 146.492378 
Q 283.236423 145.781202 280.675536 145.450568 
Q 278.11465 145.119934 275.285855 145.119934 
Q 270.211359 145.119934 267.303768 146.408159 
Q 264.404056 147.693266 264.404056 149.954679 
Q 264.404056 152.206734 267.303768 153.49496 
Q 270.211359 154.780066 275.285855 154.780066 
Q 278.11465 154.780066 280.675536 154.449432 
Q 283.236423 154.115679 285.876106 153.404503 
z
" style="fill:#0000ff;"/>
   </g>
   <g id="patch_17">
    <path clip-path="url(#pffea29ae10)" d="M 285.876106 138.301384 
Q 282.722038 140.350692 279.329663 141.380025 
Q 275.937288 142.4 272.320623 142.4 
Q 264.148082 142.4 259.374926 136.298864 
Q 254.60177 130.197728 254.60177 119.764036 
Q 254.60177 109.208697 259.459035 103.154348 
Q 264.323308 97.1 272.78322 97.1 
Q 276.042423 97.1 279.028274 97.923466 
Q 282.021134 98.737575 284.670551 100.347077 
L 284.670551 109.377133 
Q 281.937026 107.30911 279.231536 106.289134 
Q 276.526047 105.259802 273.806539 105.259802 
Q 268.774049 105.259802 266.047532 109.021545 
Q 263.321016 112.773931 263.321016 119.764036 
Q 263.321016 126.688639 265.949406 130.469097 
Q 268.577796 134.240198 273.414033 134.240198 
Q 274.731733 134.240198 275.860188 134.024974 
Q 276.988644 133.800392 277.885801 133.332514 
L 277.885801 124.854555 
L 272.734156 124.854555 
L 272.734156 117.302995 
L 285.876106 117.302995 
z
" style="fill:#ffa600;"/>
   </g>
   <g id="patch_18">
    <path clip-path="url(#pffea29ae10)" d="M 276.26553 83.346249 
L 264.237923 83.346249 
L 262.338827 97.1 
L 254.60177 97.1 
L 265.651055 21.6 
L 274.826821 21.6 
L 285.876106 97.1 
L 278.145443 97.1 
z
M 266.156202 69.333605 
L 274.328069 69.333605 
L 270.248529 39.301886 
z
" style="fill:#008000;"/>
   </g>
   <g id="patch_19">
    <path clip-path="url(#pffea29ae10)" d="M 309.185884 154.74925 
L 297.158277 154.74925 
L 295.259181 157.5 
L 287.522124 157.5 
L 298.571409 142.4 
L 307.747175 142.4 
L 318.79646 157.5 
L 311.065797 157.5 
z
M 299.076556 151.946721 
L 307.248423 151.946721 
L 303.168883 145.940377 
z
" style="fill:#008000;"/>
   </g>
   <g id="patch_20">
    <path clip-path="url(#pffea29ae10)" d="M 318.79646 140.235282 
Q 316.180416 141.308283 313.351621 141.851023 
Q 310.522826 142.4 307.441883 142.4 
Q 298.254209 142.4 292.888166 138.332576 
Q 287.522124 134.265152 287.522124 127.309358 
Q 287.522124 120.32861 292.888166 116.267424 
Q 298.254209 112.2 307.441883 112.2 
Q 310.522826 112.2 313.351621 112.748977 
Q 316.180416 113.291717 318.79646 114.364718 
L 318.79646 120.384755 
Q 316.156777 118.962404 313.59589 118.301136 
Q 311.035004 117.639868 308.206209 117.639868 
Q 303.131713 117.639868 300.224122 120.216319 
Q 297.32441 122.786532 297.32441 127.309358 
Q 297.32441 131.813468 300.224122 134.389919 
Q 303.131713 136.960132 308.206209 136.960132 
Q 311.035004 136.960132 313.59589 136.298864 
Q 316.156777 135.631357 318.79646 134.209006 
z
" style="fill:#0000ff;"/>
   </g>
   <g id="patch_21">
    <path clip-path="url(#pffea29ae10)" d="M 318.79646 104.002768 
Q 315.642392 108.101384 312.250017 110.16005 
Q 308.857642 112.2 305.240977 112.2 
Q 297.068436 112.2 292.29528 99.997728 
Q 287.522124 87.795455 287.522124 66.928073 
Q 287.522124 45.817393 292.379389 33.708697 
Q 297.243662 21.6 305.703574 21.6 
Q 308.962777 21.6 311.948628 23.246932 
Q 314.941488 24.87515 317.590905 28.094154 
L 317.590905 46.154266 
Q 314.85738 42.018219 312.15189 39.978269 
Q 309.446401 37.919603 306.726893 37.919603 
Q 301.694403 37.919603 298.967886 45.44309 
Q 296.24137 52.947862 296.24137 66.928073 
Q 296.24137 80.777277 298.86976 88.338195 
Q 301.49815 95.880397 306.334387 95.880397 
Q 307.652087 95.880397 308.780542 95.449948 
Q 309.908998 95.000785 310.806155 94.065028 
L 310.806155 77.10911 
L 305.65451 77.10911 
L 305.65451 62.00599 
L 318.79646 62.00599 
z
" style="fill:#ffa600;"/>
   </g>
   <g id="patch_22">
    <path clip-path="url(#pffea29ae10)" d="M 351.716814 155.335282 
Q 349.10077 156.408283 346.271975 156.951023 
Q 343.44318 157.5 340.362237 157.5 
Q 331.174563 157.5 325.80852 153.432576 
Q 320.442478 149.365152 320.442478 142.409358 
Q 320.442478 135.42861 325.80852 131.367424 
Q 331.174563 127.3 340.362237 127.3 
Q 343.44318 127.3 346.271975 127.848977 
Q 349.10077 128.391717 351.716814 129.464718 
L 351.716814 135.484755 
Q 349.077131 134.062404 346.516244 133.401136 
Q 343.955358 132.739868 341.126563 132.739868 
Q 336.052067 132.739868 333.144476 135.316319 
Q 330.244764 137.886532 330.244764 142.409358 
Q 330.244764 146.913468 333.144476 149.489919 
Q 336.052067 152.060132 341.126563 152.060132 
Q 343.955358 152.060132 346.516244 151.398864 
Q 349.077131 150.731357 351.716814 149.309006 
z
" style="fill:#0000ff;"/>
   </g>
   <g id="patch_23">
    <path clip-path="url(#pffea29ae10)" d="M 320.442478 97.1 
L 351.716814 97.1 
L 351.716814 102.989841 
L 340.465326 102.989841 
L 340.465326 127.3 
L 331.715785 127.3 
L 331.715785 102.989841 
L 320.442478 102.989841 
z
" style="fill:#ff0000;"/>
   </g>
   <g id="patch_24">
    <path clip-path="url(#pffea29ae10)" d="M 351.716814 90.268973 
Q 348.562746 93.684487 345.170371 95.400041 
Q 341.777996 97.1 338.161331 97.1 
Q 329.98879 97.1 325.215634 86.93144 
Q 320.442478 76.76288 320.442478 59.373394 
Q 320.442478 41.781161 325.299743 31.69058 
Q 330.164016 21.6 338.623928 21.6 
Q 341.883131 21.6 344.868982 22.972444 
Q 347.861842 24.329291 350.511259 27.011795 
L 350.511259 42.061888 
Q 347.777734 38.615183 345.072244 36.915224 
Q 342.366755 35.199669 339.647247 35.199669 
Q 334.614757 35.199669 331.88824 41.469242 
Q 329.161724 47.723218 329.161724 59.373394 
Q 329.161724 70.914398 331.790114 77.215162 
Q 334.418504 83.500331 339.254741 83.500331 
Q 340.572441 83.500331 341.700896 83.141624 
Q 342.829351 82.767321 343.726509 81.987523 
L 343.726509 67.857591 
L 338.574864 67.857591 
L 338.574864 55.271659 
L 351.716814 55.271659 
z
" style="fill:#ffa600;"/>
   </g>
   <g id="patch_25">
    <path clip-path="url(#pffea29ae10)" d="M 375.026592 154.74925 
L 362.998985 154.74925 
L 361.099889 157.5 
L 353.362832 157.5 
L 364.412117 142.4 
L 373.587883 142.4 
L 384.637168 157.5 
L 376.906505 157.5 
z
M 364.917264 151.946721 
L 373.089131 151.946721 
L 369.009591 145.940377 
z
" style="fill:#008000;"/>
   </g>
   <g id="patch_26">
    <path clip-path="url(#pffea29ae10)" d="M 384.637168 138.070564 
Q 382.021124 140.216567 379.192329 141.302045 
Q 376.363534 142.4 373.282591 142.4 
Q 364.094917 142.4 358.728874 134.265152 
Q 353.362832 126.130304 353.362832 112.218715 
Q 353.362832 98.25722 358.728874 90.134848 
Q 364.094917 82 373.282591 82 
Q 376.363534 82 379.192329 83.097955 
Q 382.021124 84.183433 384.637168 86.329436 
L 384.637168 98.36951 
Q 381.997485 95.524809 379.436598 94.202272 
Q 376.875712 92.879736 374.046917 92.879736 
Q 368.972421 92.879736 366.06483 98.032638 
Q 363.165118 103.173063 363.165118 112.218715 
Q 363.165118 121.226937 366.06483 126.379839 
Q 368.972421 131.520264 374.046917 131.520264 
Q 376.875712 131.520264 379.436598 130.197728 
Q 381.997485 128.862714 384.637168 126.018013 
z
" style="fill:#0000ff;"/>
   </g>
   <g id="patch_27">
    <path clip-path="url(#pffea29ae10)" d="M 384.637168 76.535179 
Q 381.4831 79.267589 378.090725 80.640033 
Q 374.698349 82 371.081685 82 
Q 362.909144 82 358.135988 73.865152 
Q 353.362832 65.730304 353.362832 51.818715 
Q 353.362832 37.744929 358.220097 29.672464 
Q 363.08437 21.6 371.544282 21.6 
Q 374.803485 21.6 377.789336 22.697955 
Q 380.782196 23.783433 383.431613 25.929436 
L 383.431613 37.96951 
Q 380.698088 35.212146 377.992598 33.852179 
Q 375.287109 32.479736 372.567601 32.479736 
Q 367.535111 32.479736 364.808594 37.495394 
Q 362.082078 42.498575 362.082078 51.818715 
Q 362.082078 61.051518 364.710468 66.09213 
Q 367.338858 71.120264 372.175095 71.120264 
Q 373.492795 71.120264 374.62125 70.833299 
Q 375.749705 70.533857 376.646863 69.910019 
L 376.646863 58.606073 
L 371.495218 58.606073 
L 371.495218 48.537327 
L 384.637168 48.537327 
z
" style="fill:#ffa600;"/>
   </g>
   <g id="patch_28">
    <path clip-path="url(#pffea29ae10)" d="M 407.946946 154.74925 
L 395.919339 154.74925 
L 394.020243 157.5 
L 386.283186 157.5 
L 397.332471 142.4 
L 406.508237 142.4 
L 417.557522 157.5 
L 409.826859 157.5 
z
M 397.837618 151.946721 
L 406.009485 151.946721 
L 401.929945 145.940377 
z
" style="fill:#008000;"/>
   </g>
   <g id="patch_29">
    <path clip-path="url(#pffea29ae10)" d="M 417.557522 133.741128 
Q 414.941478 138.033134 412.112683 140.20409 
Q 409.283888 142.4 406.202945 142.4 
Q 397.015271 142.4 391.649228 126.130304 
Q 386.283186 109.860607 386.283186 82.03743 
Q 386.283186 54.114439 391.649228 37.869696 
Q 397.015271 21.6 406.202945 21.6 
Q 409.283888 21.6 412.112683 23.79591 
Q 414.941478 25.966866 417.557522 30.258872 
L 417.557522 54.339021 
Q 414.917839 48.649618 412.356952 46.004545 
Q 409.796066 43.359471 406.967271 43.359471 
Q 401.892775 43.359471 398.985184 53.665276 
Q 396.085472 63.946127 396.085472 82.03743 
Q 396.085472 100.053873 398.985184 110.359678 
Q 401.892775 120.640529 406.967271 120.640529 
Q 409.796066 120.640529 412.356952 117.995455 
Q 414.917839 115.325429 417.557522 109.636026 
z
" style="fill:#0000ff;"/>
   </g>
   <g id="patch_30">
    <path clip-path="url(#pffea29ae10)" d="M 450.477876 156.133795 
Q 447.323808 156.816897 443.931433 157.160008 
Q 440.539057 157.5 436.922393 157.5 
Q 428.749852 157.5 423.976696 155.466288 
Q 419.20354 153.432576 419.20354 149.954679 
Q 419.20354 146.436232 424.060805 144.418116 
Q 428.925078 142.4 437.384989 142.4 
Q 440.644193 142.4 443.630044 142.674489 
Q 446.622904 142.945858 449.272321 143.482359 
L 449.272321 146.492378 
Q 446.538796 145.803037 443.833306 145.463045 
Q 441.127817 145.119934 438.408309 145.119934 
Q 433.375819 145.119934 430.649302 146.373848 
Q 427.922786 147.624644 427.922786 149.954679 
Q 427.922786 152.26288 430.551176 153.523032 
Q 433.179565 154.780066 438.015803 154.780066 
Q 439.333503 154.780066 440.461958 154.708325 
Q 441.590413 154.633464 442.487571 154.477505 
L 442.487571 151.651518 
L 437.335926 151.651518 
L 437.335926 149.134332 
L 450.477876 149.134332 
z
" style="fill:#ffa600;"/>
   </g>
   <g id="patch_31">
    <path clip-path="url(#pffea29ae10)" d="M 450.477876 133.741128 
Q 447.861832 138.033134 445.033037 140.20409 
Q 442.204242 142.4 439.123298 142.4 
Q 429.935625 142.4 424.569582 126.130304 
Q 419.20354 109.860607 419.20354 82.03743 
Q 419.20354 54.114439 424.569582 37.869696 
Q 429.935625 21.6 439.123298 21.6 
Q 442.204242 21.6 445.033037 23.79591 
Q 447.861832 25.966866 450.477876 30.258872 
L 450.477876 54.339021 
Q 447.838193 48.649618 445.277306 46.004545 
Q 442.71642 43.359471 439.887625 43.359471 
Q 434.813129 43.359471 431.905538 53.665276 
Q 429.005826 63.946127 429.005826 82.03743 
Q 429.005826 100.053873 431.905538 110.359678 
Q 434.813129 120.640529 439.887625 120.640529 
Q 442.71642 120.640529 445.277306 117.995455 
Q 447.838193 115.325429 450.477876 109.636026 
z
" style="fill:#0000ff;"/>
   </g>
   <g id="patch_32">
    <path clip-path="url(#pffea29ae10)" d="M 483.39823 147.758769 
Q 480.782186 152.587275 477.953391 155.029601 
Q 475.124596 157.5 472.043652 157.5 
Q 462.855979 157.5 457.489936 139.196592 
Q 452.123894 120.893183 452.123894 89.592109 
Q 452.123894 58.178744 457.489936 39.903408 
Q 462.855979 21.6 472.043652 21.6 
Q 475.124596 21.6 477.953391 24.070399 
Q 480.782186 26.512725 483.39823 31.341231 
L 483.39823 58.431398 
Q 480.758547 52.03082 478.19766 49.055113 
Q 475.636773 46.079405 472.807979 46.079405 
Q 467.733483 46.079405 464.825892 57.673435 
Q 461.92618 69.239393 461.92618 89.592109 
Q 461.92618 109.860607 464.825892 121.454637 
Q 467.733483 133.020595 472.807979 133.020595 
Q 475.636773 133.020595 478.19766 130.044887 
Q 480.758547 127.041107 483.39823 120.640529 
z
" style="fill:#0000ff;"/>
   </g>
   <g id="patch_33">
    <path clip-path="url(#pffea29ae10)" d="M 516.318584 156.133795 
Q 513.164516 156.816897 509.772141 157.160008 
Q 506.379765 157.5 502.763101 157.5 
Q 494.59056 157.5 489.817404 155.466288 
Q 485.044248 153.432576 485.044248 149.954679 
Q 485.044248 146.436232 489.901512 144.418116 
Q 494.765786 142.4 503.225697 142.4 
Q 506.484901 142.4 509.470752 142.674489 
Q 512.463612 142.945858 515.113029 143.482359 
L 515.113029 146.492378 
Q 512.379504 145.803037 509.674014 145.463045 
Q 506.968525 145.119934 504.249017 145.119934 
Q 499.216527 145.119934 496.49001 146.373848 
Q 493.763493 147.624644 493.763493 149.954679 
Q 493.763493 152.26288 496.391883 153.523032 
Q 499.020273 154.780066 503.856511 154.780066 
Q 505.174211 154.780066 506.302666 154.708325 
Q 507.431121 154.633464 508.328279 154.477505 
L 508.328279 151.651518 
L 503.176634 151.651518 
L 503.176634 149.134332 
L 516.318584 149.134332 
z
" style="fill:#ffa600;"/>
   </g>
   <g id="patch_34">
    <path clip-path="url(#pffea29ae10)" d="M 485.044248 112.2 
L 516.318584 112.2 
L 516.318584 118.089841 
L 505.067096 118.089841 
L 505.067096 142.4 
L 496.317555 142.4 
L 496.317555 118.089841 
L 485.044248 118.089841 
z
" style="fill:#ff0000;"/>
   </g>
   <g id="patch_35">
    <path clip-path="url(#pffea29ae10)" d="M 516.318584 105.705846 
Q 513.70254 108.92485 510.873745 110.553068 
Q 508.04495 112.2 504.964006 112.2 
Q 495.776333 112.2 490.41029 99.997728 
Q 485.044248 87.795455 485.044248 66.928073 
Q 485.044248 45.985829 490.41029 33.802272 
Q 495.776333 21.6 504.964006 21.6 
Q 508.04495 21.6 510.873745 23.246932 
Q 513.70254 24.87515 516.318584 28.094154 
L 516.318584 46.154266 
Q 513.678901 41.887213 511.118014 39.903408 
Q 508.557127 37.919603 505.728333 37.919603 
Q 500.653837 37.919603 497.746246 45.648957 
Q 494.846534 53.359595 494.846534 66.928073 
Q 494.846534 80.440405 497.746246 88.169758 
Q 500.653837 95.880397 505.728333 95.880397 
Q 508.557127 95.880397 511.118014 93.896592 
Q 513.678901 91.894071 516.318584 87.627019 
z
" style="fill:#0000ff;"/>
   </g>
   <g id="patch_36">
    <path clip-path="url(#pffea29ae10)" d="M 517.964602 142.4 
L 549.238938 142.4 
L 549.238938 145.344921 
L 537.98745 145.344921 
L 537.98745 157.5 
L 529.237909 157.5 
L 529.237909 145.344921 
L 517.964602 145.344921 
z
" style="fill:#ff0000;"/>
   </g>
   <g id="patch_37">
    <path clip-path="url(#pffea29ae10)" d="M 549.238938 133.741128 
Q 546.622894 138.033134 543.794099 140.20409 
Q 540.965304 142.4 537.88436 142.4 
Q 528.696687 142.4 523.330644 126.130304 
Q 517.964602 109.860607 517.964602 82.03743 
Q 517.964602 54.114439 523.330644 37.869696 
Q 528.696687 21.6 537.88436 21.6 
Q 540.965304 21.6 543.794099 23.79591 
Q 546.622894 25.966866 549.238938 30.258872 
L 549.238938 54.339021 
Q 546.599255 48.649618 544.038368 46.004545 
Q 541.477481 43.359471 538.648687 43.359471 
Q 533.574191 43.359471 530.6666 53.665276 
Q 527.766888 63.946127 527.766888 82.03743 
Q 527.766888 100.053873 530.6666 110.359678 
Q 533.574191 120.640529 538.648687 120.640529 
Q 541.477481 120.640529 544.038368 117.995455 
Q 546.599255 115.325429 549.238938 109.636026 
z
" style="fill:#0000ff;"/>
   </g>
   <g id="patch_38">
    <path clip-path="url(#pffea29ae10)" d="M 582.159292 156.133795 
Q 579.005224 156.816897 575.612849 157.160008 
Q 572.220473 157.5 568.603809 157.5 
Q 560.431268 157.5 555.658112 155.466288 
Q 550.884956 153.432576 550.884956 149.954679 
Q 550.884956 146.436232 555.74222 144.418116 
Q 560.606494 142.4 569.066405 142.4 
Q 572.325609 142.4 575.31146 142.674489 
Q 578.30432 142.945858 580.953737 143.482359 
L 580.953737 146.492378 
Q 578.220212 145.803037 575.514722 145.463045 
Q 572.809233 145.119934 570.089725 145.119934 
Q 565.057235 145.119934 562.330718 146.373848 
Q 559.604201 147.624644 559.604201 149.954679 
Q 559.604201 152.26288 562.232591 153.523032 
Q 564.860981 154.780066 569.697219 154.780066 
Q 571.014919 154.780066 572.143374 154.708325 
Q 573.271829 154.633464 574.168986 154.477505 
L 574.168986 151.651518 
L 569.017342 151.651518 
L 569.017342 149.134332 
L 582.159292 149.134332 
z
" style="fill:#ffa600;"/>
   </g>
   <g id="patch_39">
    <path clip-path="url(#pffea29ae10)" d="M 550.884956 127.3 
L 582.159292 127.3 
L 582.159292 130.244921 
L 570.907804 130.244921 
L 570.907804 142.4 
L 562.158263 142.4 
L 562.158263 130.244921 
L 550.884956 130.244921 
z
" style="fill:#ff0000;"/>
   </g>
   <g id="patch_40">
    <path clip-path="url(#pffea29ae10)" d="M 572.548716 119.04775 
L 560.521109 119.04775 
L 558.622013 127.3 
L 550.884956 127.3 
L 561.934241 82 
L 571.110007 82 
L 582.159292 127.3 
L 574.428629 127.3 
z
M 562.439387 110.640163 
L 570.611255 110.640163 
L 566.531715 92.621132 
z
" style="fill:#008000;"/>
   </g>
   <g id="patch_41">
    <path clip-path="url(#pffea29ae10)" d="M 582.159292 77.670564 
Q 579.543248 79.816567 576.714453 80.902045 
Q 573.885658 82 570.804714 82 
Q 561.617041 82 556.250998 73.865152 
Q 550.884956 65.730304 550.884956 51.818715 
Q 550.884956 37.85722 556.250998 29.734848 
Q 561.617041 21.6 570.804714 21.6 
Q 573.885658 21.6 576.714453 22.697955 
Q 579.543248 23.783433 582.159292 25.929436 
L 582.159292 37.96951 
Q 579.519609 35.124809 576.958722 33.802272 
Q 574.397835 32.479736 571.569041 32.479736 
Q 566.494545 32.479736 563.586954 37.632638 
Q 560.687242 42.773063 560.687242 51.818715 
Q 560.687242 60.826937 563.586954 65.979839 
Q 566.494545 71.120264 571.569041 71.120264 
Q 574.397835 71.120264 576.958722 69.797728 
Q 579.519609 68.462714 582.159292 65.618013 
z
" style="fill:#0000ff;"/>
   </g>
   <g id="patch_42">
    <path clip-path="url(#pffea29ae10)" d="M 605.46907 151.9985 
L 593.441463 151.9985 
L 591.542367 157.5 
L 583.80531 157.5 
L 594.854595 127.3 
L 604.030361 127.3 
L 615.079646 157.5 
L 607.348983 157.5 
z
M 595.359741 146.393442 
L 603.531609 146.393442 
L 599.452069 134.380754 
z
" style="fill:#008000;"/>
   </g>
   <g id="patch_43">
    <path clip-path="url(#pffea29ae10)" d="M 615.079646 125.135282 
Q 612.463602 126.208283 609.634807 126.751023 
Q 606.806012 127.3 603.725068 127.3 
Q 594.537395 127.3 589.171352 123.232576 
Q 583.80531 119.165152 583.80531 112.209358 
Q 583.80531 105.22861 589.171352 101.167424 
Q 594.537395 97.1 603.725068 97.1 
Q 606.806012 97.1 609.634807 97.648977 
Q 612.463602 98.191717 615.079646 99.264718 
L 615.079646 105.284755 
Q 612.439963 103.862404 609.879076 103.201136 
Q 607.318189 102.539868 604.489395 102.539868 
Q 599.414899 102.539868 596.507308 105.116319 
Q 593.607596 107.686532 593.607596 112.209358 
Q 593.607596 116.713468 596.507308 119.289919 
Q 599.414899 121.860132 604.489395 121.860132 
Q 607.318189 121.860132 609.879076 121.198864 
Q 612.439963 120.531357 615.079646 119.109006 
z
" style="fill:#0000ff;"/>
   </g>
   <g id="patch_44">
    <path clip-path="url(#pffea29ae10)" d="M 615.079646 94.367589 
Q 611.925578 95.733795 608.533203 96.420017 
Q 605.140827 97.1 601.524163 97.1 
Q 593.351622 97.1 588.578466 93.032576 
Q 583.80531 88.965152 583.80531 82.009358 
Q 583.80531 74.972464 588.662574 70.936232 
Q 593.526848 66.9 601.986759 66.9 
Q 605.245963 66.9 608.231814 67.448977 
Q 611.224674 67.991717 613.874091 69.064718 
L 613.874091 75.084755 
Q 611.140566 73.706073 608.435076 73.02609 
Q 605.729587 72.339868 603.010079 72.339868 
Q 597.977589 72.339868 595.251072 74.847697 
Q 592.524555 77.349287 592.524555 82.009358 
Q 592.524555 86.625759 595.152945 89.146065 
Q 597.781335 91.660132 602.617573 91.660132 
Q 603.935272 91.660132 605.063728 91.516649 
Q 606.192183 91.366928 607.08934 91.055009 
L 607.08934 85.403037 
L 601.937696 85.403037 
L 601.937696 80.368663 
L 615.079646 80.368663 
z
" style="fill:#ffa600;"/>
   </g>
   <g id="patch_45">
    <path clip-path="url(#pffea29ae10)" d="M 583.80531 21.6 
L 615.079646 21.6 
L 615.079646 30.434762 
L 603.828158 30.434762 
L 603.828158 66.9 
L 595.078617 66.9 
L 595.078617 30.434762 
L 583.80531 30.434762 
z
" style="fill:#ff0000;"/>
   </g>
   <g id="patch_46">
    <path clip-path="url(#pffea29ae10)" d="M 616.725664 142.4 
L 648 142.4 
L 648 145.344921 
L 636.748512 145.344921 
L 636.748512 157.5 
L 627.998971 157.5 
L 627.998971 145.344921 
L 616.725664 145.344921 
z
" style="fill:#ff0000;"/>
   </g>
   <g id="patch_47">
    <path clip-path="url(#pffea29ae10)" d="M 648 140.235282 
Q 645.383956 141.308283 642.555161 141.851023 
Q 639.726366 142.4 636.645422 142.4 
Q 627.457749 142.4 622.091706 138.332576 
Q 616.725664 134.265152 616.725664 127.309358 
Q 616.725664 120.32861 622.091706 116.267424 
Q 627.457749 112.2 636.645422 112.2 
Q 639.726366 112.2 642.555161 112.748977 
Q 645.383956 113.291717 648 114.364718 
L 648 120.384755 
Q 645.360317 118.962404 642.79943 118.301136 
Q 640.238543 117.639868 637.409749 117.639868 
Q 632.335253 117.639868 629.427662 120.216319 
Q 626.52795 122.786532 626.52795 127.309358 
Q 626.52795 131.813468 629.427662 134.389919 
Q 632.335253 136.960132 637.409749 136.960132 
Q 640.238543 136.960132 642.79943 136.298864 
Q 645.360317 135.631357 648 134.209006 
z
" style="fill:#0000ff;"/>
   </g>
   <g id="patch_48">
    <path clip-path="url(#pffea29ae10)" d="M 648 104.002768 
Q 644.845932 108.101384 641.453557 110.16005 
Q 638.061181 112.2 634.444517 112.2 
Q 626.271976 112.2 621.49882 99.997728 
Q 616.725664 87.795455 616.725664 66.928073 
Q 616.725664 45.817393 621.582928 33.708697 
Q 626.447202 21.6 634.907113 21.6 
Q 638.166317 21.6 641.152168 23.246932 
Q 644.145028 24.87515 646.794445 28.094154 
L 646.794445 46.154266 
Q 644.06092 42.018219 641.35543 39.978269 
Q 638.649941 37.919603 635.930433 37.919603 
Q 630.897943 37.919603 628.171426 45.44309 
Q 625.444909 52.947862 625.444909 66.928073 
Q 625.444909 80.777277 628.073299 88.338195 
Q 630.701689 95.880397 635.537927 95.880397 
Q 636.855626 95.880397 637.984082 95.449948 
Q 639.112537 95.000785 640.009694 94.065028 
L 640.009694 77.10911 
L 634.85805 77.10911 
L 634.85805 62.00599 
L 648 62.00599 
z
" style="fill:#ffa600;"/>
   </g>
  </g>
 </g>
 <defs>
  <clipPath id="pffea29ae10">
   <rect height="135.9" width="558" x="90" y="21.6"/>
  </clipPath>
 </defs>
</svg>
