<?xml version="1.0" encoding="utf-8" standalone="no"?>
<!DOCTYPE svg PUBLIC "-//W3C//DTD SVG 1.1//EN"
  "http://www.w3.org/Graphics/SVG/1.1/DTD/svg11.dtd">
<!-- Created with matplotlib (https://matplotlib.org/) -->
<svg height="180pt" version="1.1" viewBox="0 0 720 180" width="720pt" xmlns="http://www.w3.org/2000/svg" xmlns:xlink="http://www.w3.org/1999/xlink">
 <metadata>
  <rdf:RDF xmlns:cc="http://creativecommons.org/ns#" xmlns:dc="http://purl.org/dc/elements/1.1/" xmlns:rdf="http://www.w3.org/1999/02/22-rdf-syntax-ns#">
   <cc:Work>
    <dc:type rdf:resource="http://purl.org/dc/dcmitype/StillImage"/>
    <dc:date>2021-08-04T23:32:54.101858</dc:date>
    <dc:format>image/svg+xml</dc:format>
    <dc:creator>
     <cc:Agent>
      <dc:title>Matplotlib v3.3.2, https://matplotlib.org/</dc:title>
     </cc:Agent>
    </dc:creator>
   </cc:Work>
  </rdf:RDF>
 </metadata>
 <defs>
  <style type="text/css">*{stroke-linecap:butt;stroke-linejoin:round;}</style>
 </defs>
 <g id="figure_1">
  <g id="patch_1">
   <path d="M 0 180 
L 720 180 
L 720 0 
L 0 0 
z
" style="fill:none;"/>
  </g>
  <g id="axes_1">
   <g id="line2d_1">
    <path clip-path="url(#p1fd1630051)" d="M 90 157.5 
L 648 157.5 
" style="fill:none;stroke:#000000;stroke-linecap:square;stroke-width:0.5;"/>
   </g>
   <g id="patch_2">
    <path clip-path="url(#p1fd1630051)" d="M 111.66376 154.74925 
L 99.636153 154.74925 
L 97.737057 157.5 
L 90 157.5 
L 101.049285 142.4 
L 110.225051 142.4 
L 121.274336 157.5 
L 113.543673 157.5 
z
M 101.554432 151.946721 
L 109.726299 151.946721 
L 105.64676 145.940377 
z
" style="fill:#008000;"/>
   </g>
   <g id="patch_3">
    <path clip-path="url(#p1fd1630051)" d="M 90 127.3 
L 121.274336 127.3 
L 121.274336 130.244921 
L 110.022848 130.244921 
L 110.022848 142.4 
L 101.273307 142.4 
L 101.273307 130.244921 
L 90 130.244921 
z
" style="fill:#ff0000;"/>
   </g>
   <g id="patch_4">
    <path clip-path="url(#p1fd1630051)" d="M 121.274336 123.201384 
Q 118.120268 125.250692 114.727893 126.280025 
Q 111.335518 127.3 107.718853 127.3 
Q 99.546312 127.3 94.773156 121.198864 
Q 90 115.097728 90 104.664036 
Q 90 94.108697 94.857265 88.054348 
Q 99.721538 82 108.18145 82 
Q 111.440653 82 114.426504 82.823466 
Q 117.419364 83.637575 120.068781 85.247077 
L 120.068781 94.277133 
Q 117.335256 92.20911 114.629766 91.189134 
Q 111.924277 90.159802 109.204769 90.159802 
Q 104.172279 90.159802 101.445762 93.921545 
Q 98.719246 97.673931 98.719246 104.664036 
Q 98.719246 111.588639 101.347636 115.369097 
Q 103.976026 119.140198 108.812263 119.140198 
Q 110.129963 119.140198 111.258418 118.924974 
Q 112.386874 118.700392 113.284031 118.232514 
L 113.284031 109.754555 
L 108.132386 109.754555 
L 108.132386 102.202995 
L 121.274336 102.202995 
z
" style="fill:#ffa600;"/>
   </g>
   <g id="patch_5">
    <path clip-path="url(#p1fd1630051)" d="M 121.274336 77.670564 
Q 118.658292 79.816567 115.829497 80.902045 
Q 113.000702 82 109.919759 82 
Q 100.732085 82 95.366043 73.865152 
Q 90 65.730304 90 51.818715 
Q 90 37.85722 95.366043 29.734848 
Q 100.732085 21.6 109.919759 21.6 
Q 113.000702 21.6 115.829497 22.697955 
Q 118.658292 23.783433 121.274336 25.929436 
L 121.274336 37.96951 
Q 118.634653 35.124809 116.073766 33.802272 
Q 113.51288 32.479736 110.684085 32.479736 
Q 105.609589 32.479736 102.701998 37.632638 
Q 99.802286 42.773063 99.802286 51.818715 
Q 99.802286 60.826937 102.701998 65.979839 
Q 105.609589 71.120264 110.684085 71.120264 
Q 113.51288 71.120264 116.073766 69.797728 
Q 118.634653 68.462714 121.274336 65.618013 
z
" style="fill:#0000ff;"/>
   </g>
   <g id="patch_6">
    <path clip-path="url(#p1fd1630051)" d="M 154.19469 156.133795 
Q 151.040622 156.816897 147.648247 157.160008 
Q 144.255872 157.5 140.639207 157.5 
Q 132.466666 157.5 127.69351 155.466288 
Q 122.920354 153.432576 122.920354 149.954679 
Q 122.920354 146.436232 127.777619 144.418116 
Q 132.641892 142.4 141.101804 142.4 
Q 144.361007 142.4 147.346858 142.674489 
Q 150.339718 142.945858 152.989135 143.482359 
L 152.989135 146.492378 
Q 150.25561 145.803037 147.55012 145.463045 
Q 144.844631 145.119934 142.125123 145.119934 
Q 137.092633 145.119934 134.366116 146.373848 
Q 131.6396 147.624644 131.6396 149.954679 
Q 131.6396 152.26288 134.26799 153.523032 
Q 136.89638 154.780066 141.732617 154.780066 
Q 143.050317 154.780066 144.178772 154.708325 
Q 145.307228 154.633464 146.204385 154.477505 
L 146.204385 151.651518 
L 141.05274 151.651518 
L 141.05274 149.134332 
L 154.19469 149.134332 
z
" style="fill:#ffa600;"/>
   </g>
   <g id="patch_7">
    <path clip-path="url(#p1fd1630051)" d="M 154.19469 138.070564 
Q 151.578646 140.216567 148.749851 141.302045 
Q 145.921056 142.4 142.840113 142.4 
Q 133.652439 142.4 128.286397 134.265152 
Q 122.920354 126.130304 122.920354 112.218715 
Q 122.920354 98.25722 128.286397 90.134848 
Q 133.652439 82 142.840113 82 
Q 145.921056 82 148.749851 83.097955 
Q 151.578646 84.183433 154.19469 86.329436 
L 154.19469 98.36951 
Q 151.555007 95.524809 148.99412 94.202272 
Q 146.433234 92.879736 143.604439 92.879736 
Q 138.529943 92.879736 135.622352 98.032638 
Q 132.72264 103.173063 132.72264 112.218715 
Q 132.72264 121.226937 135.622352 126.379839 
Q 138.529943 131.520264 143.604439 131.520264 
Q 146.433234 131.520264 148.99412 130.197728 
Q 151.555007 128.862714 154.19469 126.018013 
z
" style="fill:#0000ff;"/>
   </g>
   <g id="patch_8">
    <path clip-path="url(#p1fd1630051)" d="M 122.920354 21.6 
L 154.19469 21.6 
L 154.19469 33.379683 
L 142.943202 33.379683 
L 142.943202 82 
L 134.193661 82 
L 134.193661 33.379683 
L 122.920354 33.379683 
z
" style="fill:#ff0000;"/>
   </g>
   <g id="patch_9">
    <path clip-path="url(#p1fd1630051)" d="M 177.504468 154.74925 
L 165.476861 154.74925 
L 163.577765 157.5 
L 155.840708 157.5 
L 166.889993 142.4 
L 176.065759 142.4 
L 187.115044 157.5 
L 179.384381 157.5 
z
M 167.39514 151.946721 
L 175.567007 151.946721 
L 171.487467 145.940377 
z
" style="fill:#008000;"/>
   </g>
   <g id="patch_10">
    <path clip-path="url(#p1fd1630051)" d="M 187.115044 141.317641 
Q 184.499 141.854142 181.670205 142.125511 
Q 178.84141 142.4 175.760467 142.4 
Q 166.572793 142.4 161.206751 140.366288 
Q 155.840708 138.332576 155.840708 134.854679 
Q 155.840708 131.364305 161.206751 129.333712 
Q 166.572793 127.3 175.760467 127.3 
Q 178.84141 127.3 181.670205 127.574489 
Q 184.499 127.845858 187.115044 128.382359 
L 187.115044 131.392378 
Q 184.475361 130.681202 181.914474 130.350568 
Q 179.353588 130.019934 176.524793 130.019934 
Q 171.450297 130.019934 168.542706 131.308159 
Q 165.642994 132.593266 165.642994 134.854679 
Q 165.642994 137.106734 168.542706 138.39496 
Q 171.450297 139.680066 176.524793 139.680066 
Q 179.353588 139.680066 181.914474 139.349432 
Q 184.475361 139.015679 187.115044 138.304503 
z
" style="fill:#0000ff;"/>
   </g>
   <g id="patch_11">
    <path clip-path="url(#p1fd1630051)" d="M 187.115044 123.201384 
Q 183.960976 125.250692 180.568601 126.280025 
Q 177.176226 127.3 173.559561 127.3 
Q 165.38702 127.3 160.613864 121.198864 
Q 155.840708 115.097728 155.840708 104.664036 
Q 155.840708 94.108697 160.697973 88.054348 
Q 165.562246 82 174.022158 82 
Q 177.281361 82 180.267212 82.823466 
Q 183.260072 83.637575 185.909489 85.247077 
L 185.909489 94.277133 
Q 183.175964 92.20911 180.470474 91.189134 
Q 177.764985 90.159802 175.045477 90.159802 
Q 170.012987 90.159802 167.28647 93.921545 
Q 164.559954 97.673931 164.559954 104.664036 
Q 164.559954 111.588639 167.188344 115.369097 
Q 169.816734 119.140198 174.652971 119.140198 
Q 175.970671 119.140198 177.099126 118.924974 
Q 178.227582 118.700392 179.124739 118.232514 
L 179.124739 109.754555 
L 173.973094 109.754555 
L 173.973094 102.202995 
L 187.115044 102.202995 
z
" style="fill:#ffa600;"/>
   </g>
   <g id="patch_12">
    <path clip-path="url(#p1fd1630051)" d="M 155.840708 21.6 
L 187.115044 21.6 
L 187.115044 33.379683 
L 175.863556 33.379683 
L 175.863556 82 
L 167.114015 82 
L 167.114015 33.379683 
L 155.840708 33.379683 
z
" style="fill:#ff0000;"/>
   </g>
   <g id="patch_13">
    <path clip-path="url(#p1fd1630051)" d="M 220.035398 156.133795 
Q 216.88133 156.816897 213.488955 157.160008 
Q 210.09658 157.5 206.479915 157.5 
Q 198.307374 157.5 193.534218 155.466288 
Q 188.761062 153.432576 188.761062 149.954679 
Q 188.761062 146.436232 193.618327 144.418116 
Q 198.4826 142.4 206.942512 142.4 
Q 210.201715 142.4 213.187566 142.674489 
Q 216.180426 142.945858 218.829843 143.482359 
L 218.829843 146.492378 
Q 216.096318 145.803037 213.390828 145.463045 
Q 210.685339 145.119934 207.965831 145.119934 
Q 202.933341 145.119934 200.206824 146.373848 
Q 197.480308 147.624644 197.480308 149.954679 
Q 197.480308 152.26288 200.108698 153.523032 
Q 202.737088 154.780066 207.573325 154.780066 
Q 208.891025 154.780066 210.01948 154.708325 
Q 211.147936 154.633464 212.045093 154.477505 
L 212.045093 151.651518 
L 206.893448 151.651518 
L 206.893448 149.134332 
L 220.035398 149.134332 
z
" style="fill:#ffa600;"/>
   </g>
   <g id="patch_14">
    <path clip-path="url(#p1fd1630051)" d="M 220.035398 140.235282 
Q 217.419354 141.308283 214.590559 141.851023 
Q 211.761764 142.4 208.680821 142.4 
Q 199.493147 142.4 194.127105 138.332576 
Q 188.761062 134.265152 188.761062 127.309358 
Q 188.761062 120.32861 194.127105 116.267424 
Q 199.493147 112.2 208.680821 112.2 
Q 211.761764 112.2 214.590559 112.748977 
Q 217.419354 113.291717 220.035398 114.364718 
L 220.035398 120.384755 
Q 217.395715 118.962404 214.834828 118.301136 
Q 212.273942 117.639868 209.445147 117.639868 
Q 204.370651 117.639868 201.46306 120.216319 
Q 198.563348 122.786532 198.563348 127.309358 
Q 198.563348 131.813468 201.46306 134.389919 
Q 204.370651 136.960132 209.445147 136.960132 
Q 212.273942 136.960132 214.834828 136.298864 
Q 217.395715 135.631357 220.035398 134.209006 
z
" style="fill:#0000ff;"/>
   </g>
   <g id="patch_15">
    <path clip-path="url(#p1fd1630051)" d="M 188.761062 82 
L 220.035398 82 
L 220.035398 87.889841 
L 208.78391 87.889841 
L 208.78391 112.2 
L 200.034369 112.2 
L 200.034369 87.889841 
L 188.761062 87.889841 
z
" style="fill:#ff0000;"/>
   </g>
   <g id="patch_16">
    <path clip-path="url(#p1fd1630051)" d="M 210.424822 70.997 
L 198.397215 70.997 
L 196.498119 82 
L 188.761062 82 
L 199.810347 21.6 
L 208.986113 21.6 
L 220.035398 82 
L 212.304735 82 
z
M 200.315494 59.786884 
L 208.487361 59.786884 
L 204.407821 35.761509 
z
" style="fill:#008000;"/>
   </g>
   <g id="patch_17">
    <path clip-path="url(#p1fd1630051)" d="M 243.345176 154.74925 
L 231.317569 154.74925 
L 229.418473 157.5 
L 221.681416 157.5 
L 232.730701 142.4 
L 241.906467 142.4 
L 252.955752 157.5 
L 245.225089 157.5 
z
M 233.235848 151.946721 
L 241.407715 151.946721 
L 237.328175 145.940377 
z
" style="fill:#008000;"/>
   </g>
   <g id="patch_18">
    <path clip-path="url(#p1fd1630051)" d="M 252.955752 141.317641 
Q 250.339708 141.854142 247.510913 142.125511 
Q 244.682118 142.4 241.601175 142.4 
Q 232.413501 142.4 227.047459 140.366288 
Q 221.681416 138.332576 221.681416 134.854679 
Q 221.681416 131.364305 227.047459 129.333712 
Q 232.413501 127.3 241.601175 127.3 
Q 244.682118 127.3 247.510913 127.574489 
Q 250.339708 127.845858 252.955752 128.382359 
L 252.955752 131.392378 
Q 250.316069 130.681202 247.755182 130.350568 
Q 245.194296 130.019934 242.365501 130.019934 
Q 237.291005 130.019934 234.383414 131.308159 
Q 231.483702 132.593266 231.483702 134.854679 
Q 231.483702 137.106734 234.383414 138.39496 
Q 237.291005 139.680066 242.365501 139.680066 
Q 245.194296 139.680066 247.755182 139.349432 
Q 250.316069 139.015679 252.955752 138.304503 
z
" style="fill:#0000ff;"/>
   </g>
   <g id="patch_19">
    <path clip-path="url(#p1fd1630051)" d="M 221.681416 21.6 
L 252.955752 21.6 
L 252.955752 42.214445 
L 241.704264 42.214445 
L 241.704264 127.3 
L 232.954723 127.3 
L 232.954723 42.214445 
L 221.681416 42.214445 
z
" style="fill:#ff0000;"/>
   </g>
   <g id="patch_20">
    <path clip-path="url(#p1fd1630051)" d="M 285.876106 152.035179 
Q 282.722038 154.767589 279.329663 156.140033 
Q 275.937288 157.5 272.320623 157.5 
Q 264.148082 157.5 259.374926 149.365152 
Q 254.60177 141.230304 254.60177 127.318715 
Q 254.60177 113.244929 259.459035 105.172464 
Q 264.323308 97.1 272.78322 97.1 
Q 276.042423 97.1 279.028274 98.197955 
Q 282.021134 99.283433 284.670551 101.429436 
L 284.670551 113.46951 
Q 281.937026 110.712146 279.231536 109.352179 
Q 276.526047 107.979736 273.806539 107.979736 
Q 268.774049 107.979736 266.047532 112.995394 
Q 263.321016 117.998575 263.321016 127.318715 
Q 263.321016 136.551518 265.949406 141.59213 
Q 268.577796 146.620264 273.414033 146.620264 
Q 274.731733 146.620264 275.860188 146.333299 
Q 276.988644 146.033857 277.885801 145.410019 
L 277.885801 134.106073 
L 272.734156 134.106073 
L 272.734156 124.037327 
L 285.876106 124.037327 
z
" style="fill:#ffa600;"/>
   </g>
   <g id="patch_21">
    <path clip-path="url(#p1fd1630051)" d="M 276.26553 83.346249 
L 264.237923 83.346249 
L 262.338827 97.1 
L 254.60177 97.1 
L 265.651055 21.6 
L 274.826821 21.6 
L 285.876106 97.1 
L 278.145443 97.1 
z
M 266.156202 69.333605 
L 274.328069 69.333605 
L 270.248529 39.301886 
z
" style="fill:#008000;"/>
   </g>
   <g id="patch_22">
    <path clip-path="url(#p1fd1630051)" d="M 318.79646 156.417641 
Q 316.180416 156.954142 313.351621 157.225511 
Q 310.522826 157.5 307.441883 157.5 
Q 298.254209 157.5 292.888166 155.466288 
Q 287.522124 153.432576 287.522124 149.954679 
Q 287.522124 146.464305 292.888166 144.433712 
Q 298.254209 142.4 307.441883 142.4 
Q 310.522826 142.4 313.351621 142.674489 
Q 316.180416 142.945858 318.79646 143.482359 
L 318.79646 146.492378 
Q 316.156777 145.781202 313.59589 145.450568 
Q 311.035004 145.119934 308.206209 145.119934 
Q 303.131713 145.119934 300.224122 146.408159 
Q 297.32441 147.693266 297.32441 149.954679 
Q 297.32441 152.206734 300.224122 153.49496 
Q 303.131713 154.780066 308.206209 154.780066 
Q 311.035004 154.780066 313.59589 154.449432 
Q 316.156777 154.115679 318.79646 153.404503 
z
" style="fill:#0000ff;"/>
   </g>
   <g id="patch_23">
    <path clip-path="url(#p1fd1630051)" d="M 318.79646 139.667589 
Q 315.642392 141.033795 312.250017 141.720017 
Q 308.857642 142.4 305.240977 142.4 
Q 297.068436 142.4 292.29528 138.332576 
Q 287.522124 134.265152 287.522124 127.309358 
Q 287.522124 120.272464 292.379389 116.236232 
Q 297.243662 112.2 305.703574 112.2 
Q 308.962777 112.2 311.948628 112.748977 
Q 314.941488 113.291717 317.590905 114.364718 
L 317.590905 120.384755 
Q 314.85738 119.006073 312.15189 118.32609 
Q 309.446401 117.639868 306.726893 117.639868 
Q 301.694403 117.639868 298.967886 120.147697 
Q 296.24137 122.649287 296.24137 127.309358 
Q 296.24137 131.925759 298.86976 134.446065 
Q 301.49815 136.960132 306.334387 136.960132 
Q 307.652087 136.960132 308.780542 136.816649 
Q 309.908998 136.666928 310.806155 136.355009 
L 310.806155 130.703037 
L 305.65451 130.703037 
L 305.65451 125.668663 
L 318.79646 125.668663 
z
" style="fill:#ffa600;"/>
   </g>
   <g id="patch_24">
    <path clip-path="url(#p1fd1630051)" d="M 287.522124 82 
L 318.79646 82 
L 318.79646 87.889841 
L 307.544972 87.889841 
L 307.544972 112.2 
L 298.795431 112.2 
L 298.795431 87.889841 
L 287.522124 87.889841 
z
" style="fill:#ff0000;"/>
   </g>
   <g id="patch_25">
    <path clip-path="url(#p1fd1630051)" d="M 309.185884 70.997 
L 297.158277 70.997 
L 295.259181 82 
L 287.522124 82 
L 298.571409 21.6 
L 307.747175 21.6 
L 318.79646 82 
L 311.065797 82 
z
M 299.076556 59.786884 
L 307.248423 59.786884 
L 303.168883 35.761509 
z
" style="fill:#008000;"/>
   </g>
   <g id="patch_26">
    <path clip-path="url(#p1fd1630051)" d="M 342.106238 154.74925 
L 330.078631 154.74925 
L 328.179535 157.5 
L 320.442478 157.5 
L 331.491763 142.4 
L 340.667529 142.4 
L 351.716814 157.5 
L 343.986151 157.5 
z
M 331.99691 151.946721 
L 340.168777 151.946721 
L 336.089237 145.940377 
z
" style="fill:#008000;"/>
   </g>
   <g id="patch_27">
    <path clip-path="url(#p1fd1630051)" d="M 320.442478 21.6 
L 351.716814 21.6 
L 351.716814 45.159366 
L 340.465326 45.159366 
L 340.465326 142.4 
L 331.715785 142.4 
L 331.715785 45.159366 
L 320.442478 45.159366 
z
" style="fill:#ff0000;"/>
   </g>
   <g id="patch_28">
    <path clip-path="url(#p1fd1630051)" d="M 353.362832 142.4 
L 384.637168 142.4 
L 384.637168 145.344921 
L 373.38568 145.344921 
L 373.38568 157.5 
L 364.636139 157.5 
L 364.636139 145.344921 
L 353.362832 145.344921 
z
" style="fill:#ff0000;"/>
   </g>
   <g id="patch_29">
    <path clip-path="url(#p1fd1630051)" d="M 375.026592 120.393999 
L 362.998985 120.393999 
L 361.099889 142.4 
L 353.362832 142.4 
L 364.412117 21.6 
L 373.587883 21.6 
L 384.637168 142.4 
L 376.906505 142.4 
z
M 364.917264 97.973768 
L 373.089131 97.973768 
L 369.009591 49.923018 
z
" style="fill:#008000;"/>
   </g>
   <g id="patch_30">
    <path clip-path="url(#p1fd1630051)" d="M 417.557522 152.035179 
Q 414.403454 154.767589 411.011079 156.140033 
Q 407.618703 157.5 404.002039 157.5 
Q 395.829498 157.5 391.056342 149.365152 
Q 386.283186 141.230304 386.283186 127.318715 
Q 386.283186 113.244929 391.140451 105.172464 
Q 396.004724 97.1 404.464635 97.1 
Q 407.723839 97.1 410.70969 98.197955 
Q 413.70255 99.283433 416.351967 101.429436 
L 416.351967 113.46951 
Q 413.618442 110.712146 410.912952 109.352179 
Q 408.207463 107.979736 405.487955 107.979736 
Q 400.455465 107.979736 397.728948 112.995394 
Q 395.002432 117.998575 395.002432 127.318715 
Q 395.002432 136.551518 397.630822 141.59213 
Q 400.259212 146.620264 405.095449 146.620264 
Q 406.413149 146.620264 407.541604 146.333299 
Q 408.670059 146.033857 409.567217 145.410019 
L 409.567217 134.106073 
L 404.415572 134.106073 
L 404.415572 124.037327 
L 417.557522 124.037327 
z
" style="fill:#ffa600;"/>
   </g>
   <g id="patch_31">
    <path clip-path="url(#p1fd1630051)" d="M 407.946946 83.346249 
L 395.919339 83.346249 
L 394.020243 97.1 
L 386.283186 97.1 
L 397.332471 21.6 
L 406.508237 21.6 
L 417.557522 97.1 
L 409.826859 97.1 
z
M 397.837618 69.333605 
L 406.009485 69.333605 
L 401.929945 39.301886 
z
" style="fill:#008000;"/>
   </g>
   <g id="patch_32">
    <path clip-path="url(#p1fd1630051)" d="M 440.8673 132.743249 
L 428.839693 132.743249 
L 426.940597 157.5 
L 419.20354 157.5 
L 430.252825 21.6 
L 439.428591 21.6 
L 450.477876 157.5 
L 442.747213 157.5 
z
M 430.757972 107.520489 
L 438.929839 107.520489 
L 434.850299 53.463395 
z
" style="fill:#008000;"/>
   </g>
   <g id="patch_33">
    <path clip-path="url(#p1fd1630051)" d="M 452.123894 21.6 
L 483.39823 21.6 
L 483.39823 48.104286 
L 472.146742 48.104286 
L 472.146742 157.5 
L 463.397201 157.5 
L 463.397201 48.104286 
L 452.123894 48.104286 
z
" style="fill:#ff0000;"/>
   </g>
   <g id="patch_34">
    <path clip-path="url(#p1fd1630051)" d="M 516.318584 145.204152 
Q 513.164516 151.352076 509.772141 154.440074 
Q 506.379765 157.5 502.763101 157.5 
Q 494.59056 157.5 489.817404 139.196592 
Q 485.044248 120.893183 485.044248 89.592109 
Q 485.044248 57.92609 489.901512 39.763045 
Q 494.765786 21.6 503.225697 21.6 
Q 506.484901 21.6 509.470752 24.070399 
Q 512.463612 26.512725 515.113029 31.341231 
L 515.113029 58.431398 
Q 512.379504 52.227329 509.674014 49.167403 
Q 506.968525 46.079405 504.249017 46.079405 
Q 499.216527 46.079405 496.49001 57.364635 
Q 493.763493 68.621793 493.763493 89.592109 
Q 493.763493 110.365916 496.391883 121.707292 
Q 499.020273 133.020595 503.856511 133.020595 
Q 505.174211 133.020595 506.302666 132.374923 
Q 507.431121 131.701177 508.328279 130.297542 
L 508.328279 104.863665 
L 503.176634 104.863665 
L 503.176634 82.208986 
L 516.318584 82.208986 
z
" style="fill:#ffa600;"/>
   </g>
   <g id="patch_35">
    <path clip-path="url(#p1fd1630051)" d="M 549.238938 145.204152 
Q 546.08487 151.352076 542.692495 154.440074 
Q 539.300119 157.5 535.683455 157.5 
Q 527.510914 157.5 522.737758 139.196592 
Q 517.964602 120.893183 517.964602 89.592109 
Q 517.964602 57.92609 522.821866 39.763045 
Q 527.68614 21.6 536.146051 21.6 
Q 539.405255 21.6 542.391106 24.070399 
Q 545.383966 26.512725 548.033383 31.341231 
L 548.033383 58.431398 
Q 545.299858 52.227329 542.594368 49.167403 
Q 539.888879 46.079405 537.169371 46.079405 
Q 532.136881 46.079405 529.410364 57.364635 
Q 526.683847 68.621793 526.683847 89.592109 
Q 526.683847 110.365916 529.312237 121.707292 
Q 531.940627 133.020595 536.776865 133.020595 
Q 538.094565 133.020595 539.22302 132.374923 
Q 540.351475 131.701177 541.248633 130.297542 
L 541.248633 104.863665 
L 536.096988 104.863665 
L 536.096988 82.208986 
L 549.238938 82.208986 
z
" style="fill:#ffa600;"/>
   </g>
   <g id="patch_36">
    <path clip-path="url(#p1fd1630051)" d="M 572.548716 154.74925 
L 560.521109 154.74925 
L 558.622013 157.5 
L 550.884956 157.5 
L 561.934241 142.4 
L 571.110007 142.4 
L 582.159292 157.5 
L 574.428629 157.5 
z
M 562.439387 151.946721 
L 570.611255 151.946721 
L 566.531715 145.940377 
z
" style="fill:#008000;"/>
   </g>
   <g id="patch_37">
    <path clip-path="url(#p1fd1630051)" d="M 582.159292 138.301384 
Q 579.005224 140.350692 575.612849 141.380025 
Q 572.220473 142.4 568.603809 142.4 
Q 560.431268 142.4 555.658112 136.298864 
Q 550.884956 130.197728 550.884956 119.764036 
Q 550.884956 109.208697 555.74222 103.154348 
Q 560.606494 97.1 569.066405 97.1 
Q 572.325609 97.1 575.31146 97.923466 
Q 578.30432 98.737575 580.953737 100.347077 
L 580.953737 109.377133 
Q 578.220212 107.30911 575.514722 106.289134 
Q 572.809233 105.259802 570.089725 105.259802 
Q 565.057235 105.259802 562.330718 109.021545 
Q 559.604201 112.773931 559.604201 119.764036 
Q 559.604201 126.688639 562.232591 130.469097 
Q 564.860981 134.240198 569.697219 134.240198 
Q 571.014919 134.240198 572.143374 134.024974 
Q 573.271829 133.800392 574.168986 133.332514 
L 574.168986 124.854555 
L 569.017342 124.854555 
L 569.017342 117.302995 
L 582.159292 117.302995 
z
" style="fill:#ffa600;"/>
   </g>
   <g id="patch_38">
    <path clip-path="url(#p1fd1630051)" d="M 582.159292 91.688205 
Q 579.543248 94.370709 576.714453 95.727556 
Q 573.885658 97.1 570.804714 97.1 
Q 561.617041 97.1 556.250998 86.93144 
Q 550.884956 76.76288 550.884956 59.373394 
Q 550.884956 41.921524 556.250998 31.76856 
Q 561.617041 21.6 570.804714 21.6 
Q 573.885658 21.6 576.714453 22.972444 
Q 579.543248 24.329291 582.159292 27.011795 
L 582.159292 42.061888 
Q 579.519609 38.506011 576.958722 36.85284 
Q 574.397835 35.199669 571.569041 35.199669 
Q 566.494545 35.199669 563.586954 41.640797 
Q 560.687242 48.066329 560.687242 59.373394 
Q 560.687242 70.633671 563.586954 77.074799 
Q 566.494545 83.500331 571.569041 83.500331 
Q 574.397835 83.500331 576.958722 81.84716 
Q 579.519609 80.178393 582.159292 76.622516 
z
" style="fill:#0000ff;"/>
   </g>
   <g id="patch_39">
    <path clip-path="url(#p1fd1630051)" d="M 605.46907 151.9985 
L 593.441463 151.9985 
L 591.542367 157.5 
L 583.80531 157.5 
L 594.854595 127.3 
L 604.030361 127.3 
L 615.079646 157.5 
L 607.348983 157.5 
z
M 595.359741 146.393442 
L 603.531609 146.393442 
L 599.452069 134.380754 
z
" style="fill:#008000;"/>
   </g>
   <g id="patch_40">
    <path clip-path="url(#p1fd1630051)" d="M 615.079646 125.135282 
Q 612.463602 126.208283 609.634807 126.751023 
Q 606.806012 127.3 603.725068 127.3 
Q 594.537395 127.3 589.171352 123.232576 
Q 583.80531 119.165152 583.80531 112.209358 
Q 583.80531 105.22861 589.171352 101.167424 
Q 594.537395 97.1 603.725068 97.1 
Q 606.806012 97.1 609.634807 97.648977 
Q 612.463602 98.191717 615.079646 99.264718 
L 615.079646 105.284755 
Q 612.439963 103.862404 609.879076 103.201136 
Q 607.318189 102.539868 604.489395 102.539868 
Q 599.414899 102.539868 596.507308 105.116319 
Q 593.607596 107.686532 593.607596 112.209358 
Q 593.607596 116.713468 596.507308 119.289919 
Q 599.414899 121.860132 604.489395 121.860132 
Q 607.318189 121.860132 609.879076 121.198864 
Q 612.439963 120.531357 615.079646 119.109006 
z
" style="fill:#0000ff;"/>
   </g>
   <g id="patch_41">
    <path clip-path="url(#p1fd1630051)" d="M 615.079646 94.367589 
Q 611.925578 95.733795 608.533203 96.420017 
Q 605.140827 97.1 601.524163 97.1 
Q 593.351622 97.1 588.578466 93.032576 
Q 583.80531 88.965152 583.80531 82.009358 
Q 583.80531 74.972464 588.662574 70.936232 
Q 593.526848 66.9 601.986759 66.9 
Q 605.245963 66.9 608.231814 67.448977 
Q 611.224674 67.991717 613.874091 69.064718 
L 613.874091 75.084755 
Q 611.140566 73.706073 608.435076 73.02609 
Q 605.729587 72.339868 603.010079 72.339868 
Q 597.977589 72.339868 595.251072 74.847697 
Q 592.524555 77.349287 592.524555 82.009358 
Q 592.524555 86.625759 595.152945 89.146065 
Q 597.781335 91.660132 602.617573 91.660132 
Q 603.935272 91.660132 605.063728 91.516649 
Q 606.192183 91.366928 607.08934 91.055009 
L 607.08934 85.403037 
L 601.937696 85.403037 
L 601.937696 80.368663 
L 615.079646 80.368663 
z
" style="fill:#ffa600;"/>
   </g>
   <g id="patch_42">
    <path clip-path="url(#p1fd1630051)" d="M 583.80531 21.6 
L 615.079646 21.6 
L 615.079646 30.434762 
L 603.828158 30.434762 
L 603.828158 66.9 
L 595.078617 66.9 
L 595.078617 30.434762 
L 583.80531 30.434762 
z
" style="fill:#ff0000;"/>
   </g>
   <g id="patch_43">
    <path clip-path="url(#p1fd1630051)" d="M 648 156.417641 
Q 645.383956 156.954142 642.555161 157.225511 
Q 639.726366 157.5 636.645422 157.5 
Q 627.457749 157.5 622.091706 155.466288 
Q 616.725664 153.432576 616.725664 149.954679 
Q 616.725664 146.464305 622.091706 144.433712 
Q 627.457749 142.4 636.645422 142.4 
Q 639.726366 142.4 642.555161 142.674489 
Q 645.383956 142.945858 648 143.482359 
L 648 146.492378 
Q 645.360317 145.781202 642.79943 145.450568 
Q 640.238543 145.119934 637.409749 145.119934 
Q 632.335253 145.119934 629.427662 146.408159 
Q 626.52795 147.693266 626.52795 149.954679 
Q 626.52795 152.206734 629.427662 153.49496 
Q 632.335253 154.780066 637.409749 154.780066 
Q 640.238543 154.780066 642.79943 154.449432 
Q 645.360317 154.115679 648 153.404503 
z
" style="fill:#0000ff;"/>
   </g>
   <g id="patch_44">
    <path clip-path="url(#p1fd1630051)" d="M 638.389424 136.8985 
L 626.361817 136.8985 
L 624.462721 142.4 
L 616.725664 142.4 
L 627.774949 112.2 
L 636.950715 112.2 
L 648 142.4 
L 640.269337 142.4 
z
M 628.280095 131.293442 
L 636.451963 131.293442 
L 632.372423 119.280754 
z
" style="fill:#008000;"/>
   </g>
   <g id="patch_45">
    <path clip-path="url(#p1fd1630051)" d="M 648 104.002768 
Q 644.845932 108.101384 641.453557 110.16005 
Q 638.061181 112.2 634.444517 112.2 
Q 626.271976 112.2 621.49882 99.997728 
Q 616.725664 87.795455 616.725664 66.928073 
Q 616.725664 45.817393 621.582928 33.708697 
Q 626.447202 21.6 634.907113 21.6 
Q 638.166317 21.6 641.152168 23.246932 
Q 644.145028 24.87515 646.794445 28.094154 
L 646.794445 46.154266 
Q 644.06092 42.018219 641.35543 39.978269 
Q 638.649941 37.919603 635.930433 37.919603 
Q 630.897943 37.919603 628.171426 45.44309 
Q 625.444909 52.947862 625.444909 66.928073 
Q 625.444909 80.777277 628.073299 88.338195 
Q 630.701689 95.880397 635.537927 95.880397 
Q 636.855626 95.880397 637.984082 95.449948 
Q 639.112537 95.000785 640.009694 94.065028 
L 640.009694 77.10911 
L 634.85805 77.10911 
L 634.85805 62.00599 
L 648 62.00599 
z
" style="fill:#ffa600;"/>
   </g>
  </g>
 </g>
 <defs>
  <clipPath id="p1fd1630051">
   <rect height="135.9" width="558" x="90" y="21.6"/>
  </clipPath>
 </defs>
</svg>
