<?xml version="1.0" encoding="utf-8" standalone="no"?>
<!DOCTYPE svg PUBLIC "-//W3C//DTD SVG 1.1//EN"
  "http://www.w3.org/Graphics/SVG/1.1/DTD/svg11.dtd">
<!-- Created with matplotlib (https://matplotlib.org/) -->
<svg height="180pt" version="1.1" viewBox="0 0 720 180" width="720pt" xmlns="http://www.w3.org/2000/svg" xmlns:xlink="http://www.w3.org/1999/xlink">
 <metadata>
  <rdf:RDF xmlns:cc="http://creativecommons.org/ns#" xmlns:dc="http://purl.org/dc/elements/1.1/" xmlns:rdf="http://www.w3.org/1999/02/22-rdf-syntax-ns#">
   <cc:Work>
    <dc:type rdf:resource="http://purl.org/dc/dcmitype/StillImage"/>
    <dc:date>2021-08-04T23:34:06.806657</dc:date>
    <dc:format>image/svg+xml</dc:format>
    <dc:creator>
     <cc:Agent>
      <dc:title>Matplotlib v3.3.2, https://matplotlib.org/</dc:title>
     </cc:Agent>
    </dc:creator>
   </cc:Work>
  </rdf:RDF>
 </metadata>
 <defs>
  <style type="text/css">*{stroke-linecap:butt;stroke-linejoin:round;}</style>
 </defs>
 <g id="figure_1">
  <g id="patch_1">
   <path d="M 0 180 
L 720 180 
L 720 0 
L 0 0 
z
" style="fill:none;"/>
  </g>
  <g id="axes_1">
   <g id="line2d_1">
    <path clip-path="url(#pe8b467f6a2)" d="M 90 157.5 
L 648 157.5 
" style="fill:none;stroke:#000000;stroke-linecap:square;stroke-width:0.5;"/>
   </g>
   <g id="patch_2">
    <path clip-path="url(#pe8b467f6a2)" d="M 121.274336 156.417641 
Q 118.658292 156.954142 115.829497 157.225511 
Q 113.000702 157.5 109.919759 157.5 
Q 100.732085 157.5 95.366043 155.466288 
Q 90 153.432576 90 149.954679 
Q 90 146.464305 95.366043 144.433712 
Q 100.732085 142.4 109.919759 142.4 
Q 113.000702 142.4 115.829497 142.674489 
Q 118.658292 142.945858 121.274336 143.482359 
L 121.274336 146.492378 
Q 118.634653 145.781202 116.073766 145.450568 
Q 113.51288 145.119934 110.684085 145.119934 
Q 105.609589 145.119934 102.701998 146.408159 
Q 99.802286 147.693266 99.802286 149.954679 
Q 99.802286 152.206734 102.701998 153.49496 
Q 105.609589 154.780066 110.684085 154.780066 
Q 113.51288 154.780066 116.073766 154.449432 
Q 118.634653 154.115679 121.274336 153.404503 
z
" style="fill:#0000ff;"/>
   </g>
   <g id="patch_3">
    <path clip-path="url(#pe8b467f6a2)" d="M 121.274336 141.033795 
Q 118.120268 141.716897 114.727893 142.060008 
Q 111.335518 142.4 107.718853 142.4 
Q 99.546312 142.4 94.773156 140.366288 
Q 90 138.332576 90 134.854679 
Q 90 131.336232 94.857265 129.318116 
Q 99.721538 127.3 108.18145 127.3 
Q 111.440653 127.3 114.426504 127.574489 
Q 117.419364 127.845858 120.068781 128.382359 
L 120.068781 131.392378 
Q 117.335256 130.703037 114.629766 130.363045 
Q 111.924277 130.019934 109.204769 130.019934 
Q 104.172279 130.019934 101.445762 131.273848 
Q 98.719246 132.524644 98.719246 134.854679 
Q 98.719246 137.16288 101.347636 138.423032 
Q 103.976026 139.680066 108.812263 139.680066 
Q 110.129963 139.680066 111.258418 139.608325 
Q 112.386874 139.533464 113.284031 139.377505 
L 113.284031 136.551518 
L 108.132386 136.551518 
L 108.132386 134.034332 
L 121.274336 134.034332 
z
" style="fill:#ffa600;"/>
   </g>
   <g id="patch_4">
    <path clip-path="url(#pe8b467f6a2)" d="M 90 97.1 
L 121.274336 97.1 
L 121.274336 102.989841 
L 110.022848 102.989841 
L 110.022848 127.3 
L 101.273307 127.3 
L 101.273307 102.989841 
L 90 102.989841 
z
" style="fill:#ff0000;"/>
   </g>
   <g id="patch_5">
    <path clip-path="url(#pe8b467f6a2)" d="M 111.66376 83.346249 
L 99.636153 83.346249 
L 97.737057 97.1 
L 90 97.1 
L 101.049285 21.6 
L 110.225051 21.6 
L 121.274336 97.1 
L 113.543673 97.1 
z
M 101.554432 69.333605 
L 109.726299 69.333605 
L 105.64676 39.301886 
z
" style="fill:#008000;"/>
   </g>
   <g id="patch_6">
    <path clip-path="url(#pe8b467f6a2)" d="M 154.19469 156.133795 
Q 151.040622 156.816897 147.648247 157.160008 
Q 144.255872 157.5 140.639207 157.5 
Q 132.466666 157.5 127.69351 155.466288 
Q 122.920354 153.432576 122.920354 149.954679 
Q 122.920354 146.436232 127.777619 144.418116 
Q 132.641892 142.4 141.101804 142.4 
Q 144.361007 142.4 147.346858 142.674489 
Q 150.339718 142.945858 152.989135 143.482359 
L 152.989135 146.492378 
Q 150.25561 145.803037 147.55012 145.463045 
Q 144.844631 145.119934 142.125123 145.119934 
Q 137.092633 145.119934 134.366116 146.373848 
Q 131.6396 147.624644 131.6396 149.954679 
Q 131.6396 152.26288 134.26799 153.523032 
Q 136.89638 154.780066 141.732617 154.780066 
Q 143.050317 154.780066 144.178772 154.708325 
Q 145.307228 154.633464 146.204385 154.477505 
L 146.204385 151.651518 
L 141.05274 151.651518 
L 141.05274 149.134332 
L 154.19469 149.134332 
z
" style="fill:#ffa600;"/>
   </g>
   <g id="patch_7">
    <path clip-path="url(#pe8b467f6a2)" d="M 122.920354 127.3 
L 154.19469 127.3 
L 154.19469 130.244921 
L 142.943202 130.244921 
L 142.943202 142.4 
L 134.193661 142.4 
L 134.193661 130.244921 
L 122.920354 130.244921 
z
" style="fill:#ff0000;"/>
   </g>
   <g id="patch_8">
    <path clip-path="url(#pe8b467f6a2)" d="M 154.19469 125.135282 
Q 151.578646 126.208283 148.749851 126.751023 
Q 145.921056 127.3 142.840113 127.3 
Q 133.652439 127.3 128.286397 123.232576 
Q 122.920354 119.165152 122.920354 112.209358 
Q 122.920354 105.22861 128.286397 101.167424 
Q 133.652439 97.1 142.840113 97.1 
Q 145.921056 97.1 148.749851 97.648977 
Q 151.578646 98.191717 154.19469 99.264718 
L 154.19469 105.284755 
Q 151.555007 103.862404 148.99412 103.201136 
Q 146.433234 102.539868 143.604439 102.539868 
Q 138.529943 102.539868 135.622352 105.116319 
Q 132.72264 107.686532 132.72264 112.209358 
Q 132.72264 116.713468 135.622352 119.289919 
Q 138.529943 121.860132 143.604439 121.860132 
Q 146.433234 121.860132 148.99412 121.198864 
Q 151.555007 120.531357 154.19469 119.109006 
z
" style="fill:#0000ff;"/>
   </g>
   <g id="patch_9">
    <path clip-path="url(#pe8b467f6a2)" d="M 144.584114 83.346249 
L 132.556507 83.346249 
L 130.657411 97.1 
L 122.920354 97.1 
L 133.969639 21.6 
L 143.145405 21.6 
L 154.19469 97.1 
L 146.464027 97.1 
z
M 134.474786 69.333605 
L 142.646653 69.333605 
L 138.567114 39.301886 
z
" style="fill:#008000;"/>
   </g>
   <g id="patch_10">
    <path clip-path="url(#pe8b467f6a2)" d="M 155.840708 127.3 
L 187.115044 127.3 
L 187.115044 133.189841 
L 175.863556 133.189841 
L 175.863556 157.5 
L 167.114015 157.5 
L 167.114015 133.189841 
L 155.840708 133.189841 
z
" style="fill:#ff0000;"/>
   </g>
   <g id="patch_11">
    <path clip-path="url(#pe8b467f6a2)" d="M 187.115044 123.201384 
Q 183.960976 125.250692 180.568601 126.280025 
Q 177.176226 127.3 173.559561 127.3 
Q 165.38702 127.3 160.613864 121.198864 
Q 155.840708 115.097728 155.840708 104.664036 
Q 155.840708 94.108697 160.697973 88.054348 
Q 165.562246 82 174.022158 82 
Q 177.281361 82 180.267212 82.823466 
Q 183.260072 83.637575 185.909489 85.247077 
L 185.909489 94.277133 
Q 183.175964 92.20911 180.470474 91.189134 
Q 177.764985 90.159802 175.045477 90.159802 
Q 170.012987 90.159802 167.28647 93.921545 
Q 164.559954 97.673931 164.559954 104.664036 
Q 164.559954 111.588639 167.188344 115.369097 
Q 169.816734 119.140198 174.652971 119.140198 
Q 175.970671 119.140198 177.099126 118.924974 
Q 178.227582 118.700392 179.124739 118.232514 
L 179.124739 109.754555 
L 173.973094 109.754555 
L 173.973094 102.202995 
L 187.115044 102.202995 
z
" style="fill:#ffa600;"/>
   </g>
   <g id="patch_12">
    <path clip-path="url(#pe8b467f6a2)" d="M 177.504468 70.997 
L 165.476861 70.997 
L 163.577765 82 
L 155.840708 82 
L 166.889993 21.6 
L 176.065759 21.6 
L 187.115044 82 
L 179.384381 82 
z
M 167.39514 59.786884 
L 175.567007 59.786884 
L 171.487467 35.761509 
z
" style="fill:#008000;"/>
   </g>
   <g id="patch_13">
    <path clip-path="url(#pe8b467f6a2)" d="M 220.035398 156.417641 
Q 217.419354 156.954142 214.590559 157.225511 
Q 211.761764 157.5 208.680821 157.5 
Q 199.493147 157.5 194.127105 155.466288 
Q 188.761062 153.432576 188.761062 149.954679 
Q 188.761062 146.464305 194.127105 144.433712 
Q 199.493147 142.4 208.680821 142.4 
Q 211.761764 142.4 214.590559 142.674489 
Q 217.419354 142.945858 220.035398 143.482359 
L 220.035398 146.492378 
Q 217.395715 145.781202 214.834828 145.450568 
Q 212.273942 145.119934 209.445147 145.119934 
Q 204.370651 145.119934 201.46306 146.408159 
Q 198.563348 147.693266 198.563348 149.954679 
Q 198.563348 152.206734 201.46306 153.49496 
Q 204.370651 154.780066 209.445147 154.780066 
Q 212.273942 154.780066 214.834828 154.449432 
Q 217.395715 154.115679 220.035398 153.404503 
z
" style="fill:#0000ff;"/>
   </g>
   <g id="patch_14">
    <path clip-path="url(#pe8b467f6a2)" d="M 188.761062 21.6 
L 220.035398 21.6 
L 220.035398 45.159366 
L 208.78391 45.159366 
L 208.78391 142.4 
L 200.034369 142.4 
L 200.034369 45.159366 
L 188.761062 45.159366 
z
" style="fill:#ff0000;"/>
   </g>
   <g id="patch_15">
    <path clip-path="url(#pe8b467f6a2)" d="M 243.345176 151.9985 
L 231.317569 151.9985 
L 229.418473 157.5 
L 221.681416 157.5 
L 232.730701 127.3 
L 241.906467 127.3 
L 252.955752 157.5 
L 245.225089 157.5 
z
M 233.235848 146.393442 
L 241.407715 146.393442 
L 237.328175 134.380754 
z
" style="fill:#008000;"/>
   </g>
   <g id="patch_16">
    <path clip-path="url(#pe8b467f6a2)" d="M 221.681416 97.1 
L 252.955752 97.1 
L 252.955752 102.989841 
L 241.704264 102.989841 
L 241.704264 127.3 
L 232.954723 127.3 
L 232.954723 102.989841 
L 221.681416 102.989841 
z
" style="fill:#ff0000;"/>
   </g>
   <g id="patch_17">
    <path clip-path="url(#pe8b467f6a2)" d="M 252.955752 90.268973 
Q 249.801684 93.684487 246.409309 95.400041 
Q 243.016934 97.1 239.400269 97.1 
Q 231.227728 97.1 226.454572 86.93144 
Q 221.681416 76.76288 221.681416 59.373394 
Q 221.681416 41.781161 226.538681 31.69058 
Q 231.402954 21.6 239.862866 21.6 
Q 243.122069 21.6 246.10792 22.972444 
Q 249.10078 24.329291 251.750197 27.011795 
L 251.750197 42.061888 
Q 249.016672 38.615183 246.311182 36.915224 
Q 243.605693 35.199669 240.886185 35.199669 
Q 235.853695 35.199669 233.127178 41.469242 
Q 230.400662 47.723218 230.400662 59.373394 
Q 230.400662 70.914398 233.029052 77.215162 
Q 235.657442 83.500331 240.493679 83.500331 
Q 241.811379 83.500331 242.939834 83.141624 
Q 244.06829 82.767321 244.965447 81.987523 
L 244.965447 67.857591 
L 239.813802 67.857591 
L 239.813802 55.271659 
L 252.955752 55.271659 
z
" style="fill:#ffa600;"/>
   </g>
   <g id="patch_18">
    <path clip-path="url(#pe8b467f6a2)" d="M 276.26553 154.74925 
L 264.237923 154.74925 
L 262.338827 157.5 
L 254.60177 157.5 
L 265.651055 142.4 
L 274.826821 142.4 
L 285.876106 157.5 
L 278.145443 157.5 
z
M 266.156202 151.946721 
L 274.328069 151.946721 
L 270.248529 145.940377 
z
" style="fill:#008000;"/>
   </g>
   <g id="patch_19">
    <path clip-path="url(#pe8b467f6a2)" d="M 285.876106 141.317641 
Q 283.260062 141.854142 280.431267 142.125511 
Q 277.602472 142.4 274.521529 142.4 
Q 265.333855 142.4 259.967812 140.366288 
Q 254.60177 138.332576 254.60177 134.854679 
Q 254.60177 131.364305 259.967812 129.333712 
Q 265.333855 127.3 274.521529 127.3 
Q 277.602472 127.3 280.431267 127.574489 
Q 283.260062 127.845858 285.876106 128.382359 
L 285.876106 131.392378 
Q 283.236423 130.681202 280.675536 130.350568 
Q 278.11465 130.019934 275.285855 130.019934 
Q 270.211359 130.019934 267.303768 131.308159 
Q 264.404056 132.593266 264.404056 134.854679 
Q 264.404056 137.106734 267.303768 138.39496 
Q 270.211359 139.680066 275.285855 139.680066 
Q 278.11465 139.680066 280.675536 139.349432 
Q 283.236423 139.015679 285.876106 138.304503 
z
" style="fill:#0000ff;"/>
   </g>
   <g id="patch_20">
    <path clip-path="url(#pe8b467f6a2)" d="M 254.60177 82 
L 285.876106 82 
L 285.876106 90.834762 
L 274.624618 90.834762 
L 274.624618 127.3 
L 265.875077 127.3 
L 265.875077 90.834762 
L 254.60177 90.834762 
z
" style="fill:#ff0000;"/>
   </g>
   <g id="patch_21">
    <path clip-path="url(#pe8b467f6a2)" d="M 285.876106 76.535179 
Q 282.722038 79.267589 279.329663 80.640033 
Q 275.937288 82 272.320623 82 
Q 264.148082 82 259.374926 73.865152 
Q 254.60177 65.730304 254.60177 51.818715 
Q 254.60177 37.744929 259.459035 29.672464 
Q 264.323308 21.6 272.78322 21.6 
Q 276.042423 21.6 279.028274 22.697955 
Q 282.021134 23.783433 284.670551 25.929436 
L 284.670551 37.96951 
Q 281.937026 35.212146 279.231536 33.852179 
Q 276.526047 32.479736 273.806539 32.479736 
Q 268.774049 32.479736 266.047532 37.495394 
Q 263.321016 42.498575 263.321016 51.818715 
Q 263.321016 61.051518 265.949406 66.09213 
Q 268.577796 71.120264 273.414033 71.120264 
Q 274.731733 71.120264 275.860188 70.833299 
Q 276.988644 70.533857 277.885801 69.910019 
L 277.885801 58.606073 
L 272.734156 58.606073 
L 272.734156 48.537327 
L 285.876106 48.537327 
z
" style="fill:#ffa600;"/>
   </g>
   <g id="patch_22">
    <path clip-path="url(#pe8b467f6a2)" d="M 309.185884 154.74925 
L 297.158277 154.74925 
L 295.259181 157.5 
L 287.522124 157.5 
L 298.571409 142.4 
L 307.747175 142.4 
L 318.79646 157.5 
L 311.065797 157.5 
z
M 299.076556 151.946721 
L 307.248423 151.946721 
L 303.168883 145.940377 
z
" style="fill:#008000;"/>
   </g>
   <g id="patch_23">
    <path clip-path="url(#pe8b467f6a2)" d="M 318.79646 141.033795 
Q 315.642392 141.716897 312.250017 142.060008 
Q 308.857642 142.4 305.240977 142.4 
Q 297.068436 142.4 292.29528 140.366288 
Q 287.522124 138.332576 287.522124 134.854679 
Q 287.522124 131.336232 292.379389 129.318116 
Q 297.243662 127.3 305.703574 127.3 
Q 308.962777 127.3 311.948628 127.574489 
Q 314.941488 127.845858 317.590905 128.382359 
L 317.590905 131.392378 
Q 314.85738 130.703037 312.15189 130.363045 
Q 309.446401 130.019934 306.726893 130.019934 
Q 301.694403 130.019934 298.967886 131.273848 
Q 296.24137 132.524644 296.24137 134.854679 
Q 296.24137 137.16288 298.86976 138.423032 
Q 301.49815 139.680066 306.334387 139.680066 
Q 307.652087 139.680066 308.780542 139.608325 
Q 309.908998 139.533464 310.806155 139.377505 
L 310.806155 136.551518 
L 305.65451 136.551518 
L 305.65451 134.034332 
L 318.79646 134.034332 
z
" style="fill:#ffa600;"/>
   </g>
   <g id="patch_24">
    <path clip-path="url(#pe8b467f6a2)" d="M 287.522124 82 
L 318.79646 82 
L 318.79646 90.834762 
L 307.544972 90.834762 
L 307.544972 127.3 
L 298.795431 127.3 
L 298.795431 90.834762 
L 287.522124 90.834762 
z
" style="fill:#ff0000;"/>
   </g>
   <g id="patch_25">
    <path clip-path="url(#pe8b467f6a2)" d="M 318.79646 77.670564 
Q 316.180416 79.816567 313.351621 80.902045 
Q 310.522826 82 307.441883 82 
Q 298.254209 82 292.888166 73.865152 
Q 287.522124 65.730304 287.522124 51.818715 
Q 287.522124 37.85722 292.888166 29.734848 
Q 298.254209 21.6 307.441883 21.6 
Q 310.522826 21.6 313.351621 22.697955 
Q 316.180416 23.783433 318.79646 25.929436 
L 318.79646 37.96951 
Q 316.156777 35.124809 313.59589 33.802272 
Q 311.035004 32.479736 308.206209 32.479736 
Q 303.131713 32.479736 300.224122 37.632638 
Q 297.32441 42.773063 297.32441 51.818715 
Q 297.32441 60.826937 300.224122 65.979839 
Q 303.131713 71.120264 308.206209 71.120264 
Q 311.035004 71.120264 313.59589 69.797728 
Q 316.156777 68.462714 318.79646 65.618013 
z
" style="fill:#0000ff;"/>
   </g>
   <g id="patch_26">
    <path clip-path="url(#pe8b467f6a2)" d="M 342.106238 151.9985 
L 330.078631 151.9985 
L 328.179535 157.5 
L 320.442478 157.5 
L 331.491763 127.3 
L 340.667529 127.3 
L 351.716814 157.5 
L 343.986151 157.5 
z
M 331.99691 146.393442 
L 340.168777 146.393442 
L 336.089237 134.380754 
z
" style="fill:#008000;"/>
   </g>
   <g id="patch_27">
    <path clip-path="url(#pe8b467f6a2)" d="M 351.716814 117.736563 
Q 348.562746 122.518281 345.170371 124.920058 
Q 341.777996 127.3 338.161331 127.3 
Q 329.98879 127.3 325.215634 113.064016 
Q 320.442478 98.828031 320.442478 74.482751 
Q 320.442478 49.853625 325.299743 35.726813 
Q 330.164016 21.6 338.623928 21.6 
Q 341.883131 21.6 344.868982 23.521421 
Q 347.861842 25.421008 350.511259 29.176513 
L 350.511259 50.246643 
Q 347.777734 45.421256 345.072244 43.041314 
Q 342.366755 40.639537 339.647247 40.639537 
Q 334.614757 40.639537 331.88824 49.416939 
Q 329.161724 58.172506 329.161724 74.482751 
Q 329.161724 90.640157 331.790114 99.461227 
Q 334.418504 108.260463 339.254741 108.260463 
Q 340.572441 108.260463 341.700896 107.758273 
Q 342.829351 107.234249 343.726509 106.142533 
L 343.726509 86.360628 
L 338.574864 86.360628 
L 338.574864 68.740322 
L 351.716814 68.740322 
z
" style="fill:#ffa600;"/>
   </g>
   <g id="patch_28">
    <path clip-path="url(#pe8b467f6a2)" d="M 375.026592 154.74925 
L 362.998985 154.74925 
L 361.099889 157.5 
L 353.362832 157.5 
L 364.412117 142.4 
L 373.587883 142.4 
L 384.637168 157.5 
L 376.906505 157.5 
z
M 364.917264 151.946721 
L 373.089131 151.946721 
L 369.009591 145.940377 
z
" style="fill:#008000;"/>
   </g>
   <g id="patch_29">
    <path clip-path="url(#pe8b467f6a2)" d="M 384.637168 141.317641 
Q 382.021124 141.854142 379.192329 142.125511 
Q 376.363534 142.4 373.282591 142.4 
Q 364.094917 142.4 358.728874 140.366288 
Q 353.362832 138.332576 353.362832 134.854679 
Q 353.362832 131.364305 358.728874 129.333712 
Q 364.094917 127.3 373.282591 127.3 
Q 376.363534 127.3 379.192329 127.574489 
Q 382.021124 127.845858 384.637168 128.382359 
L 384.637168 131.392378 
Q 381.997485 130.681202 379.436598 130.350568 
Q 376.875712 130.019934 374.046917 130.019934 
Q 368.972421 130.019934 366.06483 131.308159 
Q 363.165118 132.593266 363.165118 134.854679 
Q 363.165118 137.106734 366.06483 138.39496 
Q 368.972421 139.680066 374.046917 139.680066 
Q 376.875712 139.680066 379.436598 139.349432 
Q 381.997485 139.015679 384.637168 138.304503 
z
" style="fill:#0000ff;"/>
   </g>
   <g id="patch_30">
    <path clip-path="url(#pe8b467f6a2)" d="M 353.362832 97.1 
L 384.637168 97.1 
L 384.637168 102.989841 
L 373.38568 102.989841 
L 373.38568 127.3 
L 364.636139 127.3 
L 364.636139 102.989841 
L 353.362832 102.989841 
z
" style="fill:#ff0000;"/>
   </g>
   <g id="patch_31">
    <path clip-path="url(#pe8b467f6a2)" d="M 384.637168 90.268973 
Q 381.4831 93.684487 378.090725 95.400041 
Q 374.698349 97.1 371.081685 97.1 
Q 362.909144 97.1 358.135988 86.93144 
Q 353.362832 76.76288 353.362832 59.373394 
Q 353.362832 41.781161 358.220097 31.69058 
Q 363.08437 21.6 371.544282 21.6 
Q 374.803485 21.6 377.789336 22.972444 
Q 380.782196 24.329291 383.431613 27.011795 
L 383.431613 42.061888 
Q 380.698088 38.615183 377.992598 36.915224 
Q 375.287109 35.199669 372.567601 35.199669 
Q 367.535111 35.199669 364.808594 41.469242 
Q 362.082078 47.723218 362.082078 59.373394 
Q 362.082078 70.914398 364.710468 77.215162 
Q 367.338858 83.500331 372.175095 83.500331 
Q 373.492795 83.500331 374.62125 83.141624 
Q 375.749705 82.767321 376.646863 81.987523 
L 376.646863 67.857591 
L 371.495218 67.857591 
L 371.495218 55.271659 
L 384.637168 55.271659 
z
" style="fill:#ffa600;"/>
   </g>
   <g id="patch_32">
    <path clip-path="url(#pe8b467f6a2)" d="M 417.557522 156.133795 
Q 414.403454 156.816897 411.011079 157.160008 
Q 407.618703 157.5 404.002039 157.5 
Q 395.829498 157.5 391.056342 155.466288 
Q 386.283186 153.432576 386.283186 149.954679 
Q 386.283186 146.436232 391.140451 144.418116 
Q 396.004724 142.4 404.464635 142.4 
Q 407.723839 142.4 410.70969 142.674489 
Q 413.70255 142.945858 416.351967 143.482359 
L 416.351967 146.492378 
Q 413.618442 145.803037 410.912952 145.463045 
Q 408.207463 145.119934 405.487955 145.119934 
Q 400.455465 145.119934 397.728948 146.373848 
Q 395.002432 147.624644 395.002432 149.954679 
Q 395.002432 152.26288 397.630822 153.523032 
Q 400.259212 154.780066 405.095449 154.780066 
Q 406.413149 154.780066 407.541604 154.708325 
Q 408.670059 154.633464 409.567217 154.477505 
L 409.567217 151.651518 
L 404.415572 151.651518 
L 404.415572 149.134332 
L 417.557522 149.134332 
z
" style="fill:#ffa600;"/>
   </g>
   <g id="patch_33">
    <path clip-path="url(#pe8b467f6a2)" d="M 407.946946 136.8985 
L 395.919339 136.8985 
L 394.020243 142.4 
L 386.283186 142.4 
L 397.332471 112.2 
L 406.508237 112.2 
L 417.557522 142.4 
L 409.826859 142.4 
z
M 397.837618 131.293442 
L 406.009485 131.293442 
L 401.929945 119.280754 
z
" style="fill:#008000;"/>
   </g>
   <g id="patch_34">
    <path clip-path="url(#pe8b467f6a2)" d="M 386.283186 21.6 
L 417.557522 21.6 
L 417.557522 39.269524 
L 406.306034 39.269524 
L 406.306034 112.2 
L 397.556493 112.2 
L 397.556493 39.269524 
L 386.283186 39.269524 
z
" style="fill:#ff0000;"/>
   </g>
   <g id="patch_35">
    <path clip-path="url(#pe8b467f6a2)" d="M 450.477876 156.417641 
Q 447.861832 156.954142 445.033037 157.225511 
Q 442.204242 157.5 439.123298 157.5 
Q 429.935625 157.5 424.569582 155.466288 
Q 419.20354 153.432576 419.20354 149.954679 
Q 419.20354 146.464305 424.569582 144.433712 
Q 429.935625 142.4 439.123298 142.4 
Q 442.204242 142.4 445.033037 142.674489 
Q 447.861832 142.945858 450.477876 143.482359 
L 450.477876 146.492378 
Q 447.838193 145.781202 445.277306 145.450568 
Q 442.71642 145.119934 439.887625 145.119934 
Q 434.813129 145.119934 431.905538 146.408159 
Q 429.005826 147.693266 429.005826 149.954679 
Q 429.005826 152.206734 431.905538 153.49496 
Q 434.813129 154.780066 439.887625 154.780066 
Q 442.71642 154.780066 445.277306 154.449432 
Q 447.838193 154.115679 450.477876 153.404503 
z
" style="fill:#0000ff;"/>
   </g>
   <g id="patch_36">
    <path clip-path="url(#pe8b467f6a2)" d="M 450.477876 139.667589 
Q 447.323808 141.033795 443.931433 141.720017 
Q 440.539057 142.4 436.922393 142.4 
Q 428.749852 142.4 423.976696 138.332576 
Q 419.20354 134.265152 419.20354 127.309358 
Q 419.20354 120.272464 424.060805 116.236232 
Q 428.925078 112.2 437.384989 112.2 
Q 440.644193 112.2 443.630044 112.748977 
Q 446.622904 113.291717 449.272321 114.364718 
L 449.272321 120.384755 
Q 446.538796 119.006073 443.833306 118.32609 
Q 441.127817 117.639868 438.408309 117.639868 
Q 433.375819 117.639868 430.649302 120.147697 
Q 427.922786 122.649287 427.922786 127.309358 
Q 427.922786 131.925759 430.551176 134.446065 
Q 433.179565 136.960132 438.015803 136.960132 
Q 439.333503 136.960132 440.461958 136.816649 
Q 441.590413 136.666928 442.487571 136.355009 
L 442.487571 130.703037 
L 437.335926 130.703037 
L 437.335926 125.668663 
L 450.477876 125.668663 
z
" style="fill:#ffa600;"/>
   </g>
   <g id="patch_37">
    <path clip-path="url(#pe8b467f6a2)" d="M 440.8673 95.695499 
L 428.839693 95.695499 
L 426.940597 112.2 
L 419.20354 112.2 
L 430.252825 21.6 
L 439.428591 21.6 
L 450.477876 112.2 
L 442.747213 112.2 
z
M 430.757972 78.880326 
L 438.929839 78.880326 
L 434.850299 42.842263 
z
" style="fill:#008000;"/>
   </g>
   <g id="patch_38">
    <path clip-path="url(#pe8b467f6a2)" d="M 473.787654 149.24775 
L 461.760047 149.24775 
L 459.860951 157.5 
L 452.123894 157.5 
L 463.173179 112.2 
L 472.348945 112.2 
L 483.39823 157.5 
L 475.667567 157.5 
z
M 463.678326 140.840163 
L 471.850193 140.840163 
L 467.770653 122.821132 
z
" style="fill:#008000;"/>
   </g>
   <g id="patch_39">
    <path clip-path="url(#pe8b467f6a2)" d="M 483.39823 108.952923 
Q 480.782186 110.562425 477.953391 111.376534 
Q 475.124596 112.2 472.043652 112.2 
Q 462.855979 112.2 457.489936 106.098864 
Q 452.123894 99.997728 452.123894 89.564036 
Q 452.123894 79.092915 457.489936 73.001136 
Q 462.855979 66.9 472.043652 66.9 
Q 475.124596 66.9 477.953391 67.723466 
Q 480.782186 68.537575 483.39823 70.147077 
L 483.39823 79.177133 
Q 480.758547 77.043607 478.19766 76.051704 
Q 475.636773 75.059802 472.807979 75.059802 
Q 467.733483 75.059802 464.825892 78.924478 
Q 461.92618 82.779798 461.92618 89.564036 
Q 461.92618 96.320202 464.825892 100.184879 
Q 467.733483 104.040198 472.807979 104.040198 
Q 475.636773 104.040198 478.19766 103.048296 
Q 480.758547 102.047036 483.39823 99.91351 
z
" style="fill:#0000ff;"/>
   </g>
   <g id="patch_40">
    <path clip-path="url(#pe8b467f6a2)" d="M 483.39823 62.801384 
Q 480.244162 64.850692 476.851787 65.880025 
Q 473.459411 66.9 469.842747 66.9 
Q 461.670206 66.9 456.89705 60.798864 
Q 452.123894 54.697728 452.123894 44.264036 
Q 452.123894 33.708697 456.981158 27.654348 
Q 461.845432 21.6 470.305343 21.6 
Q 473.564547 21.6 476.550398 22.423466 
Q 479.543258 23.237575 482.192675 24.847077 
L 482.192675 33.877133 
Q 479.45915 31.80911 476.75366 30.789134 
Q 474.048171 29.759802 471.328663 29.759802 
Q 466.296173 29.759802 463.569656 33.521545 
Q 460.84314 37.273931 460.84314 44.264036 
Q 460.84314 51.188639 463.471529 54.969097 
Q 466.099919 58.740198 470.936157 58.740198 
Q 472.253857 58.740198 473.382312 58.524974 
Q 474.510767 58.300392 475.407925 57.832514 
L 475.407925 49.354555 
L 470.25628 49.354555 
L 470.25628 41.802995 
L 483.39823 41.802995 
z
" style="fill:#ffa600;"/>
   </g>
   <g id="patch_41">
    <path clip-path="url(#pe8b467f6a2)" d="M 516.318584 156.417641 
Q 513.70254 156.954142 510.873745 157.225511 
Q 508.04495 157.5 504.964006 157.5 
Q 495.776333 157.5 490.41029 155.466288 
Q 485.044248 153.432576 485.044248 149.954679 
Q 485.044248 146.464305 490.41029 144.433712 
Q 495.776333 142.4 504.964006 142.4 
Q 508.04495 142.4 510.873745 142.674489 
Q 513.70254 142.945858 516.318584 143.482359 
L 516.318584 146.492378 
Q 513.678901 145.781202 511.118014 145.450568 
Q 508.557127 145.119934 505.728333 145.119934 
Q 500.653837 145.119934 497.746246 146.408159 
Q 494.846534 147.693266 494.846534 149.954679 
Q 494.846534 152.206734 497.746246 153.49496 
Q 500.653837 154.780066 505.728333 154.780066 
Q 508.557127 154.780066 511.118014 154.449432 
Q 513.678901 154.115679 516.318584 153.404503 
z
" style="fill:#0000ff;"/>
   </g>
   <g id="patch_42">
    <path clip-path="url(#pe8b467f6a2)" d="M 506.708008 134.14775 
L 494.680401 134.14775 
L 492.781305 142.4 
L 485.044248 142.4 
L 496.093533 97.1 
L 505.269299 97.1 
L 516.318584 142.4 
L 508.587921 142.4 
z
M 496.59868 125.740163 
L 504.770547 125.740163 
L 500.691007 107.721132 
z
" style="fill:#008000;"/>
   </g>
   <g id="patch_43">
    <path clip-path="url(#pe8b467f6a2)" d="M 516.318584 90.268973 
Q 513.164516 93.684487 509.772141 95.400041 
Q 506.379765 97.1 502.763101 97.1 
Q 494.59056 97.1 489.817404 86.93144 
Q 485.044248 76.76288 485.044248 59.373394 
Q 485.044248 41.781161 489.901512 31.69058 
Q 494.765786 21.6 503.225697 21.6 
Q 506.484901 21.6 509.470752 22.972444 
Q 512.463612 24.329291 515.113029 27.011795 
L 515.113029 42.061888 
Q 512.379504 38.615183 509.674014 36.915224 
Q 506.968525 35.199669 504.249017 35.199669 
Q 499.216527 35.199669 496.49001 41.469242 
Q 493.763493 47.723218 493.763493 59.373394 
Q 493.763493 70.914398 496.391883 77.215162 
Q 499.020273 83.500331 503.856511 83.500331 
Q 505.174211 83.500331 506.302666 83.141624 
Q 507.431121 82.767321 508.328279 81.987523 
L 508.328279 67.857591 
L 503.176634 67.857591 
L 503.176634 55.271659 
L 516.318584 55.271659 
z
" style="fill:#ffa600;"/>
   </g>
   <g id="patch_44">
    <path clip-path="url(#pe8b467f6a2)" d="M 539.628362 151.9985 
L 527.600755 151.9985 
L 525.701659 157.5 
L 517.964602 157.5 
L 529.013887 127.3 
L 538.189653 127.3 
L 549.238938 157.5 
L 541.508275 157.5 
z
M 529.519034 146.393442 
L 537.690901 146.393442 
L 533.611361 134.380754 
z
" style="fill:#008000;"/>
   </g>
   <g id="patch_45">
    <path clip-path="url(#pe8b467f6a2)" d="M 549.238938 125.135282 
Q 546.622894 126.208283 543.794099 126.751023 
Q 540.965304 127.3 537.88436 127.3 
Q 528.696687 127.3 523.330644 123.232576 
Q 517.964602 119.165152 517.964602 112.209358 
Q 517.964602 105.22861 523.330644 101.167424 
Q 528.696687 97.1 537.88436 97.1 
Q 540.965304 97.1 543.794099 97.648977 
Q 546.622894 98.191717 549.238938 99.264718 
L 549.238938 105.284755 
Q 546.599255 103.862404 544.038368 103.201136 
Q 541.477481 102.539868 538.648687 102.539868 
Q 533.574191 102.539868 530.6666 105.116319 
Q 527.766888 107.686532 527.766888 112.209358 
Q 527.766888 116.713468 530.6666 119.289919 
Q 533.574191 121.860132 538.648687 121.860132 
Q 541.477481 121.860132 544.038368 121.198864 
Q 546.599255 120.531357 549.238938 119.109006 
z
" style="fill:#0000ff;"/>
   </g>
   <g id="patch_46">
    <path clip-path="url(#pe8b467f6a2)" d="M 517.964602 66.9 
L 549.238938 66.9 
L 549.238938 72.789841 
L 537.98745 72.789841 
L 537.98745 97.1 
L 529.237909 97.1 
L 529.237909 72.789841 
L 517.964602 72.789841 
z
" style="fill:#ff0000;"/>
   </g>
   <g id="patch_47">
    <path clip-path="url(#pe8b467f6a2)" d="M 549.238938 62.801384 
Q 546.08487 64.850692 542.692495 65.880025 
Q 539.300119 66.9 535.683455 66.9 
Q 527.510914 66.9 522.737758 60.798864 
Q 517.964602 54.697728 517.964602 44.264036 
Q 517.964602 33.708697 522.821866 27.654348 
Q 527.68614 21.6 536.146051 21.6 
Q 539.405255 21.6 542.391106 22.423466 
Q 545.383966 23.237575 548.033383 24.847077 
L 548.033383 33.877133 
Q 545.299858 31.80911 542.594368 30.789134 
Q 539.888879 29.759802 537.169371 29.759802 
Q 532.136881 29.759802 529.410364 33.521545 
Q 526.683847 37.273931 526.683847 44.264036 
Q 526.683847 51.188639 529.312237 54.969097 
Q 531.940627 58.740198 536.776865 58.740198 
Q 538.094565 58.740198 539.22302 58.524974 
Q 540.351475 58.300392 541.248633 57.832514 
L 541.248633 49.354555 
L 536.096988 49.354555 
L 536.096988 41.802995 
L 549.238938 41.802995 
z
" style="fill:#ffa600;"/>
   </g>
   <g id="patch_48">
    <path clip-path="url(#pe8b467f6a2)" d="M 582.159292 156.417641 
Q 579.543248 156.954142 576.714453 157.225511 
Q 573.885658 157.5 570.804714 157.5 
Q 561.617041 157.5 556.250998 155.466288 
Q 550.884956 153.432576 550.884956 149.954679 
Q 550.884956 146.464305 556.250998 144.433712 
Q 561.617041 142.4 570.804714 142.4 
Q 573.885658 142.4 576.714453 142.674489 
Q 579.543248 142.945858 582.159292 143.482359 
L 582.159292 146.492378 
Q 579.519609 145.781202 576.958722 145.450568 
Q 574.397835 145.119934 571.569041 145.119934 
Q 566.494545 145.119934 563.586954 146.408159 
Q 560.687242 147.693266 560.687242 149.954679 
Q 560.687242 152.206734 563.586954 153.49496 
Q 566.494545 154.780066 571.569041 154.780066 
Q 574.397835 154.780066 576.958722 154.449432 
Q 579.519609 154.115679 582.159292 153.404503 
z
" style="fill:#0000ff;"/>
   </g>
   <g id="patch_49">
    <path clip-path="url(#pe8b467f6a2)" d="M 582.159292 138.301384 
Q 579.005224 140.350692 575.612849 141.380025 
Q 572.220473 142.4 568.603809 142.4 
Q 560.431268 142.4 555.658112 136.298864 
Q 550.884956 130.197728 550.884956 119.764036 
Q 550.884956 109.208697 555.74222 103.154348 
Q 560.606494 97.1 569.066405 97.1 
Q 572.325609 97.1 575.31146 97.923466 
Q 578.30432 98.737575 580.953737 100.347077 
L 580.953737 109.377133 
Q 578.220212 107.30911 575.514722 106.289134 
Q 572.809233 105.259802 570.089725 105.259802 
Q 565.057235 105.259802 562.330718 109.021545 
Q 559.604201 112.773931 559.604201 119.764036 
Q 559.604201 126.688639 562.232591 130.469097 
Q 564.860981 134.240198 569.697219 134.240198 
Q 571.014919 134.240198 572.143374 134.024974 
Q 573.271829 133.800392 574.168986 133.332514 
L 574.168986 124.854555 
L 569.017342 124.854555 
L 569.017342 117.302995 
L 582.159292 117.302995 
z
" style="fill:#ffa600;"/>
   </g>
   <g id="patch_50">
    <path clip-path="url(#pe8b467f6a2)" d="M 572.548716 83.346249 
L 560.521109 83.346249 
L 558.622013 97.1 
L 550.884956 97.1 
L 561.934241 21.6 
L 571.110007 21.6 
L 582.159292 97.1 
L 574.428629 97.1 
z
M 562.439387 69.333605 
L 570.611255 69.333605 
L 566.531715 39.301886 
z
" style="fill:#008000;"/>
   </g>
   <g id="patch_51">
    <path clip-path="url(#pe8b467f6a2)" d="M 605.46907 149.24775 
L 593.441463 149.24775 
L 591.542367 157.5 
L 583.80531 157.5 
L 594.854595 112.2 
L 604.030361 112.2 
L 615.079646 157.5 
L 607.348983 157.5 
z
M 595.359741 140.840163 
L 603.531609 140.840163 
L 599.452069 122.821132 
z
" style="fill:#008000;"/>
   </g>
   <g id="patch_52">
    <path clip-path="url(#pe8b467f6a2)" d="M 583.80531 21.6 
L 615.079646 21.6 
L 615.079646 39.269524 
L 603.828158 39.269524 
L 603.828158 112.2 
L 595.078617 112.2 
L 595.078617 39.269524 
L 583.80531 39.269524 
z
" style="fill:#ff0000;"/>
   </g>
   <g id="patch_53">
    <path clip-path="url(#pe8b467f6a2)" d="M 648 155.335282 
Q 645.383956 156.408283 642.555161 156.951023 
Q 639.726366 157.5 636.645422 157.5 
Q 627.457749 157.5 622.091706 153.432576 
Q 616.725664 149.365152 616.725664 142.409358 
Q 616.725664 135.42861 622.091706 131.367424 
Q 627.457749 127.3 636.645422 127.3 
Q 639.726366 127.3 642.555161 127.848977 
Q 645.383956 128.391717 648 129.464718 
L 648 135.484755 
Q 645.360317 134.062404 642.79943 133.401136 
Q 640.238543 132.739868 637.409749 132.739868 
Q 632.335253 132.739868 629.427662 135.316319 
Q 626.52795 137.886532 626.52795 142.409358 
Q 626.52795 146.913468 629.427662 149.489919 
Q 632.335253 152.060132 637.409749 152.060132 
Q 640.238543 152.060132 642.79943 151.398864 
Q 645.360317 150.731357 648 149.309006 
z
" style="fill:#0000ff;"/>
   </g>
   <g id="patch_54">
    <path clip-path="url(#pe8b467f6a2)" d="M 616.725664 97.1 
L 648 97.1 
L 648 102.989841 
L 636.748512 102.989841 
L 636.748512 127.3 
L 627.998971 127.3 
L 627.998971 102.989841 
L 616.725664 102.989841 
z
" style="fill:#ff0000;"/>
   </g>
   <g id="patch_55">
    <path clip-path="url(#pe8b467f6a2)" d="M 648 90.268973 
Q 644.845932 93.684487 641.453557 95.400041 
Q 638.061181 97.1 634.444517 97.1 
Q 626.271976 97.1 621.49882 86.93144 
Q 616.725664 76.76288 616.725664 59.373394 
Q 616.725664 41.781161 621.582928 31.69058 
Q 626.447202 21.6 634.907113 21.6 
Q 638.166317 21.6 641.152168 22.972444 
Q 644.145028 24.329291 646.794445 27.011795 
L 646.794445 42.061888 
Q 644.06092 38.615183 641.35543 36.915224 
Q 638.649941 35.199669 635.930433 35.199669 
Q 630.897943 35.199669 628.171426 41.469242 
Q 625.444909 47.723218 625.444909 59.373394 
Q 625.444909 70.914398 628.073299 77.215162 
Q 630.701689 83.500331 635.537927 83.500331 
Q 636.855626 83.500331 637.984082 83.141624 
Q 639.112537 82.767321 640.009694 81.987523 
L 640.009694 67.857591 
L 634.85805 67.857591 
L 634.85805 55.271659 
L 648 55.271659 
z
" style="fill:#ffa600;"/>
   </g>
  </g>
 </g>
 <defs>
  <clipPath id="pe8b467f6a2">
   <rect height="135.9" width="558" x="90" y="21.6"/>
  </clipPath>
 </defs>
</svg>
