<?xml version="1.0" encoding="utf-8" standalone="no"?>
<!DOCTYPE svg PUBLIC "-//W3C//DTD SVG 1.1//EN"
  "http://www.w3.org/Graphics/SVG/1.1/DTD/svg11.dtd">
<!-- Created with matplotlib (https://matplotlib.org/) -->
<svg height="180pt" version="1.1" viewBox="0 0 720 180" width="720pt" xmlns="http://www.w3.org/2000/svg" xmlns:xlink="http://www.w3.org/1999/xlink">
 <metadata>
  <rdf:RDF xmlns:cc="http://creativecommons.org/ns#" xmlns:dc="http://purl.org/dc/elements/1.1/" xmlns:rdf="http://www.w3.org/1999/02/22-rdf-syntax-ns#">
   <cc:Work>
    <dc:type rdf:resource="http://purl.org/dc/dcmitype/StillImage"/>
    <dc:date>2021-08-04T23:33:32.221214</dc:date>
    <dc:format>image/svg+xml</dc:format>
    <dc:creator>
     <cc:Agent>
      <dc:title>Matplotlib v3.3.2, https://matplotlib.org/</dc:title>
     </cc:Agent>
    </dc:creator>
   </cc:Work>
  </rdf:RDF>
 </metadata>
 <defs>
  <style type="text/css">*{stroke-linecap:butt;stroke-linejoin:round;}</style>
 </defs>
 <g id="figure_1">
  <g id="patch_1">
   <path d="M 0 180 
L 720 180 
L 720 0 
L 0 0 
z
" style="fill:none;"/>
  </g>
  <g id="axes_1">
   <g id="line2d_1">
    <path clip-path="url(#p6378157101)" d="M 90 157.5 
L 648 157.5 
" style="fill:none;stroke:#000000;stroke-linecap:square;stroke-width:0.5;"/>
   </g>
   <g id="patch_2">
    <path clip-path="url(#p6378157101)" d="M 111.66376 151.9985 
L 99.636153 151.9985 
L 97.737057 157.5 
L 90 157.5 
L 101.049285 127.3 
L 110.225051 127.3 
L 121.274336 157.5 
L 113.543673 157.5 
z
M 101.554432 146.393442 
L 109.726299 146.393442 
L 105.64676 134.380754 
z
" style="fill:#008000;"/>
   </g>
   <g id="patch_3">
    <path clip-path="url(#p6378157101)" d="M 121.274336 123.201384 
Q 118.120268 125.250692 114.727893 126.280025 
Q 111.335518 127.3 107.718853 127.3 
Q 99.546312 127.3 94.773156 121.198864 
Q 90 115.097728 90 104.664036 
Q 90 94.108697 94.857265 88.054348 
Q 99.721538 82 108.18145 82 
Q 111.440653 82 114.426504 82.823466 
Q 117.419364 83.637575 120.068781 85.247077 
L 120.068781 94.277133 
Q 117.335256 92.20911 114.629766 91.189134 
Q 111.924277 90.159802 109.204769 90.159802 
Q 104.172279 90.159802 101.445762 93.921545 
Q 98.719246 97.673931 98.719246 104.664036 
Q 98.719246 111.588639 101.347636 115.369097 
Q 103.976026 119.140198 108.812263 119.140198 
Q 110.129963 119.140198 111.258418 118.924974 
Q 112.386874 118.700392 113.284031 118.232514 
L 113.284031 109.754555 
L 108.132386 109.754555 
L 108.132386 102.202995 
L 121.274336 102.202995 
z
" style="fill:#ffa600;"/>
   </g>
   <g id="patch_4">
    <path clip-path="url(#p6378157101)" d="M 90 21.6 
L 121.274336 21.6 
L 121.274336 33.379683 
L 110.022848 33.379683 
L 110.022848 82 
L 101.273307 82 
L 101.273307 33.379683 
L 90 33.379683 
z
" style="fill:#ff0000;"/>
   </g>
   <g id="patch_5">
    <path clip-path="url(#p6378157101)" d="M 144.584114 154.74925 
L 132.556507 154.74925 
L 130.657411 157.5 
L 122.920354 157.5 
L 133.969639 142.4 
L 143.145405 142.4 
L 154.19469 157.5 
L 146.464027 157.5 
z
M 134.474786 151.946721 
L 142.646653 151.946721 
L 138.567114 145.940377 
z
" style="fill:#008000;"/>
   </g>
   <g id="patch_6">
    <path clip-path="url(#p6378157101)" d="M 122.920354 97.1 
L 154.19469 97.1 
L 154.19469 105.934762 
L 142.943202 105.934762 
L 142.943202 142.4 
L 134.193661 142.4 
L 134.193661 105.934762 
L 122.920354 105.934762 
z
" style="fill:#ff0000;"/>
   </g>
   <g id="patch_7">
    <path clip-path="url(#p6378157101)" d="M 154.19469 90.268973 
Q 151.040622 93.684487 147.648247 95.400041 
Q 144.255872 97.1 140.639207 97.1 
Q 132.466666 97.1 127.69351 86.93144 
Q 122.920354 76.76288 122.920354 59.373394 
Q 122.920354 41.781161 127.777619 31.69058 
Q 132.641892 21.6 141.101804 21.6 
Q 144.361007 21.6 147.346858 22.972444 
Q 150.339718 24.329291 152.989135 27.011795 
L 152.989135 42.061888 
Q 150.25561 38.615183 147.55012 36.915224 
Q 144.844631 35.199669 142.125123 35.199669 
Q 137.092633 35.199669 134.366116 41.469242 
Q 131.6396 47.723218 131.6396 59.373394 
Q 131.6396 70.914398 134.26799 77.215162 
Q 136.89638 83.500331 141.732617 83.500331 
Q 143.050317 83.500331 144.178772 83.141624 
Q 145.307228 82.767321 146.204385 81.987523 
L 146.204385 67.857591 
L 141.05274 67.857591 
L 141.05274 55.271659 
L 154.19469 55.271659 
z
" style="fill:#ffa600;"/>
   </g>
   <g id="patch_8">
    <path clip-path="url(#p6378157101)" d="M 187.115044 156.417641 
Q 184.499 156.954142 181.670205 157.225511 
Q 178.84141 157.5 175.760467 157.5 
Q 166.572793 157.5 161.206751 155.466288 
Q 155.840708 153.432576 155.840708 149.954679 
Q 155.840708 146.464305 161.206751 144.433712 
Q 166.572793 142.4 175.760467 142.4 
Q 178.84141 142.4 181.670205 142.674489 
Q 184.499 142.945858 187.115044 143.482359 
L 187.115044 146.492378 
Q 184.475361 145.781202 181.914474 145.450568 
Q 179.353588 145.119934 176.524793 145.119934 
Q 171.450297 145.119934 168.542706 146.408159 
Q 165.642994 147.693266 165.642994 149.954679 
Q 165.642994 152.206734 168.542706 153.49496 
Q 171.450297 154.780066 176.524793 154.780066 
Q 179.353588 154.780066 181.914474 154.449432 
Q 184.475361 154.115679 187.115044 153.404503 
z
" style="fill:#0000ff;"/>
   </g>
   <g id="patch_9">
    <path clip-path="url(#p6378157101)" d="M 187.115044 141.033795 
Q 183.960976 141.716897 180.568601 142.060008 
Q 177.176226 142.4 173.559561 142.4 
Q 165.38702 142.4 160.613864 140.366288 
Q 155.840708 138.332576 155.840708 134.854679 
Q 155.840708 131.336232 160.697973 129.318116 
Q 165.562246 127.3 174.022158 127.3 
Q 177.281361 127.3 180.267212 127.574489 
Q 183.260072 127.845858 185.909489 128.382359 
L 185.909489 131.392378 
Q 183.175964 130.703037 180.470474 130.363045 
Q 177.764985 130.019934 175.045477 130.019934 
Q 170.012987 130.019934 167.28647 131.273848 
Q 164.559954 132.524644 164.559954 134.854679 
Q 164.559954 137.16288 167.188344 138.423032 
Q 169.816734 139.680066 174.652971 139.680066 
Q 175.970671 139.680066 177.099126 139.608325 
Q 178.227582 139.533464 179.124739 139.377505 
L 179.124739 136.551518 
L 173.973094 136.551518 
L 173.973094 134.034332 
L 187.115044 134.034332 
z
" style="fill:#ffa600;"/>
   </g>
   <g id="patch_10">
    <path clip-path="url(#p6378157101)" d="M 177.504468 108.044749 
L 165.476861 108.044749 
L 163.577765 127.3 
L 155.840708 127.3 
L 166.889993 21.6 
L 176.065759 21.6 
L 187.115044 127.3 
L 179.384381 127.3 
z
M 167.39514 88.427047 
L 175.567007 88.427047 
L 171.487467 46.38264 
z
" style="fill:#008000;"/>
   </g>
   <g id="patch_11">
    <path clip-path="url(#p6378157101)" d="M 220.035398 156.133795 
Q 216.88133 156.816897 213.488955 157.160008 
Q 210.09658 157.5 206.479915 157.5 
Q 198.307374 157.5 193.534218 155.466288 
Q 188.761062 153.432576 188.761062 149.954679 
Q 188.761062 146.436232 193.618327 144.418116 
Q 198.4826 142.4 206.942512 142.4 
Q 210.201715 142.4 213.187566 142.674489 
Q 216.180426 142.945858 218.829843 143.482359 
L 218.829843 146.492378 
Q 216.096318 145.803037 213.390828 145.463045 
Q 210.685339 145.119934 207.965831 145.119934 
Q 202.933341 145.119934 200.206824 146.373848 
Q 197.480308 147.624644 197.480308 149.954679 
Q 197.480308 152.26288 200.108698 153.523032 
Q 202.737088 154.780066 207.573325 154.780066 
Q 208.891025 154.780066 210.01948 154.708325 
Q 211.147936 154.633464 212.045093 154.477505 
L 212.045093 151.651518 
L 206.893448 151.651518 
L 206.893448 149.134332 
L 220.035398 149.134332 
z
" style="fill:#ffa600;"/>
   </g>
   <g id="patch_12">
    <path clip-path="url(#p6378157101)" d="M 210.424822 120.393999 
L 198.397215 120.393999 
L 196.498119 142.4 
L 188.761062 142.4 
L 199.810347 21.6 
L 208.986113 21.6 
L 220.035398 142.4 
L 212.304735 142.4 
z
M 200.315494 97.973768 
L 208.487361 97.973768 
L 204.407821 49.923018 
z
" style="fill:#008000;"/>
   </g>
   <g id="patch_13">
    <path clip-path="url(#p6378157101)" d="M 252.955752 154.767589 
Q 249.801684 156.133795 246.409309 156.820017 
Q 243.016934 157.5 239.400269 157.5 
Q 231.227728 157.5 226.454572 153.432576 
Q 221.681416 149.365152 221.681416 142.409358 
Q 221.681416 135.372464 226.538681 131.336232 
Q 231.402954 127.3 239.862866 127.3 
Q 243.122069 127.3 246.10792 127.848977 
Q 249.10078 128.391717 251.750197 129.464718 
L 251.750197 135.484755 
Q 249.016672 134.106073 246.311182 133.42609 
Q 243.605693 132.739868 240.886185 132.739868 
Q 235.853695 132.739868 233.127178 135.247697 
Q 230.400662 137.749287 230.400662 142.409358 
Q 230.400662 147.025759 233.029052 149.546065 
Q 235.657442 152.060132 240.493679 152.060132 
Q 241.811379 152.060132 242.939834 151.916649 
Q 244.06829 151.766928 244.965447 151.455009 
L 244.965447 145.803037 
L 239.813802 145.803037 
L 239.813802 140.768663 
L 252.955752 140.768663 
z
" style="fill:#ffa600;"/>
   </g>
   <g id="patch_14">
    <path clip-path="url(#p6378157101)" d="M 243.345176 108.044749 
L 231.317569 108.044749 
L 229.418473 127.3 
L 221.681416 127.3 
L 232.730701 21.6 
L 241.906467 21.6 
L 252.955752 127.3 
L 245.225089 127.3 
z
M 233.235848 88.427047 
L 241.407715 88.427047 
L 237.328175 46.38264 
z
" style="fill:#008000;"/>
   </g>
   <g id="patch_15">
    <path clip-path="url(#p6378157101)" d="M 276.26553 146.497 
L 264.237923 146.497 
L 262.338827 157.5 
L 254.60177 157.5 
L 265.651055 97.1 
L 274.826821 97.1 
L 285.876106 157.5 
L 278.145443 157.5 
z
M 266.156202 135.286884 
L 274.328069 135.286884 
L 270.248529 111.261509 
z
" style="fill:#008000;"/>
   </g>
   <g id="patch_16">
    <path clip-path="url(#p6378157101)" d="M 254.60177 21.6 
L 285.876106 21.6 
L 285.876106 36.324604 
L 274.624618 36.324604 
L 274.624618 97.1 
L 265.875077 97.1 
L 265.875077 36.324604 
L 254.60177 36.324604 
z
" style="fill:#ff0000;"/>
   </g>
   <g id="patch_17">
    <path clip-path="url(#p6378157101)" d="M 309.185884 154.74925 
L 297.158277 154.74925 
L 295.259181 157.5 
L 287.522124 157.5 
L 298.571409 142.4 
L 307.747175 142.4 
L 318.79646 157.5 
L 311.065797 157.5 
z
M 299.076556 151.946721 
L 307.248423 151.946721 
L 303.168883 145.940377 
z
" style="fill:#008000;"/>
   </g>
   <g id="patch_18">
    <path clip-path="url(#p6378157101)" d="M 318.79646 138.070564 
Q 316.180416 140.216567 313.351621 141.302045 
Q 310.522826 142.4 307.441883 142.4 
Q 298.254209 142.4 292.888166 134.265152 
Q 287.522124 126.130304 287.522124 112.218715 
Q 287.522124 98.25722 292.888166 90.134848 
Q 298.254209 82 307.441883 82 
Q 310.522826 82 313.351621 83.097955 
Q 316.180416 84.183433 318.79646 86.329436 
L 318.79646 98.36951 
Q 316.156777 95.524809 313.59589 94.202272 
Q 311.035004 92.879736 308.206209 92.879736 
Q 303.131713 92.879736 300.224122 98.032638 
Q 297.32441 103.173063 297.32441 112.218715 
Q 297.32441 121.226937 300.224122 126.379839 
Q 303.131713 131.520264 308.206209 131.520264 
Q 311.035004 131.520264 313.59589 130.197728 
Q 316.156777 128.862714 318.79646 126.018013 
z
" style="fill:#0000ff;"/>
   </g>
   <g id="patch_19">
    <path clip-path="url(#p6378157101)" d="M 318.79646 76.535179 
Q 315.642392 79.267589 312.250017 80.640033 
Q 308.857642 82 305.240977 82 
Q 297.068436 82 292.29528 73.865152 
Q 287.522124 65.730304 287.522124 51.818715 
Q 287.522124 37.744929 292.379389 29.672464 
Q 297.243662 21.6 305.703574 21.6 
Q 308.962777 21.6 311.948628 22.697955 
Q 314.941488 23.783433 317.590905 25.929436 
L 317.590905 37.96951 
Q 314.85738 35.212146 312.15189 33.852179 
Q 309.446401 32.479736 306.726893 32.479736 
Q 301.694403 32.479736 298.967886 37.495394 
Q 296.24137 42.498575 296.24137 51.818715 
Q 296.24137 61.051518 298.86976 66.09213 
Q 301.49815 71.120264 306.334387 71.120264 
Q 307.652087 71.120264 308.780542 70.833299 
Q 309.908998 70.533857 310.806155 69.910019 
L 310.806155 58.606073 
L 305.65451 58.606073 
L 305.65451 48.537327 
L 318.79646 48.537327 
z
" style="fill:#ffa600;"/>
   </g>
   <g id="patch_20">
    <path clip-path="url(#p6378157101)" d="M 342.106238 132.743249 
L 330.078631 132.743249 
L 328.179535 157.5 
L 320.442478 157.5 
L 331.491763 21.6 
L 340.667529 21.6 
L 351.716814 157.5 
L 343.986151 157.5 
z
M 331.99691 107.520489 
L 340.168777 107.520489 
L 336.089237 53.463395 
z
" style="fill:#008000;"/>
   </g>
   <g id="patch_21">
    <path clip-path="url(#p6378157101)" d="M 353.362832 21.6 
L 384.637168 21.6 
L 384.637168 48.104286 
L 373.38568 48.104286 
L 373.38568 157.5 
L 364.636139 157.5 
L 364.636139 48.104286 
L 353.362832 48.104286 
z
" style="fill:#ff0000;"/>
   </g>
   <g id="patch_22">
    <path clip-path="url(#p6378157101)" d="M 417.557522 145.204152 
Q 414.403454 151.352076 411.011079 154.440074 
Q 407.618703 157.5 404.002039 157.5 
Q 395.829498 157.5 391.056342 139.196592 
Q 386.283186 120.893183 386.283186 89.592109 
Q 386.283186 57.92609 391.140451 39.763045 
Q 396.004724 21.6 404.464635 21.6 
Q 407.723839 21.6 410.70969 24.070399 
Q 413.70255 26.512725 416.351967 31.341231 
L 416.351967 58.431398 
Q 413.618442 52.227329 410.912952 49.167403 
Q 408.207463 46.079405 405.487955 46.079405 
Q 400.455465 46.079405 397.728948 57.364635 
Q 395.002432 68.621793 395.002432 89.592109 
Q 395.002432 110.365916 397.630822 121.707292 
Q 400.259212 133.020595 405.095449 133.020595 
Q 406.413149 133.020595 407.541604 132.374923 
Q 408.670059 131.701177 409.567217 130.297542 
L 409.567217 104.863665 
L 404.415572 104.863665 
L 404.415572 82.208986 
L 417.557522 82.208986 
z
" style="fill:#ffa600;"/>
   </g>
   <g id="patch_23">
    <path clip-path="url(#p6378157101)" d="M 450.477876 145.204152 
Q 447.323808 151.352076 443.931433 154.440074 
Q 440.539057 157.5 436.922393 157.5 
Q 428.749852 157.5 423.976696 139.196592 
Q 419.20354 120.893183 419.20354 89.592109 
Q 419.20354 57.92609 424.060805 39.763045 
Q 428.925078 21.6 437.384989 21.6 
Q 440.644193 21.6 443.630044 24.070399 
Q 446.622904 26.512725 449.272321 31.341231 
L 449.272321 58.431398 
Q 446.538796 52.227329 443.833306 49.167403 
Q 441.127817 46.079405 438.408309 46.079405 
Q 433.375819 46.079405 430.649302 57.364635 
Q 427.922786 68.621793 427.922786 89.592109 
Q 427.922786 110.365916 430.551176 121.707292 
Q 433.179565 133.020595 438.015803 133.020595 
Q 439.333503 133.020595 440.461958 132.374923 
Q 441.590413 131.701177 442.487571 130.297542 
L 442.487571 104.863665 
L 437.335926 104.863665 
L 437.335926 82.208986 
L 450.477876 82.208986 
z
" style="fill:#ffa600;"/>
   </g>
   <g id="patch_24">
    <path clip-path="url(#p6378157101)" d="M 483.39823 147.758769 
Q 480.782186 152.587275 477.953391 155.029601 
Q 475.124596 157.5 472.043652 157.5 
Q 462.855979 157.5 457.489936 139.196592 
Q 452.123894 120.893183 452.123894 89.592109 
Q 452.123894 58.178744 457.489936 39.903408 
Q 462.855979 21.6 472.043652 21.6 
Q 475.124596 21.6 477.953391 24.070399 
Q 480.782186 26.512725 483.39823 31.341231 
L 483.39823 58.431398 
Q 480.758547 52.03082 478.19766 49.055113 
Q 475.636773 46.079405 472.807979 46.079405 
Q 467.733483 46.079405 464.825892 57.673435 
Q 461.92618 69.239393 461.92618 89.592109 
Q 461.92618 109.860607 464.825892 121.454637 
Q 467.733483 133.020595 472.807979 133.020595 
Q 475.636773 133.020595 478.19766 130.044887 
Q 480.758547 127.041107 483.39823 120.640529 
z
" style="fill:#0000ff;"/>
   </g>
   <g id="patch_25">
    <path clip-path="url(#p6378157101)" d="M 485.044248 127.3 
L 516.318584 127.3 
L 516.318584 133.189841 
L 505.067096 133.189841 
L 505.067096 157.5 
L 496.317555 157.5 
L 496.317555 133.189841 
L 485.044248 133.189841 
z
" style="fill:#ff0000;"/>
   </g>
   <g id="patch_26">
    <path clip-path="url(#p6378157101)" d="M 516.318584 117.736563 
Q 513.164516 122.518281 509.772141 124.920058 
Q 506.379765 127.3 502.763101 127.3 
Q 494.59056 127.3 489.817404 113.064016 
Q 485.044248 98.828031 485.044248 74.482751 
Q 485.044248 49.853625 489.901512 35.726813 
Q 494.765786 21.6 503.225697 21.6 
Q 506.484901 21.6 509.470752 23.521421 
Q 512.463612 25.421008 515.113029 29.176513 
L 515.113029 50.246643 
Q 512.379504 45.421256 509.674014 43.041314 
Q 506.968525 40.639537 504.249017 40.639537 
Q 499.216527 40.639537 496.49001 49.416939 
Q 493.763493 58.172506 493.763493 74.482751 
Q 493.763493 90.640157 496.391883 99.461227 
Q 499.020273 108.260463 503.856511 108.260463 
Q 505.174211 108.260463 506.302666 107.758273 
Q 507.431121 107.234249 508.328279 106.142533 
L 508.328279 86.360628 
L 503.176634 86.360628 
L 503.176634 68.740322 
L 516.318584 68.740322 
z
" style="fill:#ffa600;"/>
   </g>
   <g id="patch_27">
    <path clip-path="url(#p6378157101)" d="M 549.238938 156.133795 
Q 546.08487 156.816897 542.692495 157.160008 
Q 539.300119 157.5 535.683455 157.5 
Q 527.510914 157.5 522.737758 155.466288 
Q 517.964602 153.432576 517.964602 149.954679 
Q 517.964602 146.436232 522.821866 144.418116 
Q 527.68614 142.4 536.146051 142.4 
Q 539.405255 142.4 542.391106 142.674489 
Q 545.383966 142.945858 548.033383 143.482359 
L 548.033383 146.492378 
Q 545.299858 145.803037 542.594368 145.463045 
Q 539.888879 145.119934 537.169371 145.119934 
Q 532.136881 145.119934 529.410364 146.373848 
Q 526.683847 147.624644 526.683847 149.954679 
Q 526.683847 152.26288 529.312237 153.523032 
Q 531.940627 154.780066 536.776865 154.780066 
Q 538.094565 154.780066 539.22302 154.708325 
Q 540.351475 154.633464 541.248633 154.477505 
L 541.248633 151.651518 
L 536.096988 151.651518 
L 536.096988 149.134332 
L 549.238938 149.134332 
z
" style="fill:#ffa600;"/>
   </g>
   <g id="patch_28">
    <path clip-path="url(#p6378157101)" d="M 549.238938 140.235282 
Q 546.622894 141.308283 543.794099 141.851023 
Q 540.965304 142.4 537.88436 142.4 
Q 528.696687 142.4 523.330644 138.332576 
Q 517.964602 134.265152 517.964602 127.309358 
Q 517.964602 120.32861 523.330644 116.267424 
Q 528.696687 112.2 537.88436 112.2 
Q 540.965304 112.2 543.794099 112.748977 
Q 546.622894 113.291717 549.238938 114.364718 
L 549.238938 120.384755 
Q 546.599255 118.962404 544.038368 118.301136 
Q 541.477481 117.639868 538.648687 117.639868 
Q 533.574191 117.639868 530.6666 120.216319 
Q 527.766888 122.786532 527.766888 127.309358 
Q 527.766888 131.813468 530.6666 134.389919 
Q 533.574191 136.960132 538.648687 136.960132 
Q 541.477481 136.960132 544.038368 136.298864 
Q 546.599255 135.631357 549.238938 134.209006 
z
" style="fill:#0000ff;"/>
   </g>
   <g id="patch_29">
    <path clip-path="url(#p6378157101)" d="M 517.964602 21.6 
L 549.238938 21.6 
L 549.238938 39.269524 
L 537.98745 39.269524 
L 537.98745 112.2 
L 529.237909 112.2 
L 529.237909 39.269524 
L 517.964602 39.269524 
z
" style="fill:#ff0000;"/>
   </g>
   <g id="patch_30">
    <path clip-path="url(#p6378157101)" d="M 572.548716 154.74925 
L 560.521109 154.74925 
L 558.622013 157.5 
L 550.884956 157.5 
L 561.934241 142.4 
L 571.110007 142.4 
L 582.159292 157.5 
L 574.428629 157.5 
z
M 562.439387 151.946721 
L 570.611255 151.946721 
L 566.531715 145.940377 
z
" style="fill:#008000;"/>
   </g>
   <g id="patch_31">
    <path clip-path="url(#p6378157101)" d="M 550.884956 127.3 
L 582.159292 127.3 
L 582.159292 130.244921 
L 570.907804 130.244921 
L 570.907804 142.4 
L 562.158263 142.4 
L 562.158263 130.244921 
L 550.884956 130.244921 
z
" style="fill:#ff0000;"/>
   </g>
   <g id="patch_32">
    <path clip-path="url(#p6378157101)" d="M 582.159292 124.567589 
Q 579.005224 125.933795 575.612849 126.620017 
Q 572.220473 127.3 568.603809 127.3 
Q 560.431268 127.3 555.658112 123.232576 
Q 550.884956 119.165152 550.884956 112.209358 
Q 550.884956 105.172464 555.74222 101.136232 
Q 560.606494 97.1 569.066405 97.1 
Q 572.325609 97.1 575.31146 97.648977 
Q 578.30432 98.191717 580.953737 99.264718 
L 580.953737 105.284755 
Q 578.220212 103.906073 575.514722 103.22609 
Q 572.809233 102.539868 570.089725 102.539868 
Q 565.057235 102.539868 562.330718 105.047697 
Q 559.604201 107.549287 559.604201 112.209358 
Q 559.604201 116.825759 562.232591 119.346065 
Q 564.860981 121.860132 569.697219 121.860132 
Q 571.014919 121.860132 572.143374 121.716649 
Q 573.271829 121.566928 574.168986 121.255009 
L 574.168986 115.603037 
L 569.017342 115.603037 
L 569.017342 110.568663 
L 582.159292 110.568663 
z
" style="fill:#ffa600;"/>
   </g>
   <g id="patch_33">
    <path clip-path="url(#p6378157101)" d="M 582.159292 91.688205 
Q 579.543248 94.370709 576.714453 95.727556 
Q 573.885658 97.1 570.804714 97.1 
Q 561.617041 97.1 556.250998 86.93144 
Q 550.884956 76.76288 550.884956 59.373394 
Q 550.884956 41.921524 556.250998 31.76856 
Q 561.617041 21.6 570.804714 21.6 
Q 573.885658 21.6 576.714453 22.972444 
Q 579.543248 24.329291 582.159292 27.011795 
L 582.159292 42.061888 
Q 579.519609 38.506011 576.958722 36.85284 
Q 574.397835 35.199669 571.569041 35.199669 
Q 566.494545 35.199669 563.586954 41.640797 
Q 560.687242 48.066329 560.687242 59.373394 
Q 560.687242 70.633671 563.586954 77.074799 
Q 566.494545 83.500331 571.569041 83.500331 
Q 574.397835 83.500331 576.958722 81.84716 
Q 579.519609 80.178393 582.159292 76.622516 
z
" style="fill:#0000ff;"/>
   </g>
   <g id="patch_34">
    <path clip-path="url(#p6378157101)" d="M 583.80531 142.4 
L 615.079646 142.4 
L 615.079646 145.344921 
L 603.828158 145.344921 
L 603.828158 157.5 
L 595.078617 157.5 
L 595.078617 145.344921 
L 583.80531 145.344921 
z
" style="fill:#ff0000;"/>
   </g>
   <g id="patch_35">
    <path clip-path="url(#p6378157101)" d="M 615.079646 140.235282 
Q 612.463602 141.308283 609.634807 141.851023 
Q 606.806012 142.4 603.725068 142.4 
Q 594.537395 142.4 589.171352 138.332576 
Q 583.80531 134.265152 583.80531 127.309358 
Q 583.80531 120.32861 589.171352 116.267424 
Q 594.537395 112.2 603.725068 112.2 
Q 606.806012 112.2 609.634807 112.748977 
Q 612.463602 113.291717 615.079646 114.364718 
L 615.079646 120.384755 
Q 612.439963 118.962404 609.879076 118.301136 
Q 607.318189 117.639868 604.489395 117.639868 
Q 599.414899 117.639868 596.507308 120.216319 
Q 593.607596 122.786532 593.607596 127.309358 
Q 593.607596 131.813468 596.507308 134.389919 
Q 599.414899 136.960132 604.489395 136.960132 
Q 607.318189 136.960132 609.879076 136.298864 
Q 612.439963 135.631357 615.079646 134.209006 
z
" style="fill:#0000ff;"/>
   </g>
   <g id="patch_36">
    <path clip-path="url(#p6378157101)" d="M 605.46907 103.94775 
L 593.441463 103.94775 
L 591.542367 112.2 
L 583.80531 112.2 
L 594.854595 66.9 
L 604.030361 66.9 
L 615.079646 112.2 
L 607.348983 112.2 
z
M 595.359741 95.540163 
L 603.531609 95.540163 
L 599.452069 77.521132 
z
" style="fill:#008000;"/>
   </g>
   <g id="patch_37">
    <path clip-path="url(#p6378157101)" d="M 615.079646 62.801384 
Q 611.925578 64.850692 608.533203 65.880025 
Q 605.140827 66.9 601.524163 66.9 
Q 593.351622 66.9 588.578466 60.798864 
Q 583.80531 54.697728 583.80531 44.264036 
Q 583.80531 33.708697 588.662574 27.654348 
Q 593.526848 21.6 601.986759 21.6 
Q 605.245963 21.6 608.231814 22.423466 
Q 611.224674 23.237575 613.874091 24.847077 
L 613.874091 33.877133 
Q 611.140566 31.80911 608.435076 30.789134 
Q 605.729587 29.759802 603.010079 29.759802 
Q 597.977589 29.759802 595.251072 33.521545 
Q 592.524555 37.273931 592.524555 44.264036 
Q 592.524555 51.188639 595.152945 54.969097 
Q 597.781335 58.740198 602.617573 58.740198 
Q 603.935272 58.740198 605.063728 58.524974 
Q 606.192183 58.300392 607.08934 57.832514 
L 607.08934 49.354555 
L 601.937696 49.354555 
L 601.937696 41.802995 
L 615.079646 41.802995 
z
" style="fill:#ffa600;"/>
   </g>
   <g id="patch_38">
    <path clip-path="url(#p6378157101)" d="M 648 156.133795 
Q 644.845932 156.816897 641.453557 157.160008 
Q 638.061181 157.5 634.444517 157.5 
Q 626.271976 157.5 621.49882 155.466288 
Q 616.725664 153.432576 616.725664 149.954679 
Q 616.725664 146.436232 621.582928 144.418116 
Q 626.447202 142.4 634.907113 142.4 
Q 638.166317 142.4 641.152168 142.674489 
Q 644.145028 142.945858 646.794445 143.482359 
L 646.794445 146.492378 
Q 644.06092 145.803037 641.35543 145.463045 
Q 638.649941 145.119934 635.930433 145.119934 
Q 630.897943 145.119934 628.171426 146.373848 
Q 625.444909 147.624644 625.444909 149.954679 
Q 625.444909 152.26288 628.073299 153.523032 
Q 630.701689 154.780066 635.537927 154.780066 
Q 636.855626 154.780066 637.984082 154.708325 
Q 639.112537 154.633464 640.009694 154.477505 
L 640.009694 151.651518 
L 634.85805 151.651518 
L 634.85805 149.134332 
L 648 149.134332 
z
" style="fill:#ffa600;"/>
   </g>
   <g id="patch_39">
    <path clip-path="url(#p6378157101)" d="M 616.725664 127.3 
L 648 127.3 
L 648 130.244921 
L 636.748512 130.244921 
L 636.748512 142.4 
L 627.998971 142.4 
L 627.998971 130.244921 
L 616.725664 130.244921 
z
" style="fill:#ff0000;"/>
   </g>
   <g id="patch_40">
    <path clip-path="url(#p6378157101)" d="M 648 124.052923 
Q 645.383956 125.662425 642.555161 126.476534 
Q 639.726366 127.3 636.645422 127.3 
Q 627.457749 127.3 622.091706 121.198864 
Q 616.725664 115.097728 616.725664 104.664036 
Q 616.725664 94.192915 622.091706 88.101136 
Q 627.457749 82 636.645422 82 
Q 639.726366 82 642.555161 82.823466 
Q 645.383956 83.637575 648 85.247077 
L 648 94.277133 
Q 645.360317 92.143607 642.79943 91.151704 
Q 640.238543 90.159802 637.409749 90.159802 
Q 632.335253 90.159802 629.427662 94.024478 
Q 626.52795 97.879798 626.52795 104.664036 
Q 626.52795 111.420202 629.427662 115.284879 
Q 632.335253 119.140198 637.409749 119.140198 
Q 640.238543 119.140198 642.79943 118.148296 
Q 645.360317 117.147036 648 115.01351 
z
" style="fill:#0000ff;"/>
   </g>
   <g id="patch_41">
    <path clip-path="url(#p6378157101)" d="M 638.389424 70.997 
L 626.361817 70.997 
L 624.462721 82 
L 616.725664 82 
L 627.774949 21.6 
L 636.950715 21.6 
L 648 82 
L 640.269337 82 
z
M 628.280095 59.786884 
L 636.451963 59.786884 
L 632.372423 35.761509 
z
" style="fill:#008000;"/>
   </g>
  </g>
 </g>
 <defs>
  <clipPath id="p6378157101">
   <rect height="135.9" width="558" x="90" y="21.6"/>
  </clipPath>
 </defs>
</svg>
