<?xml version="1.0" encoding="utf-8" standalone="no"?>
<!DOCTYPE svg PUBLIC "-//W3C//DTD SVG 1.1//EN"
  "http://www.w3.org/Graphics/SVG/1.1/DTD/svg11.dtd">
<!-- Created with matplotlib (https://matplotlib.org/) -->
<svg height="180pt" version="1.1" viewBox="0 0 720 180" width="720pt" xmlns="http://www.w3.org/2000/svg" xmlns:xlink="http://www.w3.org/1999/xlink">
 <metadata>
  <rdf:RDF xmlns:cc="http://creativecommons.org/ns#" xmlns:dc="http://purl.org/dc/elements/1.1/" xmlns:rdf="http://www.w3.org/1999/02/22-rdf-syntax-ns#">
   <cc:Work>
    <dc:type rdf:resource="http://purl.org/dc/dcmitype/StillImage"/>
    <dc:date>2021-08-04T23:33:46.809571</dc:date>
    <dc:format>image/svg+xml</dc:format>
    <dc:creator>
     <cc:Agent>
      <dc:title>Matplotlib v3.3.2, https://matplotlib.org/</dc:title>
     </cc:Agent>
    </dc:creator>
   </cc:Work>
  </rdf:RDF>
 </metadata>
 <defs>
  <style type="text/css">*{stroke-linecap:butt;stroke-linejoin:round;}</style>
 </defs>
 <g id="figure_1">
  <g id="patch_1">
   <path d="M 0 180 
L 720 180 
L 720 0 
L 0 0 
z
" style="fill:none;"/>
  </g>
  <g id="axes_1">
   <g id="line2d_1">
    <path clip-path="url(#p9f2b7aafe9)" d="M 90 157.5 
L 648 157.5 
" style="fill:none;stroke:#000000;stroke-linecap:square;stroke-width:0.5;"/>
   </g>
   <g id="patch_2">
    <path clip-path="url(#p9f2b7aafe9)" d="M 90 142.4 
L 121.274336 142.4 
L 121.274336 145.344921 
L 110.022848 145.344921 
L 110.022848 157.5 
L 101.273307 157.5 
L 101.273307 145.344921 
L 90 145.344921 
z
" style="fill:#ff0000;"/>
   </g>
   <g id="patch_3">
    <path clip-path="url(#p9f2b7aafe9)" d="M 111.66376 131.397 
L 99.636153 131.397 
L 97.737057 142.4 
L 90 142.4 
L 101.049285 82 
L 110.225051 82 
L 121.274336 142.4 
L 113.543673 142.4 
z
M 101.554432 120.186884 
L 109.726299 120.186884 
L 105.64676 96.161509 
z
" style="fill:#008000;"/>
   </g>
   <g id="patch_4">
    <path clip-path="url(#p9f2b7aafe9)" d="M 121.274336 77.670564 
Q 118.658292 79.816567 115.829497 80.902045 
Q 113.000702 82 109.919759 82 
Q 100.732085 82 95.366043 73.865152 
Q 90 65.730304 90 51.818715 
Q 90 37.85722 95.366043 29.734848 
Q 100.732085 21.6 109.919759 21.6 
Q 113.000702 21.6 115.829497 22.697955 
Q 118.658292 23.783433 121.274336 25.929436 
L 121.274336 37.96951 
Q 118.634653 35.124809 116.073766 33.802272 
Q 113.51288 32.479736 110.684085 32.479736 
Q 105.609589 32.479736 102.701998 37.632638 
Q 99.802286 42.773063 99.802286 51.818715 
Q 99.802286 60.826937 102.701998 65.979839 
Q 105.609589 71.120264 110.684085 71.120264 
Q 113.51288 71.120264 116.073766 69.797728 
Q 118.634653 68.462714 121.274336 65.618013 
z
" style="fill:#0000ff;"/>
   </g>
   <g id="patch_5">
    <path clip-path="url(#p9f2b7aafe9)" d="M 144.584114 154.74925 
L 132.556507 154.74925 
L 130.657411 157.5 
L 122.920354 157.5 
L 133.969639 142.4 
L 143.145405 142.4 
L 154.19469 157.5 
L 146.464027 157.5 
z
M 134.474786 151.946721 
L 142.646653 151.946721 
L 138.567114 145.940377 
z
" style="fill:#008000;"/>
   </g>
   <g id="patch_6">
    <path clip-path="url(#p9f2b7aafe9)" d="M 154.19469 139.667589 
Q 151.040622 141.033795 147.648247 141.720017 
Q 144.255872 142.4 140.639207 142.4 
Q 132.466666 142.4 127.69351 138.332576 
Q 122.920354 134.265152 122.920354 127.309358 
Q 122.920354 120.272464 127.777619 116.236232 
Q 132.641892 112.2 141.101804 112.2 
Q 144.361007 112.2 147.346858 112.748977 
Q 150.339718 113.291717 152.989135 114.364718 
L 152.989135 120.384755 
Q 150.25561 119.006073 147.55012 118.32609 
Q 144.844631 117.639868 142.125123 117.639868 
Q 137.092633 117.639868 134.366116 120.147697 
Q 131.6396 122.649287 131.6396 127.309358 
Q 131.6396 131.925759 134.26799 134.446065 
Q 136.89638 136.960132 141.732617 136.960132 
Q 143.050317 136.960132 144.178772 136.816649 
Q 145.307228 136.666928 146.204385 136.355009 
L 146.204385 130.703037 
L 141.05274 130.703037 
L 141.05274 125.668663 
L 154.19469 125.668663 
z
" style="fill:#ffa600;"/>
   </g>
   <g id="patch_7">
    <path clip-path="url(#p9f2b7aafe9)" d="M 154.19469 108.952923 
Q 151.578646 110.562425 148.749851 111.376534 
Q 145.921056 112.2 142.840113 112.2 
Q 133.652439 112.2 128.286397 106.098864 
Q 122.920354 99.997728 122.920354 89.564036 
Q 122.920354 79.092915 128.286397 73.001136 
Q 133.652439 66.9 142.840113 66.9 
Q 145.921056 66.9 148.749851 67.723466 
Q 151.578646 68.537575 154.19469 70.147077 
L 154.19469 79.177133 
Q 151.555007 77.043607 148.99412 76.051704 
Q 146.433234 75.059802 143.604439 75.059802 
Q 138.529943 75.059802 135.622352 78.924478 
Q 132.72264 82.779798 132.72264 89.564036 
Q 132.72264 96.320202 135.622352 100.184879 
Q 138.529943 104.040198 143.604439 104.040198 
Q 146.433234 104.040198 148.99412 103.048296 
Q 151.555007 102.047036 154.19469 99.91351 
z
" style="fill:#0000ff;"/>
   </g>
   <g id="patch_8">
    <path clip-path="url(#p9f2b7aafe9)" d="M 122.920354 21.6 
L 154.19469 21.6 
L 154.19469 30.434762 
L 142.943202 30.434762 
L 142.943202 66.9 
L 134.193661 66.9 
L 134.193661 30.434762 
L 122.920354 30.434762 
z
" style="fill:#ff0000;"/>
   </g>
   <g id="patch_9">
    <path clip-path="url(#p9f2b7aafe9)" d="M 187.115044 154.767589 
Q 183.960976 156.133795 180.568601 156.820017 
Q 177.176226 157.5 173.559561 157.5 
Q 165.38702 157.5 160.613864 153.432576 
Q 155.840708 149.365152 155.840708 142.409358 
Q 155.840708 135.372464 160.697973 131.336232 
Q 165.562246 127.3 174.022158 127.3 
Q 177.281361 127.3 180.267212 127.848977 
Q 183.260072 128.391717 185.909489 129.464718 
L 185.909489 135.484755 
Q 183.175964 134.106073 180.470474 133.42609 
Q 177.764985 132.739868 175.045477 132.739868 
Q 170.012987 132.739868 167.28647 135.247697 
Q 164.559954 137.749287 164.559954 142.409358 
Q 164.559954 147.025759 167.188344 149.546065 
Q 169.816734 152.060132 174.652971 152.060132 
Q 175.970671 152.060132 177.099126 151.916649 
Q 178.227582 151.766928 179.124739 151.455009 
L 179.124739 145.803037 
L 173.973094 145.803037 
L 173.973094 140.768663 
L 187.115044 140.768663 
z
" style="fill:#ffa600;"/>
   </g>
   <g id="patch_10">
    <path clip-path="url(#p9f2b7aafe9)" d="M 187.115044 124.052923 
Q 184.499 125.662425 181.670205 126.476534 
Q 178.84141 127.3 175.760467 127.3 
Q 166.572793 127.3 161.206751 121.198864 
Q 155.840708 115.097728 155.840708 104.664036 
Q 155.840708 94.192915 161.206751 88.101136 
Q 166.572793 82 175.760467 82 
Q 178.84141 82 181.670205 82.823466 
Q 184.499 83.637575 187.115044 85.247077 
L 187.115044 94.277133 
Q 184.475361 92.143607 181.914474 91.151704 
Q 179.353588 90.159802 176.524793 90.159802 
Q 171.450297 90.159802 168.542706 94.024478 
Q 165.642994 97.879798 165.642994 104.664036 
Q 165.642994 111.420202 168.542706 115.284879 
Q 171.450297 119.140198 176.524793 119.140198 
Q 179.353588 119.140198 181.914474 118.148296 
Q 184.475361 117.147036 187.115044 115.01351 
z
" style="fill:#0000ff;"/>
   </g>
   <g id="patch_11">
    <path clip-path="url(#p9f2b7aafe9)" d="M 155.840708 21.6 
L 187.115044 21.6 
L 187.115044 33.379683 
L 175.863556 33.379683 
L 175.863556 82 
L 167.114015 82 
L 167.114015 33.379683 
L 155.840708 33.379683 
z
" style="fill:#ff0000;"/>
   </g>
   <g id="patch_12">
    <path clip-path="url(#p9f2b7aafe9)" d="M 188.761062 142.4 
L 220.035398 142.4 
L 220.035398 145.344921 
L 208.78391 145.344921 
L 208.78391 157.5 
L 200.034369 157.5 
L 200.034369 145.344921 
L 188.761062 145.344921 
z
" style="fill:#ff0000;"/>
   </g>
   <g id="patch_13">
    <path clip-path="url(#p9f2b7aafe9)" d="M 210.424822 131.397 
L 198.397215 131.397 
L 196.498119 142.4 
L 188.761062 142.4 
L 199.810347 82 
L 208.986113 82 
L 220.035398 142.4 
L 212.304735 142.4 
z
M 200.315494 120.186884 
L 208.487361 120.186884 
L 204.407821 96.161509 
z
" style="fill:#008000;"/>
   </g>
   <g id="patch_14">
    <path clip-path="url(#p9f2b7aafe9)" d="M 220.035398 76.535179 
Q 216.88133 79.267589 213.488955 80.640033 
Q 210.09658 82 206.479915 82 
Q 198.307374 82 193.534218 73.865152 
Q 188.761062 65.730304 188.761062 51.818715 
Q 188.761062 37.744929 193.618327 29.672464 
Q 198.4826 21.6 206.942512 21.6 
Q 210.201715 21.6 213.187566 22.697955 
Q 216.180426 23.783433 218.829843 25.929436 
L 218.829843 37.96951 
Q 216.096318 35.212146 213.390828 33.852179 
Q 210.685339 32.479736 207.965831 32.479736 
Q 202.933341 32.479736 200.206824 37.495394 
Q 197.480308 42.498575 197.480308 51.818715 
Q 197.480308 61.051518 200.108698 66.09213 
Q 202.737088 71.120264 207.573325 71.120264 
Q 208.891025 71.120264 210.01948 70.833299 
Q 211.147936 70.533857 212.045093 69.910019 
L 212.045093 58.606073 
L 206.893448 58.606073 
L 206.893448 48.537327 
L 220.035398 48.537327 
z
" style="fill:#ffa600;"/>
   </g>
   <g id="patch_15">
    <path clip-path="url(#p9f2b7aafe9)" d="M 252.955752 156.417641 
Q 250.339708 156.954142 247.510913 157.225511 
Q 244.682118 157.5 241.601175 157.5 
Q 232.413501 157.5 227.047459 155.466288 
Q 221.681416 153.432576 221.681416 149.954679 
Q 221.681416 146.464305 227.047459 144.433712 
Q 232.413501 142.4 241.601175 142.4 
Q 244.682118 142.4 247.510913 142.674489 
Q 250.339708 142.945858 252.955752 143.482359 
L 252.955752 146.492378 
Q 250.316069 145.781202 247.755182 145.450568 
Q 245.194296 145.119934 242.365501 145.119934 
Q 237.291005 145.119934 234.383414 146.408159 
Q 231.483702 147.693266 231.483702 149.954679 
Q 231.483702 152.206734 234.383414 153.49496 
Q 237.291005 154.780066 242.365501 154.780066 
Q 245.194296 154.780066 247.755182 154.449432 
Q 250.316069 154.115679 252.955752 153.404503 
z
" style="fill:#0000ff;"/>
   </g>
   <g id="patch_16">
    <path clip-path="url(#p9f2b7aafe9)" d="M 252.955752 138.301384 
Q 249.801684 140.350692 246.409309 141.380025 
Q 243.016934 142.4 239.400269 142.4 
Q 231.227728 142.4 226.454572 136.298864 
Q 221.681416 130.197728 221.681416 119.764036 
Q 221.681416 109.208697 226.538681 103.154348 
Q 231.402954 97.1 239.862866 97.1 
Q 243.122069 97.1 246.10792 97.923466 
Q 249.10078 98.737575 251.750197 100.347077 
L 251.750197 109.377133 
Q 249.016672 107.30911 246.311182 106.289134 
Q 243.605693 105.259802 240.886185 105.259802 
Q 235.853695 105.259802 233.127178 109.021545 
Q 230.400662 112.773931 230.400662 119.764036 
Q 230.400662 126.688639 233.029052 130.469097 
Q 235.657442 134.240198 240.493679 134.240198 
Q 241.811379 134.240198 242.939834 134.024974 
Q 244.06829 133.800392 244.965447 133.332514 
L 244.965447 124.854555 
L 239.813802 124.854555 
L 239.813802 117.302995 
L 252.955752 117.302995 
z
" style="fill:#ffa600;"/>
   </g>
   <g id="patch_17">
    <path clip-path="url(#p9f2b7aafe9)" d="M 243.345176 83.346249 
L 231.317569 83.346249 
L 229.418473 97.1 
L 221.681416 97.1 
L 232.730701 21.6 
L 241.906467 21.6 
L 252.955752 97.1 
L 245.225089 97.1 
z
M 233.235848 69.333605 
L 241.407715 69.333605 
L 237.328175 39.301886 
z
" style="fill:#008000;"/>
   </g>
   <g id="patch_18">
    <path clip-path="url(#p9f2b7aafe9)" d="M 254.60177 21.6 
L 285.876106 21.6 
L 285.876106 48.104286 
L 274.624618 48.104286 
L 274.624618 157.5 
L 265.875077 157.5 
L 265.875077 48.104286 
L 254.60177 48.104286 
z
" style="fill:#ff0000;"/>
   </g>
   <g id="patch_19">
    <path clip-path="url(#p9f2b7aafe9)" d="M 318.79646 156.133795 
Q 315.642392 156.816897 312.250017 157.160008 
Q 308.857642 157.5 305.240977 157.5 
Q 297.068436 157.5 292.29528 155.466288 
Q 287.522124 153.432576 287.522124 149.954679 
Q 287.522124 146.436232 292.379389 144.418116 
Q 297.243662 142.4 305.703574 142.4 
Q 308.962777 142.4 311.948628 142.674489 
Q 314.941488 142.945858 317.590905 143.482359 
L 317.590905 146.492378 
Q 314.85738 145.803037 312.15189 145.463045 
Q 309.446401 145.119934 306.726893 145.119934 
Q 301.694403 145.119934 298.967886 146.373848 
Q 296.24137 147.624644 296.24137 149.954679 
Q 296.24137 152.26288 298.86976 153.523032 
Q 301.49815 154.780066 306.334387 154.780066 
Q 307.652087 154.780066 308.780542 154.708325 
Q 309.908998 154.633464 310.806155 154.477505 
L 310.806155 151.651518 
L 305.65451 151.651518 
L 305.65451 149.134332 
L 318.79646 149.134332 
z
" style="fill:#ffa600;"/>
   </g>
   <g id="patch_20">
    <path clip-path="url(#p9f2b7aafe9)" d="M 309.185884 120.393999 
L 297.158277 120.393999 
L 295.259181 142.4 
L 287.522124 142.4 
L 298.571409 21.6 
L 307.747175 21.6 
L 318.79646 142.4 
L 311.065797 142.4 
z
M 299.076556 97.973768 
L 307.248423 97.973768 
L 303.168883 49.923018 
z
" style="fill:#008000;"/>
   </g>
   <g id="patch_21">
    <path clip-path="url(#p9f2b7aafe9)" d="M 342.106238 146.497 
L 330.078631 146.497 
L 328.179535 157.5 
L 320.442478 157.5 
L 331.491763 97.1 
L 340.667529 97.1 
L 351.716814 157.5 
L 343.986151 157.5 
z
M 331.99691 135.286884 
L 340.168777 135.286884 
L 336.089237 111.261509 
z
" style="fill:#008000;"/>
   </g>
   <g id="patch_22">
    <path clip-path="url(#p9f2b7aafe9)" d="M 351.716814 90.268973 
Q 348.562746 93.684487 345.170371 95.400041 
Q 341.777996 97.1 338.161331 97.1 
Q 329.98879 97.1 325.215634 86.93144 
Q 320.442478 76.76288 320.442478 59.373394 
Q 320.442478 41.781161 325.299743 31.69058 
Q 330.164016 21.6 338.623928 21.6 
Q 341.883131 21.6 344.868982 22.972444 
Q 347.861842 24.329291 350.511259 27.011795 
L 350.511259 42.061888 
Q 347.777734 38.615183 345.072244 36.915224 
Q 342.366755 35.199669 339.647247 35.199669 
Q 334.614757 35.199669 331.88824 41.469242 
Q 329.161724 47.723218 329.161724 59.373394 
Q 329.161724 70.914398 331.790114 77.215162 
Q 334.418504 83.500331 339.254741 83.500331 
Q 340.572441 83.500331 341.700896 83.141624 
Q 342.829351 82.767321 343.726509 81.987523 
L 343.726509 67.857591 
L 338.574864 67.857591 
L 338.574864 55.271659 
L 351.716814 55.271659 
z
" style="fill:#ffa600;"/>
   </g>
   <g id="patch_23">
    <path clip-path="url(#p9f2b7aafe9)" d="M 353.362832 21.6 
L 384.637168 21.6 
L 384.637168 48.104286 
L 373.38568 48.104286 
L 373.38568 157.5 
L 364.636139 157.5 
L 364.636139 48.104286 
L 353.362832 48.104286 
z
" style="fill:#ff0000;"/>
   </g>
   <g id="patch_24">
    <path clip-path="url(#p9f2b7aafe9)" d="M 407.946946 132.743249 
L 395.919339 132.743249 
L 394.020243 157.5 
L 386.283186 157.5 
L 397.332471 21.6 
L 406.508237 21.6 
L 417.557522 157.5 
L 409.826859 157.5 
z
M 397.837618 107.520489 
L 406.009485 107.520489 
L 401.929945 53.463395 
z
" style="fill:#008000;"/>
   </g>
   <g id="patch_25">
    <path clip-path="url(#p9f2b7aafe9)" d="M 440.8673 146.497 
L 428.839693 146.497 
L 426.940597 157.5 
L 419.20354 157.5 
L 430.252825 97.1 
L 439.428591 97.1 
L 450.477876 157.5 
L 442.747213 157.5 
z
M 430.757972 135.286884 
L 438.929839 135.286884 
L 434.850299 111.261509 
z
" style="fill:#008000;"/>
   </g>
   <g id="patch_26">
    <path clip-path="url(#p9f2b7aafe9)" d="M 450.477876 90.268973 
Q 447.323808 93.684487 443.931433 95.400041 
Q 440.539057 97.1 436.922393 97.1 
Q 428.749852 97.1 423.976696 86.93144 
Q 419.20354 76.76288 419.20354 59.373394 
Q 419.20354 41.781161 424.060805 31.69058 
Q 428.925078 21.6 437.384989 21.6 
Q 440.644193 21.6 443.630044 22.972444 
Q 446.622904 24.329291 449.272321 27.011795 
L 449.272321 42.061888 
Q 446.538796 38.615183 443.833306 36.915224 
Q 441.127817 35.199669 438.408309 35.199669 
Q 433.375819 35.199669 430.649302 41.469242 
Q 427.922786 47.723218 427.922786 59.373394 
Q 427.922786 70.914398 430.551176 77.215162 
Q 433.179565 83.500331 438.015803 83.500331 
Q 439.333503 83.500331 440.461958 83.141624 
Q 441.590413 82.767321 442.487571 81.987523 
L 442.487571 67.857591 
L 437.335926 67.857591 
L 437.335926 55.271659 
L 450.477876 55.271659 
z
" style="fill:#ffa600;"/>
   </g>
   <g id="patch_27">
    <path clip-path="url(#p9f2b7aafe9)" d="M 452.123894 21.6 
L 483.39823 21.6 
L 483.39823 48.104286 
L 472.146742 48.104286 
L 472.146742 157.5 
L 463.397201 157.5 
L 463.397201 48.104286 
L 452.123894 48.104286 
z
" style="fill:#ff0000;"/>
   </g>
   <g id="patch_28">
    <path clip-path="url(#p9f2b7aafe9)" d="M 516.318584 153.401384 
Q 513.164516 155.450692 509.772141 156.480025 
Q 506.379765 157.5 502.763101 157.5 
Q 494.59056 157.5 489.817404 151.398864 
Q 485.044248 145.297728 485.044248 134.864036 
Q 485.044248 124.308697 489.901512 118.254348 
Q 494.765786 112.2 503.225697 112.2 
Q 506.484901 112.2 509.470752 113.023466 
Q 512.463612 113.837575 515.113029 115.447077 
L 515.113029 124.477133 
Q 512.379504 122.40911 509.674014 121.389134 
Q 506.968525 120.359802 504.249017 120.359802 
Q 499.216527 120.359802 496.49001 124.121545 
Q 493.763493 127.873931 493.763493 134.864036 
Q 493.763493 141.788639 496.391883 145.569097 
Q 499.020273 149.340198 503.856511 149.340198 
Q 505.174211 149.340198 506.302666 149.124974 
Q 507.431121 148.900392 508.328279 148.432514 
L 508.328279 139.954555 
L 503.176634 139.954555 
L 503.176634 132.402995 
L 516.318584 132.402995 
z
" style="fill:#ffa600;"/>
   </g>
   <g id="patch_29">
    <path clip-path="url(#p9f2b7aafe9)" d="M 506.708008 95.695499 
L 494.680401 95.695499 
L 492.781305 112.2 
L 485.044248 112.2 
L 496.093533 21.6 
L 505.269299 21.6 
L 516.318584 112.2 
L 508.587921 112.2 
z
M 496.59868 78.880326 
L 504.770547 78.880326 
L 500.691007 42.842263 
z
" style="fill:#008000;"/>
   </g>
   <g id="patch_30">
    <path clip-path="url(#p9f2b7aafe9)" d="M 549.238938 154.767589 
Q 546.08487 156.133795 542.692495 156.820017 
Q 539.300119 157.5 535.683455 157.5 
Q 527.510914 157.5 522.737758 153.432576 
Q 517.964602 149.365152 517.964602 142.409358 
Q 517.964602 135.372464 522.821866 131.336232 
Q 527.68614 127.3 536.146051 127.3 
Q 539.405255 127.3 542.391106 127.848977 
Q 545.383966 128.391717 548.033383 129.464718 
L 548.033383 135.484755 
Q 545.299858 134.106073 542.594368 133.42609 
Q 539.888879 132.739868 537.169371 132.739868 
Q 532.136881 132.739868 529.410364 135.247697 
Q 526.683847 137.749287 526.683847 142.409358 
Q 526.683847 147.025759 529.312237 149.546065 
Q 531.940627 152.060132 536.776865 152.060132 
Q 538.094565 152.060132 539.22302 151.916649 
Q 540.351475 151.766928 541.248633 151.455009 
L 541.248633 145.803037 
L 536.096988 145.803037 
L 536.096988 140.768663 
L 549.238938 140.768663 
z
" style="fill:#ffa600;"/>
   </g>
   <g id="patch_31">
    <path clip-path="url(#p9f2b7aafe9)" d="M 539.628362 108.044749 
L 527.600755 108.044749 
L 525.701659 127.3 
L 517.964602 127.3 
L 529.013887 21.6 
L 538.189653 21.6 
L 549.238938 127.3 
L 541.508275 127.3 
z
M 529.519034 88.427047 
L 537.690901 88.427047 
L 533.611361 46.38264 
z
" style="fill:#008000;"/>
   </g>
   <g id="patch_32">
    <path clip-path="url(#p9f2b7aafe9)" d="M 582.159292 156.417641 
Q 579.543248 156.954142 576.714453 157.225511 
Q 573.885658 157.5 570.804714 157.5 
Q 561.617041 157.5 556.250998 155.466288 
Q 550.884956 153.432576 550.884956 149.954679 
Q 550.884956 146.464305 556.250998 144.433712 
Q 561.617041 142.4 570.804714 142.4 
Q 573.885658 142.4 576.714453 142.674489 
Q 579.543248 142.945858 582.159292 143.482359 
L 582.159292 146.492378 
Q 579.519609 145.781202 576.958722 145.450568 
Q 574.397835 145.119934 571.569041 145.119934 
Q 566.494545 145.119934 563.586954 146.408159 
Q 560.687242 147.693266 560.687242 149.954679 
Q 560.687242 152.206734 563.586954 153.49496 
Q 566.494545 154.780066 571.569041 154.780066 
Q 574.397835 154.780066 576.958722 154.449432 
Q 579.519609 154.115679 582.159292 153.404503 
z
" style="fill:#0000ff;"/>
   </g>
   <g id="patch_33">
    <path clip-path="url(#p9f2b7aafe9)" d="M 572.548716 131.397 
L 560.521109 131.397 
L 558.622013 142.4 
L 550.884956 142.4 
L 561.934241 82 
L 571.110007 82 
L 582.159292 142.4 
L 574.428629 142.4 
z
M 562.439387 120.186884 
L 570.611255 120.186884 
L 566.531715 96.161509 
z
" style="fill:#008000;"/>
   </g>
   <g id="patch_34">
    <path clip-path="url(#p9f2b7aafe9)" d="M 582.159292 76.535179 
Q 579.005224 79.267589 575.612849 80.640033 
Q 572.220473 82 568.603809 82 
Q 560.431268 82 555.658112 73.865152 
Q 550.884956 65.730304 550.884956 51.818715 
Q 550.884956 37.744929 555.74222 29.672464 
Q 560.606494 21.6 569.066405 21.6 
Q 572.325609 21.6 575.31146 22.697955 
Q 578.30432 23.783433 580.953737 25.929436 
L 580.953737 37.96951 
Q 578.220212 35.212146 575.514722 33.852179 
Q 572.809233 32.479736 570.089725 32.479736 
Q 565.057235 32.479736 562.330718 37.495394 
Q 559.604201 42.498575 559.604201 51.818715 
Q 559.604201 61.051518 562.232591 66.09213 
Q 564.860981 71.120264 569.697219 71.120264 
Q 571.014919 71.120264 572.143374 70.833299 
Q 573.271829 70.533857 574.168986 69.910019 
L 574.168986 58.606073 
L 569.017342 58.606073 
L 569.017342 48.537327 
L 582.159292 48.537327 
z
" style="fill:#ffa600;"/>
   </g>
   <g id="patch_35">
    <path clip-path="url(#p9f2b7aafe9)" d="M 605.46907 154.74925 
L 593.441463 154.74925 
L 591.542367 157.5 
L 583.80531 157.5 
L 594.854595 142.4 
L 604.030361 142.4 
L 615.079646 157.5 
L 607.348983 157.5 
z
M 595.359741 151.946721 
L 603.531609 151.946721 
L 599.452069 145.940377 
z
" style="fill:#008000;"/>
   </g>
   <g id="patch_36">
    <path clip-path="url(#p9f2b7aafe9)" d="M 615.079646 138.070564 
Q 612.463602 140.216567 609.634807 141.302045 
Q 606.806012 142.4 603.725068 142.4 
Q 594.537395 142.4 589.171352 134.265152 
Q 583.80531 126.130304 583.80531 112.218715 
Q 583.80531 98.25722 589.171352 90.134848 
Q 594.537395 82 603.725068 82 
Q 606.806012 82 609.634807 83.097955 
Q 612.463602 84.183433 615.079646 86.329436 
L 615.079646 98.36951 
Q 612.439963 95.524809 609.879076 94.202272 
Q 607.318189 92.879736 604.489395 92.879736 
Q 599.414899 92.879736 596.507308 98.032638 
Q 593.607596 103.173063 593.607596 112.218715 
Q 593.607596 121.226937 596.507308 126.379839 
Q 599.414899 131.520264 604.489395 131.520264 
Q 607.318189 131.520264 609.879076 130.197728 
Q 612.439963 128.862714 615.079646 126.018013 
z
" style="fill:#0000ff;"/>
   </g>
   <g id="patch_37">
    <path clip-path="url(#p9f2b7aafe9)" d="M 583.80531 21.6 
L 615.079646 21.6 
L 615.079646 33.379683 
L 603.828158 33.379683 
L 603.828158 82 
L 595.078617 82 
L 595.078617 33.379683 
L 583.80531 33.379683 
z
" style="fill:#ff0000;"/>
   </g>
   <g id="patch_38">
    <path clip-path="url(#p9f2b7aafe9)" d="M 648 156.133795 
Q 644.845932 156.816897 641.453557 157.160008 
Q 638.061181 157.5 634.444517 157.5 
Q 626.271976 157.5 621.49882 155.466288 
Q 616.725664 153.432576 616.725664 149.954679 
Q 616.725664 146.436232 621.582928 144.418116 
Q 626.447202 142.4 634.907113 142.4 
Q 638.166317 142.4 641.152168 142.674489 
Q 644.145028 142.945858 646.794445 143.482359 
L 646.794445 146.492378 
Q 644.06092 145.803037 641.35543 145.463045 
Q 638.649941 145.119934 635.930433 145.119934 
Q 630.897943 145.119934 628.171426 146.373848 
Q 625.444909 147.624644 625.444909 149.954679 
Q 625.444909 152.26288 628.073299 153.523032 
Q 630.701689 154.780066 635.537927 154.780066 
Q 636.855626 154.780066 637.984082 154.708325 
Q 639.112537 154.633464 640.009694 154.477505 
L 640.009694 151.651518 
L 634.85805 151.651518 
L 634.85805 149.134332 
L 648 149.134332 
z
" style="fill:#ffa600;"/>
   </g>
   <g id="patch_39">
    <path clip-path="url(#p9f2b7aafe9)" d="M 616.725664 127.3 
L 648 127.3 
L 648 130.244921 
L 636.748512 130.244921 
L 636.748512 142.4 
L 627.998971 142.4 
L 627.998971 130.244921 
L 616.725664 130.244921 
z
" style="fill:#ff0000;"/>
   </g>
   <g id="patch_40">
    <path clip-path="url(#p9f2b7aafe9)" d="M 638.389424 119.04775 
L 626.361817 119.04775 
L 624.462721 127.3 
L 616.725664 127.3 
L 627.774949 82 
L 636.950715 82 
L 648 127.3 
L 640.269337 127.3 
z
M 628.280095 110.640163 
L 636.451963 110.640163 
L 632.372423 92.621132 
z
" style="fill:#008000;"/>
   </g>
   <g id="patch_41">
    <path clip-path="url(#p9f2b7aafe9)" d="M 648 77.670564 
Q 645.383956 79.816567 642.555161 80.902045 
Q 639.726366 82 636.645422 82 
Q 627.457749 82 622.091706 73.865152 
Q 616.725664 65.730304 616.725664 51.818715 
Q 616.725664 37.85722 622.091706 29.734848 
Q 627.457749 21.6 636.645422 21.6 
Q 639.726366 21.6 642.555161 22.697955 
Q 645.383956 23.783433 648 25.929436 
L 648 37.96951 
Q 645.360317 35.124809 642.79943 33.802272 
Q 640.238543 32.479736 637.409749 32.479736 
Q 632.335253 32.479736 629.427662 37.632638 
Q 626.52795 42.773063 626.52795 51.818715 
Q 626.52795 60.826937 629.427662 65.979839 
Q 632.335253 71.120264 637.409749 71.120264 
Q 640.238543 71.120264 642.79943 69.797728 
Q 645.360317 68.462714 648 65.618013 
z
" style="fill:#0000ff;"/>
   </g>
  </g>
 </g>
 <defs>
  <clipPath id="p9f2b7aafe9">
   <rect height="135.9" width="558" x="90" y="21.6"/>
  </clipPath>
 </defs>
</svg>
