<?xml version="1.0" encoding="utf-8" standalone="no"?>
<!DOCTYPE svg PUBLIC "-//W3C//DTD SVG 1.1//EN"
  "http://www.w3.org/Graphics/SVG/1.1/DTD/svg11.dtd">
<!-- Created with matplotlib (https://matplotlib.org/) -->
<svg height="180pt" version="1.1" viewBox="0 0 720 180" width="720pt" xmlns="http://www.w3.org/2000/svg" xmlns:xlink="http://www.w3.org/1999/xlink">
 <metadata>
  <rdf:RDF xmlns:cc="http://creativecommons.org/ns#" xmlns:dc="http://purl.org/dc/elements/1.1/" xmlns:rdf="http://www.w3.org/1999/02/22-rdf-syntax-ns#">
   <cc:Work>
    <dc:type rdf:resource="http://purl.org/dc/dcmitype/StillImage"/>
    <dc:date>2021-08-04T23:33:45.254823</dc:date>
    <dc:format>image/svg+xml</dc:format>
    <dc:creator>
     <cc:Agent>
      <dc:title>Matplotlib v3.3.2, https://matplotlib.org/</dc:title>
     </cc:Agent>
    </dc:creator>
   </cc:Work>
  </rdf:RDF>
 </metadata>
 <defs>
  <style type="text/css">*{stroke-linecap:butt;stroke-linejoin:round;}</style>
 </defs>
 <g id="figure_1">
  <g id="patch_1">
   <path d="M 0 180 
L 720 180 
L 720 0 
L 0 0 
z
" style="fill:none;"/>
  </g>
  <g id="axes_1">
   <g id="line2d_1">
    <path clip-path="url(#p9fd19e0807)" d="M 90 157.5 
L 648 157.5 
" style="fill:none;stroke:#000000;stroke-linecap:square;stroke-width:0.5;"/>
   </g>
   <g id="patch_2">
    <path clip-path="url(#p9fd19e0807)" d="M 90 142.4 
L 121.274336 142.4 
L 121.274336 145.344921 
L 110.022848 145.344921 
L 110.022848 157.5 
L 101.273307 157.5 
L 101.273307 145.344921 
L 90 145.344921 
z
" style="fill:#ff0000;"/>
   </g>
   <g id="patch_3">
    <path clip-path="url(#p9fd19e0807)" d="M 121.274336 139.667589 
Q 118.120268 141.033795 114.727893 141.720017 
Q 111.335518 142.4 107.718853 142.4 
Q 99.546312 142.4 94.773156 138.332576 
Q 90 134.265152 90 127.309358 
Q 90 120.272464 94.857265 116.236232 
Q 99.721538 112.2 108.18145 112.2 
Q 111.440653 112.2 114.426504 112.748977 
Q 117.419364 113.291717 120.068781 114.364718 
L 120.068781 120.384755 
Q 117.335256 119.006073 114.629766 118.32609 
Q 111.924277 117.639868 109.204769 117.639868 
Q 104.172279 117.639868 101.445762 120.147697 
Q 98.719246 122.649287 98.719246 127.309358 
Q 98.719246 131.925759 101.347636 134.446065 
Q 103.976026 136.960132 108.812263 136.960132 
Q 110.129963 136.960132 111.258418 136.816649 
Q 112.386874 136.666928 113.284031 136.355009 
L 113.284031 130.703037 
L 108.132386 130.703037 
L 108.132386 125.668663 
L 121.274336 125.668663 
z
" style="fill:#ffa600;"/>
   </g>
   <g id="patch_4">
    <path clip-path="url(#p9fd19e0807)" d="M 111.66376 103.94775 
L 99.636153 103.94775 
L 97.737057 112.2 
L 90 112.2 
L 101.049285 66.9 
L 110.225051 66.9 
L 121.274336 112.2 
L 113.543673 112.2 
z
M 101.554432 95.540163 
L 109.726299 95.540163 
L 105.64676 77.521132 
z
" style="fill:#008000;"/>
   </g>
   <g id="patch_5">
    <path clip-path="url(#p9fd19e0807)" d="M 121.274336 63.652923 
Q 118.658292 65.262425 115.829497 66.076534 
Q 113.000702 66.9 109.919759 66.9 
Q 100.732085 66.9 95.366043 60.798864 
Q 90 54.697728 90 44.264036 
Q 90 33.792915 95.366043 27.701136 
Q 100.732085 21.6 109.919759 21.6 
Q 113.000702 21.6 115.829497 22.423466 
Q 118.658292 23.237575 121.274336 24.847077 
L 121.274336 33.877133 
Q 118.634653 31.743607 116.073766 30.751704 
Q 113.51288 29.759802 110.684085 29.759802 
Q 105.609589 29.759802 102.701998 33.624478 
Q 99.802286 37.479798 99.802286 44.264036 
Q 99.802286 51.020202 102.701998 54.884879 
Q 105.609589 58.740198 110.684085 58.740198 
Q 113.51288 58.740198 116.073766 57.748296 
Q 118.634653 56.747036 121.274336 54.61351 
z
" style="fill:#0000ff;"/>
   </g>
   <g id="patch_6">
    <path clip-path="url(#p9fd19e0807)" d="M 154.19469 156.417641 
Q 151.578646 156.954142 148.749851 157.225511 
Q 145.921056 157.5 142.840113 157.5 
Q 133.652439 157.5 128.286397 155.466288 
Q 122.920354 153.432576 122.920354 149.954679 
Q 122.920354 146.464305 128.286397 144.433712 
Q 133.652439 142.4 142.840113 142.4 
Q 145.921056 142.4 148.749851 142.674489 
Q 151.578646 142.945858 154.19469 143.482359 
L 154.19469 146.492378 
Q 151.555007 145.781202 148.99412 145.450568 
Q 146.433234 145.119934 143.604439 145.119934 
Q 138.529943 145.119934 135.622352 146.408159 
Q 132.72264 147.693266 132.72264 149.954679 
Q 132.72264 152.206734 135.622352 153.49496 
Q 138.529943 154.780066 143.604439 154.780066 
Q 146.433234 154.780066 148.99412 154.449432 
Q 151.555007 154.115679 154.19469 153.404503 
z
" style="fill:#0000ff;"/>
   </g>
   <g id="patch_7">
    <path clip-path="url(#p9fd19e0807)" d="M 144.584114 131.397 
L 132.556507 131.397 
L 130.657411 142.4 
L 122.920354 142.4 
L 133.969639 82 
L 143.145405 82 
L 154.19469 142.4 
L 146.464027 142.4 
z
M 134.474786 120.186884 
L 142.646653 120.186884 
L 138.567114 96.161509 
z
" style="fill:#008000;"/>
   </g>
   <g id="patch_8">
    <path clip-path="url(#p9fd19e0807)" d="M 154.19469 76.535179 
Q 151.040622 79.267589 147.648247 80.640033 
Q 144.255872 82 140.639207 82 
Q 132.466666 82 127.69351 73.865152 
Q 122.920354 65.730304 122.920354 51.818715 
Q 122.920354 37.744929 127.777619 29.672464 
Q 132.641892 21.6 141.101804 21.6 
Q 144.361007 21.6 147.346858 22.697955 
Q 150.339718 23.783433 152.989135 25.929436 
L 152.989135 37.96951 
Q 150.25561 35.212146 147.55012 33.852179 
Q 144.844631 32.479736 142.125123 32.479736 
Q 137.092633 32.479736 134.366116 37.495394 
Q 131.6396 42.498575 131.6396 51.818715 
Q 131.6396 61.051518 134.26799 66.09213 
Q 136.89638 71.120264 141.732617 71.120264 
Q 143.050317 71.120264 144.178772 70.833299 
Q 145.307228 70.533857 146.204385 69.910019 
L 146.204385 58.606073 
L 141.05274 58.606073 
L 141.05274 48.537327 
L 154.19469 48.537327 
z
" style="fill:#ffa600;"/>
   </g>
   <g id="patch_9">
    <path clip-path="url(#p9fd19e0807)" d="M 187.115044 152.035179 
Q 183.960976 154.767589 180.568601 156.140033 
Q 177.176226 157.5 173.559561 157.5 
Q 165.38702 157.5 160.613864 149.365152 
Q 155.840708 141.230304 155.840708 127.318715 
Q 155.840708 113.244929 160.697973 105.172464 
Q 165.562246 97.1 174.022158 97.1 
Q 177.281361 97.1 180.267212 98.197955 
Q 183.260072 99.283433 185.909489 101.429436 
L 185.909489 113.46951 
Q 183.175964 110.712146 180.470474 109.352179 
Q 177.764985 107.979736 175.045477 107.979736 
Q 170.012987 107.979736 167.28647 112.995394 
Q 164.559954 117.998575 164.559954 127.318715 
Q 164.559954 136.551518 167.188344 141.59213 
Q 169.816734 146.620264 174.652971 146.620264 
Q 175.970671 146.620264 177.099126 146.333299 
Q 178.227582 146.033857 179.124739 145.410019 
L 179.124739 134.106073 
L 173.973094 134.106073 
L 173.973094 124.037327 
L 187.115044 124.037327 
z
" style="fill:#ffa600;"/>
   </g>
   <g id="patch_10">
    <path clip-path="url(#p9fd19e0807)" d="M 187.115044 91.688205 
Q 184.499 94.370709 181.670205 95.727556 
Q 178.84141 97.1 175.760467 97.1 
Q 166.572793 97.1 161.206751 86.93144 
Q 155.840708 76.76288 155.840708 59.373394 
Q 155.840708 41.921524 161.206751 31.76856 
Q 166.572793 21.6 175.760467 21.6 
Q 178.84141 21.6 181.670205 22.972444 
Q 184.499 24.329291 187.115044 27.011795 
L 187.115044 42.061888 
Q 184.475361 38.506011 181.914474 36.85284 
Q 179.353588 35.199669 176.524793 35.199669 
Q 171.450297 35.199669 168.542706 41.640797 
Q 165.642994 48.066329 165.642994 59.373394 
Q 165.642994 70.633671 168.542706 77.074799 
Q 171.450297 83.500331 176.524793 83.500331 
Q 179.353588 83.500331 181.914474 81.84716 
Q 184.475361 80.178393 187.115044 76.622516 
z
" style="fill:#0000ff;"/>
   </g>
   <g id="patch_11">
    <path clip-path="url(#p9fd19e0807)" d="M 220.035398 156.417641 
Q 217.419354 156.954142 214.590559 157.225511 
Q 211.761764 157.5 208.680821 157.5 
Q 199.493147 157.5 194.127105 155.466288 
Q 188.761062 153.432576 188.761062 149.954679 
Q 188.761062 146.464305 194.127105 144.433712 
Q 199.493147 142.4 208.680821 142.4 
Q 211.761764 142.4 214.590559 142.674489 
Q 217.419354 142.945858 220.035398 143.482359 
L 220.035398 146.492378 
Q 217.395715 145.781202 214.834828 145.450568 
Q 212.273942 145.119934 209.445147 145.119934 
Q 204.370651 145.119934 201.46306 146.408159 
Q 198.563348 147.693266 198.563348 149.954679 
Q 198.563348 152.206734 201.46306 153.49496 
Q 204.370651 154.780066 209.445147 154.780066 
Q 212.273942 154.780066 214.834828 154.449432 
Q 217.395715 154.115679 220.035398 153.404503 
z
" style="fill:#0000ff;"/>
   </g>
   <g id="patch_12">
    <path clip-path="url(#p9fd19e0807)" d="M 188.761062 127.3 
L 220.035398 127.3 
L 220.035398 130.244921 
L 208.78391 130.244921 
L 208.78391 142.4 
L 200.034369 142.4 
L 200.034369 130.244921 
L 188.761062 130.244921 
z
" style="fill:#ff0000;"/>
   </g>
   <g id="patch_13">
    <path clip-path="url(#p9fd19e0807)" d="M 220.035398 123.201384 
Q 216.88133 125.250692 213.488955 126.280025 
Q 210.09658 127.3 206.479915 127.3 
Q 198.307374 127.3 193.534218 121.198864 
Q 188.761062 115.097728 188.761062 104.664036 
Q 188.761062 94.108697 193.618327 88.054348 
Q 198.4826 82 206.942512 82 
Q 210.201715 82 213.187566 82.823466 
Q 216.180426 83.637575 218.829843 85.247077 
L 218.829843 94.277133 
Q 216.096318 92.20911 213.390828 91.189134 
Q 210.685339 90.159802 207.965831 90.159802 
Q 202.933341 90.159802 200.206824 93.921545 
Q 197.480308 97.673931 197.480308 104.664036 
Q 197.480308 111.588639 200.108698 115.369097 
Q 202.737088 119.140198 207.573325 119.140198 
Q 208.891025 119.140198 210.01948 118.924974 
Q 211.147936 118.700392 212.045093 118.232514 
L 212.045093 109.754555 
L 206.893448 109.754555 
L 206.893448 102.202995 
L 220.035398 102.202995 
z
" style="fill:#ffa600;"/>
   </g>
   <g id="patch_14">
    <path clip-path="url(#p9fd19e0807)" d="M 210.424822 70.997 
L 198.397215 70.997 
L 196.498119 82 
L 188.761062 82 
L 199.810347 21.6 
L 208.986113 21.6 
L 220.035398 82 
L 212.304735 82 
z
M 200.315494 59.786884 
L 208.487361 59.786884 
L 204.407821 35.761509 
z
" style="fill:#008000;"/>
   </g>
   <g id="patch_15">
    <path clip-path="url(#p9fd19e0807)" d="M 243.345176 151.9985 
L 231.317569 151.9985 
L 229.418473 157.5 
L 221.681416 157.5 
L 232.730701 127.3 
L 241.906467 127.3 
L 252.955752 157.5 
L 245.225089 157.5 
z
M 233.235848 146.393442 
L 241.407715 146.393442 
L 237.328175 134.380754 
z
" style="fill:#008000;"/>
   </g>
   <g id="patch_16">
    <path clip-path="url(#p9fd19e0807)" d="M 221.681416 82 
L 252.955752 82 
L 252.955752 90.834762 
L 241.704264 90.834762 
L 241.704264 127.3 
L 232.954723 127.3 
L 232.954723 90.834762 
L 221.681416 90.834762 
z
" style="fill:#ff0000;"/>
   </g>
   <g id="patch_17">
    <path clip-path="url(#p9fd19e0807)" d="M 252.955752 77.670564 
Q 250.339708 79.816567 247.510913 80.902045 
Q 244.682118 82 241.601175 82 
Q 232.413501 82 227.047459 73.865152 
Q 221.681416 65.730304 221.681416 51.818715 
Q 221.681416 37.85722 227.047459 29.734848 
Q 232.413501 21.6 241.601175 21.6 
Q 244.682118 21.6 247.510913 22.697955 
Q 250.339708 23.783433 252.955752 25.929436 
L 252.955752 37.96951 
Q 250.316069 35.124809 247.755182 33.802272 
Q 245.194296 32.479736 242.365501 32.479736 
Q 237.291005 32.479736 234.383414 37.632638 
Q 231.483702 42.773063 231.483702 51.818715 
Q 231.483702 60.826937 234.383414 65.979839 
Q 237.291005 71.120264 242.365501 71.120264 
Q 245.194296 71.120264 247.755182 69.797728 
Q 250.316069 68.462714 252.955752 65.618013 
z
" style="fill:#0000ff;"/>
   </g>
   <g id="patch_18">
    <path clip-path="url(#p9fd19e0807)" d="M 276.26553 154.74925 
L 264.237923 154.74925 
L 262.338827 157.5 
L 254.60177 157.5 
L 265.651055 142.4 
L 274.826821 142.4 
L 285.876106 157.5 
L 278.145443 157.5 
z
M 266.156202 151.946721 
L 274.328069 151.946721 
L 270.248529 145.940377 
z
" style="fill:#008000;"/>
   </g>
   <g id="patch_19">
    <path clip-path="url(#p9fd19e0807)" d="M 254.60177 127.3 
L 285.876106 127.3 
L 285.876106 130.244921 
L 274.624618 130.244921 
L 274.624618 142.4 
L 265.875077 142.4 
L 265.875077 130.244921 
L 254.60177 130.244921 
z
" style="fill:#ff0000;"/>
   </g>
   <g id="patch_20">
    <path clip-path="url(#p9fd19e0807)" d="M 285.876106 124.567589 
Q 282.722038 125.933795 279.329663 126.620017 
Q 275.937288 127.3 272.320623 127.3 
Q 264.148082 127.3 259.374926 123.232576 
Q 254.60177 119.165152 254.60177 112.209358 
Q 254.60177 105.172464 259.459035 101.136232 
Q 264.323308 97.1 272.78322 97.1 
Q 276.042423 97.1 279.028274 97.648977 
Q 282.021134 98.191717 284.670551 99.264718 
L 284.670551 105.284755 
Q 281.937026 103.906073 279.231536 103.22609 
Q 276.526047 102.539868 273.806539 102.539868 
Q 268.774049 102.539868 266.047532 105.047697 
Q 263.321016 107.549287 263.321016 112.209358 
Q 263.321016 116.825759 265.949406 119.346065 
Q 268.577796 121.860132 273.414033 121.860132 
Q 274.731733 121.860132 275.860188 121.716649 
Q 276.988644 121.566928 277.885801 121.255009 
L 277.885801 115.603037 
L 272.734156 115.603037 
L 272.734156 110.568663 
L 285.876106 110.568663 
z
" style="fill:#ffa600;"/>
   </g>
   <g id="patch_21">
    <path clip-path="url(#p9fd19e0807)" d="M 285.876106 91.688205 
Q 283.260062 94.370709 280.431267 95.727556 
Q 277.602472 97.1 274.521529 97.1 
Q 265.333855 97.1 259.967812 86.93144 
Q 254.60177 76.76288 254.60177 59.373394 
Q 254.60177 41.921524 259.967812 31.76856 
Q 265.333855 21.6 274.521529 21.6 
Q 277.602472 21.6 280.431267 22.972444 
Q 283.260062 24.329291 285.876106 27.011795 
L 285.876106 42.061888 
Q 283.236423 38.506011 280.675536 36.85284 
Q 278.11465 35.199669 275.285855 35.199669 
Q 270.211359 35.199669 267.303768 41.640797 
Q 264.404056 48.066329 264.404056 59.373394 
Q 264.404056 70.633671 267.303768 77.074799 
Q 270.211359 83.500331 275.285855 83.500331 
Q 278.11465 83.500331 280.675536 81.84716 
Q 283.236423 80.178393 285.876106 76.622516 
z
" style="fill:#0000ff;"/>
   </g>
   <g id="patch_22">
    <path clip-path="url(#p9fd19e0807)" d="M 309.185884 151.9985 
L 297.158277 151.9985 
L 295.259181 157.5 
L 287.522124 157.5 
L 298.571409 127.3 
L 307.747175 127.3 
L 318.79646 157.5 
L 311.065797 157.5 
z
M 299.076556 146.393442 
L 307.248423 146.393442 
L 303.168883 134.380754 
z
" style="fill:#008000;"/>
   </g>
   <g id="patch_23">
    <path clip-path="url(#p9fd19e0807)" d="M 318.79646 124.052923 
Q 316.180416 125.662425 313.351621 126.476534 
Q 310.522826 127.3 307.441883 127.3 
Q 298.254209 127.3 292.888166 121.198864 
Q 287.522124 115.097728 287.522124 104.664036 
Q 287.522124 94.192915 292.888166 88.101136 
Q 298.254209 82 307.441883 82 
Q 310.522826 82 313.351621 82.823466 
Q 316.180416 83.637575 318.79646 85.247077 
L 318.79646 94.277133 
Q 316.156777 92.143607 313.59589 91.151704 
Q 311.035004 90.159802 308.206209 90.159802 
Q 303.131713 90.159802 300.224122 94.024478 
Q 297.32441 97.879798 297.32441 104.664036 
Q 297.32441 111.420202 300.224122 115.284879 
Q 303.131713 119.140198 308.206209 119.140198 
Q 311.035004 119.140198 313.59589 118.148296 
Q 316.156777 117.147036 318.79646 115.01351 
z
" style="fill:#0000ff;"/>
   </g>
   <g id="patch_24">
    <path clip-path="url(#p9fd19e0807)" d="M 318.79646 76.535179 
Q 315.642392 79.267589 312.250017 80.640033 
Q 308.857642 82 305.240977 82 
Q 297.068436 82 292.29528 73.865152 
Q 287.522124 65.730304 287.522124 51.818715 
Q 287.522124 37.744929 292.379389 29.672464 
Q 297.243662 21.6 305.703574 21.6 
Q 308.962777 21.6 311.948628 22.697955 
Q 314.941488 23.783433 317.590905 25.929436 
L 317.590905 37.96951 
Q 314.85738 35.212146 312.15189 33.852179 
Q 309.446401 32.479736 306.726893 32.479736 
Q 301.694403 32.479736 298.967886 37.495394 
Q 296.24137 42.498575 296.24137 51.818715 
Q 296.24137 61.051518 298.86976 66.09213 
Q 301.49815 71.120264 306.334387 71.120264 
Q 307.652087 71.120264 308.780542 70.833299 
Q 309.908998 70.533857 310.806155 69.910019 
L 310.806155 58.606073 
L 305.65451 58.606073 
L 305.65451 48.537327 
L 318.79646 48.537327 
z
" style="fill:#ffa600;"/>
   </g>
   <g id="patch_25">
    <path clip-path="url(#p9fd19e0807)" d="M 351.716814 156.133795 
Q 348.562746 156.816897 345.170371 157.160008 
Q 341.777996 157.5 338.161331 157.5 
Q 329.98879 157.5 325.215634 155.466288 
Q 320.442478 153.432576 320.442478 149.954679 
Q 320.442478 146.436232 325.299743 144.418116 
Q 330.164016 142.4 338.623928 142.4 
Q 341.883131 142.4 344.868982 142.674489 
Q 347.861842 142.945858 350.511259 143.482359 
L 350.511259 146.492378 
Q 347.777734 145.803037 345.072244 145.463045 
Q 342.366755 145.119934 339.647247 145.119934 
Q 334.614757 145.119934 331.88824 146.373848 
Q 329.161724 147.624644 329.161724 149.954679 
Q 329.161724 152.26288 331.790114 153.523032 
Q 334.418504 154.780066 339.254741 154.780066 
Q 340.572441 154.780066 341.700896 154.708325 
Q 342.829351 154.633464 343.726509 154.477505 
L 343.726509 151.651518 
L 338.574864 151.651518 
L 338.574864 149.134332 
L 351.716814 149.134332 
z
" style="fill:#ffa600;"/>
   </g>
   <g id="patch_26">
    <path clip-path="url(#p9fd19e0807)" d="M 320.442478 127.3 
L 351.716814 127.3 
L 351.716814 130.244921 
L 340.465326 130.244921 
L 340.465326 142.4 
L 331.715785 142.4 
L 331.715785 130.244921 
L 320.442478 130.244921 
z
" style="fill:#ff0000;"/>
   </g>
   <g id="patch_27">
    <path clip-path="url(#p9fd19e0807)" d="M 342.106238 121.7985 
L 330.078631 121.7985 
L 328.179535 127.3 
L 320.442478 127.3 
L 331.491763 97.1 
L 340.667529 97.1 
L 351.716814 127.3 
L 343.986151 127.3 
z
M 331.99691 116.193442 
L 340.168777 116.193442 
L 336.089237 104.180754 
z
" style="fill:#008000;"/>
   </g>
   <g id="patch_28">
    <path clip-path="url(#p9fd19e0807)" d="M 351.716814 91.688205 
Q 349.10077 94.370709 346.271975 95.727556 
Q 343.44318 97.1 340.362237 97.1 
Q 331.174563 97.1 325.80852 86.93144 
Q 320.442478 76.76288 320.442478 59.373394 
Q 320.442478 41.921524 325.80852 31.76856 
Q 331.174563 21.6 340.362237 21.6 
Q 343.44318 21.6 346.271975 22.972444 
Q 349.10077 24.329291 351.716814 27.011795 
L 351.716814 42.061888 
Q 349.077131 38.506011 346.516244 36.85284 
Q 343.955358 35.199669 341.126563 35.199669 
Q 336.052067 35.199669 333.144476 41.640797 
Q 330.244764 48.066329 330.244764 59.373394 
Q 330.244764 70.633671 333.144476 77.074799 
Q 336.052067 83.500331 341.126563 83.500331 
Q 343.955358 83.500331 346.516244 81.84716 
Q 349.077131 80.178393 351.716814 76.622516 
z
" style="fill:#0000ff;"/>
   </g>
   <g id="patch_29">
    <path clip-path="url(#p9fd19e0807)" d="M 375.026592 151.9985 
L 362.998985 151.9985 
L 361.099889 157.5 
L 353.362832 157.5 
L 364.412117 127.3 
L 373.587883 127.3 
L 384.637168 157.5 
L 376.906505 157.5 
z
M 364.917264 146.393442 
L 373.089131 146.393442 
L 369.009591 134.380754 
z
" style="fill:#008000;"/>
   </g>
   <g id="patch_30">
    <path clip-path="url(#p9fd19e0807)" d="M 384.637168 119.723487 
Q 382.021124 123.478992 379.192329 125.378579 
Q 376.363534 127.3 373.282591 127.3 
Q 364.094917 127.3 358.728874 113.064016 
Q 353.362832 98.828031 353.362832 74.482751 
Q 353.362832 50.050134 358.728874 35.835984 
Q 364.094917 21.6 373.282591 21.6 
Q 376.363534 21.6 379.192329 23.521421 
Q 382.021124 25.421008 384.637168 29.176513 
L 384.637168 50.246643 
Q 381.997485 45.268416 379.436598 42.953976 
Q 376.875712 40.639537 374.046917 40.639537 
Q 368.972421 40.639537 366.06483 49.657116 
Q 363.165118 58.652861 363.165118 74.482751 
Q 363.165118 90.247139 366.06483 99.264718 
Q 368.972421 108.260463 374.046917 108.260463 
Q 376.875712 108.260463 379.436598 105.946024 
Q 381.997485 103.60975 384.637168 98.631522 
z
" style="fill:#0000ff;"/>
   </g>
   <g id="patch_31">
    <path clip-path="url(#p9fd19e0807)" d="M 407.946946 154.74925 
L 395.919339 154.74925 
L 394.020243 157.5 
L 386.283186 157.5 
L 397.332471 142.4 
L 406.508237 142.4 
L 417.557522 157.5 
L 409.826859 157.5 
z
M 397.837618 151.946721 
L 406.009485 151.946721 
L 401.929945 145.940377 
z
" style="fill:#008000;"/>
   </g>
   <g id="patch_32">
    <path clip-path="url(#p9fd19e0807)" d="M 417.557522 141.033795 
Q 414.403454 141.716897 411.011079 142.060008 
Q 407.618703 142.4 404.002039 142.4 
Q 395.829498 142.4 391.056342 140.366288 
Q 386.283186 138.332576 386.283186 134.854679 
Q 386.283186 131.336232 391.140451 129.318116 
Q 396.004724 127.3 404.464635 127.3 
Q 407.723839 127.3 410.70969 127.574489 
Q 413.70255 127.845858 416.351967 128.382359 
L 416.351967 131.392378 
Q 413.618442 130.703037 410.912952 130.363045 
Q 408.207463 130.019934 405.487955 130.019934 
Q 400.455465 130.019934 397.728948 131.273848 
Q 395.002432 132.524644 395.002432 134.854679 
Q 395.002432 137.16288 397.630822 138.423032 
Q 400.259212 139.680066 405.095449 139.680066 
Q 406.413149 139.680066 407.541604 139.608325 
Q 408.670059 139.533464 409.567217 139.377505 
L 409.567217 136.551518 
L 404.415572 136.551518 
L 404.415572 134.034332 
L 417.557522 134.034332 
z
" style="fill:#ffa600;"/>
   </g>
   <g id="patch_33">
    <path clip-path="url(#p9fd19e0807)" d="M 417.557522 119.723487 
Q 414.941478 123.478992 412.112683 125.378579 
Q 409.283888 127.3 406.202945 127.3 
Q 397.015271 127.3 391.649228 113.064016 
Q 386.283186 98.828031 386.283186 74.482751 
Q 386.283186 50.050134 391.649228 35.835984 
Q 397.015271 21.6 406.202945 21.6 
Q 409.283888 21.6 412.112683 23.521421 
Q 414.941478 25.421008 417.557522 29.176513 
L 417.557522 50.246643 
Q 414.917839 45.268416 412.356952 42.953976 
Q 409.796066 40.639537 406.967271 40.639537 
Q 401.892775 40.639537 398.985184 49.657116 
Q 396.085472 58.652861 396.085472 74.482751 
Q 396.085472 90.247139 398.985184 99.264718 
Q 401.892775 108.260463 406.967271 108.260463 
Q 409.796066 108.260463 412.356952 105.946024 
Q 414.917839 103.60975 417.557522 98.631522 
z
" style="fill:#0000ff;"/>
   </g>
   <g id="patch_34">
    <path clip-path="url(#p9fd19e0807)" d="M 450.477876 156.133795 
Q 447.323808 156.816897 443.931433 157.160008 
Q 440.539057 157.5 436.922393 157.5 
Q 428.749852 157.5 423.976696 155.466288 
Q 419.20354 153.432576 419.20354 149.954679 
Q 419.20354 146.436232 424.060805 144.418116 
Q 428.925078 142.4 437.384989 142.4 
Q 440.644193 142.4 443.630044 142.674489 
Q 446.622904 142.945858 449.272321 143.482359 
L 449.272321 146.492378 
Q 446.538796 145.803037 443.833306 145.463045 
Q 441.127817 145.119934 438.408309 145.119934 
Q 433.375819 145.119934 430.649302 146.373848 
Q 427.922786 147.624644 427.922786 149.954679 
Q 427.922786 152.26288 430.551176 153.523032 
Q 433.179565 154.780066 438.015803 154.780066 
Q 439.333503 154.780066 440.461958 154.708325 
Q 441.590413 154.633464 442.487571 154.477505 
L 442.487571 151.651518 
L 437.335926 151.651518 
L 437.335926 149.134332 
L 450.477876 149.134332 
z
" style="fill:#ffa600;"/>
   </g>
   <g id="patch_35">
    <path clip-path="url(#p9fd19e0807)" d="M 419.20354 127.3 
L 450.477876 127.3 
L 450.477876 130.244921 
L 439.226388 130.244921 
L 439.226388 142.4 
L 430.476847 142.4 
L 430.476847 130.244921 
L 419.20354 130.244921 
z
" style="fill:#ff0000;"/>
   </g>
   <g id="patch_36">
    <path clip-path="url(#p9fd19e0807)" d="M 450.477876 119.723487 
Q 447.861832 123.478992 445.033037 125.378579 
Q 442.204242 127.3 439.123298 127.3 
Q 429.935625 127.3 424.569582 113.064016 
Q 419.20354 98.828031 419.20354 74.482751 
Q 419.20354 50.050134 424.569582 35.835984 
Q 429.935625 21.6 439.123298 21.6 
Q 442.204242 21.6 445.033037 23.521421 
Q 447.861832 25.421008 450.477876 29.176513 
L 450.477876 50.246643 
Q 447.838193 45.268416 445.277306 42.953976 
Q 442.71642 40.639537 439.887625 40.639537 
Q 434.813129 40.639537 431.905538 49.657116 
Q 429.005826 58.652861 429.005826 74.482751 
Q 429.005826 90.247139 431.905538 99.264718 
Q 434.813129 108.260463 439.887625 108.260463 
Q 442.71642 108.260463 445.277306 105.946024 
Q 447.838193 103.60975 450.477876 98.631522 
z
" style="fill:#0000ff;"/>
   </g>
   <g id="patch_37">
    <path clip-path="url(#p9fd19e0807)" d="M 452.123894 142.4 
L 483.39823 142.4 
L 483.39823 145.344921 
L 472.146742 145.344921 
L 472.146742 157.5 
L 463.397201 157.5 
L 463.397201 145.344921 
L 452.123894 145.344921 
z
" style="fill:#ff0000;"/>
   </g>
   <g id="patch_38">
    <path clip-path="url(#p9fd19e0807)" d="M 483.39823 133.741128 
Q 480.782186 138.033134 477.953391 140.20409 
Q 475.124596 142.4 472.043652 142.4 
Q 462.855979 142.4 457.489936 126.130304 
Q 452.123894 109.860607 452.123894 82.03743 
Q 452.123894 54.114439 457.489936 37.869696 
Q 462.855979 21.6 472.043652 21.6 
Q 475.124596 21.6 477.953391 23.79591 
Q 480.782186 25.966866 483.39823 30.258872 
L 483.39823 54.339021 
Q 480.758547 48.649618 478.19766 46.004545 
Q 475.636773 43.359471 472.807979 43.359471 
Q 467.733483 43.359471 464.825892 53.665276 
Q 461.92618 63.946127 461.92618 82.03743 
Q 461.92618 100.053873 464.825892 110.359678 
Q 467.733483 120.640529 472.807979 120.640529 
Q 475.636773 120.640529 478.19766 117.995455 
Q 480.758547 115.325429 483.39823 109.636026 
z
" style="fill:#0000ff;"/>
   </g>
   <g id="patch_39">
    <path clip-path="url(#p9fd19e0807)" d="M 516.318584 147.758769 
Q 513.70254 152.587275 510.873745 155.029601 
Q 508.04495 157.5 504.964006 157.5 
Q 495.776333 157.5 490.41029 139.196592 
Q 485.044248 120.893183 485.044248 89.592109 
Q 485.044248 58.178744 490.41029 39.903408 
Q 495.776333 21.6 504.964006 21.6 
Q 508.04495 21.6 510.873745 24.070399 
Q 513.70254 26.512725 516.318584 31.341231 
L 516.318584 58.431398 
Q 513.678901 52.03082 511.118014 49.055113 
Q 508.557127 46.079405 505.728333 46.079405 
Q 500.653837 46.079405 497.746246 57.673435 
Q 494.846534 69.239393 494.846534 89.592109 
Q 494.846534 109.860607 497.746246 121.454637 
Q 500.653837 133.020595 505.728333 133.020595 
Q 508.557127 133.020595 511.118014 130.044887 
Q 513.678901 127.041107 516.318584 120.640529 
z
" style="fill:#0000ff;"/>
   </g>
   <g id="patch_40">
    <path clip-path="url(#p9fd19e0807)" d="M 539.628362 154.74925 
L 527.600755 154.74925 
L 525.701659 157.5 
L 517.964602 157.5 
L 529.013887 142.4 
L 538.189653 142.4 
L 549.238938 157.5 
L 541.508275 157.5 
z
M 529.519034 151.946721 
L 537.690901 151.946721 
L 533.611361 145.940377 
z
" style="fill:#008000;"/>
   </g>
   <g id="patch_41">
    <path clip-path="url(#p9fd19e0807)" d="M 549.238938 138.301384 
Q 546.08487 140.350692 542.692495 141.380025 
Q 539.300119 142.4 535.683455 142.4 
Q 527.510914 142.4 522.737758 136.298864 
Q 517.964602 130.197728 517.964602 119.764036 
Q 517.964602 109.208697 522.821866 103.154348 
Q 527.68614 97.1 536.146051 97.1 
Q 539.405255 97.1 542.391106 97.923466 
Q 545.383966 98.737575 548.033383 100.347077 
L 548.033383 109.377133 
Q 545.299858 107.30911 542.594368 106.289134 
Q 539.888879 105.259802 537.169371 105.259802 
Q 532.136881 105.259802 529.410364 109.021545 
Q 526.683847 112.773931 526.683847 119.764036 
Q 526.683847 126.688639 529.312237 130.469097 
Q 531.940627 134.240198 536.776865 134.240198 
Q 538.094565 134.240198 539.22302 134.024974 
Q 540.351475 133.800392 541.248633 133.332514 
L 541.248633 124.854555 
L 536.096988 124.854555 
L 536.096988 117.302995 
L 549.238938 117.302995 
z
" style="fill:#ffa600;"/>
   </g>
   <g id="patch_42">
    <path clip-path="url(#p9fd19e0807)" d="M 549.238938 91.688205 
Q 546.622894 94.370709 543.794099 95.727556 
Q 540.965304 97.1 537.88436 97.1 
Q 528.696687 97.1 523.330644 86.93144 
Q 517.964602 76.76288 517.964602 59.373394 
Q 517.964602 41.921524 523.330644 31.76856 
Q 528.696687 21.6 537.88436 21.6 
Q 540.965304 21.6 543.794099 22.972444 
Q 546.622894 24.329291 549.238938 27.011795 
L 549.238938 42.061888 
Q 546.599255 38.506011 544.038368 36.85284 
Q 541.477481 35.199669 538.648687 35.199669 
Q 533.574191 35.199669 530.6666 41.640797 
Q 527.766888 48.066329 527.766888 59.373394 
Q 527.766888 70.633671 530.6666 77.074799 
Q 533.574191 83.500331 538.648687 83.500331 
Q 541.477481 83.500331 544.038368 81.84716 
Q 546.599255 80.178393 549.238938 76.622516 
z
" style="fill:#0000ff;"/>
   </g>
   <g id="patch_43">
    <path clip-path="url(#p9fd19e0807)" d="M 572.548716 154.74925 
L 560.521109 154.74925 
L 558.622013 157.5 
L 550.884956 157.5 
L 561.934241 142.4 
L 571.110007 142.4 
L 582.159292 157.5 
L 574.428629 157.5 
z
M 562.439387 151.946721 
L 570.611255 151.946721 
L 566.531715 145.940377 
z
" style="fill:#008000;"/>
   </g>
   <g id="patch_44">
    <path clip-path="url(#p9fd19e0807)" d="M 582.159292 141.033795 
Q 579.005224 141.716897 575.612849 142.060008 
Q 572.220473 142.4 568.603809 142.4 
Q 560.431268 142.4 555.658112 140.366288 
Q 550.884956 138.332576 550.884956 134.854679 
Q 550.884956 131.336232 555.74222 129.318116 
Q 560.606494 127.3 569.066405 127.3 
Q 572.325609 127.3 575.31146 127.574489 
Q 578.30432 127.845858 580.953737 128.382359 
L 580.953737 131.392378 
Q 578.220212 130.703037 575.514722 130.363045 
Q 572.809233 130.019934 570.089725 130.019934 
Q 565.057235 130.019934 562.330718 131.273848 
Q 559.604201 132.524644 559.604201 134.854679 
Q 559.604201 137.16288 562.232591 138.423032 
Q 564.860981 139.680066 569.697219 139.680066 
Q 571.014919 139.680066 572.143374 139.608325 
Q 573.271829 139.533464 574.168986 139.377505 
L 574.168986 136.551518 
L 569.017342 136.551518 
L 569.017342 134.034332 
L 582.159292 134.034332 
z
" style="fill:#ffa600;"/>
   </g>
   <g id="patch_45">
    <path clip-path="url(#p9fd19e0807)" d="M 550.884956 112.2 
L 582.159292 112.2 
L 582.159292 115.144921 
L 570.907804 115.144921 
L 570.907804 127.3 
L 562.158263 127.3 
L 562.158263 115.144921 
L 550.884956 115.144921 
z
" style="fill:#ff0000;"/>
   </g>
   <g id="patch_46">
    <path clip-path="url(#p9fd19e0807)" d="M 582.159292 105.705846 
Q 579.543248 108.92485 576.714453 110.553068 
Q 573.885658 112.2 570.804714 112.2 
Q 561.617041 112.2 556.250998 99.997728 
Q 550.884956 87.795455 550.884956 66.928073 
Q 550.884956 45.985829 556.250998 33.802272 
Q 561.617041 21.6 570.804714 21.6 
Q 573.885658 21.6 576.714453 23.246932 
Q 579.543248 24.87515 582.159292 28.094154 
L 582.159292 46.154266 
Q 579.519609 41.887213 576.958722 39.903408 
Q 574.397835 37.919603 571.569041 37.919603 
Q 566.494545 37.919603 563.586954 45.648957 
Q 560.687242 53.359595 560.687242 66.928073 
Q 560.687242 80.440405 563.586954 88.169758 
Q 566.494545 95.880397 571.569041 95.880397 
Q 574.397835 95.880397 576.958722 93.896592 
Q 579.519609 91.894071 582.159292 87.627019 
z
" style="fill:#0000ff;"/>
   </g>
   <g id="patch_47">
    <path clip-path="url(#p9fd19e0807)" d="M 605.46907 154.74925 
L 593.441463 154.74925 
L 591.542367 157.5 
L 583.80531 157.5 
L 594.854595 142.4 
L 604.030361 142.4 
L 615.079646 157.5 
L 607.348983 157.5 
z
M 595.359741 151.946721 
L 603.531609 151.946721 
L 599.452069 145.940377 
z
" style="fill:#008000;"/>
   </g>
   <g id="patch_48">
    <path clip-path="url(#p9fd19e0807)" d="M 615.079646 141.033795 
Q 611.925578 141.716897 608.533203 142.060008 
Q 605.140827 142.4 601.524163 142.4 
Q 593.351622 142.4 588.578466 140.366288 
Q 583.80531 138.332576 583.80531 134.854679 
Q 583.80531 131.336232 588.662574 129.318116 
Q 593.526848 127.3 601.986759 127.3 
Q 605.245963 127.3 608.231814 127.574489 
Q 611.224674 127.845858 613.874091 128.382359 
L 613.874091 131.392378 
Q 611.140566 130.703037 608.435076 130.363045 
Q 605.729587 130.019934 603.010079 130.019934 
Q 597.977589 130.019934 595.251072 131.273848 
Q 592.524555 132.524644 592.524555 134.854679 
Q 592.524555 137.16288 595.152945 138.423032 
Q 597.781335 139.680066 602.617573 139.680066 
Q 603.935272 139.680066 605.063728 139.608325 
Q 606.192183 139.533464 607.08934 139.377505 
L 607.08934 136.551518 
L 601.937696 136.551518 
L 601.937696 134.034332 
L 615.079646 134.034332 
z
" style="fill:#ffa600;"/>
   </g>
   <g id="patch_49">
    <path clip-path="url(#p9fd19e0807)" d="M 615.079646 119.723487 
Q 612.463602 123.478992 609.634807 125.378579 
Q 606.806012 127.3 603.725068 127.3 
Q 594.537395 127.3 589.171352 113.064016 
Q 583.80531 98.828031 583.80531 74.482751 
Q 583.80531 50.050134 589.171352 35.835984 
Q 594.537395 21.6 603.725068 21.6 
Q 606.806012 21.6 609.634807 23.521421 
Q 612.463602 25.421008 615.079646 29.176513 
L 615.079646 50.246643 
Q 612.439963 45.268416 609.879076 42.953976 
Q 607.318189 40.639537 604.489395 40.639537 
Q 599.414899 40.639537 596.507308 49.657116 
Q 593.607596 58.652861 593.607596 74.482751 
Q 593.607596 90.247139 596.507308 99.264718 
Q 599.414899 108.260463 604.489395 108.260463 
Q 607.318189 108.260463 609.879076 105.946024 
Q 612.439963 103.60975 615.079646 98.631522 
z
" style="fill:#0000ff;"/>
   </g>
   <g id="patch_50">
    <path clip-path="url(#p9fd19e0807)" d="M 638.389424 154.74925 
L 626.361817 154.74925 
L 624.462721 157.5 
L 616.725664 157.5 
L 627.774949 142.4 
L 636.950715 142.4 
L 648 157.5 
L 640.269337 157.5 
z
M 628.280095 151.946721 
L 636.451963 151.946721 
L 632.372423 145.940377 
z
" style="fill:#008000;"/>
   </g>
   <g id="patch_51">
    <path clip-path="url(#p9fd19e0807)" d="M 648 140.235282 
Q 645.383956 141.308283 642.555161 141.851023 
Q 639.726366 142.4 636.645422 142.4 
Q 627.457749 142.4 622.091706 138.332576 
Q 616.725664 134.265152 616.725664 127.309358 
Q 616.725664 120.32861 622.091706 116.267424 
Q 627.457749 112.2 636.645422 112.2 
Q 639.726366 112.2 642.555161 112.748977 
Q 645.383956 113.291717 648 114.364718 
L 648 120.384755 
Q 645.360317 118.962404 642.79943 118.301136 
Q 640.238543 117.639868 637.409749 117.639868 
Q 632.335253 117.639868 629.427662 120.216319 
Q 626.52795 122.786532 626.52795 127.309358 
Q 626.52795 131.813468 629.427662 134.389919 
Q 632.335253 136.960132 637.409749 136.960132 
Q 640.238543 136.960132 642.79943 136.298864 
Q 645.360317 135.631357 648 134.209006 
z
" style="fill:#0000ff;"/>
   </g>
   <g id="patch_52">
    <path clip-path="url(#p9fd19e0807)" d="M 616.725664 82 
L 648 82 
L 648 87.889841 
L 636.748512 87.889841 
L 636.748512 112.2 
L 627.998971 112.2 
L 627.998971 87.889841 
L 616.725664 87.889841 
z
" style="fill:#ff0000;"/>
   </g>
   <g id="patch_53">
    <path clip-path="url(#p9fd19e0807)" d="M 648 76.535179 
Q 644.845932 79.267589 641.453557 80.640033 
Q 638.061181 82 634.444517 82 
Q 626.271976 82 621.49882 73.865152 
Q 616.725664 65.730304 616.725664 51.818715 
Q 616.725664 37.744929 621.582928 29.672464 
Q 626.447202 21.6 634.907113 21.6 
Q 638.166317 21.6 641.152168 22.697955 
Q 644.145028 23.783433 646.794445 25.929436 
L 646.794445 37.96951 
Q 644.06092 35.212146 641.35543 33.852179 
Q 638.649941 32.479736 635.930433 32.479736 
Q 630.897943 32.479736 628.171426 37.495394 
Q 625.444909 42.498575 625.444909 51.818715 
Q 625.444909 61.051518 628.073299 66.09213 
Q 630.701689 71.120264 635.537927 71.120264 
Q 636.855626 71.120264 637.984082 70.833299 
Q 639.112537 70.533857 640.009694 69.910019 
L 640.009694 58.606073 
L 634.85805 58.606073 
L 634.85805 48.537327 
L 648 48.537327 
z
" style="fill:#ffa600;"/>
   </g>
  </g>
 </g>
 <defs>
  <clipPath id="p9fd19e0807">
   <rect height="135.9" width="558" x="90" y="21.6"/>
  </clipPath>
 </defs>
</svg>
