<?xml version="1.0" encoding="utf-8" standalone="no"?>
<!DOCTYPE svg PUBLIC "-//W3C//DTD SVG 1.1//EN"
  "http://www.w3.org/Graphics/SVG/1.1/DTD/svg11.dtd">
<!-- Created with matplotlib (https://matplotlib.org/) -->
<svg height="180pt" version="1.1" viewBox="0 0 720 180" width="720pt" xmlns="http://www.w3.org/2000/svg" xmlns:xlink="http://www.w3.org/1999/xlink">
 <metadata>
  <rdf:RDF xmlns:cc="http://creativecommons.org/ns#" xmlns:dc="http://purl.org/dc/elements/1.1/" xmlns:rdf="http://www.w3.org/1999/02/22-rdf-syntax-ns#">
   <cc:Work>
    <dc:type rdf:resource="http://purl.org/dc/dcmitype/StillImage"/>
    <dc:date>2021-08-04T23:33:05.446391</dc:date>
    <dc:format>image/svg+xml</dc:format>
    <dc:creator>
     <cc:Agent>
      <dc:title>Matplotlib v3.3.2, https://matplotlib.org/</dc:title>
     </cc:Agent>
    </dc:creator>
   </cc:Work>
  </rdf:RDF>
 </metadata>
 <defs>
  <style type="text/css">*{stroke-linecap:butt;stroke-linejoin:round;}</style>
 </defs>
 <g id="figure_1">
  <g id="patch_1">
   <path d="M 0 180 
L 720 180 
L 720 0 
L 0 0 
z
" style="fill:none;"/>
  </g>
  <g id="axes_1">
   <g id="line2d_1">
    <path clip-path="url(#p4e842e4951)" d="M 90 157.5 
L 648 157.5 
" style="fill:none;stroke:#000000;stroke-linecap:square;stroke-width:0.5;"/>
   </g>
   <g id="patch_2">
    <path clip-path="url(#p4e842e4951)" d="M 90 142.4 
L 121.274336 142.4 
L 121.274336 145.344921 
L 110.022848 145.344921 
L 110.022848 157.5 
L 101.273307 157.5 
L 101.273307 145.344921 
L 90 145.344921 
z
" style="fill:#ff0000;"/>
   </g>
   <g id="patch_3">
    <path clip-path="url(#p4e842e4951)" d="M 121.274336 139.667589 
Q 118.120268 141.033795 114.727893 141.720017 
Q 111.335518 142.4 107.718853 142.4 
Q 99.546312 142.4 94.773156 138.332576 
Q 90 134.265152 90 127.309358 
Q 90 120.272464 94.857265 116.236232 
Q 99.721538 112.2 108.18145 112.2 
Q 111.440653 112.2 114.426504 112.748977 
Q 117.419364 113.291717 120.068781 114.364718 
L 120.068781 120.384755 
Q 117.335256 119.006073 114.629766 118.32609 
Q 111.924277 117.639868 109.204769 117.639868 
Q 104.172279 117.639868 101.445762 120.147697 
Q 98.719246 122.649287 98.719246 127.309358 
Q 98.719246 131.925759 101.347636 134.446065 
Q 103.976026 136.960132 108.812263 136.960132 
Q 110.129963 136.960132 111.258418 136.816649 
Q 112.386874 136.666928 113.284031 136.355009 
L 113.284031 130.703037 
L 108.132386 130.703037 
L 108.132386 125.668663 
L 121.274336 125.668663 
z
" style="fill:#ffa600;"/>
   </g>
   <g id="patch_4">
    <path clip-path="url(#p4e842e4951)" d="M 111.66376 103.94775 
L 99.636153 103.94775 
L 97.737057 112.2 
L 90 112.2 
L 101.049285 66.9 
L 110.225051 66.9 
L 121.274336 112.2 
L 113.543673 112.2 
z
M 101.554432 95.540163 
L 109.726299 95.540163 
L 105.64676 77.521132 
z
" style="fill:#008000;"/>
   </g>
   <g id="patch_5">
    <path clip-path="url(#p4e842e4951)" d="M 121.274336 63.652923 
Q 118.658292 65.262425 115.829497 66.076534 
Q 113.000702 66.9 109.919759 66.9 
Q 100.732085 66.9 95.366043 60.798864 
Q 90 54.697728 90 44.264036 
Q 90 33.792915 95.366043 27.701136 
Q 100.732085 21.6 109.919759 21.6 
Q 113.000702 21.6 115.829497 22.423466 
Q 118.658292 23.237575 121.274336 24.847077 
L 121.274336 33.877133 
Q 118.634653 31.743607 116.073766 30.751704 
Q 113.51288 29.759802 110.684085 29.759802 
Q 105.609589 29.759802 102.701998 33.624478 
Q 99.802286 37.479798 99.802286 44.264036 
Q 99.802286 51.020202 102.701998 54.884879 
Q 105.609589 58.740198 110.684085 58.740198 
Q 113.51288 58.740198 116.073766 57.748296 
Q 118.634653 56.747036 121.274336 54.61351 
z
" style="fill:#0000ff;"/>
   </g>
   <g id="patch_6">
    <path clip-path="url(#p4e842e4951)" d="M 122.920354 142.4 
L 154.19469 142.4 
L 154.19469 145.344921 
L 142.943202 145.344921 
L 142.943202 157.5 
L 134.193661 157.5 
L 134.193661 145.344921 
L 122.920354 145.344921 
z
" style="fill:#ff0000;"/>
   </g>
   <g id="patch_7">
    <path clip-path="url(#p4e842e4951)" d="M 154.19469 140.235282 
Q 151.578646 141.308283 148.749851 141.851023 
Q 145.921056 142.4 142.840113 142.4 
Q 133.652439 142.4 128.286397 138.332576 
Q 122.920354 134.265152 122.920354 127.309358 
Q 122.920354 120.32861 128.286397 116.267424 
Q 133.652439 112.2 142.840113 112.2 
Q 145.921056 112.2 148.749851 112.748977 
Q 151.578646 113.291717 154.19469 114.364718 
L 154.19469 120.384755 
Q 151.555007 118.962404 148.99412 118.301136 
Q 146.433234 117.639868 143.604439 117.639868 
Q 138.529943 117.639868 135.622352 120.216319 
Q 132.72264 122.786532 132.72264 127.309358 
Q 132.72264 131.813468 135.622352 134.389919 
Q 138.529943 136.960132 143.604439 136.960132 
Q 146.433234 136.960132 148.99412 136.298864 
Q 151.555007 135.631357 154.19469 134.209006 
z
" style="fill:#0000ff;"/>
   </g>
   <g id="patch_8">
    <path clip-path="url(#p4e842e4951)" d="M 144.584114 103.94775 
L 132.556507 103.94775 
L 130.657411 112.2 
L 122.920354 112.2 
L 133.969639 66.9 
L 143.145405 66.9 
L 154.19469 112.2 
L 146.464027 112.2 
z
M 134.474786 95.540163 
L 142.646653 95.540163 
L 138.567114 77.521132 
z
" style="fill:#008000;"/>
   </g>
   <g id="patch_9">
    <path clip-path="url(#p4e842e4951)" d="M 154.19469 62.801384 
Q 151.040622 64.850692 147.648247 65.880025 
Q 144.255872 66.9 140.639207 66.9 
Q 132.466666 66.9 127.69351 60.798864 
Q 122.920354 54.697728 122.920354 44.264036 
Q 122.920354 33.708697 127.777619 27.654348 
Q 132.641892 21.6 141.101804 21.6 
Q 144.361007 21.6 147.346858 22.423466 
Q 150.339718 23.237575 152.989135 24.847077 
L 152.989135 33.877133 
Q 150.25561 31.80911 147.55012 30.789134 
Q 144.844631 29.759802 142.125123 29.759802 
Q 137.092633 29.759802 134.366116 33.521545 
Q 131.6396 37.273931 131.6396 44.264036 
Q 131.6396 51.188639 134.26799 54.969097 
Q 136.89638 58.740198 141.732617 58.740198 
Q 143.050317 58.740198 144.178772 58.524974 
Q 145.307228 58.300392 146.204385 57.832514 
L 146.204385 49.354555 
L 141.05274 49.354555 
L 141.05274 41.802995 
L 154.19469 41.802995 
z
" style="fill:#ffa600;"/>
   </g>
   <g id="patch_10">
    <path clip-path="url(#p4e842e4951)" d="M 187.115044 156.133795 
Q 183.960976 156.816897 180.568601 157.160008 
Q 177.176226 157.5 173.559561 157.5 
Q 165.38702 157.5 160.613864 155.466288 
Q 155.840708 153.432576 155.840708 149.954679 
Q 155.840708 146.436232 160.697973 144.418116 
Q 165.562246 142.4 174.022158 142.4 
Q 177.281361 142.4 180.267212 142.674489 
Q 183.260072 142.945858 185.909489 143.482359 
L 185.909489 146.492378 
Q 183.175964 145.803037 180.470474 145.463045 
Q 177.764985 145.119934 175.045477 145.119934 
Q 170.012987 145.119934 167.28647 146.373848 
Q 164.559954 147.624644 164.559954 149.954679 
Q 164.559954 152.26288 167.188344 153.523032 
Q 169.816734 154.780066 174.652971 154.780066 
Q 175.970671 154.780066 177.099126 154.708325 
Q 178.227582 154.633464 179.124739 154.477505 
L 179.124739 151.651518 
L 173.973094 151.651518 
L 173.973094 149.134332 
L 187.115044 149.134332 
z
" style="fill:#ffa600;"/>
   </g>
   <g id="patch_11">
    <path clip-path="url(#p4e842e4951)" d="M 177.504468 120.393999 
L 165.476861 120.393999 
L 163.577765 142.4 
L 155.840708 142.4 
L 166.889993 21.6 
L 176.065759 21.6 
L 187.115044 142.4 
L 179.384381 142.4 
z
M 167.39514 97.973768 
L 175.567007 97.973768 
L 171.487467 49.923018 
z
" style="fill:#008000;"/>
   </g>
   <g id="patch_12">
    <path clip-path="url(#p4e842e4951)" d="M 220.035398 156.417641 
Q 217.419354 156.954142 214.590559 157.225511 
Q 211.761764 157.5 208.680821 157.5 
Q 199.493147 157.5 194.127105 155.466288 
Q 188.761062 153.432576 188.761062 149.954679 
Q 188.761062 146.464305 194.127105 144.433712 
Q 199.493147 142.4 208.680821 142.4 
Q 211.761764 142.4 214.590559 142.674489 
Q 217.419354 142.945858 220.035398 143.482359 
L 220.035398 146.492378 
Q 217.395715 145.781202 214.834828 145.450568 
Q 212.273942 145.119934 209.445147 145.119934 
Q 204.370651 145.119934 201.46306 146.408159 
Q 198.563348 147.693266 198.563348 149.954679 
Q 198.563348 152.206734 201.46306 153.49496 
Q 204.370651 154.780066 209.445147 154.780066 
Q 212.273942 154.780066 214.834828 154.449432 
Q 217.395715 154.115679 220.035398 153.404503 
z
" style="fill:#0000ff;"/>
   </g>
   <g id="patch_13">
    <path clip-path="url(#p4e842e4951)" d="M 220.035398 141.033795 
Q 216.88133 141.716897 213.488955 142.060008 
Q 210.09658 142.4 206.479915 142.4 
Q 198.307374 142.4 193.534218 140.366288 
Q 188.761062 138.332576 188.761062 134.854679 
Q 188.761062 131.336232 193.618327 129.318116 
Q 198.4826 127.3 206.942512 127.3 
Q 210.201715 127.3 213.187566 127.574489 
Q 216.180426 127.845858 218.829843 128.382359 
L 218.829843 131.392378 
Q 216.096318 130.703037 213.390828 130.363045 
Q 210.685339 130.019934 207.965831 130.019934 
Q 202.933341 130.019934 200.206824 131.273848 
Q 197.480308 132.524644 197.480308 134.854679 
Q 197.480308 137.16288 200.108698 138.423032 
Q 202.737088 139.680066 207.573325 139.680066 
Q 208.891025 139.680066 210.01948 139.608325 
Q 211.147936 139.533464 212.045093 139.377505 
L 212.045093 136.551518 
L 206.893448 136.551518 
L 206.893448 134.034332 
L 220.035398 134.034332 
z
" style="fill:#ffa600;"/>
   </g>
   <g id="patch_14">
    <path clip-path="url(#p4e842e4951)" d="M 188.761062 97.1 
L 220.035398 97.1 
L 220.035398 102.989841 
L 208.78391 102.989841 
L 208.78391 127.3 
L 200.034369 127.3 
L 200.034369 102.989841 
L 188.761062 102.989841 
z
" style="fill:#ff0000;"/>
   </g>
   <g id="patch_15">
    <path clip-path="url(#p4e842e4951)" d="M 210.424822 83.346249 
L 198.397215 83.346249 
L 196.498119 97.1 
L 188.761062 97.1 
L 199.810347 21.6 
L 208.986113 21.6 
L 220.035398 97.1 
L 212.304735 97.1 
z
M 200.315494 69.333605 
L 208.487361 69.333605 
L 204.407821 39.301886 
z
" style="fill:#008000;"/>
   </g>
   <g id="patch_16">
    <path clip-path="url(#p4e842e4951)" d="M 252.955752 152.035179 
Q 249.801684 154.767589 246.409309 156.140033 
Q 243.016934 157.5 239.400269 157.5 
Q 231.227728 157.5 226.454572 149.365152 
Q 221.681416 141.230304 221.681416 127.318715 
Q 221.681416 113.244929 226.538681 105.172464 
Q 231.402954 97.1 239.862866 97.1 
Q 243.122069 97.1 246.10792 98.197955 
Q 249.10078 99.283433 251.750197 101.429436 
L 251.750197 113.46951 
Q 249.016672 110.712146 246.311182 109.352179 
Q 243.605693 107.979736 240.886185 107.979736 
Q 235.853695 107.979736 233.127178 112.995394 
Q 230.400662 117.998575 230.400662 127.318715 
Q 230.400662 136.551518 233.029052 141.59213 
Q 235.657442 146.620264 240.493679 146.620264 
Q 241.811379 146.620264 242.939834 146.333299 
Q 244.06829 146.033857 244.965447 145.410019 
L 244.965447 134.106073 
L 239.813802 134.106073 
L 239.813802 124.037327 
L 252.955752 124.037327 
z
" style="fill:#ffa600;"/>
   </g>
   <g id="patch_17">
    <path clip-path="url(#p4e842e4951)" d="M 252.955752 91.688205 
Q 250.339708 94.370709 247.510913 95.727556 
Q 244.682118 97.1 241.601175 97.1 
Q 232.413501 97.1 227.047459 86.93144 
Q 221.681416 76.76288 221.681416 59.373394 
Q 221.681416 41.921524 227.047459 31.76856 
Q 232.413501 21.6 241.601175 21.6 
Q 244.682118 21.6 247.510913 22.972444 
Q 250.339708 24.329291 252.955752 27.011795 
L 252.955752 42.061888 
Q 250.316069 38.506011 247.755182 36.85284 
Q 245.194296 35.199669 242.365501 35.199669 
Q 237.291005 35.199669 234.383414 41.640797 
Q 231.483702 48.066329 231.483702 59.373394 
Q 231.483702 70.633671 234.383414 77.074799 
Q 237.291005 83.500331 242.365501 83.500331 
Q 245.194296 83.500331 247.755182 81.84716 
Q 250.316069 80.178393 252.955752 76.622516 
z
" style="fill:#0000ff;"/>
   </g>
   <g id="patch_18">
    <path clip-path="url(#p4e842e4951)" d="M 276.26553 132.743249 
L 264.237923 132.743249 
L 262.338827 157.5 
L 254.60177 157.5 
L 265.651055 21.6 
L 274.826821 21.6 
L 285.876106 157.5 
L 278.145443 157.5 
z
M 266.156202 107.520489 
L 274.328069 107.520489 
L 270.248529 53.463395 
z
" style="fill:#008000;"/>
   </g>
   <g id="patch_19">
    <path clip-path="url(#p4e842e4951)" d="M 287.522124 21.6 
L 318.79646 21.6 
L 318.79646 48.104286 
L 307.544972 48.104286 
L 307.544972 157.5 
L 298.795431 157.5 
L 298.795431 48.104286 
L 287.522124 48.104286 
z
" style="fill:#ff0000;"/>
   </g>
   <g id="patch_20">
    <path clip-path="url(#p4e842e4951)" d="M 351.716814 152.035179 
Q 348.562746 154.767589 345.170371 156.140033 
Q 341.777996 157.5 338.161331 157.5 
Q 329.98879 157.5 325.215634 149.365152 
Q 320.442478 141.230304 320.442478 127.318715 
Q 320.442478 113.244929 325.299743 105.172464 
Q 330.164016 97.1 338.623928 97.1 
Q 341.883131 97.1 344.868982 98.197955 
Q 347.861842 99.283433 350.511259 101.429436 
L 350.511259 113.46951 
Q 347.777734 110.712146 345.072244 109.352179 
Q 342.366755 107.979736 339.647247 107.979736 
Q 334.614757 107.979736 331.88824 112.995394 
Q 329.161724 117.998575 329.161724 127.318715 
Q 329.161724 136.551518 331.790114 141.59213 
Q 334.418504 146.620264 339.254741 146.620264 
Q 340.572441 146.620264 341.700896 146.333299 
Q 342.829351 146.033857 343.726509 145.410019 
L 343.726509 134.106073 
L 338.574864 134.106073 
L 338.574864 124.037327 
L 351.716814 124.037327 
z
" style="fill:#ffa600;"/>
   </g>
   <g id="patch_21">
    <path clip-path="url(#p4e842e4951)" d="M 351.716814 91.688205 
Q 349.10077 94.370709 346.271975 95.727556 
Q 343.44318 97.1 340.362237 97.1 
Q 331.174563 97.1 325.80852 86.93144 
Q 320.442478 76.76288 320.442478 59.373394 
Q 320.442478 41.921524 325.80852 31.76856 
Q 331.174563 21.6 340.362237 21.6 
Q 343.44318 21.6 346.271975 22.972444 
Q 349.10077 24.329291 351.716814 27.011795 
L 351.716814 42.061888 
Q 349.077131 38.506011 346.516244 36.85284 
Q 343.955358 35.199669 341.126563 35.199669 
Q 336.052067 35.199669 333.144476 41.640797 
Q 330.244764 48.066329 330.244764 59.373394 
Q 330.244764 70.633671 333.144476 77.074799 
Q 336.052067 83.500331 341.126563 83.500331 
Q 343.955358 83.500331 346.516244 81.84716 
Q 349.077131 80.178393 351.716814 76.622516 
z
" style="fill:#0000ff;"/>
   </g>
   <g id="patch_22">
    <path clip-path="url(#p4e842e4951)" d="M 384.637168 154.767589 
Q 381.4831 156.133795 378.090725 156.820017 
Q 374.698349 157.5 371.081685 157.5 
Q 362.909144 157.5 358.135988 153.432576 
Q 353.362832 149.365152 353.362832 142.409358 
Q 353.362832 135.372464 358.220097 131.336232 
Q 363.08437 127.3 371.544282 127.3 
Q 374.803485 127.3 377.789336 127.848977 
Q 380.782196 128.391717 383.431613 129.464718 
L 383.431613 135.484755 
Q 380.698088 134.106073 377.992598 133.42609 
Q 375.287109 132.739868 372.567601 132.739868 
Q 367.535111 132.739868 364.808594 135.247697 
Q 362.082078 137.749287 362.082078 142.409358 
Q 362.082078 147.025759 364.710468 149.546065 
Q 367.338858 152.060132 372.175095 152.060132 
Q 373.492795 152.060132 374.62125 151.916649 
Q 375.749705 151.766928 376.646863 151.455009 
L 376.646863 145.803037 
L 371.495218 145.803037 
L 371.495218 140.768663 
L 384.637168 140.768663 
z
" style="fill:#ffa600;"/>
   </g>
   <g id="patch_23">
    <path clip-path="url(#p4e842e4951)" d="M 375.026592 108.044749 
L 362.998985 108.044749 
L 361.099889 127.3 
L 353.362832 127.3 
L 364.412117 21.6 
L 373.587883 21.6 
L 384.637168 127.3 
L 376.906505 127.3 
z
M 364.917264 88.427047 
L 373.089131 88.427047 
L 369.009591 46.38264 
z
" style="fill:#008000;"/>
   </g>
   <g id="patch_24">
    <path clip-path="url(#p4e842e4951)" d="M 417.557522 156.417641 
Q 414.941478 156.954142 412.112683 157.225511 
Q 409.283888 157.5 406.202945 157.5 
Q 397.015271 157.5 391.649228 155.466288 
Q 386.283186 153.432576 386.283186 149.954679 
Q 386.283186 146.464305 391.649228 144.433712 
Q 397.015271 142.4 406.202945 142.4 
Q 409.283888 142.4 412.112683 142.674489 
Q 414.941478 142.945858 417.557522 143.482359 
L 417.557522 146.492378 
Q 414.917839 145.781202 412.356952 145.450568 
Q 409.796066 145.119934 406.967271 145.119934 
Q 401.892775 145.119934 398.985184 146.408159 
Q 396.085472 147.693266 396.085472 149.954679 
Q 396.085472 152.206734 398.985184 153.49496 
Q 401.892775 154.780066 406.967271 154.780066 
Q 409.796066 154.780066 412.356952 154.449432 
Q 414.917839 154.115679 417.557522 153.404503 
z
" style="fill:#0000ff;"/>
   </g>
   <g id="patch_25">
    <path clip-path="url(#p4e842e4951)" d="M 417.557522 141.033795 
Q 414.403454 141.716897 411.011079 142.060008 
Q 407.618703 142.4 404.002039 142.4 
Q 395.829498 142.4 391.056342 140.366288 
Q 386.283186 138.332576 386.283186 134.854679 
Q 386.283186 131.336232 391.140451 129.318116 
Q 396.004724 127.3 404.464635 127.3 
Q 407.723839 127.3 410.70969 127.574489 
Q 413.70255 127.845858 416.351967 128.382359 
L 416.351967 131.392378 
Q 413.618442 130.703037 410.912952 130.363045 
Q 408.207463 130.019934 405.487955 130.019934 
Q 400.455465 130.019934 397.728948 131.273848 
Q 395.002432 132.524644 395.002432 134.854679 
Q 395.002432 137.16288 397.630822 138.423032 
Q 400.259212 139.680066 405.095449 139.680066 
Q 406.413149 139.680066 407.541604 139.608325 
Q 408.670059 139.533464 409.567217 139.377505 
L 409.567217 136.551518 
L 404.415572 136.551518 
L 404.415572 134.034332 
L 417.557522 134.034332 
z
" style="fill:#ffa600;"/>
   </g>
   <g id="patch_26">
    <path clip-path="url(#p4e842e4951)" d="M 386.283186 21.6 
L 417.557522 21.6 
L 417.557522 42.214445 
L 406.306034 42.214445 
L 406.306034 127.3 
L 397.556493 127.3 
L 397.556493 42.214445 
L 386.283186 42.214445 
z
" style="fill:#ff0000;"/>
   </g>
   <g id="patch_27">
    <path clip-path="url(#p4e842e4951)" d="M 450.477876 145.204152 
Q 447.323808 151.352076 443.931433 154.440074 
Q 440.539057 157.5 436.922393 157.5 
Q 428.749852 157.5 423.976696 139.196592 
Q 419.20354 120.893183 419.20354 89.592109 
Q 419.20354 57.92609 424.060805 39.763045 
Q 428.925078 21.6 437.384989 21.6 
Q 440.644193 21.6 443.630044 24.070399 
Q 446.622904 26.512725 449.272321 31.341231 
L 449.272321 58.431398 
Q 446.538796 52.227329 443.833306 49.167403 
Q 441.127817 46.079405 438.408309 46.079405 
Q 433.375819 46.079405 430.649302 57.364635 
Q 427.922786 68.621793 427.922786 89.592109 
Q 427.922786 110.365916 430.551176 121.707292 
Q 433.179565 133.020595 438.015803 133.020595 
Q 439.333503 133.020595 440.461958 132.374923 
Q 441.590413 131.701177 442.487571 130.297542 
L 442.487571 104.863665 
L 437.335926 104.863665 
L 437.335926 82.208986 
L 450.477876 82.208986 
z
" style="fill:#ffa600;"/>
   </g>
   <g id="patch_28">
    <path clip-path="url(#p4e842e4951)" d="M 452.123894 142.4 
L 483.39823 142.4 
L 483.39823 145.344921 
L 472.146742 145.344921 
L 472.146742 157.5 
L 463.397201 157.5 
L 463.397201 145.344921 
L 452.123894 145.344921 
z
" style="fill:#ff0000;"/>
   </g>
   <g id="patch_29">
    <path clip-path="url(#p4e842e4951)" d="M 483.39823 131.470357 
Q 480.244162 136.935179 476.851787 139.680066 
Q 473.459411 142.4 469.842747 142.4 
Q 461.670206 142.4 456.89705 126.130304 
Q 452.123894 109.860607 452.123894 82.03743 
Q 452.123894 53.889857 456.981158 37.744929 
Q 461.845432 21.6 470.305343 21.6 
Q 473.564547 21.6 476.550398 23.79591 
Q 479.543258 25.966866 482.192675 30.258872 
L 482.192675 54.339021 
Q 479.45915 48.824293 476.75366 46.104359 
Q 474.048171 43.359471 471.328663 43.359471 
Q 466.296173 43.359471 463.569656 53.390787 
Q 460.84314 63.397149 460.84314 82.03743 
Q 460.84314 100.503037 463.471529 110.584259 
Q 466.099919 120.640529 470.936157 120.640529 
Q 472.253857 120.640529 473.382312 120.066598 
Q 474.510767 119.467713 475.407925 118.220037 
L 475.407925 95.612146 
L 470.25628 95.612146 
L 470.25628 75.474654 
L 483.39823 75.474654 
z
" style="fill:#ffa600;"/>
   </g>
   <g id="patch_30">
    <path clip-path="url(#p4e842e4951)" d="M 485.044248 142.4 
L 516.318584 142.4 
L 516.318584 145.344921 
L 505.067096 145.344921 
L 505.067096 157.5 
L 496.317555 157.5 
L 496.317555 145.344921 
L 485.044248 145.344921 
z
" style="fill:#ff0000;"/>
   </g>
   <g id="patch_31">
    <path clip-path="url(#p4e842e4951)" d="M 506.708008 136.8985 
L 494.680401 136.8985 
L 492.781305 142.4 
L 485.044248 142.4 
L 496.093533 112.2 
L 505.269299 112.2 
L 516.318584 142.4 
L 508.587921 142.4 
z
M 496.59868 131.293442 
L 504.770547 131.293442 
L 500.691007 119.280754 
z
" style="fill:#008000;"/>
   </g>
   <g id="patch_32">
    <path clip-path="url(#p4e842e4951)" d="M 516.318584 109.467589 
Q 513.164516 110.833795 509.772141 111.520017 
Q 506.379765 112.2 502.763101 112.2 
Q 494.59056 112.2 489.817404 108.132576 
Q 485.044248 104.065152 485.044248 97.109358 
Q 485.044248 90.072464 489.901512 86.036232 
Q 494.765786 82 503.225697 82 
Q 506.484901 82 509.470752 82.548977 
Q 512.463612 83.091717 515.113029 84.164718 
L 515.113029 90.184755 
Q 512.379504 88.806073 509.674014 88.12609 
Q 506.968525 87.439868 504.249017 87.439868 
Q 499.216527 87.439868 496.49001 89.947697 
Q 493.763493 92.449287 493.763493 97.109358 
Q 493.763493 101.725759 496.391883 104.246065 
Q 499.020273 106.760132 503.856511 106.760132 
Q 505.174211 106.760132 506.302666 106.616649 
Q 507.431121 106.466928 508.328279 106.155009 
L 508.328279 100.503037 
L 503.176634 100.503037 
L 503.176634 95.468663 
L 516.318584 95.468663 
z
" style="fill:#ffa600;"/>
   </g>
   <g id="patch_33">
    <path clip-path="url(#p4e842e4951)" d="M 516.318584 77.670564 
Q 513.70254 79.816567 510.873745 80.902045 
Q 508.04495 82 504.964006 82 
Q 495.776333 82 490.41029 73.865152 
Q 485.044248 65.730304 485.044248 51.818715 
Q 485.044248 37.85722 490.41029 29.734848 
Q 495.776333 21.6 504.964006 21.6 
Q 508.04495 21.6 510.873745 22.697955 
Q 513.70254 23.783433 516.318584 25.929436 
L 516.318584 37.96951 
Q 513.678901 35.124809 511.118014 33.802272 
Q 508.557127 32.479736 505.728333 32.479736 
Q 500.653837 32.479736 497.746246 37.632638 
Q 494.846534 42.773063 494.846534 51.818715 
Q 494.846534 60.826937 497.746246 65.979839 
Q 500.653837 71.120264 505.728333 71.120264 
Q 508.557127 71.120264 511.118014 69.797728 
Q 513.678901 68.462714 516.318584 65.618013 
z
" style="fill:#0000ff;"/>
   </g>
   <g id="patch_34">
    <path clip-path="url(#p4e842e4951)" d="M 549.238938 156.133795 
Q 546.08487 156.816897 542.692495 157.160008 
Q 539.300119 157.5 535.683455 157.5 
Q 527.510914 157.5 522.737758 155.466288 
Q 517.964602 153.432576 517.964602 149.954679 
Q 517.964602 146.436232 522.821866 144.418116 
Q 527.68614 142.4 536.146051 142.4 
Q 539.405255 142.4 542.391106 142.674489 
Q 545.383966 142.945858 548.033383 143.482359 
L 548.033383 146.492378 
Q 545.299858 145.803037 542.594368 145.463045 
Q 539.888879 145.119934 537.169371 145.119934 
Q 532.136881 145.119934 529.410364 146.373848 
Q 526.683847 147.624644 526.683847 149.954679 
Q 526.683847 152.26288 529.312237 153.523032 
Q 531.940627 154.780066 536.776865 154.780066 
Q 538.094565 154.780066 539.22302 154.708325 
Q 540.351475 154.633464 541.248633 154.477505 
L 541.248633 151.651518 
L 536.096988 151.651518 
L 536.096988 149.134332 
L 549.238938 149.134332 
z
" style="fill:#ffa600;"/>
   </g>
   <g id="patch_35">
    <path clip-path="url(#p4e842e4951)" d="M 549.238938 140.235282 
Q 546.622894 141.308283 543.794099 141.851023 
Q 540.965304 142.4 537.88436 142.4 
Q 528.696687 142.4 523.330644 138.332576 
Q 517.964602 134.265152 517.964602 127.309358 
Q 517.964602 120.32861 523.330644 116.267424 
Q 528.696687 112.2 537.88436 112.2 
Q 540.965304 112.2 543.794099 112.748977 
Q 546.622894 113.291717 549.238938 114.364718 
L 549.238938 120.384755 
Q 546.599255 118.962404 544.038368 118.301136 
Q 541.477481 117.639868 538.648687 117.639868 
Q 533.574191 117.639868 530.6666 120.216319 
Q 527.766888 122.786532 527.766888 127.309358 
Q 527.766888 131.813468 530.6666 134.389919 
Q 533.574191 136.960132 538.648687 136.960132 
Q 541.477481 136.960132 544.038368 136.298864 
Q 546.599255 135.631357 549.238938 134.209006 
z
" style="fill:#0000ff;"/>
   </g>
   <g id="patch_36">
    <path clip-path="url(#p4e842e4951)" d="M 517.964602 82 
L 549.238938 82 
L 549.238938 87.889841 
L 537.98745 87.889841 
L 537.98745 112.2 
L 529.237909 112.2 
L 529.237909 87.889841 
L 517.964602 87.889841 
z
" style="fill:#ff0000;"/>
   </g>
   <g id="patch_37">
    <path clip-path="url(#p4e842e4951)" d="M 539.628362 70.997 
L 527.600755 70.997 
L 525.701659 82 
L 517.964602 82 
L 529.013887 21.6 
L 538.189653 21.6 
L 549.238938 82 
L 541.508275 82 
z
M 529.519034 59.786884 
L 537.690901 59.786884 
L 533.611361 35.761509 
z
" style="fill:#008000;"/>
   </g>
   <g id="patch_38">
    <path clip-path="url(#p4e842e4951)" d="M 572.548716 154.74925 
L 560.521109 154.74925 
L 558.622013 157.5 
L 550.884956 157.5 
L 561.934241 142.4 
L 571.110007 142.4 
L 582.159292 157.5 
L 574.428629 157.5 
z
M 562.439387 151.946721 
L 570.611255 151.946721 
L 566.531715 145.940377 
z
" style="fill:#008000;"/>
   </g>
   <g id="patch_39">
    <path clip-path="url(#p4e842e4951)" d="M 582.159292 139.667589 
Q 579.005224 141.033795 575.612849 141.720017 
Q 572.220473 142.4 568.603809 142.4 
Q 560.431268 142.4 555.658112 138.332576 
Q 550.884956 134.265152 550.884956 127.309358 
Q 550.884956 120.272464 555.74222 116.236232 
Q 560.606494 112.2 569.066405 112.2 
Q 572.325609 112.2 575.31146 112.748977 
Q 578.30432 113.291717 580.953737 114.364718 
L 580.953737 120.384755 
Q 578.220212 119.006073 575.514722 118.32609 
Q 572.809233 117.639868 570.089725 117.639868 
Q 565.057235 117.639868 562.330718 120.147697 
Q 559.604201 122.649287 559.604201 127.309358 
Q 559.604201 131.925759 562.232591 134.446065 
Q 564.860981 136.960132 569.697219 136.960132 
Q 571.014919 136.960132 572.143374 136.816649 
Q 573.271829 136.666928 574.168986 136.355009 
L 574.168986 130.703037 
L 569.017342 130.703037 
L 569.017342 125.668663 
L 582.159292 125.668663 
z
" style="fill:#ffa600;"/>
   </g>
   <g id="patch_40">
    <path clip-path="url(#p4e842e4951)" d="M 582.159292 108.952923 
Q 579.543248 110.562425 576.714453 111.376534 
Q 573.885658 112.2 570.804714 112.2 
Q 561.617041 112.2 556.250998 106.098864 
Q 550.884956 99.997728 550.884956 89.564036 
Q 550.884956 79.092915 556.250998 73.001136 
Q 561.617041 66.9 570.804714 66.9 
Q 573.885658 66.9 576.714453 67.723466 
Q 579.543248 68.537575 582.159292 70.147077 
L 582.159292 79.177133 
Q 579.519609 77.043607 576.958722 76.051704 
Q 574.397835 75.059802 571.569041 75.059802 
Q 566.494545 75.059802 563.586954 78.924478 
Q 560.687242 82.779798 560.687242 89.564036 
Q 560.687242 96.320202 563.586954 100.184879 
Q 566.494545 104.040198 571.569041 104.040198 
Q 574.397835 104.040198 576.958722 103.048296 
Q 579.519609 102.047036 582.159292 99.91351 
z
" style="fill:#0000ff;"/>
   </g>
   <g id="patch_41">
    <path clip-path="url(#p4e842e4951)" d="M 550.884956 21.6 
L 582.159292 21.6 
L 582.159292 30.434762 
L 570.907804 30.434762 
L 570.907804 66.9 
L 562.158263 66.9 
L 562.158263 30.434762 
L 550.884956 30.434762 
z
" style="fill:#ff0000;"/>
   </g>
   <g id="patch_42">
    <path clip-path="url(#p4e842e4951)" d="M 605.46907 154.74925 
L 593.441463 154.74925 
L 591.542367 157.5 
L 583.80531 157.5 
L 594.854595 142.4 
L 604.030361 142.4 
L 615.079646 157.5 
L 607.348983 157.5 
z
M 595.359741 151.946721 
L 603.531609 151.946721 
L 599.452069 145.940377 
z
" style="fill:#008000;"/>
   </g>
   <g id="patch_43">
    <path clip-path="url(#p4e842e4951)" d="M 583.80531 127.3 
L 615.079646 127.3 
L 615.079646 130.244921 
L 603.828158 130.244921 
L 603.828158 142.4 
L 595.078617 142.4 
L 595.078617 130.244921 
L 583.80531 130.244921 
z
" style="fill:#ff0000;"/>
   </g>
   <g id="patch_44">
    <path clip-path="url(#p4e842e4951)" d="M 615.079646 124.567589 
Q 611.925578 125.933795 608.533203 126.620017 
Q 605.140827 127.3 601.524163 127.3 
Q 593.351622 127.3 588.578466 123.232576 
Q 583.80531 119.165152 583.80531 112.209358 
Q 583.80531 105.172464 588.662574 101.136232 
Q 593.526848 97.1 601.986759 97.1 
Q 605.245963 97.1 608.231814 97.648977 
Q 611.224674 98.191717 613.874091 99.264718 
L 613.874091 105.284755 
Q 611.140566 103.906073 608.435076 103.22609 
Q 605.729587 102.539868 603.010079 102.539868 
Q 597.977589 102.539868 595.251072 105.047697 
Q 592.524555 107.549287 592.524555 112.209358 
Q 592.524555 116.825759 595.152945 119.346065 
Q 597.781335 121.860132 602.617573 121.860132 
Q 603.935272 121.860132 605.063728 121.716649 
Q 606.192183 121.566928 607.08934 121.255009 
L 607.08934 115.603037 
L 601.937696 115.603037 
L 601.937696 110.568663 
L 615.079646 110.568663 
z
" style="fill:#ffa600;"/>
   </g>
   <g id="patch_45">
    <path clip-path="url(#p4e842e4951)" d="M 615.079646 91.688205 
Q 612.463602 94.370709 609.634807 95.727556 
Q 606.806012 97.1 603.725068 97.1 
Q 594.537395 97.1 589.171352 86.93144 
Q 583.80531 76.76288 583.80531 59.373394 
Q 583.80531 41.921524 589.171352 31.76856 
Q 594.537395 21.6 603.725068 21.6 
Q 606.806012 21.6 609.634807 22.972444 
Q 612.463602 24.329291 615.079646 27.011795 
L 615.079646 42.061888 
Q 612.439963 38.506011 609.879076 36.85284 
Q 607.318189 35.199669 604.489395 35.199669 
Q 599.414899 35.199669 596.507308 41.640797 
Q 593.607596 48.066329 593.607596 59.373394 
Q 593.607596 70.633671 596.507308 77.074799 
Q 599.414899 83.500331 604.489395 83.500331 
Q 607.318189 83.500331 609.879076 81.84716 
Q 612.439963 80.178393 615.079646 76.622516 
z
" style="fill:#0000ff;"/>
   </g>
   <g id="patch_46">
    <path clip-path="url(#p4e842e4951)" d="M 638.389424 154.74925 
L 626.361817 154.74925 
L 624.462721 157.5 
L 616.725664 157.5 
L 627.774949 142.4 
L 636.950715 142.4 
L 648 157.5 
L 640.269337 157.5 
z
M 628.280095 151.946721 
L 636.451963 151.946721 
L 632.372423 145.940377 
z
" style="fill:#008000;"/>
   </g>
   <g id="patch_47">
    <path clip-path="url(#p4e842e4951)" d="M 648 140.235282 
Q 645.383956 141.308283 642.555161 141.851023 
Q 639.726366 142.4 636.645422 142.4 
Q 627.457749 142.4 622.091706 138.332576 
Q 616.725664 134.265152 616.725664 127.309358 
Q 616.725664 120.32861 622.091706 116.267424 
Q 627.457749 112.2 636.645422 112.2 
Q 639.726366 112.2 642.555161 112.748977 
Q 645.383956 113.291717 648 114.364718 
L 648 120.384755 
Q 645.360317 118.962404 642.79943 118.301136 
Q 640.238543 117.639868 637.409749 117.639868 
Q 632.335253 117.639868 629.427662 120.216319 
Q 626.52795 122.786532 626.52795 127.309358 
Q 626.52795 131.813468 629.427662 134.389919 
Q 632.335253 136.960132 637.409749 136.960132 
Q 640.238543 136.960132 642.79943 136.298864 
Q 645.360317 135.631357 648 134.209006 
z
" style="fill:#0000ff;"/>
   </g>
   <g id="patch_48">
    <path clip-path="url(#p4e842e4951)" d="M 616.725664 82 
L 648 82 
L 648 87.889841 
L 636.748512 87.889841 
L 636.748512 112.2 
L 627.998971 112.2 
L 627.998971 87.889841 
L 616.725664 87.889841 
z
" style="fill:#ff0000;"/>
   </g>
   <g id="patch_49">
    <path clip-path="url(#p4e842e4951)" d="M 648 76.535179 
Q 644.845932 79.267589 641.453557 80.640033 
Q 638.061181 82 634.444517 82 
Q 626.271976 82 621.49882 73.865152 
Q 616.725664 65.730304 616.725664 51.818715 
Q 616.725664 37.744929 621.582928 29.672464 
Q 626.447202 21.6 634.907113 21.6 
Q 638.166317 21.6 641.152168 22.697955 
Q 644.145028 23.783433 646.794445 25.929436 
L 646.794445 37.96951 
Q 644.06092 35.212146 641.35543 33.852179 
Q 638.649941 32.479736 635.930433 32.479736 
Q 630.897943 32.479736 628.171426 37.495394 
Q 625.444909 42.498575 625.444909 51.818715 
Q 625.444909 61.051518 628.073299 66.09213 
Q 630.701689 71.120264 635.537927 71.120264 
Q 636.855626 71.120264 637.984082 70.833299 
Q 639.112537 70.533857 640.009694 69.910019 
L 640.009694 58.606073 
L 634.85805 58.606073 
L 634.85805 48.537327 
L 648 48.537327 
z
" style="fill:#ffa600;"/>
   </g>
  </g>
 </g>
 <defs>
  <clipPath id="p4e842e4951">
   <rect height="135.9" width="558" x="90" y="21.6"/>
  </clipPath>
 </defs>
</svg>
