<?xml version="1.0" encoding="utf-8" standalone="no"?>
<!DOCTYPE svg PUBLIC "-//W3C//DTD SVG 1.1//EN"
  "http://www.w3.org/Graphics/SVG/1.1/DTD/svg11.dtd">
<!-- Created with matplotlib (https://matplotlib.org/) -->
<svg height="180pt" version="1.1" viewBox="0 0 720 180" width="720pt" xmlns="http://www.w3.org/2000/svg" xmlns:xlink="http://www.w3.org/1999/xlink">
 <metadata>
  <rdf:RDF xmlns:cc="http://creativecommons.org/ns#" xmlns:dc="http://purl.org/dc/elements/1.1/" xmlns:rdf="http://www.w3.org/1999/02/22-rdf-syntax-ns#">
   <cc:Work>
    <dc:type rdf:resource="http://purl.org/dc/dcmitype/StillImage"/>
    <dc:date>2021-08-04T23:33:08.590094</dc:date>
    <dc:format>image/svg+xml</dc:format>
    <dc:creator>
     <cc:Agent>
      <dc:title>Matplotlib v3.3.2, https://matplotlib.org/</dc:title>
     </cc:Agent>
    </dc:creator>
   </cc:Work>
  </rdf:RDF>
 </metadata>
 <defs>
  <style type="text/css">*{stroke-linecap:butt;stroke-linejoin:round;}</style>
 </defs>
 <g id="figure_1">
  <g id="patch_1">
   <path d="M 0 180 
L 720 180 
L 720 0 
L 0 0 
z
" style="fill:none;"/>
  </g>
  <g id="axes_1">
   <g id="line2d_1">
    <path clip-path="url(#pf2d68143b8)" d="M 90 157.5 
L 648 157.5 
" style="fill:none;stroke:#000000;stroke-linecap:square;stroke-width:0.5;"/>
   </g>
   <g id="patch_2">
    <path clip-path="url(#pf2d68143b8)" d="M 111.66376 154.74925 
L 99.636153 154.74925 
L 97.737057 157.5 
L 90 157.5 
L 101.049285 142.4 
L 110.225051 142.4 
L 121.274336 157.5 
L 113.543673 157.5 
z
M 101.554432 151.946721 
L 109.726299 151.946721 
L 105.64676 145.940377 
z
" style="fill:#008000;"/>
   </g>
   <g id="patch_3">
    <path clip-path="url(#pf2d68143b8)" d="M 121.274336 141.033795 
Q 118.120268 141.716897 114.727893 142.060008 
Q 111.335518 142.4 107.718853 142.4 
Q 99.546312 142.4 94.773156 140.366288 
Q 90 138.332576 90 134.854679 
Q 90 131.336232 94.857265 129.318116 
Q 99.721538 127.3 108.18145 127.3 
Q 111.440653 127.3 114.426504 127.574489 
Q 117.419364 127.845858 120.068781 128.382359 
L 120.068781 131.392378 
Q 117.335256 130.703037 114.629766 130.363045 
Q 111.924277 130.019934 109.204769 130.019934 
Q 104.172279 130.019934 101.445762 131.273848 
Q 98.719246 132.524644 98.719246 134.854679 
Q 98.719246 137.16288 101.347636 138.423032 
Q 103.976026 139.680066 108.812263 139.680066 
Q 110.129963 139.680066 111.258418 139.608325 
Q 112.386874 139.533464 113.284031 139.377505 
L 113.284031 136.551518 
L 108.132386 136.551518 
L 108.132386 134.034332 
L 121.274336 134.034332 
z
" style="fill:#ffa600;"/>
   </g>
   <g id="patch_4">
    <path clip-path="url(#pf2d68143b8)" d="M 154.19469 156.133795 
Q 151.040622 156.816897 147.648247 157.160008 
Q 144.255872 157.5 140.639207 157.5 
Q 132.466666 157.5 127.69351 155.466288 
Q 122.920354 153.432576 122.920354 149.954679 
Q 122.920354 146.436232 127.777619 144.418116 
Q 132.641892 142.4 141.101804 142.4 
Q 144.361007 142.4 147.346858 142.674489 
Q 150.339718 142.945858 152.989135 143.482359 
L 152.989135 146.492378 
Q 150.25561 145.803037 147.55012 145.463045 
Q 144.844631 145.119934 142.125123 145.119934 
Q 137.092633 145.119934 134.366116 146.373848 
Q 131.6396 147.624644 131.6396 149.954679 
Q 131.6396 152.26288 134.26799 153.523032 
Q 136.89638 154.780066 141.732617 154.780066 
Q 143.050317 154.780066 144.178772 154.708325 
Q 145.307228 154.633464 146.204385 154.477505 
L 146.204385 151.651518 
L 141.05274 151.651518 
L 141.05274 149.134332 
L 154.19469 149.134332 
z
" style="fill:#ffa600;"/>
   </g>
   <g id="patch_5">
    <path clip-path="url(#pf2d68143b8)" d="M 122.920354 127.3 
L 154.19469 127.3 
L 154.19469 130.244921 
L 142.943202 130.244921 
L 142.943202 142.4 
L 134.193661 142.4 
L 134.193661 130.244921 
L 122.920354 130.244921 
z
" style="fill:#ff0000;"/>
   </g>
   <g id="patch_6">
    <path clip-path="url(#pf2d68143b8)" d="M 187.115044 156.133795 
Q 183.960976 156.816897 180.568601 157.160008 
Q 177.176226 157.5 173.559561 157.5 
Q 165.38702 157.5 160.613864 155.466288 
Q 155.840708 153.432576 155.840708 149.954679 
Q 155.840708 146.436232 160.697973 144.418116 
Q 165.562246 142.4 174.022158 142.4 
Q 177.281361 142.4 180.267212 142.674489 
Q 183.260072 142.945858 185.909489 143.482359 
L 185.909489 146.492378 
Q 183.175964 145.803037 180.470474 145.463045 
Q 177.764985 145.119934 175.045477 145.119934 
Q 170.012987 145.119934 167.28647 146.373848 
Q 164.559954 147.624644 164.559954 149.954679 
Q 164.559954 152.26288 167.188344 153.523032 
Q 169.816734 154.780066 174.652971 154.780066 
Q 175.970671 154.780066 177.099126 154.708325 
Q 178.227582 154.633464 179.124739 154.477505 
L 179.124739 151.651518 
L 173.973094 151.651518 
L 173.973094 149.134332 
L 187.115044 149.134332 
z
" style="fill:#ffa600;"/>
   </g>
   <g id="patch_7">
    <path clip-path="url(#pf2d68143b8)" d="M 155.840708 127.3 
L 187.115044 127.3 
L 187.115044 130.244921 
L 175.863556 130.244921 
L 175.863556 142.4 
L 167.114015 142.4 
L 167.114015 130.244921 
L 155.840708 130.244921 
z
" style="fill:#ff0000;"/>
   </g>
   <g id="patch_8">
    <path clip-path="url(#pf2d68143b8)" d="M 188.761062 127.3 
L 220.035398 127.3 
L 220.035398 133.189841 
L 208.78391 133.189841 
L 208.78391 157.5 
L 200.034369 157.5 
L 200.034369 133.189841 
L 188.761062 133.189841 
z
" style="fill:#ff0000;"/>
   </g>
   <g id="patch_9">
    <path clip-path="url(#pf2d68143b8)" d="M 243.345176 154.74925 
L 231.317569 154.74925 
L 229.418473 157.5 
L 221.681416 157.5 
L 232.730701 142.4 
L 241.906467 142.4 
L 252.955752 157.5 
L 245.225089 157.5 
z
M 233.235848 151.946721 
L 241.407715 151.946721 
L 237.328175 145.940377 
z
" style="fill:#008000;"/>
   </g>
   <g id="patch_10">
    <path clip-path="url(#pf2d68143b8)" d="M 252.955752 141.033795 
Q 249.801684 141.716897 246.409309 142.060008 
Q 243.016934 142.4 239.400269 142.4 
Q 231.227728 142.4 226.454572 140.366288 
Q 221.681416 138.332576 221.681416 134.854679 
Q 221.681416 131.336232 226.538681 129.318116 
Q 231.402954 127.3 239.862866 127.3 
Q 243.122069 127.3 246.10792 127.574489 
Q 249.10078 127.845858 251.750197 128.382359 
L 251.750197 131.392378 
Q 249.016672 130.703037 246.311182 130.363045 
Q 243.605693 130.019934 240.886185 130.019934 
Q 235.853695 130.019934 233.127178 131.273848 
Q 230.400662 132.524644 230.400662 134.854679 
Q 230.400662 137.16288 233.029052 138.423032 
Q 235.657442 139.680066 240.493679 139.680066 
Q 241.811379 139.680066 242.939834 139.608325 
Q 244.06829 139.533464 244.965447 139.377505 
L 244.965447 136.551518 
L 239.813802 136.551518 
L 239.813802 134.034332 
L 252.955752 134.034332 
z
" style="fill:#ffa600;"/>
   </g>
   <g id="patch_11">
    <path clip-path="url(#pf2d68143b8)" d="M 276.26553 151.9985 
L 264.237923 151.9985 
L 262.338827 157.5 
L 254.60177 157.5 
L 265.651055 127.3 
L 274.826821 127.3 
L 285.876106 157.5 
L 278.145443 157.5 
z
M 266.156202 146.393442 
L 274.328069 146.393442 
L 270.248529 134.380754 
z
" style="fill:#008000;"/>
   </g>
   <g id="patch_12">
    <path clip-path="url(#pf2d68143b8)" d="M 309.185884 154.74925 
L 297.158277 154.74925 
L 295.259181 157.5 
L 287.522124 157.5 
L 298.571409 142.4 
L 307.747175 142.4 
L 318.79646 157.5 
L 311.065797 157.5 
z
M 299.076556 151.946721 
L 307.248423 151.946721 
L 303.168883 145.940377 
z
" style="fill:#008000;"/>
   </g>
   <g id="patch_13">
    <path clip-path="url(#pf2d68143b8)" d="M 318.79646 141.033795 
Q 315.642392 141.716897 312.250017 142.060008 
Q 308.857642 142.4 305.240977 142.4 
Q 297.068436 142.4 292.29528 140.366288 
Q 287.522124 138.332576 287.522124 134.854679 
Q 287.522124 131.336232 292.379389 129.318116 
Q 297.243662 127.3 305.703574 127.3 
Q 308.962777 127.3 311.948628 127.574489 
Q 314.941488 127.845858 317.590905 128.382359 
L 317.590905 131.392378 
Q 314.85738 130.703037 312.15189 130.363045 
Q 309.446401 130.019934 306.726893 130.019934 
Q 301.694403 130.019934 298.967886 131.273848 
Q 296.24137 132.524644 296.24137 134.854679 
Q 296.24137 137.16288 298.86976 138.423032 
Q 301.49815 139.680066 306.334387 139.680066 
Q 307.652087 139.680066 308.780542 139.608325 
Q 309.908998 139.533464 310.806155 139.377505 
L 310.806155 136.551518 
L 305.65451 136.551518 
L 305.65451 134.034332 
L 318.79646 134.034332 
z
" style="fill:#ffa600;"/>
   </g>
   <g id="patch_14">
    <path clip-path="url(#pf2d68143b8)" d="M 320.442478 127.3 
L 351.716814 127.3 
L 351.716814 133.189841 
L 340.465326 133.189841 
L 340.465326 157.5 
L 331.715785 157.5 
L 331.715785 133.189841 
L 320.442478 133.189841 
z
" style="fill:#ff0000;"/>
   </g>
   <g id="patch_15">
    <path clip-path="url(#pf2d68143b8)" d="M 351.716814 119.723487 
Q 349.10077 123.478992 346.271975 125.378579 
Q 343.44318 127.3 340.362237 127.3 
Q 331.174563 127.3 325.80852 113.064016 
Q 320.442478 98.828031 320.442478 74.482751 
Q 320.442478 50.050134 325.80852 35.835984 
Q 331.174563 21.6 340.362237 21.6 
Q 343.44318 21.6 346.271975 23.521421 
Q 349.10077 25.421008 351.716814 29.176513 
L 351.716814 50.246643 
Q 349.077131 45.268416 346.516244 42.953976 
Q 343.955358 40.639537 341.126563 40.639537 
Q 336.052067 40.639537 333.144476 49.657116 
Q 330.244764 58.652861 330.244764 74.482751 
Q 330.244764 90.247139 333.144476 99.264718 
Q 336.052067 108.260463 341.126563 108.260463 
Q 343.955358 108.260463 346.516244 105.946024 
Q 349.077131 103.60975 351.716814 98.631522 
z
" style="fill:#0000ff;"/>
   </g>
   <g id="patch_16">
    <path clip-path="url(#pf2d68143b8)" d="M 384.637168 147.758769 
Q 382.021124 152.587275 379.192329 155.029601 
Q 376.363534 157.5 373.282591 157.5 
Q 364.094917 157.5 358.728874 139.196592 
Q 353.362832 120.893183 353.362832 89.592109 
Q 353.362832 58.178744 358.728874 39.903408 
Q 364.094917 21.6 373.282591 21.6 
Q 376.363534 21.6 379.192329 24.070399 
Q 382.021124 26.512725 384.637168 31.341231 
L 384.637168 58.431398 
Q 381.997485 52.03082 379.436598 49.055113 
Q 376.875712 46.079405 374.046917 46.079405 
Q 368.972421 46.079405 366.06483 57.673435 
Q 363.165118 69.239393 363.165118 89.592109 
Q 363.165118 109.860607 366.06483 121.454637 
Q 368.972421 133.020595 374.046917 133.020595 
Q 376.875712 133.020595 379.436598 130.044887 
Q 381.997485 127.041107 384.637168 120.640529 
z
" style="fill:#0000ff;"/>
   </g>
   <g id="patch_17">
    <path clip-path="url(#pf2d68143b8)" d="M 407.946946 132.743249 
L 395.919339 132.743249 
L 394.020243 157.5 
L 386.283186 157.5 
L 397.332471 21.6 
L 406.508237 21.6 
L 417.557522 157.5 
L 409.826859 157.5 
z
M 397.837618 107.520489 
L 406.009485 107.520489 
L 401.929945 53.463395 
z
" style="fill:#008000;"/>
   </g>
   <g id="patch_18">
    <path clip-path="url(#pf2d68143b8)" d="M 440.8673 154.74925 
L 428.839693 154.74925 
L 426.940597 157.5 
L 419.20354 157.5 
L 430.252825 142.4 
L 439.428591 142.4 
L 450.477876 157.5 
L 442.747213 157.5 
z
M 430.757972 151.946721 
L 438.929839 151.946721 
L 434.850299 145.940377 
z
" style="fill:#008000;"/>
   </g>
   <g id="patch_19">
    <path clip-path="url(#pf2d68143b8)" d="M 419.20354 21.6 
L 450.477876 21.6 
L 450.477876 45.159366 
L 439.226388 45.159366 
L 439.226388 142.4 
L 430.476847 142.4 
L 430.476847 45.159366 
L 419.20354 45.159366 
z
" style="fill:#ff0000;"/>
   </g>
   <g id="patch_20">
    <path clip-path="url(#pf2d68143b8)" d="M 473.787654 154.74925 
L 461.760047 154.74925 
L 459.860951 157.5 
L 452.123894 157.5 
L 463.173179 142.4 
L 472.348945 142.4 
L 483.39823 157.5 
L 475.667567 157.5 
z
M 463.678326 151.946721 
L 471.850193 151.946721 
L 467.770653 145.940377 
z
" style="fill:#008000;"/>
   </g>
   <g id="patch_21">
    <path clip-path="url(#pf2d68143b8)" d="M 483.39823 131.470357 
Q 480.244162 136.935179 476.851787 139.680066 
Q 473.459411 142.4 469.842747 142.4 
Q 461.670206 142.4 456.89705 126.130304 
Q 452.123894 109.860607 452.123894 82.03743 
Q 452.123894 53.889857 456.981158 37.744929 
Q 461.845432 21.6 470.305343 21.6 
Q 473.564547 21.6 476.550398 23.79591 
Q 479.543258 25.966866 482.192675 30.258872 
L 482.192675 54.339021 
Q 479.45915 48.824293 476.75366 46.104359 
Q 474.048171 43.359471 471.328663 43.359471 
Q 466.296173 43.359471 463.569656 53.390787 
Q 460.84314 63.397149 460.84314 82.03743 
Q 460.84314 100.503037 463.471529 110.584259 
Q 466.099919 120.640529 470.936157 120.640529 
Q 472.253857 120.640529 473.382312 120.066598 
Q 474.510767 119.467713 475.407925 118.220037 
L 475.407925 95.612146 
L 470.25628 95.612146 
L 470.25628 75.474654 
L 483.39823 75.474654 
z
" style="fill:#ffa600;"/>
   </g>
   <g id="patch_22">
    <path clip-path="url(#pf2d68143b8)" d="M 506.708008 132.743249 
L 494.680401 132.743249 
L 492.781305 157.5 
L 485.044248 157.5 
L 496.093533 21.6 
L 505.269299 21.6 
L 516.318584 157.5 
L 508.587921 157.5 
z
M 496.59868 107.520489 
L 504.770547 107.520489 
L 500.691007 53.463395 
z
" style="fill:#008000;"/>
   </g>
   <g id="patch_23">
    <path clip-path="url(#pf2d68143b8)" d="M 517.964602 21.6 
L 549.238938 21.6 
L 549.238938 48.104286 
L 537.98745 48.104286 
L 537.98745 157.5 
L 529.237909 157.5 
L 529.237909 48.104286 
L 517.964602 48.104286 
z
" style="fill:#ff0000;"/>
   </g>
   <g id="patch_24">
    <path clip-path="url(#pf2d68143b8)" d="M 582.159292 145.204152 
Q 579.005224 151.352076 575.612849 154.440074 
Q 572.220473 157.5 568.603809 157.5 
Q 560.431268 157.5 555.658112 139.196592 
Q 550.884956 120.893183 550.884956 89.592109 
Q 550.884956 57.92609 555.74222 39.763045 
Q 560.606494 21.6 569.066405 21.6 
Q 572.325609 21.6 575.31146 24.070399 
Q 578.30432 26.512725 580.953737 31.341231 
L 580.953737 58.431398 
Q 578.220212 52.227329 575.514722 49.167403 
Q 572.809233 46.079405 570.089725 46.079405 
Q 565.057235 46.079405 562.330718 57.364635 
Q 559.604201 68.621793 559.604201 89.592109 
Q 559.604201 110.365916 562.232591 121.707292 
Q 564.860981 133.020595 569.697219 133.020595 
Q 571.014919 133.020595 572.143374 132.374923 
Q 573.271829 131.701177 574.168986 130.297542 
L 574.168986 104.863665 
L 569.017342 104.863665 
L 569.017342 82.208986 
L 582.159292 82.208986 
z
" style="fill:#ffa600;"/>
   </g>
   <g id="patch_25">
    <path clip-path="url(#pf2d68143b8)" d="M 615.079646 145.204152 
Q 611.925578 151.352076 608.533203 154.440074 
Q 605.140827 157.5 601.524163 157.5 
Q 593.351622 157.5 588.578466 139.196592 
Q 583.80531 120.893183 583.80531 89.592109 
Q 583.80531 57.92609 588.662574 39.763045 
Q 593.526848 21.6 601.986759 21.6 
Q 605.245963 21.6 608.231814 24.070399 
Q 611.224674 26.512725 613.874091 31.341231 
L 613.874091 58.431398 
Q 611.140566 52.227329 608.435076 49.167403 
Q 605.729587 46.079405 603.010079 46.079405 
Q 597.977589 46.079405 595.251072 57.364635 
Q 592.524555 68.621793 592.524555 89.592109 
Q 592.524555 110.365916 595.152945 121.707292 
Q 597.781335 133.020595 602.617573 133.020595 
Q 603.935272 133.020595 605.063728 132.374923 
Q 606.192183 131.701177 607.08934 130.297542 
L 607.08934 104.863665 
L 601.937696 104.863665 
L 601.937696 82.208986 
L 615.079646 82.208986 
z
" style="fill:#ffa600;"/>
   </g>
   <g id="patch_26">
    <path clip-path="url(#pf2d68143b8)" d="M 648 156.133795 
Q 644.845932 156.816897 641.453557 157.160008 
Q 638.061181 157.5 634.444517 157.5 
Q 626.271976 157.5 621.49882 155.466288 
Q 616.725664 153.432576 616.725664 149.954679 
Q 616.725664 146.436232 621.582928 144.418116 
Q 626.447202 142.4 634.907113 142.4 
Q 638.166317 142.4 641.152168 142.674489 
Q 644.145028 142.945858 646.794445 143.482359 
L 646.794445 146.492378 
Q 644.06092 145.803037 641.35543 145.463045 
Q 638.649941 145.119934 635.930433 145.119934 
Q 630.897943 145.119934 628.171426 146.373848 
Q 625.444909 147.624644 625.444909 149.954679 
Q 625.444909 152.26288 628.073299 153.523032 
Q 630.701689 154.780066 635.537927 154.780066 
Q 636.855626 154.780066 637.984082 154.708325 
Q 639.112537 154.633464 640.009694 154.477505 
L 640.009694 151.651518 
L 634.85805 151.651518 
L 634.85805 149.134332 
L 648 149.134332 
z
" style="fill:#ffa600;"/>
   </g>
   <g id="patch_27">
    <path clip-path="url(#pf2d68143b8)" d="M 616.725664 127.3 
L 648 127.3 
L 648 130.244921 
L 636.748512 130.244921 
L 636.748512 142.4 
L 627.998971 142.4 
L 627.998971 130.244921 
L 616.725664 130.244921 
z
" style="fill:#ff0000;"/>
   </g>
   <g id="patch_28">
    <path clip-path="url(#pf2d68143b8)" d="M 638.389424 119.04775 
L 626.361817 119.04775 
L 624.462721 127.3 
L 616.725664 127.3 
L 627.774949 82 
L 636.950715 82 
L 648 127.3 
L 640.269337 127.3 
z
M 628.280095 110.640163 
L 636.451963 110.640163 
L 632.372423 92.621132 
z
" style="fill:#008000;"/>
   </g>
   <g id="patch_29">
    <path clip-path="url(#pf2d68143b8)" d="M 648 77.670564 
Q 645.383956 79.816567 642.555161 80.902045 
Q 639.726366 82 636.645422 82 
Q 627.457749 82 622.091706 73.865152 
Q 616.725664 65.730304 616.725664 51.818715 
Q 616.725664 37.85722 622.091706 29.734848 
Q 627.457749 21.6 636.645422 21.6 
Q 639.726366 21.6 642.555161 22.697955 
Q 645.383956 23.783433 648 25.929436 
L 648 37.96951 
Q 645.360317 35.124809 642.79943 33.802272 
Q 640.238543 32.479736 637.409749 32.479736 
Q 632.335253 32.479736 629.427662 37.632638 
Q 626.52795 42.773063 626.52795 51.818715 
Q 626.52795 60.826937 629.427662 65.979839 
Q 632.335253 71.120264 637.409749 71.120264 
Q 640.238543 71.120264 642.79943 69.797728 
Q 645.360317 68.462714 648 65.618013 
z
" style="fill:#0000ff;"/>
   </g>
  </g>
 </g>
 <defs>
  <clipPath id="pf2d68143b8">
   <rect height="135.9" width="558" x="90" y="21.6"/>
  </clipPath>
 </defs>
</svg>
