<?xml version="1.0" encoding="utf-8" standalone="no"?>
<!DOCTYPE svg PUBLIC "-//W3C//DTD SVG 1.1//EN"
  "http://www.w3.org/Graphics/SVG/1.1/DTD/svg11.dtd">
<!-- Created with matplotlib (https://matplotlib.org/) -->
<svg height="180pt" version="1.1" viewBox="0 0 720 180" width="720pt" xmlns="http://www.w3.org/2000/svg" xmlns:xlink="http://www.w3.org/1999/xlink">
 <metadata>
  <rdf:RDF xmlns:cc="http://creativecommons.org/ns#" xmlns:dc="http://purl.org/dc/elements/1.1/" xmlns:rdf="http://www.w3.org/1999/02/22-rdf-syntax-ns#">
   <cc:Work>
    <dc:type rdf:resource="http://purl.org/dc/dcmitype/StillImage"/>
    <dc:date>2021-08-04T23:33:11.012222</dc:date>
    <dc:format>image/svg+xml</dc:format>
    <dc:creator>
     <cc:Agent>
      <dc:title>Matplotlib v3.3.2, https://matplotlib.org/</dc:title>
     </cc:Agent>
    </dc:creator>
   </cc:Work>
  </rdf:RDF>
 </metadata>
 <defs>
  <style type="text/css">*{stroke-linecap:butt;stroke-linejoin:round;}</style>
 </defs>
 <g id="figure_1">
  <g id="patch_1">
   <path d="M 0 180 
L 720 180 
L 720 0 
L 0 0 
z
" style="fill:none;"/>
  </g>
  <g id="axes_1">
   <g id="line2d_1">
    <path clip-path="url(#p52caeec988)" d="M 90 157.5 
L 648 157.5 
" style="fill:none;stroke:#000000;stroke-linecap:square;stroke-width:0.5;"/>
   </g>
   <g id="patch_2">
    <path clip-path="url(#p52caeec988)" d="M 121.274336 156.133795 
Q 118.120268 156.816897 114.727893 157.160008 
Q 111.335518 157.5 107.718853 157.5 
Q 99.546312 157.5 94.773156 155.466288 
Q 90 153.432576 90 149.954679 
Q 90 146.436232 94.857265 144.418116 
Q 99.721538 142.4 108.18145 142.4 
Q 111.440653 142.4 114.426504 142.674489 
Q 117.419364 142.945858 120.068781 143.482359 
L 120.068781 146.492378 
Q 117.335256 145.803037 114.629766 145.463045 
Q 111.924277 145.119934 109.204769 145.119934 
Q 104.172279 145.119934 101.445762 146.373848 
Q 98.719246 147.624644 98.719246 149.954679 
Q 98.719246 152.26288 101.347636 153.523032 
Q 103.976026 154.780066 108.812263 154.780066 
Q 110.129963 154.780066 111.258418 154.708325 
Q 112.386874 154.633464 113.284031 154.477505 
L 113.284031 151.651518 
L 108.132386 151.651518 
L 108.132386 149.134332 
L 121.274336 149.134332 
z
" style="fill:#ffa600;"/>
   </g>
   <g id="patch_3">
    <path clip-path="url(#p52caeec988)" d="M 90 112.2 
L 121.274336 112.2 
L 121.274336 118.089841 
L 110.022848 118.089841 
L 110.022848 142.4 
L 101.273307 142.4 
L 101.273307 118.089841 
L 90 118.089841 
z
" style="fill:#ff0000;"/>
   </g>
   <g id="patch_4">
    <path clip-path="url(#p52caeec988)" d="M 111.66376 103.94775 
L 99.636153 103.94775 
L 97.737057 112.2 
L 90 112.2 
L 101.049285 66.9 
L 110.225051 66.9 
L 121.274336 112.2 
L 113.543673 112.2 
z
M 101.554432 95.540163 
L 109.726299 95.540163 
L 105.64676 77.521132 
z
" style="fill:#008000;"/>
   </g>
   <g id="patch_5">
    <path clip-path="url(#p52caeec988)" d="M 121.274336 63.652923 
Q 118.658292 65.262425 115.829497 66.076534 
Q 113.000702 66.9 109.919759 66.9 
Q 100.732085 66.9 95.366043 60.798864 
Q 90 54.697728 90 44.264036 
Q 90 33.792915 95.366043 27.701136 
Q 100.732085 21.6 109.919759 21.6 
Q 113.000702 21.6 115.829497 22.423466 
Q 118.658292 23.237575 121.274336 24.847077 
L 121.274336 33.877133 
Q 118.634653 31.743607 116.073766 30.751704 
Q 113.51288 29.759802 110.684085 29.759802 
Q 105.609589 29.759802 102.701998 33.624478 
Q 99.802286 37.479798 99.802286 44.264036 
Q 99.802286 51.020202 102.701998 54.884879 
Q 105.609589 58.740198 110.684085 58.740198 
Q 113.51288 58.740198 116.073766 57.748296 
Q 118.634653 56.747036 121.274336 54.61351 
z
" style="fill:#0000ff;"/>
   </g>
   <g id="patch_6">
    <path clip-path="url(#p52caeec988)" d="M 154.19469 156.417641 
Q 151.578646 156.954142 148.749851 157.225511 
Q 145.921056 157.5 142.840113 157.5 
Q 133.652439 157.5 128.286397 155.466288 
Q 122.920354 153.432576 122.920354 149.954679 
Q 122.920354 146.464305 128.286397 144.433712 
Q 133.652439 142.4 142.840113 142.4 
Q 145.921056 142.4 148.749851 142.674489 
Q 151.578646 142.945858 154.19469 143.482359 
L 154.19469 146.492378 
Q 151.555007 145.781202 148.99412 145.450568 
Q 146.433234 145.119934 143.604439 145.119934 
Q 138.529943 145.119934 135.622352 146.408159 
Q 132.72264 147.693266 132.72264 149.954679 
Q 132.72264 152.206734 135.622352 153.49496 
Q 138.529943 154.780066 143.604439 154.780066 
Q 146.433234 154.780066 148.99412 154.449432 
Q 151.555007 154.115679 154.19469 153.404503 
z
" style="fill:#0000ff;"/>
   </g>
   <g id="patch_7">
    <path clip-path="url(#p52caeec988)" d="M 154.19469 139.667589 
Q 151.040622 141.033795 147.648247 141.720017 
Q 144.255872 142.4 140.639207 142.4 
Q 132.466666 142.4 127.69351 138.332576 
Q 122.920354 134.265152 122.920354 127.309358 
Q 122.920354 120.272464 127.777619 116.236232 
Q 132.641892 112.2 141.101804 112.2 
Q 144.361007 112.2 147.346858 112.748977 
Q 150.339718 113.291717 152.989135 114.364718 
L 152.989135 120.384755 
Q 150.25561 119.006073 147.55012 118.32609 
Q 144.844631 117.639868 142.125123 117.639868 
Q 137.092633 117.639868 134.366116 120.147697 
Q 131.6396 122.649287 131.6396 127.309358 
Q 131.6396 131.925759 134.26799 134.446065 
Q 136.89638 136.960132 141.732617 136.960132 
Q 143.050317 136.960132 144.178772 136.816649 
Q 145.307228 136.666928 146.204385 136.355009 
L 146.204385 130.703037 
L 141.05274 130.703037 
L 141.05274 125.668663 
L 154.19469 125.668663 
z
" style="fill:#ffa600;"/>
   </g>
   <g id="patch_8">
    <path clip-path="url(#p52caeec988)" d="M 144.584114 95.695499 
L 132.556507 95.695499 
L 130.657411 112.2 
L 122.920354 112.2 
L 133.969639 21.6 
L 143.145405 21.6 
L 154.19469 112.2 
L 146.464027 112.2 
z
M 134.474786 78.880326 
L 142.646653 78.880326 
L 138.567114 42.842263 
z
" style="fill:#008000;"/>
   </g>
   <g id="patch_9">
    <path clip-path="url(#p52caeec988)" d="M 177.504468 149.24775 
L 165.476861 149.24775 
L 163.577765 157.5 
L 155.840708 157.5 
L 166.889993 112.2 
L 176.065759 112.2 
L 187.115044 157.5 
L 179.384381 157.5 
z
M 167.39514 140.840163 
L 175.567007 140.840163 
L 171.487467 122.821132 
z
" style="fill:#008000;"/>
   </g>
   <g id="patch_10">
    <path clip-path="url(#p52caeec988)" d="M 187.115044 108.952923 
Q 184.499 110.562425 181.670205 111.376534 
Q 178.84141 112.2 175.760467 112.2 
Q 166.572793 112.2 161.206751 106.098864 
Q 155.840708 99.997728 155.840708 89.564036 
Q 155.840708 79.092915 161.206751 73.001136 
Q 166.572793 66.9 175.760467 66.9 
Q 178.84141 66.9 181.670205 67.723466 
Q 184.499 68.537575 187.115044 70.147077 
L 187.115044 79.177133 
Q 184.475361 77.043607 181.914474 76.051704 
Q 179.353588 75.059802 176.524793 75.059802 
Q 171.450297 75.059802 168.542706 78.924478 
Q 165.642994 82.779798 165.642994 89.564036 
Q 165.642994 96.320202 168.542706 100.184879 
Q 171.450297 104.040198 176.524793 104.040198 
Q 179.353588 104.040198 181.914474 103.048296 
Q 184.475361 102.047036 187.115044 99.91351 
z
" style="fill:#0000ff;"/>
   </g>
   <g id="patch_11">
    <path clip-path="url(#p52caeec988)" d="M 155.840708 21.6 
L 187.115044 21.6 
L 187.115044 30.434762 
L 175.863556 30.434762 
L 175.863556 66.9 
L 167.114015 66.9 
L 167.114015 30.434762 
L 155.840708 30.434762 
z
" style="fill:#ff0000;"/>
   </g>
   <g id="patch_12">
    <path clip-path="url(#p52caeec988)" d="M 210.424822 154.74925 
L 198.397215 154.74925 
L 196.498119 157.5 
L 188.761062 157.5 
L 199.810347 142.4 
L 208.986113 142.4 
L 220.035398 157.5 
L 212.304735 157.5 
z
M 200.315494 151.946721 
L 208.487361 151.946721 
L 204.407821 145.940377 
z
" style="fill:#008000;"/>
   </g>
   <g id="patch_13">
    <path clip-path="url(#p52caeec988)" d="M 188.761062 112.2 
L 220.035398 112.2 
L 220.035398 118.089841 
L 208.78391 118.089841 
L 208.78391 142.4 
L 200.034369 142.4 
L 200.034369 118.089841 
L 188.761062 118.089841 
z
" style="fill:#ff0000;"/>
   </g>
   <g id="patch_14">
    <path clip-path="url(#p52caeec988)" d="M 220.035398 108.952923 
Q 217.419354 110.562425 214.590559 111.376534 
Q 211.761764 112.2 208.680821 112.2 
Q 199.493147 112.2 194.127105 106.098864 
Q 188.761062 99.997728 188.761062 89.564036 
Q 188.761062 79.092915 194.127105 73.001136 
Q 199.493147 66.9 208.680821 66.9 
Q 211.761764 66.9 214.590559 67.723466 
Q 217.419354 68.537575 220.035398 70.147077 
L 220.035398 79.177133 
Q 217.395715 77.043607 214.834828 76.051704 
Q 212.273942 75.059802 209.445147 75.059802 
Q 204.370651 75.059802 201.46306 78.924478 
Q 198.563348 82.779798 198.563348 89.564036 
Q 198.563348 96.320202 201.46306 100.184879 
Q 204.370651 104.040198 209.445147 104.040198 
Q 212.273942 104.040198 214.834828 103.048296 
Q 217.395715 102.047036 220.035398 99.91351 
z
" style="fill:#0000ff;"/>
   </g>
   <g id="patch_15">
    <path clip-path="url(#p52caeec988)" d="M 220.035398 62.801384 
Q 216.88133 64.850692 213.488955 65.880025 
Q 210.09658 66.9 206.479915 66.9 
Q 198.307374 66.9 193.534218 60.798864 
Q 188.761062 54.697728 188.761062 44.264036 
Q 188.761062 33.708697 193.618327 27.654348 
Q 198.4826 21.6 206.942512 21.6 
Q 210.201715 21.6 213.187566 22.423466 
Q 216.180426 23.237575 218.829843 24.847077 
L 218.829843 33.877133 
Q 216.096318 31.80911 213.390828 30.789134 
Q 210.685339 29.759802 207.965831 29.759802 
Q 202.933341 29.759802 200.206824 33.521545 
Q 197.480308 37.273931 197.480308 44.264036 
Q 197.480308 51.188639 200.108698 54.969097 
Q 202.737088 58.740198 207.573325 58.740198 
Q 208.891025 58.740198 210.01948 58.524974 
Q 211.147936 58.300392 212.045093 57.832514 
L 212.045093 49.354555 
L 206.893448 49.354555 
L 206.893448 41.802995 
L 220.035398 41.802995 
z
" style="fill:#ffa600;"/>
   </g>
   <g id="patch_16">
    <path clip-path="url(#p52caeec988)" d="M 252.955752 156.133795 
Q 249.801684 156.816897 246.409309 157.160008 
Q 243.016934 157.5 239.400269 157.5 
Q 231.227728 157.5 226.454572 155.466288 
Q 221.681416 153.432576 221.681416 149.954679 
Q 221.681416 146.436232 226.538681 144.418116 
Q 231.402954 142.4 239.862866 142.4 
Q 243.122069 142.4 246.10792 142.674489 
Q 249.10078 142.945858 251.750197 143.482359 
L 251.750197 146.492378 
Q 249.016672 145.803037 246.311182 145.463045 
Q 243.605693 145.119934 240.886185 145.119934 
Q 235.853695 145.119934 233.127178 146.373848 
Q 230.400662 147.624644 230.400662 149.954679 
Q 230.400662 152.26288 233.029052 153.523032 
Q 235.657442 154.780066 240.493679 154.780066 
Q 241.811379 154.780066 242.939834 154.708325 
Q 244.06829 154.633464 244.965447 154.477505 
L 244.965447 151.651518 
L 239.813802 151.651518 
L 239.813802 149.134332 
L 252.955752 149.134332 
z
" style="fill:#ffa600;"/>
   </g>
   <g id="patch_17">
    <path clip-path="url(#p52caeec988)" d="M 243.345176 120.393999 
L 231.317569 120.393999 
L 229.418473 142.4 
L 221.681416 142.4 
L 232.730701 21.6 
L 241.906467 21.6 
L 252.955752 142.4 
L 245.225089 142.4 
z
M 233.235848 97.973768 
L 241.407715 97.973768 
L 237.328175 49.923018 
z
" style="fill:#008000;"/>
   </g>
   <g id="patch_18">
    <path clip-path="url(#p52caeec988)" d="M 285.876106 156.417641 
Q 283.260062 156.954142 280.431267 157.225511 
Q 277.602472 157.5 274.521529 157.5 
Q 265.333855 157.5 259.967812 155.466288 
Q 254.60177 153.432576 254.60177 149.954679 
Q 254.60177 146.464305 259.967812 144.433712 
Q 265.333855 142.4 274.521529 142.4 
Q 277.602472 142.4 280.431267 142.674489 
Q 283.260062 142.945858 285.876106 143.482359 
L 285.876106 146.492378 
Q 283.236423 145.781202 280.675536 145.450568 
Q 278.11465 145.119934 275.285855 145.119934 
Q 270.211359 145.119934 267.303768 146.408159 
Q 264.404056 147.693266 264.404056 149.954679 
Q 264.404056 152.206734 267.303768 153.49496 
Q 270.211359 154.780066 275.285855 154.780066 
Q 278.11465 154.780066 280.675536 154.449432 
Q 283.236423 154.115679 285.876106 153.404503 
z
" style="fill:#0000ff;"/>
   </g>
   <g id="patch_19">
    <path clip-path="url(#p52caeec988)" d="M 285.876106 141.033795 
Q 282.722038 141.716897 279.329663 142.060008 
Q 275.937288 142.4 272.320623 142.4 
Q 264.148082 142.4 259.374926 140.366288 
Q 254.60177 138.332576 254.60177 134.854679 
Q 254.60177 131.336232 259.459035 129.318116 
Q 264.323308 127.3 272.78322 127.3 
Q 276.042423 127.3 279.028274 127.574489 
Q 282.021134 127.845858 284.670551 128.382359 
L 284.670551 131.392378 
Q 281.937026 130.703037 279.231536 130.363045 
Q 276.526047 130.019934 273.806539 130.019934 
Q 268.774049 130.019934 266.047532 131.273848 
Q 263.321016 132.524644 263.321016 134.854679 
Q 263.321016 137.16288 265.949406 138.423032 
Q 268.577796 139.680066 273.414033 139.680066 
Q 274.731733 139.680066 275.860188 139.608325 
Q 276.988644 139.533464 277.885801 139.377505 
L 277.885801 136.551518 
L 272.734156 136.551518 
L 272.734156 134.034332 
L 285.876106 134.034332 
z
" style="fill:#ffa600;"/>
   </g>
   <g id="patch_20">
    <path clip-path="url(#p52caeec988)" d="M 254.60177 97.1 
L 285.876106 97.1 
L 285.876106 102.989841 
L 274.624618 102.989841 
L 274.624618 127.3 
L 265.875077 127.3 
L 265.875077 102.989841 
L 254.60177 102.989841 
z
" style="fill:#ff0000;"/>
   </g>
   <g id="patch_21">
    <path clip-path="url(#p52caeec988)" d="M 276.26553 83.346249 
L 264.237923 83.346249 
L 262.338827 97.1 
L 254.60177 97.1 
L 265.651055 21.6 
L 274.826821 21.6 
L 285.876106 97.1 
L 278.145443 97.1 
z
M 266.156202 69.333605 
L 274.328069 69.333605 
L 270.248529 39.301886 
z
" style="fill:#008000;"/>
   </g>
   <g id="patch_22">
    <path clip-path="url(#p52caeec988)" d="M 309.185884 154.74925 
L 297.158277 154.74925 
L 295.259181 157.5 
L 287.522124 157.5 
L 298.571409 142.4 
L 307.747175 142.4 
L 318.79646 157.5 
L 311.065797 157.5 
z
M 299.076556 151.946721 
L 307.248423 151.946721 
L 303.168883 145.940377 
z
" style="fill:#008000;"/>
   </g>
   <g id="patch_23">
    <path clip-path="url(#p52caeec988)" d="M 318.79646 131.470357 
Q 315.642392 136.935179 312.250017 139.680066 
Q 308.857642 142.4 305.240977 142.4 
Q 297.068436 142.4 292.29528 126.130304 
Q 287.522124 109.860607 287.522124 82.03743 
Q 287.522124 53.889857 292.379389 37.744929 
Q 297.243662 21.6 305.703574 21.6 
Q 308.962777 21.6 311.948628 23.79591 
Q 314.941488 25.966866 317.590905 30.258872 
L 317.590905 54.339021 
Q 314.85738 48.824293 312.15189 46.104359 
Q 309.446401 43.359471 306.726893 43.359471 
Q 301.694403 43.359471 298.967886 53.390787 
Q 296.24137 63.397149 296.24137 82.03743 
Q 296.24137 100.503037 298.86976 110.584259 
Q 301.49815 120.640529 306.334387 120.640529 
Q 307.652087 120.640529 308.780542 120.066598 
Q 309.908998 119.467713 310.806155 118.220037 
L 310.806155 95.612146 
L 305.65451 95.612146 
L 305.65451 75.474654 
L 318.79646 75.474654 
z
" style="fill:#ffa600;"/>
   </g>
   <g id="patch_24">
    <path clip-path="url(#p52caeec988)" d="M 342.106238 132.743249 
L 330.078631 132.743249 
L 328.179535 157.5 
L 320.442478 157.5 
L 331.491763 21.6 
L 340.667529 21.6 
L 351.716814 157.5 
L 343.986151 157.5 
z
M 331.99691 107.520489 
L 340.168777 107.520489 
L 336.089237 53.463395 
z
" style="fill:#008000;"/>
   </g>
   <g id="patch_25">
    <path clip-path="url(#p52caeec988)" d="M 353.362832 21.6 
L 384.637168 21.6 
L 384.637168 48.104286 
L 373.38568 48.104286 
L 373.38568 157.5 
L 364.636139 157.5 
L 364.636139 48.104286 
L 353.362832 48.104286 
z
" style="fill:#ff0000;"/>
   </g>
   <g id="patch_26">
    <path clip-path="url(#p52caeec988)" d="M 417.557522 145.204152 
Q 414.403454 151.352076 411.011079 154.440074 
Q 407.618703 157.5 404.002039 157.5 
Q 395.829498 157.5 391.056342 139.196592 
Q 386.283186 120.893183 386.283186 89.592109 
Q 386.283186 57.92609 391.140451 39.763045 
Q 396.004724 21.6 404.464635 21.6 
Q 407.723839 21.6 410.70969 24.070399 
Q 413.70255 26.512725 416.351967 31.341231 
L 416.351967 58.431398 
Q 413.618442 52.227329 410.912952 49.167403 
Q 408.207463 46.079405 405.487955 46.079405 
Q 400.455465 46.079405 397.728948 57.364635 
Q 395.002432 68.621793 395.002432 89.592109 
Q 395.002432 110.365916 397.630822 121.707292 
Q 400.259212 133.020595 405.095449 133.020595 
Q 406.413149 133.020595 407.541604 132.374923 
Q 408.670059 131.701177 409.567217 130.297542 
L 409.567217 104.863665 
L 404.415572 104.863665 
L 404.415572 82.208986 
L 417.557522 82.208986 
z
" style="fill:#ffa600;"/>
   </g>
   <g id="patch_27">
    <path clip-path="url(#p52caeec988)" d="M 450.477876 145.204152 
Q 447.323808 151.352076 443.931433 154.440074 
Q 440.539057 157.5 436.922393 157.5 
Q 428.749852 157.5 423.976696 139.196592 
Q 419.20354 120.893183 419.20354 89.592109 
Q 419.20354 57.92609 424.060805 39.763045 
Q 428.925078 21.6 437.384989 21.6 
Q 440.644193 21.6 443.630044 24.070399 
Q 446.622904 26.512725 449.272321 31.341231 
L 449.272321 58.431398 
Q 446.538796 52.227329 443.833306 49.167403 
Q 441.127817 46.079405 438.408309 46.079405 
Q 433.375819 46.079405 430.649302 57.364635 
Q 427.922786 68.621793 427.922786 89.592109 
Q 427.922786 110.365916 430.551176 121.707292 
Q 433.179565 133.020595 438.015803 133.020595 
Q 439.333503 133.020595 440.461958 132.374923 
Q 441.590413 131.701177 442.487571 130.297542 
L 442.487571 104.863665 
L 437.335926 104.863665 
L 437.335926 82.208986 
L 450.477876 82.208986 
z
" style="fill:#ffa600;"/>
   </g>
   <g id="patch_28">
    <path clip-path="url(#p52caeec988)" d="M 483.39823 154.252923 
Q 480.782186 155.862425 477.953391 156.676534 
Q 475.124596 157.5 472.043652 157.5 
Q 462.855979 157.5 457.489936 151.398864 
Q 452.123894 145.297728 452.123894 134.864036 
Q 452.123894 124.392915 457.489936 118.301136 
Q 462.855979 112.2 472.043652 112.2 
Q 475.124596 112.2 477.953391 113.023466 
Q 480.782186 113.837575 483.39823 115.447077 
L 483.39823 124.477133 
Q 480.758547 122.343607 478.19766 121.351704 
Q 475.636773 120.359802 472.807979 120.359802 
Q 467.733483 120.359802 464.825892 124.224478 
Q 461.92618 128.079798 461.92618 134.864036 
Q 461.92618 141.620202 464.825892 145.484879 
Q 467.733483 149.340198 472.807979 149.340198 
Q 475.636773 149.340198 478.19766 148.348296 
Q 480.758547 147.347036 483.39823 145.21351 
z
" style="fill:#0000ff;"/>
   </g>
   <g id="patch_29">
    <path clip-path="url(#p52caeec988)" d="M 473.787654 95.695499 
L 461.760047 95.695499 
L 459.860951 112.2 
L 452.123894 112.2 
L 463.173179 21.6 
L 472.348945 21.6 
L 483.39823 112.2 
L 475.667567 112.2 
z
M 463.678326 78.880326 
L 471.850193 78.880326 
L 467.770653 42.842263 
z
" style="fill:#008000;"/>
   </g>
   <g id="patch_30">
    <path clip-path="url(#p52caeec988)" d="M 516.318584 154.767589 
Q 513.164516 156.133795 509.772141 156.820017 
Q 506.379765 157.5 502.763101 157.5 
Q 494.59056 157.5 489.817404 153.432576 
Q 485.044248 149.365152 485.044248 142.409358 
Q 485.044248 135.372464 489.901512 131.336232 
Q 494.765786 127.3 503.225697 127.3 
Q 506.484901 127.3 509.470752 127.848977 
Q 512.463612 128.391717 515.113029 129.464718 
L 515.113029 135.484755 
Q 512.379504 134.106073 509.674014 133.42609 
Q 506.968525 132.739868 504.249017 132.739868 
Q 499.216527 132.739868 496.49001 135.247697 
Q 493.763493 137.749287 493.763493 142.409358 
Q 493.763493 147.025759 496.391883 149.546065 
Q 499.020273 152.060132 503.856511 152.060132 
Q 505.174211 152.060132 506.302666 151.916649 
Q 507.431121 151.766928 508.328279 151.455009 
L 508.328279 145.803037 
L 503.176634 145.803037 
L 503.176634 140.768663 
L 516.318584 140.768663 
z
" style="fill:#ffa600;"/>
   </g>
   <g id="patch_31">
    <path clip-path="url(#p52caeec988)" d="M 485.044248 21.6 
L 516.318584 21.6 
L 516.318584 42.214445 
L 505.067096 42.214445 
L 505.067096 127.3 
L 496.317555 127.3 
L 496.317555 42.214445 
L 485.044248 42.214445 
z
" style="fill:#ff0000;"/>
   </g>
   <g id="patch_32">
    <path clip-path="url(#p52caeec988)" d="M 517.964602 21.6 
L 549.238938 21.6 
L 549.238938 48.104286 
L 537.98745 48.104286 
L 537.98745 157.5 
L 529.237909 157.5 
L 529.237909 48.104286 
L 517.964602 48.104286 
z
" style="fill:#ff0000;"/>
   </g>
   <g id="patch_33">
    <path clip-path="url(#p52caeec988)" d="M 572.548716 146.497 
L 560.521109 146.497 
L 558.622013 157.5 
L 550.884956 157.5 
L 561.934241 97.1 
L 571.110007 97.1 
L 582.159292 157.5 
L 574.428629 157.5 
z
M 562.439387 135.286884 
L 570.611255 135.286884 
L 566.531715 111.261509 
z
" style="fill:#008000;"/>
   </g>
   <g id="patch_34">
    <path clip-path="url(#p52caeec988)" d="M 582.159292 90.268973 
Q 579.005224 93.684487 575.612849 95.400041 
Q 572.220473 97.1 568.603809 97.1 
Q 560.431268 97.1 555.658112 86.93144 
Q 550.884956 76.76288 550.884956 59.373394 
Q 550.884956 41.781161 555.74222 31.69058 
Q 560.606494 21.6 569.066405 21.6 
Q 572.325609 21.6 575.31146 22.972444 
Q 578.30432 24.329291 580.953737 27.011795 
L 580.953737 42.061888 
Q 578.220212 38.615183 575.514722 36.915224 
Q 572.809233 35.199669 570.089725 35.199669 
Q 565.057235 35.199669 562.330718 41.469242 
Q 559.604201 47.723218 559.604201 59.373394 
Q 559.604201 70.914398 562.232591 77.215162 
Q 564.860981 83.500331 569.697219 83.500331 
Q 571.014919 83.500331 572.143374 83.141624 
Q 573.271829 82.767321 574.168986 81.987523 
L 574.168986 67.857591 
L 569.017342 67.857591 
L 569.017342 55.271659 
L 582.159292 55.271659 
z
" style="fill:#ffa600;"/>
   </g>
   <g id="patch_35">
    <path clip-path="url(#p52caeec988)" d="M 605.46907 146.497 
L 593.441463 146.497 
L 591.542367 157.5 
L 583.80531 157.5 
L 594.854595 97.1 
L 604.030361 97.1 
L 615.079646 157.5 
L 607.348983 157.5 
z
M 595.359741 135.286884 
L 603.531609 135.286884 
L 599.452069 111.261509 
z
" style="fill:#008000;"/>
   </g>
   <g id="patch_36">
    <path clip-path="url(#p52caeec988)" d="M 615.079646 90.268973 
Q 611.925578 93.684487 608.533203 95.400041 
Q 605.140827 97.1 601.524163 97.1 
Q 593.351622 97.1 588.578466 86.93144 
Q 583.80531 76.76288 583.80531 59.373394 
Q 583.80531 41.781161 588.662574 31.69058 
Q 593.526848 21.6 601.986759 21.6 
Q 605.245963 21.6 608.231814 22.972444 
Q 611.224674 24.329291 613.874091 27.011795 
L 613.874091 42.061888 
Q 611.140566 38.615183 608.435076 36.915224 
Q 605.729587 35.199669 603.010079 35.199669 
Q 597.977589 35.199669 595.251072 41.469242 
Q 592.524555 47.723218 592.524555 59.373394 
Q 592.524555 70.914398 595.152945 77.215162 
Q 597.781335 83.500331 602.617573 83.500331 
Q 603.935272 83.500331 605.063728 83.141624 
Q 606.192183 82.767321 607.08934 81.987523 
L 607.08934 67.857591 
L 601.937696 67.857591 
L 601.937696 55.271659 
L 615.079646 55.271659 
z
" style="fill:#ffa600;"/>
   </g>
   <g id="patch_37">
    <path clip-path="url(#p52caeec988)" d="M 648 156.133795 
Q 644.845932 156.816897 641.453557 157.160008 
Q 638.061181 157.5 634.444517 157.5 
Q 626.271976 157.5 621.49882 155.466288 
Q 616.725664 153.432576 616.725664 149.954679 
Q 616.725664 146.436232 621.582928 144.418116 
Q 626.447202 142.4 634.907113 142.4 
Q 638.166317 142.4 641.152168 142.674489 
Q 644.145028 142.945858 646.794445 143.482359 
L 646.794445 146.492378 
Q 644.06092 145.803037 641.35543 145.463045 
Q 638.649941 145.119934 635.930433 145.119934 
Q 630.897943 145.119934 628.171426 146.373848 
Q 625.444909 147.624644 625.444909 149.954679 
Q 625.444909 152.26288 628.073299 153.523032 
Q 630.701689 154.780066 635.537927 154.780066 
Q 636.855626 154.780066 637.984082 154.708325 
Q 639.112537 154.633464 640.009694 154.477505 
L 640.009694 151.651518 
L 634.85805 151.651518 
L 634.85805 149.134332 
L 648 149.134332 
z
" style="fill:#ffa600;"/>
   </g>
   <g id="patch_38">
    <path clip-path="url(#p52caeec988)" d="M 648 140.235282 
Q 645.383956 141.308283 642.555161 141.851023 
Q 639.726366 142.4 636.645422 142.4 
Q 627.457749 142.4 622.091706 138.332576 
Q 616.725664 134.265152 616.725664 127.309358 
Q 616.725664 120.32861 622.091706 116.267424 
Q 627.457749 112.2 636.645422 112.2 
Q 639.726366 112.2 642.555161 112.748977 
Q 645.383956 113.291717 648 114.364718 
L 648 120.384755 
Q 645.360317 118.962404 642.79943 118.301136 
Q 640.238543 117.639868 637.409749 117.639868 
Q 632.335253 117.639868 629.427662 120.216319 
Q 626.52795 122.786532 626.52795 127.309358 
Q 626.52795 131.813468 629.427662 134.389919 
Q 632.335253 136.960132 637.409749 136.960132 
Q 640.238543 136.960132 642.79943 136.298864 
Q 645.360317 135.631357 648 134.209006 
z
" style="fill:#0000ff;"/>
   </g>
   <g id="patch_39">
    <path clip-path="url(#p52caeec988)" d="M 638.389424 95.695499 
L 626.361817 95.695499 
L 624.462721 112.2 
L 616.725664 112.2 
L 627.774949 21.6 
L 636.950715 21.6 
L 648 112.2 
L 640.269337 112.2 
z
M 628.280095 78.880326 
L 636.451963 78.880326 
L 632.372423 42.842263 
z
" style="fill:#008000;"/>
   </g>
  </g>
 </g>
 <defs>
  <clipPath id="p52caeec988">
   <rect height="135.9" width="558" x="90" y="21.6"/>
  </clipPath>
 </defs>
</svg>
