<?xml version="1.0" encoding="utf-8" standalone="no"?>
<!DOCTYPE svg PUBLIC "-//W3C//DTD SVG 1.1//EN"
  "http://www.w3.org/Graphics/SVG/1.1/DTD/svg11.dtd">
<!-- Created with matplotlib (https://matplotlib.org/) -->
<svg height="180pt" version="1.1" viewBox="0 0 720 180" width="720pt" xmlns="http://www.w3.org/2000/svg" xmlns:xlink="http://www.w3.org/1999/xlink">
 <metadata>
  <rdf:RDF xmlns:cc="http://creativecommons.org/ns#" xmlns:dc="http://purl.org/dc/elements/1.1/" xmlns:rdf="http://www.w3.org/1999/02/22-rdf-syntax-ns#">
   <cc:Work>
    <dc:type rdf:resource="http://purl.org/dc/dcmitype/StillImage"/>
    <dc:date>2021-08-04T23:32:59.589664</dc:date>
    <dc:format>image/svg+xml</dc:format>
    <dc:creator>
     <cc:Agent>
      <dc:title>Matplotlib v3.3.2, https://matplotlib.org/</dc:title>
     </cc:Agent>
    </dc:creator>
   </cc:Work>
  </rdf:RDF>
 </metadata>
 <defs>
  <style type="text/css">*{stroke-linecap:butt;stroke-linejoin:round;}</style>
 </defs>
 <g id="figure_1">
  <g id="patch_1">
   <path d="M 0 180 
L 720 180 
L 720 0 
L 0 0 
z
" style="fill:none;"/>
  </g>
  <g id="axes_1">
   <g id="line2d_1">
    <path clip-path="url(#p07e04a0203)" d="M 90 157.5 
L 648 157.5 
" style="fill:none;stroke:#000000;stroke-linecap:square;stroke-width:0.5;"/>
   </g>
   <g id="patch_2">
    <path clip-path="url(#p07e04a0203)" d="M 111.66376 154.74925 
L 99.636153 154.74925 
L 97.737057 157.5 
L 90 157.5 
L 101.049285 142.4 
L 110.225051 142.4 
L 121.274336 157.5 
L 113.543673 157.5 
z
M 101.554432 151.946721 
L 109.726299 151.946721 
L 105.64676 145.940377 
z
" style="fill:#008000;"/>
   </g>
   <g id="patch_3">
    <path clip-path="url(#p07e04a0203)" d="M 90 97.1 
L 121.274336 97.1 
L 121.274336 105.934762 
L 110.022848 105.934762 
L 110.022848 142.4 
L 101.273307 142.4 
L 101.273307 105.934762 
L 90 105.934762 
z
" style="fill:#ff0000;"/>
   </g>
   <g id="patch_4">
    <path clip-path="url(#p07e04a0203)" d="M 121.274336 90.268973 
Q 118.120268 93.684487 114.727893 95.400041 
Q 111.335518 97.1 107.718853 97.1 
Q 99.546312 97.1 94.773156 86.93144 
Q 90 76.76288 90 59.373394 
Q 90 41.781161 94.857265 31.69058 
Q 99.721538 21.6 108.18145 21.6 
Q 111.440653 21.6 114.426504 22.972444 
Q 117.419364 24.329291 120.068781 27.011795 
L 120.068781 42.061888 
Q 117.335256 38.615183 114.629766 36.915224 
Q 111.924277 35.199669 109.204769 35.199669 
Q 104.172279 35.199669 101.445762 41.469242 
Q 98.719246 47.723218 98.719246 59.373394 
Q 98.719246 70.914398 101.347636 77.215162 
Q 103.976026 83.500331 108.812263 83.500331 
Q 110.129963 83.500331 111.258418 83.141624 
Q 112.386874 82.767321 113.284031 81.987523 
L 113.284031 67.857591 
L 108.132386 67.857591 
L 108.132386 55.271659 
L 121.274336 55.271659 
z
" style="fill:#ffa600;"/>
   </g>
   <g id="patch_5">
    <path clip-path="url(#p07e04a0203)" d="M 154.19469 156.417641 
Q 151.578646 156.954142 148.749851 157.225511 
Q 145.921056 157.5 142.840113 157.5 
Q 133.652439 157.5 128.286397 155.466288 
Q 122.920354 153.432576 122.920354 149.954679 
Q 122.920354 146.464305 128.286397 144.433712 
Q 133.652439 142.4 142.840113 142.4 
Q 145.921056 142.4 148.749851 142.674489 
Q 151.578646 142.945858 154.19469 143.482359 
L 154.19469 146.492378 
Q 151.555007 145.781202 148.99412 145.450568 
Q 146.433234 145.119934 143.604439 145.119934 
Q 138.529943 145.119934 135.622352 146.408159 
Q 132.72264 147.693266 132.72264 149.954679 
Q 132.72264 152.206734 135.622352 153.49496 
Q 138.529943 154.780066 143.604439 154.780066 
Q 146.433234 154.780066 148.99412 154.449432 
Q 151.555007 154.115679 154.19469 153.404503 
z
" style="fill:#0000ff;"/>
   </g>
   <g id="patch_6">
    <path clip-path="url(#p07e04a0203)" d="M 144.584114 136.8985 
L 132.556507 136.8985 
L 130.657411 142.4 
L 122.920354 142.4 
L 133.969639 112.2 
L 143.145405 112.2 
L 154.19469 142.4 
L 146.464027 142.4 
z
M 134.474786 131.293442 
L 142.646653 131.293442 
L 138.567114 119.280754 
z
" style="fill:#008000;"/>
   </g>
   <g id="patch_7">
    <path clip-path="url(#p07e04a0203)" d="M 122.920354 82 
L 154.19469 82 
L 154.19469 87.889841 
L 142.943202 87.889841 
L 142.943202 112.2 
L 134.193661 112.2 
L 134.193661 87.889841 
L 122.920354 87.889841 
z
" style="fill:#ff0000;"/>
   </g>
   <g id="patch_8">
    <path clip-path="url(#p07e04a0203)" d="M 154.19469 76.535179 
Q 151.040622 79.267589 147.648247 80.640033 
Q 144.255872 82 140.639207 82 
Q 132.466666 82 127.69351 73.865152 
Q 122.920354 65.730304 122.920354 51.818715 
Q 122.920354 37.744929 127.777619 29.672464 
Q 132.641892 21.6 141.101804 21.6 
Q 144.361007 21.6 147.346858 22.697955 
Q 150.339718 23.783433 152.989135 25.929436 
L 152.989135 37.96951 
Q 150.25561 35.212146 147.55012 33.852179 
Q 144.844631 32.479736 142.125123 32.479736 
Q 137.092633 32.479736 134.366116 37.495394 
Q 131.6396 42.498575 131.6396 51.818715 
Q 131.6396 61.051518 134.26799 66.09213 
Q 136.89638 71.120264 141.732617 71.120264 
Q 143.050317 71.120264 144.178772 70.833299 
Q 145.307228 70.533857 146.204385 69.910019 
L 146.204385 58.606073 
L 141.05274 58.606073 
L 141.05274 48.537327 
L 154.19469 48.537327 
z
" style="fill:#ffa600;"/>
   </g>
   <g id="patch_9">
    <path clip-path="url(#p07e04a0203)" d="M 187.115044 154.767589 
Q 183.960976 156.133795 180.568601 156.820017 
Q 177.176226 157.5 173.559561 157.5 
Q 165.38702 157.5 160.613864 153.432576 
Q 155.840708 149.365152 155.840708 142.409358 
Q 155.840708 135.372464 160.697973 131.336232 
Q 165.562246 127.3 174.022158 127.3 
Q 177.281361 127.3 180.267212 127.848977 
Q 183.260072 128.391717 185.909489 129.464718 
L 185.909489 135.484755 
Q 183.175964 134.106073 180.470474 133.42609 
Q 177.764985 132.739868 175.045477 132.739868 
Q 170.012987 132.739868 167.28647 135.247697 
Q 164.559954 137.749287 164.559954 142.409358 
Q 164.559954 147.025759 167.188344 149.546065 
Q 169.816734 152.060132 174.652971 152.060132 
Q 175.970671 152.060132 177.099126 151.916649 
Q 178.227582 151.766928 179.124739 151.455009 
L 179.124739 145.803037 
L 173.973094 145.803037 
L 173.973094 140.768663 
L 187.115044 140.768663 
z
" style="fill:#ffa600;"/>
   </g>
   <g id="patch_10">
    <path clip-path="url(#p07e04a0203)" d="M 177.504468 108.044749 
L 165.476861 108.044749 
L 163.577765 127.3 
L 155.840708 127.3 
L 166.889993 21.6 
L 176.065759 21.6 
L 187.115044 127.3 
L 179.384381 127.3 
z
M 167.39514 88.427047 
L 175.567007 88.427047 
L 171.487467 46.38264 
z
" style="fill:#008000;"/>
   </g>
   <g id="patch_11">
    <path clip-path="url(#p07e04a0203)" d="M 210.424822 132.743249 
L 198.397215 132.743249 
L 196.498119 157.5 
L 188.761062 157.5 
L 199.810347 21.6 
L 208.986113 21.6 
L 220.035398 157.5 
L 212.304735 157.5 
z
M 200.315494 107.520489 
L 208.487361 107.520489 
L 204.407821 53.463395 
z
" style="fill:#008000;"/>
   </g>
   <g id="patch_12">
    <path clip-path="url(#p07e04a0203)" d="M 221.681416 142.4 
L 252.955752 142.4 
L 252.955752 145.344921 
L 241.704264 145.344921 
L 241.704264 157.5 
L 232.954723 157.5 
L 232.954723 145.344921 
L 221.681416 145.344921 
z
" style="fill:#ff0000;"/>
   </g>
   <g id="patch_13">
    <path clip-path="url(#p07e04a0203)" d="M 243.345176 136.8985 
L 231.317569 136.8985 
L 229.418473 142.4 
L 221.681416 142.4 
L 232.730701 112.2 
L 241.906467 112.2 
L 252.955752 142.4 
L 245.225089 142.4 
z
M 233.235848 131.293442 
L 241.407715 131.293442 
L 237.328175 119.280754 
z
" style="fill:#008000;"/>
   </g>
   <g id="patch_14">
    <path clip-path="url(#p07e04a0203)" d="M 252.955752 104.002768 
Q 249.801684 108.101384 246.409309 110.16005 
Q 243.016934 112.2 239.400269 112.2 
Q 231.227728 112.2 226.454572 99.997728 
Q 221.681416 87.795455 221.681416 66.928073 
Q 221.681416 45.817393 226.538681 33.708697 
Q 231.402954 21.6 239.862866 21.6 
Q 243.122069 21.6 246.10792 23.246932 
Q 249.10078 24.87515 251.750197 28.094154 
L 251.750197 46.154266 
Q 249.016672 42.018219 246.311182 39.978269 
Q 243.605693 37.919603 240.886185 37.919603 
Q 235.853695 37.919603 233.127178 45.44309 
Q 230.400662 52.947862 230.400662 66.928073 
Q 230.400662 80.777277 233.029052 88.338195 
Q 235.657442 95.880397 240.493679 95.880397 
Q 241.811379 95.880397 242.939834 95.449948 
Q 244.06829 95.000785 244.965447 94.065028 
L 244.965447 77.10911 
L 239.813802 77.10911 
L 239.813802 62.00599 
L 252.955752 62.00599 
z
" style="fill:#ffa600;"/>
   </g>
   <g id="patch_15">
    <path clip-path="url(#p07e04a0203)" d="M 276.26553 132.743249 
L 264.237923 132.743249 
L 262.338827 157.5 
L 254.60177 157.5 
L 265.651055 21.6 
L 274.826821 21.6 
L 285.876106 157.5 
L 278.145443 157.5 
z
M 266.156202 107.520489 
L 274.328069 107.520489 
L 270.248529 53.463395 
z
" style="fill:#008000;"/>
   </g>
   <g id="patch_16">
    <path clip-path="url(#p07e04a0203)" d="M 287.522124 21.6 
L 318.79646 21.6 
L 318.79646 48.104286 
L 307.544972 48.104286 
L 307.544972 157.5 
L 298.795431 157.5 
L 298.795431 48.104286 
L 287.522124 48.104286 
z
" style="fill:#ff0000;"/>
   </g>
   <g id="patch_17">
    <path clip-path="url(#p07e04a0203)" d="M 351.716814 145.204152 
Q 348.562746 151.352076 345.170371 154.440074 
Q 341.777996 157.5 338.161331 157.5 
Q 329.98879 157.5 325.215634 139.196592 
Q 320.442478 120.893183 320.442478 89.592109 
Q 320.442478 57.92609 325.299743 39.763045 
Q 330.164016 21.6 338.623928 21.6 
Q 341.883131 21.6 344.868982 24.070399 
Q 347.861842 26.512725 350.511259 31.341231 
L 350.511259 58.431398 
Q 347.777734 52.227329 345.072244 49.167403 
Q 342.366755 46.079405 339.647247 46.079405 
Q 334.614757 46.079405 331.88824 57.364635 
Q 329.161724 68.621793 329.161724 89.592109 
Q 329.161724 110.365916 331.790114 121.707292 
Q 334.418504 133.020595 339.254741 133.020595 
Q 340.572441 133.020595 341.700896 132.374923 
Q 342.829351 131.701177 343.726509 130.297542 
L 343.726509 104.863665 
L 338.574864 104.863665 
L 338.574864 82.208986 
L 351.716814 82.208986 
z
" style="fill:#ffa600;"/>
   </g>
   <g id="patch_18">
    <path clip-path="url(#p07e04a0203)" d="M 375.026592 132.743249 
L 362.998985 132.743249 
L 361.099889 157.5 
L 353.362832 157.5 
L 364.412117 21.6 
L 373.587883 21.6 
L 384.637168 157.5 
L 376.906505 157.5 
z
M 364.917264 107.520489 
L 373.089131 107.520489 
L 369.009591 53.463395 
z
" style="fill:#008000;"/>
   </g>
   <g id="patch_19">
    <path clip-path="url(#p07e04a0203)" d="M 386.283186 21.6 
L 417.557522 21.6 
L 417.557522 48.104286 
L 406.306034 48.104286 
L 406.306034 157.5 
L 397.556493 157.5 
L 397.556493 48.104286 
L 386.283186 48.104286 
z
" style="fill:#ff0000;"/>
   </g>
   <g id="patch_20">
    <path clip-path="url(#p07e04a0203)" d="M 450.477876 145.204152 
Q 447.323808 151.352076 443.931433 154.440074 
Q 440.539057 157.5 436.922393 157.5 
Q 428.749852 157.5 423.976696 139.196592 
Q 419.20354 120.893183 419.20354 89.592109 
Q 419.20354 57.92609 424.060805 39.763045 
Q 428.925078 21.6 437.384989 21.6 
Q 440.644193 21.6 443.630044 24.070399 
Q 446.622904 26.512725 449.272321 31.341231 
L 449.272321 58.431398 
Q 446.538796 52.227329 443.833306 49.167403 
Q 441.127817 46.079405 438.408309 46.079405 
Q 433.375819 46.079405 430.649302 57.364635 
Q 427.922786 68.621793 427.922786 89.592109 
Q 427.922786 110.365916 430.551176 121.707292 
Q 433.179565 133.020595 438.015803 133.020595 
Q 439.333503 133.020595 440.461958 132.374923 
Q 441.590413 131.701177 442.487571 130.297542 
L 442.487571 104.863665 
L 437.335926 104.863665 
L 437.335926 82.208986 
L 450.477876 82.208986 
z
" style="fill:#ffa600;"/>
   </g>
   <g id="patch_21">
    <path clip-path="url(#p07e04a0203)" d="M 473.787654 151.9985 
L 461.760047 151.9985 
L 459.860951 157.5 
L 452.123894 157.5 
L 463.173179 127.3 
L 472.348945 127.3 
L 483.39823 157.5 
L 475.667567 157.5 
z
M 463.678326 146.393442 
L 471.850193 146.393442 
L 467.770653 134.380754 
z
" style="fill:#008000;"/>
   </g>
   <g id="patch_22">
    <path clip-path="url(#p07e04a0203)" d="M 483.39823 125.135282 
Q 480.782186 126.208283 477.953391 126.751023 
Q 475.124596 127.3 472.043652 127.3 
Q 462.855979 127.3 457.489936 123.232576 
Q 452.123894 119.165152 452.123894 112.209358 
Q 452.123894 105.22861 457.489936 101.167424 
Q 462.855979 97.1 472.043652 97.1 
Q 475.124596 97.1 477.953391 97.648977 
Q 480.782186 98.191717 483.39823 99.264718 
L 483.39823 105.284755 
Q 480.758547 103.862404 478.19766 103.201136 
Q 475.636773 102.539868 472.807979 102.539868 
Q 467.733483 102.539868 464.825892 105.116319 
Q 461.92618 107.686532 461.92618 112.209358 
Q 461.92618 116.713468 464.825892 119.289919 
Q 467.733483 121.860132 472.807979 121.860132 
Q 475.636773 121.860132 478.19766 121.198864 
Q 480.758547 120.531357 483.39823 119.109006 
z
" style="fill:#0000ff;"/>
   </g>
   <g id="patch_23">
    <path clip-path="url(#p07e04a0203)" d="M 483.39823 94.367589 
Q 480.244162 95.733795 476.851787 96.420017 
Q 473.459411 97.1 469.842747 97.1 
Q 461.670206 97.1 456.89705 93.032576 
Q 452.123894 88.965152 452.123894 82.009358 
Q 452.123894 74.972464 456.981158 70.936232 
Q 461.845432 66.9 470.305343 66.9 
Q 473.564547 66.9 476.550398 67.448977 
Q 479.543258 67.991717 482.192675 69.064718 
L 482.192675 75.084755 
Q 479.45915 73.706073 476.75366 73.02609 
Q 474.048171 72.339868 471.328663 72.339868 
Q 466.296173 72.339868 463.569656 74.847697 
Q 460.84314 77.349287 460.84314 82.009358 
Q 460.84314 86.625759 463.471529 89.146065 
Q 466.099919 91.660132 470.936157 91.660132 
Q 472.253857 91.660132 473.382312 91.516649 
Q 474.510767 91.366928 475.407925 91.055009 
L 475.407925 85.403037 
L 470.25628 85.403037 
L 470.25628 80.368663 
L 483.39823 80.368663 
z
" style="fill:#ffa600;"/>
   </g>
   <g id="patch_24">
    <path clip-path="url(#p07e04a0203)" d="M 452.123894 21.6 
L 483.39823 21.6 
L 483.39823 30.434762 
L 472.146742 30.434762 
L 472.146742 66.9 
L 463.397201 66.9 
L 463.397201 30.434762 
L 452.123894 30.434762 
z
" style="fill:#ff0000;"/>
   </g>
   <g id="patch_25">
    <path clip-path="url(#p07e04a0203)" d="M 506.708008 154.74925 
L 494.680401 154.74925 
L 492.781305 157.5 
L 485.044248 157.5 
L 496.093533 142.4 
L 505.269299 142.4 
L 516.318584 157.5 
L 508.587921 157.5 
z
M 496.59868 151.946721 
L 504.770547 151.946721 
L 500.691007 145.940377 
z
" style="fill:#008000;"/>
   </g>
   <g id="patch_26">
    <path clip-path="url(#p07e04a0203)" d="M 516.318584 139.152923 
Q 513.70254 140.762425 510.873745 141.576534 
Q 508.04495 142.4 504.964006 142.4 
Q 495.776333 142.4 490.41029 136.298864 
Q 485.044248 130.197728 485.044248 119.764036 
Q 485.044248 109.292915 490.41029 103.201136 
Q 495.776333 97.1 504.964006 97.1 
Q 508.04495 97.1 510.873745 97.923466 
Q 513.70254 98.737575 516.318584 100.347077 
L 516.318584 109.377133 
Q 513.678901 107.243607 511.118014 106.251704 
Q 508.557127 105.259802 505.728333 105.259802 
Q 500.653837 105.259802 497.746246 109.124478 
Q 494.846534 112.979798 494.846534 119.764036 
Q 494.846534 126.520202 497.746246 130.384879 
Q 500.653837 134.240198 505.728333 134.240198 
Q 508.557127 134.240198 511.118014 133.248296 
Q 513.678901 132.247036 516.318584 130.11351 
z
" style="fill:#0000ff;"/>
   </g>
   <g id="patch_27">
    <path clip-path="url(#p07e04a0203)" d="M 516.318584 90.268973 
Q 513.164516 93.684487 509.772141 95.400041 
Q 506.379765 97.1 502.763101 97.1 
Q 494.59056 97.1 489.817404 86.93144 
Q 485.044248 76.76288 485.044248 59.373394 
Q 485.044248 41.781161 489.901512 31.69058 
Q 494.765786 21.6 503.225697 21.6 
Q 506.484901 21.6 509.470752 22.972444 
Q 512.463612 24.329291 515.113029 27.011795 
L 515.113029 42.061888 
Q 512.379504 38.615183 509.674014 36.915224 
Q 506.968525 35.199669 504.249017 35.199669 
Q 499.216527 35.199669 496.49001 41.469242 
Q 493.763493 47.723218 493.763493 59.373394 
Q 493.763493 70.914398 496.391883 77.215162 
Q 499.020273 83.500331 503.856511 83.500331 
Q 505.174211 83.500331 506.302666 83.141624 
Q 507.431121 82.767321 508.328279 81.987523 
L 508.328279 67.857591 
L 503.176634 67.857591 
L 503.176634 55.271659 
L 516.318584 55.271659 
z
" style="fill:#ffa600;"/>
   </g>
   <g id="patch_28">
    <path clip-path="url(#p07e04a0203)" d="M 549.238938 156.133795 
Q 546.08487 156.816897 542.692495 157.160008 
Q 539.300119 157.5 535.683455 157.5 
Q 527.510914 157.5 522.737758 155.466288 
Q 517.964602 153.432576 517.964602 149.954679 
Q 517.964602 146.436232 522.821866 144.418116 
Q 527.68614 142.4 536.146051 142.4 
Q 539.405255 142.4 542.391106 142.674489 
Q 545.383966 142.945858 548.033383 143.482359 
L 548.033383 146.492378 
Q 545.299858 145.803037 542.594368 145.463045 
Q 539.888879 145.119934 537.169371 145.119934 
Q 532.136881 145.119934 529.410364 146.373848 
Q 526.683847 147.624644 526.683847 149.954679 
Q 526.683847 152.26288 529.312237 153.523032 
Q 531.940627 154.780066 536.776865 154.780066 
Q 538.094565 154.780066 539.22302 154.708325 
Q 540.351475 154.633464 541.248633 154.477505 
L 541.248633 151.651518 
L 536.096988 151.651518 
L 536.096988 149.134332 
L 549.238938 149.134332 
z
" style="fill:#ffa600;"/>
   </g>
   <g id="patch_29">
    <path clip-path="url(#p07e04a0203)" d="M 539.628362 131.397 
L 527.600755 131.397 
L 525.701659 142.4 
L 517.964602 142.4 
L 529.013887 82 
L 538.189653 82 
L 549.238938 142.4 
L 541.508275 142.4 
z
M 529.519034 120.186884 
L 537.690901 120.186884 
L 533.611361 96.161509 
z
" style="fill:#008000;"/>
   </g>
   <g id="patch_30">
    <path clip-path="url(#p07e04a0203)" d="M 549.238938 77.670564 
Q 546.622894 79.816567 543.794099 80.902045 
Q 540.965304 82 537.88436 82 
Q 528.696687 82 523.330644 73.865152 
Q 517.964602 65.730304 517.964602 51.818715 
Q 517.964602 37.85722 523.330644 29.734848 
Q 528.696687 21.6 537.88436 21.6 
Q 540.965304 21.6 543.794099 22.697955 
Q 546.622894 23.783433 549.238938 25.929436 
L 549.238938 37.96951 
Q 546.599255 35.124809 544.038368 33.802272 
Q 541.477481 32.479736 538.648687 32.479736 
Q 533.574191 32.479736 530.6666 37.632638 
Q 527.766888 42.773063 527.766888 51.818715 
Q 527.766888 60.826937 530.6666 65.979839 
Q 533.574191 71.120264 538.648687 71.120264 
Q 541.477481 71.120264 544.038368 69.797728 
Q 546.599255 68.462714 549.238938 65.618013 
z
" style="fill:#0000ff;"/>
   </g>
   <g id="patch_31">
    <path clip-path="url(#p07e04a0203)" d="M 582.159292 155.335282 
Q 579.543248 156.408283 576.714453 156.951023 
Q 573.885658 157.5 570.804714 157.5 
Q 561.617041 157.5 556.250998 153.432576 
Q 550.884956 149.365152 550.884956 142.409358 
Q 550.884956 135.42861 556.250998 131.367424 
Q 561.617041 127.3 570.804714 127.3 
Q 573.885658 127.3 576.714453 127.848977 
Q 579.543248 128.391717 582.159292 129.464718 
L 582.159292 135.484755 
Q 579.519609 134.062404 576.958722 133.401136 
Q 574.397835 132.739868 571.569041 132.739868 
Q 566.494545 132.739868 563.586954 135.316319 
Q 560.687242 137.886532 560.687242 142.409358 
Q 560.687242 146.913468 563.586954 149.489919 
Q 566.494545 152.060132 571.569041 152.060132 
Q 574.397835 152.060132 576.958722 151.398864 
Q 579.519609 150.731357 582.159292 149.309006 
z
" style="fill:#0000ff;"/>
   </g>
   <g id="patch_32">
    <path clip-path="url(#p07e04a0203)" d="M 582.159292 124.567589 
Q 579.005224 125.933795 575.612849 126.620017 
Q 572.220473 127.3 568.603809 127.3 
Q 560.431268 127.3 555.658112 123.232576 
Q 550.884956 119.165152 550.884956 112.209358 
Q 550.884956 105.172464 555.74222 101.136232 
Q 560.606494 97.1 569.066405 97.1 
Q 572.325609 97.1 575.31146 97.648977 
Q 578.30432 98.191717 580.953737 99.264718 
L 580.953737 105.284755 
Q 578.220212 103.906073 575.514722 103.22609 
Q 572.809233 102.539868 570.089725 102.539868 
Q 565.057235 102.539868 562.330718 105.047697 
Q 559.604201 107.549287 559.604201 112.209358 
Q 559.604201 116.825759 562.232591 119.346065 
Q 564.860981 121.860132 569.697219 121.860132 
Q 571.014919 121.860132 572.143374 121.716649 
Q 573.271829 121.566928 574.168986 121.255009 
L 574.168986 115.603037 
L 569.017342 115.603037 
L 569.017342 110.568663 
L 582.159292 110.568663 
z
" style="fill:#ffa600;"/>
   </g>
   <g id="patch_33">
    <path clip-path="url(#p07e04a0203)" d="M 550.884956 66.9 
L 582.159292 66.9 
L 582.159292 72.789841 
L 570.907804 72.789841 
L 570.907804 97.1 
L 562.158263 97.1 
L 562.158263 72.789841 
L 550.884956 72.789841 
z
" style="fill:#ff0000;"/>
   </g>
   <g id="patch_34">
    <path clip-path="url(#p07e04a0203)" d="M 572.548716 58.64775 
L 560.521109 58.64775 
L 558.622013 66.9 
L 550.884956 66.9 
L 561.934241 21.6 
L 571.110007 21.6 
L 582.159292 66.9 
L 574.428629 66.9 
z
M 562.439387 50.240163 
L 570.611255 50.240163 
L 566.531715 32.221132 
z
" style="fill:#008000;"/>
   </g>
   <g id="patch_35">
    <path clip-path="url(#p07e04a0203)" d="M 615.079646 156.417641 
Q 612.463602 156.954142 609.634807 157.225511 
Q 606.806012 157.5 603.725068 157.5 
Q 594.537395 157.5 589.171352 155.466288 
Q 583.80531 153.432576 583.80531 149.954679 
Q 583.80531 146.464305 589.171352 144.433712 
Q 594.537395 142.4 603.725068 142.4 
Q 606.806012 142.4 609.634807 142.674489 
Q 612.463602 142.945858 615.079646 143.482359 
L 615.079646 146.492378 
Q 612.439963 145.781202 609.879076 145.450568 
Q 607.318189 145.119934 604.489395 145.119934 
Q 599.414899 145.119934 596.507308 146.408159 
Q 593.607596 147.693266 593.607596 149.954679 
Q 593.607596 152.206734 596.507308 153.49496 
Q 599.414899 154.780066 604.489395 154.780066 
Q 607.318189 154.780066 609.879076 154.449432 
Q 612.439963 154.115679 615.079646 153.404503 
z
" style="fill:#0000ff;"/>
   </g>
   <g id="patch_36">
    <path clip-path="url(#p07e04a0203)" d="M 605.46907 136.8985 
L 593.441463 136.8985 
L 591.542367 142.4 
L 583.80531 142.4 
L 594.854595 112.2 
L 604.030361 112.2 
L 615.079646 142.4 
L 607.348983 142.4 
z
M 595.359741 131.293442 
L 603.531609 131.293442 
L 599.452069 119.280754 
z
" style="fill:#008000;"/>
   </g>
   <g id="patch_37">
    <path clip-path="url(#p07e04a0203)" d="M 615.079646 108.101384 
Q 611.925578 110.150692 608.533203 111.180025 
Q 605.140827 112.2 601.524163 112.2 
Q 593.351622 112.2 588.578466 106.098864 
Q 583.80531 99.997728 583.80531 89.564036 
Q 583.80531 79.008697 588.662574 72.954348 
Q 593.526848 66.9 601.986759 66.9 
Q 605.245963 66.9 608.231814 67.723466 
Q 611.224674 68.537575 613.874091 70.147077 
L 613.874091 79.177133 
Q 611.140566 77.10911 608.435076 76.089134 
Q 605.729587 75.059802 603.010079 75.059802 
Q 597.977589 75.059802 595.251072 78.821545 
Q 592.524555 82.573931 592.524555 89.564036 
Q 592.524555 96.488639 595.152945 100.269097 
Q 597.781335 104.040198 602.617573 104.040198 
Q 603.935272 104.040198 605.063728 103.824974 
Q 606.192183 103.600392 607.08934 103.132514 
L 607.08934 94.654555 
L 601.937696 94.654555 
L 601.937696 87.102995 
L 615.079646 87.102995 
z
" style="fill:#ffa600;"/>
   </g>
   <g id="patch_38">
    <path clip-path="url(#p07e04a0203)" d="M 583.80531 21.6 
L 615.079646 21.6 
L 615.079646 30.434762 
L 603.828158 30.434762 
L 603.828158 66.9 
L 595.078617 66.9 
L 595.078617 30.434762 
L 583.80531 30.434762 
z
" style="fill:#ff0000;"/>
   </g>
   <g id="patch_39">
    <path clip-path="url(#p07e04a0203)" d="M 638.389424 154.74925 
L 626.361817 154.74925 
L 624.462721 157.5 
L 616.725664 157.5 
L 627.774949 142.4 
L 636.950715 142.4 
L 648 157.5 
L 640.269337 157.5 
z
M 628.280095 151.946721 
L 636.451963 151.946721 
L 632.372423 145.940377 
z
" style="fill:#008000;"/>
   </g>
   <g id="patch_40">
    <path clip-path="url(#p07e04a0203)" d="M 648 138.301384 
Q 644.845932 140.350692 641.453557 141.380025 
Q 638.061181 142.4 634.444517 142.4 
Q 626.271976 142.4 621.49882 136.298864 
Q 616.725664 130.197728 616.725664 119.764036 
Q 616.725664 109.208697 621.582928 103.154348 
Q 626.447202 97.1 634.907113 97.1 
Q 638.166317 97.1 641.152168 97.923466 
Q 644.145028 98.737575 646.794445 100.347077 
L 646.794445 109.377133 
Q 644.06092 107.30911 641.35543 106.289134 
Q 638.649941 105.259802 635.930433 105.259802 
Q 630.897943 105.259802 628.171426 109.021545 
Q 625.444909 112.773931 625.444909 119.764036 
Q 625.444909 126.688639 628.073299 130.469097 
Q 630.701689 134.240198 635.537927 134.240198 
Q 636.855626 134.240198 637.984082 134.024974 
Q 639.112537 133.800392 640.009694 133.332514 
L 640.009694 124.854555 
L 634.85805 124.854555 
L 634.85805 117.302995 
L 648 117.302995 
z
" style="fill:#ffa600;"/>
   </g>
   <g id="patch_41">
    <path clip-path="url(#p07e04a0203)" d="M 616.725664 21.6 
L 648 21.6 
L 648 36.324604 
L 636.748512 36.324604 
L 636.748512 97.1 
L 627.998971 97.1 
L 627.998971 36.324604 
L 616.725664 36.324604 
z
" style="fill:#ff0000;"/>
   </g>
  </g>
 </g>
 <defs>
  <clipPath id="p07e04a0203">
   <rect height="135.9" width="558" x="90" y="21.6"/>
  </clipPath>
 </defs>
</svg>
