<?xml version="1.0" encoding="utf-8" standalone="no"?>
<!DOCTYPE svg PUBLIC "-//W3C//DTD SVG 1.1//EN"
  "http://www.w3.org/Graphics/SVG/1.1/DTD/svg11.dtd">
<!-- Created with matplotlib (https://matplotlib.org/) -->
<svg height="180pt" version="1.1" viewBox="0 0 720 180" width="720pt" xmlns="http://www.w3.org/2000/svg" xmlns:xlink="http://www.w3.org/1999/xlink">
 <metadata>
  <rdf:RDF xmlns:cc="http://creativecommons.org/ns#" xmlns:dc="http://purl.org/dc/elements/1.1/" xmlns:rdf="http://www.w3.org/1999/02/22-rdf-syntax-ns#">
   <cc:Work>
    <dc:type rdf:resource="http://purl.org/dc/dcmitype/StillImage"/>
    <dc:date>2021-08-04T23:33:04.698664</dc:date>
    <dc:format>image/svg+xml</dc:format>
    <dc:creator>
     <cc:Agent>
      <dc:title>Matplotlib v3.3.2, https://matplotlib.org/</dc:title>
     </cc:Agent>
    </dc:creator>
   </cc:Work>
  </rdf:RDF>
 </metadata>
 <defs>
  <style type="text/css">*{stroke-linecap:butt;stroke-linejoin:round;}</style>
 </defs>
 <g id="figure_1">
  <g id="patch_1">
   <path d="M 0 180 
L 720 180 
L 720 0 
L 0 0 
z
" style="fill:none;"/>
  </g>
  <g id="axes_1">
   <g id="line2d_1">
    <path clip-path="url(#p7a2c73bca3)" d="M 90 157.5 
L 648 157.5 
" style="fill:none;stroke:#000000;stroke-linecap:square;stroke-width:0.5;"/>
   </g>
   <g id="patch_2">
    <path clip-path="url(#p7a2c73bca3)" d="M 121.274336 152.035179 
Q 118.120268 154.767589 114.727893 156.140033 
Q 111.335518 157.5 107.718853 157.5 
Q 99.546312 157.5 94.773156 149.365152 
Q 90 141.230304 90 127.318715 
Q 90 113.244929 94.857265 105.172464 
Q 99.721538 97.1 108.18145 97.1 
Q 111.440653 97.1 114.426504 98.197955 
Q 117.419364 99.283433 120.068781 101.429436 
L 120.068781 113.46951 
Q 117.335256 110.712146 114.629766 109.352179 
Q 111.924277 107.979736 109.204769 107.979736 
Q 104.172279 107.979736 101.445762 112.995394 
Q 98.719246 117.998575 98.719246 127.318715 
Q 98.719246 136.551518 101.347636 141.59213 
Q 103.976026 146.620264 108.812263 146.620264 
Q 110.129963 146.620264 111.258418 146.333299 
Q 112.386874 146.033857 113.284031 145.410019 
L 113.284031 134.106073 
L 108.132386 134.106073 
L 108.132386 124.037327 
L 121.274336 124.037327 
z
" style="fill:#ffa600;"/>
   </g>
   <g id="patch_3">
    <path clip-path="url(#p7a2c73bca3)" d="M 111.66376 83.346249 
L 99.636153 83.346249 
L 97.737057 97.1 
L 90 97.1 
L 101.049285 21.6 
L 110.225051 21.6 
L 121.274336 97.1 
L 113.543673 97.1 
z
M 101.554432 69.333605 
L 109.726299 69.333605 
L 105.64676 39.301886 
z
" style="fill:#008000;"/>
   </g>
   <g id="patch_4">
    <path clip-path="url(#p7a2c73bca3)" d="M 154.19469 156.133795 
Q 151.040622 156.816897 147.648247 157.160008 
Q 144.255872 157.5 140.639207 157.5 
Q 132.466666 157.5 127.69351 155.466288 
Q 122.920354 153.432576 122.920354 149.954679 
Q 122.920354 146.436232 127.777619 144.418116 
Q 132.641892 142.4 141.101804 142.4 
Q 144.361007 142.4 147.346858 142.674489 
Q 150.339718 142.945858 152.989135 143.482359 
L 152.989135 146.492378 
Q 150.25561 145.803037 147.55012 145.463045 
Q 144.844631 145.119934 142.125123 145.119934 
Q 137.092633 145.119934 134.366116 146.373848 
Q 131.6396 147.624644 131.6396 149.954679 
Q 131.6396 152.26288 134.26799 153.523032 
Q 136.89638 154.780066 141.732617 154.780066 
Q 143.050317 154.780066 144.178772 154.708325 
Q 145.307228 154.633464 146.204385 154.477505 
L 146.204385 151.651518 
L 141.05274 151.651518 
L 141.05274 149.134332 
L 154.19469 149.134332 
z
" style="fill:#ffa600;"/>
   </g>
   <g id="patch_5">
    <path clip-path="url(#p7a2c73bca3)" d="M 122.920354 127.3 
L 154.19469 127.3 
L 154.19469 130.244921 
L 142.943202 130.244921 
L 142.943202 142.4 
L 134.193661 142.4 
L 134.193661 130.244921 
L 122.920354 130.244921 
z
" style="fill:#ff0000;"/>
   </g>
   <g id="patch_6">
    <path clip-path="url(#p7a2c73bca3)" d="M 154.19469 124.052923 
Q 151.578646 125.662425 148.749851 126.476534 
Q 145.921056 127.3 142.840113 127.3 
Q 133.652439 127.3 128.286397 121.198864 
Q 122.920354 115.097728 122.920354 104.664036 
Q 122.920354 94.192915 128.286397 88.101136 
Q 133.652439 82 142.840113 82 
Q 145.921056 82 148.749851 82.823466 
Q 151.578646 83.637575 154.19469 85.247077 
L 154.19469 94.277133 
Q 151.555007 92.143607 148.99412 91.151704 
Q 146.433234 90.159802 143.604439 90.159802 
Q 138.529943 90.159802 135.622352 94.024478 
Q 132.72264 97.879798 132.72264 104.664036 
Q 132.72264 111.420202 135.622352 115.284879 
Q 138.529943 119.140198 143.604439 119.140198 
Q 146.433234 119.140198 148.99412 118.148296 
Q 151.555007 117.147036 154.19469 115.01351 
z
" style="fill:#0000ff;"/>
   </g>
   <g id="patch_7">
    <path clip-path="url(#p7a2c73bca3)" d="M 144.584114 70.997 
L 132.556507 70.997 
L 130.657411 82 
L 122.920354 82 
L 133.969639 21.6 
L 143.145405 21.6 
L 154.19469 82 
L 146.464027 82 
z
M 134.474786 59.786884 
L 142.646653 59.786884 
L 138.567114 35.761509 
z
" style="fill:#008000;"/>
   </g>
   <g id="patch_8">
    <path clip-path="url(#p7a2c73bca3)" d="M 155.840708 142.4 
L 187.115044 142.4 
L 187.115044 145.344921 
L 175.863556 145.344921 
L 175.863556 157.5 
L 167.114015 157.5 
L 167.114015 145.344921 
L 155.840708 145.344921 
z
" style="fill:#ff0000;"/>
   </g>
   <g id="patch_9">
    <path clip-path="url(#p7a2c73bca3)" d="M 177.504468 136.8985 
L 165.476861 136.8985 
L 163.577765 142.4 
L 155.840708 142.4 
L 166.889993 112.2 
L 176.065759 112.2 
L 187.115044 142.4 
L 179.384381 142.4 
z
M 167.39514 131.293442 
L 175.567007 131.293442 
L 171.487467 119.280754 
z
" style="fill:#008000;"/>
   </g>
   <g id="patch_10">
    <path clip-path="url(#p7a2c73bca3)" d="M 187.115044 109.467589 
Q 183.960976 110.833795 180.568601 111.520017 
Q 177.176226 112.2 173.559561 112.2 
Q 165.38702 112.2 160.613864 108.132576 
Q 155.840708 104.065152 155.840708 97.109358 
Q 155.840708 90.072464 160.697973 86.036232 
Q 165.562246 82 174.022158 82 
Q 177.281361 82 180.267212 82.548977 
Q 183.260072 83.091717 185.909489 84.164718 
L 185.909489 90.184755 
Q 183.175964 88.806073 180.470474 88.12609 
Q 177.764985 87.439868 175.045477 87.439868 
Q 170.012987 87.439868 167.28647 89.947697 
Q 164.559954 92.449287 164.559954 97.109358 
Q 164.559954 101.725759 167.188344 104.246065 
Q 169.816734 106.760132 174.652971 106.760132 
Q 175.970671 106.760132 177.099126 106.616649 
Q 178.227582 106.466928 179.124739 106.155009 
L 179.124739 100.503037 
L 173.973094 100.503037 
L 173.973094 95.468663 
L 187.115044 95.468663 
z
" style="fill:#ffa600;"/>
   </g>
   <g id="patch_11">
    <path clip-path="url(#p7a2c73bca3)" d="M 187.115044 77.670564 
Q 184.499 79.816567 181.670205 80.902045 
Q 178.84141 82 175.760467 82 
Q 166.572793 82 161.206751 73.865152 
Q 155.840708 65.730304 155.840708 51.818715 
Q 155.840708 37.85722 161.206751 29.734848 
Q 166.572793 21.6 175.760467 21.6 
Q 178.84141 21.6 181.670205 22.697955 
Q 184.499 23.783433 187.115044 25.929436 
L 187.115044 37.96951 
Q 184.475361 35.124809 181.914474 33.802272 
Q 179.353588 32.479736 176.524793 32.479736 
Q 171.450297 32.479736 168.542706 37.632638 
Q 165.642994 42.773063 165.642994 51.818715 
Q 165.642994 60.826937 168.542706 65.979839 
Q 171.450297 71.120264 176.524793 71.120264 
Q 179.353588 71.120264 181.914474 69.797728 
Q 184.475361 68.462714 187.115044 65.618013 
z
" style="fill:#0000ff;"/>
   </g>
   <g id="patch_12">
    <path clip-path="url(#p7a2c73bca3)" d="M 210.424822 154.74925 
L 198.397215 154.74925 
L 196.498119 157.5 
L 188.761062 157.5 
L 199.810347 142.4 
L 208.986113 142.4 
L 220.035398 157.5 
L 212.304735 157.5 
z
M 200.315494 151.946721 
L 208.487361 151.946721 
L 204.407821 145.940377 
z
" style="fill:#008000;"/>
   </g>
   <g id="patch_13">
    <path clip-path="url(#p7a2c73bca3)" d="M 220.035398 141.317641 
Q 217.419354 141.854142 214.590559 142.125511 
Q 211.761764 142.4 208.680821 142.4 
Q 199.493147 142.4 194.127105 140.366288 
Q 188.761062 138.332576 188.761062 134.854679 
Q 188.761062 131.364305 194.127105 129.333712 
Q 199.493147 127.3 208.680821 127.3 
Q 211.761764 127.3 214.590559 127.574489 
Q 217.419354 127.845858 220.035398 128.382359 
L 220.035398 131.392378 
Q 217.395715 130.681202 214.834828 130.350568 
Q 212.273942 130.019934 209.445147 130.019934 
Q 204.370651 130.019934 201.46306 131.308159 
Q 198.563348 132.593266 198.563348 134.854679 
Q 198.563348 137.106734 201.46306 138.39496 
Q 204.370651 139.680066 209.445147 139.680066 
Q 212.273942 139.680066 214.834828 139.349432 
Q 217.395715 139.015679 220.035398 138.304503 
z
" style="fill:#0000ff;"/>
   </g>
   <g id="patch_14">
    <path clip-path="url(#p7a2c73bca3)" d="M 188.761062 82 
L 220.035398 82 
L 220.035398 90.834762 
L 208.78391 90.834762 
L 208.78391 127.3 
L 200.034369 127.3 
L 200.034369 90.834762 
L 188.761062 90.834762 
z
" style="fill:#ff0000;"/>
   </g>
   <g id="patch_15">
    <path clip-path="url(#p7a2c73bca3)" d="M 220.035398 76.535179 
Q 216.88133 79.267589 213.488955 80.640033 
Q 210.09658 82 206.479915 82 
Q 198.307374 82 193.534218 73.865152 
Q 188.761062 65.730304 188.761062 51.818715 
Q 188.761062 37.744929 193.618327 29.672464 
Q 198.4826 21.6 206.942512 21.6 
Q 210.201715 21.6 213.187566 22.697955 
Q 216.180426 23.783433 218.829843 25.929436 
L 218.829843 37.96951 
Q 216.096318 35.212146 213.390828 33.852179 
Q 210.685339 32.479736 207.965831 32.479736 
Q 202.933341 32.479736 200.206824 37.495394 
Q 197.480308 42.498575 197.480308 51.818715 
Q 197.480308 61.051518 200.108698 66.09213 
Q 202.737088 71.120264 207.573325 71.120264 
Q 208.891025 71.120264 210.01948 70.833299 
Q 211.147936 70.533857 212.045093 69.910019 
L 212.045093 58.606073 
L 206.893448 58.606073 
L 206.893448 48.537327 
L 220.035398 48.537327 
z
" style="fill:#ffa600;"/>
   </g>
   <g id="patch_16">
    <path clip-path="url(#p7a2c73bca3)" d="M 243.345176 154.74925 
L 231.317569 154.74925 
L 229.418473 157.5 
L 221.681416 157.5 
L 232.730701 142.4 
L 241.906467 142.4 
L 252.955752 157.5 
L 245.225089 157.5 
z
M 233.235848 151.946721 
L 241.407715 151.946721 
L 237.328175 145.940377 
z
" style="fill:#008000;"/>
   </g>
   <g id="patch_17">
    <path clip-path="url(#p7a2c73bca3)" d="M 252.955752 141.033795 
Q 249.801684 141.716897 246.409309 142.060008 
Q 243.016934 142.4 239.400269 142.4 
Q 231.227728 142.4 226.454572 140.366288 
Q 221.681416 138.332576 221.681416 134.854679 
Q 221.681416 131.336232 226.538681 129.318116 
Q 231.402954 127.3 239.862866 127.3 
Q 243.122069 127.3 246.10792 127.574489 
Q 249.10078 127.845858 251.750197 128.382359 
L 251.750197 131.392378 
Q 249.016672 130.703037 246.311182 130.363045 
Q 243.605693 130.019934 240.886185 130.019934 
Q 235.853695 130.019934 233.127178 131.273848 
Q 230.400662 132.524644 230.400662 134.854679 
Q 230.400662 137.16288 233.029052 138.423032 
Q 235.657442 139.680066 240.493679 139.680066 
Q 241.811379 139.680066 242.939834 139.608325 
Q 244.06829 139.533464 244.965447 139.377505 
L 244.965447 136.551518 
L 239.813802 136.551518 
L 239.813802 134.034332 
L 252.955752 134.034332 
z
" style="fill:#ffa600;"/>
   </g>
   <g id="patch_18">
    <path clip-path="url(#p7a2c73bca3)" d="M 221.681416 97.1 
L 252.955752 97.1 
L 252.955752 102.989841 
L 241.704264 102.989841 
L 241.704264 127.3 
L 232.954723 127.3 
L 232.954723 102.989841 
L 221.681416 102.989841 
z
" style="fill:#ff0000;"/>
   </g>
   <g id="patch_19">
    <path clip-path="url(#p7a2c73bca3)" d="M 252.955752 91.688205 
Q 250.339708 94.370709 247.510913 95.727556 
Q 244.682118 97.1 241.601175 97.1 
Q 232.413501 97.1 227.047459 86.93144 
Q 221.681416 76.76288 221.681416 59.373394 
Q 221.681416 41.921524 227.047459 31.76856 
Q 232.413501 21.6 241.601175 21.6 
Q 244.682118 21.6 247.510913 22.972444 
Q 250.339708 24.329291 252.955752 27.011795 
L 252.955752 42.061888 
Q 250.316069 38.506011 247.755182 36.85284 
Q 245.194296 35.199669 242.365501 35.199669 
Q 237.291005 35.199669 234.383414 41.640797 
Q 231.483702 48.066329 231.483702 59.373394 
Q 231.483702 70.633671 234.383414 77.074799 
Q 237.291005 83.500331 242.365501 83.500331 
Q 245.194296 83.500331 247.755182 81.84716 
Q 250.316069 80.178393 252.955752 76.622516 
z
" style="fill:#0000ff;"/>
   </g>
   <g id="patch_20">
    <path clip-path="url(#p7a2c73bca3)" d="M 276.26553 154.74925 
L 264.237923 154.74925 
L 262.338827 157.5 
L 254.60177 157.5 
L 265.651055 142.4 
L 274.826821 142.4 
L 285.876106 157.5 
L 278.145443 157.5 
z
M 266.156202 151.946721 
L 274.328069 151.946721 
L 270.248529 145.940377 
z
" style="fill:#008000;"/>
   </g>
   <g id="patch_21">
    <path clip-path="url(#p7a2c73bca3)" d="M 285.876106 139.667589 
Q 282.722038 141.033795 279.329663 141.720017 
Q 275.937288 142.4 272.320623 142.4 
Q 264.148082 142.4 259.374926 138.332576 
Q 254.60177 134.265152 254.60177 127.309358 
Q 254.60177 120.272464 259.459035 116.236232 
Q 264.323308 112.2 272.78322 112.2 
Q 276.042423 112.2 279.028274 112.748977 
Q 282.021134 113.291717 284.670551 114.364718 
L 284.670551 120.384755 
Q 281.937026 119.006073 279.231536 118.32609 
Q 276.526047 117.639868 273.806539 117.639868 
Q 268.774049 117.639868 266.047532 120.147697 
Q 263.321016 122.649287 263.321016 127.309358 
Q 263.321016 131.925759 265.949406 134.446065 
Q 268.577796 136.960132 273.414033 136.960132 
Q 274.731733 136.960132 275.860188 136.816649 
Q 276.988644 136.666928 277.885801 136.355009 
L 277.885801 130.703037 
L 272.734156 130.703037 
L 272.734156 125.668663 
L 285.876106 125.668663 
z
" style="fill:#ffa600;"/>
   </g>
   <g id="patch_22">
    <path clip-path="url(#p7a2c73bca3)" d="M 254.60177 21.6 
L 285.876106 21.6 
L 285.876106 39.269524 
L 274.624618 39.269524 
L 274.624618 112.2 
L 265.875077 112.2 
L 265.875077 39.269524 
L 254.60177 39.269524 
z
" style="fill:#ff0000;"/>
   </g>
   <g id="patch_23">
    <path clip-path="url(#p7a2c73bca3)" d="M 318.79646 156.133795 
Q 315.642392 156.816897 312.250017 157.160008 
Q 308.857642 157.5 305.240977 157.5 
Q 297.068436 157.5 292.29528 155.466288 
Q 287.522124 153.432576 287.522124 149.954679 
Q 287.522124 146.436232 292.379389 144.418116 
Q 297.243662 142.4 305.703574 142.4 
Q 308.962777 142.4 311.948628 142.674489 
Q 314.941488 142.945858 317.590905 143.482359 
L 317.590905 146.492378 
Q 314.85738 145.803037 312.15189 145.463045 
Q 309.446401 145.119934 306.726893 145.119934 
Q 301.694403 145.119934 298.967886 146.373848 
Q 296.24137 147.624644 296.24137 149.954679 
Q 296.24137 152.26288 298.86976 153.523032 
Q 301.49815 154.780066 306.334387 154.780066 
Q 307.652087 154.780066 308.780542 154.708325 
Q 309.908998 154.633464 310.806155 154.477505 
L 310.806155 151.651518 
L 305.65451 151.651518 
L 305.65451 149.134332 
L 318.79646 149.134332 
z
" style="fill:#ffa600;"/>
   </g>
   <g id="patch_24">
    <path clip-path="url(#p7a2c73bca3)" d="M 309.185884 120.393999 
L 297.158277 120.393999 
L 295.259181 142.4 
L 287.522124 142.4 
L 298.571409 21.6 
L 307.747175 21.6 
L 318.79646 142.4 
L 311.065797 142.4 
z
M 299.076556 97.973768 
L 307.248423 97.973768 
L 303.168883 49.923018 
z
" style="fill:#008000;"/>
   </g>
   <g id="patch_25">
    <path clip-path="url(#p7a2c73bca3)" d="M 342.106238 154.74925 
L 330.078631 154.74925 
L 328.179535 157.5 
L 320.442478 157.5 
L 331.491763 142.4 
L 340.667529 142.4 
L 351.716814 157.5 
L 343.986151 157.5 
z
M 331.99691 151.946721 
L 340.168777 151.946721 
L 336.089237 145.940377 
z
" style="fill:#008000;"/>
   </g>
   <g id="patch_26">
    <path clip-path="url(#p7a2c73bca3)" d="M 320.442478 21.6 
L 351.716814 21.6 
L 351.716814 45.159366 
L 340.465326 45.159366 
L 340.465326 142.4 
L 331.715785 142.4 
L 331.715785 45.159366 
L 320.442478 45.159366 
z
" style="fill:#ff0000;"/>
   </g>
   <g id="patch_27">
    <path clip-path="url(#p7a2c73bca3)" d="M 353.362832 142.4 
L 384.637168 142.4 
L 384.637168 145.344921 
L 373.38568 145.344921 
L 373.38568 157.5 
L 364.636139 157.5 
L 364.636139 145.344921 
L 353.362832 145.344921 
z
" style="fill:#ff0000;"/>
   </g>
   <g id="patch_28">
    <path clip-path="url(#p7a2c73bca3)" d="M 384.637168 131.470357 
Q 381.4831 136.935179 378.090725 139.680066 
Q 374.698349 142.4 371.081685 142.4 
Q 362.909144 142.4 358.135988 126.130304 
Q 353.362832 109.860607 353.362832 82.03743 
Q 353.362832 53.889857 358.220097 37.744929 
Q 363.08437 21.6 371.544282 21.6 
Q 374.803485 21.6 377.789336 23.79591 
Q 380.782196 25.966866 383.431613 30.258872 
L 383.431613 54.339021 
Q 380.698088 48.824293 377.992598 46.104359 
Q 375.287109 43.359471 372.567601 43.359471 
Q 367.535111 43.359471 364.808594 53.390787 
Q 362.082078 63.397149 362.082078 82.03743 
Q 362.082078 100.503037 364.710468 110.584259 
Q 367.338858 120.640529 372.175095 120.640529 
Q 373.492795 120.640529 374.62125 120.066598 
Q 375.749705 119.467713 376.646863 118.220037 
L 376.646863 95.612146 
L 371.495218 95.612146 
L 371.495218 75.474654 
L 384.637168 75.474654 
z
" style="fill:#ffa600;"/>
   </g>
   <g id="patch_29">
    <path clip-path="url(#p7a2c73bca3)" d="M 417.557522 156.417641 
Q 414.941478 156.954142 412.112683 157.225511 
Q 409.283888 157.5 406.202945 157.5 
Q 397.015271 157.5 391.649228 155.466288 
Q 386.283186 153.432576 386.283186 149.954679 
Q 386.283186 146.464305 391.649228 144.433712 
Q 397.015271 142.4 406.202945 142.4 
Q 409.283888 142.4 412.112683 142.674489 
Q 414.941478 142.945858 417.557522 143.482359 
L 417.557522 146.492378 
Q 414.917839 145.781202 412.356952 145.450568 
Q 409.796066 145.119934 406.967271 145.119934 
Q 401.892775 145.119934 398.985184 146.408159 
Q 396.085472 147.693266 396.085472 149.954679 
Q 396.085472 152.206734 398.985184 153.49496 
Q 401.892775 154.780066 406.967271 154.780066 
Q 409.796066 154.780066 412.356952 154.449432 
Q 414.917839 154.115679 417.557522 153.404503 
z
" style="fill:#0000ff;"/>
   </g>
   <g id="patch_30">
    <path clip-path="url(#p7a2c73bca3)" d="M 417.557522 139.667589 
Q 414.403454 141.033795 411.011079 141.720017 
Q 407.618703 142.4 404.002039 142.4 
Q 395.829498 142.4 391.056342 138.332576 
Q 386.283186 134.265152 386.283186 127.309358 
Q 386.283186 120.272464 391.140451 116.236232 
Q 396.004724 112.2 404.464635 112.2 
Q 407.723839 112.2 410.70969 112.748977 
Q 413.70255 113.291717 416.351967 114.364718 
L 416.351967 120.384755 
Q 413.618442 119.006073 410.912952 118.32609 
Q 408.207463 117.639868 405.487955 117.639868 
Q 400.455465 117.639868 397.728948 120.147697 
Q 395.002432 122.649287 395.002432 127.309358 
Q 395.002432 131.925759 397.630822 134.446065 
Q 400.259212 136.960132 405.095449 136.960132 
Q 406.413149 136.960132 407.541604 136.816649 
Q 408.670059 136.666928 409.567217 136.355009 
L 409.567217 130.703037 
L 404.415572 130.703037 
L 404.415572 125.668663 
L 417.557522 125.668663 
z
" style="fill:#ffa600;"/>
   </g>
   <g id="patch_31">
    <path clip-path="url(#p7a2c73bca3)" d="M 386.283186 21.6 
L 417.557522 21.6 
L 417.557522 39.269524 
L 406.306034 39.269524 
L 406.306034 112.2 
L 397.556493 112.2 
L 397.556493 39.269524 
L 386.283186 39.269524 
z
" style="fill:#ff0000;"/>
   </g>
   <g id="patch_32">
    <path clip-path="url(#p7a2c73bca3)" d="M 440.8673 146.497 
L 428.839693 146.497 
L 426.940597 157.5 
L 419.20354 157.5 
L 430.252825 97.1 
L 439.428591 97.1 
L 450.477876 157.5 
L 442.747213 157.5 
z
M 430.757972 135.286884 
L 438.929839 135.286884 
L 434.850299 111.261509 
z
" style="fill:#008000;"/>
   </g>
   <g id="patch_33">
    <path clip-path="url(#p7a2c73bca3)" d="M 450.477876 91.688205 
Q 447.861832 94.370709 445.033037 95.727556 
Q 442.204242 97.1 439.123298 97.1 
Q 429.935625 97.1 424.569582 86.93144 
Q 419.20354 76.76288 419.20354 59.373394 
Q 419.20354 41.921524 424.569582 31.76856 
Q 429.935625 21.6 439.123298 21.6 
Q 442.204242 21.6 445.033037 22.972444 
Q 447.861832 24.329291 450.477876 27.011795 
L 450.477876 42.061888 
Q 447.838193 38.506011 445.277306 36.85284 
Q 442.71642 35.199669 439.887625 35.199669 
Q 434.813129 35.199669 431.905538 41.640797 
Q 429.005826 48.066329 429.005826 59.373394 
Q 429.005826 70.633671 431.905538 77.074799 
Q 434.813129 83.500331 439.887625 83.500331 
Q 442.71642 83.500331 445.277306 81.84716 
Q 447.838193 80.178393 450.477876 76.622516 
z
" style="fill:#0000ff;"/>
   </g>
   <g id="patch_34">
    <path clip-path="url(#p7a2c73bca3)" d="M 483.39823 153.401384 
Q 480.244162 155.450692 476.851787 156.480025 
Q 473.459411 157.5 469.842747 157.5 
Q 461.670206 157.5 456.89705 151.398864 
Q 452.123894 145.297728 452.123894 134.864036 
Q 452.123894 124.308697 456.981158 118.254348 
Q 461.845432 112.2 470.305343 112.2 
Q 473.564547 112.2 476.550398 113.023466 
Q 479.543258 113.837575 482.192675 115.447077 
L 482.192675 124.477133 
Q 479.45915 122.40911 476.75366 121.389134 
Q 474.048171 120.359802 471.328663 120.359802 
Q 466.296173 120.359802 463.569656 124.121545 
Q 460.84314 127.873931 460.84314 134.864036 
Q 460.84314 141.788639 463.471529 145.569097 
Q 466.099919 149.340198 470.936157 149.340198 
Q 472.253857 149.340198 473.382312 149.124974 
Q 474.510767 148.900392 475.407925 148.432514 
L 475.407925 139.954555 
L 470.25628 139.954555 
L 470.25628 132.402995 
L 483.39823 132.402995 
z
" style="fill:#ffa600;"/>
   </g>
   <g id="patch_35">
    <path clip-path="url(#p7a2c73bca3)" d="M 452.123894 21.6 
L 483.39823 21.6 
L 483.39823 39.269524 
L 472.146742 39.269524 
L 472.146742 112.2 
L 463.397201 112.2 
L 463.397201 39.269524 
L 452.123894 39.269524 
z
" style="fill:#ff0000;"/>
   </g>
   <g id="patch_36">
    <path clip-path="url(#p7a2c73bca3)" d="M 516.318584 156.417641 
Q 513.70254 156.954142 510.873745 157.225511 
Q 508.04495 157.5 504.964006 157.5 
Q 495.776333 157.5 490.41029 155.466288 
Q 485.044248 153.432576 485.044248 149.954679 
Q 485.044248 146.464305 490.41029 144.433712 
Q 495.776333 142.4 504.964006 142.4 
Q 508.04495 142.4 510.873745 142.674489 
Q 513.70254 142.945858 516.318584 143.482359 
L 516.318584 146.492378 
Q 513.678901 145.781202 511.118014 145.450568 
Q 508.557127 145.119934 505.728333 145.119934 
Q 500.653837 145.119934 497.746246 146.408159 
Q 494.846534 147.693266 494.846534 149.954679 
Q 494.846534 152.206734 497.746246 153.49496 
Q 500.653837 154.780066 505.728333 154.780066 
Q 508.557127 154.780066 511.118014 154.449432 
Q 513.678901 154.115679 516.318584 153.404503 
z
" style="fill:#0000ff;"/>
   </g>
   <g id="patch_37">
    <path clip-path="url(#p7a2c73bca3)" d="M 506.708008 134.14775 
L 494.680401 134.14775 
L 492.781305 142.4 
L 485.044248 142.4 
L 496.093533 97.1 
L 505.269299 97.1 
L 516.318584 142.4 
L 508.587921 142.4 
z
M 496.59868 125.740163 
L 504.770547 125.740163 
L 500.691007 107.721132 
z
" style="fill:#008000;"/>
   </g>
   <g id="patch_38">
    <path clip-path="url(#p7a2c73bca3)" d="M 516.318584 90.268973 
Q 513.164516 93.684487 509.772141 95.400041 
Q 506.379765 97.1 502.763101 97.1 
Q 494.59056 97.1 489.817404 86.93144 
Q 485.044248 76.76288 485.044248 59.373394 
Q 485.044248 41.781161 489.901512 31.69058 
Q 494.765786 21.6 503.225697 21.6 
Q 506.484901 21.6 509.470752 22.972444 
Q 512.463612 24.329291 515.113029 27.011795 
L 515.113029 42.061888 
Q 512.379504 38.615183 509.674014 36.915224 
Q 506.968525 35.199669 504.249017 35.199669 
Q 499.216527 35.199669 496.49001 41.469242 
Q 493.763493 47.723218 493.763493 59.373394 
Q 493.763493 70.914398 496.391883 77.215162 
Q 499.020273 83.500331 503.856511 83.500331 
Q 505.174211 83.500331 506.302666 83.141624 
Q 507.431121 82.767321 508.328279 81.987523 
L 508.328279 67.857591 
L 503.176634 67.857591 
L 503.176634 55.271659 
L 516.318584 55.271659 
z
" style="fill:#ffa600;"/>
   </g>
   <g id="patch_39">
    <path clip-path="url(#p7a2c73bca3)" d="M 549.238938 155.335282 
Q 546.622894 156.408283 543.794099 156.951023 
Q 540.965304 157.5 537.88436 157.5 
Q 528.696687 157.5 523.330644 153.432576 
Q 517.964602 149.365152 517.964602 142.409358 
Q 517.964602 135.42861 523.330644 131.367424 
Q 528.696687 127.3 537.88436 127.3 
Q 540.965304 127.3 543.794099 127.848977 
Q 546.622894 128.391717 549.238938 129.464718 
L 549.238938 135.484755 
Q 546.599255 134.062404 544.038368 133.401136 
Q 541.477481 132.739868 538.648687 132.739868 
Q 533.574191 132.739868 530.6666 135.316319 
Q 527.766888 137.886532 527.766888 142.409358 
Q 527.766888 146.913468 530.6666 149.489919 
Q 533.574191 152.060132 538.648687 152.060132 
Q 541.477481 152.060132 544.038368 151.398864 
Q 546.599255 150.731357 549.238938 149.309006 
z
" style="fill:#0000ff;"/>
   </g>
   <g id="patch_40">
    <path clip-path="url(#p7a2c73bca3)" d="M 517.964602 97.1 
L 549.238938 97.1 
L 549.238938 102.989841 
L 537.98745 102.989841 
L 537.98745 127.3 
L 529.237909 127.3 
L 529.237909 102.989841 
L 517.964602 102.989841 
z
" style="fill:#ff0000;"/>
   </g>
   <g id="patch_41">
    <path clip-path="url(#p7a2c73bca3)" d="M 539.628362 83.346249 
L 527.600755 83.346249 
L 525.701659 97.1 
L 517.964602 97.1 
L 529.013887 21.6 
L 538.189653 21.6 
L 549.238938 97.1 
L 541.508275 97.1 
z
M 529.519034 69.333605 
L 537.690901 69.333605 
L 533.611361 39.301886 
z
" style="fill:#008000;"/>
   </g>
   <g id="patch_42">
    <path clip-path="url(#p7a2c73bca3)" d="M 582.159292 156.417641 
Q 579.543248 156.954142 576.714453 157.225511 
Q 573.885658 157.5 570.804714 157.5 
Q 561.617041 157.5 556.250998 155.466288 
Q 550.884956 153.432576 550.884956 149.954679 
Q 550.884956 146.464305 556.250998 144.433712 
Q 561.617041 142.4 570.804714 142.4 
Q 573.885658 142.4 576.714453 142.674489 
Q 579.543248 142.945858 582.159292 143.482359 
L 582.159292 146.492378 
Q 579.519609 145.781202 576.958722 145.450568 
Q 574.397835 145.119934 571.569041 145.119934 
Q 566.494545 145.119934 563.586954 146.408159 
Q 560.687242 147.693266 560.687242 149.954679 
Q 560.687242 152.206734 563.586954 153.49496 
Q 566.494545 154.780066 571.569041 154.780066 
Q 574.397835 154.780066 576.958722 154.449432 
Q 579.519609 154.115679 582.159292 153.404503 
z
" style="fill:#0000ff;"/>
   </g>
   <g id="patch_43">
    <path clip-path="url(#p7a2c73bca3)" d="M 582.159292 136.935179 
Q 579.005224 139.667589 575.612849 141.040033 
Q 572.220473 142.4 568.603809 142.4 
Q 560.431268 142.4 555.658112 134.265152 
Q 550.884956 126.130304 550.884956 112.218715 
Q 550.884956 98.144929 555.74222 90.072464 
Q 560.606494 82 569.066405 82 
Q 572.325609 82 575.31146 83.097955 
Q 578.30432 84.183433 580.953737 86.329436 
L 580.953737 98.36951 
Q 578.220212 95.612146 575.514722 94.252179 
Q 572.809233 92.879736 570.089725 92.879736 
Q 565.057235 92.879736 562.330718 97.895394 
Q 559.604201 102.898575 559.604201 112.218715 
Q 559.604201 121.451518 562.232591 126.49213 
Q 564.860981 131.520264 569.697219 131.520264 
Q 571.014919 131.520264 572.143374 131.233299 
Q 573.271829 130.933857 574.168986 130.310019 
L 574.168986 119.006073 
L 569.017342 119.006073 
L 569.017342 108.937327 
L 582.159292 108.937327 
z
" style="fill:#ffa600;"/>
   </g>
   <g id="patch_44">
    <path clip-path="url(#p7a2c73bca3)" d="M 550.884956 21.6 
L 582.159292 21.6 
L 582.159292 33.379683 
L 570.907804 33.379683 
L 570.907804 82 
L 562.158263 82 
L 562.158263 33.379683 
L 550.884956 33.379683 
z
" style="fill:#ff0000;"/>
   </g>
   <g id="patch_45">
    <path clip-path="url(#p7a2c73bca3)" d="M 583.80531 142.4 
L 615.079646 142.4 
L 615.079646 145.344921 
L 603.828158 145.344921 
L 603.828158 157.5 
L 595.078617 157.5 
L 595.078617 145.344921 
L 583.80531 145.344921 
z
" style="fill:#ff0000;"/>
   </g>
   <g id="patch_46">
    <path clip-path="url(#p7a2c73bca3)" d="M 605.46907 134.14775 
L 593.441463 134.14775 
L 591.542367 142.4 
L 583.80531 142.4 
L 594.854595 97.1 
L 604.030361 97.1 
L 615.079646 142.4 
L 607.348983 142.4 
z
M 595.359741 125.740163 
L 603.531609 125.740163 
L 599.452069 107.721132 
z
" style="fill:#008000;"/>
   </g>
   <g id="patch_47">
    <path clip-path="url(#p7a2c73bca3)" d="M 615.079646 90.268973 
Q 611.925578 93.684487 608.533203 95.400041 
Q 605.140827 97.1 601.524163 97.1 
Q 593.351622 97.1 588.578466 86.93144 
Q 583.80531 76.76288 583.80531 59.373394 
Q 583.80531 41.781161 588.662574 31.69058 
Q 593.526848 21.6 601.986759 21.6 
Q 605.245963 21.6 608.231814 22.972444 
Q 611.224674 24.329291 613.874091 27.011795 
L 613.874091 42.061888 
Q 611.140566 38.615183 608.435076 36.915224 
Q 605.729587 35.199669 603.010079 35.199669 
Q 597.977589 35.199669 595.251072 41.469242 
Q 592.524555 47.723218 592.524555 59.373394 
Q 592.524555 70.914398 595.152945 77.215162 
Q 597.781335 83.500331 602.617573 83.500331 
Q 603.935272 83.500331 605.063728 83.141624 
Q 606.192183 82.767321 607.08934 81.987523 
L 607.08934 67.857591 
L 601.937696 67.857591 
L 601.937696 55.271659 
L 615.079646 55.271659 
z
" style="fill:#ffa600;"/>
   </g>
   <g id="patch_48">
    <path clip-path="url(#p7a2c73bca3)" d="M 638.389424 154.74925 
L 626.361817 154.74925 
L 624.462721 157.5 
L 616.725664 157.5 
L 627.774949 142.4 
L 636.950715 142.4 
L 648 157.5 
L 640.269337 157.5 
z
M 628.280095 151.946721 
L 636.451963 151.946721 
L 632.372423 145.940377 
z
" style="fill:#008000;"/>
   </g>
   <g id="patch_49">
    <path clip-path="url(#p7a2c73bca3)" d="M 616.725664 112.2 
L 648 112.2 
L 648 118.089841 
L 636.748512 118.089841 
L 636.748512 142.4 
L 627.998971 142.4 
L 627.998971 118.089841 
L 616.725664 118.089841 
z
" style="fill:#ff0000;"/>
   </g>
   <g id="patch_50">
    <path clip-path="url(#p7a2c73bca3)" d="M 648 108.952923 
Q 645.383956 110.562425 642.555161 111.376534 
Q 639.726366 112.2 636.645422 112.2 
Q 627.457749 112.2 622.091706 106.098864 
Q 616.725664 99.997728 616.725664 89.564036 
Q 616.725664 79.092915 622.091706 73.001136 
Q 627.457749 66.9 636.645422 66.9 
Q 639.726366 66.9 642.555161 67.723466 
Q 645.383956 68.537575 648 70.147077 
L 648 79.177133 
Q 645.360317 77.043607 642.79943 76.051704 
Q 640.238543 75.059802 637.409749 75.059802 
Q 632.335253 75.059802 629.427662 78.924478 
Q 626.52795 82.779798 626.52795 89.564036 
Q 626.52795 96.320202 629.427662 100.184879 
Q 632.335253 104.040198 637.409749 104.040198 
Q 640.238543 104.040198 642.79943 103.048296 
Q 645.360317 102.047036 648 99.91351 
z
" style="fill:#0000ff;"/>
   </g>
   <g id="patch_51">
    <path clip-path="url(#p7a2c73bca3)" d="M 648 62.801384 
Q 644.845932 64.850692 641.453557 65.880025 
Q 638.061181 66.9 634.444517 66.9 
Q 626.271976 66.9 621.49882 60.798864 
Q 616.725664 54.697728 616.725664 44.264036 
Q 616.725664 33.708697 621.582928 27.654348 
Q 626.447202 21.6 634.907113 21.6 
Q 638.166317 21.6 641.152168 22.423466 
Q 644.145028 23.237575 646.794445 24.847077 
L 646.794445 33.877133 
Q 644.06092 31.80911 641.35543 30.789134 
Q 638.649941 29.759802 635.930433 29.759802 
Q 630.897943 29.759802 628.171426 33.521545 
Q 625.444909 37.273931 625.444909 44.264036 
Q 625.444909 51.188639 628.073299 54.969097 
Q 630.701689 58.740198 635.537927 58.740198 
Q 636.855626 58.740198 637.984082 58.524974 
Q 639.112537 58.300392 640.009694 57.832514 
L 640.009694 49.354555 
L 634.85805 49.354555 
L 634.85805 41.802995 
L 648 41.802995 
z
" style="fill:#ffa600;"/>
   </g>
  </g>
 </g>
 <defs>
  <clipPath id="p7a2c73bca3">
   <rect height="135.9" width="558" x="90" y="21.6"/>
  </clipPath>
 </defs>
</svg>
