<?xml version="1.0" encoding="utf-8" standalone="no"?>
<!DOCTYPE svg PUBLIC "-//W3C//DTD SVG 1.1//EN"
  "http://www.w3.org/Graphics/SVG/1.1/DTD/svg11.dtd">
<!-- Created with matplotlib (https://matplotlib.org/) -->
<svg height="180pt" version="1.1" viewBox="0 0 720 180" width="720pt" xmlns="http://www.w3.org/2000/svg" xmlns:xlink="http://www.w3.org/1999/xlink">
 <metadata>
  <rdf:RDF xmlns:cc="http://creativecommons.org/ns#" xmlns:dc="http://purl.org/dc/elements/1.1/" xmlns:rdf="http://www.w3.org/1999/02/22-rdf-syntax-ns#">
   <cc:Work>
    <dc:type rdf:resource="http://purl.org/dc/dcmitype/StillImage"/>
    <dc:date>2021-08-04T23:33:11.649575</dc:date>
    <dc:format>image/svg+xml</dc:format>
    <dc:creator>
     <cc:Agent>
      <dc:title>Matplotlib v3.3.2, https://matplotlib.org/</dc:title>
     </cc:Agent>
    </dc:creator>
   </cc:Work>
  </rdf:RDF>
 </metadata>
 <defs>
  <style type="text/css">*{stroke-linecap:butt;stroke-linejoin:round;}</style>
 </defs>
 <g id="figure_1">
  <g id="patch_1">
   <path d="M 0 180 
L 720 180 
L 720 0 
L 0 0 
z
" style="fill:none;"/>
  </g>
  <g id="axes_1">
   <g id="line2d_1">
    <path clip-path="url(#p8cfa7d7e95)" d="M 90 157.5 
L 648 157.5 
" style="fill:none;stroke:#000000;stroke-linecap:square;stroke-width:0.5;"/>
   </g>
   <g id="patch_2">
    <path clip-path="url(#p8cfa7d7e95)" d="M 121.274336 156.133795 
Q 118.120268 156.816897 114.727893 157.160008 
Q 111.335518 157.5 107.718853 157.5 
Q 99.546312 157.5 94.773156 155.466288 
Q 90 153.432576 90 149.954679 
Q 90 146.436232 94.857265 144.418116 
Q 99.721538 142.4 108.18145 142.4 
Q 111.440653 142.4 114.426504 142.674489 
Q 117.419364 142.945858 120.068781 143.482359 
L 120.068781 146.492378 
Q 117.335256 145.803037 114.629766 145.463045 
Q 111.924277 145.119934 109.204769 145.119934 
Q 104.172279 145.119934 101.445762 146.373848 
Q 98.719246 147.624644 98.719246 149.954679 
Q 98.719246 152.26288 101.347636 153.523032 
Q 103.976026 154.780066 108.812263 154.780066 
Q 110.129963 154.780066 111.258418 154.708325 
Q 112.386874 154.633464 113.284031 154.477505 
L 113.284031 151.651518 
L 108.132386 151.651518 
L 108.132386 149.134332 
L 121.274336 149.134332 
z
" style="fill:#ffa600;"/>
   </g>
   <g id="patch_3">
    <path clip-path="url(#p8cfa7d7e95)" d="M 121.274336 140.235282 
Q 118.658292 141.308283 115.829497 141.851023 
Q 113.000702 142.4 109.919759 142.4 
Q 100.732085 142.4 95.366043 138.332576 
Q 90 134.265152 90 127.309358 
Q 90 120.32861 95.366043 116.267424 
Q 100.732085 112.2 109.919759 112.2 
Q 113.000702 112.2 115.829497 112.748977 
Q 118.658292 113.291717 121.274336 114.364718 
L 121.274336 120.384755 
Q 118.634653 118.962404 116.073766 118.301136 
Q 113.51288 117.639868 110.684085 117.639868 
Q 105.609589 117.639868 102.701998 120.216319 
Q 99.802286 122.786532 99.802286 127.309358 
Q 99.802286 131.813468 102.701998 134.389919 
Q 105.609589 136.960132 110.684085 136.960132 
Q 113.51288 136.960132 116.073766 136.298864 
Q 118.634653 135.631357 121.274336 134.209006 
z
" style="fill:#0000ff;"/>
   </g>
   <g id="patch_4">
    <path clip-path="url(#p8cfa7d7e95)" d="M 111.66376 101.197 
L 99.636153 101.197 
L 97.737057 112.2 
L 90 112.2 
L 101.049285 51.8 
L 110.225051 51.8 
L 121.274336 112.2 
L 113.543673 112.2 
z
M 101.554432 89.986884 
L 109.726299 89.986884 
L 105.64676 65.961509 
z
" style="fill:#008000;"/>
   </g>
   <g id="patch_5">
    <path clip-path="url(#p8cfa7d7e95)" d="M 154.19469 156.133795 
Q 151.040622 156.816897 147.648247 157.160008 
Q 144.255872 157.5 140.639207 157.5 
Q 132.466666 157.5 127.69351 155.466288 
Q 122.920354 153.432576 122.920354 149.954679 
Q 122.920354 146.436232 127.777619 144.418116 
Q 132.641892 142.4 141.101804 142.4 
Q 144.361007 142.4 147.346858 142.674489 
Q 150.339718 142.945858 152.989135 143.482359 
L 152.989135 146.492378 
Q 150.25561 145.803037 147.55012 145.463045 
Q 144.844631 145.119934 142.125123 145.119934 
Q 137.092633 145.119934 134.366116 146.373848 
Q 131.6396 147.624644 131.6396 149.954679 
Q 131.6396 152.26288 134.26799 153.523032 
Q 136.89638 154.780066 141.732617 154.780066 
Q 143.050317 154.780066 144.178772 154.708325 
Q 145.307228 154.633464 146.204385 154.477505 
L 146.204385 151.651518 
L 141.05274 151.651518 
L 141.05274 149.134332 
L 154.19469 149.134332 
z
" style="fill:#ffa600;"/>
   </g>
   <g id="patch_6">
    <path clip-path="url(#p8cfa7d7e95)" d="M 122.920354 127.3 
L 154.19469 127.3 
L 154.19469 130.244921 
L 142.943202 130.244921 
L 142.943202 142.4 
L 134.193661 142.4 
L 134.193661 130.244921 
L 122.920354 130.244921 
z
" style="fill:#ff0000;"/>
   </g>
   <g id="patch_7">
    <path clip-path="url(#p8cfa7d7e95)" d="M 144.584114 121.7985 
L 132.556507 121.7985 
L 130.657411 127.3 
L 122.920354 127.3 
L 133.969639 97.1 
L 143.145405 97.1 
L 154.19469 127.3 
L 146.464027 127.3 
z
M 134.474786 116.193442 
L 142.646653 116.193442 
L 138.567114 104.180754 
z
" style="fill:#008000;"/>
   </g>
   <g id="patch_8">
    <path clip-path="url(#p8cfa7d7e95)" d="M 154.19469 93.852923 
Q 151.578646 95.462425 148.749851 96.276534 
Q 145.921056 97.1 142.840113 97.1 
Q 133.652439 97.1 128.286397 90.998864 
Q 122.920354 84.897728 122.920354 74.464036 
Q 122.920354 63.992915 128.286397 57.901136 
Q 133.652439 51.8 142.840113 51.8 
Q 145.921056 51.8 148.749851 52.623466 
Q 151.578646 53.437575 154.19469 55.047077 
L 154.19469 64.077133 
Q 151.555007 61.943607 148.99412 60.951704 
Q 146.433234 59.959802 143.604439 59.959802 
Q 138.529943 59.959802 135.622352 63.824478 
Q 132.72264 67.679798 132.72264 74.464036 
Q 132.72264 81.220202 135.622352 85.084879 
Q 138.529943 88.940198 143.604439 88.940198 
Q 146.433234 88.940198 148.99412 87.948296 
Q 151.555007 86.947036 154.19469 84.81351 
z
" style="fill:#0000ff;"/>
   </g>
   <g id="patch_9">
    <path clip-path="url(#p8cfa7d7e95)" d="M 187.115044 156.417641 
Q 184.499 156.954142 181.670205 157.225511 
Q 178.84141 157.5 175.760467 157.5 
Q 166.572793 157.5 161.206751 155.466288 
Q 155.840708 153.432576 155.840708 149.954679 
Q 155.840708 146.464305 161.206751 144.433712 
Q 166.572793 142.4 175.760467 142.4 
Q 178.84141 142.4 181.670205 142.674489 
Q 184.499 142.945858 187.115044 143.482359 
L 187.115044 146.492378 
Q 184.475361 145.781202 181.914474 145.450568 
Q 179.353588 145.119934 176.524793 145.119934 
Q 171.450297 145.119934 168.542706 146.408159 
Q 165.642994 147.693266 165.642994 149.954679 
Q 165.642994 152.206734 168.542706 153.49496 
Q 171.450297 154.780066 176.524793 154.780066 
Q 179.353588 154.780066 181.914474 154.449432 
Q 184.475361 154.115679 187.115044 153.404503 
z
" style="fill:#0000ff;"/>
   </g>
   <g id="patch_10">
    <path clip-path="url(#p8cfa7d7e95)" d="M 155.840708 127.3 
L 187.115044 127.3 
L 187.115044 130.244921 
L 175.863556 130.244921 
L 175.863556 142.4 
L 167.114015 142.4 
L 167.114015 130.244921 
L 155.840708 130.244921 
z
" style="fill:#ff0000;"/>
   </g>
   <g id="patch_11">
    <path clip-path="url(#p8cfa7d7e95)" d="M 187.115044 124.567589 
Q 183.960976 125.933795 180.568601 126.620017 
Q 177.176226 127.3 173.559561 127.3 
Q 165.38702 127.3 160.613864 123.232576 
Q 155.840708 119.165152 155.840708 112.209358 
Q 155.840708 105.172464 160.697973 101.136232 
Q 165.562246 97.1 174.022158 97.1 
Q 177.281361 97.1 180.267212 97.648977 
Q 183.260072 98.191717 185.909489 99.264718 
L 185.909489 105.284755 
Q 183.175964 103.906073 180.470474 103.22609 
Q 177.764985 102.539868 175.045477 102.539868 
Q 170.012987 102.539868 167.28647 105.047697 
Q 164.559954 107.549287 164.559954 112.209358 
Q 164.559954 116.825759 167.188344 119.346065 
Q 169.816734 121.860132 174.652971 121.860132 
Q 175.970671 121.860132 177.099126 121.716649 
Q 178.227582 121.566928 179.124739 121.255009 
L 179.124739 115.603037 
L 173.973094 115.603037 
L 173.973094 110.568663 
L 187.115044 110.568663 
z
" style="fill:#ffa600;"/>
   </g>
   <g id="patch_12">
    <path clip-path="url(#p8cfa7d7e95)" d="M 177.504468 88.84775 
L 165.476861 88.84775 
L 163.577765 97.1 
L 155.840708 97.1 
L 166.889993 51.8 
L 176.065759 51.8 
L 187.115044 97.1 
L 179.384381 97.1 
z
M 167.39514 80.440163 
L 175.567007 80.440163 
L 171.487467 62.421132 
z
" style="fill:#008000;"/>
   </g>
   <g id="patch_13">
    <path clip-path="url(#p8cfa7d7e95)" d="M 210.424822 151.9985 
L 198.397215 151.9985 
L 196.498119 157.5 
L 188.761062 157.5 
L 199.810347 127.3 
L 208.986113 127.3 
L 220.035398 157.5 
L 212.304735 157.5 
z
M 200.315494 146.393442 
L 208.487361 146.393442 
L 204.407821 134.380754 
z
" style="fill:#008000;"/>
   </g>
   <g id="patch_14">
    <path clip-path="url(#p8cfa7d7e95)" d="M 220.035398 125.135282 
Q 217.419354 126.208283 214.590559 126.751023 
Q 211.761764 127.3 208.680821 127.3 
Q 199.493147 127.3 194.127105 123.232576 
Q 188.761062 119.165152 188.761062 112.209358 
Q 188.761062 105.22861 194.127105 101.167424 
Q 199.493147 97.1 208.680821 97.1 
Q 211.761764 97.1 214.590559 97.648977 
Q 217.419354 98.191717 220.035398 99.264718 
L 220.035398 105.284755 
Q 217.395715 103.862404 214.834828 103.201136 
Q 212.273942 102.539868 209.445147 102.539868 
Q 204.370651 102.539868 201.46306 105.116319 
Q 198.563348 107.686532 198.563348 112.209358 
Q 198.563348 116.713468 201.46306 119.289919 
Q 204.370651 121.860132 209.445147 121.860132 
Q 212.273942 121.860132 214.834828 121.198864 
Q 217.395715 120.531357 220.035398 119.109006 
z
" style="fill:#0000ff;"/>
   </g>
   <g id="patch_15">
    <path clip-path="url(#p8cfa7d7e95)" d="M 188.761062 51.8 
L 220.035398 51.8 
L 220.035398 60.634762 
L 208.78391 60.634762 
L 208.78391 97.1 
L 200.034369 97.1 
L 200.034369 60.634762 
L 188.761062 60.634762 
z
" style="fill:#ff0000;"/>
   </g>
   <g id="patch_16">
    <path clip-path="url(#p8cfa7d7e95)" d="M 252.955752 156.417641 
Q 250.339708 156.954142 247.510913 157.225511 
Q 244.682118 157.5 241.601175 157.5 
Q 232.413501 157.5 227.047459 155.466288 
Q 221.681416 153.432576 221.681416 149.954679 
Q 221.681416 146.464305 227.047459 144.433712 
Q 232.413501 142.4 241.601175 142.4 
Q 244.682118 142.4 247.510913 142.674489 
Q 250.339708 142.945858 252.955752 143.482359 
L 252.955752 146.492378 
Q 250.316069 145.781202 247.755182 145.450568 
Q 245.194296 145.119934 242.365501 145.119934 
Q 237.291005 145.119934 234.383414 146.408159 
Q 231.483702 147.693266 231.483702 149.954679 
Q 231.483702 152.206734 234.383414 153.49496 
Q 237.291005 154.780066 242.365501 154.780066 
Q 245.194296 154.780066 247.755182 154.449432 
Q 250.316069 154.115679 252.955752 153.404503 
z
" style="fill:#0000ff;"/>
   </g>
   <g id="patch_17">
    <path clip-path="url(#p8cfa7d7e95)" d="M 243.345176 136.8985 
L 231.317569 136.8985 
L 229.418473 142.4 
L 221.681416 142.4 
L 232.730701 112.2 
L 241.906467 112.2 
L 252.955752 142.4 
L 245.225089 142.4 
z
M 233.235848 131.293442 
L 241.407715 131.293442 
L 237.328175 119.280754 
z
" style="fill:#008000;"/>
   </g>
   <g id="patch_18">
    <path clip-path="url(#p8cfa7d7e95)" d="M 252.955752 106.735179 
Q 249.801684 109.467589 246.409309 110.840033 
Q 243.016934 112.2 239.400269 112.2 
Q 231.227728 112.2 226.454572 104.065152 
Q 221.681416 95.930304 221.681416 82.018715 
Q 221.681416 67.944929 226.538681 59.872464 
Q 231.402954 51.8 239.862866 51.8 
Q 243.122069 51.8 246.10792 52.897955 
Q 249.10078 53.983433 251.750197 56.129436 
L 251.750197 68.16951 
Q 249.016672 65.412146 246.311182 64.052179 
Q 243.605693 62.679736 240.886185 62.679736 
Q 235.853695 62.679736 233.127178 67.695394 
Q 230.400662 72.698575 230.400662 82.018715 
Q 230.400662 91.251518 233.029052 96.29213 
Q 235.657442 101.320264 240.493679 101.320264 
Q 241.811379 101.320264 242.939834 101.033299 
Q 244.06829 100.733857 244.965447 100.110019 
L 244.965447 88.806073 
L 239.813802 88.806073 
L 239.813802 78.737327 
L 252.955752 78.737327 
z
" style="fill:#ffa600;"/>
   </g>
   <g id="patch_19">
    <path clip-path="url(#p8cfa7d7e95)" d="M 276.26553 154.74925 
L 264.237923 154.74925 
L 262.338827 157.5 
L 254.60177 157.5 
L 265.651055 142.4 
L 274.826821 142.4 
L 285.876106 157.5 
L 278.145443 157.5 
z
M 266.156202 151.946721 
L 274.328069 151.946721 
L 270.248529 145.940377 
z
" style="fill:#008000;"/>
   </g>
   <g id="patch_20">
    <path clip-path="url(#p8cfa7d7e95)" d="M 285.876106 141.033795 
Q 282.722038 141.716897 279.329663 142.060008 
Q 275.937288 142.4 272.320623 142.4 
Q 264.148082 142.4 259.374926 140.366288 
Q 254.60177 138.332576 254.60177 134.854679 
Q 254.60177 131.336232 259.459035 129.318116 
Q 264.323308 127.3 272.78322 127.3 
Q 276.042423 127.3 279.028274 127.574489 
Q 282.021134 127.845858 284.670551 128.382359 
L 284.670551 131.392378 
Q 281.937026 130.703037 279.231536 130.363045 
Q 276.526047 130.019934 273.806539 130.019934 
Q 268.774049 130.019934 266.047532 131.273848 
Q 263.321016 132.524644 263.321016 134.854679 
Q 263.321016 137.16288 265.949406 138.423032 
Q 268.577796 139.680066 273.414033 139.680066 
Q 274.731733 139.680066 275.860188 139.608325 
Q 276.988644 139.533464 277.885801 139.377505 
L 277.885801 136.551518 
L 272.734156 136.551518 
L 272.734156 134.034332 
L 285.876106 134.034332 
z
" style="fill:#ffa600;"/>
   </g>
   <g id="patch_21">
    <path clip-path="url(#p8cfa7d7e95)" d="M 254.60177 51.8 
L 285.876106 51.8 
L 285.876106 66.524604 
L 274.624618 66.524604 
L 274.624618 127.3 
L 265.875077 127.3 
L 265.875077 66.524604 
L 254.60177 66.524604 
z
" style="fill:#ff0000;"/>
   </g>
   <g id="patch_22">
    <path clip-path="url(#p8cfa7d7e95)" d="M 287.522124 51.8 
L 318.79646 51.8 
L 318.79646 72.414445 
L 307.544972 72.414445 
L 307.544972 157.5 
L 298.795431 157.5 
L 298.795431 72.414445 
L 287.522124 72.414445 
z
" style="fill:#ff0000;"/>
   </g>
   <g id="patch_23">
    <path clip-path="url(#p8cfa7d7e95)" d="M 342.106238 149.24775 
L 330.078631 149.24775 
L 328.179535 157.5 
L 320.442478 157.5 
L 331.491763 112.2 
L 340.667529 112.2 
L 351.716814 157.5 
L 343.986151 157.5 
z
M 331.99691 140.840163 
L 340.168777 140.840163 
L 336.089237 122.821132 
z
" style="fill:#008000;"/>
   </g>
   <g id="patch_24">
    <path clip-path="url(#p8cfa7d7e95)" d="M 351.716814 106.735179 
Q 348.562746 109.467589 345.170371 110.840033 
Q 341.777996 112.2 338.161331 112.2 
Q 329.98879 112.2 325.215634 104.065152 
Q 320.442478 95.930304 320.442478 82.018715 
Q 320.442478 67.944929 325.299743 59.872464 
Q 330.164016 51.8 338.623928 51.8 
Q 341.883131 51.8 344.868982 52.897955 
Q 347.861842 53.983433 350.511259 56.129436 
L 350.511259 68.16951 
Q 347.777734 65.412146 345.072244 64.052179 
Q 342.366755 62.679736 339.647247 62.679736 
Q 334.614757 62.679736 331.88824 67.695394 
Q 329.161724 72.698575 329.161724 82.018715 
Q 329.161724 91.251518 331.790114 96.29213 
Q 334.418504 101.320264 339.254741 101.320264 
Q 340.572441 101.320264 341.700896 101.033299 
Q 342.829351 100.733857 343.726509 100.110019 
L 343.726509 88.806073 
L 338.574864 88.806073 
L 338.574864 78.737327 
L 351.716814 78.737327 
z
" style="fill:#ffa600;"/>
   </g>
   <g id="patch_25">
    <path clip-path="url(#p8cfa7d7e95)" d="M 384.637168 156.133795 
Q 381.4831 156.816897 378.090725 157.160008 
Q 374.698349 157.5 371.081685 157.5 
Q 362.909144 157.5 358.135988 155.466288 
Q 353.362832 153.432576 353.362832 149.954679 
Q 353.362832 146.436232 358.220097 144.418116 
Q 363.08437 142.4 371.544282 142.4 
Q 374.803485 142.4 377.789336 142.674489 
Q 380.782196 142.945858 383.431613 143.482359 
L 383.431613 146.492378 
Q 380.698088 145.803037 377.992598 145.463045 
Q 375.287109 145.119934 372.567601 145.119934 
Q 367.535111 145.119934 364.808594 146.373848 
Q 362.082078 147.624644 362.082078 149.954679 
Q 362.082078 152.26288 364.710468 153.523032 
Q 367.338858 154.780066 372.175095 154.780066 
Q 373.492795 154.780066 374.62125 154.708325 
Q 375.749705 154.633464 376.646863 154.477505 
L 376.646863 151.651518 
L 371.495218 151.651518 
L 371.495218 149.134332 
L 384.637168 149.134332 
z
" style="fill:#ffa600;"/>
   </g>
   <g id="patch_26">
    <path clip-path="url(#p8cfa7d7e95)" d="M 375.026592 134.14775 
L 362.998985 134.14775 
L 361.099889 142.4 
L 353.362832 142.4 
L 364.412117 97.1 
L 373.587883 97.1 
L 384.637168 142.4 
L 376.906505 142.4 
z
M 364.917264 125.740163 
L 373.089131 125.740163 
L 369.009591 107.721132 
z
" style="fill:#008000;"/>
   </g>
   <g id="patch_27">
    <path clip-path="url(#p8cfa7d7e95)" d="M 384.637168 93.852923 
Q 382.021124 95.462425 379.192329 96.276534 
Q 376.363534 97.1 373.282591 97.1 
Q 364.094917 97.1 358.728874 90.998864 
Q 353.362832 84.897728 353.362832 74.464036 
Q 353.362832 63.992915 358.728874 57.901136 
Q 364.094917 51.8 373.282591 51.8 
Q 376.363534 51.8 379.192329 52.623466 
Q 382.021124 53.437575 384.637168 55.047077 
L 384.637168 64.077133 
Q 381.997485 61.943607 379.436598 60.951704 
Q 376.875712 59.959802 374.046917 59.959802 
Q 368.972421 59.959802 366.06483 63.824478 
Q 363.165118 67.679798 363.165118 74.464036 
Q 363.165118 81.220202 366.06483 85.084879 
Q 368.972421 88.940198 374.046917 88.940198 
Q 376.875712 88.940198 379.436598 87.948296 
Q 381.997485 86.947036 384.637168 84.81351 
z
" style="fill:#0000ff;"/>
   </g>
   <g id="patch_28">
    <path clip-path="url(#p8cfa7d7e95)" d="M 417.557522 156.133795 
Q 414.403454 156.816897 411.011079 157.160008 
Q 407.618703 157.5 404.002039 157.5 
Q 395.829498 157.5 391.056342 155.466288 
Q 386.283186 153.432576 386.283186 149.954679 
Q 386.283186 146.436232 391.140451 144.418116 
Q 396.004724 142.4 404.464635 142.4 
Q 407.723839 142.4 410.70969 142.674489 
Q 413.70255 142.945858 416.351967 143.482359 
L 416.351967 146.492378 
Q 413.618442 145.803037 410.912952 145.463045 
Q 408.207463 145.119934 405.487955 145.119934 
Q 400.455465 145.119934 397.728948 146.373848 
Q 395.002432 147.624644 395.002432 149.954679 
Q 395.002432 152.26288 397.630822 153.523032 
Q 400.259212 154.780066 405.095449 154.780066 
Q 406.413149 154.780066 407.541604 154.708325 
Q 408.670059 154.633464 409.567217 154.477505 
L 409.567217 151.651518 
L 404.415572 151.651518 
L 404.415572 149.134332 
L 417.557522 149.134332 
z
" style="fill:#ffa600;"/>
   </g>
   <g id="patch_29">
    <path clip-path="url(#p8cfa7d7e95)" d="M 386.283186 51.8 
L 417.557522 51.8 
L 417.557522 69.469524 
L 406.306034 69.469524 
L 406.306034 142.4 
L 397.556493 142.4 
L 397.556493 69.469524 
L 386.283186 69.469524 
z
" style="fill:#ff0000;"/>
   </g>
   <g id="patch_30">
    <path clip-path="url(#p8cfa7d7e95)" d="M 419.20354 142.4 
L 450.477876 142.4 
L 450.477876 145.344921 
L 439.226388 145.344921 
L 439.226388 157.5 
L 430.476847 157.5 
L 430.476847 145.344921 
L 419.20354 145.344921 
z
" style="fill:#ff0000;"/>
   </g>
   <g id="patch_31">
    <path clip-path="url(#p8cfa7d7e95)" d="M 440.8673 125.895499 
L 428.839693 125.895499 
L 426.940597 142.4 
L 419.20354 142.4 
L 430.252825 51.8 
L 439.428591 51.8 
L 450.477876 142.4 
L 442.747213 142.4 
z
M 430.757972 109.080326 
L 438.929839 109.080326 
L 434.850299 73.042263 
z
" style="fill:#008000;"/>
   </g>
   <g id="patch_32">
    <path clip-path="url(#p8cfa7d7e95)" d="M 473.787654 149.24775 
L 461.760047 149.24775 
L 459.860951 157.5 
L 452.123894 157.5 
L 463.173179 112.2 
L 472.348945 112.2 
L 483.39823 157.5 
L 475.667567 157.5 
z
M 463.678326 140.840163 
L 471.850193 140.840163 
L 467.770653 122.821132 
z
" style="fill:#008000;"/>
   </g>
   <g id="patch_33">
    <path clip-path="url(#p8cfa7d7e95)" d="M 483.39823 106.735179 
Q 480.244162 109.467589 476.851787 110.840033 
Q 473.459411 112.2 469.842747 112.2 
Q 461.670206 112.2 456.89705 104.065152 
Q 452.123894 95.930304 452.123894 82.018715 
Q 452.123894 67.944929 456.981158 59.872464 
Q 461.845432 51.8 470.305343 51.8 
Q 473.564547 51.8 476.550398 52.897955 
Q 479.543258 53.983433 482.192675 56.129436 
L 482.192675 68.16951 
Q 479.45915 65.412146 476.75366 64.052179 
Q 474.048171 62.679736 471.328663 62.679736 
Q 466.296173 62.679736 463.569656 67.695394 
Q 460.84314 72.698575 460.84314 82.018715 
Q 460.84314 91.251518 463.471529 96.29213 
Q 466.099919 101.320264 470.936157 101.320264 
Q 472.253857 101.320264 473.382312 101.033299 
Q 474.510767 100.733857 475.407925 100.110019 
L 475.407925 88.806073 
L 470.25628 88.806073 
L 470.25628 78.737327 
L 483.39823 78.737327 
z
" style="fill:#ffa600;"/>
   </g>
   <g id="patch_34">
    <path clip-path="url(#p8cfa7d7e95)" d="M 485.044248 142.4 
L 516.318584 142.4 
L 516.318584 145.344921 
L 505.067096 145.344921 
L 505.067096 157.5 
L 496.317555 157.5 
L 496.317555 145.344921 
L 485.044248 145.344921 
z
" style="fill:#ff0000;"/>
   </g>
   <g id="patch_35">
    <path clip-path="url(#p8cfa7d7e95)" d="M 506.708008 136.8985 
L 494.680401 136.8985 
L 492.781305 142.4 
L 485.044248 142.4 
L 496.093533 112.2 
L 505.269299 112.2 
L 516.318584 142.4 
L 508.587921 142.4 
z
M 496.59868 131.293442 
L 504.770547 131.293442 
L 500.691007 119.280754 
z
" style="fill:#008000;"/>
   </g>
   <g id="patch_36">
    <path clip-path="url(#p8cfa7d7e95)" d="M 516.318584 110.035282 
Q 513.70254 111.108283 510.873745 111.651023 
Q 508.04495 112.2 504.964006 112.2 
Q 495.776333 112.2 490.41029 108.132576 
Q 485.044248 104.065152 485.044248 97.109358 
Q 485.044248 90.12861 490.41029 86.067424 
Q 495.776333 82 504.964006 82 
Q 508.04495 82 510.873745 82.548977 
Q 513.70254 83.091717 516.318584 84.164718 
L 516.318584 90.184755 
Q 513.678901 88.762404 511.118014 88.101136 
Q 508.557127 87.439868 505.728333 87.439868 
Q 500.653837 87.439868 497.746246 90.016319 
Q 494.846534 92.586532 494.846534 97.109358 
Q 494.846534 101.613468 497.746246 104.189919 
Q 500.653837 106.760132 505.728333 106.760132 
Q 508.557127 106.760132 511.118014 106.098864 
Q 513.678901 105.431357 516.318584 104.009006 
z
" style="fill:#0000ff;"/>
   </g>
   <g id="patch_37">
    <path clip-path="url(#p8cfa7d7e95)" d="M 516.318584 79.267589 
Q 513.164516 80.633795 509.772141 81.320017 
Q 506.379765 82 502.763101 82 
Q 494.59056 82 489.817404 77.932576 
Q 485.044248 73.865152 485.044248 66.909358 
Q 485.044248 59.872464 489.901512 55.836232 
Q 494.765786 51.8 503.225697 51.8 
Q 506.484901 51.8 509.470752 52.348977 
Q 512.463612 52.891717 515.113029 53.964718 
L 515.113029 59.984755 
Q 512.379504 58.606073 509.674014 57.92609 
Q 506.968525 57.239868 504.249017 57.239868 
Q 499.216527 57.239868 496.49001 59.747697 
Q 493.763493 62.249287 493.763493 66.909358 
Q 493.763493 71.525759 496.391883 74.046065 
Q 499.020273 76.560132 503.856511 76.560132 
Q 505.174211 76.560132 506.302666 76.416649 
Q 507.431121 76.266928 508.328279 75.955009 
L 508.328279 70.303037 
L 503.176634 70.303037 
L 503.176634 65.268663 
L 516.318584 65.268663 
z
" style="fill:#ffa600;"/>
   </g>
   <g id="patch_38">
    <path clip-path="url(#p8cfa7d7e95)" d="M 549.238938 156.417641 
Q 546.622894 156.954142 543.794099 157.225511 
Q 540.965304 157.5 537.88436 157.5 
Q 528.696687 157.5 523.330644 155.466288 
Q 517.964602 153.432576 517.964602 149.954679 
Q 517.964602 146.464305 523.330644 144.433712 
Q 528.696687 142.4 537.88436 142.4 
Q 540.965304 142.4 543.794099 142.674489 
Q 546.622894 142.945858 549.238938 143.482359 
L 549.238938 146.492378 
Q 546.599255 145.781202 544.038368 145.450568 
Q 541.477481 145.119934 538.648687 145.119934 
Q 533.574191 145.119934 530.6666 146.408159 
Q 527.766888 147.693266 527.766888 149.954679 
Q 527.766888 152.206734 530.6666 153.49496 
Q 533.574191 154.780066 538.648687 154.780066 
Q 541.477481 154.780066 544.038368 154.449432 
Q 546.599255 154.115679 549.238938 153.404503 
z
" style="fill:#0000ff;"/>
   </g>
   <g id="patch_39">
    <path clip-path="url(#p8cfa7d7e95)" d="M 539.628362 136.8985 
L 527.600755 136.8985 
L 525.701659 142.4 
L 517.964602 142.4 
L 529.013887 112.2 
L 538.189653 112.2 
L 549.238938 142.4 
L 541.508275 142.4 
z
M 529.519034 131.293442 
L 537.690901 131.293442 
L 533.611361 119.280754 
z
" style="fill:#008000;"/>
   </g>
   <g id="patch_40">
    <path clip-path="url(#p8cfa7d7e95)" d="M 549.238938 106.735179 
Q 546.08487 109.467589 542.692495 110.840033 
Q 539.300119 112.2 535.683455 112.2 
Q 527.510914 112.2 522.737758 104.065152 
Q 517.964602 95.930304 517.964602 82.018715 
Q 517.964602 67.944929 522.821866 59.872464 
Q 527.68614 51.8 536.146051 51.8 
Q 539.405255 51.8 542.391106 52.897955 
Q 545.383966 53.983433 548.033383 56.129436 
L 548.033383 68.16951 
Q 545.299858 65.412146 542.594368 64.052179 
Q 539.888879 62.679736 537.169371 62.679736 
Q 532.136881 62.679736 529.410364 67.695394 
Q 526.683847 72.698575 526.683847 82.018715 
Q 526.683847 91.251518 529.312237 96.29213 
Q 531.940627 101.320264 536.776865 101.320264 
Q 538.094565 101.320264 539.22302 101.033299 
Q 540.351475 100.733857 541.248633 100.110019 
L 541.248633 88.806073 
L 536.096988 88.806073 
L 536.096988 78.737327 
L 549.238938 78.737327 
z
" style="fill:#ffa600;"/>
   </g>
   <g id="patch_41">
    <path clip-path="url(#p8cfa7d7e95)" d="M 582.159292 154.252923 
Q 579.543248 155.862425 576.714453 156.676534 
Q 573.885658 157.5 570.804714 157.5 
Q 561.617041 157.5 556.250998 151.398864 
Q 550.884956 145.297728 550.884956 134.864036 
Q 550.884956 124.392915 556.250998 118.301136 
Q 561.617041 112.2 570.804714 112.2 
Q 573.885658 112.2 576.714453 113.023466 
Q 579.543248 113.837575 582.159292 115.447077 
L 582.159292 124.477133 
Q 579.519609 122.343607 576.958722 121.351704 
Q 574.397835 120.359802 571.569041 120.359802 
Q 566.494545 120.359802 563.586954 124.224478 
Q 560.687242 128.079798 560.687242 134.864036 
Q 560.687242 141.620202 563.586954 145.484879 
Q 566.494545 149.340198 571.569041 149.340198 
Q 574.397835 149.340198 576.958722 148.348296 
Q 579.519609 147.347036 582.159292 145.21351 
z
" style="fill:#0000ff;"/>
   </g>
   <g id="patch_42">
    <path clip-path="url(#p8cfa7d7e95)" d="M 582.159292 106.735179 
Q 579.005224 109.467589 575.612849 110.840033 
Q 572.220473 112.2 568.603809 112.2 
Q 560.431268 112.2 555.658112 104.065152 
Q 550.884956 95.930304 550.884956 82.018715 
Q 550.884956 67.944929 555.74222 59.872464 
Q 560.606494 51.8 569.066405 51.8 
Q 572.325609 51.8 575.31146 52.897955 
Q 578.30432 53.983433 580.953737 56.129436 
L 580.953737 68.16951 
Q 578.220212 65.412146 575.514722 64.052179 
Q 572.809233 62.679736 570.089725 62.679736 
Q 565.057235 62.679736 562.330718 67.695394 
Q 559.604201 72.698575 559.604201 82.018715 
Q 559.604201 91.251518 562.232591 96.29213 
Q 564.860981 101.320264 569.697219 101.320264 
Q 571.014919 101.320264 572.143374 101.033299 
Q 573.271829 100.733857 574.168986 100.110019 
L 574.168986 88.806073 
L 569.017342 88.806073 
L 569.017342 78.737327 
L 582.159292 78.737327 
z
" style="fill:#ffa600;"/>
   </g>
   <g id="patch_43">
    <path clip-path="url(#p8cfa7d7e95)" d="M 605.46907 154.74925 
L 593.441463 154.74925 
L 591.542367 157.5 
L 583.80531 157.5 
L 594.854595 142.4 
L 604.030361 142.4 
L 615.079646 157.5 
L 607.348983 157.5 
z
M 595.359741 151.946721 
L 603.531609 151.946721 
L 599.452069 145.940377 
z
" style="fill:#008000;"/>
   </g>
   <g id="patch_44">
    <path clip-path="url(#p8cfa7d7e95)" d="M 615.079646 139.667589 
Q 611.925578 141.033795 608.533203 141.720017 
Q 605.140827 142.4 601.524163 142.4 
Q 593.351622 142.4 588.578466 138.332576 
Q 583.80531 134.265152 583.80531 127.309358 
Q 583.80531 120.272464 588.662574 116.236232 
Q 593.526848 112.2 601.986759 112.2 
Q 605.245963 112.2 608.231814 112.748977 
Q 611.224674 113.291717 613.874091 114.364718 
L 613.874091 120.384755 
Q 611.140566 119.006073 608.435076 118.32609 
Q 605.729587 117.639868 603.010079 117.639868 
Q 597.977589 117.639868 595.251072 120.147697 
Q 592.524555 122.649287 592.524555 127.309358 
Q 592.524555 131.925759 595.152945 134.446065 
Q 597.781335 136.960132 602.617573 136.960132 
Q 603.935272 136.960132 605.063728 136.816649 
Q 606.192183 136.666928 607.08934 136.355009 
L 607.08934 130.703037 
L 601.937696 130.703037 
L 601.937696 125.668663 
L 615.079646 125.668663 
z
" style="fill:#ffa600;"/>
   </g>
   <g id="patch_45">
    <path clip-path="url(#p8cfa7d7e95)" d="M 615.079646 105.705846 
Q 612.463602 108.92485 609.634807 110.553068 
Q 606.806012 112.2 603.725068 112.2 
Q 594.537395 112.2 589.171352 99.997728 
Q 583.80531 87.795455 583.80531 66.928073 
Q 583.80531 45.985829 589.171352 33.802272 
Q 594.537395 21.6 603.725068 21.6 
Q 606.806012 21.6 609.634807 23.246932 
Q 612.463602 24.87515 615.079646 28.094154 
L 615.079646 46.154266 
Q 612.439963 41.887213 609.879076 39.903408 
Q 607.318189 37.919603 604.489395 37.919603 
Q 599.414899 37.919603 596.507308 45.648957 
Q 593.607596 53.359595 593.607596 66.928073 
Q 593.607596 80.440405 596.507308 88.169758 
Q 599.414899 95.880397 604.489395 95.880397 
Q 607.318189 95.880397 609.879076 93.896592 
Q 612.439963 91.894071 615.079646 87.627019 
z
" style="fill:#0000ff;"/>
   </g>
   <g id="patch_46">
    <path clip-path="url(#p8cfa7d7e95)" d="M 648 153.401384 
Q 644.845932 155.450692 641.453557 156.480025 
Q 638.061181 157.5 634.444517 157.5 
Q 626.271976 157.5 621.49882 151.398864 
Q 616.725664 145.297728 616.725664 134.864036 
Q 616.725664 124.308697 621.582928 118.254348 
Q 626.447202 112.2 634.907113 112.2 
Q 638.166317 112.2 641.152168 113.023466 
Q 644.145028 113.837575 646.794445 115.447077 
L 646.794445 124.477133 
Q 644.06092 122.40911 641.35543 121.389134 
Q 638.649941 120.359802 635.930433 120.359802 
Q 630.897943 120.359802 628.171426 124.121545 
Q 625.444909 127.873931 625.444909 134.864036 
Q 625.444909 141.788639 628.073299 145.569097 
Q 630.701689 149.340198 635.537927 149.340198 
Q 636.855626 149.340198 637.984082 149.124974 
Q 639.112537 148.900392 640.009694 148.432514 
L 640.009694 139.954555 
L 634.85805 139.954555 
L 634.85805 132.402995 
L 648 132.402995 
z
" style="fill:#ffa600;"/>
   </g>
   <g id="patch_47">
    <path clip-path="url(#p8cfa7d7e95)" d="M 616.725664 21.6 
L 648 21.6 
L 648 39.269524 
L 636.748512 39.269524 
L 636.748512 112.2 
L 627.998971 112.2 
L 627.998971 39.269524 
L 616.725664 39.269524 
z
" style="fill:#ff0000;"/>
   </g>
  </g>
 </g>
 <defs>
  <clipPath id="p8cfa7d7e95">
   <rect height="135.9" width="558" x="90" y="21.6"/>
  </clipPath>
 </defs>
</svg>
