<?xml version="1.0" encoding="utf-8" standalone="no"?>
<!DOCTYPE svg PUBLIC "-//W3C//DTD SVG 1.1//EN"
  "http://www.w3.org/Graphics/SVG/1.1/DTD/svg11.dtd">
<!-- Created with matplotlib (https://matplotlib.org/) -->
<svg height="180pt" version="1.1" viewBox="0 0 720 180" width="720pt" xmlns="http://www.w3.org/2000/svg" xmlns:xlink="http://www.w3.org/1999/xlink">
 <metadata>
  <rdf:RDF xmlns:cc="http://creativecommons.org/ns#" xmlns:dc="http://purl.org/dc/elements/1.1/" xmlns:rdf="http://www.w3.org/1999/02/22-rdf-syntax-ns#">
   <cc:Work>
    <dc:type rdf:resource="http://purl.org/dc/dcmitype/StillImage"/>
    <dc:date>2021-08-04T23:33:27.855404</dc:date>
    <dc:format>image/svg+xml</dc:format>
    <dc:creator>
     <cc:Agent>
      <dc:title>Matplotlib v3.3.2, https://matplotlib.org/</dc:title>
     </cc:Agent>
    </dc:creator>
   </cc:Work>
  </rdf:RDF>
 </metadata>
 <defs>
  <style type="text/css">*{stroke-linecap:butt;stroke-linejoin:round;}</style>
 </defs>
 <g id="figure_1">
  <g id="patch_1">
   <path d="M 0 180 
L 720 180 
L 720 0 
L 0 0 
z
" style="fill:none;"/>
  </g>
  <g id="axes_1">
   <g id="line2d_1">
    <path clip-path="url(#pcb029268cb)" d="M 90 157.5 
L 648 157.5 
" style="fill:none;stroke:#000000;stroke-linecap:square;stroke-width:0.5;"/>
   </g>
   <g id="patch_2">
    <path clip-path="url(#pcb029268cb)" d="M 90 142.4 
L 121.274336 142.4 
L 121.274336 145.344921 
L 110.022848 145.344921 
L 110.022848 157.5 
L 101.273307 157.5 
L 101.273307 145.344921 
L 90 145.344921 
z
" style="fill:#ff0000;"/>
   </g>
   <g id="patch_3">
    <path clip-path="url(#pcb029268cb)" d="M 121.274336 140.235282 
Q 118.658292 141.308283 115.829497 141.851023 
Q 113.000702 142.4 109.919759 142.4 
Q 100.732085 142.4 95.366043 138.332576 
Q 90 134.265152 90 127.309358 
Q 90 120.32861 95.366043 116.267424 
Q 100.732085 112.2 109.919759 112.2 
Q 113.000702 112.2 115.829497 112.748977 
Q 118.658292 113.291717 121.274336 114.364718 
L 121.274336 120.384755 
Q 118.634653 118.962404 116.073766 118.301136 
Q 113.51288 117.639868 110.684085 117.639868 
Q 105.609589 117.639868 102.701998 120.216319 
Q 99.802286 122.786532 99.802286 127.309358 
Q 99.802286 131.813468 102.701998 134.389919 
Q 105.609589 136.960132 110.684085 136.960132 
Q 113.51288 136.960132 116.073766 136.298864 
Q 118.634653 135.631357 121.274336 134.209006 
z
" style="fill:#0000ff;"/>
   </g>
   <g id="patch_4">
    <path clip-path="url(#pcb029268cb)" d="M 121.274336 109.467589 
Q 118.120268 110.833795 114.727893 111.520017 
Q 111.335518 112.2 107.718853 112.2 
Q 99.546312 112.2 94.773156 108.132576 
Q 90 104.065152 90 97.109358 
Q 90 90.072464 94.857265 86.036232 
Q 99.721538 82 108.18145 82 
Q 111.440653 82 114.426504 82.548977 
Q 117.419364 83.091717 120.068781 84.164718 
L 120.068781 90.184755 
Q 117.335256 88.806073 114.629766 88.12609 
Q 111.924277 87.439868 109.204769 87.439868 
Q 104.172279 87.439868 101.445762 89.947697 
Q 98.719246 92.449287 98.719246 97.109358 
Q 98.719246 101.725759 101.347636 104.246065 
Q 103.976026 106.760132 108.812263 106.760132 
Q 110.129963 106.760132 111.258418 106.616649 
Q 112.386874 106.466928 113.284031 106.155009 
L 113.284031 100.503037 
L 108.132386 100.503037 
L 108.132386 95.468663 
L 121.274336 95.468663 
z
" style="fill:#ffa600;"/>
   </g>
   <g id="patch_5">
    <path clip-path="url(#pcb029268cb)" d="M 111.66376 70.997 
L 99.636153 70.997 
L 97.737057 82 
L 90 82 
L 101.049285 21.6 
L 110.225051 21.6 
L 121.274336 82 
L 113.543673 82 
z
M 101.554432 59.786884 
L 109.726299 59.786884 
L 105.64676 35.761509 
z
" style="fill:#008000;"/>
   </g>
   <g id="patch_6">
    <path clip-path="url(#pcb029268cb)" d="M 122.920354 142.4 
L 154.19469 142.4 
L 154.19469 145.344921 
L 142.943202 145.344921 
L 142.943202 157.5 
L 134.193661 157.5 
L 134.193661 145.344921 
L 122.920354 145.344921 
z
" style="fill:#ff0000;"/>
   </g>
   <g id="patch_7">
    <path clip-path="url(#pcb029268cb)" d="M 144.584114 131.397 
L 132.556507 131.397 
L 130.657411 142.4 
L 122.920354 142.4 
L 133.969639 82 
L 143.145405 82 
L 154.19469 142.4 
L 146.464027 142.4 
z
M 134.474786 120.186884 
L 142.646653 120.186884 
L 138.567114 96.161509 
z
" style="fill:#008000;"/>
   </g>
   <g id="patch_8">
    <path clip-path="url(#pcb029268cb)" d="M 154.19469 76.535179 
Q 151.040622 79.267589 147.648247 80.640033 
Q 144.255872 82 140.639207 82 
Q 132.466666 82 127.69351 73.865152 
Q 122.920354 65.730304 122.920354 51.818715 
Q 122.920354 37.744929 127.777619 29.672464 
Q 132.641892 21.6 141.101804 21.6 
Q 144.361007 21.6 147.346858 22.697955 
Q 150.339718 23.783433 152.989135 25.929436 
L 152.989135 37.96951 
Q 150.25561 35.212146 147.55012 33.852179 
Q 144.844631 32.479736 142.125123 32.479736 
Q 137.092633 32.479736 134.366116 37.495394 
Q 131.6396 42.498575 131.6396 51.818715 
Q 131.6396 61.051518 134.26799 66.09213 
Q 136.89638 71.120264 141.732617 71.120264 
Q 143.050317 71.120264 144.178772 70.833299 
Q 145.307228 70.533857 146.204385 69.910019 
L 146.204385 58.606073 
L 141.05274 58.606073 
L 141.05274 48.537327 
L 154.19469 48.537327 
z
" style="fill:#ffa600;"/>
   </g>
   <g id="patch_9">
    <path clip-path="url(#pcb029268cb)" d="M 187.115044 155.335282 
Q 184.499 156.408283 181.670205 156.951023 
Q 178.84141 157.5 175.760467 157.5 
Q 166.572793 157.5 161.206751 153.432576 
Q 155.840708 149.365152 155.840708 142.409358 
Q 155.840708 135.42861 161.206751 131.367424 
Q 166.572793 127.3 175.760467 127.3 
Q 178.84141 127.3 181.670205 127.848977 
Q 184.499 128.391717 187.115044 129.464718 
L 187.115044 135.484755 
Q 184.475361 134.062404 181.914474 133.401136 
Q 179.353588 132.739868 176.524793 132.739868 
Q 171.450297 132.739868 168.542706 135.316319 
Q 165.642994 137.886532 165.642994 142.409358 
Q 165.642994 146.913468 168.542706 149.489919 
Q 171.450297 152.060132 176.524793 152.060132 
Q 179.353588 152.060132 181.914474 151.398864 
Q 184.475361 150.731357 187.115044 149.309006 
z
" style="fill:#0000ff;"/>
   </g>
   <g id="patch_10">
    <path clip-path="url(#pcb029268cb)" d="M 187.115044 124.567589 
Q 183.960976 125.933795 180.568601 126.620017 
Q 177.176226 127.3 173.559561 127.3 
Q 165.38702 127.3 160.613864 123.232576 
Q 155.840708 119.165152 155.840708 112.209358 
Q 155.840708 105.172464 160.697973 101.136232 
Q 165.562246 97.1 174.022158 97.1 
Q 177.281361 97.1 180.267212 97.648977 
Q 183.260072 98.191717 185.909489 99.264718 
L 185.909489 105.284755 
Q 183.175964 103.906073 180.470474 103.22609 
Q 177.764985 102.539868 175.045477 102.539868 
Q 170.012987 102.539868 167.28647 105.047697 
Q 164.559954 107.549287 164.559954 112.209358 
Q 164.559954 116.825759 167.188344 119.346065 
Q 169.816734 121.860132 174.652971 121.860132 
Q 175.970671 121.860132 177.099126 121.716649 
Q 178.227582 121.566928 179.124739 121.255009 
L 179.124739 115.603037 
L 173.973094 115.603037 
L 173.973094 110.568663 
L 187.115044 110.568663 
z
" style="fill:#ffa600;"/>
   </g>
   <g id="patch_11">
    <path clip-path="url(#pcb029268cb)" d="M 155.840708 66.9 
L 187.115044 66.9 
L 187.115044 72.789841 
L 175.863556 72.789841 
L 175.863556 97.1 
L 167.114015 97.1 
L 167.114015 72.789841 
L 155.840708 72.789841 
z
" style="fill:#ff0000;"/>
   </g>
   <g id="patch_12">
    <path clip-path="url(#pcb029268cb)" d="M 177.504468 58.64775 
L 165.476861 58.64775 
L 163.577765 66.9 
L 155.840708 66.9 
L 166.889993 21.6 
L 176.065759 21.6 
L 187.115044 66.9 
L 179.384381 66.9 
z
M 167.39514 50.240163 
L 175.567007 50.240163 
L 171.487467 32.221132 
z
" style="fill:#008000;"/>
   </g>
   <g id="patch_13">
    <path clip-path="url(#pcb029268cb)" d="M 220.035398 153.401384 
Q 216.88133 155.450692 213.488955 156.480025 
Q 210.09658 157.5 206.479915 157.5 
Q 198.307374 157.5 193.534218 151.398864 
Q 188.761062 145.297728 188.761062 134.864036 
Q 188.761062 124.308697 193.618327 118.254348 
Q 198.4826 112.2 206.942512 112.2 
Q 210.201715 112.2 213.187566 113.023466 
Q 216.180426 113.837575 218.829843 115.447077 
L 218.829843 124.477133 
Q 216.096318 122.40911 213.390828 121.389134 
Q 210.685339 120.359802 207.965831 120.359802 
Q 202.933341 120.359802 200.206824 124.121545 
Q 197.480308 127.873931 197.480308 134.864036 
Q 197.480308 141.788639 200.108698 145.569097 
Q 202.737088 149.340198 207.573325 149.340198 
Q 208.891025 149.340198 210.01948 149.124974 
Q 211.147936 148.900392 212.045093 148.432514 
L 212.045093 139.954555 
L 206.893448 139.954555 
L 206.893448 132.402995 
L 220.035398 132.402995 
z
" style="fill:#ffa600;"/>
   </g>
   <g id="patch_14">
    <path clip-path="url(#pcb029268cb)" d="M 210.424822 95.695499 
L 198.397215 95.695499 
L 196.498119 112.2 
L 188.761062 112.2 
L 199.810347 21.6 
L 208.986113 21.6 
L 220.035398 112.2 
L 212.304735 112.2 
z
M 200.315494 78.880326 
L 208.487361 78.880326 
L 204.407821 42.842263 
z
" style="fill:#008000;"/>
   </g>
   <g id="patch_15">
    <path clip-path="url(#pcb029268cb)" d="M 243.345176 132.743249 
L 231.317569 132.743249 
L 229.418473 157.5 
L 221.681416 157.5 
L 232.730701 21.6 
L 241.906467 21.6 
L 252.955752 157.5 
L 245.225089 157.5 
z
M 233.235848 107.520489 
L 241.407715 107.520489 
L 237.328175 53.463395 
z
" style="fill:#008000;"/>
   </g>
   <g id="patch_16">
    <path clip-path="url(#pcb029268cb)" d="M 285.876106 156.417641 
Q 283.260062 156.954142 280.431267 157.225511 
Q 277.602472 157.5 274.521529 157.5 
Q 265.333855 157.5 259.967812 155.466288 
Q 254.60177 153.432576 254.60177 149.954679 
Q 254.60177 146.464305 259.967812 144.433712 
Q 265.333855 142.4 274.521529 142.4 
Q 277.602472 142.4 280.431267 142.674489 
Q 283.260062 142.945858 285.876106 143.482359 
L 285.876106 146.492378 
Q 283.236423 145.781202 280.675536 145.450568 
Q 278.11465 145.119934 275.285855 145.119934 
Q 270.211359 145.119934 267.303768 146.408159 
Q 264.404056 147.693266 264.404056 149.954679 
Q 264.404056 152.206734 267.303768 153.49496 
Q 270.211359 154.780066 275.285855 154.780066 
Q 278.11465 154.780066 280.675536 154.449432 
Q 283.236423 154.115679 285.876106 153.404503 
z
" style="fill:#0000ff;"/>
   </g>
   <g id="patch_17">
    <path clip-path="url(#pcb029268cb)" d="M 254.60177 127.3 
L 285.876106 127.3 
L 285.876106 130.244921 
L 274.624618 130.244921 
L 274.624618 142.4 
L 265.875077 142.4 
L 265.875077 130.244921 
L 254.60177 130.244921 
z
" style="fill:#ff0000;"/>
   </g>
   <g id="patch_18">
    <path clip-path="url(#pcb029268cb)" d="M 285.876106 124.567589 
Q 282.722038 125.933795 279.329663 126.620017 
Q 275.937288 127.3 272.320623 127.3 
Q 264.148082 127.3 259.374926 123.232576 
Q 254.60177 119.165152 254.60177 112.209358 
Q 254.60177 105.172464 259.459035 101.136232 
Q 264.323308 97.1 272.78322 97.1 
Q 276.042423 97.1 279.028274 97.648977 
Q 282.021134 98.191717 284.670551 99.264718 
L 284.670551 105.284755 
Q 281.937026 103.906073 279.231536 103.22609 
Q 276.526047 102.539868 273.806539 102.539868 
Q 268.774049 102.539868 266.047532 105.047697 
Q 263.321016 107.549287 263.321016 112.209358 
Q 263.321016 116.825759 265.949406 119.346065 
Q 268.577796 121.860132 273.414033 121.860132 
Q 274.731733 121.860132 275.860188 121.716649 
Q 276.988644 121.566928 277.885801 121.255009 
L 277.885801 115.603037 
L 272.734156 115.603037 
L 272.734156 110.568663 
L 285.876106 110.568663 
z
" style="fill:#ffa600;"/>
   </g>
   <g id="patch_19">
    <path clip-path="url(#pcb029268cb)" d="M 276.26553 83.346249 
L 264.237923 83.346249 
L 262.338827 97.1 
L 254.60177 97.1 
L 265.651055 21.6 
L 274.826821 21.6 
L 285.876106 97.1 
L 278.145443 97.1 
z
M 266.156202 69.333605 
L 274.328069 69.333605 
L 270.248529 39.301886 
z
" style="fill:#008000;"/>
   </g>
   <g id="patch_20">
    <path clip-path="url(#pcb029268cb)" d="M 318.79646 155.335282 
Q 316.180416 156.408283 313.351621 156.951023 
Q 310.522826 157.5 307.441883 157.5 
Q 298.254209 157.5 292.888166 153.432576 
Q 287.522124 149.365152 287.522124 142.409358 
Q 287.522124 135.42861 292.888166 131.367424 
Q 298.254209 127.3 307.441883 127.3 
Q 310.522826 127.3 313.351621 127.848977 
Q 316.180416 128.391717 318.79646 129.464718 
L 318.79646 135.484755 
Q 316.156777 134.062404 313.59589 133.401136 
Q 311.035004 132.739868 308.206209 132.739868 
Q 303.131713 132.739868 300.224122 135.316319 
Q 297.32441 137.886532 297.32441 142.409358 
Q 297.32441 146.913468 300.224122 149.489919 
Q 303.131713 152.060132 308.206209 152.060132 
Q 311.035004 152.060132 313.59589 151.398864 
Q 316.156777 150.731357 318.79646 149.309006 
z
" style="fill:#0000ff;"/>
   </g>
   <g id="patch_21">
    <path clip-path="url(#pcb029268cb)" d="M 309.185884 119.04775 
L 297.158277 119.04775 
L 295.259181 127.3 
L 287.522124 127.3 
L 298.571409 82 
L 307.747175 82 
L 318.79646 127.3 
L 311.065797 127.3 
z
M 299.076556 110.640163 
L 307.248423 110.640163 
L 303.168883 92.621132 
z
" style="fill:#008000;"/>
   </g>
   <g id="patch_22">
    <path clip-path="url(#pcb029268cb)" d="M 318.79646 76.535179 
Q 315.642392 79.267589 312.250017 80.640033 
Q 308.857642 82 305.240977 82 
Q 297.068436 82 292.29528 73.865152 
Q 287.522124 65.730304 287.522124 51.818715 
Q 287.522124 37.744929 292.379389 29.672464 
Q 297.243662 21.6 305.703574 21.6 
Q 308.962777 21.6 311.948628 22.697955 
Q 314.941488 23.783433 317.590905 25.929436 
L 317.590905 37.96951 
Q 314.85738 35.212146 312.15189 33.852179 
Q 309.446401 32.479736 306.726893 32.479736 
Q 301.694403 32.479736 298.967886 37.495394 
Q 296.24137 42.498575 296.24137 51.818715 
Q 296.24137 61.051518 298.86976 66.09213 
Q 301.49815 71.120264 306.334387 71.120264 
Q 307.652087 71.120264 308.780542 70.833299 
Q 309.908998 70.533857 310.806155 69.910019 
L 310.806155 58.606073 
L 305.65451 58.606073 
L 305.65451 48.537327 
L 318.79646 48.537327 
z
" style="fill:#ffa600;"/>
   </g>
   <g id="patch_23">
    <path clip-path="url(#pcb029268cb)" d="M 342.106238 132.743249 
L 330.078631 132.743249 
L 328.179535 157.5 
L 320.442478 157.5 
L 331.491763 21.6 
L 340.667529 21.6 
L 351.716814 157.5 
L 343.986151 157.5 
z
M 331.99691 107.520489 
L 340.168777 107.520489 
L 336.089237 53.463395 
z
" style="fill:#008000;"/>
   </g>
   <g id="patch_24">
    <path clip-path="url(#pcb029268cb)" d="M 375.026592 151.9985 
L 362.998985 151.9985 
L 361.099889 157.5 
L 353.362832 157.5 
L 364.412117 127.3 
L 373.587883 127.3 
L 384.637168 157.5 
L 376.906505 157.5 
z
M 364.917264 146.393442 
L 373.089131 146.393442 
L 369.009591 134.380754 
z
" style="fill:#008000;"/>
   </g>
   <g id="patch_25">
    <path clip-path="url(#pcb029268cb)" d="M 353.362832 21.6 
L 384.637168 21.6 
L 384.637168 42.214445 
L 373.38568 42.214445 
L 373.38568 127.3 
L 364.636139 127.3 
L 364.636139 42.214445 
L 353.362832 42.214445 
z
" style="fill:#ff0000;"/>
   </g>
   <g id="patch_26">
    <path clip-path="url(#pcb029268cb)" d="M 407.946946 151.9985 
L 395.919339 151.9985 
L 394.020243 157.5 
L 386.283186 157.5 
L 397.332471 127.3 
L 406.508237 127.3 
L 417.557522 157.5 
L 409.826859 157.5 
z
M 397.837618 146.393442 
L 406.009485 146.393442 
L 401.929945 134.380754 
z
" style="fill:#008000;"/>
   </g>
   <g id="patch_27">
    <path clip-path="url(#pcb029268cb)" d="M 417.557522 117.736563 
Q 414.403454 122.518281 411.011079 124.920058 
Q 407.618703 127.3 404.002039 127.3 
Q 395.829498 127.3 391.056342 113.064016 
Q 386.283186 98.828031 386.283186 74.482751 
Q 386.283186 49.853625 391.140451 35.726813 
Q 396.004724 21.6 404.464635 21.6 
Q 407.723839 21.6 410.70969 23.521421 
Q 413.70255 25.421008 416.351967 29.176513 
L 416.351967 50.246643 
Q 413.618442 45.421256 410.912952 43.041314 
Q 408.207463 40.639537 405.487955 40.639537 
Q 400.455465 40.639537 397.728948 49.416939 
Q 395.002432 58.172506 395.002432 74.482751 
Q 395.002432 90.640157 397.630822 99.461227 
Q 400.259212 108.260463 405.095449 108.260463 
Q 406.413149 108.260463 407.541604 107.758273 
Q 408.670059 107.234249 409.567217 106.142533 
L 409.567217 86.360628 
L 404.415572 86.360628 
L 404.415572 68.740322 
L 417.557522 68.740322 
z
" style="fill:#ffa600;"/>
   </g>
   <g id="patch_28">
    <path clip-path="url(#pcb029268cb)" d="M 419.20354 142.4 
L 450.477876 142.4 
L 450.477876 145.344921 
L 439.226388 145.344921 
L 439.226388 157.5 
L 430.476847 157.5 
L 430.476847 145.344921 
L 419.20354 145.344921 
z
" style="fill:#ff0000;"/>
   </g>
   <g id="patch_29">
    <path clip-path="url(#pcb029268cb)" d="M 440.8673 120.393999 
L 428.839693 120.393999 
L 426.940597 142.4 
L 419.20354 142.4 
L 430.252825 21.6 
L 439.428591 21.6 
L 450.477876 142.4 
L 442.747213 142.4 
z
M 430.757972 97.973768 
L 438.929839 97.973768 
L 434.850299 49.923018 
z
" style="fill:#008000;"/>
   </g>
   <g id="patch_30">
    <path clip-path="url(#pcb029268cb)" d="M 473.787654 154.74925 
L 461.760047 154.74925 
L 459.860951 157.5 
L 452.123894 157.5 
L 463.173179 142.4 
L 472.348945 142.4 
L 483.39823 157.5 
L 475.667567 157.5 
z
M 463.678326 151.946721 
L 471.850193 151.946721 
L 467.770653 145.940377 
z
" style="fill:#008000;"/>
   </g>
   <g id="patch_31">
    <path clip-path="url(#pcb029268cb)" d="M 452.123894 21.6 
L 483.39823 21.6 
L 483.39823 45.159366 
L 472.146742 45.159366 
L 472.146742 142.4 
L 463.397201 142.4 
L 463.397201 45.159366 
L 452.123894 45.159366 
z
" style="fill:#ff0000;"/>
   </g>
   <g id="patch_32">
    <path clip-path="url(#pcb029268cb)" d="M 516.318584 145.204152 
Q 513.164516 151.352076 509.772141 154.440074 
Q 506.379765 157.5 502.763101 157.5 
Q 494.59056 157.5 489.817404 139.196592 
Q 485.044248 120.893183 485.044248 89.592109 
Q 485.044248 57.92609 489.901512 39.763045 
Q 494.765786 21.6 503.225697 21.6 
Q 506.484901 21.6 509.470752 24.070399 
Q 512.463612 26.512725 515.113029 31.341231 
L 515.113029 58.431398 
Q 512.379504 52.227329 509.674014 49.167403 
Q 506.968525 46.079405 504.249017 46.079405 
Q 499.216527 46.079405 496.49001 57.364635 
Q 493.763493 68.621793 493.763493 89.592109 
Q 493.763493 110.365916 496.391883 121.707292 
Q 499.020273 133.020595 503.856511 133.020595 
Q 505.174211 133.020595 506.302666 132.374923 
Q 507.431121 131.701177 508.328279 130.297542 
L 508.328279 104.863665 
L 503.176634 104.863665 
L 503.176634 82.208986 
L 516.318584 82.208986 
z
" style="fill:#ffa600;"/>
   </g>
   <g id="patch_33">
    <path clip-path="url(#pcb029268cb)" d="M 517.964602 127.3 
L 549.238938 127.3 
L 549.238938 133.189841 
L 537.98745 133.189841 
L 537.98745 157.5 
L 529.237909 157.5 
L 529.237909 133.189841 
L 517.964602 133.189841 
z
" style="fill:#ff0000;"/>
   </g>
   <g id="patch_34">
    <path clip-path="url(#pcb029268cb)" d="M 549.238938 117.736563 
Q 546.08487 122.518281 542.692495 124.920058 
Q 539.300119 127.3 535.683455 127.3 
Q 527.510914 127.3 522.737758 113.064016 
Q 517.964602 98.828031 517.964602 74.482751 
Q 517.964602 49.853625 522.821866 35.726813 
Q 527.68614 21.6 536.146051 21.6 
Q 539.405255 21.6 542.391106 23.521421 
Q 545.383966 25.421008 548.033383 29.176513 
L 548.033383 50.246643 
Q 545.299858 45.421256 542.594368 43.041314 
Q 539.888879 40.639537 537.169371 40.639537 
Q 532.136881 40.639537 529.410364 49.416939 
Q 526.683847 58.172506 526.683847 74.482751 
Q 526.683847 90.640157 529.312237 99.461227 
Q 531.940627 108.260463 536.776865 108.260463 
Q 538.094565 108.260463 539.22302 107.758273 
Q 540.351475 107.234249 541.248633 106.142533 
L 541.248633 86.360628 
L 536.096988 86.360628 
L 536.096988 68.740322 
L 549.238938 68.740322 
z
" style="fill:#ffa600;"/>
   </g>
   <g id="patch_35">
    <path clip-path="url(#pcb029268cb)" d="M 582.159292 156.133795 
Q 579.005224 156.816897 575.612849 157.160008 
Q 572.220473 157.5 568.603809 157.5 
Q 560.431268 157.5 555.658112 155.466288 
Q 550.884956 153.432576 550.884956 149.954679 
Q 550.884956 146.436232 555.74222 144.418116 
Q 560.606494 142.4 569.066405 142.4 
Q 572.325609 142.4 575.31146 142.674489 
Q 578.30432 142.945858 580.953737 143.482359 
L 580.953737 146.492378 
Q 578.220212 145.803037 575.514722 145.463045 
Q 572.809233 145.119934 570.089725 145.119934 
Q 565.057235 145.119934 562.330718 146.373848 
Q 559.604201 147.624644 559.604201 149.954679 
Q 559.604201 152.26288 562.232591 153.523032 
Q 564.860981 154.780066 569.697219 154.780066 
Q 571.014919 154.780066 572.143374 154.708325 
Q 573.271829 154.633464 574.168986 154.477505 
L 574.168986 151.651518 
L 569.017342 151.651518 
L 569.017342 149.134332 
L 582.159292 149.134332 
z
" style="fill:#ffa600;"/>
   </g>
   <g id="patch_36">
    <path clip-path="url(#pcb029268cb)" d="M 572.548716 134.14775 
L 560.521109 134.14775 
L 558.622013 142.4 
L 550.884956 142.4 
L 561.934241 97.1 
L 571.110007 97.1 
L 582.159292 142.4 
L 574.428629 142.4 
z
M 562.439387 125.740163 
L 570.611255 125.740163 
L 566.531715 107.721132 
z
" style="fill:#008000;"/>
   </g>
   <g id="patch_37">
    <path clip-path="url(#pcb029268cb)" d="M 582.159292 91.688205 
Q 579.543248 94.370709 576.714453 95.727556 
Q 573.885658 97.1 570.804714 97.1 
Q 561.617041 97.1 556.250998 86.93144 
Q 550.884956 76.76288 550.884956 59.373394 
Q 550.884956 41.921524 556.250998 31.76856 
Q 561.617041 21.6 570.804714 21.6 
Q 573.885658 21.6 576.714453 22.972444 
Q 579.543248 24.329291 582.159292 27.011795 
L 582.159292 42.061888 
Q 579.519609 38.506011 576.958722 36.85284 
Q 574.397835 35.199669 571.569041 35.199669 
Q 566.494545 35.199669 563.586954 41.640797 
Q 560.687242 48.066329 560.687242 59.373394 
Q 560.687242 70.633671 563.586954 77.074799 
Q 566.494545 83.500331 571.569041 83.500331 
Q 574.397835 83.500331 576.958722 81.84716 
Q 579.519609 80.178393 582.159292 76.622516 
z
" style="fill:#0000ff;"/>
   </g>
   <g id="patch_38">
    <path clip-path="url(#pcb029268cb)" d="M 615.079646 156.133795 
Q 611.925578 156.816897 608.533203 157.160008 
Q 605.140827 157.5 601.524163 157.5 
Q 593.351622 157.5 588.578466 155.466288 
Q 583.80531 153.432576 583.80531 149.954679 
Q 583.80531 146.436232 588.662574 144.418116 
Q 593.526848 142.4 601.986759 142.4 
Q 605.245963 142.4 608.231814 142.674489 
Q 611.224674 142.945858 613.874091 143.482359 
L 613.874091 146.492378 
Q 611.140566 145.803037 608.435076 145.463045 
Q 605.729587 145.119934 603.010079 145.119934 
Q 597.977589 145.119934 595.251072 146.373848 
Q 592.524555 147.624644 592.524555 149.954679 
Q 592.524555 152.26288 595.152945 153.523032 
Q 597.781335 154.780066 602.617573 154.780066 
Q 603.935272 154.780066 605.063728 154.708325 
Q 606.192183 154.633464 607.08934 154.477505 
L 607.08934 151.651518 
L 601.937696 151.651518 
L 601.937696 149.134332 
L 615.079646 149.134332 
z
" style="fill:#ffa600;"/>
   </g>
   <g id="patch_39">
    <path clip-path="url(#pcb029268cb)" d="M 605.46907 136.8985 
L 593.441463 136.8985 
L 591.542367 142.4 
L 583.80531 142.4 
L 594.854595 112.2 
L 604.030361 112.2 
L 615.079646 142.4 
L 607.348983 142.4 
z
M 595.359741 131.293442 
L 603.531609 131.293442 
L 599.452069 119.280754 
z
" style="fill:#008000;"/>
   </g>
   <g id="patch_40">
    <path clip-path="url(#pcb029268cb)" d="M 615.079646 110.035282 
Q 612.463602 111.108283 609.634807 111.651023 
Q 606.806012 112.2 603.725068 112.2 
Q 594.537395 112.2 589.171352 108.132576 
Q 583.80531 104.065152 583.80531 97.109358 
Q 583.80531 90.12861 589.171352 86.067424 
Q 594.537395 82 603.725068 82 
Q 606.806012 82 609.634807 82.548977 
Q 612.463602 83.091717 615.079646 84.164718 
L 615.079646 90.184755 
Q 612.439963 88.762404 609.879076 88.101136 
Q 607.318189 87.439868 604.489395 87.439868 
Q 599.414899 87.439868 596.507308 90.016319 
Q 593.607596 92.586532 593.607596 97.109358 
Q 593.607596 101.613468 596.507308 104.189919 
Q 599.414899 106.760132 604.489395 106.760132 
Q 607.318189 106.760132 609.879076 106.098864 
Q 612.439963 105.431357 615.079646 104.009006 
z
" style="fill:#0000ff;"/>
   </g>
   <g id="patch_41">
    <path clip-path="url(#pcb029268cb)" d="M 583.80531 21.6 
L 615.079646 21.6 
L 615.079646 33.379683 
L 603.828158 33.379683 
L 603.828158 82 
L 595.078617 82 
L 595.078617 33.379683 
L 583.80531 33.379683 
z
" style="fill:#ff0000;"/>
   </g>
   <g id="patch_42">
    <path clip-path="url(#pcb029268cb)" d="M 638.389424 154.74925 
L 626.361817 154.74925 
L 624.462721 157.5 
L 616.725664 157.5 
L 627.774949 142.4 
L 636.950715 142.4 
L 648 157.5 
L 640.269337 157.5 
z
M 628.280095 151.946721 
L 636.451963 151.946721 
L 632.372423 145.940377 
z
" style="fill:#008000;"/>
   </g>
   <g id="patch_43">
    <path clip-path="url(#pcb029268cb)" d="M 648 139.667589 
Q 644.845932 141.033795 641.453557 141.720017 
Q 638.061181 142.4 634.444517 142.4 
Q 626.271976 142.4 621.49882 138.332576 
Q 616.725664 134.265152 616.725664 127.309358 
Q 616.725664 120.272464 621.582928 116.236232 
Q 626.447202 112.2 634.907113 112.2 
Q 638.166317 112.2 641.152168 112.748977 
Q 644.145028 113.291717 646.794445 114.364718 
L 646.794445 120.384755 
Q 644.06092 119.006073 641.35543 118.32609 
Q 638.649941 117.639868 635.930433 117.639868 
Q 630.897943 117.639868 628.171426 120.147697 
Q 625.444909 122.649287 625.444909 127.309358 
Q 625.444909 131.925759 628.073299 134.446065 
Q 630.701689 136.960132 635.537927 136.960132 
Q 636.855626 136.960132 637.984082 136.816649 
Q 639.112537 136.666928 640.009694 136.355009 
L 640.009694 130.703037 
L 634.85805 130.703037 
L 634.85805 125.668663 
L 648 125.668663 
z
" style="fill:#ffa600;"/>
   </g>
   <g id="patch_44">
    <path clip-path="url(#pcb029268cb)" d="M 648 108.952923 
Q 645.383956 110.562425 642.555161 111.376534 
Q 639.726366 112.2 636.645422 112.2 
Q 627.457749 112.2 622.091706 106.098864 
Q 616.725664 99.997728 616.725664 89.564036 
Q 616.725664 79.092915 622.091706 73.001136 
Q 627.457749 66.9 636.645422 66.9 
Q 639.726366 66.9 642.555161 67.723466 
Q 645.383956 68.537575 648 70.147077 
L 648 79.177133 
Q 645.360317 77.043607 642.79943 76.051704 
Q 640.238543 75.059802 637.409749 75.059802 
Q 632.335253 75.059802 629.427662 78.924478 
Q 626.52795 82.779798 626.52795 89.564036 
Q 626.52795 96.320202 629.427662 100.184879 
Q 632.335253 104.040198 637.409749 104.040198 
Q 640.238543 104.040198 642.79943 103.048296 
Q 645.360317 102.047036 648 99.91351 
z
" style="fill:#0000ff;"/>
   </g>
   <g id="patch_45">
    <path clip-path="url(#pcb029268cb)" d="M 616.725664 21.6 
L 648 21.6 
L 648 30.434762 
L 636.748512 30.434762 
L 636.748512 66.9 
L 627.998971 66.9 
L 627.998971 30.434762 
L 616.725664 30.434762 
z
" style="fill:#ff0000;"/>
   </g>
  </g>
 </g>
 <defs>
  <clipPath id="pcb029268cb">
   <rect height="135.9" width="558" x="90" y="21.6"/>
  </clipPath>
 </defs>
</svg>
