<?xml version="1.0" encoding="utf-8" standalone="no"?>
<!DOCTYPE svg PUBLIC "-//W3C//DTD SVG 1.1//EN"
  "http://www.w3.org/Graphics/SVG/1.1/DTD/svg11.dtd">
<!-- Created with matplotlib (https://matplotlib.org/) -->
<svg height="180pt" version="1.1" viewBox="0 0 720 180" width="720pt" xmlns="http://www.w3.org/2000/svg" xmlns:xlink="http://www.w3.org/1999/xlink">
 <metadata>
  <rdf:RDF xmlns:cc="http://creativecommons.org/ns#" xmlns:dc="http://purl.org/dc/elements/1.1/" xmlns:rdf="http://www.w3.org/1999/02/22-rdf-syntax-ns#">
   <cc:Work>
    <dc:type rdf:resource="http://purl.org/dc/dcmitype/StillImage"/>
    <dc:date>2021-08-04T23:33:01.772182</dc:date>
    <dc:format>image/svg+xml</dc:format>
    <dc:creator>
     <cc:Agent>
      <dc:title>Matplotlib v3.3.2, https://matplotlib.org/</dc:title>
     </cc:Agent>
    </dc:creator>
   </cc:Work>
  </rdf:RDF>
 </metadata>
 <defs>
  <style type="text/css">*{stroke-linecap:butt;stroke-linejoin:round;}</style>
 </defs>
 <g id="figure_1">
  <g id="patch_1">
   <path d="M 0 180 
L 720 180 
L 720 0 
L 0 0 
z
" style="fill:none;"/>
  </g>
  <g id="axes_1">
   <g id="line2d_1">
    <path clip-path="url(#pcf95f4b5a4)" d="M 90 157.5 
L 648 157.5 
" style="fill:none;stroke:#000000;stroke-linecap:square;stroke-width:0.5;"/>
   </g>
   <g id="patch_2">
    <path clip-path="url(#pcf95f4b5a4)" d="M 111.66376 154.74925 
L 99.636153 154.74925 
L 97.737057 157.5 
L 90 157.5 
L 101.049285 142.4 
L 110.225051 142.4 
L 121.274336 157.5 
L 113.543673 157.5 
z
M 101.554432 151.946721 
L 109.726299 151.946721 
L 105.64676 145.940377 
z
" style="fill:#008000;"/>
   </g>
   <g id="patch_3">
    <path clip-path="url(#pcf95f4b5a4)" d="M 90 112.2 
L 121.274336 112.2 
L 121.274336 118.089841 
L 110.022848 118.089841 
L 110.022848 142.4 
L 101.273307 142.4 
L 101.273307 118.089841 
L 90 118.089841 
z
" style="fill:#ff0000;"/>
   </g>
   <g id="patch_4">
    <path clip-path="url(#pcf95f4b5a4)" d="M 121.274336 108.952923 
Q 118.658292 110.562425 115.829497 111.376534 
Q 113.000702 112.2 109.919759 112.2 
Q 100.732085 112.2 95.366043 106.098864 
Q 90 99.997728 90 89.564036 
Q 90 79.092915 95.366043 73.001136 
Q 100.732085 66.9 109.919759 66.9 
Q 113.000702 66.9 115.829497 67.723466 
Q 118.658292 68.537575 121.274336 70.147077 
L 121.274336 79.177133 
Q 118.634653 77.043607 116.073766 76.051704 
Q 113.51288 75.059802 110.684085 75.059802 
Q 105.609589 75.059802 102.701998 78.924478 
Q 99.802286 82.779798 99.802286 89.564036 
Q 99.802286 96.320202 102.701998 100.184879 
Q 105.609589 104.040198 110.684085 104.040198 
Q 113.51288 104.040198 116.073766 103.048296 
Q 118.634653 102.047036 121.274336 99.91351 
z
" style="fill:#0000ff;"/>
   </g>
   <g id="patch_5">
    <path clip-path="url(#pcf95f4b5a4)" d="M 121.274336 62.801384 
Q 118.120268 64.850692 114.727893 65.880025 
Q 111.335518 66.9 107.718853 66.9 
Q 99.546312 66.9 94.773156 60.798864 
Q 90 54.697728 90 44.264036 
Q 90 33.708697 94.857265 27.654348 
Q 99.721538 21.6 108.18145 21.6 
Q 111.440653 21.6 114.426504 22.423466 
Q 117.419364 23.237575 120.068781 24.847077 
L 120.068781 33.877133 
Q 117.335256 31.80911 114.629766 30.789134 
Q 111.924277 29.759802 109.204769 29.759802 
Q 104.172279 29.759802 101.445762 33.521545 
Q 98.719246 37.273931 98.719246 44.264036 
Q 98.719246 51.188639 101.347636 54.969097 
Q 103.976026 58.740198 108.812263 58.740198 
Q 110.129963 58.740198 111.258418 58.524974 
Q 112.386874 58.300392 113.284031 57.832514 
L 113.284031 49.354555 
L 108.132386 49.354555 
L 108.132386 41.802995 
L 121.274336 41.802995 
z
" style="fill:#ffa600;"/>
   </g>
   <g id="patch_6">
    <path clip-path="url(#pcf95f4b5a4)" d="M 122.920354 142.4 
L 154.19469 142.4 
L 154.19469 145.344921 
L 142.943202 145.344921 
L 142.943202 157.5 
L 134.193661 157.5 
L 134.193661 145.344921 
L 122.920354 145.344921 
z
" style="fill:#ff0000;"/>
   </g>
   <g id="patch_7">
    <path clip-path="url(#pcf95f4b5a4)" d="M 144.584114 131.397 
L 132.556507 131.397 
L 130.657411 142.4 
L 122.920354 142.4 
L 133.969639 82 
L 143.145405 82 
L 154.19469 142.4 
L 146.464027 142.4 
z
M 134.474786 120.186884 
L 142.646653 120.186884 
L 138.567114 96.161509 
z
" style="fill:#008000;"/>
   </g>
   <g id="patch_8">
    <path clip-path="url(#pcf95f4b5a4)" d="M 154.19469 76.535179 
Q 151.040622 79.267589 147.648247 80.640033 
Q 144.255872 82 140.639207 82 
Q 132.466666 82 127.69351 73.865152 
Q 122.920354 65.730304 122.920354 51.818715 
Q 122.920354 37.744929 127.777619 29.672464 
Q 132.641892 21.6 141.101804 21.6 
Q 144.361007 21.6 147.346858 22.697955 
Q 150.339718 23.783433 152.989135 25.929436 
L 152.989135 37.96951 
Q 150.25561 35.212146 147.55012 33.852179 
Q 144.844631 32.479736 142.125123 32.479736 
Q 137.092633 32.479736 134.366116 37.495394 
Q 131.6396 42.498575 131.6396 51.818715 
Q 131.6396 61.051518 134.26799 66.09213 
Q 136.89638 71.120264 141.732617 71.120264 
Q 143.050317 71.120264 144.178772 70.833299 
Q 145.307228 70.533857 146.204385 69.910019 
L 146.204385 58.606073 
L 141.05274 58.606073 
L 141.05274 48.537327 
L 154.19469 48.537327 
z
" style="fill:#ffa600;"/>
   </g>
   <g id="patch_9">
    <path clip-path="url(#pcf95f4b5a4)" d="M 155.840708 142.4 
L 187.115044 142.4 
L 187.115044 145.344921 
L 175.863556 145.344921 
L 175.863556 157.5 
L 167.114015 157.5 
L 167.114015 145.344921 
L 155.840708 145.344921 
z
" style="fill:#ff0000;"/>
   </g>
   <g id="patch_10">
    <path clip-path="url(#pcf95f4b5a4)" d="M 187.115044 139.667589 
Q 183.960976 141.033795 180.568601 141.720017 
Q 177.176226 142.4 173.559561 142.4 
Q 165.38702 142.4 160.613864 138.332576 
Q 155.840708 134.265152 155.840708 127.309358 
Q 155.840708 120.272464 160.697973 116.236232 
Q 165.562246 112.2 174.022158 112.2 
Q 177.281361 112.2 180.267212 112.748977 
Q 183.260072 113.291717 185.909489 114.364718 
L 185.909489 120.384755 
Q 183.175964 119.006073 180.470474 118.32609 
Q 177.764985 117.639868 175.045477 117.639868 
Q 170.012987 117.639868 167.28647 120.147697 
Q 164.559954 122.649287 164.559954 127.309358 
Q 164.559954 131.925759 167.188344 134.446065 
Q 169.816734 136.960132 174.652971 136.960132 
Q 175.970671 136.960132 177.099126 136.816649 
Q 178.227582 136.666928 179.124739 136.355009 
L 179.124739 130.703037 
L 173.973094 130.703037 
L 173.973094 125.668663 
L 187.115044 125.668663 
z
" style="fill:#ffa600;"/>
   </g>
   <g id="patch_11">
    <path clip-path="url(#pcf95f4b5a4)" d="M 177.504468 95.695499 
L 165.476861 95.695499 
L 163.577765 112.2 
L 155.840708 112.2 
L 166.889993 21.6 
L 176.065759 21.6 
L 187.115044 112.2 
L 179.384381 112.2 
z
M 167.39514 78.880326 
L 175.567007 78.880326 
L 171.487467 42.842263 
z
" style="fill:#008000;"/>
   </g>
   <g id="patch_12">
    <path clip-path="url(#pcf95f4b5a4)" d="M 188.761062 142.4 
L 220.035398 142.4 
L 220.035398 145.344921 
L 208.78391 145.344921 
L 208.78391 157.5 
L 200.034369 157.5 
L 200.034369 145.344921 
L 188.761062 145.344921 
z
" style="fill:#ff0000;"/>
   </g>
   <g id="patch_13">
    <path clip-path="url(#pcf95f4b5a4)" d="M 210.424822 134.14775 
L 198.397215 134.14775 
L 196.498119 142.4 
L 188.761062 142.4 
L 199.810347 97.1 
L 208.986113 97.1 
L 220.035398 142.4 
L 212.304735 142.4 
z
M 200.315494 125.740163 
L 208.487361 125.740163 
L 204.407821 107.721132 
z
" style="fill:#008000;"/>
   </g>
   <g id="patch_14">
    <path clip-path="url(#pcf95f4b5a4)" d="M 220.035398 91.688205 
Q 217.419354 94.370709 214.590559 95.727556 
Q 211.761764 97.1 208.680821 97.1 
Q 199.493147 97.1 194.127105 86.93144 
Q 188.761062 76.76288 188.761062 59.373394 
Q 188.761062 41.921524 194.127105 31.76856 
Q 199.493147 21.6 208.680821 21.6 
Q 211.761764 21.6 214.590559 22.972444 
Q 217.419354 24.329291 220.035398 27.011795 
L 220.035398 42.061888 
Q 217.395715 38.506011 214.834828 36.85284 
Q 212.273942 35.199669 209.445147 35.199669 
Q 204.370651 35.199669 201.46306 41.640797 
Q 198.563348 48.066329 198.563348 59.373394 
Q 198.563348 70.633671 201.46306 77.074799 
Q 204.370651 83.500331 209.445147 83.500331 
Q 212.273942 83.500331 214.834828 81.84716 
Q 217.395715 80.178393 220.035398 76.622516 
z
" style="fill:#0000ff;"/>
   </g>
   <g id="patch_15">
    <path clip-path="url(#pcf95f4b5a4)" d="M 221.681416 142.4 
L 252.955752 142.4 
L 252.955752 145.344921 
L 241.704264 145.344921 
L 241.704264 157.5 
L 232.954723 157.5 
L 232.954723 145.344921 
L 221.681416 145.344921 
z
" style="fill:#ff0000;"/>
   </g>
   <g id="patch_16">
    <path clip-path="url(#pcf95f4b5a4)" d="M 243.345176 131.397 
L 231.317569 131.397 
L 229.418473 142.4 
L 221.681416 142.4 
L 232.730701 82 
L 241.906467 82 
L 252.955752 142.4 
L 245.225089 142.4 
z
M 233.235848 120.186884 
L 241.407715 120.186884 
L 237.328175 96.161509 
z
" style="fill:#008000;"/>
   </g>
   <g id="patch_17">
    <path clip-path="url(#pcf95f4b5a4)" d="M 252.955752 76.535179 
Q 249.801684 79.267589 246.409309 80.640033 
Q 243.016934 82 239.400269 82 
Q 231.227728 82 226.454572 73.865152 
Q 221.681416 65.730304 221.681416 51.818715 
Q 221.681416 37.744929 226.538681 29.672464 
Q 231.402954 21.6 239.862866 21.6 
Q 243.122069 21.6 246.10792 22.697955 
Q 249.10078 23.783433 251.750197 25.929436 
L 251.750197 37.96951 
Q 249.016672 35.212146 246.311182 33.852179 
Q 243.605693 32.479736 240.886185 32.479736 
Q 235.853695 32.479736 233.127178 37.495394 
Q 230.400662 42.498575 230.400662 51.818715 
Q 230.400662 61.051518 233.029052 66.09213 
Q 235.657442 71.120264 240.493679 71.120264 
Q 241.811379 71.120264 242.939834 70.833299 
Q 244.06829 70.533857 244.965447 69.910019 
L 244.965447 58.606073 
L 239.813802 58.606073 
L 239.813802 48.537327 
L 252.955752 48.537327 
z
" style="fill:#ffa600;"/>
   </g>
   <g id="patch_18">
    <path clip-path="url(#pcf95f4b5a4)" d="M 285.876106 156.133795 
Q 282.722038 156.816897 279.329663 157.160008 
Q 275.937288 157.5 272.320623 157.5 
Q 264.148082 157.5 259.374926 155.466288 
Q 254.60177 153.432576 254.60177 149.954679 
Q 254.60177 146.436232 259.459035 144.418116 
Q 264.323308 142.4 272.78322 142.4 
Q 276.042423 142.4 279.028274 142.674489 
Q 282.021134 142.945858 284.670551 143.482359 
L 284.670551 146.492378 
Q 281.937026 145.803037 279.231536 145.463045 
Q 276.526047 145.119934 273.806539 145.119934 
Q 268.774049 145.119934 266.047532 146.373848 
Q 263.321016 147.624644 263.321016 149.954679 
Q 263.321016 152.26288 265.949406 153.523032 
Q 268.577796 154.780066 273.414033 154.780066 
Q 274.731733 154.780066 275.860188 154.708325 
Q 276.988644 154.633464 277.885801 154.477505 
L 277.885801 151.651518 
L 272.734156 151.651518 
L 272.734156 149.134332 
L 285.876106 149.134332 
z
" style="fill:#ffa600;"/>
   </g>
   <g id="patch_19">
    <path clip-path="url(#pcf95f4b5a4)" d="M 276.26553 120.393999 
L 264.237923 120.393999 
L 262.338827 142.4 
L 254.60177 142.4 
L 265.651055 21.6 
L 274.826821 21.6 
L 285.876106 142.4 
L 278.145443 142.4 
z
M 266.156202 97.973768 
L 274.328069 97.973768 
L 270.248529 49.923018 
z
" style="fill:#008000;"/>
   </g>
   <g id="patch_20">
    <path clip-path="url(#pcf95f4b5a4)" d="M 318.79646 156.133795 
Q 315.642392 156.816897 312.250017 157.160008 
Q 308.857642 157.5 305.240977 157.5 
Q 297.068436 157.5 292.29528 155.466288 
Q 287.522124 153.432576 287.522124 149.954679 
Q 287.522124 146.436232 292.379389 144.418116 
Q 297.243662 142.4 305.703574 142.4 
Q 308.962777 142.4 311.948628 142.674489 
Q 314.941488 142.945858 317.590905 143.482359 
L 317.590905 146.492378 
Q 314.85738 145.803037 312.15189 145.463045 
Q 309.446401 145.119934 306.726893 145.119934 
Q 301.694403 145.119934 298.967886 146.373848 
Q 296.24137 147.624644 296.24137 149.954679 
Q 296.24137 152.26288 298.86976 153.523032 
Q 301.49815 154.780066 306.334387 154.780066 
Q 307.652087 154.780066 308.780542 154.708325 
Q 309.908998 154.633464 310.806155 154.477505 
L 310.806155 151.651518 
L 305.65451 151.651518 
L 305.65451 149.134332 
L 318.79646 149.134332 
z
" style="fill:#ffa600;"/>
   </g>
   <g id="patch_21">
    <path clip-path="url(#pcf95f4b5a4)" d="M 287.522124 21.6 
L 318.79646 21.6 
L 318.79646 45.159366 
L 307.544972 45.159366 
L 307.544972 142.4 
L 298.795431 142.4 
L 298.795431 45.159366 
L 287.522124 45.159366 
z
" style="fill:#ff0000;"/>
   </g>
   <g id="patch_22">
    <path clip-path="url(#pcf95f4b5a4)" d="M 320.442478 142.4 
L 351.716814 142.4 
L 351.716814 145.344921 
L 340.465326 145.344921 
L 340.465326 157.5 
L 331.715785 157.5 
L 331.715785 145.344921 
L 320.442478 145.344921 
z
" style="fill:#ff0000;"/>
   </g>
   <g id="patch_23">
    <path clip-path="url(#pcf95f4b5a4)" d="M 351.716814 131.470357 
Q 348.562746 136.935179 345.170371 139.680066 
Q 341.777996 142.4 338.161331 142.4 
Q 329.98879 142.4 325.215634 126.130304 
Q 320.442478 109.860607 320.442478 82.03743 
Q 320.442478 53.889857 325.299743 37.744929 
Q 330.164016 21.6 338.623928 21.6 
Q 341.883131 21.6 344.868982 23.79591 
Q 347.861842 25.966866 350.511259 30.258872 
L 350.511259 54.339021 
Q 347.777734 48.824293 345.072244 46.104359 
Q 342.366755 43.359471 339.647247 43.359471 
Q 334.614757 43.359471 331.88824 53.390787 
Q 329.161724 63.397149 329.161724 82.03743 
Q 329.161724 100.503037 331.790114 110.584259 
Q 334.418504 120.640529 339.254741 120.640529 
Q 340.572441 120.640529 341.700896 120.066598 
Q 342.829351 119.467713 343.726509 118.220037 
L 343.726509 95.612146 
L 338.574864 95.612146 
L 338.574864 75.474654 
L 351.716814 75.474654 
z
" style="fill:#ffa600;"/>
   </g>
   <g id="patch_24">
    <path clip-path="url(#pcf95f4b5a4)" d="M 375.026592 132.743249 
L 362.998985 132.743249 
L 361.099889 157.5 
L 353.362832 157.5 
L 364.412117 21.6 
L 373.587883 21.6 
L 384.637168 157.5 
L 376.906505 157.5 
z
M 364.917264 107.520489 
L 373.089131 107.520489 
L 369.009591 53.463395 
z
" style="fill:#008000;"/>
   </g>
   <g id="patch_25">
    <path clip-path="url(#pcf95f4b5a4)" d="M 386.283186 21.6 
L 417.557522 21.6 
L 417.557522 48.104286 
L 406.306034 48.104286 
L 406.306034 157.5 
L 397.556493 157.5 
L 397.556493 48.104286 
L 386.283186 48.104286 
z
" style="fill:#ff0000;"/>
   </g>
   <g id="patch_26">
    <path clip-path="url(#pcf95f4b5a4)" d="M 450.477876 145.204152 
Q 447.323808 151.352076 443.931433 154.440074 
Q 440.539057 157.5 436.922393 157.5 
Q 428.749852 157.5 423.976696 139.196592 
Q 419.20354 120.893183 419.20354 89.592109 
Q 419.20354 57.92609 424.060805 39.763045 
Q 428.925078 21.6 437.384989 21.6 
Q 440.644193 21.6 443.630044 24.070399 
Q 446.622904 26.512725 449.272321 31.341231 
L 449.272321 58.431398 
Q 446.538796 52.227329 443.833306 49.167403 
Q 441.127817 46.079405 438.408309 46.079405 
Q 433.375819 46.079405 430.649302 57.364635 
Q 427.922786 68.621793 427.922786 89.592109 
Q 427.922786 110.365916 430.551176 121.707292 
Q 433.179565 133.020595 438.015803 133.020595 
Q 439.333503 133.020595 440.461958 132.374923 
Q 441.590413 131.701177 442.487571 130.297542 
L 442.487571 104.863665 
L 437.335926 104.863665 
L 437.335926 82.208986 
L 450.477876 82.208986 
z
" style="fill:#ffa600;"/>
   </g>
   <g id="patch_27">
    <path clip-path="url(#pcf95f4b5a4)" d="M 483.39823 156.417641 
Q 480.782186 156.954142 477.953391 157.225511 
Q 475.124596 157.5 472.043652 157.5 
Q 462.855979 157.5 457.489936 155.466288 
Q 452.123894 153.432576 452.123894 149.954679 
Q 452.123894 146.464305 457.489936 144.433712 
Q 462.855979 142.4 472.043652 142.4 
Q 475.124596 142.4 477.953391 142.674489 
Q 480.782186 142.945858 483.39823 143.482359 
L 483.39823 146.492378 
Q 480.758547 145.781202 478.19766 145.450568 
Q 475.636773 145.119934 472.807979 145.119934 
Q 467.733483 145.119934 464.825892 146.408159 
Q 461.92618 147.693266 461.92618 149.954679 
Q 461.92618 152.206734 464.825892 153.49496 
Q 467.733483 154.780066 472.807979 154.780066 
Q 475.636773 154.780066 478.19766 154.449432 
Q 480.758547 154.115679 483.39823 153.404503 
z
" style="fill:#0000ff;"/>
   </g>
   <g id="patch_28">
    <path clip-path="url(#pcf95f4b5a4)" d="M 452.123894 21.6 
L 483.39823 21.6 
L 483.39823 45.159366 
L 472.146742 45.159366 
L 472.146742 142.4 
L 463.397201 142.4 
L 463.397201 45.159366 
L 452.123894 45.159366 
z
" style="fill:#ff0000;"/>
   </g>
   <g id="patch_29">
    <path clip-path="url(#pcf95f4b5a4)" d="M 516.318584 156.417641 
Q 513.70254 156.954142 510.873745 157.225511 
Q 508.04495 157.5 504.964006 157.5 
Q 495.776333 157.5 490.41029 155.466288 
Q 485.044248 153.432576 485.044248 149.954679 
Q 485.044248 146.464305 490.41029 144.433712 
Q 495.776333 142.4 504.964006 142.4 
Q 508.04495 142.4 510.873745 142.674489 
Q 513.70254 142.945858 516.318584 143.482359 
L 516.318584 146.492378 
Q 513.678901 145.781202 511.118014 145.450568 
Q 508.557127 145.119934 505.728333 145.119934 
Q 500.653837 145.119934 497.746246 146.408159 
Q 494.846534 147.693266 494.846534 149.954679 
Q 494.846534 152.206734 497.746246 153.49496 
Q 500.653837 154.780066 505.728333 154.780066 
Q 508.557127 154.780066 511.118014 154.449432 
Q 513.678901 154.115679 516.318584 153.404503 
z
" style="fill:#0000ff;"/>
   </g>
   <g id="patch_30">
    <path clip-path="url(#pcf95f4b5a4)" d="M 506.708008 136.8985 
L 494.680401 136.8985 
L 492.781305 142.4 
L 485.044248 142.4 
L 496.093533 112.2 
L 505.269299 112.2 
L 516.318584 142.4 
L 508.587921 142.4 
z
M 496.59868 131.293442 
L 504.770547 131.293442 
L 500.691007 119.280754 
z
" style="fill:#008000;"/>
   </g>
   <g id="patch_31">
    <path clip-path="url(#pcf95f4b5a4)" d="M 516.318584 104.002768 
Q 513.164516 108.101384 509.772141 110.16005 
Q 506.379765 112.2 502.763101 112.2 
Q 494.59056 112.2 489.817404 99.997728 
Q 485.044248 87.795455 485.044248 66.928073 
Q 485.044248 45.817393 489.901512 33.708697 
Q 494.765786 21.6 503.225697 21.6 
Q 506.484901 21.6 509.470752 23.246932 
Q 512.463612 24.87515 515.113029 28.094154 
L 515.113029 46.154266 
Q 512.379504 42.018219 509.674014 39.978269 
Q 506.968525 37.919603 504.249017 37.919603 
Q 499.216527 37.919603 496.49001 45.44309 
Q 493.763493 52.947862 493.763493 66.928073 
Q 493.763493 80.777277 496.391883 88.338195 
Q 499.020273 95.880397 503.856511 95.880397 
Q 505.174211 95.880397 506.302666 95.449948 
Q 507.431121 95.000785 508.328279 94.065028 
L 508.328279 77.10911 
L 503.176634 77.10911 
L 503.176634 62.00599 
L 516.318584 62.00599 
z
" style="fill:#ffa600;"/>
   </g>
   <g id="patch_32">
    <path clip-path="url(#pcf95f4b5a4)" d="M 517.964602 142.4 
L 549.238938 142.4 
L 549.238938 145.344921 
L 537.98745 145.344921 
L 537.98745 157.5 
L 529.237909 157.5 
L 529.237909 145.344921 
L 517.964602 145.344921 
z
" style="fill:#ff0000;"/>
   </g>
   <g id="patch_33">
    <path clip-path="url(#pcf95f4b5a4)" d="M 549.238938 139.667589 
Q 546.08487 141.033795 542.692495 141.720017 
Q 539.300119 142.4 535.683455 142.4 
Q 527.510914 142.4 522.737758 138.332576 
Q 517.964602 134.265152 517.964602 127.309358 
Q 517.964602 120.272464 522.821866 116.236232 
Q 527.68614 112.2 536.146051 112.2 
Q 539.405255 112.2 542.391106 112.748977 
Q 545.383966 113.291717 548.033383 114.364718 
L 548.033383 120.384755 
Q 545.299858 119.006073 542.594368 118.32609 
Q 539.888879 117.639868 537.169371 117.639868 
Q 532.136881 117.639868 529.410364 120.147697 
Q 526.683847 122.649287 526.683847 127.309358 
Q 526.683847 131.925759 529.312237 134.446065 
Q 531.940627 136.960132 536.776865 136.960132 
Q 538.094565 136.960132 539.22302 136.816649 
Q 540.351475 136.666928 541.248633 136.355009 
L 541.248633 130.703037 
L 536.096988 130.703037 
L 536.096988 125.668663 
L 549.238938 125.668663 
z
" style="fill:#ffa600;"/>
   </g>
   <g id="patch_34">
    <path clip-path="url(#pcf95f4b5a4)" d="M 539.628362 95.695499 
L 527.600755 95.695499 
L 525.701659 112.2 
L 517.964602 112.2 
L 529.013887 21.6 
L 538.189653 21.6 
L 549.238938 112.2 
L 541.508275 112.2 
z
M 529.519034 78.880326 
L 537.690901 78.880326 
L 533.611361 42.842263 
z
" style="fill:#008000;"/>
   </g>
   <g id="patch_35">
    <path clip-path="url(#pcf95f4b5a4)" d="M 582.159292 156.133795 
Q 579.005224 156.816897 575.612849 157.160008 
Q 572.220473 157.5 568.603809 157.5 
Q 560.431268 157.5 555.658112 155.466288 
Q 550.884956 153.432576 550.884956 149.954679 
Q 550.884956 146.436232 555.74222 144.418116 
Q 560.606494 142.4 569.066405 142.4 
Q 572.325609 142.4 575.31146 142.674489 
Q 578.30432 142.945858 580.953737 143.482359 
L 580.953737 146.492378 
Q 578.220212 145.803037 575.514722 145.463045 
Q 572.809233 145.119934 570.089725 145.119934 
Q 565.057235 145.119934 562.330718 146.373848 
Q 559.604201 147.624644 559.604201 149.954679 
Q 559.604201 152.26288 562.232591 153.523032 
Q 564.860981 154.780066 569.697219 154.780066 
Q 571.014919 154.780066 572.143374 154.708325 
Q 573.271829 154.633464 574.168986 154.477505 
L 574.168986 151.651518 
L 569.017342 151.651518 
L 569.017342 149.134332 
L 582.159292 149.134332 
z
" style="fill:#ffa600;"/>
   </g>
   <g id="patch_36">
    <path clip-path="url(#pcf95f4b5a4)" d="M 572.548716 131.397 
L 560.521109 131.397 
L 558.622013 142.4 
L 550.884956 142.4 
L 561.934241 82 
L 571.110007 82 
L 582.159292 142.4 
L 574.428629 142.4 
z
M 562.439387 120.186884 
L 570.611255 120.186884 
L 566.531715 96.161509 
z
" style="fill:#008000;"/>
   </g>
   <g id="patch_37">
    <path clip-path="url(#pcf95f4b5a4)" d="M 582.159292 77.670564 
Q 579.543248 79.816567 576.714453 80.902045 
Q 573.885658 82 570.804714 82 
Q 561.617041 82 556.250998 73.865152 
Q 550.884956 65.730304 550.884956 51.818715 
Q 550.884956 37.85722 556.250998 29.734848 
Q 561.617041 21.6 570.804714 21.6 
Q 573.885658 21.6 576.714453 22.697955 
Q 579.543248 23.783433 582.159292 25.929436 
L 582.159292 37.96951 
Q 579.519609 35.124809 576.958722 33.802272 
Q 574.397835 32.479736 571.569041 32.479736 
Q 566.494545 32.479736 563.586954 37.632638 
Q 560.687242 42.773063 560.687242 51.818715 
Q 560.687242 60.826937 563.586954 65.979839 
Q 566.494545 71.120264 571.569041 71.120264 
Q 574.397835 71.120264 576.958722 69.797728 
Q 579.519609 68.462714 582.159292 65.618013 
z
" style="fill:#0000ff;"/>
   </g>
   <g id="patch_38">
    <path clip-path="url(#pcf95f4b5a4)" d="M 605.46907 154.74925 
L 593.441463 154.74925 
L 591.542367 157.5 
L 583.80531 157.5 
L 594.854595 142.4 
L 604.030361 142.4 
L 615.079646 157.5 
L 607.348983 157.5 
z
M 595.359741 151.946721 
L 603.531609 151.946721 
L 599.452069 145.940377 
z
" style="fill:#008000;"/>
   </g>
   <g id="patch_39">
    <path clip-path="url(#pcf95f4b5a4)" d="M 615.079646 141.317641 
Q 612.463602 141.854142 609.634807 142.125511 
Q 606.806012 142.4 603.725068 142.4 
Q 594.537395 142.4 589.171352 140.366288 
Q 583.80531 138.332576 583.80531 134.854679 
Q 583.80531 131.364305 589.171352 129.333712 
Q 594.537395 127.3 603.725068 127.3 
Q 606.806012 127.3 609.634807 127.574489 
Q 612.463602 127.845858 615.079646 128.382359 
L 615.079646 131.392378 
Q 612.439963 130.681202 609.879076 130.350568 
Q 607.318189 130.019934 604.489395 130.019934 
Q 599.414899 130.019934 596.507308 131.308159 
Q 593.607596 132.593266 593.607596 134.854679 
Q 593.607596 137.106734 596.507308 138.39496 
Q 599.414899 139.680066 604.489395 139.680066 
Q 607.318189 139.680066 609.879076 139.349432 
Q 612.439963 139.015679 615.079646 138.304503 
z
" style="fill:#0000ff;"/>
   </g>
   <g id="patch_40">
    <path clip-path="url(#pcf95f4b5a4)" d="M 615.079646 125.933795 
Q 611.925578 126.616897 608.533203 126.960008 
Q 605.140827 127.3 601.524163 127.3 
Q 593.351622 127.3 588.578466 125.266288 
Q 583.80531 123.232576 583.80531 119.754679 
Q 583.80531 116.236232 588.662574 114.218116 
Q 593.526848 112.2 601.986759 112.2 
Q 605.245963 112.2 608.231814 112.474489 
Q 611.224674 112.745858 613.874091 113.282359 
L 613.874091 116.292378 
Q 611.140566 115.603037 608.435076 115.263045 
Q 605.729587 114.919934 603.010079 114.919934 
Q 597.977589 114.919934 595.251072 116.173848 
Q 592.524555 117.424644 592.524555 119.754679 
Q 592.524555 122.06288 595.152945 123.323032 
Q 597.781335 124.580066 602.617573 124.580066 
Q 603.935272 124.580066 605.063728 124.508325 
Q 606.192183 124.433464 607.08934 124.277505 
L 607.08934 121.451518 
L 601.937696 121.451518 
L 601.937696 118.934332 
L 615.079646 118.934332 
z
" style="fill:#ffa600;"/>
   </g>
   <g id="patch_41">
    <path clip-path="url(#pcf95f4b5a4)" d="M 583.80531 21.6 
L 615.079646 21.6 
L 615.079646 39.269524 
L 603.828158 39.269524 
L 603.828158 112.2 
L 595.078617 112.2 
L 595.078617 39.269524 
L 583.80531 39.269524 
z
" style="fill:#ff0000;"/>
   </g>
   <g id="patch_42">
    <path clip-path="url(#pcf95f4b5a4)" d="M 648 156.417641 
Q 645.383956 156.954142 642.555161 157.225511 
Q 639.726366 157.5 636.645422 157.5 
Q 627.457749 157.5 622.091706 155.466288 
Q 616.725664 153.432576 616.725664 149.954679 
Q 616.725664 146.464305 622.091706 144.433712 
Q 627.457749 142.4 636.645422 142.4 
Q 639.726366 142.4 642.555161 142.674489 
Q 645.383956 142.945858 648 143.482359 
L 648 146.492378 
Q 645.360317 145.781202 642.79943 145.450568 
Q 640.238543 145.119934 637.409749 145.119934 
Q 632.335253 145.119934 629.427662 146.408159 
Q 626.52795 147.693266 626.52795 149.954679 
Q 626.52795 152.206734 629.427662 153.49496 
Q 632.335253 154.780066 637.409749 154.780066 
Q 640.238543 154.780066 642.79943 154.449432 
Q 645.360317 154.115679 648 153.404503 
z
" style="fill:#0000ff;"/>
   </g>
   <g id="patch_43">
    <path clip-path="url(#pcf95f4b5a4)" d="M 616.725664 127.3 
L 648 127.3 
L 648 130.244921 
L 636.748512 130.244921 
L 636.748512 142.4 
L 627.998971 142.4 
L 627.998971 130.244921 
L 616.725664 130.244921 
z
" style="fill:#ff0000;"/>
   </g>
   <g id="patch_44">
    <path clip-path="url(#pcf95f4b5a4)" d="M 648 124.567589 
Q 644.845932 125.933795 641.453557 126.620017 
Q 638.061181 127.3 634.444517 127.3 
Q 626.271976 127.3 621.49882 123.232576 
Q 616.725664 119.165152 616.725664 112.209358 
Q 616.725664 105.172464 621.582928 101.136232 
Q 626.447202 97.1 634.907113 97.1 
Q 638.166317 97.1 641.152168 97.648977 
Q 644.145028 98.191717 646.794445 99.264718 
L 646.794445 105.284755 
Q 644.06092 103.906073 641.35543 103.22609 
Q 638.649941 102.539868 635.930433 102.539868 
Q 630.897943 102.539868 628.171426 105.047697 
Q 625.444909 107.549287 625.444909 112.209358 
Q 625.444909 116.825759 628.073299 119.346065 
Q 630.701689 121.860132 635.537927 121.860132 
Q 636.855626 121.860132 637.984082 121.716649 
Q 639.112537 121.566928 640.009694 121.255009 
L 640.009694 115.603037 
L 634.85805 115.603037 
L 634.85805 110.568663 
L 648 110.568663 
z
" style="fill:#ffa600;"/>
   </g>
   <g id="patch_45">
    <path clip-path="url(#pcf95f4b5a4)" d="M 638.389424 83.346249 
L 626.361817 83.346249 
L 624.462721 97.1 
L 616.725664 97.1 
L 627.774949 21.6 
L 636.950715 21.6 
L 648 97.1 
L 640.269337 97.1 
z
M 628.280095 69.333605 
L 636.451963 69.333605 
L 632.372423 39.301886 
z
" style="fill:#008000;"/>
   </g>
  </g>
 </g>
 <defs>
  <clipPath id="pcf95f4b5a4">
   <rect height="135.9" width="558" x="90" y="21.6"/>
  </clipPath>
 </defs>
</svg>
