<?xml version="1.0" encoding="utf-8" standalone="no"?>
<!DOCTYPE svg PUBLIC "-//W3C//DTD SVG 1.1//EN"
  "http://www.w3.org/Graphics/SVG/1.1/DTD/svg11.dtd">
<!-- Created with matplotlib (https://matplotlib.org/) -->
<svg height="180pt" version="1.1" viewBox="0 0 720 180" width="720pt" xmlns="http://www.w3.org/2000/svg" xmlns:xlink="http://www.w3.org/1999/xlink">
 <metadata>
  <rdf:RDF xmlns:cc="http://creativecommons.org/ns#" xmlns:dc="http://purl.org/dc/elements/1.1/" xmlns:rdf="http://www.w3.org/1999/02/22-rdf-syntax-ns#">
   <cc:Work>
    <dc:type rdf:resource="http://purl.org/dc/dcmitype/StillImage"/>
    <dc:date>2021-08-04T23:33:10.153530</dc:date>
    <dc:format>image/svg+xml</dc:format>
    <dc:creator>
     <cc:Agent>
      <dc:title>Matplotlib v3.3.2, https://matplotlib.org/</dc:title>
     </cc:Agent>
    </dc:creator>
   </cc:Work>
  </rdf:RDF>
 </metadata>
 <defs>
  <style type="text/css">*{stroke-linecap:butt;stroke-linejoin:round;}</style>
 </defs>
 <g id="figure_1">
  <g id="patch_1">
   <path d="M 0 180 
L 720 180 
L 720 0 
L 0 0 
z
" style="fill:none;"/>
  </g>
  <g id="axes_1">
   <g id="line2d_1">
    <path clip-path="url(#pf13f593606)" d="M 90 157.5 
L 648 157.5 
" style="fill:none;stroke:#000000;stroke-linecap:square;stroke-width:0.5;"/>
   </g>
   <g id="patch_2">
    <path clip-path="url(#pf13f593606)" d="M 121.274336 156.133795 
Q 118.120268 156.816897 114.727893 157.160008 
Q 111.335518 157.5 107.718853 157.5 
Q 99.546312 157.5 94.773156 155.466288 
Q 90 153.432576 90 149.954679 
Q 90 146.436232 94.857265 144.418116 
Q 99.721538 142.4 108.18145 142.4 
Q 111.440653 142.4 114.426504 142.674489 
Q 117.419364 142.945858 120.068781 143.482359 
L 120.068781 146.492378 
Q 117.335256 145.803037 114.629766 145.463045 
Q 111.924277 145.119934 109.204769 145.119934 
Q 104.172279 145.119934 101.445762 146.373848 
Q 98.719246 147.624644 98.719246 149.954679 
Q 98.719246 152.26288 101.347636 153.523032 
Q 103.976026 154.780066 108.812263 154.780066 
Q 110.129963 154.780066 111.258418 154.708325 
Q 112.386874 154.633464 113.284031 154.477505 
L 113.284031 151.651518 
L 108.132386 151.651518 
L 108.132386 149.134332 
L 121.274336 149.134332 
z
" style="fill:#ffa600;"/>
   </g>
   <g id="patch_3">
    <path clip-path="url(#pf13f593606)" d="M 121.274336 138.070564 
Q 118.658292 140.216567 115.829497 141.302045 
Q 113.000702 142.4 109.919759 142.4 
Q 100.732085 142.4 95.366043 134.265152 
Q 90 126.130304 90 112.218715 
Q 90 98.25722 95.366043 90.134848 
Q 100.732085 82 109.919759 82 
Q 113.000702 82 115.829497 83.097955 
Q 118.658292 84.183433 121.274336 86.329436 
L 121.274336 98.36951 
Q 118.634653 95.524809 116.073766 94.202272 
Q 113.51288 92.879736 110.684085 92.879736 
Q 105.609589 92.879736 102.701998 98.032638 
Q 99.802286 103.173063 99.802286 112.218715 
Q 99.802286 121.226937 102.701998 126.379839 
Q 105.609589 131.520264 110.684085 131.520264 
Q 113.51288 131.520264 116.073766 130.197728 
Q 118.634653 128.862714 121.274336 126.018013 
z
" style="fill:#0000ff;"/>
   </g>
   <g id="patch_4">
    <path clip-path="url(#pf13f593606)" d="M 90 21.6 
L 121.274336 21.6 
L 121.274336 33.379683 
L 110.022848 33.379683 
L 110.022848 82 
L 101.273307 82 
L 101.273307 33.379683 
L 90 33.379683 
z
" style="fill:#ff0000;"/>
   </g>
   <g id="patch_5">
    <path clip-path="url(#pf13f593606)" d="M 122.920354 142.4 
L 154.19469 142.4 
L 154.19469 145.344921 
L 142.943202 145.344921 
L 142.943202 157.5 
L 134.193661 157.5 
L 134.193661 145.344921 
L 122.920354 145.344921 
z
" style="fill:#ff0000;"/>
   </g>
   <g id="patch_6">
    <path clip-path="url(#pf13f593606)" d="M 144.584114 131.397 
L 132.556507 131.397 
L 130.657411 142.4 
L 122.920354 142.4 
L 133.969639 82 
L 143.145405 82 
L 154.19469 142.4 
L 146.464027 142.4 
z
M 134.474786 120.186884 
L 142.646653 120.186884 
L 138.567114 96.161509 
z
" style="fill:#008000;"/>
   </g>
   <g id="patch_7">
    <path clip-path="url(#pf13f593606)" d="M 154.19469 76.535179 
Q 151.040622 79.267589 147.648247 80.640033 
Q 144.255872 82 140.639207 82 
Q 132.466666 82 127.69351 73.865152 
Q 122.920354 65.730304 122.920354 51.818715 
Q 122.920354 37.744929 127.777619 29.672464 
Q 132.641892 21.6 141.101804 21.6 
Q 144.361007 21.6 147.346858 22.697955 
Q 150.339718 23.783433 152.989135 25.929436 
L 152.989135 37.96951 
Q 150.25561 35.212146 147.55012 33.852179 
Q 144.844631 32.479736 142.125123 32.479736 
Q 137.092633 32.479736 134.366116 37.495394 
Q 131.6396 42.498575 131.6396 51.818715 
Q 131.6396 61.051518 134.26799 66.09213 
Q 136.89638 71.120264 141.732617 71.120264 
Q 143.050317 71.120264 144.178772 70.833299 
Q 145.307228 70.533857 146.204385 69.910019 
L 146.204385 58.606073 
L 141.05274 58.606073 
L 141.05274 48.537327 
L 154.19469 48.537327 
z
" style="fill:#ffa600;"/>
   </g>
   <g id="patch_8">
    <path clip-path="url(#pf13f593606)" d="M 187.115044 156.417641 
Q 184.499 156.954142 181.670205 157.225511 
Q 178.84141 157.5 175.760467 157.5 
Q 166.572793 157.5 161.206751 155.466288 
Q 155.840708 153.432576 155.840708 149.954679 
Q 155.840708 146.464305 161.206751 144.433712 
Q 166.572793 142.4 175.760467 142.4 
Q 178.84141 142.4 181.670205 142.674489 
Q 184.499 142.945858 187.115044 143.482359 
L 187.115044 146.492378 
Q 184.475361 145.781202 181.914474 145.450568 
Q 179.353588 145.119934 176.524793 145.119934 
Q 171.450297 145.119934 168.542706 146.408159 
Q 165.642994 147.693266 165.642994 149.954679 
Q 165.642994 152.206734 168.542706 153.49496 
Q 171.450297 154.780066 176.524793 154.780066 
Q 179.353588 154.780066 181.914474 154.449432 
Q 184.475361 154.115679 187.115044 153.404503 
z
" style="fill:#0000ff;"/>
   </g>
   <g id="patch_9">
    <path clip-path="url(#pf13f593606)" d="M 155.840708 97.1 
L 187.115044 97.1 
L 187.115044 105.934762 
L 175.863556 105.934762 
L 175.863556 142.4 
L 167.114015 142.4 
L 167.114015 105.934762 
L 155.840708 105.934762 
z
" style="fill:#ff0000;"/>
   </g>
   <g id="patch_10">
    <path clip-path="url(#pf13f593606)" d="M 177.504468 83.346249 
L 165.476861 83.346249 
L 163.577765 97.1 
L 155.840708 97.1 
L 166.889993 21.6 
L 176.065759 21.6 
L 187.115044 97.1 
L 179.384381 97.1 
z
M 167.39514 69.333605 
L 175.567007 69.333605 
L 171.487467 39.301886 
z
" style="fill:#008000;"/>
   </g>
   <g id="patch_11">
    <path clip-path="url(#pf13f593606)" d="M 210.424822 132.743249 
L 198.397215 132.743249 
L 196.498119 157.5 
L 188.761062 157.5 
L 199.810347 21.6 
L 208.986113 21.6 
L 220.035398 157.5 
L 212.304735 157.5 
z
M 200.315494 107.520489 
L 208.487361 107.520489 
L 204.407821 53.463395 
z
" style="fill:#008000;"/>
   </g>
   <g id="patch_12">
    <path clip-path="url(#pf13f593606)" d="M 221.681416 21.6 
L 252.955752 21.6 
L 252.955752 48.104286 
L 241.704264 48.104286 
L 241.704264 157.5 
L 232.954723 157.5 
L 232.954723 48.104286 
L 221.681416 48.104286 
z
" style="fill:#ff0000;"/>
   </g>
   <g id="patch_13">
    <path clip-path="url(#pf13f593606)" d="M 285.876106 145.204152 
Q 282.722038 151.352076 279.329663 154.440074 
Q 275.937288 157.5 272.320623 157.5 
Q 264.148082 157.5 259.374926 139.196592 
Q 254.60177 120.893183 254.60177 89.592109 
Q 254.60177 57.92609 259.459035 39.763045 
Q 264.323308 21.6 272.78322 21.6 
Q 276.042423 21.6 279.028274 24.070399 
Q 282.021134 26.512725 284.670551 31.341231 
L 284.670551 58.431398 
Q 281.937026 52.227329 279.231536 49.167403 
Q 276.526047 46.079405 273.806539 46.079405 
Q 268.774049 46.079405 266.047532 57.364635 
Q 263.321016 68.621793 263.321016 89.592109 
Q 263.321016 110.365916 265.949406 121.707292 
Q 268.577796 133.020595 273.414033 133.020595 
Q 274.731733 133.020595 275.860188 132.374923 
Q 276.988644 131.701177 277.885801 130.297542 
L 277.885801 104.863665 
L 272.734156 104.863665 
L 272.734156 82.208986 
L 285.876106 82.208986 
z
" style="fill:#ffa600;"/>
   </g>
   <g id="patch_14">
    <path clip-path="url(#pf13f593606)" d="M 309.185884 154.74925 
L 297.158277 154.74925 
L 295.259181 157.5 
L 287.522124 157.5 
L 298.571409 142.4 
L 307.747175 142.4 
L 318.79646 157.5 
L 311.065797 157.5 
z
M 299.076556 151.946721 
L 307.248423 151.946721 
L 303.168883 145.940377 
z
" style="fill:#008000;"/>
   </g>
   <g id="patch_15">
    <path clip-path="url(#pf13f593606)" d="M 287.522124 127.3 
L 318.79646 127.3 
L 318.79646 130.244921 
L 307.544972 130.244921 
L 307.544972 142.4 
L 298.795431 142.4 
L 298.795431 130.244921 
L 287.522124 130.244921 
z
" style="fill:#ff0000;"/>
   </g>
   <g id="patch_16">
    <path clip-path="url(#pf13f593606)" d="M 318.79646 125.135282 
Q 316.180416 126.208283 313.351621 126.751023 
Q 310.522826 127.3 307.441883 127.3 
Q 298.254209 127.3 292.888166 123.232576 
Q 287.522124 119.165152 287.522124 112.209358 
Q 287.522124 105.22861 292.888166 101.167424 
Q 298.254209 97.1 307.441883 97.1 
Q 310.522826 97.1 313.351621 97.648977 
Q 316.180416 98.191717 318.79646 99.264718 
L 318.79646 105.284755 
Q 316.156777 103.862404 313.59589 103.201136 
Q 311.035004 102.539868 308.206209 102.539868 
Q 303.131713 102.539868 300.224122 105.116319 
Q 297.32441 107.686532 297.32441 112.209358 
Q 297.32441 116.713468 300.224122 119.289919 
Q 303.131713 121.860132 308.206209 121.860132 
Q 311.035004 121.860132 313.59589 121.198864 
Q 316.156777 120.531357 318.79646 119.109006 
z
" style="fill:#0000ff;"/>
   </g>
   <g id="patch_17">
    <path clip-path="url(#pf13f593606)" d="M 318.79646 90.268973 
Q 315.642392 93.684487 312.250017 95.400041 
Q 308.857642 97.1 305.240977 97.1 
Q 297.068436 97.1 292.29528 86.93144 
Q 287.522124 76.76288 287.522124 59.373394 
Q 287.522124 41.781161 292.379389 31.69058 
Q 297.243662 21.6 305.703574 21.6 
Q 308.962777 21.6 311.948628 22.972444 
Q 314.941488 24.329291 317.590905 27.011795 
L 317.590905 42.061888 
Q 314.85738 38.615183 312.15189 36.915224 
Q 309.446401 35.199669 306.726893 35.199669 
Q 301.694403 35.199669 298.967886 41.469242 
Q 296.24137 47.723218 296.24137 59.373394 
Q 296.24137 70.914398 298.86976 77.215162 
Q 301.49815 83.500331 306.334387 83.500331 
Q 307.652087 83.500331 308.780542 83.141624 
Q 309.908998 82.767321 310.806155 81.987523 
L 310.806155 67.857591 
L 305.65451 67.857591 
L 305.65451 55.271659 
L 318.79646 55.271659 
z
" style="fill:#ffa600;"/>
   </g>
   <g id="patch_18">
    <path clip-path="url(#pf13f593606)" d="M 351.716814 155.335282 
Q 349.10077 156.408283 346.271975 156.951023 
Q 343.44318 157.5 340.362237 157.5 
Q 331.174563 157.5 325.80852 153.432576 
Q 320.442478 149.365152 320.442478 142.409358 
Q 320.442478 135.42861 325.80852 131.367424 
Q 331.174563 127.3 340.362237 127.3 
Q 343.44318 127.3 346.271975 127.848977 
Q 349.10077 128.391717 351.716814 129.464718 
L 351.716814 135.484755 
Q 349.077131 134.062404 346.516244 133.401136 
Q 343.955358 132.739868 341.126563 132.739868 
Q 336.052067 132.739868 333.144476 135.316319 
Q 330.244764 137.886532 330.244764 142.409358 
Q 330.244764 146.913468 333.144476 149.489919 
Q 336.052067 152.060132 341.126563 152.060132 
Q 343.955358 152.060132 346.516244 151.398864 
Q 349.077131 150.731357 351.716814 149.309006 
z
" style="fill:#0000ff;"/>
   </g>
   <g id="patch_19">
    <path clip-path="url(#pf13f593606)" d="M 320.442478 82 
L 351.716814 82 
L 351.716814 90.834762 
L 340.465326 90.834762 
L 340.465326 127.3 
L 331.715785 127.3 
L 331.715785 90.834762 
L 320.442478 90.834762 
z
" style="fill:#ff0000;"/>
   </g>
   <g id="patch_20">
    <path clip-path="url(#pf13f593606)" d="M 351.716814 76.535179 
Q 348.562746 79.267589 345.170371 80.640033 
Q 341.777996 82 338.161331 82 
Q 329.98879 82 325.215634 73.865152 
Q 320.442478 65.730304 320.442478 51.818715 
Q 320.442478 37.744929 325.299743 29.672464 
Q 330.164016 21.6 338.623928 21.6 
Q 341.883131 21.6 344.868982 22.697955 
Q 347.861842 23.783433 350.511259 25.929436 
L 350.511259 37.96951 
Q 347.777734 35.212146 345.072244 33.852179 
Q 342.366755 32.479736 339.647247 32.479736 
Q 334.614757 32.479736 331.88824 37.495394 
Q 329.161724 42.498575 329.161724 51.818715 
Q 329.161724 61.051518 331.790114 66.09213 
Q 334.418504 71.120264 339.254741 71.120264 
Q 340.572441 71.120264 341.700896 70.833299 
Q 342.829351 70.533857 343.726509 69.910019 
L 343.726509 58.606073 
L 338.574864 58.606073 
L 338.574864 48.537327 
L 351.716814 48.537327 
z
" style="fill:#ffa600;"/>
   </g>
   <g id="patch_21">
    <path clip-path="url(#pf13f593606)" d="M 384.637168 155.335282 
Q 382.021124 156.408283 379.192329 156.951023 
Q 376.363534 157.5 373.282591 157.5 
Q 364.094917 157.5 358.728874 153.432576 
Q 353.362832 149.365152 353.362832 142.409358 
Q 353.362832 135.42861 358.728874 131.367424 
Q 364.094917 127.3 373.282591 127.3 
Q 376.363534 127.3 379.192329 127.848977 
Q 382.021124 128.391717 384.637168 129.464718 
L 384.637168 135.484755 
Q 381.997485 134.062404 379.436598 133.401136 
Q 376.875712 132.739868 374.046917 132.739868 
Q 368.972421 132.739868 366.06483 135.316319 
Q 363.165118 137.886532 363.165118 142.409358 
Q 363.165118 146.913468 366.06483 149.489919 
Q 368.972421 152.060132 374.046917 152.060132 
Q 376.875712 152.060132 379.436598 151.398864 
Q 381.997485 150.731357 384.637168 149.309006 
z
" style="fill:#0000ff;"/>
   </g>
   <g id="patch_22">
    <path clip-path="url(#pf13f593606)" d="M 384.637168 124.567589 
Q 381.4831 125.933795 378.090725 126.620017 
Q 374.698349 127.3 371.081685 127.3 
Q 362.909144 127.3 358.135988 123.232576 
Q 353.362832 119.165152 353.362832 112.209358 
Q 353.362832 105.172464 358.220097 101.136232 
Q 363.08437 97.1 371.544282 97.1 
Q 374.803485 97.1 377.789336 97.648977 
Q 380.782196 98.191717 383.431613 99.264718 
L 383.431613 105.284755 
Q 380.698088 103.906073 377.992598 103.22609 
Q 375.287109 102.539868 372.567601 102.539868 
Q 367.535111 102.539868 364.808594 105.047697 
Q 362.082078 107.549287 362.082078 112.209358 
Q 362.082078 116.825759 364.710468 119.346065 
Q 367.338858 121.860132 372.175095 121.860132 
Q 373.492795 121.860132 374.62125 121.716649 
Q 375.749705 121.566928 376.646863 121.255009 
L 376.646863 115.603037 
L 371.495218 115.603037 
L 371.495218 110.568663 
L 384.637168 110.568663 
z
" style="fill:#ffa600;"/>
   </g>
   <g id="patch_23">
    <path clip-path="url(#pf13f593606)" d="M 353.362832 21.6 
L 384.637168 21.6 
L 384.637168 36.324604 
L 373.38568 36.324604 
L 373.38568 97.1 
L 364.636139 97.1 
L 364.636139 36.324604 
L 353.362832 36.324604 
z
" style="fill:#ff0000;"/>
   </g>
   <g id="patch_24">
    <path clip-path="url(#pf13f593606)" d="M 417.557522 156.417641 
Q 414.941478 156.954142 412.112683 157.225511 
Q 409.283888 157.5 406.202945 157.5 
Q 397.015271 157.5 391.649228 155.466288 
Q 386.283186 153.432576 386.283186 149.954679 
Q 386.283186 146.464305 391.649228 144.433712 
Q 397.015271 142.4 406.202945 142.4 
Q 409.283888 142.4 412.112683 142.674489 
Q 414.941478 142.945858 417.557522 143.482359 
L 417.557522 146.492378 
Q 414.917839 145.781202 412.356952 145.450568 
Q 409.796066 145.119934 406.967271 145.119934 
Q 401.892775 145.119934 398.985184 146.408159 
Q 396.085472 147.693266 396.085472 149.954679 
Q 396.085472 152.206734 398.985184 153.49496 
Q 401.892775 154.780066 406.967271 154.780066 
Q 409.796066 154.780066 412.356952 154.449432 
Q 414.917839 154.115679 417.557522 153.404503 
z
" style="fill:#0000ff;"/>
   </g>
   <g id="patch_25">
    <path clip-path="url(#pf13f593606)" d="M 386.283186 127.3 
L 417.557522 127.3 
L 417.557522 130.244921 
L 406.306034 130.244921 
L 406.306034 142.4 
L 397.556493 142.4 
L 397.556493 130.244921 
L 386.283186 130.244921 
z
" style="fill:#ff0000;"/>
   </g>
   <g id="patch_26">
    <path clip-path="url(#pf13f593606)" d="M 407.946946 119.04775 
L 395.919339 119.04775 
L 394.020243 127.3 
L 386.283186 127.3 
L 397.332471 82 
L 406.508237 82 
L 417.557522 127.3 
L 409.826859 127.3 
z
M 397.837618 110.640163 
L 406.009485 110.640163 
L 401.929945 92.621132 
z
" style="fill:#008000;"/>
   </g>
   <g id="patch_27">
    <path clip-path="url(#pf13f593606)" d="M 417.557522 76.535179 
Q 414.403454 79.267589 411.011079 80.640033 
Q 407.618703 82 404.002039 82 
Q 395.829498 82 391.056342 73.865152 
Q 386.283186 65.730304 386.283186 51.818715 
Q 386.283186 37.744929 391.140451 29.672464 
Q 396.004724 21.6 404.464635 21.6 
Q 407.723839 21.6 410.70969 22.697955 
Q 413.70255 23.783433 416.351967 25.929436 
L 416.351967 37.96951 
Q 413.618442 35.212146 410.912952 33.852179 
Q 408.207463 32.479736 405.487955 32.479736 
Q 400.455465 32.479736 397.728948 37.495394 
Q 395.002432 42.498575 395.002432 51.818715 
Q 395.002432 61.051518 397.630822 66.09213 
Q 400.259212 71.120264 405.095449 71.120264 
Q 406.413149 71.120264 407.541604 70.833299 
Q 408.670059 70.533857 409.567217 69.910019 
L 409.567217 58.606073 
L 404.415572 58.606073 
L 404.415572 48.537327 
L 417.557522 48.537327 
z
" style="fill:#ffa600;"/>
   </g>
   <g id="patch_28">
    <path clip-path="url(#pf13f593606)" d="M 450.477876 156.417641 
Q 447.861832 156.954142 445.033037 157.225511 
Q 442.204242 157.5 439.123298 157.5 
Q 429.935625 157.5 424.569582 155.466288 
Q 419.20354 153.432576 419.20354 149.954679 
Q 419.20354 146.464305 424.569582 144.433712 
Q 429.935625 142.4 439.123298 142.4 
Q 442.204242 142.4 445.033037 142.674489 
Q 447.861832 142.945858 450.477876 143.482359 
L 450.477876 146.492378 
Q 447.838193 145.781202 445.277306 145.450568 
Q 442.71642 145.119934 439.887625 145.119934 
Q 434.813129 145.119934 431.905538 146.408159 
Q 429.005826 147.693266 429.005826 149.954679 
Q 429.005826 152.206734 431.905538 153.49496 
Q 434.813129 154.780066 439.887625 154.780066 
Q 442.71642 154.780066 445.277306 154.449432 
Q 447.838193 154.115679 450.477876 153.404503 
z
" style="fill:#0000ff;"/>
   </g>
   <g id="patch_29">
    <path clip-path="url(#pf13f593606)" d="M 419.20354 97.1 
L 450.477876 97.1 
L 450.477876 105.934762 
L 439.226388 105.934762 
L 439.226388 142.4 
L 430.476847 142.4 
L 430.476847 105.934762 
L 419.20354 105.934762 
z
" style="fill:#ff0000;"/>
   </g>
   <g id="patch_30">
    <path clip-path="url(#pf13f593606)" d="M 440.8673 83.346249 
L 428.839693 83.346249 
L 426.940597 97.1 
L 419.20354 97.1 
L 430.252825 21.6 
L 439.428591 21.6 
L 450.477876 97.1 
L 442.747213 97.1 
z
M 430.757972 69.333605 
L 438.929839 69.333605 
L 434.850299 39.301886 
z
" style="fill:#008000;"/>
   </g>
   <g id="patch_31">
    <path clip-path="url(#pf13f593606)" d="M 473.787654 154.74925 
L 461.760047 154.74925 
L 459.860951 157.5 
L 452.123894 157.5 
L 463.173179 142.4 
L 472.348945 142.4 
L 483.39823 157.5 
L 475.667567 157.5 
z
M 463.678326 151.946721 
L 471.850193 151.946721 
L 467.770653 145.940377 
z
" style="fill:#008000;"/>
   </g>
   <g id="patch_32">
    <path clip-path="url(#pf13f593606)" d="M 483.39823 138.301384 
Q 480.244162 140.350692 476.851787 141.380025 
Q 473.459411 142.4 469.842747 142.4 
Q 461.670206 142.4 456.89705 136.298864 
Q 452.123894 130.197728 452.123894 119.764036 
Q 452.123894 109.208697 456.981158 103.154348 
Q 461.845432 97.1 470.305343 97.1 
Q 473.564547 97.1 476.550398 97.923466 
Q 479.543258 98.737575 482.192675 100.347077 
L 482.192675 109.377133 
Q 479.45915 107.30911 476.75366 106.289134 
Q 474.048171 105.259802 471.328663 105.259802 
Q 466.296173 105.259802 463.569656 109.021545 
Q 460.84314 112.773931 460.84314 119.764036 
Q 460.84314 126.688639 463.471529 130.469097 
Q 466.099919 134.240198 470.936157 134.240198 
Q 472.253857 134.240198 473.382312 134.024974 
Q 474.510767 133.800392 475.407925 133.332514 
L 475.407925 124.854555 
L 470.25628 124.854555 
L 470.25628 117.302995 
L 483.39823 117.302995 
z
" style="fill:#ffa600;"/>
   </g>
   <g id="patch_33">
    <path clip-path="url(#pf13f593606)" d="M 452.123894 21.6 
L 483.39823 21.6 
L 483.39823 36.324604 
L 472.146742 36.324604 
L 472.146742 97.1 
L 463.397201 97.1 
L 463.397201 36.324604 
L 452.123894 36.324604 
z
" style="fill:#ff0000;"/>
   </g>
   <g id="patch_34">
    <path clip-path="url(#pf13f593606)" d="M 485.044248 142.4 
L 516.318584 142.4 
L 516.318584 145.344921 
L 505.067096 145.344921 
L 505.067096 157.5 
L 496.317555 157.5 
L 496.317555 145.344921 
L 485.044248 145.344921 
z
" style="fill:#ff0000;"/>
   </g>
   <g id="patch_35">
    <path clip-path="url(#pf13f593606)" d="M 506.708008 134.14775 
L 494.680401 134.14775 
L 492.781305 142.4 
L 485.044248 142.4 
L 496.093533 97.1 
L 505.269299 97.1 
L 516.318584 142.4 
L 508.587921 142.4 
z
M 496.59868 125.740163 
L 504.770547 125.740163 
L 500.691007 107.721132 
z
" style="fill:#008000;"/>
   </g>
   <g id="patch_36">
    <path clip-path="url(#pf13f593606)" d="M 516.318584 90.268973 
Q 513.164516 93.684487 509.772141 95.400041 
Q 506.379765 97.1 502.763101 97.1 
Q 494.59056 97.1 489.817404 86.93144 
Q 485.044248 76.76288 485.044248 59.373394 
Q 485.044248 41.781161 489.901512 31.69058 
Q 494.765786 21.6 503.225697 21.6 
Q 506.484901 21.6 509.470752 22.972444 
Q 512.463612 24.329291 515.113029 27.011795 
L 515.113029 42.061888 
Q 512.379504 38.615183 509.674014 36.915224 
Q 506.968525 35.199669 504.249017 35.199669 
Q 499.216527 35.199669 496.49001 41.469242 
Q 493.763493 47.723218 493.763493 59.373394 
Q 493.763493 70.914398 496.391883 77.215162 
Q 499.020273 83.500331 503.856511 83.500331 
Q 505.174211 83.500331 506.302666 83.141624 
Q 507.431121 82.767321 508.328279 81.987523 
L 508.328279 67.857591 
L 503.176634 67.857591 
L 503.176634 55.271659 
L 516.318584 55.271659 
z
" style="fill:#ffa600;"/>
   </g>
   <g id="patch_37">
    <path clip-path="url(#pf13f593606)" d="M 549.238938 156.417641 
Q 546.622894 156.954142 543.794099 157.225511 
Q 540.965304 157.5 537.88436 157.5 
Q 528.696687 157.5 523.330644 155.466288 
Q 517.964602 153.432576 517.964602 149.954679 
Q 517.964602 146.464305 523.330644 144.433712 
Q 528.696687 142.4 537.88436 142.4 
Q 540.965304 142.4 543.794099 142.674489 
Q 546.622894 142.945858 549.238938 143.482359 
L 549.238938 146.492378 
Q 546.599255 145.781202 544.038368 145.450568 
Q 541.477481 145.119934 538.648687 145.119934 
Q 533.574191 145.119934 530.6666 146.408159 
Q 527.766888 147.693266 527.766888 149.954679 
Q 527.766888 152.206734 530.6666 153.49496 
Q 533.574191 154.780066 538.648687 154.780066 
Q 541.477481 154.780066 544.038368 154.449432 
Q 546.599255 154.115679 549.238938 153.404503 
z
" style="fill:#0000ff;"/>
   </g>
   <g id="patch_38">
    <path clip-path="url(#pf13f593606)" d="M 539.628362 131.397 
L 527.600755 131.397 
L 525.701659 142.4 
L 517.964602 142.4 
L 529.013887 82 
L 538.189653 82 
L 549.238938 142.4 
L 541.508275 142.4 
z
M 529.519034 120.186884 
L 537.690901 120.186884 
L 533.611361 96.161509 
z
" style="fill:#008000;"/>
   </g>
   <g id="patch_39">
    <path clip-path="url(#pf13f593606)" d="M 549.238938 76.535179 
Q 546.08487 79.267589 542.692495 80.640033 
Q 539.300119 82 535.683455 82 
Q 527.510914 82 522.737758 73.865152 
Q 517.964602 65.730304 517.964602 51.818715 
Q 517.964602 37.744929 522.821866 29.672464 
Q 527.68614 21.6 536.146051 21.6 
Q 539.405255 21.6 542.391106 22.697955 
Q 545.383966 23.783433 548.033383 25.929436 
L 548.033383 37.96951 
Q 545.299858 35.212146 542.594368 33.852179 
Q 539.888879 32.479736 537.169371 32.479736 
Q 532.136881 32.479736 529.410364 37.495394 
Q 526.683847 42.498575 526.683847 51.818715 
Q 526.683847 61.051518 529.312237 66.09213 
Q 531.940627 71.120264 536.776865 71.120264 
Q 538.094565 71.120264 539.22302 70.833299 
Q 540.351475 70.533857 541.248633 69.910019 
L 541.248633 58.606073 
L 536.096988 58.606073 
L 536.096988 48.537327 
L 549.238938 48.537327 
z
" style="fill:#ffa600;"/>
   </g>
   <g id="patch_40">
    <path clip-path="url(#pf13f593606)" d="M 582.159292 156.133795 
Q 579.005224 156.816897 575.612849 157.160008 
Q 572.220473 157.5 568.603809 157.5 
Q 560.431268 157.5 555.658112 155.466288 
Q 550.884956 153.432576 550.884956 149.954679 
Q 550.884956 146.436232 555.74222 144.418116 
Q 560.606494 142.4 569.066405 142.4 
Q 572.325609 142.4 575.31146 142.674489 
Q 578.30432 142.945858 580.953737 143.482359 
L 580.953737 146.492378 
Q 578.220212 145.803037 575.514722 145.463045 
Q 572.809233 145.119934 570.089725 145.119934 
Q 565.057235 145.119934 562.330718 146.373848 
Q 559.604201 147.624644 559.604201 149.954679 
Q 559.604201 152.26288 562.232591 153.523032 
Q 564.860981 154.780066 569.697219 154.780066 
Q 571.014919 154.780066 572.143374 154.708325 
Q 573.271829 154.633464 574.168986 154.477505 
L 574.168986 151.651518 
L 569.017342 151.651518 
L 569.017342 149.134332 
L 582.159292 149.134332 
z
" style="fill:#ffa600;"/>
   </g>
   <g id="patch_41">
    <path clip-path="url(#pf13f593606)" d="M 550.884956 112.2 
L 582.159292 112.2 
L 582.159292 118.089841 
L 570.907804 118.089841 
L 570.907804 142.4 
L 562.158263 142.4 
L 562.158263 118.089841 
L 550.884956 118.089841 
z
" style="fill:#ff0000;"/>
   </g>
   <g id="patch_42">
    <path clip-path="url(#pf13f593606)" d="M 572.548716 103.94775 
L 560.521109 103.94775 
L 558.622013 112.2 
L 550.884956 112.2 
L 561.934241 66.9 
L 571.110007 66.9 
L 582.159292 112.2 
L 574.428629 112.2 
z
M 562.439387 95.540163 
L 570.611255 95.540163 
L 566.531715 77.521132 
z
" style="fill:#008000;"/>
   </g>
   <g id="patch_43">
    <path clip-path="url(#pf13f593606)" d="M 582.159292 63.652923 
Q 579.543248 65.262425 576.714453 66.076534 
Q 573.885658 66.9 570.804714 66.9 
Q 561.617041 66.9 556.250998 60.798864 
Q 550.884956 54.697728 550.884956 44.264036 
Q 550.884956 33.792915 556.250998 27.701136 
Q 561.617041 21.6 570.804714 21.6 
Q 573.885658 21.6 576.714453 22.423466 
Q 579.543248 23.237575 582.159292 24.847077 
L 582.159292 33.877133 
Q 579.519609 31.743607 576.958722 30.751704 
Q 574.397835 29.759802 571.569041 29.759802 
Q 566.494545 29.759802 563.586954 33.624478 
Q 560.687242 37.479798 560.687242 44.264036 
Q 560.687242 51.020202 563.586954 54.884879 
Q 566.494545 58.740198 571.569041 58.740198 
Q 574.397835 58.740198 576.958722 57.748296 
Q 579.519609 56.747036 582.159292 54.61351 
z
" style="fill:#0000ff;"/>
   </g>
   <g id="patch_44">
    <path clip-path="url(#pf13f593606)" d="M 583.80531 142.4 
L 615.079646 142.4 
L 615.079646 145.344921 
L 603.828158 145.344921 
L 603.828158 157.5 
L 595.078617 157.5 
L 595.078617 145.344921 
L 583.80531 145.344921 
z
" style="fill:#ff0000;"/>
   </g>
   <g id="patch_45">
    <path clip-path="url(#pf13f593606)" d="M 605.46907 136.8985 
L 593.441463 136.8985 
L 591.542367 142.4 
L 583.80531 142.4 
L 594.854595 112.2 
L 604.030361 112.2 
L 615.079646 142.4 
L 607.348983 142.4 
z
M 595.359741 131.293442 
L 603.531609 131.293442 
L 599.452069 119.280754 
z
" style="fill:#008000;"/>
   </g>
   <g id="patch_46">
    <path clip-path="url(#pf13f593606)" d="M 615.079646 109.467589 
Q 611.925578 110.833795 608.533203 111.520017 
Q 605.140827 112.2 601.524163 112.2 
Q 593.351622 112.2 588.578466 108.132576 
Q 583.80531 104.065152 583.80531 97.109358 
Q 583.80531 90.072464 588.662574 86.036232 
Q 593.526848 82 601.986759 82 
Q 605.245963 82 608.231814 82.548977 
Q 611.224674 83.091717 613.874091 84.164718 
L 613.874091 90.184755 
Q 611.140566 88.806073 608.435076 88.12609 
Q 605.729587 87.439868 603.010079 87.439868 
Q 597.977589 87.439868 595.251072 89.947697 
Q 592.524555 92.449287 592.524555 97.109358 
Q 592.524555 101.725759 595.152945 104.246065 
Q 597.781335 106.760132 602.617573 106.760132 
Q 603.935272 106.760132 605.063728 106.616649 
Q 606.192183 106.466928 607.08934 106.155009 
L 607.08934 100.503037 
L 601.937696 100.503037 
L 601.937696 95.468663 
L 615.079646 95.468663 
z
" style="fill:#ffa600;"/>
   </g>
   <g id="patch_47">
    <path clip-path="url(#pf13f593606)" d="M 615.079646 77.670564 
Q 612.463602 79.816567 609.634807 80.902045 
Q 606.806012 82 603.725068 82 
Q 594.537395 82 589.171352 73.865152 
Q 583.80531 65.730304 583.80531 51.818715 
Q 583.80531 37.85722 589.171352 29.734848 
Q 594.537395 21.6 603.725068 21.6 
Q 606.806012 21.6 609.634807 22.697955 
Q 612.463602 23.783433 615.079646 25.929436 
L 615.079646 37.96951 
Q 612.439963 35.124809 609.879076 33.802272 
Q 607.318189 32.479736 604.489395 32.479736 
Q 599.414899 32.479736 596.507308 37.632638 
Q 593.607596 42.773063 593.607596 51.818715 
Q 593.607596 60.826937 596.507308 65.979839 
Q 599.414899 71.120264 604.489395 71.120264 
Q 607.318189 71.120264 609.879076 69.797728 
Q 612.439963 68.462714 615.079646 65.618013 
z
" style="fill:#0000ff;"/>
   </g>
   <g id="patch_48">
    <path clip-path="url(#pf13f593606)" d="M 638.389424 154.74925 
L 626.361817 154.74925 
L 624.462721 157.5 
L 616.725664 157.5 
L 627.774949 142.4 
L 636.950715 142.4 
L 648 157.5 
L 640.269337 157.5 
z
M 628.280095 151.946721 
L 636.451963 151.946721 
L 632.372423 145.940377 
z
" style="fill:#008000;"/>
   </g>
   <g id="patch_49">
    <path clip-path="url(#pf13f593606)" d="M 616.725664 112.2 
L 648 112.2 
L 648 118.089841 
L 636.748512 118.089841 
L 636.748512 142.4 
L 627.998971 142.4 
L 627.998971 118.089841 
L 616.725664 118.089841 
z
" style="fill:#ff0000;"/>
   </g>
   <g id="patch_50">
    <path clip-path="url(#pf13f593606)" d="M 648 108.952923 
Q 645.383956 110.562425 642.555161 111.376534 
Q 639.726366 112.2 636.645422 112.2 
Q 627.457749 112.2 622.091706 106.098864 
Q 616.725664 99.997728 616.725664 89.564036 
Q 616.725664 79.092915 622.091706 73.001136 
Q 627.457749 66.9 636.645422 66.9 
Q 639.726366 66.9 642.555161 67.723466 
Q 645.383956 68.537575 648 70.147077 
L 648 79.177133 
Q 645.360317 77.043607 642.79943 76.051704 
Q 640.238543 75.059802 637.409749 75.059802 
Q 632.335253 75.059802 629.427662 78.924478 
Q 626.52795 82.779798 626.52795 89.564036 
Q 626.52795 96.320202 629.427662 100.184879 
Q 632.335253 104.040198 637.409749 104.040198 
Q 640.238543 104.040198 642.79943 103.048296 
Q 645.360317 102.047036 648 99.91351 
z
" style="fill:#0000ff;"/>
   </g>
   <g id="patch_51">
    <path clip-path="url(#pf13f593606)" d="M 648 62.801384 
Q 644.845932 64.850692 641.453557 65.880025 
Q 638.061181 66.9 634.444517 66.9 
Q 626.271976 66.9 621.49882 60.798864 
Q 616.725664 54.697728 616.725664 44.264036 
Q 616.725664 33.708697 621.582928 27.654348 
Q 626.447202 21.6 634.907113 21.6 
Q 638.166317 21.6 641.152168 22.423466 
Q 644.145028 23.237575 646.794445 24.847077 
L 646.794445 33.877133 
Q 644.06092 31.80911 641.35543 30.789134 
Q 638.649941 29.759802 635.930433 29.759802 
Q 630.897943 29.759802 628.171426 33.521545 
Q 625.444909 37.273931 625.444909 44.264036 
Q 625.444909 51.188639 628.073299 54.969097 
Q 630.701689 58.740198 635.537927 58.740198 
Q 636.855626 58.740198 637.984082 58.524974 
Q 639.112537 58.300392 640.009694 57.832514 
L 640.009694 49.354555 
L 634.85805 49.354555 
L 634.85805 41.802995 
L 648 41.802995 
z
" style="fill:#ffa600;"/>
   </g>
  </g>
 </g>
 <defs>
  <clipPath id="pf13f593606">
   <rect height="135.9" width="558" x="90" y="21.6"/>
  </clipPath>
 </defs>
</svg>
