<?xml version="1.0" encoding="utf-8" standalone="no"?>
<!DOCTYPE svg PUBLIC "-//W3C//DTD SVG 1.1//EN"
  "http://www.w3.org/Graphics/SVG/1.1/DTD/svg11.dtd">
<!-- Created with matplotlib (https://matplotlib.org/) -->
<svg height="180pt" version="1.1" viewBox="0 0 720 180" width="720pt" xmlns="http://www.w3.org/2000/svg" xmlns:xlink="http://www.w3.org/1999/xlink">
 <metadata>
  <rdf:RDF xmlns:cc="http://creativecommons.org/ns#" xmlns:dc="http://purl.org/dc/elements/1.1/" xmlns:rdf="http://www.w3.org/1999/02/22-rdf-syntax-ns#">
   <cc:Work>
    <dc:type rdf:resource="http://purl.org/dc/dcmitype/StillImage"/>
    <dc:date>2021-08-04T23:33:15.801117</dc:date>
    <dc:format>image/svg+xml</dc:format>
    <dc:creator>
     <cc:Agent>
      <dc:title>Matplotlib v3.3.2, https://matplotlib.org/</dc:title>
     </cc:Agent>
    </dc:creator>
   </cc:Work>
  </rdf:RDF>
 </metadata>
 <defs>
  <style type="text/css">*{stroke-linecap:butt;stroke-linejoin:round;}</style>
 </defs>
 <g id="figure_1">
  <g id="patch_1">
   <path d="M 0 180 
L 720 180 
L 720 0 
L 0 0 
z
" style="fill:none;"/>
  </g>
  <g id="axes_1">
   <g id="line2d_1">
    <path clip-path="url(#p9e656d3ffb)" d="M 90 157.5 
L 648 157.5 
" style="fill:none;stroke:#000000;stroke-linecap:square;stroke-width:0.5;"/>
   </g>
   <g id="patch_2">
    <path clip-path="url(#p9e656d3ffb)" d="M 90 142.4 
L 121.274336 142.4 
L 121.274336 145.344921 
L 110.022848 145.344921 
L 110.022848 157.5 
L 101.273307 157.5 
L 101.273307 145.344921 
L 90 145.344921 
z
" style="fill:#ff0000;"/>
   </g>
   <g id="patch_3">
    <path clip-path="url(#p9e656d3ffb)" d="M 122.920354 142.4 
L 154.19469 142.4 
L 154.19469 145.344921 
L 142.943202 145.344921 
L 142.943202 157.5 
L 134.193661 157.5 
L 134.193661 145.344921 
L 122.920354 145.344921 
z
" style="fill:#ff0000;"/>
   </g>
   <g id="patch_4">
    <path clip-path="url(#p9e656d3ffb)" d="M 177.504468 154.74925 
L 165.476861 154.74925 
L 163.577765 157.5 
L 155.840708 157.5 
L 166.889993 142.4 
L 176.065759 142.4 
L 187.115044 157.5 
L 179.384381 157.5 
z
M 167.39514 151.946721 
L 175.567007 151.946721 
L 171.487467 145.940377 
z
" style="fill:#008000;"/>
   </g>
   <g id="patch_5">
    <path clip-path="url(#p9e656d3ffb)" d="M 210.424822 154.74925 
L 198.397215 154.74925 
L 196.498119 157.5 
L 188.761062 157.5 
L 199.810347 142.4 
L 208.986113 142.4 
L 220.035398 157.5 
L 212.304735 157.5 
z
M 200.315494 151.946721 
L 208.487361 151.946721 
L 204.407821 145.940377 
z
" style="fill:#008000;"/>
   </g>
   <g id="patch_6">
    <path clip-path="url(#p9e656d3ffb)" d="M 221.681416 142.4 
L 252.955752 142.4 
L 252.955752 145.344921 
L 241.704264 145.344921 
L 241.704264 157.5 
L 232.954723 157.5 
L 232.954723 145.344921 
L 221.681416 145.344921 
z
" style="fill:#ff0000;"/>
   </g>
   <g id="patch_7">
    <path clip-path="url(#p9e656d3ffb)" d="M 254.60177 142.4 
L 285.876106 142.4 
L 285.876106 145.344921 
L 274.624618 145.344921 
L 274.624618 157.5 
L 265.875077 157.5 
L 265.875077 145.344921 
L 254.60177 145.344921 
z
" style="fill:#ff0000;"/>
   </g>
   <g id="patch_8">
    <path clip-path="url(#p9e656d3ffb)" d="M 318.79646 156.133795 
Q 315.642392 156.816897 312.250017 157.160008 
Q 308.857642 157.5 305.240977 157.5 
Q 297.068436 157.5 292.29528 155.466288 
Q 287.522124 153.432576 287.522124 149.954679 
Q 287.522124 146.436232 292.379389 144.418116 
Q 297.243662 142.4 305.703574 142.4 
Q 308.962777 142.4 311.948628 142.674489 
Q 314.941488 142.945858 317.590905 143.482359 
L 317.590905 146.492378 
Q 314.85738 145.803037 312.15189 145.463045 
Q 309.446401 145.119934 306.726893 145.119934 
Q 301.694403 145.119934 298.967886 146.373848 
Q 296.24137 147.624644 296.24137 149.954679 
Q 296.24137 152.26288 298.86976 153.523032 
Q 301.49815 154.780066 306.334387 154.780066 
Q 307.652087 154.780066 308.780542 154.708325 
Q 309.908998 154.633464 310.806155 154.477505 
L 310.806155 151.651518 
L 305.65451 151.651518 
L 305.65451 149.134332 
L 318.79646 149.134332 
z
" style="fill:#ffa600;"/>
   </g>
   <g id="patch_9">
    <path clip-path="url(#p9e656d3ffb)" d="M 351.716814 156.133795 
Q 348.562746 156.816897 345.170371 157.160008 
Q 341.777996 157.5 338.161331 157.5 
Q 329.98879 157.5 325.215634 155.466288 
Q 320.442478 153.432576 320.442478 149.954679 
Q 320.442478 146.436232 325.299743 144.418116 
Q 330.164016 142.4 338.623928 142.4 
Q 341.883131 142.4 344.868982 142.674489 
Q 347.861842 142.945858 350.511259 143.482359 
L 350.511259 146.492378 
Q 347.777734 145.803037 345.072244 145.463045 
Q 342.366755 145.119934 339.647247 145.119934 
Q 334.614757 145.119934 331.88824 146.373848 
Q 329.161724 147.624644 329.161724 149.954679 
Q 329.161724 152.26288 331.790114 153.523032 
Q 334.418504 154.780066 339.254741 154.780066 
Q 340.572441 154.780066 341.700896 154.708325 
Q 342.829351 154.633464 343.726509 154.477505 
L 343.726509 151.651518 
L 338.574864 151.651518 
L 338.574864 149.134332 
L 351.716814 149.134332 
z
" style="fill:#ffa600;"/>
   </g>
   <g id="patch_10">
    <path clip-path="url(#p9e656d3ffb)" d="M 375.026592 151.9985 
L 362.998985 151.9985 
L 361.099889 157.5 
L 353.362832 157.5 
L 364.412117 127.3 
L 373.587883 127.3 
L 384.637168 157.5 
L 376.906505 157.5 
z
M 364.917264 146.393442 
L 373.089131 146.393442 
L 369.009591 134.380754 
z
" style="fill:#008000;"/>
   </g>
   <g id="patch_11">
    <path clip-path="url(#p9e656d3ffb)" d="M 384.637168 124.052923 
Q 382.021124 125.662425 379.192329 126.476534 
Q 376.363534 127.3 373.282591 127.3 
Q 364.094917 127.3 358.728874 121.198864 
Q 353.362832 115.097728 353.362832 104.664036 
Q 353.362832 94.192915 358.728874 88.101136 
Q 364.094917 82 373.282591 82 
Q 376.363534 82 379.192329 82.823466 
Q 382.021124 83.637575 384.637168 85.247077 
L 384.637168 94.277133 
Q 381.997485 92.143607 379.436598 91.151704 
Q 376.875712 90.159802 374.046917 90.159802 
Q 368.972421 90.159802 366.06483 94.024478 
Q 363.165118 97.879798 363.165118 104.664036 
Q 363.165118 111.420202 366.06483 115.284879 
Q 368.972421 119.140198 374.046917 119.140198 
Q 376.875712 119.140198 379.436598 118.148296 
Q 381.997485 117.147036 384.637168 115.01351 
z
" style="fill:#0000ff;"/>
   </g>
   <g id="patch_12">
    <path clip-path="url(#p9e656d3ffb)" d="M 353.362832 21.6 
L 384.637168 21.6 
L 384.637168 33.379683 
L 373.38568 33.379683 
L 373.38568 82 
L 364.636139 82 
L 364.636139 33.379683 
L 353.362832 33.379683 
z
" style="fill:#ff0000;"/>
   </g>
   <g id="patch_13">
    <path clip-path="url(#p9e656d3ffb)" d="M 407.946946 151.9985 
L 395.919339 151.9985 
L 394.020243 157.5 
L 386.283186 157.5 
L 397.332471 127.3 
L 406.508237 127.3 
L 417.557522 157.5 
L 409.826859 157.5 
z
M 397.837618 146.393442 
L 406.009485 146.393442 
L 401.929945 134.380754 
z
" style="fill:#008000;"/>
   </g>
   <g id="patch_14">
    <path clip-path="url(#p9e656d3ffb)" d="M 417.557522 125.135282 
Q 414.941478 126.208283 412.112683 126.751023 
Q 409.283888 127.3 406.202945 127.3 
Q 397.015271 127.3 391.649228 123.232576 
Q 386.283186 119.165152 386.283186 112.209358 
Q 386.283186 105.22861 391.649228 101.167424 
Q 397.015271 97.1 406.202945 97.1 
Q 409.283888 97.1 412.112683 97.648977 
Q 414.941478 98.191717 417.557522 99.264718 
L 417.557522 105.284755 
Q 414.917839 103.862404 412.356952 103.201136 
Q 409.796066 102.539868 406.967271 102.539868 
Q 401.892775 102.539868 398.985184 105.116319 
Q 396.085472 107.686532 396.085472 112.209358 
Q 396.085472 116.713468 398.985184 119.289919 
Q 401.892775 121.860132 406.967271 121.860132 
Q 409.796066 121.860132 412.356952 121.198864 
Q 414.917839 120.531357 417.557522 119.109006 
z
" style="fill:#0000ff;"/>
   </g>
   <g id="patch_15">
    <path clip-path="url(#p9e656d3ffb)" d="M 386.283186 66.9 
L 417.557522 66.9 
L 417.557522 72.789841 
L 406.306034 72.789841 
L 406.306034 97.1 
L 397.556493 97.1 
L 397.556493 72.789841 
L 386.283186 72.789841 
z
" style="fill:#ff0000;"/>
   </g>
   <g id="patch_16">
    <path clip-path="url(#p9e656d3ffb)" d="M 417.557522 62.801384 
Q 414.403454 64.850692 411.011079 65.880025 
Q 407.618703 66.9 404.002039 66.9 
Q 395.829498 66.9 391.056342 60.798864 
Q 386.283186 54.697728 386.283186 44.264036 
Q 386.283186 33.708697 391.140451 27.654348 
Q 396.004724 21.6 404.464635 21.6 
Q 407.723839 21.6 410.70969 22.423466 
Q 413.70255 23.237575 416.351967 24.847077 
L 416.351967 33.877133 
Q 413.618442 31.80911 410.912952 30.789134 
Q 408.207463 29.759802 405.487955 29.759802 
Q 400.455465 29.759802 397.728948 33.521545 
Q 395.002432 37.273931 395.002432 44.264036 
Q 395.002432 51.188639 397.630822 54.969097 
Q 400.259212 58.740198 405.095449 58.740198 
Q 406.413149 58.740198 407.541604 58.524974 
Q 408.670059 58.300392 409.567217 57.832514 
L 409.567217 49.354555 
L 404.415572 49.354555 
L 404.415572 41.802995 
L 417.557522 41.802995 
z
" style="fill:#ffa600;"/>
   </g>
   <g id="patch_17">
    <path clip-path="url(#p9e656d3ffb)" d="M 440.8673 154.74925 
L 428.839693 154.74925 
L 426.940597 157.5 
L 419.20354 157.5 
L 430.252825 142.4 
L 439.428591 142.4 
L 450.477876 157.5 
L 442.747213 157.5 
z
M 430.757972 151.946721 
L 438.929839 151.946721 
L 434.850299 145.940377 
z
" style="fill:#008000;"/>
   </g>
   <g id="patch_18">
    <path clip-path="url(#p9e656d3ffb)" d="M 450.477876 140.235282 
Q 447.861832 141.308283 445.033037 141.851023 
Q 442.204242 142.4 439.123298 142.4 
Q 429.935625 142.4 424.569582 138.332576 
Q 419.20354 134.265152 419.20354 127.309358 
Q 419.20354 120.32861 424.569582 116.267424 
Q 429.935625 112.2 439.123298 112.2 
Q 442.204242 112.2 445.033037 112.748977 
Q 447.861832 113.291717 450.477876 114.364718 
L 450.477876 120.384755 
Q 447.838193 118.962404 445.277306 118.301136 
Q 442.71642 117.639868 439.887625 117.639868 
Q 434.813129 117.639868 431.905538 120.216319 
Q 429.005826 122.786532 429.005826 127.309358 
Q 429.005826 131.813468 431.905538 134.389919 
Q 434.813129 136.960132 439.887625 136.960132 
Q 442.71642 136.960132 445.277306 136.298864 
Q 447.838193 135.631357 450.477876 134.209006 
z
" style="fill:#0000ff;"/>
   </g>
   <g id="patch_19">
    <path clip-path="url(#p9e656d3ffb)" d="M 450.477876 104.002768 
Q 447.323808 108.101384 443.931433 110.16005 
Q 440.539057 112.2 436.922393 112.2 
Q 428.749852 112.2 423.976696 99.997728 
Q 419.20354 87.795455 419.20354 66.928073 
Q 419.20354 45.817393 424.060805 33.708697 
Q 428.925078 21.6 437.384989 21.6 
Q 440.644193 21.6 443.630044 23.246932 
Q 446.622904 24.87515 449.272321 28.094154 
L 449.272321 46.154266 
Q 446.538796 42.018219 443.833306 39.978269 
Q 441.127817 37.919603 438.408309 37.919603 
Q 433.375819 37.919603 430.649302 45.44309 
Q 427.922786 52.947862 427.922786 66.928073 
Q 427.922786 80.777277 430.551176 88.338195 
Q 433.179565 95.880397 438.015803 95.880397 
Q 439.333503 95.880397 440.461958 95.449948 
Q 441.590413 95.000785 442.487571 94.065028 
L 442.487571 77.10911 
L 437.335926 77.10911 
L 437.335926 62.00599 
L 450.477876 62.00599 
z
" style="fill:#ffa600;"/>
   </g>
   <g id="patch_20">
    <path clip-path="url(#p9e656d3ffb)" d="M 452.123894 112.2 
L 483.39823 112.2 
L 483.39823 121.034762 
L 472.146742 121.034762 
L 472.146742 157.5 
L 463.397201 157.5 
L 463.397201 121.034762 
L 452.123894 121.034762 
z
" style="fill:#ff0000;"/>
   </g>
   <g id="patch_21">
    <path clip-path="url(#p9e656d3ffb)" d="M 483.39823 105.705846 
Q 480.782186 108.92485 477.953391 110.553068 
Q 475.124596 112.2 472.043652 112.2 
Q 462.855979 112.2 457.489936 99.997728 
Q 452.123894 87.795455 452.123894 66.928073 
Q 452.123894 45.985829 457.489936 33.802272 
Q 462.855979 21.6 472.043652 21.6 
Q 475.124596 21.6 477.953391 23.246932 
Q 480.782186 24.87515 483.39823 28.094154 
L 483.39823 46.154266 
Q 480.758547 41.887213 478.19766 39.903408 
Q 475.636773 37.919603 472.807979 37.919603 
Q 467.733483 37.919603 464.825892 45.648957 
Q 461.92618 53.359595 461.92618 66.928073 
Q 461.92618 80.440405 464.825892 88.169758 
Q 467.733483 95.880397 472.807979 95.880397 
Q 475.636773 95.880397 478.19766 93.896592 
Q 480.758547 91.894071 483.39823 87.627019 
z
" style="fill:#0000ff;"/>
   </g>
   <g id="patch_22">
    <path clip-path="url(#p9e656d3ffb)" d="M 516.318584 156.133795 
Q 513.164516 156.816897 509.772141 157.160008 
Q 506.379765 157.5 502.763101 157.5 
Q 494.59056 157.5 489.817404 155.466288 
Q 485.044248 153.432576 485.044248 149.954679 
Q 485.044248 146.436232 489.901512 144.418116 
Q 494.765786 142.4 503.225697 142.4 
Q 506.484901 142.4 509.470752 142.674489 
Q 512.463612 142.945858 515.113029 143.482359 
L 515.113029 146.492378 
Q 512.379504 145.803037 509.674014 145.463045 
Q 506.968525 145.119934 504.249017 145.119934 
Q 499.216527 145.119934 496.49001 146.373848 
Q 493.763493 147.624644 493.763493 149.954679 
Q 493.763493 152.26288 496.391883 153.523032 
Q 499.020273 154.780066 503.856511 154.780066 
Q 505.174211 154.780066 506.302666 154.708325 
Q 507.431121 154.633464 508.328279 154.477505 
L 508.328279 151.651518 
L 503.176634 151.651518 
L 503.176634 149.134332 
L 516.318584 149.134332 
z
" style="fill:#ffa600;"/>
   </g>
   <g id="patch_23">
    <path clip-path="url(#p9e656d3ffb)" d="M 485.044248 112.2 
L 516.318584 112.2 
L 516.318584 118.089841 
L 505.067096 118.089841 
L 505.067096 142.4 
L 496.317555 142.4 
L 496.317555 118.089841 
L 485.044248 118.089841 
z
" style="fill:#ff0000;"/>
   </g>
   <g id="patch_24">
    <path clip-path="url(#p9e656d3ffb)" d="M 516.318584 105.705846 
Q 513.70254 108.92485 510.873745 110.553068 
Q 508.04495 112.2 504.964006 112.2 
Q 495.776333 112.2 490.41029 99.997728 
Q 485.044248 87.795455 485.044248 66.928073 
Q 485.044248 45.985829 490.41029 33.802272 
Q 495.776333 21.6 504.964006 21.6 
Q 508.04495 21.6 510.873745 23.246932 
Q 513.70254 24.87515 516.318584 28.094154 
L 516.318584 46.154266 
Q 513.678901 41.887213 511.118014 39.903408 
Q 508.557127 37.919603 505.728333 37.919603 
Q 500.653837 37.919603 497.746246 45.648957 
Q 494.846534 53.359595 494.846534 66.928073 
Q 494.846534 80.440405 497.746246 88.169758 
Q 500.653837 95.880397 505.728333 95.880397 
Q 508.557127 95.880397 511.118014 93.896592 
Q 513.678901 91.894071 516.318584 87.627019 
z
" style="fill:#0000ff;"/>
   </g>
   <g id="patch_25">
    <path clip-path="url(#p9e656d3ffb)" d="M 549.238938 156.133795 
Q 546.08487 156.816897 542.692495 157.160008 
Q 539.300119 157.5 535.683455 157.5 
Q 527.510914 157.5 522.737758 155.466288 
Q 517.964602 153.432576 517.964602 149.954679 
Q 517.964602 146.436232 522.821866 144.418116 
Q 527.68614 142.4 536.146051 142.4 
Q 539.405255 142.4 542.391106 142.674489 
Q 545.383966 142.945858 548.033383 143.482359 
L 548.033383 146.492378 
Q 545.299858 145.803037 542.594368 145.463045 
Q 539.888879 145.119934 537.169371 145.119934 
Q 532.136881 145.119934 529.410364 146.373848 
Q 526.683847 147.624644 526.683847 149.954679 
Q 526.683847 152.26288 529.312237 153.523032 
Q 531.940627 154.780066 536.776865 154.780066 
Q 538.094565 154.780066 539.22302 154.708325 
Q 540.351475 154.633464 541.248633 154.477505 
L 541.248633 151.651518 
L 536.096988 151.651518 
L 536.096988 149.134332 
L 549.238938 149.134332 
z
" style="fill:#ffa600;"/>
   </g>
   <g id="patch_26">
    <path clip-path="url(#p9e656d3ffb)" d="M 517.964602 127.3 
L 549.238938 127.3 
L 549.238938 130.244921 
L 537.98745 130.244921 
L 537.98745 142.4 
L 529.237909 142.4 
L 529.237909 130.244921 
L 517.964602 130.244921 
z
" style="fill:#ff0000;"/>
   </g>
   <g id="patch_27">
    <path clip-path="url(#p9e656d3ffb)" d="M 549.238938 119.723487 
Q 546.622894 123.478992 543.794099 125.378579 
Q 540.965304 127.3 537.88436 127.3 
Q 528.696687 127.3 523.330644 113.064016 
Q 517.964602 98.828031 517.964602 74.482751 
Q 517.964602 50.050134 523.330644 35.835984 
Q 528.696687 21.6 537.88436 21.6 
Q 540.965304 21.6 543.794099 23.521421 
Q 546.622894 25.421008 549.238938 29.176513 
L 549.238938 50.246643 
Q 546.599255 45.268416 544.038368 42.953976 
Q 541.477481 40.639537 538.648687 40.639537 
Q 533.574191 40.639537 530.6666 49.657116 
Q 527.766888 58.652861 527.766888 74.482751 
Q 527.766888 90.247139 530.6666 99.264718 
Q 533.574191 108.260463 538.648687 108.260463 
Q 541.477481 108.260463 544.038368 105.946024 
Q 546.599255 103.60975 549.238938 98.631522 
z
" style="fill:#0000ff;"/>
   </g>
   <g id="patch_28">
    <path clip-path="url(#p9e656d3ffb)" d="M 572.548716 149.24775 
L 560.521109 149.24775 
L 558.622013 157.5 
L 550.884956 157.5 
L 561.934241 112.2 
L 571.110007 112.2 
L 582.159292 157.5 
L 574.428629 157.5 
z
M 562.439387 140.840163 
L 570.611255 140.840163 
L 566.531715 122.821132 
z
" style="fill:#008000;"/>
   </g>
   <g id="patch_29">
    <path clip-path="url(#p9e656d3ffb)" d="M 582.159292 104.002768 
Q 579.005224 108.101384 575.612849 110.16005 
Q 572.220473 112.2 568.603809 112.2 
Q 560.431268 112.2 555.658112 99.997728 
Q 550.884956 87.795455 550.884956 66.928073 
Q 550.884956 45.817393 555.74222 33.708697 
Q 560.606494 21.6 569.066405 21.6 
Q 572.325609 21.6 575.31146 23.246932 
Q 578.30432 24.87515 580.953737 28.094154 
L 580.953737 46.154266 
Q 578.220212 42.018219 575.514722 39.978269 
Q 572.809233 37.919603 570.089725 37.919603 
Q 565.057235 37.919603 562.330718 45.44309 
Q 559.604201 52.947862 559.604201 66.928073 
Q 559.604201 80.777277 562.232591 88.338195 
Q 564.860981 95.880397 569.697219 95.880397 
Q 571.014919 95.880397 572.143374 95.449948 
Q 573.271829 95.000785 574.168986 94.065028 
L 574.168986 77.10911 
L 569.017342 77.10911 
L 569.017342 62.00599 
L 582.159292 62.00599 
z
" style="fill:#ffa600;"/>
   </g>
   <g id="patch_30">
    <path clip-path="url(#p9e656d3ffb)" d="M 615.079646 156.133795 
Q 611.925578 156.816897 608.533203 157.160008 
Q 605.140827 157.5 601.524163 157.5 
Q 593.351622 157.5 588.578466 155.466288 
Q 583.80531 153.432576 583.80531 149.954679 
Q 583.80531 146.436232 588.662574 144.418116 
Q 593.526848 142.4 601.986759 142.4 
Q 605.245963 142.4 608.231814 142.674489 
Q 611.224674 142.945858 613.874091 143.482359 
L 613.874091 146.492378 
Q 611.140566 145.803037 608.435076 145.463045 
Q 605.729587 145.119934 603.010079 145.119934 
Q 597.977589 145.119934 595.251072 146.373848 
Q 592.524555 147.624644 592.524555 149.954679 
Q 592.524555 152.26288 595.152945 153.523032 
Q 597.781335 154.780066 602.617573 154.780066 
Q 603.935272 154.780066 605.063728 154.708325 
Q 606.192183 154.633464 607.08934 154.477505 
L 607.08934 151.651518 
L 601.937696 151.651518 
L 601.937696 149.134332 
L 615.079646 149.134332 
z
" style="fill:#ffa600;"/>
   </g>
   <g id="patch_31">
    <path clip-path="url(#p9e656d3ffb)" d="M 615.079646 140.235282 
Q 612.463602 141.308283 609.634807 141.851023 
Q 606.806012 142.4 603.725068 142.4 
Q 594.537395 142.4 589.171352 138.332576 
Q 583.80531 134.265152 583.80531 127.309358 
Q 583.80531 120.32861 589.171352 116.267424 
Q 594.537395 112.2 603.725068 112.2 
Q 606.806012 112.2 609.634807 112.748977 
Q 612.463602 113.291717 615.079646 114.364718 
L 615.079646 120.384755 
Q 612.439963 118.962404 609.879076 118.301136 
Q 607.318189 117.639868 604.489395 117.639868 
Q 599.414899 117.639868 596.507308 120.216319 
Q 593.607596 122.786532 593.607596 127.309358 
Q 593.607596 131.813468 596.507308 134.389919 
Q 599.414899 136.960132 604.489395 136.960132 
Q 607.318189 136.960132 609.879076 136.298864 
Q 612.439963 135.631357 615.079646 134.209006 
z
" style="fill:#0000ff;"/>
   </g>
   <g id="patch_32">
    <path clip-path="url(#p9e656d3ffb)" d="M 605.46907 103.94775 
L 593.441463 103.94775 
L 591.542367 112.2 
L 583.80531 112.2 
L 594.854595 66.9 
L 604.030361 66.9 
L 615.079646 112.2 
L 607.348983 112.2 
z
M 595.359741 95.540163 
L 603.531609 95.540163 
L 599.452069 77.521132 
z
" style="fill:#008000;"/>
   </g>
   <g id="patch_33">
    <path clip-path="url(#p9e656d3ffb)" d="M 583.80531 21.6 
L 615.079646 21.6 
L 615.079646 30.434762 
L 603.828158 30.434762 
L 603.828158 66.9 
L 595.078617 66.9 
L 595.078617 30.434762 
L 583.80531 30.434762 
z
" style="fill:#ff0000;"/>
   </g>
   <g id="patch_34">
    <path clip-path="url(#p9e656d3ffb)" d="M 638.389424 151.9985 
L 626.361817 151.9985 
L 624.462721 157.5 
L 616.725664 157.5 
L 627.774949 127.3 
L 636.950715 127.3 
L 648 157.5 
L 640.269337 157.5 
z
M 628.280095 146.393442 
L 636.451963 146.393442 
L 632.372423 134.380754 
z
" style="fill:#008000;"/>
   </g>
   <g id="patch_35">
    <path clip-path="url(#p9e656d3ffb)" d="M 648 119.723487 
Q 645.383956 123.478992 642.555161 125.378579 
Q 639.726366 127.3 636.645422 127.3 
Q 627.457749 127.3 622.091706 113.064016 
Q 616.725664 98.828031 616.725664 74.482751 
Q 616.725664 50.050134 622.091706 35.835984 
Q 627.457749 21.6 636.645422 21.6 
Q 639.726366 21.6 642.555161 23.521421 
Q 645.383956 25.421008 648 29.176513 
L 648 50.246643 
Q 645.360317 45.268416 642.79943 42.953976 
Q 640.238543 40.639537 637.409749 40.639537 
Q 632.335253 40.639537 629.427662 49.657116 
Q 626.52795 58.652861 626.52795 74.482751 
Q 626.52795 90.247139 629.427662 99.264718 
Q 632.335253 108.260463 637.409749 108.260463 
Q 640.238543 108.260463 642.79943 105.946024 
Q 645.360317 103.60975 648 98.631522 
z
" style="fill:#0000ff;"/>
   </g>
  </g>
 </g>
 <defs>
  <clipPath id="p9e656d3ffb">
   <rect height="135.9" width="558" x="90" y="21.6"/>
  </clipPath>
 </defs>
</svg>
