<?xml version="1.0" encoding="utf-8" standalone="no"?>
<!DOCTYPE svg PUBLIC "-//W3C//DTD SVG 1.1//EN"
  "http://www.w3.org/Graphics/SVG/1.1/DTD/svg11.dtd">
<!-- Created with matplotlib (https://matplotlib.org/) -->
<svg height="180pt" version="1.1" viewBox="0 0 720 180" width="720pt" xmlns="http://www.w3.org/2000/svg" xmlns:xlink="http://www.w3.org/1999/xlink">
 <metadata>
  <rdf:RDF xmlns:cc="http://creativecommons.org/ns#" xmlns:dc="http://purl.org/dc/elements/1.1/" xmlns:rdf="http://www.w3.org/1999/02/22-rdf-syntax-ns#">
   <cc:Work>
    <dc:type rdf:resource="http://purl.org/dc/dcmitype/StillImage"/>
    <dc:date>2021-08-04T23:33:23.228252</dc:date>
    <dc:format>image/svg+xml</dc:format>
    <dc:creator>
     <cc:Agent>
      <dc:title>Matplotlib v3.3.2, https://matplotlib.org/</dc:title>
     </cc:Agent>
    </dc:creator>
   </cc:Work>
  </rdf:RDF>
 </metadata>
 <defs>
  <style type="text/css">*{stroke-linecap:butt;stroke-linejoin:round;}</style>
 </defs>
 <g id="figure_1">
  <g id="patch_1">
   <path d="M 0 180 
L 720 180 
L 720 0 
L 0 0 
z
" style="fill:none;"/>
  </g>
  <g id="axes_1">
   <g id="line2d_1">
    <path clip-path="url(#p89e24cccca)" d="M 90 157.5 
L 648 157.5 
" style="fill:none;stroke:#000000;stroke-linecap:square;stroke-width:0.5;"/>
   </g>
   <g id="patch_2">
    <path clip-path="url(#p89e24cccca)" d="M 121.274336 156.133795 
Q 118.120268 156.816897 114.727893 157.160008 
Q 111.335518 157.5 107.718853 157.5 
Q 99.546312 157.5 94.773156 155.466288 
Q 90 153.432576 90 149.954679 
Q 90 146.436232 94.857265 144.418116 
Q 99.721538 142.4 108.18145 142.4 
Q 111.440653 142.4 114.426504 142.674489 
Q 117.419364 142.945858 120.068781 143.482359 
L 120.068781 146.492378 
Q 117.335256 145.803037 114.629766 145.463045 
Q 111.924277 145.119934 109.204769 145.119934 
Q 104.172279 145.119934 101.445762 146.373848 
Q 98.719246 147.624644 98.719246 149.954679 
Q 98.719246 152.26288 101.347636 153.523032 
Q 103.976026 154.780066 108.812263 154.780066 
Q 110.129963 154.780066 111.258418 154.708325 
Q 112.386874 154.633464 113.284031 154.477505 
L 113.284031 151.651518 
L 108.132386 151.651518 
L 108.132386 149.134332 
L 121.274336 149.134332 
z
" style="fill:#ffa600;"/>
   </g>
   <g id="patch_3">
    <path clip-path="url(#p89e24cccca)" d="M 90 112.2 
L 121.274336 112.2 
L 121.274336 118.089841 
L 110.022848 118.089841 
L 110.022848 142.4 
L 101.273307 142.4 
L 101.273307 118.089841 
L 90 118.089841 
z
" style="fill:#ff0000;"/>
   </g>
   <g id="patch_4">
    <path clip-path="url(#p89e24cccca)" d="M 111.66376 103.94775 
L 99.636153 103.94775 
L 97.737057 112.2 
L 90 112.2 
L 101.049285 66.9 
L 110.225051 66.9 
L 121.274336 112.2 
L 113.543673 112.2 
z
M 101.554432 95.540163 
L 109.726299 95.540163 
L 105.64676 77.521132 
z
" style="fill:#008000;"/>
   </g>
   <g id="patch_5">
    <path clip-path="url(#p89e24cccca)" d="M 121.274336 63.652923 
Q 118.658292 65.262425 115.829497 66.076534 
Q 113.000702 66.9 109.919759 66.9 
Q 100.732085 66.9 95.366043 60.798864 
Q 90 54.697728 90 44.264036 
Q 90 33.792915 95.366043 27.701136 
Q 100.732085 21.6 109.919759 21.6 
Q 113.000702 21.6 115.829497 22.423466 
Q 118.658292 23.237575 121.274336 24.847077 
L 121.274336 33.877133 
Q 118.634653 31.743607 116.073766 30.751704 
Q 113.51288 29.759802 110.684085 29.759802 
Q 105.609589 29.759802 102.701998 33.624478 
Q 99.802286 37.479798 99.802286 44.264036 
Q 99.802286 51.020202 102.701998 54.884879 
Q 105.609589 58.740198 110.684085 58.740198 
Q 113.51288 58.740198 116.073766 57.748296 
Q 118.634653 56.747036 121.274336 54.61351 
z
" style="fill:#0000ff;"/>
   </g>
   <g id="patch_6">
    <path clip-path="url(#p89e24cccca)" d="M 154.19469 156.417641 
Q 151.578646 156.954142 148.749851 157.225511 
Q 145.921056 157.5 142.840113 157.5 
Q 133.652439 157.5 128.286397 155.466288 
Q 122.920354 153.432576 122.920354 149.954679 
Q 122.920354 146.464305 128.286397 144.433712 
Q 133.652439 142.4 142.840113 142.4 
Q 145.921056 142.4 148.749851 142.674489 
Q 151.578646 142.945858 154.19469 143.482359 
L 154.19469 146.492378 
Q 151.555007 145.781202 148.99412 145.450568 
Q 146.433234 145.119934 143.604439 145.119934 
Q 138.529943 145.119934 135.622352 146.408159 
Q 132.72264 147.693266 132.72264 149.954679 
Q 132.72264 152.206734 135.622352 153.49496 
Q 138.529943 154.780066 143.604439 154.780066 
Q 146.433234 154.780066 148.99412 154.449432 
Q 151.555007 154.115679 154.19469 153.404503 
z
" style="fill:#0000ff;"/>
   </g>
   <g id="patch_7">
    <path clip-path="url(#p89e24cccca)" d="M 154.19469 139.667589 
Q 151.040622 141.033795 147.648247 141.720017 
Q 144.255872 142.4 140.639207 142.4 
Q 132.466666 142.4 127.69351 138.332576 
Q 122.920354 134.265152 122.920354 127.309358 
Q 122.920354 120.272464 127.777619 116.236232 
Q 132.641892 112.2 141.101804 112.2 
Q 144.361007 112.2 147.346858 112.748977 
Q 150.339718 113.291717 152.989135 114.364718 
L 152.989135 120.384755 
Q 150.25561 119.006073 147.55012 118.32609 
Q 144.844631 117.639868 142.125123 117.639868 
Q 137.092633 117.639868 134.366116 120.147697 
Q 131.6396 122.649287 131.6396 127.309358 
Q 131.6396 131.925759 134.26799 134.446065 
Q 136.89638 136.960132 141.732617 136.960132 
Q 143.050317 136.960132 144.178772 136.816649 
Q 145.307228 136.666928 146.204385 136.355009 
L 146.204385 130.703037 
L 141.05274 130.703037 
L 141.05274 125.668663 
L 154.19469 125.668663 
z
" style="fill:#ffa600;"/>
   </g>
   <g id="patch_8">
    <path clip-path="url(#p89e24cccca)" d="M 144.584114 95.695499 
L 132.556507 95.695499 
L 130.657411 112.2 
L 122.920354 112.2 
L 133.969639 21.6 
L 143.145405 21.6 
L 154.19469 112.2 
L 146.464027 112.2 
z
M 134.474786 78.880326 
L 142.646653 78.880326 
L 138.567114 42.842263 
z
" style="fill:#008000;"/>
   </g>
   <g id="patch_9">
    <path clip-path="url(#p89e24cccca)" d="M 177.504468 132.743249 
L 165.476861 132.743249 
L 163.577765 157.5 
L 155.840708 157.5 
L 166.889993 21.6 
L 176.065759 21.6 
L 187.115044 157.5 
L 179.384381 157.5 
z
M 167.39514 107.520489 
L 175.567007 107.520489 
L 171.487467 53.463395 
z
" style="fill:#008000;"/>
   </g>
   <g id="patch_10">
    <path clip-path="url(#p89e24cccca)" d="M 220.035398 156.417641 
Q 217.419354 156.954142 214.590559 157.225511 
Q 211.761764 157.5 208.680821 157.5 
Q 199.493147 157.5 194.127105 155.466288 
Q 188.761062 153.432576 188.761062 149.954679 
Q 188.761062 146.464305 194.127105 144.433712 
Q 199.493147 142.4 208.680821 142.4 
Q 211.761764 142.4 214.590559 142.674489 
Q 217.419354 142.945858 220.035398 143.482359 
L 220.035398 146.492378 
Q 217.395715 145.781202 214.834828 145.450568 
Q 212.273942 145.119934 209.445147 145.119934 
Q 204.370651 145.119934 201.46306 146.408159 
Q 198.563348 147.693266 198.563348 149.954679 
Q 198.563348 152.206734 201.46306 153.49496 
Q 204.370651 154.780066 209.445147 154.780066 
Q 212.273942 154.780066 214.834828 154.449432 
Q 217.395715 154.115679 220.035398 153.404503 
z
" style="fill:#0000ff;"/>
   </g>
   <g id="patch_11">
    <path clip-path="url(#p89e24cccca)" d="M 210.424822 131.397 
L 198.397215 131.397 
L 196.498119 142.4 
L 188.761062 142.4 
L 199.810347 82 
L 208.986113 82 
L 220.035398 142.4 
L 212.304735 142.4 
z
M 200.315494 120.186884 
L 208.487361 120.186884 
L 204.407821 96.161509 
z
" style="fill:#008000;"/>
   </g>
   <g id="patch_12">
    <path clip-path="url(#p89e24cccca)" d="M 188.761062 21.6 
L 220.035398 21.6 
L 220.035398 33.379683 
L 208.78391 33.379683 
L 208.78391 82 
L 200.034369 82 
L 200.034369 33.379683 
L 188.761062 33.379683 
z
" style="fill:#ff0000;"/>
   </g>
   <g id="patch_13">
    <path clip-path="url(#p89e24cccca)" d="M 252.955752 156.417641 
Q 250.339708 156.954142 247.510913 157.225511 
Q 244.682118 157.5 241.601175 157.5 
Q 232.413501 157.5 227.047459 155.466288 
Q 221.681416 153.432576 221.681416 149.954679 
Q 221.681416 146.464305 227.047459 144.433712 
Q 232.413501 142.4 241.601175 142.4 
Q 244.682118 142.4 247.510913 142.674489 
Q 250.339708 142.945858 252.955752 143.482359 
L 252.955752 146.492378 
Q 250.316069 145.781202 247.755182 145.450568 
Q 245.194296 145.119934 242.365501 145.119934 
Q 237.291005 145.119934 234.383414 146.408159 
Q 231.483702 147.693266 231.483702 149.954679 
Q 231.483702 152.206734 234.383414 153.49496 
Q 237.291005 154.780066 242.365501 154.780066 
Q 245.194296 154.780066 247.755182 154.449432 
Q 250.316069 154.115679 252.955752 153.404503 
z
" style="fill:#0000ff;"/>
   </g>
   <g id="patch_14">
    <path clip-path="url(#p89e24cccca)" d="M 243.345176 136.8985 
L 231.317569 136.8985 
L 229.418473 142.4 
L 221.681416 142.4 
L 232.730701 112.2 
L 241.906467 112.2 
L 252.955752 142.4 
L 245.225089 142.4 
z
M 233.235848 131.293442 
L 241.407715 131.293442 
L 237.328175 119.280754 
z
" style="fill:#008000;"/>
   </g>
   <g id="patch_15">
    <path clip-path="url(#p89e24cccca)" d="M 252.955752 104.002768 
Q 249.801684 108.101384 246.409309 110.16005 
Q 243.016934 112.2 239.400269 112.2 
Q 231.227728 112.2 226.454572 99.997728 
Q 221.681416 87.795455 221.681416 66.928073 
Q 221.681416 45.817393 226.538681 33.708697 
Q 231.402954 21.6 239.862866 21.6 
Q 243.122069 21.6 246.10792 23.246932 
Q 249.10078 24.87515 251.750197 28.094154 
L 251.750197 46.154266 
Q 249.016672 42.018219 246.311182 39.978269 
Q 243.605693 37.919603 240.886185 37.919603 
Q 235.853695 37.919603 233.127178 45.44309 
Q 230.400662 52.947862 230.400662 66.928073 
Q 230.400662 80.777277 233.029052 88.338195 
Q 235.657442 95.880397 240.493679 95.880397 
Q 241.811379 95.880397 242.939834 95.449948 
Q 244.06829 95.000785 244.965447 94.065028 
L 244.965447 77.10911 
L 239.813802 77.10911 
L 239.813802 62.00599 
L 252.955752 62.00599 
z
" style="fill:#ffa600;"/>
   </g>
   <g id="patch_16">
    <path clip-path="url(#p89e24cccca)" d="M 276.26553 146.497 
L 264.237923 146.497 
L 262.338827 157.5 
L 254.60177 157.5 
L 265.651055 97.1 
L 274.826821 97.1 
L 285.876106 157.5 
L 278.145443 157.5 
z
M 266.156202 135.286884 
L 274.328069 135.286884 
L 270.248529 111.261509 
z
" style="fill:#008000;"/>
   </g>
   <g id="patch_17">
    <path clip-path="url(#p89e24cccca)" d="M 285.876106 90.268973 
Q 282.722038 93.684487 279.329663 95.400041 
Q 275.937288 97.1 272.320623 97.1 
Q 264.148082 97.1 259.374926 86.93144 
Q 254.60177 76.76288 254.60177 59.373394 
Q 254.60177 41.781161 259.459035 31.69058 
Q 264.323308 21.6 272.78322 21.6 
Q 276.042423 21.6 279.028274 22.972444 
Q 282.021134 24.329291 284.670551 27.011795 
L 284.670551 42.061888 
Q 281.937026 38.615183 279.231536 36.915224 
Q 276.526047 35.199669 273.806539 35.199669 
Q 268.774049 35.199669 266.047532 41.469242 
Q 263.321016 47.723218 263.321016 59.373394 
Q 263.321016 70.914398 265.949406 77.215162 
Q 268.577796 83.500331 273.414033 83.500331 
Q 274.731733 83.500331 275.860188 83.141624 
Q 276.988644 82.767321 277.885801 81.987523 
L 277.885801 67.857591 
L 272.734156 67.857591 
L 272.734156 55.271659 
L 285.876106 55.271659 
z
" style="fill:#ffa600;"/>
   </g>
   <g id="patch_18">
    <path clip-path="url(#p89e24cccca)" d="M 309.185884 154.74925 
L 297.158277 154.74925 
L 295.259181 157.5 
L 287.522124 157.5 
L 298.571409 142.4 
L 307.747175 142.4 
L 318.79646 157.5 
L 311.065797 157.5 
z
M 299.076556 151.946721 
L 307.248423 151.946721 
L 303.168883 145.940377 
z
" style="fill:#008000;"/>
   </g>
   <g id="patch_19">
    <path clip-path="url(#p89e24cccca)" d="M 318.79646 139.152923 
Q 316.180416 140.762425 313.351621 141.576534 
Q 310.522826 142.4 307.441883 142.4 
Q 298.254209 142.4 292.888166 136.298864 
Q 287.522124 130.197728 287.522124 119.764036 
Q 287.522124 109.292915 292.888166 103.201136 
Q 298.254209 97.1 307.441883 97.1 
Q 310.522826 97.1 313.351621 97.923466 
Q 316.180416 98.737575 318.79646 100.347077 
L 318.79646 109.377133 
Q 316.156777 107.243607 313.59589 106.251704 
Q 311.035004 105.259802 308.206209 105.259802 
Q 303.131713 105.259802 300.224122 109.124478 
Q 297.32441 112.979798 297.32441 119.764036 
Q 297.32441 126.520202 300.224122 130.384879 
Q 303.131713 134.240198 308.206209 134.240198 
Q 311.035004 134.240198 313.59589 133.248296 
Q 316.156777 132.247036 318.79646 130.11351 
z
" style="fill:#0000ff;"/>
   </g>
   <g id="patch_20">
    <path clip-path="url(#p89e24cccca)" d="M 287.522124 21.6 
L 318.79646 21.6 
L 318.79646 36.324604 
L 307.544972 36.324604 
L 307.544972 97.1 
L 298.795431 97.1 
L 298.795431 36.324604 
L 287.522124 36.324604 
z
" style="fill:#ff0000;"/>
   </g>
   <g id="patch_21">
    <path clip-path="url(#p89e24cccca)" d="M 342.106238 151.9985 
L 330.078631 151.9985 
L 328.179535 157.5 
L 320.442478 157.5 
L 331.491763 127.3 
L 340.667529 127.3 
L 351.716814 157.5 
L 343.986151 157.5 
z
M 331.99691 146.393442 
L 340.168777 146.393442 
L 336.089237 134.380754 
z
" style="fill:#008000;"/>
   </g>
   <g id="patch_22">
    <path clip-path="url(#p89e24cccca)" d="M 351.716814 125.135282 
Q 349.10077 126.208283 346.271975 126.751023 
Q 343.44318 127.3 340.362237 127.3 
Q 331.174563 127.3 325.80852 123.232576 
Q 320.442478 119.165152 320.442478 112.209358 
Q 320.442478 105.22861 325.80852 101.167424 
Q 331.174563 97.1 340.362237 97.1 
Q 343.44318 97.1 346.271975 97.648977 
Q 349.10077 98.191717 351.716814 99.264718 
L 351.716814 105.284755 
Q 349.077131 103.862404 346.516244 103.201136 
Q 343.955358 102.539868 341.126563 102.539868 
Q 336.052067 102.539868 333.144476 105.116319 
Q 330.244764 107.686532 330.244764 112.209358 
Q 330.244764 116.713468 333.144476 119.289919 
Q 336.052067 121.860132 341.126563 121.860132 
Q 343.955358 121.860132 346.516244 121.198864 
Q 349.077131 120.531357 351.716814 119.109006 
z
" style="fill:#0000ff;"/>
   </g>
   <g id="patch_23">
    <path clip-path="url(#p89e24cccca)" d="M 351.716814 90.268973 
Q 348.562746 93.684487 345.170371 95.400041 
Q 341.777996 97.1 338.161331 97.1 
Q 329.98879 97.1 325.215634 86.93144 
Q 320.442478 76.76288 320.442478 59.373394 
Q 320.442478 41.781161 325.299743 31.69058 
Q 330.164016 21.6 338.623928 21.6 
Q 341.883131 21.6 344.868982 22.972444 
Q 347.861842 24.329291 350.511259 27.011795 
L 350.511259 42.061888 
Q 347.777734 38.615183 345.072244 36.915224 
Q 342.366755 35.199669 339.647247 35.199669 
Q 334.614757 35.199669 331.88824 41.469242 
Q 329.161724 47.723218 329.161724 59.373394 
Q 329.161724 70.914398 331.790114 77.215162 
Q 334.418504 83.500331 339.254741 83.500331 
Q 340.572441 83.500331 341.700896 83.141624 
Q 342.829351 82.767321 343.726509 81.987523 
L 343.726509 67.857591 
L 338.574864 67.857591 
L 338.574864 55.271659 
L 351.716814 55.271659 
z
" style="fill:#ffa600;"/>
   </g>
   <g id="patch_24">
    <path clip-path="url(#p89e24cccca)" d="M 375.026592 151.9985 
L 362.998985 151.9985 
L 361.099889 157.5 
L 353.362832 157.5 
L 364.412117 127.3 
L 373.587883 127.3 
L 384.637168 157.5 
L 376.906505 157.5 
z
M 364.917264 146.393442 
L 373.089131 146.393442 
L 369.009591 134.380754 
z
" style="fill:#008000;"/>
   </g>
   <g id="patch_25">
    <path clip-path="url(#p89e24cccca)" d="M 384.637168 117.736563 
Q 381.4831 122.518281 378.090725 124.920058 
Q 374.698349 127.3 371.081685 127.3 
Q 362.909144 127.3 358.135988 113.064016 
Q 353.362832 98.828031 353.362832 74.482751 
Q 353.362832 49.853625 358.220097 35.726813 
Q 363.08437 21.6 371.544282 21.6 
Q 374.803485 21.6 377.789336 23.521421 
Q 380.782196 25.421008 383.431613 29.176513 
L 383.431613 50.246643 
Q 380.698088 45.421256 377.992598 43.041314 
Q 375.287109 40.639537 372.567601 40.639537 
Q 367.535111 40.639537 364.808594 49.416939 
Q 362.082078 58.172506 362.082078 74.482751 
Q 362.082078 90.640157 364.710468 99.461227 
Q 367.338858 108.260463 372.175095 108.260463 
Q 373.492795 108.260463 374.62125 107.758273 
Q 375.749705 107.234249 376.646863 106.142533 
L 376.646863 86.360628 
L 371.495218 86.360628 
L 371.495218 68.740322 
L 384.637168 68.740322 
z
" style="fill:#ffa600;"/>
   </g>
   <g id="patch_26">
    <path clip-path="url(#p89e24cccca)" d="M 407.946946 146.497 
L 395.919339 146.497 
L 394.020243 157.5 
L 386.283186 157.5 
L 397.332471 97.1 
L 406.508237 97.1 
L 417.557522 157.5 
L 409.826859 157.5 
z
M 397.837618 135.286884 
L 406.009485 135.286884 
L 401.929945 111.261509 
z
" style="fill:#008000;"/>
   </g>
   <g id="patch_27">
    <path clip-path="url(#p89e24cccca)" d="M 417.557522 91.688205 
Q 414.941478 94.370709 412.112683 95.727556 
Q 409.283888 97.1 406.202945 97.1 
Q 397.015271 97.1 391.649228 86.93144 
Q 386.283186 76.76288 386.283186 59.373394 
Q 386.283186 41.921524 391.649228 31.76856 
Q 397.015271 21.6 406.202945 21.6 
Q 409.283888 21.6 412.112683 22.972444 
Q 414.941478 24.329291 417.557522 27.011795 
L 417.557522 42.061888 
Q 414.917839 38.506011 412.356952 36.85284 
Q 409.796066 35.199669 406.967271 35.199669 
Q 401.892775 35.199669 398.985184 41.640797 
Q 396.085472 48.066329 396.085472 59.373394 
Q 396.085472 70.633671 398.985184 77.074799 
Q 401.892775 83.500331 406.967271 83.500331 
Q 409.796066 83.500331 412.356952 81.84716 
Q 414.917839 80.178393 417.557522 76.622516 
z
" style="fill:#0000ff;"/>
   </g>
   <g id="patch_28">
    <path clip-path="url(#p89e24cccca)" d="M 440.8673 151.9985 
L 428.839693 151.9985 
L 426.940597 157.5 
L 419.20354 157.5 
L 430.252825 127.3 
L 439.428591 127.3 
L 450.477876 157.5 
L 442.747213 157.5 
z
M 430.757972 146.393442 
L 438.929839 146.393442 
L 434.850299 134.380754 
z
" style="fill:#008000;"/>
   </g>
   <g id="patch_29">
    <path clip-path="url(#p89e24cccca)" d="M 419.20354 97.1 
L 450.477876 97.1 
L 450.477876 102.989841 
L 439.226388 102.989841 
L 439.226388 127.3 
L 430.476847 127.3 
L 430.476847 102.989841 
L 419.20354 102.989841 
z
" style="fill:#ff0000;"/>
   </g>
   <g id="patch_30">
    <path clip-path="url(#p89e24cccca)" d="M 450.477876 91.688205 
Q 447.861832 94.370709 445.033037 95.727556 
Q 442.204242 97.1 439.123298 97.1 
Q 429.935625 97.1 424.569582 86.93144 
Q 419.20354 76.76288 419.20354 59.373394 
Q 419.20354 41.921524 424.569582 31.76856 
Q 429.935625 21.6 439.123298 21.6 
Q 442.204242 21.6 445.033037 22.972444 
Q 447.861832 24.329291 450.477876 27.011795 
L 450.477876 42.061888 
Q 447.838193 38.506011 445.277306 36.85284 
Q 442.71642 35.199669 439.887625 35.199669 
Q 434.813129 35.199669 431.905538 41.640797 
Q 429.005826 48.066329 429.005826 59.373394 
Q 429.005826 70.633671 431.905538 77.074799 
Q 434.813129 83.500331 439.887625 83.500331 
Q 442.71642 83.500331 445.277306 81.84716 
Q 447.838193 80.178393 450.477876 76.622516 
z
" style="fill:#0000ff;"/>
   </g>
   <g id="patch_31">
    <path clip-path="url(#p89e24cccca)" d="M 483.39823 156.133795 
Q 480.244162 156.816897 476.851787 157.160008 
Q 473.459411 157.5 469.842747 157.5 
Q 461.670206 157.5 456.89705 155.466288 
Q 452.123894 153.432576 452.123894 149.954679 
Q 452.123894 146.436232 456.981158 144.418116 
Q 461.845432 142.4 470.305343 142.4 
Q 473.564547 142.4 476.550398 142.674489 
Q 479.543258 142.945858 482.192675 143.482359 
L 482.192675 146.492378 
Q 479.45915 145.803037 476.75366 145.463045 
Q 474.048171 145.119934 471.328663 145.119934 
Q 466.296173 145.119934 463.569656 146.373848 
Q 460.84314 147.624644 460.84314 149.954679 
Q 460.84314 152.26288 463.471529 153.523032 
Q 466.099919 154.780066 470.936157 154.780066 
Q 472.253857 154.780066 473.382312 154.708325 
Q 474.510767 154.633464 475.407925 154.477505 
L 475.407925 151.651518 
L 470.25628 151.651518 
L 470.25628 149.134332 
L 483.39823 149.134332 
z
" style="fill:#ffa600;"/>
   </g>
   <g id="patch_32">
    <path clip-path="url(#p89e24cccca)" d="M 473.787654 134.14775 
L 461.760047 134.14775 
L 459.860951 142.4 
L 452.123894 142.4 
L 463.173179 97.1 
L 472.348945 97.1 
L 483.39823 142.4 
L 475.667567 142.4 
z
M 463.678326 125.740163 
L 471.850193 125.740163 
L 467.770653 107.721132 
z
" style="fill:#008000;"/>
   </g>
   <g id="patch_33">
    <path clip-path="url(#p89e24cccca)" d="M 483.39823 91.688205 
Q 480.782186 94.370709 477.953391 95.727556 
Q 475.124596 97.1 472.043652 97.1 
Q 462.855979 97.1 457.489936 86.93144 
Q 452.123894 76.76288 452.123894 59.373394 
Q 452.123894 41.921524 457.489936 31.76856 
Q 462.855979 21.6 472.043652 21.6 
Q 475.124596 21.6 477.953391 22.972444 
Q 480.782186 24.329291 483.39823 27.011795 
L 483.39823 42.061888 
Q 480.758547 38.506011 478.19766 36.85284 
Q 475.636773 35.199669 472.807979 35.199669 
Q 467.733483 35.199669 464.825892 41.640797 
Q 461.92618 48.066329 461.92618 59.373394 
Q 461.92618 70.633671 464.825892 77.074799 
Q 467.733483 83.500331 472.807979 83.500331 
Q 475.636773 83.500331 478.19766 81.84716 
Q 480.758547 80.178393 483.39823 76.622516 
z
" style="fill:#0000ff;"/>
   </g>
   <g id="patch_34">
    <path clip-path="url(#p89e24cccca)" d="M 516.318584 156.133795 
Q 513.164516 156.816897 509.772141 157.160008 
Q 506.379765 157.5 502.763101 157.5 
Q 494.59056 157.5 489.817404 155.466288 
Q 485.044248 153.432576 485.044248 149.954679 
Q 485.044248 146.436232 489.901512 144.418116 
Q 494.765786 142.4 503.225697 142.4 
Q 506.484901 142.4 509.470752 142.674489 
Q 512.463612 142.945858 515.113029 143.482359 
L 515.113029 146.492378 
Q 512.379504 145.803037 509.674014 145.463045 
Q 506.968525 145.119934 504.249017 145.119934 
Q 499.216527 145.119934 496.49001 146.373848 
Q 493.763493 147.624644 493.763493 149.954679 
Q 493.763493 152.26288 496.391883 153.523032 
Q 499.020273 154.780066 503.856511 154.780066 
Q 505.174211 154.780066 506.302666 154.708325 
Q 507.431121 154.633464 508.328279 154.477505 
L 508.328279 151.651518 
L 503.176634 151.651518 
L 503.176634 149.134332 
L 516.318584 149.134332 
z
" style="fill:#ffa600;"/>
   </g>
   <g id="patch_35">
    <path clip-path="url(#p89e24cccca)" d="M 506.708008 136.8985 
L 494.680401 136.8985 
L 492.781305 142.4 
L 485.044248 142.4 
L 496.093533 112.2 
L 505.269299 112.2 
L 516.318584 142.4 
L 508.587921 142.4 
z
M 496.59868 131.293442 
L 504.770547 131.293442 
L 500.691007 119.280754 
z
" style="fill:#008000;"/>
   </g>
   <g id="patch_36">
    <path clip-path="url(#p89e24cccca)" d="M 516.318584 110.035282 
Q 513.70254 111.108283 510.873745 111.651023 
Q 508.04495 112.2 504.964006 112.2 
Q 495.776333 112.2 490.41029 108.132576 
Q 485.044248 104.065152 485.044248 97.109358 
Q 485.044248 90.12861 490.41029 86.067424 
Q 495.776333 82 504.964006 82 
Q 508.04495 82 510.873745 82.548977 
Q 513.70254 83.091717 516.318584 84.164718 
L 516.318584 90.184755 
Q 513.678901 88.762404 511.118014 88.101136 
Q 508.557127 87.439868 505.728333 87.439868 
Q 500.653837 87.439868 497.746246 90.016319 
Q 494.846534 92.586532 494.846534 97.109358 
Q 494.846534 101.613468 497.746246 104.189919 
Q 500.653837 106.760132 505.728333 106.760132 
Q 508.557127 106.760132 511.118014 106.098864 
Q 513.678901 105.431357 516.318584 104.009006 
z
" style="fill:#0000ff;"/>
   </g>
   <g id="patch_37">
    <path clip-path="url(#p89e24cccca)" d="M 485.044248 21.6 
L 516.318584 21.6 
L 516.318584 33.379683 
L 505.067096 33.379683 
L 505.067096 82 
L 496.317555 82 
L 496.317555 33.379683 
L 485.044248 33.379683 
z
" style="fill:#ff0000;"/>
   </g>
   <g id="patch_38">
    <path clip-path="url(#p89e24cccca)" d="M 539.628362 154.74925 
L 527.600755 154.74925 
L 525.701659 157.5 
L 517.964602 157.5 
L 529.013887 142.4 
L 538.189653 142.4 
L 549.238938 157.5 
L 541.508275 157.5 
z
M 529.519034 151.946721 
L 537.690901 151.946721 
L 533.611361 145.940377 
z
" style="fill:#008000;"/>
   </g>
   <g id="patch_39">
    <path clip-path="url(#p89e24cccca)" d="M 517.964602 127.3 
L 549.238938 127.3 
L 549.238938 130.244921 
L 537.98745 130.244921 
L 537.98745 142.4 
L 529.237909 142.4 
L 529.237909 130.244921 
L 517.964602 130.244921 
z
" style="fill:#ff0000;"/>
   </g>
   <g id="patch_40">
    <path clip-path="url(#p89e24cccca)" d="M 549.238938 124.052923 
Q 546.622894 125.662425 543.794099 126.476534 
Q 540.965304 127.3 537.88436 127.3 
Q 528.696687 127.3 523.330644 121.198864 
Q 517.964602 115.097728 517.964602 104.664036 
Q 517.964602 94.192915 523.330644 88.101136 
Q 528.696687 82 537.88436 82 
Q 540.965304 82 543.794099 82.823466 
Q 546.622894 83.637575 549.238938 85.247077 
L 549.238938 94.277133 
Q 546.599255 92.143607 544.038368 91.151704 
Q 541.477481 90.159802 538.648687 90.159802 
Q 533.574191 90.159802 530.6666 94.024478 
Q 527.766888 97.879798 527.766888 104.664036 
Q 527.766888 111.420202 530.6666 115.284879 
Q 533.574191 119.140198 538.648687 119.140198 
Q 541.477481 119.140198 544.038368 118.148296 
Q 546.599255 117.147036 549.238938 115.01351 
z
" style="fill:#0000ff;"/>
   </g>
   <g id="patch_41">
    <path clip-path="url(#p89e24cccca)" d="M 549.238938 76.535179 
Q 546.08487 79.267589 542.692495 80.640033 
Q 539.300119 82 535.683455 82 
Q 527.510914 82 522.737758 73.865152 
Q 517.964602 65.730304 517.964602 51.818715 
Q 517.964602 37.744929 522.821866 29.672464 
Q 527.68614 21.6 536.146051 21.6 
Q 539.405255 21.6 542.391106 22.697955 
Q 545.383966 23.783433 548.033383 25.929436 
L 548.033383 37.96951 
Q 545.299858 35.212146 542.594368 33.852179 
Q 539.888879 32.479736 537.169371 32.479736 
Q 532.136881 32.479736 529.410364 37.495394 
Q 526.683847 42.498575 526.683847 51.818715 
Q 526.683847 61.051518 529.312237 66.09213 
Q 531.940627 71.120264 536.776865 71.120264 
Q 538.094565 71.120264 539.22302 70.833299 
Q 540.351475 70.533857 541.248633 69.910019 
L 541.248633 58.606073 
L 536.096988 58.606073 
L 536.096988 48.537327 
L 549.238938 48.537327 
z
" style="fill:#ffa600;"/>
   </g>
   <g id="patch_42">
    <path clip-path="url(#p89e24cccca)" d="M 582.159292 156.133795 
Q 579.005224 156.816897 575.612849 157.160008 
Q 572.220473 157.5 568.603809 157.5 
Q 560.431268 157.5 555.658112 155.466288 
Q 550.884956 153.432576 550.884956 149.954679 
Q 550.884956 146.436232 555.74222 144.418116 
Q 560.606494 142.4 569.066405 142.4 
Q 572.325609 142.4 575.31146 142.674489 
Q 578.30432 142.945858 580.953737 143.482359 
L 580.953737 146.492378 
Q 578.220212 145.803037 575.514722 145.463045 
Q 572.809233 145.119934 570.089725 145.119934 
Q 565.057235 145.119934 562.330718 146.373848 
Q 559.604201 147.624644 559.604201 149.954679 
Q 559.604201 152.26288 562.232591 153.523032 
Q 564.860981 154.780066 569.697219 154.780066 
Q 571.014919 154.780066 572.143374 154.708325 
Q 573.271829 154.633464 574.168986 154.477505 
L 574.168986 151.651518 
L 569.017342 151.651518 
L 569.017342 149.134332 
L 582.159292 149.134332 
z
" style="fill:#ffa600;"/>
   </g>
   <g id="patch_43">
    <path clip-path="url(#p89e24cccca)" d="M 572.548716 131.397 
L 560.521109 131.397 
L 558.622013 142.4 
L 550.884956 142.4 
L 561.934241 82 
L 571.110007 82 
L 582.159292 142.4 
L 574.428629 142.4 
z
M 562.439387 120.186884 
L 570.611255 120.186884 
L 566.531715 96.161509 
z
" style="fill:#008000;"/>
   </g>
   <g id="patch_44">
    <path clip-path="url(#p89e24cccca)" d="M 550.884956 21.6 
L 582.159292 21.6 
L 582.159292 33.379683 
L 570.907804 33.379683 
L 570.907804 82 
L 562.158263 82 
L 562.158263 33.379683 
L 550.884956 33.379683 
z
" style="fill:#ff0000;"/>
   </g>
   <g id="patch_45">
    <path clip-path="url(#p89e24cccca)" d="M 583.80531 127.3 
L 615.079646 127.3 
L 615.079646 133.189841 
L 603.828158 133.189841 
L 603.828158 157.5 
L 595.078617 157.5 
L 595.078617 133.189841 
L 583.80531 133.189841 
z
" style="fill:#ff0000;"/>
   </g>
   <g id="patch_46">
    <path clip-path="url(#p89e24cccca)" d="M 615.079646 123.201384 
Q 611.925578 125.250692 608.533203 126.280025 
Q 605.140827 127.3 601.524163 127.3 
Q 593.351622 127.3 588.578466 121.198864 
Q 583.80531 115.097728 583.80531 104.664036 
Q 583.80531 94.108697 588.662574 88.054348 
Q 593.526848 82 601.986759 82 
Q 605.245963 82 608.231814 82.823466 
Q 611.224674 83.637575 613.874091 85.247077 
L 613.874091 94.277133 
Q 611.140566 92.20911 608.435076 91.189134 
Q 605.729587 90.159802 603.010079 90.159802 
Q 597.977589 90.159802 595.251072 93.921545 
Q 592.524555 97.673931 592.524555 104.664036 
Q 592.524555 111.588639 595.152945 115.369097 
Q 597.781335 119.140198 602.617573 119.140198 
Q 603.935272 119.140198 605.063728 118.924974 
Q 606.192183 118.700392 607.08934 118.232514 
L 607.08934 109.754555 
L 601.937696 109.754555 
L 601.937696 102.202995 
L 615.079646 102.202995 
z
" style="fill:#ffa600;"/>
   </g>
   <g id="patch_47">
    <path clip-path="url(#p89e24cccca)" d="M 605.46907 70.997 
L 593.441463 70.997 
L 591.542367 82 
L 583.80531 82 
L 594.854595 21.6 
L 604.030361 21.6 
L 615.079646 82 
L 607.348983 82 
z
M 595.359741 59.786884 
L 603.531609 59.786884 
L 599.452069 35.761509 
z
" style="fill:#008000;"/>
   </g>
   <g id="patch_48">
    <path clip-path="url(#p89e24cccca)" d="M 648 156.417641 
Q 645.383956 156.954142 642.555161 157.225511 
Q 639.726366 157.5 636.645422 157.5 
Q 627.457749 157.5 622.091706 155.466288 
Q 616.725664 153.432576 616.725664 149.954679 
Q 616.725664 146.464305 622.091706 144.433712 
Q 627.457749 142.4 636.645422 142.4 
Q 639.726366 142.4 642.555161 142.674489 
Q 645.383956 142.945858 648 143.482359 
L 648 146.492378 
Q 645.360317 145.781202 642.79943 145.450568 
Q 640.238543 145.119934 637.409749 145.119934 
Q 632.335253 145.119934 629.427662 146.408159 
Q 626.52795 147.693266 626.52795 149.954679 
Q 626.52795 152.206734 629.427662 153.49496 
Q 632.335253 154.780066 637.409749 154.780066 
Q 640.238543 154.780066 642.79943 154.449432 
Q 645.360317 154.115679 648 153.404503 
z
" style="fill:#0000ff;"/>
   </g>
   <g id="patch_49">
    <path clip-path="url(#p89e24cccca)" d="M 616.725664 127.3 
L 648 127.3 
L 648 130.244921 
L 636.748512 130.244921 
L 636.748512 142.4 
L 627.998971 142.4 
L 627.998971 130.244921 
L 616.725664 130.244921 
z
" style="fill:#ff0000;"/>
   </g>
   <g id="patch_50">
    <path clip-path="url(#p89e24cccca)" d="M 648 117.736563 
Q 644.845932 122.518281 641.453557 124.920058 
Q 638.061181 127.3 634.444517 127.3 
Q 626.271976 127.3 621.49882 113.064016 
Q 616.725664 98.828031 616.725664 74.482751 
Q 616.725664 49.853625 621.582928 35.726813 
Q 626.447202 21.6 634.907113 21.6 
Q 638.166317 21.6 641.152168 23.521421 
Q 644.145028 25.421008 646.794445 29.176513 
L 646.794445 50.246643 
Q 644.06092 45.421256 641.35543 43.041314 
Q 638.649941 40.639537 635.930433 40.639537 
Q 630.897943 40.639537 628.171426 49.416939 
Q 625.444909 58.172506 625.444909 74.482751 
Q 625.444909 90.640157 628.073299 99.461227 
Q 630.701689 108.260463 635.537927 108.260463 
Q 636.855626 108.260463 637.984082 107.758273 
Q 639.112537 107.234249 640.009694 106.142533 
L 640.009694 86.360628 
L 634.85805 86.360628 
L 634.85805 68.740322 
L 648 68.740322 
z
" style="fill:#ffa600;"/>
   </g>
  </g>
 </g>
 <defs>
  <clipPath id="p89e24cccca">
   <rect height="135.9" width="558" x="90" y="21.6"/>
  </clipPath>
 </defs>
</svg>
