<?xml version="1.0" encoding="utf-8" standalone="no"?>
<!DOCTYPE svg PUBLIC "-//W3C//DTD SVG 1.1//EN"
  "http://www.w3.org/Graphics/SVG/1.1/DTD/svg11.dtd">
<!-- Created with matplotlib (https://matplotlib.org/) -->
<svg height="180pt" version="1.1" viewBox="0 0 720 180" width="720pt" xmlns="http://www.w3.org/2000/svg" xmlns:xlink="http://www.w3.org/1999/xlink">
 <metadata>
  <rdf:RDF xmlns:cc="http://creativecommons.org/ns#" xmlns:dc="http://purl.org/dc/elements/1.1/" xmlns:rdf="http://www.w3.org/1999/02/22-rdf-syntax-ns#">
   <cc:Work>
    <dc:type rdf:resource="http://purl.org/dc/dcmitype/StillImage"/>
    <dc:date>2021-08-04T23:33:08.070032</dc:date>
    <dc:format>image/svg+xml</dc:format>
    <dc:creator>
     <cc:Agent>
      <dc:title>Matplotlib v3.3.2, https://matplotlib.org/</dc:title>
     </cc:Agent>
    </dc:creator>
   </cc:Work>
  </rdf:RDF>
 </metadata>
 <defs>
  <style type="text/css">*{stroke-linecap:butt;stroke-linejoin:round;}</style>
 </defs>
 <g id="figure_1">
  <g id="patch_1">
   <path d="M 0 180 
L 720 180 
L 720 0 
L 0 0 
z
" style="fill:none;"/>
  </g>
  <g id="axes_1">
   <g id="line2d_1">
    <path clip-path="url(#p63e2eef557)" d="M 90 157.5 
L 648 157.5 
" style="fill:none;stroke:#000000;stroke-linecap:square;stroke-width:0.5;"/>
   </g>
   <g id="patch_2">
    <path clip-path="url(#p63e2eef557)" d="M 121.274336 156.417641 
Q 118.658292 156.954142 115.829497 157.225511 
Q 113.000702 157.5 109.919759 157.5 
Q 100.732085 157.5 95.366043 155.466288 
Q 90 153.432576 90 149.954679 
Q 90 146.464305 95.366043 144.433712 
Q 100.732085 142.4 109.919759 142.4 
Q 113.000702 142.4 115.829497 142.674489 
Q 118.658292 142.945858 121.274336 143.482359 
L 121.274336 146.492378 
Q 118.634653 145.781202 116.073766 145.450568 
Q 113.51288 145.119934 110.684085 145.119934 
Q 105.609589 145.119934 102.701998 146.408159 
Q 99.802286 147.693266 99.802286 149.954679 
Q 99.802286 152.206734 102.701998 153.49496 
Q 105.609589 154.780066 110.684085 154.780066 
Q 113.51288 154.780066 116.073766 154.449432 
Q 118.634653 154.115679 121.274336 153.404503 
z
" style="fill:#0000ff;"/>
   </g>
   <g id="patch_3">
    <path clip-path="url(#p63e2eef557)" d="M 111.66376 136.8985 
L 99.636153 136.8985 
L 97.737057 142.4 
L 90 142.4 
L 101.049285 112.2 
L 110.225051 112.2 
L 121.274336 142.4 
L 113.543673 142.4 
z
M 101.554432 131.293442 
L 109.726299 131.293442 
L 105.64676 119.280754 
z
" style="fill:#008000;"/>
   </g>
   <g id="patch_4">
    <path clip-path="url(#p63e2eef557)" d="M 121.274336 104.002768 
Q 118.120268 108.101384 114.727893 110.16005 
Q 111.335518 112.2 107.718853 112.2 
Q 99.546312 112.2 94.773156 99.997728 
Q 90 87.795455 90 66.928073 
Q 90 45.817393 94.857265 33.708697 
Q 99.721538 21.6 108.18145 21.6 
Q 111.440653 21.6 114.426504 23.246932 
Q 117.419364 24.87515 120.068781 28.094154 
L 120.068781 46.154266 
Q 117.335256 42.018219 114.629766 39.978269 
Q 111.924277 37.919603 109.204769 37.919603 
Q 104.172279 37.919603 101.445762 45.44309 
Q 98.719246 52.947862 98.719246 66.928073 
Q 98.719246 80.777277 101.347636 88.338195 
Q 103.976026 95.880397 108.812263 95.880397 
Q 110.129963 95.880397 111.258418 95.449948 
Q 112.386874 95.000785 113.284031 94.065028 
L 113.284031 77.10911 
L 108.132386 77.10911 
L 108.132386 62.00599 
L 121.274336 62.00599 
z
" style="fill:#ffa600;"/>
   </g>
   <g id="patch_5">
    <path clip-path="url(#p63e2eef557)" d="M 154.19469 153.401384 
Q 151.040622 155.450692 147.648247 156.480025 
Q 144.255872 157.5 140.639207 157.5 
Q 132.466666 157.5 127.69351 151.398864 
Q 122.920354 145.297728 122.920354 134.864036 
Q 122.920354 124.308697 127.777619 118.254348 
Q 132.641892 112.2 141.101804 112.2 
Q 144.361007 112.2 147.346858 113.023466 
Q 150.339718 113.837575 152.989135 115.447077 
L 152.989135 124.477133 
Q 150.25561 122.40911 147.55012 121.389134 
Q 144.844631 120.359802 142.125123 120.359802 
Q 137.092633 120.359802 134.366116 124.121545 
Q 131.6396 127.873931 131.6396 134.864036 
Q 131.6396 141.788639 134.26799 145.569097 
Q 136.89638 149.340198 141.732617 149.340198 
Q 143.050317 149.340198 144.178772 149.124974 
Q 145.307228 148.900392 146.204385 148.432514 
L 146.204385 139.954555 
L 141.05274 139.954555 
L 141.05274 132.402995 
L 154.19469 132.402995 
z
" style="fill:#ffa600;"/>
   </g>
   <g id="patch_6">
    <path clip-path="url(#p63e2eef557)" d="M 144.584114 95.695499 
L 132.556507 95.695499 
L 130.657411 112.2 
L 122.920354 112.2 
L 133.969639 21.6 
L 143.145405 21.6 
L 154.19469 112.2 
L 146.464027 112.2 
z
M 134.474786 78.880326 
L 142.646653 78.880326 
L 138.567114 42.842263 
z
" style="fill:#008000;"/>
   </g>
   <g id="patch_7">
    <path clip-path="url(#p63e2eef557)" d="M 187.115044 156.417641 
Q 184.499 156.954142 181.670205 157.225511 
Q 178.84141 157.5 175.760467 157.5 
Q 166.572793 157.5 161.206751 155.466288 
Q 155.840708 153.432576 155.840708 149.954679 
Q 155.840708 146.464305 161.206751 144.433712 
Q 166.572793 142.4 175.760467 142.4 
Q 178.84141 142.4 181.670205 142.674489 
Q 184.499 142.945858 187.115044 143.482359 
L 187.115044 146.492378 
Q 184.475361 145.781202 181.914474 145.450568 
Q 179.353588 145.119934 176.524793 145.119934 
Q 171.450297 145.119934 168.542706 146.408159 
Q 165.642994 147.693266 165.642994 149.954679 
Q 165.642994 152.206734 168.542706 153.49496 
Q 171.450297 154.780066 176.524793 154.780066 
Q 179.353588 154.780066 181.914474 154.449432 
Q 184.475361 154.115679 187.115044 153.404503 
z
" style="fill:#0000ff;"/>
   </g>
   <g id="patch_8">
    <path clip-path="url(#p63e2eef557)" d="M 187.115044 141.033795 
Q 183.960976 141.716897 180.568601 142.060008 
Q 177.176226 142.4 173.559561 142.4 
Q 165.38702 142.4 160.613864 140.366288 
Q 155.840708 138.332576 155.840708 134.854679 
Q 155.840708 131.336232 160.697973 129.318116 
Q 165.562246 127.3 174.022158 127.3 
Q 177.281361 127.3 180.267212 127.574489 
Q 183.260072 127.845858 185.909489 128.382359 
L 185.909489 131.392378 
Q 183.175964 130.703037 180.470474 130.363045 
Q 177.764985 130.019934 175.045477 130.019934 
Q 170.012987 130.019934 167.28647 131.273848 
Q 164.559954 132.524644 164.559954 134.854679 
Q 164.559954 137.16288 167.188344 138.423032 
Q 169.816734 139.680066 174.652971 139.680066 
Q 175.970671 139.680066 177.099126 139.608325 
Q 178.227582 139.533464 179.124739 139.377505 
L 179.124739 136.551518 
L 173.973094 136.551518 
L 173.973094 134.034332 
L 187.115044 134.034332 
z
" style="fill:#ffa600;"/>
   </g>
   <g id="patch_9">
    <path clip-path="url(#p63e2eef557)" d="M 155.840708 21.6 
L 187.115044 21.6 
L 187.115044 42.214445 
L 175.863556 42.214445 
L 175.863556 127.3 
L 167.114015 127.3 
L 167.114015 42.214445 
L 155.840708 42.214445 
z
" style="fill:#ff0000;"/>
   </g>
   <g id="patch_10">
    <path clip-path="url(#p63e2eef557)" d="M 210.424822 154.74925 
L 198.397215 154.74925 
L 196.498119 157.5 
L 188.761062 157.5 
L 199.810347 142.4 
L 208.986113 142.4 
L 220.035398 157.5 
L 212.304735 157.5 
z
M 200.315494 151.946721 
L 208.487361 151.946721 
L 204.407821 145.940377 
z
" style="fill:#008000;"/>
   </g>
   <g id="patch_11">
    <path clip-path="url(#p63e2eef557)" d="M 220.035398 131.470357 
Q 216.88133 136.935179 213.488955 139.680066 
Q 210.09658 142.4 206.479915 142.4 
Q 198.307374 142.4 193.534218 126.130304 
Q 188.761062 109.860607 188.761062 82.03743 
Q 188.761062 53.889857 193.618327 37.744929 
Q 198.4826 21.6 206.942512 21.6 
Q 210.201715 21.6 213.187566 23.79591 
Q 216.180426 25.966866 218.829843 30.258872 
L 218.829843 54.339021 
Q 216.096318 48.824293 213.390828 46.104359 
Q 210.685339 43.359471 207.965831 43.359471 
Q 202.933341 43.359471 200.206824 53.390787 
Q 197.480308 63.397149 197.480308 82.03743 
Q 197.480308 100.503037 200.108698 110.584259 
Q 202.737088 120.640529 207.573325 120.640529 
Q 208.891025 120.640529 210.01948 120.066598 
Q 211.147936 119.467713 212.045093 118.220037 
L 212.045093 95.612146 
L 206.893448 95.612146 
L 206.893448 75.474654 
L 220.035398 75.474654 
z
" style="fill:#ffa600;"/>
   </g>
   <g id="patch_12">
    <path clip-path="url(#p63e2eef557)" d="M 243.345176 154.74925 
L 231.317569 154.74925 
L 229.418473 157.5 
L 221.681416 157.5 
L 232.730701 142.4 
L 241.906467 142.4 
L 252.955752 157.5 
L 245.225089 157.5 
z
M 233.235848 151.946721 
L 241.407715 151.946721 
L 237.328175 145.940377 
z
" style="fill:#008000;"/>
   </g>
   <g id="patch_13">
    <path clip-path="url(#p63e2eef557)" d="M 252.955752 131.470357 
Q 249.801684 136.935179 246.409309 139.680066 
Q 243.016934 142.4 239.400269 142.4 
Q 231.227728 142.4 226.454572 126.130304 
Q 221.681416 109.860607 221.681416 82.03743 
Q 221.681416 53.889857 226.538681 37.744929 
Q 231.402954 21.6 239.862866 21.6 
Q 243.122069 21.6 246.10792 23.79591 
Q 249.10078 25.966866 251.750197 30.258872 
L 251.750197 54.339021 
Q 249.016672 48.824293 246.311182 46.104359 
Q 243.605693 43.359471 240.886185 43.359471 
Q 235.853695 43.359471 233.127178 53.390787 
Q 230.400662 63.397149 230.400662 82.03743 
Q 230.400662 100.503037 233.029052 110.584259 
Q 235.657442 120.640529 240.493679 120.640529 
Q 241.811379 120.640529 242.939834 120.066598 
Q 244.06829 119.467713 244.965447 118.220037 
L 244.965447 95.612146 
L 239.813802 95.612146 
L 239.813802 75.474654 
L 252.955752 75.474654 
z
" style="fill:#ffa600;"/>
   </g>
   <g id="patch_14">
    <path clip-path="url(#p63e2eef557)" d="M 285.876106 153.170564 
Q 283.260062 155.316567 280.431267 156.402045 
Q 277.602472 157.5 274.521529 157.5 
Q 265.333855 157.5 259.967812 149.365152 
Q 254.60177 141.230304 254.60177 127.318715 
Q 254.60177 113.35722 259.967812 105.234848 
Q 265.333855 97.1 274.521529 97.1 
Q 277.602472 97.1 280.431267 98.197955 
Q 283.260062 99.283433 285.876106 101.429436 
L 285.876106 113.46951 
Q 283.236423 110.624809 280.675536 109.302272 
Q 278.11465 107.979736 275.285855 107.979736 
Q 270.211359 107.979736 267.303768 113.132638 
Q 264.404056 118.273063 264.404056 127.318715 
Q 264.404056 136.326937 267.303768 141.479839 
Q 270.211359 146.620264 275.285855 146.620264 
Q 278.11465 146.620264 280.675536 145.297728 
Q 283.236423 143.962714 285.876106 141.118013 
z
" style="fill:#0000ff;"/>
   </g>
   <g id="patch_15">
    <path clip-path="url(#p63e2eef557)" d="M 276.26553 83.346249 
L 264.237923 83.346249 
L 262.338827 97.1 
L 254.60177 97.1 
L 265.651055 21.6 
L 274.826821 21.6 
L 285.876106 97.1 
L 278.145443 97.1 
z
M 266.156202 69.333605 
L 274.328069 69.333605 
L 270.248529 39.301886 
z
" style="fill:#008000;"/>
   </g>
   <g id="patch_16">
    <path clip-path="url(#p63e2eef557)" d="M 318.79646 156.417641 
Q 316.180416 156.954142 313.351621 157.225511 
Q 310.522826 157.5 307.441883 157.5 
Q 298.254209 157.5 292.888166 155.466288 
Q 287.522124 153.432576 287.522124 149.954679 
Q 287.522124 146.464305 292.888166 144.433712 
Q 298.254209 142.4 307.441883 142.4 
Q 310.522826 142.4 313.351621 142.674489 
Q 316.180416 142.945858 318.79646 143.482359 
L 318.79646 146.492378 
Q 316.156777 145.781202 313.59589 145.450568 
Q 311.035004 145.119934 308.206209 145.119934 
Q 303.131713 145.119934 300.224122 146.408159 
Q 297.32441 147.693266 297.32441 149.954679 
Q 297.32441 152.206734 300.224122 153.49496 
Q 303.131713 154.780066 308.206209 154.780066 
Q 311.035004 154.780066 313.59589 154.449432 
Q 316.156777 154.115679 318.79646 153.404503 
z
" style="fill:#0000ff;"/>
   </g>
   <g id="patch_17">
    <path clip-path="url(#p63e2eef557)" d="M 318.79646 141.033795 
Q 315.642392 141.716897 312.250017 142.060008 
Q 308.857642 142.4 305.240977 142.4 
Q 297.068436 142.4 292.29528 140.366288 
Q 287.522124 138.332576 287.522124 134.854679 
Q 287.522124 131.336232 292.379389 129.318116 
Q 297.243662 127.3 305.703574 127.3 
Q 308.962777 127.3 311.948628 127.574489 
Q 314.941488 127.845858 317.590905 128.382359 
L 317.590905 131.392378 
Q 314.85738 130.703037 312.15189 130.363045 
Q 309.446401 130.019934 306.726893 130.019934 
Q 301.694403 130.019934 298.967886 131.273848 
Q 296.24137 132.524644 296.24137 134.854679 
Q 296.24137 137.16288 298.86976 138.423032 
Q 301.49815 139.680066 306.334387 139.680066 
Q 307.652087 139.680066 308.780542 139.608325 
Q 309.908998 139.533464 310.806155 139.377505 
L 310.806155 136.551518 
L 305.65451 136.551518 
L 305.65451 134.034332 
L 318.79646 134.034332 
z
" style="fill:#ffa600;"/>
   </g>
   <g id="patch_18">
    <path clip-path="url(#p63e2eef557)" d="M 287.522124 21.6 
L 318.79646 21.6 
L 318.79646 42.214445 
L 307.544972 42.214445 
L 307.544972 127.3 
L 298.795431 127.3 
L 298.795431 42.214445 
L 287.522124 42.214445 
z
" style="fill:#ff0000;"/>
   </g>
   <g id="patch_19">
    <path clip-path="url(#p63e2eef557)" d="M 351.716814 154.252923 
Q 349.10077 155.862425 346.271975 156.676534 
Q 343.44318 157.5 340.362237 157.5 
Q 331.174563 157.5 325.80852 151.398864 
Q 320.442478 145.297728 320.442478 134.864036 
Q 320.442478 124.392915 325.80852 118.301136 
Q 331.174563 112.2 340.362237 112.2 
Q 343.44318 112.2 346.271975 113.023466 
Q 349.10077 113.837575 351.716814 115.447077 
L 351.716814 124.477133 
Q 349.077131 122.343607 346.516244 121.351704 
Q 343.955358 120.359802 341.126563 120.359802 
Q 336.052067 120.359802 333.144476 124.224478 
Q 330.244764 128.079798 330.244764 134.864036 
Q 330.244764 141.620202 333.144476 145.484879 
Q 336.052067 149.340198 341.126563 149.340198 
Q 343.955358 149.340198 346.516244 148.348296 
Q 349.077131 147.347036 351.716814 145.21351 
z
" style="fill:#0000ff;"/>
   </g>
   <g id="patch_20">
    <path clip-path="url(#p63e2eef557)" d="M 342.106238 95.695499 
L 330.078631 95.695499 
L 328.179535 112.2 
L 320.442478 112.2 
L 331.491763 21.6 
L 340.667529 21.6 
L 351.716814 112.2 
L 343.986151 112.2 
z
M 331.99691 78.880326 
L 340.168777 78.880326 
L 336.089237 42.842263 
z
" style="fill:#008000;"/>
   </g>
   <g id="patch_21">
    <path clip-path="url(#p63e2eef557)" d="M 375.026592 154.74925 
L 362.998985 154.74925 
L 361.099889 157.5 
L 353.362832 157.5 
L 364.412117 142.4 
L 373.587883 142.4 
L 384.637168 157.5 
L 376.906505 157.5 
z
M 364.917264 151.946721 
L 373.089131 151.946721 
L 369.009591 145.940377 
z
" style="fill:#008000;"/>
   </g>
   <g id="patch_22">
    <path clip-path="url(#p63e2eef557)" d="M 384.637168 141.317641 
Q 382.021124 141.854142 379.192329 142.125511 
Q 376.363534 142.4 373.282591 142.4 
Q 364.094917 142.4 358.728874 140.366288 
Q 353.362832 138.332576 353.362832 134.854679 
Q 353.362832 131.364305 358.728874 129.333712 
Q 364.094917 127.3 373.282591 127.3 
Q 376.363534 127.3 379.192329 127.574489 
Q 382.021124 127.845858 384.637168 128.382359 
L 384.637168 131.392378 
Q 381.997485 130.681202 379.436598 130.350568 
Q 376.875712 130.019934 374.046917 130.019934 
Q 368.972421 130.019934 366.06483 131.308159 
Q 363.165118 132.593266 363.165118 134.854679 
Q 363.165118 137.106734 366.06483 138.39496 
Q 368.972421 139.680066 374.046917 139.680066 
Q 376.875712 139.680066 379.436598 139.349432 
Q 381.997485 139.015679 384.637168 138.304503 
z
" style="fill:#0000ff;"/>
   </g>
   <g id="patch_23">
    <path clip-path="url(#p63e2eef557)" d="M 353.362832 112.2 
L 384.637168 112.2 
L 384.637168 115.144921 
L 373.38568 115.144921 
L 373.38568 127.3 
L 364.636139 127.3 
L 364.636139 115.144921 
L 353.362832 115.144921 
z
" style="fill:#ff0000;"/>
   </g>
   <g id="patch_24">
    <path clip-path="url(#p63e2eef557)" d="M 384.637168 104.002768 
Q 381.4831 108.101384 378.090725 110.16005 
Q 374.698349 112.2 371.081685 112.2 
Q 362.909144 112.2 358.135988 99.997728 
Q 353.362832 87.795455 353.362832 66.928073 
Q 353.362832 45.817393 358.220097 33.708697 
Q 363.08437 21.6 371.544282 21.6 
Q 374.803485 21.6 377.789336 23.246932 
Q 380.782196 24.87515 383.431613 28.094154 
L 383.431613 46.154266 
Q 380.698088 42.018219 377.992598 39.978269 
Q 375.287109 37.919603 372.567601 37.919603 
Q 367.535111 37.919603 364.808594 45.44309 
Q 362.082078 52.947862 362.082078 66.928073 
Q 362.082078 80.777277 364.710468 88.338195 
Q 367.338858 95.880397 372.175095 95.880397 
Q 373.492795 95.880397 374.62125 95.449948 
Q 375.749705 95.000785 376.646863 94.065028 
L 376.646863 77.10911 
L 371.495218 77.10911 
L 371.495218 62.00599 
L 384.637168 62.00599 
z
" style="fill:#ffa600;"/>
   </g>
   <g id="patch_25">
    <path clip-path="url(#p63e2eef557)" d="M 417.557522 154.767589 
Q 414.403454 156.133795 411.011079 156.820017 
Q 407.618703 157.5 404.002039 157.5 
Q 395.829498 157.5 391.056342 153.432576 
Q 386.283186 149.365152 386.283186 142.409358 
Q 386.283186 135.372464 391.140451 131.336232 
Q 396.004724 127.3 404.464635 127.3 
Q 407.723839 127.3 410.70969 127.848977 
Q 413.70255 128.391717 416.351967 129.464718 
L 416.351967 135.484755 
Q 413.618442 134.106073 410.912952 133.42609 
Q 408.207463 132.739868 405.487955 132.739868 
Q 400.455465 132.739868 397.728948 135.247697 
Q 395.002432 137.749287 395.002432 142.409358 
Q 395.002432 147.025759 397.630822 149.546065 
Q 400.259212 152.060132 405.095449 152.060132 
Q 406.413149 152.060132 407.541604 151.916649 
Q 408.670059 151.766928 409.567217 151.455009 
L 409.567217 145.803037 
L 404.415572 145.803037 
L 404.415572 140.768663 
L 417.557522 140.768663 
z
" style="fill:#ffa600;"/>
   </g>
   <g id="patch_26">
    <path clip-path="url(#p63e2eef557)" d="M 386.283186 82 
L 417.557522 82 
L 417.557522 90.834762 
L 406.306034 90.834762 
L 406.306034 127.3 
L 397.556493 127.3 
L 397.556493 90.834762 
L 386.283186 90.834762 
z
" style="fill:#ff0000;"/>
   </g>
   <g id="patch_27">
    <path clip-path="url(#p63e2eef557)" d="M 417.557522 77.670564 
Q 414.941478 79.816567 412.112683 80.902045 
Q 409.283888 82 406.202945 82 
Q 397.015271 82 391.649228 73.865152 
Q 386.283186 65.730304 386.283186 51.818715 
Q 386.283186 37.85722 391.649228 29.734848 
Q 397.015271 21.6 406.202945 21.6 
Q 409.283888 21.6 412.112683 22.697955 
Q 414.941478 23.783433 417.557522 25.929436 
L 417.557522 37.96951 
Q 414.917839 35.124809 412.356952 33.802272 
Q 409.796066 32.479736 406.967271 32.479736 
Q 401.892775 32.479736 398.985184 37.632638 
Q 396.085472 42.773063 396.085472 51.818715 
Q 396.085472 60.826937 398.985184 65.979839 
Q 401.892775 71.120264 406.967271 71.120264 
Q 409.796066 71.120264 412.356952 69.797728 
Q 414.917839 68.462714 417.557522 65.618013 
z
" style="fill:#0000ff;"/>
   </g>
   <g id="patch_28">
    <path clip-path="url(#p63e2eef557)" d="M 450.477876 154.767589 
Q 447.323808 156.133795 443.931433 156.820017 
Q 440.539057 157.5 436.922393 157.5 
Q 428.749852 157.5 423.976696 153.432576 
Q 419.20354 149.365152 419.20354 142.409358 
Q 419.20354 135.372464 424.060805 131.336232 
Q 428.925078 127.3 437.384989 127.3 
Q 440.644193 127.3 443.630044 127.848977 
Q 446.622904 128.391717 449.272321 129.464718 
L 449.272321 135.484755 
Q 446.538796 134.106073 443.833306 133.42609 
Q 441.127817 132.739868 438.408309 132.739868 
Q 433.375819 132.739868 430.649302 135.247697 
Q 427.922786 137.749287 427.922786 142.409358 
Q 427.922786 147.025759 430.551176 149.546065 
Q 433.179565 152.060132 438.015803 152.060132 
Q 439.333503 152.060132 440.461958 151.916649 
Q 441.590413 151.766928 442.487571 151.455009 
L 442.487571 145.803037 
L 437.335926 145.803037 
L 437.335926 140.768663 
L 450.477876 140.768663 
z
" style="fill:#ffa600;"/>
   </g>
   <g id="patch_29">
    <path clip-path="url(#p63e2eef557)" d="M 450.477876 124.052923 
Q 447.861832 125.662425 445.033037 126.476534 
Q 442.204242 127.3 439.123298 127.3 
Q 429.935625 127.3 424.569582 121.198864 
Q 419.20354 115.097728 419.20354 104.664036 
Q 419.20354 94.192915 424.569582 88.101136 
Q 429.935625 82 439.123298 82 
Q 442.204242 82 445.033037 82.823466 
Q 447.861832 83.637575 450.477876 85.247077 
L 450.477876 94.277133 
Q 447.838193 92.143607 445.277306 91.151704 
Q 442.71642 90.159802 439.887625 90.159802 
Q 434.813129 90.159802 431.905538 94.024478 
Q 429.005826 97.879798 429.005826 104.664036 
Q 429.005826 111.420202 431.905538 115.284879 
Q 434.813129 119.140198 439.887625 119.140198 
Q 442.71642 119.140198 445.277306 118.148296 
Q 447.838193 117.147036 450.477876 115.01351 
z
" style="fill:#0000ff;"/>
   </g>
   <g id="patch_30">
    <path clip-path="url(#p63e2eef557)" d="M 440.8673 70.997 
L 428.839693 70.997 
L 426.940597 82 
L 419.20354 82 
L 430.252825 21.6 
L 439.428591 21.6 
L 450.477876 82 
L 442.747213 82 
z
M 430.757972 59.786884 
L 438.929839 59.786884 
L 434.850299 35.761509 
z
" style="fill:#008000;"/>
   </g>
   <g id="patch_31">
    <path clip-path="url(#p63e2eef557)" d="M 483.39823 156.133795 
Q 480.244162 156.816897 476.851787 157.160008 
Q 473.459411 157.5 469.842747 157.5 
Q 461.670206 157.5 456.89705 155.466288 
Q 452.123894 153.432576 452.123894 149.954679 
Q 452.123894 146.436232 456.981158 144.418116 
Q 461.845432 142.4 470.305343 142.4 
Q 473.564547 142.4 476.550398 142.674489 
Q 479.543258 142.945858 482.192675 143.482359 
L 482.192675 146.492378 
Q 479.45915 145.803037 476.75366 145.463045 
Q 474.048171 145.119934 471.328663 145.119934 
Q 466.296173 145.119934 463.569656 146.373848 
Q 460.84314 147.624644 460.84314 149.954679 
Q 460.84314 152.26288 463.471529 153.523032 
Q 466.099919 154.780066 470.936157 154.780066 
Q 472.253857 154.780066 473.382312 154.708325 
Q 474.510767 154.633464 475.407925 154.477505 
L 475.407925 151.651518 
L 470.25628 151.651518 
L 470.25628 149.134332 
L 483.39823 149.134332 
z
" style="fill:#ffa600;"/>
   </g>
   <g id="patch_32">
    <path clip-path="url(#p63e2eef557)" d="M 483.39823 140.235282 
Q 480.782186 141.308283 477.953391 141.851023 
Q 475.124596 142.4 472.043652 142.4 
Q 462.855979 142.4 457.489936 138.332576 
Q 452.123894 134.265152 452.123894 127.309358 
Q 452.123894 120.32861 457.489936 116.267424 
Q 462.855979 112.2 472.043652 112.2 
Q 475.124596 112.2 477.953391 112.748977 
Q 480.782186 113.291717 483.39823 114.364718 
L 483.39823 120.384755 
Q 480.758547 118.962404 478.19766 118.301136 
Q 475.636773 117.639868 472.807979 117.639868 
Q 467.733483 117.639868 464.825892 120.216319 
Q 461.92618 122.786532 461.92618 127.309358 
Q 461.92618 131.813468 464.825892 134.389919 
Q 467.733483 136.960132 472.807979 136.960132 
Q 475.636773 136.960132 478.19766 136.298864 
Q 480.758547 135.631357 483.39823 134.209006 
z
" style="fill:#0000ff;"/>
   </g>
   <g id="patch_33">
    <path clip-path="url(#p63e2eef557)" d="M 452.123894 82 
L 483.39823 82 
L 483.39823 87.889841 
L 472.146742 87.889841 
L 472.146742 112.2 
L 463.397201 112.2 
L 463.397201 87.889841 
L 452.123894 87.889841 
z
" style="fill:#ff0000;"/>
   </g>
   <g id="patch_34">
    <path clip-path="url(#p63e2eef557)" d="M 473.787654 70.997 
L 461.760047 70.997 
L 459.860951 82 
L 452.123894 82 
L 463.173179 21.6 
L 472.348945 21.6 
L 483.39823 82 
L 475.667567 82 
z
M 463.678326 59.786884 
L 471.850193 59.786884 
L 467.770653 35.761509 
z
" style="fill:#008000;"/>
   </g>
   <g id="patch_35">
    <path clip-path="url(#p63e2eef557)" d="M 516.318584 156.133795 
Q 513.164516 156.816897 509.772141 157.160008 
Q 506.379765 157.5 502.763101 157.5 
Q 494.59056 157.5 489.817404 155.466288 
Q 485.044248 153.432576 485.044248 149.954679 
Q 485.044248 146.436232 489.901512 144.418116 
Q 494.765786 142.4 503.225697 142.4 
Q 506.484901 142.4 509.470752 142.674489 
Q 512.463612 142.945858 515.113029 143.482359 
L 515.113029 146.492378 
Q 512.379504 145.803037 509.674014 145.463045 
Q 506.968525 145.119934 504.249017 145.119934 
Q 499.216527 145.119934 496.49001 146.373848 
Q 493.763493 147.624644 493.763493 149.954679 
Q 493.763493 152.26288 496.391883 153.523032 
Q 499.020273 154.780066 503.856511 154.780066 
Q 505.174211 154.780066 506.302666 154.708325 
Q 507.431121 154.633464 508.328279 154.477505 
L 508.328279 151.651518 
L 503.176634 151.651518 
L 503.176634 149.134332 
L 516.318584 149.134332 
z
" style="fill:#ffa600;"/>
   </g>
   <g id="patch_36">
    <path clip-path="url(#p63e2eef557)" d="M 485.044248 127.3 
L 516.318584 127.3 
L 516.318584 130.244921 
L 505.067096 130.244921 
L 505.067096 142.4 
L 496.317555 142.4 
L 496.317555 130.244921 
L 485.044248 130.244921 
z
" style="fill:#ff0000;"/>
   </g>
   <g id="patch_37">
    <path clip-path="url(#p63e2eef557)" d="M 506.708008 108.044749 
L 494.680401 108.044749 
L 492.781305 127.3 
L 485.044248 127.3 
L 496.093533 21.6 
L 505.269299 21.6 
L 516.318584 127.3 
L 508.587921 127.3 
z
M 496.59868 88.427047 
L 504.770547 88.427047 
L 500.691007 46.38264 
z
" style="fill:#008000;"/>
   </g>
   <g id="patch_38">
    <path clip-path="url(#p63e2eef557)" d="M 549.238938 156.133795 
Q 546.08487 156.816897 542.692495 157.160008 
Q 539.300119 157.5 535.683455 157.5 
Q 527.510914 157.5 522.737758 155.466288 
Q 517.964602 153.432576 517.964602 149.954679 
Q 517.964602 146.436232 522.821866 144.418116 
Q 527.68614 142.4 536.146051 142.4 
Q 539.405255 142.4 542.391106 142.674489 
Q 545.383966 142.945858 548.033383 143.482359 
L 548.033383 146.492378 
Q 545.299858 145.803037 542.594368 145.463045 
Q 539.888879 145.119934 537.169371 145.119934 
Q 532.136881 145.119934 529.410364 146.373848 
Q 526.683847 147.624644 526.683847 149.954679 
Q 526.683847 152.26288 529.312237 153.523032 
Q 531.940627 154.780066 536.776865 154.780066 
Q 538.094565 154.780066 539.22302 154.708325 
Q 540.351475 154.633464 541.248633 154.477505 
L 541.248633 151.651518 
L 536.096988 151.651518 
L 536.096988 149.134332 
L 549.238938 149.134332 
z
" style="fill:#ffa600;"/>
   </g>
   <g id="patch_39">
    <path clip-path="url(#p63e2eef557)" d="M 517.964602 97.1 
L 549.238938 97.1 
L 549.238938 105.934762 
L 537.98745 105.934762 
L 537.98745 142.4 
L 529.237909 142.4 
L 529.237909 105.934762 
L 517.964602 105.934762 
z
" style="fill:#ff0000;"/>
   </g>
   <g id="patch_40">
    <path clip-path="url(#p63e2eef557)" d="M 539.628362 83.346249 
L 527.600755 83.346249 
L 525.701659 97.1 
L 517.964602 97.1 
L 529.013887 21.6 
L 538.189653 21.6 
L 549.238938 97.1 
L 541.508275 97.1 
z
M 529.519034 69.333605 
L 537.690901 69.333605 
L 533.611361 39.301886 
z
" style="fill:#008000;"/>
   </g>
   <g id="patch_41">
    <path clip-path="url(#p63e2eef557)" d="M 582.159292 156.417641 
Q 579.543248 156.954142 576.714453 157.225511 
Q 573.885658 157.5 570.804714 157.5 
Q 561.617041 157.5 556.250998 155.466288 
Q 550.884956 153.432576 550.884956 149.954679 
Q 550.884956 146.464305 556.250998 144.433712 
Q 561.617041 142.4 570.804714 142.4 
Q 573.885658 142.4 576.714453 142.674489 
Q 579.543248 142.945858 582.159292 143.482359 
L 582.159292 146.492378 
Q 579.519609 145.781202 576.958722 145.450568 
Q 574.397835 145.119934 571.569041 145.119934 
Q 566.494545 145.119934 563.586954 146.408159 
Q 560.687242 147.693266 560.687242 149.954679 
Q 560.687242 152.206734 563.586954 153.49496 
Q 566.494545 154.780066 571.569041 154.780066 
Q 574.397835 154.780066 576.958722 154.449432 
Q 579.519609 154.115679 582.159292 153.404503 
z
" style="fill:#0000ff;"/>
   </g>
   <g id="patch_42">
    <path clip-path="url(#p63e2eef557)" d="M 582.159292 138.301384 
Q 579.005224 140.350692 575.612849 141.380025 
Q 572.220473 142.4 568.603809 142.4 
Q 560.431268 142.4 555.658112 136.298864 
Q 550.884956 130.197728 550.884956 119.764036 
Q 550.884956 109.208697 555.74222 103.154348 
Q 560.606494 97.1 569.066405 97.1 
Q 572.325609 97.1 575.31146 97.923466 
Q 578.30432 98.737575 580.953737 100.347077 
L 580.953737 109.377133 
Q 578.220212 107.30911 575.514722 106.289134 
Q 572.809233 105.259802 570.089725 105.259802 
Q 565.057235 105.259802 562.330718 109.021545 
Q 559.604201 112.773931 559.604201 119.764036 
Q 559.604201 126.688639 562.232591 130.469097 
Q 564.860981 134.240198 569.697219 134.240198 
Q 571.014919 134.240198 572.143374 134.024974 
Q 573.271829 133.800392 574.168986 133.332514 
L 574.168986 124.854555 
L 569.017342 124.854555 
L 569.017342 117.302995 
L 582.159292 117.302995 
z
" style="fill:#ffa600;"/>
   </g>
   <g id="patch_43">
    <path clip-path="url(#p63e2eef557)" d="M 572.548716 83.346249 
L 560.521109 83.346249 
L 558.622013 97.1 
L 550.884956 97.1 
L 561.934241 21.6 
L 571.110007 21.6 
L 582.159292 97.1 
L 574.428629 97.1 
z
M 562.439387 69.333605 
L 570.611255 69.333605 
L 566.531715 39.301886 
z
" style="fill:#008000;"/>
   </g>
   <g id="patch_44">
    <path clip-path="url(#p63e2eef557)" d="M 615.079646 156.133795 
Q 611.925578 156.816897 608.533203 157.160008 
Q 605.140827 157.5 601.524163 157.5 
Q 593.351622 157.5 588.578466 155.466288 
Q 583.80531 153.432576 583.80531 149.954679 
Q 583.80531 146.436232 588.662574 144.418116 
Q 593.526848 142.4 601.986759 142.4 
Q 605.245963 142.4 608.231814 142.674489 
Q 611.224674 142.945858 613.874091 143.482359 
L 613.874091 146.492378 
Q 611.140566 145.803037 608.435076 145.463045 
Q 605.729587 145.119934 603.010079 145.119934 
Q 597.977589 145.119934 595.251072 146.373848 
Q 592.524555 147.624644 592.524555 149.954679 
Q 592.524555 152.26288 595.152945 153.523032 
Q 597.781335 154.780066 602.617573 154.780066 
Q 603.935272 154.780066 605.063728 154.708325 
Q 606.192183 154.633464 607.08934 154.477505 
L 607.08934 151.651518 
L 601.937696 151.651518 
L 601.937696 149.134332 
L 615.079646 149.134332 
z
" style="fill:#ffa600;"/>
   </g>
   <g id="patch_45">
    <path clip-path="url(#p63e2eef557)" d="M 583.80531 127.3 
L 615.079646 127.3 
L 615.079646 130.244921 
L 603.828158 130.244921 
L 603.828158 142.4 
L 595.078617 142.4 
L 595.078617 130.244921 
L 583.80531 130.244921 
z
" style="fill:#ff0000;"/>
   </g>
   <g id="patch_46">
    <path clip-path="url(#p63e2eef557)" d="M 615.079646 125.135282 
Q 612.463602 126.208283 609.634807 126.751023 
Q 606.806012 127.3 603.725068 127.3 
Q 594.537395 127.3 589.171352 123.232576 
Q 583.80531 119.165152 583.80531 112.209358 
Q 583.80531 105.22861 589.171352 101.167424 
Q 594.537395 97.1 603.725068 97.1 
Q 606.806012 97.1 609.634807 97.648977 
Q 612.463602 98.191717 615.079646 99.264718 
L 615.079646 105.284755 
Q 612.439963 103.862404 609.879076 103.201136 
Q 607.318189 102.539868 604.489395 102.539868 
Q 599.414899 102.539868 596.507308 105.116319 
Q 593.607596 107.686532 593.607596 112.209358 
Q 593.607596 116.713468 596.507308 119.289919 
Q 599.414899 121.860132 604.489395 121.860132 
Q 607.318189 121.860132 609.879076 121.198864 
Q 612.439963 120.531357 615.079646 119.109006 
z
" style="fill:#0000ff;"/>
   </g>
   <g id="patch_47">
    <path clip-path="url(#p63e2eef557)" d="M 605.46907 83.346249 
L 593.441463 83.346249 
L 591.542367 97.1 
L 583.80531 97.1 
L 594.854595 21.6 
L 604.030361 21.6 
L 615.079646 97.1 
L 607.348983 97.1 
z
M 595.359741 69.333605 
L 603.531609 69.333605 
L 599.452069 39.301886 
z
" style="fill:#008000;"/>
   </g>
   <g id="patch_48">
    <path clip-path="url(#p63e2eef557)" d="M 638.389424 149.24775 
L 626.361817 149.24775 
L 624.462721 157.5 
L 616.725664 157.5 
L 627.774949 112.2 
L 636.950715 112.2 
L 648 157.5 
L 640.269337 157.5 
z
M 628.280095 140.840163 
L 636.451963 140.840163 
L 632.372423 122.821132 
z
" style="fill:#008000;"/>
   </g>
   <g id="patch_49">
    <path clip-path="url(#p63e2eef557)" d="M 648 108.101384 
Q 644.845932 110.150692 641.453557 111.180025 
Q 638.061181 112.2 634.444517 112.2 
Q 626.271976 112.2 621.49882 106.098864 
Q 616.725664 99.997728 616.725664 89.564036 
Q 616.725664 79.008697 621.582928 72.954348 
Q 626.447202 66.9 634.907113 66.9 
Q 638.166317 66.9 641.152168 67.723466 
Q 644.145028 68.537575 646.794445 70.147077 
L 646.794445 79.177133 
Q 644.06092 77.10911 641.35543 76.089134 
Q 638.649941 75.059802 635.930433 75.059802 
Q 630.897943 75.059802 628.171426 78.821545 
Q 625.444909 82.573931 625.444909 89.564036 
Q 625.444909 96.488639 628.073299 100.269097 
Q 630.701689 104.040198 635.537927 104.040198 
Q 636.855626 104.040198 637.984082 103.824974 
Q 639.112537 103.600392 640.009694 103.132514 
L 640.009694 94.654555 
L 634.85805 94.654555 
L 634.85805 87.102995 
L 648 87.102995 
z
" style="fill:#ffa600;"/>
   </g>
   <g id="patch_50">
    <path clip-path="url(#p63e2eef557)" d="M 616.725664 21.6 
L 648 21.6 
L 648 30.434762 
L 636.748512 30.434762 
L 636.748512 66.9 
L 627.998971 66.9 
L 627.998971 30.434762 
L 616.725664 30.434762 
z
" style="fill:#ff0000;"/>
   </g>
  </g>
 </g>
 <defs>
  <clipPath id="p63e2eef557">
   <rect height="135.9" width="558" x="90" y="21.6"/>
  </clipPath>
 </defs>
</svg>
