<?xml version="1.0" encoding="utf-8" standalone="no"?>
<!DOCTYPE svg PUBLIC "-//W3C//DTD SVG 1.1//EN"
  "http://www.w3.org/Graphics/SVG/1.1/DTD/svg11.dtd">
<!-- Created with matplotlib (https://matplotlib.org/) -->
<svg height="180pt" version="1.1" viewBox="0 0 720 180" width="720pt" xmlns="http://www.w3.org/2000/svg" xmlns:xlink="http://www.w3.org/1999/xlink">
 <metadata>
  <rdf:RDF xmlns:cc="http://creativecommons.org/ns#" xmlns:dc="http://purl.org/dc/elements/1.1/" xmlns:rdf="http://www.w3.org/1999/02/22-rdf-syntax-ns#">
   <cc:Work>
    <dc:type rdf:resource="http://purl.org/dc/dcmitype/StillImage"/>
    <dc:date>2021-08-04T23:33:38.189888</dc:date>
    <dc:format>image/svg+xml</dc:format>
    <dc:creator>
     <cc:Agent>
      <dc:title>Matplotlib v3.3.2, https://matplotlib.org/</dc:title>
     </cc:Agent>
    </dc:creator>
   </cc:Work>
  </rdf:RDF>
 </metadata>
 <defs>
  <style type="text/css">*{stroke-linecap:butt;stroke-linejoin:round;}</style>
 </defs>
 <g id="figure_1">
  <g id="patch_1">
   <path d="M 0 180 
L 720 180 
L 720 0 
L 0 0 
z
" style="fill:none;"/>
  </g>
  <g id="axes_1">
   <g id="line2d_1">
    <path clip-path="url(#pc2bcf020cb)" d="M 90 157.5 
L 648 157.5 
" style="fill:none;stroke:#000000;stroke-linecap:square;stroke-width:0.5;"/>
   </g>
   <g id="patch_2">
    <path clip-path="url(#pc2bcf020cb)" d="M 90 142.4 
L 121.274336 142.4 
L 121.274336 145.344921 
L 110.022848 145.344921 
L 110.022848 157.5 
L 101.273307 157.5 
L 101.273307 145.344921 
L 90 145.344921 
z
" style="fill:#ff0000;"/>
   </g>
   <g id="patch_3">
    <path clip-path="url(#pc2bcf020cb)" d="M 111.66376 134.14775 
L 99.636153 134.14775 
L 97.737057 142.4 
L 90 142.4 
L 101.049285 97.1 
L 110.225051 97.1 
L 121.274336 142.4 
L 113.543673 142.4 
z
M 101.554432 125.740163 
L 109.726299 125.740163 
L 105.64676 107.721132 
z
" style="fill:#008000;"/>
   </g>
   <g id="patch_4">
    <path clip-path="url(#pc2bcf020cb)" d="M 121.274336 93.001384 
Q 118.120268 95.050692 114.727893 96.080025 
Q 111.335518 97.1 107.718853 97.1 
Q 99.546312 97.1 94.773156 90.998864 
Q 90 84.897728 90 74.464036 
Q 90 63.908697 94.857265 57.854348 
Q 99.721538 51.8 108.18145 51.8 
Q 111.440653 51.8 114.426504 52.623466 
Q 117.419364 53.437575 120.068781 55.047077 
L 120.068781 64.077133 
Q 117.335256 62.00911 114.629766 60.989134 
Q 111.924277 59.959802 109.204769 59.959802 
Q 104.172279 59.959802 101.445762 63.721545 
Q 98.719246 67.473931 98.719246 74.464036 
Q 98.719246 81.388639 101.347636 85.169097 
Q 103.976026 88.940198 108.812263 88.940198 
Q 110.129963 88.940198 111.258418 88.724974 
Q 112.386874 88.500392 113.284031 88.032514 
L 113.284031 79.554555 
L 108.132386 79.554555 
L 108.132386 72.002995 
L 121.274336 72.002995 
z
" style="fill:#ffa600;"/>
   </g>
   <g id="patch_5">
    <path clip-path="url(#pc2bcf020cb)" d="M 154.19469 153.401384 
Q 151.040622 155.450692 147.648247 156.480025 
Q 144.255872 157.5 140.639207 157.5 
Q 132.466666 157.5 127.69351 151.398864 
Q 122.920354 145.297728 122.920354 134.864036 
Q 122.920354 124.308697 127.777619 118.254348 
Q 132.641892 112.2 141.101804 112.2 
Q 144.361007 112.2 147.346858 113.023466 
Q 150.339718 113.837575 152.989135 115.447077 
L 152.989135 124.477133 
Q 150.25561 122.40911 147.55012 121.389134 
Q 144.844631 120.359802 142.125123 120.359802 
Q 137.092633 120.359802 134.366116 124.121545 
Q 131.6396 127.873931 131.6396 134.864036 
Q 131.6396 141.788639 134.26799 145.569097 
Q 136.89638 149.340198 141.732617 149.340198 
Q 143.050317 149.340198 144.178772 149.124974 
Q 145.307228 148.900392 146.204385 148.432514 
L 146.204385 139.954555 
L 141.05274 139.954555 
L 141.05274 132.402995 
L 154.19469 132.402995 
z
" style="fill:#ffa600;"/>
   </g>
   <g id="patch_6">
    <path clip-path="url(#pc2bcf020cb)" d="M 144.584114 101.197 
L 132.556507 101.197 
L 130.657411 112.2 
L 122.920354 112.2 
L 133.969639 51.8 
L 143.145405 51.8 
L 154.19469 112.2 
L 146.464027 112.2 
z
M 134.474786 89.986884 
L 142.646653 89.986884 
L 138.567114 65.961509 
z
" style="fill:#008000;"/>
   </g>
   <g id="patch_7">
    <path clip-path="url(#pc2bcf020cb)" d="M 177.504468 138.244749 
L 165.476861 138.244749 
L 163.577765 157.5 
L 155.840708 157.5 
L 166.889993 51.8 
L 176.065759 51.8 
L 187.115044 157.5 
L 179.384381 157.5 
z
M 167.39514 118.627047 
L 175.567007 118.627047 
L 171.487467 76.58264 
z
" style="fill:#008000;"/>
   </g>
   <g id="patch_8">
    <path clip-path="url(#pc2bcf020cb)" d="M 188.761062 51.8 
L 220.035398 51.8 
L 220.035398 72.414445 
L 208.78391 72.414445 
L 208.78391 157.5 
L 200.034369 157.5 
L 200.034369 72.414445 
L 188.761062 72.414445 
z
" style="fill:#ff0000;"/>
   </g>
   <g id="patch_9">
    <path clip-path="url(#pc2bcf020cb)" d="M 221.681416 142.4 
L 252.955752 142.4 
L 252.955752 145.344921 
L 241.704264 145.344921 
L 241.704264 157.5 
L 232.954723 157.5 
L 232.954723 145.344921 
L 221.681416 145.344921 
z
" style="fill:#ff0000;"/>
   </g>
   <g id="patch_10">
    <path clip-path="url(#pc2bcf020cb)" d="M 252.955752 134.202768 
Q 249.801684 138.301384 246.409309 140.36005 
Q 243.016934 142.4 239.400269 142.4 
Q 231.227728 142.4 226.454572 130.197728 
Q 221.681416 117.995455 221.681416 97.128073 
Q 221.681416 76.017393 226.538681 63.908697 
Q 231.402954 51.8 239.862866 51.8 
Q 243.122069 51.8 246.10792 53.446932 
Q 249.10078 55.07515 251.750197 58.294154 
L 251.750197 76.354266 
Q 249.016672 72.218219 246.311182 70.178269 
Q 243.605693 68.119603 240.886185 68.119603 
Q 235.853695 68.119603 233.127178 75.64309 
Q 230.400662 83.147862 230.400662 97.128073 
Q 230.400662 110.977277 233.029052 118.538195 
Q 235.657442 126.080397 240.493679 126.080397 
Q 241.811379 126.080397 242.939834 125.649948 
Q 244.06829 125.200785 244.965447 124.265028 
L 244.965447 107.30911 
L 239.813802 107.30911 
L 239.813802 92.20599 
L 252.955752 92.20599 
z
" style="fill:#ffa600;"/>
   </g>
   <g id="patch_11">
    <path clip-path="url(#pc2bcf020cb)" d="M 285.876106 156.417641 
Q 283.260062 156.954142 280.431267 157.225511 
Q 277.602472 157.5 274.521529 157.5 
Q 265.333855 157.5 259.967812 155.466288 
Q 254.60177 153.432576 254.60177 149.954679 
Q 254.60177 146.464305 259.967812 144.433712 
Q 265.333855 142.4 274.521529 142.4 
Q 277.602472 142.4 280.431267 142.674489 
Q 283.260062 142.945858 285.876106 143.482359 
L 285.876106 146.492378 
Q 283.236423 145.781202 280.675536 145.450568 
Q 278.11465 145.119934 275.285855 145.119934 
Q 270.211359 145.119934 267.303768 146.408159 
Q 264.404056 147.693266 264.404056 149.954679 
Q 264.404056 152.206734 267.303768 153.49496 
Q 270.211359 154.780066 275.285855 154.780066 
Q 278.11465 154.780066 280.675536 154.449432 
Q 283.236423 154.115679 285.876106 153.404503 
z
" style="fill:#0000ff;"/>
   </g>
   <g id="patch_12">
    <path clip-path="url(#pc2bcf020cb)" d="M 285.876106 141.033795 
Q 282.722038 141.716897 279.329663 142.060008 
Q 275.937288 142.4 272.320623 142.4 
Q 264.148082 142.4 259.374926 140.366288 
Q 254.60177 138.332576 254.60177 134.854679 
Q 254.60177 131.336232 259.459035 129.318116 
Q 264.323308 127.3 272.78322 127.3 
Q 276.042423 127.3 279.028274 127.574489 
Q 282.021134 127.845858 284.670551 128.382359 
L 284.670551 131.392378 
Q 281.937026 130.703037 279.231536 130.363045 
Q 276.526047 130.019934 273.806539 130.019934 
Q 268.774049 130.019934 266.047532 131.273848 
Q 263.321016 132.524644 263.321016 134.854679 
Q 263.321016 137.16288 265.949406 138.423032 
Q 268.577796 139.680066 273.414033 139.680066 
Q 274.731733 139.680066 275.860188 139.608325 
Q 276.988644 139.533464 277.885801 139.377505 
L 277.885801 136.551518 
L 272.734156 136.551518 
L 272.734156 134.034332 
L 285.876106 134.034332 
z
" style="fill:#ffa600;"/>
   </g>
   <g id="patch_13">
    <path clip-path="url(#pc2bcf020cb)" d="M 254.60177 51.8 
L 285.876106 51.8 
L 285.876106 66.524604 
L 274.624618 66.524604 
L 274.624618 127.3 
L 265.875077 127.3 
L 265.875077 66.524604 
L 254.60177 66.524604 
z
" style="fill:#ff0000;"/>
   </g>
   <g id="patch_14">
    <path clip-path="url(#pc2bcf020cb)" d="M 287.522124 142.4 
L 318.79646 142.4 
L 318.79646 145.344921 
L 307.544972 145.344921 
L 307.544972 157.5 
L 298.795431 157.5 
L 298.795431 145.344921 
L 287.522124 145.344921 
z
" style="fill:#ff0000;"/>
   </g>
   <g id="patch_15">
    <path clip-path="url(#pc2bcf020cb)" d="M 309.185884 125.895499 
L 297.158277 125.895499 
L 295.259181 142.4 
L 287.522124 142.4 
L 298.571409 51.8 
L 307.747175 51.8 
L 318.79646 142.4 
L 311.065797 142.4 
z
M 299.076556 109.080326 
L 307.248423 109.080326 
L 303.168883 73.042263 
z
" style="fill:#008000;"/>
   </g>
   <g id="patch_16">
    <path clip-path="url(#pc2bcf020cb)" d="M 351.716814 153.401384 
Q 348.562746 155.450692 345.170371 156.480025 
Q 341.777996 157.5 338.161331 157.5 
Q 329.98879 157.5 325.215634 151.398864 
Q 320.442478 145.297728 320.442478 134.864036 
Q 320.442478 124.308697 325.299743 118.254348 
Q 330.164016 112.2 338.623928 112.2 
Q 341.883131 112.2 344.868982 113.023466 
Q 347.861842 113.837575 350.511259 115.447077 
L 350.511259 124.477133 
Q 347.777734 122.40911 345.072244 121.389134 
Q 342.366755 120.359802 339.647247 120.359802 
Q 334.614757 120.359802 331.88824 124.121545 
Q 329.161724 127.873931 329.161724 134.864036 
Q 329.161724 141.788639 331.790114 145.569097 
Q 334.418504 149.340198 339.254741 149.340198 
Q 340.572441 149.340198 341.700896 149.124974 
Q 342.829351 148.900392 343.726509 148.432514 
L 343.726509 139.954555 
L 338.574864 139.954555 
L 338.574864 132.402995 
L 351.716814 132.402995 
z
" style="fill:#ffa600;"/>
   </g>
   <g id="patch_17">
    <path clip-path="url(#pc2bcf020cb)" d="M 342.106238 95.695499 
L 330.078631 95.695499 
L 328.179535 112.2 
L 320.442478 112.2 
L 331.491763 21.6 
L 340.667529 21.6 
L 351.716814 112.2 
L 343.986151 112.2 
z
M 331.99691 78.880326 
L 340.168777 78.880326 
L 336.089237 42.842263 
z
" style="fill:#008000;"/>
   </g>
   <g id="patch_18">
    <path clip-path="url(#pc2bcf020cb)" d="M 375.026592 132.743249 
L 362.998985 132.743249 
L 361.099889 157.5 
L 353.362832 157.5 
L 364.412117 21.6 
L 373.587883 21.6 
L 384.637168 157.5 
L 376.906505 157.5 
z
M 364.917264 107.520489 
L 373.089131 107.520489 
L 369.009591 53.463395 
z
" style="fill:#008000;"/>
   </g>
   <g id="patch_19">
    <path clip-path="url(#pc2bcf020cb)" d="M 386.283186 21.6 
L 417.557522 21.6 
L 417.557522 48.104286 
L 406.306034 48.104286 
L 406.306034 157.5 
L 397.556493 157.5 
L 397.556493 48.104286 
L 386.283186 48.104286 
z
" style="fill:#ff0000;"/>
   </g>
   <g id="patch_20">
    <path clip-path="url(#pc2bcf020cb)" d="M 450.477876 145.204152 
Q 447.323808 151.352076 443.931433 154.440074 
Q 440.539057 157.5 436.922393 157.5 
Q 428.749852 157.5 423.976696 139.196592 
Q 419.20354 120.893183 419.20354 89.592109 
Q 419.20354 57.92609 424.060805 39.763045 
Q 428.925078 21.6 437.384989 21.6 
Q 440.644193 21.6 443.630044 24.070399 
Q 446.622904 26.512725 449.272321 31.341231 
L 449.272321 58.431398 
Q 446.538796 52.227329 443.833306 49.167403 
Q 441.127817 46.079405 438.408309 46.079405 
Q 433.375819 46.079405 430.649302 57.364635 
Q 427.922786 68.621793 427.922786 89.592109 
Q 427.922786 110.365916 430.551176 121.707292 
Q 433.179565 133.020595 438.015803 133.020595 
Q 439.333503 133.020595 440.461958 132.374923 
Q 441.590413 131.701177 442.487571 130.297542 
L 442.487571 104.863665 
L 437.335926 104.863665 
L 437.335926 82.208986 
L 450.477876 82.208986 
z
" style="fill:#ffa600;"/>
   </g>
   <g id="patch_21">
    <path clip-path="url(#pc2bcf020cb)" d="M 483.39823 154.767589 
Q 480.244162 156.133795 476.851787 156.820017 
Q 473.459411 157.5 469.842747 157.5 
Q 461.670206 157.5 456.89705 153.432576 
Q 452.123894 149.365152 452.123894 142.409358 
Q 452.123894 135.372464 456.981158 131.336232 
Q 461.845432 127.3 470.305343 127.3 
Q 473.564547 127.3 476.550398 127.848977 
Q 479.543258 128.391717 482.192675 129.464718 
L 482.192675 135.484755 
Q 479.45915 134.106073 476.75366 133.42609 
Q 474.048171 132.739868 471.328663 132.739868 
Q 466.296173 132.739868 463.569656 135.247697 
Q 460.84314 137.749287 460.84314 142.409358 
Q 460.84314 147.025759 463.471529 149.546065 
Q 466.099919 152.060132 470.936157 152.060132 
Q 472.253857 152.060132 473.382312 151.916649 
Q 474.510767 151.766928 475.407925 151.455009 
L 475.407925 145.803037 
L 470.25628 145.803037 
L 470.25628 140.768663 
L 483.39823 140.768663 
z
" style="fill:#ffa600;"/>
   </g>
   <g id="patch_22">
    <path clip-path="url(#pc2bcf020cb)" d="M 452.123894 97.1 
L 483.39823 97.1 
L 483.39823 102.989841 
L 472.146742 102.989841 
L 472.146742 127.3 
L 463.397201 127.3 
L 463.397201 102.989841 
L 452.123894 102.989841 
z
" style="fill:#ff0000;"/>
   </g>
   <g id="patch_23">
    <path clip-path="url(#pc2bcf020cb)" d="M 473.787654 83.346249 
L 461.760047 83.346249 
L 459.860951 97.1 
L 452.123894 97.1 
L 463.173179 21.6 
L 472.348945 21.6 
L 483.39823 97.1 
L 475.667567 97.1 
z
M 463.678326 69.333605 
L 471.850193 69.333605 
L 467.770653 39.301886 
z
" style="fill:#008000;"/>
   </g>
   <g id="patch_24">
    <path clip-path="url(#pc2bcf020cb)" d="M 516.318584 156.417641 
Q 513.70254 156.954142 510.873745 157.225511 
Q 508.04495 157.5 504.964006 157.5 
Q 495.776333 157.5 490.41029 155.466288 
Q 485.044248 153.432576 485.044248 149.954679 
Q 485.044248 146.464305 490.41029 144.433712 
Q 495.776333 142.4 504.964006 142.4 
Q 508.04495 142.4 510.873745 142.674489 
Q 513.70254 142.945858 516.318584 143.482359 
L 516.318584 146.492378 
Q 513.678901 145.781202 511.118014 145.450568 
Q 508.557127 145.119934 505.728333 145.119934 
Q 500.653837 145.119934 497.746246 146.408159 
Q 494.846534 147.693266 494.846534 149.954679 
Q 494.846534 152.206734 497.746246 153.49496 
Q 500.653837 154.780066 505.728333 154.780066 
Q 508.557127 154.780066 511.118014 154.449432 
Q 513.678901 154.115679 516.318584 153.404503 
z
" style="fill:#0000ff;"/>
   </g>
   <g id="patch_25">
    <path clip-path="url(#pc2bcf020cb)" d="M 516.318584 141.033795 
Q 513.164516 141.716897 509.772141 142.060008 
Q 506.379765 142.4 502.763101 142.4 
Q 494.59056 142.4 489.817404 140.366288 
Q 485.044248 138.332576 485.044248 134.854679 
Q 485.044248 131.336232 489.901512 129.318116 
Q 494.765786 127.3 503.225697 127.3 
Q 506.484901 127.3 509.470752 127.574489 
Q 512.463612 127.845858 515.113029 128.382359 
L 515.113029 131.392378 
Q 512.379504 130.703037 509.674014 130.363045 
Q 506.968525 130.019934 504.249017 130.019934 
Q 499.216527 130.019934 496.49001 131.273848 
Q 493.763493 132.524644 493.763493 134.854679 
Q 493.763493 137.16288 496.391883 138.423032 
Q 499.020273 139.680066 503.856511 139.680066 
Q 505.174211 139.680066 506.302666 139.608325 
Q 507.431121 139.533464 508.328279 139.377505 
L 508.328279 136.551518 
L 503.176634 136.551518 
L 503.176634 134.034332 
L 516.318584 134.034332 
z
" style="fill:#ffa600;"/>
   </g>
   <g id="patch_26">
    <path clip-path="url(#pc2bcf020cb)" d="M 506.708008 121.7985 
L 494.680401 121.7985 
L 492.781305 127.3 
L 485.044248 127.3 
L 496.093533 97.1 
L 505.269299 97.1 
L 516.318584 127.3 
L 508.587921 127.3 
z
M 496.59868 116.193442 
L 504.770547 116.193442 
L 500.691007 104.180754 
z
" style="fill:#008000;"/>
   </g>
   <g id="patch_27">
    <path clip-path="url(#pc2bcf020cb)" d="M 485.044248 21.6 
L 516.318584 21.6 
L 516.318584 36.324604 
L 505.067096 36.324604 
L 505.067096 97.1 
L 496.317555 97.1 
L 496.317555 36.324604 
L 485.044248 36.324604 
z
" style="fill:#ff0000;"/>
   </g>
   <g id="patch_28">
    <path clip-path="url(#pc2bcf020cb)" d="M 539.628362 154.74925 
L 527.600755 154.74925 
L 525.701659 157.5 
L 517.964602 157.5 
L 529.013887 142.4 
L 538.189653 142.4 
L 549.238938 157.5 
L 541.508275 157.5 
z
M 529.519034 151.946721 
L 537.690901 151.946721 
L 533.611361 145.940377 
z
" style="fill:#008000;"/>
   </g>
   <g id="patch_29">
    <path clip-path="url(#pc2bcf020cb)" d="M 517.964602 127.3 
L 549.238938 127.3 
L 549.238938 130.244921 
L 537.98745 130.244921 
L 537.98745 142.4 
L 529.237909 142.4 
L 529.237909 130.244921 
L 517.964602 130.244921 
z
" style="fill:#ff0000;"/>
   </g>
   <g id="patch_30">
    <path clip-path="url(#pc2bcf020cb)" d="M 549.238938 124.052923 
Q 546.622894 125.662425 543.794099 126.476534 
Q 540.965304 127.3 537.88436 127.3 
Q 528.696687 127.3 523.330644 121.198864 
Q 517.964602 115.097728 517.964602 104.664036 
Q 517.964602 94.192915 523.330644 88.101136 
Q 528.696687 82 537.88436 82 
Q 540.965304 82 543.794099 82.823466 
Q 546.622894 83.637575 549.238938 85.247077 
L 549.238938 94.277133 
Q 546.599255 92.143607 544.038368 91.151704 
Q 541.477481 90.159802 538.648687 90.159802 
Q 533.574191 90.159802 530.6666 94.024478 
Q 527.766888 97.879798 527.766888 104.664036 
Q 527.766888 111.420202 530.6666 115.284879 
Q 533.574191 119.140198 538.648687 119.140198 
Q 541.477481 119.140198 544.038368 118.148296 
Q 546.599255 117.147036 549.238938 115.01351 
z
" style="fill:#0000ff;"/>
   </g>
   <g id="patch_31">
    <path clip-path="url(#pc2bcf020cb)" d="M 549.238938 76.535179 
Q 546.08487 79.267589 542.692495 80.640033 
Q 539.300119 82 535.683455 82 
Q 527.510914 82 522.737758 73.865152 
Q 517.964602 65.730304 517.964602 51.818715 
Q 517.964602 37.744929 522.821866 29.672464 
Q 527.68614 21.6 536.146051 21.6 
Q 539.405255 21.6 542.391106 22.697955 
Q 545.383966 23.783433 548.033383 25.929436 
L 548.033383 37.96951 
Q 545.299858 35.212146 542.594368 33.852179 
Q 539.888879 32.479736 537.169371 32.479736 
Q 532.136881 32.479736 529.410364 37.495394 
Q 526.683847 42.498575 526.683847 51.818715 
Q 526.683847 61.051518 529.312237 66.09213 
Q 531.940627 71.120264 536.776865 71.120264 
Q 538.094565 71.120264 539.22302 70.833299 
Q 540.351475 70.533857 541.248633 69.910019 
L 541.248633 58.606073 
L 536.096988 58.606073 
L 536.096988 48.537327 
L 549.238938 48.537327 
z
" style="fill:#ffa600;"/>
   </g>
   <g id="patch_32">
    <path clip-path="url(#pc2bcf020cb)" d="M 550.884956 142.4 
L 582.159292 142.4 
L 582.159292 145.344921 
L 570.907804 145.344921 
L 570.907804 157.5 
L 562.158263 157.5 
L 562.158263 145.344921 
L 550.884956 145.344921 
z
" style="fill:#ff0000;"/>
   </g>
   <g id="patch_33">
    <path clip-path="url(#pc2bcf020cb)" d="M 582.159292 138.301384 
Q 579.005224 140.350692 575.612849 141.380025 
Q 572.220473 142.4 568.603809 142.4 
Q 560.431268 142.4 555.658112 136.298864 
Q 550.884956 130.197728 550.884956 119.764036 
Q 550.884956 109.208697 555.74222 103.154348 
Q 560.606494 97.1 569.066405 97.1 
Q 572.325609 97.1 575.31146 97.923466 
Q 578.30432 98.737575 580.953737 100.347077 
L 580.953737 109.377133 
Q 578.220212 107.30911 575.514722 106.289134 
Q 572.809233 105.259802 570.089725 105.259802 
Q 565.057235 105.259802 562.330718 109.021545 
Q 559.604201 112.773931 559.604201 119.764036 
Q 559.604201 126.688639 562.232591 130.469097 
Q 564.860981 134.240198 569.697219 134.240198 
Q 571.014919 134.240198 572.143374 134.024974 
Q 573.271829 133.800392 574.168986 133.332514 
L 574.168986 124.854555 
L 569.017342 124.854555 
L 569.017342 117.302995 
L 582.159292 117.302995 
z
" style="fill:#ffa600;"/>
   </g>
   <g id="patch_34">
    <path clip-path="url(#pc2bcf020cb)" d="M 572.548716 83.346249 
L 560.521109 83.346249 
L 558.622013 97.1 
L 550.884956 97.1 
L 561.934241 21.6 
L 571.110007 21.6 
L 582.159292 97.1 
L 574.428629 97.1 
z
M 562.439387 69.333605 
L 570.611255 69.333605 
L 566.531715 39.301886 
z
" style="fill:#008000;"/>
   </g>
   <g id="patch_35">
    <path clip-path="url(#pc2bcf020cb)" d="M 615.079646 156.417641 
Q 612.463602 156.954142 609.634807 157.225511 
Q 606.806012 157.5 603.725068 157.5 
Q 594.537395 157.5 589.171352 155.466288 
Q 583.80531 153.432576 583.80531 149.954679 
Q 583.80531 146.464305 589.171352 144.433712 
Q 594.537395 142.4 603.725068 142.4 
Q 606.806012 142.4 609.634807 142.674489 
Q 612.463602 142.945858 615.079646 143.482359 
L 615.079646 146.492378 
Q 612.439963 145.781202 609.879076 145.450568 
Q 607.318189 145.119934 604.489395 145.119934 
Q 599.414899 145.119934 596.507308 146.408159 
Q 593.607596 147.693266 593.607596 149.954679 
Q 593.607596 152.206734 596.507308 153.49496 
Q 599.414899 154.780066 604.489395 154.780066 
Q 607.318189 154.780066 609.879076 154.449432 
Q 612.439963 154.115679 615.079646 153.404503 
z
" style="fill:#0000ff;"/>
   </g>
   <g id="patch_36">
    <path clip-path="url(#pc2bcf020cb)" d="M 605.46907 136.8985 
L 593.441463 136.8985 
L 591.542367 142.4 
L 583.80531 142.4 
L 594.854595 112.2 
L 604.030361 112.2 
L 615.079646 142.4 
L 607.348983 142.4 
z
M 595.359741 131.293442 
L 603.531609 131.293442 
L 599.452069 119.280754 
z
" style="fill:#008000;"/>
   </g>
   <g id="patch_37">
    <path clip-path="url(#pc2bcf020cb)" d="M 615.079646 108.101384 
Q 611.925578 110.150692 608.533203 111.180025 
Q 605.140827 112.2 601.524163 112.2 
Q 593.351622 112.2 588.578466 106.098864 
Q 583.80531 99.997728 583.80531 89.564036 
Q 583.80531 79.008697 588.662574 72.954348 
Q 593.526848 66.9 601.986759 66.9 
Q 605.245963 66.9 608.231814 67.723466 
Q 611.224674 68.537575 613.874091 70.147077 
L 613.874091 79.177133 
Q 611.140566 77.10911 608.435076 76.089134 
Q 605.729587 75.059802 603.010079 75.059802 
Q 597.977589 75.059802 595.251072 78.821545 
Q 592.524555 82.573931 592.524555 89.564036 
Q 592.524555 96.488639 595.152945 100.269097 
Q 597.781335 104.040198 602.617573 104.040198 
Q 603.935272 104.040198 605.063728 103.824974 
Q 606.192183 103.600392 607.08934 103.132514 
L 607.08934 94.654555 
L 601.937696 94.654555 
L 601.937696 87.102995 
L 615.079646 87.102995 
z
" style="fill:#ffa600;"/>
   </g>
   <g id="patch_38">
    <path clip-path="url(#pc2bcf020cb)" d="M 583.80531 21.6 
L 615.079646 21.6 
L 615.079646 30.434762 
L 603.828158 30.434762 
L 603.828158 66.9 
L 595.078617 66.9 
L 595.078617 30.434762 
L 583.80531 30.434762 
z
" style="fill:#ff0000;"/>
   </g>
   <g id="patch_39">
    <path clip-path="url(#pc2bcf020cb)" d="M 638.389424 154.74925 
L 626.361817 154.74925 
L 624.462721 157.5 
L 616.725664 157.5 
L 627.774949 142.4 
L 636.950715 142.4 
L 648 157.5 
L 640.269337 157.5 
z
M 628.280095 151.946721 
L 636.451963 151.946721 
L 632.372423 145.940377 
z
" style="fill:#008000;"/>
   </g>
   <g id="patch_40">
    <path clip-path="url(#pc2bcf020cb)" d="M 648 140.235282 
Q 645.383956 141.308283 642.555161 141.851023 
Q 639.726366 142.4 636.645422 142.4 
Q 627.457749 142.4 622.091706 138.332576 
Q 616.725664 134.265152 616.725664 127.309358 
Q 616.725664 120.32861 622.091706 116.267424 
Q 627.457749 112.2 636.645422 112.2 
Q 639.726366 112.2 642.555161 112.748977 
Q 645.383956 113.291717 648 114.364718 
L 648 120.384755 
Q 645.360317 118.962404 642.79943 118.301136 
Q 640.238543 117.639868 637.409749 117.639868 
Q 632.335253 117.639868 629.427662 120.216319 
Q 626.52795 122.786532 626.52795 127.309358 
Q 626.52795 131.813468 629.427662 134.389919 
Q 632.335253 136.960132 637.409749 136.960132 
Q 640.238543 136.960132 642.79943 136.298864 
Q 645.360317 135.631357 648 134.209006 
z
" style="fill:#0000ff;"/>
   </g>
   <g id="patch_41">
    <path clip-path="url(#pc2bcf020cb)" d="M 648 109.467589 
Q 644.845932 110.833795 641.453557 111.520017 
Q 638.061181 112.2 634.444517 112.2 
Q 626.271976 112.2 621.49882 108.132576 
Q 616.725664 104.065152 616.725664 97.109358 
Q 616.725664 90.072464 621.582928 86.036232 
Q 626.447202 82 634.907113 82 
Q 638.166317 82 641.152168 82.548977 
Q 644.145028 83.091717 646.794445 84.164718 
L 646.794445 90.184755 
Q 644.06092 88.806073 641.35543 88.12609 
Q 638.649941 87.439868 635.930433 87.439868 
Q 630.897943 87.439868 628.171426 89.947697 
Q 625.444909 92.449287 625.444909 97.109358 
Q 625.444909 101.725759 628.073299 104.246065 
Q 630.701689 106.760132 635.537927 106.760132 
Q 636.855626 106.760132 637.984082 106.616649 
Q 639.112537 106.466928 640.009694 106.155009 
L 640.009694 100.503037 
L 634.85805 100.503037 
L 634.85805 95.468663 
L 648 95.468663 
z
" style="fill:#ffa600;"/>
   </g>
   <g id="patch_42">
    <path clip-path="url(#pc2bcf020cb)" d="M 616.725664 21.6 
L 648 21.6 
L 648 33.379683 
L 636.748512 33.379683 
L 636.748512 82 
L 627.998971 82 
L 627.998971 33.379683 
L 616.725664 33.379683 
z
" style="fill:#ff0000;"/>
   </g>
  </g>
 </g>
 <defs>
  <clipPath id="pc2bcf020cb">
   <rect height="135.9" width="558" x="90" y="21.6"/>
  </clipPath>
 </defs>
</svg>
