<?xml version="1.0" encoding="utf-8" standalone="no"?>
<!DOCTYPE svg PUBLIC "-//W3C//DTD SVG 1.1//EN"
  "http://www.w3.org/Graphics/SVG/1.1/DTD/svg11.dtd">
<!-- Created with matplotlib (https://matplotlib.org/) -->
<svg height="180pt" version="1.1" viewBox="0 0 720 180" width="720pt" xmlns="http://www.w3.org/2000/svg" xmlns:xlink="http://www.w3.org/1999/xlink">
 <metadata>
  <rdf:RDF xmlns:cc="http://creativecommons.org/ns#" xmlns:dc="http://purl.org/dc/elements/1.1/" xmlns:rdf="http://www.w3.org/1999/02/22-rdf-syntax-ns#">
   <cc:Work>
    <dc:type rdf:resource="http://purl.org/dc/dcmitype/StillImage"/>
    <dc:date>2021-08-04T23:33:22.907802</dc:date>
    <dc:format>image/svg+xml</dc:format>
    <dc:creator>
     <cc:Agent>
      <dc:title>Matplotlib v3.3.2, https://matplotlib.org/</dc:title>
     </cc:Agent>
    </dc:creator>
   </cc:Work>
  </rdf:RDF>
 </metadata>
 <defs>
  <style type="text/css">*{stroke-linecap:butt;stroke-linejoin:round;}</style>
 </defs>
 <g id="figure_1">
  <g id="patch_1">
   <path d="M 0 180 
L 720 180 
L 720 0 
L 0 0 
z
" style="fill:none;"/>
  </g>
  <g id="axes_1">
   <g id="line2d_1">
    <path clip-path="url(#pb5a3b269f0)" d="M 90 157.5 
L 648 157.5 
" style="fill:none;stroke:#000000;stroke-linecap:square;stroke-width:0.5;"/>
   </g>
   <g id="patch_2">
    <path clip-path="url(#pb5a3b269f0)" d="M 121.274336 156.417641 
Q 118.658292 156.954142 115.829497 157.225511 
Q 113.000702 157.5 109.919759 157.5 
Q 100.732085 157.5 95.366043 155.466288 
Q 90 153.432576 90 149.954679 
Q 90 146.464305 95.366043 144.433712 
Q 100.732085 142.4 109.919759 142.4 
Q 113.000702 142.4 115.829497 142.674489 
Q 118.658292 142.945858 121.274336 143.482359 
L 121.274336 146.492378 
Q 118.634653 145.781202 116.073766 145.450568 
Q 113.51288 145.119934 110.684085 145.119934 
Q 105.609589 145.119934 102.701998 146.408159 
Q 99.802286 147.693266 99.802286 149.954679 
Q 99.802286 152.206734 102.701998 153.49496 
Q 105.609589 154.780066 110.684085 154.780066 
Q 113.51288 154.780066 116.073766 154.449432 
Q 118.634653 154.115679 121.274336 153.404503 
z
" style="fill:#0000ff;"/>
   </g>
   <g id="patch_3">
    <path clip-path="url(#pb5a3b269f0)" d="M 111.66376 131.397 
L 99.636153 131.397 
L 97.737057 142.4 
L 90 142.4 
L 101.049285 82 
L 110.225051 82 
L 121.274336 142.4 
L 113.543673 142.4 
z
M 101.554432 120.186884 
L 109.726299 120.186884 
L 105.64676 96.161509 
z
" style="fill:#008000;"/>
   </g>
   <g id="patch_4">
    <path clip-path="url(#pb5a3b269f0)" d="M 90 21.6 
L 121.274336 21.6 
L 121.274336 33.379683 
L 110.022848 33.379683 
L 110.022848 82 
L 101.273307 82 
L 101.273307 33.379683 
L 90 33.379683 
z
" style="fill:#ff0000;"/>
   </g>
   <g id="patch_5">
    <path clip-path="url(#pb5a3b269f0)" d="M 154.19469 156.417641 
Q 151.578646 156.954142 148.749851 157.225511 
Q 145.921056 157.5 142.840113 157.5 
Q 133.652439 157.5 128.286397 155.466288 
Q 122.920354 153.432576 122.920354 149.954679 
Q 122.920354 146.464305 128.286397 144.433712 
Q 133.652439 142.4 142.840113 142.4 
Q 145.921056 142.4 148.749851 142.674489 
Q 151.578646 142.945858 154.19469 143.482359 
L 154.19469 146.492378 
Q 151.555007 145.781202 148.99412 145.450568 
Q 146.433234 145.119934 143.604439 145.119934 
Q 138.529943 145.119934 135.622352 146.408159 
Q 132.72264 147.693266 132.72264 149.954679 
Q 132.72264 152.206734 135.622352 153.49496 
Q 138.529943 154.780066 143.604439 154.780066 
Q 146.433234 154.780066 148.99412 154.449432 
Q 151.555007 154.115679 154.19469 153.404503 
z
" style="fill:#0000ff;"/>
   </g>
   <g id="patch_6">
    <path clip-path="url(#pb5a3b269f0)" d="M 154.19469 141.033795 
Q 151.040622 141.716897 147.648247 142.060008 
Q 144.255872 142.4 140.639207 142.4 
Q 132.466666 142.4 127.69351 140.366288 
Q 122.920354 138.332576 122.920354 134.854679 
Q 122.920354 131.336232 127.777619 129.318116 
Q 132.641892 127.3 141.101804 127.3 
Q 144.361007 127.3 147.346858 127.574489 
Q 150.339718 127.845858 152.989135 128.382359 
L 152.989135 131.392378 
Q 150.25561 130.703037 147.55012 130.363045 
Q 144.844631 130.019934 142.125123 130.019934 
Q 137.092633 130.019934 134.366116 131.273848 
Q 131.6396 132.524644 131.6396 134.854679 
Q 131.6396 137.16288 134.26799 138.423032 
Q 136.89638 139.680066 141.732617 139.680066 
Q 143.050317 139.680066 144.178772 139.608325 
Q 145.307228 139.533464 146.204385 139.377505 
L 146.204385 136.551518 
L 141.05274 136.551518 
L 141.05274 134.034332 
L 154.19469 134.034332 
z
" style="fill:#ffa600;"/>
   </g>
   <g id="patch_7">
    <path clip-path="url(#pb5a3b269f0)" d="M 144.584114 119.04775 
L 132.556507 119.04775 
L 130.657411 127.3 
L 122.920354 127.3 
L 133.969639 82 
L 143.145405 82 
L 154.19469 127.3 
L 146.464027 127.3 
z
M 134.474786 110.640163 
L 142.646653 110.640163 
L 138.567114 92.621132 
z
" style="fill:#008000;"/>
   </g>
   <g id="patch_8">
    <path clip-path="url(#pb5a3b269f0)" d="M 122.920354 21.6 
L 154.19469 21.6 
L 154.19469 33.379683 
L 142.943202 33.379683 
L 142.943202 82 
L 134.193661 82 
L 134.193661 33.379683 
L 122.920354 33.379683 
z
" style="fill:#ff0000;"/>
   </g>
   <g id="patch_9">
    <path clip-path="url(#pb5a3b269f0)" d="M 187.115044 156.417641 
Q 184.499 156.954142 181.670205 157.225511 
Q 178.84141 157.5 175.760467 157.5 
Q 166.572793 157.5 161.206751 155.466288 
Q 155.840708 153.432576 155.840708 149.954679 
Q 155.840708 146.464305 161.206751 144.433712 
Q 166.572793 142.4 175.760467 142.4 
Q 178.84141 142.4 181.670205 142.674489 
Q 184.499 142.945858 187.115044 143.482359 
L 187.115044 146.492378 
Q 184.475361 145.781202 181.914474 145.450568 
Q 179.353588 145.119934 176.524793 145.119934 
Q 171.450297 145.119934 168.542706 146.408159 
Q 165.642994 147.693266 165.642994 149.954679 
Q 165.642994 152.206734 168.542706 153.49496 
Q 171.450297 154.780066 176.524793 154.780066 
Q 179.353588 154.780066 181.914474 154.449432 
Q 184.475361 154.115679 187.115044 153.404503 
z
" style="fill:#0000ff;"/>
   </g>
   <g id="patch_10">
    <path clip-path="url(#pb5a3b269f0)" d="M 177.504468 136.8985 
L 165.476861 136.8985 
L 163.577765 142.4 
L 155.840708 142.4 
L 166.889993 112.2 
L 176.065759 112.2 
L 187.115044 142.4 
L 179.384381 142.4 
z
M 167.39514 131.293442 
L 175.567007 131.293442 
L 171.487467 119.280754 
z
" style="fill:#008000;"/>
   </g>
   <g id="patch_11">
    <path clip-path="url(#pb5a3b269f0)" d="M 155.840708 82 
L 187.115044 82 
L 187.115044 87.889841 
L 175.863556 87.889841 
L 175.863556 112.2 
L 167.114015 112.2 
L 167.114015 87.889841 
L 155.840708 87.889841 
z
" style="fill:#ff0000;"/>
   </g>
   <g id="patch_12">
    <path clip-path="url(#pb5a3b269f0)" d="M 187.115044 76.535179 
Q 183.960976 79.267589 180.568601 80.640033 
Q 177.176226 82 173.559561 82 
Q 165.38702 82 160.613864 73.865152 
Q 155.840708 65.730304 155.840708 51.818715 
Q 155.840708 37.744929 160.697973 29.672464 
Q 165.562246 21.6 174.022158 21.6 
Q 177.281361 21.6 180.267212 22.697955 
Q 183.260072 23.783433 185.909489 25.929436 
L 185.909489 37.96951 
Q 183.175964 35.212146 180.470474 33.852179 
Q 177.764985 32.479736 175.045477 32.479736 
Q 170.012987 32.479736 167.28647 37.495394 
Q 164.559954 42.498575 164.559954 51.818715 
Q 164.559954 61.051518 167.188344 66.09213 
Q 169.816734 71.120264 174.652971 71.120264 
Q 175.970671 71.120264 177.099126 70.833299 
Q 178.227582 70.533857 179.124739 69.910019 
L 179.124739 58.606073 
L 173.973094 58.606073 
L 173.973094 48.537327 
L 187.115044 48.537327 
z
" style="fill:#ffa600;"/>
   </g>
   <g id="patch_13">
    <path clip-path="url(#pb5a3b269f0)" d="M 210.424822 149.24775 
L 198.397215 149.24775 
L 196.498119 157.5 
L 188.761062 157.5 
L 199.810347 112.2 
L 208.986113 112.2 
L 220.035398 157.5 
L 212.304735 157.5 
z
M 200.315494 140.840163 
L 208.487361 140.840163 
L 204.407821 122.821132 
z
" style="fill:#008000;"/>
   </g>
   <g id="patch_14">
    <path clip-path="url(#pb5a3b269f0)" d="M 188.761062 21.6 
L 220.035398 21.6 
L 220.035398 39.269524 
L 208.78391 39.269524 
L 208.78391 112.2 
L 200.034369 112.2 
L 200.034369 39.269524 
L 188.761062 39.269524 
z
" style="fill:#ff0000;"/>
   </g>
   <g id="patch_15">
    <path clip-path="url(#pb5a3b269f0)" d="M 252.955752 156.133795 
Q 249.801684 156.816897 246.409309 157.160008 
Q 243.016934 157.5 239.400269 157.5 
Q 231.227728 157.5 226.454572 155.466288 
Q 221.681416 153.432576 221.681416 149.954679 
Q 221.681416 146.436232 226.538681 144.418116 
Q 231.402954 142.4 239.862866 142.4 
Q 243.122069 142.4 246.10792 142.674489 
Q 249.10078 142.945858 251.750197 143.482359 
L 251.750197 146.492378 
Q 249.016672 145.803037 246.311182 145.463045 
Q 243.605693 145.119934 240.886185 145.119934 
Q 235.853695 145.119934 233.127178 146.373848 
Q 230.400662 147.624644 230.400662 149.954679 
Q 230.400662 152.26288 233.029052 153.523032 
Q 235.657442 154.780066 240.493679 154.780066 
Q 241.811379 154.780066 242.939834 154.708325 
Q 244.06829 154.633464 244.965447 154.477505 
L 244.965447 151.651518 
L 239.813802 151.651518 
L 239.813802 149.134332 
L 252.955752 149.134332 
z
" style="fill:#ffa600;"/>
   </g>
   <g id="patch_16">
    <path clip-path="url(#pb5a3b269f0)" d="M 243.345176 136.8985 
L 231.317569 136.8985 
L 229.418473 142.4 
L 221.681416 142.4 
L 232.730701 112.2 
L 241.906467 112.2 
L 252.955752 142.4 
L 245.225089 142.4 
z
M 233.235848 131.293442 
L 241.407715 131.293442 
L 237.328175 119.280754 
z
" style="fill:#008000;"/>
   </g>
   <g id="patch_17">
    <path clip-path="url(#pb5a3b269f0)" d="M 221.681416 21.6 
L 252.955752 21.6 
L 252.955752 39.269524 
L 241.704264 39.269524 
L 241.704264 112.2 
L 232.954723 112.2 
L 232.954723 39.269524 
L 221.681416 39.269524 
z
" style="fill:#ff0000;"/>
   </g>
   <g id="patch_18">
    <path clip-path="url(#pb5a3b269f0)" d="M 285.876106 156.417641 
Q 283.260062 156.954142 280.431267 157.225511 
Q 277.602472 157.5 274.521529 157.5 
Q 265.333855 157.5 259.967812 155.466288 
Q 254.60177 153.432576 254.60177 149.954679 
Q 254.60177 146.464305 259.967812 144.433712 
Q 265.333855 142.4 274.521529 142.4 
Q 277.602472 142.4 280.431267 142.674489 
Q 283.260062 142.945858 285.876106 143.482359 
L 285.876106 146.492378 
Q 283.236423 145.781202 280.675536 145.450568 
Q 278.11465 145.119934 275.285855 145.119934 
Q 270.211359 145.119934 267.303768 146.408159 
Q 264.404056 147.693266 264.404056 149.954679 
Q 264.404056 152.206734 267.303768 153.49496 
Q 270.211359 154.780066 275.285855 154.780066 
Q 278.11465 154.780066 280.675536 154.449432 
Q 283.236423 154.115679 285.876106 153.404503 
z
" style="fill:#0000ff;"/>
   </g>
   <g id="patch_19">
    <path clip-path="url(#pb5a3b269f0)" d="M 285.876106 136.935179 
Q 282.722038 139.667589 279.329663 141.040033 
Q 275.937288 142.4 272.320623 142.4 
Q 264.148082 142.4 259.374926 134.265152 
Q 254.60177 126.130304 254.60177 112.218715 
Q 254.60177 98.144929 259.459035 90.072464 
Q 264.323308 82 272.78322 82 
Q 276.042423 82 279.028274 83.097955 
Q 282.021134 84.183433 284.670551 86.329436 
L 284.670551 98.36951 
Q 281.937026 95.612146 279.231536 94.252179 
Q 276.526047 92.879736 273.806539 92.879736 
Q 268.774049 92.879736 266.047532 97.895394 
Q 263.321016 102.898575 263.321016 112.218715 
Q 263.321016 121.451518 265.949406 126.49213 
Q 268.577796 131.520264 273.414033 131.520264 
Q 274.731733 131.520264 275.860188 131.233299 
Q 276.988644 130.933857 277.885801 130.310019 
L 277.885801 119.006073 
L 272.734156 119.006073 
L 272.734156 108.937327 
L 285.876106 108.937327 
z
" style="fill:#ffa600;"/>
   </g>
   <g id="patch_20">
    <path clip-path="url(#pb5a3b269f0)" d="M 254.60177 21.6 
L 285.876106 21.6 
L 285.876106 33.379683 
L 274.624618 33.379683 
L 274.624618 82 
L 265.875077 82 
L 265.875077 33.379683 
L 254.60177 33.379683 
z
" style="fill:#ff0000;"/>
   </g>
   <g id="patch_21">
    <path clip-path="url(#pb5a3b269f0)" d="M 309.185884 151.9985 
L 297.158277 151.9985 
L 295.259181 157.5 
L 287.522124 157.5 
L 298.571409 127.3 
L 307.747175 127.3 
L 318.79646 157.5 
L 311.065797 157.5 
z
M 299.076556 146.393442 
L 307.248423 146.393442 
L 303.168883 134.380754 
z
" style="fill:#008000;"/>
   </g>
   <g id="patch_22">
    <path clip-path="url(#pb5a3b269f0)" d="M 318.79646 125.135282 
Q 316.180416 126.208283 313.351621 126.751023 
Q 310.522826 127.3 307.441883 127.3 
Q 298.254209 127.3 292.888166 123.232576 
Q 287.522124 119.165152 287.522124 112.209358 
Q 287.522124 105.22861 292.888166 101.167424 
Q 298.254209 97.1 307.441883 97.1 
Q 310.522826 97.1 313.351621 97.648977 
Q 316.180416 98.191717 318.79646 99.264718 
L 318.79646 105.284755 
Q 316.156777 103.862404 313.59589 103.201136 
Q 311.035004 102.539868 308.206209 102.539868 
Q 303.131713 102.539868 300.224122 105.116319 
Q 297.32441 107.686532 297.32441 112.209358 
Q 297.32441 116.713468 300.224122 119.289919 
Q 303.131713 121.860132 308.206209 121.860132 
Q 311.035004 121.860132 313.59589 121.198864 
Q 316.156777 120.531357 318.79646 119.109006 
z
" style="fill:#0000ff;"/>
   </g>
   <g id="patch_23">
    <path clip-path="url(#pb5a3b269f0)" d="M 318.79646 94.367589 
Q 315.642392 95.733795 312.250017 96.420017 
Q 308.857642 97.1 305.240977 97.1 
Q 297.068436 97.1 292.29528 93.032576 
Q 287.522124 88.965152 287.522124 82.009358 
Q 287.522124 74.972464 292.379389 70.936232 
Q 297.243662 66.9 305.703574 66.9 
Q 308.962777 66.9 311.948628 67.448977 
Q 314.941488 67.991717 317.590905 69.064718 
L 317.590905 75.084755 
Q 314.85738 73.706073 312.15189 73.02609 
Q 309.446401 72.339868 306.726893 72.339868 
Q 301.694403 72.339868 298.967886 74.847697 
Q 296.24137 77.349287 296.24137 82.009358 
Q 296.24137 86.625759 298.86976 89.146065 
Q 301.49815 91.660132 306.334387 91.660132 
Q 307.652087 91.660132 308.780542 91.516649 
Q 309.908998 91.366928 310.806155 91.055009 
L 310.806155 85.403037 
L 305.65451 85.403037 
L 305.65451 80.368663 
L 318.79646 80.368663 
z
" style="fill:#ffa600;"/>
   </g>
   <g id="patch_24">
    <path clip-path="url(#pb5a3b269f0)" d="M 287.522124 21.6 
L 318.79646 21.6 
L 318.79646 30.434762 
L 307.544972 30.434762 
L 307.544972 66.9 
L 298.795431 66.9 
L 298.795431 30.434762 
L 287.522124 30.434762 
z
" style="fill:#ff0000;"/>
   </g>
   <g id="patch_25">
    <path clip-path="url(#pb5a3b269f0)" d="M 320.442478 142.4 
L 351.716814 142.4 
L 351.716814 145.344921 
L 340.465326 145.344921 
L 340.465326 157.5 
L 331.715785 157.5 
L 331.715785 145.344921 
L 320.442478 145.344921 
z
" style="fill:#ff0000;"/>
   </g>
   <g id="patch_26">
    <path clip-path="url(#pb5a3b269f0)" d="M 342.106238 120.393999 
L 330.078631 120.393999 
L 328.179535 142.4 
L 320.442478 142.4 
L 331.491763 21.6 
L 340.667529 21.6 
L 351.716814 142.4 
L 343.986151 142.4 
z
M 331.99691 97.973768 
L 340.168777 97.973768 
L 336.089237 49.923018 
z
" style="fill:#008000;"/>
   </g>
   <g id="patch_27">
    <path clip-path="url(#pb5a3b269f0)" d="M 384.637168 156.133795 
Q 381.4831 156.816897 378.090725 157.160008 
Q 374.698349 157.5 371.081685 157.5 
Q 362.909144 157.5 358.135988 155.466288 
Q 353.362832 153.432576 353.362832 149.954679 
Q 353.362832 146.436232 358.220097 144.418116 
Q 363.08437 142.4 371.544282 142.4 
Q 374.803485 142.4 377.789336 142.674489 
Q 380.782196 142.945858 383.431613 143.482359 
L 383.431613 146.492378 
Q 380.698088 145.803037 377.992598 145.463045 
Q 375.287109 145.119934 372.567601 145.119934 
Q 367.535111 145.119934 364.808594 146.373848 
Q 362.082078 147.624644 362.082078 149.954679 
Q 362.082078 152.26288 364.710468 153.523032 
Q 367.338858 154.780066 372.175095 154.780066 
Q 373.492795 154.780066 374.62125 154.708325 
Q 375.749705 154.633464 376.646863 154.477505 
L 376.646863 151.651518 
L 371.495218 151.651518 
L 371.495218 149.134332 
L 384.637168 149.134332 
z
" style="fill:#ffa600;"/>
   </g>
   <g id="patch_28">
    <path clip-path="url(#pb5a3b269f0)" d="M 375.026592 120.393999 
L 362.998985 120.393999 
L 361.099889 142.4 
L 353.362832 142.4 
L 364.412117 21.6 
L 373.587883 21.6 
L 384.637168 142.4 
L 376.906505 142.4 
z
M 364.917264 97.973768 
L 373.089131 97.973768 
L 369.009591 49.923018 
z
" style="fill:#008000;"/>
   </g>
   <g id="patch_29">
    <path clip-path="url(#pb5a3b269f0)" d="M 386.283186 127.3 
L 417.557522 127.3 
L 417.557522 133.189841 
L 406.306034 133.189841 
L 406.306034 157.5 
L 397.556493 157.5 
L 397.556493 133.189841 
L 386.283186 133.189841 
z
" style="fill:#ff0000;"/>
   </g>
   <g id="patch_30">
    <path clip-path="url(#pb5a3b269f0)" d="M 407.946946 108.044749 
L 395.919339 108.044749 
L 394.020243 127.3 
L 386.283186 127.3 
L 397.332471 21.6 
L 406.508237 21.6 
L 417.557522 127.3 
L 409.826859 127.3 
z
M 397.837618 88.427047 
L 406.009485 88.427047 
L 401.929945 46.38264 
z
" style="fill:#008000;"/>
   </g>
   <g id="patch_31">
    <path clip-path="url(#pb5a3b269f0)" d="M 450.477876 156.417641 
Q 447.861832 156.954142 445.033037 157.225511 
Q 442.204242 157.5 439.123298 157.5 
Q 429.935625 157.5 424.569582 155.466288 
Q 419.20354 153.432576 419.20354 149.954679 
Q 419.20354 146.464305 424.569582 144.433712 
Q 429.935625 142.4 439.123298 142.4 
Q 442.204242 142.4 445.033037 142.674489 
Q 447.861832 142.945858 450.477876 143.482359 
L 450.477876 146.492378 
Q 447.838193 145.781202 445.277306 145.450568 
Q 442.71642 145.119934 439.887625 145.119934 
Q 434.813129 145.119934 431.905538 146.408159 
Q 429.005826 147.693266 429.005826 149.954679 
Q 429.005826 152.206734 431.905538 153.49496 
Q 434.813129 154.780066 439.887625 154.780066 
Q 442.71642 154.780066 445.277306 154.449432 
Q 447.838193 154.115679 450.477876 153.404503 
z
" style="fill:#0000ff;"/>
   </g>
   <g id="patch_32">
    <path clip-path="url(#pb5a3b269f0)" d="M 419.20354 97.1 
L 450.477876 97.1 
L 450.477876 105.934762 
L 439.226388 105.934762 
L 439.226388 142.4 
L 430.476847 142.4 
L 430.476847 105.934762 
L 419.20354 105.934762 
z
" style="fill:#ff0000;"/>
   </g>
   <g id="patch_33">
    <path clip-path="url(#pb5a3b269f0)" d="M 440.8673 83.346249 
L 428.839693 83.346249 
L 426.940597 97.1 
L 419.20354 97.1 
L 430.252825 21.6 
L 439.428591 21.6 
L 450.477876 97.1 
L 442.747213 97.1 
z
M 430.757972 69.333605 
L 438.929839 69.333605 
L 434.850299 39.301886 
z
" style="fill:#008000;"/>
   </g>
   <g id="patch_34">
    <path clip-path="url(#pb5a3b269f0)" d="M 483.39823 156.133795 
Q 480.244162 156.816897 476.851787 157.160008 
Q 473.459411 157.5 469.842747 157.5 
Q 461.670206 157.5 456.89705 155.466288 
Q 452.123894 153.432576 452.123894 149.954679 
Q 452.123894 146.436232 456.981158 144.418116 
Q 461.845432 142.4 470.305343 142.4 
Q 473.564547 142.4 476.550398 142.674489 
Q 479.543258 142.945858 482.192675 143.482359 
L 482.192675 146.492378 
Q 479.45915 145.803037 476.75366 145.463045 
Q 474.048171 145.119934 471.328663 145.119934 
Q 466.296173 145.119934 463.569656 146.373848 
Q 460.84314 147.624644 460.84314 149.954679 
Q 460.84314 152.26288 463.471529 153.523032 
Q 466.099919 154.780066 470.936157 154.780066 
Q 472.253857 154.780066 473.382312 154.708325 
Q 474.510767 154.633464 475.407925 154.477505 
L 475.407925 151.651518 
L 470.25628 151.651518 
L 470.25628 149.134332 
L 483.39823 149.134332 
z
" style="fill:#ffa600;"/>
   </g>
   <g id="patch_35">
    <path clip-path="url(#pb5a3b269f0)" d="M 473.787654 120.393999 
L 461.760047 120.393999 
L 459.860951 142.4 
L 452.123894 142.4 
L 463.173179 21.6 
L 472.348945 21.6 
L 483.39823 142.4 
L 475.667567 142.4 
z
M 463.678326 97.973768 
L 471.850193 97.973768 
L 467.770653 49.923018 
z
" style="fill:#008000;"/>
   </g>
   <g id="patch_36">
    <path clip-path="url(#pb5a3b269f0)" d="M 516.318584 154.767589 
Q 513.164516 156.133795 509.772141 156.820017 
Q 506.379765 157.5 502.763101 157.5 
Q 494.59056 157.5 489.817404 153.432576 
Q 485.044248 149.365152 485.044248 142.409358 
Q 485.044248 135.372464 489.901512 131.336232 
Q 494.765786 127.3 503.225697 127.3 
Q 506.484901 127.3 509.470752 127.848977 
Q 512.463612 128.391717 515.113029 129.464718 
L 515.113029 135.484755 
Q 512.379504 134.106073 509.674014 133.42609 
Q 506.968525 132.739868 504.249017 132.739868 
Q 499.216527 132.739868 496.49001 135.247697 
Q 493.763493 137.749287 493.763493 142.409358 
Q 493.763493 147.025759 496.391883 149.546065 
Q 499.020273 152.060132 503.856511 152.060132 
Q 505.174211 152.060132 506.302666 151.916649 
Q 507.431121 151.766928 508.328279 151.455009 
L 508.328279 145.803037 
L 503.176634 145.803037 
L 503.176634 140.768663 
L 516.318584 140.768663 
z
" style="fill:#ffa600;"/>
   </g>
   <g id="patch_37">
    <path clip-path="url(#pb5a3b269f0)" d="M 485.044248 21.6 
L 516.318584 21.6 
L 516.318584 42.214445 
L 505.067096 42.214445 
L 505.067096 127.3 
L 496.317555 127.3 
L 496.317555 42.214445 
L 485.044248 42.214445 
z
" style="fill:#ff0000;"/>
   </g>
   <g id="patch_38">
    <path clip-path="url(#pb5a3b269f0)" d="M 549.238938 152.035179 
Q 546.08487 154.767589 542.692495 156.140033 
Q 539.300119 157.5 535.683455 157.5 
Q 527.510914 157.5 522.737758 149.365152 
Q 517.964602 141.230304 517.964602 127.318715 
Q 517.964602 113.244929 522.821866 105.172464 
Q 527.68614 97.1 536.146051 97.1 
Q 539.405255 97.1 542.391106 98.197955 
Q 545.383966 99.283433 548.033383 101.429436 
L 548.033383 113.46951 
Q 545.299858 110.712146 542.594368 109.352179 
Q 539.888879 107.979736 537.169371 107.979736 
Q 532.136881 107.979736 529.410364 112.995394 
Q 526.683847 117.998575 526.683847 127.318715 
Q 526.683847 136.551518 529.312237 141.59213 
Q 531.940627 146.620264 536.776865 146.620264 
Q 538.094565 146.620264 539.22302 146.333299 
Q 540.351475 146.033857 541.248633 145.410019 
L 541.248633 134.106073 
L 536.096988 134.106073 
L 536.096988 124.037327 
L 549.238938 124.037327 
z
" style="fill:#ffa600;"/>
   </g>
   <g id="patch_39">
    <path clip-path="url(#pb5a3b269f0)" d="M 539.628362 83.346249 
L 527.600755 83.346249 
L 525.701659 97.1 
L 517.964602 97.1 
L 529.013887 21.6 
L 538.189653 21.6 
L 549.238938 97.1 
L 541.508275 97.1 
z
M 529.519034 69.333605 
L 537.690901 69.333605 
L 533.611361 39.301886 
z
" style="fill:#008000;"/>
   </g>
   <g id="patch_40">
    <path clip-path="url(#pb5a3b269f0)" d="M 550.884956 142.4 
L 582.159292 142.4 
L 582.159292 145.344921 
L 570.907804 145.344921 
L 570.907804 157.5 
L 562.158263 157.5 
L 562.158263 145.344921 
L 550.884956 145.344921 
z
" style="fill:#ff0000;"/>
   </g>
   <g id="patch_41">
    <path clip-path="url(#pb5a3b269f0)" d="M 572.548716 131.397 
L 560.521109 131.397 
L 558.622013 142.4 
L 550.884956 142.4 
L 561.934241 82 
L 571.110007 82 
L 582.159292 142.4 
L 574.428629 142.4 
z
M 562.439387 120.186884 
L 570.611255 120.186884 
L 566.531715 96.161509 
z
" style="fill:#008000;"/>
   </g>
   <g id="patch_42">
    <path clip-path="url(#pb5a3b269f0)" d="M 582.159292 76.535179 
Q 579.005224 79.267589 575.612849 80.640033 
Q 572.220473 82 568.603809 82 
Q 560.431268 82 555.658112 73.865152 
Q 550.884956 65.730304 550.884956 51.818715 
Q 550.884956 37.744929 555.74222 29.672464 
Q 560.606494 21.6 569.066405 21.6 
Q 572.325609 21.6 575.31146 22.697955 
Q 578.30432 23.783433 580.953737 25.929436 
L 580.953737 37.96951 
Q 578.220212 35.212146 575.514722 33.852179 
Q 572.809233 32.479736 570.089725 32.479736 
Q 565.057235 32.479736 562.330718 37.495394 
Q 559.604201 42.498575 559.604201 51.818715 
Q 559.604201 61.051518 562.232591 66.09213 
Q 564.860981 71.120264 569.697219 71.120264 
Q 571.014919 71.120264 572.143374 70.833299 
Q 573.271829 70.533857 574.168986 69.910019 
L 574.168986 58.606073 
L 569.017342 58.606073 
L 569.017342 48.537327 
L 582.159292 48.537327 
z
" style="fill:#ffa600;"/>
   </g>
   <g id="patch_43">
    <path clip-path="url(#pb5a3b269f0)" d="M 605.46907 154.74925 
L 593.441463 154.74925 
L 591.542367 157.5 
L 583.80531 157.5 
L 594.854595 142.4 
L 604.030361 142.4 
L 615.079646 157.5 
L 607.348983 157.5 
z
M 595.359741 151.946721 
L 603.531609 151.946721 
L 599.452069 145.940377 
z
" style="fill:#008000;"/>
   </g>
   <g id="patch_44">
    <path clip-path="url(#pb5a3b269f0)" d="M 615.079646 139.667589 
Q 611.925578 141.033795 608.533203 141.720017 
Q 605.140827 142.4 601.524163 142.4 
Q 593.351622 142.4 588.578466 138.332576 
Q 583.80531 134.265152 583.80531 127.309358 
Q 583.80531 120.272464 588.662574 116.236232 
Q 593.526848 112.2 601.986759 112.2 
Q 605.245963 112.2 608.231814 112.748977 
Q 611.224674 113.291717 613.874091 114.364718 
L 613.874091 120.384755 
Q 611.140566 119.006073 608.435076 118.32609 
Q 605.729587 117.639868 603.010079 117.639868 
Q 597.977589 117.639868 595.251072 120.147697 
Q 592.524555 122.649287 592.524555 127.309358 
Q 592.524555 131.925759 595.152945 134.446065 
Q 597.781335 136.960132 602.617573 136.960132 
Q 603.935272 136.960132 605.063728 136.816649 
Q 606.192183 136.666928 607.08934 136.355009 
L 607.08934 130.703037 
L 601.937696 130.703037 
L 601.937696 125.668663 
L 615.079646 125.668663 
z
" style="fill:#ffa600;"/>
   </g>
   <g id="patch_45">
    <path clip-path="url(#pb5a3b269f0)" d="M 615.079646 108.952923 
Q 612.463602 110.562425 609.634807 111.376534 
Q 606.806012 112.2 603.725068 112.2 
Q 594.537395 112.2 589.171352 106.098864 
Q 583.80531 99.997728 583.80531 89.564036 
Q 583.80531 79.092915 589.171352 73.001136 
Q 594.537395 66.9 603.725068 66.9 
Q 606.806012 66.9 609.634807 67.723466 
Q 612.463602 68.537575 615.079646 70.147077 
L 615.079646 79.177133 
Q 612.439963 77.043607 609.879076 76.051704 
Q 607.318189 75.059802 604.489395 75.059802 
Q 599.414899 75.059802 596.507308 78.924478 
Q 593.607596 82.779798 593.607596 89.564036 
Q 593.607596 96.320202 596.507308 100.184879 
Q 599.414899 104.040198 604.489395 104.040198 
Q 607.318189 104.040198 609.879076 103.048296 
Q 612.439963 102.047036 615.079646 99.91351 
z
" style="fill:#0000ff;"/>
   </g>
   <g id="patch_46">
    <path clip-path="url(#pb5a3b269f0)" d="M 583.80531 21.6 
L 615.079646 21.6 
L 615.079646 30.434762 
L 603.828158 30.434762 
L 603.828158 66.9 
L 595.078617 66.9 
L 595.078617 30.434762 
L 583.80531 30.434762 
z
" style="fill:#ff0000;"/>
   </g>
   <g id="patch_47">
    <path clip-path="url(#pb5a3b269f0)" d="M 648 155.335282 
Q 645.383956 156.408283 642.555161 156.951023 
Q 639.726366 157.5 636.645422 157.5 
Q 627.457749 157.5 622.091706 153.432576 
Q 616.725664 149.365152 616.725664 142.409358 
Q 616.725664 135.42861 622.091706 131.367424 
Q 627.457749 127.3 636.645422 127.3 
Q 639.726366 127.3 642.555161 127.848977 
Q 645.383956 128.391717 648 129.464718 
L 648 135.484755 
Q 645.360317 134.062404 642.79943 133.401136 
Q 640.238543 132.739868 637.409749 132.739868 
Q 632.335253 132.739868 629.427662 135.316319 
Q 626.52795 137.886532 626.52795 142.409358 
Q 626.52795 146.913468 629.427662 149.489919 
Q 632.335253 152.060132 637.409749 152.060132 
Q 640.238543 152.060132 642.79943 151.398864 
Q 645.360317 150.731357 648 149.309006 
z
" style="fill:#0000ff;"/>
   </g>
   <g id="patch_48">
    <path clip-path="url(#pb5a3b269f0)" d="M 648 124.567589 
Q 644.845932 125.933795 641.453557 126.620017 
Q 638.061181 127.3 634.444517 127.3 
Q 626.271976 127.3 621.49882 123.232576 
Q 616.725664 119.165152 616.725664 112.209358 
Q 616.725664 105.172464 621.582928 101.136232 
Q 626.447202 97.1 634.907113 97.1 
Q 638.166317 97.1 641.152168 97.648977 
Q 644.145028 98.191717 646.794445 99.264718 
L 646.794445 105.284755 
Q 644.06092 103.906073 641.35543 103.22609 
Q 638.649941 102.539868 635.930433 102.539868 
Q 630.897943 102.539868 628.171426 105.047697 
Q 625.444909 107.549287 625.444909 112.209358 
Q 625.444909 116.825759 628.073299 119.346065 
Q 630.701689 121.860132 635.537927 121.860132 
Q 636.855626 121.860132 637.984082 121.716649 
Q 639.112537 121.566928 640.009694 121.255009 
L 640.009694 115.603037 
L 634.85805 115.603037 
L 634.85805 110.568663 
L 648 110.568663 
z
" style="fill:#ffa600;"/>
   </g>
   <g id="patch_49">
    <path clip-path="url(#pb5a3b269f0)" d="M 616.725664 66.9 
L 648 66.9 
L 648 72.789841 
L 636.748512 72.789841 
L 636.748512 97.1 
L 627.998971 97.1 
L 627.998971 72.789841 
L 616.725664 72.789841 
z
" style="fill:#ff0000;"/>
   </g>
   <g id="patch_50">
    <path clip-path="url(#pb5a3b269f0)" d="M 638.389424 58.64775 
L 626.361817 58.64775 
L 624.462721 66.9 
L 616.725664 66.9 
L 627.774949 21.6 
L 636.950715 21.6 
L 648 66.9 
L 640.269337 66.9 
z
M 628.280095 50.240163 
L 636.451963 50.240163 
L 632.372423 32.221132 
z
" style="fill:#008000;"/>
   </g>
  </g>
 </g>
 <defs>
  <clipPath id="pb5a3b269f0">
   <rect height="135.9" width="558" x="90" y="21.6"/>
  </clipPath>
 </defs>
</svg>
