<?xml version="1.0" encoding="utf-8" standalone="no"?>
<!DOCTYPE svg PUBLIC "-//W3C//DTD SVG 1.1//EN"
  "http://www.w3.org/Graphics/SVG/1.1/DTD/svg11.dtd">
<!-- Created with matplotlib (https://matplotlib.org/) -->
<svg height="180pt" version="1.1" viewBox="0 0 720 180" width="720pt" xmlns="http://www.w3.org/2000/svg" xmlns:xlink="http://www.w3.org/1999/xlink">
 <metadata>
  <rdf:RDF xmlns:cc="http://creativecommons.org/ns#" xmlns:dc="http://purl.org/dc/elements/1.1/" xmlns:rdf="http://www.w3.org/1999/02/22-rdf-syntax-ns#">
   <cc:Work>
    <dc:type rdf:resource="http://purl.org/dc/dcmitype/StillImage"/>
    <dc:date>2021-08-04T23:34:04.428348</dc:date>
    <dc:format>image/svg+xml</dc:format>
    <dc:creator>
     <cc:Agent>
      <dc:title>Matplotlib v3.3.2, https://matplotlib.org/</dc:title>
     </cc:Agent>
    </dc:creator>
   </cc:Work>
  </rdf:RDF>
 </metadata>
 <defs>
  <style type="text/css">*{stroke-linecap:butt;stroke-linejoin:round;}</style>
 </defs>
 <g id="figure_1">
  <g id="patch_1">
   <path d="M 0 180 
L 720 180 
L 720 0 
L 0 0 
z
" style="fill:none;"/>
  </g>
  <g id="axes_1">
   <g id="line2d_1">
    <path clip-path="url(#paf313eb18c)" d="M 90 157.5 
L 648 157.5 
" style="fill:none;stroke:#000000;stroke-linecap:square;stroke-width:0.5;"/>
   </g>
   <g id="patch_2">
    <path clip-path="url(#paf313eb18c)" d="M 121.274336 156.417641 
Q 118.658292 156.954142 115.829497 157.225511 
Q 113.000702 157.5 109.919759 157.5 
Q 100.732085 157.5 95.366043 155.466288 
Q 90 153.432576 90 149.954679 
Q 90 146.464305 95.366043 144.433712 
Q 100.732085 142.4 109.919759 142.4 
Q 113.000702 142.4 115.829497 142.674489 
Q 118.658292 142.945858 121.274336 143.482359 
L 121.274336 146.492378 
Q 118.634653 145.781202 116.073766 145.450568 
Q 113.51288 145.119934 110.684085 145.119934 
Q 105.609589 145.119934 102.701998 146.408159 
Q 99.802286 147.693266 99.802286 149.954679 
Q 99.802286 152.206734 102.701998 153.49496 
Q 105.609589 154.780066 110.684085 154.780066 
Q 113.51288 154.780066 116.073766 154.449432 
Q 118.634653 154.115679 121.274336 153.404503 
z
" style="fill:#0000ff;"/>
   </g>
   <g id="patch_3">
    <path clip-path="url(#paf313eb18c)" d="M 121.274336 141.033795 
Q 118.120268 141.716897 114.727893 142.060008 
Q 111.335518 142.4 107.718853 142.4 
Q 99.546312 142.4 94.773156 140.366288 
Q 90 138.332576 90 134.854679 
Q 90 131.336232 94.857265 129.318116 
Q 99.721538 127.3 108.18145 127.3 
Q 111.440653 127.3 114.426504 127.574489 
Q 117.419364 127.845858 120.068781 128.382359 
L 120.068781 131.392378 
Q 117.335256 130.703037 114.629766 130.363045 
Q 111.924277 130.019934 109.204769 130.019934 
Q 104.172279 130.019934 101.445762 131.273848 
Q 98.719246 132.524644 98.719246 134.854679 
Q 98.719246 137.16288 101.347636 138.423032 
Q 103.976026 139.680066 108.812263 139.680066 
Q 110.129963 139.680066 111.258418 139.608325 
Q 112.386874 139.533464 113.284031 139.377505 
L 113.284031 136.551518 
L 108.132386 136.551518 
L 108.132386 134.034332 
L 121.274336 134.034332 
z
" style="fill:#ffa600;"/>
   </g>
   <g id="patch_4">
    <path clip-path="url(#paf313eb18c)" d="M 111.66376 108.044749 
L 99.636153 108.044749 
L 97.737057 127.3 
L 90 127.3 
L 101.049285 21.6 
L 110.225051 21.6 
L 121.274336 127.3 
L 113.543673 127.3 
z
M 101.554432 88.427047 
L 109.726299 88.427047 
L 105.64676 46.38264 
z
" style="fill:#008000;"/>
   </g>
   <g id="patch_5">
    <path clip-path="url(#paf313eb18c)" d="M 154.19469 156.133795 
Q 151.040622 156.816897 147.648247 157.160008 
Q 144.255872 157.5 140.639207 157.5 
Q 132.466666 157.5 127.69351 155.466288 
Q 122.920354 153.432576 122.920354 149.954679 
Q 122.920354 146.436232 127.777619 144.418116 
Q 132.641892 142.4 141.101804 142.4 
Q 144.361007 142.4 147.346858 142.674489 
Q 150.339718 142.945858 152.989135 143.482359 
L 152.989135 146.492378 
Q 150.25561 145.803037 147.55012 145.463045 
Q 144.844631 145.119934 142.125123 145.119934 
Q 137.092633 145.119934 134.366116 146.373848 
Q 131.6396 147.624644 131.6396 149.954679 
Q 131.6396 152.26288 134.26799 153.523032 
Q 136.89638 154.780066 141.732617 154.780066 
Q 143.050317 154.780066 144.178772 154.708325 
Q 145.307228 154.633464 146.204385 154.477505 
L 146.204385 151.651518 
L 141.05274 151.651518 
L 141.05274 149.134332 
L 154.19469 149.134332 
z
" style="fill:#ffa600;"/>
   </g>
   <g id="patch_6">
    <path clip-path="url(#paf313eb18c)" d="M 154.19469 140.235282 
Q 151.578646 141.308283 148.749851 141.851023 
Q 145.921056 142.4 142.840113 142.4 
Q 133.652439 142.4 128.286397 138.332576 
Q 122.920354 134.265152 122.920354 127.309358 
Q 122.920354 120.32861 128.286397 116.267424 
Q 133.652439 112.2 142.840113 112.2 
Q 145.921056 112.2 148.749851 112.748977 
Q 151.578646 113.291717 154.19469 114.364718 
L 154.19469 120.384755 
Q 151.555007 118.962404 148.99412 118.301136 
Q 146.433234 117.639868 143.604439 117.639868 
Q 138.529943 117.639868 135.622352 120.216319 
Q 132.72264 122.786532 132.72264 127.309358 
Q 132.72264 131.813468 135.622352 134.389919 
Q 138.529943 136.960132 143.604439 136.960132 
Q 146.433234 136.960132 148.99412 136.298864 
Q 151.555007 135.631357 154.19469 134.209006 
z
" style="fill:#0000ff;"/>
   </g>
   <g id="patch_7">
    <path clip-path="url(#paf313eb18c)" d="M 144.584114 95.695499 
L 132.556507 95.695499 
L 130.657411 112.2 
L 122.920354 112.2 
L 133.969639 21.6 
L 143.145405 21.6 
L 154.19469 112.2 
L 146.464027 112.2 
z
M 134.474786 78.880326 
L 142.646653 78.880326 
L 138.567114 42.842263 
z
" style="fill:#008000;"/>
   </g>
   <g id="patch_8">
    <path clip-path="url(#paf313eb18c)" d="M 177.504468 154.74925 
L 165.476861 154.74925 
L 163.577765 157.5 
L 155.840708 157.5 
L 166.889993 142.4 
L 176.065759 142.4 
L 187.115044 157.5 
L 179.384381 157.5 
z
M 167.39514 151.946721 
L 175.567007 151.946721 
L 171.487467 145.940377 
z
" style="fill:#008000;"/>
   </g>
   <g id="patch_9">
    <path clip-path="url(#paf313eb18c)" d="M 187.115044 139.667589 
Q 183.960976 141.033795 180.568601 141.720017 
Q 177.176226 142.4 173.559561 142.4 
Q 165.38702 142.4 160.613864 138.332576 
Q 155.840708 134.265152 155.840708 127.309358 
Q 155.840708 120.272464 160.697973 116.236232 
Q 165.562246 112.2 174.022158 112.2 
Q 177.281361 112.2 180.267212 112.748977 
Q 183.260072 113.291717 185.909489 114.364718 
L 185.909489 120.384755 
Q 183.175964 119.006073 180.470474 118.32609 
Q 177.764985 117.639868 175.045477 117.639868 
Q 170.012987 117.639868 167.28647 120.147697 
Q 164.559954 122.649287 164.559954 127.309358 
Q 164.559954 131.925759 167.188344 134.446065 
Q 169.816734 136.960132 174.652971 136.960132 
Q 175.970671 136.960132 177.099126 136.816649 
Q 178.227582 136.666928 179.124739 136.355009 
L 179.124739 130.703037 
L 173.973094 130.703037 
L 173.973094 125.668663 
L 187.115044 125.668663 
z
" style="fill:#ffa600;"/>
   </g>
   <g id="patch_10">
    <path clip-path="url(#paf313eb18c)" d="M 187.115044 105.705846 
Q 184.499 108.92485 181.670205 110.553068 
Q 178.84141 112.2 175.760467 112.2 
Q 166.572793 112.2 161.206751 99.997728 
Q 155.840708 87.795455 155.840708 66.928073 
Q 155.840708 45.985829 161.206751 33.802272 
Q 166.572793 21.6 175.760467 21.6 
Q 178.84141 21.6 181.670205 23.246932 
Q 184.499 24.87515 187.115044 28.094154 
L 187.115044 46.154266 
Q 184.475361 41.887213 181.914474 39.903408 
Q 179.353588 37.919603 176.524793 37.919603 
Q 171.450297 37.919603 168.542706 45.648957 
Q 165.642994 53.359595 165.642994 66.928073 
Q 165.642994 80.440405 168.542706 88.169758 
Q 171.450297 95.880397 176.524793 95.880397 
Q 179.353588 95.880397 181.914474 93.896592 
Q 184.475361 91.894071 187.115044 87.627019 
z
" style="fill:#0000ff;"/>
   </g>
   <g id="patch_11">
    <path clip-path="url(#paf313eb18c)" d="M 188.761062 142.4 
L 220.035398 142.4 
L 220.035398 145.344921 
L 208.78391 145.344921 
L 208.78391 157.5 
L 200.034369 157.5 
L 200.034369 145.344921 
L 188.761062 145.344921 
z
" style="fill:#ff0000;"/>
   </g>
   <g id="patch_12">
    <path clip-path="url(#paf313eb18c)" d="M 220.035398 140.235282 
Q 217.419354 141.308283 214.590559 141.851023 
Q 211.761764 142.4 208.680821 142.4 
Q 199.493147 142.4 194.127105 138.332576 
Q 188.761062 134.265152 188.761062 127.309358 
Q 188.761062 120.32861 194.127105 116.267424 
Q 199.493147 112.2 208.680821 112.2 
Q 211.761764 112.2 214.590559 112.748977 
Q 217.419354 113.291717 220.035398 114.364718 
L 220.035398 120.384755 
Q 217.395715 118.962404 214.834828 118.301136 
Q 212.273942 117.639868 209.445147 117.639868 
Q 204.370651 117.639868 201.46306 120.216319 
Q 198.563348 122.786532 198.563348 127.309358 
Q 198.563348 131.813468 201.46306 134.389919 
Q 204.370651 136.960132 209.445147 136.960132 
Q 212.273942 136.960132 214.834828 136.298864 
Q 217.395715 135.631357 220.035398 134.209006 
z
" style="fill:#0000ff;"/>
   </g>
   <g id="patch_13">
    <path clip-path="url(#paf313eb18c)" d="M 210.424822 95.695499 
L 198.397215 95.695499 
L 196.498119 112.2 
L 188.761062 112.2 
L 199.810347 21.6 
L 208.986113 21.6 
L 220.035398 112.2 
L 212.304735 112.2 
z
M 200.315494 78.880326 
L 208.487361 78.880326 
L 204.407821 42.842263 
z
" style="fill:#008000;"/>
   </g>
   <g id="patch_14">
    <path clip-path="url(#paf313eb18c)" d="M 243.345176 154.74925 
L 231.317569 154.74925 
L 229.418473 157.5 
L 221.681416 157.5 
L 232.730701 142.4 
L 241.906467 142.4 
L 252.955752 157.5 
L 245.225089 157.5 
z
M 233.235848 151.946721 
L 241.407715 151.946721 
L 237.328175 145.940377 
z
" style="fill:#008000;"/>
   </g>
   <g id="patch_15">
    <path clip-path="url(#paf313eb18c)" d="M 221.681416 97.1 
L 252.955752 97.1 
L 252.955752 105.934762 
L 241.704264 105.934762 
L 241.704264 142.4 
L 232.954723 142.4 
L 232.954723 105.934762 
L 221.681416 105.934762 
z
" style="fill:#ff0000;"/>
   </g>
   <g id="patch_16">
    <path clip-path="url(#paf313eb18c)" d="M 252.955752 91.688205 
Q 250.339708 94.370709 247.510913 95.727556 
Q 244.682118 97.1 241.601175 97.1 
Q 232.413501 97.1 227.047459 86.93144 
Q 221.681416 76.76288 221.681416 59.373394 
Q 221.681416 41.921524 227.047459 31.76856 
Q 232.413501 21.6 241.601175 21.6 
Q 244.682118 21.6 247.510913 22.972444 
Q 250.339708 24.329291 252.955752 27.011795 
L 252.955752 42.061888 
Q 250.316069 38.506011 247.755182 36.85284 
Q 245.194296 35.199669 242.365501 35.199669 
Q 237.291005 35.199669 234.383414 41.640797 
Q 231.483702 48.066329 231.483702 59.373394 
Q 231.483702 70.633671 234.383414 77.074799 
Q 237.291005 83.500331 242.365501 83.500331 
Q 245.194296 83.500331 247.755182 81.84716 
Q 250.316069 80.178393 252.955752 76.622516 
z
" style="fill:#0000ff;"/>
   </g>
   <g id="patch_17">
    <path clip-path="url(#paf313eb18c)" d="M 285.876106 156.133795 
Q 282.722038 156.816897 279.329663 157.160008 
Q 275.937288 157.5 272.320623 157.5 
Q 264.148082 157.5 259.374926 155.466288 
Q 254.60177 153.432576 254.60177 149.954679 
Q 254.60177 146.436232 259.459035 144.418116 
Q 264.323308 142.4 272.78322 142.4 
Q 276.042423 142.4 279.028274 142.674489 
Q 282.021134 142.945858 284.670551 143.482359 
L 284.670551 146.492378 
Q 281.937026 145.803037 279.231536 145.463045 
Q 276.526047 145.119934 273.806539 145.119934 
Q 268.774049 145.119934 266.047532 146.373848 
Q 263.321016 147.624644 263.321016 149.954679 
Q 263.321016 152.26288 265.949406 153.523032 
Q 268.577796 154.780066 273.414033 154.780066 
Q 274.731733 154.780066 275.860188 154.708325 
Q 276.988644 154.633464 277.885801 154.477505 
L 277.885801 151.651518 
L 272.734156 151.651518 
L 272.734156 149.134332 
L 285.876106 149.134332 
z
" style="fill:#ffa600;"/>
   </g>
   <g id="patch_18">
    <path clip-path="url(#paf313eb18c)" d="M 285.876106 133.741128 
Q 283.260062 138.033134 280.431267 140.20409 
Q 277.602472 142.4 274.521529 142.4 
Q 265.333855 142.4 259.967812 126.130304 
Q 254.60177 109.860607 254.60177 82.03743 
Q 254.60177 54.114439 259.967812 37.869696 
Q 265.333855 21.6 274.521529 21.6 
Q 277.602472 21.6 280.431267 23.79591 
Q 283.260062 25.966866 285.876106 30.258872 
L 285.876106 54.339021 
Q 283.236423 48.649618 280.675536 46.004545 
Q 278.11465 43.359471 275.285855 43.359471 
Q 270.211359 43.359471 267.303768 53.665276 
Q 264.404056 63.946127 264.404056 82.03743 
Q 264.404056 100.053873 267.303768 110.359678 
Q 270.211359 120.640529 275.285855 120.640529 
Q 278.11465 120.640529 280.675536 117.995455 
Q 283.236423 115.325429 285.876106 109.636026 
z
" style="fill:#0000ff;"/>
   </g>
   <g id="patch_19">
    <path clip-path="url(#paf313eb18c)" d="M 318.79646 155.335282 
Q 316.180416 156.408283 313.351621 156.951023 
Q 310.522826 157.5 307.441883 157.5 
Q 298.254209 157.5 292.888166 153.432576 
Q 287.522124 149.365152 287.522124 142.409358 
Q 287.522124 135.42861 292.888166 131.367424 
Q 298.254209 127.3 307.441883 127.3 
Q 310.522826 127.3 313.351621 127.848977 
Q 316.180416 128.391717 318.79646 129.464718 
L 318.79646 135.484755 
Q 316.156777 134.062404 313.59589 133.401136 
Q 311.035004 132.739868 308.206209 132.739868 
Q 303.131713 132.739868 300.224122 135.316319 
Q 297.32441 137.886532 297.32441 142.409358 
Q 297.32441 146.913468 300.224122 149.489919 
Q 303.131713 152.060132 308.206209 152.060132 
Q 311.035004 152.060132 313.59589 151.398864 
Q 316.156777 150.731357 318.79646 149.309006 
z
" style="fill:#0000ff;"/>
   </g>
   <g id="patch_20">
    <path clip-path="url(#paf313eb18c)" d="M 287.522124 97.1 
L 318.79646 97.1 
L 318.79646 102.989841 
L 307.544972 102.989841 
L 307.544972 127.3 
L 298.795431 127.3 
L 298.795431 102.989841 
L 287.522124 102.989841 
z
" style="fill:#ff0000;"/>
   </g>
   <g id="patch_21">
    <path clip-path="url(#paf313eb18c)" d="M 318.79646 90.268973 
Q 315.642392 93.684487 312.250017 95.400041 
Q 308.857642 97.1 305.240977 97.1 
Q 297.068436 97.1 292.29528 86.93144 
Q 287.522124 76.76288 287.522124 59.373394 
Q 287.522124 41.781161 292.379389 31.69058 
Q 297.243662 21.6 305.703574 21.6 
Q 308.962777 21.6 311.948628 22.972444 
Q 314.941488 24.329291 317.590905 27.011795 
L 317.590905 42.061888 
Q 314.85738 38.615183 312.15189 36.915224 
Q 309.446401 35.199669 306.726893 35.199669 
Q 301.694403 35.199669 298.967886 41.469242 
Q 296.24137 47.723218 296.24137 59.373394 
Q 296.24137 70.914398 298.86976 77.215162 
Q 301.49815 83.500331 306.334387 83.500331 
Q 307.652087 83.500331 308.780542 83.141624 
Q 309.908998 82.767321 310.806155 81.987523 
L 310.806155 67.857591 
L 305.65451 67.857591 
L 305.65451 55.271659 
L 318.79646 55.271659 
z
" style="fill:#ffa600;"/>
   </g>
   <g id="patch_22">
    <path clip-path="url(#paf313eb18c)" d="M 342.106238 154.74925 
L 330.078631 154.74925 
L 328.179535 157.5 
L 320.442478 157.5 
L 331.491763 142.4 
L 340.667529 142.4 
L 351.716814 157.5 
L 343.986151 157.5 
z
M 331.99691 151.946721 
L 340.168777 151.946721 
L 336.089237 145.940377 
z
" style="fill:#008000;"/>
   </g>
   <g id="patch_23">
    <path clip-path="url(#paf313eb18c)" d="M 351.716814 141.317641 
Q 349.10077 141.854142 346.271975 142.125511 
Q 343.44318 142.4 340.362237 142.4 
Q 331.174563 142.4 325.80852 140.366288 
Q 320.442478 138.332576 320.442478 134.854679 
Q 320.442478 131.364305 325.80852 129.333712 
Q 331.174563 127.3 340.362237 127.3 
Q 343.44318 127.3 346.271975 127.574489 
Q 349.10077 127.845858 351.716814 128.382359 
L 351.716814 131.392378 
Q 349.077131 130.681202 346.516244 130.350568 
Q 343.955358 130.019934 341.126563 130.019934 
Q 336.052067 130.019934 333.144476 131.308159 
Q 330.244764 132.593266 330.244764 134.854679 
Q 330.244764 137.106734 333.144476 138.39496 
Q 336.052067 139.680066 341.126563 139.680066 
Q 343.955358 139.680066 346.516244 139.349432 
Q 349.077131 139.015679 351.716814 138.304503 
z
" style="fill:#0000ff;"/>
   </g>
   <g id="patch_24">
    <path clip-path="url(#paf313eb18c)" d="M 351.716814 124.567589 
Q 348.562746 125.933795 345.170371 126.620017 
Q 341.777996 127.3 338.161331 127.3 
Q 329.98879 127.3 325.215634 123.232576 
Q 320.442478 119.165152 320.442478 112.209358 
Q 320.442478 105.172464 325.299743 101.136232 
Q 330.164016 97.1 338.623928 97.1 
Q 341.883131 97.1 344.868982 97.648977 
Q 347.861842 98.191717 350.511259 99.264718 
L 350.511259 105.284755 
Q 347.777734 103.906073 345.072244 103.22609 
Q 342.366755 102.539868 339.647247 102.539868 
Q 334.614757 102.539868 331.88824 105.047697 
Q 329.161724 107.549287 329.161724 112.209358 
Q 329.161724 116.825759 331.790114 119.346065 
Q 334.418504 121.860132 339.254741 121.860132 
Q 340.572441 121.860132 341.700896 121.716649 
Q 342.829351 121.566928 343.726509 121.255009 
L 343.726509 115.603037 
L 338.574864 115.603037 
L 338.574864 110.568663 
L 351.716814 110.568663 
z
" style="fill:#ffa600;"/>
   </g>
   <g id="patch_25">
    <path clip-path="url(#paf313eb18c)" d="M 320.442478 21.6 
L 351.716814 21.6 
L 351.716814 36.324604 
L 340.465326 36.324604 
L 340.465326 97.1 
L 331.715785 97.1 
L 331.715785 36.324604 
L 320.442478 36.324604 
z
" style="fill:#ff0000;"/>
   </g>
   <g id="patch_26">
    <path clip-path="url(#paf313eb18c)" d="M 384.637168 155.335282 
Q 382.021124 156.408283 379.192329 156.951023 
Q 376.363534 157.5 373.282591 157.5 
Q 364.094917 157.5 358.728874 153.432576 
Q 353.362832 149.365152 353.362832 142.409358 
Q 353.362832 135.42861 358.728874 131.367424 
Q 364.094917 127.3 373.282591 127.3 
Q 376.363534 127.3 379.192329 127.848977 
Q 382.021124 128.391717 384.637168 129.464718 
L 384.637168 135.484755 
Q 381.997485 134.062404 379.436598 133.401136 
Q 376.875712 132.739868 374.046917 132.739868 
Q 368.972421 132.739868 366.06483 135.316319 
Q 363.165118 137.886532 363.165118 142.409358 
Q 363.165118 146.913468 366.06483 149.489919 
Q 368.972421 152.060132 374.046917 152.060132 
Q 376.875712 152.060132 379.436598 151.398864 
Q 381.997485 150.731357 384.637168 149.309006 
z
" style="fill:#0000ff;"/>
   </g>
   <g id="patch_27">
    <path clip-path="url(#paf313eb18c)" d="M 384.637168 124.567589 
Q 381.4831 125.933795 378.090725 126.620017 
Q 374.698349 127.3 371.081685 127.3 
Q 362.909144 127.3 358.135988 123.232576 
Q 353.362832 119.165152 353.362832 112.209358 
Q 353.362832 105.172464 358.220097 101.136232 
Q 363.08437 97.1 371.544282 97.1 
Q 374.803485 97.1 377.789336 97.648977 
Q 380.782196 98.191717 383.431613 99.264718 
L 383.431613 105.284755 
Q 380.698088 103.906073 377.992598 103.22609 
Q 375.287109 102.539868 372.567601 102.539868 
Q 367.535111 102.539868 364.808594 105.047697 
Q 362.082078 107.549287 362.082078 112.209358 
Q 362.082078 116.825759 364.710468 119.346065 
Q 367.338858 121.860132 372.175095 121.860132 
Q 373.492795 121.860132 374.62125 121.716649 
Q 375.749705 121.566928 376.646863 121.255009 
L 376.646863 115.603037 
L 371.495218 115.603037 
L 371.495218 110.568663 
L 384.637168 110.568663 
z
" style="fill:#ffa600;"/>
   </g>
   <g id="patch_28">
    <path clip-path="url(#paf313eb18c)" d="M 353.362832 21.6 
L 384.637168 21.6 
L 384.637168 36.324604 
L 373.38568 36.324604 
L 373.38568 97.1 
L 364.636139 97.1 
L 364.636139 36.324604 
L 353.362832 36.324604 
z
" style="fill:#ff0000;"/>
   </g>
   <g id="patch_29">
    <path clip-path="url(#paf313eb18c)" d="M 417.557522 156.133795 
Q 414.403454 156.816897 411.011079 157.160008 
Q 407.618703 157.5 404.002039 157.5 
Q 395.829498 157.5 391.056342 155.466288 
Q 386.283186 153.432576 386.283186 149.954679 
Q 386.283186 146.436232 391.140451 144.418116 
Q 396.004724 142.4 404.464635 142.4 
Q 407.723839 142.4 410.70969 142.674489 
Q 413.70255 142.945858 416.351967 143.482359 
L 416.351967 146.492378 
Q 413.618442 145.803037 410.912952 145.463045 
Q 408.207463 145.119934 405.487955 145.119934 
Q 400.455465 145.119934 397.728948 146.373848 
Q 395.002432 147.624644 395.002432 149.954679 
Q 395.002432 152.26288 397.630822 153.523032 
Q 400.259212 154.780066 405.095449 154.780066 
Q 406.413149 154.780066 407.541604 154.708325 
Q 408.670059 154.633464 409.567217 154.477505 
L 409.567217 151.651518 
L 404.415572 151.651518 
L 404.415572 149.134332 
L 417.557522 149.134332 
z
" style="fill:#ffa600;"/>
   </g>
   <g id="patch_30">
    <path clip-path="url(#paf313eb18c)" d="M 417.557522 140.235282 
Q 414.941478 141.308283 412.112683 141.851023 
Q 409.283888 142.4 406.202945 142.4 
Q 397.015271 142.4 391.649228 138.332576 
Q 386.283186 134.265152 386.283186 127.309358 
Q 386.283186 120.32861 391.649228 116.267424 
Q 397.015271 112.2 406.202945 112.2 
Q 409.283888 112.2 412.112683 112.748977 
Q 414.941478 113.291717 417.557522 114.364718 
L 417.557522 120.384755 
Q 414.917839 118.962404 412.356952 118.301136 
Q 409.796066 117.639868 406.967271 117.639868 
Q 401.892775 117.639868 398.985184 120.216319 
Q 396.085472 122.786532 396.085472 127.309358 
Q 396.085472 131.813468 398.985184 134.389919 
Q 401.892775 136.960132 406.967271 136.960132 
Q 409.796066 136.960132 412.356952 136.298864 
Q 414.917839 135.631357 417.557522 134.209006 
z
" style="fill:#0000ff;"/>
   </g>
   <g id="patch_31">
    <path clip-path="url(#paf313eb18c)" d="M 386.283186 21.6 
L 417.557522 21.6 
L 417.557522 39.269524 
L 406.306034 39.269524 
L 406.306034 112.2 
L 397.556493 112.2 
L 397.556493 39.269524 
L 386.283186 39.269524 
z
" style="fill:#ff0000;"/>
   </g>
   <g id="patch_32">
    <path clip-path="url(#paf313eb18c)" d="M 450.477876 156.417641 
Q 447.861832 156.954142 445.033037 157.225511 
Q 442.204242 157.5 439.123298 157.5 
Q 429.935625 157.5 424.569582 155.466288 
Q 419.20354 153.432576 419.20354 149.954679 
Q 419.20354 146.464305 424.569582 144.433712 
Q 429.935625 142.4 439.123298 142.4 
Q 442.204242 142.4 445.033037 142.674489 
Q 447.861832 142.945858 450.477876 143.482359 
L 450.477876 146.492378 
Q 447.838193 145.781202 445.277306 145.450568 
Q 442.71642 145.119934 439.887625 145.119934 
Q 434.813129 145.119934 431.905538 146.408159 
Q 429.005826 147.693266 429.005826 149.954679 
Q 429.005826 152.206734 431.905538 153.49496 
Q 434.813129 154.780066 439.887625 154.780066 
Q 442.71642 154.780066 445.277306 154.449432 
Q 447.838193 154.115679 450.477876 153.404503 
z
" style="fill:#0000ff;"/>
   </g>
   <g id="patch_33">
    <path clip-path="url(#paf313eb18c)" d="M 450.477876 131.470357 
Q 447.323808 136.935179 443.931433 139.680066 
Q 440.539057 142.4 436.922393 142.4 
Q 428.749852 142.4 423.976696 126.130304 
Q 419.20354 109.860607 419.20354 82.03743 
Q 419.20354 53.889857 424.060805 37.744929 
Q 428.925078 21.6 437.384989 21.6 
Q 440.644193 21.6 443.630044 23.79591 
Q 446.622904 25.966866 449.272321 30.258872 
L 449.272321 54.339021 
Q 446.538796 48.824293 443.833306 46.104359 
Q 441.127817 43.359471 438.408309 43.359471 
Q 433.375819 43.359471 430.649302 53.390787 
Q 427.922786 63.397149 427.922786 82.03743 
Q 427.922786 100.503037 430.551176 110.584259 
Q 433.179565 120.640529 438.015803 120.640529 
Q 439.333503 120.640529 440.461958 120.066598 
Q 441.590413 119.467713 442.487571 118.220037 
L 442.487571 95.612146 
L 437.335926 95.612146 
L 437.335926 75.474654 
L 450.477876 75.474654 
z
" style="fill:#ffa600;"/>
   </g>
   <g id="patch_34">
    <path clip-path="url(#paf313eb18c)" d="M 483.39823 154.767589 
Q 480.244162 156.133795 476.851787 156.820017 
Q 473.459411 157.5 469.842747 157.5 
Q 461.670206 157.5 456.89705 153.432576 
Q 452.123894 149.365152 452.123894 142.409358 
Q 452.123894 135.372464 456.981158 131.336232 
Q 461.845432 127.3 470.305343 127.3 
Q 473.564547 127.3 476.550398 127.848977 
Q 479.543258 128.391717 482.192675 129.464718 
L 482.192675 135.484755 
Q 479.45915 134.106073 476.75366 133.42609 
Q 474.048171 132.739868 471.328663 132.739868 
Q 466.296173 132.739868 463.569656 135.247697 
Q 460.84314 137.749287 460.84314 142.409358 
Q 460.84314 147.025759 463.471529 149.546065 
Q 466.099919 152.060132 470.936157 152.060132 
Q 472.253857 152.060132 473.382312 151.916649 
Q 474.510767 151.766928 475.407925 151.455009 
L 475.407925 145.803037 
L 470.25628 145.803037 
L 470.25628 140.768663 
L 483.39823 140.768663 
z
" style="fill:#ffa600;"/>
   </g>
   <g id="patch_35">
    <path clip-path="url(#paf313eb18c)" d="M 452.123894 21.6 
L 483.39823 21.6 
L 483.39823 42.214445 
L 472.146742 42.214445 
L 472.146742 127.3 
L 463.397201 127.3 
L 463.397201 42.214445 
L 452.123894 42.214445 
z
" style="fill:#ff0000;"/>
   </g>
   <g id="patch_36">
    <path clip-path="url(#paf313eb18c)" d="M 516.318584 156.417641 
Q 513.70254 156.954142 510.873745 157.225511 
Q 508.04495 157.5 504.964006 157.5 
Q 495.776333 157.5 490.41029 155.466288 
Q 485.044248 153.432576 485.044248 149.954679 
Q 485.044248 146.464305 490.41029 144.433712 
Q 495.776333 142.4 504.964006 142.4 
Q 508.04495 142.4 510.873745 142.674489 
Q 513.70254 142.945858 516.318584 143.482359 
L 516.318584 146.492378 
Q 513.678901 145.781202 511.118014 145.450568 
Q 508.557127 145.119934 505.728333 145.119934 
Q 500.653837 145.119934 497.746246 146.408159 
Q 494.846534 147.693266 494.846534 149.954679 
Q 494.846534 152.206734 497.746246 153.49496 
Q 500.653837 154.780066 505.728333 154.780066 
Q 508.557127 154.780066 511.118014 154.449432 
Q 513.678901 154.115679 516.318584 153.404503 
z
" style="fill:#0000ff;"/>
   </g>
   <g id="patch_37">
    <path clip-path="url(#paf313eb18c)" d="M 516.318584 141.033795 
Q 513.164516 141.716897 509.772141 142.060008 
Q 506.379765 142.4 502.763101 142.4 
Q 494.59056 142.4 489.817404 140.366288 
Q 485.044248 138.332576 485.044248 134.854679 
Q 485.044248 131.336232 489.901512 129.318116 
Q 494.765786 127.3 503.225697 127.3 
Q 506.484901 127.3 509.470752 127.574489 
Q 512.463612 127.845858 515.113029 128.382359 
L 515.113029 131.392378 
Q 512.379504 130.703037 509.674014 130.363045 
Q 506.968525 130.019934 504.249017 130.019934 
Q 499.216527 130.019934 496.49001 131.273848 
Q 493.763493 132.524644 493.763493 134.854679 
Q 493.763493 137.16288 496.391883 138.423032 
Q 499.020273 139.680066 503.856511 139.680066 
Q 505.174211 139.680066 506.302666 139.608325 
Q 507.431121 139.533464 508.328279 139.377505 
L 508.328279 136.551518 
L 503.176634 136.551518 
L 503.176634 134.034332 
L 516.318584 134.034332 
z
" style="fill:#ffa600;"/>
   </g>
   <g id="patch_38">
    <path clip-path="url(#paf313eb18c)" d="M 506.708008 121.7985 
L 494.680401 121.7985 
L 492.781305 127.3 
L 485.044248 127.3 
L 496.093533 97.1 
L 505.269299 97.1 
L 516.318584 127.3 
L 508.587921 127.3 
z
M 496.59868 116.193442 
L 504.770547 116.193442 
L 500.691007 104.180754 
z
" style="fill:#008000;"/>
   </g>
   <g id="patch_39">
    <path clip-path="url(#paf313eb18c)" d="M 485.044248 21.6 
L 516.318584 21.6 
L 516.318584 36.324604 
L 505.067096 36.324604 
L 505.067096 97.1 
L 496.317555 97.1 
L 496.317555 36.324604 
L 485.044248 36.324604 
z
" style="fill:#ff0000;"/>
   </g>
   <g id="patch_40">
    <path clip-path="url(#paf313eb18c)" d="M 549.238938 155.335282 
Q 546.622894 156.408283 543.794099 156.951023 
Q 540.965304 157.5 537.88436 157.5 
Q 528.696687 157.5 523.330644 153.432576 
Q 517.964602 149.365152 517.964602 142.409358 
Q 517.964602 135.42861 523.330644 131.367424 
Q 528.696687 127.3 537.88436 127.3 
Q 540.965304 127.3 543.794099 127.848977 
Q 546.622894 128.391717 549.238938 129.464718 
L 549.238938 135.484755 
Q 546.599255 134.062404 544.038368 133.401136 
Q 541.477481 132.739868 538.648687 132.739868 
Q 533.574191 132.739868 530.6666 135.316319 
Q 527.766888 137.886532 527.766888 142.409358 
Q 527.766888 146.913468 530.6666 149.489919 
Q 533.574191 152.060132 538.648687 152.060132 
Q 541.477481 152.060132 544.038368 151.398864 
Q 546.599255 150.731357 549.238938 149.309006 
z
" style="fill:#0000ff;"/>
   </g>
   <g id="patch_41">
    <path clip-path="url(#paf313eb18c)" d="M 517.964602 97.1 
L 549.238938 97.1 
L 549.238938 102.989841 
L 537.98745 102.989841 
L 537.98745 127.3 
L 529.237909 127.3 
L 529.237909 102.989841 
L 517.964602 102.989841 
z
" style="fill:#ff0000;"/>
   </g>
   <g id="patch_42">
    <path clip-path="url(#paf313eb18c)" d="M 539.628362 83.346249 
L 527.600755 83.346249 
L 525.701659 97.1 
L 517.964602 97.1 
L 529.013887 21.6 
L 538.189653 21.6 
L 549.238938 97.1 
L 541.508275 97.1 
z
M 529.519034 69.333605 
L 537.690901 69.333605 
L 533.611361 39.301886 
z
" style="fill:#008000;"/>
   </g>
   <g id="patch_43">
    <path clip-path="url(#paf313eb18c)" d="M 582.159292 156.133795 
Q 579.005224 156.816897 575.612849 157.160008 
Q 572.220473 157.5 568.603809 157.5 
Q 560.431268 157.5 555.658112 155.466288 
Q 550.884956 153.432576 550.884956 149.954679 
Q 550.884956 146.436232 555.74222 144.418116 
Q 560.606494 142.4 569.066405 142.4 
Q 572.325609 142.4 575.31146 142.674489 
Q 578.30432 142.945858 580.953737 143.482359 
L 580.953737 146.492378 
Q 578.220212 145.803037 575.514722 145.463045 
Q 572.809233 145.119934 570.089725 145.119934 
Q 565.057235 145.119934 562.330718 146.373848 
Q 559.604201 147.624644 559.604201 149.954679 
Q 559.604201 152.26288 562.232591 153.523032 
Q 564.860981 154.780066 569.697219 154.780066 
Q 571.014919 154.780066 572.143374 154.708325 
Q 573.271829 154.633464 574.168986 154.477505 
L 574.168986 151.651518 
L 569.017342 151.651518 
L 569.017342 149.134332 
L 582.159292 149.134332 
z
" style="fill:#ffa600;"/>
   </g>
   <g id="patch_44">
    <path clip-path="url(#paf313eb18c)" d="M 572.548716 134.14775 
L 560.521109 134.14775 
L 558.622013 142.4 
L 550.884956 142.4 
L 561.934241 97.1 
L 571.110007 97.1 
L 582.159292 142.4 
L 574.428629 142.4 
z
M 562.439387 125.740163 
L 570.611255 125.740163 
L 566.531715 107.721132 
z
" style="fill:#008000;"/>
   </g>
   <g id="patch_45">
    <path clip-path="url(#paf313eb18c)" d="M 550.884956 21.6 
L 582.159292 21.6 
L 582.159292 36.324604 
L 570.907804 36.324604 
L 570.907804 97.1 
L 562.158263 97.1 
L 562.158263 36.324604 
L 550.884956 36.324604 
z
" style="fill:#ff0000;"/>
   </g>
   <g id="patch_46">
    <path clip-path="url(#paf313eb18c)" d="M 615.079646 156.133795 
Q 611.925578 156.816897 608.533203 157.160008 
Q 605.140827 157.5 601.524163 157.5 
Q 593.351622 157.5 588.578466 155.466288 
Q 583.80531 153.432576 583.80531 149.954679 
Q 583.80531 146.436232 588.662574 144.418116 
Q 593.526848 142.4 601.986759 142.4 
Q 605.245963 142.4 608.231814 142.674489 
Q 611.224674 142.945858 613.874091 143.482359 
L 613.874091 146.492378 
Q 611.140566 145.803037 608.435076 145.463045 
Q 605.729587 145.119934 603.010079 145.119934 
Q 597.977589 145.119934 595.251072 146.373848 
Q 592.524555 147.624644 592.524555 149.954679 
Q 592.524555 152.26288 595.152945 153.523032 
Q 597.781335 154.780066 602.617573 154.780066 
Q 603.935272 154.780066 605.063728 154.708325 
Q 606.192183 154.633464 607.08934 154.477505 
L 607.08934 151.651518 
L 601.937696 151.651518 
L 601.937696 149.134332 
L 615.079646 149.134332 
z
" style="fill:#ffa600;"/>
   </g>
   <g id="patch_47">
    <path clip-path="url(#paf313eb18c)" d="M 615.079646 140.235282 
Q 612.463602 141.308283 609.634807 141.851023 
Q 606.806012 142.4 603.725068 142.4 
Q 594.537395 142.4 589.171352 138.332576 
Q 583.80531 134.265152 583.80531 127.309358 
Q 583.80531 120.32861 589.171352 116.267424 
Q 594.537395 112.2 603.725068 112.2 
Q 606.806012 112.2 609.634807 112.748977 
Q 612.463602 113.291717 615.079646 114.364718 
L 615.079646 120.384755 
Q 612.439963 118.962404 609.879076 118.301136 
Q 607.318189 117.639868 604.489395 117.639868 
Q 599.414899 117.639868 596.507308 120.216319 
Q 593.607596 122.786532 593.607596 127.309358 
Q 593.607596 131.813468 596.507308 134.389919 
Q 599.414899 136.960132 604.489395 136.960132 
Q 607.318189 136.960132 609.879076 136.298864 
Q 612.439963 135.631357 615.079646 134.209006 
z
" style="fill:#0000ff;"/>
   </g>
   <g id="patch_48">
    <path clip-path="url(#paf313eb18c)" d="M 605.46907 95.695499 
L 593.441463 95.695499 
L 591.542367 112.2 
L 583.80531 112.2 
L 594.854595 21.6 
L 604.030361 21.6 
L 615.079646 112.2 
L 607.348983 112.2 
z
M 595.359741 78.880326 
L 603.531609 78.880326 
L 599.452069 42.842263 
z
" style="fill:#008000;"/>
   </g>
   <g id="patch_49">
    <path clip-path="url(#paf313eb18c)" d="M 616.725664 142.4 
L 648 142.4 
L 648 145.344921 
L 636.748512 145.344921 
L 636.748512 157.5 
L 627.998971 157.5 
L 627.998971 145.344921 
L 616.725664 145.344921 
z
" style="fill:#ff0000;"/>
   </g>
   <g id="patch_50">
    <path clip-path="url(#paf313eb18c)" d="M 648 138.301384 
Q 644.845932 140.350692 641.453557 141.380025 
Q 638.061181 142.4 634.444517 142.4 
Q 626.271976 142.4 621.49882 136.298864 
Q 616.725664 130.197728 616.725664 119.764036 
Q 616.725664 109.208697 621.582928 103.154348 
Q 626.447202 97.1 634.907113 97.1 
Q 638.166317 97.1 641.152168 97.923466 
Q 644.145028 98.737575 646.794445 100.347077 
L 646.794445 109.377133 
Q 644.06092 107.30911 641.35543 106.289134 
Q 638.649941 105.259802 635.930433 105.259802 
Q 630.897943 105.259802 628.171426 109.021545 
Q 625.444909 112.773931 625.444909 119.764036 
Q 625.444909 126.688639 628.073299 130.469097 
Q 630.701689 134.240198 635.537927 134.240198 
Q 636.855626 134.240198 637.984082 134.024974 
Q 639.112537 133.800392 640.009694 133.332514 
L 640.009694 124.854555 
L 634.85805 124.854555 
L 634.85805 117.302995 
L 648 117.302995 
z
" style="fill:#ffa600;"/>
   </g>
   <g id="patch_51">
    <path clip-path="url(#paf313eb18c)" d="M 638.389424 83.346249 
L 626.361817 83.346249 
L 624.462721 97.1 
L 616.725664 97.1 
L 627.774949 21.6 
L 636.950715 21.6 
L 648 97.1 
L 640.269337 97.1 
z
M 628.280095 69.333605 
L 636.451963 69.333605 
L 632.372423 39.301886 
z
" style="fill:#008000;"/>
   </g>
  </g>
 </g>
 <defs>
  <clipPath id="paf313eb18c">
   <rect height="135.9" width="558" x="90" y="21.6"/>
  </clipPath>
 </defs>
</svg>
