<?xml version="1.0" encoding="utf-8" standalone="no"?>
<!DOCTYPE svg PUBLIC "-//W3C//DTD SVG 1.1//EN"
  "http://www.w3.org/Graphics/SVG/1.1/DTD/svg11.dtd">
<!-- Created with matplotlib (https://matplotlib.org/) -->
<svg height="180pt" version="1.1" viewBox="0 0 720 180" width="720pt" xmlns="http://www.w3.org/2000/svg" xmlns:xlink="http://www.w3.org/1999/xlink">
 <metadata>
  <rdf:RDF xmlns:cc="http://creativecommons.org/ns#" xmlns:dc="http://purl.org/dc/elements/1.1/" xmlns:rdf="http://www.w3.org/1999/02/22-rdf-syntax-ns#">
   <cc:Work>
    <dc:type rdf:resource="http://purl.org/dc/dcmitype/StillImage"/>
    <dc:date>2021-08-04T23:33:04.051975</dc:date>
    <dc:format>image/svg+xml</dc:format>
    <dc:creator>
     <cc:Agent>
      <dc:title>Matplotlib v3.3.2, https://matplotlib.org/</dc:title>
     </cc:Agent>
    </dc:creator>
   </cc:Work>
  </rdf:RDF>
 </metadata>
 <defs>
  <style type="text/css">*{stroke-linecap:butt;stroke-linejoin:round;}</style>
 </defs>
 <g id="figure_1">
  <g id="patch_1">
   <path d="M 0 180 
L 720 180 
L 720 0 
L 0 0 
z
" style="fill:none;"/>
  </g>
  <g id="axes_1">
   <g id="line2d_1">
    <path clip-path="url(#p8dc4045cd7)" d="M 90 157.5 
L 648 157.5 
" style="fill:none;stroke:#000000;stroke-linecap:square;stroke-width:0.5;"/>
   </g>
   <g id="patch_2">
    <path clip-path="url(#p8dc4045cd7)" d="M 111.66376 154.74925 
L 99.636153 154.74925 
L 97.737057 157.5 
L 90 157.5 
L 101.049285 142.4 
L 110.225051 142.4 
L 121.274336 157.5 
L 113.543673 157.5 
z
M 101.554432 151.946721 
L 109.726299 151.946721 
L 105.64676 145.940377 
z
" style="fill:#008000;"/>
   </g>
   <g id="patch_3">
    <path clip-path="url(#p8dc4045cd7)" d="M 121.274336 140.235282 
Q 118.658292 141.308283 115.829497 141.851023 
Q 113.000702 142.4 109.919759 142.4 
Q 100.732085 142.4 95.366043 138.332576 
Q 90 134.265152 90 127.309358 
Q 90 120.32861 95.366043 116.267424 
Q 100.732085 112.2 109.919759 112.2 
Q 113.000702 112.2 115.829497 112.748977 
Q 118.658292 113.291717 121.274336 114.364718 
L 121.274336 120.384755 
Q 118.634653 118.962404 116.073766 118.301136 
Q 113.51288 117.639868 110.684085 117.639868 
Q 105.609589 117.639868 102.701998 120.216319 
Q 99.802286 122.786532 99.802286 127.309358 
Q 99.802286 131.813468 102.701998 134.389919 
Q 105.609589 136.960132 110.684085 136.960132 
Q 113.51288 136.960132 116.073766 136.298864 
Q 118.634653 135.631357 121.274336 134.209006 
z
" style="fill:#0000ff;"/>
   </g>
   <g id="patch_4">
    <path clip-path="url(#p8dc4045cd7)" d="M 90 82 
L 121.274336 82 
L 121.274336 87.889841 
L 110.022848 87.889841 
L 110.022848 112.2 
L 101.273307 112.2 
L 101.273307 87.889841 
L 90 87.889841 
z
" style="fill:#ff0000;"/>
   </g>
   <g id="patch_5">
    <path clip-path="url(#p8dc4045cd7)" d="M 121.274336 76.535179 
Q 118.120268 79.267589 114.727893 80.640033 
Q 111.335518 82 107.718853 82 
Q 99.546312 82 94.773156 73.865152 
Q 90 65.730304 90 51.818715 
Q 90 37.744929 94.857265 29.672464 
Q 99.721538 21.6 108.18145 21.6 
Q 111.440653 21.6 114.426504 22.697955 
Q 117.419364 23.783433 120.068781 25.929436 
L 120.068781 37.96951 
Q 117.335256 35.212146 114.629766 33.852179 
Q 111.924277 32.479736 109.204769 32.479736 
Q 104.172279 32.479736 101.445762 37.495394 
Q 98.719246 42.498575 98.719246 51.818715 
Q 98.719246 61.051518 101.347636 66.09213 
Q 103.976026 71.120264 108.812263 71.120264 
Q 110.129963 71.120264 111.258418 70.833299 
Q 112.386874 70.533857 113.284031 69.910019 
L 113.284031 58.606073 
L 108.132386 58.606073 
L 108.132386 48.537327 
L 121.274336 48.537327 
z
" style="fill:#ffa600;"/>
   </g>
   <g id="patch_6">
    <path clip-path="url(#p8dc4045cd7)" d="M 144.584114 151.9985 
L 132.556507 151.9985 
L 130.657411 157.5 
L 122.920354 157.5 
L 133.969639 127.3 
L 143.145405 127.3 
L 154.19469 157.5 
L 146.464027 157.5 
z
M 134.474786 146.393442 
L 142.646653 146.393442 
L 138.567114 134.380754 
z
" style="fill:#008000;"/>
   </g>
   <g id="patch_7">
    <path clip-path="url(#p8dc4045cd7)" d="M 154.19469 124.567589 
Q 151.040622 125.933795 147.648247 126.620017 
Q 144.255872 127.3 140.639207 127.3 
Q 132.466666 127.3 127.69351 123.232576 
Q 122.920354 119.165152 122.920354 112.209358 
Q 122.920354 105.172464 127.777619 101.136232 
Q 132.641892 97.1 141.101804 97.1 
Q 144.361007 97.1 147.346858 97.648977 
Q 150.339718 98.191717 152.989135 99.264718 
L 152.989135 105.284755 
Q 150.25561 103.906073 147.55012 103.22609 
Q 144.844631 102.539868 142.125123 102.539868 
Q 137.092633 102.539868 134.366116 105.047697 
Q 131.6396 107.549287 131.6396 112.209358 
Q 131.6396 116.825759 134.26799 119.346065 
Q 136.89638 121.860132 141.732617 121.860132 
Q 143.050317 121.860132 144.178772 121.716649 
Q 145.307228 121.566928 146.204385 121.255009 
L 146.204385 115.603037 
L 141.05274 115.603037 
L 141.05274 110.568663 
L 154.19469 110.568663 
z
" style="fill:#ffa600;"/>
   </g>
   <g id="patch_8">
    <path clip-path="url(#p8dc4045cd7)" d="M 122.920354 66.9 
L 154.19469 66.9 
L 154.19469 72.789841 
L 142.943202 72.789841 
L 142.943202 97.1 
L 134.193661 97.1 
L 134.193661 72.789841 
L 122.920354 72.789841 
z
" style="fill:#ff0000;"/>
   </g>
   <g id="patch_9">
    <path clip-path="url(#p8dc4045cd7)" d="M 154.19469 63.652923 
Q 151.578646 65.262425 148.749851 66.076534 
Q 145.921056 66.9 142.840113 66.9 
Q 133.652439 66.9 128.286397 60.798864 
Q 122.920354 54.697728 122.920354 44.264036 
Q 122.920354 33.792915 128.286397 27.701136 
Q 133.652439 21.6 142.840113 21.6 
Q 145.921056 21.6 148.749851 22.423466 
Q 151.578646 23.237575 154.19469 24.847077 
L 154.19469 33.877133 
Q 151.555007 31.743607 148.99412 30.751704 
Q 146.433234 29.759802 143.604439 29.759802 
Q 138.529943 29.759802 135.622352 33.624478 
Q 132.72264 37.479798 132.72264 44.264036 
Q 132.72264 51.020202 135.622352 54.884879 
Q 138.529943 58.740198 143.604439 58.740198 
Q 146.433234 58.740198 148.99412 57.748296 
Q 151.555007 56.747036 154.19469 54.61351 
z
" style="fill:#0000ff;"/>
   </g>
   <g id="patch_10">
    <path clip-path="url(#p8dc4045cd7)" d="M 187.115044 156.417641 
Q 184.499 156.954142 181.670205 157.225511 
Q 178.84141 157.5 175.760467 157.5 
Q 166.572793 157.5 161.206751 155.466288 
Q 155.840708 153.432576 155.840708 149.954679 
Q 155.840708 146.464305 161.206751 144.433712 
Q 166.572793 142.4 175.760467 142.4 
Q 178.84141 142.4 181.670205 142.674489 
Q 184.499 142.945858 187.115044 143.482359 
L 187.115044 146.492378 
Q 184.475361 145.781202 181.914474 145.450568 
Q 179.353588 145.119934 176.524793 145.119934 
Q 171.450297 145.119934 168.542706 146.408159 
Q 165.642994 147.693266 165.642994 149.954679 
Q 165.642994 152.206734 168.542706 153.49496 
Q 171.450297 154.780066 176.524793 154.780066 
Q 179.353588 154.780066 181.914474 154.449432 
Q 184.475361 154.115679 187.115044 153.404503 
z
" style="fill:#0000ff;"/>
   </g>
   <g id="patch_11">
    <path clip-path="url(#p8dc4045cd7)" d="M 177.504468 136.8985 
L 165.476861 136.8985 
L 163.577765 142.4 
L 155.840708 142.4 
L 166.889993 112.2 
L 176.065759 112.2 
L 187.115044 142.4 
L 179.384381 142.4 
z
M 167.39514 131.293442 
L 175.567007 131.293442 
L 171.487467 119.280754 
z
" style="fill:#008000;"/>
   </g>
   <g id="patch_12">
    <path clip-path="url(#p8dc4045cd7)" d="M 155.840708 82 
L 187.115044 82 
L 187.115044 87.889841 
L 175.863556 87.889841 
L 175.863556 112.2 
L 167.114015 112.2 
L 167.114015 87.889841 
L 155.840708 87.889841 
z
" style="fill:#ff0000;"/>
   </g>
   <g id="patch_13">
    <path clip-path="url(#p8dc4045cd7)" d="M 187.115044 76.535179 
Q 183.960976 79.267589 180.568601 80.640033 
Q 177.176226 82 173.559561 82 
Q 165.38702 82 160.613864 73.865152 
Q 155.840708 65.730304 155.840708 51.818715 
Q 155.840708 37.744929 160.697973 29.672464 
Q 165.562246 21.6 174.022158 21.6 
Q 177.281361 21.6 180.267212 22.697955 
Q 183.260072 23.783433 185.909489 25.929436 
L 185.909489 37.96951 
Q 183.175964 35.212146 180.470474 33.852179 
Q 177.764985 32.479736 175.045477 32.479736 
Q 170.012987 32.479736 167.28647 37.495394 
Q 164.559954 42.498575 164.559954 51.818715 
Q 164.559954 61.051518 167.188344 66.09213 
Q 169.816734 71.120264 174.652971 71.120264 
Q 175.970671 71.120264 177.099126 70.833299 
Q 178.227582 70.533857 179.124739 69.910019 
L 179.124739 58.606073 
L 173.973094 58.606073 
L 173.973094 48.537327 
L 187.115044 48.537327 
z
" style="fill:#ffa600;"/>
   </g>
   <g id="patch_14">
    <path clip-path="url(#p8dc4045cd7)" d="M 220.035398 156.417641 
Q 217.419354 156.954142 214.590559 157.225511 
Q 211.761764 157.5 208.680821 157.5 
Q 199.493147 157.5 194.127105 155.466288 
Q 188.761062 153.432576 188.761062 149.954679 
Q 188.761062 146.464305 194.127105 144.433712 
Q 199.493147 142.4 208.680821 142.4 
Q 211.761764 142.4 214.590559 142.674489 
Q 217.419354 142.945858 220.035398 143.482359 
L 220.035398 146.492378 
Q 217.395715 145.781202 214.834828 145.450568 
Q 212.273942 145.119934 209.445147 145.119934 
Q 204.370651 145.119934 201.46306 146.408159 
Q 198.563348 147.693266 198.563348 149.954679 
Q 198.563348 152.206734 201.46306 153.49496 
Q 204.370651 154.780066 209.445147 154.780066 
Q 212.273942 154.780066 214.834828 154.449432 
Q 217.395715 154.115679 220.035398 153.404503 
z
" style="fill:#0000ff;"/>
   </g>
   <g id="patch_15">
    <path clip-path="url(#p8dc4045cd7)" d="M 220.035398 141.033795 
Q 216.88133 141.716897 213.488955 142.060008 
Q 210.09658 142.4 206.479915 142.4 
Q 198.307374 142.4 193.534218 140.366288 
Q 188.761062 138.332576 188.761062 134.854679 
Q 188.761062 131.336232 193.618327 129.318116 
Q 198.4826 127.3 206.942512 127.3 
Q 210.201715 127.3 213.187566 127.574489 
Q 216.180426 127.845858 218.829843 128.382359 
L 218.829843 131.392378 
Q 216.096318 130.703037 213.390828 130.363045 
Q 210.685339 130.019934 207.965831 130.019934 
Q 202.933341 130.019934 200.206824 131.273848 
Q 197.480308 132.524644 197.480308 134.854679 
Q 197.480308 137.16288 200.108698 138.423032 
Q 202.737088 139.680066 207.573325 139.680066 
Q 208.891025 139.680066 210.01948 139.608325 
Q 211.147936 139.533464 212.045093 139.377505 
L 212.045093 136.551518 
L 206.893448 136.551518 
L 206.893448 134.034332 
L 220.035398 134.034332 
z
" style="fill:#ffa600;"/>
   </g>
   <g id="patch_16">
    <path clip-path="url(#p8dc4045cd7)" d="M 210.424822 119.04775 
L 198.397215 119.04775 
L 196.498119 127.3 
L 188.761062 127.3 
L 199.810347 82 
L 208.986113 82 
L 220.035398 127.3 
L 212.304735 127.3 
z
M 200.315494 110.640163 
L 208.487361 110.640163 
L 204.407821 92.621132 
z
" style="fill:#008000;"/>
   </g>
   <g id="patch_17">
    <path clip-path="url(#p8dc4045cd7)" d="M 188.761062 21.6 
L 220.035398 21.6 
L 220.035398 33.379683 
L 208.78391 33.379683 
L 208.78391 82 
L 200.034369 82 
L 200.034369 33.379683 
L 188.761062 33.379683 
z
" style="fill:#ff0000;"/>
   </g>
   <g id="patch_18">
    <path clip-path="url(#p8dc4045cd7)" d="M 252.955752 154.252923 
Q 250.339708 155.862425 247.510913 156.676534 
Q 244.682118 157.5 241.601175 157.5 
Q 232.413501 157.5 227.047459 151.398864 
Q 221.681416 145.297728 221.681416 134.864036 
Q 221.681416 124.392915 227.047459 118.301136 
Q 232.413501 112.2 241.601175 112.2 
Q 244.682118 112.2 247.510913 113.023466 
Q 250.339708 113.837575 252.955752 115.447077 
L 252.955752 124.477133 
Q 250.316069 122.343607 247.755182 121.351704 
Q 245.194296 120.359802 242.365501 120.359802 
Q 237.291005 120.359802 234.383414 124.224478 
Q 231.483702 128.079798 231.483702 134.864036 
Q 231.483702 141.620202 234.383414 145.484879 
Q 237.291005 149.340198 242.365501 149.340198 
Q 245.194296 149.340198 247.755182 148.348296 
Q 250.316069 147.347036 252.955752 145.21351 
z
" style="fill:#0000ff;"/>
   </g>
   <g id="patch_19">
    <path clip-path="url(#p8dc4045cd7)" d="M 221.681416 21.6 
L 252.955752 21.6 
L 252.955752 39.269524 
L 241.704264 39.269524 
L 241.704264 112.2 
L 232.954723 112.2 
L 232.954723 39.269524 
L 221.681416 39.269524 
z
" style="fill:#ff0000;"/>
   </g>
   <g id="patch_20">
    <path clip-path="url(#p8dc4045cd7)" d="M 276.26553 149.24775 
L 264.237923 149.24775 
L 262.338827 157.5 
L 254.60177 157.5 
L 265.651055 112.2 
L 274.826821 112.2 
L 285.876106 157.5 
L 278.145443 157.5 
z
M 266.156202 140.840163 
L 274.328069 140.840163 
L 270.248529 122.821132 
z
" style="fill:#008000;"/>
   </g>
   <g id="patch_21">
    <path clip-path="url(#p8dc4045cd7)" d="M 285.876106 108.101384 
Q 282.722038 110.150692 279.329663 111.180025 
Q 275.937288 112.2 272.320623 112.2 
Q 264.148082 112.2 259.374926 106.098864 
Q 254.60177 99.997728 254.60177 89.564036 
Q 254.60177 79.008697 259.459035 72.954348 
Q 264.323308 66.9 272.78322 66.9 
Q 276.042423 66.9 279.028274 67.723466 
Q 282.021134 68.537575 284.670551 70.147077 
L 284.670551 79.177133 
Q 281.937026 77.10911 279.231536 76.089134 
Q 276.526047 75.059802 273.806539 75.059802 
Q 268.774049 75.059802 266.047532 78.821545 
Q 263.321016 82.573931 263.321016 89.564036 
Q 263.321016 96.488639 265.949406 100.269097 
Q 268.577796 104.040198 273.414033 104.040198 
Q 274.731733 104.040198 275.860188 103.824974 
Q 276.988644 103.600392 277.885801 103.132514 
L 277.885801 94.654555 
L 272.734156 94.654555 
L 272.734156 87.102995 
L 285.876106 87.102995 
z
" style="fill:#ffa600;"/>
   </g>
   <g id="patch_22">
    <path clip-path="url(#p8dc4045cd7)" d="M 254.60177 21.6 
L 285.876106 21.6 
L 285.876106 30.434762 
L 274.624618 30.434762 
L 274.624618 66.9 
L 265.875077 66.9 
L 265.875077 30.434762 
L 254.60177 30.434762 
z
" style="fill:#ff0000;"/>
   </g>
   <g id="patch_23">
    <path clip-path="url(#p8dc4045cd7)" d="M 309.185884 146.497 
L 297.158277 146.497 
L 295.259181 157.5 
L 287.522124 157.5 
L 298.571409 97.1 
L 307.747175 97.1 
L 318.79646 157.5 
L 311.065797 157.5 
z
M 299.076556 135.286884 
L 307.248423 135.286884 
L 303.168883 111.261509 
z
" style="fill:#008000;"/>
   </g>
   <g id="patch_24">
    <path clip-path="url(#p8dc4045cd7)" d="M 318.79646 90.268973 
Q 315.642392 93.684487 312.250017 95.400041 
Q 308.857642 97.1 305.240977 97.1 
Q 297.068436 97.1 292.29528 86.93144 
Q 287.522124 76.76288 287.522124 59.373394 
Q 287.522124 41.781161 292.379389 31.69058 
Q 297.243662 21.6 305.703574 21.6 
Q 308.962777 21.6 311.948628 22.972444 
Q 314.941488 24.329291 317.590905 27.011795 
L 317.590905 42.061888 
Q 314.85738 38.615183 312.15189 36.915224 
Q 309.446401 35.199669 306.726893 35.199669 
Q 301.694403 35.199669 298.967886 41.469242 
Q 296.24137 47.723218 296.24137 59.373394 
Q 296.24137 70.914398 298.86976 77.215162 
Q 301.49815 83.500331 306.334387 83.500331 
Q 307.652087 83.500331 308.780542 83.141624 
Q 309.908998 82.767321 310.806155 81.987523 
L 310.806155 67.857591 
L 305.65451 67.857591 
L 305.65451 55.271659 
L 318.79646 55.271659 
z
" style="fill:#ffa600;"/>
   </g>
   <g id="patch_25">
    <path clip-path="url(#p8dc4045cd7)" d="M 320.442478 142.4 
L 351.716814 142.4 
L 351.716814 145.344921 
L 340.465326 145.344921 
L 340.465326 157.5 
L 331.715785 157.5 
L 331.715785 145.344921 
L 320.442478 145.344921 
z
" style="fill:#ff0000;"/>
   </g>
   <g id="patch_26">
    <path clip-path="url(#p8dc4045cd7)" d="M 342.106238 134.14775 
L 330.078631 134.14775 
L 328.179535 142.4 
L 320.442478 142.4 
L 331.491763 97.1 
L 340.667529 97.1 
L 351.716814 142.4 
L 343.986151 142.4 
z
M 331.99691 125.740163 
L 340.168777 125.740163 
L 336.089237 107.721132 
z
" style="fill:#008000;"/>
   </g>
   <g id="patch_27">
    <path clip-path="url(#p8dc4045cd7)" d="M 351.716814 91.688205 
Q 349.10077 94.370709 346.271975 95.727556 
Q 343.44318 97.1 340.362237 97.1 
Q 331.174563 97.1 325.80852 86.93144 
Q 320.442478 76.76288 320.442478 59.373394 
Q 320.442478 41.921524 325.80852 31.76856 
Q 331.174563 21.6 340.362237 21.6 
Q 343.44318 21.6 346.271975 22.972444 
Q 349.10077 24.329291 351.716814 27.011795 
L 351.716814 42.061888 
Q 349.077131 38.506011 346.516244 36.85284 
Q 343.955358 35.199669 341.126563 35.199669 
Q 336.052067 35.199669 333.144476 41.640797 
Q 330.244764 48.066329 330.244764 59.373394 
Q 330.244764 70.633671 333.144476 77.074799 
Q 336.052067 83.500331 341.126563 83.500331 
Q 343.955358 83.500331 346.516244 81.84716 
Q 349.077131 80.178393 351.716814 76.622516 
z
" style="fill:#0000ff;"/>
   </g>
   <g id="patch_28">
    <path clip-path="url(#p8dc4045cd7)" d="M 384.637168 156.417641 
Q 382.021124 156.954142 379.192329 157.225511 
Q 376.363534 157.5 373.282591 157.5 
Q 364.094917 157.5 358.728874 155.466288 
Q 353.362832 153.432576 353.362832 149.954679 
Q 353.362832 146.464305 358.728874 144.433712 
Q 364.094917 142.4 373.282591 142.4 
Q 376.363534 142.4 379.192329 142.674489 
Q 382.021124 142.945858 384.637168 143.482359 
L 384.637168 146.492378 
Q 381.997485 145.781202 379.436598 145.450568 
Q 376.875712 145.119934 374.046917 145.119934 
Q 368.972421 145.119934 366.06483 146.408159 
Q 363.165118 147.693266 363.165118 149.954679 
Q 363.165118 152.206734 366.06483 153.49496 
Q 368.972421 154.780066 374.046917 154.780066 
Q 376.875712 154.780066 379.436598 154.449432 
Q 381.997485 154.115679 384.637168 153.404503 
z
" style="fill:#0000ff;"/>
   </g>
   <g id="patch_29">
    <path clip-path="url(#p8dc4045cd7)" d="M 353.362832 127.3 
L 384.637168 127.3 
L 384.637168 130.244921 
L 373.38568 130.244921 
L 373.38568 142.4 
L 364.636139 142.4 
L 364.636139 130.244921 
L 353.362832 130.244921 
z
" style="fill:#ff0000;"/>
   </g>
   <g id="patch_30">
    <path clip-path="url(#p8dc4045cd7)" d="M 375.026592 119.04775 
L 362.998985 119.04775 
L 361.099889 127.3 
L 353.362832 127.3 
L 364.412117 82 
L 373.587883 82 
L 384.637168 127.3 
L 376.906505 127.3 
z
M 364.917264 110.640163 
L 373.089131 110.640163 
L 369.009591 92.621132 
z
" style="fill:#008000;"/>
   </g>
   <g id="patch_31">
    <path clip-path="url(#p8dc4045cd7)" d="M 384.637168 76.535179 
Q 381.4831 79.267589 378.090725 80.640033 
Q 374.698349 82 371.081685 82 
Q 362.909144 82 358.135988 73.865152 
Q 353.362832 65.730304 353.362832 51.818715 
Q 353.362832 37.744929 358.220097 29.672464 
Q 363.08437 21.6 371.544282 21.6 
Q 374.803485 21.6 377.789336 22.697955 
Q 380.782196 23.783433 383.431613 25.929436 
L 383.431613 37.96951 
Q 380.698088 35.212146 377.992598 33.852179 
Q 375.287109 32.479736 372.567601 32.479736 
Q 367.535111 32.479736 364.808594 37.495394 
Q 362.082078 42.498575 362.082078 51.818715 
Q 362.082078 61.051518 364.710468 66.09213 
Q 367.338858 71.120264 372.175095 71.120264 
Q 373.492795 71.120264 374.62125 70.833299 
Q 375.749705 70.533857 376.646863 69.910019 
L 376.646863 58.606073 
L 371.495218 58.606073 
L 371.495218 48.537327 
L 384.637168 48.537327 
z
" style="fill:#ffa600;"/>
   </g>
   <g id="patch_32">
    <path clip-path="url(#p8dc4045cd7)" d="M 417.557522 153.170564 
Q 414.941478 155.316567 412.112683 156.402045 
Q 409.283888 157.5 406.202945 157.5 
Q 397.015271 157.5 391.649228 149.365152 
Q 386.283186 141.230304 386.283186 127.318715 
Q 386.283186 113.35722 391.649228 105.234848 
Q 397.015271 97.1 406.202945 97.1 
Q 409.283888 97.1 412.112683 98.197955 
Q 414.941478 99.283433 417.557522 101.429436 
L 417.557522 113.46951 
Q 414.917839 110.624809 412.356952 109.302272 
Q 409.796066 107.979736 406.967271 107.979736 
Q 401.892775 107.979736 398.985184 113.132638 
Q 396.085472 118.273063 396.085472 127.318715 
Q 396.085472 136.326937 398.985184 141.479839 
Q 401.892775 146.620264 406.967271 146.620264 
Q 409.796066 146.620264 412.356952 145.297728 
Q 414.917839 143.962714 417.557522 141.118013 
z
" style="fill:#0000ff;"/>
   </g>
   <g id="patch_33">
    <path clip-path="url(#p8dc4045cd7)" d="M 417.557522 90.268973 
Q 414.403454 93.684487 411.011079 95.400041 
Q 407.618703 97.1 404.002039 97.1 
Q 395.829498 97.1 391.056342 86.93144 
Q 386.283186 76.76288 386.283186 59.373394 
Q 386.283186 41.781161 391.140451 31.69058 
Q 396.004724 21.6 404.464635 21.6 
Q 407.723839 21.6 410.70969 22.972444 
Q 413.70255 24.329291 416.351967 27.011795 
L 416.351967 42.061888 
Q 413.618442 38.615183 410.912952 36.915224 
Q 408.207463 35.199669 405.487955 35.199669 
Q 400.455465 35.199669 397.728948 41.469242 
Q 395.002432 47.723218 395.002432 59.373394 
Q 395.002432 70.914398 397.630822 77.215162 
Q 400.259212 83.500331 405.095449 83.500331 
Q 406.413149 83.500331 407.541604 83.141624 
Q 408.670059 82.767321 409.567217 81.987523 
L 409.567217 67.857591 
L 404.415572 67.857591 
L 404.415572 55.271659 
L 417.557522 55.271659 
z
" style="fill:#ffa600;"/>
   </g>
   <g id="patch_34">
    <path clip-path="url(#p8dc4045cd7)" d="M 440.8673 154.74925 
L 428.839693 154.74925 
L 426.940597 157.5 
L 419.20354 157.5 
L 430.252825 142.4 
L 439.428591 142.4 
L 450.477876 157.5 
L 442.747213 157.5 
z
M 430.757972 151.946721 
L 438.929839 151.946721 
L 434.850299 145.940377 
z
" style="fill:#008000;"/>
   </g>
   <g id="patch_35">
    <path clip-path="url(#p8dc4045cd7)" d="M 450.477876 131.470357 
Q 447.323808 136.935179 443.931433 139.680066 
Q 440.539057 142.4 436.922393 142.4 
Q 428.749852 142.4 423.976696 126.130304 
Q 419.20354 109.860607 419.20354 82.03743 
Q 419.20354 53.889857 424.060805 37.744929 
Q 428.925078 21.6 437.384989 21.6 
Q 440.644193 21.6 443.630044 23.79591 
Q 446.622904 25.966866 449.272321 30.258872 
L 449.272321 54.339021 
Q 446.538796 48.824293 443.833306 46.104359 
Q 441.127817 43.359471 438.408309 43.359471 
Q 433.375819 43.359471 430.649302 53.390787 
Q 427.922786 63.397149 427.922786 82.03743 
Q 427.922786 100.503037 430.551176 110.584259 
Q 433.179565 120.640529 438.015803 120.640529 
Q 439.333503 120.640529 440.461958 120.066598 
Q 441.590413 119.467713 442.487571 118.220037 
L 442.487571 95.612146 
L 437.335926 95.612146 
L 437.335926 75.474654 
L 450.477876 75.474654 
z
" style="fill:#ffa600;"/>
   </g>
   <g id="patch_36">
    <path clip-path="url(#p8dc4045cd7)" d="M 452.123894 21.6 
L 483.39823 21.6 
L 483.39823 48.104286 
L 472.146742 48.104286 
L 472.146742 157.5 
L 463.397201 157.5 
L 463.397201 48.104286 
L 452.123894 48.104286 
z
" style="fill:#ff0000;"/>
   </g>
   <g id="patch_37">
    <path clip-path="url(#p8dc4045cd7)" d="M 516.318584 153.401384 
Q 513.164516 155.450692 509.772141 156.480025 
Q 506.379765 157.5 502.763101 157.5 
Q 494.59056 157.5 489.817404 151.398864 
Q 485.044248 145.297728 485.044248 134.864036 
Q 485.044248 124.308697 489.901512 118.254348 
Q 494.765786 112.2 503.225697 112.2 
Q 506.484901 112.2 509.470752 113.023466 
Q 512.463612 113.837575 515.113029 115.447077 
L 515.113029 124.477133 
Q 512.379504 122.40911 509.674014 121.389134 
Q 506.968525 120.359802 504.249017 120.359802 
Q 499.216527 120.359802 496.49001 124.121545 
Q 493.763493 127.873931 493.763493 134.864036 
Q 493.763493 141.788639 496.391883 145.569097 
Q 499.020273 149.340198 503.856511 149.340198 
Q 505.174211 149.340198 506.302666 149.124974 
Q 507.431121 148.900392 508.328279 148.432514 
L 508.328279 139.954555 
L 503.176634 139.954555 
L 503.176634 132.402995 
L 516.318584 132.402995 
z
" style="fill:#ffa600;"/>
   </g>
   <g id="patch_38">
    <path clip-path="url(#p8dc4045cd7)" d="M 506.708008 95.695499 
L 494.680401 95.695499 
L 492.781305 112.2 
L 485.044248 112.2 
L 496.093533 21.6 
L 505.269299 21.6 
L 516.318584 112.2 
L 508.587921 112.2 
z
M 496.59868 78.880326 
L 504.770547 78.880326 
L 500.691007 42.842263 
z
" style="fill:#008000;"/>
   </g>
   <g id="patch_39">
    <path clip-path="url(#p8dc4045cd7)" d="M 539.628362 149.24775 
L 527.600755 149.24775 
L 525.701659 157.5 
L 517.964602 157.5 
L 529.013887 112.2 
L 538.189653 112.2 
L 549.238938 157.5 
L 541.508275 157.5 
z
M 529.519034 140.840163 
L 537.690901 140.840163 
L 533.611361 122.821132 
z
" style="fill:#008000;"/>
   </g>
   <g id="patch_40">
    <path clip-path="url(#p8dc4045cd7)" d="M 549.238938 104.002768 
Q 546.08487 108.101384 542.692495 110.16005 
Q 539.300119 112.2 535.683455 112.2 
Q 527.510914 112.2 522.737758 99.997728 
Q 517.964602 87.795455 517.964602 66.928073 
Q 517.964602 45.817393 522.821866 33.708697 
Q 527.68614 21.6 536.146051 21.6 
Q 539.405255 21.6 542.391106 23.246932 
Q 545.383966 24.87515 548.033383 28.094154 
L 548.033383 46.154266 
Q 545.299858 42.018219 542.594368 39.978269 
Q 539.888879 37.919603 537.169371 37.919603 
Q 532.136881 37.919603 529.410364 45.44309 
Q 526.683847 52.947862 526.683847 66.928073 
Q 526.683847 80.777277 529.312237 88.338195 
Q 531.940627 95.880397 536.776865 95.880397 
Q 538.094565 95.880397 539.22302 95.449948 
Q 540.351475 95.000785 541.248633 94.065028 
L 541.248633 77.10911 
L 536.096988 77.10911 
L 536.096988 62.00599 
L 549.238938 62.00599 
z
" style="fill:#ffa600;"/>
   </g>
   <g id="patch_41">
    <path clip-path="url(#p8dc4045cd7)" d="M 582.159292 156.133795 
Q 579.005224 156.816897 575.612849 157.160008 
Q 572.220473 157.5 568.603809 157.5 
Q 560.431268 157.5 555.658112 155.466288 
Q 550.884956 153.432576 550.884956 149.954679 
Q 550.884956 146.436232 555.74222 144.418116 
Q 560.606494 142.4 569.066405 142.4 
Q 572.325609 142.4 575.31146 142.674489 
Q 578.30432 142.945858 580.953737 143.482359 
L 580.953737 146.492378 
Q 578.220212 145.803037 575.514722 145.463045 
Q 572.809233 145.119934 570.089725 145.119934 
Q 565.057235 145.119934 562.330718 146.373848 
Q 559.604201 147.624644 559.604201 149.954679 
Q 559.604201 152.26288 562.232591 153.523032 
Q 564.860981 154.780066 569.697219 154.780066 
Q 571.014919 154.780066 572.143374 154.708325 
Q 573.271829 154.633464 574.168986 154.477505 
L 574.168986 151.651518 
L 569.017342 151.651518 
L 569.017342 149.134332 
L 582.159292 149.134332 
z
" style="fill:#ffa600;"/>
   </g>
   <g id="patch_42">
    <path clip-path="url(#p8dc4045cd7)" d="M 572.548716 136.8985 
L 560.521109 136.8985 
L 558.622013 142.4 
L 550.884956 142.4 
L 561.934241 112.2 
L 571.110007 112.2 
L 582.159292 142.4 
L 574.428629 142.4 
z
M 562.439387 131.293442 
L 570.611255 131.293442 
L 566.531715 119.280754 
z
" style="fill:#008000;"/>
   </g>
   <g id="patch_43">
    <path clip-path="url(#p8dc4045cd7)" d="M 582.159292 110.035282 
Q 579.543248 111.108283 576.714453 111.651023 
Q 573.885658 112.2 570.804714 112.2 
Q 561.617041 112.2 556.250998 108.132576 
Q 550.884956 104.065152 550.884956 97.109358 
Q 550.884956 90.12861 556.250998 86.067424 
Q 561.617041 82 570.804714 82 
Q 573.885658 82 576.714453 82.548977 
Q 579.543248 83.091717 582.159292 84.164718 
L 582.159292 90.184755 
Q 579.519609 88.762404 576.958722 88.101136 
Q 574.397835 87.439868 571.569041 87.439868 
Q 566.494545 87.439868 563.586954 90.016319 
Q 560.687242 92.586532 560.687242 97.109358 
Q 560.687242 101.613468 563.586954 104.189919 
Q 566.494545 106.760132 571.569041 106.760132 
Q 574.397835 106.760132 576.958722 106.098864 
Q 579.519609 105.431357 582.159292 104.009006 
z
" style="fill:#0000ff;"/>
   </g>
   <g id="patch_44">
    <path clip-path="url(#p8dc4045cd7)" d="M 550.884956 21.6 
L 582.159292 21.6 
L 582.159292 33.379683 
L 570.907804 33.379683 
L 570.907804 82 
L 562.158263 82 
L 562.158263 33.379683 
L 550.884956 33.379683 
z
" style="fill:#ff0000;"/>
   </g>
   <g id="patch_45">
    <path clip-path="url(#p8dc4045cd7)" d="M 615.079646 156.417641 
Q 612.463602 156.954142 609.634807 157.225511 
Q 606.806012 157.5 603.725068 157.5 
Q 594.537395 157.5 589.171352 155.466288 
Q 583.80531 153.432576 583.80531 149.954679 
Q 583.80531 146.464305 589.171352 144.433712 
Q 594.537395 142.4 603.725068 142.4 
Q 606.806012 142.4 609.634807 142.674489 
Q 612.463602 142.945858 615.079646 143.482359 
L 615.079646 146.492378 
Q 612.439963 145.781202 609.879076 145.450568 
Q 607.318189 145.119934 604.489395 145.119934 
Q 599.414899 145.119934 596.507308 146.408159 
Q 593.607596 147.693266 593.607596 149.954679 
Q 593.607596 152.206734 596.507308 153.49496 
Q 599.414899 154.780066 604.489395 154.780066 
Q 607.318189 154.780066 609.879076 154.449432 
Q 612.439963 154.115679 615.079646 153.404503 
z
" style="fill:#0000ff;"/>
   </g>
   <g id="patch_46">
    <path clip-path="url(#p8dc4045cd7)" d="M 583.80531 112.2 
L 615.079646 112.2 
L 615.079646 118.089841 
L 603.828158 118.089841 
L 603.828158 142.4 
L 595.078617 142.4 
L 595.078617 118.089841 
L 583.80531 118.089841 
z
" style="fill:#ff0000;"/>
   </g>
   <g id="patch_47">
    <path clip-path="url(#p8dc4045cd7)" d="M 605.46907 95.695499 
L 593.441463 95.695499 
L 591.542367 112.2 
L 583.80531 112.2 
L 594.854595 21.6 
L 604.030361 21.6 
L 615.079646 112.2 
L 607.348983 112.2 
z
M 595.359741 78.880326 
L 603.531609 78.880326 
L 599.452069 42.842263 
z
" style="fill:#008000;"/>
   </g>
   <g id="patch_48">
    <path clip-path="url(#p8dc4045cd7)" d="M 638.389424 154.74925 
L 626.361817 154.74925 
L 624.462721 157.5 
L 616.725664 157.5 
L 627.774949 142.4 
L 636.950715 142.4 
L 648 157.5 
L 640.269337 157.5 
z
M 628.280095 151.946721 
L 636.451963 151.946721 
L 632.372423 145.940377 
z
" style="fill:#008000;"/>
   </g>
   <g id="patch_49">
    <path clip-path="url(#p8dc4045cd7)" d="M 616.725664 97.1 
L 648 97.1 
L 648 105.934762 
L 636.748512 105.934762 
L 636.748512 142.4 
L 627.998971 142.4 
L 627.998971 105.934762 
L 616.725664 105.934762 
z
" style="fill:#ff0000;"/>
   </g>
   <g id="patch_50">
    <path clip-path="url(#p8dc4045cd7)" d="M 648 91.688205 
Q 645.383956 94.370709 642.555161 95.727556 
Q 639.726366 97.1 636.645422 97.1 
Q 627.457749 97.1 622.091706 86.93144 
Q 616.725664 76.76288 616.725664 59.373394 
Q 616.725664 41.921524 622.091706 31.76856 
Q 627.457749 21.6 636.645422 21.6 
Q 639.726366 21.6 642.555161 22.972444 
Q 645.383956 24.329291 648 27.011795 
L 648 42.061888 
Q 645.360317 38.506011 642.79943 36.85284 
Q 640.238543 35.199669 637.409749 35.199669 
Q 632.335253 35.199669 629.427662 41.640797 
Q 626.52795 48.066329 626.52795 59.373394 
Q 626.52795 70.633671 629.427662 77.074799 
Q 632.335253 83.500331 637.409749 83.500331 
Q 640.238543 83.500331 642.79943 81.84716 
Q 645.360317 80.178393 648 76.622516 
z
" style="fill:#0000ff;"/>
   </g>
  </g>
 </g>
 <defs>
  <clipPath id="p8dc4045cd7">
   <rect height="135.9" width="558" x="90" y="21.6"/>
  </clipPath>
 </defs>
</svg>
