<?xml version="1.0" encoding="utf-8" standalone="no"?>
<!DOCTYPE svg PUBLIC "-//W3C//DTD SVG 1.1//EN"
  "http://www.w3.org/Graphics/SVG/1.1/DTD/svg11.dtd">
<!-- Created with matplotlib (https://matplotlib.org/) -->
<svg height="180pt" version="1.1" viewBox="0 0 720 180" width="720pt" xmlns="http://www.w3.org/2000/svg" xmlns:xlink="http://www.w3.org/1999/xlink">
 <metadata>
  <rdf:RDF xmlns:cc="http://creativecommons.org/ns#" xmlns:dc="http://purl.org/dc/elements/1.1/" xmlns:rdf="http://www.w3.org/1999/02/22-rdf-syntax-ns#">
   <cc:Work>
    <dc:type rdf:resource="http://purl.org/dc/dcmitype/StillImage"/>
    <dc:date>2021-08-04T23:32:55.104880</dc:date>
    <dc:format>image/svg+xml</dc:format>
    <dc:creator>
     <cc:Agent>
      <dc:title>Matplotlib v3.3.2, https://matplotlib.org/</dc:title>
     </cc:Agent>
    </dc:creator>
   </cc:Work>
  </rdf:RDF>
 </metadata>
 <defs>
  <style type="text/css">*{stroke-linecap:butt;stroke-linejoin:round;}</style>
 </defs>
 <g id="figure_1">
  <g id="patch_1">
   <path d="M 0 180 
L 720 180 
L 720 0 
L 0 0 
z
" style="fill:none;"/>
  </g>
  <g id="axes_1">
   <g id="line2d_1">
    <path clip-path="url(#pd46c26c1c7)" d="M 90 157.5 
L 648 157.5 
" style="fill:none;stroke:#000000;stroke-linecap:square;stroke-width:0.5;"/>
   </g>
   <g id="patch_2">
    <path clip-path="url(#pd46c26c1c7)" d="M 121.274336 156.133795 
Q 118.120268 156.816897 114.727893 157.160008 
Q 111.335518 157.5 107.718853 157.5 
Q 99.546312 157.5 94.773156 155.466288 
Q 90 153.432576 90 149.954679 
Q 90 146.436232 94.857265 144.418116 
Q 99.721538 142.4 108.18145 142.4 
Q 111.440653 142.4 114.426504 142.674489 
Q 117.419364 142.945858 120.068781 143.482359 
L 120.068781 146.492378 
Q 117.335256 145.803037 114.629766 145.463045 
Q 111.924277 145.119934 109.204769 145.119934 
Q 104.172279 145.119934 101.445762 146.373848 
Q 98.719246 147.624644 98.719246 149.954679 
Q 98.719246 152.26288 101.347636 153.523032 
Q 103.976026 154.780066 108.812263 154.780066 
Q 110.129963 154.780066 111.258418 154.708325 
Q 112.386874 154.633464 113.284031 154.477505 
L 113.284031 151.651518 
L 108.132386 151.651518 
L 108.132386 149.134332 
L 121.274336 149.134332 
z
" style="fill:#ffa600;"/>
   </g>
   <g id="patch_3">
    <path clip-path="url(#pd46c26c1c7)" d="M 90 127.3 
L 121.274336 127.3 
L 121.274336 130.244921 
L 110.022848 130.244921 
L 110.022848 142.4 
L 101.273307 142.4 
L 101.273307 130.244921 
L 90 130.244921 
z
" style="fill:#ff0000;"/>
   </g>
   <g id="patch_4">
    <path clip-path="url(#pd46c26c1c7)" d="M 111.66376 119.04775 
L 99.636153 119.04775 
L 97.737057 127.3 
L 90 127.3 
L 101.049285 82 
L 110.225051 82 
L 121.274336 127.3 
L 113.543673 127.3 
z
M 101.554432 110.640163 
L 109.726299 110.640163 
L 105.64676 92.621132 
z
" style="fill:#008000;"/>
   </g>
   <g id="patch_5">
    <path clip-path="url(#pd46c26c1c7)" d="M 121.274336 77.670564 
Q 118.658292 79.816567 115.829497 80.902045 
Q 113.000702 82 109.919759 82 
Q 100.732085 82 95.366043 73.865152 
Q 90 65.730304 90 51.818715 
Q 90 37.85722 95.366043 29.734848 
Q 100.732085 21.6 109.919759 21.6 
Q 113.000702 21.6 115.829497 22.697955 
Q 118.658292 23.783433 121.274336 25.929436 
L 121.274336 37.96951 
Q 118.634653 35.124809 116.073766 33.802272 
Q 113.51288 32.479736 110.684085 32.479736 
Q 105.609589 32.479736 102.701998 37.632638 
Q 99.802286 42.773063 99.802286 51.818715 
Q 99.802286 60.826937 102.701998 65.979839 
Q 105.609589 71.120264 110.684085 71.120264 
Q 113.51288 71.120264 116.073766 69.797728 
Q 118.634653 68.462714 121.274336 65.618013 
z
" style="fill:#0000ff;"/>
   </g>
   <g id="patch_6">
    <path clip-path="url(#pd46c26c1c7)" d="M 154.19469 156.133795 
Q 151.040622 156.816897 147.648247 157.160008 
Q 144.255872 157.5 140.639207 157.5 
Q 132.466666 157.5 127.69351 155.466288 
Q 122.920354 153.432576 122.920354 149.954679 
Q 122.920354 146.436232 127.777619 144.418116 
Q 132.641892 142.4 141.101804 142.4 
Q 144.361007 142.4 147.346858 142.674489 
Q 150.339718 142.945858 152.989135 143.482359 
L 152.989135 146.492378 
Q 150.25561 145.803037 147.55012 145.463045 
Q 144.844631 145.119934 142.125123 145.119934 
Q 137.092633 145.119934 134.366116 146.373848 
Q 131.6396 147.624644 131.6396 149.954679 
Q 131.6396 152.26288 134.26799 153.523032 
Q 136.89638 154.780066 141.732617 154.780066 
Q 143.050317 154.780066 144.178772 154.708325 
Q 145.307228 154.633464 146.204385 154.477505 
L 146.204385 151.651518 
L 141.05274 151.651518 
L 141.05274 149.134332 
L 154.19469 149.134332 
z
" style="fill:#ffa600;"/>
   </g>
   <g id="patch_7">
    <path clip-path="url(#pd46c26c1c7)" d="M 122.920354 97.1 
L 154.19469 97.1 
L 154.19469 105.934762 
L 142.943202 105.934762 
L 142.943202 142.4 
L 134.193661 142.4 
L 134.193661 105.934762 
L 122.920354 105.934762 
z
" style="fill:#ff0000;"/>
   </g>
   <g id="patch_8">
    <path clip-path="url(#pd46c26c1c7)" d="M 154.19469 91.688205 
Q 151.578646 94.370709 148.749851 95.727556 
Q 145.921056 97.1 142.840113 97.1 
Q 133.652439 97.1 128.286397 86.93144 
Q 122.920354 76.76288 122.920354 59.373394 
Q 122.920354 41.921524 128.286397 31.76856 
Q 133.652439 21.6 142.840113 21.6 
Q 145.921056 21.6 148.749851 22.972444 
Q 151.578646 24.329291 154.19469 27.011795 
L 154.19469 42.061888 
Q 151.555007 38.506011 148.99412 36.85284 
Q 146.433234 35.199669 143.604439 35.199669 
Q 138.529943 35.199669 135.622352 41.640797 
Q 132.72264 48.066329 132.72264 59.373394 
Q 132.72264 70.633671 135.622352 77.074799 
Q 138.529943 83.500331 143.604439 83.500331 
Q 146.433234 83.500331 148.99412 81.84716 
Q 151.555007 80.178393 154.19469 76.622516 
z
" style="fill:#0000ff;"/>
   </g>
   <g id="patch_9">
    <path clip-path="url(#pd46c26c1c7)" d="M 155.840708 142.4 
L 187.115044 142.4 
L 187.115044 145.344921 
L 175.863556 145.344921 
L 175.863556 157.5 
L 167.114015 157.5 
L 167.114015 145.344921 
L 155.840708 145.344921 
z
" style="fill:#ff0000;"/>
   </g>
   <g id="patch_10">
    <path clip-path="url(#pd46c26c1c7)" d="M 187.115044 139.667589 
Q 183.960976 141.033795 180.568601 141.720017 
Q 177.176226 142.4 173.559561 142.4 
Q 165.38702 142.4 160.613864 138.332576 
Q 155.840708 134.265152 155.840708 127.309358 
Q 155.840708 120.272464 160.697973 116.236232 
Q 165.562246 112.2 174.022158 112.2 
Q 177.281361 112.2 180.267212 112.748977 
Q 183.260072 113.291717 185.909489 114.364718 
L 185.909489 120.384755 
Q 183.175964 119.006073 180.470474 118.32609 
Q 177.764985 117.639868 175.045477 117.639868 
Q 170.012987 117.639868 167.28647 120.147697 
Q 164.559954 122.649287 164.559954 127.309358 
Q 164.559954 131.925759 167.188344 134.446065 
Q 169.816734 136.960132 174.652971 136.960132 
Q 175.970671 136.960132 177.099126 136.816649 
Q 178.227582 136.666928 179.124739 136.355009 
L 179.124739 130.703037 
L 173.973094 130.703037 
L 173.973094 125.668663 
L 187.115044 125.668663 
z
" style="fill:#ffa600;"/>
   </g>
   <g id="patch_11">
    <path clip-path="url(#pd46c26c1c7)" d="M 177.504468 103.94775 
L 165.476861 103.94775 
L 163.577765 112.2 
L 155.840708 112.2 
L 166.889993 66.9 
L 176.065759 66.9 
L 187.115044 112.2 
L 179.384381 112.2 
z
M 167.39514 95.540163 
L 175.567007 95.540163 
L 171.487467 77.521132 
z
" style="fill:#008000;"/>
   </g>
   <g id="patch_12">
    <path clip-path="url(#pd46c26c1c7)" d="M 187.115044 63.652923 
Q 184.499 65.262425 181.670205 66.076534 
Q 178.84141 66.9 175.760467 66.9 
Q 166.572793 66.9 161.206751 60.798864 
Q 155.840708 54.697728 155.840708 44.264036 
Q 155.840708 33.792915 161.206751 27.701136 
Q 166.572793 21.6 175.760467 21.6 
Q 178.84141 21.6 181.670205 22.423466 
Q 184.499 23.237575 187.115044 24.847077 
L 187.115044 33.877133 
Q 184.475361 31.743607 181.914474 30.751704 
Q 179.353588 29.759802 176.524793 29.759802 
Q 171.450297 29.759802 168.542706 33.624478 
Q 165.642994 37.479798 165.642994 44.264036 
Q 165.642994 51.020202 168.542706 54.884879 
Q 171.450297 58.740198 176.524793 58.740198 
Q 179.353588 58.740198 181.914474 57.748296 
Q 184.475361 56.747036 187.115044 54.61351 
z
" style="fill:#0000ff;"/>
   </g>
   <g id="patch_13">
    <path clip-path="url(#pd46c26c1c7)" d="M 210.424822 151.9985 
L 198.397215 151.9985 
L 196.498119 157.5 
L 188.761062 157.5 
L 199.810347 127.3 
L 208.986113 127.3 
L 220.035398 157.5 
L 212.304735 157.5 
z
M 200.315494 146.393442 
L 208.487361 146.393442 
L 204.407821 134.380754 
z
" style="fill:#008000;"/>
   </g>
   <g id="patch_14">
    <path clip-path="url(#pd46c26c1c7)" d="M 220.035398 125.135282 
Q 217.419354 126.208283 214.590559 126.751023 
Q 211.761764 127.3 208.680821 127.3 
Q 199.493147 127.3 194.127105 123.232576 
Q 188.761062 119.165152 188.761062 112.209358 
Q 188.761062 105.22861 194.127105 101.167424 
Q 199.493147 97.1 208.680821 97.1 
Q 211.761764 97.1 214.590559 97.648977 
Q 217.419354 98.191717 220.035398 99.264718 
L 220.035398 105.284755 
Q 217.395715 103.862404 214.834828 103.201136 
Q 212.273942 102.539868 209.445147 102.539868 
Q 204.370651 102.539868 201.46306 105.116319 
Q 198.563348 107.686532 198.563348 112.209358 
Q 198.563348 116.713468 201.46306 119.289919 
Q 204.370651 121.860132 209.445147 121.860132 
Q 212.273942 121.860132 214.834828 121.198864 
Q 217.395715 120.531357 220.035398 119.109006 
z
" style="fill:#0000ff;"/>
   </g>
   <g id="patch_15">
    <path clip-path="url(#pd46c26c1c7)" d="M 220.035398 90.268973 
Q 216.88133 93.684487 213.488955 95.400041 
Q 210.09658 97.1 206.479915 97.1 
Q 198.307374 97.1 193.534218 86.93144 
Q 188.761062 76.76288 188.761062 59.373394 
Q 188.761062 41.781161 193.618327 31.69058 
Q 198.4826 21.6 206.942512 21.6 
Q 210.201715 21.6 213.187566 22.972444 
Q 216.180426 24.329291 218.829843 27.011795 
L 218.829843 42.061888 
Q 216.096318 38.615183 213.390828 36.915224 
Q 210.685339 35.199669 207.965831 35.199669 
Q 202.933341 35.199669 200.206824 41.469242 
Q 197.480308 47.723218 197.480308 59.373394 
Q 197.480308 70.914398 200.108698 77.215162 
Q 202.737088 83.500331 207.573325 83.500331 
Q 208.891025 83.500331 210.01948 83.141624 
Q 211.147936 82.767321 212.045093 81.987523 
L 212.045093 67.857591 
L 206.893448 67.857591 
L 206.893448 55.271659 
L 220.035398 55.271659 
z
" style="fill:#ffa600;"/>
   </g>
   <g id="patch_16">
    <path clip-path="url(#pd46c26c1c7)" d="M 221.681416 142.4 
L 252.955752 142.4 
L 252.955752 145.344921 
L 241.704264 145.344921 
L 241.704264 157.5 
L 232.954723 157.5 
L 232.954723 145.344921 
L 221.681416 145.344921 
z
" style="fill:#ff0000;"/>
   </g>
   <g id="patch_17">
    <path clip-path="url(#pd46c26c1c7)" d="M 243.345176 136.8985 
L 231.317569 136.8985 
L 229.418473 142.4 
L 221.681416 142.4 
L 232.730701 112.2 
L 241.906467 112.2 
L 252.955752 142.4 
L 245.225089 142.4 
z
M 233.235848 131.293442 
L 241.407715 131.293442 
L 237.328175 119.280754 
z
" style="fill:#008000;"/>
   </g>
   <g id="patch_18">
    <path clip-path="url(#pd46c26c1c7)" d="M 252.955752 105.705846 
Q 250.339708 108.92485 247.510913 110.553068 
Q 244.682118 112.2 241.601175 112.2 
Q 232.413501 112.2 227.047459 99.997728 
Q 221.681416 87.795455 221.681416 66.928073 
Q 221.681416 45.985829 227.047459 33.802272 
Q 232.413501 21.6 241.601175 21.6 
Q 244.682118 21.6 247.510913 23.246932 
Q 250.339708 24.87515 252.955752 28.094154 
L 252.955752 46.154266 
Q 250.316069 41.887213 247.755182 39.903408 
Q 245.194296 37.919603 242.365501 37.919603 
Q 237.291005 37.919603 234.383414 45.648957 
Q 231.483702 53.359595 231.483702 66.928073 
Q 231.483702 80.440405 234.383414 88.169758 
Q 237.291005 95.880397 242.365501 95.880397 
Q 245.194296 95.880397 247.755182 93.896592 
Q 250.316069 91.894071 252.955752 87.627019 
z
" style="fill:#0000ff;"/>
   </g>
   <g id="patch_19">
    <path clip-path="url(#pd46c26c1c7)" d="M 254.60177 142.4 
L 285.876106 142.4 
L 285.876106 145.344921 
L 274.624618 145.344921 
L 274.624618 157.5 
L 265.875077 157.5 
L 265.875077 145.344921 
L 254.60177 145.344921 
z
" style="fill:#ff0000;"/>
   </g>
   <g id="patch_20">
    <path clip-path="url(#pd46c26c1c7)" d="M 285.876106 133.741128 
Q 283.260062 138.033134 280.431267 140.20409 
Q 277.602472 142.4 274.521529 142.4 
Q 265.333855 142.4 259.967812 126.130304 
Q 254.60177 109.860607 254.60177 82.03743 
Q 254.60177 54.114439 259.967812 37.869696 
Q 265.333855 21.6 274.521529 21.6 
Q 277.602472 21.6 280.431267 23.79591 
Q 283.260062 25.966866 285.876106 30.258872 
L 285.876106 54.339021 
Q 283.236423 48.649618 280.675536 46.004545 
Q 278.11465 43.359471 275.285855 43.359471 
Q 270.211359 43.359471 267.303768 53.665276 
Q 264.404056 63.946127 264.404056 82.03743 
Q 264.404056 100.053873 267.303768 110.359678 
Q 270.211359 120.640529 275.285855 120.640529 
Q 278.11465 120.640529 280.675536 117.995455 
Q 283.236423 115.325429 285.876106 109.636026 
z
" style="fill:#0000ff;"/>
   </g>
   <g id="patch_21">
    <path clip-path="url(#pd46c26c1c7)" d="M 318.79646 147.758769 
Q 316.180416 152.587275 313.351621 155.029601 
Q 310.522826 157.5 307.441883 157.5 
Q 298.254209 157.5 292.888166 139.196592 
Q 287.522124 120.893183 287.522124 89.592109 
Q 287.522124 58.178744 292.888166 39.903408 
Q 298.254209 21.6 307.441883 21.6 
Q 310.522826 21.6 313.351621 24.070399 
Q 316.180416 26.512725 318.79646 31.341231 
L 318.79646 58.431398 
Q 316.156777 52.03082 313.59589 49.055113 
Q 311.035004 46.079405 308.206209 46.079405 
Q 303.131713 46.079405 300.224122 57.673435 
Q 297.32441 69.239393 297.32441 89.592109 
Q 297.32441 109.860607 300.224122 121.454637 
Q 303.131713 133.020595 308.206209 133.020595 
Q 311.035004 133.020595 313.59589 130.044887 
Q 316.156777 127.041107 318.79646 120.640529 
z
" style="fill:#0000ff;"/>
   </g>
   <g id="patch_22">
    <path clip-path="url(#pd46c26c1c7)" d="M 351.716814 156.133795 
Q 348.562746 156.816897 345.170371 157.160008 
Q 341.777996 157.5 338.161331 157.5 
Q 329.98879 157.5 325.215634 155.466288 
Q 320.442478 153.432576 320.442478 149.954679 
Q 320.442478 146.436232 325.299743 144.418116 
Q 330.164016 142.4 338.623928 142.4 
Q 341.883131 142.4 344.868982 142.674489 
Q 347.861842 142.945858 350.511259 143.482359 
L 350.511259 146.492378 
Q 347.777734 145.803037 345.072244 145.463045 
Q 342.366755 145.119934 339.647247 145.119934 
Q 334.614757 145.119934 331.88824 146.373848 
Q 329.161724 147.624644 329.161724 149.954679 
Q 329.161724 152.26288 331.790114 153.523032 
Q 334.418504 154.780066 339.254741 154.780066 
Q 340.572441 154.780066 341.700896 154.708325 
Q 342.829351 154.633464 343.726509 154.477505 
L 343.726509 151.651518 
L 338.574864 151.651518 
L 338.574864 149.134332 
L 351.716814 149.134332 
z
" style="fill:#ffa600;"/>
   </g>
   <g id="patch_23">
    <path clip-path="url(#pd46c26c1c7)" d="M 351.716814 133.741128 
Q 349.10077 138.033134 346.271975 140.20409 
Q 343.44318 142.4 340.362237 142.4 
Q 331.174563 142.4 325.80852 126.130304 
Q 320.442478 109.860607 320.442478 82.03743 
Q 320.442478 54.114439 325.80852 37.869696 
Q 331.174563 21.6 340.362237 21.6 
Q 343.44318 21.6 346.271975 23.79591 
Q 349.10077 25.966866 351.716814 30.258872 
L 351.716814 54.339021 
Q 349.077131 48.649618 346.516244 46.004545 
Q 343.955358 43.359471 341.126563 43.359471 
Q 336.052067 43.359471 333.144476 53.665276 
Q 330.244764 63.946127 330.244764 82.03743 
Q 330.244764 100.053873 333.144476 110.359678 
Q 336.052067 120.640529 341.126563 120.640529 
Q 343.955358 120.640529 346.516244 117.995455 
Q 349.077131 115.325429 351.716814 109.636026 
z
" style="fill:#0000ff;"/>
   </g>
   <g id="patch_24">
    <path clip-path="url(#pd46c26c1c7)" d="M 353.362832 142.4 
L 384.637168 142.4 
L 384.637168 145.344921 
L 373.38568 145.344921 
L 373.38568 157.5 
L 364.636139 157.5 
L 364.636139 145.344921 
L 353.362832 145.344921 
z
" style="fill:#ff0000;"/>
   </g>
   <g id="patch_25">
    <path clip-path="url(#pd46c26c1c7)" d="M 384.637168 133.741128 
Q 382.021124 138.033134 379.192329 140.20409 
Q 376.363534 142.4 373.282591 142.4 
Q 364.094917 142.4 358.728874 126.130304 
Q 353.362832 109.860607 353.362832 82.03743 
Q 353.362832 54.114439 358.728874 37.869696 
Q 364.094917 21.6 373.282591 21.6 
Q 376.363534 21.6 379.192329 23.79591 
Q 382.021124 25.966866 384.637168 30.258872 
L 384.637168 54.339021 
Q 381.997485 48.649618 379.436598 46.004545 
Q 376.875712 43.359471 374.046917 43.359471 
Q 368.972421 43.359471 366.06483 53.665276 
Q 363.165118 63.946127 363.165118 82.03743 
Q 363.165118 100.053873 366.06483 110.359678 
Q 368.972421 120.640529 374.046917 120.640529 
Q 376.875712 120.640529 379.436598 117.995455 
Q 381.997485 115.325429 384.637168 109.636026 
z
" style="fill:#0000ff;"/>
   </g>
   <g id="patch_26">
    <path clip-path="url(#pd46c26c1c7)" d="M 417.557522 147.758769 
Q 414.941478 152.587275 412.112683 155.029601 
Q 409.283888 157.5 406.202945 157.5 
Q 397.015271 157.5 391.649228 139.196592 
Q 386.283186 120.893183 386.283186 89.592109 
Q 386.283186 58.178744 391.649228 39.903408 
Q 397.015271 21.6 406.202945 21.6 
Q 409.283888 21.6 412.112683 24.070399 
Q 414.941478 26.512725 417.557522 31.341231 
L 417.557522 58.431398 
Q 414.917839 52.03082 412.356952 49.055113 
Q 409.796066 46.079405 406.967271 46.079405 
Q 401.892775 46.079405 398.985184 57.673435 
Q 396.085472 69.239393 396.085472 89.592109 
Q 396.085472 109.860607 398.985184 121.454637 
Q 401.892775 133.020595 406.967271 133.020595 
Q 409.796066 133.020595 412.356952 130.044887 
Q 414.917839 127.041107 417.557522 120.640529 
z
" style="fill:#0000ff;"/>
   </g>
   <g id="patch_27">
    <path clip-path="url(#pd46c26c1c7)" d="M 440.8673 154.74925 
L 428.839693 154.74925 
L 426.940597 157.5 
L 419.20354 157.5 
L 430.252825 142.4 
L 439.428591 142.4 
L 450.477876 157.5 
L 442.747213 157.5 
z
M 430.757972 151.946721 
L 438.929839 151.946721 
L 434.850299 145.940377 
z
" style="fill:#008000;"/>
   </g>
   <g id="patch_28">
    <path clip-path="url(#pd46c26c1c7)" d="M 450.477876 133.741128 
Q 447.861832 138.033134 445.033037 140.20409 
Q 442.204242 142.4 439.123298 142.4 
Q 429.935625 142.4 424.569582 126.130304 
Q 419.20354 109.860607 419.20354 82.03743 
Q 419.20354 54.114439 424.569582 37.869696 
Q 429.935625 21.6 439.123298 21.6 
Q 442.204242 21.6 445.033037 23.79591 
Q 447.861832 25.966866 450.477876 30.258872 
L 450.477876 54.339021 
Q 447.838193 48.649618 445.277306 46.004545 
Q 442.71642 43.359471 439.887625 43.359471 
Q 434.813129 43.359471 431.905538 53.665276 
Q 429.005826 63.946127 429.005826 82.03743 
Q 429.005826 100.053873 431.905538 110.359678 
Q 434.813129 120.640529 439.887625 120.640529 
Q 442.71642 120.640529 445.277306 117.995455 
Q 447.838193 115.325429 450.477876 109.636026 
z
" style="fill:#0000ff;"/>
   </g>
   <g id="patch_29">
    <path clip-path="url(#pd46c26c1c7)" d="M 483.39823 156.133795 
Q 480.244162 156.816897 476.851787 157.160008 
Q 473.459411 157.5 469.842747 157.5 
Q 461.670206 157.5 456.89705 155.466288 
Q 452.123894 153.432576 452.123894 149.954679 
Q 452.123894 146.436232 456.981158 144.418116 
Q 461.845432 142.4 470.305343 142.4 
Q 473.564547 142.4 476.550398 142.674489 
Q 479.543258 142.945858 482.192675 143.482359 
L 482.192675 146.492378 
Q 479.45915 145.803037 476.75366 145.463045 
Q 474.048171 145.119934 471.328663 145.119934 
Q 466.296173 145.119934 463.569656 146.373848 
Q 460.84314 147.624644 460.84314 149.954679 
Q 460.84314 152.26288 463.471529 153.523032 
Q 466.099919 154.780066 470.936157 154.780066 
Q 472.253857 154.780066 473.382312 154.708325 
Q 474.510767 154.633464 475.407925 154.477505 
L 475.407925 151.651518 
L 470.25628 151.651518 
L 470.25628 149.134332 
L 483.39823 149.134332 
z
" style="fill:#ffa600;"/>
   </g>
   <g id="patch_30">
    <path clip-path="url(#pd46c26c1c7)" d="M 483.39823 133.741128 
Q 480.782186 138.033134 477.953391 140.20409 
Q 475.124596 142.4 472.043652 142.4 
Q 462.855979 142.4 457.489936 126.130304 
Q 452.123894 109.860607 452.123894 82.03743 
Q 452.123894 54.114439 457.489936 37.869696 
Q 462.855979 21.6 472.043652 21.6 
Q 475.124596 21.6 477.953391 23.79591 
Q 480.782186 25.966866 483.39823 30.258872 
L 483.39823 54.339021 
Q 480.758547 48.649618 478.19766 46.004545 
Q 475.636773 43.359471 472.807979 43.359471 
Q 467.733483 43.359471 464.825892 53.665276 
Q 461.92618 63.946127 461.92618 82.03743 
Q 461.92618 100.053873 464.825892 110.359678 
Q 467.733483 120.640529 472.807979 120.640529 
Q 475.636773 120.640529 478.19766 117.995455 
Q 480.758547 115.325429 483.39823 109.636026 
z
" style="fill:#0000ff;"/>
   </g>
   <g id="patch_31">
    <path clip-path="url(#pd46c26c1c7)" d="M 516.318584 156.133795 
Q 513.164516 156.816897 509.772141 157.160008 
Q 506.379765 157.5 502.763101 157.5 
Q 494.59056 157.5 489.817404 155.466288 
Q 485.044248 153.432576 485.044248 149.954679 
Q 485.044248 146.436232 489.901512 144.418116 
Q 494.765786 142.4 503.225697 142.4 
Q 506.484901 142.4 509.470752 142.674489 
Q 512.463612 142.945858 515.113029 143.482359 
L 515.113029 146.492378 
Q 512.379504 145.803037 509.674014 145.463045 
Q 506.968525 145.119934 504.249017 145.119934 
Q 499.216527 145.119934 496.49001 146.373848 
Q 493.763493 147.624644 493.763493 149.954679 
Q 493.763493 152.26288 496.391883 153.523032 
Q 499.020273 154.780066 503.856511 154.780066 
Q 505.174211 154.780066 506.302666 154.708325 
Q 507.431121 154.633464 508.328279 154.477505 
L 508.328279 151.651518 
L 503.176634 151.651518 
L 503.176634 149.134332 
L 516.318584 149.134332 
z
" style="fill:#ffa600;"/>
   </g>
   <g id="patch_32">
    <path clip-path="url(#pd46c26c1c7)" d="M 506.708008 136.8985 
L 494.680401 136.8985 
L 492.781305 142.4 
L 485.044248 142.4 
L 496.093533 112.2 
L 505.269299 112.2 
L 516.318584 142.4 
L 508.587921 142.4 
z
M 496.59868 131.293442 
L 504.770547 131.293442 
L 500.691007 119.280754 
z
" style="fill:#008000;"/>
   </g>
   <g id="patch_33">
    <path clip-path="url(#pd46c26c1c7)" d="M 485.044248 82 
L 516.318584 82 
L 516.318584 87.889841 
L 505.067096 87.889841 
L 505.067096 112.2 
L 496.317555 112.2 
L 496.317555 87.889841 
L 485.044248 87.889841 
z
" style="fill:#ff0000;"/>
   </g>
   <g id="patch_34">
    <path clip-path="url(#pd46c26c1c7)" d="M 516.318584 77.670564 
Q 513.70254 79.816567 510.873745 80.902045 
Q 508.04495 82 504.964006 82 
Q 495.776333 82 490.41029 73.865152 
Q 485.044248 65.730304 485.044248 51.818715 
Q 485.044248 37.85722 490.41029 29.734848 
Q 495.776333 21.6 504.964006 21.6 
Q 508.04495 21.6 510.873745 22.697955 
Q 513.70254 23.783433 516.318584 25.929436 
L 516.318584 37.96951 
Q 513.678901 35.124809 511.118014 33.802272 
Q 508.557127 32.479736 505.728333 32.479736 
Q 500.653837 32.479736 497.746246 37.632638 
Q 494.846534 42.773063 494.846534 51.818715 
Q 494.846534 60.826937 497.746246 65.979839 
Q 500.653837 71.120264 505.728333 71.120264 
Q 508.557127 71.120264 511.118014 69.797728 
Q 513.678901 68.462714 516.318584 65.618013 
z
" style="fill:#0000ff;"/>
   </g>
   <g id="patch_35">
    <path clip-path="url(#pd46c26c1c7)" d="M 549.238938 155.335282 
Q 546.622894 156.408283 543.794099 156.951023 
Q 540.965304 157.5 537.88436 157.5 
Q 528.696687 157.5 523.330644 153.432576 
Q 517.964602 149.365152 517.964602 142.409358 
Q 517.964602 135.42861 523.330644 131.367424 
Q 528.696687 127.3 537.88436 127.3 
Q 540.965304 127.3 543.794099 127.848977 
Q 546.622894 128.391717 549.238938 129.464718 
L 549.238938 135.484755 
Q 546.599255 134.062404 544.038368 133.401136 
Q 541.477481 132.739868 538.648687 132.739868 
Q 533.574191 132.739868 530.6666 135.316319 
Q 527.766888 137.886532 527.766888 142.409358 
Q 527.766888 146.913468 530.6666 149.489919 
Q 533.574191 152.060132 538.648687 152.060132 
Q 541.477481 152.060132 544.038368 151.398864 
Q 546.599255 150.731357 549.238938 149.309006 
z
" style="fill:#0000ff;"/>
   </g>
   <g id="patch_36">
    <path clip-path="url(#pd46c26c1c7)" d="M 549.238938 124.567589 
Q 546.08487 125.933795 542.692495 126.620017 
Q 539.300119 127.3 535.683455 127.3 
Q 527.510914 127.3 522.737758 123.232576 
Q 517.964602 119.165152 517.964602 112.209358 
Q 517.964602 105.172464 522.821866 101.136232 
Q 527.68614 97.1 536.146051 97.1 
Q 539.405255 97.1 542.391106 97.648977 
Q 545.383966 98.191717 548.033383 99.264718 
L 548.033383 105.284755 
Q 545.299858 103.906073 542.594368 103.22609 
Q 539.888879 102.539868 537.169371 102.539868 
Q 532.136881 102.539868 529.410364 105.047697 
Q 526.683847 107.549287 526.683847 112.209358 
Q 526.683847 116.825759 529.312237 119.346065 
Q 531.940627 121.860132 536.776865 121.860132 
Q 538.094565 121.860132 539.22302 121.716649 
Q 540.351475 121.566928 541.248633 121.255009 
L 541.248633 115.603037 
L 536.096988 115.603037 
L 536.096988 110.568663 
L 549.238938 110.568663 
z
" style="fill:#ffa600;"/>
   </g>
   <g id="patch_37">
    <path clip-path="url(#pd46c26c1c7)" d="M 517.964602 66.9 
L 549.238938 66.9 
L 549.238938 72.789841 
L 537.98745 72.789841 
L 537.98745 97.1 
L 529.237909 97.1 
L 529.237909 72.789841 
L 517.964602 72.789841 
z
" style="fill:#ff0000;"/>
   </g>
   <g id="patch_38">
    <path clip-path="url(#pd46c26c1c7)" d="M 539.628362 58.64775 
L 527.600755 58.64775 
L 525.701659 66.9 
L 517.964602 66.9 
L 529.013887 21.6 
L 538.189653 21.6 
L 549.238938 66.9 
L 541.508275 66.9 
z
M 529.519034 50.240163 
L 537.690901 50.240163 
L 533.611361 32.221132 
z
" style="fill:#008000;"/>
   </g>
   <g id="patch_39">
    <path clip-path="url(#pd46c26c1c7)" d="M 582.159292 155.335282 
Q 579.543248 156.408283 576.714453 156.951023 
Q 573.885658 157.5 570.804714 157.5 
Q 561.617041 157.5 556.250998 153.432576 
Q 550.884956 149.365152 550.884956 142.409358 
Q 550.884956 135.42861 556.250998 131.367424 
Q 561.617041 127.3 570.804714 127.3 
Q 573.885658 127.3 576.714453 127.848977 
Q 579.543248 128.391717 582.159292 129.464718 
L 582.159292 135.484755 
Q 579.519609 134.062404 576.958722 133.401136 
Q 574.397835 132.739868 571.569041 132.739868 
Q 566.494545 132.739868 563.586954 135.316319 
Q 560.687242 137.886532 560.687242 142.409358 
Q 560.687242 146.913468 563.586954 149.489919 
Q 566.494545 152.060132 571.569041 152.060132 
Q 574.397835 152.060132 576.958722 151.398864 
Q 579.519609 150.731357 582.159292 149.309006 
z
" style="fill:#0000ff;"/>
   </g>
   <g id="patch_40">
    <path clip-path="url(#pd46c26c1c7)" d="M 582.159292 123.201384 
Q 579.005224 125.250692 575.612849 126.280025 
Q 572.220473 127.3 568.603809 127.3 
Q 560.431268 127.3 555.658112 121.198864 
Q 550.884956 115.097728 550.884956 104.664036 
Q 550.884956 94.108697 555.74222 88.054348 
Q 560.606494 82 569.066405 82 
Q 572.325609 82 575.31146 82.823466 
Q 578.30432 83.637575 580.953737 85.247077 
L 580.953737 94.277133 
Q 578.220212 92.20911 575.514722 91.189134 
Q 572.809233 90.159802 570.089725 90.159802 
Q 565.057235 90.159802 562.330718 93.921545 
Q 559.604201 97.673931 559.604201 104.664036 
Q 559.604201 111.588639 562.232591 115.369097 
Q 564.860981 119.140198 569.697219 119.140198 
Q 571.014919 119.140198 572.143374 118.924974 
Q 573.271829 118.700392 574.168986 118.232514 
L 574.168986 109.754555 
L 569.017342 109.754555 
L 569.017342 102.202995 
L 582.159292 102.202995 
z
" style="fill:#ffa600;"/>
   </g>
   <g id="patch_41">
    <path clip-path="url(#pd46c26c1c7)" d="M 550.884956 21.6 
L 582.159292 21.6 
L 582.159292 33.379683 
L 570.907804 33.379683 
L 570.907804 82 
L 562.158263 82 
L 562.158263 33.379683 
L 550.884956 33.379683 
z
" style="fill:#ff0000;"/>
   </g>
   <g id="patch_42">
    <path clip-path="url(#pd46c26c1c7)" d="M 583.80531 142.4 
L 615.079646 142.4 
L 615.079646 145.344921 
L 603.828158 145.344921 
L 603.828158 157.5 
L 595.078617 157.5 
L 595.078617 145.344921 
L 583.80531 145.344921 
z
" style="fill:#ff0000;"/>
   </g>
   <g id="patch_43">
    <path clip-path="url(#pd46c26c1c7)" d="M 615.079646 139.667589 
Q 611.925578 141.033795 608.533203 141.720017 
Q 605.140827 142.4 601.524163 142.4 
Q 593.351622 142.4 588.578466 138.332576 
Q 583.80531 134.265152 583.80531 127.309358 
Q 583.80531 120.272464 588.662574 116.236232 
Q 593.526848 112.2 601.986759 112.2 
Q 605.245963 112.2 608.231814 112.748977 
Q 611.224674 113.291717 613.874091 114.364718 
L 613.874091 120.384755 
Q 611.140566 119.006073 608.435076 118.32609 
Q 605.729587 117.639868 603.010079 117.639868 
Q 597.977589 117.639868 595.251072 120.147697 
Q 592.524555 122.649287 592.524555 127.309358 
Q 592.524555 131.925759 595.152945 134.446065 
Q 597.781335 136.960132 602.617573 136.960132 
Q 603.935272 136.960132 605.063728 136.816649 
Q 606.192183 136.666928 607.08934 136.355009 
L 607.08934 130.703037 
L 601.937696 130.703037 
L 601.937696 125.668663 
L 615.079646 125.668663 
z
" style="fill:#ffa600;"/>
   </g>
   <g id="patch_44">
    <path clip-path="url(#pd46c26c1c7)" d="M 605.46907 103.94775 
L 593.441463 103.94775 
L 591.542367 112.2 
L 583.80531 112.2 
L 594.854595 66.9 
L 604.030361 66.9 
L 615.079646 112.2 
L 607.348983 112.2 
z
M 595.359741 95.540163 
L 603.531609 95.540163 
L 599.452069 77.521132 
z
" style="fill:#008000;"/>
   </g>
   <g id="patch_45">
    <path clip-path="url(#pd46c26c1c7)" d="M 615.079646 63.652923 
Q 612.463602 65.262425 609.634807 66.076534 
Q 606.806012 66.9 603.725068 66.9 
Q 594.537395 66.9 589.171352 60.798864 
Q 583.80531 54.697728 583.80531 44.264036 
Q 583.80531 33.792915 589.171352 27.701136 
Q 594.537395 21.6 603.725068 21.6 
Q 606.806012 21.6 609.634807 22.423466 
Q 612.463602 23.237575 615.079646 24.847077 
L 615.079646 33.877133 
Q 612.439963 31.743607 609.879076 30.751704 
Q 607.318189 29.759802 604.489395 29.759802 
Q 599.414899 29.759802 596.507308 33.624478 
Q 593.607596 37.479798 593.607596 44.264036 
Q 593.607596 51.020202 596.507308 54.884879 
Q 599.414899 58.740198 604.489395 58.740198 
Q 607.318189 58.740198 609.879076 57.748296 
Q 612.439963 56.747036 615.079646 54.61351 
z
" style="fill:#0000ff;"/>
   </g>
   <g id="patch_46">
    <path clip-path="url(#pd46c26c1c7)" d="M 638.389424 154.74925 
L 626.361817 154.74925 
L 624.462721 157.5 
L 616.725664 157.5 
L 627.774949 142.4 
L 636.950715 142.4 
L 648 157.5 
L 640.269337 157.5 
z
M 628.280095 151.946721 
L 636.451963 151.946721 
L 632.372423 145.940377 
z
" style="fill:#008000;"/>
   </g>
   <g id="patch_47">
    <path clip-path="url(#pd46c26c1c7)" d="M 648 140.235282 
Q 645.383956 141.308283 642.555161 141.851023 
Q 639.726366 142.4 636.645422 142.4 
Q 627.457749 142.4 622.091706 138.332576 
Q 616.725664 134.265152 616.725664 127.309358 
Q 616.725664 120.32861 622.091706 116.267424 
Q 627.457749 112.2 636.645422 112.2 
Q 639.726366 112.2 642.555161 112.748977 
Q 645.383956 113.291717 648 114.364718 
L 648 120.384755 
Q 645.360317 118.962404 642.79943 118.301136 
Q 640.238543 117.639868 637.409749 117.639868 
Q 632.335253 117.639868 629.427662 120.216319 
Q 626.52795 122.786532 626.52795 127.309358 
Q 626.52795 131.813468 629.427662 134.389919 
Q 632.335253 136.960132 637.409749 136.960132 
Q 640.238543 136.960132 642.79943 136.298864 
Q 645.360317 135.631357 648 134.209006 
z
" style="fill:#0000ff;"/>
   </g>
   <g id="patch_48">
    <path clip-path="url(#pd46c26c1c7)" d="M 648 104.002768 
Q 644.845932 108.101384 641.453557 110.16005 
Q 638.061181 112.2 634.444517 112.2 
Q 626.271976 112.2 621.49882 99.997728 
Q 616.725664 87.795455 616.725664 66.928073 
Q 616.725664 45.817393 621.582928 33.708697 
Q 626.447202 21.6 634.907113 21.6 
Q 638.166317 21.6 641.152168 23.246932 
Q 644.145028 24.87515 646.794445 28.094154 
L 646.794445 46.154266 
Q 644.06092 42.018219 641.35543 39.978269 
Q 638.649941 37.919603 635.930433 37.919603 
Q 630.897943 37.919603 628.171426 45.44309 
Q 625.444909 52.947862 625.444909 66.928073 
Q 625.444909 80.777277 628.073299 88.338195 
Q 630.701689 95.880397 635.537927 95.880397 
Q 636.855626 95.880397 637.984082 95.449948 
Q 639.112537 95.000785 640.009694 94.065028 
L 640.009694 77.10911 
L 634.85805 77.10911 
L 634.85805 62.00599 
L 648 62.00599 
z
" style="fill:#ffa600;"/>
   </g>
  </g>
 </g>
 <defs>
  <clipPath id="pd46c26c1c7">
   <rect height="135.9" width="558" x="90" y="21.6"/>
  </clipPath>
 </defs>
</svg>
