<?xml version="1.0" encoding="utf-8" standalone="no"?>
<!DOCTYPE svg PUBLIC "-//W3C//DTD SVG 1.1//EN"
  "http://www.w3.org/Graphics/SVG/1.1/DTD/svg11.dtd">
<!-- Created with matplotlib (https://matplotlib.org/) -->
<svg height="180pt" version="1.1" viewBox="0 0 720 180" width="720pt" xmlns="http://www.w3.org/2000/svg" xmlns:xlink="http://www.w3.org/1999/xlink">
 <metadata>
  <rdf:RDF xmlns:cc="http://creativecommons.org/ns#" xmlns:dc="http://purl.org/dc/elements/1.1/" xmlns:rdf="http://www.w3.org/1999/02/22-rdf-syntax-ns#">
   <cc:Work>
    <dc:type rdf:resource="http://purl.org/dc/dcmitype/StillImage"/>
    <dc:date>2021-08-04T23:33:18.469193</dc:date>
    <dc:format>image/svg+xml</dc:format>
    <dc:creator>
     <cc:Agent>
      <dc:title>Matplotlib v3.3.2, https://matplotlib.org/</dc:title>
     </cc:Agent>
    </dc:creator>
   </cc:Work>
  </rdf:RDF>
 </metadata>
 <defs>
  <style type="text/css">*{stroke-linecap:butt;stroke-linejoin:round;}</style>
 </defs>
 <g id="figure_1">
  <g id="patch_1">
   <path d="M 0 180 
L 720 180 
L 720 0 
L 0 0 
z
" style="fill:none;"/>
  </g>
  <g id="axes_1">
   <g id="line2d_1">
    <path clip-path="url(#pd850f98f2a)" d="M 90 157.5 
L 648 157.5 
" style="fill:none;stroke:#000000;stroke-linecap:square;stroke-width:0.5;"/>
   </g>
   <g id="patch_2">
    <path clip-path="url(#pd850f98f2a)" d="M 111.66376 154.74925 
L 99.636153 154.74925 
L 97.737057 157.5 
L 90 157.5 
L 101.049285 142.4 
L 110.225051 142.4 
L 121.274336 157.5 
L 113.543673 157.5 
z
M 101.554432 151.946721 
L 109.726299 151.946721 
L 105.64676 145.940377 
z
" style="fill:#008000;"/>
   </g>
   <g id="patch_3">
    <path clip-path="url(#pd850f98f2a)" d="M 121.274336 141.317641 
Q 118.658292 141.854142 115.829497 142.125511 
Q 113.000702 142.4 109.919759 142.4 
Q 100.732085 142.4 95.366043 140.366288 
Q 90 138.332576 90 134.854679 
Q 90 131.364305 95.366043 129.333712 
Q 100.732085 127.3 109.919759 127.3 
Q 113.000702 127.3 115.829497 127.574489 
Q 118.658292 127.845858 121.274336 128.382359 
L 121.274336 131.392378 
Q 118.634653 130.681202 116.073766 130.350568 
Q 113.51288 130.019934 110.684085 130.019934 
Q 105.609589 130.019934 102.701998 131.308159 
Q 99.802286 132.593266 99.802286 134.854679 
Q 99.802286 137.106734 102.701998 138.39496 
Q 105.609589 139.680066 110.684085 139.680066 
Q 113.51288 139.680066 116.073766 139.349432 
Q 118.634653 139.015679 121.274336 138.304503 
z
" style="fill:#0000ff;"/>
   </g>
   <g id="patch_4">
    <path clip-path="url(#pd850f98f2a)" d="M 90 82 
L 121.274336 82 
L 121.274336 90.834762 
L 110.022848 90.834762 
L 110.022848 127.3 
L 101.273307 127.3 
L 101.273307 90.834762 
L 90 90.834762 
z
" style="fill:#ff0000;"/>
   </g>
   <g id="patch_5">
    <path clip-path="url(#pd850f98f2a)" d="M 121.274336 76.535179 
Q 118.120268 79.267589 114.727893 80.640033 
Q 111.335518 82 107.718853 82 
Q 99.546312 82 94.773156 73.865152 
Q 90 65.730304 90 51.818715 
Q 90 37.744929 94.857265 29.672464 
Q 99.721538 21.6 108.18145 21.6 
Q 111.440653 21.6 114.426504 22.697955 
Q 117.419364 23.783433 120.068781 25.929436 
L 120.068781 37.96951 
Q 117.335256 35.212146 114.629766 33.852179 
Q 111.924277 32.479736 109.204769 32.479736 
Q 104.172279 32.479736 101.445762 37.495394 
Q 98.719246 42.498575 98.719246 51.818715 
Q 98.719246 61.051518 101.347636 66.09213 
Q 103.976026 71.120264 108.812263 71.120264 
Q 110.129963 71.120264 111.258418 70.833299 
Q 112.386874 70.533857 113.284031 69.910019 
L 113.284031 58.606073 
L 108.132386 58.606073 
L 108.132386 48.537327 
L 121.274336 48.537327 
z
" style="fill:#ffa600;"/>
   </g>
   <g id="patch_6">
    <path clip-path="url(#pd850f98f2a)" d="M 122.920354 142.4 
L 154.19469 142.4 
L 154.19469 145.344921 
L 142.943202 145.344921 
L 142.943202 157.5 
L 134.193661 157.5 
L 134.193661 145.344921 
L 122.920354 145.344921 
z
" style="fill:#ff0000;"/>
   </g>
   <g id="patch_7">
    <path clip-path="url(#pd850f98f2a)" d="M 144.584114 136.8985 
L 132.556507 136.8985 
L 130.657411 142.4 
L 122.920354 142.4 
L 133.969639 112.2 
L 143.145405 112.2 
L 154.19469 142.4 
L 146.464027 142.4 
z
M 134.474786 131.293442 
L 142.646653 131.293442 
L 138.567114 119.280754 
z
" style="fill:#008000;"/>
   </g>
   <g id="patch_8">
    <path clip-path="url(#pd850f98f2a)" d="M 154.19469 110.035282 
Q 151.578646 111.108283 148.749851 111.651023 
Q 145.921056 112.2 142.840113 112.2 
Q 133.652439 112.2 128.286397 108.132576 
Q 122.920354 104.065152 122.920354 97.109358 
Q 122.920354 90.12861 128.286397 86.067424 
Q 133.652439 82 142.840113 82 
Q 145.921056 82 148.749851 82.548977 
Q 151.578646 83.091717 154.19469 84.164718 
L 154.19469 90.184755 
Q 151.555007 88.762404 148.99412 88.101136 
Q 146.433234 87.439868 143.604439 87.439868 
Q 138.529943 87.439868 135.622352 90.016319 
Q 132.72264 92.586532 132.72264 97.109358 
Q 132.72264 101.613468 135.622352 104.189919 
Q 138.529943 106.760132 143.604439 106.760132 
Q 146.433234 106.760132 148.99412 106.098864 
Q 151.555007 105.431357 154.19469 104.009006 
z
" style="fill:#0000ff;"/>
   </g>
   <g id="patch_9">
    <path clip-path="url(#pd850f98f2a)" d="M 154.19469 76.535179 
Q 151.040622 79.267589 147.648247 80.640033 
Q 144.255872 82 140.639207 82 
Q 132.466666 82 127.69351 73.865152 
Q 122.920354 65.730304 122.920354 51.818715 
Q 122.920354 37.744929 127.777619 29.672464 
Q 132.641892 21.6 141.101804 21.6 
Q 144.361007 21.6 147.346858 22.697955 
Q 150.339718 23.783433 152.989135 25.929436 
L 152.989135 37.96951 
Q 150.25561 35.212146 147.55012 33.852179 
Q 144.844631 32.479736 142.125123 32.479736 
Q 137.092633 32.479736 134.366116 37.495394 
Q 131.6396 42.498575 131.6396 51.818715 
Q 131.6396 61.051518 134.26799 66.09213 
Q 136.89638 71.120264 141.732617 71.120264 
Q 143.050317 71.120264 144.178772 70.833299 
Q 145.307228 70.533857 146.204385 69.910019 
L 146.204385 58.606073 
L 141.05274 58.606073 
L 141.05274 48.537327 
L 154.19469 48.537327 
z
" style="fill:#ffa600;"/>
   </g>
   <g id="patch_10">
    <path clip-path="url(#pd850f98f2a)" d="M 187.115044 156.133795 
Q 183.960976 156.816897 180.568601 157.160008 
Q 177.176226 157.5 173.559561 157.5 
Q 165.38702 157.5 160.613864 155.466288 
Q 155.840708 153.432576 155.840708 149.954679 
Q 155.840708 146.436232 160.697973 144.418116 
Q 165.562246 142.4 174.022158 142.4 
Q 177.281361 142.4 180.267212 142.674489 
Q 183.260072 142.945858 185.909489 143.482359 
L 185.909489 146.492378 
Q 183.175964 145.803037 180.470474 145.463045 
Q 177.764985 145.119934 175.045477 145.119934 
Q 170.012987 145.119934 167.28647 146.373848 
Q 164.559954 147.624644 164.559954 149.954679 
Q 164.559954 152.26288 167.188344 153.523032 
Q 169.816734 154.780066 174.652971 154.780066 
Q 175.970671 154.780066 177.099126 154.708325 
Q 178.227582 154.633464 179.124739 154.477505 
L 179.124739 151.651518 
L 173.973094 151.651518 
L 173.973094 149.134332 
L 187.115044 149.134332 
z
" style="fill:#ffa600;"/>
   </g>
   <g id="patch_11">
    <path clip-path="url(#pd850f98f2a)" d="M 187.115044 140.235282 
Q 184.499 141.308283 181.670205 141.851023 
Q 178.84141 142.4 175.760467 142.4 
Q 166.572793 142.4 161.206751 138.332576 
Q 155.840708 134.265152 155.840708 127.309358 
Q 155.840708 120.32861 161.206751 116.267424 
Q 166.572793 112.2 175.760467 112.2 
Q 178.84141 112.2 181.670205 112.748977 
Q 184.499 113.291717 187.115044 114.364718 
L 187.115044 120.384755 
Q 184.475361 118.962404 181.914474 118.301136 
Q 179.353588 117.639868 176.524793 117.639868 
Q 171.450297 117.639868 168.542706 120.216319 
Q 165.642994 122.786532 165.642994 127.309358 
Q 165.642994 131.813468 168.542706 134.389919 
Q 171.450297 136.960132 176.524793 136.960132 
Q 179.353588 136.960132 181.914474 136.298864 
Q 184.475361 135.631357 187.115044 134.209006 
z
" style="fill:#0000ff;"/>
   </g>
   <g id="patch_12">
    <path clip-path="url(#pd850f98f2a)" d="M 155.840708 21.6 
L 187.115044 21.6 
L 187.115044 39.269524 
L 175.863556 39.269524 
L 175.863556 112.2 
L 167.114015 112.2 
L 167.114015 39.269524 
L 155.840708 39.269524 
z
" style="fill:#ff0000;"/>
   </g>
   <g id="patch_13">
    <path clip-path="url(#pd850f98f2a)" d="M 220.035398 156.133795 
Q 216.88133 156.816897 213.488955 157.160008 
Q 210.09658 157.5 206.479915 157.5 
Q 198.307374 157.5 193.534218 155.466288 
Q 188.761062 153.432576 188.761062 149.954679 
Q 188.761062 146.436232 193.618327 144.418116 
Q 198.4826 142.4 206.942512 142.4 
Q 210.201715 142.4 213.187566 142.674489 
Q 216.180426 142.945858 218.829843 143.482359 
L 218.829843 146.492378 
Q 216.096318 145.803037 213.390828 145.463045 
Q 210.685339 145.119934 207.965831 145.119934 
Q 202.933341 145.119934 200.206824 146.373848 
Q 197.480308 147.624644 197.480308 149.954679 
Q 197.480308 152.26288 200.108698 153.523032 
Q 202.737088 154.780066 207.573325 154.780066 
Q 208.891025 154.780066 210.01948 154.708325 
Q 211.147936 154.633464 212.045093 154.477505 
L 212.045093 151.651518 
L 206.893448 151.651518 
L 206.893448 149.134332 
L 220.035398 149.134332 
z
" style="fill:#ffa600;"/>
   </g>
   <g id="patch_14">
    <path clip-path="url(#pd850f98f2a)" d="M 210.424822 136.8985 
L 198.397215 136.8985 
L 196.498119 142.4 
L 188.761062 142.4 
L 199.810347 112.2 
L 208.986113 112.2 
L 220.035398 142.4 
L 212.304735 142.4 
z
M 200.315494 131.293442 
L 208.487361 131.293442 
L 204.407821 119.280754 
z
" style="fill:#008000;"/>
   </g>
   <g id="patch_15">
    <path clip-path="url(#pd850f98f2a)" d="M 188.761062 21.6 
L 220.035398 21.6 
L 220.035398 39.269524 
L 208.78391 39.269524 
L 208.78391 112.2 
L 200.034369 112.2 
L 200.034369 39.269524 
L 188.761062 39.269524 
z
" style="fill:#ff0000;"/>
   </g>
   <g id="patch_16">
    <path clip-path="url(#pd850f98f2a)" d="M 221.681416 127.3 
L 252.955752 127.3 
L 252.955752 133.189841 
L 241.704264 133.189841 
L 241.704264 157.5 
L 232.954723 157.5 
L 232.954723 133.189841 
L 221.681416 133.189841 
z
" style="fill:#ff0000;"/>
   </g>
   <g id="patch_17">
    <path clip-path="url(#pd850f98f2a)" d="M 252.955752 124.052923 
Q 250.339708 125.662425 247.510913 126.476534 
Q 244.682118 127.3 241.601175 127.3 
Q 232.413501 127.3 227.047459 121.198864 
Q 221.681416 115.097728 221.681416 104.664036 
Q 221.681416 94.192915 227.047459 88.101136 
Q 232.413501 82 241.601175 82 
Q 244.682118 82 247.510913 82.823466 
Q 250.339708 83.637575 252.955752 85.247077 
L 252.955752 94.277133 
Q 250.316069 92.143607 247.755182 91.151704 
Q 245.194296 90.159802 242.365501 90.159802 
Q 237.291005 90.159802 234.383414 94.024478 
Q 231.483702 97.879798 231.483702 104.664036 
Q 231.483702 111.420202 234.383414 115.284879 
Q 237.291005 119.140198 242.365501 119.140198 
Q 245.194296 119.140198 247.755182 118.148296 
Q 250.316069 117.147036 252.955752 115.01351 
z
" style="fill:#0000ff;"/>
   </g>
   <g id="patch_18">
    <path clip-path="url(#pd850f98f2a)" d="M 252.955752 76.535179 
Q 249.801684 79.267589 246.409309 80.640033 
Q 243.016934 82 239.400269 82 
Q 231.227728 82 226.454572 73.865152 
Q 221.681416 65.730304 221.681416 51.818715 
Q 221.681416 37.744929 226.538681 29.672464 
Q 231.402954 21.6 239.862866 21.6 
Q 243.122069 21.6 246.10792 22.697955 
Q 249.10078 23.783433 251.750197 25.929436 
L 251.750197 37.96951 
Q 249.016672 35.212146 246.311182 33.852179 
Q 243.605693 32.479736 240.886185 32.479736 
Q 235.853695 32.479736 233.127178 37.495394 
Q 230.400662 42.498575 230.400662 51.818715 
Q 230.400662 61.051518 233.029052 66.09213 
Q 235.657442 71.120264 240.493679 71.120264 
Q 241.811379 71.120264 242.939834 70.833299 
Q 244.06829 70.533857 244.965447 69.910019 
L 244.965447 58.606073 
L 239.813802 58.606073 
L 239.813802 48.537327 
L 252.955752 48.537327 
z
" style="fill:#ffa600;"/>
   </g>
   <g id="patch_19">
    <path clip-path="url(#pd850f98f2a)" d="M 254.60177 21.6 
L 285.876106 21.6 
L 285.876106 48.104286 
L 274.624618 48.104286 
L 274.624618 157.5 
L 265.875077 157.5 
L 265.875077 48.104286 
L 254.60177 48.104286 
z
" style="fill:#ff0000;"/>
   </g>
   <g id="patch_20">
    <path clip-path="url(#pd850f98f2a)" d="M 318.79646 156.133795 
Q 315.642392 156.816897 312.250017 157.160008 
Q 308.857642 157.5 305.240977 157.5 
Q 297.068436 157.5 292.29528 155.466288 
Q 287.522124 153.432576 287.522124 149.954679 
Q 287.522124 146.436232 292.379389 144.418116 
Q 297.243662 142.4 305.703574 142.4 
Q 308.962777 142.4 311.948628 142.674489 
Q 314.941488 142.945858 317.590905 143.482359 
L 317.590905 146.492378 
Q 314.85738 145.803037 312.15189 145.463045 
Q 309.446401 145.119934 306.726893 145.119934 
Q 301.694403 145.119934 298.967886 146.373848 
Q 296.24137 147.624644 296.24137 149.954679 
Q 296.24137 152.26288 298.86976 153.523032 
Q 301.49815 154.780066 306.334387 154.780066 
Q 307.652087 154.780066 308.780542 154.708325 
Q 309.908998 154.633464 310.806155 154.477505 
L 310.806155 151.651518 
L 305.65451 151.651518 
L 305.65451 149.134332 
L 318.79646 149.134332 
z
" style="fill:#ffa600;"/>
   </g>
   <g id="patch_21">
    <path clip-path="url(#pd850f98f2a)" d="M 309.185884 120.393999 
L 297.158277 120.393999 
L 295.259181 142.4 
L 287.522124 142.4 
L 298.571409 21.6 
L 307.747175 21.6 
L 318.79646 142.4 
L 311.065797 142.4 
z
M 299.076556 97.973768 
L 307.248423 97.973768 
L 303.168883 49.923018 
z
" style="fill:#008000;"/>
   </g>
   <g id="patch_22">
    <path clip-path="url(#pd850f98f2a)" d="M 342.106238 132.743249 
L 330.078631 132.743249 
L 328.179535 157.5 
L 320.442478 157.5 
L 331.491763 21.6 
L 340.667529 21.6 
L 351.716814 157.5 
L 343.986151 157.5 
z
M 331.99691 107.520489 
L 340.168777 107.520489 
L 336.089237 53.463395 
z
" style="fill:#008000;"/>
   </g>
   <g id="patch_23">
    <path clip-path="url(#pd850f98f2a)" d="M 384.637168 154.767589 
Q 381.4831 156.133795 378.090725 156.820017 
Q 374.698349 157.5 371.081685 157.5 
Q 362.909144 157.5 358.135988 153.432576 
Q 353.362832 149.365152 353.362832 142.409358 
Q 353.362832 135.372464 358.220097 131.336232 
Q 363.08437 127.3 371.544282 127.3 
Q 374.803485 127.3 377.789336 127.848977 
Q 380.782196 128.391717 383.431613 129.464718 
L 383.431613 135.484755 
Q 380.698088 134.106073 377.992598 133.42609 
Q 375.287109 132.739868 372.567601 132.739868 
Q 367.535111 132.739868 364.808594 135.247697 
Q 362.082078 137.749287 362.082078 142.409358 
Q 362.082078 147.025759 364.710468 149.546065 
Q 367.338858 152.060132 372.175095 152.060132 
Q 373.492795 152.060132 374.62125 151.916649 
Q 375.749705 151.766928 376.646863 151.455009 
L 376.646863 145.803037 
L 371.495218 145.803037 
L 371.495218 140.768663 
L 384.637168 140.768663 
z
" style="fill:#ffa600;"/>
   </g>
   <g id="patch_24">
    <path clip-path="url(#pd850f98f2a)" d="M 384.637168 119.723487 
Q 382.021124 123.478992 379.192329 125.378579 
Q 376.363534 127.3 373.282591 127.3 
Q 364.094917 127.3 358.728874 113.064016 
Q 353.362832 98.828031 353.362832 74.482751 
Q 353.362832 50.050134 358.728874 35.835984 
Q 364.094917 21.6 373.282591 21.6 
Q 376.363534 21.6 379.192329 23.521421 
Q 382.021124 25.421008 384.637168 29.176513 
L 384.637168 50.246643 
Q 381.997485 45.268416 379.436598 42.953976 
Q 376.875712 40.639537 374.046917 40.639537 
Q 368.972421 40.639537 366.06483 49.657116 
Q 363.165118 58.652861 363.165118 74.482751 
Q 363.165118 90.247139 366.06483 99.264718 
Q 368.972421 108.260463 374.046917 108.260463 
Q 376.875712 108.260463 379.436598 105.946024 
Q 381.997485 103.60975 384.637168 98.631522 
z
" style="fill:#0000ff;"/>
   </g>
   <g id="patch_25">
    <path clip-path="url(#pd850f98f2a)" d="M 417.557522 155.335282 
Q 414.941478 156.408283 412.112683 156.951023 
Q 409.283888 157.5 406.202945 157.5 
Q 397.015271 157.5 391.649228 153.432576 
Q 386.283186 149.365152 386.283186 142.409358 
Q 386.283186 135.42861 391.649228 131.367424 
Q 397.015271 127.3 406.202945 127.3 
Q 409.283888 127.3 412.112683 127.848977 
Q 414.941478 128.391717 417.557522 129.464718 
L 417.557522 135.484755 
Q 414.917839 134.062404 412.356952 133.401136 
Q 409.796066 132.739868 406.967271 132.739868 
Q 401.892775 132.739868 398.985184 135.316319 
Q 396.085472 137.886532 396.085472 142.409358 
Q 396.085472 146.913468 398.985184 149.489919 
Q 401.892775 152.060132 406.967271 152.060132 
Q 409.796066 152.060132 412.356952 151.398864 
Q 414.917839 150.731357 417.557522 149.309006 
z
" style="fill:#0000ff;"/>
   </g>
   <g id="patch_26">
    <path clip-path="url(#pd850f98f2a)" d="M 407.946946 108.044749 
L 395.919339 108.044749 
L 394.020243 127.3 
L 386.283186 127.3 
L 397.332471 21.6 
L 406.508237 21.6 
L 417.557522 127.3 
L 409.826859 127.3 
z
M 397.837618 88.427047 
L 406.009485 88.427047 
L 401.929945 46.38264 
z
" style="fill:#008000;"/>
   </g>
   <g id="patch_27">
    <path clip-path="url(#pd850f98f2a)" d="M 450.477876 156.133795 
Q 447.323808 156.816897 443.931433 157.160008 
Q 440.539057 157.5 436.922393 157.5 
Q 428.749852 157.5 423.976696 155.466288 
Q 419.20354 153.432576 419.20354 149.954679 
Q 419.20354 146.436232 424.060805 144.418116 
Q 428.925078 142.4 437.384989 142.4 
Q 440.644193 142.4 443.630044 142.674489 
Q 446.622904 142.945858 449.272321 143.482359 
L 449.272321 146.492378 
Q 446.538796 145.803037 443.833306 145.463045 
Q 441.127817 145.119934 438.408309 145.119934 
Q 433.375819 145.119934 430.649302 146.373848 
Q 427.922786 147.624644 427.922786 149.954679 
Q 427.922786 152.26288 430.551176 153.523032 
Q 433.179565 154.780066 438.015803 154.780066 
Q 439.333503 154.780066 440.461958 154.708325 
Q 441.590413 154.633464 442.487571 154.477505 
L 442.487571 151.651518 
L 437.335926 151.651518 
L 437.335926 149.134332 
L 450.477876 149.134332 
z
" style="fill:#ffa600;"/>
   </g>
   <g id="patch_28">
    <path clip-path="url(#pd850f98f2a)" d="M 450.477876 133.741128 
Q 447.861832 138.033134 445.033037 140.20409 
Q 442.204242 142.4 439.123298 142.4 
Q 429.935625 142.4 424.569582 126.130304 
Q 419.20354 109.860607 419.20354 82.03743 
Q 419.20354 54.114439 424.569582 37.869696 
Q 429.935625 21.6 439.123298 21.6 
Q 442.204242 21.6 445.033037 23.79591 
Q 447.861832 25.966866 450.477876 30.258872 
L 450.477876 54.339021 
Q 447.838193 48.649618 445.277306 46.004545 
Q 442.71642 43.359471 439.887625 43.359471 
Q 434.813129 43.359471 431.905538 53.665276 
Q 429.005826 63.946127 429.005826 82.03743 
Q 429.005826 100.053873 431.905538 110.359678 
Q 434.813129 120.640529 439.887625 120.640529 
Q 442.71642 120.640529 445.277306 117.995455 
Q 447.838193 115.325429 450.477876 109.636026 
z
" style="fill:#0000ff;"/>
   </g>
   <g id="patch_29">
    <path clip-path="url(#pd850f98f2a)" d="M 483.39823 153.170564 
Q 480.782186 155.316567 477.953391 156.402045 
Q 475.124596 157.5 472.043652 157.5 
Q 462.855979 157.5 457.489936 149.365152 
Q 452.123894 141.230304 452.123894 127.318715 
Q 452.123894 113.35722 457.489936 105.234848 
Q 462.855979 97.1 472.043652 97.1 
Q 475.124596 97.1 477.953391 98.197955 
Q 480.782186 99.283433 483.39823 101.429436 
L 483.39823 113.46951 
Q 480.758547 110.624809 478.19766 109.302272 
Q 475.636773 107.979736 472.807979 107.979736 
Q 467.733483 107.979736 464.825892 113.132638 
Q 461.92618 118.273063 461.92618 127.318715 
Q 461.92618 136.326937 464.825892 141.479839 
Q 467.733483 146.620264 472.807979 146.620264 
Q 475.636773 146.620264 478.19766 145.297728 
Q 480.758547 143.962714 483.39823 141.118013 
z
" style="fill:#0000ff;"/>
   </g>
   <g id="patch_30">
    <path clip-path="url(#pd850f98f2a)" d="M 473.787654 83.346249 
L 461.760047 83.346249 
L 459.860951 97.1 
L 452.123894 97.1 
L 463.173179 21.6 
L 472.348945 21.6 
L 483.39823 97.1 
L 475.667567 97.1 
z
M 463.678326 69.333605 
L 471.850193 69.333605 
L 467.770653 39.301886 
z
" style="fill:#008000;"/>
   </g>
   <g id="patch_31">
    <path clip-path="url(#pd850f98f2a)" d="M 516.318584 156.133795 
Q 513.164516 156.816897 509.772141 157.160008 
Q 506.379765 157.5 502.763101 157.5 
Q 494.59056 157.5 489.817404 155.466288 
Q 485.044248 153.432576 485.044248 149.954679 
Q 485.044248 146.436232 489.901512 144.418116 
Q 494.765786 142.4 503.225697 142.4 
Q 506.484901 142.4 509.470752 142.674489 
Q 512.463612 142.945858 515.113029 143.482359 
L 515.113029 146.492378 
Q 512.379504 145.803037 509.674014 145.463045 
Q 506.968525 145.119934 504.249017 145.119934 
Q 499.216527 145.119934 496.49001 146.373848 
Q 493.763493 147.624644 493.763493 149.954679 
Q 493.763493 152.26288 496.391883 153.523032 
Q 499.020273 154.780066 503.856511 154.780066 
Q 505.174211 154.780066 506.302666 154.708325 
Q 507.431121 154.633464 508.328279 154.477505 
L 508.328279 151.651518 
L 503.176634 151.651518 
L 503.176634 149.134332 
L 516.318584 149.134332 
z
" style="fill:#ffa600;"/>
   </g>
   <g id="patch_32">
    <path clip-path="url(#pd850f98f2a)" d="M 516.318584 139.152923 
Q 513.70254 140.762425 510.873745 141.576534 
Q 508.04495 142.4 504.964006 142.4 
Q 495.776333 142.4 490.41029 136.298864 
Q 485.044248 130.197728 485.044248 119.764036 
Q 485.044248 109.292915 490.41029 103.201136 
Q 495.776333 97.1 504.964006 97.1 
Q 508.04495 97.1 510.873745 97.923466 
Q 513.70254 98.737575 516.318584 100.347077 
L 516.318584 109.377133 
Q 513.678901 107.243607 511.118014 106.251704 
Q 508.557127 105.259802 505.728333 105.259802 
Q 500.653837 105.259802 497.746246 109.124478 
Q 494.846534 112.979798 494.846534 119.764036 
Q 494.846534 126.520202 497.746246 130.384879 
Q 500.653837 134.240198 505.728333 134.240198 
Q 508.557127 134.240198 511.118014 133.248296 
Q 513.678901 132.247036 516.318584 130.11351 
z
" style="fill:#0000ff;"/>
   </g>
   <g id="patch_33">
    <path clip-path="url(#pd850f98f2a)" d="M 485.044248 21.6 
L 516.318584 21.6 
L 516.318584 36.324604 
L 505.067096 36.324604 
L 505.067096 97.1 
L 496.317555 97.1 
L 496.317555 36.324604 
L 485.044248 36.324604 
z
" style="fill:#ff0000;"/>
   </g>
   <g id="patch_34">
    <path clip-path="url(#pd850f98f2a)" d="M 539.628362 154.74925 
L 527.600755 154.74925 
L 525.701659 157.5 
L 517.964602 157.5 
L 529.013887 142.4 
L 538.189653 142.4 
L 549.238938 157.5 
L 541.508275 157.5 
z
M 529.519034 151.946721 
L 537.690901 151.946721 
L 533.611361 145.940377 
z
" style="fill:#008000;"/>
   </g>
   <g id="patch_35">
    <path clip-path="url(#pd850f98f2a)" d="M 517.964602 97.1 
L 549.238938 97.1 
L 549.238938 105.934762 
L 537.98745 105.934762 
L 537.98745 142.4 
L 529.237909 142.4 
L 529.237909 105.934762 
L 517.964602 105.934762 
z
" style="fill:#ff0000;"/>
   </g>
   <g id="patch_36">
    <path clip-path="url(#pd850f98f2a)" d="M 549.238938 90.268973 
Q 546.08487 93.684487 542.692495 95.400041 
Q 539.300119 97.1 535.683455 97.1 
Q 527.510914 97.1 522.737758 86.93144 
Q 517.964602 76.76288 517.964602 59.373394 
Q 517.964602 41.781161 522.821866 31.69058 
Q 527.68614 21.6 536.146051 21.6 
Q 539.405255 21.6 542.391106 22.972444 
Q 545.383966 24.329291 548.033383 27.011795 
L 548.033383 42.061888 
Q 545.299858 38.615183 542.594368 36.915224 
Q 539.888879 35.199669 537.169371 35.199669 
Q 532.136881 35.199669 529.410364 41.469242 
Q 526.683847 47.723218 526.683847 59.373394 
Q 526.683847 70.914398 529.312237 77.215162 
Q 531.940627 83.500331 536.776865 83.500331 
Q 538.094565 83.500331 539.22302 83.141624 
Q 540.351475 82.767321 541.248633 81.987523 
L 541.248633 67.857591 
L 536.096988 67.857591 
L 536.096988 55.271659 
L 549.238938 55.271659 
z
" style="fill:#ffa600;"/>
   </g>
   <g id="patch_37">
    <path clip-path="url(#pd850f98f2a)" d="M 582.159292 156.133795 
Q 579.005224 156.816897 575.612849 157.160008 
Q 572.220473 157.5 568.603809 157.5 
Q 560.431268 157.5 555.658112 155.466288 
Q 550.884956 153.432576 550.884956 149.954679 
Q 550.884956 146.436232 555.74222 144.418116 
Q 560.606494 142.4 569.066405 142.4 
Q 572.325609 142.4 575.31146 142.674489 
Q 578.30432 142.945858 580.953737 143.482359 
L 580.953737 146.492378 
Q 578.220212 145.803037 575.514722 145.463045 
Q 572.809233 145.119934 570.089725 145.119934 
Q 565.057235 145.119934 562.330718 146.373848 
Q 559.604201 147.624644 559.604201 149.954679 
Q 559.604201 152.26288 562.232591 153.523032 
Q 564.860981 154.780066 569.697219 154.780066 
Q 571.014919 154.780066 572.143374 154.708325 
Q 573.271829 154.633464 574.168986 154.477505 
L 574.168986 151.651518 
L 569.017342 151.651518 
L 569.017342 149.134332 
L 582.159292 149.134332 
z
" style="fill:#ffa600;"/>
   </g>
   <g id="patch_38">
    <path clip-path="url(#pd850f98f2a)" d="M 550.884956 127.3 
L 582.159292 127.3 
L 582.159292 130.244921 
L 570.907804 130.244921 
L 570.907804 142.4 
L 562.158263 142.4 
L 562.158263 130.244921 
L 550.884956 130.244921 
z
" style="fill:#ff0000;"/>
   </g>
   <g id="patch_39">
    <path clip-path="url(#pd850f98f2a)" d="M 582.159292 119.723487 
Q 579.543248 123.478992 576.714453 125.378579 
Q 573.885658 127.3 570.804714 127.3 
Q 561.617041 127.3 556.250998 113.064016 
Q 550.884956 98.828031 550.884956 74.482751 
Q 550.884956 50.050134 556.250998 35.835984 
Q 561.617041 21.6 570.804714 21.6 
Q 573.885658 21.6 576.714453 23.521421 
Q 579.543248 25.421008 582.159292 29.176513 
L 582.159292 50.246643 
Q 579.519609 45.268416 576.958722 42.953976 
Q 574.397835 40.639537 571.569041 40.639537 
Q 566.494545 40.639537 563.586954 49.657116 
Q 560.687242 58.652861 560.687242 74.482751 
Q 560.687242 90.247139 563.586954 99.264718 
Q 566.494545 108.260463 571.569041 108.260463 
Q 574.397835 108.260463 576.958722 105.946024 
Q 579.519609 103.60975 582.159292 98.631522 
z
" style="fill:#0000ff;"/>
   </g>
   <g id="patch_40">
    <path clip-path="url(#pd850f98f2a)" d="M 615.079646 155.335282 
Q 612.463602 156.408283 609.634807 156.951023 
Q 606.806012 157.5 603.725068 157.5 
Q 594.537395 157.5 589.171352 153.432576 
Q 583.80531 149.365152 583.80531 142.409358 
Q 583.80531 135.42861 589.171352 131.367424 
Q 594.537395 127.3 603.725068 127.3 
Q 606.806012 127.3 609.634807 127.848977 
Q 612.463602 128.391717 615.079646 129.464718 
L 615.079646 135.484755 
Q 612.439963 134.062404 609.879076 133.401136 
Q 607.318189 132.739868 604.489395 132.739868 
Q 599.414899 132.739868 596.507308 135.316319 
Q 593.607596 137.886532 593.607596 142.409358 
Q 593.607596 146.913468 596.507308 149.489919 
Q 599.414899 152.060132 604.489395 152.060132 
Q 607.318189 152.060132 609.879076 151.398864 
Q 612.439963 150.731357 615.079646 149.309006 
z
" style="fill:#0000ff;"/>
   </g>
   <g id="patch_41">
    <path clip-path="url(#pd850f98f2a)" d="M 583.80531 82 
L 615.079646 82 
L 615.079646 90.834762 
L 603.828158 90.834762 
L 603.828158 127.3 
L 595.078617 127.3 
L 595.078617 90.834762 
L 583.80531 90.834762 
z
" style="fill:#ff0000;"/>
   </g>
   <g id="patch_42">
    <path clip-path="url(#pd850f98f2a)" d="M 615.079646 76.535179 
Q 611.925578 79.267589 608.533203 80.640033 
Q 605.140827 82 601.524163 82 
Q 593.351622 82 588.578466 73.865152 
Q 583.80531 65.730304 583.80531 51.818715 
Q 583.80531 37.744929 588.662574 29.672464 
Q 593.526848 21.6 601.986759 21.6 
Q 605.245963 21.6 608.231814 22.697955 
Q 611.224674 23.783433 613.874091 25.929436 
L 613.874091 37.96951 
Q 611.140566 35.212146 608.435076 33.852179 
Q 605.729587 32.479736 603.010079 32.479736 
Q 597.977589 32.479736 595.251072 37.495394 
Q 592.524555 42.498575 592.524555 51.818715 
Q 592.524555 61.051518 595.152945 66.09213 
Q 597.781335 71.120264 602.617573 71.120264 
Q 603.935272 71.120264 605.063728 70.833299 
Q 606.192183 70.533857 607.08934 69.910019 
L 607.08934 58.606073 
L 601.937696 58.606073 
L 601.937696 48.537327 
L 615.079646 48.537327 
z
" style="fill:#ffa600;"/>
   </g>
   <g id="patch_43">
    <path clip-path="url(#pd850f98f2a)" d="M 616.725664 142.4 
L 648 142.4 
L 648 145.344921 
L 636.748512 145.344921 
L 636.748512 157.5 
L 627.998971 157.5 
L 627.998971 145.344921 
L 616.725664 145.344921 
z
" style="fill:#ff0000;"/>
   </g>
   <g id="patch_44">
    <path clip-path="url(#pd850f98f2a)" d="M 638.389424 131.397 
L 626.361817 131.397 
L 624.462721 142.4 
L 616.725664 142.4 
L 627.774949 82 
L 636.950715 82 
L 648 142.4 
L 640.269337 142.4 
z
M 628.280095 120.186884 
L 636.451963 120.186884 
L 632.372423 96.161509 
z
" style="fill:#008000;"/>
   </g>
   <g id="patch_45">
    <path clip-path="url(#pd850f98f2a)" d="M 648 77.670564 
Q 645.383956 79.816567 642.555161 80.902045 
Q 639.726366 82 636.645422 82 
Q 627.457749 82 622.091706 73.865152 
Q 616.725664 65.730304 616.725664 51.818715 
Q 616.725664 37.85722 622.091706 29.734848 
Q 627.457749 21.6 636.645422 21.6 
Q 639.726366 21.6 642.555161 22.697955 
Q 645.383956 23.783433 648 25.929436 
L 648 37.96951 
Q 645.360317 35.124809 642.79943 33.802272 
Q 640.238543 32.479736 637.409749 32.479736 
Q 632.335253 32.479736 629.427662 37.632638 
Q 626.52795 42.773063 626.52795 51.818715 
Q 626.52795 60.826937 629.427662 65.979839 
Q 632.335253 71.120264 637.409749 71.120264 
Q 640.238543 71.120264 642.79943 69.797728 
Q 645.360317 68.462714 648 65.618013 
z
" style="fill:#0000ff;"/>
   </g>
  </g>
 </g>
 <defs>
  <clipPath id="pd850f98f2a">
   <rect height="135.9" width="558" x="90" y="21.6"/>
  </clipPath>
 </defs>
</svg>
