<?xml version="1.0" encoding="utf-8" standalone="no"?>
<!DOCTYPE svg PUBLIC "-//W3C//DTD SVG 1.1//EN"
  "http://www.w3.org/Graphics/SVG/1.1/DTD/svg11.dtd">
<!-- Created with matplotlib (https://matplotlib.org/) -->
<svg height="180pt" version="1.1" viewBox="0 0 720 180" width="720pt" xmlns="http://www.w3.org/2000/svg" xmlns:xlink="http://www.w3.org/1999/xlink">
 <metadata>
  <rdf:RDF xmlns:cc="http://creativecommons.org/ns#" xmlns:dc="http://purl.org/dc/elements/1.1/" xmlns:rdf="http://www.w3.org/1999/02/22-rdf-syntax-ns#">
   <cc:Work>
    <dc:type rdf:resource="http://purl.org/dc/dcmitype/StillImage"/>
    <dc:date>2021-08-04T23:33:15.538260</dc:date>
    <dc:format>image/svg+xml</dc:format>
    <dc:creator>
     <cc:Agent>
      <dc:title>Matplotlib v3.3.2, https://matplotlib.org/</dc:title>
     </cc:Agent>
    </dc:creator>
   </cc:Work>
  </rdf:RDF>
 </metadata>
 <defs>
  <style type="text/css">*{stroke-linecap:butt;stroke-linejoin:round;}</style>
 </defs>
 <g id="figure_1">
  <g id="patch_1">
   <path d="M 0 180 
L 720 180 
L 720 0 
L 0 0 
z
" style="fill:none;"/>
  </g>
  <g id="axes_1">
   <g id="line2d_1">
    <path clip-path="url(#p2aec9ff6d4)" d="M 90 157.5 
L 648 157.5 
" style="fill:none;stroke:#000000;stroke-linecap:square;stroke-width:0.5;"/>
   </g>
   <g id="patch_2">
    <path clip-path="url(#p2aec9ff6d4)" d="M 111.66376 151.9985 
L 99.636153 151.9985 
L 97.737057 157.5 
L 90 157.5 
L 101.049285 127.3 
L 110.225051 127.3 
L 121.274336 157.5 
L 113.543673 157.5 
z
M 101.554432 146.393442 
L 109.726299 146.393442 
L 105.64676 134.380754 
z
" style="fill:#008000;"/>
   </g>
   <g id="patch_3">
    <path clip-path="url(#p2aec9ff6d4)" d="M 121.274336 124.567589 
Q 118.120268 125.933795 114.727893 126.620017 
Q 111.335518 127.3 107.718853 127.3 
Q 99.546312 127.3 94.773156 123.232576 
Q 90 119.165152 90 112.209358 
Q 90 105.172464 94.857265 101.136232 
Q 99.721538 97.1 108.18145 97.1 
Q 111.440653 97.1 114.426504 97.648977 
Q 117.419364 98.191717 120.068781 99.264718 
L 120.068781 105.284755 
Q 117.335256 103.906073 114.629766 103.22609 
Q 111.924277 102.539868 109.204769 102.539868 
Q 104.172279 102.539868 101.445762 105.047697 
Q 98.719246 107.549287 98.719246 112.209358 
Q 98.719246 116.825759 101.347636 119.346065 
Q 103.976026 121.860132 108.812263 121.860132 
Q 110.129963 121.860132 111.258418 121.716649 
Q 112.386874 121.566928 113.284031 121.255009 
L 113.284031 115.603037 
L 108.132386 115.603037 
L 108.132386 110.568663 
L 121.274336 110.568663 
z
" style="fill:#ffa600;"/>
   </g>
   <g id="patch_4">
    <path clip-path="url(#p2aec9ff6d4)" d="M 90 66.9 
L 121.274336 66.9 
L 121.274336 72.789841 
L 110.022848 72.789841 
L 110.022848 97.1 
L 101.273307 97.1 
L 101.273307 72.789841 
L 90 72.789841 
z
" style="fill:#ff0000;"/>
   </g>
   <g id="patch_5">
    <path clip-path="url(#p2aec9ff6d4)" d="M 121.274336 63.652923 
Q 118.658292 65.262425 115.829497 66.076534 
Q 113.000702 66.9 109.919759 66.9 
Q 100.732085 66.9 95.366043 60.798864 
Q 90 54.697728 90 44.264036 
Q 90 33.792915 95.366043 27.701136 
Q 100.732085 21.6 109.919759 21.6 
Q 113.000702 21.6 115.829497 22.423466 
Q 118.658292 23.237575 121.274336 24.847077 
L 121.274336 33.877133 
Q 118.634653 31.743607 116.073766 30.751704 
Q 113.51288 29.759802 110.684085 29.759802 
Q 105.609589 29.759802 102.701998 33.624478 
Q 99.802286 37.479798 99.802286 44.264036 
Q 99.802286 51.020202 102.701998 54.884879 
Q 105.609589 58.740198 110.684085 58.740198 
Q 113.51288 58.740198 116.073766 57.748296 
Q 118.634653 56.747036 121.274336 54.61351 
z
" style="fill:#0000ff;"/>
   </g>
   <g id="patch_6">
    <path clip-path="url(#p2aec9ff6d4)" d="M 154.19469 156.417641 
Q 151.578646 156.954142 148.749851 157.225511 
Q 145.921056 157.5 142.840113 157.5 
Q 133.652439 157.5 128.286397 155.466288 
Q 122.920354 153.432576 122.920354 149.954679 
Q 122.920354 146.464305 128.286397 144.433712 
Q 133.652439 142.4 142.840113 142.4 
Q 145.921056 142.4 148.749851 142.674489 
Q 151.578646 142.945858 154.19469 143.482359 
L 154.19469 146.492378 
Q 151.555007 145.781202 148.99412 145.450568 
Q 146.433234 145.119934 143.604439 145.119934 
Q 138.529943 145.119934 135.622352 146.408159 
Q 132.72264 147.693266 132.72264 149.954679 
Q 132.72264 152.206734 135.622352 153.49496 
Q 138.529943 154.780066 143.604439 154.780066 
Q 146.433234 154.780066 148.99412 154.449432 
Q 151.555007 154.115679 154.19469 153.404503 
z
" style="fill:#0000ff;"/>
   </g>
   <g id="patch_7">
    <path clip-path="url(#p2aec9ff6d4)" d="M 154.19469 141.033795 
Q 151.040622 141.716897 147.648247 142.060008 
Q 144.255872 142.4 140.639207 142.4 
Q 132.466666 142.4 127.69351 140.366288 
Q 122.920354 138.332576 122.920354 134.854679 
Q 122.920354 131.336232 127.777619 129.318116 
Q 132.641892 127.3 141.101804 127.3 
Q 144.361007 127.3 147.346858 127.574489 
Q 150.339718 127.845858 152.989135 128.382359 
L 152.989135 131.392378 
Q 150.25561 130.703037 147.55012 130.363045 
Q 144.844631 130.019934 142.125123 130.019934 
Q 137.092633 130.019934 134.366116 131.273848 
Q 131.6396 132.524644 131.6396 134.854679 
Q 131.6396 137.16288 134.26799 138.423032 
Q 136.89638 139.680066 141.732617 139.680066 
Q 143.050317 139.680066 144.178772 139.608325 
Q 145.307228 139.533464 146.204385 139.377505 
L 146.204385 136.551518 
L 141.05274 136.551518 
L 141.05274 134.034332 
L 154.19469 134.034332 
z
" style="fill:#ffa600;"/>
   </g>
   <g id="patch_8">
    <path clip-path="url(#p2aec9ff6d4)" d="M 144.584114 108.044749 
L 132.556507 108.044749 
L 130.657411 127.3 
L 122.920354 127.3 
L 133.969639 21.6 
L 143.145405 21.6 
L 154.19469 127.3 
L 146.464027 127.3 
z
M 134.474786 88.427047 
L 142.646653 88.427047 
L 138.567114 46.38264 
z
" style="fill:#008000;"/>
   </g>
   <g id="patch_9">
    <path clip-path="url(#p2aec9ff6d4)" d="M 177.504468 146.497 
L 165.476861 146.497 
L 163.577765 157.5 
L 155.840708 157.5 
L 166.889993 97.1 
L 176.065759 97.1 
L 187.115044 157.5 
L 179.384381 157.5 
z
M 167.39514 135.286884 
L 175.567007 135.286884 
L 171.487467 111.261509 
z
" style="fill:#008000;"/>
   </g>
   <g id="patch_10">
    <path clip-path="url(#p2aec9ff6d4)" d="M 187.115044 91.688205 
Q 184.499 94.370709 181.670205 95.727556 
Q 178.84141 97.1 175.760467 97.1 
Q 166.572793 97.1 161.206751 86.93144 
Q 155.840708 76.76288 155.840708 59.373394 
Q 155.840708 41.921524 161.206751 31.76856 
Q 166.572793 21.6 175.760467 21.6 
Q 178.84141 21.6 181.670205 22.972444 
Q 184.499 24.329291 187.115044 27.011795 
L 187.115044 42.061888 
Q 184.475361 38.506011 181.914474 36.85284 
Q 179.353588 35.199669 176.524793 35.199669 
Q 171.450297 35.199669 168.542706 41.640797 
Q 165.642994 48.066329 165.642994 59.373394 
Q 165.642994 70.633671 168.542706 77.074799 
Q 171.450297 83.500331 176.524793 83.500331 
Q 179.353588 83.500331 181.914474 81.84716 
Q 184.475361 80.178393 187.115044 76.622516 
z
" style="fill:#0000ff;"/>
   </g>
   <g id="patch_11">
    <path clip-path="url(#p2aec9ff6d4)" d="M 220.035398 154.767589 
Q 216.88133 156.133795 213.488955 156.820017 
Q 210.09658 157.5 206.479915 157.5 
Q 198.307374 157.5 193.534218 153.432576 
Q 188.761062 149.365152 188.761062 142.409358 
Q 188.761062 135.372464 193.618327 131.336232 
Q 198.4826 127.3 206.942512 127.3 
Q 210.201715 127.3 213.187566 127.848977 
Q 216.180426 128.391717 218.829843 129.464718 
L 218.829843 135.484755 
Q 216.096318 134.106073 213.390828 133.42609 
Q 210.685339 132.739868 207.965831 132.739868 
Q 202.933341 132.739868 200.206824 135.247697 
Q 197.480308 137.749287 197.480308 142.409358 
Q 197.480308 147.025759 200.108698 149.546065 
Q 202.737088 152.060132 207.573325 152.060132 
Q 208.891025 152.060132 210.01948 151.916649 
Q 211.147936 151.766928 212.045093 151.455009 
L 212.045093 145.803037 
L 206.893448 145.803037 
L 206.893448 140.768663 
L 220.035398 140.768663 
z
" style="fill:#ffa600;"/>
   </g>
   <g id="patch_12">
    <path clip-path="url(#p2aec9ff6d4)" d="M 188.761062 82 
L 220.035398 82 
L 220.035398 90.834762 
L 208.78391 90.834762 
L 208.78391 127.3 
L 200.034369 127.3 
L 200.034369 90.834762 
L 188.761062 90.834762 
z
" style="fill:#ff0000;"/>
   </g>
   <g id="patch_13">
    <path clip-path="url(#p2aec9ff6d4)" d="M 210.424822 70.997 
L 198.397215 70.997 
L 196.498119 82 
L 188.761062 82 
L 199.810347 21.6 
L 208.986113 21.6 
L 220.035398 82 
L 212.304735 82 
z
M 200.315494 59.786884 
L 208.487361 59.786884 
L 204.407821 35.761509 
z
" style="fill:#008000;"/>
   </g>
   <g id="patch_14">
    <path clip-path="url(#p2aec9ff6d4)" d="M 243.345176 132.743249 
L 231.317569 132.743249 
L 229.418473 157.5 
L 221.681416 157.5 
L 232.730701 21.6 
L 241.906467 21.6 
L 252.955752 157.5 
L 245.225089 157.5 
z
M 233.235848 107.520489 
L 241.407715 107.520489 
L 237.328175 53.463395 
z
" style="fill:#008000;"/>
   </g>
   <g id="patch_15">
    <path clip-path="url(#p2aec9ff6d4)" d="M 285.876106 156.417641 
Q 283.260062 156.954142 280.431267 157.225511 
Q 277.602472 157.5 274.521529 157.5 
Q 265.333855 157.5 259.967812 155.466288 
Q 254.60177 153.432576 254.60177 149.954679 
Q 254.60177 146.464305 259.967812 144.433712 
Q 265.333855 142.4 274.521529 142.4 
Q 277.602472 142.4 280.431267 142.674489 
Q 283.260062 142.945858 285.876106 143.482359 
L 285.876106 146.492378 
Q 283.236423 145.781202 280.675536 145.450568 
Q 278.11465 145.119934 275.285855 145.119934 
Q 270.211359 145.119934 267.303768 146.408159 
Q 264.404056 147.693266 264.404056 149.954679 
Q 264.404056 152.206734 267.303768 153.49496 
Q 270.211359 154.780066 275.285855 154.780066 
Q 278.11465 154.780066 280.675536 154.449432 
Q 283.236423 154.115679 285.876106 153.404503 
z
" style="fill:#0000ff;"/>
   </g>
   <g id="patch_16">
    <path clip-path="url(#p2aec9ff6d4)" d="M 254.60177 112.2 
L 285.876106 112.2 
L 285.876106 118.089841 
L 274.624618 118.089841 
L 274.624618 142.4 
L 265.875077 142.4 
L 265.875077 118.089841 
L 254.60177 118.089841 
z
" style="fill:#ff0000;"/>
   </g>
   <g id="patch_17">
    <path clip-path="url(#p2aec9ff6d4)" d="M 276.26553 95.695499 
L 264.237923 95.695499 
L 262.338827 112.2 
L 254.60177 112.2 
L 265.651055 21.6 
L 274.826821 21.6 
L 285.876106 112.2 
L 278.145443 112.2 
z
M 266.156202 78.880326 
L 274.328069 78.880326 
L 270.248529 42.842263 
z
" style="fill:#008000;"/>
   </g>
   <g id="patch_18">
    <path clip-path="url(#p2aec9ff6d4)" d="M 309.185884 132.743249 
L 297.158277 132.743249 
L 295.259181 157.5 
L 287.522124 157.5 
L 298.571409 21.6 
L 307.747175 21.6 
L 318.79646 157.5 
L 311.065797 157.5 
z
M 299.076556 107.520489 
L 307.248423 107.520489 
L 303.168883 53.463395 
z
" style="fill:#008000;"/>
   </g>
   <g id="patch_19">
    <path clip-path="url(#p2aec9ff6d4)" d="M 342.106238 132.743249 
L 330.078631 132.743249 
L 328.179535 157.5 
L 320.442478 157.5 
L 331.491763 21.6 
L 340.667529 21.6 
L 351.716814 157.5 
L 343.986151 157.5 
z
M 331.99691 107.520489 
L 340.168777 107.520489 
L 336.089237 53.463395 
z
" style="fill:#008000;"/>
   </g>
   <g id="patch_20">
    <path clip-path="url(#p2aec9ff6d4)" d="M 384.637168 156.133795 
Q 381.4831 156.816897 378.090725 157.160008 
Q 374.698349 157.5 371.081685 157.5 
Q 362.909144 157.5 358.135988 155.466288 
Q 353.362832 153.432576 353.362832 149.954679 
Q 353.362832 146.436232 358.220097 144.418116 
Q 363.08437 142.4 371.544282 142.4 
Q 374.803485 142.4 377.789336 142.674489 
Q 380.782196 142.945858 383.431613 143.482359 
L 383.431613 146.492378 
Q 380.698088 145.803037 377.992598 145.463045 
Q 375.287109 145.119934 372.567601 145.119934 
Q 367.535111 145.119934 364.808594 146.373848 
Q 362.082078 147.624644 362.082078 149.954679 
Q 362.082078 152.26288 364.710468 153.523032 
Q 367.338858 154.780066 372.175095 154.780066 
Q 373.492795 154.780066 374.62125 154.708325 
Q 375.749705 154.633464 376.646863 154.477505 
L 376.646863 151.651518 
L 371.495218 151.651518 
L 371.495218 149.134332 
L 384.637168 149.134332 
z
" style="fill:#ffa600;"/>
   </g>
   <g id="patch_21">
    <path clip-path="url(#p2aec9ff6d4)" d="M 353.362832 112.2 
L 384.637168 112.2 
L 384.637168 118.089841 
L 373.38568 118.089841 
L 373.38568 142.4 
L 364.636139 142.4 
L 364.636139 118.089841 
L 353.362832 118.089841 
z
" style="fill:#ff0000;"/>
   </g>
   <g id="patch_22">
    <path clip-path="url(#p2aec9ff6d4)" d="M 375.026592 95.695499 
L 362.998985 95.695499 
L 361.099889 112.2 
L 353.362832 112.2 
L 364.412117 21.6 
L 373.587883 21.6 
L 384.637168 112.2 
L 376.906505 112.2 
z
M 364.917264 78.880326 
L 373.089131 78.880326 
L 369.009591 42.842263 
z
" style="fill:#008000;"/>
   </g>
   <g id="patch_23">
    <path clip-path="url(#p2aec9ff6d4)" d="M 407.946946 154.74925 
L 395.919339 154.74925 
L 394.020243 157.5 
L 386.283186 157.5 
L 397.332471 142.4 
L 406.508237 142.4 
L 417.557522 157.5 
L 409.826859 157.5 
z
M 397.837618 151.946721 
L 406.009485 151.946721 
L 401.929945 145.940377 
z
" style="fill:#008000;"/>
   </g>
   <g id="patch_24">
    <path clip-path="url(#p2aec9ff6d4)" d="M 417.557522 139.152923 
Q 414.941478 140.762425 412.112683 141.576534 
Q 409.283888 142.4 406.202945 142.4 
Q 397.015271 142.4 391.649228 136.298864 
Q 386.283186 130.197728 386.283186 119.764036 
Q 386.283186 109.292915 391.649228 103.201136 
Q 397.015271 97.1 406.202945 97.1 
Q 409.283888 97.1 412.112683 97.923466 
Q 414.941478 98.737575 417.557522 100.347077 
L 417.557522 109.377133 
Q 414.917839 107.243607 412.356952 106.251704 
Q 409.796066 105.259802 406.967271 105.259802 
Q 401.892775 105.259802 398.985184 109.124478 
Q 396.085472 112.979798 396.085472 119.764036 
Q 396.085472 126.520202 398.985184 130.384879 
Q 401.892775 134.240198 406.967271 134.240198 
Q 409.796066 134.240198 412.356952 133.248296 
Q 414.917839 132.247036 417.557522 130.11351 
z
" style="fill:#0000ff;"/>
   </g>
   <g id="patch_25">
    <path clip-path="url(#p2aec9ff6d4)" d="M 417.557522 90.268973 
Q 414.403454 93.684487 411.011079 95.400041 
Q 407.618703 97.1 404.002039 97.1 
Q 395.829498 97.1 391.056342 86.93144 
Q 386.283186 76.76288 386.283186 59.373394 
Q 386.283186 41.781161 391.140451 31.69058 
Q 396.004724 21.6 404.464635 21.6 
Q 407.723839 21.6 410.70969 22.972444 
Q 413.70255 24.329291 416.351967 27.011795 
L 416.351967 42.061888 
Q 413.618442 38.615183 410.912952 36.915224 
Q 408.207463 35.199669 405.487955 35.199669 
Q 400.455465 35.199669 397.728948 41.469242 
Q 395.002432 47.723218 395.002432 59.373394 
Q 395.002432 70.914398 397.630822 77.215162 
Q 400.259212 83.500331 405.095449 83.500331 
Q 406.413149 83.500331 407.541604 83.141624 
Q 408.670059 82.767321 409.567217 81.987523 
L 409.567217 67.857591 
L 404.415572 67.857591 
L 404.415572 55.271659 
L 417.557522 55.271659 
z
" style="fill:#ffa600;"/>
   </g>
   <g id="patch_26">
    <path clip-path="url(#p2aec9ff6d4)" d="M 450.477876 152.035179 
Q 447.323808 154.767589 443.931433 156.140033 
Q 440.539057 157.5 436.922393 157.5 
Q 428.749852 157.5 423.976696 149.365152 
Q 419.20354 141.230304 419.20354 127.318715 
Q 419.20354 113.244929 424.060805 105.172464 
Q 428.925078 97.1 437.384989 97.1 
Q 440.644193 97.1 443.630044 98.197955 
Q 446.622904 99.283433 449.272321 101.429436 
L 449.272321 113.46951 
Q 446.538796 110.712146 443.833306 109.352179 
Q 441.127817 107.979736 438.408309 107.979736 
Q 433.375819 107.979736 430.649302 112.995394 
Q 427.922786 117.998575 427.922786 127.318715 
Q 427.922786 136.551518 430.551176 141.59213 
Q 433.179565 146.620264 438.015803 146.620264 
Q 439.333503 146.620264 440.461958 146.333299 
Q 441.590413 146.033857 442.487571 145.410019 
L 442.487571 134.106073 
L 437.335926 134.106073 
L 437.335926 124.037327 
L 450.477876 124.037327 
z
" style="fill:#ffa600;"/>
   </g>
   <g id="patch_27">
    <path clip-path="url(#p2aec9ff6d4)" d="M 440.8673 83.346249 
L 428.839693 83.346249 
L 426.940597 97.1 
L 419.20354 97.1 
L 430.252825 21.6 
L 439.428591 21.6 
L 450.477876 97.1 
L 442.747213 97.1 
z
M 430.757972 69.333605 
L 438.929839 69.333605 
L 434.850299 39.301886 
z
" style="fill:#008000;"/>
   </g>
   <g id="patch_28">
    <path clip-path="url(#p2aec9ff6d4)" d="M 473.787654 132.743249 
L 461.760047 132.743249 
L 459.860951 157.5 
L 452.123894 157.5 
L 463.173179 21.6 
L 472.348945 21.6 
L 483.39823 157.5 
L 475.667567 157.5 
z
M 463.678326 107.520489 
L 471.850193 107.520489 
L 467.770653 53.463395 
z
" style="fill:#008000;"/>
   </g>
   <g id="patch_29">
    <path clip-path="url(#p2aec9ff6d4)" d="M 506.708008 154.74925 
L 494.680401 154.74925 
L 492.781305 157.5 
L 485.044248 157.5 
L 496.093533 142.4 
L 505.269299 142.4 
L 516.318584 157.5 
L 508.587921 157.5 
z
M 496.59868 151.946721 
L 504.770547 151.946721 
L 500.691007 145.940377 
z
" style="fill:#008000;"/>
   </g>
   <g id="patch_30">
    <path clip-path="url(#p2aec9ff6d4)" d="M 485.044248 127.3 
L 516.318584 127.3 
L 516.318584 130.244921 
L 505.067096 130.244921 
L 505.067096 142.4 
L 496.317555 142.4 
L 496.317555 130.244921 
L 485.044248 130.244921 
z
" style="fill:#ff0000;"/>
   </g>
   <g id="patch_31">
    <path clip-path="url(#p2aec9ff6d4)" d="M 516.318584 125.135282 
Q 513.70254 126.208283 510.873745 126.751023 
Q 508.04495 127.3 504.964006 127.3 
Q 495.776333 127.3 490.41029 123.232576 
Q 485.044248 119.165152 485.044248 112.209358 
Q 485.044248 105.22861 490.41029 101.167424 
Q 495.776333 97.1 504.964006 97.1 
Q 508.04495 97.1 510.873745 97.648977 
Q 513.70254 98.191717 516.318584 99.264718 
L 516.318584 105.284755 
Q 513.678901 103.862404 511.118014 103.201136 
Q 508.557127 102.539868 505.728333 102.539868 
Q 500.653837 102.539868 497.746246 105.116319 
Q 494.846534 107.686532 494.846534 112.209358 
Q 494.846534 116.713468 497.746246 119.289919 
Q 500.653837 121.860132 505.728333 121.860132 
Q 508.557127 121.860132 511.118014 121.198864 
Q 513.678901 120.531357 516.318584 119.109006 
z
" style="fill:#0000ff;"/>
   </g>
   <g id="patch_32">
    <path clip-path="url(#p2aec9ff6d4)" d="M 516.318584 90.268973 
Q 513.164516 93.684487 509.772141 95.400041 
Q 506.379765 97.1 502.763101 97.1 
Q 494.59056 97.1 489.817404 86.93144 
Q 485.044248 76.76288 485.044248 59.373394 
Q 485.044248 41.781161 489.901512 31.69058 
Q 494.765786 21.6 503.225697 21.6 
Q 506.484901 21.6 509.470752 22.972444 
Q 512.463612 24.329291 515.113029 27.011795 
L 515.113029 42.061888 
Q 512.379504 38.615183 509.674014 36.915224 
Q 506.968525 35.199669 504.249017 35.199669 
Q 499.216527 35.199669 496.49001 41.469242 
Q 493.763493 47.723218 493.763493 59.373394 
Q 493.763493 70.914398 496.391883 77.215162 
Q 499.020273 83.500331 503.856511 83.500331 
Q 505.174211 83.500331 506.302666 83.141624 
Q 507.431121 82.767321 508.328279 81.987523 
L 508.328279 67.857591 
L 503.176634 67.857591 
L 503.176634 55.271659 
L 516.318584 55.271659 
z
" style="fill:#ffa600;"/>
   </g>
   <g id="patch_33">
    <path clip-path="url(#p2aec9ff6d4)" d="M 549.238938 156.417641 
Q 546.622894 156.954142 543.794099 157.225511 
Q 540.965304 157.5 537.88436 157.5 
Q 528.696687 157.5 523.330644 155.466288 
Q 517.964602 153.432576 517.964602 149.954679 
Q 517.964602 146.464305 523.330644 144.433712 
Q 528.696687 142.4 537.88436 142.4 
Q 540.965304 142.4 543.794099 142.674489 
Q 546.622894 142.945858 549.238938 143.482359 
L 549.238938 146.492378 
Q 546.599255 145.781202 544.038368 145.450568 
Q 541.477481 145.119934 538.648687 145.119934 
Q 533.574191 145.119934 530.6666 146.408159 
Q 527.766888 147.693266 527.766888 149.954679 
Q 527.766888 152.206734 530.6666 153.49496 
Q 533.574191 154.780066 538.648687 154.780066 
Q 541.477481 154.780066 544.038368 154.449432 
Q 546.599255 154.115679 549.238938 153.404503 
z
" style="fill:#0000ff;"/>
   </g>
   <g id="patch_34">
    <path clip-path="url(#p2aec9ff6d4)" d="M 549.238938 141.033795 
Q 546.08487 141.716897 542.692495 142.060008 
Q 539.300119 142.4 535.683455 142.4 
Q 527.510914 142.4 522.737758 140.366288 
Q 517.964602 138.332576 517.964602 134.854679 
Q 517.964602 131.336232 522.821866 129.318116 
Q 527.68614 127.3 536.146051 127.3 
Q 539.405255 127.3 542.391106 127.574489 
Q 545.383966 127.845858 548.033383 128.382359 
L 548.033383 131.392378 
Q 545.299858 130.703037 542.594368 130.363045 
Q 539.888879 130.019934 537.169371 130.019934 
Q 532.136881 130.019934 529.410364 131.273848 
Q 526.683847 132.524644 526.683847 134.854679 
Q 526.683847 137.16288 529.312237 138.423032 
Q 531.940627 139.680066 536.776865 139.680066 
Q 538.094565 139.680066 539.22302 139.608325 
Q 540.351475 139.533464 541.248633 139.377505 
L 541.248633 136.551518 
L 536.096988 136.551518 
L 536.096988 134.034332 
L 549.238938 134.034332 
z
" style="fill:#ffa600;"/>
   </g>
   <g id="patch_35">
    <path clip-path="url(#p2aec9ff6d4)" d="M 539.628362 108.044749 
L 527.600755 108.044749 
L 525.701659 127.3 
L 517.964602 127.3 
L 529.013887 21.6 
L 538.189653 21.6 
L 549.238938 127.3 
L 541.508275 127.3 
z
M 529.519034 88.427047 
L 537.690901 88.427047 
L 533.611361 46.38264 
z
" style="fill:#008000;"/>
   </g>
   <g id="patch_36">
    <path clip-path="url(#p2aec9ff6d4)" d="M 582.159292 156.133795 
Q 579.005224 156.816897 575.612849 157.160008 
Q 572.220473 157.5 568.603809 157.5 
Q 560.431268 157.5 555.658112 155.466288 
Q 550.884956 153.432576 550.884956 149.954679 
Q 550.884956 146.436232 555.74222 144.418116 
Q 560.606494 142.4 569.066405 142.4 
Q 572.325609 142.4 575.31146 142.674489 
Q 578.30432 142.945858 580.953737 143.482359 
L 580.953737 146.492378 
Q 578.220212 145.803037 575.514722 145.463045 
Q 572.809233 145.119934 570.089725 145.119934 
Q 565.057235 145.119934 562.330718 146.373848 
Q 559.604201 147.624644 559.604201 149.954679 
Q 559.604201 152.26288 562.232591 153.523032 
Q 564.860981 154.780066 569.697219 154.780066 
Q 571.014919 154.780066 572.143374 154.708325 
Q 573.271829 154.633464 574.168986 154.477505 
L 574.168986 151.651518 
L 569.017342 151.651518 
L 569.017342 149.134332 
L 582.159292 149.134332 
z
" style="fill:#ffa600;"/>
   </g>
   <g id="patch_37">
    <path clip-path="url(#p2aec9ff6d4)" d="M 550.884956 21.6 
L 582.159292 21.6 
L 582.159292 45.159366 
L 570.907804 45.159366 
L 570.907804 142.4 
L 562.158263 142.4 
L 562.158263 45.159366 
L 550.884956 45.159366 
z
" style="fill:#ff0000;"/>
   </g>
   <g id="patch_38">
    <path clip-path="url(#p2aec9ff6d4)" d="M 605.46907 151.9985 
L 593.441463 151.9985 
L 591.542367 157.5 
L 583.80531 157.5 
L 594.854595 127.3 
L 604.030361 127.3 
L 615.079646 157.5 
L 607.348983 157.5 
z
M 595.359741 146.393442 
L 603.531609 146.393442 
L 599.452069 134.380754 
z
" style="fill:#008000;"/>
   </g>
   <g id="patch_39">
    <path clip-path="url(#p2aec9ff6d4)" d="M 583.80531 97.1 
L 615.079646 97.1 
L 615.079646 102.989841 
L 603.828158 102.989841 
L 603.828158 127.3 
L 595.078617 127.3 
L 595.078617 102.989841 
L 583.80531 102.989841 
z
" style="fill:#ff0000;"/>
   </g>
   <g id="patch_40">
    <path clip-path="url(#p2aec9ff6d4)" d="M 615.079646 91.688205 
Q 612.463602 94.370709 609.634807 95.727556 
Q 606.806012 97.1 603.725068 97.1 
Q 594.537395 97.1 589.171352 86.93144 
Q 583.80531 76.76288 583.80531 59.373394 
Q 583.80531 41.921524 589.171352 31.76856 
Q 594.537395 21.6 603.725068 21.6 
Q 606.806012 21.6 609.634807 22.972444 
Q 612.463602 24.329291 615.079646 27.011795 
L 615.079646 42.061888 
Q 612.439963 38.506011 609.879076 36.85284 
Q 607.318189 35.199669 604.489395 35.199669 
Q 599.414899 35.199669 596.507308 41.640797 
Q 593.607596 48.066329 593.607596 59.373394 
Q 593.607596 70.633671 596.507308 77.074799 
Q 599.414899 83.500331 604.489395 83.500331 
Q 607.318189 83.500331 609.879076 81.84716 
Q 612.439963 80.178393 615.079646 76.622516 
z
" style="fill:#0000ff;"/>
   </g>
   <g id="patch_41">
    <path clip-path="url(#p2aec9ff6d4)" d="M 638.389424 154.74925 
L 626.361817 154.74925 
L 624.462721 157.5 
L 616.725664 157.5 
L 627.774949 142.4 
L 636.950715 142.4 
L 648 157.5 
L 640.269337 157.5 
z
M 628.280095 151.946721 
L 636.451963 151.946721 
L 632.372423 145.940377 
z
" style="fill:#008000;"/>
   </g>
   <g id="patch_42">
    <path clip-path="url(#p2aec9ff6d4)" d="M 648 139.667589 
Q 644.845932 141.033795 641.453557 141.720017 
Q 638.061181 142.4 634.444517 142.4 
Q 626.271976 142.4 621.49882 138.332576 
Q 616.725664 134.265152 616.725664 127.309358 
Q 616.725664 120.272464 621.582928 116.236232 
Q 626.447202 112.2 634.907113 112.2 
Q 638.166317 112.2 641.152168 112.748977 
Q 644.145028 113.291717 646.794445 114.364718 
L 646.794445 120.384755 
Q 644.06092 119.006073 641.35543 118.32609 
Q 638.649941 117.639868 635.930433 117.639868 
Q 630.897943 117.639868 628.171426 120.147697 
Q 625.444909 122.649287 625.444909 127.309358 
Q 625.444909 131.925759 628.073299 134.446065 
Q 630.701689 136.960132 635.537927 136.960132 
Q 636.855626 136.960132 637.984082 136.816649 
Q 639.112537 136.666928 640.009694 136.355009 
L 640.009694 130.703037 
L 634.85805 130.703037 
L 634.85805 125.668663 
L 648 125.668663 
z
" style="fill:#ffa600;"/>
   </g>
   <g id="patch_43">
    <path clip-path="url(#p2aec9ff6d4)" d="M 616.725664 82 
L 648 82 
L 648 87.889841 
L 636.748512 87.889841 
L 636.748512 112.2 
L 627.998971 112.2 
L 627.998971 87.889841 
L 616.725664 87.889841 
z
" style="fill:#ff0000;"/>
   </g>
   <g id="patch_44">
    <path clip-path="url(#p2aec9ff6d4)" d="M 648 77.670564 
Q 645.383956 79.816567 642.555161 80.902045 
Q 639.726366 82 636.645422 82 
Q 627.457749 82 622.091706 73.865152 
Q 616.725664 65.730304 616.725664 51.818715 
Q 616.725664 37.85722 622.091706 29.734848 
Q 627.457749 21.6 636.645422 21.6 
Q 639.726366 21.6 642.555161 22.697955 
Q 645.383956 23.783433 648 25.929436 
L 648 37.96951 
Q 645.360317 35.124809 642.79943 33.802272 
Q 640.238543 32.479736 637.409749 32.479736 
Q 632.335253 32.479736 629.427662 37.632638 
Q 626.52795 42.773063 626.52795 51.818715 
Q 626.52795 60.826937 629.427662 65.979839 
Q 632.335253 71.120264 637.409749 71.120264 
Q 640.238543 71.120264 642.79943 69.797728 
Q 645.360317 68.462714 648 65.618013 
z
" style="fill:#0000ff;"/>
   </g>
  </g>
 </g>
 <defs>
  <clipPath id="p2aec9ff6d4">
   <rect height="135.9" width="558" x="90" y="21.6"/>
  </clipPath>
 </defs>
</svg>
