<?xml version="1.0" encoding="utf-8" standalone="no"?>
<!DOCTYPE svg PUBLIC "-//W3C//DTD SVG 1.1//EN"
  "http://www.w3.org/Graphics/SVG/1.1/DTD/svg11.dtd">
<!-- Created with matplotlib (https://matplotlib.org/) -->
<svg height="180pt" version="1.1" viewBox="0 0 720 180" width="720pt" xmlns="http://www.w3.org/2000/svg" xmlns:xlink="http://www.w3.org/1999/xlink">
 <metadata>
  <rdf:RDF xmlns:cc="http://creativecommons.org/ns#" xmlns:dc="http://purl.org/dc/elements/1.1/" xmlns:rdf="http://www.w3.org/1999/02/22-rdf-syntax-ns#">
   <cc:Work>
    <dc:type rdf:resource="http://purl.org/dc/dcmitype/StillImage"/>
    <dc:date>2021-08-04T23:33:39.104815</dc:date>
    <dc:format>image/svg+xml</dc:format>
    <dc:creator>
     <cc:Agent>
      <dc:title>Matplotlib v3.3.2, https://matplotlib.org/</dc:title>
     </cc:Agent>
    </dc:creator>
   </cc:Work>
  </rdf:RDF>
 </metadata>
 <defs>
  <style type="text/css">*{stroke-linecap:butt;stroke-linejoin:round;}</style>
 </defs>
 <g id="figure_1">
  <g id="patch_1">
   <path d="M 0 180 
L 720 180 
L 720 0 
L 0 0 
z
" style="fill:none;"/>
  </g>
  <g id="axes_1">
   <g id="line2d_1">
    <path clip-path="url(#p74e48ac5e9)" d="M 90 157.5 
L 648 157.5 
" style="fill:none;stroke:#000000;stroke-linecap:square;stroke-width:0.5;"/>
   </g>
   <g id="patch_2">
    <path clip-path="url(#p74e48ac5e9)" d="M 121.274336 156.417641 
Q 118.658292 156.954142 115.829497 157.225511 
Q 113.000702 157.5 109.919759 157.5 
Q 100.732085 157.5 95.366043 155.466288 
Q 90 153.432576 90 149.954679 
Q 90 146.464305 95.366043 144.433712 
Q 100.732085 142.4 109.919759 142.4 
Q 113.000702 142.4 115.829497 142.674489 
Q 118.658292 142.945858 121.274336 143.482359 
L 121.274336 146.492378 
Q 118.634653 145.781202 116.073766 145.450568 
Q 113.51288 145.119934 110.684085 145.119934 
Q 105.609589 145.119934 102.701998 146.408159 
Q 99.802286 147.693266 99.802286 149.954679 
Q 99.802286 152.206734 102.701998 153.49496 
Q 105.609589 154.780066 110.684085 154.780066 
Q 113.51288 154.780066 116.073766 154.449432 
Q 118.634653 154.115679 121.274336 153.404503 
z
" style="fill:#0000ff;"/>
   </g>
   <g id="patch_3">
    <path clip-path="url(#p74e48ac5e9)" d="M 121.274336 138.301384 
Q 118.120268 140.350692 114.727893 141.380025 
Q 111.335518 142.4 107.718853 142.4 
Q 99.546312 142.4 94.773156 136.298864 
Q 90 130.197728 90 119.764036 
Q 90 109.208697 94.857265 103.154348 
Q 99.721538 97.1 108.18145 97.1 
Q 111.440653 97.1 114.426504 97.923466 
Q 117.419364 98.737575 120.068781 100.347077 
L 120.068781 109.377133 
Q 117.335256 107.30911 114.629766 106.289134 
Q 111.924277 105.259802 109.204769 105.259802 
Q 104.172279 105.259802 101.445762 109.021545 
Q 98.719246 112.773931 98.719246 119.764036 
Q 98.719246 126.688639 101.347636 130.469097 
Q 103.976026 134.240198 108.812263 134.240198 
Q 110.129963 134.240198 111.258418 134.024974 
Q 112.386874 133.800392 113.284031 133.332514 
L 113.284031 124.854555 
L 108.132386 124.854555 
L 108.132386 117.302995 
L 121.274336 117.302995 
z
" style="fill:#ffa600;"/>
   </g>
   <g id="patch_4">
    <path clip-path="url(#p74e48ac5e9)" d="M 90 21.6 
L 121.274336 21.6 
L 121.274336 36.324604 
L 110.022848 36.324604 
L 110.022848 97.1 
L 101.273307 97.1 
L 101.273307 36.324604 
L 90 36.324604 
z
" style="fill:#ff0000;"/>
   </g>
   <g id="patch_5">
    <path clip-path="url(#p74e48ac5e9)" d="M 154.19469 156.133795 
Q 151.040622 156.816897 147.648247 157.160008 
Q 144.255872 157.5 140.639207 157.5 
Q 132.466666 157.5 127.69351 155.466288 
Q 122.920354 153.432576 122.920354 149.954679 
Q 122.920354 146.436232 127.777619 144.418116 
Q 132.641892 142.4 141.101804 142.4 
Q 144.361007 142.4 147.346858 142.674489 
Q 150.339718 142.945858 152.989135 143.482359 
L 152.989135 146.492378 
Q 150.25561 145.803037 147.55012 145.463045 
Q 144.844631 145.119934 142.125123 145.119934 
Q 137.092633 145.119934 134.366116 146.373848 
Q 131.6396 147.624644 131.6396 149.954679 
Q 131.6396 152.26288 134.26799 153.523032 
Q 136.89638 154.780066 141.732617 154.780066 
Q 143.050317 154.780066 144.178772 154.708325 
Q 145.307228 154.633464 146.204385 154.477505 
L 146.204385 151.651518 
L 141.05274 151.651518 
L 141.05274 149.134332 
L 154.19469 149.134332 
z
" style="fill:#ffa600;"/>
   </g>
   <g id="patch_6">
    <path clip-path="url(#p74e48ac5e9)" d="M 122.920354 112.2 
L 154.19469 112.2 
L 154.19469 118.089841 
L 142.943202 118.089841 
L 142.943202 142.4 
L 134.193661 142.4 
L 134.193661 118.089841 
L 122.920354 118.089841 
z
" style="fill:#ff0000;"/>
   </g>
   <g id="patch_7">
    <path clip-path="url(#p74e48ac5e9)" d="M 154.19469 105.705846 
Q 151.578646 108.92485 148.749851 110.553068 
Q 145.921056 112.2 142.840113 112.2 
Q 133.652439 112.2 128.286397 99.997728 
Q 122.920354 87.795455 122.920354 66.928073 
Q 122.920354 45.985829 128.286397 33.802272 
Q 133.652439 21.6 142.840113 21.6 
Q 145.921056 21.6 148.749851 23.246932 
Q 151.578646 24.87515 154.19469 28.094154 
L 154.19469 46.154266 
Q 151.555007 41.887213 148.99412 39.903408 
Q 146.433234 37.919603 143.604439 37.919603 
Q 138.529943 37.919603 135.622352 45.648957 
Q 132.72264 53.359595 132.72264 66.928073 
Q 132.72264 80.440405 135.622352 88.169758 
Q 138.529943 95.880397 143.604439 95.880397 
Q 146.433234 95.880397 148.99412 93.896592 
Q 151.555007 91.894071 154.19469 87.627019 
z
" style="fill:#0000ff;"/>
   </g>
   <g id="patch_8">
    <path clip-path="url(#p74e48ac5e9)" d="M 155.840708 97.1 
L 187.115044 97.1 
L 187.115044 108.879683 
L 175.863556 108.879683 
L 175.863556 157.5 
L 167.114015 157.5 
L 167.114015 108.879683 
L 155.840708 108.879683 
z
" style="fill:#ff0000;"/>
   </g>
   <g id="patch_9">
    <path clip-path="url(#p74e48ac5e9)" d="M 187.115044 90.268973 
Q 183.960976 93.684487 180.568601 95.400041 
Q 177.176226 97.1 173.559561 97.1 
Q 165.38702 97.1 160.613864 86.93144 
Q 155.840708 76.76288 155.840708 59.373394 
Q 155.840708 41.781161 160.697973 31.69058 
Q 165.562246 21.6 174.022158 21.6 
Q 177.281361 21.6 180.267212 22.972444 
Q 183.260072 24.329291 185.909489 27.011795 
L 185.909489 42.061888 
Q 183.175964 38.615183 180.470474 36.915224 
Q 177.764985 35.199669 175.045477 35.199669 
Q 170.012987 35.199669 167.28647 41.469242 
Q 164.559954 47.723218 164.559954 59.373394 
Q 164.559954 70.914398 167.188344 77.215162 
Q 169.816734 83.500331 174.652971 83.500331 
Q 175.970671 83.500331 177.099126 83.141624 
Q 178.227582 82.767321 179.124739 81.987523 
L 179.124739 67.857591 
L 173.973094 67.857591 
L 173.973094 55.271659 
L 187.115044 55.271659 
z
" style="fill:#ffa600;"/>
   </g>
   <g id="patch_10">
    <path clip-path="url(#p74e48ac5e9)" d="M 210.424822 154.74925 
L 198.397215 154.74925 
L 196.498119 157.5 
L 188.761062 157.5 
L 199.810347 142.4 
L 208.986113 142.4 
L 220.035398 157.5 
L 212.304735 157.5 
z
M 200.315494 151.946721 
L 208.487361 151.946721 
L 204.407821 145.940377 
z
" style="fill:#008000;"/>
   </g>
   <g id="patch_11">
    <path clip-path="url(#p74e48ac5e9)" d="M 220.035398 141.033795 
Q 216.88133 141.716897 213.488955 142.060008 
Q 210.09658 142.4 206.479915 142.4 
Q 198.307374 142.4 193.534218 140.366288 
Q 188.761062 138.332576 188.761062 134.854679 
Q 188.761062 131.336232 193.618327 129.318116 
Q 198.4826 127.3 206.942512 127.3 
Q 210.201715 127.3 213.187566 127.574489 
Q 216.180426 127.845858 218.829843 128.382359 
L 218.829843 131.392378 
Q 216.096318 130.703037 213.390828 130.363045 
Q 210.685339 130.019934 207.965831 130.019934 
Q 202.933341 130.019934 200.206824 131.273848 
Q 197.480308 132.524644 197.480308 134.854679 
Q 197.480308 137.16288 200.108698 138.423032 
Q 202.737088 139.680066 207.573325 139.680066 
Q 208.891025 139.680066 210.01948 139.608325 
Q 211.147936 139.533464 212.045093 139.377505 
L 212.045093 136.551518 
L 206.893448 136.551518 
L 206.893448 134.034332 
L 220.035398 134.034332 
z
" style="fill:#ffa600;"/>
   </g>
   <g id="patch_12">
    <path clip-path="url(#p74e48ac5e9)" d="M 220.035398 124.052923 
Q 217.419354 125.662425 214.590559 126.476534 
Q 211.761764 127.3 208.680821 127.3 
Q 199.493147 127.3 194.127105 121.198864 
Q 188.761062 115.097728 188.761062 104.664036 
Q 188.761062 94.192915 194.127105 88.101136 
Q 199.493147 82 208.680821 82 
Q 211.761764 82 214.590559 82.823466 
Q 217.419354 83.637575 220.035398 85.247077 
L 220.035398 94.277133 
Q 217.395715 92.143607 214.834828 91.151704 
Q 212.273942 90.159802 209.445147 90.159802 
Q 204.370651 90.159802 201.46306 94.024478 
Q 198.563348 97.879798 198.563348 104.664036 
Q 198.563348 111.420202 201.46306 115.284879 
Q 204.370651 119.140198 209.445147 119.140198 
Q 212.273942 119.140198 214.834828 118.148296 
Q 217.395715 117.147036 220.035398 115.01351 
z
" style="fill:#0000ff;"/>
   </g>
   <g id="patch_13">
    <path clip-path="url(#p74e48ac5e9)" d="M 188.761062 21.6 
L 220.035398 21.6 
L 220.035398 33.379683 
L 208.78391 33.379683 
L 208.78391 82 
L 200.034369 82 
L 200.034369 33.379683 
L 188.761062 33.379683 
z
" style="fill:#ff0000;"/>
   </g>
   <g id="patch_14">
    <path clip-path="url(#p74e48ac5e9)" d="M 243.345176 154.74925 
L 231.317569 154.74925 
L 229.418473 157.5 
L 221.681416 157.5 
L 232.730701 142.4 
L 241.906467 142.4 
L 252.955752 157.5 
L 245.225089 157.5 
z
M 233.235848 151.946721 
L 241.407715 151.946721 
L 237.328175 145.940377 
z
" style="fill:#008000;"/>
   </g>
   <g id="patch_15">
    <path clip-path="url(#p74e48ac5e9)" d="M 252.955752 139.152923 
Q 250.339708 140.762425 247.510913 141.576534 
Q 244.682118 142.4 241.601175 142.4 
Q 232.413501 142.4 227.047459 136.298864 
Q 221.681416 130.197728 221.681416 119.764036 
Q 221.681416 109.292915 227.047459 103.201136 
Q 232.413501 97.1 241.601175 97.1 
Q 244.682118 97.1 247.510913 97.923466 
Q 250.339708 98.737575 252.955752 100.347077 
L 252.955752 109.377133 
Q 250.316069 107.243607 247.755182 106.251704 
Q 245.194296 105.259802 242.365501 105.259802 
Q 237.291005 105.259802 234.383414 109.124478 
Q 231.483702 112.979798 231.483702 119.764036 
Q 231.483702 126.520202 234.383414 130.384879 
Q 237.291005 134.240198 242.365501 134.240198 
Q 245.194296 134.240198 247.755182 133.248296 
Q 250.316069 132.247036 252.955752 130.11351 
z
" style="fill:#0000ff;"/>
   </g>
   <g id="patch_16">
    <path clip-path="url(#p74e48ac5e9)" d="M 252.955752 90.268973 
Q 249.801684 93.684487 246.409309 95.400041 
Q 243.016934 97.1 239.400269 97.1 
Q 231.227728 97.1 226.454572 86.93144 
Q 221.681416 76.76288 221.681416 59.373394 
Q 221.681416 41.781161 226.538681 31.69058 
Q 231.402954 21.6 239.862866 21.6 
Q 243.122069 21.6 246.10792 22.972444 
Q 249.10078 24.329291 251.750197 27.011795 
L 251.750197 42.061888 
Q 249.016672 38.615183 246.311182 36.915224 
Q 243.605693 35.199669 240.886185 35.199669 
Q 235.853695 35.199669 233.127178 41.469242 
Q 230.400662 47.723218 230.400662 59.373394 
Q 230.400662 70.914398 233.029052 77.215162 
Q 235.657442 83.500331 240.493679 83.500331 
Q 241.811379 83.500331 242.939834 83.141624 
Q 244.06829 82.767321 244.965447 81.987523 
L 244.965447 67.857591 
L 239.813802 67.857591 
L 239.813802 55.271659 
L 252.955752 55.271659 
z
" style="fill:#ffa600;"/>
   </g>
   <g id="patch_17">
    <path clip-path="url(#p74e48ac5e9)" d="M 276.26553 154.74925 
L 264.237923 154.74925 
L 262.338827 157.5 
L 254.60177 157.5 
L 265.651055 142.4 
L 274.826821 142.4 
L 285.876106 157.5 
L 278.145443 157.5 
z
M 266.156202 151.946721 
L 274.328069 151.946721 
L 270.248529 145.940377 
z
" style="fill:#008000;"/>
   </g>
   <g id="patch_18">
    <path clip-path="url(#p74e48ac5e9)" d="M 285.876106 141.317641 
Q 283.260062 141.854142 280.431267 142.125511 
Q 277.602472 142.4 274.521529 142.4 
Q 265.333855 142.4 259.967812 140.366288 
Q 254.60177 138.332576 254.60177 134.854679 
Q 254.60177 131.364305 259.967812 129.333712 
Q 265.333855 127.3 274.521529 127.3 
Q 277.602472 127.3 280.431267 127.574489 
Q 283.260062 127.845858 285.876106 128.382359 
L 285.876106 131.392378 
Q 283.236423 130.681202 280.675536 130.350568 
Q 278.11465 130.019934 275.285855 130.019934 
Q 270.211359 130.019934 267.303768 131.308159 
Q 264.404056 132.593266 264.404056 134.854679 
Q 264.404056 137.106734 267.303768 138.39496 
Q 270.211359 139.680066 275.285855 139.680066 
Q 278.11465 139.680066 280.675536 139.349432 
Q 283.236423 139.015679 285.876106 138.304503 
z
" style="fill:#0000ff;"/>
   </g>
   <g id="patch_19">
    <path clip-path="url(#p74e48ac5e9)" d="M 254.60177 112.2 
L 285.876106 112.2 
L 285.876106 115.144921 
L 274.624618 115.144921 
L 274.624618 127.3 
L 265.875077 127.3 
L 265.875077 115.144921 
L 254.60177 115.144921 
z
" style="fill:#ff0000;"/>
   </g>
   <g id="patch_20">
    <path clip-path="url(#p74e48ac5e9)" d="M 285.876106 104.002768 
Q 282.722038 108.101384 279.329663 110.16005 
Q 275.937288 112.2 272.320623 112.2 
Q 264.148082 112.2 259.374926 99.997728 
Q 254.60177 87.795455 254.60177 66.928073 
Q 254.60177 45.817393 259.459035 33.708697 
Q 264.323308 21.6 272.78322 21.6 
Q 276.042423 21.6 279.028274 23.246932 
Q 282.021134 24.87515 284.670551 28.094154 
L 284.670551 46.154266 
Q 281.937026 42.018219 279.231536 39.978269 
Q 276.526047 37.919603 273.806539 37.919603 
Q 268.774049 37.919603 266.047532 45.44309 
Q 263.321016 52.947862 263.321016 66.928073 
Q 263.321016 80.777277 265.949406 88.338195 
Q 268.577796 95.880397 273.414033 95.880397 
Q 274.731733 95.880397 275.860188 95.449948 
Q 276.988644 95.000785 277.885801 94.065028 
L 277.885801 77.10911 
L 272.734156 77.10911 
L 272.734156 62.00599 
L 285.876106 62.00599 
z
" style="fill:#ffa600;"/>
   </g>
   <g id="patch_21">
    <path clip-path="url(#p74e48ac5e9)" d="M 318.79646 154.767589 
Q 315.642392 156.133795 312.250017 156.820017 
Q 308.857642 157.5 305.240977 157.5 
Q 297.068436 157.5 292.29528 153.432576 
Q 287.522124 149.365152 287.522124 142.409358 
Q 287.522124 135.372464 292.379389 131.336232 
Q 297.243662 127.3 305.703574 127.3 
Q 308.962777 127.3 311.948628 127.848977 
Q 314.941488 128.391717 317.590905 129.464718 
L 317.590905 135.484755 
Q 314.85738 134.106073 312.15189 133.42609 
Q 309.446401 132.739868 306.726893 132.739868 
Q 301.694403 132.739868 298.967886 135.247697 
Q 296.24137 137.749287 296.24137 142.409358 
Q 296.24137 147.025759 298.86976 149.546065 
Q 301.49815 152.060132 306.334387 152.060132 
Q 307.652087 152.060132 308.780542 151.916649 
Q 309.908998 151.766928 310.806155 151.455009 
L 310.806155 145.803037 
L 305.65451 145.803037 
L 305.65451 140.768663 
L 318.79646 140.768663 
z
" style="fill:#ffa600;"/>
   </g>
   <g id="patch_22">
    <path clip-path="url(#p74e48ac5e9)" d="M 318.79646 119.723487 
Q 316.180416 123.478992 313.351621 125.378579 
Q 310.522826 127.3 307.441883 127.3 
Q 298.254209 127.3 292.888166 113.064016 
Q 287.522124 98.828031 287.522124 74.482751 
Q 287.522124 50.050134 292.888166 35.835984 
Q 298.254209 21.6 307.441883 21.6 
Q 310.522826 21.6 313.351621 23.521421 
Q 316.180416 25.421008 318.79646 29.176513 
L 318.79646 50.246643 
Q 316.156777 45.268416 313.59589 42.953976 
Q 311.035004 40.639537 308.206209 40.639537 
Q 303.131713 40.639537 300.224122 49.657116 
Q 297.32441 58.652861 297.32441 74.482751 
Q 297.32441 90.247139 300.224122 99.264718 
Q 303.131713 108.260463 308.206209 108.260463 
Q 311.035004 108.260463 313.59589 105.946024 
Q 316.156777 103.60975 318.79646 98.631522 
z
" style="fill:#0000ff;"/>
   </g>
   <g id="patch_23">
    <path clip-path="url(#p74e48ac5e9)" d="M 351.716814 153.401384 
Q 348.562746 155.450692 345.170371 156.480025 
Q 341.777996 157.5 338.161331 157.5 
Q 329.98879 157.5 325.215634 151.398864 
Q 320.442478 145.297728 320.442478 134.864036 
Q 320.442478 124.308697 325.299743 118.254348 
Q 330.164016 112.2 338.623928 112.2 
Q 341.883131 112.2 344.868982 113.023466 
Q 347.861842 113.837575 350.511259 115.447077 
L 350.511259 124.477133 
Q 347.777734 122.40911 345.072244 121.389134 
Q 342.366755 120.359802 339.647247 120.359802 
Q 334.614757 120.359802 331.88824 124.121545 
Q 329.161724 127.873931 329.161724 134.864036 
Q 329.161724 141.788639 331.790114 145.569097 
Q 334.418504 149.340198 339.254741 149.340198 
Q 340.572441 149.340198 341.700896 149.124974 
Q 342.829351 148.900392 343.726509 148.432514 
L 343.726509 139.954555 
L 338.574864 139.954555 
L 338.574864 132.402995 
L 351.716814 132.402995 
z
" style="fill:#ffa600;"/>
   </g>
   <g id="patch_24">
    <path clip-path="url(#p74e48ac5e9)" d="M 351.716814 105.705846 
Q 349.10077 108.92485 346.271975 110.553068 
Q 343.44318 112.2 340.362237 112.2 
Q 331.174563 112.2 325.80852 99.997728 
Q 320.442478 87.795455 320.442478 66.928073 
Q 320.442478 45.985829 325.80852 33.802272 
Q 331.174563 21.6 340.362237 21.6 
Q 343.44318 21.6 346.271975 23.246932 
Q 349.10077 24.87515 351.716814 28.094154 
L 351.716814 46.154266 
Q 349.077131 41.887213 346.516244 39.903408 
Q 343.955358 37.919603 341.126563 37.919603 
Q 336.052067 37.919603 333.144476 45.648957 
Q 330.244764 53.359595 330.244764 66.928073 
Q 330.244764 80.440405 333.144476 88.169758 
Q 336.052067 95.880397 341.126563 95.880397 
Q 343.955358 95.880397 346.516244 93.896592 
Q 349.077131 91.894071 351.716814 87.627019 
z
" style="fill:#0000ff;"/>
   </g>
   <g id="patch_25">
    <path clip-path="url(#p74e48ac5e9)" d="M 384.637168 156.417641 
Q 382.021124 156.954142 379.192329 157.225511 
Q 376.363534 157.5 373.282591 157.5 
Q 364.094917 157.5 358.728874 155.466288 
Q 353.362832 153.432576 353.362832 149.954679 
Q 353.362832 146.464305 358.728874 144.433712 
Q 364.094917 142.4 373.282591 142.4 
Q 376.363534 142.4 379.192329 142.674489 
Q 382.021124 142.945858 384.637168 143.482359 
L 384.637168 146.492378 
Q 381.997485 145.781202 379.436598 145.450568 
Q 376.875712 145.119934 374.046917 145.119934 
Q 368.972421 145.119934 366.06483 146.408159 
Q 363.165118 147.693266 363.165118 149.954679 
Q 363.165118 152.206734 366.06483 153.49496 
Q 368.972421 154.780066 374.046917 154.780066 
Q 376.875712 154.780066 379.436598 154.449432 
Q 381.997485 154.115679 384.637168 153.404503 
z
" style="fill:#0000ff;"/>
   </g>
   <g id="patch_26">
    <path clip-path="url(#p74e48ac5e9)" d="M 384.637168 131.470357 
Q 381.4831 136.935179 378.090725 139.680066 
Q 374.698349 142.4 371.081685 142.4 
Q 362.909144 142.4 358.135988 126.130304 
Q 353.362832 109.860607 353.362832 82.03743 
Q 353.362832 53.889857 358.220097 37.744929 
Q 363.08437 21.6 371.544282 21.6 
Q 374.803485 21.6 377.789336 23.79591 
Q 380.782196 25.966866 383.431613 30.258872 
L 383.431613 54.339021 
Q 380.698088 48.824293 377.992598 46.104359 
Q 375.287109 43.359471 372.567601 43.359471 
Q 367.535111 43.359471 364.808594 53.390787 
Q 362.082078 63.397149 362.082078 82.03743 
Q 362.082078 100.503037 364.710468 110.584259 
Q 367.338858 120.640529 372.175095 120.640529 
Q 373.492795 120.640529 374.62125 120.066598 
Q 375.749705 119.467713 376.646863 118.220037 
L 376.646863 95.612146 
L 371.495218 95.612146 
L 371.495218 75.474654 
L 384.637168 75.474654 
z
" style="fill:#ffa600;"/>
   </g>
   <g id="patch_27">
    <path clip-path="url(#p74e48ac5e9)" d="M 417.557522 152.035179 
Q 414.403454 154.767589 411.011079 156.140033 
Q 407.618703 157.5 404.002039 157.5 
Q 395.829498 157.5 391.056342 149.365152 
Q 386.283186 141.230304 386.283186 127.318715 
Q 386.283186 113.244929 391.140451 105.172464 
Q 396.004724 97.1 404.464635 97.1 
Q 407.723839 97.1 410.70969 98.197955 
Q 413.70255 99.283433 416.351967 101.429436 
L 416.351967 113.46951 
Q 413.618442 110.712146 410.912952 109.352179 
Q 408.207463 107.979736 405.487955 107.979736 
Q 400.455465 107.979736 397.728948 112.995394 
Q 395.002432 117.998575 395.002432 127.318715 
Q 395.002432 136.551518 397.630822 141.59213 
Q 400.259212 146.620264 405.095449 146.620264 
Q 406.413149 146.620264 407.541604 146.333299 
Q 408.670059 146.033857 409.567217 145.410019 
L 409.567217 134.106073 
L 404.415572 134.106073 
L 404.415572 124.037327 
L 417.557522 124.037327 
z
" style="fill:#ffa600;"/>
   </g>
   <g id="patch_28">
    <path clip-path="url(#p74e48ac5e9)" d="M 417.557522 91.688205 
Q 414.941478 94.370709 412.112683 95.727556 
Q 409.283888 97.1 406.202945 97.1 
Q 397.015271 97.1 391.649228 86.93144 
Q 386.283186 76.76288 386.283186 59.373394 
Q 386.283186 41.921524 391.649228 31.76856 
Q 397.015271 21.6 406.202945 21.6 
Q 409.283888 21.6 412.112683 22.972444 
Q 414.941478 24.329291 417.557522 27.011795 
L 417.557522 42.061888 
Q 414.917839 38.506011 412.356952 36.85284 
Q 409.796066 35.199669 406.967271 35.199669 
Q 401.892775 35.199669 398.985184 41.640797 
Q 396.085472 48.066329 396.085472 59.373394 
Q 396.085472 70.633671 398.985184 77.074799 
Q 401.892775 83.500331 406.967271 83.500331 
Q 409.796066 83.500331 412.356952 81.84716 
Q 414.917839 80.178393 417.557522 76.622516 
z
" style="fill:#0000ff;"/>
   </g>
   <g id="patch_29">
    <path clip-path="url(#p74e48ac5e9)" d="M 450.477876 153.170564 
Q 447.861832 155.316567 445.033037 156.402045 
Q 442.204242 157.5 439.123298 157.5 
Q 429.935625 157.5 424.569582 149.365152 
Q 419.20354 141.230304 419.20354 127.318715 
Q 419.20354 113.35722 424.569582 105.234848 
Q 429.935625 97.1 439.123298 97.1 
Q 442.204242 97.1 445.033037 98.197955 
Q 447.861832 99.283433 450.477876 101.429436 
L 450.477876 113.46951 
Q 447.838193 110.624809 445.277306 109.302272 
Q 442.71642 107.979736 439.887625 107.979736 
Q 434.813129 107.979736 431.905538 113.132638 
Q 429.005826 118.273063 429.005826 127.318715 
Q 429.005826 136.326937 431.905538 141.479839 
Q 434.813129 146.620264 439.887625 146.620264 
Q 442.71642 146.620264 445.277306 145.297728 
Q 447.838193 143.962714 450.477876 141.118013 
z
" style="fill:#0000ff;"/>
   </g>
   <g id="patch_30">
    <path clip-path="url(#p74e48ac5e9)" d="M 450.477876 90.268973 
Q 447.323808 93.684487 443.931433 95.400041 
Q 440.539057 97.1 436.922393 97.1 
Q 428.749852 97.1 423.976696 86.93144 
Q 419.20354 76.76288 419.20354 59.373394 
Q 419.20354 41.781161 424.060805 31.69058 
Q 428.925078 21.6 437.384989 21.6 
Q 440.644193 21.6 443.630044 22.972444 
Q 446.622904 24.329291 449.272321 27.011795 
L 449.272321 42.061888 
Q 446.538796 38.615183 443.833306 36.915224 
Q 441.127817 35.199669 438.408309 35.199669 
Q 433.375819 35.199669 430.649302 41.469242 
Q 427.922786 47.723218 427.922786 59.373394 
Q 427.922786 70.914398 430.551176 77.215162 
Q 433.179565 83.500331 438.015803 83.500331 
Q 439.333503 83.500331 440.461958 83.141624 
Q 441.590413 82.767321 442.487571 81.987523 
L 442.487571 67.857591 
L 437.335926 67.857591 
L 437.335926 55.271659 
L 450.477876 55.271659 
z
" style="fill:#ffa600;"/>
   </g>
   <g id="patch_31">
    <path clip-path="url(#p74e48ac5e9)" d="M 452.123894 142.4 
L 483.39823 142.4 
L 483.39823 145.344921 
L 472.146742 145.344921 
L 472.146742 157.5 
L 463.397201 157.5 
L 463.397201 145.344921 
L 452.123894 145.344921 
z
" style="fill:#ff0000;"/>
   </g>
   <g id="patch_32">
    <path clip-path="url(#p74e48ac5e9)" d="M 483.39823 139.152923 
Q 480.782186 140.762425 477.953391 141.576534 
Q 475.124596 142.4 472.043652 142.4 
Q 462.855979 142.4 457.489936 136.298864 
Q 452.123894 130.197728 452.123894 119.764036 
Q 452.123894 109.292915 457.489936 103.201136 
Q 462.855979 97.1 472.043652 97.1 
Q 475.124596 97.1 477.953391 97.923466 
Q 480.782186 98.737575 483.39823 100.347077 
L 483.39823 109.377133 
Q 480.758547 107.243607 478.19766 106.251704 
Q 475.636773 105.259802 472.807979 105.259802 
Q 467.733483 105.259802 464.825892 109.124478 
Q 461.92618 112.979798 461.92618 119.764036 
Q 461.92618 126.520202 464.825892 130.384879 
Q 467.733483 134.240198 472.807979 134.240198 
Q 475.636773 134.240198 478.19766 133.248296 
Q 480.758547 132.247036 483.39823 130.11351 
z
" style="fill:#0000ff;"/>
   </g>
   <g id="patch_33">
    <path clip-path="url(#p74e48ac5e9)" d="M 483.39823 90.268973 
Q 480.244162 93.684487 476.851787 95.400041 
Q 473.459411 97.1 469.842747 97.1 
Q 461.670206 97.1 456.89705 86.93144 
Q 452.123894 76.76288 452.123894 59.373394 
Q 452.123894 41.781161 456.981158 31.69058 
Q 461.845432 21.6 470.305343 21.6 
Q 473.564547 21.6 476.550398 22.972444 
Q 479.543258 24.329291 482.192675 27.011795 
L 482.192675 42.061888 
Q 479.45915 38.615183 476.75366 36.915224 
Q 474.048171 35.199669 471.328663 35.199669 
Q 466.296173 35.199669 463.569656 41.469242 
Q 460.84314 47.723218 460.84314 59.373394 
Q 460.84314 70.914398 463.471529 77.215162 
Q 466.099919 83.500331 470.936157 83.500331 
Q 472.253857 83.500331 473.382312 83.141624 
Q 474.510767 82.767321 475.407925 81.987523 
L 475.407925 67.857591 
L 470.25628 67.857591 
L 470.25628 55.271659 
L 483.39823 55.271659 
z
" style="fill:#ffa600;"/>
   </g>
   <g id="patch_34">
    <path clip-path="url(#p74e48ac5e9)" d="M 485.044248 142.4 
L 516.318584 142.4 
L 516.318584 145.344921 
L 505.067096 145.344921 
L 505.067096 157.5 
L 496.317555 157.5 
L 496.317555 145.344921 
L 485.044248 145.344921 
z
" style="fill:#ff0000;"/>
   </g>
   <g id="patch_35">
    <path clip-path="url(#p74e48ac5e9)" d="M 516.318584 138.301384 
Q 513.164516 140.350692 509.772141 141.380025 
Q 506.379765 142.4 502.763101 142.4 
Q 494.59056 142.4 489.817404 136.298864 
Q 485.044248 130.197728 485.044248 119.764036 
Q 485.044248 109.208697 489.901512 103.154348 
Q 494.765786 97.1 503.225697 97.1 
Q 506.484901 97.1 509.470752 97.923466 
Q 512.463612 98.737575 515.113029 100.347077 
L 515.113029 109.377133 
Q 512.379504 107.30911 509.674014 106.289134 
Q 506.968525 105.259802 504.249017 105.259802 
Q 499.216527 105.259802 496.49001 109.021545 
Q 493.763493 112.773931 493.763493 119.764036 
Q 493.763493 126.688639 496.391883 130.469097 
Q 499.020273 134.240198 503.856511 134.240198 
Q 505.174211 134.240198 506.302666 134.024974 
Q 507.431121 133.800392 508.328279 133.332514 
L 508.328279 124.854555 
L 503.176634 124.854555 
L 503.176634 117.302995 
L 516.318584 117.302995 
z
" style="fill:#ffa600;"/>
   </g>
   <g id="patch_36">
    <path clip-path="url(#p74e48ac5e9)" d="M 516.318584 91.688205 
Q 513.70254 94.370709 510.873745 95.727556 
Q 508.04495 97.1 504.964006 97.1 
Q 495.776333 97.1 490.41029 86.93144 
Q 485.044248 76.76288 485.044248 59.373394 
Q 485.044248 41.921524 490.41029 31.76856 
Q 495.776333 21.6 504.964006 21.6 
Q 508.04495 21.6 510.873745 22.972444 
Q 513.70254 24.329291 516.318584 27.011795 
L 516.318584 42.061888 
Q 513.678901 38.506011 511.118014 36.85284 
Q 508.557127 35.199669 505.728333 35.199669 
Q 500.653837 35.199669 497.746246 41.640797 
Q 494.846534 48.066329 494.846534 59.373394 
Q 494.846534 70.633671 497.746246 77.074799 
Q 500.653837 83.500331 505.728333 83.500331 
Q 508.557127 83.500331 511.118014 81.84716 
Q 513.678901 80.178393 516.318584 76.622516 
z
" style="fill:#0000ff;"/>
   </g>
   <g id="patch_37">
    <path clip-path="url(#p74e48ac5e9)" d="M 549.238938 152.035179 
Q 546.08487 154.767589 542.692495 156.140033 
Q 539.300119 157.5 535.683455 157.5 
Q 527.510914 157.5 522.737758 149.365152 
Q 517.964602 141.230304 517.964602 127.318715 
Q 517.964602 113.244929 522.821866 105.172464 
Q 527.68614 97.1 536.146051 97.1 
Q 539.405255 97.1 542.391106 98.197955 
Q 545.383966 99.283433 548.033383 101.429436 
L 548.033383 113.46951 
Q 545.299858 110.712146 542.594368 109.352179 
Q 539.888879 107.979736 537.169371 107.979736 
Q 532.136881 107.979736 529.410364 112.995394 
Q 526.683847 117.998575 526.683847 127.318715 
Q 526.683847 136.551518 529.312237 141.59213 
Q 531.940627 146.620264 536.776865 146.620264 
Q 538.094565 146.620264 539.22302 146.333299 
Q 540.351475 146.033857 541.248633 145.410019 
L 541.248633 134.106073 
L 536.096988 134.106073 
L 536.096988 124.037327 
L 549.238938 124.037327 
z
" style="fill:#ffa600;"/>
   </g>
   <g id="patch_38">
    <path clip-path="url(#p74e48ac5e9)" d="M 549.238938 91.688205 
Q 546.622894 94.370709 543.794099 95.727556 
Q 540.965304 97.1 537.88436 97.1 
Q 528.696687 97.1 523.330644 86.93144 
Q 517.964602 76.76288 517.964602 59.373394 
Q 517.964602 41.921524 523.330644 31.76856 
Q 528.696687 21.6 537.88436 21.6 
Q 540.965304 21.6 543.794099 22.972444 
Q 546.622894 24.329291 549.238938 27.011795 
L 549.238938 42.061888 
Q 546.599255 38.506011 544.038368 36.85284 
Q 541.477481 35.199669 538.648687 35.199669 
Q 533.574191 35.199669 530.6666 41.640797 
Q 527.766888 48.066329 527.766888 59.373394 
Q 527.766888 70.633671 530.6666 77.074799 
Q 533.574191 83.500331 538.648687 83.500331 
Q 541.477481 83.500331 544.038368 81.84716 
Q 546.599255 80.178393 549.238938 76.622516 
z
" style="fill:#0000ff;"/>
   </g>
   <g id="patch_39">
    <path clip-path="url(#p74e48ac5e9)" d="M 582.159292 153.170564 
Q 579.543248 155.316567 576.714453 156.402045 
Q 573.885658 157.5 570.804714 157.5 
Q 561.617041 157.5 556.250998 149.365152 
Q 550.884956 141.230304 550.884956 127.318715 
Q 550.884956 113.35722 556.250998 105.234848 
Q 561.617041 97.1 570.804714 97.1 
Q 573.885658 97.1 576.714453 98.197955 
Q 579.543248 99.283433 582.159292 101.429436 
L 582.159292 113.46951 
Q 579.519609 110.624809 576.958722 109.302272 
Q 574.397835 107.979736 571.569041 107.979736 
Q 566.494545 107.979736 563.586954 113.132638 
Q 560.687242 118.273063 560.687242 127.318715 
Q 560.687242 136.326937 563.586954 141.479839 
Q 566.494545 146.620264 571.569041 146.620264 
Q 574.397835 146.620264 576.958722 145.297728 
Q 579.519609 143.962714 582.159292 141.118013 
z
" style="fill:#0000ff;"/>
   </g>
   <g id="patch_40">
    <path clip-path="url(#p74e48ac5e9)" d="M 582.159292 90.268973 
Q 579.005224 93.684487 575.612849 95.400041 
Q 572.220473 97.1 568.603809 97.1 
Q 560.431268 97.1 555.658112 86.93144 
Q 550.884956 76.76288 550.884956 59.373394 
Q 550.884956 41.781161 555.74222 31.69058 
Q 560.606494 21.6 569.066405 21.6 
Q 572.325609 21.6 575.31146 22.972444 
Q 578.30432 24.329291 580.953737 27.011795 
L 580.953737 42.061888 
Q 578.220212 38.615183 575.514722 36.915224 
Q 572.809233 35.199669 570.089725 35.199669 
Q 565.057235 35.199669 562.330718 41.469242 
Q 559.604201 47.723218 559.604201 59.373394 
Q 559.604201 70.914398 562.232591 77.215162 
Q 564.860981 83.500331 569.697219 83.500331 
Q 571.014919 83.500331 572.143374 83.141624 
Q 573.271829 82.767321 574.168986 81.987523 
L 574.168986 67.857591 
L 569.017342 67.857591 
L 569.017342 55.271659 
L 582.159292 55.271659 
z
" style="fill:#ffa600;"/>
   </g>
   <g id="patch_41">
    <path clip-path="url(#p74e48ac5e9)" d="M 605.46907 154.74925 
L 593.441463 154.74925 
L 591.542367 157.5 
L 583.80531 157.5 
L 594.854595 142.4 
L 604.030361 142.4 
L 615.079646 157.5 
L 607.348983 157.5 
z
M 595.359741 151.946721 
L 603.531609 151.946721 
L 599.452069 145.940377 
z
" style="fill:#008000;"/>
   </g>
   <g id="patch_42">
    <path clip-path="url(#p74e48ac5e9)" d="M 615.079646 139.667589 
Q 611.925578 141.033795 608.533203 141.720017 
Q 605.140827 142.4 601.524163 142.4 
Q 593.351622 142.4 588.578466 138.332576 
Q 583.80531 134.265152 583.80531 127.309358 
Q 583.80531 120.272464 588.662574 116.236232 
Q 593.526848 112.2 601.986759 112.2 
Q 605.245963 112.2 608.231814 112.748977 
Q 611.224674 113.291717 613.874091 114.364718 
L 613.874091 120.384755 
Q 611.140566 119.006073 608.435076 118.32609 
Q 605.729587 117.639868 603.010079 117.639868 
Q 597.977589 117.639868 595.251072 120.147697 
Q 592.524555 122.649287 592.524555 127.309358 
Q 592.524555 131.925759 595.152945 134.446065 
Q 597.781335 136.960132 602.617573 136.960132 
Q 603.935272 136.960132 605.063728 136.816649 
Q 606.192183 136.666928 607.08934 136.355009 
L 607.08934 130.703037 
L 601.937696 130.703037 
L 601.937696 125.668663 
L 615.079646 125.668663 
z
" style="fill:#ffa600;"/>
   </g>
   <g id="patch_43">
    <path clip-path="url(#p74e48ac5e9)" d="M 583.80531 82 
L 615.079646 82 
L 615.079646 87.889841 
L 603.828158 87.889841 
L 603.828158 112.2 
L 595.078617 112.2 
L 595.078617 87.889841 
L 583.80531 87.889841 
z
" style="fill:#ff0000;"/>
   </g>
   <g id="patch_44">
    <path clip-path="url(#p74e48ac5e9)" d="M 615.079646 77.670564 
Q 612.463602 79.816567 609.634807 80.902045 
Q 606.806012 82 603.725068 82 
Q 594.537395 82 589.171352 73.865152 
Q 583.80531 65.730304 583.80531 51.818715 
Q 583.80531 37.85722 589.171352 29.734848 
Q 594.537395 21.6 603.725068 21.6 
Q 606.806012 21.6 609.634807 22.697955 
Q 612.463602 23.783433 615.079646 25.929436 
L 615.079646 37.96951 
Q 612.439963 35.124809 609.879076 33.802272 
Q 607.318189 32.479736 604.489395 32.479736 
Q 599.414899 32.479736 596.507308 37.632638 
Q 593.607596 42.773063 593.607596 51.818715 
Q 593.607596 60.826937 596.507308 65.979839 
Q 599.414899 71.120264 604.489395 71.120264 
Q 607.318189 71.120264 609.879076 69.797728 
Q 612.439963 68.462714 615.079646 65.618013 
z
" style="fill:#0000ff;"/>
   </g>
   <g id="patch_45">
    <path clip-path="url(#p74e48ac5e9)" d="M 638.389424 154.74925 
L 626.361817 154.74925 
L 624.462721 157.5 
L 616.725664 157.5 
L 627.774949 142.4 
L 636.950715 142.4 
L 648 157.5 
L 640.269337 157.5 
z
M 628.280095 151.946721 
L 636.451963 151.946721 
L 632.372423 145.940377 
z
" style="fill:#008000;"/>
   </g>
   <g id="patch_46">
    <path clip-path="url(#p74e48ac5e9)" d="M 648 141.317641 
Q 645.383956 141.854142 642.555161 142.125511 
Q 639.726366 142.4 636.645422 142.4 
Q 627.457749 142.4 622.091706 140.366288 
Q 616.725664 138.332576 616.725664 134.854679 
Q 616.725664 131.364305 622.091706 129.333712 
Q 627.457749 127.3 636.645422 127.3 
Q 639.726366 127.3 642.555161 127.574489 
Q 645.383956 127.845858 648 128.382359 
L 648 131.392378 
Q 645.360317 130.681202 642.79943 130.350568 
Q 640.238543 130.019934 637.409749 130.019934 
Q 632.335253 130.019934 629.427662 131.308159 
Q 626.52795 132.593266 626.52795 134.854679 
Q 626.52795 137.106734 629.427662 138.39496 
Q 632.335253 139.680066 637.409749 139.680066 
Q 640.238543 139.680066 642.79943 139.349432 
Q 645.360317 139.015679 648 138.304503 
z
" style="fill:#0000ff;"/>
   </g>
   <g id="patch_47">
    <path clip-path="url(#p74e48ac5e9)" d="M 616.725664 112.2 
L 648 112.2 
L 648 115.144921 
L 636.748512 115.144921 
L 636.748512 127.3 
L 627.998971 127.3 
L 627.998971 115.144921 
L 616.725664 115.144921 
z
" style="fill:#ff0000;"/>
   </g>
   <g id="patch_48">
    <path clip-path="url(#p74e48ac5e9)" d="M 648 104.002768 
Q 644.845932 108.101384 641.453557 110.16005 
Q 638.061181 112.2 634.444517 112.2 
Q 626.271976 112.2 621.49882 99.997728 
Q 616.725664 87.795455 616.725664 66.928073 
Q 616.725664 45.817393 621.582928 33.708697 
Q 626.447202 21.6 634.907113 21.6 
Q 638.166317 21.6 641.152168 23.246932 
Q 644.145028 24.87515 646.794445 28.094154 
L 646.794445 46.154266 
Q 644.06092 42.018219 641.35543 39.978269 
Q 638.649941 37.919603 635.930433 37.919603 
Q 630.897943 37.919603 628.171426 45.44309 
Q 625.444909 52.947862 625.444909 66.928073 
Q 625.444909 80.777277 628.073299 88.338195 
Q 630.701689 95.880397 635.537927 95.880397 
Q 636.855626 95.880397 637.984082 95.449948 
Q 639.112537 95.000785 640.009694 94.065028 
L 640.009694 77.10911 
L 634.85805 77.10911 
L 634.85805 62.00599 
L 648 62.00599 
z
" style="fill:#ffa600;"/>
   </g>
  </g>
 </g>
 <defs>
  <clipPath id="p74e48ac5e9">
   <rect height="135.9" width="558" x="90" y="21.6"/>
  </clipPath>
 </defs>
</svg>
