<?xml version="1.0" encoding="utf-8" standalone="no"?>
<!DOCTYPE svg PUBLIC "-//W3C//DTD SVG 1.1//EN"
  "http://www.w3.org/Graphics/SVG/1.1/DTD/svg11.dtd">
<!-- Created with matplotlib (https://matplotlib.org/) -->
<svg height="180pt" version="1.1" viewBox="0 0 720 180" width="720pt" xmlns="http://www.w3.org/2000/svg" xmlns:xlink="http://www.w3.org/1999/xlink">
 <metadata>
  <rdf:RDF xmlns:cc="http://creativecommons.org/ns#" xmlns:dc="http://purl.org/dc/elements/1.1/" xmlns:rdf="http://www.w3.org/1999/02/22-rdf-syntax-ns#">
   <cc:Work>
    <dc:type rdf:resource="http://purl.org/dc/dcmitype/StillImage"/>
    <dc:date>2021-08-04T23:33:55.292437</dc:date>
    <dc:format>image/svg+xml</dc:format>
    <dc:creator>
     <cc:Agent>
      <dc:title>Matplotlib v3.3.2, https://matplotlib.org/</dc:title>
     </cc:Agent>
    </dc:creator>
   </cc:Work>
  </rdf:RDF>
 </metadata>
 <defs>
  <style type="text/css">*{stroke-linecap:butt;stroke-linejoin:round;}</style>
 </defs>
 <g id="figure_1">
  <g id="patch_1">
   <path d="M 0 180 
L 720 180 
L 720 0 
L 0 0 
z
" style="fill:none;"/>
  </g>
  <g id="axes_1">
   <g id="line2d_1">
    <path clip-path="url(#p176a171ccd)" d="M 90 157.5 
L 648 157.5 
" style="fill:none;stroke:#000000;stroke-linecap:square;stroke-width:0.5;"/>
   </g>
   <g id="patch_2">
    <path clip-path="url(#p176a171ccd)" d="M 121.274336 156.133795 
Q 118.120268 156.816897 114.727893 157.160008 
Q 111.335518 157.5 107.718853 157.5 
Q 99.546312 157.5 94.773156 155.466288 
Q 90 153.432576 90 149.954679 
Q 90 146.436232 94.857265 144.418116 
Q 99.721538 142.4 108.18145 142.4 
Q 111.440653 142.4 114.426504 142.674489 
Q 117.419364 142.945858 120.068781 143.482359 
L 120.068781 146.492378 
Q 117.335256 145.803037 114.629766 145.463045 
Q 111.924277 145.119934 109.204769 145.119934 
Q 104.172279 145.119934 101.445762 146.373848 
Q 98.719246 147.624644 98.719246 149.954679 
Q 98.719246 152.26288 101.347636 153.523032 
Q 103.976026 154.780066 108.812263 154.780066 
Q 110.129963 154.780066 111.258418 154.708325 
Q 112.386874 154.633464 113.284031 154.477505 
L 113.284031 151.651518 
L 108.132386 151.651518 
L 108.132386 149.134332 
L 121.274336 149.134332 
z
" style="fill:#ffa600;"/>
   </g>
   <g id="patch_3">
    <path clip-path="url(#p176a171ccd)" d="M 121.274336 140.235282 
Q 118.658292 141.308283 115.829497 141.851023 
Q 113.000702 142.4 109.919759 142.4 
Q 100.732085 142.4 95.366043 138.332576 
Q 90 134.265152 90 127.309358 
Q 90 120.32861 95.366043 116.267424 
Q 100.732085 112.2 109.919759 112.2 
Q 113.000702 112.2 115.829497 112.748977 
Q 118.658292 113.291717 121.274336 114.364718 
L 121.274336 120.384755 
Q 118.634653 118.962404 116.073766 118.301136 
Q 113.51288 117.639868 110.684085 117.639868 
Q 105.609589 117.639868 102.701998 120.216319 
Q 99.802286 122.786532 99.802286 127.309358 
Q 99.802286 131.813468 102.701998 134.389919 
Q 105.609589 136.960132 110.684085 136.960132 
Q 113.51288 136.960132 116.073766 136.298864 
Q 118.634653 135.631357 121.274336 134.209006 
z
" style="fill:#0000ff;"/>
   </g>
   <g id="patch_4">
    <path clip-path="url(#p176a171ccd)" d="M 90 82 
L 121.274336 82 
L 121.274336 87.889841 
L 110.022848 87.889841 
L 110.022848 112.2 
L 101.273307 112.2 
L 101.273307 87.889841 
L 90 87.889841 
z
" style="fill:#ff0000;"/>
   </g>
   <g id="patch_5">
    <path clip-path="url(#p176a171ccd)" d="M 111.66376 70.997 
L 99.636153 70.997 
L 97.737057 82 
L 90 82 
L 101.049285 21.6 
L 110.225051 21.6 
L 121.274336 82 
L 113.543673 82 
z
M 101.554432 59.786884 
L 109.726299 59.786884 
L 105.64676 35.761509 
z
" style="fill:#008000;"/>
   </g>
   <g id="patch_6">
    <path clip-path="url(#p176a171ccd)" d="M 144.584114 154.74925 
L 132.556507 154.74925 
L 130.657411 157.5 
L 122.920354 157.5 
L 133.969639 142.4 
L 143.145405 142.4 
L 154.19469 157.5 
L 146.464027 157.5 
z
M 134.474786 151.946721 
L 142.646653 151.946721 
L 138.567114 145.940377 
z
" style="fill:#008000;"/>
   </g>
   <g id="patch_7">
    <path clip-path="url(#p176a171ccd)" d="M 122.920354 97.1 
L 154.19469 97.1 
L 154.19469 105.934762 
L 142.943202 105.934762 
L 142.943202 142.4 
L 134.193661 142.4 
L 134.193661 105.934762 
L 122.920354 105.934762 
z
" style="fill:#ff0000;"/>
   </g>
   <g id="patch_8">
    <path clip-path="url(#p176a171ccd)" d="M 154.19469 91.688205 
Q 151.578646 94.370709 148.749851 95.727556 
Q 145.921056 97.1 142.840113 97.1 
Q 133.652439 97.1 128.286397 86.93144 
Q 122.920354 76.76288 122.920354 59.373394 
Q 122.920354 41.921524 128.286397 31.76856 
Q 133.652439 21.6 142.840113 21.6 
Q 145.921056 21.6 148.749851 22.972444 
Q 151.578646 24.329291 154.19469 27.011795 
L 154.19469 42.061888 
Q 151.555007 38.506011 148.99412 36.85284 
Q 146.433234 35.199669 143.604439 35.199669 
Q 138.529943 35.199669 135.622352 41.640797 
Q 132.72264 48.066329 132.72264 59.373394 
Q 132.72264 70.633671 135.622352 77.074799 
Q 138.529943 83.500331 143.604439 83.500331 
Q 146.433234 83.500331 148.99412 81.84716 
Q 151.555007 80.178393 154.19469 76.622516 
z
" style="fill:#0000ff;"/>
   </g>
   <g id="patch_9">
    <path clip-path="url(#p176a171ccd)" d="M 177.504468 154.74925 
L 165.476861 154.74925 
L 163.577765 157.5 
L 155.840708 157.5 
L 166.889993 142.4 
L 176.065759 142.4 
L 187.115044 157.5 
L 179.384381 157.5 
z
M 167.39514 151.946721 
L 175.567007 151.946721 
L 171.487467 145.940377 
z
" style="fill:#008000;"/>
   </g>
   <g id="patch_10">
    <path clip-path="url(#p176a171ccd)" d="M 187.115044 141.317641 
Q 184.499 141.854142 181.670205 142.125511 
Q 178.84141 142.4 175.760467 142.4 
Q 166.572793 142.4 161.206751 140.366288 
Q 155.840708 138.332576 155.840708 134.854679 
Q 155.840708 131.364305 161.206751 129.333712 
Q 166.572793 127.3 175.760467 127.3 
Q 178.84141 127.3 181.670205 127.574489 
Q 184.499 127.845858 187.115044 128.382359 
L 187.115044 131.392378 
Q 184.475361 130.681202 181.914474 130.350568 
Q 179.353588 130.019934 176.524793 130.019934 
Q 171.450297 130.019934 168.542706 131.308159 
Q 165.642994 132.593266 165.642994 134.854679 
Q 165.642994 137.106734 168.542706 138.39496 
Q 171.450297 139.680066 176.524793 139.680066 
Q 179.353588 139.680066 181.914474 139.349432 
Q 184.475361 139.015679 187.115044 138.304503 
z
" style="fill:#0000ff;"/>
   </g>
   <g id="patch_11">
    <path clip-path="url(#p176a171ccd)" d="M 187.115044 124.567589 
Q 183.960976 125.933795 180.568601 126.620017 
Q 177.176226 127.3 173.559561 127.3 
Q 165.38702 127.3 160.613864 123.232576 
Q 155.840708 119.165152 155.840708 112.209358 
Q 155.840708 105.172464 160.697973 101.136232 
Q 165.562246 97.1 174.022158 97.1 
Q 177.281361 97.1 180.267212 97.648977 
Q 183.260072 98.191717 185.909489 99.264718 
L 185.909489 105.284755 
Q 183.175964 103.906073 180.470474 103.22609 
Q 177.764985 102.539868 175.045477 102.539868 
Q 170.012987 102.539868 167.28647 105.047697 
Q 164.559954 107.549287 164.559954 112.209358 
Q 164.559954 116.825759 167.188344 119.346065 
Q 169.816734 121.860132 174.652971 121.860132 
Q 175.970671 121.860132 177.099126 121.716649 
Q 178.227582 121.566928 179.124739 121.255009 
L 179.124739 115.603037 
L 173.973094 115.603037 
L 173.973094 110.568663 
L 187.115044 110.568663 
z
" style="fill:#ffa600;"/>
   </g>
   <g id="patch_12">
    <path clip-path="url(#p176a171ccd)" d="M 155.840708 21.6 
L 187.115044 21.6 
L 187.115044 36.324604 
L 175.863556 36.324604 
L 175.863556 97.1 
L 167.114015 97.1 
L 167.114015 36.324604 
L 155.840708 36.324604 
z
" style="fill:#ff0000;"/>
   </g>
   <g id="patch_13">
    <path clip-path="url(#p176a171ccd)" d="M 210.424822 154.74925 
L 198.397215 154.74925 
L 196.498119 157.5 
L 188.761062 157.5 
L 199.810347 142.4 
L 208.986113 142.4 
L 220.035398 157.5 
L 212.304735 157.5 
z
M 200.315494 151.946721 
L 208.487361 151.946721 
L 204.407821 145.940377 
z
" style="fill:#008000;"/>
   </g>
   <g id="patch_14">
    <path clip-path="url(#p176a171ccd)" d="M 188.761062 21.6 
L 220.035398 21.6 
L 220.035398 45.159366 
L 208.78391 45.159366 
L 208.78391 142.4 
L 200.034369 142.4 
L 200.034369 45.159366 
L 188.761062 45.159366 
z
" style="fill:#ff0000;"/>
   </g>
   <g id="patch_15">
    <path clip-path="url(#p176a171ccd)" d="M 252.955752 156.133795 
Q 249.801684 156.816897 246.409309 157.160008 
Q 243.016934 157.5 239.400269 157.5 
Q 231.227728 157.5 226.454572 155.466288 
Q 221.681416 153.432576 221.681416 149.954679 
Q 221.681416 146.436232 226.538681 144.418116 
Q 231.402954 142.4 239.862866 142.4 
Q 243.122069 142.4 246.10792 142.674489 
Q 249.10078 142.945858 251.750197 143.482359 
L 251.750197 146.492378 
Q 249.016672 145.803037 246.311182 145.463045 
Q 243.605693 145.119934 240.886185 145.119934 
Q 235.853695 145.119934 233.127178 146.373848 
Q 230.400662 147.624644 230.400662 149.954679 
Q 230.400662 152.26288 233.029052 153.523032 
Q 235.657442 154.780066 240.493679 154.780066 
Q 241.811379 154.780066 242.939834 154.708325 
Q 244.06829 154.633464 244.965447 154.477505 
L 244.965447 151.651518 
L 239.813802 151.651518 
L 239.813802 149.134332 
L 252.955752 149.134332 
z
" style="fill:#ffa600;"/>
   </g>
   <g id="patch_16">
    <path clip-path="url(#p176a171ccd)" d="M 252.955752 139.152923 
Q 250.339708 140.762425 247.510913 141.576534 
Q 244.682118 142.4 241.601175 142.4 
Q 232.413501 142.4 227.047459 136.298864 
Q 221.681416 130.197728 221.681416 119.764036 
Q 221.681416 109.292915 227.047459 103.201136 
Q 232.413501 97.1 241.601175 97.1 
Q 244.682118 97.1 247.510913 97.923466 
Q 250.339708 98.737575 252.955752 100.347077 
L 252.955752 109.377133 
Q 250.316069 107.243607 247.755182 106.251704 
Q 245.194296 105.259802 242.365501 105.259802 
Q 237.291005 105.259802 234.383414 109.124478 
Q 231.483702 112.979798 231.483702 119.764036 
Q 231.483702 126.520202 234.383414 130.384879 
Q 237.291005 134.240198 242.365501 134.240198 
Q 245.194296 134.240198 247.755182 133.248296 
Q 250.316069 132.247036 252.955752 130.11351 
z
" style="fill:#0000ff;"/>
   </g>
   <g id="patch_17">
    <path clip-path="url(#p176a171ccd)" d="M 221.681416 21.6 
L 252.955752 21.6 
L 252.955752 36.324604 
L 241.704264 36.324604 
L 241.704264 97.1 
L 232.954723 97.1 
L 232.954723 36.324604 
L 221.681416 36.324604 
z
" style="fill:#ff0000;"/>
   </g>
   <g id="patch_18">
    <path clip-path="url(#p176a171ccd)" d="M 276.26553 151.9985 
L 264.237923 151.9985 
L 262.338827 157.5 
L 254.60177 157.5 
L 265.651055 127.3 
L 274.826821 127.3 
L 285.876106 157.5 
L 278.145443 157.5 
z
M 266.156202 146.393442 
L 274.328069 146.393442 
L 270.248529 134.380754 
z
" style="fill:#008000;"/>
   </g>
   <g id="patch_19">
    <path clip-path="url(#p176a171ccd)" d="M 254.60177 82 
L 285.876106 82 
L 285.876106 90.834762 
L 274.624618 90.834762 
L 274.624618 127.3 
L 265.875077 127.3 
L 265.875077 90.834762 
L 254.60177 90.834762 
z
" style="fill:#ff0000;"/>
   </g>
   <g id="patch_20">
    <path clip-path="url(#p176a171ccd)" d="M 285.876106 76.535179 
Q 282.722038 79.267589 279.329663 80.640033 
Q 275.937288 82 272.320623 82 
Q 264.148082 82 259.374926 73.865152 
Q 254.60177 65.730304 254.60177 51.818715 
Q 254.60177 37.744929 259.459035 29.672464 
Q 264.323308 21.6 272.78322 21.6 
Q 276.042423 21.6 279.028274 22.697955 
Q 282.021134 23.783433 284.670551 25.929436 
L 284.670551 37.96951 
Q 281.937026 35.212146 279.231536 33.852179 
Q 276.526047 32.479736 273.806539 32.479736 
Q 268.774049 32.479736 266.047532 37.495394 
Q 263.321016 42.498575 263.321016 51.818715 
Q 263.321016 61.051518 265.949406 66.09213 
Q 268.577796 71.120264 273.414033 71.120264 
Q 274.731733 71.120264 275.860188 70.833299 
Q 276.988644 70.533857 277.885801 69.910019 
L 277.885801 58.606073 
L 272.734156 58.606073 
L 272.734156 48.537327 
L 285.876106 48.537327 
z
" style="fill:#ffa600;"/>
   </g>
   <g id="patch_21">
    <path clip-path="url(#p176a171ccd)" d="M 309.185884 154.74925 
L 297.158277 154.74925 
L 295.259181 157.5 
L 287.522124 157.5 
L 298.571409 142.4 
L 307.747175 142.4 
L 318.79646 157.5 
L 311.065797 157.5 
z
M 299.076556 151.946721 
L 307.248423 151.946721 
L 303.168883 145.940377 
z
" style="fill:#008000;"/>
   </g>
   <g id="patch_22">
    <path clip-path="url(#p176a171ccd)" d="M 318.79646 141.033795 
Q 315.642392 141.716897 312.250017 142.060008 
Q 308.857642 142.4 305.240977 142.4 
Q 297.068436 142.4 292.29528 140.366288 
Q 287.522124 138.332576 287.522124 134.854679 
Q 287.522124 131.336232 292.379389 129.318116 
Q 297.243662 127.3 305.703574 127.3 
Q 308.962777 127.3 311.948628 127.574489 
Q 314.941488 127.845858 317.590905 128.382359 
L 317.590905 131.392378 
Q 314.85738 130.703037 312.15189 130.363045 
Q 309.446401 130.019934 306.726893 130.019934 
Q 301.694403 130.019934 298.967886 131.273848 
Q 296.24137 132.524644 296.24137 134.854679 
Q 296.24137 137.16288 298.86976 138.423032 
Q 301.49815 139.680066 306.334387 139.680066 
Q 307.652087 139.680066 308.780542 139.608325 
Q 309.908998 139.533464 310.806155 139.377505 
L 310.806155 136.551518 
L 305.65451 136.551518 
L 305.65451 134.034332 
L 318.79646 134.034332 
z
" style="fill:#ffa600;"/>
   </g>
   <g id="patch_23">
    <path clip-path="url(#p176a171ccd)" d="M 287.522124 21.6 
L 318.79646 21.6 
L 318.79646 42.214445 
L 307.544972 42.214445 
L 307.544972 127.3 
L 298.795431 127.3 
L 298.795431 42.214445 
L 287.522124 42.214445 
z
" style="fill:#ff0000;"/>
   </g>
   <g id="patch_24">
    <path clip-path="url(#p176a171ccd)" d="M 342.106238 151.9985 
L 330.078631 151.9985 
L 328.179535 157.5 
L 320.442478 157.5 
L 331.491763 127.3 
L 340.667529 127.3 
L 351.716814 157.5 
L 343.986151 157.5 
z
M 331.99691 146.393442 
L 340.168777 146.393442 
L 336.089237 134.380754 
z
" style="fill:#008000;"/>
   </g>
   <g id="patch_25">
    <path clip-path="url(#p176a171ccd)" d="M 351.716814 124.567589 
Q 348.562746 125.933795 345.170371 126.620017 
Q 341.777996 127.3 338.161331 127.3 
Q 329.98879 127.3 325.215634 123.232576 
Q 320.442478 119.165152 320.442478 112.209358 
Q 320.442478 105.172464 325.299743 101.136232 
Q 330.164016 97.1 338.623928 97.1 
Q 341.883131 97.1 344.868982 97.648977 
Q 347.861842 98.191717 350.511259 99.264718 
L 350.511259 105.284755 
Q 347.777734 103.906073 345.072244 103.22609 
Q 342.366755 102.539868 339.647247 102.539868 
Q 334.614757 102.539868 331.88824 105.047697 
Q 329.161724 107.549287 329.161724 112.209358 
Q 329.161724 116.825759 331.790114 119.346065 
Q 334.418504 121.860132 339.254741 121.860132 
Q 340.572441 121.860132 341.700896 121.716649 
Q 342.829351 121.566928 343.726509 121.255009 
L 343.726509 115.603037 
L 338.574864 115.603037 
L 338.574864 110.568663 
L 351.716814 110.568663 
z
" style="fill:#ffa600;"/>
   </g>
   <g id="patch_26">
    <path clip-path="url(#p176a171ccd)" d="M 320.442478 21.6 
L 351.716814 21.6 
L 351.716814 36.324604 
L 340.465326 36.324604 
L 340.465326 97.1 
L 331.715785 97.1 
L 331.715785 36.324604 
L 320.442478 36.324604 
z
" style="fill:#ff0000;"/>
   </g>
   <g id="patch_27">
    <path clip-path="url(#p176a171ccd)" d="M 384.637168 156.133795 
Q 381.4831 156.816897 378.090725 157.160008 
Q 374.698349 157.5 371.081685 157.5 
Q 362.909144 157.5 358.135988 155.466288 
Q 353.362832 153.432576 353.362832 149.954679 
Q 353.362832 146.436232 358.220097 144.418116 
Q 363.08437 142.4 371.544282 142.4 
Q 374.803485 142.4 377.789336 142.674489 
Q 380.782196 142.945858 383.431613 143.482359 
L 383.431613 146.492378 
Q 380.698088 145.803037 377.992598 145.463045 
Q 375.287109 145.119934 372.567601 145.119934 
Q 367.535111 145.119934 364.808594 146.373848 
Q 362.082078 147.624644 362.082078 149.954679 
Q 362.082078 152.26288 364.710468 153.523032 
Q 367.338858 154.780066 372.175095 154.780066 
Q 373.492795 154.780066 374.62125 154.708325 
Q 375.749705 154.633464 376.646863 154.477505 
L 376.646863 151.651518 
L 371.495218 151.651518 
L 371.495218 149.134332 
L 384.637168 149.134332 
z
" style="fill:#ffa600;"/>
   </g>
   <g id="patch_28">
    <path clip-path="url(#p176a171ccd)" d="M 375.026592 136.8985 
L 362.998985 136.8985 
L 361.099889 142.4 
L 353.362832 142.4 
L 364.412117 112.2 
L 373.587883 112.2 
L 384.637168 142.4 
L 376.906505 142.4 
z
M 364.917264 131.293442 
L 373.089131 131.293442 
L 369.009591 119.280754 
z
" style="fill:#008000;"/>
   </g>
   <g id="patch_29">
    <path clip-path="url(#p176a171ccd)" d="M 353.362832 21.6 
L 384.637168 21.6 
L 384.637168 39.269524 
L 373.38568 39.269524 
L 373.38568 112.2 
L 364.636139 112.2 
L 364.636139 39.269524 
L 353.362832 39.269524 
z
" style="fill:#ff0000;"/>
   </g>
   <g id="patch_30">
    <path clip-path="url(#p176a171ccd)" d="M 417.557522 156.417641 
Q 414.941478 156.954142 412.112683 157.225511 
Q 409.283888 157.5 406.202945 157.5 
Q 397.015271 157.5 391.649228 155.466288 
Q 386.283186 153.432576 386.283186 149.954679 
Q 386.283186 146.464305 391.649228 144.433712 
Q 397.015271 142.4 406.202945 142.4 
Q 409.283888 142.4 412.112683 142.674489 
Q 414.941478 142.945858 417.557522 143.482359 
L 417.557522 146.492378 
Q 414.917839 145.781202 412.356952 145.450568 
Q 409.796066 145.119934 406.967271 145.119934 
Q 401.892775 145.119934 398.985184 146.408159 
Q 396.085472 147.693266 396.085472 149.954679 
Q 396.085472 152.206734 398.985184 153.49496 
Q 401.892775 154.780066 406.967271 154.780066 
Q 409.796066 154.780066 412.356952 154.449432 
Q 414.917839 154.115679 417.557522 153.404503 
z
" style="fill:#0000ff;"/>
   </g>
   <g id="patch_31">
    <path clip-path="url(#p176a171ccd)" d="M 407.946946 136.8985 
L 395.919339 136.8985 
L 394.020243 142.4 
L 386.283186 142.4 
L 397.332471 112.2 
L 406.508237 112.2 
L 417.557522 142.4 
L 409.826859 142.4 
z
M 397.837618 131.293442 
L 406.009485 131.293442 
L 401.929945 119.280754 
z
" style="fill:#008000;"/>
   </g>
   <g id="patch_32">
    <path clip-path="url(#p176a171ccd)" d="M 417.557522 104.002768 
Q 414.403454 108.101384 411.011079 110.16005 
Q 407.618703 112.2 404.002039 112.2 
Q 395.829498 112.2 391.056342 99.997728 
Q 386.283186 87.795455 386.283186 66.928073 
Q 386.283186 45.817393 391.140451 33.708697 
Q 396.004724 21.6 404.464635 21.6 
Q 407.723839 21.6 410.70969 23.246932 
Q 413.70255 24.87515 416.351967 28.094154 
L 416.351967 46.154266 
Q 413.618442 42.018219 410.912952 39.978269 
Q 408.207463 37.919603 405.487955 37.919603 
Q 400.455465 37.919603 397.728948 45.44309 
Q 395.002432 52.947862 395.002432 66.928073 
Q 395.002432 80.777277 397.630822 88.338195 
Q 400.259212 95.880397 405.095449 95.880397 
Q 406.413149 95.880397 407.541604 95.449948 
Q 408.670059 95.000785 409.567217 94.065028 
L 409.567217 77.10911 
L 404.415572 77.10911 
L 404.415572 62.00599 
L 417.557522 62.00599 
z
" style="fill:#ffa600;"/>
   </g>
   <g id="patch_33">
    <path clip-path="url(#p176a171ccd)" d="M 450.477876 155.335282 
Q 447.861832 156.408283 445.033037 156.951023 
Q 442.204242 157.5 439.123298 157.5 
Q 429.935625 157.5 424.569582 153.432576 
Q 419.20354 149.365152 419.20354 142.409358 
Q 419.20354 135.42861 424.569582 131.367424 
Q 429.935625 127.3 439.123298 127.3 
Q 442.204242 127.3 445.033037 127.848977 
Q 447.861832 128.391717 450.477876 129.464718 
L 450.477876 135.484755 
Q 447.838193 134.062404 445.277306 133.401136 
Q 442.71642 132.739868 439.887625 132.739868 
Q 434.813129 132.739868 431.905538 135.316319 
Q 429.005826 137.886532 429.005826 142.409358 
Q 429.005826 146.913468 431.905538 149.489919 
Q 434.813129 152.060132 439.887625 152.060132 
Q 442.71642 152.060132 445.277306 151.398864 
Q 447.838193 150.731357 450.477876 149.309006 
z
" style="fill:#0000ff;"/>
   </g>
   <g id="patch_34">
    <path clip-path="url(#p176a171ccd)" d="M 440.8673 108.044749 
L 428.839693 108.044749 
L 426.940597 127.3 
L 419.20354 127.3 
L 430.252825 21.6 
L 439.428591 21.6 
L 450.477876 127.3 
L 442.747213 127.3 
z
M 430.757972 88.427047 
L 438.929839 88.427047 
L 434.850299 46.38264 
z
" style="fill:#008000;"/>
   </g>
   <g id="patch_35">
    <path clip-path="url(#p176a171ccd)" d="M 483.39823 156.417641 
Q 480.782186 156.954142 477.953391 157.225511 
Q 475.124596 157.5 472.043652 157.5 
Q 462.855979 157.5 457.489936 155.466288 
Q 452.123894 153.432576 452.123894 149.954679 
Q 452.123894 146.464305 457.489936 144.433712 
Q 462.855979 142.4 472.043652 142.4 
Q 475.124596 142.4 477.953391 142.674489 
Q 480.782186 142.945858 483.39823 143.482359 
L 483.39823 146.492378 
Q 480.758547 145.781202 478.19766 145.450568 
Q 475.636773 145.119934 472.807979 145.119934 
Q 467.733483 145.119934 464.825892 146.408159 
Q 461.92618 147.693266 461.92618 149.954679 
Q 461.92618 152.206734 464.825892 153.49496 
Q 467.733483 154.780066 472.807979 154.780066 
Q 475.636773 154.780066 478.19766 154.449432 
Q 480.758547 154.115679 483.39823 153.404503 
z
" style="fill:#0000ff;"/>
   </g>
   <g id="patch_36">
    <path clip-path="url(#p176a171ccd)" d="M 452.123894 97.1 
L 483.39823 97.1 
L 483.39823 105.934762 
L 472.146742 105.934762 
L 472.146742 142.4 
L 463.397201 142.4 
L 463.397201 105.934762 
L 452.123894 105.934762 
z
" style="fill:#ff0000;"/>
   </g>
   <g id="patch_37">
    <path clip-path="url(#p176a171ccd)" d="M 473.787654 83.346249 
L 461.760047 83.346249 
L 459.860951 97.1 
L 452.123894 97.1 
L 463.173179 21.6 
L 472.348945 21.6 
L 483.39823 97.1 
L 475.667567 97.1 
z
M 463.678326 69.333605 
L 471.850193 69.333605 
L 467.770653 39.301886 
z
" style="fill:#008000;"/>
   </g>
   <g id="patch_38">
    <path clip-path="url(#p176a171ccd)" d="M 506.708008 149.24775 
L 494.680401 149.24775 
L 492.781305 157.5 
L 485.044248 157.5 
L 496.093533 112.2 
L 505.269299 112.2 
L 516.318584 157.5 
L 508.587921 157.5 
z
M 496.59868 140.840163 
L 504.770547 140.840163 
L 500.691007 122.821132 
z
" style="fill:#008000;"/>
   </g>
   <g id="patch_39">
    <path clip-path="url(#p176a171ccd)" d="M 516.318584 104.002768 
Q 513.164516 108.101384 509.772141 110.16005 
Q 506.379765 112.2 502.763101 112.2 
Q 494.59056 112.2 489.817404 99.997728 
Q 485.044248 87.795455 485.044248 66.928073 
Q 485.044248 45.817393 489.901512 33.708697 
Q 494.765786 21.6 503.225697 21.6 
Q 506.484901 21.6 509.470752 23.246932 
Q 512.463612 24.87515 515.113029 28.094154 
L 515.113029 46.154266 
Q 512.379504 42.018219 509.674014 39.978269 
Q 506.968525 37.919603 504.249017 37.919603 
Q 499.216527 37.919603 496.49001 45.44309 
Q 493.763493 52.947862 493.763493 66.928073 
Q 493.763493 80.777277 496.391883 88.338195 
Q 499.020273 95.880397 503.856511 95.880397 
Q 505.174211 95.880397 506.302666 95.449948 
Q 507.431121 95.000785 508.328279 94.065028 
L 508.328279 77.10911 
L 503.176634 77.10911 
L 503.176634 62.00599 
L 516.318584 62.00599 
z
" style="fill:#ffa600;"/>
   </g>
   <g id="patch_40">
    <path clip-path="url(#p176a171ccd)" d="M 517.964602 127.3 
L 549.238938 127.3 
L 549.238938 133.189841 
L 537.98745 133.189841 
L 537.98745 157.5 
L 529.237909 157.5 
L 529.237909 133.189841 
L 517.964602 133.189841 
z
" style="fill:#ff0000;"/>
   </g>
   <g id="patch_41">
    <path clip-path="url(#p176a171ccd)" d="M 549.238938 123.201384 
Q 546.08487 125.250692 542.692495 126.280025 
Q 539.300119 127.3 535.683455 127.3 
Q 527.510914 127.3 522.737758 121.198864 
Q 517.964602 115.097728 517.964602 104.664036 
Q 517.964602 94.108697 522.821866 88.054348 
Q 527.68614 82 536.146051 82 
Q 539.405255 82 542.391106 82.823466 
Q 545.383966 83.637575 548.033383 85.247077 
L 548.033383 94.277133 
Q 545.299858 92.20911 542.594368 91.189134 
Q 539.888879 90.159802 537.169371 90.159802 
Q 532.136881 90.159802 529.410364 93.921545 
Q 526.683847 97.673931 526.683847 104.664036 
Q 526.683847 111.588639 529.312237 115.369097 
Q 531.940627 119.140198 536.776865 119.140198 
Q 538.094565 119.140198 539.22302 118.924974 
Q 540.351475 118.700392 541.248633 118.232514 
L 541.248633 109.754555 
L 536.096988 109.754555 
L 536.096988 102.202995 
L 549.238938 102.202995 
z
" style="fill:#ffa600;"/>
   </g>
   <g id="patch_42">
    <path clip-path="url(#p176a171ccd)" d="M 539.628362 70.997 
L 527.600755 70.997 
L 525.701659 82 
L 517.964602 82 
L 529.013887 21.6 
L 538.189653 21.6 
L 549.238938 82 
L 541.508275 82 
z
M 529.519034 59.786884 
L 537.690901 59.786884 
L 533.611361 35.761509 
z
" style="fill:#008000;"/>
   </g>
   <g id="patch_43">
    <path clip-path="url(#p176a171ccd)" d="M 572.548716 154.74925 
L 560.521109 154.74925 
L 558.622013 157.5 
L 550.884956 157.5 
L 561.934241 142.4 
L 571.110007 142.4 
L 582.159292 157.5 
L 574.428629 157.5 
z
M 562.439387 151.946721 
L 570.611255 151.946721 
L 566.531715 145.940377 
z
" style="fill:#008000;"/>
   </g>
   <g id="patch_44">
    <path clip-path="url(#p176a171ccd)" d="M 582.159292 136.935179 
Q 579.005224 139.667589 575.612849 141.040033 
Q 572.220473 142.4 568.603809 142.4 
Q 560.431268 142.4 555.658112 134.265152 
Q 550.884956 126.130304 550.884956 112.218715 
Q 550.884956 98.144929 555.74222 90.072464 
Q 560.606494 82 569.066405 82 
Q 572.325609 82 575.31146 83.097955 
Q 578.30432 84.183433 580.953737 86.329436 
L 580.953737 98.36951 
Q 578.220212 95.612146 575.514722 94.252179 
Q 572.809233 92.879736 570.089725 92.879736 
Q 565.057235 92.879736 562.330718 97.895394 
Q 559.604201 102.898575 559.604201 112.218715 
Q 559.604201 121.451518 562.232591 126.49213 
Q 564.860981 131.520264 569.697219 131.520264 
Q 571.014919 131.520264 572.143374 131.233299 
Q 573.271829 130.933857 574.168986 130.310019 
L 574.168986 119.006073 
L 569.017342 119.006073 
L 569.017342 108.937327 
L 582.159292 108.937327 
z
" style="fill:#ffa600;"/>
   </g>
   <g id="patch_45">
    <path clip-path="url(#p176a171ccd)" d="M 550.884956 21.6 
L 582.159292 21.6 
L 582.159292 33.379683 
L 570.907804 33.379683 
L 570.907804 82 
L 562.158263 82 
L 562.158263 33.379683 
L 550.884956 33.379683 
z
" style="fill:#ff0000;"/>
   </g>
   <g id="patch_46">
    <path clip-path="url(#p176a171ccd)" d="M 583.80531 142.4 
L 615.079646 142.4 
L 615.079646 145.344921 
L 603.828158 145.344921 
L 603.828158 157.5 
L 595.078617 157.5 
L 595.078617 145.344921 
L 583.80531 145.344921 
z
" style="fill:#ff0000;"/>
   </g>
   <g id="patch_47">
    <path clip-path="url(#p176a171ccd)" d="M 605.46907 134.14775 
L 593.441463 134.14775 
L 591.542367 142.4 
L 583.80531 142.4 
L 594.854595 97.1 
L 604.030361 97.1 
L 615.079646 142.4 
L 607.348983 142.4 
z
M 595.359741 125.740163 
L 603.531609 125.740163 
L 599.452069 107.721132 
z
" style="fill:#008000;"/>
   </g>
   <g id="patch_48">
    <path clip-path="url(#p176a171ccd)" d="M 615.079646 90.268973 
Q 611.925578 93.684487 608.533203 95.400041 
Q 605.140827 97.1 601.524163 97.1 
Q 593.351622 97.1 588.578466 86.93144 
Q 583.80531 76.76288 583.80531 59.373394 
Q 583.80531 41.781161 588.662574 31.69058 
Q 593.526848 21.6 601.986759 21.6 
Q 605.245963 21.6 608.231814 22.972444 
Q 611.224674 24.329291 613.874091 27.011795 
L 613.874091 42.061888 
Q 611.140566 38.615183 608.435076 36.915224 
Q 605.729587 35.199669 603.010079 35.199669 
Q 597.977589 35.199669 595.251072 41.469242 
Q 592.524555 47.723218 592.524555 59.373394 
Q 592.524555 70.914398 595.152945 77.215162 
Q 597.781335 83.500331 602.617573 83.500331 
Q 603.935272 83.500331 605.063728 83.141624 
Q 606.192183 82.767321 607.08934 81.987523 
L 607.08934 67.857591 
L 601.937696 67.857591 
L 601.937696 55.271659 
L 615.079646 55.271659 
z
" style="fill:#ffa600;"/>
   </g>
   <g id="patch_49">
    <path clip-path="url(#p176a171ccd)" d="M 616.725664 142.4 
L 648 142.4 
L 648 145.344921 
L 636.748512 145.344921 
L 636.748512 157.5 
L 627.998971 157.5 
L 627.998971 145.344921 
L 616.725664 145.344921 
z
" style="fill:#ff0000;"/>
   </g>
   <g id="patch_50">
    <path clip-path="url(#p176a171ccd)" d="M 638.389424 136.8985 
L 626.361817 136.8985 
L 624.462721 142.4 
L 616.725664 142.4 
L 627.774949 112.2 
L 636.950715 112.2 
L 648 142.4 
L 640.269337 142.4 
z
M 628.280095 131.293442 
L 636.451963 131.293442 
L 632.372423 119.280754 
z
" style="fill:#008000;"/>
   </g>
   <g id="patch_51">
    <path clip-path="url(#p176a171ccd)" d="M 648 110.035282 
Q 645.383956 111.108283 642.555161 111.651023 
Q 639.726366 112.2 636.645422 112.2 
Q 627.457749 112.2 622.091706 108.132576 
Q 616.725664 104.065152 616.725664 97.109358 
Q 616.725664 90.12861 622.091706 86.067424 
Q 627.457749 82 636.645422 82 
Q 639.726366 82 642.555161 82.548977 
Q 645.383956 83.091717 648 84.164718 
L 648 90.184755 
Q 645.360317 88.762404 642.79943 88.101136 
Q 640.238543 87.439868 637.409749 87.439868 
Q 632.335253 87.439868 629.427662 90.016319 
Q 626.52795 92.586532 626.52795 97.109358 
Q 626.52795 101.613468 629.427662 104.189919 
Q 632.335253 106.760132 637.409749 106.760132 
Q 640.238543 106.760132 642.79943 106.098864 
Q 645.360317 105.431357 648 104.009006 
z
" style="fill:#0000ff;"/>
   </g>
   <g id="patch_52">
    <path clip-path="url(#p176a171ccd)" d="M 648 76.535179 
Q 644.845932 79.267589 641.453557 80.640033 
Q 638.061181 82 634.444517 82 
Q 626.271976 82 621.49882 73.865152 
Q 616.725664 65.730304 616.725664 51.818715 
Q 616.725664 37.744929 621.582928 29.672464 
Q 626.447202 21.6 634.907113 21.6 
Q 638.166317 21.6 641.152168 22.697955 
Q 644.145028 23.783433 646.794445 25.929436 
L 646.794445 37.96951 
Q 644.06092 35.212146 641.35543 33.852179 
Q 638.649941 32.479736 635.930433 32.479736 
Q 630.897943 32.479736 628.171426 37.495394 
Q 625.444909 42.498575 625.444909 51.818715 
Q 625.444909 61.051518 628.073299 66.09213 
Q 630.701689 71.120264 635.537927 71.120264 
Q 636.855626 71.120264 637.984082 70.833299 
Q 639.112537 70.533857 640.009694 69.910019 
L 640.009694 58.606073 
L 634.85805 58.606073 
L 634.85805 48.537327 
L 648 48.537327 
z
" style="fill:#ffa600;"/>
   </g>
  </g>
 </g>
 <defs>
  <clipPath id="p176a171ccd">
   <rect height="135.9" width="558" x="90" y="21.6"/>
  </clipPath>
 </defs>
</svg>
