<?xml version="1.0" encoding="utf-8" standalone="no"?>
<!DOCTYPE svg PUBLIC "-//W3C//DTD SVG 1.1//EN"
  "http://www.w3.org/Graphics/SVG/1.1/DTD/svg11.dtd">
<!-- Created with matplotlib (https://matplotlib.org/) -->
<svg height="180pt" version="1.1" viewBox="0 0 720 180" width="720pt" xmlns="http://www.w3.org/2000/svg" xmlns:xlink="http://www.w3.org/1999/xlink">
 <metadata>
  <rdf:RDF xmlns:cc="http://creativecommons.org/ns#" xmlns:dc="http://purl.org/dc/elements/1.1/" xmlns:rdf="http://www.w3.org/1999/02/22-rdf-syntax-ns#">
   <cc:Work>
    <dc:type rdf:resource="http://purl.org/dc/dcmitype/StillImage"/>
    <dc:date>2021-08-04T23:33:58.643903</dc:date>
    <dc:format>image/svg+xml</dc:format>
    <dc:creator>
     <cc:Agent>
      <dc:title>Matplotlib v3.3.2, https://matplotlib.org/</dc:title>
     </cc:Agent>
    </dc:creator>
   </cc:Work>
  </rdf:RDF>
 </metadata>
 <defs>
  <style type="text/css">*{stroke-linecap:butt;stroke-linejoin:round;}</style>
 </defs>
 <g id="figure_1">
  <g id="patch_1">
   <path d="M 0 180 
L 720 180 
L 720 0 
L 0 0 
z
" style="fill:none;"/>
  </g>
  <g id="axes_1">
   <g id="line2d_1">
    <path clip-path="url(#pef97d4d155)" d="M 90 157.5 
L 648 157.5 
" style="fill:none;stroke:#000000;stroke-linecap:square;stroke-width:0.5;"/>
   </g>
   <g id="patch_2">
    <path clip-path="url(#pef97d4d155)" d="M 121.274336 156.133795 
Q 118.120268 156.816897 114.727893 157.160008 
Q 111.335518 157.5 107.718853 157.5 
Q 99.546312 157.5 94.773156 155.466288 
Q 90 153.432576 90 149.954679 
Q 90 146.436232 94.857265 144.418116 
Q 99.721538 142.4 108.18145 142.4 
Q 111.440653 142.4 114.426504 142.674489 
Q 117.419364 142.945858 120.068781 143.482359 
L 120.068781 146.492378 
Q 117.335256 145.803037 114.629766 145.463045 
Q 111.924277 145.119934 109.204769 145.119934 
Q 104.172279 145.119934 101.445762 146.373848 
Q 98.719246 147.624644 98.719246 149.954679 
Q 98.719246 152.26288 101.347636 153.523032 
Q 103.976026 154.780066 108.812263 154.780066 
Q 110.129963 154.780066 111.258418 154.708325 
Q 112.386874 154.633464 113.284031 154.477505 
L 113.284031 151.651518 
L 108.132386 151.651518 
L 108.132386 149.134332 
L 121.274336 149.134332 
z
" style="fill:#ffa600;"/>
   </g>
   <g id="patch_3">
    <path clip-path="url(#pef97d4d155)" d="M 121.274336 140.235282 
Q 118.658292 141.308283 115.829497 141.851023 
Q 113.000702 142.4 109.919759 142.4 
Q 100.732085 142.4 95.366043 138.332576 
Q 90 134.265152 90 127.309358 
Q 90 120.32861 95.366043 116.267424 
Q 100.732085 112.2 109.919759 112.2 
Q 113.000702 112.2 115.829497 112.748977 
Q 118.658292 113.291717 121.274336 114.364718 
L 121.274336 120.384755 
Q 118.634653 118.962404 116.073766 118.301136 
Q 113.51288 117.639868 110.684085 117.639868 
Q 105.609589 117.639868 102.701998 120.216319 
Q 99.802286 122.786532 99.802286 127.309358 
Q 99.802286 131.813468 102.701998 134.389919 
Q 105.609589 136.960132 110.684085 136.960132 
Q 113.51288 136.960132 116.073766 136.298864 
Q 118.634653 135.631357 121.274336 134.209006 
z
" style="fill:#0000ff;"/>
   </g>
   <g id="patch_4">
    <path clip-path="url(#pef97d4d155)" d="M 111.66376 95.695499 
L 99.636153 95.695499 
L 97.737057 112.2 
L 90 112.2 
L 101.049285 21.6 
L 110.225051 21.6 
L 121.274336 112.2 
L 113.543673 112.2 
z
M 101.554432 78.880326 
L 109.726299 78.880326 
L 105.64676 42.842263 
z
" style="fill:#008000;"/>
   </g>
   <g id="patch_5">
    <path clip-path="url(#pef97d4d155)" d="M 144.584114 154.74925 
L 132.556507 154.74925 
L 130.657411 157.5 
L 122.920354 157.5 
L 133.969639 142.4 
L 143.145405 142.4 
L 154.19469 157.5 
L 146.464027 157.5 
z
M 134.474786 151.946721 
L 142.646653 151.946721 
L 138.567114 145.940377 
z
" style="fill:#008000;"/>
   </g>
   <g id="patch_6">
    <path clip-path="url(#pef97d4d155)" d="M 154.19469 139.667589 
Q 151.040622 141.033795 147.648247 141.720017 
Q 144.255872 142.4 140.639207 142.4 
Q 132.466666 142.4 127.69351 138.332576 
Q 122.920354 134.265152 122.920354 127.309358 
Q 122.920354 120.272464 127.777619 116.236232 
Q 132.641892 112.2 141.101804 112.2 
Q 144.361007 112.2 147.346858 112.748977 
Q 150.339718 113.291717 152.989135 114.364718 
L 152.989135 120.384755 
Q 150.25561 119.006073 147.55012 118.32609 
Q 144.844631 117.639868 142.125123 117.639868 
Q 137.092633 117.639868 134.366116 120.147697 
Q 131.6396 122.649287 131.6396 127.309358 
Q 131.6396 131.925759 134.26799 134.446065 
Q 136.89638 136.960132 141.732617 136.960132 
Q 143.050317 136.960132 144.178772 136.816649 
Q 145.307228 136.666928 146.204385 136.355009 
L 146.204385 130.703037 
L 141.05274 130.703037 
L 141.05274 125.668663 
L 154.19469 125.668663 
z
" style="fill:#ffa600;"/>
   </g>
   <g id="patch_7">
    <path clip-path="url(#pef97d4d155)" d="M 122.920354 21.6 
L 154.19469 21.6 
L 154.19469 39.269524 
L 142.943202 39.269524 
L 142.943202 112.2 
L 134.193661 112.2 
L 134.193661 39.269524 
L 122.920354 39.269524 
z
" style="fill:#ff0000;"/>
   </g>
   <g id="patch_8">
    <path clip-path="url(#pef97d4d155)" d="M 155.840708 21.6 
L 187.115044 21.6 
L 187.115044 48.104286 
L 175.863556 48.104286 
L 175.863556 157.5 
L 167.114015 157.5 
L 167.114015 48.104286 
L 155.840708 48.104286 
z
" style="fill:#ff0000;"/>
   </g>
   <g id="patch_9">
    <path clip-path="url(#pef97d4d155)" d="M 210.424822 146.497 
L 198.397215 146.497 
L 196.498119 157.5 
L 188.761062 157.5 
L 199.810347 97.1 
L 208.986113 97.1 
L 220.035398 157.5 
L 212.304735 157.5 
z
M 200.315494 135.286884 
L 208.487361 135.286884 
L 204.407821 111.261509 
z
" style="fill:#008000;"/>
   </g>
   <g id="patch_10">
    <path clip-path="url(#pef97d4d155)" d="M 220.035398 90.268973 
Q 216.88133 93.684487 213.488955 95.400041 
Q 210.09658 97.1 206.479915 97.1 
Q 198.307374 97.1 193.534218 86.93144 
Q 188.761062 76.76288 188.761062 59.373394 
Q 188.761062 41.781161 193.618327 31.69058 
Q 198.4826 21.6 206.942512 21.6 
Q 210.201715 21.6 213.187566 22.972444 
Q 216.180426 24.329291 218.829843 27.011795 
L 218.829843 42.061888 
Q 216.096318 38.615183 213.390828 36.915224 
Q 210.685339 35.199669 207.965831 35.199669 
Q 202.933341 35.199669 200.206824 41.469242 
Q 197.480308 47.723218 197.480308 59.373394 
Q 197.480308 70.914398 200.108698 77.215162 
Q 202.737088 83.500331 207.573325 83.500331 
Q 208.891025 83.500331 210.01948 83.141624 
Q 211.147936 82.767321 212.045093 81.987523 
L 212.045093 67.857591 
L 206.893448 67.857591 
L 206.893448 55.271659 
L 220.035398 55.271659 
z
" style="fill:#ffa600;"/>
   </g>
   <g id="patch_11">
    <path clip-path="url(#pef97d4d155)" d="M 252.955752 153.401384 
Q 249.801684 155.450692 246.409309 156.480025 
Q 243.016934 157.5 239.400269 157.5 
Q 231.227728 157.5 226.454572 151.398864 
Q 221.681416 145.297728 221.681416 134.864036 
Q 221.681416 124.308697 226.538681 118.254348 
Q 231.402954 112.2 239.862866 112.2 
Q 243.122069 112.2 246.10792 113.023466 
Q 249.10078 113.837575 251.750197 115.447077 
L 251.750197 124.477133 
Q 249.016672 122.40911 246.311182 121.389134 
Q 243.605693 120.359802 240.886185 120.359802 
Q 235.853695 120.359802 233.127178 124.121545 
Q 230.400662 127.873931 230.400662 134.864036 
Q 230.400662 141.788639 233.029052 145.569097 
Q 235.657442 149.340198 240.493679 149.340198 
Q 241.811379 149.340198 242.939834 149.124974 
Q 244.06829 148.900392 244.965447 148.432514 
L 244.965447 139.954555 
L 239.813802 139.954555 
L 239.813802 132.402995 
L 252.955752 132.402995 
z
" style="fill:#ffa600;"/>
   </g>
   <g id="patch_12">
    <path clip-path="url(#pef97d4d155)" d="M 243.345176 95.695499 
L 231.317569 95.695499 
L 229.418473 112.2 
L 221.681416 112.2 
L 232.730701 21.6 
L 241.906467 21.6 
L 252.955752 112.2 
L 245.225089 112.2 
z
M 233.235848 78.880326 
L 241.407715 78.880326 
L 237.328175 42.842263 
z
" style="fill:#008000;"/>
   </g>
   <g id="patch_13">
    <path clip-path="url(#pef97d4d155)" d="M 276.26553 154.74925 
L 264.237923 154.74925 
L 262.338827 157.5 
L 254.60177 157.5 
L 265.651055 142.4 
L 274.826821 142.4 
L 285.876106 157.5 
L 278.145443 157.5 
z
M 266.156202 151.946721 
L 274.328069 151.946721 
L 270.248529 145.940377 
z
" style="fill:#008000;"/>
   </g>
   <g id="patch_14">
    <path clip-path="url(#pef97d4d155)" d="M 285.876106 140.235282 
Q 283.260062 141.308283 280.431267 141.851023 
Q 277.602472 142.4 274.521529 142.4 
Q 265.333855 142.4 259.967812 138.332576 
Q 254.60177 134.265152 254.60177 127.309358 
Q 254.60177 120.32861 259.967812 116.267424 
Q 265.333855 112.2 274.521529 112.2 
Q 277.602472 112.2 280.431267 112.748977 
Q 283.260062 113.291717 285.876106 114.364718 
L 285.876106 120.384755 
Q 283.236423 118.962404 280.675536 118.301136 
Q 278.11465 117.639868 275.285855 117.639868 
Q 270.211359 117.639868 267.303768 120.216319 
Q 264.404056 122.786532 264.404056 127.309358 
Q 264.404056 131.813468 267.303768 134.389919 
Q 270.211359 136.960132 275.285855 136.960132 
Q 278.11465 136.960132 280.675536 136.298864 
Q 283.236423 135.631357 285.876106 134.209006 
z
" style="fill:#0000ff;"/>
   </g>
   <g id="patch_15">
    <path clip-path="url(#pef97d4d155)" d="M 285.876106 109.467589 
Q 282.722038 110.833795 279.329663 111.520017 
Q 275.937288 112.2 272.320623 112.2 
Q 264.148082 112.2 259.374926 108.132576 
Q 254.60177 104.065152 254.60177 97.109358 
Q 254.60177 90.072464 259.459035 86.036232 
Q 264.323308 82 272.78322 82 
Q 276.042423 82 279.028274 82.548977 
Q 282.021134 83.091717 284.670551 84.164718 
L 284.670551 90.184755 
Q 281.937026 88.806073 279.231536 88.12609 
Q 276.526047 87.439868 273.806539 87.439868 
Q 268.774049 87.439868 266.047532 89.947697 
Q 263.321016 92.449287 263.321016 97.109358 
Q 263.321016 101.725759 265.949406 104.246065 
Q 268.577796 106.760132 273.414033 106.760132 
Q 274.731733 106.760132 275.860188 106.616649 
Q 276.988644 106.466928 277.885801 106.155009 
L 277.885801 100.503037 
L 272.734156 100.503037 
L 272.734156 95.468663 
L 285.876106 95.468663 
z
" style="fill:#ffa600;"/>
   </g>
   <g id="patch_16">
    <path clip-path="url(#pef97d4d155)" d="M 254.60177 21.6 
L 285.876106 21.6 
L 285.876106 33.379683 
L 274.624618 33.379683 
L 274.624618 82 
L 265.875077 82 
L 265.875077 33.379683 
L 254.60177 33.379683 
z
" style="fill:#ff0000;"/>
   </g>
   <g id="patch_17">
    <path clip-path="url(#pef97d4d155)" d="M 318.79646 156.133795 
Q 315.642392 156.816897 312.250017 157.160008 
Q 308.857642 157.5 305.240977 157.5 
Q 297.068436 157.5 292.29528 155.466288 
Q 287.522124 153.432576 287.522124 149.954679 
Q 287.522124 146.436232 292.379389 144.418116 
Q 297.243662 142.4 305.703574 142.4 
Q 308.962777 142.4 311.948628 142.674489 
Q 314.941488 142.945858 317.590905 143.482359 
L 317.590905 146.492378 
Q 314.85738 145.803037 312.15189 145.463045 
Q 309.446401 145.119934 306.726893 145.119934 
Q 301.694403 145.119934 298.967886 146.373848 
Q 296.24137 147.624644 296.24137 149.954679 
Q 296.24137 152.26288 298.86976 153.523032 
Q 301.49815 154.780066 306.334387 154.780066 
Q 307.652087 154.780066 308.780542 154.708325 
Q 309.908998 154.633464 310.806155 154.477505 
L 310.806155 151.651518 
L 305.65451 151.651518 
L 305.65451 149.134332 
L 318.79646 149.134332 
z
" style="fill:#ffa600;"/>
   </g>
   <g id="patch_18">
    <path clip-path="url(#pef97d4d155)" d="M 309.185884 134.14775 
L 297.158277 134.14775 
L 295.259181 142.4 
L 287.522124 142.4 
L 298.571409 97.1 
L 307.747175 97.1 
L 318.79646 142.4 
L 311.065797 142.4 
z
M 299.076556 125.740163 
L 307.248423 125.740163 
L 303.168883 107.721132 
z
" style="fill:#008000;"/>
   </g>
   <g id="patch_19">
    <path clip-path="url(#pef97d4d155)" d="M 318.79646 91.688205 
Q 316.180416 94.370709 313.351621 95.727556 
Q 310.522826 97.1 307.441883 97.1 
Q 298.254209 97.1 292.888166 86.93144 
Q 287.522124 76.76288 287.522124 59.373394 
Q 287.522124 41.921524 292.888166 31.76856 
Q 298.254209 21.6 307.441883 21.6 
Q 310.522826 21.6 313.351621 22.972444 
Q 316.180416 24.329291 318.79646 27.011795 
L 318.79646 42.061888 
Q 316.156777 38.506011 313.59589 36.85284 
Q 311.035004 35.199669 308.206209 35.199669 
Q 303.131713 35.199669 300.224122 41.640797 
Q 297.32441 48.066329 297.32441 59.373394 
Q 297.32441 70.633671 300.224122 77.074799 
Q 303.131713 83.500331 308.206209 83.500331 
Q 311.035004 83.500331 313.59589 81.84716 
Q 316.156777 80.178393 318.79646 76.622516 
z
" style="fill:#0000ff;"/>
   </g>
   <g id="patch_20">
    <path clip-path="url(#pef97d4d155)" d="M 342.106238 151.9985 
L 330.078631 151.9985 
L 328.179535 157.5 
L 320.442478 157.5 
L 331.491763 127.3 
L 340.667529 127.3 
L 351.716814 157.5 
L 343.986151 157.5 
z
M 331.99691 146.393442 
L 340.168777 146.393442 
L 336.089237 134.380754 
z
" style="fill:#008000;"/>
   </g>
   <g id="patch_21">
    <path clip-path="url(#pef97d4d155)" d="M 320.442478 97.1 
L 351.716814 97.1 
L 351.716814 102.989841 
L 340.465326 102.989841 
L 340.465326 127.3 
L 331.715785 127.3 
L 331.715785 102.989841 
L 320.442478 102.989841 
z
" style="fill:#ff0000;"/>
   </g>
   <g id="patch_22">
    <path clip-path="url(#pef97d4d155)" d="M 351.716814 90.268973 
Q 348.562746 93.684487 345.170371 95.400041 
Q 341.777996 97.1 338.161331 97.1 
Q 329.98879 97.1 325.215634 86.93144 
Q 320.442478 76.76288 320.442478 59.373394 
Q 320.442478 41.781161 325.299743 31.69058 
Q 330.164016 21.6 338.623928 21.6 
Q 341.883131 21.6 344.868982 22.972444 
Q 347.861842 24.329291 350.511259 27.011795 
L 350.511259 42.061888 
Q 347.777734 38.615183 345.072244 36.915224 
Q 342.366755 35.199669 339.647247 35.199669 
Q 334.614757 35.199669 331.88824 41.469242 
Q 329.161724 47.723218 329.161724 59.373394 
Q 329.161724 70.914398 331.790114 77.215162 
Q 334.418504 83.500331 339.254741 83.500331 
Q 340.572441 83.500331 341.700896 83.141624 
Q 342.829351 82.767321 343.726509 81.987523 
L 343.726509 67.857591 
L 338.574864 67.857591 
L 338.574864 55.271659 
L 351.716814 55.271659 
z
" style="fill:#ffa600;"/>
   </g>
   <g id="patch_23">
    <path clip-path="url(#pef97d4d155)" d="M 353.362832 21.6 
L 384.637168 21.6 
L 384.637168 48.104286 
L 373.38568 48.104286 
L 373.38568 157.5 
L 364.636139 157.5 
L 364.636139 48.104286 
L 353.362832 48.104286 
z
" style="fill:#ff0000;"/>
   </g>
   <g id="patch_24">
    <path clip-path="url(#pef97d4d155)" d="M 407.946946 132.743249 
L 395.919339 132.743249 
L 394.020243 157.5 
L 386.283186 157.5 
L 397.332471 21.6 
L 406.508237 21.6 
L 417.557522 157.5 
L 409.826859 157.5 
z
M 397.837618 107.520489 
L 406.009485 107.520489 
L 401.929945 53.463395 
z
" style="fill:#008000;"/>
   </g>
   <g id="patch_25">
    <path clip-path="url(#pef97d4d155)" d="M 450.477876 153.401384 
Q 447.323808 155.450692 443.931433 156.480025 
Q 440.539057 157.5 436.922393 157.5 
Q 428.749852 157.5 423.976696 151.398864 
Q 419.20354 145.297728 419.20354 134.864036 
Q 419.20354 124.308697 424.060805 118.254348 
Q 428.925078 112.2 437.384989 112.2 
Q 440.644193 112.2 443.630044 113.023466 
Q 446.622904 113.837575 449.272321 115.447077 
L 449.272321 124.477133 
Q 446.538796 122.40911 443.833306 121.389134 
Q 441.127817 120.359802 438.408309 120.359802 
Q 433.375819 120.359802 430.649302 124.121545 
Q 427.922786 127.873931 427.922786 134.864036 
Q 427.922786 141.788639 430.551176 145.569097 
Q 433.179565 149.340198 438.015803 149.340198 
Q 439.333503 149.340198 440.461958 149.124974 
Q 441.590413 148.900392 442.487571 148.432514 
L 442.487571 139.954555 
L 437.335926 139.954555 
L 437.335926 132.402995 
L 450.477876 132.402995 
z
" style="fill:#ffa600;"/>
   </g>
   <g id="patch_26">
    <path clip-path="url(#pef97d4d155)" d="M 440.8673 95.695499 
L 428.839693 95.695499 
L 426.940597 112.2 
L 419.20354 112.2 
L 430.252825 21.6 
L 439.428591 21.6 
L 450.477876 112.2 
L 442.747213 112.2 
z
M 430.757972 78.880326 
L 438.929839 78.880326 
L 434.850299 42.842263 
z
" style="fill:#008000;"/>
   </g>
   <g id="patch_27">
    <path clip-path="url(#pef97d4d155)" d="M 483.39823 155.335282 
Q 480.782186 156.408283 477.953391 156.951023 
Q 475.124596 157.5 472.043652 157.5 
Q 462.855979 157.5 457.489936 153.432576 
Q 452.123894 149.365152 452.123894 142.409358 
Q 452.123894 135.42861 457.489936 131.367424 
Q 462.855979 127.3 472.043652 127.3 
Q 475.124596 127.3 477.953391 127.848977 
Q 480.782186 128.391717 483.39823 129.464718 
L 483.39823 135.484755 
Q 480.758547 134.062404 478.19766 133.401136 
Q 475.636773 132.739868 472.807979 132.739868 
Q 467.733483 132.739868 464.825892 135.316319 
Q 461.92618 137.886532 461.92618 142.409358 
Q 461.92618 146.913468 464.825892 149.489919 
Q 467.733483 152.060132 472.807979 152.060132 
Q 475.636773 152.060132 478.19766 151.398864 
Q 480.758547 150.731357 483.39823 149.309006 
z
" style="fill:#0000ff;"/>
   </g>
   <g id="patch_28">
    <path clip-path="url(#pef97d4d155)" d="M 483.39823 124.567589 
Q 480.244162 125.933795 476.851787 126.620017 
Q 473.459411 127.3 469.842747 127.3 
Q 461.670206 127.3 456.89705 123.232576 
Q 452.123894 119.165152 452.123894 112.209358 
Q 452.123894 105.172464 456.981158 101.136232 
Q 461.845432 97.1 470.305343 97.1 
Q 473.564547 97.1 476.550398 97.648977 
Q 479.543258 98.191717 482.192675 99.264718 
L 482.192675 105.284755 
Q 479.45915 103.906073 476.75366 103.22609 
Q 474.048171 102.539868 471.328663 102.539868 
Q 466.296173 102.539868 463.569656 105.047697 
Q 460.84314 107.549287 460.84314 112.209358 
Q 460.84314 116.825759 463.471529 119.346065 
Q 466.099919 121.860132 470.936157 121.860132 
Q 472.253857 121.860132 473.382312 121.716649 
Q 474.510767 121.566928 475.407925 121.255009 
L 475.407925 115.603037 
L 470.25628 115.603037 
L 470.25628 110.568663 
L 483.39823 110.568663 
z
" style="fill:#ffa600;"/>
   </g>
   <g id="patch_29">
    <path clip-path="url(#pef97d4d155)" d="M 473.787654 83.346249 
L 461.760047 83.346249 
L 459.860951 97.1 
L 452.123894 97.1 
L 463.173179 21.6 
L 472.348945 21.6 
L 483.39823 97.1 
L 475.667567 97.1 
z
M 463.678326 69.333605 
L 471.850193 69.333605 
L 467.770653 39.301886 
z
" style="fill:#008000;"/>
   </g>
   <g id="patch_30">
    <path clip-path="url(#pef97d4d155)" d="M 506.708008 154.74925 
L 494.680401 154.74925 
L 492.781305 157.5 
L 485.044248 157.5 
L 496.093533 142.4 
L 505.269299 142.4 
L 516.318584 157.5 
L 508.587921 157.5 
z
M 496.59868 151.946721 
L 504.770547 151.946721 
L 500.691007 145.940377 
z
" style="fill:#008000;"/>
   </g>
   <g id="patch_31">
    <path clip-path="url(#pef97d4d155)" d="M 516.318584 136.935179 
Q 513.164516 139.667589 509.772141 141.040033 
Q 506.379765 142.4 502.763101 142.4 
Q 494.59056 142.4 489.817404 134.265152 
Q 485.044248 126.130304 485.044248 112.218715 
Q 485.044248 98.144929 489.901512 90.072464 
Q 494.765786 82 503.225697 82 
Q 506.484901 82 509.470752 83.097955 
Q 512.463612 84.183433 515.113029 86.329436 
L 515.113029 98.36951 
Q 512.379504 95.612146 509.674014 94.252179 
Q 506.968525 92.879736 504.249017 92.879736 
Q 499.216527 92.879736 496.49001 97.895394 
Q 493.763493 102.898575 493.763493 112.218715 
Q 493.763493 121.451518 496.391883 126.49213 
Q 499.020273 131.520264 503.856511 131.520264 
Q 505.174211 131.520264 506.302666 131.233299 
Q 507.431121 130.933857 508.328279 130.310019 
L 508.328279 119.006073 
L 503.176634 119.006073 
L 503.176634 108.937327 
L 516.318584 108.937327 
z
" style="fill:#ffa600;"/>
   </g>
   <g id="patch_32">
    <path clip-path="url(#pef97d4d155)" d="M 485.044248 21.6 
L 516.318584 21.6 
L 516.318584 33.379683 
L 505.067096 33.379683 
L 505.067096 82 
L 496.317555 82 
L 496.317555 33.379683 
L 485.044248 33.379683 
z
" style="fill:#ff0000;"/>
   </g>
   <g id="patch_33">
    <path clip-path="url(#pef97d4d155)" d="M 549.238938 156.133795 
Q 546.08487 156.816897 542.692495 157.160008 
Q 539.300119 157.5 535.683455 157.5 
Q 527.510914 157.5 522.737758 155.466288 
Q 517.964602 153.432576 517.964602 149.954679 
Q 517.964602 146.436232 522.821866 144.418116 
Q 527.68614 142.4 536.146051 142.4 
Q 539.405255 142.4 542.391106 142.674489 
Q 545.383966 142.945858 548.033383 143.482359 
L 548.033383 146.492378 
Q 545.299858 145.803037 542.594368 145.463045 
Q 539.888879 145.119934 537.169371 145.119934 
Q 532.136881 145.119934 529.410364 146.373848 
Q 526.683847 147.624644 526.683847 149.954679 
Q 526.683847 152.26288 529.312237 153.523032 
Q 531.940627 154.780066 536.776865 154.780066 
Q 538.094565 154.780066 539.22302 154.708325 
Q 540.351475 154.633464 541.248633 154.477505 
L 541.248633 151.651518 
L 536.096988 151.651518 
L 536.096988 149.134332 
L 549.238938 149.134332 
z
" style="fill:#ffa600;"/>
   </g>
   <g id="patch_34">
    <path clip-path="url(#pef97d4d155)" d="M 517.964602 127.3 
L 549.238938 127.3 
L 549.238938 130.244921 
L 537.98745 130.244921 
L 537.98745 142.4 
L 529.237909 142.4 
L 529.237909 130.244921 
L 517.964602 130.244921 
z
" style="fill:#ff0000;"/>
   </g>
   <g id="patch_35">
    <path clip-path="url(#pef97d4d155)" d="M 549.238938 119.723487 
Q 546.622894 123.478992 543.794099 125.378579 
Q 540.965304 127.3 537.88436 127.3 
Q 528.696687 127.3 523.330644 113.064016 
Q 517.964602 98.828031 517.964602 74.482751 
Q 517.964602 50.050134 523.330644 35.835984 
Q 528.696687 21.6 537.88436 21.6 
Q 540.965304 21.6 543.794099 23.521421 
Q 546.622894 25.421008 549.238938 29.176513 
L 549.238938 50.246643 
Q 546.599255 45.268416 544.038368 42.953976 
Q 541.477481 40.639537 538.648687 40.639537 
Q 533.574191 40.639537 530.6666 49.657116 
Q 527.766888 58.652861 527.766888 74.482751 
Q 527.766888 90.247139 530.6666 99.264718 
Q 533.574191 108.260463 538.648687 108.260463 
Q 541.477481 108.260463 544.038368 105.946024 
Q 546.599255 103.60975 549.238938 98.631522 
z
" style="fill:#0000ff;"/>
   </g>
   <g id="patch_36">
    <path clip-path="url(#pef97d4d155)" d="M 582.159292 154.767589 
Q 579.005224 156.133795 575.612849 156.820017 
Q 572.220473 157.5 568.603809 157.5 
Q 560.431268 157.5 555.658112 153.432576 
Q 550.884956 149.365152 550.884956 142.409358 
Q 550.884956 135.372464 555.74222 131.336232 
Q 560.606494 127.3 569.066405 127.3 
Q 572.325609 127.3 575.31146 127.848977 
Q 578.30432 128.391717 580.953737 129.464718 
L 580.953737 135.484755 
Q 578.220212 134.106073 575.514722 133.42609 
Q 572.809233 132.739868 570.089725 132.739868 
Q 565.057235 132.739868 562.330718 135.247697 
Q 559.604201 137.749287 559.604201 142.409358 
Q 559.604201 147.025759 562.232591 149.546065 
Q 564.860981 152.060132 569.697219 152.060132 
Q 571.014919 152.060132 572.143374 151.916649 
Q 573.271829 151.766928 574.168986 151.455009 
L 574.168986 145.803037 
L 569.017342 145.803037 
L 569.017342 140.768663 
L 582.159292 140.768663 
z
" style="fill:#ffa600;"/>
   </g>
   <g id="patch_37">
    <path clip-path="url(#pef97d4d155)" d="M 582.159292 119.723487 
Q 579.543248 123.478992 576.714453 125.378579 
Q 573.885658 127.3 570.804714 127.3 
Q 561.617041 127.3 556.250998 113.064016 
Q 550.884956 98.828031 550.884956 74.482751 
Q 550.884956 50.050134 556.250998 35.835984 
Q 561.617041 21.6 570.804714 21.6 
Q 573.885658 21.6 576.714453 23.521421 
Q 579.543248 25.421008 582.159292 29.176513 
L 582.159292 50.246643 
Q 579.519609 45.268416 576.958722 42.953976 
Q 574.397835 40.639537 571.569041 40.639537 
Q 566.494545 40.639537 563.586954 49.657116 
Q 560.687242 58.652861 560.687242 74.482751 
Q 560.687242 90.247139 563.586954 99.264718 
Q 566.494545 108.260463 571.569041 108.260463 
Q 574.397835 108.260463 576.958722 105.946024 
Q 579.519609 103.60975 582.159292 98.631522 
z
" style="fill:#0000ff;"/>
   </g>
   <g id="patch_38">
    <path clip-path="url(#pef97d4d155)" d="M 605.46907 151.9985 
L 593.441463 151.9985 
L 591.542367 157.5 
L 583.80531 157.5 
L 594.854595 127.3 
L 604.030361 127.3 
L 615.079646 157.5 
L 607.348983 157.5 
z
M 595.359741 146.393442 
L 603.531609 146.393442 
L 599.452069 134.380754 
z
" style="fill:#008000;"/>
   </g>
   <g id="patch_39">
    <path clip-path="url(#pef97d4d155)" d="M 615.079646 119.723487 
Q 612.463602 123.478992 609.634807 125.378579 
Q 606.806012 127.3 603.725068 127.3 
Q 594.537395 127.3 589.171352 113.064016 
Q 583.80531 98.828031 583.80531 74.482751 
Q 583.80531 50.050134 589.171352 35.835984 
Q 594.537395 21.6 603.725068 21.6 
Q 606.806012 21.6 609.634807 23.521421 
Q 612.463602 25.421008 615.079646 29.176513 
L 615.079646 50.246643 
Q 612.439963 45.268416 609.879076 42.953976 
Q 607.318189 40.639537 604.489395 40.639537 
Q 599.414899 40.639537 596.507308 49.657116 
Q 593.607596 58.652861 593.607596 74.482751 
Q 593.607596 90.247139 596.507308 99.264718 
Q 599.414899 108.260463 604.489395 108.260463 
Q 607.318189 108.260463 609.879076 105.946024 
Q 612.439963 103.60975 615.079646 98.631522 
z
" style="fill:#0000ff;"/>
   </g>
   <g id="patch_40">
    <path clip-path="url(#pef97d4d155)" d="M 638.389424 154.74925 
L 626.361817 154.74925 
L 624.462721 157.5 
L 616.725664 157.5 
L 627.774949 142.4 
L 636.950715 142.4 
L 648 157.5 
L 640.269337 157.5 
z
M 628.280095 151.946721 
L 636.451963 151.946721 
L 632.372423 145.940377 
z
" style="fill:#008000;"/>
   </g>
   <g id="patch_41">
    <path clip-path="url(#pef97d4d155)" d="M 648 141.317641 
Q 645.383956 141.854142 642.555161 142.125511 
Q 639.726366 142.4 636.645422 142.4 
Q 627.457749 142.4 622.091706 140.366288 
Q 616.725664 138.332576 616.725664 134.854679 
Q 616.725664 131.364305 622.091706 129.333712 
Q 627.457749 127.3 636.645422 127.3 
Q 639.726366 127.3 642.555161 127.574489 
Q 645.383956 127.845858 648 128.382359 
L 648 131.392378 
Q 645.360317 130.681202 642.79943 130.350568 
Q 640.238543 130.019934 637.409749 130.019934 
Q 632.335253 130.019934 629.427662 131.308159 
Q 626.52795 132.593266 626.52795 134.854679 
Q 626.52795 137.106734 629.427662 138.39496 
Q 632.335253 139.680066 637.409749 139.680066 
Q 640.238543 139.680066 642.79943 139.349432 
Q 645.360317 139.015679 648 138.304503 
z
" style="fill:#0000ff;"/>
   </g>
   <g id="patch_42">
    <path clip-path="url(#pef97d4d155)" d="M 648 123.201384 
Q 644.845932 125.250692 641.453557 126.280025 
Q 638.061181 127.3 634.444517 127.3 
Q 626.271976 127.3 621.49882 121.198864 
Q 616.725664 115.097728 616.725664 104.664036 
Q 616.725664 94.108697 621.582928 88.054348 
Q 626.447202 82 634.907113 82 
Q 638.166317 82 641.152168 82.823466 
Q 644.145028 83.637575 646.794445 85.247077 
L 646.794445 94.277133 
Q 644.06092 92.20911 641.35543 91.189134 
Q 638.649941 90.159802 635.930433 90.159802 
Q 630.897943 90.159802 628.171426 93.921545 
Q 625.444909 97.673931 625.444909 104.664036 
Q 625.444909 111.588639 628.073299 115.369097 
Q 630.701689 119.140198 635.537927 119.140198 
Q 636.855626 119.140198 637.984082 118.924974 
Q 639.112537 118.700392 640.009694 118.232514 
L 640.009694 109.754555 
L 634.85805 109.754555 
L 634.85805 102.202995 
L 648 102.202995 
z
" style="fill:#ffa600;"/>
   </g>
   <g id="patch_43">
    <path clip-path="url(#pef97d4d155)" d="M 616.725664 21.6 
L 648 21.6 
L 648 33.379683 
L 636.748512 33.379683 
L 636.748512 82 
L 627.998971 82 
L 627.998971 33.379683 
L 616.725664 33.379683 
z
" style="fill:#ff0000;"/>
   </g>
  </g>
 </g>
 <defs>
  <clipPath id="pef97d4d155">
   <rect height="135.9" width="558" x="90" y="21.6"/>
  </clipPath>
 </defs>
</svg>
