<?xml version="1.0" encoding="utf-8" standalone="no"?>
<!DOCTYPE svg PUBLIC "-//W3C//DTD SVG 1.1//EN"
  "http://www.w3.org/Graphics/SVG/1.1/DTD/svg11.dtd">
<!-- Created with matplotlib (https://matplotlib.org/) -->
<svg height="180pt" version="1.1" viewBox="0 0 720 180" width="720pt" xmlns="http://www.w3.org/2000/svg" xmlns:xlink="http://www.w3.org/1999/xlink">
 <metadata>
  <rdf:RDF xmlns:cc="http://creativecommons.org/ns#" xmlns:dc="http://purl.org/dc/elements/1.1/" xmlns:rdf="http://www.w3.org/1999/02/22-rdf-syntax-ns#">
   <cc:Work>
    <dc:type rdf:resource="http://purl.org/dc/dcmitype/StillImage"/>
    <dc:date>2021-08-04T23:33:12.107883</dc:date>
    <dc:format>image/svg+xml</dc:format>
    <dc:creator>
     <cc:Agent>
      <dc:title>Matplotlib v3.3.2, https://matplotlib.org/</dc:title>
     </cc:Agent>
    </dc:creator>
   </cc:Work>
  </rdf:RDF>
 </metadata>
 <defs>
  <style type="text/css">*{stroke-linecap:butt;stroke-linejoin:round;}</style>
 </defs>
 <g id="figure_1">
  <g id="patch_1">
   <path d="M 0 180 
L 720 180 
L 720 0 
L 0 0 
z
" style="fill:none;"/>
  </g>
  <g id="axes_1">
   <g id="line2d_1">
    <path clip-path="url(#p342b46e2b2)" d="M 90 157.5 
L 648 157.5 
" style="fill:none;stroke:#000000;stroke-linecap:square;stroke-width:0.5;"/>
   </g>
   <g id="patch_2">
    <path clip-path="url(#p342b46e2b2)" d="M 111.66376 154.74925 
L 99.636153 154.74925 
L 97.737057 157.5 
L 90 157.5 
L 101.049285 142.4 
L 110.225051 142.4 
L 121.274336 157.5 
L 113.543673 157.5 
z
M 101.554432 151.946721 
L 109.726299 151.946721 
L 105.64676 145.940377 
z
" style="fill:#008000;"/>
   </g>
   <g id="patch_3">
    <path clip-path="url(#p342b46e2b2)" d="M 121.274336 139.152923 
Q 118.658292 140.762425 115.829497 141.576534 
Q 113.000702 142.4 109.919759 142.4 
Q 100.732085 142.4 95.366043 136.298864 
Q 90 130.197728 90 119.764036 
Q 90 109.292915 95.366043 103.201136 
Q 100.732085 97.1 109.919759 97.1 
Q 113.000702 97.1 115.829497 97.923466 
Q 118.658292 98.737575 121.274336 100.347077 
L 121.274336 109.377133 
Q 118.634653 107.243607 116.073766 106.251704 
Q 113.51288 105.259802 110.684085 105.259802 
Q 105.609589 105.259802 102.701998 109.124478 
Q 99.802286 112.979798 99.802286 119.764036 
Q 99.802286 126.520202 102.701998 130.384879 
Q 105.609589 134.240198 110.684085 134.240198 
Q 113.51288 134.240198 116.073766 133.248296 
Q 118.634653 132.247036 121.274336 130.11351 
z
" style="fill:#0000ff;"/>
   </g>
   <g id="patch_4">
    <path clip-path="url(#p342b46e2b2)" d="M 90 21.6 
L 121.274336 21.6 
L 121.274336 36.324604 
L 110.022848 36.324604 
L 110.022848 97.1 
L 101.273307 97.1 
L 101.273307 36.324604 
L 90 36.324604 
z
" style="fill:#ff0000;"/>
   </g>
   <g id="patch_5">
    <path clip-path="url(#p342b46e2b2)" d="M 144.584114 151.9985 
L 132.556507 151.9985 
L 130.657411 157.5 
L 122.920354 157.5 
L 133.969639 127.3 
L 143.145405 127.3 
L 154.19469 157.5 
L 146.464027 157.5 
z
M 134.474786 146.393442 
L 142.646653 146.393442 
L 138.567114 134.380754 
z
" style="fill:#008000;"/>
   </g>
   <g id="patch_6">
    <path clip-path="url(#p342b46e2b2)" d="M 154.19469 124.567589 
Q 151.040622 125.933795 147.648247 126.620017 
Q 144.255872 127.3 140.639207 127.3 
Q 132.466666 127.3 127.69351 123.232576 
Q 122.920354 119.165152 122.920354 112.209358 
Q 122.920354 105.172464 127.777619 101.136232 
Q 132.641892 97.1 141.101804 97.1 
Q 144.361007 97.1 147.346858 97.648977 
Q 150.339718 98.191717 152.989135 99.264718 
L 152.989135 105.284755 
Q 150.25561 103.906073 147.55012 103.22609 
Q 144.844631 102.539868 142.125123 102.539868 
Q 137.092633 102.539868 134.366116 105.047697 
Q 131.6396 107.549287 131.6396 112.209358 
Q 131.6396 116.825759 134.26799 119.346065 
Q 136.89638 121.860132 141.732617 121.860132 
Q 143.050317 121.860132 144.178772 121.716649 
Q 145.307228 121.566928 146.204385 121.255009 
L 146.204385 115.603037 
L 141.05274 115.603037 
L 141.05274 110.568663 
L 154.19469 110.568663 
z
" style="fill:#ffa600;"/>
   </g>
   <g id="patch_7">
    <path clip-path="url(#p342b46e2b2)" d="M 122.920354 21.6 
L 154.19469 21.6 
L 154.19469 36.324604 
L 142.943202 36.324604 
L 142.943202 97.1 
L 134.193661 97.1 
L 134.193661 36.324604 
L 122.920354 36.324604 
z
" style="fill:#ff0000;"/>
   </g>
   <g id="patch_8">
    <path clip-path="url(#p342b46e2b2)" d="M 155.840708 127.3 
L 187.115044 127.3 
L 187.115044 133.189841 
L 175.863556 133.189841 
L 175.863556 157.5 
L 167.114015 157.5 
L 167.114015 133.189841 
L 155.840708 133.189841 
z
" style="fill:#ff0000;"/>
   </g>
   <g id="patch_9">
    <path clip-path="url(#p342b46e2b2)" d="M 177.504468 119.04775 
L 165.476861 119.04775 
L 163.577765 127.3 
L 155.840708 127.3 
L 166.889993 82 
L 176.065759 82 
L 187.115044 127.3 
L 179.384381 127.3 
z
M 167.39514 110.640163 
L 175.567007 110.640163 
L 171.487467 92.621132 
z
" style="fill:#008000;"/>
   </g>
   <g id="patch_10">
    <path clip-path="url(#p342b46e2b2)" d="M 187.115044 76.535179 
Q 183.960976 79.267589 180.568601 80.640033 
Q 177.176226 82 173.559561 82 
Q 165.38702 82 160.613864 73.865152 
Q 155.840708 65.730304 155.840708 51.818715 
Q 155.840708 37.744929 160.697973 29.672464 
Q 165.562246 21.6 174.022158 21.6 
Q 177.281361 21.6 180.267212 22.697955 
Q 183.260072 23.783433 185.909489 25.929436 
L 185.909489 37.96951 
Q 183.175964 35.212146 180.470474 33.852179 
Q 177.764985 32.479736 175.045477 32.479736 
Q 170.012987 32.479736 167.28647 37.495394 
Q 164.559954 42.498575 164.559954 51.818715 
Q 164.559954 61.051518 167.188344 66.09213 
Q 169.816734 71.120264 174.652971 71.120264 
Q 175.970671 71.120264 177.099126 70.833299 
Q 178.227582 70.533857 179.124739 69.910019 
L 179.124739 58.606073 
L 173.973094 58.606073 
L 173.973094 48.537327 
L 187.115044 48.537327 
z
" style="fill:#ffa600;"/>
   </g>
   <g id="patch_11">
    <path clip-path="url(#p342b46e2b2)" d="M 220.035398 156.417641 
Q 217.419354 156.954142 214.590559 157.225511 
Q 211.761764 157.5 208.680821 157.5 
Q 199.493147 157.5 194.127105 155.466288 
Q 188.761062 153.432576 188.761062 149.954679 
Q 188.761062 146.464305 194.127105 144.433712 
Q 199.493147 142.4 208.680821 142.4 
Q 211.761764 142.4 214.590559 142.674489 
Q 217.419354 142.945858 220.035398 143.482359 
L 220.035398 146.492378 
Q 217.395715 145.781202 214.834828 145.450568 
Q 212.273942 145.119934 209.445147 145.119934 
Q 204.370651 145.119934 201.46306 146.408159 
Q 198.563348 147.693266 198.563348 149.954679 
Q 198.563348 152.206734 201.46306 153.49496 
Q 204.370651 154.780066 209.445147 154.780066 
Q 212.273942 154.780066 214.834828 154.449432 
Q 217.395715 154.115679 220.035398 153.404503 
z
" style="fill:#0000ff;"/>
   </g>
   <g id="patch_12">
    <path clip-path="url(#p342b46e2b2)" d="M 220.035398 139.667589 
Q 216.88133 141.033795 213.488955 141.720017 
Q 210.09658 142.4 206.479915 142.4 
Q 198.307374 142.4 193.534218 138.332576 
Q 188.761062 134.265152 188.761062 127.309358 
Q 188.761062 120.272464 193.618327 116.236232 
Q 198.4826 112.2 206.942512 112.2 
Q 210.201715 112.2 213.187566 112.748977 
Q 216.180426 113.291717 218.829843 114.364718 
L 218.829843 120.384755 
Q 216.096318 119.006073 213.390828 118.32609 
Q 210.685339 117.639868 207.965831 117.639868 
Q 202.933341 117.639868 200.206824 120.147697 
Q 197.480308 122.649287 197.480308 127.309358 
Q 197.480308 131.925759 200.108698 134.446065 
Q 202.737088 136.960132 207.573325 136.960132 
Q 208.891025 136.960132 210.01948 136.816649 
Q 211.147936 136.666928 212.045093 136.355009 
L 212.045093 130.703037 
L 206.893448 130.703037 
L 206.893448 125.668663 
L 220.035398 125.668663 
z
" style="fill:#ffa600;"/>
   </g>
   <g id="patch_13">
    <path clip-path="url(#p342b46e2b2)" d="M 188.761062 82 
L 220.035398 82 
L 220.035398 87.889841 
L 208.78391 87.889841 
L 208.78391 112.2 
L 200.034369 112.2 
L 200.034369 87.889841 
L 188.761062 87.889841 
z
" style="fill:#ff0000;"/>
   </g>
   <g id="patch_14">
    <path clip-path="url(#p342b46e2b2)" d="M 210.424822 70.997 
L 198.397215 70.997 
L 196.498119 82 
L 188.761062 82 
L 199.810347 21.6 
L 208.986113 21.6 
L 220.035398 82 
L 212.304735 82 
z
M 200.315494 59.786884 
L 208.487361 59.786884 
L 204.407821 35.761509 
z
" style="fill:#008000;"/>
   </g>
   <g id="patch_15">
    <path clip-path="url(#p342b46e2b2)" d="M 252.955752 156.417641 
Q 250.339708 156.954142 247.510913 157.225511 
Q 244.682118 157.5 241.601175 157.5 
Q 232.413501 157.5 227.047459 155.466288 
Q 221.681416 153.432576 221.681416 149.954679 
Q 221.681416 146.464305 227.047459 144.433712 
Q 232.413501 142.4 241.601175 142.4 
Q 244.682118 142.4 247.510913 142.674489 
Q 250.339708 142.945858 252.955752 143.482359 
L 252.955752 146.492378 
Q 250.316069 145.781202 247.755182 145.450568 
Q 245.194296 145.119934 242.365501 145.119934 
Q 237.291005 145.119934 234.383414 146.408159 
Q 231.483702 147.693266 231.483702 149.954679 
Q 231.483702 152.206734 234.383414 153.49496 
Q 237.291005 154.780066 242.365501 154.780066 
Q 245.194296 154.780066 247.755182 154.449432 
Q 250.316069 154.115679 252.955752 153.404503 
z
" style="fill:#0000ff;"/>
   </g>
   <g id="patch_16">
    <path clip-path="url(#p342b46e2b2)" d="M 252.955752 141.033795 
Q 249.801684 141.716897 246.409309 142.060008 
Q 243.016934 142.4 239.400269 142.4 
Q 231.227728 142.4 226.454572 140.366288 
Q 221.681416 138.332576 221.681416 134.854679 
Q 221.681416 131.336232 226.538681 129.318116 
Q 231.402954 127.3 239.862866 127.3 
Q 243.122069 127.3 246.10792 127.574489 
Q 249.10078 127.845858 251.750197 128.382359 
L 251.750197 131.392378 
Q 249.016672 130.703037 246.311182 130.363045 
Q 243.605693 130.019934 240.886185 130.019934 
Q 235.853695 130.019934 233.127178 131.273848 
Q 230.400662 132.524644 230.400662 134.854679 
Q 230.400662 137.16288 233.029052 138.423032 
Q 235.657442 139.680066 240.493679 139.680066 
Q 241.811379 139.680066 242.939834 139.608325 
Q 244.06829 139.533464 244.965447 139.377505 
L 244.965447 136.551518 
L 239.813802 136.551518 
L 239.813802 134.034332 
L 252.955752 134.034332 
z
" style="fill:#ffa600;"/>
   </g>
   <g id="patch_17">
    <path clip-path="url(#p342b46e2b2)" d="M 221.681416 21.6 
L 252.955752 21.6 
L 252.955752 42.214445 
L 241.704264 42.214445 
L 241.704264 127.3 
L 232.954723 127.3 
L 232.954723 42.214445 
L 221.681416 42.214445 
z
" style="fill:#ff0000;"/>
   </g>
   <g id="patch_18">
    <path clip-path="url(#p342b46e2b2)" d="M 276.26553 154.74925 
L 264.237923 154.74925 
L 262.338827 157.5 
L 254.60177 157.5 
L 265.651055 142.4 
L 274.826821 142.4 
L 285.876106 157.5 
L 278.145443 157.5 
z
M 266.156202 151.946721 
L 274.328069 151.946721 
L 270.248529 145.940377 
z
" style="fill:#008000;"/>
   </g>
   <g id="patch_19">
    <path clip-path="url(#p342b46e2b2)" d="M 254.60177 112.2 
L 285.876106 112.2 
L 285.876106 118.089841 
L 274.624618 118.089841 
L 274.624618 142.4 
L 265.875077 142.4 
L 265.875077 118.089841 
L 254.60177 118.089841 
z
" style="fill:#ff0000;"/>
   </g>
   <g id="patch_20">
    <path clip-path="url(#p342b46e2b2)" d="M 285.876106 104.002768 
Q 282.722038 108.101384 279.329663 110.16005 
Q 275.937288 112.2 272.320623 112.2 
Q 264.148082 112.2 259.374926 99.997728 
Q 254.60177 87.795455 254.60177 66.928073 
Q 254.60177 45.817393 259.459035 33.708697 
Q 264.323308 21.6 272.78322 21.6 
Q 276.042423 21.6 279.028274 23.246932 
Q 282.021134 24.87515 284.670551 28.094154 
L 284.670551 46.154266 
Q 281.937026 42.018219 279.231536 39.978269 
Q 276.526047 37.919603 273.806539 37.919603 
Q 268.774049 37.919603 266.047532 45.44309 
Q 263.321016 52.947862 263.321016 66.928073 
Q 263.321016 80.777277 265.949406 88.338195 
Q 268.577796 95.880397 273.414033 95.880397 
Q 274.731733 95.880397 275.860188 95.449948 
Q 276.988644 95.000785 277.885801 94.065028 
L 277.885801 77.10911 
L 272.734156 77.10911 
L 272.734156 62.00599 
L 285.876106 62.00599 
z
" style="fill:#ffa600;"/>
   </g>
   <g id="patch_21">
    <path clip-path="url(#p342b46e2b2)" d="M 309.185884 132.743249 
L 297.158277 132.743249 
L 295.259181 157.5 
L 287.522124 157.5 
L 298.571409 21.6 
L 307.747175 21.6 
L 318.79646 157.5 
L 311.065797 157.5 
z
M 299.076556 107.520489 
L 307.248423 107.520489 
L 303.168883 53.463395 
z
" style="fill:#008000;"/>
   </g>
   <g id="patch_22">
    <path clip-path="url(#p342b46e2b2)" d="M 320.442478 21.6 
L 351.716814 21.6 
L 351.716814 48.104286 
L 340.465326 48.104286 
L 340.465326 157.5 
L 331.715785 157.5 
L 331.715785 48.104286 
L 320.442478 48.104286 
z
" style="fill:#ff0000;"/>
   </g>
   <g id="patch_23">
    <path clip-path="url(#p342b46e2b2)" d="M 384.637168 145.204152 
Q 381.4831 151.352076 378.090725 154.440074 
Q 374.698349 157.5 371.081685 157.5 
Q 362.909144 157.5 358.135988 139.196592 
Q 353.362832 120.893183 353.362832 89.592109 
Q 353.362832 57.92609 358.220097 39.763045 
Q 363.08437 21.6 371.544282 21.6 
Q 374.803485 21.6 377.789336 24.070399 
Q 380.782196 26.512725 383.431613 31.341231 
L 383.431613 58.431398 
Q 380.698088 52.227329 377.992598 49.167403 
Q 375.287109 46.079405 372.567601 46.079405 
Q 367.535111 46.079405 364.808594 57.364635 
Q 362.082078 68.621793 362.082078 89.592109 
Q 362.082078 110.365916 364.710468 121.707292 
Q 367.338858 133.020595 372.175095 133.020595 
Q 373.492795 133.020595 374.62125 132.374923 
Q 375.749705 131.701177 376.646863 130.297542 
L 376.646863 104.863665 
L 371.495218 104.863665 
L 371.495218 82.208986 
L 384.637168 82.208986 
z
" style="fill:#ffa600;"/>
   </g>
   <g id="patch_24">
    <path clip-path="url(#p342b46e2b2)" d="M 386.283186 127.3 
L 417.557522 127.3 
L 417.557522 133.189841 
L 406.306034 133.189841 
L 406.306034 157.5 
L 397.556493 157.5 
L 397.556493 133.189841 
L 386.283186 133.189841 
z
" style="fill:#ff0000;"/>
   </g>
   <g id="patch_25">
    <path clip-path="url(#p342b46e2b2)" d="M 407.946946 108.044749 
L 395.919339 108.044749 
L 394.020243 127.3 
L 386.283186 127.3 
L 397.332471 21.6 
L 406.508237 21.6 
L 417.557522 127.3 
L 409.826859 127.3 
z
M 397.837618 88.427047 
L 406.009485 88.427047 
L 401.929945 46.38264 
z
" style="fill:#008000;"/>
   </g>
   <g id="patch_26">
    <path clip-path="url(#p342b46e2b2)" d="M 450.477876 153.401384 
Q 447.323808 155.450692 443.931433 156.480025 
Q 440.539057 157.5 436.922393 157.5 
Q 428.749852 157.5 423.976696 151.398864 
Q 419.20354 145.297728 419.20354 134.864036 
Q 419.20354 124.308697 424.060805 118.254348 
Q 428.925078 112.2 437.384989 112.2 
Q 440.644193 112.2 443.630044 113.023466 
Q 446.622904 113.837575 449.272321 115.447077 
L 449.272321 124.477133 
Q 446.538796 122.40911 443.833306 121.389134 
Q 441.127817 120.359802 438.408309 120.359802 
Q 433.375819 120.359802 430.649302 124.121545 
Q 427.922786 127.873931 427.922786 134.864036 
Q 427.922786 141.788639 430.551176 145.569097 
Q 433.179565 149.340198 438.015803 149.340198 
Q 439.333503 149.340198 440.461958 149.124974 
Q 441.590413 148.900392 442.487571 148.432514 
L 442.487571 139.954555 
L 437.335926 139.954555 
L 437.335926 132.402995 
L 450.477876 132.402995 
z
" style="fill:#ffa600;"/>
   </g>
   <g id="patch_27">
    <path clip-path="url(#p342b46e2b2)" d="M 419.20354 21.6 
L 450.477876 21.6 
L 450.477876 39.269524 
L 439.226388 39.269524 
L 439.226388 112.2 
L 430.476847 112.2 
L 430.476847 39.269524 
L 419.20354 39.269524 
z
" style="fill:#ff0000;"/>
   </g>
   <g id="patch_28">
    <path clip-path="url(#p342b46e2b2)" d="M 483.39823 156.417641 
Q 480.782186 156.954142 477.953391 157.225511 
Q 475.124596 157.5 472.043652 157.5 
Q 462.855979 157.5 457.489936 155.466288 
Q 452.123894 153.432576 452.123894 149.954679 
Q 452.123894 146.464305 457.489936 144.433712 
Q 462.855979 142.4 472.043652 142.4 
Q 475.124596 142.4 477.953391 142.674489 
Q 480.782186 142.945858 483.39823 143.482359 
L 483.39823 146.492378 
Q 480.758547 145.781202 478.19766 145.450568 
Q 475.636773 145.119934 472.807979 145.119934 
Q 467.733483 145.119934 464.825892 146.408159 
Q 461.92618 147.693266 461.92618 149.954679 
Q 461.92618 152.206734 464.825892 153.49496 
Q 467.733483 154.780066 472.807979 154.780066 
Q 475.636773 154.780066 478.19766 154.449432 
Q 480.758547 154.115679 483.39823 153.404503 
z
" style="fill:#0000ff;"/>
   </g>
   <g id="patch_29">
    <path clip-path="url(#p342b46e2b2)" d="M 452.123894 112.2 
L 483.39823 112.2 
L 483.39823 118.089841 
L 472.146742 118.089841 
L 472.146742 142.4 
L 463.397201 142.4 
L 463.397201 118.089841 
L 452.123894 118.089841 
z
" style="fill:#ff0000;"/>
   </g>
   <g id="patch_30">
    <path clip-path="url(#p342b46e2b2)" d="M 483.39823 104.002768 
Q 480.244162 108.101384 476.851787 110.16005 
Q 473.459411 112.2 469.842747 112.2 
Q 461.670206 112.2 456.89705 99.997728 
Q 452.123894 87.795455 452.123894 66.928073 
Q 452.123894 45.817393 456.981158 33.708697 
Q 461.845432 21.6 470.305343 21.6 
Q 473.564547 21.6 476.550398 23.246932 
Q 479.543258 24.87515 482.192675 28.094154 
L 482.192675 46.154266 
Q 479.45915 42.018219 476.75366 39.978269 
Q 474.048171 37.919603 471.328663 37.919603 
Q 466.296173 37.919603 463.569656 45.44309 
Q 460.84314 52.947862 460.84314 66.928073 
Q 460.84314 80.777277 463.471529 88.338195 
Q 466.099919 95.880397 470.936157 95.880397 
Q 472.253857 95.880397 473.382312 95.449948 
Q 474.510767 95.000785 475.407925 94.065028 
L 475.407925 77.10911 
L 470.25628 77.10911 
L 470.25628 62.00599 
L 483.39823 62.00599 
z
" style="fill:#ffa600;"/>
   </g>
   <g id="patch_31">
    <path clip-path="url(#p342b46e2b2)" d="M 516.318584 156.417641 
Q 513.70254 156.954142 510.873745 157.225511 
Q 508.04495 157.5 504.964006 157.5 
Q 495.776333 157.5 490.41029 155.466288 
Q 485.044248 153.432576 485.044248 149.954679 
Q 485.044248 146.464305 490.41029 144.433712 
Q 495.776333 142.4 504.964006 142.4 
Q 508.04495 142.4 510.873745 142.674489 
Q 513.70254 142.945858 516.318584 143.482359 
L 516.318584 146.492378 
Q 513.678901 145.781202 511.118014 145.450568 
Q 508.557127 145.119934 505.728333 145.119934 
Q 500.653837 145.119934 497.746246 146.408159 
Q 494.846534 147.693266 494.846534 149.954679 
Q 494.846534 152.206734 497.746246 153.49496 
Q 500.653837 154.780066 505.728333 154.780066 
Q 508.557127 154.780066 511.118014 154.449432 
Q 513.678901 154.115679 516.318584 153.404503 
z
" style="fill:#0000ff;"/>
   </g>
   <g id="patch_32">
    <path clip-path="url(#p342b46e2b2)" d="M 485.044248 112.2 
L 516.318584 112.2 
L 516.318584 118.089841 
L 505.067096 118.089841 
L 505.067096 142.4 
L 496.317555 142.4 
L 496.317555 118.089841 
L 485.044248 118.089841 
z
" style="fill:#ff0000;"/>
   </g>
   <g id="patch_33">
    <path clip-path="url(#p342b46e2b2)" d="M 506.708008 95.695499 
L 494.680401 95.695499 
L 492.781305 112.2 
L 485.044248 112.2 
L 496.093533 21.6 
L 505.269299 21.6 
L 516.318584 112.2 
L 508.587921 112.2 
z
M 496.59868 78.880326 
L 504.770547 78.880326 
L 500.691007 42.842263 
z
" style="fill:#008000;"/>
   </g>
   <g id="patch_34">
    <path clip-path="url(#p342b46e2b2)" d="M 549.238938 155.335282 
Q 546.622894 156.408283 543.794099 156.951023 
Q 540.965304 157.5 537.88436 157.5 
Q 528.696687 157.5 523.330644 153.432576 
Q 517.964602 149.365152 517.964602 142.409358 
Q 517.964602 135.42861 523.330644 131.367424 
Q 528.696687 127.3 537.88436 127.3 
Q 540.965304 127.3 543.794099 127.848977 
Q 546.622894 128.391717 549.238938 129.464718 
L 549.238938 135.484755 
Q 546.599255 134.062404 544.038368 133.401136 
Q 541.477481 132.739868 538.648687 132.739868 
Q 533.574191 132.739868 530.6666 135.316319 
Q 527.766888 137.886532 527.766888 142.409358 
Q 527.766888 146.913468 530.6666 149.489919 
Q 533.574191 152.060132 538.648687 152.060132 
Q 541.477481 152.060132 544.038368 151.398864 
Q 546.599255 150.731357 549.238938 149.309006 
z
" style="fill:#0000ff;"/>
   </g>
   <g id="patch_35">
    <path clip-path="url(#p342b46e2b2)" d="M 549.238938 124.567589 
Q 546.08487 125.933795 542.692495 126.620017 
Q 539.300119 127.3 535.683455 127.3 
Q 527.510914 127.3 522.737758 123.232576 
Q 517.964602 119.165152 517.964602 112.209358 
Q 517.964602 105.172464 522.821866 101.136232 
Q 527.68614 97.1 536.146051 97.1 
Q 539.405255 97.1 542.391106 97.648977 
Q 545.383966 98.191717 548.033383 99.264718 
L 548.033383 105.284755 
Q 545.299858 103.906073 542.594368 103.22609 
Q 539.888879 102.539868 537.169371 102.539868 
Q 532.136881 102.539868 529.410364 105.047697 
Q 526.683847 107.549287 526.683847 112.209358 
Q 526.683847 116.825759 529.312237 119.346065 
Q 531.940627 121.860132 536.776865 121.860132 
Q 538.094565 121.860132 539.22302 121.716649 
Q 540.351475 121.566928 541.248633 121.255009 
L 541.248633 115.603037 
L 536.096988 115.603037 
L 536.096988 110.568663 
L 549.238938 110.568663 
z
" style="fill:#ffa600;"/>
   </g>
   <g id="patch_36">
    <path clip-path="url(#p342b46e2b2)" d="M 517.964602 66.9 
L 549.238938 66.9 
L 549.238938 72.789841 
L 537.98745 72.789841 
L 537.98745 97.1 
L 529.237909 97.1 
L 529.237909 72.789841 
L 517.964602 72.789841 
z
" style="fill:#ff0000;"/>
   </g>
   <g id="patch_37">
    <path clip-path="url(#p342b46e2b2)" d="M 539.628362 58.64775 
L 527.600755 58.64775 
L 525.701659 66.9 
L 517.964602 66.9 
L 529.013887 21.6 
L 538.189653 21.6 
L 549.238938 66.9 
L 541.508275 66.9 
z
M 529.519034 50.240163 
L 537.690901 50.240163 
L 533.611361 32.221132 
z
" style="fill:#008000;"/>
   </g>
   <g id="patch_38">
    <path clip-path="url(#p342b46e2b2)" d="M 582.159292 154.767589 
Q 579.005224 156.133795 575.612849 156.820017 
Q 572.220473 157.5 568.603809 157.5 
Q 560.431268 157.5 555.658112 153.432576 
Q 550.884956 149.365152 550.884956 142.409358 
Q 550.884956 135.372464 555.74222 131.336232 
Q 560.606494 127.3 569.066405 127.3 
Q 572.325609 127.3 575.31146 127.848977 
Q 578.30432 128.391717 580.953737 129.464718 
L 580.953737 135.484755 
Q 578.220212 134.106073 575.514722 133.42609 
Q 572.809233 132.739868 570.089725 132.739868 
Q 565.057235 132.739868 562.330718 135.247697 
Q 559.604201 137.749287 559.604201 142.409358 
Q 559.604201 147.025759 562.232591 149.546065 
Q 564.860981 152.060132 569.697219 152.060132 
Q 571.014919 152.060132 572.143374 151.916649 
Q 573.271829 151.766928 574.168986 151.455009 
L 574.168986 145.803037 
L 569.017342 145.803037 
L 569.017342 140.768663 
L 582.159292 140.768663 
z
" style="fill:#ffa600;"/>
   </g>
   <g id="patch_39">
    <path clip-path="url(#p342b46e2b2)" d="M 582.159292 124.052923 
Q 579.543248 125.662425 576.714453 126.476534 
Q 573.885658 127.3 570.804714 127.3 
Q 561.617041 127.3 556.250998 121.198864 
Q 550.884956 115.097728 550.884956 104.664036 
Q 550.884956 94.192915 556.250998 88.101136 
Q 561.617041 82 570.804714 82 
Q 573.885658 82 576.714453 82.823466 
Q 579.543248 83.637575 582.159292 85.247077 
L 582.159292 94.277133 
Q 579.519609 92.143607 576.958722 91.151704 
Q 574.397835 90.159802 571.569041 90.159802 
Q 566.494545 90.159802 563.586954 94.024478 
Q 560.687242 97.879798 560.687242 104.664036 
Q 560.687242 111.420202 563.586954 115.284879 
Q 566.494545 119.140198 571.569041 119.140198 
Q 574.397835 119.140198 576.958722 118.148296 
Q 579.519609 117.147036 582.159292 115.01351 
z
" style="fill:#0000ff;"/>
   </g>
   <g id="patch_40">
    <path clip-path="url(#p342b46e2b2)" d="M 572.548716 70.997 
L 560.521109 70.997 
L 558.622013 82 
L 550.884956 82 
L 561.934241 21.6 
L 571.110007 21.6 
L 582.159292 82 
L 574.428629 82 
z
M 562.439387 59.786884 
L 570.611255 59.786884 
L 566.531715 35.761509 
z
" style="fill:#008000;"/>
   </g>
   <g id="patch_41">
    <path clip-path="url(#p342b46e2b2)" d="M 615.079646 156.133795 
Q 611.925578 156.816897 608.533203 157.160008 
Q 605.140827 157.5 601.524163 157.5 
Q 593.351622 157.5 588.578466 155.466288 
Q 583.80531 153.432576 583.80531 149.954679 
Q 583.80531 146.436232 588.662574 144.418116 
Q 593.526848 142.4 601.986759 142.4 
Q 605.245963 142.4 608.231814 142.674489 
Q 611.224674 142.945858 613.874091 143.482359 
L 613.874091 146.492378 
Q 611.140566 145.803037 608.435076 145.463045 
Q 605.729587 145.119934 603.010079 145.119934 
Q 597.977589 145.119934 595.251072 146.373848 
Q 592.524555 147.624644 592.524555 149.954679 
Q 592.524555 152.26288 595.152945 153.523032 
Q 597.781335 154.780066 602.617573 154.780066 
Q 603.935272 154.780066 605.063728 154.708325 
Q 606.192183 154.633464 607.08934 154.477505 
L 607.08934 151.651518 
L 601.937696 151.651518 
L 601.937696 149.134332 
L 615.079646 149.134332 
z
" style="fill:#ffa600;"/>
   </g>
   <g id="patch_42">
    <path clip-path="url(#p342b46e2b2)" d="M 583.80531 127.3 
L 615.079646 127.3 
L 615.079646 130.244921 
L 603.828158 130.244921 
L 603.828158 142.4 
L 595.078617 142.4 
L 595.078617 130.244921 
L 583.80531 130.244921 
z
" style="fill:#ff0000;"/>
   </g>
   <g id="patch_43">
    <path clip-path="url(#p342b46e2b2)" d="M 605.46907 108.044749 
L 593.441463 108.044749 
L 591.542367 127.3 
L 583.80531 127.3 
L 594.854595 21.6 
L 604.030361 21.6 
L 615.079646 127.3 
L 607.348983 127.3 
z
M 595.359741 88.427047 
L 603.531609 88.427047 
L 599.452069 46.38264 
z
" style="fill:#008000;"/>
   </g>
   <g id="patch_44">
    <path clip-path="url(#p342b46e2b2)" d="M 648 156.133795 
Q 644.845932 156.816897 641.453557 157.160008 
Q 638.061181 157.5 634.444517 157.5 
Q 626.271976 157.5 621.49882 155.466288 
Q 616.725664 153.432576 616.725664 149.954679 
Q 616.725664 146.436232 621.582928 144.418116 
Q 626.447202 142.4 634.907113 142.4 
Q 638.166317 142.4 641.152168 142.674489 
Q 644.145028 142.945858 646.794445 143.482359 
L 646.794445 146.492378 
Q 644.06092 145.803037 641.35543 145.463045 
Q 638.649941 145.119934 635.930433 145.119934 
Q 630.897943 145.119934 628.171426 146.373848 
Q 625.444909 147.624644 625.444909 149.954679 
Q 625.444909 152.26288 628.073299 153.523032 
Q 630.701689 154.780066 635.537927 154.780066 
Q 636.855626 154.780066 637.984082 154.708325 
Q 639.112537 154.633464 640.009694 154.477505 
L 640.009694 151.651518 
L 634.85805 151.651518 
L 634.85805 149.134332 
L 648 149.134332 
z
" style="fill:#ffa600;"/>
   </g>
   <g id="patch_45">
    <path clip-path="url(#p342b46e2b2)" d="M 648 140.235282 
Q 645.383956 141.308283 642.555161 141.851023 
Q 639.726366 142.4 636.645422 142.4 
Q 627.457749 142.4 622.091706 138.332576 
Q 616.725664 134.265152 616.725664 127.309358 
Q 616.725664 120.32861 622.091706 116.267424 
Q 627.457749 112.2 636.645422 112.2 
Q 639.726366 112.2 642.555161 112.748977 
Q 645.383956 113.291717 648 114.364718 
L 648 120.384755 
Q 645.360317 118.962404 642.79943 118.301136 
Q 640.238543 117.639868 637.409749 117.639868 
Q 632.335253 117.639868 629.427662 120.216319 
Q 626.52795 122.786532 626.52795 127.309358 
Q 626.52795 131.813468 629.427662 134.389919 
Q 632.335253 136.960132 637.409749 136.960132 
Q 640.238543 136.960132 642.79943 136.298864 
Q 645.360317 135.631357 648 134.209006 
z
" style="fill:#0000ff;"/>
   </g>
   <g id="patch_46">
    <path clip-path="url(#p342b46e2b2)" d="M 638.389424 103.94775 
L 626.361817 103.94775 
L 624.462721 112.2 
L 616.725664 112.2 
L 627.774949 66.9 
L 636.950715 66.9 
L 648 112.2 
L 640.269337 112.2 
z
M 628.280095 95.540163 
L 636.451963 95.540163 
L 632.372423 77.521132 
z
" style="fill:#008000;"/>
   </g>
   <g id="patch_47">
    <path clip-path="url(#p342b46e2b2)" d="M 616.725664 21.6 
L 648 21.6 
L 648 30.434762 
L 636.748512 30.434762 
L 636.748512 66.9 
L 627.998971 66.9 
L 627.998971 30.434762 
L 616.725664 30.434762 
z
" style="fill:#ff0000;"/>
   </g>
  </g>
 </g>
 <defs>
  <clipPath id="p342b46e2b2">
   <rect height="135.9" width="558" x="90" y="21.6"/>
  </clipPath>
 </defs>
</svg>
