<?xml version="1.0" encoding="utf-8" standalone="no"?>
<!DOCTYPE svg PUBLIC "-//W3C//DTD SVG 1.1//EN"
  "http://www.w3.org/Graphics/SVG/1.1/DTD/svg11.dtd">
<!-- Created with matplotlib (https://matplotlib.org/) -->
<svg height="180pt" version="1.1" viewBox="0 0 720 180" width="720pt" xmlns="http://www.w3.org/2000/svg" xmlns:xlink="http://www.w3.org/1999/xlink">
 <metadata>
  <rdf:RDF xmlns:cc="http://creativecommons.org/ns#" xmlns:dc="http://purl.org/dc/elements/1.1/" xmlns:rdf="http://www.w3.org/1999/02/22-rdf-syntax-ns#">
   <cc:Work>
    <dc:type rdf:resource="http://purl.org/dc/dcmitype/StillImage"/>
    <dc:date>2021-08-04T23:32:57.558045</dc:date>
    <dc:format>image/svg+xml</dc:format>
    <dc:creator>
     <cc:Agent>
      <dc:title>Matplotlib v3.3.2, https://matplotlib.org/</dc:title>
     </cc:Agent>
    </dc:creator>
   </cc:Work>
  </rdf:RDF>
 </metadata>
 <defs>
  <style type="text/css">*{stroke-linecap:butt;stroke-linejoin:round;}</style>
 </defs>
 <g id="figure_1">
  <g id="patch_1">
   <path d="M 0 180 
L 720 180 
L 720 0 
L 0 0 
z
" style="fill:none;"/>
  </g>
  <g id="axes_1">
   <g id="line2d_1">
    <path clip-path="url(#p5bfde2a09f)" d="M 90 157.5 
L 648 157.5 
" style="fill:none;stroke:#000000;stroke-linecap:square;stroke-width:0.5;"/>
   </g>
   <g id="patch_2">
    <path clip-path="url(#p5bfde2a09f)" d="M 121.274336 156.417641 
Q 118.658292 156.954142 115.829497 157.225511 
Q 113.000702 157.5 109.919759 157.5 
Q 100.732085 157.5 95.366043 155.466288 
Q 90 153.432576 90 149.954679 
Q 90 146.464305 95.366043 144.433712 
Q 100.732085 142.4 109.919759 142.4 
Q 113.000702 142.4 115.829497 142.674489 
Q 118.658292 142.945858 121.274336 143.482359 
L 121.274336 146.492378 
Q 118.634653 145.781202 116.073766 145.450568 
Q 113.51288 145.119934 110.684085 145.119934 
Q 105.609589 145.119934 102.701998 146.408159 
Q 99.802286 147.693266 99.802286 149.954679 
Q 99.802286 152.206734 102.701998 153.49496 
Q 105.609589 154.780066 110.684085 154.780066 
Q 113.51288 154.780066 116.073766 154.449432 
Q 118.634653 154.115679 121.274336 153.404503 
z
" style="fill:#0000ff;"/>
   </g>
   <g id="patch_3">
    <path clip-path="url(#p5bfde2a09f)" d="M 121.274336 141.033795 
Q 118.120268 141.716897 114.727893 142.060008 
Q 111.335518 142.4 107.718853 142.4 
Q 99.546312 142.4 94.773156 140.366288 
Q 90 138.332576 90 134.854679 
Q 90 131.336232 94.857265 129.318116 
Q 99.721538 127.3 108.18145 127.3 
Q 111.440653 127.3 114.426504 127.574489 
Q 117.419364 127.845858 120.068781 128.382359 
L 120.068781 131.392378 
Q 117.335256 130.703037 114.629766 130.363045 
Q 111.924277 130.019934 109.204769 130.019934 
Q 104.172279 130.019934 101.445762 131.273848 
Q 98.719246 132.524644 98.719246 134.854679 
Q 98.719246 137.16288 101.347636 138.423032 
Q 103.976026 139.680066 108.812263 139.680066 
Q 110.129963 139.680066 111.258418 139.608325 
Q 112.386874 139.533464 113.284031 139.377505 
L 113.284031 136.551518 
L 108.132386 136.551518 
L 108.132386 134.034332 
L 121.274336 134.034332 
z
" style="fill:#ffa600;"/>
   </g>
   <g id="patch_4">
    <path clip-path="url(#p5bfde2a09f)" d="M 111.66376 121.7985 
L 99.636153 121.7985 
L 97.737057 127.3 
L 90 127.3 
L 101.049285 97.1 
L 110.225051 97.1 
L 121.274336 127.3 
L 113.543673 127.3 
z
M 101.554432 116.193442 
L 109.726299 116.193442 
L 105.64676 104.180754 
z
" style="fill:#008000;"/>
   </g>
   <g id="patch_5">
    <path clip-path="url(#p5bfde2a09f)" d="M 90 66.9 
L 121.274336 66.9 
L 121.274336 72.789841 
L 110.022848 72.789841 
L 110.022848 97.1 
L 101.273307 97.1 
L 101.273307 72.789841 
L 90 72.789841 
z
" style="fill:#ff0000;"/>
   </g>
   <g id="patch_6">
    <path clip-path="url(#p5bfde2a09f)" d="M 144.584114 154.74925 
L 132.556507 154.74925 
L 130.657411 157.5 
L 122.920354 157.5 
L 133.969639 142.4 
L 143.145405 142.4 
L 154.19469 157.5 
L 146.464027 157.5 
z
M 134.474786 151.946721 
L 142.646653 151.946721 
L 138.567114 145.940377 
z
" style="fill:#008000;"/>
   </g>
   <g id="patch_7">
    <path clip-path="url(#p5bfde2a09f)" d="M 154.19469 141.317641 
Q 151.578646 141.854142 148.749851 142.125511 
Q 145.921056 142.4 142.840113 142.4 
Q 133.652439 142.4 128.286397 140.366288 
Q 122.920354 138.332576 122.920354 134.854679 
Q 122.920354 131.364305 128.286397 129.333712 
Q 133.652439 127.3 142.840113 127.3 
Q 145.921056 127.3 148.749851 127.574489 
Q 151.578646 127.845858 154.19469 128.382359 
L 154.19469 131.392378 
Q 151.555007 130.681202 148.99412 130.350568 
Q 146.433234 130.019934 143.604439 130.019934 
Q 138.529943 130.019934 135.622352 131.308159 
Q 132.72264 132.593266 132.72264 134.854679 
Q 132.72264 137.106734 135.622352 138.39496 
Q 138.529943 139.680066 143.604439 139.680066 
Q 146.433234 139.680066 148.99412 139.349432 
Q 151.555007 139.015679 154.19469 138.304503 
z
" style="fill:#0000ff;"/>
   </g>
   <g id="patch_8">
    <path clip-path="url(#p5bfde2a09f)" d="M 154.19469 124.567589 
Q 151.040622 125.933795 147.648247 126.620017 
Q 144.255872 127.3 140.639207 127.3 
Q 132.466666 127.3 127.69351 123.232576 
Q 122.920354 119.165152 122.920354 112.209358 
Q 122.920354 105.172464 127.777619 101.136232 
Q 132.641892 97.1 141.101804 97.1 
Q 144.361007 97.1 147.346858 97.648977 
Q 150.339718 98.191717 152.989135 99.264718 
L 152.989135 105.284755 
Q 150.25561 103.906073 147.55012 103.22609 
Q 144.844631 102.539868 142.125123 102.539868 
Q 137.092633 102.539868 134.366116 105.047697 
Q 131.6396 107.549287 131.6396 112.209358 
Q 131.6396 116.825759 134.26799 119.346065 
Q 136.89638 121.860132 141.732617 121.860132 
Q 143.050317 121.860132 144.178772 121.716649 
Q 145.307228 121.566928 146.204385 121.255009 
L 146.204385 115.603037 
L 141.05274 115.603037 
L 141.05274 110.568663 
L 154.19469 110.568663 
z
" style="fill:#ffa600;"/>
   </g>
   <g id="patch_9">
    <path clip-path="url(#p5bfde2a09f)" d="M 122.920354 66.9 
L 154.19469 66.9 
L 154.19469 72.789841 
L 142.943202 72.789841 
L 142.943202 97.1 
L 134.193661 97.1 
L 134.193661 72.789841 
L 122.920354 72.789841 
z
" style="fill:#ff0000;"/>
   </g>
   <g id="patch_10">
    <path clip-path="url(#p5bfde2a09f)" d="M 177.504468 154.74925 
L 165.476861 154.74925 
L 163.577765 157.5 
L 155.840708 157.5 
L 166.889993 142.4 
L 176.065759 142.4 
L 187.115044 157.5 
L 179.384381 157.5 
z
M 167.39514 151.946721 
L 175.567007 151.946721 
L 171.487467 145.940377 
z
" style="fill:#008000;"/>
   </g>
   <g id="patch_11">
    <path clip-path="url(#p5bfde2a09f)" d="M 187.115044 141.317641 
Q 184.499 141.854142 181.670205 142.125511 
Q 178.84141 142.4 175.760467 142.4 
Q 166.572793 142.4 161.206751 140.366288 
Q 155.840708 138.332576 155.840708 134.854679 
Q 155.840708 131.364305 161.206751 129.333712 
Q 166.572793 127.3 175.760467 127.3 
Q 178.84141 127.3 181.670205 127.574489 
Q 184.499 127.845858 187.115044 128.382359 
L 187.115044 131.392378 
Q 184.475361 130.681202 181.914474 130.350568 
Q 179.353588 130.019934 176.524793 130.019934 
Q 171.450297 130.019934 168.542706 131.308159 
Q 165.642994 132.593266 165.642994 134.854679 
Q 165.642994 137.106734 168.542706 138.39496 
Q 171.450297 139.680066 176.524793 139.680066 
Q 179.353588 139.680066 181.914474 139.349432 
Q 184.475361 139.015679 187.115044 138.304503 
z
" style="fill:#0000ff;"/>
   </g>
   <g id="patch_12">
    <path clip-path="url(#p5bfde2a09f)" d="M 155.840708 112.2 
L 187.115044 112.2 
L 187.115044 115.144921 
L 175.863556 115.144921 
L 175.863556 127.3 
L 167.114015 127.3 
L 167.114015 115.144921 
L 155.840708 115.144921 
z
" style="fill:#ff0000;"/>
   </g>
   <g id="patch_13">
    <path clip-path="url(#p5bfde2a09f)" d="M 187.115044 108.101384 
Q 183.960976 110.150692 180.568601 111.180025 
Q 177.176226 112.2 173.559561 112.2 
Q 165.38702 112.2 160.613864 106.098864 
Q 155.840708 99.997728 155.840708 89.564036 
Q 155.840708 79.008697 160.697973 72.954348 
Q 165.562246 66.9 174.022158 66.9 
Q 177.281361 66.9 180.267212 67.723466 
Q 183.260072 68.537575 185.909489 70.147077 
L 185.909489 79.177133 
Q 183.175964 77.10911 180.470474 76.089134 
Q 177.764985 75.059802 175.045477 75.059802 
Q 170.012987 75.059802 167.28647 78.821545 
Q 164.559954 82.573931 164.559954 89.564036 
Q 164.559954 96.488639 167.188344 100.269097 
Q 169.816734 104.040198 174.652971 104.040198 
Q 175.970671 104.040198 177.099126 103.824974 
Q 178.227582 103.600392 179.124739 103.132514 
L 179.124739 94.654555 
L 173.973094 94.654555 
L 173.973094 87.102995 
L 187.115044 87.102995 
z
" style="fill:#ffa600;"/>
   </g>
   <g id="patch_14">
    <path clip-path="url(#p5bfde2a09f)" d="M 220.035398 156.133795 
Q 216.88133 156.816897 213.488955 157.160008 
Q 210.09658 157.5 206.479915 157.5 
Q 198.307374 157.5 193.534218 155.466288 
Q 188.761062 153.432576 188.761062 149.954679 
Q 188.761062 146.436232 193.618327 144.418116 
Q 198.4826 142.4 206.942512 142.4 
Q 210.201715 142.4 213.187566 142.674489 
Q 216.180426 142.945858 218.829843 143.482359 
L 218.829843 146.492378 
Q 216.096318 145.803037 213.390828 145.463045 
Q 210.685339 145.119934 207.965831 145.119934 
Q 202.933341 145.119934 200.206824 146.373848 
Q 197.480308 147.624644 197.480308 149.954679 
Q 197.480308 152.26288 200.108698 153.523032 
Q 202.737088 154.780066 207.573325 154.780066 
Q 208.891025 154.780066 210.01948 154.708325 
Q 211.147936 154.633464 212.045093 154.477505 
L 212.045093 151.651518 
L 206.893448 151.651518 
L 206.893448 149.134332 
L 220.035398 149.134332 
z
" style="fill:#ffa600;"/>
   </g>
   <g id="patch_15">
    <path clip-path="url(#p5bfde2a09f)" d="M 188.761062 127.3 
L 220.035398 127.3 
L 220.035398 130.244921 
L 208.78391 130.244921 
L 208.78391 142.4 
L 200.034369 142.4 
L 200.034369 130.244921 
L 188.761062 130.244921 
z
" style="fill:#ff0000;"/>
   </g>
   <g id="patch_16">
    <path clip-path="url(#p5bfde2a09f)" d="M 220.035398 122.970564 
Q 217.419354 125.116567 214.590559 126.202045 
Q 211.761764 127.3 208.680821 127.3 
Q 199.493147 127.3 194.127105 119.165152 
Q 188.761062 111.030304 188.761062 97.118715 
Q 188.761062 83.15722 194.127105 75.034848 
Q 199.493147 66.9 208.680821 66.9 
Q 211.761764 66.9 214.590559 67.997955 
Q 217.419354 69.083433 220.035398 71.229436 
L 220.035398 83.26951 
Q 217.395715 80.424809 214.834828 79.102272 
Q 212.273942 77.779736 209.445147 77.779736 
Q 204.370651 77.779736 201.46306 82.932638 
Q 198.563348 88.073063 198.563348 97.118715 
Q 198.563348 106.126937 201.46306 111.279839 
Q 204.370651 116.420264 209.445147 116.420264 
Q 212.273942 116.420264 214.834828 115.097728 
Q 217.395715 113.762714 220.035398 110.918013 
z
" style="fill:#0000ff;"/>
   </g>
   <g id="patch_17">
    <path clip-path="url(#p5bfde2a09f)" d="M 252.955752 156.133795 
Q 249.801684 156.816897 246.409309 157.160008 
Q 243.016934 157.5 239.400269 157.5 
Q 231.227728 157.5 226.454572 155.466288 
Q 221.681416 153.432576 221.681416 149.954679 
Q 221.681416 146.436232 226.538681 144.418116 
Q 231.402954 142.4 239.862866 142.4 
Q 243.122069 142.4 246.10792 142.674489 
Q 249.10078 142.945858 251.750197 143.482359 
L 251.750197 146.492378 
Q 249.016672 145.803037 246.311182 145.463045 
Q 243.605693 145.119934 240.886185 145.119934 
Q 235.853695 145.119934 233.127178 146.373848 
Q 230.400662 147.624644 230.400662 149.954679 
Q 230.400662 152.26288 233.029052 153.523032 
Q 235.657442 154.780066 240.493679 154.780066 
Q 241.811379 154.780066 242.939834 154.708325 
Q 244.06829 154.633464 244.965447 154.477505 
L 244.965447 151.651518 
L 239.813802 151.651518 
L 239.813802 149.134332 
L 252.955752 149.134332 
z
" style="fill:#ffa600;"/>
   </g>
   <g id="patch_18">
    <path clip-path="url(#p5bfde2a09f)" d="M 221.681416 127.3 
L 252.955752 127.3 
L 252.955752 130.244921 
L 241.704264 130.244921 
L 241.704264 142.4 
L 232.954723 142.4 
L 232.954723 130.244921 
L 221.681416 130.244921 
z
" style="fill:#ff0000;"/>
   </g>
   <g id="patch_19">
    <path clip-path="url(#p5bfde2a09f)" d="M 252.955752 122.970564 
Q 250.339708 125.116567 247.510913 126.202045 
Q 244.682118 127.3 241.601175 127.3 
Q 232.413501 127.3 227.047459 119.165152 
Q 221.681416 111.030304 221.681416 97.118715 
Q 221.681416 83.15722 227.047459 75.034848 
Q 232.413501 66.9 241.601175 66.9 
Q 244.682118 66.9 247.510913 67.997955 
Q 250.339708 69.083433 252.955752 71.229436 
L 252.955752 83.26951 
Q 250.316069 80.424809 247.755182 79.102272 
Q 245.194296 77.779736 242.365501 77.779736 
Q 237.291005 77.779736 234.383414 82.932638 
Q 231.483702 88.073063 231.483702 97.118715 
Q 231.483702 106.126937 234.383414 111.279839 
Q 237.291005 116.420264 242.365501 116.420264 
Q 245.194296 116.420264 247.755182 115.097728 
Q 250.316069 113.762714 252.955752 110.918013 
z
" style="fill:#0000ff;"/>
   </g>
   <g id="patch_20">
    <path clip-path="url(#p5bfde2a09f)" d="M 254.60177 142.4 
L 285.876106 142.4 
L 285.876106 145.344921 
L 274.624618 145.344921 
L 274.624618 157.5 
L 265.875077 157.5 
L 265.875077 145.344921 
L 254.60177 145.344921 
z
" style="fill:#ff0000;"/>
   </g>
   <g id="patch_21">
    <path clip-path="url(#p5bfde2a09f)" d="M 285.876106 136.988205 
Q 283.260062 139.670709 280.431267 141.027556 
Q 277.602472 142.4 274.521529 142.4 
Q 265.333855 142.4 259.967812 132.23144 
Q 254.60177 122.06288 254.60177 104.673394 
Q 254.60177 87.221524 259.967812 77.06856 
Q 265.333855 66.9 274.521529 66.9 
Q 277.602472 66.9 280.431267 68.272444 
Q 283.260062 69.629291 285.876106 72.311795 
L 285.876106 87.361888 
Q 283.236423 83.806011 280.675536 82.15284 
Q 278.11465 80.499669 275.285855 80.499669 
Q 270.211359 80.499669 267.303768 86.940797 
Q 264.404056 93.366329 264.404056 104.673394 
Q 264.404056 115.933671 267.303768 122.374799 
Q 270.211359 128.800331 275.285855 128.800331 
Q 278.11465 128.800331 280.675536 127.14716 
Q 283.236423 125.478393 285.876106 121.922516 
z
" style="fill:#0000ff;"/>
   </g>
   <g id="patch_22">
    <path clip-path="url(#p5bfde2a09f)" d="M 287.522124 127.3 
L 318.79646 127.3 
L 318.79646 133.189841 
L 307.544972 133.189841 
L 307.544972 157.5 
L 298.795431 157.5 
L 298.795431 133.189841 
L 287.522124 133.189841 
z
" style="fill:#ff0000;"/>
   </g>
   <g id="patch_23">
    <path clip-path="url(#p5bfde2a09f)" d="M 318.79646 122.970564 
Q 316.180416 125.116567 313.351621 126.202045 
Q 310.522826 127.3 307.441883 127.3 
Q 298.254209 127.3 292.888166 119.165152 
Q 287.522124 111.030304 287.522124 97.118715 
Q 287.522124 83.15722 292.888166 75.034848 
Q 298.254209 66.9 307.441883 66.9 
Q 310.522826 66.9 313.351621 67.997955 
Q 316.180416 69.083433 318.79646 71.229436 
L 318.79646 83.26951 
Q 316.156777 80.424809 313.59589 79.102272 
Q 311.035004 77.779736 308.206209 77.779736 
Q 303.131713 77.779736 300.224122 82.932638 
Q 297.32441 88.073063 297.32441 97.118715 
Q 297.32441 106.126937 300.224122 111.279839 
Q 303.131713 116.420264 308.206209 116.420264 
Q 311.035004 116.420264 313.59589 115.097728 
Q 316.156777 113.762714 318.79646 110.918013 
z
" style="fill:#0000ff;"/>
   </g>
   <g id="patch_24">
    <path clip-path="url(#p5bfde2a09f)" d="M 342.106238 151.9985 
L 330.078631 151.9985 
L 328.179535 157.5 
L 320.442478 157.5 
L 331.491763 127.3 
L 340.667529 127.3 
L 351.716814 157.5 
L 343.986151 157.5 
z
M 331.99691 146.393442 
L 340.168777 146.393442 
L 336.089237 134.380754 
z
" style="fill:#008000;"/>
   </g>
   <g id="patch_25">
    <path clip-path="url(#p5bfde2a09f)" d="M 351.716814 119.723487 
Q 349.10077 123.478992 346.271975 125.378579 
Q 343.44318 127.3 340.362237 127.3 
Q 331.174563 127.3 325.80852 113.064016 
Q 320.442478 98.828031 320.442478 74.482751 
Q 320.442478 50.050134 325.80852 35.835984 
Q 331.174563 21.6 340.362237 21.6 
Q 343.44318 21.6 346.271975 23.521421 
Q 349.10077 25.421008 351.716814 29.176513 
L 351.716814 50.246643 
Q 349.077131 45.268416 346.516244 42.953976 
Q 343.955358 40.639537 341.126563 40.639537 
Q 336.052067 40.639537 333.144476 49.657116 
Q 330.244764 58.652861 330.244764 74.482751 
Q 330.244764 90.247139 333.144476 99.264718 
Q 336.052067 108.260463 341.126563 108.260463 
Q 343.955358 108.260463 346.516244 105.946024 
Q 349.077131 103.60975 351.716814 98.631522 
z
" style="fill:#0000ff;"/>
   </g>
   <g id="patch_26">
    <path clip-path="url(#p5bfde2a09f)" d="M 375.026592 151.9985 
L 362.998985 151.9985 
L 361.099889 157.5 
L 353.362832 157.5 
L 364.412117 127.3 
L 373.587883 127.3 
L 384.637168 157.5 
L 376.906505 157.5 
z
M 364.917264 146.393442 
L 373.089131 146.393442 
L 369.009591 134.380754 
z
" style="fill:#008000;"/>
   </g>
   <g id="patch_27">
    <path clip-path="url(#p5bfde2a09f)" d="M 384.637168 119.723487 
Q 382.021124 123.478992 379.192329 125.378579 
Q 376.363534 127.3 373.282591 127.3 
Q 364.094917 127.3 358.728874 113.064016 
Q 353.362832 98.828031 353.362832 74.482751 
Q 353.362832 50.050134 358.728874 35.835984 
Q 364.094917 21.6 373.282591 21.6 
Q 376.363534 21.6 379.192329 23.521421 
Q 382.021124 25.421008 384.637168 29.176513 
L 384.637168 50.246643 
Q 381.997485 45.268416 379.436598 42.953976 
Q 376.875712 40.639537 374.046917 40.639537 
Q 368.972421 40.639537 366.06483 49.657116 
Q 363.165118 58.652861 363.165118 74.482751 
Q 363.165118 90.247139 366.06483 99.264718 
Q 368.972421 108.260463 374.046917 108.260463 
Q 376.875712 108.260463 379.436598 105.946024 
Q 381.997485 103.60975 384.637168 98.631522 
z
" style="fill:#0000ff;"/>
   </g>
   <g id="patch_28">
    <path clip-path="url(#p5bfde2a09f)" d="M 417.557522 156.133795 
Q 414.403454 156.816897 411.011079 157.160008 
Q 407.618703 157.5 404.002039 157.5 
Q 395.829498 157.5 391.056342 155.466288 
Q 386.283186 153.432576 386.283186 149.954679 
Q 386.283186 146.436232 391.140451 144.418116 
Q 396.004724 142.4 404.464635 142.4 
Q 407.723839 142.4 410.70969 142.674489 
Q 413.70255 142.945858 416.351967 143.482359 
L 416.351967 146.492378 
Q 413.618442 145.803037 410.912952 145.463045 
Q 408.207463 145.119934 405.487955 145.119934 
Q 400.455465 145.119934 397.728948 146.373848 
Q 395.002432 147.624644 395.002432 149.954679 
Q 395.002432 152.26288 397.630822 153.523032 
Q 400.259212 154.780066 405.095449 154.780066 
Q 406.413149 154.780066 407.541604 154.708325 
Q 408.670059 154.633464 409.567217 154.477505 
L 409.567217 151.651518 
L 404.415572 151.651518 
L 404.415572 149.134332 
L 417.557522 149.134332 
z
" style="fill:#ffa600;"/>
   </g>
   <g id="patch_29">
    <path clip-path="url(#p5bfde2a09f)" d="M 407.946946 120.393999 
L 395.919339 120.393999 
L 394.020243 142.4 
L 386.283186 142.4 
L 397.332471 21.6 
L 406.508237 21.6 
L 417.557522 142.4 
L 409.826859 142.4 
z
M 397.837618 97.973768 
L 406.009485 97.973768 
L 401.929945 49.923018 
z
" style="fill:#008000;"/>
   </g>
   <g id="patch_30">
    <path clip-path="url(#p5bfde2a09f)" d="M 440.8673 154.74925 
L 428.839693 154.74925 
L 426.940597 157.5 
L 419.20354 157.5 
L 430.252825 142.4 
L 439.428591 142.4 
L 450.477876 157.5 
L 442.747213 157.5 
z
M 430.757972 151.946721 
L 438.929839 151.946721 
L 434.850299 145.940377 
z
" style="fill:#008000;"/>
   </g>
   <g id="patch_31">
    <path clip-path="url(#p5bfde2a09f)" d="M 450.477876 141.317641 
Q 447.861832 141.854142 445.033037 142.125511 
Q 442.204242 142.4 439.123298 142.4 
Q 429.935625 142.4 424.569582 140.366288 
Q 419.20354 138.332576 419.20354 134.854679 
Q 419.20354 131.364305 424.569582 129.333712 
Q 429.935625 127.3 439.123298 127.3 
Q 442.204242 127.3 445.033037 127.574489 
Q 447.861832 127.845858 450.477876 128.382359 
L 450.477876 131.392378 
Q 447.838193 130.681202 445.277306 130.350568 
Q 442.71642 130.019934 439.887625 130.019934 
Q 434.813129 130.019934 431.905538 131.308159 
Q 429.005826 132.593266 429.005826 134.854679 
Q 429.005826 137.106734 431.905538 138.39496 
Q 434.813129 139.680066 439.887625 139.680066 
Q 442.71642 139.680066 445.277306 139.349432 
Q 447.838193 139.015679 450.477876 138.304503 
z
" style="fill:#0000ff;"/>
   </g>
   <g id="patch_32">
    <path clip-path="url(#p5bfde2a09f)" d="M 450.477876 125.933795 
Q 447.323808 126.616897 443.931433 126.960008 
Q 440.539057 127.3 436.922393 127.3 
Q 428.749852 127.3 423.976696 125.266288 
Q 419.20354 123.232576 419.20354 119.754679 
Q 419.20354 116.236232 424.060805 114.218116 
Q 428.925078 112.2 437.384989 112.2 
Q 440.644193 112.2 443.630044 112.474489 
Q 446.622904 112.745858 449.272321 113.282359 
L 449.272321 116.292378 
Q 446.538796 115.603037 443.833306 115.263045 
Q 441.127817 114.919934 438.408309 114.919934 
Q 433.375819 114.919934 430.649302 116.173848 
Q 427.922786 117.424644 427.922786 119.754679 
Q 427.922786 122.06288 430.551176 123.323032 
Q 433.179565 124.580066 438.015803 124.580066 
Q 439.333503 124.580066 440.461958 124.508325 
Q 441.590413 124.433464 442.487571 124.277505 
L 442.487571 121.451518 
L 437.335926 121.451518 
L 437.335926 118.934332 
L 450.477876 118.934332 
z
" style="fill:#ffa600;"/>
   </g>
   <g id="patch_33">
    <path clip-path="url(#p5bfde2a09f)" d="M 419.20354 21.6 
L 450.477876 21.6 
L 450.477876 39.269524 
L 439.226388 39.269524 
L 439.226388 112.2 
L 430.476847 112.2 
L 430.476847 39.269524 
L 419.20354 39.269524 
z
" style="fill:#ff0000;"/>
   </g>
   <g id="patch_34">
    <path clip-path="url(#p5bfde2a09f)" d="M 473.787654 149.24775 
L 461.760047 149.24775 
L 459.860951 157.5 
L 452.123894 157.5 
L 463.173179 112.2 
L 472.348945 112.2 
L 483.39823 157.5 
L 475.667567 157.5 
z
M 463.678326 140.840163 
L 471.850193 140.840163 
L 467.770653 122.821132 
z
" style="fill:#008000;"/>
   </g>
   <g id="patch_35">
    <path clip-path="url(#p5bfde2a09f)" d="M 483.39823 105.705846 
Q 480.782186 108.92485 477.953391 110.553068 
Q 475.124596 112.2 472.043652 112.2 
Q 462.855979 112.2 457.489936 99.997728 
Q 452.123894 87.795455 452.123894 66.928073 
Q 452.123894 45.985829 457.489936 33.802272 
Q 462.855979 21.6 472.043652 21.6 
Q 475.124596 21.6 477.953391 23.246932 
Q 480.782186 24.87515 483.39823 28.094154 
L 483.39823 46.154266 
Q 480.758547 41.887213 478.19766 39.903408 
Q 475.636773 37.919603 472.807979 37.919603 
Q 467.733483 37.919603 464.825892 45.648957 
Q 461.92618 53.359595 461.92618 66.928073 
Q 461.92618 80.440405 464.825892 88.169758 
Q 467.733483 95.880397 472.807979 95.880397 
Q 475.636773 95.880397 478.19766 93.896592 
Q 480.758547 91.894071 483.39823 87.627019 
z
" style="fill:#0000ff;"/>
   </g>
   <g id="patch_36">
    <path clip-path="url(#p5bfde2a09f)" d="M 506.708008 146.497 
L 494.680401 146.497 
L 492.781305 157.5 
L 485.044248 157.5 
L 496.093533 97.1 
L 505.269299 97.1 
L 516.318584 157.5 
L 508.587921 157.5 
z
M 496.59868 135.286884 
L 504.770547 135.286884 
L 500.691007 111.261509 
z
" style="fill:#008000;"/>
   </g>
   <g id="patch_37">
    <path clip-path="url(#p5bfde2a09f)" d="M 516.318584 90.268973 
Q 513.164516 93.684487 509.772141 95.400041 
Q 506.379765 97.1 502.763101 97.1 
Q 494.59056 97.1 489.817404 86.93144 
Q 485.044248 76.76288 485.044248 59.373394 
Q 485.044248 41.781161 489.901512 31.69058 
Q 494.765786 21.6 503.225697 21.6 
Q 506.484901 21.6 509.470752 22.972444 
Q 512.463612 24.329291 515.113029 27.011795 
L 515.113029 42.061888 
Q 512.379504 38.615183 509.674014 36.915224 
Q 506.968525 35.199669 504.249017 35.199669 
Q 499.216527 35.199669 496.49001 41.469242 
Q 493.763493 47.723218 493.763493 59.373394 
Q 493.763493 70.914398 496.391883 77.215162 
Q 499.020273 83.500331 503.856511 83.500331 
Q 505.174211 83.500331 506.302666 83.141624 
Q 507.431121 82.767321 508.328279 81.987523 
L 508.328279 67.857591 
L 503.176634 67.857591 
L 503.176634 55.271659 
L 516.318584 55.271659 
z
" style="fill:#ffa600;"/>
   </g>
   <g id="patch_38">
    <path clip-path="url(#p5bfde2a09f)" d="M 539.628362 151.9985 
L 527.600755 151.9985 
L 525.701659 157.5 
L 517.964602 157.5 
L 529.013887 127.3 
L 538.189653 127.3 
L 549.238938 157.5 
L 541.508275 157.5 
z
M 529.519034 146.393442 
L 537.690901 146.393442 
L 533.611361 134.380754 
z
" style="fill:#008000;"/>
   </g>
   <g id="patch_39">
    <path clip-path="url(#p5bfde2a09f)" d="M 549.238938 117.736563 
Q 546.08487 122.518281 542.692495 124.920058 
Q 539.300119 127.3 535.683455 127.3 
Q 527.510914 127.3 522.737758 113.064016 
Q 517.964602 98.828031 517.964602 74.482751 
Q 517.964602 49.853625 522.821866 35.726813 
Q 527.68614 21.6 536.146051 21.6 
Q 539.405255 21.6 542.391106 23.521421 
Q 545.383966 25.421008 548.033383 29.176513 
L 548.033383 50.246643 
Q 545.299858 45.421256 542.594368 43.041314 
Q 539.888879 40.639537 537.169371 40.639537 
Q 532.136881 40.639537 529.410364 49.416939 
Q 526.683847 58.172506 526.683847 74.482751 
Q 526.683847 90.640157 529.312237 99.461227 
Q 531.940627 108.260463 536.776865 108.260463 
Q 538.094565 108.260463 539.22302 107.758273 
Q 540.351475 107.234249 541.248633 106.142533 
L 541.248633 86.360628 
L 536.096988 86.360628 
L 536.096988 68.740322 
L 549.238938 68.740322 
z
" style="fill:#ffa600;"/>
   </g>
   <g id="patch_40">
    <path clip-path="url(#p5bfde2a09f)" d="M 550.884956 142.4 
L 582.159292 142.4 
L 582.159292 145.344921 
L 570.907804 145.344921 
L 570.907804 157.5 
L 562.158263 157.5 
L 562.158263 145.344921 
L 550.884956 145.344921 
z
" style="fill:#ff0000;"/>
   </g>
   <g id="patch_41">
    <path clip-path="url(#p5bfde2a09f)" d="M 582.159292 139.152923 
Q 579.543248 140.762425 576.714453 141.576534 
Q 573.885658 142.4 570.804714 142.4 
Q 561.617041 142.4 556.250998 136.298864 
Q 550.884956 130.197728 550.884956 119.764036 
Q 550.884956 109.292915 556.250998 103.201136 
Q 561.617041 97.1 570.804714 97.1 
Q 573.885658 97.1 576.714453 97.923466 
Q 579.543248 98.737575 582.159292 100.347077 
L 582.159292 109.377133 
Q 579.519609 107.243607 576.958722 106.251704 
Q 574.397835 105.259802 571.569041 105.259802 
Q 566.494545 105.259802 563.586954 109.124478 
Q 560.687242 112.979798 560.687242 119.764036 
Q 560.687242 126.520202 563.586954 130.384879 
Q 566.494545 134.240198 571.569041 134.240198 
Q 574.397835 134.240198 576.958722 133.248296 
Q 579.519609 132.247036 582.159292 130.11351 
z
" style="fill:#0000ff;"/>
   </g>
   <g id="patch_42">
    <path clip-path="url(#p5bfde2a09f)" d="M 572.548716 83.346249 
L 560.521109 83.346249 
L 558.622013 97.1 
L 550.884956 97.1 
L 561.934241 21.6 
L 571.110007 21.6 
L 582.159292 97.1 
L 574.428629 97.1 
z
M 562.439387 69.333605 
L 570.611255 69.333605 
L 566.531715 39.301886 
z
" style="fill:#008000;"/>
   </g>
   <g id="patch_43">
    <path clip-path="url(#p5bfde2a09f)" d="M 615.079646 156.417641 
Q 612.463602 156.954142 609.634807 157.225511 
Q 606.806012 157.5 603.725068 157.5 
Q 594.537395 157.5 589.171352 155.466288 
Q 583.80531 153.432576 583.80531 149.954679 
Q 583.80531 146.464305 589.171352 144.433712 
Q 594.537395 142.4 603.725068 142.4 
Q 606.806012 142.4 609.634807 142.674489 
Q 612.463602 142.945858 615.079646 143.482359 
L 615.079646 146.492378 
Q 612.439963 145.781202 609.879076 145.450568 
Q 607.318189 145.119934 604.489395 145.119934 
Q 599.414899 145.119934 596.507308 146.408159 
Q 593.607596 147.693266 593.607596 149.954679 
Q 593.607596 152.206734 596.507308 153.49496 
Q 599.414899 154.780066 604.489395 154.780066 
Q 607.318189 154.780066 609.879076 154.449432 
Q 612.439963 154.115679 615.079646 153.404503 
z
" style="fill:#0000ff;"/>
   </g>
   <g id="patch_44">
    <path clip-path="url(#p5bfde2a09f)" d="M 605.46907 131.397 
L 593.441463 131.397 
L 591.542367 142.4 
L 583.80531 142.4 
L 594.854595 82 
L 604.030361 82 
L 615.079646 142.4 
L 607.348983 142.4 
z
M 595.359741 120.186884 
L 603.531609 120.186884 
L 599.452069 96.161509 
z
" style="fill:#008000;"/>
   </g>
   <g id="patch_45">
    <path clip-path="url(#p5bfde2a09f)" d="M 583.80531 21.6 
L 615.079646 21.6 
L 615.079646 33.379683 
L 603.828158 33.379683 
L 603.828158 82 
L 595.078617 82 
L 595.078617 33.379683 
L 583.80531 33.379683 
z
" style="fill:#ff0000;"/>
   </g>
   <g id="patch_46">
    <path clip-path="url(#p5bfde2a09f)" d="M 648 155.335282 
Q 645.383956 156.408283 642.555161 156.951023 
Q 639.726366 157.5 636.645422 157.5 
Q 627.457749 157.5 622.091706 153.432576 
Q 616.725664 149.365152 616.725664 142.409358 
Q 616.725664 135.42861 622.091706 131.367424 
Q 627.457749 127.3 636.645422 127.3 
Q 639.726366 127.3 642.555161 127.848977 
Q 645.383956 128.391717 648 129.464718 
L 648 135.484755 
Q 645.360317 134.062404 642.79943 133.401136 
Q 640.238543 132.739868 637.409749 132.739868 
Q 632.335253 132.739868 629.427662 135.316319 
Q 626.52795 137.886532 626.52795 142.409358 
Q 626.52795 146.913468 629.427662 149.489919 
Q 632.335253 152.060132 637.409749 152.060132 
Q 640.238543 152.060132 642.79943 151.398864 
Q 645.360317 150.731357 648 149.309006 
z
" style="fill:#0000ff;"/>
   </g>
   <g id="patch_47">
    <path clip-path="url(#p5bfde2a09f)" d="M 616.725664 21.6 
L 648 21.6 
L 648 42.214445 
L 636.748512 42.214445 
L 636.748512 127.3 
L 627.998971 127.3 
L 627.998971 42.214445 
L 616.725664 42.214445 
z
" style="fill:#ff0000;"/>
   </g>
  </g>
 </g>
 <defs>
  <clipPath id="p5bfde2a09f">
   <rect height="135.9" width="558" x="90" y="21.6"/>
  </clipPath>
 </defs>
</svg>
