<?xml version="1.0" encoding="utf-8" standalone="no"?>
<!DOCTYPE svg PUBLIC "-//W3C//DTD SVG 1.1//EN"
  "http://www.w3.org/Graphics/SVG/1.1/DTD/svg11.dtd">
<!-- Created with matplotlib (https://matplotlib.org/) -->
<svg height="180pt" version="1.1" viewBox="0 0 720 180" width="720pt" xmlns="http://www.w3.org/2000/svg" xmlns:xlink="http://www.w3.org/1999/xlink">
 <metadata>
  <rdf:RDF xmlns:cc="http://creativecommons.org/ns#" xmlns:dc="http://purl.org/dc/elements/1.1/" xmlns:rdf="http://www.w3.org/1999/02/22-rdf-syntax-ns#">
   <cc:Work>
    <dc:type rdf:resource="http://purl.org/dc/dcmitype/StillImage"/>
    <dc:date>2021-08-04T23:33:52.996899</dc:date>
    <dc:format>image/svg+xml</dc:format>
    <dc:creator>
     <cc:Agent>
      <dc:title>Matplotlib v3.3.2, https://matplotlib.org/</dc:title>
     </cc:Agent>
    </dc:creator>
   </cc:Work>
  </rdf:RDF>
 </metadata>
 <defs>
  <style type="text/css">*{stroke-linecap:butt;stroke-linejoin:round;}</style>
 </defs>
 <g id="figure_1">
  <g id="patch_1">
   <path d="M 0 180 
L 720 180 
L 720 0 
L 0 0 
z
" style="fill:none;"/>
  </g>
  <g id="axes_1">
   <g id="line2d_1">
    <path clip-path="url(#p7f5eec0279)" d="M 90 157.5 
L 648 157.5 
" style="fill:none;stroke:#000000;stroke-linecap:square;stroke-width:0.5;"/>
   </g>
   <g id="patch_2">
    <path clip-path="url(#p7f5eec0279)" d="M 121.274336 155.335282 
Q 118.658292 156.408283 115.829497 156.951023 
Q 113.000702 157.5 109.919759 157.5 
Q 100.732085 157.5 95.366043 153.432576 
Q 90 149.365152 90 142.409358 
Q 90 135.42861 95.366043 131.367424 
Q 100.732085 127.3 109.919759 127.3 
Q 113.000702 127.3 115.829497 127.848977 
Q 118.658292 128.391717 121.274336 129.464718 
L 121.274336 135.484755 
Q 118.634653 134.062404 116.073766 133.401136 
Q 113.51288 132.739868 110.684085 132.739868 
Q 105.609589 132.739868 102.701998 135.316319 
Q 99.802286 137.886532 99.802286 142.409358 
Q 99.802286 146.913468 102.701998 149.489919 
Q 105.609589 152.060132 110.684085 152.060132 
Q 113.51288 152.060132 116.073766 151.398864 
Q 118.634653 150.731357 121.274336 149.309006 
z
" style="fill:#0000ff;"/>
   </g>
   <g id="patch_3">
    <path clip-path="url(#p7f5eec0279)" d="M 111.66376 119.04775 
L 99.636153 119.04775 
L 97.737057 127.3 
L 90 127.3 
L 101.049285 82 
L 110.225051 82 
L 121.274336 127.3 
L 113.543673 127.3 
z
M 101.554432 110.640163 
L 109.726299 110.640163 
L 105.64676 92.621132 
z
" style="fill:#008000;"/>
   </g>
   <g id="patch_4">
    <path clip-path="url(#p7f5eec0279)" d="M 90 21.6 
L 121.274336 21.6 
L 121.274336 33.379683 
L 110.022848 33.379683 
L 110.022848 82 
L 101.273307 82 
L 101.273307 33.379683 
L 90 33.379683 
z
" style="fill:#ff0000;"/>
   </g>
   <g id="patch_5">
    <path clip-path="url(#p7f5eec0279)" d="M 154.19469 154.767589 
Q 151.040622 156.133795 147.648247 156.820017 
Q 144.255872 157.5 140.639207 157.5 
Q 132.466666 157.5 127.69351 153.432576 
Q 122.920354 149.365152 122.920354 142.409358 
Q 122.920354 135.372464 127.777619 131.336232 
Q 132.641892 127.3 141.101804 127.3 
Q 144.361007 127.3 147.346858 127.848977 
Q 150.339718 128.391717 152.989135 129.464718 
L 152.989135 135.484755 
Q 150.25561 134.106073 147.55012 133.42609 
Q 144.844631 132.739868 142.125123 132.739868 
Q 137.092633 132.739868 134.366116 135.247697 
Q 131.6396 137.749287 131.6396 142.409358 
Q 131.6396 147.025759 134.26799 149.546065 
Q 136.89638 152.060132 141.732617 152.060132 
Q 143.050317 152.060132 144.178772 151.916649 
Q 145.307228 151.766928 146.204385 151.455009 
L 146.204385 145.803037 
L 141.05274 145.803037 
L 141.05274 140.768663 
L 154.19469 140.768663 
z
" style="fill:#ffa600;"/>
   </g>
   <g id="patch_6">
    <path clip-path="url(#p7f5eec0279)" d="M 154.19469 124.052923 
Q 151.578646 125.662425 148.749851 126.476534 
Q 145.921056 127.3 142.840113 127.3 
Q 133.652439 127.3 128.286397 121.198864 
Q 122.920354 115.097728 122.920354 104.664036 
Q 122.920354 94.192915 128.286397 88.101136 
Q 133.652439 82 142.840113 82 
Q 145.921056 82 148.749851 82.823466 
Q 151.578646 83.637575 154.19469 85.247077 
L 154.19469 94.277133 
Q 151.555007 92.143607 148.99412 91.151704 
Q 146.433234 90.159802 143.604439 90.159802 
Q 138.529943 90.159802 135.622352 94.024478 
Q 132.72264 97.879798 132.72264 104.664036 
Q 132.72264 111.420202 135.622352 115.284879 
Q 138.529943 119.140198 143.604439 119.140198 
Q 146.433234 119.140198 148.99412 118.148296 
Q 151.555007 117.147036 154.19469 115.01351 
z
" style="fill:#0000ff;"/>
   </g>
   <g id="patch_7">
    <path clip-path="url(#p7f5eec0279)" d="M 144.584114 70.997 
L 132.556507 70.997 
L 130.657411 82 
L 122.920354 82 
L 133.969639 21.6 
L 143.145405 21.6 
L 154.19469 82 
L 146.464027 82 
z
M 134.474786 59.786884 
L 142.646653 59.786884 
L 138.567114 35.761509 
z
" style="fill:#008000;"/>
   </g>
   <g id="patch_8">
    <path clip-path="url(#p7f5eec0279)" d="M 155.840708 142.4 
L 187.115044 142.4 
L 187.115044 145.344921 
L 175.863556 145.344921 
L 175.863556 157.5 
L 167.114015 157.5 
L 167.114015 145.344921 
L 155.840708 145.344921 
z
" style="fill:#ff0000;"/>
   </g>
   <g id="patch_9">
    <path clip-path="url(#p7f5eec0279)" d="M 187.115044 139.667589 
Q 183.960976 141.033795 180.568601 141.720017 
Q 177.176226 142.4 173.559561 142.4 
Q 165.38702 142.4 160.613864 138.332576 
Q 155.840708 134.265152 155.840708 127.309358 
Q 155.840708 120.272464 160.697973 116.236232 
Q 165.562246 112.2 174.022158 112.2 
Q 177.281361 112.2 180.267212 112.748977 
Q 183.260072 113.291717 185.909489 114.364718 
L 185.909489 120.384755 
Q 183.175964 119.006073 180.470474 118.32609 
Q 177.764985 117.639868 175.045477 117.639868 
Q 170.012987 117.639868 167.28647 120.147697 
Q 164.559954 122.649287 164.559954 127.309358 
Q 164.559954 131.925759 167.188344 134.446065 
Q 169.816734 136.960132 174.652971 136.960132 
Q 175.970671 136.960132 177.099126 136.816649 
Q 178.227582 136.666928 179.124739 136.355009 
L 179.124739 130.703037 
L 173.973094 130.703037 
L 173.973094 125.668663 
L 187.115044 125.668663 
z
" style="fill:#ffa600;"/>
   </g>
   <g id="patch_10">
    <path clip-path="url(#p7f5eec0279)" d="M 187.115044 105.705846 
Q 184.499 108.92485 181.670205 110.553068 
Q 178.84141 112.2 175.760467 112.2 
Q 166.572793 112.2 161.206751 99.997728 
Q 155.840708 87.795455 155.840708 66.928073 
Q 155.840708 45.985829 161.206751 33.802272 
Q 166.572793 21.6 175.760467 21.6 
Q 178.84141 21.6 181.670205 23.246932 
Q 184.499 24.87515 187.115044 28.094154 
L 187.115044 46.154266 
Q 184.475361 41.887213 181.914474 39.903408 
Q 179.353588 37.919603 176.524793 37.919603 
Q 171.450297 37.919603 168.542706 45.648957 
Q 165.642994 53.359595 165.642994 66.928073 
Q 165.642994 80.440405 168.542706 88.169758 
Q 171.450297 95.880397 176.524793 95.880397 
Q 179.353588 95.880397 181.914474 93.896592 
Q 184.475361 91.894071 187.115044 87.627019 
z
" style="fill:#0000ff;"/>
   </g>
   <g id="patch_11">
    <path clip-path="url(#p7f5eec0279)" d="M 220.035398 147.758769 
Q 217.419354 152.587275 214.590559 155.029601 
Q 211.761764 157.5 208.680821 157.5 
Q 199.493147 157.5 194.127105 139.196592 
Q 188.761062 120.893183 188.761062 89.592109 
Q 188.761062 58.178744 194.127105 39.903408 
Q 199.493147 21.6 208.680821 21.6 
Q 211.761764 21.6 214.590559 24.070399 
Q 217.419354 26.512725 220.035398 31.341231 
L 220.035398 58.431398 
Q 217.395715 52.03082 214.834828 49.055113 
Q 212.273942 46.079405 209.445147 46.079405 
Q 204.370651 46.079405 201.46306 57.673435 
Q 198.563348 69.239393 198.563348 89.592109 
Q 198.563348 109.860607 201.46306 121.454637 
Q 204.370651 133.020595 209.445147 133.020595 
Q 212.273942 133.020595 214.834828 130.044887 
Q 217.395715 127.041107 220.035398 120.640529 
z
" style="fill:#0000ff;"/>
   </g>
   <g id="patch_12">
    <path clip-path="url(#p7f5eec0279)" d="M 243.345176 154.74925 
L 231.317569 154.74925 
L 229.418473 157.5 
L 221.681416 157.5 
L 232.730701 142.4 
L 241.906467 142.4 
L 252.955752 157.5 
L 245.225089 157.5 
z
M 233.235848 151.946721 
L 241.407715 151.946721 
L 237.328175 145.940377 
z
" style="fill:#008000;"/>
   </g>
   <g id="patch_13">
    <path clip-path="url(#p7f5eec0279)" d="M 252.955752 133.741128 
Q 250.339708 138.033134 247.510913 140.20409 
Q 244.682118 142.4 241.601175 142.4 
Q 232.413501 142.4 227.047459 126.130304 
Q 221.681416 109.860607 221.681416 82.03743 
Q 221.681416 54.114439 227.047459 37.869696 
Q 232.413501 21.6 241.601175 21.6 
Q 244.682118 21.6 247.510913 23.79591 
Q 250.339708 25.966866 252.955752 30.258872 
L 252.955752 54.339021 
Q 250.316069 48.649618 247.755182 46.004545 
Q 245.194296 43.359471 242.365501 43.359471 
Q 237.291005 43.359471 234.383414 53.665276 
Q 231.483702 63.946127 231.483702 82.03743 
Q 231.483702 100.053873 234.383414 110.359678 
Q 237.291005 120.640529 242.365501 120.640529 
Q 245.194296 120.640529 247.755182 117.995455 
Q 250.316069 115.325429 252.955752 109.636026 
z
" style="fill:#0000ff;"/>
   </g>
   <g id="patch_14">
    <path clip-path="url(#p7f5eec0279)" d="M 254.60177 142.4 
L 285.876106 142.4 
L 285.876106 145.344921 
L 274.624618 145.344921 
L 274.624618 157.5 
L 265.875077 157.5 
L 265.875077 145.344921 
L 254.60177 145.344921 
z
" style="fill:#ff0000;"/>
   </g>
   <g id="patch_15">
    <path clip-path="url(#p7f5eec0279)" d="M 285.876106 133.741128 
Q 283.260062 138.033134 280.431267 140.20409 
Q 277.602472 142.4 274.521529 142.4 
Q 265.333855 142.4 259.967812 126.130304 
Q 254.60177 109.860607 254.60177 82.03743 
Q 254.60177 54.114439 259.967812 37.869696 
Q 265.333855 21.6 274.521529 21.6 
Q 277.602472 21.6 280.431267 23.79591 
Q 283.260062 25.966866 285.876106 30.258872 
L 285.876106 54.339021 
Q 283.236423 48.649618 280.675536 46.004545 
Q 278.11465 43.359471 275.285855 43.359471 
Q 270.211359 43.359471 267.303768 53.665276 
Q 264.404056 63.946127 264.404056 82.03743 
Q 264.404056 100.053873 267.303768 110.359678 
Q 270.211359 120.640529 275.285855 120.640529 
Q 278.11465 120.640529 280.675536 117.995455 
Q 283.236423 115.325429 285.876106 109.636026 
z
" style="fill:#0000ff;"/>
   </g>
   <g id="patch_16">
    <path clip-path="url(#p7f5eec0279)" d="M 309.185884 151.9985 
L 297.158277 151.9985 
L 295.259181 157.5 
L 287.522124 157.5 
L 298.571409 127.3 
L 307.747175 127.3 
L 318.79646 157.5 
L 311.065797 157.5 
z
M 299.076556 146.393442 
L 307.248423 146.393442 
L 303.168883 134.380754 
z
" style="fill:#008000;"/>
   </g>
   <g id="patch_17">
    <path clip-path="url(#p7f5eec0279)" d="M 318.79646 119.723487 
Q 316.180416 123.478992 313.351621 125.378579 
Q 310.522826 127.3 307.441883 127.3 
Q 298.254209 127.3 292.888166 113.064016 
Q 287.522124 98.828031 287.522124 74.482751 
Q 287.522124 50.050134 292.888166 35.835984 
Q 298.254209 21.6 307.441883 21.6 
Q 310.522826 21.6 313.351621 23.521421 
Q 316.180416 25.421008 318.79646 29.176513 
L 318.79646 50.246643 
Q 316.156777 45.268416 313.59589 42.953976 
Q 311.035004 40.639537 308.206209 40.639537 
Q 303.131713 40.639537 300.224122 49.657116 
Q 297.32441 58.652861 297.32441 74.482751 
Q 297.32441 90.247139 300.224122 99.264718 
Q 303.131713 108.260463 308.206209 108.260463 
Q 311.035004 108.260463 313.59589 105.946024 
Q 316.156777 103.60975 318.79646 98.631522 
z
" style="fill:#0000ff;"/>
   </g>
   <g id="patch_18">
    <path clip-path="url(#p7f5eec0279)" d="M 351.716814 147.758769 
Q 349.10077 152.587275 346.271975 155.029601 
Q 343.44318 157.5 340.362237 157.5 
Q 331.174563 157.5 325.80852 139.196592 
Q 320.442478 120.893183 320.442478 89.592109 
Q 320.442478 58.178744 325.80852 39.903408 
Q 331.174563 21.6 340.362237 21.6 
Q 343.44318 21.6 346.271975 24.070399 
Q 349.10077 26.512725 351.716814 31.341231 
L 351.716814 58.431398 
Q 349.077131 52.03082 346.516244 49.055113 
Q 343.955358 46.079405 341.126563 46.079405 
Q 336.052067 46.079405 333.144476 57.673435 
Q 330.244764 69.239393 330.244764 89.592109 
Q 330.244764 109.860607 333.144476 121.454637 
Q 336.052067 133.020595 341.126563 133.020595 
Q 343.955358 133.020595 346.516244 130.044887 
Q 349.077131 127.041107 351.716814 120.640529 
z
" style="fill:#0000ff;"/>
   </g>
   <g id="patch_19">
    <path clip-path="url(#p7f5eec0279)" d="M 375.026592 151.9985 
L 362.998985 151.9985 
L 361.099889 157.5 
L 353.362832 157.5 
L 364.412117 127.3 
L 373.587883 127.3 
L 384.637168 157.5 
L 376.906505 157.5 
z
M 364.917264 146.393442 
L 373.089131 146.393442 
L 369.009591 134.380754 
z
" style="fill:#008000;"/>
   </g>
   <g id="patch_20">
    <path clip-path="url(#p7f5eec0279)" d="M 353.362832 82 
L 384.637168 82 
L 384.637168 90.834762 
L 373.38568 90.834762 
L 373.38568 127.3 
L 364.636139 127.3 
L 364.636139 90.834762 
L 353.362832 90.834762 
z
" style="fill:#ff0000;"/>
   </g>
   <g id="patch_21">
    <path clip-path="url(#p7f5eec0279)" d="M 384.637168 77.670564 
Q 382.021124 79.816567 379.192329 80.902045 
Q 376.363534 82 373.282591 82 
Q 364.094917 82 358.728874 73.865152 
Q 353.362832 65.730304 353.362832 51.818715 
Q 353.362832 37.85722 358.728874 29.734848 
Q 364.094917 21.6 373.282591 21.6 
Q 376.363534 21.6 379.192329 22.697955 
Q 382.021124 23.783433 384.637168 25.929436 
L 384.637168 37.96951 
Q 381.997485 35.124809 379.436598 33.802272 
Q 376.875712 32.479736 374.046917 32.479736 
Q 368.972421 32.479736 366.06483 37.632638 
Q 363.165118 42.773063 363.165118 51.818715 
Q 363.165118 60.826937 366.06483 65.979839 
Q 368.972421 71.120264 374.046917 71.120264 
Q 376.875712 71.120264 379.436598 69.797728 
Q 381.997485 68.462714 384.637168 65.618013 
z
" style="fill:#0000ff;"/>
   </g>
   <g id="patch_22">
    <path clip-path="url(#p7f5eec0279)" d="M 407.946946 151.9985 
L 395.919339 151.9985 
L 394.020243 157.5 
L 386.283186 157.5 
L 397.332471 127.3 
L 406.508237 127.3 
L 417.557522 157.5 
L 409.826859 157.5 
z
M 397.837618 146.393442 
L 406.009485 146.393442 
L 401.929945 134.380754 
z
" style="fill:#008000;"/>
   </g>
   <g id="patch_23">
    <path clip-path="url(#p7f5eec0279)" d="M 386.283186 97.1 
L 417.557522 97.1 
L 417.557522 102.989841 
L 406.306034 102.989841 
L 406.306034 127.3 
L 397.556493 127.3 
L 397.556493 102.989841 
L 386.283186 102.989841 
z
" style="fill:#ff0000;"/>
   </g>
   <g id="patch_24">
    <path clip-path="url(#p7f5eec0279)" d="M 417.557522 91.688205 
Q 414.941478 94.370709 412.112683 95.727556 
Q 409.283888 97.1 406.202945 97.1 
Q 397.015271 97.1 391.649228 86.93144 
Q 386.283186 76.76288 386.283186 59.373394 
Q 386.283186 41.921524 391.649228 31.76856 
Q 397.015271 21.6 406.202945 21.6 
Q 409.283888 21.6 412.112683 22.972444 
Q 414.941478 24.329291 417.557522 27.011795 
L 417.557522 42.061888 
Q 414.917839 38.506011 412.356952 36.85284 
Q 409.796066 35.199669 406.967271 35.199669 
Q 401.892775 35.199669 398.985184 41.640797 
Q 396.085472 48.066329 396.085472 59.373394 
Q 396.085472 70.633671 398.985184 77.074799 
Q 401.892775 83.500331 406.967271 83.500331 
Q 409.796066 83.500331 412.356952 81.84716 
Q 414.917839 80.178393 417.557522 76.622516 
z
" style="fill:#0000ff;"/>
   </g>
   <g id="patch_25">
    <path clip-path="url(#p7f5eec0279)" d="M 440.8673 154.74925 
L 428.839693 154.74925 
L 426.940597 157.5 
L 419.20354 157.5 
L 430.252825 142.4 
L 439.428591 142.4 
L 450.477876 157.5 
L 442.747213 157.5 
z
M 430.757972 151.946721 
L 438.929839 151.946721 
L 434.850299 145.940377 
z
" style="fill:#008000;"/>
   </g>
   <g id="patch_26">
    <path clip-path="url(#p7f5eec0279)" d="M 450.477876 141.317641 
Q 447.861832 141.854142 445.033037 142.125511 
Q 442.204242 142.4 439.123298 142.4 
Q 429.935625 142.4 424.569582 140.366288 
Q 419.20354 138.332576 419.20354 134.854679 
Q 419.20354 131.364305 424.569582 129.333712 
Q 429.935625 127.3 439.123298 127.3 
Q 442.204242 127.3 445.033037 127.574489 
Q 447.861832 127.845858 450.477876 128.382359 
L 450.477876 131.392378 
Q 447.838193 130.681202 445.277306 130.350568 
Q 442.71642 130.019934 439.887625 130.019934 
Q 434.813129 130.019934 431.905538 131.308159 
Q 429.005826 132.593266 429.005826 134.854679 
Q 429.005826 137.106734 431.905538 138.39496 
Q 434.813129 139.680066 439.887625 139.680066 
Q 442.71642 139.680066 445.277306 139.349432 
Q 447.838193 139.015679 450.477876 138.304503 
z
" style="fill:#0000ff;"/>
   </g>
   <g id="patch_27">
    <path clip-path="url(#p7f5eec0279)" d="M 419.20354 21.6 
L 450.477876 21.6 
L 450.477876 42.214445 
L 439.226388 42.214445 
L 439.226388 127.3 
L 430.476847 127.3 
L 430.476847 42.214445 
L 419.20354 42.214445 
z
" style="fill:#ff0000;"/>
   </g>
   <g id="patch_28">
    <path clip-path="url(#p7f5eec0279)" d="M 473.787654 154.74925 
L 461.760047 154.74925 
L 459.860951 157.5 
L 452.123894 157.5 
L 463.173179 142.4 
L 472.348945 142.4 
L 483.39823 157.5 
L 475.667567 157.5 
z
M 463.678326 151.946721 
L 471.850193 151.946721 
L 467.770653 145.940377 
z
" style="fill:#008000;"/>
   </g>
   <g id="patch_29">
    <path clip-path="url(#p7f5eec0279)" d="M 483.39823 140.235282 
Q 480.782186 141.308283 477.953391 141.851023 
Q 475.124596 142.4 472.043652 142.4 
Q 462.855979 142.4 457.489936 138.332576 
Q 452.123894 134.265152 452.123894 127.309358 
Q 452.123894 120.32861 457.489936 116.267424 
Q 462.855979 112.2 472.043652 112.2 
Q 475.124596 112.2 477.953391 112.748977 
Q 480.782186 113.291717 483.39823 114.364718 
L 483.39823 120.384755 
Q 480.758547 118.962404 478.19766 118.301136 
Q 475.636773 117.639868 472.807979 117.639868 
Q 467.733483 117.639868 464.825892 120.216319 
Q 461.92618 122.786532 461.92618 127.309358 
Q 461.92618 131.813468 464.825892 134.389919 
Q 467.733483 136.960132 472.807979 136.960132 
Q 475.636773 136.960132 478.19766 136.298864 
Q 480.758547 135.631357 483.39823 134.209006 
z
" style="fill:#0000ff;"/>
   </g>
   <g id="patch_30">
    <path clip-path="url(#p7f5eec0279)" d="M 452.123894 82 
L 483.39823 82 
L 483.39823 87.889841 
L 472.146742 87.889841 
L 472.146742 112.2 
L 463.397201 112.2 
L 463.397201 87.889841 
L 452.123894 87.889841 
z
" style="fill:#ff0000;"/>
   </g>
   <g id="patch_31">
    <path clip-path="url(#p7f5eec0279)" d="M 483.39823 76.535179 
Q 480.244162 79.267589 476.851787 80.640033 
Q 473.459411 82 469.842747 82 
Q 461.670206 82 456.89705 73.865152 
Q 452.123894 65.730304 452.123894 51.818715 
Q 452.123894 37.744929 456.981158 29.672464 
Q 461.845432 21.6 470.305343 21.6 
Q 473.564547 21.6 476.550398 22.697955 
Q 479.543258 23.783433 482.192675 25.929436 
L 482.192675 37.96951 
Q 479.45915 35.212146 476.75366 33.852179 
Q 474.048171 32.479736 471.328663 32.479736 
Q 466.296173 32.479736 463.569656 37.495394 
Q 460.84314 42.498575 460.84314 51.818715 
Q 460.84314 61.051518 463.471529 66.09213 
Q 466.099919 71.120264 470.936157 71.120264 
Q 472.253857 71.120264 473.382312 70.833299 
Q 474.510767 70.533857 475.407925 69.910019 
L 475.407925 58.606073 
L 470.25628 58.606073 
L 470.25628 48.537327 
L 483.39823 48.537327 
z
" style="fill:#ffa600;"/>
   </g>
   <g id="patch_32">
    <path clip-path="url(#p7f5eec0279)" d="M 506.708008 154.74925 
L 494.680401 154.74925 
L 492.781305 157.5 
L 485.044248 157.5 
L 496.093533 142.4 
L 505.269299 142.4 
L 516.318584 157.5 
L 508.587921 157.5 
z
M 496.59868 151.946721 
L 504.770547 151.946721 
L 500.691007 145.940377 
z
" style="fill:#008000;"/>
   </g>
   <g id="patch_33">
    <path clip-path="url(#p7f5eec0279)" d="M 516.318584 141.033795 
Q 513.164516 141.716897 509.772141 142.060008 
Q 506.379765 142.4 502.763101 142.4 
Q 494.59056 142.4 489.817404 140.366288 
Q 485.044248 138.332576 485.044248 134.854679 
Q 485.044248 131.336232 489.901512 129.318116 
Q 494.765786 127.3 503.225697 127.3 
Q 506.484901 127.3 509.470752 127.574489 
Q 512.463612 127.845858 515.113029 128.382359 
L 515.113029 131.392378 
Q 512.379504 130.703037 509.674014 130.363045 
Q 506.968525 130.019934 504.249017 130.019934 
Q 499.216527 130.019934 496.49001 131.273848 
Q 493.763493 132.524644 493.763493 134.854679 
Q 493.763493 137.16288 496.391883 138.423032 
Q 499.020273 139.680066 503.856511 139.680066 
Q 505.174211 139.680066 506.302666 139.608325 
Q 507.431121 139.533464 508.328279 139.377505 
L 508.328279 136.551518 
L 503.176634 136.551518 
L 503.176634 134.034332 
L 516.318584 134.034332 
z
" style="fill:#ffa600;"/>
   </g>
   <g id="patch_34">
    <path clip-path="url(#p7f5eec0279)" d="M 485.044248 82 
L 516.318584 82 
L 516.318584 90.834762 
L 505.067096 90.834762 
L 505.067096 127.3 
L 496.317555 127.3 
L 496.317555 90.834762 
L 485.044248 90.834762 
z
" style="fill:#ff0000;"/>
   </g>
   <g id="patch_35">
    <path clip-path="url(#p7f5eec0279)" d="M 516.318584 77.670564 
Q 513.70254 79.816567 510.873745 80.902045 
Q 508.04495 82 504.964006 82 
Q 495.776333 82 490.41029 73.865152 
Q 485.044248 65.730304 485.044248 51.818715 
Q 485.044248 37.85722 490.41029 29.734848 
Q 495.776333 21.6 504.964006 21.6 
Q 508.04495 21.6 510.873745 22.697955 
Q 513.70254 23.783433 516.318584 25.929436 
L 516.318584 37.96951 
Q 513.678901 35.124809 511.118014 33.802272 
Q 508.557127 32.479736 505.728333 32.479736 
Q 500.653837 32.479736 497.746246 37.632638 
Q 494.846534 42.773063 494.846534 51.818715 
Q 494.846534 60.826937 497.746246 65.979839 
Q 500.653837 71.120264 505.728333 71.120264 
Q 508.557127 71.120264 511.118014 69.797728 
Q 513.678901 68.462714 516.318584 65.618013 
z
" style="fill:#0000ff;"/>
   </g>
   <g id="patch_36">
    <path clip-path="url(#p7f5eec0279)" d="M 549.238938 156.133795 
Q 546.08487 156.816897 542.692495 157.160008 
Q 539.300119 157.5 535.683455 157.5 
Q 527.510914 157.5 522.737758 155.466288 
Q 517.964602 153.432576 517.964602 149.954679 
Q 517.964602 146.436232 522.821866 144.418116 
Q 527.68614 142.4 536.146051 142.4 
Q 539.405255 142.4 542.391106 142.674489 
Q 545.383966 142.945858 548.033383 143.482359 
L 548.033383 146.492378 
Q 545.299858 145.803037 542.594368 145.463045 
Q 539.888879 145.119934 537.169371 145.119934 
Q 532.136881 145.119934 529.410364 146.373848 
Q 526.683847 147.624644 526.683847 149.954679 
Q 526.683847 152.26288 529.312237 153.523032 
Q 531.940627 154.780066 536.776865 154.780066 
Q 538.094565 154.780066 539.22302 154.708325 
Q 540.351475 154.633464 541.248633 154.477505 
L 541.248633 151.651518 
L 536.096988 151.651518 
L 536.096988 149.134332 
L 549.238938 149.134332 
z
" style="fill:#ffa600;"/>
   </g>
   <g id="patch_37">
    <path clip-path="url(#p7f5eec0279)" d="M 517.964602 127.3 
L 549.238938 127.3 
L 549.238938 130.244921 
L 537.98745 130.244921 
L 537.98745 142.4 
L 529.237909 142.4 
L 529.237909 130.244921 
L 517.964602 130.244921 
z
" style="fill:#ff0000;"/>
   </g>
   <g id="patch_38">
    <path clip-path="url(#p7f5eec0279)" d="M 539.628362 119.04775 
L 527.600755 119.04775 
L 525.701659 127.3 
L 517.964602 127.3 
L 529.013887 82 
L 538.189653 82 
L 549.238938 127.3 
L 541.508275 127.3 
z
M 529.519034 110.640163 
L 537.690901 110.640163 
L 533.611361 92.621132 
z
" style="fill:#008000;"/>
   </g>
   <g id="patch_39">
    <path clip-path="url(#p7f5eec0279)" d="M 549.238938 77.670564 
Q 546.622894 79.816567 543.794099 80.902045 
Q 540.965304 82 537.88436 82 
Q 528.696687 82 523.330644 73.865152 
Q 517.964602 65.730304 517.964602 51.818715 
Q 517.964602 37.85722 523.330644 29.734848 
Q 528.696687 21.6 537.88436 21.6 
Q 540.965304 21.6 543.794099 22.697955 
Q 546.622894 23.783433 549.238938 25.929436 
L 549.238938 37.96951 
Q 546.599255 35.124809 544.038368 33.802272 
Q 541.477481 32.479736 538.648687 32.479736 
Q 533.574191 32.479736 530.6666 37.632638 
Q 527.766888 42.773063 527.766888 51.818715 
Q 527.766888 60.826937 530.6666 65.979839 
Q 533.574191 71.120264 538.648687 71.120264 
Q 541.477481 71.120264 544.038368 69.797728 
Q 546.599255 68.462714 549.238938 65.618013 
z
" style="fill:#0000ff;"/>
   </g>
   <g id="patch_40">
    <path clip-path="url(#p7f5eec0279)" d="M 550.884956 127.3 
L 582.159292 127.3 
L 582.159292 133.189841 
L 570.907804 133.189841 
L 570.907804 157.5 
L 562.158263 157.5 
L 562.158263 133.189841 
L 550.884956 133.189841 
z
" style="fill:#ff0000;"/>
   </g>
   <g id="patch_41">
    <path clip-path="url(#p7f5eec0279)" d="M 572.548716 108.044749 
L 560.521109 108.044749 
L 558.622013 127.3 
L 550.884956 127.3 
L 561.934241 21.6 
L 571.110007 21.6 
L 582.159292 127.3 
L 574.428629 127.3 
z
M 562.439387 88.427047 
L 570.611255 88.427047 
L 566.531715 46.38264 
z
" style="fill:#008000;"/>
   </g>
   <g id="patch_42">
    <path clip-path="url(#p7f5eec0279)" d="M 605.46907 154.74925 
L 593.441463 154.74925 
L 591.542367 157.5 
L 583.80531 157.5 
L 594.854595 142.4 
L 604.030361 142.4 
L 615.079646 157.5 
L 607.348983 157.5 
z
M 595.359741 151.946721 
L 603.531609 151.946721 
L 599.452069 145.940377 
z
" style="fill:#008000;"/>
   </g>
   <g id="patch_43">
    <path clip-path="url(#p7f5eec0279)" d="M 615.079646 141.317641 
Q 612.463602 141.854142 609.634807 142.125511 
Q 606.806012 142.4 603.725068 142.4 
Q 594.537395 142.4 589.171352 140.366288 
Q 583.80531 138.332576 583.80531 134.854679 
Q 583.80531 131.364305 589.171352 129.333712 
Q 594.537395 127.3 603.725068 127.3 
Q 606.806012 127.3 609.634807 127.574489 
Q 612.463602 127.845858 615.079646 128.382359 
L 615.079646 131.392378 
Q 612.439963 130.681202 609.879076 130.350568 
Q 607.318189 130.019934 604.489395 130.019934 
Q 599.414899 130.019934 596.507308 131.308159 
Q 593.607596 132.593266 593.607596 134.854679 
Q 593.607596 137.106734 596.507308 138.39496 
Q 599.414899 139.680066 604.489395 139.680066 
Q 607.318189 139.680066 609.879076 139.349432 
Q 612.439963 139.015679 615.079646 138.304503 
z
" style="fill:#0000ff;"/>
   </g>
   <g id="patch_44">
    <path clip-path="url(#p7f5eec0279)" d="M 615.079646 123.201384 
Q 611.925578 125.250692 608.533203 126.280025 
Q 605.140827 127.3 601.524163 127.3 
Q 593.351622 127.3 588.578466 121.198864 
Q 583.80531 115.097728 583.80531 104.664036 
Q 583.80531 94.108697 588.662574 88.054348 
Q 593.526848 82 601.986759 82 
Q 605.245963 82 608.231814 82.823466 
Q 611.224674 83.637575 613.874091 85.247077 
L 613.874091 94.277133 
Q 611.140566 92.20911 608.435076 91.189134 
Q 605.729587 90.159802 603.010079 90.159802 
Q 597.977589 90.159802 595.251072 93.921545 
Q 592.524555 97.673931 592.524555 104.664036 
Q 592.524555 111.588639 595.152945 115.369097 
Q 597.781335 119.140198 602.617573 119.140198 
Q 603.935272 119.140198 605.063728 118.924974 
Q 606.192183 118.700392 607.08934 118.232514 
L 607.08934 109.754555 
L 601.937696 109.754555 
L 601.937696 102.202995 
L 615.079646 102.202995 
z
" style="fill:#ffa600;"/>
   </g>
   <g id="patch_45">
    <path clip-path="url(#p7f5eec0279)" d="M 583.80531 21.6 
L 615.079646 21.6 
L 615.079646 33.379683 
L 603.828158 33.379683 
L 603.828158 82 
L 595.078617 82 
L 595.078617 33.379683 
L 583.80531 33.379683 
z
" style="fill:#ff0000;"/>
   </g>
   <g id="patch_46">
    <path clip-path="url(#p7f5eec0279)" d="M 648 152.035179 
Q 644.845932 154.767589 641.453557 156.140033 
Q 638.061181 157.5 634.444517 157.5 
Q 626.271976 157.5 621.49882 149.365152 
Q 616.725664 141.230304 616.725664 127.318715 
Q 616.725664 113.244929 621.582928 105.172464 
Q 626.447202 97.1 634.907113 97.1 
Q 638.166317 97.1 641.152168 98.197955 
Q 644.145028 99.283433 646.794445 101.429436 
L 646.794445 113.46951 
Q 644.06092 110.712146 641.35543 109.352179 
Q 638.649941 107.979736 635.930433 107.979736 
Q 630.897943 107.979736 628.171426 112.995394 
Q 625.444909 117.998575 625.444909 127.318715 
Q 625.444909 136.551518 628.073299 141.59213 
Q 630.701689 146.620264 635.537927 146.620264 
Q 636.855626 146.620264 637.984082 146.333299 
Q 639.112537 146.033857 640.009694 145.410019 
L 640.009694 134.106073 
L 634.85805 134.106073 
L 634.85805 124.037327 
L 648 124.037327 
z
" style="fill:#ffa600;"/>
   </g>
   <g id="patch_47">
    <path clip-path="url(#p7f5eec0279)" d="M 638.389424 83.346249 
L 626.361817 83.346249 
L 624.462721 97.1 
L 616.725664 97.1 
L 627.774949 21.6 
L 636.950715 21.6 
L 648 97.1 
L 640.269337 97.1 
z
M 628.280095 69.333605 
L 636.451963 69.333605 
L 632.372423 39.301886 
z
" style="fill:#008000;"/>
   </g>
  </g>
 </g>
 <defs>
  <clipPath id="p7f5eec0279">
   <rect height="135.9" width="558" x="90" y="21.6"/>
  </clipPath>
 </defs>
</svg>
