<?xml version="1.0" encoding="utf-8" standalone="no"?>
<!DOCTYPE svg PUBLIC "-//W3C//DTD SVG 1.1//EN"
  "http://www.w3.org/Graphics/SVG/1.1/DTD/svg11.dtd">
<!-- Created with matplotlib (https://matplotlib.org/) -->
<svg height="180pt" version="1.1" viewBox="0 0 720 180" width="720pt" xmlns="http://www.w3.org/2000/svg" xmlns:xlink="http://www.w3.org/1999/xlink">
 <metadata>
  <rdf:RDF xmlns:cc="http://creativecommons.org/ns#" xmlns:dc="http://purl.org/dc/elements/1.1/" xmlns:rdf="http://www.w3.org/1999/02/22-rdf-syntax-ns#">
   <cc:Work>
    <dc:type rdf:resource="http://purl.org/dc/dcmitype/StillImage"/>
    <dc:date>2021-08-04T23:33:25.344049</dc:date>
    <dc:format>image/svg+xml</dc:format>
    <dc:creator>
     <cc:Agent>
      <dc:title>Matplotlib v3.3.2, https://matplotlib.org/</dc:title>
     </cc:Agent>
    </dc:creator>
   </cc:Work>
  </rdf:RDF>
 </metadata>
 <defs>
  <style type="text/css">*{stroke-linecap:butt;stroke-linejoin:round;}</style>
 </defs>
 <g id="figure_1">
  <g id="patch_1">
   <path d="M 0 180 
L 720 180 
L 720 0 
L 0 0 
z
" style="fill:none;"/>
  </g>
  <g id="axes_1">
   <g id="line2d_1">
    <path clip-path="url(#p1dc1cff012)" d="M 90 157.5 
L 648 157.5 
" style="fill:none;stroke:#000000;stroke-linecap:square;stroke-width:0.5;"/>
   </g>
   <g id="patch_2">
    <path clip-path="url(#p1dc1cff012)" d="M 90 142.4 
L 121.274336 142.4 
L 121.274336 145.344921 
L 110.022848 145.344921 
L 110.022848 157.5 
L 101.273307 157.5 
L 101.273307 145.344921 
L 90 145.344921 
z
" style="fill:#ff0000;"/>
   </g>
   <g id="patch_3">
    <path clip-path="url(#p1dc1cff012)" d="M 111.66376 131.397 
L 99.636153 131.397 
L 97.737057 142.4 
L 90 142.4 
L 101.049285 82 
L 110.225051 82 
L 121.274336 142.4 
L 113.543673 142.4 
z
M 101.554432 120.186884 
L 109.726299 120.186884 
L 105.64676 96.161509 
z
" style="fill:#008000;"/>
   </g>
   <g id="patch_4">
    <path clip-path="url(#p1dc1cff012)" d="M 121.274336 77.670564 
Q 118.658292 79.816567 115.829497 80.902045 
Q 113.000702 82 109.919759 82 
Q 100.732085 82 95.366043 73.865152 
Q 90 65.730304 90 51.818715 
Q 90 37.85722 95.366043 29.734848 
Q 100.732085 21.6 109.919759 21.6 
Q 113.000702 21.6 115.829497 22.697955 
Q 118.658292 23.783433 121.274336 25.929436 
L 121.274336 37.96951 
Q 118.634653 35.124809 116.073766 33.802272 
Q 113.51288 32.479736 110.684085 32.479736 
Q 105.609589 32.479736 102.701998 37.632638 
Q 99.802286 42.773063 99.802286 51.818715 
Q 99.802286 60.826937 102.701998 65.979839 
Q 105.609589 71.120264 110.684085 71.120264 
Q 113.51288 71.120264 116.073766 69.797728 
Q 118.634653 68.462714 121.274336 65.618013 
z
" style="fill:#0000ff;"/>
   </g>
   <g id="patch_5">
    <path clip-path="url(#p1dc1cff012)" d="M 144.584114 154.74925 
L 132.556507 154.74925 
L 130.657411 157.5 
L 122.920354 157.5 
L 133.969639 142.4 
L 143.145405 142.4 
L 154.19469 157.5 
L 146.464027 157.5 
z
M 134.474786 151.946721 
L 142.646653 151.946721 
L 138.567114 145.940377 
z
" style="fill:#008000;"/>
   </g>
   <g id="patch_6">
    <path clip-path="url(#p1dc1cff012)" d="M 122.920354 127.3 
L 154.19469 127.3 
L 154.19469 130.244921 
L 142.943202 130.244921 
L 142.943202 142.4 
L 134.193661 142.4 
L 134.193661 130.244921 
L 122.920354 130.244921 
z
" style="fill:#ff0000;"/>
   </g>
   <g id="patch_7">
    <path clip-path="url(#p1dc1cff012)" d="M 154.19469 125.135282 
Q 151.578646 126.208283 148.749851 126.751023 
Q 145.921056 127.3 142.840113 127.3 
Q 133.652439 127.3 128.286397 123.232576 
Q 122.920354 119.165152 122.920354 112.209358 
Q 122.920354 105.22861 128.286397 101.167424 
Q 133.652439 97.1 142.840113 97.1 
Q 145.921056 97.1 148.749851 97.648977 
Q 151.578646 98.191717 154.19469 99.264718 
L 154.19469 105.284755 
Q 151.555007 103.862404 148.99412 103.201136 
Q 146.433234 102.539868 143.604439 102.539868 
Q 138.529943 102.539868 135.622352 105.116319 
Q 132.72264 107.686532 132.72264 112.209358 
Q 132.72264 116.713468 135.622352 119.289919 
Q 138.529943 121.860132 143.604439 121.860132 
Q 146.433234 121.860132 148.99412 121.198864 
Q 151.555007 120.531357 154.19469 119.109006 
z
" style="fill:#0000ff;"/>
   </g>
   <g id="patch_8">
    <path clip-path="url(#p1dc1cff012)" d="M 154.19469 90.268973 
Q 151.040622 93.684487 147.648247 95.400041 
Q 144.255872 97.1 140.639207 97.1 
Q 132.466666 97.1 127.69351 86.93144 
Q 122.920354 76.76288 122.920354 59.373394 
Q 122.920354 41.781161 127.777619 31.69058 
Q 132.641892 21.6 141.101804 21.6 
Q 144.361007 21.6 147.346858 22.972444 
Q 150.339718 24.329291 152.989135 27.011795 
L 152.989135 42.061888 
Q 150.25561 38.615183 147.55012 36.915224 
Q 144.844631 35.199669 142.125123 35.199669 
Q 137.092633 35.199669 134.366116 41.469242 
Q 131.6396 47.723218 131.6396 59.373394 
Q 131.6396 70.914398 134.26799 77.215162 
Q 136.89638 83.500331 141.732617 83.500331 
Q 143.050317 83.500331 144.178772 83.141624 
Q 145.307228 82.767321 146.204385 81.987523 
L 146.204385 67.857591 
L 141.05274 67.857591 
L 141.05274 55.271659 
L 154.19469 55.271659 
z
" style="fill:#ffa600;"/>
   </g>
   <g id="patch_9">
    <path clip-path="url(#p1dc1cff012)" d="M 187.115044 156.417641 
Q 184.499 156.954142 181.670205 157.225511 
Q 178.84141 157.5 175.760467 157.5 
Q 166.572793 157.5 161.206751 155.466288 
Q 155.840708 153.432576 155.840708 149.954679 
Q 155.840708 146.464305 161.206751 144.433712 
Q 166.572793 142.4 175.760467 142.4 
Q 178.84141 142.4 181.670205 142.674489 
Q 184.499 142.945858 187.115044 143.482359 
L 187.115044 146.492378 
Q 184.475361 145.781202 181.914474 145.450568 
Q 179.353588 145.119934 176.524793 145.119934 
Q 171.450297 145.119934 168.542706 146.408159 
Q 165.642994 147.693266 165.642994 149.954679 
Q 165.642994 152.206734 168.542706 153.49496 
Q 171.450297 154.780066 176.524793 154.780066 
Q 179.353588 154.780066 181.914474 154.449432 
Q 184.475361 154.115679 187.115044 153.404503 
z
" style="fill:#0000ff;"/>
   </g>
   <g id="patch_10">
    <path clip-path="url(#p1dc1cff012)" d="M 187.115044 138.301384 
Q 183.960976 140.350692 180.568601 141.380025 
Q 177.176226 142.4 173.559561 142.4 
Q 165.38702 142.4 160.613864 136.298864 
Q 155.840708 130.197728 155.840708 119.764036 
Q 155.840708 109.208697 160.697973 103.154348 
Q 165.562246 97.1 174.022158 97.1 
Q 177.281361 97.1 180.267212 97.923466 
Q 183.260072 98.737575 185.909489 100.347077 
L 185.909489 109.377133 
Q 183.175964 107.30911 180.470474 106.289134 
Q 177.764985 105.259802 175.045477 105.259802 
Q 170.012987 105.259802 167.28647 109.021545 
Q 164.559954 112.773931 164.559954 119.764036 
Q 164.559954 126.688639 167.188344 130.469097 
Q 169.816734 134.240198 174.652971 134.240198 
Q 175.970671 134.240198 177.099126 134.024974 
Q 178.227582 133.800392 179.124739 133.332514 
L 179.124739 124.854555 
L 173.973094 124.854555 
L 173.973094 117.302995 
L 187.115044 117.302995 
z
" style="fill:#ffa600;"/>
   </g>
   <g id="patch_11">
    <path clip-path="url(#p1dc1cff012)" d="M 177.504468 83.346249 
L 165.476861 83.346249 
L 163.577765 97.1 
L 155.840708 97.1 
L 166.889993 21.6 
L 176.065759 21.6 
L 187.115044 97.1 
L 179.384381 97.1 
z
M 167.39514 69.333605 
L 175.567007 69.333605 
L 171.487467 39.301886 
z
" style="fill:#008000;"/>
   </g>
   <g id="patch_12">
    <path clip-path="url(#p1dc1cff012)" d="M 188.761062 127.3 
L 220.035398 127.3 
L 220.035398 133.189841 
L 208.78391 133.189841 
L 208.78391 157.5 
L 200.034369 157.5 
L 200.034369 133.189841 
L 188.761062 133.189841 
z
" style="fill:#ff0000;"/>
   </g>
   <g id="patch_13">
    <path clip-path="url(#p1dc1cff012)" d="M 220.035398 123.201384 
Q 216.88133 125.250692 213.488955 126.280025 
Q 210.09658 127.3 206.479915 127.3 
Q 198.307374 127.3 193.534218 121.198864 
Q 188.761062 115.097728 188.761062 104.664036 
Q 188.761062 94.108697 193.618327 88.054348 
Q 198.4826 82 206.942512 82 
Q 210.201715 82 213.187566 82.823466 
Q 216.180426 83.637575 218.829843 85.247077 
L 218.829843 94.277133 
Q 216.096318 92.20911 213.390828 91.189134 
Q 210.685339 90.159802 207.965831 90.159802 
Q 202.933341 90.159802 200.206824 93.921545 
Q 197.480308 97.673931 197.480308 104.664036 
Q 197.480308 111.588639 200.108698 115.369097 
Q 202.737088 119.140198 207.573325 119.140198 
Q 208.891025 119.140198 210.01948 118.924974 
Q 211.147936 118.700392 212.045093 118.232514 
L 212.045093 109.754555 
L 206.893448 109.754555 
L 206.893448 102.202995 
L 220.035398 102.202995 
z
" style="fill:#ffa600;"/>
   </g>
   <g id="patch_14">
    <path clip-path="url(#p1dc1cff012)" d="M 210.424822 70.997 
L 198.397215 70.997 
L 196.498119 82 
L 188.761062 82 
L 199.810347 21.6 
L 208.986113 21.6 
L 220.035398 82 
L 212.304735 82 
z
M 200.315494 59.786884 
L 208.487361 59.786884 
L 204.407821 35.761509 
z
" style="fill:#008000;"/>
   </g>
   <g id="patch_15">
    <path clip-path="url(#p1dc1cff012)" d="M 243.345176 154.74925 
L 231.317569 154.74925 
L 229.418473 157.5 
L 221.681416 157.5 
L 232.730701 142.4 
L 241.906467 142.4 
L 252.955752 157.5 
L 245.225089 157.5 
z
M 233.235848 151.946721 
L 241.407715 151.946721 
L 237.328175 145.940377 
z
" style="fill:#008000;"/>
   </g>
   <g id="patch_16">
    <path clip-path="url(#p1dc1cff012)" d="M 252.955752 139.667589 
Q 249.801684 141.033795 246.409309 141.720017 
Q 243.016934 142.4 239.400269 142.4 
Q 231.227728 142.4 226.454572 138.332576 
Q 221.681416 134.265152 221.681416 127.309358 
Q 221.681416 120.272464 226.538681 116.236232 
Q 231.402954 112.2 239.862866 112.2 
Q 243.122069 112.2 246.10792 112.748977 
Q 249.10078 113.291717 251.750197 114.364718 
L 251.750197 120.384755 
Q 249.016672 119.006073 246.311182 118.32609 
Q 243.605693 117.639868 240.886185 117.639868 
Q 235.853695 117.639868 233.127178 120.147697 
Q 230.400662 122.649287 230.400662 127.309358 
Q 230.400662 131.925759 233.029052 134.446065 
Q 235.657442 136.960132 240.493679 136.960132 
Q 241.811379 136.960132 242.939834 136.816649 
Q 244.06829 136.666928 244.965447 136.355009 
L 244.965447 130.703037 
L 239.813802 130.703037 
L 239.813802 125.668663 
L 252.955752 125.668663 
z
" style="fill:#ffa600;"/>
   </g>
   <g id="patch_17">
    <path clip-path="url(#p1dc1cff012)" d="M 221.681416 82 
L 252.955752 82 
L 252.955752 87.889841 
L 241.704264 87.889841 
L 241.704264 112.2 
L 232.954723 112.2 
L 232.954723 87.889841 
L 221.681416 87.889841 
z
" style="fill:#ff0000;"/>
   </g>
   <g id="patch_18">
    <path clip-path="url(#p1dc1cff012)" d="M 252.955752 77.670564 
Q 250.339708 79.816567 247.510913 80.902045 
Q 244.682118 82 241.601175 82 
Q 232.413501 82 227.047459 73.865152 
Q 221.681416 65.730304 221.681416 51.818715 
Q 221.681416 37.85722 227.047459 29.734848 
Q 232.413501 21.6 241.601175 21.6 
Q 244.682118 21.6 247.510913 22.697955 
Q 250.339708 23.783433 252.955752 25.929436 
L 252.955752 37.96951 
Q 250.316069 35.124809 247.755182 33.802272 
Q 245.194296 32.479736 242.365501 32.479736 
Q 237.291005 32.479736 234.383414 37.632638 
Q 231.483702 42.773063 231.483702 51.818715 
Q 231.483702 60.826937 234.383414 65.979839 
Q 237.291005 71.120264 242.365501 71.120264 
Q 245.194296 71.120264 247.755182 69.797728 
Q 250.316069 68.462714 252.955752 65.618013 
z
" style="fill:#0000ff;"/>
   </g>
   <g id="patch_19">
    <path clip-path="url(#p1dc1cff012)" d="M 285.876106 152.035179 
Q 282.722038 154.767589 279.329663 156.140033 
Q 275.937288 157.5 272.320623 157.5 
Q 264.148082 157.5 259.374926 149.365152 
Q 254.60177 141.230304 254.60177 127.318715 
Q 254.60177 113.244929 259.459035 105.172464 
Q 264.323308 97.1 272.78322 97.1 
Q 276.042423 97.1 279.028274 98.197955 
Q 282.021134 99.283433 284.670551 101.429436 
L 284.670551 113.46951 
Q 281.937026 110.712146 279.231536 109.352179 
Q 276.526047 107.979736 273.806539 107.979736 
Q 268.774049 107.979736 266.047532 112.995394 
Q 263.321016 117.998575 263.321016 127.318715 
Q 263.321016 136.551518 265.949406 141.59213 
Q 268.577796 146.620264 273.414033 146.620264 
Q 274.731733 146.620264 275.860188 146.333299 
Q 276.988644 146.033857 277.885801 145.410019 
L 277.885801 134.106073 
L 272.734156 134.106073 
L 272.734156 124.037327 
L 285.876106 124.037327 
z
" style="fill:#ffa600;"/>
   </g>
   <g id="patch_20">
    <path clip-path="url(#p1dc1cff012)" d="M 276.26553 83.346249 
L 264.237923 83.346249 
L 262.338827 97.1 
L 254.60177 97.1 
L 265.651055 21.6 
L 274.826821 21.6 
L 285.876106 97.1 
L 278.145443 97.1 
z
M 266.156202 69.333605 
L 274.328069 69.333605 
L 270.248529 39.301886 
z
" style="fill:#008000;"/>
   </g>
   <g id="patch_21">
    <path clip-path="url(#p1dc1cff012)" d="M 318.79646 156.133795 
Q 315.642392 156.816897 312.250017 157.160008 
Q 308.857642 157.5 305.240977 157.5 
Q 297.068436 157.5 292.29528 155.466288 
Q 287.522124 153.432576 287.522124 149.954679 
Q 287.522124 146.436232 292.379389 144.418116 
Q 297.243662 142.4 305.703574 142.4 
Q 308.962777 142.4 311.948628 142.674489 
Q 314.941488 142.945858 317.590905 143.482359 
L 317.590905 146.492378 
Q 314.85738 145.803037 312.15189 145.463045 
Q 309.446401 145.119934 306.726893 145.119934 
Q 301.694403 145.119934 298.967886 146.373848 
Q 296.24137 147.624644 296.24137 149.954679 
Q 296.24137 152.26288 298.86976 153.523032 
Q 301.49815 154.780066 306.334387 154.780066 
Q 307.652087 154.780066 308.780542 154.708325 
Q 309.908998 154.633464 310.806155 154.477505 
L 310.806155 151.651518 
L 305.65451 151.651518 
L 305.65451 149.134332 
L 318.79646 149.134332 
z
" style="fill:#ffa600;"/>
   </g>
   <g id="patch_22">
    <path clip-path="url(#p1dc1cff012)" d="M 309.185884 136.8985 
L 297.158277 136.8985 
L 295.259181 142.4 
L 287.522124 142.4 
L 298.571409 112.2 
L 307.747175 112.2 
L 318.79646 142.4 
L 311.065797 142.4 
z
M 299.076556 131.293442 
L 307.248423 131.293442 
L 303.168883 119.280754 
z
" style="fill:#008000;"/>
   </g>
   <g id="patch_23">
    <path clip-path="url(#p1dc1cff012)" d="M 318.79646 105.705846 
Q 316.180416 108.92485 313.351621 110.553068 
Q 310.522826 112.2 307.441883 112.2 
Q 298.254209 112.2 292.888166 99.997728 
Q 287.522124 87.795455 287.522124 66.928073 
Q 287.522124 45.985829 292.888166 33.802272 
Q 298.254209 21.6 307.441883 21.6 
Q 310.522826 21.6 313.351621 23.246932 
Q 316.180416 24.87515 318.79646 28.094154 
L 318.79646 46.154266 
Q 316.156777 41.887213 313.59589 39.903408 
Q 311.035004 37.919603 308.206209 37.919603 
Q 303.131713 37.919603 300.224122 45.648957 
Q 297.32441 53.359595 297.32441 66.928073 
Q 297.32441 80.440405 300.224122 88.169758 
Q 303.131713 95.880397 308.206209 95.880397 
Q 311.035004 95.880397 313.59589 93.896592 
Q 316.156777 91.894071 318.79646 87.627019 
z
" style="fill:#0000ff;"/>
   </g>
   <g id="patch_24">
    <path clip-path="url(#p1dc1cff012)" d="M 342.106238 154.74925 
L 330.078631 154.74925 
L 328.179535 157.5 
L 320.442478 157.5 
L 331.491763 142.4 
L 340.667529 142.4 
L 351.716814 157.5 
L 343.986151 157.5 
z
M 331.99691 151.946721 
L 340.168777 151.946721 
L 336.089237 145.940377 
z
" style="fill:#008000;"/>
   </g>
   <g id="patch_25">
    <path clip-path="url(#p1dc1cff012)" d="M 351.716814 133.741128 
Q 349.10077 138.033134 346.271975 140.20409 
Q 343.44318 142.4 340.362237 142.4 
Q 331.174563 142.4 325.80852 126.130304 
Q 320.442478 109.860607 320.442478 82.03743 
Q 320.442478 54.114439 325.80852 37.869696 
Q 331.174563 21.6 340.362237 21.6 
Q 343.44318 21.6 346.271975 23.79591 
Q 349.10077 25.966866 351.716814 30.258872 
L 351.716814 54.339021 
Q 349.077131 48.649618 346.516244 46.004545 
Q 343.955358 43.359471 341.126563 43.359471 
Q 336.052067 43.359471 333.144476 53.665276 
Q 330.244764 63.946127 330.244764 82.03743 
Q 330.244764 100.053873 333.144476 110.359678 
Q 336.052067 120.640529 341.126563 120.640529 
Q 343.955358 120.640529 346.516244 117.995455 
Q 349.077131 115.325429 351.716814 109.636026 
z
" style="fill:#0000ff;"/>
   </g>
   <g id="patch_26">
    <path clip-path="url(#p1dc1cff012)" d="M 384.637168 156.417641 
Q 382.021124 156.954142 379.192329 157.225511 
Q 376.363534 157.5 373.282591 157.5 
Q 364.094917 157.5 358.728874 155.466288 
Q 353.362832 153.432576 353.362832 149.954679 
Q 353.362832 146.464305 358.728874 144.433712 
Q 364.094917 142.4 373.282591 142.4 
Q 376.363534 142.4 379.192329 142.674489 
Q 382.021124 142.945858 384.637168 143.482359 
L 384.637168 146.492378 
Q 381.997485 145.781202 379.436598 145.450568 
Q 376.875712 145.119934 374.046917 145.119934 
Q 368.972421 145.119934 366.06483 146.408159 
Q 363.165118 147.693266 363.165118 149.954679 
Q 363.165118 152.206734 366.06483 153.49496 
Q 368.972421 154.780066 374.046917 154.780066 
Q 376.875712 154.780066 379.436598 154.449432 
Q 381.997485 154.115679 384.637168 153.404503 
z
" style="fill:#0000ff;"/>
   </g>
   <g id="patch_27">
    <path clip-path="url(#p1dc1cff012)" d="M 375.026592 120.393999 
L 362.998985 120.393999 
L 361.099889 142.4 
L 353.362832 142.4 
L 364.412117 21.6 
L 373.587883 21.6 
L 384.637168 142.4 
L 376.906505 142.4 
z
M 364.917264 97.973768 
L 373.089131 97.973768 
L 369.009591 49.923018 
z
" style="fill:#008000;"/>
   </g>
   <g id="patch_28">
    <path clip-path="url(#p1dc1cff012)" d="M 417.557522 156.417641 
Q 414.941478 156.954142 412.112683 157.225511 
Q 409.283888 157.5 406.202945 157.5 
Q 397.015271 157.5 391.649228 155.466288 
Q 386.283186 153.432576 386.283186 149.954679 
Q 386.283186 146.464305 391.649228 144.433712 
Q 397.015271 142.4 406.202945 142.4 
Q 409.283888 142.4 412.112683 142.674489 
Q 414.941478 142.945858 417.557522 143.482359 
L 417.557522 146.492378 
Q 414.917839 145.781202 412.356952 145.450568 
Q 409.796066 145.119934 406.967271 145.119934 
Q 401.892775 145.119934 398.985184 146.408159 
Q 396.085472 147.693266 396.085472 149.954679 
Q 396.085472 152.206734 398.985184 153.49496 
Q 401.892775 154.780066 406.967271 154.780066 
Q 409.796066 154.780066 412.356952 154.449432 
Q 414.917839 154.115679 417.557522 153.404503 
z
" style="fill:#0000ff;"/>
   </g>
   <g id="patch_29">
    <path clip-path="url(#p1dc1cff012)" d="M 386.283186 21.6 
L 417.557522 21.6 
L 417.557522 45.159366 
L 406.306034 45.159366 
L 406.306034 142.4 
L 397.556493 142.4 
L 397.556493 45.159366 
L 386.283186 45.159366 
z
" style="fill:#ff0000;"/>
   </g>
   <g id="patch_30">
    <path clip-path="url(#p1dc1cff012)" d="M 450.477876 156.417641 
Q 447.861832 156.954142 445.033037 157.225511 
Q 442.204242 157.5 439.123298 157.5 
Q 429.935625 157.5 424.569582 155.466288 
Q 419.20354 153.432576 419.20354 149.954679 
Q 419.20354 146.464305 424.569582 144.433712 
Q 429.935625 142.4 439.123298 142.4 
Q 442.204242 142.4 445.033037 142.674489 
Q 447.861832 142.945858 450.477876 143.482359 
L 450.477876 146.492378 
Q 447.838193 145.781202 445.277306 145.450568 
Q 442.71642 145.119934 439.887625 145.119934 
Q 434.813129 145.119934 431.905538 146.408159 
Q 429.005826 147.693266 429.005826 149.954679 
Q 429.005826 152.206734 431.905538 153.49496 
Q 434.813129 154.780066 439.887625 154.780066 
Q 442.71642 154.780066 445.277306 154.449432 
Q 447.838193 154.115679 450.477876 153.404503 
z
" style="fill:#0000ff;"/>
   </g>
   <g id="patch_31">
    <path clip-path="url(#p1dc1cff012)" d="M 450.477876 131.470357 
Q 447.323808 136.935179 443.931433 139.680066 
Q 440.539057 142.4 436.922393 142.4 
Q 428.749852 142.4 423.976696 126.130304 
Q 419.20354 109.860607 419.20354 82.03743 
Q 419.20354 53.889857 424.060805 37.744929 
Q 428.925078 21.6 437.384989 21.6 
Q 440.644193 21.6 443.630044 23.79591 
Q 446.622904 25.966866 449.272321 30.258872 
L 449.272321 54.339021 
Q 446.538796 48.824293 443.833306 46.104359 
Q 441.127817 43.359471 438.408309 43.359471 
Q 433.375819 43.359471 430.649302 53.390787 
Q 427.922786 63.397149 427.922786 82.03743 
Q 427.922786 100.503037 430.551176 110.584259 
Q 433.179565 120.640529 438.015803 120.640529 
Q 439.333503 120.640529 440.461958 120.066598 
Q 441.590413 119.467713 442.487571 118.220037 
L 442.487571 95.612146 
L 437.335926 95.612146 
L 437.335926 75.474654 
L 450.477876 75.474654 
z
" style="fill:#ffa600;"/>
   </g>
   <g id="patch_32">
    <path clip-path="url(#p1dc1cff012)" d="M 473.787654 151.9985 
L 461.760047 151.9985 
L 459.860951 157.5 
L 452.123894 157.5 
L 463.173179 127.3 
L 472.348945 127.3 
L 483.39823 157.5 
L 475.667567 157.5 
z
M 463.678326 146.393442 
L 471.850193 146.393442 
L 467.770653 134.380754 
z
" style="fill:#008000;"/>
   </g>
   <g id="patch_33">
    <path clip-path="url(#p1dc1cff012)" d="M 483.39823 117.736563 
Q 480.244162 122.518281 476.851787 124.920058 
Q 473.459411 127.3 469.842747 127.3 
Q 461.670206 127.3 456.89705 113.064016 
Q 452.123894 98.828031 452.123894 74.482751 
Q 452.123894 49.853625 456.981158 35.726813 
Q 461.845432 21.6 470.305343 21.6 
Q 473.564547 21.6 476.550398 23.521421 
Q 479.543258 25.421008 482.192675 29.176513 
L 482.192675 50.246643 
Q 479.45915 45.421256 476.75366 43.041314 
Q 474.048171 40.639537 471.328663 40.639537 
Q 466.296173 40.639537 463.569656 49.416939 
Q 460.84314 58.172506 460.84314 74.482751 
Q 460.84314 90.640157 463.471529 99.461227 
Q 466.099919 108.260463 470.936157 108.260463 
Q 472.253857 108.260463 473.382312 107.758273 
Q 474.510767 107.234249 475.407925 106.142533 
L 475.407925 86.360628 
L 470.25628 86.360628 
L 470.25628 68.740322 
L 483.39823 68.740322 
z
" style="fill:#ffa600;"/>
   </g>
   <g id="patch_34">
    <path clip-path="url(#p1dc1cff012)" d="M 506.708008 154.74925 
L 494.680401 154.74925 
L 492.781305 157.5 
L 485.044248 157.5 
L 496.093533 142.4 
L 505.269299 142.4 
L 516.318584 157.5 
L 508.587921 157.5 
z
M 496.59868 151.946721 
L 504.770547 151.946721 
L 500.691007 145.940377 
z
" style="fill:#008000;"/>
   </g>
   <g id="patch_35">
    <path clip-path="url(#p1dc1cff012)" d="M 516.318584 141.033795 
Q 513.164516 141.716897 509.772141 142.060008 
Q 506.379765 142.4 502.763101 142.4 
Q 494.59056 142.4 489.817404 140.366288 
Q 485.044248 138.332576 485.044248 134.854679 
Q 485.044248 131.336232 489.901512 129.318116 
Q 494.765786 127.3 503.225697 127.3 
Q 506.484901 127.3 509.470752 127.574489 
Q 512.463612 127.845858 515.113029 128.382359 
L 515.113029 131.392378 
Q 512.379504 130.703037 509.674014 130.363045 
Q 506.968525 130.019934 504.249017 130.019934 
Q 499.216527 130.019934 496.49001 131.273848 
Q 493.763493 132.524644 493.763493 134.854679 
Q 493.763493 137.16288 496.391883 138.423032 
Q 499.020273 139.680066 503.856511 139.680066 
Q 505.174211 139.680066 506.302666 139.608325 
Q 507.431121 139.533464 508.328279 139.377505 
L 508.328279 136.551518 
L 503.176634 136.551518 
L 503.176634 134.034332 
L 516.318584 134.034332 
z
" style="fill:#ffa600;"/>
   </g>
   <g id="patch_36">
    <path clip-path="url(#p1dc1cff012)" d="M 485.044248 97.1 
L 516.318584 97.1 
L 516.318584 102.989841 
L 505.067096 102.989841 
L 505.067096 127.3 
L 496.317555 127.3 
L 496.317555 102.989841 
L 485.044248 102.989841 
z
" style="fill:#ff0000;"/>
   </g>
   <g id="patch_37">
    <path clip-path="url(#p1dc1cff012)" d="M 516.318584 91.688205 
Q 513.70254 94.370709 510.873745 95.727556 
Q 508.04495 97.1 504.964006 97.1 
Q 495.776333 97.1 490.41029 86.93144 
Q 485.044248 76.76288 485.044248 59.373394 
Q 485.044248 41.921524 490.41029 31.76856 
Q 495.776333 21.6 504.964006 21.6 
Q 508.04495 21.6 510.873745 22.972444 
Q 513.70254 24.329291 516.318584 27.011795 
L 516.318584 42.061888 
Q 513.678901 38.506011 511.118014 36.85284 
Q 508.557127 35.199669 505.728333 35.199669 
Q 500.653837 35.199669 497.746246 41.640797 
Q 494.846534 48.066329 494.846534 59.373394 
Q 494.846534 70.633671 497.746246 77.074799 
Q 500.653837 83.500331 505.728333 83.500331 
Q 508.557127 83.500331 511.118014 81.84716 
Q 513.678901 80.178393 516.318584 76.622516 
z
" style="fill:#0000ff;"/>
   </g>
   <g id="patch_38">
    <path clip-path="url(#p1dc1cff012)" d="M 517.964602 97.1 
L 549.238938 97.1 
L 549.238938 108.879683 
L 537.98745 108.879683 
L 537.98745 157.5 
L 529.237909 157.5 
L 529.237909 108.879683 
L 517.964602 108.879683 
z
" style="fill:#ff0000;"/>
   </g>
   <g id="patch_39">
    <path clip-path="url(#p1dc1cff012)" d="M 549.238938 90.268973 
Q 546.08487 93.684487 542.692495 95.400041 
Q 539.300119 97.1 535.683455 97.1 
Q 527.510914 97.1 522.737758 86.93144 
Q 517.964602 76.76288 517.964602 59.373394 
Q 517.964602 41.781161 522.821866 31.69058 
Q 527.68614 21.6 536.146051 21.6 
Q 539.405255 21.6 542.391106 22.972444 
Q 545.383966 24.329291 548.033383 27.011795 
L 548.033383 42.061888 
Q 545.299858 38.615183 542.594368 36.915224 
Q 539.888879 35.199669 537.169371 35.199669 
Q 532.136881 35.199669 529.410364 41.469242 
Q 526.683847 47.723218 526.683847 59.373394 
Q 526.683847 70.914398 529.312237 77.215162 
Q 531.940627 83.500331 536.776865 83.500331 
Q 538.094565 83.500331 539.22302 83.141624 
Q 540.351475 82.767321 541.248633 81.987523 
L 541.248633 67.857591 
L 536.096988 67.857591 
L 536.096988 55.271659 
L 549.238938 55.271659 
z
" style="fill:#ffa600;"/>
   </g>
   <g id="patch_40">
    <path clip-path="url(#p1dc1cff012)" d="M 550.884956 142.4 
L 582.159292 142.4 
L 582.159292 145.344921 
L 570.907804 145.344921 
L 570.907804 157.5 
L 562.158263 157.5 
L 562.158263 145.344921 
L 550.884956 145.344921 
z
" style="fill:#ff0000;"/>
   </g>
   <g id="patch_41">
    <path clip-path="url(#p1dc1cff012)" d="M 582.159292 140.235282 
Q 579.543248 141.308283 576.714453 141.851023 
Q 573.885658 142.4 570.804714 142.4 
Q 561.617041 142.4 556.250998 138.332576 
Q 550.884956 134.265152 550.884956 127.309358 
Q 550.884956 120.32861 556.250998 116.267424 
Q 561.617041 112.2 570.804714 112.2 
Q 573.885658 112.2 576.714453 112.748977 
Q 579.543248 113.291717 582.159292 114.364718 
L 582.159292 120.384755 
Q 579.519609 118.962404 576.958722 118.301136 
Q 574.397835 117.639868 571.569041 117.639868 
Q 566.494545 117.639868 563.586954 120.216319 
Q 560.687242 122.786532 560.687242 127.309358 
Q 560.687242 131.813468 563.586954 134.389919 
Q 566.494545 136.960132 571.569041 136.960132 
Q 574.397835 136.960132 576.958722 136.298864 
Q 579.519609 135.631357 582.159292 134.209006 
z
" style="fill:#0000ff;"/>
   </g>
   <g id="patch_42">
    <path clip-path="url(#p1dc1cff012)" d="M 582.159292 109.467589 
Q 579.005224 110.833795 575.612849 111.520017 
Q 572.220473 112.2 568.603809 112.2 
Q 560.431268 112.2 555.658112 108.132576 
Q 550.884956 104.065152 550.884956 97.109358 
Q 550.884956 90.072464 555.74222 86.036232 
Q 560.606494 82 569.066405 82 
Q 572.325609 82 575.31146 82.548977 
Q 578.30432 83.091717 580.953737 84.164718 
L 580.953737 90.184755 
Q 578.220212 88.806073 575.514722 88.12609 
Q 572.809233 87.439868 570.089725 87.439868 
Q 565.057235 87.439868 562.330718 89.947697 
Q 559.604201 92.449287 559.604201 97.109358 
Q 559.604201 101.725759 562.232591 104.246065 
Q 564.860981 106.760132 569.697219 106.760132 
Q 571.014919 106.760132 572.143374 106.616649 
Q 573.271829 106.466928 574.168986 106.155009 
L 574.168986 100.503037 
L 569.017342 100.503037 
L 569.017342 95.468663 
L 582.159292 95.468663 
z
" style="fill:#ffa600;"/>
   </g>
   <g id="patch_43">
    <path clip-path="url(#p1dc1cff012)" d="M 572.548716 70.997 
L 560.521109 70.997 
L 558.622013 82 
L 550.884956 82 
L 561.934241 21.6 
L 571.110007 21.6 
L 582.159292 82 
L 574.428629 82 
z
M 562.439387 59.786884 
L 570.611255 59.786884 
L 566.531715 35.761509 
z
" style="fill:#008000;"/>
   </g>
   <g id="patch_44">
    <path clip-path="url(#p1dc1cff012)" d="M 605.46907 149.24775 
L 593.441463 149.24775 
L 591.542367 157.5 
L 583.80531 157.5 
L 594.854595 112.2 
L 604.030361 112.2 
L 615.079646 157.5 
L 607.348983 157.5 
z
M 595.359741 140.840163 
L 603.531609 140.840163 
L 599.452069 122.821132 
z
" style="fill:#008000;"/>
   </g>
   <g id="patch_45">
    <path clip-path="url(#p1dc1cff012)" d="M 615.079646 108.952923 
Q 612.463602 110.562425 609.634807 111.376534 
Q 606.806012 112.2 603.725068 112.2 
Q 594.537395 112.2 589.171352 106.098864 
Q 583.80531 99.997728 583.80531 89.564036 
Q 583.80531 79.092915 589.171352 73.001136 
Q 594.537395 66.9 603.725068 66.9 
Q 606.806012 66.9 609.634807 67.723466 
Q 612.463602 68.537575 615.079646 70.147077 
L 615.079646 79.177133 
Q 612.439963 77.043607 609.879076 76.051704 
Q 607.318189 75.059802 604.489395 75.059802 
Q 599.414899 75.059802 596.507308 78.924478 
Q 593.607596 82.779798 593.607596 89.564036 
Q 593.607596 96.320202 596.507308 100.184879 
Q 599.414899 104.040198 604.489395 104.040198 
Q 607.318189 104.040198 609.879076 103.048296 
Q 612.439963 102.047036 615.079646 99.91351 
z
" style="fill:#0000ff;"/>
   </g>
   <g id="patch_46">
    <path clip-path="url(#p1dc1cff012)" d="M 615.079646 62.801384 
Q 611.925578 64.850692 608.533203 65.880025 
Q 605.140827 66.9 601.524163 66.9 
Q 593.351622 66.9 588.578466 60.798864 
Q 583.80531 54.697728 583.80531 44.264036 
Q 583.80531 33.708697 588.662574 27.654348 
Q 593.526848 21.6 601.986759 21.6 
Q 605.245963 21.6 608.231814 22.423466 
Q 611.224674 23.237575 613.874091 24.847077 
L 613.874091 33.877133 
Q 611.140566 31.80911 608.435076 30.789134 
Q 605.729587 29.759802 603.010079 29.759802 
Q 597.977589 29.759802 595.251072 33.521545 
Q 592.524555 37.273931 592.524555 44.264036 
Q 592.524555 51.188639 595.152945 54.969097 
Q 597.781335 58.740198 602.617573 58.740198 
Q 603.935272 58.740198 605.063728 58.524974 
Q 606.192183 58.300392 607.08934 57.832514 
L 607.08934 49.354555 
L 601.937696 49.354555 
L 601.937696 41.802995 
L 615.079646 41.802995 
z
" style="fill:#ffa600;"/>
   </g>
   <g id="patch_47">
    <path clip-path="url(#p1dc1cff012)" d="M 648 156.133795 
Q 644.845932 156.816897 641.453557 157.160008 
Q 638.061181 157.5 634.444517 157.5 
Q 626.271976 157.5 621.49882 155.466288 
Q 616.725664 153.432576 616.725664 149.954679 
Q 616.725664 146.436232 621.582928 144.418116 
Q 626.447202 142.4 634.907113 142.4 
Q 638.166317 142.4 641.152168 142.674489 
Q 644.145028 142.945858 646.794445 143.482359 
L 646.794445 146.492378 
Q 644.06092 145.803037 641.35543 145.463045 
Q 638.649941 145.119934 635.930433 145.119934 
Q 630.897943 145.119934 628.171426 146.373848 
Q 625.444909 147.624644 625.444909 149.954679 
Q 625.444909 152.26288 628.073299 153.523032 
Q 630.701689 154.780066 635.537927 154.780066 
Q 636.855626 154.780066 637.984082 154.708325 
Q 639.112537 154.633464 640.009694 154.477505 
L 640.009694 151.651518 
L 634.85805 151.651518 
L 634.85805 149.134332 
L 648 149.134332 
z
" style="fill:#ffa600;"/>
   </g>
   <g id="patch_48">
    <path clip-path="url(#p1dc1cff012)" d="M 638.389424 131.397 
L 626.361817 131.397 
L 624.462721 142.4 
L 616.725664 142.4 
L 627.774949 82 
L 636.950715 82 
L 648 142.4 
L 640.269337 142.4 
z
M 628.280095 120.186884 
L 636.451963 120.186884 
L 632.372423 96.161509 
z
" style="fill:#008000;"/>
   </g>
   <g id="patch_49">
    <path clip-path="url(#p1dc1cff012)" d="M 616.725664 21.6 
L 648 21.6 
L 648 33.379683 
L 636.748512 33.379683 
L 636.748512 82 
L 627.998971 82 
L 627.998971 33.379683 
L 616.725664 33.379683 
z
" style="fill:#ff0000;"/>
   </g>
  </g>
 </g>
 <defs>
  <clipPath id="p1dc1cff012">
   <rect height="135.9" width="558" x="90" y="21.6"/>
  </clipPath>
 </defs>
</svg>
