<?xml version="1.0" encoding="utf-8" standalone="no"?>
<!DOCTYPE svg PUBLIC "-//W3C//DTD SVG 1.1//EN"
  "http://www.w3.org/Graphics/SVG/1.1/DTD/svg11.dtd">
<!-- Created with matplotlib (https://matplotlib.org/) -->
<svg height="180pt" version="1.1" viewBox="0 0 720 180" width="720pt" xmlns="http://www.w3.org/2000/svg" xmlns:xlink="http://www.w3.org/1999/xlink">
 <metadata>
  <rdf:RDF xmlns:cc="http://creativecommons.org/ns#" xmlns:dc="http://purl.org/dc/elements/1.1/" xmlns:rdf="http://www.w3.org/1999/02/22-rdf-syntax-ns#">
   <cc:Work>
    <dc:type rdf:resource="http://purl.org/dc/dcmitype/StillImage"/>
    <dc:date>2021-08-04T23:34:07.880671</dc:date>
    <dc:format>image/svg+xml</dc:format>
    <dc:creator>
     <cc:Agent>
      <dc:title>Matplotlib v3.3.2, https://matplotlib.org/</dc:title>
     </cc:Agent>
    </dc:creator>
   </cc:Work>
  </rdf:RDF>
 </metadata>
 <defs>
  <style type="text/css">*{stroke-linecap:butt;stroke-linejoin:round;}</style>
 </defs>
 <g id="figure_1">
  <g id="patch_1">
   <path d="M 0 180 
L 720 180 
L 720 0 
L 0 0 
z
" style="fill:none;"/>
  </g>
  <g id="axes_1">
   <g id="line2d_1">
    <path clip-path="url(#p4629c57952)" d="M 90 157.5 
L 648 157.5 
" style="fill:none;stroke:#000000;stroke-linecap:square;stroke-width:0.5;"/>
   </g>
   <g id="patch_2">
    <path clip-path="url(#p4629c57952)" d="M 121.274336 156.133795 
Q 118.120268 156.816897 114.727893 157.160008 
Q 111.335518 157.5 107.718853 157.5 
Q 99.546312 157.5 94.773156 155.466288 
Q 90 153.432576 90 149.954679 
Q 90 146.436232 94.857265 144.418116 
Q 99.721538 142.4 108.18145 142.4 
Q 111.440653 142.4 114.426504 142.674489 
Q 117.419364 142.945858 120.068781 143.482359 
L 120.068781 146.492378 
Q 117.335256 145.803037 114.629766 145.463045 
Q 111.924277 145.119934 109.204769 145.119934 
Q 104.172279 145.119934 101.445762 146.373848 
Q 98.719246 147.624644 98.719246 149.954679 
Q 98.719246 152.26288 101.347636 153.523032 
Q 103.976026 154.780066 108.812263 154.780066 
Q 110.129963 154.780066 111.258418 154.708325 
Q 112.386874 154.633464 113.284031 154.477505 
L 113.284031 151.651518 
L 108.132386 151.651518 
L 108.132386 149.134332 
L 121.274336 149.134332 
z
" style="fill:#ffa600;"/>
   </g>
   <g id="patch_3">
    <path clip-path="url(#p4629c57952)" d="M 111.66376 125.895499 
L 99.636153 125.895499 
L 97.737057 142.4 
L 90 142.4 
L 101.049285 51.8 
L 110.225051 51.8 
L 121.274336 142.4 
L 113.543673 142.4 
z
M 101.554432 109.080326 
L 109.726299 109.080326 
L 105.64676 73.042263 
z
" style="fill:#008000;"/>
   </g>
   <g id="patch_4">
    <path clip-path="url(#p4629c57952)" d="M 154.19469 156.417641 
Q 151.578646 156.954142 148.749851 157.225511 
Q 145.921056 157.5 142.840113 157.5 
Q 133.652439 157.5 128.286397 155.466288 
Q 122.920354 153.432576 122.920354 149.954679 
Q 122.920354 146.464305 128.286397 144.433712 
Q 133.652439 142.4 142.840113 142.4 
Q 145.921056 142.4 148.749851 142.674489 
Q 151.578646 142.945858 154.19469 143.482359 
L 154.19469 146.492378 
Q 151.555007 145.781202 148.99412 145.450568 
Q 146.433234 145.119934 143.604439 145.119934 
Q 138.529943 145.119934 135.622352 146.408159 
Q 132.72264 147.693266 132.72264 149.954679 
Q 132.72264 152.206734 135.622352 153.49496 
Q 138.529943 154.780066 143.604439 154.780066 
Q 146.433234 154.780066 148.99412 154.449432 
Q 151.555007 154.115679 154.19469 153.404503 
z
" style="fill:#0000ff;"/>
   </g>
   <g id="patch_5">
    <path clip-path="url(#p4629c57952)" d="M 122.920354 127.3 
L 154.19469 127.3 
L 154.19469 130.244921 
L 142.943202 130.244921 
L 142.943202 142.4 
L 134.193661 142.4 
L 134.193661 130.244921 
L 122.920354 130.244921 
z
" style="fill:#ff0000;"/>
   </g>
   <g id="patch_6">
    <path clip-path="url(#p4629c57952)" d="M 154.19469 124.567589 
Q 151.040622 125.933795 147.648247 126.620017 
Q 144.255872 127.3 140.639207 127.3 
Q 132.466666 127.3 127.69351 123.232576 
Q 122.920354 119.165152 122.920354 112.209358 
Q 122.920354 105.172464 127.777619 101.136232 
Q 132.641892 97.1 141.101804 97.1 
Q 144.361007 97.1 147.346858 97.648977 
Q 150.339718 98.191717 152.989135 99.264718 
L 152.989135 105.284755 
Q 150.25561 103.906073 147.55012 103.22609 
Q 144.844631 102.539868 142.125123 102.539868 
Q 137.092633 102.539868 134.366116 105.047697 
Q 131.6396 107.549287 131.6396 112.209358 
Q 131.6396 116.825759 134.26799 119.346065 
Q 136.89638 121.860132 141.732617 121.860132 
Q 143.050317 121.860132 144.178772 121.716649 
Q 145.307228 121.566928 146.204385 121.255009 
L 146.204385 115.603037 
L 141.05274 115.603037 
L 141.05274 110.568663 
L 154.19469 110.568663 
z
" style="fill:#ffa600;"/>
   </g>
   <g id="patch_7">
    <path clip-path="url(#p4629c57952)" d="M 144.584114 88.84775 
L 132.556507 88.84775 
L 130.657411 97.1 
L 122.920354 97.1 
L 133.969639 51.8 
L 143.145405 51.8 
L 154.19469 97.1 
L 146.464027 97.1 
z
M 134.474786 80.440163 
L 142.646653 80.440163 
L 138.567114 62.421132 
z
" style="fill:#008000;"/>
   </g>
   <g id="patch_8">
    <path clip-path="url(#p4629c57952)" d="M 177.504468 154.74925 
L 165.476861 154.74925 
L 163.577765 157.5 
L 155.840708 157.5 
L 166.889993 142.4 
L 176.065759 142.4 
L 187.115044 157.5 
L 179.384381 157.5 
z
M 167.39514 151.946721 
L 175.567007 151.946721 
L 171.487467 145.940377 
z
" style="fill:#008000;"/>
   </g>
   <g id="patch_9">
    <path clip-path="url(#p4629c57952)" d="M 187.115044 141.033795 
Q 183.960976 141.716897 180.568601 142.060008 
Q 177.176226 142.4 173.559561 142.4 
Q 165.38702 142.4 160.613864 140.366288 
Q 155.840708 138.332576 155.840708 134.854679 
Q 155.840708 131.336232 160.697973 129.318116 
Q 165.562246 127.3 174.022158 127.3 
Q 177.281361 127.3 180.267212 127.574489 
Q 183.260072 127.845858 185.909489 128.382359 
L 185.909489 131.392378 
Q 183.175964 130.703037 180.470474 130.363045 
Q 177.764985 130.019934 175.045477 130.019934 
Q 170.012987 130.019934 167.28647 131.273848 
Q 164.559954 132.524644 164.559954 134.854679 
Q 164.559954 137.16288 167.188344 138.423032 
Q 169.816734 139.680066 174.652971 139.680066 
Q 175.970671 139.680066 177.099126 139.608325 
Q 178.227582 139.533464 179.124739 139.377505 
L 179.124739 136.551518 
L 173.973094 136.551518 
L 173.973094 134.034332 
L 187.115044 134.034332 
z
" style="fill:#ffa600;"/>
   </g>
   <g id="patch_10">
    <path clip-path="url(#p4629c57952)" d="M 155.840708 112.2 
L 187.115044 112.2 
L 187.115044 115.144921 
L 175.863556 115.144921 
L 175.863556 127.3 
L 167.114015 127.3 
L 167.114015 115.144921 
L 155.840708 115.144921 
z
" style="fill:#ff0000;"/>
   </g>
   <g id="patch_11">
    <path clip-path="url(#p4629c57952)" d="M 187.115044 107.870564 
Q 184.499 110.016567 181.670205 111.102045 
Q 178.84141 112.2 175.760467 112.2 
Q 166.572793 112.2 161.206751 104.065152 
Q 155.840708 95.930304 155.840708 82.018715 
Q 155.840708 68.05722 161.206751 59.934848 
Q 166.572793 51.8 175.760467 51.8 
Q 178.84141 51.8 181.670205 52.897955 
Q 184.499 53.983433 187.115044 56.129436 
L 187.115044 68.16951 
Q 184.475361 65.324809 181.914474 64.002272 
Q 179.353588 62.679736 176.524793 62.679736 
Q 171.450297 62.679736 168.542706 67.832638 
Q 165.642994 72.973063 165.642994 82.018715 
Q 165.642994 91.026937 168.542706 96.179839 
Q 171.450297 101.320264 176.524793 101.320264 
Q 179.353588 101.320264 181.914474 99.997728 
Q 184.475361 98.662714 187.115044 95.818013 
z
" style="fill:#0000ff;"/>
   </g>
   <g id="patch_12">
    <path clip-path="url(#p4629c57952)" d="M 210.424822 138.244749 
L 198.397215 138.244749 
L 196.498119 157.5 
L 188.761062 157.5 
L 199.810347 51.8 
L 208.986113 51.8 
L 220.035398 157.5 
L 212.304735 157.5 
z
M 200.315494 118.627047 
L 208.487361 118.627047 
L 204.407821 76.58264 
z
" style="fill:#008000;"/>
   </g>
   <g id="patch_13">
    <path clip-path="url(#p4629c57952)" d="M 221.681416 51.8 
L 252.955752 51.8 
L 252.955752 72.414445 
L 241.704264 72.414445 
L 241.704264 157.5 
L 232.954723 157.5 
L 232.954723 72.414445 
L 221.681416 72.414445 
z
" style="fill:#ff0000;"/>
   </g>
   <g id="patch_14">
    <path clip-path="url(#p4629c57952)" d="M 285.876106 147.936563 
Q 282.722038 152.718281 279.329663 155.120058 
Q 275.937288 157.5 272.320623 157.5 
Q 264.148082 157.5 259.374926 143.264016 
Q 254.60177 129.028031 254.60177 104.682751 
Q 254.60177 80.053625 259.459035 65.926813 
Q 264.323308 51.8 272.78322 51.8 
Q 276.042423 51.8 279.028274 53.721421 
Q 282.021134 55.621008 284.670551 59.376513 
L 284.670551 80.446643 
Q 281.937026 75.621256 279.231536 73.241314 
Q 276.526047 70.839537 273.806539 70.839537 
Q 268.774049 70.839537 266.047532 79.616939 
Q 263.321016 88.372506 263.321016 104.682751 
Q 263.321016 120.840157 265.949406 129.661227 
Q 268.577796 138.460463 273.414033 138.460463 
Q 274.731733 138.460463 275.860188 137.958273 
Q 276.988644 137.434249 277.885801 136.342533 
L 277.885801 116.560628 
L 272.734156 116.560628 
L 272.734156 98.940322 
L 285.876106 98.940322 
z
" style="fill:#ffa600;"/>
   </g>
   <g id="patch_15">
    <path clip-path="url(#p4629c57952)" d="M 287.522124 127.3 
L 318.79646 127.3 
L 318.79646 133.189841 
L 307.544972 133.189841 
L 307.544972 157.5 
L 298.795431 157.5 
L 298.795431 133.189841 
L 287.522124 133.189841 
z
" style="fill:#ff0000;"/>
   </g>
   <g id="patch_16">
    <path clip-path="url(#p4629c57952)" d="M 309.185884 113.546249 
L 297.158277 113.546249 
L 295.259181 127.3 
L 287.522124 127.3 
L 298.571409 51.8 
L 307.747175 51.8 
L 318.79646 127.3 
L 311.065797 127.3 
z
M 299.076556 99.533605 
L 307.248423 99.533605 
L 303.168883 69.501886 
z
" style="fill:#008000;"/>
   </g>
   <g id="patch_17">
    <path clip-path="url(#p4629c57952)" d="M 320.442478 127.3 
L 351.716814 127.3 
L 351.716814 133.189841 
L 340.465326 133.189841 
L 340.465326 157.5 
L 331.715785 157.5 
L 331.715785 133.189841 
L 320.442478 133.189841 
z
" style="fill:#ff0000;"/>
   </g>
   <g id="patch_18">
    <path clip-path="url(#p4629c57952)" d="M 351.716814 121.888205 
Q 349.10077 124.570709 346.271975 125.927556 
Q 343.44318 127.3 340.362237 127.3 
Q 331.174563 127.3 325.80852 117.13144 
Q 320.442478 106.96288 320.442478 89.573394 
Q 320.442478 72.121524 325.80852 61.96856 
Q 331.174563 51.8 340.362237 51.8 
Q 343.44318 51.8 346.271975 53.172444 
Q 349.10077 54.529291 351.716814 57.211795 
L 351.716814 72.261888 
Q 349.077131 68.706011 346.516244 67.05284 
Q 343.955358 65.399669 341.126563 65.399669 
Q 336.052067 65.399669 333.144476 71.840797 
Q 330.244764 78.266329 330.244764 89.573394 
Q 330.244764 100.833671 333.144476 107.274799 
Q 336.052067 113.700331 341.126563 113.700331 
Q 343.955358 113.700331 346.516244 112.04716 
Q 349.077131 110.378393 351.716814 106.822516 
z
" style="fill:#0000ff;"/>
   </g>
   <g id="patch_19">
    <path clip-path="url(#p4629c57952)" d="M 375.026592 151.9985 
L 362.998985 151.9985 
L 361.099889 157.5 
L 353.362832 157.5 
L 364.412117 127.3 
L 373.587883 127.3 
L 384.637168 157.5 
L 376.906505 157.5 
z
M 364.917264 146.393442 
L 373.089131 146.393442 
L 369.009591 134.380754 
z
" style="fill:#008000;"/>
   </g>
   <g id="patch_20">
    <path clip-path="url(#p4629c57952)" d="M 384.637168 124.567589 
Q 381.4831 125.933795 378.090725 126.620017 
Q 374.698349 127.3 371.081685 127.3 
Q 362.909144 127.3 358.135988 123.232576 
Q 353.362832 119.165152 353.362832 112.209358 
Q 353.362832 105.172464 358.220097 101.136232 
Q 363.08437 97.1 371.544282 97.1 
Q 374.803485 97.1 377.789336 97.648977 
Q 380.782196 98.191717 383.431613 99.264718 
L 383.431613 105.284755 
Q 380.698088 103.906073 377.992598 103.22609 
Q 375.287109 102.539868 372.567601 102.539868 
Q 367.535111 102.539868 364.808594 105.047697 
Q 362.082078 107.549287 362.082078 112.209358 
Q 362.082078 116.825759 364.710468 119.346065 
Q 367.338858 121.860132 372.175095 121.860132 
Q 373.492795 121.860132 374.62125 121.716649 
Q 375.749705 121.566928 376.646863 121.255009 
L 376.646863 115.603037 
L 371.495218 115.603037 
L 371.495218 110.568663 
L 384.637168 110.568663 
z
" style="fill:#ffa600;"/>
   </g>
   <g id="patch_21">
    <path clip-path="url(#p4629c57952)" d="M 384.637168 91.688205 
Q 382.021124 94.370709 379.192329 95.727556 
Q 376.363534 97.1 373.282591 97.1 
Q 364.094917 97.1 358.728874 86.93144 
Q 353.362832 76.76288 353.362832 59.373394 
Q 353.362832 41.921524 358.728874 31.76856 
Q 364.094917 21.6 373.282591 21.6 
Q 376.363534 21.6 379.192329 22.972444 
Q 382.021124 24.329291 384.637168 27.011795 
L 384.637168 42.061888 
Q 381.997485 38.506011 379.436598 36.85284 
Q 376.875712 35.199669 374.046917 35.199669 
Q 368.972421 35.199669 366.06483 41.640797 
Q 363.165118 48.066329 363.165118 59.373394 
Q 363.165118 70.633671 366.06483 77.074799 
Q 368.972421 83.500331 374.046917 83.500331 
Q 376.875712 83.500331 379.436598 81.84716 
Q 381.997485 80.178393 384.637168 76.622516 
z
" style="fill:#0000ff;"/>
   </g>
   <g id="patch_22">
    <path clip-path="url(#p4629c57952)" d="M 407.946946 149.24775 
L 395.919339 149.24775 
L 394.020243 157.5 
L 386.283186 157.5 
L 397.332471 112.2 
L 406.508237 112.2 
L 417.557522 157.5 
L 409.826859 157.5 
z
M 397.837618 140.840163 
L 406.009485 140.840163 
L 401.929945 122.821132 
z
" style="fill:#008000;"/>
   </g>
   <g id="patch_23">
    <path clip-path="url(#p4629c57952)" d="M 417.557522 105.705846 
Q 414.941478 108.92485 412.112683 110.553068 
Q 409.283888 112.2 406.202945 112.2 
Q 397.015271 112.2 391.649228 99.997728 
Q 386.283186 87.795455 386.283186 66.928073 
Q 386.283186 45.985829 391.649228 33.802272 
Q 397.015271 21.6 406.202945 21.6 
Q 409.283888 21.6 412.112683 23.246932 
Q 414.941478 24.87515 417.557522 28.094154 
L 417.557522 46.154266 
Q 414.917839 41.887213 412.356952 39.903408 
Q 409.796066 37.919603 406.967271 37.919603 
Q 401.892775 37.919603 398.985184 45.648957 
Q 396.085472 53.359595 396.085472 66.928073 
Q 396.085472 80.440405 398.985184 88.169758 
Q 401.892775 95.880397 406.967271 95.880397 
Q 409.796066 95.880397 412.356952 93.896592 
Q 414.917839 91.894071 417.557522 87.627019 
z
" style="fill:#0000ff;"/>
   </g>
   <g id="patch_24">
    <path clip-path="url(#p4629c57952)" d="M 450.477876 156.133795 
Q 447.323808 156.816897 443.931433 157.160008 
Q 440.539057 157.5 436.922393 157.5 
Q 428.749852 157.5 423.976696 155.466288 
Q 419.20354 153.432576 419.20354 149.954679 
Q 419.20354 146.436232 424.060805 144.418116 
Q 428.925078 142.4 437.384989 142.4 
Q 440.644193 142.4 443.630044 142.674489 
Q 446.622904 142.945858 449.272321 143.482359 
L 449.272321 146.492378 
Q 446.538796 145.803037 443.833306 145.463045 
Q 441.127817 145.119934 438.408309 145.119934 
Q 433.375819 145.119934 430.649302 146.373848 
Q 427.922786 147.624644 427.922786 149.954679 
Q 427.922786 152.26288 430.551176 153.523032 
Q 433.179565 154.780066 438.015803 154.780066 
Q 439.333503 154.780066 440.461958 154.708325 
Q 441.590413 154.633464 442.487571 154.477505 
L 442.487571 151.651518 
L 437.335926 151.651518 
L 437.335926 149.134332 
L 450.477876 149.134332 
z
" style="fill:#ffa600;"/>
   </g>
   <g id="patch_25">
    <path clip-path="url(#p4629c57952)" d="M 419.20354 127.3 
L 450.477876 127.3 
L 450.477876 130.244921 
L 439.226388 130.244921 
L 439.226388 142.4 
L 430.476847 142.4 
L 430.476847 130.244921 
L 419.20354 130.244921 
z
" style="fill:#ff0000;"/>
   </g>
   <g id="patch_26">
    <path clip-path="url(#p4629c57952)" d="M 450.477876 124.052923 
Q 447.861832 125.662425 445.033037 126.476534 
Q 442.204242 127.3 439.123298 127.3 
Q 429.935625 127.3 424.569582 121.198864 
Q 419.20354 115.097728 419.20354 104.664036 
Q 419.20354 94.192915 424.569582 88.101136 
Q 429.935625 82 439.123298 82 
Q 442.204242 82 445.033037 82.823466 
Q 447.861832 83.637575 450.477876 85.247077 
L 450.477876 94.277133 
Q 447.838193 92.143607 445.277306 91.151704 
Q 442.71642 90.159802 439.887625 90.159802 
Q 434.813129 90.159802 431.905538 94.024478 
Q 429.005826 97.879798 429.005826 104.664036 
Q 429.005826 111.420202 431.905538 115.284879 
Q 434.813129 119.140198 439.887625 119.140198 
Q 442.71642 119.140198 445.277306 118.148296 
Q 447.838193 117.147036 450.477876 115.01351 
z
" style="fill:#0000ff;"/>
   </g>
   <g id="patch_27">
    <path clip-path="url(#p4629c57952)" d="M 440.8673 70.997 
L 428.839693 70.997 
L 426.940597 82 
L 419.20354 82 
L 430.252825 21.6 
L 439.428591 21.6 
L 450.477876 82 
L 442.747213 82 
z
M 430.757972 59.786884 
L 438.929839 59.786884 
L 434.850299 35.761509 
z
" style="fill:#008000;"/>
   </g>
   <g id="patch_28">
    <path clip-path="url(#p4629c57952)" d="M 473.787654 149.24775 
L 461.760047 149.24775 
L 459.860951 157.5 
L 452.123894 157.5 
L 463.173179 112.2 
L 472.348945 112.2 
L 483.39823 157.5 
L 475.667567 157.5 
z
M 463.678326 140.840163 
L 471.850193 140.840163 
L 467.770653 122.821132 
z
" style="fill:#008000;"/>
   </g>
   <g id="patch_29">
    <path clip-path="url(#p4629c57952)" d="M 483.39823 105.705846 
Q 480.782186 108.92485 477.953391 110.553068 
Q 475.124596 112.2 472.043652 112.2 
Q 462.855979 112.2 457.489936 99.997728 
Q 452.123894 87.795455 452.123894 66.928073 
Q 452.123894 45.985829 457.489936 33.802272 
Q 462.855979 21.6 472.043652 21.6 
Q 475.124596 21.6 477.953391 23.246932 
Q 480.782186 24.87515 483.39823 28.094154 
L 483.39823 46.154266 
Q 480.758547 41.887213 478.19766 39.903408 
Q 475.636773 37.919603 472.807979 37.919603 
Q 467.733483 37.919603 464.825892 45.648957 
Q 461.92618 53.359595 461.92618 66.928073 
Q 461.92618 80.440405 464.825892 88.169758 
Q 467.733483 95.880397 472.807979 95.880397 
Q 475.636773 95.880397 478.19766 93.896592 
Q 480.758547 91.894071 483.39823 87.627019 
z
" style="fill:#0000ff;"/>
   </g>
   <g id="patch_30">
    <path clip-path="url(#p4629c57952)" d="M 506.708008 154.74925 
L 494.680401 154.74925 
L 492.781305 157.5 
L 485.044248 157.5 
L 496.093533 142.4 
L 505.269299 142.4 
L 516.318584 157.5 
L 508.587921 157.5 
z
M 496.59868 151.946721 
L 504.770547 151.946721 
L 500.691007 145.940377 
z
" style="fill:#008000;"/>
   </g>
   <g id="patch_31">
    <path clip-path="url(#p4629c57952)" d="M 485.044248 112.2 
L 516.318584 112.2 
L 516.318584 118.089841 
L 505.067096 118.089841 
L 505.067096 142.4 
L 496.317555 142.4 
L 496.317555 118.089841 
L 485.044248 118.089841 
z
" style="fill:#ff0000;"/>
   </g>
   <g id="patch_32">
    <path clip-path="url(#p4629c57952)" d="M 516.318584 108.952923 
Q 513.70254 110.562425 510.873745 111.376534 
Q 508.04495 112.2 504.964006 112.2 
Q 495.776333 112.2 490.41029 106.098864 
Q 485.044248 99.997728 485.044248 89.564036 
Q 485.044248 79.092915 490.41029 73.001136 
Q 495.776333 66.9 504.964006 66.9 
Q 508.04495 66.9 510.873745 67.723466 
Q 513.70254 68.537575 516.318584 70.147077 
L 516.318584 79.177133 
Q 513.678901 77.043607 511.118014 76.051704 
Q 508.557127 75.059802 505.728333 75.059802 
Q 500.653837 75.059802 497.746246 78.924478 
Q 494.846534 82.779798 494.846534 89.564036 
Q 494.846534 96.320202 497.746246 100.184879 
Q 500.653837 104.040198 505.728333 104.040198 
Q 508.557127 104.040198 511.118014 103.048296 
Q 513.678901 102.047036 516.318584 99.91351 
z
" style="fill:#0000ff;"/>
   </g>
   <g id="patch_33">
    <path clip-path="url(#p4629c57952)" d="M 516.318584 62.801384 
Q 513.164516 64.850692 509.772141 65.880025 
Q 506.379765 66.9 502.763101 66.9 
Q 494.59056 66.9 489.817404 60.798864 
Q 485.044248 54.697728 485.044248 44.264036 
Q 485.044248 33.708697 489.901512 27.654348 
Q 494.765786 21.6 503.225697 21.6 
Q 506.484901 21.6 509.470752 22.423466 
Q 512.463612 23.237575 515.113029 24.847077 
L 515.113029 33.877133 
Q 512.379504 31.80911 509.674014 30.789134 
Q 506.968525 29.759802 504.249017 29.759802 
Q 499.216527 29.759802 496.49001 33.521545 
Q 493.763493 37.273931 493.763493 44.264036 
Q 493.763493 51.188639 496.391883 54.969097 
Q 499.020273 58.740198 503.856511 58.740198 
Q 505.174211 58.740198 506.302666 58.524974 
Q 507.431121 58.300392 508.328279 57.832514 
L 508.328279 49.354555 
L 503.176634 49.354555 
L 503.176634 41.802995 
L 516.318584 41.802995 
z
" style="fill:#ffa600;"/>
   </g>
   <g id="patch_34">
    <path clip-path="url(#p4629c57952)" d="M 517.964602 112.2 
L 549.238938 112.2 
L 549.238938 121.034762 
L 537.98745 121.034762 
L 537.98745 157.5 
L 529.237909 157.5 
L 529.237909 121.034762 
L 517.964602 121.034762 
z
" style="fill:#ff0000;"/>
   </g>
   <g id="patch_35">
    <path clip-path="url(#p4629c57952)" d="M 549.238938 104.002768 
Q 546.08487 108.101384 542.692495 110.16005 
Q 539.300119 112.2 535.683455 112.2 
Q 527.510914 112.2 522.737758 99.997728 
Q 517.964602 87.795455 517.964602 66.928073 
Q 517.964602 45.817393 522.821866 33.708697 
Q 527.68614 21.6 536.146051 21.6 
Q 539.405255 21.6 542.391106 23.246932 
Q 545.383966 24.87515 548.033383 28.094154 
L 548.033383 46.154266 
Q 545.299858 42.018219 542.594368 39.978269 
Q 539.888879 37.919603 537.169371 37.919603 
Q 532.136881 37.919603 529.410364 45.44309 
Q 526.683847 52.947862 526.683847 66.928073 
Q 526.683847 80.777277 529.312237 88.338195 
Q 531.940627 95.880397 536.776865 95.880397 
Q 538.094565 95.880397 539.22302 95.449948 
Q 540.351475 95.000785 541.248633 94.065028 
L 541.248633 77.10911 
L 536.096988 77.10911 
L 536.096988 62.00599 
L 549.238938 62.00599 
z
" style="fill:#ffa600;"/>
   </g>
   <g id="patch_36">
    <path clip-path="url(#p4629c57952)" d="M 550.884956 142.4 
L 582.159292 142.4 
L 582.159292 145.344921 
L 570.907804 145.344921 
L 570.907804 157.5 
L 562.158263 157.5 
L 562.158263 145.344921 
L 550.884956 145.344921 
z
" style="fill:#ff0000;"/>
   </g>
   <g id="patch_37">
    <path clip-path="url(#p4629c57952)" d="M 572.548716 131.397 
L 560.521109 131.397 
L 558.622013 142.4 
L 550.884956 142.4 
L 561.934241 82 
L 571.110007 82 
L 582.159292 142.4 
L 574.428629 142.4 
z
M 562.439387 120.186884 
L 570.611255 120.186884 
L 566.531715 96.161509 
z
" style="fill:#008000;"/>
   </g>
   <g id="patch_38">
    <path clip-path="url(#p4629c57952)" d="M 582.159292 76.535179 
Q 579.005224 79.267589 575.612849 80.640033 
Q 572.220473 82 568.603809 82 
Q 560.431268 82 555.658112 73.865152 
Q 550.884956 65.730304 550.884956 51.818715 
Q 550.884956 37.744929 555.74222 29.672464 
Q 560.606494 21.6 569.066405 21.6 
Q 572.325609 21.6 575.31146 22.697955 
Q 578.30432 23.783433 580.953737 25.929436 
L 580.953737 37.96951 
Q 578.220212 35.212146 575.514722 33.852179 
Q 572.809233 32.479736 570.089725 32.479736 
Q 565.057235 32.479736 562.330718 37.495394 
Q 559.604201 42.498575 559.604201 51.818715 
Q 559.604201 61.051518 562.232591 66.09213 
Q 564.860981 71.120264 569.697219 71.120264 
Q 571.014919 71.120264 572.143374 70.833299 
Q 573.271829 70.533857 574.168986 69.910019 
L 574.168986 58.606073 
L 569.017342 58.606073 
L 569.017342 48.537327 
L 582.159292 48.537327 
z
" style="fill:#ffa600;"/>
   </g>
   <g id="patch_39">
    <path clip-path="url(#p4629c57952)" d="M 615.079646 155.335282 
Q 612.463602 156.408283 609.634807 156.951023 
Q 606.806012 157.5 603.725068 157.5 
Q 594.537395 157.5 589.171352 153.432576 
Q 583.80531 149.365152 583.80531 142.409358 
Q 583.80531 135.42861 589.171352 131.367424 
Q 594.537395 127.3 603.725068 127.3 
Q 606.806012 127.3 609.634807 127.848977 
Q 612.463602 128.391717 615.079646 129.464718 
L 615.079646 135.484755 
Q 612.439963 134.062404 609.879076 133.401136 
Q 607.318189 132.739868 604.489395 132.739868 
Q 599.414899 132.739868 596.507308 135.316319 
Q 593.607596 137.886532 593.607596 142.409358 
Q 593.607596 146.913468 596.507308 149.489919 
Q 599.414899 152.060132 604.489395 152.060132 
Q 607.318189 152.060132 609.879076 151.398864 
Q 612.439963 150.731357 615.079646 149.309006 
z
" style="fill:#0000ff;"/>
   </g>
   <g id="patch_40">
    <path clip-path="url(#p4629c57952)" d="M 583.80531 82 
L 615.079646 82 
L 615.079646 90.834762 
L 603.828158 90.834762 
L 603.828158 127.3 
L 595.078617 127.3 
L 595.078617 90.834762 
L 583.80531 90.834762 
z
" style="fill:#ff0000;"/>
   </g>
   <g id="patch_41">
    <path clip-path="url(#p4629c57952)" d="M 615.079646 76.535179 
Q 611.925578 79.267589 608.533203 80.640033 
Q 605.140827 82 601.524163 82 
Q 593.351622 82 588.578466 73.865152 
Q 583.80531 65.730304 583.80531 51.818715 
Q 583.80531 37.744929 588.662574 29.672464 
Q 593.526848 21.6 601.986759 21.6 
Q 605.245963 21.6 608.231814 22.697955 
Q 611.224674 23.783433 613.874091 25.929436 
L 613.874091 37.96951 
Q 611.140566 35.212146 608.435076 33.852179 
Q 605.729587 32.479736 603.010079 32.479736 
Q 597.977589 32.479736 595.251072 37.495394 
Q 592.524555 42.498575 592.524555 51.818715 
Q 592.524555 61.051518 595.152945 66.09213 
Q 597.781335 71.120264 602.617573 71.120264 
Q 603.935272 71.120264 605.063728 70.833299 
Q 606.192183 70.533857 607.08934 69.910019 
L 607.08934 58.606073 
L 601.937696 58.606073 
L 601.937696 48.537327 
L 615.079646 48.537327 
z
" style="fill:#ffa600;"/>
   </g>
   <g id="patch_42">
    <path clip-path="url(#p4629c57952)" d="M 638.389424 149.24775 
L 626.361817 149.24775 
L 624.462721 157.5 
L 616.725664 157.5 
L 627.774949 112.2 
L 636.950715 112.2 
L 648 157.5 
L 640.269337 157.5 
z
M 628.280095 140.840163 
L 636.451963 140.840163 
L 632.372423 122.821132 
z
" style="fill:#008000;"/>
   </g>
   <g id="patch_43">
    <path clip-path="url(#p4629c57952)" d="M 648 104.002768 
Q 644.845932 108.101384 641.453557 110.16005 
Q 638.061181 112.2 634.444517 112.2 
Q 626.271976 112.2 621.49882 99.997728 
Q 616.725664 87.795455 616.725664 66.928073 
Q 616.725664 45.817393 621.582928 33.708697 
Q 626.447202 21.6 634.907113 21.6 
Q 638.166317 21.6 641.152168 23.246932 
Q 644.145028 24.87515 646.794445 28.094154 
L 646.794445 46.154266 
Q 644.06092 42.018219 641.35543 39.978269 
Q 638.649941 37.919603 635.930433 37.919603 
Q 630.897943 37.919603 628.171426 45.44309 
Q 625.444909 52.947862 625.444909 66.928073 
Q 625.444909 80.777277 628.073299 88.338195 
Q 630.701689 95.880397 635.537927 95.880397 
Q 636.855626 95.880397 637.984082 95.449948 
Q 639.112537 95.000785 640.009694 94.065028 
L 640.009694 77.10911 
L 634.85805 77.10911 
L 634.85805 62.00599 
L 648 62.00599 
z
" style="fill:#ffa600;"/>
   </g>
  </g>
 </g>
 <defs>
  <clipPath id="p4629c57952">
   <rect height="135.9" width="558" x="90" y="21.6"/>
  </clipPath>
 </defs>
</svg>
