<?xml version="1.0" encoding="utf-8" standalone="no"?>
<!DOCTYPE svg PUBLIC "-//W3C//DTD SVG 1.1//EN"
  "http://www.w3.org/Graphics/SVG/1.1/DTD/svg11.dtd">
<!-- Created with matplotlib (https://matplotlib.org/) -->
<svg height="180pt" version="1.1" viewBox="0 0 720 180" width="720pt" xmlns="http://www.w3.org/2000/svg" xmlns:xlink="http://www.w3.org/1999/xlink">
 <metadata>
  <rdf:RDF xmlns:cc="http://creativecommons.org/ns#" xmlns:dc="http://purl.org/dc/elements/1.1/" xmlns:rdf="http://www.w3.org/1999/02/22-rdf-syntax-ns#">
   <cc:Work>
    <dc:type rdf:resource="http://purl.org/dc/dcmitype/StillImage"/>
    <dc:date>2021-08-04T23:33:34.885797</dc:date>
    <dc:format>image/svg+xml</dc:format>
    <dc:creator>
     <cc:Agent>
      <dc:title>Matplotlib v3.3.2, https://matplotlib.org/</dc:title>
     </cc:Agent>
    </dc:creator>
   </cc:Work>
  </rdf:RDF>
 </metadata>
 <defs>
  <style type="text/css">*{stroke-linecap:butt;stroke-linejoin:round;}</style>
 </defs>
 <g id="figure_1">
  <g id="patch_1">
   <path d="M 0 180 
L 720 180 
L 720 0 
L 0 0 
z
" style="fill:none;"/>
  </g>
  <g id="axes_1">
   <g id="line2d_1">
    <path clip-path="url(#p74d32a0104)" d="M 90 157.5 
L 648 157.5 
" style="fill:none;stroke:#000000;stroke-linecap:square;stroke-width:0.5;"/>
   </g>
   <g id="patch_2">
    <path clip-path="url(#p74d32a0104)" d="M 121.274336 154.252923 
Q 118.658292 155.862425 115.829497 156.676534 
Q 113.000702 157.5 109.919759 157.5 
Q 100.732085 157.5 95.366043 151.398864 
Q 90 145.297728 90 134.864036 
Q 90 124.392915 95.366043 118.301136 
Q 100.732085 112.2 109.919759 112.2 
Q 113.000702 112.2 115.829497 113.023466 
Q 118.658292 113.837575 121.274336 115.447077 
L 121.274336 124.477133 
Q 118.634653 122.343607 116.073766 121.351704 
Q 113.51288 120.359802 110.684085 120.359802 
Q 105.609589 120.359802 102.701998 124.224478 
Q 99.802286 128.079798 99.802286 134.864036 
Q 99.802286 141.620202 102.701998 145.484879 
Q 105.609589 149.340198 110.684085 149.340198 
Q 113.51288 149.340198 116.073766 148.348296 
Q 118.634653 147.347036 121.274336 145.21351 
z
" style="fill:#0000ff;"/>
   </g>
   <g id="patch_3">
    <path clip-path="url(#p74d32a0104)" d="M 111.66376 98.446249 
L 99.636153 98.446249 
L 97.737057 112.2 
L 90 112.2 
L 101.049285 36.7 
L 110.225051 36.7 
L 121.274336 112.2 
L 113.543673 112.2 
z
M 101.554432 84.433605 
L 109.726299 84.433605 
L 105.64676 54.401886 
z
" style="fill:#008000;"/>
   </g>
   <g id="patch_4">
    <path clip-path="url(#p74d32a0104)" d="M 122.920354 142.4 
L 154.19469 142.4 
L 154.19469 145.344921 
L 142.943202 145.344921 
L 142.943202 157.5 
L 134.193661 157.5 
L 134.193661 145.344921 
L 122.920354 145.344921 
z
" style="fill:#ff0000;"/>
   </g>
   <g id="patch_5">
    <path clip-path="url(#p74d32a0104)" d="M 154.19469 138.301384 
Q 151.040622 140.350692 147.648247 141.380025 
Q 144.255872 142.4 140.639207 142.4 
Q 132.466666 142.4 127.69351 136.298864 
Q 122.920354 130.197728 122.920354 119.764036 
Q 122.920354 109.208697 127.777619 103.154348 
Q 132.641892 97.1 141.101804 97.1 
Q 144.361007 97.1 147.346858 97.923466 
Q 150.339718 98.737575 152.989135 100.347077 
L 152.989135 109.377133 
Q 150.25561 107.30911 147.55012 106.289134 
Q 144.844631 105.259802 142.125123 105.259802 
Q 137.092633 105.259802 134.366116 109.021545 
Q 131.6396 112.773931 131.6396 119.764036 
Q 131.6396 126.688639 134.26799 130.469097 
Q 136.89638 134.240198 141.732617 134.240198 
Q 143.050317 134.240198 144.178772 134.024974 
Q 145.307228 133.800392 146.204385 133.332514 
L 146.204385 124.854555 
L 141.05274 124.854555 
L 141.05274 117.302995 
L 154.19469 117.302995 
z
" style="fill:#ffa600;"/>
   </g>
   <g id="patch_6">
    <path clip-path="url(#p74d32a0104)" d="M 144.584114 86.097 
L 132.556507 86.097 
L 130.657411 97.1 
L 122.920354 97.1 
L 133.969639 36.7 
L 143.145405 36.7 
L 154.19469 97.1 
L 146.464027 97.1 
z
M 134.474786 74.886884 
L 142.646653 74.886884 
L 138.567114 50.861509 
z
" style="fill:#008000;"/>
   </g>
   <g id="patch_7">
    <path clip-path="url(#p74d32a0104)" d="M 187.115044 155.335282 
Q 184.499 156.408283 181.670205 156.951023 
Q 178.84141 157.5 175.760467 157.5 
Q 166.572793 157.5 161.206751 153.432576 
Q 155.840708 149.365152 155.840708 142.409358 
Q 155.840708 135.42861 161.206751 131.367424 
Q 166.572793 127.3 175.760467 127.3 
Q 178.84141 127.3 181.670205 127.848977 
Q 184.499 128.391717 187.115044 129.464718 
L 187.115044 135.484755 
Q 184.475361 134.062404 181.914474 133.401136 
Q 179.353588 132.739868 176.524793 132.739868 
Q 171.450297 132.739868 168.542706 135.316319 
Q 165.642994 137.886532 165.642994 142.409358 
Q 165.642994 146.913468 168.542706 149.489919 
Q 171.450297 152.060132 176.524793 152.060132 
Q 179.353588 152.060132 181.914474 151.398864 
Q 184.475361 150.731357 187.115044 149.309006 
z
" style="fill:#0000ff;"/>
   </g>
   <g id="patch_8">
    <path clip-path="url(#p74d32a0104)" d="M 177.504468 119.04775 
L 165.476861 119.04775 
L 163.577765 127.3 
L 155.840708 127.3 
L 166.889993 82 
L 176.065759 82 
L 187.115044 127.3 
L 179.384381 127.3 
z
M 167.39514 110.640163 
L 175.567007 110.640163 
L 171.487467 92.621132 
z
" style="fill:#008000;"/>
   </g>
   <g id="patch_9">
    <path clip-path="url(#p74d32a0104)" d="M 187.115044 77.901384 
Q 183.960976 79.950692 180.568601 80.980025 
Q 177.176226 82 173.559561 82 
Q 165.38702 82 160.613864 75.898864 
Q 155.840708 69.797728 155.840708 59.364036 
Q 155.840708 48.808697 160.697973 42.754348 
Q 165.562246 36.7 174.022158 36.7 
Q 177.281361 36.7 180.267212 37.523466 
Q 183.260072 38.337575 185.909489 39.947077 
L 185.909489 48.977133 
Q 183.175964 46.90911 180.470474 45.889134 
Q 177.764985 44.859802 175.045477 44.859802 
Q 170.012987 44.859802 167.28647 48.621545 
Q 164.559954 52.373931 164.559954 59.364036 
Q 164.559954 66.288639 167.188344 70.069097 
Q 169.816734 73.840198 174.652971 73.840198 
Q 175.970671 73.840198 177.099126 73.624974 
Q 178.227582 73.400392 179.124739 72.932514 
L 179.124739 64.454555 
L 173.973094 64.454555 
L 173.973094 56.902995 
L 187.115044 56.902995 
z
" style="fill:#ffa600;"/>
   </g>
   <g id="patch_10">
    <path clip-path="url(#p74d32a0104)" d="M 188.761062 127.3 
L 220.035398 127.3 
L 220.035398 133.189841 
L 208.78391 133.189841 
L 208.78391 157.5 
L 200.034369 157.5 
L 200.034369 133.189841 
L 188.761062 133.189841 
z
" style="fill:#ff0000;"/>
   </g>
   <g id="patch_11">
    <path clip-path="url(#p74d32a0104)" d="M 220.035398 120.805846 
Q 217.419354 124.02485 214.590559 125.653068 
Q 211.761764 127.3 208.680821 127.3 
Q 199.493147 127.3 194.127105 115.097728 
Q 188.761062 102.895455 188.761062 82.028073 
Q 188.761062 61.085829 194.127105 48.902272 
Q 199.493147 36.7 208.680821 36.7 
Q 211.761764 36.7 214.590559 38.346932 
Q 217.419354 39.97515 220.035398 43.194154 
L 220.035398 61.254266 
Q 217.395715 56.987213 214.834828 55.003408 
Q 212.273942 53.019603 209.445147 53.019603 
Q 204.370651 53.019603 201.46306 60.748957 
Q 198.563348 68.459595 198.563348 82.028073 
Q 198.563348 95.540405 201.46306 103.269758 
Q 204.370651 110.980397 209.445147 110.980397 
Q 212.273942 110.980397 214.834828 108.996592 
Q 217.395715 106.994071 220.035398 102.727019 
z
" style="fill:#0000ff;"/>
   </g>
   <g id="patch_12">
    <path clip-path="url(#p74d32a0104)" d="M 243.345176 146.497 
L 231.317569 146.497 
L 229.418473 157.5 
L 221.681416 157.5 
L 232.730701 97.1 
L 241.906467 97.1 
L 252.955752 157.5 
L 245.225089 157.5 
z
M 233.235848 135.286884 
L 241.407715 135.286884 
L 237.328175 111.261509 
z
" style="fill:#008000;"/>
   </g>
   <g id="patch_13">
    <path clip-path="url(#p74d32a0104)" d="M 252.955752 91.635179 
Q 249.801684 94.367589 246.409309 95.740033 
Q 243.016934 97.1 239.400269 97.1 
Q 231.227728 97.1 226.454572 88.965152 
Q 221.681416 80.830304 221.681416 66.918715 
Q 221.681416 52.844929 226.538681 44.772464 
Q 231.402954 36.7 239.862866 36.7 
Q 243.122069 36.7 246.10792 37.797955 
Q 249.10078 38.883433 251.750197 41.029436 
L 251.750197 53.06951 
Q 249.016672 50.312146 246.311182 48.952179 
Q 243.605693 47.579736 240.886185 47.579736 
Q 235.853695 47.579736 233.127178 52.595394 
Q 230.400662 57.598575 230.400662 66.918715 
Q 230.400662 76.151518 233.029052 81.19213 
Q 235.657442 86.220264 240.493679 86.220264 
Q 241.811379 86.220264 242.939834 85.933299 
Q 244.06829 85.633857 244.965447 85.010019 
L 244.965447 73.706073 
L 239.813802 73.706073 
L 239.813802 63.637327 
L 252.955752 63.637327 
z
" style="fill:#ffa600;"/>
   </g>
   <g id="patch_14">
    <path clip-path="url(#p74d32a0104)" d="M 285.876106 154.767589 
Q 282.722038 156.133795 279.329663 156.820017 
Q 275.937288 157.5 272.320623 157.5 
Q 264.148082 157.5 259.374926 153.432576 
Q 254.60177 149.365152 254.60177 142.409358 
Q 254.60177 135.372464 259.459035 131.336232 
Q 264.323308 127.3 272.78322 127.3 
Q 276.042423 127.3 279.028274 127.848977 
Q 282.021134 128.391717 284.670551 129.464718 
L 284.670551 135.484755 
Q 281.937026 134.106073 279.231536 133.42609 
Q 276.526047 132.739868 273.806539 132.739868 
Q 268.774049 132.739868 266.047532 135.247697 
Q 263.321016 137.749287 263.321016 142.409358 
Q 263.321016 147.025759 265.949406 149.546065 
Q 268.577796 152.060132 273.414033 152.060132 
Q 274.731733 152.060132 275.860188 151.916649 
Q 276.988644 151.766928 277.885801 151.455009 
L 277.885801 145.803037 
L 272.734156 145.803037 
L 272.734156 140.768663 
L 285.876106 140.768663 
z
" style="fill:#ffa600;"/>
   </g>
   <g id="patch_15">
    <path clip-path="url(#p74d32a0104)" d="M 285.876106 124.052923 
Q 283.260062 125.662425 280.431267 126.476534 
Q 277.602472 127.3 274.521529 127.3 
Q 265.333855 127.3 259.967812 121.198864 
Q 254.60177 115.097728 254.60177 104.664036 
Q 254.60177 94.192915 259.967812 88.101136 
Q 265.333855 82 274.521529 82 
Q 277.602472 82 280.431267 82.823466 
Q 283.260062 83.637575 285.876106 85.247077 
L 285.876106 94.277133 
Q 283.236423 92.143607 280.675536 91.151704 
Q 278.11465 90.159802 275.285855 90.159802 
Q 270.211359 90.159802 267.303768 94.024478 
Q 264.404056 97.879798 264.404056 104.664036 
Q 264.404056 111.420202 267.303768 115.284879 
Q 270.211359 119.140198 275.285855 119.140198 
Q 278.11465 119.140198 280.675536 118.148296 
Q 283.236423 117.147036 285.876106 115.01351 
z
" style="fill:#0000ff;"/>
   </g>
   <g id="patch_16">
    <path clip-path="url(#p74d32a0104)" d="M 254.60177 36.7 
L 285.876106 36.7 
L 285.876106 45.534762 
L 274.624618 45.534762 
L 274.624618 82 
L 265.875077 82 
L 265.875077 45.534762 
L 254.60177 45.534762 
z
" style="fill:#ff0000;"/>
   </g>
   <g id="patch_17">
    <path clip-path="url(#p74d32a0104)" d="M 309.185884 149.24775 
L 297.158277 149.24775 
L 295.259181 157.5 
L 287.522124 157.5 
L 298.571409 112.2 
L 307.747175 112.2 
L 318.79646 157.5 
L 311.065797 157.5 
z
M 299.076556 140.840163 
L 307.248423 140.840163 
L 303.168883 122.821132 
z
" style="fill:#008000;"/>
   </g>
   <g id="patch_18">
    <path clip-path="url(#p74d32a0104)" d="M 318.79646 105.368973 
Q 315.642392 108.784487 312.250017 110.500041 
Q 308.857642 112.2 305.240977 112.2 
Q 297.068436 112.2 292.29528 102.03144 
Q 287.522124 91.86288 287.522124 74.473394 
Q 287.522124 56.881161 292.379389 46.79058 
Q 297.243662 36.7 305.703574 36.7 
Q 308.962777 36.7 311.948628 38.072444 
Q 314.941488 39.429291 317.590905 42.111795 
L 317.590905 57.161888 
Q 314.85738 53.715183 312.15189 52.015224 
Q 309.446401 50.299669 306.726893 50.299669 
Q 301.694403 50.299669 298.967886 56.569242 
Q 296.24137 62.823218 296.24137 74.473394 
Q 296.24137 86.014398 298.86976 92.315162 
Q 301.49815 98.600331 306.334387 98.600331 
Q 307.652087 98.600331 308.780542 98.241624 
Q 309.908998 97.867321 310.806155 97.087523 
L 310.806155 82.957591 
L 305.65451 82.957591 
L 305.65451 70.371659 
L 318.79646 70.371659 
z
" style="fill:#ffa600;"/>
   </g>
   <g id="patch_19">
    <path clip-path="url(#p74d32a0104)" d="M 351.716814 156.133795 
Q 348.562746 156.816897 345.170371 157.160008 
Q 341.777996 157.5 338.161331 157.5 
Q 329.98879 157.5 325.215634 155.466288 
Q 320.442478 153.432576 320.442478 149.954679 
Q 320.442478 146.436232 325.299743 144.418116 
Q 330.164016 142.4 338.623928 142.4 
Q 341.883131 142.4 344.868982 142.674489 
Q 347.861842 142.945858 350.511259 143.482359 
L 350.511259 146.492378 
Q 347.777734 145.803037 345.072244 145.463045 
Q 342.366755 145.119934 339.647247 145.119934 
Q 334.614757 145.119934 331.88824 146.373848 
Q 329.161724 147.624644 329.161724 149.954679 
Q 329.161724 152.26288 331.790114 153.523032 
Q 334.418504 154.780066 339.254741 154.780066 
Q 340.572441 154.780066 341.700896 154.708325 
Q 342.829351 154.633464 343.726509 154.477505 
L 343.726509 151.651518 
L 338.574864 151.651518 
L 338.574864 149.134332 
L 351.716814 149.134332 
z
" style="fill:#ffa600;"/>
   </g>
   <g id="patch_20">
    <path clip-path="url(#p74d32a0104)" d="M 351.716814 140.235282 
Q 349.10077 141.308283 346.271975 141.851023 
Q 343.44318 142.4 340.362237 142.4 
Q 331.174563 142.4 325.80852 138.332576 
Q 320.442478 134.265152 320.442478 127.309358 
Q 320.442478 120.32861 325.80852 116.267424 
Q 331.174563 112.2 340.362237 112.2 
Q 343.44318 112.2 346.271975 112.748977 
Q 349.10077 113.291717 351.716814 114.364718 
L 351.716814 120.384755 
Q 349.077131 118.962404 346.516244 118.301136 
Q 343.955358 117.639868 341.126563 117.639868 
Q 336.052067 117.639868 333.144476 120.216319 
Q 330.244764 122.786532 330.244764 127.309358 
Q 330.244764 131.813468 333.144476 134.389919 
Q 336.052067 136.960132 341.126563 136.960132 
Q 343.955358 136.960132 346.516244 136.298864 
Q 349.077131 135.631357 351.716814 134.209006 
z
" style="fill:#0000ff;"/>
   </g>
   <g id="patch_21">
    <path clip-path="url(#p74d32a0104)" d="M 320.442478 21.6 
L 351.716814 21.6 
L 351.716814 39.269524 
L 340.465326 39.269524 
L 340.465326 112.2 
L 331.715785 112.2 
L 331.715785 39.269524 
L 320.442478 39.269524 
z
" style="fill:#ff0000;"/>
   </g>
   <g id="patch_22">
    <path clip-path="url(#p74d32a0104)" d="M 384.637168 156.417641 
Q 382.021124 156.954142 379.192329 157.225511 
Q 376.363534 157.5 373.282591 157.5 
Q 364.094917 157.5 358.728874 155.466288 
Q 353.362832 153.432576 353.362832 149.954679 
Q 353.362832 146.464305 358.728874 144.433712 
Q 364.094917 142.4 373.282591 142.4 
Q 376.363534 142.4 379.192329 142.674489 
Q 382.021124 142.945858 384.637168 143.482359 
L 384.637168 146.492378 
Q 381.997485 145.781202 379.436598 145.450568 
Q 376.875712 145.119934 374.046917 145.119934 
Q 368.972421 145.119934 366.06483 146.408159 
Q 363.165118 147.693266 363.165118 149.954679 
Q 363.165118 152.206734 366.06483 153.49496 
Q 368.972421 154.780066 374.046917 154.780066 
Q 376.875712 154.780066 379.436598 154.449432 
Q 381.997485 154.115679 384.637168 153.404503 
z
" style="fill:#0000ff;"/>
   </g>
   <g id="patch_23">
    <path clip-path="url(#p74d32a0104)" d="M 384.637168 141.033795 
Q 381.4831 141.716897 378.090725 142.060008 
Q 374.698349 142.4 371.081685 142.4 
Q 362.909144 142.4 358.135988 140.366288 
Q 353.362832 138.332576 353.362832 134.854679 
Q 353.362832 131.336232 358.220097 129.318116 
Q 363.08437 127.3 371.544282 127.3 
Q 374.803485 127.3 377.789336 127.574489 
Q 380.782196 127.845858 383.431613 128.382359 
L 383.431613 131.392378 
Q 380.698088 130.703037 377.992598 130.363045 
Q 375.287109 130.019934 372.567601 130.019934 
Q 367.535111 130.019934 364.808594 131.273848 
Q 362.082078 132.524644 362.082078 134.854679 
Q 362.082078 137.16288 364.710468 138.423032 
Q 367.338858 139.680066 372.175095 139.680066 
Q 373.492795 139.680066 374.62125 139.608325 
Q 375.749705 139.533464 376.646863 139.377505 
L 376.646863 136.551518 
L 371.495218 136.551518 
L 371.495218 134.034332 
L 384.637168 134.034332 
z
" style="fill:#ffa600;"/>
   </g>
   <g id="patch_24">
    <path clip-path="url(#p74d32a0104)" d="M 375.026592 108.044749 
L 362.998985 108.044749 
L 361.099889 127.3 
L 353.362832 127.3 
L 364.412117 21.6 
L 373.587883 21.6 
L 384.637168 127.3 
L 376.906505 127.3 
z
M 364.917264 88.427047 
L 373.089131 88.427047 
L 369.009591 46.38264 
z
" style="fill:#008000;"/>
   </g>
   <g id="patch_25">
    <path clip-path="url(#p74d32a0104)" d="M 417.557522 155.335282 
Q 414.941478 156.408283 412.112683 156.951023 
Q 409.283888 157.5 406.202945 157.5 
Q 397.015271 157.5 391.649228 153.432576 
Q 386.283186 149.365152 386.283186 142.409358 
Q 386.283186 135.42861 391.649228 131.367424 
Q 397.015271 127.3 406.202945 127.3 
Q 409.283888 127.3 412.112683 127.848977 
Q 414.941478 128.391717 417.557522 129.464718 
L 417.557522 135.484755 
Q 414.917839 134.062404 412.356952 133.401136 
Q 409.796066 132.739868 406.967271 132.739868 
Q 401.892775 132.739868 398.985184 135.316319 
Q 396.085472 137.886532 396.085472 142.409358 
Q 396.085472 146.913468 398.985184 149.489919 
Q 401.892775 152.060132 406.967271 152.060132 
Q 409.796066 152.060132 412.356952 151.398864 
Q 414.917839 150.731357 417.557522 149.309006 
z
" style="fill:#0000ff;"/>
   </g>
   <g id="patch_26">
    <path clip-path="url(#p74d32a0104)" d="M 417.557522 117.736563 
Q 414.403454 122.518281 411.011079 124.920058 
Q 407.618703 127.3 404.002039 127.3 
Q 395.829498 127.3 391.056342 113.064016 
Q 386.283186 98.828031 386.283186 74.482751 
Q 386.283186 49.853625 391.140451 35.726813 
Q 396.004724 21.6 404.464635 21.6 
Q 407.723839 21.6 410.70969 23.521421 
Q 413.70255 25.421008 416.351967 29.176513 
L 416.351967 50.246643 
Q 413.618442 45.421256 410.912952 43.041314 
Q 408.207463 40.639537 405.487955 40.639537 
Q 400.455465 40.639537 397.728948 49.416939 
Q 395.002432 58.172506 395.002432 74.482751 
Q 395.002432 90.640157 397.630822 99.461227 
Q 400.259212 108.260463 405.095449 108.260463 
Q 406.413149 108.260463 407.541604 107.758273 
Q 408.670059 107.234249 409.567217 106.142533 
L 409.567217 86.360628 
L 404.415572 86.360628 
L 404.415572 68.740322 
L 417.557522 68.740322 
z
" style="fill:#ffa600;"/>
   </g>
   <g id="patch_27">
    <path clip-path="url(#p74d32a0104)" d="M 440.8673 154.74925 
L 428.839693 154.74925 
L 426.940597 157.5 
L 419.20354 157.5 
L 430.252825 142.4 
L 439.428591 142.4 
L 450.477876 157.5 
L 442.747213 157.5 
z
M 430.757972 151.946721 
L 438.929839 151.946721 
L 434.850299 145.940377 
z
" style="fill:#008000;"/>
   </g>
   <g id="patch_28">
    <path clip-path="url(#p74d32a0104)" d="M 419.20354 21.6 
L 450.477876 21.6 
L 450.477876 45.159366 
L 439.226388 45.159366 
L 439.226388 142.4 
L 430.476847 142.4 
L 430.476847 45.159366 
L 419.20354 45.159366 
z
" style="fill:#ff0000;"/>
   </g>
   <g id="patch_29">
    <path clip-path="url(#p74d32a0104)" d="M 473.787654 154.74925 
L 461.760047 154.74925 
L 459.860951 157.5 
L 452.123894 157.5 
L 463.173179 142.4 
L 472.348945 142.4 
L 483.39823 157.5 
L 475.667567 157.5 
z
M 463.678326 151.946721 
L 471.850193 151.946721 
L 467.770653 145.940377 
z
" style="fill:#008000;"/>
   </g>
   <g id="patch_30">
    <path clip-path="url(#p74d32a0104)" d="M 452.123894 112.2 
L 483.39823 112.2 
L 483.39823 118.089841 
L 472.146742 118.089841 
L 472.146742 142.4 
L 463.397201 142.4 
L 463.397201 118.089841 
L 452.123894 118.089841 
z
" style="fill:#ff0000;"/>
   </g>
   <g id="patch_31">
    <path clip-path="url(#p74d32a0104)" d="M 483.39823 105.705846 
Q 480.782186 108.92485 477.953391 110.553068 
Q 475.124596 112.2 472.043652 112.2 
Q 462.855979 112.2 457.489936 99.997728 
Q 452.123894 87.795455 452.123894 66.928073 
Q 452.123894 45.985829 457.489936 33.802272 
Q 462.855979 21.6 472.043652 21.6 
Q 475.124596 21.6 477.953391 23.246932 
Q 480.782186 24.87515 483.39823 28.094154 
L 483.39823 46.154266 
Q 480.758547 41.887213 478.19766 39.903408 
Q 475.636773 37.919603 472.807979 37.919603 
Q 467.733483 37.919603 464.825892 45.648957 
Q 461.92618 53.359595 461.92618 66.928073 
Q 461.92618 80.440405 464.825892 88.169758 
Q 467.733483 95.880397 472.807979 95.880397 
Q 475.636773 95.880397 478.19766 93.896592 
Q 480.758547 91.894071 483.39823 87.627019 
z
" style="fill:#0000ff;"/>
   </g>
   <g id="patch_32">
    <path clip-path="url(#p74d32a0104)" d="M 516.318584 155.335282 
Q 513.70254 156.408283 510.873745 156.951023 
Q 508.04495 157.5 504.964006 157.5 
Q 495.776333 157.5 490.41029 153.432576 
Q 485.044248 149.365152 485.044248 142.409358 
Q 485.044248 135.42861 490.41029 131.367424 
Q 495.776333 127.3 504.964006 127.3 
Q 508.04495 127.3 510.873745 127.848977 
Q 513.70254 128.391717 516.318584 129.464718 
L 516.318584 135.484755 
Q 513.678901 134.062404 511.118014 133.401136 
Q 508.557127 132.739868 505.728333 132.739868 
Q 500.653837 132.739868 497.746246 135.316319 
Q 494.846534 137.886532 494.846534 142.409358 
Q 494.846534 146.913468 497.746246 149.489919 
Q 500.653837 152.060132 505.728333 152.060132 
Q 508.557127 152.060132 511.118014 151.398864 
Q 513.678901 150.731357 516.318584 149.309006 
z
" style="fill:#0000ff;"/>
   </g>
   <g id="patch_33">
    <path clip-path="url(#p74d32a0104)" d="M 516.318584 123.201384 
Q 513.164516 125.250692 509.772141 126.280025 
Q 506.379765 127.3 502.763101 127.3 
Q 494.59056 127.3 489.817404 121.198864 
Q 485.044248 115.097728 485.044248 104.664036 
Q 485.044248 94.108697 489.901512 88.054348 
Q 494.765786 82 503.225697 82 
Q 506.484901 82 509.470752 82.823466 
Q 512.463612 83.637575 515.113029 85.247077 
L 515.113029 94.277133 
Q 512.379504 92.20911 509.674014 91.189134 
Q 506.968525 90.159802 504.249017 90.159802 
Q 499.216527 90.159802 496.49001 93.921545 
Q 493.763493 97.673931 493.763493 104.664036 
Q 493.763493 111.588639 496.391883 115.369097 
Q 499.020273 119.140198 503.856511 119.140198 
Q 505.174211 119.140198 506.302666 118.924974 
Q 507.431121 118.700392 508.328279 118.232514 
L 508.328279 109.754555 
L 503.176634 109.754555 
L 503.176634 102.202995 
L 516.318584 102.202995 
z
" style="fill:#ffa600;"/>
   </g>
   <g id="patch_34">
    <path clip-path="url(#p74d32a0104)" d="M 485.044248 21.6 
L 516.318584 21.6 
L 516.318584 33.379683 
L 505.067096 33.379683 
L 505.067096 82 
L 496.317555 82 
L 496.317555 33.379683 
L 485.044248 33.379683 
z
" style="fill:#ff0000;"/>
   </g>
   <g id="patch_35">
    <path clip-path="url(#p74d32a0104)" d="M 539.628362 154.74925 
L 527.600755 154.74925 
L 525.701659 157.5 
L 517.964602 157.5 
L 529.013887 142.4 
L 538.189653 142.4 
L 549.238938 157.5 
L 541.508275 157.5 
z
M 529.519034 151.946721 
L 537.690901 151.946721 
L 533.611361 145.940377 
z
" style="fill:#008000;"/>
   </g>
   <g id="patch_36">
    <path clip-path="url(#p74d32a0104)" d="M 549.238938 140.235282 
Q 546.622894 141.308283 543.794099 141.851023 
Q 540.965304 142.4 537.88436 142.4 
Q 528.696687 142.4 523.330644 138.332576 
Q 517.964602 134.265152 517.964602 127.309358 
Q 517.964602 120.32861 523.330644 116.267424 
Q 528.696687 112.2 537.88436 112.2 
Q 540.965304 112.2 543.794099 112.748977 
Q 546.622894 113.291717 549.238938 114.364718 
L 549.238938 120.384755 
Q 546.599255 118.962404 544.038368 118.301136 
Q 541.477481 117.639868 538.648687 117.639868 
Q 533.574191 117.639868 530.6666 120.216319 
Q 527.766888 122.786532 527.766888 127.309358 
Q 527.766888 131.813468 530.6666 134.389919 
Q 533.574191 136.960132 538.648687 136.960132 
Q 541.477481 136.960132 544.038368 136.298864 
Q 546.599255 135.631357 549.238938 134.209006 
z
" style="fill:#0000ff;"/>
   </g>
   <g id="patch_37">
    <path clip-path="url(#p74d32a0104)" d="M 517.964602 21.6 
L 549.238938 21.6 
L 549.238938 39.269524 
L 537.98745 39.269524 
L 537.98745 112.2 
L 529.237909 112.2 
L 529.237909 39.269524 
L 517.964602 39.269524 
z
" style="fill:#ff0000;"/>
   </g>
   <g id="patch_38">
    <path clip-path="url(#p74d32a0104)" d="M 582.159292 156.417641 
Q 579.543248 156.954142 576.714453 157.225511 
Q 573.885658 157.5 570.804714 157.5 
Q 561.617041 157.5 556.250998 155.466288 
Q 550.884956 153.432576 550.884956 149.954679 
Q 550.884956 146.464305 556.250998 144.433712 
Q 561.617041 142.4 570.804714 142.4 
Q 573.885658 142.4 576.714453 142.674489 
Q 579.543248 142.945858 582.159292 143.482359 
L 582.159292 146.492378 
Q 579.519609 145.781202 576.958722 145.450568 
Q 574.397835 145.119934 571.569041 145.119934 
Q 566.494545 145.119934 563.586954 146.408159 
Q 560.687242 147.693266 560.687242 149.954679 
Q 560.687242 152.206734 563.586954 153.49496 
Q 566.494545 154.780066 571.569041 154.780066 
Q 574.397835 154.780066 576.958722 154.449432 
Q 579.519609 154.115679 582.159292 153.404503 
z
" style="fill:#0000ff;"/>
   </g>
   <g id="patch_39">
    <path clip-path="url(#p74d32a0104)" d="M 550.884956 127.3 
L 582.159292 127.3 
L 582.159292 130.244921 
L 570.907804 130.244921 
L 570.907804 142.4 
L 562.158263 142.4 
L 562.158263 130.244921 
L 550.884956 130.244921 
z
" style="fill:#ff0000;"/>
   </g>
   <g id="patch_40">
    <path clip-path="url(#p74d32a0104)" d="M 572.548716 108.044749 
L 560.521109 108.044749 
L 558.622013 127.3 
L 550.884956 127.3 
L 561.934241 21.6 
L 571.110007 21.6 
L 582.159292 127.3 
L 574.428629 127.3 
z
M 562.439387 88.427047 
L 570.611255 88.427047 
L 566.531715 46.38264 
z
" style="fill:#008000;"/>
   </g>
   <g id="patch_41">
    <path clip-path="url(#p74d32a0104)" d="M 605.46907 154.74925 
L 593.441463 154.74925 
L 591.542367 157.5 
L 583.80531 157.5 
L 594.854595 142.4 
L 604.030361 142.4 
L 615.079646 157.5 
L 607.348983 157.5 
z
M 595.359741 151.946721 
L 603.531609 151.946721 
L 599.452069 145.940377 
z
" style="fill:#008000;"/>
   </g>
   <g id="patch_42">
    <path clip-path="url(#p74d32a0104)" d="M 583.80531 112.2 
L 615.079646 112.2 
L 615.079646 118.089841 
L 603.828158 118.089841 
L 603.828158 142.4 
L 595.078617 142.4 
L 595.078617 118.089841 
L 583.80531 118.089841 
z
" style="fill:#ff0000;"/>
   </g>
   <g id="patch_43">
    <path clip-path="url(#p74d32a0104)" d="M 615.079646 104.002768 
Q 611.925578 108.101384 608.533203 110.16005 
Q 605.140827 112.2 601.524163 112.2 
Q 593.351622 112.2 588.578466 99.997728 
Q 583.80531 87.795455 583.80531 66.928073 
Q 583.80531 45.817393 588.662574 33.708697 
Q 593.526848 21.6 601.986759 21.6 
Q 605.245963 21.6 608.231814 23.246932 
Q 611.224674 24.87515 613.874091 28.094154 
L 613.874091 46.154266 
Q 611.140566 42.018219 608.435076 39.978269 
Q 605.729587 37.919603 603.010079 37.919603 
Q 597.977589 37.919603 595.251072 45.44309 
Q 592.524555 52.947862 592.524555 66.928073 
Q 592.524555 80.777277 595.152945 88.338195 
Q 597.781335 95.880397 602.617573 95.880397 
Q 603.935272 95.880397 605.063728 95.449948 
Q 606.192183 95.000785 607.08934 94.065028 
L 607.08934 77.10911 
L 601.937696 77.10911 
L 601.937696 62.00599 
L 615.079646 62.00599 
z
" style="fill:#ffa600;"/>
   </g>
   <g id="patch_44">
    <path clip-path="url(#p74d32a0104)" d="M 638.389424 154.74925 
L 626.361817 154.74925 
L 624.462721 157.5 
L 616.725664 157.5 
L 627.774949 142.4 
L 636.950715 142.4 
L 648 157.5 
L 640.269337 157.5 
z
M 628.280095 151.946721 
L 636.451963 151.946721 
L 632.372423 145.940377 
z
" style="fill:#008000;"/>
   </g>
   <g id="patch_45">
    <path clip-path="url(#p74d32a0104)" d="M 648 140.235282 
Q 645.383956 141.308283 642.555161 141.851023 
Q 639.726366 142.4 636.645422 142.4 
Q 627.457749 142.4 622.091706 138.332576 
Q 616.725664 134.265152 616.725664 127.309358 
Q 616.725664 120.32861 622.091706 116.267424 
Q 627.457749 112.2 636.645422 112.2 
Q 639.726366 112.2 642.555161 112.748977 
Q 645.383956 113.291717 648 114.364718 
L 648 120.384755 
Q 645.360317 118.962404 642.79943 118.301136 
Q 640.238543 117.639868 637.409749 117.639868 
Q 632.335253 117.639868 629.427662 120.216319 
Q 626.52795 122.786532 626.52795 127.309358 
Q 626.52795 131.813468 629.427662 134.389919 
Q 632.335253 136.960132 637.409749 136.960132 
Q 640.238543 136.960132 642.79943 136.298864 
Q 645.360317 135.631357 648 134.209006 
z
" style="fill:#0000ff;"/>
   </g>
   <g id="patch_46">
    <path clip-path="url(#p74d32a0104)" d="M 616.725664 82 
L 648 82 
L 648 87.889841 
L 636.748512 87.889841 
L 636.748512 112.2 
L 627.998971 112.2 
L 627.998971 87.889841 
L 616.725664 87.889841 
z
" style="fill:#ff0000;"/>
   </g>
   <g id="patch_47">
    <path clip-path="url(#p74d32a0104)" d="M 648 76.535179 
Q 644.845932 79.267589 641.453557 80.640033 
Q 638.061181 82 634.444517 82 
Q 626.271976 82 621.49882 73.865152 
Q 616.725664 65.730304 616.725664 51.818715 
Q 616.725664 37.744929 621.582928 29.672464 
Q 626.447202 21.6 634.907113 21.6 
Q 638.166317 21.6 641.152168 22.697955 
Q 644.145028 23.783433 646.794445 25.929436 
L 646.794445 37.96951 
Q 644.06092 35.212146 641.35543 33.852179 
Q 638.649941 32.479736 635.930433 32.479736 
Q 630.897943 32.479736 628.171426 37.495394 
Q 625.444909 42.498575 625.444909 51.818715 
Q 625.444909 61.051518 628.073299 66.09213 
Q 630.701689 71.120264 635.537927 71.120264 
Q 636.855626 71.120264 637.984082 70.833299 
Q 639.112537 70.533857 640.009694 69.910019 
L 640.009694 58.606073 
L 634.85805 58.606073 
L 634.85805 48.537327 
L 648 48.537327 
z
" style="fill:#ffa600;"/>
   </g>
  </g>
 </g>
 <defs>
  <clipPath id="p74d32a0104">
   <rect height="135.9" width="558" x="90" y="21.6"/>
  </clipPath>
 </defs>
</svg>
