<?xml version="1.0" encoding="utf-8" standalone="no"?>
<!DOCTYPE svg PUBLIC "-//W3C//DTD SVG 1.1//EN"
  "http://www.w3.org/Graphics/SVG/1.1/DTD/svg11.dtd">
<!-- Created with matplotlib (https://matplotlib.org/) -->
<svg height="180pt" version="1.1" viewBox="0 0 720 180" width="720pt" xmlns="http://www.w3.org/2000/svg" xmlns:xlink="http://www.w3.org/1999/xlink">
 <metadata>
  <rdf:RDF xmlns:cc="http://creativecommons.org/ns#" xmlns:dc="http://purl.org/dc/elements/1.1/" xmlns:rdf="http://www.w3.org/1999/02/22-rdf-syntax-ns#">
   <cc:Work>
    <dc:type rdf:resource="http://purl.org/dc/dcmitype/StillImage"/>
    <dc:date>2021-08-04T23:33:36.772823</dc:date>
    <dc:format>image/svg+xml</dc:format>
    <dc:creator>
     <cc:Agent>
      <dc:title>Matplotlib v3.3.2, https://matplotlib.org/</dc:title>
     </cc:Agent>
    </dc:creator>
   </cc:Work>
  </rdf:RDF>
 </metadata>
 <defs>
  <style type="text/css">*{stroke-linecap:butt;stroke-linejoin:round;}</style>
 </defs>
 <g id="figure_1">
  <g id="patch_1">
   <path d="M 0 180 
L 720 180 
L 720 0 
L 0 0 
z
" style="fill:none;"/>
  </g>
  <g id="axes_1">
   <g id="line2d_1">
    <path clip-path="url(#p6a6073c10b)" d="M 90 157.5 
L 648 157.5 
" style="fill:none;stroke:#000000;stroke-linecap:square;stroke-width:0.5;"/>
   </g>
   <g id="patch_2">
    <path clip-path="url(#p6a6073c10b)" d="M 90 142.4 
L 121.274336 142.4 
L 121.274336 145.344921 
L 110.022848 145.344921 
L 110.022848 157.5 
L 101.273307 157.5 
L 101.273307 145.344921 
L 90 145.344921 
z
" style="fill:#ff0000;"/>
   </g>
   <g id="patch_3">
    <path clip-path="url(#p6a6073c10b)" d="M 121.274336 140.235282 
Q 118.658292 141.308283 115.829497 141.851023 
Q 113.000702 142.4 109.919759 142.4 
Q 100.732085 142.4 95.366043 138.332576 
Q 90 134.265152 90 127.309358 
Q 90 120.32861 95.366043 116.267424 
Q 100.732085 112.2 109.919759 112.2 
Q 113.000702 112.2 115.829497 112.748977 
Q 118.658292 113.291717 121.274336 114.364718 
L 121.274336 120.384755 
Q 118.634653 118.962404 116.073766 118.301136 
Q 113.51288 117.639868 110.684085 117.639868 
Q 105.609589 117.639868 102.701998 120.216319 
Q 99.802286 122.786532 99.802286 127.309358 
Q 99.802286 131.813468 102.701998 134.389919 
Q 105.609589 136.960132 110.684085 136.960132 
Q 113.51288 136.960132 116.073766 136.298864 
Q 118.634653 135.631357 121.274336 134.209006 
z
" style="fill:#0000ff;"/>
   </g>
   <g id="patch_4">
    <path clip-path="url(#p6a6073c10b)" d="M 111.66376 103.94775 
L 99.636153 103.94775 
L 97.737057 112.2 
L 90 112.2 
L 101.049285 66.9 
L 110.225051 66.9 
L 121.274336 112.2 
L 113.543673 112.2 
z
M 101.554432 95.540163 
L 109.726299 95.540163 
L 105.64676 77.521132 
z
" style="fill:#008000;"/>
   </g>
   <g id="patch_5">
    <path clip-path="url(#p6a6073c10b)" d="M 121.274336 62.801384 
Q 118.120268 64.850692 114.727893 65.880025 
Q 111.335518 66.9 107.718853 66.9 
Q 99.546312 66.9 94.773156 60.798864 
Q 90 54.697728 90 44.264036 
Q 90 33.708697 94.857265 27.654348 
Q 99.721538 21.6 108.18145 21.6 
Q 111.440653 21.6 114.426504 22.423466 
Q 117.419364 23.237575 120.068781 24.847077 
L 120.068781 33.877133 
Q 117.335256 31.80911 114.629766 30.789134 
Q 111.924277 29.759802 109.204769 29.759802 
Q 104.172279 29.759802 101.445762 33.521545 
Q 98.719246 37.273931 98.719246 44.264036 
Q 98.719246 51.188639 101.347636 54.969097 
Q 103.976026 58.740198 108.812263 58.740198 
Q 110.129963 58.740198 111.258418 58.524974 
Q 112.386874 58.300392 113.284031 57.832514 
L 113.284031 49.354555 
L 108.132386 49.354555 
L 108.132386 41.802995 
L 121.274336 41.802995 
z
" style="fill:#ffa600;"/>
   </g>
   <g id="patch_6">
    <path clip-path="url(#p6a6073c10b)" d="M 154.19469 155.335282 
Q 151.578646 156.408283 148.749851 156.951023 
Q 145.921056 157.5 142.840113 157.5 
Q 133.652439 157.5 128.286397 153.432576 
Q 122.920354 149.365152 122.920354 142.409358 
Q 122.920354 135.42861 128.286397 131.367424 
Q 133.652439 127.3 142.840113 127.3 
Q 145.921056 127.3 148.749851 127.848977 
Q 151.578646 128.391717 154.19469 129.464718 
L 154.19469 135.484755 
Q 151.555007 134.062404 148.99412 133.401136 
Q 146.433234 132.739868 143.604439 132.739868 
Q 138.529943 132.739868 135.622352 135.316319 
Q 132.72264 137.886532 132.72264 142.409358 
Q 132.72264 146.913468 135.622352 149.489919 
Q 138.529943 152.060132 143.604439 152.060132 
Q 146.433234 152.060132 148.99412 151.398864 
Q 151.555007 150.731357 154.19469 149.309006 
z
" style="fill:#0000ff;"/>
   </g>
   <g id="patch_7">
    <path clip-path="url(#p6a6073c10b)" d="M 144.584114 108.044749 
L 132.556507 108.044749 
L 130.657411 127.3 
L 122.920354 127.3 
L 133.969639 21.6 
L 143.145405 21.6 
L 154.19469 127.3 
L 146.464027 127.3 
z
M 134.474786 88.427047 
L 142.646653 88.427047 
L 138.567114 46.38264 
z
" style="fill:#008000;"/>
   </g>
   <g id="patch_8">
    <path clip-path="url(#p6a6073c10b)" d="M 177.504468 151.9985 
L 165.476861 151.9985 
L 163.577765 157.5 
L 155.840708 157.5 
L 166.889993 127.3 
L 176.065759 127.3 
L 187.115044 157.5 
L 179.384381 157.5 
z
M 167.39514 146.393442 
L 175.567007 146.393442 
L 171.487467 134.380754 
z
" style="fill:#008000;"/>
   </g>
   <g id="patch_9">
    <path clip-path="url(#p6a6073c10b)" d="M 155.840708 21.6 
L 187.115044 21.6 
L 187.115044 42.214445 
L 175.863556 42.214445 
L 175.863556 127.3 
L 167.114015 127.3 
L 167.114015 42.214445 
L 155.840708 42.214445 
z
" style="fill:#ff0000;"/>
   </g>
   <g id="patch_10">
    <path clip-path="url(#p6a6073c10b)" d="M 210.424822 154.74925 
L 198.397215 154.74925 
L 196.498119 157.5 
L 188.761062 157.5 
L 199.810347 142.4 
L 208.986113 142.4 
L 220.035398 157.5 
L 212.304735 157.5 
z
M 200.315494 151.946721 
L 208.487361 151.946721 
L 204.407821 145.940377 
z
" style="fill:#008000;"/>
   </g>
   <g id="patch_11">
    <path clip-path="url(#p6a6073c10b)" d="M 188.761062 127.3 
L 220.035398 127.3 
L 220.035398 130.244921 
L 208.78391 130.244921 
L 208.78391 142.4 
L 200.034369 142.4 
L 200.034369 130.244921 
L 188.761062 130.244921 
z
" style="fill:#ff0000;"/>
   </g>
   <g id="patch_12">
    <path clip-path="url(#p6a6073c10b)" d="M 220.035398 117.736563 
Q 216.88133 122.518281 213.488955 124.920058 
Q 210.09658 127.3 206.479915 127.3 
Q 198.307374 127.3 193.534218 113.064016 
Q 188.761062 98.828031 188.761062 74.482751 
Q 188.761062 49.853625 193.618327 35.726813 
Q 198.4826 21.6 206.942512 21.6 
Q 210.201715 21.6 213.187566 23.521421 
Q 216.180426 25.421008 218.829843 29.176513 
L 218.829843 50.246643 
Q 216.096318 45.421256 213.390828 43.041314 
Q 210.685339 40.639537 207.965831 40.639537 
Q 202.933341 40.639537 200.206824 49.416939 
Q 197.480308 58.172506 197.480308 74.482751 
Q 197.480308 90.640157 200.108698 99.461227 
Q 202.737088 108.260463 207.573325 108.260463 
Q 208.891025 108.260463 210.01948 107.758273 
Q 211.147936 107.234249 212.045093 106.142533 
L 212.045093 86.360628 
L 206.893448 86.360628 
L 206.893448 68.740322 
L 220.035398 68.740322 
z
" style="fill:#ffa600;"/>
   </g>
   <g id="patch_13">
    <path clip-path="url(#p6a6073c10b)" d="M 243.345176 154.74925 
L 231.317569 154.74925 
L 229.418473 157.5 
L 221.681416 157.5 
L 232.730701 142.4 
L 241.906467 142.4 
L 252.955752 157.5 
L 245.225089 157.5 
z
M 233.235848 151.946721 
L 241.407715 151.946721 
L 237.328175 145.940377 
z
" style="fill:#008000;"/>
   </g>
   <g id="patch_14">
    <path clip-path="url(#p6a6073c10b)" d="M 252.955752 141.317641 
Q 250.339708 141.854142 247.510913 142.125511 
Q 244.682118 142.4 241.601175 142.4 
Q 232.413501 142.4 227.047459 140.366288 
Q 221.681416 138.332576 221.681416 134.854679 
Q 221.681416 131.364305 227.047459 129.333712 
Q 232.413501 127.3 241.601175 127.3 
Q 244.682118 127.3 247.510913 127.574489 
Q 250.339708 127.845858 252.955752 128.382359 
L 252.955752 131.392378 
Q 250.316069 130.681202 247.755182 130.350568 
Q 245.194296 130.019934 242.365501 130.019934 
Q 237.291005 130.019934 234.383414 131.308159 
Q 231.483702 132.593266 231.483702 134.854679 
Q 231.483702 137.106734 234.383414 138.39496 
Q 237.291005 139.680066 242.365501 139.680066 
Q 245.194296 139.680066 247.755182 139.349432 
Q 250.316069 139.015679 252.955752 138.304503 
z
" style="fill:#0000ff;"/>
   </g>
   <g id="patch_15">
    <path clip-path="url(#p6a6073c10b)" d="M 221.681416 82 
L 252.955752 82 
L 252.955752 90.834762 
L 241.704264 90.834762 
L 241.704264 127.3 
L 232.954723 127.3 
L 232.954723 90.834762 
L 221.681416 90.834762 
z
" style="fill:#ff0000;"/>
   </g>
   <g id="patch_16">
    <path clip-path="url(#p6a6073c10b)" d="M 252.955752 76.535179 
Q 249.801684 79.267589 246.409309 80.640033 
Q 243.016934 82 239.400269 82 
Q 231.227728 82 226.454572 73.865152 
Q 221.681416 65.730304 221.681416 51.818715 
Q 221.681416 37.744929 226.538681 29.672464 
Q 231.402954 21.6 239.862866 21.6 
Q 243.122069 21.6 246.10792 22.697955 
Q 249.10078 23.783433 251.750197 25.929436 
L 251.750197 37.96951 
Q 249.016672 35.212146 246.311182 33.852179 
Q 243.605693 32.479736 240.886185 32.479736 
Q 235.853695 32.479736 233.127178 37.495394 
Q 230.400662 42.498575 230.400662 51.818715 
Q 230.400662 61.051518 233.029052 66.09213 
Q 235.657442 71.120264 240.493679 71.120264 
Q 241.811379 71.120264 242.939834 70.833299 
Q 244.06829 70.533857 244.965447 69.910019 
L 244.965447 58.606073 
L 239.813802 58.606073 
L 239.813802 48.537327 
L 252.955752 48.537327 
z
" style="fill:#ffa600;"/>
   </g>
   <g id="patch_17">
    <path clip-path="url(#p6a6073c10b)" d="M 254.60177 142.4 
L 285.876106 142.4 
L 285.876106 145.344921 
L 274.624618 145.344921 
L 274.624618 157.5 
L 265.875077 157.5 
L 265.875077 145.344921 
L 254.60177 145.344921 
z
" style="fill:#ff0000;"/>
   </g>
   <g id="patch_18">
    <path clip-path="url(#p6a6073c10b)" d="M 285.876106 139.152923 
Q 283.260062 140.762425 280.431267 141.576534 
Q 277.602472 142.4 274.521529 142.4 
Q 265.333855 142.4 259.967812 136.298864 
Q 254.60177 130.197728 254.60177 119.764036 
Q 254.60177 109.292915 259.967812 103.201136 
Q 265.333855 97.1 274.521529 97.1 
Q 277.602472 97.1 280.431267 97.923466 
Q 283.260062 98.737575 285.876106 100.347077 
L 285.876106 109.377133 
Q 283.236423 107.243607 280.675536 106.251704 
Q 278.11465 105.259802 275.285855 105.259802 
Q 270.211359 105.259802 267.303768 109.124478 
Q 264.404056 112.979798 264.404056 119.764036 
Q 264.404056 126.520202 267.303768 130.384879 
Q 270.211359 134.240198 275.285855 134.240198 
Q 278.11465 134.240198 280.675536 133.248296 
Q 283.236423 132.247036 285.876106 130.11351 
z
" style="fill:#0000ff;"/>
   </g>
   <g id="patch_19">
    <path clip-path="url(#p6a6073c10b)" d="M 276.26553 83.346249 
L 264.237923 83.346249 
L 262.338827 97.1 
L 254.60177 97.1 
L 265.651055 21.6 
L 274.826821 21.6 
L 285.876106 97.1 
L 278.145443 97.1 
z
M 266.156202 69.333605 
L 274.328069 69.333605 
L 270.248529 39.301886 
z
" style="fill:#008000;"/>
   </g>
   <g id="patch_20">
    <path clip-path="url(#p6a6073c10b)" d="M 318.79646 156.133795 
Q 315.642392 156.816897 312.250017 157.160008 
Q 308.857642 157.5 305.240977 157.5 
Q 297.068436 157.5 292.29528 155.466288 
Q 287.522124 153.432576 287.522124 149.954679 
Q 287.522124 146.436232 292.379389 144.418116 
Q 297.243662 142.4 305.703574 142.4 
Q 308.962777 142.4 311.948628 142.674489 
Q 314.941488 142.945858 317.590905 143.482359 
L 317.590905 146.492378 
Q 314.85738 145.803037 312.15189 145.463045 
Q 309.446401 145.119934 306.726893 145.119934 
Q 301.694403 145.119934 298.967886 146.373848 
Q 296.24137 147.624644 296.24137 149.954679 
Q 296.24137 152.26288 298.86976 153.523032 
Q 301.49815 154.780066 306.334387 154.780066 
Q 307.652087 154.780066 308.780542 154.708325 
Q 309.908998 154.633464 310.806155 154.477505 
L 310.806155 151.651518 
L 305.65451 151.651518 
L 305.65451 149.134332 
L 318.79646 149.134332 
z
" style="fill:#ffa600;"/>
   </g>
   <g id="patch_21">
    <path clip-path="url(#p6a6073c10b)" d="M 287.522124 112.2 
L 318.79646 112.2 
L 318.79646 118.089841 
L 307.544972 118.089841 
L 307.544972 142.4 
L 298.795431 142.4 
L 298.795431 118.089841 
L 287.522124 118.089841 
z
" style="fill:#ff0000;"/>
   </g>
   <g id="patch_22">
    <path clip-path="url(#p6a6073c10b)" d="M 318.79646 105.705846 
Q 316.180416 108.92485 313.351621 110.553068 
Q 310.522826 112.2 307.441883 112.2 
Q 298.254209 112.2 292.888166 99.997728 
Q 287.522124 87.795455 287.522124 66.928073 
Q 287.522124 45.985829 292.888166 33.802272 
Q 298.254209 21.6 307.441883 21.6 
Q 310.522826 21.6 313.351621 23.246932 
Q 316.180416 24.87515 318.79646 28.094154 
L 318.79646 46.154266 
Q 316.156777 41.887213 313.59589 39.903408 
Q 311.035004 37.919603 308.206209 37.919603 
Q 303.131713 37.919603 300.224122 45.648957 
Q 297.32441 53.359595 297.32441 66.928073 
Q 297.32441 80.440405 300.224122 88.169758 
Q 303.131713 95.880397 308.206209 95.880397 
Q 311.035004 95.880397 313.59589 93.896592 
Q 316.156777 91.894071 318.79646 87.627019 
z
" style="fill:#0000ff;"/>
   </g>
   <g id="patch_23">
    <path clip-path="url(#p6a6073c10b)" d="M 351.716814 156.133795 
Q 348.562746 156.816897 345.170371 157.160008 
Q 341.777996 157.5 338.161331 157.5 
Q 329.98879 157.5 325.215634 155.466288 
Q 320.442478 153.432576 320.442478 149.954679 
Q 320.442478 146.436232 325.299743 144.418116 
Q 330.164016 142.4 338.623928 142.4 
Q 341.883131 142.4 344.868982 142.674489 
Q 347.861842 142.945858 350.511259 143.482359 
L 350.511259 146.492378 
Q 347.777734 145.803037 345.072244 145.463045 
Q 342.366755 145.119934 339.647247 145.119934 
Q 334.614757 145.119934 331.88824 146.373848 
Q 329.161724 147.624644 329.161724 149.954679 
Q 329.161724 152.26288 331.790114 153.523032 
Q 334.418504 154.780066 339.254741 154.780066 
Q 340.572441 154.780066 341.700896 154.708325 
Q 342.829351 154.633464 343.726509 154.477505 
L 343.726509 151.651518 
L 338.574864 151.651518 
L 338.574864 149.134332 
L 351.716814 149.134332 
z
" style="fill:#ffa600;"/>
   </g>
   <g id="patch_24">
    <path clip-path="url(#p6a6073c10b)" d="M 342.106238 136.8985 
L 330.078631 136.8985 
L 328.179535 142.4 
L 320.442478 142.4 
L 331.491763 112.2 
L 340.667529 112.2 
L 351.716814 142.4 
L 343.986151 142.4 
z
M 331.99691 131.293442 
L 340.168777 131.293442 
L 336.089237 119.280754 
z
" style="fill:#008000;"/>
   </g>
   <g id="patch_25">
    <path clip-path="url(#p6a6073c10b)" d="M 351.716814 105.705846 
Q 349.10077 108.92485 346.271975 110.553068 
Q 343.44318 112.2 340.362237 112.2 
Q 331.174563 112.2 325.80852 99.997728 
Q 320.442478 87.795455 320.442478 66.928073 
Q 320.442478 45.985829 325.80852 33.802272 
Q 331.174563 21.6 340.362237 21.6 
Q 343.44318 21.6 346.271975 23.246932 
Q 349.10077 24.87515 351.716814 28.094154 
L 351.716814 46.154266 
Q 349.077131 41.887213 346.516244 39.903408 
Q 343.955358 37.919603 341.126563 37.919603 
Q 336.052067 37.919603 333.144476 45.648957 
Q 330.244764 53.359595 330.244764 66.928073 
Q 330.244764 80.440405 333.144476 88.169758 
Q 336.052067 95.880397 341.126563 95.880397 
Q 343.955358 95.880397 346.516244 93.896592 
Q 349.077131 91.894071 351.716814 87.627019 
z
" style="fill:#0000ff;"/>
   </g>
   <g id="patch_26">
    <path clip-path="url(#p6a6073c10b)" d="M 384.637168 156.133795 
Q 381.4831 156.816897 378.090725 157.160008 
Q 374.698349 157.5 371.081685 157.5 
Q 362.909144 157.5 358.135988 155.466288 
Q 353.362832 153.432576 353.362832 149.954679 
Q 353.362832 146.436232 358.220097 144.418116 
Q 363.08437 142.4 371.544282 142.4 
Q 374.803485 142.4 377.789336 142.674489 
Q 380.782196 142.945858 383.431613 143.482359 
L 383.431613 146.492378 
Q 380.698088 145.803037 377.992598 145.463045 
Q 375.287109 145.119934 372.567601 145.119934 
Q 367.535111 145.119934 364.808594 146.373848 
Q 362.082078 147.624644 362.082078 149.954679 
Q 362.082078 152.26288 364.710468 153.523032 
Q 367.338858 154.780066 372.175095 154.780066 
Q 373.492795 154.780066 374.62125 154.708325 
Q 375.749705 154.633464 376.646863 154.477505 
L 376.646863 151.651518 
L 371.495218 151.651518 
L 371.495218 149.134332 
L 384.637168 149.134332 
z
" style="fill:#ffa600;"/>
   </g>
   <g id="patch_27">
    <path clip-path="url(#p6a6073c10b)" d="M 375.026592 136.8985 
L 362.998985 136.8985 
L 361.099889 142.4 
L 353.362832 142.4 
L 364.412117 112.2 
L 373.587883 112.2 
L 384.637168 142.4 
L 376.906505 142.4 
z
M 364.917264 131.293442 
L 373.089131 131.293442 
L 369.009591 119.280754 
z
" style="fill:#008000;"/>
   </g>
   <g id="patch_28">
    <path clip-path="url(#p6a6073c10b)" d="M 353.362832 82 
L 384.637168 82 
L 384.637168 87.889841 
L 373.38568 87.889841 
L 373.38568 112.2 
L 364.636139 112.2 
L 364.636139 87.889841 
L 353.362832 87.889841 
z
" style="fill:#ff0000;"/>
   </g>
   <g id="patch_29">
    <path clip-path="url(#p6a6073c10b)" d="M 384.637168 77.670564 
Q 382.021124 79.816567 379.192329 80.902045 
Q 376.363534 82 373.282591 82 
Q 364.094917 82 358.728874 73.865152 
Q 353.362832 65.730304 353.362832 51.818715 
Q 353.362832 37.85722 358.728874 29.734848 
Q 364.094917 21.6 373.282591 21.6 
Q 376.363534 21.6 379.192329 22.697955 
Q 382.021124 23.783433 384.637168 25.929436 
L 384.637168 37.96951 
Q 381.997485 35.124809 379.436598 33.802272 
Q 376.875712 32.479736 374.046917 32.479736 
Q 368.972421 32.479736 366.06483 37.632638 
Q 363.165118 42.773063 363.165118 51.818715 
Q 363.165118 60.826937 366.06483 65.979839 
Q 368.972421 71.120264 374.046917 71.120264 
Q 376.875712 71.120264 379.436598 69.797728 
Q 381.997485 68.462714 384.637168 65.618013 
z
" style="fill:#0000ff;"/>
   </g>
   <g id="patch_30">
    <path clip-path="url(#p6a6073c10b)" d="M 407.946946 151.9985 
L 395.919339 151.9985 
L 394.020243 157.5 
L 386.283186 157.5 
L 397.332471 127.3 
L 406.508237 127.3 
L 417.557522 157.5 
L 409.826859 157.5 
z
M 397.837618 146.393442 
L 406.009485 146.393442 
L 401.929945 134.380754 
z
" style="fill:#008000;"/>
   </g>
   <g id="patch_31">
    <path clip-path="url(#p6a6073c10b)" d="M 417.557522 123.201384 
Q 414.403454 125.250692 411.011079 126.280025 
Q 407.618703 127.3 404.002039 127.3 
Q 395.829498 127.3 391.056342 121.198864 
Q 386.283186 115.097728 386.283186 104.664036 
Q 386.283186 94.108697 391.140451 88.054348 
Q 396.004724 82 404.464635 82 
Q 407.723839 82 410.70969 82.823466 
Q 413.70255 83.637575 416.351967 85.247077 
L 416.351967 94.277133 
Q 413.618442 92.20911 410.912952 91.189134 
Q 408.207463 90.159802 405.487955 90.159802 
Q 400.455465 90.159802 397.728948 93.921545 
Q 395.002432 97.673931 395.002432 104.664036 
Q 395.002432 111.588639 397.630822 115.369097 
Q 400.259212 119.140198 405.095449 119.140198 
Q 406.413149 119.140198 407.541604 118.924974 
Q 408.670059 118.700392 409.567217 118.232514 
L 409.567217 109.754555 
L 404.415572 109.754555 
L 404.415572 102.202995 
L 417.557522 102.202995 
z
" style="fill:#ffa600;"/>
   </g>
   <g id="patch_32">
    <path clip-path="url(#p6a6073c10b)" d="M 417.557522 77.670564 
Q 414.941478 79.816567 412.112683 80.902045 
Q 409.283888 82 406.202945 82 
Q 397.015271 82 391.649228 73.865152 
Q 386.283186 65.730304 386.283186 51.818715 
Q 386.283186 37.85722 391.649228 29.734848 
Q 397.015271 21.6 406.202945 21.6 
Q 409.283888 21.6 412.112683 22.697955 
Q 414.941478 23.783433 417.557522 25.929436 
L 417.557522 37.96951 
Q 414.917839 35.124809 412.356952 33.802272 
Q 409.796066 32.479736 406.967271 32.479736 
Q 401.892775 32.479736 398.985184 37.632638 
Q 396.085472 42.773063 396.085472 51.818715 
Q 396.085472 60.826937 398.985184 65.979839 
Q 401.892775 71.120264 406.967271 71.120264 
Q 409.796066 71.120264 412.356952 69.797728 
Q 414.917839 68.462714 417.557522 65.618013 
z
" style="fill:#0000ff;"/>
   </g>
   <g id="patch_33">
    <path clip-path="url(#p6a6073c10b)" d="M 419.20354 127.3 
L 450.477876 127.3 
L 450.477876 133.189841 
L 439.226388 133.189841 
L 439.226388 157.5 
L 430.476847 157.5 
L 430.476847 133.189841 
L 419.20354 133.189841 
z
" style="fill:#ff0000;"/>
   </g>
   <g id="patch_34">
    <path clip-path="url(#p6a6073c10b)" d="M 440.8673 108.044749 
L 428.839693 108.044749 
L 426.940597 127.3 
L 419.20354 127.3 
L 430.252825 21.6 
L 439.428591 21.6 
L 450.477876 127.3 
L 442.747213 127.3 
z
M 430.757972 88.427047 
L 438.929839 88.427047 
L 434.850299 46.38264 
z
" style="fill:#008000;"/>
   </g>
   <g id="patch_35">
    <path clip-path="url(#p6a6073c10b)" d="M 483.39823 156.133795 
Q 480.244162 156.816897 476.851787 157.160008 
Q 473.459411 157.5 469.842747 157.5 
Q 461.670206 157.5 456.89705 155.466288 
Q 452.123894 153.432576 452.123894 149.954679 
Q 452.123894 146.436232 456.981158 144.418116 
Q 461.845432 142.4 470.305343 142.4 
Q 473.564547 142.4 476.550398 142.674489 
Q 479.543258 142.945858 482.192675 143.482359 
L 482.192675 146.492378 
Q 479.45915 145.803037 476.75366 145.463045 
Q 474.048171 145.119934 471.328663 145.119934 
Q 466.296173 145.119934 463.569656 146.373848 
Q 460.84314 147.624644 460.84314 149.954679 
Q 460.84314 152.26288 463.471529 153.523032 
Q 466.099919 154.780066 470.936157 154.780066 
Q 472.253857 154.780066 473.382312 154.708325 
Q 474.510767 154.633464 475.407925 154.477505 
L 475.407925 151.651518 
L 470.25628 151.651518 
L 470.25628 149.134332 
L 483.39823 149.134332 
z
" style="fill:#ffa600;"/>
   </g>
   <g id="patch_36">
    <path clip-path="url(#p6a6073c10b)" d="M 452.123894 21.6 
L 483.39823 21.6 
L 483.39823 45.159366 
L 472.146742 45.159366 
L 472.146742 142.4 
L 463.397201 142.4 
L 463.397201 45.159366 
L 452.123894 45.159366 
z
" style="fill:#ff0000;"/>
   </g>
   <g id="patch_37">
    <path clip-path="url(#p6a6073c10b)" d="M 516.318584 155.335282 
Q 513.70254 156.408283 510.873745 156.951023 
Q 508.04495 157.5 504.964006 157.5 
Q 495.776333 157.5 490.41029 153.432576 
Q 485.044248 149.365152 485.044248 142.409358 
Q 485.044248 135.42861 490.41029 131.367424 
Q 495.776333 127.3 504.964006 127.3 
Q 508.04495 127.3 510.873745 127.848977 
Q 513.70254 128.391717 516.318584 129.464718 
L 516.318584 135.484755 
Q 513.678901 134.062404 511.118014 133.401136 
Q 508.557127 132.739868 505.728333 132.739868 
Q 500.653837 132.739868 497.746246 135.316319 
Q 494.846534 137.886532 494.846534 142.409358 
Q 494.846534 146.913468 497.746246 149.489919 
Q 500.653837 152.060132 505.728333 152.060132 
Q 508.557127 152.060132 511.118014 151.398864 
Q 513.678901 150.731357 516.318584 149.309006 
z
" style="fill:#0000ff;"/>
   </g>
   <g id="patch_38">
    <path clip-path="url(#p6a6073c10b)" d="M 516.318584 117.736563 
Q 513.164516 122.518281 509.772141 124.920058 
Q 506.379765 127.3 502.763101 127.3 
Q 494.59056 127.3 489.817404 113.064016 
Q 485.044248 98.828031 485.044248 74.482751 
Q 485.044248 49.853625 489.901512 35.726813 
Q 494.765786 21.6 503.225697 21.6 
Q 506.484901 21.6 509.470752 23.521421 
Q 512.463612 25.421008 515.113029 29.176513 
L 515.113029 50.246643 
Q 512.379504 45.421256 509.674014 43.041314 
Q 506.968525 40.639537 504.249017 40.639537 
Q 499.216527 40.639537 496.49001 49.416939 
Q 493.763493 58.172506 493.763493 74.482751 
Q 493.763493 90.640157 496.391883 99.461227 
Q 499.020273 108.260463 503.856511 108.260463 
Q 505.174211 108.260463 506.302666 107.758273 
Q 507.431121 107.234249 508.328279 106.142533 
L 508.328279 86.360628 
L 503.176634 86.360628 
L 503.176634 68.740322 
L 516.318584 68.740322 
z
" style="fill:#ffa600;"/>
   </g>
   <g id="patch_39">
    <path clip-path="url(#p6a6073c10b)" d="M 539.628362 154.74925 
L 527.600755 154.74925 
L 525.701659 157.5 
L 517.964602 157.5 
L 529.013887 142.4 
L 538.189653 142.4 
L 549.238938 157.5 
L 541.508275 157.5 
z
M 529.519034 151.946721 
L 537.690901 151.946721 
L 533.611361 145.940377 
z
" style="fill:#008000;"/>
   </g>
   <g id="patch_40">
    <path clip-path="url(#p6a6073c10b)" d="M 517.964602 127.3 
L 549.238938 127.3 
L 549.238938 130.244921 
L 537.98745 130.244921 
L 537.98745 142.4 
L 529.237909 142.4 
L 529.237909 130.244921 
L 517.964602 130.244921 
z
" style="fill:#ff0000;"/>
   </g>
   <g id="patch_41">
    <path clip-path="url(#p6a6073c10b)" d="M 549.238938 125.135282 
Q 546.622894 126.208283 543.794099 126.751023 
Q 540.965304 127.3 537.88436 127.3 
Q 528.696687 127.3 523.330644 123.232576 
Q 517.964602 119.165152 517.964602 112.209358 
Q 517.964602 105.22861 523.330644 101.167424 
Q 528.696687 97.1 537.88436 97.1 
Q 540.965304 97.1 543.794099 97.648977 
Q 546.622894 98.191717 549.238938 99.264718 
L 549.238938 105.284755 
Q 546.599255 103.862404 544.038368 103.201136 
Q 541.477481 102.539868 538.648687 102.539868 
Q 533.574191 102.539868 530.6666 105.116319 
Q 527.766888 107.686532 527.766888 112.209358 
Q 527.766888 116.713468 530.6666 119.289919 
Q 533.574191 121.860132 538.648687 121.860132 
Q 541.477481 121.860132 544.038368 121.198864 
Q 546.599255 120.531357 549.238938 119.109006 
z
" style="fill:#0000ff;"/>
   </g>
   <g id="patch_42">
    <path clip-path="url(#p6a6073c10b)" d="M 549.238938 90.268973 
Q 546.08487 93.684487 542.692495 95.400041 
Q 539.300119 97.1 535.683455 97.1 
Q 527.510914 97.1 522.737758 86.93144 
Q 517.964602 76.76288 517.964602 59.373394 
Q 517.964602 41.781161 522.821866 31.69058 
Q 527.68614 21.6 536.146051 21.6 
Q 539.405255 21.6 542.391106 22.972444 
Q 545.383966 24.329291 548.033383 27.011795 
L 548.033383 42.061888 
Q 545.299858 38.615183 542.594368 36.915224 
Q 539.888879 35.199669 537.169371 35.199669 
Q 532.136881 35.199669 529.410364 41.469242 
Q 526.683847 47.723218 526.683847 59.373394 
Q 526.683847 70.914398 529.312237 77.215162 
Q 531.940627 83.500331 536.776865 83.500331 
Q 538.094565 83.500331 539.22302 83.141624 
Q 540.351475 82.767321 541.248633 81.987523 
L 541.248633 67.857591 
L 536.096988 67.857591 
L 536.096988 55.271659 
L 549.238938 55.271659 
z
" style="fill:#ffa600;"/>
   </g>
   <g id="patch_43">
    <path clip-path="url(#p6a6073c10b)" d="M 582.159292 156.133795 
Q 579.005224 156.816897 575.612849 157.160008 
Q 572.220473 157.5 568.603809 157.5 
Q 560.431268 157.5 555.658112 155.466288 
Q 550.884956 153.432576 550.884956 149.954679 
Q 550.884956 146.436232 555.74222 144.418116 
Q 560.606494 142.4 569.066405 142.4 
Q 572.325609 142.4 575.31146 142.674489 
Q 578.30432 142.945858 580.953737 143.482359 
L 580.953737 146.492378 
Q 578.220212 145.803037 575.514722 145.463045 
Q 572.809233 145.119934 570.089725 145.119934 
Q 565.057235 145.119934 562.330718 146.373848 
Q 559.604201 147.624644 559.604201 149.954679 
Q 559.604201 152.26288 562.232591 153.523032 
Q 564.860981 154.780066 569.697219 154.780066 
Q 571.014919 154.780066 572.143374 154.708325 
Q 573.271829 154.633464 574.168986 154.477505 
L 574.168986 151.651518 
L 569.017342 151.651518 
L 569.017342 149.134332 
L 582.159292 149.134332 
z
" style="fill:#ffa600;"/>
   </g>
   <g id="patch_44">
    <path clip-path="url(#p6a6073c10b)" d="M 582.159292 140.235282 
Q 579.543248 141.308283 576.714453 141.851023 
Q 573.885658 142.4 570.804714 142.4 
Q 561.617041 142.4 556.250998 138.332576 
Q 550.884956 134.265152 550.884956 127.309358 
Q 550.884956 120.32861 556.250998 116.267424 
Q 561.617041 112.2 570.804714 112.2 
Q 573.885658 112.2 576.714453 112.748977 
Q 579.543248 113.291717 582.159292 114.364718 
L 582.159292 120.384755 
Q 579.519609 118.962404 576.958722 118.301136 
Q 574.397835 117.639868 571.569041 117.639868 
Q 566.494545 117.639868 563.586954 120.216319 
Q 560.687242 122.786532 560.687242 127.309358 
Q 560.687242 131.813468 563.586954 134.389919 
Q 566.494545 136.960132 571.569041 136.960132 
Q 574.397835 136.960132 576.958722 136.298864 
Q 579.519609 135.631357 582.159292 134.209006 
z
" style="fill:#0000ff;"/>
   </g>
   <g id="patch_45">
    <path clip-path="url(#p6a6073c10b)" d="M 550.884956 82 
L 582.159292 82 
L 582.159292 87.889841 
L 570.907804 87.889841 
L 570.907804 112.2 
L 562.158263 112.2 
L 562.158263 87.889841 
L 550.884956 87.889841 
z
" style="fill:#ff0000;"/>
   </g>
   <g id="patch_46">
    <path clip-path="url(#p6a6073c10b)" d="M 572.548716 70.997 
L 560.521109 70.997 
L 558.622013 82 
L 550.884956 82 
L 561.934241 21.6 
L 571.110007 21.6 
L 582.159292 82 
L 574.428629 82 
z
M 562.439387 59.786884 
L 570.611255 59.786884 
L 566.531715 35.761509 
z
" style="fill:#008000;"/>
   </g>
   <g id="patch_47">
    <path clip-path="url(#p6a6073c10b)" d="M 615.079646 156.133795 
Q 611.925578 156.816897 608.533203 157.160008 
Q 605.140827 157.5 601.524163 157.5 
Q 593.351622 157.5 588.578466 155.466288 
Q 583.80531 153.432576 583.80531 149.954679 
Q 583.80531 146.436232 588.662574 144.418116 
Q 593.526848 142.4 601.986759 142.4 
Q 605.245963 142.4 608.231814 142.674489 
Q 611.224674 142.945858 613.874091 143.482359 
L 613.874091 146.492378 
Q 611.140566 145.803037 608.435076 145.463045 
Q 605.729587 145.119934 603.010079 145.119934 
Q 597.977589 145.119934 595.251072 146.373848 
Q 592.524555 147.624644 592.524555 149.954679 
Q 592.524555 152.26288 595.152945 153.523032 
Q 597.781335 154.780066 602.617573 154.780066 
Q 603.935272 154.780066 605.063728 154.708325 
Q 606.192183 154.633464 607.08934 154.477505 
L 607.08934 151.651518 
L 601.937696 151.651518 
L 601.937696 149.134332 
L 615.079646 149.134332 
z
" style="fill:#ffa600;"/>
   </g>
   <g id="patch_48">
    <path clip-path="url(#p6a6073c10b)" d="M 605.46907 136.8985 
L 593.441463 136.8985 
L 591.542367 142.4 
L 583.80531 142.4 
L 594.854595 112.2 
L 604.030361 112.2 
L 615.079646 142.4 
L 607.348983 142.4 
z
M 595.359741 131.293442 
L 603.531609 131.293442 
L 599.452069 119.280754 
z
" style="fill:#008000;"/>
   </g>
   <g id="patch_49">
    <path clip-path="url(#p6a6073c10b)" d="M 615.079646 108.952923 
Q 612.463602 110.562425 609.634807 111.376534 
Q 606.806012 112.2 603.725068 112.2 
Q 594.537395 112.2 589.171352 106.098864 
Q 583.80531 99.997728 583.80531 89.564036 
Q 583.80531 79.092915 589.171352 73.001136 
Q 594.537395 66.9 603.725068 66.9 
Q 606.806012 66.9 609.634807 67.723466 
Q 612.463602 68.537575 615.079646 70.147077 
L 615.079646 79.177133 
Q 612.439963 77.043607 609.879076 76.051704 
Q 607.318189 75.059802 604.489395 75.059802 
Q 599.414899 75.059802 596.507308 78.924478 
Q 593.607596 82.779798 593.607596 89.564036 
Q 593.607596 96.320202 596.507308 100.184879 
Q 599.414899 104.040198 604.489395 104.040198 
Q 607.318189 104.040198 609.879076 103.048296 
Q 612.439963 102.047036 615.079646 99.91351 
z
" style="fill:#0000ff;"/>
   </g>
   <g id="patch_50">
    <path clip-path="url(#p6a6073c10b)" d="M 583.80531 21.6 
L 615.079646 21.6 
L 615.079646 30.434762 
L 603.828158 30.434762 
L 603.828158 66.9 
L 595.078617 66.9 
L 595.078617 30.434762 
L 583.80531 30.434762 
z
" style="fill:#ff0000;"/>
   </g>
   <g id="patch_51">
    <path clip-path="url(#p6a6073c10b)" d="M 648 156.133795 
Q 644.845932 156.816897 641.453557 157.160008 
Q 638.061181 157.5 634.444517 157.5 
Q 626.271976 157.5 621.49882 155.466288 
Q 616.725664 153.432576 616.725664 149.954679 
Q 616.725664 146.436232 621.582928 144.418116 
Q 626.447202 142.4 634.907113 142.4 
Q 638.166317 142.4 641.152168 142.674489 
Q 644.145028 142.945858 646.794445 143.482359 
L 646.794445 146.492378 
Q 644.06092 145.803037 641.35543 145.463045 
Q 638.649941 145.119934 635.930433 145.119934 
Q 630.897943 145.119934 628.171426 146.373848 
Q 625.444909 147.624644 625.444909 149.954679 
Q 625.444909 152.26288 628.073299 153.523032 
Q 630.701689 154.780066 635.537927 154.780066 
Q 636.855626 154.780066 637.984082 154.708325 
Q 639.112537 154.633464 640.009694 154.477505 
L 640.009694 151.651518 
L 634.85805 151.651518 
L 634.85805 149.134332 
L 648 149.134332 
z
" style="fill:#ffa600;"/>
   </g>
   <g id="patch_52">
    <path clip-path="url(#p6a6073c10b)" d="M 638.389424 136.8985 
L 626.361817 136.8985 
L 624.462721 142.4 
L 616.725664 142.4 
L 627.774949 112.2 
L 636.950715 112.2 
L 648 142.4 
L 640.269337 142.4 
z
M 628.280095 131.293442 
L 636.451963 131.293442 
L 632.372423 119.280754 
z
" style="fill:#008000;"/>
   </g>
   <g id="patch_53">
    <path clip-path="url(#p6a6073c10b)" d="M 648 108.952923 
Q 645.383956 110.562425 642.555161 111.376534 
Q 639.726366 112.2 636.645422 112.2 
Q 627.457749 112.2 622.091706 106.098864 
Q 616.725664 99.997728 616.725664 89.564036 
Q 616.725664 79.092915 622.091706 73.001136 
Q 627.457749 66.9 636.645422 66.9 
Q 639.726366 66.9 642.555161 67.723466 
Q 645.383956 68.537575 648 70.147077 
L 648 79.177133 
Q 645.360317 77.043607 642.79943 76.051704 
Q 640.238543 75.059802 637.409749 75.059802 
Q 632.335253 75.059802 629.427662 78.924478 
Q 626.52795 82.779798 626.52795 89.564036 
Q 626.52795 96.320202 629.427662 100.184879 
Q 632.335253 104.040198 637.409749 104.040198 
Q 640.238543 104.040198 642.79943 103.048296 
Q 645.360317 102.047036 648 99.91351 
z
" style="fill:#0000ff;"/>
   </g>
   <g id="patch_54">
    <path clip-path="url(#p6a6073c10b)" d="M 616.725664 21.6 
L 648 21.6 
L 648 30.434762 
L 636.748512 30.434762 
L 636.748512 66.9 
L 627.998971 66.9 
L 627.998971 30.434762 
L 616.725664 30.434762 
z
" style="fill:#ff0000;"/>
   </g>
  </g>
 </g>
 <defs>
  <clipPath id="p6a6073c10b">
   <rect height="135.9" width="558" x="90" y="21.6"/>
  </clipPath>
 </defs>
</svg>
