<?xml version="1.0" encoding="utf-8" standalone="no"?>
<!DOCTYPE svg PUBLIC "-//W3C//DTD SVG 1.1//EN"
  "http://www.w3.org/Graphics/SVG/1.1/DTD/svg11.dtd">
<!-- Created with matplotlib (https://matplotlib.org/) -->
<svg height="180pt" version="1.1" viewBox="0 0 720 180" width="720pt" xmlns="http://www.w3.org/2000/svg" xmlns:xlink="http://www.w3.org/1999/xlink">
 <metadata>
  <rdf:RDF xmlns:cc="http://creativecommons.org/ns#" xmlns:dc="http://purl.org/dc/elements/1.1/" xmlns:rdf="http://www.w3.org/1999/02/22-rdf-syntax-ns#">
   <cc:Work>
    <dc:type rdf:resource="http://purl.org/dc/dcmitype/StillImage"/>
    <dc:date>2021-08-04T23:33:08.364171</dc:date>
    <dc:format>image/svg+xml</dc:format>
    <dc:creator>
     <cc:Agent>
      <dc:title>Matplotlib v3.3.2, https://matplotlib.org/</dc:title>
     </cc:Agent>
    </dc:creator>
   </cc:Work>
  </rdf:RDF>
 </metadata>
 <defs>
  <style type="text/css">*{stroke-linecap:butt;stroke-linejoin:round;}</style>
 </defs>
 <g id="figure_1">
  <g id="patch_1">
   <path d="M 0 180 
L 720 180 
L 720 0 
L 0 0 
z
" style="fill:none;"/>
  </g>
  <g id="axes_1">
   <g id="line2d_1">
    <path clip-path="url(#p27bb7bc08d)" d="M 90 157.5 
L 648 157.5 
" style="fill:none;stroke:#000000;stroke-linecap:square;stroke-width:0.5;"/>
   </g>
   <g id="patch_2">
    <path clip-path="url(#p27bb7bc08d)" d="M 111.66376 151.9985 
L 99.636153 151.9985 
L 97.737057 157.5 
L 90 157.5 
L 101.049285 127.3 
L 110.225051 127.3 
L 121.274336 157.5 
L 113.543673 157.5 
z
M 101.554432 146.393442 
L 109.726299 146.393442 
L 105.64676 134.380754 
z
" style="fill:#008000;"/>
   </g>
   <g id="patch_3">
    <path clip-path="url(#p27bb7bc08d)" d="M 121.274336 125.135282 
Q 118.658292 126.208283 115.829497 126.751023 
Q 113.000702 127.3 109.919759 127.3 
Q 100.732085 127.3 95.366043 123.232576 
Q 90 119.165152 90 112.209358 
Q 90 105.22861 95.366043 101.167424 
Q 100.732085 97.1 109.919759 97.1 
Q 113.000702 97.1 115.829497 97.648977 
Q 118.658292 98.191717 121.274336 99.264718 
L 121.274336 105.284755 
Q 118.634653 103.862404 116.073766 103.201136 
Q 113.51288 102.539868 110.684085 102.539868 
Q 105.609589 102.539868 102.701998 105.116319 
Q 99.802286 107.686532 99.802286 112.209358 
Q 99.802286 116.713468 102.701998 119.289919 
Q 105.609589 121.860132 110.684085 121.860132 
Q 113.51288 121.860132 116.073766 121.198864 
Q 118.634653 120.531357 121.274336 119.109006 
z
" style="fill:#0000ff;"/>
   </g>
   <g id="patch_4">
    <path clip-path="url(#p27bb7bc08d)" d="M 121.274336 94.367589 
Q 118.120268 95.733795 114.727893 96.420017 
Q 111.335518 97.1 107.718853 97.1 
Q 99.546312 97.1 94.773156 93.032576 
Q 90 88.965152 90 82.009358 
Q 90 74.972464 94.857265 70.936232 
Q 99.721538 66.9 108.18145 66.9 
Q 111.440653 66.9 114.426504 67.448977 
Q 117.419364 67.991717 120.068781 69.064718 
L 120.068781 75.084755 
Q 117.335256 73.706073 114.629766 73.02609 
Q 111.924277 72.339868 109.204769 72.339868 
Q 104.172279 72.339868 101.445762 74.847697 
Q 98.719246 77.349287 98.719246 82.009358 
Q 98.719246 86.625759 101.347636 89.146065 
Q 103.976026 91.660132 108.812263 91.660132 
Q 110.129963 91.660132 111.258418 91.516649 
Q 112.386874 91.366928 113.284031 91.055009 
L 113.284031 85.403037 
L 108.132386 85.403037 
L 108.132386 80.368663 
L 121.274336 80.368663 
z
" style="fill:#ffa600;"/>
   </g>
   <g id="patch_5">
    <path clip-path="url(#p27bb7bc08d)" d="M 90 21.6 
L 121.274336 21.6 
L 121.274336 30.434762 
L 110.022848 30.434762 
L 110.022848 66.9 
L 101.273307 66.9 
L 101.273307 30.434762 
L 90 30.434762 
z
" style="fill:#ff0000;"/>
   </g>
   <g id="patch_6">
    <path clip-path="url(#p27bb7bc08d)" d="M 144.584114 154.74925 
L 132.556507 154.74925 
L 130.657411 157.5 
L 122.920354 157.5 
L 133.969639 142.4 
L 143.145405 142.4 
L 154.19469 157.5 
L 146.464027 157.5 
z
M 134.474786 151.946721 
L 142.646653 151.946721 
L 138.567114 145.940377 
z
" style="fill:#008000;"/>
   </g>
   <g id="patch_7">
    <path clip-path="url(#p27bb7bc08d)" d="M 122.920354 21.6 
L 154.19469 21.6 
L 154.19469 45.159366 
L 142.943202 45.159366 
L 142.943202 142.4 
L 134.193661 142.4 
L 134.193661 45.159366 
L 122.920354 45.159366 
z
" style="fill:#ff0000;"/>
   </g>
   <g id="patch_8">
    <path clip-path="url(#p27bb7bc08d)" d="M 187.115044 156.417641 
Q 184.499 156.954142 181.670205 157.225511 
Q 178.84141 157.5 175.760467 157.5 
Q 166.572793 157.5 161.206751 155.466288 
Q 155.840708 153.432576 155.840708 149.954679 
Q 155.840708 146.464305 161.206751 144.433712 
Q 166.572793 142.4 175.760467 142.4 
Q 178.84141 142.4 181.670205 142.674489 
Q 184.499 142.945858 187.115044 143.482359 
L 187.115044 146.492378 
Q 184.475361 145.781202 181.914474 145.450568 
Q 179.353588 145.119934 176.524793 145.119934 
Q 171.450297 145.119934 168.542706 146.408159 
Q 165.642994 147.693266 165.642994 149.954679 
Q 165.642994 152.206734 168.542706 153.49496 
Q 171.450297 154.780066 176.524793 154.780066 
Q 179.353588 154.780066 181.914474 154.449432 
Q 184.475361 154.115679 187.115044 153.404503 
z
" style="fill:#0000ff;"/>
   </g>
   <g id="patch_9">
    <path clip-path="url(#p27bb7bc08d)" d="M 187.115044 139.667589 
Q 183.960976 141.033795 180.568601 141.720017 
Q 177.176226 142.4 173.559561 142.4 
Q 165.38702 142.4 160.613864 138.332576 
Q 155.840708 134.265152 155.840708 127.309358 
Q 155.840708 120.272464 160.697973 116.236232 
Q 165.562246 112.2 174.022158 112.2 
Q 177.281361 112.2 180.267212 112.748977 
Q 183.260072 113.291717 185.909489 114.364718 
L 185.909489 120.384755 
Q 183.175964 119.006073 180.470474 118.32609 
Q 177.764985 117.639868 175.045477 117.639868 
Q 170.012987 117.639868 167.28647 120.147697 
Q 164.559954 122.649287 164.559954 127.309358 
Q 164.559954 131.925759 167.188344 134.446065 
Q 169.816734 136.960132 174.652971 136.960132 
Q 175.970671 136.960132 177.099126 136.816649 
Q 178.227582 136.666928 179.124739 136.355009 
L 179.124739 130.703037 
L 173.973094 130.703037 
L 173.973094 125.668663 
L 187.115044 125.668663 
z
" style="fill:#ffa600;"/>
   </g>
   <g id="patch_10">
    <path clip-path="url(#p27bb7bc08d)" d="M 177.504468 95.695499 
L 165.476861 95.695499 
L 163.577765 112.2 
L 155.840708 112.2 
L 166.889993 21.6 
L 176.065759 21.6 
L 187.115044 112.2 
L 179.384381 112.2 
z
M 167.39514 78.880326 
L 175.567007 78.880326 
L 171.487467 42.842263 
z
" style="fill:#008000;"/>
   </g>
   <g id="patch_11">
    <path clip-path="url(#p27bb7bc08d)" d="M 220.035398 154.767589 
Q 216.88133 156.133795 213.488955 156.820017 
Q 210.09658 157.5 206.479915 157.5 
Q 198.307374 157.5 193.534218 153.432576 
Q 188.761062 149.365152 188.761062 142.409358 
Q 188.761062 135.372464 193.618327 131.336232 
Q 198.4826 127.3 206.942512 127.3 
Q 210.201715 127.3 213.187566 127.848977 
Q 216.180426 128.391717 218.829843 129.464718 
L 218.829843 135.484755 
Q 216.096318 134.106073 213.390828 133.42609 
Q 210.685339 132.739868 207.965831 132.739868 
Q 202.933341 132.739868 200.206824 135.247697 
Q 197.480308 137.749287 197.480308 142.409358 
Q 197.480308 147.025759 200.108698 149.546065 
Q 202.737088 152.060132 207.573325 152.060132 
Q 208.891025 152.060132 210.01948 151.916649 
Q 211.147936 151.766928 212.045093 151.455009 
L 212.045093 145.803037 
L 206.893448 145.803037 
L 206.893448 140.768663 
L 220.035398 140.768663 
z
" style="fill:#ffa600;"/>
   </g>
   <g id="patch_12">
    <path clip-path="url(#p27bb7bc08d)" d="M 210.424822 108.044749 
L 198.397215 108.044749 
L 196.498119 127.3 
L 188.761062 127.3 
L 199.810347 21.6 
L 208.986113 21.6 
L 220.035398 127.3 
L 212.304735 127.3 
z
M 200.315494 88.427047 
L 208.487361 88.427047 
L 204.407821 46.38264 
z
" style="fill:#008000;"/>
   </g>
   <g id="patch_13">
    <path clip-path="url(#p27bb7bc08d)" d="M 252.955752 156.417641 
Q 250.339708 156.954142 247.510913 157.225511 
Q 244.682118 157.5 241.601175 157.5 
Q 232.413501 157.5 227.047459 155.466288 
Q 221.681416 153.432576 221.681416 149.954679 
Q 221.681416 146.464305 227.047459 144.433712 
Q 232.413501 142.4 241.601175 142.4 
Q 244.682118 142.4 247.510913 142.674489 
Q 250.339708 142.945858 252.955752 143.482359 
L 252.955752 146.492378 
Q 250.316069 145.781202 247.755182 145.450568 
Q 245.194296 145.119934 242.365501 145.119934 
Q 237.291005 145.119934 234.383414 146.408159 
Q 231.483702 147.693266 231.483702 149.954679 
Q 231.483702 152.206734 234.383414 153.49496 
Q 237.291005 154.780066 242.365501 154.780066 
Q 245.194296 154.780066 247.755182 154.449432 
Q 250.316069 154.115679 252.955752 153.404503 
z
" style="fill:#0000ff;"/>
   </g>
   <g id="patch_14">
    <path clip-path="url(#p27bb7bc08d)" d="M 243.345176 131.397 
L 231.317569 131.397 
L 229.418473 142.4 
L 221.681416 142.4 
L 232.730701 82 
L 241.906467 82 
L 252.955752 142.4 
L 245.225089 142.4 
z
M 233.235848 120.186884 
L 241.407715 120.186884 
L 237.328175 96.161509 
z
" style="fill:#008000;"/>
   </g>
   <g id="patch_15">
    <path clip-path="url(#p27bb7bc08d)" d="M 252.955752 76.535179 
Q 249.801684 79.267589 246.409309 80.640033 
Q 243.016934 82 239.400269 82 
Q 231.227728 82 226.454572 73.865152 
Q 221.681416 65.730304 221.681416 51.818715 
Q 221.681416 37.744929 226.538681 29.672464 
Q 231.402954 21.6 239.862866 21.6 
Q 243.122069 21.6 246.10792 22.697955 
Q 249.10078 23.783433 251.750197 25.929436 
L 251.750197 37.96951 
Q 249.016672 35.212146 246.311182 33.852179 
Q 243.605693 32.479736 240.886185 32.479736 
Q 235.853695 32.479736 233.127178 37.495394 
Q 230.400662 42.498575 230.400662 51.818715 
Q 230.400662 61.051518 233.029052 66.09213 
Q 235.657442 71.120264 240.493679 71.120264 
Q 241.811379 71.120264 242.939834 70.833299 
Q 244.06829 70.533857 244.965447 69.910019 
L 244.965447 58.606073 
L 239.813802 58.606073 
L 239.813802 48.537327 
L 252.955752 48.537327 
z
" style="fill:#ffa600;"/>
   </g>
   <g id="patch_16">
    <path clip-path="url(#p27bb7bc08d)" d="M 285.876106 154.252923 
Q 283.260062 155.862425 280.431267 156.676534 
Q 277.602472 157.5 274.521529 157.5 
Q 265.333855 157.5 259.967812 151.398864 
Q 254.60177 145.297728 254.60177 134.864036 
Q 254.60177 124.392915 259.967812 118.301136 
Q 265.333855 112.2 274.521529 112.2 
Q 277.602472 112.2 280.431267 113.023466 
Q 283.260062 113.837575 285.876106 115.447077 
L 285.876106 124.477133 
Q 283.236423 122.343607 280.675536 121.351704 
Q 278.11465 120.359802 275.285855 120.359802 
Q 270.211359 120.359802 267.303768 124.224478 
Q 264.404056 128.079798 264.404056 134.864036 
Q 264.404056 141.620202 267.303768 145.484879 
Q 270.211359 149.340198 275.285855 149.340198 
Q 278.11465 149.340198 280.675536 148.348296 
Q 283.236423 147.347036 285.876106 145.21351 
z
" style="fill:#0000ff;"/>
   </g>
   <g id="patch_17">
    <path clip-path="url(#p27bb7bc08d)" d="M 276.26553 95.695499 
L 264.237923 95.695499 
L 262.338827 112.2 
L 254.60177 112.2 
L 265.651055 21.6 
L 274.826821 21.6 
L 285.876106 112.2 
L 278.145443 112.2 
z
M 266.156202 78.880326 
L 274.328069 78.880326 
L 270.248529 42.842263 
z
" style="fill:#008000;"/>
   </g>
   <g id="patch_18">
    <path clip-path="url(#p27bb7bc08d)" d="M 309.185884 154.74925 
L 297.158277 154.74925 
L 295.259181 157.5 
L 287.522124 157.5 
L 298.571409 142.4 
L 307.747175 142.4 
L 318.79646 157.5 
L 311.065797 157.5 
z
M 299.076556 151.946721 
L 307.248423 151.946721 
L 303.168883 145.940377 
z
" style="fill:#008000;"/>
   </g>
   <g id="patch_19">
    <path clip-path="url(#p27bb7bc08d)" d="M 318.79646 141.317641 
Q 316.180416 141.854142 313.351621 142.125511 
Q 310.522826 142.4 307.441883 142.4 
Q 298.254209 142.4 292.888166 140.366288 
Q 287.522124 138.332576 287.522124 134.854679 
Q 287.522124 131.364305 292.888166 129.333712 
Q 298.254209 127.3 307.441883 127.3 
Q 310.522826 127.3 313.351621 127.574489 
Q 316.180416 127.845858 318.79646 128.382359 
L 318.79646 131.392378 
Q 316.156777 130.681202 313.59589 130.350568 
Q 311.035004 130.019934 308.206209 130.019934 
Q 303.131713 130.019934 300.224122 131.308159 
Q 297.32441 132.593266 297.32441 134.854679 
Q 297.32441 137.106734 300.224122 138.39496 
Q 303.131713 139.680066 308.206209 139.680066 
Q 311.035004 139.680066 313.59589 139.349432 
Q 316.156777 139.015679 318.79646 138.304503 
z
" style="fill:#0000ff;"/>
   </g>
   <g id="patch_20">
    <path clip-path="url(#p27bb7bc08d)" d="M 287.522124 97.1 
L 318.79646 97.1 
L 318.79646 102.989841 
L 307.544972 102.989841 
L 307.544972 127.3 
L 298.795431 127.3 
L 298.795431 102.989841 
L 287.522124 102.989841 
z
" style="fill:#ff0000;"/>
   </g>
   <g id="patch_21">
    <path clip-path="url(#p27bb7bc08d)" d="M 318.79646 90.268973 
Q 315.642392 93.684487 312.250017 95.400041 
Q 308.857642 97.1 305.240977 97.1 
Q 297.068436 97.1 292.29528 86.93144 
Q 287.522124 76.76288 287.522124 59.373394 
Q 287.522124 41.781161 292.379389 31.69058 
Q 297.243662 21.6 305.703574 21.6 
Q 308.962777 21.6 311.948628 22.972444 
Q 314.941488 24.329291 317.590905 27.011795 
L 317.590905 42.061888 
Q 314.85738 38.615183 312.15189 36.915224 
Q 309.446401 35.199669 306.726893 35.199669 
Q 301.694403 35.199669 298.967886 41.469242 
Q 296.24137 47.723218 296.24137 59.373394 
Q 296.24137 70.914398 298.86976 77.215162 
Q 301.49815 83.500331 306.334387 83.500331 
Q 307.652087 83.500331 308.780542 83.141624 
Q 309.908998 82.767321 310.806155 81.987523 
L 310.806155 67.857591 
L 305.65451 67.857591 
L 305.65451 55.271659 
L 318.79646 55.271659 
z
" style="fill:#ffa600;"/>
   </g>
   <g id="patch_22">
    <path clip-path="url(#p27bb7bc08d)" d="M 351.716814 156.133795 
Q 348.562746 156.816897 345.170371 157.160008 
Q 341.777996 157.5 338.161331 157.5 
Q 329.98879 157.5 325.215634 155.466288 
Q 320.442478 153.432576 320.442478 149.954679 
Q 320.442478 146.436232 325.299743 144.418116 
Q 330.164016 142.4 338.623928 142.4 
Q 341.883131 142.4 344.868982 142.674489 
Q 347.861842 142.945858 350.511259 143.482359 
L 350.511259 146.492378 
Q 347.777734 145.803037 345.072244 145.463045 
Q 342.366755 145.119934 339.647247 145.119934 
Q 334.614757 145.119934 331.88824 146.373848 
Q 329.161724 147.624644 329.161724 149.954679 
Q 329.161724 152.26288 331.790114 153.523032 
Q 334.418504 154.780066 339.254741 154.780066 
Q 340.572441 154.780066 341.700896 154.708325 
Q 342.829351 154.633464 343.726509 154.477505 
L 343.726509 151.651518 
L 338.574864 151.651518 
L 338.574864 149.134332 
L 351.716814 149.134332 
z
" style="fill:#ffa600;"/>
   </g>
   <g id="patch_23">
    <path clip-path="url(#p27bb7bc08d)" d="M 320.442478 21.6 
L 351.716814 21.6 
L 351.716814 45.159366 
L 340.465326 45.159366 
L 340.465326 142.4 
L 331.715785 142.4 
L 331.715785 45.159366 
L 320.442478 45.159366 
z
" style="fill:#ff0000;"/>
   </g>
   <g id="patch_24">
    <path clip-path="url(#p27bb7bc08d)" d="M 384.637168 156.417641 
Q 382.021124 156.954142 379.192329 157.225511 
Q 376.363534 157.5 373.282591 157.5 
Q 364.094917 157.5 358.728874 155.466288 
Q 353.362832 153.432576 353.362832 149.954679 
Q 353.362832 146.464305 358.728874 144.433712 
Q 364.094917 142.4 373.282591 142.4 
Q 376.363534 142.4 379.192329 142.674489 
Q 382.021124 142.945858 384.637168 143.482359 
L 384.637168 146.492378 
Q 381.997485 145.781202 379.436598 145.450568 
Q 376.875712 145.119934 374.046917 145.119934 
Q 368.972421 145.119934 366.06483 146.408159 
Q 363.165118 147.693266 363.165118 149.954679 
Q 363.165118 152.206734 366.06483 153.49496 
Q 368.972421 154.780066 374.046917 154.780066 
Q 376.875712 154.780066 379.436598 154.449432 
Q 381.997485 154.115679 384.637168 153.404503 
z
" style="fill:#0000ff;"/>
   </g>
   <g id="patch_25">
    <path clip-path="url(#p27bb7bc08d)" d="M 384.637168 141.033795 
Q 381.4831 141.716897 378.090725 142.060008 
Q 374.698349 142.4 371.081685 142.4 
Q 362.909144 142.4 358.135988 140.366288 
Q 353.362832 138.332576 353.362832 134.854679 
Q 353.362832 131.336232 358.220097 129.318116 
Q 363.08437 127.3 371.544282 127.3 
Q 374.803485 127.3 377.789336 127.574489 
Q 380.782196 127.845858 383.431613 128.382359 
L 383.431613 131.392378 
Q 380.698088 130.703037 377.992598 130.363045 
Q 375.287109 130.019934 372.567601 130.019934 
Q 367.535111 130.019934 364.808594 131.273848 
Q 362.082078 132.524644 362.082078 134.854679 
Q 362.082078 137.16288 364.710468 138.423032 
Q 367.338858 139.680066 372.175095 139.680066 
Q 373.492795 139.680066 374.62125 139.608325 
Q 375.749705 139.533464 376.646863 139.377505 
L 376.646863 136.551518 
L 371.495218 136.551518 
L 371.495218 134.034332 
L 384.637168 134.034332 
z
" style="fill:#ffa600;"/>
   </g>
   <g id="patch_26">
    <path clip-path="url(#p27bb7bc08d)" d="M 353.362832 21.6 
L 384.637168 21.6 
L 384.637168 42.214445 
L 373.38568 42.214445 
L 373.38568 127.3 
L 364.636139 127.3 
L 364.636139 42.214445 
L 353.362832 42.214445 
z
" style="fill:#ff0000;"/>
   </g>
   <g id="patch_27">
    <path clip-path="url(#p27bb7bc08d)" d="M 386.283186 112.2 
L 417.557522 112.2 
L 417.557522 121.034762 
L 406.306034 121.034762 
L 406.306034 157.5 
L 397.556493 157.5 
L 397.556493 121.034762 
L 386.283186 121.034762 
z
" style="fill:#ff0000;"/>
   </g>
   <g id="patch_28">
    <path clip-path="url(#p27bb7bc08d)" d="M 417.557522 104.002768 
Q 414.403454 108.101384 411.011079 110.16005 
Q 407.618703 112.2 404.002039 112.2 
Q 395.829498 112.2 391.056342 99.997728 
Q 386.283186 87.795455 386.283186 66.928073 
Q 386.283186 45.817393 391.140451 33.708697 
Q 396.004724 21.6 404.464635 21.6 
Q 407.723839 21.6 410.70969 23.246932 
Q 413.70255 24.87515 416.351967 28.094154 
L 416.351967 46.154266 
Q 413.618442 42.018219 410.912952 39.978269 
Q 408.207463 37.919603 405.487955 37.919603 
Q 400.455465 37.919603 397.728948 45.44309 
Q 395.002432 52.947862 395.002432 66.928073 
Q 395.002432 80.777277 397.630822 88.338195 
Q 400.259212 95.880397 405.095449 95.880397 
Q 406.413149 95.880397 407.541604 95.449948 
Q 408.670059 95.000785 409.567217 94.065028 
L 409.567217 77.10911 
L 404.415572 77.10911 
L 404.415572 62.00599 
L 417.557522 62.00599 
z
" style="fill:#ffa600;"/>
   </g>
   <g id="patch_29">
    <path clip-path="url(#p27bb7bc08d)" d="M 450.477876 156.417641 
Q 447.861832 156.954142 445.033037 157.225511 
Q 442.204242 157.5 439.123298 157.5 
Q 429.935625 157.5 424.569582 155.466288 
Q 419.20354 153.432576 419.20354 149.954679 
Q 419.20354 146.464305 424.569582 144.433712 
Q 429.935625 142.4 439.123298 142.4 
Q 442.204242 142.4 445.033037 142.674489 
Q 447.861832 142.945858 450.477876 143.482359 
L 450.477876 146.492378 
Q 447.838193 145.781202 445.277306 145.450568 
Q 442.71642 145.119934 439.887625 145.119934 
Q 434.813129 145.119934 431.905538 146.408159 
Q 429.005826 147.693266 429.005826 149.954679 
Q 429.005826 152.206734 431.905538 153.49496 
Q 434.813129 154.780066 439.887625 154.780066 
Q 442.71642 154.780066 445.277306 154.449432 
Q 447.838193 154.115679 450.477876 153.404503 
z
" style="fill:#0000ff;"/>
   </g>
   <g id="patch_30">
    <path clip-path="url(#p27bb7bc08d)" d="M 450.477876 141.033795 
Q 447.323808 141.716897 443.931433 142.060008 
Q 440.539057 142.4 436.922393 142.4 
Q 428.749852 142.4 423.976696 140.366288 
Q 419.20354 138.332576 419.20354 134.854679 
Q 419.20354 131.336232 424.060805 129.318116 
Q 428.925078 127.3 437.384989 127.3 
Q 440.644193 127.3 443.630044 127.574489 
Q 446.622904 127.845858 449.272321 128.382359 
L 449.272321 131.392378 
Q 446.538796 130.703037 443.833306 130.363045 
Q 441.127817 130.019934 438.408309 130.019934 
Q 433.375819 130.019934 430.649302 131.273848 
Q 427.922786 132.524644 427.922786 134.854679 
Q 427.922786 137.16288 430.551176 138.423032 
Q 433.179565 139.680066 438.015803 139.680066 
Q 439.333503 139.680066 440.461958 139.608325 
Q 441.590413 139.533464 442.487571 139.377505 
L 442.487571 136.551518 
L 437.335926 136.551518 
L 437.335926 134.034332 
L 450.477876 134.034332 
z
" style="fill:#ffa600;"/>
   </g>
   <g id="patch_31">
    <path clip-path="url(#p27bb7bc08d)" d="M 440.8673 119.04775 
L 428.839693 119.04775 
L 426.940597 127.3 
L 419.20354 127.3 
L 430.252825 82 
L 439.428591 82 
L 450.477876 127.3 
L 442.747213 127.3 
z
M 430.757972 110.640163 
L 438.929839 110.640163 
L 434.850299 92.621132 
z
" style="fill:#008000;"/>
   </g>
   <g id="patch_32">
    <path clip-path="url(#p27bb7bc08d)" d="M 419.20354 21.6 
L 450.477876 21.6 
L 450.477876 33.379683 
L 439.226388 33.379683 
L 439.226388 82 
L 430.476847 82 
L 430.476847 33.379683 
L 419.20354 33.379683 
z
" style="fill:#ff0000;"/>
   </g>
   <g id="patch_33">
    <path clip-path="url(#p27bb7bc08d)" d="M 452.123894 142.4 
L 483.39823 142.4 
L 483.39823 145.344921 
L 472.146742 145.344921 
L 472.146742 157.5 
L 463.397201 157.5 
L 463.397201 145.344921 
L 452.123894 145.344921 
z
" style="fill:#ff0000;"/>
   </g>
   <g id="patch_34">
    <path clip-path="url(#p27bb7bc08d)" d="M 483.39823 139.667589 
Q 480.244162 141.033795 476.851787 141.720017 
Q 473.459411 142.4 469.842747 142.4 
Q 461.670206 142.4 456.89705 138.332576 
Q 452.123894 134.265152 452.123894 127.309358 
Q 452.123894 120.272464 456.981158 116.236232 
Q 461.845432 112.2 470.305343 112.2 
Q 473.564547 112.2 476.550398 112.748977 
Q 479.543258 113.291717 482.192675 114.364718 
L 482.192675 120.384755 
Q 479.45915 119.006073 476.75366 118.32609 
Q 474.048171 117.639868 471.328663 117.639868 
Q 466.296173 117.639868 463.569656 120.147697 
Q 460.84314 122.649287 460.84314 127.309358 
Q 460.84314 131.925759 463.471529 134.446065 
Q 466.099919 136.960132 470.936157 136.960132 
Q 472.253857 136.960132 473.382312 136.816649 
Q 474.510767 136.666928 475.407925 136.355009 
L 475.407925 130.703037 
L 470.25628 130.703037 
L 470.25628 125.668663 
L 483.39823 125.668663 
z
" style="fill:#ffa600;"/>
   </g>
   <g id="patch_35">
    <path clip-path="url(#p27bb7bc08d)" d="M 473.787654 95.695499 
L 461.760047 95.695499 
L 459.860951 112.2 
L 452.123894 112.2 
L 463.173179 21.6 
L 472.348945 21.6 
L 483.39823 112.2 
L 475.667567 112.2 
z
M 463.678326 78.880326 
L 471.850193 78.880326 
L 467.770653 42.842263 
z
" style="fill:#008000;"/>
   </g>
   <g id="patch_36">
    <path clip-path="url(#p27bb7bc08d)" d="M 516.318584 156.133795 
Q 513.164516 156.816897 509.772141 157.160008 
Q 506.379765 157.5 502.763101 157.5 
Q 494.59056 157.5 489.817404 155.466288 
Q 485.044248 153.432576 485.044248 149.954679 
Q 485.044248 146.436232 489.901512 144.418116 
Q 494.765786 142.4 503.225697 142.4 
Q 506.484901 142.4 509.470752 142.674489 
Q 512.463612 142.945858 515.113029 143.482359 
L 515.113029 146.492378 
Q 512.379504 145.803037 509.674014 145.463045 
Q 506.968525 145.119934 504.249017 145.119934 
Q 499.216527 145.119934 496.49001 146.373848 
Q 493.763493 147.624644 493.763493 149.954679 
Q 493.763493 152.26288 496.391883 153.523032 
Q 499.020273 154.780066 503.856511 154.780066 
Q 505.174211 154.780066 506.302666 154.708325 
Q 507.431121 154.633464 508.328279 154.477505 
L 508.328279 151.651518 
L 503.176634 151.651518 
L 503.176634 149.134332 
L 516.318584 149.134332 
z
" style="fill:#ffa600;"/>
   </g>
   <g id="patch_37">
    <path clip-path="url(#p27bb7bc08d)" d="M 485.044248 21.6 
L 516.318584 21.6 
L 516.318584 45.159366 
L 505.067096 45.159366 
L 505.067096 142.4 
L 496.317555 142.4 
L 496.317555 45.159366 
L 485.044248 45.159366 
z
" style="fill:#ff0000;"/>
   </g>
   <g id="patch_38">
    <path clip-path="url(#p27bb7bc08d)" d="M 549.238938 156.417641 
Q 546.622894 156.954142 543.794099 157.225511 
Q 540.965304 157.5 537.88436 157.5 
Q 528.696687 157.5 523.330644 155.466288 
Q 517.964602 153.432576 517.964602 149.954679 
Q 517.964602 146.464305 523.330644 144.433712 
Q 528.696687 142.4 537.88436 142.4 
Q 540.965304 142.4 543.794099 142.674489 
Q 546.622894 142.945858 549.238938 143.482359 
L 549.238938 146.492378 
Q 546.599255 145.781202 544.038368 145.450568 
Q 541.477481 145.119934 538.648687 145.119934 
Q 533.574191 145.119934 530.6666 146.408159 
Q 527.766888 147.693266 527.766888 149.954679 
Q 527.766888 152.206734 530.6666 153.49496 
Q 533.574191 154.780066 538.648687 154.780066 
Q 541.477481 154.780066 544.038368 154.449432 
Q 546.599255 154.115679 549.238938 153.404503 
z
" style="fill:#0000ff;"/>
   </g>
   <g id="patch_39">
    <path clip-path="url(#p27bb7bc08d)" d="M 549.238938 141.033795 
Q 546.08487 141.716897 542.692495 142.060008 
Q 539.300119 142.4 535.683455 142.4 
Q 527.510914 142.4 522.737758 140.366288 
Q 517.964602 138.332576 517.964602 134.854679 
Q 517.964602 131.336232 522.821866 129.318116 
Q 527.68614 127.3 536.146051 127.3 
Q 539.405255 127.3 542.391106 127.574489 
Q 545.383966 127.845858 548.033383 128.382359 
L 548.033383 131.392378 
Q 545.299858 130.703037 542.594368 130.363045 
Q 539.888879 130.019934 537.169371 130.019934 
Q 532.136881 130.019934 529.410364 131.273848 
Q 526.683847 132.524644 526.683847 134.854679 
Q 526.683847 137.16288 529.312237 138.423032 
Q 531.940627 139.680066 536.776865 139.680066 
Q 538.094565 139.680066 539.22302 139.608325 
Q 540.351475 139.533464 541.248633 139.377505 
L 541.248633 136.551518 
L 536.096988 136.551518 
L 536.096988 134.034332 
L 549.238938 134.034332 
z
" style="fill:#ffa600;"/>
   </g>
   <g id="patch_40">
    <path clip-path="url(#p27bb7bc08d)" d="M 539.628362 108.044749 
L 527.600755 108.044749 
L 525.701659 127.3 
L 517.964602 127.3 
L 529.013887 21.6 
L 538.189653 21.6 
L 549.238938 127.3 
L 541.508275 127.3 
z
M 529.519034 88.427047 
L 537.690901 88.427047 
L 533.611361 46.38264 
z
" style="fill:#008000;"/>
   </g>
   <g id="patch_41">
    <path clip-path="url(#p27bb7bc08d)" d="M 572.548716 151.9985 
L 560.521109 151.9985 
L 558.622013 157.5 
L 550.884956 157.5 
L 561.934241 127.3 
L 571.110007 127.3 
L 582.159292 157.5 
L 574.428629 157.5 
z
M 562.439387 146.393442 
L 570.611255 146.393442 
L 566.531715 134.380754 
z
" style="fill:#008000;"/>
   </g>
   <g id="patch_42">
    <path clip-path="url(#p27bb7bc08d)" d="M 550.884956 21.6 
L 582.159292 21.6 
L 582.159292 42.214445 
L 570.907804 42.214445 
L 570.907804 127.3 
L 562.158263 127.3 
L 562.158263 42.214445 
L 550.884956 42.214445 
z
" style="fill:#ff0000;"/>
   </g>
   <g id="patch_43">
    <path clip-path="url(#p27bb7bc08d)" d="M 583.80531 127.3 
L 615.079646 127.3 
L 615.079646 133.189841 
L 603.828158 133.189841 
L 603.828158 157.5 
L 595.078617 157.5 
L 595.078617 133.189841 
L 583.80531 133.189841 
z
" style="fill:#ff0000;"/>
   </g>
   <g id="patch_44">
    <path clip-path="url(#p27bb7bc08d)" d="M 615.079646 117.736563 
Q 611.925578 122.518281 608.533203 124.920058 
Q 605.140827 127.3 601.524163 127.3 
Q 593.351622 127.3 588.578466 113.064016 
Q 583.80531 98.828031 583.80531 74.482751 
Q 583.80531 49.853625 588.662574 35.726813 
Q 593.526848 21.6 601.986759 21.6 
Q 605.245963 21.6 608.231814 23.521421 
Q 611.224674 25.421008 613.874091 29.176513 
L 613.874091 50.246643 
Q 611.140566 45.421256 608.435076 43.041314 
Q 605.729587 40.639537 603.010079 40.639537 
Q 597.977589 40.639537 595.251072 49.416939 
Q 592.524555 58.172506 592.524555 74.482751 
Q 592.524555 90.640157 595.152945 99.461227 
Q 597.781335 108.260463 602.617573 108.260463 
Q 603.935272 108.260463 605.063728 107.758273 
Q 606.192183 107.234249 607.08934 106.142533 
L 607.08934 86.360628 
L 601.937696 86.360628 
L 601.937696 68.740322 
L 615.079646 68.740322 
z
" style="fill:#ffa600;"/>
   </g>
   <g id="patch_45">
    <path clip-path="url(#p27bb7bc08d)" d="M 638.389424 154.74925 
L 626.361817 154.74925 
L 624.462721 157.5 
L 616.725664 157.5 
L 627.774949 142.4 
L 636.950715 142.4 
L 648 157.5 
L 640.269337 157.5 
z
M 628.280095 151.946721 
L 636.451963 151.946721 
L 632.372423 145.940377 
z
" style="fill:#008000;"/>
   </g>
   <g id="patch_46">
    <path clip-path="url(#p27bb7bc08d)" d="M 648 136.935179 
Q 644.845932 139.667589 641.453557 141.040033 
Q 638.061181 142.4 634.444517 142.4 
Q 626.271976 142.4 621.49882 134.265152 
Q 616.725664 126.130304 616.725664 112.218715 
Q 616.725664 98.144929 621.582928 90.072464 
Q 626.447202 82 634.907113 82 
Q 638.166317 82 641.152168 83.097955 
Q 644.145028 84.183433 646.794445 86.329436 
L 646.794445 98.36951 
Q 644.06092 95.612146 641.35543 94.252179 
Q 638.649941 92.879736 635.930433 92.879736 
Q 630.897943 92.879736 628.171426 97.895394 
Q 625.444909 102.898575 625.444909 112.218715 
Q 625.444909 121.451518 628.073299 126.49213 
Q 630.701689 131.520264 635.537927 131.520264 
Q 636.855626 131.520264 637.984082 131.233299 
Q 639.112537 130.933857 640.009694 130.310019 
L 640.009694 119.006073 
L 634.85805 119.006073 
L 634.85805 108.937327 
L 648 108.937327 
z
" style="fill:#ffa600;"/>
   </g>
   <g id="patch_47">
    <path clip-path="url(#p27bb7bc08d)" d="M 616.725664 21.6 
L 648 21.6 
L 648 33.379683 
L 636.748512 33.379683 
L 636.748512 82 
L 627.998971 82 
L 627.998971 33.379683 
L 616.725664 33.379683 
z
" style="fill:#ff0000;"/>
   </g>
  </g>
 </g>
 <defs>
  <clipPath id="p27bb7bc08d">
   <rect height="135.9" width="558" x="90" y="21.6"/>
  </clipPath>
 </defs>
</svg>
