<?xml version="1.0" encoding="utf-8" standalone="no"?>
<!DOCTYPE svg PUBLIC "-//W3C//DTD SVG 1.1//EN"
  "http://www.w3.org/Graphics/SVG/1.1/DTD/svg11.dtd">
<!-- Created with matplotlib (https://matplotlib.org/) -->
<svg height="180pt" version="1.1" viewBox="0 0 720 180" width="720pt" xmlns="http://www.w3.org/2000/svg" xmlns:xlink="http://www.w3.org/1999/xlink">
 <metadata>
  <rdf:RDF xmlns:cc="http://creativecommons.org/ns#" xmlns:dc="http://purl.org/dc/elements/1.1/" xmlns:rdf="http://www.w3.org/1999/02/22-rdf-syntax-ns#">
   <cc:Work>
    <dc:type rdf:resource="http://purl.org/dc/dcmitype/StillImage"/>
    <dc:date>2021-08-04T23:33:02.906907</dc:date>
    <dc:format>image/svg+xml</dc:format>
    <dc:creator>
     <cc:Agent>
      <dc:title>Matplotlib v3.3.2, https://matplotlib.org/</dc:title>
     </cc:Agent>
    </dc:creator>
   </cc:Work>
  </rdf:RDF>
 </metadata>
 <defs>
  <style type="text/css">*{stroke-linecap:butt;stroke-linejoin:round;}</style>
 </defs>
 <g id="figure_1">
  <g id="patch_1">
   <path d="M 0 180 
L 720 180 
L 720 0 
L 0 0 
z
" style="fill:none;"/>
  </g>
  <g id="axes_1">
   <g id="line2d_1">
    <path clip-path="url(#pc8adddd412)" d="M 90 157.5 
L 648 157.5 
" style="fill:none;stroke:#000000;stroke-linecap:square;stroke-width:0.5;"/>
   </g>
   <g id="patch_2">
    <path clip-path="url(#pc8adddd412)" d="M 121.274336 156.417641 
Q 118.658292 156.954142 115.829497 157.225511 
Q 113.000702 157.5 109.919759 157.5 
Q 100.732085 157.5 95.366043 155.466288 
Q 90 153.432576 90 149.954679 
Q 90 146.464305 95.366043 144.433712 
Q 100.732085 142.4 109.919759 142.4 
Q 113.000702 142.4 115.829497 142.674489 
Q 118.658292 142.945858 121.274336 143.482359 
L 121.274336 146.492378 
Q 118.634653 145.781202 116.073766 145.450568 
Q 113.51288 145.119934 110.684085 145.119934 
Q 105.609589 145.119934 102.701998 146.408159 
Q 99.802286 147.693266 99.802286 149.954679 
Q 99.802286 152.206734 102.701998 153.49496 
Q 105.609589 154.780066 110.684085 154.780066 
Q 113.51288 154.780066 116.073766 154.449432 
Q 118.634653 154.115679 121.274336 153.404503 
z
" style="fill:#0000ff;"/>
   </g>
   <g id="patch_3">
    <path clip-path="url(#pc8adddd412)" d="M 90 127.3 
L 121.274336 127.3 
L 121.274336 130.244921 
L 110.022848 130.244921 
L 110.022848 142.4 
L 101.273307 142.4 
L 101.273307 130.244921 
L 90 130.244921 
z
" style="fill:#ff0000;"/>
   </g>
   <g id="patch_4">
    <path clip-path="url(#pc8adddd412)" d="M 121.274336 123.201384 
Q 118.120268 125.250692 114.727893 126.280025 
Q 111.335518 127.3 107.718853 127.3 
Q 99.546312 127.3 94.773156 121.198864 
Q 90 115.097728 90 104.664036 
Q 90 94.108697 94.857265 88.054348 
Q 99.721538 82 108.18145 82 
Q 111.440653 82 114.426504 82.823466 
Q 117.419364 83.637575 120.068781 85.247077 
L 120.068781 94.277133 
Q 117.335256 92.20911 114.629766 91.189134 
Q 111.924277 90.159802 109.204769 90.159802 
Q 104.172279 90.159802 101.445762 93.921545 
Q 98.719246 97.673931 98.719246 104.664036 
Q 98.719246 111.588639 101.347636 115.369097 
Q 103.976026 119.140198 108.812263 119.140198 
Q 110.129963 119.140198 111.258418 118.924974 
Q 112.386874 118.700392 113.284031 118.232514 
L 113.284031 109.754555 
L 108.132386 109.754555 
L 108.132386 102.202995 
L 121.274336 102.202995 
z
" style="fill:#ffa600;"/>
   </g>
   <g id="patch_5">
    <path clip-path="url(#pc8adddd412)" d="M 111.66376 70.997 
L 99.636153 70.997 
L 97.737057 82 
L 90 82 
L 101.049285 21.6 
L 110.225051 21.6 
L 121.274336 82 
L 113.543673 82 
z
M 101.554432 59.786884 
L 109.726299 59.786884 
L 105.64676 35.761509 
z
" style="fill:#008000;"/>
   </g>
   <g id="patch_6">
    <path clip-path="url(#pc8adddd412)" d="M 154.19469 156.133795 
Q 151.040622 156.816897 147.648247 157.160008 
Q 144.255872 157.5 140.639207 157.5 
Q 132.466666 157.5 127.69351 155.466288 
Q 122.920354 153.432576 122.920354 149.954679 
Q 122.920354 146.436232 127.777619 144.418116 
Q 132.641892 142.4 141.101804 142.4 
Q 144.361007 142.4 147.346858 142.674489 
Q 150.339718 142.945858 152.989135 143.482359 
L 152.989135 146.492378 
Q 150.25561 145.803037 147.55012 145.463045 
Q 144.844631 145.119934 142.125123 145.119934 
Q 137.092633 145.119934 134.366116 146.373848 
Q 131.6396 147.624644 131.6396 149.954679 
Q 131.6396 152.26288 134.26799 153.523032 
Q 136.89638 154.780066 141.732617 154.780066 
Q 143.050317 154.780066 144.178772 154.708325 
Q 145.307228 154.633464 146.204385 154.477505 
L 146.204385 151.651518 
L 141.05274 151.651518 
L 141.05274 149.134332 
L 154.19469 149.134332 
z
" style="fill:#ffa600;"/>
   </g>
   <g id="patch_7">
    <path clip-path="url(#pc8adddd412)" d="M 144.584114 136.8985 
L 132.556507 136.8985 
L 130.657411 142.4 
L 122.920354 142.4 
L 133.969639 112.2 
L 143.145405 112.2 
L 154.19469 142.4 
L 146.464027 142.4 
z
M 134.474786 131.293442 
L 142.646653 131.293442 
L 138.567114 119.280754 
z
" style="fill:#008000;"/>
   </g>
   <g id="patch_8">
    <path clip-path="url(#pc8adddd412)" d="M 154.19469 108.952923 
Q 151.578646 110.562425 148.749851 111.376534 
Q 145.921056 112.2 142.840113 112.2 
Q 133.652439 112.2 128.286397 106.098864 
Q 122.920354 99.997728 122.920354 89.564036 
Q 122.920354 79.092915 128.286397 73.001136 
Q 133.652439 66.9 142.840113 66.9 
Q 145.921056 66.9 148.749851 67.723466 
Q 151.578646 68.537575 154.19469 70.147077 
L 154.19469 79.177133 
Q 151.555007 77.043607 148.99412 76.051704 
Q 146.433234 75.059802 143.604439 75.059802 
Q 138.529943 75.059802 135.622352 78.924478 
Q 132.72264 82.779798 132.72264 89.564036 
Q 132.72264 96.320202 135.622352 100.184879 
Q 138.529943 104.040198 143.604439 104.040198 
Q 146.433234 104.040198 148.99412 103.048296 
Q 151.555007 102.047036 154.19469 99.91351 
z
" style="fill:#0000ff;"/>
   </g>
   <g id="patch_9">
    <path clip-path="url(#pc8adddd412)" d="M 122.920354 21.6 
L 154.19469 21.6 
L 154.19469 30.434762 
L 142.943202 30.434762 
L 142.943202 66.9 
L 134.193661 66.9 
L 134.193661 30.434762 
L 122.920354 30.434762 
z
" style="fill:#ff0000;"/>
   </g>
   <g id="patch_10">
    <path clip-path="url(#pc8adddd412)" d="M 187.115044 156.417641 
Q 184.499 156.954142 181.670205 157.225511 
Q 178.84141 157.5 175.760467 157.5 
Q 166.572793 157.5 161.206751 155.466288 
Q 155.840708 153.432576 155.840708 149.954679 
Q 155.840708 146.464305 161.206751 144.433712 
Q 166.572793 142.4 175.760467 142.4 
Q 178.84141 142.4 181.670205 142.674489 
Q 184.499 142.945858 187.115044 143.482359 
L 187.115044 146.492378 
Q 184.475361 145.781202 181.914474 145.450568 
Q 179.353588 145.119934 176.524793 145.119934 
Q 171.450297 145.119934 168.542706 146.408159 
Q 165.642994 147.693266 165.642994 149.954679 
Q 165.642994 152.206734 168.542706 153.49496 
Q 171.450297 154.780066 176.524793 154.780066 
Q 179.353588 154.780066 181.914474 154.449432 
Q 184.475361 154.115679 187.115044 153.404503 
z
" style="fill:#0000ff;"/>
   </g>
   <g id="patch_11">
    <path clip-path="url(#pc8adddd412)" d="M 177.504468 136.8985 
L 165.476861 136.8985 
L 163.577765 142.4 
L 155.840708 142.4 
L 166.889993 112.2 
L 176.065759 112.2 
L 187.115044 142.4 
L 179.384381 142.4 
z
M 167.39514 131.293442 
L 175.567007 131.293442 
L 171.487467 119.280754 
z
" style="fill:#008000;"/>
   </g>
   <g id="patch_12">
    <path clip-path="url(#pc8adddd412)" d="M 155.840708 21.6 
L 187.115044 21.6 
L 187.115044 39.269524 
L 175.863556 39.269524 
L 175.863556 112.2 
L 167.114015 112.2 
L 167.114015 39.269524 
L 155.840708 39.269524 
z
" style="fill:#ff0000;"/>
   </g>
   <g id="patch_13">
    <path clip-path="url(#pc8adddd412)" d="M 220.035398 155.335282 
Q 217.419354 156.408283 214.590559 156.951023 
Q 211.761764 157.5 208.680821 157.5 
Q 199.493147 157.5 194.127105 153.432576 
Q 188.761062 149.365152 188.761062 142.409358 
Q 188.761062 135.42861 194.127105 131.367424 
Q 199.493147 127.3 208.680821 127.3 
Q 211.761764 127.3 214.590559 127.848977 
Q 217.419354 128.391717 220.035398 129.464718 
L 220.035398 135.484755 
Q 217.395715 134.062404 214.834828 133.401136 
Q 212.273942 132.739868 209.445147 132.739868 
Q 204.370651 132.739868 201.46306 135.316319 
Q 198.563348 137.886532 198.563348 142.409358 
Q 198.563348 146.913468 201.46306 149.489919 
Q 204.370651 152.060132 209.445147 152.060132 
Q 212.273942 152.060132 214.834828 151.398864 
Q 217.395715 150.731357 220.035398 149.309006 
z
" style="fill:#0000ff;"/>
   </g>
   <g id="patch_14">
    <path clip-path="url(#pc8adddd412)" d="M 220.035398 124.567589 
Q 216.88133 125.933795 213.488955 126.620017 
Q 210.09658 127.3 206.479915 127.3 
Q 198.307374 127.3 193.534218 123.232576 
Q 188.761062 119.165152 188.761062 112.209358 
Q 188.761062 105.172464 193.618327 101.136232 
Q 198.4826 97.1 206.942512 97.1 
Q 210.201715 97.1 213.187566 97.648977 
Q 216.180426 98.191717 218.829843 99.264718 
L 218.829843 105.284755 
Q 216.096318 103.906073 213.390828 103.22609 
Q 210.685339 102.539868 207.965831 102.539868 
Q 202.933341 102.539868 200.206824 105.047697 
Q 197.480308 107.549287 197.480308 112.209358 
Q 197.480308 116.825759 200.108698 119.346065 
Q 202.737088 121.860132 207.573325 121.860132 
Q 208.891025 121.860132 210.01948 121.716649 
Q 211.147936 121.566928 212.045093 121.255009 
L 212.045093 115.603037 
L 206.893448 115.603037 
L 206.893448 110.568663 
L 220.035398 110.568663 
z
" style="fill:#ffa600;"/>
   </g>
   <g id="patch_15">
    <path clip-path="url(#pc8adddd412)" d="M 210.424822 83.346249 
L 198.397215 83.346249 
L 196.498119 97.1 
L 188.761062 97.1 
L 199.810347 21.6 
L 208.986113 21.6 
L 220.035398 97.1 
L 212.304735 97.1 
z
M 200.315494 69.333605 
L 208.487361 69.333605 
L 204.407821 39.301886 
z
" style="fill:#008000;"/>
   </g>
   <g id="patch_16">
    <path clip-path="url(#pc8adddd412)" d="M 243.345176 149.24775 
L 231.317569 149.24775 
L 229.418473 157.5 
L 221.681416 157.5 
L 232.730701 112.2 
L 241.906467 112.2 
L 252.955752 157.5 
L 245.225089 157.5 
z
M 233.235848 140.840163 
L 241.407715 140.840163 
L 237.328175 122.821132 
z
" style="fill:#008000;"/>
   </g>
   <g id="patch_17">
    <path clip-path="url(#pc8adddd412)" d="M 252.955752 104.002768 
Q 249.801684 108.101384 246.409309 110.16005 
Q 243.016934 112.2 239.400269 112.2 
Q 231.227728 112.2 226.454572 99.997728 
Q 221.681416 87.795455 221.681416 66.928073 
Q 221.681416 45.817393 226.538681 33.708697 
Q 231.402954 21.6 239.862866 21.6 
Q 243.122069 21.6 246.10792 23.246932 
Q 249.10078 24.87515 251.750197 28.094154 
L 251.750197 46.154266 
Q 249.016672 42.018219 246.311182 39.978269 
Q 243.605693 37.919603 240.886185 37.919603 
Q 235.853695 37.919603 233.127178 45.44309 
Q 230.400662 52.947862 230.400662 66.928073 
Q 230.400662 80.777277 233.029052 88.338195 
Q 235.657442 95.880397 240.493679 95.880397 
Q 241.811379 95.880397 242.939834 95.449948 
Q 244.06829 95.000785 244.965447 94.065028 
L 244.965447 77.10911 
L 239.813802 77.10911 
L 239.813802 62.00599 
L 252.955752 62.00599 
z
" style="fill:#ffa600;"/>
   </g>
   <g id="patch_18">
    <path clip-path="url(#pc8adddd412)" d="M 285.876106 154.767589 
Q 282.722038 156.133795 279.329663 156.820017 
Q 275.937288 157.5 272.320623 157.5 
Q 264.148082 157.5 259.374926 153.432576 
Q 254.60177 149.365152 254.60177 142.409358 
Q 254.60177 135.372464 259.459035 131.336232 
Q 264.323308 127.3 272.78322 127.3 
Q 276.042423 127.3 279.028274 127.848977 
Q 282.021134 128.391717 284.670551 129.464718 
L 284.670551 135.484755 
Q 281.937026 134.106073 279.231536 133.42609 
Q 276.526047 132.739868 273.806539 132.739868 
Q 268.774049 132.739868 266.047532 135.247697 
Q 263.321016 137.749287 263.321016 142.409358 
Q 263.321016 147.025759 265.949406 149.546065 
Q 268.577796 152.060132 273.414033 152.060132 
Q 274.731733 152.060132 275.860188 151.916649 
Q 276.988644 151.766928 277.885801 151.455009 
L 277.885801 145.803037 
L 272.734156 145.803037 
L 272.734156 140.768663 
L 285.876106 140.768663 
z
" style="fill:#ffa600;"/>
   </g>
   <g id="patch_19">
    <path clip-path="url(#pc8adddd412)" d="M 254.60177 97.1 
L 285.876106 97.1 
L 285.876106 102.989841 
L 274.624618 102.989841 
L 274.624618 127.3 
L 265.875077 127.3 
L 265.875077 102.989841 
L 254.60177 102.989841 
z
" style="fill:#ff0000;"/>
   </g>
   <g id="patch_20">
    <path clip-path="url(#pc8adddd412)" d="M 285.876106 91.688205 
Q 283.260062 94.370709 280.431267 95.727556 
Q 277.602472 97.1 274.521529 97.1 
Q 265.333855 97.1 259.967812 86.93144 
Q 254.60177 76.76288 254.60177 59.373394 
Q 254.60177 41.921524 259.967812 31.76856 
Q 265.333855 21.6 274.521529 21.6 
Q 277.602472 21.6 280.431267 22.972444 
Q 283.260062 24.329291 285.876106 27.011795 
L 285.876106 42.061888 
Q 283.236423 38.506011 280.675536 36.85284 
Q 278.11465 35.199669 275.285855 35.199669 
Q 270.211359 35.199669 267.303768 41.640797 
Q 264.404056 48.066329 264.404056 59.373394 
Q 264.404056 70.633671 267.303768 77.074799 
Q 270.211359 83.500331 275.285855 83.500331 
Q 278.11465 83.500331 280.675536 81.84716 
Q 283.236423 80.178393 285.876106 76.622516 
z
" style="fill:#0000ff;"/>
   </g>
   <g id="patch_21">
    <path clip-path="url(#pc8adddd412)" d="M 318.79646 156.417641 
Q 316.180416 156.954142 313.351621 157.225511 
Q 310.522826 157.5 307.441883 157.5 
Q 298.254209 157.5 292.888166 155.466288 
Q 287.522124 153.432576 287.522124 149.954679 
Q 287.522124 146.464305 292.888166 144.433712 
Q 298.254209 142.4 307.441883 142.4 
Q 310.522826 142.4 313.351621 142.674489 
Q 316.180416 142.945858 318.79646 143.482359 
L 318.79646 146.492378 
Q 316.156777 145.781202 313.59589 145.450568 
Q 311.035004 145.119934 308.206209 145.119934 
Q 303.131713 145.119934 300.224122 146.408159 
Q 297.32441 147.693266 297.32441 149.954679 
Q 297.32441 152.206734 300.224122 153.49496 
Q 303.131713 154.780066 308.206209 154.780066 
Q 311.035004 154.780066 313.59589 154.449432 
Q 316.156777 154.115679 318.79646 153.404503 
z
" style="fill:#0000ff;"/>
   </g>
   <g id="patch_22">
    <path clip-path="url(#pc8adddd412)" d="M 309.185884 136.8985 
L 297.158277 136.8985 
L 295.259181 142.4 
L 287.522124 142.4 
L 298.571409 112.2 
L 307.747175 112.2 
L 318.79646 142.4 
L 311.065797 142.4 
z
M 299.076556 131.293442 
L 307.248423 131.293442 
L 303.168883 119.280754 
z
" style="fill:#008000;"/>
   </g>
   <g id="patch_23">
    <path clip-path="url(#pc8adddd412)" d="M 287.522124 21.6 
L 318.79646 21.6 
L 318.79646 39.269524 
L 307.544972 39.269524 
L 307.544972 112.2 
L 298.795431 112.2 
L 298.795431 39.269524 
L 287.522124 39.269524 
z
" style="fill:#ff0000;"/>
   </g>
   <g id="patch_24">
    <path clip-path="url(#pc8adddd412)" d="M 342.106238 154.74925 
L 330.078631 154.74925 
L 328.179535 157.5 
L 320.442478 157.5 
L 331.491763 142.4 
L 340.667529 142.4 
L 351.716814 157.5 
L 343.986151 157.5 
z
M 331.99691 151.946721 
L 340.168777 151.946721 
L 336.089237 145.940377 
z
" style="fill:#008000;"/>
   </g>
   <g id="patch_25">
    <path clip-path="url(#pc8adddd412)" d="M 351.716814 141.317641 
Q 349.10077 141.854142 346.271975 142.125511 
Q 343.44318 142.4 340.362237 142.4 
Q 331.174563 142.4 325.80852 140.366288 
Q 320.442478 138.332576 320.442478 134.854679 
Q 320.442478 131.364305 325.80852 129.333712 
Q 331.174563 127.3 340.362237 127.3 
Q 343.44318 127.3 346.271975 127.574489 
Q 349.10077 127.845858 351.716814 128.382359 
L 351.716814 131.392378 
Q 349.077131 130.681202 346.516244 130.350568 
Q 343.955358 130.019934 341.126563 130.019934 
Q 336.052067 130.019934 333.144476 131.308159 
Q 330.244764 132.593266 330.244764 134.854679 
Q 330.244764 137.106734 333.144476 138.39496 
Q 336.052067 139.680066 341.126563 139.680066 
Q 343.955358 139.680066 346.516244 139.349432 
Q 349.077131 139.015679 351.716814 138.304503 
z
" style="fill:#0000ff;"/>
   </g>
   <g id="patch_26">
    <path clip-path="url(#pc8adddd412)" d="M 320.442478 112.2 
L 351.716814 112.2 
L 351.716814 115.144921 
L 340.465326 115.144921 
L 340.465326 127.3 
L 331.715785 127.3 
L 331.715785 115.144921 
L 320.442478 115.144921 
z
" style="fill:#ff0000;"/>
   </g>
   <g id="patch_27">
    <path clip-path="url(#pc8adddd412)" d="M 351.716814 104.002768 
Q 348.562746 108.101384 345.170371 110.16005 
Q 341.777996 112.2 338.161331 112.2 
Q 329.98879 112.2 325.215634 99.997728 
Q 320.442478 87.795455 320.442478 66.928073 
Q 320.442478 45.817393 325.299743 33.708697 
Q 330.164016 21.6 338.623928 21.6 
Q 341.883131 21.6 344.868982 23.246932 
Q 347.861842 24.87515 350.511259 28.094154 
L 350.511259 46.154266 
Q 347.777734 42.018219 345.072244 39.978269 
Q 342.366755 37.919603 339.647247 37.919603 
Q 334.614757 37.919603 331.88824 45.44309 
Q 329.161724 52.947862 329.161724 66.928073 
Q 329.161724 80.777277 331.790114 88.338195 
Q 334.418504 95.880397 339.254741 95.880397 
Q 340.572441 95.880397 341.700896 95.449948 
Q 342.829351 95.000785 343.726509 94.065028 
L 343.726509 77.10911 
L 338.574864 77.10911 
L 338.574864 62.00599 
L 351.716814 62.00599 
z
" style="fill:#ffa600;"/>
   </g>
   <g id="patch_28">
    <path clip-path="url(#pc8adddd412)" d="M 353.362832 21.6 
L 384.637168 21.6 
L 384.637168 48.104286 
L 373.38568 48.104286 
L 373.38568 157.5 
L 364.636139 157.5 
L 364.636139 48.104286 
L 353.362832 48.104286 
z
" style="fill:#ff0000;"/>
   </g>
   <g id="patch_29">
    <path clip-path="url(#pc8adddd412)" d="M 386.283186 21.6 
L 417.557522 21.6 
L 417.557522 48.104286 
L 406.306034 48.104286 
L 406.306034 157.5 
L 397.556493 157.5 
L 397.556493 48.104286 
L 386.283186 48.104286 
z
" style="fill:#ff0000;"/>
   </g>
   <g id="patch_30">
    <path clip-path="url(#pc8adddd412)" d="M 450.477876 154.767589 
Q 447.323808 156.133795 443.931433 156.820017 
Q 440.539057 157.5 436.922393 157.5 
Q 428.749852 157.5 423.976696 153.432576 
Q 419.20354 149.365152 419.20354 142.409358 
Q 419.20354 135.372464 424.060805 131.336232 
Q 428.925078 127.3 437.384989 127.3 
Q 440.644193 127.3 443.630044 127.848977 
Q 446.622904 128.391717 449.272321 129.464718 
L 449.272321 135.484755 
Q 446.538796 134.106073 443.833306 133.42609 
Q 441.127817 132.739868 438.408309 132.739868 
Q 433.375819 132.739868 430.649302 135.247697 
Q 427.922786 137.749287 427.922786 142.409358 
Q 427.922786 147.025759 430.551176 149.546065 
Q 433.179565 152.060132 438.015803 152.060132 
Q 439.333503 152.060132 440.461958 151.916649 
Q 441.590413 151.766928 442.487571 151.455009 
L 442.487571 145.803037 
L 437.335926 145.803037 
L 437.335926 140.768663 
L 450.477876 140.768663 
z
" style="fill:#ffa600;"/>
   </g>
   <g id="patch_31">
    <path clip-path="url(#pc8adddd412)" d="M 440.8673 108.044749 
L 428.839693 108.044749 
L 426.940597 127.3 
L 419.20354 127.3 
L 430.252825 21.6 
L 439.428591 21.6 
L 450.477876 127.3 
L 442.747213 127.3 
z
M 430.757972 88.427047 
L 438.929839 88.427047 
L 434.850299 46.38264 
z
" style="fill:#008000;"/>
   </g>
   <g id="patch_32">
    <path clip-path="url(#pc8adddd412)" d="M 483.39823 156.133795 
Q 480.244162 156.816897 476.851787 157.160008 
Q 473.459411 157.5 469.842747 157.5 
Q 461.670206 157.5 456.89705 155.466288 
Q 452.123894 153.432576 452.123894 149.954679 
Q 452.123894 146.436232 456.981158 144.418116 
Q 461.845432 142.4 470.305343 142.4 
Q 473.564547 142.4 476.550398 142.674489 
Q 479.543258 142.945858 482.192675 143.482359 
L 482.192675 146.492378 
Q 479.45915 145.803037 476.75366 145.463045 
Q 474.048171 145.119934 471.328663 145.119934 
Q 466.296173 145.119934 463.569656 146.373848 
Q 460.84314 147.624644 460.84314 149.954679 
Q 460.84314 152.26288 463.471529 153.523032 
Q 466.099919 154.780066 470.936157 154.780066 
Q 472.253857 154.780066 473.382312 154.708325 
Q 474.510767 154.633464 475.407925 154.477505 
L 475.407925 151.651518 
L 470.25628 151.651518 
L 470.25628 149.134332 
L 483.39823 149.134332 
z
" style="fill:#ffa600;"/>
   </g>
   <g id="patch_33">
    <path clip-path="url(#pc8adddd412)" d="M 473.787654 120.393999 
L 461.760047 120.393999 
L 459.860951 142.4 
L 452.123894 142.4 
L 463.173179 21.6 
L 472.348945 21.6 
L 483.39823 142.4 
L 475.667567 142.4 
z
M 463.678326 97.973768 
L 471.850193 97.973768 
L 467.770653 49.923018 
z
" style="fill:#008000;"/>
   </g>
   <g id="patch_34">
    <path clip-path="url(#pc8adddd412)" d="M 506.708008 151.9985 
L 494.680401 151.9985 
L 492.781305 157.5 
L 485.044248 157.5 
L 496.093533 127.3 
L 505.269299 127.3 
L 516.318584 157.5 
L 508.587921 157.5 
z
M 496.59868 146.393442 
L 504.770547 146.393442 
L 500.691007 134.380754 
z
" style="fill:#008000;"/>
   </g>
   <g id="patch_35">
    <path clip-path="url(#pc8adddd412)" d="M 485.044248 82 
L 516.318584 82 
L 516.318584 90.834762 
L 505.067096 90.834762 
L 505.067096 127.3 
L 496.317555 127.3 
L 496.317555 90.834762 
L 485.044248 90.834762 
z
" style="fill:#ff0000;"/>
   </g>
   <g id="patch_36">
    <path clip-path="url(#pc8adddd412)" d="M 516.318584 76.535179 
Q 513.164516 79.267589 509.772141 80.640033 
Q 506.379765 82 502.763101 82 
Q 494.59056 82 489.817404 73.865152 
Q 485.044248 65.730304 485.044248 51.818715 
Q 485.044248 37.744929 489.901512 29.672464 
Q 494.765786 21.6 503.225697 21.6 
Q 506.484901 21.6 509.470752 22.697955 
Q 512.463612 23.783433 515.113029 25.929436 
L 515.113029 37.96951 
Q 512.379504 35.212146 509.674014 33.852179 
Q 506.968525 32.479736 504.249017 32.479736 
Q 499.216527 32.479736 496.49001 37.495394 
Q 493.763493 42.498575 493.763493 51.818715 
Q 493.763493 61.051518 496.391883 66.09213 
Q 499.020273 71.120264 503.856511 71.120264 
Q 505.174211 71.120264 506.302666 70.833299 
Q 507.431121 70.533857 508.328279 69.910019 
L 508.328279 58.606073 
L 503.176634 58.606073 
L 503.176634 48.537327 
L 516.318584 48.537327 
z
" style="fill:#ffa600;"/>
   </g>
   <g id="patch_37">
    <path clip-path="url(#pc8adddd412)" d="M 549.238938 154.767589 
Q 546.08487 156.133795 542.692495 156.820017 
Q 539.300119 157.5 535.683455 157.5 
Q 527.510914 157.5 522.737758 153.432576 
Q 517.964602 149.365152 517.964602 142.409358 
Q 517.964602 135.372464 522.821866 131.336232 
Q 527.68614 127.3 536.146051 127.3 
Q 539.405255 127.3 542.391106 127.848977 
Q 545.383966 128.391717 548.033383 129.464718 
L 548.033383 135.484755 
Q 545.299858 134.106073 542.594368 133.42609 
Q 539.888879 132.739868 537.169371 132.739868 
Q 532.136881 132.739868 529.410364 135.247697 
Q 526.683847 137.749287 526.683847 142.409358 
Q 526.683847 147.025759 529.312237 149.546065 
Q 531.940627 152.060132 536.776865 152.060132 
Q 538.094565 152.060132 539.22302 151.916649 
Q 540.351475 151.766928 541.248633 151.455009 
L 541.248633 145.803037 
L 536.096988 145.803037 
L 536.096988 140.768663 
L 549.238938 140.768663 
z
" style="fill:#ffa600;"/>
   </g>
   <g id="patch_38">
    <path clip-path="url(#pc8adddd412)" d="M 539.628362 108.044749 
L 527.600755 108.044749 
L 525.701659 127.3 
L 517.964602 127.3 
L 529.013887 21.6 
L 538.189653 21.6 
L 549.238938 127.3 
L 541.508275 127.3 
z
M 529.519034 88.427047 
L 537.690901 88.427047 
L 533.611361 46.38264 
z
" style="fill:#008000;"/>
   </g>
   <g id="patch_39">
    <path clip-path="url(#pc8adddd412)" d="M 572.548716 151.9985 
L 560.521109 151.9985 
L 558.622013 157.5 
L 550.884956 157.5 
L 561.934241 127.3 
L 571.110007 127.3 
L 582.159292 157.5 
L 574.428629 157.5 
z
M 562.439387 146.393442 
L 570.611255 146.393442 
L 566.531715 134.380754 
z
" style="fill:#008000;"/>
   </g>
   <g id="patch_40">
    <path clip-path="url(#pc8adddd412)" d="M 550.884956 21.6 
L 582.159292 21.6 
L 582.159292 42.214445 
L 570.907804 42.214445 
L 570.907804 127.3 
L 562.158263 127.3 
L 562.158263 42.214445 
L 550.884956 42.214445 
z
" style="fill:#ff0000;"/>
   </g>
   <g id="patch_41">
    <path clip-path="url(#pc8adddd412)" d="M 615.079646 145.204152 
Q 611.925578 151.352076 608.533203 154.440074 
Q 605.140827 157.5 601.524163 157.5 
Q 593.351622 157.5 588.578466 139.196592 
Q 583.80531 120.893183 583.80531 89.592109 
Q 583.80531 57.92609 588.662574 39.763045 
Q 593.526848 21.6 601.986759 21.6 
Q 605.245963 21.6 608.231814 24.070399 
Q 611.224674 26.512725 613.874091 31.341231 
L 613.874091 58.431398 
Q 611.140566 52.227329 608.435076 49.167403 
Q 605.729587 46.079405 603.010079 46.079405 
Q 597.977589 46.079405 595.251072 57.364635 
Q 592.524555 68.621793 592.524555 89.592109 
Q 592.524555 110.365916 595.152945 121.707292 
Q 597.781335 133.020595 602.617573 133.020595 
Q 603.935272 133.020595 605.063728 132.374923 
Q 606.192183 131.701177 607.08934 130.297542 
L 607.08934 104.863665 
L 601.937696 104.863665 
L 601.937696 82.208986 
L 615.079646 82.208986 
z
" style="fill:#ffa600;"/>
   </g>
   <g id="patch_42">
    <path clip-path="url(#pc8adddd412)" d="M 638.389424 154.74925 
L 626.361817 154.74925 
L 624.462721 157.5 
L 616.725664 157.5 
L 627.774949 142.4 
L 636.950715 142.4 
L 648 157.5 
L 640.269337 157.5 
z
M 628.280095 151.946721 
L 636.451963 151.946721 
L 632.372423 145.940377 
z
" style="fill:#008000;"/>
   </g>
   <g id="patch_43">
    <path clip-path="url(#pc8adddd412)" d="M 616.725664 112.2 
L 648 112.2 
L 648 118.089841 
L 636.748512 118.089841 
L 636.748512 142.4 
L 627.998971 142.4 
L 627.998971 118.089841 
L 616.725664 118.089841 
z
" style="fill:#ff0000;"/>
   </g>
   <g id="patch_44">
    <path clip-path="url(#pc8adddd412)" d="M 648 108.952923 
Q 645.383956 110.562425 642.555161 111.376534 
Q 639.726366 112.2 636.645422 112.2 
Q 627.457749 112.2 622.091706 106.098864 
Q 616.725664 99.997728 616.725664 89.564036 
Q 616.725664 79.092915 622.091706 73.001136 
Q 627.457749 66.9 636.645422 66.9 
Q 639.726366 66.9 642.555161 67.723466 
Q 645.383956 68.537575 648 70.147077 
L 648 79.177133 
Q 645.360317 77.043607 642.79943 76.051704 
Q 640.238543 75.059802 637.409749 75.059802 
Q 632.335253 75.059802 629.427662 78.924478 
Q 626.52795 82.779798 626.52795 89.564036 
Q 626.52795 96.320202 629.427662 100.184879 
Q 632.335253 104.040198 637.409749 104.040198 
Q 640.238543 104.040198 642.79943 103.048296 
Q 645.360317 102.047036 648 99.91351 
z
" style="fill:#0000ff;"/>
   </g>
   <g id="patch_45">
    <path clip-path="url(#pc8adddd412)" d="M 648 62.801384 
Q 644.845932 64.850692 641.453557 65.880025 
Q 638.061181 66.9 634.444517 66.9 
Q 626.271976 66.9 621.49882 60.798864 
Q 616.725664 54.697728 616.725664 44.264036 
Q 616.725664 33.708697 621.582928 27.654348 
Q 626.447202 21.6 634.907113 21.6 
Q 638.166317 21.6 641.152168 22.423466 
Q 644.145028 23.237575 646.794445 24.847077 
L 646.794445 33.877133 
Q 644.06092 31.80911 641.35543 30.789134 
Q 638.649941 29.759802 635.930433 29.759802 
Q 630.897943 29.759802 628.171426 33.521545 
Q 625.444909 37.273931 625.444909 44.264036 
Q 625.444909 51.188639 628.073299 54.969097 
Q 630.701689 58.740198 635.537927 58.740198 
Q 636.855626 58.740198 637.984082 58.524974 
Q 639.112537 58.300392 640.009694 57.832514 
L 640.009694 49.354555 
L 634.85805 49.354555 
L 634.85805 41.802995 
L 648 41.802995 
z
" style="fill:#ffa600;"/>
   </g>
  </g>
 </g>
 <defs>
  <clipPath id="pc8adddd412">
   <rect height="135.9" width="558" x="90" y="21.6"/>
  </clipPath>
 </defs>
</svg>
