<?xml version="1.0" encoding="utf-8" standalone="no"?>
<!DOCTYPE svg PUBLIC "-//W3C//DTD SVG 1.1//EN"
  "http://www.w3.org/Graphics/SVG/1.1/DTD/svg11.dtd">
<!-- Created with matplotlib (https://matplotlib.org/) -->
<svg height="180pt" version="1.1" viewBox="0 0 720 180" width="720pt" xmlns="http://www.w3.org/2000/svg" xmlns:xlink="http://www.w3.org/1999/xlink">
 <metadata>
  <rdf:RDF xmlns:cc="http://creativecommons.org/ns#" xmlns:dc="http://purl.org/dc/elements/1.1/" xmlns:rdf="http://www.w3.org/1999/02/22-rdf-syntax-ns#">
   <cc:Work>
    <dc:type rdf:resource="http://purl.org/dc/dcmitype/StillImage"/>
    <dc:date>2021-08-04T23:32:56.468874</dc:date>
    <dc:format>image/svg+xml</dc:format>
    <dc:creator>
     <cc:Agent>
      <dc:title>Matplotlib v3.3.2, https://matplotlib.org/</dc:title>
     </cc:Agent>
    </dc:creator>
   </cc:Work>
  </rdf:RDF>
 </metadata>
 <defs>
  <style type="text/css">*{stroke-linecap:butt;stroke-linejoin:round;}</style>
 </defs>
 <g id="figure_1">
  <g id="patch_1">
   <path d="M 0 180 
L 720 180 
L 720 0 
L 0 0 
z
" style="fill:none;"/>
  </g>
  <g id="axes_1">
   <g id="line2d_1">
    <path clip-path="url(#p65c491a110)" d="M 90 157.5 
L 648 157.5 
" style="fill:none;stroke:#000000;stroke-linecap:square;stroke-width:0.5;"/>
   </g>
   <g id="patch_2">
    <path clip-path="url(#p65c491a110)" d="M 121.274336 154.767589 
Q 118.120268 156.133795 114.727893 156.820017 
Q 111.335518 157.5 107.718853 157.5 
Q 99.546312 157.5 94.773156 153.432576 
Q 90 149.365152 90 142.409358 
Q 90 135.372464 94.857265 131.336232 
Q 99.721538 127.3 108.18145 127.3 
Q 111.440653 127.3 114.426504 127.848977 
Q 117.419364 128.391717 120.068781 129.464718 
L 120.068781 135.484755 
Q 117.335256 134.106073 114.629766 133.42609 
Q 111.924277 132.739868 109.204769 132.739868 
Q 104.172279 132.739868 101.445762 135.247697 
Q 98.719246 137.749287 98.719246 142.409358 
Q 98.719246 147.025759 101.347636 149.546065 
Q 103.976026 152.060132 108.812263 152.060132 
Q 110.129963 152.060132 111.258418 151.916649 
Q 112.386874 151.766928 113.284031 151.455009 
L 113.284031 145.803037 
L 108.132386 145.803037 
L 108.132386 140.768663 
L 121.274336 140.768663 
z
" style="fill:#ffa600;"/>
   </g>
   <g id="patch_3">
    <path clip-path="url(#p65c491a110)" d="M 111.66376 119.04775 
L 99.636153 119.04775 
L 97.737057 127.3 
L 90 127.3 
L 101.049285 82 
L 110.225051 82 
L 121.274336 127.3 
L 113.543673 127.3 
z
M 101.554432 110.640163 
L 109.726299 110.640163 
L 105.64676 92.621132 
z
" style="fill:#008000;"/>
   </g>
   <g id="patch_4">
    <path clip-path="url(#p65c491a110)" d="M 90 21.6 
L 121.274336 21.6 
L 121.274336 33.379683 
L 110.022848 33.379683 
L 110.022848 82 
L 101.273307 82 
L 101.273307 33.379683 
L 90 33.379683 
z
" style="fill:#ff0000;"/>
   </g>
   <g id="patch_5">
    <path clip-path="url(#p65c491a110)" d="M 154.19469 156.133795 
Q 151.040622 156.816897 147.648247 157.160008 
Q 144.255872 157.5 140.639207 157.5 
Q 132.466666 157.5 127.69351 155.466288 
Q 122.920354 153.432576 122.920354 149.954679 
Q 122.920354 146.436232 127.777619 144.418116 
Q 132.641892 142.4 141.101804 142.4 
Q 144.361007 142.4 147.346858 142.674489 
Q 150.339718 142.945858 152.989135 143.482359 
L 152.989135 146.492378 
Q 150.25561 145.803037 147.55012 145.463045 
Q 144.844631 145.119934 142.125123 145.119934 
Q 137.092633 145.119934 134.366116 146.373848 
Q 131.6396 147.624644 131.6396 149.954679 
Q 131.6396 152.26288 134.26799 153.523032 
Q 136.89638 154.780066 141.732617 154.780066 
Q 143.050317 154.780066 144.178772 154.708325 
Q 145.307228 154.633464 146.204385 154.477505 
L 146.204385 151.651518 
L 141.05274 151.651518 
L 141.05274 149.134332 
L 154.19469 149.134332 
z
" style="fill:#ffa600;"/>
   </g>
   <g id="patch_6">
    <path clip-path="url(#p65c491a110)" d="M 154.19469 140.235282 
Q 151.578646 141.308283 148.749851 141.851023 
Q 145.921056 142.4 142.840113 142.4 
Q 133.652439 142.4 128.286397 138.332576 
Q 122.920354 134.265152 122.920354 127.309358 
Q 122.920354 120.32861 128.286397 116.267424 
Q 133.652439 112.2 142.840113 112.2 
Q 145.921056 112.2 148.749851 112.748977 
Q 151.578646 113.291717 154.19469 114.364718 
L 154.19469 120.384755 
Q 151.555007 118.962404 148.99412 118.301136 
Q 146.433234 117.639868 143.604439 117.639868 
Q 138.529943 117.639868 135.622352 120.216319 
Q 132.72264 122.786532 132.72264 127.309358 
Q 132.72264 131.813468 135.622352 134.389919 
Q 138.529943 136.960132 143.604439 136.960132 
Q 146.433234 136.960132 148.99412 136.298864 
Q 151.555007 135.631357 154.19469 134.209006 
z
" style="fill:#0000ff;"/>
   </g>
   <g id="patch_7">
    <path clip-path="url(#p65c491a110)" d="M 144.584114 103.94775 
L 132.556507 103.94775 
L 130.657411 112.2 
L 122.920354 112.2 
L 133.969639 66.9 
L 143.145405 66.9 
L 154.19469 112.2 
L 146.464027 112.2 
z
M 134.474786 95.540163 
L 142.646653 95.540163 
L 138.567114 77.521132 
z
" style="fill:#008000;"/>
   </g>
   <g id="patch_8">
    <path clip-path="url(#p65c491a110)" d="M 122.920354 21.6 
L 154.19469 21.6 
L 154.19469 30.434762 
L 142.943202 30.434762 
L 142.943202 66.9 
L 134.193661 66.9 
L 134.193661 30.434762 
L 122.920354 30.434762 
z
" style="fill:#ff0000;"/>
   </g>
   <g id="patch_9">
    <path clip-path="url(#p65c491a110)" d="M 187.115044 153.401384 
Q 183.960976 155.450692 180.568601 156.480025 
Q 177.176226 157.5 173.559561 157.5 
Q 165.38702 157.5 160.613864 151.398864 
Q 155.840708 145.297728 155.840708 134.864036 
Q 155.840708 124.308697 160.697973 118.254348 
Q 165.562246 112.2 174.022158 112.2 
Q 177.281361 112.2 180.267212 113.023466 
Q 183.260072 113.837575 185.909489 115.447077 
L 185.909489 124.477133 
Q 183.175964 122.40911 180.470474 121.389134 
Q 177.764985 120.359802 175.045477 120.359802 
Q 170.012987 120.359802 167.28647 124.121545 
Q 164.559954 127.873931 164.559954 134.864036 
Q 164.559954 141.788639 167.188344 145.569097 
Q 169.816734 149.340198 174.652971 149.340198 
Q 175.970671 149.340198 177.099126 149.124974 
Q 178.227582 148.900392 179.124739 148.432514 
L 179.124739 139.954555 
L 173.973094 139.954555 
L 173.973094 132.402995 
L 187.115044 132.402995 
z
" style="fill:#ffa600;"/>
   </g>
   <g id="patch_10">
    <path clip-path="url(#p65c491a110)" d="M 177.504468 95.695499 
L 165.476861 95.695499 
L 163.577765 112.2 
L 155.840708 112.2 
L 166.889993 21.6 
L 176.065759 21.6 
L 187.115044 112.2 
L 179.384381 112.2 
z
M 167.39514 78.880326 
L 175.567007 78.880326 
L 171.487467 42.842263 
z
" style="fill:#008000;"/>
   </g>
   <g id="patch_11">
    <path clip-path="url(#p65c491a110)" d="M 188.761062 127.3 
L 220.035398 127.3 
L 220.035398 133.189841 
L 208.78391 133.189841 
L 208.78391 157.5 
L 200.034369 157.5 
L 200.034369 133.189841 
L 188.761062 133.189841 
z
" style="fill:#ff0000;"/>
   </g>
   <g id="patch_12">
    <path clip-path="url(#p65c491a110)" d="M 210.424822 108.044749 
L 198.397215 108.044749 
L 196.498119 127.3 
L 188.761062 127.3 
L 199.810347 21.6 
L 208.986113 21.6 
L 220.035398 127.3 
L 212.304735 127.3 
z
M 200.315494 88.427047 
L 208.487361 88.427047 
L 204.407821 46.38264 
z
" style="fill:#008000;"/>
   </g>
   <g id="patch_13">
    <path clip-path="url(#p65c491a110)" d="M 243.345176 154.74925 
L 231.317569 154.74925 
L 229.418473 157.5 
L 221.681416 157.5 
L 232.730701 142.4 
L 241.906467 142.4 
L 252.955752 157.5 
L 245.225089 157.5 
z
M 233.235848 151.946721 
L 241.407715 151.946721 
L 237.328175 145.940377 
z
" style="fill:#008000;"/>
   </g>
   <g id="patch_14">
    <path clip-path="url(#p65c491a110)" d="M 221.681416 112.2 
L 252.955752 112.2 
L 252.955752 118.089841 
L 241.704264 118.089841 
L 241.704264 142.4 
L 232.954723 142.4 
L 232.954723 118.089841 
L 221.681416 118.089841 
z
" style="fill:#ff0000;"/>
   </g>
   <g id="patch_15">
    <path clip-path="url(#p65c491a110)" d="M 252.955752 108.952923 
Q 250.339708 110.562425 247.510913 111.376534 
Q 244.682118 112.2 241.601175 112.2 
Q 232.413501 112.2 227.047459 106.098864 
Q 221.681416 99.997728 221.681416 89.564036 
Q 221.681416 79.092915 227.047459 73.001136 
Q 232.413501 66.9 241.601175 66.9 
Q 244.682118 66.9 247.510913 67.723466 
Q 250.339708 68.537575 252.955752 70.147077 
L 252.955752 79.177133 
Q 250.316069 77.043607 247.755182 76.051704 
Q 245.194296 75.059802 242.365501 75.059802 
Q 237.291005 75.059802 234.383414 78.924478 
Q 231.483702 82.779798 231.483702 89.564036 
Q 231.483702 96.320202 234.383414 100.184879 
Q 237.291005 104.040198 242.365501 104.040198 
Q 245.194296 104.040198 247.755182 103.048296 
Q 250.316069 102.047036 252.955752 99.91351 
z
" style="fill:#0000ff;"/>
   </g>
   <g id="patch_16">
    <path clip-path="url(#p65c491a110)" d="M 252.955752 62.801384 
Q 249.801684 64.850692 246.409309 65.880025 
Q 243.016934 66.9 239.400269 66.9 
Q 231.227728 66.9 226.454572 60.798864 
Q 221.681416 54.697728 221.681416 44.264036 
Q 221.681416 33.708697 226.538681 27.654348 
Q 231.402954 21.6 239.862866 21.6 
Q 243.122069 21.6 246.10792 22.423466 
Q 249.10078 23.237575 251.750197 24.847077 
L 251.750197 33.877133 
Q 249.016672 31.80911 246.311182 30.789134 
Q 243.605693 29.759802 240.886185 29.759802 
Q 235.853695 29.759802 233.127178 33.521545 
Q 230.400662 37.273931 230.400662 44.264036 
Q 230.400662 51.188639 233.029052 54.969097 
Q 235.657442 58.740198 240.493679 58.740198 
Q 241.811379 58.740198 242.939834 58.524974 
Q 244.06829 58.300392 244.965447 57.832514 
L 244.965447 49.354555 
L 239.813802 49.354555 
L 239.813802 41.802995 
L 252.955752 41.802995 
z
" style="fill:#ffa600;"/>
   </g>
   <g id="patch_17">
    <path clip-path="url(#p65c491a110)" d="M 285.876106 155.335282 
Q 283.260062 156.408283 280.431267 156.951023 
Q 277.602472 157.5 274.521529 157.5 
Q 265.333855 157.5 259.967812 153.432576 
Q 254.60177 149.365152 254.60177 142.409358 
Q 254.60177 135.42861 259.967812 131.367424 
Q 265.333855 127.3 274.521529 127.3 
Q 277.602472 127.3 280.431267 127.848977 
Q 283.260062 128.391717 285.876106 129.464718 
L 285.876106 135.484755 
Q 283.236423 134.062404 280.675536 133.401136 
Q 278.11465 132.739868 275.285855 132.739868 
Q 270.211359 132.739868 267.303768 135.316319 
Q 264.404056 137.886532 264.404056 142.409358 
Q 264.404056 146.913468 267.303768 149.489919 
Q 270.211359 152.060132 275.285855 152.060132 
Q 278.11465 152.060132 280.675536 151.398864 
Q 283.236423 150.731357 285.876106 149.309006 
z
" style="fill:#0000ff;"/>
   </g>
   <g id="patch_18">
    <path clip-path="url(#p65c491a110)" d="M 276.26553 108.044749 
L 264.237923 108.044749 
L 262.338827 127.3 
L 254.60177 127.3 
L 265.651055 21.6 
L 274.826821 21.6 
L 285.876106 127.3 
L 278.145443 127.3 
z
M 266.156202 88.427047 
L 274.328069 88.427047 
L 270.248529 46.38264 
z
" style="fill:#008000;"/>
   </g>
   <g id="patch_19">
    <path clip-path="url(#p65c491a110)" d="M 318.79646 156.133795 
Q 315.642392 156.816897 312.250017 157.160008 
Q 308.857642 157.5 305.240977 157.5 
Q 297.068436 157.5 292.29528 155.466288 
Q 287.522124 153.432576 287.522124 149.954679 
Q 287.522124 146.436232 292.379389 144.418116 
Q 297.243662 142.4 305.703574 142.4 
Q 308.962777 142.4 311.948628 142.674489 
Q 314.941488 142.945858 317.590905 143.482359 
L 317.590905 146.492378 
Q 314.85738 145.803037 312.15189 145.463045 
Q 309.446401 145.119934 306.726893 145.119934 
Q 301.694403 145.119934 298.967886 146.373848 
Q 296.24137 147.624644 296.24137 149.954679 
Q 296.24137 152.26288 298.86976 153.523032 
Q 301.49815 154.780066 306.334387 154.780066 
Q 307.652087 154.780066 308.780542 154.708325 
Q 309.908998 154.633464 310.806155 154.477505 
L 310.806155 151.651518 
L 305.65451 151.651518 
L 305.65451 149.134332 
L 318.79646 149.134332 
z
" style="fill:#ffa600;"/>
   </g>
   <g id="patch_20">
    <path clip-path="url(#p65c491a110)" d="M 287.522124 127.3 
L 318.79646 127.3 
L 318.79646 130.244921 
L 307.544972 130.244921 
L 307.544972 142.4 
L 298.795431 142.4 
L 298.795431 130.244921 
L 287.522124 130.244921 
z
" style="fill:#ff0000;"/>
   </g>
   <g id="patch_21">
    <path clip-path="url(#p65c491a110)" d="M 309.185884 108.044749 
L 297.158277 108.044749 
L 295.259181 127.3 
L 287.522124 127.3 
L 298.571409 21.6 
L 307.747175 21.6 
L 318.79646 127.3 
L 311.065797 127.3 
z
M 299.076556 88.427047 
L 307.248423 88.427047 
L 303.168883 46.38264 
z
" style="fill:#008000;"/>
   </g>
   <g id="patch_22">
    <path clip-path="url(#p65c491a110)" d="M 320.442478 142.4 
L 351.716814 142.4 
L 351.716814 145.344921 
L 340.465326 145.344921 
L 340.465326 157.5 
L 331.715785 157.5 
L 331.715785 145.344921 
L 320.442478 145.344921 
z
" style="fill:#ff0000;"/>
   </g>
   <g id="patch_23">
    <path clip-path="url(#p65c491a110)" d="M 351.716814 139.667589 
Q 348.562746 141.033795 345.170371 141.720017 
Q 341.777996 142.4 338.161331 142.4 
Q 329.98879 142.4 325.215634 138.332576 
Q 320.442478 134.265152 320.442478 127.309358 
Q 320.442478 120.272464 325.299743 116.236232 
Q 330.164016 112.2 338.623928 112.2 
Q 341.883131 112.2 344.868982 112.748977 
Q 347.861842 113.291717 350.511259 114.364718 
L 350.511259 120.384755 
Q 347.777734 119.006073 345.072244 118.32609 
Q 342.366755 117.639868 339.647247 117.639868 
Q 334.614757 117.639868 331.88824 120.147697 
Q 329.161724 122.649287 329.161724 127.309358 
Q 329.161724 131.925759 331.790114 134.446065 
Q 334.418504 136.960132 339.254741 136.960132 
Q 340.572441 136.960132 341.700896 136.816649 
Q 342.829351 136.666928 343.726509 136.355009 
L 343.726509 130.703037 
L 338.574864 130.703037 
L 338.574864 125.668663 
L 351.716814 125.668663 
z
" style="fill:#ffa600;"/>
   </g>
   <g id="patch_24">
    <path clip-path="url(#p65c491a110)" d="M 342.106238 103.94775 
L 330.078631 103.94775 
L 328.179535 112.2 
L 320.442478 112.2 
L 331.491763 66.9 
L 340.667529 66.9 
L 351.716814 112.2 
L 343.986151 112.2 
z
M 331.99691 95.540163 
L 340.168777 95.540163 
L 336.089237 77.521132 
z
" style="fill:#008000;"/>
   </g>
   <g id="patch_25">
    <path clip-path="url(#p65c491a110)" d="M 351.716814 63.652923 
Q 349.10077 65.262425 346.271975 66.076534 
Q 343.44318 66.9 340.362237 66.9 
Q 331.174563 66.9 325.80852 60.798864 
Q 320.442478 54.697728 320.442478 44.264036 
Q 320.442478 33.792915 325.80852 27.701136 
Q 331.174563 21.6 340.362237 21.6 
Q 343.44318 21.6 346.271975 22.423466 
Q 349.10077 23.237575 351.716814 24.847077 
L 351.716814 33.877133 
Q 349.077131 31.743607 346.516244 30.751704 
Q 343.955358 29.759802 341.126563 29.759802 
Q 336.052067 29.759802 333.144476 33.624478 
Q 330.244764 37.479798 330.244764 44.264036 
Q 330.244764 51.020202 333.144476 54.884879 
Q 336.052067 58.740198 341.126563 58.740198 
Q 343.955358 58.740198 346.516244 57.748296 
Q 349.077131 56.747036 351.716814 54.61351 
z
" style="fill:#0000ff;"/>
   </g>
   <g id="patch_26">
    <path clip-path="url(#p65c491a110)" d="M 375.026592 151.9985 
L 362.998985 151.9985 
L 361.099889 157.5 
L 353.362832 157.5 
L 364.412117 127.3 
L 373.587883 127.3 
L 384.637168 157.5 
L 376.906505 157.5 
z
M 364.917264 146.393442 
L 373.089131 146.393442 
L 369.009591 134.380754 
z
" style="fill:#008000;"/>
   </g>
   <g id="patch_27">
    <path clip-path="url(#p65c491a110)" d="M 384.637168 123.201384 
Q 381.4831 125.250692 378.090725 126.280025 
Q 374.698349 127.3 371.081685 127.3 
Q 362.909144 127.3 358.135988 121.198864 
Q 353.362832 115.097728 353.362832 104.664036 
Q 353.362832 94.108697 358.220097 88.054348 
Q 363.08437 82 371.544282 82 
Q 374.803485 82 377.789336 82.823466 
Q 380.782196 83.637575 383.431613 85.247077 
L 383.431613 94.277133 
Q 380.698088 92.20911 377.992598 91.189134 
Q 375.287109 90.159802 372.567601 90.159802 
Q 367.535111 90.159802 364.808594 93.921545 
Q 362.082078 97.673931 362.082078 104.664036 
Q 362.082078 111.588639 364.710468 115.369097 
Q 367.338858 119.140198 372.175095 119.140198 
Q 373.492795 119.140198 374.62125 118.924974 
Q 375.749705 118.700392 376.646863 118.232514 
L 376.646863 109.754555 
L 371.495218 109.754555 
L 371.495218 102.202995 
L 384.637168 102.202995 
z
" style="fill:#ffa600;"/>
   </g>
   <g id="patch_28">
    <path clip-path="url(#p65c491a110)" d="M 384.637168 77.670564 
Q 382.021124 79.816567 379.192329 80.902045 
Q 376.363534 82 373.282591 82 
Q 364.094917 82 358.728874 73.865152 
Q 353.362832 65.730304 353.362832 51.818715 
Q 353.362832 37.85722 358.728874 29.734848 
Q 364.094917 21.6 373.282591 21.6 
Q 376.363534 21.6 379.192329 22.697955 
Q 382.021124 23.783433 384.637168 25.929436 
L 384.637168 37.96951 
Q 381.997485 35.124809 379.436598 33.802272 
Q 376.875712 32.479736 374.046917 32.479736 
Q 368.972421 32.479736 366.06483 37.632638 
Q 363.165118 42.773063 363.165118 51.818715 
Q 363.165118 60.826937 366.06483 65.979839 
Q 368.972421 71.120264 374.046917 71.120264 
Q 376.875712 71.120264 379.436598 69.797728 
Q 381.997485 68.462714 384.637168 65.618013 
z
" style="fill:#0000ff;"/>
   </g>
   <g id="patch_29">
    <path clip-path="url(#p65c491a110)" d="M 407.946946 132.743249 
L 395.919339 132.743249 
L 394.020243 157.5 
L 386.283186 157.5 
L 397.332471 21.6 
L 406.508237 21.6 
L 417.557522 157.5 
L 409.826859 157.5 
z
M 397.837618 107.520489 
L 406.009485 107.520489 
L 401.929945 53.463395 
z
" style="fill:#008000;"/>
   </g>
   <g id="patch_30">
    <path clip-path="url(#p65c491a110)" d="M 419.20354 21.6 
L 450.477876 21.6 
L 450.477876 48.104286 
L 439.226388 48.104286 
L 439.226388 157.5 
L 430.476847 157.5 
L 430.476847 48.104286 
L 419.20354 48.104286 
z
" style="fill:#ff0000;"/>
   </g>
   <g id="patch_31">
    <path clip-path="url(#p65c491a110)" d="M 483.39823 145.204152 
Q 480.244162 151.352076 476.851787 154.440074 
Q 473.459411 157.5 469.842747 157.5 
Q 461.670206 157.5 456.89705 139.196592 
Q 452.123894 120.893183 452.123894 89.592109 
Q 452.123894 57.92609 456.981158 39.763045 
Q 461.845432 21.6 470.305343 21.6 
Q 473.564547 21.6 476.550398 24.070399 
Q 479.543258 26.512725 482.192675 31.341231 
L 482.192675 58.431398 
Q 479.45915 52.227329 476.75366 49.167403 
Q 474.048171 46.079405 471.328663 46.079405 
Q 466.296173 46.079405 463.569656 57.364635 
Q 460.84314 68.621793 460.84314 89.592109 
Q 460.84314 110.365916 463.471529 121.707292 
Q 466.099919 133.020595 470.936157 133.020595 
Q 472.253857 133.020595 473.382312 132.374923 
Q 474.510767 131.701177 475.407925 130.297542 
L 475.407925 104.863665 
L 470.25628 104.863665 
L 470.25628 82.208986 
L 483.39823 82.208986 
z
" style="fill:#ffa600;"/>
   </g>
   <g id="patch_32">
    <path clip-path="url(#p65c491a110)" d="M 506.708008 132.743249 
L 494.680401 132.743249 
L 492.781305 157.5 
L 485.044248 157.5 
L 496.093533 21.6 
L 505.269299 21.6 
L 516.318584 157.5 
L 508.587921 157.5 
z
M 496.59868 107.520489 
L 504.770547 107.520489 
L 500.691007 53.463395 
z
" style="fill:#008000;"/>
   </g>
   <g id="patch_33">
    <path clip-path="url(#p65c491a110)" d="M 517.964602 21.6 
L 549.238938 21.6 
L 549.238938 48.104286 
L 537.98745 48.104286 
L 537.98745 157.5 
L 529.237909 157.5 
L 529.237909 48.104286 
L 517.964602 48.104286 
z
" style="fill:#ff0000;"/>
   </g>
   <g id="patch_34">
    <path clip-path="url(#p65c491a110)" d="M 582.159292 145.204152 
Q 579.005224 151.352076 575.612849 154.440074 
Q 572.220473 157.5 568.603809 157.5 
Q 560.431268 157.5 555.658112 139.196592 
Q 550.884956 120.893183 550.884956 89.592109 
Q 550.884956 57.92609 555.74222 39.763045 
Q 560.606494 21.6 569.066405 21.6 
Q 572.325609 21.6 575.31146 24.070399 
Q 578.30432 26.512725 580.953737 31.341231 
L 580.953737 58.431398 
Q 578.220212 52.227329 575.514722 49.167403 
Q 572.809233 46.079405 570.089725 46.079405 
Q 565.057235 46.079405 562.330718 57.364635 
Q 559.604201 68.621793 559.604201 89.592109 
Q 559.604201 110.365916 562.232591 121.707292 
Q 564.860981 133.020595 569.697219 133.020595 
Q 571.014919 133.020595 572.143374 132.374923 
Q 573.271829 131.701177 574.168986 130.297542 
L 574.168986 104.863665 
L 569.017342 104.863665 
L 569.017342 82.208986 
L 582.159292 82.208986 
z
" style="fill:#ffa600;"/>
   </g>
   <g id="patch_35">
    <path clip-path="url(#p65c491a110)" d="M 615.079646 156.133795 
Q 611.925578 156.816897 608.533203 157.160008 
Q 605.140827 157.5 601.524163 157.5 
Q 593.351622 157.5 588.578466 155.466288 
Q 583.80531 153.432576 583.80531 149.954679 
Q 583.80531 146.436232 588.662574 144.418116 
Q 593.526848 142.4 601.986759 142.4 
Q 605.245963 142.4 608.231814 142.674489 
Q 611.224674 142.945858 613.874091 143.482359 
L 613.874091 146.492378 
Q 611.140566 145.803037 608.435076 145.463045 
Q 605.729587 145.119934 603.010079 145.119934 
Q 597.977589 145.119934 595.251072 146.373848 
Q 592.524555 147.624644 592.524555 149.954679 
Q 592.524555 152.26288 595.152945 153.523032 
Q 597.781335 154.780066 602.617573 154.780066 
Q 603.935272 154.780066 605.063728 154.708325 
Q 606.192183 154.633464 607.08934 154.477505 
L 607.08934 151.651518 
L 601.937696 151.651518 
L 601.937696 149.134332 
L 615.079646 149.134332 
z
" style="fill:#ffa600;"/>
   </g>
   <g id="patch_36">
    <path clip-path="url(#p65c491a110)" d="M 583.80531 97.1 
L 615.079646 97.1 
L 615.079646 105.934762 
L 603.828158 105.934762 
L 603.828158 142.4 
L 595.078617 142.4 
L 595.078617 105.934762 
L 583.80531 105.934762 
z
" style="fill:#ff0000;"/>
   </g>
   <g id="patch_37">
    <path clip-path="url(#p65c491a110)" d="M 605.46907 83.346249 
L 593.441463 83.346249 
L 591.542367 97.1 
L 583.80531 97.1 
L 594.854595 21.6 
L 604.030361 21.6 
L 615.079646 97.1 
L 607.348983 97.1 
z
M 595.359741 69.333605 
L 603.531609 69.333605 
L 599.452069 39.301886 
z
" style="fill:#008000;"/>
   </g>
   <g id="patch_38">
    <path clip-path="url(#p65c491a110)" d="M 616.725664 142.4 
L 648 142.4 
L 648 145.344921 
L 636.748512 145.344921 
L 636.748512 157.5 
L 627.998971 157.5 
L 627.998971 145.344921 
L 616.725664 145.344921 
z
" style="fill:#ff0000;"/>
   </g>
   <g id="patch_39">
    <path clip-path="url(#p65c491a110)" d="M 638.389424 136.8985 
L 626.361817 136.8985 
L 624.462721 142.4 
L 616.725664 142.4 
L 627.774949 112.2 
L 636.950715 112.2 
L 648 142.4 
L 640.269337 142.4 
z
M 628.280095 131.293442 
L 636.451963 131.293442 
L 632.372423 119.280754 
z
" style="fill:#008000;"/>
   </g>
   <g id="patch_40">
    <path clip-path="url(#p65c491a110)" d="M 648 110.035282 
Q 645.383956 111.108283 642.555161 111.651023 
Q 639.726366 112.2 636.645422 112.2 
Q 627.457749 112.2 622.091706 108.132576 
Q 616.725664 104.065152 616.725664 97.109358 
Q 616.725664 90.12861 622.091706 86.067424 
Q 627.457749 82 636.645422 82 
Q 639.726366 82 642.555161 82.548977 
Q 645.383956 83.091717 648 84.164718 
L 648 90.184755 
Q 645.360317 88.762404 642.79943 88.101136 
Q 640.238543 87.439868 637.409749 87.439868 
Q 632.335253 87.439868 629.427662 90.016319 
Q 626.52795 92.586532 626.52795 97.109358 
Q 626.52795 101.613468 629.427662 104.189919 
Q 632.335253 106.760132 637.409749 106.760132 
Q 640.238543 106.760132 642.79943 106.098864 
Q 645.360317 105.431357 648 104.009006 
z
" style="fill:#0000ff;"/>
   </g>
   <g id="patch_41">
    <path clip-path="url(#p65c491a110)" d="M 648 76.535179 
Q 644.845932 79.267589 641.453557 80.640033 
Q 638.061181 82 634.444517 82 
Q 626.271976 82 621.49882 73.865152 
Q 616.725664 65.730304 616.725664 51.818715 
Q 616.725664 37.744929 621.582928 29.672464 
Q 626.447202 21.6 634.907113 21.6 
Q 638.166317 21.6 641.152168 22.697955 
Q 644.145028 23.783433 646.794445 25.929436 
L 646.794445 37.96951 
Q 644.06092 35.212146 641.35543 33.852179 
Q 638.649941 32.479736 635.930433 32.479736 
Q 630.897943 32.479736 628.171426 37.495394 
Q 625.444909 42.498575 625.444909 51.818715 
Q 625.444909 61.051518 628.073299 66.09213 
Q 630.701689 71.120264 635.537927 71.120264 
Q 636.855626 71.120264 637.984082 70.833299 
Q 639.112537 70.533857 640.009694 69.910019 
L 640.009694 58.606073 
L 634.85805 58.606073 
L 634.85805 48.537327 
L 648 48.537327 
z
" style="fill:#ffa600;"/>
   </g>
  </g>
 </g>
 <defs>
  <clipPath id="p65c491a110">
   <rect height="135.9" width="558" x="90" y="21.6"/>
  </clipPath>
 </defs>
</svg>
