<?xml version="1.0" encoding="utf-8" standalone="no"?>
<!DOCTYPE svg PUBLIC "-//W3C//DTD SVG 1.1//EN"
  "http://www.w3.org/Graphics/SVG/1.1/DTD/svg11.dtd">
<!-- Created with matplotlib (https://matplotlib.org/) -->
<svg height="180pt" version="1.1" viewBox="0 0 720 180" width="720pt" xmlns="http://www.w3.org/2000/svg" xmlns:xlink="http://www.w3.org/1999/xlink">
 <metadata>
  <rdf:RDF xmlns:cc="http://creativecommons.org/ns#" xmlns:dc="http://purl.org/dc/elements/1.1/" xmlns:rdf="http://www.w3.org/1999/02/22-rdf-syntax-ns#">
   <cc:Work>
    <dc:type rdf:resource="http://purl.org/dc/dcmitype/StillImage"/>
    <dc:date>2021-08-04T23:33:54.136166</dc:date>
    <dc:format>image/svg+xml</dc:format>
    <dc:creator>
     <cc:Agent>
      <dc:title>Matplotlib v3.3.2, https://matplotlib.org/</dc:title>
     </cc:Agent>
    </dc:creator>
   </cc:Work>
  </rdf:RDF>
 </metadata>
 <defs>
  <style type="text/css">*{stroke-linecap:butt;stroke-linejoin:round;}</style>
 </defs>
 <g id="figure_1">
  <g id="patch_1">
   <path d="M 0 180 
L 720 180 
L 720 0 
L 0 0 
z
" style="fill:none;"/>
  </g>
  <g id="axes_1">
   <g id="line2d_1">
    <path clip-path="url(#p30e8d09068)" d="M 90 157.5 
L 648 157.5 
" style="fill:none;stroke:#000000;stroke-linecap:square;stroke-width:0.5;"/>
   </g>
   <g id="patch_2">
    <path clip-path="url(#p30e8d09068)" d="M 278.30807 132.743249 
L 173.760408 132.743249 
L 157.252882 157.5 
L 90 157.5 
L 186.043785 21.6 
L 265.802369 21.6 
L 361.846154 157.5 
L 294.648853 157.5 
z
M 190.434676 107.520489 
L 261.467059 107.520489 
L 226.006448 53.463395 
z
" style="fill:#008000;"/>
   </g>
   <g id="patch_3">
    <path clip-path="url(#p30e8d09068)" d="M 648 147.758769 
Q 625.260538 152.587275 600.671783 155.029601 
Q 576.083028 157.5 549.302518 157.5 
Q 469.440433 157.5 422.797139 139.196592 
Q 376.153846 120.893183 376.153846 89.592109 
Q 376.153846 58.178744 422.797139 39.903408 
Q 469.440433 21.6 549.302518 21.6 
Q 576.083028 21.6 600.671783 24.070399 
Q 625.260538 26.512725 648 31.341231 
L 648 58.431398 
Q 625.055061 52.03082 602.795046 49.055113 
Q 580.535031 46.079405 555.946276 46.079405 
Q 511.8372 46.079405 486.563521 57.673435 
Q 461.358335 69.239393 461.358335 89.592109 
Q 461.358335 109.860607 486.563521 121.454637 
Q 511.8372 133.020595 555.946276 133.020595 
Q 580.535031 133.020595 602.795046 130.044887 
Q 625.055061 127.041107 648 120.640529 
z
" style="fill:#0000ff;"/>
   </g>
  </g>
 </g>
 <defs>
  <clipPath id="p30e8d09068">
   <rect height="135.9" width="558" x="90" y="21.6"/>
  </clipPath>
 </defs>
</svg>
