<?xml version="1.0" encoding="utf-8" standalone="no"?>
<!DOCTYPE svg PUBLIC "-//W3C//DTD SVG 1.1//EN"
  "http://www.w3.org/Graphics/SVG/1.1/DTD/svg11.dtd">
<!-- Created with matplotlib (https://matplotlib.org/) -->
<svg height="180pt" version="1.1" viewBox="0 0 720 180" width="720pt" xmlns="http://www.w3.org/2000/svg" xmlns:xlink="http://www.w3.org/1999/xlink">
 <metadata>
  <rdf:RDF xmlns:cc="http://creativecommons.org/ns#" xmlns:dc="http://purl.org/dc/elements/1.1/" xmlns:rdf="http://www.w3.org/1999/02/22-rdf-syntax-ns#">
   <cc:Work>
    <dc:type rdf:resource="http://purl.org/dc/dcmitype/StillImage"/>
    <dc:date>2021-08-04T23:33:36.427004</dc:date>
    <dc:format>image/svg+xml</dc:format>
    <dc:creator>
     <cc:Agent>
      <dc:title>Matplotlib v3.3.2, https://matplotlib.org/</dc:title>
     </cc:Agent>
    </dc:creator>
   </cc:Work>
  </rdf:RDF>
 </metadata>
 <defs>
  <style type="text/css">*{stroke-linecap:butt;stroke-linejoin:round;}</style>
 </defs>
 <g id="figure_1">
  <g id="patch_1">
   <path d="M 0 180 
L 720 180 
L 720 0 
L 0 0 
z
" style="fill:none;"/>
  </g>
  <g id="axes_1">
   <g id="line2d_1">
    <path clip-path="url(#p4df448e4d1)" d="M 90 157.5 
L 648 157.5 
" style="fill:none;stroke:#000000;stroke-linecap:square;stroke-width:0.5;"/>
   </g>
   <g id="patch_2">
    <path clip-path="url(#p4df448e4d1)" d="M 111.66376 154.74925 
L 99.636153 154.74925 
L 97.737057 157.5 
L 90 157.5 
L 101.049285 142.4 
L 110.225051 142.4 
L 121.274336 157.5 
L 113.543673 157.5 
z
M 101.554432 151.946721 
L 109.726299 151.946721 
L 105.64676 145.940377 
z
" style="fill:#008000;"/>
   </g>
   <g id="patch_3">
    <path clip-path="url(#p4df448e4d1)" d="M 90 127.3 
L 121.274336 127.3 
L 121.274336 130.244921 
L 110.022848 130.244921 
L 110.022848 142.4 
L 101.273307 142.4 
L 101.273307 130.244921 
L 90 130.244921 
z
" style="fill:#ff0000;"/>
   </g>
   <g id="patch_4">
    <path clip-path="url(#p4df448e4d1)" d="M 121.274336 123.201384 
Q 118.120268 125.250692 114.727893 126.280025 
Q 111.335518 127.3 107.718853 127.3 
Q 99.546312 127.3 94.773156 121.198864 
Q 90 115.097728 90 104.664036 
Q 90 94.108697 94.857265 88.054348 
Q 99.721538 82 108.18145 82 
Q 111.440653 82 114.426504 82.823466 
Q 117.419364 83.637575 120.068781 85.247077 
L 120.068781 94.277133 
Q 117.335256 92.20911 114.629766 91.189134 
Q 111.924277 90.159802 109.204769 90.159802 
Q 104.172279 90.159802 101.445762 93.921545 
Q 98.719246 97.673931 98.719246 104.664036 
Q 98.719246 111.588639 101.347636 115.369097 
Q 103.976026 119.140198 108.812263 119.140198 
Q 110.129963 119.140198 111.258418 118.924974 
Q 112.386874 118.700392 113.284031 118.232514 
L 113.284031 109.754555 
L 108.132386 109.754555 
L 108.132386 102.202995 
L 121.274336 102.202995 
z
" style="fill:#ffa600;"/>
   </g>
   <g id="patch_5">
    <path clip-path="url(#p4df448e4d1)" d="M 121.274336 77.670564 
Q 118.658292 79.816567 115.829497 80.902045 
Q 113.000702 82 109.919759 82 
Q 100.732085 82 95.366043 73.865152 
Q 90 65.730304 90 51.818715 
Q 90 37.85722 95.366043 29.734848 
Q 100.732085 21.6 109.919759 21.6 
Q 113.000702 21.6 115.829497 22.697955 
Q 118.658292 23.783433 121.274336 25.929436 
L 121.274336 37.96951 
Q 118.634653 35.124809 116.073766 33.802272 
Q 113.51288 32.479736 110.684085 32.479736 
Q 105.609589 32.479736 102.701998 37.632638 
Q 99.802286 42.773063 99.802286 51.818715 
Q 99.802286 60.826937 102.701998 65.979839 
Q 105.609589 71.120264 110.684085 71.120264 
Q 113.51288 71.120264 116.073766 69.797728 
Q 118.634653 68.462714 121.274336 65.618013 
z
" style="fill:#0000ff;"/>
   </g>
   <g id="patch_6">
    <path clip-path="url(#p4df448e4d1)" d="M 154.19469 156.417641 
Q 151.578646 156.954142 148.749851 157.225511 
Q 145.921056 157.5 142.840113 157.5 
Q 133.652439 157.5 128.286397 155.466288 
Q 122.920354 153.432576 122.920354 149.954679 
Q 122.920354 146.464305 128.286397 144.433712 
Q 133.652439 142.4 142.840113 142.4 
Q 145.921056 142.4 148.749851 142.674489 
Q 151.578646 142.945858 154.19469 143.482359 
L 154.19469 146.492378 
Q 151.555007 145.781202 148.99412 145.450568 
Q 146.433234 145.119934 143.604439 145.119934 
Q 138.529943 145.119934 135.622352 146.408159 
Q 132.72264 147.693266 132.72264 149.954679 
Q 132.72264 152.206734 135.622352 153.49496 
Q 138.529943 154.780066 143.604439 154.780066 
Q 146.433234 154.780066 148.99412 154.449432 
Q 151.555007 154.115679 154.19469 153.404503 
z
" style="fill:#0000ff;"/>
   </g>
   <g id="patch_7">
    <path clip-path="url(#p4df448e4d1)" d="M 154.19469 141.033795 
Q 151.040622 141.716897 147.648247 142.060008 
Q 144.255872 142.4 140.639207 142.4 
Q 132.466666 142.4 127.69351 140.366288 
Q 122.920354 138.332576 122.920354 134.854679 
Q 122.920354 131.336232 127.777619 129.318116 
Q 132.641892 127.3 141.101804 127.3 
Q 144.361007 127.3 147.346858 127.574489 
Q 150.339718 127.845858 152.989135 128.382359 
L 152.989135 131.392378 
Q 150.25561 130.703037 147.55012 130.363045 
Q 144.844631 130.019934 142.125123 130.019934 
Q 137.092633 130.019934 134.366116 131.273848 
Q 131.6396 132.524644 131.6396 134.854679 
Q 131.6396 137.16288 134.26799 138.423032 
Q 136.89638 139.680066 141.732617 139.680066 
Q 143.050317 139.680066 144.178772 139.608325 
Q 145.307228 139.533464 146.204385 139.377505 
L 146.204385 136.551518 
L 141.05274 136.551518 
L 141.05274 134.034332 
L 154.19469 134.034332 
z
" style="fill:#ffa600;"/>
   </g>
   <g id="patch_8">
    <path clip-path="url(#p4df448e4d1)" d="M 144.584114 119.04775 
L 132.556507 119.04775 
L 130.657411 127.3 
L 122.920354 127.3 
L 133.969639 82 
L 143.145405 82 
L 154.19469 127.3 
L 146.464027 127.3 
z
M 134.474786 110.640163 
L 142.646653 110.640163 
L 138.567114 92.621132 
z
" style="fill:#008000;"/>
   </g>
   <g id="patch_9">
    <path clip-path="url(#p4df448e4d1)" d="M 122.920354 21.6 
L 154.19469 21.6 
L 154.19469 33.379683 
L 142.943202 33.379683 
L 142.943202 82 
L 134.193661 82 
L 134.193661 33.379683 
L 122.920354 33.379683 
z
" style="fill:#ff0000;"/>
   </g>
   <g id="patch_10">
    <path clip-path="url(#p4df448e4d1)" d="M 177.504468 151.9985 
L 165.476861 151.9985 
L 163.577765 157.5 
L 155.840708 157.5 
L 166.889993 127.3 
L 176.065759 127.3 
L 187.115044 157.5 
L 179.384381 157.5 
z
M 167.39514 146.393442 
L 175.567007 146.393442 
L 171.487467 134.380754 
z
" style="fill:#008000;"/>
   </g>
   <g id="patch_11">
    <path clip-path="url(#p4df448e4d1)" d="M 187.115044 125.135282 
Q 184.499 126.208283 181.670205 126.751023 
Q 178.84141 127.3 175.760467 127.3 
Q 166.572793 127.3 161.206751 123.232576 
Q 155.840708 119.165152 155.840708 112.209358 
Q 155.840708 105.22861 161.206751 101.167424 
Q 166.572793 97.1 175.760467 97.1 
Q 178.84141 97.1 181.670205 97.648977 
Q 184.499 98.191717 187.115044 99.264718 
L 187.115044 105.284755 
Q 184.475361 103.862404 181.914474 103.201136 
Q 179.353588 102.539868 176.524793 102.539868 
Q 171.450297 102.539868 168.542706 105.116319 
Q 165.642994 107.686532 165.642994 112.209358 
Q 165.642994 116.713468 168.542706 119.289919 
Q 171.450297 121.860132 176.524793 121.860132 
Q 179.353588 121.860132 181.914474 121.198864 
Q 184.475361 120.531357 187.115044 119.109006 
z
" style="fill:#0000ff;"/>
   </g>
   <g id="patch_12">
    <path clip-path="url(#p4df448e4d1)" d="M 187.115044 94.367589 
Q 183.960976 95.733795 180.568601 96.420017 
Q 177.176226 97.1 173.559561 97.1 
Q 165.38702 97.1 160.613864 93.032576 
Q 155.840708 88.965152 155.840708 82.009358 
Q 155.840708 74.972464 160.697973 70.936232 
Q 165.562246 66.9 174.022158 66.9 
Q 177.281361 66.9 180.267212 67.448977 
Q 183.260072 67.991717 185.909489 69.064718 
L 185.909489 75.084755 
Q 183.175964 73.706073 180.470474 73.02609 
Q 177.764985 72.339868 175.045477 72.339868 
Q 170.012987 72.339868 167.28647 74.847697 
Q 164.559954 77.349287 164.559954 82.009358 
Q 164.559954 86.625759 167.188344 89.146065 
Q 169.816734 91.660132 174.652971 91.660132 
Q 175.970671 91.660132 177.099126 91.516649 
Q 178.227582 91.366928 179.124739 91.055009 
L 179.124739 85.403037 
L 173.973094 85.403037 
L 173.973094 80.368663 
L 187.115044 80.368663 
z
" style="fill:#ffa600;"/>
   </g>
   <g id="patch_13">
    <path clip-path="url(#p4df448e4d1)" d="M 155.840708 21.6 
L 187.115044 21.6 
L 187.115044 30.434762 
L 175.863556 30.434762 
L 175.863556 66.9 
L 167.114015 66.9 
L 167.114015 30.434762 
L 155.840708 30.434762 
z
" style="fill:#ff0000;"/>
   </g>
   <g id="patch_14">
    <path clip-path="url(#p4df448e4d1)" d="M 188.761062 112.2 
L 220.035398 112.2 
L 220.035398 121.034762 
L 208.78391 121.034762 
L 208.78391 157.5 
L 200.034369 157.5 
L 200.034369 121.034762 
L 188.761062 121.034762 
z
" style="fill:#ff0000;"/>
   </g>
   <g id="patch_15">
    <path clip-path="url(#p4df448e4d1)" d="M 220.035398 105.705846 
Q 217.419354 108.92485 214.590559 110.553068 
Q 211.761764 112.2 208.680821 112.2 
Q 199.493147 112.2 194.127105 99.997728 
Q 188.761062 87.795455 188.761062 66.928073 
Q 188.761062 45.985829 194.127105 33.802272 
Q 199.493147 21.6 208.680821 21.6 
Q 211.761764 21.6 214.590559 23.246932 
Q 217.419354 24.87515 220.035398 28.094154 
L 220.035398 46.154266 
Q 217.395715 41.887213 214.834828 39.903408 
Q 212.273942 37.919603 209.445147 37.919603 
Q 204.370651 37.919603 201.46306 45.648957 
Q 198.563348 53.359595 198.563348 66.928073 
Q 198.563348 80.440405 201.46306 88.169758 
Q 204.370651 95.880397 209.445147 95.880397 
Q 212.273942 95.880397 214.834828 93.896592 
Q 217.395715 91.894071 220.035398 87.627019 
z
" style="fill:#0000ff;"/>
   </g>
   <g id="patch_16">
    <path clip-path="url(#p4df448e4d1)" d="M 252.955752 156.417641 
Q 250.339708 156.954142 247.510913 157.225511 
Q 244.682118 157.5 241.601175 157.5 
Q 232.413501 157.5 227.047459 155.466288 
Q 221.681416 153.432576 221.681416 149.954679 
Q 221.681416 146.464305 227.047459 144.433712 
Q 232.413501 142.4 241.601175 142.4 
Q 244.682118 142.4 247.510913 142.674489 
Q 250.339708 142.945858 252.955752 143.482359 
L 252.955752 146.492378 
Q 250.316069 145.781202 247.755182 145.450568 
Q 245.194296 145.119934 242.365501 145.119934 
Q 237.291005 145.119934 234.383414 146.408159 
Q 231.483702 147.693266 231.483702 149.954679 
Q 231.483702 152.206734 234.383414 153.49496 
Q 237.291005 154.780066 242.365501 154.780066 
Q 245.194296 154.780066 247.755182 154.449432 
Q 250.316069 154.115679 252.955752 153.404503 
z
" style="fill:#0000ff;"/>
   </g>
   <g id="patch_17">
    <path clip-path="url(#p4df448e4d1)" d="M 252.955752 139.667589 
Q 249.801684 141.033795 246.409309 141.720017 
Q 243.016934 142.4 239.400269 142.4 
Q 231.227728 142.4 226.454572 138.332576 
Q 221.681416 134.265152 221.681416 127.309358 
Q 221.681416 120.272464 226.538681 116.236232 
Q 231.402954 112.2 239.862866 112.2 
Q 243.122069 112.2 246.10792 112.748977 
Q 249.10078 113.291717 251.750197 114.364718 
L 251.750197 120.384755 
Q 249.016672 119.006073 246.311182 118.32609 
Q 243.605693 117.639868 240.886185 117.639868 
Q 235.853695 117.639868 233.127178 120.147697 
Q 230.400662 122.649287 230.400662 127.309358 
Q 230.400662 131.925759 233.029052 134.446065 
Q 235.657442 136.960132 240.493679 136.960132 
Q 241.811379 136.960132 242.939834 136.816649 
Q 244.06829 136.666928 244.965447 136.355009 
L 244.965447 130.703037 
L 239.813802 130.703037 
L 239.813802 125.668663 
L 252.955752 125.668663 
z
" style="fill:#ffa600;"/>
   </g>
   <g id="patch_18">
    <path clip-path="url(#p4df448e4d1)" d="M 243.345176 95.695499 
L 231.317569 95.695499 
L 229.418473 112.2 
L 221.681416 112.2 
L 232.730701 21.6 
L 241.906467 21.6 
L 252.955752 112.2 
L 245.225089 112.2 
z
M 233.235848 78.880326 
L 241.407715 78.880326 
L 237.328175 42.842263 
z
" style="fill:#008000;"/>
   </g>
   <g id="patch_19">
    <path clip-path="url(#p4df448e4d1)" d="M 285.876106 155.335282 
Q 283.260062 156.408283 280.431267 156.951023 
Q 277.602472 157.5 274.521529 157.5 
Q 265.333855 157.5 259.967812 153.432576 
Q 254.60177 149.365152 254.60177 142.409358 
Q 254.60177 135.42861 259.967812 131.367424 
Q 265.333855 127.3 274.521529 127.3 
Q 277.602472 127.3 280.431267 127.848977 
Q 283.260062 128.391717 285.876106 129.464718 
L 285.876106 135.484755 
Q 283.236423 134.062404 280.675536 133.401136 
Q 278.11465 132.739868 275.285855 132.739868 
Q 270.211359 132.739868 267.303768 135.316319 
Q 264.404056 137.886532 264.404056 142.409358 
Q 264.404056 146.913468 267.303768 149.489919 
Q 270.211359 152.060132 275.285855 152.060132 
Q 278.11465 152.060132 280.675536 151.398864 
Q 283.236423 150.731357 285.876106 149.309006 
z
" style="fill:#0000ff;"/>
   </g>
   <g id="patch_20">
    <path clip-path="url(#p4df448e4d1)" d="M 285.876106 117.736563 
Q 282.722038 122.518281 279.329663 124.920058 
Q 275.937288 127.3 272.320623 127.3 
Q 264.148082 127.3 259.374926 113.064016 
Q 254.60177 98.828031 254.60177 74.482751 
Q 254.60177 49.853625 259.459035 35.726813 
Q 264.323308 21.6 272.78322 21.6 
Q 276.042423 21.6 279.028274 23.521421 
Q 282.021134 25.421008 284.670551 29.176513 
L 284.670551 50.246643 
Q 281.937026 45.421256 279.231536 43.041314 
Q 276.526047 40.639537 273.806539 40.639537 
Q 268.774049 40.639537 266.047532 49.416939 
Q 263.321016 58.172506 263.321016 74.482751 
Q 263.321016 90.640157 265.949406 99.461227 
Q 268.577796 108.260463 273.414033 108.260463 
Q 274.731733 108.260463 275.860188 107.758273 
Q 276.988644 107.234249 277.885801 106.142533 
L 277.885801 86.360628 
L 272.734156 86.360628 
L 272.734156 68.740322 
L 285.876106 68.740322 
z
" style="fill:#ffa600;"/>
   </g>
   <g id="patch_21">
    <path clip-path="url(#p4df448e4d1)" d="M 318.79646 154.252923 
Q 316.180416 155.862425 313.351621 156.676534 
Q 310.522826 157.5 307.441883 157.5 
Q 298.254209 157.5 292.888166 151.398864 
Q 287.522124 145.297728 287.522124 134.864036 
Q 287.522124 124.392915 292.888166 118.301136 
Q 298.254209 112.2 307.441883 112.2 
Q 310.522826 112.2 313.351621 113.023466 
Q 316.180416 113.837575 318.79646 115.447077 
L 318.79646 124.477133 
Q 316.156777 122.343607 313.59589 121.351704 
Q 311.035004 120.359802 308.206209 120.359802 
Q 303.131713 120.359802 300.224122 124.224478 
Q 297.32441 128.079798 297.32441 134.864036 
Q 297.32441 141.620202 300.224122 145.484879 
Q 303.131713 149.340198 308.206209 149.340198 
Q 311.035004 149.340198 313.59589 148.348296 
Q 316.156777 147.347036 318.79646 145.21351 
z
" style="fill:#0000ff;"/>
   </g>
   <g id="patch_22">
    <path clip-path="url(#p4df448e4d1)" d="M 287.522124 21.6 
L 318.79646 21.6 
L 318.79646 39.269524 
L 307.544972 39.269524 
L 307.544972 112.2 
L 298.795431 112.2 
L 298.795431 39.269524 
L 287.522124 39.269524 
z
" style="fill:#ff0000;"/>
   </g>
   <g id="patch_23">
    <path clip-path="url(#p4df448e4d1)" d="M 342.106238 154.74925 
L 330.078631 154.74925 
L 328.179535 157.5 
L 320.442478 157.5 
L 331.491763 142.4 
L 340.667529 142.4 
L 351.716814 157.5 
L 343.986151 157.5 
z
M 331.99691 151.946721 
L 340.168777 151.946721 
L 336.089237 145.940377 
z
" style="fill:#008000;"/>
   </g>
   <g id="patch_24">
    <path clip-path="url(#p4df448e4d1)" d="M 351.716814 131.470357 
Q 348.562746 136.935179 345.170371 139.680066 
Q 341.777996 142.4 338.161331 142.4 
Q 329.98879 142.4 325.215634 126.130304 
Q 320.442478 109.860607 320.442478 82.03743 
Q 320.442478 53.889857 325.299743 37.744929 
Q 330.164016 21.6 338.623928 21.6 
Q 341.883131 21.6 344.868982 23.79591 
Q 347.861842 25.966866 350.511259 30.258872 
L 350.511259 54.339021 
Q 347.777734 48.824293 345.072244 46.104359 
Q 342.366755 43.359471 339.647247 43.359471 
Q 334.614757 43.359471 331.88824 53.390787 
Q 329.161724 63.397149 329.161724 82.03743 
Q 329.161724 100.503037 331.790114 110.584259 
Q 334.418504 120.640529 339.254741 120.640529 
Q 340.572441 120.640529 341.700896 120.066598 
Q 342.829351 119.467713 343.726509 118.220037 
L 343.726509 95.612146 
L 338.574864 95.612146 
L 338.574864 75.474654 
L 351.716814 75.474654 
z
" style="fill:#ffa600;"/>
   </g>
   <g id="patch_25">
    <path clip-path="url(#p4df448e4d1)" d="M 353.362832 127.3 
L 384.637168 127.3 
L 384.637168 133.189841 
L 373.38568 133.189841 
L 373.38568 157.5 
L 364.636139 157.5 
L 364.636139 133.189841 
L 353.362832 133.189841 
z
" style="fill:#ff0000;"/>
   </g>
   <g id="patch_26">
    <path clip-path="url(#p4df448e4d1)" d="M 384.637168 117.736563 
Q 381.4831 122.518281 378.090725 124.920058 
Q 374.698349 127.3 371.081685 127.3 
Q 362.909144 127.3 358.135988 113.064016 
Q 353.362832 98.828031 353.362832 74.482751 
Q 353.362832 49.853625 358.220097 35.726813 
Q 363.08437 21.6 371.544282 21.6 
Q 374.803485 21.6 377.789336 23.521421 
Q 380.782196 25.421008 383.431613 29.176513 
L 383.431613 50.246643 
Q 380.698088 45.421256 377.992598 43.041314 
Q 375.287109 40.639537 372.567601 40.639537 
Q 367.535111 40.639537 364.808594 49.416939 
Q 362.082078 58.172506 362.082078 74.482751 
Q 362.082078 90.640157 364.710468 99.461227 
Q 367.338858 108.260463 372.175095 108.260463 
Q 373.492795 108.260463 374.62125 107.758273 
Q 375.749705 107.234249 376.646863 106.142533 
L 376.646863 86.360628 
L 371.495218 86.360628 
L 371.495218 68.740322 
L 384.637168 68.740322 
z
" style="fill:#ffa600;"/>
   </g>
   <g id="patch_27">
    <path clip-path="url(#p4df448e4d1)" d="M 386.283186 21.6 
L 417.557522 21.6 
L 417.557522 48.104286 
L 406.306034 48.104286 
L 406.306034 157.5 
L 397.556493 157.5 
L 397.556493 48.104286 
L 386.283186 48.104286 
z
" style="fill:#ff0000;"/>
   </g>
   <g id="patch_28">
    <path clip-path="url(#p4df448e4d1)" d="M 450.477876 154.767589 
Q 447.323808 156.133795 443.931433 156.820017 
Q 440.539057 157.5 436.922393 157.5 
Q 428.749852 157.5 423.976696 153.432576 
Q 419.20354 149.365152 419.20354 142.409358 
Q 419.20354 135.372464 424.060805 131.336232 
Q 428.925078 127.3 437.384989 127.3 
Q 440.644193 127.3 443.630044 127.848977 
Q 446.622904 128.391717 449.272321 129.464718 
L 449.272321 135.484755 
Q 446.538796 134.106073 443.833306 133.42609 
Q 441.127817 132.739868 438.408309 132.739868 
Q 433.375819 132.739868 430.649302 135.247697 
Q 427.922786 137.749287 427.922786 142.409358 
Q 427.922786 147.025759 430.551176 149.546065 
Q 433.179565 152.060132 438.015803 152.060132 
Q 439.333503 152.060132 440.461958 151.916649 
Q 441.590413 151.766928 442.487571 151.455009 
L 442.487571 145.803037 
L 437.335926 145.803037 
L 437.335926 140.768663 
L 450.477876 140.768663 
z
" style="fill:#ffa600;"/>
   </g>
   <g id="patch_29">
    <path clip-path="url(#p4df448e4d1)" d="M 440.8673 119.04775 
L 428.839693 119.04775 
L 426.940597 127.3 
L 419.20354 127.3 
L 430.252825 82 
L 439.428591 82 
L 450.477876 127.3 
L 442.747213 127.3 
z
M 430.757972 110.640163 
L 438.929839 110.640163 
L 434.850299 92.621132 
z
" style="fill:#008000;"/>
   </g>
   <g id="patch_30">
    <path clip-path="url(#p4df448e4d1)" d="M 419.20354 21.6 
L 450.477876 21.6 
L 450.477876 33.379683 
L 439.226388 33.379683 
L 439.226388 82 
L 430.476847 82 
L 430.476847 33.379683 
L 419.20354 33.379683 
z
" style="fill:#ff0000;"/>
   </g>
   <g id="patch_31">
    <path clip-path="url(#p4df448e4d1)" d="M 473.787654 146.497 
L 461.760047 146.497 
L 459.860951 157.5 
L 452.123894 157.5 
L 463.173179 97.1 
L 472.348945 97.1 
L 483.39823 157.5 
L 475.667567 157.5 
z
M 463.678326 135.286884 
L 471.850193 135.286884 
L 467.770653 111.261509 
z
" style="fill:#008000;"/>
   </g>
   <g id="patch_32">
    <path clip-path="url(#p4df448e4d1)" d="M 452.123894 21.6 
L 483.39823 21.6 
L 483.39823 36.324604 
L 472.146742 36.324604 
L 472.146742 97.1 
L 463.397201 97.1 
L 463.397201 36.324604 
L 452.123894 36.324604 
z
" style="fill:#ff0000;"/>
   </g>
   <g id="patch_33">
    <path clip-path="url(#p4df448e4d1)" d="M 506.708008 132.743249 
L 494.680401 132.743249 
L 492.781305 157.5 
L 485.044248 157.5 
L 496.093533 21.6 
L 505.269299 21.6 
L 516.318584 157.5 
L 508.587921 157.5 
z
M 496.59868 107.520489 
L 504.770547 107.520489 
L 500.691007 53.463395 
z
" style="fill:#008000;"/>
   </g>
   <g id="patch_34">
    <path clip-path="url(#p4df448e4d1)" d="M 549.238938 156.133795 
Q 546.08487 156.816897 542.692495 157.160008 
Q 539.300119 157.5 535.683455 157.5 
Q 527.510914 157.5 522.737758 155.466288 
Q 517.964602 153.432576 517.964602 149.954679 
Q 517.964602 146.436232 522.821866 144.418116 
Q 527.68614 142.4 536.146051 142.4 
Q 539.405255 142.4 542.391106 142.674489 
Q 545.383966 142.945858 548.033383 143.482359 
L 548.033383 146.492378 
Q 545.299858 145.803037 542.594368 145.463045 
Q 539.888879 145.119934 537.169371 145.119934 
Q 532.136881 145.119934 529.410364 146.373848 
Q 526.683847 147.624644 526.683847 149.954679 
Q 526.683847 152.26288 529.312237 153.523032 
Q 531.940627 154.780066 536.776865 154.780066 
Q 538.094565 154.780066 539.22302 154.708325 
Q 540.351475 154.633464 541.248633 154.477505 
L 541.248633 151.651518 
L 536.096988 151.651518 
L 536.096988 149.134332 
L 549.238938 149.134332 
z
" style="fill:#ffa600;"/>
   </g>
   <g id="patch_35">
    <path clip-path="url(#p4df448e4d1)" d="M 517.964602 21.6 
L 549.238938 21.6 
L 549.238938 45.159366 
L 537.98745 45.159366 
L 537.98745 142.4 
L 529.237909 142.4 
L 529.237909 45.159366 
L 517.964602 45.159366 
z
" style="fill:#ff0000;"/>
   </g>
   <g id="patch_36">
    <path clip-path="url(#p4df448e4d1)" d="M 550.884956 142.4 
L 582.159292 142.4 
L 582.159292 145.344921 
L 570.907804 145.344921 
L 570.907804 157.5 
L 562.158263 157.5 
L 562.158263 145.344921 
L 550.884956 145.344921 
z
" style="fill:#ff0000;"/>
   </g>
   <g id="patch_37">
    <path clip-path="url(#p4df448e4d1)" d="M 582.159292 131.470357 
Q 579.005224 136.935179 575.612849 139.680066 
Q 572.220473 142.4 568.603809 142.4 
Q 560.431268 142.4 555.658112 126.130304 
Q 550.884956 109.860607 550.884956 82.03743 
Q 550.884956 53.889857 555.74222 37.744929 
Q 560.606494 21.6 569.066405 21.6 
Q 572.325609 21.6 575.31146 23.79591 
Q 578.30432 25.966866 580.953737 30.258872 
L 580.953737 54.339021 
Q 578.220212 48.824293 575.514722 46.104359 
Q 572.809233 43.359471 570.089725 43.359471 
Q 565.057235 43.359471 562.330718 53.390787 
Q 559.604201 63.397149 559.604201 82.03743 
Q 559.604201 100.503037 562.232591 110.584259 
Q 564.860981 120.640529 569.697219 120.640529 
Q 571.014919 120.640529 572.143374 120.066598 
Q 573.271829 119.467713 574.168986 118.220037 
L 574.168986 95.612146 
L 569.017342 95.612146 
L 569.017342 75.474654 
L 582.159292 75.474654 
z
" style="fill:#ffa600;"/>
   </g>
   <g id="patch_38">
    <path clip-path="url(#p4df448e4d1)" d="M 605.46907 154.74925 
L 593.441463 154.74925 
L 591.542367 157.5 
L 583.80531 157.5 
L 594.854595 142.4 
L 604.030361 142.4 
L 615.079646 157.5 
L 607.348983 157.5 
z
M 595.359741 151.946721 
L 603.531609 151.946721 
L 599.452069 145.940377 
z
" style="fill:#008000;"/>
   </g>
   <g id="patch_39">
    <path clip-path="url(#p4df448e4d1)" d="M 615.079646 141.317641 
Q 612.463602 141.854142 609.634807 142.125511 
Q 606.806012 142.4 603.725068 142.4 
Q 594.537395 142.4 589.171352 140.366288 
Q 583.80531 138.332576 583.80531 134.854679 
Q 583.80531 131.364305 589.171352 129.333712 
Q 594.537395 127.3 603.725068 127.3 
Q 606.806012 127.3 609.634807 127.574489 
Q 612.463602 127.845858 615.079646 128.382359 
L 615.079646 131.392378 
Q 612.439963 130.681202 609.879076 130.350568 
Q 607.318189 130.019934 604.489395 130.019934 
Q 599.414899 130.019934 596.507308 131.308159 
Q 593.607596 132.593266 593.607596 134.854679 
Q 593.607596 137.106734 596.507308 138.39496 
Q 599.414899 139.680066 604.489395 139.680066 
Q 607.318189 139.680066 609.879076 139.349432 
Q 612.439963 139.015679 615.079646 138.304503 
z
" style="fill:#0000ff;"/>
   </g>
   <g id="patch_40">
    <path clip-path="url(#p4df448e4d1)" d="M 615.079646 125.933795 
Q 611.925578 126.616897 608.533203 126.960008 
Q 605.140827 127.3 601.524163 127.3 
Q 593.351622 127.3 588.578466 125.266288 
Q 583.80531 123.232576 583.80531 119.754679 
Q 583.80531 116.236232 588.662574 114.218116 
Q 593.526848 112.2 601.986759 112.2 
Q 605.245963 112.2 608.231814 112.474489 
Q 611.224674 112.745858 613.874091 113.282359 
L 613.874091 116.292378 
Q 611.140566 115.603037 608.435076 115.263045 
Q 605.729587 114.919934 603.010079 114.919934 
Q 597.977589 114.919934 595.251072 116.173848 
Q 592.524555 117.424644 592.524555 119.754679 
Q 592.524555 122.06288 595.152945 123.323032 
Q 597.781335 124.580066 602.617573 124.580066 
Q 603.935272 124.580066 605.063728 124.508325 
Q 606.192183 124.433464 607.08934 124.277505 
L 607.08934 121.451518 
L 601.937696 121.451518 
L 601.937696 118.934332 
L 615.079646 118.934332 
z
" style="fill:#ffa600;"/>
   </g>
   <g id="patch_41">
    <path clip-path="url(#p4df448e4d1)" d="M 583.80531 21.6 
L 615.079646 21.6 
L 615.079646 39.269524 
L 603.828158 39.269524 
L 603.828158 112.2 
L 595.078617 112.2 
L 595.078617 39.269524 
L 583.80531 39.269524 
z
" style="fill:#ff0000;"/>
   </g>
   <g id="patch_42">
    <path clip-path="url(#p4df448e4d1)" d="M 648 154.767589 
Q 644.845932 156.133795 641.453557 156.820017 
Q 638.061181 157.5 634.444517 157.5 
Q 626.271976 157.5 621.49882 153.432576 
Q 616.725664 149.365152 616.725664 142.409358 
Q 616.725664 135.372464 621.582928 131.336232 
Q 626.447202 127.3 634.907113 127.3 
Q 638.166317 127.3 641.152168 127.848977 
Q 644.145028 128.391717 646.794445 129.464718 
L 646.794445 135.484755 
Q 644.06092 134.106073 641.35543 133.42609 
Q 638.649941 132.739868 635.930433 132.739868 
Q 630.897943 132.739868 628.171426 135.247697 
Q 625.444909 137.749287 625.444909 142.409358 
Q 625.444909 147.025759 628.073299 149.546065 
Q 630.701689 152.060132 635.537927 152.060132 
Q 636.855626 152.060132 637.984082 151.916649 
Q 639.112537 151.766928 640.009694 151.455009 
L 640.009694 145.803037 
L 634.85805 145.803037 
L 634.85805 140.768663 
L 648 140.768663 
z
" style="fill:#ffa600;"/>
   </g>
   <g id="patch_43">
    <path clip-path="url(#p4df448e4d1)" d="M 616.725664 97.1 
L 648 97.1 
L 648 102.989841 
L 636.748512 102.989841 
L 636.748512 127.3 
L 627.998971 127.3 
L 627.998971 102.989841 
L 616.725664 102.989841 
z
" style="fill:#ff0000;"/>
   </g>
   <g id="patch_44">
    <path clip-path="url(#p4df448e4d1)" d="M 638.389424 83.346249 
L 626.361817 83.346249 
L 624.462721 97.1 
L 616.725664 97.1 
L 627.774949 21.6 
L 636.950715 21.6 
L 648 97.1 
L 640.269337 97.1 
z
M 628.280095 69.333605 
L 636.451963 69.333605 
L 632.372423 39.301886 
z
" style="fill:#008000;"/>
   </g>
  </g>
 </g>
 <defs>
  <clipPath id="p4df448e4d1">
   <rect height="135.9" width="558" x="90" y="21.6"/>
  </clipPath>
 </defs>
</svg>
