<?xml version="1.0" encoding="utf-8" standalone="no"?>
<!DOCTYPE svg PUBLIC "-//W3C//DTD SVG 1.1//EN"
  "http://www.w3.org/Graphics/SVG/1.1/DTD/svg11.dtd">
<!-- Created with matplotlib (https://matplotlib.org/) -->
<svg height="180pt" version="1.1" viewBox="0 0 720 180" width="720pt" xmlns="http://www.w3.org/2000/svg" xmlns:xlink="http://www.w3.org/1999/xlink">
 <metadata>
  <rdf:RDF xmlns:cc="http://creativecommons.org/ns#" xmlns:dc="http://purl.org/dc/elements/1.1/" xmlns:rdf="http://www.w3.org/1999/02/22-rdf-syntax-ns#">
   <cc:Work>
    <dc:type rdf:resource="http://purl.org/dc/dcmitype/StillImage"/>
    <dc:date>2021-08-04T23:33:09.246100</dc:date>
    <dc:format>image/svg+xml</dc:format>
    <dc:creator>
     <cc:Agent>
      <dc:title>Matplotlib v3.3.2, https://matplotlib.org/</dc:title>
     </cc:Agent>
    </dc:creator>
   </cc:Work>
  </rdf:RDF>
 </metadata>
 <defs>
  <style type="text/css">*{stroke-linecap:butt;stroke-linejoin:round;}</style>
 </defs>
 <g id="figure_1">
  <g id="patch_1">
   <path d="M 0 180 
L 720 180 
L 720 0 
L 0 0 
z
" style="fill:none;"/>
  </g>
  <g id="axes_1">
   <g id="line2d_1">
    <path clip-path="url(#p4eab2bb226)" d="M 90 157.5 
L 648 157.5 
" style="fill:none;stroke:#000000;stroke-linecap:square;stroke-width:0.5;"/>
   </g>
   <g id="patch_2">
    <path clip-path="url(#p4eab2bb226)" d="M 111.66376 151.9985 
L 99.636153 151.9985 
L 97.737057 157.5 
L 90 157.5 
L 101.049285 127.3 
L 110.225051 127.3 
L 121.274336 157.5 
L 113.543673 157.5 
z
M 101.554432 146.393442 
L 109.726299 146.393442 
L 105.64676 134.380754 
z
" style="fill:#008000;"/>
   </g>
   <g id="patch_3">
    <path clip-path="url(#p4eab2bb226)" d="M 121.274336 124.567589 
Q 118.120268 125.933795 114.727893 126.620017 
Q 111.335518 127.3 107.718853 127.3 
Q 99.546312 127.3 94.773156 123.232576 
Q 90 119.165152 90 112.209358 
Q 90 105.172464 94.857265 101.136232 
Q 99.721538 97.1 108.18145 97.1 
Q 111.440653 97.1 114.426504 97.648977 
Q 117.419364 98.191717 120.068781 99.264718 
L 120.068781 105.284755 
Q 117.335256 103.906073 114.629766 103.22609 
Q 111.924277 102.539868 109.204769 102.539868 
Q 104.172279 102.539868 101.445762 105.047697 
Q 98.719246 107.549287 98.719246 112.209358 
Q 98.719246 116.825759 101.347636 119.346065 
Q 103.976026 121.860132 108.812263 121.860132 
Q 110.129963 121.860132 111.258418 121.716649 
Q 112.386874 121.566928 113.284031 121.255009 
L 113.284031 115.603037 
L 108.132386 115.603037 
L 108.132386 110.568663 
L 121.274336 110.568663 
z
" style="fill:#ffa600;"/>
   </g>
   <g id="patch_4">
    <path clip-path="url(#p4eab2bb226)" d="M 121.274336 91.688205 
Q 118.658292 94.370709 115.829497 95.727556 
Q 113.000702 97.1 109.919759 97.1 
Q 100.732085 97.1 95.366043 86.93144 
Q 90 76.76288 90 59.373394 
Q 90 41.921524 95.366043 31.76856 
Q 100.732085 21.6 109.919759 21.6 
Q 113.000702 21.6 115.829497 22.972444 
Q 118.658292 24.329291 121.274336 27.011795 
L 121.274336 42.061888 
Q 118.634653 38.506011 116.073766 36.85284 
Q 113.51288 35.199669 110.684085 35.199669 
Q 105.609589 35.199669 102.701998 41.640797 
Q 99.802286 48.066329 99.802286 59.373394 
Q 99.802286 70.633671 102.701998 77.074799 
Q 105.609589 83.500331 110.684085 83.500331 
Q 113.51288 83.500331 116.073766 81.84716 
Q 118.634653 80.178393 121.274336 76.622516 
z
" style="fill:#0000ff;"/>
   </g>
   <g id="patch_5">
    <path clip-path="url(#p4eab2bb226)" d="M 154.19469 147.758769 
Q 151.578646 152.587275 148.749851 155.029601 
Q 145.921056 157.5 142.840113 157.5 
Q 133.652439 157.5 128.286397 139.196592 
Q 122.920354 120.893183 122.920354 89.592109 
Q 122.920354 58.178744 128.286397 39.903408 
Q 133.652439 21.6 142.840113 21.6 
Q 145.921056 21.6 148.749851 24.070399 
Q 151.578646 26.512725 154.19469 31.341231 
L 154.19469 58.431398 
Q 151.555007 52.03082 148.99412 49.055113 
Q 146.433234 46.079405 143.604439 46.079405 
Q 138.529943 46.079405 135.622352 57.673435 
Q 132.72264 69.239393 132.72264 89.592109 
Q 132.72264 109.860607 135.622352 121.454637 
Q 138.529943 133.020595 143.604439 133.020595 
Q 146.433234 133.020595 148.99412 130.044887 
Q 151.555007 127.041107 154.19469 120.640529 
z
" style="fill:#0000ff;"/>
   </g>
   <g id="patch_6">
    <path clip-path="url(#p4eab2bb226)" d="M 177.504468 154.74925 
L 165.476861 154.74925 
L 163.577765 157.5 
L 155.840708 157.5 
L 166.889993 142.4 
L 176.065759 142.4 
L 187.115044 157.5 
L 179.384381 157.5 
z
M 167.39514 151.946721 
L 175.567007 151.946721 
L 171.487467 145.940377 
z
" style="fill:#008000;"/>
   </g>
   <g id="patch_7">
    <path clip-path="url(#p4eab2bb226)" d="M 155.840708 127.3 
L 187.115044 127.3 
L 187.115044 130.244921 
L 175.863556 130.244921 
L 175.863556 142.4 
L 167.114015 142.4 
L 167.114015 130.244921 
L 155.840708 130.244921 
z
" style="fill:#ff0000;"/>
   </g>
   <g id="patch_8">
    <path clip-path="url(#p4eab2bb226)" d="M 187.115044 124.052923 
Q 184.499 125.662425 181.670205 126.476534 
Q 178.84141 127.3 175.760467 127.3 
Q 166.572793 127.3 161.206751 121.198864 
Q 155.840708 115.097728 155.840708 104.664036 
Q 155.840708 94.192915 161.206751 88.101136 
Q 166.572793 82 175.760467 82 
Q 178.84141 82 181.670205 82.823466 
Q 184.499 83.637575 187.115044 85.247077 
L 187.115044 94.277133 
Q 184.475361 92.143607 181.914474 91.151704 
Q 179.353588 90.159802 176.524793 90.159802 
Q 171.450297 90.159802 168.542706 94.024478 
Q 165.642994 97.879798 165.642994 104.664036 
Q 165.642994 111.420202 168.542706 115.284879 
Q 171.450297 119.140198 176.524793 119.140198 
Q 179.353588 119.140198 181.914474 118.148296 
Q 184.475361 117.147036 187.115044 115.01351 
z
" style="fill:#0000ff;"/>
   </g>
   <g id="patch_9">
    <path clip-path="url(#p4eab2bb226)" d="M 187.115044 76.535179 
Q 183.960976 79.267589 180.568601 80.640033 
Q 177.176226 82 173.559561 82 
Q 165.38702 82 160.613864 73.865152 
Q 155.840708 65.730304 155.840708 51.818715 
Q 155.840708 37.744929 160.697973 29.672464 
Q 165.562246 21.6 174.022158 21.6 
Q 177.281361 21.6 180.267212 22.697955 
Q 183.260072 23.783433 185.909489 25.929436 
L 185.909489 37.96951 
Q 183.175964 35.212146 180.470474 33.852179 
Q 177.764985 32.479736 175.045477 32.479736 
Q 170.012987 32.479736 167.28647 37.495394 
Q 164.559954 42.498575 164.559954 51.818715 
Q 164.559954 61.051518 167.188344 66.09213 
Q 169.816734 71.120264 174.652971 71.120264 
Q 175.970671 71.120264 177.099126 70.833299 
Q 178.227582 70.533857 179.124739 69.910019 
L 179.124739 58.606073 
L 173.973094 58.606073 
L 173.973094 48.537327 
L 187.115044 48.537327 
z
" style="fill:#ffa600;"/>
   </g>
   <g id="patch_10">
    <path clip-path="url(#p4eab2bb226)" d="M 210.424822 154.74925 
L 198.397215 154.74925 
L 196.498119 157.5 
L 188.761062 157.5 
L 199.810347 142.4 
L 208.986113 142.4 
L 220.035398 157.5 
L 212.304735 157.5 
z
M 200.315494 151.946721 
L 208.487361 151.946721 
L 204.407821 145.940377 
z
" style="fill:#008000;"/>
   </g>
   <g id="patch_11">
    <path clip-path="url(#p4eab2bb226)" d="M 188.761062 127.3 
L 220.035398 127.3 
L 220.035398 130.244921 
L 208.78391 130.244921 
L 208.78391 142.4 
L 200.034369 142.4 
L 200.034369 130.244921 
L 188.761062 130.244921 
z
" style="fill:#ff0000;"/>
   </g>
   <g id="patch_12">
    <path clip-path="url(#p4eab2bb226)" d="M 220.035398 119.723487 
Q 217.419354 123.478992 214.590559 125.378579 
Q 211.761764 127.3 208.680821 127.3 
Q 199.493147 127.3 194.127105 113.064016 
Q 188.761062 98.828031 188.761062 74.482751 
Q 188.761062 50.050134 194.127105 35.835984 
Q 199.493147 21.6 208.680821 21.6 
Q 211.761764 21.6 214.590559 23.521421 
Q 217.419354 25.421008 220.035398 29.176513 
L 220.035398 50.246643 
Q 217.395715 45.268416 214.834828 42.953976 
Q 212.273942 40.639537 209.445147 40.639537 
Q 204.370651 40.639537 201.46306 49.657116 
Q 198.563348 58.652861 198.563348 74.482751 
Q 198.563348 90.247139 201.46306 99.264718 
Q 204.370651 108.260463 209.445147 108.260463 
Q 212.273942 108.260463 214.834828 105.946024 
Q 217.395715 103.60975 220.035398 98.631522 
z
" style="fill:#0000ff;"/>
   </g>
   <g id="patch_13">
    <path clip-path="url(#p4eab2bb226)" d="M 252.955752 147.758769 
Q 250.339708 152.587275 247.510913 155.029601 
Q 244.682118 157.5 241.601175 157.5 
Q 232.413501 157.5 227.047459 139.196592 
Q 221.681416 120.893183 221.681416 89.592109 
Q 221.681416 58.178744 227.047459 39.903408 
Q 232.413501 21.6 241.601175 21.6 
Q 244.682118 21.6 247.510913 24.070399 
Q 250.339708 26.512725 252.955752 31.341231 
L 252.955752 58.431398 
Q 250.316069 52.03082 247.755182 49.055113 
Q 245.194296 46.079405 242.365501 46.079405 
Q 237.291005 46.079405 234.383414 57.673435 
Q 231.483702 69.239393 231.483702 89.592109 
Q 231.483702 109.860607 234.383414 121.454637 
Q 237.291005 133.020595 242.365501 133.020595 
Q 245.194296 133.020595 247.755182 130.044887 
Q 250.316069 127.041107 252.955752 120.640529 
z
" style="fill:#0000ff;"/>
   </g>
   <g id="patch_14">
    <path clip-path="url(#p4eab2bb226)" d="M 285.876106 154.767589 
Q 282.722038 156.133795 279.329663 156.820017 
Q 275.937288 157.5 272.320623 157.5 
Q 264.148082 157.5 259.374926 153.432576 
Q 254.60177 149.365152 254.60177 142.409358 
Q 254.60177 135.372464 259.459035 131.336232 
Q 264.323308 127.3 272.78322 127.3 
Q 276.042423 127.3 279.028274 127.848977 
Q 282.021134 128.391717 284.670551 129.464718 
L 284.670551 135.484755 
Q 281.937026 134.106073 279.231536 133.42609 
Q 276.526047 132.739868 273.806539 132.739868 
Q 268.774049 132.739868 266.047532 135.247697 
Q 263.321016 137.749287 263.321016 142.409358 
Q 263.321016 147.025759 265.949406 149.546065 
Q 268.577796 152.060132 273.414033 152.060132 
Q 274.731733 152.060132 275.860188 151.916649 
Q 276.988644 151.766928 277.885801 151.455009 
L 277.885801 145.803037 
L 272.734156 145.803037 
L 272.734156 140.768663 
L 285.876106 140.768663 
z
" style="fill:#ffa600;"/>
   </g>
   <g id="patch_15">
    <path clip-path="url(#p4eab2bb226)" d="M 285.876106 119.723487 
Q 283.260062 123.478992 280.431267 125.378579 
Q 277.602472 127.3 274.521529 127.3 
Q 265.333855 127.3 259.967812 113.064016 
Q 254.60177 98.828031 254.60177 74.482751 
Q 254.60177 50.050134 259.967812 35.835984 
Q 265.333855 21.6 274.521529 21.6 
Q 277.602472 21.6 280.431267 23.521421 
Q 283.260062 25.421008 285.876106 29.176513 
L 285.876106 50.246643 
Q 283.236423 45.268416 280.675536 42.953976 
Q 278.11465 40.639537 275.285855 40.639537 
Q 270.211359 40.639537 267.303768 49.657116 
Q 264.404056 58.652861 264.404056 74.482751 
Q 264.404056 90.247139 267.303768 99.264718 
Q 270.211359 108.260463 275.285855 108.260463 
Q 278.11465 108.260463 280.675536 105.946024 
Q 283.236423 103.60975 285.876106 98.631522 
z
" style="fill:#0000ff;"/>
   </g>
   <g id="patch_16">
    <path clip-path="url(#p4eab2bb226)" d="M 318.79646 153.401384 
Q 315.642392 155.450692 312.250017 156.480025 
Q 308.857642 157.5 305.240977 157.5 
Q 297.068436 157.5 292.29528 151.398864 
Q 287.522124 145.297728 287.522124 134.864036 
Q 287.522124 124.308697 292.379389 118.254348 
Q 297.243662 112.2 305.703574 112.2 
Q 308.962777 112.2 311.948628 113.023466 
Q 314.941488 113.837575 317.590905 115.447077 
L 317.590905 124.477133 
Q 314.85738 122.40911 312.15189 121.389134 
Q 309.446401 120.359802 306.726893 120.359802 
Q 301.694403 120.359802 298.967886 124.121545 
Q 296.24137 127.873931 296.24137 134.864036 
Q 296.24137 141.788639 298.86976 145.569097 
Q 301.49815 149.340198 306.334387 149.340198 
Q 307.652087 149.340198 308.780542 149.124974 
Q 309.908998 148.900392 310.806155 148.432514 
L 310.806155 139.954555 
L 305.65451 139.954555 
L 305.65451 132.402995 
L 318.79646 132.402995 
z
" style="fill:#ffa600;"/>
   </g>
   <g id="patch_17">
    <path clip-path="url(#p4eab2bb226)" d="M 318.79646 105.705846 
Q 316.180416 108.92485 313.351621 110.553068 
Q 310.522826 112.2 307.441883 112.2 
Q 298.254209 112.2 292.888166 99.997728 
Q 287.522124 87.795455 287.522124 66.928073 
Q 287.522124 45.985829 292.888166 33.802272 
Q 298.254209 21.6 307.441883 21.6 
Q 310.522826 21.6 313.351621 23.246932 
Q 316.180416 24.87515 318.79646 28.094154 
L 318.79646 46.154266 
Q 316.156777 41.887213 313.59589 39.903408 
Q 311.035004 37.919603 308.206209 37.919603 
Q 303.131713 37.919603 300.224122 45.648957 
Q 297.32441 53.359595 297.32441 66.928073 
Q 297.32441 80.440405 300.224122 88.169758 
Q 303.131713 95.880397 308.206209 95.880397 
Q 311.035004 95.880397 313.59589 93.896592 
Q 316.156777 91.894071 318.79646 87.627019 
z
" style="fill:#0000ff;"/>
   </g>
   <g id="patch_18">
    <path clip-path="url(#p4eab2bb226)" d="M 351.716814 147.758769 
Q 349.10077 152.587275 346.271975 155.029601 
Q 343.44318 157.5 340.362237 157.5 
Q 331.174563 157.5 325.80852 139.196592 
Q 320.442478 120.893183 320.442478 89.592109 
Q 320.442478 58.178744 325.80852 39.903408 
Q 331.174563 21.6 340.362237 21.6 
Q 343.44318 21.6 346.271975 24.070399 
Q 349.10077 26.512725 351.716814 31.341231 
L 351.716814 58.431398 
Q 349.077131 52.03082 346.516244 49.055113 
Q 343.955358 46.079405 341.126563 46.079405 
Q 336.052067 46.079405 333.144476 57.673435 
Q 330.244764 69.239393 330.244764 89.592109 
Q 330.244764 109.860607 333.144476 121.454637 
Q 336.052067 133.020595 341.126563 133.020595 
Q 343.955358 133.020595 346.516244 130.044887 
Q 349.077131 127.041107 351.716814 120.640529 
z
" style="fill:#0000ff;"/>
   </g>
   <g id="patch_19">
    <path clip-path="url(#p4eab2bb226)" d="M 384.637168 156.133795 
Q 381.4831 156.816897 378.090725 157.160008 
Q 374.698349 157.5 371.081685 157.5 
Q 362.909144 157.5 358.135988 155.466288 
Q 353.362832 153.432576 353.362832 149.954679 
Q 353.362832 146.436232 358.220097 144.418116 
Q 363.08437 142.4 371.544282 142.4 
Q 374.803485 142.4 377.789336 142.674489 
Q 380.782196 142.945858 383.431613 143.482359 
L 383.431613 146.492378 
Q 380.698088 145.803037 377.992598 145.463045 
Q 375.287109 145.119934 372.567601 145.119934 
Q 367.535111 145.119934 364.808594 146.373848 
Q 362.082078 147.624644 362.082078 149.954679 
Q 362.082078 152.26288 364.710468 153.523032 
Q 367.338858 154.780066 372.175095 154.780066 
Q 373.492795 154.780066 374.62125 154.708325 
Q 375.749705 154.633464 376.646863 154.477505 
L 376.646863 151.651518 
L 371.495218 151.651518 
L 371.495218 149.134332 
L 384.637168 149.134332 
z
" style="fill:#ffa600;"/>
   </g>
   <g id="patch_20">
    <path clip-path="url(#p4eab2bb226)" d="M 384.637168 133.741128 
Q 382.021124 138.033134 379.192329 140.20409 
Q 376.363534 142.4 373.282591 142.4 
Q 364.094917 142.4 358.728874 126.130304 
Q 353.362832 109.860607 353.362832 82.03743 
Q 353.362832 54.114439 358.728874 37.869696 
Q 364.094917 21.6 373.282591 21.6 
Q 376.363534 21.6 379.192329 23.79591 
Q 382.021124 25.966866 384.637168 30.258872 
L 384.637168 54.339021 
Q 381.997485 48.649618 379.436598 46.004545 
Q 376.875712 43.359471 374.046917 43.359471 
Q 368.972421 43.359471 366.06483 53.665276 
Q 363.165118 63.946127 363.165118 82.03743 
Q 363.165118 100.053873 366.06483 110.359678 
Q 368.972421 120.640529 374.046917 120.640529 
Q 376.875712 120.640529 379.436598 117.995455 
Q 381.997485 115.325429 384.637168 109.636026 
z
" style="fill:#0000ff;"/>
   </g>
   <g id="patch_21">
    <path clip-path="url(#p4eab2bb226)" d="M 417.557522 154.767589 
Q 414.403454 156.133795 411.011079 156.820017 
Q 407.618703 157.5 404.002039 157.5 
Q 395.829498 157.5 391.056342 153.432576 
Q 386.283186 149.365152 386.283186 142.409358 
Q 386.283186 135.372464 391.140451 131.336232 
Q 396.004724 127.3 404.464635 127.3 
Q 407.723839 127.3 410.70969 127.848977 
Q 413.70255 128.391717 416.351967 129.464718 
L 416.351967 135.484755 
Q 413.618442 134.106073 410.912952 133.42609 
Q 408.207463 132.739868 405.487955 132.739868 
Q 400.455465 132.739868 397.728948 135.247697 
Q 395.002432 137.749287 395.002432 142.409358 
Q 395.002432 147.025759 397.630822 149.546065 
Q 400.259212 152.060132 405.095449 152.060132 
Q 406.413149 152.060132 407.541604 151.916649 
Q 408.670059 151.766928 409.567217 151.455009 
L 409.567217 145.803037 
L 404.415572 145.803037 
L 404.415572 140.768663 
L 417.557522 140.768663 
z
" style="fill:#ffa600;"/>
   </g>
   <g id="patch_22">
    <path clip-path="url(#p4eab2bb226)" d="M 417.557522 119.723487 
Q 414.941478 123.478992 412.112683 125.378579 
Q 409.283888 127.3 406.202945 127.3 
Q 397.015271 127.3 391.649228 113.064016 
Q 386.283186 98.828031 386.283186 74.482751 
Q 386.283186 50.050134 391.649228 35.835984 
Q 397.015271 21.6 406.202945 21.6 
Q 409.283888 21.6 412.112683 23.521421 
Q 414.941478 25.421008 417.557522 29.176513 
L 417.557522 50.246643 
Q 414.917839 45.268416 412.356952 42.953976 
Q 409.796066 40.639537 406.967271 40.639537 
Q 401.892775 40.639537 398.985184 49.657116 
Q 396.085472 58.652861 396.085472 74.482751 
Q 396.085472 90.247139 398.985184 99.264718 
Q 401.892775 108.260463 406.967271 108.260463 
Q 409.796066 108.260463 412.356952 105.946024 
Q 414.917839 103.60975 417.557522 98.631522 
z
" style="fill:#0000ff;"/>
   </g>
   <g id="patch_23">
    <path clip-path="url(#p4eab2bb226)" d="M 450.477876 152.035179 
Q 447.323808 154.767589 443.931433 156.140033 
Q 440.539057 157.5 436.922393 157.5 
Q 428.749852 157.5 423.976696 149.365152 
Q 419.20354 141.230304 419.20354 127.318715 
Q 419.20354 113.244929 424.060805 105.172464 
Q 428.925078 97.1 437.384989 97.1 
Q 440.644193 97.1 443.630044 98.197955 
Q 446.622904 99.283433 449.272321 101.429436 
L 449.272321 113.46951 
Q 446.538796 110.712146 443.833306 109.352179 
Q 441.127817 107.979736 438.408309 107.979736 
Q 433.375819 107.979736 430.649302 112.995394 
Q 427.922786 117.998575 427.922786 127.318715 
Q 427.922786 136.551518 430.551176 141.59213 
Q 433.179565 146.620264 438.015803 146.620264 
Q 439.333503 146.620264 440.461958 146.333299 
Q 441.590413 146.033857 442.487571 145.410019 
L 442.487571 134.106073 
L 437.335926 134.106073 
L 437.335926 124.037327 
L 450.477876 124.037327 
z
" style="fill:#ffa600;"/>
   </g>
   <g id="patch_24">
    <path clip-path="url(#p4eab2bb226)" d="M 450.477876 91.688205 
Q 447.861832 94.370709 445.033037 95.727556 
Q 442.204242 97.1 439.123298 97.1 
Q 429.935625 97.1 424.569582 86.93144 
Q 419.20354 76.76288 419.20354 59.373394 
Q 419.20354 41.921524 424.569582 31.76856 
Q 429.935625 21.6 439.123298 21.6 
Q 442.204242 21.6 445.033037 22.972444 
Q 447.861832 24.329291 450.477876 27.011795 
L 450.477876 42.061888 
Q 447.838193 38.506011 445.277306 36.85284 
Q 442.71642 35.199669 439.887625 35.199669 
Q 434.813129 35.199669 431.905538 41.640797 
Q 429.005826 48.066329 429.005826 59.373394 
Q 429.005826 70.633671 431.905538 77.074799 
Q 434.813129 83.500331 439.887625 83.500331 
Q 442.71642 83.500331 445.277306 81.84716 
Q 447.838193 80.178393 450.477876 76.622516 
z
" style="fill:#0000ff;"/>
   </g>
   <g id="patch_25">
    <path clip-path="url(#p4eab2bb226)" d="M 483.39823 155.335282 
Q 480.782186 156.408283 477.953391 156.951023 
Q 475.124596 157.5 472.043652 157.5 
Q 462.855979 157.5 457.489936 153.432576 
Q 452.123894 149.365152 452.123894 142.409358 
Q 452.123894 135.42861 457.489936 131.367424 
Q 462.855979 127.3 472.043652 127.3 
Q 475.124596 127.3 477.953391 127.848977 
Q 480.782186 128.391717 483.39823 129.464718 
L 483.39823 135.484755 
Q 480.758547 134.062404 478.19766 133.401136 
Q 475.636773 132.739868 472.807979 132.739868 
Q 467.733483 132.739868 464.825892 135.316319 
Q 461.92618 137.886532 461.92618 142.409358 
Q 461.92618 146.913468 464.825892 149.489919 
Q 467.733483 152.060132 472.807979 152.060132 
Q 475.636773 152.060132 478.19766 151.398864 
Q 480.758547 150.731357 483.39823 149.309006 
z
" style="fill:#0000ff;"/>
   </g>
   <g id="patch_26">
    <path clip-path="url(#p4eab2bb226)" d="M 483.39823 117.736563 
Q 480.244162 122.518281 476.851787 124.920058 
Q 473.459411 127.3 469.842747 127.3 
Q 461.670206 127.3 456.89705 113.064016 
Q 452.123894 98.828031 452.123894 74.482751 
Q 452.123894 49.853625 456.981158 35.726813 
Q 461.845432 21.6 470.305343 21.6 
Q 473.564547 21.6 476.550398 23.521421 
Q 479.543258 25.421008 482.192675 29.176513 
L 482.192675 50.246643 
Q 479.45915 45.421256 476.75366 43.041314 
Q 474.048171 40.639537 471.328663 40.639537 
Q 466.296173 40.639537 463.569656 49.416939 
Q 460.84314 58.172506 460.84314 74.482751 
Q 460.84314 90.640157 463.471529 99.461227 
Q 466.099919 108.260463 470.936157 108.260463 
Q 472.253857 108.260463 473.382312 107.758273 
Q 474.510767 107.234249 475.407925 106.142533 
L 475.407925 86.360628 
L 470.25628 86.360628 
L 470.25628 68.740322 
L 483.39823 68.740322 
z
" style="fill:#ffa600;"/>
   </g>
   <g id="patch_27">
    <path clip-path="url(#p4eab2bb226)" d="M 516.318584 155.335282 
Q 513.70254 156.408283 510.873745 156.951023 
Q 508.04495 157.5 504.964006 157.5 
Q 495.776333 157.5 490.41029 153.432576 
Q 485.044248 149.365152 485.044248 142.409358 
Q 485.044248 135.42861 490.41029 131.367424 
Q 495.776333 127.3 504.964006 127.3 
Q 508.04495 127.3 510.873745 127.848977 
Q 513.70254 128.391717 516.318584 129.464718 
L 516.318584 135.484755 
Q 513.678901 134.062404 511.118014 133.401136 
Q 508.557127 132.739868 505.728333 132.739868 
Q 500.653837 132.739868 497.746246 135.316319 
Q 494.846534 137.886532 494.846534 142.409358 
Q 494.846534 146.913468 497.746246 149.489919 
Q 500.653837 152.060132 505.728333 152.060132 
Q 508.557127 152.060132 511.118014 151.398864 
Q 513.678901 150.731357 516.318584 149.309006 
z
" style="fill:#0000ff;"/>
   </g>
   <g id="patch_28">
    <path clip-path="url(#p4eab2bb226)" d="M 485.044248 97.1 
L 516.318584 97.1 
L 516.318584 102.989841 
L 505.067096 102.989841 
L 505.067096 127.3 
L 496.317555 127.3 
L 496.317555 102.989841 
L 485.044248 102.989841 
z
" style="fill:#ff0000;"/>
   </g>
   <g id="patch_29">
    <path clip-path="url(#p4eab2bb226)" d="M 516.318584 90.268973 
Q 513.164516 93.684487 509.772141 95.400041 
Q 506.379765 97.1 502.763101 97.1 
Q 494.59056 97.1 489.817404 86.93144 
Q 485.044248 76.76288 485.044248 59.373394 
Q 485.044248 41.781161 489.901512 31.69058 
Q 494.765786 21.6 503.225697 21.6 
Q 506.484901 21.6 509.470752 22.972444 
Q 512.463612 24.329291 515.113029 27.011795 
L 515.113029 42.061888 
Q 512.379504 38.615183 509.674014 36.915224 
Q 506.968525 35.199669 504.249017 35.199669 
Q 499.216527 35.199669 496.49001 41.469242 
Q 493.763493 47.723218 493.763493 59.373394 
Q 493.763493 70.914398 496.391883 77.215162 
Q 499.020273 83.500331 503.856511 83.500331 
Q 505.174211 83.500331 506.302666 83.141624 
Q 507.431121 82.767321 508.328279 81.987523 
L 508.328279 67.857591 
L 503.176634 67.857591 
L 503.176634 55.271659 
L 516.318584 55.271659 
z
" style="fill:#ffa600;"/>
   </g>
   <g id="patch_30">
    <path clip-path="url(#p4eab2bb226)" d="M 539.628362 154.74925 
L 527.600755 154.74925 
L 525.701659 157.5 
L 517.964602 157.5 
L 529.013887 142.4 
L 538.189653 142.4 
L 549.238938 157.5 
L 541.508275 157.5 
z
M 529.519034 151.946721 
L 537.690901 151.946721 
L 533.611361 145.940377 
z
" style="fill:#008000;"/>
   </g>
   <g id="patch_31">
    <path clip-path="url(#p4eab2bb226)" d="M 549.238938 139.152923 
Q 546.622894 140.762425 543.794099 141.576534 
Q 540.965304 142.4 537.88436 142.4 
Q 528.696687 142.4 523.330644 136.298864 
Q 517.964602 130.197728 517.964602 119.764036 
Q 517.964602 109.292915 523.330644 103.201136 
Q 528.696687 97.1 537.88436 97.1 
Q 540.965304 97.1 543.794099 97.923466 
Q 546.622894 98.737575 549.238938 100.347077 
L 549.238938 109.377133 
Q 546.599255 107.243607 544.038368 106.251704 
Q 541.477481 105.259802 538.648687 105.259802 
Q 533.574191 105.259802 530.6666 109.124478 
Q 527.766888 112.979798 527.766888 119.764036 
Q 527.766888 126.520202 530.6666 130.384879 
Q 533.574191 134.240198 538.648687 134.240198 
Q 541.477481 134.240198 544.038368 133.248296 
Q 546.599255 132.247036 549.238938 130.11351 
z
" style="fill:#0000ff;"/>
   </g>
   <g id="patch_32">
    <path clip-path="url(#p4eab2bb226)" d="M 549.238938 90.268973 
Q 546.08487 93.684487 542.692495 95.400041 
Q 539.300119 97.1 535.683455 97.1 
Q 527.510914 97.1 522.737758 86.93144 
Q 517.964602 76.76288 517.964602 59.373394 
Q 517.964602 41.781161 522.821866 31.69058 
Q 527.68614 21.6 536.146051 21.6 
Q 539.405255 21.6 542.391106 22.972444 
Q 545.383966 24.329291 548.033383 27.011795 
L 548.033383 42.061888 
Q 545.299858 38.615183 542.594368 36.915224 
Q 539.888879 35.199669 537.169371 35.199669 
Q 532.136881 35.199669 529.410364 41.469242 
Q 526.683847 47.723218 526.683847 59.373394 
Q 526.683847 70.914398 529.312237 77.215162 
Q 531.940627 83.500331 536.776865 83.500331 
Q 538.094565 83.500331 539.22302 83.141624 
Q 540.351475 82.767321 541.248633 81.987523 
L 541.248633 67.857591 
L 536.096988 67.857591 
L 536.096988 55.271659 
L 549.238938 55.271659 
z
" style="fill:#ffa600;"/>
   </g>
   <g id="patch_33">
    <path clip-path="url(#p4eab2bb226)" d="M 550.884956 142.4 
L 582.159292 142.4 
L 582.159292 145.344921 
L 570.907804 145.344921 
L 570.907804 157.5 
L 562.158263 157.5 
L 562.158263 145.344921 
L 550.884956 145.344921 
z
" style="fill:#ff0000;"/>
   </g>
   <g id="patch_34">
    <path clip-path="url(#p4eab2bb226)" d="M 582.159292 138.070564 
Q 579.543248 140.216567 576.714453 141.302045 
Q 573.885658 142.4 570.804714 142.4 
Q 561.617041 142.4 556.250998 134.265152 
Q 550.884956 126.130304 550.884956 112.218715 
Q 550.884956 98.25722 556.250998 90.134848 
Q 561.617041 82 570.804714 82 
Q 573.885658 82 576.714453 83.097955 
Q 579.543248 84.183433 582.159292 86.329436 
L 582.159292 98.36951 
Q 579.519609 95.524809 576.958722 94.202272 
Q 574.397835 92.879736 571.569041 92.879736 
Q 566.494545 92.879736 563.586954 98.032638 
Q 560.687242 103.173063 560.687242 112.218715 
Q 560.687242 121.226937 563.586954 126.379839 
Q 566.494545 131.520264 571.569041 131.520264 
Q 574.397835 131.520264 576.958722 130.197728 
Q 579.519609 128.862714 582.159292 126.018013 
z
" style="fill:#0000ff;"/>
   </g>
   <g id="patch_35">
    <path clip-path="url(#p4eab2bb226)" d="M 582.159292 76.535179 
Q 579.005224 79.267589 575.612849 80.640033 
Q 572.220473 82 568.603809 82 
Q 560.431268 82 555.658112 73.865152 
Q 550.884956 65.730304 550.884956 51.818715 
Q 550.884956 37.744929 555.74222 29.672464 
Q 560.606494 21.6 569.066405 21.6 
Q 572.325609 21.6 575.31146 22.697955 
Q 578.30432 23.783433 580.953737 25.929436 
L 580.953737 37.96951 
Q 578.220212 35.212146 575.514722 33.852179 
Q 572.809233 32.479736 570.089725 32.479736 
Q 565.057235 32.479736 562.330718 37.495394 
Q 559.604201 42.498575 559.604201 51.818715 
Q 559.604201 61.051518 562.232591 66.09213 
Q 564.860981 71.120264 569.697219 71.120264 
Q 571.014919 71.120264 572.143374 70.833299 
Q 573.271829 70.533857 574.168986 69.910019 
L 574.168986 58.606073 
L 569.017342 58.606073 
L 569.017342 48.537327 
L 582.159292 48.537327 
z
" style="fill:#ffa600;"/>
   </g>
   <g id="patch_36">
    <path clip-path="url(#p4eab2bb226)" d="M 605.46907 149.24775 
L 593.441463 149.24775 
L 591.542367 157.5 
L 583.80531 157.5 
L 594.854595 112.2 
L 604.030361 112.2 
L 615.079646 157.5 
L 607.348983 157.5 
z
M 595.359741 140.840163 
L 603.531609 140.840163 
L 599.452069 122.821132 
z
" style="fill:#008000;"/>
   </g>
   <g id="patch_37">
    <path clip-path="url(#p4eab2bb226)" d="M 615.079646 104.002768 
Q 611.925578 108.101384 608.533203 110.16005 
Q 605.140827 112.2 601.524163 112.2 
Q 593.351622 112.2 588.578466 99.997728 
Q 583.80531 87.795455 583.80531 66.928073 
Q 583.80531 45.817393 588.662574 33.708697 
Q 593.526848 21.6 601.986759 21.6 
Q 605.245963 21.6 608.231814 23.246932 
Q 611.224674 24.87515 613.874091 28.094154 
L 613.874091 46.154266 
Q 611.140566 42.018219 608.435076 39.978269 
Q 605.729587 37.919603 603.010079 37.919603 
Q 597.977589 37.919603 595.251072 45.44309 
Q 592.524555 52.947862 592.524555 66.928073 
Q 592.524555 80.777277 595.152945 88.338195 
Q 597.781335 95.880397 602.617573 95.880397 
Q 603.935272 95.880397 605.063728 95.449948 
Q 606.192183 95.000785 607.08934 94.065028 
L 607.08934 77.10911 
L 601.937696 77.10911 
L 601.937696 62.00599 
L 615.079646 62.00599 
z
" style="fill:#ffa600;"/>
   </g>
   <g id="patch_38">
    <path clip-path="url(#p4eab2bb226)" d="M 616.725664 142.4 
L 648 142.4 
L 648 145.344921 
L 636.748512 145.344921 
L 636.748512 157.5 
L 627.998971 157.5 
L 627.998971 145.344921 
L 616.725664 145.344921 
z
" style="fill:#ff0000;"/>
   </g>
   <g id="patch_39">
    <path clip-path="url(#p4eab2bb226)" d="M 638.389424 136.8985 
L 626.361817 136.8985 
L 624.462721 142.4 
L 616.725664 142.4 
L 627.774949 112.2 
L 636.950715 112.2 
L 648 142.4 
L 640.269337 142.4 
z
M 628.280095 131.293442 
L 636.451963 131.293442 
L 632.372423 119.280754 
z
" style="fill:#008000;"/>
   </g>
   <g id="patch_40">
    <path clip-path="url(#p4eab2bb226)" d="M 648 110.035282 
Q 645.383956 111.108283 642.555161 111.651023 
Q 639.726366 112.2 636.645422 112.2 
Q 627.457749 112.2 622.091706 108.132576 
Q 616.725664 104.065152 616.725664 97.109358 
Q 616.725664 90.12861 622.091706 86.067424 
Q 627.457749 82 636.645422 82 
Q 639.726366 82 642.555161 82.548977 
Q 645.383956 83.091717 648 84.164718 
L 648 90.184755 
Q 645.360317 88.762404 642.79943 88.101136 
Q 640.238543 87.439868 637.409749 87.439868 
Q 632.335253 87.439868 629.427662 90.016319 
Q 626.52795 92.586532 626.52795 97.109358 
Q 626.52795 101.613468 629.427662 104.189919 
Q 632.335253 106.760132 637.409749 106.760132 
Q 640.238543 106.760132 642.79943 106.098864 
Q 645.360317 105.431357 648 104.009006 
z
" style="fill:#0000ff;"/>
   </g>
   <g id="patch_41">
    <path clip-path="url(#p4eab2bb226)" d="M 648 76.535179 
Q 644.845932 79.267589 641.453557 80.640033 
Q 638.061181 82 634.444517 82 
Q 626.271976 82 621.49882 73.865152 
Q 616.725664 65.730304 616.725664 51.818715 
Q 616.725664 37.744929 621.582928 29.672464 
Q 626.447202 21.6 634.907113 21.6 
Q 638.166317 21.6 641.152168 22.697955 
Q 644.145028 23.783433 646.794445 25.929436 
L 646.794445 37.96951 
Q 644.06092 35.212146 641.35543 33.852179 
Q 638.649941 32.479736 635.930433 32.479736 
Q 630.897943 32.479736 628.171426 37.495394 
Q 625.444909 42.498575 625.444909 51.818715 
Q 625.444909 61.051518 628.073299 66.09213 
Q 630.701689 71.120264 635.537927 71.120264 
Q 636.855626 71.120264 637.984082 70.833299 
Q 639.112537 70.533857 640.009694 69.910019 
L 640.009694 58.606073 
L 634.85805 58.606073 
L 634.85805 48.537327 
L 648 48.537327 
z
" style="fill:#ffa600;"/>
   </g>
  </g>
 </g>
 <defs>
  <clipPath id="p4eab2bb226">
   <rect height="135.9" width="558" x="90" y="21.6"/>
  </clipPath>
 </defs>
</svg>
