<?xml version="1.0" encoding="utf-8" standalone="no"?>
<!DOCTYPE svg PUBLIC "-//W3C//DTD SVG 1.1//EN"
  "http://www.w3.org/Graphics/SVG/1.1/DTD/svg11.dtd">
<!-- Created with matplotlib (https://matplotlib.org/) -->
<svg height="180pt" version="1.1" viewBox="0 0 720 180" width="720pt" xmlns="http://www.w3.org/2000/svg" xmlns:xlink="http://www.w3.org/1999/xlink">
 <metadata>
  <rdf:RDF xmlns:cc="http://creativecommons.org/ns#" xmlns:dc="http://purl.org/dc/elements/1.1/" xmlns:rdf="http://www.w3.org/1999/02/22-rdf-syntax-ns#">
   <cc:Work>
    <dc:type rdf:resource="http://purl.org/dc/dcmitype/StillImage"/>
    <dc:date>2021-08-04T23:33:49.316700</dc:date>
    <dc:format>image/svg+xml</dc:format>
    <dc:creator>
     <cc:Agent>
      <dc:title>Matplotlib v3.3.2, https://matplotlib.org/</dc:title>
     </cc:Agent>
    </dc:creator>
   </cc:Work>
  </rdf:RDF>
 </metadata>
 <defs>
  <style type="text/css">*{stroke-linecap:butt;stroke-linejoin:round;}</style>
 </defs>
 <g id="figure_1">
  <g id="patch_1">
   <path d="M 0 180 
L 720 180 
L 720 0 
L 0 0 
z
" style="fill:none;"/>
  </g>
  <g id="axes_1">
   <g id="line2d_1">
    <path clip-path="url(#p65a6cf225d)" d="M 90 157.5 
L 648 157.5 
" style="fill:none;stroke:#000000;stroke-linecap:square;stroke-width:0.5;"/>
   </g>
   <g id="patch_2">
    <path clip-path="url(#p65a6cf225d)" d="M 111.66376 151.9985 
L 99.636153 151.9985 
L 97.737057 157.5 
L 90 157.5 
L 101.049285 127.3 
L 110.225051 127.3 
L 121.274336 157.5 
L 113.543673 157.5 
z
M 101.554432 146.393442 
L 109.726299 146.393442 
L 105.64676 134.380754 
z
" style="fill:#008000;"/>
   </g>
   <g id="patch_3">
    <path clip-path="url(#p65a6cf225d)" d="M 90 82 
L 121.274336 82 
L 121.274336 90.834762 
L 110.022848 90.834762 
L 110.022848 127.3 
L 101.273307 127.3 
L 101.273307 90.834762 
L 90 90.834762 
z
" style="fill:#ff0000;"/>
   </g>
   <g id="patch_4">
    <path clip-path="url(#p65a6cf225d)" d="M 121.274336 77.670564 
Q 118.658292 79.816567 115.829497 80.902045 
Q 113.000702 82 109.919759 82 
Q 100.732085 82 95.366043 73.865152 
Q 90 65.730304 90 51.818715 
Q 90 37.85722 95.366043 29.734848 
Q 100.732085 21.6 109.919759 21.6 
Q 113.000702 21.6 115.829497 22.697955 
Q 118.658292 23.783433 121.274336 25.929436 
L 121.274336 37.96951 
Q 118.634653 35.124809 116.073766 33.802272 
Q 113.51288 32.479736 110.684085 32.479736 
Q 105.609589 32.479736 102.701998 37.632638 
Q 99.802286 42.773063 99.802286 51.818715 
Q 99.802286 60.826937 102.701998 65.979839 
Q 105.609589 71.120264 110.684085 71.120264 
Q 113.51288 71.120264 116.073766 69.797728 
Q 118.634653 68.462714 121.274336 65.618013 
z
" style="fill:#0000ff;"/>
   </g>
   <g id="patch_5">
    <path clip-path="url(#p65a6cf225d)" d="M 144.584114 146.497 
L 132.556507 146.497 
L 130.657411 157.5 
L 122.920354 157.5 
L 133.969639 97.1 
L 143.145405 97.1 
L 154.19469 157.5 
L 146.464027 157.5 
z
M 134.474786 135.286884 
L 142.646653 135.286884 
L 138.567114 111.261509 
z
" style="fill:#008000;"/>
   </g>
   <g id="patch_6">
    <path clip-path="url(#p65a6cf225d)" d="M 154.19469 90.268973 
Q 151.040622 93.684487 147.648247 95.400041 
Q 144.255872 97.1 140.639207 97.1 
Q 132.466666 97.1 127.69351 86.93144 
Q 122.920354 76.76288 122.920354 59.373394 
Q 122.920354 41.781161 127.777619 31.69058 
Q 132.641892 21.6 141.101804 21.6 
Q 144.361007 21.6 147.346858 22.972444 
Q 150.339718 24.329291 152.989135 27.011795 
L 152.989135 42.061888 
Q 150.25561 38.615183 147.55012 36.915224 
Q 144.844631 35.199669 142.125123 35.199669 
Q 137.092633 35.199669 134.366116 41.469242 
Q 131.6396 47.723218 131.6396 59.373394 
Q 131.6396 70.914398 134.26799 77.215162 
Q 136.89638 83.500331 141.732617 83.500331 
Q 143.050317 83.500331 144.178772 83.141624 
Q 145.307228 82.767321 146.204385 81.987523 
L 146.204385 67.857591 
L 141.05274 67.857591 
L 141.05274 55.271659 
L 154.19469 55.271659 
z
" style="fill:#ffa600;"/>
   </g>
   <g id="patch_7">
    <path clip-path="url(#p65a6cf225d)" d="M 177.504468 154.74925 
L 165.476861 154.74925 
L 163.577765 157.5 
L 155.840708 157.5 
L 166.889993 142.4 
L 176.065759 142.4 
L 187.115044 157.5 
L 179.384381 157.5 
z
M 167.39514 151.946721 
L 175.567007 151.946721 
L 171.487467 145.940377 
z
" style="fill:#008000;"/>
   </g>
   <g id="patch_8">
    <path clip-path="url(#p65a6cf225d)" d="M 155.840708 127.3 
L 187.115044 127.3 
L 187.115044 130.244921 
L 175.863556 130.244921 
L 175.863556 142.4 
L 167.114015 142.4 
L 167.114015 130.244921 
L 155.840708 130.244921 
z
" style="fill:#ff0000;"/>
   </g>
   <g id="patch_9">
    <path clip-path="url(#p65a6cf225d)" d="M 187.115044 124.052923 
Q 184.499 125.662425 181.670205 126.476534 
Q 178.84141 127.3 175.760467 127.3 
Q 166.572793 127.3 161.206751 121.198864 
Q 155.840708 115.097728 155.840708 104.664036 
Q 155.840708 94.192915 161.206751 88.101136 
Q 166.572793 82 175.760467 82 
Q 178.84141 82 181.670205 82.823466 
Q 184.499 83.637575 187.115044 85.247077 
L 187.115044 94.277133 
Q 184.475361 92.143607 181.914474 91.151704 
Q 179.353588 90.159802 176.524793 90.159802 
Q 171.450297 90.159802 168.542706 94.024478 
Q 165.642994 97.879798 165.642994 104.664036 
Q 165.642994 111.420202 168.542706 115.284879 
Q 171.450297 119.140198 176.524793 119.140198 
Q 179.353588 119.140198 181.914474 118.148296 
Q 184.475361 117.147036 187.115044 115.01351 
z
" style="fill:#0000ff;"/>
   </g>
   <g id="patch_10">
    <path clip-path="url(#p65a6cf225d)" d="M 187.115044 76.535179 
Q 183.960976 79.267589 180.568601 80.640033 
Q 177.176226 82 173.559561 82 
Q 165.38702 82 160.613864 73.865152 
Q 155.840708 65.730304 155.840708 51.818715 
Q 155.840708 37.744929 160.697973 29.672464 
Q 165.562246 21.6 174.022158 21.6 
Q 177.281361 21.6 180.267212 22.697955 
Q 183.260072 23.783433 185.909489 25.929436 
L 185.909489 37.96951 
Q 183.175964 35.212146 180.470474 33.852179 
Q 177.764985 32.479736 175.045477 32.479736 
Q 170.012987 32.479736 167.28647 37.495394 
Q 164.559954 42.498575 164.559954 51.818715 
Q 164.559954 61.051518 167.188344 66.09213 
Q 169.816734 71.120264 174.652971 71.120264 
Q 175.970671 71.120264 177.099126 70.833299 
Q 178.227582 70.533857 179.124739 69.910019 
L 179.124739 58.606073 
L 173.973094 58.606073 
L 173.973094 48.537327 
L 187.115044 48.537327 
z
" style="fill:#ffa600;"/>
   </g>
   <g id="patch_11">
    <path clip-path="url(#p65a6cf225d)" d="M 210.424822 154.74925 
L 198.397215 154.74925 
L 196.498119 157.5 
L 188.761062 157.5 
L 199.810347 142.4 
L 208.986113 142.4 
L 220.035398 157.5 
L 212.304735 157.5 
z
M 200.315494 151.946721 
L 208.487361 151.946721 
L 204.407821 145.940377 
z
" style="fill:#008000;"/>
   </g>
   <g id="patch_12">
    <path clip-path="url(#p65a6cf225d)" d="M 220.035398 131.470357 
Q 216.88133 136.935179 213.488955 139.680066 
Q 210.09658 142.4 206.479915 142.4 
Q 198.307374 142.4 193.534218 126.130304 
Q 188.761062 109.860607 188.761062 82.03743 
Q 188.761062 53.889857 193.618327 37.744929 
Q 198.4826 21.6 206.942512 21.6 
Q 210.201715 21.6 213.187566 23.79591 
Q 216.180426 25.966866 218.829843 30.258872 
L 218.829843 54.339021 
Q 216.096318 48.824293 213.390828 46.104359 
Q 210.685339 43.359471 207.965831 43.359471 
Q 202.933341 43.359471 200.206824 53.390787 
Q 197.480308 63.397149 197.480308 82.03743 
Q 197.480308 100.503037 200.108698 110.584259 
Q 202.737088 120.640529 207.573325 120.640529 
Q 208.891025 120.640529 210.01948 120.066598 
Q 211.147936 119.467713 212.045093 118.220037 
L 212.045093 95.612146 
L 206.893448 95.612146 
L 206.893448 75.474654 
L 220.035398 75.474654 
z
" style="fill:#ffa600;"/>
   </g>
   <g id="patch_13">
    <path clip-path="url(#p65a6cf225d)" d="M 252.955752 156.417641 
Q 250.339708 156.954142 247.510913 157.225511 
Q 244.682118 157.5 241.601175 157.5 
Q 232.413501 157.5 227.047459 155.466288 
Q 221.681416 153.432576 221.681416 149.954679 
Q 221.681416 146.464305 227.047459 144.433712 
Q 232.413501 142.4 241.601175 142.4 
Q 244.682118 142.4 247.510913 142.674489 
Q 250.339708 142.945858 252.955752 143.482359 
L 252.955752 146.492378 
Q 250.316069 145.781202 247.755182 145.450568 
Q 245.194296 145.119934 242.365501 145.119934 
Q 237.291005 145.119934 234.383414 146.408159 
Q 231.483702 147.693266 231.483702 149.954679 
Q 231.483702 152.206734 234.383414 153.49496 
Q 237.291005 154.780066 242.365501 154.780066 
Q 245.194296 154.780066 247.755182 154.449432 
Q 250.316069 154.115679 252.955752 153.404503 
z
" style="fill:#0000ff;"/>
   </g>
   <g id="patch_14">
    <path clip-path="url(#p65a6cf225d)" d="M 243.345176 134.14775 
L 231.317569 134.14775 
L 229.418473 142.4 
L 221.681416 142.4 
L 232.730701 97.1 
L 241.906467 97.1 
L 252.955752 142.4 
L 245.225089 142.4 
z
M 233.235848 125.740163 
L 241.407715 125.740163 
L 237.328175 107.721132 
z
" style="fill:#008000;"/>
   </g>
   <g id="patch_15">
    <path clip-path="url(#p65a6cf225d)" d="M 252.955752 90.268973 
Q 249.801684 93.684487 246.409309 95.400041 
Q 243.016934 97.1 239.400269 97.1 
Q 231.227728 97.1 226.454572 86.93144 
Q 221.681416 76.76288 221.681416 59.373394 
Q 221.681416 41.781161 226.538681 31.69058 
Q 231.402954 21.6 239.862866 21.6 
Q 243.122069 21.6 246.10792 22.972444 
Q 249.10078 24.329291 251.750197 27.011795 
L 251.750197 42.061888 
Q 249.016672 38.615183 246.311182 36.915224 
Q 243.605693 35.199669 240.886185 35.199669 
Q 235.853695 35.199669 233.127178 41.469242 
Q 230.400662 47.723218 230.400662 59.373394 
Q 230.400662 70.914398 233.029052 77.215162 
Q 235.657442 83.500331 240.493679 83.500331 
Q 241.811379 83.500331 242.939834 83.141624 
Q 244.06829 82.767321 244.965447 81.987523 
L 244.965447 67.857591 
L 239.813802 67.857591 
L 239.813802 55.271659 
L 252.955752 55.271659 
z
" style="fill:#ffa600;"/>
   </g>
   <g id="patch_16">
    <path clip-path="url(#p65a6cf225d)" d="M 276.26553 154.74925 
L 264.237923 154.74925 
L 262.338827 157.5 
L 254.60177 157.5 
L 265.651055 142.4 
L 274.826821 142.4 
L 285.876106 157.5 
L 278.145443 157.5 
z
M 266.156202 151.946721 
L 274.328069 151.946721 
L 270.248529 145.940377 
z
" style="fill:#008000;"/>
   </g>
   <g id="patch_17">
    <path clip-path="url(#p65a6cf225d)" d="M 285.876106 139.667589 
Q 282.722038 141.033795 279.329663 141.720017 
Q 275.937288 142.4 272.320623 142.4 
Q 264.148082 142.4 259.374926 138.332576 
Q 254.60177 134.265152 254.60177 127.309358 
Q 254.60177 120.272464 259.459035 116.236232 
Q 264.323308 112.2 272.78322 112.2 
Q 276.042423 112.2 279.028274 112.748977 
Q 282.021134 113.291717 284.670551 114.364718 
L 284.670551 120.384755 
Q 281.937026 119.006073 279.231536 118.32609 
Q 276.526047 117.639868 273.806539 117.639868 
Q 268.774049 117.639868 266.047532 120.147697 
Q 263.321016 122.649287 263.321016 127.309358 
Q 263.321016 131.925759 265.949406 134.446065 
Q 268.577796 136.960132 273.414033 136.960132 
Q 274.731733 136.960132 275.860188 136.816649 
Q 276.988644 136.666928 277.885801 136.355009 
L 277.885801 130.703037 
L 272.734156 130.703037 
L 272.734156 125.668663 
L 285.876106 125.668663 
z
" style="fill:#ffa600;"/>
   </g>
   <g id="patch_18">
    <path clip-path="url(#p65a6cf225d)" d="M 285.876106 108.952923 
Q 283.260062 110.562425 280.431267 111.376534 
Q 277.602472 112.2 274.521529 112.2 
Q 265.333855 112.2 259.967812 106.098864 
Q 254.60177 99.997728 254.60177 89.564036 
Q 254.60177 79.092915 259.967812 73.001136 
Q 265.333855 66.9 274.521529 66.9 
Q 277.602472 66.9 280.431267 67.723466 
Q 283.260062 68.537575 285.876106 70.147077 
L 285.876106 79.177133 
Q 283.236423 77.043607 280.675536 76.051704 
Q 278.11465 75.059802 275.285855 75.059802 
Q 270.211359 75.059802 267.303768 78.924478 
Q 264.404056 82.779798 264.404056 89.564036 
Q 264.404056 96.320202 267.303768 100.184879 
Q 270.211359 104.040198 275.285855 104.040198 
Q 278.11465 104.040198 280.675536 103.048296 
Q 283.236423 102.047036 285.876106 99.91351 
z
" style="fill:#0000ff;"/>
   </g>
   <g id="patch_19">
    <path clip-path="url(#p65a6cf225d)" d="M 254.60177 21.6 
L 285.876106 21.6 
L 285.876106 30.434762 
L 274.624618 30.434762 
L 274.624618 66.9 
L 265.875077 66.9 
L 265.875077 30.434762 
L 254.60177 30.434762 
z
" style="fill:#ff0000;"/>
   </g>
   <g id="patch_20">
    <path clip-path="url(#p65a6cf225d)" d="M 318.79646 156.417641 
Q 316.180416 156.954142 313.351621 157.225511 
Q 310.522826 157.5 307.441883 157.5 
Q 298.254209 157.5 292.888166 155.466288 
Q 287.522124 153.432576 287.522124 149.954679 
Q 287.522124 146.464305 292.888166 144.433712 
Q 298.254209 142.4 307.441883 142.4 
Q 310.522826 142.4 313.351621 142.674489 
Q 316.180416 142.945858 318.79646 143.482359 
L 318.79646 146.492378 
Q 316.156777 145.781202 313.59589 145.450568 
Q 311.035004 145.119934 308.206209 145.119934 
Q 303.131713 145.119934 300.224122 146.408159 
Q 297.32441 147.693266 297.32441 149.954679 
Q 297.32441 152.206734 300.224122 153.49496 
Q 303.131713 154.780066 308.206209 154.780066 
Q 311.035004 154.780066 313.59589 154.449432 
Q 316.156777 154.115679 318.79646 153.404503 
z
" style="fill:#0000ff;"/>
   </g>
   <g id="patch_21">
    <path clip-path="url(#p65a6cf225d)" d="M 309.185884 136.8985 
L 297.158277 136.8985 
L 295.259181 142.4 
L 287.522124 142.4 
L 298.571409 112.2 
L 307.747175 112.2 
L 318.79646 142.4 
L 311.065797 142.4 
z
M 299.076556 131.293442 
L 307.248423 131.293442 
L 303.168883 119.280754 
z
" style="fill:#008000;"/>
   </g>
   <g id="patch_22">
    <path clip-path="url(#p65a6cf225d)" d="M 318.79646 104.002768 
Q 315.642392 108.101384 312.250017 110.16005 
Q 308.857642 112.2 305.240977 112.2 
Q 297.068436 112.2 292.29528 99.997728 
Q 287.522124 87.795455 287.522124 66.928073 
Q 287.522124 45.817393 292.379389 33.708697 
Q 297.243662 21.6 305.703574 21.6 
Q 308.962777 21.6 311.948628 23.246932 
Q 314.941488 24.87515 317.590905 28.094154 
L 317.590905 46.154266 
Q 314.85738 42.018219 312.15189 39.978269 
Q 309.446401 37.919603 306.726893 37.919603 
Q 301.694403 37.919603 298.967886 45.44309 
Q 296.24137 52.947862 296.24137 66.928073 
Q 296.24137 80.777277 298.86976 88.338195 
Q 301.49815 95.880397 306.334387 95.880397 
Q 307.652087 95.880397 308.780542 95.449948 
Q 309.908998 95.000785 310.806155 94.065028 
L 310.806155 77.10911 
L 305.65451 77.10911 
L 305.65451 62.00599 
L 318.79646 62.00599 
z
" style="fill:#ffa600;"/>
   </g>
   <g id="patch_23">
    <path clip-path="url(#p65a6cf225d)" d="M 351.716814 155.335282 
Q 349.10077 156.408283 346.271975 156.951023 
Q 343.44318 157.5 340.362237 157.5 
Q 331.174563 157.5 325.80852 153.432576 
Q 320.442478 149.365152 320.442478 142.409358 
Q 320.442478 135.42861 325.80852 131.367424 
Q 331.174563 127.3 340.362237 127.3 
Q 343.44318 127.3 346.271975 127.848977 
Q 349.10077 128.391717 351.716814 129.464718 
L 351.716814 135.484755 
Q 349.077131 134.062404 346.516244 133.401136 
Q 343.955358 132.739868 341.126563 132.739868 
Q 336.052067 132.739868 333.144476 135.316319 
Q 330.244764 137.886532 330.244764 142.409358 
Q 330.244764 146.913468 333.144476 149.489919 
Q 336.052067 152.060132 341.126563 152.060132 
Q 343.955358 152.060132 346.516244 151.398864 
Q 349.077131 150.731357 351.716814 149.309006 
z
" style="fill:#0000ff;"/>
   </g>
   <g id="patch_24">
    <path clip-path="url(#p65a6cf225d)" d="M 351.716814 117.736563 
Q 348.562746 122.518281 345.170371 124.920058 
Q 341.777996 127.3 338.161331 127.3 
Q 329.98879 127.3 325.215634 113.064016 
Q 320.442478 98.828031 320.442478 74.482751 
Q 320.442478 49.853625 325.299743 35.726813 
Q 330.164016 21.6 338.623928 21.6 
Q 341.883131 21.6 344.868982 23.521421 
Q 347.861842 25.421008 350.511259 29.176513 
L 350.511259 50.246643 
Q 347.777734 45.421256 345.072244 43.041314 
Q 342.366755 40.639537 339.647247 40.639537 
Q 334.614757 40.639537 331.88824 49.416939 
Q 329.161724 58.172506 329.161724 74.482751 
Q 329.161724 90.640157 331.790114 99.461227 
Q 334.418504 108.260463 339.254741 108.260463 
Q 340.572441 108.260463 341.700896 107.758273 
Q 342.829351 107.234249 343.726509 106.142533 
L 343.726509 86.360628 
L 338.574864 86.360628 
L 338.574864 68.740322 
L 351.716814 68.740322 
z
" style="fill:#ffa600;"/>
   </g>
   <g id="patch_25">
    <path clip-path="url(#p65a6cf225d)" d="M 384.637168 156.133795 
Q 381.4831 156.816897 378.090725 157.160008 
Q 374.698349 157.5 371.081685 157.5 
Q 362.909144 157.5 358.135988 155.466288 
Q 353.362832 153.432576 353.362832 149.954679 
Q 353.362832 146.436232 358.220097 144.418116 
Q 363.08437 142.4 371.544282 142.4 
Q 374.803485 142.4 377.789336 142.674489 
Q 380.782196 142.945858 383.431613 143.482359 
L 383.431613 146.492378 
Q 380.698088 145.803037 377.992598 145.463045 
Q 375.287109 145.119934 372.567601 145.119934 
Q 367.535111 145.119934 364.808594 146.373848 
Q 362.082078 147.624644 362.082078 149.954679 
Q 362.082078 152.26288 364.710468 153.523032 
Q 367.338858 154.780066 372.175095 154.780066 
Q 373.492795 154.780066 374.62125 154.708325 
Q 375.749705 154.633464 376.646863 154.477505 
L 376.646863 151.651518 
L 371.495218 151.651518 
L 371.495218 149.134332 
L 384.637168 149.134332 
z
" style="fill:#ffa600;"/>
   </g>
   <g id="patch_26">
    <path clip-path="url(#p65a6cf225d)" d="M 384.637168 133.741128 
Q 382.021124 138.033134 379.192329 140.20409 
Q 376.363534 142.4 373.282591 142.4 
Q 364.094917 142.4 358.728874 126.130304 
Q 353.362832 109.860607 353.362832 82.03743 
Q 353.362832 54.114439 358.728874 37.869696 
Q 364.094917 21.6 373.282591 21.6 
Q 376.363534 21.6 379.192329 23.79591 
Q 382.021124 25.966866 384.637168 30.258872 
L 384.637168 54.339021 
Q 381.997485 48.649618 379.436598 46.004545 
Q 376.875712 43.359471 374.046917 43.359471 
Q 368.972421 43.359471 366.06483 53.665276 
Q 363.165118 63.946127 363.165118 82.03743 
Q 363.165118 100.053873 366.06483 110.359678 
Q 368.972421 120.640529 374.046917 120.640529 
Q 376.875712 120.640529 379.436598 117.995455 
Q 381.997485 115.325429 384.637168 109.636026 
z
" style="fill:#0000ff;"/>
   </g>
   <g id="patch_27">
    <path clip-path="url(#p65a6cf225d)" d="M 417.557522 153.170564 
Q 414.941478 155.316567 412.112683 156.402045 
Q 409.283888 157.5 406.202945 157.5 
Q 397.015271 157.5 391.649228 149.365152 
Q 386.283186 141.230304 386.283186 127.318715 
Q 386.283186 113.35722 391.649228 105.234848 
Q 397.015271 97.1 406.202945 97.1 
Q 409.283888 97.1 412.112683 98.197955 
Q 414.941478 99.283433 417.557522 101.429436 
L 417.557522 113.46951 
Q 414.917839 110.624809 412.356952 109.302272 
Q 409.796066 107.979736 406.967271 107.979736 
Q 401.892775 107.979736 398.985184 113.132638 
Q 396.085472 118.273063 396.085472 127.318715 
Q 396.085472 136.326937 398.985184 141.479839 
Q 401.892775 146.620264 406.967271 146.620264 
Q 409.796066 146.620264 412.356952 145.297728 
Q 414.917839 143.962714 417.557522 141.118013 
z
" style="fill:#0000ff;"/>
   </g>
   <g id="patch_28">
    <path clip-path="url(#p65a6cf225d)" d="M 417.557522 90.268973 
Q 414.403454 93.684487 411.011079 95.400041 
Q 407.618703 97.1 404.002039 97.1 
Q 395.829498 97.1 391.056342 86.93144 
Q 386.283186 76.76288 386.283186 59.373394 
Q 386.283186 41.781161 391.140451 31.69058 
Q 396.004724 21.6 404.464635 21.6 
Q 407.723839 21.6 410.70969 22.972444 
Q 413.70255 24.329291 416.351967 27.011795 
L 416.351967 42.061888 
Q 413.618442 38.615183 410.912952 36.915224 
Q 408.207463 35.199669 405.487955 35.199669 
Q 400.455465 35.199669 397.728948 41.469242 
Q 395.002432 47.723218 395.002432 59.373394 
Q 395.002432 70.914398 397.630822 77.215162 
Q 400.259212 83.500331 405.095449 83.500331 
Q 406.413149 83.500331 407.541604 83.141624 
Q 408.670059 82.767321 409.567217 81.987523 
L 409.567217 67.857591 
L 404.415572 67.857591 
L 404.415572 55.271659 
L 417.557522 55.271659 
z
" style="fill:#ffa600;"/>
   </g>
   <g id="patch_29">
    <path clip-path="url(#p65a6cf225d)" d="M 450.477876 153.401384 
Q 447.323808 155.450692 443.931433 156.480025 
Q 440.539057 157.5 436.922393 157.5 
Q 428.749852 157.5 423.976696 151.398864 
Q 419.20354 145.297728 419.20354 134.864036 
Q 419.20354 124.308697 424.060805 118.254348 
Q 428.925078 112.2 437.384989 112.2 
Q 440.644193 112.2 443.630044 113.023466 
Q 446.622904 113.837575 449.272321 115.447077 
L 449.272321 124.477133 
Q 446.538796 122.40911 443.833306 121.389134 
Q 441.127817 120.359802 438.408309 120.359802 
Q 433.375819 120.359802 430.649302 124.121545 
Q 427.922786 127.873931 427.922786 134.864036 
Q 427.922786 141.788639 430.551176 145.569097 
Q 433.179565 149.340198 438.015803 149.340198 
Q 439.333503 149.340198 440.461958 149.124974 
Q 441.590413 148.900392 442.487571 148.432514 
L 442.487571 139.954555 
L 437.335926 139.954555 
L 437.335926 132.402995 
L 450.477876 132.402995 
z
" style="fill:#ffa600;"/>
   </g>
   <g id="patch_30">
    <path clip-path="url(#p65a6cf225d)" d="M 450.477876 105.705846 
Q 447.861832 108.92485 445.033037 110.553068 
Q 442.204242 112.2 439.123298 112.2 
Q 429.935625 112.2 424.569582 99.997728 
Q 419.20354 87.795455 419.20354 66.928073 
Q 419.20354 45.985829 424.569582 33.802272 
Q 429.935625 21.6 439.123298 21.6 
Q 442.204242 21.6 445.033037 23.246932 
Q 447.861832 24.87515 450.477876 28.094154 
L 450.477876 46.154266 
Q 447.838193 41.887213 445.277306 39.903408 
Q 442.71642 37.919603 439.887625 37.919603 
Q 434.813129 37.919603 431.905538 45.648957 
Q 429.005826 53.359595 429.005826 66.928073 
Q 429.005826 80.440405 431.905538 88.169758 
Q 434.813129 95.880397 439.887625 95.880397 
Q 442.71642 95.880397 445.277306 93.896592 
Q 447.838193 91.894071 450.477876 87.627019 
z
" style="fill:#0000ff;"/>
   </g>
   <g id="patch_31">
    <path clip-path="url(#p65a6cf225d)" d="M 452.123894 142.4 
L 483.39823 142.4 
L 483.39823 145.344921 
L 472.146742 145.344921 
L 472.146742 157.5 
L 463.397201 157.5 
L 463.397201 145.344921 
L 452.123894 145.344921 
z
" style="fill:#ff0000;"/>
   </g>
   <g id="patch_32">
    <path clip-path="url(#p65a6cf225d)" d="M 483.39823 139.667589 
Q 480.244162 141.033795 476.851787 141.720017 
Q 473.459411 142.4 469.842747 142.4 
Q 461.670206 142.4 456.89705 138.332576 
Q 452.123894 134.265152 452.123894 127.309358 
Q 452.123894 120.272464 456.981158 116.236232 
Q 461.845432 112.2 470.305343 112.2 
Q 473.564547 112.2 476.550398 112.748977 
Q 479.543258 113.291717 482.192675 114.364718 
L 482.192675 120.384755 
Q 479.45915 119.006073 476.75366 118.32609 
Q 474.048171 117.639868 471.328663 117.639868 
Q 466.296173 117.639868 463.569656 120.147697 
Q 460.84314 122.649287 460.84314 127.309358 
Q 460.84314 131.925759 463.471529 134.446065 
Q 466.099919 136.960132 470.936157 136.960132 
Q 472.253857 136.960132 473.382312 136.816649 
Q 474.510767 136.666928 475.407925 136.355009 
L 475.407925 130.703037 
L 470.25628 130.703037 
L 470.25628 125.668663 
L 483.39823 125.668663 
z
" style="fill:#ffa600;"/>
   </g>
   <g id="patch_33">
    <path clip-path="url(#p65a6cf225d)" d="M 483.39823 105.705846 
Q 480.782186 108.92485 477.953391 110.553068 
Q 475.124596 112.2 472.043652 112.2 
Q 462.855979 112.2 457.489936 99.997728 
Q 452.123894 87.795455 452.123894 66.928073 
Q 452.123894 45.985829 457.489936 33.802272 
Q 462.855979 21.6 472.043652 21.6 
Q 475.124596 21.6 477.953391 23.246932 
Q 480.782186 24.87515 483.39823 28.094154 
L 483.39823 46.154266 
Q 480.758547 41.887213 478.19766 39.903408 
Q 475.636773 37.919603 472.807979 37.919603 
Q 467.733483 37.919603 464.825892 45.648957 
Q 461.92618 53.359595 461.92618 66.928073 
Q 461.92618 80.440405 464.825892 88.169758 
Q 467.733483 95.880397 472.807979 95.880397 
Q 475.636773 95.880397 478.19766 93.896592 
Q 480.758547 91.894071 483.39823 87.627019 
z
" style="fill:#0000ff;"/>
   </g>
   <g id="patch_34">
    <path clip-path="url(#p65a6cf225d)" d="M 516.318584 147.758769 
Q 513.70254 152.587275 510.873745 155.029601 
Q 508.04495 157.5 504.964006 157.5 
Q 495.776333 157.5 490.41029 139.196592 
Q 485.044248 120.893183 485.044248 89.592109 
Q 485.044248 58.178744 490.41029 39.903408 
Q 495.776333 21.6 504.964006 21.6 
Q 508.04495 21.6 510.873745 24.070399 
Q 513.70254 26.512725 516.318584 31.341231 
L 516.318584 58.431398 
Q 513.678901 52.03082 511.118014 49.055113 
Q 508.557127 46.079405 505.728333 46.079405 
Q 500.653837 46.079405 497.746246 57.673435 
Q 494.846534 69.239393 494.846534 89.592109 
Q 494.846534 109.860607 497.746246 121.454637 
Q 500.653837 133.020595 505.728333 133.020595 
Q 508.557127 133.020595 511.118014 130.044887 
Q 513.678901 127.041107 516.318584 120.640529 
z
" style="fill:#0000ff;"/>
   </g>
   <g id="patch_35">
    <path clip-path="url(#p65a6cf225d)" d="M 549.238938 147.758769 
Q 546.622894 152.587275 543.794099 155.029601 
Q 540.965304 157.5 537.88436 157.5 
Q 528.696687 157.5 523.330644 139.196592 
Q 517.964602 120.893183 517.964602 89.592109 
Q 517.964602 58.178744 523.330644 39.903408 
Q 528.696687 21.6 537.88436 21.6 
Q 540.965304 21.6 543.794099 24.070399 
Q 546.622894 26.512725 549.238938 31.341231 
L 549.238938 58.431398 
Q 546.599255 52.03082 544.038368 49.055113 
Q 541.477481 46.079405 538.648687 46.079405 
Q 533.574191 46.079405 530.6666 57.673435 
Q 527.766888 69.239393 527.766888 89.592109 
Q 527.766888 109.860607 530.6666 121.454637 
Q 533.574191 133.020595 538.648687 133.020595 
Q 541.477481 133.020595 544.038368 130.044887 
Q 546.599255 127.041107 549.238938 120.640529 
z
" style="fill:#0000ff;"/>
   </g>
   <g id="patch_36">
    <path clip-path="url(#p65a6cf225d)" d="M 572.548716 154.74925 
L 560.521109 154.74925 
L 558.622013 157.5 
L 550.884956 157.5 
L 561.934241 142.4 
L 571.110007 142.4 
L 582.159292 157.5 
L 574.428629 157.5 
z
M 562.439387 151.946721 
L 570.611255 151.946721 
L 566.531715 145.940377 
z
" style="fill:#008000;"/>
   </g>
   <g id="patch_37">
    <path clip-path="url(#p65a6cf225d)" d="M 582.159292 133.741128 
Q 579.543248 138.033134 576.714453 140.20409 
Q 573.885658 142.4 570.804714 142.4 
Q 561.617041 142.4 556.250998 126.130304 
Q 550.884956 109.860607 550.884956 82.03743 
Q 550.884956 54.114439 556.250998 37.869696 
Q 561.617041 21.6 570.804714 21.6 
Q 573.885658 21.6 576.714453 23.79591 
Q 579.543248 25.966866 582.159292 30.258872 
L 582.159292 54.339021 
Q 579.519609 48.649618 576.958722 46.004545 
Q 574.397835 43.359471 571.569041 43.359471 
Q 566.494545 43.359471 563.586954 53.665276 
Q 560.687242 63.946127 560.687242 82.03743 
Q 560.687242 100.053873 563.586954 110.359678 
Q 566.494545 120.640529 571.569041 120.640529 
Q 574.397835 120.640529 576.958722 117.995455 
Q 579.519609 115.325429 582.159292 109.636026 
z
" style="fill:#0000ff;"/>
   </g>
   <g id="patch_38">
    <path clip-path="url(#p65a6cf225d)" d="M 615.079646 156.133795 
Q 611.925578 156.816897 608.533203 157.160008 
Q 605.140827 157.5 601.524163 157.5 
Q 593.351622 157.5 588.578466 155.466288 
Q 583.80531 153.432576 583.80531 149.954679 
Q 583.80531 146.436232 588.662574 144.418116 
Q 593.526848 142.4 601.986759 142.4 
Q 605.245963 142.4 608.231814 142.674489 
Q 611.224674 142.945858 613.874091 143.482359 
L 613.874091 146.492378 
Q 611.140566 145.803037 608.435076 145.463045 
Q 605.729587 145.119934 603.010079 145.119934 
Q 597.977589 145.119934 595.251072 146.373848 
Q 592.524555 147.624644 592.524555 149.954679 
Q 592.524555 152.26288 595.152945 153.523032 
Q 597.781335 154.780066 602.617573 154.780066 
Q 603.935272 154.780066 605.063728 154.708325 
Q 606.192183 154.633464 607.08934 154.477505 
L 607.08934 151.651518 
L 601.937696 151.651518 
L 601.937696 149.134332 
L 615.079646 149.134332 
z
" style="fill:#ffa600;"/>
   </g>
   <g id="patch_39">
    <path clip-path="url(#p65a6cf225d)" d="M 583.80531 127.3 
L 615.079646 127.3 
L 615.079646 130.244921 
L 603.828158 130.244921 
L 603.828158 142.4 
L 595.078617 142.4 
L 595.078617 130.244921 
L 583.80531 130.244921 
z
" style="fill:#ff0000;"/>
   </g>
   <g id="patch_40">
    <path clip-path="url(#p65a6cf225d)" d="M 605.46907 119.04775 
L 593.441463 119.04775 
L 591.542367 127.3 
L 583.80531 127.3 
L 594.854595 82 
L 604.030361 82 
L 615.079646 127.3 
L 607.348983 127.3 
z
M 595.359741 110.640163 
L 603.531609 110.640163 
L 599.452069 92.621132 
z
" style="fill:#008000;"/>
   </g>
   <g id="patch_41">
    <path clip-path="url(#p65a6cf225d)" d="M 615.079646 77.670564 
Q 612.463602 79.816567 609.634807 80.902045 
Q 606.806012 82 603.725068 82 
Q 594.537395 82 589.171352 73.865152 
Q 583.80531 65.730304 583.80531 51.818715 
Q 583.80531 37.85722 589.171352 29.734848 
Q 594.537395 21.6 603.725068 21.6 
Q 606.806012 21.6 609.634807 22.697955 
Q 612.463602 23.783433 615.079646 25.929436 
L 615.079646 37.96951 
Q 612.439963 35.124809 609.879076 33.802272 
Q 607.318189 32.479736 604.489395 32.479736 
Q 599.414899 32.479736 596.507308 37.632638 
Q 593.607596 42.773063 593.607596 51.818715 
Q 593.607596 60.826937 596.507308 65.979839 
Q 599.414899 71.120264 604.489395 71.120264 
Q 607.318189 71.120264 609.879076 69.797728 
Q 612.439963 68.462714 615.079646 65.618013 
z
" style="fill:#0000ff;"/>
   </g>
   <g id="patch_42">
    <path clip-path="url(#p65a6cf225d)" d="M 648 156.133795 
Q 644.845932 156.816897 641.453557 157.160008 
Q 638.061181 157.5 634.444517 157.5 
Q 626.271976 157.5 621.49882 155.466288 
Q 616.725664 153.432576 616.725664 149.954679 
Q 616.725664 146.436232 621.582928 144.418116 
Q 626.447202 142.4 634.907113 142.4 
Q 638.166317 142.4 641.152168 142.674489 
Q 644.145028 142.945858 646.794445 143.482359 
L 646.794445 146.492378 
Q 644.06092 145.803037 641.35543 145.463045 
Q 638.649941 145.119934 635.930433 145.119934 
Q 630.897943 145.119934 628.171426 146.373848 
Q 625.444909 147.624644 625.444909 149.954679 
Q 625.444909 152.26288 628.073299 153.523032 
Q 630.701689 154.780066 635.537927 154.780066 
Q 636.855626 154.780066 637.984082 154.708325 
Q 639.112537 154.633464 640.009694 154.477505 
L 640.009694 151.651518 
L 634.85805 151.651518 
L 634.85805 149.134332 
L 648 149.134332 
z
" style="fill:#ffa600;"/>
   </g>
   <g id="patch_43">
    <path clip-path="url(#p65a6cf225d)" d="M 638.389424 136.8985 
L 626.361817 136.8985 
L 624.462721 142.4 
L 616.725664 142.4 
L 627.774949 112.2 
L 636.950715 112.2 
L 648 142.4 
L 640.269337 142.4 
z
M 628.280095 131.293442 
L 636.451963 131.293442 
L 632.372423 119.280754 
z
" style="fill:#008000;"/>
   </g>
   <g id="patch_44">
    <path clip-path="url(#p65a6cf225d)" d="M 648 108.952923 
Q 645.383956 110.562425 642.555161 111.376534 
Q 639.726366 112.2 636.645422 112.2 
Q 627.457749 112.2 622.091706 106.098864 
Q 616.725664 99.997728 616.725664 89.564036 
Q 616.725664 79.092915 622.091706 73.001136 
Q 627.457749 66.9 636.645422 66.9 
Q 639.726366 66.9 642.555161 67.723466 
Q 645.383956 68.537575 648 70.147077 
L 648 79.177133 
Q 645.360317 77.043607 642.79943 76.051704 
Q 640.238543 75.059802 637.409749 75.059802 
Q 632.335253 75.059802 629.427662 78.924478 
Q 626.52795 82.779798 626.52795 89.564036 
Q 626.52795 96.320202 629.427662 100.184879 
Q 632.335253 104.040198 637.409749 104.040198 
Q 640.238543 104.040198 642.79943 103.048296 
Q 645.360317 102.047036 648 99.91351 
z
" style="fill:#0000ff;"/>
   </g>
   <g id="patch_45">
    <path clip-path="url(#p65a6cf225d)" d="M 616.725664 21.6 
L 648 21.6 
L 648 30.434762 
L 636.748512 30.434762 
L 636.748512 66.9 
L 627.998971 66.9 
L 627.998971 30.434762 
L 616.725664 30.434762 
z
" style="fill:#ff0000;"/>
   </g>
  </g>
 </g>
 <defs>
  <clipPath id="p65a6cf225d">
   <rect height="135.9" width="558" x="90" y="21.6"/>
  </clipPath>
 </defs>
</svg>
