<?xml version="1.0" encoding="utf-8" standalone="no"?>
<!DOCTYPE svg PUBLIC "-//W3C//DTD SVG 1.1//EN"
  "http://www.w3.org/Graphics/SVG/1.1/DTD/svg11.dtd">
<!-- Created with matplotlib (https://matplotlib.org/) -->
<svg height="180pt" version="1.1" viewBox="0 0 720 180" width="720pt" xmlns="http://www.w3.org/2000/svg" xmlns:xlink="http://www.w3.org/1999/xlink">
 <metadata>
  <rdf:RDF xmlns:cc="http://creativecommons.org/ns#" xmlns:dc="http://purl.org/dc/elements/1.1/" xmlns:rdf="http://www.w3.org/1999/02/22-rdf-syntax-ns#">
   <cc:Work>
    <dc:type rdf:resource="http://purl.org/dc/dcmitype/StillImage"/>
    <dc:date>2021-08-04T23:32:57.067290</dc:date>
    <dc:format>image/svg+xml</dc:format>
    <dc:creator>
     <cc:Agent>
      <dc:title>Matplotlib v3.3.2, https://matplotlib.org/</dc:title>
     </cc:Agent>
    </dc:creator>
   </cc:Work>
  </rdf:RDF>
 </metadata>
 <defs>
  <style type="text/css">*{stroke-linecap:butt;stroke-linejoin:round;}</style>
 </defs>
 <g id="figure_1">
  <g id="patch_1">
   <path d="M 0 180 
L 720 180 
L 720 0 
L 0 0 
z
" style="fill:none;"/>
  </g>
  <g id="axes_1">
   <g id="line2d_1">
    <path clip-path="url(#pea1d89f0af)" d="M 90 157.5 
L 648 157.5 
" style="fill:none;stroke:#000000;stroke-linecap:square;stroke-width:0.5;"/>
   </g>
   <g id="patch_2">
    <path clip-path="url(#pea1d89f0af)" d="M 121.274336 154.767589 
Q 118.120268 156.133795 114.727893 156.820017 
Q 111.335518 157.5 107.718853 157.5 
Q 99.546312 157.5 94.773156 153.432576 
Q 90 149.365152 90 142.409358 
Q 90 135.372464 94.857265 131.336232 
Q 99.721538 127.3 108.18145 127.3 
Q 111.440653 127.3 114.426504 127.848977 
Q 117.419364 128.391717 120.068781 129.464718 
L 120.068781 135.484755 
Q 117.335256 134.106073 114.629766 133.42609 
Q 111.924277 132.739868 109.204769 132.739868 
Q 104.172279 132.739868 101.445762 135.247697 
Q 98.719246 137.749287 98.719246 142.409358 
Q 98.719246 147.025759 101.347636 149.546065 
Q 103.976026 152.060132 108.812263 152.060132 
Q 110.129963 152.060132 111.258418 151.916649 
Q 112.386874 151.766928 113.284031 151.455009 
L 113.284031 145.803037 
L 108.132386 145.803037 
L 108.132386 140.768663 
L 121.274336 140.768663 
z
" style="fill:#ffa600;"/>
   </g>
   <g id="patch_3">
    <path clip-path="url(#pea1d89f0af)" d="M 111.66376 119.04775 
L 99.636153 119.04775 
L 97.737057 127.3 
L 90 127.3 
L 101.049285 82 
L 110.225051 82 
L 121.274336 127.3 
L 113.543673 127.3 
z
M 101.554432 110.640163 
L 109.726299 110.640163 
L 105.64676 92.621132 
z
" style="fill:#008000;"/>
   </g>
   <g id="patch_4">
    <path clip-path="url(#pea1d89f0af)" d="M 90 36.7 
L 121.274336 36.7 
L 121.274336 45.534762 
L 110.022848 45.534762 
L 110.022848 82 
L 101.273307 82 
L 101.273307 45.534762 
L 90 45.534762 
z
" style="fill:#ff0000;"/>
   </g>
   <g id="patch_5">
    <path clip-path="url(#pea1d89f0af)" d="M 154.19469 153.401384 
Q 151.040622 155.450692 147.648247 156.480025 
Q 144.255872 157.5 140.639207 157.5 
Q 132.466666 157.5 127.69351 151.398864 
Q 122.920354 145.297728 122.920354 134.864036 
Q 122.920354 124.308697 127.777619 118.254348 
Q 132.641892 112.2 141.101804 112.2 
Q 144.361007 112.2 147.346858 113.023466 
Q 150.339718 113.837575 152.989135 115.447077 
L 152.989135 124.477133 
Q 150.25561 122.40911 147.55012 121.389134 
Q 144.844631 120.359802 142.125123 120.359802 
Q 137.092633 120.359802 134.366116 124.121545 
Q 131.6396 127.873931 131.6396 134.864036 
Q 131.6396 141.788639 134.26799 145.569097 
Q 136.89638 149.340198 141.732617 149.340198 
Q 143.050317 149.340198 144.178772 149.124974 
Q 145.307228 148.900392 146.204385 148.432514 
L 146.204385 139.954555 
L 141.05274 139.954555 
L 141.05274 132.402995 
L 154.19469 132.402995 
z
" style="fill:#ffa600;"/>
   </g>
   <g id="patch_6">
    <path clip-path="url(#pea1d89f0af)" d="M 144.584114 98.446249 
L 132.556507 98.446249 
L 130.657411 112.2 
L 122.920354 112.2 
L 133.969639 36.7 
L 143.145405 36.7 
L 154.19469 112.2 
L 146.464027 112.2 
z
M 134.474786 84.433605 
L 142.646653 84.433605 
L 138.567114 54.401886 
z
" style="fill:#008000;"/>
   </g>
   <g id="patch_7">
    <path clip-path="url(#pea1d89f0af)" d="M 177.504468 154.74925 
L 165.476861 154.74925 
L 163.577765 157.5 
L 155.840708 157.5 
L 166.889993 142.4 
L 176.065759 142.4 
L 187.115044 157.5 
L 179.384381 157.5 
z
M 167.39514 151.946721 
L 175.567007 151.946721 
L 171.487467 145.940377 
z
" style="fill:#008000;"/>
   </g>
   <g id="patch_8">
    <path clip-path="url(#pea1d89f0af)" d="M 155.840708 127.3 
L 187.115044 127.3 
L 187.115044 130.244921 
L 175.863556 130.244921 
L 175.863556 142.4 
L 167.114015 142.4 
L 167.114015 130.244921 
L 155.840708 130.244921 
z
" style="fill:#ff0000;"/>
   </g>
   <g id="patch_9">
    <path clip-path="url(#pea1d89f0af)" d="M 187.115044 124.052923 
Q 184.499 125.662425 181.670205 126.476534 
Q 178.84141 127.3 175.760467 127.3 
Q 166.572793 127.3 161.206751 121.198864 
Q 155.840708 115.097728 155.840708 104.664036 
Q 155.840708 94.192915 161.206751 88.101136 
Q 166.572793 82 175.760467 82 
Q 178.84141 82 181.670205 82.823466 
Q 184.499 83.637575 187.115044 85.247077 
L 187.115044 94.277133 
Q 184.475361 92.143607 181.914474 91.151704 
Q 179.353588 90.159802 176.524793 90.159802 
Q 171.450297 90.159802 168.542706 94.024478 
Q 165.642994 97.879798 165.642994 104.664036 
Q 165.642994 111.420202 168.542706 115.284879 
Q 171.450297 119.140198 176.524793 119.140198 
Q 179.353588 119.140198 181.914474 118.148296 
Q 184.475361 117.147036 187.115044 115.01351 
z
" style="fill:#0000ff;"/>
   </g>
   <g id="patch_10">
    <path clip-path="url(#pea1d89f0af)" d="M 187.115044 77.901384 
Q 183.960976 79.950692 180.568601 80.980025 
Q 177.176226 82 173.559561 82 
Q 165.38702 82 160.613864 75.898864 
Q 155.840708 69.797728 155.840708 59.364036 
Q 155.840708 48.808697 160.697973 42.754348 
Q 165.562246 36.7 174.022158 36.7 
Q 177.281361 36.7 180.267212 37.523466 
Q 183.260072 38.337575 185.909489 39.947077 
L 185.909489 48.977133 
Q 183.175964 46.90911 180.470474 45.889134 
Q 177.764985 44.859802 175.045477 44.859802 
Q 170.012987 44.859802 167.28647 48.621545 
Q 164.559954 52.373931 164.559954 59.364036 
Q 164.559954 66.288639 167.188344 70.069097 
Q 169.816734 73.840198 174.652971 73.840198 
Q 175.970671 73.840198 177.099126 73.624974 
Q 178.227582 73.400392 179.124739 72.932514 
L 179.124739 64.454555 
L 173.973094 64.454555 
L 173.973094 56.902995 
L 187.115044 56.902995 
z
" style="fill:#ffa600;"/>
   </g>
   <g id="patch_11">
    <path clip-path="url(#pea1d89f0af)" d="M 188.761062 142.4 
L 220.035398 142.4 
L 220.035398 145.344921 
L 208.78391 145.344921 
L 208.78391 157.5 
L 200.034369 157.5 
L 200.034369 145.344921 
L 188.761062 145.344921 
z
" style="fill:#ff0000;"/>
   </g>
   <g id="patch_12">
    <path clip-path="url(#pea1d89f0af)" d="M 220.035398 139.152923 
Q 217.419354 140.762425 214.590559 141.576534 
Q 211.761764 142.4 208.680821 142.4 
Q 199.493147 142.4 194.127105 136.298864 
Q 188.761062 130.197728 188.761062 119.764036 
Q 188.761062 109.292915 194.127105 103.201136 
Q 199.493147 97.1 208.680821 97.1 
Q 211.761764 97.1 214.590559 97.923466 
Q 217.419354 98.737575 220.035398 100.347077 
L 220.035398 109.377133 
Q 217.395715 107.243607 214.834828 106.251704 
Q 212.273942 105.259802 209.445147 105.259802 
Q 204.370651 105.259802 201.46306 109.124478 
Q 198.563348 112.979798 198.563348 119.764036 
Q 198.563348 126.520202 201.46306 130.384879 
Q 204.370651 134.240198 209.445147 134.240198 
Q 212.273942 134.240198 214.834828 133.248296 
Q 217.395715 132.247036 220.035398 130.11351 
z
" style="fill:#0000ff;"/>
   </g>
   <g id="patch_13">
    <path clip-path="url(#pea1d89f0af)" d="M 220.035398 91.635179 
Q 216.88133 94.367589 213.488955 95.740033 
Q 210.09658 97.1 206.479915 97.1 
Q 198.307374 97.1 193.534218 88.965152 
Q 188.761062 80.830304 188.761062 66.918715 
Q 188.761062 52.844929 193.618327 44.772464 
Q 198.4826 36.7 206.942512 36.7 
Q 210.201715 36.7 213.187566 37.797955 
Q 216.180426 38.883433 218.829843 41.029436 
L 218.829843 53.06951 
Q 216.096318 50.312146 213.390828 48.952179 
Q 210.685339 47.579736 207.965831 47.579736 
Q 202.933341 47.579736 200.206824 52.595394 
Q 197.480308 57.598575 197.480308 66.918715 
Q 197.480308 76.151518 200.108698 81.19213 
Q 202.737088 86.220264 207.573325 86.220264 
Q 208.891025 86.220264 210.01948 85.933299 
Q 211.147936 85.633857 212.045093 85.010019 
L 212.045093 73.706073 
L 206.893448 73.706073 
L 206.893448 63.637327 
L 220.035398 63.637327 
z
" style="fill:#ffa600;"/>
   </g>
   <g id="patch_14">
    <path clip-path="url(#pea1d89f0af)" d="M 243.345176 154.74925 
L 231.317569 154.74925 
L 229.418473 157.5 
L 221.681416 157.5 
L 232.730701 142.4 
L 241.906467 142.4 
L 252.955752 157.5 
L 245.225089 157.5 
z
M 233.235848 151.946721 
L 241.407715 151.946721 
L 237.328175 145.940377 
z
" style="fill:#008000;"/>
   </g>
   <g id="patch_15">
    <path clip-path="url(#pea1d89f0af)" d="M 252.955752 141.033795 
Q 249.801684 141.716897 246.409309 142.060008 
Q 243.016934 142.4 239.400269 142.4 
Q 231.227728 142.4 226.454572 140.366288 
Q 221.681416 138.332576 221.681416 134.854679 
Q 221.681416 131.336232 226.538681 129.318116 
Q 231.402954 127.3 239.862866 127.3 
Q 243.122069 127.3 246.10792 127.574489 
Q 249.10078 127.845858 251.750197 128.382359 
L 251.750197 131.392378 
Q 249.016672 130.703037 246.311182 130.363045 
Q 243.605693 130.019934 240.886185 130.019934 
Q 235.853695 130.019934 233.127178 131.273848 
Q 230.400662 132.524644 230.400662 134.854679 
Q 230.400662 137.16288 233.029052 138.423032 
Q 235.657442 139.680066 240.493679 139.680066 
Q 241.811379 139.680066 242.939834 139.608325 
Q 244.06829 139.533464 244.965447 139.377505 
L 244.965447 136.551518 
L 239.813802 136.551518 
L 239.813802 134.034332 
L 252.955752 134.034332 
z
" style="fill:#ffa600;"/>
   </g>
   <g id="patch_16">
    <path clip-path="url(#pea1d89f0af)" d="M 252.955752 124.052923 
Q 250.339708 125.662425 247.510913 126.476534 
Q 244.682118 127.3 241.601175 127.3 
Q 232.413501 127.3 227.047459 121.198864 
Q 221.681416 115.097728 221.681416 104.664036 
Q 221.681416 94.192915 227.047459 88.101136 
Q 232.413501 82 241.601175 82 
Q 244.682118 82 247.510913 82.823466 
Q 250.339708 83.637575 252.955752 85.247077 
L 252.955752 94.277133 
Q 250.316069 92.143607 247.755182 91.151704 
Q 245.194296 90.159802 242.365501 90.159802 
Q 237.291005 90.159802 234.383414 94.024478 
Q 231.483702 97.879798 231.483702 104.664036 
Q 231.483702 111.420202 234.383414 115.284879 
Q 237.291005 119.140198 242.365501 119.140198 
Q 245.194296 119.140198 247.755182 118.148296 
Q 250.316069 117.147036 252.955752 115.01351 
z
" style="fill:#0000ff;"/>
   </g>
   <g id="patch_17">
    <path clip-path="url(#pea1d89f0af)" d="M 221.681416 36.7 
L 252.955752 36.7 
L 252.955752 45.534762 
L 241.704264 45.534762 
L 241.704264 82 
L 232.954723 82 
L 232.954723 45.534762 
L 221.681416 45.534762 
z
" style="fill:#ff0000;"/>
   </g>
   <g id="patch_18">
    <path clip-path="url(#pea1d89f0af)" d="M 254.60177 36.7 
L 285.876106 36.7 
L 285.876106 60.259366 
L 274.624618 60.259366 
L 274.624618 157.5 
L 265.875077 157.5 
L 265.875077 60.259366 
L 254.60177 60.259366 
z
" style="fill:#ff0000;"/>
   </g>
   <g id="patch_19">
    <path clip-path="url(#pea1d89f0af)" d="M 309.185884 135.493999 
L 297.158277 135.493999 
L 295.259181 157.5 
L 287.522124 157.5 
L 298.571409 36.7 
L 307.747175 36.7 
L 318.79646 157.5 
L 311.065797 157.5 
z
M 299.076556 113.073768 
L 307.248423 113.073768 
L 303.168883 65.023018 
z
" style="fill:#008000;"/>
   </g>
   <g id="patch_20">
    <path clip-path="url(#pea1d89f0af)" d="M 342.106238 151.9985 
L 330.078631 151.9985 
L 328.179535 157.5 
L 320.442478 157.5 
L 331.491763 127.3 
L 340.667529 127.3 
L 351.716814 157.5 
L 343.986151 157.5 
z
M 331.99691 146.393442 
L 340.168777 146.393442 
L 336.089237 134.380754 
z
" style="fill:#008000;"/>
   </g>
   <g id="patch_21">
    <path clip-path="url(#pea1d89f0af)" d="M 351.716814 117.736563 
Q 348.562746 122.518281 345.170371 124.920058 
Q 341.777996 127.3 338.161331 127.3 
Q 329.98879 127.3 325.215634 113.064016 
Q 320.442478 98.828031 320.442478 74.482751 
Q 320.442478 49.853625 325.299743 35.726813 
Q 330.164016 21.6 338.623928 21.6 
Q 341.883131 21.6 344.868982 23.521421 
Q 347.861842 25.421008 350.511259 29.176513 
L 350.511259 50.246643 
Q 347.777734 45.421256 345.072244 43.041314 
Q 342.366755 40.639537 339.647247 40.639537 
Q 334.614757 40.639537 331.88824 49.416939 
Q 329.161724 58.172506 329.161724 74.482751 
Q 329.161724 90.640157 331.790114 99.461227 
Q 334.418504 108.260463 339.254741 108.260463 
Q 340.572441 108.260463 341.700896 107.758273 
Q 342.829351 107.234249 343.726509 106.142533 
L 343.726509 86.360628 
L 338.574864 86.360628 
L 338.574864 68.740322 
L 351.716814 68.740322 
z
" style="fill:#ffa600;"/>
   </g>
   <g id="patch_22">
    <path clip-path="url(#pea1d89f0af)" d="M 353.362832 21.6 
L 384.637168 21.6 
L 384.637168 48.104286 
L 373.38568 48.104286 
L 373.38568 157.5 
L 364.636139 157.5 
L 364.636139 48.104286 
L 353.362832 48.104286 
z
" style="fill:#ff0000;"/>
   </g>
   <g id="patch_23">
    <path clip-path="url(#pea1d89f0af)" d="M 417.557522 153.401384 
Q 414.403454 155.450692 411.011079 156.480025 
Q 407.618703 157.5 404.002039 157.5 
Q 395.829498 157.5 391.056342 151.398864 
Q 386.283186 145.297728 386.283186 134.864036 
Q 386.283186 124.308697 391.140451 118.254348 
Q 396.004724 112.2 404.464635 112.2 
Q 407.723839 112.2 410.70969 113.023466 
Q 413.70255 113.837575 416.351967 115.447077 
L 416.351967 124.477133 
Q 413.618442 122.40911 410.912952 121.389134 
Q 408.207463 120.359802 405.487955 120.359802 
Q 400.455465 120.359802 397.728948 124.121545 
Q 395.002432 127.873931 395.002432 134.864036 
Q 395.002432 141.788639 397.630822 145.569097 
Q 400.259212 149.340198 405.095449 149.340198 
Q 406.413149 149.340198 407.541604 149.124974 
Q 408.670059 148.900392 409.567217 148.432514 
L 409.567217 139.954555 
L 404.415572 139.954555 
L 404.415572 132.402995 
L 417.557522 132.402995 
z
" style="fill:#ffa600;"/>
   </g>
   <g id="patch_24">
    <path clip-path="url(#pea1d89f0af)" d="M 407.946946 95.695499 
L 395.919339 95.695499 
L 394.020243 112.2 
L 386.283186 112.2 
L 397.332471 21.6 
L 406.508237 21.6 
L 417.557522 112.2 
L 409.826859 112.2 
z
M 397.837618 78.880326 
L 406.009485 78.880326 
L 401.929945 42.842263 
z
" style="fill:#008000;"/>
   </g>
   <g id="patch_25">
    <path clip-path="url(#pea1d89f0af)" d="M 440.8673 132.743249 
L 428.839693 132.743249 
L 426.940597 157.5 
L 419.20354 157.5 
L 430.252825 21.6 
L 439.428591 21.6 
L 450.477876 157.5 
L 442.747213 157.5 
z
M 430.757972 107.520489 
L 438.929839 107.520489 
L 434.850299 53.463395 
z
" style="fill:#008000;"/>
   </g>
   <g id="patch_26">
    <path clip-path="url(#pea1d89f0af)" d="M 452.123894 21.6 
L 483.39823 21.6 
L 483.39823 48.104286 
L 472.146742 48.104286 
L 472.146742 157.5 
L 463.397201 157.5 
L 463.397201 48.104286 
L 452.123894 48.104286 
z
" style="fill:#ff0000;"/>
   </g>
   <g id="patch_27">
    <path clip-path="url(#pea1d89f0af)" d="M 506.708008 132.743249 
L 494.680401 132.743249 
L 492.781305 157.5 
L 485.044248 157.5 
L 496.093533 21.6 
L 505.269299 21.6 
L 516.318584 157.5 
L 508.587921 157.5 
z
M 496.59868 107.520489 
L 504.770547 107.520489 
L 500.691007 53.463395 
z
" style="fill:#008000;"/>
   </g>
   <g id="patch_28">
    <path clip-path="url(#pea1d89f0af)" d="M 549.238938 152.035179 
Q 546.08487 154.767589 542.692495 156.140033 
Q 539.300119 157.5 535.683455 157.5 
Q 527.510914 157.5 522.737758 149.365152 
Q 517.964602 141.230304 517.964602 127.318715 
Q 517.964602 113.244929 522.821866 105.172464 
Q 527.68614 97.1 536.146051 97.1 
Q 539.405255 97.1 542.391106 98.197955 
Q 545.383966 99.283433 548.033383 101.429436 
L 548.033383 113.46951 
Q 545.299858 110.712146 542.594368 109.352179 
Q 539.888879 107.979736 537.169371 107.979736 
Q 532.136881 107.979736 529.410364 112.995394 
Q 526.683847 117.998575 526.683847 127.318715 
Q 526.683847 136.551518 529.312237 141.59213 
Q 531.940627 146.620264 536.776865 146.620264 
Q 538.094565 146.620264 539.22302 146.333299 
Q 540.351475 146.033857 541.248633 145.410019 
L 541.248633 134.106073 
L 536.096988 134.106073 
L 536.096988 124.037327 
L 549.238938 124.037327 
z
" style="fill:#ffa600;"/>
   </g>
   <g id="patch_29">
    <path clip-path="url(#pea1d89f0af)" d="M 539.628362 83.346249 
L 527.600755 83.346249 
L 525.701659 97.1 
L 517.964602 97.1 
L 529.013887 21.6 
L 538.189653 21.6 
L 549.238938 97.1 
L 541.508275 97.1 
z
M 529.519034 69.333605 
L 537.690901 69.333605 
L 533.611361 39.301886 
z
" style="fill:#008000;"/>
   </g>
   <g id="patch_30">
    <path clip-path="url(#pea1d89f0af)" d="M 550.884956 142.4 
L 582.159292 142.4 
L 582.159292 145.344921 
L 570.907804 145.344921 
L 570.907804 157.5 
L 562.158263 157.5 
L 562.158263 145.344921 
L 550.884956 145.344921 
z
" style="fill:#ff0000;"/>
   </g>
   <g id="patch_31">
    <path clip-path="url(#pea1d89f0af)" d="M 582.159292 138.301384 
Q 579.005224 140.350692 575.612849 141.380025 
Q 572.220473 142.4 568.603809 142.4 
Q 560.431268 142.4 555.658112 136.298864 
Q 550.884956 130.197728 550.884956 119.764036 
Q 550.884956 109.208697 555.74222 103.154348 
Q 560.606494 97.1 569.066405 97.1 
Q 572.325609 97.1 575.31146 97.923466 
Q 578.30432 98.737575 580.953737 100.347077 
L 580.953737 109.377133 
Q 578.220212 107.30911 575.514722 106.289134 
Q 572.809233 105.259802 570.089725 105.259802 
Q 565.057235 105.259802 562.330718 109.021545 
Q 559.604201 112.773931 559.604201 119.764036 
Q 559.604201 126.688639 562.232591 130.469097 
Q 564.860981 134.240198 569.697219 134.240198 
Q 571.014919 134.240198 572.143374 134.024974 
Q 573.271829 133.800392 574.168986 133.332514 
L 574.168986 124.854555 
L 569.017342 124.854555 
L 569.017342 117.302995 
L 582.159292 117.302995 
z
" style="fill:#ffa600;"/>
   </g>
   <g id="patch_32">
    <path clip-path="url(#pea1d89f0af)" d="M 572.548716 83.346249 
L 560.521109 83.346249 
L 558.622013 97.1 
L 550.884956 97.1 
L 561.934241 21.6 
L 571.110007 21.6 
L 582.159292 97.1 
L 574.428629 97.1 
z
M 562.439387 69.333605 
L 570.611255 69.333605 
L 566.531715 39.301886 
z
" style="fill:#008000;"/>
   </g>
   <g id="patch_33">
    <path clip-path="url(#pea1d89f0af)" d="M 615.079646 155.335282 
Q 612.463602 156.408283 609.634807 156.951023 
Q 606.806012 157.5 603.725068 157.5 
Q 594.537395 157.5 589.171352 153.432576 
Q 583.80531 149.365152 583.80531 142.409358 
Q 583.80531 135.42861 589.171352 131.367424 
Q 594.537395 127.3 603.725068 127.3 
Q 606.806012 127.3 609.634807 127.848977 
Q 612.463602 128.391717 615.079646 129.464718 
L 615.079646 135.484755 
Q 612.439963 134.062404 609.879076 133.401136 
Q 607.318189 132.739868 604.489395 132.739868 
Q 599.414899 132.739868 596.507308 135.316319 
Q 593.607596 137.886532 593.607596 142.409358 
Q 593.607596 146.913468 596.507308 149.489919 
Q 599.414899 152.060132 604.489395 152.060132 
Q 607.318189 152.060132 609.879076 151.398864 
Q 612.439963 150.731357 615.079646 149.309006 
z
" style="fill:#0000ff;"/>
   </g>
   <g id="patch_34">
    <path clip-path="url(#pea1d89f0af)" d="M 615.079646 124.567589 
Q 611.925578 125.933795 608.533203 126.620017 
Q 605.140827 127.3 601.524163 127.3 
Q 593.351622 127.3 588.578466 123.232576 
Q 583.80531 119.165152 583.80531 112.209358 
Q 583.80531 105.172464 588.662574 101.136232 
Q 593.526848 97.1 601.986759 97.1 
Q 605.245963 97.1 608.231814 97.648977 
Q 611.224674 98.191717 613.874091 99.264718 
L 613.874091 105.284755 
Q 611.140566 103.906073 608.435076 103.22609 
Q 605.729587 102.539868 603.010079 102.539868 
Q 597.977589 102.539868 595.251072 105.047697 
Q 592.524555 107.549287 592.524555 112.209358 
Q 592.524555 116.825759 595.152945 119.346065 
Q 597.781335 121.860132 602.617573 121.860132 
Q 603.935272 121.860132 605.063728 121.716649 
Q 606.192183 121.566928 607.08934 121.255009 
L 607.08934 115.603037 
L 601.937696 115.603037 
L 601.937696 110.568663 
L 615.079646 110.568663 
z
" style="fill:#ffa600;"/>
   </g>
   <g id="patch_35">
    <path clip-path="url(#pea1d89f0af)" d="M 583.80531 66.9 
L 615.079646 66.9 
L 615.079646 72.789841 
L 603.828158 72.789841 
L 603.828158 97.1 
L 595.078617 97.1 
L 595.078617 72.789841 
L 583.80531 72.789841 
z
" style="fill:#ff0000;"/>
   </g>
   <g id="patch_36">
    <path clip-path="url(#pea1d89f0af)" d="M 605.46907 58.64775 
L 593.441463 58.64775 
L 591.542367 66.9 
L 583.80531 66.9 
L 594.854595 21.6 
L 604.030361 21.6 
L 615.079646 66.9 
L 607.348983 66.9 
z
M 595.359741 50.240163 
L 603.531609 50.240163 
L 599.452069 32.221132 
z
" style="fill:#008000;"/>
   </g>
   <g id="patch_37">
    <path clip-path="url(#pea1d89f0af)" d="M 648 154.767589 
Q 644.845932 156.133795 641.453557 156.820017 
Q 638.061181 157.5 634.444517 157.5 
Q 626.271976 157.5 621.49882 153.432576 
Q 616.725664 149.365152 616.725664 142.409358 
Q 616.725664 135.372464 621.582928 131.336232 
Q 626.447202 127.3 634.907113 127.3 
Q 638.166317 127.3 641.152168 127.848977 
Q 644.145028 128.391717 646.794445 129.464718 
L 646.794445 135.484755 
Q 644.06092 134.106073 641.35543 133.42609 
Q 638.649941 132.739868 635.930433 132.739868 
Q 630.897943 132.739868 628.171426 135.247697 
Q 625.444909 137.749287 625.444909 142.409358 
Q 625.444909 147.025759 628.073299 149.546065 
Q 630.701689 152.060132 635.537927 152.060132 
Q 636.855626 152.060132 637.984082 151.916649 
Q 639.112537 151.766928 640.009694 151.455009 
L 640.009694 145.803037 
L 634.85805 145.803037 
L 634.85805 140.768663 
L 648 140.768663 
z
" style="fill:#ffa600;"/>
   </g>
   <g id="patch_38">
    <path clip-path="url(#pea1d89f0af)" d="M 616.725664 97.1 
L 648 97.1 
L 648 102.989841 
L 636.748512 102.989841 
L 636.748512 127.3 
L 627.998971 127.3 
L 627.998971 102.989841 
L 616.725664 102.989841 
z
" style="fill:#ff0000;"/>
   </g>
   <g id="patch_39">
    <path clip-path="url(#pea1d89f0af)" d="M 648 91.688205 
Q 645.383956 94.370709 642.555161 95.727556 
Q 639.726366 97.1 636.645422 97.1 
Q 627.457749 97.1 622.091706 86.93144 
Q 616.725664 76.76288 616.725664 59.373394 
Q 616.725664 41.921524 622.091706 31.76856 
Q 627.457749 21.6 636.645422 21.6 
Q 639.726366 21.6 642.555161 22.972444 
Q 645.383956 24.329291 648 27.011795 
L 648 42.061888 
Q 645.360317 38.506011 642.79943 36.85284 
Q 640.238543 35.199669 637.409749 35.199669 
Q 632.335253 35.199669 629.427662 41.640797 
Q 626.52795 48.066329 626.52795 59.373394 
Q 626.52795 70.633671 629.427662 77.074799 
Q 632.335253 83.500331 637.409749 83.500331 
Q 640.238543 83.500331 642.79943 81.84716 
Q 645.360317 80.178393 648 76.622516 
z
" style="fill:#0000ff;"/>
   </g>
  </g>
 </g>
 <defs>
  <clipPath id="pea1d89f0af">
   <rect height="135.9" width="558" x="90" y="21.6"/>
  </clipPath>
 </defs>
</svg>
