<?xml version="1.0" encoding="utf-8" standalone="no"?>
<!DOCTYPE svg PUBLIC "-//W3C//DTD SVG 1.1//EN"
  "http://www.w3.org/Graphics/SVG/1.1/DTD/svg11.dtd">
<!-- Created with matplotlib (https://matplotlib.org/) -->
<svg height="180pt" version="1.1" viewBox="0 0 720 180" width="720pt" xmlns="http://www.w3.org/2000/svg" xmlns:xlink="http://www.w3.org/1999/xlink">
 <metadata>
  <rdf:RDF xmlns:cc="http://creativecommons.org/ns#" xmlns:dc="http://purl.org/dc/elements/1.1/" xmlns:rdf="http://www.w3.org/1999/02/22-rdf-syntax-ns#">
   <cc:Work>
    <dc:type rdf:resource="http://purl.org/dc/dcmitype/StillImage"/>
    <dc:date>2021-08-04T23:33:55.574396</dc:date>
    <dc:format>image/svg+xml</dc:format>
    <dc:creator>
     <cc:Agent>
      <dc:title>Matplotlib v3.3.2, https://matplotlib.org/</dc:title>
     </cc:Agent>
    </dc:creator>
   </cc:Work>
  </rdf:RDF>
 </metadata>
 <defs>
  <style type="text/css">*{stroke-linecap:butt;stroke-linejoin:round;}</style>
 </defs>
 <g id="figure_1">
  <g id="patch_1">
   <path d="M 0 180 
L 720 180 
L 720 0 
L 0 0 
z
" style="fill:none;"/>
  </g>
  <g id="axes_1">
   <g id="line2d_1">
    <path clip-path="url(#pf25d592201)" d="M 90 157.5 
L 648 157.5 
" style="fill:none;stroke:#000000;stroke-linecap:square;stroke-width:0.5;"/>
   </g>
   <g id="patch_2">
    <path clip-path="url(#pf25d592201)" d="M 121.274336 156.133795 
Q 118.120268 156.816897 114.727893 157.160008 
Q 111.335518 157.5 107.718853 157.5 
Q 99.546312 157.5 94.773156 155.466288 
Q 90 153.432576 90 149.954679 
Q 90 146.436232 94.857265 144.418116 
Q 99.721538 142.4 108.18145 142.4 
Q 111.440653 142.4 114.426504 142.674489 
Q 117.419364 142.945858 120.068781 143.482359 
L 120.068781 146.492378 
Q 117.335256 145.803037 114.629766 145.463045 
Q 111.924277 145.119934 109.204769 145.119934 
Q 104.172279 145.119934 101.445762 146.373848 
Q 98.719246 147.624644 98.719246 149.954679 
Q 98.719246 152.26288 101.347636 153.523032 
Q 103.976026 154.780066 108.812263 154.780066 
Q 110.129963 154.780066 111.258418 154.708325 
Q 112.386874 154.633464 113.284031 154.477505 
L 113.284031 151.651518 
L 108.132386 151.651518 
L 108.132386 149.134332 
L 121.274336 149.134332 
z
" style="fill:#ffa600;"/>
   </g>
   <g id="patch_3">
    <path clip-path="url(#pf25d592201)" d="M 121.274336 140.235282 
Q 118.658292 141.308283 115.829497 141.851023 
Q 113.000702 142.4 109.919759 142.4 
Q 100.732085 142.4 95.366043 138.332576 
Q 90 134.265152 90 127.309358 
Q 90 120.32861 95.366043 116.267424 
Q 100.732085 112.2 109.919759 112.2 
Q 113.000702 112.2 115.829497 112.748977 
Q 118.658292 113.291717 121.274336 114.364718 
L 121.274336 120.384755 
Q 118.634653 118.962404 116.073766 118.301136 
Q 113.51288 117.639868 110.684085 117.639868 
Q 105.609589 117.639868 102.701998 120.216319 
Q 99.802286 122.786532 99.802286 127.309358 
Q 99.802286 131.813468 102.701998 134.389919 
Q 105.609589 136.960132 110.684085 136.960132 
Q 113.51288 136.960132 116.073766 136.298864 
Q 118.634653 135.631357 121.274336 134.209006 
z
" style="fill:#0000ff;"/>
   </g>
   <g id="patch_4">
    <path clip-path="url(#pf25d592201)" d="M 111.66376 103.94775 
L 99.636153 103.94775 
L 97.737057 112.2 
L 90 112.2 
L 101.049285 66.9 
L 110.225051 66.9 
L 121.274336 112.2 
L 113.543673 112.2 
z
M 101.554432 95.540163 
L 109.726299 95.540163 
L 105.64676 77.521132 
z
" style="fill:#008000;"/>
   </g>
   <g id="patch_5">
    <path clip-path="url(#pf25d592201)" d="M 90 21.6 
L 121.274336 21.6 
L 121.274336 30.434762 
L 110.022848 30.434762 
L 110.022848 66.9 
L 101.273307 66.9 
L 101.273307 30.434762 
L 90 30.434762 
z
" style="fill:#ff0000;"/>
   </g>
   <g id="patch_6">
    <path clip-path="url(#pf25d592201)" d="M 154.19469 154.767589 
Q 151.040622 156.133795 147.648247 156.820017 
Q 144.255872 157.5 140.639207 157.5 
Q 132.466666 157.5 127.69351 153.432576 
Q 122.920354 149.365152 122.920354 142.409358 
Q 122.920354 135.372464 127.777619 131.336232 
Q 132.641892 127.3 141.101804 127.3 
Q 144.361007 127.3 147.346858 127.848977 
Q 150.339718 128.391717 152.989135 129.464718 
L 152.989135 135.484755 
Q 150.25561 134.106073 147.55012 133.42609 
Q 144.844631 132.739868 142.125123 132.739868 
Q 137.092633 132.739868 134.366116 135.247697 
Q 131.6396 137.749287 131.6396 142.409358 
Q 131.6396 147.025759 134.26799 149.546065 
Q 136.89638 152.060132 141.732617 152.060132 
Q 143.050317 152.060132 144.178772 151.916649 
Q 145.307228 151.766928 146.204385 151.455009 
L 146.204385 145.803037 
L 141.05274 145.803037 
L 141.05274 140.768663 
L 154.19469 140.768663 
z
" style="fill:#ffa600;"/>
   </g>
   <g id="patch_7">
    <path clip-path="url(#pf25d592201)" d="M 122.920354 82 
L 154.19469 82 
L 154.19469 90.834762 
L 142.943202 90.834762 
L 142.943202 127.3 
L 134.193661 127.3 
L 134.193661 90.834762 
L 122.920354 90.834762 
z
" style="fill:#ff0000;"/>
   </g>
   <g id="patch_8">
    <path clip-path="url(#pf25d592201)" d="M 144.584114 70.997 
L 132.556507 70.997 
L 130.657411 82 
L 122.920354 82 
L 133.969639 21.6 
L 143.145405 21.6 
L 154.19469 82 
L 146.464027 82 
z
M 134.474786 59.786884 
L 142.646653 59.786884 
L 138.567114 35.761509 
z
" style="fill:#008000;"/>
   </g>
   <g id="patch_9">
    <path clip-path="url(#pf25d592201)" d="M 155.840708 142.4 
L 187.115044 142.4 
L 187.115044 145.344921 
L 175.863556 145.344921 
L 175.863556 157.5 
L 167.114015 157.5 
L 167.114015 145.344921 
L 155.840708 145.344921 
z
" style="fill:#ff0000;"/>
   </g>
   <g id="patch_10">
    <path clip-path="url(#pf25d592201)" d="M 177.504468 131.397 
L 165.476861 131.397 
L 163.577765 142.4 
L 155.840708 142.4 
L 166.889993 82 
L 176.065759 82 
L 187.115044 142.4 
L 179.384381 142.4 
z
M 167.39514 120.186884 
L 175.567007 120.186884 
L 171.487467 96.161509 
z
" style="fill:#008000;"/>
   </g>
   <g id="patch_11">
    <path clip-path="url(#pf25d592201)" d="M 187.115044 76.535179 
Q 183.960976 79.267589 180.568601 80.640033 
Q 177.176226 82 173.559561 82 
Q 165.38702 82 160.613864 73.865152 
Q 155.840708 65.730304 155.840708 51.818715 
Q 155.840708 37.744929 160.697973 29.672464 
Q 165.562246 21.6 174.022158 21.6 
Q 177.281361 21.6 180.267212 22.697955 
Q 183.260072 23.783433 185.909489 25.929436 
L 185.909489 37.96951 
Q 183.175964 35.212146 180.470474 33.852179 
Q 177.764985 32.479736 175.045477 32.479736 
Q 170.012987 32.479736 167.28647 37.495394 
Q 164.559954 42.498575 164.559954 51.818715 
Q 164.559954 61.051518 167.188344 66.09213 
Q 169.816734 71.120264 174.652971 71.120264 
Q 175.970671 71.120264 177.099126 70.833299 
Q 178.227582 70.533857 179.124739 69.910019 
L 179.124739 58.606073 
L 173.973094 58.606073 
L 173.973094 48.537327 
L 187.115044 48.537327 
z
" style="fill:#ffa600;"/>
   </g>
   <g id="patch_12">
    <path clip-path="url(#pf25d592201)" d="M 220.035398 156.133795 
Q 216.88133 156.816897 213.488955 157.160008 
Q 210.09658 157.5 206.479915 157.5 
Q 198.307374 157.5 193.534218 155.466288 
Q 188.761062 153.432576 188.761062 149.954679 
Q 188.761062 146.436232 193.618327 144.418116 
Q 198.4826 142.4 206.942512 142.4 
Q 210.201715 142.4 213.187566 142.674489 
Q 216.180426 142.945858 218.829843 143.482359 
L 218.829843 146.492378 
Q 216.096318 145.803037 213.390828 145.463045 
Q 210.685339 145.119934 207.965831 145.119934 
Q 202.933341 145.119934 200.206824 146.373848 
Q 197.480308 147.624644 197.480308 149.954679 
Q 197.480308 152.26288 200.108698 153.523032 
Q 202.737088 154.780066 207.573325 154.780066 
Q 208.891025 154.780066 210.01948 154.708325 
Q 211.147936 154.633464 212.045093 154.477505 
L 212.045093 151.651518 
L 206.893448 151.651518 
L 206.893448 149.134332 
L 220.035398 149.134332 
z
" style="fill:#ffa600;"/>
   </g>
   <g id="patch_13">
    <path clip-path="url(#pf25d592201)" d="M 188.761062 127.3 
L 220.035398 127.3 
L 220.035398 130.244921 
L 208.78391 130.244921 
L 208.78391 142.4 
L 200.034369 142.4 
L 200.034369 130.244921 
L 188.761062 130.244921 
z
" style="fill:#ff0000;"/>
   </g>
   <g id="patch_14">
    <path clip-path="url(#pf25d592201)" d="M 210.424822 108.044749 
L 198.397215 108.044749 
L 196.498119 127.3 
L 188.761062 127.3 
L 199.810347 21.6 
L 208.986113 21.6 
L 220.035398 127.3 
L 212.304735 127.3 
z
M 200.315494 88.427047 
L 208.487361 88.427047 
L 204.407821 46.38264 
z
" style="fill:#008000;"/>
   </g>
   <g id="patch_15">
    <path clip-path="url(#pf25d592201)" d="M 243.345176 132.743249 
L 231.317569 132.743249 
L 229.418473 157.5 
L 221.681416 157.5 
L 232.730701 21.6 
L 241.906467 21.6 
L 252.955752 157.5 
L 245.225089 157.5 
z
M 233.235848 107.520489 
L 241.407715 107.520489 
L 237.328175 53.463395 
z
" style="fill:#008000;"/>
   </g>
   <g id="patch_16">
    <path clip-path="url(#pf25d592201)" d="M 285.876106 156.133795 
Q 282.722038 156.816897 279.329663 157.160008 
Q 275.937288 157.5 272.320623 157.5 
Q 264.148082 157.5 259.374926 155.466288 
Q 254.60177 153.432576 254.60177 149.954679 
Q 254.60177 146.436232 259.459035 144.418116 
Q 264.323308 142.4 272.78322 142.4 
Q 276.042423 142.4 279.028274 142.674489 
Q 282.021134 142.945858 284.670551 143.482359 
L 284.670551 146.492378 
Q 281.937026 145.803037 279.231536 145.463045 
Q 276.526047 145.119934 273.806539 145.119934 
Q 268.774049 145.119934 266.047532 146.373848 
Q 263.321016 147.624644 263.321016 149.954679 
Q 263.321016 152.26288 265.949406 153.523032 
Q 268.577796 154.780066 273.414033 154.780066 
Q 274.731733 154.780066 275.860188 154.708325 
Q 276.988644 154.633464 277.885801 154.477505 
L 277.885801 151.651518 
L 272.734156 151.651518 
L 272.734156 149.134332 
L 285.876106 149.134332 
z
" style="fill:#ffa600;"/>
   </g>
   <g id="patch_17">
    <path clip-path="url(#pf25d592201)" d="M 254.60177 127.3 
L 285.876106 127.3 
L 285.876106 130.244921 
L 274.624618 130.244921 
L 274.624618 142.4 
L 265.875077 142.4 
L 265.875077 130.244921 
L 254.60177 130.244921 
z
" style="fill:#ff0000;"/>
   </g>
   <g id="patch_18">
    <path clip-path="url(#pf25d592201)" d="M 285.876106 119.723487 
Q 283.260062 123.478992 280.431267 125.378579 
Q 277.602472 127.3 274.521529 127.3 
Q 265.333855 127.3 259.967812 113.064016 
Q 254.60177 98.828031 254.60177 74.482751 
Q 254.60177 50.050134 259.967812 35.835984 
Q 265.333855 21.6 274.521529 21.6 
Q 277.602472 21.6 280.431267 23.521421 
Q 283.260062 25.421008 285.876106 29.176513 
L 285.876106 50.246643 
Q 283.236423 45.268416 280.675536 42.953976 
Q 278.11465 40.639537 275.285855 40.639537 
Q 270.211359 40.639537 267.303768 49.657116 
Q 264.404056 58.652861 264.404056 74.482751 
Q 264.404056 90.247139 267.303768 99.264718 
Q 270.211359 108.260463 275.285855 108.260463 
Q 278.11465 108.260463 280.675536 105.946024 
Q 283.236423 103.60975 285.876106 98.631522 
z
" style="fill:#0000ff;"/>
   </g>
   <g id="patch_19">
    <path clip-path="url(#pf25d592201)" d="M 318.79646 156.417641 
Q 316.180416 156.954142 313.351621 157.225511 
Q 310.522826 157.5 307.441883 157.5 
Q 298.254209 157.5 292.888166 155.466288 
Q 287.522124 153.432576 287.522124 149.954679 
Q 287.522124 146.464305 292.888166 144.433712 
Q 298.254209 142.4 307.441883 142.4 
Q 310.522826 142.4 313.351621 142.674489 
Q 316.180416 142.945858 318.79646 143.482359 
L 318.79646 146.492378 
Q 316.156777 145.781202 313.59589 145.450568 
Q 311.035004 145.119934 308.206209 145.119934 
Q 303.131713 145.119934 300.224122 146.408159 
Q 297.32441 147.693266 297.32441 149.954679 
Q 297.32441 152.206734 300.224122 153.49496 
Q 303.131713 154.780066 308.206209 154.780066 
Q 311.035004 154.780066 313.59589 154.449432 
Q 316.156777 154.115679 318.79646 153.404503 
z
" style="fill:#0000ff;"/>
   </g>
   <g id="patch_20">
    <path clip-path="url(#pf25d592201)" d="M 287.522124 21.6 
L 318.79646 21.6 
L 318.79646 45.159366 
L 307.544972 45.159366 
L 307.544972 142.4 
L 298.795431 142.4 
L 298.795431 45.159366 
L 287.522124 45.159366 
z
" style="fill:#ff0000;"/>
   </g>
   <g id="patch_21">
    <path clip-path="url(#pf25d592201)" d="M 351.716814 156.133795 
Q 348.562746 156.816897 345.170371 157.160008 
Q 341.777996 157.5 338.161331 157.5 
Q 329.98879 157.5 325.215634 155.466288 
Q 320.442478 153.432576 320.442478 149.954679 
Q 320.442478 146.436232 325.299743 144.418116 
Q 330.164016 142.4 338.623928 142.4 
Q 341.883131 142.4 344.868982 142.674489 
Q 347.861842 142.945858 350.511259 143.482359 
L 350.511259 146.492378 
Q 347.777734 145.803037 345.072244 145.463045 
Q 342.366755 145.119934 339.647247 145.119934 
Q 334.614757 145.119934 331.88824 146.373848 
Q 329.161724 147.624644 329.161724 149.954679 
Q 329.161724 152.26288 331.790114 153.523032 
Q 334.418504 154.780066 339.254741 154.780066 
Q 340.572441 154.780066 341.700896 154.708325 
Q 342.829351 154.633464 343.726509 154.477505 
L 343.726509 151.651518 
L 338.574864 151.651518 
L 338.574864 149.134332 
L 351.716814 149.134332 
z
" style="fill:#ffa600;"/>
   </g>
   <g id="patch_22">
    <path clip-path="url(#pf25d592201)" d="M 320.442478 21.6 
L 351.716814 21.6 
L 351.716814 45.159366 
L 340.465326 45.159366 
L 340.465326 142.4 
L 331.715785 142.4 
L 331.715785 45.159366 
L 320.442478 45.159366 
z
" style="fill:#ff0000;"/>
   </g>
   <g id="patch_23">
    <path clip-path="url(#pf25d592201)" d="M 353.362832 142.4 
L 384.637168 142.4 
L 384.637168 145.344921 
L 373.38568 145.344921 
L 373.38568 157.5 
L 364.636139 157.5 
L 364.636139 145.344921 
L 353.362832 145.344921 
z
" style="fill:#ff0000;"/>
   </g>
   <g id="patch_24">
    <path clip-path="url(#pf25d592201)" d="M 384.637168 139.667589 
Q 381.4831 141.033795 378.090725 141.720017 
Q 374.698349 142.4 371.081685 142.4 
Q 362.909144 142.4 358.135988 138.332576 
Q 353.362832 134.265152 353.362832 127.309358 
Q 353.362832 120.272464 358.220097 116.236232 
Q 363.08437 112.2 371.544282 112.2 
Q 374.803485 112.2 377.789336 112.748977 
Q 380.782196 113.291717 383.431613 114.364718 
L 383.431613 120.384755 
Q 380.698088 119.006073 377.992598 118.32609 
Q 375.287109 117.639868 372.567601 117.639868 
Q 367.535111 117.639868 364.808594 120.147697 
Q 362.082078 122.649287 362.082078 127.309358 
Q 362.082078 131.925759 364.710468 134.446065 
Q 367.338858 136.960132 372.175095 136.960132 
Q 373.492795 136.960132 374.62125 136.816649 
Q 375.749705 136.666928 376.646863 136.355009 
L 376.646863 130.703037 
L 371.495218 130.703037 
L 371.495218 125.668663 
L 384.637168 125.668663 
z
" style="fill:#ffa600;"/>
   </g>
   <g id="patch_25">
    <path clip-path="url(#pf25d592201)" d="M 375.026592 95.695499 
L 362.998985 95.695499 
L 361.099889 112.2 
L 353.362832 112.2 
L 364.412117 21.6 
L 373.587883 21.6 
L 384.637168 112.2 
L 376.906505 112.2 
z
M 364.917264 78.880326 
L 373.089131 78.880326 
L 369.009591 42.842263 
z
" style="fill:#008000;"/>
   </g>
   <g id="patch_26">
    <path clip-path="url(#pf25d592201)" d="M 407.946946 149.24775 
L 395.919339 149.24775 
L 394.020243 157.5 
L 386.283186 157.5 
L 397.332471 112.2 
L 406.508237 112.2 
L 417.557522 157.5 
L 409.826859 157.5 
z
M 397.837618 140.840163 
L 406.009485 140.840163 
L 401.929945 122.821132 
z
" style="fill:#008000;"/>
   </g>
   <g id="patch_27">
    <path clip-path="url(#pf25d592201)" d="M 417.557522 104.002768 
Q 414.403454 108.101384 411.011079 110.16005 
Q 407.618703 112.2 404.002039 112.2 
Q 395.829498 112.2 391.056342 99.997728 
Q 386.283186 87.795455 386.283186 66.928073 
Q 386.283186 45.817393 391.140451 33.708697 
Q 396.004724 21.6 404.464635 21.6 
Q 407.723839 21.6 410.70969 23.246932 
Q 413.70255 24.87515 416.351967 28.094154 
L 416.351967 46.154266 
Q 413.618442 42.018219 410.912952 39.978269 
Q 408.207463 37.919603 405.487955 37.919603 
Q 400.455465 37.919603 397.728948 45.44309 
Q 395.002432 52.947862 395.002432 66.928073 
Q 395.002432 80.777277 397.630822 88.338195 
Q 400.259212 95.880397 405.095449 95.880397 
Q 406.413149 95.880397 407.541604 95.449948 
Q 408.670059 95.000785 409.567217 94.065028 
L 409.567217 77.10911 
L 404.415572 77.10911 
L 404.415572 62.00599 
L 417.557522 62.00599 
z
" style="fill:#ffa600;"/>
   </g>
   <g id="patch_28">
    <path clip-path="url(#pf25d592201)" d="M 419.20354 21.6 
L 450.477876 21.6 
L 450.477876 48.104286 
L 439.226388 48.104286 
L 439.226388 157.5 
L 430.476847 157.5 
L 430.476847 48.104286 
L 419.20354 48.104286 
z
" style="fill:#ff0000;"/>
   </g>
   <g id="patch_29">
    <path clip-path="url(#pf25d592201)" d="M 473.787654 146.497 
L 461.760047 146.497 
L 459.860951 157.5 
L 452.123894 157.5 
L 463.173179 97.1 
L 472.348945 97.1 
L 483.39823 157.5 
L 475.667567 157.5 
z
M 463.678326 135.286884 
L 471.850193 135.286884 
L 467.770653 111.261509 
z
" style="fill:#008000;"/>
   </g>
   <g id="patch_30">
    <path clip-path="url(#pf25d592201)" d="M 483.39823 90.268973 
Q 480.244162 93.684487 476.851787 95.400041 
Q 473.459411 97.1 469.842747 97.1 
Q 461.670206 97.1 456.89705 86.93144 
Q 452.123894 76.76288 452.123894 59.373394 
Q 452.123894 41.781161 456.981158 31.69058 
Q 461.845432 21.6 470.305343 21.6 
Q 473.564547 21.6 476.550398 22.972444 
Q 479.543258 24.329291 482.192675 27.011795 
L 482.192675 42.061888 
Q 479.45915 38.615183 476.75366 36.915224 
Q 474.048171 35.199669 471.328663 35.199669 
Q 466.296173 35.199669 463.569656 41.469242 
Q 460.84314 47.723218 460.84314 59.373394 
Q 460.84314 70.914398 463.471529 77.215162 
Q 466.099919 83.500331 470.936157 83.500331 
Q 472.253857 83.500331 473.382312 83.141624 
Q 474.510767 82.767321 475.407925 81.987523 
L 475.407925 67.857591 
L 470.25628 67.857591 
L 470.25628 55.271659 
L 483.39823 55.271659 
z
" style="fill:#ffa600;"/>
   </g>
   <g id="patch_31">
    <path clip-path="url(#pf25d592201)" d="M 516.318584 153.401384 
Q 513.164516 155.450692 509.772141 156.480025 
Q 506.379765 157.5 502.763101 157.5 
Q 494.59056 157.5 489.817404 151.398864 
Q 485.044248 145.297728 485.044248 134.864036 
Q 485.044248 124.308697 489.901512 118.254348 
Q 494.765786 112.2 503.225697 112.2 
Q 506.484901 112.2 509.470752 113.023466 
Q 512.463612 113.837575 515.113029 115.447077 
L 515.113029 124.477133 
Q 512.379504 122.40911 509.674014 121.389134 
Q 506.968525 120.359802 504.249017 120.359802 
Q 499.216527 120.359802 496.49001 124.121545 
Q 493.763493 127.873931 493.763493 134.864036 
Q 493.763493 141.788639 496.391883 145.569097 
Q 499.020273 149.340198 503.856511 149.340198 
Q 505.174211 149.340198 506.302666 149.124974 
Q 507.431121 148.900392 508.328279 148.432514 
L 508.328279 139.954555 
L 503.176634 139.954555 
L 503.176634 132.402995 
L 516.318584 132.402995 
z
" style="fill:#ffa600;"/>
   </g>
   <g id="patch_32">
    <path clip-path="url(#pf25d592201)" d="M 506.708008 95.695499 
L 494.680401 95.695499 
L 492.781305 112.2 
L 485.044248 112.2 
L 496.093533 21.6 
L 505.269299 21.6 
L 516.318584 112.2 
L 508.587921 112.2 
z
M 496.59868 78.880326 
L 504.770547 78.880326 
L 500.691007 42.842263 
z
" style="fill:#008000;"/>
   </g>
   <g id="patch_33">
    <path clip-path="url(#pf25d592201)" d="M 549.238938 156.133795 
Q 546.08487 156.816897 542.692495 157.160008 
Q 539.300119 157.5 535.683455 157.5 
Q 527.510914 157.5 522.737758 155.466288 
Q 517.964602 153.432576 517.964602 149.954679 
Q 517.964602 146.436232 522.821866 144.418116 
Q 527.68614 142.4 536.146051 142.4 
Q 539.405255 142.4 542.391106 142.674489 
Q 545.383966 142.945858 548.033383 143.482359 
L 548.033383 146.492378 
Q 545.299858 145.803037 542.594368 145.463045 
Q 539.888879 145.119934 537.169371 145.119934 
Q 532.136881 145.119934 529.410364 146.373848 
Q 526.683847 147.624644 526.683847 149.954679 
Q 526.683847 152.26288 529.312237 153.523032 
Q 531.940627 154.780066 536.776865 154.780066 
Q 538.094565 154.780066 539.22302 154.708325 
Q 540.351475 154.633464 541.248633 154.477505 
L 541.248633 151.651518 
L 536.096988 151.651518 
L 536.096988 149.134332 
L 549.238938 149.134332 
z
" style="fill:#ffa600;"/>
   </g>
   <g id="patch_34">
    <path clip-path="url(#pf25d592201)" d="M 539.628362 136.8985 
L 527.600755 136.8985 
L 525.701659 142.4 
L 517.964602 142.4 
L 529.013887 112.2 
L 538.189653 112.2 
L 549.238938 142.4 
L 541.508275 142.4 
z
M 529.519034 131.293442 
L 537.690901 131.293442 
L 533.611361 119.280754 
z
" style="fill:#008000;"/>
   </g>
   <g id="patch_35">
    <path clip-path="url(#pf25d592201)" d="M 549.238938 110.035282 
Q 546.622894 111.108283 543.794099 111.651023 
Q 540.965304 112.2 537.88436 112.2 
Q 528.696687 112.2 523.330644 108.132576 
Q 517.964602 104.065152 517.964602 97.109358 
Q 517.964602 90.12861 523.330644 86.067424 
Q 528.696687 82 537.88436 82 
Q 540.965304 82 543.794099 82.548977 
Q 546.622894 83.091717 549.238938 84.164718 
L 549.238938 90.184755 
Q 546.599255 88.762404 544.038368 88.101136 
Q 541.477481 87.439868 538.648687 87.439868 
Q 533.574191 87.439868 530.6666 90.016319 
Q 527.766888 92.586532 527.766888 97.109358 
Q 527.766888 101.613468 530.6666 104.189919 
Q 533.574191 106.760132 538.648687 106.760132 
Q 541.477481 106.760132 544.038368 106.098864 
Q 546.599255 105.431357 549.238938 104.009006 
z
" style="fill:#0000ff;"/>
   </g>
   <g id="patch_36">
    <path clip-path="url(#pf25d592201)" d="M 517.964602 21.6 
L 549.238938 21.6 
L 549.238938 33.379683 
L 537.98745 33.379683 
L 537.98745 82 
L 529.237909 82 
L 529.237909 33.379683 
L 517.964602 33.379683 
z
" style="fill:#ff0000;"/>
   </g>
   <g id="patch_37">
    <path clip-path="url(#pf25d592201)" d="M 572.548716 151.9985 
L 560.521109 151.9985 
L 558.622013 157.5 
L 550.884956 157.5 
L 561.934241 127.3 
L 571.110007 127.3 
L 582.159292 157.5 
L 574.428629 157.5 
z
M 562.439387 146.393442 
L 570.611255 146.393442 
L 566.531715 134.380754 
z
" style="fill:#008000;"/>
   </g>
   <g id="patch_38">
    <path clip-path="url(#pf25d592201)" d="M 582.159292 124.567589 
Q 579.005224 125.933795 575.612849 126.620017 
Q 572.220473 127.3 568.603809 127.3 
Q 560.431268 127.3 555.658112 123.232576 
Q 550.884956 119.165152 550.884956 112.209358 
Q 550.884956 105.172464 555.74222 101.136232 
Q 560.606494 97.1 569.066405 97.1 
Q 572.325609 97.1 575.31146 97.648977 
Q 578.30432 98.191717 580.953737 99.264718 
L 580.953737 105.284755 
Q 578.220212 103.906073 575.514722 103.22609 
Q 572.809233 102.539868 570.089725 102.539868 
Q 565.057235 102.539868 562.330718 105.047697 
Q 559.604201 107.549287 559.604201 112.209358 
Q 559.604201 116.825759 562.232591 119.346065 
Q 564.860981 121.860132 569.697219 121.860132 
Q 571.014919 121.860132 572.143374 121.716649 
Q 573.271829 121.566928 574.168986 121.255009 
L 574.168986 115.603037 
L 569.017342 115.603037 
L 569.017342 110.568663 
L 582.159292 110.568663 
z
" style="fill:#ffa600;"/>
   </g>
   <g id="patch_39">
    <path clip-path="url(#pf25d592201)" d="M 550.884956 66.9 
L 582.159292 66.9 
L 582.159292 72.789841 
L 570.907804 72.789841 
L 570.907804 97.1 
L 562.158263 97.1 
L 562.158263 72.789841 
L 550.884956 72.789841 
z
" style="fill:#ff0000;"/>
   </g>
   <g id="patch_40">
    <path clip-path="url(#pf25d592201)" d="M 582.159292 63.652923 
Q 579.543248 65.262425 576.714453 66.076534 
Q 573.885658 66.9 570.804714 66.9 
Q 561.617041 66.9 556.250998 60.798864 
Q 550.884956 54.697728 550.884956 44.264036 
Q 550.884956 33.792915 556.250998 27.701136 
Q 561.617041 21.6 570.804714 21.6 
Q 573.885658 21.6 576.714453 22.423466 
Q 579.543248 23.237575 582.159292 24.847077 
L 582.159292 33.877133 
Q 579.519609 31.743607 576.958722 30.751704 
Q 574.397835 29.759802 571.569041 29.759802 
Q 566.494545 29.759802 563.586954 33.624478 
Q 560.687242 37.479798 560.687242 44.264036 
Q 560.687242 51.020202 563.586954 54.884879 
Q 566.494545 58.740198 571.569041 58.740198 
Q 574.397835 58.740198 576.958722 57.748296 
Q 579.519609 56.747036 582.159292 54.61351 
z
" style="fill:#0000ff;"/>
   </g>
   <g id="patch_41">
    <path clip-path="url(#pf25d592201)" d="M 583.80531 97.1 
L 615.079646 97.1 
L 615.079646 108.879683 
L 603.828158 108.879683 
L 603.828158 157.5 
L 595.078617 157.5 
L 595.078617 108.879683 
L 583.80531 108.879683 
z
" style="fill:#ff0000;"/>
   </g>
   <g id="patch_42">
    <path clip-path="url(#pf25d592201)" d="M 605.46907 83.346249 
L 593.441463 83.346249 
L 591.542367 97.1 
L 583.80531 97.1 
L 594.854595 21.6 
L 604.030361 21.6 
L 615.079646 97.1 
L 607.348983 97.1 
z
M 595.359741 69.333605 
L 603.531609 69.333605 
L 599.452069 39.301886 
z
" style="fill:#008000;"/>
   </g>
   <g id="patch_43">
    <path clip-path="url(#pf25d592201)" d="M 638.389424 149.24775 
L 626.361817 149.24775 
L 624.462721 157.5 
L 616.725664 157.5 
L 627.774949 112.2 
L 636.950715 112.2 
L 648 157.5 
L 640.269337 157.5 
z
M 628.280095 140.840163 
L 636.451963 140.840163 
L 632.372423 122.821132 
z
" style="fill:#008000;"/>
   </g>
   <g id="patch_44">
    <path clip-path="url(#pf25d592201)" d="M 648 108.952923 
Q 645.383956 110.562425 642.555161 111.376534 
Q 639.726366 112.2 636.645422 112.2 
Q 627.457749 112.2 622.091706 106.098864 
Q 616.725664 99.997728 616.725664 89.564036 
Q 616.725664 79.092915 622.091706 73.001136 
Q 627.457749 66.9 636.645422 66.9 
Q 639.726366 66.9 642.555161 67.723466 
Q 645.383956 68.537575 648 70.147077 
L 648 79.177133 
Q 645.360317 77.043607 642.79943 76.051704 
Q 640.238543 75.059802 637.409749 75.059802 
Q 632.335253 75.059802 629.427662 78.924478 
Q 626.52795 82.779798 626.52795 89.564036 
Q 626.52795 96.320202 629.427662 100.184879 
Q 632.335253 104.040198 637.409749 104.040198 
Q 640.238543 104.040198 642.79943 103.048296 
Q 645.360317 102.047036 648 99.91351 
z
" style="fill:#0000ff;"/>
   </g>
   <g id="patch_45">
    <path clip-path="url(#pf25d592201)" d="M 648 62.801384 
Q 644.845932 64.850692 641.453557 65.880025 
Q 638.061181 66.9 634.444517 66.9 
Q 626.271976 66.9 621.49882 60.798864 
Q 616.725664 54.697728 616.725664 44.264036 
Q 616.725664 33.708697 621.582928 27.654348 
Q 626.447202 21.6 634.907113 21.6 
Q 638.166317 21.6 641.152168 22.423466 
Q 644.145028 23.237575 646.794445 24.847077 
L 646.794445 33.877133 
Q 644.06092 31.80911 641.35543 30.789134 
Q 638.649941 29.759802 635.930433 29.759802 
Q 630.897943 29.759802 628.171426 33.521545 
Q 625.444909 37.273931 625.444909 44.264036 
Q 625.444909 51.188639 628.073299 54.969097 
Q 630.701689 58.740198 635.537927 58.740198 
Q 636.855626 58.740198 637.984082 58.524974 
Q 639.112537 58.300392 640.009694 57.832514 
L 640.009694 49.354555 
L 634.85805 49.354555 
L 634.85805 41.802995 
L 648 41.802995 
z
" style="fill:#ffa600;"/>
   </g>
  </g>
 </g>
 <defs>
  <clipPath id="pf25d592201">
   <rect height="135.9" width="558" x="90" y="21.6"/>
  </clipPath>
 </defs>
</svg>
