<?xml version="1.0" encoding="utf-8" standalone="no"?>
<!DOCTYPE svg PUBLIC "-//W3C//DTD SVG 1.1//EN"
  "http://www.w3.org/Graphics/SVG/1.1/DTD/svg11.dtd">
<!-- Created with matplotlib (https://matplotlib.org/) -->
<svg height="180pt" version="1.1" viewBox="0 0 720 180" width="720pt" xmlns="http://www.w3.org/2000/svg" xmlns:xlink="http://www.w3.org/1999/xlink">
 <metadata>
  <rdf:RDF xmlns:cc="http://creativecommons.org/ns#" xmlns:dc="http://purl.org/dc/elements/1.1/" xmlns:rdf="http://www.w3.org/1999/02/22-rdf-syntax-ns#">
   <cc:Work>
    <dc:type rdf:resource="http://purl.org/dc/dcmitype/StillImage"/>
    <dc:date>2021-08-04T23:33:35.214740</dc:date>
    <dc:format>image/svg+xml</dc:format>
    <dc:creator>
     <cc:Agent>
      <dc:title>Matplotlib v3.3.2, https://matplotlib.org/</dc:title>
     </cc:Agent>
    </dc:creator>
   </cc:Work>
  </rdf:RDF>
 </metadata>
 <defs>
  <style type="text/css">*{stroke-linecap:butt;stroke-linejoin:round;}</style>
 </defs>
 <g id="figure_1">
  <g id="patch_1">
   <path d="M 0 180 
L 720 180 
L 720 0 
L 0 0 
z
" style="fill:none;"/>
  </g>
  <g id="axes_1">
   <g id="line2d_1">
    <path clip-path="url(#p49fcd1fe11)" d="M 90 157.5 
L 648 157.5 
" style="fill:none;stroke:#000000;stroke-linecap:square;stroke-width:0.5;"/>
   </g>
   <g id="patch_2">
    <path clip-path="url(#p49fcd1fe11)" d="M 121.274336 156.133795 
Q 118.120268 156.816897 114.727893 157.160008 
Q 111.335518 157.5 107.718853 157.5 
Q 99.546312 157.5 94.773156 155.466288 
Q 90 153.432576 90 149.954679 
Q 90 146.436232 94.857265 144.418116 
Q 99.721538 142.4 108.18145 142.4 
Q 111.440653 142.4 114.426504 142.674489 
Q 117.419364 142.945858 120.068781 143.482359 
L 120.068781 146.492378 
Q 117.335256 145.803037 114.629766 145.463045 
Q 111.924277 145.119934 109.204769 145.119934 
Q 104.172279 145.119934 101.445762 146.373848 
Q 98.719246 147.624644 98.719246 149.954679 
Q 98.719246 152.26288 101.347636 153.523032 
Q 103.976026 154.780066 108.812263 154.780066 
Q 110.129963 154.780066 111.258418 154.708325 
Q 112.386874 154.633464 113.284031 154.477505 
L 113.284031 151.651518 
L 108.132386 151.651518 
L 108.132386 149.134332 
L 121.274336 149.134332 
z
" style="fill:#ffa600;"/>
   </g>
   <g id="patch_3">
    <path clip-path="url(#p49fcd1fe11)" d="M 111.66376 128.646249 
L 99.636153 128.646249 
L 97.737057 142.4 
L 90 142.4 
L 101.049285 66.9 
L 110.225051 66.9 
L 121.274336 142.4 
L 113.543673 142.4 
z
M 101.554432 114.633605 
L 109.726299 114.633605 
L 105.64676 84.601886 
z
" style="fill:#008000;"/>
   </g>
   <g id="patch_4">
    <path clip-path="url(#p49fcd1fe11)" d="M 154.19469 155.335282 
Q 151.578646 156.408283 148.749851 156.951023 
Q 145.921056 157.5 142.840113 157.5 
Q 133.652439 157.5 128.286397 153.432576 
Q 122.920354 149.365152 122.920354 142.409358 
Q 122.920354 135.42861 128.286397 131.367424 
Q 133.652439 127.3 142.840113 127.3 
Q 145.921056 127.3 148.749851 127.848977 
Q 151.578646 128.391717 154.19469 129.464718 
L 154.19469 135.484755 
Q 151.555007 134.062404 148.99412 133.401136 
Q 146.433234 132.739868 143.604439 132.739868 
Q 138.529943 132.739868 135.622352 135.316319 
Q 132.72264 137.886532 132.72264 142.409358 
Q 132.72264 146.913468 135.622352 149.489919 
Q 138.529943 152.060132 143.604439 152.060132 
Q 146.433234 152.060132 148.99412 151.398864 
Q 151.555007 150.731357 154.19469 149.309006 
z
" style="fill:#0000ff;"/>
   </g>
   <g id="patch_5">
    <path clip-path="url(#p49fcd1fe11)" d="M 144.584114 116.297 
L 132.556507 116.297 
L 130.657411 127.3 
L 122.920354 127.3 
L 133.969639 66.9 
L 143.145405 66.9 
L 154.19469 127.3 
L 146.464027 127.3 
z
M 134.474786 105.086884 
L 142.646653 105.086884 
L 138.567114 81.061509 
z
" style="fill:#008000;"/>
   </g>
   <g id="patch_6">
    <path clip-path="url(#p49fcd1fe11)" d="M 187.115044 156.417641 
Q 184.499 156.954142 181.670205 157.225511 
Q 178.84141 157.5 175.760467 157.5 
Q 166.572793 157.5 161.206751 155.466288 
Q 155.840708 153.432576 155.840708 149.954679 
Q 155.840708 146.464305 161.206751 144.433712 
Q 166.572793 142.4 175.760467 142.4 
Q 178.84141 142.4 181.670205 142.674489 
Q 184.499 142.945858 187.115044 143.482359 
L 187.115044 146.492378 
Q 184.475361 145.781202 181.914474 145.450568 
Q 179.353588 145.119934 176.524793 145.119934 
Q 171.450297 145.119934 168.542706 146.408159 
Q 165.642994 147.693266 165.642994 149.954679 
Q 165.642994 152.206734 168.542706 153.49496 
Q 171.450297 154.780066 176.524793 154.780066 
Q 179.353588 154.780066 181.914474 154.449432 
Q 184.475361 154.115679 187.115044 153.404503 
z
" style="fill:#0000ff;"/>
   </g>
   <g id="patch_7">
    <path clip-path="url(#p49fcd1fe11)" d="M 187.115044 141.033795 
Q 183.960976 141.716897 180.568601 142.060008 
Q 177.176226 142.4 173.559561 142.4 
Q 165.38702 142.4 160.613864 140.366288 
Q 155.840708 138.332576 155.840708 134.854679 
Q 155.840708 131.336232 160.697973 129.318116 
Q 165.562246 127.3 174.022158 127.3 
Q 177.281361 127.3 180.267212 127.574489 
Q 183.260072 127.845858 185.909489 128.382359 
L 185.909489 131.392378 
Q 183.175964 130.703037 180.470474 130.363045 
Q 177.764985 130.019934 175.045477 130.019934 
Q 170.012987 130.019934 167.28647 131.273848 
Q 164.559954 132.524644 164.559954 134.854679 
Q 164.559954 137.16288 167.188344 138.423032 
Q 169.816734 139.680066 174.652971 139.680066 
Q 175.970671 139.680066 177.099126 139.608325 
Q 178.227582 139.533464 179.124739 139.377505 
L 179.124739 136.551518 
L 173.973094 136.551518 
L 173.973094 134.034332 
L 187.115044 134.034332 
z
" style="fill:#ffa600;"/>
   </g>
   <g id="patch_8">
    <path clip-path="url(#p49fcd1fe11)" d="M 177.504468 116.297 
L 165.476861 116.297 
L 163.577765 127.3 
L 155.840708 127.3 
L 166.889993 66.9 
L 176.065759 66.9 
L 187.115044 127.3 
L 179.384381 127.3 
z
M 167.39514 105.086884 
L 175.567007 105.086884 
L 171.487467 81.061509 
z
" style="fill:#008000;"/>
   </g>
   <g id="patch_9">
    <path clip-path="url(#p49fcd1fe11)" d="M 220.035398 156.417641 
Q 217.419354 156.954142 214.590559 157.225511 
Q 211.761764 157.5 208.680821 157.5 
Q 199.493147 157.5 194.127105 155.466288 
Q 188.761062 153.432576 188.761062 149.954679 
Q 188.761062 146.464305 194.127105 144.433712 
Q 199.493147 142.4 208.680821 142.4 
Q 211.761764 142.4 214.590559 142.674489 
Q 217.419354 142.945858 220.035398 143.482359 
L 220.035398 146.492378 
Q 217.395715 145.781202 214.834828 145.450568 
Q 212.273942 145.119934 209.445147 145.119934 
Q 204.370651 145.119934 201.46306 146.408159 
Q 198.563348 147.693266 198.563348 149.954679 
Q 198.563348 152.206734 201.46306 153.49496 
Q 204.370651 154.780066 209.445147 154.780066 
Q 212.273942 154.780066 214.834828 154.449432 
Q 217.395715 154.115679 220.035398 153.404503 
z
" style="fill:#0000ff;"/>
   </g>
   <g id="patch_10">
    <path clip-path="url(#p49fcd1fe11)" d="M 210.424822 128.646249 
L 198.397215 128.646249 
L 196.498119 142.4 
L 188.761062 142.4 
L 199.810347 66.9 
L 208.986113 66.9 
L 220.035398 142.4 
L 212.304735 142.4 
z
M 200.315494 114.633605 
L 208.487361 114.633605 
L 204.407821 84.601886 
z
" style="fill:#008000;"/>
   </g>
   <g id="patch_11">
    <path clip-path="url(#p49fcd1fe11)" d="M 252.955752 156.133795 
Q 249.801684 156.816897 246.409309 157.160008 
Q 243.016934 157.5 239.400269 157.5 
Q 231.227728 157.5 226.454572 155.466288 
Q 221.681416 153.432576 221.681416 149.954679 
Q 221.681416 146.436232 226.538681 144.418116 
Q 231.402954 142.4 239.862866 142.4 
Q 243.122069 142.4 246.10792 142.674489 
Q 249.10078 142.945858 251.750197 143.482359 
L 251.750197 146.492378 
Q 249.016672 145.803037 246.311182 145.463045 
Q 243.605693 145.119934 240.886185 145.119934 
Q 235.853695 145.119934 233.127178 146.373848 
Q 230.400662 147.624644 230.400662 149.954679 
Q 230.400662 152.26288 233.029052 153.523032 
Q 235.657442 154.780066 240.493679 154.780066 
Q 241.811379 154.780066 242.939834 154.708325 
Q 244.06829 154.633464 244.965447 154.477505 
L 244.965447 151.651518 
L 239.813802 151.651518 
L 239.813802 149.134332 
L 252.955752 149.134332 
z
" style="fill:#ffa600;"/>
   </g>
   <g id="patch_12">
    <path clip-path="url(#p49fcd1fe11)" d="M 221.681416 66.9 
L 252.955752 66.9 
L 252.955752 81.624604 
L 241.704264 81.624604 
L 241.704264 142.4 
L 232.954723 142.4 
L 232.954723 81.624604 
L 221.681416 81.624604 
z
" style="fill:#ff0000;"/>
   </g>
   <g id="patch_13">
    <path clip-path="url(#p49fcd1fe11)" d="M 285.876106 149.302768 
Q 282.722038 153.401384 279.329663 155.46005 
Q 275.937288 157.5 272.320623 157.5 
Q 264.148082 157.5 259.374926 145.297728 
Q 254.60177 133.095455 254.60177 112.228073 
Q 254.60177 91.117393 259.459035 79.008697 
Q 264.323308 66.9 272.78322 66.9 
Q 276.042423 66.9 279.028274 68.546932 
Q 282.021134 70.17515 284.670551 73.394154 
L 284.670551 91.454266 
Q 281.937026 87.318219 279.231536 85.278269 
Q 276.526047 83.219603 273.806539 83.219603 
Q 268.774049 83.219603 266.047532 90.74309 
Q 263.321016 98.247862 263.321016 112.228073 
Q 263.321016 126.077277 265.949406 133.638195 
Q 268.577796 141.180397 273.414033 141.180397 
Q 274.731733 141.180397 275.860188 140.749948 
Q 276.988644 140.300785 277.885801 139.365028 
L 277.885801 122.40911 
L 272.734156 122.40911 
L 272.734156 107.30599 
L 285.876106 107.30599 
z
" style="fill:#ffa600;"/>
   </g>
   <g id="patch_14">
    <path clip-path="url(#p49fcd1fe11)" d="M 309.185884 154.74925 
L 297.158277 154.74925 
L 295.259181 157.5 
L 287.522124 157.5 
L 298.571409 142.4 
L 307.747175 142.4 
L 318.79646 157.5 
L 311.065797 157.5 
z
M 299.076556 151.946721 
L 307.248423 151.946721 
L 303.168883 145.940377 
z
" style="fill:#008000;"/>
   </g>
   <g id="patch_15">
    <path clip-path="url(#p49fcd1fe11)" d="M 318.79646 140.235282 
Q 316.180416 141.308283 313.351621 141.851023 
Q 310.522826 142.4 307.441883 142.4 
Q 298.254209 142.4 292.888166 138.332576 
Q 287.522124 134.265152 287.522124 127.309358 
Q 287.522124 120.32861 292.888166 116.267424 
Q 298.254209 112.2 307.441883 112.2 
Q 310.522826 112.2 313.351621 112.748977 
Q 316.180416 113.291717 318.79646 114.364718 
L 318.79646 120.384755 
Q 316.156777 118.962404 313.59589 118.301136 
Q 311.035004 117.639868 308.206209 117.639868 
Q 303.131713 117.639868 300.224122 120.216319 
Q 297.32441 122.786532 297.32441 127.309358 
Q 297.32441 131.813468 300.224122 134.389919 
Q 303.131713 136.960132 308.206209 136.960132 
Q 311.035004 136.960132 313.59589 136.298864 
Q 316.156777 135.631357 318.79646 134.209006 
z
" style="fill:#0000ff;"/>
   </g>
   <g id="patch_16">
    <path clip-path="url(#p49fcd1fe11)" d="M 318.79646 108.101384 
Q 315.642392 110.150692 312.250017 111.180025 
Q 308.857642 112.2 305.240977 112.2 
Q 297.068436 112.2 292.29528 106.098864 
Q 287.522124 99.997728 287.522124 89.564036 
Q 287.522124 79.008697 292.379389 72.954348 
Q 297.243662 66.9 305.703574 66.9 
Q 308.962777 66.9 311.948628 67.723466 
Q 314.941488 68.537575 317.590905 70.147077 
L 317.590905 79.177133 
Q 314.85738 77.10911 312.15189 76.089134 
Q 309.446401 75.059802 306.726893 75.059802 
Q 301.694403 75.059802 298.967886 78.821545 
Q 296.24137 82.573931 296.24137 89.564036 
Q 296.24137 96.488639 298.86976 100.269097 
Q 301.49815 104.040198 306.334387 104.040198 
Q 307.652087 104.040198 308.780542 103.824974 
Q 309.908998 103.600392 310.806155 103.132514 
L 310.806155 94.654555 
L 305.65451 94.654555 
L 305.65451 87.102995 
L 318.79646 87.102995 
z
" style="fill:#ffa600;"/>
   </g>
   <g id="patch_17">
    <path clip-path="url(#p49fcd1fe11)" d="M 342.106238 154.74925 
L 330.078631 154.74925 
L 328.179535 157.5 
L 320.442478 157.5 
L 331.491763 142.4 
L 340.667529 142.4 
L 351.716814 157.5 
L 343.986151 157.5 
z
M 331.99691 151.946721 
L 340.168777 151.946721 
L 336.089237 145.940377 
z
" style="fill:#008000;"/>
   </g>
   <g id="patch_18">
    <path clip-path="url(#p49fcd1fe11)" d="M 351.716814 139.667589 
Q 348.562746 141.033795 345.170371 141.720017 
Q 341.777996 142.4 338.161331 142.4 
Q 329.98879 142.4 325.215634 138.332576 
Q 320.442478 134.265152 320.442478 127.309358 
Q 320.442478 120.272464 325.299743 116.236232 
Q 330.164016 112.2 338.623928 112.2 
Q 341.883131 112.2 344.868982 112.748977 
Q 347.861842 113.291717 350.511259 114.364718 
L 350.511259 120.384755 
Q 347.777734 119.006073 345.072244 118.32609 
Q 342.366755 117.639868 339.647247 117.639868 
Q 334.614757 117.639868 331.88824 120.147697 
Q 329.161724 122.649287 329.161724 127.309358 
Q 329.161724 131.925759 331.790114 134.446065 
Q 334.418504 136.960132 339.254741 136.960132 
Q 340.572441 136.960132 341.700896 136.816649 
Q 342.829351 136.666928 343.726509 136.355009 
L 343.726509 130.703037 
L 338.574864 130.703037 
L 338.574864 125.668663 
L 351.716814 125.668663 
z
" style="fill:#ffa600;"/>
   </g>
   <g id="patch_19">
    <path clip-path="url(#p49fcd1fe11)" d="M 351.716814 108.952923 
Q 349.10077 110.562425 346.271975 111.376534 
Q 343.44318 112.2 340.362237 112.2 
Q 331.174563 112.2 325.80852 106.098864 
Q 320.442478 99.997728 320.442478 89.564036 
Q 320.442478 79.092915 325.80852 73.001136 
Q 331.174563 66.9 340.362237 66.9 
Q 343.44318 66.9 346.271975 67.723466 
Q 349.10077 68.537575 351.716814 70.147077 
L 351.716814 79.177133 
Q 349.077131 77.043607 346.516244 76.051704 
Q 343.955358 75.059802 341.126563 75.059802 
Q 336.052067 75.059802 333.144476 78.924478 
Q 330.244764 82.779798 330.244764 89.564036 
Q 330.244764 96.320202 333.144476 100.184879 
Q 336.052067 104.040198 341.126563 104.040198 
Q 343.955358 104.040198 346.516244 103.048296 
Q 349.077131 102.047036 351.716814 99.91351 
z
" style="fill:#0000ff;"/>
   </g>
   <g id="patch_20">
    <path clip-path="url(#p49fcd1fe11)" d="M 375.026592 154.74925 
L 362.998985 154.74925 
L 361.099889 157.5 
L 353.362832 157.5 
L 364.412117 142.4 
L 373.587883 142.4 
L 384.637168 157.5 
L 376.906505 157.5 
z
M 364.917264 151.946721 
L 373.089131 151.946721 
L 369.009591 145.940377 
z
" style="fill:#008000;"/>
   </g>
   <g id="patch_21">
    <path clip-path="url(#p49fcd1fe11)" d="M 384.637168 141.033795 
Q 381.4831 141.716897 378.090725 142.060008 
Q 374.698349 142.4 371.081685 142.4 
Q 362.909144 142.4 358.135988 140.366288 
Q 353.362832 138.332576 353.362832 134.854679 
Q 353.362832 131.336232 358.220097 129.318116 
Q 363.08437 127.3 371.544282 127.3 
Q 374.803485 127.3 377.789336 127.574489 
Q 380.782196 127.845858 383.431613 128.382359 
L 383.431613 131.392378 
Q 380.698088 130.703037 377.992598 130.363045 
Q 375.287109 130.019934 372.567601 130.019934 
Q 367.535111 130.019934 364.808594 131.273848 
Q 362.082078 132.524644 362.082078 134.854679 
Q 362.082078 137.16288 364.710468 138.423032 
Q 367.338858 139.680066 372.175095 139.680066 
Q 373.492795 139.680066 374.62125 139.608325 
Q 375.749705 139.533464 376.646863 139.377505 
L 376.646863 136.551518 
L 371.495218 136.551518 
L 371.495218 134.034332 
L 384.637168 134.034332 
z
" style="fill:#ffa600;"/>
   </g>
   <g id="patch_22">
    <path clip-path="url(#p49fcd1fe11)" d="M 384.637168 125.135282 
Q 382.021124 126.208283 379.192329 126.751023 
Q 376.363534 127.3 373.282591 127.3 
Q 364.094917 127.3 358.728874 123.232576 
Q 353.362832 119.165152 353.362832 112.209358 
Q 353.362832 105.22861 358.728874 101.167424 
Q 364.094917 97.1 373.282591 97.1 
Q 376.363534 97.1 379.192329 97.648977 
Q 382.021124 98.191717 384.637168 99.264718 
L 384.637168 105.284755 
Q 381.997485 103.862404 379.436598 103.201136 
Q 376.875712 102.539868 374.046917 102.539868 
Q 368.972421 102.539868 366.06483 105.116319 
Q 363.165118 107.686532 363.165118 112.209358 
Q 363.165118 116.713468 366.06483 119.289919 
Q 368.972421 121.860132 374.046917 121.860132 
Q 376.875712 121.860132 379.436598 121.198864 
Q 381.997485 120.531357 384.637168 119.109006 
z
" style="fill:#0000ff;"/>
   </g>
   <g id="patch_23">
    <path clip-path="url(#p49fcd1fe11)" d="M 353.362832 66.9 
L 384.637168 66.9 
L 384.637168 72.789841 
L 373.38568 72.789841 
L 373.38568 97.1 
L 364.636139 97.1 
L 364.636139 72.789841 
L 353.362832 72.789841 
z
" style="fill:#ff0000;"/>
   </g>
   <g id="patch_24">
    <path clip-path="url(#p49fcd1fe11)" d="M 417.557522 154.767589 
Q 414.403454 156.133795 411.011079 156.820017 
Q 407.618703 157.5 404.002039 157.5 
Q 395.829498 157.5 391.056342 153.432576 
Q 386.283186 149.365152 386.283186 142.409358 
Q 386.283186 135.372464 391.140451 131.336232 
Q 396.004724 127.3 404.464635 127.3 
Q 407.723839 127.3 410.70969 127.848977 
Q 413.70255 128.391717 416.351967 129.464718 
L 416.351967 135.484755 
Q 413.618442 134.106073 410.912952 133.42609 
Q 408.207463 132.739868 405.487955 132.739868 
Q 400.455465 132.739868 397.728948 135.247697 
Q 395.002432 137.749287 395.002432 142.409358 
Q 395.002432 147.025759 397.630822 149.546065 
Q 400.259212 152.060132 405.095449 152.060132 
Q 406.413149 152.060132 407.541604 151.916649 
Q 408.670059 151.766928 409.567217 151.455009 
L 409.567217 145.803037 
L 404.415572 145.803037 
L 404.415572 140.768663 
L 417.557522 140.768663 
z
" style="fill:#ffa600;"/>
   </g>
   <g id="patch_25">
    <path clip-path="url(#p49fcd1fe11)" d="M 417.557522 122.970564 
Q 414.941478 125.116567 412.112683 126.202045 
Q 409.283888 127.3 406.202945 127.3 
Q 397.015271 127.3 391.649228 119.165152 
Q 386.283186 111.030304 386.283186 97.118715 
Q 386.283186 83.15722 391.649228 75.034848 
Q 397.015271 66.9 406.202945 66.9 
Q 409.283888 66.9 412.112683 67.997955 
Q 414.941478 69.083433 417.557522 71.229436 
L 417.557522 83.26951 
Q 414.917839 80.424809 412.356952 79.102272 
Q 409.796066 77.779736 406.967271 77.779736 
Q 401.892775 77.779736 398.985184 82.932638 
Q 396.085472 88.073063 396.085472 97.118715 
Q 396.085472 106.126937 398.985184 111.279839 
Q 401.892775 116.420264 406.967271 116.420264 
Q 409.796066 116.420264 412.356952 115.097728 
Q 414.917839 113.762714 417.557522 110.918013 
z
" style="fill:#0000ff;"/>
   </g>
   <g id="patch_26">
    <path clip-path="url(#p49fcd1fe11)" d="M 440.8673 151.9985 
L 428.839693 151.9985 
L 426.940597 157.5 
L 419.20354 157.5 
L 430.252825 127.3 
L 439.428591 127.3 
L 450.477876 157.5 
L 442.747213 157.5 
z
M 430.757972 146.393442 
L 438.929839 146.393442 
L 434.850299 134.380754 
z
" style="fill:#008000;"/>
   </g>
   <g id="patch_27">
    <path clip-path="url(#p49fcd1fe11)" d="M 450.477876 125.135282 
Q 447.861832 126.208283 445.033037 126.751023 
Q 442.204242 127.3 439.123298 127.3 
Q 429.935625 127.3 424.569582 123.232576 
Q 419.20354 119.165152 419.20354 112.209358 
Q 419.20354 105.22861 424.569582 101.167424 
Q 429.935625 97.1 439.123298 97.1 
Q 442.204242 97.1 445.033037 97.648977 
Q 447.861832 98.191717 450.477876 99.264718 
L 450.477876 105.284755 
Q 447.838193 103.862404 445.277306 103.201136 
Q 442.71642 102.539868 439.887625 102.539868 
Q 434.813129 102.539868 431.905538 105.116319 
Q 429.005826 107.686532 429.005826 112.209358 
Q 429.005826 116.713468 431.905538 119.289919 
Q 434.813129 121.860132 439.887625 121.860132 
Q 442.71642 121.860132 445.277306 121.198864 
Q 447.838193 120.531357 450.477876 119.109006 
z
" style="fill:#0000ff;"/>
   </g>
   <g id="patch_28">
    <path clip-path="url(#p49fcd1fe11)" d="M 450.477876 94.367589 
Q 447.323808 95.733795 443.931433 96.420017 
Q 440.539057 97.1 436.922393 97.1 
Q 428.749852 97.1 423.976696 93.032576 
Q 419.20354 88.965152 419.20354 82.009358 
Q 419.20354 74.972464 424.060805 70.936232 
Q 428.925078 66.9 437.384989 66.9 
Q 440.644193 66.9 443.630044 67.448977 
Q 446.622904 67.991717 449.272321 69.064718 
L 449.272321 75.084755 
Q 446.538796 73.706073 443.833306 73.02609 
Q 441.127817 72.339868 438.408309 72.339868 
Q 433.375819 72.339868 430.649302 74.847697 
Q 427.922786 77.349287 427.922786 82.009358 
Q 427.922786 86.625759 430.551176 89.146065 
Q 433.179565 91.660132 438.015803 91.660132 
Q 439.333503 91.660132 440.461958 91.516649 
Q 441.590413 91.366928 442.487571 91.055009 
L 442.487571 85.403037 
L 437.335926 85.403037 
L 437.335926 80.368663 
L 450.477876 80.368663 
z
" style="fill:#ffa600;"/>
   </g>
   <g id="patch_29">
    <path clip-path="url(#p49fcd1fe11)" d="M 452.123894 127.3 
L 483.39823 127.3 
L 483.39823 133.189841 
L 472.146742 133.189841 
L 472.146742 157.5 
L 463.397201 157.5 
L 463.397201 133.189841 
L 452.123894 133.189841 
z
" style="fill:#ff0000;"/>
   </g>
   <g id="patch_30">
    <path clip-path="url(#p49fcd1fe11)" d="M 483.39823 122.970564 
Q 480.782186 125.116567 477.953391 126.202045 
Q 475.124596 127.3 472.043652 127.3 
Q 462.855979 127.3 457.489936 119.165152 
Q 452.123894 111.030304 452.123894 97.118715 
Q 452.123894 83.15722 457.489936 75.034848 
Q 462.855979 66.9 472.043652 66.9 
Q 475.124596 66.9 477.953391 67.997955 
Q 480.782186 69.083433 483.39823 71.229436 
L 483.39823 83.26951 
Q 480.758547 80.424809 478.19766 79.102272 
Q 475.636773 77.779736 472.807979 77.779736 
Q 467.733483 77.779736 464.825892 82.932638 
Q 461.92618 88.073063 461.92618 97.118715 
Q 461.92618 106.126937 464.825892 111.279839 
Q 467.733483 116.420264 472.807979 116.420264 
Q 475.636773 116.420264 478.19766 115.097728 
Q 480.758547 113.762714 483.39823 110.918013 
z
" style="fill:#0000ff;"/>
   </g>
   <g id="patch_31">
    <path clip-path="url(#p49fcd1fe11)" d="M 506.708008 154.74925 
L 494.680401 154.74925 
L 492.781305 157.5 
L 485.044248 157.5 
L 496.093533 142.4 
L 505.269299 142.4 
L 516.318584 157.5 
L 508.587921 157.5 
z
M 496.59868 151.946721 
L 504.770547 151.946721 
L 500.691007 145.940377 
z
" style="fill:#008000;"/>
   </g>
   <g id="patch_32">
    <path clip-path="url(#p49fcd1fe11)" d="M 485.044248 127.3 
L 516.318584 127.3 
L 516.318584 130.244921 
L 505.067096 130.244921 
L 505.067096 142.4 
L 496.317555 142.4 
L 496.317555 130.244921 
L 485.044248 130.244921 
z
" style="fill:#ff0000;"/>
   </g>
   <g id="patch_33">
    <path clip-path="url(#p49fcd1fe11)" d="M 516.318584 125.135282 
Q 513.70254 126.208283 510.873745 126.751023 
Q 508.04495 127.3 504.964006 127.3 
Q 495.776333 127.3 490.41029 123.232576 
Q 485.044248 119.165152 485.044248 112.209358 
Q 485.044248 105.22861 490.41029 101.167424 
Q 495.776333 97.1 504.964006 97.1 
Q 508.04495 97.1 510.873745 97.648977 
Q 513.70254 98.191717 516.318584 99.264718 
L 516.318584 105.284755 
Q 513.678901 103.862404 511.118014 103.201136 
Q 508.557127 102.539868 505.728333 102.539868 
Q 500.653837 102.539868 497.746246 105.116319 
Q 494.846534 107.686532 494.846534 112.209358 
Q 494.846534 116.713468 497.746246 119.289919 
Q 500.653837 121.860132 505.728333 121.860132 
Q 508.557127 121.860132 511.118014 121.198864 
Q 513.678901 120.531357 516.318584 119.109006 
z
" style="fill:#0000ff;"/>
   </g>
   <g id="patch_34">
    <path clip-path="url(#p49fcd1fe11)" d="M 516.318584 94.367589 
Q 513.164516 95.733795 509.772141 96.420017 
Q 506.379765 97.1 502.763101 97.1 
Q 494.59056 97.1 489.817404 93.032576 
Q 485.044248 88.965152 485.044248 82.009358 
Q 485.044248 74.972464 489.901512 70.936232 
Q 494.765786 66.9 503.225697 66.9 
Q 506.484901 66.9 509.470752 67.448977 
Q 512.463612 67.991717 515.113029 69.064718 
L 515.113029 75.084755 
Q 512.379504 73.706073 509.674014 73.02609 
Q 506.968525 72.339868 504.249017 72.339868 
Q 499.216527 72.339868 496.49001 74.847697 
Q 493.763493 77.349287 493.763493 82.009358 
Q 493.763493 86.625759 496.391883 89.146065 
Q 499.020273 91.660132 503.856511 91.660132 
Q 505.174211 91.660132 506.302666 91.516649 
Q 507.431121 91.366928 508.328279 91.055009 
L 508.328279 85.403037 
L 503.176634 85.403037 
L 503.176634 80.368663 
L 516.318584 80.368663 
z
" style="fill:#ffa600;"/>
   </g>
   <g id="patch_35">
    <path clip-path="url(#p49fcd1fe11)" d="M 549.238938 155.335282 
Q 546.622894 156.408283 543.794099 156.951023 
Q 540.965304 157.5 537.88436 157.5 
Q 528.696687 157.5 523.330644 153.432576 
Q 517.964602 149.365152 517.964602 142.409358 
Q 517.964602 135.42861 523.330644 131.367424 
Q 528.696687 127.3 537.88436 127.3 
Q 540.965304 127.3 543.794099 127.848977 
Q 546.622894 128.391717 549.238938 129.464718 
L 549.238938 135.484755 
Q 546.599255 134.062404 544.038368 133.401136 
Q 541.477481 132.739868 538.648687 132.739868 
Q 533.574191 132.739868 530.6666 135.316319 
Q 527.766888 137.886532 527.766888 142.409358 
Q 527.766888 146.913468 530.6666 149.489919 
Q 533.574191 152.060132 538.648687 152.060132 
Q 541.477481 152.060132 544.038368 151.398864 
Q 546.599255 150.731357 549.238938 149.309006 
z
" style="fill:#0000ff;"/>
   </g>
   <g id="patch_36">
    <path clip-path="url(#p49fcd1fe11)" d="M 517.964602 66.9 
L 549.238938 66.9 
L 549.238938 78.679683 
L 537.98745 78.679683 
L 537.98745 127.3 
L 529.237909 127.3 
L 529.237909 78.679683 
L 517.964602 78.679683 
z
" style="fill:#ff0000;"/>
   </g>
   <g id="patch_37">
    <path clip-path="url(#p49fcd1fe11)" d="M 582.159292 156.417641 
Q 579.543248 156.954142 576.714453 157.225511 
Q 573.885658 157.5 570.804714 157.5 
Q 561.617041 157.5 556.250998 155.466288 
Q 550.884956 153.432576 550.884956 149.954679 
Q 550.884956 146.464305 556.250998 144.433712 
Q 561.617041 142.4 570.804714 142.4 
Q 573.885658 142.4 576.714453 142.674489 
Q 579.543248 142.945858 582.159292 143.482359 
L 582.159292 146.492378 
Q 579.519609 145.781202 576.958722 145.450568 
Q 574.397835 145.119934 571.569041 145.119934 
Q 566.494545 145.119934 563.586954 146.408159 
Q 560.687242 147.693266 560.687242 149.954679 
Q 560.687242 152.206734 563.586954 153.49496 
Q 566.494545 154.780066 571.569041 154.780066 
Q 574.397835 154.780066 576.958722 154.449432 
Q 579.519609 154.115679 582.159292 153.404503 
z
" style="fill:#0000ff;"/>
   </g>
   <g id="patch_38">
    <path clip-path="url(#p49fcd1fe11)" d="M 582.159292 141.033795 
Q 579.005224 141.716897 575.612849 142.060008 
Q 572.220473 142.4 568.603809 142.4 
Q 560.431268 142.4 555.658112 140.366288 
Q 550.884956 138.332576 550.884956 134.854679 
Q 550.884956 131.336232 555.74222 129.318116 
Q 560.606494 127.3 569.066405 127.3 
Q 572.325609 127.3 575.31146 127.574489 
Q 578.30432 127.845858 580.953737 128.382359 
L 580.953737 131.392378 
Q 578.220212 130.703037 575.514722 130.363045 
Q 572.809233 130.019934 570.089725 130.019934 
Q 565.057235 130.019934 562.330718 131.273848 
Q 559.604201 132.524644 559.604201 134.854679 
Q 559.604201 137.16288 562.232591 138.423032 
Q 564.860981 139.680066 569.697219 139.680066 
Q 571.014919 139.680066 572.143374 139.608325 
Q 573.271829 139.533464 574.168986 139.377505 
L 574.168986 136.551518 
L 569.017342 136.551518 
L 569.017342 134.034332 
L 582.159292 134.034332 
z
" style="fill:#ffa600;"/>
   </g>
   <g id="patch_39">
    <path clip-path="url(#p49fcd1fe11)" d="M 550.884956 112.2 
L 582.159292 112.2 
L 582.159292 115.144921 
L 570.907804 115.144921 
L 570.907804 127.3 
L 562.158263 127.3 
L 562.158263 115.144921 
L 550.884956 115.144921 
z
" style="fill:#ff0000;"/>
   </g>
   <g id="patch_40">
    <path clip-path="url(#p49fcd1fe11)" d="M 572.548716 103.94775 
L 560.521109 103.94775 
L 558.622013 112.2 
L 550.884956 112.2 
L 561.934241 66.9 
L 571.110007 66.9 
L 582.159292 112.2 
L 574.428629 112.2 
z
M 562.439387 95.540163 
L 570.611255 95.540163 
L 566.531715 77.521132 
z
" style="fill:#008000;"/>
   </g>
   <g id="patch_41">
    <path clip-path="url(#p49fcd1fe11)" d="M 615.079646 156.417641 
Q 612.463602 156.954142 609.634807 157.225511 
Q 606.806012 157.5 603.725068 157.5 
Q 594.537395 157.5 589.171352 155.466288 
Q 583.80531 153.432576 583.80531 149.954679 
Q 583.80531 146.464305 589.171352 144.433712 
Q 594.537395 142.4 603.725068 142.4 
Q 606.806012 142.4 609.634807 142.674489 
Q 612.463602 142.945858 615.079646 143.482359 
L 615.079646 146.492378 
Q 612.439963 145.781202 609.879076 145.450568 
Q 607.318189 145.119934 604.489395 145.119934 
Q 599.414899 145.119934 596.507308 146.408159 
Q 593.607596 147.693266 593.607596 149.954679 
Q 593.607596 152.206734 596.507308 153.49496 
Q 599.414899 154.780066 604.489395 154.780066 
Q 607.318189 154.780066 609.879076 154.449432 
Q 612.439963 154.115679 615.079646 153.404503 
z
" style="fill:#0000ff;"/>
   </g>
   <g id="patch_42">
    <path clip-path="url(#p49fcd1fe11)" d="M 615.079646 138.301384 
Q 611.925578 140.350692 608.533203 141.380025 
Q 605.140827 142.4 601.524163 142.4 
Q 593.351622 142.4 588.578466 136.298864 
Q 583.80531 130.197728 583.80531 119.764036 
Q 583.80531 109.208697 588.662574 103.154348 
Q 593.526848 97.1 601.986759 97.1 
Q 605.245963 97.1 608.231814 97.923466 
Q 611.224674 98.737575 613.874091 100.347077 
L 613.874091 109.377133 
Q 611.140566 107.30911 608.435076 106.289134 
Q 605.729587 105.259802 603.010079 105.259802 
Q 597.977589 105.259802 595.251072 109.021545 
Q 592.524555 112.773931 592.524555 119.764036 
Q 592.524555 126.688639 595.152945 130.469097 
Q 597.781335 134.240198 602.617573 134.240198 
Q 603.935272 134.240198 605.063728 134.024974 
Q 606.192183 133.800392 607.08934 133.332514 
L 607.08934 124.854555 
L 601.937696 124.854555 
L 601.937696 117.302995 
L 615.079646 117.302995 
z
" style="fill:#ffa600;"/>
   </g>
   <g id="patch_43">
    <path clip-path="url(#p49fcd1fe11)" d="M 605.46907 83.346249 
L 593.441463 83.346249 
L 591.542367 97.1 
L 583.80531 97.1 
L 594.854595 21.6 
L 604.030361 21.6 
L 615.079646 97.1 
L 607.348983 97.1 
z
M 595.359741 69.333605 
L 603.531609 69.333605 
L 599.452069 39.301886 
z
" style="fill:#008000;"/>
   </g>
   <g id="patch_44">
    <path clip-path="url(#p49fcd1fe11)" d="M 616.725664 142.4 
L 648 142.4 
L 648 145.344921 
L 636.748512 145.344921 
L 636.748512 157.5 
L 627.998971 157.5 
L 627.998971 145.344921 
L 616.725664 145.344921 
z
" style="fill:#ff0000;"/>
   </g>
   <g id="patch_45">
    <path clip-path="url(#p49fcd1fe11)" d="M 648 139.667589 
Q 644.845932 141.033795 641.453557 141.720017 
Q 638.061181 142.4 634.444517 142.4 
Q 626.271976 142.4 621.49882 138.332576 
Q 616.725664 134.265152 616.725664 127.309358 
Q 616.725664 120.272464 621.582928 116.236232 
Q 626.447202 112.2 634.907113 112.2 
Q 638.166317 112.2 641.152168 112.748977 
Q 644.145028 113.291717 646.794445 114.364718 
L 646.794445 120.384755 
Q 644.06092 119.006073 641.35543 118.32609 
Q 638.649941 117.639868 635.930433 117.639868 
Q 630.897943 117.639868 628.171426 120.147697 
Q 625.444909 122.649287 625.444909 127.309358 
Q 625.444909 131.925759 628.073299 134.446065 
Q 630.701689 136.960132 635.537927 136.960132 
Q 636.855626 136.960132 637.984082 136.816649 
Q 639.112537 136.666928 640.009694 136.355009 
L 640.009694 130.703037 
L 634.85805 130.703037 
L 634.85805 125.668663 
L 648 125.668663 
z
" style="fill:#ffa600;"/>
   </g>
   <g id="patch_46">
    <path clip-path="url(#p49fcd1fe11)" d="M 638.389424 103.94775 
L 626.361817 103.94775 
L 624.462721 112.2 
L 616.725664 112.2 
L 627.774949 66.9 
L 636.950715 66.9 
L 648 112.2 
L 640.269337 112.2 
z
M 628.280095 95.540163 
L 636.451963 95.540163 
L 632.372423 77.521132 
z
" style="fill:#008000;"/>
   </g>
   <g id="patch_47">
    <path clip-path="url(#p49fcd1fe11)" d="M 648 63.652923 
Q 645.383956 65.262425 642.555161 66.076534 
Q 639.726366 66.9 636.645422 66.9 
Q 627.457749 66.9 622.091706 60.798864 
Q 616.725664 54.697728 616.725664 44.264036 
Q 616.725664 33.792915 622.091706 27.701136 
Q 627.457749 21.6 636.645422 21.6 
Q 639.726366 21.6 642.555161 22.423466 
Q 645.383956 23.237575 648 24.847077 
L 648 33.877133 
Q 645.360317 31.743607 642.79943 30.751704 
Q 640.238543 29.759802 637.409749 29.759802 
Q 632.335253 29.759802 629.427662 33.624478 
Q 626.52795 37.479798 626.52795 44.264036 
Q 626.52795 51.020202 629.427662 54.884879 
Q 632.335253 58.740198 637.409749 58.740198 
Q 640.238543 58.740198 642.79943 57.748296 
Q 645.360317 56.747036 648 54.61351 
z
" style="fill:#0000ff;"/>
   </g>
  </g>
 </g>
 <defs>
  <clipPath id="p49fcd1fe11">
   <rect height="135.9" width="558" x="90" y="21.6"/>
  </clipPath>
 </defs>
</svg>
