<?xml version="1.0" encoding="utf-8" standalone="no"?>
<!DOCTYPE svg PUBLIC "-//W3C//DTD SVG 1.1//EN"
  "http://www.w3.org/Graphics/SVG/1.1/DTD/svg11.dtd">
<!-- Created with matplotlib (https://matplotlib.org/) -->
<svg height="180pt" version="1.1" viewBox="0 0 720 180" width="720pt" xmlns="http://www.w3.org/2000/svg" xmlns:xlink="http://www.w3.org/1999/xlink">
 <metadata>
  <rdf:RDF xmlns:cc="http://creativecommons.org/ns#" xmlns:dc="http://purl.org/dc/elements/1.1/" xmlns:rdf="http://www.w3.org/1999/02/22-rdf-syntax-ns#">
   <cc:Work>
    <dc:type rdf:resource="http://purl.org/dc/dcmitype/StillImage"/>
    <dc:date>2021-08-04T23:33:07.116951</dc:date>
    <dc:format>image/svg+xml</dc:format>
    <dc:creator>
     <cc:Agent>
      <dc:title>Matplotlib v3.3.2, https://matplotlib.org/</dc:title>
     </cc:Agent>
    </dc:creator>
   </cc:Work>
  </rdf:RDF>
 </metadata>
 <defs>
  <style type="text/css">*{stroke-linecap:butt;stroke-linejoin:round;}</style>
 </defs>
 <g id="figure_1">
  <g id="patch_1">
   <path d="M 0 180 
L 720 180 
L 720 0 
L 0 0 
z
" style="fill:none;"/>
  </g>
  <g id="axes_1">
   <g id="line2d_1">
    <path clip-path="url(#p2a40daa722)" d="M 90 157.5 
L 648 157.5 
" style="fill:none;stroke:#000000;stroke-linecap:square;stroke-width:0.5;"/>
   </g>
   <g id="patch_2">
    <path clip-path="url(#p2a40daa722)" d="M 111.66376 154.74925 
L 99.636153 154.74925 
L 97.737057 157.5 
L 90 157.5 
L 101.049285 142.4 
L 110.225051 142.4 
L 121.274336 157.5 
L 113.543673 157.5 
z
M 101.554432 151.946721 
L 109.726299 151.946721 
L 105.64676 145.940377 
z
" style="fill:#008000;"/>
   </g>
   <g id="patch_3">
    <path clip-path="url(#p2a40daa722)" d="M 90 127.3 
L 121.274336 127.3 
L 121.274336 130.244921 
L 110.022848 130.244921 
L 110.022848 142.4 
L 101.273307 142.4 
L 101.273307 130.244921 
L 90 130.244921 
z
" style="fill:#ff0000;"/>
   </g>
   <g id="patch_4">
    <path clip-path="url(#p2a40daa722)" d="M 121.274336 125.135282 
Q 118.658292 126.208283 115.829497 126.751023 
Q 113.000702 127.3 109.919759 127.3 
Q 100.732085 127.3 95.366043 123.232576 
Q 90 119.165152 90 112.209358 
Q 90 105.22861 95.366043 101.167424 
Q 100.732085 97.1 109.919759 97.1 
Q 113.000702 97.1 115.829497 97.648977 
Q 118.658292 98.191717 121.274336 99.264718 
L 121.274336 105.284755 
Q 118.634653 103.862404 116.073766 103.201136 
Q 113.51288 102.539868 110.684085 102.539868 
Q 105.609589 102.539868 102.701998 105.116319 
Q 99.802286 107.686532 99.802286 112.209358 
Q 99.802286 116.713468 102.701998 119.289919 
Q 105.609589 121.860132 110.684085 121.860132 
Q 113.51288 121.860132 116.073766 121.198864 
Q 118.634653 120.531357 121.274336 119.109006 
z
" style="fill:#0000ff;"/>
   </g>
   <g id="patch_5">
    <path clip-path="url(#p2a40daa722)" d="M 121.274336 90.268973 
Q 118.120268 93.684487 114.727893 95.400041 
Q 111.335518 97.1 107.718853 97.1 
Q 99.546312 97.1 94.773156 86.93144 
Q 90 76.76288 90 59.373394 
Q 90 41.781161 94.857265 31.69058 
Q 99.721538 21.6 108.18145 21.6 
Q 111.440653 21.6 114.426504 22.972444 
Q 117.419364 24.329291 120.068781 27.011795 
L 120.068781 42.061888 
Q 117.335256 38.615183 114.629766 36.915224 
Q 111.924277 35.199669 109.204769 35.199669 
Q 104.172279 35.199669 101.445762 41.469242 
Q 98.719246 47.723218 98.719246 59.373394 
Q 98.719246 70.914398 101.347636 77.215162 
Q 103.976026 83.500331 108.812263 83.500331 
Q 110.129963 83.500331 111.258418 83.141624 
Q 112.386874 82.767321 113.284031 81.987523 
L 113.284031 67.857591 
L 108.132386 67.857591 
L 108.132386 55.271659 
L 121.274336 55.271659 
z
" style="fill:#ffa600;"/>
   </g>
   <g id="patch_6">
    <path clip-path="url(#p2a40daa722)" d="M 144.584114 154.74925 
L 132.556507 154.74925 
L 130.657411 157.5 
L 122.920354 157.5 
L 133.969639 142.4 
L 143.145405 142.4 
L 154.19469 157.5 
L 146.464027 157.5 
z
M 134.474786 151.946721 
L 142.646653 151.946721 
L 138.567114 145.940377 
z
" style="fill:#008000;"/>
   </g>
   <g id="patch_7">
    <path clip-path="url(#p2a40daa722)" d="M 154.19469 141.317641 
Q 151.578646 141.854142 148.749851 142.125511 
Q 145.921056 142.4 142.840113 142.4 
Q 133.652439 142.4 128.286397 140.366288 
Q 122.920354 138.332576 122.920354 134.854679 
Q 122.920354 131.364305 128.286397 129.333712 
Q 133.652439 127.3 142.840113 127.3 
Q 145.921056 127.3 148.749851 127.574489 
Q 151.578646 127.845858 154.19469 128.382359 
L 154.19469 131.392378 
Q 151.555007 130.681202 148.99412 130.350568 
Q 146.433234 130.019934 143.604439 130.019934 
Q 138.529943 130.019934 135.622352 131.308159 
Q 132.72264 132.593266 132.72264 134.854679 
Q 132.72264 137.106734 135.622352 138.39496 
Q 138.529943 139.680066 143.604439 139.680066 
Q 146.433234 139.680066 148.99412 139.349432 
Q 151.555007 139.015679 154.19469 138.304503 
z
" style="fill:#0000ff;"/>
   </g>
   <g id="patch_8">
    <path clip-path="url(#p2a40daa722)" d="M 154.19469 123.201384 
Q 151.040622 125.250692 147.648247 126.280025 
Q 144.255872 127.3 140.639207 127.3 
Q 132.466666 127.3 127.69351 121.198864 
Q 122.920354 115.097728 122.920354 104.664036 
Q 122.920354 94.108697 127.777619 88.054348 
Q 132.641892 82 141.101804 82 
Q 144.361007 82 147.346858 82.823466 
Q 150.339718 83.637575 152.989135 85.247077 
L 152.989135 94.277133 
Q 150.25561 92.20911 147.55012 91.189134 
Q 144.844631 90.159802 142.125123 90.159802 
Q 137.092633 90.159802 134.366116 93.921545 
Q 131.6396 97.673931 131.6396 104.664036 
Q 131.6396 111.588639 134.26799 115.369097 
Q 136.89638 119.140198 141.732617 119.140198 
Q 143.050317 119.140198 144.178772 118.924974 
Q 145.307228 118.700392 146.204385 118.232514 
L 146.204385 109.754555 
L 141.05274 109.754555 
L 141.05274 102.202995 
L 154.19469 102.202995 
z
" style="fill:#ffa600;"/>
   </g>
   <g id="patch_9">
    <path clip-path="url(#p2a40daa722)" d="M 122.920354 21.6 
L 154.19469 21.6 
L 154.19469 33.379683 
L 142.943202 33.379683 
L 142.943202 82 
L 134.193661 82 
L 134.193661 33.379683 
L 122.920354 33.379683 
z
" style="fill:#ff0000;"/>
   </g>
   <g id="patch_10">
    <path clip-path="url(#p2a40daa722)" d="M 187.115044 154.252923 
Q 184.499 155.862425 181.670205 156.676534 
Q 178.84141 157.5 175.760467 157.5 
Q 166.572793 157.5 161.206751 151.398864 
Q 155.840708 145.297728 155.840708 134.864036 
Q 155.840708 124.392915 161.206751 118.301136 
Q 166.572793 112.2 175.760467 112.2 
Q 178.84141 112.2 181.670205 113.023466 
Q 184.499 113.837575 187.115044 115.447077 
L 187.115044 124.477133 
Q 184.475361 122.343607 181.914474 121.351704 
Q 179.353588 120.359802 176.524793 120.359802 
Q 171.450297 120.359802 168.542706 124.224478 
Q 165.642994 128.079798 165.642994 134.864036 
Q 165.642994 141.620202 168.542706 145.484879 
Q 171.450297 149.340198 176.524793 149.340198 
Q 179.353588 149.340198 181.914474 148.348296 
Q 184.475361 147.347036 187.115044 145.21351 
z
" style="fill:#0000ff;"/>
   </g>
   <g id="patch_11">
    <path clip-path="url(#p2a40daa722)" d="M 187.115044 108.101384 
Q 183.960976 110.150692 180.568601 111.180025 
Q 177.176226 112.2 173.559561 112.2 
Q 165.38702 112.2 160.613864 106.098864 
Q 155.840708 99.997728 155.840708 89.564036 
Q 155.840708 79.008697 160.697973 72.954348 
Q 165.562246 66.9 174.022158 66.9 
Q 177.281361 66.9 180.267212 67.723466 
Q 183.260072 68.537575 185.909489 70.147077 
L 185.909489 79.177133 
Q 183.175964 77.10911 180.470474 76.089134 
Q 177.764985 75.059802 175.045477 75.059802 
Q 170.012987 75.059802 167.28647 78.821545 
Q 164.559954 82.573931 164.559954 89.564036 
Q 164.559954 96.488639 167.188344 100.269097 
Q 169.816734 104.040198 174.652971 104.040198 
Q 175.970671 104.040198 177.099126 103.824974 
Q 178.227582 103.600392 179.124739 103.132514 
L 179.124739 94.654555 
L 173.973094 94.654555 
L 173.973094 87.102995 
L 187.115044 87.102995 
z
" style="fill:#ffa600;"/>
   </g>
   <g id="patch_12">
    <path clip-path="url(#p2a40daa722)" d="M 155.840708 21.6 
L 187.115044 21.6 
L 187.115044 30.434762 
L 175.863556 30.434762 
L 175.863556 66.9 
L 167.114015 66.9 
L 167.114015 30.434762 
L 155.840708 30.434762 
z
" style="fill:#ff0000;"/>
   </g>
   <g id="patch_13">
    <path clip-path="url(#p2a40daa722)" d="M 220.035398 156.133795 
Q 216.88133 156.816897 213.488955 157.160008 
Q 210.09658 157.5 206.479915 157.5 
Q 198.307374 157.5 193.534218 155.466288 
Q 188.761062 153.432576 188.761062 149.954679 
Q 188.761062 146.436232 193.618327 144.418116 
Q 198.4826 142.4 206.942512 142.4 
Q 210.201715 142.4 213.187566 142.674489 
Q 216.180426 142.945858 218.829843 143.482359 
L 218.829843 146.492378 
Q 216.096318 145.803037 213.390828 145.463045 
Q 210.685339 145.119934 207.965831 145.119934 
Q 202.933341 145.119934 200.206824 146.373848 
Q 197.480308 147.624644 197.480308 149.954679 
Q 197.480308 152.26288 200.108698 153.523032 
Q 202.737088 154.780066 207.573325 154.780066 
Q 208.891025 154.780066 210.01948 154.708325 
Q 211.147936 154.633464 212.045093 154.477505 
L 212.045093 151.651518 
L 206.893448 151.651518 
L 206.893448 149.134332 
L 220.035398 149.134332 
z
" style="fill:#ffa600;"/>
   </g>
   <g id="patch_14">
    <path clip-path="url(#p2a40daa722)" d="M 188.761062 112.2 
L 220.035398 112.2 
L 220.035398 118.089841 
L 208.78391 118.089841 
L 208.78391 142.4 
L 200.034369 142.4 
L 200.034369 118.089841 
L 188.761062 118.089841 
z
" style="fill:#ff0000;"/>
   </g>
   <g id="patch_15">
    <path clip-path="url(#p2a40daa722)" d="M 210.424822 103.94775 
L 198.397215 103.94775 
L 196.498119 112.2 
L 188.761062 112.2 
L 199.810347 66.9 
L 208.986113 66.9 
L 220.035398 112.2 
L 212.304735 112.2 
z
M 200.315494 95.540163 
L 208.487361 95.540163 
L 204.407821 77.521132 
z
" style="fill:#008000;"/>
   </g>
   <g id="patch_16">
    <path clip-path="url(#p2a40daa722)" d="M 220.035398 63.652923 
Q 217.419354 65.262425 214.590559 66.076534 
Q 211.761764 66.9 208.680821 66.9 
Q 199.493147 66.9 194.127105 60.798864 
Q 188.761062 54.697728 188.761062 44.264036 
Q 188.761062 33.792915 194.127105 27.701136 
Q 199.493147 21.6 208.680821 21.6 
Q 211.761764 21.6 214.590559 22.423466 
Q 217.419354 23.237575 220.035398 24.847077 
L 220.035398 33.877133 
Q 217.395715 31.743607 214.834828 30.751704 
Q 212.273942 29.759802 209.445147 29.759802 
Q 204.370651 29.759802 201.46306 33.624478 
Q 198.563348 37.479798 198.563348 44.264036 
Q 198.563348 51.020202 201.46306 54.884879 
Q 204.370651 58.740198 209.445147 58.740198 
Q 212.273942 58.740198 214.834828 57.748296 
Q 217.395715 56.747036 220.035398 54.61351 
z
" style="fill:#0000ff;"/>
   </g>
   <g id="patch_17">
    <path clip-path="url(#p2a40daa722)" d="M 252.955752 154.767589 
Q 249.801684 156.133795 246.409309 156.820017 
Q 243.016934 157.5 239.400269 157.5 
Q 231.227728 157.5 226.454572 153.432576 
Q 221.681416 149.365152 221.681416 142.409358 
Q 221.681416 135.372464 226.538681 131.336232 
Q 231.402954 127.3 239.862866 127.3 
Q 243.122069 127.3 246.10792 127.848977 
Q 249.10078 128.391717 251.750197 129.464718 
L 251.750197 135.484755 
Q 249.016672 134.106073 246.311182 133.42609 
Q 243.605693 132.739868 240.886185 132.739868 
Q 235.853695 132.739868 233.127178 135.247697 
Q 230.400662 137.749287 230.400662 142.409358 
Q 230.400662 147.025759 233.029052 149.546065 
Q 235.657442 152.060132 240.493679 152.060132 
Q 241.811379 152.060132 242.939834 151.916649 
Q 244.06829 151.766928 244.965447 151.455009 
L 244.965447 145.803037 
L 239.813802 145.803037 
L 239.813802 140.768663 
L 252.955752 140.768663 
z
" style="fill:#ffa600;"/>
   </g>
   <g id="patch_18">
    <path clip-path="url(#p2a40daa722)" d="M 221.681416 97.1 
L 252.955752 97.1 
L 252.955752 102.989841 
L 241.704264 102.989841 
L 241.704264 127.3 
L 232.954723 127.3 
L 232.954723 102.989841 
L 221.681416 102.989841 
z
" style="fill:#ff0000;"/>
   </g>
   <g id="patch_19">
    <path clip-path="url(#p2a40daa722)" d="M 243.345176 83.346249 
L 231.317569 83.346249 
L 229.418473 97.1 
L 221.681416 97.1 
L 232.730701 21.6 
L 241.906467 21.6 
L 252.955752 97.1 
L 245.225089 97.1 
z
M 233.235848 69.333605 
L 241.407715 69.333605 
L 237.328175 39.301886 
z
" style="fill:#008000;"/>
   </g>
   <g id="patch_20">
    <path clip-path="url(#p2a40daa722)" d="M 285.876106 154.767589 
Q 282.722038 156.133795 279.329663 156.820017 
Q 275.937288 157.5 272.320623 157.5 
Q 264.148082 157.5 259.374926 153.432576 
Q 254.60177 149.365152 254.60177 142.409358 
Q 254.60177 135.372464 259.459035 131.336232 
Q 264.323308 127.3 272.78322 127.3 
Q 276.042423 127.3 279.028274 127.848977 
Q 282.021134 128.391717 284.670551 129.464718 
L 284.670551 135.484755 
Q 281.937026 134.106073 279.231536 133.42609 
Q 276.526047 132.739868 273.806539 132.739868 
Q 268.774049 132.739868 266.047532 135.247697 
Q 263.321016 137.749287 263.321016 142.409358 
Q 263.321016 147.025759 265.949406 149.546065 
Q 268.577796 152.060132 273.414033 152.060132 
Q 274.731733 152.060132 275.860188 151.916649 
Q 276.988644 151.766928 277.885801 151.455009 
L 277.885801 145.803037 
L 272.734156 145.803037 
L 272.734156 140.768663 
L 285.876106 140.768663 
z
" style="fill:#ffa600;"/>
   </g>
   <g id="patch_21">
    <path clip-path="url(#p2a40daa722)" d="M 276.26553 108.044749 
L 264.237923 108.044749 
L 262.338827 127.3 
L 254.60177 127.3 
L 265.651055 21.6 
L 274.826821 21.6 
L 285.876106 127.3 
L 278.145443 127.3 
z
M 266.156202 88.427047 
L 274.328069 88.427047 
L 270.248529 46.38264 
z
" style="fill:#008000;"/>
   </g>
   <g id="patch_22">
    <path clip-path="url(#p2a40daa722)" d="M 309.185884 154.74925 
L 297.158277 154.74925 
L 295.259181 157.5 
L 287.522124 157.5 
L 298.571409 142.4 
L 307.747175 142.4 
L 318.79646 157.5 
L 311.065797 157.5 
z
M 299.076556 151.946721 
L 307.248423 151.946721 
L 303.168883 145.940377 
z
" style="fill:#008000;"/>
   </g>
   <g id="patch_23">
    <path clip-path="url(#p2a40daa722)" d="M 318.79646 141.317641 
Q 316.180416 141.854142 313.351621 142.125511 
Q 310.522826 142.4 307.441883 142.4 
Q 298.254209 142.4 292.888166 140.366288 
Q 287.522124 138.332576 287.522124 134.854679 
Q 287.522124 131.364305 292.888166 129.333712 
Q 298.254209 127.3 307.441883 127.3 
Q 310.522826 127.3 313.351621 127.574489 
Q 316.180416 127.845858 318.79646 128.382359 
L 318.79646 131.392378 
Q 316.156777 130.681202 313.59589 130.350568 
Q 311.035004 130.019934 308.206209 130.019934 
Q 303.131713 130.019934 300.224122 131.308159 
Q 297.32441 132.593266 297.32441 134.854679 
Q 297.32441 137.106734 300.224122 138.39496 
Q 303.131713 139.680066 308.206209 139.680066 
Q 311.035004 139.680066 313.59589 139.349432 
Q 316.156777 139.015679 318.79646 138.304503 
z
" style="fill:#0000ff;"/>
   </g>
   <g id="patch_24">
    <path clip-path="url(#p2a40daa722)" d="M 287.522124 21.6 
L 318.79646 21.6 
L 318.79646 42.214445 
L 307.544972 42.214445 
L 307.544972 127.3 
L 298.795431 127.3 
L 298.795431 42.214445 
L 287.522124 42.214445 
z
" style="fill:#ff0000;"/>
   </g>
   <g id="patch_25">
    <path clip-path="url(#p2a40daa722)" d="M 342.106238 154.74925 
L 330.078631 154.74925 
L 328.179535 157.5 
L 320.442478 157.5 
L 331.491763 142.4 
L 340.667529 142.4 
L 351.716814 157.5 
L 343.986151 157.5 
z
M 331.99691 151.946721 
L 340.168777 151.946721 
L 336.089237 145.940377 
z
" style="fill:#008000;"/>
   </g>
   <g id="patch_26">
    <path clip-path="url(#p2a40daa722)" d="M 320.442478 127.3 
L 351.716814 127.3 
L 351.716814 130.244921 
L 340.465326 130.244921 
L 340.465326 142.4 
L 331.715785 142.4 
L 331.715785 130.244921 
L 320.442478 130.244921 
z
" style="fill:#ff0000;"/>
   </g>
   <g id="patch_27">
    <path clip-path="url(#p2a40daa722)" d="M 351.716814 117.736563 
Q 348.562746 122.518281 345.170371 124.920058 
Q 341.777996 127.3 338.161331 127.3 
Q 329.98879 127.3 325.215634 113.064016 
Q 320.442478 98.828031 320.442478 74.482751 
Q 320.442478 49.853625 325.299743 35.726813 
Q 330.164016 21.6 338.623928 21.6 
Q 341.883131 21.6 344.868982 23.521421 
Q 347.861842 25.421008 350.511259 29.176513 
L 350.511259 50.246643 
Q 347.777734 45.421256 345.072244 43.041314 
Q 342.366755 40.639537 339.647247 40.639537 
Q 334.614757 40.639537 331.88824 49.416939 
Q 329.161724 58.172506 329.161724 74.482751 
Q 329.161724 90.640157 331.790114 99.461227 
Q 334.418504 108.260463 339.254741 108.260463 
Q 340.572441 108.260463 341.700896 107.758273 
Q 342.829351 107.234249 343.726509 106.142533 
L 343.726509 86.360628 
L 338.574864 86.360628 
L 338.574864 68.740322 
L 351.716814 68.740322 
z
" style="fill:#ffa600;"/>
   </g>
   <g id="patch_28">
    <path clip-path="url(#p2a40daa722)" d="M 384.637168 156.133795 
Q 381.4831 156.816897 378.090725 157.160008 
Q 374.698349 157.5 371.081685 157.5 
Q 362.909144 157.5 358.135988 155.466288 
Q 353.362832 153.432576 353.362832 149.954679 
Q 353.362832 146.436232 358.220097 144.418116 
Q 363.08437 142.4 371.544282 142.4 
Q 374.803485 142.4 377.789336 142.674489 
Q 380.782196 142.945858 383.431613 143.482359 
L 383.431613 146.492378 
Q 380.698088 145.803037 377.992598 145.463045 
Q 375.287109 145.119934 372.567601 145.119934 
Q 367.535111 145.119934 364.808594 146.373848 
Q 362.082078 147.624644 362.082078 149.954679 
Q 362.082078 152.26288 364.710468 153.523032 
Q 367.338858 154.780066 372.175095 154.780066 
Q 373.492795 154.780066 374.62125 154.708325 
Q 375.749705 154.633464 376.646863 154.477505 
L 376.646863 151.651518 
L 371.495218 151.651518 
L 371.495218 149.134332 
L 384.637168 149.134332 
z
" style="fill:#ffa600;"/>
   </g>
   <g id="patch_29">
    <path clip-path="url(#p2a40daa722)" d="M 375.026592 120.393999 
L 362.998985 120.393999 
L 361.099889 142.4 
L 353.362832 142.4 
L 364.412117 21.6 
L 373.587883 21.6 
L 384.637168 142.4 
L 376.906505 142.4 
z
M 364.917264 97.973768 
L 373.089131 97.973768 
L 369.009591 49.923018 
z
" style="fill:#008000;"/>
   </g>
   <g id="patch_30">
    <path clip-path="url(#p2a40daa722)" d="M 407.946946 154.74925 
L 395.919339 154.74925 
L 394.020243 157.5 
L 386.283186 157.5 
L 397.332471 142.4 
L 406.508237 142.4 
L 417.557522 157.5 
L 409.826859 157.5 
z
M 397.837618 151.946721 
L 406.009485 151.946721 
L 401.929945 145.940377 
z
" style="fill:#008000;"/>
   </g>
   <g id="patch_31">
    <path clip-path="url(#p2a40daa722)" d="M 386.283186 21.6 
L 417.557522 21.6 
L 417.557522 45.159366 
L 406.306034 45.159366 
L 406.306034 142.4 
L 397.556493 142.4 
L 397.556493 45.159366 
L 386.283186 45.159366 
z
" style="fill:#ff0000;"/>
   </g>
   <g id="patch_32">
    <path clip-path="url(#p2a40daa722)" d="M 419.20354 142.4 
L 450.477876 142.4 
L 450.477876 145.344921 
L 439.226388 145.344921 
L 439.226388 157.5 
L 430.476847 157.5 
L 430.476847 145.344921 
L 419.20354 145.344921 
z
" style="fill:#ff0000;"/>
   </g>
   <g id="patch_33">
    <path clip-path="url(#p2a40daa722)" d="M 450.477876 131.470357 
Q 447.323808 136.935179 443.931433 139.680066 
Q 440.539057 142.4 436.922393 142.4 
Q 428.749852 142.4 423.976696 126.130304 
Q 419.20354 109.860607 419.20354 82.03743 
Q 419.20354 53.889857 424.060805 37.744929 
Q 428.925078 21.6 437.384989 21.6 
Q 440.644193 21.6 443.630044 23.79591 
Q 446.622904 25.966866 449.272321 30.258872 
L 449.272321 54.339021 
Q 446.538796 48.824293 443.833306 46.104359 
Q 441.127817 43.359471 438.408309 43.359471 
Q 433.375819 43.359471 430.649302 53.390787 
Q 427.922786 63.397149 427.922786 82.03743 
Q 427.922786 100.503037 430.551176 110.584259 
Q 433.179565 120.640529 438.015803 120.640529 
Q 439.333503 120.640529 440.461958 120.066598 
Q 441.590413 119.467713 442.487571 118.220037 
L 442.487571 95.612146 
L 437.335926 95.612146 
L 437.335926 75.474654 
L 450.477876 75.474654 
z
" style="fill:#ffa600;"/>
   </g>
   <g id="patch_34">
    <path clip-path="url(#p2a40daa722)" d="M 473.787654 154.74925 
L 461.760047 154.74925 
L 459.860951 157.5 
L 452.123894 157.5 
L 463.173179 142.4 
L 472.348945 142.4 
L 483.39823 157.5 
L 475.667567 157.5 
z
M 463.678326 151.946721 
L 471.850193 151.946721 
L 467.770653 145.940377 
z
" style="fill:#008000;"/>
   </g>
   <g id="patch_35">
    <path clip-path="url(#p2a40daa722)" d="M 483.39823 140.235282 
Q 480.782186 141.308283 477.953391 141.851023 
Q 475.124596 142.4 472.043652 142.4 
Q 462.855979 142.4 457.489936 138.332576 
Q 452.123894 134.265152 452.123894 127.309358 
Q 452.123894 120.32861 457.489936 116.267424 
Q 462.855979 112.2 472.043652 112.2 
Q 475.124596 112.2 477.953391 112.748977 
Q 480.782186 113.291717 483.39823 114.364718 
L 483.39823 120.384755 
Q 480.758547 118.962404 478.19766 118.301136 
Q 475.636773 117.639868 472.807979 117.639868 
Q 467.733483 117.639868 464.825892 120.216319 
Q 461.92618 122.786532 461.92618 127.309358 
Q 461.92618 131.813468 464.825892 134.389919 
Q 467.733483 136.960132 472.807979 136.960132 
Q 475.636773 136.960132 478.19766 136.298864 
Q 480.758547 135.631357 483.39823 134.209006 
z
" style="fill:#0000ff;"/>
   </g>
   <g id="patch_36">
    <path clip-path="url(#p2a40daa722)" d="M 483.39823 104.002768 
Q 480.244162 108.101384 476.851787 110.16005 
Q 473.459411 112.2 469.842747 112.2 
Q 461.670206 112.2 456.89705 99.997728 
Q 452.123894 87.795455 452.123894 66.928073 
Q 452.123894 45.817393 456.981158 33.708697 
Q 461.845432 21.6 470.305343 21.6 
Q 473.564547 21.6 476.550398 23.246932 
Q 479.543258 24.87515 482.192675 28.094154 
L 482.192675 46.154266 
Q 479.45915 42.018219 476.75366 39.978269 
Q 474.048171 37.919603 471.328663 37.919603 
Q 466.296173 37.919603 463.569656 45.44309 
Q 460.84314 52.947862 460.84314 66.928073 
Q 460.84314 80.777277 463.471529 88.338195 
Q 466.099919 95.880397 470.936157 95.880397 
Q 472.253857 95.880397 473.382312 95.449948 
Q 474.510767 95.000785 475.407925 94.065028 
L 475.407925 77.10911 
L 470.25628 77.10911 
L 470.25628 62.00599 
L 483.39823 62.00599 
z
" style="fill:#ffa600;"/>
   </g>
   <g id="patch_37">
    <path clip-path="url(#p2a40daa722)" d="M 516.318584 152.035179 
Q 513.164516 154.767589 509.772141 156.140033 
Q 506.379765 157.5 502.763101 157.5 
Q 494.59056 157.5 489.817404 149.365152 
Q 485.044248 141.230304 485.044248 127.318715 
Q 485.044248 113.244929 489.901512 105.172464 
Q 494.765786 97.1 503.225697 97.1 
Q 506.484901 97.1 509.470752 98.197955 
Q 512.463612 99.283433 515.113029 101.429436 
L 515.113029 113.46951 
Q 512.379504 110.712146 509.674014 109.352179 
Q 506.968525 107.979736 504.249017 107.979736 
Q 499.216527 107.979736 496.49001 112.995394 
Q 493.763493 117.998575 493.763493 127.318715 
Q 493.763493 136.551518 496.391883 141.59213 
Q 499.020273 146.620264 503.856511 146.620264 
Q 505.174211 146.620264 506.302666 146.333299 
Q 507.431121 146.033857 508.328279 145.410019 
L 508.328279 134.106073 
L 503.176634 134.106073 
L 503.176634 124.037327 
L 516.318584 124.037327 
z
" style="fill:#ffa600;"/>
   </g>
   <g id="patch_38">
    <path clip-path="url(#p2a40daa722)" d="M 516.318584 91.688205 
Q 513.70254 94.370709 510.873745 95.727556 
Q 508.04495 97.1 504.964006 97.1 
Q 495.776333 97.1 490.41029 86.93144 
Q 485.044248 76.76288 485.044248 59.373394 
Q 485.044248 41.921524 490.41029 31.76856 
Q 495.776333 21.6 504.964006 21.6 
Q 508.04495 21.6 510.873745 22.972444 
Q 513.70254 24.329291 516.318584 27.011795 
L 516.318584 42.061888 
Q 513.678901 38.506011 511.118014 36.85284 
Q 508.557127 35.199669 505.728333 35.199669 
Q 500.653837 35.199669 497.746246 41.640797 
Q 494.846534 48.066329 494.846534 59.373394 
Q 494.846534 70.633671 497.746246 77.074799 
Q 500.653837 83.500331 505.728333 83.500331 
Q 508.557127 83.500331 511.118014 81.84716 
Q 513.678901 80.178393 516.318584 76.622516 
z
" style="fill:#0000ff;"/>
   </g>
   <g id="patch_39">
    <path clip-path="url(#p2a40daa722)" d="M 549.238938 153.170564 
Q 546.622894 155.316567 543.794099 156.402045 
Q 540.965304 157.5 537.88436 157.5 
Q 528.696687 157.5 523.330644 149.365152 
Q 517.964602 141.230304 517.964602 127.318715 
Q 517.964602 113.35722 523.330644 105.234848 
Q 528.696687 97.1 537.88436 97.1 
Q 540.965304 97.1 543.794099 98.197955 
Q 546.622894 99.283433 549.238938 101.429436 
L 549.238938 113.46951 
Q 546.599255 110.624809 544.038368 109.302272 
Q 541.477481 107.979736 538.648687 107.979736 
Q 533.574191 107.979736 530.6666 113.132638 
Q 527.766888 118.273063 527.766888 127.318715 
Q 527.766888 136.326937 530.6666 141.479839 
Q 533.574191 146.620264 538.648687 146.620264 
Q 541.477481 146.620264 544.038368 145.297728 
Q 546.599255 143.962714 549.238938 141.118013 
z
" style="fill:#0000ff;"/>
   </g>
   <g id="patch_40">
    <path clip-path="url(#p2a40daa722)" d="M 549.238938 90.268973 
Q 546.08487 93.684487 542.692495 95.400041 
Q 539.300119 97.1 535.683455 97.1 
Q 527.510914 97.1 522.737758 86.93144 
Q 517.964602 76.76288 517.964602 59.373394 
Q 517.964602 41.781161 522.821866 31.69058 
Q 527.68614 21.6 536.146051 21.6 
Q 539.405255 21.6 542.391106 22.972444 
Q 545.383966 24.329291 548.033383 27.011795 
L 548.033383 42.061888 
Q 545.299858 38.615183 542.594368 36.915224 
Q 539.888879 35.199669 537.169371 35.199669 
Q 532.136881 35.199669 529.410364 41.469242 
Q 526.683847 47.723218 526.683847 59.373394 
Q 526.683847 70.914398 529.312237 77.215162 
Q 531.940627 83.500331 536.776865 83.500331 
Q 538.094565 83.500331 539.22302 83.141624 
Q 540.351475 82.767321 541.248633 81.987523 
L 541.248633 67.857591 
L 536.096988 67.857591 
L 536.096988 55.271659 
L 549.238938 55.271659 
z
" style="fill:#ffa600;"/>
   </g>
   <g id="patch_41">
    <path clip-path="url(#p2a40daa722)" d="M 572.548716 154.74925 
L 560.521109 154.74925 
L 558.622013 157.5 
L 550.884956 157.5 
L 561.934241 142.4 
L 571.110007 142.4 
L 582.159292 157.5 
L 574.428629 157.5 
z
M 562.439387 151.946721 
L 570.611255 151.946721 
L 566.531715 145.940377 
z
" style="fill:#008000;"/>
   </g>
   <g id="patch_42">
    <path clip-path="url(#p2a40daa722)" d="M 582.159292 138.070564 
Q 579.543248 140.216567 576.714453 141.302045 
Q 573.885658 142.4 570.804714 142.4 
Q 561.617041 142.4 556.250998 134.265152 
Q 550.884956 126.130304 550.884956 112.218715 
Q 550.884956 98.25722 556.250998 90.134848 
Q 561.617041 82 570.804714 82 
Q 573.885658 82 576.714453 83.097955 
Q 579.543248 84.183433 582.159292 86.329436 
L 582.159292 98.36951 
Q 579.519609 95.524809 576.958722 94.202272 
Q 574.397835 92.879736 571.569041 92.879736 
Q 566.494545 92.879736 563.586954 98.032638 
Q 560.687242 103.173063 560.687242 112.218715 
Q 560.687242 121.226937 563.586954 126.379839 
Q 566.494545 131.520264 571.569041 131.520264 
Q 574.397835 131.520264 576.958722 130.197728 
Q 579.519609 128.862714 582.159292 126.018013 
z
" style="fill:#0000ff;"/>
   </g>
   <g id="patch_43">
    <path clip-path="url(#p2a40daa722)" d="M 582.159292 76.535179 
Q 579.005224 79.267589 575.612849 80.640033 
Q 572.220473 82 568.603809 82 
Q 560.431268 82 555.658112 73.865152 
Q 550.884956 65.730304 550.884956 51.818715 
Q 550.884956 37.744929 555.74222 29.672464 
Q 560.606494 21.6 569.066405 21.6 
Q 572.325609 21.6 575.31146 22.697955 
Q 578.30432 23.783433 580.953737 25.929436 
L 580.953737 37.96951 
Q 578.220212 35.212146 575.514722 33.852179 
Q 572.809233 32.479736 570.089725 32.479736 
Q 565.057235 32.479736 562.330718 37.495394 
Q 559.604201 42.498575 559.604201 51.818715 
Q 559.604201 61.051518 562.232591 66.09213 
Q 564.860981 71.120264 569.697219 71.120264 
Q 571.014919 71.120264 572.143374 70.833299 
Q 573.271829 70.533857 574.168986 69.910019 
L 574.168986 58.606073 
L 569.017342 58.606073 
L 569.017342 48.537327 
L 582.159292 48.537327 
z
" style="fill:#ffa600;"/>
   </g>
   <g id="patch_44">
    <path clip-path="url(#p2a40daa722)" d="M 583.80531 142.4 
L 615.079646 142.4 
L 615.079646 145.344921 
L 603.828158 145.344921 
L 603.828158 157.5 
L 595.078617 157.5 
L 595.078617 145.344921 
L 583.80531 145.344921 
z
" style="fill:#ff0000;"/>
   </g>
   <g id="patch_45">
    <path clip-path="url(#p2a40daa722)" d="M 615.079646 138.070564 
Q 612.463602 140.216567 609.634807 141.302045 
Q 606.806012 142.4 603.725068 142.4 
Q 594.537395 142.4 589.171352 134.265152 
Q 583.80531 126.130304 583.80531 112.218715 
Q 583.80531 98.25722 589.171352 90.134848 
Q 594.537395 82 603.725068 82 
Q 606.806012 82 609.634807 83.097955 
Q 612.463602 84.183433 615.079646 86.329436 
L 615.079646 98.36951 
Q 612.439963 95.524809 609.879076 94.202272 
Q 607.318189 92.879736 604.489395 92.879736 
Q 599.414899 92.879736 596.507308 98.032638 
Q 593.607596 103.173063 593.607596 112.218715 
Q 593.607596 121.226937 596.507308 126.379839 
Q 599.414899 131.520264 604.489395 131.520264 
Q 607.318189 131.520264 609.879076 130.197728 
Q 612.439963 128.862714 615.079646 126.018013 
z
" style="fill:#0000ff;"/>
   </g>
   <g id="patch_46">
    <path clip-path="url(#p2a40daa722)" d="M 615.079646 76.535179 
Q 611.925578 79.267589 608.533203 80.640033 
Q 605.140827 82 601.524163 82 
Q 593.351622 82 588.578466 73.865152 
Q 583.80531 65.730304 583.80531 51.818715 
Q 583.80531 37.744929 588.662574 29.672464 
Q 593.526848 21.6 601.986759 21.6 
Q 605.245963 21.6 608.231814 22.697955 
Q 611.224674 23.783433 613.874091 25.929436 
L 613.874091 37.96951 
Q 611.140566 35.212146 608.435076 33.852179 
Q 605.729587 32.479736 603.010079 32.479736 
Q 597.977589 32.479736 595.251072 37.495394 
Q 592.524555 42.498575 592.524555 51.818715 
Q 592.524555 61.051518 595.152945 66.09213 
Q 597.781335 71.120264 602.617573 71.120264 
Q 603.935272 71.120264 605.063728 70.833299 
Q 606.192183 70.533857 607.08934 69.910019 
L 607.08934 58.606073 
L 601.937696 58.606073 
L 601.937696 48.537327 
L 615.079646 48.537327 
z
" style="fill:#ffa600;"/>
   </g>
   <g id="patch_47">
    <path clip-path="url(#p2a40daa722)" d="M 616.725664 142.4 
L 648 142.4 
L 648 145.344921 
L 636.748512 145.344921 
L 636.748512 157.5 
L 627.998971 157.5 
L 627.998971 145.344921 
L 616.725664 145.344921 
z
" style="fill:#ff0000;"/>
   </g>
   <g id="patch_48">
    <path clip-path="url(#p2a40daa722)" d="M 638.389424 136.8985 
L 626.361817 136.8985 
L 624.462721 142.4 
L 616.725664 142.4 
L 627.774949 112.2 
L 636.950715 112.2 
L 648 142.4 
L 640.269337 142.4 
z
M 628.280095 131.293442 
L 636.451963 131.293442 
L 632.372423 119.280754 
z
" style="fill:#008000;"/>
   </g>
   <g id="patch_49">
    <path clip-path="url(#p2a40daa722)" d="M 648 110.035282 
Q 645.383956 111.108283 642.555161 111.651023 
Q 639.726366 112.2 636.645422 112.2 
Q 627.457749 112.2 622.091706 108.132576 
Q 616.725664 104.065152 616.725664 97.109358 
Q 616.725664 90.12861 622.091706 86.067424 
Q 627.457749 82 636.645422 82 
Q 639.726366 82 642.555161 82.548977 
Q 645.383956 83.091717 648 84.164718 
L 648 90.184755 
Q 645.360317 88.762404 642.79943 88.101136 
Q 640.238543 87.439868 637.409749 87.439868 
Q 632.335253 87.439868 629.427662 90.016319 
Q 626.52795 92.586532 626.52795 97.109358 
Q 626.52795 101.613468 629.427662 104.189919 
Q 632.335253 106.760132 637.409749 106.760132 
Q 640.238543 106.760132 642.79943 106.098864 
Q 645.360317 105.431357 648 104.009006 
z
" style="fill:#0000ff;"/>
   </g>
   <g id="patch_50">
    <path clip-path="url(#p2a40daa722)" d="M 648 76.535179 
Q 644.845932 79.267589 641.453557 80.640033 
Q 638.061181 82 634.444517 82 
Q 626.271976 82 621.49882 73.865152 
Q 616.725664 65.730304 616.725664 51.818715 
Q 616.725664 37.744929 621.582928 29.672464 
Q 626.447202 21.6 634.907113 21.6 
Q 638.166317 21.6 641.152168 22.697955 
Q 644.145028 23.783433 646.794445 25.929436 
L 646.794445 37.96951 
Q 644.06092 35.212146 641.35543 33.852179 
Q 638.649941 32.479736 635.930433 32.479736 
Q 630.897943 32.479736 628.171426 37.495394 
Q 625.444909 42.498575 625.444909 51.818715 
Q 625.444909 61.051518 628.073299 66.09213 
Q 630.701689 71.120264 635.537927 71.120264 
Q 636.855626 71.120264 637.984082 70.833299 
Q 639.112537 70.533857 640.009694 69.910019 
L 640.009694 58.606073 
L 634.85805 58.606073 
L 634.85805 48.537327 
L 648 48.537327 
z
" style="fill:#ffa600;"/>
   </g>
  </g>
 </g>
 <defs>
  <clipPath id="p2a40daa722">
   <rect height="135.9" width="558" x="90" y="21.6"/>
  </clipPath>
 </defs>
</svg>
