<?xml version="1.0" encoding="utf-8" standalone="no"?>
<!DOCTYPE svg PUBLIC "-//W3C//DTD SVG 1.1//EN"
  "http://www.w3.org/Graphics/SVG/1.1/DTD/svg11.dtd">
<!-- Created with matplotlib (https://matplotlib.org/) -->
<svg height="180pt" version="1.1" viewBox="0 0 720 180" width="720pt" xmlns="http://www.w3.org/2000/svg" xmlns:xlink="http://www.w3.org/1999/xlink">
 <metadata>
  <rdf:RDF xmlns:cc="http://creativecommons.org/ns#" xmlns:dc="http://purl.org/dc/elements/1.1/" xmlns:rdf="http://www.w3.org/1999/02/22-rdf-syntax-ns#">
   <cc:Work>
    <dc:type rdf:resource="http://purl.org/dc/dcmitype/StillImage"/>
    <dc:date>2021-08-04T23:33:40.818125</dc:date>
    <dc:format>image/svg+xml</dc:format>
    <dc:creator>
     <cc:Agent>
      <dc:title>Matplotlib v3.3.2, https://matplotlib.org/</dc:title>
     </cc:Agent>
    </dc:creator>
   </cc:Work>
  </rdf:RDF>
 </metadata>
 <defs>
  <style type="text/css">*{stroke-linecap:butt;stroke-linejoin:round;}</style>
 </defs>
 <g id="figure_1">
  <g id="patch_1">
   <path d="M 0 180 
L 720 180 
L 720 0 
L 0 0 
z
" style="fill:none;"/>
  </g>
  <g id="axes_1">
   <g id="line2d_1">
    <path clip-path="url(#p767126e219)" d="M 90 157.5 
L 648 157.5 
" style="fill:none;stroke:#000000;stroke-linecap:square;stroke-width:0.5;"/>
   </g>
   <g id="patch_2">
    <path clip-path="url(#p767126e219)" d="M 121.274336 156.133795 
Q 118.120268 156.816897 114.727893 157.160008 
Q 111.335518 157.5 107.718853 157.5 
Q 99.546312 157.5 94.773156 155.466288 
Q 90 153.432576 90 149.954679 
Q 90 146.436232 94.857265 144.418116 
Q 99.721538 142.4 108.18145 142.4 
Q 111.440653 142.4 114.426504 142.674489 
Q 117.419364 142.945858 120.068781 143.482359 
L 120.068781 146.492378 
Q 117.335256 145.803037 114.629766 145.463045 
Q 111.924277 145.119934 109.204769 145.119934 
Q 104.172279 145.119934 101.445762 146.373848 
Q 98.719246 147.624644 98.719246 149.954679 
Q 98.719246 152.26288 101.347636 153.523032 
Q 103.976026 154.780066 108.812263 154.780066 
Q 110.129963 154.780066 111.258418 154.708325 
Q 112.386874 154.633464 113.284031 154.477505 
L 113.284031 151.651518 
L 108.132386 151.651518 
L 108.132386 149.134332 
L 121.274336 149.134332 
z
" style="fill:#ffa600;"/>
   </g>
   <g id="patch_3">
    <path clip-path="url(#p767126e219)" d="M 90 112.2 
L 121.274336 112.2 
L 121.274336 118.089841 
L 110.022848 118.089841 
L 110.022848 142.4 
L 101.273307 142.4 
L 101.273307 118.089841 
L 90 118.089841 
z
" style="fill:#ff0000;"/>
   </g>
   <g id="patch_4">
    <path clip-path="url(#p767126e219)" d="M 111.66376 95.695499 
L 99.636153 95.695499 
L 97.737057 112.2 
L 90 112.2 
L 101.049285 21.6 
L 110.225051 21.6 
L 121.274336 112.2 
L 113.543673 112.2 
z
M 101.554432 78.880326 
L 109.726299 78.880326 
L 105.64676 42.842263 
z
" style="fill:#008000;"/>
   </g>
   <g id="patch_5">
    <path clip-path="url(#p767126e219)" d="M 122.920354 142.4 
L 154.19469 142.4 
L 154.19469 145.344921 
L 142.943202 145.344921 
L 142.943202 157.5 
L 134.193661 157.5 
L 134.193661 145.344921 
L 122.920354 145.344921 
z
" style="fill:#ff0000;"/>
   </g>
   <g id="patch_6">
    <path clip-path="url(#p767126e219)" d="M 144.584114 136.8985 
L 132.556507 136.8985 
L 130.657411 142.4 
L 122.920354 142.4 
L 133.969639 112.2 
L 143.145405 112.2 
L 154.19469 142.4 
L 146.464027 142.4 
z
M 134.474786 131.293442 
L 142.646653 131.293442 
L 138.567114 119.280754 
z
" style="fill:#008000;"/>
   </g>
   <g id="patch_7">
    <path clip-path="url(#p767126e219)" d="M 154.19469 110.035282 
Q 151.578646 111.108283 148.749851 111.651023 
Q 145.921056 112.2 142.840113 112.2 
Q 133.652439 112.2 128.286397 108.132576 
Q 122.920354 104.065152 122.920354 97.109358 
Q 122.920354 90.12861 128.286397 86.067424 
Q 133.652439 82 142.840113 82 
Q 145.921056 82 148.749851 82.548977 
Q 151.578646 83.091717 154.19469 84.164718 
L 154.19469 90.184755 
Q 151.555007 88.762404 148.99412 88.101136 
Q 146.433234 87.439868 143.604439 87.439868 
Q 138.529943 87.439868 135.622352 90.016319 
Q 132.72264 92.586532 132.72264 97.109358 
Q 132.72264 101.613468 135.622352 104.189919 
Q 138.529943 106.760132 143.604439 106.760132 
Q 146.433234 106.760132 148.99412 106.098864 
Q 151.555007 105.431357 154.19469 104.009006 
z
" style="fill:#0000ff;"/>
   </g>
   <g id="patch_8">
    <path clip-path="url(#p767126e219)" d="M 154.19469 76.535179 
Q 151.040622 79.267589 147.648247 80.640033 
Q 144.255872 82 140.639207 82 
Q 132.466666 82 127.69351 73.865152 
Q 122.920354 65.730304 122.920354 51.818715 
Q 122.920354 37.744929 127.777619 29.672464 
Q 132.641892 21.6 141.101804 21.6 
Q 144.361007 21.6 147.346858 22.697955 
Q 150.339718 23.783433 152.989135 25.929436 
L 152.989135 37.96951 
Q 150.25561 35.212146 147.55012 33.852179 
Q 144.844631 32.479736 142.125123 32.479736 
Q 137.092633 32.479736 134.366116 37.495394 
Q 131.6396 42.498575 131.6396 51.818715 
Q 131.6396 61.051518 134.26799 66.09213 
Q 136.89638 71.120264 141.732617 71.120264 
Q 143.050317 71.120264 144.178772 70.833299 
Q 145.307228 70.533857 146.204385 69.910019 
L 146.204385 58.606073 
L 141.05274 58.606073 
L 141.05274 48.537327 
L 154.19469 48.537327 
z
" style="fill:#ffa600;"/>
   </g>
   <g id="patch_9">
    <path clip-path="url(#p767126e219)" d="M 177.504468 151.9985 
L 165.476861 151.9985 
L 163.577765 157.5 
L 155.840708 157.5 
L 166.889993 127.3 
L 176.065759 127.3 
L 187.115044 157.5 
L 179.384381 157.5 
z
M 167.39514 146.393442 
L 175.567007 146.393442 
L 171.487467 134.380754 
z
" style="fill:#008000;"/>
   </g>
   <g id="patch_10">
    <path clip-path="url(#p767126e219)" d="M 155.840708 21.6 
L 187.115044 21.6 
L 187.115044 42.214445 
L 175.863556 42.214445 
L 175.863556 127.3 
L 167.114015 127.3 
L 167.114015 42.214445 
L 155.840708 42.214445 
z
" style="fill:#ff0000;"/>
   </g>
   <g id="patch_11">
    <path clip-path="url(#p767126e219)" d="M 220.035398 156.417641 
Q 217.419354 156.954142 214.590559 157.225511 
Q 211.761764 157.5 208.680821 157.5 
Q 199.493147 157.5 194.127105 155.466288 
Q 188.761062 153.432576 188.761062 149.954679 
Q 188.761062 146.464305 194.127105 144.433712 
Q 199.493147 142.4 208.680821 142.4 
Q 211.761764 142.4 214.590559 142.674489 
Q 217.419354 142.945858 220.035398 143.482359 
L 220.035398 146.492378 
Q 217.395715 145.781202 214.834828 145.450568 
Q 212.273942 145.119934 209.445147 145.119934 
Q 204.370651 145.119934 201.46306 146.408159 
Q 198.563348 147.693266 198.563348 149.954679 
Q 198.563348 152.206734 201.46306 153.49496 
Q 204.370651 154.780066 209.445147 154.780066 
Q 212.273942 154.780066 214.834828 154.449432 
Q 217.395715 154.115679 220.035398 153.404503 
z
" style="fill:#0000ff;"/>
   </g>
   <g id="patch_12">
    <path clip-path="url(#p767126e219)" d="M 220.035398 141.033795 
Q 216.88133 141.716897 213.488955 142.060008 
Q 210.09658 142.4 206.479915 142.4 
Q 198.307374 142.4 193.534218 140.366288 
Q 188.761062 138.332576 188.761062 134.854679 
Q 188.761062 131.336232 193.618327 129.318116 
Q 198.4826 127.3 206.942512 127.3 
Q 210.201715 127.3 213.187566 127.574489 
Q 216.180426 127.845858 218.829843 128.382359 
L 218.829843 131.392378 
Q 216.096318 130.703037 213.390828 130.363045 
Q 210.685339 130.019934 207.965831 130.019934 
Q 202.933341 130.019934 200.206824 131.273848 
Q 197.480308 132.524644 197.480308 134.854679 
Q 197.480308 137.16288 200.108698 138.423032 
Q 202.737088 139.680066 207.573325 139.680066 
Q 208.891025 139.680066 210.01948 139.608325 
Q 211.147936 139.533464 212.045093 139.377505 
L 212.045093 136.551518 
L 206.893448 136.551518 
L 206.893448 134.034332 
L 220.035398 134.034332 
z
" style="fill:#ffa600;"/>
   </g>
   <g id="patch_13">
    <path clip-path="url(#p767126e219)" d="M 210.424822 108.044749 
L 198.397215 108.044749 
L 196.498119 127.3 
L 188.761062 127.3 
L 199.810347 21.6 
L 208.986113 21.6 
L 220.035398 127.3 
L 212.304735 127.3 
z
M 200.315494 88.427047 
L 208.487361 88.427047 
L 204.407821 46.38264 
z
" style="fill:#008000;"/>
   </g>
   <g id="patch_14">
    <path clip-path="url(#p767126e219)" d="M 243.345176 149.24775 
L 231.317569 149.24775 
L 229.418473 157.5 
L 221.681416 157.5 
L 232.730701 112.2 
L 241.906467 112.2 
L 252.955752 157.5 
L 245.225089 157.5 
z
M 233.235848 140.840163 
L 241.407715 140.840163 
L 237.328175 122.821132 
z
" style="fill:#008000;"/>
   </g>
   <g id="patch_15">
    <path clip-path="url(#p767126e219)" d="M 221.681416 21.6 
L 252.955752 21.6 
L 252.955752 39.269524 
L 241.704264 39.269524 
L 241.704264 112.2 
L 232.954723 112.2 
L 232.954723 39.269524 
L 221.681416 39.269524 
z
" style="fill:#ff0000;"/>
   </g>
   <g id="patch_16">
    <path clip-path="url(#p767126e219)" d="M 276.26553 149.24775 
L 264.237923 149.24775 
L 262.338827 157.5 
L 254.60177 157.5 
L 265.651055 112.2 
L 274.826821 112.2 
L 285.876106 157.5 
L 278.145443 157.5 
z
M 266.156202 140.840163 
L 274.328069 140.840163 
L 270.248529 122.821132 
z
" style="fill:#008000;"/>
   </g>
   <g id="patch_17">
    <path clip-path="url(#p767126e219)" d="M 285.876106 104.002768 
Q 282.722038 108.101384 279.329663 110.16005 
Q 275.937288 112.2 272.320623 112.2 
Q 264.148082 112.2 259.374926 99.997728 
Q 254.60177 87.795455 254.60177 66.928073 
Q 254.60177 45.817393 259.459035 33.708697 
Q 264.323308 21.6 272.78322 21.6 
Q 276.042423 21.6 279.028274 23.246932 
Q 282.021134 24.87515 284.670551 28.094154 
L 284.670551 46.154266 
Q 281.937026 42.018219 279.231536 39.978269 
Q 276.526047 37.919603 273.806539 37.919603 
Q 268.774049 37.919603 266.047532 45.44309 
Q 263.321016 52.947862 263.321016 66.928073 
Q 263.321016 80.777277 265.949406 88.338195 
Q 268.577796 95.880397 273.414033 95.880397 
Q 274.731733 95.880397 275.860188 95.449948 
Q 276.988644 95.000785 277.885801 94.065028 
L 277.885801 77.10911 
L 272.734156 77.10911 
L 272.734156 62.00599 
L 285.876106 62.00599 
z
" style="fill:#ffa600;"/>
   </g>
   <g id="patch_18">
    <path clip-path="url(#p767126e219)" d="M 287.522124 142.4 
L 318.79646 142.4 
L 318.79646 145.344921 
L 307.544972 145.344921 
L 307.544972 157.5 
L 298.795431 157.5 
L 298.795431 145.344921 
L 287.522124 145.344921 
z
" style="fill:#ff0000;"/>
   </g>
   <g id="patch_19">
    <path clip-path="url(#p767126e219)" d="M 318.79646 140.235282 
Q 316.180416 141.308283 313.351621 141.851023 
Q 310.522826 142.4 307.441883 142.4 
Q 298.254209 142.4 292.888166 138.332576 
Q 287.522124 134.265152 287.522124 127.309358 
Q 287.522124 120.32861 292.888166 116.267424 
Q 298.254209 112.2 307.441883 112.2 
Q 310.522826 112.2 313.351621 112.748977 
Q 316.180416 113.291717 318.79646 114.364718 
L 318.79646 120.384755 
Q 316.156777 118.962404 313.59589 118.301136 
Q 311.035004 117.639868 308.206209 117.639868 
Q 303.131713 117.639868 300.224122 120.216319 
Q 297.32441 122.786532 297.32441 127.309358 
Q 297.32441 131.813468 300.224122 134.389919 
Q 303.131713 136.960132 308.206209 136.960132 
Q 311.035004 136.960132 313.59589 136.298864 
Q 316.156777 135.631357 318.79646 134.209006 
z
" style="fill:#0000ff;"/>
   </g>
   <g id="patch_20">
    <path clip-path="url(#p767126e219)" d="M 318.79646 109.467589 
Q 315.642392 110.833795 312.250017 111.520017 
Q 308.857642 112.2 305.240977 112.2 
Q 297.068436 112.2 292.29528 108.132576 
Q 287.522124 104.065152 287.522124 97.109358 
Q 287.522124 90.072464 292.379389 86.036232 
Q 297.243662 82 305.703574 82 
Q 308.962777 82 311.948628 82.548977 
Q 314.941488 83.091717 317.590905 84.164718 
L 317.590905 90.184755 
Q 314.85738 88.806073 312.15189 88.12609 
Q 309.446401 87.439868 306.726893 87.439868 
Q 301.694403 87.439868 298.967886 89.947697 
Q 296.24137 92.449287 296.24137 97.109358 
Q 296.24137 101.725759 298.86976 104.246065 
Q 301.49815 106.760132 306.334387 106.760132 
Q 307.652087 106.760132 308.780542 106.616649 
Q 309.908998 106.466928 310.806155 106.155009 
L 310.806155 100.503037 
L 305.65451 100.503037 
L 305.65451 95.468663 
L 318.79646 95.468663 
z
" style="fill:#ffa600;"/>
   </g>
   <g id="patch_21">
    <path clip-path="url(#p767126e219)" d="M 309.185884 70.997 
L 297.158277 70.997 
L 295.259181 82 
L 287.522124 82 
L 298.571409 21.6 
L 307.747175 21.6 
L 318.79646 82 
L 311.065797 82 
z
M 299.076556 59.786884 
L 307.248423 59.786884 
L 303.168883 35.761509 
z
" style="fill:#008000;"/>
   </g>
   <g id="patch_22">
    <path clip-path="url(#p767126e219)" d="M 351.716814 156.133795 
Q 348.562746 156.816897 345.170371 157.160008 
Q 341.777996 157.5 338.161331 157.5 
Q 329.98879 157.5 325.215634 155.466288 
Q 320.442478 153.432576 320.442478 149.954679 
Q 320.442478 146.436232 325.299743 144.418116 
Q 330.164016 142.4 338.623928 142.4 
Q 341.883131 142.4 344.868982 142.674489 
Q 347.861842 142.945858 350.511259 143.482359 
L 350.511259 146.492378 
Q 347.777734 145.803037 345.072244 145.463045 
Q 342.366755 145.119934 339.647247 145.119934 
Q 334.614757 145.119934 331.88824 146.373848 
Q 329.161724 147.624644 329.161724 149.954679 
Q 329.161724 152.26288 331.790114 153.523032 
Q 334.418504 154.780066 339.254741 154.780066 
Q 340.572441 154.780066 341.700896 154.708325 
Q 342.829351 154.633464 343.726509 154.477505 
L 343.726509 151.651518 
L 338.574864 151.651518 
L 338.574864 149.134332 
L 351.716814 149.134332 
z
" style="fill:#ffa600;"/>
   </g>
   <g id="patch_23">
    <path clip-path="url(#p767126e219)" d="M 342.106238 131.397 
L 330.078631 131.397 
L 328.179535 142.4 
L 320.442478 142.4 
L 331.491763 82 
L 340.667529 82 
L 351.716814 142.4 
L 343.986151 142.4 
z
M 331.99691 120.186884 
L 340.168777 120.186884 
L 336.089237 96.161509 
z
" style="fill:#008000;"/>
   </g>
   <g id="patch_24">
    <path clip-path="url(#p767126e219)" d="M 351.716814 77.670564 
Q 349.10077 79.816567 346.271975 80.902045 
Q 343.44318 82 340.362237 82 
Q 331.174563 82 325.80852 73.865152 
Q 320.442478 65.730304 320.442478 51.818715 
Q 320.442478 37.85722 325.80852 29.734848 
Q 331.174563 21.6 340.362237 21.6 
Q 343.44318 21.6 346.271975 22.697955 
Q 349.10077 23.783433 351.716814 25.929436 
L 351.716814 37.96951 
Q 349.077131 35.124809 346.516244 33.802272 
Q 343.955358 32.479736 341.126563 32.479736 
Q 336.052067 32.479736 333.144476 37.632638 
Q 330.244764 42.773063 330.244764 51.818715 
Q 330.244764 60.826937 333.144476 65.979839 
Q 336.052067 71.120264 341.126563 71.120264 
Q 343.955358 71.120264 346.516244 69.797728 
Q 349.077131 68.462714 351.716814 65.618013 
z
" style="fill:#0000ff;"/>
   </g>
   <g id="patch_25">
    <path clip-path="url(#p767126e219)" d="M 375.026592 132.743249 
L 362.998985 132.743249 
L 361.099889 157.5 
L 353.362832 157.5 
L 364.412117 21.6 
L 373.587883 21.6 
L 384.637168 157.5 
L 376.906505 157.5 
z
M 364.917264 107.520489 
L 373.089131 107.520489 
L 369.009591 53.463395 
z
" style="fill:#008000;"/>
   </g>
   <g id="patch_26">
    <path clip-path="url(#p767126e219)" d="M 386.283186 21.6 
L 417.557522 21.6 
L 417.557522 48.104286 
L 406.306034 48.104286 
L 406.306034 157.5 
L 397.556493 157.5 
L 397.556493 48.104286 
L 386.283186 48.104286 
z
" style="fill:#ff0000;"/>
   </g>
   <g id="patch_27">
    <path clip-path="url(#p767126e219)" d="M 450.477876 145.204152 
Q 447.323808 151.352076 443.931433 154.440074 
Q 440.539057 157.5 436.922393 157.5 
Q 428.749852 157.5 423.976696 139.196592 
Q 419.20354 120.893183 419.20354 89.592109 
Q 419.20354 57.92609 424.060805 39.763045 
Q 428.925078 21.6 437.384989 21.6 
Q 440.644193 21.6 443.630044 24.070399 
Q 446.622904 26.512725 449.272321 31.341231 
L 449.272321 58.431398 
Q 446.538796 52.227329 443.833306 49.167403 
Q 441.127817 46.079405 438.408309 46.079405 
Q 433.375819 46.079405 430.649302 57.364635 
Q 427.922786 68.621793 427.922786 89.592109 
Q 427.922786 110.365916 430.551176 121.707292 
Q 433.179565 133.020595 438.015803 133.020595 
Q 439.333503 133.020595 440.461958 132.374923 
Q 441.590413 131.701177 442.487571 130.297542 
L 442.487571 104.863665 
L 437.335926 104.863665 
L 437.335926 82.208986 
L 450.477876 82.208986 
z
" style="fill:#ffa600;"/>
   </g>
   <g id="patch_28">
    <path clip-path="url(#p767126e219)" d="M 483.39823 145.204152 
Q 480.244162 151.352076 476.851787 154.440074 
Q 473.459411 157.5 469.842747 157.5 
Q 461.670206 157.5 456.89705 139.196592 
Q 452.123894 120.893183 452.123894 89.592109 
Q 452.123894 57.92609 456.981158 39.763045 
Q 461.845432 21.6 470.305343 21.6 
Q 473.564547 21.6 476.550398 24.070399 
Q 479.543258 26.512725 482.192675 31.341231 
L 482.192675 58.431398 
Q 479.45915 52.227329 476.75366 49.167403 
Q 474.048171 46.079405 471.328663 46.079405 
Q 466.296173 46.079405 463.569656 57.364635 
Q 460.84314 68.621793 460.84314 89.592109 
Q 460.84314 110.365916 463.471529 121.707292 
Q 466.099919 133.020595 470.936157 133.020595 
Q 472.253857 133.020595 473.382312 132.374923 
Q 474.510767 131.701177 475.407925 130.297542 
L 475.407925 104.863665 
L 470.25628 104.863665 
L 470.25628 82.208986 
L 483.39823 82.208986 
z
" style="fill:#ffa600;"/>
   </g>
   <g id="patch_29">
    <path clip-path="url(#p767126e219)" d="M 516.318584 147.758769 
Q 513.70254 152.587275 510.873745 155.029601 
Q 508.04495 157.5 504.964006 157.5 
Q 495.776333 157.5 490.41029 139.196592 
Q 485.044248 120.893183 485.044248 89.592109 
Q 485.044248 58.178744 490.41029 39.903408 
Q 495.776333 21.6 504.964006 21.6 
Q 508.04495 21.6 510.873745 24.070399 
Q 513.70254 26.512725 516.318584 31.341231 
L 516.318584 58.431398 
Q 513.678901 52.03082 511.118014 49.055113 
Q 508.557127 46.079405 505.728333 46.079405 
Q 500.653837 46.079405 497.746246 57.673435 
Q 494.846534 69.239393 494.846534 89.592109 
Q 494.846534 109.860607 497.746246 121.454637 
Q 500.653837 133.020595 505.728333 133.020595 
Q 508.557127 133.020595 511.118014 130.044887 
Q 513.678901 127.041107 516.318584 120.640529 
z
" style="fill:#0000ff;"/>
   </g>
   <g id="patch_30">
    <path clip-path="url(#p767126e219)" d="M 539.628362 154.74925 
L 527.600755 154.74925 
L 525.701659 157.5 
L 517.964602 157.5 
L 529.013887 142.4 
L 538.189653 142.4 
L 549.238938 157.5 
L 541.508275 157.5 
z
M 529.519034 151.946721 
L 537.690901 151.946721 
L 533.611361 145.940377 
z
" style="fill:#008000;"/>
   </g>
   <g id="patch_31">
    <path clip-path="url(#p767126e219)" d="M 517.964602 97.1 
L 549.238938 97.1 
L 549.238938 105.934762 
L 537.98745 105.934762 
L 537.98745 142.4 
L 529.237909 142.4 
L 529.237909 105.934762 
L 517.964602 105.934762 
z
" style="fill:#ff0000;"/>
   </g>
   <g id="patch_32">
    <path clip-path="url(#p767126e219)" d="M 549.238938 90.268973 
Q 546.08487 93.684487 542.692495 95.400041 
Q 539.300119 97.1 535.683455 97.1 
Q 527.510914 97.1 522.737758 86.93144 
Q 517.964602 76.76288 517.964602 59.373394 
Q 517.964602 41.781161 522.821866 31.69058 
Q 527.68614 21.6 536.146051 21.6 
Q 539.405255 21.6 542.391106 22.972444 
Q 545.383966 24.329291 548.033383 27.011795 
L 548.033383 42.061888 
Q 545.299858 38.615183 542.594368 36.915224 
Q 539.888879 35.199669 537.169371 35.199669 
Q 532.136881 35.199669 529.410364 41.469242 
Q 526.683847 47.723218 526.683847 59.373394 
Q 526.683847 70.914398 529.312237 77.215162 
Q 531.940627 83.500331 536.776865 83.500331 
Q 538.094565 83.500331 539.22302 83.141624 
Q 540.351475 82.767321 541.248633 81.987523 
L 541.248633 67.857591 
L 536.096988 67.857591 
L 536.096988 55.271659 
L 549.238938 55.271659 
z
" style="fill:#ffa600;"/>
   </g>
   <g id="patch_33">
    <path clip-path="url(#p767126e219)" d="M 582.159292 156.133795 
Q 579.005224 156.816897 575.612849 157.160008 
Q 572.220473 157.5 568.603809 157.5 
Q 560.431268 157.5 555.658112 155.466288 
Q 550.884956 153.432576 550.884956 149.954679 
Q 550.884956 146.436232 555.74222 144.418116 
Q 560.606494 142.4 569.066405 142.4 
Q 572.325609 142.4 575.31146 142.674489 
Q 578.30432 142.945858 580.953737 143.482359 
L 580.953737 146.492378 
Q 578.220212 145.803037 575.514722 145.463045 
Q 572.809233 145.119934 570.089725 145.119934 
Q 565.057235 145.119934 562.330718 146.373848 
Q 559.604201 147.624644 559.604201 149.954679 
Q 559.604201 152.26288 562.232591 153.523032 
Q 564.860981 154.780066 569.697219 154.780066 
Q 571.014919 154.780066 572.143374 154.708325 
Q 573.271829 154.633464 574.168986 154.477505 
L 574.168986 151.651518 
L 569.017342 151.651518 
L 569.017342 149.134332 
L 582.159292 149.134332 
z
" style="fill:#ffa600;"/>
   </g>
   <g id="patch_34">
    <path clip-path="url(#p767126e219)" d="M 572.548716 136.8985 
L 560.521109 136.8985 
L 558.622013 142.4 
L 550.884956 142.4 
L 561.934241 112.2 
L 571.110007 112.2 
L 582.159292 142.4 
L 574.428629 142.4 
z
M 562.439387 131.293442 
L 570.611255 131.293442 
L 566.531715 119.280754 
z
" style="fill:#008000;"/>
   </g>
   <g id="patch_35">
    <path clip-path="url(#p767126e219)" d="M 582.159292 108.952923 
Q 579.543248 110.562425 576.714453 111.376534 
Q 573.885658 112.2 570.804714 112.2 
Q 561.617041 112.2 556.250998 106.098864 
Q 550.884956 99.997728 550.884956 89.564036 
Q 550.884956 79.092915 556.250998 73.001136 
Q 561.617041 66.9 570.804714 66.9 
Q 573.885658 66.9 576.714453 67.723466 
Q 579.543248 68.537575 582.159292 70.147077 
L 582.159292 79.177133 
Q 579.519609 77.043607 576.958722 76.051704 
Q 574.397835 75.059802 571.569041 75.059802 
Q 566.494545 75.059802 563.586954 78.924478 
Q 560.687242 82.779798 560.687242 89.564036 
Q 560.687242 96.320202 563.586954 100.184879 
Q 566.494545 104.040198 571.569041 104.040198 
Q 574.397835 104.040198 576.958722 103.048296 
Q 579.519609 102.047036 582.159292 99.91351 
z
" style="fill:#0000ff;"/>
   </g>
   <g id="patch_36">
    <path clip-path="url(#p767126e219)" d="M 550.884956 21.6 
L 582.159292 21.6 
L 582.159292 30.434762 
L 570.907804 30.434762 
L 570.907804 66.9 
L 562.158263 66.9 
L 562.158263 30.434762 
L 550.884956 30.434762 
z
" style="fill:#ff0000;"/>
   </g>
   <g id="patch_37">
    <path clip-path="url(#p767126e219)" d="M 615.079646 156.133795 
Q 611.925578 156.816897 608.533203 157.160008 
Q 605.140827 157.5 601.524163 157.5 
Q 593.351622 157.5 588.578466 155.466288 
Q 583.80531 153.432576 583.80531 149.954679 
Q 583.80531 146.436232 588.662574 144.418116 
Q 593.526848 142.4 601.986759 142.4 
Q 605.245963 142.4 608.231814 142.674489 
Q 611.224674 142.945858 613.874091 143.482359 
L 613.874091 146.492378 
Q 611.140566 145.803037 608.435076 145.463045 
Q 605.729587 145.119934 603.010079 145.119934 
Q 597.977589 145.119934 595.251072 146.373848 
Q 592.524555 147.624644 592.524555 149.954679 
Q 592.524555 152.26288 595.152945 153.523032 
Q 597.781335 154.780066 602.617573 154.780066 
Q 603.935272 154.780066 605.063728 154.708325 
Q 606.192183 154.633464 607.08934 154.477505 
L 607.08934 151.651518 
L 601.937696 151.651518 
L 601.937696 149.134332 
L 615.079646 149.134332 
z
" style="fill:#ffa600;"/>
   </g>
   <g id="patch_38">
    <path clip-path="url(#p767126e219)" d="M 605.46907 134.14775 
L 593.441463 134.14775 
L 591.542367 142.4 
L 583.80531 142.4 
L 594.854595 97.1 
L 604.030361 97.1 
L 615.079646 142.4 
L 607.348983 142.4 
z
M 595.359741 125.740163 
L 603.531609 125.740163 
L 599.452069 107.721132 
z
" style="fill:#008000;"/>
   </g>
   <g id="patch_39">
    <path clip-path="url(#p767126e219)" d="M 615.079646 91.688205 
Q 612.463602 94.370709 609.634807 95.727556 
Q 606.806012 97.1 603.725068 97.1 
Q 594.537395 97.1 589.171352 86.93144 
Q 583.80531 76.76288 583.80531 59.373394 
Q 583.80531 41.921524 589.171352 31.76856 
Q 594.537395 21.6 603.725068 21.6 
Q 606.806012 21.6 609.634807 22.972444 
Q 612.463602 24.329291 615.079646 27.011795 
L 615.079646 42.061888 
Q 612.439963 38.506011 609.879076 36.85284 
Q 607.318189 35.199669 604.489395 35.199669 
Q 599.414899 35.199669 596.507308 41.640797 
Q 593.607596 48.066329 593.607596 59.373394 
Q 593.607596 70.633671 596.507308 77.074799 
Q 599.414899 83.500331 604.489395 83.500331 
Q 607.318189 83.500331 609.879076 81.84716 
Q 612.439963 80.178393 615.079646 76.622516 
z
" style="fill:#0000ff;"/>
   </g>
   <g id="patch_40">
    <path clip-path="url(#p767126e219)" d="M 648 156.417641 
Q 645.383956 156.954142 642.555161 157.225511 
Q 639.726366 157.5 636.645422 157.5 
Q 627.457749 157.5 622.091706 155.466288 
Q 616.725664 153.432576 616.725664 149.954679 
Q 616.725664 146.464305 622.091706 144.433712 
Q 627.457749 142.4 636.645422 142.4 
Q 639.726366 142.4 642.555161 142.674489 
Q 645.383956 142.945858 648 143.482359 
L 648 146.492378 
Q 645.360317 145.781202 642.79943 145.450568 
Q 640.238543 145.119934 637.409749 145.119934 
Q 632.335253 145.119934 629.427662 146.408159 
Q 626.52795 147.693266 626.52795 149.954679 
Q 626.52795 152.206734 629.427662 153.49496 
Q 632.335253 154.780066 637.409749 154.780066 
Q 640.238543 154.780066 642.79943 154.449432 
Q 645.360317 154.115679 648 153.404503 
z
" style="fill:#0000ff;"/>
   </g>
   <g id="patch_41">
    <path clip-path="url(#p767126e219)" d="M 638.389424 134.14775 
L 626.361817 134.14775 
L 624.462721 142.4 
L 616.725664 142.4 
L 627.774949 97.1 
L 636.950715 97.1 
L 648 142.4 
L 640.269337 142.4 
z
M 628.280095 125.740163 
L 636.451963 125.740163 
L 632.372423 107.721132 
z
" style="fill:#008000;"/>
   </g>
   <g id="patch_42">
    <path clip-path="url(#p767126e219)" d="M 648 90.268973 
Q 644.845932 93.684487 641.453557 95.400041 
Q 638.061181 97.1 634.444517 97.1 
Q 626.271976 97.1 621.49882 86.93144 
Q 616.725664 76.76288 616.725664 59.373394 
Q 616.725664 41.781161 621.582928 31.69058 
Q 626.447202 21.6 634.907113 21.6 
Q 638.166317 21.6 641.152168 22.972444 
Q 644.145028 24.329291 646.794445 27.011795 
L 646.794445 42.061888 
Q 644.06092 38.615183 641.35543 36.915224 
Q 638.649941 35.199669 635.930433 35.199669 
Q 630.897943 35.199669 628.171426 41.469242 
Q 625.444909 47.723218 625.444909 59.373394 
Q 625.444909 70.914398 628.073299 77.215162 
Q 630.701689 83.500331 635.537927 83.500331 
Q 636.855626 83.500331 637.984082 83.141624 
Q 639.112537 82.767321 640.009694 81.987523 
L 640.009694 67.857591 
L 634.85805 67.857591 
L 634.85805 55.271659 
L 648 55.271659 
z
" style="fill:#ffa600;"/>
   </g>
  </g>
 </g>
 <defs>
  <clipPath id="p767126e219">
   <rect height="135.9" width="558" x="90" y="21.6"/>
  </clipPath>
 </defs>
</svg>
