<?xml version="1.0" encoding="utf-8" standalone="no"?>
<!DOCTYPE svg PUBLIC "-//W3C//DTD SVG 1.1//EN"
  "http://www.w3.org/Graphics/SVG/1.1/DTD/svg11.dtd">
<!-- Created with matplotlib (https://matplotlib.org/) -->
<svg height="180pt" version="1.1" viewBox="0 0 720 180" width="720pt" xmlns="http://www.w3.org/2000/svg" xmlns:xlink="http://www.w3.org/1999/xlink">
 <metadata>
  <rdf:RDF xmlns:cc="http://creativecommons.org/ns#" xmlns:dc="http://purl.org/dc/elements/1.1/" xmlns:rdf="http://www.w3.org/1999/02/22-rdf-syntax-ns#">
   <cc:Work>
    <dc:type rdf:resource="http://purl.org/dc/dcmitype/StillImage"/>
    <dc:date>2021-08-04T23:33:22.471099</dc:date>
    <dc:format>image/svg+xml</dc:format>
    <dc:creator>
     <cc:Agent>
      <dc:title>Matplotlib v3.3.2, https://matplotlib.org/</dc:title>
     </cc:Agent>
    </dc:creator>
   </cc:Work>
  </rdf:RDF>
 </metadata>
 <defs>
  <style type="text/css">*{stroke-linecap:butt;stroke-linejoin:round;}</style>
 </defs>
 <g id="figure_1">
  <g id="patch_1">
   <path d="M 0 180 
L 720 180 
L 720 0 
L 0 0 
z
" style="fill:none;"/>
  </g>
  <g id="axes_1">
   <g id="line2d_1">
    <path clip-path="url(#p310430698e)" d="M 90 157.5 
L 648 157.5 
" style="fill:none;stroke:#000000;stroke-linecap:square;stroke-width:0.5;"/>
   </g>
   <g id="patch_2">
    <path clip-path="url(#p310430698e)" d="M 111.66376 151.9985 
L 99.636153 151.9985 
L 97.737057 157.5 
L 90 157.5 
L 101.049285 127.3 
L 110.225051 127.3 
L 121.274336 157.5 
L 113.543673 157.5 
z
M 101.554432 146.393442 
L 109.726299 146.393442 
L 105.64676 134.380754 
z
" style="fill:#008000;"/>
   </g>
   <g id="patch_3">
    <path clip-path="url(#p310430698e)" d="M 121.274336 123.201384 
Q 118.120268 125.250692 114.727893 126.280025 
Q 111.335518 127.3 107.718853 127.3 
Q 99.546312 127.3 94.773156 121.198864 
Q 90 115.097728 90 104.664036 
Q 90 94.108697 94.857265 88.054348 
Q 99.721538 82 108.18145 82 
Q 111.440653 82 114.426504 82.823466 
Q 117.419364 83.637575 120.068781 85.247077 
L 120.068781 94.277133 
Q 117.335256 92.20911 114.629766 91.189134 
Q 111.924277 90.159802 109.204769 90.159802 
Q 104.172279 90.159802 101.445762 93.921545 
Q 98.719246 97.673931 98.719246 104.664036 
Q 98.719246 111.588639 101.347636 115.369097 
Q 103.976026 119.140198 108.812263 119.140198 
Q 110.129963 119.140198 111.258418 118.924974 
Q 112.386874 118.700392 113.284031 118.232514 
L 113.284031 109.754555 
L 108.132386 109.754555 
L 108.132386 102.202995 
L 121.274336 102.202995 
z
" style="fill:#ffa600;"/>
   </g>
   <g id="patch_4">
    <path clip-path="url(#p310430698e)" d="M 90 21.6 
L 121.274336 21.6 
L 121.274336 33.379683 
L 110.022848 33.379683 
L 110.022848 82 
L 101.273307 82 
L 101.273307 33.379683 
L 90 33.379683 
z
" style="fill:#ff0000;"/>
   </g>
   <g id="patch_5">
    <path clip-path="url(#p310430698e)" d="M 144.584114 151.9985 
L 132.556507 151.9985 
L 130.657411 157.5 
L 122.920354 157.5 
L 133.969639 127.3 
L 143.145405 127.3 
L 154.19469 157.5 
L 146.464027 157.5 
z
M 134.474786 146.393442 
L 142.646653 146.393442 
L 138.567114 134.380754 
z
" style="fill:#008000;"/>
   </g>
   <g id="patch_6">
    <path clip-path="url(#p310430698e)" d="M 122.920354 82 
L 154.19469 82 
L 154.19469 90.834762 
L 142.943202 90.834762 
L 142.943202 127.3 
L 134.193661 127.3 
L 134.193661 90.834762 
L 122.920354 90.834762 
z
" style="fill:#ff0000;"/>
   </g>
   <g id="patch_7">
    <path clip-path="url(#p310430698e)" d="M 154.19469 77.670564 
Q 151.578646 79.816567 148.749851 80.902045 
Q 145.921056 82 142.840113 82 
Q 133.652439 82 128.286397 73.865152 
Q 122.920354 65.730304 122.920354 51.818715 
Q 122.920354 37.85722 128.286397 29.734848 
Q 133.652439 21.6 142.840113 21.6 
Q 145.921056 21.6 148.749851 22.697955 
Q 151.578646 23.783433 154.19469 25.929436 
L 154.19469 37.96951 
Q 151.555007 35.124809 148.99412 33.802272 
Q 146.433234 32.479736 143.604439 32.479736 
Q 138.529943 32.479736 135.622352 37.632638 
Q 132.72264 42.773063 132.72264 51.818715 
Q 132.72264 60.826937 135.622352 65.979839 
Q 138.529943 71.120264 143.604439 71.120264 
Q 146.433234 71.120264 148.99412 69.797728 
Q 151.555007 68.462714 154.19469 65.618013 
z
" style="fill:#0000ff;"/>
   </g>
   <g id="patch_8">
    <path clip-path="url(#p310430698e)" d="M 187.115044 156.133795 
Q 183.960976 156.816897 180.568601 157.160008 
Q 177.176226 157.5 173.559561 157.5 
Q 165.38702 157.5 160.613864 155.466288 
Q 155.840708 153.432576 155.840708 149.954679 
Q 155.840708 146.436232 160.697973 144.418116 
Q 165.562246 142.4 174.022158 142.4 
Q 177.281361 142.4 180.267212 142.674489 
Q 183.260072 142.945858 185.909489 143.482359 
L 185.909489 146.492378 
Q 183.175964 145.803037 180.470474 145.463045 
Q 177.764985 145.119934 175.045477 145.119934 
Q 170.012987 145.119934 167.28647 146.373848 
Q 164.559954 147.624644 164.559954 149.954679 
Q 164.559954 152.26288 167.188344 153.523032 
Q 169.816734 154.780066 174.652971 154.780066 
Q 175.970671 154.780066 177.099126 154.708325 
Q 178.227582 154.633464 179.124739 154.477505 
L 179.124739 151.651518 
L 173.973094 151.651518 
L 173.973094 149.134332 
L 187.115044 149.134332 
z
" style="fill:#ffa600;"/>
   </g>
   <g id="patch_9">
    <path clip-path="url(#p310430698e)" d="M 155.840708 127.3 
L 187.115044 127.3 
L 187.115044 130.244921 
L 175.863556 130.244921 
L 175.863556 142.4 
L 167.114015 142.4 
L 167.114015 130.244921 
L 155.840708 130.244921 
z
" style="fill:#ff0000;"/>
   </g>
   <g id="patch_10">
    <path clip-path="url(#p310430698e)" d="M 187.115044 124.052923 
Q 184.499 125.662425 181.670205 126.476534 
Q 178.84141 127.3 175.760467 127.3 
Q 166.572793 127.3 161.206751 121.198864 
Q 155.840708 115.097728 155.840708 104.664036 
Q 155.840708 94.192915 161.206751 88.101136 
Q 166.572793 82 175.760467 82 
Q 178.84141 82 181.670205 82.823466 
Q 184.499 83.637575 187.115044 85.247077 
L 187.115044 94.277133 
Q 184.475361 92.143607 181.914474 91.151704 
Q 179.353588 90.159802 176.524793 90.159802 
Q 171.450297 90.159802 168.542706 94.024478 
Q 165.642994 97.879798 165.642994 104.664036 
Q 165.642994 111.420202 168.542706 115.284879 
Q 171.450297 119.140198 176.524793 119.140198 
Q 179.353588 119.140198 181.914474 118.148296 
Q 184.475361 117.147036 187.115044 115.01351 
z
" style="fill:#0000ff;"/>
   </g>
   <g id="patch_11">
    <path clip-path="url(#p310430698e)" d="M 177.504468 70.997 
L 165.476861 70.997 
L 163.577765 82 
L 155.840708 82 
L 166.889993 21.6 
L 176.065759 21.6 
L 187.115044 82 
L 179.384381 82 
z
M 167.39514 59.786884 
L 175.567007 59.786884 
L 171.487467 35.761509 
z
" style="fill:#008000;"/>
   </g>
   <g id="patch_12">
    <path clip-path="url(#p310430698e)" d="M 220.035398 156.133795 
Q 216.88133 156.816897 213.488955 157.160008 
Q 210.09658 157.5 206.479915 157.5 
Q 198.307374 157.5 193.534218 155.466288 
Q 188.761062 153.432576 188.761062 149.954679 
Q 188.761062 146.436232 193.618327 144.418116 
Q 198.4826 142.4 206.942512 142.4 
Q 210.201715 142.4 213.187566 142.674489 
Q 216.180426 142.945858 218.829843 143.482359 
L 218.829843 146.492378 
Q 216.096318 145.803037 213.390828 145.463045 
Q 210.685339 145.119934 207.965831 145.119934 
Q 202.933341 145.119934 200.206824 146.373848 
Q 197.480308 147.624644 197.480308 149.954679 
Q 197.480308 152.26288 200.108698 153.523032 
Q 202.737088 154.780066 207.573325 154.780066 
Q 208.891025 154.780066 210.01948 154.708325 
Q 211.147936 154.633464 212.045093 154.477505 
L 212.045093 151.651518 
L 206.893448 151.651518 
L 206.893448 149.134332 
L 220.035398 149.134332 
z
" style="fill:#ffa600;"/>
   </g>
   <g id="patch_13">
    <path clip-path="url(#p310430698e)" d="M 210.424822 136.8985 
L 198.397215 136.8985 
L 196.498119 142.4 
L 188.761062 142.4 
L 199.810347 112.2 
L 208.986113 112.2 
L 220.035398 142.4 
L 212.304735 142.4 
z
M 200.315494 131.293442 
L 208.487361 131.293442 
L 204.407821 119.280754 
z
" style="fill:#008000;"/>
   </g>
   <g id="patch_14">
    <path clip-path="url(#p310430698e)" d="M 220.035398 110.035282 
Q 217.419354 111.108283 214.590559 111.651023 
Q 211.761764 112.2 208.680821 112.2 
Q 199.493147 112.2 194.127105 108.132576 
Q 188.761062 104.065152 188.761062 97.109358 
Q 188.761062 90.12861 194.127105 86.067424 
Q 199.493147 82 208.680821 82 
Q 211.761764 82 214.590559 82.548977 
Q 217.419354 83.091717 220.035398 84.164718 
L 220.035398 90.184755 
Q 217.395715 88.762404 214.834828 88.101136 
Q 212.273942 87.439868 209.445147 87.439868 
Q 204.370651 87.439868 201.46306 90.016319 
Q 198.563348 92.586532 198.563348 97.109358 
Q 198.563348 101.613468 201.46306 104.189919 
Q 204.370651 106.760132 209.445147 106.760132 
Q 212.273942 106.760132 214.834828 106.098864 
Q 217.395715 105.431357 220.035398 104.009006 
z
" style="fill:#0000ff;"/>
   </g>
   <g id="patch_15">
    <path clip-path="url(#p310430698e)" d="M 188.761062 21.6 
L 220.035398 21.6 
L 220.035398 33.379683 
L 208.78391 33.379683 
L 208.78391 82 
L 200.034369 82 
L 200.034369 33.379683 
L 188.761062 33.379683 
z
" style="fill:#ff0000;"/>
   </g>
   <g id="patch_16">
    <path clip-path="url(#p310430698e)" d="M 252.955752 156.133795 
Q 249.801684 156.816897 246.409309 157.160008 
Q 243.016934 157.5 239.400269 157.5 
Q 231.227728 157.5 226.454572 155.466288 
Q 221.681416 153.432576 221.681416 149.954679 
Q 221.681416 146.436232 226.538681 144.418116 
Q 231.402954 142.4 239.862866 142.4 
Q 243.122069 142.4 246.10792 142.674489 
Q 249.10078 142.945858 251.750197 143.482359 
L 251.750197 146.492378 
Q 249.016672 145.803037 246.311182 145.463045 
Q 243.605693 145.119934 240.886185 145.119934 
Q 235.853695 145.119934 233.127178 146.373848 
Q 230.400662 147.624644 230.400662 149.954679 
Q 230.400662 152.26288 233.029052 153.523032 
Q 235.657442 154.780066 240.493679 154.780066 
Q 241.811379 154.780066 242.939834 154.708325 
Q 244.06829 154.633464 244.965447 154.477505 
L 244.965447 151.651518 
L 239.813802 151.651518 
L 239.813802 149.134332 
L 252.955752 149.134332 
z
" style="fill:#ffa600;"/>
   </g>
   <g id="patch_17">
    <path clip-path="url(#p310430698e)" d="M 221.681416 127.3 
L 252.955752 127.3 
L 252.955752 130.244921 
L 241.704264 130.244921 
L 241.704264 142.4 
L 232.954723 142.4 
L 232.954723 130.244921 
L 221.681416 130.244921 
z
" style="fill:#ff0000;"/>
   </g>
   <g id="patch_18">
    <path clip-path="url(#p310430698e)" d="M 243.345176 108.044749 
L 231.317569 108.044749 
L 229.418473 127.3 
L 221.681416 127.3 
L 232.730701 21.6 
L 241.906467 21.6 
L 252.955752 127.3 
L 245.225089 127.3 
z
M 233.235848 88.427047 
L 241.407715 88.427047 
L 237.328175 46.38264 
z
" style="fill:#008000;"/>
   </g>
   <g id="patch_19">
    <path clip-path="url(#p310430698e)" d="M 285.876106 153.401384 
Q 282.722038 155.450692 279.329663 156.480025 
Q 275.937288 157.5 272.320623 157.5 
Q 264.148082 157.5 259.374926 151.398864 
Q 254.60177 145.297728 254.60177 134.864036 
Q 254.60177 124.308697 259.459035 118.254348 
Q 264.323308 112.2 272.78322 112.2 
Q 276.042423 112.2 279.028274 113.023466 
Q 282.021134 113.837575 284.670551 115.447077 
L 284.670551 124.477133 
Q 281.937026 122.40911 279.231536 121.389134 
Q 276.526047 120.359802 273.806539 120.359802 
Q 268.774049 120.359802 266.047532 124.121545 
Q 263.321016 127.873931 263.321016 134.864036 
Q 263.321016 141.788639 265.949406 145.569097 
Q 268.577796 149.340198 273.414033 149.340198 
Q 274.731733 149.340198 275.860188 149.124974 
Q 276.988644 148.900392 277.885801 148.432514 
L 277.885801 139.954555 
L 272.734156 139.954555 
L 272.734156 132.402995 
L 285.876106 132.402995 
z
" style="fill:#ffa600;"/>
   </g>
   <g id="patch_20">
    <path clip-path="url(#p310430698e)" d="M 276.26553 95.695499 
L 264.237923 95.695499 
L 262.338827 112.2 
L 254.60177 112.2 
L 265.651055 21.6 
L 274.826821 21.6 
L 285.876106 112.2 
L 278.145443 112.2 
z
M 266.156202 78.880326 
L 274.328069 78.880326 
L 270.248529 42.842263 
z
" style="fill:#008000;"/>
   </g>
   <g id="patch_21">
    <path clip-path="url(#p310430698e)" d="M 309.185884 146.497 
L 297.158277 146.497 
L 295.259181 157.5 
L 287.522124 157.5 
L 298.571409 97.1 
L 307.747175 97.1 
L 318.79646 157.5 
L 311.065797 157.5 
z
M 299.076556 135.286884 
L 307.248423 135.286884 
L 303.168883 111.261509 
z
" style="fill:#008000;"/>
   </g>
   <g id="patch_22">
    <path clip-path="url(#p310430698e)" d="M 287.522124 21.6 
L 318.79646 21.6 
L 318.79646 36.324604 
L 307.544972 36.324604 
L 307.544972 97.1 
L 298.795431 97.1 
L 298.795431 36.324604 
L 287.522124 36.324604 
z
" style="fill:#ff0000;"/>
   </g>
   <g id="patch_23">
    <path clip-path="url(#p310430698e)" d="M 342.106238 154.74925 
L 330.078631 154.74925 
L 328.179535 157.5 
L 320.442478 157.5 
L 331.491763 142.4 
L 340.667529 142.4 
L 351.716814 157.5 
L 343.986151 157.5 
z
M 331.99691 151.946721 
L 340.168777 151.946721 
L 336.089237 145.940377 
z
" style="fill:#008000;"/>
   </g>
   <g id="patch_24">
    <path clip-path="url(#p310430698e)" d="M 320.442478 97.1 
L 351.716814 97.1 
L 351.716814 105.934762 
L 340.465326 105.934762 
L 340.465326 142.4 
L 331.715785 142.4 
L 331.715785 105.934762 
L 320.442478 105.934762 
z
" style="fill:#ff0000;"/>
   </g>
   <g id="patch_25">
    <path clip-path="url(#p310430698e)" d="M 351.716814 90.268973 
Q 348.562746 93.684487 345.170371 95.400041 
Q 341.777996 97.1 338.161331 97.1 
Q 329.98879 97.1 325.215634 86.93144 
Q 320.442478 76.76288 320.442478 59.373394 
Q 320.442478 41.781161 325.299743 31.69058 
Q 330.164016 21.6 338.623928 21.6 
Q 341.883131 21.6 344.868982 22.972444 
Q 347.861842 24.329291 350.511259 27.011795 
L 350.511259 42.061888 
Q 347.777734 38.615183 345.072244 36.915224 
Q 342.366755 35.199669 339.647247 35.199669 
Q 334.614757 35.199669 331.88824 41.469242 
Q 329.161724 47.723218 329.161724 59.373394 
Q 329.161724 70.914398 331.790114 77.215162 
Q 334.418504 83.500331 339.254741 83.500331 
Q 340.572441 83.500331 341.700896 83.141624 
Q 342.829351 82.767321 343.726509 81.987523 
L 343.726509 67.857591 
L 338.574864 67.857591 
L 338.574864 55.271659 
L 351.716814 55.271659 
z
" style="fill:#ffa600;"/>
   </g>
   <g id="patch_26">
    <path clip-path="url(#p310430698e)" d="M 353.362832 142.4 
L 384.637168 142.4 
L 384.637168 145.344921 
L 373.38568 145.344921 
L 373.38568 157.5 
L 364.636139 157.5 
L 364.636139 145.344921 
L 353.362832 145.344921 
z
" style="fill:#ff0000;"/>
   </g>
   <g id="patch_27">
    <path clip-path="url(#p310430698e)" d="M 384.637168 131.470357 
Q 381.4831 136.935179 378.090725 139.680066 
Q 374.698349 142.4 371.081685 142.4 
Q 362.909144 142.4 358.135988 126.130304 
Q 353.362832 109.860607 353.362832 82.03743 
Q 353.362832 53.889857 358.220097 37.744929 
Q 363.08437 21.6 371.544282 21.6 
Q 374.803485 21.6 377.789336 23.79591 
Q 380.782196 25.966866 383.431613 30.258872 
L 383.431613 54.339021 
Q 380.698088 48.824293 377.992598 46.104359 
Q 375.287109 43.359471 372.567601 43.359471 
Q 367.535111 43.359471 364.808594 53.390787 
Q 362.082078 63.397149 362.082078 82.03743 
Q 362.082078 100.503037 364.710468 110.584259 
Q 367.338858 120.640529 372.175095 120.640529 
Q 373.492795 120.640529 374.62125 120.066598 
Q 375.749705 119.467713 376.646863 118.220037 
L 376.646863 95.612146 
L 371.495218 95.612146 
L 371.495218 75.474654 
L 384.637168 75.474654 
z
" style="fill:#ffa600;"/>
   </g>
   <g id="patch_28">
    <path clip-path="url(#p310430698e)" d="M 417.557522 152.035179 
Q 414.403454 154.767589 411.011079 156.140033 
Q 407.618703 157.5 404.002039 157.5 
Q 395.829498 157.5 391.056342 149.365152 
Q 386.283186 141.230304 386.283186 127.318715 
Q 386.283186 113.244929 391.140451 105.172464 
Q 396.004724 97.1 404.464635 97.1 
Q 407.723839 97.1 410.70969 98.197955 
Q 413.70255 99.283433 416.351967 101.429436 
L 416.351967 113.46951 
Q 413.618442 110.712146 410.912952 109.352179 
Q 408.207463 107.979736 405.487955 107.979736 
Q 400.455465 107.979736 397.728948 112.995394 
Q 395.002432 117.998575 395.002432 127.318715 
Q 395.002432 136.551518 397.630822 141.59213 
Q 400.259212 146.620264 405.095449 146.620264 
Q 406.413149 146.620264 407.541604 146.333299 
Q 408.670059 146.033857 409.567217 145.410019 
L 409.567217 134.106073 
L 404.415572 134.106073 
L 404.415572 124.037327 
L 417.557522 124.037327 
z
" style="fill:#ffa600;"/>
   </g>
   <g id="patch_29">
    <path clip-path="url(#p310430698e)" d="M 407.946946 83.346249 
L 395.919339 83.346249 
L 394.020243 97.1 
L 386.283186 97.1 
L 397.332471 21.6 
L 406.508237 21.6 
L 417.557522 97.1 
L 409.826859 97.1 
z
M 397.837618 69.333605 
L 406.009485 69.333605 
L 401.929945 39.301886 
z
" style="fill:#008000;"/>
   </g>
   <g id="patch_30">
    <path clip-path="url(#p310430698e)" d="M 440.8673 151.9985 
L 428.839693 151.9985 
L 426.940597 157.5 
L 419.20354 157.5 
L 430.252825 127.3 
L 439.428591 127.3 
L 450.477876 157.5 
L 442.747213 157.5 
z
M 430.757972 146.393442 
L 438.929839 146.393442 
L 434.850299 134.380754 
z
" style="fill:#008000;"/>
   </g>
   <g id="patch_31">
    <path clip-path="url(#p310430698e)" d="M 450.477876 125.135282 
Q 447.861832 126.208283 445.033037 126.751023 
Q 442.204242 127.3 439.123298 127.3 
Q 429.935625 127.3 424.569582 123.232576 
Q 419.20354 119.165152 419.20354 112.209358 
Q 419.20354 105.22861 424.569582 101.167424 
Q 429.935625 97.1 439.123298 97.1 
Q 442.204242 97.1 445.033037 97.648977 
Q 447.861832 98.191717 450.477876 99.264718 
L 450.477876 105.284755 
Q 447.838193 103.862404 445.277306 103.201136 
Q 442.71642 102.539868 439.887625 102.539868 
Q 434.813129 102.539868 431.905538 105.116319 
Q 429.005826 107.686532 429.005826 112.209358 
Q 429.005826 116.713468 431.905538 119.289919 
Q 434.813129 121.860132 439.887625 121.860132 
Q 442.71642 121.860132 445.277306 121.198864 
Q 447.838193 120.531357 450.477876 119.109006 
z
" style="fill:#0000ff;"/>
   </g>
   <g id="patch_32">
    <path clip-path="url(#p310430698e)" d="M 450.477876 94.367589 
Q 447.323808 95.733795 443.931433 96.420017 
Q 440.539057 97.1 436.922393 97.1 
Q 428.749852 97.1 423.976696 93.032576 
Q 419.20354 88.965152 419.20354 82.009358 
Q 419.20354 74.972464 424.060805 70.936232 
Q 428.925078 66.9 437.384989 66.9 
Q 440.644193 66.9 443.630044 67.448977 
Q 446.622904 67.991717 449.272321 69.064718 
L 449.272321 75.084755 
Q 446.538796 73.706073 443.833306 73.02609 
Q 441.127817 72.339868 438.408309 72.339868 
Q 433.375819 72.339868 430.649302 74.847697 
Q 427.922786 77.349287 427.922786 82.009358 
Q 427.922786 86.625759 430.551176 89.146065 
Q 433.179565 91.660132 438.015803 91.660132 
Q 439.333503 91.660132 440.461958 91.516649 
Q 441.590413 91.366928 442.487571 91.055009 
L 442.487571 85.403037 
L 437.335926 85.403037 
L 437.335926 80.368663 
L 450.477876 80.368663 
z
" style="fill:#ffa600;"/>
   </g>
   <g id="patch_33">
    <path clip-path="url(#p310430698e)" d="M 419.20354 21.6 
L 450.477876 21.6 
L 450.477876 30.434762 
L 439.226388 30.434762 
L 439.226388 66.9 
L 430.476847 66.9 
L 430.476847 30.434762 
L 419.20354 30.434762 
z
" style="fill:#ff0000;"/>
   </g>
   <g id="patch_34">
    <path clip-path="url(#p310430698e)" d="M 473.787654 154.74925 
L 461.760047 154.74925 
L 459.860951 157.5 
L 452.123894 157.5 
L 463.173179 142.4 
L 472.348945 142.4 
L 483.39823 157.5 
L 475.667567 157.5 
z
M 463.678326 151.946721 
L 471.850193 151.946721 
L 467.770653 145.940377 
z
" style="fill:#008000;"/>
   </g>
   <g id="patch_35">
    <path clip-path="url(#p310430698e)" d="M 483.39823 141.033795 
Q 480.244162 141.716897 476.851787 142.060008 
Q 473.459411 142.4 469.842747 142.4 
Q 461.670206 142.4 456.89705 140.366288 
Q 452.123894 138.332576 452.123894 134.854679 
Q 452.123894 131.336232 456.981158 129.318116 
Q 461.845432 127.3 470.305343 127.3 
Q 473.564547 127.3 476.550398 127.574489 
Q 479.543258 127.845858 482.192675 128.382359 
L 482.192675 131.392378 
Q 479.45915 130.703037 476.75366 130.363045 
Q 474.048171 130.019934 471.328663 130.019934 
Q 466.296173 130.019934 463.569656 131.273848 
Q 460.84314 132.524644 460.84314 134.854679 
Q 460.84314 137.16288 463.471529 138.423032 
Q 466.099919 139.680066 470.936157 139.680066 
Q 472.253857 139.680066 473.382312 139.608325 
Q 474.510767 139.533464 475.407925 139.377505 
L 475.407925 136.551518 
L 470.25628 136.551518 
L 470.25628 134.034332 
L 483.39823 134.034332 
z
" style="fill:#ffa600;"/>
   </g>
   <g id="patch_36">
    <path clip-path="url(#p310430698e)" d="M 452.123894 21.6 
L 483.39823 21.6 
L 483.39823 42.214445 
L 472.146742 42.214445 
L 472.146742 127.3 
L 463.397201 127.3 
L 463.397201 42.214445 
L 452.123894 42.214445 
z
" style="fill:#ff0000;"/>
   </g>
   <g id="patch_37">
    <path clip-path="url(#p310430698e)" d="M 516.318584 154.767589 
Q 513.164516 156.133795 509.772141 156.820017 
Q 506.379765 157.5 502.763101 157.5 
Q 494.59056 157.5 489.817404 153.432576 
Q 485.044248 149.365152 485.044248 142.409358 
Q 485.044248 135.372464 489.901512 131.336232 
Q 494.765786 127.3 503.225697 127.3 
Q 506.484901 127.3 509.470752 127.848977 
Q 512.463612 128.391717 515.113029 129.464718 
L 515.113029 135.484755 
Q 512.379504 134.106073 509.674014 133.42609 
Q 506.968525 132.739868 504.249017 132.739868 
Q 499.216527 132.739868 496.49001 135.247697 
Q 493.763493 137.749287 493.763493 142.409358 
Q 493.763493 147.025759 496.391883 149.546065 
Q 499.020273 152.060132 503.856511 152.060132 
Q 505.174211 152.060132 506.302666 151.916649 
Q 507.431121 151.766928 508.328279 151.455009 
L 508.328279 145.803037 
L 503.176634 145.803037 
L 503.176634 140.768663 
L 516.318584 140.768663 
z
" style="fill:#ffa600;"/>
   </g>
   <g id="patch_38">
    <path clip-path="url(#p310430698e)" d="M 485.044248 97.1 
L 516.318584 97.1 
L 516.318584 102.989841 
L 505.067096 102.989841 
L 505.067096 127.3 
L 496.317555 127.3 
L 496.317555 102.989841 
L 485.044248 102.989841 
z
" style="fill:#ff0000;"/>
   </g>
   <g id="patch_39">
    <path clip-path="url(#p310430698e)" d="M 506.708008 83.346249 
L 494.680401 83.346249 
L 492.781305 97.1 
L 485.044248 97.1 
L 496.093533 21.6 
L 505.269299 21.6 
L 516.318584 97.1 
L 508.587921 97.1 
z
M 496.59868 69.333605 
L 504.770547 69.333605 
L 500.691007 39.301886 
z
" style="fill:#008000;"/>
   </g>
   <g id="patch_40">
    <path clip-path="url(#p310430698e)" d="M 549.238938 154.767589 
Q 546.08487 156.133795 542.692495 156.820017 
Q 539.300119 157.5 535.683455 157.5 
Q 527.510914 157.5 522.737758 153.432576 
Q 517.964602 149.365152 517.964602 142.409358 
Q 517.964602 135.372464 522.821866 131.336232 
Q 527.68614 127.3 536.146051 127.3 
Q 539.405255 127.3 542.391106 127.848977 
Q 545.383966 128.391717 548.033383 129.464718 
L 548.033383 135.484755 
Q 545.299858 134.106073 542.594368 133.42609 
Q 539.888879 132.739868 537.169371 132.739868 
Q 532.136881 132.739868 529.410364 135.247697 
Q 526.683847 137.749287 526.683847 142.409358 
Q 526.683847 147.025759 529.312237 149.546065 
Q 531.940627 152.060132 536.776865 152.060132 
Q 538.094565 152.060132 539.22302 151.916649 
Q 540.351475 151.766928 541.248633 151.455009 
L 541.248633 145.803037 
L 536.096988 145.803037 
L 536.096988 140.768663 
L 549.238938 140.768663 
z
" style="fill:#ffa600;"/>
   </g>
   <g id="patch_41">
    <path clip-path="url(#p310430698e)" d="M 539.628362 119.04775 
L 527.600755 119.04775 
L 525.701659 127.3 
L 517.964602 127.3 
L 529.013887 82 
L 538.189653 82 
L 549.238938 127.3 
L 541.508275 127.3 
z
M 529.519034 110.640163 
L 537.690901 110.640163 
L 533.611361 92.621132 
z
" style="fill:#008000;"/>
   </g>
   <g id="patch_42">
    <path clip-path="url(#p310430698e)" d="M 517.964602 21.6 
L 549.238938 21.6 
L 549.238938 33.379683 
L 537.98745 33.379683 
L 537.98745 82 
L 529.237909 82 
L 529.237909 33.379683 
L 517.964602 33.379683 
z
" style="fill:#ff0000;"/>
   </g>
   <g id="patch_43">
    <path clip-path="url(#p310430698e)" d="M 582.159292 156.417641 
Q 579.543248 156.954142 576.714453 157.225511 
Q 573.885658 157.5 570.804714 157.5 
Q 561.617041 157.5 556.250998 155.466288 
Q 550.884956 153.432576 550.884956 149.954679 
Q 550.884956 146.464305 556.250998 144.433712 
Q 561.617041 142.4 570.804714 142.4 
Q 573.885658 142.4 576.714453 142.674489 
Q 579.543248 142.945858 582.159292 143.482359 
L 582.159292 146.492378 
Q 579.519609 145.781202 576.958722 145.450568 
Q 574.397835 145.119934 571.569041 145.119934 
Q 566.494545 145.119934 563.586954 146.408159 
Q 560.687242 147.693266 560.687242 149.954679 
Q 560.687242 152.206734 563.586954 153.49496 
Q 566.494545 154.780066 571.569041 154.780066 
Q 574.397835 154.780066 576.958722 154.449432 
Q 579.519609 154.115679 582.159292 153.404503 
z
" style="fill:#0000ff;"/>
   </g>
   <g id="patch_44">
    <path clip-path="url(#p310430698e)" d="M 582.159292 139.667589 
Q 579.005224 141.033795 575.612849 141.720017 
Q 572.220473 142.4 568.603809 142.4 
Q 560.431268 142.4 555.658112 138.332576 
Q 550.884956 134.265152 550.884956 127.309358 
Q 550.884956 120.272464 555.74222 116.236232 
Q 560.606494 112.2 569.066405 112.2 
Q 572.325609 112.2 575.31146 112.748977 
Q 578.30432 113.291717 580.953737 114.364718 
L 580.953737 120.384755 
Q 578.220212 119.006073 575.514722 118.32609 
Q 572.809233 117.639868 570.089725 117.639868 
Q 565.057235 117.639868 562.330718 120.147697 
Q 559.604201 122.649287 559.604201 127.309358 
Q 559.604201 131.925759 562.232591 134.446065 
Q 564.860981 136.960132 569.697219 136.960132 
Q 571.014919 136.960132 572.143374 136.816649 
Q 573.271829 136.666928 574.168986 136.355009 
L 574.168986 130.703037 
L 569.017342 130.703037 
L 569.017342 125.668663 
L 582.159292 125.668663 
z
" style="fill:#ffa600;"/>
   </g>
   <g id="patch_45">
    <path clip-path="url(#p310430698e)" d="M 550.884956 21.6 
L 582.159292 21.6 
L 582.159292 39.269524 
L 570.907804 39.269524 
L 570.907804 112.2 
L 562.158263 112.2 
L 562.158263 39.269524 
L 550.884956 39.269524 
z
" style="fill:#ff0000;"/>
   </g>
   <g id="patch_46">
    <path clip-path="url(#p310430698e)" d="M 615.079646 156.417641 
Q 612.463602 156.954142 609.634807 157.225511 
Q 606.806012 157.5 603.725068 157.5 
Q 594.537395 157.5 589.171352 155.466288 
Q 583.80531 153.432576 583.80531 149.954679 
Q 583.80531 146.464305 589.171352 144.433712 
Q 594.537395 142.4 603.725068 142.4 
Q 606.806012 142.4 609.634807 142.674489 
Q 612.463602 142.945858 615.079646 143.482359 
L 615.079646 146.492378 
Q 612.439963 145.781202 609.879076 145.450568 
Q 607.318189 145.119934 604.489395 145.119934 
Q 599.414899 145.119934 596.507308 146.408159 
Q 593.607596 147.693266 593.607596 149.954679 
Q 593.607596 152.206734 596.507308 153.49496 
Q 599.414899 154.780066 604.489395 154.780066 
Q 607.318189 154.780066 609.879076 154.449432 
Q 612.439963 154.115679 615.079646 153.404503 
z
" style="fill:#0000ff;"/>
   </g>
   <g id="patch_47">
    <path clip-path="url(#p310430698e)" d="M 615.079646 139.667589 
Q 611.925578 141.033795 608.533203 141.720017 
Q 605.140827 142.4 601.524163 142.4 
Q 593.351622 142.4 588.578466 138.332576 
Q 583.80531 134.265152 583.80531 127.309358 
Q 583.80531 120.272464 588.662574 116.236232 
Q 593.526848 112.2 601.986759 112.2 
Q 605.245963 112.2 608.231814 112.748977 
Q 611.224674 113.291717 613.874091 114.364718 
L 613.874091 120.384755 
Q 611.140566 119.006073 608.435076 118.32609 
Q 605.729587 117.639868 603.010079 117.639868 
Q 597.977589 117.639868 595.251072 120.147697 
Q 592.524555 122.649287 592.524555 127.309358 
Q 592.524555 131.925759 595.152945 134.446065 
Q 597.781335 136.960132 602.617573 136.960132 
Q 603.935272 136.960132 605.063728 136.816649 
Q 606.192183 136.666928 607.08934 136.355009 
L 607.08934 130.703037 
L 601.937696 130.703037 
L 601.937696 125.668663 
L 615.079646 125.668663 
z
" style="fill:#ffa600;"/>
   </g>
   <g id="patch_48">
    <path clip-path="url(#p310430698e)" d="M 605.46907 103.94775 
L 593.441463 103.94775 
L 591.542367 112.2 
L 583.80531 112.2 
L 594.854595 66.9 
L 604.030361 66.9 
L 615.079646 112.2 
L 607.348983 112.2 
z
M 595.359741 95.540163 
L 603.531609 95.540163 
L 599.452069 77.521132 
z
" style="fill:#008000;"/>
   </g>
   <g id="patch_49">
    <path clip-path="url(#p310430698e)" d="M 583.80531 21.6 
L 615.079646 21.6 
L 615.079646 30.434762 
L 603.828158 30.434762 
L 603.828158 66.9 
L 595.078617 66.9 
L 595.078617 30.434762 
L 583.80531 30.434762 
z
" style="fill:#ff0000;"/>
   </g>
   <g id="patch_50">
    <path clip-path="url(#p310430698e)" d="M 616.725664 142.4 
L 648 142.4 
L 648 145.344921 
L 636.748512 145.344921 
L 636.748512 157.5 
L 627.998971 157.5 
L 627.998971 145.344921 
L 616.725664 145.344921 
z
" style="fill:#ff0000;"/>
   </g>
   <g id="patch_51">
    <path clip-path="url(#p310430698e)" d="M 648 140.235282 
Q 645.383956 141.308283 642.555161 141.851023 
Q 639.726366 142.4 636.645422 142.4 
Q 627.457749 142.4 622.091706 138.332576 
Q 616.725664 134.265152 616.725664 127.309358 
Q 616.725664 120.32861 622.091706 116.267424 
Q 627.457749 112.2 636.645422 112.2 
Q 639.726366 112.2 642.555161 112.748977 
Q 645.383956 113.291717 648 114.364718 
L 648 120.384755 
Q 645.360317 118.962404 642.79943 118.301136 
Q 640.238543 117.639868 637.409749 117.639868 
Q 632.335253 117.639868 629.427662 120.216319 
Q 626.52795 122.786532 626.52795 127.309358 
Q 626.52795 131.813468 629.427662 134.389919 
Q 632.335253 136.960132 637.409749 136.960132 
Q 640.238543 136.960132 642.79943 136.298864 
Q 645.360317 135.631357 648 134.209006 
z
" style="fill:#0000ff;"/>
   </g>
   <g id="patch_52">
    <path clip-path="url(#p310430698e)" d="M 638.389424 103.94775 
L 626.361817 103.94775 
L 624.462721 112.2 
L 616.725664 112.2 
L 627.774949 66.9 
L 636.950715 66.9 
L 648 112.2 
L 640.269337 112.2 
z
M 628.280095 95.540163 
L 636.451963 95.540163 
L 632.372423 77.521132 
z
" style="fill:#008000;"/>
   </g>
   <g id="patch_53">
    <path clip-path="url(#p310430698e)" d="M 648 62.801384 
Q 644.845932 64.850692 641.453557 65.880025 
Q 638.061181 66.9 634.444517 66.9 
Q 626.271976 66.9 621.49882 60.798864 
Q 616.725664 54.697728 616.725664 44.264036 
Q 616.725664 33.708697 621.582928 27.654348 
Q 626.447202 21.6 634.907113 21.6 
Q 638.166317 21.6 641.152168 22.423466 
Q 644.145028 23.237575 646.794445 24.847077 
L 646.794445 33.877133 
Q 644.06092 31.80911 641.35543 30.789134 
Q 638.649941 29.759802 635.930433 29.759802 
Q 630.897943 29.759802 628.171426 33.521545 
Q 625.444909 37.273931 625.444909 44.264036 
Q 625.444909 51.188639 628.073299 54.969097 
Q 630.701689 58.740198 635.537927 58.740198 
Q 636.855626 58.740198 637.984082 58.524974 
Q 639.112537 58.300392 640.009694 57.832514 
L 640.009694 49.354555 
L 634.85805 49.354555 
L 634.85805 41.802995 
L 648 41.802995 
z
" style="fill:#ffa600;"/>
   </g>
  </g>
 </g>
 <defs>
  <clipPath id="p310430698e">
   <rect height="135.9" width="558" x="90" y="21.6"/>
  </clipPath>
 </defs>
</svg>
