<?xml version="1.0" encoding="utf-8" standalone="no"?>
<!DOCTYPE svg PUBLIC "-//W3C//DTD SVG 1.1//EN"
  "http://www.w3.org/Graphics/SVG/1.1/DTD/svg11.dtd">
<!-- Created with matplotlib (https://matplotlib.org/) -->
<svg height="180pt" version="1.1" viewBox="0 0 720 180" width="720pt" xmlns="http://www.w3.org/2000/svg" xmlns:xlink="http://www.w3.org/1999/xlink">
 <metadata>
  <rdf:RDF xmlns:cc="http://creativecommons.org/ns#" xmlns:dc="http://purl.org/dc/elements/1.1/" xmlns:rdf="http://www.w3.org/1999/02/22-rdf-syntax-ns#">
   <cc:Work>
    <dc:type rdf:resource="http://purl.org/dc/dcmitype/StillImage"/>
    <dc:date>2021-08-04T23:34:00.095669</dc:date>
    <dc:format>image/svg+xml</dc:format>
    <dc:creator>
     <cc:Agent>
      <dc:title>Matplotlib v3.3.2, https://matplotlib.org/</dc:title>
     </cc:Agent>
    </dc:creator>
   </cc:Work>
  </rdf:RDF>
 </metadata>
 <defs>
  <style type="text/css">*{stroke-linecap:butt;stroke-linejoin:round;}</style>
 </defs>
 <g id="figure_1">
  <g id="patch_1">
   <path d="M 0 180 
L 720 180 
L 720 0 
L 0 0 
z
" style="fill:none;"/>
  </g>
  <g id="axes_1">
   <g id="line2d_1">
    <path clip-path="url(#pdf22bfa555)" d="M 90 157.5 
L 648 157.5 
" style="fill:none;stroke:#000000;stroke-linecap:square;stroke-width:0.5;"/>
   </g>
   <g id="patch_2">
    <path clip-path="url(#pdf22bfa555)" d="M 278.30807 132.743249 
L 173.760408 132.743249 
L 157.252882 157.5 
L 90 157.5 
L 186.043785 21.6 
L 265.802369 21.6 
L 361.846154 157.5 
L 294.648853 157.5 
z
M 190.434676 107.520489 
L 261.467059 107.520489 
L 226.006448 53.463395 
z
" style="fill:#008000;"/>
   </g>
   <g id="patch_3">
    <path clip-path="url(#pdf22bfa555)" d="M 648 145.204152 
Q 620.583871 151.352076 591.0963 154.440074 
Q 561.60873 157.5 530.171568 157.5 
Q 459.133331 157.5 417.643589 139.196592 
Q 376.153846 120.893183 376.153846 89.592109 
Q 376.153846 57.92609 418.374685 39.763045 
Q 460.656449 21.6 534.192601 21.6 
Q 562.522601 21.6 588.476537 24.070399 
Q 614.491397 26.512725 637.520946 31.341231 
L 637.520946 58.431398 
Q 613.760301 52.227329 590.243354 49.167403 
Q 566.726408 46.079405 543.087612 46.079405 
Q 499.343654 46.079405 475.643933 57.364635 
Q 451.944213 68.621793 451.944213 89.592109 
Q 451.944213 110.365916 474.790987 121.707292 
Q 497.637762 133.020595 539.675827 133.020595 
Q 551.129676 133.020595 560.938558 132.374923 
Q 570.74744 131.701177 578.545806 130.297542 
L 578.545806 104.863665 
L 533.766128 104.863665 
L 533.766128 82.208986 
L 648 82.208986 
z
" style="fill:#ffa600;"/>
   </g>
  </g>
 </g>
 <defs>
  <clipPath id="pdf22bfa555">
   <rect height="135.9" width="558" x="90" y="21.6"/>
  </clipPath>
 </defs>
</svg>
