<?xml version="1.0" encoding="utf-8" standalone="no"?>
<!DOCTYPE svg PUBLIC "-//W3C//DTD SVG 1.1//EN"
  "http://www.w3.org/Graphics/SVG/1.1/DTD/svg11.dtd">
<!-- Created with matplotlib (https://matplotlib.org/) -->
<svg height="180pt" version="1.1" viewBox="0 0 720 180" width="720pt" xmlns="http://www.w3.org/2000/svg" xmlns:xlink="http://www.w3.org/1999/xlink">
 <metadata>
  <rdf:RDF xmlns:cc="http://creativecommons.org/ns#" xmlns:dc="http://purl.org/dc/elements/1.1/" xmlns:rdf="http://www.w3.org/1999/02/22-rdf-syntax-ns#">
   <cc:Work>
    <dc:type rdf:resource="http://purl.org/dc/dcmitype/StillImage"/>
    <dc:date>2021-08-04T23:33:30.712406</dc:date>
    <dc:format>image/svg+xml</dc:format>
    <dc:creator>
     <cc:Agent>
      <dc:title>Matplotlib v3.3.2, https://matplotlib.org/</dc:title>
     </cc:Agent>
    </dc:creator>
   </cc:Work>
  </rdf:RDF>
 </metadata>
 <defs>
  <style type="text/css">*{stroke-linecap:butt;stroke-linejoin:round;}</style>
 </defs>
 <g id="figure_1">
  <g id="patch_1">
   <path d="M 0 180 
L 720 180 
L 720 0 
L 0 0 
z
" style="fill:none;"/>
  </g>
  <g id="axes_1">
   <g id="line2d_1">
    <path clip-path="url(#p77d55f2405)" d="M 90 157.5 
L 648 157.5 
" style="fill:none;stroke:#000000;stroke-linecap:square;stroke-width:0.5;"/>
   </g>
   <g id="patch_2">
    <path clip-path="url(#p77d55f2405)" d="M 111.66376 154.74925 
L 99.636153 154.74925 
L 97.737057 157.5 
L 90 157.5 
L 101.049285 142.4 
L 110.225051 142.4 
L 121.274336 157.5 
L 113.543673 157.5 
z
M 101.554432 151.946721 
L 109.726299 151.946721 
L 105.64676 145.940377 
z
" style="fill:#008000;"/>
   </g>
   <g id="patch_3">
    <path clip-path="url(#p77d55f2405)" d="M 90 127.3 
L 121.274336 127.3 
L 121.274336 130.244921 
L 110.022848 130.244921 
L 110.022848 142.4 
L 101.273307 142.4 
L 101.273307 130.244921 
L 90 130.244921 
z
" style="fill:#ff0000;"/>
   </g>
   <g id="patch_4">
    <path clip-path="url(#p77d55f2405)" d="M 121.274336 124.052923 
Q 118.658292 125.662425 115.829497 126.476534 
Q 113.000702 127.3 109.919759 127.3 
Q 100.732085 127.3 95.366043 121.198864 
Q 90 115.097728 90 104.664036 
Q 90 94.192915 95.366043 88.101136 
Q 100.732085 82 109.919759 82 
Q 113.000702 82 115.829497 82.823466 
Q 118.658292 83.637575 121.274336 85.247077 
L 121.274336 94.277133 
Q 118.634653 92.143607 116.073766 91.151704 
Q 113.51288 90.159802 110.684085 90.159802 
Q 105.609589 90.159802 102.701998 94.024478 
Q 99.802286 97.879798 99.802286 104.664036 
Q 99.802286 111.420202 102.701998 115.284879 
Q 105.609589 119.140198 110.684085 119.140198 
Q 113.51288 119.140198 116.073766 118.148296 
Q 118.634653 117.147036 121.274336 115.01351 
z
" style="fill:#0000ff;"/>
   </g>
   <g id="patch_5">
    <path clip-path="url(#p77d55f2405)" d="M 121.274336 77.901384 
Q 118.120268 79.950692 114.727893 80.980025 
Q 111.335518 82 107.718853 82 
Q 99.546312 82 94.773156 75.898864 
Q 90 69.797728 90 59.364036 
Q 90 48.808697 94.857265 42.754348 
Q 99.721538 36.7 108.18145 36.7 
Q 111.440653 36.7 114.426504 37.523466 
Q 117.419364 38.337575 120.068781 39.947077 
L 120.068781 48.977133 
Q 117.335256 46.90911 114.629766 45.889134 
Q 111.924277 44.859802 109.204769 44.859802 
Q 104.172279 44.859802 101.445762 48.621545 
Q 98.719246 52.373931 98.719246 59.364036 
Q 98.719246 66.288639 101.347636 70.069097 
Q 103.976026 73.840198 108.812263 73.840198 
Q 110.129963 73.840198 111.258418 73.624974 
Q 112.386874 73.400392 113.284031 72.932514 
L 113.284031 64.454555 
L 108.132386 64.454555 
L 108.132386 56.902995 
L 121.274336 56.902995 
z
" style="fill:#ffa600;"/>
   </g>
   <g id="patch_6">
    <path clip-path="url(#p77d55f2405)" d="M 122.920354 127.3 
L 154.19469 127.3 
L 154.19469 133.189841 
L 142.943202 133.189841 
L 142.943202 157.5 
L 134.193661 157.5 
L 134.193661 133.189841 
L 122.920354 133.189841 
z
" style="fill:#ff0000;"/>
   </g>
   <g id="patch_7">
    <path clip-path="url(#p77d55f2405)" d="M 144.584114 110.795499 
L 132.556507 110.795499 
L 130.657411 127.3 
L 122.920354 127.3 
L 133.969639 36.7 
L 143.145405 36.7 
L 154.19469 127.3 
L 146.464027 127.3 
z
M 134.474786 93.980326 
L 142.646653 93.980326 
L 138.567114 57.942263 
z
" style="fill:#008000;"/>
   </g>
   <g id="patch_8">
    <path clip-path="url(#p77d55f2405)" d="M 177.504468 151.9985 
L 165.476861 151.9985 
L 163.577765 157.5 
L 155.840708 157.5 
L 166.889993 127.3 
L 176.065759 127.3 
L 187.115044 157.5 
L 179.384381 157.5 
z
M 167.39514 146.393442 
L 175.567007 146.393442 
L 171.487467 134.380754 
z
" style="fill:#008000;"/>
   </g>
   <g id="patch_9">
    <path clip-path="url(#p77d55f2405)" d="M 155.840708 97.1 
L 187.115044 97.1 
L 187.115044 102.989841 
L 175.863556 102.989841 
L 175.863556 127.3 
L 167.114015 127.3 
L 167.114015 102.989841 
L 155.840708 102.989841 
z
" style="fill:#ff0000;"/>
   </g>
   <g id="patch_10">
    <path clip-path="url(#p77d55f2405)" d="M 187.115044 91.635179 
Q 183.960976 94.367589 180.568601 95.740033 
Q 177.176226 97.1 173.559561 97.1 
Q 165.38702 97.1 160.613864 88.965152 
Q 155.840708 80.830304 155.840708 66.918715 
Q 155.840708 52.844929 160.697973 44.772464 
Q 165.562246 36.7 174.022158 36.7 
Q 177.281361 36.7 180.267212 37.797955 
Q 183.260072 38.883433 185.909489 41.029436 
L 185.909489 53.06951 
Q 183.175964 50.312146 180.470474 48.952179 
Q 177.764985 47.579736 175.045477 47.579736 
Q 170.012987 47.579736 167.28647 52.595394 
Q 164.559954 57.598575 164.559954 66.918715 
Q 164.559954 76.151518 167.188344 81.19213 
Q 169.816734 86.220264 174.652971 86.220264 
Q 175.970671 86.220264 177.099126 85.933299 
Q 178.227582 85.633857 179.124739 85.010019 
L 179.124739 73.706073 
L 173.973094 73.706073 
L 173.973094 63.637327 
L 187.115044 63.637327 
z
" style="fill:#ffa600;"/>
   </g>
   <g id="patch_11">
    <path clip-path="url(#p77d55f2405)" d="M 220.035398 154.767589 
Q 216.88133 156.133795 213.488955 156.820017 
Q 210.09658 157.5 206.479915 157.5 
Q 198.307374 157.5 193.534218 153.432576 
Q 188.761062 149.365152 188.761062 142.409358 
Q 188.761062 135.372464 193.618327 131.336232 
Q 198.4826 127.3 206.942512 127.3 
Q 210.201715 127.3 213.187566 127.848977 
Q 216.180426 128.391717 218.829843 129.464718 
L 218.829843 135.484755 
Q 216.096318 134.106073 213.390828 133.42609 
Q 210.685339 132.739868 207.965831 132.739868 
Q 202.933341 132.739868 200.206824 135.247697 
Q 197.480308 137.749287 197.480308 142.409358 
Q 197.480308 147.025759 200.108698 149.546065 
Q 202.737088 152.060132 207.573325 152.060132 
Q 208.891025 152.060132 210.01948 151.916649 
Q 211.147936 151.766928 212.045093 151.455009 
L 212.045093 145.803037 
L 206.893448 145.803037 
L 206.893448 140.768663 
L 220.035398 140.768663 
z
" style="fill:#ffa600;"/>
   </g>
   <g id="patch_12">
    <path clip-path="url(#p77d55f2405)" d="M 220.035398 124.052923 
Q 217.419354 125.662425 214.590559 126.476534 
Q 211.761764 127.3 208.680821 127.3 
Q 199.493147 127.3 194.127105 121.198864 
Q 188.761062 115.097728 188.761062 104.664036 
Q 188.761062 94.192915 194.127105 88.101136 
Q 199.493147 82 208.680821 82 
Q 211.761764 82 214.590559 82.823466 
Q 217.419354 83.637575 220.035398 85.247077 
L 220.035398 94.277133 
Q 217.395715 92.143607 214.834828 91.151704 
Q 212.273942 90.159802 209.445147 90.159802 
Q 204.370651 90.159802 201.46306 94.024478 
Q 198.563348 97.879798 198.563348 104.664036 
Q 198.563348 111.420202 201.46306 115.284879 
Q 204.370651 119.140198 209.445147 119.140198 
Q 212.273942 119.140198 214.834828 118.148296 
Q 217.395715 117.147036 220.035398 115.01351 
z
" style="fill:#0000ff;"/>
   </g>
   <g id="patch_13">
    <path clip-path="url(#p77d55f2405)" d="M 188.761062 36.7 
L 220.035398 36.7 
L 220.035398 45.534762 
L 208.78391 45.534762 
L 208.78391 82 
L 200.034369 82 
L 200.034369 45.534762 
L 188.761062 45.534762 
z
" style="fill:#ff0000;"/>
   </g>
   <g id="patch_14">
    <path clip-path="url(#p77d55f2405)" d="M 221.681416 127.3 
L 252.955752 127.3 
L 252.955752 133.189841 
L 241.704264 133.189841 
L 241.704264 157.5 
L 232.954723 157.5 
L 232.954723 133.189841 
L 221.681416 133.189841 
z
" style="fill:#ff0000;"/>
   </g>
   <g id="patch_15">
    <path clip-path="url(#p77d55f2405)" d="M 252.955752 120.805846 
Q 250.339708 124.02485 247.510913 125.653068 
Q 244.682118 127.3 241.601175 127.3 
Q 232.413501 127.3 227.047459 115.097728 
Q 221.681416 102.895455 221.681416 82.028073 
Q 221.681416 61.085829 227.047459 48.902272 
Q 232.413501 36.7 241.601175 36.7 
Q 244.682118 36.7 247.510913 38.346932 
Q 250.339708 39.97515 252.955752 43.194154 
L 252.955752 61.254266 
Q 250.316069 56.987213 247.755182 55.003408 
Q 245.194296 53.019603 242.365501 53.019603 
Q 237.291005 53.019603 234.383414 60.748957 
Q 231.483702 68.459595 231.483702 82.028073 
Q 231.483702 95.540405 234.383414 103.269758 
Q 237.291005 110.980397 242.365501 110.980397 
Q 245.194296 110.980397 247.755182 108.996592 
Q 250.316069 106.994071 252.955752 102.727019 
z
" style="fill:#0000ff;"/>
   </g>
   <g id="patch_16">
    <path clip-path="url(#p77d55f2405)" d="M 285.876106 154.767589 
Q 282.722038 156.133795 279.329663 156.820017 
Q 275.937288 157.5 272.320623 157.5 
Q 264.148082 157.5 259.374926 153.432576 
Q 254.60177 149.365152 254.60177 142.409358 
Q 254.60177 135.372464 259.459035 131.336232 
Q 264.323308 127.3 272.78322 127.3 
Q 276.042423 127.3 279.028274 127.848977 
Q 282.021134 128.391717 284.670551 129.464718 
L 284.670551 135.484755 
Q 281.937026 134.106073 279.231536 133.42609 
Q 276.526047 132.739868 273.806539 132.739868 
Q 268.774049 132.739868 266.047532 135.247697 
Q 263.321016 137.749287 263.321016 142.409358 
Q 263.321016 147.025759 265.949406 149.546065 
Q 268.577796 152.060132 273.414033 152.060132 
Q 274.731733 152.060132 275.860188 151.916649 
Q 276.988644 151.766928 277.885801 151.455009 
L 277.885801 145.803037 
L 272.734156 145.803037 
L 272.734156 140.768663 
L 285.876106 140.768663 
z
" style="fill:#ffa600;"/>
   </g>
   <g id="patch_17">
    <path clip-path="url(#p77d55f2405)" d="M 276.26553 119.04775 
L 264.237923 119.04775 
L 262.338827 127.3 
L 254.60177 127.3 
L 265.651055 82 
L 274.826821 82 
L 285.876106 127.3 
L 278.145443 127.3 
z
M 266.156202 110.640163 
L 274.328069 110.640163 
L 270.248529 92.621132 
z
" style="fill:#008000;"/>
   </g>
   <g id="patch_18">
    <path clip-path="url(#p77d55f2405)" d="M 285.876106 78.752923 
Q 283.260062 80.362425 280.431267 81.176534 
Q 277.602472 82 274.521529 82 
Q 265.333855 82 259.967812 75.898864 
Q 254.60177 69.797728 254.60177 59.364036 
Q 254.60177 48.892915 259.967812 42.801136 
Q 265.333855 36.7 274.521529 36.7 
Q 277.602472 36.7 280.431267 37.523466 
Q 283.260062 38.337575 285.876106 39.947077 
L 285.876106 48.977133 
Q 283.236423 46.843607 280.675536 45.851704 
Q 278.11465 44.859802 275.285855 44.859802 
Q 270.211359 44.859802 267.303768 48.724478 
Q 264.404056 52.579798 264.404056 59.364036 
Q 264.404056 66.120202 267.303768 69.984879 
Q 270.211359 73.840198 275.285855 73.840198 
Q 278.11465 73.840198 280.675536 72.848296 
Q 283.236423 71.847036 285.876106 69.71351 
z
" style="fill:#0000ff;"/>
   </g>
   <g id="patch_19">
    <path clip-path="url(#p77d55f2405)" d="M 318.79646 155.335282 
Q 316.180416 156.408283 313.351621 156.951023 
Q 310.522826 157.5 307.441883 157.5 
Q 298.254209 157.5 292.888166 153.432576 
Q 287.522124 149.365152 287.522124 142.409358 
Q 287.522124 135.42861 292.888166 131.367424 
Q 298.254209 127.3 307.441883 127.3 
Q 310.522826 127.3 313.351621 127.848977 
Q 316.180416 128.391717 318.79646 129.464718 
L 318.79646 135.484755 
Q 316.156777 134.062404 313.59589 133.401136 
Q 311.035004 132.739868 308.206209 132.739868 
Q 303.131713 132.739868 300.224122 135.316319 
Q 297.32441 137.886532 297.32441 142.409358 
Q 297.32441 146.913468 300.224122 149.489919 
Q 303.131713 152.060132 308.206209 152.060132 
Q 311.035004 152.060132 313.59589 151.398864 
Q 316.156777 150.731357 318.79646 149.309006 
z
" style="fill:#0000ff;"/>
   </g>
   <g id="patch_20">
    <path clip-path="url(#p77d55f2405)" d="M 287.522124 36.7 
L 318.79646 36.7 
L 318.79646 54.369524 
L 307.544972 54.369524 
L 307.544972 127.3 
L 298.795431 127.3 
L 298.795431 54.369524 
L 287.522124 54.369524 
z
" style="fill:#ff0000;"/>
   </g>
   <g id="patch_21">
    <path clip-path="url(#p77d55f2405)" d="M 342.106238 132.743249 
L 330.078631 132.743249 
L 328.179535 157.5 
L 320.442478 157.5 
L 331.491763 21.6 
L 340.667529 21.6 
L 351.716814 157.5 
L 343.986151 157.5 
z
M 331.99691 107.520489 
L 340.168777 107.520489 
L 336.089237 53.463395 
z
" style="fill:#008000;"/>
   </g>
   <g id="patch_22">
    <path clip-path="url(#p77d55f2405)" d="M 375.026592 132.743249 
L 362.998985 132.743249 
L 361.099889 157.5 
L 353.362832 157.5 
L 364.412117 21.6 
L 373.587883 21.6 
L 384.637168 157.5 
L 376.906505 157.5 
z
M 364.917264 107.520489 
L 373.089131 107.520489 
L 369.009591 53.463395 
z
" style="fill:#008000;"/>
   </g>
   <g id="patch_23">
    <path clip-path="url(#p77d55f2405)" d="M 407.946946 154.74925 
L 395.919339 154.74925 
L 394.020243 157.5 
L 386.283186 157.5 
L 397.332471 142.4 
L 406.508237 142.4 
L 417.557522 157.5 
L 409.826859 157.5 
z
M 397.837618 151.946721 
L 406.009485 151.946721 
L 401.929945 145.940377 
z
" style="fill:#008000;"/>
   </g>
   <g id="patch_24">
    <path clip-path="url(#p77d55f2405)" d="M 417.557522 141.033795 
Q 414.403454 141.716897 411.011079 142.060008 
Q 407.618703 142.4 404.002039 142.4 
Q 395.829498 142.4 391.056342 140.366288 
Q 386.283186 138.332576 386.283186 134.854679 
Q 386.283186 131.336232 391.140451 129.318116 
Q 396.004724 127.3 404.464635 127.3 
Q 407.723839 127.3 410.70969 127.574489 
Q 413.70255 127.845858 416.351967 128.382359 
L 416.351967 131.392378 
Q 413.618442 130.703037 410.912952 130.363045 
Q 408.207463 130.019934 405.487955 130.019934 
Q 400.455465 130.019934 397.728948 131.273848 
Q 395.002432 132.524644 395.002432 134.854679 
Q 395.002432 137.16288 397.630822 138.423032 
Q 400.259212 139.680066 405.095449 139.680066 
Q 406.413149 139.680066 407.541604 139.608325 
Q 408.670059 139.533464 409.567217 139.377505 
L 409.567217 136.551518 
L 404.415572 136.551518 
L 404.415572 134.034332 
L 417.557522 134.034332 
z
" style="fill:#ffa600;"/>
   </g>
   <g id="patch_25">
    <path clip-path="url(#p77d55f2405)" d="M 386.283186 97.1 
L 417.557522 97.1 
L 417.557522 102.989841 
L 406.306034 102.989841 
L 406.306034 127.3 
L 397.556493 127.3 
L 397.556493 102.989841 
L 386.283186 102.989841 
z
" style="fill:#ff0000;"/>
   </g>
   <g id="patch_26">
    <path clip-path="url(#p77d55f2405)" d="M 417.557522 91.688205 
Q 414.941478 94.370709 412.112683 95.727556 
Q 409.283888 97.1 406.202945 97.1 
Q 397.015271 97.1 391.649228 86.93144 
Q 386.283186 76.76288 386.283186 59.373394 
Q 386.283186 41.921524 391.649228 31.76856 
Q 397.015271 21.6 406.202945 21.6 
Q 409.283888 21.6 412.112683 22.972444 
Q 414.941478 24.329291 417.557522 27.011795 
L 417.557522 42.061888 
Q 414.917839 38.506011 412.356952 36.85284 
Q 409.796066 35.199669 406.967271 35.199669 
Q 401.892775 35.199669 398.985184 41.640797 
Q 396.085472 48.066329 396.085472 59.373394 
Q 396.085472 70.633671 398.985184 77.074799 
Q 401.892775 83.500331 406.967271 83.500331 
Q 409.796066 83.500331 412.356952 81.84716 
Q 414.917839 80.178393 417.557522 76.622516 
z
" style="fill:#0000ff;"/>
   </g>
   <g id="patch_27">
    <path clip-path="url(#p77d55f2405)" d="M 440.8673 154.74925 
L 428.839693 154.74925 
L 426.940597 157.5 
L 419.20354 157.5 
L 430.252825 142.4 
L 439.428591 142.4 
L 450.477876 157.5 
L 442.747213 157.5 
z
M 430.757972 151.946721 
L 438.929839 151.946721 
L 434.850299 145.940377 
z
" style="fill:#008000;"/>
   </g>
   <g id="patch_28">
    <path clip-path="url(#p77d55f2405)" d="M 450.477876 138.301384 
Q 447.323808 140.350692 443.931433 141.380025 
Q 440.539057 142.4 436.922393 142.4 
Q 428.749852 142.4 423.976696 136.298864 
Q 419.20354 130.197728 419.20354 119.764036 
Q 419.20354 109.208697 424.060805 103.154348 
Q 428.925078 97.1 437.384989 97.1 
Q 440.644193 97.1 443.630044 97.923466 
Q 446.622904 98.737575 449.272321 100.347077 
L 449.272321 109.377133 
Q 446.538796 107.30911 443.833306 106.289134 
Q 441.127817 105.259802 438.408309 105.259802 
Q 433.375819 105.259802 430.649302 109.021545 
Q 427.922786 112.773931 427.922786 119.764036 
Q 427.922786 126.688639 430.551176 130.469097 
Q 433.179565 134.240198 438.015803 134.240198 
Q 439.333503 134.240198 440.461958 134.024974 
Q 441.590413 133.800392 442.487571 133.332514 
L 442.487571 124.854555 
L 437.335926 124.854555 
L 437.335926 117.302995 
L 450.477876 117.302995 
z
" style="fill:#ffa600;"/>
   </g>
   <g id="patch_29">
    <path clip-path="url(#p77d55f2405)" d="M 450.477876 91.688205 
Q 447.861832 94.370709 445.033037 95.727556 
Q 442.204242 97.1 439.123298 97.1 
Q 429.935625 97.1 424.569582 86.93144 
Q 419.20354 76.76288 419.20354 59.373394 
Q 419.20354 41.921524 424.569582 31.76856 
Q 429.935625 21.6 439.123298 21.6 
Q 442.204242 21.6 445.033037 22.972444 
Q 447.861832 24.329291 450.477876 27.011795 
L 450.477876 42.061888 
Q 447.838193 38.506011 445.277306 36.85284 
Q 442.71642 35.199669 439.887625 35.199669 
Q 434.813129 35.199669 431.905538 41.640797 
Q 429.005826 48.066329 429.005826 59.373394 
Q 429.005826 70.633671 431.905538 77.074799 
Q 434.813129 83.500331 439.887625 83.500331 
Q 442.71642 83.500331 445.277306 81.84716 
Q 447.838193 80.178393 450.477876 76.622516 
z
" style="fill:#0000ff;"/>
   </g>
   <g id="patch_30">
    <path clip-path="url(#p77d55f2405)" d="M 473.787654 132.743249 
L 461.760047 132.743249 
L 459.860951 157.5 
L 452.123894 157.5 
L 463.173179 21.6 
L 472.348945 21.6 
L 483.39823 157.5 
L 475.667567 157.5 
z
M 463.678326 107.520489 
L 471.850193 107.520489 
L 467.770653 53.463395 
z
" style="fill:#008000;"/>
   </g>
   <g id="patch_31">
    <path clip-path="url(#p77d55f2405)" d="M 485.044248 21.6 
L 516.318584 21.6 
L 516.318584 48.104286 
L 505.067096 48.104286 
L 505.067096 157.5 
L 496.317555 157.5 
L 496.317555 48.104286 
L 485.044248 48.104286 
z
" style="fill:#ff0000;"/>
   </g>
   <g id="patch_32">
    <path clip-path="url(#p77d55f2405)" d="M 549.238938 145.204152 
Q 546.08487 151.352076 542.692495 154.440074 
Q 539.300119 157.5 535.683455 157.5 
Q 527.510914 157.5 522.737758 139.196592 
Q 517.964602 120.893183 517.964602 89.592109 
Q 517.964602 57.92609 522.821866 39.763045 
Q 527.68614 21.6 536.146051 21.6 
Q 539.405255 21.6 542.391106 24.070399 
Q 545.383966 26.512725 548.033383 31.341231 
L 548.033383 58.431398 
Q 545.299858 52.227329 542.594368 49.167403 
Q 539.888879 46.079405 537.169371 46.079405 
Q 532.136881 46.079405 529.410364 57.364635 
Q 526.683847 68.621793 526.683847 89.592109 
Q 526.683847 110.365916 529.312237 121.707292 
Q 531.940627 133.020595 536.776865 133.020595 
Q 538.094565 133.020595 539.22302 132.374923 
Q 540.351475 131.701177 541.248633 130.297542 
L 541.248633 104.863665 
L 536.096988 104.863665 
L 536.096988 82.208986 
L 549.238938 82.208986 
z
" style="fill:#ffa600;"/>
   </g>
   <g id="patch_33">
    <path clip-path="url(#p77d55f2405)" d="M 582.159292 153.401384 
Q 579.005224 155.450692 575.612849 156.480025 
Q 572.220473 157.5 568.603809 157.5 
Q 560.431268 157.5 555.658112 151.398864 
Q 550.884956 145.297728 550.884956 134.864036 
Q 550.884956 124.308697 555.74222 118.254348 
Q 560.606494 112.2 569.066405 112.2 
Q 572.325609 112.2 575.31146 113.023466 
Q 578.30432 113.837575 580.953737 115.447077 
L 580.953737 124.477133 
Q 578.220212 122.40911 575.514722 121.389134 
Q 572.809233 120.359802 570.089725 120.359802 
Q 565.057235 120.359802 562.330718 124.121545 
Q 559.604201 127.873931 559.604201 134.864036 
Q 559.604201 141.788639 562.232591 145.569097 
Q 564.860981 149.340198 569.697219 149.340198 
Q 571.014919 149.340198 572.143374 149.124974 
Q 573.271829 148.900392 574.168986 148.432514 
L 574.168986 139.954555 
L 569.017342 139.954555 
L 569.017342 132.402995 
L 582.159292 132.402995 
z
" style="fill:#ffa600;"/>
   </g>
   <g id="patch_34">
    <path clip-path="url(#p77d55f2405)" d="M 572.548716 95.695499 
L 560.521109 95.695499 
L 558.622013 112.2 
L 550.884956 112.2 
L 561.934241 21.6 
L 571.110007 21.6 
L 582.159292 112.2 
L 574.428629 112.2 
z
M 562.439387 78.880326 
L 570.611255 78.880326 
L 566.531715 42.842263 
z
" style="fill:#008000;"/>
   </g>
   <g id="patch_35">
    <path clip-path="url(#p77d55f2405)" d="M 615.079646 156.133795 
Q 611.925578 156.816897 608.533203 157.160008 
Q 605.140827 157.5 601.524163 157.5 
Q 593.351622 157.5 588.578466 155.466288 
Q 583.80531 153.432576 583.80531 149.954679 
Q 583.80531 146.436232 588.662574 144.418116 
Q 593.526848 142.4 601.986759 142.4 
Q 605.245963 142.4 608.231814 142.674489 
Q 611.224674 142.945858 613.874091 143.482359 
L 613.874091 146.492378 
Q 611.140566 145.803037 608.435076 145.463045 
Q 605.729587 145.119934 603.010079 145.119934 
Q 597.977589 145.119934 595.251072 146.373848 
Q 592.524555 147.624644 592.524555 149.954679 
Q 592.524555 152.26288 595.152945 153.523032 
Q 597.781335 154.780066 602.617573 154.780066 
Q 603.935272 154.780066 605.063728 154.708325 
Q 606.192183 154.633464 607.08934 154.477505 
L 607.08934 151.651518 
L 601.937696 151.651518 
L 601.937696 149.134332 
L 615.079646 149.134332 
z
" style="fill:#ffa600;"/>
   </g>
   <g id="patch_36">
    <path clip-path="url(#p77d55f2405)" d="M 583.80531 127.3 
L 615.079646 127.3 
L 615.079646 130.244921 
L 603.828158 130.244921 
L 603.828158 142.4 
L 595.078617 142.4 
L 595.078617 130.244921 
L 583.80531 130.244921 
z
" style="fill:#ff0000;"/>
   </g>
   <g id="patch_37">
    <path clip-path="url(#p77d55f2405)" d="M 605.46907 121.7985 
L 593.441463 121.7985 
L 591.542367 127.3 
L 583.80531 127.3 
L 594.854595 97.1 
L 604.030361 97.1 
L 615.079646 127.3 
L 607.348983 127.3 
z
M 595.359741 116.193442 
L 603.531609 116.193442 
L 599.452069 104.180754 
z
" style="fill:#008000;"/>
   </g>
   <g id="patch_38">
    <path clip-path="url(#p77d55f2405)" d="M 615.079646 91.688205 
Q 612.463602 94.370709 609.634807 95.727556 
Q 606.806012 97.1 603.725068 97.1 
Q 594.537395 97.1 589.171352 86.93144 
Q 583.80531 76.76288 583.80531 59.373394 
Q 583.80531 41.921524 589.171352 31.76856 
Q 594.537395 21.6 603.725068 21.6 
Q 606.806012 21.6 609.634807 22.972444 
Q 612.463602 24.329291 615.079646 27.011795 
L 615.079646 42.061888 
Q 612.439963 38.506011 609.879076 36.85284 
Q 607.318189 35.199669 604.489395 35.199669 
Q 599.414899 35.199669 596.507308 41.640797 
Q 593.607596 48.066329 593.607596 59.373394 
Q 593.607596 70.633671 596.507308 77.074799 
Q 599.414899 83.500331 604.489395 83.500331 
Q 607.318189 83.500331 609.879076 81.84716 
Q 612.439963 80.178393 615.079646 76.622516 
z
" style="fill:#0000ff;"/>
   </g>
   <g id="patch_39">
    <path clip-path="url(#p77d55f2405)" d="M 648 156.133795 
Q 644.845932 156.816897 641.453557 157.160008 
Q 638.061181 157.5 634.444517 157.5 
Q 626.271976 157.5 621.49882 155.466288 
Q 616.725664 153.432576 616.725664 149.954679 
Q 616.725664 146.436232 621.582928 144.418116 
Q 626.447202 142.4 634.907113 142.4 
Q 638.166317 142.4 641.152168 142.674489 
Q 644.145028 142.945858 646.794445 143.482359 
L 646.794445 146.492378 
Q 644.06092 145.803037 641.35543 145.463045 
Q 638.649941 145.119934 635.930433 145.119934 
Q 630.897943 145.119934 628.171426 146.373848 
Q 625.444909 147.624644 625.444909 149.954679 
Q 625.444909 152.26288 628.073299 153.523032 
Q 630.701689 154.780066 635.537927 154.780066 
Q 636.855626 154.780066 637.984082 154.708325 
Q 639.112537 154.633464 640.009694 154.477505 
L 640.009694 151.651518 
L 634.85805 151.651518 
L 634.85805 149.134332 
L 648 149.134332 
z
" style="fill:#ffa600;"/>
   </g>
   <g id="patch_40">
    <path clip-path="url(#p77d55f2405)" d="M 616.725664 112.2 
L 648 112.2 
L 648 118.089841 
L 636.748512 118.089841 
L 636.748512 142.4 
L 627.998971 142.4 
L 627.998971 118.089841 
L 616.725664 118.089841 
z
" style="fill:#ff0000;"/>
   </g>
   <g id="patch_41">
    <path clip-path="url(#p77d55f2405)" d="M 638.389424 103.94775 
L 626.361817 103.94775 
L 624.462721 112.2 
L 616.725664 112.2 
L 627.774949 66.9 
L 636.950715 66.9 
L 648 112.2 
L 640.269337 112.2 
z
M 628.280095 95.540163 
L 636.451963 95.540163 
L 632.372423 77.521132 
z
" style="fill:#008000;"/>
   </g>
   <g id="patch_42">
    <path clip-path="url(#p77d55f2405)" d="M 648 63.652923 
Q 645.383956 65.262425 642.555161 66.076534 
Q 639.726366 66.9 636.645422 66.9 
Q 627.457749 66.9 622.091706 60.798864 
Q 616.725664 54.697728 616.725664 44.264036 
Q 616.725664 33.792915 622.091706 27.701136 
Q 627.457749 21.6 636.645422 21.6 
Q 639.726366 21.6 642.555161 22.423466 
Q 645.383956 23.237575 648 24.847077 
L 648 33.877133 
Q 645.360317 31.743607 642.79943 30.751704 
Q 640.238543 29.759802 637.409749 29.759802 
Q 632.335253 29.759802 629.427662 33.624478 
Q 626.52795 37.479798 626.52795 44.264036 
Q 626.52795 51.020202 629.427662 54.884879 
Q 632.335253 58.740198 637.409749 58.740198 
Q 640.238543 58.740198 642.79943 57.748296 
Q 645.360317 56.747036 648 54.61351 
z
" style="fill:#0000ff;"/>
   </g>
  </g>
 </g>
 <defs>
  <clipPath id="p77d55f2405">
   <rect height="135.9" width="558" x="90" y="21.6"/>
  </clipPath>
 </defs>
</svg>
