<?xml version="1.0" encoding="utf-8" standalone="no"?>
<!DOCTYPE svg PUBLIC "-//W3C//DTD SVG 1.1//EN"
  "http://www.w3.org/Graphics/SVG/1.1/DTD/svg11.dtd">
<!-- Created with matplotlib (https://matplotlib.org/) -->
<svg height="180pt" version="1.1" viewBox="0 0 720 180" width="720pt" xmlns="http://www.w3.org/2000/svg" xmlns:xlink="http://www.w3.org/1999/xlink">
 <metadata>
  <rdf:RDF xmlns:cc="http://creativecommons.org/ns#" xmlns:dc="http://purl.org/dc/elements/1.1/" xmlns:rdf="http://www.w3.org/1999/02/22-rdf-syntax-ns#">
   <cc:Work>
    <dc:type rdf:resource="http://purl.org/dc/dcmitype/StillImage"/>
    <dc:date>2021-08-04T23:33:29.584642</dc:date>
    <dc:format>image/svg+xml</dc:format>
    <dc:creator>
     <cc:Agent>
      <dc:title>Matplotlib v3.3.2, https://matplotlib.org/</dc:title>
     </cc:Agent>
    </dc:creator>
   </cc:Work>
  </rdf:RDF>
 </metadata>
 <defs>
  <style type="text/css">*{stroke-linecap:butt;stroke-linejoin:round;}</style>
 </defs>
 <g id="figure_1">
  <g id="patch_1">
   <path d="M 0 180 
L 720 180 
L 720 0 
L 0 0 
z
" style="fill:none;"/>
  </g>
  <g id="axes_1">
   <g id="line2d_1">
    <path clip-path="url(#p6a1227ab6d)" d="M 90 157.5 
L 648 157.5 
" style="fill:none;stroke:#000000;stroke-linecap:square;stroke-width:0.5;"/>
   </g>
   <g id="patch_2">
    <path clip-path="url(#p6a1227ab6d)" d="M 90 142.4 
L 121.274336 142.4 
L 121.274336 145.344921 
L 110.022848 145.344921 
L 110.022848 157.5 
L 101.273307 157.5 
L 101.273307 145.344921 
L 90 145.344921 
z
" style="fill:#ff0000;"/>
   </g>
   <g id="patch_3">
    <path clip-path="url(#p6a1227ab6d)" d="M 121.274336 139.667589 
Q 118.120268 141.033795 114.727893 141.720017 
Q 111.335518 142.4 107.718853 142.4 
Q 99.546312 142.4 94.773156 138.332576 
Q 90 134.265152 90 127.309358 
Q 90 120.272464 94.857265 116.236232 
Q 99.721538 112.2 108.18145 112.2 
Q 111.440653 112.2 114.426504 112.748977 
Q 117.419364 113.291717 120.068781 114.364718 
L 120.068781 120.384755 
Q 117.335256 119.006073 114.629766 118.32609 
Q 111.924277 117.639868 109.204769 117.639868 
Q 104.172279 117.639868 101.445762 120.147697 
Q 98.719246 122.649287 98.719246 127.309358 
Q 98.719246 131.925759 101.347636 134.446065 
Q 103.976026 136.960132 108.812263 136.960132 
Q 110.129963 136.960132 111.258418 136.816649 
Q 112.386874 136.666928 113.284031 136.355009 
L 113.284031 130.703037 
L 108.132386 130.703037 
L 108.132386 125.668663 
L 121.274336 125.668663 
z
" style="fill:#ffa600;"/>
   </g>
   <g id="patch_4">
    <path clip-path="url(#p6a1227ab6d)" d="M 111.66376 103.94775 
L 99.636153 103.94775 
L 97.737057 112.2 
L 90 112.2 
L 101.049285 66.9 
L 110.225051 66.9 
L 121.274336 112.2 
L 113.543673 112.2 
z
M 101.554432 95.540163 
L 109.726299 95.540163 
L 105.64676 77.521132 
z
" style="fill:#008000;"/>
   </g>
   <g id="patch_5">
    <path clip-path="url(#p6a1227ab6d)" d="M 121.274336 63.652923 
Q 118.658292 65.262425 115.829497 66.076534 
Q 113.000702 66.9 109.919759 66.9 
Q 100.732085 66.9 95.366043 60.798864 
Q 90 54.697728 90 44.264036 
Q 90 33.792915 95.366043 27.701136 
Q 100.732085 21.6 109.919759 21.6 
Q 113.000702 21.6 115.829497 22.423466 
Q 118.658292 23.237575 121.274336 24.847077 
L 121.274336 33.877133 
Q 118.634653 31.743607 116.073766 30.751704 
Q 113.51288 29.759802 110.684085 29.759802 
Q 105.609589 29.759802 102.701998 33.624478 
Q 99.802286 37.479798 99.802286 44.264036 
Q 99.802286 51.020202 102.701998 54.884879 
Q 105.609589 58.740198 110.684085 58.740198 
Q 113.51288 58.740198 116.073766 57.748296 
Q 118.634653 56.747036 121.274336 54.61351 
z
" style="fill:#0000ff;"/>
   </g>
   <g id="patch_6">
    <path clip-path="url(#p6a1227ab6d)" d="M 154.19469 156.133795 
Q 151.040622 156.816897 147.648247 157.160008 
Q 144.255872 157.5 140.639207 157.5 
Q 132.466666 157.5 127.69351 155.466288 
Q 122.920354 153.432576 122.920354 149.954679 
Q 122.920354 146.436232 127.777619 144.418116 
Q 132.641892 142.4 141.101804 142.4 
Q 144.361007 142.4 147.346858 142.674489 
Q 150.339718 142.945858 152.989135 143.482359 
L 152.989135 146.492378 
Q 150.25561 145.803037 147.55012 145.463045 
Q 144.844631 145.119934 142.125123 145.119934 
Q 137.092633 145.119934 134.366116 146.373848 
Q 131.6396 147.624644 131.6396 149.954679 
Q 131.6396 152.26288 134.26799 153.523032 
Q 136.89638 154.780066 141.732617 154.780066 
Q 143.050317 154.780066 144.178772 154.708325 
Q 145.307228 154.633464 146.204385 154.477505 
L 146.204385 151.651518 
L 141.05274 151.651518 
L 141.05274 149.134332 
L 154.19469 149.134332 
z
" style="fill:#ffa600;"/>
   </g>
   <g id="patch_7">
    <path clip-path="url(#p6a1227ab6d)" d="M 122.920354 127.3 
L 154.19469 127.3 
L 154.19469 130.244921 
L 142.943202 130.244921 
L 142.943202 142.4 
L 134.193661 142.4 
L 134.193661 130.244921 
L 122.920354 130.244921 
z
" style="fill:#ff0000;"/>
   </g>
   <g id="patch_8">
    <path clip-path="url(#p6a1227ab6d)" d="M 144.584114 119.04775 
L 132.556507 119.04775 
L 130.657411 127.3 
L 122.920354 127.3 
L 133.969639 82 
L 143.145405 82 
L 154.19469 127.3 
L 146.464027 127.3 
z
M 134.474786 110.640163 
L 142.646653 110.640163 
L 138.567114 92.621132 
z
" style="fill:#008000;"/>
   </g>
   <g id="patch_9">
    <path clip-path="url(#p6a1227ab6d)" d="M 154.19469 77.670564 
Q 151.578646 79.816567 148.749851 80.902045 
Q 145.921056 82 142.840113 82 
Q 133.652439 82 128.286397 73.865152 
Q 122.920354 65.730304 122.920354 51.818715 
Q 122.920354 37.85722 128.286397 29.734848 
Q 133.652439 21.6 142.840113 21.6 
Q 145.921056 21.6 148.749851 22.697955 
Q 151.578646 23.783433 154.19469 25.929436 
L 154.19469 37.96951 
Q 151.555007 35.124809 148.99412 33.802272 
Q 146.433234 32.479736 143.604439 32.479736 
Q 138.529943 32.479736 135.622352 37.632638 
Q 132.72264 42.773063 132.72264 51.818715 
Q 132.72264 60.826937 135.622352 65.979839 
Q 138.529943 71.120264 143.604439 71.120264 
Q 146.433234 71.120264 148.99412 69.797728 
Q 151.555007 68.462714 154.19469 65.618013 
z
" style="fill:#0000ff;"/>
   </g>
   <g id="patch_10">
    <path clip-path="url(#p6a1227ab6d)" d="M 187.115044 156.133795 
Q 183.960976 156.816897 180.568601 157.160008 
Q 177.176226 157.5 173.559561 157.5 
Q 165.38702 157.5 160.613864 155.466288 
Q 155.840708 153.432576 155.840708 149.954679 
Q 155.840708 146.436232 160.697973 144.418116 
Q 165.562246 142.4 174.022158 142.4 
Q 177.281361 142.4 180.267212 142.674489 
Q 183.260072 142.945858 185.909489 143.482359 
L 185.909489 146.492378 
Q 183.175964 145.803037 180.470474 145.463045 
Q 177.764985 145.119934 175.045477 145.119934 
Q 170.012987 145.119934 167.28647 146.373848 
Q 164.559954 147.624644 164.559954 149.954679 
Q 164.559954 152.26288 167.188344 153.523032 
Q 169.816734 154.780066 174.652971 154.780066 
Q 175.970671 154.780066 177.099126 154.708325 
Q 178.227582 154.633464 179.124739 154.477505 
L 179.124739 151.651518 
L 173.973094 151.651518 
L 173.973094 149.134332 
L 187.115044 149.134332 
z
" style="fill:#ffa600;"/>
   </g>
   <g id="patch_11">
    <path clip-path="url(#p6a1227ab6d)" d="M 177.504468 120.393999 
L 165.476861 120.393999 
L 163.577765 142.4 
L 155.840708 142.4 
L 166.889993 21.6 
L 176.065759 21.6 
L 187.115044 142.4 
L 179.384381 142.4 
z
M 167.39514 97.973768 
L 175.567007 97.973768 
L 171.487467 49.923018 
z
" style="fill:#008000;"/>
   </g>
   <g id="patch_12">
    <path clip-path="url(#p6a1227ab6d)" d="M 220.035398 156.417641 
Q 217.419354 156.954142 214.590559 157.225511 
Q 211.761764 157.5 208.680821 157.5 
Q 199.493147 157.5 194.127105 155.466288 
Q 188.761062 153.432576 188.761062 149.954679 
Q 188.761062 146.464305 194.127105 144.433712 
Q 199.493147 142.4 208.680821 142.4 
Q 211.761764 142.4 214.590559 142.674489 
Q 217.419354 142.945858 220.035398 143.482359 
L 220.035398 146.492378 
Q 217.395715 145.781202 214.834828 145.450568 
Q 212.273942 145.119934 209.445147 145.119934 
Q 204.370651 145.119934 201.46306 146.408159 
Q 198.563348 147.693266 198.563348 149.954679 
Q 198.563348 152.206734 201.46306 153.49496 
Q 204.370651 154.780066 209.445147 154.780066 
Q 212.273942 154.780066 214.834828 154.449432 
Q 217.395715 154.115679 220.035398 153.404503 
z
" style="fill:#0000ff;"/>
   </g>
   <g id="patch_13">
    <path clip-path="url(#p6a1227ab6d)" d="M 220.035398 141.033795 
Q 216.88133 141.716897 213.488955 142.060008 
Q 210.09658 142.4 206.479915 142.4 
Q 198.307374 142.4 193.534218 140.366288 
Q 188.761062 138.332576 188.761062 134.854679 
Q 188.761062 131.336232 193.618327 129.318116 
Q 198.4826 127.3 206.942512 127.3 
Q 210.201715 127.3 213.187566 127.574489 
Q 216.180426 127.845858 218.829843 128.382359 
L 218.829843 131.392378 
Q 216.096318 130.703037 213.390828 130.363045 
Q 210.685339 130.019934 207.965831 130.019934 
Q 202.933341 130.019934 200.206824 131.273848 
Q 197.480308 132.524644 197.480308 134.854679 
Q 197.480308 137.16288 200.108698 138.423032 
Q 202.737088 139.680066 207.573325 139.680066 
Q 208.891025 139.680066 210.01948 139.608325 
Q 211.147936 139.533464 212.045093 139.377505 
L 212.045093 136.551518 
L 206.893448 136.551518 
L 206.893448 134.034332 
L 220.035398 134.034332 
z
" style="fill:#ffa600;"/>
   </g>
   <g id="patch_14">
    <path clip-path="url(#p6a1227ab6d)" d="M 188.761062 112.2 
L 220.035398 112.2 
L 220.035398 115.144921 
L 208.78391 115.144921 
L 208.78391 127.3 
L 200.034369 127.3 
L 200.034369 115.144921 
L 188.761062 115.144921 
z
" style="fill:#ff0000;"/>
   </g>
   <g id="patch_15">
    <path clip-path="url(#p6a1227ab6d)" d="M 210.424822 95.695499 
L 198.397215 95.695499 
L 196.498119 112.2 
L 188.761062 112.2 
L 199.810347 21.6 
L 208.986113 21.6 
L 220.035398 112.2 
L 212.304735 112.2 
z
M 200.315494 78.880326 
L 208.487361 78.880326 
L 204.407821 42.842263 
z
" style="fill:#008000;"/>
   </g>
   <g id="patch_16">
    <path clip-path="url(#p6a1227ab6d)" d="M 252.955752 155.335282 
Q 250.339708 156.408283 247.510913 156.951023 
Q 244.682118 157.5 241.601175 157.5 
Q 232.413501 157.5 227.047459 153.432576 
Q 221.681416 149.365152 221.681416 142.409358 
Q 221.681416 135.42861 227.047459 131.367424 
Q 232.413501 127.3 241.601175 127.3 
Q 244.682118 127.3 247.510913 127.848977 
Q 250.339708 128.391717 252.955752 129.464718 
L 252.955752 135.484755 
Q 250.316069 134.062404 247.755182 133.401136 
Q 245.194296 132.739868 242.365501 132.739868 
Q 237.291005 132.739868 234.383414 135.316319 
Q 231.483702 137.886532 231.483702 142.409358 
Q 231.483702 146.913468 234.383414 149.489919 
Q 237.291005 152.060132 242.365501 152.060132 
Q 245.194296 152.060132 247.755182 151.398864 
Q 250.316069 150.731357 252.955752 149.309006 
z
" style="fill:#0000ff;"/>
   </g>
   <g id="patch_17">
    <path clip-path="url(#p6a1227ab6d)" d="M 243.345176 119.04775 
L 231.317569 119.04775 
L 229.418473 127.3 
L 221.681416 127.3 
L 232.730701 82 
L 241.906467 82 
L 252.955752 127.3 
L 245.225089 127.3 
z
M 233.235848 110.640163 
L 241.407715 110.640163 
L 237.328175 92.621132 
z
" style="fill:#008000;"/>
   </g>
   <g id="patch_18">
    <path clip-path="url(#p6a1227ab6d)" d="M 252.955752 76.535179 
Q 249.801684 79.267589 246.409309 80.640033 
Q 243.016934 82 239.400269 82 
Q 231.227728 82 226.454572 73.865152 
Q 221.681416 65.730304 221.681416 51.818715 
Q 221.681416 37.744929 226.538681 29.672464 
Q 231.402954 21.6 239.862866 21.6 
Q 243.122069 21.6 246.10792 22.697955 
Q 249.10078 23.783433 251.750197 25.929436 
L 251.750197 37.96951 
Q 249.016672 35.212146 246.311182 33.852179 
Q 243.605693 32.479736 240.886185 32.479736 
Q 235.853695 32.479736 233.127178 37.495394 
Q 230.400662 42.498575 230.400662 51.818715 
Q 230.400662 61.051518 233.029052 66.09213 
Q 235.657442 71.120264 240.493679 71.120264 
Q 241.811379 71.120264 242.939834 70.833299 
Q 244.06829 70.533857 244.965447 69.910019 
L 244.965447 58.606073 
L 239.813802 58.606073 
L 239.813802 48.537327 
L 252.955752 48.537327 
z
" style="fill:#ffa600;"/>
   </g>
   <g id="patch_19">
    <path clip-path="url(#p6a1227ab6d)" d="M 276.26553 132.743249 
L 264.237923 132.743249 
L 262.338827 157.5 
L 254.60177 157.5 
L 265.651055 21.6 
L 274.826821 21.6 
L 285.876106 157.5 
L 278.145443 157.5 
z
M 266.156202 107.520489 
L 274.328069 107.520489 
L 270.248529 53.463395 
z
" style="fill:#008000;"/>
   </g>
   <g id="patch_20">
    <path clip-path="url(#p6a1227ab6d)" d="M 287.522124 21.6 
L 318.79646 21.6 
L 318.79646 48.104286 
L 307.544972 48.104286 
L 307.544972 157.5 
L 298.795431 157.5 
L 298.795431 48.104286 
L 287.522124 48.104286 
z
" style="fill:#ff0000;"/>
   </g>
   <g id="patch_21">
    <path clip-path="url(#p6a1227ab6d)" d="M 351.716814 145.204152 
Q 348.562746 151.352076 345.170371 154.440074 
Q 341.777996 157.5 338.161331 157.5 
Q 329.98879 157.5 325.215634 139.196592 
Q 320.442478 120.893183 320.442478 89.592109 
Q 320.442478 57.92609 325.299743 39.763045 
Q 330.164016 21.6 338.623928 21.6 
Q 341.883131 21.6 344.868982 24.070399 
Q 347.861842 26.512725 350.511259 31.341231 
L 350.511259 58.431398 
Q 347.777734 52.227329 345.072244 49.167403 
Q 342.366755 46.079405 339.647247 46.079405 
Q 334.614757 46.079405 331.88824 57.364635 
Q 329.161724 68.621793 329.161724 89.592109 
Q 329.161724 110.365916 331.790114 121.707292 
Q 334.418504 133.020595 339.254741 133.020595 
Q 340.572441 133.020595 341.700896 132.374923 
Q 342.829351 131.701177 343.726509 130.297542 
L 343.726509 104.863665 
L 338.574864 104.863665 
L 338.574864 82.208986 
L 351.716814 82.208986 
z
" style="fill:#ffa600;"/>
   </g>
   <g id="patch_22">
    <path clip-path="url(#p6a1227ab6d)" d="M 375.026592 149.24775 
L 362.998985 149.24775 
L 361.099889 157.5 
L 353.362832 157.5 
L 364.412117 112.2 
L 373.587883 112.2 
L 384.637168 157.5 
L 376.906505 157.5 
z
M 364.917264 140.840163 
L 373.089131 140.840163 
L 369.009591 122.821132 
z
" style="fill:#008000;"/>
   </g>
   <g id="patch_23">
    <path clip-path="url(#p6a1227ab6d)" d="M 384.637168 104.002768 
Q 381.4831 108.101384 378.090725 110.16005 
Q 374.698349 112.2 371.081685 112.2 
Q 362.909144 112.2 358.135988 99.997728 
Q 353.362832 87.795455 353.362832 66.928073 
Q 353.362832 45.817393 358.220097 33.708697 
Q 363.08437 21.6 371.544282 21.6 
Q 374.803485 21.6 377.789336 23.246932 
Q 380.782196 24.87515 383.431613 28.094154 
L 383.431613 46.154266 
Q 380.698088 42.018219 377.992598 39.978269 
Q 375.287109 37.919603 372.567601 37.919603 
Q 367.535111 37.919603 364.808594 45.44309 
Q 362.082078 52.947862 362.082078 66.928073 
Q 362.082078 80.777277 364.710468 88.338195 
Q 367.338858 95.880397 372.175095 95.880397 
Q 373.492795 95.880397 374.62125 95.449948 
Q 375.749705 95.000785 376.646863 94.065028 
L 376.646863 77.10911 
L 371.495218 77.10911 
L 371.495218 62.00599 
L 384.637168 62.00599 
z
" style="fill:#ffa600;"/>
   </g>
   <g id="patch_24">
    <path clip-path="url(#p6a1227ab6d)" d="M 386.283186 127.3 
L 417.557522 127.3 
L 417.557522 133.189841 
L 406.306034 133.189841 
L 406.306034 157.5 
L 397.556493 157.5 
L 397.556493 133.189841 
L 386.283186 133.189841 
z
" style="fill:#ff0000;"/>
   </g>
   <g id="patch_25">
    <path clip-path="url(#p6a1227ab6d)" d="M 407.946946 108.044749 
L 395.919339 108.044749 
L 394.020243 127.3 
L 386.283186 127.3 
L 397.332471 21.6 
L 406.508237 21.6 
L 417.557522 127.3 
L 409.826859 127.3 
z
M 397.837618 88.427047 
L 406.009485 88.427047 
L 401.929945 46.38264 
z
" style="fill:#008000;"/>
   </g>
   <g id="patch_26">
    <path clip-path="url(#p6a1227ab6d)" d="M 419.20354 127.3 
L 450.477876 127.3 
L 450.477876 133.189841 
L 439.226388 133.189841 
L 439.226388 157.5 
L 430.476847 157.5 
L 430.476847 133.189841 
L 419.20354 133.189841 
z
" style="fill:#ff0000;"/>
   </g>
   <g id="patch_27">
    <path clip-path="url(#p6a1227ab6d)" d="M 450.477876 124.052923 
Q 447.861832 125.662425 445.033037 126.476534 
Q 442.204242 127.3 439.123298 127.3 
Q 429.935625 127.3 424.569582 121.198864 
Q 419.20354 115.097728 419.20354 104.664036 
Q 419.20354 94.192915 424.569582 88.101136 
Q 429.935625 82 439.123298 82 
Q 442.204242 82 445.033037 82.823466 
Q 447.861832 83.637575 450.477876 85.247077 
L 450.477876 94.277133 
Q 447.838193 92.143607 445.277306 91.151704 
Q 442.71642 90.159802 439.887625 90.159802 
Q 434.813129 90.159802 431.905538 94.024478 
Q 429.005826 97.879798 429.005826 104.664036 
Q 429.005826 111.420202 431.905538 115.284879 
Q 434.813129 119.140198 439.887625 119.140198 
Q 442.71642 119.140198 445.277306 118.148296 
Q 447.838193 117.147036 450.477876 115.01351 
z
" style="fill:#0000ff;"/>
   </g>
   <g id="patch_28">
    <path clip-path="url(#p6a1227ab6d)" d="M 450.477876 76.535179 
Q 447.323808 79.267589 443.931433 80.640033 
Q 440.539057 82 436.922393 82 
Q 428.749852 82 423.976696 73.865152 
Q 419.20354 65.730304 419.20354 51.818715 
Q 419.20354 37.744929 424.060805 29.672464 
Q 428.925078 21.6 437.384989 21.6 
Q 440.644193 21.6 443.630044 22.697955 
Q 446.622904 23.783433 449.272321 25.929436 
L 449.272321 37.96951 
Q 446.538796 35.212146 443.833306 33.852179 
Q 441.127817 32.479736 438.408309 32.479736 
Q 433.375819 32.479736 430.649302 37.495394 
Q 427.922786 42.498575 427.922786 51.818715 
Q 427.922786 61.051518 430.551176 66.09213 
Q 433.179565 71.120264 438.015803 71.120264 
Q 439.333503 71.120264 440.461958 70.833299 
Q 441.590413 70.533857 442.487571 69.910019 
L 442.487571 58.606073 
L 437.335926 58.606073 
L 437.335926 48.537327 
L 450.477876 48.537327 
z
" style="fill:#ffa600;"/>
   </g>
   <g id="patch_29">
    <path clip-path="url(#p6a1227ab6d)" d="M 483.39823 156.133795 
Q 480.244162 156.816897 476.851787 157.160008 
Q 473.459411 157.5 469.842747 157.5 
Q 461.670206 157.5 456.89705 155.466288 
Q 452.123894 153.432576 452.123894 149.954679 
Q 452.123894 146.436232 456.981158 144.418116 
Q 461.845432 142.4 470.305343 142.4 
Q 473.564547 142.4 476.550398 142.674489 
Q 479.543258 142.945858 482.192675 143.482359 
L 482.192675 146.492378 
Q 479.45915 145.803037 476.75366 145.463045 
Q 474.048171 145.119934 471.328663 145.119934 
Q 466.296173 145.119934 463.569656 146.373848 
Q 460.84314 147.624644 460.84314 149.954679 
Q 460.84314 152.26288 463.471529 153.523032 
Q 466.099919 154.780066 470.936157 154.780066 
Q 472.253857 154.780066 473.382312 154.708325 
Q 474.510767 154.633464 475.407925 154.477505 
L 475.407925 151.651518 
L 470.25628 151.651518 
L 470.25628 149.134332 
L 483.39823 149.134332 
z
" style="fill:#ffa600;"/>
   </g>
   <g id="patch_30">
    <path clip-path="url(#p6a1227ab6d)" d="M 452.123894 127.3 
L 483.39823 127.3 
L 483.39823 130.244921 
L 472.146742 130.244921 
L 472.146742 142.4 
L 463.397201 142.4 
L 463.397201 130.244921 
L 452.123894 130.244921 
z
" style="fill:#ff0000;"/>
   </g>
   <g id="patch_31">
    <path clip-path="url(#p6a1227ab6d)" d="M 483.39823 125.135282 
Q 480.782186 126.208283 477.953391 126.751023 
Q 475.124596 127.3 472.043652 127.3 
Q 462.855979 127.3 457.489936 123.232576 
Q 452.123894 119.165152 452.123894 112.209358 
Q 452.123894 105.22861 457.489936 101.167424 
Q 462.855979 97.1 472.043652 97.1 
Q 475.124596 97.1 477.953391 97.648977 
Q 480.782186 98.191717 483.39823 99.264718 
L 483.39823 105.284755 
Q 480.758547 103.862404 478.19766 103.201136 
Q 475.636773 102.539868 472.807979 102.539868 
Q 467.733483 102.539868 464.825892 105.116319 
Q 461.92618 107.686532 461.92618 112.209358 
Q 461.92618 116.713468 464.825892 119.289919 
Q 467.733483 121.860132 472.807979 121.860132 
Q 475.636773 121.860132 478.19766 121.198864 
Q 480.758547 120.531357 483.39823 119.109006 
z
" style="fill:#0000ff;"/>
   </g>
   <g id="patch_32">
    <path clip-path="url(#p6a1227ab6d)" d="M 473.787654 83.346249 
L 461.760047 83.346249 
L 459.860951 97.1 
L 452.123894 97.1 
L 463.173179 21.6 
L 472.348945 21.6 
L 483.39823 97.1 
L 475.667567 97.1 
z
M 463.678326 69.333605 
L 471.850193 69.333605 
L 467.770653 39.301886 
z
" style="fill:#008000;"/>
   </g>
   <g id="patch_33">
    <path clip-path="url(#p6a1227ab6d)" d="M 516.318584 156.133795 
Q 513.164516 156.816897 509.772141 157.160008 
Q 506.379765 157.5 502.763101 157.5 
Q 494.59056 157.5 489.817404 155.466288 
Q 485.044248 153.432576 485.044248 149.954679 
Q 485.044248 146.436232 489.901512 144.418116 
Q 494.765786 142.4 503.225697 142.4 
Q 506.484901 142.4 509.470752 142.674489 
Q 512.463612 142.945858 515.113029 143.482359 
L 515.113029 146.492378 
Q 512.379504 145.803037 509.674014 145.463045 
Q 506.968525 145.119934 504.249017 145.119934 
Q 499.216527 145.119934 496.49001 146.373848 
Q 493.763493 147.624644 493.763493 149.954679 
Q 493.763493 152.26288 496.391883 153.523032 
Q 499.020273 154.780066 503.856511 154.780066 
Q 505.174211 154.780066 506.302666 154.708325 
Q 507.431121 154.633464 508.328279 154.477505 
L 508.328279 151.651518 
L 503.176634 151.651518 
L 503.176634 149.134332 
L 516.318584 149.134332 
z
" style="fill:#ffa600;"/>
   </g>
   <g id="patch_34">
    <path clip-path="url(#p6a1227ab6d)" d="M 485.044248 127.3 
L 516.318584 127.3 
L 516.318584 130.244921 
L 505.067096 130.244921 
L 505.067096 142.4 
L 496.317555 142.4 
L 496.317555 130.244921 
L 485.044248 130.244921 
z
" style="fill:#ff0000;"/>
   </g>
   <g id="patch_35">
    <path clip-path="url(#p6a1227ab6d)" d="M 506.708008 108.044749 
L 494.680401 108.044749 
L 492.781305 127.3 
L 485.044248 127.3 
L 496.093533 21.6 
L 505.269299 21.6 
L 516.318584 127.3 
L 508.587921 127.3 
z
M 496.59868 88.427047 
L 504.770547 88.427047 
L 500.691007 46.38264 
z
" style="fill:#008000;"/>
   </g>
   <g id="patch_36">
    <path clip-path="url(#p6a1227ab6d)" d="M 539.628362 154.74925 
L 527.600755 154.74925 
L 525.701659 157.5 
L 517.964602 157.5 
L 529.013887 142.4 
L 538.189653 142.4 
L 549.238938 157.5 
L 541.508275 157.5 
z
M 529.519034 151.946721 
L 537.690901 151.946721 
L 533.611361 145.940377 
z
" style="fill:#008000;"/>
   </g>
   <g id="patch_37">
    <path clip-path="url(#p6a1227ab6d)" d="M 549.238938 141.033795 
Q 546.08487 141.716897 542.692495 142.060008 
Q 539.300119 142.4 535.683455 142.4 
Q 527.510914 142.4 522.737758 140.366288 
Q 517.964602 138.332576 517.964602 134.854679 
Q 517.964602 131.336232 522.821866 129.318116 
Q 527.68614 127.3 536.146051 127.3 
Q 539.405255 127.3 542.391106 127.574489 
Q 545.383966 127.845858 548.033383 128.382359 
L 548.033383 131.392378 
Q 545.299858 130.703037 542.594368 130.363045 
Q 539.888879 130.019934 537.169371 130.019934 
Q 532.136881 130.019934 529.410364 131.273848 
Q 526.683847 132.524644 526.683847 134.854679 
Q 526.683847 137.16288 529.312237 138.423032 
Q 531.940627 139.680066 536.776865 139.680066 
Q 538.094565 139.680066 539.22302 139.608325 
Q 540.351475 139.533464 541.248633 139.377505 
L 541.248633 136.551518 
L 536.096988 136.551518 
L 536.096988 134.034332 
L 549.238938 134.034332 
z
" style="fill:#ffa600;"/>
   </g>
   <g id="patch_38">
    <path clip-path="url(#p6a1227ab6d)" d="M 517.964602 21.6 
L 549.238938 21.6 
L 549.238938 42.214445 
L 537.98745 42.214445 
L 537.98745 127.3 
L 529.237909 127.3 
L 529.237909 42.214445 
L 517.964602 42.214445 
z
" style="fill:#ff0000;"/>
   </g>
   <g id="patch_39">
    <path clip-path="url(#p6a1227ab6d)" d="M 582.159292 156.417641 
Q 579.543248 156.954142 576.714453 157.225511 
Q 573.885658 157.5 570.804714 157.5 
Q 561.617041 157.5 556.250998 155.466288 
Q 550.884956 153.432576 550.884956 149.954679 
Q 550.884956 146.464305 556.250998 144.433712 
Q 561.617041 142.4 570.804714 142.4 
Q 573.885658 142.4 576.714453 142.674489 
Q 579.543248 142.945858 582.159292 143.482359 
L 582.159292 146.492378 
Q 579.519609 145.781202 576.958722 145.450568 
Q 574.397835 145.119934 571.569041 145.119934 
Q 566.494545 145.119934 563.586954 146.408159 
Q 560.687242 147.693266 560.687242 149.954679 
Q 560.687242 152.206734 563.586954 153.49496 
Q 566.494545 154.780066 571.569041 154.780066 
Q 574.397835 154.780066 576.958722 154.449432 
Q 579.519609 154.115679 582.159292 153.404503 
z
" style="fill:#0000ff;"/>
   </g>
   <g id="patch_40">
    <path clip-path="url(#p6a1227ab6d)" d="M 582.159292 131.470357 
Q 579.005224 136.935179 575.612849 139.680066 
Q 572.220473 142.4 568.603809 142.4 
Q 560.431268 142.4 555.658112 126.130304 
Q 550.884956 109.860607 550.884956 82.03743 
Q 550.884956 53.889857 555.74222 37.744929 
Q 560.606494 21.6 569.066405 21.6 
Q 572.325609 21.6 575.31146 23.79591 
Q 578.30432 25.966866 580.953737 30.258872 
L 580.953737 54.339021 
Q 578.220212 48.824293 575.514722 46.104359 
Q 572.809233 43.359471 570.089725 43.359471 
Q 565.057235 43.359471 562.330718 53.390787 
Q 559.604201 63.397149 559.604201 82.03743 
Q 559.604201 100.503037 562.232591 110.584259 
Q 564.860981 120.640529 569.697219 120.640529 
Q 571.014919 120.640529 572.143374 120.066598 
Q 573.271829 119.467713 574.168986 118.220037 
L 574.168986 95.612146 
L 569.017342 95.612146 
L 569.017342 75.474654 
L 582.159292 75.474654 
z
" style="fill:#ffa600;"/>
   </g>
   <g id="patch_41">
    <path clip-path="url(#p6a1227ab6d)" d="M 583.80531 127.3 
L 615.079646 127.3 
L 615.079646 133.189841 
L 603.828158 133.189841 
L 603.828158 157.5 
L 595.078617 157.5 
L 595.078617 133.189841 
L 583.80531 133.189841 
z
" style="fill:#ff0000;"/>
   </g>
   <g id="patch_42">
    <path clip-path="url(#p6a1227ab6d)" d="M 615.079646 123.201384 
Q 611.925578 125.250692 608.533203 126.280025 
Q 605.140827 127.3 601.524163 127.3 
Q 593.351622 127.3 588.578466 121.198864 
Q 583.80531 115.097728 583.80531 104.664036 
Q 583.80531 94.108697 588.662574 88.054348 
Q 593.526848 82 601.986759 82 
Q 605.245963 82 608.231814 82.823466 
Q 611.224674 83.637575 613.874091 85.247077 
L 613.874091 94.277133 
Q 611.140566 92.20911 608.435076 91.189134 
Q 605.729587 90.159802 603.010079 90.159802 
Q 597.977589 90.159802 595.251072 93.921545 
Q 592.524555 97.673931 592.524555 104.664036 
Q 592.524555 111.588639 595.152945 115.369097 
Q 597.781335 119.140198 602.617573 119.140198 
Q 603.935272 119.140198 605.063728 118.924974 
Q 606.192183 118.700392 607.08934 118.232514 
L 607.08934 109.754555 
L 601.937696 109.754555 
L 601.937696 102.202995 
L 615.079646 102.202995 
z
" style="fill:#ffa600;"/>
   </g>
   <g id="patch_43">
    <path clip-path="url(#p6a1227ab6d)" d="M 605.46907 70.997 
L 593.441463 70.997 
L 591.542367 82 
L 583.80531 82 
L 594.854595 21.6 
L 604.030361 21.6 
L 615.079646 82 
L 607.348983 82 
z
M 595.359741 59.786884 
L 603.531609 59.786884 
L 599.452069 35.761509 
z
" style="fill:#008000;"/>
   </g>
   <g id="patch_44">
    <path clip-path="url(#p6a1227ab6d)" d="M 648 156.417641 
Q 645.383956 156.954142 642.555161 157.225511 
Q 639.726366 157.5 636.645422 157.5 
Q 627.457749 157.5 622.091706 155.466288 
Q 616.725664 153.432576 616.725664 149.954679 
Q 616.725664 146.464305 622.091706 144.433712 
Q 627.457749 142.4 636.645422 142.4 
Q 639.726366 142.4 642.555161 142.674489 
Q 645.383956 142.945858 648 143.482359 
L 648 146.492378 
Q 645.360317 145.781202 642.79943 145.450568 
Q 640.238543 145.119934 637.409749 145.119934 
Q 632.335253 145.119934 629.427662 146.408159 
Q 626.52795 147.693266 626.52795 149.954679 
Q 626.52795 152.206734 629.427662 153.49496 
Q 632.335253 154.780066 637.409749 154.780066 
Q 640.238543 154.780066 642.79943 154.449432 
Q 645.360317 154.115679 648 153.404503 
z
" style="fill:#0000ff;"/>
   </g>
   <g id="patch_45">
    <path clip-path="url(#p6a1227ab6d)" d="M 638.389424 136.8985 
L 626.361817 136.8985 
L 624.462721 142.4 
L 616.725664 142.4 
L 627.774949 112.2 
L 636.950715 112.2 
L 648 142.4 
L 640.269337 142.4 
z
M 628.280095 131.293442 
L 636.451963 131.293442 
L 632.372423 119.280754 
z
" style="fill:#008000;"/>
   </g>
   <g id="patch_46">
    <path clip-path="url(#p6a1227ab6d)" d="M 648 108.101384 
Q 644.845932 110.150692 641.453557 111.180025 
Q 638.061181 112.2 634.444517 112.2 
Q 626.271976 112.2 621.49882 106.098864 
Q 616.725664 99.997728 616.725664 89.564036 
Q 616.725664 79.008697 621.582928 72.954348 
Q 626.447202 66.9 634.907113 66.9 
Q 638.166317 66.9 641.152168 67.723466 
Q 644.145028 68.537575 646.794445 70.147077 
L 646.794445 79.177133 
Q 644.06092 77.10911 641.35543 76.089134 
Q 638.649941 75.059802 635.930433 75.059802 
Q 630.897943 75.059802 628.171426 78.821545 
Q 625.444909 82.573931 625.444909 89.564036 
Q 625.444909 96.488639 628.073299 100.269097 
Q 630.701689 104.040198 635.537927 104.040198 
Q 636.855626 104.040198 637.984082 103.824974 
Q 639.112537 103.600392 640.009694 103.132514 
L 640.009694 94.654555 
L 634.85805 94.654555 
L 634.85805 87.102995 
L 648 87.102995 
z
" style="fill:#ffa600;"/>
   </g>
   <g id="patch_47">
    <path clip-path="url(#p6a1227ab6d)" d="M 616.725664 21.6 
L 648 21.6 
L 648 30.434762 
L 636.748512 30.434762 
L 636.748512 66.9 
L 627.998971 66.9 
L 627.998971 30.434762 
L 616.725664 30.434762 
z
" style="fill:#ff0000;"/>
   </g>
  </g>
 </g>
 <defs>
  <clipPath id="p6a1227ab6d">
   <rect height="135.9" width="558" x="90" y="21.6"/>
  </clipPath>
 </defs>
</svg>
