<?xml version="1.0" encoding="utf-8" standalone="no"?>
<!DOCTYPE svg PUBLIC "-//W3C//DTD SVG 1.1//EN"
  "http://www.w3.org/Graphics/SVG/1.1/DTD/svg11.dtd">
<!-- Created with matplotlib (https://matplotlib.org/) -->
<svg height="180pt" version="1.1" viewBox="0 0 720 180" width="720pt" xmlns="http://www.w3.org/2000/svg" xmlns:xlink="http://www.w3.org/1999/xlink">
 <metadata>
  <rdf:RDF xmlns:cc="http://creativecommons.org/ns#" xmlns:dc="http://purl.org/dc/elements/1.1/" xmlns:rdf="http://www.w3.org/1999/02/22-rdf-syntax-ns#">
   <cc:Work>
    <dc:type rdf:resource="http://purl.org/dc/dcmitype/StillImage"/>
    <dc:date>2021-08-04T23:33:34.265206</dc:date>
    <dc:format>image/svg+xml</dc:format>
    <dc:creator>
     <cc:Agent>
      <dc:title>Matplotlib v3.3.2, https://matplotlib.org/</dc:title>
     </cc:Agent>
    </dc:creator>
   </cc:Work>
  </rdf:RDF>
 </metadata>
 <defs>
  <style type="text/css">*{stroke-linecap:butt;stroke-linejoin:round;}</style>
 </defs>
 <g id="figure_1">
  <g id="patch_1">
   <path d="M 0 180 
L 720 180 
L 720 0 
L 0 0 
z
" style="fill:none;"/>
  </g>
  <g id="axes_1">
   <g id="line2d_1">
    <path clip-path="url(#p980f379484)" d="M 90 157.5 
L 648 157.5 
" style="fill:none;stroke:#000000;stroke-linecap:square;stroke-width:0.5;"/>
   </g>
   <g id="patch_2">
    <path clip-path="url(#p980f379484)" d="M 121.274336 156.133795 
Q 118.120268 156.816897 114.727893 157.160008 
Q 111.335518 157.5 107.718853 157.5 
Q 99.546312 157.5 94.773156 155.466288 
Q 90 153.432576 90 149.954679 
Q 90 146.436232 94.857265 144.418116 
Q 99.721538 142.4 108.18145 142.4 
Q 111.440653 142.4 114.426504 142.674489 
Q 117.419364 142.945858 120.068781 143.482359 
L 120.068781 146.492378 
Q 117.335256 145.803037 114.629766 145.463045 
Q 111.924277 145.119934 109.204769 145.119934 
Q 104.172279 145.119934 101.445762 146.373848 
Q 98.719246 147.624644 98.719246 149.954679 
Q 98.719246 152.26288 101.347636 153.523032 
Q 103.976026 154.780066 108.812263 154.780066 
Q 110.129963 154.780066 111.258418 154.708325 
Q 112.386874 154.633464 113.284031 154.477505 
L 113.284031 151.651518 
L 108.132386 151.651518 
L 108.132386 149.134332 
L 121.274336 149.134332 
z
" style="fill:#ffa600;"/>
   </g>
   <g id="patch_3">
    <path clip-path="url(#p980f379484)" d="M 121.274336 140.235282 
Q 118.658292 141.308283 115.829497 141.851023 
Q 113.000702 142.4 109.919759 142.4 
Q 100.732085 142.4 95.366043 138.332576 
Q 90 134.265152 90 127.309358 
Q 90 120.32861 95.366043 116.267424 
Q 100.732085 112.2 109.919759 112.2 
Q 113.000702 112.2 115.829497 112.748977 
Q 118.658292 113.291717 121.274336 114.364718 
L 121.274336 120.384755 
Q 118.634653 118.962404 116.073766 118.301136 
Q 113.51288 117.639868 110.684085 117.639868 
Q 105.609589 117.639868 102.701998 120.216319 
Q 99.802286 122.786532 99.802286 127.309358 
Q 99.802286 131.813468 102.701998 134.389919 
Q 105.609589 136.960132 110.684085 136.960132 
Q 113.51288 136.960132 116.073766 136.298864 
Q 118.634653 135.631357 121.274336 134.209006 
z
" style="fill:#0000ff;"/>
   </g>
   <g id="patch_4">
    <path clip-path="url(#p980f379484)" d="M 111.66376 103.94775 
L 99.636153 103.94775 
L 97.737057 112.2 
L 90 112.2 
L 101.049285 66.9 
L 110.225051 66.9 
L 121.274336 112.2 
L 113.543673 112.2 
z
M 101.554432 95.540163 
L 109.726299 95.540163 
L 105.64676 77.521132 
z
" style="fill:#008000;"/>
   </g>
   <g id="patch_5">
    <path clip-path="url(#p980f379484)" d="M 90 21.6 
L 121.274336 21.6 
L 121.274336 30.434762 
L 110.022848 30.434762 
L 110.022848 66.9 
L 101.273307 66.9 
L 101.273307 30.434762 
L 90 30.434762 
z
" style="fill:#ff0000;"/>
   </g>
   <g id="patch_6">
    <path clip-path="url(#p980f379484)" d="M 154.19469 156.133795 
Q 151.040622 156.816897 147.648247 157.160008 
Q 144.255872 157.5 140.639207 157.5 
Q 132.466666 157.5 127.69351 155.466288 
Q 122.920354 153.432576 122.920354 149.954679 
Q 122.920354 146.436232 127.777619 144.418116 
Q 132.641892 142.4 141.101804 142.4 
Q 144.361007 142.4 147.346858 142.674489 
Q 150.339718 142.945858 152.989135 143.482359 
L 152.989135 146.492378 
Q 150.25561 145.803037 147.55012 145.463045 
Q 144.844631 145.119934 142.125123 145.119934 
Q 137.092633 145.119934 134.366116 146.373848 
Q 131.6396 147.624644 131.6396 149.954679 
Q 131.6396 152.26288 134.26799 153.523032 
Q 136.89638 154.780066 141.732617 154.780066 
Q 143.050317 154.780066 144.178772 154.708325 
Q 145.307228 154.633464 146.204385 154.477505 
L 146.204385 151.651518 
L 141.05274 151.651518 
L 141.05274 149.134332 
L 154.19469 149.134332 
z
" style="fill:#ffa600;"/>
   </g>
   <g id="patch_7">
    <path clip-path="url(#p980f379484)" d="M 154.19469 140.235282 
Q 151.578646 141.308283 148.749851 141.851023 
Q 145.921056 142.4 142.840113 142.4 
Q 133.652439 142.4 128.286397 138.332576 
Q 122.920354 134.265152 122.920354 127.309358 
Q 122.920354 120.32861 128.286397 116.267424 
Q 133.652439 112.2 142.840113 112.2 
Q 145.921056 112.2 148.749851 112.748977 
Q 151.578646 113.291717 154.19469 114.364718 
L 154.19469 120.384755 
Q 151.555007 118.962404 148.99412 118.301136 
Q 146.433234 117.639868 143.604439 117.639868 
Q 138.529943 117.639868 135.622352 120.216319 
Q 132.72264 122.786532 132.72264 127.309358 
Q 132.72264 131.813468 135.622352 134.389919 
Q 138.529943 136.960132 143.604439 136.960132 
Q 146.433234 136.960132 148.99412 136.298864 
Q 151.555007 135.631357 154.19469 134.209006 
z
" style="fill:#0000ff;"/>
   </g>
   <g id="patch_8">
    <path clip-path="url(#p980f379484)" d="M 144.584114 95.695499 
L 132.556507 95.695499 
L 130.657411 112.2 
L 122.920354 112.2 
L 133.969639 21.6 
L 143.145405 21.6 
L 154.19469 112.2 
L 146.464027 112.2 
z
M 134.474786 78.880326 
L 142.646653 78.880326 
L 138.567114 42.842263 
z
" style="fill:#008000;"/>
   </g>
   <g id="patch_9">
    <path clip-path="url(#p980f379484)" d="M 177.504468 132.743249 
L 165.476861 132.743249 
L 163.577765 157.5 
L 155.840708 157.5 
L 166.889993 21.6 
L 176.065759 21.6 
L 187.115044 157.5 
L 179.384381 157.5 
z
M 167.39514 107.520489 
L 175.567007 107.520489 
L 171.487467 53.463395 
z
" style="fill:#008000;"/>
   </g>
   <g id="patch_10">
    <path clip-path="url(#p980f379484)" d="M 210.424822 154.74925 
L 198.397215 154.74925 
L 196.498119 157.5 
L 188.761062 157.5 
L 199.810347 142.4 
L 208.986113 142.4 
L 220.035398 157.5 
L 212.304735 157.5 
z
M 200.315494 151.946721 
L 208.487361 151.946721 
L 204.407821 145.940377 
z
" style="fill:#008000;"/>
   </g>
   <g id="patch_11">
    <path clip-path="url(#p980f379484)" d="M 220.035398 140.235282 
Q 217.419354 141.308283 214.590559 141.851023 
Q 211.761764 142.4 208.680821 142.4 
Q 199.493147 142.4 194.127105 138.332576 
Q 188.761062 134.265152 188.761062 127.309358 
Q 188.761062 120.32861 194.127105 116.267424 
Q 199.493147 112.2 208.680821 112.2 
Q 211.761764 112.2 214.590559 112.748977 
Q 217.419354 113.291717 220.035398 114.364718 
L 220.035398 120.384755 
Q 217.395715 118.962404 214.834828 118.301136 
Q 212.273942 117.639868 209.445147 117.639868 
Q 204.370651 117.639868 201.46306 120.216319 
Q 198.563348 122.786532 198.563348 127.309358 
Q 198.563348 131.813468 201.46306 134.389919 
Q 204.370651 136.960132 209.445147 136.960132 
Q 212.273942 136.960132 214.834828 136.298864 
Q 217.395715 135.631357 220.035398 134.209006 
z
" style="fill:#0000ff;"/>
   </g>
   <g id="patch_12">
    <path clip-path="url(#p980f379484)" d="M 188.761062 21.6 
L 220.035398 21.6 
L 220.035398 39.269524 
L 208.78391 39.269524 
L 208.78391 112.2 
L 200.034369 112.2 
L 200.034369 39.269524 
L 188.761062 39.269524 
z
" style="fill:#ff0000;"/>
   </g>
   <g id="patch_13">
    <path clip-path="url(#p980f379484)" d="M 243.345176 149.24775 
L 231.317569 149.24775 
L 229.418473 157.5 
L 221.681416 157.5 
L 232.730701 112.2 
L 241.906467 112.2 
L 252.955752 157.5 
L 245.225089 157.5 
z
M 233.235848 140.840163 
L 241.407715 140.840163 
L 237.328175 122.821132 
z
" style="fill:#008000;"/>
   </g>
   <g id="patch_14">
    <path clip-path="url(#p980f379484)" d="M 252.955752 104.002768 
Q 249.801684 108.101384 246.409309 110.16005 
Q 243.016934 112.2 239.400269 112.2 
Q 231.227728 112.2 226.454572 99.997728 
Q 221.681416 87.795455 221.681416 66.928073 
Q 221.681416 45.817393 226.538681 33.708697 
Q 231.402954 21.6 239.862866 21.6 
Q 243.122069 21.6 246.10792 23.246932 
Q 249.10078 24.87515 251.750197 28.094154 
L 251.750197 46.154266 
Q 249.016672 42.018219 246.311182 39.978269 
Q 243.605693 37.919603 240.886185 37.919603 
Q 235.853695 37.919603 233.127178 45.44309 
Q 230.400662 52.947862 230.400662 66.928073 
Q 230.400662 80.777277 233.029052 88.338195 
Q 235.657442 95.880397 240.493679 95.880397 
Q 241.811379 95.880397 242.939834 95.449948 
Q 244.06829 95.000785 244.965447 94.065028 
L 244.965447 77.10911 
L 239.813802 77.10911 
L 239.813802 62.00599 
L 252.955752 62.00599 
z
" style="fill:#ffa600;"/>
   </g>
   <g id="patch_15">
    <path clip-path="url(#p980f379484)" d="M 254.60177 112.2 
L 285.876106 112.2 
L 285.876106 121.034762 
L 274.624618 121.034762 
L 274.624618 157.5 
L 265.875077 157.5 
L 265.875077 121.034762 
L 254.60177 121.034762 
z
" style="fill:#ff0000;"/>
   </g>
   <g id="patch_16">
    <path clip-path="url(#p980f379484)" d="M 285.876106 104.002768 
Q 282.722038 108.101384 279.329663 110.16005 
Q 275.937288 112.2 272.320623 112.2 
Q 264.148082 112.2 259.374926 99.997728 
Q 254.60177 87.795455 254.60177 66.928073 
Q 254.60177 45.817393 259.459035 33.708697 
Q 264.323308 21.6 272.78322 21.6 
Q 276.042423 21.6 279.028274 23.246932 
Q 282.021134 24.87515 284.670551 28.094154 
L 284.670551 46.154266 
Q 281.937026 42.018219 279.231536 39.978269 
Q 276.526047 37.919603 273.806539 37.919603 
Q 268.774049 37.919603 266.047532 45.44309 
Q 263.321016 52.947862 263.321016 66.928073 
Q 263.321016 80.777277 265.949406 88.338195 
Q 268.577796 95.880397 273.414033 95.880397 
Q 274.731733 95.880397 275.860188 95.449948 
Q 276.988644 95.000785 277.885801 94.065028 
L 277.885801 77.10911 
L 272.734156 77.10911 
L 272.734156 62.00599 
L 285.876106 62.00599 
z
" style="fill:#ffa600;"/>
   </g>
   <g id="patch_17">
    <path clip-path="url(#p980f379484)" d="M 318.79646 156.417641 
Q 316.180416 156.954142 313.351621 157.225511 
Q 310.522826 157.5 307.441883 157.5 
Q 298.254209 157.5 292.888166 155.466288 
Q 287.522124 153.432576 287.522124 149.954679 
Q 287.522124 146.464305 292.888166 144.433712 
Q 298.254209 142.4 307.441883 142.4 
Q 310.522826 142.4 313.351621 142.674489 
Q 316.180416 142.945858 318.79646 143.482359 
L 318.79646 146.492378 
Q 316.156777 145.781202 313.59589 145.450568 
Q 311.035004 145.119934 308.206209 145.119934 
Q 303.131713 145.119934 300.224122 146.408159 
Q 297.32441 147.693266 297.32441 149.954679 
Q 297.32441 152.206734 300.224122 153.49496 
Q 303.131713 154.780066 308.206209 154.780066 
Q 311.035004 154.780066 313.59589 154.449432 
Q 316.156777 154.115679 318.79646 153.404503 
z
" style="fill:#0000ff;"/>
   </g>
   <g id="patch_18">
    <path clip-path="url(#p980f379484)" d="M 309.185884 136.8985 
L 297.158277 136.8985 
L 295.259181 142.4 
L 287.522124 142.4 
L 298.571409 112.2 
L 307.747175 112.2 
L 318.79646 142.4 
L 311.065797 142.4 
z
M 299.076556 131.293442 
L 307.248423 131.293442 
L 303.168883 119.280754 
z
" style="fill:#008000;"/>
   </g>
   <g id="patch_19">
    <path clip-path="url(#p980f379484)" d="M 318.79646 104.002768 
Q 315.642392 108.101384 312.250017 110.16005 
Q 308.857642 112.2 305.240977 112.2 
Q 297.068436 112.2 292.29528 99.997728 
Q 287.522124 87.795455 287.522124 66.928073 
Q 287.522124 45.817393 292.379389 33.708697 
Q 297.243662 21.6 305.703574 21.6 
Q 308.962777 21.6 311.948628 23.246932 
Q 314.941488 24.87515 317.590905 28.094154 
L 317.590905 46.154266 
Q 314.85738 42.018219 312.15189 39.978269 
Q 309.446401 37.919603 306.726893 37.919603 
Q 301.694403 37.919603 298.967886 45.44309 
Q 296.24137 52.947862 296.24137 66.928073 
Q 296.24137 80.777277 298.86976 88.338195 
Q 301.49815 95.880397 306.334387 95.880397 
Q 307.652087 95.880397 308.780542 95.449948 
Q 309.908998 95.000785 310.806155 94.065028 
L 310.806155 77.10911 
L 305.65451 77.10911 
L 305.65451 62.00599 
L 318.79646 62.00599 
z
" style="fill:#ffa600;"/>
   </g>
   <g id="patch_20">
    <path clip-path="url(#p980f379484)" d="M 351.716814 155.335282 
Q 349.10077 156.408283 346.271975 156.951023 
Q 343.44318 157.5 340.362237 157.5 
Q 331.174563 157.5 325.80852 153.432576 
Q 320.442478 149.365152 320.442478 142.409358 
Q 320.442478 135.42861 325.80852 131.367424 
Q 331.174563 127.3 340.362237 127.3 
Q 343.44318 127.3 346.271975 127.848977 
Q 349.10077 128.391717 351.716814 129.464718 
L 351.716814 135.484755 
Q 349.077131 134.062404 346.516244 133.401136 
Q 343.955358 132.739868 341.126563 132.739868 
Q 336.052067 132.739868 333.144476 135.316319 
Q 330.244764 137.886532 330.244764 142.409358 
Q 330.244764 146.913468 333.144476 149.489919 
Q 336.052067 152.060132 341.126563 152.060132 
Q 343.955358 152.060132 346.516244 151.398864 
Q 349.077131 150.731357 351.716814 149.309006 
z
" style="fill:#0000ff;"/>
   </g>
   <g id="patch_21">
    <path clip-path="url(#p980f379484)" d="M 320.442478 97.1 
L 351.716814 97.1 
L 351.716814 102.989841 
L 340.465326 102.989841 
L 340.465326 127.3 
L 331.715785 127.3 
L 331.715785 102.989841 
L 320.442478 102.989841 
z
" style="fill:#ff0000;"/>
   </g>
   <g id="patch_22">
    <path clip-path="url(#p980f379484)" d="M 351.716814 90.268973 
Q 348.562746 93.684487 345.170371 95.400041 
Q 341.777996 97.1 338.161331 97.1 
Q 329.98879 97.1 325.215634 86.93144 
Q 320.442478 76.76288 320.442478 59.373394 
Q 320.442478 41.781161 325.299743 31.69058 
Q 330.164016 21.6 338.623928 21.6 
Q 341.883131 21.6 344.868982 22.972444 
Q 347.861842 24.329291 350.511259 27.011795 
L 350.511259 42.061888 
Q 347.777734 38.615183 345.072244 36.915224 
Q 342.366755 35.199669 339.647247 35.199669 
Q 334.614757 35.199669 331.88824 41.469242 
Q 329.161724 47.723218 329.161724 59.373394 
Q 329.161724 70.914398 331.790114 77.215162 
Q 334.418504 83.500331 339.254741 83.500331 
Q 340.572441 83.500331 341.700896 83.141624 
Q 342.829351 82.767321 343.726509 81.987523 
L 343.726509 67.857591 
L 338.574864 67.857591 
L 338.574864 55.271659 
L 351.716814 55.271659 
z
" style="fill:#ffa600;"/>
   </g>
   <g id="patch_23">
    <path clip-path="url(#p980f379484)" d="M 375.026592 151.9985 
L 362.998985 151.9985 
L 361.099889 157.5 
L 353.362832 157.5 
L 364.412117 127.3 
L 373.587883 127.3 
L 384.637168 157.5 
L 376.906505 157.5 
z
M 364.917264 146.393442 
L 373.089131 146.393442 
L 369.009591 134.380754 
z
" style="fill:#008000;"/>
   </g>
   <g id="patch_24">
    <path clip-path="url(#p980f379484)" d="M 384.637168 124.567589 
Q 381.4831 125.933795 378.090725 126.620017 
Q 374.698349 127.3 371.081685 127.3 
Q 362.909144 127.3 358.135988 123.232576 
Q 353.362832 119.165152 353.362832 112.209358 
Q 353.362832 105.172464 358.220097 101.136232 
Q 363.08437 97.1 371.544282 97.1 
Q 374.803485 97.1 377.789336 97.648977 
Q 380.782196 98.191717 383.431613 99.264718 
L 383.431613 105.284755 
Q 380.698088 103.906073 377.992598 103.22609 
Q 375.287109 102.539868 372.567601 102.539868 
Q 367.535111 102.539868 364.808594 105.047697 
Q 362.082078 107.549287 362.082078 112.209358 
Q 362.082078 116.825759 364.710468 119.346065 
Q 367.338858 121.860132 372.175095 121.860132 
Q 373.492795 121.860132 374.62125 121.716649 
Q 375.749705 121.566928 376.646863 121.255009 
L 376.646863 115.603037 
L 371.495218 115.603037 
L 371.495218 110.568663 
L 384.637168 110.568663 
z
" style="fill:#ffa600;"/>
   </g>
   <g id="patch_25">
    <path clip-path="url(#p980f379484)" d="M 353.362832 66.9 
L 384.637168 66.9 
L 384.637168 72.789841 
L 373.38568 72.789841 
L 373.38568 97.1 
L 364.636139 97.1 
L 364.636139 72.789841 
L 353.362832 72.789841 
z
" style="fill:#ff0000;"/>
   </g>
   <g id="patch_26">
    <path clip-path="url(#p980f379484)" d="M 384.637168 63.652923 
Q 382.021124 65.262425 379.192329 66.076534 
Q 376.363534 66.9 373.282591 66.9 
Q 364.094917 66.9 358.728874 60.798864 
Q 353.362832 54.697728 353.362832 44.264036 
Q 353.362832 33.792915 358.728874 27.701136 
Q 364.094917 21.6 373.282591 21.6 
Q 376.363534 21.6 379.192329 22.423466 
Q 382.021124 23.237575 384.637168 24.847077 
L 384.637168 33.877133 
Q 381.997485 31.743607 379.436598 30.751704 
Q 376.875712 29.759802 374.046917 29.759802 
Q 368.972421 29.759802 366.06483 33.624478 
Q 363.165118 37.479798 363.165118 44.264036 
Q 363.165118 51.020202 366.06483 54.884879 
Q 368.972421 58.740198 374.046917 58.740198 
Q 376.875712 58.740198 379.436598 57.748296 
Q 381.997485 56.747036 384.637168 54.61351 
z
" style="fill:#0000ff;"/>
   </g>
   <g id="patch_27">
    <path clip-path="url(#p980f379484)" d="M 407.946946 146.497 
L 395.919339 146.497 
L 394.020243 157.5 
L 386.283186 157.5 
L 397.332471 97.1 
L 406.508237 97.1 
L 417.557522 157.5 
L 409.826859 157.5 
z
M 397.837618 135.286884 
L 406.009485 135.286884 
L 401.929945 111.261509 
z
" style="fill:#008000;"/>
   </g>
   <g id="patch_28">
    <path clip-path="url(#p980f379484)" d="M 417.557522 91.688205 
Q 414.941478 94.370709 412.112683 95.727556 
Q 409.283888 97.1 406.202945 97.1 
Q 397.015271 97.1 391.649228 86.93144 
Q 386.283186 76.76288 386.283186 59.373394 
Q 386.283186 41.921524 391.649228 31.76856 
Q 397.015271 21.6 406.202945 21.6 
Q 409.283888 21.6 412.112683 22.972444 
Q 414.941478 24.329291 417.557522 27.011795 
L 417.557522 42.061888 
Q 414.917839 38.506011 412.356952 36.85284 
Q 409.796066 35.199669 406.967271 35.199669 
Q 401.892775 35.199669 398.985184 41.640797 
Q 396.085472 48.066329 396.085472 59.373394 
Q 396.085472 70.633671 398.985184 77.074799 
Q 401.892775 83.500331 406.967271 83.500331 
Q 409.796066 83.500331 412.356952 81.84716 
Q 414.917839 80.178393 417.557522 76.622516 
z
" style="fill:#0000ff;"/>
   </g>
   <g id="patch_29">
    <path clip-path="url(#p980f379484)" d="M 450.477876 155.335282 
Q 447.861832 156.408283 445.033037 156.951023 
Q 442.204242 157.5 439.123298 157.5 
Q 429.935625 157.5 424.569582 153.432576 
Q 419.20354 149.365152 419.20354 142.409358 
Q 419.20354 135.42861 424.569582 131.367424 
Q 429.935625 127.3 439.123298 127.3 
Q 442.204242 127.3 445.033037 127.848977 
Q 447.861832 128.391717 450.477876 129.464718 
L 450.477876 135.484755 
Q 447.838193 134.062404 445.277306 133.401136 
Q 442.71642 132.739868 439.887625 132.739868 
Q 434.813129 132.739868 431.905538 135.316319 
Q 429.005826 137.886532 429.005826 142.409358 
Q 429.005826 146.913468 431.905538 149.489919 
Q 434.813129 152.060132 439.887625 152.060132 
Q 442.71642 152.060132 445.277306 151.398864 
Q 447.838193 150.731357 450.477876 149.309006 
z
" style="fill:#0000ff;"/>
   </g>
   <g id="patch_30">
    <path clip-path="url(#p980f379484)" d="M 440.8673 119.04775 
L 428.839693 119.04775 
L 426.940597 127.3 
L 419.20354 127.3 
L 430.252825 82 
L 439.428591 82 
L 450.477876 127.3 
L 442.747213 127.3 
z
M 430.757972 110.640163 
L 438.929839 110.640163 
L 434.850299 92.621132 
z
" style="fill:#008000;"/>
   </g>
   <g id="patch_31">
    <path clip-path="url(#p980f379484)" d="M 450.477876 76.535179 
Q 447.323808 79.267589 443.931433 80.640033 
Q 440.539057 82 436.922393 82 
Q 428.749852 82 423.976696 73.865152 
Q 419.20354 65.730304 419.20354 51.818715 
Q 419.20354 37.744929 424.060805 29.672464 
Q 428.925078 21.6 437.384989 21.6 
Q 440.644193 21.6 443.630044 22.697955 
Q 446.622904 23.783433 449.272321 25.929436 
L 449.272321 37.96951 
Q 446.538796 35.212146 443.833306 33.852179 
Q 441.127817 32.479736 438.408309 32.479736 
Q 433.375819 32.479736 430.649302 37.495394 
Q 427.922786 42.498575 427.922786 51.818715 
Q 427.922786 61.051518 430.551176 66.09213 
Q 433.179565 71.120264 438.015803 71.120264 
Q 439.333503 71.120264 440.461958 70.833299 
Q 441.590413 70.533857 442.487571 69.910019 
L 442.487571 58.606073 
L 437.335926 58.606073 
L 437.335926 48.537327 
L 450.477876 48.537327 
z
" style="fill:#ffa600;"/>
   </g>
   <g id="patch_32">
    <path clip-path="url(#p980f379484)" d="M 473.787654 151.9985 
L 461.760047 151.9985 
L 459.860951 157.5 
L 452.123894 157.5 
L 463.173179 127.3 
L 472.348945 127.3 
L 483.39823 157.5 
L 475.667567 157.5 
z
M 463.678326 146.393442 
L 471.850193 146.393442 
L 467.770653 134.380754 
z
" style="fill:#008000;"/>
   </g>
   <g id="patch_33">
    <path clip-path="url(#p980f379484)" d="M 483.39823 124.052923 
Q 480.782186 125.662425 477.953391 126.476534 
Q 475.124596 127.3 472.043652 127.3 
Q 462.855979 127.3 457.489936 121.198864 
Q 452.123894 115.097728 452.123894 104.664036 
Q 452.123894 94.192915 457.489936 88.101136 
Q 462.855979 82 472.043652 82 
Q 475.124596 82 477.953391 82.823466 
Q 480.782186 83.637575 483.39823 85.247077 
L 483.39823 94.277133 
Q 480.758547 92.143607 478.19766 91.151704 
Q 475.636773 90.159802 472.807979 90.159802 
Q 467.733483 90.159802 464.825892 94.024478 
Q 461.92618 97.879798 461.92618 104.664036 
Q 461.92618 111.420202 464.825892 115.284879 
Q 467.733483 119.140198 472.807979 119.140198 
Q 475.636773 119.140198 478.19766 118.148296 
Q 480.758547 117.147036 483.39823 115.01351 
z
" style="fill:#0000ff;"/>
   </g>
   <g id="patch_34">
    <path clip-path="url(#p980f379484)" d="M 452.123894 21.6 
L 483.39823 21.6 
L 483.39823 33.379683 
L 472.146742 33.379683 
L 472.146742 82 
L 463.397201 82 
L 463.397201 33.379683 
L 452.123894 33.379683 
z
" style="fill:#ff0000;"/>
   </g>
   <g id="patch_35">
    <path clip-path="url(#p980f379484)" d="M 485.044248 142.4 
L 516.318584 142.4 
L 516.318584 145.344921 
L 505.067096 145.344921 
L 505.067096 157.5 
L 496.317555 157.5 
L 496.317555 145.344921 
L 485.044248 145.344921 
z
" style="fill:#ff0000;"/>
   </g>
   <g id="patch_36">
    <path clip-path="url(#p980f379484)" d="M 516.318584 138.301384 
Q 513.164516 140.350692 509.772141 141.380025 
Q 506.379765 142.4 502.763101 142.4 
Q 494.59056 142.4 489.817404 136.298864 
Q 485.044248 130.197728 485.044248 119.764036 
Q 485.044248 109.208697 489.901512 103.154348 
Q 494.765786 97.1 503.225697 97.1 
Q 506.484901 97.1 509.470752 97.923466 
Q 512.463612 98.737575 515.113029 100.347077 
L 515.113029 109.377133 
Q 512.379504 107.30911 509.674014 106.289134 
Q 506.968525 105.259802 504.249017 105.259802 
Q 499.216527 105.259802 496.49001 109.021545 
Q 493.763493 112.773931 493.763493 119.764036 
Q 493.763493 126.688639 496.391883 130.469097 
Q 499.020273 134.240198 503.856511 134.240198 
Q 505.174211 134.240198 506.302666 134.024974 
Q 507.431121 133.800392 508.328279 133.332514 
L 508.328279 124.854555 
L 503.176634 124.854555 
L 503.176634 117.302995 
L 516.318584 117.302995 
z
" style="fill:#ffa600;"/>
   </g>
   <g id="patch_37">
    <path clip-path="url(#p980f379484)" d="M 516.318584 91.688205 
Q 513.70254 94.370709 510.873745 95.727556 
Q 508.04495 97.1 504.964006 97.1 
Q 495.776333 97.1 490.41029 86.93144 
Q 485.044248 76.76288 485.044248 59.373394 
Q 485.044248 41.921524 490.41029 31.76856 
Q 495.776333 21.6 504.964006 21.6 
Q 508.04495 21.6 510.873745 22.972444 
Q 513.70254 24.329291 516.318584 27.011795 
L 516.318584 42.061888 
Q 513.678901 38.506011 511.118014 36.85284 
Q 508.557127 35.199669 505.728333 35.199669 
Q 500.653837 35.199669 497.746246 41.640797 
Q 494.846534 48.066329 494.846534 59.373394 
Q 494.846534 70.633671 497.746246 77.074799 
Q 500.653837 83.500331 505.728333 83.500331 
Q 508.557127 83.500331 511.118014 81.84716 
Q 513.678901 80.178393 516.318584 76.622516 
z
" style="fill:#0000ff;"/>
   </g>
   <g id="patch_38">
    <path clip-path="url(#p980f379484)" d="M 549.238938 156.417641 
Q 546.622894 156.954142 543.794099 157.225511 
Q 540.965304 157.5 537.88436 157.5 
Q 528.696687 157.5 523.330644 155.466288 
Q 517.964602 153.432576 517.964602 149.954679 
Q 517.964602 146.464305 523.330644 144.433712 
Q 528.696687 142.4 537.88436 142.4 
Q 540.965304 142.4 543.794099 142.674489 
Q 546.622894 142.945858 549.238938 143.482359 
L 549.238938 146.492378 
Q 546.599255 145.781202 544.038368 145.450568 
Q 541.477481 145.119934 538.648687 145.119934 
Q 533.574191 145.119934 530.6666 146.408159 
Q 527.766888 147.693266 527.766888 149.954679 
Q 527.766888 152.206734 530.6666 153.49496 
Q 533.574191 154.780066 538.648687 154.780066 
Q 541.477481 154.780066 544.038368 154.449432 
Q 546.599255 154.115679 549.238938 153.404503 
z
" style="fill:#0000ff;"/>
   </g>
   <g id="patch_39">
    <path clip-path="url(#p980f379484)" d="M 539.628362 120.393999 
L 527.600755 120.393999 
L 525.701659 142.4 
L 517.964602 142.4 
L 529.013887 21.6 
L 538.189653 21.6 
L 549.238938 142.4 
L 541.508275 142.4 
z
M 529.519034 97.973768 
L 537.690901 97.973768 
L 533.611361 49.923018 
z
" style="fill:#008000;"/>
   </g>
   <g id="patch_40">
    <path clip-path="url(#p980f379484)" d="M 550.884956 21.6 
L 582.159292 21.6 
L 582.159292 48.104286 
L 570.907804 48.104286 
L 570.907804 157.5 
L 562.158263 157.5 
L 562.158263 48.104286 
L 550.884956 48.104286 
z
" style="fill:#ff0000;"/>
   </g>
   <g id="patch_41">
    <path clip-path="url(#p980f379484)" d="M 615.079646 145.204152 
Q 611.925578 151.352076 608.533203 154.440074 
Q 605.140827 157.5 601.524163 157.5 
Q 593.351622 157.5 588.578466 139.196592 
Q 583.80531 120.893183 583.80531 89.592109 
Q 583.80531 57.92609 588.662574 39.763045 
Q 593.526848 21.6 601.986759 21.6 
Q 605.245963 21.6 608.231814 24.070399 
Q 611.224674 26.512725 613.874091 31.341231 
L 613.874091 58.431398 
Q 611.140566 52.227329 608.435076 49.167403 
Q 605.729587 46.079405 603.010079 46.079405 
Q 597.977589 46.079405 595.251072 57.364635 
Q 592.524555 68.621793 592.524555 89.592109 
Q 592.524555 110.365916 595.152945 121.707292 
Q 597.781335 133.020595 602.617573 133.020595 
Q 603.935272 133.020595 605.063728 132.374923 
Q 606.192183 131.701177 607.08934 130.297542 
L 607.08934 104.863665 
L 601.937696 104.863665 
L 601.937696 82.208986 
L 615.079646 82.208986 
z
" style="fill:#ffa600;"/>
   </g>
   <g id="patch_42">
    <path clip-path="url(#p980f379484)" d="M 638.389424 154.74925 
L 626.361817 154.74925 
L 624.462721 157.5 
L 616.725664 157.5 
L 627.774949 142.4 
L 636.950715 142.4 
L 648 157.5 
L 640.269337 157.5 
z
M 628.280095 151.946721 
L 636.451963 151.946721 
L 632.372423 145.940377 
z
" style="fill:#008000;"/>
   </g>
   <g id="patch_43">
    <path clip-path="url(#p980f379484)" d="M 648 140.235282 
Q 645.383956 141.308283 642.555161 141.851023 
Q 639.726366 142.4 636.645422 142.4 
Q 627.457749 142.4 622.091706 138.332576 
Q 616.725664 134.265152 616.725664 127.309358 
Q 616.725664 120.32861 622.091706 116.267424 
Q 627.457749 112.2 636.645422 112.2 
Q 639.726366 112.2 642.555161 112.748977 
Q 645.383956 113.291717 648 114.364718 
L 648 120.384755 
Q 645.360317 118.962404 642.79943 118.301136 
Q 640.238543 117.639868 637.409749 117.639868 
Q 632.335253 117.639868 629.427662 120.216319 
Q 626.52795 122.786532 626.52795 127.309358 
Q 626.52795 131.813468 629.427662 134.389919 
Q 632.335253 136.960132 637.409749 136.960132 
Q 640.238543 136.960132 642.79943 136.298864 
Q 645.360317 135.631357 648 134.209006 
z
" style="fill:#0000ff;"/>
   </g>
   <g id="patch_44">
    <path clip-path="url(#p980f379484)" d="M 648 108.101384 
Q 644.845932 110.150692 641.453557 111.180025 
Q 638.061181 112.2 634.444517 112.2 
Q 626.271976 112.2 621.49882 106.098864 
Q 616.725664 99.997728 616.725664 89.564036 
Q 616.725664 79.008697 621.582928 72.954348 
Q 626.447202 66.9 634.907113 66.9 
Q 638.166317 66.9 641.152168 67.723466 
Q 644.145028 68.537575 646.794445 70.147077 
L 646.794445 79.177133 
Q 644.06092 77.10911 641.35543 76.089134 
Q 638.649941 75.059802 635.930433 75.059802 
Q 630.897943 75.059802 628.171426 78.821545 
Q 625.444909 82.573931 625.444909 89.564036 
Q 625.444909 96.488639 628.073299 100.269097 
Q 630.701689 104.040198 635.537927 104.040198 
Q 636.855626 104.040198 637.984082 103.824974 
Q 639.112537 103.600392 640.009694 103.132514 
L 640.009694 94.654555 
L 634.85805 94.654555 
L 634.85805 87.102995 
L 648 87.102995 
z
" style="fill:#ffa600;"/>
   </g>
   <g id="patch_45">
    <path clip-path="url(#p980f379484)" d="M 616.725664 21.6 
L 648 21.6 
L 648 30.434762 
L 636.748512 30.434762 
L 636.748512 66.9 
L 627.998971 66.9 
L 627.998971 30.434762 
L 616.725664 30.434762 
z
" style="fill:#ff0000;"/>
   </g>
  </g>
 </g>
 <defs>
  <clipPath id="p980f379484">
   <rect height="135.9" width="558" x="90" y="21.6"/>
  </clipPath>
 </defs>
</svg>
