<?xml version="1.0" encoding="utf-8" standalone="no"?>
<!DOCTYPE svg PUBLIC "-//W3C//DTD SVG 1.1//EN"
  "http://www.w3.org/Graphics/SVG/1.1/DTD/svg11.dtd">
<!-- Created with matplotlib (https://matplotlib.org/) -->
<svg height="180pt" version="1.1" viewBox="0 0 720 180" width="720pt" xmlns="http://www.w3.org/2000/svg" xmlns:xlink="http://www.w3.org/1999/xlink">
 <metadata>
  <rdf:RDF xmlns:cc="http://creativecommons.org/ns#" xmlns:dc="http://purl.org/dc/elements/1.1/" xmlns:rdf="http://www.w3.org/1999/02/22-rdf-syntax-ns#">
   <cc:Work>
    <dc:type rdf:resource="http://purl.org/dc/dcmitype/StillImage"/>
    <dc:date>2021-08-04T23:33:41.557488</dc:date>
    <dc:format>image/svg+xml</dc:format>
    <dc:creator>
     <cc:Agent>
      <dc:title>Matplotlib v3.3.2, https://matplotlib.org/</dc:title>
     </cc:Agent>
    </dc:creator>
   </cc:Work>
  </rdf:RDF>
 </metadata>
 <defs>
  <style type="text/css">*{stroke-linecap:butt;stroke-linejoin:round;}</style>
 </defs>
 <g id="figure_1">
  <g id="patch_1">
   <path d="M 0 180 
L 720 180 
L 720 0 
L 0 0 
z
" style="fill:none;"/>
  </g>
  <g id="axes_1">
   <g id="line2d_1">
    <path clip-path="url(#p654b699513)" d="M 90 157.5 
L 648 157.5 
" style="fill:none;stroke:#000000;stroke-linecap:square;stroke-width:0.5;"/>
   </g>
   <g id="patch_2">
    <path clip-path="url(#p654b699513)" d="M 121.274336 156.133795 
Q 118.120268 156.816897 114.727893 157.160008 
Q 111.335518 157.5 107.718853 157.5 
Q 99.546312 157.5 94.773156 155.466288 
Q 90 153.432576 90 149.954679 
Q 90 146.436232 94.857265 144.418116 
Q 99.721538 142.4 108.18145 142.4 
Q 111.440653 142.4 114.426504 142.674489 
Q 117.419364 142.945858 120.068781 143.482359 
L 120.068781 146.492378 
Q 117.335256 145.803037 114.629766 145.463045 
Q 111.924277 145.119934 109.204769 145.119934 
Q 104.172279 145.119934 101.445762 146.373848 
Q 98.719246 147.624644 98.719246 149.954679 
Q 98.719246 152.26288 101.347636 153.523032 
Q 103.976026 154.780066 108.812263 154.780066 
Q 110.129963 154.780066 111.258418 154.708325 
Q 112.386874 154.633464 113.284031 154.477505 
L 113.284031 151.651518 
L 108.132386 151.651518 
L 108.132386 149.134332 
L 121.274336 149.134332 
z
" style="fill:#ffa600;"/>
   </g>
   <g id="patch_3">
    <path clip-path="url(#p654b699513)" d="M 111.66376 128.646249 
L 99.636153 128.646249 
L 97.737057 142.4 
L 90 142.4 
L 101.049285 66.9 
L 110.225051 66.9 
L 121.274336 142.4 
L 113.543673 142.4 
z
M 101.554432 114.633605 
L 109.726299 114.633605 
L 105.64676 84.601886 
z
" style="fill:#008000;"/>
   </g>
   <g id="patch_4">
    <path clip-path="url(#p654b699513)" d="M 144.584114 151.9985 
L 132.556507 151.9985 
L 130.657411 157.5 
L 122.920354 157.5 
L 133.969639 127.3 
L 143.145405 127.3 
L 154.19469 157.5 
L 146.464027 157.5 
z
M 134.474786 146.393442 
L 142.646653 146.393442 
L 138.567114 134.380754 
z
" style="fill:#008000;"/>
   </g>
   <g id="patch_5">
    <path clip-path="url(#p654b699513)" d="M 122.920354 66.9 
L 154.19469 66.9 
L 154.19469 78.679683 
L 142.943202 78.679683 
L 142.943202 127.3 
L 134.193661 127.3 
L 134.193661 78.679683 
L 122.920354 78.679683 
z
" style="fill:#ff0000;"/>
   </g>
   <g id="patch_6">
    <path clip-path="url(#p654b699513)" d="M 155.840708 127.3 
L 187.115044 127.3 
L 187.115044 133.189841 
L 175.863556 133.189841 
L 175.863556 157.5 
L 167.114015 157.5 
L 167.114015 133.189841 
L 155.840708 133.189841 
z
" style="fill:#ff0000;"/>
   </g>
   <g id="patch_7">
    <path clip-path="url(#p654b699513)" d="M 187.115044 121.835179 
Q 183.960976 124.567589 180.568601 125.940033 
Q 177.176226 127.3 173.559561 127.3 
Q 165.38702 127.3 160.613864 119.165152 
Q 155.840708 111.030304 155.840708 97.118715 
Q 155.840708 83.044929 160.697973 74.972464 
Q 165.562246 66.9 174.022158 66.9 
Q 177.281361 66.9 180.267212 67.997955 
Q 183.260072 69.083433 185.909489 71.229436 
L 185.909489 83.26951 
Q 183.175964 80.512146 180.470474 79.152179 
Q 177.764985 77.779736 175.045477 77.779736 
Q 170.012987 77.779736 167.28647 82.795394 
Q 164.559954 87.798575 164.559954 97.118715 
Q 164.559954 106.351518 167.188344 111.39213 
Q 169.816734 116.420264 174.652971 116.420264 
Q 175.970671 116.420264 177.099126 116.133299 
Q 178.227582 115.833857 179.124739 115.210019 
L 179.124739 103.906073 
L 173.973094 103.906073 
L 173.973094 93.837327 
L 187.115044 93.837327 
z
" style="fill:#ffa600;"/>
   </g>
   <g id="patch_8">
    <path clip-path="url(#p654b699513)" d="M 188.761062 142.4 
L 220.035398 142.4 
L 220.035398 145.344921 
L 208.78391 145.344921 
L 208.78391 157.5 
L 200.034369 157.5 
L 200.034369 145.344921 
L 188.761062 145.344921 
z
" style="fill:#ff0000;"/>
   </g>
   <g id="patch_9">
    <path clip-path="url(#p654b699513)" d="M 220.035398 135.568973 
Q 216.88133 138.984487 213.488955 140.700041 
Q 210.09658 142.4 206.479915 142.4 
Q 198.307374 142.4 193.534218 132.23144 
Q 188.761062 122.06288 188.761062 104.673394 
Q 188.761062 87.081161 193.618327 76.99058 
Q 198.4826 66.9 206.942512 66.9 
Q 210.201715 66.9 213.187566 68.272444 
Q 216.180426 69.629291 218.829843 72.311795 
L 218.829843 87.361888 
Q 216.096318 83.915183 213.390828 82.215224 
Q 210.685339 80.499669 207.965831 80.499669 
Q 202.933341 80.499669 200.206824 86.769242 
Q 197.480308 93.023218 197.480308 104.673394 
Q 197.480308 116.214398 200.108698 122.515162 
Q 202.737088 128.800331 207.573325 128.800331 
Q 208.891025 128.800331 210.01948 128.441624 
Q 211.147936 128.067321 212.045093 127.287523 
L 212.045093 113.157591 
L 206.893448 113.157591 
L 206.893448 100.571659 
L 220.035398 100.571659 
z
" style="fill:#ffa600;"/>
   </g>
   <g id="patch_10">
    <path clip-path="url(#p654b699513)" d="M 243.345176 154.74925 
L 231.317569 154.74925 
L 229.418473 157.5 
L 221.681416 157.5 
L 232.730701 142.4 
L 241.906467 142.4 
L 252.955752 157.5 
L 245.225089 157.5 
z
M 233.235848 151.946721 
L 241.407715 151.946721 
L 237.328175 145.940377 
z
" style="fill:#008000;"/>
   </g>
   <g id="patch_11">
    <path clip-path="url(#p654b699513)" d="M 252.955752 141.033795 
Q 249.801684 141.716897 246.409309 142.060008 
Q 243.016934 142.4 239.400269 142.4 
Q 231.227728 142.4 226.454572 140.366288 
Q 221.681416 138.332576 221.681416 134.854679 
Q 221.681416 131.336232 226.538681 129.318116 
Q 231.402954 127.3 239.862866 127.3 
Q 243.122069 127.3 246.10792 127.574489 
Q 249.10078 127.845858 251.750197 128.382359 
L 251.750197 131.392378 
Q 249.016672 130.703037 246.311182 130.363045 
Q 243.605693 130.019934 240.886185 130.019934 
Q 235.853695 130.019934 233.127178 131.273848 
Q 230.400662 132.524644 230.400662 134.854679 
Q 230.400662 137.16288 233.029052 138.423032 
Q 235.657442 139.680066 240.493679 139.680066 
Q 241.811379 139.680066 242.939834 139.608325 
Q 244.06829 139.533464 244.965447 139.377505 
L 244.965447 136.551518 
L 239.813802 136.551518 
L 239.813802 134.034332 
L 252.955752 134.034332 
z
" style="fill:#ffa600;"/>
   </g>
   <g id="patch_12">
    <path clip-path="url(#p654b699513)" d="M 252.955752 122.970564 
Q 250.339708 125.116567 247.510913 126.202045 
Q 244.682118 127.3 241.601175 127.3 
Q 232.413501 127.3 227.047459 119.165152 
Q 221.681416 111.030304 221.681416 97.118715 
Q 221.681416 83.15722 227.047459 75.034848 
Q 232.413501 66.9 241.601175 66.9 
Q 244.682118 66.9 247.510913 67.997955 
Q 250.339708 69.083433 252.955752 71.229436 
L 252.955752 83.26951 
Q 250.316069 80.424809 247.755182 79.102272 
Q 245.194296 77.779736 242.365501 77.779736 
Q 237.291005 77.779736 234.383414 82.932638 
Q 231.483702 88.073063 231.483702 97.118715 
Q 231.483702 106.126937 234.383414 111.279839 
Q 237.291005 116.420264 242.365501 116.420264 
Q 245.194296 116.420264 247.755182 115.097728 
Q 250.316069 113.762714 252.955752 110.918013 
z
" style="fill:#0000ff;"/>
   </g>
   <g id="patch_13">
    <path clip-path="url(#p654b699513)" d="M 285.876106 156.133795 
Q 282.722038 156.816897 279.329663 157.160008 
Q 275.937288 157.5 272.320623 157.5 
Q 264.148082 157.5 259.374926 155.466288 
Q 254.60177 153.432576 254.60177 149.954679 
Q 254.60177 146.436232 259.459035 144.418116 
Q 264.323308 142.4 272.78322 142.4 
Q 276.042423 142.4 279.028274 142.674489 
Q 282.021134 142.945858 284.670551 143.482359 
L 284.670551 146.492378 
Q 281.937026 145.803037 279.231536 145.463045 
Q 276.526047 145.119934 273.806539 145.119934 
Q 268.774049 145.119934 266.047532 146.373848 
Q 263.321016 147.624644 263.321016 149.954679 
Q 263.321016 152.26288 265.949406 153.523032 
Q 268.577796 154.780066 273.414033 154.780066 
Q 274.731733 154.780066 275.860188 154.708325 
Q 276.988644 154.633464 277.885801 154.477505 
L 277.885801 151.651518 
L 272.734156 151.651518 
L 272.734156 149.134332 
L 285.876106 149.134332 
z
" style="fill:#ffa600;"/>
   </g>
   <g id="patch_14">
    <path clip-path="url(#p654b699513)" d="M 285.876106 136.988205 
Q 283.260062 139.670709 280.431267 141.027556 
Q 277.602472 142.4 274.521529 142.4 
Q 265.333855 142.4 259.967812 132.23144 
Q 254.60177 122.06288 254.60177 104.673394 
Q 254.60177 87.221524 259.967812 77.06856 
Q 265.333855 66.9 274.521529 66.9 
Q 277.602472 66.9 280.431267 68.272444 
Q 283.260062 69.629291 285.876106 72.311795 
L 285.876106 87.361888 
Q 283.236423 83.806011 280.675536 82.15284 
Q 278.11465 80.499669 275.285855 80.499669 
Q 270.211359 80.499669 267.303768 86.940797 
Q 264.404056 93.366329 264.404056 104.673394 
Q 264.404056 115.933671 267.303768 122.374799 
Q 270.211359 128.800331 275.285855 128.800331 
Q 278.11465 128.800331 280.675536 127.14716 
Q 283.236423 125.478393 285.876106 121.922516 
z
" style="fill:#0000ff;"/>
   </g>
   <g id="patch_15">
    <path clip-path="url(#p654b699513)" d="M 309.185884 154.74925 
L 297.158277 154.74925 
L 295.259181 157.5 
L 287.522124 157.5 
L 298.571409 142.4 
L 307.747175 142.4 
L 318.79646 157.5 
L 311.065797 157.5 
z
M 299.076556 151.946721 
L 307.248423 151.946721 
L 303.168883 145.940377 
z
" style="fill:#008000;"/>
   </g>
   <g id="patch_16">
    <path clip-path="url(#p654b699513)" d="M 318.79646 136.988205 
Q 316.180416 139.670709 313.351621 141.027556 
Q 310.522826 142.4 307.441883 142.4 
Q 298.254209 142.4 292.888166 132.23144 
Q 287.522124 122.06288 287.522124 104.673394 
Q 287.522124 87.221524 292.888166 77.06856 
Q 298.254209 66.9 307.441883 66.9 
Q 310.522826 66.9 313.351621 68.272444 
Q 316.180416 69.629291 318.79646 72.311795 
L 318.79646 87.361888 
Q 316.156777 83.806011 313.59589 82.15284 
Q 311.035004 80.499669 308.206209 80.499669 
Q 303.131713 80.499669 300.224122 86.940797 
Q 297.32441 93.366329 297.32441 104.673394 
Q 297.32441 115.933671 300.224122 122.374799 
Q 303.131713 128.800331 308.206209 128.800331 
Q 311.035004 128.800331 313.59589 127.14716 
Q 316.156777 125.478393 318.79646 121.922516 
z
" style="fill:#0000ff;"/>
   </g>
   <g id="patch_17">
    <path clip-path="url(#p654b699513)" d="M 351.716814 147.758769 
Q 349.10077 152.587275 346.271975 155.029601 
Q 343.44318 157.5 340.362237 157.5 
Q 331.174563 157.5 325.80852 139.196592 
Q 320.442478 120.893183 320.442478 89.592109 
Q 320.442478 58.178744 325.80852 39.903408 
Q 331.174563 21.6 340.362237 21.6 
Q 343.44318 21.6 346.271975 24.070399 
Q 349.10077 26.512725 351.716814 31.341231 
L 351.716814 58.431398 
Q 349.077131 52.03082 346.516244 49.055113 
Q 343.955358 46.079405 341.126563 46.079405 
Q 336.052067 46.079405 333.144476 57.673435 
Q 330.244764 69.239393 330.244764 89.592109 
Q 330.244764 109.860607 333.144476 121.454637 
Q 336.052067 133.020595 341.126563 133.020595 
Q 343.955358 133.020595 346.516244 130.044887 
Q 349.077131 127.041107 351.716814 120.640529 
z
" style="fill:#0000ff;"/>
   </g>
   <g id="patch_18">
    <path clip-path="url(#p654b699513)" d="M 384.637168 147.758769 
Q 382.021124 152.587275 379.192329 155.029601 
Q 376.363534 157.5 373.282591 157.5 
Q 364.094917 157.5 358.728874 139.196592 
Q 353.362832 120.893183 353.362832 89.592109 
Q 353.362832 58.178744 358.728874 39.903408 
Q 364.094917 21.6 373.282591 21.6 
Q 376.363534 21.6 379.192329 24.070399 
Q 382.021124 26.512725 384.637168 31.341231 
L 384.637168 58.431398 
Q 381.997485 52.03082 379.436598 49.055113 
Q 376.875712 46.079405 374.046917 46.079405 
Q 368.972421 46.079405 366.06483 57.673435 
Q 363.165118 69.239393 363.165118 89.592109 
Q 363.165118 109.860607 366.06483 121.454637 
Q 368.972421 133.020595 374.046917 133.020595 
Q 376.875712 133.020595 379.436598 130.044887 
Q 381.997485 127.041107 384.637168 120.640529 
z
" style="fill:#0000ff;"/>
   </g>
   <g id="patch_19">
    <path clip-path="url(#p654b699513)" d="M 417.557522 147.758769 
Q 414.941478 152.587275 412.112683 155.029601 
Q 409.283888 157.5 406.202945 157.5 
Q 397.015271 157.5 391.649228 139.196592 
Q 386.283186 120.893183 386.283186 89.592109 
Q 386.283186 58.178744 391.649228 39.903408 
Q 397.015271 21.6 406.202945 21.6 
Q 409.283888 21.6 412.112683 24.070399 
Q 414.941478 26.512725 417.557522 31.341231 
L 417.557522 58.431398 
Q 414.917839 52.03082 412.356952 49.055113 
Q 409.796066 46.079405 406.967271 46.079405 
Q 401.892775 46.079405 398.985184 57.673435 
Q 396.085472 69.239393 396.085472 89.592109 
Q 396.085472 109.860607 398.985184 121.454637 
Q 401.892775 133.020595 406.967271 133.020595 
Q 409.796066 133.020595 412.356952 130.044887 
Q 414.917839 127.041107 417.557522 120.640529 
z
" style="fill:#0000ff;"/>
   </g>
   <g id="patch_20">
    <path clip-path="url(#p654b699513)" d="M 450.477876 156.133795 
Q 447.323808 156.816897 443.931433 157.160008 
Q 440.539057 157.5 436.922393 157.5 
Q 428.749852 157.5 423.976696 155.466288 
Q 419.20354 153.432576 419.20354 149.954679 
Q 419.20354 146.436232 424.060805 144.418116 
Q 428.925078 142.4 437.384989 142.4 
Q 440.644193 142.4 443.630044 142.674489 
Q 446.622904 142.945858 449.272321 143.482359 
L 449.272321 146.492378 
Q 446.538796 145.803037 443.833306 145.463045 
Q 441.127817 145.119934 438.408309 145.119934 
Q 433.375819 145.119934 430.649302 146.373848 
Q 427.922786 147.624644 427.922786 149.954679 
Q 427.922786 152.26288 430.551176 153.523032 
Q 433.179565 154.780066 438.015803 154.780066 
Q 439.333503 154.780066 440.461958 154.708325 
Q 441.590413 154.633464 442.487571 154.477505 
L 442.487571 151.651518 
L 437.335926 151.651518 
L 437.335926 149.134332 
L 450.477876 149.134332 
z
" style="fill:#ffa600;"/>
   </g>
   <g id="patch_21">
    <path clip-path="url(#p654b699513)" d="M 440.8673 136.8985 
L 428.839693 136.8985 
L 426.940597 142.4 
L 419.20354 142.4 
L 430.252825 112.2 
L 439.428591 112.2 
L 450.477876 142.4 
L 442.747213 142.4 
z
M 430.757972 131.293442 
L 438.929839 131.293442 
L 434.850299 119.280754 
z
" style="fill:#008000;"/>
   </g>
   <g id="patch_22">
    <path clip-path="url(#p654b699513)" d="M 450.477876 105.705846 
Q 447.861832 108.92485 445.033037 110.553068 
Q 442.204242 112.2 439.123298 112.2 
Q 429.935625 112.2 424.569582 99.997728 
Q 419.20354 87.795455 419.20354 66.928073 
Q 419.20354 45.985829 424.569582 33.802272 
Q 429.935625 21.6 439.123298 21.6 
Q 442.204242 21.6 445.033037 23.246932 
Q 447.861832 24.87515 450.477876 28.094154 
L 450.477876 46.154266 
Q 447.838193 41.887213 445.277306 39.903408 
Q 442.71642 37.919603 439.887625 37.919603 
Q 434.813129 37.919603 431.905538 45.648957 
Q 429.005826 53.359595 429.005826 66.928073 
Q 429.005826 80.440405 431.905538 88.169758 
Q 434.813129 95.880397 439.887625 95.880397 
Q 442.71642 95.880397 445.277306 93.896592 
Q 447.838193 91.894071 450.477876 87.627019 
z
" style="fill:#0000ff;"/>
   </g>
   <g id="patch_23">
    <path clip-path="url(#p654b699513)" d="M 473.787654 154.74925 
L 461.760047 154.74925 
L 459.860951 157.5 
L 452.123894 157.5 
L 463.173179 142.4 
L 472.348945 142.4 
L 483.39823 157.5 
L 475.667567 157.5 
z
M 463.678326 151.946721 
L 471.850193 151.946721 
L 467.770653 145.940377 
z
" style="fill:#008000;"/>
   </g>
   <g id="patch_24">
    <path clip-path="url(#p654b699513)" d="M 483.39823 131.470357 
Q 480.244162 136.935179 476.851787 139.680066 
Q 473.459411 142.4 469.842747 142.4 
Q 461.670206 142.4 456.89705 126.130304 
Q 452.123894 109.860607 452.123894 82.03743 
Q 452.123894 53.889857 456.981158 37.744929 
Q 461.845432 21.6 470.305343 21.6 
Q 473.564547 21.6 476.550398 23.79591 
Q 479.543258 25.966866 482.192675 30.258872 
L 482.192675 54.339021 
Q 479.45915 48.824293 476.75366 46.104359 
Q 474.048171 43.359471 471.328663 43.359471 
Q 466.296173 43.359471 463.569656 53.390787 
Q 460.84314 63.397149 460.84314 82.03743 
Q 460.84314 100.503037 463.471529 110.584259 
Q 466.099919 120.640529 470.936157 120.640529 
Q 472.253857 120.640529 473.382312 120.066598 
Q 474.510767 119.467713 475.407925 118.220037 
L 475.407925 95.612146 
L 470.25628 95.612146 
L 470.25628 75.474654 
L 483.39823 75.474654 
z
" style="fill:#ffa600;"/>
   </g>
   <g id="patch_25">
    <path clip-path="url(#p654b699513)" d="M 516.318584 152.035179 
Q 513.164516 154.767589 509.772141 156.140033 
Q 506.379765 157.5 502.763101 157.5 
Q 494.59056 157.5 489.817404 149.365152 
Q 485.044248 141.230304 485.044248 127.318715 
Q 485.044248 113.244929 489.901512 105.172464 
Q 494.765786 97.1 503.225697 97.1 
Q 506.484901 97.1 509.470752 98.197955 
Q 512.463612 99.283433 515.113029 101.429436 
L 515.113029 113.46951 
Q 512.379504 110.712146 509.674014 109.352179 
Q 506.968525 107.979736 504.249017 107.979736 
Q 499.216527 107.979736 496.49001 112.995394 
Q 493.763493 117.998575 493.763493 127.318715 
Q 493.763493 136.551518 496.391883 141.59213 
Q 499.020273 146.620264 503.856511 146.620264 
Q 505.174211 146.620264 506.302666 146.333299 
Q 507.431121 146.033857 508.328279 145.410019 
L 508.328279 134.106073 
L 503.176634 134.106073 
L 503.176634 124.037327 
L 516.318584 124.037327 
z
" style="fill:#ffa600;"/>
   </g>
   <g id="patch_26">
    <path clip-path="url(#p654b699513)" d="M 516.318584 91.688205 
Q 513.70254 94.370709 510.873745 95.727556 
Q 508.04495 97.1 504.964006 97.1 
Q 495.776333 97.1 490.41029 86.93144 
Q 485.044248 76.76288 485.044248 59.373394 
Q 485.044248 41.921524 490.41029 31.76856 
Q 495.776333 21.6 504.964006 21.6 
Q 508.04495 21.6 510.873745 22.972444 
Q 513.70254 24.329291 516.318584 27.011795 
L 516.318584 42.061888 
Q 513.678901 38.506011 511.118014 36.85284 
Q 508.557127 35.199669 505.728333 35.199669 
Q 500.653837 35.199669 497.746246 41.640797 
Q 494.846534 48.066329 494.846534 59.373394 
Q 494.846534 70.633671 497.746246 77.074799 
Q 500.653837 83.500331 505.728333 83.500331 
Q 508.557127 83.500331 511.118014 81.84716 
Q 513.678901 80.178393 516.318584 76.622516 
z
" style="fill:#0000ff;"/>
   </g>
   <g id="patch_27">
    <path clip-path="url(#p654b699513)" d="M 539.628362 154.74925 
L 527.600755 154.74925 
L 525.701659 157.5 
L 517.964602 157.5 
L 529.013887 142.4 
L 538.189653 142.4 
L 549.238938 157.5 
L 541.508275 157.5 
z
M 529.519034 151.946721 
L 537.690901 151.946721 
L 533.611361 145.940377 
z
" style="fill:#008000;"/>
   </g>
   <g id="patch_28">
    <path clip-path="url(#p654b699513)" d="M 517.964602 127.3 
L 549.238938 127.3 
L 549.238938 130.244921 
L 537.98745 130.244921 
L 537.98745 142.4 
L 529.237909 142.4 
L 529.237909 130.244921 
L 517.964602 130.244921 
z
" style="fill:#ff0000;"/>
   </g>
   <g id="patch_29">
    <path clip-path="url(#p654b699513)" d="M 549.238938 123.201384 
Q 546.08487 125.250692 542.692495 126.280025 
Q 539.300119 127.3 535.683455 127.3 
Q 527.510914 127.3 522.737758 121.198864 
Q 517.964602 115.097728 517.964602 104.664036 
Q 517.964602 94.108697 522.821866 88.054348 
Q 527.68614 82 536.146051 82 
Q 539.405255 82 542.391106 82.823466 
Q 545.383966 83.637575 548.033383 85.247077 
L 548.033383 94.277133 
Q 545.299858 92.20911 542.594368 91.189134 
Q 539.888879 90.159802 537.169371 90.159802 
Q 532.136881 90.159802 529.410364 93.921545 
Q 526.683847 97.673931 526.683847 104.664036 
Q 526.683847 111.588639 529.312237 115.369097 
Q 531.940627 119.140198 536.776865 119.140198 
Q 538.094565 119.140198 539.22302 118.924974 
Q 540.351475 118.700392 541.248633 118.232514 
L 541.248633 109.754555 
L 536.096988 109.754555 
L 536.096988 102.202995 
L 549.238938 102.202995 
z
" style="fill:#ffa600;"/>
   </g>
   <g id="patch_30">
    <path clip-path="url(#p654b699513)" d="M 549.238938 77.670564 
Q 546.622894 79.816567 543.794099 80.902045 
Q 540.965304 82 537.88436 82 
Q 528.696687 82 523.330644 73.865152 
Q 517.964602 65.730304 517.964602 51.818715 
Q 517.964602 37.85722 523.330644 29.734848 
Q 528.696687 21.6 537.88436 21.6 
Q 540.965304 21.6 543.794099 22.697955 
Q 546.622894 23.783433 549.238938 25.929436 
L 549.238938 37.96951 
Q 546.599255 35.124809 544.038368 33.802272 
Q 541.477481 32.479736 538.648687 32.479736 
Q 533.574191 32.479736 530.6666 37.632638 
Q 527.766888 42.773063 527.766888 51.818715 
Q 527.766888 60.826937 530.6666 65.979839 
Q 533.574191 71.120264 538.648687 71.120264 
Q 541.477481 71.120264 544.038368 69.797728 
Q 546.599255 68.462714 549.238938 65.618013 
z
" style="fill:#0000ff;"/>
   </g>
   <g id="patch_31">
    <path clip-path="url(#p654b699513)" d="M 582.159292 155.335282 
Q 579.543248 156.408283 576.714453 156.951023 
Q 573.885658 157.5 570.804714 157.5 
Q 561.617041 157.5 556.250998 153.432576 
Q 550.884956 149.365152 550.884956 142.409358 
Q 550.884956 135.42861 556.250998 131.367424 
Q 561.617041 127.3 570.804714 127.3 
Q 573.885658 127.3 576.714453 127.848977 
Q 579.543248 128.391717 582.159292 129.464718 
L 582.159292 135.484755 
Q 579.519609 134.062404 576.958722 133.401136 
Q 574.397835 132.739868 571.569041 132.739868 
Q 566.494545 132.739868 563.586954 135.316319 
Q 560.687242 137.886532 560.687242 142.409358 
Q 560.687242 146.913468 563.586954 149.489919 
Q 566.494545 152.060132 571.569041 152.060132 
Q 574.397835 152.060132 576.958722 151.398864 
Q 579.519609 150.731357 582.159292 149.309006 
z
" style="fill:#0000ff;"/>
   </g>
   <g id="patch_32">
    <path clip-path="url(#p654b699513)" d="M 582.159292 123.201384 
Q 579.005224 125.250692 575.612849 126.280025 
Q 572.220473 127.3 568.603809 127.3 
Q 560.431268 127.3 555.658112 121.198864 
Q 550.884956 115.097728 550.884956 104.664036 
Q 550.884956 94.108697 555.74222 88.054348 
Q 560.606494 82 569.066405 82 
Q 572.325609 82 575.31146 82.823466 
Q 578.30432 83.637575 580.953737 85.247077 
L 580.953737 94.277133 
Q 578.220212 92.20911 575.514722 91.189134 
Q 572.809233 90.159802 570.089725 90.159802 
Q 565.057235 90.159802 562.330718 93.921545 
Q 559.604201 97.673931 559.604201 104.664036 
Q 559.604201 111.588639 562.232591 115.369097 
Q 564.860981 119.140198 569.697219 119.140198 
Q 571.014919 119.140198 572.143374 118.924974 
Q 573.271829 118.700392 574.168986 118.232514 
L 574.168986 109.754555 
L 569.017342 109.754555 
L 569.017342 102.202995 
L 582.159292 102.202995 
z
" style="fill:#ffa600;"/>
   </g>
   <g id="patch_33">
    <path clip-path="url(#p654b699513)" d="M 572.548716 70.997 
L 560.521109 70.997 
L 558.622013 82 
L 550.884956 82 
L 561.934241 21.6 
L 571.110007 21.6 
L 582.159292 82 
L 574.428629 82 
z
M 562.439387 59.786884 
L 570.611255 59.786884 
L 566.531715 35.761509 
z
" style="fill:#008000;"/>
   </g>
   <g id="patch_34">
    <path clip-path="url(#p654b699513)" d="M 583.80531 142.4 
L 615.079646 142.4 
L 615.079646 145.344921 
L 603.828158 145.344921 
L 603.828158 157.5 
L 595.078617 157.5 
L 595.078617 145.344921 
L 583.80531 145.344921 
z
" style="fill:#ff0000;"/>
   </g>
   <g id="patch_35">
    <path clip-path="url(#p654b699513)" d="M 605.46907 134.14775 
L 593.441463 134.14775 
L 591.542367 142.4 
L 583.80531 142.4 
L 594.854595 97.1 
L 604.030361 97.1 
L 615.079646 142.4 
L 607.348983 142.4 
z
M 595.359741 125.740163 
L 603.531609 125.740163 
L 599.452069 107.721132 
z
" style="fill:#008000;"/>
   </g>
   <g id="patch_36">
    <path clip-path="url(#p654b699513)" d="M 615.079646 90.268973 
Q 611.925578 93.684487 608.533203 95.400041 
Q 605.140827 97.1 601.524163 97.1 
Q 593.351622 97.1 588.578466 86.93144 
Q 583.80531 76.76288 583.80531 59.373394 
Q 583.80531 41.781161 588.662574 31.69058 
Q 593.526848 21.6 601.986759 21.6 
Q 605.245963 21.6 608.231814 22.972444 
Q 611.224674 24.329291 613.874091 27.011795 
L 613.874091 42.061888 
Q 611.140566 38.615183 608.435076 36.915224 
Q 605.729587 35.199669 603.010079 35.199669 
Q 597.977589 35.199669 595.251072 41.469242 
Q 592.524555 47.723218 592.524555 59.373394 
Q 592.524555 70.914398 595.152945 77.215162 
Q 597.781335 83.500331 602.617573 83.500331 
Q 603.935272 83.500331 605.063728 83.141624 
Q 606.192183 82.767321 607.08934 81.987523 
L 607.08934 67.857591 
L 601.937696 67.857591 
L 601.937696 55.271659 
L 615.079646 55.271659 
z
" style="fill:#ffa600;"/>
   </g>
   <g id="patch_37">
    <path clip-path="url(#p654b699513)" d="M 638.389424 151.9985 
L 626.361817 151.9985 
L 624.462721 157.5 
L 616.725664 157.5 
L 627.774949 127.3 
L 636.950715 127.3 
L 648 157.5 
L 640.269337 157.5 
z
M 628.280095 146.393442 
L 636.451963 146.393442 
L 632.372423 134.380754 
z
" style="fill:#008000;"/>
   </g>
   <g id="patch_38">
    <path clip-path="url(#p654b699513)" d="M 648 125.135282 
Q 645.383956 126.208283 642.555161 126.751023 
Q 639.726366 127.3 636.645422 127.3 
Q 627.457749 127.3 622.091706 123.232576 
Q 616.725664 119.165152 616.725664 112.209358 
Q 616.725664 105.22861 622.091706 101.167424 
Q 627.457749 97.1 636.645422 97.1 
Q 639.726366 97.1 642.555161 97.648977 
Q 645.383956 98.191717 648 99.264718 
L 648 105.284755 
Q 645.360317 103.862404 642.79943 103.201136 
Q 640.238543 102.539868 637.409749 102.539868 
Q 632.335253 102.539868 629.427662 105.116319 
Q 626.52795 107.686532 626.52795 112.209358 
Q 626.52795 116.713468 629.427662 119.289919 
Q 632.335253 121.860132 637.409749 121.860132 
Q 640.238543 121.860132 642.79943 121.198864 
Q 645.360317 120.531357 648 119.109006 
z
" style="fill:#0000ff;"/>
   </g>
   <g id="patch_39">
    <path clip-path="url(#p654b699513)" d="M 616.725664 66.9 
L 648 66.9 
L 648 72.789841 
L 636.748512 72.789841 
L 636.748512 97.1 
L 627.998971 97.1 
L 627.998971 72.789841 
L 616.725664 72.789841 
z
" style="fill:#ff0000;"/>
   </g>
   <g id="patch_40">
    <path clip-path="url(#p654b699513)" d="M 648 62.801384 
Q 644.845932 64.850692 641.453557 65.880025 
Q 638.061181 66.9 634.444517 66.9 
Q 626.271976 66.9 621.49882 60.798864 
Q 616.725664 54.697728 616.725664 44.264036 
Q 616.725664 33.708697 621.582928 27.654348 
Q 626.447202 21.6 634.907113 21.6 
Q 638.166317 21.6 641.152168 22.423466 
Q 644.145028 23.237575 646.794445 24.847077 
L 646.794445 33.877133 
Q 644.06092 31.80911 641.35543 30.789134 
Q 638.649941 29.759802 635.930433 29.759802 
Q 630.897943 29.759802 628.171426 33.521545 
Q 625.444909 37.273931 625.444909 44.264036 
Q 625.444909 51.188639 628.073299 54.969097 
Q 630.701689 58.740198 635.537927 58.740198 
Q 636.855626 58.740198 637.984082 58.524974 
Q 639.112537 58.300392 640.009694 57.832514 
L 640.009694 49.354555 
L 634.85805 49.354555 
L 634.85805 41.802995 
L 648 41.802995 
z
" style="fill:#ffa600;"/>
   </g>
  </g>
 </g>
 <defs>
  <clipPath id="p654b699513">
   <rect height="135.9" width="558" x="90" y="21.6"/>
  </clipPath>
 </defs>
</svg>
