<?xml version="1.0" encoding="utf-8" standalone="no"?>
<!DOCTYPE svg PUBLIC "-//W3C//DTD SVG 1.1//EN"
  "http://www.w3.org/Graphics/SVG/1.1/DTD/svg11.dtd">
<!-- Created with matplotlib (https://matplotlib.org/) -->
<svg height="180pt" version="1.1" viewBox="0 0 720 180" width="720pt" xmlns="http://www.w3.org/2000/svg" xmlns:xlink="http://www.w3.org/1999/xlink">
 <metadata>
  <rdf:RDF xmlns:cc="http://creativecommons.org/ns#" xmlns:dc="http://purl.org/dc/elements/1.1/" xmlns:rdf="http://www.w3.org/1999/02/22-rdf-syntax-ns#">
   <cc:Work>
    <dc:type rdf:resource="http://purl.org/dc/dcmitype/StillImage"/>
    <dc:date>2021-08-04T23:33:46.203527</dc:date>
    <dc:format>image/svg+xml</dc:format>
    <dc:creator>
     <cc:Agent>
      <dc:title>Matplotlib v3.3.2, https://matplotlib.org/</dc:title>
     </cc:Agent>
    </dc:creator>
   </cc:Work>
  </rdf:RDF>
 </metadata>
 <defs>
  <style type="text/css">*{stroke-linecap:butt;stroke-linejoin:round;}</style>
 </defs>
 <g id="figure_1">
  <g id="patch_1">
   <path d="M 0 180 
L 720 180 
L 720 0 
L 0 0 
z
" style="fill:none;"/>
  </g>
  <g id="axes_1">
   <g id="line2d_1">
    <path clip-path="url(#p94d374b609)" d="M 90 157.5 
L 648 157.5 
" style="fill:none;stroke:#000000;stroke-linecap:square;stroke-width:0.5;"/>
   </g>
   <g id="patch_2">
    <path clip-path="url(#p94d374b609)" d="M 111.66376 154.74925 
L 99.636153 154.74925 
L 97.737057 157.5 
L 90 157.5 
L 101.049285 142.4 
L 110.225051 142.4 
L 121.274336 157.5 
L 113.543673 157.5 
z
M 101.554432 151.946721 
L 109.726299 151.946721 
L 105.64676 145.940377 
z
" style="fill:#008000;"/>
   </g>
   <g id="patch_3">
    <path clip-path="url(#p94d374b609)" d="M 121.274336 141.317641 
Q 118.658292 141.854142 115.829497 142.125511 
Q 113.000702 142.4 109.919759 142.4 
Q 100.732085 142.4 95.366043 140.366288 
Q 90 138.332576 90 134.854679 
Q 90 131.364305 95.366043 129.333712 
Q 100.732085 127.3 109.919759 127.3 
Q 113.000702 127.3 115.829497 127.574489 
Q 118.658292 127.845858 121.274336 128.382359 
L 121.274336 131.392378 
Q 118.634653 130.681202 116.073766 130.350568 
Q 113.51288 130.019934 110.684085 130.019934 
Q 105.609589 130.019934 102.701998 131.308159 
Q 99.802286 132.593266 99.802286 134.854679 
Q 99.802286 137.106734 102.701998 138.39496 
Q 105.609589 139.680066 110.684085 139.680066 
Q 113.51288 139.680066 116.073766 139.349432 
Q 118.634653 139.015679 121.274336 138.304503 
z
" style="fill:#0000ff;"/>
   </g>
   <g id="patch_4">
    <path clip-path="url(#p94d374b609)" d="M 90 112.2 
L 121.274336 112.2 
L 121.274336 115.144921 
L 110.022848 115.144921 
L 110.022848 127.3 
L 101.273307 127.3 
L 101.273307 115.144921 
L 90 115.144921 
z
" style="fill:#ff0000;"/>
   </g>
   <g id="patch_5">
    <path clip-path="url(#p94d374b609)" d="M 154.19469 156.133795 
Q 151.040622 156.816897 147.648247 157.160008 
Q 144.255872 157.5 140.639207 157.5 
Q 132.466666 157.5 127.69351 155.466288 
Q 122.920354 153.432576 122.920354 149.954679 
Q 122.920354 146.436232 127.777619 144.418116 
Q 132.641892 142.4 141.101804 142.4 
Q 144.361007 142.4 147.346858 142.674489 
Q 150.339718 142.945858 152.989135 143.482359 
L 152.989135 146.492378 
Q 150.25561 145.803037 147.55012 145.463045 
Q 144.844631 145.119934 142.125123 145.119934 
Q 137.092633 145.119934 134.366116 146.373848 
Q 131.6396 147.624644 131.6396 149.954679 
Q 131.6396 152.26288 134.26799 153.523032 
Q 136.89638 154.780066 141.732617 154.780066 
Q 143.050317 154.780066 144.178772 154.708325 
Q 145.307228 154.633464 146.204385 154.477505 
L 146.204385 151.651518 
L 141.05274 151.651518 
L 141.05274 149.134332 
L 154.19469 149.134332 
z
" style="fill:#ffa600;"/>
   </g>
   <g id="patch_6">
    <path clip-path="url(#p94d374b609)" d="M 144.584114 136.8985 
L 132.556507 136.8985 
L 130.657411 142.4 
L 122.920354 142.4 
L 133.969639 112.2 
L 143.145405 112.2 
L 154.19469 142.4 
L 146.464027 142.4 
z
M 134.474786 131.293442 
L 142.646653 131.293442 
L 138.567114 119.280754 
z
" style="fill:#008000;"/>
   </g>
   <g id="patch_7">
    <path clip-path="url(#p94d374b609)" d="M 187.115044 156.417641 
Q 184.499 156.954142 181.670205 157.225511 
Q 178.84141 157.5 175.760467 157.5 
Q 166.572793 157.5 161.206751 155.466288 
Q 155.840708 153.432576 155.840708 149.954679 
Q 155.840708 146.464305 161.206751 144.433712 
Q 166.572793 142.4 175.760467 142.4 
Q 178.84141 142.4 181.670205 142.674489 
Q 184.499 142.945858 187.115044 143.482359 
L 187.115044 146.492378 
Q 184.475361 145.781202 181.914474 145.450568 
Q 179.353588 145.119934 176.524793 145.119934 
Q 171.450297 145.119934 168.542706 146.408159 
Q 165.642994 147.693266 165.642994 149.954679 
Q 165.642994 152.206734 168.542706 153.49496 
Q 171.450297 154.780066 176.524793 154.780066 
Q 179.353588 154.780066 181.914474 154.449432 
Q 184.475361 154.115679 187.115044 153.404503 
z
" style="fill:#0000ff;"/>
   </g>
   <g id="patch_8">
    <path clip-path="url(#p94d374b609)" d="M 155.840708 112.2 
L 187.115044 112.2 
L 187.115044 118.089841 
L 175.863556 118.089841 
L 175.863556 142.4 
L 167.114015 142.4 
L 167.114015 118.089841 
L 155.840708 118.089841 
z
" style="fill:#ff0000;"/>
   </g>
   <g id="patch_9">
    <path clip-path="url(#p94d374b609)" d="M 210.424822 154.74925 
L 198.397215 154.74925 
L 196.498119 157.5 
L 188.761062 157.5 
L 199.810347 142.4 
L 208.986113 142.4 
L 220.035398 157.5 
L 212.304735 157.5 
z
M 200.315494 151.946721 
L 208.487361 151.946721 
L 204.407821 145.940377 
z
" style="fill:#008000;"/>
   </g>
   <g id="patch_10">
    <path clip-path="url(#p94d374b609)" d="M 220.035398 139.667589 
Q 216.88133 141.033795 213.488955 141.720017 
Q 210.09658 142.4 206.479915 142.4 
Q 198.307374 142.4 193.534218 138.332576 
Q 188.761062 134.265152 188.761062 127.309358 
Q 188.761062 120.272464 193.618327 116.236232 
Q 198.4826 112.2 206.942512 112.2 
Q 210.201715 112.2 213.187566 112.748977 
Q 216.180426 113.291717 218.829843 114.364718 
L 218.829843 120.384755 
Q 216.096318 119.006073 213.390828 118.32609 
Q 210.685339 117.639868 207.965831 117.639868 
Q 202.933341 117.639868 200.206824 120.147697 
Q 197.480308 122.649287 197.480308 127.309358 
Q 197.480308 131.925759 200.108698 134.446065 
Q 202.737088 136.960132 207.573325 136.960132 
Q 208.891025 136.960132 210.01948 136.816649 
Q 211.147936 136.666928 212.045093 136.355009 
L 212.045093 130.703037 
L 206.893448 130.703037 
L 206.893448 125.668663 
L 220.035398 125.668663 
z
" style="fill:#ffa600;"/>
   </g>
   <g id="patch_11">
    <path clip-path="url(#p94d374b609)" d="M 252.955752 153.401384 
Q 249.801684 155.450692 246.409309 156.480025 
Q 243.016934 157.5 239.400269 157.5 
Q 231.227728 157.5 226.454572 151.398864 
Q 221.681416 145.297728 221.681416 134.864036 
Q 221.681416 124.308697 226.538681 118.254348 
Q 231.402954 112.2 239.862866 112.2 
Q 243.122069 112.2 246.10792 113.023466 
Q 249.10078 113.837575 251.750197 115.447077 
L 251.750197 124.477133 
Q 249.016672 122.40911 246.311182 121.389134 
Q 243.605693 120.359802 240.886185 120.359802 
Q 235.853695 120.359802 233.127178 124.121545 
Q 230.400662 127.873931 230.400662 134.864036 
Q 230.400662 141.788639 233.029052 145.569097 
Q 235.657442 149.340198 240.493679 149.340198 
Q 241.811379 149.340198 242.939834 149.124974 
Q 244.06829 148.900392 244.965447 148.432514 
L 244.965447 139.954555 
L 239.813802 139.954555 
L 239.813802 132.402995 
L 252.955752 132.402995 
z
" style="fill:#ffa600;"/>
   </g>
   <g id="patch_12">
    <path clip-path="url(#p94d374b609)" d="M 285.876106 154.252923 
Q 283.260062 155.862425 280.431267 156.676534 
Q 277.602472 157.5 274.521529 157.5 
Q 265.333855 157.5 259.967812 151.398864 
Q 254.60177 145.297728 254.60177 134.864036 
Q 254.60177 124.392915 259.967812 118.301136 
Q 265.333855 112.2 274.521529 112.2 
Q 277.602472 112.2 280.431267 113.023466 
Q 283.260062 113.837575 285.876106 115.447077 
L 285.876106 124.477133 
Q 283.236423 122.343607 280.675536 121.351704 
Q 278.11465 120.359802 275.285855 120.359802 
Q 270.211359 120.359802 267.303768 124.224478 
Q 264.404056 128.079798 264.404056 134.864036 
Q 264.404056 141.620202 267.303768 145.484879 
Q 270.211359 149.340198 275.285855 149.340198 
Q 278.11465 149.340198 280.675536 148.348296 
Q 283.236423 147.347036 285.876106 145.21351 
z
" style="fill:#0000ff;"/>
   </g>
   <g id="patch_13">
    <path clip-path="url(#p94d374b609)" d="M 318.79646 153.401384 
Q 315.642392 155.450692 312.250017 156.480025 
Q 308.857642 157.5 305.240977 157.5 
Q 297.068436 157.5 292.29528 151.398864 
Q 287.522124 145.297728 287.522124 134.864036 
Q 287.522124 124.308697 292.379389 118.254348 
Q 297.243662 112.2 305.703574 112.2 
Q 308.962777 112.2 311.948628 113.023466 
Q 314.941488 113.837575 317.590905 115.447077 
L 317.590905 124.477133 
Q 314.85738 122.40911 312.15189 121.389134 
Q 309.446401 120.359802 306.726893 120.359802 
Q 301.694403 120.359802 298.967886 124.121545 
Q 296.24137 127.873931 296.24137 134.864036 
Q 296.24137 141.788639 298.86976 145.569097 
Q 301.49815 149.340198 306.334387 149.340198 
Q 307.652087 149.340198 308.780542 149.124974 
Q 309.908998 148.900392 310.806155 148.432514 
L 310.806155 139.954555 
L 305.65451 139.954555 
L 305.65451 132.402995 
L 318.79646 132.402995 
z
" style="fill:#ffa600;"/>
   </g>
   <g id="patch_14">
    <path clip-path="url(#p94d374b609)" d="M 320.442478 112.2 
L 351.716814 112.2 
L 351.716814 121.034762 
L 340.465326 121.034762 
L 340.465326 157.5 
L 331.715785 157.5 
L 331.715785 121.034762 
L 320.442478 121.034762 
z
" style="fill:#ff0000;"/>
   </g>
   <g id="patch_15">
    <path clip-path="url(#p94d374b609)" d="M 375.026592 154.74925 
L 362.998985 154.74925 
L 361.099889 157.5 
L 353.362832 157.5 
L 364.412117 142.4 
L 373.587883 142.4 
L 384.637168 157.5 
L 376.906505 157.5 
z
M 364.917264 151.946721 
L 373.089131 151.946721 
L 369.009591 145.940377 
z
" style="fill:#008000;"/>
   </g>
   <g id="patch_16">
    <path clip-path="url(#p94d374b609)" d="M 384.637168 139.667589 
Q 381.4831 141.033795 378.090725 141.720017 
Q 374.698349 142.4 371.081685 142.4 
Q 362.909144 142.4 358.135988 138.332576 
Q 353.362832 134.265152 353.362832 127.309358 
Q 353.362832 120.272464 358.220097 116.236232 
Q 363.08437 112.2 371.544282 112.2 
Q 374.803485 112.2 377.789336 112.748977 
Q 380.782196 113.291717 383.431613 114.364718 
L 383.431613 120.384755 
Q 380.698088 119.006073 377.992598 118.32609 
Q 375.287109 117.639868 372.567601 117.639868 
Q 367.535111 117.639868 364.808594 120.147697 
Q 362.082078 122.649287 362.082078 127.309358 
Q 362.082078 131.925759 364.710468 134.446065 
Q 367.338858 136.960132 372.175095 136.960132 
Q 373.492795 136.960132 374.62125 136.816649 
Q 375.749705 136.666928 376.646863 136.355009 
L 376.646863 130.703037 
L 371.495218 130.703037 
L 371.495218 125.668663 
L 384.637168 125.668663 
z
" style="fill:#ffa600;"/>
   </g>
   <g id="patch_17">
    <path clip-path="url(#p94d374b609)" d="M 353.362832 82 
L 384.637168 82 
L 384.637168 87.889841 
L 373.38568 87.889841 
L 373.38568 112.2 
L 364.636139 112.2 
L 364.636139 87.889841 
L 353.362832 87.889841 
z
" style="fill:#ff0000;"/>
   </g>
   <g id="patch_18">
    <path clip-path="url(#p94d374b609)" d="M 384.637168 77.670564 
Q 382.021124 79.816567 379.192329 80.902045 
Q 376.363534 82 373.282591 82 
Q 364.094917 82 358.728874 73.865152 
Q 353.362832 65.730304 353.362832 51.818715 
Q 353.362832 37.85722 358.728874 29.734848 
Q 364.094917 21.6 373.282591 21.6 
Q 376.363534 21.6 379.192329 22.697955 
Q 382.021124 23.783433 384.637168 25.929436 
L 384.637168 37.96951 
Q 381.997485 35.124809 379.436598 33.802272 
Q 376.875712 32.479736 374.046917 32.479736 
Q 368.972421 32.479736 366.06483 37.632638 
Q 363.165118 42.773063 363.165118 51.818715 
Q 363.165118 60.826937 366.06483 65.979839 
Q 368.972421 71.120264 374.046917 71.120264 
Q 376.875712 71.120264 379.436598 69.797728 
Q 381.997485 68.462714 384.637168 65.618013 
z
" style="fill:#0000ff;"/>
   </g>
   <g id="patch_19">
    <path clip-path="url(#p94d374b609)" d="M 386.283186 142.4 
L 417.557522 142.4 
L 417.557522 145.344921 
L 406.306034 145.344921 
L 406.306034 157.5 
L 397.556493 157.5 
L 397.556493 145.344921 
L 386.283186 145.344921 
z
" style="fill:#ff0000;"/>
   </g>
   <g id="patch_20">
    <path clip-path="url(#p94d374b609)" d="M 417.557522 139.667589 
Q 414.403454 141.033795 411.011079 141.720017 
Q 407.618703 142.4 404.002039 142.4 
Q 395.829498 142.4 391.056342 138.332576 
Q 386.283186 134.265152 386.283186 127.309358 
Q 386.283186 120.272464 391.140451 116.236232 
Q 396.004724 112.2 404.464635 112.2 
Q 407.723839 112.2 410.70969 112.748977 
Q 413.70255 113.291717 416.351967 114.364718 
L 416.351967 120.384755 
Q 413.618442 119.006073 410.912952 118.32609 
Q 408.207463 117.639868 405.487955 117.639868 
Q 400.455465 117.639868 397.728948 120.147697 
Q 395.002432 122.649287 395.002432 127.309358 
Q 395.002432 131.925759 397.630822 134.446065 
Q 400.259212 136.960132 405.095449 136.960132 
Q 406.413149 136.960132 407.541604 136.816649 
Q 408.670059 136.666928 409.567217 136.355009 
L 409.567217 130.703037 
L 404.415572 130.703037 
L 404.415572 125.668663 
L 417.557522 125.668663 
z
" style="fill:#ffa600;"/>
   </g>
   <g id="patch_21">
    <path clip-path="url(#p94d374b609)" d="M 407.946946 95.695499 
L 395.919339 95.695499 
L 394.020243 112.2 
L 386.283186 112.2 
L 397.332471 21.6 
L 406.508237 21.6 
L 417.557522 112.2 
L 409.826859 112.2 
z
M 397.837618 78.880326 
L 406.009485 78.880326 
L 401.929945 42.842263 
z
" style="fill:#008000;"/>
   </g>
   <g id="patch_22">
    <path clip-path="url(#p94d374b609)" d="M 450.477876 156.133795 
Q 447.323808 156.816897 443.931433 157.160008 
Q 440.539057 157.5 436.922393 157.5 
Q 428.749852 157.5 423.976696 155.466288 
Q 419.20354 153.432576 419.20354 149.954679 
Q 419.20354 146.436232 424.060805 144.418116 
Q 428.925078 142.4 437.384989 142.4 
Q 440.644193 142.4 443.630044 142.674489 
Q 446.622904 142.945858 449.272321 143.482359 
L 449.272321 146.492378 
Q 446.538796 145.803037 443.833306 145.463045 
Q 441.127817 145.119934 438.408309 145.119934 
Q 433.375819 145.119934 430.649302 146.373848 
Q 427.922786 147.624644 427.922786 149.954679 
Q 427.922786 152.26288 430.551176 153.523032 
Q 433.179565 154.780066 438.015803 154.780066 
Q 439.333503 154.780066 440.461958 154.708325 
Q 441.590413 154.633464 442.487571 154.477505 
L 442.487571 151.651518 
L 437.335926 151.651518 
L 437.335926 149.134332 
L 450.477876 149.134332 
z
" style="fill:#ffa600;"/>
   </g>
   <g id="patch_23">
    <path clip-path="url(#p94d374b609)" d="M 419.20354 112.2 
L 450.477876 112.2 
L 450.477876 118.089841 
L 439.226388 118.089841 
L 439.226388 142.4 
L 430.476847 142.4 
L 430.476847 118.089841 
L 419.20354 118.089841 
z
" style="fill:#ff0000;"/>
   </g>
   <g id="patch_24">
    <path clip-path="url(#p94d374b609)" d="M 450.477876 105.705846 
Q 447.861832 108.92485 445.033037 110.553068 
Q 442.204242 112.2 439.123298 112.2 
Q 429.935625 112.2 424.569582 99.997728 
Q 419.20354 87.795455 419.20354 66.928073 
Q 419.20354 45.985829 424.569582 33.802272 
Q 429.935625 21.6 439.123298 21.6 
Q 442.204242 21.6 445.033037 23.246932 
Q 447.861832 24.87515 450.477876 28.094154 
L 450.477876 46.154266 
Q 447.838193 41.887213 445.277306 39.903408 
Q 442.71642 37.919603 439.887625 37.919603 
Q 434.813129 37.919603 431.905538 45.648957 
Q 429.005826 53.359595 429.005826 66.928073 
Q 429.005826 80.440405 431.905538 88.169758 
Q 434.813129 95.880397 439.887625 95.880397 
Q 442.71642 95.880397 445.277306 93.896592 
Q 447.838193 91.894071 450.477876 87.627019 
z
" style="fill:#0000ff;"/>
   </g>
   <g id="patch_25">
    <path clip-path="url(#p94d374b609)" d="M 473.787654 154.74925 
L 461.760047 154.74925 
L 459.860951 157.5 
L 452.123894 157.5 
L 463.173179 142.4 
L 472.348945 142.4 
L 483.39823 157.5 
L 475.667567 157.5 
z
M 463.678326 151.946721 
L 471.850193 151.946721 
L 467.770653 145.940377 
z
" style="fill:#008000;"/>
   </g>
   <g id="patch_26">
    <path clip-path="url(#p94d374b609)" d="M 483.39823 141.317641 
Q 480.782186 141.854142 477.953391 142.125511 
Q 475.124596 142.4 472.043652 142.4 
Q 462.855979 142.4 457.489936 140.366288 
Q 452.123894 138.332576 452.123894 134.854679 
Q 452.123894 131.364305 457.489936 129.333712 
Q 462.855979 127.3 472.043652 127.3 
Q 475.124596 127.3 477.953391 127.574489 
Q 480.782186 127.845858 483.39823 128.382359 
L 483.39823 131.392378 
Q 480.758547 130.681202 478.19766 130.350568 
Q 475.636773 130.019934 472.807979 130.019934 
Q 467.733483 130.019934 464.825892 131.308159 
Q 461.92618 132.593266 461.92618 134.854679 
Q 461.92618 137.106734 464.825892 138.39496 
Q 467.733483 139.680066 472.807979 139.680066 
Q 475.636773 139.680066 478.19766 139.349432 
Q 480.758547 139.015679 483.39823 138.304503 
z
" style="fill:#0000ff;"/>
   </g>
   <g id="patch_27">
    <path clip-path="url(#p94d374b609)" d="M 452.123894 112.2 
L 483.39823 112.2 
L 483.39823 115.144921 
L 472.146742 115.144921 
L 472.146742 127.3 
L 463.397201 127.3 
L 463.397201 115.144921 
L 452.123894 115.144921 
z
" style="fill:#ff0000;"/>
   </g>
   <g id="patch_28">
    <path clip-path="url(#p94d374b609)" d="M 483.39823 104.002768 
Q 480.244162 108.101384 476.851787 110.16005 
Q 473.459411 112.2 469.842747 112.2 
Q 461.670206 112.2 456.89705 99.997728 
Q 452.123894 87.795455 452.123894 66.928073 
Q 452.123894 45.817393 456.981158 33.708697 
Q 461.845432 21.6 470.305343 21.6 
Q 473.564547 21.6 476.550398 23.246932 
Q 479.543258 24.87515 482.192675 28.094154 
L 482.192675 46.154266 
Q 479.45915 42.018219 476.75366 39.978269 
Q 474.048171 37.919603 471.328663 37.919603 
Q 466.296173 37.919603 463.569656 45.44309 
Q 460.84314 52.947862 460.84314 66.928073 
Q 460.84314 80.777277 463.471529 88.338195 
Q 466.099919 95.880397 470.936157 95.880397 
Q 472.253857 95.880397 473.382312 95.449948 
Q 474.510767 95.000785 475.407925 94.065028 
L 475.407925 77.10911 
L 470.25628 77.10911 
L 470.25628 62.00599 
L 483.39823 62.00599 
z
" style="fill:#ffa600;"/>
   </g>
   <g id="patch_29">
    <path clip-path="url(#p94d374b609)" d="M 516.318584 156.417641 
Q 513.70254 156.954142 510.873745 157.225511 
Q 508.04495 157.5 504.964006 157.5 
Q 495.776333 157.5 490.41029 155.466288 
Q 485.044248 153.432576 485.044248 149.954679 
Q 485.044248 146.464305 490.41029 144.433712 
Q 495.776333 142.4 504.964006 142.4 
Q 508.04495 142.4 510.873745 142.674489 
Q 513.70254 142.945858 516.318584 143.482359 
L 516.318584 146.492378 
Q 513.678901 145.781202 511.118014 145.450568 
Q 508.557127 145.119934 505.728333 145.119934 
Q 500.653837 145.119934 497.746246 146.408159 
Q 494.846534 147.693266 494.846534 149.954679 
Q 494.846534 152.206734 497.746246 153.49496 
Q 500.653837 154.780066 505.728333 154.780066 
Q 508.557127 154.780066 511.118014 154.449432 
Q 513.678901 154.115679 516.318584 153.404503 
z
" style="fill:#0000ff;"/>
   </g>
   <g id="patch_30">
    <path clip-path="url(#p94d374b609)" d="M 506.708008 136.8985 
L 494.680401 136.8985 
L 492.781305 142.4 
L 485.044248 142.4 
L 496.093533 112.2 
L 505.269299 112.2 
L 516.318584 142.4 
L 508.587921 142.4 
z
M 496.59868 131.293442 
L 504.770547 131.293442 
L 500.691007 119.280754 
z
" style="fill:#008000;"/>
   </g>
   <g id="patch_31">
    <path clip-path="url(#p94d374b609)" d="M 516.318584 104.002768 
Q 513.164516 108.101384 509.772141 110.16005 
Q 506.379765 112.2 502.763101 112.2 
Q 494.59056 112.2 489.817404 99.997728 
Q 485.044248 87.795455 485.044248 66.928073 
Q 485.044248 45.817393 489.901512 33.708697 
Q 494.765786 21.6 503.225697 21.6 
Q 506.484901 21.6 509.470752 23.246932 
Q 512.463612 24.87515 515.113029 28.094154 
L 515.113029 46.154266 
Q 512.379504 42.018219 509.674014 39.978269 
Q 506.968525 37.919603 504.249017 37.919603 
Q 499.216527 37.919603 496.49001 45.44309 
Q 493.763493 52.947862 493.763493 66.928073 
Q 493.763493 80.777277 496.391883 88.338195 
Q 499.020273 95.880397 503.856511 95.880397 
Q 505.174211 95.880397 506.302666 95.449948 
Q 507.431121 95.000785 508.328279 94.065028 
L 508.328279 77.10911 
L 503.176634 77.10911 
L 503.176634 62.00599 
L 516.318584 62.00599 
z
" style="fill:#ffa600;"/>
   </g>
   <g id="patch_32">
    <path clip-path="url(#p94d374b609)" d="M 539.628362 151.9985 
L 527.600755 151.9985 
L 525.701659 157.5 
L 517.964602 157.5 
L 529.013887 127.3 
L 538.189653 127.3 
L 549.238938 157.5 
L 541.508275 157.5 
z
M 529.519034 146.393442 
L 537.690901 146.393442 
L 533.611361 134.380754 
z
" style="fill:#008000;"/>
   </g>
   <g id="patch_33">
    <path clip-path="url(#p94d374b609)" d="M 549.238938 119.723487 
Q 546.622894 123.478992 543.794099 125.378579 
Q 540.965304 127.3 537.88436 127.3 
Q 528.696687 127.3 523.330644 113.064016 
Q 517.964602 98.828031 517.964602 74.482751 
Q 517.964602 50.050134 523.330644 35.835984 
Q 528.696687 21.6 537.88436 21.6 
Q 540.965304 21.6 543.794099 23.521421 
Q 546.622894 25.421008 549.238938 29.176513 
L 549.238938 50.246643 
Q 546.599255 45.268416 544.038368 42.953976 
Q 541.477481 40.639537 538.648687 40.639537 
Q 533.574191 40.639537 530.6666 49.657116 
Q 527.766888 58.652861 527.766888 74.482751 
Q 527.766888 90.247139 530.6666 99.264718 
Q 533.574191 108.260463 538.648687 108.260463 
Q 541.477481 108.260463 544.038368 105.946024 
Q 546.599255 103.60975 549.238938 98.631522 
z
" style="fill:#0000ff;"/>
   </g>
   <g id="patch_34">
    <path clip-path="url(#p94d374b609)" d="M 572.548716 154.74925 
L 560.521109 154.74925 
L 558.622013 157.5 
L 550.884956 157.5 
L 561.934241 142.4 
L 571.110007 142.4 
L 582.159292 157.5 
L 574.428629 157.5 
z
M 562.439387 151.946721 
L 570.611255 151.946721 
L 566.531715 145.940377 
z
" style="fill:#008000;"/>
   </g>
   <g id="patch_35">
    <path clip-path="url(#p94d374b609)" d="M 582.159292 131.470357 
Q 579.005224 136.935179 575.612849 139.680066 
Q 572.220473 142.4 568.603809 142.4 
Q 560.431268 142.4 555.658112 126.130304 
Q 550.884956 109.860607 550.884956 82.03743 
Q 550.884956 53.889857 555.74222 37.744929 
Q 560.606494 21.6 569.066405 21.6 
Q 572.325609 21.6 575.31146 23.79591 
Q 578.30432 25.966866 580.953737 30.258872 
L 580.953737 54.339021 
Q 578.220212 48.824293 575.514722 46.104359 
Q 572.809233 43.359471 570.089725 43.359471 
Q 565.057235 43.359471 562.330718 53.390787 
Q 559.604201 63.397149 559.604201 82.03743 
Q 559.604201 100.503037 562.232591 110.584259 
Q 564.860981 120.640529 569.697219 120.640529 
Q 571.014919 120.640529 572.143374 120.066598 
Q 573.271829 119.467713 574.168986 118.220037 
L 574.168986 95.612146 
L 569.017342 95.612146 
L 569.017342 75.474654 
L 582.159292 75.474654 
z
" style="fill:#ffa600;"/>
   </g>
   <g id="patch_36">
    <path clip-path="url(#p94d374b609)" d="M 615.079646 156.133795 
Q 611.925578 156.816897 608.533203 157.160008 
Q 605.140827 157.5 601.524163 157.5 
Q 593.351622 157.5 588.578466 155.466288 
Q 583.80531 153.432576 583.80531 149.954679 
Q 583.80531 146.436232 588.662574 144.418116 
Q 593.526848 142.4 601.986759 142.4 
Q 605.245963 142.4 608.231814 142.674489 
Q 611.224674 142.945858 613.874091 143.482359 
L 613.874091 146.492378 
Q 611.140566 145.803037 608.435076 145.463045 
Q 605.729587 145.119934 603.010079 145.119934 
Q 597.977589 145.119934 595.251072 146.373848 
Q 592.524555 147.624644 592.524555 149.954679 
Q 592.524555 152.26288 595.152945 153.523032 
Q 597.781335 154.780066 602.617573 154.780066 
Q 603.935272 154.780066 605.063728 154.708325 
Q 606.192183 154.633464 607.08934 154.477505 
L 607.08934 151.651518 
L 601.937696 151.651518 
L 601.937696 149.134332 
L 615.079646 149.134332 
z
" style="fill:#ffa600;"/>
   </g>
   <g id="patch_37">
    <path clip-path="url(#p94d374b609)" d="M 605.46907 136.8985 
L 593.441463 136.8985 
L 591.542367 142.4 
L 583.80531 142.4 
L 594.854595 112.2 
L 604.030361 112.2 
L 615.079646 142.4 
L 607.348983 142.4 
z
M 595.359741 131.293442 
L 603.531609 131.293442 
L 599.452069 119.280754 
z
" style="fill:#008000;"/>
   </g>
   <g id="patch_38">
    <path clip-path="url(#p94d374b609)" d="M 583.80531 21.6 
L 615.079646 21.6 
L 615.079646 39.269524 
L 603.828158 39.269524 
L 603.828158 112.2 
L 595.078617 112.2 
L 595.078617 39.269524 
L 583.80531 39.269524 
z
" style="fill:#ff0000;"/>
   </g>
   <g id="patch_39">
    <path clip-path="url(#p94d374b609)" d="M 616.725664 142.4 
L 648 142.4 
L 648 145.344921 
L 636.748512 145.344921 
L 636.748512 157.5 
L 627.998971 157.5 
L 627.998971 145.344921 
L 616.725664 145.344921 
z
" style="fill:#ff0000;"/>
   </g>
   <g id="patch_40">
    <path clip-path="url(#p94d374b609)" d="M 638.389424 136.8985 
L 626.361817 136.8985 
L 624.462721 142.4 
L 616.725664 142.4 
L 627.774949 112.2 
L 636.950715 112.2 
L 648 142.4 
L 640.269337 142.4 
z
M 628.280095 131.293442 
L 636.451963 131.293442 
L 632.372423 119.280754 
z
" style="fill:#008000;"/>
   </g>
   <g id="patch_41">
    <path clip-path="url(#p94d374b609)" d="M 648 105.705846 
Q 645.383956 108.92485 642.555161 110.553068 
Q 639.726366 112.2 636.645422 112.2 
Q 627.457749 112.2 622.091706 99.997728 
Q 616.725664 87.795455 616.725664 66.928073 
Q 616.725664 45.985829 622.091706 33.802272 
Q 627.457749 21.6 636.645422 21.6 
Q 639.726366 21.6 642.555161 23.246932 
Q 645.383956 24.87515 648 28.094154 
L 648 46.154266 
Q 645.360317 41.887213 642.79943 39.903408 
Q 640.238543 37.919603 637.409749 37.919603 
Q 632.335253 37.919603 629.427662 45.648957 
Q 626.52795 53.359595 626.52795 66.928073 
Q 626.52795 80.440405 629.427662 88.169758 
Q 632.335253 95.880397 637.409749 95.880397 
Q 640.238543 95.880397 642.79943 93.896592 
Q 645.360317 91.894071 648 87.627019 
z
" style="fill:#0000ff;"/>
   </g>
  </g>
 </g>
 <defs>
  <clipPath id="p94d374b609">
   <rect height="135.9" width="558" x="90" y="21.6"/>
  </clipPath>
 </defs>
</svg>
