<?xml version="1.0" encoding="utf-8" standalone="no"?>
<!DOCTYPE svg PUBLIC "-//W3C//DTD SVG 1.1//EN"
  "http://www.w3.org/Graphics/SVG/1.1/DTD/svg11.dtd">
<!-- Created with matplotlib (https://matplotlib.org/) -->
<svg height="180pt" version="1.1" viewBox="0 0 720 180" width="720pt" xmlns="http://www.w3.org/2000/svg" xmlns:xlink="http://www.w3.org/1999/xlink">
 <metadata>
  <rdf:RDF xmlns:cc="http://creativecommons.org/ns#" xmlns:dc="http://purl.org/dc/elements/1.1/" xmlns:rdf="http://www.w3.org/1999/02/22-rdf-syntax-ns#">
   <cc:Work>
    <dc:type rdf:resource="http://purl.org/dc/dcmitype/StillImage"/>
    <dc:date>2021-08-04T23:33:50.459503</dc:date>
    <dc:format>image/svg+xml</dc:format>
    <dc:creator>
     <cc:Agent>
      <dc:title>Matplotlib v3.3.2, https://matplotlib.org/</dc:title>
     </cc:Agent>
    </dc:creator>
   </cc:Work>
  </rdf:RDF>
 </metadata>
 <defs>
  <style type="text/css">*{stroke-linecap:butt;stroke-linejoin:round;}</style>
 </defs>
 <g id="figure_1">
  <g id="patch_1">
   <path d="M 0 180 
L 720 180 
L 720 0 
L 0 0 
z
" style="fill:none;"/>
  </g>
  <g id="axes_1">
   <g id="line2d_1">
    <path clip-path="url(#p0a9b9bdbca)" d="M 90 157.5 
L 648 157.5 
" style="fill:none;stroke:#000000;stroke-linecap:square;stroke-width:0.5;"/>
   </g>
   <g id="patch_2">
    <path clip-path="url(#p0a9b9bdbca)" d="M 90 142.4 
L 121.274336 142.4 
L 121.274336 145.344921 
L 110.022848 145.344921 
L 110.022848 157.5 
L 101.273307 157.5 
L 101.273307 145.344921 
L 90 145.344921 
z
" style="fill:#ff0000;"/>
   </g>
   <g id="patch_3">
    <path clip-path="url(#p0a9b9bdbca)" d="M 121.274336 139.667589 
Q 118.120268 141.033795 114.727893 141.720017 
Q 111.335518 142.4 107.718853 142.4 
Q 99.546312 142.4 94.773156 138.332576 
Q 90 134.265152 90 127.309358 
Q 90 120.272464 94.857265 116.236232 
Q 99.721538 112.2 108.18145 112.2 
Q 111.440653 112.2 114.426504 112.748977 
Q 117.419364 113.291717 120.068781 114.364718 
L 120.068781 120.384755 
Q 117.335256 119.006073 114.629766 118.32609 
Q 111.924277 117.639868 109.204769 117.639868 
Q 104.172279 117.639868 101.445762 120.147697 
Q 98.719246 122.649287 98.719246 127.309358 
Q 98.719246 131.925759 101.347636 134.446065 
Q 103.976026 136.960132 108.812263 136.960132 
Q 110.129963 136.960132 111.258418 136.816649 
Q 112.386874 136.666928 113.284031 136.355009 
L 113.284031 130.703037 
L 108.132386 130.703037 
L 108.132386 125.668663 
L 121.274336 125.668663 
z
" style="fill:#ffa600;"/>
   </g>
   <g id="patch_4">
    <path clip-path="url(#p0a9b9bdbca)" d="M 111.66376 95.695499 
L 99.636153 95.695499 
L 97.737057 112.2 
L 90 112.2 
L 101.049285 21.6 
L 110.225051 21.6 
L 121.274336 112.2 
L 113.543673 112.2 
z
M 101.554432 78.880326 
L 109.726299 78.880326 
L 105.64676 42.842263 
z
" style="fill:#008000;"/>
   </g>
   <g id="patch_5">
    <path clip-path="url(#p0a9b9bdbca)" d="M 154.19469 156.417641 
Q 151.578646 156.954142 148.749851 157.225511 
Q 145.921056 157.5 142.840113 157.5 
Q 133.652439 157.5 128.286397 155.466288 
Q 122.920354 153.432576 122.920354 149.954679 
Q 122.920354 146.464305 128.286397 144.433712 
Q 133.652439 142.4 142.840113 142.4 
Q 145.921056 142.4 148.749851 142.674489 
Q 151.578646 142.945858 154.19469 143.482359 
L 154.19469 146.492378 
Q 151.555007 145.781202 148.99412 145.450568 
Q 146.433234 145.119934 143.604439 145.119934 
Q 138.529943 145.119934 135.622352 146.408159 
Q 132.72264 147.693266 132.72264 149.954679 
Q 132.72264 152.206734 135.622352 153.49496 
Q 138.529943 154.780066 143.604439 154.780066 
Q 146.433234 154.780066 148.99412 154.449432 
Q 151.555007 154.115679 154.19469 153.404503 
z
" style="fill:#0000ff;"/>
   </g>
   <g id="patch_6">
    <path clip-path="url(#p0a9b9bdbca)" d="M 122.920354 127.3 
L 154.19469 127.3 
L 154.19469 130.244921 
L 142.943202 130.244921 
L 142.943202 142.4 
L 134.193661 142.4 
L 134.193661 130.244921 
L 122.920354 130.244921 
z
" style="fill:#ff0000;"/>
   </g>
   <g id="patch_7">
    <path clip-path="url(#p0a9b9bdbca)" d="M 144.584114 119.04775 
L 132.556507 119.04775 
L 130.657411 127.3 
L 122.920354 127.3 
L 133.969639 82 
L 143.145405 82 
L 154.19469 127.3 
L 146.464027 127.3 
z
M 134.474786 110.640163 
L 142.646653 110.640163 
L 138.567114 92.621132 
z
" style="fill:#008000;"/>
   </g>
   <g id="patch_8">
    <path clip-path="url(#p0a9b9bdbca)" d="M 154.19469 76.535179 
Q 151.040622 79.267589 147.648247 80.640033 
Q 144.255872 82 140.639207 82 
Q 132.466666 82 127.69351 73.865152 
Q 122.920354 65.730304 122.920354 51.818715 
Q 122.920354 37.744929 127.777619 29.672464 
Q 132.641892 21.6 141.101804 21.6 
Q 144.361007 21.6 147.346858 22.697955 
Q 150.339718 23.783433 152.989135 25.929436 
L 152.989135 37.96951 
Q 150.25561 35.212146 147.55012 33.852179 
Q 144.844631 32.479736 142.125123 32.479736 
Q 137.092633 32.479736 134.366116 37.495394 
Q 131.6396 42.498575 131.6396 51.818715 
Q 131.6396 61.051518 134.26799 66.09213 
Q 136.89638 71.120264 141.732617 71.120264 
Q 143.050317 71.120264 144.178772 70.833299 
Q 145.307228 70.533857 146.204385 69.910019 
L 146.204385 58.606073 
L 141.05274 58.606073 
L 141.05274 48.537327 
L 154.19469 48.537327 
z
" style="fill:#ffa600;"/>
   </g>
   <g id="patch_9">
    <path clip-path="url(#p0a9b9bdbca)" d="M 177.504468 154.74925 
L 165.476861 154.74925 
L 163.577765 157.5 
L 155.840708 157.5 
L 166.889993 142.4 
L 176.065759 142.4 
L 187.115044 157.5 
L 179.384381 157.5 
z
M 167.39514 151.946721 
L 175.567007 151.946721 
L 171.487467 145.940377 
z
" style="fill:#008000;"/>
   </g>
   <g id="patch_10">
    <path clip-path="url(#p0a9b9bdbca)" d="M 155.840708 112.2 
L 187.115044 112.2 
L 187.115044 118.089841 
L 175.863556 118.089841 
L 175.863556 142.4 
L 167.114015 142.4 
L 167.114015 118.089841 
L 155.840708 118.089841 
z
" style="fill:#ff0000;"/>
   </g>
   <g id="patch_11">
    <path clip-path="url(#p0a9b9bdbca)" d="M 187.115044 104.002768 
Q 183.960976 108.101384 180.568601 110.16005 
Q 177.176226 112.2 173.559561 112.2 
Q 165.38702 112.2 160.613864 99.997728 
Q 155.840708 87.795455 155.840708 66.928073 
Q 155.840708 45.817393 160.697973 33.708697 
Q 165.562246 21.6 174.022158 21.6 
Q 177.281361 21.6 180.267212 23.246932 
Q 183.260072 24.87515 185.909489 28.094154 
L 185.909489 46.154266 
Q 183.175964 42.018219 180.470474 39.978269 
Q 177.764985 37.919603 175.045477 37.919603 
Q 170.012987 37.919603 167.28647 45.44309 
Q 164.559954 52.947862 164.559954 66.928073 
Q 164.559954 80.777277 167.188344 88.338195 
Q 169.816734 95.880397 174.652971 95.880397 
Q 175.970671 95.880397 177.099126 95.449948 
Q 178.227582 95.000785 179.124739 94.065028 
L 179.124739 77.10911 
L 173.973094 77.10911 
L 173.973094 62.00599 
L 187.115044 62.00599 
z
" style="fill:#ffa600;"/>
   </g>
   <g id="patch_12">
    <path clip-path="url(#p0a9b9bdbca)" d="M 188.761062 21.6 
L 220.035398 21.6 
L 220.035398 48.104286 
L 208.78391 48.104286 
L 208.78391 157.5 
L 200.034369 157.5 
L 200.034369 48.104286 
L 188.761062 48.104286 
z
" style="fill:#ff0000;"/>
   </g>
   <g id="patch_13">
    <path clip-path="url(#p0a9b9bdbca)" d="M 252.955752 156.133795 
Q 249.801684 156.816897 246.409309 157.160008 
Q 243.016934 157.5 239.400269 157.5 
Q 231.227728 157.5 226.454572 155.466288 
Q 221.681416 153.432576 221.681416 149.954679 
Q 221.681416 146.436232 226.538681 144.418116 
Q 231.402954 142.4 239.862866 142.4 
Q 243.122069 142.4 246.10792 142.674489 
Q 249.10078 142.945858 251.750197 143.482359 
L 251.750197 146.492378 
Q 249.016672 145.803037 246.311182 145.463045 
Q 243.605693 145.119934 240.886185 145.119934 
Q 235.853695 145.119934 233.127178 146.373848 
Q 230.400662 147.624644 230.400662 149.954679 
Q 230.400662 152.26288 233.029052 153.523032 
Q 235.657442 154.780066 240.493679 154.780066 
Q 241.811379 154.780066 242.939834 154.708325 
Q 244.06829 154.633464 244.965447 154.477505 
L 244.965447 151.651518 
L 239.813802 151.651518 
L 239.813802 149.134332 
L 252.955752 149.134332 
z
" style="fill:#ffa600;"/>
   </g>
   <g id="patch_14">
    <path clip-path="url(#p0a9b9bdbca)" d="M 243.345176 120.393999 
L 231.317569 120.393999 
L 229.418473 142.4 
L 221.681416 142.4 
L 232.730701 21.6 
L 241.906467 21.6 
L 252.955752 142.4 
L 245.225089 142.4 
z
M 233.235848 97.973768 
L 241.407715 97.973768 
L 237.328175 49.923018 
z
" style="fill:#008000;"/>
   </g>
   <g id="patch_15">
    <path clip-path="url(#p0a9b9bdbca)" d="M 276.26553 149.24775 
L 264.237923 149.24775 
L 262.338827 157.5 
L 254.60177 157.5 
L 265.651055 112.2 
L 274.826821 112.2 
L 285.876106 157.5 
L 278.145443 157.5 
z
M 266.156202 140.840163 
L 274.328069 140.840163 
L 270.248529 122.821132 
z
" style="fill:#008000;"/>
   </g>
   <g id="patch_16">
    <path clip-path="url(#p0a9b9bdbca)" d="M 285.876106 104.002768 
Q 282.722038 108.101384 279.329663 110.16005 
Q 275.937288 112.2 272.320623 112.2 
Q 264.148082 112.2 259.374926 99.997728 
Q 254.60177 87.795455 254.60177 66.928073 
Q 254.60177 45.817393 259.459035 33.708697 
Q 264.323308 21.6 272.78322 21.6 
Q 276.042423 21.6 279.028274 23.246932 
Q 282.021134 24.87515 284.670551 28.094154 
L 284.670551 46.154266 
Q 281.937026 42.018219 279.231536 39.978269 
Q 276.526047 37.919603 273.806539 37.919603 
Q 268.774049 37.919603 266.047532 45.44309 
Q 263.321016 52.947862 263.321016 66.928073 
Q 263.321016 80.777277 265.949406 88.338195 
Q 268.577796 95.880397 273.414033 95.880397 
Q 274.731733 95.880397 275.860188 95.449948 
Q 276.988644 95.000785 277.885801 94.065028 
L 277.885801 77.10911 
L 272.734156 77.10911 
L 272.734156 62.00599 
L 285.876106 62.00599 
z
" style="fill:#ffa600;"/>
   </g>
   <g id="patch_17">
    <path clip-path="url(#p0a9b9bdbca)" d="M 287.522124 21.6 
L 318.79646 21.6 
L 318.79646 48.104286 
L 307.544972 48.104286 
L 307.544972 157.5 
L 298.795431 157.5 
L 298.795431 48.104286 
L 287.522124 48.104286 
z
" style="fill:#ff0000;"/>
   </g>
   <g id="patch_18">
    <path clip-path="url(#p0a9b9bdbca)" d="M 342.106238 132.743249 
L 330.078631 132.743249 
L 328.179535 157.5 
L 320.442478 157.5 
L 331.491763 21.6 
L 340.667529 21.6 
L 351.716814 157.5 
L 343.986151 157.5 
z
M 331.99691 107.520489 
L 340.168777 107.520489 
L 336.089237 53.463395 
z
" style="fill:#008000;"/>
   </g>
   <g id="patch_19">
    <path clip-path="url(#p0a9b9bdbca)" d="M 375.026592 149.24775 
L 362.998985 149.24775 
L 361.099889 157.5 
L 353.362832 157.5 
L 364.412117 112.2 
L 373.587883 112.2 
L 384.637168 157.5 
L 376.906505 157.5 
z
M 364.917264 140.840163 
L 373.089131 140.840163 
L 369.009591 122.821132 
z
" style="fill:#008000;"/>
   </g>
   <g id="patch_20">
    <path clip-path="url(#p0a9b9bdbca)" d="M 384.637168 104.002768 
Q 381.4831 108.101384 378.090725 110.16005 
Q 374.698349 112.2 371.081685 112.2 
Q 362.909144 112.2 358.135988 99.997728 
Q 353.362832 87.795455 353.362832 66.928073 
Q 353.362832 45.817393 358.220097 33.708697 
Q 363.08437 21.6 371.544282 21.6 
Q 374.803485 21.6 377.789336 23.246932 
Q 380.782196 24.87515 383.431613 28.094154 
L 383.431613 46.154266 
Q 380.698088 42.018219 377.992598 39.978269 
Q 375.287109 37.919603 372.567601 37.919603 
Q 367.535111 37.919603 364.808594 45.44309 
Q 362.082078 52.947862 362.082078 66.928073 
Q 362.082078 80.777277 364.710468 88.338195 
Q 367.338858 95.880397 372.175095 95.880397 
Q 373.492795 95.880397 374.62125 95.449948 
Q 375.749705 95.000785 376.646863 94.065028 
L 376.646863 77.10911 
L 371.495218 77.10911 
L 371.495218 62.00599 
L 384.637168 62.00599 
z
" style="fill:#ffa600;"/>
   </g>
   <g id="patch_21">
    <path clip-path="url(#p0a9b9bdbca)" d="M 386.283186 21.6 
L 417.557522 21.6 
L 417.557522 48.104286 
L 406.306034 48.104286 
L 406.306034 157.5 
L 397.556493 157.5 
L 397.556493 48.104286 
L 386.283186 48.104286 
z
" style="fill:#ff0000;"/>
   </g>
   <g id="patch_22">
    <path clip-path="url(#p0a9b9bdbca)" d="M 440.8673 132.743249 
L 428.839693 132.743249 
L 426.940597 157.5 
L 419.20354 157.5 
L 430.252825 21.6 
L 439.428591 21.6 
L 450.477876 157.5 
L 442.747213 157.5 
z
M 430.757972 107.520489 
L 438.929839 107.520489 
L 434.850299 53.463395 
z
" style="fill:#008000;"/>
   </g>
   <g id="patch_23">
    <path clip-path="url(#p0a9b9bdbca)" d="M 473.787654 146.497 
L 461.760047 146.497 
L 459.860951 157.5 
L 452.123894 157.5 
L 463.173179 97.1 
L 472.348945 97.1 
L 483.39823 157.5 
L 475.667567 157.5 
z
M 463.678326 135.286884 
L 471.850193 135.286884 
L 467.770653 111.261509 
z
" style="fill:#008000;"/>
   </g>
   <g id="patch_24">
    <path clip-path="url(#p0a9b9bdbca)" d="M 483.39823 90.268973 
Q 480.244162 93.684487 476.851787 95.400041 
Q 473.459411 97.1 469.842747 97.1 
Q 461.670206 97.1 456.89705 86.93144 
Q 452.123894 76.76288 452.123894 59.373394 
Q 452.123894 41.781161 456.981158 31.69058 
Q 461.845432 21.6 470.305343 21.6 
Q 473.564547 21.6 476.550398 22.972444 
Q 479.543258 24.329291 482.192675 27.011795 
L 482.192675 42.061888 
Q 479.45915 38.615183 476.75366 36.915224 
Q 474.048171 35.199669 471.328663 35.199669 
Q 466.296173 35.199669 463.569656 41.469242 
Q 460.84314 47.723218 460.84314 59.373394 
Q 460.84314 70.914398 463.471529 77.215162 
Q 466.099919 83.500331 470.936157 83.500331 
Q 472.253857 83.500331 473.382312 83.141624 
Q 474.510767 82.767321 475.407925 81.987523 
L 475.407925 67.857591 
L 470.25628 67.857591 
L 470.25628 55.271659 
L 483.39823 55.271659 
z
" style="fill:#ffa600;"/>
   </g>
   <g id="patch_25">
    <path clip-path="url(#p0a9b9bdbca)" d="M 485.044248 142.4 
L 516.318584 142.4 
L 516.318584 145.344921 
L 505.067096 145.344921 
L 505.067096 157.5 
L 496.317555 157.5 
L 496.317555 145.344921 
L 485.044248 145.344921 
z
" style="fill:#ff0000;"/>
   </g>
   <g id="patch_26">
    <path clip-path="url(#p0a9b9bdbca)" d="M 516.318584 140.235282 
Q 513.70254 141.308283 510.873745 141.851023 
Q 508.04495 142.4 504.964006 142.4 
Q 495.776333 142.4 490.41029 138.332576 
Q 485.044248 134.265152 485.044248 127.309358 
Q 485.044248 120.32861 490.41029 116.267424 
Q 495.776333 112.2 504.964006 112.2 
Q 508.04495 112.2 510.873745 112.748977 
Q 513.70254 113.291717 516.318584 114.364718 
L 516.318584 120.384755 
Q 513.678901 118.962404 511.118014 118.301136 
Q 508.557127 117.639868 505.728333 117.639868 
Q 500.653837 117.639868 497.746246 120.216319 
Q 494.846534 122.786532 494.846534 127.309358 
Q 494.846534 131.813468 497.746246 134.389919 
Q 500.653837 136.960132 505.728333 136.960132 
Q 508.557127 136.960132 511.118014 136.298864 
Q 513.678901 135.631357 516.318584 134.209006 
z
" style="fill:#0000ff;"/>
   </g>
   <g id="patch_27">
    <path clip-path="url(#p0a9b9bdbca)" d="M 506.708008 103.94775 
L 494.680401 103.94775 
L 492.781305 112.2 
L 485.044248 112.2 
L 496.093533 66.9 
L 505.269299 66.9 
L 516.318584 112.2 
L 508.587921 112.2 
z
M 496.59868 95.540163 
L 504.770547 95.540163 
L 500.691007 77.521132 
z
" style="fill:#008000;"/>
   </g>
   <g id="patch_28">
    <path clip-path="url(#p0a9b9bdbca)" d="M 516.318584 62.801384 
Q 513.164516 64.850692 509.772141 65.880025 
Q 506.379765 66.9 502.763101 66.9 
Q 494.59056 66.9 489.817404 60.798864 
Q 485.044248 54.697728 485.044248 44.264036 
Q 485.044248 33.708697 489.901512 27.654348 
Q 494.765786 21.6 503.225697 21.6 
Q 506.484901 21.6 509.470752 22.423466 
Q 512.463612 23.237575 515.113029 24.847077 
L 515.113029 33.877133 
Q 512.379504 31.80911 509.674014 30.789134 
Q 506.968525 29.759802 504.249017 29.759802 
Q 499.216527 29.759802 496.49001 33.521545 
Q 493.763493 37.273931 493.763493 44.264036 
Q 493.763493 51.188639 496.391883 54.969097 
Q 499.020273 58.740198 503.856511 58.740198 
Q 505.174211 58.740198 506.302666 58.524974 
Q 507.431121 58.300392 508.328279 57.832514 
L 508.328279 49.354555 
L 503.176634 49.354555 
L 503.176634 41.802995 
L 516.318584 41.802995 
z
" style="fill:#ffa600;"/>
   </g>
   <g id="patch_29">
    <path clip-path="url(#p0a9b9bdbca)" d="M 549.238938 156.417641 
Q 546.622894 156.954142 543.794099 157.225511 
Q 540.965304 157.5 537.88436 157.5 
Q 528.696687 157.5 523.330644 155.466288 
Q 517.964602 153.432576 517.964602 149.954679 
Q 517.964602 146.464305 523.330644 144.433712 
Q 528.696687 142.4 537.88436 142.4 
Q 540.965304 142.4 543.794099 142.674489 
Q 546.622894 142.945858 549.238938 143.482359 
L 549.238938 146.492378 
Q 546.599255 145.781202 544.038368 145.450568 
Q 541.477481 145.119934 538.648687 145.119934 
Q 533.574191 145.119934 530.6666 146.408159 
Q 527.766888 147.693266 527.766888 149.954679 
Q 527.766888 152.206734 530.6666 153.49496 
Q 533.574191 154.780066 538.648687 154.780066 
Q 541.477481 154.780066 544.038368 154.449432 
Q 546.599255 154.115679 549.238938 153.404503 
z
" style="fill:#0000ff;"/>
   </g>
   <g id="patch_30">
    <path clip-path="url(#p0a9b9bdbca)" d="M 549.238938 139.667589 
Q 546.08487 141.033795 542.692495 141.720017 
Q 539.300119 142.4 535.683455 142.4 
Q 527.510914 142.4 522.737758 138.332576 
Q 517.964602 134.265152 517.964602 127.309358 
Q 517.964602 120.272464 522.821866 116.236232 
Q 527.68614 112.2 536.146051 112.2 
Q 539.405255 112.2 542.391106 112.748977 
Q 545.383966 113.291717 548.033383 114.364718 
L 548.033383 120.384755 
Q 545.299858 119.006073 542.594368 118.32609 
Q 539.888879 117.639868 537.169371 117.639868 
Q 532.136881 117.639868 529.410364 120.147697 
Q 526.683847 122.649287 526.683847 127.309358 
Q 526.683847 131.925759 529.312237 134.446065 
Q 531.940627 136.960132 536.776865 136.960132 
Q 538.094565 136.960132 539.22302 136.816649 
Q 540.351475 136.666928 541.248633 136.355009 
L 541.248633 130.703037 
L 536.096988 130.703037 
L 536.096988 125.668663 
L 549.238938 125.668663 
z
" style="fill:#ffa600;"/>
   </g>
   <g id="patch_31">
    <path clip-path="url(#p0a9b9bdbca)" d="M 539.628362 95.695499 
L 527.600755 95.695499 
L 525.701659 112.2 
L 517.964602 112.2 
L 529.013887 21.6 
L 538.189653 21.6 
L 549.238938 112.2 
L 541.508275 112.2 
z
M 529.519034 78.880326 
L 537.690901 78.880326 
L 533.611361 42.842263 
z
" style="fill:#008000;"/>
   </g>
   <g id="patch_32">
    <path clip-path="url(#p0a9b9bdbca)" d="M 582.159292 155.335282 
Q 579.543248 156.408283 576.714453 156.951023 
Q 573.885658 157.5 570.804714 157.5 
Q 561.617041 157.5 556.250998 153.432576 
Q 550.884956 149.365152 550.884956 142.409358 
Q 550.884956 135.42861 556.250998 131.367424 
Q 561.617041 127.3 570.804714 127.3 
Q 573.885658 127.3 576.714453 127.848977 
Q 579.543248 128.391717 582.159292 129.464718 
L 582.159292 135.484755 
Q 579.519609 134.062404 576.958722 133.401136 
Q 574.397835 132.739868 571.569041 132.739868 
Q 566.494545 132.739868 563.586954 135.316319 
Q 560.687242 137.886532 560.687242 142.409358 
Q 560.687242 146.913468 563.586954 149.489919 
Q 566.494545 152.060132 571.569041 152.060132 
Q 574.397835 152.060132 576.958722 151.398864 
Q 579.519609 150.731357 582.159292 149.309006 
z
" style="fill:#0000ff;"/>
   </g>
   <g id="patch_33">
    <path clip-path="url(#p0a9b9bdbca)" d="M 572.548716 119.04775 
L 560.521109 119.04775 
L 558.622013 127.3 
L 550.884956 127.3 
L 561.934241 82 
L 571.110007 82 
L 582.159292 127.3 
L 574.428629 127.3 
z
M 562.439387 110.640163 
L 570.611255 110.640163 
L 566.531715 92.621132 
z
" style="fill:#008000;"/>
   </g>
   <g id="patch_34">
    <path clip-path="url(#p0a9b9bdbca)" d="M 582.159292 76.535179 
Q 579.005224 79.267589 575.612849 80.640033 
Q 572.220473 82 568.603809 82 
Q 560.431268 82 555.658112 73.865152 
Q 550.884956 65.730304 550.884956 51.818715 
Q 550.884956 37.744929 555.74222 29.672464 
Q 560.606494 21.6 569.066405 21.6 
Q 572.325609 21.6 575.31146 22.697955 
Q 578.30432 23.783433 580.953737 25.929436 
L 580.953737 37.96951 
Q 578.220212 35.212146 575.514722 33.852179 
Q 572.809233 32.479736 570.089725 32.479736 
Q 565.057235 32.479736 562.330718 37.495394 
Q 559.604201 42.498575 559.604201 51.818715 
Q 559.604201 61.051518 562.232591 66.09213 
Q 564.860981 71.120264 569.697219 71.120264 
Q 571.014919 71.120264 572.143374 70.833299 
Q 573.271829 70.533857 574.168986 69.910019 
L 574.168986 58.606073 
L 569.017342 58.606073 
L 569.017342 48.537327 
L 582.159292 48.537327 
z
" style="fill:#ffa600;"/>
   </g>
   <g id="patch_35">
    <path clip-path="url(#p0a9b9bdbca)" d="M 615.079646 156.417641 
Q 612.463602 156.954142 609.634807 157.225511 
Q 606.806012 157.5 603.725068 157.5 
Q 594.537395 157.5 589.171352 155.466288 
Q 583.80531 153.432576 583.80531 149.954679 
Q 583.80531 146.464305 589.171352 144.433712 
Q 594.537395 142.4 603.725068 142.4 
Q 606.806012 142.4 609.634807 142.674489 
Q 612.463602 142.945858 615.079646 143.482359 
L 615.079646 146.492378 
Q 612.439963 145.781202 609.879076 145.450568 
Q 607.318189 145.119934 604.489395 145.119934 
Q 599.414899 145.119934 596.507308 146.408159 
Q 593.607596 147.693266 593.607596 149.954679 
Q 593.607596 152.206734 596.507308 153.49496 
Q 599.414899 154.780066 604.489395 154.780066 
Q 607.318189 154.780066 609.879076 154.449432 
Q 612.439963 154.115679 615.079646 153.404503 
z
" style="fill:#0000ff;"/>
   </g>
   <g id="patch_36">
    <path clip-path="url(#p0a9b9bdbca)" d="M 615.079646 139.667589 
Q 611.925578 141.033795 608.533203 141.720017 
Q 605.140827 142.4 601.524163 142.4 
Q 593.351622 142.4 588.578466 138.332576 
Q 583.80531 134.265152 583.80531 127.309358 
Q 583.80531 120.272464 588.662574 116.236232 
Q 593.526848 112.2 601.986759 112.2 
Q 605.245963 112.2 608.231814 112.748977 
Q 611.224674 113.291717 613.874091 114.364718 
L 613.874091 120.384755 
Q 611.140566 119.006073 608.435076 118.32609 
Q 605.729587 117.639868 603.010079 117.639868 
Q 597.977589 117.639868 595.251072 120.147697 
Q 592.524555 122.649287 592.524555 127.309358 
Q 592.524555 131.925759 595.152945 134.446065 
Q 597.781335 136.960132 602.617573 136.960132 
Q 603.935272 136.960132 605.063728 136.816649 
Q 606.192183 136.666928 607.08934 136.355009 
L 607.08934 130.703037 
L 601.937696 130.703037 
L 601.937696 125.668663 
L 615.079646 125.668663 
z
" style="fill:#ffa600;"/>
   </g>
   <g id="patch_37">
    <path clip-path="url(#p0a9b9bdbca)" d="M 605.46907 103.94775 
L 593.441463 103.94775 
L 591.542367 112.2 
L 583.80531 112.2 
L 594.854595 66.9 
L 604.030361 66.9 
L 615.079646 112.2 
L 607.348983 112.2 
z
M 595.359741 95.540163 
L 603.531609 95.540163 
L 599.452069 77.521132 
z
" style="fill:#008000;"/>
   </g>
   <g id="patch_38">
    <path clip-path="url(#p0a9b9bdbca)" d="M 583.80531 21.6 
L 615.079646 21.6 
L 615.079646 30.434762 
L 603.828158 30.434762 
L 603.828158 66.9 
L 595.078617 66.9 
L 595.078617 30.434762 
L 583.80531 30.434762 
z
" style="fill:#ff0000;"/>
   </g>
   <g id="patch_39">
    <path clip-path="url(#p0a9b9bdbca)" d="M 616.725664 142.4 
L 648 142.4 
L 648 145.344921 
L 636.748512 145.344921 
L 636.748512 157.5 
L 627.998971 157.5 
L 627.998971 145.344921 
L 616.725664 145.344921 
z
" style="fill:#ff0000;"/>
   </g>
   <g id="patch_40">
    <path clip-path="url(#p0a9b9bdbca)" d="M 638.389424 136.8985 
L 626.361817 136.8985 
L 624.462721 142.4 
L 616.725664 142.4 
L 627.774949 112.2 
L 636.950715 112.2 
L 648 142.4 
L 640.269337 142.4 
z
M 628.280095 131.293442 
L 636.451963 131.293442 
L 632.372423 119.280754 
z
" style="fill:#008000;"/>
   </g>
   <g id="patch_41">
    <path clip-path="url(#p0a9b9bdbca)" d="M 648 110.035282 
Q 645.383956 111.108283 642.555161 111.651023 
Q 639.726366 112.2 636.645422 112.2 
Q 627.457749 112.2 622.091706 108.132576 
Q 616.725664 104.065152 616.725664 97.109358 
Q 616.725664 90.12861 622.091706 86.067424 
Q 627.457749 82 636.645422 82 
Q 639.726366 82 642.555161 82.548977 
Q 645.383956 83.091717 648 84.164718 
L 648 90.184755 
Q 645.360317 88.762404 642.79943 88.101136 
Q 640.238543 87.439868 637.409749 87.439868 
Q 632.335253 87.439868 629.427662 90.016319 
Q 626.52795 92.586532 626.52795 97.109358 
Q 626.52795 101.613468 629.427662 104.189919 
Q 632.335253 106.760132 637.409749 106.760132 
Q 640.238543 106.760132 642.79943 106.098864 
Q 645.360317 105.431357 648 104.009006 
z
" style="fill:#0000ff;"/>
   </g>
   <g id="patch_42">
    <path clip-path="url(#p0a9b9bdbca)" d="M 648 76.535179 
Q 644.845932 79.267589 641.453557 80.640033 
Q 638.061181 82 634.444517 82 
Q 626.271976 82 621.49882 73.865152 
Q 616.725664 65.730304 616.725664 51.818715 
Q 616.725664 37.744929 621.582928 29.672464 
Q 626.447202 21.6 634.907113 21.6 
Q 638.166317 21.6 641.152168 22.697955 
Q 644.145028 23.783433 646.794445 25.929436 
L 646.794445 37.96951 
Q 644.06092 35.212146 641.35543 33.852179 
Q 638.649941 32.479736 635.930433 32.479736 
Q 630.897943 32.479736 628.171426 37.495394 
Q 625.444909 42.498575 625.444909 51.818715 
Q 625.444909 61.051518 628.073299 66.09213 
Q 630.701689 71.120264 635.537927 71.120264 
Q 636.855626 71.120264 637.984082 70.833299 
Q 639.112537 70.533857 640.009694 69.910019 
L 640.009694 58.606073 
L 634.85805 58.606073 
L 634.85805 48.537327 
L 648 48.537327 
z
" style="fill:#ffa600;"/>
   </g>
  </g>
 </g>
 <defs>
  <clipPath id="p0a9b9bdbca">
   <rect height="135.9" width="558" x="90" y="21.6"/>
  </clipPath>
 </defs>
</svg>
