<?xml version="1.0" encoding="utf-8" standalone="no"?>
<!DOCTYPE svg PUBLIC "-//W3C//DTD SVG 1.1//EN"
  "http://www.w3.org/Graphics/SVG/1.1/DTD/svg11.dtd">
<!-- Created with matplotlib (https://matplotlib.org/) -->
<svg height="180pt" version="1.1" viewBox="0 0 720 180" width="720pt" xmlns="http://www.w3.org/2000/svg" xmlns:xlink="http://www.w3.org/1999/xlink">
 <metadata>
  <rdf:RDF xmlns:cc="http://creativecommons.org/ns#" xmlns:dc="http://purl.org/dc/elements/1.1/" xmlns:rdf="http://www.w3.org/1999/02/22-rdf-syntax-ns#">
   <cc:Work>
    <dc:type rdf:resource="http://purl.org/dc/dcmitype/StillImage"/>
    <dc:date>2021-08-04T23:32:57.953992</dc:date>
    <dc:format>image/svg+xml</dc:format>
    <dc:creator>
     <cc:Agent>
      <dc:title>Matplotlib v3.3.2, https://matplotlib.org/</dc:title>
     </cc:Agent>
    </dc:creator>
   </cc:Work>
  </rdf:RDF>
 </metadata>
 <defs>
  <style type="text/css">*{stroke-linecap:butt;stroke-linejoin:round;}</style>
 </defs>
 <g id="figure_1">
  <g id="patch_1">
   <path d="M 0 180 
L 720 180 
L 720 0 
L 0 0 
z
" style="fill:none;"/>
  </g>
  <g id="axes_1">
   <g id="line2d_1">
    <path clip-path="url(#p93c92efc16)" d="M 90 157.5 
L 648 157.5 
" style="fill:none;stroke:#000000;stroke-linecap:square;stroke-width:0.5;"/>
   </g>
   <g id="patch_2">
    <path clip-path="url(#p93c92efc16)" d="M 90 21.6 
L 121.274336 21.6 
L 121.274336 48.104286 
L 110.022848 48.104286 
L 110.022848 157.5 
L 101.273307 157.5 
L 101.273307 48.104286 
L 90 48.104286 
z
" style="fill:#ff0000;"/>
   </g>
   <g id="patch_3">
    <path clip-path="url(#p93c92efc16)" d="M 144.584114 151.9985 
L 132.556507 151.9985 
L 130.657411 157.5 
L 122.920354 157.5 
L 133.969639 127.3 
L 143.145405 127.3 
L 154.19469 157.5 
L 146.464027 157.5 
z
M 134.474786 146.393442 
L 142.646653 146.393442 
L 138.567114 134.380754 
z
" style="fill:#008000;"/>
   </g>
   <g id="patch_4">
    <path clip-path="url(#p93c92efc16)" d="M 122.920354 97.1 
L 154.19469 97.1 
L 154.19469 102.989841 
L 142.943202 102.989841 
L 142.943202 127.3 
L 134.193661 127.3 
L 134.193661 102.989841 
L 122.920354 102.989841 
z
" style="fill:#ff0000;"/>
   </g>
   <g id="patch_5">
    <path clip-path="url(#p93c92efc16)" d="M 154.19469 90.268973 
Q 151.040622 93.684487 147.648247 95.400041 
Q 144.255872 97.1 140.639207 97.1 
Q 132.466666 97.1 127.69351 86.93144 
Q 122.920354 76.76288 122.920354 59.373394 
Q 122.920354 41.781161 127.777619 31.69058 
Q 132.641892 21.6 141.101804 21.6 
Q 144.361007 21.6 147.346858 22.972444 
Q 150.339718 24.329291 152.989135 27.011795 
L 152.989135 42.061888 
Q 150.25561 38.615183 147.55012 36.915224 
Q 144.844631 35.199669 142.125123 35.199669 
Q 137.092633 35.199669 134.366116 41.469242 
Q 131.6396 47.723218 131.6396 59.373394 
Q 131.6396 70.914398 134.26799 77.215162 
Q 136.89638 83.500331 141.732617 83.500331 
Q 143.050317 83.500331 144.178772 83.141624 
Q 145.307228 82.767321 146.204385 81.987523 
L 146.204385 67.857591 
L 141.05274 67.857591 
L 141.05274 55.271659 
L 154.19469 55.271659 
z
" style="fill:#ffa600;"/>
   </g>
   <g id="patch_6">
    <path clip-path="url(#p93c92efc16)" d="M 187.115044 156.417641 
Q 184.499 156.954142 181.670205 157.225511 
Q 178.84141 157.5 175.760467 157.5 
Q 166.572793 157.5 161.206751 155.466288 
Q 155.840708 153.432576 155.840708 149.954679 
Q 155.840708 146.464305 161.206751 144.433712 
Q 166.572793 142.4 175.760467 142.4 
Q 178.84141 142.4 181.670205 142.674489 
Q 184.499 142.945858 187.115044 143.482359 
L 187.115044 146.492378 
Q 184.475361 145.781202 181.914474 145.450568 
Q 179.353588 145.119934 176.524793 145.119934 
Q 171.450297 145.119934 168.542706 146.408159 
Q 165.642994 147.693266 165.642994 149.954679 
Q 165.642994 152.206734 168.542706 153.49496 
Q 171.450297 154.780066 176.524793 154.780066 
Q 179.353588 154.780066 181.914474 154.449432 
Q 184.475361 154.115679 187.115044 153.404503 
z
" style="fill:#0000ff;"/>
   </g>
   <g id="patch_7">
    <path clip-path="url(#p93c92efc16)" d="M 187.115044 141.033795 
Q 183.960976 141.716897 180.568601 142.060008 
Q 177.176226 142.4 173.559561 142.4 
Q 165.38702 142.4 160.613864 140.366288 
Q 155.840708 138.332576 155.840708 134.854679 
Q 155.840708 131.336232 160.697973 129.318116 
Q 165.562246 127.3 174.022158 127.3 
Q 177.281361 127.3 180.267212 127.574489 
Q 183.260072 127.845858 185.909489 128.382359 
L 185.909489 131.392378 
Q 183.175964 130.703037 180.470474 130.363045 
Q 177.764985 130.019934 175.045477 130.019934 
Q 170.012987 130.019934 167.28647 131.273848 
Q 164.559954 132.524644 164.559954 134.854679 
Q 164.559954 137.16288 167.188344 138.423032 
Q 169.816734 139.680066 174.652971 139.680066 
Q 175.970671 139.680066 177.099126 139.608325 
Q 178.227582 139.533464 179.124739 139.377505 
L 179.124739 136.551518 
L 173.973094 136.551518 
L 173.973094 134.034332 
L 187.115044 134.034332 
z
" style="fill:#ffa600;"/>
   </g>
   <g id="patch_8">
    <path clip-path="url(#p93c92efc16)" d="M 155.840708 112.2 
L 187.115044 112.2 
L 187.115044 115.144921 
L 175.863556 115.144921 
L 175.863556 127.3 
L 167.114015 127.3 
L 167.114015 115.144921 
L 155.840708 115.144921 
z
" style="fill:#ff0000;"/>
   </g>
   <g id="patch_9">
    <path clip-path="url(#p93c92efc16)" d="M 177.504468 95.695499 
L 165.476861 95.695499 
L 163.577765 112.2 
L 155.840708 112.2 
L 166.889993 21.6 
L 176.065759 21.6 
L 187.115044 112.2 
L 179.384381 112.2 
z
M 167.39514 78.880326 
L 175.567007 78.880326 
L 171.487467 42.842263 
z
" style="fill:#008000;"/>
   </g>
   <g id="patch_10">
    <path clip-path="url(#p93c92efc16)" d="M 210.424822 132.743249 
L 198.397215 132.743249 
L 196.498119 157.5 
L 188.761062 157.5 
L 199.810347 21.6 
L 208.986113 21.6 
L 220.035398 157.5 
L 212.304735 157.5 
z
M 200.315494 107.520489 
L 208.487361 107.520489 
L 204.407821 53.463395 
z
" style="fill:#008000;"/>
   </g>
   <g id="patch_11">
    <path clip-path="url(#p93c92efc16)" d="M 221.681416 21.6 
L 252.955752 21.6 
L 252.955752 48.104286 
L 241.704264 48.104286 
L 241.704264 157.5 
L 232.954723 157.5 
L 232.954723 48.104286 
L 221.681416 48.104286 
z
" style="fill:#ff0000;"/>
   </g>
   <g id="patch_12">
    <path clip-path="url(#p93c92efc16)" d="M 285.876106 145.204152 
Q 282.722038 151.352076 279.329663 154.440074 
Q 275.937288 157.5 272.320623 157.5 
Q 264.148082 157.5 259.374926 139.196592 
Q 254.60177 120.893183 254.60177 89.592109 
Q 254.60177 57.92609 259.459035 39.763045 
Q 264.323308 21.6 272.78322 21.6 
Q 276.042423 21.6 279.028274 24.070399 
Q 282.021134 26.512725 284.670551 31.341231 
L 284.670551 58.431398 
Q 281.937026 52.227329 279.231536 49.167403 
Q 276.526047 46.079405 273.806539 46.079405 
Q 268.774049 46.079405 266.047532 57.364635 
Q 263.321016 68.621793 263.321016 89.592109 
Q 263.321016 110.365916 265.949406 121.707292 
Q 268.577796 133.020595 273.414033 133.020595 
Q 274.731733 133.020595 275.860188 132.374923 
Q 276.988644 131.701177 277.885801 130.297542 
L 277.885801 104.863665 
L 272.734156 104.863665 
L 272.734156 82.208986 
L 285.876106 82.208986 
z
" style="fill:#ffa600;"/>
   </g>
   <g id="patch_13">
    <path clip-path="url(#p93c92efc16)" d="M 318.79646 154.252923 
Q 316.180416 155.862425 313.351621 156.676534 
Q 310.522826 157.5 307.441883 157.5 
Q 298.254209 157.5 292.888166 151.398864 
Q 287.522124 145.297728 287.522124 134.864036 
Q 287.522124 124.392915 292.888166 118.301136 
Q 298.254209 112.2 307.441883 112.2 
Q 310.522826 112.2 313.351621 113.023466 
Q 316.180416 113.837575 318.79646 115.447077 
L 318.79646 124.477133 
Q 316.156777 122.343607 313.59589 121.351704 
Q 311.035004 120.359802 308.206209 120.359802 
Q 303.131713 120.359802 300.224122 124.224478 
Q 297.32441 128.079798 297.32441 134.864036 
Q 297.32441 141.620202 300.224122 145.484879 
Q 303.131713 149.340198 308.206209 149.340198 
Q 311.035004 149.340198 313.59589 148.348296 
Q 316.156777 147.347036 318.79646 145.21351 
z
" style="fill:#0000ff;"/>
   </g>
   <g id="patch_14">
    <path clip-path="url(#p93c92efc16)" d="M 287.522124 21.6 
L 318.79646 21.6 
L 318.79646 39.269524 
L 307.544972 39.269524 
L 307.544972 112.2 
L 298.795431 112.2 
L 298.795431 39.269524 
L 287.522124 39.269524 
z
" style="fill:#ff0000;"/>
   </g>
   <g id="patch_15">
    <path clip-path="url(#p93c92efc16)" d="M 342.106238 149.24775 
L 330.078631 149.24775 
L 328.179535 157.5 
L 320.442478 157.5 
L 331.491763 112.2 
L 340.667529 112.2 
L 351.716814 157.5 
L 343.986151 157.5 
z
M 331.99691 140.840163 
L 340.168777 140.840163 
L 336.089237 122.821132 
z
" style="fill:#008000;"/>
   </g>
   <g id="patch_16">
    <path clip-path="url(#p93c92efc16)" d="M 351.716814 104.002768 
Q 348.562746 108.101384 345.170371 110.16005 
Q 341.777996 112.2 338.161331 112.2 
Q 329.98879 112.2 325.215634 99.997728 
Q 320.442478 87.795455 320.442478 66.928073 
Q 320.442478 45.817393 325.299743 33.708697 
Q 330.164016 21.6 338.623928 21.6 
Q 341.883131 21.6 344.868982 23.246932 
Q 347.861842 24.87515 350.511259 28.094154 
L 350.511259 46.154266 
Q 347.777734 42.018219 345.072244 39.978269 
Q 342.366755 37.919603 339.647247 37.919603 
Q 334.614757 37.919603 331.88824 45.44309 
Q 329.161724 52.947862 329.161724 66.928073 
Q 329.161724 80.777277 331.790114 88.338195 
Q 334.418504 95.880397 339.254741 95.880397 
Q 340.572441 95.880397 341.700896 95.449948 
Q 342.829351 95.000785 343.726509 94.065028 
L 343.726509 77.10911 
L 338.574864 77.10911 
L 338.574864 62.00599 
L 351.716814 62.00599 
z
" style="fill:#ffa600;"/>
   </g>
   <g id="patch_17">
    <path clip-path="url(#p93c92efc16)" d="M 384.637168 153.170564 
Q 382.021124 155.316567 379.192329 156.402045 
Q 376.363534 157.5 373.282591 157.5 
Q 364.094917 157.5 358.728874 149.365152 
Q 353.362832 141.230304 353.362832 127.318715 
Q 353.362832 113.35722 358.728874 105.234848 
Q 364.094917 97.1 373.282591 97.1 
Q 376.363534 97.1 379.192329 98.197955 
Q 382.021124 99.283433 384.637168 101.429436 
L 384.637168 113.46951 
Q 381.997485 110.624809 379.436598 109.302272 
Q 376.875712 107.979736 374.046917 107.979736 
Q 368.972421 107.979736 366.06483 113.132638 
Q 363.165118 118.273063 363.165118 127.318715 
Q 363.165118 136.326937 366.06483 141.479839 
Q 368.972421 146.620264 374.046917 146.620264 
Q 376.875712 146.620264 379.436598 145.297728 
Q 381.997485 143.962714 384.637168 141.118013 
z
" style="fill:#0000ff;"/>
   </g>
   <g id="patch_18">
    <path clip-path="url(#p93c92efc16)" d="M 353.362832 21.6 
L 384.637168 21.6 
L 384.637168 36.324604 
L 373.38568 36.324604 
L 373.38568 97.1 
L 364.636139 97.1 
L 364.636139 36.324604 
L 353.362832 36.324604 
z
" style="fill:#ff0000;"/>
   </g>
   <g id="patch_19">
    <path clip-path="url(#p93c92efc16)" d="M 417.557522 156.417641 
Q 414.941478 156.954142 412.112683 157.225511 
Q 409.283888 157.5 406.202945 157.5 
Q 397.015271 157.5 391.649228 155.466288 
Q 386.283186 153.432576 386.283186 149.954679 
Q 386.283186 146.464305 391.649228 144.433712 
Q 397.015271 142.4 406.202945 142.4 
Q 409.283888 142.4 412.112683 142.674489 
Q 414.941478 142.945858 417.557522 143.482359 
L 417.557522 146.492378 
Q 414.917839 145.781202 412.356952 145.450568 
Q 409.796066 145.119934 406.967271 145.119934 
Q 401.892775 145.119934 398.985184 146.408159 
Q 396.085472 147.693266 396.085472 149.954679 
Q 396.085472 152.206734 398.985184 153.49496 
Q 401.892775 154.780066 406.967271 154.780066 
Q 409.796066 154.780066 412.356952 154.449432 
Q 414.917839 154.115679 417.557522 153.404503 
z
" style="fill:#0000ff;"/>
   </g>
   <g id="patch_20">
    <path clip-path="url(#p93c92efc16)" d="M 407.946946 131.397 
L 395.919339 131.397 
L 394.020243 142.4 
L 386.283186 142.4 
L 397.332471 82 
L 406.508237 82 
L 417.557522 142.4 
L 409.826859 142.4 
z
M 397.837618 120.186884 
L 406.009485 120.186884 
L 401.929945 96.161509 
z
" style="fill:#008000;"/>
   </g>
   <g id="patch_21">
    <path clip-path="url(#p93c92efc16)" d="M 417.557522 76.535179 
Q 414.403454 79.267589 411.011079 80.640033 
Q 407.618703 82 404.002039 82 
Q 395.829498 82 391.056342 73.865152 
Q 386.283186 65.730304 386.283186 51.818715 
Q 386.283186 37.744929 391.140451 29.672464 
Q 396.004724 21.6 404.464635 21.6 
Q 407.723839 21.6 410.70969 22.697955 
Q 413.70255 23.783433 416.351967 25.929436 
L 416.351967 37.96951 
Q 413.618442 35.212146 410.912952 33.852179 
Q 408.207463 32.479736 405.487955 32.479736 
Q 400.455465 32.479736 397.728948 37.495394 
Q 395.002432 42.498575 395.002432 51.818715 
Q 395.002432 61.051518 397.630822 66.09213 
Q 400.259212 71.120264 405.095449 71.120264 
Q 406.413149 71.120264 407.541604 70.833299 
Q 408.670059 70.533857 409.567217 69.910019 
L 409.567217 58.606073 
L 404.415572 58.606073 
L 404.415572 48.537327 
L 417.557522 48.537327 
z
" style="fill:#ffa600;"/>
   </g>
   <g id="patch_22">
    <path clip-path="url(#p93c92efc16)" d="M 419.20354 127.3 
L 450.477876 127.3 
L 450.477876 133.189841 
L 439.226388 133.189841 
L 439.226388 157.5 
L 430.476847 157.5 
L 430.476847 133.189841 
L 419.20354 133.189841 
z
" style="fill:#ff0000;"/>
   </g>
   <g id="patch_23">
    <path clip-path="url(#p93c92efc16)" d="M 440.8673 119.04775 
L 428.839693 119.04775 
L 426.940597 127.3 
L 419.20354 127.3 
L 430.252825 82 
L 439.428591 82 
L 450.477876 127.3 
L 442.747213 127.3 
z
M 430.757972 110.640163 
L 438.929839 110.640163 
L 434.850299 92.621132 
z
" style="fill:#008000;"/>
   </g>
   <g id="patch_24">
    <path clip-path="url(#p93c92efc16)" d="M 450.477876 77.670564 
Q 447.861832 79.816567 445.033037 80.902045 
Q 442.204242 82 439.123298 82 
Q 429.935625 82 424.569582 73.865152 
Q 419.20354 65.730304 419.20354 51.818715 
Q 419.20354 37.85722 424.569582 29.734848 
Q 429.935625 21.6 439.123298 21.6 
Q 442.204242 21.6 445.033037 22.697955 
Q 447.861832 23.783433 450.477876 25.929436 
L 450.477876 37.96951 
Q 447.838193 35.124809 445.277306 33.802272 
Q 442.71642 32.479736 439.887625 32.479736 
Q 434.813129 32.479736 431.905538 37.632638 
Q 429.005826 42.773063 429.005826 51.818715 
Q 429.005826 60.826937 431.905538 65.979839 
Q 434.813129 71.120264 439.887625 71.120264 
Q 442.71642 71.120264 445.277306 69.797728 
Q 447.838193 68.462714 450.477876 65.618013 
z
" style="fill:#0000ff;"/>
   </g>
   <g id="patch_25">
    <path clip-path="url(#p93c92efc16)" d="M 473.787654 149.24775 
L 461.760047 149.24775 
L 459.860951 157.5 
L 452.123894 157.5 
L 463.173179 112.2 
L 472.348945 112.2 
L 483.39823 157.5 
L 475.667567 157.5 
z
M 463.678326 140.840163 
L 471.850193 140.840163 
L 467.770653 122.821132 
z
" style="fill:#008000;"/>
   </g>
   <g id="patch_26">
    <path clip-path="url(#p93c92efc16)" d="M 483.39823 108.101384 
Q 480.244162 110.150692 476.851787 111.180025 
Q 473.459411 112.2 469.842747 112.2 
Q 461.670206 112.2 456.89705 106.098864 
Q 452.123894 99.997728 452.123894 89.564036 
Q 452.123894 79.008697 456.981158 72.954348 
Q 461.845432 66.9 470.305343 66.9 
Q 473.564547 66.9 476.550398 67.723466 
Q 479.543258 68.537575 482.192675 70.147077 
L 482.192675 79.177133 
Q 479.45915 77.10911 476.75366 76.089134 
Q 474.048171 75.059802 471.328663 75.059802 
Q 466.296173 75.059802 463.569656 78.821545 
Q 460.84314 82.573931 460.84314 89.564036 
Q 460.84314 96.488639 463.471529 100.269097 
Q 466.099919 104.040198 470.936157 104.040198 
Q 472.253857 104.040198 473.382312 103.824974 
Q 474.510767 103.600392 475.407925 103.132514 
L 475.407925 94.654555 
L 470.25628 94.654555 
L 470.25628 87.102995 
L 483.39823 87.102995 
z
" style="fill:#ffa600;"/>
   </g>
   <g id="patch_27">
    <path clip-path="url(#p93c92efc16)" d="M 452.123894 21.6 
L 483.39823 21.6 
L 483.39823 30.434762 
L 472.146742 30.434762 
L 472.146742 66.9 
L 463.397201 66.9 
L 463.397201 30.434762 
L 452.123894 30.434762 
z
" style="fill:#ff0000;"/>
   </g>
   <g id="patch_28">
    <path clip-path="url(#p93c92efc16)" d="M 516.318584 156.133795 
Q 513.164516 156.816897 509.772141 157.160008 
Q 506.379765 157.5 502.763101 157.5 
Q 494.59056 157.5 489.817404 155.466288 
Q 485.044248 153.432576 485.044248 149.954679 
Q 485.044248 146.436232 489.901512 144.418116 
Q 494.765786 142.4 503.225697 142.4 
Q 506.484901 142.4 509.470752 142.674489 
Q 512.463612 142.945858 515.113029 143.482359 
L 515.113029 146.492378 
Q 512.379504 145.803037 509.674014 145.463045 
Q 506.968525 145.119934 504.249017 145.119934 
Q 499.216527 145.119934 496.49001 146.373848 
Q 493.763493 147.624644 493.763493 149.954679 
Q 493.763493 152.26288 496.391883 153.523032 
Q 499.020273 154.780066 503.856511 154.780066 
Q 505.174211 154.780066 506.302666 154.708325 
Q 507.431121 154.633464 508.328279 154.477505 
L 508.328279 151.651518 
L 503.176634 151.651518 
L 503.176634 149.134332 
L 516.318584 149.134332 
z
" style="fill:#ffa600;"/>
   </g>
   <g id="patch_29">
    <path clip-path="url(#p93c92efc16)" d="M 506.708008 136.8985 
L 494.680401 136.8985 
L 492.781305 142.4 
L 485.044248 142.4 
L 496.093533 112.2 
L 505.269299 112.2 
L 516.318584 142.4 
L 508.587921 142.4 
z
M 496.59868 131.293442 
L 504.770547 131.293442 
L 500.691007 119.280754 
z
" style="fill:#008000;"/>
   </g>
   <g id="patch_30">
    <path clip-path="url(#p93c92efc16)" d="M 485.044248 82 
L 516.318584 82 
L 516.318584 87.889841 
L 505.067096 87.889841 
L 505.067096 112.2 
L 496.317555 112.2 
L 496.317555 87.889841 
L 485.044248 87.889841 
z
" style="fill:#ff0000;"/>
   </g>
   <g id="patch_31">
    <path clip-path="url(#p93c92efc16)" d="M 516.318584 77.670564 
Q 513.70254 79.816567 510.873745 80.902045 
Q 508.04495 82 504.964006 82 
Q 495.776333 82 490.41029 73.865152 
Q 485.044248 65.730304 485.044248 51.818715 
Q 485.044248 37.85722 490.41029 29.734848 
Q 495.776333 21.6 504.964006 21.6 
Q 508.04495 21.6 510.873745 22.697955 
Q 513.70254 23.783433 516.318584 25.929436 
L 516.318584 37.96951 
Q 513.678901 35.124809 511.118014 33.802272 
Q 508.557127 32.479736 505.728333 32.479736 
Q 500.653837 32.479736 497.746246 37.632638 
Q 494.846534 42.773063 494.846534 51.818715 
Q 494.846534 60.826937 497.746246 65.979839 
Q 500.653837 71.120264 505.728333 71.120264 
Q 508.557127 71.120264 511.118014 69.797728 
Q 513.678901 68.462714 516.318584 65.618013 
z
" style="fill:#0000ff;"/>
   </g>
   <g id="patch_32">
    <path clip-path="url(#p93c92efc16)" d="M 549.238938 156.417641 
Q 546.622894 156.954142 543.794099 157.225511 
Q 540.965304 157.5 537.88436 157.5 
Q 528.696687 157.5 523.330644 155.466288 
Q 517.964602 153.432576 517.964602 149.954679 
Q 517.964602 146.464305 523.330644 144.433712 
Q 528.696687 142.4 537.88436 142.4 
Q 540.965304 142.4 543.794099 142.674489 
Q 546.622894 142.945858 549.238938 143.482359 
L 549.238938 146.492378 
Q 546.599255 145.781202 544.038368 145.450568 
Q 541.477481 145.119934 538.648687 145.119934 
Q 533.574191 145.119934 530.6666 146.408159 
Q 527.766888 147.693266 527.766888 149.954679 
Q 527.766888 152.206734 530.6666 153.49496 
Q 533.574191 154.780066 538.648687 154.780066 
Q 541.477481 154.780066 544.038368 154.449432 
Q 546.599255 154.115679 549.238938 153.404503 
z
" style="fill:#0000ff;"/>
   </g>
   <g id="patch_33">
    <path clip-path="url(#p93c92efc16)" d="M 517.964602 127.3 
L 549.238938 127.3 
L 549.238938 130.244921 
L 537.98745 130.244921 
L 537.98745 142.4 
L 529.237909 142.4 
L 529.237909 130.244921 
L 517.964602 130.244921 
z
" style="fill:#ff0000;"/>
   </g>
   <g id="patch_34">
    <path clip-path="url(#p93c92efc16)" d="M 539.628362 119.04775 
L 527.600755 119.04775 
L 525.701659 127.3 
L 517.964602 127.3 
L 529.013887 82 
L 538.189653 82 
L 549.238938 127.3 
L 541.508275 127.3 
z
M 529.519034 110.640163 
L 537.690901 110.640163 
L 533.611361 92.621132 
z
" style="fill:#008000;"/>
   </g>
   <g id="patch_35">
    <path clip-path="url(#p93c92efc16)" d="M 549.238938 76.535179 
Q 546.08487 79.267589 542.692495 80.640033 
Q 539.300119 82 535.683455 82 
Q 527.510914 82 522.737758 73.865152 
Q 517.964602 65.730304 517.964602 51.818715 
Q 517.964602 37.744929 522.821866 29.672464 
Q 527.68614 21.6 536.146051 21.6 
Q 539.405255 21.6 542.391106 22.697955 
Q 545.383966 23.783433 548.033383 25.929436 
L 548.033383 37.96951 
Q 545.299858 35.212146 542.594368 33.852179 
Q 539.888879 32.479736 537.169371 32.479736 
Q 532.136881 32.479736 529.410364 37.495394 
Q 526.683847 42.498575 526.683847 51.818715 
Q 526.683847 61.051518 529.312237 66.09213 
Q 531.940627 71.120264 536.776865 71.120264 
Q 538.094565 71.120264 539.22302 70.833299 
Q 540.351475 70.533857 541.248633 69.910019 
L 541.248633 58.606073 
L 536.096988 58.606073 
L 536.096988 48.537327 
L 549.238938 48.537327 
z
" style="fill:#ffa600;"/>
   </g>
   <g id="patch_36">
    <path clip-path="url(#p93c92efc16)" d="M 582.159292 156.417641 
Q 579.543248 156.954142 576.714453 157.225511 
Q 573.885658 157.5 570.804714 157.5 
Q 561.617041 157.5 556.250998 155.466288 
Q 550.884956 153.432576 550.884956 149.954679 
Q 550.884956 146.464305 556.250998 144.433712 
Q 561.617041 142.4 570.804714 142.4 
Q 573.885658 142.4 576.714453 142.674489 
Q 579.543248 142.945858 582.159292 143.482359 
L 582.159292 146.492378 
Q 579.519609 145.781202 576.958722 145.450568 
Q 574.397835 145.119934 571.569041 145.119934 
Q 566.494545 145.119934 563.586954 146.408159 
Q 560.687242 147.693266 560.687242 149.954679 
Q 560.687242 152.206734 563.586954 153.49496 
Q 566.494545 154.780066 571.569041 154.780066 
Q 574.397835 154.780066 576.958722 154.449432 
Q 579.519609 154.115679 582.159292 153.404503 
z
" style="fill:#0000ff;"/>
   </g>
   <g id="patch_37">
    <path clip-path="url(#p93c92efc16)" d="M 572.548716 136.8985 
L 560.521109 136.8985 
L 558.622013 142.4 
L 550.884956 142.4 
L 561.934241 112.2 
L 571.110007 112.2 
L 582.159292 142.4 
L 574.428629 142.4 
z
M 562.439387 131.293442 
L 570.611255 131.293442 
L 566.531715 119.280754 
z
" style="fill:#008000;"/>
   </g>
   <g id="patch_38">
    <path clip-path="url(#p93c92efc16)" d="M 550.884956 82 
L 582.159292 82 
L 582.159292 87.889841 
L 570.907804 87.889841 
L 570.907804 112.2 
L 562.158263 112.2 
L 562.158263 87.889841 
L 550.884956 87.889841 
z
" style="fill:#ff0000;"/>
   </g>
   <g id="patch_39">
    <path clip-path="url(#p93c92efc16)" d="M 582.159292 76.535179 
Q 579.005224 79.267589 575.612849 80.640033 
Q 572.220473 82 568.603809 82 
Q 560.431268 82 555.658112 73.865152 
Q 550.884956 65.730304 550.884956 51.818715 
Q 550.884956 37.744929 555.74222 29.672464 
Q 560.606494 21.6 569.066405 21.6 
Q 572.325609 21.6 575.31146 22.697955 
Q 578.30432 23.783433 580.953737 25.929436 
L 580.953737 37.96951 
Q 578.220212 35.212146 575.514722 33.852179 
Q 572.809233 32.479736 570.089725 32.479736 
Q 565.057235 32.479736 562.330718 37.495394 
Q 559.604201 42.498575 559.604201 51.818715 
Q 559.604201 61.051518 562.232591 66.09213 
Q 564.860981 71.120264 569.697219 71.120264 
Q 571.014919 71.120264 572.143374 70.833299 
Q 573.271829 70.533857 574.168986 69.910019 
L 574.168986 58.606073 
L 569.017342 58.606073 
L 569.017342 48.537327 
L 582.159292 48.537327 
z
" style="fill:#ffa600;"/>
   </g>
   <g id="patch_40">
    <path clip-path="url(#p93c92efc16)" d="M 615.079646 156.417641 
Q 612.463602 156.954142 609.634807 157.225511 
Q 606.806012 157.5 603.725068 157.5 
Q 594.537395 157.5 589.171352 155.466288 
Q 583.80531 153.432576 583.80531 149.954679 
Q 583.80531 146.464305 589.171352 144.433712 
Q 594.537395 142.4 603.725068 142.4 
Q 606.806012 142.4 609.634807 142.674489 
Q 612.463602 142.945858 615.079646 143.482359 
L 615.079646 146.492378 
Q 612.439963 145.781202 609.879076 145.450568 
Q 607.318189 145.119934 604.489395 145.119934 
Q 599.414899 145.119934 596.507308 146.408159 
Q 593.607596 147.693266 593.607596 149.954679 
Q 593.607596 152.206734 596.507308 153.49496 
Q 599.414899 154.780066 604.489395 154.780066 
Q 607.318189 154.780066 609.879076 154.449432 
Q 612.439963 154.115679 615.079646 153.404503 
z
" style="fill:#0000ff;"/>
   </g>
   <g id="patch_41">
    <path clip-path="url(#p93c92efc16)" d="M 583.80531 112.2 
L 615.079646 112.2 
L 615.079646 118.089841 
L 603.828158 118.089841 
L 603.828158 142.4 
L 595.078617 142.4 
L 595.078617 118.089841 
L 583.80531 118.089841 
z
" style="fill:#ff0000;"/>
   </g>
   <g id="patch_42">
    <path clip-path="url(#p93c92efc16)" d="M 605.46907 103.94775 
L 593.441463 103.94775 
L 591.542367 112.2 
L 583.80531 112.2 
L 594.854595 66.9 
L 604.030361 66.9 
L 615.079646 112.2 
L 607.348983 112.2 
z
M 595.359741 95.540163 
L 603.531609 95.540163 
L 599.452069 77.521132 
z
" style="fill:#008000;"/>
   </g>
   <g id="patch_43">
    <path clip-path="url(#p93c92efc16)" d="M 615.079646 62.801384 
Q 611.925578 64.850692 608.533203 65.880025 
Q 605.140827 66.9 601.524163 66.9 
Q 593.351622 66.9 588.578466 60.798864 
Q 583.80531 54.697728 583.80531 44.264036 
Q 583.80531 33.708697 588.662574 27.654348 
Q 593.526848 21.6 601.986759 21.6 
Q 605.245963 21.6 608.231814 22.423466 
Q 611.224674 23.237575 613.874091 24.847077 
L 613.874091 33.877133 
Q 611.140566 31.80911 608.435076 30.789134 
Q 605.729587 29.759802 603.010079 29.759802 
Q 597.977589 29.759802 595.251072 33.521545 
Q 592.524555 37.273931 592.524555 44.264036 
Q 592.524555 51.188639 595.152945 54.969097 
Q 597.781335 58.740198 602.617573 58.740198 
Q 603.935272 58.740198 605.063728 58.524974 
Q 606.192183 58.300392 607.08934 57.832514 
L 607.08934 49.354555 
L 601.937696 49.354555 
L 601.937696 41.802995 
L 615.079646 41.802995 
z
" style="fill:#ffa600;"/>
   </g>
   <g id="patch_44">
    <path clip-path="url(#p93c92efc16)" d="M 638.389424 151.9985 
L 626.361817 151.9985 
L 624.462721 157.5 
L 616.725664 157.5 
L 627.774949 127.3 
L 636.950715 127.3 
L 648 157.5 
L 640.269337 157.5 
z
M 628.280095 146.393442 
L 636.451963 146.393442 
L 632.372423 134.380754 
z
" style="fill:#008000;"/>
   </g>
   <g id="patch_45">
    <path clip-path="url(#p93c92efc16)" d="M 648 125.135282 
Q 645.383956 126.208283 642.555161 126.751023 
Q 639.726366 127.3 636.645422 127.3 
Q 627.457749 127.3 622.091706 123.232576 
Q 616.725664 119.165152 616.725664 112.209358 
Q 616.725664 105.22861 622.091706 101.167424 
Q 627.457749 97.1 636.645422 97.1 
Q 639.726366 97.1 642.555161 97.648977 
Q 645.383956 98.191717 648 99.264718 
L 648 105.284755 
Q 645.360317 103.862404 642.79943 103.201136 
Q 640.238543 102.539868 637.409749 102.539868 
Q 632.335253 102.539868 629.427662 105.116319 
Q 626.52795 107.686532 626.52795 112.209358 
Q 626.52795 116.713468 629.427662 119.289919 
Q 632.335253 121.860132 637.409749 121.860132 
Q 640.238543 121.860132 642.79943 121.198864 
Q 645.360317 120.531357 648 119.109006 
z
" style="fill:#0000ff;"/>
   </g>
   <g id="patch_46">
    <path clip-path="url(#p93c92efc16)" d="M 616.725664 66.9 
L 648 66.9 
L 648 72.789841 
L 636.748512 72.789841 
L 636.748512 97.1 
L 627.998971 97.1 
L 627.998971 72.789841 
L 616.725664 72.789841 
z
" style="fill:#ff0000;"/>
   </g>
   <g id="patch_47">
    <path clip-path="url(#p93c92efc16)" d="M 648 62.801384 
Q 644.845932 64.850692 641.453557 65.880025 
Q 638.061181 66.9 634.444517 66.9 
Q 626.271976 66.9 621.49882 60.798864 
Q 616.725664 54.697728 616.725664 44.264036 
Q 616.725664 33.708697 621.582928 27.654348 
Q 626.447202 21.6 634.907113 21.6 
Q 638.166317 21.6 641.152168 22.423466 
Q 644.145028 23.237575 646.794445 24.847077 
L 646.794445 33.877133 
Q 644.06092 31.80911 641.35543 30.789134 
Q 638.649941 29.759802 635.930433 29.759802 
Q 630.897943 29.759802 628.171426 33.521545 
Q 625.444909 37.273931 625.444909 44.264036 
Q 625.444909 51.188639 628.073299 54.969097 
Q 630.701689 58.740198 635.537927 58.740198 
Q 636.855626 58.740198 637.984082 58.524974 
Q 639.112537 58.300392 640.009694 57.832514 
L 640.009694 49.354555 
L 634.85805 49.354555 
L 634.85805 41.802995 
L 648 41.802995 
z
" style="fill:#ffa600;"/>
   </g>
  </g>
 </g>
 <defs>
  <clipPath id="p93c92efc16">
   <rect height="135.9" width="558" x="90" y="21.6"/>
  </clipPath>
 </defs>
</svg>
