<?xml version="1.0" encoding="utf-8" standalone="no"?>
<!DOCTYPE svg PUBLIC "-//W3C//DTD SVG 1.1//EN"
  "http://www.w3.org/Graphics/SVG/1.1/DTD/svg11.dtd">
<!-- Created with matplotlib (https://matplotlib.org/) -->
<svg height="180pt" version="1.1" viewBox="0 0 720 180" width="720pt" xmlns="http://www.w3.org/2000/svg" xmlns:xlink="http://www.w3.org/1999/xlink">
 <metadata>
  <rdf:RDF xmlns:cc="http://creativecommons.org/ns#" xmlns:dc="http://purl.org/dc/elements/1.1/" xmlns:rdf="http://www.w3.org/1999/02/22-rdf-syntax-ns#">
   <cc:Work>
    <dc:type rdf:resource="http://purl.org/dc/dcmitype/StillImage"/>
    <dc:date>2021-08-04T23:33:52.030405</dc:date>
    <dc:format>image/svg+xml</dc:format>
    <dc:creator>
     <cc:Agent>
      <dc:title>Matplotlib v3.3.2, https://matplotlib.org/</dc:title>
     </cc:Agent>
    </dc:creator>
   </cc:Work>
  </rdf:RDF>
 </metadata>
 <defs>
  <style type="text/css">*{stroke-linecap:butt;stroke-linejoin:round;}</style>
 </defs>
 <g id="figure_1">
  <g id="patch_1">
   <path d="M 0 180 
L 720 180 
L 720 0 
L 0 0 
z
" style="fill:none;"/>
  </g>
  <g id="axes_1">
   <g id="line2d_1">
    <path clip-path="url(#p05a239db40)" d="M 90 157.5 
L 648 157.5 
" style="fill:none;stroke:#000000;stroke-linecap:square;stroke-width:0.5;"/>
   </g>
   <g id="patch_2">
    <path clip-path="url(#p05a239db40)" d="M 111.66376 154.74925 
L 99.636153 154.74925 
L 97.737057 157.5 
L 90 157.5 
L 101.049285 142.4 
L 110.225051 142.4 
L 121.274336 157.5 
L 113.543673 157.5 
z
M 101.554432 151.946721 
L 109.726299 151.946721 
L 105.64676 145.940377 
z
" style="fill:#008000;"/>
   </g>
   <g id="patch_3">
    <path clip-path="url(#p05a239db40)" d="M 90 127.3 
L 121.274336 127.3 
L 121.274336 130.244921 
L 110.022848 130.244921 
L 110.022848 142.4 
L 101.273307 142.4 
L 101.273307 130.244921 
L 90 130.244921 
z
" style="fill:#ff0000;"/>
   </g>
   <g id="patch_4">
    <path clip-path="url(#p05a239db40)" d="M 121.274336 124.052923 
Q 118.658292 125.662425 115.829497 126.476534 
Q 113.000702 127.3 109.919759 127.3 
Q 100.732085 127.3 95.366043 121.198864 
Q 90 115.097728 90 104.664036 
Q 90 94.192915 95.366043 88.101136 
Q 100.732085 82 109.919759 82 
Q 113.000702 82 115.829497 82.823466 
Q 118.658292 83.637575 121.274336 85.247077 
L 121.274336 94.277133 
Q 118.634653 92.143607 116.073766 91.151704 
Q 113.51288 90.159802 110.684085 90.159802 
Q 105.609589 90.159802 102.701998 94.024478 
Q 99.802286 97.879798 99.802286 104.664036 
Q 99.802286 111.420202 102.701998 115.284879 
Q 105.609589 119.140198 110.684085 119.140198 
Q 113.51288 119.140198 116.073766 118.148296 
Q 118.634653 117.147036 121.274336 115.01351 
z
" style="fill:#0000ff;"/>
   </g>
   <g id="patch_5">
    <path clip-path="url(#p05a239db40)" d="M 121.274336 76.535179 
Q 118.120268 79.267589 114.727893 80.640033 
Q 111.335518 82 107.718853 82 
Q 99.546312 82 94.773156 73.865152 
Q 90 65.730304 90 51.818715 
Q 90 37.744929 94.857265 29.672464 
Q 99.721538 21.6 108.18145 21.6 
Q 111.440653 21.6 114.426504 22.697955 
Q 117.419364 23.783433 120.068781 25.929436 
L 120.068781 37.96951 
Q 117.335256 35.212146 114.629766 33.852179 
Q 111.924277 32.479736 109.204769 32.479736 
Q 104.172279 32.479736 101.445762 37.495394 
Q 98.719246 42.498575 98.719246 51.818715 
Q 98.719246 61.051518 101.347636 66.09213 
Q 103.976026 71.120264 108.812263 71.120264 
Q 110.129963 71.120264 111.258418 70.833299 
Q 112.386874 70.533857 113.284031 69.910019 
L 113.284031 58.606073 
L 108.132386 58.606073 
L 108.132386 48.537327 
L 121.274336 48.537327 
z
" style="fill:#ffa600;"/>
   </g>
   <g id="patch_6">
    <path clip-path="url(#p05a239db40)" d="M 154.19469 156.417641 
Q 151.578646 156.954142 148.749851 157.225511 
Q 145.921056 157.5 142.840113 157.5 
Q 133.652439 157.5 128.286397 155.466288 
Q 122.920354 153.432576 122.920354 149.954679 
Q 122.920354 146.464305 128.286397 144.433712 
Q 133.652439 142.4 142.840113 142.4 
Q 145.921056 142.4 148.749851 142.674489 
Q 151.578646 142.945858 154.19469 143.482359 
L 154.19469 146.492378 
Q 151.555007 145.781202 148.99412 145.450568 
Q 146.433234 145.119934 143.604439 145.119934 
Q 138.529943 145.119934 135.622352 146.408159 
Q 132.72264 147.693266 132.72264 149.954679 
Q 132.72264 152.206734 135.622352 153.49496 
Q 138.529943 154.780066 143.604439 154.780066 
Q 146.433234 154.780066 148.99412 154.449432 
Q 151.555007 154.115679 154.19469 153.404503 
z
" style="fill:#0000ff;"/>
   </g>
   <g id="patch_7">
    <path clip-path="url(#p05a239db40)" d="M 154.19469 138.301384 
Q 151.040622 140.350692 147.648247 141.380025 
Q 144.255872 142.4 140.639207 142.4 
Q 132.466666 142.4 127.69351 136.298864 
Q 122.920354 130.197728 122.920354 119.764036 
Q 122.920354 109.208697 127.777619 103.154348 
Q 132.641892 97.1 141.101804 97.1 
Q 144.361007 97.1 147.346858 97.923466 
Q 150.339718 98.737575 152.989135 100.347077 
L 152.989135 109.377133 
Q 150.25561 107.30911 147.55012 106.289134 
Q 144.844631 105.259802 142.125123 105.259802 
Q 137.092633 105.259802 134.366116 109.021545 
Q 131.6396 112.773931 131.6396 119.764036 
Q 131.6396 126.688639 134.26799 130.469097 
Q 136.89638 134.240198 141.732617 134.240198 
Q 143.050317 134.240198 144.178772 134.024974 
Q 145.307228 133.800392 146.204385 133.332514 
L 146.204385 124.854555 
L 141.05274 124.854555 
L 141.05274 117.302995 
L 154.19469 117.302995 
z
" style="fill:#ffa600;"/>
   </g>
   <g id="patch_8">
    <path clip-path="url(#p05a239db40)" d="M 144.584114 83.346249 
L 132.556507 83.346249 
L 130.657411 97.1 
L 122.920354 97.1 
L 133.969639 21.6 
L 143.145405 21.6 
L 154.19469 97.1 
L 146.464027 97.1 
z
M 134.474786 69.333605 
L 142.646653 69.333605 
L 138.567114 39.301886 
z
" style="fill:#008000;"/>
   </g>
   <g id="patch_9">
    <path clip-path="url(#p05a239db40)" d="M 187.115044 154.767589 
Q 183.960976 156.133795 180.568601 156.820017 
Q 177.176226 157.5 173.559561 157.5 
Q 165.38702 157.5 160.613864 153.432576 
Q 155.840708 149.365152 155.840708 142.409358 
Q 155.840708 135.372464 160.697973 131.336232 
Q 165.562246 127.3 174.022158 127.3 
Q 177.281361 127.3 180.267212 127.848977 
Q 183.260072 128.391717 185.909489 129.464718 
L 185.909489 135.484755 
Q 183.175964 134.106073 180.470474 133.42609 
Q 177.764985 132.739868 175.045477 132.739868 
Q 170.012987 132.739868 167.28647 135.247697 
Q 164.559954 137.749287 164.559954 142.409358 
Q 164.559954 147.025759 167.188344 149.546065 
Q 169.816734 152.060132 174.652971 152.060132 
Q 175.970671 152.060132 177.099126 151.916649 
Q 178.227582 151.766928 179.124739 151.455009 
L 179.124739 145.803037 
L 173.973094 145.803037 
L 173.973094 140.768663 
L 187.115044 140.768663 
z
" style="fill:#ffa600;"/>
   </g>
   <g id="patch_10">
    <path clip-path="url(#p05a239db40)" d="M 155.840708 97.1 
L 187.115044 97.1 
L 187.115044 102.989841 
L 175.863556 102.989841 
L 175.863556 127.3 
L 167.114015 127.3 
L 167.114015 102.989841 
L 155.840708 102.989841 
z
" style="fill:#ff0000;"/>
   </g>
   <g id="patch_11">
    <path clip-path="url(#p05a239db40)" d="M 177.504468 83.346249 
L 165.476861 83.346249 
L 163.577765 97.1 
L 155.840708 97.1 
L 166.889993 21.6 
L 176.065759 21.6 
L 187.115044 97.1 
L 179.384381 97.1 
z
M 167.39514 69.333605 
L 175.567007 69.333605 
L 171.487467 39.301886 
z
" style="fill:#008000;"/>
   </g>
   <g id="patch_12">
    <path clip-path="url(#p05a239db40)" d="M 210.424822 154.74925 
L 198.397215 154.74925 
L 196.498119 157.5 
L 188.761062 157.5 
L 199.810347 142.4 
L 208.986113 142.4 
L 220.035398 157.5 
L 212.304735 157.5 
z
M 200.315494 151.946721 
L 208.487361 151.946721 
L 204.407821 145.940377 
z
" style="fill:#008000;"/>
   </g>
   <g id="patch_13">
    <path clip-path="url(#p05a239db40)" d="M 220.035398 139.667589 
Q 216.88133 141.033795 213.488955 141.720017 
Q 210.09658 142.4 206.479915 142.4 
Q 198.307374 142.4 193.534218 138.332576 
Q 188.761062 134.265152 188.761062 127.309358 
Q 188.761062 120.272464 193.618327 116.236232 
Q 198.4826 112.2 206.942512 112.2 
Q 210.201715 112.2 213.187566 112.748977 
Q 216.180426 113.291717 218.829843 114.364718 
L 218.829843 120.384755 
Q 216.096318 119.006073 213.390828 118.32609 
Q 210.685339 117.639868 207.965831 117.639868 
Q 202.933341 117.639868 200.206824 120.147697 
Q 197.480308 122.649287 197.480308 127.309358 
Q 197.480308 131.925759 200.108698 134.446065 
Q 202.737088 136.960132 207.573325 136.960132 
Q 208.891025 136.960132 210.01948 136.816649 
Q 211.147936 136.666928 212.045093 136.355009 
L 212.045093 130.703037 
L 206.893448 130.703037 
L 206.893448 125.668663 
L 220.035398 125.668663 
z
" style="fill:#ffa600;"/>
   </g>
   <g id="patch_14">
    <path clip-path="url(#p05a239db40)" d="M 188.761062 82 
L 220.035398 82 
L 220.035398 87.889841 
L 208.78391 87.889841 
L 208.78391 112.2 
L 200.034369 112.2 
L 200.034369 87.889841 
L 188.761062 87.889841 
z
" style="fill:#ff0000;"/>
   </g>
   <g id="patch_15">
    <path clip-path="url(#p05a239db40)" d="M 220.035398 77.670564 
Q 217.419354 79.816567 214.590559 80.902045 
Q 211.761764 82 208.680821 82 
Q 199.493147 82 194.127105 73.865152 
Q 188.761062 65.730304 188.761062 51.818715 
Q 188.761062 37.85722 194.127105 29.734848 
Q 199.493147 21.6 208.680821 21.6 
Q 211.761764 21.6 214.590559 22.697955 
Q 217.419354 23.783433 220.035398 25.929436 
L 220.035398 37.96951 
Q 217.395715 35.124809 214.834828 33.802272 
Q 212.273942 32.479736 209.445147 32.479736 
Q 204.370651 32.479736 201.46306 37.632638 
Q 198.563348 42.773063 198.563348 51.818715 
Q 198.563348 60.826937 201.46306 65.979839 
Q 204.370651 71.120264 209.445147 71.120264 
Q 212.273942 71.120264 214.834828 69.797728 
Q 217.395715 68.462714 220.035398 65.618013 
z
" style="fill:#0000ff;"/>
   </g>
   <g id="patch_16">
    <path clip-path="url(#p05a239db40)" d="M 252.955752 156.133795 
Q 249.801684 156.816897 246.409309 157.160008 
Q 243.016934 157.5 239.400269 157.5 
Q 231.227728 157.5 226.454572 155.466288 
Q 221.681416 153.432576 221.681416 149.954679 
Q 221.681416 146.436232 226.538681 144.418116 
Q 231.402954 142.4 239.862866 142.4 
Q 243.122069 142.4 246.10792 142.674489 
Q 249.10078 142.945858 251.750197 143.482359 
L 251.750197 146.492378 
Q 249.016672 145.803037 246.311182 145.463045 
Q 243.605693 145.119934 240.886185 145.119934 
Q 235.853695 145.119934 233.127178 146.373848 
Q 230.400662 147.624644 230.400662 149.954679 
Q 230.400662 152.26288 233.029052 153.523032 
Q 235.657442 154.780066 240.493679 154.780066 
Q 241.811379 154.780066 242.939834 154.708325 
Q 244.06829 154.633464 244.965447 154.477505 
L 244.965447 151.651518 
L 239.813802 151.651518 
L 239.813802 149.134332 
L 252.955752 149.134332 
z
" style="fill:#ffa600;"/>
   </g>
   <g id="patch_17">
    <path clip-path="url(#p05a239db40)" d="M 252.955752 139.152923 
Q 250.339708 140.762425 247.510913 141.576534 
Q 244.682118 142.4 241.601175 142.4 
Q 232.413501 142.4 227.047459 136.298864 
Q 221.681416 130.197728 221.681416 119.764036 
Q 221.681416 109.292915 227.047459 103.201136 
Q 232.413501 97.1 241.601175 97.1 
Q 244.682118 97.1 247.510913 97.923466 
Q 250.339708 98.737575 252.955752 100.347077 
L 252.955752 109.377133 
Q 250.316069 107.243607 247.755182 106.251704 
Q 245.194296 105.259802 242.365501 105.259802 
Q 237.291005 105.259802 234.383414 109.124478 
Q 231.483702 112.979798 231.483702 119.764036 
Q 231.483702 126.520202 234.383414 130.384879 
Q 237.291005 134.240198 242.365501 134.240198 
Q 245.194296 134.240198 247.755182 133.248296 
Q 250.316069 132.247036 252.955752 130.11351 
z
" style="fill:#0000ff;"/>
   </g>
   <g id="patch_18">
    <path clip-path="url(#p05a239db40)" d="M 243.345176 83.346249 
L 231.317569 83.346249 
L 229.418473 97.1 
L 221.681416 97.1 
L 232.730701 21.6 
L 241.906467 21.6 
L 252.955752 97.1 
L 245.225089 97.1 
z
M 233.235848 69.333605 
L 241.407715 69.333605 
L 237.328175 39.301886 
z
" style="fill:#008000;"/>
   </g>
   <g id="patch_19">
    <path clip-path="url(#p05a239db40)" d="M 285.876106 156.417641 
Q 283.260062 156.954142 280.431267 157.225511 
Q 277.602472 157.5 274.521529 157.5 
Q 265.333855 157.5 259.967812 155.466288 
Q 254.60177 153.432576 254.60177 149.954679 
Q 254.60177 146.464305 259.967812 144.433712 
Q 265.333855 142.4 274.521529 142.4 
Q 277.602472 142.4 280.431267 142.674489 
Q 283.260062 142.945858 285.876106 143.482359 
L 285.876106 146.492378 
Q 283.236423 145.781202 280.675536 145.450568 
Q 278.11465 145.119934 275.285855 145.119934 
Q 270.211359 145.119934 267.303768 146.408159 
Q 264.404056 147.693266 264.404056 149.954679 
Q 264.404056 152.206734 267.303768 153.49496 
Q 270.211359 154.780066 275.285855 154.780066 
Q 278.11465 154.780066 280.675536 154.449432 
Q 283.236423 154.115679 285.876106 153.404503 
z
" style="fill:#0000ff;"/>
   </g>
   <g id="patch_20">
    <path clip-path="url(#p05a239db40)" d="M 285.876106 138.301384 
Q 282.722038 140.350692 279.329663 141.380025 
Q 275.937288 142.4 272.320623 142.4 
Q 264.148082 142.4 259.374926 136.298864 
Q 254.60177 130.197728 254.60177 119.764036 
Q 254.60177 109.208697 259.459035 103.154348 
Q 264.323308 97.1 272.78322 97.1 
Q 276.042423 97.1 279.028274 97.923466 
Q 282.021134 98.737575 284.670551 100.347077 
L 284.670551 109.377133 
Q 281.937026 107.30911 279.231536 106.289134 
Q 276.526047 105.259802 273.806539 105.259802 
Q 268.774049 105.259802 266.047532 109.021545 
Q 263.321016 112.773931 263.321016 119.764036 
Q 263.321016 126.688639 265.949406 130.469097 
Q 268.577796 134.240198 273.414033 134.240198 
Q 274.731733 134.240198 275.860188 134.024974 
Q 276.988644 133.800392 277.885801 133.332514 
L 277.885801 124.854555 
L 272.734156 124.854555 
L 272.734156 117.302995 
L 285.876106 117.302995 
z
" style="fill:#ffa600;"/>
   </g>
   <g id="patch_21">
    <path clip-path="url(#p05a239db40)" d="M 276.26553 83.346249 
L 264.237923 83.346249 
L 262.338827 97.1 
L 254.60177 97.1 
L 265.651055 21.6 
L 274.826821 21.6 
L 285.876106 97.1 
L 278.145443 97.1 
z
M 266.156202 69.333605 
L 274.328069 69.333605 
L 270.248529 39.301886 
z
" style="fill:#008000;"/>
   </g>
   <g id="patch_22">
    <path clip-path="url(#p05a239db40)" d="M 318.79646 156.417641 
Q 316.180416 156.954142 313.351621 157.225511 
Q 310.522826 157.5 307.441883 157.5 
Q 298.254209 157.5 292.888166 155.466288 
Q 287.522124 153.432576 287.522124 149.954679 
Q 287.522124 146.464305 292.888166 144.433712 
Q 298.254209 142.4 307.441883 142.4 
Q 310.522826 142.4 313.351621 142.674489 
Q 316.180416 142.945858 318.79646 143.482359 
L 318.79646 146.492378 
Q 316.156777 145.781202 313.59589 145.450568 
Q 311.035004 145.119934 308.206209 145.119934 
Q 303.131713 145.119934 300.224122 146.408159 
Q 297.32441 147.693266 297.32441 149.954679 
Q 297.32441 152.206734 300.224122 153.49496 
Q 303.131713 154.780066 308.206209 154.780066 
Q 311.035004 154.780066 313.59589 154.449432 
Q 316.156777 154.115679 318.79646 153.404503 
z
" style="fill:#0000ff;"/>
   </g>
   <g id="patch_23">
    <path clip-path="url(#p05a239db40)" d="M 309.185884 120.393999 
L 297.158277 120.393999 
L 295.259181 142.4 
L 287.522124 142.4 
L 298.571409 21.6 
L 307.747175 21.6 
L 318.79646 142.4 
L 311.065797 142.4 
z
M 299.076556 97.973768 
L 307.248423 97.973768 
L 303.168883 49.923018 
z
" style="fill:#008000;"/>
   </g>
   <g id="patch_24">
    <path clip-path="url(#p05a239db40)" d="M 351.716814 156.133795 
Q 348.562746 156.816897 345.170371 157.160008 
Q 341.777996 157.5 338.161331 157.5 
Q 329.98879 157.5 325.215634 155.466288 
Q 320.442478 153.432576 320.442478 149.954679 
Q 320.442478 146.436232 325.299743 144.418116 
Q 330.164016 142.4 338.623928 142.4 
Q 341.883131 142.4 344.868982 142.674489 
Q 347.861842 142.945858 350.511259 143.482359 
L 350.511259 146.492378 
Q 347.777734 145.803037 345.072244 145.463045 
Q 342.366755 145.119934 339.647247 145.119934 
Q 334.614757 145.119934 331.88824 146.373848 
Q 329.161724 147.624644 329.161724 149.954679 
Q 329.161724 152.26288 331.790114 153.523032 
Q 334.418504 154.780066 339.254741 154.780066 
Q 340.572441 154.780066 341.700896 154.708325 
Q 342.829351 154.633464 343.726509 154.477505 
L 343.726509 151.651518 
L 338.574864 151.651518 
L 338.574864 149.134332 
L 351.716814 149.134332 
z
" style="fill:#ffa600;"/>
   </g>
   <g id="patch_25">
    <path clip-path="url(#p05a239db40)" d="M 320.442478 127.3 
L 351.716814 127.3 
L 351.716814 130.244921 
L 340.465326 130.244921 
L 340.465326 142.4 
L 331.715785 142.4 
L 331.715785 130.244921 
L 320.442478 130.244921 
z
" style="fill:#ff0000;"/>
   </g>
   <g id="patch_26">
    <path clip-path="url(#p05a239db40)" d="M 342.106238 108.044749 
L 330.078631 108.044749 
L 328.179535 127.3 
L 320.442478 127.3 
L 331.491763 21.6 
L 340.667529 21.6 
L 351.716814 127.3 
L 343.986151 127.3 
z
M 331.99691 88.427047 
L 340.168777 88.427047 
L 336.089237 46.38264 
z
" style="fill:#008000;"/>
   </g>
   <g id="patch_27">
    <path clip-path="url(#p05a239db40)" d="M 353.362832 127.3 
L 384.637168 127.3 
L 384.637168 133.189841 
L 373.38568 133.189841 
L 373.38568 157.5 
L 364.636139 157.5 
L 364.636139 133.189841 
L 353.362832 133.189841 
z
" style="fill:#ff0000;"/>
   </g>
   <g id="patch_28">
    <path clip-path="url(#p05a239db40)" d="M 384.637168 123.201384 
Q 381.4831 125.250692 378.090725 126.280025 
Q 374.698349 127.3 371.081685 127.3 
Q 362.909144 127.3 358.135988 121.198864 
Q 353.362832 115.097728 353.362832 104.664036 
Q 353.362832 94.108697 358.220097 88.054348 
Q 363.08437 82 371.544282 82 
Q 374.803485 82 377.789336 82.823466 
Q 380.782196 83.637575 383.431613 85.247077 
L 383.431613 94.277133 
Q 380.698088 92.20911 377.992598 91.189134 
Q 375.287109 90.159802 372.567601 90.159802 
Q 367.535111 90.159802 364.808594 93.921545 
Q 362.082078 97.673931 362.082078 104.664036 
Q 362.082078 111.588639 364.710468 115.369097 
Q 367.338858 119.140198 372.175095 119.140198 
Q 373.492795 119.140198 374.62125 118.924974 
Q 375.749705 118.700392 376.646863 118.232514 
L 376.646863 109.754555 
L 371.495218 109.754555 
L 371.495218 102.202995 
L 384.637168 102.202995 
z
" style="fill:#ffa600;"/>
   </g>
   <g id="patch_29">
    <path clip-path="url(#p05a239db40)" d="M 375.026592 70.997 
L 362.998985 70.997 
L 361.099889 82 
L 353.362832 82 
L 364.412117 21.6 
L 373.587883 21.6 
L 384.637168 82 
L 376.906505 82 
z
M 364.917264 59.786884 
L 373.089131 59.786884 
L 369.009591 35.761509 
z
" style="fill:#008000;"/>
   </g>
   <g id="patch_30">
    <path clip-path="url(#p05a239db40)" d="M 417.557522 154.767589 
Q 414.403454 156.133795 411.011079 156.820017 
Q 407.618703 157.5 404.002039 157.5 
Q 395.829498 157.5 391.056342 153.432576 
Q 386.283186 149.365152 386.283186 142.409358 
Q 386.283186 135.372464 391.140451 131.336232 
Q 396.004724 127.3 404.464635 127.3 
Q 407.723839 127.3 410.70969 127.848977 
Q 413.70255 128.391717 416.351967 129.464718 
L 416.351967 135.484755 
Q 413.618442 134.106073 410.912952 133.42609 
Q 408.207463 132.739868 405.487955 132.739868 
Q 400.455465 132.739868 397.728948 135.247697 
Q 395.002432 137.749287 395.002432 142.409358 
Q 395.002432 147.025759 397.630822 149.546065 
Q 400.259212 152.060132 405.095449 152.060132 
Q 406.413149 152.060132 407.541604 151.916649 
Q 408.670059 151.766928 409.567217 151.455009 
L 409.567217 145.803037 
L 404.415572 145.803037 
L 404.415572 140.768663 
L 417.557522 140.768663 
z
" style="fill:#ffa600;"/>
   </g>
   <g id="patch_31">
    <path clip-path="url(#p05a239db40)" d="M 407.946946 108.044749 
L 395.919339 108.044749 
L 394.020243 127.3 
L 386.283186 127.3 
L 397.332471 21.6 
L 406.508237 21.6 
L 417.557522 127.3 
L 409.826859 127.3 
z
M 397.837618 88.427047 
L 406.009485 88.427047 
L 401.929945 46.38264 
z
" style="fill:#008000;"/>
   </g>
   <g id="patch_32">
    <path clip-path="url(#p05a239db40)" d="M 450.477876 156.417641 
Q 447.861832 156.954142 445.033037 157.225511 
Q 442.204242 157.5 439.123298 157.5 
Q 429.935625 157.5 424.569582 155.466288 
Q 419.20354 153.432576 419.20354 149.954679 
Q 419.20354 146.464305 424.569582 144.433712 
Q 429.935625 142.4 439.123298 142.4 
Q 442.204242 142.4 445.033037 142.674489 
Q 447.861832 142.945858 450.477876 143.482359 
L 450.477876 146.492378 
Q 447.838193 145.781202 445.277306 145.450568 
Q 442.71642 145.119934 439.887625 145.119934 
Q 434.813129 145.119934 431.905538 146.408159 
Q 429.005826 147.693266 429.005826 149.954679 
Q 429.005826 152.206734 431.905538 153.49496 
Q 434.813129 154.780066 439.887625 154.780066 
Q 442.71642 154.780066 445.277306 154.449432 
Q 447.838193 154.115679 450.477876 153.404503 
z
" style="fill:#0000ff;"/>
   </g>
   <g id="patch_33">
    <path clip-path="url(#p05a239db40)" d="M 450.477876 141.033795 
Q 447.323808 141.716897 443.931433 142.060008 
Q 440.539057 142.4 436.922393 142.4 
Q 428.749852 142.4 423.976696 140.366288 
Q 419.20354 138.332576 419.20354 134.854679 
Q 419.20354 131.336232 424.060805 129.318116 
Q 428.925078 127.3 437.384989 127.3 
Q 440.644193 127.3 443.630044 127.574489 
Q 446.622904 127.845858 449.272321 128.382359 
L 449.272321 131.392378 
Q 446.538796 130.703037 443.833306 130.363045 
Q 441.127817 130.019934 438.408309 130.019934 
Q 433.375819 130.019934 430.649302 131.273848 
Q 427.922786 132.524644 427.922786 134.854679 
Q 427.922786 137.16288 430.551176 138.423032 
Q 433.179565 139.680066 438.015803 139.680066 
Q 439.333503 139.680066 440.461958 139.608325 
Q 441.590413 139.533464 442.487571 139.377505 
L 442.487571 136.551518 
L 437.335926 136.551518 
L 437.335926 134.034332 
L 450.477876 134.034332 
z
" style="fill:#ffa600;"/>
   </g>
   <g id="patch_34">
    <path clip-path="url(#p05a239db40)" d="M 419.20354 21.6 
L 450.477876 21.6 
L 450.477876 42.214445 
L 439.226388 42.214445 
L 439.226388 127.3 
L 430.476847 127.3 
L 430.476847 42.214445 
L 419.20354 42.214445 
z
" style="fill:#ff0000;"/>
   </g>
   <g id="patch_35">
    <path clip-path="url(#p05a239db40)" d="M 473.787654 154.74925 
L 461.760047 154.74925 
L 459.860951 157.5 
L 452.123894 157.5 
L 463.173179 142.4 
L 472.348945 142.4 
L 483.39823 157.5 
L 475.667567 157.5 
z
M 463.678326 151.946721 
L 471.850193 151.946721 
L 467.770653 145.940377 
z
" style="fill:#008000;"/>
   </g>
   <g id="patch_36">
    <path clip-path="url(#p05a239db40)" d="M 452.123894 127.3 
L 483.39823 127.3 
L 483.39823 130.244921 
L 472.146742 130.244921 
L 472.146742 142.4 
L 463.397201 142.4 
L 463.397201 130.244921 
L 452.123894 130.244921 
z
" style="fill:#ff0000;"/>
   </g>
   <g id="patch_37">
    <path clip-path="url(#p05a239db40)" d="M 483.39823 117.736563 
Q 480.244162 122.518281 476.851787 124.920058 
Q 473.459411 127.3 469.842747 127.3 
Q 461.670206 127.3 456.89705 113.064016 
Q 452.123894 98.828031 452.123894 74.482751 
Q 452.123894 49.853625 456.981158 35.726813 
Q 461.845432 21.6 470.305343 21.6 
Q 473.564547 21.6 476.550398 23.521421 
Q 479.543258 25.421008 482.192675 29.176513 
L 482.192675 50.246643 
Q 479.45915 45.421256 476.75366 43.041314 
Q 474.048171 40.639537 471.328663 40.639537 
Q 466.296173 40.639537 463.569656 49.416939 
Q 460.84314 58.172506 460.84314 74.482751 
Q 460.84314 90.640157 463.471529 99.461227 
Q 466.099919 108.260463 470.936157 108.260463 
Q 472.253857 108.260463 473.382312 107.758273 
Q 474.510767 107.234249 475.407925 106.142533 
L 475.407925 86.360628 
L 470.25628 86.360628 
L 470.25628 68.740322 
L 483.39823 68.740322 
z
" style="fill:#ffa600;"/>
   </g>
   <g id="patch_38">
    <path clip-path="url(#p05a239db40)" d="M 516.318584 154.767589 
Q 513.164516 156.133795 509.772141 156.820017 
Q 506.379765 157.5 502.763101 157.5 
Q 494.59056 157.5 489.817404 153.432576 
Q 485.044248 149.365152 485.044248 142.409358 
Q 485.044248 135.372464 489.901512 131.336232 
Q 494.765786 127.3 503.225697 127.3 
Q 506.484901 127.3 509.470752 127.848977 
Q 512.463612 128.391717 515.113029 129.464718 
L 515.113029 135.484755 
Q 512.379504 134.106073 509.674014 133.42609 
Q 506.968525 132.739868 504.249017 132.739868 
Q 499.216527 132.739868 496.49001 135.247697 
Q 493.763493 137.749287 493.763493 142.409358 
Q 493.763493 147.025759 496.391883 149.546065 
Q 499.020273 152.060132 503.856511 152.060132 
Q 505.174211 152.060132 506.302666 151.916649 
Q 507.431121 151.766928 508.328279 151.455009 
L 508.328279 145.803037 
L 503.176634 145.803037 
L 503.176634 140.768663 
L 516.318584 140.768663 
z
" style="fill:#ffa600;"/>
   </g>
   <g id="patch_39">
    <path clip-path="url(#p05a239db40)" d="M 506.708008 108.044749 
L 494.680401 108.044749 
L 492.781305 127.3 
L 485.044248 127.3 
L 496.093533 21.6 
L 505.269299 21.6 
L 516.318584 127.3 
L 508.587921 127.3 
z
M 496.59868 88.427047 
L 504.770547 88.427047 
L 500.691007 46.38264 
z
" style="fill:#008000;"/>
   </g>
   <g id="patch_40">
    <path clip-path="url(#p05a239db40)" d="M 549.238938 155.335282 
Q 546.622894 156.408283 543.794099 156.951023 
Q 540.965304 157.5 537.88436 157.5 
Q 528.696687 157.5 523.330644 153.432576 
Q 517.964602 149.365152 517.964602 142.409358 
Q 517.964602 135.42861 523.330644 131.367424 
Q 528.696687 127.3 537.88436 127.3 
Q 540.965304 127.3 543.794099 127.848977 
Q 546.622894 128.391717 549.238938 129.464718 
L 549.238938 135.484755 
Q 546.599255 134.062404 544.038368 133.401136 
Q 541.477481 132.739868 538.648687 132.739868 
Q 533.574191 132.739868 530.6666 135.316319 
Q 527.766888 137.886532 527.766888 142.409358 
Q 527.766888 146.913468 530.6666 149.489919 
Q 533.574191 152.060132 538.648687 152.060132 
Q 541.477481 152.060132 544.038368 151.398864 
Q 546.599255 150.731357 549.238938 149.309006 
z
" style="fill:#0000ff;"/>
   </g>
   <g id="patch_41">
    <path clip-path="url(#p05a239db40)" d="M 517.964602 21.6 
L 549.238938 21.6 
L 549.238938 42.214445 
L 537.98745 42.214445 
L 537.98745 127.3 
L 529.237909 127.3 
L 529.237909 42.214445 
L 517.964602 42.214445 
z
" style="fill:#ff0000;"/>
   </g>
   <g id="patch_42">
    <path clip-path="url(#p05a239db40)" d="M 550.884956 142.4 
L 582.159292 142.4 
L 582.159292 145.344921 
L 570.907804 145.344921 
L 570.907804 157.5 
L 562.158263 157.5 
L 562.158263 145.344921 
L 550.884956 145.344921 
z
" style="fill:#ff0000;"/>
   </g>
   <g id="patch_43">
    <path clip-path="url(#p05a239db40)" d="M 582.159292 131.470357 
Q 579.005224 136.935179 575.612849 139.680066 
Q 572.220473 142.4 568.603809 142.4 
Q 560.431268 142.4 555.658112 126.130304 
Q 550.884956 109.860607 550.884956 82.03743 
Q 550.884956 53.889857 555.74222 37.744929 
Q 560.606494 21.6 569.066405 21.6 
Q 572.325609 21.6 575.31146 23.79591 
Q 578.30432 25.966866 580.953737 30.258872 
L 580.953737 54.339021 
Q 578.220212 48.824293 575.514722 46.104359 
Q 572.809233 43.359471 570.089725 43.359471 
Q 565.057235 43.359471 562.330718 53.390787 
Q 559.604201 63.397149 559.604201 82.03743 
Q 559.604201 100.503037 562.232591 110.584259 
Q 564.860981 120.640529 569.697219 120.640529 
Q 571.014919 120.640529 572.143374 120.066598 
Q 573.271829 119.467713 574.168986 118.220037 
L 574.168986 95.612146 
L 569.017342 95.612146 
L 569.017342 75.474654 
L 582.159292 75.474654 
z
" style="fill:#ffa600;"/>
   </g>
   <g id="patch_44">
    <path clip-path="url(#p05a239db40)" d="M 615.079646 155.335282 
Q 612.463602 156.408283 609.634807 156.951023 
Q 606.806012 157.5 603.725068 157.5 
Q 594.537395 157.5 589.171352 153.432576 
Q 583.80531 149.365152 583.80531 142.409358 
Q 583.80531 135.42861 589.171352 131.367424 
Q 594.537395 127.3 603.725068 127.3 
Q 606.806012 127.3 609.634807 127.848977 
Q 612.463602 128.391717 615.079646 129.464718 
L 615.079646 135.484755 
Q 612.439963 134.062404 609.879076 133.401136 
Q 607.318189 132.739868 604.489395 132.739868 
Q 599.414899 132.739868 596.507308 135.316319 
Q 593.607596 137.886532 593.607596 142.409358 
Q 593.607596 146.913468 596.507308 149.489919 
Q 599.414899 152.060132 604.489395 152.060132 
Q 607.318189 152.060132 609.879076 151.398864 
Q 612.439963 150.731357 615.079646 149.309006 
z
" style="fill:#0000ff;"/>
   </g>
   <g id="patch_45">
    <path clip-path="url(#p05a239db40)" d="M 615.079646 123.201384 
Q 611.925578 125.250692 608.533203 126.280025 
Q 605.140827 127.3 601.524163 127.3 
Q 593.351622 127.3 588.578466 121.198864 
Q 583.80531 115.097728 583.80531 104.664036 
Q 583.80531 94.108697 588.662574 88.054348 
Q 593.526848 82 601.986759 82 
Q 605.245963 82 608.231814 82.823466 
Q 611.224674 83.637575 613.874091 85.247077 
L 613.874091 94.277133 
Q 611.140566 92.20911 608.435076 91.189134 
Q 605.729587 90.159802 603.010079 90.159802 
Q 597.977589 90.159802 595.251072 93.921545 
Q 592.524555 97.673931 592.524555 104.664036 
Q 592.524555 111.588639 595.152945 115.369097 
Q 597.781335 119.140198 602.617573 119.140198 
Q 603.935272 119.140198 605.063728 118.924974 
Q 606.192183 118.700392 607.08934 118.232514 
L 607.08934 109.754555 
L 601.937696 109.754555 
L 601.937696 102.202995 
L 615.079646 102.202995 
z
" style="fill:#ffa600;"/>
   </g>
   <g id="patch_46">
    <path clip-path="url(#p05a239db40)" d="M 583.80531 21.6 
L 615.079646 21.6 
L 615.079646 33.379683 
L 603.828158 33.379683 
L 603.828158 82 
L 595.078617 82 
L 595.078617 33.379683 
L 583.80531 33.379683 
z
" style="fill:#ff0000;"/>
   </g>
   <g id="patch_47">
    <path clip-path="url(#p05a239db40)" d="M 616.725664 127.3 
L 648 127.3 
L 648 133.189841 
L 636.748512 133.189841 
L 636.748512 157.5 
L 627.998971 157.5 
L 627.998971 133.189841 
L 616.725664 133.189841 
z
" style="fill:#ff0000;"/>
   </g>
   <g id="patch_48">
    <path clip-path="url(#p05a239db40)" d="M 648 123.201384 
Q 644.845932 125.250692 641.453557 126.280025 
Q 638.061181 127.3 634.444517 127.3 
Q 626.271976 127.3 621.49882 121.198864 
Q 616.725664 115.097728 616.725664 104.664036 
Q 616.725664 94.108697 621.582928 88.054348 
Q 626.447202 82 634.907113 82 
Q 638.166317 82 641.152168 82.823466 
Q 644.145028 83.637575 646.794445 85.247077 
L 646.794445 94.277133 
Q 644.06092 92.20911 641.35543 91.189134 
Q 638.649941 90.159802 635.930433 90.159802 
Q 630.897943 90.159802 628.171426 93.921545 
Q 625.444909 97.673931 625.444909 104.664036 
Q 625.444909 111.588639 628.073299 115.369097 
Q 630.701689 119.140198 635.537927 119.140198 
Q 636.855626 119.140198 637.984082 118.924974 
Q 639.112537 118.700392 640.009694 118.232514 
L 640.009694 109.754555 
L 634.85805 109.754555 
L 634.85805 102.202995 
L 648 102.202995 
z
" style="fill:#ffa600;"/>
   </g>
   <g id="patch_49">
    <path clip-path="url(#p05a239db40)" d="M 648 77.670564 
Q 645.383956 79.816567 642.555161 80.902045 
Q 639.726366 82 636.645422 82 
Q 627.457749 82 622.091706 73.865152 
Q 616.725664 65.730304 616.725664 51.818715 
Q 616.725664 37.85722 622.091706 29.734848 
Q 627.457749 21.6 636.645422 21.6 
Q 639.726366 21.6 642.555161 22.697955 
Q 645.383956 23.783433 648 25.929436 
L 648 37.96951 
Q 645.360317 35.124809 642.79943 33.802272 
Q 640.238543 32.479736 637.409749 32.479736 
Q 632.335253 32.479736 629.427662 37.632638 
Q 626.52795 42.773063 626.52795 51.818715 
Q 626.52795 60.826937 629.427662 65.979839 
Q 632.335253 71.120264 637.409749 71.120264 
Q 640.238543 71.120264 642.79943 69.797728 
Q 645.360317 68.462714 648 65.618013 
z
" style="fill:#0000ff;"/>
   </g>
  </g>
 </g>
 <defs>
  <clipPath id="p05a239db40">
   <rect height="135.9" width="558" x="90" y="21.6"/>
  </clipPath>
 </defs>
</svg>
