<?xml version="1.0" encoding="utf-8" standalone="no"?>
<!DOCTYPE svg PUBLIC "-//W3C//DTD SVG 1.1//EN"
  "http://www.w3.org/Graphics/SVG/1.1/DTD/svg11.dtd">
<!-- Created with matplotlib (https://matplotlib.org/) -->
<svg height="180pt" version="1.1" viewBox="0 0 720 180" width="720pt" xmlns="http://www.w3.org/2000/svg" xmlns:xlink="http://www.w3.org/1999/xlink">
 <metadata>
  <rdf:RDF xmlns:cc="http://creativecommons.org/ns#" xmlns:dc="http://purl.org/dc/elements/1.1/" xmlns:rdf="http://www.w3.org/1999/02/22-rdf-syntax-ns#">
   <cc:Work>
    <dc:type rdf:resource="http://purl.org/dc/dcmitype/StillImage"/>
    <dc:date>2021-08-04T23:33:29.284681</dc:date>
    <dc:format>image/svg+xml</dc:format>
    <dc:creator>
     <cc:Agent>
      <dc:title>Matplotlib v3.3.2, https://matplotlib.org/</dc:title>
     </cc:Agent>
    </dc:creator>
   </cc:Work>
  </rdf:RDF>
 </metadata>
 <defs>
  <style type="text/css">*{stroke-linecap:butt;stroke-linejoin:round;}</style>
 </defs>
 <g id="figure_1">
  <g id="patch_1">
   <path d="M 0 180 
L 720 180 
L 720 0 
L 0 0 
z
" style="fill:none;"/>
  </g>
  <g id="axes_1">
   <g id="line2d_1">
    <path clip-path="url(#p9f0081764f)" d="M 90 157.5 
L 648 157.5 
" style="fill:none;stroke:#000000;stroke-linecap:square;stroke-width:0.5;"/>
   </g>
   <g id="patch_2">
    <path clip-path="url(#p9f0081764f)" d="M 121.274336 156.417641 
Q 118.658292 156.954142 115.829497 157.225511 
Q 113.000702 157.5 109.919759 157.5 
Q 100.732085 157.5 95.366043 155.466288 
Q 90 153.432576 90 149.954679 
Q 90 146.464305 95.366043 144.433712 
Q 100.732085 142.4 109.919759 142.4 
Q 113.000702 142.4 115.829497 142.674489 
Q 118.658292 142.945858 121.274336 143.482359 
L 121.274336 146.492378 
Q 118.634653 145.781202 116.073766 145.450568 
Q 113.51288 145.119934 110.684085 145.119934 
Q 105.609589 145.119934 102.701998 146.408159 
Q 99.802286 147.693266 99.802286 149.954679 
Q 99.802286 152.206734 102.701998 153.49496 
Q 105.609589 154.780066 110.684085 154.780066 
Q 113.51288 154.780066 116.073766 154.449432 
Q 118.634653 154.115679 121.274336 153.404503 
z
" style="fill:#0000ff;"/>
   </g>
   <g id="patch_3">
    <path clip-path="url(#p9f0081764f)" d="M 121.274336 141.033795 
Q 118.120268 141.716897 114.727893 142.060008 
Q 111.335518 142.4 107.718853 142.4 
Q 99.546312 142.4 94.773156 140.366288 
Q 90 138.332576 90 134.854679 
Q 90 131.336232 94.857265 129.318116 
Q 99.721538 127.3 108.18145 127.3 
Q 111.440653 127.3 114.426504 127.574489 
Q 117.419364 127.845858 120.068781 128.382359 
L 120.068781 131.392378 
Q 117.335256 130.703037 114.629766 130.363045 
Q 111.924277 130.019934 109.204769 130.019934 
Q 104.172279 130.019934 101.445762 131.273848 
Q 98.719246 132.524644 98.719246 134.854679 
Q 98.719246 137.16288 101.347636 138.423032 
Q 103.976026 139.680066 108.812263 139.680066 
Q 110.129963 139.680066 111.258418 139.608325 
Q 112.386874 139.533464 113.284031 139.377505 
L 113.284031 136.551518 
L 108.132386 136.551518 
L 108.132386 134.034332 
L 121.274336 134.034332 
z
" style="fill:#ffa600;"/>
   </g>
   <g id="patch_4">
    <path clip-path="url(#p9f0081764f)" d="M 111.66376 119.04775 
L 99.636153 119.04775 
L 97.737057 127.3 
L 90 127.3 
L 101.049285 82 
L 110.225051 82 
L 121.274336 127.3 
L 113.543673 127.3 
z
M 101.554432 110.640163 
L 109.726299 110.640163 
L 105.64676 92.621132 
z
" style="fill:#008000;"/>
   </g>
   <g id="patch_5">
    <path clip-path="url(#p9f0081764f)" d="M 90 21.6 
L 121.274336 21.6 
L 121.274336 33.379683 
L 110.022848 33.379683 
L 110.022848 82 
L 101.273307 82 
L 101.273307 33.379683 
L 90 33.379683 
z
" style="fill:#ff0000;"/>
   </g>
   <g id="patch_6">
    <path clip-path="url(#p9f0081764f)" d="M 154.19469 156.133795 
Q 151.040622 156.816897 147.648247 157.160008 
Q 144.255872 157.5 140.639207 157.5 
Q 132.466666 157.5 127.69351 155.466288 
Q 122.920354 153.432576 122.920354 149.954679 
Q 122.920354 146.436232 127.777619 144.418116 
Q 132.641892 142.4 141.101804 142.4 
Q 144.361007 142.4 147.346858 142.674489 
Q 150.339718 142.945858 152.989135 143.482359 
L 152.989135 146.492378 
Q 150.25561 145.803037 147.55012 145.463045 
Q 144.844631 145.119934 142.125123 145.119934 
Q 137.092633 145.119934 134.366116 146.373848 
Q 131.6396 147.624644 131.6396 149.954679 
Q 131.6396 152.26288 134.26799 153.523032 
Q 136.89638 154.780066 141.732617 154.780066 
Q 143.050317 154.780066 144.178772 154.708325 
Q 145.307228 154.633464 146.204385 154.477505 
L 146.204385 151.651518 
L 141.05274 151.651518 
L 141.05274 149.134332 
L 154.19469 149.134332 
z
" style="fill:#ffa600;"/>
   </g>
   <g id="patch_7">
    <path clip-path="url(#p9f0081764f)" d="M 154.19469 140.235282 
Q 151.578646 141.308283 148.749851 141.851023 
Q 145.921056 142.4 142.840113 142.4 
Q 133.652439 142.4 128.286397 138.332576 
Q 122.920354 134.265152 122.920354 127.309358 
Q 122.920354 120.32861 128.286397 116.267424 
Q 133.652439 112.2 142.840113 112.2 
Q 145.921056 112.2 148.749851 112.748977 
Q 151.578646 113.291717 154.19469 114.364718 
L 154.19469 120.384755 
Q 151.555007 118.962404 148.99412 118.301136 
Q 146.433234 117.639868 143.604439 117.639868 
Q 138.529943 117.639868 135.622352 120.216319 
Q 132.72264 122.786532 132.72264 127.309358 
Q 132.72264 131.813468 135.622352 134.389919 
Q 138.529943 136.960132 143.604439 136.960132 
Q 146.433234 136.960132 148.99412 136.298864 
Q 151.555007 135.631357 154.19469 134.209006 
z
" style="fill:#0000ff;"/>
   </g>
   <g id="patch_8">
    <path clip-path="url(#p9f0081764f)" d="M 122.920354 82 
L 154.19469 82 
L 154.19469 87.889841 
L 142.943202 87.889841 
L 142.943202 112.2 
L 134.193661 112.2 
L 134.193661 87.889841 
L 122.920354 87.889841 
z
" style="fill:#ff0000;"/>
   </g>
   <g id="patch_9">
    <path clip-path="url(#p9f0081764f)" d="M 144.584114 70.997 
L 132.556507 70.997 
L 130.657411 82 
L 122.920354 82 
L 133.969639 21.6 
L 143.145405 21.6 
L 154.19469 82 
L 146.464027 82 
z
M 134.474786 59.786884 
L 142.646653 59.786884 
L 138.567114 35.761509 
z
" style="fill:#008000;"/>
   </g>
   <g id="patch_10">
    <path clip-path="url(#p9f0081764f)" d="M 187.115044 154.767589 
Q 183.960976 156.133795 180.568601 156.820017 
Q 177.176226 157.5 173.559561 157.5 
Q 165.38702 157.5 160.613864 153.432576 
Q 155.840708 149.365152 155.840708 142.409358 
Q 155.840708 135.372464 160.697973 131.336232 
Q 165.562246 127.3 174.022158 127.3 
Q 177.281361 127.3 180.267212 127.848977 
Q 183.260072 128.391717 185.909489 129.464718 
L 185.909489 135.484755 
Q 183.175964 134.106073 180.470474 133.42609 
Q 177.764985 132.739868 175.045477 132.739868 
Q 170.012987 132.739868 167.28647 135.247697 
Q 164.559954 137.749287 164.559954 142.409358 
Q 164.559954 147.025759 167.188344 149.546065 
Q 169.816734 152.060132 174.652971 152.060132 
Q 175.970671 152.060132 177.099126 151.916649 
Q 178.227582 151.766928 179.124739 151.455009 
L 179.124739 145.803037 
L 173.973094 145.803037 
L 173.973094 140.768663 
L 187.115044 140.768663 
z
" style="fill:#ffa600;"/>
   </g>
   <g id="patch_11">
    <path clip-path="url(#p9f0081764f)" d="M 177.504468 119.04775 
L 165.476861 119.04775 
L 163.577765 127.3 
L 155.840708 127.3 
L 166.889993 82 
L 176.065759 82 
L 187.115044 127.3 
L 179.384381 127.3 
z
M 167.39514 110.640163 
L 175.567007 110.640163 
L 171.487467 92.621132 
z
" style="fill:#008000;"/>
   </g>
   <g id="patch_12">
    <path clip-path="url(#p9f0081764f)" d="M 155.840708 21.6 
L 187.115044 21.6 
L 187.115044 33.379683 
L 175.863556 33.379683 
L 175.863556 82 
L 167.114015 82 
L 167.114015 33.379683 
L 155.840708 33.379683 
z
" style="fill:#ff0000;"/>
   </g>
   <g id="patch_13">
    <path clip-path="url(#p9f0081764f)" d="M 220.035398 154.252923 
Q 217.419354 155.862425 214.590559 156.676534 
Q 211.761764 157.5 208.680821 157.5 
Q 199.493147 157.5 194.127105 151.398864 
Q 188.761062 145.297728 188.761062 134.864036 
Q 188.761062 124.392915 194.127105 118.301136 
Q 199.493147 112.2 208.680821 112.2 
Q 211.761764 112.2 214.590559 113.023466 
Q 217.419354 113.837575 220.035398 115.447077 
L 220.035398 124.477133 
Q 217.395715 122.343607 214.834828 121.351704 
Q 212.273942 120.359802 209.445147 120.359802 
Q 204.370651 120.359802 201.46306 124.224478 
Q 198.563348 128.079798 198.563348 134.864036 
Q 198.563348 141.620202 201.46306 145.484879 
Q 204.370651 149.340198 209.445147 149.340198 
Q 212.273942 149.340198 214.834828 148.348296 
Q 217.395715 147.347036 220.035398 145.21351 
z
" style="fill:#0000ff;"/>
   </g>
   <g id="patch_14">
    <path clip-path="url(#p9f0081764f)" d="M 188.761062 21.6 
L 220.035398 21.6 
L 220.035398 39.269524 
L 208.78391 39.269524 
L 208.78391 112.2 
L 200.034369 112.2 
L 200.034369 39.269524 
L 188.761062 39.269524 
z
" style="fill:#ff0000;"/>
   </g>
   <g id="patch_15">
    <path clip-path="url(#p9f0081764f)" d="M 252.955752 156.417641 
Q 250.339708 156.954142 247.510913 157.225511 
Q 244.682118 157.5 241.601175 157.5 
Q 232.413501 157.5 227.047459 155.466288 
Q 221.681416 153.432576 221.681416 149.954679 
Q 221.681416 146.464305 227.047459 144.433712 
Q 232.413501 142.4 241.601175 142.4 
Q 244.682118 142.4 247.510913 142.674489 
Q 250.339708 142.945858 252.955752 143.482359 
L 252.955752 146.492378 
Q 250.316069 145.781202 247.755182 145.450568 
Q 245.194296 145.119934 242.365501 145.119934 
Q 237.291005 145.119934 234.383414 146.408159 
Q 231.483702 147.693266 231.483702 149.954679 
Q 231.483702 152.206734 234.383414 153.49496 
Q 237.291005 154.780066 242.365501 154.780066 
Q 245.194296 154.780066 247.755182 154.449432 
Q 250.316069 154.115679 252.955752 153.404503 
z
" style="fill:#0000ff;"/>
   </g>
   <g id="patch_16">
    <path clip-path="url(#p9f0081764f)" d="M 221.681416 127.3 
L 252.955752 127.3 
L 252.955752 130.244921 
L 241.704264 130.244921 
L 241.704264 142.4 
L 232.954723 142.4 
L 232.954723 130.244921 
L 221.681416 130.244921 
z
" style="fill:#ff0000;"/>
   </g>
   <g id="patch_17">
    <path clip-path="url(#p9f0081764f)" d="M 252.955752 123.201384 
Q 249.801684 125.250692 246.409309 126.280025 
Q 243.016934 127.3 239.400269 127.3 
Q 231.227728 127.3 226.454572 121.198864 
Q 221.681416 115.097728 221.681416 104.664036 
Q 221.681416 94.108697 226.538681 88.054348 
Q 231.402954 82 239.862866 82 
Q 243.122069 82 246.10792 82.823466 
Q 249.10078 83.637575 251.750197 85.247077 
L 251.750197 94.277133 
Q 249.016672 92.20911 246.311182 91.189134 
Q 243.605693 90.159802 240.886185 90.159802 
Q 235.853695 90.159802 233.127178 93.921545 
Q 230.400662 97.673931 230.400662 104.664036 
Q 230.400662 111.588639 233.029052 115.369097 
Q 235.657442 119.140198 240.493679 119.140198 
Q 241.811379 119.140198 242.939834 118.924974 
Q 244.06829 118.700392 244.965447 118.232514 
L 244.965447 109.754555 
L 239.813802 109.754555 
L 239.813802 102.202995 
L 252.955752 102.202995 
z
" style="fill:#ffa600;"/>
   </g>
   <g id="patch_18">
    <path clip-path="url(#p9f0081764f)" d="M 243.345176 70.997 
L 231.317569 70.997 
L 229.418473 82 
L 221.681416 82 
L 232.730701 21.6 
L 241.906467 21.6 
L 252.955752 82 
L 245.225089 82 
z
M 233.235848 59.786884 
L 241.407715 59.786884 
L 237.328175 35.761509 
z
" style="fill:#008000;"/>
   </g>
   <g id="patch_19">
    <path clip-path="url(#p9f0081764f)" d="M 285.876106 156.417641 
Q 283.260062 156.954142 280.431267 157.225511 
Q 277.602472 157.5 274.521529 157.5 
Q 265.333855 157.5 259.967812 155.466288 
Q 254.60177 153.432576 254.60177 149.954679 
Q 254.60177 146.464305 259.967812 144.433712 
Q 265.333855 142.4 274.521529 142.4 
Q 277.602472 142.4 280.431267 142.674489 
Q 283.260062 142.945858 285.876106 143.482359 
L 285.876106 146.492378 
Q 283.236423 145.781202 280.675536 145.450568 
Q 278.11465 145.119934 275.285855 145.119934 
Q 270.211359 145.119934 267.303768 146.408159 
Q 264.404056 147.693266 264.404056 149.954679 
Q 264.404056 152.206734 267.303768 153.49496 
Q 270.211359 154.780066 275.285855 154.780066 
Q 278.11465 154.780066 280.675536 154.449432 
Q 283.236423 154.115679 285.876106 153.404503 
z
" style="fill:#0000ff;"/>
   </g>
   <g id="patch_20">
    <path clip-path="url(#p9f0081764f)" d="M 254.60177 112.2 
L 285.876106 112.2 
L 285.876106 118.089841 
L 274.624618 118.089841 
L 274.624618 142.4 
L 265.875077 142.4 
L 265.875077 118.089841 
L 254.60177 118.089841 
z
" style="fill:#ff0000;"/>
   </g>
   <g id="patch_21">
    <path clip-path="url(#p9f0081764f)" d="M 285.876106 104.002768 
Q 282.722038 108.101384 279.329663 110.16005 
Q 275.937288 112.2 272.320623 112.2 
Q 264.148082 112.2 259.374926 99.997728 
Q 254.60177 87.795455 254.60177 66.928073 
Q 254.60177 45.817393 259.459035 33.708697 
Q 264.323308 21.6 272.78322 21.6 
Q 276.042423 21.6 279.028274 23.246932 
Q 282.021134 24.87515 284.670551 28.094154 
L 284.670551 46.154266 
Q 281.937026 42.018219 279.231536 39.978269 
Q 276.526047 37.919603 273.806539 37.919603 
Q 268.774049 37.919603 266.047532 45.44309 
Q 263.321016 52.947862 263.321016 66.928073 
Q 263.321016 80.777277 265.949406 88.338195 
Q 268.577796 95.880397 273.414033 95.880397 
Q 274.731733 95.880397 275.860188 95.449948 
Q 276.988644 95.000785 277.885801 94.065028 
L 277.885801 77.10911 
L 272.734156 77.10911 
L 272.734156 62.00599 
L 285.876106 62.00599 
z
" style="fill:#ffa600;"/>
   </g>
   <g id="patch_22">
    <path clip-path="url(#p9f0081764f)" d="M 309.185884 154.74925 
L 297.158277 154.74925 
L 295.259181 157.5 
L 287.522124 157.5 
L 298.571409 142.4 
L 307.747175 142.4 
L 318.79646 157.5 
L 311.065797 157.5 
z
M 299.076556 151.946721 
L 307.248423 151.946721 
L 303.168883 145.940377 
z
" style="fill:#008000;"/>
   </g>
   <g id="patch_23">
    <path clip-path="url(#p9f0081764f)" d="M 287.522124 21.6 
L 318.79646 21.6 
L 318.79646 45.159366 
L 307.544972 45.159366 
L 307.544972 142.4 
L 298.795431 142.4 
L 298.795431 45.159366 
L 287.522124 45.159366 
z
" style="fill:#ff0000;"/>
   </g>
   <g id="patch_24">
    <path clip-path="url(#p9f0081764f)" d="M 342.106238 154.74925 
L 330.078631 154.74925 
L 328.179535 157.5 
L 320.442478 157.5 
L 331.491763 142.4 
L 340.667529 142.4 
L 351.716814 157.5 
L 343.986151 157.5 
z
M 331.99691 151.946721 
L 340.168777 151.946721 
L 336.089237 145.940377 
z
" style="fill:#008000;"/>
   </g>
   <g id="patch_25">
    <path clip-path="url(#p9f0081764f)" d="M 351.716814 133.741128 
Q 349.10077 138.033134 346.271975 140.20409 
Q 343.44318 142.4 340.362237 142.4 
Q 331.174563 142.4 325.80852 126.130304 
Q 320.442478 109.860607 320.442478 82.03743 
Q 320.442478 54.114439 325.80852 37.869696 
Q 331.174563 21.6 340.362237 21.6 
Q 343.44318 21.6 346.271975 23.79591 
Q 349.10077 25.966866 351.716814 30.258872 
L 351.716814 54.339021 
Q 349.077131 48.649618 346.516244 46.004545 
Q 343.955358 43.359471 341.126563 43.359471 
Q 336.052067 43.359471 333.144476 53.665276 
Q 330.244764 63.946127 330.244764 82.03743 
Q 330.244764 100.053873 333.144476 110.359678 
Q 336.052067 120.640529 341.126563 120.640529 
Q 343.955358 120.640529 346.516244 117.995455 
Q 349.077131 115.325429 351.716814 109.636026 
z
" style="fill:#0000ff;"/>
   </g>
   <g id="patch_26">
    <path clip-path="url(#p9f0081764f)" d="M 384.637168 156.133795 
Q 381.4831 156.816897 378.090725 157.160008 
Q 374.698349 157.5 371.081685 157.5 
Q 362.909144 157.5 358.135988 155.466288 
Q 353.362832 153.432576 353.362832 149.954679 
Q 353.362832 146.436232 358.220097 144.418116 
Q 363.08437 142.4 371.544282 142.4 
Q 374.803485 142.4 377.789336 142.674489 
Q 380.782196 142.945858 383.431613 143.482359 
L 383.431613 146.492378 
Q 380.698088 145.803037 377.992598 145.463045 
Q 375.287109 145.119934 372.567601 145.119934 
Q 367.535111 145.119934 364.808594 146.373848 
Q 362.082078 147.624644 362.082078 149.954679 
Q 362.082078 152.26288 364.710468 153.523032 
Q 367.338858 154.780066 372.175095 154.780066 
Q 373.492795 154.780066 374.62125 154.708325 
Q 375.749705 154.633464 376.646863 154.477505 
L 376.646863 151.651518 
L 371.495218 151.651518 
L 371.495218 149.134332 
L 384.637168 149.134332 
z
" style="fill:#ffa600;"/>
   </g>
   <g id="patch_27">
    <path clip-path="url(#p9f0081764f)" d="M 375.026592 120.393999 
L 362.998985 120.393999 
L 361.099889 142.4 
L 353.362832 142.4 
L 364.412117 21.6 
L 373.587883 21.6 
L 384.637168 142.4 
L 376.906505 142.4 
z
M 364.917264 97.973768 
L 373.089131 97.973768 
L 369.009591 49.923018 
z
" style="fill:#008000;"/>
   </g>
   <g id="patch_28">
    <path clip-path="url(#p9f0081764f)" d="M 407.946946 151.9985 
L 395.919339 151.9985 
L 394.020243 157.5 
L 386.283186 157.5 
L 397.332471 127.3 
L 406.508237 127.3 
L 417.557522 157.5 
L 409.826859 157.5 
z
M 397.837618 146.393442 
L 406.009485 146.393442 
L 401.929945 134.380754 
z
" style="fill:#008000;"/>
   </g>
   <g id="patch_29">
    <path clip-path="url(#p9f0081764f)" d="M 417.557522 124.567589 
Q 414.403454 125.933795 411.011079 126.620017 
Q 407.618703 127.3 404.002039 127.3 
Q 395.829498 127.3 391.056342 123.232576 
Q 386.283186 119.165152 386.283186 112.209358 
Q 386.283186 105.172464 391.140451 101.136232 
Q 396.004724 97.1 404.464635 97.1 
Q 407.723839 97.1 410.70969 97.648977 
Q 413.70255 98.191717 416.351967 99.264718 
L 416.351967 105.284755 
Q 413.618442 103.906073 410.912952 103.22609 
Q 408.207463 102.539868 405.487955 102.539868 
Q 400.455465 102.539868 397.728948 105.047697 
Q 395.002432 107.549287 395.002432 112.209358 
Q 395.002432 116.825759 397.630822 119.346065 
Q 400.259212 121.860132 405.095449 121.860132 
Q 406.413149 121.860132 407.541604 121.716649 
Q 408.670059 121.566928 409.567217 121.255009 
L 409.567217 115.603037 
L 404.415572 115.603037 
L 404.415572 110.568663 
L 417.557522 110.568663 
z
" style="fill:#ffa600;"/>
   </g>
   <g id="patch_30">
    <path clip-path="url(#p9f0081764f)" d="M 386.283186 66.9 
L 417.557522 66.9 
L 417.557522 72.789841 
L 406.306034 72.789841 
L 406.306034 97.1 
L 397.556493 97.1 
L 397.556493 72.789841 
L 386.283186 72.789841 
z
" style="fill:#ff0000;"/>
   </g>
   <g id="patch_31">
    <path clip-path="url(#p9f0081764f)" d="M 417.557522 63.652923 
Q 414.941478 65.262425 412.112683 66.076534 
Q 409.283888 66.9 406.202945 66.9 
Q 397.015271 66.9 391.649228 60.798864 
Q 386.283186 54.697728 386.283186 44.264036 
Q 386.283186 33.792915 391.649228 27.701136 
Q 397.015271 21.6 406.202945 21.6 
Q 409.283888 21.6 412.112683 22.423466 
Q 414.941478 23.237575 417.557522 24.847077 
L 417.557522 33.877133 
Q 414.917839 31.743607 412.356952 30.751704 
Q 409.796066 29.759802 406.967271 29.759802 
Q 401.892775 29.759802 398.985184 33.624478 
Q 396.085472 37.479798 396.085472 44.264036 
Q 396.085472 51.020202 398.985184 54.884879 
Q 401.892775 58.740198 406.967271 58.740198 
Q 409.796066 58.740198 412.356952 57.748296 
Q 414.917839 56.747036 417.557522 54.61351 
z
" style="fill:#0000ff;"/>
   </g>
   <g id="patch_32">
    <path clip-path="url(#p9f0081764f)" d="M 450.477876 156.133795 
Q 447.323808 156.816897 443.931433 157.160008 
Q 440.539057 157.5 436.922393 157.5 
Q 428.749852 157.5 423.976696 155.466288 
Q 419.20354 153.432576 419.20354 149.954679 
Q 419.20354 146.436232 424.060805 144.418116 
Q 428.925078 142.4 437.384989 142.4 
Q 440.644193 142.4 443.630044 142.674489 
Q 446.622904 142.945858 449.272321 143.482359 
L 449.272321 146.492378 
Q 446.538796 145.803037 443.833306 145.463045 
Q 441.127817 145.119934 438.408309 145.119934 
Q 433.375819 145.119934 430.649302 146.373848 
Q 427.922786 147.624644 427.922786 149.954679 
Q 427.922786 152.26288 430.551176 153.523032 
Q 433.179565 154.780066 438.015803 154.780066 
Q 439.333503 154.780066 440.461958 154.708325 
Q 441.590413 154.633464 442.487571 154.477505 
L 442.487571 151.651518 
L 437.335926 151.651518 
L 437.335926 149.134332 
L 450.477876 149.134332 
z
" style="fill:#ffa600;"/>
   </g>
   <g id="patch_33">
    <path clip-path="url(#p9f0081764f)" d="M 440.8673 134.14775 
L 428.839693 134.14775 
L 426.940597 142.4 
L 419.20354 142.4 
L 430.252825 97.1 
L 439.428591 97.1 
L 450.477876 142.4 
L 442.747213 142.4 
z
M 430.757972 125.740163 
L 438.929839 125.740163 
L 434.850299 107.721132 
z
" style="fill:#008000;"/>
   </g>
   <g id="patch_34">
    <path clip-path="url(#p9f0081764f)" d="M 450.477876 91.688205 
Q 447.861832 94.370709 445.033037 95.727556 
Q 442.204242 97.1 439.123298 97.1 
Q 429.935625 97.1 424.569582 86.93144 
Q 419.20354 76.76288 419.20354 59.373394 
Q 419.20354 41.921524 424.569582 31.76856 
Q 429.935625 21.6 439.123298 21.6 
Q 442.204242 21.6 445.033037 22.972444 
Q 447.861832 24.329291 450.477876 27.011795 
L 450.477876 42.061888 
Q 447.838193 38.506011 445.277306 36.85284 
Q 442.71642 35.199669 439.887625 35.199669 
Q 434.813129 35.199669 431.905538 41.640797 
Q 429.005826 48.066329 429.005826 59.373394 
Q 429.005826 70.633671 431.905538 77.074799 
Q 434.813129 83.500331 439.887625 83.500331 
Q 442.71642 83.500331 445.277306 81.84716 
Q 447.838193 80.178393 450.477876 76.622516 
z
" style="fill:#0000ff;"/>
   </g>
   <g id="patch_35">
    <path clip-path="url(#p9f0081764f)" d="M 473.787654 132.743249 
L 461.760047 132.743249 
L 459.860951 157.5 
L 452.123894 157.5 
L 463.173179 21.6 
L 472.348945 21.6 
L 483.39823 157.5 
L 475.667567 157.5 
z
M 463.678326 107.520489 
L 471.850193 107.520489 
L 467.770653 53.463395 
z
" style="fill:#008000;"/>
   </g>
   <g id="patch_36">
    <path clip-path="url(#p9f0081764f)" d="M 485.044248 21.6 
L 516.318584 21.6 
L 516.318584 48.104286 
L 505.067096 48.104286 
L 505.067096 157.5 
L 496.317555 157.5 
L 496.317555 48.104286 
L 485.044248 48.104286 
z
" style="fill:#ff0000;"/>
   </g>
   <g id="patch_37">
    <path clip-path="url(#p9f0081764f)" d="M 549.238938 145.204152 
Q 546.08487 151.352076 542.692495 154.440074 
Q 539.300119 157.5 535.683455 157.5 
Q 527.510914 157.5 522.737758 139.196592 
Q 517.964602 120.893183 517.964602 89.592109 
Q 517.964602 57.92609 522.821866 39.763045 
Q 527.68614 21.6 536.146051 21.6 
Q 539.405255 21.6 542.391106 24.070399 
Q 545.383966 26.512725 548.033383 31.341231 
L 548.033383 58.431398 
Q 545.299858 52.227329 542.594368 49.167403 
Q 539.888879 46.079405 537.169371 46.079405 
Q 532.136881 46.079405 529.410364 57.364635 
Q 526.683847 68.621793 526.683847 89.592109 
Q 526.683847 110.365916 529.312237 121.707292 
Q 531.940627 133.020595 536.776865 133.020595 
Q 538.094565 133.020595 539.22302 132.374923 
Q 540.351475 131.701177 541.248633 130.297542 
L 541.248633 104.863665 
L 536.096988 104.863665 
L 536.096988 82.208986 
L 549.238938 82.208986 
z
" style="fill:#ffa600;"/>
   </g>
   <g id="patch_38">
    <path clip-path="url(#p9f0081764f)" d="M 582.159292 145.204152 
Q 579.005224 151.352076 575.612849 154.440074 
Q 572.220473 157.5 568.603809 157.5 
Q 560.431268 157.5 555.658112 139.196592 
Q 550.884956 120.893183 550.884956 89.592109 
Q 550.884956 57.92609 555.74222 39.763045 
Q 560.606494 21.6 569.066405 21.6 
Q 572.325609 21.6 575.31146 24.070399 
Q 578.30432 26.512725 580.953737 31.341231 
L 580.953737 58.431398 
Q 578.220212 52.227329 575.514722 49.167403 
Q 572.809233 46.079405 570.089725 46.079405 
Q 565.057235 46.079405 562.330718 57.364635 
Q 559.604201 68.621793 559.604201 89.592109 
Q 559.604201 110.365916 562.232591 121.707292 
Q 564.860981 133.020595 569.697219 133.020595 
Q 571.014919 133.020595 572.143374 132.374923 
Q 573.271829 131.701177 574.168986 130.297542 
L 574.168986 104.863665 
L 569.017342 104.863665 
L 569.017342 82.208986 
L 582.159292 82.208986 
z
" style="fill:#ffa600;"/>
   </g>
   <g id="patch_39">
    <path clip-path="url(#p9f0081764f)" d="M 583.80531 142.4 
L 615.079646 142.4 
L 615.079646 145.344921 
L 603.828158 145.344921 
L 603.828158 157.5 
L 595.078617 157.5 
L 595.078617 145.344921 
L 583.80531 145.344921 
z
" style="fill:#ff0000;"/>
   </g>
   <g id="patch_40">
    <path clip-path="url(#p9f0081764f)" d="M 605.46907 134.14775 
L 593.441463 134.14775 
L 591.542367 142.4 
L 583.80531 142.4 
L 594.854595 97.1 
L 604.030361 97.1 
L 615.079646 142.4 
L 607.348983 142.4 
z
M 595.359741 125.740163 
L 603.531609 125.740163 
L 599.452069 107.721132 
z
" style="fill:#008000;"/>
   </g>
   <g id="patch_41">
    <path clip-path="url(#p9f0081764f)" d="M 615.079646 91.688205 
Q 612.463602 94.370709 609.634807 95.727556 
Q 606.806012 97.1 603.725068 97.1 
Q 594.537395 97.1 589.171352 86.93144 
Q 583.80531 76.76288 583.80531 59.373394 
Q 583.80531 41.921524 589.171352 31.76856 
Q 594.537395 21.6 603.725068 21.6 
Q 606.806012 21.6 609.634807 22.972444 
Q 612.463602 24.329291 615.079646 27.011795 
L 615.079646 42.061888 
Q 612.439963 38.506011 609.879076 36.85284 
Q 607.318189 35.199669 604.489395 35.199669 
Q 599.414899 35.199669 596.507308 41.640797 
Q 593.607596 48.066329 593.607596 59.373394 
Q 593.607596 70.633671 596.507308 77.074799 
Q 599.414899 83.500331 604.489395 83.500331 
Q 607.318189 83.500331 609.879076 81.84716 
Q 612.439963 80.178393 615.079646 76.622516 
z
" style="fill:#0000ff;"/>
   </g>
   <g id="patch_42">
    <path clip-path="url(#p9f0081764f)" d="M 648 156.417641 
Q 645.383956 156.954142 642.555161 157.225511 
Q 639.726366 157.5 636.645422 157.5 
Q 627.457749 157.5 622.091706 155.466288 
Q 616.725664 153.432576 616.725664 149.954679 
Q 616.725664 146.464305 622.091706 144.433712 
Q 627.457749 142.4 636.645422 142.4 
Q 639.726366 142.4 642.555161 142.674489 
Q 645.383956 142.945858 648 143.482359 
L 648 146.492378 
Q 645.360317 145.781202 642.79943 145.450568 
Q 640.238543 145.119934 637.409749 145.119934 
Q 632.335253 145.119934 629.427662 146.408159 
Q 626.52795 147.693266 626.52795 149.954679 
Q 626.52795 152.206734 629.427662 153.49496 
Q 632.335253 154.780066 637.409749 154.780066 
Q 640.238543 154.780066 642.79943 154.449432 
Q 645.360317 154.115679 648 153.404503 
z
" style="fill:#0000ff;"/>
   </g>
   <g id="patch_43">
    <path clip-path="url(#p9f0081764f)" d="M 638.389424 136.8985 
L 626.361817 136.8985 
L 624.462721 142.4 
L 616.725664 142.4 
L 627.774949 112.2 
L 636.950715 112.2 
L 648 142.4 
L 640.269337 142.4 
z
M 628.280095 131.293442 
L 636.451963 131.293442 
L 632.372423 119.280754 
z
" style="fill:#008000;"/>
   </g>
   <g id="patch_44">
    <path clip-path="url(#p9f0081764f)" d="M 648 109.467589 
Q 644.845932 110.833795 641.453557 111.520017 
Q 638.061181 112.2 634.444517 112.2 
Q 626.271976 112.2 621.49882 108.132576 
Q 616.725664 104.065152 616.725664 97.109358 
Q 616.725664 90.072464 621.582928 86.036232 
Q 626.447202 82 634.907113 82 
Q 638.166317 82 641.152168 82.548977 
Q 644.145028 83.091717 646.794445 84.164718 
L 646.794445 90.184755 
Q 644.06092 88.806073 641.35543 88.12609 
Q 638.649941 87.439868 635.930433 87.439868 
Q 630.897943 87.439868 628.171426 89.947697 
Q 625.444909 92.449287 625.444909 97.109358 
Q 625.444909 101.725759 628.073299 104.246065 
Q 630.701689 106.760132 635.537927 106.760132 
Q 636.855626 106.760132 637.984082 106.616649 
Q 639.112537 106.466928 640.009694 106.155009 
L 640.009694 100.503037 
L 634.85805 100.503037 
L 634.85805 95.468663 
L 648 95.468663 
z
" style="fill:#ffa600;"/>
   </g>
   <g id="patch_45">
    <path clip-path="url(#p9f0081764f)" d="M 616.725664 21.6 
L 648 21.6 
L 648 33.379683 
L 636.748512 33.379683 
L 636.748512 82 
L 627.998971 82 
L 627.998971 33.379683 
L 616.725664 33.379683 
z
" style="fill:#ff0000;"/>
   </g>
  </g>
 </g>
 <defs>
  <clipPath id="p9f0081764f">
   <rect height="135.9" width="558" x="90" y="21.6"/>
  </clipPath>
 </defs>
</svg>
