<?xml version="1.0" encoding="utf-8" standalone="no"?>
<!DOCTYPE svg PUBLIC "-//W3C//DTD SVG 1.1//EN"
  "http://www.w3.org/Graphics/SVG/1.1/DTD/svg11.dtd">
<!-- Created with matplotlib (https://matplotlib.org/) -->
<svg height="180pt" version="1.1" viewBox="0 0 720 180" width="720pt" xmlns="http://www.w3.org/2000/svg" xmlns:xlink="http://www.w3.org/1999/xlink">
 <metadata>
  <rdf:RDF xmlns:cc="http://creativecommons.org/ns#" xmlns:dc="http://purl.org/dc/elements/1.1/" xmlns:rdf="http://www.w3.org/1999/02/22-rdf-syntax-ns#">
   <cc:Work>
    <dc:type rdf:resource="http://purl.org/dc/dcmitype/StillImage"/>
    <dc:date>2021-08-04T23:32:55.924829</dc:date>
    <dc:format>image/svg+xml</dc:format>
    <dc:creator>
     <cc:Agent>
      <dc:title>Matplotlib v3.3.2, https://matplotlib.org/</dc:title>
     </cc:Agent>
    </dc:creator>
   </cc:Work>
  </rdf:RDF>
 </metadata>
 <defs>
  <style type="text/css">*{stroke-linecap:butt;stroke-linejoin:round;}</style>
 </defs>
 <g id="figure_1">
  <g id="patch_1">
   <path d="M 0 180 
L 720 180 
L 720 0 
L 0 0 
z
" style="fill:none;"/>
  </g>
  <g id="axes_1">
   <g id="line2d_1">
    <path clip-path="url(#p713220c6d7)" d="M 90 157.5 
L 648 157.5 
" style="fill:none;stroke:#000000;stroke-linecap:square;stroke-width:0.5;"/>
   </g>
   <g id="patch_2">
    <path clip-path="url(#p713220c6d7)" d="M 121.274336 156.133795 
Q 118.120268 156.816897 114.727893 157.160008 
Q 111.335518 157.5 107.718853 157.5 
Q 99.546312 157.5 94.773156 155.466288 
Q 90 153.432576 90 149.954679 
Q 90 146.436232 94.857265 144.418116 
Q 99.721538 142.4 108.18145 142.4 
Q 111.440653 142.4 114.426504 142.674489 
Q 117.419364 142.945858 120.068781 143.482359 
L 120.068781 146.492378 
Q 117.335256 145.803037 114.629766 145.463045 
Q 111.924277 145.119934 109.204769 145.119934 
Q 104.172279 145.119934 101.445762 146.373848 
Q 98.719246 147.624644 98.719246 149.954679 
Q 98.719246 152.26288 101.347636 153.523032 
Q 103.976026 154.780066 108.812263 154.780066 
Q 110.129963 154.780066 111.258418 154.708325 
Q 112.386874 154.633464 113.284031 154.477505 
L 113.284031 151.651518 
L 108.132386 151.651518 
L 108.132386 149.134332 
L 121.274336 149.134332 
z
" style="fill:#ffa600;"/>
   </g>
   <g id="patch_3">
    <path clip-path="url(#p713220c6d7)" d="M 121.274336 140.235282 
Q 118.658292 141.308283 115.829497 141.851023 
Q 113.000702 142.4 109.919759 142.4 
Q 100.732085 142.4 95.366043 138.332576 
Q 90 134.265152 90 127.309358 
Q 90 120.32861 95.366043 116.267424 
Q 100.732085 112.2 109.919759 112.2 
Q 113.000702 112.2 115.829497 112.748977 
Q 118.658292 113.291717 121.274336 114.364718 
L 121.274336 120.384755 
Q 118.634653 118.962404 116.073766 118.301136 
Q 113.51288 117.639868 110.684085 117.639868 
Q 105.609589 117.639868 102.701998 120.216319 
Q 99.802286 122.786532 99.802286 127.309358 
Q 99.802286 131.813468 102.701998 134.389919 
Q 105.609589 136.960132 110.684085 136.960132 
Q 113.51288 136.960132 116.073766 136.298864 
Q 118.634653 135.631357 121.274336 134.209006 
z
" style="fill:#0000ff;"/>
   </g>
   <g id="patch_4">
    <path clip-path="url(#p713220c6d7)" d="M 90 21.6 
L 121.274336 21.6 
L 121.274336 39.269524 
L 110.022848 39.269524 
L 110.022848 112.2 
L 101.273307 112.2 
L 101.273307 39.269524 
L 90 39.269524 
z
" style="fill:#ff0000;"/>
   </g>
   <g id="patch_5">
    <path clip-path="url(#p713220c6d7)" d="M 144.584114 154.74925 
L 132.556507 154.74925 
L 130.657411 157.5 
L 122.920354 157.5 
L 133.969639 142.4 
L 143.145405 142.4 
L 154.19469 157.5 
L 146.464027 157.5 
z
M 134.474786 151.946721 
L 142.646653 151.946721 
L 138.567114 145.940377 
z
" style="fill:#008000;"/>
   </g>
   <g id="patch_6">
    <path clip-path="url(#p713220c6d7)" d="M 154.19469 136.935179 
Q 151.040622 139.667589 147.648247 141.040033 
Q 144.255872 142.4 140.639207 142.4 
Q 132.466666 142.4 127.69351 134.265152 
Q 122.920354 126.130304 122.920354 112.218715 
Q 122.920354 98.144929 127.777619 90.072464 
Q 132.641892 82 141.101804 82 
Q 144.361007 82 147.346858 83.097955 
Q 150.339718 84.183433 152.989135 86.329436 
L 152.989135 98.36951 
Q 150.25561 95.612146 147.55012 94.252179 
Q 144.844631 92.879736 142.125123 92.879736 
Q 137.092633 92.879736 134.366116 97.895394 
Q 131.6396 102.898575 131.6396 112.218715 
Q 131.6396 121.451518 134.26799 126.49213 
Q 136.89638 131.520264 141.732617 131.520264 
Q 143.050317 131.520264 144.178772 131.233299 
Q 145.307228 130.933857 146.204385 130.310019 
L 146.204385 119.006073 
L 141.05274 119.006073 
L 141.05274 108.937327 
L 154.19469 108.937327 
z
" style="fill:#ffa600;"/>
   </g>
   <g id="patch_7">
    <path clip-path="url(#p713220c6d7)" d="M 122.920354 21.6 
L 154.19469 21.6 
L 154.19469 33.379683 
L 142.943202 33.379683 
L 142.943202 82 
L 134.193661 82 
L 134.193661 33.379683 
L 122.920354 33.379683 
z
" style="fill:#ff0000;"/>
   </g>
   <g id="patch_8">
    <path clip-path="url(#p713220c6d7)" d="M 187.115044 154.767589 
Q 183.960976 156.133795 180.568601 156.820017 
Q 177.176226 157.5 173.559561 157.5 
Q 165.38702 157.5 160.613864 153.432576 
Q 155.840708 149.365152 155.840708 142.409358 
Q 155.840708 135.372464 160.697973 131.336232 
Q 165.562246 127.3 174.022158 127.3 
Q 177.281361 127.3 180.267212 127.848977 
Q 183.260072 128.391717 185.909489 129.464718 
L 185.909489 135.484755 
Q 183.175964 134.106073 180.470474 133.42609 
Q 177.764985 132.739868 175.045477 132.739868 
Q 170.012987 132.739868 167.28647 135.247697 
Q 164.559954 137.749287 164.559954 142.409358 
Q 164.559954 147.025759 167.188344 149.546065 
Q 169.816734 152.060132 174.652971 152.060132 
Q 175.970671 152.060132 177.099126 151.916649 
Q 178.227582 151.766928 179.124739 151.455009 
L 179.124739 145.803037 
L 173.973094 145.803037 
L 173.973094 140.768663 
L 187.115044 140.768663 
z
" style="fill:#ffa600;"/>
   </g>
   <g id="patch_9">
    <path clip-path="url(#p713220c6d7)" d="M 155.840708 82 
L 187.115044 82 
L 187.115044 90.834762 
L 175.863556 90.834762 
L 175.863556 127.3 
L 167.114015 127.3 
L 167.114015 90.834762 
L 155.840708 90.834762 
z
" style="fill:#ff0000;"/>
   </g>
   <g id="patch_10">
    <path clip-path="url(#p713220c6d7)" d="M 187.115044 77.670564 
Q 184.499 79.816567 181.670205 80.902045 
Q 178.84141 82 175.760467 82 
Q 166.572793 82 161.206751 73.865152 
Q 155.840708 65.730304 155.840708 51.818715 
Q 155.840708 37.85722 161.206751 29.734848 
Q 166.572793 21.6 175.760467 21.6 
Q 178.84141 21.6 181.670205 22.697955 
Q 184.499 23.783433 187.115044 25.929436 
L 187.115044 37.96951 
Q 184.475361 35.124809 181.914474 33.802272 
Q 179.353588 32.479736 176.524793 32.479736 
Q 171.450297 32.479736 168.542706 37.632638 
Q 165.642994 42.773063 165.642994 51.818715 
Q 165.642994 60.826937 168.542706 65.979839 
Q 171.450297 71.120264 176.524793 71.120264 
Q 179.353588 71.120264 181.914474 69.797728 
Q 184.475361 68.462714 187.115044 65.618013 
z
" style="fill:#0000ff;"/>
   </g>
   <g id="patch_11">
    <path clip-path="url(#p713220c6d7)" d="M 220.035398 156.133795 
Q 216.88133 156.816897 213.488955 157.160008 
Q 210.09658 157.5 206.479915 157.5 
Q 198.307374 157.5 193.534218 155.466288 
Q 188.761062 153.432576 188.761062 149.954679 
Q 188.761062 146.436232 193.618327 144.418116 
Q 198.4826 142.4 206.942512 142.4 
Q 210.201715 142.4 213.187566 142.674489 
Q 216.180426 142.945858 218.829843 143.482359 
L 218.829843 146.492378 
Q 216.096318 145.803037 213.390828 145.463045 
Q 210.685339 145.119934 207.965831 145.119934 
Q 202.933341 145.119934 200.206824 146.373848 
Q 197.480308 147.624644 197.480308 149.954679 
Q 197.480308 152.26288 200.108698 153.523032 
Q 202.737088 154.780066 207.573325 154.780066 
Q 208.891025 154.780066 210.01948 154.708325 
Q 211.147936 154.633464 212.045093 154.477505 
L 212.045093 151.651518 
L 206.893448 151.651518 
L 206.893448 149.134332 
L 220.035398 149.134332 
z
" style="fill:#ffa600;"/>
   </g>
   <g id="patch_12">
    <path clip-path="url(#p713220c6d7)" d="M 210.424822 120.393999 
L 198.397215 120.393999 
L 196.498119 142.4 
L 188.761062 142.4 
L 199.810347 21.6 
L 208.986113 21.6 
L 220.035398 142.4 
L 212.304735 142.4 
z
M 200.315494 97.973768 
L 208.487361 97.973768 
L 204.407821 49.923018 
z
" style="fill:#008000;"/>
   </g>
   <g id="patch_13">
    <path clip-path="url(#p713220c6d7)" d="M 221.681416 21.6 
L 252.955752 21.6 
L 252.955752 48.104286 
L 241.704264 48.104286 
L 241.704264 157.5 
L 232.954723 157.5 
L 232.954723 48.104286 
L 221.681416 48.104286 
z
" style="fill:#ff0000;"/>
   </g>
   <g id="patch_14">
    <path clip-path="url(#p713220c6d7)" d="M 276.26553 154.74925 
L 264.237923 154.74925 
L 262.338827 157.5 
L 254.60177 157.5 
L 265.651055 142.4 
L 274.826821 142.4 
L 285.876106 157.5 
L 278.145443 157.5 
z
M 266.156202 151.946721 
L 274.328069 151.946721 
L 270.248529 145.940377 
z
" style="fill:#008000;"/>
   </g>
   <g id="patch_15">
    <path clip-path="url(#p713220c6d7)" d="M 285.876106 131.470357 
Q 282.722038 136.935179 279.329663 139.680066 
Q 275.937288 142.4 272.320623 142.4 
Q 264.148082 142.4 259.374926 126.130304 
Q 254.60177 109.860607 254.60177 82.03743 
Q 254.60177 53.889857 259.459035 37.744929 
Q 264.323308 21.6 272.78322 21.6 
Q 276.042423 21.6 279.028274 23.79591 
Q 282.021134 25.966866 284.670551 30.258872 
L 284.670551 54.339021 
Q 281.937026 48.824293 279.231536 46.104359 
Q 276.526047 43.359471 273.806539 43.359471 
Q 268.774049 43.359471 266.047532 53.390787 
Q 263.321016 63.397149 263.321016 82.03743 
Q 263.321016 100.503037 265.949406 110.584259 
Q 268.577796 120.640529 273.414033 120.640529 
Q 274.731733 120.640529 275.860188 120.066598 
Q 276.988644 119.467713 277.885801 118.220037 
L 277.885801 95.612146 
L 272.734156 95.612146 
L 272.734156 75.474654 
L 285.876106 75.474654 
z
" style="fill:#ffa600;"/>
   </g>
   <g id="patch_16">
    <path clip-path="url(#p713220c6d7)" d="M 309.185884 151.9985 
L 297.158277 151.9985 
L 295.259181 157.5 
L 287.522124 157.5 
L 298.571409 127.3 
L 307.747175 127.3 
L 318.79646 157.5 
L 311.065797 157.5 
z
M 299.076556 146.393442 
L 307.248423 146.393442 
L 303.168883 134.380754 
z
" style="fill:#008000;"/>
   </g>
   <g id="patch_17">
    <path clip-path="url(#p713220c6d7)" d="M 318.79646 119.723487 
Q 316.180416 123.478992 313.351621 125.378579 
Q 310.522826 127.3 307.441883 127.3 
Q 298.254209 127.3 292.888166 113.064016 
Q 287.522124 98.828031 287.522124 74.482751 
Q 287.522124 50.050134 292.888166 35.835984 
Q 298.254209 21.6 307.441883 21.6 
Q 310.522826 21.6 313.351621 23.521421 
Q 316.180416 25.421008 318.79646 29.176513 
L 318.79646 50.246643 
Q 316.156777 45.268416 313.59589 42.953976 
Q 311.035004 40.639537 308.206209 40.639537 
Q 303.131713 40.639537 300.224122 49.657116 
Q 297.32441 58.652861 297.32441 74.482751 
Q 297.32441 90.247139 300.224122 99.264718 
Q 303.131713 108.260463 308.206209 108.260463 
Q 311.035004 108.260463 313.59589 105.946024 
Q 316.156777 103.60975 318.79646 98.631522 
z
" style="fill:#0000ff;"/>
   </g>
   <g id="patch_18">
    <path clip-path="url(#p713220c6d7)" d="M 351.716814 153.401384 
Q 348.562746 155.450692 345.170371 156.480025 
Q 341.777996 157.5 338.161331 157.5 
Q 329.98879 157.5 325.215634 151.398864 
Q 320.442478 145.297728 320.442478 134.864036 
Q 320.442478 124.308697 325.299743 118.254348 
Q 330.164016 112.2 338.623928 112.2 
Q 341.883131 112.2 344.868982 113.023466 
Q 347.861842 113.837575 350.511259 115.447077 
L 350.511259 124.477133 
Q 347.777734 122.40911 345.072244 121.389134 
Q 342.366755 120.359802 339.647247 120.359802 
Q 334.614757 120.359802 331.88824 124.121545 
Q 329.161724 127.873931 329.161724 134.864036 
Q 329.161724 141.788639 331.790114 145.569097 
Q 334.418504 149.340198 339.254741 149.340198 
Q 340.572441 149.340198 341.700896 149.124974 
Q 342.829351 148.900392 343.726509 148.432514 
L 343.726509 139.954555 
L 338.574864 139.954555 
L 338.574864 132.402995 
L 351.716814 132.402995 
z
" style="fill:#ffa600;"/>
   </g>
   <g id="patch_19">
    <path clip-path="url(#p713220c6d7)" d="M 342.106238 95.695499 
L 330.078631 95.695499 
L 328.179535 112.2 
L 320.442478 112.2 
L 331.491763 21.6 
L 340.667529 21.6 
L 351.716814 112.2 
L 343.986151 112.2 
z
M 331.99691 78.880326 
L 340.168777 78.880326 
L 336.089237 42.842263 
z
" style="fill:#008000;"/>
   </g>
   <g id="patch_20">
    <path clip-path="url(#p713220c6d7)" d="M 375.026592 132.743249 
L 362.998985 132.743249 
L 361.099889 157.5 
L 353.362832 157.5 
L 364.412117 21.6 
L 373.587883 21.6 
L 384.637168 157.5 
L 376.906505 157.5 
z
M 364.917264 107.520489 
L 373.089131 107.520489 
L 369.009591 53.463395 
z
" style="fill:#008000;"/>
   </g>
   <g id="patch_21">
    <path clip-path="url(#p713220c6d7)" d="M 407.946946 149.24775 
L 395.919339 149.24775 
L 394.020243 157.5 
L 386.283186 157.5 
L 397.332471 112.2 
L 406.508237 112.2 
L 417.557522 157.5 
L 409.826859 157.5 
z
M 397.837618 140.840163 
L 406.009485 140.840163 
L 401.929945 122.821132 
z
" style="fill:#008000;"/>
   </g>
   <g id="patch_22">
    <path clip-path="url(#p713220c6d7)" d="M 417.557522 108.101384 
Q 414.403454 110.150692 411.011079 111.180025 
Q 407.618703 112.2 404.002039 112.2 
Q 395.829498 112.2 391.056342 106.098864 
Q 386.283186 99.997728 386.283186 89.564036 
Q 386.283186 79.008697 391.140451 72.954348 
Q 396.004724 66.9 404.464635 66.9 
Q 407.723839 66.9 410.70969 67.723466 
Q 413.70255 68.537575 416.351967 70.147077 
L 416.351967 79.177133 
Q 413.618442 77.10911 410.912952 76.089134 
Q 408.207463 75.059802 405.487955 75.059802 
Q 400.455465 75.059802 397.728948 78.821545 
Q 395.002432 82.573931 395.002432 89.564036 
Q 395.002432 96.488639 397.630822 100.269097 
Q 400.259212 104.040198 405.095449 104.040198 
Q 406.413149 104.040198 407.541604 103.824974 
Q 408.670059 103.600392 409.567217 103.132514 
L 409.567217 94.654555 
L 404.415572 94.654555 
L 404.415572 87.102995 
L 417.557522 87.102995 
z
" style="fill:#ffa600;"/>
   </g>
   <g id="patch_23">
    <path clip-path="url(#p713220c6d7)" d="M 386.283186 21.6 
L 417.557522 21.6 
L 417.557522 30.434762 
L 406.306034 30.434762 
L 406.306034 66.9 
L 397.556493 66.9 
L 397.556493 30.434762 
L 386.283186 30.434762 
z
" style="fill:#ff0000;"/>
   </g>
   <g id="patch_24">
    <path clip-path="url(#p713220c6d7)" d="M 419.20354 142.4 
L 450.477876 142.4 
L 450.477876 145.344921 
L 439.226388 145.344921 
L 439.226388 157.5 
L 430.476847 157.5 
L 430.476847 145.344921 
L 419.20354 145.344921 
z
" style="fill:#ff0000;"/>
   </g>
   <g id="patch_25">
    <path clip-path="url(#p713220c6d7)" d="M 450.477876 138.301384 
Q 447.323808 140.350692 443.931433 141.380025 
Q 440.539057 142.4 436.922393 142.4 
Q 428.749852 142.4 423.976696 136.298864 
Q 419.20354 130.197728 419.20354 119.764036 
Q 419.20354 109.208697 424.060805 103.154348 
Q 428.925078 97.1 437.384989 97.1 
Q 440.644193 97.1 443.630044 97.923466 
Q 446.622904 98.737575 449.272321 100.347077 
L 449.272321 109.377133 
Q 446.538796 107.30911 443.833306 106.289134 
Q 441.127817 105.259802 438.408309 105.259802 
Q 433.375819 105.259802 430.649302 109.021545 
Q 427.922786 112.773931 427.922786 119.764036 
Q 427.922786 126.688639 430.551176 130.469097 
Q 433.179565 134.240198 438.015803 134.240198 
Q 439.333503 134.240198 440.461958 134.024974 
Q 441.590413 133.800392 442.487571 133.332514 
L 442.487571 124.854555 
L 437.335926 124.854555 
L 437.335926 117.302995 
L 450.477876 117.302995 
z
" style="fill:#ffa600;"/>
   </g>
   <g id="patch_26">
    <path clip-path="url(#p713220c6d7)" d="M 440.8673 83.346249 
L 428.839693 83.346249 
L 426.940597 97.1 
L 419.20354 97.1 
L 430.252825 21.6 
L 439.428591 21.6 
L 450.477876 97.1 
L 442.747213 97.1 
z
M 430.757972 69.333605 
L 438.929839 69.333605 
L 434.850299 39.301886 
z
" style="fill:#008000;"/>
   </g>
   <g id="patch_27">
    <path clip-path="url(#p713220c6d7)" d="M 473.787654 151.9985 
L 461.760047 151.9985 
L 459.860951 157.5 
L 452.123894 157.5 
L 463.173179 127.3 
L 472.348945 127.3 
L 483.39823 157.5 
L 475.667567 157.5 
z
M 463.678326 146.393442 
L 471.850193 146.393442 
L 467.770653 134.380754 
z
" style="fill:#008000;"/>
   </g>
   <g id="patch_28">
    <path clip-path="url(#p713220c6d7)" d="M 452.123894 82 
L 483.39823 82 
L 483.39823 90.834762 
L 472.146742 90.834762 
L 472.146742 127.3 
L 463.397201 127.3 
L 463.397201 90.834762 
L 452.123894 90.834762 
z
" style="fill:#ff0000;"/>
   </g>
   <g id="patch_29">
    <path clip-path="url(#p713220c6d7)" d="M 483.39823 76.535179 
Q 480.244162 79.267589 476.851787 80.640033 
Q 473.459411 82 469.842747 82 
Q 461.670206 82 456.89705 73.865152 
Q 452.123894 65.730304 452.123894 51.818715 
Q 452.123894 37.744929 456.981158 29.672464 
Q 461.845432 21.6 470.305343 21.6 
Q 473.564547 21.6 476.550398 22.697955 
Q 479.543258 23.783433 482.192675 25.929436 
L 482.192675 37.96951 
Q 479.45915 35.212146 476.75366 33.852179 
Q 474.048171 32.479736 471.328663 32.479736 
Q 466.296173 32.479736 463.569656 37.495394 
Q 460.84314 42.498575 460.84314 51.818715 
Q 460.84314 61.051518 463.471529 66.09213 
Q 466.099919 71.120264 470.936157 71.120264 
Q 472.253857 71.120264 473.382312 70.833299 
Q 474.510767 70.533857 475.407925 69.910019 
L 475.407925 58.606073 
L 470.25628 58.606073 
L 470.25628 48.537327 
L 483.39823 48.537327 
z
" style="fill:#ffa600;"/>
   </g>
   <g id="patch_30">
    <path clip-path="url(#p713220c6d7)" d="M 506.708008 132.743249 
L 494.680401 132.743249 
L 492.781305 157.5 
L 485.044248 157.5 
L 496.093533 21.6 
L 505.269299 21.6 
L 516.318584 157.5 
L 508.587921 157.5 
z
M 496.59868 107.520489 
L 504.770547 107.520489 
L 500.691007 53.463395 
z
" style="fill:#008000;"/>
   </g>
   <g id="patch_31">
    <path clip-path="url(#p713220c6d7)" d="M 549.238938 156.133795 
Q 546.08487 156.816897 542.692495 157.160008 
Q 539.300119 157.5 535.683455 157.5 
Q 527.510914 157.5 522.737758 155.466288 
Q 517.964602 153.432576 517.964602 149.954679 
Q 517.964602 146.436232 522.821866 144.418116 
Q 527.68614 142.4 536.146051 142.4 
Q 539.405255 142.4 542.391106 142.674489 
Q 545.383966 142.945858 548.033383 143.482359 
L 548.033383 146.492378 
Q 545.299858 145.803037 542.594368 145.463045 
Q 539.888879 145.119934 537.169371 145.119934 
Q 532.136881 145.119934 529.410364 146.373848 
Q 526.683847 147.624644 526.683847 149.954679 
Q 526.683847 152.26288 529.312237 153.523032 
Q 531.940627 154.780066 536.776865 154.780066 
Q 538.094565 154.780066 539.22302 154.708325 
Q 540.351475 154.633464 541.248633 154.477505 
L 541.248633 151.651518 
L 536.096988 151.651518 
L 536.096988 149.134332 
L 549.238938 149.134332 
z
" style="fill:#ffa600;"/>
   </g>
   <g id="patch_32">
    <path clip-path="url(#p713220c6d7)" d="M 517.964602 21.6 
L 549.238938 21.6 
L 549.238938 45.159366 
L 537.98745 45.159366 
L 537.98745 142.4 
L 529.237909 142.4 
L 529.237909 45.159366 
L 517.964602 45.159366 
z
" style="fill:#ff0000;"/>
   </g>
   <g id="patch_33">
    <path clip-path="url(#p713220c6d7)" d="M 582.159292 155.335282 
Q 579.543248 156.408283 576.714453 156.951023 
Q 573.885658 157.5 570.804714 157.5 
Q 561.617041 157.5 556.250998 153.432576 
Q 550.884956 149.365152 550.884956 142.409358 
Q 550.884956 135.42861 556.250998 131.367424 
Q 561.617041 127.3 570.804714 127.3 
Q 573.885658 127.3 576.714453 127.848977 
Q 579.543248 128.391717 582.159292 129.464718 
L 582.159292 135.484755 
Q 579.519609 134.062404 576.958722 133.401136 
Q 574.397835 132.739868 571.569041 132.739868 
Q 566.494545 132.739868 563.586954 135.316319 
Q 560.687242 137.886532 560.687242 142.409358 
Q 560.687242 146.913468 563.586954 149.489919 
Q 566.494545 152.060132 571.569041 152.060132 
Q 574.397835 152.060132 576.958722 151.398864 
Q 579.519609 150.731357 582.159292 149.309006 
z
" style="fill:#0000ff;"/>
   </g>
   <g id="patch_34">
    <path clip-path="url(#p713220c6d7)" d="M 582.159292 123.201384 
Q 579.005224 125.250692 575.612849 126.280025 
Q 572.220473 127.3 568.603809 127.3 
Q 560.431268 127.3 555.658112 121.198864 
Q 550.884956 115.097728 550.884956 104.664036 
Q 550.884956 94.108697 555.74222 88.054348 
Q 560.606494 82 569.066405 82 
Q 572.325609 82 575.31146 82.823466 
Q 578.30432 83.637575 580.953737 85.247077 
L 580.953737 94.277133 
Q 578.220212 92.20911 575.514722 91.189134 
Q 572.809233 90.159802 570.089725 90.159802 
Q 565.057235 90.159802 562.330718 93.921545 
Q 559.604201 97.673931 559.604201 104.664036 
Q 559.604201 111.588639 562.232591 115.369097 
Q 564.860981 119.140198 569.697219 119.140198 
Q 571.014919 119.140198 572.143374 118.924974 
Q 573.271829 118.700392 574.168986 118.232514 
L 574.168986 109.754555 
L 569.017342 109.754555 
L 569.017342 102.202995 
L 582.159292 102.202995 
z
" style="fill:#ffa600;"/>
   </g>
   <g id="patch_35">
    <path clip-path="url(#p713220c6d7)" d="M 550.884956 21.6 
L 582.159292 21.6 
L 582.159292 33.379683 
L 570.907804 33.379683 
L 570.907804 82 
L 562.158263 82 
L 562.158263 33.379683 
L 550.884956 33.379683 
z
" style="fill:#ff0000;"/>
   </g>
   <g id="patch_36">
    <path clip-path="url(#p713220c6d7)" d="M 605.46907 154.74925 
L 593.441463 154.74925 
L 591.542367 157.5 
L 583.80531 157.5 
L 594.854595 142.4 
L 604.030361 142.4 
L 615.079646 157.5 
L 607.348983 157.5 
z
M 595.359741 151.946721 
L 603.531609 151.946721 
L 599.452069 145.940377 
z
" style="fill:#008000;"/>
   </g>
   <g id="patch_37">
    <path clip-path="url(#p713220c6d7)" d="M 583.80531 127.3 
L 615.079646 127.3 
L 615.079646 130.244921 
L 603.828158 130.244921 
L 603.828158 142.4 
L 595.078617 142.4 
L 595.078617 130.244921 
L 583.80531 130.244921 
z
" style="fill:#ff0000;"/>
   </g>
   <g id="patch_38">
    <path clip-path="url(#p713220c6d7)" d="M 615.079646 125.135282 
Q 612.463602 126.208283 609.634807 126.751023 
Q 606.806012 127.3 603.725068 127.3 
Q 594.537395 127.3 589.171352 123.232576 
Q 583.80531 119.165152 583.80531 112.209358 
Q 583.80531 105.22861 589.171352 101.167424 
Q 594.537395 97.1 603.725068 97.1 
Q 606.806012 97.1 609.634807 97.648977 
Q 612.463602 98.191717 615.079646 99.264718 
L 615.079646 105.284755 
Q 612.439963 103.862404 609.879076 103.201136 
Q 607.318189 102.539868 604.489395 102.539868 
Q 599.414899 102.539868 596.507308 105.116319 
Q 593.607596 107.686532 593.607596 112.209358 
Q 593.607596 116.713468 596.507308 119.289919 
Q 599.414899 121.860132 604.489395 121.860132 
Q 607.318189 121.860132 609.879076 121.198864 
Q 612.439963 120.531357 615.079646 119.109006 
z
" style="fill:#0000ff;"/>
   </g>
   <g id="patch_39">
    <path clip-path="url(#p713220c6d7)" d="M 615.079646 90.268973 
Q 611.925578 93.684487 608.533203 95.400041 
Q 605.140827 97.1 601.524163 97.1 
Q 593.351622 97.1 588.578466 86.93144 
Q 583.80531 76.76288 583.80531 59.373394 
Q 583.80531 41.781161 588.662574 31.69058 
Q 593.526848 21.6 601.986759 21.6 
Q 605.245963 21.6 608.231814 22.972444 
Q 611.224674 24.329291 613.874091 27.011795 
L 613.874091 42.061888 
Q 611.140566 38.615183 608.435076 36.915224 
Q 605.729587 35.199669 603.010079 35.199669 
Q 597.977589 35.199669 595.251072 41.469242 
Q 592.524555 47.723218 592.524555 59.373394 
Q 592.524555 70.914398 595.152945 77.215162 
Q 597.781335 83.500331 602.617573 83.500331 
Q 603.935272 83.500331 605.063728 83.141624 
Q 606.192183 82.767321 607.08934 81.987523 
L 607.08934 67.857591 
L 601.937696 67.857591 
L 601.937696 55.271659 
L 615.079646 55.271659 
z
" style="fill:#ffa600;"/>
   </g>
   <g id="patch_40">
    <path clip-path="url(#p713220c6d7)" d="M 648 156.133795 
Q 644.845932 156.816897 641.453557 157.160008 
Q 638.061181 157.5 634.444517 157.5 
Q 626.271976 157.5 621.49882 155.466288 
Q 616.725664 153.432576 616.725664 149.954679 
Q 616.725664 146.436232 621.582928 144.418116 
Q 626.447202 142.4 634.907113 142.4 
Q 638.166317 142.4 641.152168 142.674489 
Q 644.145028 142.945858 646.794445 143.482359 
L 646.794445 146.492378 
Q 644.06092 145.803037 641.35543 145.463045 
Q 638.649941 145.119934 635.930433 145.119934 
Q 630.897943 145.119934 628.171426 146.373848 
Q 625.444909 147.624644 625.444909 149.954679 
Q 625.444909 152.26288 628.073299 153.523032 
Q 630.701689 154.780066 635.537927 154.780066 
Q 636.855626 154.780066 637.984082 154.708325 
Q 639.112537 154.633464 640.009694 154.477505 
L 640.009694 151.651518 
L 634.85805 151.651518 
L 634.85805 149.134332 
L 648 149.134332 
z
" style="fill:#ffa600;"/>
   </g>
   <g id="patch_41">
    <path clip-path="url(#p713220c6d7)" d="M 616.725664 112.2 
L 648 112.2 
L 648 118.089841 
L 636.748512 118.089841 
L 636.748512 142.4 
L 627.998971 142.4 
L 627.998971 118.089841 
L 616.725664 118.089841 
z
" style="fill:#ff0000;"/>
   </g>
   <g id="patch_42">
    <path clip-path="url(#p713220c6d7)" d="M 638.389424 95.695499 
L 626.361817 95.695499 
L 624.462721 112.2 
L 616.725664 112.2 
L 627.774949 21.6 
L 636.950715 21.6 
L 648 112.2 
L 640.269337 112.2 
z
M 628.280095 78.880326 
L 636.451963 78.880326 
L 632.372423 42.842263 
z
" style="fill:#008000;"/>
   </g>
  </g>
 </g>
 <defs>
  <clipPath id="p713220c6d7">
   <rect height="135.9" width="558" x="90" y="21.6"/>
  </clipPath>
 </defs>
</svg>
