<?xml version="1.0" encoding="utf-8" standalone="no"?>
<!DOCTYPE svg PUBLIC "-//W3C//DTD SVG 1.1//EN"
  "http://www.w3.org/Graphics/SVG/1.1/DTD/svg11.dtd">
<!-- Created with matplotlib (https://matplotlib.org/) -->
<svg height="180pt" version="1.1" viewBox="0 0 720 180" width="720pt" xmlns="http://www.w3.org/2000/svg" xmlns:xlink="http://www.w3.org/1999/xlink">
 <metadata>
  <rdf:RDF xmlns:cc="http://creativecommons.org/ns#" xmlns:dc="http://purl.org/dc/elements/1.1/" xmlns:rdf="http://www.w3.org/1999/02/22-rdf-syntax-ns#">
   <cc:Work>
    <dc:type rdf:resource="http://purl.org/dc/dcmitype/StillImage"/>
    <dc:date>2021-08-04T23:33:43.112289</dc:date>
    <dc:format>image/svg+xml</dc:format>
    <dc:creator>
     <cc:Agent>
      <dc:title>Matplotlib v3.3.2, https://matplotlib.org/</dc:title>
     </cc:Agent>
    </dc:creator>
   </cc:Work>
  </rdf:RDF>
 </metadata>
 <defs>
  <style type="text/css">*{stroke-linecap:butt;stroke-linejoin:round;}</style>
 </defs>
 <g id="figure_1">
  <g id="patch_1">
   <path d="M 0 180 
L 720 180 
L 720 0 
L 0 0 
z
" style="fill:none;"/>
  </g>
  <g id="axes_1">
   <g id="line2d_1">
    <path clip-path="url(#p8093fe6e7c)" d="M 90 157.5 
L 648 157.5 
" style="fill:none;stroke:#000000;stroke-linecap:square;stroke-width:0.5;"/>
   </g>
   <g id="patch_2">
    <path clip-path="url(#p8093fe6e7c)" d="M 111.66376 149.24775 
L 99.636153 149.24775 
L 97.737057 157.5 
L 90 157.5 
L 101.049285 112.2 
L 110.225051 112.2 
L 121.274336 157.5 
L 113.543673 157.5 
z
M 101.554432 140.840163 
L 109.726299 140.840163 
L 105.64676 122.821132 
z
" style="fill:#008000;"/>
   </g>
   <g id="patch_3">
    <path clip-path="url(#p8093fe6e7c)" d="M 121.274336 108.952923 
Q 118.658292 110.562425 115.829497 111.376534 
Q 113.000702 112.2 109.919759 112.2 
Q 100.732085 112.2 95.366043 106.098864 
Q 90 99.997728 90 89.564036 
Q 90 79.092915 95.366043 73.001136 
Q 100.732085 66.9 109.919759 66.9 
Q 113.000702 66.9 115.829497 67.723466 
Q 118.658292 68.537575 121.274336 70.147077 
L 121.274336 79.177133 
Q 118.634653 77.043607 116.073766 76.051704 
Q 113.51288 75.059802 110.684085 75.059802 
Q 105.609589 75.059802 102.701998 78.924478 
Q 99.802286 82.779798 99.802286 89.564036 
Q 99.802286 96.320202 102.701998 100.184879 
Q 105.609589 104.040198 110.684085 104.040198 
Q 113.51288 104.040198 116.073766 103.048296 
Q 118.634653 102.047036 121.274336 99.91351 
z
" style="fill:#0000ff;"/>
   </g>
   <g id="patch_4">
    <path clip-path="url(#p8093fe6e7c)" d="M 121.274336 62.801384 
Q 118.120268 64.850692 114.727893 65.880025 
Q 111.335518 66.9 107.718853 66.9 
Q 99.546312 66.9 94.773156 60.798864 
Q 90 54.697728 90 44.264036 
Q 90 33.708697 94.857265 27.654348 
Q 99.721538 21.6 108.18145 21.6 
Q 111.440653 21.6 114.426504 22.423466 
Q 117.419364 23.237575 120.068781 24.847077 
L 120.068781 33.877133 
Q 117.335256 31.80911 114.629766 30.789134 
Q 111.924277 29.759802 109.204769 29.759802 
Q 104.172279 29.759802 101.445762 33.521545 
Q 98.719246 37.273931 98.719246 44.264036 
Q 98.719246 51.188639 101.347636 54.969097 
Q 103.976026 58.740198 108.812263 58.740198 
Q 110.129963 58.740198 111.258418 58.524974 
Q 112.386874 58.300392 113.284031 57.832514 
L 113.284031 49.354555 
L 108.132386 49.354555 
L 108.132386 41.802995 
L 121.274336 41.802995 
z
" style="fill:#ffa600;"/>
   </g>
   <g id="patch_5">
    <path clip-path="url(#p8093fe6e7c)" d="M 154.19469 154.767589 
Q 151.040622 156.133795 147.648247 156.820017 
Q 144.255872 157.5 140.639207 157.5 
Q 132.466666 157.5 127.69351 153.432576 
Q 122.920354 149.365152 122.920354 142.409358 
Q 122.920354 135.372464 127.777619 131.336232 
Q 132.641892 127.3 141.101804 127.3 
Q 144.361007 127.3 147.346858 127.848977 
Q 150.339718 128.391717 152.989135 129.464718 
L 152.989135 135.484755 
Q 150.25561 134.106073 147.55012 133.42609 
Q 144.844631 132.739868 142.125123 132.739868 
Q 137.092633 132.739868 134.366116 135.247697 
Q 131.6396 137.749287 131.6396 142.409358 
Q 131.6396 147.025759 134.26799 149.546065 
Q 136.89638 152.060132 141.732617 152.060132 
Q 143.050317 152.060132 144.178772 151.916649 
Q 145.307228 151.766928 146.204385 151.455009 
L 146.204385 145.803037 
L 141.05274 145.803037 
L 141.05274 140.768663 
L 154.19469 140.768663 
z
" style="fill:#ffa600;"/>
   </g>
   <g id="patch_6">
    <path clip-path="url(#p8093fe6e7c)" d="M 122.920354 82 
L 154.19469 82 
L 154.19469 90.834762 
L 142.943202 90.834762 
L 142.943202 127.3 
L 134.193661 127.3 
L 134.193661 90.834762 
L 122.920354 90.834762 
z
" style="fill:#ff0000;"/>
   </g>
   <g id="patch_7">
    <path clip-path="url(#p8093fe6e7c)" d="M 154.19469 77.670564 
Q 151.578646 79.816567 148.749851 80.902045 
Q 145.921056 82 142.840113 82 
Q 133.652439 82 128.286397 73.865152 
Q 122.920354 65.730304 122.920354 51.818715 
Q 122.920354 37.85722 128.286397 29.734848 
Q 133.652439 21.6 142.840113 21.6 
Q 145.921056 21.6 148.749851 22.697955 
Q 151.578646 23.783433 154.19469 25.929436 
L 154.19469 37.96951 
Q 151.555007 35.124809 148.99412 33.802272 
Q 146.433234 32.479736 143.604439 32.479736 
Q 138.529943 32.479736 135.622352 37.632638 
Q 132.72264 42.773063 132.72264 51.818715 
Q 132.72264 60.826937 135.622352 65.979839 
Q 138.529943 71.120264 143.604439 71.120264 
Q 146.433234 71.120264 148.99412 69.797728 
Q 151.555007 68.462714 154.19469 65.618013 
z
" style="fill:#0000ff;"/>
   </g>
   <g id="patch_8">
    <path clip-path="url(#p8093fe6e7c)" d="M 187.115044 156.133795 
Q 183.960976 156.816897 180.568601 157.160008 
Q 177.176226 157.5 173.559561 157.5 
Q 165.38702 157.5 160.613864 155.466288 
Q 155.840708 153.432576 155.840708 149.954679 
Q 155.840708 146.436232 160.697973 144.418116 
Q 165.562246 142.4 174.022158 142.4 
Q 177.281361 142.4 180.267212 142.674489 
Q 183.260072 142.945858 185.909489 143.482359 
L 185.909489 146.492378 
Q 183.175964 145.803037 180.470474 145.463045 
Q 177.764985 145.119934 175.045477 145.119934 
Q 170.012987 145.119934 167.28647 146.373848 
Q 164.559954 147.624644 164.559954 149.954679 
Q 164.559954 152.26288 167.188344 153.523032 
Q 169.816734 154.780066 174.652971 154.780066 
Q 175.970671 154.780066 177.099126 154.708325 
Q 178.227582 154.633464 179.124739 154.477505 
L 179.124739 151.651518 
L 173.973094 151.651518 
L 173.973094 149.134332 
L 187.115044 149.134332 
z
" style="fill:#ffa600;"/>
   </g>
   <g id="patch_9">
    <path clip-path="url(#p8093fe6e7c)" d="M 155.840708 97.1 
L 187.115044 97.1 
L 187.115044 105.934762 
L 175.863556 105.934762 
L 175.863556 142.4 
L 167.114015 142.4 
L 167.114015 105.934762 
L 155.840708 105.934762 
z
" style="fill:#ff0000;"/>
   </g>
   <g id="patch_10">
    <path clip-path="url(#p8093fe6e7c)" d="M 187.115044 91.688205 
Q 184.499 94.370709 181.670205 95.727556 
Q 178.84141 97.1 175.760467 97.1 
Q 166.572793 97.1 161.206751 86.93144 
Q 155.840708 76.76288 155.840708 59.373394 
Q 155.840708 41.921524 161.206751 31.76856 
Q 166.572793 21.6 175.760467 21.6 
Q 178.84141 21.6 181.670205 22.972444 
Q 184.499 24.329291 187.115044 27.011795 
L 187.115044 42.061888 
Q 184.475361 38.506011 181.914474 36.85284 
Q 179.353588 35.199669 176.524793 35.199669 
Q 171.450297 35.199669 168.542706 41.640797 
Q 165.642994 48.066329 165.642994 59.373394 
Q 165.642994 70.633671 168.542706 77.074799 
Q 171.450297 83.500331 176.524793 83.500331 
Q 179.353588 83.500331 181.914474 81.84716 
Q 184.475361 80.178393 187.115044 76.622516 
z
" style="fill:#0000ff;"/>
   </g>
   <g id="patch_11">
    <path clip-path="url(#p8093fe6e7c)" d="M 220.035398 147.758769 
Q 217.419354 152.587275 214.590559 155.029601 
Q 211.761764 157.5 208.680821 157.5 
Q 199.493147 157.5 194.127105 139.196592 
Q 188.761062 120.893183 188.761062 89.592109 
Q 188.761062 58.178744 194.127105 39.903408 
Q 199.493147 21.6 208.680821 21.6 
Q 211.761764 21.6 214.590559 24.070399 
Q 217.419354 26.512725 220.035398 31.341231 
L 220.035398 58.431398 
Q 217.395715 52.03082 214.834828 49.055113 
Q 212.273942 46.079405 209.445147 46.079405 
Q 204.370651 46.079405 201.46306 57.673435 
Q 198.563348 69.239393 198.563348 89.592109 
Q 198.563348 109.860607 201.46306 121.454637 
Q 204.370651 133.020595 209.445147 133.020595 
Q 212.273942 133.020595 214.834828 130.044887 
Q 217.395715 127.041107 220.035398 120.640529 
z
" style="fill:#0000ff;"/>
   </g>
   <g id="patch_12">
    <path clip-path="url(#p8093fe6e7c)" d="M 252.955752 147.758769 
Q 250.339708 152.587275 247.510913 155.029601 
Q 244.682118 157.5 241.601175 157.5 
Q 232.413501 157.5 227.047459 139.196592 
Q 221.681416 120.893183 221.681416 89.592109 
Q 221.681416 58.178744 227.047459 39.903408 
Q 232.413501 21.6 241.601175 21.6 
Q 244.682118 21.6 247.510913 24.070399 
Q 250.339708 26.512725 252.955752 31.341231 
L 252.955752 58.431398 
Q 250.316069 52.03082 247.755182 49.055113 
Q 245.194296 46.079405 242.365501 46.079405 
Q 237.291005 46.079405 234.383414 57.673435 
Q 231.483702 69.239393 231.483702 89.592109 
Q 231.483702 109.860607 234.383414 121.454637 
Q 237.291005 133.020595 242.365501 133.020595 
Q 245.194296 133.020595 247.755182 130.044887 
Q 250.316069 127.041107 252.955752 120.640529 
z
" style="fill:#0000ff;"/>
   </g>
   <g id="patch_13">
    <path clip-path="url(#p8093fe6e7c)" d="M 285.876106 147.758769 
Q 283.260062 152.587275 280.431267 155.029601 
Q 277.602472 157.5 274.521529 157.5 
Q 265.333855 157.5 259.967812 139.196592 
Q 254.60177 120.893183 254.60177 89.592109 
Q 254.60177 58.178744 259.967812 39.903408 
Q 265.333855 21.6 274.521529 21.6 
Q 277.602472 21.6 280.431267 24.070399 
Q 283.260062 26.512725 285.876106 31.341231 
L 285.876106 58.431398 
Q 283.236423 52.03082 280.675536 49.055113 
Q 278.11465 46.079405 275.285855 46.079405 
Q 270.211359 46.079405 267.303768 57.673435 
Q 264.404056 69.239393 264.404056 89.592109 
Q 264.404056 109.860607 267.303768 121.454637 
Q 270.211359 133.020595 275.285855 133.020595 
Q 278.11465 133.020595 280.675536 130.044887 
Q 283.236423 127.041107 285.876106 120.640529 
z
" style="fill:#0000ff;"/>
   </g>
   <g id="patch_14">
    <path clip-path="url(#p8093fe6e7c)" d="M 318.79646 147.758769 
Q 316.180416 152.587275 313.351621 155.029601 
Q 310.522826 157.5 307.441883 157.5 
Q 298.254209 157.5 292.888166 139.196592 
Q 287.522124 120.893183 287.522124 89.592109 
Q 287.522124 58.178744 292.888166 39.903408 
Q 298.254209 21.6 307.441883 21.6 
Q 310.522826 21.6 313.351621 24.070399 
Q 316.180416 26.512725 318.79646 31.341231 
L 318.79646 58.431398 
Q 316.156777 52.03082 313.59589 49.055113 
Q 311.035004 46.079405 308.206209 46.079405 
Q 303.131713 46.079405 300.224122 57.673435 
Q 297.32441 69.239393 297.32441 89.592109 
Q 297.32441 109.860607 300.224122 121.454637 
Q 303.131713 133.020595 308.206209 133.020595 
Q 311.035004 133.020595 313.59589 130.044887 
Q 316.156777 127.041107 318.79646 120.640529 
z
" style="fill:#0000ff;"/>
   </g>
   <g id="patch_15">
    <path clip-path="url(#p8093fe6e7c)" d="M 351.716814 147.758769 
Q 349.10077 152.587275 346.271975 155.029601 
Q 343.44318 157.5 340.362237 157.5 
Q 331.174563 157.5 325.80852 139.196592 
Q 320.442478 120.893183 320.442478 89.592109 
Q 320.442478 58.178744 325.80852 39.903408 
Q 331.174563 21.6 340.362237 21.6 
Q 343.44318 21.6 346.271975 24.070399 
Q 349.10077 26.512725 351.716814 31.341231 
L 351.716814 58.431398 
Q 349.077131 52.03082 346.516244 49.055113 
Q 343.955358 46.079405 341.126563 46.079405 
Q 336.052067 46.079405 333.144476 57.673435 
Q 330.244764 69.239393 330.244764 89.592109 
Q 330.244764 109.860607 333.144476 121.454637 
Q 336.052067 133.020595 341.126563 133.020595 
Q 343.955358 133.020595 346.516244 130.044887 
Q 349.077131 127.041107 351.716814 120.640529 
z
" style="fill:#0000ff;"/>
   </g>
   <g id="patch_16">
    <path clip-path="url(#p8093fe6e7c)" d="M 384.637168 154.767589 
Q 381.4831 156.133795 378.090725 156.820017 
Q 374.698349 157.5 371.081685 157.5 
Q 362.909144 157.5 358.135988 153.432576 
Q 353.362832 149.365152 353.362832 142.409358 
Q 353.362832 135.372464 358.220097 131.336232 
Q 363.08437 127.3 371.544282 127.3 
Q 374.803485 127.3 377.789336 127.848977 
Q 380.782196 128.391717 383.431613 129.464718 
L 383.431613 135.484755 
Q 380.698088 134.106073 377.992598 133.42609 
Q 375.287109 132.739868 372.567601 132.739868 
Q 367.535111 132.739868 364.808594 135.247697 
Q 362.082078 137.749287 362.082078 142.409358 
Q 362.082078 147.025759 364.710468 149.546065 
Q 367.338858 152.060132 372.175095 152.060132 
Q 373.492795 152.060132 374.62125 151.916649 
Q 375.749705 151.766928 376.646863 151.455009 
L 376.646863 145.803037 
L 371.495218 145.803037 
L 371.495218 140.768663 
L 384.637168 140.768663 
z
" style="fill:#ffa600;"/>
   </g>
   <g id="patch_17">
    <path clip-path="url(#p8093fe6e7c)" d="M 384.637168 119.723487 
Q 382.021124 123.478992 379.192329 125.378579 
Q 376.363534 127.3 373.282591 127.3 
Q 364.094917 127.3 358.728874 113.064016 
Q 353.362832 98.828031 353.362832 74.482751 
Q 353.362832 50.050134 358.728874 35.835984 
Q 364.094917 21.6 373.282591 21.6 
Q 376.363534 21.6 379.192329 23.521421 
Q 382.021124 25.421008 384.637168 29.176513 
L 384.637168 50.246643 
Q 381.997485 45.268416 379.436598 42.953976 
Q 376.875712 40.639537 374.046917 40.639537 
Q 368.972421 40.639537 366.06483 49.657116 
Q 363.165118 58.652861 363.165118 74.482751 
Q 363.165118 90.247139 366.06483 99.264718 
Q 368.972421 108.260463 374.046917 108.260463 
Q 376.875712 108.260463 379.436598 105.946024 
Q 381.997485 103.60975 384.637168 98.631522 
z
" style="fill:#0000ff;"/>
   </g>
   <g id="patch_18">
    <path clip-path="url(#p8093fe6e7c)" d="M 417.557522 154.767589 
Q 414.403454 156.133795 411.011079 156.820017 
Q 407.618703 157.5 404.002039 157.5 
Q 395.829498 157.5 391.056342 153.432576 
Q 386.283186 149.365152 386.283186 142.409358 
Q 386.283186 135.372464 391.140451 131.336232 
Q 396.004724 127.3 404.464635 127.3 
Q 407.723839 127.3 410.70969 127.848977 
Q 413.70255 128.391717 416.351967 129.464718 
L 416.351967 135.484755 
Q 413.618442 134.106073 410.912952 133.42609 
Q 408.207463 132.739868 405.487955 132.739868 
Q 400.455465 132.739868 397.728948 135.247697 
Q 395.002432 137.749287 395.002432 142.409358 
Q 395.002432 147.025759 397.630822 149.546065 
Q 400.259212 152.060132 405.095449 152.060132 
Q 406.413149 152.060132 407.541604 151.916649 
Q 408.670059 151.766928 409.567217 151.455009 
L 409.567217 145.803037 
L 404.415572 145.803037 
L 404.415572 140.768663 
L 417.557522 140.768663 
z
" style="fill:#ffa600;"/>
   </g>
   <g id="patch_19">
    <path clip-path="url(#p8093fe6e7c)" d="M 386.283186 82 
L 417.557522 82 
L 417.557522 90.834762 
L 406.306034 90.834762 
L 406.306034 127.3 
L 397.556493 127.3 
L 397.556493 90.834762 
L 386.283186 90.834762 
z
" style="fill:#ff0000;"/>
   </g>
   <g id="patch_20">
    <path clip-path="url(#p8093fe6e7c)" d="M 417.557522 77.670564 
Q 414.941478 79.816567 412.112683 80.902045 
Q 409.283888 82 406.202945 82 
Q 397.015271 82 391.649228 73.865152 
Q 386.283186 65.730304 386.283186 51.818715 
Q 386.283186 37.85722 391.649228 29.734848 
Q 397.015271 21.6 406.202945 21.6 
Q 409.283888 21.6 412.112683 22.697955 
Q 414.941478 23.783433 417.557522 25.929436 
L 417.557522 37.96951 
Q 414.917839 35.124809 412.356952 33.802272 
Q 409.796066 32.479736 406.967271 32.479736 
Q 401.892775 32.479736 398.985184 37.632638 
Q 396.085472 42.773063 396.085472 51.818715 
Q 396.085472 60.826937 398.985184 65.979839 
Q 401.892775 71.120264 406.967271 71.120264 
Q 409.796066 71.120264 412.356952 69.797728 
Q 414.917839 68.462714 417.557522 65.618013 
z
" style="fill:#0000ff;"/>
   </g>
   <g id="patch_21">
    <path clip-path="url(#p8093fe6e7c)" d="M 450.477876 156.133795 
Q 447.323808 156.816897 443.931433 157.160008 
Q 440.539057 157.5 436.922393 157.5 
Q 428.749852 157.5 423.976696 155.466288 
Q 419.20354 153.432576 419.20354 149.954679 
Q 419.20354 146.436232 424.060805 144.418116 
Q 428.925078 142.4 437.384989 142.4 
Q 440.644193 142.4 443.630044 142.674489 
Q 446.622904 142.945858 449.272321 143.482359 
L 449.272321 146.492378 
Q 446.538796 145.803037 443.833306 145.463045 
Q 441.127817 145.119934 438.408309 145.119934 
Q 433.375819 145.119934 430.649302 146.373848 
Q 427.922786 147.624644 427.922786 149.954679 
Q 427.922786 152.26288 430.551176 153.523032 
Q 433.179565 154.780066 438.015803 154.780066 
Q 439.333503 154.780066 440.461958 154.708325 
Q 441.590413 154.633464 442.487571 154.477505 
L 442.487571 151.651518 
L 437.335926 151.651518 
L 437.335926 149.134332 
L 450.477876 149.134332 
z
" style="fill:#ffa600;"/>
   </g>
   <g id="patch_22">
    <path clip-path="url(#p8093fe6e7c)" d="M 419.20354 97.1 
L 450.477876 97.1 
L 450.477876 105.934762 
L 439.226388 105.934762 
L 439.226388 142.4 
L 430.476847 142.4 
L 430.476847 105.934762 
L 419.20354 105.934762 
z
" style="fill:#ff0000;"/>
   </g>
   <g id="patch_23">
    <path clip-path="url(#p8093fe6e7c)" d="M 450.477876 91.688205 
Q 447.861832 94.370709 445.033037 95.727556 
Q 442.204242 97.1 439.123298 97.1 
Q 429.935625 97.1 424.569582 86.93144 
Q 419.20354 76.76288 419.20354 59.373394 
Q 419.20354 41.921524 424.569582 31.76856 
Q 429.935625 21.6 439.123298 21.6 
Q 442.204242 21.6 445.033037 22.972444 
Q 447.861832 24.329291 450.477876 27.011795 
L 450.477876 42.061888 
Q 447.838193 38.506011 445.277306 36.85284 
Q 442.71642 35.199669 439.887625 35.199669 
Q 434.813129 35.199669 431.905538 41.640797 
Q 429.005826 48.066329 429.005826 59.373394 
Q 429.005826 70.633671 431.905538 77.074799 
Q 434.813129 83.500331 439.887625 83.500331 
Q 442.71642 83.500331 445.277306 81.84716 
Q 447.838193 80.178393 450.477876 76.622516 
z
" style="fill:#0000ff;"/>
   </g>
   <g id="patch_24">
    <path clip-path="url(#p8093fe6e7c)" d="M 473.787654 154.74925 
L 461.760047 154.74925 
L 459.860951 157.5 
L 452.123894 157.5 
L 463.173179 142.4 
L 472.348945 142.4 
L 483.39823 157.5 
L 475.667567 157.5 
z
M 463.678326 151.946721 
L 471.850193 151.946721 
L 467.770653 145.940377 
z
" style="fill:#008000;"/>
   </g>
   <g id="patch_25">
    <path clip-path="url(#p8093fe6e7c)" d="M 452.123894 97.1 
L 483.39823 97.1 
L 483.39823 105.934762 
L 472.146742 105.934762 
L 472.146742 142.4 
L 463.397201 142.4 
L 463.397201 105.934762 
L 452.123894 105.934762 
z
" style="fill:#ff0000;"/>
   </g>
   <g id="patch_26">
    <path clip-path="url(#p8093fe6e7c)" d="M 483.39823 90.268973 
Q 480.244162 93.684487 476.851787 95.400041 
Q 473.459411 97.1 469.842747 97.1 
Q 461.670206 97.1 456.89705 86.93144 
Q 452.123894 76.76288 452.123894 59.373394 
Q 452.123894 41.781161 456.981158 31.69058 
Q 461.845432 21.6 470.305343 21.6 
Q 473.564547 21.6 476.550398 22.972444 
Q 479.543258 24.329291 482.192675 27.011795 
L 482.192675 42.061888 
Q 479.45915 38.615183 476.75366 36.915224 
Q 474.048171 35.199669 471.328663 35.199669 
Q 466.296173 35.199669 463.569656 41.469242 
Q 460.84314 47.723218 460.84314 59.373394 
Q 460.84314 70.914398 463.471529 77.215162 
Q 466.099919 83.500331 470.936157 83.500331 
Q 472.253857 83.500331 473.382312 83.141624 
Q 474.510767 82.767321 475.407925 81.987523 
L 475.407925 67.857591 
L 470.25628 67.857591 
L 470.25628 55.271659 
L 483.39823 55.271659 
z
" style="fill:#ffa600;"/>
   </g>
   <g id="patch_27">
    <path clip-path="url(#p8093fe6e7c)" d="M 485.044248 127.3 
L 516.318584 127.3 
L 516.318584 133.189841 
L 505.067096 133.189841 
L 505.067096 157.5 
L 496.317555 157.5 
L 496.317555 133.189841 
L 485.044248 133.189841 
z
" style="fill:#ff0000;"/>
   </g>
   <g id="patch_28">
    <path clip-path="url(#p8093fe6e7c)" d="M 506.708008 119.04775 
L 494.680401 119.04775 
L 492.781305 127.3 
L 485.044248 127.3 
L 496.093533 82 
L 505.269299 82 
L 516.318584 127.3 
L 508.587921 127.3 
z
M 496.59868 110.640163 
L 504.770547 110.640163 
L 500.691007 92.621132 
z
" style="fill:#008000;"/>
   </g>
   <g id="patch_29">
    <path clip-path="url(#p8093fe6e7c)" d="M 516.318584 76.535179 
Q 513.164516 79.267589 509.772141 80.640033 
Q 506.379765 82 502.763101 82 
Q 494.59056 82 489.817404 73.865152 
Q 485.044248 65.730304 485.044248 51.818715 
Q 485.044248 37.744929 489.901512 29.672464 
Q 494.765786 21.6 503.225697 21.6 
Q 506.484901 21.6 509.470752 22.697955 
Q 512.463612 23.783433 515.113029 25.929436 
L 515.113029 37.96951 
Q 512.379504 35.212146 509.674014 33.852179 
Q 506.968525 32.479736 504.249017 32.479736 
Q 499.216527 32.479736 496.49001 37.495394 
Q 493.763493 42.498575 493.763493 51.818715 
Q 493.763493 61.051518 496.391883 66.09213 
Q 499.020273 71.120264 503.856511 71.120264 
Q 505.174211 71.120264 506.302666 70.833299 
Q 507.431121 70.533857 508.328279 69.910019 
L 508.328279 58.606073 
L 503.176634 58.606073 
L 503.176634 48.537327 
L 516.318584 48.537327 
z
" style="fill:#ffa600;"/>
   </g>
   <g id="patch_30">
    <path clip-path="url(#p8093fe6e7c)" d="M 539.628362 154.74925 
L 527.600755 154.74925 
L 525.701659 157.5 
L 517.964602 157.5 
L 529.013887 142.4 
L 538.189653 142.4 
L 549.238938 157.5 
L 541.508275 157.5 
z
M 529.519034 151.946721 
L 537.690901 151.946721 
L 533.611361 145.940377 
z
" style="fill:#008000;"/>
   </g>
   <g id="patch_31">
    <path clip-path="url(#p8093fe6e7c)" d="M 549.238938 139.667589 
Q 546.08487 141.033795 542.692495 141.720017 
Q 539.300119 142.4 535.683455 142.4 
Q 527.510914 142.4 522.737758 138.332576 
Q 517.964602 134.265152 517.964602 127.309358 
Q 517.964602 120.272464 522.821866 116.236232 
Q 527.68614 112.2 536.146051 112.2 
Q 539.405255 112.2 542.391106 112.748977 
Q 545.383966 113.291717 548.033383 114.364718 
L 548.033383 120.384755 
Q 545.299858 119.006073 542.594368 118.32609 
Q 539.888879 117.639868 537.169371 117.639868 
Q 532.136881 117.639868 529.410364 120.147697 
Q 526.683847 122.649287 526.683847 127.309358 
Q 526.683847 131.925759 529.312237 134.446065 
Q 531.940627 136.960132 536.776865 136.960132 
Q 538.094565 136.960132 539.22302 136.816649 
Q 540.351475 136.666928 541.248633 136.355009 
L 541.248633 130.703037 
L 536.096988 130.703037 
L 536.096988 125.668663 
L 549.238938 125.668663 
z
" style="fill:#ffa600;"/>
   </g>
   <g id="patch_32">
    <path clip-path="url(#p8093fe6e7c)" d="M 517.964602 82 
L 549.238938 82 
L 549.238938 87.889841 
L 537.98745 87.889841 
L 537.98745 112.2 
L 529.237909 112.2 
L 529.237909 87.889841 
L 517.964602 87.889841 
z
" style="fill:#ff0000;"/>
   </g>
   <g id="patch_33">
    <path clip-path="url(#p8093fe6e7c)" d="M 549.238938 77.670564 
Q 546.622894 79.816567 543.794099 80.902045 
Q 540.965304 82 537.88436 82 
Q 528.696687 82 523.330644 73.865152 
Q 517.964602 65.730304 517.964602 51.818715 
Q 517.964602 37.85722 523.330644 29.734848 
Q 528.696687 21.6 537.88436 21.6 
Q 540.965304 21.6 543.794099 22.697955 
Q 546.622894 23.783433 549.238938 25.929436 
L 549.238938 37.96951 
Q 546.599255 35.124809 544.038368 33.802272 
Q 541.477481 32.479736 538.648687 32.479736 
Q 533.574191 32.479736 530.6666 37.632638 
Q 527.766888 42.773063 527.766888 51.818715 
Q 527.766888 60.826937 530.6666 65.979839 
Q 533.574191 71.120264 538.648687 71.120264 
Q 541.477481 71.120264 544.038368 69.797728 
Q 546.599255 68.462714 549.238938 65.618013 
z
" style="fill:#0000ff;"/>
   </g>
   <g id="patch_34">
    <path clip-path="url(#p8093fe6e7c)" d="M 582.159292 156.133795 
Q 579.005224 156.816897 575.612849 157.160008 
Q 572.220473 157.5 568.603809 157.5 
Q 560.431268 157.5 555.658112 155.466288 
Q 550.884956 153.432576 550.884956 149.954679 
Q 550.884956 146.436232 555.74222 144.418116 
Q 560.606494 142.4 569.066405 142.4 
Q 572.325609 142.4 575.31146 142.674489 
Q 578.30432 142.945858 580.953737 143.482359 
L 580.953737 146.492378 
Q 578.220212 145.803037 575.514722 145.463045 
Q 572.809233 145.119934 570.089725 145.119934 
Q 565.057235 145.119934 562.330718 146.373848 
Q 559.604201 147.624644 559.604201 149.954679 
Q 559.604201 152.26288 562.232591 153.523032 
Q 564.860981 154.780066 569.697219 154.780066 
Q 571.014919 154.780066 572.143374 154.708325 
Q 573.271829 154.633464 574.168986 154.477505 
L 574.168986 151.651518 
L 569.017342 151.651518 
L 569.017342 149.134332 
L 582.159292 149.134332 
z
" style="fill:#ffa600;"/>
   </g>
   <g id="patch_35">
    <path clip-path="url(#p8093fe6e7c)" d="M 572.548716 131.397 
L 560.521109 131.397 
L 558.622013 142.4 
L 550.884956 142.4 
L 561.934241 82 
L 571.110007 82 
L 582.159292 142.4 
L 574.428629 142.4 
z
M 562.439387 120.186884 
L 570.611255 120.186884 
L 566.531715 96.161509 
z
" style="fill:#008000;"/>
   </g>
   <g id="patch_36">
    <path clip-path="url(#p8093fe6e7c)" d="M 582.159292 77.670564 
Q 579.543248 79.816567 576.714453 80.902045 
Q 573.885658 82 570.804714 82 
Q 561.617041 82 556.250998 73.865152 
Q 550.884956 65.730304 550.884956 51.818715 
Q 550.884956 37.85722 556.250998 29.734848 
Q 561.617041 21.6 570.804714 21.6 
Q 573.885658 21.6 576.714453 22.697955 
Q 579.543248 23.783433 582.159292 25.929436 
L 582.159292 37.96951 
Q 579.519609 35.124809 576.958722 33.802272 
Q 574.397835 32.479736 571.569041 32.479736 
Q 566.494545 32.479736 563.586954 37.632638 
Q 560.687242 42.773063 560.687242 51.818715 
Q 560.687242 60.826937 563.586954 65.979839 
Q 566.494545 71.120264 571.569041 71.120264 
Q 574.397835 71.120264 576.958722 69.797728 
Q 579.519609 68.462714 582.159292 65.618013 
z
" style="fill:#0000ff;"/>
   </g>
   <g id="patch_37">
    <path clip-path="url(#p8093fe6e7c)" d="M 615.079646 156.417641 
Q 612.463602 156.954142 609.634807 157.225511 
Q 606.806012 157.5 603.725068 157.5 
Q 594.537395 157.5 589.171352 155.466288 
Q 583.80531 153.432576 583.80531 149.954679 
Q 583.80531 146.464305 589.171352 144.433712 
Q 594.537395 142.4 603.725068 142.4 
Q 606.806012 142.4 609.634807 142.674489 
Q 612.463602 142.945858 615.079646 143.482359 
L 615.079646 146.492378 
Q 612.439963 145.781202 609.879076 145.450568 
Q 607.318189 145.119934 604.489395 145.119934 
Q 599.414899 145.119934 596.507308 146.408159 
Q 593.607596 147.693266 593.607596 149.954679 
Q 593.607596 152.206734 596.507308 153.49496 
Q 599.414899 154.780066 604.489395 154.780066 
Q 607.318189 154.780066 609.879076 154.449432 
Q 612.439963 154.115679 615.079646 153.404503 
z
" style="fill:#0000ff;"/>
   </g>
   <g id="patch_38">
    <path clip-path="url(#p8093fe6e7c)" d="M 583.80531 112.2 
L 615.079646 112.2 
L 615.079646 118.089841 
L 603.828158 118.089841 
L 603.828158 142.4 
L 595.078617 142.4 
L 595.078617 118.089841 
L 583.80531 118.089841 
z
" style="fill:#ff0000;"/>
   </g>
   <g id="patch_39">
    <path clip-path="url(#p8093fe6e7c)" d="M 605.46907 103.94775 
L 593.441463 103.94775 
L 591.542367 112.2 
L 583.80531 112.2 
L 594.854595 66.9 
L 604.030361 66.9 
L 615.079646 112.2 
L 607.348983 112.2 
z
M 595.359741 95.540163 
L 603.531609 95.540163 
L 599.452069 77.521132 
z
" style="fill:#008000;"/>
   </g>
   <g id="patch_40">
    <path clip-path="url(#p8093fe6e7c)" d="M 615.079646 62.801384 
Q 611.925578 64.850692 608.533203 65.880025 
Q 605.140827 66.9 601.524163 66.9 
Q 593.351622 66.9 588.578466 60.798864 
Q 583.80531 54.697728 583.80531 44.264036 
Q 583.80531 33.708697 588.662574 27.654348 
Q 593.526848 21.6 601.986759 21.6 
Q 605.245963 21.6 608.231814 22.423466 
Q 611.224674 23.237575 613.874091 24.847077 
L 613.874091 33.877133 
Q 611.140566 31.80911 608.435076 30.789134 
Q 605.729587 29.759802 603.010079 29.759802 
Q 597.977589 29.759802 595.251072 33.521545 
Q 592.524555 37.273931 592.524555 44.264036 
Q 592.524555 51.188639 595.152945 54.969097 
Q 597.781335 58.740198 602.617573 58.740198 
Q 603.935272 58.740198 605.063728 58.524974 
Q 606.192183 58.300392 607.08934 57.832514 
L 607.08934 49.354555 
L 601.937696 49.354555 
L 601.937696 41.802995 
L 615.079646 41.802995 
z
" style="fill:#ffa600;"/>
   </g>
   <g id="patch_41">
    <path clip-path="url(#p8093fe6e7c)" d="M 648 155.335282 
Q 645.383956 156.408283 642.555161 156.951023 
Q 639.726366 157.5 636.645422 157.5 
Q 627.457749 157.5 622.091706 153.432576 
Q 616.725664 149.365152 616.725664 142.409358 
Q 616.725664 135.42861 622.091706 131.367424 
Q 627.457749 127.3 636.645422 127.3 
Q 639.726366 127.3 642.555161 127.848977 
Q 645.383956 128.391717 648 129.464718 
L 648 135.484755 
Q 645.360317 134.062404 642.79943 133.401136 
Q 640.238543 132.739868 637.409749 132.739868 
Q 632.335253 132.739868 629.427662 135.316319 
Q 626.52795 137.886532 626.52795 142.409358 
Q 626.52795 146.913468 629.427662 149.489919 
Q 632.335253 152.060132 637.409749 152.060132 
Q 640.238543 152.060132 642.79943 151.398864 
Q 645.360317 150.731357 648 149.309006 
z
" style="fill:#0000ff;"/>
   </g>
   <g id="patch_42">
    <path clip-path="url(#p8093fe6e7c)" d="M 648 124.567589 
Q 644.845932 125.933795 641.453557 126.620017 
Q 638.061181 127.3 634.444517 127.3 
Q 626.271976 127.3 621.49882 123.232576 
Q 616.725664 119.165152 616.725664 112.209358 
Q 616.725664 105.172464 621.582928 101.136232 
Q 626.447202 97.1 634.907113 97.1 
Q 638.166317 97.1 641.152168 97.648977 
Q 644.145028 98.191717 646.794445 99.264718 
L 646.794445 105.284755 
Q 644.06092 103.906073 641.35543 103.22609 
Q 638.649941 102.539868 635.930433 102.539868 
Q 630.897943 102.539868 628.171426 105.047697 
Q 625.444909 107.549287 625.444909 112.209358 
Q 625.444909 116.825759 628.073299 119.346065 
Q 630.701689 121.860132 635.537927 121.860132 
Q 636.855626 121.860132 637.984082 121.716649 
Q 639.112537 121.566928 640.009694 121.255009 
L 640.009694 115.603037 
L 634.85805 115.603037 
L 634.85805 110.568663 
L 648 110.568663 
z
" style="fill:#ffa600;"/>
   </g>
   <g id="patch_43">
    <path clip-path="url(#p8093fe6e7c)" d="M 616.725664 66.9 
L 648 66.9 
L 648 72.789841 
L 636.748512 72.789841 
L 636.748512 97.1 
L 627.998971 97.1 
L 627.998971 72.789841 
L 616.725664 72.789841 
z
" style="fill:#ff0000;"/>
   </g>
   <g id="patch_44">
    <path clip-path="url(#p8093fe6e7c)" d="M 638.389424 58.64775 
L 626.361817 58.64775 
L 624.462721 66.9 
L 616.725664 66.9 
L 627.774949 21.6 
L 636.950715 21.6 
L 648 66.9 
L 640.269337 66.9 
z
M 628.280095 50.240163 
L 636.451963 50.240163 
L 632.372423 32.221132 
z
" style="fill:#008000;"/>
   </g>
  </g>
 </g>
 <defs>
  <clipPath id="p8093fe6e7c">
   <rect height="135.9" width="558" x="90" y="21.6"/>
  </clipPath>
 </defs>
</svg>
