<?xml version="1.0" encoding="utf-8" standalone="no"?>
<!DOCTYPE svg PUBLIC "-//W3C//DTD SVG 1.1//EN"
  "http://www.w3.org/Graphics/SVG/1.1/DTD/svg11.dtd">
<!-- Created with matplotlib (https://matplotlib.org/) -->
<svg height="180pt" version="1.1" viewBox="0 0 720 180" width="720pt" xmlns="http://www.w3.org/2000/svg" xmlns:xlink="http://www.w3.org/1999/xlink">
 <metadata>
  <rdf:RDF xmlns:cc="http://creativecommons.org/ns#" xmlns:dc="http://purl.org/dc/elements/1.1/" xmlns:rdf="http://www.w3.org/1999/02/22-rdf-syntax-ns#">
   <cc:Work>
    <dc:type rdf:resource="http://purl.org/dc/dcmitype/StillImage"/>
    <dc:date>2021-08-04T23:33:02.596225</dc:date>
    <dc:format>image/svg+xml</dc:format>
    <dc:creator>
     <cc:Agent>
      <dc:title>Matplotlib v3.3.2, https://matplotlib.org/</dc:title>
     </cc:Agent>
    </dc:creator>
   </cc:Work>
  </rdf:RDF>
 </metadata>
 <defs>
  <style type="text/css">*{stroke-linecap:butt;stroke-linejoin:round;}</style>
 </defs>
 <g id="figure_1">
  <g id="patch_1">
   <path d="M 0 180 
L 720 180 
L 720 0 
L 0 0 
z
" style="fill:none;"/>
  </g>
  <g id="axes_1">
   <g id="line2d_1">
    <path clip-path="url(#p87bb05d37c)" d="M 90 157.5 
L 648 157.5 
" style="fill:none;stroke:#000000;stroke-linecap:square;stroke-width:0.5;"/>
   </g>
   <g id="patch_2">
    <path clip-path="url(#p87bb05d37c)" d="M 143.276382 145.204152 
Q 137.903372 151.352076 132.124401 154.440074 
Q 126.34543 157.5 120.184378 157.5 
Q 106.262311 157.5 98.131156 139.196592 
Q 90 120.893183 90 89.592109 
Q 90 57.92609 98.274436 39.763045 
Q 106.560812 21.6 120.972419 21.6 
Q 126.52453 21.6 131.61098 24.070399 
Q 136.709369 26.512725 141.222698 31.341231 
L 141.222698 58.431398 
Q 136.566089 52.227329 131.95724 49.167403 
Q 127.348391 46.079405 122.715663 46.079405 
Q 114.142726 46.079405 109.498057 57.364635 
Q 104.853388 68.621793 104.853388 89.592109 
Q 104.853388 110.365916 109.330897 121.707292 
Q 113.808406 133.020595 122.047021 133.020595 
Q 124.291746 133.020595 126.214089 132.374923 
Q 128.136433 131.701177 129.664756 130.297542 
L 129.664756 104.863665 
L 120.888839 104.863665 
L 120.888839 82.208986 
L 143.276382 82.208986 
z
" style="fill:#ffa600;"/>
   </g>
   <g id="patch_3">
    <path clip-path="url(#p87bb05d37c)" d="M 199.356784 147.758769 
Q 194.900307 152.587275 190.081405 155.029601 
Q 185.262503 157.5 180.014061 157.5 
Q 164.362698 157.5 155.22155 139.196592 
Q 146.080402 120.893183 146.080402 89.592109 
Q 146.080402 58.178744 155.22155 39.903408 
Q 164.362698 21.6 180.014061 21.6 
Q 185.262503 21.6 190.081405 24.070399 
Q 194.900307 26.512725 199.356784 31.341231 
L 199.356784 58.431398 
Q 194.860037 52.03082 190.497522 49.055113 
Q 186.135006 46.079405 181.316104 46.079405 
Q 172.671612 46.079405 167.718479 57.673435 
Q 162.778769 69.239393 162.778769 89.592109 
Q 162.778769 109.860607 167.718479 121.454637 
Q 172.671612 133.020595 181.316104 133.020595 
Q 186.135006 133.020595 190.497522 130.044887 
Q 194.860037 127.041107 199.356784 120.640529 
z
" style="fill:#0000ff;"/>
   </g>
   <g id="patch_4">
    <path clip-path="url(#p87bb05d37c)" d="M 255.437186 154.252923 
Q 250.980709 155.862425 246.161807 156.676534 
Q 241.342905 157.5 236.094463 157.5 
Q 220.4431 157.5 211.301952 151.398864 
Q 202.160804 145.297728 202.160804 134.864036 
Q 202.160804 124.392915 211.301952 118.301136 
Q 220.4431 112.2 236.094463 112.2 
Q 241.342905 112.2 246.161807 113.023466 
Q 250.980709 113.837575 255.437186 115.447077 
L 255.437186 124.477133 
Q 250.940439 122.343607 246.577924 121.351704 
Q 242.215408 120.359802 237.396506 120.359802 
Q 228.752014 120.359802 223.798881 124.224478 
Q 218.859171 128.079798 218.859171 134.864036 
Q 218.859171 141.620202 223.798881 145.484879 
Q 228.752014 149.340198 237.396506 149.340198 
Q 242.215408 149.340198 246.577924 148.348296 
Q 250.940439 147.347036 255.437186 145.21351 
z
" style="fill:#0000ff;"/>
   </g>
   <g id="patch_5">
    <path clip-path="url(#p87bb05d37c)" d="M 239.065401 95.695499 
L 218.57616 95.695499 
L 215.341017 112.2 
L 202.160804 112.2 
L 220.983455 21.6 
L 236.614535 21.6 
L 255.437186 112.2 
L 242.267866 112.2 
z
M 221.843982 78.880326 
L 235.764901 78.880326 
L 228.815334 42.842263 
z
" style="fill:#008000;"/>
   </g>
   <g id="patch_6">
    <path clip-path="url(#p87bb05d37c)" d="M 295.145803 154.74925 
L 274.656562 154.74925 
L 271.421419 157.5 
L 258.241206 157.5 
L 277.063857 142.4 
L 292.694937 142.4 
L 311.517588 157.5 
L 298.348268 157.5 
z
M 277.924384 151.946721 
L 291.845303 151.946721 
L 284.895736 145.940377 
z
" style="fill:#008000;"/>
   </g>
   <g id="patch_7">
    <path clip-path="url(#p87bb05d37c)" d="M 258.241206 97.1 
L 311.517588 97.1 
L 311.517588 105.934762 
L 292.35048 105.934762 
L 292.35048 142.4 
L 277.445483 142.4 
L 277.445483 105.934762 
L 258.241206 105.934762 
z
" style="fill:#ff0000;"/>
   </g>
   <g id="patch_8">
    <path clip-path="url(#p87bb05d37c)" d="M 311.517588 91.688205 
Q 307.061111 94.370709 302.242209 95.727556 
Q 297.423307 97.1 292.174865 97.1 
Q 276.523502 97.1 267.382354 86.93144 
Q 258.241206 76.76288 258.241206 59.373394 
Q 258.241206 41.921524 267.382354 31.76856 
Q 276.523502 21.6 292.174865 21.6 
Q 297.423307 21.6 302.242209 22.972444 
Q 307.061111 24.329291 311.517588 27.011795 
L 311.517588 42.061888 
Q 307.020841 38.506011 302.658326 36.85284 
Q 298.29581 35.199669 293.476908 35.199669 
Q 284.832416 35.199669 279.879283 41.640797 
Q 274.939573 48.066329 274.939573 59.373394 
Q 274.939573 70.633671 279.879283 77.074799 
Q 284.832416 83.500331 293.476908 83.500331 
Q 298.29581 83.500331 302.658326 81.84716 
Q 307.020841 80.178393 311.517588 76.622516 
z
" style="fill:#0000ff;"/>
   </g>
   <g id="patch_9">
    <path clip-path="url(#p87bb05d37c)" d="M 367.59799 152.035179 
Q 362.22498 154.767589 356.446009 156.140033 
Q 350.667038 157.5 344.505986 157.5 
Q 330.583919 157.5 322.452764 149.365152 
Q 314.321608 141.230304 314.321608 127.318715 
Q 314.321608 113.244929 322.596044 105.172464 
Q 330.88242 97.1 345.294027 97.1 
Q 350.846138 97.1 355.932588 98.197955 
Q 361.030977 99.283433 365.544306 101.429436 
L 365.544306 113.46951 
Q 360.887697 110.712146 356.278848 109.352179 
Q 351.669999 107.979736 347.037271 107.979736 
Q 338.464334 107.979736 333.819665 112.995394 
Q 329.174996 117.998575 329.174996 127.318715 
Q 329.174996 136.551518 333.652505 141.59213 
Q 338.130014 146.620264 346.368629 146.620264 
Q 348.613354 146.620264 350.535697 146.333299 
Q 352.458041 146.033857 353.986364 145.410019 
L 353.986364 134.106073 
L 345.210447 134.106073 
L 345.210447 124.037327 
L 367.59799 124.037327 
z
" style="fill:#ffa600;"/>
   </g>
   <g id="patch_10">
    <path clip-path="url(#p87bb05d37c)" d="M 314.321608 21.6 
L 367.59799 21.6 
L 367.59799 36.324604 
L 348.430882 36.324604 
L 348.430882 97.1 
L 333.525885 97.1 
L 333.525885 36.324604 
L 314.321608 36.324604 
z
" style="fill:#ff0000;"/>
   </g>
   <g id="patch_11">
    <path clip-path="url(#p87bb05d37c)" d="M 407.306607 154.74925 
L 386.817366 154.74925 
L 383.582223 157.5 
L 370.40201 157.5 
L 389.224661 142.4 
L 404.855741 142.4 
L 423.678392 157.5 
L 410.509072 157.5 
z
M 390.085188 151.946721 
L 404.006107 151.946721 
L 397.05654 145.940377 
z
" style="fill:#008000;"/>
   </g>
   <g id="patch_12">
    <path clip-path="url(#p87bb05d37c)" d="M 423.678392 131.470357 
Q 418.305382 136.935179 412.526411 139.680066 
Q 406.74744 142.4 400.586388 142.4 
Q 386.664321 142.4 378.533166 126.130304 
Q 370.40201 109.860607 370.40201 82.03743 
Q 370.40201 53.889857 378.676446 37.744929 
Q 386.962822 21.6 401.374429 21.6 
Q 406.92654 21.6 412.01299 23.79591 
Q 417.111379 25.966866 421.624708 30.258872 
L 421.624708 54.339021 
Q 416.968099 48.824293 412.35925 46.104359 
Q 407.750401 43.359471 403.117673 43.359471 
Q 394.544736 43.359471 389.900067 53.390787 
Q 385.255398 63.397149 385.255398 82.03743 
Q 385.255398 100.503037 389.732907 110.584259 
Q 394.210416 120.640529 402.449031 120.640529 
Q 404.693756 120.640529 406.616099 120.066598 
Q 408.538443 119.467713 410.066766 118.220037 
L 410.066766 95.612146 
L 401.290849 95.612146 
L 401.290849 75.474654 
L 423.678392 75.474654 
z
" style="fill:#ffa600;"/>
   </g>
   <g id="patch_13">
    <path clip-path="url(#p87bb05d37c)" d="M 463.387009 154.74925 
L 442.897768 154.74925 
L 439.662625 157.5 
L 426.482412 157.5 
L 445.305063 142.4 
L 460.936143 142.4 
L 479.758794 157.5 
L 466.589474 157.5 
z
M 446.16559 151.946721 
L 460.086509 151.946721 
L 453.136942 145.940377 
z
" style="fill:#008000;"/>
   </g>
   <g id="patch_14">
    <path clip-path="url(#p87bb05d37c)" d="M 479.758794 141.317641 
Q 475.302317 141.854142 470.483415 142.125511 
Q 465.664513 142.4 460.416071 142.4 
Q 444.764708 142.4 435.62356 140.366288 
Q 426.482412 138.332576 426.482412 134.854679 
Q 426.482412 131.364305 435.62356 129.333712 
Q 444.764708 127.3 460.416071 127.3 
Q 465.664513 127.3 470.483415 127.574489 
Q 475.302317 127.845858 479.758794 128.382359 
L 479.758794 131.392378 
Q 475.262047 130.681202 470.899532 130.350568 
Q 466.537016 130.019934 461.718114 130.019934 
Q 453.073622 130.019934 448.120489 131.308159 
Q 443.180779 132.593266 443.180779 134.854679 
Q 443.180779 137.106734 448.120489 138.39496 
Q 453.073622 139.680066 461.718114 139.680066 
Q 466.537016 139.680066 470.899532 139.349432 
Q 475.262047 139.015679 479.758794 138.304503 
z
" style="fill:#0000ff;"/>
   </g>
   <g id="patch_15">
    <path clip-path="url(#p87bb05d37c)" d="M 426.482412 112.2 
L 479.758794 112.2 
L 479.758794 115.144921 
L 460.591686 115.144921 
L 460.591686 127.3 
L 445.686689 127.3 
L 445.686689 115.144921 
L 426.482412 115.144921 
z
" style="fill:#ff0000;"/>
   </g>
   <g id="patch_16">
    <path clip-path="url(#p87bb05d37c)" d="M 479.758794 104.002768 
Q 474.385784 108.101384 468.606813 110.16005 
Q 462.827842 112.2 456.66679 112.2 
Q 442.744723 112.2 434.613568 99.997728 
Q 426.482412 87.795455 426.482412 66.928073 
Q 426.482412 45.817393 434.756848 33.708697 
Q 443.043224 21.6 457.454831 21.6 
Q 463.006942 21.6 468.093392 23.246932 
Q 473.191781 24.87515 477.70511 28.094154 
L 477.70511 46.154266 
Q 473.048501 42.018219 468.439652 39.978269 
Q 463.830804 37.919603 459.198075 37.919603 
Q 450.625138 37.919603 445.980469 45.44309 
Q 441.3358 52.947862 441.3358 66.928073 
Q 441.3358 80.777277 445.813309 88.338195 
Q 450.290818 95.880397 458.529433 95.880397 
Q 460.774158 95.880397 462.696501 95.449948 
Q 464.618845 95.000785 466.147168 94.065028 
L 466.147168 77.10911 
L 457.371251 77.10911 
L 457.371251 62.00599 
L 479.758794 62.00599 
z
" style="fill:#ffa600;"/>
   </g>
   <g id="patch_17">
    <path clip-path="url(#p87bb05d37c)" d="M 482.562814 142.4 
L 535.839196 142.4 
L 535.839196 145.344921 
L 516.672088 145.344921 
L 516.672088 157.5 
L 501.767091 157.5 
L 501.767091 145.344921 
L 482.562814 145.344921 
z
" style="fill:#ff0000;"/>
   </g>
   <g id="patch_18">
    <path clip-path="url(#p87bb05d37c)" d="M 535.839196 139.667589 
Q 530.466186 141.033795 524.687215 141.720017 
Q 518.908244 142.4 512.747192 142.4 
Q 498.825125 142.4 490.69397 138.332576 
Q 482.562814 134.265152 482.562814 127.309358 
Q 482.562814 120.272464 490.83725 116.236232 
Q 499.123626 112.2 513.535233 112.2 
Q 519.087344 112.2 524.173794 112.748977 
Q 529.272183 113.291717 533.785512 114.364718 
L 533.785512 120.384755 
Q 529.128903 119.006073 524.520054 118.32609 
Q 519.911206 117.639868 515.278477 117.639868 
Q 506.70554 117.639868 502.060871 120.147697 
Q 497.416202 122.649287 497.416202 127.309358 
Q 497.416202 131.925759 501.893711 134.446065 
Q 506.37122 136.960132 514.609835 136.960132 
Q 516.85456 136.960132 518.776903 136.816649 
Q 520.699247 136.666928 522.22757 136.355009 
L 522.22757 130.703037 
L 513.451653 130.703037 
L 513.451653 125.668663 
L 535.839196 125.668663 
z
" style="fill:#ffa600;"/>
   </g>
   <g id="patch_19">
    <path clip-path="url(#p87bb05d37c)" d="M 519.467411 103.94775 
L 498.97817 103.94775 
L 495.743027 112.2 
L 482.562814 112.2 
L 501.385465 66.9 
L 517.016545 66.9 
L 535.839196 112.2 
L 522.669876 112.2 
z
M 502.245992 95.540163 
L 516.166911 95.540163 
L 509.217344 77.521132 
z
" style="fill:#008000;"/>
   </g>
   <g id="patch_20">
    <path clip-path="url(#p87bb05d37c)" d="M 535.839196 63.652923 
Q 531.382719 65.262425 526.563817 66.076534 
Q 521.744915 66.9 516.496473 66.9 
Q 500.84511 66.9 491.703962 60.798864 
Q 482.562814 54.697728 482.562814 44.264036 
Q 482.562814 33.792915 491.703962 27.701136 
Q 500.84511 21.6 516.496473 21.6 
Q 521.744915 21.6 526.563817 22.423466 
Q 531.382719 23.237575 535.839196 24.847077 
L 535.839196 33.877133 
Q 531.342449 31.743607 526.979934 30.751704 
Q 522.617418 29.759802 517.798516 29.759802 
Q 509.154024 29.759802 504.200891 33.624478 
Q 499.261181 37.479798 499.261181 44.264036 
Q 499.261181 51.020202 504.200891 54.884879 
Q 509.154024 58.740198 517.798516 58.740198 
Q 522.617418 58.740198 526.979934 57.748296 
Q 531.342449 56.747036 535.839196 54.61351 
z
" style="fill:#0000ff;"/>
   </g>
   <g id="patch_21">
    <path clip-path="url(#p87bb05d37c)" d="M 591.919598 156.417641 
Q 587.463121 156.954142 582.644219 157.225511 
Q 577.825317 157.5 572.576875 157.5 
Q 556.925512 157.5 547.784364 155.466288 
Q 538.643216 153.432576 538.643216 149.954679 
Q 538.643216 146.464305 547.784364 144.433712 
Q 556.925512 142.4 572.576875 142.4 
Q 577.825317 142.4 582.644219 142.674489 
Q 587.463121 142.945858 591.919598 143.482359 
L 591.919598 146.492378 
Q 587.422851 145.781202 583.060336 145.450568 
Q 578.69782 145.119934 573.878918 145.119934 
Q 565.234426 145.119934 560.281293 146.408159 
Q 555.341583 147.693266 555.341583 149.954679 
Q 555.341583 152.206734 560.281293 153.49496 
Q 565.234426 154.780066 573.878918 154.780066 
Q 578.69782 154.780066 583.060336 154.449432 
Q 587.422851 154.115679 591.919598 153.404503 
z
" style="fill:#0000ff;"/>
   </g>
   <g id="patch_22">
    <path clip-path="url(#p87bb05d37c)" d="M 538.643216 127.3 
L 591.919598 127.3 
L 591.919598 130.244921 
L 572.75249 130.244921 
L 572.75249 142.4 
L 557.847493 142.4 
L 557.847493 130.244921 
L 538.643216 130.244921 
z
" style="fill:#ff0000;"/>
   </g>
   <g id="patch_23">
    <path clip-path="url(#p87bb05d37c)" d="M 591.919598 117.736563 
Q 586.546588 122.518281 580.767617 124.920058 
Q 574.988646 127.3 568.827594 127.3 
Q 554.905527 127.3 546.774372 113.064016 
Q 538.643216 98.828031 538.643216 74.482751 
Q 538.643216 49.853625 546.917652 35.726813 
Q 555.204028 21.6 569.615635 21.6 
Q 575.167746 21.6 580.254196 23.521421 
Q 585.352585 25.421008 589.865914 29.176513 
L 589.865914 50.246643 
Q 585.209305 45.421256 580.600456 43.041314 
Q 575.991608 40.639537 571.358879 40.639537 
Q 562.785942 40.639537 558.141273 49.416939 
Q 553.496604 58.172506 553.496604 74.482751 
Q 553.496604 90.640157 557.974113 99.461227 
Q 562.451622 108.260463 570.690237 108.260463 
Q 572.934962 108.260463 574.857305 107.758273 
Q 576.779649 107.234249 578.307972 106.142533 
L 578.307972 86.360628 
L 569.532055 86.360628 
L 569.532055 68.740322 
L 591.919598 68.740322 
z
" style="fill:#ffa600;"/>
   </g>
   <g id="patch_24">
    <path clip-path="url(#p87bb05d37c)" d="M 594.723618 127.3 
L 648 127.3 
L 648 133.189841 
L 628.832892 133.189841 
L 628.832892 157.5 
L 613.927895 157.5 
L 613.927895 133.189841 
L 594.723618 133.189841 
z
" style="fill:#ff0000;"/>
   </g>
   <g id="patch_25">
    <path clip-path="url(#p87bb05d37c)" d="M 648 123.201384 
Q 642.62699 125.250692 636.848019 126.280025 
Q 631.069048 127.3 624.907996 127.3 
Q 610.985929 127.3 602.854774 121.198864 
Q 594.723618 115.097728 594.723618 104.664036 
Q 594.723618 94.108697 602.998054 88.054348 
Q 611.28443 82 625.696037 82 
Q 631.248148 82 636.334598 82.823466 
Q 641.432987 83.637575 645.946316 85.247077 
L 645.946316 94.277133 
Q 641.289707 92.20911 636.680858 91.189134 
Q 632.07201 90.159802 627.439281 90.159802 
Q 618.866344 90.159802 614.221675 93.921545 
Q 609.577007 97.673931 609.577007 104.664036 
Q 609.577007 111.588639 614.054515 115.369097 
Q 618.532024 119.140198 626.770639 119.140198 
Q 629.015364 119.140198 630.937707 118.924974 
Q 632.860051 118.700392 634.388374 118.232514 
L 634.388374 109.754555 
L 625.612457 109.754555 
L 625.612457 102.202995 
L 648 102.202995 
z
" style="fill:#ffa600;"/>
   </g>
   <g id="patch_26">
    <path clip-path="url(#p87bb05d37c)" d="M 648 77.670564 
Q 643.543523 79.816567 638.724621 80.902045 
Q 633.905719 82 628.657277 82 
Q 613.005914 82 603.864766 73.865152 
Q 594.723618 65.730304 594.723618 51.818715 
Q 594.723618 37.85722 603.864766 29.734848 
Q 613.005914 21.6 628.657277 21.6 
Q 633.905719 21.6 638.724621 22.697955 
Q 643.543523 23.783433 648 25.929436 
L 648 37.96951 
Q 643.503253 35.124809 639.140738 33.802272 
Q 634.778222 32.479736 629.95932 32.479736 
Q 621.314828 32.479736 616.361695 37.632638 
Q 611.421985 42.773063 611.421985 51.818715 
Q 611.421985 60.826937 616.361695 65.979839 
Q 621.314828 71.120264 629.95932 71.120264 
Q 634.778222 71.120264 639.140738 69.797728 
Q 643.503253 68.462714 648 65.618013 
z
" style="fill:#0000ff;"/>
   </g>
  </g>
 </g>
 <defs>
  <clipPath id="p87bb05d37c">
   <rect height="135.9" width="558" x="90" y="21.6"/>
  </clipPath>
 </defs>
</svg>
