<?xml version="1.0" encoding="utf-8" standalone="no"?>
<!DOCTYPE svg PUBLIC "-//W3C//DTD SVG 1.1//EN"
  "http://www.w3.org/Graphics/SVG/1.1/DTD/svg11.dtd">
<!-- Created with matplotlib (https://matplotlib.org/) -->
<svg height="180pt" version="1.1" viewBox="0 0 720 180" width="720pt" xmlns="http://www.w3.org/2000/svg" xmlns:xlink="http://www.w3.org/1999/xlink">
 <metadata>
  <rdf:RDF xmlns:cc="http://creativecommons.org/ns#" xmlns:dc="http://purl.org/dc/elements/1.1/" xmlns:rdf="http://www.w3.org/1999/02/22-rdf-syntax-ns#">
   <cc:Work>
    <dc:type rdf:resource="http://purl.org/dc/dcmitype/StillImage"/>
    <dc:date>2021-08-04T23:33:26.706899</dc:date>
    <dc:format>image/svg+xml</dc:format>
    <dc:creator>
     <cc:Agent>
      <dc:title>Matplotlib v3.3.2, https://matplotlib.org/</dc:title>
     </cc:Agent>
    </dc:creator>
   </cc:Work>
  </rdf:RDF>
 </metadata>
 <defs>
  <style type="text/css">*{stroke-linecap:butt;stroke-linejoin:round;}</style>
 </defs>
 <g id="figure_1">
  <g id="patch_1">
   <path d="M 0 180 
L 720 180 
L 720 0 
L 0 0 
z
" style="fill:none;"/>
  </g>
  <g id="axes_1">
   <g id="line2d_1">
    <path clip-path="url(#pc37a799822)" d="M 90 157.5 
L 648 157.5 
" style="fill:none;stroke:#000000;stroke-linecap:square;stroke-width:0.5;"/>
   </g>
   <g id="patch_2">
    <path clip-path="url(#pc37a799822)" d="M 121.274336 155.335282 
Q 118.658292 156.408283 115.829497 156.951023 
Q 113.000702 157.5 109.919759 157.5 
Q 100.732085 157.5 95.366043 153.432576 
Q 90 149.365152 90 142.409358 
Q 90 135.42861 95.366043 131.367424 
Q 100.732085 127.3 109.919759 127.3 
Q 113.000702 127.3 115.829497 127.848977 
Q 118.658292 128.391717 121.274336 129.464718 
L 121.274336 135.484755 
Q 118.634653 134.062404 116.073766 133.401136 
Q 113.51288 132.739868 110.684085 132.739868 
Q 105.609589 132.739868 102.701998 135.316319 
Q 99.802286 137.886532 99.802286 142.409358 
Q 99.802286 146.913468 102.701998 149.489919 
Q 105.609589 152.060132 110.684085 152.060132 
Q 113.51288 152.060132 116.073766 151.398864 
Q 118.634653 150.731357 121.274336 149.309006 
z
" style="fill:#0000ff;"/>
   </g>
   <g id="patch_3">
    <path clip-path="url(#pc37a799822)" d="M 90 97.1 
L 121.274336 97.1 
L 121.274336 102.989841 
L 110.022848 102.989841 
L 110.022848 127.3 
L 101.273307 127.3 
L 101.273307 102.989841 
L 90 102.989841 
z
" style="fill:#ff0000;"/>
   </g>
   <g id="patch_4">
    <path clip-path="url(#pc37a799822)" d="M 144.584114 154.74925 
L 132.556507 154.74925 
L 130.657411 157.5 
L 122.920354 157.5 
L 133.969639 142.4 
L 143.145405 142.4 
L 154.19469 157.5 
L 146.464027 157.5 
z
M 134.474786 151.946721 
L 142.646653 151.946721 
L 138.567114 145.940377 
z
" style="fill:#008000;"/>
   </g>
   <g id="patch_5">
    <path clip-path="url(#pc37a799822)" d="M 154.19469 141.317641 
Q 151.578646 141.854142 148.749851 142.125511 
Q 145.921056 142.4 142.840113 142.4 
Q 133.652439 142.4 128.286397 140.366288 
Q 122.920354 138.332576 122.920354 134.854679 
Q 122.920354 131.364305 128.286397 129.333712 
Q 133.652439 127.3 142.840113 127.3 
Q 145.921056 127.3 148.749851 127.574489 
Q 151.578646 127.845858 154.19469 128.382359 
L 154.19469 131.392378 
Q 151.555007 130.681202 148.99412 130.350568 
Q 146.433234 130.019934 143.604439 130.019934 
Q 138.529943 130.019934 135.622352 131.308159 
Q 132.72264 132.593266 132.72264 134.854679 
Q 132.72264 137.106734 135.622352 138.39496 
Q 138.529943 139.680066 143.604439 139.680066 
Q 146.433234 139.680066 148.99412 139.349432 
Q 151.555007 139.015679 154.19469 138.304503 
z
" style="fill:#0000ff;"/>
   </g>
   <g id="patch_6">
    <path clip-path="url(#pc37a799822)" d="M 154.19469 125.933795 
Q 151.040622 126.616897 147.648247 126.960008 
Q 144.255872 127.3 140.639207 127.3 
Q 132.466666 127.3 127.69351 125.266288 
Q 122.920354 123.232576 122.920354 119.754679 
Q 122.920354 116.236232 127.777619 114.218116 
Q 132.641892 112.2 141.101804 112.2 
Q 144.361007 112.2 147.346858 112.474489 
Q 150.339718 112.745858 152.989135 113.282359 
L 152.989135 116.292378 
Q 150.25561 115.603037 147.55012 115.263045 
Q 144.844631 114.919934 142.125123 114.919934 
Q 137.092633 114.919934 134.366116 116.173848 
Q 131.6396 117.424644 131.6396 119.754679 
Q 131.6396 122.06288 134.26799 123.323032 
Q 136.89638 124.580066 141.732617 124.580066 
Q 143.050317 124.580066 144.178772 124.508325 
Q 145.307228 124.433464 146.204385 124.277505 
L 146.204385 121.451518 
L 141.05274 121.451518 
L 141.05274 118.934332 
L 154.19469 118.934332 
z
" style="fill:#ffa600;"/>
   </g>
   <g id="patch_7">
    <path clip-path="url(#pc37a799822)" d="M 122.920354 97.1 
L 154.19469 97.1 
L 154.19469 100.044921 
L 142.943202 100.044921 
L 142.943202 112.2 
L 134.193661 112.2 
L 134.193661 100.044921 
L 122.920354 100.044921 
z
" style="fill:#ff0000;"/>
   </g>
   <g id="patch_8">
    <path clip-path="url(#pc37a799822)" d="M 177.504468 154.74925 
L 165.476861 154.74925 
L 163.577765 157.5 
L 155.840708 157.5 
L 166.889993 142.4 
L 176.065759 142.4 
L 187.115044 157.5 
L 179.384381 157.5 
z
M 167.39514 151.946721 
L 175.567007 151.946721 
L 171.487467 145.940377 
z
" style="fill:#008000;"/>
   </g>
   <g id="patch_9">
    <path clip-path="url(#pc37a799822)" d="M 187.115044 141.033795 
Q 183.960976 141.716897 180.568601 142.060008 
Q 177.176226 142.4 173.559561 142.4 
Q 165.38702 142.4 160.613864 140.366288 
Q 155.840708 138.332576 155.840708 134.854679 
Q 155.840708 131.336232 160.697973 129.318116 
Q 165.562246 127.3 174.022158 127.3 
Q 177.281361 127.3 180.267212 127.574489 
Q 183.260072 127.845858 185.909489 128.382359 
L 185.909489 131.392378 
Q 183.175964 130.703037 180.470474 130.363045 
Q 177.764985 130.019934 175.045477 130.019934 
Q 170.012987 130.019934 167.28647 131.273848 
Q 164.559954 132.524644 164.559954 134.854679 
Q 164.559954 137.16288 167.188344 138.423032 
Q 169.816734 139.680066 174.652971 139.680066 
Q 175.970671 139.680066 177.099126 139.608325 
Q 178.227582 139.533464 179.124739 139.377505 
L 179.124739 136.551518 
L 173.973094 136.551518 
L 173.973094 134.034332 
L 187.115044 134.034332 
z
" style="fill:#ffa600;"/>
   </g>
   <g id="patch_10">
    <path clip-path="url(#pc37a799822)" d="M 155.840708 97.1 
L 187.115044 97.1 
L 187.115044 102.989841 
L 175.863556 102.989841 
L 175.863556 127.3 
L 167.114015 127.3 
L 167.114015 102.989841 
L 155.840708 102.989841 
z
" style="fill:#ff0000;"/>
   </g>
   <g id="patch_11">
    <path clip-path="url(#pc37a799822)" d="M 210.424822 154.74925 
L 198.397215 154.74925 
L 196.498119 157.5 
L 188.761062 157.5 
L 199.810347 142.4 
L 208.986113 142.4 
L 220.035398 157.5 
L 212.304735 157.5 
z
M 200.315494 151.946721 
L 208.487361 151.946721 
L 204.407821 145.940377 
z
" style="fill:#008000;"/>
   </g>
   <g id="patch_12">
    <path clip-path="url(#pc37a799822)" d="M 220.035398 138.301384 
Q 216.88133 140.350692 213.488955 141.380025 
Q 210.09658 142.4 206.479915 142.4 
Q 198.307374 142.4 193.534218 136.298864 
Q 188.761062 130.197728 188.761062 119.764036 
Q 188.761062 109.208697 193.618327 103.154348 
Q 198.4826 97.1 206.942512 97.1 
Q 210.201715 97.1 213.187566 97.923466 
Q 216.180426 98.737575 218.829843 100.347077 
L 218.829843 109.377133 
Q 216.096318 107.30911 213.390828 106.289134 
Q 210.685339 105.259802 207.965831 105.259802 
Q 202.933341 105.259802 200.206824 109.021545 
Q 197.480308 112.773931 197.480308 119.764036 
Q 197.480308 126.688639 200.108698 130.469097 
Q 202.737088 134.240198 207.573325 134.240198 
Q 208.891025 134.240198 210.01948 134.024974 
Q 211.147936 133.800392 212.045093 133.332514 
L 212.045093 124.854555 
L 206.893448 124.854555 
L 206.893448 117.302995 
L 220.035398 117.302995 
z
" style="fill:#ffa600;"/>
   </g>
   <g id="patch_13">
    <path clip-path="url(#pc37a799822)" d="M 221.681416 97.1 
L 252.955752 97.1 
L 252.955752 108.879683 
L 241.704264 108.879683 
L 241.704264 157.5 
L 232.954723 157.5 
L 232.954723 108.879683 
L 221.681416 108.879683 
z
" style="fill:#ff0000;"/>
   </g>
   <g id="patch_14">
    <path clip-path="url(#pc37a799822)" d="M 285.876106 156.133795 
Q 282.722038 156.816897 279.329663 157.160008 
Q 275.937288 157.5 272.320623 157.5 
Q 264.148082 157.5 259.374926 155.466288 
Q 254.60177 153.432576 254.60177 149.954679 
Q 254.60177 146.436232 259.459035 144.418116 
Q 264.323308 142.4 272.78322 142.4 
Q 276.042423 142.4 279.028274 142.674489 
Q 282.021134 142.945858 284.670551 143.482359 
L 284.670551 146.492378 
Q 281.937026 145.803037 279.231536 145.463045 
Q 276.526047 145.119934 273.806539 145.119934 
Q 268.774049 145.119934 266.047532 146.373848 
Q 263.321016 147.624644 263.321016 149.954679 
Q 263.321016 152.26288 265.949406 153.523032 
Q 268.577796 154.780066 273.414033 154.780066 
Q 274.731733 154.780066 275.860188 154.708325 
Q 276.988644 154.633464 277.885801 154.477505 
L 277.885801 151.651518 
L 272.734156 151.651518 
L 272.734156 149.134332 
L 285.876106 149.134332 
z
" style="fill:#ffa600;"/>
   </g>
   <g id="patch_15">
    <path clip-path="url(#pc37a799822)" d="M 276.26553 134.14775 
L 264.237923 134.14775 
L 262.338827 142.4 
L 254.60177 142.4 
L 265.651055 97.1 
L 274.826821 97.1 
L 285.876106 142.4 
L 278.145443 142.4 
z
M 266.156202 125.740163 
L 274.328069 125.740163 
L 270.248529 107.721132 
z
" style="fill:#008000;"/>
   </g>
   <g id="patch_16">
    <path clip-path="url(#pc37a799822)" d="M 309.185884 151.9985 
L 297.158277 151.9985 
L 295.259181 157.5 
L 287.522124 157.5 
L 298.571409 127.3 
L 307.747175 127.3 
L 318.79646 157.5 
L 311.065797 157.5 
z
M 299.076556 146.393442 
L 307.248423 146.393442 
L 303.168883 134.380754 
z
" style="fill:#008000;"/>
   </g>
   <g id="patch_17">
    <path clip-path="url(#pc37a799822)" d="M 318.79646 124.567589 
Q 315.642392 125.933795 312.250017 126.620017 
Q 308.857642 127.3 305.240977 127.3 
Q 297.068436 127.3 292.29528 123.232576 
Q 287.522124 119.165152 287.522124 112.209358 
Q 287.522124 105.172464 292.379389 101.136232 
Q 297.243662 97.1 305.703574 97.1 
Q 308.962777 97.1 311.948628 97.648977 
Q 314.941488 98.191717 317.590905 99.264718 
L 317.590905 105.284755 
Q 314.85738 103.906073 312.15189 103.22609 
Q 309.446401 102.539868 306.726893 102.539868 
Q 301.694403 102.539868 298.967886 105.047697 
Q 296.24137 107.549287 296.24137 112.209358 
Q 296.24137 116.825759 298.86976 119.346065 
Q 301.49815 121.860132 306.334387 121.860132 
Q 307.652087 121.860132 308.780542 121.716649 
Q 309.908998 121.566928 310.806155 121.255009 
L 310.806155 115.603037 
L 305.65451 115.603037 
L 305.65451 110.568663 
L 318.79646 110.568663 
z
" style="fill:#ffa600;"/>
   </g>
   <g id="patch_18">
    <path clip-path="url(#pc37a799822)" d="M 320.442478 21.6 
L 351.716814 21.6 
L 351.716814 48.104286 
L 340.465326 48.104286 
L 340.465326 157.5 
L 331.715785 157.5 
L 331.715785 48.104286 
L 320.442478 48.104286 
z
" style="fill:#ff0000;"/>
   </g>
   <g id="patch_19">
    <path clip-path="url(#pc37a799822)" d="M 384.637168 152.035179 
Q 381.4831 154.767589 378.090725 156.140033 
Q 374.698349 157.5 371.081685 157.5 
Q 362.909144 157.5 358.135988 149.365152 
Q 353.362832 141.230304 353.362832 127.318715 
Q 353.362832 113.244929 358.220097 105.172464 
Q 363.08437 97.1 371.544282 97.1 
Q 374.803485 97.1 377.789336 98.197955 
Q 380.782196 99.283433 383.431613 101.429436 
L 383.431613 113.46951 
Q 380.698088 110.712146 377.992598 109.352179 
Q 375.287109 107.979736 372.567601 107.979736 
Q 367.535111 107.979736 364.808594 112.995394 
Q 362.082078 117.998575 362.082078 127.318715 
Q 362.082078 136.551518 364.710468 141.59213 
Q 367.338858 146.620264 372.175095 146.620264 
Q 373.492795 146.620264 374.62125 146.333299 
Q 375.749705 146.033857 376.646863 145.410019 
L 376.646863 134.106073 
L 371.495218 134.106073 
L 371.495218 124.037327 
L 384.637168 124.037327 
z
" style="fill:#ffa600;"/>
   </g>
   <g id="patch_20">
    <path clip-path="url(#pc37a799822)" d="M 375.026592 83.346249 
L 362.998985 83.346249 
L 361.099889 97.1 
L 353.362832 97.1 
L 364.412117 21.6 
L 373.587883 21.6 
L 384.637168 97.1 
L 376.906505 97.1 
z
M 364.917264 69.333605 
L 373.089131 69.333605 
L 369.009591 39.301886 
z
" style="fill:#008000;"/>
   </g>
   <g id="patch_21">
    <path clip-path="url(#pc37a799822)" d="M 417.557522 154.767589 
Q 414.403454 156.133795 411.011079 156.820017 
Q 407.618703 157.5 404.002039 157.5 
Q 395.829498 157.5 391.056342 153.432576 
Q 386.283186 149.365152 386.283186 142.409358 
Q 386.283186 135.372464 391.140451 131.336232 
Q 396.004724 127.3 404.464635 127.3 
Q 407.723839 127.3 410.70969 127.848977 
Q 413.70255 128.391717 416.351967 129.464718 
L 416.351967 135.484755 
Q 413.618442 134.106073 410.912952 133.42609 
Q 408.207463 132.739868 405.487955 132.739868 
Q 400.455465 132.739868 397.728948 135.247697 
Q 395.002432 137.749287 395.002432 142.409358 
Q 395.002432 147.025759 397.630822 149.546065 
Q 400.259212 152.060132 405.095449 152.060132 
Q 406.413149 152.060132 407.541604 151.916649 
Q 408.670059 151.766928 409.567217 151.455009 
L 409.567217 145.803037 
L 404.415572 145.803037 
L 404.415572 140.768663 
L 417.557522 140.768663 
z
" style="fill:#ffa600;"/>
   </g>
   <g id="patch_22">
    <path clip-path="url(#pc37a799822)" d="M 407.946946 108.044749 
L 395.919339 108.044749 
L 394.020243 127.3 
L 386.283186 127.3 
L 397.332471 21.6 
L 406.508237 21.6 
L 417.557522 127.3 
L 409.826859 127.3 
z
M 397.837618 88.427047 
L 406.009485 88.427047 
L 401.929945 46.38264 
z
" style="fill:#008000;"/>
   </g>
   <g id="patch_23">
    <path clip-path="url(#pc37a799822)" d="M 419.20354 21.6 
L 450.477876 21.6 
L 450.477876 48.104286 
L 439.226388 48.104286 
L 439.226388 157.5 
L 430.476847 157.5 
L 430.476847 48.104286 
L 419.20354 48.104286 
z
" style="fill:#ff0000;"/>
   </g>
   <g id="patch_24">
    <path clip-path="url(#pc37a799822)" d="M 473.787654 132.743249 
L 461.760047 132.743249 
L 459.860951 157.5 
L 452.123894 157.5 
L 463.173179 21.6 
L 472.348945 21.6 
L 483.39823 157.5 
L 475.667567 157.5 
z
M 463.678326 107.520489 
L 471.850193 107.520489 
L 467.770653 53.463395 
z
" style="fill:#008000;"/>
   </g>
   <g id="patch_25">
    <path clip-path="url(#pc37a799822)" d="M 516.318584 152.035179 
Q 513.164516 154.767589 509.772141 156.140033 
Q 506.379765 157.5 502.763101 157.5 
Q 494.59056 157.5 489.817404 149.365152 
Q 485.044248 141.230304 485.044248 127.318715 
Q 485.044248 113.244929 489.901512 105.172464 
Q 494.765786 97.1 503.225697 97.1 
Q 506.484901 97.1 509.470752 98.197955 
Q 512.463612 99.283433 515.113029 101.429436 
L 515.113029 113.46951 
Q 512.379504 110.712146 509.674014 109.352179 
Q 506.968525 107.979736 504.249017 107.979736 
Q 499.216527 107.979736 496.49001 112.995394 
Q 493.763493 117.998575 493.763493 127.318715 
Q 493.763493 136.551518 496.391883 141.59213 
Q 499.020273 146.620264 503.856511 146.620264 
Q 505.174211 146.620264 506.302666 146.333299 
Q 507.431121 146.033857 508.328279 145.410019 
L 508.328279 134.106073 
L 503.176634 134.106073 
L 503.176634 124.037327 
L 516.318584 124.037327 
z
" style="fill:#ffa600;"/>
   </g>
   <g id="patch_26">
    <path clip-path="url(#pc37a799822)" d="M 506.708008 83.346249 
L 494.680401 83.346249 
L 492.781305 97.1 
L 485.044248 97.1 
L 496.093533 21.6 
L 505.269299 21.6 
L 516.318584 97.1 
L 508.587921 97.1 
z
M 496.59868 69.333605 
L 504.770547 69.333605 
L 500.691007 39.301886 
z
" style="fill:#008000;"/>
   </g>
   <g id="patch_27">
    <path clip-path="url(#pc37a799822)" d="M 517.964602 21.6 
L 549.238938 21.6 
L 549.238938 48.104286 
L 537.98745 48.104286 
L 537.98745 157.5 
L 529.237909 157.5 
L 529.237909 48.104286 
L 517.964602 48.104286 
z
" style="fill:#ff0000;"/>
   </g>
   <g id="patch_28">
    <path clip-path="url(#pc37a799822)" d="M 582.159292 154.767589 
Q 579.005224 156.133795 575.612849 156.820017 
Q 572.220473 157.5 568.603809 157.5 
Q 560.431268 157.5 555.658112 153.432576 
Q 550.884956 149.365152 550.884956 142.409358 
Q 550.884956 135.372464 555.74222 131.336232 
Q 560.606494 127.3 569.066405 127.3 
Q 572.325609 127.3 575.31146 127.848977 
Q 578.30432 128.391717 580.953737 129.464718 
L 580.953737 135.484755 
Q 578.220212 134.106073 575.514722 133.42609 
Q 572.809233 132.739868 570.089725 132.739868 
Q 565.057235 132.739868 562.330718 135.247697 
Q 559.604201 137.749287 559.604201 142.409358 
Q 559.604201 147.025759 562.232591 149.546065 
Q 564.860981 152.060132 569.697219 152.060132 
Q 571.014919 152.060132 572.143374 151.916649 
Q 573.271829 151.766928 574.168986 151.455009 
L 574.168986 145.803037 
L 569.017342 145.803037 
L 569.017342 140.768663 
L 582.159292 140.768663 
z
" style="fill:#ffa600;"/>
   </g>
   <g id="patch_29">
    <path clip-path="url(#pc37a799822)" d="M 572.548716 108.044749 
L 560.521109 108.044749 
L 558.622013 127.3 
L 550.884956 127.3 
L 561.934241 21.6 
L 571.110007 21.6 
L 582.159292 127.3 
L 574.428629 127.3 
z
M 562.439387 88.427047 
L 570.611255 88.427047 
L 566.531715 46.38264 
z
" style="fill:#008000;"/>
   </g>
   <g id="patch_30">
    <path clip-path="url(#pc37a799822)" d="M 615.079646 152.035179 
Q 611.925578 154.767589 608.533203 156.140033 
Q 605.140827 157.5 601.524163 157.5 
Q 593.351622 157.5 588.578466 149.365152 
Q 583.80531 141.230304 583.80531 127.318715 
Q 583.80531 113.244929 588.662574 105.172464 
Q 593.526848 97.1 601.986759 97.1 
Q 605.245963 97.1 608.231814 98.197955 
Q 611.224674 99.283433 613.874091 101.429436 
L 613.874091 113.46951 
Q 611.140566 110.712146 608.435076 109.352179 
Q 605.729587 107.979736 603.010079 107.979736 
Q 597.977589 107.979736 595.251072 112.995394 
Q 592.524555 117.998575 592.524555 127.318715 
Q 592.524555 136.551518 595.152945 141.59213 
Q 597.781335 146.620264 602.617573 146.620264 
Q 603.935272 146.620264 605.063728 146.333299 
Q 606.192183 146.033857 607.08934 145.410019 
L 607.08934 134.106073 
L 601.937696 134.106073 
L 601.937696 124.037327 
L 615.079646 124.037327 
z
" style="fill:#ffa600;"/>
   </g>
   <g id="patch_31">
    <path clip-path="url(#pc37a799822)" d="M 605.46907 83.346249 
L 593.441463 83.346249 
L 591.542367 97.1 
L 583.80531 97.1 
L 594.854595 21.6 
L 604.030361 21.6 
L 615.079646 97.1 
L 607.348983 97.1 
z
M 595.359741 69.333605 
L 603.531609 69.333605 
L 599.452069 39.301886 
z
" style="fill:#008000;"/>
   </g>
   <g id="patch_32">
    <path clip-path="url(#pc37a799822)" d="M 616.725664 142.4 
L 648 142.4 
L 648 145.344921 
L 636.748512 145.344921 
L 636.748512 157.5 
L 627.998971 157.5 
L 627.998971 145.344921 
L 616.725664 145.344921 
z
" style="fill:#ff0000;"/>
   </g>
   <g id="patch_33">
    <path clip-path="url(#pc37a799822)" d="M 648 140.235282 
Q 645.383956 141.308283 642.555161 141.851023 
Q 639.726366 142.4 636.645422 142.4 
Q 627.457749 142.4 622.091706 138.332576 
Q 616.725664 134.265152 616.725664 127.309358 
Q 616.725664 120.32861 622.091706 116.267424 
Q 627.457749 112.2 636.645422 112.2 
Q 639.726366 112.2 642.555161 112.748977 
Q 645.383956 113.291717 648 114.364718 
L 648 120.384755 
Q 645.360317 118.962404 642.79943 118.301136 
Q 640.238543 117.639868 637.409749 117.639868 
Q 632.335253 117.639868 629.427662 120.216319 
Q 626.52795 122.786532 626.52795 127.309358 
Q 626.52795 131.813468 629.427662 134.389919 
Q 632.335253 136.960132 637.409749 136.960132 
Q 640.238543 136.960132 642.79943 136.298864 
Q 645.360317 135.631357 648 134.209006 
z
" style="fill:#0000ff;"/>
   </g>
   <g id="patch_34">
    <path clip-path="url(#pc37a799822)" d="M 648 109.467589 
Q 644.845932 110.833795 641.453557 111.520017 
Q 638.061181 112.2 634.444517 112.2 
Q 626.271976 112.2 621.49882 108.132576 
Q 616.725664 104.065152 616.725664 97.109358 
Q 616.725664 90.072464 621.582928 86.036232 
Q 626.447202 82 634.907113 82 
Q 638.166317 82 641.152168 82.548977 
Q 644.145028 83.091717 646.794445 84.164718 
L 646.794445 90.184755 
Q 644.06092 88.806073 641.35543 88.12609 
Q 638.649941 87.439868 635.930433 87.439868 
Q 630.897943 87.439868 628.171426 89.947697 
Q 625.444909 92.449287 625.444909 97.109358 
Q 625.444909 101.725759 628.073299 104.246065 
Q 630.701689 106.760132 635.537927 106.760132 
Q 636.855626 106.760132 637.984082 106.616649 
Q 639.112537 106.466928 640.009694 106.155009 
L 640.009694 100.503037 
L 634.85805 100.503037 
L 634.85805 95.468663 
L 648 95.468663 
z
" style="fill:#ffa600;"/>
   </g>
   <g id="patch_35">
    <path clip-path="url(#pc37a799822)" d="M 638.389424 70.997 
L 626.361817 70.997 
L 624.462721 82 
L 616.725664 82 
L 627.774949 21.6 
L 636.950715 21.6 
L 648 82 
L 640.269337 82 
z
M 628.280095 59.786884 
L 636.451963 59.786884 
L 632.372423 35.761509 
z
" style="fill:#008000;"/>
   </g>
  </g>
 </g>
 <defs>
  <clipPath id="pc37a799822">
   <rect height="135.9" width="558" x="90" y="21.6"/>
  </clipPath>
 </defs>
</svg>
