<?xml version="1.0" encoding="utf-8" standalone="no"?>
<!DOCTYPE svg PUBLIC "-//W3C//DTD SVG 1.1//EN"
  "http://www.w3.org/Graphics/SVG/1.1/DTD/svg11.dtd">
<!-- Created with matplotlib (https://matplotlib.org/) -->
<svg height="180pt" version="1.1" viewBox="0 0 720 180" width="720pt" xmlns="http://www.w3.org/2000/svg" xmlns:xlink="http://www.w3.org/1999/xlink">
 <metadata>
  <rdf:RDF xmlns:cc="http://creativecommons.org/ns#" xmlns:dc="http://purl.org/dc/elements/1.1/" xmlns:rdf="http://www.w3.org/1999/02/22-rdf-syntax-ns#">
   <cc:Work>
    <dc:type rdf:resource="http://purl.org/dc/dcmitype/StillImage"/>
    <dc:date>2021-08-04T23:33:27.264845</dc:date>
    <dc:format>image/svg+xml</dc:format>
    <dc:creator>
     <cc:Agent>
      <dc:title>Matplotlib v3.3.2, https://matplotlib.org/</dc:title>
     </cc:Agent>
    </dc:creator>
   </cc:Work>
  </rdf:RDF>
 </metadata>
 <defs>
  <style type="text/css">*{stroke-linecap:butt;stroke-linejoin:round;}</style>
 </defs>
 <g id="figure_1">
  <g id="patch_1">
   <path d="M 0 180 
L 720 180 
L 720 0 
L 0 0 
z
" style="fill:none;"/>
  </g>
  <g id="axes_1">
   <g id="line2d_1">
    <path clip-path="url(#p7e94aba693)" d="M 90 157.5 
L 648 157.5 
" style="fill:none;stroke:#000000;stroke-linecap:square;stroke-width:0.5;"/>
   </g>
   <g id="patch_2">
    <path clip-path="url(#p7e94aba693)" d="M 121.274336 156.133795 
Q 118.120268 156.816897 114.727893 157.160008 
Q 111.335518 157.5 107.718853 157.5 
Q 99.546312 157.5 94.773156 155.466288 
Q 90 153.432576 90 149.954679 
Q 90 146.436232 94.857265 144.418116 
Q 99.721538 142.4 108.18145 142.4 
Q 111.440653 142.4 114.426504 142.674489 
Q 117.419364 142.945858 120.068781 143.482359 
L 120.068781 146.492378 
Q 117.335256 145.803037 114.629766 145.463045 
Q 111.924277 145.119934 109.204769 145.119934 
Q 104.172279 145.119934 101.445762 146.373848 
Q 98.719246 147.624644 98.719246 149.954679 
Q 98.719246 152.26288 101.347636 153.523032 
Q 103.976026 154.780066 108.812263 154.780066 
Q 110.129963 154.780066 111.258418 154.708325 
Q 112.386874 154.633464 113.284031 154.477505 
L 113.284031 151.651518 
L 108.132386 151.651518 
L 108.132386 149.134332 
L 121.274336 149.134332 
z
" style="fill:#ffa600;"/>
   </g>
   <g id="patch_3">
    <path clip-path="url(#p7e94aba693)" d="M 111.66376 136.8985 
L 99.636153 136.8985 
L 97.737057 142.4 
L 90 142.4 
L 101.049285 112.2 
L 110.225051 112.2 
L 121.274336 142.4 
L 113.543673 142.4 
z
M 101.554432 131.293442 
L 109.726299 131.293442 
L 105.64676 119.280754 
z
" style="fill:#008000;"/>
   </g>
   <g id="patch_4">
    <path clip-path="url(#p7e94aba693)" d="M 121.274336 110.035282 
Q 118.658292 111.108283 115.829497 111.651023 
Q 113.000702 112.2 109.919759 112.2 
Q 100.732085 112.2 95.366043 108.132576 
Q 90 104.065152 90 97.109358 
Q 90 90.12861 95.366043 86.067424 
Q 100.732085 82 109.919759 82 
Q 113.000702 82 115.829497 82.548977 
Q 118.658292 83.091717 121.274336 84.164718 
L 121.274336 90.184755 
Q 118.634653 88.762404 116.073766 88.101136 
Q 113.51288 87.439868 110.684085 87.439868 
Q 105.609589 87.439868 102.701998 90.016319 
Q 99.802286 92.586532 99.802286 97.109358 
Q 99.802286 101.613468 102.701998 104.189919 
Q 105.609589 106.760132 110.684085 106.760132 
Q 113.51288 106.760132 116.073766 106.098864 
Q 118.634653 105.431357 121.274336 104.009006 
z
" style="fill:#0000ff;"/>
   </g>
   <g id="patch_5">
    <path clip-path="url(#p7e94aba693)" d="M 90 21.6 
L 121.274336 21.6 
L 121.274336 33.379683 
L 110.022848 33.379683 
L 110.022848 82 
L 101.273307 82 
L 101.273307 33.379683 
L 90 33.379683 
z
" style="fill:#ff0000;"/>
   </g>
   <g id="patch_6">
    <path clip-path="url(#p7e94aba693)" d="M 144.584114 154.74925 
L 132.556507 154.74925 
L 130.657411 157.5 
L 122.920354 157.5 
L 133.969639 142.4 
L 143.145405 142.4 
L 154.19469 157.5 
L 146.464027 157.5 
z
M 134.474786 151.946721 
L 142.646653 151.946721 
L 138.567114 145.940377 
z
" style="fill:#008000;"/>
   </g>
   <g id="patch_7">
    <path clip-path="url(#p7e94aba693)" d="M 154.19469 141.317641 
Q 151.578646 141.854142 148.749851 142.125511 
Q 145.921056 142.4 142.840113 142.4 
Q 133.652439 142.4 128.286397 140.366288 
Q 122.920354 138.332576 122.920354 134.854679 
Q 122.920354 131.364305 128.286397 129.333712 
Q 133.652439 127.3 142.840113 127.3 
Q 145.921056 127.3 148.749851 127.574489 
Q 151.578646 127.845858 154.19469 128.382359 
L 154.19469 131.392378 
Q 151.555007 130.681202 148.99412 130.350568 
Q 146.433234 130.019934 143.604439 130.019934 
Q 138.529943 130.019934 135.622352 131.308159 
Q 132.72264 132.593266 132.72264 134.854679 
Q 132.72264 137.106734 135.622352 138.39496 
Q 138.529943 139.680066 143.604439 139.680066 
Q 146.433234 139.680066 148.99412 139.349432 
Q 151.555007 139.015679 154.19469 138.304503 
z
" style="fill:#0000ff;"/>
   </g>
   <g id="patch_8">
    <path clip-path="url(#p7e94aba693)" d="M 154.19469 124.567589 
Q 151.040622 125.933795 147.648247 126.620017 
Q 144.255872 127.3 140.639207 127.3 
Q 132.466666 127.3 127.69351 123.232576 
Q 122.920354 119.165152 122.920354 112.209358 
Q 122.920354 105.172464 127.777619 101.136232 
Q 132.641892 97.1 141.101804 97.1 
Q 144.361007 97.1 147.346858 97.648977 
Q 150.339718 98.191717 152.989135 99.264718 
L 152.989135 105.284755 
Q 150.25561 103.906073 147.55012 103.22609 
Q 144.844631 102.539868 142.125123 102.539868 
Q 137.092633 102.539868 134.366116 105.047697 
Q 131.6396 107.549287 131.6396 112.209358 
Q 131.6396 116.825759 134.26799 119.346065 
Q 136.89638 121.860132 141.732617 121.860132 
Q 143.050317 121.860132 144.178772 121.716649 
Q 145.307228 121.566928 146.204385 121.255009 
L 146.204385 115.603037 
L 141.05274 115.603037 
L 141.05274 110.568663 
L 154.19469 110.568663 
z
" style="fill:#ffa600;"/>
   </g>
   <g id="patch_9">
    <path clip-path="url(#p7e94aba693)" d="M 122.920354 21.6 
L 154.19469 21.6 
L 154.19469 36.324604 
L 142.943202 36.324604 
L 142.943202 97.1 
L 134.193661 97.1 
L 134.193661 36.324604 
L 122.920354 36.324604 
z
" style="fill:#ff0000;"/>
   </g>
   <g id="patch_10">
    <path clip-path="url(#p7e94aba693)" d="M 187.115044 154.767589 
Q 183.960976 156.133795 180.568601 156.820017 
Q 177.176226 157.5 173.559561 157.5 
Q 165.38702 157.5 160.613864 153.432576 
Q 155.840708 149.365152 155.840708 142.409358 
Q 155.840708 135.372464 160.697973 131.336232 
Q 165.562246 127.3 174.022158 127.3 
Q 177.281361 127.3 180.267212 127.848977 
Q 183.260072 128.391717 185.909489 129.464718 
L 185.909489 135.484755 
Q 183.175964 134.106073 180.470474 133.42609 
Q 177.764985 132.739868 175.045477 132.739868 
Q 170.012987 132.739868 167.28647 135.247697 
Q 164.559954 137.749287 164.559954 142.409358 
Q 164.559954 147.025759 167.188344 149.546065 
Q 169.816734 152.060132 174.652971 152.060132 
Q 175.970671 152.060132 177.099126 151.916649 
Q 178.227582 151.766928 179.124739 151.455009 
L 179.124739 145.803037 
L 173.973094 145.803037 
L 173.973094 140.768663 
L 187.115044 140.768663 
z
" style="fill:#ffa600;"/>
   </g>
   <g id="patch_11">
    <path clip-path="url(#p7e94aba693)" d="M 187.115044 124.052923 
Q 184.499 125.662425 181.670205 126.476534 
Q 178.84141 127.3 175.760467 127.3 
Q 166.572793 127.3 161.206751 121.198864 
Q 155.840708 115.097728 155.840708 104.664036 
Q 155.840708 94.192915 161.206751 88.101136 
Q 166.572793 82 175.760467 82 
Q 178.84141 82 181.670205 82.823466 
Q 184.499 83.637575 187.115044 85.247077 
L 187.115044 94.277133 
Q 184.475361 92.143607 181.914474 91.151704 
Q 179.353588 90.159802 176.524793 90.159802 
Q 171.450297 90.159802 168.542706 94.024478 
Q 165.642994 97.879798 165.642994 104.664036 
Q 165.642994 111.420202 168.542706 115.284879 
Q 171.450297 119.140198 176.524793 119.140198 
Q 179.353588 119.140198 181.914474 118.148296 
Q 184.475361 117.147036 187.115044 115.01351 
z
" style="fill:#0000ff;"/>
   </g>
   <g id="patch_12">
    <path clip-path="url(#p7e94aba693)" d="M 155.840708 21.6 
L 187.115044 21.6 
L 187.115044 33.379683 
L 175.863556 33.379683 
L 175.863556 82 
L 167.114015 82 
L 167.114015 33.379683 
L 155.840708 33.379683 
z
" style="fill:#ff0000;"/>
   </g>
   <g id="patch_13">
    <path clip-path="url(#p7e94aba693)" d="M 220.035398 156.133795 
Q 216.88133 156.816897 213.488955 157.160008 
Q 210.09658 157.5 206.479915 157.5 
Q 198.307374 157.5 193.534218 155.466288 
Q 188.761062 153.432576 188.761062 149.954679 
Q 188.761062 146.436232 193.618327 144.418116 
Q 198.4826 142.4 206.942512 142.4 
Q 210.201715 142.4 213.187566 142.674489 
Q 216.180426 142.945858 218.829843 143.482359 
L 218.829843 146.492378 
Q 216.096318 145.803037 213.390828 145.463045 
Q 210.685339 145.119934 207.965831 145.119934 
Q 202.933341 145.119934 200.206824 146.373848 
Q 197.480308 147.624644 197.480308 149.954679 
Q 197.480308 152.26288 200.108698 153.523032 
Q 202.737088 154.780066 207.573325 154.780066 
Q 208.891025 154.780066 210.01948 154.708325 
Q 211.147936 154.633464 212.045093 154.477505 
L 212.045093 151.651518 
L 206.893448 151.651518 
L 206.893448 149.134332 
L 220.035398 149.134332 
z
" style="fill:#ffa600;"/>
   </g>
   <g id="patch_14">
    <path clip-path="url(#p7e94aba693)" d="M 210.424822 136.8985 
L 198.397215 136.8985 
L 196.498119 142.4 
L 188.761062 142.4 
L 199.810347 112.2 
L 208.986113 112.2 
L 220.035398 142.4 
L 212.304735 142.4 
z
M 200.315494 131.293442 
L 208.487361 131.293442 
L 204.407821 119.280754 
z
" style="fill:#008000;"/>
   </g>
   <g id="patch_15">
    <path clip-path="url(#p7e94aba693)" d="M 188.761062 21.6 
L 220.035398 21.6 
L 220.035398 39.269524 
L 208.78391 39.269524 
L 208.78391 112.2 
L 200.034369 112.2 
L 200.034369 39.269524 
L 188.761062 39.269524 
z
" style="fill:#ff0000;"/>
   </g>
   <g id="patch_16">
    <path clip-path="url(#p7e94aba693)" d="M 221.681416 97.1 
L 252.955752 97.1 
L 252.955752 108.879683 
L 241.704264 108.879683 
L 241.704264 157.5 
L 232.954723 157.5 
L 232.954723 108.879683 
L 221.681416 108.879683 
z
" style="fill:#ff0000;"/>
   </g>
   <g id="patch_17">
    <path clip-path="url(#p7e94aba693)" d="M 243.345176 83.346249 
L 231.317569 83.346249 
L 229.418473 97.1 
L 221.681416 97.1 
L 232.730701 21.6 
L 241.906467 21.6 
L 252.955752 97.1 
L 245.225089 97.1 
z
M 233.235848 69.333605 
L 241.407715 69.333605 
L 237.328175 39.301886 
z
" style="fill:#008000;"/>
   </g>
   <g id="patch_18">
    <path clip-path="url(#p7e94aba693)" d="M 276.26553 146.497 
L 264.237923 146.497 
L 262.338827 157.5 
L 254.60177 157.5 
L 265.651055 97.1 
L 274.826821 97.1 
L 285.876106 157.5 
L 278.145443 157.5 
z
M 266.156202 135.286884 
L 274.328069 135.286884 
L 270.248529 111.261509 
z
" style="fill:#008000;"/>
   </g>
   <g id="patch_19">
    <path clip-path="url(#p7e94aba693)" d="M 254.60177 21.6 
L 285.876106 21.6 
L 285.876106 36.324604 
L 274.624618 36.324604 
L 274.624618 97.1 
L 265.875077 97.1 
L 265.875077 36.324604 
L 254.60177 36.324604 
z
" style="fill:#ff0000;"/>
   </g>
   <g id="patch_20">
    <path clip-path="url(#p7e94aba693)" d="M 318.79646 153.401384 
Q 315.642392 155.450692 312.250017 156.480025 
Q 308.857642 157.5 305.240977 157.5 
Q 297.068436 157.5 292.29528 151.398864 
Q 287.522124 145.297728 287.522124 134.864036 
Q 287.522124 124.308697 292.379389 118.254348 
Q 297.243662 112.2 305.703574 112.2 
Q 308.962777 112.2 311.948628 113.023466 
Q 314.941488 113.837575 317.590905 115.447077 
L 317.590905 124.477133 
Q 314.85738 122.40911 312.15189 121.389134 
Q 309.446401 120.359802 306.726893 120.359802 
Q 301.694403 120.359802 298.967886 124.121545 
Q 296.24137 127.873931 296.24137 134.864036 
Q 296.24137 141.788639 298.86976 145.569097 
Q 301.49815 149.340198 306.334387 149.340198 
Q 307.652087 149.340198 308.780542 149.124974 
Q 309.908998 148.900392 310.806155 148.432514 
L 310.806155 139.954555 
L 305.65451 139.954555 
L 305.65451 132.402995 
L 318.79646 132.402995 
z
" style="fill:#ffa600;"/>
   </g>
   <g id="patch_21">
    <path clip-path="url(#p7e94aba693)" d="M 309.185884 95.695499 
L 297.158277 95.695499 
L 295.259181 112.2 
L 287.522124 112.2 
L 298.571409 21.6 
L 307.747175 21.6 
L 318.79646 112.2 
L 311.065797 112.2 
z
M 299.076556 78.880326 
L 307.248423 78.880326 
L 303.168883 42.842263 
z
" style="fill:#008000;"/>
   </g>
   <g id="patch_22">
    <path clip-path="url(#p7e94aba693)" d="M 351.716814 155.335282 
Q 349.10077 156.408283 346.271975 156.951023 
Q 343.44318 157.5 340.362237 157.5 
Q 331.174563 157.5 325.80852 153.432576 
Q 320.442478 149.365152 320.442478 142.409358 
Q 320.442478 135.42861 325.80852 131.367424 
Q 331.174563 127.3 340.362237 127.3 
Q 343.44318 127.3 346.271975 127.848977 
Q 349.10077 128.391717 351.716814 129.464718 
L 351.716814 135.484755 
Q 349.077131 134.062404 346.516244 133.401136 
Q 343.955358 132.739868 341.126563 132.739868 
Q 336.052067 132.739868 333.144476 135.316319 
Q 330.244764 137.886532 330.244764 142.409358 
Q 330.244764 146.913468 333.144476 149.489919 
Q 336.052067 152.060132 341.126563 152.060132 
Q 343.955358 152.060132 346.516244 151.398864 
Q 349.077131 150.731357 351.716814 149.309006 
z
" style="fill:#0000ff;"/>
   </g>
   <g id="patch_23">
    <path clip-path="url(#p7e94aba693)" d="M 342.106238 108.044749 
L 330.078631 108.044749 
L 328.179535 127.3 
L 320.442478 127.3 
L 331.491763 21.6 
L 340.667529 21.6 
L 351.716814 127.3 
L 343.986151 127.3 
z
M 331.99691 88.427047 
L 340.168777 88.427047 
L 336.089237 46.38264 
z
" style="fill:#008000;"/>
   </g>
   <g id="patch_24">
    <path clip-path="url(#p7e94aba693)" d="M 375.026592 132.743249 
L 362.998985 132.743249 
L 361.099889 157.5 
L 353.362832 157.5 
L 364.412117 21.6 
L 373.587883 21.6 
L 384.637168 157.5 
L 376.906505 157.5 
z
M 364.917264 107.520489 
L 373.089131 107.520489 
L 369.009591 53.463395 
z
" style="fill:#008000;"/>
   </g>
   <g id="patch_25">
    <path clip-path="url(#p7e94aba693)" d="M 407.946946 151.9985 
L 395.919339 151.9985 
L 394.020243 157.5 
L 386.283186 157.5 
L 397.332471 127.3 
L 406.508237 127.3 
L 417.557522 157.5 
L 409.826859 157.5 
z
M 397.837618 146.393442 
L 406.009485 146.393442 
L 401.929945 134.380754 
z
" style="fill:#008000;"/>
   </g>
   <g id="patch_26">
    <path clip-path="url(#p7e94aba693)" d="M 417.557522 117.736563 
Q 414.403454 122.518281 411.011079 124.920058 
Q 407.618703 127.3 404.002039 127.3 
Q 395.829498 127.3 391.056342 113.064016 
Q 386.283186 98.828031 386.283186 74.482751 
Q 386.283186 49.853625 391.140451 35.726813 
Q 396.004724 21.6 404.464635 21.6 
Q 407.723839 21.6 410.70969 23.521421 
Q 413.70255 25.421008 416.351967 29.176513 
L 416.351967 50.246643 
Q 413.618442 45.421256 410.912952 43.041314 
Q 408.207463 40.639537 405.487955 40.639537 
Q 400.455465 40.639537 397.728948 49.416939 
Q 395.002432 58.172506 395.002432 74.482751 
Q 395.002432 90.640157 397.630822 99.461227 
Q 400.259212 108.260463 405.095449 108.260463 
Q 406.413149 108.260463 407.541604 107.758273 
Q 408.670059 107.234249 409.567217 106.142533 
L 409.567217 86.360628 
L 404.415572 86.360628 
L 404.415572 68.740322 
L 417.557522 68.740322 
z
" style="fill:#ffa600;"/>
   </g>
   <g id="patch_27">
    <path clip-path="url(#p7e94aba693)" d="M 450.477876 154.252923 
Q 447.861832 155.862425 445.033037 156.676534 
Q 442.204242 157.5 439.123298 157.5 
Q 429.935625 157.5 424.569582 151.398864 
Q 419.20354 145.297728 419.20354 134.864036 
Q 419.20354 124.392915 424.569582 118.301136 
Q 429.935625 112.2 439.123298 112.2 
Q 442.204242 112.2 445.033037 113.023466 
Q 447.861832 113.837575 450.477876 115.447077 
L 450.477876 124.477133 
Q 447.838193 122.343607 445.277306 121.351704 
Q 442.71642 120.359802 439.887625 120.359802 
Q 434.813129 120.359802 431.905538 124.224478 
Q 429.005826 128.079798 429.005826 134.864036 
Q 429.005826 141.620202 431.905538 145.484879 
Q 434.813129 149.340198 439.887625 149.340198 
Q 442.71642 149.340198 445.277306 148.348296 
Q 447.838193 147.347036 450.477876 145.21351 
z
" style="fill:#0000ff;"/>
   </g>
   <g id="patch_28">
    <path clip-path="url(#p7e94aba693)" d="M 419.20354 21.6 
L 450.477876 21.6 
L 450.477876 39.269524 
L 439.226388 39.269524 
L 439.226388 112.2 
L 430.476847 112.2 
L 430.476847 39.269524 
L 419.20354 39.269524 
z
" style="fill:#ff0000;"/>
   </g>
   <g id="patch_29">
    <path clip-path="url(#p7e94aba693)" d="M 452.123894 21.6 
L 483.39823 21.6 
L 483.39823 48.104286 
L 472.146742 48.104286 
L 472.146742 157.5 
L 463.397201 157.5 
L 463.397201 48.104286 
L 452.123894 48.104286 
z
" style="fill:#ff0000;"/>
   </g>
   <g id="patch_30">
    <path clip-path="url(#p7e94aba693)" d="M 485.044248 142.4 
L 516.318584 142.4 
L 516.318584 145.344921 
L 505.067096 145.344921 
L 505.067096 157.5 
L 496.317555 157.5 
L 496.317555 145.344921 
L 485.044248 145.344921 
z
" style="fill:#ff0000;"/>
   </g>
   <g id="patch_31">
    <path clip-path="url(#p7e94aba693)" d="M 506.708008 120.393999 
L 494.680401 120.393999 
L 492.781305 142.4 
L 485.044248 142.4 
L 496.093533 21.6 
L 505.269299 21.6 
L 516.318584 142.4 
L 508.587921 142.4 
z
M 496.59868 97.973768 
L 504.770547 97.973768 
L 500.691007 49.923018 
z
" style="fill:#008000;"/>
   </g>
   <g id="patch_32">
    <path clip-path="url(#p7e94aba693)" d="M 539.628362 151.9985 
L 527.600755 151.9985 
L 525.701659 157.5 
L 517.964602 157.5 
L 529.013887 127.3 
L 538.189653 127.3 
L 549.238938 157.5 
L 541.508275 157.5 
z
M 529.519034 146.393442 
L 537.690901 146.393442 
L 533.611361 134.380754 
z
" style="fill:#008000;"/>
   </g>
   <g id="patch_33">
    <path clip-path="url(#p7e94aba693)" d="M 517.964602 82 
L 549.238938 82 
L 549.238938 90.834762 
L 537.98745 90.834762 
L 537.98745 127.3 
L 529.237909 127.3 
L 529.237909 90.834762 
L 517.964602 90.834762 
z
" style="fill:#ff0000;"/>
   </g>
   <g id="patch_34">
    <path clip-path="url(#p7e94aba693)" d="M 549.238938 77.670564 
Q 546.622894 79.816567 543.794099 80.902045 
Q 540.965304 82 537.88436 82 
Q 528.696687 82 523.330644 73.865152 
Q 517.964602 65.730304 517.964602 51.818715 
Q 517.964602 37.85722 523.330644 29.734848 
Q 528.696687 21.6 537.88436 21.6 
Q 540.965304 21.6 543.794099 22.697955 
Q 546.622894 23.783433 549.238938 25.929436 
L 549.238938 37.96951 
Q 546.599255 35.124809 544.038368 33.802272 
Q 541.477481 32.479736 538.648687 32.479736 
Q 533.574191 32.479736 530.6666 37.632638 
Q 527.766888 42.773063 527.766888 51.818715 
Q 527.766888 60.826937 530.6666 65.979839 
Q 533.574191 71.120264 538.648687 71.120264 
Q 541.477481 71.120264 544.038368 69.797728 
Q 546.599255 68.462714 549.238938 65.618013 
z
" style="fill:#0000ff;"/>
   </g>
   <g id="patch_35">
    <path clip-path="url(#p7e94aba693)" d="M 582.159292 156.417641 
Q 579.543248 156.954142 576.714453 157.225511 
Q 573.885658 157.5 570.804714 157.5 
Q 561.617041 157.5 556.250998 155.466288 
Q 550.884956 153.432576 550.884956 149.954679 
Q 550.884956 146.464305 556.250998 144.433712 
Q 561.617041 142.4 570.804714 142.4 
Q 573.885658 142.4 576.714453 142.674489 
Q 579.543248 142.945858 582.159292 143.482359 
L 582.159292 146.492378 
Q 579.519609 145.781202 576.958722 145.450568 
Q 574.397835 145.119934 571.569041 145.119934 
Q 566.494545 145.119934 563.586954 146.408159 
Q 560.687242 147.693266 560.687242 149.954679 
Q 560.687242 152.206734 563.586954 153.49496 
Q 566.494545 154.780066 571.569041 154.780066 
Q 574.397835 154.780066 576.958722 154.449432 
Q 579.519609 154.115679 582.159292 153.404503 
z
" style="fill:#0000ff;"/>
   </g>
   <g id="patch_36">
    <path clip-path="url(#p7e94aba693)" d="M 582.159292 141.033795 
Q 579.005224 141.716897 575.612849 142.060008 
Q 572.220473 142.4 568.603809 142.4 
Q 560.431268 142.4 555.658112 140.366288 
Q 550.884956 138.332576 550.884956 134.854679 
Q 550.884956 131.336232 555.74222 129.318116 
Q 560.606494 127.3 569.066405 127.3 
Q 572.325609 127.3 575.31146 127.574489 
Q 578.30432 127.845858 580.953737 128.382359 
L 580.953737 131.392378 
Q 578.220212 130.703037 575.514722 130.363045 
Q 572.809233 130.019934 570.089725 130.019934 
Q 565.057235 130.019934 562.330718 131.273848 
Q 559.604201 132.524644 559.604201 134.854679 
Q 559.604201 137.16288 562.232591 138.423032 
Q 564.860981 139.680066 569.697219 139.680066 
Q 571.014919 139.680066 572.143374 139.608325 
Q 573.271829 139.533464 574.168986 139.377505 
L 574.168986 136.551518 
L 569.017342 136.551518 
L 569.017342 134.034332 
L 582.159292 134.034332 
z
" style="fill:#ffa600;"/>
   </g>
   <g id="patch_37">
    <path clip-path="url(#p7e94aba693)" d="M 572.548716 119.04775 
L 560.521109 119.04775 
L 558.622013 127.3 
L 550.884956 127.3 
L 561.934241 82 
L 571.110007 82 
L 582.159292 127.3 
L 574.428629 127.3 
z
M 562.439387 110.640163 
L 570.611255 110.640163 
L 566.531715 92.621132 
z
" style="fill:#008000;"/>
   </g>
   <g id="patch_38">
    <path clip-path="url(#p7e94aba693)" d="M 550.884956 21.6 
L 582.159292 21.6 
L 582.159292 33.379683 
L 570.907804 33.379683 
L 570.907804 82 
L 562.158263 82 
L 562.158263 33.379683 
L 550.884956 33.379683 
z
" style="fill:#ff0000;"/>
   </g>
   <g id="patch_39">
    <path clip-path="url(#p7e94aba693)" d="M 615.079646 155.335282 
Q 612.463602 156.408283 609.634807 156.951023 
Q 606.806012 157.5 603.725068 157.5 
Q 594.537395 157.5 589.171352 153.432576 
Q 583.80531 149.365152 583.80531 142.409358 
Q 583.80531 135.42861 589.171352 131.367424 
Q 594.537395 127.3 603.725068 127.3 
Q 606.806012 127.3 609.634807 127.848977 
Q 612.463602 128.391717 615.079646 129.464718 
L 615.079646 135.484755 
Q 612.439963 134.062404 609.879076 133.401136 
Q 607.318189 132.739868 604.489395 132.739868 
Q 599.414899 132.739868 596.507308 135.316319 
Q 593.607596 137.886532 593.607596 142.409358 
Q 593.607596 146.913468 596.507308 149.489919 
Q 599.414899 152.060132 604.489395 152.060132 
Q 607.318189 152.060132 609.879076 151.398864 
Q 612.439963 150.731357 615.079646 149.309006 
z
" style="fill:#0000ff;"/>
   </g>
   <g id="patch_40">
    <path clip-path="url(#p7e94aba693)" d="M 583.80531 97.1 
L 615.079646 97.1 
L 615.079646 102.989841 
L 603.828158 102.989841 
L 603.828158 127.3 
L 595.078617 127.3 
L 595.078617 102.989841 
L 583.80531 102.989841 
z
" style="fill:#ff0000;"/>
   </g>
   <g id="patch_41">
    <path clip-path="url(#p7e94aba693)" d="M 615.079646 90.268973 
Q 611.925578 93.684487 608.533203 95.400041 
Q 605.140827 97.1 601.524163 97.1 
Q 593.351622 97.1 588.578466 86.93144 
Q 583.80531 76.76288 583.80531 59.373394 
Q 583.80531 41.781161 588.662574 31.69058 
Q 593.526848 21.6 601.986759 21.6 
Q 605.245963 21.6 608.231814 22.972444 
Q 611.224674 24.329291 613.874091 27.011795 
L 613.874091 42.061888 
Q 611.140566 38.615183 608.435076 36.915224 
Q 605.729587 35.199669 603.010079 35.199669 
Q 597.977589 35.199669 595.251072 41.469242 
Q 592.524555 47.723218 592.524555 59.373394 
Q 592.524555 70.914398 595.152945 77.215162 
Q 597.781335 83.500331 602.617573 83.500331 
Q 603.935272 83.500331 605.063728 83.141624 
Q 606.192183 82.767321 607.08934 81.987523 
L 607.08934 67.857591 
L 601.937696 67.857591 
L 601.937696 55.271659 
L 615.079646 55.271659 
z
" style="fill:#ffa600;"/>
   </g>
   <g id="patch_42">
    <path clip-path="url(#p7e94aba693)" d="M 638.389424 149.24775 
L 626.361817 149.24775 
L 624.462721 157.5 
L 616.725664 157.5 
L 627.774949 112.2 
L 636.950715 112.2 
L 648 157.5 
L 640.269337 157.5 
z
M 628.280095 140.840163 
L 636.451963 140.840163 
L 632.372423 122.821132 
z
" style="fill:#008000;"/>
   </g>
   <g id="patch_43">
    <path clip-path="url(#p7e94aba693)" d="M 648 108.101384 
Q 644.845932 110.150692 641.453557 111.180025 
Q 638.061181 112.2 634.444517 112.2 
Q 626.271976 112.2 621.49882 106.098864 
Q 616.725664 99.997728 616.725664 89.564036 
Q 616.725664 79.008697 621.582928 72.954348 
Q 626.447202 66.9 634.907113 66.9 
Q 638.166317 66.9 641.152168 67.723466 
Q 644.145028 68.537575 646.794445 70.147077 
L 646.794445 79.177133 
Q 644.06092 77.10911 641.35543 76.089134 
Q 638.649941 75.059802 635.930433 75.059802 
Q 630.897943 75.059802 628.171426 78.821545 
Q 625.444909 82.573931 625.444909 89.564036 
Q 625.444909 96.488639 628.073299 100.269097 
Q 630.701689 104.040198 635.537927 104.040198 
Q 636.855626 104.040198 637.984082 103.824974 
Q 639.112537 103.600392 640.009694 103.132514 
L 640.009694 94.654555 
L 634.85805 94.654555 
L 634.85805 87.102995 
L 648 87.102995 
z
" style="fill:#ffa600;"/>
   </g>
   <g id="patch_44">
    <path clip-path="url(#p7e94aba693)" d="M 616.725664 21.6 
L 648 21.6 
L 648 30.434762 
L 636.748512 30.434762 
L 636.748512 66.9 
L 627.998971 66.9 
L 627.998971 30.434762 
L 616.725664 30.434762 
z
" style="fill:#ff0000;"/>
   </g>
  </g>
 </g>
 <defs>
  <clipPath id="p7e94aba693">
   <rect height="135.9" width="558" x="90" y="21.6"/>
  </clipPath>
 </defs>
</svg>
