<?xml version="1.0" encoding="utf-8" standalone="no"?>
<!DOCTYPE svg PUBLIC "-//W3C//DTD SVG 1.1//EN"
  "http://www.w3.org/Graphics/SVG/1.1/DTD/svg11.dtd">
<!-- Created with matplotlib (https://matplotlib.org/) -->
<svg height="180pt" version="1.1" viewBox="0 0 720 180" width="720pt" xmlns="http://www.w3.org/2000/svg" xmlns:xlink="http://www.w3.org/1999/xlink">
 <metadata>
  <rdf:RDF xmlns:cc="http://creativecommons.org/ns#" xmlns:dc="http://purl.org/dc/elements/1.1/" xmlns:rdf="http://www.w3.org/1999/02/22-rdf-syntax-ns#">
   <cc:Work>
    <dc:type rdf:resource="http://purl.org/dc/dcmitype/StillImage"/>
    <dc:date>2021-08-04T23:33:51.643040</dc:date>
    <dc:format>image/svg+xml</dc:format>
    <dc:creator>
     <cc:Agent>
      <dc:title>Matplotlib v3.3.2, https://matplotlib.org/</dc:title>
     </cc:Agent>
    </dc:creator>
   </cc:Work>
  </rdf:RDF>
 </metadata>
 <defs>
  <style type="text/css">*{stroke-linecap:butt;stroke-linejoin:round;}</style>
 </defs>
 <g id="figure_1">
  <g id="patch_1">
   <path d="M 0 180 
L 720 180 
L 720 0 
L 0 0 
z
" style="fill:none;"/>
  </g>
  <g id="axes_1">
   <g id="line2d_1">
    <path clip-path="url(#pb50c4394bf)" d="M 90 157.5 
L 648 157.5 
" style="fill:none;stroke:#000000;stroke-linecap:square;stroke-width:0.5;"/>
   </g>
   <g id="patch_2">
    <path clip-path="url(#pb50c4394bf)" d="M 121.274336 156.133795 
Q 118.120268 156.816897 114.727893 157.160008 
Q 111.335518 157.5 107.718853 157.5 
Q 99.546312 157.5 94.773156 155.466288 
Q 90 153.432576 90 149.954679 
Q 90 146.436232 94.857265 144.418116 
Q 99.721538 142.4 108.18145 142.4 
Q 111.440653 142.4 114.426504 142.674489 
Q 117.419364 142.945858 120.068781 143.482359 
L 120.068781 146.492378 
Q 117.335256 145.803037 114.629766 145.463045 
Q 111.924277 145.119934 109.204769 145.119934 
Q 104.172279 145.119934 101.445762 146.373848 
Q 98.719246 147.624644 98.719246 149.954679 
Q 98.719246 152.26288 101.347636 153.523032 
Q 103.976026 154.780066 108.812263 154.780066 
Q 110.129963 154.780066 111.258418 154.708325 
Q 112.386874 154.633464 113.284031 154.477505 
L 113.284031 151.651518 
L 108.132386 151.651518 
L 108.132386 149.134332 
L 121.274336 149.134332 
z
" style="fill:#ffa600;"/>
   </g>
   <g id="patch_3">
    <path clip-path="url(#pb50c4394bf)" d="M 111.66376 136.8985 
L 99.636153 136.8985 
L 97.737057 142.4 
L 90 142.4 
L 101.049285 112.2 
L 110.225051 112.2 
L 121.274336 142.4 
L 113.543673 142.4 
z
M 101.554432 131.293442 
L 109.726299 131.293442 
L 105.64676 119.280754 
z
" style="fill:#008000;"/>
   </g>
   <g id="patch_4">
    <path clip-path="url(#pb50c4394bf)" d="M 90 82 
L 121.274336 82 
L 121.274336 87.889841 
L 110.022848 87.889841 
L 110.022848 112.2 
L 101.273307 112.2 
L 101.273307 87.889841 
L 90 87.889841 
z
" style="fill:#ff0000;"/>
   </g>
   <g id="patch_5">
    <path clip-path="url(#pb50c4394bf)" d="M 121.274336 77.670564 
Q 118.658292 79.816567 115.829497 80.902045 
Q 113.000702 82 109.919759 82 
Q 100.732085 82 95.366043 73.865152 
Q 90 65.730304 90 51.818715 
Q 90 37.85722 95.366043 29.734848 
Q 100.732085 21.6 109.919759 21.6 
Q 113.000702 21.6 115.829497 22.697955 
Q 118.658292 23.783433 121.274336 25.929436 
L 121.274336 37.96951 
Q 118.634653 35.124809 116.073766 33.802272 
Q 113.51288 32.479736 110.684085 32.479736 
Q 105.609589 32.479736 102.701998 37.632638 
Q 99.802286 42.773063 99.802286 51.818715 
Q 99.802286 60.826937 102.701998 65.979839 
Q 105.609589 71.120264 110.684085 71.120264 
Q 113.51288 71.120264 116.073766 69.797728 
Q 118.634653 68.462714 121.274336 65.618013 
z
" style="fill:#0000ff;"/>
   </g>
   <g id="patch_6">
    <path clip-path="url(#pb50c4394bf)" d="M 144.584114 154.74925 
L 132.556507 154.74925 
L 130.657411 157.5 
L 122.920354 157.5 
L 133.969639 142.4 
L 143.145405 142.4 
L 154.19469 157.5 
L 146.464027 157.5 
z
M 134.474786 151.946721 
L 142.646653 151.946721 
L 138.567114 145.940377 
z
" style="fill:#008000;"/>
   </g>
   <g id="patch_7">
    <path clip-path="url(#pb50c4394bf)" d="M 154.19469 141.033795 
Q 151.040622 141.716897 147.648247 142.060008 
Q 144.255872 142.4 140.639207 142.4 
Q 132.466666 142.4 127.69351 140.366288 
Q 122.920354 138.332576 122.920354 134.854679 
Q 122.920354 131.336232 127.777619 129.318116 
Q 132.641892 127.3 141.101804 127.3 
Q 144.361007 127.3 147.346858 127.574489 
Q 150.339718 127.845858 152.989135 128.382359 
L 152.989135 131.392378 
Q 150.25561 130.703037 147.55012 130.363045 
Q 144.844631 130.019934 142.125123 130.019934 
Q 137.092633 130.019934 134.366116 131.273848 
Q 131.6396 132.524644 131.6396 134.854679 
Q 131.6396 137.16288 134.26799 138.423032 
Q 136.89638 139.680066 141.732617 139.680066 
Q 143.050317 139.680066 144.178772 139.608325 
Q 145.307228 139.533464 146.204385 139.377505 
L 146.204385 136.551518 
L 141.05274 136.551518 
L 141.05274 134.034332 
L 154.19469 134.034332 
z
" style="fill:#ffa600;"/>
   </g>
   <g id="patch_8">
    <path clip-path="url(#pb50c4394bf)" d="M 122.920354 82 
L 154.19469 82 
L 154.19469 90.834762 
L 142.943202 90.834762 
L 142.943202 127.3 
L 134.193661 127.3 
L 134.193661 90.834762 
L 122.920354 90.834762 
z
" style="fill:#ff0000;"/>
   </g>
   <g id="patch_9">
    <path clip-path="url(#pb50c4394bf)" d="M 154.19469 77.670564 
Q 151.578646 79.816567 148.749851 80.902045 
Q 145.921056 82 142.840113 82 
Q 133.652439 82 128.286397 73.865152 
Q 122.920354 65.730304 122.920354 51.818715 
Q 122.920354 37.85722 128.286397 29.734848 
Q 133.652439 21.6 142.840113 21.6 
Q 145.921056 21.6 148.749851 22.697955 
Q 151.578646 23.783433 154.19469 25.929436 
L 154.19469 37.96951 
Q 151.555007 35.124809 148.99412 33.802272 
Q 146.433234 32.479736 143.604439 32.479736 
Q 138.529943 32.479736 135.622352 37.632638 
Q 132.72264 42.773063 132.72264 51.818715 
Q 132.72264 60.826937 135.622352 65.979839 
Q 138.529943 71.120264 143.604439 71.120264 
Q 146.433234 71.120264 148.99412 69.797728 
Q 151.555007 68.462714 154.19469 65.618013 
z
" style="fill:#0000ff;"/>
   </g>
   <g id="patch_10">
    <path clip-path="url(#pb50c4394bf)" d="M 177.504468 151.9985 
L 165.476861 151.9985 
L 163.577765 157.5 
L 155.840708 157.5 
L 166.889993 127.3 
L 176.065759 127.3 
L 187.115044 157.5 
L 179.384381 157.5 
z
M 167.39514 146.393442 
L 175.567007 146.393442 
L 171.487467 134.380754 
z
" style="fill:#008000;"/>
   </g>
   <g id="patch_11">
    <path clip-path="url(#pb50c4394bf)" d="M 187.115044 125.135282 
Q 184.499 126.208283 181.670205 126.751023 
Q 178.84141 127.3 175.760467 127.3 
Q 166.572793 127.3 161.206751 123.232576 
Q 155.840708 119.165152 155.840708 112.209358 
Q 155.840708 105.22861 161.206751 101.167424 
Q 166.572793 97.1 175.760467 97.1 
Q 178.84141 97.1 181.670205 97.648977 
Q 184.499 98.191717 187.115044 99.264718 
L 187.115044 105.284755 
Q 184.475361 103.862404 181.914474 103.201136 
Q 179.353588 102.539868 176.524793 102.539868 
Q 171.450297 102.539868 168.542706 105.116319 
Q 165.642994 107.686532 165.642994 112.209358 
Q 165.642994 116.713468 168.542706 119.289919 
Q 171.450297 121.860132 176.524793 121.860132 
Q 179.353588 121.860132 181.914474 121.198864 
Q 184.475361 120.531357 187.115044 119.109006 
z
" style="fill:#0000ff;"/>
   </g>
   <g id="patch_12">
    <path clip-path="url(#pb50c4394bf)" d="M 155.840708 66.9 
L 187.115044 66.9 
L 187.115044 72.789841 
L 175.863556 72.789841 
L 175.863556 97.1 
L 167.114015 97.1 
L 167.114015 72.789841 
L 155.840708 72.789841 
z
" style="fill:#ff0000;"/>
   </g>
   <g id="patch_13">
    <path clip-path="url(#pb50c4394bf)" d="M 187.115044 62.801384 
Q 183.960976 64.850692 180.568601 65.880025 
Q 177.176226 66.9 173.559561 66.9 
Q 165.38702 66.9 160.613864 60.798864 
Q 155.840708 54.697728 155.840708 44.264036 
Q 155.840708 33.708697 160.697973 27.654348 
Q 165.562246 21.6 174.022158 21.6 
Q 177.281361 21.6 180.267212 22.423466 
Q 183.260072 23.237575 185.909489 24.847077 
L 185.909489 33.877133 
Q 183.175964 31.80911 180.470474 30.789134 
Q 177.764985 29.759802 175.045477 29.759802 
Q 170.012987 29.759802 167.28647 33.521545 
Q 164.559954 37.273931 164.559954 44.264036 
Q 164.559954 51.188639 167.188344 54.969097 
Q 169.816734 58.740198 174.652971 58.740198 
Q 175.970671 58.740198 177.099126 58.524974 
Q 178.227582 58.300392 179.124739 57.832514 
L 179.124739 49.354555 
L 173.973094 49.354555 
L 173.973094 41.802995 
L 187.115044 41.802995 
z
" style="fill:#ffa600;"/>
   </g>
   <g id="patch_14">
    <path clip-path="url(#pb50c4394bf)" d="M 220.035398 156.133795 
Q 216.88133 156.816897 213.488955 157.160008 
Q 210.09658 157.5 206.479915 157.5 
Q 198.307374 157.5 193.534218 155.466288 
Q 188.761062 153.432576 188.761062 149.954679 
Q 188.761062 146.436232 193.618327 144.418116 
Q 198.4826 142.4 206.942512 142.4 
Q 210.201715 142.4 213.187566 142.674489 
Q 216.180426 142.945858 218.829843 143.482359 
L 218.829843 146.492378 
Q 216.096318 145.803037 213.390828 145.463045 
Q 210.685339 145.119934 207.965831 145.119934 
Q 202.933341 145.119934 200.206824 146.373848 
Q 197.480308 147.624644 197.480308 149.954679 
Q 197.480308 152.26288 200.108698 153.523032 
Q 202.737088 154.780066 207.573325 154.780066 
Q 208.891025 154.780066 210.01948 154.708325 
Q 211.147936 154.633464 212.045093 154.477505 
L 212.045093 151.651518 
L 206.893448 151.651518 
L 206.893448 149.134332 
L 220.035398 149.134332 
z
" style="fill:#ffa600;"/>
   </g>
   <g id="patch_15">
    <path clip-path="url(#pb50c4394bf)" d="M 220.035398 140.235282 
Q 217.419354 141.308283 214.590559 141.851023 
Q 211.761764 142.4 208.680821 142.4 
Q 199.493147 142.4 194.127105 138.332576 
Q 188.761062 134.265152 188.761062 127.309358 
Q 188.761062 120.32861 194.127105 116.267424 
Q 199.493147 112.2 208.680821 112.2 
Q 211.761764 112.2 214.590559 112.748977 
Q 217.419354 113.291717 220.035398 114.364718 
L 220.035398 120.384755 
Q 217.395715 118.962404 214.834828 118.301136 
Q 212.273942 117.639868 209.445147 117.639868 
Q 204.370651 117.639868 201.46306 120.216319 
Q 198.563348 122.786532 198.563348 127.309358 
Q 198.563348 131.813468 201.46306 134.389919 
Q 204.370651 136.960132 209.445147 136.960132 
Q 212.273942 136.960132 214.834828 136.298864 
Q 217.395715 135.631357 220.035398 134.209006 
z
" style="fill:#0000ff;"/>
   </g>
   <g id="patch_16">
    <path clip-path="url(#pb50c4394bf)" d="M 210.424822 95.695499 
L 198.397215 95.695499 
L 196.498119 112.2 
L 188.761062 112.2 
L 199.810347 21.6 
L 208.986113 21.6 
L 220.035398 112.2 
L 212.304735 112.2 
z
M 200.315494 78.880326 
L 208.487361 78.880326 
L 204.407821 42.842263 
z
" style="fill:#008000;"/>
   </g>
   <g id="patch_17">
    <path clip-path="url(#pb50c4394bf)" d="M 252.955752 156.417641 
Q 250.339708 156.954142 247.510913 157.225511 
Q 244.682118 157.5 241.601175 157.5 
Q 232.413501 157.5 227.047459 155.466288 
Q 221.681416 153.432576 221.681416 149.954679 
Q 221.681416 146.464305 227.047459 144.433712 
Q 232.413501 142.4 241.601175 142.4 
Q 244.682118 142.4 247.510913 142.674489 
Q 250.339708 142.945858 252.955752 143.482359 
L 252.955752 146.492378 
Q 250.316069 145.781202 247.755182 145.450568 
Q 245.194296 145.119934 242.365501 145.119934 
Q 237.291005 145.119934 234.383414 146.408159 
Q 231.483702 147.693266 231.483702 149.954679 
Q 231.483702 152.206734 234.383414 153.49496 
Q 237.291005 154.780066 242.365501 154.780066 
Q 245.194296 154.780066 247.755182 154.449432 
Q 250.316069 154.115679 252.955752 153.404503 
z
" style="fill:#0000ff;"/>
   </g>
   <g id="patch_18">
    <path clip-path="url(#pb50c4394bf)" d="M 221.681416 21.6 
L 252.955752 21.6 
L 252.955752 45.159366 
L 241.704264 45.159366 
L 241.704264 142.4 
L 232.954723 142.4 
L 232.954723 45.159366 
L 221.681416 45.159366 
z
" style="fill:#ff0000;"/>
   </g>
   <g id="patch_19">
    <path clip-path="url(#pb50c4394bf)" d="M 254.60177 142.4 
L 285.876106 142.4 
L 285.876106 145.344921 
L 274.624618 145.344921 
L 274.624618 157.5 
L 265.875077 157.5 
L 265.875077 145.344921 
L 254.60177 145.344921 
z
" style="fill:#ff0000;"/>
   </g>
   <g id="patch_20">
    <path clip-path="url(#pb50c4394bf)" d="M 276.26553 134.14775 
L 264.237923 134.14775 
L 262.338827 142.4 
L 254.60177 142.4 
L 265.651055 97.1 
L 274.826821 97.1 
L 285.876106 142.4 
L 278.145443 142.4 
z
M 266.156202 125.740163 
L 274.328069 125.740163 
L 270.248529 107.721132 
z
" style="fill:#008000;"/>
   </g>
   <g id="patch_21">
    <path clip-path="url(#pb50c4394bf)" d="M 285.876106 90.268973 
Q 282.722038 93.684487 279.329663 95.400041 
Q 275.937288 97.1 272.320623 97.1 
Q 264.148082 97.1 259.374926 86.93144 
Q 254.60177 76.76288 254.60177 59.373394 
Q 254.60177 41.781161 259.459035 31.69058 
Q 264.323308 21.6 272.78322 21.6 
Q 276.042423 21.6 279.028274 22.972444 
Q 282.021134 24.329291 284.670551 27.011795 
L 284.670551 42.061888 
Q 281.937026 38.615183 279.231536 36.915224 
Q 276.526047 35.199669 273.806539 35.199669 
Q 268.774049 35.199669 266.047532 41.469242 
Q 263.321016 47.723218 263.321016 59.373394 
Q 263.321016 70.914398 265.949406 77.215162 
Q 268.577796 83.500331 273.414033 83.500331 
Q 274.731733 83.500331 275.860188 83.141624 
Q 276.988644 82.767321 277.885801 81.987523 
L 277.885801 67.857591 
L 272.734156 67.857591 
L 272.734156 55.271659 
L 285.876106 55.271659 
z
" style="fill:#ffa600;"/>
   </g>
   <g id="patch_22">
    <path clip-path="url(#pb50c4394bf)" d="M 318.79646 156.417641 
Q 316.180416 156.954142 313.351621 157.225511 
Q 310.522826 157.5 307.441883 157.5 
Q 298.254209 157.5 292.888166 155.466288 
Q 287.522124 153.432576 287.522124 149.954679 
Q 287.522124 146.464305 292.888166 144.433712 
Q 298.254209 142.4 307.441883 142.4 
Q 310.522826 142.4 313.351621 142.674489 
Q 316.180416 142.945858 318.79646 143.482359 
L 318.79646 146.492378 
Q 316.156777 145.781202 313.59589 145.450568 
Q 311.035004 145.119934 308.206209 145.119934 
Q 303.131713 145.119934 300.224122 146.408159 
Q 297.32441 147.693266 297.32441 149.954679 
Q 297.32441 152.206734 300.224122 153.49496 
Q 303.131713 154.780066 308.206209 154.780066 
Q 311.035004 154.780066 313.59589 154.449432 
Q 316.156777 154.115679 318.79646 153.404503 
z
" style="fill:#0000ff;"/>
   </g>
   <g id="patch_23">
    <path clip-path="url(#pb50c4394bf)" d="M 318.79646 141.033795 
Q 315.642392 141.716897 312.250017 142.060008 
Q 308.857642 142.4 305.240977 142.4 
Q 297.068436 142.4 292.29528 140.366288 
Q 287.522124 138.332576 287.522124 134.854679 
Q 287.522124 131.336232 292.379389 129.318116 
Q 297.243662 127.3 305.703574 127.3 
Q 308.962777 127.3 311.948628 127.574489 
Q 314.941488 127.845858 317.590905 128.382359 
L 317.590905 131.392378 
Q 314.85738 130.703037 312.15189 130.363045 
Q 309.446401 130.019934 306.726893 130.019934 
Q 301.694403 130.019934 298.967886 131.273848 
Q 296.24137 132.524644 296.24137 134.854679 
Q 296.24137 137.16288 298.86976 138.423032 
Q 301.49815 139.680066 306.334387 139.680066 
Q 307.652087 139.680066 308.780542 139.608325 
Q 309.908998 139.533464 310.806155 139.377505 
L 310.806155 136.551518 
L 305.65451 136.551518 
L 305.65451 134.034332 
L 318.79646 134.034332 
z
" style="fill:#ffa600;"/>
   </g>
   <g id="patch_24">
    <path clip-path="url(#pb50c4394bf)" d="M 309.185884 108.044749 
L 297.158277 108.044749 
L 295.259181 127.3 
L 287.522124 127.3 
L 298.571409 21.6 
L 307.747175 21.6 
L 318.79646 127.3 
L 311.065797 127.3 
z
M 299.076556 88.427047 
L 307.248423 88.427047 
L 303.168883 46.38264 
z
" style="fill:#008000;"/>
   </g>
   <g id="patch_25">
    <path clip-path="url(#pb50c4394bf)" d="M 351.716814 156.133795 
Q 348.562746 156.816897 345.170371 157.160008 
Q 341.777996 157.5 338.161331 157.5 
Q 329.98879 157.5 325.215634 155.466288 
Q 320.442478 153.432576 320.442478 149.954679 
Q 320.442478 146.436232 325.299743 144.418116 
Q 330.164016 142.4 338.623928 142.4 
Q 341.883131 142.4 344.868982 142.674489 
Q 347.861842 142.945858 350.511259 143.482359 
L 350.511259 146.492378 
Q 347.777734 145.803037 345.072244 145.463045 
Q 342.366755 145.119934 339.647247 145.119934 
Q 334.614757 145.119934 331.88824 146.373848 
Q 329.161724 147.624644 329.161724 149.954679 
Q 329.161724 152.26288 331.790114 153.523032 
Q 334.418504 154.780066 339.254741 154.780066 
Q 340.572441 154.780066 341.700896 154.708325 
Q 342.829351 154.633464 343.726509 154.477505 
L 343.726509 151.651518 
L 338.574864 151.651518 
L 338.574864 149.134332 
L 351.716814 149.134332 
z
" style="fill:#ffa600;"/>
   </g>
   <g id="patch_26">
    <path clip-path="url(#pb50c4394bf)" d="M 342.106238 120.393999 
L 330.078631 120.393999 
L 328.179535 142.4 
L 320.442478 142.4 
L 331.491763 21.6 
L 340.667529 21.6 
L 351.716814 142.4 
L 343.986151 142.4 
z
M 331.99691 97.973768 
L 340.168777 97.973768 
L 336.089237 49.923018 
z
" style="fill:#008000;"/>
   </g>
   <g id="patch_27">
    <path clip-path="url(#pb50c4394bf)" d="M 384.637168 156.133795 
Q 381.4831 156.816897 378.090725 157.160008 
Q 374.698349 157.5 371.081685 157.5 
Q 362.909144 157.5 358.135988 155.466288 
Q 353.362832 153.432576 353.362832 149.954679 
Q 353.362832 146.436232 358.220097 144.418116 
Q 363.08437 142.4 371.544282 142.4 
Q 374.803485 142.4 377.789336 142.674489 
Q 380.782196 142.945858 383.431613 143.482359 
L 383.431613 146.492378 
Q 380.698088 145.803037 377.992598 145.463045 
Q 375.287109 145.119934 372.567601 145.119934 
Q 367.535111 145.119934 364.808594 146.373848 
Q 362.082078 147.624644 362.082078 149.954679 
Q 362.082078 152.26288 364.710468 153.523032 
Q 367.338858 154.780066 372.175095 154.780066 
Q 373.492795 154.780066 374.62125 154.708325 
Q 375.749705 154.633464 376.646863 154.477505 
L 376.646863 151.651518 
L 371.495218 151.651518 
L 371.495218 149.134332 
L 384.637168 149.134332 
z
" style="fill:#ffa600;"/>
   </g>
   <g id="patch_28">
    <path clip-path="url(#pb50c4394bf)" d="M 375.026592 136.8985 
L 362.998985 136.8985 
L 361.099889 142.4 
L 353.362832 142.4 
L 364.412117 112.2 
L 373.587883 112.2 
L 384.637168 142.4 
L 376.906505 142.4 
z
M 364.917264 131.293442 
L 373.089131 131.293442 
L 369.009591 119.280754 
z
" style="fill:#008000;"/>
   </g>
   <g id="patch_29">
    <path clip-path="url(#pb50c4394bf)" d="M 353.362832 21.6 
L 384.637168 21.6 
L 384.637168 39.269524 
L 373.38568 39.269524 
L 373.38568 112.2 
L 364.636139 112.2 
L 364.636139 39.269524 
L 353.362832 39.269524 
z
" style="fill:#ff0000;"/>
   </g>
   <g id="patch_30">
    <path clip-path="url(#pb50c4394bf)" d="M 407.946946 154.74925 
L 395.919339 154.74925 
L 394.020243 157.5 
L 386.283186 157.5 
L 397.332471 142.4 
L 406.508237 142.4 
L 417.557522 157.5 
L 409.826859 157.5 
z
M 397.837618 151.946721 
L 406.009485 151.946721 
L 401.929945 145.940377 
z
" style="fill:#008000;"/>
   </g>
   <g id="patch_31">
    <path clip-path="url(#pb50c4394bf)" d="M 386.283186 127.3 
L 417.557522 127.3 
L 417.557522 130.244921 
L 406.306034 130.244921 
L 406.306034 142.4 
L 397.556493 142.4 
L 397.556493 130.244921 
L 386.283186 130.244921 
z
" style="fill:#ff0000;"/>
   </g>
   <g id="patch_32">
    <path clip-path="url(#pb50c4394bf)" d="M 417.557522 117.736563 
Q 414.403454 122.518281 411.011079 124.920058 
Q 407.618703 127.3 404.002039 127.3 
Q 395.829498 127.3 391.056342 113.064016 
Q 386.283186 98.828031 386.283186 74.482751 
Q 386.283186 49.853625 391.140451 35.726813 
Q 396.004724 21.6 404.464635 21.6 
Q 407.723839 21.6 410.70969 23.521421 
Q 413.70255 25.421008 416.351967 29.176513 
L 416.351967 50.246643 
Q 413.618442 45.421256 410.912952 43.041314 
Q 408.207463 40.639537 405.487955 40.639537 
Q 400.455465 40.639537 397.728948 49.416939 
Q 395.002432 58.172506 395.002432 74.482751 
Q 395.002432 90.640157 397.630822 99.461227 
Q 400.259212 108.260463 405.095449 108.260463 
Q 406.413149 108.260463 407.541604 107.758273 
Q 408.670059 107.234249 409.567217 106.142533 
L 409.567217 86.360628 
L 404.415572 86.360628 
L 404.415572 68.740322 
L 417.557522 68.740322 
z
" style="fill:#ffa600;"/>
   </g>
   <g id="patch_33">
    <path clip-path="url(#pb50c4394bf)" d="M 450.477876 156.133795 
Q 447.323808 156.816897 443.931433 157.160008 
Q 440.539057 157.5 436.922393 157.5 
Q 428.749852 157.5 423.976696 155.466288 
Q 419.20354 153.432576 419.20354 149.954679 
Q 419.20354 146.436232 424.060805 144.418116 
Q 428.925078 142.4 437.384989 142.4 
Q 440.644193 142.4 443.630044 142.674489 
Q 446.622904 142.945858 449.272321 143.482359 
L 449.272321 146.492378 
Q 446.538796 145.803037 443.833306 145.463045 
Q 441.127817 145.119934 438.408309 145.119934 
Q 433.375819 145.119934 430.649302 146.373848 
Q 427.922786 147.624644 427.922786 149.954679 
Q 427.922786 152.26288 430.551176 153.523032 
Q 433.179565 154.780066 438.015803 154.780066 
Q 439.333503 154.780066 440.461958 154.708325 
Q 441.590413 154.633464 442.487571 154.477505 
L 442.487571 151.651518 
L 437.335926 151.651518 
L 437.335926 149.134332 
L 450.477876 149.134332 
z
" style="fill:#ffa600;"/>
   </g>
   <g id="patch_34">
    <path clip-path="url(#pb50c4394bf)" d="M 450.477876 139.152923 
Q 447.861832 140.762425 445.033037 141.576534 
Q 442.204242 142.4 439.123298 142.4 
Q 429.935625 142.4 424.569582 136.298864 
Q 419.20354 130.197728 419.20354 119.764036 
Q 419.20354 109.292915 424.569582 103.201136 
Q 429.935625 97.1 439.123298 97.1 
Q 442.204242 97.1 445.033037 97.923466 
Q 447.861832 98.737575 450.477876 100.347077 
L 450.477876 109.377133 
Q 447.838193 107.243607 445.277306 106.251704 
Q 442.71642 105.259802 439.887625 105.259802 
Q 434.813129 105.259802 431.905538 109.124478 
Q 429.005826 112.979798 429.005826 119.764036 
Q 429.005826 126.520202 431.905538 130.384879 
Q 434.813129 134.240198 439.887625 134.240198 
Q 442.71642 134.240198 445.277306 133.248296 
Q 447.838193 132.247036 450.477876 130.11351 
z
" style="fill:#0000ff;"/>
   </g>
   <g id="patch_35">
    <path clip-path="url(#pb50c4394bf)" d="M 440.8673 83.346249 
L 428.839693 83.346249 
L 426.940597 97.1 
L 419.20354 97.1 
L 430.252825 21.6 
L 439.428591 21.6 
L 450.477876 97.1 
L 442.747213 97.1 
z
M 430.757972 69.333605 
L 438.929839 69.333605 
L 434.850299 39.301886 
z
" style="fill:#008000;"/>
   </g>
   <g id="patch_36">
    <path clip-path="url(#pb50c4394bf)" d="M 483.39823 156.133795 
Q 480.244162 156.816897 476.851787 157.160008 
Q 473.459411 157.5 469.842747 157.5 
Q 461.670206 157.5 456.89705 155.466288 
Q 452.123894 153.432576 452.123894 149.954679 
Q 452.123894 146.436232 456.981158 144.418116 
Q 461.845432 142.4 470.305343 142.4 
Q 473.564547 142.4 476.550398 142.674489 
Q 479.543258 142.945858 482.192675 143.482359 
L 482.192675 146.492378 
Q 479.45915 145.803037 476.75366 145.463045 
Q 474.048171 145.119934 471.328663 145.119934 
Q 466.296173 145.119934 463.569656 146.373848 
Q 460.84314 147.624644 460.84314 149.954679 
Q 460.84314 152.26288 463.471529 153.523032 
Q 466.099919 154.780066 470.936157 154.780066 
Q 472.253857 154.780066 473.382312 154.708325 
Q 474.510767 154.633464 475.407925 154.477505 
L 475.407925 151.651518 
L 470.25628 151.651518 
L 470.25628 149.134332 
L 483.39823 149.134332 
z
" style="fill:#ffa600;"/>
   </g>
   <g id="patch_37">
    <path clip-path="url(#pb50c4394bf)" d="M 483.39823 140.235282 
Q 480.782186 141.308283 477.953391 141.851023 
Q 475.124596 142.4 472.043652 142.4 
Q 462.855979 142.4 457.489936 138.332576 
Q 452.123894 134.265152 452.123894 127.309358 
Q 452.123894 120.32861 457.489936 116.267424 
Q 462.855979 112.2 472.043652 112.2 
Q 475.124596 112.2 477.953391 112.748977 
Q 480.782186 113.291717 483.39823 114.364718 
L 483.39823 120.384755 
Q 480.758547 118.962404 478.19766 118.301136 
Q 475.636773 117.639868 472.807979 117.639868 
Q 467.733483 117.639868 464.825892 120.216319 
Q 461.92618 122.786532 461.92618 127.309358 
Q 461.92618 131.813468 464.825892 134.389919 
Q 467.733483 136.960132 472.807979 136.960132 
Q 475.636773 136.960132 478.19766 136.298864 
Q 480.758547 135.631357 483.39823 134.209006 
z
" style="fill:#0000ff;"/>
   </g>
   <g id="patch_38">
    <path clip-path="url(#pb50c4394bf)" d="M 452.123894 21.6 
L 483.39823 21.6 
L 483.39823 39.269524 
L 472.146742 39.269524 
L 472.146742 112.2 
L 463.397201 112.2 
L 463.397201 39.269524 
L 452.123894 39.269524 
z
" style="fill:#ff0000;"/>
   </g>
   <g id="patch_39">
    <path clip-path="url(#pb50c4394bf)" d="M 506.708008 154.74925 
L 494.680401 154.74925 
L 492.781305 157.5 
L 485.044248 157.5 
L 496.093533 142.4 
L 505.269299 142.4 
L 516.318584 157.5 
L 508.587921 157.5 
z
M 496.59868 151.946721 
L 504.770547 151.946721 
L 500.691007 145.940377 
z
" style="fill:#008000;"/>
   </g>
   <g id="patch_40">
    <path clip-path="url(#pb50c4394bf)" d="M 516.318584 141.317641 
Q 513.70254 141.854142 510.873745 142.125511 
Q 508.04495 142.4 504.964006 142.4 
Q 495.776333 142.4 490.41029 140.366288 
Q 485.044248 138.332576 485.044248 134.854679 
Q 485.044248 131.364305 490.41029 129.333712 
Q 495.776333 127.3 504.964006 127.3 
Q 508.04495 127.3 510.873745 127.574489 
Q 513.70254 127.845858 516.318584 128.382359 
L 516.318584 131.392378 
Q 513.678901 130.681202 511.118014 130.350568 
Q 508.557127 130.019934 505.728333 130.019934 
Q 500.653837 130.019934 497.746246 131.308159 
Q 494.846534 132.593266 494.846534 134.854679 
Q 494.846534 137.106734 497.746246 138.39496 
Q 500.653837 139.680066 505.728333 139.680066 
Q 508.557127 139.680066 511.118014 139.349432 
Q 513.678901 139.015679 516.318584 138.304503 
z
" style="fill:#0000ff;"/>
   </g>
   <g id="patch_41">
    <path clip-path="url(#pb50c4394bf)" d="M 516.318584 117.736563 
Q 513.164516 122.518281 509.772141 124.920058 
Q 506.379765 127.3 502.763101 127.3 
Q 494.59056 127.3 489.817404 113.064016 
Q 485.044248 98.828031 485.044248 74.482751 
Q 485.044248 49.853625 489.901512 35.726813 
Q 494.765786 21.6 503.225697 21.6 
Q 506.484901 21.6 509.470752 23.521421 
Q 512.463612 25.421008 515.113029 29.176513 
L 515.113029 50.246643 
Q 512.379504 45.421256 509.674014 43.041314 
Q 506.968525 40.639537 504.249017 40.639537 
Q 499.216527 40.639537 496.49001 49.416939 
Q 493.763493 58.172506 493.763493 74.482751 
Q 493.763493 90.640157 496.391883 99.461227 
Q 499.020273 108.260463 503.856511 108.260463 
Q 505.174211 108.260463 506.302666 107.758273 
Q 507.431121 107.234249 508.328279 106.142533 
L 508.328279 86.360628 
L 503.176634 86.360628 
L 503.176634 68.740322 
L 516.318584 68.740322 
z
" style="fill:#ffa600;"/>
   </g>
   <g id="patch_42">
    <path clip-path="url(#pb50c4394bf)" d="M 517.964602 142.4 
L 549.238938 142.4 
L 549.238938 145.344921 
L 537.98745 145.344921 
L 537.98745 157.5 
L 529.237909 157.5 
L 529.237909 145.344921 
L 517.964602 145.344921 
z
" style="fill:#ff0000;"/>
   </g>
   <g id="patch_43">
    <path clip-path="url(#pb50c4394bf)" d="M 549.238938 139.667589 
Q 546.08487 141.033795 542.692495 141.720017 
Q 539.300119 142.4 535.683455 142.4 
Q 527.510914 142.4 522.737758 138.332576 
Q 517.964602 134.265152 517.964602 127.309358 
Q 517.964602 120.272464 522.821866 116.236232 
Q 527.68614 112.2 536.146051 112.2 
Q 539.405255 112.2 542.391106 112.748977 
Q 545.383966 113.291717 548.033383 114.364718 
L 548.033383 120.384755 
Q 545.299858 119.006073 542.594368 118.32609 
Q 539.888879 117.639868 537.169371 117.639868 
Q 532.136881 117.639868 529.410364 120.147697 
Q 526.683847 122.649287 526.683847 127.309358 
Q 526.683847 131.925759 529.312237 134.446065 
Q 531.940627 136.960132 536.776865 136.960132 
Q 538.094565 136.960132 539.22302 136.816649 
Q 540.351475 136.666928 541.248633 136.355009 
L 541.248633 130.703037 
L 536.096988 130.703037 
L 536.096988 125.668663 
L 549.238938 125.668663 
z
" style="fill:#ffa600;"/>
   </g>
   <g id="patch_44">
    <path clip-path="url(#pb50c4394bf)" d="M 549.238938 105.705846 
Q 546.622894 108.92485 543.794099 110.553068 
Q 540.965304 112.2 537.88436 112.2 
Q 528.696687 112.2 523.330644 99.997728 
Q 517.964602 87.795455 517.964602 66.928073 
Q 517.964602 45.985829 523.330644 33.802272 
Q 528.696687 21.6 537.88436 21.6 
Q 540.965304 21.6 543.794099 23.246932 
Q 546.622894 24.87515 549.238938 28.094154 
L 549.238938 46.154266 
Q 546.599255 41.887213 544.038368 39.903408 
Q 541.477481 37.919603 538.648687 37.919603 
Q 533.574191 37.919603 530.6666 45.648957 
Q 527.766888 53.359595 527.766888 66.928073 
Q 527.766888 80.440405 530.6666 88.169758 
Q 533.574191 95.880397 538.648687 95.880397 
Q 541.477481 95.880397 544.038368 93.896592 
Q 546.599255 91.894071 549.238938 87.627019 
z
" style="fill:#0000ff;"/>
   </g>
   <g id="patch_45">
    <path clip-path="url(#pb50c4394bf)" d="M 582.159292 153.401384 
Q 579.005224 155.450692 575.612849 156.480025 
Q 572.220473 157.5 568.603809 157.5 
Q 560.431268 157.5 555.658112 151.398864 
Q 550.884956 145.297728 550.884956 134.864036 
Q 550.884956 124.308697 555.74222 118.254348 
Q 560.606494 112.2 569.066405 112.2 
Q 572.325609 112.2 575.31146 113.023466 
Q 578.30432 113.837575 580.953737 115.447077 
L 580.953737 124.477133 
Q 578.220212 122.40911 575.514722 121.389134 
Q 572.809233 120.359802 570.089725 120.359802 
Q 565.057235 120.359802 562.330718 124.121545 
Q 559.604201 127.873931 559.604201 134.864036 
Q 559.604201 141.788639 562.232591 145.569097 
Q 564.860981 149.340198 569.697219 149.340198 
Q 571.014919 149.340198 572.143374 149.124974 
Q 573.271829 148.900392 574.168986 148.432514 
L 574.168986 139.954555 
L 569.017342 139.954555 
L 569.017342 132.402995 
L 582.159292 132.402995 
z
" style="fill:#ffa600;"/>
   </g>
   <g id="patch_46">
    <path clip-path="url(#pb50c4394bf)" d="M 582.159292 105.705846 
Q 579.543248 108.92485 576.714453 110.553068 
Q 573.885658 112.2 570.804714 112.2 
Q 561.617041 112.2 556.250998 99.997728 
Q 550.884956 87.795455 550.884956 66.928073 
Q 550.884956 45.985829 556.250998 33.802272 
Q 561.617041 21.6 570.804714 21.6 
Q 573.885658 21.6 576.714453 23.246932 
Q 579.543248 24.87515 582.159292 28.094154 
L 582.159292 46.154266 
Q 579.519609 41.887213 576.958722 39.903408 
Q 574.397835 37.919603 571.569041 37.919603 
Q 566.494545 37.919603 563.586954 45.648957 
Q 560.687242 53.359595 560.687242 66.928073 
Q 560.687242 80.440405 563.586954 88.169758 
Q 566.494545 95.880397 571.569041 95.880397 
Q 574.397835 95.880397 576.958722 93.896592 
Q 579.519609 91.894071 582.159292 87.627019 
z
" style="fill:#0000ff;"/>
   </g>
   <g id="patch_47">
    <path clip-path="url(#pb50c4394bf)" d="M 605.46907 151.9985 
L 593.441463 151.9985 
L 591.542367 157.5 
L 583.80531 157.5 
L 594.854595 127.3 
L 604.030361 127.3 
L 615.079646 157.5 
L 607.348983 157.5 
z
M 595.359741 146.393442 
L 603.531609 146.393442 
L 599.452069 134.380754 
z
" style="fill:#008000;"/>
   </g>
   <g id="patch_48">
    <path clip-path="url(#pb50c4394bf)" d="M 615.079646 123.201384 
Q 611.925578 125.250692 608.533203 126.280025 
Q 605.140827 127.3 601.524163 127.3 
Q 593.351622 127.3 588.578466 121.198864 
Q 583.80531 115.097728 583.80531 104.664036 
Q 583.80531 94.108697 588.662574 88.054348 
Q 593.526848 82 601.986759 82 
Q 605.245963 82 608.231814 82.823466 
Q 611.224674 83.637575 613.874091 85.247077 
L 613.874091 94.277133 
Q 611.140566 92.20911 608.435076 91.189134 
Q 605.729587 90.159802 603.010079 90.159802 
Q 597.977589 90.159802 595.251072 93.921545 
Q 592.524555 97.673931 592.524555 104.664036 
Q 592.524555 111.588639 595.152945 115.369097 
Q 597.781335 119.140198 602.617573 119.140198 
Q 603.935272 119.140198 605.063728 118.924974 
Q 606.192183 118.700392 607.08934 118.232514 
L 607.08934 109.754555 
L 601.937696 109.754555 
L 601.937696 102.202995 
L 615.079646 102.202995 
z
" style="fill:#ffa600;"/>
   </g>
   <g id="patch_49">
    <path clip-path="url(#pb50c4394bf)" d="M 615.079646 77.670564 
Q 612.463602 79.816567 609.634807 80.902045 
Q 606.806012 82 603.725068 82 
Q 594.537395 82 589.171352 73.865152 
Q 583.80531 65.730304 583.80531 51.818715 
Q 583.80531 37.85722 589.171352 29.734848 
Q 594.537395 21.6 603.725068 21.6 
Q 606.806012 21.6 609.634807 22.697955 
Q 612.463602 23.783433 615.079646 25.929436 
L 615.079646 37.96951 
Q 612.439963 35.124809 609.879076 33.802272 
Q 607.318189 32.479736 604.489395 32.479736 
Q 599.414899 32.479736 596.507308 37.632638 
Q 593.607596 42.773063 593.607596 51.818715 
Q 593.607596 60.826937 596.507308 65.979839 
Q 599.414899 71.120264 604.489395 71.120264 
Q 607.318189 71.120264 609.879076 69.797728 
Q 612.439963 68.462714 615.079646 65.618013 
z
" style="fill:#0000ff;"/>
   </g>
   <g id="patch_50">
    <path clip-path="url(#pb50c4394bf)" d="M 616.725664 142.4 
L 648 142.4 
L 648 145.344921 
L 636.748512 145.344921 
L 636.748512 157.5 
L 627.998971 157.5 
L 627.998971 145.344921 
L 616.725664 145.344921 
z
" style="fill:#ff0000;"/>
   </g>
   <g id="patch_51">
    <path clip-path="url(#pb50c4394bf)" d="M 648 140.235282 
Q 645.383956 141.308283 642.555161 141.851023 
Q 639.726366 142.4 636.645422 142.4 
Q 627.457749 142.4 622.091706 138.332576 
Q 616.725664 134.265152 616.725664 127.309358 
Q 616.725664 120.32861 622.091706 116.267424 
Q 627.457749 112.2 636.645422 112.2 
Q 639.726366 112.2 642.555161 112.748977 
Q 645.383956 113.291717 648 114.364718 
L 648 120.384755 
Q 645.360317 118.962404 642.79943 118.301136 
Q 640.238543 117.639868 637.409749 117.639868 
Q 632.335253 117.639868 629.427662 120.216319 
Q 626.52795 122.786532 626.52795 127.309358 
Q 626.52795 131.813468 629.427662 134.389919 
Q 632.335253 136.960132 637.409749 136.960132 
Q 640.238543 136.960132 642.79943 136.298864 
Q 645.360317 135.631357 648 134.209006 
z
" style="fill:#0000ff;"/>
   </g>
   <g id="patch_52">
    <path clip-path="url(#pb50c4394bf)" d="M 648 109.467589 
Q 644.845932 110.833795 641.453557 111.520017 
Q 638.061181 112.2 634.444517 112.2 
Q 626.271976 112.2 621.49882 108.132576 
Q 616.725664 104.065152 616.725664 97.109358 
Q 616.725664 90.072464 621.582928 86.036232 
Q 626.447202 82 634.907113 82 
Q 638.166317 82 641.152168 82.548977 
Q 644.145028 83.091717 646.794445 84.164718 
L 646.794445 90.184755 
Q 644.06092 88.806073 641.35543 88.12609 
Q 638.649941 87.439868 635.930433 87.439868 
Q 630.897943 87.439868 628.171426 89.947697 
Q 625.444909 92.449287 625.444909 97.109358 
Q 625.444909 101.725759 628.073299 104.246065 
Q 630.701689 106.760132 635.537927 106.760132 
Q 636.855626 106.760132 637.984082 106.616649 
Q 639.112537 106.466928 640.009694 106.155009 
L 640.009694 100.503037 
L 634.85805 100.503037 
L 634.85805 95.468663 
L 648 95.468663 
z
" style="fill:#ffa600;"/>
   </g>
   <g id="patch_53">
    <path clip-path="url(#pb50c4394bf)" d="M 638.389424 70.997 
L 626.361817 70.997 
L 624.462721 82 
L 616.725664 82 
L 627.774949 21.6 
L 636.950715 21.6 
L 648 82 
L 640.269337 82 
z
M 628.280095 59.786884 
L 636.451963 59.786884 
L 632.372423 35.761509 
z
" style="fill:#008000;"/>
   </g>
  </g>
 </g>
 <defs>
  <clipPath id="pb50c4394bf">
   <rect height="135.9" width="558" x="90" y="21.6"/>
  </clipPath>
 </defs>
</svg>
