<?xml version="1.0" encoding="utf-8" standalone="no"?>
<!DOCTYPE svg PUBLIC "-//W3C//DTD SVG 1.1//EN"
  "http://www.w3.org/Graphics/SVG/1.1/DTD/svg11.dtd">
<!-- Created with matplotlib (https://matplotlib.org/) -->
<svg height="180pt" version="1.1" viewBox="0 0 720 180" width="720pt" xmlns="http://www.w3.org/2000/svg" xmlns:xlink="http://www.w3.org/1999/xlink">
 <metadata>
  <rdf:RDF xmlns:cc="http://creativecommons.org/ns#" xmlns:dc="http://purl.org/dc/elements/1.1/" xmlns:rdf="http://www.w3.org/1999/02/22-rdf-syntax-ns#">
   <cc:Work>
    <dc:type rdf:resource="http://purl.org/dc/dcmitype/StillImage"/>
    <dc:date>2021-08-04T23:33:58.348280</dc:date>
    <dc:format>image/svg+xml</dc:format>
    <dc:creator>
     <cc:Agent>
      <dc:title>Matplotlib v3.3.2, https://matplotlib.org/</dc:title>
     </cc:Agent>
    </dc:creator>
   </cc:Work>
  </rdf:RDF>
 </metadata>
 <defs>
  <style type="text/css">*{stroke-linecap:butt;stroke-linejoin:round;}</style>
 </defs>
 <g id="figure_1">
  <g id="patch_1">
   <path d="M 0 180 
L 720 180 
L 720 0 
L 0 0 
z
" style="fill:none;"/>
  </g>
  <g id="axes_1">
   <g id="line2d_1">
    <path clip-path="url(#pfcb39e4c54)" d="M 90 157.5 
L 648 157.5 
" style="fill:none;stroke:#000000;stroke-linecap:square;stroke-width:0.5;"/>
   </g>
   <g id="patch_2">
    <path clip-path="url(#pfcb39e4c54)" d="M 121.274336 154.767589 
Q 118.120268 156.133795 114.727893 156.820017 
Q 111.335518 157.5 107.718853 157.5 
Q 99.546312 157.5 94.773156 153.432576 
Q 90 149.365152 90 142.409358 
Q 90 135.372464 94.857265 131.336232 
Q 99.721538 127.3 108.18145 127.3 
Q 111.440653 127.3 114.426504 127.848977 
Q 117.419364 128.391717 120.068781 129.464718 
L 120.068781 135.484755 
Q 117.335256 134.106073 114.629766 133.42609 
Q 111.924277 132.739868 109.204769 132.739868 
Q 104.172279 132.739868 101.445762 135.247697 
Q 98.719246 137.749287 98.719246 142.409358 
Q 98.719246 147.025759 101.347636 149.546065 
Q 103.976026 152.060132 108.812263 152.060132 
Q 110.129963 152.060132 111.258418 151.916649 
Q 112.386874 151.766928 113.284031 151.455009 
L 113.284031 145.803037 
L 108.132386 145.803037 
L 108.132386 140.768663 
L 121.274336 140.768663 
z
" style="fill:#ffa600;"/>
   </g>
   <g id="patch_3">
    <path clip-path="url(#pfcb39e4c54)" d="M 111.66376 119.04775 
L 99.636153 119.04775 
L 97.737057 127.3 
L 90 127.3 
L 101.049285 82 
L 110.225051 82 
L 121.274336 127.3 
L 113.543673 127.3 
z
M 101.554432 110.640163 
L 109.726299 110.640163 
L 105.64676 92.621132 
z
" style="fill:#008000;"/>
   </g>
   <g id="patch_4">
    <path clip-path="url(#pfcb39e4c54)" d="M 121.274336 77.670564 
Q 118.658292 79.816567 115.829497 80.902045 
Q 113.000702 82 109.919759 82 
Q 100.732085 82 95.366043 73.865152 
Q 90 65.730304 90 51.818715 
Q 90 37.85722 95.366043 29.734848 
Q 100.732085 21.6 109.919759 21.6 
Q 113.000702 21.6 115.829497 22.697955 
Q 118.658292 23.783433 121.274336 25.929436 
L 121.274336 37.96951 
Q 118.634653 35.124809 116.073766 33.802272 
Q 113.51288 32.479736 110.684085 32.479736 
Q 105.609589 32.479736 102.701998 37.632638 
Q 99.802286 42.773063 99.802286 51.818715 
Q 99.802286 60.826937 102.701998 65.979839 
Q 105.609589 71.120264 110.684085 71.120264 
Q 113.51288 71.120264 116.073766 69.797728 
Q 118.634653 68.462714 121.274336 65.618013 
z
" style="fill:#0000ff;"/>
   </g>
   <g id="patch_5">
    <path clip-path="url(#pfcb39e4c54)" d="M 144.584114 154.74925 
L 132.556507 154.74925 
L 130.657411 157.5 
L 122.920354 157.5 
L 133.969639 142.4 
L 143.145405 142.4 
L 154.19469 157.5 
L 146.464027 157.5 
z
M 134.474786 151.946721 
L 142.646653 151.946721 
L 138.567114 145.940377 
z
" style="fill:#008000;"/>
   </g>
   <g id="patch_6">
    <path clip-path="url(#pfcb39e4c54)" d="M 122.920354 112.2 
L 154.19469 112.2 
L 154.19469 118.089841 
L 142.943202 118.089841 
L 142.943202 142.4 
L 134.193661 142.4 
L 134.193661 118.089841 
L 122.920354 118.089841 
z
" style="fill:#ff0000;"/>
   </g>
   <g id="patch_7">
    <path clip-path="url(#pfcb39e4c54)" d="M 154.19469 108.952923 
Q 151.578646 110.562425 148.749851 111.376534 
Q 145.921056 112.2 142.840113 112.2 
Q 133.652439 112.2 128.286397 106.098864 
Q 122.920354 99.997728 122.920354 89.564036 
Q 122.920354 79.092915 128.286397 73.001136 
Q 133.652439 66.9 142.840113 66.9 
Q 145.921056 66.9 148.749851 67.723466 
Q 151.578646 68.537575 154.19469 70.147077 
L 154.19469 79.177133 
Q 151.555007 77.043607 148.99412 76.051704 
Q 146.433234 75.059802 143.604439 75.059802 
Q 138.529943 75.059802 135.622352 78.924478 
Q 132.72264 82.779798 132.72264 89.564036 
Q 132.72264 96.320202 135.622352 100.184879 
Q 138.529943 104.040198 143.604439 104.040198 
Q 146.433234 104.040198 148.99412 103.048296 
Q 151.555007 102.047036 154.19469 99.91351 
z
" style="fill:#0000ff;"/>
   </g>
   <g id="patch_8">
    <path clip-path="url(#pfcb39e4c54)" d="M 154.19469 62.801384 
Q 151.040622 64.850692 147.648247 65.880025 
Q 144.255872 66.9 140.639207 66.9 
Q 132.466666 66.9 127.69351 60.798864 
Q 122.920354 54.697728 122.920354 44.264036 
Q 122.920354 33.708697 127.777619 27.654348 
Q 132.641892 21.6 141.101804 21.6 
Q 144.361007 21.6 147.346858 22.423466 
Q 150.339718 23.237575 152.989135 24.847077 
L 152.989135 33.877133 
Q 150.25561 31.80911 147.55012 30.789134 
Q 144.844631 29.759802 142.125123 29.759802 
Q 137.092633 29.759802 134.366116 33.521545 
Q 131.6396 37.273931 131.6396 44.264036 
Q 131.6396 51.188639 134.26799 54.969097 
Q 136.89638 58.740198 141.732617 58.740198 
Q 143.050317 58.740198 144.178772 58.524974 
Q 145.307228 58.300392 146.204385 57.832514 
L 146.204385 49.354555 
L 141.05274 49.354555 
L 141.05274 41.802995 
L 154.19469 41.802995 
z
" style="fill:#ffa600;"/>
   </g>
   <g id="patch_9">
    <path clip-path="url(#pfcb39e4c54)" d="M 187.115044 155.335282 
Q 184.499 156.408283 181.670205 156.951023 
Q 178.84141 157.5 175.760467 157.5 
Q 166.572793 157.5 161.206751 153.432576 
Q 155.840708 149.365152 155.840708 142.409358 
Q 155.840708 135.42861 161.206751 131.367424 
Q 166.572793 127.3 175.760467 127.3 
Q 178.84141 127.3 181.670205 127.848977 
Q 184.499 128.391717 187.115044 129.464718 
L 187.115044 135.484755 
Q 184.475361 134.062404 181.914474 133.401136 
Q 179.353588 132.739868 176.524793 132.739868 
Q 171.450297 132.739868 168.542706 135.316319 
Q 165.642994 137.886532 165.642994 142.409358 
Q 165.642994 146.913468 168.542706 149.489919 
Q 171.450297 152.060132 176.524793 152.060132 
Q 179.353588 152.060132 181.914474 151.398864 
Q 184.475361 150.731357 187.115044 149.309006 
z
" style="fill:#0000ff;"/>
   </g>
   <g id="patch_10">
    <path clip-path="url(#pfcb39e4c54)" d="M 187.115044 123.201384 
Q 183.960976 125.250692 180.568601 126.280025 
Q 177.176226 127.3 173.559561 127.3 
Q 165.38702 127.3 160.613864 121.198864 
Q 155.840708 115.097728 155.840708 104.664036 
Q 155.840708 94.108697 160.697973 88.054348 
Q 165.562246 82 174.022158 82 
Q 177.281361 82 180.267212 82.823466 
Q 183.260072 83.637575 185.909489 85.247077 
L 185.909489 94.277133 
Q 183.175964 92.20911 180.470474 91.189134 
Q 177.764985 90.159802 175.045477 90.159802 
Q 170.012987 90.159802 167.28647 93.921545 
Q 164.559954 97.673931 164.559954 104.664036 
Q 164.559954 111.588639 167.188344 115.369097 
Q 169.816734 119.140198 174.652971 119.140198 
Q 175.970671 119.140198 177.099126 118.924974 
Q 178.227582 118.700392 179.124739 118.232514 
L 179.124739 109.754555 
L 173.973094 109.754555 
L 173.973094 102.202995 
L 187.115044 102.202995 
z
" style="fill:#ffa600;"/>
   </g>
   <g id="patch_11">
    <path clip-path="url(#pfcb39e4c54)" d="M 155.840708 21.6 
L 187.115044 21.6 
L 187.115044 33.379683 
L 175.863556 33.379683 
L 175.863556 82 
L 167.114015 82 
L 167.114015 33.379683 
L 155.840708 33.379683 
z
" style="fill:#ff0000;"/>
   </g>
   <g id="patch_12">
    <path clip-path="url(#pfcb39e4c54)" d="M 220.035398 154.767589 
Q 216.88133 156.133795 213.488955 156.820017 
Q 210.09658 157.5 206.479915 157.5 
Q 198.307374 157.5 193.534218 153.432576 
Q 188.761062 149.365152 188.761062 142.409358 
Q 188.761062 135.372464 193.618327 131.336232 
Q 198.4826 127.3 206.942512 127.3 
Q 210.201715 127.3 213.187566 127.848977 
Q 216.180426 128.391717 218.829843 129.464718 
L 218.829843 135.484755 
Q 216.096318 134.106073 213.390828 133.42609 
Q 210.685339 132.739868 207.965831 132.739868 
Q 202.933341 132.739868 200.206824 135.247697 
Q 197.480308 137.749287 197.480308 142.409358 
Q 197.480308 147.025759 200.108698 149.546065 
Q 202.737088 152.060132 207.573325 152.060132 
Q 208.891025 152.060132 210.01948 151.916649 
Q 211.147936 151.766928 212.045093 151.455009 
L 212.045093 145.803037 
L 206.893448 145.803037 
L 206.893448 140.768663 
L 220.035398 140.768663 
z
" style="fill:#ffa600;"/>
   </g>
   <g id="patch_13">
    <path clip-path="url(#pfcb39e4c54)" d="M 188.761062 82 
L 220.035398 82 
L 220.035398 90.834762 
L 208.78391 90.834762 
L 208.78391 127.3 
L 200.034369 127.3 
L 200.034369 90.834762 
L 188.761062 90.834762 
z
" style="fill:#ff0000;"/>
   </g>
   <g id="patch_14">
    <path clip-path="url(#pfcb39e4c54)" d="M 210.424822 70.997 
L 198.397215 70.997 
L 196.498119 82 
L 188.761062 82 
L 199.810347 21.6 
L 208.986113 21.6 
L 220.035398 82 
L 212.304735 82 
z
M 200.315494 59.786884 
L 208.487361 59.786884 
L 204.407821 35.761509 
z
" style="fill:#008000;"/>
   </g>
   <g id="patch_15">
    <path clip-path="url(#pfcb39e4c54)" d="M 252.955752 155.335282 
Q 250.339708 156.408283 247.510913 156.951023 
Q 244.682118 157.5 241.601175 157.5 
Q 232.413501 157.5 227.047459 153.432576 
Q 221.681416 149.365152 221.681416 142.409358 
Q 221.681416 135.42861 227.047459 131.367424 
Q 232.413501 127.3 241.601175 127.3 
Q 244.682118 127.3 247.510913 127.848977 
Q 250.339708 128.391717 252.955752 129.464718 
L 252.955752 135.484755 
Q 250.316069 134.062404 247.755182 133.401136 
Q 245.194296 132.739868 242.365501 132.739868 
Q 237.291005 132.739868 234.383414 135.316319 
Q 231.483702 137.886532 231.483702 142.409358 
Q 231.483702 146.913468 234.383414 149.489919 
Q 237.291005 152.060132 242.365501 152.060132 
Q 245.194296 152.060132 247.755182 151.398864 
Q 250.316069 150.731357 252.955752 149.309006 
z
" style="fill:#0000ff;"/>
   </g>
   <g id="patch_16">
    <path clip-path="url(#pfcb39e4c54)" d="M 252.955752 124.567589 
Q 249.801684 125.933795 246.409309 126.620017 
Q 243.016934 127.3 239.400269 127.3 
Q 231.227728 127.3 226.454572 123.232576 
Q 221.681416 119.165152 221.681416 112.209358 
Q 221.681416 105.172464 226.538681 101.136232 
Q 231.402954 97.1 239.862866 97.1 
Q 243.122069 97.1 246.10792 97.648977 
Q 249.10078 98.191717 251.750197 99.264718 
L 251.750197 105.284755 
Q 249.016672 103.906073 246.311182 103.22609 
Q 243.605693 102.539868 240.886185 102.539868 
Q 235.853695 102.539868 233.127178 105.047697 
Q 230.400662 107.549287 230.400662 112.209358 
Q 230.400662 116.825759 233.029052 119.346065 
Q 235.657442 121.860132 240.493679 121.860132 
Q 241.811379 121.860132 242.939834 121.716649 
Q 244.06829 121.566928 244.965447 121.255009 
L 244.965447 115.603037 
L 239.813802 115.603037 
L 239.813802 110.568663 
L 252.955752 110.568663 
z
" style="fill:#ffa600;"/>
   </g>
   <g id="patch_17">
    <path clip-path="url(#pfcb39e4c54)" d="M 243.345176 83.346249 
L 231.317569 83.346249 
L 229.418473 97.1 
L 221.681416 97.1 
L 232.730701 21.6 
L 241.906467 21.6 
L 252.955752 97.1 
L 245.225089 97.1 
z
M 233.235848 69.333605 
L 241.407715 69.333605 
L 237.328175 39.301886 
z
" style="fill:#008000;"/>
   </g>
   <g id="patch_18">
    <path clip-path="url(#pfcb39e4c54)" d="M 254.60177 21.6 
L 285.876106 21.6 
L 285.876106 48.104286 
L 274.624618 48.104286 
L 274.624618 157.5 
L 265.875077 157.5 
L 265.875077 48.104286 
L 254.60177 48.104286 
z
" style="fill:#ff0000;"/>
   </g>
   <g id="patch_19">
    <path clip-path="url(#pfcb39e4c54)" d="M 318.79646 156.133795 
Q 315.642392 156.816897 312.250017 157.160008 
Q 308.857642 157.5 305.240977 157.5 
Q 297.068436 157.5 292.29528 155.466288 
Q 287.522124 153.432576 287.522124 149.954679 
Q 287.522124 146.436232 292.379389 144.418116 
Q 297.243662 142.4 305.703574 142.4 
Q 308.962777 142.4 311.948628 142.674489 
Q 314.941488 142.945858 317.590905 143.482359 
L 317.590905 146.492378 
Q 314.85738 145.803037 312.15189 145.463045 
Q 309.446401 145.119934 306.726893 145.119934 
Q 301.694403 145.119934 298.967886 146.373848 
Q 296.24137 147.624644 296.24137 149.954679 
Q 296.24137 152.26288 298.86976 153.523032 
Q 301.49815 154.780066 306.334387 154.780066 
Q 307.652087 154.780066 308.780542 154.708325 
Q 309.908998 154.633464 310.806155 154.477505 
L 310.806155 151.651518 
L 305.65451 151.651518 
L 305.65451 149.134332 
L 318.79646 149.134332 
z
" style="fill:#ffa600;"/>
   </g>
   <g id="patch_20">
    <path clip-path="url(#pfcb39e4c54)" d="M 309.185884 120.393999 
L 297.158277 120.393999 
L 295.259181 142.4 
L 287.522124 142.4 
L 298.571409 21.6 
L 307.747175 21.6 
L 318.79646 142.4 
L 311.065797 142.4 
z
M 299.076556 97.973768 
L 307.248423 97.973768 
L 303.168883 49.923018 
z
" style="fill:#008000;"/>
   </g>
   <g id="patch_21">
    <path clip-path="url(#pfcb39e4c54)" d="M 351.716814 153.401384 
Q 348.562746 155.450692 345.170371 156.480025 
Q 341.777996 157.5 338.161331 157.5 
Q 329.98879 157.5 325.215634 151.398864 
Q 320.442478 145.297728 320.442478 134.864036 
Q 320.442478 124.308697 325.299743 118.254348 
Q 330.164016 112.2 338.623928 112.2 
Q 341.883131 112.2 344.868982 113.023466 
Q 347.861842 113.837575 350.511259 115.447077 
L 350.511259 124.477133 
Q 347.777734 122.40911 345.072244 121.389134 
Q 342.366755 120.359802 339.647247 120.359802 
Q 334.614757 120.359802 331.88824 124.121545 
Q 329.161724 127.873931 329.161724 134.864036 
Q 329.161724 141.788639 331.790114 145.569097 
Q 334.418504 149.340198 339.254741 149.340198 
Q 340.572441 149.340198 341.700896 149.124974 
Q 342.829351 148.900392 343.726509 148.432514 
L 343.726509 139.954555 
L 338.574864 139.954555 
L 338.574864 132.402995 
L 351.716814 132.402995 
z
" style="fill:#ffa600;"/>
   </g>
   <g id="patch_22">
    <path clip-path="url(#pfcb39e4c54)" d="M 342.106238 95.695499 
L 330.078631 95.695499 
L 328.179535 112.2 
L 320.442478 112.2 
L 331.491763 21.6 
L 340.667529 21.6 
L 351.716814 112.2 
L 343.986151 112.2 
z
M 331.99691 78.880326 
L 340.168777 78.880326 
L 336.089237 42.842263 
z
" style="fill:#008000;"/>
   </g>
   <g id="patch_23">
    <path clip-path="url(#pfcb39e4c54)" d="M 353.362832 21.6 
L 384.637168 21.6 
L 384.637168 48.104286 
L 373.38568 48.104286 
L 373.38568 157.5 
L 364.636139 157.5 
L 364.636139 48.104286 
L 353.362832 48.104286 
z
" style="fill:#ff0000;"/>
   </g>
   <g id="patch_24">
    <path clip-path="url(#pfcb39e4c54)" d="M 407.946946 132.743249 
L 395.919339 132.743249 
L 394.020243 157.5 
L 386.283186 157.5 
L 397.332471 21.6 
L 406.508237 21.6 
L 417.557522 157.5 
L 409.826859 157.5 
z
M 397.837618 107.520489 
L 406.009485 107.520489 
L 401.929945 53.463395 
z
" style="fill:#008000;"/>
   </g>
   <g id="patch_25">
    <path clip-path="url(#pfcb39e4c54)" d="M 450.477876 152.035179 
Q 447.323808 154.767589 443.931433 156.140033 
Q 440.539057 157.5 436.922393 157.5 
Q 428.749852 157.5 423.976696 149.365152 
Q 419.20354 141.230304 419.20354 127.318715 
Q 419.20354 113.244929 424.060805 105.172464 
Q 428.925078 97.1 437.384989 97.1 
Q 440.644193 97.1 443.630044 98.197955 
Q 446.622904 99.283433 449.272321 101.429436 
L 449.272321 113.46951 
Q 446.538796 110.712146 443.833306 109.352179 
Q 441.127817 107.979736 438.408309 107.979736 
Q 433.375819 107.979736 430.649302 112.995394 
Q 427.922786 117.998575 427.922786 127.318715 
Q 427.922786 136.551518 430.551176 141.59213 
Q 433.179565 146.620264 438.015803 146.620264 
Q 439.333503 146.620264 440.461958 146.333299 
Q 441.590413 146.033857 442.487571 145.410019 
L 442.487571 134.106073 
L 437.335926 134.106073 
L 437.335926 124.037327 
L 450.477876 124.037327 
z
" style="fill:#ffa600;"/>
   </g>
   <g id="patch_26">
    <path clip-path="url(#pfcb39e4c54)" d="M 440.8673 83.346249 
L 428.839693 83.346249 
L 426.940597 97.1 
L 419.20354 97.1 
L 430.252825 21.6 
L 439.428591 21.6 
L 450.477876 97.1 
L 442.747213 97.1 
z
M 430.757972 69.333605 
L 438.929839 69.333605 
L 434.850299 39.301886 
z
" style="fill:#008000;"/>
   </g>
   <g id="patch_27">
    <path clip-path="url(#pfcb39e4c54)" d="M 452.123894 21.6 
L 483.39823 21.6 
L 483.39823 48.104286 
L 472.146742 48.104286 
L 472.146742 157.5 
L 463.397201 157.5 
L 463.397201 48.104286 
L 452.123894 48.104286 
z
" style="fill:#ff0000;"/>
   </g>
   <g id="patch_28">
    <path clip-path="url(#pfcb39e4c54)" d="M 516.318584 154.767589 
Q 513.164516 156.133795 509.772141 156.820017 
Q 506.379765 157.5 502.763101 157.5 
Q 494.59056 157.5 489.817404 153.432576 
Q 485.044248 149.365152 485.044248 142.409358 
Q 485.044248 135.372464 489.901512 131.336232 
Q 494.765786 127.3 503.225697 127.3 
Q 506.484901 127.3 509.470752 127.848977 
Q 512.463612 128.391717 515.113029 129.464718 
L 515.113029 135.484755 
Q 512.379504 134.106073 509.674014 133.42609 
Q 506.968525 132.739868 504.249017 132.739868 
Q 499.216527 132.739868 496.49001 135.247697 
Q 493.763493 137.749287 493.763493 142.409358 
Q 493.763493 147.025759 496.391883 149.546065 
Q 499.020273 152.060132 503.856511 152.060132 
Q 505.174211 152.060132 506.302666 151.916649 
Q 507.431121 151.766928 508.328279 151.455009 
L 508.328279 145.803037 
L 503.176634 145.803037 
L 503.176634 140.768663 
L 516.318584 140.768663 
z
" style="fill:#ffa600;"/>
   </g>
   <g id="patch_29">
    <path clip-path="url(#pfcb39e4c54)" d="M 506.708008 108.044749 
L 494.680401 108.044749 
L 492.781305 127.3 
L 485.044248 127.3 
L 496.093533 21.6 
L 505.269299 21.6 
L 516.318584 127.3 
L 508.587921 127.3 
z
M 496.59868 88.427047 
L 504.770547 88.427047 
L 500.691007 46.38264 
z
" style="fill:#008000;"/>
   </g>
   <g id="patch_30">
    <path clip-path="url(#pfcb39e4c54)" d="M 549.238938 153.401384 
Q 546.08487 155.450692 542.692495 156.480025 
Q 539.300119 157.5 535.683455 157.5 
Q 527.510914 157.5 522.737758 151.398864 
Q 517.964602 145.297728 517.964602 134.864036 
Q 517.964602 124.308697 522.821866 118.254348 
Q 527.68614 112.2 536.146051 112.2 
Q 539.405255 112.2 542.391106 113.023466 
Q 545.383966 113.837575 548.033383 115.447077 
L 548.033383 124.477133 
Q 545.299858 122.40911 542.594368 121.389134 
Q 539.888879 120.359802 537.169371 120.359802 
Q 532.136881 120.359802 529.410364 124.121545 
Q 526.683847 127.873931 526.683847 134.864036 
Q 526.683847 141.788639 529.312237 145.569097 
Q 531.940627 149.340198 536.776865 149.340198 
Q 538.094565 149.340198 539.22302 149.124974 
Q 540.351475 148.900392 541.248633 148.432514 
L 541.248633 139.954555 
L 536.096988 139.954555 
L 536.096988 132.402995 
L 549.238938 132.402995 
z
" style="fill:#ffa600;"/>
   </g>
   <g id="patch_31">
    <path clip-path="url(#pfcb39e4c54)" d="M 539.628362 95.695499 
L 527.600755 95.695499 
L 525.701659 112.2 
L 517.964602 112.2 
L 529.013887 21.6 
L 538.189653 21.6 
L 549.238938 112.2 
L 541.508275 112.2 
z
M 529.519034 78.880326 
L 537.690901 78.880326 
L 533.611361 42.842263 
z
" style="fill:#008000;"/>
   </g>
   <g id="patch_32">
    <path clip-path="url(#pfcb39e4c54)" d="M 582.159292 156.417641 
Q 579.543248 156.954142 576.714453 157.225511 
Q 573.885658 157.5 570.804714 157.5 
Q 561.617041 157.5 556.250998 155.466288 
Q 550.884956 153.432576 550.884956 149.954679 
Q 550.884956 146.464305 556.250998 144.433712 
Q 561.617041 142.4 570.804714 142.4 
Q 573.885658 142.4 576.714453 142.674489 
Q 579.543248 142.945858 582.159292 143.482359 
L 582.159292 146.492378 
Q 579.519609 145.781202 576.958722 145.450568 
Q 574.397835 145.119934 571.569041 145.119934 
Q 566.494545 145.119934 563.586954 146.408159 
Q 560.687242 147.693266 560.687242 149.954679 
Q 560.687242 152.206734 563.586954 153.49496 
Q 566.494545 154.780066 571.569041 154.780066 
Q 574.397835 154.780066 576.958722 154.449432 
Q 579.519609 154.115679 582.159292 153.404503 
z
" style="fill:#0000ff;"/>
   </g>
   <g id="patch_33">
    <path clip-path="url(#pfcb39e4c54)" d="M 582.159292 139.667589 
Q 579.005224 141.033795 575.612849 141.720017 
Q 572.220473 142.4 568.603809 142.4 
Q 560.431268 142.4 555.658112 138.332576 
Q 550.884956 134.265152 550.884956 127.309358 
Q 550.884956 120.272464 555.74222 116.236232 
Q 560.606494 112.2 569.066405 112.2 
Q 572.325609 112.2 575.31146 112.748977 
Q 578.30432 113.291717 580.953737 114.364718 
L 580.953737 120.384755 
Q 578.220212 119.006073 575.514722 118.32609 
Q 572.809233 117.639868 570.089725 117.639868 
Q 565.057235 117.639868 562.330718 120.147697 
Q 559.604201 122.649287 559.604201 127.309358 
Q 559.604201 131.925759 562.232591 134.446065 
Q 564.860981 136.960132 569.697219 136.960132 
Q 571.014919 136.960132 572.143374 136.816649 
Q 573.271829 136.666928 574.168986 136.355009 
L 574.168986 130.703037 
L 569.017342 130.703037 
L 569.017342 125.668663 
L 582.159292 125.668663 
z
" style="fill:#ffa600;"/>
   </g>
   <g id="patch_34">
    <path clip-path="url(#pfcb39e4c54)" d="M 550.884956 82 
L 582.159292 82 
L 582.159292 87.889841 
L 570.907804 87.889841 
L 570.907804 112.2 
L 562.158263 112.2 
L 562.158263 87.889841 
L 550.884956 87.889841 
z
" style="fill:#ff0000;"/>
   </g>
   <g id="patch_35">
    <path clip-path="url(#pfcb39e4c54)" d="M 572.548716 70.997 
L 560.521109 70.997 
L 558.622013 82 
L 550.884956 82 
L 561.934241 21.6 
L 571.110007 21.6 
L 582.159292 82 
L 574.428629 82 
z
M 562.439387 59.786884 
L 570.611255 59.786884 
L 566.531715 35.761509 
z
" style="fill:#008000;"/>
   </g>
   <g id="patch_36">
    <path clip-path="url(#pfcb39e4c54)" d="M 605.46907 151.9985 
L 593.441463 151.9985 
L 591.542367 157.5 
L 583.80531 157.5 
L 594.854595 127.3 
L 604.030361 127.3 
L 615.079646 157.5 
L 607.348983 157.5 
z
M 595.359741 146.393442 
L 603.531609 146.393442 
L 599.452069 134.380754 
z
" style="fill:#008000;"/>
   </g>
   <g id="patch_37">
    <path clip-path="url(#pfcb39e4c54)" d="M 583.80531 97.1 
L 615.079646 97.1 
L 615.079646 102.989841 
L 603.828158 102.989841 
L 603.828158 127.3 
L 595.078617 127.3 
L 595.078617 102.989841 
L 583.80531 102.989841 
z
" style="fill:#ff0000;"/>
   </g>
   <g id="patch_38">
    <path clip-path="url(#pfcb39e4c54)" d="M 615.079646 91.688205 
Q 612.463602 94.370709 609.634807 95.727556 
Q 606.806012 97.1 603.725068 97.1 
Q 594.537395 97.1 589.171352 86.93144 
Q 583.80531 76.76288 583.80531 59.373394 
Q 583.80531 41.921524 589.171352 31.76856 
Q 594.537395 21.6 603.725068 21.6 
Q 606.806012 21.6 609.634807 22.972444 
Q 612.463602 24.329291 615.079646 27.011795 
L 615.079646 42.061888 
Q 612.439963 38.506011 609.879076 36.85284 
Q 607.318189 35.199669 604.489395 35.199669 
Q 599.414899 35.199669 596.507308 41.640797 
Q 593.607596 48.066329 593.607596 59.373394 
Q 593.607596 70.633671 596.507308 77.074799 
Q 599.414899 83.500331 604.489395 83.500331 
Q 607.318189 83.500331 609.879076 81.84716 
Q 612.439963 80.178393 615.079646 76.622516 
z
" style="fill:#0000ff;"/>
   </g>
   <g id="patch_39">
    <path clip-path="url(#pfcb39e4c54)" d="M 616.725664 142.4 
L 648 142.4 
L 648 145.344921 
L 636.748512 145.344921 
L 636.748512 157.5 
L 627.998971 157.5 
L 627.998971 145.344921 
L 616.725664 145.344921 
z
" style="fill:#ff0000;"/>
   </g>
   <g id="patch_40">
    <path clip-path="url(#pfcb39e4c54)" d="M 648 139.667589 
Q 644.845932 141.033795 641.453557 141.720017 
Q 638.061181 142.4 634.444517 142.4 
Q 626.271976 142.4 621.49882 138.332576 
Q 616.725664 134.265152 616.725664 127.309358 
Q 616.725664 120.272464 621.582928 116.236232 
Q 626.447202 112.2 634.907113 112.2 
Q 638.166317 112.2 641.152168 112.748977 
Q 644.145028 113.291717 646.794445 114.364718 
L 646.794445 120.384755 
Q 644.06092 119.006073 641.35543 118.32609 
Q 638.649941 117.639868 635.930433 117.639868 
Q 630.897943 117.639868 628.171426 120.147697 
Q 625.444909 122.649287 625.444909 127.309358 
Q 625.444909 131.925759 628.073299 134.446065 
Q 630.701689 136.960132 635.537927 136.960132 
Q 636.855626 136.960132 637.984082 136.816649 
Q 639.112537 136.666928 640.009694 136.355009 
L 640.009694 130.703037 
L 634.85805 130.703037 
L 634.85805 125.668663 
L 648 125.668663 
z
" style="fill:#ffa600;"/>
   </g>
   <g id="patch_41">
    <path clip-path="url(#pfcb39e4c54)" d="M 638.389424 103.94775 
L 626.361817 103.94775 
L 624.462721 112.2 
L 616.725664 112.2 
L 627.774949 66.9 
L 636.950715 66.9 
L 648 112.2 
L 640.269337 112.2 
z
M 628.280095 95.540163 
L 636.451963 95.540163 
L 632.372423 77.521132 
z
" style="fill:#008000;"/>
   </g>
   <g id="patch_42">
    <path clip-path="url(#pfcb39e4c54)" d="M 648 63.652923 
Q 645.383956 65.262425 642.555161 66.076534 
Q 639.726366 66.9 636.645422 66.9 
Q 627.457749 66.9 622.091706 60.798864 
Q 616.725664 54.697728 616.725664 44.264036 
Q 616.725664 33.792915 622.091706 27.701136 
Q 627.457749 21.6 636.645422 21.6 
Q 639.726366 21.6 642.555161 22.423466 
Q 645.383956 23.237575 648 24.847077 
L 648 33.877133 
Q 645.360317 31.743607 642.79943 30.751704 
Q 640.238543 29.759802 637.409749 29.759802 
Q 632.335253 29.759802 629.427662 33.624478 
Q 626.52795 37.479798 626.52795 44.264036 
Q 626.52795 51.020202 629.427662 54.884879 
Q 632.335253 58.740198 637.409749 58.740198 
Q 640.238543 58.740198 642.79943 57.748296 
Q 645.360317 56.747036 648 54.61351 
z
" style="fill:#0000ff;"/>
   </g>
  </g>
 </g>
 <defs>
  <clipPath id="pfcb39e4c54">
   <rect height="135.9" width="558" x="90" y="21.6"/>
  </clipPath>
 </defs>
</svg>
