<?xml version="1.0" encoding="utf-8" standalone="no"?>
<!DOCTYPE svg PUBLIC "-//W3C//DTD SVG 1.1//EN"
  "http://www.w3.org/Graphics/SVG/1.1/DTD/svg11.dtd">
<!-- Created with matplotlib (https://matplotlib.org/) -->
<svg height="180pt" version="1.1" viewBox="0 0 720 180" width="720pt" xmlns="http://www.w3.org/2000/svg" xmlns:xlink="http://www.w3.org/1999/xlink">
 <metadata>
  <rdf:RDF xmlns:cc="http://creativecommons.org/ns#" xmlns:dc="http://purl.org/dc/elements/1.1/" xmlns:rdf="http://www.w3.org/1999/02/22-rdf-syntax-ns#">
   <cc:Work>
    <dc:type rdf:resource="http://purl.org/dc/dcmitype/StillImage"/>
    <dc:date>2021-08-04T23:33:54.438421</dc:date>
    <dc:format>image/svg+xml</dc:format>
    <dc:creator>
     <cc:Agent>
      <dc:title>Matplotlib v3.3.2, https://matplotlib.org/</dc:title>
     </cc:Agent>
    </dc:creator>
   </cc:Work>
  </rdf:RDF>
 </metadata>
 <defs>
  <style type="text/css">*{stroke-linecap:butt;stroke-linejoin:round;}</style>
 </defs>
 <g id="figure_1">
  <g id="patch_1">
   <path d="M 0 180 
L 720 180 
L 720 0 
L 0 0 
z
" style="fill:none;"/>
  </g>
  <g id="axes_1">
   <g id="line2d_1">
    <path clip-path="url(#p635b025e2e)" d="M 90 157.5 
L 648 157.5 
" style="fill:none;stroke:#000000;stroke-linecap:square;stroke-width:0.5;"/>
   </g>
   <g id="patch_2">
    <path clip-path="url(#p635b025e2e)" d="M 121.274336 156.133795 
Q 118.120268 156.816897 114.727893 157.160008 
Q 111.335518 157.5 107.718853 157.5 
Q 99.546312 157.5 94.773156 155.466288 
Q 90 153.432576 90 149.954679 
Q 90 146.436232 94.857265 144.418116 
Q 99.721538 142.4 108.18145 142.4 
Q 111.440653 142.4 114.426504 142.674489 
Q 117.419364 142.945858 120.068781 143.482359 
L 120.068781 146.492378 
Q 117.335256 145.803037 114.629766 145.463045 
Q 111.924277 145.119934 109.204769 145.119934 
Q 104.172279 145.119934 101.445762 146.373848 
Q 98.719246 147.624644 98.719246 149.954679 
Q 98.719246 152.26288 101.347636 153.523032 
Q 103.976026 154.780066 108.812263 154.780066 
Q 110.129963 154.780066 111.258418 154.708325 
Q 112.386874 154.633464 113.284031 154.477505 
L 113.284031 151.651518 
L 108.132386 151.651518 
L 108.132386 149.134332 
L 121.274336 149.134332 
z
" style="fill:#ffa600;"/>
   </g>
   <g id="patch_3">
    <path clip-path="url(#p635b025e2e)" d="M 121.274336 140.235282 
Q 118.658292 141.308283 115.829497 141.851023 
Q 113.000702 142.4 109.919759 142.4 
Q 100.732085 142.4 95.366043 138.332576 
Q 90 134.265152 90 127.309358 
Q 90 120.32861 95.366043 116.267424 
Q 100.732085 112.2 109.919759 112.2 
Q 113.000702 112.2 115.829497 112.748977 
Q 118.658292 113.291717 121.274336 114.364718 
L 121.274336 120.384755 
Q 118.634653 118.962404 116.073766 118.301136 
Q 113.51288 117.639868 110.684085 117.639868 
Q 105.609589 117.639868 102.701998 120.216319 
Q 99.802286 122.786532 99.802286 127.309358 
Q 99.802286 131.813468 102.701998 134.389919 
Q 105.609589 136.960132 110.684085 136.960132 
Q 113.51288 136.960132 116.073766 136.298864 
Q 118.634653 135.631357 121.274336 134.209006 
z
" style="fill:#0000ff;"/>
   </g>
   <g id="patch_4">
    <path clip-path="url(#p635b025e2e)" d="M 111.66376 95.695499 
L 99.636153 95.695499 
L 97.737057 112.2 
L 90 112.2 
L 101.049285 21.6 
L 110.225051 21.6 
L 121.274336 112.2 
L 113.543673 112.2 
z
M 101.554432 78.880326 
L 109.726299 78.880326 
L 105.64676 42.842263 
z
" style="fill:#008000;"/>
   </g>
   <g id="patch_5">
    <path clip-path="url(#p635b025e2e)" d="M 154.19469 156.417641 
Q 151.578646 156.954142 148.749851 157.225511 
Q 145.921056 157.5 142.840113 157.5 
Q 133.652439 157.5 128.286397 155.466288 
Q 122.920354 153.432576 122.920354 149.954679 
Q 122.920354 146.464305 128.286397 144.433712 
Q 133.652439 142.4 142.840113 142.4 
Q 145.921056 142.4 148.749851 142.674489 
Q 151.578646 142.945858 154.19469 143.482359 
L 154.19469 146.492378 
Q 151.555007 145.781202 148.99412 145.450568 
Q 146.433234 145.119934 143.604439 145.119934 
Q 138.529943 145.119934 135.622352 146.408159 
Q 132.72264 147.693266 132.72264 149.954679 
Q 132.72264 152.206734 135.622352 153.49496 
Q 138.529943 154.780066 143.604439 154.780066 
Q 146.433234 154.780066 148.99412 154.449432 
Q 151.555007 154.115679 154.19469 153.404503 
z
" style="fill:#0000ff;"/>
   </g>
   <g id="patch_6">
    <path clip-path="url(#p635b025e2e)" d="M 144.584114 136.8985 
L 132.556507 136.8985 
L 130.657411 142.4 
L 122.920354 142.4 
L 133.969639 112.2 
L 143.145405 112.2 
L 154.19469 142.4 
L 146.464027 142.4 
z
M 134.474786 131.293442 
L 142.646653 131.293442 
L 138.567114 119.280754 
z
" style="fill:#008000;"/>
   </g>
   <g id="patch_7">
    <path clip-path="url(#p635b025e2e)" d="M 154.19469 109.467589 
Q 151.040622 110.833795 147.648247 111.520017 
Q 144.255872 112.2 140.639207 112.2 
Q 132.466666 112.2 127.69351 108.132576 
Q 122.920354 104.065152 122.920354 97.109358 
Q 122.920354 90.072464 127.777619 86.036232 
Q 132.641892 82 141.101804 82 
Q 144.361007 82 147.346858 82.548977 
Q 150.339718 83.091717 152.989135 84.164718 
L 152.989135 90.184755 
Q 150.25561 88.806073 147.55012 88.12609 
Q 144.844631 87.439868 142.125123 87.439868 
Q 137.092633 87.439868 134.366116 89.947697 
Q 131.6396 92.449287 131.6396 97.109358 
Q 131.6396 101.725759 134.26799 104.246065 
Q 136.89638 106.760132 141.732617 106.760132 
Q 143.050317 106.760132 144.178772 106.616649 
Q 145.307228 106.466928 146.204385 106.155009 
L 146.204385 100.503037 
L 141.05274 100.503037 
L 141.05274 95.468663 
L 154.19469 95.468663 
z
" style="fill:#ffa600;"/>
   </g>
   <g id="patch_8">
    <path clip-path="url(#p635b025e2e)" d="M 122.920354 21.6 
L 154.19469 21.6 
L 154.19469 33.379683 
L 142.943202 33.379683 
L 142.943202 82 
L 134.193661 82 
L 134.193661 33.379683 
L 122.920354 33.379683 
z
" style="fill:#ff0000;"/>
   </g>
   <g id="patch_9">
    <path clip-path="url(#p635b025e2e)" d="M 187.115044 156.417641 
Q 184.499 156.954142 181.670205 157.225511 
Q 178.84141 157.5 175.760467 157.5 
Q 166.572793 157.5 161.206751 155.466288 
Q 155.840708 153.432576 155.840708 149.954679 
Q 155.840708 146.464305 161.206751 144.433712 
Q 166.572793 142.4 175.760467 142.4 
Q 178.84141 142.4 181.670205 142.674489 
Q 184.499 142.945858 187.115044 143.482359 
L 187.115044 146.492378 
Q 184.475361 145.781202 181.914474 145.450568 
Q 179.353588 145.119934 176.524793 145.119934 
Q 171.450297 145.119934 168.542706 146.408159 
Q 165.642994 147.693266 165.642994 149.954679 
Q 165.642994 152.206734 168.542706 153.49496 
Q 171.450297 154.780066 176.524793 154.780066 
Q 179.353588 154.780066 181.914474 154.449432 
Q 184.475361 154.115679 187.115044 153.404503 
z
" style="fill:#0000ff;"/>
   </g>
   <g id="patch_10">
    <path clip-path="url(#p635b025e2e)" d="M 177.504468 136.8985 
L 165.476861 136.8985 
L 163.577765 142.4 
L 155.840708 142.4 
L 166.889993 112.2 
L 176.065759 112.2 
L 187.115044 142.4 
L 179.384381 142.4 
z
M 167.39514 131.293442 
L 175.567007 131.293442 
L 171.487467 119.280754 
z
" style="fill:#008000;"/>
   </g>
   <g id="patch_11">
    <path clip-path="url(#p635b025e2e)" d="M 187.115044 109.467589 
Q 183.960976 110.833795 180.568601 111.520017 
Q 177.176226 112.2 173.559561 112.2 
Q 165.38702 112.2 160.613864 108.132576 
Q 155.840708 104.065152 155.840708 97.109358 
Q 155.840708 90.072464 160.697973 86.036232 
Q 165.562246 82 174.022158 82 
Q 177.281361 82 180.267212 82.548977 
Q 183.260072 83.091717 185.909489 84.164718 
L 185.909489 90.184755 
Q 183.175964 88.806073 180.470474 88.12609 
Q 177.764985 87.439868 175.045477 87.439868 
Q 170.012987 87.439868 167.28647 89.947697 
Q 164.559954 92.449287 164.559954 97.109358 
Q 164.559954 101.725759 167.188344 104.246065 
Q 169.816734 106.760132 174.652971 106.760132 
Q 175.970671 106.760132 177.099126 106.616649 
Q 178.227582 106.466928 179.124739 106.155009 
L 179.124739 100.503037 
L 173.973094 100.503037 
L 173.973094 95.468663 
L 187.115044 95.468663 
z
" style="fill:#ffa600;"/>
   </g>
   <g id="patch_12">
    <path clip-path="url(#p635b025e2e)" d="M 155.840708 21.6 
L 187.115044 21.6 
L 187.115044 33.379683 
L 175.863556 33.379683 
L 175.863556 82 
L 167.114015 82 
L 167.114015 33.379683 
L 155.840708 33.379683 
z
" style="fill:#ff0000;"/>
   </g>
   <g id="patch_13">
    <path clip-path="url(#p635b025e2e)" d="M 210.424822 154.74925 
L 198.397215 154.74925 
L 196.498119 157.5 
L 188.761062 157.5 
L 199.810347 142.4 
L 208.986113 142.4 
L 220.035398 157.5 
L 212.304735 157.5 
z
M 200.315494 151.946721 
L 208.487361 151.946721 
L 204.407821 145.940377 
z
" style="fill:#008000;"/>
   </g>
   <g id="patch_14">
    <path clip-path="url(#p635b025e2e)" d="M 188.761062 21.6 
L 220.035398 21.6 
L 220.035398 45.159366 
L 208.78391 45.159366 
L 208.78391 142.4 
L 200.034369 142.4 
L 200.034369 45.159366 
L 188.761062 45.159366 
z
" style="fill:#ff0000;"/>
   </g>
   <g id="patch_15">
    <path clip-path="url(#p635b025e2e)" d="M 252.955752 154.767589 
Q 249.801684 156.133795 246.409309 156.820017 
Q 243.016934 157.5 239.400269 157.5 
Q 231.227728 157.5 226.454572 153.432576 
Q 221.681416 149.365152 221.681416 142.409358 
Q 221.681416 135.372464 226.538681 131.336232 
Q 231.402954 127.3 239.862866 127.3 
Q 243.122069 127.3 246.10792 127.848977 
Q 249.10078 128.391717 251.750197 129.464718 
L 251.750197 135.484755 
Q 249.016672 134.106073 246.311182 133.42609 
Q 243.605693 132.739868 240.886185 132.739868 
Q 235.853695 132.739868 233.127178 135.247697 
Q 230.400662 137.749287 230.400662 142.409358 
Q 230.400662 147.025759 233.029052 149.546065 
Q 235.657442 152.060132 240.493679 152.060132 
Q 241.811379 152.060132 242.939834 151.916649 
Q 244.06829 151.766928 244.965447 151.455009 
L 244.965447 145.803037 
L 239.813802 145.803037 
L 239.813802 140.768663 
L 252.955752 140.768663 
z
" style="fill:#ffa600;"/>
   </g>
   <g id="patch_16">
    <path clip-path="url(#p635b025e2e)" d="M 243.345176 108.044749 
L 231.317569 108.044749 
L 229.418473 127.3 
L 221.681416 127.3 
L 232.730701 21.6 
L 241.906467 21.6 
L 252.955752 127.3 
L 245.225089 127.3 
z
M 233.235848 88.427047 
L 241.407715 88.427047 
L 237.328175 46.38264 
z
" style="fill:#008000;"/>
   </g>
   <g id="patch_17">
    <path clip-path="url(#p635b025e2e)" d="M 285.876106 156.417641 
Q 283.260062 156.954142 280.431267 157.225511 
Q 277.602472 157.5 274.521529 157.5 
Q 265.333855 157.5 259.967812 155.466288 
Q 254.60177 153.432576 254.60177 149.954679 
Q 254.60177 146.464305 259.967812 144.433712 
Q 265.333855 142.4 274.521529 142.4 
Q 277.602472 142.4 280.431267 142.674489 
Q 283.260062 142.945858 285.876106 143.482359 
L 285.876106 146.492378 
Q 283.236423 145.781202 280.675536 145.450568 
Q 278.11465 145.119934 275.285855 145.119934 
Q 270.211359 145.119934 267.303768 146.408159 
Q 264.404056 147.693266 264.404056 149.954679 
Q 264.404056 152.206734 267.303768 153.49496 
Q 270.211359 154.780066 275.285855 154.780066 
Q 278.11465 154.780066 280.675536 154.449432 
Q 283.236423 154.115679 285.876106 153.404503 
z
" style="fill:#0000ff;"/>
   </g>
   <g id="patch_18">
    <path clip-path="url(#p635b025e2e)" d="M 276.26553 120.393999 
L 264.237923 120.393999 
L 262.338827 142.4 
L 254.60177 142.4 
L 265.651055 21.6 
L 274.826821 21.6 
L 285.876106 142.4 
L 278.145443 142.4 
z
M 266.156202 97.973768 
L 274.328069 97.973768 
L 270.248529 49.923018 
z
" style="fill:#008000;"/>
   </g>
   <g id="patch_19">
    <path clip-path="url(#p635b025e2e)" d="M 309.185884 151.9985 
L 297.158277 151.9985 
L 295.259181 157.5 
L 287.522124 157.5 
L 298.571409 127.3 
L 307.747175 127.3 
L 318.79646 157.5 
L 311.065797 157.5 
z
M 299.076556 146.393442 
L 307.248423 146.393442 
L 303.168883 134.380754 
z
" style="fill:#008000;"/>
   </g>
   <g id="patch_20">
    <path clip-path="url(#p635b025e2e)" d="M 318.79646 124.567589 
Q 315.642392 125.933795 312.250017 126.620017 
Q 308.857642 127.3 305.240977 127.3 
Q 297.068436 127.3 292.29528 123.232576 
Q 287.522124 119.165152 287.522124 112.209358 
Q 287.522124 105.172464 292.379389 101.136232 
Q 297.243662 97.1 305.703574 97.1 
Q 308.962777 97.1 311.948628 97.648977 
Q 314.941488 98.191717 317.590905 99.264718 
L 317.590905 105.284755 
Q 314.85738 103.906073 312.15189 103.22609 
Q 309.446401 102.539868 306.726893 102.539868 
Q 301.694403 102.539868 298.967886 105.047697 
Q 296.24137 107.549287 296.24137 112.209358 
Q 296.24137 116.825759 298.86976 119.346065 
Q 301.49815 121.860132 306.334387 121.860132 
Q 307.652087 121.860132 308.780542 121.716649 
Q 309.908998 121.566928 310.806155 121.255009 
L 310.806155 115.603037 
L 305.65451 115.603037 
L 305.65451 110.568663 
L 318.79646 110.568663 
z
" style="fill:#ffa600;"/>
   </g>
   <g id="patch_21">
    <path clip-path="url(#p635b025e2e)" d="M 287.522124 66.9 
L 318.79646 66.9 
L 318.79646 72.789841 
L 307.544972 72.789841 
L 307.544972 97.1 
L 298.795431 97.1 
L 298.795431 72.789841 
L 287.522124 72.789841 
z
" style="fill:#ff0000;"/>
   </g>
   <g id="patch_22">
    <path clip-path="url(#p635b025e2e)" d="M 318.79646 63.652923 
Q 316.180416 65.262425 313.351621 66.076534 
Q 310.522826 66.9 307.441883 66.9 
Q 298.254209 66.9 292.888166 60.798864 
Q 287.522124 54.697728 287.522124 44.264036 
Q 287.522124 33.792915 292.888166 27.701136 
Q 298.254209 21.6 307.441883 21.6 
Q 310.522826 21.6 313.351621 22.423466 
Q 316.180416 23.237575 318.79646 24.847077 
L 318.79646 33.877133 
Q 316.156777 31.743607 313.59589 30.751704 
Q 311.035004 29.759802 308.206209 29.759802 
Q 303.131713 29.759802 300.224122 33.624478 
Q 297.32441 37.479798 297.32441 44.264036 
Q 297.32441 51.020202 300.224122 54.884879 
Q 303.131713 58.740198 308.206209 58.740198 
Q 311.035004 58.740198 313.59589 57.748296 
Q 316.156777 56.747036 318.79646 54.61351 
z
" style="fill:#0000ff;"/>
   </g>
   <g id="patch_23">
    <path clip-path="url(#p635b025e2e)" d="M 351.716814 156.417641 
Q 349.10077 156.954142 346.271975 157.225511 
Q 343.44318 157.5 340.362237 157.5 
Q 331.174563 157.5 325.80852 155.466288 
Q 320.442478 153.432576 320.442478 149.954679 
Q 320.442478 146.464305 325.80852 144.433712 
Q 331.174563 142.4 340.362237 142.4 
Q 343.44318 142.4 346.271975 142.674489 
Q 349.10077 142.945858 351.716814 143.482359 
L 351.716814 146.492378 
Q 349.077131 145.781202 346.516244 145.450568 
Q 343.955358 145.119934 341.126563 145.119934 
Q 336.052067 145.119934 333.144476 146.408159 
Q 330.244764 147.693266 330.244764 149.954679 
Q 330.244764 152.206734 333.144476 153.49496 
Q 336.052067 154.780066 341.126563 154.780066 
Q 343.955358 154.780066 346.516244 154.449432 
Q 349.077131 154.115679 351.716814 153.404503 
z
" style="fill:#0000ff;"/>
   </g>
   <g id="patch_24">
    <path clip-path="url(#p635b025e2e)" d="M 342.106238 120.393999 
L 330.078631 120.393999 
L 328.179535 142.4 
L 320.442478 142.4 
L 331.491763 21.6 
L 340.667529 21.6 
L 351.716814 142.4 
L 343.986151 142.4 
z
M 331.99691 97.973768 
L 340.168777 97.973768 
L 336.089237 49.923018 
z
" style="fill:#008000;"/>
   </g>
   <g id="patch_25">
    <path clip-path="url(#p635b025e2e)" d="M 375.026592 149.24775 
L 362.998985 149.24775 
L 361.099889 157.5 
L 353.362832 157.5 
L 364.412117 112.2 
L 373.587883 112.2 
L 384.637168 157.5 
L 376.906505 157.5 
z
M 364.917264 140.840163 
L 373.089131 140.840163 
L 369.009591 122.821132 
z
" style="fill:#008000;"/>
   </g>
   <g id="patch_26">
    <path clip-path="url(#p635b025e2e)" d="M 353.362832 21.6 
L 384.637168 21.6 
L 384.637168 39.269524 
L 373.38568 39.269524 
L 373.38568 112.2 
L 364.636139 112.2 
L 364.636139 39.269524 
L 353.362832 39.269524 
z
" style="fill:#ff0000;"/>
   </g>
   <g id="patch_27">
    <path clip-path="url(#p635b025e2e)" d="M 386.283186 112.2 
L 417.557522 112.2 
L 417.557522 121.034762 
L 406.306034 121.034762 
L 406.306034 157.5 
L 397.556493 157.5 
L 397.556493 121.034762 
L 386.283186 121.034762 
z
" style="fill:#ff0000;"/>
   </g>
   <g id="patch_28">
    <path clip-path="url(#p635b025e2e)" d="M 417.557522 104.002768 
Q 414.403454 108.101384 411.011079 110.16005 
Q 407.618703 112.2 404.002039 112.2 
Q 395.829498 112.2 391.056342 99.997728 
Q 386.283186 87.795455 386.283186 66.928073 
Q 386.283186 45.817393 391.140451 33.708697 
Q 396.004724 21.6 404.464635 21.6 
Q 407.723839 21.6 410.70969 23.246932 
Q 413.70255 24.87515 416.351967 28.094154 
L 416.351967 46.154266 
Q 413.618442 42.018219 410.912952 39.978269 
Q 408.207463 37.919603 405.487955 37.919603 
Q 400.455465 37.919603 397.728948 45.44309 
Q 395.002432 52.947862 395.002432 66.928073 
Q 395.002432 80.777277 397.630822 88.338195 
Q 400.259212 95.880397 405.095449 95.880397 
Q 406.413149 95.880397 407.541604 95.449948 
Q 408.670059 95.000785 409.567217 94.065028 
L 409.567217 77.10911 
L 404.415572 77.10911 
L 404.415572 62.00599 
L 417.557522 62.00599 
z
" style="fill:#ffa600;"/>
   </g>
   <g id="patch_29">
    <path clip-path="url(#p635b025e2e)" d="M 419.20354 142.4 
L 450.477876 142.4 
L 450.477876 145.344921 
L 439.226388 145.344921 
L 439.226388 157.5 
L 430.476847 157.5 
L 430.476847 145.344921 
L 419.20354 145.344921 
z
" style="fill:#ff0000;"/>
   </g>
   <g id="patch_30">
    <path clip-path="url(#p635b025e2e)" d="M 450.477876 131.470357 
Q 447.323808 136.935179 443.931433 139.680066 
Q 440.539057 142.4 436.922393 142.4 
Q 428.749852 142.4 423.976696 126.130304 
Q 419.20354 109.860607 419.20354 82.03743 
Q 419.20354 53.889857 424.060805 37.744929 
Q 428.925078 21.6 437.384989 21.6 
Q 440.644193 21.6 443.630044 23.79591 
Q 446.622904 25.966866 449.272321 30.258872 
L 449.272321 54.339021 
Q 446.538796 48.824293 443.833306 46.104359 
Q 441.127817 43.359471 438.408309 43.359471 
Q 433.375819 43.359471 430.649302 53.390787 
Q 427.922786 63.397149 427.922786 82.03743 
Q 427.922786 100.503037 430.551176 110.584259 
Q 433.179565 120.640529 438.015803 120.640529 
Q 439.333503 120.640529 440.461958 120.066598 
Q 441.590413 119.467713 442.487571 118.220037 
L 442.487571 95.612146 
L 437.335926 95.612146 
L 437.335926 75.474654 
L 450.477876 75.474654 
z
" style="fill:#ffa600;"/>
   </g>
   <g id="patch_31">
    <path clip-path="url(#p635b025e2e)" d="M 473.787654 154.74925 
L 461.760047 154.74925 
L 459.860951 157.5 
L 452.123894 157.5 
L 463.173179 142.4 
L 472.348945 142.4 
L 483.39823 157.5 
L 475.667567 157.5 
z
M 463.678326 151.946721 
L 471.850193 151.946721 
L 467.770653 145.940377 
z
" style="fill:#008000;"/>
   </g>
   <g id="patch_32">
    <path clip-path="url(#p635b025e2e)" d="M 483.39823 138.301384 
Q 480.244162 140.350692 476.851787 141.380025 
Q 473.459411 142.4 469.842747 142.4 
Q 461.670206 142.4 456.89705 136.298864 
Q 452.123894 130.197728 452.123894 119.764036 
Q 452.123894 109.208697 456.981158 103.154348 
Q 461.845432 97.1 470.305343 97.1 
Q 473.564547 97.1 476.550398 97.923466 
Q 479.543258 98.737575 482.192675 100.347077 
L 482.192675 109.377133 
Q 479.45915 107.30911 476.75366 106.289134 
Q 474.048171 105.259802 471.328663 105.259802 
Q 466.296173 105.259802 463.569656 109.021545 
Q 460.84314 112.773931 460.84314 119.764036 
Q 460.84314 126.688639 463.471529 130.469097 
Q 466.099919 134.240198 470.936157 134.240198 
Q 472.253857 134.240198 473.382312 134.024974 
Q 474.510767 133.800392 475.407925 133.332514 
L 475.407925 124.854555 
L 470.25628 124.854555 
L 470.25628 117.302995 
L 483.39823 117.302995 
z
" style="fill:#ffa600;"/>
   </g>
   <g id="patch_33">
    <path clip-path="url(#p635b025e2e)" d="M 483.39823 91.688205 
Q 480.782186 94.370709 477.953391 95.727556 
Q 475.124596 97.1 472.043652 97.1 
Q 462.855979 97.1 457.489936 86.93144 
Q 452.123894 76.76288 452.123894 59.373394 
Q 452.123894 41.921524 457.489936 31.76856 
Q 462.855979 21.6 472.043652 21.6 
Q 475.124596 21.6 477.953391 22.972444 
Q 480.782186 24.329291 483.39823 27.011795 
L 483.39823 42.061888 
Q 480.758547 38.506011 478.19766 36.85284 
Q 475.636773 35.199669 472.807979 35.199669 
Q 467.733483 35.199669 464.825892 41.640797 
Q 461.92618 48.066329 461.92618 59.373394 
Q 461.92618 70.633671 464.825892 77.074799 
Q 467.733483 83.500331 472.807979 83.500331 
Q 475.636773 83.500331 478.19766 81.84716 
Q 480.758547 80.178393 483.39823 76.622516 
z
" style="fill:#0000ff;"/>
   </g>
   <g id="patch_34">
    <path clip-path="url(#p635b025e2e)" d="M 485.044248 142.4 
L 516.318584 142.4 
L 516.318584 145.344921 
L 505.067096 145.344921 
L 505.067096 157.5 
L 496.317555 157.5 
L 496.317555 145.344921 
L 485.044248 145.344921 
z
" style="fill:#ff0000;"/>
   </g>
   <g id="patch_35">
    <path clip-path="url(#p635b025e2e)" d="M 516.318584 140.235282 
Q 513.70254 141.308283 510.873745 141.851023 
Q 508.04495 142.4 504.964006 142.4 
Q 495.776333 142.4 490.41029 138.332576 
Q 485.044248 134.265152 485.044248 127.309358 
Q 485.044248 120.32861 490.41029 116.267424 
Q 495.776333 112.2 504.964006 112.2 
Q 508.04495 112.2 510.873745 112.748977 
Q 513.70254 113.291717 516.318584 114.364718 
L 516.318584 120.384755 
Q 513.678901 118.962404 511.118014 118.301136 
Q 508.557127 117.639868 505.728333 117.639868 
Q 500.653837 117.639868 497.746246 120.216319 
Q 494.846534 122.786532 494.846534 127.309358 
Q 494.846534 131.813468 497.746246 134.389919 
Q 500.653837 136.960132 505.728333 136.960132 
Q 508.557127 136.960132 511.118014 136.298864 
Q 513.678901 135.631357 516.318584 134.209006 
z
" style="fill:#0000ff;"/>
   </g>
   <g id="patch_36">
    <path clip-path="url(#p635b025e2e)" d="M 516.318584 104.002768 
Q 513.164516 108.101384 509.772141 110.16005 
Q 506.379765 112.2 502.763101 112.2 
Q 494.59056 112.2 489.817404 99.997728 
Q 485.044248 87.795455 485.044248 66.928073 
Q 485.044248 45.817393 489.901512 33.708697 
Q 494.765786 21.6 503.225697 21.6 
Q 506.484901 21.6 509.470752 23.246932 
Q 512.463612 24.87515 515.113029 28.094154 
L 515.113029 46.154266 
Q 512.379504 42.018219 509.674014 39.978269 
Q 506.968525 37.919603 504.249017 37.919603 
Q 499.216527 37.919603 496.49001 45.44309 
Q 493.763493 52.947862 493.763493 66.928073 
Q 493.763493 80.777277 496.391883 88.338195 
Q 499.020273 95.880397 503.856511 95.880397 
Q 505.174211 95.880397 506.302666 95.449948 
Q 507.431121 95.000785 508.328279 94.065028 
L 508.328279 77.10911 
L 503.176634 77.10911 
L 503.176634 62.00599 
L 516.318584 62.00599 
z
" style="fill:#ffa600;"/>
   </g>
   <g id="patch_37">
    <path clip-path="url(#p635b025e2e)" d="M 549.238938 154.767589 
Q 546.08487 156.133795 542.692495 156.820017 
Q 539.300119 157.5 535.683455 157.5 
Q 527.510914 157.5 522.737758 153.432576 
Q 517.964602 149.365152 517.964602 142.409358 
Q 517.964602 135.372464 522.821866 131.336232 
Q 527.68614 127.3 536.146051 127.3 
Q 539.405255 127.3 542.391106 127.848977 
Q 545.383966 128.391717 548.033383 129.464718 
L 548.033383 135.484755 
Q 545.299858 134.106073 542.594368 133.42609 
Q 539.888879 132.739868 537.169371 132.739868 
Q 532.136881 132.739868 529.410364 135.247697 
Q 526.683847 137.749287 526.683847 142.409358 
Q 526.683847 147.025759 529.312237 149.546065 
Q 531.940627 152.060132 536.776865 152.060132 
Q 538.094565 152.060132 539.22302 151.916649 
Q 540.351475 151.766928 541.248633 151.455009 
L 541.248633 145.803037 
L 536.096988 145.803037 
L 536.096988 140.768663 
L 549.238938 140.768663 
z
" style="fill:#ffa600;"/>
   </g>
   <g id="patch_38">
    <path clip-path="url(#p635b025e2e)" d="M 517.964602 97.1 
L 549.238938 97.1 
L 549.238938 102.989841 
L 537.98745 102.989841 
L 537.98745 127.3 
L 529.237909 127.3 
L 529.237909 102.989841 
L 517.964602 102.989841 
z
" style="fill:#ff0000;"/>
   </g>
   <g id="patch_39">
    <path clip-path="url(#p635b025e2e)" d="M 549.238938 91.688205 
Q 546.622894 94.370709 543.794099 95.727556 
Q 540.965304 97.1 537.88436 97.1 
Q 528.696687 97.1 523.330644 86.93144 
Q 517.964602 76.76288 517.964602 59.373394 
Q 517.964602 41.921524 523.330644 31.76856 
Q 528.696687 21.6 537.88436 21.6 
Q 540.965304 21.6 543.794099 22.972444 
Q 546.622894 24.329291 549.238938 27.011795 
L 549.238938 42.061888 
Q 546.599255 38.506011 544.038368 36.85284 
Q 541.477481 35.199669 538.648687 35.199669 
Q 533.574191 35.199669 530.6666 41.640797 
Q 527.766888 48.066329 527.766888 59.373394 
Q 527.766888 70.633671 530.6666 77.074799 
Q 533.574191 83.500331 538.648687 83.500331 
Q 541.477481 83.500331 544.038368 81.84716 
Q 546.599255 80.178393 549.238938 76.622516 
z
" style="fill:#0000ff;"/>
   </g>
   <g id="patch_40">
    <path clip-path="url(#p635b025e2e)" d="M 550.884956 142.4 
L 582.159292 142.4 
L 582.159292 145.344921 
L 570.907804 145.344921 
L 570.907804 157.5 
L 562.158263 157.5 
L 562.158263 145.344921 
L 550.884956 145.344921 
z
" style="fill:#ff0000;"/>
   </g>
   <g id="patch_41">
    <path clip-path="url(#p635b025e2e)" d="M 572.548716 136.8985 
L 560.521109 136.8985 
L 558.622013 142.4 
L 550.884956 142.4 
L 561.934241 112.2 
L 571.110007 112.2 
L 582.159292 142.4 
L 574.428629 142.4 
z
M 562.439387 131.293442 
L 570.611255 131.293442 
L 566.531715 119.280754 
z
" style="fill:#008000;"/>
   </g>
   <g id="patch_42">
    <path clip-path="url(#p635b025e2e)" d="M 582.159292 108.952923 
Q 579.543248 110.562425 576.714453 111.376534 
Q 573.885658 112.2 570.804714 112.2 
Q 561.617041 112.2 556.250998 106.098864 
Q 550.884956 99.997728 550.884956 89.564036 
Q 550.884956 79.092915 556.250998 73.001136 
Q 561.617041 66.9 570.804714 66.9 
Q 573.885658 66.9 576.714453 67.723466 
Q 579.543248 68.537575 582.159292 70.147077 
L 582.159292 79.177133 
Q 579.519609 77.043607 576.958722 76.051704 
Q 574.397835 75.059802 571.569041 75.059802 
Q 566.494545 75.059802 563.586954 78.924478 
Q 560.687242 82.779798 560.687242 89.564036 
Q 560.687242 96.320202 563.586954 100.184879 
Q 566.494545 104.040198 571.569041 104.040198 
Q 574.397835 104.040198 576.958722 103.048296 
Q 579.519609 102.047036 582.159292 99.91351 
z
" style="fill:#0000ff;"/>
   </g>
   <g id="patch_43">
    <path clip-path="url(#p635b025e2e)" d="M 582.159292 62.801384 
Q 579.005224 64.850692 575.612849 65.880025 
Q 572.220473 66.9 568.603809 66.9 
Q 560.431268 66.9 555.658112 60.798864 
Q 550.884956 54.697728 550.884956 44.264036 
Q 550.884956 33.708697 555.74222 27.654348 
Q 560.606494 21.6 569.066405 21.6 
Q 572.325609 21.6 575.31146 22.423466 
Q 578.30432 23.237575 580.953737 24.847077 
L 580.953737 33.877133 
Q 578.220212 31.80911 575.514722 30.789134 
Q 572.809233 29.759802 570.089725 29.759802 
Q 565.057235 29.759802 562.330718 33.521545 
Q 559.604201 37.273931 559.604201 44.264036 
Q 559.604201 51.188639 562.232591 54.969097 
Q 564.860981 58.740198 569.697219 58.740198 
Q 571.014919 58.740198 572.143374 58.524974 
Q 573.271829 58.300392 574.168986 57.832514 
L 574.168986 49.354555 
L 569.017342 49.354555 
L 569.017342 41.802995 
L 582.159292 41.802995 
z
" style="fill:#ffa600;"/>
   </g>
   <g id="patch_44">
    <path clip-path="url(#p635b025e2e)" d="M 605.46907 154.74925 
L 593.441463 154.74925 
L 591.542367 157.5 
L 583.80531 157.5 
L 594.854595 142.4 
L 604.030361 142.4 
L 615.079646 157.5 
L 607.348983 157.5 
z
M 595.359741 151.946721 
L 603.531609 151.946721 
L 599.452069 145.940377 
z
" style="fill:#008000;"/>
   </g>
   <g id="patch_45">
    <path clip-path="url(#p635b025e2e)" d="M 583.80531 127.3 
L 615.079646 127.3 
L 615.079646 130.244921 
L 603.828158 130.244921 
L 603.828158 142.4 
L 595.078617 142.4 
L 595.078617 130.244921 
L 583.80531 130.244921 
z
" style="fill:#ff0000;"/>
   </g>
   <g id="patch_46">
    <path clip-path="url(#p635b025e2e)" d="M 615.079646 124.052923 
Q 612.463602 125.662425 609.634807 126.476534 
Q 606.806012 127.3 603.725068 127.3 
Q 594.537395 127.3 589.171352 121.198864 
Q 583.80531 115.097728 583.80531 104.664036 
Q 583.80531 94.192915 589.171352 88.101136 
Q 594.537395 82 603.725068 82 
Q 606.806012 82 609.634807 82.823466 
Q 612.463602 83.637575 615.079646 85.247077 
L 615.079646 94.277133 
Q 612.439963 92.143607 609.879076 91.151704 
Q 607.318189 90.159802 604.489395 90.159802 
Q 599.414899 90.159802 596.507308 94.024478 
Q 593.607596 97.879798 593.607596 104.664036 
Q 593.607596 111.420202 596.507308 115.284879 
Q 599.414899 119.140198 604.489395 119.140198 
Q 607.318189 119.140198 609.879076 118.148296 
Q 612.439963 117.147036 615.079646 115.01351 
z
" style="fill:#0000ff;"/>
   </g>
   <g id="patch_47">
    <path clip-path="url(#p635b025e2e)" d="M 615.079646 76.535179 
Q 611.925578 79.267589 608.533203 80.640033 
Q 605.140827 82 601.524163 82 
Q 593.351622 82 588.578466 73.865152 
Q 583.80531 65.730304 583.80531 51.818715 
Q 583.80531 37.744929 588.662574 29.672464 
Q 593.526848 21.6 601.986759 21.6 
Q 605.245963 21.6 608.231814 22.697955 
Q 611.224674 23.783433 613.874091 25.929436 
L 613.874091 37.96951 
Q 611.140566 35.212146 608.435076 33.852179 
Q 605.729587 32.479736 603.010079 32.479736 
Q 597.977589 32.479736 595.251072 37.495394 
Q 592.524555 42.498575 592.524555 51.818715 
Q 592.524555 61.051518 595.152945 66.09213 
Q 597.781335 71.120264 602.617573 71.120264 
Q 603.935272 71.120264 605.063728 70.833299 
Q 606.192183 70.533857 607.08934 69.910019 
L 607.08934 58.606073 
L 601.937696 58.606073 
L 601.937696 48.537327 
L 615.079646 48.537327 
z
" style="fill:#ffa600;"/>
   </g>
   <g id="patch_48">
    <path clip-path="url(#p635b025e2e)" d="M 648 156.417641 
Q 645.383956 156.954142 642.555161 157.225511 
Q 639.726366 157.5 636.645422 157.5 
Q 627.457749 157.5 622.091706 155.466288 
Q 616.725664 153.432576 616.725664 149.954679 
Q 616.725664 146.464305 622.091706 144.433712 
Q 627.457749 142.4 636.645422 142.4 
Q 639.726366 142.4 642.555161 142.674489 
Q 645.383956 142.945858 648 143.482359 
L 648 146.492378 
Q 645.360317 145.781202 642.79943 145.450568 
Q 640.238543 145.119934 637.409749 145.119934 
Q 632.335253 145.119934 629.427662 146.408159 
Q 626.52795 147.693266 626.52795 149.954679 
Q 626.52795 152.206734 629.427662 153.49496 
Q 632.335253 154.780066 637.409749 154.780066 
Q 640.238543 154.780066 642.79943 154.449432 
Q 645.360317 154.115679 648 153.404503 
z
" style="fill:#0000ff;"/>
   </g>
   <g id="patch_49">
    <path clip-path="url(#p635b025e2e)" d="M 648 141.033795 
Q 644.845932 141.716897 641.453557 142.060008 
Q 638.061181 142.4 634.444517 142.4 
Q 626.271976 142.4 621.49882 140.366288 
Q 616.725664 138.332576 616.725664 134.854679 
Q 616.725664 131.336232 621.582928 129.318116 
Q 626.447202 127.3 634.907113 127.3 
Q 638.166317 127.3 641.152168 127.574489 
Q 644.145028 127.845858 646.794445 128.382359 
L 646.794445 131.392378 
Q 644.06092 130.703037 641.35543 130.363045 
Q 638.649941 130.019934 635.930433 130.019934 
Q 630.897943 130.019934 628.171426 131.273848 
Q 625.444909 132.524644 625.444909 134.854679 
Q 625.444909 137.16288 628.073299 138.423032 
Q 630.701689 139.680066 635.537927 139.680066 
Q 636.855626 139.680066 637.984082 139.608325 
Q 639.112537 139.533464 640.009694 139.377505 
L 640.009694 136.551518 
L 634.85805 136.551518 
L 634.85805 134.034332 
L 648 134.034332 
z
" style="fill:#ffa600;"/>
   </g>
   <g id="patch_50">
    <path clip-path="url(#p635b025e2e)" d="M 616.725664 82 
L 648 82 
L 648 90.834762 
L 636.748512 90.834762 
L 636.748512 127.3 
L 627.998971 127.3 
L 627.998971 90.834762 
L 616.725664 90.834762 
z
" style="fill:#ff0000;"/>
   </g>
   <g id="patch_51">
    <path clip-path="url(#p635b025e2e)" d="M 638.389424 70.997 
L 626.361817 70.997 
L 624.462721 82 
L 616.725664 82 
L 627.774949 21.6 
L 636.950715 21.6 
L 648 82 
L 640.269337 82 
z
M 628.280095 59.786884 
L 636.451963 59.786884 
L 632.372423 35.761509 
z
" style="fill:#008000;"/>
   </g>
  </g>
 </g>
 <defs>
  <clipPath id="p635b025e2e">
   <rect height="135.9" width="558" x="90" y="21.6"/>
  </clipPath>
 </defs>
</svg>
