<?xml version="1.0" encoding="utf-8" standalone="no"?>
<!DOCTYPE svg PUBLIC "-//W3C//DTD SVG 1.1//EN"
  "http://www.w3.org/Graphics/SVG/1.1/DTD/svg11.dtd">
<!-- Created with matplotlib (https://matplotlib.org/) -->
<svg height="180pt" version="1.1" viewBox="0 0 720 180" width="720pt" xmlns="http://www.w3.org/2000/svg" xmlns:xlink="http://www.w3.org/1999/xlink">
 <metadata>
  <rdf:RDF xmlns:cc="http://creativecommons.org/ns#" xmlns:dc="http://purl.org/dc/elements/1.1/" xmlns:rdf="http://www.w3.org/1999/02/22-rdf-syntax-ns#">
   <cc:Work>
    <dc:type rdf:resource="http://purl.org/dc/dcmitype/StillImage"/>
    <dc:date>2021-08-04T23:33:52.693232</dc:date>
    <dc:format>image/svg+xml</dc:format>
    <dc:creator>
     <cc:Agent>
      <dc:title>Matplotlib v3.3.2, https://matplotlib.org/</dc:title>
     </cc:Agent>
    </dc:creator>
   </cc:Work>
  </rdf:RDF>
 </metadata>
 <defs>
  <style type="text/css">*{stroke-linecap:butt;stroke-linejoin:round;}</style>
 </defs>
 <g id="figure_1">
  <g id="patch_1">
   <path d="M 0 180 
L 720 180 
L 720 0 
L 0 0 
z
" style="fill:none;"/>
  </g>
  <g id="axes_1">
   <g id="line2d_1">
    <path clip-path="url(#p3ce5bba080)" d="M 90 157.5 
L 648 157.5 
" style="fill:none;stroke:#000000;stroke-linecap:square;stroke-width:0.5;"/>
   </g>
   <g id="patch_2">
    <path clip-path="url(#p3ce5bba080)" d="M 121.274336 145.204152 
Q 118.120268 151.352076 114.727893 154.440074 
Q 111.335518 157.5 107.718853 157.5 
Q 99.546312 157.5 94.773156 139.196592 
Q 90 120.893183 90 89.592109 
Q 90 57.92609 94.857265 39.763045 
Q 99.721538 21.6 108.18145 21.6 
Q 111.440653 21.6 114.426504 24.070399 
Q 117.419364 26.512725 120.068781 31.341231 
L 120.068781 58.431398 
Q 117.335256 52.227329 114.629766 49.167403 
Q 111.924277 46.079405 109.204769 46.079405 
Q 104.172279 46.079405 101.445762 57.364635 
Q 98.719246 68.621793 98.719246 89.592109 
Q 98.719246 110.365916 101.347636 121.707292 
Q 103.976026 133.020595 108.812263 133.020595 
Q 110.129963 133.020595 111.258418 132.374923 
Q 112.386874 131.701177 113.284031 130.297542 
L 113.284031 104.863665 
L 108.132386 104.863665 
L 108.132386 82.208986 
L 121.274336 82.208986 
z
" style="fill:#ffa600;"/>
   </g>
   <g id="patch_3">
    <path clip-path="url(#p3ce5bba080)" d="M 154.19469 145.204152 
Q 151.040622 151.352076 147.648247 154.440074 
Q 144.255872 157.5 140.639207 157.5 
Q 132.466666 157.5 127.69351 139.196592 
Q 122.920354 120.893183 122.920354 89.592109 
Q 122.920354 57.92609 127.777619 39.763045 
Q 132.641892 21.6 141.101804 21.6 
Q 144.361007 21.6 147.346858 24.070399 
Q 150.339718 26.512725 152.989135 31.341231 
L 152.989135 58.431398 
Q 150.25561 52.227329 147.55012 49.167403 
Q 144.844631 46.079405 142.125123 46.079405 
Q 137.092633 46.079405 134.366116 57.364635 
Q 131.6396 68.621793 131.6396 89.592109 
Q 131.6396 110.365916 134.26799 121.707292 
Q 136.89638 133.020595 141.732617 133.020595 
Q 143.050317 133.020595 144.178772 132.374923 
Q 145.307228 131.701177 146.204385 130.297542 
L 146.204385 104.863665 
L 141.05274 104.863665 
L 141.05274 82.208986 
L 154.19469 82.208986 
z
" style="fill:#ffa600;"/>
   </g>
   <g id="patch_4">
    <path clip-path="url(#p3ce5bba080)" d="M 177.504468 154.74925 
L 165.476861 154.74925 
L 163.577765 157.5 
L 155.840708 157.5 
L 166.889993 142.4 
L 176.065759 142.4 
L 187.115044 157.5 
L 179.384381 157.5 
z
M 167.39514 151.946721 
L 175.567007 151.946721 
L 171.487467 145.940377 
z
" style="fill:#008000;"/>
   </g>
   <g id="patch_5">
    <path clip-path="url(#p3ce5bba080)" d="M 187.115044 139.152923 
Q 184.499 140.762425 181.670205 141.576534 
Q 178.84141 142.4 175.760467 142.4 
Q 166.572793 142.4 161.206751 136.298864 
Q 155.840708 130.197728 155.840708 119.764036 
Q 155.840708 109.292915 161.206751 103.201136 
Q 166.572793 97.1 175.760467 97.1 
Q 178.84141 97.1 181.670205 97.923466 
Q 184.499 98.737575 187.115044 100.347077 
L 187.115044 109.377133 
Q 184.475361 107.243607 181.914474 106.251704 
Q 179.353588 105.259802 176.524793 105.259802 
Q 171.450297 105.259802 168.542706 109.124478 
Q 165.642994 112.979798 165.642994 119.764036 
Q 165.642994 126.520202 168.542706 130.384879 
Q 171.450297 134.240198 176.524793 134.240198 
Q 179.353588 134.240198 181.914474 133.248296 
Q 184.475361 132.247036 187.115044 130.11351 
z
" style="fill:#0000ff;"/>
   </g>
   <g id="patch_6">
    <path clip-path="url(#p3ce5bba080)" d="M 187.115044 90.268973 
Q 183.960976 93.684487 180.568601 95.400041 
Q 177.176226 97.1 173.559561 97.1 
Q 165.38702 97.1 160.613864 86.93144 
Q 155.840708 76.76288 155.840708 59.373394 
Q 155.840708 41.781161 160.697973 31.69058 
Q 165.562246 21.6 174.022158 21.6 
Q 177.281361 21.6 180.267212 22.972444 
Q 183.260072 24.329291 185.909489 27.011795 
L 185.909489 42.061888 
Q 183.175964 38.615183 180.470474 36.915224 
Q 177.764985 35.199669 175.045477 35.199669 
Q 170.012987 35.199669 167.28647 41.469242 
Q 164.559954 47.723218 164.559954 59.373394 
Q 164.559954 70.914398 167.188344 77.215162 
Q 169.816734 83.500331 174.652971 83.500331 
Q 175.970671 83.500331 177.099126 83.141624 
Q 178.227582 82.767321 179.124739 81.987523 
L 179.124739 67.857591 
L 173.973094 67.857591 
L 173.973094 55.271659 
L 187.115044 55.271659 
z
" style="fill:#ffa600;"/>
   </g>
   <g id="patch_7">
    <path clip-path="url(#p3ce5bba080)" d="M 188.761062 142.4 
L 220.035398 142.4 
L 220.035398 145.344921 
L 208.78391 145.344921 
L 208.78391 157.5 
L 200.034369 157.5 
L 200.034369 145.344921 
L 188.761062 145.344921 
z
" style="fill:#ff0000;"/>
   </g>
   <g id="patch_8">
    <path clip-path="url(#p3ce5bba080)" d="M 210.424822 136.8985 
L 198.397215 136.8985 
L 196.498119 142.4 
L 188.761062 142.4 
L 199.810347 112.2 
L 208.986113 112.2 
L 220.035398 142.4 
L 212.304735 142.4 
z
M 200.315494 131.293442 
L 208.487361 131.293442 
L 204.407821 119.280754 
z
" style="fill:#008000;"/>
   </g>
   <g id="patch_9">
    <path clip-path="url(#p3ce5bba080)" d="M 220.035398 110.035282 
Q 217.419354 111.108283 214.590559 111.651023 
Q 211.761764 112.2 208.680821 112.2 
Q 199.493147 112.2 194.127105 108.132576 
Q 188.761062 104.065152 188.761062 97.109358 
Q 188.761062 90.12861 194.127105 86.067424 
Q 199.493147 82 208.680821 82 
Q 211.761764 82 214.590559 82.548977 
Q 217.419354 83.091717 220.035398 84.164718 
L 220.035398 90.184755 
Q 217.395715 88.762404 214.834828 88.101136 
Q 212.273942 87.439868 209.445147 87.439868 
Q 204.370651 87.439868 201.46306 90.016319 
Q 198.563348 92.586532 198.563348 97.109358 
Q 198.563348 101.613468 201.46306 104.189919 
Q 204.370651 106.760132 209.445147 106.760132 
Q 212.273942 106.760132 214.834828 106.098864 
Q 217.395715 105.431357 220.035398 104.009006 
z
" style="fill:#0000ff;"/>
   </g>
   <g id="patch_10">
    <path clip-path="url(#p3ce5bba080)" d="M 220.035398 76.535179 
Q 216.88133 79.267589 213.488955 80.640033 
Q 210.09658 82 206.479915 82 
Q 198.307374 82 193.534218 73.865152 
Q 188.761062 65.730304 188.761062 51.818715 
Q 188.761062 37.744929 193.618327 29.672464 
Q 198.4826 21.6 206.942512 21.6 
Q 210.201715 21.6 213.187566 22.697955 
Q 216.180426 23.783433 218.829843 25.929436 
L 218.829843 37.96951 
Q 216.096318 35.212146 213.390828 33.852179 
Q 210.685339 32.479736 207.965831 32.479736 
Q 202.933341 32.479736 200.206824 37.495394 
Q 197.480308 42.498575 197.480308 51.818715 
Q 197.480308 61.051518 200.108698 66.09213 
Q 202.737088 71.120264 207.573325 71.120264 
Q 208.891025 71.120264 210.01948 70.833299 
Q 211.147936 70.533857 212.045093 69.910019 
L 212.045093 58.606073 
L 206.893448 58.606073 
L 206.893448 48.537327 
L 220.035398 48.537327 
z
" style="fill:#ffa600;"/>
   </g>
   <g id="patch_11">
    <path clip-path="url(#p3ce5bba080)" d="M 252.955752 156.133795 
Q 249.801684 156.816897 246.409309 157.160008 
Q 243.016934 157.5 239.400269 157.5 
Q 231.227728 157.5 226.454572 155.466288 
Q 221.681416 153.432576 221.681416 149.954679 
Q 221.681416 146.436232 226.538681 144.418116 
Q 231.402954 142.4 239.862866 142.4 
Q 243.122069 142.4 246.10792 142.674489 
Q 249.10078 142.945858 251.750197 143.482359 
L 251.750197 146.492378 
Q 249.016672 145.803037 246.311182 145.463045 
Q 243.605693 145.119934 240.886185 145.119934 
Q 235.853695 145.119934 233.127178 146.373848 
Q 230.400662 147.624644 230.400662 149.954679 
Q 230.400662 152.26288 233.029052 153.523032 
Q 235.657442 154.780066 240.493679 154.780066 
Q 241.811379 154.780066 242.939834 154.708325 
Q 244.06829 154.633464 244.965447 154.477505 
L 244.965447 151.651518 
L 239.813802 151.651518 
L 239.813802 149.134332 
L 252.955752 149.134332 
z
" style="fill:#ffa600;"/>
   </g>
   <g id="patch_12">
    <path clip-path="url(#p3ce5bba080)" d="M 252.955752 140.235282 
Q 250.339708 141.308283 247.510913 141.851023 
Q 244.682118 142.4 241.601175 142.4 
Q 232.413501 142.4 227.047459 138.332576 
Q 221.681416 134.265152 221.681416 127.309358 
Q 221.681416 120.32861 227.047459 116.267424 
Q 232.413501 112.2 241.601175 112.2 
Q 244.682118 112.2 247.510913 112.748977 
Q 250.339708 113.291717 252.955752 114.364718 
L 252.955752 120.384755 
Q 250.316069 118.962404 247.755182 118.301136 
Q 245.194296 117.639868 242.365501 117.639868 
Q 237.291005 117.639868 234.383414 120.216319 
Q 231.483702 122.786532 231.483702 127.309358 
Q 231.483702 131.813468 234.383414 134.389919 
Q 237.291005 136.960132 242.365501 136.960132 
Q 245.194296 136.960132 247.755182 136.298864 
Q 250.316069 135.631357 252.955752 134.209006 
z
" style="fill:#0000ff;"/>
   </g>
   <g id="patch_13">
    <path clip-path="url(#p3ce5bba080)" d="M 221.681416 21.6 
L 252.955752 21.6 
L 252.955752 39.269524 
L 241.704264 39.269524 
L 241.704264 112.2 
L 232.954723 112.2 
L 232.954723 39.269524 
L 221.681416 39.269524 
z
" style="fill:#ff0000;"/>
   </g>
   <g id="patch_14">
    <path clip-path="url(#p3ce5bba080)" d="M 285.876106 156.417641 
Q 283.260062 156.954142 280.431267 157.225511 
Q 277.602472 157.5 274.521529 157.5 
Q 265.333855 157.5 259.967812 155.466288 
Q 254.60177 153.432576 254.60177 149.954679 
Q 254.60177 146.464305 259.967812 144.433712 
Q 265.333855 142.4 274.521529 142.4 
Q 277.602472 142.4 280.431267 142.674489 
Q 283.260062 142.945858 285.876106 143.482359 
L 285.876106 146.492378 
Q 283.236423 145.781202 280.675536 145.450568 
Q 278.11465 145.119934 275.285855 145.119934 
Q 270.211359 145.119934 267.303768 146.408159 
Q 264.404056 147.693266 264.404056 149.954679 
Q 264.404056 152.206734 267.303768 153.49496 
Q 270.211359 154.780066 275.285855 154.780066 
Q 278.11465 154.780066 280.675536 154.449432 
Q 283.236423 154.115679 285.876106 153.404503 
z
" style="fill:#0000ff;"/>
   </g>
   <g id="patch_15">
    <path clip-path="url(#p3ce5bba080)" d="M 276.26553 134.14775 
L 264.237923 134.14775 
L 262.338827 142.4 
L 254.60177 142.4 
L 265.651055 97.1 
L 274.826821 97.1 
L 285.876106 142.4 
L 278.145443 142.4 
z
M 266.156202 125.740163 
L 274.328069 125.740163 
L 270.248529 107.721132 
z
" style="fill:#008000;"/>
   </g>
   <g id="patch_16">
    <path clip-path="url(#p3ce5bba080)" d="M 285.876106 90.268973 
Q 282.722038 93.684487 279.329663 95.400041 
Q 275.937288 97.1 272.320623 97.1 
Q 264.148082 97.1 259.374926 86.93144 
Q 254.60177 76.76288 254.60177 59.373394 
Q 254.60177 41.781161 259.459035 31.69058 
Q 264.323308 21.6 272.78322 21.6 
Q 276.042423 21.6 279.028274 22.972444 
Q 282.021134 24.329291 284.670551 27.011795 
L 284.670551 42.061888 
Q 281.937026 38.615183 279.231536 36.915224 
Q 276.526047 35.199669 273.806539 35.199669 
Q 268.774049 35.199669 266.047532 41.469242 
Q 263.321016 47.723218 263.321016 59.373394 
Q 263.321016 70.914398 265.949406 77.215162 
Q 268.577796 83.500331 273.414033 83.500331 
Q 274.731733 83.500331 275.860188 83.141624 
Q 276.988644 82.767321 277.885801 81.987523 
L 277.885801 67.857591 
L 272.734156 67.857591 
L 272.734156 55.271659 
L 285.876106 55.271659 
z
" style="fill:#ffa600;"/>
   </g>
   <g id="patch_17">
    <path clip-path="url(#p3ce5bba080)" d="M 318.79646 153.170564 
Q 316.180416 155.316567 313.351621 156.402045 
Q 310.522826 157.5 307.441883 157.5 
Q 298.254209 157.5 292.888166 149.365152 
Q 287.522124 141.230304 287.522124 127.318715 
Q 287.522124 113.35722 292.888166 105.234848 
Q 298.254209 97.1 307.441883 97.1 
Q 310.522826 97.1 313.351621 98.197955 
Q 316.180416 99.283433 318.79646 101.429436 
L 318.79646 113.46951 
Q 316.156777 110.624809 313.59589 109.302272 
Q 311.035004 107.979736 308.206209 107.979736 
Q 303.131713 107.979736 300.224122 113.132638 
Q 297.32441 118.273063 297.32441 127.318715 
Q 297.32441 136.326937 300.224122 141.479839 
Q 303.131713 146.620264 308.206209 146.620264 
Q 311.035004 146.620264 313.59589 145.297728 
Q 316.156777 143.962714 318.79646 141.118013 
z
" style="fill:#0000ff;"/>
   </g>
   <g id="patch_18">
    <path clip-path="url(#p3ce5bba080)" d="M 318.79646 90.268973 
Q 315.642392 93.684487 312.250017 95.400041 
Q 308.857642 97.1 305.240977 97.1 
Q 297.068436 97.1 292.29528 86.93144 
Q 287.522124 76.76288 287.522124 59.373394 
Q 287.522124 41.781161 292.379389 31.69058 
Q 297.243662 21.6 305.703574 21.6 
Q 308.962777 21.6 311.948628 22.972444 
Q 314.941488 24.329291 317.590905 27.011795 
L 317.590905 42.061888 
Q 314.85738 38.615183 312.15189 36.915224 
Q 309.446401 35.199669 306.726893 35.199669 
Q 301.694403 35.199669 298.967886 41.469242 
Q 296.24137 47.723218 296.24137 59.373394 
Q 296.24137 70.914398 298.86976 77.215162 
Q 301.49815 83.500331 306.334387 83.500331 
Q 307.652087 83.500331 308.780542 83.141624 
Q 309.908998 82.767321 310.806155 81.987523 
L 310.806155 67.857591 
L 305.65451 67.857591 
L 305.65451 55.271659 
L 318.79646 55.271659 
z
" style="fill:#ffa600;"/>
   </g>
   <g id="patch_19">
    <path clip-path="url(#p3ce5bba080)" d="M 351.716814 154.252923 
Q 349.10077 155.862425 346.271975 156.676534 
Q 343.44318 157.5 340.362237 157.5 
Q 331.174563 157.5 325.80852 151.398864 
Q 320.442478 145.297728 320.442478 134.864036 
Q 320.442478 124.392915 325.80852 118.301136 
Q 331.174563 112.2 340.362237 112.2 
Q 343.44318 112.2 346.271975 113.023466 
Q 349.10077 113.837575 351.716814 115.447077 
L 351.716814 124.477133 
Q 349.077131 122.343607 346.516244 121.351704 
Q 343.955358 120.359802 341.126563 120.359802 
Q 336.052067 120.359802 333.144476 124.224478 
Q 330.244764 128.079798 330.244764 134.864036 
Q 330.244764 141.620202 333.144476 145.484879 
Q 336.052067 149.340198 341.126563 149.340198 
Q 343.955358 149.340198 346.516244 148.348296 
Q 349.077131 147.347036 351.716814 145.21351 
z
" style="fill:#0000ff;"/>
   </g>
   <g id="patch_20">
    <path clip-path="url(#p3ce5bba080)" d="M 351.716814 108.101384 
Q 348.562746 110.150692 345.170371 111.180025 
Q 341.777996 112.2 338.161331 112.2 
Q 329.98879 112.2 325.215634 106.098864 
Q 320.442478 99.997728 320.442478 89.564036 
Q 320.442478 79.008697 325.299743 72.954348 
Q 330.164016 66.9 338.623928 66.9 
Q 341.883131 66.9 344.868982 67.723466 
Q 347.861842 68.537575 350.511259 70.147077 
L 350.511259 79.177133 
Q 347.777734 77.10911 345.072244 76.089134 
Q 342.366755 75.059802 339.647247 75.059802 
Q 334.614757 75.059802 331.88824 78.821545 
Q 329.161724 82.573931 329.161724 89.564036 
Q 329.161724 96.488639 331.790114 100.269097 
Q 334.418504 104.040198 339.254741 104.040198 
Q 340.572441 104.040198 341.700896 103.824974 
Q 342.829351 103.600392 343.726509 103.132514 
L 343.726509 94.654555 
L 338.574864 94.654555 
L 338.574864 87.102995 
L 351.716814 87.102995 
z
" style="fill:#ffa600;"/>
   </g>
   <g id="patch_21">
    <path clip-path="url(#p3ce5bba080)" d="M 320.442478 21.6 
L 351.716814 21.6 
L 351.716814 30.434762 
L 340.465326 30.434762 
L 340.465326 66.9 
L 331.715785 66.9 
L 331.715785 30.434762 
L 320.442478 30.434762 
z
" style="fill:#ff0000;"/>
   </g>
   <g id="patch_22">
    <path clip-path="url(#p3ce5bba080)" d="M 384.637168 156.417641 
Q 382.021124 156.954142 379.192329 157.225511 
Q 376.363534 157.5 373.282591 157.5 
Q 364.094917 157.5 358.728874 155.466288 
Q 353.362832 153.432576 353.362832 149.954679 
Q 353.362832 146.464305 358.728874 144.433712 
Q 364.094917 142.4 373.282591 142.4 
Q 376.363534 142.4 379.192329 142.674489 
Q 382.021124 142.945858 384.637168 143.482359 
L 384.637168 146.492378 
Q 381.997485 145.781202 379.436598 145.450568 
Q 376.875712 145.119934 374.046917 145.119934 
Q 368.972421 145.119934 366.06483 146.408159 
Q 363.165118 147.693266 363.165118 149.954679 
Q 363.165118 152.206734 366.06483 153.49496 
Q 368.972421 154.780066 374.046917 154.780066 
Q 376.875712 154.780066 379.436598 154.449432 
Q 381.997485 154.115679 384.637168 153.404503 
z
" style="fill:#0000ff;"/>
   </g>
   <g id="patch_23">
    <path clip-path="url(#p3ce5bba080)" d="M 353.362832 127.3 
L 384.637168 127.3 
L 384.637168 130.244921 
L 373.38568 130.244921 
L 373.38568 142.4 
L 364.636139 142.4 
L 364.636139 130.244921 
L 353.362832 130.244921 
z
" style="fill:#ff0000;"/>
   </g>
   <g id="patch_24">
    <path clip-path="url(#p3ce5bba080)" d="M 384.637168 124.567589 
Q 381.4831 125.933795 378.090725 126.620017 
Q 374.698349 127.3 371.081685 127.3 
Q 362.909144 127.3 358.135988 123.232576 
Q 353.362832 119.165152 353.362832 112.209358 
Q 353.362832 105.172464 358.220097 101.136232 
Q 363.08437 97.1 371.544282 97.1 
Q 374.803485 97.1 377.789336 97.648977 
Q 380.782196 98.191717 383.431613 99.264718 
L 383.431613 105.284755 
Q 380.698088 103.906073 377.992598 103.22609 
Q 375.287109 102.539868 372.567601 102.539868 
Q 367.535111 102.539868 364.808594 105.047697 
Q 362.082078 107.549287 362.082078 112.209358 
Q 362.082078 116.825759 364.710468 119.346065 
Q 367.338858 121.860132 372.175095 121.860132 
Q 373.492795 121.860132 374.62125 121.716649 
Q 375.749705 121.566928 376.646863 121.255009 
L 376.646863 115.603037 
L 371.495218 115.603037 
L 371.495218 110.568663 
L 384.637168 110.568663 
z
" style="fill:#ffa600;"/>
   </g>
   <g id="patch_25">
    <path clip-path="url(#p3ce5bba080)" d="M 375.026592 83.346249 
L 362.998985 83.346249 
L 361.099889 97.1 
L 353.362832 97.1 
L 364.412117 21.6 
L 373.587883 21.6 
L 384.637168 97.1 
L 376.906505 97.1 
z
M 364.917264 69.333605 
L 373.089131 69.333605 
L 369.009591 39.301886 
z
" style="fill:#008000;"/>
   </g>
   <g id="patch_26">
    <path clip-path="url(#p3ce5bba080)" d="M 417.557522 153.170564 
Q 414.941478 155.316567 412.112683 156.402045 
Q 409.283888 157.5 406.202945 157.5 
Q 397.015271 157.5 391.649228 149.365152 
Q 386.283186 141.230304 386.283186 127.318715 
Q 386.283186 113.35722 391.649228 105.234848 
Q 397.015271 97.1 406.202945 97.1 
Q 409.283888 97.1 412.112683 98.197955 
Q 414.941478 99.283433 417.557522 101.429436 
L 417.557522 113.46951 
Q 414.917839 110.624809 412.356952 109.302272 
Q 409.796066 107.979736 406.967271 107.979736 
Q 401.892775 107.979736 398.985184 113.132638 
Q 396.085472 118.273063 396.085472 127.318715 
Q 396.085472 136.326937 398.985184 141.479839 
Q 401.892775 146.620264 406.967271 146.620264 
Q 409.796066 146.620264 412.356952 145.297728 
Q 414.917839 143.962714 417.557522 141.118013 
z
" style="fill:#0000ff;"/>
   </g>
   <g id="patch_27">
    <path clip-path="url(#p3ce5bba080)" d="M 407.946946 83.346249 
L 395.919339 83.346249 
L 394.020243 97.1 
L 386.283186 97.1 
L 397.332471 21.6 
L 406.508237 21.6 
L 417.557522 97.1 
L 409.826859 97.1 
z
M 397.837618 69.333605 
L 406.009485 69.333605 
L 401.929945 39.301886 
z
" style="fill:#008000;"/>
   </g>
   <g id="patch_28">
    <path clip-path="url(#p3ce5bba080)" d="M 450.477876 156.133795 
Q 447.323808 156.816897 443.931433 157.160008 
Q 440.539057 157.5 436.922393 157.5 
Q 428.749852 157.5 423.976696 155.466288 
Q 419.20354 153.432576 419.20354 149.954679 
Q 419.20354 146.436232 424.060805 144.418116 
Q 428.925078 142.4 437.384989 142.4 
Q 440.644193 142.4 443.630044 142.674489 
Q 446.622904 142.945858 449.272321 143.482359 
L 449.272321 146.492378 
Q 446.538796 145.803037 443.833306 145.463045 
Q 441.127817 145.119934 438.408309 145.119934 
Q 433.375819 145.119934 430.649302 146.373848 
Q 427.922786 147.624644 427.922786 149.954679 
Q 427.922786 152.26288 430.551176 153.523032 
Q 433.179565 154.780066 438.015803 154.780066 
Q 439.333503 154.780066 440.461958 154.708325 
Q 441.590413 154.633464 442.487571 154.477505 
L 442.487571 151.651518 
L 437.335926 151.651518 
L 437.335926 149.134332 
L 450.477876 149.134332 
z
" style="fill:#ffa600;"/>
   </g>
   <g id="patch_29">
    <path clip-path="url(#p3ce5bba080)" d="M 450.477876 140.235282 
Q 447.861832 141.308283 445.033037 141.851023 
Q 442.204242 142.4 439.123298 142.4 
Q 429.935625 142.4 424.569582 138.332576 
Q 419.20354 134.265152 419.20354 127.309358 
Q 419.20354 120.32861 424.569582 116.267424 
Q 429.935625 112.2 439.123298 112.2 
Q 442.204242 112.2 445.033037 112.748977 
Q 447.861832 113.291717 450.477876 114.364718 
L 450.477876 120.384755 
Q 447.838193 118.962404 445.277306 118.301136 
Q 442.71642 117.639868 439.887625 117.639868 
Q 434.813129 117.639868 431.905538 120.216319 
Q 429.005826 122.786532 429.005826 127.309358 
Q 429.005826 131.813468 431.905538 134.389919 
Q 434.813129 136.960132 439.887625 136.960132 
Q 442.71642 136.960132 445.277306 136.298864 
Q 447.838193 135.631357 450.477876 134.209006 
z
" style="fill:#0000ff;"/>
   </g>
   <g id="patch_30">
    <path clip-path="url(#p3ce5bba080)" d="M 440.8673 95.695499 
L 428.839693 95.695499 
L 426.940597 112.2 
L 419.20354 112.2 
L 430.252825 21.6 
L 439.428591 21.6 
L 450.477876 112.2 
L 442.747213 112.2 
z
M 430.757972 78.880326 
L 438.929839 78.880326 
L 434.850299 42.842263 
z
" style="fill:#008000;"/>
   </g>
   <g id="patch_31">
    <path clip-path="url(#p3ce5bba080)" d="M 473.787654 149.24775 
L 461.760047 149.24775 
L 459.860951 157.5 
L 452.123894 157.5 
L 463.173179 112.2 
L 472.348945 112.2 
L 483.39823 157.5 
L 475.667567 157.5 
z
M 463.678326 140.840163 
L 471.850193 140.840163 
L 467.770653 122.821132 
z
" style="fill:#008000;"/>
   </g>
   <g id="patch_32">
    <path clip-path="url(#p3ce5bba080)" d="M 483.39823 108.101384 
Q 480.244162 110.150692 476.851787 111.180025 
Q 473.459411 112.2 469.842747 112.2 
Q 461.670206 112.2 456.89705 106.098864 
Q 452.123894 99.997728 452.123894 89.564036 
Q 452.123894 79.008697 456.981158 72.954348 
Q 461.845432 66.9 470.305343 66.9 
Q 473.564547 66.9 476.550398 67.723466 
Q 479.543258 68.537575 482.192675 70.147077 
L 482.192675 79.177133 
Q 479.45915 77.10911 476.75366 76.089134 
Q 474.048171 75.059802 471.328663 75.059802 
Q 466.296173 75.059802 463.569656 78.821545 
Q 460.84314 82.573931 460.84314 89.564036 
Q 460.84314 96.488639 463.471529 100.269097 
Q 466.099919 104.040198 470.936157 104.040198 
Q 472.253857 104.040198 473.382312 103.824974 
Q 474.510767 103.600392 475.407925 103.132514 
L 475.407925 94.654555 
L 470.25628 94.654555 
L 470.25628 87.102995 
L 483.39823 87.102995 
z
" style="fill:#ffa600;"/>
   </g>
   <g id="patch_33">
    <path clip-path="url(#p3ce5bba080)" d="M 452.123894 21.6 
L 483.39823 21.6 
L 483.39823 30.434762 
L 472.146742 30.434762 
L 472.146742 66.9 
L 463.397201 66.9 
L 463.397201 30.434762 
L 452.123894 30.434762 
z
" style="fill:#ff0000;"/>
   </g>
   <g id="patch_34">
    <path clip-path="url(#p3ce5bba080)" d="M 516.318584 156.417641 
Q 513.70254 156.954142 510.873745 157.225511 
Q 508.04495 157.5 504.964006 157.5 
Q 495.776333 157.5 490.41029 155.466288 
Q 485.044248 153.432576 485.044248 149.954679 
Q 485.044248 146.464305 490.41029 144.433712 
Q 495.776333 142.4 504.964006 142.4 
Q 508.04495 142.4 510.873745 142.674489 
Q 513.70254 142.945858 516.318584 143.482359 
L 516.318584 146.492378 
Q 513.678901 145.781202 511.118014 145.450568 
Q 508.557127 145.119934 505.728333 145.119934 
Q 500.653837 145.119934 497.746246 146.408159 
Q 494.846534 147.693266 494.846534 149.954679 
Q 494.846534 152.206734 497.746246 153.49496 
Q 500.653837 154.780066 505.728333 154.780066 
Q 508.557127 154.780066 511.118014 154.449432 
Q 513.678901 154.115679 516.318584 153.404503 
z
" style="fill:#0000ff;"/>
   </g>
   <g id="patch_35">
    <path clip-path="url(#p3ce5bba080)" d="M 506.708008 134.14775 
L 494.680401 134.14775 
L 492.781305 142.4 
L 485.044248 142.4 
L 496.093533 97.1 
L 505.269299 97.1 
L 516.318584 142.4 
L 508.587921 142.4 
z
M 496.59868 125.740163 
L 504.770547 125.740163 
L 500.691007 107.721132 
z
" style="fill:#008000;"/>
   </g>
   <g id="patch_36">
    <path clip-path="url(#p3ce5bba080)" d="M 485.044248 21.6 
L 516.318584 21.6 
L 516.318584 36.324604 
L 505.067096 36.324604 
L 505.067096 97.1 
L 496.317555 97.1 
L 496.317555 36.324604 
L 485.044248 36.324604 
z
" style="fill:#ff0000;"/>
   </g>
   <g id="patch_37">
    <path clip-path="url(#p3ce5bba080)" d="M 517.964602 97.1 
L 549.238938 97.1 
L 549.238938 108.879683 
L 537.98745 108.879683 
L 537.98745 157.5 
L 529.237909 157.5 
L 529.237909 108.879683 
L 517.964602 108.879683 
z
" style="fill:#ff0000;"/>
   </g>
   <g id="patch_38">
    <path clip-path="url(#p3ce5bba080)" d="M 539.628362 83.346249 
L 527.600755 83.346249 
L 525.701659 97.1 
L 517.964602 97.1 
L 529.013887 21.6 
L 538.189653 21.6 
L 549.238938 97.1 
L 541.508275 97.1 
z
M 529.519034 69.333605 
L 537.690901 69.333605 
L 533.611361 39.301886 
z
" style="fill:#008000;"/>
   </g>
   <g id="patch_39">
    <path clip-path="url(#p3ce5bba080)" d="M 572.548716 151.9985 
L 560.521109 151.9985 
L 558.622013 157.5 
L 550.884956 157.5 
L 561.934241 127.3 
L 571.110007 127.3 
L 582.159292 157.5 
L 574.428629 157.5 
z
M 562.439387 146.393442 
L 570.611255 146.393442 
L 566.531715 134.380754 
z
" style="fill:#008000;"/>
   </g>
   <g id="patch_40">
    <path clip-path="url(#p3ce5bba080)" d="M 582.159292 123.201384 
Q 579.005224 125.250692 575.612849 126.280025 
Q 572.220473 127.3 568.603809 127.3 
Q 560.431268 127.3 555.658112 121.198864 
Q 550.884956 115.097728 550.884956 104.664036 
Q 550.884956 94.108697 555.74222 88.054348 
Q 560.606494 82 569.066405 82 
Q 572.325609 82 575.31146 82.823466 
Q 578.30432 83.637575 580.953737 85.247077 
L 580.953737 94.277133 
Q 578.220212 92.20911 575.514722 91.189134 
Q 572.809233 90.159802 570.089725 90.159802 
Q 565.057235 90.159802 562.330718 93.921545 
Q 559.604201 97.673931 559.604201 104.664036 
Q 559.604201 111.588639 562.232591 115.369097 
Q 564.860981 119.140198 569.697219 119.140198 
Q 571.014919 119.140198 572.143374 118.924974 
Q 573.271829 118.700392 574.168986 118.232514 
L 574.168986 109.754555 
L 569.017342 109.754555 
L 569.017342 102.202995 
L 582.159292 102.202995 
z
" style="fill:#ffa600;"/>
   </g>
   <g id="patch_41">
    <path clip-path="url(#p3ce5bba080)" d="M 550.884956 21.6 
L 582.159292 21.6 
L 582.159292 33.379683 
L 570.907804 33.379683 
L 570.907804 82 
L 562.158263 82 
L 562.158263 33.379683 
L 550.884956 33.379683 
z
" style="fill:#ff0000;"/>
   </g>
   <g id="patch_42">
    <path clip-path="url(#p3ce5bba080)" d="M 615.079646 156.133795 
Q 611.925578 156.816897 608.533203 157.160008 
Q 605.140827 157.5 601.524163 157.5 
Q 593.351622 157.5 588.578466 155.466288 
Q 583.80531 153.432576 583.80531 149.954679 
Q 583.80531 146.436232 588.662574 144.418116 
Q 593.526848 142.4 601.986759 142.4 
Q 605.245963 142.4 608.231814 142.674489 
Q 611.224674 142.945858 613.874091 143.482359 
L 613.874091 146.492378 
Q 611.140566 145.803037 608.435076 145.463045 
Q 605.729587 145.119934 603.010079 145.119934 
Q 597.977589 145.119934 595.251072 146.373848 
Q 592.524555 147.624644 592.524555 149.954679 
Q 592.524555 152.26288 595.152945 153.523032 
Q 597.781335 154.780066 602.617573 154.780066 
Q 603.935272 154.780066 605.063728 154.708325 
Q 606.192183 154.633464 607.08934 154.477505 
L 607.08934 151.651518 
L 601.937696 151.651518 
L 601.937696 149.134332 
L 615.079646 149.134332 
z
" style="fill:#ffa600;"/>
   </g>
   <g id="patch_43">
    <path clip-path="url(#p3ce5bba080)" d="M 605.46907 134.14775 
L 593.441463 134.14775 
L 591.542367 142.4 
L 583.80531 142.4 
L 594.854595 97.1 
L 604.030361 97.1 
L 615.079646 142.4 
L 607.348983 142.4 
z
M 595.359741 125.740163 
L 603.531609 125.740163 
L 599.452069 107.721132 
z
" style="fill:#008000;"/>
   </g>
   <g id="patch_44">
    <path clip-path="url(#p3ce5bba080)" d="M 583.80531 21.6 
L 615.079646 21.6 
L 615.079646 36.324604 
L 603.828158 36.324604 
L 603.828158 97.1 
L 595.078617 97.1 
L 595.078617 36.324604 
L 583.80531 36.324604 
z
" style="fill:#ff0000;"/>
   </g>
   <g id="patch_45">
    <path clip-path="url(#p3ce5bba080)" d="M 616.725664 127.3 
L 648 127.3 
L 648 133.189841 
L 636.748512 133.189841 
L 636.748512 157.5 
L 627.998971 157.5 
L 627.998971 133.189841 
L 616.725664 133.189841 
z
" style="fill:#ff0000;"/>
   </g>
   <g id="patch_46">
    <path clip-path="url(#p3ce5bba080)" d="M 638.389424 119.04775 
L 626.361817 119.04775 
L 624.462721 127.3 
L 616.725664 127.3 
L 627.774949 82 
L 636.950715 82 
L 648 127.3 
L 640.269337 127.3 
z
M 628.280095 110.640163 
L 636.451963 110.640163 
L 632.372423 92.621132 
z
" style="fill:#008000;"/>
   </g>
   <g id="patch_47">
    <path clip-path="url(#p3ce5bba080)" d="M 648 76.535179 
Q 644.845932 79.267589 641.453557 80.640033 
Q 638.061181 82 634.444517 82 
Q 626.271976 82 621.49882 73.865152 
Q 616.725664 65.730304 616.725664 51.818715 
Q 616.725664 37.744929 621.582928 29.672464 
Q 626.447202 21.6 634.907113 21.6 
Q 638.166317 21.6 641.152168 22.697955 
Q 644.145028 23.783433 646.794445 25.929436 
L 646.794445 37.96951 
Q 644.06092 35.212146 641.35543 33.852179 
Q 638.649941 32.479736 635.930433 32.479736 
Q 630.897943 32.479736 628.171426 37.495394 
Q 625.444909 42.498575 625.444909 51.818715 
Q 625.444909 61.051518 628.073299 66.09213 
Q 630.701689 71.120264 635.537927 71.120264 
Q 636.855626 71.120264 637.984082 70.833299 
Q 639.112537 70.533857 640.009694 69.910019 
L 640.009694 58.606073 
L 634.85805 58.606073 
L 634.85805 48.537327 
L 648 48.537327 
z
" style="fill:#ffa600;"/>
   </g>
  </g>
 </g>
 <defs>
  <clipPath id="p3ce5bba080">
   <rect height="135.9" width="558" x="90" y="21.6"/>
  </clipPath>
 </defs>
</svg>
