<?xml version="1.0" encoding="utf-8" standalone="no"?>
<!DOCTYPE svg PUBLIC "-//W3C//DTD SVG 1.1//EN"
  "http://www.w3.org/Graphics/SVG/1.1/DTD/svg11.dtd">
<!-- Created with matplotlib (https://matplotlib.org/) -->
<svg height="180pt" version="1.1" viewBox="0 0 720 180" width="720pt" xmlns="http://www.w3.org/2000/svg" xmlns:xlink="http://www.w3.org/1999/xlink">
 <metadata>
  <rdf:RDF xmlns:cc="http://creativecommons.org/ns#" xmlns:dc="http://purl.org/dc/elements/1.1/" xmlns:rdf="http://www.w3.org/1999/02/22-rdf-syntax-ns#">
   <cc:Work>
    <dc:type rdf:resource="http://purl.org/dc/dcmitype/StillImage"/>
    <dc:date>2021-08-04T23:33:35.540103</dc:date>
    <dc:format>image/svg+xml</dc:format>
    <dc:creator>
     <cc:Agent>
      <dc:title>Matplotlib v3.3.2, https://matplotlib.org/</dc:title>
     </cc:Agent>
    </dc:creator>
   </cc:Work>
  </rdf:RDF>
 </metadata>
 <defs>
  <style type="text/css">*{stroke-linecap:butt;stroke-linejoin:round;}</style>
 </defs>
 <g id="figure_1">
  <g id="patch_1">
   <path d="M 0 180 
L 720 180 
L 720 0 
L 0 0 
z
" style="fill:none;"/>
  </g>
  <g id="axes_1">
   <g id="line2d_1">
    <path clip-path="url(#p0534ecbdd2)" d="M 90 157.5 
L 648 157.5 
" style="fill:none;stroke:#000000;stroke-linecap:square;stroke-width:0.5;"/>
   </g>
   <g id="patch_2">
    <path clip-path="url(#p0534ecbdd2)" d="M 90 142.4 
L 121.274336 142.4 
L 121.274336 145.344921 
L 110.022848 145.344921 
L 110.022848 157.5 
L 101.273307 157.5 
L 101.273307 145.344921 
L 90 145.344921 
z
" style="fill:#ff0000;"/>
   </g>
   <g id="patch_3">
    <path clip-path="url(#p0534ecbdd2)" d="M 111.66376 136.8985 
L 99.636153 136.8985 
L 97.737057 142.4 
L 90 142.4 
L 101.049285 112.2 
L 110.225051 112.2 
L 121.274336 142.4 
L 113.543673 142.4 
z
M 101.554432 131.293442 
L 109.726299 131.293442 
L 105.64676 119.280754 
z
" style="fill:#008000;"/>
   </g>
   <g id="patch_4">
    <path clip-path="url(#p0534ecbdd2)" d="M 121.274336 108.952923 
Q 118.658292 110.562425 115.829497 111.376534 
Q 113.000702 112.2 109.919759 112.2 
Q 100.732085 112.2 95.366043 106.098864 
Q 90 99.997728 90 89.564036 
Q 90 79.092915 95.366043 73.001136 
Q 100.732085 66.9 109.919759 66.9 
Q 113.000702 66.9 115.829497 67.723466 
Q 118.658292 68.537575 121.274336 70.147077 
L 121.274336 79.177133 
Q 118.634653 77.043607 116.073766 76.051704 
Q 113.51288 75.059802 110.684085 75.059802 
Q 105.609589 75.059802 102.701998 78.924478 
Q 99.802286 82.779798 99.802286 89.564036 
Q 99.802286 96.320202 102.701998 100.184879 
Q 105.609589 104.040198 110.684085 104.040198 
Q 113.51288 104.040198 116.073766 103.048296 
Q 118.634653 102.047036 121.274336 99.91351 
z
" style="fill:#0000ff;"/>
   </g>
   <g id="patch_5">
    <path clip-path="url(#p0534ecbdd2)" d="M 121.274336 62.801384 
Q 118.120268 64.850692 114.727893 65.880025 
Q 111.335518 66.9 107.718853 66.9 
Q 99.546312 66.9 94.773156 60.798864 
Q 90 54.697728 90 44.264036 
Q 90 33.708697 94.857265 27.654348 
Q 99.721538 21.6 108.18145 21.6 
Q 111.440653 21.6 114.426504 22.423466 
Q 117.419364 23.237575 120.068781 24.847077 
L 120.068781 33.877133 
Q 117.335256 31.80911 114.629766 30.789134 
Q 111.924277 29.759802 109.204769 29.759802 
Q 104.172279 29.759802 101.445762 33.521545 
Q 98.719246 37.273931 98.719246 44.264036 
Q 98.719246 51.188639 101.347636 54.969097 
Q 103.976026 58.740198 108.812263 58.740198 
Q 110.129963 58.740198 111.258418 58.524974 
Q 112.386874 58.300392 113.284031 57.832514 
L 113.284031 49.354555 
L 108.132386 49.354555 
L 108.132386 41.802995 
L 121.274336 41.802995 
z
" style="fill:#ffa600;"/>
   </g>
   <g id="patch_6">
    <path clip-path="url(#p0534ecbdd2)" d="M 154.19469 156.417641 
Q 151.578646 156.954142 148.749851 157.225511 
Q 145.921056 157.5 142.840113 157.5 
Q 133.652439 157.5 128.286397 155.466288 
Q 122.920354 153.432576 122.920354 149.954679 
Q 122.920354 146.464305 128.286397 144.433712 
Q 133.652439 142.4 142.840113 142.4 
Q 145.921056 142.4 148.749851 142.674489 
Q 151.578646 142.945858 154.19469 143.482359 
L 154.19469 146.492378 
Q 151.555007 145.781202 148.99412 145.450568 
Q 146.433234 145.119934 143.604439 145.119934 
Q 138.529943 145.119934 135.622352 146.408159 
Q 132.72264 147.693266 132.72264 149.954679 
Q 132.72264 152.206734 135.622352 153.49496 
Q 138.529943 154.780066 143.604439 154.780066 
Q 146.433234 154.780066 148.99412 154.449432 
Q 151.555007 154.115679 154.19469 153.404503 
z
" style="fill:#0000ff;"/>
   </g>
   <g id="patch_7">
    <path clip-path="url(#p0534ecbdd2)" d="M 122.920354 127.3 
L 154.19469 127.3 
L 154.19469 130.244921 
L 142.943202 130.244921 
L 142.943202 142.4 
L 134.193661 142.4 
L 134.193661 130.244921 
L 122.920354 130.244921 
z
" style="fill:#ff0000;"/>
   </g>
   <g id="patch_8">
    <path clip-path="url(#p0534ecbdd2)" d="M 154.19469 123.201384 
Q 151.040622 125.250692 147.648247 126.280025 
Q 144.255872 127.3 140.639207 127.3 
Q 132.466666 127.3 127.69351 121.198864 
Q 122.920354 115.097728 122.920354 104.664036 
Q 122.920354 94.108697 127.777619 88.054348 
Q 132.641892 82 141.101804 82 
Q 144.361007 82 147.346858 82.823466 
Q 150.339718 83.637575 152.989135 85.247077 
L 152.989135 94.277133 
Q 150.25561 92.20911 147.55012 91.189134 
Q 144.844631 90.159802 142.125123 90.159802 
Q 137.092633 90.159802 134.366116 93.921545 
Q 131.6396 97.673931 131.6396 104.664036 
Q 131.6396 111.588639 134.26799 115.369097 
Q 136.89638 119.140198 141.732617 119.140198 
Q 143.050317 119.140198 144.178772 118.924974 
Q 145.307228 118.700392 146.204385 118.232514 
L 146.204385 109.754555 
L 141.05274 109.754555 
L 141.05274 102.202995 
L 154.19469 102.202995 
z
" style="fill:#ffa600;"/>
   </g>
   <g id="patch_9">
    <path clip-path="url(#p0534ecbdd2)" d="M 144.584114 70.997 
L 132.556507 70.997 
L 130.657411 82 
L 122.920354 82 
L 133.969639 21.6 
L 143.145405 21.6 
L 154.19469 82 
L 146.464027 82 
z
M 134.474786 59.786884 
L 142.646653 59.786884 
L 138.567114 35.761509 
z
" style="fill:#008000;"/>
   </g>
   <g id="patch_10">
    <path clip-path="url(#p0534ecbdd2)" d="M 155.840708 127.3 
L 187.115044 127.3 
L 187.115044 133.189841 
L 175.863556 133.189841 
L 175.863556 157.5 
L 167.114015 157.5 
L 167.114015 133.189841 
L 155.840708 133.189841 
z
" style="fill:#ff0000;"/>
   </g>
   <g id="patch_11">
    <path clip-path="url(#p0534ecbdd2)" d="M 187.115044 119.723487 
Q 184.499 123.478992 181.670205 125.378579 
Q 178.84141 127.3 175.760467 127.3 
Q 166.572793 127.3 161.206751 113.064016 
Q 155.840708 98.828031 155.840708 74.482751 
Q 155.840708 50.050134 161.206751 35.835984 
Q 166.572793 21.6 175.760467 21.6 
Q 178.84141 21.6 181.670205 23.521421 
Q 184.499 25.421008 187.115044 29.176513 
L 187.115044 50.246643 
Q 184.475361 45.268416 181.914474 42.953976 
Q 179.353588 40.639537 176.524793 40.639537 
Q 171.450297 40.639537 168.542706 49.657116 
Q 165.642994 58.652861 165.642994 74.482751 
Q 165.642994 90.247139 168.542706 99.264718 
Q 171.450297 108.260463 176.524793 108.260463 
Q 179.353588 108.260463 181.914474 105.946024 
Q 184.475361 103.60975 187.115044 98.631522 
z
" style="fill:#0000ff;"/>
   </g>
   <g id="patch_12">
    <path clip-path="url(#p0534ecbdd2)" d="M 188.761062 142.4 
L 220.035398 142.4 
L 220.035398 145.344921 
L 208.78391 145.344921 
L 208.78391 157.5 
L 200.034369 157.5 
L 200.034369 145.344921 
L 188.761062 145.344921 
z
" style="fill:#ff0000;"/>
   </g>
   <g id="patch_13">
    <path clip-path="url(#p0534ecbdd2)" d="M 210.424822 136.8985 
L 198.397215 136.8985 
L 196.498119 142.4 
L 188.761062 142.4 
L 199.810347 112.2 
L 208.986113 112.2 
L 220.035398 142.4 
L 212.304735 142.4 
z
M 200.315494 131.293442 
L 208.487361 131.293442 
L 204.407821 119.280754 
z
" style="fill:#008000;"/>
   </g>
   <g id="patch_14">
    <path clip-path="url(#p0534ecbdd2)" d="M 220.035398 104.002768 
Q 216.88133 108.101384 213.488955 110.16005 
Q 210.09658 112.2 206.479915 112.2 
Q 198.307374 112.2 193.534218 99.997728 
Q 188.761062 87.795455 188.761062 66.928073 
Q 188.761062 45.817393 193.618327 33.708697 
Q 198.4826 21.6 206.942512 21.6 
Q 210.201715 21.6 213.187566 23.246932 
Q 216.180426 24.87515 218.829843 28.094154 
L 218.829843 46.154266 
Q 216.096318 42.018219 213.390828 39.978269 
Q 210.685339 37.919603 207.965831 37.919603 
Q 202.933341 37.919603 200.206824 45.44309 
Q 197.480308 52.947862 197.480308 66.928073 
Q 197.480308 80.777277 200.108698 88.338195 
Q 202.737088 95.880397 207.573325 95.880397 
Q 208.891025 95.880397 210.01948 95.449948 
Q 211.147936 95.000785 212.045093 94.065028 
L 212.045093 77.10911 
L 206.893448 77.10911 
L 206.893448 62.00599 
L 220.035398 62.00599 
z
" style="fill:#ffa600;"/>
   </g>
   <g id="patch_15">
    <path clip-path="url(#p0534ecbdd2)" d="M 243.345176 151.9985 
L 231.317569 151.9985 
L 229.418473 157.5 
L 221.681416 157.5 
L 232.730701 127.3 
L 241.906467 127.3 
L 252.955752 157.5 
L 245.225089 157.5 
z
M 233.235848 146.393442 
L 241.407715 146.393442 
L 237.328175 134.380754 
z
" style="fill:#008000;"/>
   </g>
   <g id="patch_16">
    <path clip-path="url(#p0534ecbdd2)" d="M 252.955752 117.736563 
Q 249.801684 122.518281 246.409309 124.920058 
Q 243.016934 127.3 239.400269 127.3 
Q 231.227728 127.3 226.454572 113.064016 
Q 221.681416 98.828031 221.681416 74.482751 
Q 221.681416 49.853625 226.538681 35.726813 
Q 231.402954 21.6 239.862866 21.6 
Q 243.122069 21.6 246.10792 23.521421 
Q 249.10078 25.421008 251.750197 29.176513 
L 251.750197 50.246643 
Q 249.016672 45.421256 246.311182 43.041314 
Q 243.605693 40.639537 240.886185 40.639537 
Q 235.853695 40.639537 233.127178 49.416939 
Q 230.400662 58.172506 230.400662 74.482751 
Q 230.400662 90.640157 233.029052 99.461227 
Q 235.657442 108.260463 240.493679 108.260463 
Q 241.811379 108.260463 242.939834 107.758273 
Q 244.06829 107.234249 244.965447 106.142533 
L 244.965447 86.360628 
L 239.813802 86.360628 
L 239.813802 68.740322 
L 252.955752 68.740322 
z
" style="fill:#ffa600;"/>
   </g>
   <g id="patch_17">
    <path clip-path="url(#p0534ecbdd2)" d="M 276.26553 151.9985 
L 264.237923 151.9985 
L 262.338827 157.5 
L 254.60177 157.5 
L 265.651055 127.3 
L 274.826821 127.3 
L 285.876106 157.5 
L 278.145443 157.5 
z
M 266.156202 146.393442 
L 274.328069 146.393442 
L 270.248529 134.380754 
z
" style="fill:#008000;"/>
   </g>
   <g id="patch_18">
    <path clip-path="url(#p0534ecbdd2)" d="M 285.876106 125.135282 
Q 283.260062 126.208283 280.431267 126.751023 
Q 277.602472 127.3 274.521529 127.3 
Q 265.333855 127.3 259.967812 123.232576 
Q 254.60177 119.165152 254.60177 112.209358 
Q 254.60177 105.22861 259.967812 101.167424 
Q 265.333855 97.1 274.521529 97.1 
Q 277.602472 97.1 280.431267 97.648977 
Q 283.260062 98.191717 285.876106 99.264718 
L 285.876106 105.284755 
Q 283.236423 103.862404 280.675536 103.201136 
Q 278.11465 102.539868 275.285855 102.539868 
Q 270.211359 102.539868 267.303768 105.116319 
Q 264.404056 107.686532 264.404056 112.209358 
Q 264.404056 116.713468 267.303768 119.289919 
Q 270.211359 121.860132 275.285855 121.860132 
Q 278.11465 121.860132 280.675536 121.198864 
Q 283.236423 120.531357 285.876106 119.109006 
z
" style="fill:#0000ff;"/>
   </g>
   <g id="patch_19">
    <path clip-path="url(#p0534ecbdd2)" d="M 285.876106 90.268973 
Q 282.722038 93.684487 279.329663 95.400041 
Q 275.937288 97.1 272.320623 97.1 
Q 264.148082 97.1 259.374926 86.93144 
Q 254.60177 76.76288 254.60177 59.373394 
Q 254.60177 41.781161 259.459035 31.69058 
Q 264.323308 21.6 272.78322 21.6 
Q 276.042423 21.6 279.028274 22.972444 
Q 282.021134 24.329291 284.670551 27.011795 
L 284.670551 42.061888 
Q 281.937026 38.615183 279.231536 36.915224 
Q 276.526047 35.199669 273.806539 35.199669 
Q 268.774049 35.199669 266.047532 41.469242 
Q 263.321016 47.723218 263.321016 59.373394 
Q 263.321016 70.914398 265.949406 77.215162 
Q 268.577796 83.500331 273.414033 83.500331 
Q 274.731733 83.500331 275.860188 83.141624 
Q 276.988644 82.767321 277.885801 81.987523 
L 277.885801 67.857591 
L 272.734156 67.857591 
L 272.734156 55.271659 
L 285.876106 55.271659 
z
" style="fill:#ffa600;"/>
   </g>
   <g id="patch_20">
    <path clip-path="url(#p0534ecbdd2)" d="M 309.185884 151.9985 
L 297.158277 151.9985 
L 295.259181 157.5 
L 287.522124 157.5 
L 298.571409 127.3 
L 307.747175 127.3 
L 318.79646 157.5 
L 311.065797 157.5 
z
M 299.076556 146.393442 
L 307.248423 146.393442 
L 303.168883 134.380754 
z
" style="fill:#008000;"/>
   </g>
   <g id="patch_21">
    <path clip-path="url(#p0534ecbdd2)" d="M 318.79646 125.135282 
Q 316.180416 126.208283 313.351621 126.751023 
Q 310.522826 127.3 307.441883 127.3 
Q 298.254209 127.3 292.888166 123.232576 
Q 287.522124 119.165152 287.522124 112.209358 
Q 287.522124 105.22861 292.888166 101.167424 
Q 298.254209 97.1 307.441883 97.1 
Q 310.522826 97.1 313.351621 97.648977 
Q 316.180416 98.191717 318.79646 99.264718 
L 318.79646 105.284755 
Q 316.156777 103.862404 313.59589 103.201136 
Q 311.035004 102.539868 308.206209 102.539868 
Q 303.131713 102.539868 300.224122 105.116319 
Q 297.32441 107.686532 297.32441 112.209358 
Q 297.32441 116.713468 300.224122 119.289919 
Q 303.131713 121.860132 308.206209 121.860132 
Q 311.035004 121.860132 313.59589 121.198864 
Q 316.156777 120.531357 318.79646 119.109006 
z
" style="fill:#0000ff;"/>
   </g>
   <g id="patch_22">
    <path clip-path="url(#p0534ecbdd2)" d="M 318.79646 90.268973 
Q 315.642392 93.684487 312.250017 95.400041 
Q 308.857642 97.1 305.240977 97.1 
Q 297.068436 97.1 292.29528 86.93144 
Q 287.522124 76.76288 287.522124 59.373394 
Q 287.522124 41.781161 292.379389 31.69058 
Q 297.243662 21.6 305.703574 21.6 
Q 308.962777 21.6 311.948628 22.972444 
Q 314.941488 24.329291 317.590905 27.011795 
L 317.590905 42.061888 
Q 314.85738 38.615183 312.15189 36.915224 
Q 309.446401 35.199669 306.726893 35.199669 
Q 301.694403 35.199669 298.967886 41.469242 
Q 296.24137 47.723218 296.24137 59.373394 
Q 296.24137 70.914398 298.86976 77.215162 
Q 301.49815 83.500331 306.334387 83.500331 
Q 307.652087 83.500331 308.780542 83.141624 
Q 309.908998 82.767321 310.806155 81.987523 
L 310.806155 67.857591 
L 305.65451 67.857591 
L 305.65451 55.271659 
L 318.79646 55.271659 
z
" style="fill:#ffa600;"/>
   </g>
   <g id="patch_23">
    <path clip-path="url(#p0534ecbdd2)" d="M 351.716814 154.767589 
Q 348.562746 156.133795 345.170371 156.820017 
Q 341.777996 157.5 338.161331 157.5 
Q 329.98879 157.5 325.215634 153.432576 
Q 320.442478 149.365152 320.442478 142.409358 
Q 320.442478 135.372464 325.299743 131.336232 
Q 330.164016 127.3 338.623928 127.3 
Q 341.883131 127.3 344.868982 127.848977 
Q 347.861842 128.391717 350.511259 129.464718 
L 350.511259 135.484755 
Q 347.777734 134.106073 345.072244 133.42609 
Q 342.366755 132.739868 339.647247 132.739868 
Q 334.614757 132.739868 331.88824 135.247697 
Q 329.161724 137.749287 329.161724 142.409358 
Q 329.161724 147.025759 331.790114 149.546065 
Q 334.418504 152.060132 339.254741 152.060132 
Q 340.572441 152.060132 341.700896 151.916649 
Q 342.829351 151.766928 343.726509 151.455009 
L 343.726509 145.803037 
L 338.574864 145.803037 
L 338.574864 140.768663 
L 351.716814 140.768663 
z
" style="fill:#ffa600;"/>
   </g>
   <g id="patch_24">
    <path clip-path="url(#p0534ecbdd2)" d="M 351.716814 119.723487 
Q 349.10077 123.478992 346.271975 125.378579 
Q 343.44318 127.3 340.362237 127.3 
Q 331.174563 127.3 325.80852 113.064016 
Q 320.442478 98.828031 320.442478 74.482751 
Q 320.442478 50.050134 325.80852 35.835984 
Q 331.174563 21.6 340.362237 21.6 
Q 343.44318 21.6 346.271975 23.521421 
Q 349.10077 25.421008 351.716814 29.176513 
L 351.716814 50.246643 
Q 349.077131 45.268416 346.516244 42.953976 
Q 343.955358 40.639537 341.126563 40.639537 
Q 336.052067 40.639537 333.144476 49.657116 
Q 330.244764 58.652861 330.244764 74.482751 
Q 330.244764 90.247139 333.144476 99.264718 
Q 336.052067 108.260463 341.126563 108.260463 
Q 343.955358 108.260463 346.516244 105.946024 
Q 349.077131 103.60975 351.716814 98.631522 
z
" style="fill:#0000ff;"/>
   </g>
   <g id="patch_25">
    <path clip-path="url(#p0534ecbdd2)" d="M 375.026592 151.9985 
L 362.998985 151.9985 
L 361.099889 157.5 
L 353.362832 157.5 
L 364.412117 127.3 
L 373.587883 127.3 
L 384.637168 157.5 
L 376.906505 157.5 
z
M 364.917264 146.393442 
L 373.089131 146.393442 
L 369.009591 134.380754 
z
" style="fill:#008000;"/>
   </g>
   <g id="patch_26">
    <path clip-path="url(#p0534ecbdd2)" d="M 384.637168 123.201384 
Q 381.4831 125.250692 378.090725 126.280025 
Q 374.698349 127.3 371.081685 127.3 
Q 362.909144 127.3 358.135988 121.198864 
Q 353.362832 115.097728 353.362832 104.664036 
Q 353.362832 94.108697 358.220097 88.054348 
Q 363.08437 82 371.544282 82 
Q 374.803485 82 377.789336 82.823466 
Q 380.782196 83.637575 383.431613 85.247077 
L 383.431613 94.277133 
Q 380.698088 92.20911 377.992598 91.189134 
Q 375.287109 90.159802 372.567601 90.159802 
Q 367.535111 90.159802 364.808594 93.921545 
Q 362.082078 97.673931 362.082078 104.664036 
Q 362.082078 111.588639 364.710468 115.369097 
Q 367.338858 119.140198 372.175095 119.140198 
Q 373.492795 119.140198 374.62125 118.924974 
Q 375.749705 118.700392 376.646863 118.232514 
L 376.646863 109.754555 
L 371.495218 109.754555 
L 371.495218 102.202995 
L 384.637168 102.202995 
z
" style="fill:#ffa600;"/>
   </g>
   <g id="patch_27">
    <path clip-path="url(#p0534ecbdd2)" d="M 384.637168 77.670564 
Q 382.021124 79.816567 379.192329 80.902045 
Q 376.363534 82 373.282591 82 
Q 364.094917 82 358.728874 73.865152 
Q 353.362832 65.730304 353.362832 51.818715 
Q 353.362832 37.85722 358.728874 29.734848 
Q 364.094917 21.6 373.282591 21.6 
Q 376.363534 21.6 379.192329 22.697955 
Q 382.021124 23.783433 384.637168 25.929436 
L 384.637168 37.96951 
Q 381.997485 35.124809 379.436598 33.802272 
Q 376.875712 32.479736 374.046917 32.479736 
Q 368.972421 32.479736 366.06483 37.632638 
Q 363.165118 42.773063 363.165118 51.818715 
Q 363.165118 60.826937 366.06483 65.979839 
Q 368.972421 71.120264 374.046917 71.120264 
Q 376.875712 71.120264 379.436598 69.797728 
Q 381.997485 68.462714 384.637168 65.618013 
z
" style="fill:#0000ff;"/>
   </g>
   <g id="patch_28">
    <path clip-path="url(#p0534ecbdd2)" d="M 417.557522 153.170564 
Q 414.941478 155.316567 412.112683 156.402045 
Q 409.283888 157.5 406.202945 157.5 
Q 397.015271 157.5 391.649228 149.365152 
Q 386.283186 141.230304 386.283186 127.318715 
Q 386.283186 113.35722 391.649228 105.234848 
Q 397.015271 97.1 406.202945 97.1 
Q 409.283888 97.1 412.112683 98.197955 
Q 414.941478 99.283433 417.557522 101.429436 
L 417.557522 113.46951 
Q 414.917839 110.624809 412.356952 109.302272 
Q 409.796066 107.979736 406.967271 107.979736 
Q 401.892775 107.979736 398.985184 113.132638 
Q 396.085472 118.273063 396.085472 127.318715 
Q 396.085472 136.326937 398.985184 141.479839 
Q 401.892775 146.620264 406.967271 146.620264 
Q 409.796066 146.620264 412.356952 145.297728 
Q 414.917839 143.962714 417.557522 141.118013 
z
" style="fill:#0000ff;"/>
   </g>
   <g id="patch_29">
    <path clip-path="url(#p0534ecbdd2)" d="M 417.557522 90.268973 
Q 414.403454 93.684487 411.011079 95.400041 
Q 407.618703 97.1 404.002039 97.1 
Q 395.829498 97.1 391.056342 86.93144 
Q 386.283186 76.76288 386.283186 59.373394 
Q 386.283186 41.781161 391.140451 31.69058 
Q 396.004724 21.6 404.464635 21.6 
Q 407.723839 21.6 410.70969 22.972444 
Q 413.70255 24.329291 416.351967 27.011795 
L 416.351967 42.061888 
Q 413.618442 38.615183 410.912952 36.915224 
Q 408.207463 35.199669 405.487955 35.199669 
Q 400.455465 35.199669 397.728948 41.469242 
Q 395.002432 47.723218 395.002432 59.373394 
Q 395.002432 70.914398 397.630822 77.215162 
Q 400.259212 83.500331 405.095449 83.500331 
Q 406.413149 83.500331 407.541604 83.141624 
Q 408.670059 82.767321 409.567217 81.987523 
L 409.567217 67.857591 
L 404.415572 67.857591 
L 404.415572 55.271659 
L 417.557522 55.271659 
z
" style="fill:#ffa600;"/>
   </g>
   <g id="patch_30">
    <path clip-path="url(#p0534ecbdd2)" d="M 450.477876 155.335282 
Q 447.861832 156.408283 445.033037 156.951023 
Q 442.204242 157.5 439.123298 157.5 
Q 429.935625 157.5 424.569582 153.432576 
Q 419.20354 149.365152 419.20354 142.409358 
Q 419.20354 135.42861 424.569582 131.367424 
Q 429.935625 127.3 439.123298 127.3 
Q 442.204242 127.3 445.033037 127.848977 
Q 447.861832 128.391717 450.477876 129.464718 
L 450.477876 135.484755 
Q 447.838193 134.062404 445.277306 133.401136 
Q 442.71642 132.739868 439.887625 132.739868 
Q 434.813129 132.739868 431.905538 135.316319 
Q 429.005826 137.886532 429.005826 142.409358 
Q 429.005826 146.913468 431.905538 149.489919 
Q 434.813129 152.060132 439.887625 152.060132 
Q 442.71642 152.060132 445.277306 151.398864 
Q 447.838193 150.731357 450.477876 149.309006 
z
" style="fill:#0000ff;"/>
   </g>
   <g id="patch_31">
    <path clip-path="url(#p0534ecbdd2)" d="M 450.477876 123.201384 
Q 447.323808 125.250692 443.931433 126.280025 
Q 440.539057 127.3 436.922393 127.3 
Q 428.749852 127.3 423.976696 121.198864 
Q 419.20354 115.097728 419.20354 104.664036 
Q 419.20354 94.108697 424.060805 88.054348 
Q 428.925078 82 437.384989 82 
Q 440.644193 82 443.630044 82.823466 
Q 446.622904 83.637575 449.272321 85.247077 
L 449.272321 94.277133 
Q 446.538796 92.20911 443.833306 91.189134 
Q 441.127817 90.159802 438.408309 90.159802 
Q 433.375819 90.159802 430.649302 93.921545 
Q 427.922786 97.673931 427.922786 104.664036 
Q 427.922786 111.588639 430.551176 115.369097 
Q 433.179565 119.140198 438.015803 119.140198 
Q 439.333503 119.140198 440.461958 118.924974 
Q 441.590413 118.700392 442.487571 118.232514 
L 442.487571 109.754555 
L 437.335926 109.754555 
L 437.335926 102.202995 
L 450.477876 102.202995 
z
" style="fill:#ffa600;"/>
   </g>
   <g id="patch_32">
    <path clip-path="url(#p0534ecbdd2)" d="M 419.20354 21.6 
L 450.477876 21.6 
L 450.477876 33.379683 
L 439.226388 33.379683 
L 439.226388 82 
L 430.476847 82 
L 430.476847 33.379683 
L 419.20354 33.379683 
z
" style="fill:#ff0000;"/>
   </g>
   <g id="patch_33">
    <path clip-path="url(#p0534ecbdd2)" d="M 452.123894 142.4 
L 483.39823 142.4 
L 483.39823 145.344921 
L 472.146742 145.344921 
L 472.146742 157.5 
L 463.397201 157.5 
L 463.397201 145.344921 
L 452.123894 145.344921 
z
" style="fill:#ff0000;"/>
   </g>
   <g id="patch_34">
    <path clip-path="url(#p0534ecbdd2)" d="M 483.39823 131.470357 
Q 480.244162 136.935179 476.851787 139.680066 
Q 473.459411 142.4 469.842747 142.4 
Q 461.670206 142.4 456.89705 126.130304 
Q 452.123894 109.860607 452.123894 82.03743 
Q 452.123894 53.889857 456.981158 37.744929 
Q 461.845432 21.6 470.305343 21.6 
Q 473.564547 21.6 476.550398 23.79591 
Q 479.543258 25.966866 482.192675 30.258872 
L 482.192675 54.339021 
Q 479.45915 48.824293 476.75366 46.104359 
Q 474.048171 43.359471 471.328663 43.359471 
Q 466.296173 43.359471 463.569656 53.390787 
Q 460.84314 63.397149 460.84314 82.03743 
Q 460.84314 100.503037 463.471529 110.584259 
Q 466.099919 120.640529 470.936157 120.640529 
Q 472.253857 120.640529 473.382312 120.066598 
Q 474.510767 119.467713 475.407925 118.220037 
L 475.407925 95.612146 
L 470.25628 95.612146 
L 470.25628 75.474654 
L 483.39823 75.474654 
z
" style="fill:#ffa600;"/>
   </g>
   <g id="patch_35">
    <path clip-path="url(#p0534ecbdd2)" d="M 516.318584 155.335282 
Q 513.70254 156.408283 510.873745 156.951023 
Q 508.04495 157.5 504.964006 157.5 
Q 495.776333 157.5 490.41029 153.432576 
Q 485.044248 149.365152 485.044248 142.409358 
Q 485.044248 135.42861 490.41029 131.367424 
Q 495.776333 127.3 504.964006 127.3 
Q 508.04495 127.3 510.873745 127.848977 
Q 513.70254 128.391717 516.318584 129.464718 
L 516.318584 135.484755 
Q 513.678901 134.062404 511.118014 133.401136 
Q 508.557127 132.739868 505.728333 132.739868 
Q 500.653837 132.739868 497.746246 135.316319 
Q 494.846534 137.886532 494.846534 142.409358 
Q 494.846534 146.913468 497.746246 149.489919 
Q 500.653837 152.060132 505.728333 152.060132 
Q 508.557127 152.060132 511.118014 151.398864 
Q 513.678901 150.731357 516.318584 149.309006 
z
" style="fill:#0000ff;"/>
   </g>
   <g id="patch_36">
    <path clip-path="url(#p0534ecbdd2)" d="M 516.318584 117.736563 
Q 513.164516 122.518281 509.772141 124.920058 
Q 506.379765 127.3 502.763101 127.3 
Q 494.59056 127.3 489.817404 113.064016 
Q 485.044248 98.828031 485.044248 74.482751 
Q 485.044248 49.853625 489.901512 35.726813 
Q 494.765786 21.6 503.225697 21.6 
Q 506.484901 21.6 509.470752 23.521421 
Q 512.463612 25.421008 515.113029 29.176513 
L 515.113029 50.246643 
Q 512.379504 45.421256 509.674014 43.041314 
Q 506.968525 40.639537 504.249017 40.639537 
Q 499.216527 40.639537 496.49001 49.416939 
Q 493.763493 58.172506 493.763493 74.482751 
Q 493.763493 90.640157 496.391883 99.461227 
Q 499.020273 108.260463 503.856511 108.260463 
Q 505.174211 108.260463 506.302666 107.758273 
Q 507.431121 107.234249 508.328279 106.142533 
L 508.328279 86.360628 
L 503.176634 86.360628 
L 503.176634 68.740322 
L 516.318584 68.740322 
z
" style="fill:#ffa600;"/>
   </g>
   <g id="patch_37">
    <path clip-path="url(#p0534ecbdd2)" d="M 539.628362 149.24775 
L 527.600755 149.24775 
L 525.701659 157.5 
L 517.964602 157.5 
L 529.013887 112.2 
L 538.189653 112.2 
L 549.238938 157.5 
L 541.508275 157.5 
z
M 529.519034 140.840163 
L 537.690901 140.840163 
L 533.611361 122.821132 
z
" style="fill:#008000;"/>
   </g>
   <g id="patch_38">
    <path clip-path="url(#p0534ecbdd2)" d="M 549.238938 105.705846 
Q 546.622894 108.92485 543.794099 110.553068 
Q 540.965304 112.2 537.88436 112.2 
Q 528.696687 112.2 523.330644 99.997728 
Q 517.964602 87.795455 517.964602 66.928073 
Q 517.964602 45.985829 523.330644 33.802272 
Q 528.696687 21.6 537.88436 21.6 
Q 540.965304 21.6 543.794099 23.246932 
Q 546.622894 24.87515 549.238938 28.094154 
L 549.238938 46.154266 
Q 546.599255 41.887213 544.038368 39.903408 
Q 541.477481 37.919603 538.648687 37.919603 
Q 533.574191 37.919603 530.6666 45.648957 
Q 527.766888 53.359595 527.766888 66.928073 
Q 527.766888 80.440405 530.6666 88.169758 
Q 533.574191 95.880397 538.648687 95.880397 
Q 541.477481 95.880397 544.038368 93.896592 
Q 546.599255 91.894071 549.238938 87.627019 
z
" style="fill:#0000ff;"/>
   </g>
   <g id="patch_39">
    <path clip-path="url(#p0534ecbdd2)" d="M 572.548716 154.74925 
L 560.521109 154.74925 
L 558.622013 157.5 
L 550.884956 157.5 
L 561.934241 142.4 
L 571.110007 142.4 
L 582.159292 157.5 
L 574.428629 157.5 
z
M 562.439387 151.946721 
L 570.611255 151.946721 
L 566.531715 145.940377 
z
" style="fill:#008000;"/>
   </g>
   <g id="patch_40">
    <path clip-path="url(#p0534ecbdd2)" d="M 582.159292 141.317641 
Q 579.543248 141.854142 576.714453 142.125511 
Q 573.885658 142.4 570.804714 142.4 
Q 561.617041 142.4 556.250998 140.366288 
Q 550.884956 138.332576 550.884956 134.854679 
Q 550.884956 131.364305 556.250998 129.333712 
Q 561.617041 127.3 570.804714 127.3 
Q 573.885658 127.3 576.714453 127.574489 
Q 579.543248 127.845858 582.159292 128.382359 
L 582.159292 131.392378 
Q 579.519609 130.681202 576.958722 130.350568 
Q 574.397835 130.019934 571.569041 130.019934 
Q 566.494545 130.019934 563.586954 131.308159 
Q 560.687242 132.593266 560.687242 134.854679 
Q 560.687242 137.106734 563.586954 138.39496 
Q 566.494545 139.680066 571.569041 139.680066 
Q 574.397835 139.680066 576.958722 139.349432 
Q 579.519609 139.015679 582.159292 138.304503 
z
" style="fill:#0000ff;"/>
   </g>
   <g id="patch_41">
    <path clip-path="url(#p0534ecbdd2)" d="M 582.159292 124.567589 
Q 579.005224 125.933795 575.612849 126.620017 
Q 572.220473 127.3 568.603809 127.3 
Q 560.431268 127.3 555.658112 123.232576 
Q 550.884956 119.165152 550.884956 112.209358 
Q 550.884956 105.172464 555.74222 101.136232 
Q 560.606494 97.1 569.066405 97.1 
Q 572.325609 97.1 575.31146 97.648977 
Q 578.30432 98.191717 580.953737 99.264718 
L 580.953737 105.284755 
Q 578.220212 103.906073 575.514722 103.22609 
Q 572.809233 102.539868 570.089725 102.539868 
Q 565.057235 102.539868 562.330718 105.047697 
Q 559.604201 107.549287 559.604201 112.209358 
Q 559.604201 116.825759 562.232591 119.346065 
Q 564.860981 121.860132 569.697219 121.860132 
Q 571.014919 121.860132 572.143374 121.716649 
Q 573.271829 121.566928 574.168986 121.255009 
L 574.168986 115.603037 
L 569.017342 115.603037 
L 569.017342 110.568663 
L 582.159292 110.568663 
z
" style="fill:#ffa600;"/>
   </g>
   <g id="patch_42">
    <path clip-path="url(#p0534ecbdd2)" d="M 550.884956 21.6 
L 582.159292 21.6 
L 582.159292 36.324604 
L 570.907804 36.324604 
L 570.907804 97.1 
L 562.158263 97.1 
L 562.158263 36.324604 
L 550.884956 36.324604 
z
" style="fill:#ff0000;"/>
   </g>
   <g id="patch_43">
    <path clip-path="url(#p0534ecbdd2)" d="M 615.079646 156.417641 
Q 612.463602 156.954142 609.634807 157.225511 
Q 606.806012 157.5 603.725068 157.5 
Q 594.537395 157.5 589.171352 155.466288 
Q 583.80531 153.432576 583.80531 149.954679 
Q 583.80531 146.464305 589.171352 144.433712 
Q 594.537395 142.4 603.725068 142.4 
Q 606.806012 142.4 609.634807 142.674489 
Q 612.463602 142.945858 615.079646 143.482359 
L 615.079646 146.492378 
Q 612.439963 145.781202 609.879076 145.450568 
Q 607.318189 145.119934 604.489395 145.119934 
Q 599.414899 145.119934 596.507308 146.408159 
Q 593.607596 147.693266 593.607596 149.954679 
Q 593.607596 152.206734 596.507308 153.49496 
Q 599.414899 154.780066 604.489395 154.780066 
Q 607.318189 154.780066 609.879076 154.449432 
Q 612.439963 154.115679 615.079646 153.404503 
z
" style="fill:#0000ff;"/>
   </g>
   <g id="patch_44">
    <path clip-path="url(#p0534ecbdd2)" d="M 583.80531 21.6 
L 615.079646 21.6 
L 615.079646 45.159366 
L 603.828158 45.159366 
L 603.828158 142.4 
L 595.078617 142.4 
L 595.078617 45.159366 
L 583.80531 45.159366 
z
" style="fill:#ff0000;"/>
   </g>
   <g id="patch_45">
    <path clip-path="url(#p0534ecbdd2)" d="M 638.389424 154.74925 
L 626.361817 154.74925 
L 624.462721 157.5 
L 616.725664 157.5 
L 627.774949 142.4 
L 636.950715 142.4 
L 648 157.5 
L 640.269337 157.5 
z
M 628.280095 151.946721 
L 636.451963 151.946721 
L 632.372423 145.940377 
z
" style="fill:#008000;"/>
   </g>
   <g id="patch_46">
    <path clip-path="url(#p0534ecbdd2)" d="M 648 140.235282 
Q 645.383956 141.308283 642.555161 141.851023 
Q 639.726366 142.4 636.645422 142.4 
Q 627.457749 142.4 622.091706 138.332576 
Q 616.725664 134.265152 616.725664 127.309358 
Q 616.725664 120.32861 622.091706 116.267424 
Q 627.457749 112.2 636.645422 112.2 
Q 639.726366 112.2 642.555161 112.748977 
Q 645.383956 113.291717 648 114.364718 
L 648 120.384755 
Q 645.360317 118.962404 642.79943 118.301136 
Q 640.238543 117.639868 637.409749 117.639868 
Q 632.335253 117.639868 629.427662 120.216319 
Q 626.52795 122.786532 626.52795 127.309358 
Q 626.52795 131.813468 629.427662 134.389919 
Q 632.335253 136.960132 637.409749 136.960132 
Q 640.238543 136.960132 642.79943 136.298864 
Q 645.360317 135.631357 648 134.209006 
z
" style="fill:#0000ff;"/>
   </g>
   <g id="patch_47">
    <path clip-path="url(#p0534ecbdd2)" d="M 616.725664 82 
L 648 82 
L 648 87.889841 
L 636.748512 87.889841 
L 636.748512 112.2 
L 627.998971 112.2 
L 627.998971 87.889841 
L 616.725664 87.889841 
z
" style="fill:#ff0000;"/>
   </g>
   <g id="patch_48">
    <path clip-path="url(#p0534ecbdd2)" d="M 648 76.535179 
Q 644.845932 79.267589 641.453557 80.640033 
Q 638.061181 82 634.444517 82 
Q 626.271976 82 621.49882 73.865152 
Q 616.725664 65.730304 616.725664 51.818715 
Q 616.725664 37.744929 621.582928 29.672464 
Q 626.447202 21.6 634.907113 21.6 
Q 638.166317 21.6 641.152168 22.697955 
Q 644.145028 23.783433 646.794445 25.929436 
L 646.794445 37.96951 
Q 644.06092 35.212146 641.35543 33.852179 
Q 638.649941 32.479736 635.930433 32.479736 
Q 630.897943 32.479736 628.171426 37.495394 
Q 625.444909 42.498575 625.444909 51.818715 
Q 625.444909 61.051518 628.073299 66.09213 
Q 630.701689 71.120264 635.537927 71.120264 
Q 636.855626 71.120264 637.984082 70.833299 
Q 639.112537 70.533857 640.009694 69.910019 
L 640.009694 58.606073 
L 634.85805 58.606073 
L 634.85805 48.537327 
L 648 48.537327 
z
" style="fill:#ffa600;"/>
   </g>
  </g>
 </g>
 <defs>
  <clipPath id="p0534ecbdd2">
   <rect height="135.9" width="558" x="90" y="21.6"/>
  </clipPath>
 </defs>
</svg>
