<?xml version="1.0" encoding="utf-8" standalone="no"?>
<!DOCTYPE svg PUBLIC "-//W3C//DTD SVG 1.1//EN"
  "http://www.w3.org/Graphics/SVG/1.1/DTD/svg11.dtd">
<!-- Created with matplotlib (https://matplotlib.org/) -->
<svg height="180pt" version="1.1" viewBox="0 0 720 180" width="720pt" xmlns="http://www.w3.org/2000/svg" xmlns:xlink="http://www.w3.org/1999/xlink">
 <metadata>
  <rdf:RDF xmlns:cc="http://creativecommons.org/ns#" xmlns:dc="http://purl.org/dc/elements/1.1/" xmlns:rdf="http://www.w3.org/1999/02/22-rdf-syntax-ns#">
   <cc:Work>
    <dc:type rdf:resource="http://purl.org/dc/dcmitype/StillImage"/>
    <dc:date>2021-08-04T23:32:53.336313</dc:date>
    <dc:format>image/svg+xml</dc:format>
    <dc:creator>
     <cc:Agent>
      <dc:title>Matplotlib v3.3.2, https://matplotlib.org/</dc:title>
     </cc:Agent>
    </dc:creator>
   </cc:Work>
  </rdf:RDF>
 </metadata>
 <defs>
  <style type="text/css">*{stroke-linecap:butt;stroke-linejoin:round;}</style>
 </defs>
 <g id="figure_1">
  <g id="patch_1">
   <path d="M 0 180 
L 720 180 
L 720 0 
L 0 0 
z
" style="fill:none;"/>
  </g>
  <g id="axes_1">
   <g id="line2d_1">
    <path clip-path="url(#p35e4017eae)" d="M 90 157.5 
L 648 157.5 
" style="fill:none;stroke:#000000;stroke-linecap:square;stroke-width:0.5;"/>
   </g>
   <g id="patch_2">
    <path clip-path="url(#p35e4017eae)" d="M 111.66376 154.74925 
L 99.636153 154.74925 
L 97.737057 157.5 
L 90 157.5 
L 101.049285 142.4 
L 110.225051 142.4 
L 121.274336 157.5 
L 113.543673 157.5 
z
M 101.554432 151.946721 
L 109.726299 151.946721 
L 105.64676 145.940377 
z
" style="fill:#008000;"/>
   </g>
   <g id="patch_3">
    <path clip-path="url(#p35e4017eae)" d="M 121.274336 139.667589 
Q 118.120268 141.033795 114.727893 141.720017 
Q 111.335518 142.4 107.718853 142.4 
Q 99.546312 142.4 94.773156 138.332576 
Q 90 134.265152 90 127.309358 
Q 90 120.272464 94.857265 116.236232 
Q 99.721538 112.2 108.18145 112.2 
Q 111.440653 112.2 114.426504 112.748977 
Q 117.419364 113.291717 120.068781 114.364718 
L 120.068781 120.384755 
Q 117.335256 119.006073 114.629766 118.32609 
Q 111.924277 117.639868 109.204769 117.639868 
Q 104.172279 117.639868 101.445762 120.147697 
Q 98.719246 122.649287 98.719246 127.309358 
Q 98.719246 131.925759 101.347636 134.446065 
Q 103.976026 136.960132 108.812263 136.960132 
Q 110.129963 136.960132 111.258418 136.816649 
Q 112.386874 136.666928 113.284031 136.355009 
L 113.284031 130.703037 
L 108.132386 130.703037 
L 108.132386 125.668663 
L 121.274336 125.668663 
z
" style="fill:#ffa600;"/>
   </g>
   <g id="patch_4">
    <path clip-path="url(#p35e4017eae)" d="M 90 82 
L 121.274336 82 
L 121.274336 87.889841 
L 110.022848 87.889841 
L 110.022848 112.2 
L 101.273307 112.2 
L 101.273307 87.889841 
L 90 87.889841 
z
" style="fill:#ff0000;"/>
   </g>
   <g id="patch_5">
    <path clip-path="url(#p35e4017eae)" d="M 121.274336 77.670564 
Q 118.658292 79.816567 115.829497 80.902045 
Q 113.000702 82 109.919759 82 
Q 100.732085 82 95.366043 73.865152 
Q 90 65.730304 90 51.818715 
Q 90 37.85722 95.366043 29.734848 
Q 100.732085 21.6 109.919759 21.6 
Q 113.000702 21.6 115.829497 22.697955 
Q 118.658292 23.783433 121.274336 25.929436 
L 121.274336 37.96951 
Q 118.634653 35.124809 116.073766 33.802272 
Q 113.51288 32.479736 110.684085 32.479736 
Q 105.609589 32.479736 102.701998 37.632638 
Q 99.802286 42.773063 99.802286 51.818715 
Q 99.802286 60.826937 102.701998 65.979839 
Q 105.609589 71.120264 110.684085 71.120264 
Q 113.51288 71.120264 116.073766 69.797728 
Q 118.634653 68.462714 121.274336 65.618013 
z
" style="fill:#0000ff;"/>
   </g>
   <g id="patch_6">
    <path clip-path="url(#p35e4017eae)" d="M 154.19469 156.133795 
Q 151.040622 156.816897 147.648247 157.160008 
Q 144.255872 157.5 140.639207 157.5 
Q 132.466666 157.5 127.69351 155.466288 
Q 122.920354 153.432576 122.920354 149.954679 
Q 122.920354 146.436232 127.777619 144.418116 
Q 132.641892 142.4 141.101804 142.4 
Q 144.361007 142.4 147.346858 142.674489 
Q 150.339718 142.945858 152.989135 143.482359 
L 152.989135 146.492378 
Q 150.25561 145.803037 147.55012 145.463045 
Q 144.844631 145.119934 142.125123 145.119934 
Q 137.092633 145.119934 134.366116 146.373848 
Q 131.6396 147.624644 131.6396 149.954679 
Q 131.6396 152.26288 134.26799 153.523032 
Q 136.89638 154.780066 141.732617 154.780066 
Q 143.050317 154.780066 144.178772 154.708325 
Q 145.307228 154.633464 146.204385 154.477505 
L 146.204385 151.651518 
L 141.05274 151.651518 
L 141.05274 149.134332 
L 154.19469 149.134332 
z
" style="fill:#ffa600;"/>
   </g>
   <g id="patch_7">
    <path clip-path="url(#p35e4017eae)" d="M 144.584114 136.8985 
L 132.556507 136.8985 
L 130.657411 142.4 
L 122.920354 142.4 
L 133.969639 112.2 
L 143.145405 112.2 
L 154.19469 142.4 
L 146.464027 142.4 
z
M 134.474786 131.293442 
L 142.646653 131.293442 
L 138.567114 119.280754 
z
" style="fill:#008000;"/>
   </g>
   <g id="patch_8">
    <path clip-path="url(#p35e4017eae)" d="M 154.19469 108.952923 
Q 151.578646 110.562425 148.749851 111.376534 
Q 145.921056 112.2 142.840113 112.2 
Q 133.652439 112.2 128.286397 106.098864 
Q 122.920354 99.997728 122.920354 89.564036 
Q 122.920354 79.092915 128.286397 73.001136 
Q 133.652439 66.9 142.840113 66.9 
Q 145.921056 66.9 148.749851 67.723466 
Q 151.578646 68.537575 154.19469 70.147077 
L 154.19469 79.177133 
Q 151.555007 77.043607 148.99412 76.051704 
Q 146.433234 75.059802 143.604439 75.059802 
Q 138.529943 75.059802 135.622352 78.924478 
Q 132.72264 82.779798 132.72264 89.564036 
Q 132.72264 96.320202 135.622352 100.184879 
Q 138.529943 104.040198 143.604439 104.040198 
Q 146.433234 104.040198 148.99412 103.048296 
Q 151.555007 102.047036 154.19469 99.91351 
z
" style="fill:#0000ff;"/>
   </g>
   <g id="patch_9">
    <path clip-path="url(#p35e4017eae)" d="M 122.920354 21.6 
L 154.19469 21.6 
L 154.19469 30.434762 
L 142.943202 30.434762 
L 142.943202 66.9 
L 134.193661 66.9 
L 134.193661 30.434762 
L 122.920354 30.434762 
z
" style="fill:#ff0000;"/>
   </g>
   <g id="patch_10">
    <path clip-path="url(#p35e4017eae)" d="M 187.115044 156.417641 
Q 184.499 156.954142 181.670205 157.225511 
Q 178.84141 157.5 175.760467 157.5 
Q 166.572793 157.5 161.206751 155.466288 
Q 155.840708 153.432576 155.840708 149.954679 
Q 155.840708 146.464305 161.206751 144.433712 
Q 166.572793 142.4 175.760467 142.4 
Q 178.84141 142.4 181.670205 142.674489 
Q 184.499 142.945858 187.115044 143.482359 
L 187.115044 146.492378 
Q 184.475361 145.781202 181.914474 145.450568 
Q 179.353588 145.119934 176.524793 145.119934 
Q 171.450297 145.119934 168.542706 146.408159 
Q 165.642994 147.693266 165.642994 149.954679 
Q 165.642994 152.206734 168.542706 153.49496 
Q 171.450297 154.780066 176.524793 154.780066 
Q 179.353588 154.780066 181.914474 154.449432 
Q 184.475361 154.115679 187.115044 153.404503 
z
" style="fill:#0000ff;"/>
   </g>
   <g id="patch_11">
    <path clip-path="url(#p35e4017eae)" d="M 155.840708 127.3 
L 187.115044 127.3 
L 187.115044 130.244921 
L 175.863556 130.244921 
L 175.863556 142.4 
L 167.114015 142.4 
L 167.114015 130.244921 
L 155.840708 130.244921 
z
" style="fill:#ff0000;"/>
   </g>
   <g id="patch_12">
    <path clip-path="url(#p35e4017eae)" d="M 177.504468 119.04775 
L 165.476861 119.04775 
L 163.577765 127.3 
L 155.840708 127.3 
L 166.889993 82 
L 176.065759 82 
L 187.115044 127.3 
L 179.384381 127.3 
z
M 167.39514 110.640163 
L 175.567007 110.640163 
L 171.487467 92.621132 
z
" style="fill:#008000;"/>
   </g>
   <g id="patch_13">
    <path clip-path="url(#p35e4017eae)" d="M 187.115044 76.535179 
Q 183.960976 79.267589 180.568601 80.640033 
Q 177.176226 82 173.559561 82 
Q 165.38702 82 160.613864 73.865152 
Q 155.840708 65.730304 155.840708 51.818715 
Q 155.840708 37.744929 160.697973 29.672464 
Q 165.562246 21.6 174.022158 21.6 
Q 177.281361 21.6 180.267212 22.697955 
Q 183.260072 23.783433 185.909489 25.929436 
L 185.909489 37.96951 
Q 183.175964 35.212146 180.470474 33.852179 
Q 177.764985 32.479736 175.045477 32.479736 
Q 170.012987 32.479736 167.28647 37.495394 
Q 164.559954 42.498575 164.559954 51.818715 
Q 164.559954 61.051518 167.188344 66.09213 
Q 169.816734 71.120264 174.652971 71.120264 
Q 175.970671 71.120264 177.099126 70.833299 
Q 178.227582 70.533857 179.124739 69.910019 
L 179.124739 58.606073 
L 173.973094 58.606073 
L 173.973094 48.537327 
L 187.115044 48.537327 
z
" style="fill:#ffa600;"/>
   </g>
   <g id="patch_14">
    <path clip-path="url(#p35e4017eae)" d="M 220.035398 156.133795 
Q 216.88133 156.816897 213.488955 157.160008 
Q 210.09658 157.5 206.479915 157.5 
Q 198.307374 157.5 193.534218 155.466288 
Q 188.761062 153.432576 188.761062 149.954679 
Q 188.761062 146.436232 193.618327 144.418116 
Q 198.4826 142.4 206.942512 142.4 
Q 210.201715 142.4 213.187566 142.674489 
Q 216.180426 142.945858 218.829843 143.482359 
L 218.829843 146.492378 
Q 216.096318 145.803037 213.390828 145.463045 
Q 210.685339 145.119934 207.965831 145.119934 
Q 202.933341 145.119934 200.206824 146.373848 
Q 197.480308 147.624644 197.480308 149.954679 
Q 197.480308 152.26288 200.108698 153.523032 
Q 202.737088 154.780066 207.573325 154.780066 
Q 208.891025 154.780066 210.01948 154.708325 
Q 211.147936 154.633464 212.045093 154.477505 
L 212.045093 151.651518 
L 206.893448 151.651518 
L 206.893448 149.134332 
L 220.035398 149.134332 
z
" style="fill:#ffa600;"/>
   </g>
   <g id="patch_15">
    <path clip-path="url(#p35e4017eae)" d="M 188.761062 127.3 
L 220.035398 127.3 
L 220.035398 130.244921 
L 208.78391 130.244921 
L 208.78391 142.4 
L 200.034369 142.4 
L 200.034369 130.244921 
L 188.761062 130.244921 
z
" style="fill:#ff0000;"/>
   </g>
   <g id="patch_16">
    <path clip-path="url(#p35e4017eae)" d="M 210.424822 121.7985 
L 198.397215 121.7985 
L 196.498119 127.3 
L 188.761062 127.3 
L 199.810347 97.1 
L 208.986113 97.1 
L 220.035398 127.3 
L 212.304735 127.3 
z
M 200.315494 116.193442 
L 208.487361 116.193442 
L 204.407821 104.180754 
z
" style="fill:#008000;"/>
   </g>
   <g id="patch_17">
    <path clip-path="url(#p35e4017eae)" d="M 220.035398 91.688205 
Q 217.419354 94.370709 214.590559 95.727556 
Q 211.761764 97.1 208.680821 97.1 
Q 199.493147 97.1 194.127105 86.93144 
Q 188.761062 76.76288 188.761062 59.373394 
Q 188.761062 41.921524 194.127105 31.76856 
Q 199.493147 21.6 208.680821 21.6 
Q 211.761764 21.6 214.590559 22.972444 
Q 217.419354 24.329291 220.035398 27.011795 
L 220.035398 42.061888 
Q 217.395715 38.506011 214.834828 36.85284 
Q 212.273942 35.199669 209.445147 35.199669 
Q 204.370651 35.199669 201.46306 41.640797 
Q 198.563348 48.066329 198.563348 59.373394 
Q 198.563348 70.633671 201.46306 77.074799 
Q 204.370651 83.500331 209.445147 83.500331 
Q 212.273942 83.500331 214.834828 81.84716 
Q 217.395715 80.178393 220.035398 76.622516 
z
" style="fill:#0000ff;"/>
   </g>
   <g id="patch_18">
    <path clip-path="url(#p35e4017eae)" d="M 243.345176 151.9985 
L 231.317569 151.9985 
L 229.418473 157.5 
L 221.681416 157.5 
L 232.730701 127.3 
L 241.906467 127.3 
L 252.955752 157.5 
L 245.225089 157.5 
z
M 233.235848 146.393442 
L 241.407715 146.393442 
L 237.328175 134.380754 
z
" style="fill:#008000;"/>
   </g>
   <g id="patch_19">
    <path clip-path="url(#p35e4017eae)" d="M 252.955752 124.052923 
Q 250.339708 125.662425 247.510913 126.476534 
Q 244.682118 127.3 241.601175 127.3 
Q 232.413501 127.3 227.047459 121.198864 
Q 221.681416 115.097728 221.681416 104.664036 
Q 221.681416 94.192915 227.047459 88.101136 
Q 232.413501 82 241.601175 82 
Q 244.682118 82 247.510913 82.823466 
Q 250.339708 83.637575 252.955752 85.247077 
L 252.955752 94.277133 
Q 250.316069 92.143607 247.755182 91.151704 
Q 245.194296 90.159802 242.365501 90.159802 
Q 237.291005 90.159802 234.383414 94.024478 
Q 231.483702 97.879798 231.483702 104.664036 
Q 231.483702 111.420202 234.383414 115.284879 
Q 237.291005 119.140198 242.365501 119.140198 
Q 245.194296 119.140198 247.755182 118.148296 
Q 250.316069 117.147036 252.955752 115.01351 
z
" style="fill:#0000ff;"/>
   </g>
   <g id="patch_20">
    <path clip-path="url(#p35e4017eae)" d="M 252.955752 76.535179 
Q 249.801684 79.267589 246.409309 80.640033 
Q 243.016934 82 239.400269 82 
Q 231.227728 82 226.454572 73.865152 
Q 221.681416 65.730304 221.681416 51.818715 
Q 221.681416 37.744929 226.538681 29.672464 
Q 231.402954 21.6 239.862866 21.6 
Q 243.122069 21.6 246.10792 22.697955 
Q 249.10078 23.783433 251.750197 25.929436 
L 251.750197 37.96951 
Q 249.016672 35.212146 246.311182 33.852179 
Q 243.605693 32.479736 240.886185 32.479736 
Q 235.853695 32.479736 233.127178 37.495394 
Q 230.400662 42.498575 230.400662 51.818715 
Q 230.400662 61.051518 233.029052 66.09213 
Q 235.657442 71.120264 240.493679 71.120264 
Q 241.811379 71.120264 242.939834 70.833299 
Q 244.06829 70.533857 244.965447 69.910019 
L 244.965447 58.606073 
L 239.813802 58.606073 
L 239.813802 48.537327 
L 252.955752 48.537327 
z
" style="fill:#ffa600;"/>
   </g>
   <g id="patch_21">
    <path clip-path="url(#p35e4017eae)" d="M 254.60177 142.4 
L 285.876106 142.4 
L 285.876106 145.344921 
L 274.624618 145.344921 
L 274.624618 157.5 
L 265.875077 157.5 
L 265.875077 145.344921 
L 254.60177 145.344921 
z
" style="fill:#ff0000;"/>
   </g>
   <g id="patch_22">
    <path clip-path="url(#p35e4017eae)" d="M 276.26553 131.397 
L 264.237923 131.397 
L 262.338827 142.4 
L 254.60177 142.4 
L 265.651055 82 
L 274.826821 82 
L 285.876106 142.4 
L 278.145443 142.4 
z
M 266.156202 120.186884 
L 274.328069 120.186884 
L 270.248529 96.161509 
z
" style="fill:#008000;"/>
   </g>
   <g id="patch_23">
    <path clip-path="url(#p35e4017eae)" d="M 285.876106 77.670564 
Q 283.260062 79.816567 280.431267 80.902045 
Q 277.602472 82 274.521529 82 
Q 265.333855 82 259.967812 73.865152 
Q 254.60177 65.730304 254.60177 51.818715 
Q 254.60177 37.85722 259.967812 29.734848 
Q 265.333855 21.6 274.521529 21.6 
Q 277.602472 21.6 280.431267 22.697955 
Q 283.260062 23.783433 285.876106 25.929436 
L 285.876106 37.96951 
Q 283.236423 35.124809 280.675536 33.802272 
Q 278.11465 32.479736 275.285855 32.479736 
Q 270.211359 32.479736 267.303768 37.632638 
Q 264.404056 42.773063 264.404056 51.818715 
Q 264.404056 60.826937 267.303768 65.979839 
Q 270.211359 71.120264 275.285855 71.120264 
Q 278.11465 71.120264 280.675536 69.797728 
Q 283.236423 68.462714 285.876106 65.618013 
z
" style="fill:#0000ff;"/>
   </g>
   <g id="patch_24">
    <path clip-path="url(#p35e4017eae)" d="M 318.79646 154.767589 
Q 315.642392 156.133795 312.250017 156.820017 
Q 308.857642 157.5 305.240977 157.5 
Q 297.068436 157.5 292.29528 153.432576 
Q 287.522124 149.365152 287.522124 142.409358 
Q 287.522124 135.372464 292.379389 131.336232 
Q 297.243662 127.3 305.703574 127.3 
Q 308.962777 127.3 311.948628 127.848977 
Q 314.941488 128.391717 317.590905 129.464718 
L 317.590905 135.484755 
Q 314.85738 134.106073 312.15189 133.42609 
Q 309.446401 132.739868 306.726893 132.739868 
Q 301.694403 132.739868 298.967886 135.247697 
Q 296.24137 137.749287 296.24137 142.409358 
Q 296.24137 147.025759 298.86976 149.546065 
Q 301.49815 152.060132 306.334387 152.060132 
Q 307.652087 152.060132 308.780542 151.916649 
Q 309.908998 151.766928 310.806155 151.455009 
L 310.806155 145.803037 
L 305.65451 145.803037 
L 305.65451 140.768663 
L 318.79646 140.768663 
z
" style="fill:#ffa600;"/>
   </g>
   <g id="patch_25">
    <path clip-path="url(#p35e4017eae)" d="M 318.79646 119.723487 
Q 316.180416 123.478992 313.351621 125.378579 
Q 310.522826 127.3 307.441883 127.3 
Q 298.254209 127.3 292.888166 113.064016 
Q 287.522124 98.828031 287.522124 74.482751 
Q 287.522124 50.050134 292.888166 35.835984 
Q 298.254209 21.6 307.441883 21.6 
Q 310.522826 21.6 313.351621 23.521421 
Q 316.180416 25.421008 318.79646 29.176513 
L 318.79646 50.246643 
Q 316.156777 45.268416 313.59589 42.953976 
Q 311.035004 40.639537 308.206209 40.639537 
Q 303.131713 40.639537 300.224122 49.657116 
Q 297.32441 58.652861 297.32441 74.482751 
Q 297.32441 90.247139 300.224122 99.264718 
Q 303.131713 108.260463 308.206209 108.260463 
Q 311.035004 108.260463 313.59589 105.946024 
Q 316.156777 103.60975 318.79646 98.631522 
z
" style="fill:#0000ff;"/>
   </g>
   <g id="patch_26">
    <path clip-path="url(#p35e4017eae)" d="M 351.716814 156.133795 
Q 348.562746 156.816897 345.170371 157.160008 
Q 341.777996 157.5 338.161331 157.5 
Q 329.98879 157.5 325.215634 155.466288 
Q 320.442478 153.432576 320.442478 149.954679 
Q 320.442478 146.436232 325.299743 144.418116 
Q 330.164016 142.4 338.623928 142.4 
Q 341.883131 142.4 344.868982 142.674489 
Q 347.861842 142.945858 350.511259 143.482359 
L 350.511259 146.492378 
Q 347.777734 145.803037 345.072244 145.463045 
Q 342.366755 145.119934 339.647247 145.119934 
Q 334.614757 145.119934 331.88824 146.373848 
Q 329.161724 147.624644 329.161724 149.954679 
Q 329.161724 152.26288 331.790114 153.523032 
Q 334.418504 154.780066 339.254741 154.780066 
Q 340.572441 154.780066 341.700896 154.708325 
Q 342.829351 154.633464 343.726509 154.477505 
L 343.726509 151.651518 
L 338.574864 151.651518 
L 338.574864 149.134332 
L 351.716814 149.134332 
z
" style="fill:#ffa600;"/>
   </g>
   <g id="patch_27">
    <path clip-path="url(#p35e4017eae)" d="M 342.106238 136.8985 
L 330.078631 136.8985 
L 328.179535 142.4 
L 320.442478 142.4 
L 331.491763 112.2 
L 340.667529 112.2 
L 351.716814 142.4 
L 343.986151 142.4 
z
M 331.99691 131.293442 
L 340.168777 131.293442 
L 336.089237 119.280754 
z
" style="fill:#008000;"/>
   </g>
   <g id="patch_28">
    <path clip-path="url(#p35e4017eae)" d="M 351.716814 108.952923 
Q 349.10077 110.562425 346.271975 111.376534 
Q 343.44318 112.2 340.362237 112.2 
Q 331.174563 112.2 325.80852 106.098864 
Q 320.442478 99.997728 320.442478 89.564036 
Q 320.442478 79.092915 325.80852 73.001136 
Q 331.174563 66.9 340.362237 66.9 
Q 343.44318 66.9 346.271975 67.723466 
Q 349.10077 68.537575 351.716814 70.147077 
L 351.716814 79.177133 
Q 349.077131 77.043607 346.516244 76.051704 
Q 343.955358 75.059802 341.126563 75.059802 
Q 336.052067 75.059802 333.144476 78.924478 
Q 330.244764 82.779798 330.244764 89.564036 
Q 330.244764 96.320202 333.144476 100.184879 
Q 336.052067 104.040198 341.126563 104.040198 
Q 343.955358 104.040198 346.516244 103.048296 
Q 349.077131 102.047036 351.716814 99.91351 
z
" style="fill:#0000ff;"/>
   </g>
   <g id="patch_29">
    <path clip-path="url(#p35e4017eae)" d="M 320.442478 21.6 
L 351.716814 21.6 
L 351.716814 30.434762 
L 340.465326 30.434762 
L 340.465326 66.9 
L 331.715785 66.9 
L 331.715785 30.434762 
L 320.442478 30.434762 
z
" style="fill:#ff0000;"/>
   </g>
   <g id="patch_30">
    <path clip-path="url(#p35e4017eae)" d="M 375.026592 154.74925 
L 362.998985 154.74925 
L 361.099889 157.5 
L 353.362832 157.5 
L 364.412117 142.4 
L 373.587883 142.4 
L 384.637168 157.5 
L 376.906505 157.5 
z
M 364.917264 151.946721 
L 373.089131 151.946721 
L 369.009591 145.940377 
z
" style="fill:#008000;"/>
   </g>
   <g id="patch_31">
    <path clip-path="url(#p35e4017eae)" d="M 384.637168 141.033795 
Q 381.4831 141.716897 378.090725 142.060008 
Q 374.698349 142.4 371.081685 142.4 
Q 362.909144 142.4 358.135988 140.366288 
Q 353.362832 138.332576 353.362832 134.854679 
Q 353.362832 131.336232 358.220097 129.318116 
Q 363.08437 127.3 371.544282 127.3 
Q 374.803485 127.3 377.789336 127.574489 
Q 380.782196 127.845858 383.431613 128.382359 
L 383.431613 131.392378 
Q 380.698088 130.703037 377.992598 130.363045 
Q 375.287109 130.019934 372.567601 130.019934 
Q 367.535111 130.019934 364.808594 131.273848 
Q 362.082078 132.524644 362.082078 134.854679 
Q 362.082078 137.16288 364.710468 138.423032 
Q 367.338858 139.680066 372.175095 139.680066 
Q 373.492795 139.680066 374.62125 139.608325 
Q 375.749705 139.533464 376.646863 139.377505 
L 376.646863 136.551518 
L 371.495218 136.551518 
L 371.495218 134.034332 
L 384.637168 134.034332 
z
" style="fill:#ffa600;"/>
   </g>
   <g id="patch_32">
    <path clip-path="url(#p35e4017eae)" d="M 353.362832 82 
L 384.637168 82 
L 384.637168 90.834762 
L 373.38568 90.834762 
L 373.38568 127.3 
L 364.636139 127.3 
L 364.636139 90.834762 
L 353.362832 90.834762 
z
" style="fill:#ff0000;"/>
   </g>
   <g id="patch_33">
    <path clip-path="url(#p35e4017eae)" d="M 384.637168 77.670564 
Q 382.021124 79.816567 379.192329 80.902045 
Q 376.363534 82 373.282591 82 
Q 364.094917 82 358.728874 73.865152 
Q 353.362832 65.730304 353.362832 51.818715 
Q 353.362832 37.85722 358.728874 29.734848 
Q 364.094917 21.6 373.282591 21.6 
Q 376.363534 21.6 379.192329 22.697955 
Q 382.021124 23.783433 384.637168 25.929436 
L 384.637168 37.96951 
Q 381.997485 35.124809 379.436598 33.802272 
Q 376.875712 32.479736 374.046917 32.479736 
Q 368.972421 32.479736 366.06483 37.632638 
Q 363.165118 42.773063 363.165118 51.818715 
Q 363.165118 60.826937 366.06483 65.979839 
Q 368.972421 71.120264 374.046917 71.120264 
Q 376.875712 71.120264 379.436598 69.797728 
Q 381.997485 68.462714 384.637168 65.618013 
z
" style="fill:#0000ff;"/>
   </g>
   <g id="patch_34">
    <path clip-path="url(#p35e4017eae)" d="M 417.557522 153.170564 
Q 414.941478 155.316567 412.112683 156.402045 
Q 409.283888 157.5 406.202945 157.5 
Q 397.015271 157.5 391.649228 149.365152 
Q 386.283186 141.230304 386.283186 127.318715 
Q 386.283186 113.35722 391.649228 105.234848 
Q 397.015271 97.1 406.202945 97.1 
Q 409.283888 97.1 412.112683 98.197955 
Q 414.941478 99.283433 417.557522 101.429436 
L 417.557522 113.46951 
Q 414.917839 110.624809 412.356952 109.302272 
Q 409.796066 107.979736 406.967271 107.979736 
Q 401.892775 107.979736 398.985184 113.132638 
Q 396.085472 118.273063 396.085472 127.318715 
Q 396.085472 136.326937 398.985184 141.479839 
Q 401.892775 146.620264 406.967271 146.620264 
Q 409.796066 146.620264 412.356952 145.297728 
Q 414.917839 143.962714 417.557522 141.118013 
z
" style="fill:#0000ff;"/>
   </g>
   <g id="patch_35">
    <path clip-path="url(#p35e4017eae)" d="M 417.557522 90.268973 
Q 414.403454 93.684487 411.011079 95.400041 
Q 407.618703 97.1 404.002039 97.1 
Q 395.829498 97.1 391.056342 86.93144 
Q 386.283186 76.76288 386.283186 59.373394 
Q 386.283186 41.781161 391.140451 31.69058 
Q 396.004724 21.6 404.464635 21.6 
Q 407.723839 21.6 410.70969 22.972444 
Q 413.70255 24.329291 416.351967 27.011795 
L 416.351967 42.061888 
Q 413.618442 38.615183 410.912952 36.915224 
Q 408.207463 35.199669 405.487955 35.199669 
Q 400.455465 35.199669 397.728948 41.469242 
Q 395.002432 47.723218 395.002432 59.373394 
Q 395.002432 70.914398 397.630822 77.215162 
Q 400.259212 83.500331 405.095449 83.500331 
Q 406.413149 83.500331 407.541604 83.141624 
Q 408.670059 82.767321 409.567217 81.987523 
L 409.567217 67.857591 
L 404.415572 67.857591 
L 404.415572 55.271659 
L 417.557522 55.271659 
z
" style="fill:#ffa600;"/>
   </g>
   <g id="patch_36">
    <path clip-path="url(#p35e4017eae)" d="M 450.477876 154.767589 
Q 447.323808 156.133795 443.931433 156.820017 
Q 440.539057 157.5 436.922393 157.5 
Q 428.749852 157.5 423.976696 153.432576 
Q 419.20354 149.365152 419.20354 142.409358 
Q 419.20354 135.372464 424.060805 131.336232 
Q 428.925078 127.3 437.384989 127.3 
Q 440.644193 127.3 443.630044 127.848977 
Q 446.622904 128.391717 449.272321 129.464718 
L 449.272321 135.484755 
Q 446.538796 134.106073 443.833306 133.42609 
Q 441.127817 132.739868 438.408309 132.739868 
Q 433.375819 132.739868 430.649302 135.247697 
Q 427.922786 137.749287 427.922786 142.409358 
Q 427.922786 147.025759 430.551176 149.546065 
Q 433.179565 152.060132 438.015803 152.060132 
Q 439.333503 152.060132 440.461958 151.916649 
Q 441.590413 151.766928 442.487571 151.455009 
L 442.487571 145.803037 
L 437.335926 145.803037 
L 437.335926 140.768663 
L 450.477876 140.768663 
z
" style="fill:#ffa600;"/>
   </g>
   <g id="patch_37">
    <path clip-path="url(#p35e4017eae)" d="M 450.477876 119.723487 
Q 447.861832 123.478992 445.033037 125.378579 
Q 442.204242 127.3 439.123298 127.3 
Q 429.935625 127.3 424.569582 113.064016 
Q 419.20354 98.828031 419.20354 74.482751 
Q 419.20354 50.050134 424.569582 35.835984 
Q 429.935625 21.6 439.123298 21.6 
Q 442.204242 21.6 445.033037 23.521421 
Q 447.861832 25.421008 450.477876 29.176513 
L 450.477876 50.246643 
Q 447.838193 45.268416 445.277306 42.953976 
Q 442.71642 40.639537 439.887625 40.639537 
Q 434.813129 40.639537 431.905538 49.657116 
Q 429.005826 58.652861 429.005826 74.482751 
Q 429.005826 90.247139 431.905538 99.264718 
Q 434.813129 108.260463 439.887625 108.260463 
Q 442.71642 108.260463 445.277306 105.946024 
Q 447.838193 103.60975 450.477876 98.631522 
z
" style="fill:#0000ff;"/>
   </g>
   <g id="patch_38">
    <path clip-path="url(#p35e4017eae)" d="M 483.39823 147.758769 
Q 480.782186 152.587275 477.953391 155.029601 
Q 475.124596 157.5 472.043652 157.5 
Q 462.855979 157.5 457.489936 139.196592 
Q 452.123894 120.893183 452.123894 89.592109 
Q 452.123894 58.178744 457.489936 39.903408 
Q 462.855979 21.6 472.043652 21.6 
Q 475.124596 21.6 477.953391 24.070399 
Q 480.782186 26.512725 483.39823 31.341231 
L 483.39823 58.431398 
Q 480.758547 52.03082 478.19766 49.055113 
Q 475.636773 46.079405 472.807979 46.079405 
Q 467.733483 46.079405 464.825892 57.673435 
Q 461.92618 69.239393 461.92618 89.592109 
Q 461.92618 109.860607 464.825892 121.454637 
Q 467.733483 133.020595 472.807979 133.020595 
Q 475.636773 133.020595 478.19766 130.044887 
Q 480.758547 127.041107 483.39823 120.640529 
z
" style="fill:#0000ff;"/>
   </g>
   <g id="patch_39">
    <path clip-path="url(#p35e4017eae)" d="M 516.318584 147.758769 
Q 513.70254 152.587275 510.873745 155.029601 
Q 508.04495 157.5 504.964006 157.5 
Q 495.776333 157.5 490.41029 139.196592 
Q 485.044248 120.893183 485.044248 89.592109 
Q 485.044248 58.178744 490.41029 39.903408 
Q 495.776333 21.6 504.964006 21.6 
Q 508.04495 21.6 510.873745 24.070399 
Q 513.70254 26.512725 516.318584 31.341231 
L 516.318584 58.431398 
Q 513.678901 52.03082 511.118014 49.055113 
Q 508.557127 46.079405 505.728333 46.079405 
Q 500.653837 46.079405 497.746246 57.673435 
Q 494.846534 69.239393 494.846534 89.592109 
Q 494.846534 109.860607 497.746246 121.454637 
Q 500.653837 133.020595 505.728333 133.020595 
Q 508.557127 133.020595 511.118014 130.044887 
Q 513.678901 127.041107 516.318584 120.640529 
z
" style="fill:#0000ff;"/>
   </g>
   <g id="patch_40">
    <path clip-path="url(#p35e4017eae)" d="M 549.238938 147.758769 
Q 546.622894 152.587275 543.794099 155.029601 
Q 540.965304 157.5 537.88436 157.5 
Q 528.696687 157.5 523.330644 139.196592 
Q 517.964602 120.893183 517.964602 89.592109 
Q 517.964602 58.178744 523.330644 39.903408 
Q 528.696687 21.6 537.88436 21.6 
Q 540.965304 21.6 543.794099 24.070399 
Q 546.622894 26.512725 549.238938 31.341231 
L 549.238938 58.431398 
Q 546.599255 52.03082 544.038368 49.055113 
Q 541.477481 46.079405 538.648687 46.079405 
Q 533.574191 46.079405 530.6666 57.673435 
Q 527.766888 69.239393 527.766888 89.592109 
Q 527.766888 109.860607 530.6666 121.454637 
Q 533.574191 133.020595 538.648687 133.020595 
Q 541.477481 133.020595 544.038368 130.044887 
Q 546.599255 127.041107 549.238938 120.640529 
z
" style="fill:#0000ff;"/>
   </g>
   <g id="patch_41">
    <path clip-path="url(#p35e4017eae)" d="M 550.884956 142.4 
L 582.159292 142.4 
L 582.159292 145.344921 
L 570.907804 145.344921 
L 570.907804 157.5 
L 562.158263 157.5 
L 562.158263 145.344921 
L 550.884956 145.344921 
z
" style="fill:#ff0000;"/>
   </g>
   <g id="patch_42">
    <path clip-path="url(#p35e4017eae)" d="M 582.159292 133.741128 
Q 579.543248 138.033134 576.714453 140.20409 
Q 573.885658 142.4 570.804714 142.4 
Q 561.617041 142.4 556.250998 126.130304 
Q 550.884956 109.860607 550.884956 82.03743 
Q 550.884956 54.114439 556.250998 37.869696 
Q 561.617041 21.6 570.804714 21.6 
Q 573.885658 21.6 576.714453 23.79591 
Q 579.543248 25.966866 582.159292 30.258872 
L 582.159292 54.339021 
Q 579.519609 48.649618 576.958722 46.004545 
Q 574.397835 43.359471 571.569041 43.359471 
Q 566.494545 43.359471 563.586954 53.665276 
Q 560.687242 63.946127 560.687242 82.03743 
Q 560.687242 100.053873 563.586954 110.359678 
Q 566.494545 120.640529 571.569041 120.640529 
Q 574.397835 120.640529 576.958722 117.995455 
Q 579.519609 115.325429 582.159292 109.636026 
z
" style="fill:#0000ff;"/>
   </g>
   <g id="patch_43">
    <path clip-path="url(#p35e4017eae)" d="M 615.079646 156.133795 
Q 611.925578 156.816897 608.533203 157.160008 
Q 605.140827 157.5 601.524163 157.5 
Q 593.351622 157.5 588.578466 155.466288 
Q 583.80531 153.432576 583.80531 149.954679 
Q 583.80531 146.436232 588.662574 144.418116 
Q 593.526848 142.4 601.986759 142.4 
Q 605.245963 142.4 608.231814 142.674489 
Q 611.224674 142.945858 613.874091 143.482359 
L 613.874091 146.492378 
Q 611.140566 145.803037 608.435076 145.463045 
Q 605.729587 145.119934 603.010079 145.119934 
Q 597.977589 145.119934 595.251072 146.373848 
Q 592.524555 147.624644 592.524555 149.954679 
Q 592.524555 152.26288 595.152945 153.523032 
Q 597.781335 154.780066 602.617573 154.780066 
Q 603.935272 154.780066 605.063728 154.708325 
Q 606.192183 154.633464 607.08934 154.477505 
L 607.08934 151.651518 
L 601.937696 151.651518 
L 601.937696 149.134332 
L 615.079646 149.134332 
z
" style="fill:#ffa600;"/>
   </g>
   <g id="patch_44">
    <path clip-path="url(#p35e4017eae)" d="M 605.46907 134.14775 
L 593.441463 134.14775 
L 591.542367 142.4 
L 583.80531 142.4 
L 594.854595 97.1 
L 604.030361 97.1 
L 615.079646 142.4 
L 607.348983 142.4 
z
M 595.359741 125.740163 
L 603.531609 125.740163 
L 599.452069 107.721132 
z
" style="fill:#008000;"/>
   </g>
   <g id="patch_45">
    <path clip-path="url(#p35e4017eae)" d="M 615.079646 91.688205 
Q 612.463602 94.370709 609.634807 95.727556 
Q 606.806012 97.1 603.725068 97.1 
Q 594.537395 97.1 589.171352 86.93144 
Q 583.80531 76.76288 583.80531 59.373394 
Q 583.80531 41.921524 589.171352 31.76856 
Q 594.537395 21.6 603.725068 21.6 
Q 606.806012 21.6 609.634807 22.972444 
Q 612.463602 24.329291 615.079646 27.011795 
L 615.079646 42.061888 
Q 612.439963 38.506011 609.879076 36.85284 
Q 607.318189 35.199669 604.489395 35.199669 
Q 599.414899 35.199669 596.507308 41.640797 
Q 593.607596 48.066329 593.607596 59.373394 
Q 593.607596 70.633671 596.507308 77.074799 
Q 599.414899 83.500331 604.489395 83.500331 
Q 607.318189 83.500331 609.879076 81.84716 
Q 612.439963 80.178393 615.079646 76.622516 
z
" style="fill:#0000ff;"/>
   </g>
   <g id="patch_46">
    <path clip-path="url(#p35e4017eae)" d="M 638.389424 154.74925 
L 626.361817 154.74925 
L 624.462721 157.5 
L 616.725664 157.5 
L 627.774949 142.4 
L 636.950715 142.4 
L 648 157.5 
L 640.269337 157.5 
z
M 628.280095 151.946721 
L 636.451963 151.946721 
L 632.372423 145.940377 
z
" style="fill:#008000;"/>
   </g>
   <g id="patch_47">
    <path clip-path="url(#p35e4017eae)" d="M 648 139.667589 
Q 644.845932 141.033795 641.453557 141.720017 
Q 638.061181 142.4 634.444517 142.4 
Q 626.271976 142.4 621.49882 138.332576 
Q 616.725664 134.265152 616.725664 127.309358 
Q 616.725664 120.272464 621.582928 116.236232 
Q 626.447202 112.2 634.907113 112.2 
Q 638.166317 112.2 641.152168 112.748977 
Q 644.145028 113.291717 646.794445 114.364718 
L 646.794445 120.384755 
Q 644.06092 119.006073 641.35543 118.32609 
Q 638.649941 117.639868 635.930433 117.639868 
Q 630.897943 117.639868 628.171426 120.147697 
Q 625.444909 122.649287 625.444909 127.309358 
Q 625.444909 131.925759 628.073299 134.446065 
Q 630.701689 136.960132 635.537927 136.960132 
Q 636.855626 136.960132 637.984082 136.816649 
Q 639.112537 136.666928 640.009694 136.355009 
L 640.009694 130.703037 
L 634.85805 130.703037 
L 634.85805 125.668663 
L 648 125.668663 
z
" style="fill:#ffa600;"/>
   </g>
   <g id="patch_48">
    <path clip-path="url(#p35e4017eae)" d="M 616.725664 21.6 
L 648 21.6 
L 648 39.269524 
L 636.748512 39.269524 
L 636.748512 112.2 
L 627.998971 112.2 
L 627.998971 39.269524 
L 616.725664 39.269524 
z
" style="fill:#ff0000;"/>
   </g>
  </g>
 </g>
 <defs>
  <clipPath id="p35e4017eae">
   <rect height="135.9" width="558" x="90" y="21.6"/>
  </clipPath>
 </defs>
</svg>
