<?xml version="1.0" encoding="utf-8" standalone="no"?>
<!DOCTYPE svg PUBLIC "-//W3C//DTD SVG 1.1//EN"
  "http://www.w3.org/Graphics/SVG/1.1/DTD/svg11.dtd">
<!-- Created with matplotlib (https://matplotlib.org/) -->
<svg height="180pt" version="1.1" viewBox="0 0 720 180" width="720pt" xmlns="http://www.w3.org/2000/svg" xmlns:xlink="http://www.w3.org/1999/xlink">
 <metadata>
  <rdf:RDF xmlns:cc="http://creativecommons.org/ns#" xmlns:dc="http://purl.org/dc/elements/1.1/" xmlns:rdf="http://www.w3.org/1999/02/22-rdf-syntax-ns#">
   <cc:Work>
    <dc:type rdf:resource="http://purl.org/dc/dcmitype/StillImage"/>
    <dc:date>2021-08-04T23:33:53.854778</dc:date>
    <dc:format>image/svg+xml</dc:format>
    <dc:creator>
     <cc:Agent>
      <dc:title>Matplotlib v3.3.2, https://matplotlib.org/</dc:title>
     </cc:Agent>
    </dc:creator>
   </cc:Work>
  </rdf:RDF>
 </metadata>
 <defs>
  <style type="text/css">*{stroke-linecap:butt;stroke-linejoin:round;}</style>
 </defs>
 <g id="figure_1">
  <g id="patch_1">
   <path d="M 0 180 
L 720 180 
L 720 0 
L 0 0 
z
" style="fill:none;"/>
  </g>
  <g id="axes_1">
   <g id="line2d_1">
    <path clip-path="url(#pf0aa37cc2e)" d="M 90 157.5 
L 648 157.5 
" style="fill:none;stroke:#000000;stroke-linecap:square;stroke-width:0.5;"/>
   </g>
   <g id="patch_2">
    <path clip-path="url(#pf0aa37cc2e)" d="M 111.66376 151.9985 
L 99.636153 151.9985 
L 97.737057 157.5 
L 90 157.5 
L 101.049285 127.3 
L 110.225051 127.3 
L 121.274336 157.5 
L 113.543673 157.5 
z
M 101.554432 146.393442 
L 109.726299 146.393442 
L 105.64676 134.380754 
z
" style="fill:#008000;"/>
   </g>
   <g id="patch_3">
    <path clip-path="url(#pf0aa37cc2e)" d="M 121.274336 123.201384 
Q 118.120268 125.250692 114.727893 126.280025 
Q 111.335518 127.3 107.718853 127.3 
Q 99.546312 127.3 94.773156 121.198864 
Q 90 115.097728 90 104.664036 
Q 90 94.108697 94.857265 88.054348 
Q 99.721538 82 108.18145 82 
Q 111.440653 82 114.426504 82.823466 
Q 117.419364 83.637575 120.068781 85.247077 
L 120.068781 94.277133 
Q 117.335256 92.20911 114.629766 91.189134 
Q 111.924277 90.159802 109.204769 90.159802 
Q 104.172279 90.159802 101.445762 93.921545 
Q 98.719246 97.673931 98.719246 104.664036 
Q 98.719246 111.588639 101.347636 115.369097 
Q 103.976026 119.140198 108.812263 119.140198 
Q 110.129963 119.140198 111.258418 118.924974 
Q 112.386874 118.700392 113.284031 118.232514 
L 113.284031 109.754555 
L 108.132386 109.754555 
L 108.132386 102.202995 
L 121.274336 102.202995 
z
" style="fill:#ffa600;"/>
   </g>
   <g id="patch_4">
    <path clip-path="url(#pf0aa37cc2e)" d="M 121.274336 77.670564 
Q 118.658292 79.816567 115.829497 80.902045 
Q 113.000702 82 109.919759 82 
Q 100.732085 82 95.366043 73.865152 
Q 90 65.730304 90 51.818715 
Q 90 37.85722 95.366043 29.734848 
Q 100.732085 21.6 109.919759 21.6 
Q 113.000702 21.6 115.829497 22.697955 
Q 118.658292 23.783433 121.274336 25.929436 
L 121.274336 37.96951 
Q 118.634653 35.124809 116.073766 33.802272 
Q 113.51288 32.479736 110.684085 32.479736 
Q 105.609589 32.479736 102.701998 37.632638 
Q 99.802286 42.773063 99.802286 51.818715 
Q 99.802286 60.826937 102.701998 65.979839 
Q 105.609589 71.120264 110.684085 71.120264 
Q 113.51288 71.120264 116.073766 69.797728 
Q 118.634653 68.462714 121.274336 65.618013 
z
" style="fill:#0000ff;"/>
   </g>
   <g id="patch_5">
    <path clip-path="url(#pf0aa37cc2e)" d="M 144.584114 154.74925 
L 132.556507 154.74925 
L 130.657411 157.5 
L 122.920354 157.5 
L 133.969639 142.4 
L 143.145405 142.4 
L 154.19469 157.5 
L 146.464027 157.5 
z
M 134.474786 151.946721 
L 142.646653 151.946721 
L 138.567114 145.940377 
z
" style="fill:#008000;"/>
   </g>
   <g id="patch_6">
    <path clip-path="url(#pf0aa37cc2e)" d="M 154.19469 141.317641 
Q 151.578646 141.854142 148.749851 142.125511 
Q 145.921056 142.4 142.840113 142.4 
Q 133.652439 142.4 128.286397 140.366288 
Q 122.920354 138.332576 122.920354 134.854679 
Q 122.920354 131.364305 128.286397 129.333712 
Q 133.652439 127.3 142.840113 127.3 
Q 145.921056 127.3 148.749851 127.574489 
Q 151.578646 127.845858 154.19469 128.382359 
L 154.19469 131.392378 
Q 151.555007 130.681202 148.99412 130.350568 
Q 146.433234 130.019934 143.604439 130.019934 
Q 138.529943 130.019934 135.622352 131.308159 
Q 132.72264 132.593266 132.72264 134.854679 
Q 132.72264 137.106734 135.622352 138.39496 
Q 138.529943 139.680066 143.604439 139.680066 
Q 146.433234 139.680066 148.99412 139.349432 
Q 151.555007 139.015679 154.19469 138.304503 
z
" style="fill:#0000ff;"/>
   </g>
   <g id="patch_7">
    <path clip-path="url(#pf0aa37cc2e)" d="M 154.19469 123.201384 
Q 151.040622 125.250692 147.648247 126.280025 
Q 144.255872 127.3 140.639207 127.3 
Q 132.466666 127.3 127.69351 121.198864 
Q 122.920354 115.097728 122.920354 104.664036 
Q 122.920354 94.108697 127.777619 88.054348 
Q 132.641892 82 141.101804 82 
Q 144.361007 82 147.346858 82.823466 
Q 150.339718 83.637575 152.989135 85.247077 
L 152.989135 94.277133 
Q 150.25561 92.20911 147.55012 91.189134 
Q 144.844631 90.159802 142.125123 90.159802 
Q 137.092633 90.159802 134.366116 93.921545 
Q 131.6396 97.673931 131.6396 104.664036 
Q 131.6396 111.588639 134.26799 115.369097 
Q 136.89638 119.140198 141.732617 119.140198 
Q 143.050317 119.140198 144.178772 118.924974 
Q 145.307228 118.700392 146.204385 118.232514 
L 146.204385 109.754555 
L 141.05274 109.754555 
L 141.05274 102.202995 
L 154.19469 102.202995 
z
" style="fill:#ffa600;"/>
   </g>
   <g id="patch_8">
    <path clip-path="url(#pf0aa37cc2e)" d="M 122.920354 21.6 
L 154.19469 21.6 
L 154.19469 33.379683 
L 142.943202 33.379683 
L 142.943202 82 
L 134.193661 82 
L 134.193661 33.379683 
L 122.920354 33.379683 
z
" style="fill:#ff0000;"/>
   </g>
   <g id="patch_9">
    <path clip-path="url(#pf0aa37cc2e)" d="M 187.115044 154.767589 
Q 183.960976 156.133795 180.568601 156.820017 
Q 177.176226 157.5 173.559561 157.5 
Q 165.38702 157.5 160.613864 153.432576 
Q 155.840708 149.365152 155.840708 142.409358 
Q 155.840708 135.372464 160.697973 131.336232 
Q 165.562246 127.3 174.022158 127.3 
Q 177.281361 127.3 180.267212 127.848977 
Q 183.260072 128.391717 185.909489 129.464718 
L 185.909489 135.484755 
Q 183.175964 134.106073 180.470474 133.42609 
Q 177.764985 132.739868 175.045477 132.739868 
Q 170.012987 132.739868 167.28647 135.247697 
Q 164.559954 137.749287 164.559954 142.409358 
Q 164.559954 147.025759 167.188344 149.546065 
Q 169.816734 152.060132 174.652971 152.060132 
Q 175.970671 152.060132 177.099126 151.916649 
Q 178.227582 151.766928 179.124739 151.455009 
L 179.124739 145.803037 
L 173.973094 145.803037 
L 173.973094 140.768663 
L 187.115044 140.768663 
z
" style="fill:#ffa600;"/>
   </g>
   <g id="patch_10">
    <path clip-path="url(#pf0aa37cc2e)" d="M 187.115044 124.052923 
Q 184.499 125.662425 181.670205 126.476534 
Q 178.84141 127.3 175.760467 127.3 
Q 166.572793 127.3 161.206751 121.198864 
Q 155.840708 115.097728 155.840708 104.664036 
Q 155.840708 94.192915 161.206751 88.101136 
Q 166.572793 82 175.760467 82 
Q 178.84141 82 181.670205 82.823466 
Q 184.499 83.637575 187.115044 85.247077 
L 187.115044 94.277133 
Q 184.475361 92.143607 181.914474 91.151704 
Q 179.353588 90.159802 176.524793 90.159802 
Q 171.450297 90.159802 168.542706 94.024478 
Q 165.642994 97.879798 165.642994 104.664036 
Q 165.642994 111.420202 168.542706 115.284879 
Q 171.450297 119.140198 176.524793 119.140198 
Q 179.353588 119.140198 181.914474 118.148296 
Q 184.475361 117.147036 187.115044 115.01351 
z
" style="fill:#0000ff;"/>
   </g>
   <g id="patch_11">
    <path clip-path="url(#pf0aa37cc2e)" d="M 155.840708 21.6 
L 187.115044 21.6 
L 187.115044 33.379683 
L 175.863556 33.379683 
L 175.863556 82 
L 167.114015 82 
L 167.114015 33.379683 
L 155.840708 33.379683 
z
" style="fill:#ff0000;"/>
   </g>
   <g id="patch_12">
    <path clip-path="url(#pf0aa37cc2e)" d="M 220.035398 156.417641 
Q 217.419354 156.954142 214.590559 157.225511 
Q 211.761764 157.5 208.680821 157.5 
Q 199.493147 157.5 194.127105 155.466288 
Q 188.761062 153.432576 188.761062 149.954679 
Q 188.761062 146.464305 194.127105 144.433712 
Q 199.493147 142.4 208.680821 142.4 
Q 211.761764 142.4 214.590559 142.674489 
Q 217.419354 142.945858 220.035398 143.482359 
L 220.035398 146.492378 
Q 217.395715 145.781202 214.834828 145.450568 
Q 212.273942 145.119934 209.445147 145.119934 
Q 204.370651 145.119934 201.46306 146.408159 
Q 198.563348 147.693266 198.563348 149.954679 
Q 198.563348 152.206734 201.46306 153.49496 
Q 204.370651 154.780066 209.445147 154.780066 
Q 212.273942 154.780066 214.834828 154.449432 
Q 217.395715 154.115679 220.035398 153.404503 
z
" style="fill:#0000ff;"/>
   </g>
   <g id="patch_13">
    <path clip-path="url(#pf0aa37cc2e)" d="M 220.035398 131.470357 
Q 216.88133 136.935179 213.488955 139.680066 
Q 210.09658 142.4 206.479915 142.4 
Q 198.307374 142.4 193.534218 126.130304 
Q 188.761062 109.860607 188.761062 82.03743 
Q 188.761062 53.889857 193.618327 37.744929 
Q 198.4826 21.6 206.942512 21.6 
Q 210.201715 21.6 213.187566 23.79591 
Q 216.180426 25.966866 218.829843 30.258872 
L 218.829843 54.339021 
Q 216.096318 48.824293 213.390828 46.104359 
Q 210.685339 43.359471 207.965831 43.359471 
Q 202.933341 43.359471 200.206824 53.390787 
Q 197.480308 63.397149 197.480308 82.03743 
Q 197.480308 100.503037 200.108698 110.584259 
Q 202.737088 120.640529 207.573325 120.640529 
Q 208.891025 120.640529 210.01948 120.066598 
Q 211.147936 119.467713 212.045093 118.220037 
L 212.045093 95.612146 
L 206.893448 95.612146 
L 206.893448 75.474654 
L 220.035398 75.474654 
z
" style="fill:#ffa600;"/>
   </g>
   <g id="patch_14">
    <path clip-path="url(#pf0aa37cc2e)" d="M 243.345176 154.74925 
L 231.317569 154.74925 
L 229.418473 157.5 
L 221.681416 157.5 
L 232.730701 142.4 
L 241.906467 142.4 
L 252.955752 157.5 
L 245.225089 157.5 
z
M 233.235848 151.946721 
L 241.407715 151.946721 
L 237.328175 145.940377 
z
" style="fill:#008000;"/>
   </g>
   <g id="patch_15">
    <path clip-path="url(#pf0aa37cc2e)" d="M 221.681416 127.3 
L 252.955752 127.3 
L 252.955752 130.244921 
L 241.704264 130.244921 
L 241.704264 142.4 
L 232.954723 142.4 
L 232.954723 130.244921 
L 221.681416 130.244921 
z
" style="fill:#ff0000;"/>
   </g>
   <g id="patch_16">
    <path clip-path="url(#pf0aa37cc2e)" d="M 252.955752 125.135282 
Q 250.339708 126.208283 247.510913 126.751023 
Q 244.682118 127.3 241.601175 127.3 
Q 232.413501 127.3 227.047459 123.232576 
Q 221.681416 119.165152 221.681416 112.209358 
Q 221.681416 105.22861 227.047459 101.167424 
Q 232.413501 97.1 241.601175 97.1 
Q 244.682118 97.1 247.510913 97.648977 
Q 250.339708 98.191717 252.955752 99.264718 
L 252.955752 105.284755 
Q 250.316069 103.862404 247.755182 103.201136 
Q 245.194296 102.539868 242.365501 102.539868 
Q 237.291005 102.539868 234.383414 105.116319 
Q 231.483702 107.686532 231.483702 112.209358 
Q 231.483702 116.713468 234.383414 119.289919 
Q 237.291005 121.860132 242.365501 121.860132 
Q 245.194296 121.860132 247.755182 121.198864 
Q 250.316069 120.531357 252.955752 119.109006 
z
" style="fill:#0000ff;"/>
   </g>
   <g id="patch_17">
    <path clip-path="url(#pf0aa37cc2e)" d="M 252.955752 90.268973 
Q 249.801684 93.684487 246.409309 95.400041 
Q 243.016934 97.1 239.400269 97.1 
Q 231.227728 97.1 226.454572 86.93144 
Q 221.681416 76.76288 221.681416 59.373394 
Q 221.681416 41.781161 226.538681 31.69058 
Q 231.402954 21.6 239.862866 21.6 
Q 243.122069 21.6 246.10792 22.972444 
Q 249.10078 24.329291 251.750197 27.011795 
L 251.750197 42.061888 
Q 249.016672 38.615183 246.311182 36.915224 
Q 243.605693 35.199669 240.886185 35.199669 
Q 235.853695 35.199669 233.127178 41.469242 
Q 230.400662 47.723218 230.400662 59.373394 
Q 230.400662 70.914398 233.029052 77.215162 
Q 235.657442 83.500331 240.493679 83.500331 
Q 241.811379 83.500331 242.939834 83.141624 
Q 244.06829 82.767321 244.965447 81.987523 
L 244.965447 67.857591 
L 239.813802 67.857591 
L 239.813802 55.271659 
L 252.955752 55.271659 
z
" style="fill:#ffa600;"/>
   </g>
   <g id="patch_18">
    <path clip-path="url(#pf0aa37cc2e)" d="M 276.26553 132.743249 
L 264.237923 132.743249 
L 262.338827 157.5 
L 254.60177 157.5 
L 265.651055 21.6 
L 274.826821 21.6 
L 285.876106 157.5 
L 278.145443 157.5 
z
M 266.156202 107.520489 
L 274.328069 107.520489 
L 270.248529 53.463395 
z
" style="fill:#008000;"/>
   </g>
   <g id="patch_19">
    <path clip-path="url(#pf0aa37cc2e)" d="M 287.522124 21.6 
L 318.79646 21.6 
L 318.79646 48.104286 
L 307.544972 48.104286 
L 307.544972 157.5 
L 298.795431 157.5 
L 298.795431 48.104286 
L 287.522124 48.104286 
z
" style="fill:#ff0000;"/>
   </g>
   <g id="patch_20">
    <path clip-path="url(#pf0aa37cc2e)" d="M 351.716814 145.204152 
Q 348.562746 151.352076 345.170371 154.440074 
Q 341.777996 157.5 338.161331 157.5 
Q 329.98879 157.5 325.215634 139.196592 
Q 320.442478 120.893183 320.442478 89.592109 
Q 320.442478 57.92609 325.299743 39.763045 
Q 330.164016 21.6 338.623928 21.6 
Q 341.883131 21.6 344.868982 24.070399 
Q 347.861842 26.512725 350.511259 31.341231 
L 350.511259 58.431398 
Q 347.777734 52.227329 345.072244 49.167403 
Q 342.366755 46.079405 339.647247 46.079405 
Q 334.614757 46.079405 331.88824 57.364635 
Q 329.161724 68.621793 329.161724 89.592109 
Q 329.161724 110.365916 331.790114 121.707292 
Q 334.418504 133.020595 339.254741 133.020595 
Q 340.572441 133.020595 341.700896 132.374923 
Q 342.829351 131.701177 343.726509 130.297542 
L 343.726509 104.863665 
L 338.574864 104.863665 
L 338.574864 82.208986 
L 351.716814 82.208986 
z
" style="fill:#ffa600;"/>
   </g>
   <g id="patch_21">
    <path clip-path="url(#pf0aa37cc2e)" d="M 375.026592 132.743249 
L 362.998985 132.743249 
L 361.099889 157.5 
L 353.362832 157.5 
L 364.412117 21.6 
L 373.587883 21.6 
L 384.637168 157.5 
L 376.906505 157.5 
z
M 364.917264 107.520489 
L 373.089131 107.520489 
L 369.009591 53.463395 
z
" style="fill:#008000;"/>
   </g>
   <g id="patch_22">
    <path clip-path="url(#pf0aa37cc2e)" d="M 386.283186 21.6 
L 417.557522 21.6 
L 417.557522 48.104286 
L 406.306034 48.104286 
L 406.306034 157.5 
L 397.556493 157.5 
L 397.556493 48.104286 
L 386.283186 48.104286 
z
" style="fill:#ff0000;"/>
   </g>
   <g id="patch_23">
    <path clip-path="url(#pf0aa37cc2e)" d="M 450.477876 145.204152 
Q 447.323808 151.352076 443.931433 154.440074 
Q 440.539057 157.5 436.922393 157.5 
Q 428.749852 157.5 423.976696 139.196592 
Q 419.20354 120.893183 419.20354 89.592109 
Q 419.20354 57.92609 424.060805 39.763045 
Q 428.925078 21.6 437.384989 21.6 
Q 440.644193 21.6 443.630044 24.070399 
Q 446.622904 26.512725 449.272321 31.341231 
L 449.272321 58.431398 
Q 446.538796 52.227329 443.833306 49.167403 
Q 441.127817 46.079405 438.408309 46.079405 
Q 433.375819 46.079405 430.649302 57.364635 
Q 427.922786 68.621793 427.922786 89.592109 
Q 427.922786 110.365916 430.551176 121.707292 
Q 433.179565 133.020595 438.015803 133.020595 
Q 439.333503 133.020595 440.461958 132.374923 
Q 441.590413 131.701177 442.487571 130.297542 
L 442.487571 104.863665 
L 437.335926 104.863665 
L 437.335926 82.208986 
L 450.477876 82.208986 
z
" style="fill:#ffa600;"/>
   </g>
   <g id="patch_24">
    <path clip-path="url(#pf0aa37cc2e)" d="M 452.123894 127.3 
L 483.39823 127.3 
L 483.39823 133.189841 
L 472.146742 133.189841 
L 472.146742 157.5 
L 463.397201 157.5 
L 463.397201 133.189841 
L 452.123894 133.189841 
z
" style="fill:#ff0000;"/>
   </g>
   <g id="patch_25">
    <path clip-path="url(#pf0aa37cc2e)" d="M 483.39823 124.052923 
Q 480.782186 125.662425 477.953391 126.476534 
Q 475.124596 127.3 472.043652 127.3 
Q 462.855979 127.3 457.489936 121.198864 
Q 452.123894 115.097728 452.123894 104.664036 
Q 452.123894 94.192915 457.489936 88.101136 
Q 462.855979 82 472.043652 82 
Q 475.124596 82 477.953391 82.823466 
Q 480.782186 83.637575 483.39823 85.247077 
L 483.39823 94.277133 
Q 480.758547 92.143607 478.19766 91.151704 
Q 475.636773 90.159802 472.807979 90.159802 
Q 467.733483 90.159802 464.825892 94.024478 
Q 461.92618 97.879798 461.92618 104.664036 
Q 461.92618 111.420202 464.825892 115.284879 
Q 467.733483 119.140198 472.807979 119.140198 
Q 475.636773 119.140198 478.19766 118.148296 
Q 480.758547 117.147036 483.39823 115.01351 
z
" style="fill:#0000ff;"/>
   </g>
   <g id="patch_26">
    <path clip-path="url(#pf0aa37cc2e)" d="M 473.787654 70.997 
L 461.760047 70.997 
L 459.860951 82 
L 452.123894 82 
L 463.173179 21.6 
L 472.348945 21.6 
L 483.39823 82 
L 475.667567 82 
z
M 463.678326 59.786884 
L 471.850193 59.786884 
L 467.770653 35.761509 
z
" style="fill:#008000;"/>
   </g>
   <g id="patch_27">
    <path clip-path="url(#pf0aa37cc2e)" d="M 516.318584 156.417641 
Q 513.70254 156.954142 510.873745 157.225511 
Q 508.04495 157.5 504.964006 157.5 
Q 495.776333 157.5 490.41029 155.466288 
Q 485.044248 153.432576 485.044248 149.954679 
Q 485.044248 146.464305 490.41029 144.433712 
Q 495.776333 142.4 504.964006 142.4 
Q 508.04495 142.4 510.873745 142.674489 
Q 513.70254 142.945858 516.318584 143.482359 
L 516.318584 146.492378 
Q 513.678901 145.781202 511.118014 145.450568 
Q 508.557127 145.119934 505.728333 145.119934 
Q 500.653837 145.119934 497.746246 146.408159 
Q 494.846534 147.693266 494.846534 149.954679 
Q 494.846534 152.206734 497.746246 153.49496 
Q 500.653837 154.780066 505.728333 154.780066 
Q 508.557127 154.780066 511.118014 154.449432 
Q 513.678901 154.115679 516.318584 153.404503 
z
" style="fill:#0000ff;"/>
   </g>
   <g id="patch_28">
    <path clip-path="url(#pf0aa37cc2e)" d="M 506.708008 136.8985 
L 494.680401 136.8985 
L 492.781305 142.4 
L 485.044248 142.4 
L 496.093533 112.2 
L 505.269299 112.2 
L 516.318584 142.4 
L 508.587921 142.4 
z
M 496.59868 131.293442 
L 504.770547 131.293442 
L 500.691007 119.280754 
z
" style="fill:#008000;"/>
   </g>
   <g id="patch_29">
    <path clip-path="url(#pf0aa37cc2e)" d="M 516.318584 104.002768 
Q 513.164516 108.101384 509.772141 110.16005 
Q 506.379765 112.2 502.763101 112.2 
Q 494.59056 112.2 489.817404 99.997728 
Q 485.044248 87.795455 485.044248 66.928073 
Q 485.044248 45.817393 489.901512 33.708697 
Q 494.765786 21.6 503.225697 21.6 
Q 506.484901 21.6 509.470752 23.246932 
Q 512.463612 24.87515 515.113029 28.094154 
L 515.113029 46.154266 
Q 512.379504 42.018219 509.674014 39.978269 
Q 506.968525 37.919603 504.249017 37.919603 
Q 499.216527 37.919603 496.49001 45.44309 
Q 493.763493 52.947862 493.763493 66.928073 
Q 493.763493 80.777277 496.391883 88.338195 
Q 499.020273 95.880397 503.856511 95.880397 
Q 505.174211 95.880397 506.302666 95.449948 
Q 507.431121 95.000785 508.328279 94.065028 
L 508.328279 77.10911 
L 503.176634 77.10911 
L 503.176634 62.00599 
L 516.318584 62.00599 
z
" style="fill:#ffa600;"/>
   </g>
   <g id="patch_30">
    <path clip-path="url(#pf0aa37cc2e)" d="M 549.238938 156.417641 
Q 546.622894 156.954142 543.794099 157.225511 
Q 540.965304 157.5 537.88436 157.5 
Q 528.696687 157.5 523.330644 155.466288 
Q 517.964602 153.432576 517.964602 149.954679 
Q 517.964602 146.464305 523.330644 144.433712 
Q 528.696687 142.4 537.88436 142.4 
Q 540.965304 142.4 543.794099 142.674489 
Q 546.622894 142.945858 549.238938 143.482359 
L 549.238938 146.492378 
Q 546.599255 145.781202 544.038368 145.450568 
Q 541.477481 145.119934 538.648687 145.119934 
Q 533.574191 145.119934 530.6666 146.408159 
Q 527.766888 147.693266 527.766888 149.954679 
Q 527.766888 152.206734 530.6666 153.49496 
Q 533.574191 154.780066 538.648687 154.780066 
Q 541.477481 154.780066 544.038368 154.449432 
Q 546.599255 154.115679 549.238938 153.404503 
z
" style="fill:#0000ff;"/>
   </g>
   <g id="patch_31">
    <path clip-path="url(#pf0aa37cc2e)" d="M 549.238938 141.033795 
Q 546.08487 141.716897 542.692495 142.060008 
Q 539.300119 142.4 535.683455 142.4 
Q 527.510914 142.4 522.737758 140.366288 
Q 517.964602 138.332576 517.964602 134.854679 
Q 517.964602 131.336232 522.821866 129.318116 
Q 527.68614 127.3 536.146051 127.3 
Q 539.405255 127.3 542.391106 127.574489 
Q 545.383966 127.845858 548.033383 128.382359 
L 548.033383 131.392378 
Q 545.299858 130.703037 542.594368 130.363045 
Q 539.888879 130.019934 537.169371 130.019934 
Q 532.136881 130.019934 529.410364 131.273848 
Q 526.683847 132.524644 526.683847 134.854679 
Q 526.683847 137.16288 529.312237 138.423032 
Q 531.940627 139.680066 536.776865 139.680066 
Q 538.094565 139.680066 539.22302 139.608325 
Q 540.351475 139.533464 541.248633 139.377505 
L 541.248633 136.551518 
L 536.096988 136.551518 
L 536.096988 134.034332 
L 549.238938 134.034332 
z
" style="fill:#ffa600;"/>
   </g>
   <g id="patch_32">
    <path clip-path="url(#pf0aa37cc2e)" d="M 539.628362 121.7985 
L 527.600755 121.7985 
L 525.701659 127.3 
L 517.964602 127.3 
L 529.013887 97.1 
L 538.189653 97.1 
L 549.238938 127.3 
L 541.508275 127.3 
z
M 529.519034 116.193442 
L 537.690901 116.193442 
L 533.611361 104.180754 
z
" style="fill:#008000;"/>
   </g>
   <g id="patch_33">
    <path clip-path="url(#pf0aa37cc2e)" d="M 517.964602 21.6 
L 549.238938 21.6 
L 549.238938 36.324604 
L 537.98745 36.324604 
L 537.98745 97.1 
L 529.237909 97.1 
L 529.237909 36.324604 
L 517.964602 36.324604 
z
" style="fill:#ff0000;"/>
   </g>
   <g id="patch_34">
    <path clip-path="url(#pf0aa37cc2e)" d="M 572.548716 154.74925 
L 560.521109 154.74925 
L 558.622013 157.5 
L 550.884956 157.5 
L 561.934241 142.4 
L 571.110007 142.4 
L 582.159292 157.5 
L 574.428629 157.5 
z
M 562.439387 151.946721 
L 570.611255 151.946721 
L 566.531715 145.940377 
z
" style="fill:#008000;"/>
   </g>
   <g id="patch_35">
    <path clip-path="url(#pf0aa37cc2e)" d="M 550.884956 97.1 
L 582.159292 97.1 
L 582.159292 105.934762 
L 570.907804 105.934762 
L 570.907804 142.4 
L 562.158263 142.4 
L 562.158263 105.934762 
L 550.884956 105.934762 
z
" style="fill:#ff0000;"/>
   </g>
   <g id="patch_36">
    <path clip-path="url(#pf0aa37cc2e)" d="M 582.159292 90.268973 
Q 579.005224 93.684487 575.612849 95.400041 
Q 572.220473 97.1 568.603809 97.1 
Q 560.431268 97.1 555.658112 86.93144 
Q 550.884956 76.76288 550.884956 59.373394 
Q 550.884956 41.781161 555.74222 31.69058 
Q 560.606494 21.6 569.066405 21.6 
Q 572.325609 21.6 575.31146 22.972444 
Q 578.30432 24.329291 580.953737 27.011795 
L 580.953737 42.061888 
Q 578.220212 38.615183 575.514722 36.915224 
Q 572.809233 35.199669 570.089725 35.199669 
Q 565.057235 35.199669 562.330718 41.469242 
Q 559.604201 47.723218 559.604201 59.373394 
Q 559.604201 70.914398 562.232591 77.215162 
Q 564.860981 83.500331 569.697219 83.500331 
Q 571.014919 83.500331 572.143374 83.141624 
Q 573.271829 82.767321 574.168986 81.987523 
L 574.168986 67.857591 
L 569.017342 67.857591 
L 569.017342 55.271659 
L 582.159292 55.271659 
z
" style="fill:#ffa600;"/>
   </g>
   <g id="patch_37">
    <path clip-path="url(#pf0aa37cc2e)" d="M 605.46907 151.9985 
L 593.441463 151.9985 
L 591.542367 157.5 
L 583.80531 157.5 
L 594.854595 127.3 
L 604.030361 127.3 
L 615.079646 157.5 
L 607.348983 157.5 
z
M 595.359741 146.393442 
L 603.531609 146.393442 
L 599.452069 134.380754 
z
" style="fill:#008000;"/>
   </g>
   <g id="patch_38">
    <path clip-path="url(#pf0aa37cc2e)" d="M 615.079646 124.567589 
Q 611.925578 125.933795 608.533203 126.620017 
Q 605.140827 127.3 601.524163 127.3 
Q 593.351622 127.3 588.578466 123.232576 
Q 583.80531 119.165152 583.80531 112.209358 
Q 583.80531 105.172464 588.662574 101.136232 
Q 593.526848 97.1 601.986759 97.1 
Q 605.245963 97.1 608.231814 97.648977 
Q 611.224674 98.191717 613.874091 99.264718 
L 613.874091 105.284755 
Q 611.140566 103.906073 608.435076 103.22609 
Q 605.729587 102.539868 603.010079 102.539868 
Q 597.977589 102.539868 595.251072 105.047697 
Q 592.524555 107.549287 592.524555 112.209358 
Q 592.524555 116.825759 595.152945 119.346065 
Q 597.781335 121.860132 602.617573 121.860132 
Q 603.935272 121.860132 605.063728 121.716649 
Q 606.192183 121.566928 607.08934 121.255009 
L 607.08934 115.603037 
L 601.937696 115.603037 
L 601.937696 110.568663 
L 615.079646 110.568663 
z
" style="fill:#ffa600;"/>
   </g>
   <g id="patch_39">
    <path clip-path="url(#pf0aa37cc2e)" d="M 583.80531 21.6 
L 615.079646 21.6 
L 615.079646 36.324604 
L 603.828158 36.324604 
L 603.828158 97.1 
L 595.078617 97.1 
L 595.078617 36.324604 
L 583.80531 36.324604 
z
" style="fill:#ff0000;"/>
   </g>
   <g id="patch_40">
    <path clip-path="url(#pf0aa37cc2e)" d="M 648 156.417641 
Q 645.383956 156.954142 642.555161 157.225511 
Q 639.726366 157.5 636.645422 157.5 
Q 627.457749 157.5 622.091706 155.466288 
Q 616.725664 153.432576 616.725664 149.954679 
Q 616.725664 146.464305 622.091706 144.433712 
Q 627.457749 142.4 636.645422 142.4 
Q 639.726366 142.4 642.555161 142.674489 
Q 645.383956 142.945858 648 143.482359 
L 648 146.492378 
Q 645.360317 145.781202 642.79943 145.450568 
Q 640.238543 145.119934 637.409749 145.119934 
Q 632.335253 145.119934 629.427662 146.408159 
Q 626.52795 147.693266 626.52795 149.954679 
Q 626.52795 152.206734 629.427662 153.49496 
Q 632.335253 154.780066 637.409749 154.780066 
Q 640.238543 154.780066 642.79943 154.449432 
Q 645.360317 154.115679 648 153.404503 
z
" style="fill:#0000ff;"/>
   </g>
   <g id="patch_41">
    <path clip-path="url(#pf0aa37cc2e)" d="M 638.389424 136.8985 
L 626.361817 136.8985 
L 624.462721 142.4 
L 616.725664 142.4 
L 627.774949 112.2 
L 636.950715 112.2 
L 648 142.4 
L 640.269337 142.4 
z
M 628.280095 131.293442 
L 636.451963 131.293442 
L 632.372423 119.280754 
z
" style="fill:#008000;"/>
   </g>
   <g id="patch_42">
    <path clip-path="url(#pf0aa37cc2e)" d="M 616.725664 82 
L 648 82 
L 648 87.889841 
L 636.748512 87.889841 
L 636.748512 112.2 
L 627.998971 112.2 
L 627.998971 87.889841 
L 616.725664 87.889841 
z
" style="fill:#ff0000;"/>
   </g>
   <g id="patch_43">
    <path clip-path="url(#pf0aa37cc2e)" d="M 648 76.535179 
Q 644.845932 79.267589 641.453557 80.640033 
Q 638.061181 82 634.444517 82 
Q 626.271976 82 621.49882 73.865152 
Q 616.725664 65.730304 616.725664 51.818715 
Q 616.725664 37.744929 621.582928 29.672464 
Q 626.447202 21.6 634.907113 21.6 
Q 638.166317 21.6 641.152168 22.697955 
Q 644.145028 23.783433 646.794445 25.929436 
L 646.794445 37.96951 
Q 644.06092 35.212146 641.35543 33.852179 
Q 638.649941 32.479736 635.930433 32.479736 
Q 630.897943 32.479736 628.171426 37.495394 
Q 625.444909 42.498575 625.444909 51.818715 
Q 625.444909 61.051518 628.073299 66.09213 
Q 630.701689 71.120264 635.537927 71.120264 
Q 636.855626 71.120264 637.984082 70.833299 
Q 639.112537 70.533857 640.009694 69.910019 
L 640.009694 58.606073 
L 634.85805 58.606073 
L 634.85805 48.537327 
L 648 48.537327 
z
" style="fill:#ffa600;"/>
   </g>
  </g>
 </g>
 <defs>
  <clipPath id="pf0aa37cc2e">
   <rect height="135.9" width="558" x="90" y="21.6"/>
  </clipPath>
 </defs>
</svg>
