<?xml version="1.0" encoding="utf-8" standalone="no"?>
<!DOCTYPE svg PUBLIC "-//W3C//DTD SVG 1.1//EN"
  "http://www.w3.org/Graphics/SVG/1.1/DTD/svg11.dtd">
<!-- Created with matplotlib (https://matplotlib.org/) -->
<svg height="180pt" version="1.1" viewBox="0 0 720 180" width="720pt" xmlns="http://www.w3.org/2000/svg" xmlns:xlink="http://www.w3.org/1999/xlink">
 <metadata>
  <rdf:RDF xmlns:cc="http://creativecommons.org/ns#" xmlns:dc="http://purl.org/dc/elements/1.1/" xmlns:rdf="http://www.w3.org/1999/02/22-rdf-syntax-ns#">
   <cc:Work>
    <dc:type rdf:resource="http://purl.org/dc/dcmitype/StillImage"/>
    <dc:date>2021-08-04T23:33:56.732874</dc:date>
    <dc:format>image/svg+xml</dc:format>
    <dc:creator>
     <cc:Agent>
      <dc:title>Matplotlib v3.3.2, https://matplotlib.org/</dc:title>
     </cc:Agent>
    </dc:creator>
   </cc:Work>
  </rdf:RDF>
 </metadata>
 <defs>
  <style type="text/css">*{stroke-linecap:butt;stroke-linejoin:round;}</style>
 </defs>
 <g id="figure_1">
  <g id="patch_1">
   <path d="M 0 180 
L 720 180 
L 720 0 
L 0 0 
z
" style="fill:none;"/>
  </g>
  <g id="axes_1">
   <g id="line2d_1">
    <path clip-path="url(#p74d229bc4e)" d="M 90 157.5 
L 648 157.5 
" style="fill:none;stroke:#000000;stroke-linecap:square;stroke-width:0.5;"/>
   </g>
   <g id="patch_2">
    <path clip-path="url(#p74d229bc4e)" d="M 121.274336 156.417641 
Q 118.658292 156.954142 115.829497 157.225511 
Q 113.000702 157.5 109.919759 157.5 
Q 100.732085 157.5 95.366043 155.466288 
Q 90 153.432576 90 149.954679 
Q 90 146.464305 95.366043 144.433712 
Q 100.732085 142.4 109.919759 142.4 
Q 113.000702 142.4 115.829497 142.674489 
Q 118.658292 142.945858 121.274336 143.482359 
L 121.274336 146.492378 
Q 118.634653 145.781202 116.073766 145.450568 
Q 113.51288 145.119934 110.684085 145.119934 
Q 105.609589 145.119934 102.701998 146.408159 
Q 99.802286 147.693266 99.802286 149.954679 
Q 99.802286 152.206734 102.701998 153.49496 
Q 105.609589 154.780066 110.684085 154.780066 
Q 113.51288 154.780066 116.073766 154.449432 
Q 118.634653 154.115679 121.274336 153.404503 
z
" style="fill:#0000ff;"/>
   </g>
   <g id="patch_3">
    <path clip-path="url(#p74d229bc4e)" d="M 90 97.1 
L 121.274336 97.1 
L 121.274336 105.934762 
L 110.022848 105.934762 
L 110.022848 142.4 
L 101.273307 142.4 
L 101.273307 105.934762 
L 90 105.934762 
z
" style="fill:#ff0000;"/>
   </g>
   <g id="patch_4">
    <path clip-path="url(#p74d229bc4e)" d="M 144.584114 146.497 
L 132.556507 146.497 
L 130.657411 157.5 
L 122.920354 157.5 
L 133.969639 97.1 
L 143.145405 97.1 
L 154.19469 157.5 
L 146.464027 157.5 
z
M 134.474786 135.286884 
L 142.646653 135.286884 
L 138.567114 111.261509 
z
" style="fill:#008000;"/>
   </g>
   <g id="patch_5">
    <path clip-path="url(#p74d229bc4e)" d="M 177.504468 154.74925 
L 165.476861 154.74925 
L 163.577765 157.5 
L 155.840708 157.5 
L 166.889993 142.4 
L 176.065759 142.4 
L 187.115044 157.5 
L 179.384381 157.5 
z
M 167.39514 151.946721 
L 175.567007 151.946721 
L 171.487467 145.940377 
z
" style="fill:#008000;"/>
   </g>
   <g id="patch_6">
    <path clip-path="url(#p74d229bc4e)" d="M 187.115044 141.033795 
Q 183.960976 141.716897 180.568601 142.060008 
Q 177.176226 142.4 173.559561 142.4 
Q 165.38702 142.4 160.613864 140.366288 
Q 155.840708 138.332576 155.840708 134.854679 
Q 155.840708 131.336232 160.697973 129.318116 
Q 165.562246 127.3 174.022158 127.3 
Q 177.281361 127.3 180.267212 127.574489 
Q 183.260072 127.845858 185.909489 128.382359 
L 185.909489 131.392378 
Q 183.175964 130.703037 180.470474 130.363045 
Q 177.764985 130.019934 175.045477 130.019934 
Q 170.012987 130.019934 167.28647 131.273848 
Q 164.559954 132.524644 164.559954 134.854679 
Q 164.559954 137.16288 167.188344 138.423032 
Q 169.816734 139.680066 174.652971 139.680066 
Q 175.970671 139.680066 177.099126 139.608325 
Q 178.227582 139.533464 179.124739 139.377505 
L 179.124739 136.551518 
L 173.973094 136.551518 
L 173.973094 134.034332 
L 187.115044 134.034332 
z
" style="fill:#ffa600;"/>
   </g>
   <g id="patch_7">
    <path clip-path="url(#p74d229bc4e)" d="M 187.115044 125.135282 
Q 184.499 126.208283 181.670205 126.751023 
Q 178.84141 127.3 175.760467 127.3 
Q 166.572793 127.3 161.206751 123.232576 
Q 155.840708 119.165152 155.840708 112.209358 
Q 155.840708 105.22861 161.206751 101.167424 
Q 166.572793 97.1 175.760467 97.1 
Q 178.84141 97.1 181.670205 97.648977 
Q 184.499 98.191717 187.115044 99.264718 
L 187.115044 105.284755 
Q 184.475361 103.862404 181.914474 103.201136 
Q 179.353588 102.539868 176.524793 102.539868 
Q 171.450297 102.539868 168.542706 105.116319 
Q 165.642994 107.686532 165.642994 112.209358 
Q 165.642994 116.713468 168.542706 119.289919 
Q 171.450297 121.860132 176.524793 121.860132 
Q 179.353588 121.860132 181.914474 121.198864 
Q 184.475361 120.531357 187.115044 119.109006 
z
" style="fill:#0000ff;"/>
   </g>
   <g id="patch_8">
    <path clip-path="url(#p74d229bc4e)" d="M 220.035398 156.133795 
Q 216.88133 156.816897 213.488955 157.160008 
Q 210.09658 157.5 206.479915 157.5 
Q 198.307374 157.5 193.534218 155.466288 
Q 188.761062 153.432576 188.761062 149.954679 
Q 188.761062 146.436232 193.618327 144.418116 
Q 198.4826 142.4 206.942512 142.4 
Q 210.201715 142.4 213.187566 142.674489 
Q 216.180426 142.945858 218.829843 143.482359 
L 218.829843 146.492378 
Q 216.096318 145.803037 213.390828 145.463045 
Q 210.685339 145.119934 207.965831 145.119934 
Q 202.933341 145.119934 200.206824 146.373848 
Q 197.480308 147.624644 197.480308 149.954679 
Q 197.480308 152.26288 200.108698 153.523032 
Q 202.737088 154.780066 207.573325 154.780066 
Q 208.891025 154.780066 210.01948 154.708325 
Q 211.147936 154.633464 212.045093 154.477505 
L 212.045093 151.651518 
L 206.893448 151.651518 
L 206.893448 149.134332 
L 220.035398 149.134332 
z
" style="fill:#ffa600;"/>
   </g>
   <g id="patch_9">
    <path clip-path="url(#p74d229bc4e)" d="M 188.761062 127.3 
L 220.035398 127.3 
L 220.035398 130.244921 
L 208.78391 130.244921 
L 208.78391 142.4 
L 200.034369 142.4 
L 200.034369 130.244921 
L 188.761062 130.244921 
z
" style="fill:#ff0000;"/>
   </g>
   <g id="patch_10">
    <path clip-path="url(#p74d229bc4e)" d="M 210.424822 121.7985 
L 198.397215 121.7985 
L 196.498119 127.3 
L 188.761062 127.3 
L 199.810347 97.1 
L 208.986113 97.1 
L 220.035398 127.3 
L 212.304735 127.3 
z
M 200.315494 116.193442 
L 208.487361 116.193442 
L 204.407821 104.180754 
z
" style="fill:#008000;"/>
   </g>
   <g id="patch_11">
    <path clip-path="url(#p74d229bc4e)" d="M 252.955752 156.417641 
Q 250.339708 156.954142 247.510913 157.225511 
Q 244.682118 157.5 241.601175 157.5 
Q 232.413501 157.5 227.047459 155.466288 
Q 221.681416 153.432576 221.681416 149.954679 
Q 221.681416 146.464305 227.047459 144.433712 
Q 232.413501 142.4 241.601175 142.4 
Q 244.682118 142.4 247.510913 142.674489 
Q 250.339708 142.945858 252.955752 143.482359 
L 252.955752 146.492378 
Q 250.316069 145.781202 247.755182 145.450568 
Q 245.194296 145.119934 242.365501 145.119934 
Q 237.291005 145.119934 234.383414 146.408159 
Q 231.483702 147.693266 231.483702 149.954679 
Q 231.483702 152.206734 234.383414 153.49496 
Q 237.291005 154.780066 242.365501 154.780066 
Q 245.194296 154.780066 247.755182 154.449432 
Q 250.316069 154.115679 252.955752 153.404503 
z
" style="fill:#0000ff;"/>
   </g>
   <g id="patch_12">
    <path clip-path="url(#p74d229bc4e)" d="M 221.681416 97.1 
L 252.955752 97.1 
L 252.955752 105.934762 
L 241.704264 105.934762 
L 241.704264 142.4 
L 232.954723 142.4 
L 232.954723 105.934762 
L 221.681416 105.934762 
z
" style="fill:#ff0000;"/>
   </g>
   <g id="patch_13">
    <path clip-path="url(#p74d229bc4e)" d="M 254.60177 142.4 
L 285.876106 142.4 
L 285.876106 145.344921 
L 274.624618 145.344921 
L 274.624618 157.5 
L 265.875077 157.5 
L 265.875077 145.344921 
L 254.60177 145.344921 
z
" style="fill:#ff0000;"/>
   </g>
   <g id="patch_14">
    <path clip-path="url(#p74d229bc4e)" d="M 285.876106 139.152923 
Q 283.260062 140.762425 280.431267 141.576534 
Q 277.602472 142.4 274.521529 142.4 
Q 265.333855 142.4 259.967812 136.298864 
Q 254.60177 130.197728 254.60177 119.764036 
Q 254.60177 109.292915 259.967812 103.201136 
Q 265.333855 97.1 274.521529 97.1 
Q 277.602472 97.1 280.431267 97.923466 
Q 283.260062 98.737575 285.876106 100.347077 
L 285.876106 109.377133 
Q 283.236423 107.243607 280.675536 106.251704 
Q 278.11465 105.259802 275.285855 105.259802 
Q 270.211359 105.259802 267.303768 109.124478 
Q 264.404056 112.979798 264.404056 119.764036 
Q 264.404056 126.520202 267.303768 130.384879 
Q 270.211359 134.240198 275.285855 134.240198 
Q 278.11465 134.240198 280.675536 133.248296 
Q 283.236423 132.247036 285.876106 130.11351 
z
" style="fill:#0000ff;"/>
   </g>
   <g id="patch_15">
    <path clip-path="url(#p74d229bc4e)" d="M 309.185884 154.74925 
L 297.158277 154.74925 
L 295.259181 157.5 
L 287.522124 157.5 
L 298.571409 142.4 
L 307.747175 142.4 
L 318.79646 157.5 
L 311.065797 157.5 
z
M 299.076556 151.946721 
L 307.248423 151.946721 
L 303.168883 145.940377 
z
" style="fill:#008000;"/>
   </g>
   <g id="patch_16">
    <path clip-path="url(#p74d229bc4e)" d="M 318.79646 138.301384 
Q 315.642392 140.350692 312.250017 141.380025 
Q 308.857642 142.4 305.240977 142.4 
Q 297.068436 142.4 292.29528 136.298864 
Q 287.522124 130.197728 287.522124 119.764036 
Q 287.522124 109.208697 292.379389 103.154348 
Q 297.243662 97.1 305.703574 97.1 
Q 308.962777 97.1 311.948628 97.923466 
Q 314.941488 98.737575 317.590905 100.347077 
L 317.590905 109.377133 
Q 314.85738 107.30911 312.15189 106.289134 
Q 309.446401 105.259802 306.726893 105.259802 
Q 301.694403 105.259802 298.967886 109.021545 
Q 296.24137 112.773931 296.24137 119.764036 
Q 296.24137 126.688639 298.86976 130.469097 
Q 301.49815 134.240198 306.334387 134.240198 
Q 307.652087 134.240198 308.780542 134.024974 
Q 309.908998 133.800392 310.806155 133.332514 
L 310.806155 124.854555 
L 305.65451 124.854555 
L 305.65451 117.302995 
L 318.79646 117.302995 
z
" style="fill:#ffa600;"/>
   </g>
   <g id="patch_17">
    <path clip-path="url(#p74d229bc4e)" d="M 320.442478 21.6 
L 351.716814 21.6 
L 351.716814 48.104286 
L 340.465326 48.104286 
L 340.465326 157.5 
L 331.715785 157.5 
L 331.715785 48.104286 
L 320.442478 48.104286 
z
" style="fill:#ff0000;"/>
   </g>
   <g id="patch_18">
    <path clip-path="url(#p74d229bc4e)" d="M 353.362832 97.1 
L 384.637168 97.1 
L 384.637168 108.879683 
L 373.38568 108.879683 
L 373.38568 157.5 
L 364.636139 157.5 
L 364.636139 108.879683 
L 353.362832 108.879683 
z
" style="fill:#ff0000;"/>
   </g>
   <g id="patch_19">
    <path clip-path="url(#p74d229bc4e)" d="M 375.026592 83.346249 
L 362.998985 83.346249 
L 361.099889 97.1 
L 353.362832 97.1 
L 364.412117 21.6 
L 373.587883 21.6 
L 384.637168 97.1 
L 376.906505 97.1 
z
M 364.917264 69.333605 
L 373.089131 69.333605 
L 369.009591 39.301886 
z
" style="fill:#008000;"/>
   </g>
   <g id="patch_20">
    <path clip-path="url(#p74d229bc4e)" d="M 417.557522 152.035179 
Q 414.403454 154.767589 411.011079 156.140033 
Q 407.618703 157.5 404.002039 157.5 
Q 395.829498 157.5 391.056342 149.365152 
Q 386.283186 141.230304 386.283186 127.318715 
Q 386.283186 113.244929 391.140451 105.172464 
Q 396.004724 97.1 404.464635 97.1 
Q 407.723839 97.1 410.70969 98.197955 
Q 413.70255 99.283433 416.351967 101.429436 
L 416.351967 113.46951 
Q 413.618442 110.712146 410.912952 109.352179 
Q 408.207463 107.979736 405.487955 107.979736 
Q 400.455465 107.979736 397.728948 112.995394 
Q 395.002432 117.998575 395.002432 127.318715 
Q 395.002432 136.551518 397.630822 141.59213 
Q 400.259212 146.620264 405.095449 146.620264 
Q 406.413149 146.620264 407.541604 146.333299 
Q 408.670059 146.033857 409.567217 145.410019 
L 409.567217 134.106073 
L 404.415572 134.106073 
L 404.415572 124.037327 
L 417.557522 124.037327 
z
" style="fill:#ffa600;"/>
   </g>
   <g id="patch_21">
    <path clip-path="url(#p74d229bc4e)" d="M 386.283186 21.6 
L 417.557522 21.6 
L 417.557522 36.324604 
L 406.306034 36.324604 
L 406.306034 97.1 
L 397.556493 97.1 
L 397.556493 36.324604 
L 386.283186 36.324604 
z
" style="fill:#ff0000;"/>
   </g>
   <g id="patch_22">
    <path clip-path="url(#p74d229bc4e)" d="M 440.8673 154.74925 
L 428.839693 154.74925 
L 426.940597 157.5 
L 419.20354 157.5 
L 430.252825 142.4 
L 439.428591 142.4 
L 450.477876 157.5 
L 442.747213 157.5 
z
M 430.757972 151.946721 
L 438.929839 151.946721 
L 434.850299 145.940377 
z
" style="fill:#008000;"/>
   </g>
   <g id="patch_23">
    <path clip-path="url(#p74d229bc4e)" d="M 450.477876 140.235282 
Q 447.861832 141.308283 445.033037 141.851023 
Q 442.204242 142.4 439.123298 142.4 
Q 429.935625 142.4 424.569582 138.332576 
Q 419.20354 134.265152 419.20354 127.309358 
Q 419.20354 120.32861 424.569582 116.267424 
Q 429.935625 112.2 439.123298 112.2 
Q 442.204242 112.2 445.033037 112.748977 
Q 447.861832 113.291717 450.477876 114.364718 
L 450.477876 120.384755 
Q 447.838193 118.962404 445.277306 118.301136 
Q 442.71642 117.639868 439.887625 117.639868 
Q 434.813129 117.639868 431.905538 120.216319 
Q 429.005826 122.786532 429.005826 127.309358 
Q 429.005826 131.813468 431.905538 134.389919 
Q 434.813129 136.960132 439.887625 136.960132 
Q 442.71642 136.960132 445.277306 136.298864 
Q 447.838193 135.631357 450.477876 134.209006 
z
" style="fill:#0000ff;"/>
   </g>
   <g id="patch_24">
    <path clip-path="url(#p74d229bc4e)" d="M 450.477876 104.002768 
Q 447.323808 108.101384 443.931433 110.16005 
Q 440.539057 112.2 436.922393 112.2 
Q 428.749852 112.2 423.976696 99.997728 
Q 419.20354 87.795455 419.20354 66.928073 
Q 419.20354 45.817393 424.060805 33.708697 
Q 428.925078 21.6 437.384989 21.6 
Q 440.644193 21.6 443.630044 23.246932 
Q 446.622904 24.87515 449.272321 28.094154 
L 449.272321 46.154266 
Q 446.538796 42.018219 443.833306 39.978269 
Q 441.127817 37.919603 438.408309 37.919603 
Q 433.375819 37.919603 430.649302 45.44309 
Q 427.922786 52.947862 427.922786 66.928073 
Q 427.922786 80.777277 430.551176 88.338195 
Q 433.179565 95.880397 438.015803 95.880397 
Q 439.333503 95.880397 440.461958 95.449948 
Q 441.590413 95.000785 442.487571 94.065028 
L 442.487571 77.10911 
L 437.335926 77.10911 
L 437.335926 62.00599 
L 450.477876 62.00599 
z
" style="fill:#ffa600;"/>
   </g>
   <g id="patch_25">
    <path clip-path="url(#p74d229bc4e)" d="M 473.787654 154.74925 
L 461.760047 154.74925 
L 459.860951 157.5 
L 452.123894 157.5 
L 463.173179 142.4 
L 472.348945 142.4 
L 483.39823 157.5 
L 475.667567 157.5 
z
M 463.678326 151.946721 
L 471.850193 151.946721 
L 467.770653 145.940377 
z
" style="fill:#008000;"/>
   </g>
   <g id="patch_26">
    <path clip-path="url(#p74d229bc4e)" d="M 483.39823 140.235282 
Q 480.782186 141.308283 477.953391 141.851023 
Q 475.124596 142.4 472.043652 142.4 
Q 462.855979 142.4 457.489936 138.332576 
Q 452.123894 134.265152 452.123894 127.309358 
Q 452.123894 120.32861 457.489936 116.267424 
Q 462.855979 112.2 472.043652 112.2 
Q 475.124596 112.2 477.953391 112.748977 
Q 480.782186 113.291717 483.39823 114.364718 
L 483.39823 120.384755 
Q 480.758547 118.962404 478.19766 118.301136 
Q 475.636773 117.639868 472.807979 117.639868 
Q 467.733483 117.639868 464.825892 120.216319 
Q 461.92618 122.786532 461.92618 127.309358 
Q 461.92618 131.813468 464.825892 134.389919 
Q 467.733483 136.960132 472.807979 136.960132 
Q 475.636773 136.960132 478.19766 136.298864 
Q 480.758547 135.631357 483.39823 134.209006 
z
" style="fill:#0000ff;"/>
   </g>
   <g id="patch_27">
    <path clip-path="url(#p74d229bc4e)" d="M 483.39823 109.467589 
Q 480.244162 110.833795 476.851787 111.520017 
Q 473.459411 112.2 469.842747 112.2 
Q 461.670206 112.2 456.89705 108.132576 
Q 452.123894 104.065152 452.123894 97.109358 
Q 452.123894 90.072464 456.981158 86.036232 
Q 461.845432 82 470.305343 82 
Q 473.564547 82 476.550398 82.548977 
Q 479.543258 83.091717 482.192675 84.164718 
L 482.192675 90.184755 
Q 479.45915 88.806073 476.75366 88.12609 
Q 474.048171 87.439868 471.328663 87.439868 
Q 466.296173 87.439868 463.569656 89.947697 
Q 460.84314 92.449287 460.84314 97.109358 
Q 460.84314 101.725759 463.471529 104.246065 
Q 466.099919 106.760132 470.936157 106.760132 
Q 472.253857 106.760132 473.382312 106.616649 
Q 474.510767 106.466928 475.407925 106.155009 
L 475.407925 100.503037 
L 470.25628 100.503037 
L 470.25628 95.468663 
L 483.39823 95.468663 
z
" style="fill:#ffa600;"/>
   </g>
   <g id="patch_28">
    <path clip-path="url(#p74d229bc4e)" d="M 452.123894 21.6 
L 483.39823 21.6 
L 483.39823 33.379683 
L 472.146742 33.379683 
L 472.146742 82 
L 463.397201 82 
L 463.397201 33.379683 
L 452.123894 33.379683 
z
" style="fill:#ff0000;"/>
   </g>
   <g id="patch_29">
    <path clip-path="url(#p74d229bc4e)" d="M 506.708008 151.9985 
L 494.680401 151.9985 
L 492.781305 157.5 
L 485.044248 157.5 
L 496.093533 127.3 
L 505.269299 127.3 
L 516.318584 157.5 
L 508.587921 157.5 
z
M 496.59868 146.393442 
L 504.770547 146.393442 
L 500.691007 134.380754 
z
" style="fill:#008000;"/>
   </g>
   <g id="patch_30">
    <path clip-path="url(#p74d229bc4e)" d="M 485.044248 21.6 
L 516.318584 21.6 
L 516.318584 42.214445 
L 505.067096 42.214445 
L 505.067096 127.3 
L 496.317555 127.3 
L 496.317555 42.214445 
L 485.044248 42.214445 
z
" style="fill:#ff0000;"/>
   </g>
   <g id="patch_31">
    <path clip-path="url(#p74d229bc4e)" d="M 549.238938 156.133795 
Q 546.08487 156.816897 542.692495 157.160008 
Q 539.300119 157.5 535.683455 157.5 
Q 527.510914 157.5 522.737758 155.466288 
Q 517.964602 153.432576 517.964602 149.954679 
Q 517.964602 146.436232 522.821866 144.418116 
Q 527.68614 142.4 536.146051 142.4 
Q 539.405255 142.4 542.391106 142.674489 
Q 545.383966 142.945858 548.033383 143.482359 
L 548.033383 146.492378 
Q 545.299858 145.803037 542.594368 145.463045 
Q 539.888879 145.119934 537.169371 145.119934 
Q 532.136881 145.119934 529.410364 146.373848 
Q 526.683847 147.624644 526.683847 149.954679 
Q 526.683847 152.26288 529.312237 153.523032 
Q 531.940627 154.780066 536.776865 154.780066 
Q 538.094565 154.780066 539.22302 154.708325 
Q 540.351475 154.633464 541.248633 154.477505 
L 541.248633 151.651518 
L 536.096988 151.651518 
L 536.096988 149.134332 
L 549.238938 149.134332 
z
" style="fill:#ffa600;"/>
   </g>
   <g id="patch_32">
    <path clip-path="url(#p74d229bc4e)" d="M 539.628362 120.393999 
L 527.600755 120.393999 
L 525.701659 142.4 
L 517.964602 142.4 
L 529.013887 21.6 
L 538.189653 21.6 
L 549.238938 142.4 
L 541.508275 142.4 
z
M 529.519034 97.973768 
L 537.690901 97.973768 
L 533.611361 49.923018 
z
" style="fill:#008000;"/>
   </g>
   <g id="patch_33">
    <path clip-path="url(#p74d229bc4e)" d="M 582.159292 156.417641 
Q 579.543248 156.954142 576.714453 157.225511 
Q 573.885658 157.5 570.804714 157.5 
Q 561.617041 157.5 556.250998 155.466288 
Q 550.884956 153.432576 550.884956 149.954679 
Q 550.884956 146.464305 556.250998 144.433712 
Q 561.617041 142.4 570.804714 142.4 
Q 573.885658 142.4 576.714453 142.674489 
Q 579.543248 142.945858 582.159292 143.482359 
L 582.159292 146.492378 
Q 579.519609 145.781202 576.958722 145.450568 
Q 574.397835 145.119934 571.569041 145.119934 
Q 566.494545 145.119934 563.586954 146.408159 
Q 560.687242 147.693266 560.687242 149.954679 
Q 560.687242 152.206734 563.586954 153.49496 
Q 566.494545 154.780066 571.569041 154.780066 
Q 574.397835 154.780066 576.958722 154.449432 
Q 579.519609 154.115679 582.159292 153.404503 
z
" style="fill:#0000ff;"/>
   </g>
   <g id="patch_34">
    <path clip-path="url(#p74d229bc4e)" d="M 582.159292 141.033795 
Q 579.005224 141.716897 575.612849 142.060008 
Q 572.220473 142.4 568.603809 142.4 
Q 560.431268 142.4 555.658112 140.366288 
Q 550.884956 138.332576 550.884956 134.854679 
Q 550.884956 131.336232 555.74222 129.318116 
Q 560.606494 127.3 569.066405 127.3 
Q 572.325609 127.3 575.31146 127.574489 
Q 578.30432 127.845858 580.953737 128.382359 
L 580.953737 131.392378 
Q 578.220212 130.703037 575.514722 130.363045 
Q 572.809233 130.019934 570.089725 130.019934 
Q 565.057235 130.019934 562.330718 131.273848 
Q 559.604201 132.524644 559.604201 134.854679 
Q 559.604201 137.16288 562.232591 138.423032 
Q 564.860981 139.680066 569.697219 139.680066 
Q 571.014919 139.680066 572.143374 139.608325 
Q 573.271829 139.533464 574.168986 139.377505 
L 574.168986 136.551518 
L 569.017342 136.551518 
L 569.017342 134.034332 
L 582.159292 134.034332 
z
" style="fill:#ffa600;"/>
   </g>
   <g id="patch_35">
    <path clip-path="url(#p74d229bc4e)" d="M 572.548716 108.044749 
L 560.521109 108.044749 
L 558.622013 127.3 
L 550.884956 127.3 
L 561.934241 21.6 
L 571.110007 21.6 
L 582.159292 127.3 
L 574.428629 127.3 
z
M 562.439387 88.427047 
L 570.611255 88.427047 
L 566.531715 46.38264 
z
" style="fill:#008000;"/>
   </g>
   <g id="patch_36">
    <path clip-path="url(#p74d229bc4e)" d="M 615.079646 154.767589 
Q 611.925578 156.133795 608.533203 156.820017 
Q 605.140827 157.5 601.524163 157.5 
Q 593.351622 157.5 588.578466 153.432576 
Q 583.80531 149.365152 583.80531 142.409358 
Q 583.80531 135.372464 588.662574 131.336232 
Q 593.526848 127.3 601.986759 127.3 
Q 605.245963 127.3 608.231814 127.848977 
Q 611.224674 128.391717 613.874091 129.464718 
L 613.874091 135.484755 
Q 611.140566 134.106073 608.435076 133.42609 
Q 605.729587 132.739868 603.010079 132.739868 
Q 597.977589 132.739868 595.251072 135.247697 
Q 592.524555 137.749287 592.524555 142.409358 
Q 592.524555 147.025759 595.152945 149.546065 
Q 597.781335 152.060132 602.617573 152.060132 
Q 603.935272 152.060132 605.063728 151.916649 
Q 606.192183 151.766928 607.08934 151.455009 
L 607.08934 145.803037 
L 601.937696 145.803037 
L 601.937696 140.768663 
L 615.079646 140.768663 
z
" style="fill:#ffa600;"/>
   </g>
   <g id="patch_37">
    <path clip-path="url(#p74d229bc4e)" d="M 583.80531 82 
L 615.079646 82 
L 615.079646 90.834762 
L 603.828158 90.834762 
L 603.828158 127.3 
L 595.078617 127.3 
L 595.078617 90.834762 
L 583.80531 90.834762 
z
" style="fill:#ff0000;"/>
   </g>
   <g id="patch_38">
    <path clip-path="url(#p74d229bc4e)" d="M 605.46907 70.997 
L 593.441463 70.997 
L 591.542367 82 
L 583.80531 82 
L 594.854595 21.6 
L 604.030361 21.6 
L 615.079646 82 
L 607.348983 82 
z
M 595.359741 59.786884 
L 603.531609 59.786884 
L 599.452069 35.761509 
z
" style="fill:#008000;"/>
   </g>
   <g id="patch_39">
    <path clip-path="url(#p74d229bc4e)" d="M 638.389424 154.74925 
L 626.361817 154.74925 
L 624.462721 157.5 
L 616.725664 157.5 
L 627.774949 142.4 
L 636.950715 142.4 
L 648 157.5 
L 640.269337 157.5 
z
M 628.280095 151.946721 
L 636.451963 151.946721 
L 632.372423 145.940377 
z
" style="fill:#008000;"/>
   </g>
   <g id="patch_40">
    <path clip-path="url(#p74d229bc4e)" d="M 648 139.667589 
Q 644.845932 141.033795 641.453557 141.720017 
Q 638.061181 142.4 634.444517 142.4 
Q 626.271976 142.4 621.49882 138.332576 
Q 616.725664 134.265152 616.725664 127.309358 
Q 616.725664 120.272464 621.582928 116.236232 
Q 626.447202 112.2 634.907113 112.2 
Q 638.166317 112.2 641.152168 112.748977 
Q 644.145028 113.291717 646.794445 114.364718 
L 646.794445 120.384755 
Q 644.06092 119.006073 641.35543 118.32609 
Q 638.649941 117.639868 635.930433 117.639868 
Q 630.897943 117.639868 628.171426 120.147697 
Q 625.444909 122.649287 625.444909 127.309358 
Q 625.444909 131.925759 628.073299 134.446065 
Q 630.701689 136.960132 635.537927 136.960132 
Q 636.855626 136.960132 637.984082 136.816649 
Q 639.112537 136.666928 640.009694 136.355009 
L 640.009694 130.703037 
L 634.85805 130.703037 
L 634.85805 125.668663 
L 648 125.668663 
z
" style="fill:#ffa600;"/>
   </g>
   <g id="patch_41">
    <path clip-path="url(#p74d229bc4e)" d="M 648 108.952923 
Q 645.383956 110.562425 642.555161 111.376534 
Q 639.726366 112.2 636.645422 112.2 
Q 627.457749 112.2 622.091706 106.098864 
Q 616.725664 99.997728 616.725664 89.564036 
Q 616.725664 79.092915 622.091706 73.001136 
Q 627.457749 66.9 636.645422 66.9 
Q 639.726366 66.9 642.555161 67.723466 
Q 645.383956 68.537575 648 70.147077 
L 648 79.177133 
Q 645.360317 77.043607 642.79943 76.051704 
Q 640.238543 75.059802 637.409749 75.059802 
Q 632.335253 75.059802 629.427662 78.924478 
Q 626.52795 82.779798 626.52795 89.564036 
Q 626.52795 96.320202 629.427662 100.184879 
Q 632.335253 104.040198 637.409749 104.040198 
Q 640.238543 104.040198 642.79943 103.048296 
Q 645.360317 102.047036 648 99.91351 
z
" style="fill:#0000ff;"/>
   </g>
   <g id="patch_42">
    <path clip-path="url(#p74d229bc4e)" d="M 616.725664 21.6 
L 648 21.6 
L 648 30.434762 
L 636.748512 30.434762 
L 636.748512 66.9 
L 627.998971 66.9 
L 627.998971 30.434762 
L 616.725664 30.434762 
z
" style="fill:#ff0000;"/>
   </g>
  </g>
 </g>
 <defs>
  <clipPath id="p74d229bc4e">
   <rect height="135.9" width="558" x="90" y="21.6"/>
  </clipPath>
 </defs>
</svg>
