<?xml version="1.0" encoding="utf-8" standalone="no"?>
<!DOCTYPE svg PUBLIC "-//W3C//DTD SVG 1.1//EN"
  "http://www.w3.org/Graphics/SVG/1.1/DTD/svg11.dtd">
<!-- Created with matplotlib (https://matplotlib.org/) -->
<svg height="180pt" version="1.1" viewBox="0 0 720 180" width="720pt" xmlns="http://www.w3.org/2000/svg" xmlns:xlink="http://www.w3.org/1999/xlink">
 <metadata>
  <rdf:RDF xmlns:cc="http://creativecommons.org/ns#" xmlns:dc="http://purl.org/dc/elements/1.1/" xmlns:rdf="http://www.w3.org/1999/02/22-rdf-syntax-ns#">
   <cc:Work>
    <dc:type rdf:resource="http://purl.org/dc/dcmitype/StillImage"/>
    <dc:date>2021-08-04T22:47:38.480963</dc:date>
    <dc:format>image/svg+xml</dc:format>
    <dc:creator>
     <cc:Agent>
      <dc:title>Matplotlib v3.3.2, https://matplotlib.org/</dc:title>
     </cc:Agent>
    </dc:creator>
   </cc:Work>
  </rdf:RDF>
 </metadata>
 <defs>
  <style type="text/css">*{stroke-linecap:butt;stroke-linejoin:round;}</style>
 </defs>
 <g id="figure_1">
  <g id="patch_1">
   <path d="M 0 180 
L 720 180 
L 720 0 
L 0 0 
z
" style="fill:none;"/>
  </g>
  <g id="axes_1">
   <g id="line2d_1">
    <path clip-path="url(#p711000552b)" d="M 90 157.5 
L 648 157.5 
" style="fill:none;stroke:#000000;stroke-linecap:square;stroke-width:0.5;"/>
   </g>
   <g id="patch_2">
    <path clip-path="url(#p711000552b)" d="M 111.66376 151.9985 
L 99.636153 151.9985 
L 97.737057 157.5 
L 90 157.5 
L 101.049285 127.3 
L 110.225051 127.3 
L 121.274336 157.5 
L 113.543673 157.5 
z
M 101.554432 146.393442 
L 109.726299 146.393442 
L 105.64676 134.380754 
z
" style="fill:#008000;"/>
   </g>
   <g id="patch_3">
    <path clip-path="url(#p711000552b)" d="M 121.274336 125.135282 
Q 118.658292 126.208283 115.829497 126.751023 
Q 113.000702 127.3 109.919759 127.3 
Q 100.732085 127.3 95.366043 123.232576 
Q 90 119.165152 90 112.209358 
Q 90 105.22861 95.366043 101.167424 
Q 100.732085 97.1 109.919759 97.1 
Q 113.000702 97.1 115.829497 97.648977 
Q 118.658292 98.191717 121.274336 99.264718 
L 121.274336 105.284755 
Q 118.634653 103.862404 116.073766 103.201136 
Q 113.51288 102.539868 110.684085 102.539868 
Q 105.609589 102.539868 102.701998 105.116319 
Q 99.802286 107.686532 99.802286 112.209358 
Q 99.802286 116.713468 102.701998 119.289919 
Q 105.609589 121.860132 110.684085 121.860132 
Q 113.51288 121.860132 116.073766 121.198864 
Q 118.634653 120.531357 121.274336 119.109006 
z
" style="fill:#0000ff;"/>
   </g>
   <g id="patch_4">
    <path clip-path="url(#p711000552b)" d="M 90 66.9 
L 121.274336 66.9 
L 121.274336 72.789841 
L 110.022848 72.789841 
L 110.022848 97.1 
L 101.273307 97.1 
L 101.273307 72.789841 
L 90 72.789841 
z
" style="fill:#ff0000;"/>
   </g>
   <g id="patch_5">
    <path clip-path="url(#p711000552b)" d="M 121.274336 62.801384 
Q 118.120268 64.850692 114.727893 65.880025 
Q 111.335518 66.9 107.718853 66.9 
Q 99.546312 66.9 94.773156 60.798864 
Q 90 54.697728 90 44.264036 
Q 90 33.708697 94.857265 27.654348 
Q 99.721538 21.6 108.18145 21.6 
Q 111.440653 21.6 114.426504 22.423466 
Q 117.419364 23.237575 120.068781 24.847077 
L 120.068781 33.877133 
Q 117.335256 31.80911 114.629766 30.789134 
Q 111.924277 29.759802 109.204769 29.759802 
Q 104.172279 29.759802 101.445762 33.521545 
Q 98.719246 37.273931 98.719246 44.264036 
Q 98.719246 51.188639 101.347636 54.969097 
Q 103.976026 58.740198 108.812263 58.740198 
Q 110.129963 58.740198 111.258418 58.524974 
Q 112.386874 58.300392 113.284031 57.832514 
L 113.284031 49.354555 
L 108.132386 49.354555 
L 108.132386 41.802995 
L 121.274336 41.802995 
z
" style="fill:#ffa600;"/>
   </g>
   <g id="patch_6">
    <path clip-path="url(#p711000552b)" d="M 154.19469 156.133795 
Q 151.040622 156.816897 147.648247 157.160008 
Q 144.255872 157.5 140.639207 157.5 
Q 132.466666 157.5 127.69351 155.466288 
Q 122.920354 153.432576 122.920354 149.954679 
Q 122.920354 146.436232 127.777619 144.418116 
Q 132.641892 142.4 141.101804 142.4 
Q 144.361007 142.4 147.346858 142.674489 
Q 150.339718 142.945858 152.989135 143.482359 
L 152.989135 146.492378 
Q 150.25561 145.803037 147.55012 145.463045 
Q 144.844631 145.119934 142.125123 145.119934 
Q 137.092633 145.119934 134.366116 146.373848 
Q 131.6396 147.624644 131.6396 149.954679 
Q 131.6396 152.26288 134.26799 153.523032 
Q 136.89638 154.780066 141.732617 154.780066 
Q 143.050317 154.780066 144.178772 154.708325 
Q 145.307228 154.633464 146.204385 154.477505 
L 146.204385 151.651518 
L 141.05274 151.651518 
L 141.05274 149.134332 
L 154.19469 149.134332 
z
" style="fill:#ffa600;"/>
   </g>
   <g id="patch_7">
    <path clip-path="url(#p711000552b)" d="M 122.920354 127.3 
L 154.19469 127.3 
L 154.19469 130.244921 
L 142.943202 130.244921 
L 142.943202 142.4 
L 134.193661 142.4 
L 134.193661 130.244921 
L 122.920354 130.244921 
z
" style="fill:#ff0000;"/>
   </g>
   <g id="patch_8">
    <path clip-path="url(#p711000552b)" d="M 144.584114 108.044749 
L 132.556507 108.044749 
L 130.657411 127.3 
L 122.920354 127.3 
L 133.969639 21.6 
L 143.145405 21.6 
L 154.19469 127.3 
L 146.464027 127.3 
z
M 134.474786 88.427047 
L 142.646653 88.427047 
L 138.567114 46.38264 
z
" style="fill:#008000;"/>
   </g>
   <g id="patch_9">
    <path clip-path="url(#p711000552b)" d="M 155.840708 21.6 
L 187.115044 21.6 
L 187.115044 48.104286 
L 175.863556 48.104286 
L 175.863556 157.5 
L 167.114015 157.5 
L 167.114015 48.104286 
L 155.840708 48.104286 
z
" style="fill:#ff0000;"/>
   </g>
   <g id="patch_10">
    <path clip-path="url(#p711000552b)" d="M 220.035398 145.204152 
Q 216.88133 151.352076 213.488955 154.440074 
Q 210.09658 157.5 206.479915 157.5 
Q 198.307374 157.5 193.534218 139.196592 
Q 188.761062 120.893183 188.761062 89.592109 
Q 188.761062 57.92609 193.618327 39.763045 
Q 198.4826 21.6 206.942512 21.6 
Q 210.201715 21.6 213.187566 24.070399 
Q 216.180426 26.512725 218.829843 31.341231 
L 218.829843 58.431398 
Q 216.096318 52.227329 213.390828 49.167403 
Q 210.685339 46.079405 207.965831 46.079405 
Q 202.933341 46.079405 200.206824 57.364635 
Q 197.480308 68.621793 197.480308 89.592109 
Q 197.480308 110.365916 200.108698 121.707292 
Q 202.737088 133.020595 207.573325 133.020595 
Q 208.891025 133.020595 210.01948 132.374923 
Q 211.147936 131.701177 212.045093 130.297542 
L 212.045093 104.863665 
L 206.893448 104.863665 
L 206.893448 82.208986 
L 220.035398 82.208986 
z
" style="fill:#ffa600;"/>
   </g>
   <g id="patch_11">
    <path clip-path="url(#p711000552b)" d="M 252.955752 156.417641 
Q 250.339708 156.954142 247.510913 157.225511 
Q 244.682118 157.5 241.601175 157.5 
Q 232.413501 157.5 227.047459 155.466288 
Q 221.681416 153.432576 221.681416 149.954679 
Q 221.681416 146.464305 227.047459 144.433712 
Q 232.413501 142.4 241.601175 142.4 
Q 244.682118 142.4 247.510913 142.674489 
Q 250.339708 142.945858 252.955752 143.482359 
L 252.955752 146.492378 
Q 250.316069 145.781202 247.755182 145.450568 
Q 245.194296 145.119934 242.365501 145.119934 
Q 237.291005 145.119934 234.383414 146.408159 
Q 231.483702 147.693266 231.483702 149.954679 
Q 231.483702 152.206734 234.383414 153.49496 
Q 237.291005 154.780066 242.365501 154.780066 
Q 245.194296 154.780066 247.755182 154.449432 
Q 250.316069 154.115679 252.955752 153.404503 
z
" style="fill:#0000ff;"/>
   </g>
   <g id="patch_12">
    <path clip-path="url(#p711000552b)" d="M 221.681416 112.2 
L 252.955752 112.2 
L 252.955752 118.089841 
L 241.704264 118.089841 
L 241.704264 142.4 
L 232.954723 142.4 
L 232.954723 118.089841 
L 221.681416 118.089841 
z
" style="fill:#ff0000;"/>
   </g>
   <g id="patch_13">
    <path clip-path="url(#p711000552b)" d="M 252.955752 104.002768 
Q 249.801684 108.101384 246.409309 110.16005 
Q 243.016934 112.2 239.400269 112.2 
Q 231.227728 112.2 226.454572 99.997728 
Q 221.681416 87.795455 221.681416 66.928073 
Q 221.681416 45.817393 226.538681 33.708697 
Q 231.402954 21.6 239.862866 21.6 
Q 243.122069 21.6 246.10792 23.246932 
Q 249.10078 24.87515 251.750197 28.094154 
L 251.750197 46.154266 
Q 249.016672 42.018219 246.311182 39.978269 
Q 243.605693 37.919603 240.886185 37.919603 
Q 235.853695 37.919603 233.127178 45.44309 
Q 230.400662 52.947862 230.400662 66.928073 
Q 230.400662 80.777277 233.029052 88.338195 
Q 235.657442 95.880397 240.493679 95.880397 
Q 241.811379 95.880397 242.939834 95.449948 
Q 244.06829 95.000785 244.965447 94.065028 
L 244.965447 77.10911 
L 239.813802 77.10911 
L 239.813802 62.00599 
L 252.955752 62.00599 
z
" style="fill:#ffa600;"/>
   </g>
   <g id="patch_14">
    <path clip-path="url(#p711000552b)" d="M 276.26553 154.74925 
L 264.237923 154.74925 
L 262.338827 157.5 
L 254.60177 157.5 
L 265.651055 142.4 
L 274.826821 142.4 
L 285.876106 157.5 
L 278.145443 157.5 
z
M 266.156202 151.946721 
L 274.328069 151.946721 
L 270.248529 145.940377 
z
" style="fill:#008000;"/>
   </g>
   <g id="patch_15">
    <path clip-path="url(#p711000552b)" d="M 285.876106 141.033795 
Q 282.722038 141.716897 279.329663 142.060008 
Q 275.937288 142.4 272.320623 142.4 
Q 264.148082 142.4 259.374926 140.366288 
Q 254.60177 138.332576 254.60177 134.854679 
Q 254.60177 131.336232 259.459035 129.318116 
Q 264.323308 127.3 272.78322 127.3 
Q 276.042423 127.3 279.028274 127.574489 
Q 282.021134 127.845858 284.670551 128.382359 
L 284.670551 131.392378 
Q 281.937026 130.703037 279.231536 130.363045 
Q 276.526047 130.019934 273.806539 130.019934 
Q 268.774049 130.019934 266.047532 131.273848 
Q 263.321016 132.524644 263.321016 134.854679 
Q 263.321016 137.16288 265.949406 138.423032 
Q 268.577796 139.680066 273.414033 139.680066 
Q 274.731733 139.680066 275.860188 139.608325 
Q 276.988644 139.533464 277.885801 139.377505 
L 277.885801 136.551518 
L 272.734156 136.551518 
L 272.734156 134.034332 
L 285.876106 134.034332 
z
" style="fill:#ffa600;"/>
   </g>
   <g id="patch_16">
    <path clip-path="url(#p711000552b)" d="M 254.60177 21.6 
L 285.876106 21.6 
L 285.876106 42.214445 
L 274.624618 42.214445 
L 274.624618 127.3 
L 265.875077 127.3 
L 265.875077 42.214445 
L 254.60177 42.214445 
z
" style="fill:#ff0000;"/>
   </g>
   <g id="patch_17">
    <path clip-path="url(#p711000552b)" d="M 318.79646 156.417641 
Q 316.180416 156.954142 313.351621 157.225511 
Q 310.522826 157.5 307.441883 157.5 
Q 298.254209 157.5 292.888166 155.466288 
Q 287.522124 153.432576 287.522124 149.954679 
Q 287.522124 146.464305 292.888166 144.433712 
Q 298.254209 142.4 307.441883 142.4 
Q 310.522826 142.4 313.351621 142.674489 
Q 316.180416 142.945858 318.79646 143.482359 
L 318.79646 146.492378 
Q 316.156777 145.781202 313.59589 145.450568 
Q 311.035004 145.119934 308.206209 145.119934 
Q 303.131713 145.119934 300.224122 146.408159 
Q 297.32441 147.693266 297.32441 149.954679 
Q 297.32441 152.206734 300.224122 153.49496 
Q 303.131713 154.780066 308.206209 154.780066 
Q 311.035004 154.780066 313.59589 154.449432 
Q 316.156777 154.115679 318.79646 153.404503 
z
" style="fill:#0000ff;"/>
   </g>
   <g id="patch_18">
    <path clip-path="url(#p711000552b)" d="M 287.522124 21.6 
L 318.79646 21.6 
L 318.79646 45.159366 
L 307.544972 45.159366 
L 307.544972 142.4 
L 298.795431 142.4 
L 298.795431 45.159366 
L 287.522124 45.159366 
z
" style="fill:#ff0000;"/>
   </g>
   <g id="patch_19">
    <path clip-path="url(#p711000552b)" d="M 351.716814 145.204152 
Q 348.562746 151.352076 345.170371 154.440074 
Q 341.777996 157.5 338.161331 157.5 
Q 329.98879 157.5 325.215634 139.196592 
Q 320.442478 120.893183 320.442478 89.592109 
Q 320.442478 57.92609 325.299743 39.763045 
Q 330.164016 21.6 338.623928 21.6 
Q 341.883131 21.6 344.868982 24.070399 
Q 347.861842 26.512725 350.511259 31.341231 
L 350.511259 58.431398 
Q 347.777734 52.227329 345.072244 49.167403 
Q 342.366755 46.079405 339.647247 46.079405 
Q 334.614757 46.079405 331.88824 57.364635 
Q 329.161724 68.621793 329.161724 89.592109 
Q 329.161724 110.365916 331.790114 121.707292 
Q 334.418504 133.020595 339.254741 133.020595 
Q 340.572441 133.020595 341.700896 132.374923 
Q 342.829351 131.701177 343.726509 130.297542 
L 343.726509 104.863665 
L 338.574864 104.863665 
L 338.574864 82.208986 
L 351.716814 82.208986 
z
" style="fill:#ffa600;"/>
   </g>
   <g id="patch_20">
    <path clip-path="url(#p711000552b)" d="M 384.637168 156.133795 
Q 381.4831 156.816897 378.090725 157.160008 
Q 374.698349 157.5 371.081685 157.5 
Q 362.909144 157.5 358.135988 155.466288 
Q 353.362832 153.432576 353.362832 149.954679 
Q 353.362832 146.436232 358.220097 144.418116 
Q 363.08437 142.4 371.544282 142.4 
Q 374.803485 142.4 377.789336 142.674489 
Q 380.782196 142.945858 383.431613 143.482359 
L 383.431613 146.492378 
Q 380.698088 145.803037 377.992598 145.463045 
Q 375.287109 145.119934 372.567601 145.119934 
Q 367.535111 145.119934 364.808594 146.373848 
Q 362.082078 147.624644 362.082078 149.954679 
Q 362.082078 152.26288 364.710468 153.523032 
Q 367.338858 154.780066 372.175095 154.780066 
Q 373.492795 154.780066 374.62125 154.708325 
Q 375.749705 154.633464 376.646863 154.477505 
L 376.646863 151.651518 
L 371.495218 151.651518 
L 371.495218 149.134332 
L 384.637168 149.134332 
z
" style="fill:#ffa600;"/>
   </g>
   <g id="patch_21">
    <path clip-path="url(#p711000552b)" d="M 384.637168 133.741128 
Q 382.021124 138.033134 379.192329 140.20409 
Q 376.363534 142.4 373.282591 142.4 
Q 364.094917 142.4 358.728874 126.130304 
Q 353.362832 109.860607 353.362832 82.03743 
Q 353.362832 54.114439 358.728874 37.869696 
Q 364.094917 21.6 373.282591 21.6 
Q 376.363534 21.6 379.192329 23.79591 
Q 382.021124 25.966866 384.637168 30.258872 
L 384.637168 54.339021 
Q 381.997485 48.649618 379.436598 46.004545 
Q 376.875712 43.359471 374.046917 43.359471 
Q 368.972421 43.359471 366.06483 53.665276 
Q 363.165118 63.946127 363.165118 82.03743 
Q 363.165118 100.053873 366.06483 110.359678 
Q 368.972421 120.640529 374.046917 120.640529 
Q 376.875712 120.640529 379.436598 117.995455 
Q 381.997485 115.325429 384.637168 109.636026 
z
" style="fill:#0000ff;"/>
   </g>
   <g id="patch_22">
    <path clip-path="url(#p711000552b)" d="M 386.283186 112.2 
L 417.557522 112.2 
L 417.557522 121.034762 
L 406.306034 121.034762 
L 406.306034 157.5 
L 397.556493 157.5 
L 397.556493 121.034762 
L 386.283186 121.034762 
z
" style="fill:#ff0000;"/>
   </g>
   <g id="patch_23">
    <path clip-path="url(#p711000552b)" d="M 417.557522 104.002768 
Q 414.403454 108.101384 411.011079 110.16005 
Q 407.618703 112.2 404.002039 112.2 
Q 395.829498 112.2 391.056342 99.997728 
Q 386.283186 87.795455 386.283186 66.928073 
Q 386.283186 45.817393 391.140451 33.708697 
Q 396.004724 21.6 404.464635 21.6 
Q 407.723839 21.6 410.70969 23.246932 
Q 413.70255 24.87515 416.351967 28.094154 
L 416.351967 46.154266 
Q 413.618442 42.018219 410.912952 39.978269 
Q 408.207463 37.919603 405.487955 37.919603 
Q 400.455465 37.919603 397.728948 45.44309 
Q 395.002432 52.947862 395.002432 66.928073 
Q 395.002432 80.777277 397.630822 88.338195 
Q 400.259212 95.880397 405.095449 95.880397 
Q 406.413149 95.880397 407.541604 95.449948 
Q 408.670059 95.000785 409.567217 94.065028 
L 409.567217 77.10911 
L 404.415572 77.10911 
L 404.415572 62.00599 
L 417.557522 62.00599 
z
" style="fill:#ffa600;"/>
   </g>
   <g id="patch_24">
    <path clip-path="url(#p711000552b)" d="M 419.20354 142.4 
L 450.477876 142.4 
L 450.477876 145.344921 
L 439.226388 145.344921 
L 439.226388 157.5 
L 430.476847 157.5 
L 430.476847 145.344921 
L 419.20354 145.344921 
z
" style="fill:#ff0000;"/>
   </g>
   <g id="patch_25">
    <path clip-path="url(#p711000552b)" d="M 440.8673 120.393999 
L 428.839693 120.393999 
L 426.940597 142.4 
L 419.20354 142.4 
L 430.252825 21.6 
L 439.428591 21.6 
L 450.477876 142.4 
L 442.747213 142.4 
z
M 430.757972 97.973768 
L 438.929839 97.973768 
L 434.850299 49.923018 
z
" style="fill:#008000;"/>
   </g>
   <g id="patch_26">
    <path clip-path="url(#p711000552b)" d="M 483.39823 156.133795 
Q 480.244162 156.816897 476.851787 157.160008 
Q 473.459411 157.5 469.842747 157.5 
Q 461.670206 157.5 456.89705 155.466288 
Q 452.123894 153.432576 452.123894 149.954679 
Q 452.123894 146.436232 456.981158 144.418116 
Q 461.845432 142.4 470.305343 142.4 
Q 473.564547 142.4 476.550398 142.674489 
Q 479.543258 142.945858 482.192675 143.482359 
L 482.192675 146.492378 
Q 479.45915 145.803037 476.75366 145.463045 
Q 474.048171 145.119934 471.328663 145.119934 
Q 466.296173 145.119934 463.569656 146.373848 
Q 460.84314 147.624644 460.84314 149.954679 
Q 460.84314 152.26288 463.471529 153.523032 
Q 466.099919 154.780066 470.936157 154.780066 
Q 472.253857 154.780066 473.382312 154.708325 
Q 474.510767 154.633464 475.407925 154.477505 
L 475.407925 151.651518 
L 470.25628 151.651518 
L 470.25628 149.134332 
L 483.39823 149.134332 
z
" style="fill:#ffa600;"/>
   </g>
   <g id="patch_27">
    <path clip-path="url(#p711000552b)" d="M 452.123894 127.3 
L 483.39823 127.3 
L 483.39823 130.244921 
L 472.146742 130.244921 
L 472.146742 142.4 
L 463.397201 142.4 
L 463.397201 130.244921 
L 452.123894 130.244921 
z
" style="fill:#ff0000;"/>
   </g>
   <g id="patch_28">
    <path clip-path="url(#p711000552b)" d="M 473.787654 119.04775 
L 461.760047 119.04775 
L 459.860951 127.3 
L 452.123894 127.3 
L 463.173179 82 
L 472.348945 82 
L 483.39823 127.3 
L 475.667567 127.3 
z
M 463.678326 110.640163 
L 471.850193 110.640163 
L 467.770653 92.621132 
z
" style="fill:#008000;"/>
   </g>
   <g id="patch_29">
    <path clip-path="url(#p711000552b)" d="M 483.39823 77.670564 
Q 480.782186 79.816567 477.953391 80.902045 
Q 475.124596 82 472.043652 82 
Q 462.855979 82 457.489936 73.865152 
Q 452.123894 65.730304 452.123894 51.818715 
Q 452.123894 37.85722 457.489936 29.734848 
Q 462.855979 21.6 472.043652 21.6 
Q 475.124596 21.6 477.953391 22.697955 
Q 480.782186 23.783433 483.39823 25.929436 
L 483.39823 37.96951 
Q 480.758547 35.124809 478.19766 33.802272 
Q 475.636773 32.479736 472.807979 32.479736 
Q 467.733483 32.479736 464.825892 37.632638 
Q 461.92618 42.773063 461.92618 51.818715 
Q 461.92618 60.826937 464.825892 65.979839 
Q 467.733483 71.120264 472.807979 71.120264 
Q 475.636773 71.120264 478.19766 69.797728 
Q 480.758547 68.462714 483.39823 65.618013 
z
" style="fill:#0000ff;"/>
   </g>
   <g id="patch_30">
    <path clip-path="url(#p711000552b)" d="M 485.044248 142.4 
L 516.318584 142.4 
L 516.318584 145.344921 
L 505.067096 145.344921 
L 505.067096 157.5 
L 496.317555 157.5 
L 496.317555 145.344921 
L 485.044248 145.344921 
z
" style="fill:#ff0000;"/>
   </g>
   <g id="patch_31">
    <path clip-path="url(#p711000552b)" d="M 506.708008 136.8985 
L 494.680401 136.8985 
L 492.781305 142.4 
L 485.044248 142.4 
L 496.093533 112.2 
L 505.269299 112.2 
L 516.318584 142.4 
L 508.587921 142.4 
z
M 496.59868 131.293442 
L 504.770547 131.293442 
L 500.691007 119.280754 
z
" style="fill:#008000;"/>
   </g>
   <g id="patch_32">
    <path clip-path="url(#p711000552b)" d="M 516.318584 109.467589 
Q 513.164516 110.833795 509.772141 111.520017 
Q 506.379765 112.2 502.763101 112.2 
Q 494.59056 112.2 489.817404 108.132576 
Q 485.044248 104.065152 485.044248 97.109358 
Q 485.044248 90.072464 489.901512 86.036232 
Q 494.765786 82 503.225697 82 
Q 506.484901 82 509.470752 82.548977 
Q 512.463612 83.091717 515.113029 84.164718 
L 515.113029 90.184755 
Q 512.379504 88.806073 509.674014 88.12609 
Q 506.968525 87.439868 504.249017 87.439868 
Q 499.216527 87.439868 496.49001 89.947697 
Q 493.763493 92.449287 493.763493 97.109358 
Q 493.763493 101.725759 496.391883 104.246065 
Q 499.020273 106.760132 503.856511 106.760132 
Q 505.174211 106.760132 506.302666 106.616649 
Q 507.431121 106.466928 508.328279 106.155009 
L 508.328279 100.503037 
L 503.176634 100.503037 
L 503.176634 95.468663 
L 516.318584 95.468663 
z
" style="fill:#ffa600;"/>
   </g>
   <g id="patch_33">
    <path clip-path="url(#p711000552b)" d="M 516.318584 77.670564 
Q 513.70254 79.816567 510.873745 80.902045 
Q 508.04495 82 504.964006 82 
Q 495.776333 82 490.41029 73.865152 
Q 485.044248 65.730304 485.044248 51.818715 
Q 485.044248 37.85722 490.41029 29.734848 
Q 495.776333 21.6 504.964006 21.6 
Q 508.04495 21.6 510.873745 22.697955 
Q 513.70254 23.783433 516.318584 25.929436 
L 516.318584 37.96951 
Q 513.678901 35.124809 511.118014 33.802272 
Q 508.557127 32.479736 505.728333 32.479736 
Q 500.653837 32.479736 497.746246 37.632638 
Q 494.846534 42.773063 494.846534 51.818715 
Q 494.846534 60.826937 497.746246 65.979839 
Q 500.653837 71.120264 505.728333 71.120264 
Q 508.557127 71.120264 511.118014 69.797728 
Q 513.678901 68.462714 516.318584 65.618013 
z
" style="fill:#0000ff;"/>
   </g>
   <g id="patch_34">
    <path clip-path="url(#p711000552b)" d="M 549.238938 156.417641 
Q 546.622894 156.954142 543.794099 157.225511 
Q 540.965304 157.5 537.88436 157.5 
Q 528.696687 157.5 523.330644 155.466288 
Q 517.964602 153.432576 517.964602 149.954679 
Q 517.964602 146.464305 523.330644 144.433712 
Q 528.696687 142.4 537.88436 142.4 
Q 540.965304 142.4 543.794099 142.674489 
Q 546.622894 142.945858 549.238938 143.482359 
L 549.238938 146.492378 
Q 546.599255 145.781202 544.038368 145.450568 
Q 541.477481 145.119934 538.648687 145.119934 
Q 533.574191 145.119934 530.6666 146.408159 
Q 527.766888 147.693266 527.766888 149.954679 
Q 527.766888 152.206734 530.6666 153.49496 
Q 533.574191 154.780066 538.648687 154.780066 
Q 541.477481 154.780066 544.038368 154.449432 
Q 546.599255 154.115679 549.238938 153.404503 
z
" style="fill:#0000ff;"/>
   </g>
   <g id="patch_35">
    <path clip-path="url(#p711000552b)" d="M 549.238938 138.301384 
Q 546.08487 140.350692 542.692495 141.380025 
Q 539.300119 142.4 535.683455 142.4 
Q 527.510914 142.4 522.737758 136.298864 
Q 517.964602 130.197728 517.964602 119.764036 
Q 517.964602 109.208697 522.821866 103.154348 
Q 527.68614 97.1 536.146051 97.1 
Q 539.405255 97.1 542.391106 97.923466 
Q 545.383966 98.737575 548.033383 100.347077 
L 548.033383 109.377133 
Q 545.299858 107.30911 542.594368 106.289134 
Q 539.888879 105.259802 537.169371 105.259802 
Q 532.136881 105.259802 529.410364 109.021545 
Q 526.683847 112.773931 526.683847 119.764036 
Q 526.683847 126.688639 529.312237 130.469097 
Q 531.940627 134.240198 536.776865 134.240198 
Q 538.094565 134.240198 539.22302 134.024974 
Q 540.351475 133.800392 541.248633 133.332514 
L 541.248633 124.854555 
L 536.096988 124.854555 
L 536.096988 117.302995 
L 549.238938 117.302995 
z
" style="fill:#ffa600;"/>
   </g>
   <g id="patch_36">
    <path clip-path="url(#p711000552b)" d="M 539.628362 83.346249 
L 527.600755 83.346249 
L 525.701659 97.1 
L 517.964602 97.1 
L 529.013887 21.6 
L 538.189653 21.6 
L 549.238938 97.1 
L 541.508275 97.1 
z
M 529.519034 69.333605 
L 537.690901 69.333605 
L 533.611361 39.301886 
z
" style="fill:#008000;"/>
   </g>
   <g id="patch_37">
    <path clip-path="url(#p711000552b)" d="M 582.159292 156.417641 
Q 579.543248 156.954142 576.714453 157.225511 
Q 573.885658 157.5 570.804714 157.5 
Q 561.617041 157.5 556.250998 155.466288 
Q 550.884956 153.432576 550.884956 149.954679 
Q 550.884956 146.464305 556.250998 144.433712 
Q 561.617041 142.4 570.804714 142.4 
Q 573.885658 142.4 576.714453 142.674489 
Q 579.543248 142.945858 582.159292 143.482359 
L 582.159292 146.492378 
Q 579.519609 145.781202 576.958722 145.450568 
Q 574.397835 145.119934 571.569041 145.119934 
Q 566.494545 145.119934 563.586954 146.408159 
Q 560.687242 147.693266 560.687242 149.954679 
Q 560.687242 152.206734 563.586954 153.49496 
Q 566.494545 154.780066 571.569041 154.780066 
Q 574.397835 154.780066 576.958722 154.449432 
Q 579.519609 154.115679 582.159292 153.404503 
z
" style="fill:#0000ff;"/>
   </g>
   <g id="patch_38">
    <path clip-path="url(#p711000552b)" d="M 550.884956 127.3 
L 582.159292 127.3 
L 582.159292 130.244921 
L 570.907804 130.244921 
L 570.907804 142.4 
L 562.158263 142.4 
L 562.158263 130.244921 
L 550.884956 130.244921 
z
" style="fill:#ff0000;"/>
   </g>
   <g id="patch_39">
    <path clip-path="url(#p711000552b)" d="M 572.548716 119.04775 
L 560.521109 119.04775 
L 558.622013 127.3 
L 550.884956 127.3 
L 561.934241 82 
L 571.110007 82 
L 582.159292 127.3 
L 574.428629 127.3 
z
M 562.439387 110.640163 
L 570.611255 110.640163 
L 566.531715 92.621132 
z
" style="fill:#008000;"/>
   </g>
   <g id="patch_40">
    <path clip-path="url(#p711000552b)" d="M 582.159292 76.535179 
Q 579.005224 79.267589 575.612849 80.640033 
Q 572.220473 82 568.603809 82 
Q 560.431268 82 555.658112 73.865152 
Q 550.884956 65.730304 550.884956 51.818715 
Q 550.884956 37.744929 555.74222 29.672464 
Q 560.606494 21.6 569.066405 21.6 
Q 572.325609 21.6 575.31146 22.697955 
Q 578.30432 23.783433 580.953737 25.929436 
L 580.953737 37.96951 
Q 578.220212 35.212146 575.514722 33.852179 
Q 572.809233 32.479736 570.089725 32.479736 
Q 565.057235 32.479736 562.330718 37.495394 
Q 559.604201 42.498575 559.604201 51.818715 
Q 559.604201 61.051518 562.232591 66.09213 
Q 564.860981 71.120264 569.697219 71.120264 
Q 571.014919 71.120264 572.143374 70.833299 
Q 573.271829 70.533857 574.168986 69.910019 
L 574.168986 58.606073 
L 569.017342 58.606073 
L 569.017342 48.537327 
L 582.159292 48.537327 
z
" style="fill:#ffa600;"/>
   </g>
   <g id="patch_41">
    <path clip-path="url(#p711000552b)" d="M 605.46907 151.9985 
L 593.441463 151.9985 
L 591.542367 157.5 
L 583.80531 157.5 
L 594.854595 127.3 
L 604.030361 127.3 
L 615.079646 157.5 
L 607.348983 157.5 
z
M 595.359741 146.393442 
L 603.531609 146.393442 
L 599.452069 134.380754 
z
" style="fill:#008000;"/>
   </g>
   <g id="patch_42">
    <path clip-path="url(#p711000552b)" d="M 615.079646 124.052923 
Q 612.463602 125.662425 609.634807 126.476534 
Q 606.806012 127.3 603.725068 127.3 
Q 594.537395 127.3 589.171352 121.198864 
Q 583.80531 115.097728 583.80531 104.664036 
Q 583.80531 94.192915 589.171352 88.101136 
Q 594.537395 82 603.725068 82 
Q 606.806012 82 609.634807 82.823466 
Q 612.463602 83.637575 615.079646 85.247077 
L 615.079646 94.277133 
Q 612.439963 92.143607 609.879076 91.151704 
Q 607.318189 90.159802 604.489395 90.159802 
Q 599.414899 90.159802 596.507308 94.024478 
Q 593.607596 97.879798 593.607596 104.664036 
Q 593.607596 111.420202 596.507308 115.284879 
Q 599.414899 119.140198 604.489395 119.140198 
Q 607.318189 119.140198 609.879076 118.148296 
Q 612.439963 117.147036 615.079646 115.01351 
z
" style="fill:#0000ff;"/>
   </g>
   <g id="patch_43">
    <path clip-path="url(#p711000552b)" d="M 583.80531 21.6 
L 615.079646 21.6 
L 615.079646 33.379683 
L 603.828158 33.379683 
L 603.828158 82 
L 595.078617 82 
L 595.078617 33.379683 
L 583.80531 33.379683 
z
" style="fill:#ff0000;"/>
   </g>
   <g id="patch_44">
    <path clip-path="url(#p711000552b)" d="M 648 156.417641 
Q 645.383956 156.954142 642.555161 157.225511 
Q 639.726366 157.5 636.645422 157.5 
Q 627.457749 157.5 622.091706 155.466288 
Q 616.725664 153.432576 616.725664 149.954679 
Q 616.725664 146.464305 622.091706 144.433712 
Q 627.457749 142.4 636.645422 142.4 
Q 639.726366 142.4 642.555161 142.674489 
Q 645.383956 142.945858 648 143.482359 
L 648 146.492378 
Q 645.360317 145.781202 642.79943 145.450568 
Q 640.238543 145.119934 637.409749 145.119934 
Q 632.335253 145.119934 629.427662 146.408159 
Q 626.52795 147.693266 626.52795 149.954679 
Q 626.52795 152.206734 629.427662 153.49496 
Q 632.335253 154.780066 637.409749 154.780066 
Q 640.238543 154.780066 642.79943 154.449432 
Q 645.360317 154.115679 648 153.404503 
z
" style="fill:#0000ff;"/>
   </g>
   <g id="patch_45">
    <path clip-path="url(#p711000552b)" d="M 648 139.667589 
Q 644.845932 141.033795 641.453557 141.720017 
Q 638.061181 142.4 634.444517 142.4 
Q 626.271976 142.4 621.49882 138.332576 
Q 616.725664 134.265152 616.725664 127.309358 
Q 616.725664 120.272464 621.582928 116.236232 
Q 626.447202 112.2 634.907113 112.2 
Q 638.166317 112.2 641.152168 112.748977 
Q 644.145028 113.291717 646.794445 114.364718 
L 646.794445 120.384755 
Q 644.06092 119.006073 641.35543 118.32609 
Q 638.649941 117.639868 635.930433 117.639868 
Q 630.897943 117.639868 628.171426 120.147697 
Q 625.444909 122.649287 625.444909 127.309358 
Q 625.444909 131.925759 628.073299 134.446065 
Q 630.701689 136.960132 635.537927 136.960132 
Q 636.855626 136.960132 637.984082 136.816649 
Q 639.112537 136.666928 640.009694 136.355009 
L 640.009694 130.703037 
L 634.85805 130.703037 
L 634.85805 125.668663 
L 648 125.668663 
z
" style="fill:#ffa600;"/>
   </g>
   <g id="patch_46">
    <path clip-path="url(#p711000552b)" d="M 638.389424 103.94775 
L 626.361817 103.94775 
L 624.462721 112.2 
L 616.725664 112.2 
L 627.774949 66.9 
L 636.950715 66.9 
L 648 112.2 
L 640.269337 112.2 
z
M 628.280095 95.540163 
L 636.451963 95.540163 
L 632.372423 77.521132 
z
" style="fill:#008000;"/>
   </g>
   <g id="patch_47">
    <path clip-path="url(#p711000552b)" d="M 616.725664 21.6 
L 648 21.6 
L 648 30.434762 
L 636.748512 30.434762 
L 636.748512 66.9 
L 627.998971 66.9 
L 627.998971 30.434762 
L 616.725664 30.434762 
z
" style="fill:#ff0000;"/>
   </g>
  </g>
 </g>
 <defs>
  <clipPath id="p711000552b">
   <rect height="135.9" width="558" x="90" y="21.6"/>
  </clipPath>
 </defs>
</svg>
