<?xml version="1.0" encoding="utf-8" standalone="no"?>
<!DOCTYPE svg PUBLIC "-//W3C//DTD SVG 1.1//EN"
  "http://www.w3.org/Graphics/SVG/1.1/DTD/svg11.dtd">
<!-- Created with matplotlib (https://matplotlib.org/) -->
<svg height="180pt" version="1.1" viewBox="0 0 720 180" width="720pt" xmlns="http://www.w3.org/2000/svg" xmlns:xlink="http://www.w3.org/1999/xlink">
 <metadata>
  <rdf:RDF xmlns:cc="http://creativecommons.org/ns#" xmlns:dc="http://purl.org/dc/elements/1.1/" xmlns:rdf="http://www.w3.org/1999/02/22-rdf-syntax-ns#">
   <cc:Work>
    <dc:type rdf:resource="http://purl.org/dc/dcmitype/StillImage"/>
    <dc:date>2021-08-04T23:33:33.634465</dc:date>
    <dc:format>image/svg+xml</dc:format>
    <dc:creator>
     <cc:Agent>
      <dc:title>Matplotlib v3.3.2, https://matplotlib.org/</dc:title>
     </cc:Agent>
    </dc:creator>
   </cc:Work>
  </rdf:RDF>
 </metadata>
 <defs>
  <style type="text/css">*{stroke-linecap:butt;stroke-linejoin:round;}</style>
 </defs>
 <g id="figure_1">
  <g id="patch_1">
   <path d="M 0 180 
L 720 180 
L 720 0 
L 0 0 
z
" style="fill:none;"/>
  </g>
  <g id="axes_1">
   <g id="line2d_1">
    <path clip-path="url(#p2226cfdd0c)" d="M 90 157.5 
L 648 157.5 
" style="fill:none;stroke:#000000;stroke-linecap:square;stroke-width:0.5;"/>
   </g>
   <g id="patch_2">
    <path clip-path="url(#p2226cfdd0c)" d="M 111.66376 151.9985 
L 99.636153 151.9985 
L 97.737057 157.5 
L 90 157.5 
L 101.049285 127.3 
L 110.225051 127.3 
L 121.274336 157.5 
L 113.543673 157.5 
z
M 101.554432 146.393442 
L 109.726299 146.393442 
L 105.64676 134.380754 
z
" style="fill:#008000;"/>
   </g>
   <g id="patch_3">
    <path clip-path="url(#p2226cfdd0c)" d="M 144.584114 154.74925 
L 132.556507 154.74925 
L 130.657411 157.5 
L 122.920354 157.5 
L 133.969639 142.4 
L 143.145405 142.4 
L 154.19469 157.5 
L 146.464027 157.5 
z
M 134.474786 151.946721 
L 142.646653 151.946721 
L 138.567114 145.940377 
z
" style="fill:#008000;"/>
   </g>
   <g id="patch_4">
    <path clip-path="url(#p2226cfdd0c)" d="M 122.920354 127.3 
L 154.19469 127.3 
L 154.19469 130.244921 
L 142.943202 130.244921 
L 142.943202 142.4 
L 134.193661 142.4 
L 134.193661 130.244921 
L 122.920354 130.244921 
z
" style="fill:#ff0000;"/>
   </g>
   <g id="patch_5">
    <path clip-path="url(#p2226cfdd0c)" d="M 177.504468 151.9985 
L 165.476861 151.9985 
L 163.577765 157.5 
L 155.840708 157.5 
L 166.889993 127.3 
L 176.065759 127.3 
L 187.115044 157.5 
L 179.384381 157.5 
z
M 167.39514 146.393442 
L 175.567007 146.393442 
L 171.487467 134.380754 
z
" style="fill:#008000;"/>
   </g>
   <g id="patch_6">
    <path clip-path="url(#p2226cfdd0c)" d="M 210.424822 154.74925 
L 198.397215 154.74925 
L 196.498119 157.5 
L 188.761062 157.5 
L 199.810347 142.4 
L 208.986113 142.4 
L 220.035398 157.5 
L 212.304735 157.5 
z
M 200.315494 151.946721 
L 208.487361 151.946721 
L 204.407821 145.940377 
z
" style="fill:#008000;"/>
   </g>
   <g id="patch_7">
    <path clip-path="url(#p2226cfdd0c)" d="M 220.035398 141.033795 
Q 216.88133 141.716897 213.488955 142.060008 
Q 210.09658 142.4 206.479915 142.4 
Q 198.307374 142.4 193.534218 140.366288 
Q 188.761062 138.332576 188.761062 134.854679 
Q 188.761062 131.336232 193.618327 129.318116 
Q 198.4826 127.3 206.942512 127.3 
Q 210.201715 127.3 213.187566 127.574489 
Q 216.180426 127.845858 218.829843 128.382359 
L 218.829843 131.392378 
Q 216.096318 130.703037 213.390828 130.363045 
Q 210.685339 130.019934 207.965831 130.019934 
Q 202.933341 130.019934 200.206824 131.273848 
Q 197.480308 132.524644 197.480308 134.854679 
Q 197.480308 137.16288 200.108698 138.423032 
Q 202.737088 139.680066 207.573325 139.680066 
Q 208.891025 139.680066 210.01948 139.608325 
Q 211.147936 139.533464 212.045093 139.377505 
L 212.045093 136.551518 
L 206.893448 136.551518 
L 206.893448 134.034332 
L 220.035398 134.034332 
z
" style="fill:#ffa600;"/>
   </g>
   <g id="patch_8">
    <path clip-path="url(#p2226cfdd0c)" d="M 252.955752 156.417641 
Q 250.339708 156.954142 247.510913 157.225511 
Q 244.682118 157.5 241.601175 157.5 
Q 232.413501 157.5 227.047459 155.466288 
Q 221.681416 153.432576 221.681416 149.954679 
Q 221.681416 146.464305 227.047459 144.433712 
Q 232.413501 142.4 241.601175 142.4 
Q 244.682118 142.4 247.510913 142.674489 
Q 250.339708 142.945858 252.955752 143.482359 
L 252.955752 146.492378 
Q 250.316069 145.781202 247.755182 145.450568 
Q 245.194296 145.119934 242.365501 145.119934 
Q 237.291005 145.119934 234.383414 146.408159 
Q 231.483702 147.693266 231.483702 149.954679 
Q 231.483702 152.206734 234.383414 153.49496 
Q 237.291005 154.780066 242.365501 154.780066 
Q 245.194296 154.780066 247.755182 154.449432 
Q 250.316069 154.115679 252.955752 153.404503 
z
" style="fill:#0000ff;"/>
   </g>
   <g id="patch_9">
    <path clip-path="url(#p2226cfdd0c)" d="M 221.681416 127.3 
L 252.955752 127.3 
L 252.955752 130.244921 
L 241.704264 130.244921 
L 241.704264 142.4 
L 232.954723 142.4 
L 232.954723 130.244921 
L 221.681416 130.244921 
z
" style="fill:#ff0000;"/>
   </g>
   <g id="patch_10">
    <path clip-path="url(#p2226cfdd0c)" d="M 285.876106 154.767589 
Q 282.722038 156.133795 279.329663 156.820017 
Q 275.937288 157.5 272.320623 157.5 
Q 264.148082 157.5 259.374926 153.432576 
Q 254.60177 149.365152 254.60177 142.409358 
Q 254.60177 135.372464 259.459035 131.336232 
Q 264.323308 127.3 272.78322 127.3 
Q 276.042423 127.3 279.028274 127.848977 
Q 282.021134 128.391717 284.670551 129.464718 
L 284.670551 135.484755 
Q 281.937026 134.106073 279.231536 133.42609 
Q 276.526047 132.739868 273.806539 132.739868 
Q 268.774049 132.739868 266.047532 135.247697 
Q 263.321016 137.749287 263.321016 142.409358 
Q 263.321016 147.025759 265.949406 149.546065 
Q 268.577796 152.060132 273.414033 152.060132 
Q 274.731733 152.060132 275.860188 151.916649 
Q 276.988644 151.766928 277.885801 151.455009 
L 277.885801 145.803037 
L 272.734156 145.803037 
L 272.734156 140.768663 
L 285.876106 140.768663 
z
" style="fill:#ffa600;"/>
   </g>
   <g id="patch_11">
    <path clip-path="url(#p2226cfdd0c)" d="M 309.185884 154.74925 
L 297.158277 154.74925 
L 295.259181 157.5 
L 287.522124 157.5 
L 298.571409 142.4 
L 307.747175 142.4 
L 318.79646 157.5 
L 311.065797 157.5 
z
M 299.076556 151.946721 
L 307.248423 151.946721 
L 303.168883 145.940377 
z
" style="fill:#008000;"/>
   </g>
   <g id="patch_12">
    <path clip-path="url(#p2226cfdd0c)" d="M 318.79646 141.317641 
Q 316.180416 141.854142 313.351621 142.125511 
Q 310.522826 142.4 307.441883 142.4 
Q 298.254209 142.4 292.888166 140.366288 
Q 287.522124 138.332576 287.522124 134.854679 
Q 287.522124 131.364305 292.888166 129.333712 
Q 298.254209 127.3 307.441883 127.3 
Q 310.522826 127.3 313.351621 127.574489 
Q 316.180416 127.845858 318.79646 128.382359 
L 318.79646 131.392378 
Q 316.156777 130.681202 313.59589 130.350568 
Q 311.035004 130.019934 308.206209 130.019934 
Q 303.131713 130.019934 300.224122 131.308159 
Q 297.32441 132.593266 297.32441 134.854679 
Q 297.32441 137.106734 300.224122 138.39496 
Q 303.131713 139.680066 308.206209 139.680066 
Q 311.035004 139.680066 313.59589 139.349432 
Q 316.156777 139.015679 318.79646 138.304503 
z
" style="fill:#0000ff;"/>
   </g>
   <g id="patch_13">
    <path clip-path="url(#p2226cfdd0c)" d="M 351.716814 156.417641 
Q 349.10077 156.954142 346.271975 157.225511 
Q 343.44318 157.5 340.362237 157.5 
Q 331.174563 157.5 325.80852 155.466288 
Q 320.442478 153.432576 320.442478 149.954679 
Q 320.442478 146.464305 325.80852 144.433712 
Q 331.174563 142.4 340.362237 142.4 
Q 343.44318 142.4 346.271975 142.674489 
Q 349.10077 142.945858 351.716814 143.482359 
L 351.716814 146.492378 
Q 349.077131 145.781202 346.516244 145.450568 
Q 343.955358 145.119934 341.126563 145.119934 
Q 336.052067 145.119934 333.144476 146.408159 
Q 330.244764 147.693266 330.244764 149.954679 
Q 330.244764 152.206734 333.144476 153.49496 
Q 336.052067 154.780066 341.126563 154.780066 
Q 343.955358 154.780066 346.516244 154.449432 
Q 349.077131 154.115679 351.716814 153.404503 
z
" style="fill:#0000ff;"/>
   </g>
   <g id="patch_14">
    <path clip-path="url(#p2226cfdd0c)" d="M 320.442478 127.3 
L 351.716814 127.3 
L 351.716814 130.244921 
L 340.465326 130.244921 
L 340.465326 142.4 
L 331.715785 142.4 
L 331.715785 130.244921 
L 320.442478 130.244921 
z
" style="fill:#ff0000;"/>
   </g>
   <g id="patch_15">
    <path clip-path="url(#p2226cfdd0c)" d="M 384.637168 156.133795 
Q 381.4831 156.816897 378.090725 157.160008 
Q 374.698349 157.5 371.081685 157.5 
Q 362.909144 157.5 358.135988 155.466288 
Q 353.362832 153.432576 353.362832 149.954679 
Q 353.362832 146.436232 358.220097 144.418116 
Q 363.08437 142.4 371.544282 142.4 
Q 374.803485 142.4 377.789336 142.674489 
Q 380.782196 142.945858 383.431613 143.482359 
L 383.431613 146.492378 
Q 380.698088 145.803037 377.992598 145.463045 
Q 375.287109 145.119934 372.567601 145.119934 
Q 367.535111 145.119934 364.808594 146.373848 
Q 362.082078 147.624644 362.082078 149.954679 
Q 362.082078 152.26288 364.710468 153.523032 
Q 367.338858 154.780066 372.175095 154.780066 
Q 373.492795 154.780066 374.62125 154.708325 
Q 375.749705 154.633464 376.646863 154.477505 
L 376.646863 151.651518 
L 371.495218 151.651518 
L 371.495218 149.134332 
L 384.637168 149.134332 
z
" style="fill:#ffa600;"/>
   </g>
   <g id="patch_16">
    <path clip-path="url(#p2226cfdd0c)" d="M 353.362832 127.3 
L 384.637168 127.3 
L 384.637168 130.244921 
L 373.38568 130.244921 
L 373.38568 142.4 
L 364.636139 142.4 
L 364.636139 130.244921 
L 353.362832 130.244921 
z
" style="fill:#ff0000;"/>
   </g>
   <g id="patch_17">
    <path clip-path="url(#p2226cfdd0c)" d="M 417.557522 156.417641 
Q 414.941478 156.954142 412.112683 157.225511 
Q 409.283888 157.5 406.202945 157.5 
Q 397.015271 157.5 391.649228 155.466288 
Q 386.283186 153.432576 386.283186 149.954679 
Q 386.283186 146.464305 391.649228 144.433712 
Q 397.015271 142.4 406.202945 142.4 
Q 409.283888 142.4 412.112683 142.674489 
Q 414.941478 142.945858 417.557522 143.482359 
L 417.557522 146.492378 
Q 414.917839 145.781202 412.356952 145.450568 
Q 409.796066 145.119934 406.967271 145.119934 
Q 401.892775 145.119934 398.985184 146.408159 
Q 396.085472 147.693266 396.085472 149.954679 
Q 396.085472 152.206734 398.985184 153.49496 
Q 401.892775 154.780066 406.967271 154.780066 
Q 409.796066 154.780066 412.356952 154.449432 
Q 414.917839 154.115679 417.557522 153.404503 
z
" style="fill:#0000ff;"/>
   </g>
   <g id="patch_18">
    <path clip-path="url(#p2226cfdd0c)" d="M 417.557522 141.033795 
Q 414.403454 141.716897 411.011079 142.060008 
Q 407.618703 142.4 404.002039 142.4 
Q 395.829498 142.4 391.056342 140.366288 
Q 386.283186 138.332576 386.283186 134.854679 
Q 386.283186 131.336232 391.140451 129.318116 
Q 396.004724 127.3 404.464635 127.3 
Q 407.723839 127.3 410.70969 127.574489 
Q 413.70255 127.845858 416.351967 128.382359 
L 416.351967 131.392378 
Q 413.618442 130.703037 410.912952 130.363045 
Q 408.207463 130.019934 405.487955 130.019934 
Q 400.455465 130.019934 397.728948 131.273848 
Q 395.002432 132.524644 395.002432 134.854679 
Q 395.002432 137.16288 397.630822 138.423032 
Q 400.259212 139.680066 405.095449 139.680066 
Q 406.413149 139.680066 407.541604 139.608325 
Q 408.670059 139.533464 409.567217 139.377505 
L 409.567217 136.551518 
L 404.415572 136.551518 
L 404.415572 134.034332 
L 417.557522 134.034332 
z
" style="fill:#ffa600;"/>
   </g>
   <g id="patch_19">
    <path clip-path="url(#p2226cfdd0c)" d="M 450.477876 155.335282 
Q 447.861832 156.408283 445.033037 156.951023 
Q 442.204242 157.5 439.123298 157.5 
Q 429.935625 157.5 424.569582 153.432576 
Q 419.20354 149.365152 419.20354 142.409358 
Q 419.20354 135.42861 424.569582 131.367424 
Q 429.935625 127.3 439.123298 127.3 
Q 442.204242 127.3 445.033037 127.848977 
Q 447.861832 128.391717 450.477876 129.464718 
L 450.477876 135.484755 
Q 447.838193 134.062404 445.277306 133.401136 
Q 442.71642 132.739868 439.887625 132.739868 
Q 434.813129 132.739868 431.905538 135.316319 
Q 429.005826 137.886532 429.005826 142.409358 
Q 429.005826 146.913468 431.905538 149.489919 
Q 434.813129 152.060132 439.887625 152.060132 
Q 442.71642 152.060132 445.277306 151.398864 
Q 447.838193 150.731357 450.477876 149.309006 
z
" style="fill:#0000ff;"/>
   </g>
   <g id="patch_20">
    <path clip-path="url(#p2226cfdd0c)" d="M 473.787654 154.74925 
L 461.760047 154.74925 
L 459.860951 157.5 
L 452.123894 157.5 
L 463.173179 142.4 
L 472.348945 142.4 
L 483.39823 157.5 
L 475.667567 157.5 
z
M 463.678326 151.946721 
L 471.850193 151.946721 
L 467.770653 145.940377 
z
" style="fill:#008000;"/>
   </g>
   <g id="patch_21">
    <path clip-path="url(#p2226cfdd0c)" d="M 483.39823 141.033795 
Q 480.244162 141.716897 476.851787 142.060008 
Q 473.459411 142.4 469.842747 142.4 
Q 461.670206 142.4 456.89705 140.366288 
Q 452.123894 138.332576 452.123894 134.854679 
Q 452.123894 131.336232 456.981158 129.318116 
Q 461.845432 127.3 470.305343 127.3 
Q 473.564547 127.3 476.550398 127.574489 
Q 479.543258 127.845858 482.192675 128.382359 
L 482.192675 131.392378 
Q 479.45915 130.703037 476.75366 130.363045 
Q 474.048171 130.019934 471.328663 130.019934 
Q 466.296173 130.019934 463.569656 131.273848 
Q 460.84314 132.524644 460.84314 134.854679 
Q 460.84314 137.16288 463.471529 138.423032 
Q 466.099919 139.680066 470.936157 139.680066 
Q 472.253857 139.680066 473.382312 139.608325 
Q 474.510767 139.533464 475.407925 139.377505 
L 475.407925 136.551518 
L 470.25628 136.551518 
L 470.25628 134.034332 
L 483.39823 134.034332 
z
" style="fill:#ffa600;"/>
   </g>
   <g id="patch_22">
    <path clip-path="url(#p2226cfdd0c)" d="M 506.708008 151.9985 
L 494.680401 151.9985 
L 492.781305 157.5 
L 485.044248 157.5 
L 496.093533 127.3 
L 505.269299 127.3 
L 516.318584 157.5 
L 508.587921 157.5 
z
M 496.59868 146.393442 
L 504.770547 146.393442 
L 500.691007 134.380754 
z
" style="fill:#008000;"/>
   </g>
   <g id="patch_23">
    <path clip-path="url(#p2226cfdd0c)" d="M 517.964602 127.3 
L 549.238938 127.3 
L 549.238938 133.189841 
L 537.98745 133.189841 
L 537.98745 157.5 
L 529.237909 157.5 
L 529.237909 133.189841 
L 517.964602 133.189841 
z
" style="fill:#ff0000;"/>
   </g>
   <g id="patch_24">
    <path clip-path="url(#p2226cfdd0c)" d="M 582.159292 154.767589 
Q 579.005224 156.133795 575.612849 156.820017 
Q 572.220473 157.5 568.603809 157.5 
Q 560.431268 157.5 555.658112 153.432576 
Q 550.884956 149.365152 550.884956 142.409358 
Q 550.884956 135.372464 555.74222 131.336232 
Q 560.606494 127.3 569.066405 127.3 
Q 572.325609 127.3 575.31146 127.848977 
Q 578.30432 128.391717 580.953737 129.464718 
L 580.953737 135.484755 
Q 578.220212 134.106073 575.514722 133.42609 
Q 572.809233 132.739868 570.089725 132.739868 
Q 565.057235 132.739868 562.330718 135.247697 
Q 559.604201 137.749287 559.604201 142.409358 
Q 559.604201 147.025759 562.232591 149.546065 
Q 564.860981 152.060132 569.697219 152.060132 
Q 571.014919 152.060132 572.143374 151.916649 
Q 573.271829 151.766928 574.168986 151.455009 
L 574.168986 145.803037 
L 569.017342 145.803037 
L 569.017342 140.768663 
L 582.159292 140.768663 
z
" style="fill:#ffa600;"/>
   </g>
   <g id="patch_25">
    <path clip-path="url(#p2226cfdd0c)" d="M 583.80531 21.6 
L 615.079646 21.6 
L 615.079646 48.104286 
L 603.828158 48.104286 
L 603.828158 157.5 
L 595.078617 157.5 
L 595.078617 48.104286 
L 583.80531 48.104286 
z
" style="fill:#ff0000;"/>
   </g>
   <g id="patch_26">
    <path clip-path="url(#p2226cfdd0c)" d="M 616.725664 142.4 
L 648 142.4 
L 648 145.344921 
L 636.748512 145.344921 
L 636.748512 157.5 
L 627.998971 157.5 
L 627.998971 145.344921 
L 616.725664 145.344921 
z
" style="fill:#ff0000;"/>
   </g>
   <g id="patch_27">
    <path clip-path="url(#p2226cfdd0c)" d="M 648 131.470357 
Q 644.845932 136.935179 641.453557 139.680066 
Q 638.061181 142.4 634.444517 142.4 
Q 626.271976 142.4 621.49882 126.130304 
Q 616.725664 109.860607 616.725664 82.03743 
Q 616.725664 53.889857 621.582928 37.744929 
Q 626.447202 21.6 634.907113 21.6 
Q 638.166317 21.6 641.152168 23.79591 
Q 644.145028 25.966866 646.794445 30.258872 
L 646.794445 54.339021 
Q 644.06092 48.824293 641.35543 46.104359 
Q 638.649941 43.359471 635.930433 43.359471 
Q 630.897943 43.359471 628.171426 53.390787 
Q 625.444909 63.397149 625.444909 82.03743 
Q 625.444909 100.503037 628.073299 110.584259 
Q 630.701689 120.640529 635.537927 120.640529 
Q 636.855626 120.640529 637.984082 120.066598 
Q 639.112537 119.467713 640.009694 118.220037 
L 640.009694 95.612146 
L 634.85805 95.612146 
L 634.85805 75.474654 
L 648 75.474654 
z
" style="fill:#ffa600;"/>
   </g>
  </g>
 </g>
 <defs>
  <clipPath id="p2226cfdd0c">
   <rect height="135.9" width="558" x="90" y="21.6"/>
  </clipPath>
 </defs>
</svg>
