<?xml version="1.0" encoding="utf-8" standalone="no"?>
<!DOCTYPE svg PUBLIC "-//W3C//DTD SVG 1.1//EN"
  "http://www.w3.org/Graphics/SVG/1.1/DTD/svg11.dtd">
<!-- Created with matplotlib (https://matplotlib.org/) -->
<svg height="180pt" version="1.1" viewBox="0 0 720 180" width="720pt" xmlns="http://www.w3.org/2000/svg" xmlns:xlink="http://www.w3.org/1999/xlink">
 <metadata>
  <rdf:RDF xmlns:cc="http://creativecommons.org/ns#" xmlns:dc="http://purl.org/dc/elements/1.1/" xmlns:rdf="http://www.w3.org/1999/02/22-rdf-syntax-ns#">
   <cc:Work>
    <dc:type rdf:resource="http://purl.org/dc/dcmitype/StillImage"/>
    <dc:date>2021-08-04T23:33:23.531703</dc:date>
    <dc:format>image/svg+xml</dc:format>
    <dc:creator>
     <cc:Agent>
      <dc:title>Matplotlib v3.3.2, https://matplotlib.org/</dc:title>
     </cc:Agent>
    </dc:creator>
   </cc:Work>
  </rdf:RDF>
 </metadata>
 <defs>
  <style type="text/css">*{stroke-linecap:butt;stroke-linejoin:round;}</style>
 </defs>
 <g id="figure_1">
  <g id="patch_1">
   <path d="M 0 180 
L 720 180 
L 720 0 
L 0 0 
z
" style="fill:none;"/>
  </g>
  <g id="axes_1">
   <g id="line2d_1">
    <path clip-path="url(#p61d966dd61)" d="M 90 157.5 
L 648 157.5 
" style="fill:none;stroke:#000000;stroke-linecap:square;stroke-width:0.5;"/>
   </g>
   <g id="patch_2">
    <path clip-path="url(#p61d966dd61)" d="M 90 127.3 
L 121.274336 127.3 
L 121.274336 133.189841 
L 110.022848 133.189841 
L 110.022848 157.5 
L 101.273307 157.5 
L 101.273307 133.189841 
L 90 133.189841 
z
" style="fill:#ff0000;"/>
   </g>
   <g id="patch_3">
    <path clip-path="url(#p61d966dd61)" d="M 111.66376 119.04775 
L 99.636153 119.04775 
L 97.737057 127.3 
L 90 127.3 
L 101.049285 82 
L 110.225051 82 
L 121.274336 127.3 
L 113.543673 127.3 
z
M 101.554432 110.640163 
L 109.726299 110.640163 
L 105.64676 92.621132 
z
" style="fill:#008000;"/>
   </g>
   <g id="patch_4">
    <path clip-path="url(#p61d966dd61)" d="M 121.274336 77.670564 
Q 118.658292 79.816567 115.829497 80.902045 
Q 113.000702 82 109.919759 82 
Q 100.732085 82 95.366043 73.865152 
Q 90 65.730304 90 51.818715 
Q 90 37.85722 95.366043 29.734848 
Q 100.732085 21.6 109.919759 21.6 
Q 113.000702 21.6 115.829497 22.697955 
Q 118.658292 23.783433 121.274336 25.929436 
L 121.274336 37.96951 
Q 118.634653 35.124809 116.073766 33.802272 
Q 113.51288 32.479736 110.684085 32.479736 
Q 105.609589 32.479736 102.701998 37.632638 
Q 99.802286 42.773063 99.802286 51.818715 
Q 99.802286 60.826937 102.701998 65.979839 
Q 105.609589 71.120264 110.684085 71.120264 
Q 113.51288 71.120264 116.073766 69.797728 
Q 118.634653 68.462714 121.274336 65.618013 
z
" style="fill:#0000ff;"/>
   </g>
   <g id="patch_5">
    <path clip-path="url(#p61d966dd61)" d="M 144.584114 149.24775 
L 132.556507 149.24775 
L 130.657411 157.5 
L 122.920354 157.5 
L 133.969639 112.2 
L 143.145405 112.2 
L 154.19469 157.5 
L 146.464027 157.5 
z
M 134.474786 140.840163 
L 142.646653 140.840163 
L 138.567114 122.821132 
z
" style="fill:#008000;"/>
   </g>
   <g id="patch_6">
    <path clip-path="url(#p61d966dd61)" d="M 154.19469 108.952923 
Q 151.578646 110.562425 148.749851 111.376534 
Q 145.921056 112.2 142.840113 112.2 
Q 133.652439 112.2 128.286397 106.098864 
Q 122.920354 99.997728 122.920354 89.564036 
Q 122.920354 79.092915 128.286397 73.001136 
Q 133.652439 66.9 142.840113 66.9 
Q 145.921056 66.9 148.749851 67.723466 
Q 151.578646 68.537575 154.19469 70.147077 
L 154.19469 79.177133 
Q 151.555007 77.043607 148.99412 76.051704 
Q 146.433234 75.059802 143.604439 75.059802 
Q 138.529943 75.059802 135.622352 78.924478 
Q 132.72264 82.779798 132.72264 89.564036 
Q 132.72264 96.320202 135.622352 100.184879 
Q 138.529943 104.040198 143.604439 104.040198 
Q 146.433234 104.040198 148.99412 103.048296 
Q 151.555007 102.047036 154.19469 99.91351 
z
" style="fill:#0000ff;"/>
   </g>
   <g id="patch_7">
    <path clip-path="url(#p61d966dd61)" d="M 154.19469 62.801384 
Q 151.040622 64.850692 147.648247 65.880025 
Q 144.255872 66.9 140.639207 66.9 
Q 132.466666 66.9 127.69351 60.798864 
Q 122.920354 54.697728 122.920354 44.264036 
Q 122.920354 33.708697 127.777619 27.654348 
Q 132.641892 21.6 141.101804 21.6 
Q 144.361007 21.6 147.346858 22.423466 
Q 150.339718 23.237575 152.989135 24.847077 
L 152.989135 33.877133 
Q 150.25561 31.80911 147.55012 30.789134 
Q 144.844631 29.759802 142.125123 29.759802 
Q 137.092633 29.759802 134.366116 33.521545 
Q 131.6396 37.273931 131.6396 44.264036 
Q 131.6396 51.188639 134.26799 54.969097 
Q 136.89638 58.740198 141.732617 58.740198 
Q 143.050317 58.740198 144.178772 58.524974 
Q 145.307228 58.300392 146.204385 57.832514 
L 146.204385 49.354555 
L 141.05274 49.354555 
L 141.05274 41.802995 
L 154.19469 41.802995 
z
" style="fill:#ffa600;"/>
   </g>
   <g id="patch_8">
    <path clip-path="url(#p61d966dd61)" d="M 177.504468 149.24775 
L 165.476861 149.24775 
L 163.577765 157.5 
L 155.840708 157.5 
L 166.889993 112.2 
L 176.065759 112.2 
L 187.115044 157.5 
L 179.384381 157.5 
z
M 167.39514 140.840163 
L 175.567007 140.840163 
L 171.487467 122.821132 
z
" style="fill:#008000;"/>
   </g>
   <g id="patch_9">
    <path clip-path="url(#p61d966dd61)" d="M 187.115044 104.002768 
Q 183.960976 108.101384 180.568601 110.16005 
Q 177.176226 112.2 173.559561 112.2 
Q 165.38702 112.2 160.613864 99.997728 
Q 155.840708 87.795455 155.840708 66.928073 
Q 155.840708 45.817393 160.697973 33.708697 
Q 165.562246 21.6 174.022158 21.6 
Q 177.281361 21.6 180.267212 23.246932 
Q 183.260072 24.87515 185.909489 28.094154 
L 185.909489 46.154266 
Q 183.175964 42.018219 180.470474 39.978269 
Q 177.764985 37.919603 175.045477 37.919603 
Q 170.012987 37.919603 167.28647 45.44309 
Q 164.559954 52.947862 164.559954 66.928073 
Q 164.559954 80.777277 167.188344 88.338195 
Q 169.816734 95.880397 174.652971 95.880397 
Q 175.970671 95.880397 177.099126 95.449948 
Q 178.227582 95.000785 179.124739 94.065028 
L 179.124739 77.10911 
L 173.973094 77.10911 
L 173.973094 62.00599 
L 187.115044 62.00599 
z
" style="fill:#ffa600;"/>
   </g>
   <g id="patch_10">
    <path clip-path="url(#p61d966dd61)" d="M 220.035398 156.133795 
Q 216.88133 156.816897 213.488955 157.160008 
Q 210.09658 157.5 206.479915 157.5 
Q 198.307374 157.5 193.534218 155.466288 
Q 188.761062 153.432576 188.761062 149.954679 
Q 188.761062 146.436232 193.618327 144.418116 
Q 198.4826 142.4 206.942512 142.4 
Q 210.201715 142.4 213.187566 142.674489 
Q 216.180426 142.945858 218.829843 143.482359 
L 218.829843 146.492378 
Q 216.096318 145.803037 213.390828 145.463045 
Q 210.685339 145.119934 207.965831 145.119934 
Q 202.933341 145.119934 200.206824 146.373848 
Q 197.480308 147.624644 197.480308 149.954679 
Q 197.480308 152.26288 200.108698 153.523032 
Q 202.737088 154.780066 207.573325 154.780066 
Q 208.891025 154.780066 210.01948 154.708325 
Q 211.147936 154.633464 212.045093 154.477505 
L 212.045093 151.651518 
L 206.893448 151.651518 
L 206.893448 149.134332 
L 220.035398 149.134332 
z
" style="fill:#ffa600;"/>
   </g>
   <g id="patch_11">
    <path clip-path="url(#p61d966dd61)" d="M 188.761062 21.6 
L 220.035398 21.6 
L 220.035398 45.159366 
L 208.78391 45.159366 
L 208.78391 142.4 
L 200.034369 142.4 
L 200.034369 45.159366 
L 188.761062 45.159366 
z
" style="fill:#ff0000;"/>
   </g>
   <g id="patch_12">
    <path clip-path="url(#p61d966dd61)" d="M 243.345176 154.74925 
L 231.317569 154.74925 
L 229.418473 157.5 
L 221.681416 157.5 
L 232.730701 142.4 
L 241.906467 142.4 
L 252.955752 157.5 
L 245.225089 157.5 
z
M 233.235848 151.946721 
L 241.407715 151.946721 
L 237.328175 145.940377 
z
" style="fill:#008000;"/>
   </g>
   <g id="patch_13">
    <path clip-path="url(#p61d966dd61)" d="M 221.681416 112.2 
L 252.955752 112.2 
L 252.955752 118.089841 
L 241.704264 118.089841 
L 241.704264 142.4 
L 232.954723 142.4 
L 232.954723 118.089841 
L 221.681416 118.089841 
z
" style="fill:#ff0000;"/>
   </g>
   <g id="patch_14">
    <path clip-path="url(#p61d966dd61)" d="M 252.955752 104.002768 
Q 249.801684 108.101384 246.409309 110.16005 
Q 243.016934 112.2 239.400269 112.2 
Q 231.227728 112.2 226.454572 99.997728 
Q 221.681416 87.795455 221.681416 66.928073 
Q 221.681416 45.817393 226.538681 33.708697 
Q 231.402954 21.6 239.862866 21.6 
Q 243.122069 21.6 246.10792 23.246932 
Q 249.10078 24.87515 251.750197 28.094154 
L 251.750197 46.154266 
Q 249.016672 42.018219 246.311182 39.978269 
Q 243.605693 37.919603 240.886185 37.919603 
Q 235.853695 37.919603 233.127178 45.44309 
Q 230.400662 52.947862 230.400662 66.928073 
Q 230.400662 80.777277 233.029052 88.338195 
Q 235.657442 95.880397 240.493679 95.880397 
Q 241.811379 95.880397 242.939834 95.449948 
Q 244.06829 95.000785 244.965447 94.065028 
L 244.965447 77.10911 
L 239.813802 77.10911 
L 239.813802 62.00599 
L 252.955752 62.00599 
z
" style="fill:#ffa600;"/>
   </g>
   <g id="patch_15">
    <path clip-path="url(#p61d966dd61)" d="M 276.26553 132.743249 
L 264.237923 132.743249 
L 262.338827 157.5 
L 254.60177 157.5 
L 265.651055 21.6 
L 274.826821 21.6 
L 285.876106 157.5 
L 278.145443 157.5 
z
M 266.156202 107.520489 
L 274.328069 107.520489 
L 270.248529 53.463395 
z
" style="fill:#008000;"/>
   </g>
   <g id="patch_16">
    <path clip-path="url(#p61d966dd61)" d="M 309.185884 154.74925 
L 297.158277 154.74925 
L 295.259181 157.5 
L 287.522124 157.5 
L 298.571409 142.4 
L 307.747175 142.4 
L 318.79646 157.5 
L 311.065797 157.5 
z
M 299.076556 151.946721 
L 307.248423 151.946721 
L 303.168883 145.940377 
z
" style="fill:#008000;"/>
   </g>
   <g id="patch_17">
    <path clip-path="url(#p61d966dd61)" d="M 318.79646 140.235282 
Q 316.180416 141.308283 313.351621 141.851023 
Q 310.522826 142.4 307.441883 142.4 
Q 298.254209 142.4 292.888166 138.332576 
Q 287.522124 134.265152 287.522124 127.309358 
Q 287.522124 120.32861 292.888166 116.267424 
Q 298.254209 112.2 307.441883 112.2 
Q 310.522826 112.2 313.351621 112.748977 
Q 316.180416 113.291717 318.79646 114.364718 
L 318.79646 120.384755 
Q 316.156777 118.962404 313.59589 118.301136 
Q 311.035004 117.639868 308.206209 117.639868 
Q 303.131713 117.639868 300.224122 120.216319 
Q 297.32441 122.786532 297.32441 127.309358 
Q 297.32441 131.813468 300.224122 134.389919 
Q 303.131713 136.960132 308.206209 136.960132 
Q 311.035004 136.960132 313.59589 136.298864 
Q 316.156777 135.631357 318.79646 134.209006 
z
" style="fill:#0000ff;"/>
   </g>
   <g id="patch_18">
    <path clip-path="url(#p61d966dd61)" d="M 318.79646 109.467589 
Q 315.642392 110.833795 312.250017 111.520017 
Q 308.857642 112.2 305.240977 112.2 
Q 297.068436 112.2 292.29528 108.132576 
Q 287.522124 104.065152 287.522124 97.109358 
Q 287.522124 90.072464 292.379389 86.036232 
Q 297.243662 82 305.703574 82 
Q 308.962777 82 311.948628 82.548977 
Q 314.941488 83.091717 317.590905 84.164718 
L 317.590905 90.184755 
Q 314.85738 88.806073 312.15189 88.12609 
Q 309.446401 87.439868 306.726893 87.439868 
Q 301.694403 87.439868 298.967886 89.947697 
Q 296.24137 92.449287 296.24137 97.109358 
Q 296.24137 101.725759 298.86976 104.246065 
Q 301.49815 106.760132 306.334387 106.760132 
Q 307.652087 106.760132 308.780542 106.616649 
Q 309.908998 106.466928 310.806155 106.155009 
L 310.806155 100.503037 
L 305.65451 100.503037 
L 305.65451 95.468663 
L 318.79646 95.468663 
z
" style="fill:#ffa600;"/>
   </g>
   <g id="patch_19">
    <path clip-path="url(#p61d966dd61)" d="M 287.522124 21.6 
L 318.79646 21.6 
L 318.79646 33.379683 
L 307.544972 33.379683 
L 307.544972 82 
L 298.795431 82 
L 298.795431 33.379683 
L 287.522124 33.379683 
z
" style="fill:#ff0000;"/>
   </g>
   <g id="patch_20">
    <path clip-path="url(#p61d966dd61)" d="M 351.716814 156.417641 
Q 349.10077 156.954142 346.271975 157.225511 
Q 343.44318 157.5 340.362237 157.5 
Q 331.174563 157.5 325.80852 155.466288 
Q 320.442478 153.432576 320.442478 149.954679 
Q 320.442478 146.464305 325.80852 144.433712 
Q 331.174563 142.4 340.362237 142.4 
Q 343.44318 142.4 346.271975 142.674489 
Q 349.10077 142.945858 351.716814 143.482359 
L 351.716814 146.492378 
Q 349.077131 145.781202 346.516244 145.450568 
Q 343.955358 145.119934 341.126563 145.119934 
Q 336.052067 145.119934 333.144476 146.408159 
Q 330.244764 147.693266 330.244764 149.954679 
Q 330.244764 152.206734 333.144476 153.49496 
Q 336.052067 154.780066 341.126563 154.780066 
Q 343.955358 154.780066 346.516244 154.449432 
Q 349.077131 154.115679 351.716814 153.404503 
z
" style="fill:#0000ff;"/>
   </g>
   <g id="patch_21">
    <path clip-path="url(#p61d966dd61)" d="M 342.106238 136.8985 
L 330.078631 136.8985 
L 328.179535 142.4 
L 320.442478 142.4 
L 331.491763 112.2 
L 340.667529 112.2 
L 351.716814 142.4 
L 343.986151 142.4 
z
M 331.99691 131.293442 
L 340.168777 131.293442 
L 336.089237 119.280754 
z
" style="fill:#008000;"/>
   </g>
   <g id="patch_22">
    <path clip-path="url(#p61d966dd61)" d="M 320.442478 82 
L 351.716814 82 
L 351.716814 87.889841 
L 340.465326 87.889841 
L 340.465326 112.2 
L 331.715785 112.2 
L 331.715785 87.889841 
L 320.442478 87.889841 
z
" style="fill:#ff0000;"/>
   </g>
   <g id="patch_23">
    <path clip-path="url(#p61d966dd61)" d="M 351.716814 76.535179 
Q 348.562746 79.267589 345.170371 80.640033 
Q 341.777996 82 338.161331 82 
Q 329.98879 82 325.215634 73.865152 
Q 320.442478 65.730304 320.442478 51.818715 
Q 320.442478 37.744929 325.299743 29.672464 
Q 330.164016 21.6 338.623928 21.6 
Q 341.883131 21.6 344.868982 22.697955 
Q 347.861842 23.783433 350.511259 25.929436 
L 350.511259 37.96951 
Q 347.777734 35.212146 345.072244 33.852179 
Q 342.366755 32.479736 339.647247 32.479736 
Q 334.614757 32.479736 331.88824 37.495394 
Q 329.161724 42.498575 329.161724 51.818715 
Q 329.161724 61.051518 331.790114 66.09213 
Q 334.418504 71.120264 339.254741 71.120264 
Q 340.572441 71.120264 341.700896 70.833299 
Q 342.829351 70.533857 343.726509 69.910019 
L 343.726509 58.606073 
L 338.574864 58.606073 
L 338.574864 48.537327 
L 351.716814 48.537327 
z
" style="fill:#ffa600;"/>
   </g>
   <g id="patch_24">
    <path clip-path="url(#p61d966dd61)" d="M 384.637168 154.767589 
Q 381.4831 156.133795 378.090725 156.820017 
Q 374.698349 157.5 371.081685 157.5 
Q 362.909144 157.5 358.135988 153.432576 
Q 353.362832 149.365152 353.362832 142.409358 
Q 353.362832 135.372464 358.220097 131.336232 
Q 363.08437 127.3 371.544282 127.3 
Q 374.803485 127.3 377.789336 127.848977 
Q 380.782196 128.391717 383.431613 129.464718 
L 383.431613 135.484755 
Q 380.698088 134.106073 377.992598 133.42609 
Q 375.287109 132.739868 372.567601 132.739868 
Q 367.535111 132.739868 364.808594 135.247697 
Q 362.082078 137.749287 362.082078 142.409358 
Q 362.082078 147.025759 364.710468 149.546065 
Q 367.338858 152.060132 372.175095 152.060132 
Q 373.492795 152.060132 374.62125 151.916649 
Q 375.749705 151.766928 376.646863 151.455009 
L 376.646863 145.803037 
L 371.495218 145.803037 
L 371.495218 140.768663 
L 384.637168 140.768663 
z
" style="fill:#ffa600;"/>
   </g>
   <g id="patch_25">
    <path clip-path="url(#p61d966dd61)" d="M 384.637168 124.052923 
Q 382.021124 125.662425 379.192329 126.476534 
Q 376.363534 127.3 373.282591 127.3 
Q 364.094917 127.3 358.728874 121.198864 
Q 353.362832 115.097728 353.362832 104.664036 
Q 353.362832 94.192915 358.728874 88.101136 
Q 364.094917 82 373.282591 82 
Q 376.363534 82 379.192329 82.823466 
Q 382.021124 83.637575 384.637168 85.247077 
L 384.637168 94.277133 
Q 381.997485 92.143607 379.436598 91.151704 
Q 376.875712 90.159802 374.046917 90.159802 
Q 368.972421 90.159802 366.06483 94.024478 
Q 363.165118 97.879798 363.165118 104.664036 
Q 363.165118 111.420202 366.06483 115.284879 
Q 368.972421 119.140198 374.046917 119.140198 
Q 376.875712 119.140198 379.436598 118.148296 
Q 381.997485 117.147036 384.637168 115.01351 
z
" style="fill:#0000ff;"/>
   </g>
   <g id="patch_26">
    <path clip-path="url(#p61d966dd61)" d="M 375.026592 70.997 
L 362.998985 70.997 
L 361.099889 82 
L 353.362832 82 
L 364.412117 21.6 
L 373.587883 21.6 
L 384.637168 82 
L 376.906505 82 
z
M 364.917264 59.786884 
L 373.089131 59.786884 
L 369.009591 35.761509 
z
" style="fill:#008000;"/>
   </g>
   <g id="patch_27">
    <path clip-path="url(#p61d966dd61)" d="M 407.946946 132.743249 
L 395.919339 132.743249 
L 394.020243 157.5 
L 386.283186 157.5 
L 397.332471 21.6 
L 406.508237 21.6 
L 417.557522 157.5 
L 409.826859 157.5 
z
M 397.837618 107.520489 
L 406.009485 107.520489 
L 401.929945 53.463395 
z
" style="fill:#008000;"/>
   </g>
   <g id="patch_28">
    <path clip-path="url(#p61d966dd61)" d="M 440.8673 154.74925 
L 428.839693 154.74925 
L 426.940597 157.5 
L 419.20354 157.5 
L 430.252825 142.4 
L 439.428591 142.4 
L 450.477876 157.5 
L 442.747213 157.5 
z
M 430.757972 151.946721 
L 438.929839 151.946721 
L 434.850299 145.940377 
z
" style="fill:#008000;"/>
   </g>
   <g id="patch_29">
    <path clip-path="url(#p61d966dd61)" d="M 419.20354 21.6 
L 450.477876 21.6 
L 450.477876 45.159366 
L 439.226388 45.159366 
L 439.226388 142.4 
L 430.476847 142.4 
L 430.476847 45.159366 
L 419.20354 45.159366 
z
" style="fill:#ff0000;"/>
   </g>
   <g id="patch_30">
    <path clip-path="url(#p61d966dd61)" d="M 483.39823 156.417641 
Q 480.782186 156.954142 477.953391 157.225511 
Q 475.124596 157.5 472.043652 157.5 
Q 462.855979 157.5 457.489936 155.466288 
Q 452.123894 153.432576 452.123894 149.954679 
Q 452.123894 146.464305 457.489936 144.433712 
Q 462.855979 142.4 472.043652 142.4 
Q 475.124596 142.4 477.953391 142.674489 
Q 480.782186 142.945858 483.39823 143.482359 
L 483.39823 146.492378 
Q 480.758547 145.781202 478.19766 145.450568 
Q 475.636773 145.119934 472.807979 145.119934 
Q 467.733483 145.119934 464.825892 146.408159 
Q 461.92618 147.693266 461.92618 149.954679 
Q 461.92618 152.206734 464.825892 153.49496 
Q 467.733483 154.780066 472.807979 154.780066 
Q 475.636773 154.780066 478.19766 154.449432 
Q 480.758547 154.115679 483.39823 153.404503 
z
" style="fill:#0000ff;"/>
   </g>
   <g id="patch_31">
    <path clip-path="url(#p61d966dd61)" d="M 483.39823 131.470357 
Q 480.244162 136.935179 476.851787 139.680066 
Q 473.459411 142.4 469.842747 142.4 
Q 461.670206 142.4 456.89705 126.130304 
Q 452.123894 109.860607 452.123894 82.03743 
Q 452.123894 53.889857 456.981158 37.744929 
Q 461.845432 21.6 470.305343 21.6 
Q 473.564547 21.6 476.550398 23.79591 
Q 479.543258 25.966866 482.192675 30.258872 
L 482.192675 54.339021 
Q 479.45915 48.824293 476.75366 46.104359 
Q 474.048171 43.359471 471.328663 43.359471 
Q 466.296173 43.359471 463.569656 53.390787 
Q 460.84314 63.397149 460.84314 82.03743 
Q 460.84314 100.503037 463.471529 110.584259 
Q 466.099919 120.640529 470.936157 120.640529 
Q 472.253857 120.640529 473.382312 120.066598 
Q 474.510767 119.467713 475.407925 118.220037 
L 475.407925 95.612146 
L 470.25628 95.612146 
L 470.25628 75.474654 
L 483.39823 75.474654 
z
" style="fill:#ffa600;"/>
   </g>
   <g id="patch_32">
    <path clip-path="url(#p61d966dd61)" d="M 516.318584 156.133795 
Q 513.164516 156.816897 509.772141 157.160008 
Q 506.379765 157.5 502.763101 157.5 
Q 494.59056 157.5 489.817404 155.466288 
Q 485.044248 153.432576 485.044248 149.954679 
Q 485.044248 146.436232 489.901512 144.418116 
Q 494.765786 142.4 503.225697 142.4 
Q 506.484901 142.4 509.470752 142.674489 
Q 512.463612 142.945858 515.113029 143.482359 
L 515.113029 146.492378 
Q 512.379504 145.803037 509.674014 145.463045 
Q 506.968525 145.119934 504.249017 145.119934 
Q 499.216527 145.119934 496.49001 146.373848 
Q 493.763493 147.624644 493.763493 149.954679 
Q 493.763493 152.26288 496.391883 153.523032 
Q 499.020273 154.780066 503.856511 154.780066 
Q 505.174211 154.780066 506.302666 154.708325 
Q 507.431121 154.633464 508.328279 154.477505 
L 508.328279 151.651518 
L 503.176634 151.651518 
L 503.176634 149.134332 
L 516.318584 149.134332 
z
" style="fill:#ffa600;"/>
   </g>
   <g id="patch_33">
    <path clip-path="url(#p61d966dd61)" d="M 516.318584 140.235282 
Q 513.70254 141.308283 510.873745 141.851023 
Q 508.04495 142.4 504.964006 142.4 
Q 495.776333 142.4 490.41029 138.332576 
Q 485.044248 134.265152 485.044248 127.309358 
Q 485.044248 120.32861 490.41029 116.267424 
Q 495.776333 112.2 504.964006 112.2 
Q 508.04495 112.2 510.873745 112.748977 
Q 513.70254 113.291717 516.318584 114.364718 
L 516.318584 120.384755 
Q 513.678901 118.962404 511.118014 118.301136 
Q 508.557127 117.639868 505.728333 117.639868 
Q 500.653837 117.639868 497.746246 120.216319 
Q 494.846534 122.786532 494.846534 127.309358 
Q 494.846534 131.813468 497.746246 134.389919 
Q 500.653837 136.960132 505.728333 136.960132 
Q 508.557127 136.960132 511.118014 136.298864 
Q 513.678901 135.631357 516.318584 134.209006 
z
" style="fill:#0000ff;"/>
   </g>
   <g id="patch_34">
    <path clip-path="url(#p61d966dd61)" d="M 506.708008 95.695499 
L 494.680401 95.695499 
L 492.781305 112.2 
L 485.044248 112.2 
L 496.093533 21.6 
L 505.269299 21.6 
L 516.318584 112.2 
L 508.587921 112.2 
z
M 496.59868 78.880326 
L 504.770547 78.880326 
L 500.691007 42.842263 
z
" style="fill:#008000;"/>
   </g>
   <g id="patch_35">
    <path clip-path="url(#p61d966dd61)" d="M 549.238938 156.417641 
Q 546.622894 156.954142 543.794099 157.225511 
Q 540.965304 157.5 537.88436 157.5 
Q 528.696687 157.5 523.330644 155.466288 
Q 517.964602 153.432576 517.964602 149.954679 
Q 517.964602 146.464305 523.330644 144.433712 
Q 528.696687 142.4 537.88436 142.4 
Q 540.965304 142.4 543.794099 142.674489 
Q 546.622894 142.945858 549.238938 143.482359 
L 549.238938 146.492378 
Q 546.599255 145.781202 544.038368 145.450568 
Q 541.477481 145.119934 538.648687 145.119934 
Q 533.574191 145.119934 530.6666 146.408159 
Q 527.766888 147.693266 527.766888 149.954679 
Q 527.766888 152.206734 530.6666 153.49496 
Q 533.574191 154.780066 538.648687 154.780066 
Q 541.477481 154.780066 544.038368 154.449432 
Q 546.599255 154.115679 549.238938 153.404503 
z
" style="fill:#0000ff;"/>
   </g>
   <g id="patch_36">
    <path clip-path="url(#p61d966dd61)" d="M 549.238938 141.033795 
Q 546.08487 141.716897 542.692495 142.060008 
Q 539.300119 142.4 535.683455 142.4 
Q 527.510914 142.4 522.737758 140.366288 
Q 517.964602 138.332576 517.964602 134.854679 
Q 517.964602 131.336232 522.821866 129.318116 
Q 527.68614 127.3 536.146051 127.3 
Q 539.405255 127.3 542.391106 127.574489 
Q 545.383966 127.845858 548.033383 128.382359 
L 548.033383 131.392378 
Q 545.299858 130.703037 542.594368 130.363045 
Q 539.888879 130.019934 537.169371 130.019934 
Q 532.136881 130.019934 529.410364 131.273848 
Q 526.683847 132.524644 526.683847 134.854679 
Q 526.683847 137.16288 529.312237 138.423032 
Q 531.940627 139.680066 536.776865 139.680066 
Q 538.094565 139.680066 539.22302 139.608325 
Q 540.351475 139.533464 541.248633 139.377505 
L 541.248633 136.551518 
L 536.096988 136.551518 
L 536.096988 134.034332 
L 549.238938 134.034332 
z
" style="fill:#ffa600;"/>
   </g>
   <g id="patch_37">
    <path clip-path="url(#p61d966dd61)" d="M 539.628362 121.7985 
L 527.600755 121.7985 
L 525.701659 127.3 
L 517.964602 127.3 
L 529.013887 97.1 
L 538.189653 97.1 
L 549.238938 127.3 
L 541.508275 127.3 
z
M 529.519034 116.193442 
L 537.690901 116.193442 
L 533.611361 104.180754 
z
" style="fill:#008000;"/>
   </g>
   <g id="patch_38">
    <path clip-path="url(#p61d966dd61)" d="M 517.964602 21.6 
L 549.238938 21.6 
L 549.238938 36.324604 
L 537.98745 36.324604 
L 537.98745 97.1 
L 529.237909 97.1 
L 529.237909 36.324604 
L 517.964602 36.324604 
z
" style="fill:#ff0000;"/>
   </g>
   <g id="patch_39">
    <path clip-path="url(#p61d966dd61)" d="M 550.884956 97.1 
L 582.159292 97.1 
L 582.159292 108.879683 
L 570.907804 108.879683 
L 570.907804 157.5 
L 562.158263 157.5 
L 562.158263 108.879683 
L 550.884956 108.879683 
z
" style="fill:#ff0000;"/>
   </g>
   <g id="patch_40">
    <path clip-path="url(#p61d966dd61)" d="M 582.159292 90.268973 
Q 579.005224 93.684487 575.612849 95.400041 
Q 572.220473 97.1 568.603809 97.1 
Q 560.431268 97.1 555.658112 86.93144 
Q 550.884956 76.76288 550.884956 59.373394 
Q 550.884956 41.781161 555.74222 31.69058 
Q 560.606494 21.6 569.066405 21.6 
Q 572.325609 21.6 575.31146 22.972444 
Q 578.30432 24.329291 580.953737 27.011795 
L 580.953737 42.061888 
Q 578.220212 38.615183 575.514722 36.915224 
Q 572.809233 35.199669 570.089725 35.199669 
Q 565.057235 35.199669 562.330718 41.469242 
Q 559.604201 47.723218 559.604201 59.373394 
Q 559.604201 70.914398 562.232591 77.215162 
Q 564.860981 83.500331 569.697219 83.500331 
Q 571.014919 83.500331 572.143374 83.141624 
Q 573.271829 82.767321 574.168986 81.987523 
L 574.168986 67.857591 
L 569.017342 67.857591 
L 569.017342 55.271659 
L 582.159292 55.271659 
z
" style="fill:#ffa600;"/>
   </g>
   <g id="patch_41">
    <path clip-path="url(#p61d966dd61)" d="M 605.46907 154.74925 
L 593.441463 154.74925 
L 591.542367 157.5 
L 583.80531 157.5 
L 594.854595 142.4 
L 604.030361 142.4 
L 615.079646 157.5 
L 607.348983 157.5 
z
M 595.359741 151.946721 
L 603.531609 151.946721 
L 599.452069 145.940377 
z
" style="fill:#008000;"/>
   </g>
   <g id="patch_42">
    <path clip-path="url(#p61d966dd61)" d="M 583.80531 112.2 
L 615.079646 112.2 
L 615.079646 118.089841 
L 603.828158 118.089841 
L 603.828158 142.4 
L 595.078617 142.4 
L 595.078617 118.089841 
L 583.80531 118.089841 
z
" style="fill:#ff0000;"/>
   </g>
   <g id="patch_43">
    <path clip-path="url(#p61d966dd61)" d="M 615.079646 104.002768 
Q 611.925578 108.101384 608.533203 110.16005 
Q 605.140827 112.2 601.524163 112.2 
Q 593.351622 112.2 588.578466 99.997728 
Q 583.80531 87.795455 583.80531 66.928073 
Q 583.80531 45.817393 588.662574 33.708697 
Q 593.526848 21.6 601.986759 21.6 
Q 605.245963 21.6 608.231814 23.246932 
Q 611.224674 24.87515 613.874091 28.094154 
L 613.874091 46.154266 
Q 611.140566 42.018219 608.435076 39.978269 
Q 605.729587 37.919603 603.010079 37.919603 
Q 597.977589 37.919603 595.251072 45.44309 
Q 592.524555 52.947862 592.524555 66.928073 
Q 592.524555 80.777277 595.152945 88.338195 
Q 597.781335 95.880397 602.617573 95.880397 
Q 603.935272 95.880397 605.063728 95.449948 
Q 606.192183 95.000785 607.08934 94.065028 
L 607.08934 77.10911 
L 601.937696 77.10911 
L 601.937696 62.00599 
L 615.079646 62.00599 
z
" style="fill:#ffa600;"/>
   </g>
   <g id="patch_44">
    <path clip-path="url(#p61d966dd61)" d="M 648 154.767589 
Q 644.845932 156.133795 641.453557 156.820017 
Q 638.061181 157.5 634.444517 157.5 
Q 626.271976 157.5 621.49882 153.432576 
Q 616.725664 149.365152 616.725664 142.409358 
Q 616.725664 135.372464 621.582928 131.336232 
Q 626.447202 127.3 634.907113 127.3 
Q 638.166317 127.3 641.152168 127.848977 
Q 644.145028 128.391717 646.794445 129.464718 
L 646.794445 135.484755 
Q 644.06092 134.106073 641.35543 133.42609 
Q 638.649941 132.739868 635.930433 132.739868 
Q 630.897943 132.739868 628.171426 135.247697 
Q 625.444909 137.749287 625.444909 142.409358 
Q 625.444909 147.025759 628.073299 149.546065 
Q 630.701689 152.060132 635.537927 152.060132 
Q 636.855626 152.060132 637.984082 151.916649 
Q 639.112537 151.766928 640.009694 151.455009 
L 640.009694 145.803037 
L 634.85805 145.803037 
L 634.85805 140.768663 
L 648 140.768663 
z
" style="fill:#ffa600;"/>
   </g>
   <g id="patch_45">
    <path clip-path="url(#p61d966dd61)" d="M 648 124.052923 
Q 645.383956 125.662425 642.555161 126.476534 
Q 639.726366 127.3 636.645422 127.3 
Q 627.457749 127.3 622.091706 121.198864 
Q 616.725664 115.097728 616.725664 104.664036 
Q 616.725664 94.192915 622.091706 88.101136 
Q 627.457749 82 636.645422 82 
Q 639.726366 82 642.555161 82.823466 
Q 645.383956 83.637575 648 85.247077 
L 648 94.277133 
Q 645.360317 92.143607 642.79943 91.151704 
Q 640.238543 90.159802 637.409749 90.159802 
Q 632.335253 90.159802 629.427662 94.024478 
Q 626.52795 97.879798 626.52795 104.664036 
Q 626.52795 111.420202 629.427662 115.284879 
Q 632.335253 119.140198 637.409749 119.140198 
Q 640.238543 119.140198 642.79943 118.148296 
Q 645.360317 117.147036 648 115.01351 
z
" style="fill:#0000ff;"/>
   </g>
   <g id="patch_46">
    <path clip-path="url(#p61d966dd61)" d="M 638.389424 70.997 
L 626.361817 70.997 
L 624.462721 82 
L 616.725664 82 
L 627.774949 21.6 
L 636.950715 21.6 
L 648 82 
L 640.269337 82 
z
M 628.280095 59.786884 
L 636.451963 59.786884 
L 632.372423 35.761509 
z
" style="fill:#008000;"/>
   </g>
  </g>
 </g>
 <defs>
  <clipPath id="p61d966dd61">
   <rect height="135.9" width="558" x="90" y="21.6"/>
  </clipPath>
 </defs>
</svg>
