<?xml version="1.0" encoding="utf-8" standalone="no"?>
<!DOCTYPE svg PUBLIC "-//W3C//DTD SVG 1.1//EN"
  "http://www.w3.org/Graphics/SVG/1.1/DTD/svg11.dtd">
<!-- Created with matplotlib (https://matplotlib.org/) -->
<svg height="180pt" version="1.1" viewBox="0 0 720 180" width="720pt" xmlns="http://www.w3.org/2000/svg" xmlns:xlink="http://www.w3.org/1999/xlink">
 <metadata>
  <rdf:RDF xmlns:cc="http://creativecommons.org/ns#" xmlns:dc="http://purl.org/dc/elements/1.1/" xmlns:rdf="http://www.w3.org/1999/02/22-rdf-syntax-ns#">
   <cc:Work>
    <dc:type rdf:resource="http://purl.org/dc/dcmitype/StillImage"/>
    <dc:date>2021-08-04T23:34:03.249452</dc:date>
    <dc:format>image/svg+xml</dc:format>
    <dc:creator>
     <cc:Agent>
      <dc:title>Matplotlib v3.3.2, https://matplotlib.org/</dc:title>
     </cc:Agent>
    </dc:creator>
   </cc:Work>
  </rdf:RDF>
 </metadata>
 <defs>
  <style type="text/css">*{stroke-linecap:butt;stroke-linejoin:round;}</style>
 </defs>
 <g id="figure_1">
  <g id="patch_1">
   <path d="M 0 180 
L 720 180 
L 720 0 
L 0 0 
z
" style="fill:none;"/>
  </g>
  <g id="axes_1">
   <g id="line2d_1">
    <path clip-path="url(#p6b4c957f55)" d="M 90 157.5 
L 648 157.5 
" style="fill:none;stroke:#000000;stroke-linecap:square;stroke-width:0.5;"/>
   </g>
   <g id="patch_2">
    <path clip-path="url(#p6b4c957f55)" d="M 121.274336 154.767589 
Q 118.120268 156.133795 114.727893 156.820017 
Q 111.335518 157.5 107.718853 157.5 
Q 99.546312 157.5 94.773156 153.432576 
Q 90 149.365152 90 142.409358 
Q 90 135.372464 94.857265 131.336232 
Q 99.721538 127.3 108.18145 127.3 
Q 111.440653 127.3 114.426504 127.848977 
Q 117.419364 128.391717 120.068781 129.464718 
L 120.068781 135.484755 
Q 117.335256 134.106073 114.629766 133.42609 
Q 111.924277 132.739868 109.204769 132.739868 
Q 104.172279 132.739868 101.445762 135.247697 
Q 98.719246 137.749287 98.719246 142.409358 
Q 98.719246 147.025759 101.347636 149.546065 
Q 103.976026 152.060132 108.812263 152.060132 
Q 110.129963 152.060132 111.258418 151.916649 
Q 112.386874 151.766928 113.284031 151.455009 
L 113.284031 145.803037 
L 108.132386 145.803037 
L 108.132386 140.768663 
L 121.274336 140.768663 
z
" style="fill:#ffa600;"/>
   </g>
   <g id="patch_3">
    <path clip-path="url(#p6b4c957f55)" d="M 90 97.1 
L 121.274336 97.1 
L 121.274336 102.989841 
L 110.022848 102.989841 
L 110.022848 127.3 
L 101.273307 127.3 
L 101.273307 102.989841 
L 90 102.989841 
z
" style="fill:#ff0000;"/>
   </g>
   <g id="patch_4">
    <path clip-path="url(#p6b4c957f55)" d="M 121.274336 91.688205 
Q 118.658292 94.370709 115.829497 95.727556 
Q 113.000702 97.1 109.919759 97.1 
Q 100.732085 97.1 95.366043 86.93144 
Q 90 76.76288 90 59.373394 
Q 90 41.921524 95.366043 31.76856 
Q 100.732085 21.6 109.919759 21.6 
Q 113.000702 21.6 115.829497 22.972444 
Q 118.658292 24.329291 121.274336 27.011795 
L 121.274336 42.061888 
Q 118.634653 38.506011 116.073766 36.85284 
Q 113.51288 35.199669 110.684085 35.199669 
Q 105.609589 35.199669 102.701998 41.640797 
Q 99.802286 48.066329 99.802286 59.373394 
Q 99.802286 70.633671 102.701998 77.074799 
Q 105.609589 83.500331 110.684085 83.500331 
Q 113.51288 83.500331 116.073766 81.84716 
Q 118.634653 80.178393 121.274336 76.622516 
z
" style="fill:#0000ff;"/>
   </g>
   <g id="patch_5">
    <path clip-path="url(#p6b4c957f55)" d="M 144.584114 154.74925 
L 132.556507 154.74925 
L 130.657411 157.5 
L 122.920354 157.5 
L 133.969639 142.4 
L 143.145405 142.4 
L 154.19469 157.5 
L 146.464027 157.5 
z
M 134.474786 151.946721 
L 142.646653 151.946721 
L 138.567114 145.940377 
z
" style="fill:#008000;"/>
   </g>
   <g id="patch_6">
    <path clip-path="url(#p6b4c957f55)" d="M 154.19469 140.235282 
Q 151.578646 141.308283 148.749851 141.851023 
Q 145.921056 142.4 142.840113 142.4 
Q 133.652439 142.4 128.286397 138.332576 
Q 122.920354 134.265152 122.920354 127.309358 
Q 122.920354 120.32861 128.286397 116.267424 
Q 133.652439 112.2 142.840113 112.2 
Q 145.921056 112.2 148.749851 112.748977 
Q 151.578646 113.291717 154.19469 114.364718 
L 154.19469 120.384755 
Q 151.555007 118.962404 148.99412 118.301136 
Q 146.433234 117.639868 143.604439 117.639868 
Q 138.529943 117.639868 135.622352 120.216319 
Q 132.72264 122.786532 132.72264 127.309358 
Q 132.72264 131.813468 135.622352 134.389919 
Q 138.529943 136.960132 143.604439 136.960132 
Q 146.433234 136.960132 148.99412 136.298864 
Q 151.555007 135.631357 154.19469 134.209006 
z
" style="fill:#0000ff;"/>
   </g>
   <g id="patch_7">
    <path clip-path="url(#p6b4c957f55)" d="M 122.920354 82 
L 154.19469 82 
L 154.19469 87.889841 
L 142.943202 87.889841 
L 142.943202 112.2 
L 134.193661 112.2 
L 134.193661 87.889841 
L 122.920354 87.889841 
z
" style="fill:#ff0000;"/>
   </g>
   <g id="patch_8">
    <path clip-path="url(#p6b4c957f55)" d="M 154.19469 76.535179 
Q 151.040622 79.267589 147.648247 80.640033 
Q 144.255872 82 140.639207 82 
Q 132.466666 82 127.69351 73.865152 
Q 122.920354 65.730304 122.920354 51.818715 
Q 122.920354 37.744929 127.777619 29.672464 
Q 132.641892 21.6 141.101804 21.6 
Q 144.361007 21.6 147.346858 22.697955 
Q 150.339718 23.783433 152.989135 25.929436 
L 152.989135 37.96951 
Q 150.25561 35.212146 147.55012 33.852179 
Q 144.844631 32.479736 142.125123 32.479736 
Q 137.092633 32.479736 134.366116 37.495394 
Q 131.6396 42.498575 131.6396 51.818715 
Q 131.6396 61.051518 134.26799 66.09213 
Q 136.89638 71.120264 141.732617 71.120264 
Q 143.050317 71.120264 144.178772 70.833299 
Q 145.307228 70.533857 146.204385 69.910019 
L 146.204385 58.606073 
L 141.05274 58.606073 
L 141.05274 48.537327 
L 154.19469 48.537327 
z
" style="fill:#ffa600;"/>
   </g>
   <g id="patch_9">
    <path clip-path="url(#p6b4c957f55)" d="M 155.840708 142.4 
L 187.115044 142.4 
L 187.115044 145.344921 
L 175.863556 145.344921 
L 175.863556 157.5 
L 167.114015 157.5 
L 167.114015 145.344921 
L 155.840708 145.344921 
z
" style="fill:#ff0000;"/>
   </g>
   <g id="patch_10">
    <path clip-path="url(#p6b4c957f55)" d="M 187.115044 138.301384 
Q 183.960976 140.350692 180.568601 141.380025 
Q 177.176226 142.4 173.559561 142.4 
Q 165.38702 142.4 160.613864 136.298864 
Q 155.840708 130.197728 155.840708 119.764036 
Q 155.840708 109.208697 160.697973 103.154348 
Q 165.562246 97.1 174.022158 97.1 
Q 177.281361 97.1 180.267212 97.923466 
Q 183.260072 98.737575 185.909489 100.347077 
L 185.909489 109.377133 
Q 183.175964 107.30911 180.470474 106.289134 
Q 177.764985 105.259802 175.045477 105.259802 
Q 170.012987 105.259802 167.28647 109.021545 
Q 164.559954 112.773931 164.559954 119.764036 
Q 164.559954 126.688639 167.188344 130.469097 
Q 169.816734 134.240198 174.652971 134.240198 
Q 175.970671 134.240198 177.099126 134.024974 
Q 178.227582 133.800392 179.124739 133.332514 
L 179.124739 124.854555 
L 173.973094 124.854555 
L 173.973094 117.302995 
L 187.115044 117.302995 
z
" style="fill:#ffa600;"/>
   </g>
   <g id="patch_11">
    <path clip-path="url(#p6b4c957f55)" d="M 187.115044 91.688205 
Q 184.499 94.370709 181.670205 95.727556 
Q 178.84141 97.1 175.760467 97.1 
Q 166.572793 97.1 161.206751 86.93144 
Q 155.840708 76.76288 155.840708 59.373394 
Q 155.840708 41.921524 161.206751 31.76856 
Q 166.572793 21.6 175.760467 21.6 
Q 178.84141 21.6 181.670205 22.972444 
Q 184.499 24.329291 187.115044 27.011795 
L 187.115044 42.061888 
Q 184.475361 38.506011 181.914474 36.85284 
Q 179.353588 35.199669 176.524793 35.199669 
Q 171.450297 35.199669 168.542706 41.640797 
Q 165.642994 48.066329 165.642994 59.373394 
Q 165.642994 70.633671 168.542706 77.074799 
Q 171.450297 83.500331 176.524793 83.500331 
Q 179.353588 83.500331 181.914474 81.84716 
Q 184.475361 80.178393 187.115044 76.622516 
z
" style="fill:#0000ff;"/>
   </g>
   <g id="patch_12">
    <path clip-path="url(#p6b4c957f55)" d="M 188.761062 142.4 
L 220.035398 142.4 
L 220.035398 145.344921 
L 208.78391 145.344921 
L 208.78391 157.5 
L 200.034369 157.5 
L 200.034369 145.344921 
L 188.761062 145.344921 
z
" style="fill:#ff0000;"/>
   </g>
   <g id="patch_13">
    <path clip-path="url(#p6b4c957f55)" d="M 210.424822 136.8985 
L 198.397215 136.8985 
L 196.498119 142.4 
L 188.761062 142.4 
L 199.810347 112.2 
L 208.986113 112.2 
L 220.035398 142.4 
L 212.304735 142.4 
z
M 200.315494 131.293442 
L 208.487361 131.293442 
L 204.407821 119.280754 
z
" style="fill:#008000;"/>
   </g>
   <g id="patch_14">
    <path clip-path="url(#p6b4c957f55)" d="M 220.035398 109.467589 
Q 216.88133 110.833795 213.488955 111.520017 
Q 210.09658 112.2 206.479915 112.2 
Q 198.307374 112.2 193.534218 108.132576 
Q 188.761062 104.065152 188.761062 97.109358 
Q 188.761062 90.072464 193.618327 86.036232 
Q 198.4826 82 206.942512 82 
Q 210.201715 82 213.187566 82.548977 
Q 216.180426 83.091717 218.829843 84.164718 
L 218.829843 90.184755 
Q 216.096318 88.806073 213.390828 88.12609 
Q 210.685339 87.439868 207.965831 87.439868 
Q 202.933341 87.439868 200.206824 89.947697 
Q 197.480308 92.449287 197.480308 97.109358 
Q 197.480308 101.725759 200.108698 104.246065 
Q 202.737088 106.760132 207.573325 106.760132 
Q 208.891025 106.760132 210.01948 106.616649 
Q 211.147936 106.466928 212.045093 106.155009 
L 212.045093 100.503037 
L 206.893448 100.503037 
L 206.893448 95.468663 
L 220.035398 95.468663 
z
" style="fill:#ffa600;"/>
   </g>
   <g id="patch_15">
    <path clip-path="url(#p6b4c957f55)" d="M 220.035398 77.670564 
Q 217.419354 79.816567 214.590559 80.902045 
Q 211.761764 82 208.680821 82 
Q 199.493147 82 194.127105 73.865152 
Q 188.761062 65.730304 188.761062 51.818715 
Q 188.761062 37.85722 194.127105 29.734848 
Q 199.493147 21.6 208.680821 21.6 
Q 211.761764 21.6 214.590559 22.697955 
Q 217.419354 23.783433 220.035398 25.929436 
L 220.035398 37.96951 
Q 217.395715 35.124809 214.834828 33.802272 
Q 212.273942 32.479736 209.445147 32.479736 
Q 204.370651 32.479736 201.46306 37.632638 
Q 198.563348 42.773063 198.563348 51.818715 
Q 198.563348 60.826937 201.46306 65.979839 
Q 204.370651 71.120264 209.445147 71.120264 
Q 212.273942 71.120264 214.834828 69.797728 
Q 217.395715 68.462714 220.035398 65.618013 
z
" style="fill:#0000ff;"/>
   </g>
   <g id="patch_16">
    <path clip-path="url(#p6b4c957f55)" d="M 243.345176 154.74925 
L 231.317569 154.74925 
L 229.418473 157.5 
L 221.681416 157.5 
L 232.730701 142.4 
L 241.906467 142.4 
L 252.955752 157.5 
L 245.225089 157.5 
z
M 233.235848 151.946721 
L 241.407715 151.946721 
L 237.328175 145.940377 
z
" style="fill:#008000;"/>
   </g>
   <g id="patch_17">
    <path clip-path="url(#p6b4c957f55)" d="M 221.681416 127.3 
L 252.955752 127.3 
L 252.955752 130.244921 
L 241.704264 130.244921 
L 241.704264 142.4 
L 232.954723 142.4 
L 232.954723 130.244921 
L 221.681416 130.244921 
z
" style="fill:#ff0000;"/>
   </g>
   <g id="patch_18">
    <path clip-path="url(#p6b4c957f55)" d="M 252.955752 119.723487 
Q 250.339708 123.478992 247.510913 125.378579 
Q 244.682118 127.3 241.601175 127.3 
Q 232.413501 127.3 227.047459 113.064016 
Q 221.681416 98.828031 221.681416 74.482751 
Q 221.681416 50.050134 227.047459 35.835984 
Q 232.413501 21.6 241.601175 21.6 
Q 244.682118 21.6 247.510913 23.521421 
Q 250.339708 25.421008 252.955752 29.176513 
L 252.955752 50.246643 
Q 250.316069 45.268416 247.755182 42.953976 
Q 245.194296 40.639537 242.365501 40.639537 
Q 237.291005 40.639537 234.383414 49.657116 
Q 231.483702 58.652861 231.483702 74.482751 
Q 231.483702 90.247139 234.383414 99.264718 
Q 237.291005 108.260463 242.365501 108.260463 
Q 245.194296 108.260463 247.755182 105.946024 
Q 250.316069 103.60975 252.955752 98.631522 
z
" style="fill:#0000ff;"/>
   </g>
   <g id="patch_19">
    <path clip-path="url(#p6b4c957f55)" d="M 276.26553 154.74925 
L 264.237923 154.74925 
L 262.338827 157.5 
L 254.60177 157.5 
L 265.651055 142.4 
L 274.826821 142.4 
L 285.876106 157.5 
L 278.145443 157.5 
z
M 266.156202 151.946721 
L 274.328069 151.946721 
L 270.248529 145.940377 
z
" style="fill:#008000;"/>
   </g>
   <g id="patch_20">
    <path clip-path="url(#p6b4c957f55)" d="M 254.60177 112.2 
L 285.876106 112.2 
L 285.876106 118.089841 
L 274.624618 118.089841 
L 274.624618 142.4 
L 265.875077 142.4 
L 265.875077 118.089841 
L 254.60177 118.089841 
z
" style="fill:#ff0000;"/>
   </g>
   <g id="patch_21">
    <path clip-path="url(#p6b4c957f55)" d="M 285.876106 105.705846 
Q 283.260062 108.92485 280.431267 110.553068 
Q 277.602472 112.2 274.521529 112.2 
Q 265.333855 112.2 259.967812 99.997728 
Q 254.60177 87.795455 254.60177 66.928073 
Q 254.60177 45.985829 259.967812 33.802272 
Q 265.333855 21.6 274.521529 21.6 
Q 277.602472 21.6 280.431267 23.246932 
Q 283.260062 24.87515 285.876106 28.094154 
L 285.876106 46.154266 
Q 283.236423 41.887213 280.675536 39.903408 
Q 278.11465 37.919603 275.285855 37.919603 
Q 270.211359 37.919603 267.303768 45.648957 
Q 264.404056 53.359595 264.404056 66.928073 
Q 264.404056 80.440405 267.303768 88.169758 
Q 270.211359 95.880397 275.285855 95.880397 
Q 278.11465 95.880397 280.675536 93.896592 
Q 283.236423 91.894071 285.876106 87.627019 
z
" style="fill:#0000ff;"/>
   </g>
   <g id="patch_22">
    <path clip-path="url(#p6b4c957f55)" d="M 318.79646 156.133795 
Q 315.642392 156.816897 312.250017 157.160008 
Q 308.857642 157.5 305.240977 157.5 
Q 297.068436 157.5 292.29528 155.466288 
Q 287.522124 153.432576 287.522124 149.954679 
Q 287.522124 146.436232 292.379389 144.418116 
Q 297.243662 142.4 305.703574 142.4 
Q 308.962777 142.4 311.948628 142.674489 
Q 314.941488 142.945858 317.590905 143.482359 
L 317.590905 146.492378 
Q 314.85738 145.803037 312.15189 145.463045 
Q 309.446401 145.119934 306.726893 145.119934 
Q 301.694403 145.119934 298.967886 146.373848 
Q 296.24137 147.624644 296.24137 149.954679 
Q 296.24137 152.26288 298.86976 153.523032 
Q 301.49815 154.780066 306.334387 154.780066 
Q 307.652087 154.780066 308.780542 154.708325 
Q 309.908998 154.633464 310.806155 154.477505 
L 310.806155 151.651518 
L 305.65451 151.651518 
L 305.65451 149.134332 
L 318.79646 149.134332 
z
" style="fill:#ffa600;"/>
   </g>
   <g id="patch_23">
    <path clip-path="url(#p6b4c957f55)" d="M 287.522124 127.3 
L 318.79646 127.3 
L 318.79646 130.244921 
L 307.544972 130.244921 
L 307.544972 142.4 
L 298.795431 142.4 
L 298.795431 130.244921 
L 287.522124 130.244921 
z
" style="fill:#ff0000;"/>
   </g>
   <g id="patch_24">
    <path clip-path="url(#p6b4c957f55)" d="M 309.185884 119.04775 
L 297.158277 119.04775 
L 295.259181 127.3 
L 287.522124 127.3 
L 298.571409 82 
L 307.747175 82 
L 318.79646 127.3 
L 311.065797 127.3 
z
M 299.076556 110.640163 
L 307.248423 110.640163 
L 303.168883 92.621132 
z
" style="fill:#008000;"/>
   </g>
   <g id="patch_25">
    <path clip-path="url(#p6b4c957f55)" d="M 318.79646 77.670564 
Q 316.180416 79.816567 313.351621 80.902045 
Q 310.522826 82 307.441883 82 
Q 298.254209 82 292.888166 73.865152 
Q 287.522124 65.730304 287.522124 51.818715 
Q 287.522124 37.85722 292.888166 29.734848 
Q 298.254209 21.6 307.441883 21.6 
Q 310.522826 21.6 313.351621 22.697955 
Q 316.180416 23.783433 318.79646 25.929436 
L 318.79646 37.96951 
Q 316.156777 35.124809 313.59589 33.802272 
Q 311.035004 32.479736 308.206209 32.479736 
Q 303.131713 32.479736 300.224122 37.632638 
Q 297.32441 42.773063 297.32441 51.818715 
Q 297.32441 60.826937 300.224122 65.979839 
Q 303.131713 71.120264 308.206209 71.120264 
Q 311.035004 71.120264 313.59589 69.797728 
Q 316.156777 68.462714 318.79646 65.618013 
z
" style="fill:#0000ff;"/>
   </g>
   <g id="patch_26">
    <path clip-path="url(#p6b4c957f55)" d="M 351.716814 155.335282 
Q 349.10077 156.408283 346.271975 156.951023 
Q 343.44318 157.5 340.362237 157.5 
Q 331.174563 157.5 325.80852 153.432576 
Q 320.442478 149.365152 320.442478 142.409358 
Q 320.442478 135.42861 325.80852 131.367424 
Q 331.174563 127.3 340.362237 127.3 
Q 343.44318 127.3 346.271975 127.848977 
Q 349.10077 128.391717 351.716814 129.464718 
L 351.716814 135.484755 
Q 349.077131 134.062404 346.516244 133.401136 
Q 343.955358 132.739868 341.126563 132.739868 
Q 336.052067 132.739868 333.144476 135.316319 
Q 330.244764 137.886532 330.244764 142.409358 
Q 330.244764 146.913468 333.144476 149.489919 
Q 336.052067 152.060132 341.126563 152.060132 
Q 343.955358 152.060132 346.516244 151.398864 
Q 349.077131 150.731357 351.716814 149.309006 
z
" style="fill:#0000ff;"/>
   </g>
   <g id="patch_27">
    <path clip-path="url(#p6b4c957f55)" d="M 342.106238 108.044749 
L 330.078631 108.044749 
L 328.179535 127.3 
L 320.442478 127.3 
L 331.491763 21.6 
L 340.667529 21.6 
L 351.716814 127.3 
L 343.986151 127.3 
z
M 331.99691 88.427047 
L 340.168777 88.427047 
L 336.089237 46.38264 
z
" style="fill:#008000;"/>
   </g>
   <g id="patch_28">
    <path clip-path="url(#p6b4c957f55)" d="M 384.637168 155.335282 
Q 382.021124 156.408283 379.192329 156.951023 
Q 376.363534 157.5 373.282591 157.5 
Q 364.094917 157.5 358.728874 153.432576 
Q 353.362832 149.365152 353.362832 142.409358 
Q 353.362832 135.42861 358.728874 131.367424 
Q 364.094917 127.3 373.282591 127.3 
Q 376.363534 127.3 379.192329 127.848977 
Q 382.021124 128.391717 384.637168 129.464718 
L 384.637168 135.484755 
Q 381.997485 134.062404 379.436598 133.401136 
Q 376.875712 132.739868 374.046917 132.739868 
Q 368.972421 132.739868 366.06483 135.316319 
Q 363.165118 137.886532 363.165118 142.409358 
Q 363.165118 146.913468 366.06483 149.489919 
Q 368.972421 152.060132 374.046917 152.060132 
Q 376.875712 152.060132 379.436598 151.398864 
Q 381.997485 150.731357 384.637168 149.309006 
z
" style="fill:#0000ff;"/>
   </g>
   <g id="patch_29">
    <path clip-path="url(#p6b4c957f55)" d="M 375.026592 119.04775 
L 362.998985 119.04775 
L 361.099889 127.3 
L 353.362832 127.3 
L 364.412117 82 
L 373.587883 82 
L 384.637168 127.3 
L 376.906505 127.3 
z
M 364.917264 110.640163 
L 373.089131 110.640163 
L 369.009591 92.621132 
z
" style="fill:#008000;"/>
   </g>
   <g id="patch_30">
    <path clip-path="url(#p6b4c957f55)" d="M 384.637168 76.535179 
Q 381.4831 79.267589 378.090725 80.640033 
Q 374.698349 82 371.081685 82 
Q 362.909144 82 358.135988 73.865152 
Q 353.362832 65.730304 353.362832 51.818715 
Q 353.362832 37.744929 358.220097 29.672464 
Q 363.08437 21.6 371.544282 21.6 
Q 374.803485 21.6 377.789336 22.697955 
Q 380.782196 23.783433 383.431613 25.929436 
L 383.431613 37.96951 
Q 380.698088 35.212146 377.992598 33.852179 
Q 375.287109 32.479736 372.567601 32.479736 
Q 367.535111 32.479736 364.808594 37.495394 
Q 362.082078 42.498575 362.082078 51.818715 
Q 362.082078 61.051518 364.710468 66.09213 
Q 367.338858 71.120264 372.175095 71.120264 
Q 373.492795 71.120264 374.62125 70.833299 
Q 375.749705 70.533857 376.646863 69.910019 
L 376.646863 58.606073 
L 371.495218 58.606073 
L 371.495218 48.537327 
L 384.637168 48.537327 
z
" style="fill:#ffa600;"/>
   </g>
   <g id="patch_31">
    <path clip-path="url(#p6b4c957f55)" d="M 417.557522 156.417641 
Q 414.941478 156.954142 412.112683 157.225511 
Q 409.283888 157.5 406.202945 157.5 
Q 397.015271 157.5 391.649228 155.466288 
Q 386.283186 153.432576 386.283186 149.954679 
Q 386.283186 146.464305 391.649228 144.433712 
Q 397.015271 142.4 406.202945 142.4 
Q 409.283888 142.4 412.112683 142.674489 
Q 414.941478 142.945858 417.557522 143.482359 
L 417.557522 146.492378 
Q 414.917839 145.781202 412.356952 145.450568 
Q 409.796066 145.119934 406.967271 145.119934 
Q 401.892775 145.119934 398.985184 146.408159 
Q 396.085472 147.693266 396.085472 149.954679 
Q 396.085472 152.206734 398.985184 153.49496 
Q 401.892775 154.780066 406.967271 154.780066 
Q 409.796066 154.780066 412.356952 154.449432 
Q 414.917839 154.115679 417.557522 153.404503 
z
" style="fill:#0000ff;"/>
   </g>
   <g id="patch_32">
    <path clip-path="url(#p6b4c957f55)" d="M 417.557522 136.935179 
Q 414.403454 139.667589 411.011079 141.040033 
Q 407.618703 142.4 404.002039 142.4 
Q 395.829498 142.4 391.056342 134.265152 
Q 386.283186 126.130304 386.283186 112.218715 
Q 386.283186 98.144929 391.140451 90.072464 
Q 396.004724 82 404.464635 82 
Q 407.723839 82 410.70969 83.097955 
Q 413.70255 84.183433 416.351967 86.329436 
L 416.351967 98.36951 
Q 413.618442 95.612146 410.912952 94.252179 
Q 408.207463 92.879736 405.487955 92.879736 
Q 400.455465 92.879736 397.728948 97.895394 
Q 395.002432 102.898575 395.002432 112.218715 
Q 395.002432 121.451518 397.630822 126.49213 
Q 400.259212 131.520264 405.095449 131.520264 
Q 406.413149 131.520264 407.541604 131.233299 
Q 408.670059 130.933857 409.567217 130.310019 
L 409.567217 119.006073 
L 404.415572 119.006073 
L 404.415572 108.937327 
L 417.557522 108.937327 
z
" style="fill:#ffa600;"/>
   </g>
   <g id="patch_33">
    <path clip-path="url(#p6b4c957f55)" d="M 386.283186 21.6 
L 417.557522 21.6 
L 417.557522 33.379683 
L 406.306034 33.379683 
L 406.306034 82 
L 397.556493 82 
L 397.556493 33.379683 
L 386.283186 33.379683 
z
" style="fill:#ff0000;"/>
   </g>
   <g id="patch_34">
    <path clip-path="url(#p6b4c957f55)" d="M 450.477876 154.767589 
Q 447.323808 156.133795 443.931433 156.820017 
Q 440.539057 157.5 436.922393 157.5 
Q 428.749852 157.5 423.976696 153.432576 
Q 419.20354 149.365152 419.20354 142.409358 
Q 419.20354 135.372464 424.060805 131.336232 
Q 428.925078 127.3 437.384989 127.3 
Q 440.644193 127.3 443.630044 127.848977 
Q 446.622904 128.391717 449.272321 129.464718 
L 449.272321 135.484755 
Q 446.538796 134.106073 443.833306 133.42609 
Q 441.127817 132.739868 438.408309 132.739868 
Q 433.375819 132.739868 430.649302 135.247697 
Q 427.922786 137.749287 427.922786 142.409358 
Q 427.922786 147.025759 430.551176 149.546065 
Q 433.179565 152.060132 438.015803 152.060132 
Q 439.333503 152.060132 440.461958 151.916649 
Q 441.590413 151.766928 442.487571 151.455009 
L 442.487571 145.803037 
L 437.335926 145.803037 
L 437.335926 140.768663 
L 450.477876 140.768663 
z
" style="fill:#ffa600;"/>
   </g>
   <g id="patch_35">
    <path clip-path="url(#p6b4c957f55)" d="M 450.477876 119.723487 
Q 447.861832 123.478992 445.033037 125.378579 
Q 442.204242 127.3 439.123298 127.3 
Q 429.935625 127.3 424.569582 113.064016 
Q 419.20354 98.828031 419.20354 74.482751 
Q 419.20354 50.050134 424.569582 35.835984 
Q 429.935625 21.6 439.123298 21.6 
Q 442.204242 21.6 445.033037 23.521421 
Q 447.861832 25.421008 450.477876 29.176513 
L 450.477876 50.246643 
Q 447.838193 45.268416 445.277306 42.953976 
Q 442.71642 40.639537 439.887625 40.639537 
Q 434.813129 40.639537 431.905538 49.657116 
Q 429.005826 58.652861 429.005826 74.482751 
Q 429.005826 90.247139 431.905538 99.264718 
Q 434.813129 108.260463 439.887625 108.260463 
Q 442.71642 108.260463 445.277306 105.946024 
Q 447.838193 103.60975 450.477876 98.631522 
z
" style="fill:#0000ff;"/>
   </g>
   <g id="patch_36">
    <path clip-path="url(#p6b4c957f55)" d="M 483.39823 152.035179 
Q 480.244162 154.767589 476.851787 156.140033 
Q 473.459411 157.5 469.842747 157.5 
Q 461.670206 157.5 456.89705 149.365152 
Q 452.123894 141.230304 452.123894 127.318715 
Q 452.123894 113.244929 456.981158 105.172464 
Q 461.845432 97.1 470.305343 97.1 
Q 473.564547 97.1 476.550398 98.197955 
Q 479.543258 99.283433 482.192675 101.429436 
L 482.192675 113.46951 
Q 479.45915 110.712146 476.75366 109.352179 
Q 474.048171 107.979736 471.328663 107.979736 
Q 466.296173 107.979736 463.569656 112.995394 
Q 460.84314 117.998575 460.84314 127.318715 
Q 460.84314 136.551518 463.471529 141.59213 
Q 466.099919 146.620264 470.936157 146.620264 
Q 472.253857 146.620264 473.382312 146.333299 
Q 474.510767 146.033857 475.407925 145.410019 
L 475.407925 134.106073 
L 470.25628 134.106073 
L 470.25628 124.037327 
L 483.39823 124.037327 
z
" style="fill:#ffa600;"/>
   </g>
   <g id="patch_37">
    <path clip-path="url(#p6b4c957f55)" d="M 483.39823 91.688205 
Q 480.782186 94.370709 477.953391 95.727556 
Q 475.124596 97.1 472.043652 97.1 
Q 462.855979 97.1 457.489936 86.93144 
Q 452.123894 76.76288 452.123894 59.373394 
Q 452.123894 41.921524 457.489936 31.76856 
Q 462.855979 21.6 472.043652 21.6 
Q 475.124596 21.6 477.953391 22.972444 
Q 480.782186 24.329291 483.39823 27.011795 
L 483.39823 42.061888 
Q 480.758547 38.506011 478.19766 36.85284 
Q 475.636773 35.199669 472.807979 35.199669 
Q 467.733483 35.199669 464.825892 41.640797 
Q 461.92618 48.066329 461.92618 59.373394 
Q 461.92618 70.633671 464.825892 77.074799 
Q 467.733483 83.500331 472.807979 83.500331 
Q 475.636773 83.500331 478.19766 81.84716 
Q 480.758547 80.178393 483.39823 76.622516 
z
" style="fill:#0000ff;"/>
   </g>
   <g id="patch_38">
    <path clip-path="url(#p6b4c957f55)" d="M 485.044248 142.4 
L 516.318584 142.4 
L 516.318584 145.344921 
L 505.067096 145.344921 
L 505.067096 157.5 
L 496.317555 157.5 
L 496.317555 145.344921 
L 485.044248 145.344921 
z
" style="fill:#ff0000;"/>
   </g>
   <g id="patch_39">
    <path clip-path="url(#p6b4c957f55)" d="M 516.318584 133.741128 
Q 513.70254 138.033134 510.873745 140.20409 
Q 508.04495 142.4 504.964006 142.4 
Q 495.776333 142.4 490.41029 126.130304 
Q 485.044248 109.860607 485.044248 82.03743 
Q 485.044248 54.114439 490.41029 37.869696 
Q 495.776333 21.6 504.964006 21.6 
Q 508.04495 21.6 510.873745 23.79591 
Q 513.70254 25.966866 516.318584 30.258872 
L 516.318584 54.339021 
Q 513.678901 48.649618 511.118014 46.004545 
Q 508.557127 43.359471 505.728333 43.359471 
Q 500.653837 43.359471 497.746246 53.665276 
Q 494.846534 63.946127 494.846534 82.03743 
Q 494.846534 100.053873 497.746246 110.359678 
Q 500.653837 120.640529 505.728333 120.640529 
Q 508.557127 120.640529 511.118014 117.995455 
Q 513.678901 115.325429 516.318584 109.636026 
z
" style="fill:#0000ff;"/>
   </g>
   <g id="patch_40">
    <path clip-path="url(#p6b4c957f55)" d="M 539.628362 154.74925 
L 527.600755 154.74925 
L 525.701659 157.5 
L 517.964602 157.5 
L 529.013887 142.4 
L 538.189653 142.4 
L 549.238938 157.5 
L 541.508275 157.5 
z
M 529.519034 151.946721 
L 537.690901 151.946721 
L 533.611361 145.940377 
z
" style="fill:#008000;"/>
   </g>
   <g id="patch_41">
    <path clip-path="url(#p6b4c957f55)" d="M 517.964602 127.3 
L 549.238938 127.3 
L 549.238938 130.244921 
L 537.98745 130.244921 
L 537.98745 142.4 
L 529.237909 142.4 
L 529.237909 130.244921 
L 517.964602 130.244921 
z
" style="fill:#ff0000;"/>
   </g>
   <g id="patch_42">
    <path clip-path="url(#p6b4c957f55)" d="M 549.238938 119.723487 
Q 546.622894 123.478992 543.794099 125.378579 
Q 540.965304 127.3 537.88436 127.3 
Q 528.696687 127.3 523.330644 113.064016 
Q 517.964602 98.828031 517.964602 74.482751 
Q 517.964602 50.050134 523.330644 35.835984 
Q 528.696687 21.6 537.88436 21.6 
Q 540.965304 21.6 543.794099 23.521421 
Q 546.622894 25.421008 549.238938 29.176513 
L 549.238938 50.246643 
Q 546.599255 45.268416 544.038368 42.953976 
Q 541.477481 40.639537 538.648687 40.639537 
Q 533.574191 40.639537 530.6666 49.657116 
Q 527.766888 58.652861 527.766888 74.482751 
Q 527.766888 90.247139 530.6666 99.264718 
Q 533.574191 108.260463 538.648687 108.260463 
Q 541.477481 108.260463 544.038368 105.946024 
Q 546.599255 103.60975 549.238938 98.631522 
z
" style="fill:#0000ff;"/>
   </g>
   <g id="patch_43">
    <path clip-path="url(#p6b4c957f55)" d="M 572.548716 151.9985 
L 560.521109 151.9985 
L 558.622013 157.5 
L 550.884956 157.5 
L 561.934241 127.3 
L 571.110007 127.3 
L 582.159292 157.5 
L 574.428629 157.5 
z
M 562.439387 146.393442 
L 570.611255 146.393442 
L 566.531715 134.380754 
z
" style="fill:#008000;"/>
   </g>
   <g id="patch_44">
    <path clip-path="url(#p6b4c957f55)" d="M 550.884956 97.1 
L 582.159292 97.1 
L 582.159292 102.989841 
L 570.907804 102.989841 
L 570.907804 127.3 
L 562.158263 127.3 
L 562.158263 102.989841 
L 550.884956 102.989841 
z
" style="fill:#ff0000;"/>
   </g>
   <g id="patch_45">
    <path clip-path="url(#p6b4c957f55)" d="M 582.159292 91.688205 
Q 579.543248 94.370709 576.714453 95.727556 
Q 573.885658 97.1 570.804714 97.1 
Q 561.617041 97.1 556.250998 86.93144 
Q 550.884956 76.76288 550.884956 59.373394 
Q 550.884956 41.921524 556.250998 31.76856 
Q 561.617041 21.6 570.804714 21.6 
Q 573.885658 21.6 576.714453 22.972444 
Q 579.543248 24.329291 582.159292 27.011795 
L 582.159292 42.061888 
Q 579.519609 38.506011 576.958722 36.85284 
Q 574.397835 35.199669 571.569041 35.199669 
Q 566.494545 35.199669 563.586954 41.640797 
Q 560.687242 48.066329 560.687242 59.373394 
Q 560.687242 70.633671 563.586954 77.074799 
Q 566.494545 83.500331 571.569041 83.500331 
Q 574.397835 83.500331 576.958722 81.84716 
Q 579.519609 80.178393 582.159292 76.622516 
z
" style="fill:#0000ff;"/>
   </g>
   <g id="patch_46">
    <path clip-path="url(#p6b4c957f55)" d="M 615.079646 153.401384 
Q 611.925578 155.450692 608.533203 156.480025 
Q 605.140827 157.5 601.524163 157.5 
Q 593.351622 157.5 588.578466 151.398864 
Q 583.80531 145.297728 583.80531 134.864036 
Q 583.80531 124.308697 588.662574 118.254348 
Q 593.526848 112.2 601.986759 112.2 
Q 605.245963 112.2 608.231814 113.023466 
Q 611.224674 113.837575 613.874091 115.447077 
L 613.874091 124.477133 
Q 611.140566 122.40911 608.435076 121.389134 
Q 605.729587 120.359802 603.010079 120.359802 
Q 597.977589 120.359802 595.251072 124.121545 
Q 592.524555 127.873931 592.524555 134.864036 
Q 592.524555 141.788639 595.152945 145.569097 
Q 597.781335 149.340198 602.617573 149.340198 
Q 603.935272 149.340198 605.063728 149.124974 
Q 606.192183 148.900392 607.08934 148.432514 
L 607.08934 139.954555 
L 601.937696 139.954555 
L 601.937696 132.402995 
L 615.079646 132.402995 
z
" style="fill:#ffa600;"/>
   </g>
   <g id="patch_47">
    <path clip-path="url(#p6b4c957f55)" d="M 615.079646 105.705846 
Q 612.463602 108.92485 609.634807 110.553068 
Q 606.806012 112.2 603.725068 112.2 
Q 594.537395 112.2 589.171352 99.997728 
Q 583.80531 87.795455 583.80531 66.928073 
Q 583.80531 45.985829 589.171352 33.802272 
Q 594.537395 21.6 603.725068 21.6 
Q 606.806012 21.6 609.634807 23.246932 
Q 612.463602 24.87515 615.079646 28.094154 
L 615.079646 46.154266 
Q 612.439963 41.887213 609.879076 39.903408 
Q 607.318189 37.919603 604.489395 37.919603 
Q 599.414899 37.919603 596.507308 45.648957 
Q 593.607596 53.359595 593.607596 66.928073 
Q 593.607596 80.440405 596.507308 88.169758 
Q 599.414899 95.880397 604.489395 95.880397 
Q 607.318189 95.880397 609.879076 93.896592 
Q 612.439963 91.894071 615.079646 87.627019 
z
" style="fill:#0000ff;"/>
   </g>
   <g id="patch_48">
    <path clip-path="url(#p6b4c957f55)" d="M 648 156.133795 
Q 644.845932 156.816897 641.453557 157.160008 
Q 638.061181 157.5 634.444517 157.5 
Q 626.271976 157.5 621.49882 155.466288 
Q 616.725664 153.432576 616.725664 149.954679 
Q 616.725664 146.436232 621.582928 144.418116 
Q 626.447202 142.4 634.907113 142.4 
Q 638.166317 142.4 641.152168 142.674489 
Q 644.145028 142.945858 646.794445 143.482359 
L 646.794445 146.492378 
Q 644.06092 145.803037 641.35543 145.463045 
Q 638.649941 145.119934 635.930433 145.119934 
Q 630.897943 145.119934 628.171426 146.373848 
Q 625.444909 147.624644 625.444909 149.954679 
Q 625.444909 152.26288 628.073299 153.523032 
Q 630.701689 154.780066 635.537927 154.780066 
Q 636.855626 154.780066 637.984082 154.708325 
Q 639.112537 154.633464 640.009694 154.477505 
L 640.009694 151.651518 
L 634.85805 151.651518 
L 634.85805 149.134332 
L 648 149.134332 
z
" style="fill:#ffa600;"/>
   </g>
   <g id="patch_49">
    <path clip-path="url(#p6b4c957f55)" d="M 616.725664 127.3 
L 648 127.3 
L 648 130.244921 
L 636.748512 130.244921 
L 636.748512 142.4 
L 627.998971 142.4 
L 627.998971 130.244921 
L 616.725664 130.244921 
z
" style="fill:#ff0000;"/>
   </g>
   <g id="patch_50">
    <path clip-path="url(#p6b4c957f55)" d="M 638.389424 119.04775 
L 626.361817 119.04775 
L 624.462721 127.3 
L 616.725664 127.3 
L 627.774949 82 
L 636.950715 82 
L 648 127.3 
L 640.269337 127.3 
z
M 628.280095 110.640163 
L 636.451963 110.640163 
L 632.372423 92.621132 
z
" style="fill:#008000;"/>
   </g>
   <g id="patch_51">
    <path clip-path="url(#p6b4c957f55)" d="M 648 77.670564 
Q 645.383956 79.816567 642.555161 80.902045 
Q 639.726366 82 636.645422 82 
Q 627.457749 82 622.091706 73.865152 
Q 616.725664 65.730304 616.725664 51.818715 
Q 616.725664 37.85722 622.091706 29.734848 
Q 627.457749 21.6 636.645422 21.6 
Q 639.726366 21.6 642.555161 22.697955 
Q 645.383956 23.783433 648 25.929436 
L 648 37.96951 
Q 645.360317 35.124809 642.79943 33.802272 
Q 640.238543 32.479736 637.409749 32.479736 
Q 632.335253 32.479736 629.427662 37.632638 
Q 626.52795 42.773063 626.52795 51.818715 
Q 626.52795 60.826937 629.427662 65.979839 
Q 632.335253 71.120264 637.409749 71.120264 
Q 640.238543 71.120264 642.79943 69.797728 
Q 645.360317 68.462714 648 65.618013 
z
" style="fill:#0000ff;"/>
   </g>
  </g>
 </g>
 <defs>
  <clipPath id="p6b4c957f55">
   <rect height="135.9" width="558" x="90" y="21.6"/>
  </clipPath>
 </defs>
</svg>
