<?xml version="1.0" encoding="utf-8" standalone="no"?>
<!DOCTYPE svg PUBLIC "-//W3C//DTD SVG 1.1//EN"
  "http://www.w3.org/Graphics/SVG/1.1/DTD/svg11.dtd">
<!-- Created with matplotlib (https://matplotlib.org/) -->
<svg height="180pt" version="1.1" viewBox="0 0 720 180" width="720pt" xmlns="http://www.w3.org/2000/svg" xmlns:xlink="http://www.w3.org/1999/xlink">
 <metadata>
  <rdf:RDF xmlns:cc="http://creativecommons.org/ns#" xmlns:dc="http://purl.org/dc/elements/1.1/" xmlns:rdf="http://www.w3.org/1999/02/22-rdf-syntax-ns#">
   <cc:Work>
    <dc:type rdf:resource="http://purl.org/dc/dcmitype/StillImage"/>
    <dc:date>2021-08-04T23:33:25.034636</dc:date>
    <dc:format>image/svg+xml</dc:format>
    <dc:creator>
     <cc:Agent>
      <dc:title>Matplotlib v3.3.2, https://matplotlib.org/</dc:title>
     </cc:Agent>
    </dc:creator>
   </cc:Work>
  </rdf:RDF>
 </metadata>
 <defs>
  <style type="text/css">*{stroke-linecap:butt;stroke-linejoin:round;}</style>
 </defs>
 <g id="figure_1">
  <g id="patch_1">
   <path d="M 0 180 
L 720 180 
L 720 0 
L 0 0 
z
" style="fill:none;"/>
  </g>
  <g id="axes_1">
   <g id="line2d_1">
    <path clip-path="url(#p0c1cfcf750)" d="M 90 157.5 
L 648 157.5 
" style="fill:none;stroke:#000000;stroke-linecap:square;stroke-width:0.5;"/>
   </g>
   <g id="patch_2">
    <path clip-path="url(#p0c1cfcf750)" d="M 121.274336 156.133795 
Q 118.120268 156.816897 114.727893 157.160008 
Q 111.335518 157.5 107.718853 157.5 
Q 99.546312 157.5 94.773156 155.466288 
Q 90 153.432576 90 149.954679 
Q 90 146.436232 94.857265 144.418116 
Q 99.721538 142.4 108.18145 142.4 
Q 111.440653 142.4 114.426504 142.674489 
Q 117.419364 142.945858 120.068781 143.482359 
L 120.068781 146.492378 
Q 117.335256 145.803037 114.629766 145.463045 
Q 111.924277 145.119934 109.204769 145.119934 
Q 104.172279 145.119934 101.445762 146.373848 
Q 98.719246 147.624644 98.719246 149.954679 
Q 98.719246 152.26288 101.347636 153.523032 
Q 103.976026 154.780066 108.812263 154.780066 
Q 110.129963 154.780066 111.258418 154.708325 
Q 112.386874 154.633464 113.284031 154.477505 
L 113.284031 151.651518 
L 108.132386 151.651518 
L 108.132386 149.134332 
L 121.274336 149.134332 
z
" style="fill:#ffa600;"/>
   </g>
   <g id="patch_3">
    <path clip-path="url(#p0c1cfcf750)" d="M 90 127.3 
L 121.274336 127.3 
L 121.274336 130.244921 
L 110.022848 130.244921 
L 110.022848 142.4 
L 101.273307 142.4 
L 101.273307 130.244921 
L 90 130.244921 
z
" style="fill:#ff0000;"/>
   </g>
   <g id="patch_4">
    <path clip-path="url(#p0c1cfcf750)" d="M 121.274336 125.135282 
Q 118.658292 126.208283 115.829497 126.751023 
Q 113.000702 127.3 109.919759 127.3 
Q 100.732085 127.3 95.366043 123.232576 
Q 90 119.165152 90 112.209358 
Q 90 105.22861 95.366043 101.167424 
Q 100.732085 97.1 109.919759 97.1 
Q 113.000702 97.1 115.829497 97.648977 
Q 118.658292 98.191717 121.274336 99.264718 
L 121.274336 105.284755 
Q 118.634653 103.862404 116.073766 103.201136 
Q 113.51288 102.539868 110.684085 102.539868 
Q 105.609589 102.539868 102.701998 105.116319 
Q 99.802286 107.686532 99.802286 112.209358 
Q 99.802286 116.713468 102.701998 119.289919 
Q 105.609589 121.860132 110.684085 121.860132 
Q 113.51288 121.860132 116.073766 121.198864 
Q 118.634653 120.531357 121.274336 119.109006 
z
" style="fill:#0000ff;"/>
   </g>
   <g id="patch_5">
    <path clip-path="url(#p0c1cfcf750)" d="M 111.66376 83.346249 
L 99.636153 83.346249 
L 97.737057 97.1 
L 90 97.1 
L 101.049285 21.6 
L 110.225051 21.6 
L 121.274336 97.1 
L 113.543673 97.1 
z
M 101.554432 69.333605 
L 109.726299 69.333605 
L 105.64676 39.301886 
z
" style="fill:#008000;"/>
   </g>
   <g id="patch_6">
    <path clip-path="url(#p0c1cfcf750)" d="M 154.19469 156.417641 
Q 151.578646 156.954142 148.749851 157.225511 
Q 145.921056 157.5 142.840113 157.5 
Q 133.652439 157.5 128.286397 155.466288 
Q 122.920354 153.432576 122.920354 149.954679 
Q 122.920354 146.464305 128.286397 144.433712 
Q 133.652439 142.4 142.840113 142.4 
Q 145.921056 142.4 148.749851 142.674489 
Q 151.578646 142.945858 154.19469 143.482359 
L 154.19469 146.492378 
Q 151.555007 145.781202 148.99412 145.450568 
Q 146.433234 145.119934 143.604439 145.119934 
Q 138.529943 145.119934 135.622352 146.408159 
Q 132.72264 147.693266 132.72264 149.954679 
Q 132.72264 152.206734 135.622352 153.49496 
Q 138.529943 154.780066 143.604439 154.780066 
Q 146.433234 154.780066 148.99412 154.449432 
Q 151.555007 154.115679 154.19469 153.404503 
z
" style="fill:#0000ff;"/>
   </g>
   <g id="patch_7">
    <path clip-path="url(#p0c1cfcf750)" d="M 154.19469 141.033795 
Q 151.040622 141.716897 147.648247 142.060008 
Q 144.255872 142.4 140.639207 142.4 
Q 132.466666 142.4 127.69351 140.366288 
Q 122.920354 138.332576 122.920354 134.854679 
Q 122.920354 131.336232 127.777619 129.318116 
Q 132.641892 127.3 141.101804 127.3 
Q 144.361007 127.3 147.346858 127.574489 
Q 150.339718 127.845858 152.989135 128.382359 
L 152.989135 131.392378 
Q 150.25561 130.703037 147.55012 130.363045 
Q 144.844631 130.019934 142.125123 130.019934 
Q 137.092633 130.019934 134.366116 131.273848 
Q 131.6396 132.524644 131.6396 134.854679 
Q 131.6396 137.16288 134.26799 138.423032 
Q 136.89638 139.680066 141.732617 139.680066 
Q 143.050317 139.680066 144.178772 139.608325 
Q 145.307228 139.533464 146.204385 139.377505 
L 146.204385 136.551518 
L 141.05274 136.551518 
L 141.05274 134.034332 
L 154.19469 134.034332 
z
" style="fill:#ffa600;"/>
   </g>
   <g id="patch_8">
    <path clip-path="url(#p0c1cfcf750)" d="M 122.920354 21.6 
L 154.19469 21.6 
L 154.19469 42.214445 
L 142.943202 42.214445 
L 142.943202 127.3 
L 134.193661 127.3 
L 134.193661 42.214445 
L 122.920354 42.214445 
z
" style="fill:#ff0000;"/>
   </g>
   <g id="patch_9">
    <path clip-path="url(#p0c1cfcf750)" d="M 187.115044 156.417641 
Q 184.499 156.954142 181.670205 157.225511 
Q 178.84141 157.5 175.760467 157.5 
Q 166.572793 157.5 161.206751 155.466288 
Q 155.840708 153.432576 155.840708 149.954679 
Q 155.840708 146.464305 161.206751 144.433712 
Q 166.572793 142.4 175.760467 142.4 
Q 178.84141 142.4 181.670205 142.674489 
Q 184.499 142.945858 187.115044 143.482359 
L 187.115044 146.492378 
Q 184.475361 145.781202 181.914474 145.450568 
Q 179.353588 145.119934 176.524793 145.119934 
Q 171.450297 145.119934 168.542706 146.408159 
Q 165.642994 147.693266 165.642994 149.954679 
Q 165.642994 152.206734 168.542706 153.49496 
Q 171.450297 154.780066 176.524793 154.780066 
Q 179.353588 154.780066 181.914474 154.449432 
Q 184.475361 154.115679 187.115044 153.404503 
z
" style="fill:#0000ff;"/>
   </g>
   <g id="patch_10">
    <path clip-path="url(#p0c1cfcf750)" d="M 177.504468 120.393999 
L 165.476861 120.393999 
L 163.577765 142.4 
L 155.840708 142.4 
L 166.889993 21.6 
L 176.065759 21.6 
L 187.115044 142.4 
L 179.384381 142.4 
z
M 167.39514 97.973768 
L 175.567007 97.973768 
L 171.487467 49.923018 
z
" style="fill:#008000;"/>
   </g>
   <g id="patch_11">
    <path clip-path="url(#p0c1cfcf750)" d="M 188.761062 142.4 
L 220.035398 142.4 
L 220.035398 145.344921 
L 208.78391 145.344921 
L 208.78391 157.5 
L 200.034369 157.5 
L 200.034369 145.344921 
L 188.761062 145.344921 
z
" style="fill:#ff0000;"/>
   </g>
   <g id="patch_12">
    <path clip-path="url(#p0c1cfcf750)" d="M 210.424822 134.14775 
L 198.397215 134.14775 
L 196.498119 142.4 
L 188.761062 142.4 
L 199.810347 97.1 
L 208.986113 97.1 
L 220.035398 142.4 
L 212.304735 142.4 
z
M 200.315494 125.740163 
L 208.487361 125.740163 
L 204.407821 107.721132 
z
" style="fill:#008000;"/>
   </g>
   <g id="patch_13">
    <path clip-path="url(#p0c1cfcf750)" d="M 220.035398 90.268973 
Q 216.88133 93.684487 213.488955 95.400041 
Q 210.09658 97.1 206.479915 97.1 
Q 198.307374 97.1 193.534218 86.93144 
Q 188.761062 76.76288 188.761062 59.373394 
Q 188.761062 41.781161 193.618327 31.69058 
Q 198.4826 21.6 206.942512 21.6 
Q 210.201715 21.6 213.187566 22.972444 
Q 216.180426 24.329291 218.829843 27.011795 
L 218.829843 42.061888 
Q 216.096318 38.615183 213.390828 36.915224 
Q 210.685339 35.199669 207.965831 35.199669 
Q 202.933341 35.199669 200.206824 41.469242 
Q 197.480308 47.723218 197.480308 59.373394 
Q 197.480308 70.914398 200.108698 77.215162 
Q 202.737088 83.500331 207.573325 83.500331 
Q 208.891025 83.500331 210.01948 83.141624 
Q 211.147936 82.767321 212.045093 81.987523 
L 212.045093 67.857591 
L 206.893448 67.857591 
L 206.893448 55.271659 
L 220.035398 55.271659 
z
" style="fill:#ffa600;"/>
   </g>
   <g id="patch_14">
    <path clip-path="url(#p0c1cfcf750)" d="M 252.955752 155.335282 
Q 250.339708 156.408283 247.510913 156.951023 
Q 244.682118 157.5 241.601175 157.5 
Q 232.413501 157.5 227.047459 153.432576 
Q 221.681416 149.365152 221.681416 142.409358 
Q 221.681416 135.42861 227.047459 131.367424 
Q 232.413501 127.3 241.601175 127.3 
Q 244.682118 127.3 247.510913 127.848977 
Q 250.339708 128.391717 252.955752 129.464718 
L 252.955752 135.484755 
Q 250.316069 134.062404 247.755182 133.401136 
Q 245.194296 132.739868 242.365501 132.739868 
Q 237.291005 132.739868 234.383414 135.316319 
Q 231.483702 137.886532 231.483702 142.409358 
Q 231.483702 146.913468 234.383414 149.489919 
Q 237.291005 152.060132 242.365501 152.060132 
Q 245.194296 152.060132 247.755182 151.398864 
Q 250.316069 150.731357 252.955752 149.309006 
z
" style="fill:#0000ff;"/>
   </g>
   <g id="patch_15">
    <path clip-path="url(#p0c1cfcf750)" d="M 252.955752 117.736563 
Q 249.801684 122.518281 246.409309 124.920058 
Q 243.016934 127.3 239.400269 127.3 
Q 231.227728 127.3 226.454572 113.064016 
Q 221.681416 98.828031 221.681416 74.482751 
Q 221.681416 49.853625 226.538681 35.726813 
Q 231.402954 21.6 239.862866 21.6 
Q 243.122069 21.6 246.10792 23.521421 
Q 249.10078 25.421008 251.750197 29.176513 
L 251.750197 50.246643 
Q 249.016672 45.421256 246.311182 43.041314 
Q 243.605693 40.639537 240.886185 40.639537 
Q 235.853695 40.639537 233.127178 49.416939 
Q 230.400662 58.172506 230.400662 74.482751 
Q 230.400662 90.640157 233.029052 99.461227 
Q 235.657442 108.260463 240.493679 108.260463 
Q 241.811379 108.260463 242.939834 107.758273 
Q 244.06829 107.234249 244.965447 106.142533 
L 244.965447 86.360628 
L 239.813802 86.360628 
L 239.813802 68.740322 
L 252.955752 68.740322 
z
" style="fill:#ffa600;"/>
   </g>
   <g id="patch_16">
    <path clip-path="url(#p0c1cfcf750)" d="M 285.876106 156.133795 
Q 282.722038 156.816897 279.329663 157.160008 
Q 275.937288 157.5 272.320623 157.5 
Q 264.148082 157.5 259.374926 155.466288 
Q 254.60177 153.432576 254.60177 149.954679 
Q 254.60177 146.436232 259.459035 144.418116 
Q 264.323308 142.4 272.78322 142.4 
Q 276.042423 142.4 279.028274 142.674489 
Q 282.021134 142.945858 284.670551 143.482359 
L 284.670551 146.492378 
Q 281.937026 145.803037 279.231536 145.463045 
Q 276.526047 145.119934 273.806539 145.119934 
Q 268.774049 145.119934 266.047532 146.373848 
Q 263.321016 147.624644 263.321016 149.954679 
Q 263.321016 152.26288 265.949406 153.523032 
Q 268.577796 154.780066 273.414033 154.780066 
Q 274.731733 154.780066 275.860188 154.708325 
Q 276.988644 154.633464 277.885801 154.477505 
L 277.885801 151.651518 
L 272.734156 151.651518 
L 272.734156 149.134332 
L 285.876106 149.134332 
z
" style="fill:#ffa600;"/>
   </g>
   <g id="patch_17">
    <path clip-path="url(#p0c1cfcf750)" d="M 285.876106 138.070564 
Q 283.260062 140.216567 280.431267 141.302045 
Q 277.602472 142.4 274.521529 142.4 
Q 265.333855 142.4 259.967812 134.265152 
Q 254.60177 126.130304 254.60177 112.218715 
Q 254.60177 98.25722 259.967812 90.134848 
Q 265.333855 82 274.521529 82 
Q 277.602472 82 280.431267 83.097955 
Q 283.260062 84.183433 285.876106 86.329436 
L 285.876106 98.36951 
Q 283.236423 95.524809 280.675536 94.202272 
Q 278.11465 92.879736 275.285855 92.879736 
Q 270.211359 92.879736 267.303768 98.032638 
Q 264.404056 103.173063 264.404056 112.218715 
Q 264.404056 121.226937 267.303768 126.379839 
Q 270.211359 131.520264 275.285855 131.520264 
Q 278.11465 131.520264 280.675536 130.197728 
Q 283.236423 128.862714 285.876106 126.018013 
z
" style="fill:#0000ff;"/>
   </g>
   <g id="patch_18">
    <path clip-path="url(#p0c1cfcf750)" d="M 254.60177 21.6 
L 285.876106 21.6 
L 285.876106 33.379683 
L 274.624618 33.379683 
L 274.624618 82 
L 265.875077 82 
L 265.875077 33.379683 
L 254.60177 33.379683 
z
" style="fill:#ff0000;"/>
   </g>
   <g id="patch_19">
    <path clip-path="url(#p0c1cfcf750)" d="M 309.185884 154.74925 
L 297.158277 154.74925 
L 295.259181 157.5 
L 287.522124 157.5 
L 298.571409 142.4 
L 307.747175 142.4 
L 318.79646 157.5 
L 311.065797 157.5 
z
M 299.076556 151.946721 
L 307.248423 151.946721 
L 303.168883 145.940377 
z
" style="fill:#008000;"/>
   </g>
   <g id="patch_20">
    <path clip-path="url(#p0c1cfcf750)" d="M 318.79646 141.317641 
Q 316.180416 141.854142 313.351621 142.125511 
Q 310.522826 142.4 307.441883 142.4 
Q 298.254209 142.4 292.888166 140.366288 
Q 287.522124 138.332576 287.522124 134.854679 
Q 287.522124 131.364305 292.888166 129.333712 
Q 298.254209 127.3 307.441883 127.3 
Q 310.522826 127.3 313.351621 127.574489 
Q 316.180416 127.845858 318.79646 128.382359 
L 318.79646 131.392378 
Q 316.156777 130.681202 313.59589 130.350568 
Q 311.035004 130.019934 308.206209 130.019934 
Q 303.131713 130.019934 300.224122 131.308159 
Q 297.32441 132.593266 297.32441 134.854679 
Q 297.32441 137.106734 300.224122 138.39496 
Q 303.131713 139.680066 308.206209 139.680066 
Q 311.035004 139.680066 313.59589 139.349432 
Q 316.156777 139.015679 318.79646 138.304503 
z
" style="fill:#0000ff;"/>
   </g>
   <g id="patch_21">
    <path clip-path="url(#p0c1cfcf750)" d="M 287.522124 112.2 
L 318.79646 112.2 
L 318.79646 115.144921 
L 307.544972 115.144921 
L 307.544972 127.3 
L 298.795431 127.3 
L 298.795431 115.144921 
L 287.522124 115.144921 
z
" style="fill:#ff0000;"/>
   </g>
   <g id="patch_22">
    <path clip-path="url(#p0c1cfcf750)" d="M 318.79646 104.002768 
Q 315.642392 108.101384 312.250017 110.16005 
Q 308.857642 112.2 305.240977 112.2 
Q 297.068436 112.2 292.29528 99.997728 
Q 287.522124 87.795455 287.522124 66.928073 
Q 287.522124 45.817393 292.379389 33.708697 
Q 297.243662 21.6 305.703574 21.6 
Q 308.962777 21.6 311.948628 23.246932 
Q 314.941488 24.87515 317.590905 28.094154 
L 317.590905 46.154266 
Q 314.85738 42.018219 312.15189 39.978269 
Q 309.446401 37.919603 306.726893 37.919603 
Q 301.694403 37.919603 298.967886 45.44309 
Q 296.24137 52.947862 296.24137 66.928073 
Q 296.24137 80.777277 298.86976 88.338195 
Q 301.49815 95.880397 306.334387 95.880397 
Q 307.652087 95.880397 308.780542 95.449948 
Q 309.908998 95.000785 310.806155 94.065028 
L 310.806155 77.10911 
L 305.65451 77.10911 
L 305.65451 62.00599 
L 318.79646 62.00599 
z
" style="fill:#ffa600;"/>
   </g>
   <g id="patch_23">
    <path clip-path="url(#p0c1cfcf750)" d="M 342.106238 151.9985 
L 330.078631 151.9985 
L 328.179535 157.5 
L 320.442478 157.5 
L 331.491763 127.3 
L 340.667529 127.3 
L 351.716814 157.5 
L 343.986151 157.5 
z
M 331.99691 146.393442 
L 340.168777 146.393442 
L 336.089237 134.380754 
z
" style="fill:#008000;"/>
   </g>
   <g id="patch_24">
    <path clip-path="url(#p0c1cfcf750)" d="M 351.716814 117.736563 
Q 348.562746 122.518281 345.170371 124.920058 
Q 341.777996 127.3 338.161331 127.3 
Q 329.98879 127.3 325.215634 113.064016 
Q 320.442478 98.828031 320.442478 74.482751 
Q 320.442478 49.853625 325.299743 35.726813 
Q 330.164016 21.6 338.623928 21.6 
Q 341.883131 21.6 344.868982 23.521421 
Q 347.861842 25.421008 350.511259 29.176513 
L 350.511259 50.246643 
Q 347.777734 45.421256 345.072244 43.041314 
Q 342.366755 40.639537 339.647247 40.639537 
Q 334.614757 40.639537 331.88824 49.416939 
Q 329.161724 58.172506 329.161724 74.482751 
Q 329.161724 90.640157 331.790114 99.461227 
Q 334.418504 108.260463 339.254741 108.260463 
Q 340.572441 108.260463 341.700896 107.758273 
Q 342.829351 107.234249 343.726509 106.142533 
L 343.726509 86.360628 
L 338.574864 86.360628 
L 338.574864 68.740322 
L 351.716814 68.740322 
z
" style="fill:#ffa600;"/>
   </g>
   <g id="patch_25">
    <path clip-path="url(#p0c1cfcf750)" d="M 353.362832 127.3 
L 384.637168 127.3 
L 384.637168 133.189841 
L 373.38568 133.189841 
L 373.38568 157.5 
L 364.636139 157.5 
L 364.636139 133.189841 
L 353.362832 133.189841 
z
" style="fill:#ff0000;"/>
   </g>
   <g id="patch_26">
    <path clip-path="url(#p0c1cfcf750)" d="M 384.637168 117.736563 
Q 381.4831 122.518281 378.090725 124.920058 
Q 374.698349 127.3 371.081685 127.3 
Q 362.909144 127.3 358.135988 113.064016 
Q 353.362832 98.828031 353.362832 74.482751 
Q 353.362832 49.853625 358.220097 35.726813 
Q 363.08437 21.6 371.544282 21.6 
Q 374.803485 21.6 377.789336 23.521421 
Q 380.782196 25.421008 383.431613 29.176513 
L 383.431613 50.246643 
Q 380.698088 45.421256 377.992598 43.041314 
Q 375.287109 40.639537 372.567601 40.639537 
Q 367.535111 40.639537 364.808594 49.416939 
Q 362.082078 58.172506 362.082078 74.482751 
Q 362.082078 90.640157 364.710468 99.461227 
Q 367.338858 108.260463 372.175095 108.260463 
Q 373.492795 108.260463 374.62125 107.758273 
Q 375.749705 107.234249 376.646863 106.142533 
L 376.646863 86.360628 
L 371.495218 86.360628 
L 371.495218 68.740322 
L 384.637168 68.740322 
z
" style="fill:#ffa600;"/>
   </g>
   <g id="patch_27">
    <path clip-path="url(#p0c1cfcf750)" d="M 386.283186 142.4 
L 417.557522 142.4 
L 417.557522 145.344921 
L 406.306034 145.344921 
L 406.306034 157.5 
L 397.556493 157.5 
L 397.556493 145.344921 
L 386.283186 145.344921 
z
" style="fill:#ff0000;"/>
   </g>
   <g id="patch_28">
    <path clip-path="url(#p0c1cfcf750)" d="M 417.557522 131.470357 
Q 414.403454 136.935179 411.011079 139.680066 
Q 407.618703 142.4 404.002039 142.4 
Q 395.829498 142.4 391.056342 126.130304 
Q 386.283186 109.860607 386.283186 82.03743 
Q 386.283186 53.889857 391.140451 37.744929 
Q 396.004724 21.6 404.464635 21.6 
Q 407.723839 21.6 410.70969 23.79591 
Q 413.70255 25.966866 416.351967 30.258872 
L 416.351967 54.339021 
Q 413.618442 48.824293 410.912952 46.104359 
Q 408.207463 43.359471 405.487955 43.359471 
Q 400.455465 43.359471 397.728948 53.390787 
Q 395.002432 63.397149 395.002432 82.03743 
Q 395.002432 100.503037 397.630822 110.584259 
Q 400.259212 120.640529 405.095449 120.640529 
Q 406.413149 120.640529 407.541604 120.066598 
Q 408.670059 119.467713 409.567217 118.220037 
L 409.567217 95.612146 
L 404.415572 95.612146 
L 404.415572 75.474654 
L 417.557522 75.474654 
z
" style="fill:#ffa600;"/>
   </g>
   <g id="patch_29">
    <path clip-path="url(#p0c1cfcf750)" d="M 419.20354 21.6 
L 450.477876 21.6 
L 450.477876 48.104286 
L 439.226388 48.104286 
L 439.226388 157.5 
L 430.476847 157.5 
L 430.476847 48.104286 
L 419.20354 48.104286 
z
" style="fill:#ff0000;"/>
   </g>
   <g id="patch_30">
    <path clip-path="url(#p0c1cfcf750)" d="M 483.39823 156.133795 
Q 480.244162 156.816897 476.851787 157.160008 
Q 473.459411 157.5 469.842747 157.5 
Q 461.670206 157.5 456.89705 155.466288 
Q 452.123894 153.432576 452.123894 149.954679 
Q 452.123894 146.436232 456.981158 144.418116 
Q 461.845432 142.4 470.305343 142.4 
Q 473.564547 142.4 476.550398 142.674489 
Q 479.543258 142.945858 482.192675 143.482359 
L 482.192675 146.492378 
Q 479.45915 145.803037 476.75366 145.463045 
Q 474.048171 145.119934 471.328663 145.119934 
Q 466.296173 145.119934 463.569656 146.373848 
Q 460.84314 147.624644 460.84314 149.954679 
Q 460.84314 152.26288 463.471529 153.523032 
Q 466.099919 154.780066 470.936157 154.780066 
Q 472.253857 154.780066 473.382312 154.708325 
Q 474.510767 154.633464 475.407925 154.477505 
L 475.407925 151.651518 
L 470.25628 151.651518 
L 470.25628 149.134332 
L 483.39823 149.134332 
z
" style="fill:#ffa600;"/>
   </g>
   <g id="patch_31">
    <path clip-path="url(#p0c1cfcf750)" d="M 473.787654 120.393999 
L 461.760047 120.393999 
L 459.860951 142.4 
L 452.123894 142.4 
L 463.173179 21.6 
L 472.348945 21.6 
L 483.39823 142.4 
L 475.667567 142.4 
z
M 463.678326 97.973768 
L 471.850193 97.973768 
L 467.770653 49.923018 
z
" style="fill:#008000;"/>
   </g>
   <g id="patch_32">
    <path clip-path="url(#p0c1cfcf750)" d="M 516.318584 154.767589 
Q 513.164516 156.133795 509.772141 156.820017 
Q 506.379765 157.5 502.763101 157.5 
Q 494.59056 157.5 489.817404 153.432576 
Q 485.044248 149.365152 485.044248 142.409358 
Q 485.044248 135.372464 489.901512 131.336232 
Q 494.765786 127.3 503.225697 127.3 
Q 506.484901 127.3 509.470752 127.848977 
Q 512.463612 128.391717 515.113029 129.464718 
L 515.113029 135.484755 
Q 512.379504 134.106073 509.674014 133.42609 
Q 506.968525 132.739868 504.249017 132.739868 
Q 499.216527 132.739868 496.49001 135.247697 
Q 493.763493 137.749287 493.763493 142.409358 
Q 493.763493 147.025759 496.391883 149.546065 
Q 499.020273 152.060132 503.856511 152.060132 
Q 505.174211 152.060132 506.302666 151.916649 
Q 507.431121 151.766928 508.328279 151.455009 
L 508.328279 145.803037 
L 503.176634 145.803037 
L 503.176634 140.768663 
L 516.318584 140.768663 
z
" style="fill:#ffa600;"/>
   </g>
   <g id="patch_33">
    <path clip-path="url(#p0c1cfcf750)" d="M 506.708008 108.044749 
L 494.680401 108.044749 
L 492.781305 127.3 
L 485.044248 127.3 
L 496.093533 21.6 
L 505.269299 21.6 
L 516.318584 127.3 
L 508.587921 127.3 
z
M 496.59868 88.427047 
L 504.770547 88.427047 
L 500.691007 46.38264 
z
" style="fill:#008000;"/>
   </g>
   <g id="patch_34">
    <path clip-path="url(#p0c1cfcf750)" d="M 517.964602 142.4 
L 549.238938 142.4 
L 549.238938 145.344921 
L 537.98745 145.344921 
L 537.98745 157.5 
L 529.237909 157.5 
L 529.237909 145.344921 
L 517.964602 145.344921 
z
" style="fill:#ff0000;"/>
   </g>
   <g id="patch_35">
    <path clip-path="url(#p0c1cfcf750)" d="M 539.628362 134.14775 
L 527.600755 134.14775 
L 525.701659 142.4 
L 517.964602 142.4 
L 529.013887 97.1 
L 538.189653 97.1 
L 549.238938 142.4 
L 541.508275 142.4 
z
M 529.519034 125.740163 
L 537.690901 125.740163 
L 533.611361 107.721132 
z
" style="fill:#008000;"/>
   </g>
   <g id="patch_36">
    <path clip-path="url(#p0c1cfcf750)" d="M 549.238938 91.688205 
Q 546.622894 94.370709 543.794099 95.727556 
Q 540.965304 97.1 537.88436 97.1 
Q 528.696687 97.1 523.330644 86.93144 
Q 517.964602 76.76288 517.964602 59.373394 
Q 517.964602 41.921524 523.330644 31.76856 
Q 528.696687 21.6 537.88436 21.6 
Q 540.965304 21.6 543.794099 22.972444 
Q 546.622894 24.329291 549.238938 27.011795 
L 549.238938 42.061888 
Q 546.599255 38.506011 544.038368 36.85284 
Q 541.477481 35.199669 538.648687 35.199669 
Q 533.574191 35.199669 530.6666 41.640797 
Q 527.766888 48.066329 527.766888 59.373394 
Q 527.766888 70.633671 530.6666 77.074799 
Q 533.574191 83.500331 538.648687 83.500331 
Q 541.477481 83.500331 544.038368 81.84716 
Q 546.599255 80.178393 549.238938 76.622516 
z
" style="fill:#0000ff;"/>
   </g>
   <g id="patch_37">
    <path clip-path="url(#p0c1cfcf750)" d="M 572.548716 154.74925 
L 560.521109 154.74925 
L 558.622013 157.5 
L 550.884956 157.5 
L 561.934241 142.4 
L 571.110007 142.4 
L 582.159292 157.5 
L 574.428629 157.5 
z
M 562.439387 151.946721 
L 570.611255 151.946721 
L 566.531715 145.940377 
z
" style="fill:#008000;"/>
   </g>
   <g id="patch_38">
    <path clip-path="url(#p0c1cfcf750)" d="M 582.159292 141.033795 
Q 579.005224 141.716897 575.612849 142.060008 
Q 572.220473 142.4 568.603809 142.4 
Q 560.431268 142.4 555.658112 140.366288 
Q 550.884956 138.332576 550.884956 134.854679 
Q 550.884956 131.336232 555.74222 129.318116 
Q 560.606494 127.3 569.066405 127.3 
Q 572.325609 127.3 575.31146 127.574489 
Q 578.30432 127.845858 580.953737 128.382359 
L 580.953737 131.392378 
Q 578.220212 130.703037 575.514722 130.363045 
Q 572.809233 130.019934 570.089725 130.019934 
Q 565.057235 130.019934 562.330718 131.273848 
Q 559.604201 132.524644 559.604201 134.854679 
Q 559.604201 137.16288 562.232591 138.423032 
Q 564.860981 139.680066 569.697219 139.680066 
Q 571.014919 139.680066 572.143374 139.608325 
Q 573.271829 139.533464 574.168986 139.377505 
L 574.168986 136.551518 
L 569.017342 136.551518 
L 569.017342 134.034332 
L 582.159292 134.034332 
z
" style="fill:#ffa600;"/>
   </g>
   <g id="patch_39">
    <path clip-path="url(#p0c1cfcf750)" d="M 550.884956 21.6 
L 582.159292 21.6 
L 582.159292 42.214445 
L 570.907804 42.214445 
L 570.907804 127.3 
L 562.158263 127.3 
L 562.158263 42.214445 
L 550.884956 42.214445 
z
" style="fill:#ff0000;"/>
   </g>
   <g id="patch_40">
    <path clip-path="url(#p0c1cfcf750)" d="M 615.079646 156.417641 
Q 612.463602 156.954142 609.634807 157.225511 
Q 606.806012 157.5 603.725068 157.5 
Q 594.537395 157.5 589.171352 155.466288 
Q 583.80531 153.432576 583.80531 149.954679 
Q 583.80531 146.464305 589.171352 144.433712 
Q 594.537395 142.4 603.725068 142.4 
Q 606.806012 142.4 609.634807 142.674489 
Q 612.463602 142.945858 615.079646 143.482359 
L 615.079646 146.492378 
Q 612.439963 145.781202 609.879076 145.450568 
Q 607.318189 145.119934 604.489395 145.119934 
Q 599.414899 145.119934 596.507308 146.408159 
Q 593.607596 147.693266 593.607596 149.954679 
Q 593.607596 152.206734 596.507308 153.49496 
Q 599.414899 154.780066 604.489395 154.780066 
Q 607.318189 154.780066 609.879076 154.449432 
Q 612.439963 154.115679 615.079646 153.404503 
z
" style="fill:#0000ff;"/>
   </g>
   <g id="patch_41">
    <path clip-path="url(#p0c1cfcf750)" d="M 583.80531 97.1 
L 615.079646 97.1 
L 615.079646 105.934762 
L 603.828158 105.934762 
L 603.828158 142.4 
L 595.078617 142.4 
L 595.078617 105.934762 
L 583.80531 105.934762 
z
" style="fill:#ff0000;"/>
   </g>
   <g id="patch_42">
    <path clip-path="url(#p0c1cfcf750)" d="M 605.46907 83.346249 
L 593.441463 83.346249 
L 591.542367 97.1 
L 583.80531 97.1 
L 594.854595 21.6 
L 604.030361 21.6 
L 615.079646 97.1 
L 607.348983 97.1 
z
M 595.359741 69.333605 
L 603.531609 69.333605 
L 599.452069 39.301886 
z
" style="fill:#008000;"/>
   </g>
   <g id="patch_43">
    <path clip-path="url(#p0c1cfcf750)" d="M 648 156.133795 
Q 644.845932 156.816897 641.453557 157.160008 
Q 638.061181 157.5 634.444517 157.5 
Q 626.271976 157.5 621.49882 155.466288 
Q 616.725664 153.432576 616.725664 149.954679 
Q 616.725664 146.436232 621.582928 144.418116 
Q 626.447202 142.4 634.907113 142.4 
Q 638.166317 142.4 641.152168 142.674489 
Q 644.145028 142.945858 646.794445 143.482359 
L 646.794445 146.492378 
Q 644.06092 145.803037 641.35543 145.463045 
Q 638.649941 145.119934 635.930433 145.119934 
Q 630.897943 145.119934 628.171426 146.373848 
Q 625.444909 147.624644 625.444909 149.954679 
Q 625.444909 152.26288 628.073299 153.523032 
Q 630.701689 154.780066 635.537927 154.780066 
Q 636.855626 154.780066 637.984082 154.708325 
Q 639.112537 154.633464 640.009694 154.477505 
L 640.009694 151.651518 
L 634.85805 151.651518 
L 634.85805 149.134332 
L 648 149.134332 
z
" style="fill:#ffa600;"/>
   </g>
   <g id="patch_44">
    <path clip-path="url(#p0c1cfcf750)" d="M 616.725664 127.3 
L 648 127.3 
L 648 130.244921 
L 636.748512 130.244921 
L 636.748512 142.4 
L 627.998971 142.4 
L 627.998971 130.244921 
L 616.725664 130.244921 
z
" style="fill:#ff0000;"/>
   </g>
   <g id="patch_45">
    <path clip-path="url(#p0c1cfcf750)" d="M 638.389424 108.044749 
L 626.361817 108.044749 
L 624.462721 127.3 
L 616.725664 127.3 
L 627.774949 21.6 
L 636.950715 21.6 
L 648 127.3 
L 640.269337 127.3 
z
M 628.280095 88.427047 
L 636.451963 88.427047 
L 632.372423 46.38264 
z
" style="fill:#008000;"/>
   </g>
  </g>
 </g>
 <defs>
  <clipPath id="p0c1cfcf750">
   <rect height="135.9" width="558" x="90" y="21.6"/>
  </clipPath>
 </defs>
</svg>
