<?xml version="1.0" encoding="utf-8" standalone="no"?>
<!DOCTYPE svg PUBLIC "-//W3C//DTD SVG 1.1//EN"
  "http://www.w3.org/Graphics/SVG/1.1/DTD/svg11.dtd">
<!-- Created with matplotlib (https://matplotlib.org/) -->
<svg height="180pt" version="1.1" viewBox="0 0 720 180" width="720pt" xmlns="http://www.w3.org/2000/svg" xmlns:xlink="http://www.w3.org/1999/xlink">
 <metadata>
  <rdf:RDF xmlns:cc="http://creativecommons.org/ns#" xmlns:dc="http://purl.org/dc/elements/1.1/" xmlns:rdf="http://www.w3.org/1999/02/22-rdf-syntax-ns#">
   <cc:Work>
    <dc:type rdf:resource="http://purl.org/dc/dcmitype/StillImage"/>
    <dc:date>2021-08-04T23:33:45.619315</dc:date>
    <dc:format>image/svg+xml</dc:format>
    <dc:creator>
     <cc:Agent>
      <dc:title>Matplotlib v3.3.2, https://matplotlib.org/</dc:title>
     </cc:Agent>
    </dc:creator>
   </cc:Work>
  </rdf:RDF>
 </metadata>
 <defs>
  <style type="text/css">*{stroke-linecap:butt;stroke-linejoin:round;}</style>
 </defs>
 <g id="figure_1">
  <g id="patch_1">
   <path d="M 0 180 
L 720 180 
L 720 0 
L 0 0 
z
" style="fill:none;"/>
  </g>
  <g id="axes_1">
   <g id="line2d_1">
    <path clip-path="url(#pc5bb5764c9)" d="M 90 157.5 
L 648 157.5 
" style="fill:none;stroke:#000000;stroke-linecap:square;stroke-width:0.5;"/>
   </g>
   <g id="patch_2">
    <path clip-path="url(#pc5bb5764c9)" d="M 111.66376 154.74925 
L 99.636153 154.74925 
L 97.737057 157.5 
L 90 157.5 
L 101.049285 142.4 
L 110.225051 142.4 
L 121.274336 157.5 
L 113.543673 157.5 
z
M 101.554432 151.946721 
L 109.726299 151.946721 
L 105.64676 145.940377 
z
" style="fill:#008000;"/>
   </g>
   <g id="patch_3">
    <path clip-path="url(#pc5bb5764c9)" d="M 121.274336 139.667589 
Q 118.120268 141.033795 114.727893 141.720017 
Q 111.335518 142.4 107.718853 142.4 
Q 99.546312 142.4 94.773156 138.332576 
Q 90 134.265152 90 127.309358 
Q 90 120.272464 94.857265 116.236232 
Q 99.721538 112.2 108.18145 112.2 
Q 111.440653 112.2 114.426504 112.748977 
Q 117.419364 113.291717 120.068781 114.364718 
L 120.068781 120.384755 
Q 117.335256 119.006073 114.629766 118.32609 
Q 111.924277 117.639868 109.204769 117.639868 
Q 104.172279 117.639868 101.445762 120.147697 
Q 98.719246 122.649287 98.719246 127.309358 
Q 98.719246 131.925759 101.347636 134.446065 
Q 103.976026 136.960132 108.812263 136.960132 
Q 110.129963 136.960132 111.258418 136.816649 
Q 112.386874 136.666928 113.284031 136.355009 
L 113.284031 130.703037 
L 108.132386 130.703037 
L 108.132386 125.668663 
L 121.274336 125.668663 
z
" style="fill:#ffa600;"/>
   </g>
   <g id="patch_4">
    <path clip-path="url(#pc5bb5764c9)" d="M 90 82 
L 121.274336 82 
L 121.274336 87.889841 
L 110.022848 87.889841 
L 110.022848 112.2 
L 101.273307 112.2 
L 101.273307 87.889841 
L 90 87.889841 
z
" style="fill:#ff0000;"/>
   </g>
   <g id="patch_5">
    <path clip-path="url(#pc5bb5764c9)" d="M 121.274336 77.670564 
Q 118.658292 79.816567 115.829497 80.902045 
Q 113.000702 82 109.919759 82 
Q 100.732085 82 95.366043 73.865152 
Q 90 65.730304 90 51.818715 
Q 90 37.85722 95.366043 29.734848 
Q 100.732085 21.6 109.919759 21.6 
Q 113.000702 21.6 115.829497 22.697955 
Q 118.658292 23.783433 121.274336 25.929436 
L 121.274336 37.96951 
Q 118.634653 35.124809 116.073766 33.802272 
Q 113.51288 32.479736 110.684085 32.479736 
Q 105.609589 32.479736 102.701998 37.632638 
Q 99.802286 42.773063 99.802286 51.818715 
Q 99.802286 60.826937 102.701998 65.979839 
Q 105.609589 71.120264 110.684085 71.120264 
Q 113.51288 71.120264 116.073766 69.797728 
Q 118.634653 68.462714 121.274336 65.618013 
z
" style="fill:#0000ff;"/>
   </g>
   <g id="patch_6">
    <path clip-path="url(#pc5bb5764c9)" d="M 144.584114 154.74925 
L 132.556507 154.74925 
L 130.657411 157.5 
L 122.920354 157.5 
L 133.969639 142.4 
L 143.145405 142.4 
L 154.19469 157.5 
L 146.464027 157.5 
z
M 134.474786 151.946721 
L 142.646653 151.946721 
L 138.567114 145.940377 
z
" style="fill:#008000;"/>
   </g>
   <g id="patch_7">
    <path clip-path="url(#pc5bb5764c9)" d="M 122.920354 127.3 
L 154.19469 127.3 
L 154.19469 130.244921 
L 142.943202 130.244921 
L 142.943202 142.4 
L 134.193661 142.4 
L 134.193661 130.244921 
L 122.920354 130.244921 
z
" style="fill:#ff0000;"/>
   </g>
   <g id="patch_8">
    <path clip-path="url(#pc5bb5764c9)" d="M 154.19469 119.723487 
Q 151.578646 123.478992 148.749851 125.378579 
Q 145.921056 127.3 142.840113 127.3 
Q 133.652439 127.3 128.286397 113.064016 
Q 122.920354 98.828031 122.920354 74.482751 
Q 122.920354 50.050134 128.286397 35.835984 
Q 133.652439 21.6 142.840113 21.6 
Q 145.921056 21.6 148.749851 23.521421 
Q 151.578646 25.421008 154.19469 29.176513 
L 154.19469 50.246643 
Q 151.555007 45.268416 148.99412 42.953976 
Q 146.433234 40.639537 143.604439 40.639537 
Q 138.529943 40.639537 135.622352 49.657116 
Q 132.72264 58.652861 132.72264 74.482751 
Q 132.72264 90.247139 135.622352 99.264718 
Q 138.529943 108.260463 143.604439 108.260463 
Q 146.433234 108.260463 148.99412 105.946024 
Q 151.555007 103.60975 154.19469 98.631522 
z
" style="fill:#0000ff;"/>
   </g>
   <g id="patch_9">
    <path clip-path="url(#pc5bb5764c9)" d="M 155.840708 142.4 
L 187.115044 142.4 
L 187.115044 145.344921 
L 175.863556 145.344921 
L 175.863556 157.5 
L 167.114015 157.5 
L 167.114015 145.344921 
L 155.840708 145.344921 
z
" style="fill:#ff0000;"/>
   </g>
   <g id="patch_10">
    <path clip-path="url(#pc5bb5764c9)" d="M 187.115044 131.470357 
Q 183.960976 136.935179 180.568601 139.680066 
Q 177.176226 142.4 173.559561 142.4 
Q 165.38702 142.4 160.613864 126.130304 
Q 155.840708 109.860607 155.840708 82.03743 
Q 155.840708 53.889857 160.697973 37.744929 
Q 165.562246 21.6 174.022158 21.6 
Q 177.281361 21.6 180.267212 23.79591 
Q 183.260072 25.966866 185.909489 30.258872 
L 185.909489 54.339021 
Q 183.175964 48.824293 180.470474 46.104359 
Q 177.764985 43.359471 175.045477 43.359471 
Q 170.012987 43.359471 167.28647 53.390787 
Q 164.559954 63.397149 164.559954 82.03743 
Q 164.559954 100.503037 167.188344 110.584259 
Q 169.816734 120.640529 174.652971 120.640529 
Q 175.970671 120.640529 177.099126 120.066598 
Q 178.227582 119.467713 179.124739 118.220037 
L 179.124739 95.612146 
L 173.973094 95.612146 
L 173.973094 75.474654 
L 187.115044 75.474654 
z
" style="fill:#ffa600;"/>
   </g>
   <g id="patch_11">
    <path clip-path="url(#pc5bb5764c9)" d="M 220.035398 156.133795 
Q 216.88133 156.816897 213.488955 157.160008 
Q 210.09658 157.5 206.479915 157.5 
Q 198.307374 157.5 193.534218 155.466288 
Q 188.761062 153.432576 188.761062 149.954679 
Q 188.761062 146.436232 193.618327 144.418116 
Q 198.4826 142.4 206.942512 142.4 
Q 210.201715 142.4 213.187566 142.674489 
Q 216.180426 142.945858 218.829843 143.482359 
L 218.829843 146.492378 
Q 216.096318 145.803037 213.390828 145.463045 
Q 210.685339 145.119934 207.965831 145.119934 
Q 202.933341 145.119934 200.206824 146.373848 
Q 197.480308 147.624644 197.480308 149.954679 
Q 197.480308 152.26288 200.108698 153.523032 
Q 202.737088 154.780066 207.573325 154.780066 
Q 208.891025 154.780066 210.01948 154.708325 
Q 211.147936 154.633464 212.045093 154.477505 
L 212.045093 151.651518 
L 206.893448 151.651518 
L 206.893448 149.134332 
L 220.035398 149.134332 
z
" style="fill:#ffa600;"/>
   </g>
   <g id="patch_12">
    <path clip-path="url(#pc5bb5764c9)" d="M 188.761062 112.2 
L 220.035398 112.2 
L 220.035398 118.089841 
L 208.78391 118.089841 
L 208.78391 142.4 
L 200.034369 142.4 
L 200.034369 118.089841 
L 188.761062 118.089841 
z
" style="fill:#ff0000;"/>
   </g>
   <g id="patch_13">
    <path clip-path="url(#pc5bb5764c9)" d="M 220.035398 105.705846 
Q 217.419354 108.92485 214.590559 110.553068 
Q 211.761764 112.2 208.680821 112.2 
Q 199.493147 112.2 194.127105 99.997728 
Q 188.761062 87.795455 188.761062 66.928073 
Q 188.761062 45.985829 194.127105 33.802272 
Q 199.493147 21.6 208.680821 21.6 
Q 211.761764 21.6 214.590559 23.246932 
Q 217.419354 24.87515 220.035398 28.094154 
L 220.035398 46.154266 
Q 217.395715 41.887213 214.834828 39.903408 
Q 212.273942 37.919603 209.445147 37.919603 
Q 204.370651 37.919603 201.46306 45.648957 
Q 198.563348 53.359595 198.563348 66.928073 
Q 198.563348 80.440405 201.46306 88.169758 
Q 204.370651 95.880397 209.445147 95.880397 
Q 212.273942 95.880397 214.834828 93.896592 
Q 217.395715 91.894071 220.035398 87.627019 
z
" style="fill:#0000ff;"/>
   </g>
   <g id="patch_14">
    <path clip-path="url(#pc5bb5764c9)" d="M 221.681416 142.4 
L 252.955752 142.4 
L 252.955752 145.344921 
L 241.704264 145.344921 
L 241.704264 157.5 
L 232.954723 157.5 
L 232.954723 145.344921 
L 221.681416 145.344921 
z
" style="fill:#ff0000;"/>
   </g>
   <g id="patch_15">
    <path clip-path="url(#pc5bb5764c9)" d="M 252.955752 133.741128 
Q 250.339708 138.033134 247.510913 140.20409 
Q 244.682118 142.4 241.601175 142.4 
Q 232.413501 142.4 227.047459 126.130304 
Q 221.681416 109.860607 221.681416 82.03743 
Q 221.681416 54.114439 227.047459 37.869696 
Q 232.413501 21.6 241.601175 21.6 
Q 244.682118 21.6 247.510913 23.79591 
Q 250.339708 25.966866 252.955752 30.258872 
L 252.955752 54.339021 
Q 250.316069 48.649618 247.755182 46.004545 
Q 245.194296 43.359471 242.365501 43.359471 
Q 237.291005 43.359471 234.383414 53.665276 
Q 231.483702 63.946127 231.483702 82.03743 
Q 231.483702 100.053873 234.383414 110.359678 
Q 237.291005 120.640529 242.365501 120.640529 
Q 245.194296 120.640529 247.755182 117.995455 
Q 250.316069 115.325429 252.955752 109.636026 
z
" style="fill:#0000ff;"/>
   </g>
   <g id="patch_16">
    <path clip-path="url(#pc5bb5764c9)" d="M 276.26553 154.74925 
L 264.237923 154.74925 
L 262.338827 157.5 
L 254.60177 157.5 
L 265.651055 142.4 
L 274.826821 142.4 
L 285.876106 157.5 
L 278.145443 157.5 
z
M 266.156202 151.946721 
L 274.328069 151.946721 
L 270.248529 145.940377 
z
" style="fill:#008000;"/>
   </g>
   <g id="patch_17">
    <path clip-path="url(#pc5bb5764c9)" d="M 285.876106 141.033795 
Q 282.722038 141.716897 279.329663 142.060008 
Q 275.937288 142.4 272.320623 142.4 
Q 264.148082 142.4 259.374926 140.366288 
Q 254.60177 138.332576 254.60177 134.854679 
Q 254.60177 131.336232 259.459035 129.318116 
Q 264.323308 127.3 272.78322 127.3 
Q 276.042423 127.3 279.028274 127.574489 
Q 282.021134 127.845858 284.670551 128.382359 
L 284.670551 131.392378 
Q 281.937026 130.703037 279.231536 130.363045 
Q 276.526047 130.019934 273.806539 130.019934 
Q 268.774049 130.019934 266.047532 131.273848 
Q 263.321016 132.524644 263.321016 134.854679 
Q 263.321016 137.16288 265.949406 138.423032 
Q 268.577796 139.680066 273.414033 139.680066 
Q 274.731733 139.680066 275.860188 139.608325 
Q 276.988644 139.533464 277.885801 139.377505 
L 277.885801 136.551518 
L 272.734156 136.551518 
L 272.734156 134.034332 
L 285.876106 134.034332 
z
" style="fill:#ffa600;"/>
   </g>
   <g id="patch_18">
    <path clip-path="url(#pc5bb5764c9)" d="M 285.876106 119.723487 
Q 283.260062 123.478992 280.431267 125.378579 
Q 277.602472 127.3 274.521529 127.3 
Q 265.333855 127.3 259.967812 113.064016 
Q 254.60177 98.828031 254.60177 74.482751 
Q 254.60177 50.050134 259.967812 35.835984 
Q 265.333855 21.6 274.521529 21.6 
Q 277.602472 21.6 280.431267 23.521421 
Q 283.260062 25.421008 285.876106 29.176513 
L 285.876106 50.246643 
Q 283.236423 45.268416 280.675536 42.953976 
Q 278.11465 40.639537 275.285855 40.639537 
Q 270.211359 40.639537 267.303768 49.657116 
Q 264.404056 58.652861 264.404056 74.482751 
Q 264.404056 90.247139 267.303768 99.264718 
Q 270.211359 108.260463 275.285855 108.260463 
Q 278.11465 108.260463 280.675536 105.946024 
Q 283.236423 103.60975 285.876106 98.631522 
z
" style="fill:#0000ff;"/>
   </g>
   <g id="patch_19">
    <path clip-path="url(#pc5bb5764c9)" d="M 318.79646 154.767589 
Q 315.642392 156.133795 312.250017 156.820017 
Q 308.857642 157.5 305.240977 157.5 
Q 297.068436 157.5 292.29528 153.432576 
Q 287.522124 149.365152 287.522124 142.409358 
Q 287.522124 135.372464 292.379389 131.336232 
Q 297.243662 127.3 305.703574 127.3 
Q 308.962777 127.3 311.948628 127.848977 
Q 314.941488 128.391717 317.590905 129.464718 
L 317.590905 135.484755 
Q 314.85738 134.106073 312.15189 133.42609 
Q 309.446401 132.739868 306.726893 132.739868 
Q 301.694403 132.739868 298.967886 135.247697 
Q 296.24137 137.749287 296.24137 142.409358 
Q 296.24137 147.025759 298.86976 149.546065 
Q 301.49815 152.060132 306.334387 152.060132 
Q 307.652087 152.060132 308.780542 151.916649 
Q 309.908998 151.766928 310.806155 151.455009 
L 310.806155 145.803037 
L 305.65451 145.803037 
L 305.65451 140.768663 
L 318.79646 140.768663 
z
" style="fill:#ffa600;"/>
   </g>
   <g id="patch_20">
    <path clip-path="url(#pc5bb5764c9)" d="M 309.185884 108.044749 
L 297.158277 108.044749 
L 295.259181 127.3 
L 287.522124 127.3 
L 298.571409 21.6 
L 307.747175 21.6 
L 318.79646 127.3 
L 311.065797 127.3 
z
M 299.076556 88.427047 
L 307.248423 88.427047 
L 303.168883 46.38264 
z
" style="fill:#008000;"/>
   </g>
   <g id="patch_21">
    <path clip-path="url(#pc5bb5764c9)" d="M 351.716814 156.133795 
Q 348.562746 156.816897 345.170371 157.160008 
Q 341.777996 157.5 338.161331 157.5 
Q 329.98879 157.5 325.215634 155.466288 
Q 320.442478 153.432576 320.442478 149.954679 
Q 320.442478 146.436232 325.299743 144.418116 
Q 330.164016 142.4 338.623928 142.4 
Q 341.883131 142.4 344.868982 142.674489 
Q 347.861842 142.945858 350.511259 143.482359 
L 350.511259 146.492378 
Q 347.777734 145.803037 345.072244 145.463045 
Q 342.366755 145.119934 339.647247 145.119934 
Q 334.614757 145.119934 331.88824 146.373848 
Q 329.161724 147.624644 329.161724 149.954679 
Q 329.161724 152.26288 331.790114 153.523032 
Q 334.418504 154.780066 339.254741 154.780066 
Q 340.572441 154.780066 341.700896 154.708325 
Q 342.829351 154.633464 343.726509 154.477505 
L 343.726509 151.651518 
L 338.574864 151.651518 
L 338.574864 149.134332 
L 351.716814 149.134332 
z
" style="fill:#ffa600;"/>
   </g>
   <g id="patch_22">
    <path clip-path="url(#pc5bb5764c9)" d="M 342.106238 136.8985 
L 330.078631 136.8985 
L 328.179535 142.4 
L 320.442478 142.4 
L 331.491763 112.2 
L 340.667529 112.2 
L 351.716814 142.4 
L 343.986151 142.4 
z
M 331.99691 131.293442 
L 340.168777 131.293442 
L 336.089237 119.280754 
z
" style="fill:#008000;"/>
   </g>
   <g id="patch_23">
    <path clip-path="url(#pc5bb5764c9)" d="M 351.716814 110.035282 
Q 349.10077 111.108283 346.271975 111.651023 
Q 343.44318 112.2 340.362237 112.2 
Q 331.174563 112.2 325.80852 108.132576 
Q 320.442478 104.065152 320.442478 97.109358 
Q 320.442478 90.12861 325.80852 86.067424 
Q 331.174563 82 340.362237 82 
Q 343.44318 82 346.271975 82.548977 
Q 349.10077 83.091717 351.716814 84.164718 
L 351.716814 90.184755 
Q 349.077131 88.762404 346.516244 88.101136 
Q 343.955358 87.439868 341.126563 87.439868 
Q 336.052067 87.439868 333.144476 90.016319 
Q 330.244764 92.586532 330.244764 97.109358 
Q 330.244764 101.613468 333.144476 104.189919 
Q 336.052067 106.760132 341.126563 106.760132 
Q 343.955358 106.760132 346.516244 106.098864 
Q 349.077131 105.431357 351.716814 104.009006 
z
" style="fill:#0000ff;"/>
   </g>
   <g id="patch_24">
    <path clip-path="url(#pc5bb5764c9)" d="M 320.442478 21.6 
L 351.716814 21.6 
L 351.716814 33.379683 
L 340.465326 33.379683 
L 340.465326 82 
L 331.715785 82 
L 331.715785 33.379683 
L 320.442478 33.379683 
z
" style="fill:#ff0000;"/>
   </g>
   <g id="patch_25">
    <path clip-path="url(#pc5bb5764c9)" d="M 384.637168 153.170564 
Q 382.021124 155.316567 379.192329 156.402045 
Q 376.363534 157.5 373.282591 157.5 
Q 364.094917 157.5 358.728874 149.365152 
Q 353.362832 141.230304 353.362832 127.318715 
Q 353.362832 113.35722 358.728874 105.234848 
Q 364.094917 97.1 373.282591 97.1 
Q 376.363534 97.1 379.192329 98.197955 
Q 382.021124 99.283433 384.637168 101.429436 
L 384.637168 113.46951 
Q 381.997485 110.624809 379.436598 109.302272 
Q 376.875712 107.979736 374.046917 107.979736 
Q 368.972421 107.979736 366.06483 113.132638 
Q 363.165118 118.273063 363.165118 127.318715 
Q 363.165118 136.326937 366.06483 141.479839 
Q 368.972421 146.620264 374.046917 146.620264 
Q 376.875712 146.620264 379.436598 145.297728 
Q 381.997485 143.962714 384.637168 141.118013 
z
" style="fill:#0000ff;"/>
   </g>
   <g id="patch_26">
    <path clip-path="url(#pc5bb5764c9)" d="M 384.637168 90.268973 
Q 381.4831 93.684487 378.090725 95.400041 
Q 374.698349 97.1 371.081685 97.1 
Q 362.909144 97.1 358.135988 86.93144 
Q 353.362832 76.76288 353.362832 59.373394 
Q 353.362832 41.781161 358.220097 31.69058 
Q 363.08437 21.6 371.544282 21.6 
Q 374.803485 21.6 377.789336 22.972444 
Q 380.782196 24.329291 383.431613 27.011795 
L 383.431613 42.061888 
Q 380.698088 38.615183 377.992598 36.915224 
Q 375.287109 35.199669 372.567601 35.199669 
Q 367.535111 35.199669 364.808594 41.469242 
Q 362.082078 47.723218 362.082078 59.373394 
Q 362.082078 70.914398 364.710468 77.215162 
Q 367.338858 83.500331 372.175095 83.500331 
Q 373.492795 83.500331 374.62125 83.141624 
Q 375.749705 82.767321 376.646863 81.987523 
L 376.646863 67.857591 
L 371.495218 67.857591 
L 371.495218 55.271659 
L 384.637168 55.271659 
z
" style="fill:#ffa600;"/>
   </g>
   <g id="patch_27">
    <path clip-path="url(#pc5bb5764c9)" d="M 417.557522 154.767589 
Q 414.403454 156.133795 411.011079 156.820017 
Q 407.618703 157.5 404.002039 157.5 
Q 395.829498 157.5 391.056342 153.432576 
Q 386.283186 149.365152 386.283186 142.409358 
Q 386.283186 135.372464 391.140451 131.336232 
Q 396.004724 127.3 404.464635 127.3 
Q 407.723839 127.3 410.70969 127.848977 
Q 413.70255 128.391717 416.351967 129.464718 
L 416.351967 135.484755 
Q 413.618442 134.106073 410.912952 133.42609 
Q 408.207463 132.739868 405.487955 132.739868 
Q 400.455465 132.739868 397.728948 135.247697 
Q 395.002432 137.749287 395.002432 142.409358 
Q 395.002432 147.025759 397.630822 149.546065 
Q 400.259212 152.060132 405.095449 152.060132 
Q 406.413149 152.060132 407.541604 151.916649 
Q 408.670059 151.766928 409.567217 151.455009 
L 409.567217 145.803037 
L 404.415572 145.803037 
L 404.415572 140.768663 
L 417.557522 140.768663 
z
" style="fill:#ffa600;"/>
   </g>
   <g id="patch_28">
    <path clip-path="url(#pc5bb5764c9)" d="M 407.946946 108.044749 
L 395.919339 108.044749 
L 394.020243 127.3 
L 386.283186 127.3 
L 397.332471 21.6 
L 406.508237 21.6 
L 417.557522 127.3 
L 409.826859 127.3 
z
M 397.837618 88.427047 
L 406.009485 88.427047 
L 401.929945 46.38264 
z
" style="fill:#008000;"/>
   </g>
   <g id="patch_29">
    <path clip-path="url(#pc5bb5764c9)" d="M 450.477876 154.767589 
Q 447.323808 156.133795 443.931433 156.820017 
Q 440.539057 157.5 436.922393 157.5 
Q 428.749852 157.5 423.976696 153.432576 
Q 419.20354 149.365152 419.20354 142.409358 
Q 419.20354 135.372464 424.060805 131.336232 
Q 428.925078 127.3 437.384989 127.3 
Q 440.644193 127.3 443.630044 127.848977 
Q 446.622904 128.391717 449.272321 129.464718 
L 449.272321 135.484755 
Q 446.538796 134.106073 443.833306 133.42609 
Q 441.127817 132.739868 438.408309 132.739868 
Q 433.375819 132.739868 430.649302 135.247697 
Q 427.922786 137.749287 427.922786 142.409358 
Q 427.922786 147.025759 430.551176 149.546065 
Q 433.179565 152.060132 438.015803 152.060132 
Q 439.333503 152.060132 440.461958 151.916649 
Q 441.590413 151.766928 442.487571 151.455009 
L 442.487571 145.803037 
L 437.335926 145.803037 
L 437.335926 140.768663 
L 450.477876 140.768663 
z
" style="fill:#ffa600;"/>
   </g>
   <g id="patch_30">
    <path clip-path="url(#pc5bb5764c9)" d="M 419.20354 21.6 
L 450.477876 21.6 
L 450.477876 42.214445 
L 439.226388 42.214445 
L 439.226388 127.3 
L 430.476847 127.3 
L 430.476847 42.214445 
L 419.20354 42.214445 
z
" style="fill:#ff0000;"/>
   </g>
   <g id="patch_31">
    <path clip-path="url(#pc5bb5764c9)" d="M 483.39823 145.204152 
Q 480.244162 151.352076 476.851787 154.440074 
Q 473.459411 157.5 469.842747 157.5 
Q 461.670206 157.5 456.89705 139.196592 
Q 452.123894 120.893183 452.123894 89.592109 
Q 452.123894 57.92609 456.981158 39.763045 
Q 461.845432 21.6 470.305343 21.6 
Q 473.564547 21.6 476.550398 24.070399 
Q 479.543258 26.512725 482.192675 31.341231 
L 482.192675 58.431398 
Q 479.45915 52.227329 476.75366 49.167403 
Q 474.048171 46.079405 471.328663 46.079405 
Q 466.296173 46.079405 463.569656 57.364635 
Q 460.84314 68.621793 460.84314 89.592109 
Q 460.84314 110.365916 463.471529 121.707292 
Q 466.099919 133.020595 470.936157 133.020595 
Q 472.253857 133.020595 473.382312 132.374923 
Q 474.510767 131.701177 475.407925 130.297542 
L 475.407925 104.863665 
L 470.25628 104.863665 
L 470.25628 82.208986 
L 483.39823 82.208986 
z
" style="fill:#ffa600;"/>
   </g>
   <g id="patch_32">
    <path clip-path="url(#pc5bb5764c9)" d="M 506.708008 151.9985 
L 494.680401 151.9985 
L 492.781305 157.5 
L 485.044248 157.5 
L 496.093533 127.3 
L 505.269299 127.3 
L 516.318584 157.5 
L 508.587921 157.5 
z
M 496.59868 146.393442 
L 504.770547 146.393442 
L 500.691007 134.380754 
z
" style="fill:#008000;"/>
   </g>
   <g id="patch_33">
    <path clip-path="url(#pc5bb5764c9)" d="M 516.318584 117.736563 
Q 513.164516 122.518281 509.772141 124.920058 
Q 506.379765 127.3 502.763101 127.3 
Q 494.59056 127.3 489.817404 113.064016 
Q 485.044248 98.828031 485.044248 74.482751 
Q 485.044248 49.853625 489.901512 35.726813 
Q 494.765786 21.6 503.225697 21.6 
Q 506.484901 21.6 509.470752 23.521421 
Q 512.463612 25.421008 515.113029 29.176513 
L 515.113029 50.246643 
Q 512.379504 45.421256 509.674014 43.041314 
Q 506.968525 40.639537 504.249017 40.639537 
Q 499.216527 40.639537 496.49001 49.416939 
Q 493.763493 58.172506 493.763493 74.482751 
Q 493.763493 90.640157 496.391883 99.461227 
Q 499.020273 108.260463 503.856511 108.260463 
Q 505.174211 108.260463 506.302666 107.758273 
Q 507.431121 107.234249 508.328279 106.142533 
L 508.328279 86.360628 
L 503.176634 86.360628 
L 503.176634 68.740322 
L 516.318584 68.740322 
z
" style="fill:#ffa600;"/>
   </g>
   <g id="patch_34">
    <path clip-path="url(#pc5bb5764c9)" d="M 517.964602 127.3 
L 549.238938 127.3 
L 549.238938 133.189841 
L 537.98745 133.189841 
L 537.98745 157.5 
L 529.237909 157.5 
L 529.237909 133.189841 
L 517.964602 133.189841 
z
" style="fill:#ff0000;"/>
   </g>
   <g id="patch_35">
    <path clip-path="url(#pc5bb5764c9)" d="M 549.238938 123.201384 
Q 546.08487 125.250692 542.692495 126.280025 
Q 539.300119 127.3 535.683455 127.3 
Q 527.510914 127.3 522.737758 121.198864 
Q 517.964602 115.097728 517.964602 104.664036 
Q 517.964602 94.108697 522.821866 88.054348 
Q 527.68614 82 536.146051 82 
Q 539.405255 82 542.391106 82.823466 
Q 545.383966 83.637575 548.033383 85.247077 
L 548.033383 94.277133 
Q 545.299858 92.20911 542.594368 91.189134 
Q 539.888879 90.159802 537.169371 90.159802 
Q 532.136881 90.159802 529.410364 93.921545 
Q 526.683847 97.673931 526.683847 104.664036 
Q 526.683847 111.588639 529.312237 115.369097 
Q 531.940627 119.140198 536.776865 119.140198 
Q 538.094565 119.140198 539.22302 118.924974 
Q 540.351475 118.700392 541.248633 118.232514 
L 541.248633 109.754555 
L 536.096988 109.754555 
L 536.096988 102.202995 
L 549.238938 102.202995 
z
" style="fill:#ffa600;"/>
   </g>
   <g id="patch_36">
    <path clip-path="url(#pc5bb5764c9)" d="M 539.628362 70.997 
L 527.600755 70.997 
L 525.701659 82 
L 517.964602 82 
L 529.013887 21.6 
L 538.189653 21.6 
L 549.238938 82 
L 541.508275 82 
z
M 529.519034 59.786884 
L 537.690901 59.786884 
L 533.611361 35.761509 
z
" style="fill:#008000;"/>
   </g>
   <g id="patch_37">
    <path clip-path="url(#pc5bb5764c9)" d="M 582.159292 156.417641 
Q 579.543248 156.954142 576.714453 157.225511 
Q 573.885658 157.5 570.804714 157.5 
Q 561.617041 157.5 556.250998 155.466288 
Q 550.884956 153.432576 550.884956 149.954679 
Q 550.884956 146.464305 556.250998 144.433712 
Q 561.617041 142.4 570.804714 142.4 
Q 573.885658 142.4 576.714453 142.674489 
Q 579.543248 142.945858 582.159292 143.482359 
L 582.159292 146.492378 
Q 579.519609 145.781202 576.958722 145.450568 
Q 574.397835 145.119934 571.569041 145.119934 
Q 566.494545 145.119934 563.586954 146.408159 
Q 560.687242 147.693266 560.687242 149.954679 
Q 560.687242 152.206734 563.586954 153.49496 
Q 566.494545 154.780066 571.569041 154.780066 
Q 574.397835 154.780066 576.958722 154.449432 
Q 579.519609 154.115679 582.159292 153.404503 
z
" style="fill:#0000ff;"/>
   </g>
   <g id="patch_38">
    <path clip-path="url(#pc5bb5764c9)" d="M 572.548716 136.8985 
L 560.521109 136.8985 
L 558.622013 142.4 
L 550.884956 142.4 
L 561.934241 112.2 
L 571.110007 112.2 
L 582.159292 142.4 
L 574.428629 142.4 
z
M 562.439387 131.293442 
L 570.611255 131.293442 
L 566.531715 119.280754 
z
" style="fill:#008000;"/>
   </g>
   <g id="patch_39">
    <path clip-path="url(#pc5bb5764c9)" d="M 582.159292 108.101384 
Q 579.005224 110.150692 575.612849 111.180025 
Q 572.220473 112.2 568.603809 112.2 
Q 560.431268 112.2 555.658112 106.098864 
Q 550.884956 99.997728 550.884956 89.564036 
Q 550.884956 79.008697 555.74222 72.954348 
Q 560.606494 66.9 569.066405 66.9 
Q 572.325609 66.9 575.31146 67.723466 
Q 578.30432 68.537575 580.953737 70.147077 
L 580.953737 79.177133 
Q 578.220212 77.10911 575.514722 76.089134 
Q 572.809233 75.059802 570.089725 75.059802 
Q 565.057235 75.059802 562.330718 78.821545 
Q 559.604201 82.573931 559.604201 89.564036 
Q 559.604201 96.488639 562.232591 100.269097 
Q 564.860981 104.040198 569.697219 104.040198 
Q 571.014919 104.040198 572.143374 103.824974 
Q 573.271829 103.600392 574.168986 103.132514 
L 574.168986 94.654555 
L 569.017342 94.654555 
L 569.017342 87.102995 
L 582.159292 87.102995 
z
" style="fill:#ffa600;"/>
   </g>
   <g id="patch_40">
    <path clip-path="url(#pc5bb5764c9)" d="M 550.884956 21.6 
L 582.159292 21.6 
L 582.159292 30.434762 
L 570.907804 30.434762 
L 570.907804 66.9 
L 562.158263 66.9 
L 562.158263 30.434762 
L 550.884956 30.434762 
z
" style="fill:#ff0000;"/>
   </g>
   <g id="patch_41">
    <path clip-path="url(#pc5bb5764c9)" d="M 605.46907 151.9985 
L 593.441463 151.9985 
L 591.542367 157.5 
L 583.80531 157.5 
L 594.854595 127.3 
L 604.030361 127.3 
L 615.079646 157.5 
L 607.348983 157.5 
z
M 595.359741 146.393442 
L 603.531609 146.393442 
L 599.452069 134.380754 
z
" style="fill:#008000;"/>
   </g>
   <g id="patch_42">
    <path clip-path="url(#pc5bb5764c9)" d="M 615.079646 125.135282 
Q 612.463602 126.208283 609.634807 126.751023 
Q 606.806012 127.3 603.725068 127.3 
Q 594.537395 127.3 589.171352 123.232576 
Q 583.80531 119.165152 583.80531 112.209358 
Q 583.80531 105.22861 589.171352 101.167424 
Q 594.537395 97.1 603.725068 97.1 
Q 606.806012 97.1 609.634807 97.648977 
Q 612.463602 98.191717 615.079646 99.264718 
L 615.079646 105.284755 
Q 612.439963 103.862404 609.879076 103.201136 
Q 607.318189 102.539868 604.489395 102.539868 
Q 599.414899 102.539868 596.507308 105.116319 
Q 593.607596 107.686532 593.607596 112.209358 
Q 593.607596 116.713468 596.507308 119.289919 
Q 599.414899 121.860132 604.489395 121.860132 
Q 607.318189 121.860132 609.879076 121.198864 
Q 612.439963 120.531357 615.079646 119.109006 
z
" style="fill:#0000ff;"/>
   </g>
   <g id="patch_43">
    <path clip-path="url(#pc5bb5764c9)" d="M 615.079646 94.367589 
Q 611.925578 95.733795 608.533203 96.420017 
Q 605.140827 97.1 601.524163 97.1 
Q 593.351622 97.1 588.578466 93.032576 
Q 583.80531 88.965152 583.80531 82.009358 
Q 583.80531 74.972464 588.662574 70.936232 
Q 593.526848 66.9 601.986759 66.9 
Q 605.245963 66.9 608.231814 67.448977 
Q 611.224674 67.991717 613.874091 69.064718 
L 613.874091 75.084755 
Q 611.140566 73.706073 608.435076 73.02609 
Q 605.729587 72.339868 603.010079 72.339868 
Q 597.977589 72.339868 595.251072 74.847697 
Q 592.524555 77.349287 592.524555 82.009358 
Q 592.524555 86.625759 595.152945 89.146065 
Q 597.781335 91.660132 602.617573 91.660132 
Q 603.935272 91.660132 605.063728 91.516649 
Q 606.192183 91.366928 607.08934 91.055009 
L 607.08934 85.403037 
L 601.937696 85.403037 
L 601.937696 80.368663 
L 615.079646 80.368663 
z
" style="fill:#ffa600;"/>
   </g>
   <g id="patch_44">
    <path clip-path="url(#pc5bb5764c9)" d="M 583.80531 21.6 
L 615.079646 21.6 
L 615.079646 30.434762 
L 603.828158 30.434762 
L 603.828158 66.9 
L 595.078617 66.9 
L 595.078617 30.434762 
L 583.80531 30.434762 
z
" style="fill:#ff0000;"/>
   </g>
   <g id="patch_45">
    <path clip-path="url(#pc5bb5764c9)" d="M 616.725664 142.4 
L 648 142.4 
L 648 145.344921 
L 636.748512 145.344921 
L 636.748512 157.5 
L 627.998971 157.5 
L 627.998971 145.344921 
L 616.725664 145.344921 
z
" style="fill:#ff0000;"/>
   </g>
   <g id="patch_46">
    <path clip-path="url(#pc5bb5764c9)" d="M 638.389424 136.8985 
L 626.361817 136.8985 
L 624.462721 142.4 
L 616.725664 142.4 
L 627.774949 112.2 
L 636.950715 112.2 
L 648 142.4 
L 640.269337 142.4 
z
M 628.280095 131.293442 
L 636.451963 131.293442 
L 632.372423 119.280754 
z
" style="fill:#008000;"/>
   </g>
   <g id="patch_47">
    <path clip-path="url(#pc5bb5764c9)" d="M 648 110.035282 
Q 645.383956 111.108283 642.555161 111.651023 
Q 639.726366 112.2 636.645422 112.2 
Q 627.457749 112.2 622.091706 108.132576 
Q 616.725664 104.065152 616.725664 97.109358 
Q 616.725664 90.12861 622.091706 86.067424 
Q 627.457749 82 636.645422 82 
Q 639.726366 82 642.555161 82.548977 
Q 645.383956 83.091717 648 84.164718 
L 648 90.184755 
Q 645.360317 88.762404 642.79943 88.101136 
Q 640.238543 87.439868 637.409749 87.439868 
Q 632.335253 87.439868 629.427662 90.016319 
Q 626.52795 92.586532 626.52795 97.109358 
Q 626.52795 101.613468 629.427662 104.189919 
Q 632.335253 106.760132 637.409749 106.760132 
Q 640.238543 106.760132 642.79943 106.098864 
Q 645.360317 105.431357 648 104.009006 
z
" style="fill:#0000ff;"/>
   </g>
   <g id="patch_48">
    <path clip-path="url(#pc5bb5764c9)" d="M 648 76.535179 
Q 644.845932 79.267589 641.453557 80.640033 
Q 638.061181 82 634.444517 82 
Q 626.271976 82 621.49882 73.865152 
Q 616.725664 65.730304 616.725664 51.818715 
Q 616.725664 37.744929 621.582928 29.672464 
Q 626.447202 21.6 634.907113 21.6 
Q 638.166317 21.6 641.152168 22.697955 
Q 644.145028 23.783433 646.794445 25.929436 
L 646.794445 37.96951 
Q 644.06092 35.212146 641.35543 33.852179 
Q 638.649941 32.479736 635.930433 32.479736 
Q 630.897943 32.479736 628.171426 37.495394 
Q 625.444909 42.498575 625.444909 51.818715 
Q 625.444909 61.051518 628.073299 66.09213 
Q 630.701689 71.120264 635.537927 71.120264 
Q 636.855626 71.120264 637.984082 70.833299 
Q 639.112537 70.533857 640.009694 69.910019 
L 640.009694 58.606073 
L 634.85805 58.606073 
L 634.85805 48.537327 
L 648 48.537327 
z
" style="fill:#ffa600;"/>
   </g>
  </g>
 </g>
 <defs>
  <clipPath id="pc5bb5764c9">
   <rect height="135.9" width="558" x="90" y="21.6"/>
  </clipPath>
 </defs>
</svg>
