<?xml version="1.0" encoding="utf-8" standalone="no"?>
<!DOCTYPE svg PUBLIC "-//W3C//DTD SVG 1.1//EN"
  "http://www.w3.org/Graphics/SVG/1.1/DTD/svg11.dtd">
<!-- Created with matplotlib (https://matplotlib.org/) -->
<svg height="180pt" version="1.1" viewBox="0 0 720 180" width="720pt" xmlns="http://www.w3.org/2000/svg" xmlns:xlink="http://www.w3.org/1999/xlink">
 <metadata>
  <rdf:RDF xmlns:cc="http://creativecommons.org/ns#" xmlns:dc="http://purl.org/dc/elements/1.1/" xmlns:rdf="http://www.w3.org/1999/02/22-rdf-syntax-ns#">
   <cc:Work>
    <dc:type rdf:resource="http://purl.org/dc/dcmitype/StillImage"/>
    <dc:date>2021-08-04T23:33:42.446025</dc:date>
    <dc:format>image/svg+xml</dc:format>
    <dc:creator>
     <cc:Agent>
      <dc:title>Matplotlib v3.3.2, https://matplotlib.org/</dc:title>
     </cc:Agent>
    </dc:creator>
   </cc:Work>
  </rdf:RDF>
 </metadata>
 <defs>
  <style type="text/css">*{stroke-linecap:butt;stroke-linejoin:round;}</style>
 </defs>
 <g id="figure_1">
  <g id="patch_1">
   <path d="M 0 180 
L 720 180 
L 720 0 
L 0 0 
z
" style="fill:none;"/>
  </g>
  <g id="axes_1">
   <g id="line2d_1">
    <path clip-path="url(#p419dae16f3)" d="M 90 157.5 
L 648 157.5 
" style="fill:none;stroke:#000000;stroke-linecap:square;stroke-width:0.5;"/>
   </g>
   <g id="patch_2">
    <path clip-path="url(#p419dae16f3)" d="M 121.274336 154.767589 
Q 118.120268 156.133795 114.727893 156.820017 
Q 111.335518 157.5 107.718853 157.5 
Q 99.546312 157.5 94.773156 153.432576 
Q 90 149.365152 90 142.409358 
Q 90 135.372464 94.857265 131.336232 
Q 99.721538 127.3 108.18145 127.3 
Q 111.440653 127.3 114.426504 127.848977 
Q 117.419364 128.391717 120.068781 129.464718 
L 120.068781 135.484755 
Q 117.335256 134.106073 114.629766 133.42609 
Q 111.924277 132.739868 109.204769 132.739868 
Q 104.172279 132.739868 101.445762 135.247697 
Q 98.719246 137.749287 98.719246 142.409358 
Q 98.719246 147.025759 101.347636 149.546065 
Q 103.976026 152.060132 108.812263 152.060132 
Q 110.129963 152.060132 111.258418 151.916649 
Q 112.386874 151.766928 113.284031 151.455009 
L 113.284031 145.803037 
L 108.132386 145.803037 
L 108.132386 140.768663 
L 121.274336 140.768663 
z
" style="fill:#ffa600;"/>
   </g>
   <g id="patch_3">
    <path clip-path="url(#p419dae16f3)" d="M 90 97.1 
L 121.274336 97.1 
L 121.274336 102.989841 
L 110.022848 102.989841 
L 110.022848 127.3 
L 101.273307 127.3 
L 101.273307 102.989841 
L 90 102.989841 
z
" style="fill:#ff0000;"/>
   </g>
   <g id="patch_4">
    <path clip-path="url(#p419dae16f3)" d="M 111.66376 83.346249 
L 99.636153 83.346249 
L 97.737057 97.1 
L 90 97.1 
L 101.049285 21.6 
L 110.225051 21.6 
L 121.274336 97.1 
L 113.543673 97.1 
z
M 101.554432 69.333605 
L 109.726299 69.333605 
L 105.64676 39.301886 
z
" style="fill:#008000;"/>
   </g>
   <g id="patch_5">
    <path clip-path="url(#p419dae16f3)" d="M 154.19469 156.133795 
Q 151.040622 156.816897 147.648247 157.160008 
Q 144.255872 157.5 140.639207 157.5 
Q 132.466666 157.5 127.69351 155.466288 
Q 122.920354 153.432576 122.920354 149.954679 
Q 122.920354 146.436232 127.777619 144.418116 
Q 132.641892 142.4 141.101804 142.4 
Q 144.361007 142.4 147.346858 142.674489 
Q 150.339718 142.945858 152.989135 143.482359 
L 152.989135 146.492378 
Q 150.25561 145.803037 147.55012 145.463045 
Q 144.844631 145.119934 142.125123 145.119934 
Q 137.092633 145.119934 134.366116 146.373848 
Q 131.6396 147.624644 131.6396 149.954679 
Q 131.6396 152.26288 134.26799 153.523032 
Q 136.89638 154.780066 141.732617 154.780066 
Q 143.050317 154.780066 144.178772 154.708325 
Q 145.307228 154.633464 146.204385 154.477505 
L 146.204385 151.651518 
L 141.05274 151.651518 
L 141.05274 149.134332 
L 154.19469 149.134332 
z
" style="fill:#ffa600;"/>
   </g>
   <g id="patch_6">
    <path clip-path="url(#p419dae16f3)" d="M 122.920354 127.3 
L 154.19469 127.3 
L 154.19469 130.244921 
L 142.943202 130.244921 
L 142.943202 142.4 
L 134.193661 142.4 
L 134.193661 130.244921 
L 122.920354 130.244921 
z
" style="fill:#ff0000;"/>
   </g>
   <g id="patch_7">
    <path clip-path="url(#p419dae16f3)" d="M 144.584114 119.04775 
L 132.556507 119.04775 
L 130.657411 127.3 
L 122.920354 127.3 
L 133.969639 82 
L 143.145405 82 
L 154.19469 127.3 
L 146.464027 127.3 
z
M 134.474786 110.640163 
L 142.646653 110.640163 
L 138.567114 92.621132 
z
" style="fill:#008000;"/>
   </g>
   <g id="patch_8">
    <path clip-path="url(#p419dae16f3)" d="M 154.19469 77.670564 
Q 151.578646 79.816567 148.749851 80.902045 
Q 145.921056 82 142.840113 82 
Q 133.652439 82 128.286397 73.865152 
Q 122.920354 65.730304 122.920354 51.818715 
Q 122.920354 37.85722 128.286397 29.734848 
Q 133.652439 21.6 142.840113 21.6 
Q 145.921056 21.6 148.749851 22.697955 
Q 151.578646 23.783433 154.19469 25.929436 
L 154.19469 37.96951 
Q 151.555007 35.124809 148.99412 33.802272 
Q 146.433234 32.479736 143.604439 32.479736 
Q 138.529943 32.479736 135.622352 37.632638 
Q 132.72264 42.773063 132.72264 51.818715 
Q 132.72264 60.826937 135.622352 65.979839 
Q 138.529943 71.120264 143.604439 71.120264 
Q 146.433234 71.120264 148.99412 69.797728 
Q 151.555007 68.462714 154.19469 65.618013 
z
" style="fill:#0000ff;"/>
   </g>
   <g id="patch_9">
    <path clip-path="url(#p419dae16f3)" d="M 187.115044 153.401384 
Q 183.960976 155.450692 180.568601 156.480025 
Q 177.176226 157.5 173.559561 157.5 
Q 165.38702 157.5 160.613864 151.398864 
Q 155.840708 145.297728 155.840708 134.864036 
Q 155.840708 124.308697 160.697973 118.254348 
Q 165.562246 112.2 174.022158 112.2 
Q 177.281361 112.2 180.267212 113.023466 
Q 183.260072 113.837575 185.909489 115.447077 
L 185.909489 124.477133 
Q 183.175964 122.40911 180.470474 121.389134 
Q 177.764985 120.359802 175.045477 120.359802 
Q 170.012987 120.359802 167.28647 124.121545 
Q 164.559954 127.873931 164.559954 134.864036 
Q 164.559954 141.788639 167.188344 145.569097 
Q 169.816734 149.340198 174.652971 149.340198 
Q 175.970671 149.340198 177.099126 149.124974 
Q 178.227582 148.900392 179.124739 148.432514 
L 179.124739 139.954555 
L 173.973094 139.954555 
L 173.973094 132.402995 
L 187.115044 132.402995 
z
" style="fill:#ffa600;"/>
   </g>
   <g id="patch_10">
    <path clip-path="url(#p419dae16f3)" d="M 177.504468 95.695499 
L 165.476861 95.695499 
L 163.577765 112.2 
L 155.840708 112.2 
L 166.889993 21.6 
L 176.065759 21.6 
L 187.115044 112.2 
L 179.384381 112.2 
z
M 167.39514 78.880326 
L 175.567007 78.880326 
L 171.487467 42.842263 
z
" style="fill:#008000;"/>
   </g>
   <g id="patch_11">
    <path clip-path="url(#p419dae16f3)" d="M 220.035398 152.035179 
Q 216.88133 154.767589 213.488955 156.140033 
Q 210.09658 157.5 206.479915 157.5 
Q 198.307374 157.5 193.534218 149.365152 
Q 188.761062 141.230304 188.761062 127.318715 
Q 188.761062 113.244929 193.618327 105.172464 
Q 198.4826 97.1 206.942512 97.1 
Q 210.201715 97.1 213.187566 98.197955 
Q 216.180426 99.283433 218.829843 101.429436 
L 218.829843 113.46951 
Q 216.096318 110.712146 213.390828 109.352179 
Q 210.685339 107.979736 207.965831 107.979736 
Q 202.933341 107.979736 200.206824 112.995394 
Q 197.480308 117.998575 197.480308 127.318715 
Q 197.480308 136.551518 200.108698 141.59213 
Q 202.737088 146.620264 207.573325 146.620264 
Q 208.891025 146.620264 210.01948 146.333299 
Q 211.147936 146.033857 212.045093 145.410019 
L 212.045093 134.106073 
L 206.893448 134.106073 
L 206.893448 124.037327 
L 220.035398 124.037327 
z
" style="fill:#ffa600;"/>
   </g>
   <g id="patch_12">
    <path clip-path="url(#p419dae16f3)" d="M 210.424822 83.346249 
L 198.397215 83.346249 
L 196.498119 97.1 
L 188.761062 97.1 
L 199.810347 21.6 
L 208.986113 21.6 
L 220.035398 97.1 
L 212.304735 97.1 
z
M 200.315494 69.333605 
L 208.487361 69.333605 
L 204.407821 39.301886 
z
" style="fill:#008000;"/>
   </g>
   <g id="patch_13">
    <path clip-path="url(#p419dae16f3)" d="M 252.955752 156.133795 
Q 249.801684 156.816897 246.409309 157.160008 
Q 243.016934 157.5 239.400269 157.5 
Q 231.227728 157.5 226.454572 155.466288 
Q 221.681416 153.432576 221.681416 149.954679 
Q 221.681416 146.436232 226.538681 144.418116 
Q 231.402954 142.4 239.862866 142.4 
Q 243.122069 142.4 246.10792 142.674489 
Q 249.10078 142.945858 251.750197 143.482359 
L 251.750197 146.492378 
Q 249.016672 145.803037 246.311182 145.463045 
Q 243.605693 145.119934 240.886185 145.119934 
Q 235.853695 145.119934 233.127178 146.373848 
Q 230.400662 147.624644 230.400662 149.954679 
Q 230.400662 152.26288 233.029052 153.523032 
Q 235.657442 154.780066 240.493679 154.780066 
Q 241.811379 154.780066 242.939834 154.708325 
Q 244.06829 154.633464 244.965447 154.477505 
L 244.965447 151.651518 
L 239.813802 151.651518 
L 239.813802 149.134332 
L 252.955752 149.134332 
z
" style="fill:#ffa600;"/>
   </g>
   <g id="patch_14">
    <path clip-path="url(#p419dae16f3)" d="M 221.681416 112.2 
L 252.955752 112.2 
L 252.955752 118.089841 
L 241.704264 118.089841 
L 241.704264 142.4 
L 232.954723 142.4 
L 232.954723 118.089841 
L 221.681416 118.089841 
z
" style="fill:#ff0000;"/>
   </g>
   <g id="patch_15">
    <path clip-path="url(#p419dae16f3)" d="M 243.345176 95.695499 
L 231.317569 95.695499 
L 229.418473 112.2 
L 221.681416 112.2 
L 232.730701 21.6 
L 241.906467 21.6 
L 252.955752 112.2 
L 245.225089 112.2 
z
M 233.235848 78.880326 
L 241.407715 78.880326 
L 237.328175 42.842263 
z
" style="fill:#008000;"/>
   </g>
   <g id="patch_16">
    <path clip-path="url(#p419dae16f3)" d="M 285.876106 153.401384 
Q 282.722038 155.450692 279.329663 156.480025 
Q 275.937288 157.5 272.320623 157.5 
Q 264.148082 157.5 259.374926 151.398864 
Q 254.60177 145.297728 254.60177 134.864036 
Q 254.60177 124.308697 259.459035 118.254348 
Q 264.323308 112.2 272.78322 112.2 
Q 276.042423 112.2 279.028274 113.023466 
Q 282.021134 113.837575 284.670551 115.447077 
L 284.670551 124.477133 
Q 281.937026 122.40911 279.231536 121.389134 
Q 276.526047 120.359802 273.806539 120.359802 
Q 268.774049 120.359802 266.047532 124.121545 
Q 263.321016 127.873931 263.321016 134.864036 
Q 263.321016 141.788639 265.949406 145.569097 
Q 268.577796 149.340198 273.414033 149.340198 
Q 274.731733 149.340198 275.860188 149.124974 
Q 276.988644 148.900392 277.885801 148.432514 
L 277.885801 139.954555 
L 272.734156 139.954555 
L 272.734156 132.402995 
L 285.876106 132.402995 
z
" style="fill:#ffa600;"/>
   </g>
   <g id="patch_17">
    <path clip-path="url(#p419dae16f3)" d="M 285.876106 105.705846 
Q 283.260062 108.92485 280.431267 110.553068 
Q 277.602472 112.2 274.521529 112.2 
Q 265.333855 112.2 259.967812 99.997728 
Q 254.60177 87.795455 254.60177 66.928073 
Q 254.60177 45.985829 259.967812 33.802272 
Q 265.333855 21.6 274.521529 21.6 
Q 277.602472 21.6 280.431267 23.246932 
Q 283.260062 24.87515 285.876106 28.094154 
L 285.876106 46.154266 
Q 283.236423 41.887213 280.675536 39.903408 
Q 278.11465 37.919603 275.285855 37.919603 
Q 270.211359 37.919603 267.303768 45.648957 
Q 264.404056 53.359595 264.404056 66.928073 
Q 264.404056 80.440405 267.303768 88.169758 
Q 270.211359 95.880397 275.285855 95.880397 
Q 278.11465 95.880397 280.675536 93.896592 
Q 283.236423 91.894071 285.876106 87.627019 
z
" style="fill:#0000ff;"/>
   </g>
   <g id="patch_18">
    <path clip-path="url(#p419dae16f3)" d="M 309.185884 146.497 
L 297.158277 146.497 
L 295.259181 157.5 
L 287.522124 157.5 
L 298.571409 97.1 
L 307.747175 97.1 
L 318.79646 157.5 
L 311.065797 157.5 
z
M 299.076556 135.286884 
L 307.248423 135.286884 
L 303.168883 111.261509 
z
" style="fill:#008000;"/>
   </g>
   <g id="patch_19">
    <path clip-path="url(#p419dae16f3)" d="M 318.79646 90.268973 
Q 315.642392 93.684487 312.250017 95.400041 
Q 308.857642 97.1 305.240977 97.1 
Q 297.068436 97.1 292.29528 86.93144 
Q 287.522124 76.76288 287.522124 59.373394 
Q 287.522124 41.781161 292.379389 31.69058 
Q 297.243662 21.6 305.703574 21.6 
Q 308.962777 21.6 311.948628 22.972444 
Q 314.941488 24.329291 317.590905 27.011795 
L 317.590905 42.061888 
Q 314.85738 38.615183 312.15189 36.915224 
Q 309.446401 35.199669 306.726893 35.199669 
Q 301.694403 35.199669 298.967886 41.469242 
Q 296.24137 47.723218 296.24137 59.373394 
Q 296.24137 70.914398 298.86976 77.215162 
Q 301.49815 83.500331 306.334387 83.500331 
Q 307.652087 83.500331 308.780542 83.141624 
Q 309.908998 82.767321 310.806155 81.987523 
L 310.806155 67.857591 
L 305.65451 67.857591 
L 305.65451 55.271659 
L 318.79646 55.271659 
z
" style="fill:#ffa600;"/>
   </g>
   <g id="patch_20">
    <path clip-path="url(#p419dae16f3)" d="M 320.442478 127.3 
L 351.716814 127.3 
L 351.716814 133.189841 
L 340.465326 133.189841 
L 340.465326 157.5 
L 331.715785 157.5 
L 331.715785 133.189841 
L 320.442478 133.189841 
z
" style="fill:#ff0000;"/>
   </g>
   <g id="patch_21">
    <path clip-path="url(#p419dae16f3)" d="M 342.106238 108.044749 
L 330.078631 108.044749 
L 328.179535 127.3 
L 320.442478 127.3 
L 331.491763 21.6 
L 340.667529 21.6 
L 351.716814 127.3 
L 343.986151 127.3 
z
M 331.99691 88.427047 
L 340.168777 88.427047 
L 336.089237 46.38264 
z
" style="fill:#008000;"/>
   </g>
   <g id="patch_22">
    <path clip-path="url(#p419dae16f3)" d="M 384.637168 152.035179 
Q 381.4831 154.767589 378.090725 156.140033 
Q 374.698349 157.5 371.081685 157.5 
Q 362.909144 157.5 358.135988 149.365152 
Q 353.362832 141.230304 353.362832 127.318715 
Q 353.362832 113.244929 358.220097 105.172464 
Q 363.08437 97.1 371.544282 97.1 
Q 374.803485 97.1 377.789336 98.197955 
Q 380.782196 99.283433 383.431613 101.429436 
L 383.431613 113.46951 
Q 380.698088 110.712146 377.992598 109.352179 
Q 375.287109 107.979736 372.567601 107.979736 
Q 367.535111 107.979736 364.808594 112.995394 
Q 362.082078 117.998575 362.082078 127.318715 
Q 362.082078 136.551518 364.710468 141.59213 
Q 367.338858 146.620264 372.175095 146.620264 
Q 373.492795 146.620264 374.62125 146.333299 
Q 375.749705 146.033857 376.646863 145.410019 
L 376.646863 134.106073 
L 371.495218 134.106073 
L 371.495218 124.037327 
L 384.637168 124.037327 
z
" style="fill:#ffa600;"/>
   </g>
   <g id="patch_23">
    <path clip-path="url(#p419dae16f3)" d="M 384.637168 91.688205 
Q 382.021124 94.370709 379.192329 95.727556 
Q 376.363534 97.1 373.282591 97.1 
Q 364.094917 97.1 358.728874 86.93144 
Q 353.362832 76.76288 353.362832 59.373394 
Q 353.362832 41.921524 358.728874 31.76856 
Q 364.094917 21.6 373.282591 21.6 
Q 376.363534 21.6 379.192329 22.972444 
Q 382.021124 24.329291 384.637168 27.011795 
L 384.637168 42.061888 
Q 381.997485 38.506011 379.436598 36.85284 
Q 376.875712 35.199669 374.046917 35.199669 
Q 368.972421 35.199669 366.06483 41.640797 
Q 363.165118 48.066329 363.165118 59.373394 
Q 363.165118 70.633671 366.06483 77.074799 
Q 368.972421 83.500331 374.046917 83.500331 
Q 376.875712 83.500331 379.436598 81.84716 
Q 381.997485 80.178393 384.637168 76.622516 
z
" style="fill:#0000ff;"/>
   </g>
   <g id="patch_24">
    <path clip-path="url(#p419dae16f3)" d="M 407.946946 151.9985 
L 395.919339 151.9985 
L 394.020243 157.5 
L 386.283186 157.5 
L 397.332471 127.3 
L 406.508237 127.3 
L 417.557522 157.5 
L 409.826859 157.5 
z
M 397.837618 146.393442 
L 406.009485 146.393442 
L 401.929945 134.380754 
z
" style="fill:#008000;"/>
   </g>
   <g id="patch_25">
    <path clip-path="url(#p419dae16f3)" d="M 417.557522 124.567589 
Q 414.403454 125.933795 411.011079 126.620017 
Q 407.618703 127.3 404.002039 127.3 
Q 395.829498 127.3 391.056342 123.232576 
Q 386.283186 119.165152 386.283186 112.209358 
Q 386.283186 105.172464 391.140451 101.136232 
Q 396.004724 97.1 404.464635 97.1 
Q 407.723839 97.1 410.70969 97.648977 
Q 413.70255 98.191717 416.351967 99.264718 
L 416.351967 105.284755 
Q 413.618442 103.906073 410.912952 103.22609 
Q 408.207463 102.539868 405.487955 102.539868 
Q 400.455465 102.539868 397.728948 105.047697 
Q 395.002432 107.549287 395.002432 112.209358 
Q 395.002432 116.825759 397.630822 119.346065 
Q 400.259212 121.860132 405.095449 121.860132 
Q 406.413149 121.860132 407.541604 121.716649 
Q 408.670059 121.566928 409.567217 121.255009 
L 409.567217 115.603037 
L 404.415572 115.603037 
L 404.415572 110.568663 
L 417.557522 110.568663 
z
" style="fill:#ffa600;"/>
   </g>
   <g id="patch_26">
    <path clip-path="url(#p419dae16f3)" d="M 386.283186 21.6 
L 417.557522 21.6 
L 417.557522 36.324604 
L 406.306034 36.324604 
L 406.306034 97.1 
L 397.556493 97.1 
L 397.556493 36.324604 
L 386.283186 36.324604 
z
" style="fill:#ff0000;"/>
   </g>
   <g id="patch_27">
    <path clip-path="url(#p419dae16f3)" d="M 419.20354 142.4 
L 450.477876 142.4 
L 450.477876 145.344921 
L 439.226388 145.344921 
L 439.226388 157.5 
L 430.476847 157.5 
L 430.476847 145.344921 
L 419.20354 145.344921 
z
" style="fill:#ff0000;"/>
   </g>
   <g id="patch_28">
    <path clip-path="url(#p419dae16f3)" d="M 450.477876 138.301384 
Q 447.323808 140.350692 443.931433 141.380025 
Q 440.539057 142.4 436.922393 142.4 
Q 428.749852 142.4 423.976696 136.298864 
Q 419.20354 130.197728 419.20354 119.764036 
Q 419.20354 109.208697 424.060805 103.154348 
Q 428.925078 97.1 437.384989 97.1 
Q 440.644193 97.1 443.630044 97.923466 
Q 446.622904 98.737575 449.272321 100.347077 
L 449.272321 109.377133 
Q 446.538796 107.30911 443.833306 106.289134 
Q 441.127817 105.259802 438.408309 105.259802 
Q 433.375819 105.259802 430.649302 109.021545 
Q 427.922786 112.773931 427.922786 119.764036 
Q 427.922786 126.688639 430.551176 130.469097 
Q 433.179565 134.240198 438.015803 134.240198 
Q 439.333503 134.240198 440.461958 134.024974 
Q 441.590413 133.800392 442.487571 133.332514 
L 442.487571 124.854555 
L 437.335926 124.854555 
L 437.335926 117.302995 
L 450.477876 117.302995 
z
" style="fill:#ffa600;"/>
   </g>
   <g id="patch_29">
    <path clip-path="url(#p419dae16f3)" d="M 450.477876 91.688205 
Q 447.861832 94.370709 445.033037 95.727556 
Q 442.204242 97.1 439.123298 97.1 
Q 429.935625 97.1 424.569582 86.93144 
Q 419.20354 76.76288 419.20354 59.373394 
Q 419.20354 41.921524 424.569582 31.76856 
Q 429.935625 21.6 439.123298 21.6 
Q 442.204242 21.6 445.033037 22.972444 
Q 447.861832 24.329291 450.477876 27.011795 
L 450.477876 42.061888 
Q 447.838193 38.506011 445.277306 36.85284 
Q 442.71642 35.199669 439.887625 35.199669 
Q 434.813129 35.199669 431.905538 41.640797 
Q 429.005826 48.066329 429.005826 59.373394 
Q 429.005826 70.633671 431.905538 77.074799 
Q 434.813129 83.500331 439.887625 83.500331 
Q 442.71642 83.500331 445.277306 81.84716 
Q 447.838193 80.178393 450.477876 76.622516 
z
" style="fill:#0000ff;"/>
   </g>
   <g id="patch_30">
    <path clip-path="url(#p419dae16f3)" d="M 473.787654 154.74925 
L 461.760047 154.74925 
L 459.860951 157.5 
L 452.123894 157.5 
L 463.173179 142.4 
L 472.348945 142.4 
L 483.39823 157.5 
L 475.667567 157.5 
z
M 463.678326 151.946721 
L 471.850193 151.946721 
L 467.770653 145.940377 
z
" style="fill:#008000;"/>
   </g>
   <g id="patch_31">
    <path clip-path="url(#p419dae16f3)" d="M 452.123894 127.3 
L 483.39823 127.3 
L 483.39823 130.244921 
L 472.146742 130.244921 
L 472.146742 142.4 
L 463.397201 142.4 
L 463.397201 130.244921 
L 452.123894 130.244921 
z
" style="fill:#ff0000;"/>
   </g>
   <g id="patch_32">
    <path clip-path="url(#p419dae16f3)" d="M 483.39823 117.736563 
Q 480.244162 122.518281 476.851787 124.920058 
Q 473.459411 127.3 469.842747 127.3 
Q 461.670206 127.3 456.89705 113.064016 
Q 452.123894 98.828031 452.123894 74.482751 
Q 452.123894 49.853625 456.981158 35.726813 
Q 461.845432 21.6 470.305343 21.6 
Q 473.564547 21.6 476.550398 23.521421 
Q 479.543258 25.421008 482.192675 29.176513 
L 482.192675 50.246643 
Q 479.45915 45.421256 476.75366 43.041314 
Q 474.048171 40.639537 471.328663 40.639537 
Q 466.296173 40.639537 463.569656 49.416939 
Q 460.84314 58.172506 460.84314 74.482751 
Q 460.84314 90.640157 463.471529 99.461227 
Q 466.099919 108.260463 470.936157 108.260463 
Q 472.253857 108.260463 473.382312 107.758273 
Q 474.510767 107.234249 475.407925 106.142533 
L 475.407925 86.360628 
L 470.25628 86.360628 
L 470.25628 68.740322 
L 483.39823 68.740322 
z
" style="fill:#ffa600;"/>
   </g>
   <g id="patch_33">
    <path clip-path="url(#p419dae16f3)" d="M 485.044248 21.6 
L 516.318584 21.6 
L 516.318584 48.104286 
L 505.067096 48.104286 
L 505.067096 157.5 
L 496.317555 157.5 
L 496.317555 48.104286 
L 485.044248 48.104286 
z
" style="fill:#ff0000;"/>
   </g>
   <g id="patch_34">
    <path clip-path="url(#p419dae16f3)" d="M 539.628362 154.74925 
L 527.600755 154.74925 
L 525.701659 157.5 
L 517.964602 157.5 
L 529.013887 142.4 
L 538.189653 142.4 
L 549.238938 157.5 
L 541.508275 157.5 
z
M 529.519034 151.946721 
L 537.690901 151.946721 
L 533.611361 145.940377 
z
" style="fill:#008000;"/>
   </g>
   <g id="patch_35">
    <path clip-path="url(#p419dae16f3)" d="M 549.238938 141.317641 
Q 546.622894 141.854142 543.794099 142.125511 
Q 540.965304 142.4 537.88436 142.4 
Q 528.696687 142.4 523.330644 140.366288 
Q 517.964602 138.332576 517.964602 134.854679 
Q 517.964602 131.364305 523.330644 129.333712 
Q 528.696687 127.3 537.88436 127.3 
Q 540.965304 127.3 543.794099 127.574489 
Q 546.622894 127.845858 549.238938 128.382359 
L 549.238938 131.392378 
Q 546.599255 130.681202 544.038368 130.350568 
Q 541.477481 130.019934 538.648687 130.019934 
Q 533.574191 130.019934 530.6666 131.308159 
Q 527.766888 132.593266 527.766888 134.854679 
Q 527.766888 137.106734 530.6666 138.39496 
Q 533.574191 139.680066 538.648687 139.680066 
Q 541.477481 139.680066 544.038368 139.349432 
Q 546.599255 139.015679 549.238938 138.304503 
z
" style="fill:#0000ff;"/>
   </g>
   <g id="patch_36">
    <path clip-path="url(#p419dae16f3)" d="M 517.964602 21.6 
L 549.238938 21.6 
L 549.238938 42.214445 
L 537.98745 42.214445 
L 537.98745 127.3 
L 529.237909 127.3 
L 529.237909 42.214445 
L 517.964602 42.214445 
z
" style="fill:#ff0000;"/>
   </g>
   <g id="patch_37">
    <path clip-path="url(#p419dae16f3)" d="M 582.159292 156.417641 
Q 579.543248 156.954142 576.714453 157.225511 
Q 573.885658 157.5 570.804714 157.5 
Q 561.617041 157.5 556.250998 155.466288 
Q 550.884956 153.432576 550.884956 149.954679 
Q 550.884956 146.464305 556.250998 144.433712 
Q 561.617041 142.4 570.804714 142.4 
Q 573.885658 142.4 576.714453 142.674489 
Q 579.543248 142.945858 582.159292 143.482359 
L 582.159292 146.492378 
Q 579.519609 145.781202 576.958722 145.450568 
Q 574.397835 145.119934 571.569041 145.119934 
Q 566.494545 145.119934 563.586954 146.408159 
Q 560.687242 147.693266 560.687242 149.954679 
Q 560.687242 152.206734 563.586954 153.49496 
Q 566.494545 154.780066 571.569041 154.780066 
Q 574.397835 154.780066 576.958722 154.449432 
Q 579.519609 154.115679 582.159292 153.404503 
z
" style="fill:#0000ff;"/>
   </g>
   <g id="patch_38">
    <path clip-path="url(#p419dae16f3)" d="M 582.159292 138.301384 
Q 579.005224 140.350692 575.612849 141.380025 
Q 572.220473 142.4 568.603809 142.4 
Q 560.431268 142.4 555.658112 136.298864 
Q 550.884956 130.197728 550.884956 119.764036 
Q 550.884956 109.208697 555.74222 103.154348 
Q 560.606494 97.1 569.066405 97.1 
Q 572.325609 97.1 575.31146 97.923466 
Q 578.30432 98.737575 580.953737 100.347077 
L 580.953737 109.377133 
Q 578.220212 107.30911 575.514722 106.289134 
Q 572.809233 105.259802 570.089725 105.259802 
Q 565.057235 105.259802 562.330718 109.021545 
Q 559.604201 112.773931 559.604201 119.764036 
Q 559.604201 126.688639 562.232591 130.469097 
Q 564.860981 134.240198 569.697219 134.240198 
Q 571.014919 134.240198 572.143374 134.024974 
Q 573.271829 133.800392 574.168986 133.332514 
L 574.168986 124.854555 
L 569.017342 124.854555 
L 569.017342 117.302995 
L 582.159292 117.302995 
z
" style="fill:#ffa600;"/>
   </g>
   <g id="patch_39">
    <path clip-path="url(#p419dae16f3)" d="M 572.548716 83.346249 
L 560.521109 83.346249 
L 558.622013 97.1 
L 550.884956 97.1 
L 561.934241 21.6 
L 571.110007 21.6 
L 582.159292 97.1 
L 574.428629 97.1 
z
M 562.439387 69.333605 
L 570.611255 69.333605 
L 566.531715 39.301886 
z
" style="fill:#008000;"/>
   </g>
   <g id="patch_40">
    <path clip-path="url(#p419dae16f3)" d="M 615.079646 156.417641 
Q 612.463602 156.954142 609.634807 157.225511 
Q 606.806012 157.5 603.725068 157.5 
Q 594.537395 157.5 589.171352 155.466288 
Q 583.80531 153.432576 583.80531 149.954679 
Q 583.80531 146.464305 589.171352 144.433712 
Q 594.537395 142.4 603.725068 142.4 
Q 606.806012 142.4 609.634807 142.674489 
Q 612.463602 142.945858 615.079646 143.482359 
L 615.079646 146.492378 
Q 612.439963 145.781202 609.879076 145.450568 
Q 607.318189 145.119934 604.489395 145.119934 
Q 599.414899 145.119934 596.507308 146.408159 
Q 593.607596 147.693266 593.607596 149.954679 
Q 593.607596 152.206734 596.507308 153.49496 
Q 599.414899 154.780066 604.489395 154.780066 
Q 607.318189 154.780066 609.879076 154.449432 
Q 612.439963 154.115679 615.079646 153.404503 
z
" style="fill:#0000ff;"/>
   </g>
   <g id="patch_41">
    <path clip-path="url(#p419dae16f3)" d="M 615.079646 139.667589 
Q 611.925578 141.033795 608.533203 141.720017 
Q 605.140827 142.4 601.524163 142.4 
Q 593.351622 142.4 588.578466 138.332576 
Q 583.80531 134.265152 583.80531 127.309358 
Q 583.80531 120.272464 588.662574 116.236232 
Q 593.526848 112.2 601.986759 112.2 
Q 605.245963 112.2 608.231814 112.748977 
Q 611.224674 113.291717 613.874091 114.364718 
L 613.874091 120.384755 
Q 611.140566 119.006073 608.435076 118.32609 
Q 605.729587 117.639868 603.010079 117.639868 
Q 597.977589 117.639868 595.251072 120.147697 
Q 592.524555 122.649287 592.524555 127.309358 
Q 592.524555 131.925759 595.152945 134.446065 
Q 597.781335 136.960132 602.617573 136.960132 
Q 603.935272 136.960132 605.063728 136.816649 
Q 606.192183 136.666928 607.08934 136.355009 
L 607.08934 130.703037 
L 601.937696 130.703037 
L 601.937696 125.668663 
L 615.079646 125.668663 
z
" style="fill:#ffa600;"/>
   </g>
   <g id="patch_42">
    <path clip-path="url(#p419dae16f3)" d="M 605.46907 95.695499 
L 593.441463 95.695499 
L 591.542367 112.2 
L 583.80531 112.2 
L 594.854595 21.6 
L 604.030361 21.6 
L 615.079646 112.2 
L 607.348983 112.2 
z
M 595.359741 78.880326 
L 603.531609 78.880326 
L 599.452069 42.842263 
z
" style="fill:#008000;"/>
   </g>
   <g id="patch_43">
    <path clip-path="url(#p419dae16f3)" d="M 638.389424 151.9985 
L 626.361817 151.9985 
L 624.462721 157.5 
L 616.725664 157.5 
L 627.774949 127.3 
L 636.950715 127.3 
L 648 157.5 
L 640.269337 157.5 
z
M 628.280095 146.393442 
L 636.451963 146.393442 
L 632.372423 134.380754 
z
" style="fill:#008000;"/>
   </g>
   <g id="patch_44">
    <path clip-path="url(#p419dae16f3)" d="M 648 117.736563 
Q 644.845932 122.518281 641.453557 124.920058 
Q 638.061181 127.3 634.444517 127.3 
Q 626.271976 127.3 621.49882 113.064016 
Q 616.725664 98.828031 616.725664 74.482751 
Q 616.725664 49.853625 621.582928 35.726813 
Q 626.447202 21.6 634.907113 21.6 
Q 638.166317 21.6 641.152168 23.521421 
Q 644.145028 25.421008 646.794445 29.176513 
L 646.794445 50.246643 
Q 644.06092 45.421256 641.35543 43.041314 
Q 638.649941 40.639537 635.930433 40.639537 
Q 630.897943 40.639537 628.171426 49.416939 
Q 625.444909 58.172506 625.444909 74.482751 
Q 625.444909 90.640157 628.073299 99.461227 
Q 630.701689 108.260463 635.537927 108.260463 
Q 636.855626 108.260463 637.984082 107.758273 
Q 639.112537 107.234249 640.009694 106.142533 
L 640.009694 86.360628 
L 634.85805 86.360628 
L 634.85805 68.740322 
L 648 68.740322 
z
" style="fill:#ffa600;"/>
   </g>
  </g>
 </g>
 <defs>
  <clipPath id="p419dae16f3">
   <rect height="135.9" width="558" x="90" y="21.6"/>
  </clipPath>
 </defs>
</svg>
