<?xml version="1.0" encoding="utf-8" standalone="no"?>
<!DOCTYPE svg PUBLIC "-//W3C//DTD SVG 1.1//EN"
  "http://www.w3.org/Graphics/SVG/1.1/DTD/svg11.dtd">
<!-- Created with matplotlib (https://matplotlib.org/) -->
<svg height="180pt" version="1.1" viewBox="0 0 720 180" width="720pt" xmlns="http://www.w3.org/2000/svg" xmlns:xlink="http://www.w3.org/1999/xlink">
 <metadata>
  <rdf:RDF xmlns:cc="http://creativecommons.org/ns#" xmlns:dc="http://purl.org/dc/elements/1.1/" xmlns:rdf="http://www.w3.org/1999/02/22-rdf-syntax-ns#">
   <cc:Work>
    <dc:type rdf:resource="http://purl.org/dc/dcmitype/StillImage"/>
    <dc:date>2021-08-04T23:33:24.135630</dc:date>
    <dc:format>image/svg+xml</dc:format>
    <dc:creator>
     <cc:Agent>
      <dc:title>Matplotlib v3.3.2, https://matplotlib.org/</dc:title>
     </cc:Agent>
    </dc:creator>
   </cc:Work>
  </rdf:RDF>
 </metadata>
 <defs>
  <style type="text/css">*{stroke-linecap:butt;stroke-linejoin:round;}</style>
 </defs>
 <g id="figure_1">
  <g id="patch_1">
   <path d="M 0 180 
L 720 180 
L 720 0 
L 0 0 
z
" style="fill:none;"/>
  </g>
  <g id="axes_1">
   <g id="line2d_1">
    <path clip-path="url(#pf8b6a8ca57)" d="M 90 157.5 
L 648 157.5 
" style="fill:none;stroke:#000000;stroke-linecap:square;stroke-width:0.5;"/>
   </g>
   <g id="patch_2">
    <path clip-path="url(#pf8b6a8ca57)" d="M 90 142.4 
L 121.274336 142.4 
L 121.274336 145.344921 
L 110.022848 145.344921 
L 110.022848 157.5 
L 101.273307 157.5 
L 101.273307 145.344921 
L 90 145.344921 
z
" style="fill:#ff0000;"/>
   </g>
   <g id="patch_3">
    <path clip-path="url(#pf8b6a8ca57)" d="M 111.66376 134.14775 
L 99.636153 134.14775 
L 97.737057 142.4 
L 90 142.4 
L 101.049285 97.1 
L 110.225051 97.1 
L 121.274336 142.4 
L 113.543673 142.4 
z
M 101.554432 125.740163 
L 109.726299 125.740163 
L 105.64676 107.721132 
z
" style="fill:#008000;"/>
   </g>
   <g id="patch_4">
    <path clip-path="url(#pf8b6a8ca57)" d="M 121.274336 91.688205 
Q 118.658292 94.370709 115.829497 95.727556 
Q 113.000702 97.1 109.919759 97.1 
Q 100.732085 97.1 95.366043 86.93144 
Q 90 76.76288 90 59.373394 
Q 90 41.921524 95.366043 31.76856 
Q 100.732085 21.6 109.919759 21.6 
Q 113.000702 21.6 115.829497 22.972444 
Q 118.658292 24.329291 121.274336 27.011795 
L 121.274336 42.061888 
Q 118.634653 38.506011 116.073766 36.85284 
Q 113.51288 35.199669 110.684085 35.199669 
Q 105.609589 35.199669 102.701998 41.640797 
Q 99.802286 48.066329 99.802286 59.373394 
Q 99.802286 70.633671 102.701998 77.074799 
Q 105.609589 83.500331 110.684085 83.500331 
Q 113.51288 83.500331 116.073766 81.84716 
Q 118.634653 80.178393 121.274336 76.622516 
z
" style="fill:#0000ff;"/>
   </g>
   <g id="patch_5">
    <path clip-path="url(#pf8b6a8ca57)" d="M 154.19469 156.133795 
Q 151.040622 156.816897 147.648247 157.160008 
Q 144.255872 157.5 140.639207 157.5 
Q 132.466666 157.5 127.69351 155.466288 
Q 122.920354 153.432576 122.920354 149.954679 
Q 122.920354 146.436232 127.777619 144.418116 
Q 132.641892 142.4 141.101804 142.4 
Q 144.361007 142.4 147.346858 142.674489 
Q 150.339718 142.945858 152.989135 143.482359 
L 152.989135 146.492378 
Q 150.25561 145.803037 147.55012 145.463045 
Q 144.844631 145.119934 142.125123 145.119934 
Q 137.092633 145.119934 134.366116 146.373848 
Q 131.6396 147.624644 131.6396 149.954679 
Q 131.6396 152.26288 134.26799 153.523032 
Q 136.89638 154.780066 141.732617 154.780066 
Q 143.050317 154.780066 144.178772 154.708325 
Q 145.307228 154.633464 146.204385 154.477505 
L 146.204385 151.651518 
L 141.05274 151.651518 
L 141.05274 149.134332 
L 154.19469 149.134332 
z
" style="fill:#ffa600;"/>
   </g>
   <g id="patch_6">
    <path clip-path="url(#pf8b6a8ca57)" d="M 154.19469 139.152923 
Q 151.578646 140.762425 148.749851 141.576534 
Q 145.921056 142.4 142.840113 142.4 
Q 133.652439 142.4 128.286397 136.298864 
Q 122.920354 130.197728 122.920354 119.764036 
Q 122.920354 109.292915 128.286397 103.201136 
Q 133.652439 97.1 142.840113 97.1 
Q 145.921056 97.1 148.749851 97.923466 
Q 151.578646 98.737575 154.19469 100.347077 
L 154.19469 109.377133 
Q 151.555007 107.243607 148.99412 106.251704 
Q 146.433234 105.259802 143.604439 105.259802 
Q 138.529943 105.259802 135.622352 109.124478 
Q 132.72264 112.979798 132.72264 119.764036 
Q 132.72264 126.520202 135.622352 130.384879 
Q 138.529943 134.240198 143.604439 134.240198 
Q 146.433234 134.240198 148.99412 133.248296 
Q 151.555007 132.247036 154.19469 130.11351 
z
" style="fill:#0000ff;"/>
   </g>
   <g id="patch_7">
    <path clip-path="url(#pf8b6a8ca57)" d="M 144.584114 83.346249 
L 132.556507 83.346249 
L 130.657411 97.1 
L 122.920354 97.1 
L 133.969639 21.6 
L 143.145405 21.6 
L 154.19469 97.1 
L 146.464027 97.1 
z
M 134.474786 69.333605 
L 142.646653 69.333605 
L 138.567114 39.301886 
z
" style="fill:#008000;"/>
   </g>
   <g id="patch_8">
    <path clip-path="url(#pf8b6a8ca57)" d="M 177.504468 154.74925 
L 165.476861 154.74925 
L 163.577765 157.5 
L 155.840708 157.5 
L 166.889993 142.4 
L 176.065759 142.4 
L 187.115044 157.5 
L 179.384381 157.5 
z
M 167.39514 151.946721 
L 175.567007 151.946721 
L 171.487467 145.940377 
z
" style="fill:#008000;"/>
   </g>
   <g id="patch_9">
    <path clip-path="url(#pf8b6a8ca57)" d="M 187.115044 139.667589 
Q 183.960976 141.033795 180.568601 141.720017 
Q 177.176226 142.4 173.559561 142.4 
Q 165.38702 142.4 160.613864 138.332576 
Q 155.840708 134.265152 155.840708 127.309358 
Q 155.840708 120.272464 160.697973 116.236232 
Q 165.562246 112.2 174.022158 112.2 
Q 177.281361 112.2 180.267212 112.748977 
Q 183.260072 113.291717 185.909489 114.364718 
L 185.909489 120.384755 
Q 183.175964 119.006073 180.470474 118.32609 
Q 177.764985 117.639868 175.045477 117.639868 
Q 170.012987 117.639868 167.28647 120.147697 
Q 164.559954 122.649287 164.559954 127.309358 
Q 164.559954 131.925759 167.188344 134.446065 
Q 169.816734 136.960132 174.652971 136.960132 
Q 175.970671 136.960132 177.099126 136.816649 
Q 178.227582 136.666928 179.124739 136.355009 
L 179.124739 130.703037 
L 173.973094 130.703037 
L 173.973094 125.668663 
L 187.115044 125.668663 
z
" style="fill:#ffa600;"/>
   </g>
   <g id="patch_10">
    <path clip-path="url(#pf8b6a8ca57)" d="M 187.115044 108.952923 
Q 184.499 110.562425 181.670205 111.376534 
Q 178.84141 112.2 175.760467 112.2 
Q 166.572793 112.2 161.206751 106.098864 
Q 155.840708 99.997728 155.840708 89.564036 
Q 155.840708 79.092915 161.206751 73.001136 
Q 166.572793 66.9 175.760467 66.9 
Q 178.84141 66.9 181.670205 67.723466 
Q 184.499 68.537575 187.115044 70.147077 
L 187.115044 79.177133 
Q 184.475361 77.043607 181.914474 76.051704 
Q 179.353588 75.059802 176.524793 75.059802 
Q 171.450297 75.059802 168.542706 78.924478 
Q 165.642994 82.779798 165.642994 89.564036 
Q 165.642994 96.320202 168.542706 100.184879 
Q 171.450297 104.040198 176.524793 104.040198 
Q 179.353588 104.040198 181.914474 103.048296 
Q 184.475361 102.047036 187.115044 99.91351 
z
" style="fill:#0000ff;"/>
   </g>
   <g id="patch_11">
    <path clip-path="url(#pf8b6a8ca57)" d="M 155.840708 21.6 
L 187.115044 21.6 
L 187.115044 30.434762 
L 175.863556 30.434762 
L 175.863556 66.9 
L 167.114015 66.9 
L 167.114015 30.434762 
L 155.840708 30.434762 
z
" style="fill:#ff0000;"/>
   </g>
   <g id="patch_12">
    <path clip-path="url(#pf8b6a8ca57)" d="M 220.035398 153.401384 
Q 216.88133 155.450692 213.488955 156.480025 
Q 210.09658 157.5 206.479915 157.5 
Q 198.307374 157.5 193.534218 151.398864 
Q 188.761062 145.297728 188.761062 134.864036 
Q 188.761062 124.308697 193.618327 118.254348 
Q 198.4826 112.2 206.942512 112.2 
Q 210.201715 112.2 213.187566 113.023466 
Q 216.180426 113.837575 218.829843 115.447077 
L 218.829843 124.477133 
Q 216.096318 122.40911 213.390828 121.389134 
Q 210.685339 120.359802 207.965831 120.359802 
Q 202.933341 120.359802 200.206824 124.121545 
Q 197.480308 127.873931 197.480308 134.864036 
Q 197.480308 141.788639 200.108698 145.569097 
Q 202.737088 149.340198 207.573325 149.340198 
Q 208.891025 149.340198 210.01948 149.124974 
Q 211.147936 148.900392 212.045093 148.432514 
L 212.045093 139.954555 
L 206.893448 139.954555 
L 206.893448 132.402995 
L 220.035398 132.402995 
z
" style="fill:#ffa600;"/>
   </g>
   <g id="patch_13">
    <path clip-path="url(#pf8b6a8ca57)" d="M 220.035398 105.705846 
Q 217.419354 108.92485 214.590559 110.553068 
Q 211.761764 112.2 208.680821 112.2 
Q 199.493147 112.2 194.127105 99.997728 
Q 188.761062 87.795455 188.761062 66.928073 
Q 188.761062 45.985829 194.127105 33.802272 
Q 199.493147 21.6 208.680821 21.6 
Q 211.761764 21.6 214.590559 23.246932 
Q 217.419354 24.87515 220.035398 28.094154 
L 220.035398 46.154266 
Q 217.395715 41.887213 214.834828 39.903408 
Q 212.273942 37.919603 209.445147 37.919603 
Q 204.370651 37.919603 201.46306 45.648957 
Q 198.563348 53.359595 198.563348 66.928073 
Q 198.563348 80.440405 201.46306 88.169758 
Q 204.370651 95.880397 209.445147 95.880397 
Q 212.273942 95.880397 214.834828 93.896592 
Q 217.395715 91.894071 220.035398 87.627019 
z
" style="fill:#0000ff;"/>
   </g>
   <g id="patch_14">
    <path clip-path="url(#pf8b6a8ca57)" d="M 252.955752 156.417641 
Q 250.339708 156.954142 247.510913 157.225511 
Q 244.682118 157.5 241.601175 157.5 
Q 232.413501 157.5 227.047459 155.466288 
Q 221.681416 153.432576 221.681416 149.954679 
Q 221.681416 146.464305 227.047459 144.433712 
Q 232.413501 142.4 241.601175 142.4 
Q 244.682118 142.4 247.510913 142.674489 
Q 250.339708 142.945858 252.955752 143.482359 
L 252.955752 146.492378 
Q 250.316069 145.781202 247.755182 145.450568 
Q 245.194296 145.119934 242.365501 145.119934 
Q 237.291005 145.119934 234.383414 146.408159 
Q 231.483702 147.693266 231.483702 149.954679 
Q 231.483702 152.206734 234.383414 153.49496 
Q 237.291005 154.780066 242.365501 154.780066 
Q 245.194296 154.780066 247.755182 154.449432 
Q 250.316069 154.115679 252.955752 153.404503 
z
" style="fill:#0000ff;"/>
   </g>
   <g id="patch_15">
    <path clip-path="url(#pf8b6a8ca57)" d="M 252.955752 139.667589 
Q 249.801684 141.033795 246.409309 141.720017 
Q 243.016934 142.4 239.400269 142.4 
Q 231.227728 142.4 226.454572 138.332576 
Q 221.681416 134.265152 221.681416 127.309358 
Q 221.681416 120.272464 226.538681 116.236232 
Q 231.402954 112.2 239.862866 112.2 
Q 243.122069 112.2 246.10792 112.748977 
Q 249.10078 113.291717 251.750197 114.364718 
L 251.750197 120.384755 
Q 249.016672 119.006073 246.311182 118.32609 
Q 243.605693 117.639868 240.886185 117.639868 
Q 235.853695 117.639868 233.127178 120.147697 
Q 230.400662 122.649287 230.400662 127.309358 
Q 230.400662 131.925759 233.029052 134.446065 
Q 235.657442 136.960132 240.493679 136.960132 
Q 241.811379 136.960132 242.939834 136.816649 
Q 244.06829 136.666928 244.965447 136.355009 
L 244.965447 130.703037 
L 239.813802 130.703037 
L 239.813802 125.668663 
L 252.955752 125.668663 
z
" style="fill:#ffa600;"/>
   </g>
   <g id="patch_16">
    <path clip-path="url(#pf8b6a8ca57)" d="M 243.345176 95.695499 
L 231.317569 95.695499 
L 229.418473 112.2 
L 221.681416 112.2 
L 232.730701 21.6 
L 241.906467 21.6 
L 252.955752 112.2 
L 245.225089 112.2 
z
M 233.235848 78.880326 
L 241.407715 78.880326 
L 237.328175 42.842263 
z
" style="fill:#008000;"/>
   </g>
   <g id="patch_17">
    <path clip-path="url(#pf8b6a8ca57)" d="M 285.876106 156.417641 
Q 283.260062 156.954142 280.431267 157.225511 
Q 277.602472 157.5 274.521529 157.5 
Q 265.333855 157.5 259.967812 155.466288 
Q 254.60177 153.432576 254.60177 149.954679 
Q 254.60177 146.464305 259.967812 144.433712 
Q 265.333855 142.4 274.521529 142.4 
Q 277.602472 142.4 280.431267 142.674489 
Q 283.260062 142.945858 285.876106 143.482359 
L 285.876106 146.492378 
Q 283.236423 145.781202 280.675536 145.450568 
Q 278.11465 145.119934 275.285855 145.119934 
Q 270.211359 145.119934 267.303768 146.408159 
Q 264.404056 147.693266 264.404056 149.954679 
Q 264.404056 152.206734 267.303768 153.49496 
Q 270.211359 154.780066 275.285855 154.780066 
Q 278.11465 154.780066 280.675536 154.449432 
Q 283.236423 154.115679 285.876106 153.404503 
z
" style="fill:#0000ff;"/>
   </g>
   <g id="patch_18">
    <path clip-path="url(#pf8b6a8ca57)" d="M 276.26553 131.397 
L 264.237923 131.397 
L 262.338827 142.4 
L 254.60177 142.4 
L 265.651055 82 
L 274.826821 82 
L 285.876106 142.4 
L 278.145443 142.4 
z
M 266.156202 120.186884 
L 274.328069 120.186884 
L 270.248529 96.161509 
z
" style="fill:#008000;"/>
   </g>
   <g id="patch_19">
    <path clip-path="url(#pf8b6a8ca57)" d="M 254.60177 21.6 
L 285.876106 21.6 
L 285.876106 33.379683 
L 274.624618 33.379683 
L 274.624618 82 
L 265.875077 82 
L 265.875077 33.379683 
L 254.60177 33.379683 
z
" style="fill:#ff0000;"/>
   </g>
   <g id="patch_20">
    <path clip-path="url(#pf8b6a8ca57)" d="M 309.185884 151.9985 
L 297.158277 151.9985 
L 295.259181 157.5 
L 287.522124 157.5 
L 298.571409 127.3 
L 307.747175 127.3 
L 318.79646 157.5 
L 311.065797 157.5 
z
M 299.076556 146.393442 
L 307.248423 146.393442 
L 303.168883 134.380754 
z
" style="fill:#008000;"/>
   </g>
   <g id="patch_21">
    <path clip-path="url(#pf8b6a8ca57)" d="M 318.79646 124.052923 
Q 316.180416 125.662425 313.351621 126.476534 
Q 310.522826 127.3 307.441883 127.3 
Q 298.254209 127.3 292.888166 121.198864 
Q 287.522124 115.097728 287.522124 104.664036 
Q 287.522124 94.192915 292.888166 88.101136 
Q 298.254209 82 307.441883 82 
Q 310.522826 82 313.351621 82.823466 
Q 316.180416 83.637575 318.79646 85.247077 
L 318.79646 94.277133 
Q 316.156777 92.143607 313.59589 91.151704 
Q 311.035004 90.159802 308.206209 90.159802 
Q 303.131713 90.159802 300.224122 94.024478 
Q 297.32441 97.879798 297.32441 104.664036 
Q 297.32441 111.420202 300.224122 115.284879 
Q 303.131713 119.140198 308.206209 119.140198 
Q 311.035004 119.140198 313.59589 118.148296 
Q 316.156777 117.147036 318.79646 115.01351 
z
" style="fill:#0000ff;"/>
   </g>
   <g id="patch_22">
    <path clip-path="url(#pf8b6a8ca57)" d="M 318.79646 76.535179 
Q 315.642392 79.267589 312.250017 80.640033 
Q 308.857642 82 305.240977 82 
Q 297.068436 82 292.29528 73.865152 
Q 287.522124 65.730304 287.522124 51.818715 
Q 287.522124 37.744929 292.379389 29.672464 
Q 297.243662 21.6 305.703574 21.6 
Q 308.962777 21.6 311.948628 22.697955 
Q 314.941488 23.783433 317.590905 25.929436 
L 317.590905 37.96951 
Q 314.85738 35.212146 312.15189 33.852179 
Q 309.446401 32.479736 306.726893 32.479736 
Q 301.694403 32.479736 298.967886 37.495394 
Q 296.24137 42.498575 296.24137 51.818715 
Q 296.24137 61.051518 298.86976 66.09213 
Q 301.49815 71.120264 306.334387 71.120264 
Q 307.652087 71.120264 308.780542 70.833299 
Q 309.908998 70.533857 310.806155 69.910019 
L 310.806155 58.606073 
L 305.65451 58.606073 
L 305.65451 48.537327 
L 318.79646 48.537327 
z
" style="fill:#ffa600;"/>
   </g>
   <g id="patch_23">
    <path clip-path="url(#pf8b6a8ca57)" d="M 351.716814 156.417641 
Q 349.10077 156.954142 346.271975 157.225511 
Q 343.44318 157.5 340.362237 157.5 
Q 331.174563 157.5 325.80852 155.466288 
Q 320.442478 153.432576 320.442478 149.954679 
Q 320.442478 146.464305 325.80852 144.433712 
Q 331.174563 142.4 340.362237 142.4 
Q 343.44318 142.4 346.271975 142.674489 
Q 349.10077 142.945858 351.716814 143.482359 
L 351.716814 146.492378 
Q 349.077131 145.781202 346.516244 145.450568 
Q 343.955358 145.119934 341.126563 145.119934 
Q 336.052067 145.119934 333.144476 146.408159 
Q 330.244764 147.693266 330.244764 149.954679 
Q 330.244764 152.206734 333.144476 153.49496 
Q 336.052067 154.780066 341.126563 154.780066 
Q 343.955358 154.780066 346.516244 154.449432 
Q 349.077131 154.115679 351.716814 153.404503 
z
" style="fill:#0000ff;"/>
   </g>
   <g id="patch_24">
    <path clip-path="url(#pf8b6a8ca57)" d="M 351.716814 139.667589 
Q 348.562746 141.033795 345.170371 141.720017 
Q 341.777996 142.4 338.161331 142.4 
Q 329.98879 142.4 325.215634 138.332576 
Q 320.442478 134.265152 320.442478 127.309358 
Q 320.442478 120.272464 325.299743 116.236232 
Q 330.164016 112.2 338.623928 112.2 
Q 341.883131 112.2 344.868982 112.748977 
Q 347.861842 113.291717 350.511259 114.364718 
L 350.511259 120.384755 
Q 347.777734 119.006073 345.072244 118.32609 
Q 342.366755 117.639868 339.647247 117.639868 
Q 334.614757 117.639868 331.88824 120.147697 
Q 329.161724 122.649287 329.161724 127.309358 
Q 329.161724 131.925759 331.790114 134.446065 
Q 334.418504 136.960132 339.254741 136.960132 
Q 340.572441 136.960132 341.700896 136.816649 
Q 342.829351 136.666928 343.726509 136.355009 
L 343.726509 130.703037 
L 338.574864 130.703037 
L 338.574864 125.668663 
L 351.716814 125.668663 
z
" style="fill:#ffa600;"/>
   </g>
   <g id="patch_25">
    <path clip-path="url(#pf8b6a8ca57)" d="M 342.106238 95.695499 
L 330.078631 95.695499 
L 328.179535 112.2 
L 320.442478 112.2 
L 331.491763 21.6 
L 340.667529 21.6 
L 351.716814 112.2 
L 343.986151 112.2 
z
M 331.99691 78.880326 
L 340.168777 78.880326 
L 336.089237 42.842263 
z
" style="fill:#008000;"/>
   </g>
   <g id="patch_26">
    <path clip-path="url(#pf8b6a8ca57)" d="M 375.026592 154.74925 
L 362.998985 154.74925 
L 361.099889 157.5 
L 353.362832 157.5 
L 364.412117 142.4 
L 373.587883 142.4 
L 384.637168 157.5 
L 376.906505 157.5 
z
M 364.917264 151.946721 
L 373.089131 151.946721 
L 369.009591 145.940377 
z
" style="fill:#008000;"/>
   </g>
   <g id="patch_27">
    <path clip-path="url(#pf8b6a8ca57)" d="M 384.637168 140.235282 
Q 382.021124 141.308283 379.192329 141.851023 
Q 376.363534 142.4 373.282591 142.4 
Q 364.094917 142.4 358.728874 138.332576 
Q 353.362832 134.265152 353.362832 127.309358 
Q 353.362832 120.32861 358.728874 116.267424 
Q 364.094917 112.2 373.282591 112.2 
Q 376.363534 112.2 379.192329 112.748977 
Q 382.021124 113.291717 384.637168 114.364718 
L 384.637168 120.384755 
Q 381.997485 118.962404 379.436598 118.301136 
Q 376.875712 117.639868 374.046917 117.639868 
Q 368.972421 117.639868 366.06483 120.216319 
Q 363.165118 122.786532 363.165118 127.309358 
Q 363.165118 131.813468 366.06483 134.389919 
Q 368.972421 136.960132 374.046917 136.960132 
Q 376.875712 136.960132 379.436598 136.298864 
Q 381.997485 135.631357 384.637168 134.209006 
z
" style="fill:#0000ff;"/>
   </g>
   <g id="patch_28">
    <path clip-path="url(#pf8b6a8ca57)" d="M 353.362832 21.6 
L 384.637168 21.6 
L 384.637168 39.269524 
L 373.38568 39.269524 
L 373.38568 112.2 
L 364.636139 112.2 
L 364.636139 39.269524 
L 353.362832 39.269524 
z
" style="fill:#ff0000;"/>
   </g>
   <g id="patch_29">
    <path clip-path="url(#pf8b6a8ca57)" d="M 386.283186 142.4 
L 417.557522 142.4 
L 417.557522 145.344921 
L 406.306034 145.344921 
L 406.306034 157.5 
L 397.556493 157.5 
L 397.556493 145.344921 
L 386.283186 145.344921 
z
" style="fill:#ff0000;"/>
   </g>
   <g id="patch_30">
    <path clip-path="url(#pf8b6a8ca57)" d="M 417.557522 131.470357 
Q 414.403454 136.935179 411.011079 139.680066 
Q 407.618703 142.4 404.002039 142.4 
Q 395.829498 142.4 391.056342 126.130304 
Q 386.283186 109.860607 386.283186 82.03743 
Q 386.283186 53.889857 391.140451 37.744929 
Q 396.004724 21.6 404.464635 21.6 
Q 407.723839 21.6 410.70969 23.79591 
Q 413.70255 25.966866 416.351967 30.258872 
L 416.351967 54.339021 
Q 413.618442 48.824293 410.912952 46.104359 
Q 408.207463 43.359471 405.487955 43.359471 
Q 400.455465 43.359471 397.728948 53.390787 
Q 395.002432 63.397149 395.002432 82.03743 
Q 395.002432 100.503037 397.630822 110.584259 
Q 400.259212 120.640529 405.095449 120.640529 
Q 406.413149 120.640529 407.541604 120.066598 
Q 408.670059 119.467713 409.567217 118.220037 
L 409.567217 95.612146 
L 404.415572 95.612146 
L 404.415572 75.474654 
L 417.557522 75.474654 
z
" style="fill:#ffa600;"/>
   </g>
   <g id="patch_31">
    <path clip-path="url(#pf8b6a8ca57)" d="M 450.477876 145.204152 
Q 447.323808 151.352076 443.931433 154.440074 
Q 440.539057 157.5 436.922393 157.5 
Q 428.749852 157.5 423.976696 139.196592 
Q 419.20354 120.893183 419.20354 89.592109 
Q 419.20354 57.92609 424.060805 39.763045 
Q 428.925078 21.6 437.384989 21.6 
Q 440.644193 21.6 443.630044 24.070399 
Q 446.622904 26.512725 449.272321 31.341231 
L 449.272321 58.431398 
Q 446.538796 52.227329 443.833306 49.167403 
Q 441.127817 46.079405 438.408309 46.079405 
Q 433.375819 46.079405 430.649302 57.364635 
Q 427.922786 68.621793 427.922786 89.592109 
Q 427.922786 110.365916 430.551176 121.707292 
Q 433.179565 133.020595 438.015803 133.020595 
Q 439.333503 133.020595 440.461958 132.374923 
Q 441.590413 131.701177 442.487571 130.297542 
L 442.487571 104.863665 
L 437.335926 104.863665 
L 437.335926 82.208986 
L 450.477876 82.208986 
z
" style="fill:#ffa600;"/>
   </g>
   <g id="patch_32">
    <path clip-path="url(#pf8b6a8ca57)" d="M 473.787654 154.74925 
L 461.760047 154.74925 
L 459.860951 157.5 
L 452.123894 157.5 
L 463.173179 142.4 
L 472.348945 142.4 
L 483.39823 157.5 
L 475.667567 157.5 
z
M 463.678326 151.946721 
L 471.850193 151.946721 
L 467.770653 145.940377 
z
" style="fill:#008000;"/>
   </g>
   <g id="patch_33">
    <path clip-path="url(#pf8b6a8ca57)" d="M 483.39823 141.317641 
Q 480.782186 141.854142 477.953391 142.125511 
Q 475.124596 142.4 472.043652 142.4 
Q 462.855979 142.4 457.489936 140.366288 
Q 452.123894 138.332576 452.123894 134.854679 
Q 452.123894 131.364305 457.489936 129.333712 
Q 462.855979 127.3 472.043652 127.3 
Q 475.124596 127.3 477.953391 127.574489 
Q 480.782186 127.845858 483.39823 128.382359 
L 483.39823 131.392378 
Q 480.758547 130.681202 478.19766 130.350568 
Q 475.636773 130.019934 472.807979 130.019934 
Q 467.733483 130.019934 464.825892 131.308159 
Q 461.92618 132.593266 461.92618 134.854679 
Q 461.92618 137.106734 464.825892 138.39496 
Q 467.733483 139.680066 472.807979 139.680066 
Q 475.636773 139.680066 478.19766 139.349432 
Q 480.758547 139.015679 483.39823 138.304503 
z
" style="fill:#0000ff;"/>
   </g>
   <g id="patch_34">
    <path clip-path="url(#pf8b6a8ca57)" d="M 483.39823 117.736563 
Q 480.244162 122.518281 476.851787 124.920058 
Q 473.459411 127.3 469.842747 127.3 
Q 461.670206 127.3 456.89705 113.064016 
Q 452.123894 98.828031 452.123894 74.482751 
Q 452.123894 49.853625 456.981158 35.726813 
Q 461.845432 21.6 470.305343 21.6 
Q 473.564547 21.6 476.550398 23.521421 
Q 479.543258 25.421008 482.192675 29.176513 
L 482.192675 50.246643 
Q 479.45915 45.421256 476.75366 43.041314 
Q 474.048171 40.639537 471.328663 40.639537 
Q 466.296173 40.639537 463.569656 49.416939 
Q 460.84314 58.172506 460.84314 74.482751 
Q 460.84314 90.640157 463.471529 99.461227 
Q 466.099919 108.260463 470.936157 108.260463 
Q 472.253857 108.260463 473.382312 107.758273 
Q 474.510767 107.234249 475.407925 106.142533 
L 475.407925 86.360628 
L 470.25628 86.360628 
L 470.25628 68.740322 
L 483.39823 68.740322 
z
" style="fill:#ffa600;"/>
   </g>
   <g id="patch_35">
    <path clip-path="url(#pf8b6a8ca57)" d="M 485.044248 142.4 
L 516.318584 142.4 
L 516.318584 145.344921 
L 505.067096 145.344921 
L 505.067096 157.5 
L 496.317555 157.5 
L 496.317555 145.344921 
L 485.044248 145.344921 
z
" style="fill:#ff0000;"/>
   </g>
   <g id="patch_36">
    <path clip-path="url(#pf8b6a8ca57)" d="M 516.318584 139.667589 
Q 513.164516 141.033795 509.772141 141.720017 
Q 506.379765 142.4 502.763101 142.4 
Q 494.59056 142.4 489.817404 138.332576 
Q 485.044248 134.265152 485.044248 127.309358 
Q 485.044248 120.272464 489.901512 116.236232 
Q 494.765786 112.2 503.225697 112.2 
Q 506.484901 112.2 509.470752 112.748977 
Q 512.463612 113.291717 515.113029 114.364718 
L 515.113029 120.384755 
Q 512.379504 119.006073 509.674014 118.32609 
Q 506.968525 117.639868 504.249017 117.639868 
Q 499.216527 117.639868 496.49001 120.147697 
Q 493.763493 122.649287 493.763493 127.309358 
Q 493.763493 131.925759 496.391883 134.446065 
Q 499.020273 136.960132 503.856511 136.960132 
Q 505.174211 136.960132 506.302666 136.816649 
Q 507.431121 136.666928 508.328279 136.355009 
L 508.328279 130.703037 
L 503.176634 130.703037 
L 503.176634 125.668663 
L 516.318584 125.668663 
z
" style="fill:#ffa600;"/>
   </g>
   <g id="patch_37">
    <path clip-path="url(#pf8b6a8ca57)" d="M 516.318584 105.705846 
Q 513.70254 108.92485 510.873745 110.553068 
Q 508.04495 112.2 504.964006 112.2 
Q 495.776333 112.2 490.41029 99.997728 
Q 485.044248 87.795455 485.044248 66.928073 
Q 485.044248 45.985829 490.41029 33.802272 
Q 495.776333 21.6 504.964006 21.6 
Q 508.04495 21.6 510.873745 23.246932 
Q 513.70254 24.87515 516.318584 28.094154 
L 516.318584 46.154266 
Q 513.678901 41.887213 511.118014 39.903408 
Q 508.557127 37.919603 505.728333 37.919603 
Q 500.653837 37.919603 497.746246 45.648957 
Q 494.846534 53.359595 494.846534 66.928073 
Q 494.846534 80.440405 497.746246 88.169758 
Q 500.653837 95.880397 505.728333 95.880397 
Q 508.557127 95.880397 511.118014 93.896592 
Q 513.678901 91.894071 516.318584 87.627019 
z
" style="fill:#0000ff;"/>
   </g>
   <g id="patch_38">
    <path clip-path="url(#pf8b6a8ca57)" d="M 549.238938 156.133795 
Q 546.08487 156.816897 542.692495 157.160008 
Q 539.300119 157.5 535.683455 157.5 
Q 527.510914 157.5 522.737758 155.466288 
Q 517.964602 153.432576 517.964602 149.954679 
Q 517.964602 146.436232 522.821866 144.418116 
Q 527.68614 142.4 536.146051 142.4 
Q 539.405255 142.4 542.391106 142.674489 
Q 545.383966 142.945858 548.033383 143.482359 
L 548.033383 146.492378 
Q 545.299858 145.803037 542.594368 145.463045 
Q 539.888879 145.119934 537.169371 145.119934 
Q 532.136881 145.119934 529.410364 146.373848 
Q 526.683847 147.624644 526.683847 149.954679 
Q 526.683847 152.26288 529.312237 153.523032 
Q 531.940627 154.780066 536.776865 154.780066 
Q 538.094565 154.780066 539.22302 154.708325 
Q 540.351475 154.633464 541.248633 154.477505 
L 541.248633 151.651518 
L 536.096988 151.651518 
L 536.096988 149.134332 
L 549.238938 149.134332 
z
" style="fill:#ffa600;"/>
   </g>
   <g id="patch_39">
    <path clip-path="url(#pf8b6a8ca57)" d="M 549.238938 133.741128 
Q 546.622894 138.033134 543.794099 140.20409 
Q 540.965304 142.4 537.88436 142.4 
Q 528.696687 142.4 523.330644 126.130304 
Q 517.964602 109.860607 517.964602 82.03743 
Q 517.964602 54.114439 523.330644 37.869696 
Q 528.696687 21.6 537.88436 21.6 
Q 540.965304 21.6 543.794099 23.79591 
Q 546.622894 25.966866 549.238938 30.258872 
L 549.238938 54.339021 
Q 546.599255 48.649618 544.038368 46.004545 
Q 541.477481 43.359471 538.648687 43.359471 
Q 533.574191 43.359471 530.6666 53.665276 
Q 527.766888 63.946127 527.766888 82.03743 
Q 527.766888 100.053873 530.6666 110.359678 
Q 533.574191 120.640529 538.648687 120.640529 
Q 541.477481 120.640529 544.038368 117.995455 
Q 546.599255 115.325429 549.238938 109.636026 
z
" style="fill:#0000ff;"/>
   </g>
   <g id="patch_40">
    <path clip-path="url(#pf8b6a8ca57)" d="M 582.159292 154.767589 
Q 579.005224 156.133795 575.612849 156.820017 
Q 572.220473 157.5 568.603809 157.5 
Q 560.431268 157.5 555.658112 153.432576 
Q 550.884956 149.365152 550.884956 142.409358 
Q 550.884956 135.372464 555.74222 131.336232 
Q 560.606494 127.3 569.066405 127.3 
Q 572.325609 127.3 575.31146 127.848977 
Q 578.30432 128.391717 580.953737 129.464718 
L 580.953737 135.484755 
Q 578.220212 134.106073 575.514722 133.42609 
Q 572.809233 132.739868 570.089725 132.739868 
Q 565.057235 132.739868 562.330718 135.247697 
Q 559.604201 137.749287 559.604201 142.409358 
Q 559.604201 147.025759 562.232591 149.546065 
Q 564.860981 152.060132 569.697219 152.060132 
Q 571.014919 152.060132 572.143374 151.916649 
Q 573.271829 151.766928 574.168986 151.455009 
L 574.168986 145.803037 
L 569.017342 145.803037 
L 569.017342 140.768663 
L 582.159292 140.768663 
z
" style="fill:#ffa600;"/>
   </g>
   <g id="patch_41">
    <path clip-path="url(#pf8b6a8ca57)" d="M 582.159292 119.723487 
Q 579.543248 123.478992 576.714453 125.378579 
Q 573.885658 127.3 570.804714 127.3 
Q 561.617041 127.3 556.250998 113.064016 
Q 550.884956 98.828031 550.884956 74.482751 
Q 550.884956 50.050134 556.250998 35.835984 
Q 561.617041 21.6 570.804714 21.6 
Q 573.885658 21.6 576.714453 23.521421 
Q 579.543248 25.421008 582.159292 29.176513 
L 582.159292 50.246643 
Q 579.519609 45.268416 576.958722 42.953976 
Q 574.397835 40.639537 571.569041 40.639537 
Q 566.494545 40.639537 563.586954 49.657116 
Q 560.687242 58.652861 560.687242 74.482751 
Q 560.687242 90.247139 563.586954 99.264718 
Q 566.494545 108.260463 571.569041 108.260463 
Q 574.397835 108.260463 576.958722 105.946024 
Q 579.519609 103.60975 582.159292 98.631522 
z
" style="fill:#0000ff;"/>
   </g>
   <g id="patch_42">
    <path clip-path="url(#pf8b6a8ca57)" d="M 615.079646 156.133795 
Q 611.925578 156.816897 608.533203 157.160008 
Q 605.140827 157.5 601.524163 157.5 
Q 593.351622 157.5 588.578466 155.466288 
Q 583.80531 153.432576 583.80531 149.954679 
Q 583.80531 146.436232 588.662574 144.418116 
Q 593.526848 142.4 601.986759 142.4 
Q 605.245963 142.4 608.231814 142.674489 
Q 611.224674 142.945858 613.874091 143.482359 
L 613.874091 146.492378 
Q 611.140566 145.803037 608.435076 145.463045 
Q 605.729587 145.119934 603.010079 145.119934 
Q 597.977589 145.119934 595.251072 146.373848 
Q 592.524555 147.624644 592.524555 149.954679 
Q 592.524555 152.26288 595.152945 153.523032 
Q 597.781335 154.780066 602.617573 154.780066 
Q 603.935272 154.780066 605.063728 154.708325 
Q 606.192183 154.633464 607.08934 154.477505 
L 607.08934 151.651518 
L 601.937696 151.651518 
L 601.937696 149.134332 
L 615.079646 149.134332 
z
" style="fill:#ffa600;"/>
   </g>
   <g id="patch_43">
    <path clip-path="url(#pf8b6a8ca57)" d="M 583.80531 97.1 
L 615.079646 97.1 
L 615.079646 105.934762 
L 603.828158 105.934762 
L 603.828158 142.4 
L 595.078617 142.4 
L 595.078617 105.934762 
L 583.80531 105.934762 
z
" style="fill:#ff0000;"/>
   </g>
   <g id="patch_44">
    <path clip-path="url(#pf8b6a8ca57)" d="M 615.079646 91.688205 
Q 612.463602 94.370709 609.634807 95.727556 
Q 606.806012 97.1 603.725068 97.1 
Q 594.537395 97.1 589.171352 86.93144 
Q 583.80531 76.76288 583.80531 59.373394 
Q 583.80531 41.921524 589.171352 31.76856 
Q 594.537395 21.6 603.725068 21.6 
Q 606.806012 21.6 609.634807 22.972444 
Q 612.463602 24.329291 615.079646 27.011795 
L 615.079646 42.061888 
Q 612.439963 38.506011 609.879076 36.85284 
Q 607.318189 35.199669 604.489395 35.199669 
Q 599.414899 35.199669 596.507308 41.640797 
Q 593.607596 48.066329 593.607596 59.373394 
Q 593.607596 70.633671 596.507308 77.074799 
Q 599.414899 83.500331 604.489395 83.500331 
Q 607.318189 83.500331 609.879076 81.84716 
Q 612.439963 80.178393 615.079646 76.622516 
z
" style="fill:#0000ff;"/>
   </g>
   <g id="patch_45">
    <path clip-path="url(#pf8b6a8ca57)" d="M 648 154.252923 
Q 645.383956 155.862425 642.555161 156.676534 
Q 639.726366 157.5 636.645422 157.5 
Q 627.457749 157.5 622.091706 151.398864 
Q 616.725664 145.297728 616.725664 134.864036 
Q 616.725664 124.392915 622.091706 118.301136 
Q 627.457749 112.2 636.645422 112.2 
Q 639.726366 112.2 642.555161 113.023466 
Q 645.383956 113.837575 648 115.447077 
L 648 124.477133 
Q 645.360317 122.343607 642.79943 121.351704 
Q 640.238543 120.359802 637.409749 120.359802 
Q 632.335253 120.359802 629.427662 124.224478 
Q 626.52795 128.079798 626.52795 134.864036 
Q 626.52795 141.620202 629.427662 145.484879 
Q 632.335253 149.340198 637.409749 149.340198 
Q 640.238543 149.340198 642.79943 148.348296 
Q 645.360317 147.347036 648 145.21351 
z
" style="fill:#0000ff;"/>
   </g>
   <g id="patch_46">
    <path clip-path="url(#pf8b6a8ca57)" d="M 648 108.101384 
Q 644.845932 110.150692 641.453557 111.180025 
Q 638.061181 112.2 634.444517 112.2 
Q 626.271976 112.2 621.49882 106.098864 
Q 616.725664 99.997728 616.725664 89.564036 
Q 616.725664 79.008697 621.582928 72.954348 
Q 626.447202 66.9 634.907113 66.9 
Q 638.166317 66.9 641.152168 67.723466 
Q 644.145028 68.537575 646.794445 70.147077 
L 646.794445 79.177133 
Q 644.06092 77.10911 641.35543 76.089134 
Q 638.649941 75.059802 635.930433 75.059802 
Q 630.897943 75.059802 628.171426 78.821545 
Q 625.444909 82.573931 625.444909 89.564036 
Q 625.444909 96.488639 628.073299 100.269097 
Q 630.701689 104.040198 635.537927 104.040198 
Q 636.855626 104.040198 637.984082 103.824974 
Q 639.112537 103.600392 640.009694 103.132514 
L 640.009694 94.654555 
L 634.85805 94.654555 
L 634.85805 87.102995 
L 648 87.102995 
z
" style="fill:#ffa600;"/>
   </g>
   <g id="patch_47">
    <path clip-path="url(#pf8b6a8ca57)" d="M 616.725664 21.6 
L 648 21.6 
L 648 30.434762 
L 636.748512 30.434762 
L 636.748512 66.9 
L 627.998971 66.9 
L 627.998971 30.434762 
L 616.725664 30.434762 
z
" style="fill:#ff0000;"/>
   </g>
  </g>
 </g>
 <defs>
  <clipPath id="pf8b6a8ca57">
   <rect height="135.9" width="558" x="90" y="21.6"/>
  </clipPath>
 </defs>
</svg>
