<?xml version="1.0" encoding="utf-8" standalone="no"?>
<!DOCTYPE svg PUBLIC "-//W3C//DTD SVG 1.1//EN"
  "http://www.w3.org/Graphics/SVG/1.1/DTD/svg11.dtd">
<!-- Created with matplotlib (https://matplotlib.org/) -->
<svg height="180pt" version="1.1" viewBox="0 0 720 180" width="720pt" xmlns="http://www.w3.org/2000/svg" xmlns:xlink="http://www.w3.org/1999/xlink">
 <metadata>
  <rdf:RDF xmlns:cc="http://creativecommons.org/ns#" xmlns:dc="http://purl.org/dc/elements/1.1/" xmlns:rdf="http://www.w3.org/1999/02/22-rdf-syntax-ns#">
   <cc:Work>
    <dc:type rdf:resource="http://purl.org/dc/dcmitype/StillImage"/>
    <dc:date>2021-08-04T23:34:06.458345</dc:date>
    <dc:format>image/svg+xml</dc:format>
    <dc:creator>
     <cc:Agent>
      <dc:title>Matplotlib v3.3.2, https://matplotlib.org/</dc:title>
     </cc:Agent>
    </dc:creator>
   </cc:Work>
  </rdf:RDF>
 </metadata>
 <defs>
  <style type="text/css">*{stroke-linecap:butt;stroke-linejoin:round;}</style>
 </defs>
 <g id="figure_1">
  <g id="patch_1">
   <path d="M 0 180 
L 720 180 
L 720 0 
L 0 0 
z
" style="fill:none;"/>
  </g>
  <g id="axes_1">
   <g id="line2d_1">
    <path clip-path="url(#p87151d195a)" d="M 90 157.5 
L 648 157.5 
" style="fill:none;stroke:#000000;stroke-linecap:square;stroke-width:0.5;"/>
   </g>
   <g id="patch_2">
    <path clip-path="url(#p87151d195a)" d="M 90 142.4 
L 121.274336 142.4 
L 121.274336 145.344921 
L 110.022848 145.344921 
L 110.022848 157.5 
L 101.273307 157.5 
L 101.273307 145.344921 
L 90 145.344921 
z
" style="fill:#ff0000;"/>
   </g>
   <g id="patch_3">
    <path clip-path="url(#p87151d195a)" d="M 121.274336 139.152923 
Q 118.658292 140.762425 115.829497 141.576534 
Q 113.000702 142.4 109.919759 142.4 
Q 100.732085 142.4 95.366043 136.298864 
Q 90 130.197728 90 119.764036 
Q 90 109.292915 95.366043 103.201136 
Q 100.732085 97.1 109.919759 97.1 
Q 113.000702 97.1 115.829497 97.923466 
Q 118.658292 98.737575 121.274336 100.347077 
L 121.274336 109.377133 
Q 118.634653 107.243607 116.073766 106.251704 
Q 113.51288 105.259802 110.684085 105.259802 
Q 105.609589 105.259802 102.701998 109.124478 
Q 99.802286 112.979798 99.802286 119.764036 
Q 99.802286 126.520202 102.701998 130.384879 
Q 105.609589 134.240198 110.684085 134.240198 
Q 113.51288 134.240198 116.073766 133.248296 
Q 118.634653 132.247036 121.274336 130.11351 
z
" style="fill:#0000ff;"/>
   </g>
   <g id="patch_4">
    <path clip-path="url(#p87151d195a)" d="M 121.274336 90.268973 
Q 118.120268 93.684487 114.727893 95.400041 
Q 111.335518 97.1 107.718853 97.1 
Q 99.546312 97.1 94.773156 86.93144 
Q 90 76.76288 90 59.373394 
Q 90 41.781161 94.857265 31.69058 
Q 99.721538 21.6 108.18145 21.6 
Q 111.440653 21.6 114.426504 22.972444 
Q 117.419364 24.329291 120.068781 27.011795 
L 120.068781 42.061888 
Q 117.335256 38.615183 114.629766 36.915224 
Q 111.924277 35.199669 109.204769 35.199669 
Q 104.172279 35.199669 101.445762 41.469242 
Q 98.719246 47.723218 98.719246 59.373394 
Q 98.719246 70.914398 101.347636 77.215162 
Q 103.976026 83.500331 108.812263 83.500331 
Q 110.129963 83.500331 111.258418 83.141624 
Q 112.386874 82.767321 113.284031 81.987523 
L 113.284031 67.857591 
L 108.132386 67.857591 
L 108.132386 55.271659 
L 121.274336 55.271659 
z
" style="fill:#ffa600;"/>
   </g>
   <g id="patch_5">
    <path clip-path="url(#p87151d195a)" d="M 122.920354 21.6 
L 154.19469 21.6 
L 154.19469 48.104286 
L 142.943202 48.104286 
L 142.943202 157.5 
L 134.193661 157.5 
L 134.193661 48.104286 
L 122.920354 48.104286 
z
" style="fill:#ff0000;"/>
   </g>
   <g id="patch_6">
    <path clip-path="url(#p87151d195a)" d="M 187.115044 153.401384 
Q 183.960976 155.450692 180.568601 156.480025 
Q 177.176226 157.5 173.559561 157.5 
Q 165.38702 157.5 160.613864 151.398864 
Q 155.840708 145.297728 155.840708 134.864036 
Q 155.840708 124.308697 160.697973 118.254348 
Q 165.562246 112.2 174.022158 112.2 
Q 177.281361 112.2 180.267212 113.023466 
Q 183.260072 113.837575 185.909489 115.447077 
L 185.909489 124.477133 
Q 183.175964 122.40911 180.470474 121.389134 
Q 177.764985 120.359802 175.045477 120.359802 
Q 170.012987 120.359802 167.28647 124.121545 
Q 164.559954 127.873931 164.559954 134.864036 
Q 164.559954 141.788639 167.188344 145.569097 
Q 169.816734 149.340198 174.652971 149.340198 
Q 175.970671 149.340198 177.099126 149.124974 
Q 178.227582 148.900392 179.124739 148.432514 
L 179.124739 139.954555 
L 173.973094 139.954555 
L 173.973094 132.402995 
L 187.115044 132.402995 
z
" style="fill:#ffa600;"/>
   </g>
   <g id="patch_7">
    <path clip-path="url(#p87151d195a)" d="M 177.504468 95.695499 
L 165.476861 95.695499 
L 163.577765 112.2 
L 155.840708 112.2 
L 166.889993 21.6 
L 176.065759 21.6 
L 187.115044 112.2 
L 179.384381 112.2 
z
M 167.39514 78.880326 
L 175.567007 78.880326 
L 171.487467 42.842263 
z
" style="fill:#008000;"/>
   </g>
   <g id="patch_8">
    <path clip-path="url(#p87151d195a)" d="M 220.035398 153.401384 
Q 216.88133 155.450692 213.488955 156.480025 
Q 210.09658 157.5 206.479915 157.5 
Q 198.307374 157.5 193.534218 151.398864 
Q 188.761062 145.297728 188.761062 134.864036 
Q 188.761062 124.308697 193.618327 118.254348 
Q 198.4826 112.2 206.942512 112.2 
Q 210.201715 112.2 213.187566 113.023466 
Q 216.180426 113.837575 218.829843 115.447077 
L 218.829843 124.477133 
Q 216.096318 122.40911 213.390828 121.389134 
Q 210.685339 120.359802 207.965831 120.359802 
Q 202.933341 120.359802 200.206824 124.121545 
Q 197.480308 127.873931 197.480308 134.864036 
Q 197.480308 141.788639 200.108698 145.569097 
Q 202.737088 149.340198 207.573325 149.340198 
Q 208.891025 149.340198 210.01948 149.124974 
Q 211.147936 148.900392 212.045093 148.432514 
L 212.045093 139.954555 
L 206.893448 139.954555 
L 206.893448 132.402995 
L 220.035398 132.402995 
z
" style="fill:#ffa600;"/>
   </g>
   <g id="patch_9">
    <path clip-path="url(#p87151d195a)" d="M 210.424822 95.695499 
L 198.397215 95.695499 
L 196.498119 112.2 
L 188.761062 112.2 
L 199.810347 21.6 
L 208.986113 21.6 
L 220.035398 112.2 
L 212.304735 112.2 
z
M 200.315494 78.880326 
L 208.487361 78.880326 
L 204.407821 42.842263 
z
" style="fill:#008000;"/>
   </g>
   <g id="patch_10">
    <path clip-path="url(#p87151d195a)" d="M 221.681416 21.6 
L 252.955752 21.6 
L 252.955752 48.104286 
L 241.704264 48.104286 
L 241.704264 157.5 
L 232.954723 157.5 
L 232.954723 48.104286 
L 221.681416 48.104286 
z
" style="fill:#ff0000;"/>
   </g>
   <g id="patch_11">
    <path clip-path="url(#p87151d195a)" d="M 285.876106 156.133795 
Q 282.722038 156.816897 279.329663 157.160008 
Q 275.937288 157.5 272.320623 157.5 
Q 264.148082 157.5 259.374926 155.466288 
Q 254.60177 153.432576 254.60177 149.954679 
Q 254.60177 146.436232 259.459035 144.418116 
Q 264.323308 142.4 272.78322 142.4 
Q 276.042423 142.4 279.028274 142.674489 
Q 282.021134 142.945858 284.670551 143.482359 
L 284.670551 146.492378 
Q 281.937026 145.803037 279.231536 145.463045 
Q 276.526047 145.119934 273.806539 145.119934 
Q 268.774049 145.119934 266.047532 146.373848 
Q 263.321016 147.624644 263.321016 149.954679 
Q 263.321016 152.26288 265.949406 153.523032 
Q 268.577796 154.780066 273.414033 154.780066 
Q 274.731733 154.780066 275.860188 154.708325 
Q 276.988644 154.633464 277.885801 154.477505 
L 277.885801 151.651518 
L 272.734156 151.651518 
L 272.734156 149.134332 
L 285.876106 149.134332 
z
" style="fill:#ffa600;"/>
   </g>
   <g id="patch_12">
    <path clip-path="url(#p87151d195a)" d="M 276.26553 120.393999 
L 264.237923 120.393999 
L 262.338827 142.4 
L 254.60177 142.4 
L 265.651055 21.6 
L 274.826821 21.6 
L 285.876106 142.4 
L 278.145443 142.4 
z
M 266.156202 97.973768 
L 274.328069 97.973768 
L 270.248529 49.923018 
z
" style="fill:#008000;"/>
   </g>
   <g id="patch_13">
    <path clip-path="url(#p87151d195a)" d="M 309.185884 154.74925 
L 297.158277 154.74925 
L 295.259181 157.5 
L 287.522124 157.5 
L 298.571409 142.4 
L 307.747175 142.4 
L 318.79646 157.5 
L 311.065797 157.5 
z
M 299.076556 151.946721 
L 307.248423 151.946721 
L 303.168883 145.940377 
z
" style="fill:#008000;"/>
   </g>
   <g id="patch_14">
    <path clip-path="url(#p87151d195a)" d="M 318.79646 131.470357 
Q 315.642392 136.935179 312.250017 139.680066 
Q 308.857642 142.4 305.240977 142.4 
Q 297.068436 142.4 292.29528 126.130304 
Q 287.522124 109.860607 287.522124 82.03743 
Q 287.522124 53.889857 292.379389 37.744929 
Q 297.243662 21.6 305.703574 21.6 
Q 308.962777 21.6 311.948628 23.79591 
Q 314.941488 25.966866 317.590905 30.258872 
L 317.590905 54.339021 
Q 314.85738 48.824293 312.15189 46.104359 
Q 309.446401 43.359471 306.726893 43.359471 
Q 301.694403 43.359471 298.967886 53.390787 
Q 296.24137 63.397149 296.24137 82.03743 
Q 296.24137 100.503037 298.86976 110.584259 
Q 301.49815 120.640529 306.334387 120.640529 
Q 307.652087 120.640529 308.780542 120.066598 
Q 309.908998 119.467713 310.806155 118.220037 
L 310.806155 95.612146 
L 305.65451 95.612146 
L 305.65451 75.474654 
L 318.79646 75.474654 
z
" style="fill:#ffa600;"/>
   </g>
   <g id="patch_15">
    <path clip-path="url(#p87151d195a)" d="M 320.442478 21.6 
L 351.716814 21.6 
L 351.716814 48.104286 
L 340.465326 48.104286 
L 340.465326 157.5 
L 331.715785 157.5 
L 331.715785 48.104286 
L 320.442478 48.104286 
z
" style="fill:#ff0000;"/>
   </g>
   <g id="patch_16">
    <path clip-path="url(#p87151d195a)" d="M 375.026592 146.497 
L 362.998985 146.497 
L 361.099889 157.5 
L 353.362832 157.5 
L 364.412117 97.1 
L 373.587883 97.1 
L 384.637168 157.5 
L 376.906505 157.5 
z
M 364.917264 135.286884 
L 373.089131 135.286884 
L 369.009591 111.261509 
z
" style="fill:#008000;"/>
   </g>
   <g id="patch_17">
    <path clip-path="url(#p87151d195a)" d="M 384.637168 90.268973 
Q 381.4831 93.684487 378.090725 95.400041 
Q 374.698349 97.1 371.081685 97.1 
Q 362.909144 97.1 358.135988 86.93144 
Q 353.362832 76.76288 353.362832 59.373394 
Q 353.362832 41.781161 358.220097 31.69058 
Q 363.08437 21.6 371.544282 21.6 
Q 374.803485 21.6 377.789336 22.972444 
Q 380.782196 24.329291 383.431613 27.011795 
L 383.431613 42.061888 
Q 380.698088 38.615183 377.992598 36.915224 
Q 375.287109 35.199669 372.567601 35.199669 
Q 367.535111 35.199669 364.808594 41.469242 
Q 362.082078 47.723218 362.082078 59.373394 
Q 362.082078 70.914398 364.710468 77.215162 
Q 367.338858 83.500331 372.175095 83.500331 
Q 373.492795 83.500331 374.62125 83.141624 
Q 375.749705 82.767321 376.646863 81.987523 
L 376.646863 67.857591 
L 371.495218 67.857591 
L 371.495218 55.271659 
L 384.637168 55.271659 
z
" style="fill:#ffa600;"/>
   </g>
   <g id="patch_18">
    <path clip-path="url(#p87151d195a)" d="M 417.557522 156.133795 
Q 414.403454 156.816897 411.011079 157.160008 
Q 407.618703 157.5 404.002039 157.5 
Q 395.829498 157.5 391.056342 155.466288 
Q 386.283186 153.432576 386.283186 149.954679 
Q 386.283186 146.436232 391.140451 144.418116 
Q 396.004724 142.4 404.464635 142.4 
Q 407.723839 142.4 410.70969 142.674489 
Q 413.70255 142.945858 416.351967 143.482359 
L 416.351967 146.492378 
Q 413.618442 145.803037 410.912952 145.463045 
Q 408.207463 145.119934 405.487955 145.119934 
Q 400.455465 145.119934 397.728948 146.373848 
Q 395.002432 147.624644 395.002432 149.954679 
Q 395.002432 152.26288 397.630822 153.523032 
Q 400.259212 154.780066 405.095449 154.780066 
Q 406.413149 154.780066 407.541604 154.708325 
Q 408.670059 154.633464 409.567217 154.477505 
L 409.567217 151.651518 
L 404.415572 151.651518 
L 404.415572 149.134332 
L 417.557522 149.134332 
z
" style="fill:#ffa600;"/>
   </g>
   <g id="patch_19">
    <path clip-path="url(#p87151d195a)" d="M 407.946946 120.393999 
L 395.919339 120.393999 
L 394.020243 142.4 
L 386.283186 142.4 
L 397.332471 21.6 
L 406.508237 21.6 
L 417.557522 142.4 
L 409.826859 142.4 
z
M 397.837618 97.973768 
L 406.009485 97.973768 
L 401.929945 49.923018 
z
" style="fill:#008000;"/>
   </g>
   <g id="patch_20">
    <path clip-path="url(#p87151d195a)" d="M 450.477876 156.417641 
Q 447.861832 156.954142 445.033037 157.225511 
Q 442.204242 157.5 439.123298 157.5 
Q 429.935625 157.5 424.569582 155.466288 
Q 419.20354 153.432576 419.20354 149.954679 
Q 419.20354 146.464305 424.569582 144.433712 
Q 429.935625 142.4 439.123298 142.4 
Q 442.204242 142.4 445.033037 142.674489 
Q 447.861832 142.945858 450.477876 143.482359 
L 450.477876 146.492378 
Q 447.838193 145.781202 445.277306 145.450568 
Q 442.71642 145.119934 439.887625 145.119934 
Q 434.813129 145.119934 431.905538 146.408159 
Q 429.005826 147.693266 429.005826 149.954679 
Q 429.005826 152.206734 431.905538 153.49496 
Q 434.813129 154.780066 439.887625 154.780066 
Q 442.71642 154.780066 445.277306 154.449432 
Q 447.838193 154.115679 450.477876 153.404503 
z
" style="fill:#0000ff;"/>
   </g>
   <g id="patch_21">
    <path clip-path="url(#p87151d195a)" d="M 450.477876 141.033795 
Q 447.323808 141.716897 443.931433 142.060008 
Q 440.539057 142.4 436.922393 142.4 
Q 428.749852 142.4 423.976696 140.366288 
Q 419.20354 138.332576 419.20354 134.854679 
Q 419.20354 131.336232 424.060805 129.318116 
Q 428.925078 127.3 437.384989 127.3 
Q 440.644193 127.3 443.630044 127.574489 
Q 446.622904 127.845858 449.272321 128.382359 
L 449.272321 131.392378 
Q 446.538796 130.703037 443.833306 130.363045 
Q 441.127817 130.019934 438.408309 130.019934 
Q 433.375819 130.019934 430.649302 131.273848 
Q 427.922786 132.524644 427.922786 134.854679 
Q 427.922786 137.16288 430.551176 138.423032 
Q 433.179565 139.680066 438.015803 139.680066 
Q 439.333503 139.680066 440.461958 139.608325 
Q 441.590413 139.533464 442.487571 139.377505 
L 442.487571 136.551518 
L 437.335926 136.551518 
L 437.335926 134.034332 
L 450.477876 134.034332 
z
" style="fill:#ffa600;"/>
   </g>
   <g id="patch_22">
    <path clip-path="url(#p87151d195a)" d="M 419.20354 97.1 
L 450.477876 97.1 
L 450.477876 102.989841 
L 439.226388 102.989841 
L 439.226388 127.3 
L 430.476847 127.3 
L 430.476847 102.989841 
L 419.20354 102.989841 
z
" style="fill:#ff0000;"/>
   </g>
   <g id="patch_23">
    <path clip-path="url(#p87151d195a)" d="M 440.8673 83.346249 
L 428.839693 83.346249 
L 426.940597 97.1 
L 419.20354 97.1 
L 430.252825 21.6 
L 439.428591 21.6 
L 450.477876 97.1 
L 442.747213 97.1 
z
M 430.757972 69.333605 
L 438.929839 69.333605 
L 434.850299 39.301886 
z
" style="fill:#008000;"/>
   </g>
   <g id="patch_24">
    <path clip-path="url(#p87151d195a)" d="M 483.39823 154.767589 
Q 480.244162 156.133795 476.851787 156.820017 
Q 473.459411 157.5 469.842747 157.5 
Q 461.670206 157.5 456.89705 153.432576 
Q 452.123894 149.365152 452.123894 142.409358 
Q 452.123894 135.372464 456.981158 131.336232 
Q 461.845432 127.3 470.305343 127.3 
Q 473.564547 127.3 476.550398 127.848977 
Q 479.543258 128.391717 482.192675 129.464718 
L 482.192675 135.484755 
Q 479.45915 134.106073 476.75366 133.42609 
Q 474.048171 132.739868 471.328663 132.739868 
Q 466.296173 132.739868 463.569656 135.247697 
Q 460.84314 137.749287 460.84314 142.409358 
Q 460.84314 147.025759 463.471529 149.546065 
Q 466.099919 152.060132 470.936157 152.060132 
Q 472.253857 152.060132 473.382312 151.916649 
Q 474.510767 151.766928 475.407925 151.455009 
L 475.407925 145.803037 
L 470.25628 145.803037 
L 470.25628 140.768663 
L 483.39823 140.768663 
z
" style="fill:#ffa600;"/>
   </g>
   <g id="patch_25">
    <path clip-path="url(#p87151d195a)" d="M 483.39823 124.052923 
Q 480.782186 125.662425 477.953391 126.476534 
Q 475.124596 127.3 472.043652 127.3 
Q 462.855979 127.3 457.489936 121.198864 
Q 452.123894 115.097728 452.123894 104.664036 
Q 452.123894 94.192915 457.489936 88.101136 
Q 462.855979 82 472.043652 82 
Q 475.124596 82 477.953391 82.823466 
Q 480.782186 83.637575 483.39823 85.247077 
L 483.39823 94.277133 
Q 480.758547 92.143607 478.19766 91.151704 
Q 475.636773 90.159802 472.807979 90.159802 
Q 467.733483 90.159802 464.825892 94.024478 
Q 461.92618 97.879798 461.92618 104.664036 
Q 461.92618 111.420202 464.825892 115.284879 
Q 467.733483 119.140198 472.807979 119.140198 
Q 475.636773 119.140198 478.19766 118.148296 
Q 480.758547 117.147036 483.39823 115.01351 
z
" style="fill:#0000ff;"/>
   </g>
   <g id="patch_26">
    <path clip-path="url(#p87151d195a)" d="M 452.123894 21.6 
L 483.39823 21.6 
L 483.39823 33.379683 
L 472.146742 33.379683 
L 472.146742 82 
L 463.397201 82 
L 463.397201 33.379683 
L 452.123894 33.379683 
z
" style="fill:#ff0000;"/>
   </g>
   <g id="patch_27">
    <path clip-path="url(#p87151d195a)" d="M 516.318584 155.335282 
Q 513.70254 156.408283 510.873745 156.951023 
Q 508.04495 157.5 504.964006 157.5 
Q 495.776333 157.5 490.41029 153.432576 
Q 485.044248 149.365152 485.044248 142.409358 
Q 485.044248 135.42861 490.41029 131.367424 
Q 495.776333 127.3 504.964006 127.3 
Q 508.04495 127.3 510.873745 127.848977 
Q 513.70254 128.391717 516.318584 129.464718 
L 516.318584 135.484755 
Q 513.678901 134.062404 511.118014 133.401136 
Q 508.557127 132.739868 505.728333 132.739868 
Q 500.653837 132.739868 497.746246 135.316319 
Q 494.846534 137.886532 494.846534 142.409358 
Q 494.846534 146.913468 497.746246 149.489919 
Q 500.653837 152.060132 505.728333 152.060132 
Q 508.557127 152.060132 511.118014 151.398864 
Q 513.678901 150.731357 516.318584 149.309006 
z
" style="fill:#0000ff;"/>
   </g>
   <g id="patch_28">
    <path clip-path="url(#p87151d195a)" d="M 485.044248 82 
L 516.318584 82 
L 516.318584 90.834762 
L 505.067096 90.834762 
L 505.067096 127.3 
L 496.317555 127.3 
L 496.317555 90.834762 
L 485.044248 90.834762 
z
" style="fill:#ff0000;"/>
   </g>
   <g id="patch_29">
    <path clip-path="url(#p87151d195a)" d="M 516.318584 76.535179 
Q 513.164516 79.267589 509.772141 80.640033 
Q 506.379765 82 502.763101 82 
Q 494.59056 82 489.817404 73.865152 
Q 485.044248 65.730304 485.044248 51.818715 
Q 485.044248 37.744929 489.901512 29.672464 
Q 494.765786 21.6 503.225697 21.6 
Q 506.484901 21.6 509.470752 22.697955 
Q 512.463612 23.783433 515.113029 25.929436 
L 515.113029 37.96951 
Q 512.379504 35.212146 509.674014 33.852179 
Q 506.968525 32.479736 504.249017 32.479736 
Q 499.216527 32.479736 496.49001 37.495394 
Q 493.763493 42.498575 493.763493 51.818715 
Q 493.763493 61.051518 496.391883 66.09213 
Q 499.020273 71.120264 503.856511 71.120264 
Q 505.174211 71.120264 506.302666 70.833299 
Q 507.431121 70.533857 508.328279 69.910019 
L 508.328279 58.606073 
L 503.176634 58.606073 
L 503.176634 48.537327 
L 516.318584 48.537327 
z
" style="fill:#ffa600;"/>
   </g>
   <g id="patch_30">
    <path clip-path="url(#p87151d195a)" d="M 539.628362 151.9985 
L 527.600755 151.9985 
L 525.701659 157.5 
L 517.964602 157.5 
L 529.013887 127.3 
L 538.189653 127.3 
L 549.238938 157.5 
L 541.508275 157.5 
z
M 529.519034 146.393442 
L 537.690901 146.393442 
L 533.611361 134.380754 
z
" style="fill:#008000;"/>
   </g>
   <g id="patch_31">
    <path clip-path="url(#p87151d195a)" d="M 549.238938 125.135282 
Q 546.622894 126.208283 543.794099 126.751023 
Q 540.965304 127.3 537.88436 127.3 
Q 528.696687 127.3 523.330644 123.232576 
Q 517.964602 119.165152 517.964602 112.209358 
Q 517.964602 105.22861 523.330644 101.167424 
Q 528.696687 97.1 537.88436 97.1 
Q 540.965304 97.1 543.794099 97.648977 
Q 546.622894 98.191717 549.238938 99.264718 
L 549.238938 105.284755 
Q 546.599255 103.862404 544.038368 103.201136 
Q 541.477481 102.539868 538.648687 102.539868 
Q 533.574191 102.539868 530.6666 105.116319 
Q 527.766888 107.686532 527.766888 112.209358 
Q 527.766888 116.713468 530.6666 119.289919 
Q 533.574191 121.860132 538.648687 121.860132 
Q 541.477481 121.860132 544.038368 121.198864 
Q 546.599255 120.531357 549.238938 119.109006 
z
" style="fill:#0000ff;"/>
   </g>
   <g id="patch_32">
    <path clip-path="url(#p87151d195a)" d="M 517.964602 66.9 
L 549.238938 66.9 
L 549.238938 72.789841 
L 537.98745 72.789841 
L 537.98745 97.1 
L 529.237909 97.1 
L 529.237909 72.789841 
L 517.964602 72.789841 
z
" style="fill:#ff0000;"/>
   </g>
   <g id="patch_33">
    <path clip-path="url(#p87151d195a)" d="M 549.238938 62.801384 
Q 546.08487 64.850692 542.692495 65.880025 
Q 539.300119 66.9 535.683455 66.9 
Q 527.510914 66.9 522.737758 60.798864 
Q 517.964602 54.697728 517.964602 44.264036 
Q 517.964602 33.708697 522.821866 27.654348 
Q 527.68614 21.6 536.146051 21.6 
Q 539.405255 21.6 542.391106 22.423466 
Q 545.383966 23.237575 548.033383 24.847077 
L 548.033383 33.877133 
Q 545.299858 31.80911 542.594368 30.789134 
Q 539.888879 29.759802 537.169371 29.759802 
Q 532.136881 29.759802 529.410364 33.521545 
Q 526.683847 37.273931 526.683847 44.264036 
Q 526.683847 51.188639 529.312237 54.969097 
Q 531.940627 58.740198 536.776865 58.740198 
Q 538.094565 58.740198 539.22302 58.524974 
Q 540.351475 58.300392 541.248633 57.832514 
L 541.248633 49.354555 
L 536.096988 49.354555 
L 536.096988 41.802995 
L 549.238938 41.802995 
z
" style="fill:#ffa600;"/>
   </g>
   <g id="patch_34">
    <path clip-path="url(#p87151d195a)" d="M 550.884956 142.4 
L 582.159292 142.4 
L 582.159292 145.344921 
L 570.907804 145.344921 
L 570.907804 157.5 
L 562.158263 157.5 
L 562.158263 145.344921 
L 550.884956 145.344921 
z
" style="fill:#ff0000;"/>
   </g>
   <g id="patch_35">
    <path clip-path="url(#p87151d195a)" d="M 572.548716 136.8985 
L 560.521109 136.8985 
L 558.622013 142.4 
L 550.884956 142.4 
L 561.934241 112.2 
L 571.110007 112.2 
L 582.159292 142.4 
L 574.428629 142.4 
z
M 562.439387 131.293442 
L 570.611255 131.293442 
L 566.531715 119.280754 
z
" style="fill:#008000;"/>
   </g>
   <g id="patch_36">
    <path clip-path="url(#p87151d195a)" d="M 582.159292 108.952923 
Q 579.543248 110.562425 576.714453 111.376534 
Q 573.885658 112.2 570.804714 112.2 
Q 561.617041 112.2 556.250998 106.098864 
Q 550.884956 99.997728 550.884956 89.564036 
Q 550.884956 79.092915 556.250998 73.001136 
Q 561.617041 66.9 570.804714 66.9 
Q 573.885658 66.9 576.714453 67.723466 
Q 579.543248 68.537575 582.159292 70.147077 
L 582.159292 79.177133 
Q 579.519609 77.043607 576.958722 76.051704 
Q 574.397835 75.059802 571.569041 75.059802 
Q 566.494545 75.059802 563.586954 78.924478 
Q 560.687242 82.779798 560.687242 89.564036 
Q 560.687242 96.320202 563.586954 100.184879 
Q 566.494545 104.040198 571.569041 104.040198 
Q 574.397835 104.040198 576.958722 103.048296 
Q 579.519609 102.047036 582.159292 99.91351 
z
" style="fill:#0000ff;"/>
   </g>
   <g id="patch_37">
    <path clip-path="url(#p87151d195a)" d="M 582.159292 62.801384 
Q 579.005224 64.850692 575.612849 65.880025 
Q 572.220473 66.9 568.603809 66.9 
Q 560.431268 66.9 555.658112 60.798864 
Q 550.884956 54.697728 550.884956 44.264036 
Q 550.884956 33.708697 555.74222 27.654348 
Q 560.606494 21.6 569.066405 21.6 
Q 572.325609 21.6 575.31146 22.423466 
Q 578.30432 23.237575 580.953737 24.847077 
L 580.953737 33.877133 
Q 578.220212 31.80911 575.514722 30.789134 
Q 572.809233 29.759802 570.089725 29.759802 
Q 565.057235 29.759802 562.330718 33.521545 
Q 559.604201 37.273931 559.604201 44.264036 
Q 559.604201 51.188639 562.232591 54.969097 
Q 564.860981 58.740198 569.697219 58.740198 
Q 571.014919 58.740198 572.143374 58.524974 
Q 573.271829 58.300392 574.168986 57.832514 
L 574.168986 49.354555 
L 569.017342 49.354555 
L 569.017342 41.802995 
L 582.159292 41.802995 
z
" style="fill:#ffa600;"/>
   </g>
   <g id="patch_38">
    <path clip-path="url(#p87151d195a)" d="M 615.079646 156.133795 
Q 611.925578 156.816897 608.533203 157.160008 
Q 605.140827 157.5 601.524163 157.5 
Q 593.351622 157.5 588.578466 155.466288 
Q 583.80531 153.432576 583.80531 149.954679 
Q 583.80531 146.436232 588.662574 144.418116 
Q 593.526848 142.4 601.986759 142.4 
Q 605.245963 142.4 608.231814 142.674489 
Q 611.224674 142.945858 613.874091 143.482359 
L 613.874091 146.492378 
Q 611.140566 145.803037 608.435076 145.463045 
Q 605.729587 145.119934 603.010079 145.119934 
Q 597.977589 145.119934 595.251072 146.373848 
Q 592.524555 147.624644 592.524555 149.954679 
Q 592.524555 152.26288 595.152945 153.523032 
Q 597.781335 154.780066 602.617573 154.780066 
Q 603.935272 154.780066 605.063728 154.708325 
Q 606.192183 154.633464 607.08934 154.477505 
L 607.08934 151.651518 
L 601.937696 151.651518 
L 601.937696 149.134332 
L 615.079646 149.134332 
z
" style="fill:#ffa600;"/>
   </g>
   <g id="patch_39">
    <path clip-path="url(#p87151d195a)" d="M 615.079646 140.235282 
Q 612.463602 141.308283 609.634807 141.851023 
Q 606.806012 142.4 603.725068 142.4 
Q 594.537395 142.4 589.171352 138.332576 
Q 583.80531 134.265152 583.80531 127.309358 
Q 583.80531 120.32861 589.171352 116.267424 
Q 594.537395 112.2 603.725068 112.2 
Q 606.806012 112.2 609.634807 112.748977 
Q 612.463602 113.291717 615.079646 114.364718 
L 615.079646 120.384755 
Q 612.439963 118.962404 609.879076 118.301136 
Q 607.318189 117.639868 604.489395 117.639868 
Q 599.414899 117.639868 596.507308 120.216319 
Q 593.607596 122.786532 593.607596 127.309358 
Q 593.607596 131.813468 596.507308 134.389919 
Q 599.414899 136.960132 604.489395 136.960132 
Q 607.318189 136.960132 609.879076 136.298864 
Q 612.439963 135.631357 615.079646 134.209006 
z
" style="fill:#0000ff;"/>
   </g>
   <g id="patch_40">
    <path clip-path="url(#p87151d195a)" d="M 583.80531 82 
L 615.079646 82 
L 615.079646 87.889841 
L 603.828158 87.889841 
L 603.828158 112.2 
L 595.078617 112.2 
L 595.078617 87.889841 
L 583.80531 87.889841 
z
" style="fill:#ff0000;"/>
   </g>
   <g id="patch_41">
    <path clip-path="url(#p87151d195a)" d="M 605.46907 70.997 
L 593.441463 70.997 
L 591.542367 82 
L 583.80531 82 
L 594.854595 21.6 
L 604.030361 21.6 
L 615.079646 82 
L 607.348983 82 
z
M 595.359741 59.786884 
L 603.531609 59.786884 
L 599.452069 35.761509 
z
" style="fill:#008000;"/>
   </g>
   <g id="patch_42">
    <path clip-path="url(#p87151d195a)" d="M 638.389424 154.74925 
L 626.361817 154.74925 
L 624.462721 157.5 
L 616.725664 157.5 
L 627.774949 142.4 
L 636.950715 142.4 
L 648 157.5 
L 640.269337 157.5 
z
M 628.280095 151.946721 
L 636.451963 151.946721 
L 632.372423 145.940377 
z
" style="fill:#008000;"/>
   </g>
   <g id="patch_43">
    <path clip-path="url(#p87151d195a)" d="M 616.725664 127.3 
L 648 127.3 
L 648 130.244921 
L 636.748512 130.244921 
L 636.748512 142.4 
L 627.998971 142.4 
L 627.998971 130.244921 
L 616.725664 130.244921 
z
" style="fill:#ff0000;"/>
   </g>
   <g id="patch_44">
    <path clip-path="url(#p87151d195a)" d="M 648 117.736563 
Q 644.845932 122.518281 641.453557 124.920058 
Q 638.061181 127.3 634.444517 127.3 
Q 626.271976 127.3 621.49882 113.064016 
Q 616.725664 98.828031 616.725664 74.482751 
Q 616.725664 49.853625 621.582928 35.726813 
Q 626.447202 21.6 634.907113 21.6 
Q 638.166317 21.6 641.152168 23.521421 
Q 644.145028 25.421008 646.794445 29.176513 
L 646.794445 50.246643 
Q 644.06092 45.421256 641.35543 43.041314 
Q 638.649941 40.639537 635.930433 40.639537 
Q 630.897943 40.639537 628.171426 49.416939 
Q 625.444909 58.172506 625.444909 74.482751 
Q 625.444909 90.640157 628.073299 99.461227 
Q 630.701689 108.260463 635.537927 108.260463 
Q 636.855626 108.260463 637.984082 107.758273 
Q 639.112537 107.234249 640.009694 106.142533 
L 640.009694 86.360628 
L 634.85805 86.360628 
L 634.85805 68.740322 
L 648 68.740322 
z
" style="fill:#ffa600;"/>
   </g>
  </g>
 </g>
 <defs>
  <clipPath id="p87151d195a">
   <rect height="135.9" width="558" x="90" y="21.6"/>
  </clipPath>
 </defs>
</svg>
