<?xml version="1.0" encoding="utf-8" standalone="no"?>
<!DOCTYPE svg PUBLIC "-//W3C//DTD SVG 1.1//EN"
  "http://www.w3.org/Graphics/SVG/1.1/DTD/svg11.dtd">
<!-- Created with matplotlib (https://matplotlib.org/) -->
<svg height="180pt" version="1.1" viewBox="0 0 720 180" width="720pt" xmlns="http://www.w3.org/2000/svg" xmlns:xlink="http://www.w3.org/1999/xlink">
 <metadata>
  <rdf:RDF xmlns:cc="http://creativecommons.org/ns#" xmlns:dc="http://purl.org/dc/elements/1.1/" xmlns:rdf="http://www.w3.org/1999/02/22-rdf-syntax-ns#">
   <cc:Work>
    <dc:type rdf:resource="http://purl.org/dc/dcmitype/StillImage"/>
    <dc:date>2021-08-04T23:33:26.229296</dc:date>
    <dc:format>image/svg+xml</dc:format>
    <dc:creator>
     <cc:Agent>
      <dc:title>Matplotlib v3.3.2, https://matplotlib.org/</dc:title>
     </cc:Agent>
    </dc:creator>
   </cc:Work>
  </rdf:RDF>
 </metadata>
 <defs>
  <style type="text/css">*{stroke-linecap:butt;stroke-linejoin:round;}</style>
 </defs>
 <g id="figure_1">
  <g id="patch_1">
   <path d="M 0 180 
L 720 180 
L 720 0 
L 0 0 
z
" style="fill:none;"/>
  </g>
  <g id="axes_1">
   <g id="line2d_1">
    <path clip-path="url(#paef9789397)" d="M 90 157.5 
L 648 157.5 
" style="fill:none;stroke:#000000;stroke-linecap:square;stroke-width:0.5;"/>
   </g>
   <g id="patch_2">
    <path clip-path="url(#paef9789397)" d="M 90 127.3 
L 121.274336 127.3 
L 121.274336 133.189841 
L 110.022848 133.189841 
L 110.022848 157.5 
L 101.273307 157.5 
L 101.273307 133.189841 
L 90 133.189841 
z
" style="fill:#ff0000;"/>
   </g>
   <g id="patch_3">
    <path clip-path="url(#paef9789397)" d="M 111.66376 116.297 
L 99.636153 116.297 
L 97.737057 127.3 
L 90 127.3 
L 101.049285 66.9 
L 110.225051 66.9 
L 121.274336 127.3 
L 113.543673 127.3 
z
M 101.554432 105.086884 
L 109.726299 105.086884 
L 105.64676 81.061509 
z
" style="fill:#008000;"/>
   </g>
   <g id="patch_4">
    <path clip-path="url(#paef9789397)" d="M 144.584114 154.74925 
L 132.556507 154.74925 
L 130.657411 157.5 
L 122.920354 157.5 
L 133.969639 142.4 
L 143.145405 142.4 
L 154.19469 157.5 
L 146.464027 157.5 
z
M 134.474786 151.946721 
L 142.646653 151.946721 
L 138.567114 145.940377 
z
" style="fill:#008000;"/>
   </g>
   <g id="patch_5">
    <path clip-path="url(#paef9789397)" d="M 154.19469 141.317641 
Q 151.578646 141.854142 148.749851 142.125511 
Q 145.921056 142.4 142.840113 142.4 
Q 133.652439 142.4 128.286397 140.366288 
Q 122.920354 138.332576 122.920354 134.854679 
Q 122.920354 131.364305 128.286397 129.333712 
Q 133.652439 127.3 142.840113 127.3 
Q 145.921056 127.3 148.749851 127.574489 
Q 151.578646 127.845858 154.19469 128.382359 
L 154.19469 131.392378 
Q 151.555007 130.681202 148.99412 130.350568 
Q 146.433234 130.019934 143.604439 130.019934 
Q 138.529943 130.019934 135.622352 131.308159 
Q 132.72264 132.593266 132.72264 134.854679 
Q 132.72264 137.106734 135.622352 138.39496 
Q 138.529943 139.680066 143.604439 139.680066 
Q 146.433234 139.680066 148.99412 139.349432 
Q 151.555007 139.015679 154.19469 138.304503 
z
" style="fill:#0000ff;"/>
   </g>
   <g id="patch_6">
    <path clip-path="url(#paef9789397)" d="M 154.19469 125.933795 
Q 151.040622 126.616897 147.648247 126.960008 
Q 144.255872 127.3 140.639207 127.3 
Q 132.466666 127.3 127.69351 125.266288 
Q 122.920354 123.232576 122.920354 119.754679 
Q 122.920354 116.236232 127.777619 114.218116 
Q 132.641892 112.2 141.101804 112.2 
Q 144.361007 112.2 147.346858 112.474489 
Q 150.339718 112.745858 152.989135 113.282359 
L 152.989135 116.292378 
Q 150.25561 115.603037 147.55012 115.263045 
Q 144.844631 114.919934 142.125123 114.919934 
Q 137.092633 114.919934 134.366116 116.173848 
Q 131.6396 117.424644 131.6396 119.754679 
Q 131.6396 122.06288 134.26799 123.323032 
Q 136.89638 124.580066 141.732617 124.580066 
Q 143.050317 124.580066 144.178772 124.508325 
Q 145.307228 124.433464 146.204385 124.277505 
L 146.204385 121.451518 
L 141.05274 121.451518 
L 141.05274 118.934332 
L 154.19469 118.934332 
z
" style="fill:#ffa600;"/>
   </g>
   <g id="patch_7">
    <path clip-path="url(#paef9789397)" d="M 122.920354 66.9 
L 154.19469 66.9 
L 154.19469 75.734762 
L 142.943202 75.734762 
L 142.943202 112.2 
L 134.193661 112.2 
L 134.193661 75.734762 
L 122.920354 75.734762 
z
" style="fill:#ff0000;"/>
   </g>
   <g id="patch_8">
    <path clip-path="url(#paef9789397)" d="M 187.115044 156.133795 
Q 183.960976 156.816897 180.568601 157.160008 
Q 177.176226 157.5 173.559561 157.5 
Q 165.38702 157.5 160.613864 155.466288 
Q 155.840708 153.432576 155.840708 149.954679 
Q 155.840708 146.436232 160.697973 144.418116 
Q 165.562246 142.4 174.022158 142.4 
Q 177.281361 142.4 180.267212 142.674489 
Q 183.260072 142.945858 185.909489 143.482359 
L 185.909489 146.492378 
Q 183.175964 145.803037 180.470474 145.463045 
Q 177.764985 145.119934 175.045477 145.119934 
Q 170.012987 145.119934 167.28647 146.373848 
Q 164.559954 147.624644 164.559954 149.954679 
Q 164.559954 152.26288 167.188344 153.523032 
Q 169.816734 154.780066 174.652971 154.780066 
Q 175.970671 154.780066 177.099126 154.708325 
Q 178.227582 154.633464 179.124739 154.477505 
L 179.124739 151.651518 
L 173.973094 151.651518 
L 173.973094 149.134332 
L 187.115044 149.134332 
z
" style="fill:#ffa600;"/>
   </g>
   <g id="patch_9">
    <path clip-path="url(#paef9789397)" d="M 187.115044 136.988205 
Q 184.499 139.670709 181.670205 141.027556 
Q 178.84141 142.4 175.760467 142.4 
Q 166.572793 142.4 161.206751 132.23144 
Q 155.840708 122.06288 155.840708 104.673394 
Q 155.840708 87.221524 161.206751 77.06856 
Q 166.572793 66.9 175.760467 66.9 
Q 178.84141 66.9 181.670205 68.272444 
Q 184.499 69.629291 187.115044 72.311795 
L 187.115044 87.361888 
Q 184.475361 83.806011 181.914474 82.15284 
Q 179.353588 80.499669 176.524793 80.499669 
Q 171.450297 80.499669 168.542706 86.940797 
Q 165.642994 93.366329 165.642994 104.673394 
Q 165.642994 115.933671 168.542706 122.374799 
Q 171.450297 128.800331 176.524793 128.800331 
Q 179.353588 128.800331 181.914474 127.14716 
Q 184.475361 125.478393 187.115044 121.922516 
z
" style="fill:#0000ff;"/>
   </g>
   <g id="patch_10">
    <path clip-path="url(#paef9789397)" d="M 220.035398 156.133795 
Q 216.88133 156.816897 213.488955 157.160008 
Q 210.09658 157.5 206.479915 157.5 
Q 198.307374 157.5 193.534218 155.466288 
Q 188.761062 153.432576 188.761062 149.954679 
Q 188.761062 146.436232 193.618327 144.418116 
Q 198.4826 142.4 206.942512 142.4 
Q 210.201715 142.4 213.187566 142.674489 
Q 216.180426 142.945858 218.829843 143.482359 
L 218.829843 146.492378 
Q 216.096318 145.803037 213.390828 145.463045 
Q 210.685339 145.119934 207.965831 145.119934 
Q 202.933341 145.119934 200.206824 146.373848 
Q 197.480308 147.624644 197.480308 149.954679 
Q 197.480308 152.26288 200.108698 153.523032 
Q 202.737088 154.780066 207.573325 154.780066 
Q 208.891025 154.780066 210.01948 154.708325 
Q 211.147936 154.633464 212.045093 154.477505 
L 212.045093 151.651518 
L 206.893448 151.651518 
L 206.893448 149.134332 
L 220.035398 149.134332 
z
" style="fill:#ffa600;"/>
   </g>
   <g id="patch_11">
    <path clip-path="url(#paef9789397)" d="M 220.035398 140.235282 
Q 217.419354 141.308283 214.590559 141.851023 
Q 211.761764 142.4 208.680821 142.4 
Q 199.493147 142.4 194.127105 138.332576 
Q 188.761062 134.265152 188.761062 127.309358 
Q 188.761062 120.32861 194.127105 116.267424 
Q 199.493147 112.2 208.680821 112.2 
Q 211.761764 112.2 214.590559 112.748977 
Q 217.419354 113.291717 220.035398 114.364718 
L 220.035398 120.384755 
Q 217.395715 118.962404 214.834828 118.301136 
Q 212.273942 117.639868 209.445147 117.639868 
Q 204.370651 117.639868 201.46306 120.216319 
Q 198.563348 122.786532 198.563348 127.309358 
Q 198.563348 131.813468 201.46306 134.389919 
Q 204.370651 136.960132 209.445147 136.960132 
Q 212.273942 136.960132 214.834828 136.298864 
Q 217.395715 135.631357 220.035398 134.209006 
z
" style="fill:#0000ff;"/>
   </g>
   <g id="patch_12">
    <path clip-path="url(#paef9789397)" d="M 210.424822 103.94775 
L 198.397215 103.94775 
L 196.498119 112.2 
L 188.761062 112.2 
L 199.810347 66.9 
L 208.986113 66.9 
L 220.035398 112.2 
L 212.304735 112.2 
z
M 200.315494 95.540163 
L 208.487361 95.540163 
L 204.407821 77.521132 
z
" style="fill:#008000;"/>
   </g>
   <g id="patch_13">
    <path clip-path="url(#paef9789397)" d="M 221.681416 142.4 
L 252.955752 142.4 
L 252.955752 145.344921 
L 241.704264 145.344921 
L 241.704264 157.5 
L 232.954723 157.5 
L 232.954723 145.344921 
L 221.681416 145.344921 
z
" style="fill:#ff0000;"/>
   </g>
   <g id="patch_14">
    <path clip-path="url(#paef9789397)" d="M 243.345176 128.646249 
L 231.317569 128.646249 
L 229.418473 142.4 
L 221.681416 142.4 
L 232.730701 66.9 
L 241.906467 66.9 
L 252.955752 142.4 
L 245.225089 142.4 
z
M 233.235848 114.633605 
L 241.407715 114.633605 
L 237.328175 84.601886 
z
" style="fill:#008000;"/>
   </g>
   <g id="patch_15">
    <path clip-path="url(#paef9789397)" d="M 285.876106 156.417641 
Q 283.260062 156.954142 280.431267 157.225511 
Q 277.602472 157.5 274.521529 157.5 
Q 265.333855 157.5 259.967812 155.466288 
Q 254.60177 153.432576 254.60177 149.954679 
Q 254.60177 146.464305 259.967812 144.433712 
Q 265.333855 142.4 274.521529 142.4 
Q 277.602472 142.4 280.431267 142.674489 
Q 283.260062 142.945858 285.876106 143.482359 
L 285.876106 146.492378 
Q 283.236423 145.781202 280.675536 145.450568 
Q 278.11465 145.119934 275.285855 145.119934 
Q 270.211359 145.119934 267.303768 146.408159 
Q 264.404056 147.693266 264.404056 149.954679 
Q 264.404056 152.206734 267.303768 153.49496 
Q 270.211359 154.780066 275.285855 154.780066 
Q 278.11465 154.780066 280.675536 154.449432 
Q 283.236423 154.115679 285.876106 153.404503 
z
" style="fill:#0000ff;"/>
   </g>
   <g id="patch_16">
    <path clip-path="url(#paef9789397)" d="M 254.60177 112.2 
L 285.876106 112.2 
L 285.876106 118.089841 
L 274.624618 118.089841 
L 274.624618 142.4 
L 265.875077 142.4 
L 265.875077 118.089841 
L 254.60177 118.089841 
z
" style="fill:#ff0000;"/>
   </g>
   <g id="patch_17">
    <path clip-path="url(#paef9789397)" d="M 285.876106 108.101384 
Q 282.722038 110.150692 279.329663 111.180025 
Q 275.937288 112.2 272.320623 112.2 
Q 264.148082 112.2 259.374926 106.098864 
Q 254.60177 99.997728 254.60177 89.564036 
Q 254.60177 79.008697 259.459035 72.954348 
Q 264.323308 66.9 272.78322 66.9 
Q 276.042423 66.9 279.028274 67.723466 
Q 282.021134 68.537575 284.670551 70.147077 
L 284.670551 79.177133 
Q 281.937026 77.10911 279.231536 76.089134 
Q 276.526047 75.059802 273.806539 75.059802 
Q 268.774049 75.059802 266.047532 78.821545 
Q 263.321016 82.573931 263.321016 89.564036 
Q 263.321016 96.488639 265.949406 100.269097 
Q 268.577796 104.040198 273.414033 104.040198 
Q 274.731733 104.040198 275.860188 103.824974 
Q 276.988644 103.600392 277.885801 103.132514 
L 277.885801 94.654555 
L 272.734156 94.654555 
L 272.734156 87.102995 
L 285.876106 87.102995 
z
" style="fill:#ffa600;"/>
   </g>
   <g id="patch_18">
    <path clip-path="url(#paef9789397)" d="M 318.79646 156.417641 
Q 316.180416 156.954142 313.351621 157.225511 
Q 310.522826 157.5 307.441883 157.5 
Q 298.254209 157.5 292.888166 155.466288 
Q 287.522124 153.432576 287.522124 149.954679 
Q 287.522124 146.464305 292.888166 144.433712 
Q 298.254209 142.4 307.441883 142.4 
Q 310.522826 142.4 313.351621 142.674489 
Q 316.180416 142.945858 318.79646 143.482359 
L 318.79646 146.492378 
Q 316.156777 145.781202 313.59589 145.450568 
Q 311.035004 145.119934 308.206209 145.119934 
Q 303.131713 145.119934 300.224122 146.408159 
Q 297.32441 147.693266 297.32441 149.954679 
Q 297.32441 152.206734 300.224122 153.49496 
Q 303.131713 154.780066 308.206209 154.780066 
Q 311.035004 154.780066 313.59589 154.449432 
Q 316.156777 154.115679 318.79646 153.404503 
z
" style="fill:#0000ff;"/>
   </g>
   <g id="patch_19">
    <path clip-path="url(#paef9789397)" d="M 287.522124 66.9 
L 318.79646 66.9 
L 318.79646 81.624604 
L 307.544972 81.624604 
L 307.544972 142.4 
L 298.795431 142.4 
L 298.795431 81.624604 
L 287.522124 81.624604 
z
" style="fill:#ff0000;"/>
   </g>
   <g id="patch_20">
    <path clip-path="url(#paef9789397)" d="M 342.106238 154.74925 
L 330.078631 154.74925 
L 328.179535 157.5 
L 320.442478 157.5 
L 331.491763 142.4 
L 340.667529 142.4 
L 351.716814 157.5 
L 343.986151 157.5 
z
M 331.99691 151.946721 
L 340.168777 151.946721 
L 336.089237 145.940377 
z
" style="fill:#008000;"/>
   </g>
   <g id="patch_21">
    <path clip-path="url(#paef9789397)" d="M 351.716814 140.235282 
Q 349.10077 141.308283 346.271975 141.851023 
Q 343.44318 142.4 340.362237 142.4 
Q 331.174563 142.4 325.80852 138.332576 
Q 320.442478 134.265152 320.442478 127.309358 
Q 320.442478 120.32861 325.80852 116.267424 
Q 331.174563 112.2 340.362237 112.2 
Q 343.44318 112.2 346.271975 112.748977 
Q 349.10077 113.291717 351.716814 114.364718 
L 351.716814 120.384755 
Q 349.077131 118.962404 346.516244 118.301136 
Q 343.955358 117.639868 341.126563 117.639868 
Q 336.052067 117.639868 333.144476 120.216319 
Q 330.244764 122.786532 330.244764 127.309358 
Q 330.244764 131.813468 333.144476 134.389919 
Q 336.052067 136.960132 341.126563 136.960132 
Q 343.955358 136.960132 346.516244 136.298864 
Q 349.077131 135.631357 351.716814 134.209006 
z
" style="fill:#0000ff;"/>
   </g>
   <g id="patch_22">
    <path clip-path="url(#paef9789397)" d="M 351.716814 109.467589 
Q 348.562746 110.833795 345.170371 111.520017 
Q 341.777996 112.2 338.161331 112.2 
Q 329.98879 112.2 325.215634 108.132576 
Q 320.442478 104.065152 320.442478 97.109358 
Q 320.442478 90.072464 325.299743 86.036232 
Q 330.164016 82 338.623928 82 
Q 341.883131 82 344.868982 82.548977 
Q 347.861842 83.091717 350.511259 84.164718 
L 350.511259 90.184755 
Q 347.777734 88.806073 345.072244 88.12609 
Q 342.366755 87.439868 339.647247 87.439868 
Q 334.614757 87.439868 331.88824 89.947697 
Q 329.161724 92.449287 329.161724 97.109358 
Q 329.161724 101.725759 331.790114 104.246065 
Q 334.418504 106.760132 339.254741 106.760132 
Q 340.572441 106.760132 341.700896 106.616649 
Q 342.829351 106.466928 343.726509 106.155009 
L 343.726509 100.503037 
L 338.574864 100.503037 
L 338.574864 95.468663 
L 351.716814 95.468663 
z
" style="fill:#ffa600;"/>
   </g>
   <g id="patch_23">
    <path clip-path="url(#paef9789397)" d="M 320.442478 21.6 
L 351.716814 21.6 
L 351.716814 33.379683 
L 340.465326 33.379683 
L 340.465326 82 
L 331.715785 82 
L 331.715785 33.379683 
L 320.442478 33.379683 
z
" style="fill:#ff0000;"/>
   </g>
   <g id="patch_24">
    <path clip-path="url(#paef9789397)" d="M 375.026592 151.9985 
L 362.998985 151.9985 
L 361.099889 157.5 
L 353.362832 157.5 
L 364.412117 127.3 
L 373.587883 127.3 
L 384.637168 157.5 
L 376.906505 157.5 
z
M 364.917264 146.393442 
L 373.089131 146.393442 
L 369.009591 134.380754 
z
" style="fill:#008000;"/>
   </g>
   <g id="patch_25">
    <path clip-path="url(#paef9789397)" d="M 384.637168 125.135282 
Q 382.021124 126.208283 379.192329 126.751023 
Q 376.363534 127.3 373.282591 127.3 
Q 364.094917 127.3 358.728874 123.232576 
Q 353.362832 119.165152 353.362832 112.209358 
Q 353.362832 105.22861 358.728874 101.167424 
Q 364.094917 97.1 373.282591 97.1 
Q 376.363534 97.1 379.192329 97.648977 
Q 382.021124 98.191717 384.637168 99.264718 
L 384.637168 105.284755 
Q 381.997485 103.862404 379.436598 103.201136 
Q 376.875712 102.539868 374.046917 102.539868 
Q 368.972421 102.539868 366.06483 105.116319 
Q 363.165118 107.686532 363.165118 112.209358 
Q 363.165118 116.713468 366.06483 119.289919 
Q 368.972421 121.860132 374.046917 121.860132 
Q 376.875712 121.860132 379.436598 121.198864 
Q 381.997485 120.531357 384.637168 119.109006 
z
" style="fill:#0000ff;"/>
   </g>
   <g id="patch_26">
    <path clip-path="url(#paef9789397)" d="M 353.362832 21.6 
L 384.637168 21.6 
L 384.637168 36.324604 
L 373.38568 36.324604 
L 373.38568 97.1 
L 364.636139 97.1 
L 364.636139 36.324604 
L 353.362832 36.324604 
z
" style="fill:#ff0000;"/>
   </g>
   <g id="patch_27">
    <path clip-path="url(#paef9789397)" d="M 386.283186 112.2 
L 417.557522 112.2 
L 417.557522 121.034762 
L 406.306034 121.034762 
L 406.306034 157.5 
L 397.556493 157.5 
L 397.556493 121.034762 
L 386.283186 121.034762 
z
" style="fill:#ff0000;"/>
   </g>
   <g id="patch_28">
    <path clip-path="url(#paef9789397)" d="M 417.557522 105.705846 
Q 414.941478 108.92485 412.112683 110.553068 
Q 409.283888 112.2 406.202945 112.2 
Q 397.015271 112.2 391.649228 99.997728 
Q 386.283186 87.795455 386.283186 66.928073 
Q 386.283186 45.985829 391.649228 33.802272 
Q 397.015271 21.6 406.202945 21.6 
Q 409.283888 21.6 412.112683 23.246932 
Q 414.941478 24.87515 417.557522 28.094154 
L 417.557522 46.154266 
Q 414.917839 41.887213 412.356952 39.903408 
Q 409.796066 37.919603 406.967271 37.919603 
Q 401.892775 37.919603 398.985184 45.648957 
Q 396.085472 53.359595 396.085472 66.928073 
Q 396.085472 80.440405 398.985184 88.169758 
Q 401.892775 95.880397 406.967271 95.880397 
Q 409.796066 95.880397 412.356952 93.896592 
Q 414.917839 91.894071 417.557522 87.627019 
z
" style="fill:#0000ff;"/>
   </g>
   <g id="patch_29">
    <path clip-path="url(#paef9789397)" d="M 450.477876 153.401384 
Q 447.323808 155.450692 443.931433 156.480025 
Q 440.539057 157.5 436.922393 157.5 
Q 428.749852 157.5 423.976696 151.398864 
Q 419.20354 145.297728 419.20354 134.864036 
Q 419.20354 124.308697 424.060805 118.254348 
Q 428.925078 112.2 437.384989 112.2 
Q 440.644193 112.2 443.630044 113.023466 
Q 446.622904 113.837575 449.272321 115.447077 
L 449.272321 124.477133 
Q 446.538796 122.40911 443.833306 121.389134 
Q 441.127817 120.359802 438.408309 120.359802 
Q 433.375819 120.359802 430.649302 124.121545 
Q 427.922786 127.873931 427.922786 134.864036 
Q 427.922786 141.788639 430.551176 145.569097 
Q 433.179565 149.340198 438.015803 149.340198 
Q 439.333503 149.340198 440.461958 149.124974 
Q 441.590413 148.900392 442.487571 148.432514 
L 442.487571 139.954555 
L 437.335926 139.954555 
L 437.335926 132.402995 
L 450.477876 132.402995 
z
" style="fill:#ffa600;"/>
   </g>
   <g id="patch_30">
    <path clip-path="url(#paef9789397)" d="M 419.20354 21.6 
L 450.477876 21.6 
L 450.477876 39.269524 
L 439.226388 39.269524 
L 439.226388 112.2 
L 430.476847 112.2 
L 430.476847 39.269524 
L 419.20354 39.269524 
z
" style="fill:#ff0000;"/>
   </g>
   <g id="patch_31">
    <path clip-path="url(#paef9789397)" d="M 483.39823 154.767589 
Q 480.244162 156.133795 476.851787 156.820017 
Q 473.459411 157.5 469.842747 157.5 
Q 461.670206 157.5 456.89705 153.432576 
Q 452.123894 149.365152 452.123894 142.409358 
Q 452.123894 135.372464 456.981158 131.336232 
Q 461.845432 127.3 470.305343 127.3 
Q 473.564547 127.3 476.550398 127.848977 
Q 479.543258 128.391717 482.192675 129.464718 
L 482.192675 135.484755 
Q 479.45915 134.106073 476.75366 133.42609 
Q 474.048171 132.739868 471.328663 132.739868 
Q 466.296173 132.739868 463.569656 135.247697 
Q 460.84314 137.749287 460.84314 142.409358 
Q 460.84314 147.025759 463.471529 149.546065 
Q 466.099919 152.060132 470.936157 152.060132 
Q 472.253857 152.060132 473.382312 151.916649 
Q 474.510767 151.766928 475.407925 151.455009 
L 475.407925 145.803037 
L 470.25628 145.803037 
L 470.25628 140.768663 
L 483.39823 140.768663 
z
" style="fill:#ffa600;"/>
   </g>
   <g id="patch_32">
    <path clip-path="url(#paef9789397)" d="M 452.123894 21.6 
L 483.39823 21.6 
L 483.39823 42.214445 
L 472.146742 42.214445 
L 472.146742 127.3 
L 463.397201 127.3 
L 463.397201 42.214445 
L 452.123894 42.214445 
z
" style="fill:#ff0000;"/>
   </g>
   <g id="patch_33">
    <path clip-path="url(#paef9789397)" d="M 516.318584 155.335282 
Q 513.70254 156.408283 510.873745 156.951023 
Q 508.04495 157.5 504.964006 157.5 
Q 495.776333 157.5 490.41029 153.432576 
Q 485.044248 149.365152 485.044248 142.409358 
Q 485.044248 135.42861 490.41029 131.367424 
Q 495.776333 127.3 504.964006 127.3 
Q 508.04495 127.3 510.873745 127.848977 
Q 513.70254 128.391717 516.318584 129.464718 
L 516.318584 135.484755 
Q 513.678901 134.062404 511.118014 133.401136 
Q 508.557127 132.739868 505.728333 132.739868 
Q 500.653837 132.739868 497.746246 135.316319 
Q 494.846534 137.886532 494.846534 142.409358 
Q 494.846534 146.913468 497.746246 149.489919 
Q 500.653837 152.060132 505.728333 152.060132 
Q 508.557127 152.060132 511.118014 151.398864 
Q 513.678901 150.731357 516.318584 149.309006 
z
" style="fill:#0000ff;"/>
   </g>
   <g id="patch_34">
    <path clip-path="url(#paef9789397)" d="M 485.044248 82 
L 516.318584 82 
L 516.318584 90.834762 
L 505.067096 90.834762 
L 505.067096 127.3 
L 496.317555 127.3 
L 496.317555 90.834762 
L 485.044248 90.834762 
z
" style="fill:#ff0000;"/>
   </g>
   <g id="patch_35">
    <path clip-path="url(#paef9789397)" d="M 506.708008 70.997 
L 494.680401 70.997 
L 492.781305 82 
L 485.044248 82 
L 496.093533 21.6 
L 505.269299 21.6 
L 516.318584 82 
L 508.587921 82 
z
M 496.59868 59.786884 
L 504.770547 59.786884 
L 500.691007 35.761509 
z
" style="fill:#008000;"/>
   </g>
   <g id="patch_36">
    <path clip-path="url(#paef9789397)" d="M 517.964602 21.6 
L 549.238938 21.6 
L 549.238938 48.104286 
L 537.98745 48.104286 
L 537.98745 157.5 
L 529.237909 157.5 
L 529.237909 48.104286 
L 517.964602 48.104286 
z
" style="fill:#ff0000;"/>
   </g>
   <g id="patch_37">
    <path clip-path="url(#paef9789397)" d="M 582.159292 153.401384 
Q 579.005224 155.450692 575.612849 156.480025 
Q 572.220473 157.5 568.603809 157.5 
Q 560.431268 157.5 555.658112 151.398864 
Q 550.884956 145.297728 550.884956 134.864036 
Q 550.884956 124.308697 555.74222 118.254348 
Q 560.606494 112.2 569.066405 112.2 
Q 572.325609 112.2 575.31146 113.023466 
Q 578.30432 113.837575 580.953737 115.447077 
L 580.953737 124.477133 
Q 578.220212 122.40911 575.514722 121.389134 
Q 572.809233 120.359802 570.089725 120.359802 
Q 565.057235 120.359802 562.330718 124.121545 
Q 559.604201 127.873931 559.604201 134.864036 
Q 559.604201 141.788639 562.232591 145.569097 
Q 564.860981 149.340198 569.697219 149.340198 
Q 571.014919 149.340198 572.143374 149.124974 
Q 573.271829 148.900392 574.168986 148.432514 
L 574.168986 139.954555 
L 569.017342 139.954555 
L 569.017342 132.402995 
L 582.159292 132.402995 
z
" style="fill:#ffa600;"/>
   </g>
   <g id="patch_38">
    <path clip-path="url(#paef9789397)" d="M 572.548716 95.695499 
L 560.521109 95.695499 
L 558.622013 112.2 
L 550.884956 112.2 
L 561.934241 21.6 
L 571.110007 21.6 
L 582.159292 112.2 
L 574.428629 112.2 
z
M 562.439387 78.880326 
L 570.611255 78.880326 
L 566.531715 42.842263 
z
" style="fill:#008000;"/>
   </g>
   <g id="patch_39">
    <path clip-path="url(#paef9789397)" d="M 583.80531 142.4 
L 615.079646 142.4 
L 615.079646 145.344921 
L 603.828158 145.344921 
L 603.828158 157.5 
L 595.078617 157.5 
L 595.078617 145.344921 
L 583.80531 145.344921 
z
" style="fill:#ff0000;"/>
   </g>
   <g id="patch_40">
    <path clip-path="url(#paef9789397)" d="M 605.46907 120.393999 
L 593.441463 120.393999 
L 591.542367 142.4 
L 583.80531 142.4 
L 594.854595 21.6 
L 604.030361 21.6 
L 615.079646 142.4 
L 607.348983 142.4 
z
M 595.359741 97.973768 
L 603.531609 97.973768 
L 599.452069 49.923018 
z
" style="fill:#008000;"/>
   </g>
   <g id="patch_41">
    <path clip-path="url(#paef9789397)" d="M 638.389424 146.497 
L 626.361817 146.497 
L 624.462721 157.5 
L 616.725664 157.5 
L 627.774949 97.1 
L 636.950715 97.1 
L 648 157.5 
L 640.269337 157.5 
z
M 628.280095 135.286884 
L 636.451963 135.286884 
L 632.372423 111.261509 
z
" style="fill:#008000;"/>
   </g>
   <g id="patch_42">
    <path clip-path="url(#paef9789397)" d="M 648 90.268973 
Q 644.845932 93.684487 641.453557 95.400041 
Q 638.061181 97.1 634.444517 97.1 
Q 626.271976 97.1 621.49882 86.93144 
Q 616.725664 76.76288 616.725664 59.373394 
Q 616.725664 41.781161 621.582928 31.69058 
Q 626.447202 21.6 634.907113 21.6 
Q 638.166317 21.6 641.152168 22.972444 
Q 644.145028 24.329291 646.794445 27.011795 
L 646.794445 42.061888 
Q 644.06092 38.615183 641.35543 36.915224 
Q 638.649941 35.199669 635.930433 35.199669 
Q 630.897943 35.199669 628.171426 41.469242 
Q 625.444909 47.723218 625.444909 59.373394 
Q 625.444909 70.914398 628.073299 77.215162 
Q 630.701689 83.500331 635.537927 83.500331 
Q 636.855626 83.500331 637.984082 83.141624 
Q 639.112537 82.767321 640.009694 81.987523 
L 640.009694 67.857591 
L 634.85805 67.857591 
L 634.85805 55.271659 
L 648 55.271659 
z
" style="fill:#ffa600;"/>
   </g>
  </g>
 </g>
 <defs>
  <clipPath id="paef9789397">
   <rect height="135.9" width="558" x="90" y="21.6"/>
  </clipPath>
 </defs>
</svg>
