<?xml version="1.0" encoding="utf-8" standalone="no"?>
<!DOCTYPE svg PUBLIC "-//W3C//DTD SVG 1.1//EN"
  "http://www.w3.org/Graphics/SVG/1.1/DTD/svg11.dtd">
<!-- Created with matplotlib (https://matplotlib.org/) -->
<svg height="180pt" version="1.1" viewBox="0 0 720 180" width="720pt" xmlns="http://www.w3.org/2000/svg" xmlns:xlink="http://www.w3.org/1999/xlink">
 <metadata>
  <rdf:RDF xmlns:cc="http://creativecommons.org/ns#" xmlns:dc="http://purl.org/dc/elements/1.1/" xmlns:rdf="http://www.w3.org/1999/02/22-rdf-syntax-ns#">
   <cc:Work>
    <dc:type rdf:resource="http://purl.org/dc/dcmitype/StillImage"/>
    <dc:date>2021-08-04T23:33:35.816329</dc:date>
    <dc:format>image/svg+xml</dc:format>
    <dc:creator>
     <cc:Agent>
      <dc:title>Matplotlib v3.3.2, https://matplotlib.org/</dc:title>
     </cc:Agent>
    </dc:creator>
   </cc:Work>
  </rdf:RDF>
 </metadata>
 <defs>
  <style type="text/css">*{stroke-linecap:butt;stroke-linejoin:round;}</style>
 </defs>
 <g id="figure_1">
  <g id="patch_1">
   <path d="M 0 180 
L 720 180 
L 720 0 
L 0 0 
z
" style="fill:none;"/>
  </g>
  <g id="axes_1">
   <g id="line2d_1">
    <path clip-path="url(#p4f0a50a7e6)" d="M 90 157.5 
L 648 157.5 
" style="fill:none;stroke:#000000;stroke-linecap:square;stroke-width:0.5;"/>
   </g>
   <g id="patch_2">
    <path clip-path="url(#p4f0a50a7e6)" d="M 111.66376 151.9985 
L 99.636153 151.9985 
L 97.737057 157.5 
L 90 157.5 
L 101.049285 127.3 
L 110.225051 127.3 
L 121.274336 157.5 
L 113.543673 157.5 
z
M 101.554432 146.393442 
L 109.726299 146.393442 
L 105.64676 134.380754 
z
" style="fill:#008000;"/>
   </g>
   <g id="patch_3">
    <path clip-path="url(#p4f0a50a7e6)" d="M 121.274336 125.135282 
Q 118.658292 126.208283 115.829497 126.751023 
Q 113.000702 127.3 109.919759 127.3 
Q 100.732085 127.3 95.366043 123.232576 
Q 90 119.165152 90 112.209358 
Q 90 105.22861 95.366043 101.167424 
Q 100.732085 97.1 109.919759 97.1 
Q 113.000702 97.1 115.829497 97.648977 
Q 118.658292 98.191717 121.274336 99.264718 
L 121.274336 105.284755 
Q 118.634653 103.862404 116.073766 103.201136 
Q 113.51288 102.539868 110.684085 102.539868 
Q 105.609589 102.539868 102.701998 105.116319 
Q 99.802286 107.686532 99.802286 112.209358 
Q 99.802286 116.713468 102.701998 119.289919 
Q 105.609589 121.860132 110.684085 121.860132 
Q 113.51288 121.860132 116.073766 121.198864 
Q 118.634653 120.531357 121.274336 119.109006 
z
" style="fill:#0000ff;"/>
   </g>
   <g id="patch_4">
    <path clip-path="url(#p4f0a50a7e6)" d="M 90 66.9 
L 121.274336 66.9 
L 121.274336 72.789841 
L 110.022848 72.789841 
L 110.022848 97.1 
L 101.273307 97.1 
L 101.273307 72.789841 
L 90 72.789841 
z
" style="fill:#ff0000;"/>
   </g>
   <g id="patch_5">
    <path clip-path="url(#p4f0a50a7e6)" d="M 121.274336 62.801384 
Q 118.120268 64.850692 114.727893 65.880025 
Q 111.335518 66.9 107.718853 66.9 
Q 99.546312 66.9 94.773156 60.798864 
Q 90 54.697728 90 44.264036 
Q 90 33.708697 94.857265 27.654348 
Q 99.721538 21.6 108.18145 21.6 
Q 111.440653 21.6 114.426504 22.423466 
Q 117.419364 23.237575 120.068781 24.847077 
L 120.068781 33.877133 
Q 117.335256 31.80911 114.629766 30.789134 
Q 111.924277 29.759802 109.204769 29.759802 
Q 104.172279 29.759802 101.445762 33.521545 
Q 98.719246 37.273931 98.719246 44.264036 
Q 98.719246 51.188639 101.347636 54.969097 
Q 103.976026 58.740198 108.812263 58.740198 
Q 110.129963 58.740198 111.258418 58.524974 
Q 112.386874 58.300392 113.284031 57.832514 
L 113.284031 49.354555 
L 108.132386 49.354555 
L 108.132386 41.802995 
L 121.274336 41.802995 
z
" style="fill:#ffa600;"/>
   </g>
   <g id="patch_6">
    <path clip-path="url(#p4f0a50a7e6)" d="M 144.584114 151.9985 
L 132.556507 151.9985 
L 130.657411 157.5 
L 122.920354 157.5 
L 133.969639 127.3 
L 143.145405 127.3 
L 154.19469 157.5 
L 146.464027 157.5 
z
M 134.474786 146.393442 
L 142.646653 146.393442 
L 138.567114 134.380754 
z
" style="fill:#008000;"/>
   </g>
   <g id="patch_7">
    <path clip-path="url(#p4f0a50a7e6)" d="M 154.19469 124.052923 
Q 151.578646 125.662425 148.749851 126.476534 
Q 145.921056 127.3 142.840113 127.3 
Q 133.652439 127.3 128.286397 121.198864 
Q 122.920354 115.097728 122.920354 104.664036 
Q 122.920354 94.192915 128.286397 88.101136 
Q 133.652439 82 142.840113 82 
Q 145.921056 82 148.749851 82.823466 
Q 151.578646 83.637575 154.19469 85.247077 
L 154.19469 94.277133 
Q 151.555007 92.143607 148.99412 91.151704 
Q 146.433234 90.159802 143.604439 90.159802 
Q 138.529943 90.159802 135.622352 94.024478 
Q 132.72264 97.879798 132.72264 104.664036 
Q 132.72264 111.420202 135.622352 115.284879 
Q 138.529943 119.140198 143.604439 119.140198 
Q 146.433234 119.140198 148.99412 118.148296 
Q 151.555007 117.147036 154.19469 115.01351 
z
" style="fill:#0000ff;"/>
   </g>
   <g id="patch_8">
    <path clip-path="url(#p4f0a50a7e6)" d="M 122.920354 21.6 
L 154.19469 21.6 
L 154.19469 33.379683 
L 142.943202 33.379683 
L 142.943202 82 
L 134.193661 82 
L 134.193661 33.379683 
L 122.920354 33.379683 
z
" style="fill:#ff0000;"/>
   </g>
   <g id="patch_9">
    <path clip-path="url(#p4f0a50a7e6)" d="M 177.504468 154.74925 
L 165.476861 154.74925 
L 163.577765 157.5 
L 155.840708 157.5 
L 166.889993 142.4 
L 176.065759 142.4 
L 187.115044 157.5 
L 179.384381 157.5 
z
M 167.39514 151.946721 
L 175.567007 151.946721 
L 171.487467 145.940377 
z
" style="fill:#008000;"/>
   </g>
   <g id="patch_10">
    <path clip-path="url(#p4f0a50a7e6)" d="M 187.115044 141.317641 
Q 184.499 141.854142 181.670205 142.125511 
Q 178.84141 142.4 175.760467 142.4 
Q 166.572793 142.4 161.206751 140.366288 
Q 155.840708 138.332576 155.840708 134.854679 
Q 155.840708 131.364305 161.206751 129.333712 
Q 166.572793 127.3 175.760467 127.3 
Q 178.84141 127.3 181.670205 127.574489 
Q 184.499 127.845858 187.115044 128.382359 
L 187.115044 131.392378 
Q 184.475361 130.681202 181.914474 130.350568 
Q 179.353588 130.019934 176.524793 130.019934 
Q 171.450297 130.019934 168.542706 131.308159 
Q 165.642994 132.593266 165.642994 134.854679 
Q 165.642994 137.106734 168.542706 138.39496 
Q 171.450297 139.680066 176.524793 139.680066 
Q 179.353588 139.680066 181.914474 139.349432 
Q 184.475361 139.015679 187.115044 138.304503 
z
" style="fill:#0000ff;"/>
   </g>
   <g id="patch_11">
    <path clip-path="url(#p4f0a50a7e6)" d="M 155.840708 97.1 
L 187.115044 97.1 
L 187.115044 102.989841 
L 175.863556 102.989841 
L 175.863556 127.3 
L 167.114015 127.3 
L 167.114015 102.989841 
L 155.840708 102.989841 
z
" style="fill:#ff0000;"/>
   </g>
   <g id="patch_12">
    <path clip-path="url(#p4f0a50a7e6)" d="M 187.115044 90.268973 
Q 183.960976 93.684487 180.568601 95.400041 
Q 177.176226 97.1 173.559561 97.1 
Q 165.38702 97.1 160.613864 86.93144 
Q 155.840708 76.76288 155.840708 59.373394 
Q 155.840708 41.781161 160.697973 31.69058 
Q 165.562246 21.6 174.022158 21.6 
Q 177.281361 21.6 180.267212 22.972444 
Q 183.260072 24.329291 185.909489 27.011795 
L 185.909489 42.061888 
Q 183.175964 38.615183 180.470474 36.915224 
Q 177.764985 35.199669 175.045477 35.199669 
Q 170.012987 35.199669 167.28647 41.469242 
Q 164.559954 47.723218 164.559954 59.373394 
Q 164.559954 70.914398 167.188344 77.215162 
Q 169.816734 83.500331 174.652971 83.500331 
Q 175.970671 83.500331 177.099126 83.141624 
Q 178.227582 82.767321 179.124739 81.987523 
L 179.124739 67.857591 
L 173.973094 67.857591 
L 173.973094 55.271659 
L 187.115044 55.271659 
z
" style="fill:#ffa600;"/>
   </g>
   <g id="patch_13">
    <path clip-path="url(#p4f0a50a7e6)" d="M 220.035398 154.252923 
Q 217.419354 155.862425 214.590559 156.676534 
Q 211.761764 157.5 208.680821 157.5 
Q 199.493147 157.5 194.127105 151.398864 
Q 188.761062 145.297728 188.761062 134.864036 
Q 188.761062 124.392915 194.127105 118.301136 
Q 199.493147 112.2 208.680821 112.2 
Q 211.761764 112.2 214.590559 113.023466 
Q 217.419354 113.837575 220.035398 115.447077 
L 220.035398 124.477133 
Q 217.395715 122.343607 214.834828 121.351704 
Q 212.273942 120.359802 209.445147 120.359802 
Q 204.370651 120.359802 201.46306 124.224478 
Q 198.563348 128.079798 198.563348 134.864036 
Q 198.563348 141.620202 201.46306 145.484879 
Q 204.370651 149.340198 209.445147 149.340198 
Q 212.273942 149.340198 214.834828 148.348296 
Q 217.395715 147.347036 220.035398 145.21351 
z
" style="fill:#0000ff;"/>
   </g>
   <g id="patch_14">
    <path clip-path="url(#p4f0a50a7e6)" d="M 220.035398 108.101384 
Q 216.88133 110.150692 213.488955 111.180025 
Q 210.09658 112.2 206.479915 112.2 
Q 198.307374 112.2 193.534218 106.098864 
Q 188.761062 99.997728 188.761062 89.564036 
Q 188.761062 79.008697 193.618327 72.954348 
Q 198.4826 66.9 206.942512 66.9 
Q 210.201715 66.9 213.187566 67.723466 
Q 216.180426 68.537575 218.829843 70.147077 
L 218.829843 79.177133 
Q 216.096318 77.10911 213.390828 76.089134 
Q 210.685339 75.059802 207.965831 75.059802 
Q 202.933341 75.059802 200.206824 78.821545 
Q 197.480308 82.573931 197.480308 89.564036 
Q 197.480308 96.488639 200.108698 100.269097 
Q 202.737088 104.040198 207.573325 104.040198 
Q 208.891025 104.040198 210.01948 103.824974 
Q 211.147936 103.600392 212.045093 103.132514 
L 212.045093 94.654555 
L 206.893448 94.654555 
L 206.893448 87.102995 
L 220.035398 87.102995 
z
" style="fill:#ffa600;"/>
   </g>
   <g id="patch_15">
    <path clip-path="url(#p4f0a50a7e6)" d="M 188.761062 21.6 
L 220.035398 21.6 
L 220.035398 30.434762 
L 208.78391 30.434762 
L 208.78391 66.9 
L 200.034369 66.9 
L 200.034369 30.434762 
L 188.761062 30.434762 
z
" style="fill:#ff0000;"/>
   </g>
   <g id="patch_16">
    <path clip-path="url(#p4f0a50a7e6)" d="M 243.345176 154.74925 
L 231.317569 154.74925 
L 229.418473 157.5 
L 221.681416 157.5 
L 232.730701 142.4 
L 241.906467 142.4 
L 252.955752 157.5 
L 245.225089 157.5 
z
M 233.235848 151.946721 
L 241.407715 151.946721 
L 237.328175 145.940377 
z
" style="fill:#008000;"/>
   </g>
   <g id="patch_17">
    <path clip-path="url(#p4f0a50a7e6)" d="M 252.955752 141.317641 
Q 250.339708 141.854142 247.510913 142.125511 
Q 244.682118 142.4 241.601175 142.4 
Q 232.413501 142.4 227.047459 140.366288 
Q 221.681416 138.332576 221.681416 134.854679 
Q 221.681416 131.364305 227.047459 129.333712 
Q 232.413501 127.3 241.601175 127.3 
Q 244.682118 127.3 247.510913 127.574489 
Q 250.339708 127.845858 252.955752 128.382359 
L 252.955752 131.392378 
Q 250.316069 130.681202 247.755182 130.350568 
Q 245.194296 130.019934 242.365501 130.019934 
Q 237.291005 130.019934 234.383414 131.308159 
Q 231.483702 132.593266 231.483702 134.854679 
Q 231.483702 137.106734 234.383414 138.39496 
Q 237.291005 139.680066 242.365501 139.680066 
Q 245.194296 139.680066 247.755182 139.349432 
Q 250.316069 139.015679 252.955752 138.304503 
z
" style="fill:#0000ff;"/>
   </g>
   <g id="patch_18">
    <path clip-path="url(#p4f0a50a7e6)" d="M 252.955752 124.567589 
Q 249.801684 125.933795 246.409309 126.620017 
Q 243.016934 127.3 239.400269 127.3 
Q 231.227728 127.3 226.454572 123.232576 
Q 221.681416 119.165152 221.681416 112.209358 
Q 221.681416 105.172464 226.538681 101.136232 
Q 231.402954 97.1 239.862866 97.1 
Q 243.122069 97.1 246.10792 97.648977 
Q 249.10078 98.191717 251.750197 99.264718 
L 251.750197 105.284755 
Q 249.016672 103.906073 246.311182 103.22609 
Q 243.605693 102.539868 240.886185 102.539868 
Q 235.853695 102.539868 233.127178 105.047697 
Q 230.400662 107.549287 230.400662 112.209358 
Q 230.400662 116.825759 233.029052 119.346065 
Q 235.657442 121.860132 240.493679 121.860132 
Q 241.811379 121.860132 242.939834 121.716649 
Q 244.06829 121.566928 244.965447 121.255009 
L 244.965447 115.603037 
L 239.813802 115.603037 
L 239.813802 110.568663 
L 252.955752 110.568663 
z
" style="fill:#ffa600;"/>
   </g>
   <g id="patch_19">
    <path clip-path="url(#p4f0a50a7e6)" d="M 221.681416 21.6 
L 252.955752 21.6 
L 252.955752 36.324604 
L 241.704264 36.324604 
L 241.704264 97.1 
L 232.954723 97.1 
L 232.954723 36.324604 
L 221.681416 36.324604 
z
" style="fill:#ff0000;"/>
   </g>
   <g id="patch_20">
    <path clip-path="url(#p4f0a50a7e6)" d="M 254.60177 142.4 
L 285.876106 142.4 
L 285.876106 145.344921 
L 274.624618 145.344921 
L 274.624618 157.5 
L 265.875077 157.5 
L 265.875077 145.344921 
L 254.60177 145.344921 
z
" style="fill:#ff0000;"/>
   </g>
   <g id="patch_21">
    <path clip-path="url(#p4f0a50a7e6)" d="M 276.26553 131.397 
L 264.237923 131.397 
L 262.338827 142.4 
L 254.60177 142.4 
L 265.651055 82 
L 274.826821 82 
L 285.876106 142.4 
L 278.145443 142.4 
z
M 266.156202 120.186884 
L 274.328069 120.186884 
L 270.248529 96.161509 
z
" style="fill:#008000;"/>
   </g>
   <g id="patch_22">
    <path clip-path="url(#p4f0a50a7e6)" d="M 285.876106 76.535179 
Q 282.722038 79.267589 279.329663 80.640033 
Q 275.937288 82 272.320623 82 
Q 264.148082 82 259.374926 73.865152 
Q 254.60177 65.730304 254.60177 51.818715 
Q 254.60177 37.744929 259.459035 29.672464 
Q 264.323308 21.6 272.78322 21.6 
Q 276.042423 21.6 279.028274 22.697955 
Q 282.021134 23.783433 284.670551 25.929436 
L 284.670551 37.96951 
Q 281.937026 35.212146 279.231536 33.852179 
Q 276.526047 32.479736 273.806539 32.479736 
Q 268.774049 32.479736 266.047532 37.495394 
Q 263.321016 42.498575 263.321016 51.818715 
Q 263.321016 61.051518 265.949406 66.09213 
Q 268.577796 71.120264 273.414033 71.120264 
Q 274.731733 71.120264 275.860188 70.833299 
Q 276.988644 70.533857 277.885801 69.910019 
L 277.885801 58.606073 
L 272.734156 58.606073 
L 272.734156 48.537327 
L 285.876106 48.537327 
z
" style="fill:#ffa600;"/>
   </g>
   <g id="patch_23">
    <path clip-path="url(#p4f0a50a7e6)" d="M 287.522124 21.6 
L 318.79646 21.6 
L 318.79646 48.104286 
L 307.544972 48.104286 
L 307.544972 157.5 
L 298.795431 157.5 
L 298.795431 48.104286 
L 287.522124 48.104286 
z
" style="fill:#ff0000;"/>
   </g>
   <g id="patch_24">
    <path clip-path="url(#p4f0a50a7e6)" d="M 342.106238 132.743249 
L 330.078631 132.743249 
L 328.179535 157.5 
L 320.442478 157.5 
L 331.491763 21.6 
L 340.667529 21.6 
L 351.716814 157.5 
L 343.986151 157.5 
z
M 331.99691 107.520489 
L 340.168777 107.520489 
L 336.089237 53.463395 
z
" style="fill:#008000;"/>
   </g>
   <g id="patch_25">
    <path clip-path="url(#p4f0a50a7e6)" d="M 384.637168 145.204152 
Q 381.4831 151.352076 378.090725 154.440074 
Q 374.698349 157.5 371.081685 157.5 
Q 362.909144 157.5 358.135988 139.196592 
Q 353.362832 120.893183 353.362832 89.592109 
Q 353.362832 57.92609 358.220097 39.763045 
Q 363.08437 21.6 371.544282 21.6 
Q 374.803485 21.6 377.789336 24.070399 
Q 380.782196 26.512725 383.431613 31.341231 
L 383.431613 58.431398 
Q 380.698088 52.227329 377.992598 49.167403 
Q 375.287109 46.079405 372.567601 46.079405 
Q 367.535111 46.079405 364.808594 57.364635 
Q 362.082078 68.621793 362.082078 89.592109 
Q 362.082078 110.365916 364.710468 121.707292 
Q 367.338858 133.020595 372.175095 133.020595 
Q 373.492795 133.020595 374.62125 132.374923 
Q 375.749705 131.701177 376.646863 130.297542 
L 376.646863 104.863665 
L 371.495218 104.863665 
L 371.495218 82.208986 
L 384.637168 82.208986 
z
" style="fill:#ffa600;"/>
   </g>
   <g id="patch_26">
    <path clip-path="url(#p4f0a50a7e6)" d="M 386.283186 21.6 
L 417.557522 21.6 
L 417.557522 48.104286 
L 406.306034 48.104286 
L 406.306034 157.5 
L 397.556493 157.5 
L 397.556493 48.104286 
L 386.283186 48.104286 
z
" style="fill:#ff0000;"/>
   </g>
   <g id="patch_27">
    <path clip-path="url(#p4f0a50a7e6)" d="M 450.477876 156.133795 
Q 447.323808 156.816897 443.931433 157.160008 
Q 440.539057 157.5 436.922393 157.5 
Q 428.749852 157.5 423.976696 155.466288 
Q 419.20354 153.432576 419.20354 149.954679 
Q 419.20354 146.436232 424.060805 144.418116 
Q 428.925078 142.4 437.384989 142.4 
Q 440.644193 142.4 443.630044 142.674489 
Q 446.622904 142.945858 449.272321 143.482359 
L 449.272321 146.492378 
Q 446.538796 145.803037 443.833306 145.463045 
Q 441.127817 145.119934 438.408309 145.119934 
Q 433.375819 145.119934 430.649302 146.373848 
Q 427.922786 147.624644 427.922786 149.954679 
Q 427.922786 152.26288 430.551176 153.523032 
Q 433.179565 154.780066 438.015803 154.780066 
Q 439.333503 154.780066 440.461958 154.708325 
Q 441.590413 154.633464 442.487571 154.477505 
L 442.487571 151.651518 
L 437.335926 151.651518 
L 437.335926 149.134332 
L 450.477876 149.134332 
z
" style="fill:#ffa600;"/>
   </g>
   <g id="patch_28">
    <path clip-path="url(#p4f0a50a7e6)" d="M 440.8673 120.393999 
L 428.839693 120.393999 
L 426.940597 142.4 
L 419.20354 142.4 
L 430.252825 21.6 
L 439.428591 21.6 
L 450.477876 142.4 
L 442.747213 142.4 
z
M 430.757972 97.973768 
L 438.929839 97.973768 
L 434.850299 49.923018 
z
" style="fill:#008000;"/>
   </g>
   <g id="patch_29">
    <path clip-path="url(#p4f0a50a7e6)" d="M 483.39823 153.401384 
Q 480.244162 155.450692 476.851787 156.480025 
Q 473.459411 157.5 469.842747 157.5 
Q 461.670206 157.5 456.89705 151.398864 
Q 452.123894 145.297728 452.123894 134.864036 
Q 452.123894 124.308697 456.981158 118.254348 
Q 461.845432 112.2 470.305343 112.2 
Q 473.564547 112.2 476.550398 113.023466 
Q 479.543258 113.837575 482.192675 115.447077 
L 482.192675 124.477133 
Q 479.45915 122.40911 476.75366 121.389134 
Q 474.048171 120.359802 471.328663 120.359802 
Q 466.296173 120.359802 463.569656 124.121545 
Q 460.84314 127.873931 460.84314 134.864036 
Q 460.84314 141.788639 463.471529 145.569097 
Q 466.099919 149.340198 470.936157 149.340198 
Q 472.253857 149.340198 473.382312 149.124974 
Q 474.510767 148.900392 475.407925 148.432514 
L 475.407925 139.954555 
L 470.25628 139.954555 
L 470.25628 132.402995 
L 483.39823 132.402995 
z
" style="fill:#ffa600;"/>
   </g>
   <g id="patch_30">
    <path clip-path="url(#p4f0a50a7e6)" d="M 473.787654 95.695499 
L 461.760047 95.695499 
L 459.860951 112.2 
L 452.123894 112.2 
L 463.173179 21.6 
L 472.348945 21.6 
L 483.39823 112.2 
L 475.667567 112.2 
z
M 463.678326 78.880326 
L 471.850193 78.880326 
L 467.770653 42.842263 
z
" style="fill:#008000;"/>
   </g>
   <g id="patch_31">
    <path clip-path="url(#p4f0a50a7e6)" d="M 485.044248 21.6 
L 516.318584 21.6 
L 516.318584 48.104286 
L 505.067096 48.104286 
L 505.067096 157.5 
L 496.317555 157.5 
L 496.317555 48.104286 
L 485.044248 48.104286 
z
" style="fill:#ff0000;"/>
   </g>
   <g id="patch_32">
    <path clip-path="url(#p4f0a50a7e6)" d="M 549.238938 156.133795 
Q 546.08487 156.816897 542.692495 157.160008 
Q 539.300119 157.5 535.683455 157.5 
Q 527.510914 157.5 522.737758 155.466288 
Q 517.964602 153.432576 517.964602 149.954679 
Q 517.964602 146.436232 522.821866 144.418116 
Q 527.68614 142.4 536.146051 142.4 
Q 539.405255 142.4 542.391106 142.674489 
Q 545.383966 142.945858 548.033383 143.482359 
L 548.033383 146.492378 
Q 545.299858 145.803037 542.594368 145.463045 
Q 539.888879 145.119934 537.169371 145.119934 
Q 532.136881 145.119934 529.410364 146.373848 
Q 526.683847 147.624644 526.683847 149.954679 
Q 526.683847 152.26288 529.312237 153.523032 
Q 531.940627 154.780066 536.776865 154.780066 
Q 538.094565 154.780066 539.22302 154.708325 
Q 540.351475 154.633464 541.248633 154.477505 
L 541.248633 151.651518 
L 536.096988 151.651518 
L 536.096988 149.134332 
L 549.238938 149.134332 
z
" style="fill:#ffa600;"/>
   </g>
   <g id="patch_33">
    <path clip-path="url(#p4f0a50a7e6)" d="M 539.628362 120.393999 
L 527.600755 120.393999 
L 525.701659 142.4 
L 517.964602 142.4 
L 529.013887 21.6 
L 538.189653 21.6 
L 549.238938 142.4 
L 541.508275 142.4 
z
M 529.519034 97.973768 
L 537.690901 97.973768 
L 533.611361 49.923018 
z
" style="fill:#008000;"/>
   </g>
   <g id="patch_34">
    <path clip-path="url(#p4f0a50a7e6)" d="M 582.159292 153.401384 
Q 579.005224 155.450692 575.612849 156.480025 
Q 572.220473 157.5 568.603809 157.5 
Q 560.431268 157.5 555.658112 151.398864 
Q 550.884956 145.297728 550.884956 134.864036 
Q 550.884956 124.308697 555.74222 118.254348 
Q 560.606494 112.2 569.066405 112.2 
Q 572.325609 112.2 575.31146 113.023466 
Q 578.30432 113.837575 580.953737 115.447077 
L 580.953737 124.477133 
Q 578.220212 122.40911 575.514722 121.389134 
Q 572.809233 120.359802 570.089725 120.359802 
Q 565.057235 120.359802 562.330718 124.121545 
Q 559.604201 127.873931 559.604201 134.864036 
Q 559.604201 141.788639 562.232591 145.569097 
Q 564.860981 149.340198 569.697219 149.340198 
Q 571.014919 149.340198 572.143374 149.124974 
Q 573.271829 148.900392 574.168986 148.432514 
L 574.168986 139.954555 
L 569.017342 139.954555 
L 569.017342 132.402995 
L 582.159292 132.402995 
z
" style="fill:#ffa600;"/>
   </g>
   <g id="patch_35">
    <path clip-path="url(#p4f0a50a7e6)" d="M 572.548716 95.695499 
L 560.521109 95.695499 
L 558.622013 112.2 
L 550.884956 112.2 
L 561.934241 21.6 
L 571.110007 21.6 
L 582.159292 112.2 
L 574.428629 112.2 
z
M 562.439387 78.880326 
L 570.611255 78.880326 
L 566.531715 42.842263 
z
" style="fill:#008000;"/>
   </g>
   <g id="patch_36">
    <path clip-path="url(#p4f0a50a7e6)" d="M 615.079646 156.417641 
Q 612.463602 156.954142 609.634807 157.225511 
Q 606.806012 157.5 603.725068 157.5 
Q 594.537395 157.5 589.171352 155.466288 
Q 583.80531 153.432576 583.80531 149.954679 
Q 583.80531 146.464305 589.171352 144.433712 
Q 594.537395 142.4 603.725068 142.4 
Q 606.806012 142.4 609.634807 142.674489 
Q 612.463602 142.945858 615.079646 143.482359 
L 615.079646 146.492378 
Q 612.439963 145.781202 609.879076 145.450568 
Q 607.318189 145.119934 604.489395 145.119934 
Q 599.414899 145.119934 596.507308 146.408159 
Q 593.607596 147.693266 593.607596 149.954679 
Q 593.607596 152.206734 596.507308 153.49496 
Q 599.414899 154.780066 604.489395 154.780066 
Q 607.318189 154.780066 609.879076 154.449432 
Q 612.439963 154.115679 615.079646 153.404503 
z
" style="fill:#0000ff;"/>
   </g>
   <g id="patch_37">
    <path clip-path="url(#p4f0a50a7e6)" d="M 615.079646 141.033795 
Q 611.925578 141.716897 608.533203 142.060008 
Q 605.140827 142.4 601.524163 142.4 
Q 593.351622 142.4 588.578466 140.366288 
Q 583.80531 138.332576 583.80531 134.854679 
Q 583.80531 131.336232 588.662574 129.318116 
Q 593.526848 127.3 601.986759 127.3 
Q 605.245963 127.3 608.231814 127.574489 
Q 611.224674 127.845858 613.874091 128.382359 
L 613.874091 131.392378 
Q 611.140566 130.703037 608.435076 130.363045 
Q 605.729587 130.019934 603.010079 130.019934 
Q 597.977589 130.019934 595.251072 131.273848 
Q 592.524555 132.524644 592.524555 134.854679 
Q 592.524555 137.16288 595.152945 138.423032 
Q 597.781335 139.680066 602.617573 139.680066 
Q 603.935272 139.680066 605.063728 139.608325 
Q 606.192183 139.533464 607.08934 139.377505 
L 607.08934 136.551518 
L 601.937696 136.551518 
L 601.937696 134.034332 
L 615.079646 134.034332 
z
" style="fill:#ffa600;"/>
   </g>
   <g id="patch_38">
    <path clip-path="url(#p4f0a50a7e6)" d="M 583.80531 82 
L 615.079646 82 
L 615.079646 90.834762 
L 603.828158 90.834762 
L 603.828158 127.3 
L 595.078617 127.3 
L 595.078617 90.834762 
L 583.80531 90.834762 
z
" style="fill:#ff0000;"/>
   </g>
   <g id="patch_39">
    <path clip-path="url(#p4f0a50a7e6)" d="M 605.46907 70.997 
L 593.441463 70.997 
L 591.542367 82 
L 583.80531 82 
L 594.854595 21.6 
L 604.030361 21.6 
L 615.079646 82 
L 607.348983 82 
z
M 595.359741 59.786884 
L 603.531609 59.786884 
L 599.452069 35.761509 
z
" style="fill:#008000;"/>
   </g>
   <g id="patch_40">
    <path clip-path="url(#p4f0a50a7e6)" d="M 616.725664 127.3 
L 648 127.3 
L 648 133.189841 
L 636.748512 133.189841 
L 636.748512 157.5 
L 627.998971 157.5 
L 627.998971 133.189841 
L 616.725664 133.189841 
z
" style="fill:#ff0000;"/>
   </g>
   <g id="patch_41">
    <path clip-path="url(#p4f0a50a7e6)" d="M 648 123.201384 
Q 644.845932 125.250692 641.453557 126.280025 
Q 638.061181 127.3 634.444517 127.3 
Q 626.271976 127.3 621.49882 121.198864 
Q 616.725664 115.097728 616.725664 104.664036 
Q 616.725664 94.108697 621.582928 88.054348 
Q 626.447202 82 634.907113 82 
Q 638.166317 82 641.152168 82.823466 
Q 644.145028 83.637575 646.794445 85.247077 
L 646.794445 94.277133 
Q 644.06092 92.20911 641.35543 91.189134 
Q 638.649941 90.159802 635.930433 90.159802 
Q 630.897943 90.159802 628.171426 93.921545 
Q 625.444909 97.673931 625.444909 104.664036 
Q 625.444909 111.588639 628.073299 115.369097 
Q 630.701689 119.140198 635.537927 119.140198 
Q 636.855626 119.140198 637.984082 118.924974 
Q 639.112537 118.700392 640.009694 118.232514 
L 640.009694 109.754555 
L 634.85805 109.754555 
L 634.85805 102.202995 
L 648 102.202995 
z
" style="fill:#ffa600;"/>
   </g>
   <g id="patch_42">
    <path clip-path="url(#p4f0a50a7e6)" d="M 638.389424 70.997 
L 626.361817 70.997 
L 624.462721 82 
L 616.725664 82 
L 627.774949 21.6 
L 636.950715 21.6 
L 648 82 
L 640.269337 82 
z
M 628.280095 59.786884 
L 636.451963 59.786884 
L 632.372423 35.761509 
z
" style="fill:#008000;"/>
   </g>
  </g>
 </g>
 <defs>
  <clipPath id="p4f0a50a7e6">
   <rect height="135.9" width="558" x="90" y="21.6"/>
  </clipPath>
 </defs>
</svg>
