<?xml version="1.0" encoding="utf-8" standalone="no"?>
<!DOCTYPE svg PUBLIC "-//W3C//DTD SVG 1.1//EN"
  "http://www.w3.org/Graphics/SVG/1.1/DTD/svg11.dtd">
<!-- Created with matplotlib (https://matplotlib.org/) -->
<svg height="180pt" version="1.1" viewBox="0 0 720 180" width="720pt" xmlns="http://www.w3.org/2000/svg" xmlns:xlink="http://www.w3.org/1999/xlink">
 <metadata>
  <rdf:RDF xmlns:cc="http://creativecommons.org/ns#" xmlns:dc="http://purl.org/dc/elements/1.1/" xmlns:rdf="http://www.w3.org/1999/02/22-rdf-syntax-ns#">
   <cc:Work>
    <dc:type rdf:resource="http://purl.org/dc/dcmitype/StillImage"/>
    <dc:date>2021-08-04T23:33:38.716309</dc:date>
    <dc:format>image/svg+xml</dc:format>
    <dc:creator>
     <cc:Agent>
      <dc:title>Matplotlib v3.3.2, https://matplotlib.org/</dc:title>
     </cc:Agent>
    </dc:creator>
   </cc:Work>
  </rdf:RDF>
 </metadata>
 <defs>
  <style type="text/css">*{stroke-linecap:butt;stroke-linejoin:round;}</style>
 </defs>
 <g id="figure_1">
  <g id="patch_1">
   <path d="M 0 180 
L 720 180 
L 720 0 
L 0 0 
z
" style="fill:none;"/>
  </g>
  <g id="axes_1">
   <g id="line2d_1">
    <path clip-path="url(#p47c8198611)" d="M 90 157.5 
L 648 157.5 
" style="fill:none;stroke:#000000;stroke-linecap:square;stroke-width:0.5;"/>
   </g>
   <g id="patch_2">
    <path clip-path="url(#p47c8198611)" d="M 111.66376 154.74925 
L 99.636153 154.74925 
L 97.737057 157.5 
L 90 157.5 
L 101.049285 142.4 
L 110.225051 142.4 
L 121.274336 157.5 
L 113.543673 157.5 
z
M 101.554432 151.946721 
L 109.726299 151.946721 
L 105.64676 145.940377 
z
" style="fill:#008000;"/>
   </g>
   <g id="patch_3">
    <path clip-path="url(#p47c8198611)" d="M 121.274336 131.470357 
Q 118.120268 136.935179 114.727893 139.680066 
Q 111.335518 142.4 107.718853 142.4 
Q 99.546312 142.4 94.773156 126.130304 
Q 90 109.860607 90 82.03743 
Q 90 53.889857 94.857265 37.744929 
Q 99.721538 21.6 108.18145 21.6 
Q 111.440653 21.6 114.426504 23.79591 
Q 117.419364 25.966866 120.068781 30.258872 
L 120.068781 54.339021 
Q 117.335256 48.824293 114.629766 46.104359 
Q 111.924277 43.359471 109.204769 43.359471 
Q 104.172279 43.359471 101.445762 53.390787 
Q 98.719246 63.397149 98.719246 82.03743 
Q 98.719246 100.503037 101.347636 110.584259 
Q 103.976026 120.640529 108.812263 120.640529 
Q 110.129963 120.640529 111.258418 120.066598 
Q 112.386874 119.467713 113.284031 118.220037 
L 113.284031 95.612146 
L 108.132386 95.612146 
L 108.132386 75.474654 
L 121.274336 75.474654 
z
" style="fill:#ffa600;"/>
   </g>
   <g id="patch_4">
    <path clip-path="url(#p47c8198611)" d="M 154.19469 156.133795 
Q 151.040622 156.816897 147.648247 157.160008 
Q 144.255872 157.5 140.639207 157.5 
Q 132.466666 157.5 127.69351 155.466288 
Q 122.920354 153.432576 122.920354 149.954679 
Q 122.920354 146.436232 127.777619 144.418116 
Q 132.641892 142.4 141.101804 142.4 
Q 144.361007 142.4 147.346858 142.674489 
Q 150.339718 142.945858 152.989135 143.482359 
L 152.989135 146.492378 
Q 150.25561 145.803037 147.55012 145.463045 
Q 144.844631 145.119934 142.125123 145.119934 
Q 137.092633 145.119934 134.366116 146.373848 
Q 131.6396 147.624644 131.6396 149.954679 
Q 131.6396 152.26288 134.26799 153.523032 
Q 136.89638 154.780066 141.732617 154.780066 
Q 143.050317 154.780066 144.178772 154.708325 
Q 145.307228 154.633464 146.204385 154.477505 
L 146.204385 151.651518 
L 141.05274 151.651518 
L 141.05274 149.134332 
L 154.19469 149.134332 
z
" style="fill:#ffa600;"/>
   </g>
   <g id="patch_5">
    <path clip-path="url(#p47c8198611)" d="M 122.920354 21.6 
L 154.19469 21.6 
L 154.19469 45.159366 
L 142.943202 45.159366 
L 142.943202 142.4 
L 134.193661 142.4 
L 134.193661 45.159366 
L 122.920354 45.159366 
z
" style="fill:#ff0000;"/>
   </g>
   <g id="patch_6">
    <path clip-path="url(#p47c8198611)" d="M 155.840708 142.4 
L 187.115044 142.4 
L 187.115044 145.344921 
L 175.863556 145.344921 
L 175.863556 157.5 
L 167.114015 157.5 
L 167.114015 145.344921 
L 155.840708 145.344921 
z
" style="fill:#ff0000;"/>
   </g>
   <g id="patch_7">
    <path clip-path="url(#p47c8198611)" d="M 187.115044 131.470357 
Q 183.960976 136.935179 180.568601 139.680066 
Q 177.176226 142.4 173.559561 142.4 
Q 165.38702 142.4 160.613864 126.130304 
Q 155.840708 109.860607 155.840708 82.03743 
Q 155.840708 53.889857 160.697973 37.744929 
Q 165.562246 21.6 174.022158 21.6 
Q 177.281361 21.6 180.267212 23.79591 
Q 183.260072 25.966866 185.909489 30.258872 
L 185.909489 54.339021 
Q 183.175964 48.824293 180.470474 46.104359 
Q 177.764985 43.359471 175.045477 43.359471 
Q 170.012987 43.359471 167.28647 53.390787 
Q 164.559954 63.397149 164.559954 82.03743 
Q 164.559954 100.503037 167.188344 110.584259 
Q 169.816734 120.640529 174.652971 120.640529 
Q 175.970671 120.640529 177.099126 120.066598 
Q 178.227582 119.467713 179.124739 118.220037 
L 179.124739 95.612146 
L 173.973094 95.612146 
L 173.973094 75.474654 
L 187.115044 75.474654 
z
" style="fill:#ffa600;"/>
   </g>
   <g id="patch_8">
    <path clip-path="url(#p47c8198611)" d="M 220.035398 156.417641 
Q 217.419354 156.954142 214.590559 157.225511 
Q 211.761764 157.5 208.680821 157.5 
Q 199.493147 157.5 194.127105 155.466288 
Q 188.761062 153.432576 188.761062 149.954679 
Q 188.761062 146.464305 194.127105 144.433712 
Q 199.493147 142.4 208.680821 142.4 
Q 211.761764 142.4 214.590559 142.674489 
Q 217.419354 142.945858 220.035398 143.482359 
L 220.035398 146.492378 
Q 217.395715 145.781202 214.834828 145.450568 
Q 212.273942 145.119934 209.445147 145.119934 
Q 204.370651 145.119934 201.46306 146.408159 
Q 198.563348 147.693266 198.563348 149.954679 
Q 198.563348 152.206734 201.46306 153.49496 
Q 204.370651 154.780066 209.445147 154.780066 
Q 212.273942 154.780066 214.834828 154.449432 
Q 217.395715 154.115679 220.035398 153.404503 
z
" style="fill:#0000ff;"/>
   </g>
   <g id="patch_9">
    <path clip-path="url(#p47c8198611)" d="M 188.761062 127.3 
L 220.035398 127.3 
L 220.035398 130.244921 
L 208.78391 130.244921 
L 208.78391 142.4 
L 200.034369 142.4 
L 200.034369 130.244921 
L 188.761062 130.244921 
z
" style="fill:#ff0000;"/>
   </g>
   <g id="patch_10">
    <path clip-path="url(#p47c8198611)" d="M 210.424822 108.044749 
L 198.397215 108.044749 
L 196.498119 127.3 
L 188.761062 127.3 
L 199.810347 21.6 
L 208.986113 21.6 
L 220.035398 127.3 
L 212.304735 127.3 
z
M 200.315494 88.427047 
L 208.487361 88.427047 
L 204.407821 46.38264 
z
" style="fill:#008000;"/>
   </g>
   <g id="patch_11">
    <path clip-path="url(#p47c8198611)" d="M 252.955752 153.401384 
Q 249.801684 155.450692 246.409309 156.480025 
Q 243.016934 157.5 239.400269 157.5 
Q 231.227728 157.5 226.454572 151.398864 
Q 221.681416 145.297728 221.681416 134.864036 
Q 221.681416 124.308697 226.538681 118.254348 
Q 231.402954 112.2 239.862866 112.2 
Q 243.122069 112.2 246.10792 113.023466 
Q 249.10078 113.837575 251.750197 115.447077 
L 251.750197 124.477133 
Q 249.016672 122.40911 246.311182 121.389134 
Q 243.605693 120.359802 240.886185 120.359802 
Q 235.853695 120.359802 233.127178 124.121545 
Q 230.400662 127.873931 230.400662 134.864036 
Q 230.400662 141.788639 233.029052 145.569097 
Q 235.657442 149.340198 240.493679 149.340198 
Q 241.811379 149.340198 242.939834 149.124974 
Q 244.06829 148.900392 244.965447 148.432514 
L 244.965447 139.954555 
L 239.813802 139.954555 
L 239.813802 132.402995 
L 252.955752 132.402995 
z
" style="fill:#ffa600;"/>
   </g>
   <g id="patch_12">
    <path clip-path="url(#p47c8198611)" d="M 243.345176 95.695499 
L 231.317569 95.695499 
L 229.418473 112.2 
L 221.681416 112.2 
L 232.730701 21.6 
L 241.906467 21.6 
L 252.955752 112.2 
L 245.225089 112.2 
z
M 233.235848 78.880326 
L 241.407715 78.880326 
L 237.328175 42.842263 
z
" style="fill:#008000;"/>
   </g>
   <g id="patch_13">
    <path clip-path="url(#p47c8198611)" d="M 285.876106 155.335282 
Q 283.260062 156.408283 280.431267 156.951023 
Q 277.602472 157.5 274.521529 157.5 
Q 265.333855 157.5 259.967812 153.432576 
Q 254.60177 149.365152 254.60177 142.409358 
Q 254.60177 135.42861 259.967812 131.367424 
Q 265.333855 127.3 274.521529 127.3 
Q 277.602472 127.3 280.431267 127.848977 
Q 283.260062 128.391717 285.876106 129.464718 
L 285.876106 135.484755 
Q 283.236423 134.062404 280.675536 133.401136 
Q 278.11465 132.739868 275.285855 132.739868 
Q 270.211359 132.739868 267.303768 135.316319 
Q 264.404056 137.886532 264.404056 142.409358 
Q 264.404056 146.913468 267.303768 149.489919 
Q 270.211359 152.060132 275.285855 152.060132 
Q 278.11465 152.060132 280.675536 151.398864 
Q 283.236423 150.731357 285.876106 149.309006 
z
" style="fill:#0000ff;"/>
   </g>
   <g id="patch_14">
    <path clip-path="url(#p47c8198611)" d="M 285.876106 117.736563 
Q 282.722038 122.518281 279.329663 124.920058 
Q 275.937288 127.3 272.320623 127.3 
Q 264.148082 127.3 259.374926 113.064016 
Q 254.60177 98.828031 254.60177 74.482751 
Q 254.60177 49.853625 259.459035 35.726813 
Q 264.323308 21.6 272.78322 21.6 
Q 276.042423 21.6 279.028274 23.521421 
Q 282.021134 25.421008 284.670551 29.176513 
L 284.670551 50.246643 
Q 281.937026 45.421256 279.231536 43.041314 
Q 276.526047 40.639537 273.806539 40.639537 
Q 268.774049 40.639537 266.047532 49.416939 
Q 263.321016 58.172506 263.321016 74.482751 
Q 263.321016 90.640157 265.949406 99.461227 
Q 268.577796 108.260463 273.414033 108.260463 
Q 274.731733 108.260463 275.860188 107.758273 
Q 276.988644 107.234249 277.885801 106.142533 
L 277.885801 86.360628 
L 272.734156 86.360628 
L 272.734156 68.740322 
L 285.876106 68.740322 
z
" style="fill:#ffa600;"/>
   </g>
   <g id="patch_15">
    <path clip-path="url(#p47c8198611)" d="M 318.79646 156.417641 
Q 316.180416 156.954142 313.351621 157.225511 
Q 310.522826 157.5 307.441883 157.5 
Q 298.254209 157.5 292.888166 155.466288 
Q 287.522124 153.432576 287.522124 149.954679 
Q 287.522124 146.464305 292.888166 144.433712 
Q 298.254209 142.4 307.441883 142.4 
Q 310.522826 142.4 313.351621 142.674489 
Q 316.180416 142.945858 318.79646 143.482359 
L 318.79646 146.492378 
Q 316.156777 145.781202 313.59589 145.450568 
Q 311.035004 145.119934 308.206209 145.119934 
Q 303.131713 145.119934 300.224122 146.408159 
Q 297.32441 147.693266 297.32441 149.954679 
Q 297.32441 152.206734 300.224122 153.49496 
Q 303.131713 154.780066 308.206209 154.780066 
Q 311.035004 154.780066 313.59589 154.449432 
Q 316.156777 154.115679 318.79646 153.404503 
z
" style="fill:#0000ff;"/>
   </g>
   <g id="patch_16">
    <path clip-path="url(#p47c8198611)" d="M 318.79646 138.301384 
Q 315.642392 140.350692 312.250017 141.380025 
Q 308.857642 142.4 305.240977 142.4 
Q 297.068436 142.4 292.29528 136.298864 
Q 287.522124 130.197728 287.522124 119.764036 
Q 287.522124 109.208697 292.379389 103.154348 
Q 297.243662 97.1 305.703574 97.1 
Q 308.962777 97.1 311.948628 97.923466 
Q 314.941488 98.737575 317.590905 100.347077 
L 317.590905 109.377133 
Q 314.85738 107.30911 312.15189 106.289134 
Q 309.446401 105.259802 306.726893 105.259802 
Q 301.694403 105.259802 298.967886 109.021545 
Q 296.24137 112.773931 296.24137 119.764036 
Q 296.24137 126.688639 298.86976 130.469097 
Q 301.49815 134.240198 306.334387 134.240198 
Q 307.652087 134.240198 308.780542 134.024974 
Q 309.908998 133.800392 310.806155 133.332514 
L 310.806155 124.854555 
L 305.65451 124.854555 
L 305.65451 117.302995 
L 318.79646 117.302995 
z
" style="fill:#ffa600;"/>
   </g>
   <g id="patch_17">
    <path clip-path="url(#p47c8198611)" d="M 287.522124 21.6 
L 318.79646 21.6 
L 318.79646 36.324604 
L 307.544972 36.324604 
L 307.544972 97.1 
L 298.795431 97.1 
L 298.795431 36.324604 
L 287.522124 36.324604 
z
" style="fill:#ff0000;"/>
   </g>
   <g id="patch_18">
    <path clip-path="url(#p47c8198611)" d="M 351.716814 154.252923 
Q 349.10077 155.862425 346.271975 156.676534 
Q 343.44318 157.5 340.362237 157.5 
Q 331.174563 157.5 325.80852 151.398864 
Q 320.442478 145.297728 320.442478 134.864036 
Q 320.442478 124.392915 325.80852 118.301136 
Q 331.174563 112.2 340.362237 112.2 
Q 343.44318 112.2 346.271975 113.023466 
Q 349.10077 113.837575 351.716814 115.447077 
L 351.716814 124.477133 
Q 349.077131 122.343607 346.516244 121.351704 
Q 343.955358 120.359802 341.126563 120.359802 
Q 336.052067 120.359802 333.144476 124.224478 
Q 330.244764 128.079798 330.244764 134.864036 
Q 330.244764 141.620202 333.144476 145.484879 
Q 336.052067 149.340198 341.126563 149.340198 
Q 343.955358 149.340198 346.516244 148.348296 
Q 349.077131 147.347036 351.716814 145.21351 
z
" style="fill:#0000ff;"/>
   </g>
   <g id="patch_19">
    <path clip-path="url(#p47c8198611)" d="M 351.716814 104.002768 
Q 348.562746 108.101384 345.170371 110.16005 
Q 341.777996 112.2 338.161331 112.2 
Q 329.98879 112.2 325.215634 99.997728 
Q 320.442478 87.795455 320.442478 66.928073 
Q 320.442478 45.817393 325.299743 33.708697 
Q 330.164016 21.6 338.623928 21.6 
Q 341.883131 21.6 344.868982 23.246932 
Q 347.861842 24.87515 350.511259 28.094154 
L 350.511259 46.154266 
Q 347.777734 42.018219 345.072244 39.978269 
Q 342.366755 37.919603 339.647247 37.919603 
Q 334.614757 37.919603 331.88824 45.44309 
Q 329.161724 52.947862 329.161724 66.928073 
Q 329.161724 80.777277 331.790114 88.338195 
Q 334.418504 95.880397 339.254741 95.880397 
Q 340.572441 95.880397 341.700896 95.449948 
Q 342.829351 95.000785 343.726509 94.065028 
L 343.726509 77.10911 
L 338.574864 77.10911 
L 338.574864 62.00599 
L 351.716814 62.00599 
z
" style="fill:#ffa600;"/>
   </g>
   <g id="patch_20">
    <path clip-path="url(#p47c8198611)" d="M 353.362832 142.4 
L 384.637168 142.4 
L 384.637168 145.344921 
L 373.38568 145.344921 
L 373.38568 157.5 
L 364.636139 157.5 
L 364.636139 145.344921 
L 353.362832 145.344921 
z
" style="fill:#ff0000;"/>
   </g>
   <g id="patch_21">
    <path clip-path="url(#p47c8198611)" d="M 375.026592 136.8985 
L 362.998985 136.8985 
L 361.099889 142.4 
L 353.362832 142.4 
L 364.412117 112.2 
L 373.587883 112.2 
L 384.637168 142.4 
L 376.906505 142.4 
z
M 364.917264 131.293442 
L 373.089131 131.293442 
L 369.009591 119.280754 
z
" style="fill:#008000;"/>
   </g>
   <g id="patch_22">
    <path clip-path="url(#p47c8198611)" d="M 384.637168 109.467589 
Q 381.4831 110.833795 378.090725 111.520017 
Q 374.698349 112.2 371.081685 112.2 
Q 362.909144 112.2 358.135988 108.132576 
Q 353.362832 104.065152 353.362832 97.109358 
Q 353.362832 90.072464 358.220097 86.036232 
Q 363.08437 82 371.544282 82 
Q 374.803485 82 377.789336 82.548977 
Q 380.782196 83.091717 383.431613 84.164718 
L 383.431613 90.184755 
Q 380.698088 88.806073 377.992598 88.12609 
Q 375.287109 87.439868 372.567601 87.439868 
Q 367.535111 87.439868 364.808594 89.947697 
Q 362.082078 92.449287 362.082078 97.109358 
Q 362.082078 101.725759 364.710468 104.246065 
Q 367.338858 106.760132 372.175095 106.760132 
Q 373.492795 106.760132 374.62125 106.616649 
Q 375.749705 106.466928 376.646863 106.155009 
L 376.646863 100.503037 
L 371.495218 100.503037 
L 371.495218 95.468663 
L 384.637168 95.468663 
z
" style="fill:#ffa600;"/>
   </g>
   <g id="patch_23">
    <path clip-path="url(#p47c8198611)" d="M 384.637168 77.670564 
Q 382.021124 79.816567 379.192329 80.902045 
Q 376.363534 82 373.282591 82 
Q 364.094917 82 358.728874 73.865152 
Q 353.362832 65.730304 353.362832 51.818715 
Q 353.362832 37.85722 358.728874 29.734848 
Q 364.094917 21.6 373.282591 21.6 
Q 376.363534 21.6 379.192329 22.697955 
Q 382.021124 23.783433 384.637168 25.929436 
L 384.637168 37.96951 
Q 381.997485 35.124809 379.436598 33.802272 
Q 376.875712 32.479736 374.046917 32.479736 
Q 368.972421 32.479736 366.06483 37.632638 
Q 363.165118 42.773063 363.165118 51.818715 
Q 363.165118 60.826937 366.06483 65.979839 
Q 368.972421 71.120264 374.046917 71.120264 
Q 376.875712 71.120264 379.436598 69.797728 
Q 381.997485 68.462714 384.637168 65.618013 
z
" style="fill:#0000ff;"/>
   </g>
   <g id="patch_24">
    <path clip-path="url(#p47c8198611)" d="M 417.557522 156.417641 
Q 414.941478 156.954142 412.112683 157.225511 
Q 409.283888 157.5 406.202945 157.5 
Q 397.015271 157.5 391.649228 155.466288 
Q 386.283186 153.432576 386.283186 149.954679 
Q 386.283186 146.464305 391.649228 144.433712 
Q 397.015271 142.4 406.202945 142.4 
Q 409.283888 142.4 412.112683 142.674489 
Q 414.941478 142.945858 417.557522 143.482359 
L 417.557522 146.492378 
Q 414.917839 145.781202 412.356952 145.450568 
Q 409.796066 145.119934 406.967271 145.119934 
Q 401.892775 145.119934 398.985184 146.408159 
Q 396.085472 147.693266 396.085472 149.954679 
Q 396.085472 152.206734 398.985184 153.49496 
Q 401.892775 154.780066 406.967271 154.780066 
Q 409.796066 154.780066 412.356952 154.449432 
Q 414.917839 154.115679 417.557522 153.404503 
z
" style="fill:#0000ff;"/>
   </g>
   <g id="patch_25">
    <path clip-path="url(#p47c8198611)" d="M 407.946946 136.8985 
L 395.919339 136.8985 
L 394.020243 142.4 
L 386.283186 142.4 
L 397.332471 112.2 
L 406.508237 112.2 
L 417.557522 142.4 
L 409.826859 142.4 
z
M 397.837618 131.293442 
L 406.009485 131.293442 
L 401.929945 119.280754 
z
" style="fill:#008000;"/>
   </g>
   <g id="patch_26">
    <path clip-path="url(#p47c8198611)" d="M 417.557522 108.101384 
Q 414.403454 110.150692 411.011079 111.180025 
Q 407.618703 112.2 404.002039 112.2 
Q 395.829498 112.2 391.056342 106.098864 
Q 386.283186 99.997728 386.283186 89.564036 
Q 386.283186 79.008697 391.140451 72.954348 
Q 396.004724 66.9 404.464635 66.9 
Q 407.723839 66.9 410.70969 67.723466 
Q 413.70255 68.537575 416.351967 70.147077 
L 416.351967 79.177133 
Q 413.618442 77.10911 410.912952 76.089134 
Q 408.207463 75.059802 405.487955 75.059802 
Q 400.455465 75.059802 397.728948 78.821545 
Q 395.002432 82.573931 395.002432 89.564036 
Q 395.002432 96.488639 397.630822 100.269097 
Q 400.259212 104.040198 405.095449 104.040198 
Q 406.413149 104.040198 407.541604 103.824974 
Q 408.670059 103.600392 409.567217 103.132514 
L 409.567217 94.654555 
L 404.415572 94.654555 
L 404.415572 87.102995 
L 417.557522 87.102995 
z
" style="fill:#ffa600;"/>
   </g>
   <g id="patch_27">
    <path clip-path="url(#p47c8198611)" d="M 386.283186 21.6 
L 417.557522 21.6 
L 417.557522 30.434762 
L 406.306034 30.434762 
L 406.306034 66.9 
L 397.556493 66.9 
L 397.556493 30.434762 
L 386.283186 30.434762 
z
" style="fill:#ff0000;"/>
   </g>
   <g id="patch_28">
    <path clip-path="url(#p47c8198611)" d="M 450.477876 156.133795 
Q 447.323808 156.816897 443.931433 157.160008 
Q 440.539057 157.5 436.922393 157.5 
Q 428.749852 157.5 423.976696 155.466288 
Q 419.20354 153.432576 419.20354 149.954679 
Q 419.20354 146.436232 424.060805 144.418116 
Q 428.925078 142.4 437.384989 142.4 
Q 440.644193 142.4 443.630044 142.674489 
Q 446.622904 142.945858 449.272321 143.482359 
L 449.272321 146.492378 
Q 446.538796 145.803037 443.833306 145.463045 
Q 441.127817 145.119934 438.408309 145.119934 
Q 433.375819 145.119934 430.649302 146.373848 
Q 427.922786 147.624644 427.922786 149.954679 
Q 427.922786 152.26288 430.551176 153.523032 
Q 433.179565 154.780066 438.015803 154.780066 
Q 439.333503 154.780066 440.461958 154.708325 
Q 441.590413 154.633464 442.487571 154.477505 
L 442.487571 151.651518 
L 437.335926 151.651518 
L 437.335926 149.134332 
L 450.477876 149.134332 
z
" style="fill:#ffa600;"/>
   </g>
   <g id="patch_29">
    <path clip-path="url(#p47c8198611)" d="M 450.477876 140.235282 
Q 447.861832 141.308283 445.033037 141.851023 
Q 442.204242 142.4 439.123298 142.4 
Q 429.935625 142.4 424.569582 138.332576 
Q 419.20354 134.265152 419.20354 127.309358 
Q 419.20354 120.32861 424.569582 116.267424 
Q 429.935625 112.2 439.123298 112.2 
Q 442.204242 112.2 445.033037 112.748977 
Q 447.861832 113.291717 450.477876 114.364718 
L 450.477876 120.384755 
Q 447.838193 118.962404 445.277306 118.301136 
Q 442.71642 117.639868 439.887625 117.639868 
Q 434.813129 117.639868 431.905538 120.216319 
Q 429.005826 122.786532 429.005826 127.309358 
Q 429.005826 131.813468 431.905538 134.389919 
Q 434.813129 136.960132 439.887625 136.960132 
Q 442.71642 136.960132 445.277306 136.298864 
Q 447.838193 135.631357 450.477876 134.209006 
z
" style="fill:#0000ff;"/>
   </g>
   <g id="patch_30">
    <path clip-path="url(#p47c8198611)" d="M 440.8673 103.94775 
L 428.839693 103.94775 
L 426.940597 112.2 
L 419.20354 112.2 
L 430.252825 66.9 
L 439.428591 66.9 
L 450.477876 112.2 
L 442.747213 112.2 
z
M 430.757972 95.540163 
L 438.929839 95.540163 
L 434.850299 77.521132 
z
" style="fill:#008000;"/>
   </g>
   <g id="patch_31">
    <path clip-path="url(#p47c8198611)" d="M 419.20354 21.6 
L 450.477876 21.6 
L 450.477876 30.434762 
L 439.226388 30.434762 
L 439.226388 66.9 
L 430.476847 66.9 
L 430.476847 30.434762 
L 419.20354 30.434762 
z
" style="fill:#ff0000;"/>
   </g>
   <g id="patch_32">
    <path clip-path="url(#p47c8198611)" d="M 483.39823 156.133795 
Q 480.244162 156.816897 476.851787 157.160008 
Q 473.459411 157.5 469.842747 157.5 
Q 461.670206 157.5 456.89705 155.466288 
Q 452.123894 153.432576 452.123894 149.954679 
Q 452.123894 146.436232 456.981158 144.418116 
Q 461.845432 142.4 470.305343 142.4 
Q 473.564547 142.4 476.550398 142.674489 
Q 479.543258 142.945858 482.192675 143.482359 
L 482.192675 146.492378 
Q 479.45915 145.803037 476.75366 145.463045 
Q 474.048171 145.119934 471.328663 145.119934 
Q 466.296173 145.119934 463.569656 146.373848 
Q 460.84314 147.624644 460.84314 149.954679 
Q 460.84314 152.26288 463.471529 153.523032 
Q 466.099919 154.780066 470.936157 154.780066 
Q 472.253857 154.780066 473.382312 154.708325 
Q 474.510767 154.633464 475.407925 154.477505 
L 475.407925 151.651518 
L 470.25628 151.651518 
L 470.25628 149.134332 
L 483.39823 149.134332 
z
" style="fill:#ffa600;"/>
   </g>
   <g id="patch_33">
    <path clip-path="url(#p47c8198611)" d="M 473.787654 136.8985 
L 461.760047 136.8985 
L 459.860951 142.4 
L 452.123894 142.4 
L 463.173179 112.2 
L 472.348945 112.2 
L 483.39823 142.4 
L 475.667567 142.4 
z
M 463.678326 131.293442 
L 471.850193 131.293442 
L 467.770653 119.280754 
z
" style="fill:#008000;"/>
   </g>
   <g id="patch_34">
    <path clip-path="url(#p47c8198611)" d="M 483.39823 108.952923 
Q 480.782186 110.562425 477.953391 111.376534 
Q 475.124596 112.2 472.043652 112.2 
Q 462.855979 112.2 457.489936 106.098864 
Q 452.123894 99.997728 452.123894 89.564036 
Q 452.123894 79.092915 457.489936 73.001136 
Q 462.855979 66.9 472.043652 66.9 
Q 475.124596 66.9 477.953391 67.723466 
Q 480.782186 68.537575 483.39823 70.147077 
L 483.39823 79.177133 
Q 480.758547 77.043607 478.19766 76.051704 
Q 475.636773 75.059802 472.807979 75.059802 
Q 467.733483 75.059802 464.825892 78.924478 
Q 461.92618 82.779798 461.92618 89.564036 
Q 461.92618 96.320202 464.825892 100.184879 
Q 467.733483 104.040198 472.807979 104.040198 
Q 475.636773 104.040198 478.19766 103.048296 
Q 480.758547 102.047036 483.39823 99.91351 
z
" style="fill:#0000ff;"/>
   </g>
   <g id="patch_35">
    <path clip-path="url(#p47c8198611)" d="M 452.123894 21.6 
L 483.39823 21.6 
L 483.39823 30.434762 
L 472.146742 30.434762 
L 472.146742 66.9 
L 463.397201 66.9 
L 463.397201 30.434762 
L 452.123894 30.434762 
z
" style="fill:#ff0000;"/>
   </g>
   <g id="patch_36">
    <path clip-path="url(#p47c8198611)" d="M 485.044248 142.4 
L 516.318584 142.4 
L 516.318584 145.344921 
L 505.067096 145.344921 
L 505.067096 157.5 
L 496.317555 157.5 
L 496.317555 145.344921 
L 485.044248 145.344921 
z
" style="fill:#ff0000;"/>
   </g>
   <g id="patch_37">
    <path clip-path="url(#p47c8198611)" d="M 516.318584 139.667589 
Q 513.164516 141.033795 509.772141 141.720017 
Q 506.379765 142.4 502.763101 142.4 
Q 494.59056 142.4 489.817404 138.332576 
Q 485.044248 134.265152 485.044248 127.309358 
Q 485.044248 120.272464 489.901512 116.236232 
Q 494.765786 112.2 503.225697 112.2 
Q 506.484901 112.2 509.470752 112.748977 
Q 512.463612 113.291717 515.113029 114.364718 
L 515.113029 120.384755 
Q 512.379504 119.006073 509.674014 118.32609 
Q 506.968525 117.639868 504.249017 117.639868 
Q 499.216527 117.639868 496.49001 120.147697 
Q 493.763493 122.649287 493.763493 127.309358 
Q 493.763493 131.925759 496.391883 134.446065 
Q 499.020273 136.960132 503.856511 136.960132 
Q 505.174211 136.960132 506.302666 136.816649 
Q 507.431121 136.666928 508.328279 136.355009 
L 508.328279 130.703037 
L 503.176634 130.703037 
L 503.176634 125.668663 
L 516.318584 125.668663 
z
" style="fill:#ffa600;"/>
   </g>
   <g id="patch_38">
    <path clip-path="url(#p47c8198611)" d="M 506.708008 95.695499 
L 494.680401 95.695499 
L 492.781305 112.2 
L 485.044248 112.2 
L 496.093533 21.6 
L 505.269299 21.6 
L 516.318584 112.2 
L 508.587921 112.2 
z
M 496.59868 78.880326 
L 504.770547 78.880326 
L 500.691007 42.842263 
z
" style="fill:#008000;"/>
   </g>
   <g id="patch_39">
    <path clip-path="url(#p47c8198611)" d="M 549.238938 156.417641 
Q 546.622894 156.954142 543.794099 157.225511 
Q 540.965304 157.5 537.88436 157.5 
Q 528.696687 157.5 523.330644 155.466288 
Q 517.964602 153.432576 517.964602 149.954679 
Q 517.964602 146.464305 523.330644 144.433712 
Q 528.696687 142.4 537.88436 142.4 
Q 540.965304 142.4 543.794099 142.674489 
Q 546.622894 142.945858 549.238938 143.482359 
L 549.238938 146.492378 
Q 546.599255 145.781202 544.038368 145.450568 
Q 541.477481 145.119934 538.648687 145.119934 
Q 533.574191 145.119934 530.6666 146.408159 
Q 527.766888 147.693266 527.766888 149.954679 
Q 527.766888 152.206734 530.6666 153.49496 
Q 533.574191 154.780066 538.648687 154.780066 
Q 541.477481 154.780066 544.038368 154.449432 
Q 546.599255 154.115679 549.238938 153.404503 
z
" style="fill:#0000ff;"/>
   </g>
   <g id="patch_40">
    <path clip-path="url(#p47c8198611)" d="M 517.964602 127.3 
L 549.238938 127.3 
L 549.238938 130.244921 
L 537.98745 130.244921 
L 537.98745 142.4 
L 529.237909 142.4 
L 529.237909 130.244921 
L 517.964602 130.244921 
z
" style="fill:#ff0000;"/>
   </g>
   <g id="patch_41">
    <path clip-path="url(#p47c8198611)" d="M 549.238938 124.567589 
Q 546.08487 125.933795 542.692495 126.620017 
Q 539.300119 127.3 535.683455 127.3 
Q 527.510914 127.3 522.737758 123.232576 
Q 517.964602 119.165152 517.964602 112.209358 
Q 517.964602 105.172464 522.821866 101.136232 
Q 527.68614 97.1 536.146051 97.1 
Q 539.405255 97.1 542.391106 97.648977 
Q 545.383966 98.191717 548.033383 99.264718 
L 548.033383 105.284755 
Q 545.299858 103.906073 542.594368 103.22609 
Q 539.888879 102.539868 537.169371 102.539868 
Q 532.136881 102.539868 529.410364 105.047697 
Q 526.683847 107.549287 526.683847 112.209358 
Q 526.683847 116.825759 529.312237 119.346065 
Q 531.940627 121.860132 536.776865 121.860132 
Q 538.094565 121.860132 539.22302 121.716649 
Q 540.351475 121.566928 541.248633 121.255009 
L 541.248633 115.603037 
L 536.096988 115.603037 
L 536.096988 110.568663 
L 549.238938 110.568663 
z
" style="fill:#ffa600;"/>
   </g>
   <g id="patch_42">
    <path clip-path="url(#p47c8198611)" d="M 539.628362 83.346249 
L 527.600755 83.346249 
L 525.701659 97.1 
L 517.964602 97.1 
L 529.013887 21.6 
L 538.189653 21.6 
L 549.238938 97.1 
L 541.508275 97.1 
z
M 529.519034 69.333605 
L 537.690901 69.333605 
L 533.611361 39.301886 
z
" style="fill:#008000;"/>
   </g>
   <g id="patch_43">
    <path clip-path="url(#p47c8198611)" d="M 582.159292 155.335282 
Q 579.543248 156.408283 576.714453 156.951023 
Q 573.885658 157.5 570.804714 157.5 
Q 561.617041 157.5 556.250998 153.432576 
Q 550.884956 149.365152 550.884956 142.409358 
Q 550.884956 135.42861 556.250998 131.367424 
Q 561.617041 127.3 570.804714 127.3 
Q 573.885658 127.3 576.714453 127.848977 
Q 579.543248 128.391717 582.159292 129.464718 
L 582.159292 135.484755 
Q 579.519609 134.062404 576.958722 133.401136 
Q 574.397835 132.739868 571.569041 132.739868 
Q 566.494545 132.739868 563.586954 135.316319 
Q 560.687242 137.886532 560.687242 142.409358 
Q 560.687242 146.913468 563.586954 149.489919 
Q 566.494545 152.060132 571.569041 152.060132 
Q 574.397835 152.060132 576.958722 151.398864 
Q 579.519609 150.731357 582.159292 149.309006 
z
" style="fill:#0000ff;"/>
   </g>
   <g id="patch_44">
    <path clip-path="url(#p47c8198611)" d="M 582.159292 124.567589 
Q 579.005224 125.933795 575.612849 126.620017 
Q 572.220473 127.3 568.603809 127.3 
Q 560.431268 127.3 555.658112 123.232576 
Q 550.884956 119.165152 550.884956 112.209358 
Q 550.884956 105.172464 555.74222 101.136232 
Q 560.606494 97.1 569.066405 97.1 
Q 572.325609 97.1 575.31146 97.648977 
Q 578.30432 98.191717 580.953737 99.264718 
L 580.953737 105.284755 
Q 578.220212 103.906073 575.514722 103.22609 
Q 572.809233 102.539868 570.089725 102.539868 
Q 565.057235 102.539868 562.330718 105.047697 
Q 559.604201 107.549287 559.604201 112.209358 
Q 559.604201 116.825759 562.232591 119.346065 
Q 564.860981 121.860132 569.697219 121.860132 
Q 571.014919 121.860132 572.143374 121.716649 
Q 573.271829 121.566928 574.168986 121.255009 
L 574.168986 115.603037 
L 569.017342 115.603037 
L 569.017342 110.568663 
L 582.159292 110.568663 
z
" style="fill:#ffa600;"/>
   </g>
   <g id="patch_45">
    <path clip-path="url(#p47c8198611)" d="M 572.548716 83.346249 
L 560.521109 83.346249 
L 558.622013 97.1 
L 550.884956 97.1 
L 561.934241 21.6 
L 571.110007 21.6 
L 582.159292 97.1 
L 574.428629 97.1 
z
M 562.439387 69.333605 
L 570.611255 69.333605 
L 566.531715 39.301886 
z
" style="fill:#008000;"/>
   </g>
   <g id="patch_46">
    <path clip-path="url(#p47c8198611)" d="M 615.079646 154.767589 
Q 611.925578 156.133795 608.533203 156.820017 
Q 605.140827 157.5 601.524163 157.5 
Q 593.351622 157.5 588.578466 153.432576 
Q 583.80531 149.365152 583.80531 142.409358 
Q 583.80531 135.372464 588.662574 131.336232 
Q 593.526848 127.3 601.986759 127.3 
Q 605.245963 127.3 608.231814 127.848977 
Q 611.224674 128.391717 613.874091 129.464718 
L 613.874091 135.484755 
Q 611.140566 134.106073 608.435076 133.42609 
Q 605.729587 132.739868 603.010079 132.739868 
Q 597.977589 132.739868 595.251072 135.247697 
Q 592.524555 137.749287 592.524555 142.409358 
Q 592.524555 147.025759 595.152945 149.546065 
Q 597.781335 152.060132 602.617573 152.060132 
Q 603.935272 152.060132 605.063728 151.916649 
Q 606.192183 151.766928 607.08934 151.455009 
L 607.08934 145.803037 
L 601.937696 145.803037 
L 601.937696 140.768663 
L 615.079646 140.768663 
z
" style="fill:#ffa600;"/>
   </g>
   <g id="patch_47">
    <path clip-path="url(#p47c8198611)" d="M 605.46907 108.044749 
L 593.441463 108.044749 
L 591.542367 127.3 
L 583.80531 127.3 
L 594.854595 21.6 
L 604.030361 21.6 
L 615.079646 127.3 
L 607.348983 127.3 
z
M 595.359741 88.427047 
L 603.531609 88.427047 
L 599.452069 46.38264 
z
" style="fill:#008000;"/>
   </g>
   <g id="patch_48">
    <path clip-path="url(#p47c8198611)" d="M 648 156.133795 
Q 644.845932 156.816897 641.453557 157.160008 
Q 638.061181 157.5 634.444517 157.5 
Q 626.271976 157.5 621.49882 155.466288 
Q 616.725664 153.432576 616.725664 149.954679 
Q 616.725664 146.436232 621.582928 144.418116 
Q 626.447202 142.4 634.907113 142.4 
Q 638.166317 142.4 641.152168 142.674489 
Q 644.145028 142.945858 646.794445 143.482359 
L 646.794445 146.492378 
Q 644.06092 145.803037 641.35543 145.463045 
Q 638.649941 145.119934 635.930433 145.119934 
Q 630.897943 145.119934 628.171426 146.373848 
Q 625.444909 147.624644 625.444909 149.954679 
Q 625.444909 152.26288 628.073299 153.523032 
Q 630.701689 154.780066 635.537927 154.780066 
Q 636.855626 154.780066 637.984082 154.708325 
Q 639.112537 154.633464 640.009694 154.477505 
L 640.009694 151.651518 
L 634.85805 151.651518 
L 634.85805 149.134332 
L 648 149.134332 
z
" style="fill:#ffa600;"/>
   </g>
   <g id="patch_49">
    <path clip-path="url(#p47c8198611)" d="M 638.389424 131.397 
L 626.361817 131.397 
L 624.462721 142.4 
L 616.725664 142.4 
L 627.774949 82 
L 636.950715 82 
L 648 142.4 
L 640.269337 142.4 
z
M 628.280095 120.186884 
L 636.451963 120.186884 
L 632.372423 96.161509 
z
" style="fill:#008000;"/>
   </g>
   <g id="patch_50">
    <path clip-path="url(#p47c8198611)" d="M 616.725664 21.6 
L 648 21.6 
L 648 33.379683 
L 636.748512 33.379683 
L 636.748512 82 
L 627.998971 82 
L 627.998971 33.379683 
L 616.725664 33.379683 
z
" style="fill:#ff0000;"/>
   </g>
  </g>
 </g>
 <defs>
  <clipPath id="p47c8198611">
   <rect height="135.9" width="558" x="90" y="21.6"/>
  </clipPath>
 </defs>
</svg>
