<?xml version="1.0" encoding="utf-8" standalone="no"?>
<!DOCTYPE svg PUBLIC "-//W3C//DTD SVG 1.1//EN"
  "http://www.w3.org/Graphics/SVG/1.1/DTD/svg11.dtd">
<!-- Created with matplotlib (https://matplotlib.org/) -->
<svg height="180pt" version="1.1" viewBox="0 0 720 180" width="720pt" xmlns="http://www.w3.org/2000/svg" xmlns:xlink="http://www.w3.org/1999/xlink">
 <metadata>
  <rdf:RDF xmlns:cc="http://creativecommons.org/ns#" xmlns:dc="http://purl.org/dc/elements/1.1/" xmlns:rdf="http://www.w3.org/1999/02/22-rdf-syntax-ns#">
   <cc:Work>
    <dc:type rdf:resource="http://purl.org/dc/dcmitype/StillImage"/>
    <dc:date>2021-08-04T23:34:04.778225</dc:date>
    <dc:format>image/svg+xml</dc:format>
    <dc:creator>
     <cc:Agent>
      <dc:title>Matplotlib v3.3.2, https://matplotlib.org/</dc:title>
     </cc:Agent>
    </dc:creator>
   </cc:Work>
  </rdf:RDF>
 </metadata>
 <defs>
  <style type="text/css">*{stroke-linecap:butt;stroke-linejoin:round;}</style>
 </defs>
 <g id="figure_1">
  <g id="patch_1">
   <path d="M 0 180 
L 720 180 
L 720 0 
L 0 0 
z
" style="fill:none;"/>
  </g>
  <g id="axes_1">
   <g id="line2d_1">
    <path clip-path="url(#p89302c3515)" d="M 90 157.5 
L 648 157.5 
" style="fill:none;stroke:#000000;stroke-linecap:square;stroke-width:0.5;"/>
   </g>
   <g id="patch_2">
    <path clip-path="url(#p89302c3515)" d="M 111.66376 151.9985 
L 99.636153 151.9985 
L 97.737057 157.5 
L 90 157.5 
L 101.049285 127.3 
L 110.225051 127.3 
L 121.274336 157.5 
L 113.543673 157.5 
z
M 101.554432 146.393442 
L 109.726299 146.393442 
L 105.64676 134.380754 
z
" style="fill:#008000;"/>
   </g>
   <g id="patch_3">
    <path clip-path="url(#p89302c3515)" d="M 121.274336 125.135282 
Q 118.658292 126.208283 115.829497 126.751023 
Q 113.000702 127.3 109.919759 127.3 
Q 100.732085 127.3 95.366043 123.232576 
Q 90 119.165152 90 112.209358 
Q 90 105.22861 95.366043 101.167424 
Q 100.732085 97.1 109.919759 97.1 
Q 113.000702 97.1 115.829497 97.648977 
Q 118.658292 98.191717 121.274336 99.264718 
L 121.274336 105.284755 
Q 118.634653 103.862404 116.073766 103.201136 
Q 113.51288 102.539868 110.684085 102.539868 
Q 105.609589 102.539868 102.701998 105.116319 
Q 99.802286 107.686532 99.802286 112.209358 
Q 99.802286 116.713468 102.701998 119.289919 
Q 105.609589 121.860132 110.684085 121.860132 
Q 113.51288 121.860132 116.073766 121.198864 
Q 118.634653 120.531357 121.274336 119.109006 
z
" style="fill:#0000ff;"/>
   </g>
   <g id="patch_4">
    <path clip-path="url(#p89302c3515)" d="M 121.274336 94.367589 
Q 118.120268 95.733795 114.727893 96.420017 
Q 111.335518 97.1 107.718853 97.1 
Q 99.546312 97.1 94.773156 93.032576 
Q 90 88.965152 90 82.009358 
Q 90 74.972464 94.857265 70.936232 
Q 99.721538 66.9 108.18145 66.9 
Q 111.440653 66.9 114.426504 67.448977 
Q 117.419364 67.991717 120.068781 69.064718 
L 120.068781 75.084755 
Q 117.335256 73.706073 114.629766 73.02609 
Q 111.924277 72.339868 109.204769 72.339868 
Q 104.172279 72.339868 101.445762 74.847697 
Q 98.719246 77.349287 98.719246 82.009358 
Q 98.719246 86.625759 101.347636 89.146065 
Q 103.976026 91.660132 108.812263 91.660132 
Q 110.129963 91.660132 111.258418 91.516649 
Q 112.386874 91.366928 113.284031 91.055009 
L 113.284031 85.403037 
L 108.132386 85.403037 
L 108.132386 80.368663 
L 121.274336 80.368663 
z
" style="fill:#ffa600;"/>
   </g>
   <g id="patch_5">
    <path clip-path="url(#p89302c3515)" d="M 90 21.6 
L 121.274336 21.6 
L 121.274336 30.434762 
L 110.022848 30.434762 
L 110.022848 66.9 
L 101.273307 66.9 
L 101.273307 30.434762 
L 90 30.434762 
z
" style="fill:#ff0000;"/>
   </g>
   <g id="patch_6">
    <path clip-path="url(#p89302c3515)" d="M 122.920354 142.4 
L 154.19469 142.4 
L 154.19469 145.344921 
L 142.943202 145.344921 
L 142.943202 157.5 
L 134.193661 157.5 
L 134.193661 145.344921 
L 122.920354 145.344921 
z
" style="fill:#ff0000;"/>
   </g>
   <g id="patch_7">
    <path clip-path="url(#p89302c3515)" d="M 154.19469 139.667589 
Q 151.040622 141.033795 147.648247 141.720017 
Q 144.255872 142.4 140.639207 142.4 
Q 132.466666 142.4 127.69351 138.332576 
Q 122.920354 134.265152 122.920354 127.309358 
Q 122.920354 120.272464 127.777619 116.236232 
Q 132.641892 112.2 141.101804 112.2 
Q 144.361007 112.2 147.346858 112.748977 
Q 150.339718 113.291717 152.989135 114.364718 
L 152.989135 120.384755 
Q 150.25561 119.006073 147.55012 118.32609 
Q 144.844631 117.639868 142.125123 117.639868 
Q 137.092633 117.639868 134.366116 120.147697 
Q 131.6396 122.649287 131.6396 127.309358 
Q 131.6396 131.925759 134.26799 134.446065 
Q 136.89638 136.960132 141.732617 136.960132 
Q 143.050317 136.960132 144.178772 136.816649 
Q 145.307228 136.666928 146.204385 136.355009 
L 146.204385 130.703037 
L 141.05274 130.703037 
L 141.05274 125.668663 
L 154.19469 125.668663 
z
" style="fill:#ffa600;"/>
   </g>
   <g id="patch_8">
    <path clip-path="url(#p89302c3515)" d="M 144.584114 103.94775 
L 132.556507 103.94775 
L 130.657411 112.2 
L 122.920354 112.2 
L 133.969639 66.9 
L 143.145405 66.9 
L 154.19469 112.2 
L 146.464027 112.2 
z
M 134.474786 95.540163 
L 142.646653 95.540163 
L 138.567114 77.521132 
z
" style="fill:#008000;"/>
   </g>
   <g id="patch_9">
    <path clip-path="url(#p89302c3515)" d="M 154.19469 63.652923 
Q 151.578646 65.262425 148.749851 66.076534 
Q 145.921056 66.9 142.840113 66.9 
Q 133.652439 66.9 128.286397 60.798864 
Q 122.920354 54.697728 122.920354 44.264036 
Q 122.920354 33.792915 128.286397 27.701136 
Q 133.652439 21.6 142.840113 21.6 
Q 145.921056 21.6 148.749851 22.423466 
Q 151.578646 23.237575 154.19469 24.847077 
L 154.19469 33.877133 
Q 151.555007 31.743607 148.99412 30.751704 
Q 146.433234 29.759802 143.604439 29.759802 
Q 138.529943 29.759802 135.622352 33.624478 
Q 132.72264 37.479798 132.72264 44.264036 
Q 132.72264 51.020202 135.622352 54.884879 
Q 138.529943 58.740198 143.604439 58.740198 
Q 146.433234 58.740198 148.99412 57.748296 
Q 151.555007 56.747036 154.19469 54.61351 
z
" style="fill:#0000ff;"/>
   </g>
   <g id="patch_10">
    <path clip-path="url(#p89302c3515)" d="M 155.840708 142.4 
L 187.115044 142.4 
L 187.115044 145.344921 
L 175.863556 145.344921 
L 175.863556 157.5 
L 167.114015 157.5 
L 167.114015 145.344921 
L 155.840708 145.344921 
z
" style="fill:#ff0000;"/>
   </g>
   <g id="patch_11">
    <path clip-path="url(#p89302c3515)" d="M 177.504468 120.393999 
L 165.476861 120.393999 
L 163.577765 142.4 
L 155.840708 142.4 
L 166.889993 21.6 
L 176.065759 21.6 
L 187.115044 142.4 
L 179.384381 142.4 
z
M 167.39514 97.973768 
L 175.567007 97.973768 
L 171.487467 49.923018 
z
" style="fill:#008000;"/>
   </g>
   <g id="patch_12">
    <path clip-path="url(#p89302c3515)" d="M 220.035398 156.417641 
Q 217.419354 156.954142 214.590559 157.225511 
Q 211.761764 157.5 208.680821 157.5 
Q 199.493147 157.5 194.127105 155.466288 
Q 188.761062 153.432576 188.761062 149.954679 
Q 188.761062 146.464305 194.127105 144.433712 
Q 199.493147 142.4 208.680821 142.4 
Q 211.761764 142.4 214.590559 142.674489 
Q 217.419354 142.945858 220.035398 143.482359 
L 220.035398 146.492378 
Q 217.395715 145.781202 214.834828 145.450568 
Q 212.273942 145.119934 209.445147 145.119934 
Q 204.370651 145.119934 201.46306 146.408159 
Q 198.563348 147.693266 198.563348 149.954679 
Q 198.563348 152.206734 201.46306 153.49496 
Q 204.370651 154.780066 209.445147 154.780066 
Q 212.273942 154.780066 214.834828 154.449432 
Q 217.395715 154.115679 220.035398 153.404503 
z
" style="fill:#0000ff;"/>
   </g>
   <g id="patch_13">
    <path clip-path="url(#p89302c3515)" d="M 188.761062 21.6 
L 220.035398 21.6 
L 220.035398 45.159366 
L 208.78391 45.159366 
L 208.78391 142.4 
L 200.034369 142.4 
L 200.034369 45.159366 
L 188.761062 45.159366 
z
" style="fill:#ff0000;"/>
   </g>
   <g id="patch_14">
    <path clip-path="url(#p89302c3515)" d="M 252.955752 145.204152 
Q 249.801684 151.352076 246.409309 154.440074 
Q 243.016934 157.5 239.400269 157.5 
Q 231.227728 157.5 226.454572 139.196592 
Q 221.681416 120.893183 221.681416 89.592109 
Q 221.681416 57.92609 226.538681 39.763045 
Q 231.402954 21.6 239.862866 21.6 
Q 243.122069 21.6 246.10792 24.070399 
Q 249.10078 26.512725 251.750197 31.341231 
L 251.750197 58.431398 
Q 249.016672 52.227329 246.311182 49.167403 
Q 243.605693 46.079405 240.886185 46.079405 
Q 235.853695 46.079405 233.127178 57.364635 
Q 230.400662 68.621793 230.400662 89.592109 
Q 230.400662 110.365916 233.029052 121.707292 
Q 235.657442 133.020595 240.493679 133.020595 
Q 241.811379 133.020595 242.939834 132.374923 
Q 244.06829 131.701177 244.965447 130.297542 
L 244.965447 104.863665 
L 239.813802 104.863665 
L 239.813802 82.208986 
L 252.955752 82.208986 
z
" style="fill:#ffa600;"/>
   </g>
   <g id="patch_15">
    <path clip-path="url(#p89302c3515)" d="M 276.26553 146.497 
L 264.237923 146.497 
L 262.338827 157.5 
L 254.60177 157.5 
L 265.651055 97.1 
L 274.826821 97.1 
L 285.876106 157.5 
L 278.145443 157.5 
z
M 266.156202 135.286884 
L 274.328069 135.286884 
L 270.248529 111.261509 
z
" style="fill:#008000;"/>
   </g>
   <g id="patch_16">
    <path clip-path="url(#p89302c3515)" d="M 285.876106 90.268973 
Q 282.722038 93.684487 279.329663 95.400041 
Q 275.937288 97.1 272.320623 97.1 
Q 264.148082 97.1 259.374926 86.93144 
Q 254.60177 76.76288 254.60177 59.373394 
Q 254.60177 41.781161 259.459035 31.69058 
Q 264.323308 21.6 272.78322 21.6 
Q 276.042423 21.6 279.028274 22.972444 
Q 282.021134 24.329291 284.670551 27.011795 
L 284.670551 42.061888 
Q 281.937026 38.615183 279.231536 36.915224 
Q 276.526047 35.199669 273.806539 35.199669 
Q 268.774049 35.199669 266.047532 41.469242 
Q 263.321016 47.723218 263.321016 59.373394 
Q 263.321016 70.914398 265.949406 77.215162 
Q 268.577796 83.500331 273.414033 83.500331 
Q 274.731733 83.500331 275.860188 83.141624 
Q 276.988644 82.767321 277.885801 81.987523 
L 277.885801 67.857591 
L 272.734156 67.857591 
L 272.734156 55.271659 
L 285.876106 55.271659 
z
" style="fill:#ffa600;"/>
   </g>
   <g id="patch_17">
    <path clip-path="url(#p89302c3515)" d="M 318.79646 147.758769 
Q 316.180416 152.587275 313.351621 155.029601 
Q 310.522826 157.5 307.441883 157.5 
Q 298.254209 157.5 292.888166 139.196592 
Q 287.522124 120.893183 287.522124 89.592109 
Q 287.522124 58.178744 292.888166 39.903408 
Q 298.254209 21.6 307.441883 21.6 
Q 310.522826 21.6 313.351621 24.070399 
Q 316.180416 26.512725 318.79646 31.341231 
L 318.79646 58.431398 
Q 316.156777 52.03082 313.59589 49.055113 
Q 311.035004 46.079405 308.206209 46.079405 
Q 303.131713 46.079405 300.224122 57.673435 
Q 297.32441 69.239393 297.32441 89.592109 
Q 297.32441 109.860607 300.224122 121.454637 
Q 303.131713 133.020595 308.206209 133.020595 
Q 311.035004 133.020595 313.59589 130.044887 
Q 316.156777 127.041107 318.79646 120.640529 
z
" style="fill:#0000ff;"/>
   </g>
   <g id="patch_18">
    <path clip-path="url(#p89302c3515)" d="M 342.106238 154.74925 
L 330.078631 154.74925 
L 328.179535 157.5 
L 320.442478 157.5 
L 331.491763 142.4 
L 340.667529 142.4 
L 351.716814 157.5 
L 343.986151 157.5 
z
M 331.99691 151.946721 
L 340.168777 151.946721 
L 336.089237 145.940377 
z
" style="fill:#008000;"/>
   </g>
   <g id="patch_19">
    <path clip-path="url(#p89302c3515)" d="M 351.716814 141.033795 
Q 348.562746 141.716897 345.170371 142.060008 
Q 341.777996 142.4 338.161331 142.4 
Q 329.98879 142.4 325.215634 140.366288 
Q 320.442478 138.332576 320.442478 134.854679 
Q 320.442478 131.336232 325.299743 129.318116 
Q 330.164016 127.3 338.623928 127.3 
Q 341.883131 127.3 344.868982 127.574489 
Q 347.861842 127.845858 350.511259 128.382359 
L 350.511259 131.392378 
Q 347.777734 130.703037 345.072244 130.363045 
Q 342.366755 130.019934 339.647247 130.019934 
Q 334.614757 130.019934 331.88824 131.273848 
Q 329.161724 132.524644 329.161724 134.854679 
Q 329.161724 137.16288 331.790114 138.423032 
Q 334.418504 139.680066 339.254741 139.680066 
Q 340.572441 139.680066 341.700896 139.608325 
Q 342.829351 139.533464 343.726509 139.377505 
L 343.726509 136.551518 
L 338.574864 136.551518 
L 338.574864 134.034332 
L 351.716814 134.034332 
z
" style="fill:#ffa600;"/>
   </g>
   <g id="patch_20">
    <path clip-path="url(#p89302c3515)" d="M 351.716814 119.723487 
Q 349.10077 123.478992 346.271975 125.378579 
Q 343.44318 127.3 340.362237 127.3 
Q 331.174563 127.3 325.80852 113.064016 
Q 320.442478 98.828031 320.442478 74.482751 
Q 320.442478 50.050134 325.80852 35.835984 
Q 331.174563 21.6 340.362237 21.6 
Q 343.44318 21.6 346.271975 23.521421 
Q 349.10077 25.421008 351.716814 29.176513 
L 351.716814 50.246643 
Q 349.077131 45.268416 346.516244 42.953976 
Q 343.955358 40.639537 341.126563 40.639537 
Q 336.052067 40.639537 333.144476 49.657116 
Q 330.244764 58.652861 330.244764 74.482751 
Q 330.244764 90.247139 333.144476 99.264718 
Q 336.052067 108.260463 341.126563 108.260463 
Q 343.955358 108.260463 346.516244 105.946024 
Q 349.077131 103.60975 351.716814 98.631522 
z
" style="fill:#0000ff;"/>
   </g>
   <g id="patch_21">
    <path clip-path="url(#p89302c3515)" d="M 353.362832 112.2 
L 384.637168 112.2 
L 384.637168 121.034762 
L 373.38568 121.034762 
L 373.38568 157.5 
L 364.636139 157.5 
L 364.636139 121.034762 
L 353.362832 121.034762 
z
" style="fill:#ff0000;"/>
   </g>
   <g id="patch_22">
    <path clip-path="url(#p89302c3515)" d="M 384.637168 105.705846 
Q 382.021124 108.92485 379.192329 110.553068 
Q 376.363534 112.2 373.282591 112.2 
Q 364.094917 112.2 358.728874 99.997728 
Q 353.362832 87.795455 353.362832 66.928073 
Q 353.362832 45.985829 358.728874 33.802272 
Q 364.094917 21.6 373.282591 21.6 
Q 376.363534 21.6 379.192329 23.246932 
Q 382.021124 24.87515 384.637168 28.094154 
L 384.637168 46.154266 
Q 381.997485 41.887213 379.436598 39.903408 
Q 376.875712 37.919603 374.046917 37.919603 
Q 368.972421 37.919603 366.06483 45.648957 
Q 363.165118 53.359595 363.165118 66.928073 
Q 363.165118 80.440405 366.06483 88.169758 
Q 368.972421 95.880397 374.046917 95.880397 
Q 376.875712 95.880397 379.436598 93.896592 
Q 381.997485 91.894071 384.637168 87.627019 
z
" style="fill:#0000ff;"/>
   </g>
   <g id="patch_23">
    <path clip-path="url(#p89302c3515)" d="M 417.557522 154.767589 
Q 414.403454 156.133795 411.011079 156.820017 
Q 407.618703 157.5 404.002039 157.5 
Q 395.829498 157.5 391.056342 153.432576 
Q 386.283186 149.365152 386.283186 142.409358 
Q 386.283186 135.372464 391.140451 131.336232 
Q 396.004724 127.3 404.464635 127.3 
Q 407.723839 127.3 410.70969 127.848977 
Q 413.70255 128.391717 416.351967 129.464718 
L 416.351967 135.484755 
Q 413.618442 134.106073 410.912952 133.42609 
Q 408.207463 132.739868 405.487955 132.739868 
Q 400.455465 132.739868 397.728948 135.247697 
Q 395.002432 137.749287 395.002432 142.409358 
Q 395.002432 147.025759 397.630822 149.546065 
Q 400.259212 152.060132 405.095449 152.060132 
Q 406.413149 152.060132 407.541604 151.916649 
Q 408.670059 151.766928 409.567217 151.455009 
L 409.567217 145.803037 
L 404.415572 145.803037 
L 404.415572 140.768663 
L 417.557522 140.768663 
z
" style="fill:#ffa600;"/>
   </g>
   <g id="patch_24">
    <path clip-path="url(#p89302c3515)" d="M 407.946946 119.04775 
L 395.919339 119.04775 
L 394.020243 127.3 
L 386.283186 127.3 
L 397.332471 82 
L 406.508237 82 
L 417.557522 127.3 
L 409.826859 127.3 
z
M 397.837618 110.640163 
L 406.009485 110.640163 
L 401.929945 92.621132 
z
" style="fill:#008000;"/>
   </g>
   <g id="patch_25">
    <path clip-path="url(#p89302c3515)" d="M 417.557522 77.670564 
Q 414.941478 79.816567 412.112683 80.902045 
Q 409.283888 82 406.202945 82 
Q 397.015271 82 391.649228 73.865152 
Q 386.283186 65.730304 386.283186 51.818715 
Q 386.283186 37.85722 391.649228 29.734848 
Q 397.015271 21.6 406.202945 21.6 
Q 409.283888 21.6 412.112683 22.697955 
Q 414.941478 23.783433 417.557522 25.929436 
L 417.557522 37.96951 
Q 414.917839 35.124809 412.356952 33.802272 
Q 409.796066 32.479736 406.967271 32.479736 
Q 401.892775 32.479736 398.985184 37.632638 
Q 396.085472 42.773063 396.085472 51.818715 
Q 396.085472 60.826937 398.985184 65.979839 
Q 401.892775 71.120264 406.967271 71.120264 
Q 409.796066 71.120264 412.356952 69.797728 
Q 414.917839 68.462714 417.557522 65.618013 
z
" style="fill:#0000ff;"/>
   </g>
   <g id="patch_26">
    <path clip-path="url(#p89302c3515)" d="M 450.477876 154.767589 
Q 447.323808 156.133795 443.931433 156.820017 
Q 440.539057 157.5 436.922393 157.5 
Q 428.749852 157.5 423.976696 153.432576 
Q 419.20354 149.365152 419.20354 142.409358 
Q 419.20354 135.372464 424.060805 131.336232 
Q 428.925078 127.3 437.384989 127.3 
Q 440.644193 127.3 443.630044 127.848977 
Q 446.622904 128.391717 449.272321 129.464718 
L 449.272321 135.484755 
Q 446.538796 134.106073 443.833306 133.42609 
Q 441.127817 132.739868 438.408309 132.739868 
Q 433.375819 132.739868 430.649302 135.247697 
Q 427.922786 137.749287 427.922786 142.409358 
Q 427.922786 147.025759 430.551176 149.546065 
Q 433.179565 152.060132 438.015803 152.060132 
Q 439.333503 152.060132 440.461958 151.916649 
Q 441.590413 151.766928 442.487571 151.455009 
L 442.487571 145.803037 
L 437.335926 145.803037 
L 437.335926 140.768663 
L 450.477876 140.768663 
z
" style="fill:#ffa600;"/>
   </g>
   <g id="patch_27">
    <path clip-path="url(#p89302c3515)" d="M 440.8673 119.04775 
L 428.839693 119.04775 
L 426.940597 127.3 
L 419.20354 127.3 
L 430.252825 82 
L 439.428591 82 
L 450.477876 127.3 
L 442.747213 127.3 
z
M 430.757972 110.640163 
L 438.929839 110.640163 
L 434.850299 92.621132 
z
" style="fill:#008000;"/>
   </g>
   <g id="patch_28">
    <path clip-path="url(#p89302c3515)" d="M 450.477876 77.670564 
Q 447.861832 79.816567 445.033037 80.902045 
Q 442.204242 82 439.123298 82 
Q 429.935625 82 424.569582 73.865152 
Q 419.20354 65.730304 419.20354 51.818715 
Q 419.20354 37.85722 424.569582 29.734848 
Q 429.935625 21.6 439.123298 21.6 
Q 442.204242 21.6 445.033037 22.697955 
Q 447.861832 23.783433 450.477876 25.929436 
L 450.477876 37.96951 
Q 447.838193 35.124809 445.277306 33.802272 
Q 442.71642 32.479736 439.887625 32.479736 
Q 434.813129 32.479736 431.905538 37.632638 
Q 429.005826 42.773063 429.005826 51.818715 
Q 429.005826 60.826937 431.905538 65.979839 
Q 434.813129 71.120264 439.887625 71.120264 
Q 442.71642 71.120264 445.277306 69.797728 
Q 447.838193 68.462714 450.477876 65.618013 
z
" style="fill:#0000ff;"/>
   </g>
   <g id="patch_29">
    <path clip-path="url(#p89302c3515)" d="M 473.787654 154.74925 
L 461.760047 154.74925 
L 459.860951 157.5 
L 452.123894 157.5 
L 463.173179 142.4 
L 472.348945 142.4 
L 483.39823 157.5 
L 475.667567 157.5 
z
M 463.678326 151.946721 
L 471.850193 151.946721 
L 467.770653 145.940377 
z
" style="fill:#008000;"/>
   </g>
   <g id="patch_30">
    <path clip-path="url(#p89302c3515)" d="M 483.39823 141.317641 
Q 480.782186 141.854142 477.953391 142.125511 
Q 475.124596 142.4 472.043652 142.4 
Q 462.855979 142.4 457.489936 140.366288 
Q 452.123894 138.332576 452.123894 134.854679 
Q 452.123894 131.364305 457.489936 129.333712 
Q 462.855979 127.3 472.043652 127.3 
Q 475.124596 127.3 477.953391 127.574489 
Q 480.782186 127.845858 483.39823 128.382359 
L 483.39823 131.392378 
Q 480.758547 130.681202 478.19766 130.350568 
Q 475.636773 130.019934 472.807979 130.019934 
Q 467.733483 130.019934 464.825892 131.308159 
Q 461.92618 132.593266 461.92618 134.854679 
Q 461.92618 137.106734 464.825892 138.39496 
Q 467.733483 139.680066 472.807979 139.680066 
Q 475.636773 139.680066 478.19766 139.349432 
Q 480.758547 139.015679 483.39823 138.304503 
z
" style="fill:#0000ff;"/>
   </g>
   <g id="patch_31">
    <path clip-path="url(#p89302c3515)" d="M 452.123894 82 
L 483.39823 82 
L 483.39823 90.834762 
L 472.146742 90.834762 
L 472.146742 127.3 
L 463.397201 127.3 
L 463.397201 90.834762 
L 452.123894 90.834762 
z
" style="fill:#ff0000;"/>
   </g>
   <g id="patch_32">
    <path clip-path="url(#p89302c3515)" d="M 483.39823 76.535179 
Q 480.244162 79.267589 476.851787 80.640033 
Q 473.459411 82 469.842747 82 
Q 461.670206 82 456.89705 73.865152 
Q 452.123894 65.730304 452.123894 51.818715 
Q 452.123894 37.744929 456.981158 29.672464 
Q 461.845432 21.6 470.305343 21.6 
Q 473.564547 21.6 476.550398 22.697955 
Q 479.543258 23.783433 482.192675 25.929436 
L 482.192675 37.96951 
Q 479.45915 35.212146 476.75366 33.852179 
Q 474.048171 32.479736 471.328663 32.479736 
Q 466.296173 32.479736 463.569656 37.495394 
Q 460.84314 42.498575 460.84314 51.818715 
Q 460.84314 61.051518 463.471529 66.09213 
Q 466.099919 71.120264 470.936157 71.120264 
Q 472.253857 71.120264 473.382312 70.833299 
Q 474.510767 70.533857 475.407925 69.910019 
L 475.407925 58.606073 
L 470.25628 58.606073 
L 470.25628 48.537327 
L 483.39823 48.537327 
z
" style="fill:#ffa600;"/>
   </g>
   <g id="patch_33">
    <path clip-path="url(#p89302c3515)" d="M 516.318584 156.417641 
Q 513.70254 156.954142 510.873745 157.225511 
Q 508.04495 157.5 504.964006 157.5 
Q 495.776333 157.5 490.41029 155.466288 
Q 485.044248 153.432576 485.044248 149.954679 
Q 485.044248 146.464305 490.41029 144.433712 
Q 495.776333 142.4 504.964006 142.4 
Q 508.04495 142.4 510.873745 142.674489 
Q 513.70254 142.945858 516.318584 143.482359 
L 516.318584 146.492378 
Q 513.678901 145.781202 511.118014 145.450568 
Q 508.557127 145.119934 505.728333 145.119934 
Q 500.653837 145.119934 497.746246 146.408159 
Q 494.846534 147.693266 494.846534 149.954679 
Q 494.846534 152.206734 497.746246 153.49496 
Q 500.653837 154.780066 505.728333 154.780066 
Q 508.557127 154.780066 511.118014 154.449432 
Q 513.678901 154.115679 516.318584 153.404503 
z
" style="fill:#0000ff;"/>
   </g>
   <g id="patch_34">
    <path clip-path="url(#p89302c3515)" d="M 516.318584 136.935179 
Q 513.164516 139.667589 509.772141 141.040033 
Q 506.379765 142.4 502.763101 142.4 
Q 494.59056 142.4 489.817404 134.265152 
Q 485.044248 126.130304 485.044248 112.218715 
Q 485.044248 98.144929 489.901512 90.072464 
Q 494.765786 82 503.225697 82 
Q 506.484901 82 509.470752 83.097955 
Q 512.463612 84.183433 515.113029 86.329436 
L 515.113029 98.36951 
Q 512.379504 95.612146 509.674014 94.252179 
Q 506.968525 92.879736 504.249017 92.879736 
Q 499.216527 92.879736 496.49001 97.895394 
Q 493.763493 102.898575 493.763493 112.218715 
Q 493.763493 121.451518 496.391883 126.49213 
Q 499.020273 131.520264 503.856511 131.520264 
Q 505.174211 131.520264 506.302666 131.233299 
Q 507.431121 130.933857 508.328279 130.310019 
L 508.328279 119.006073 
L 503.176634 119.006073 
L 503.176634 108.937327 
L 516.318584 108.937327 
z
" style="fill:#ffa600;"/>
   </g>
   <g id="patch_35">
    <path clip-path="url(#p89302c3515)" d="M 485.044248 21.6 
L 516.318584 21.6 
L 516.318584 33.379683 
L 505.067096 33.379683 
L 505.067096 82 
L 496.317555 82 
L 496.317555 33.379683 
L 485.044248 33.379683 
z
" style="fill:#ff0000;"/>
   </g>
   <g id="patch_36">
    <path clip-path="url(#p89302c3515)" d="M 549.238938 156.417641 
Q 546.622894 156.954142 543.794099 157.225511 
Q 540.965304 157.5 537.88436 157.5 
Q 528.696687 157.5 523.330644 155.466288 
Q 517.964602 153.432576 517.964602 149.954679 
Q 517.964602 146.464305 523.330644 144.433712 
Q 528.696687 142.4 537.88436 142.4 
Q 540.965304 142.4 543.794099 142.674489 
Q 546.622894 142.945858 549.238938 143.482359 
L 549.238938 146.492378 
Q 546.599255 145.781202 544.038368 145.450568 
Q 541.477481 145.119934 538.648687 145.119934 
Q 533.574191 145.119934 530.6666 146.408159 
Q 527.766888 147.693266 527.766888 149.954679 
Q 527.766888 152.206734 530.6666 153.49496 
Q 533.574191 154.780066 538.648687 154.780066 
Q 541.477481 154.780066 544.038368 154.449432 
Q 546.599255 154.115679 549.238938 153.404503 
z
" style="fill:#0000ff;"/>
   </g>
   <g id="patch_37">
    <path clip-path="url(#p89302c3515)" d="M 549.238938 139.667589 
Q 546.08487 141.033795 542.692495 141.720017 
Q 539.300119 142.4 535.683455 142.4 
Q 527.510914 142.4 522.737758 138.332576 
Q 517.964602 134.265152 517.964602 127.309358 
Q 517.964602 120.272464 522.821866 116.236232 
Q 527.68614 112.2 536.146051 112.2 
Q 539.405255 112.2 542.391106 112.748977 
Q 545.383966 113.291717 548.033383 114.364718 
L 548.033383 120.384755 
Q 545.299858 119.006073 542.594368 118.32609 
Q 539.888879 117.639868 537.169371 117.639868 
Q 532.136881 117.639868 529.410364 120.147697 
Q 526.683847 122.649287 526.683847 127.309358 
Q 526.683847 131.925759 529.312237 134.446065 
Q 531.940627 136.960132 536.776865 136.960132 
Q 538.094565 136.960132 539.22302 136.816649 
Q 540.351475 136.666928 541.248633 136.355009 
L 541.248633 130.703037 
L 536.096988 130.703037 
L 536.096988 125.668663 
L 549.238938 125.668663 
z
" style="fill:#ffa600;"/>
   </g>
   <g id="patch_38">
    <path clip-path="url(#p89302c3515)" d="M 539.628362 95.695499 
L 527.600755 95.695499 
L 525.701659 112.2 
L 517.964602 112.2 
L 529.013887 21.6 
L 538.189653 21.6 
L 549.238938 112.2 
L 541.508275 112.2 
z
M 529.519034 78.880326 
L 537.690901 78.880326 
L 533.611361 42.842263 
z
" style="fill:#008000;"/>
   </g>
   <g id="patch_39">
    <path clip-path="url(#p89302c3515)" d="M 572.548716 154.74925 
L 560.521109 154.74925 
L 558.622013 157.5 
L 550.884956 157.5 
L 561.934241 142.4 
L 571.110007 142.4 
L 582.159292 157.5 
L 574.428629 157.5 
z
M 562.439387 151.946721 
L 570.611255 151.946721 
L 566.531715 145.940377 
z
" style="fill:#008000;"/>
   </g>
   <g id="patch_40">
    <path clip-path="url(#p89302c3515)" d="M 582.159292 141.033795 
Q 579.005224 141.716897 575.612849 142.060008 
Q 572.220473 142.4 568.603809 142.4 
Q 560.431268 142.4 555.658112 140.366288 
Q 550.884956 138.332576 550.884956 134.854679 
Q 550.884956 131.336232 555.74222 129.318116 
Q 560.606494 127.3 569.066405 127.3 
Q 572.325609 127.3 575.31146 127.574489 
Q 578.30432 127.845858 580.953737 128.382359 
L 580.953737 131.392378 
Q 578.220212 130.703037 575.514722 130.363045 
Q 572.809233 130.019934 570.089725 130.019934 
Q 565.057235 130.019934 562.330718 131.273848 
Q 559.604201 132.524644 559.604201 134.854679 
Q 559.604201 137.16288 562.232591 138.423032 
Q 564.860981 139.680066 569.697219 139.680066 
Q 571.014919 139.680066 572.143374 139.608325 
Q 573.271829 139.533464 574.168986 139.377505 
L 574.168986 136.551518 
L 569.017342 136.551518 
L 569.017342 134.034332 
L 582.159292 134.034332 
z
" style="fill:#ffa600;"/>
   </g>
   <g id="patch_41">
    <path clip-path="url(#p89302c3515)" d="M 550.884956 82 
L 582.159292 82 
L 582.159292 90.834762 
L 570.907804 90.834762 
L 570.907804 127.3 
L 562.158263 127.3 
L 562.158263 90.834762 
L 550.884956 90.834762 
z
" style="fill:#ff0000;"/>
   </g>
   <g id="patch_42">
    <path clip-path="url(#p89302c3515)" d="M 582.159292 77.670564 
Q 579.543248 79.816567 576.714453 80.902045 
Q 573.885658 82 570.804714 82 
Q 561.617041 82 556.250998 73.865152 
Q 550.884956 65.730304 550.884956 51.818715 
Q 550.884956 37.85722 556.250998 29.734848 
Q 561.617041 21.6 570.804714 21.6 
Q 573.885658 21.6 576.714453 22.697955 
Q 579.543248 23.783433 582.159292 25.929436 
L 582.159292 37.96951 
Q 579.519609 35.124809 576.958722 33.802272 
Q 574.397835 32.479736 571.569041 32.479736 
Q 566.494545 32.479736 563.586954 37.632638 
Q 560.687242 42.773063 560.687242 51.818715 
Q 560.687242 60.826937 563.586954 65.979839 
Q 566.494545 71.120264 571.569041 71.120264 
Q 574.397835 71.120264 576.958722 69.797728 
Q 579.519609 68.462714 582.159292 65.618013 
z
" style="fill:#0000ff;"/>
   </g>
   <g id="patch_43">
    <path clip-path="url(#p89302c3515)" d="M 615.079646 156.417641 
Q 612.463602 156.954142 609.634807 157.225511 
Q 606.806012 157.5 603.725068 157.5 
Q 594.537395 157.5 589.171352 155.466288 
Q 583.80531 153.432576 583.80531 149.954679 
Q 583.80531 146.464305 589.171352 144.433712 
Q 594.537395 142.4 603.725068 142.4 
Q 606.806012 142.4 609.634807 142.674489 
Q 612.463602 142.945858 615.079646 143.482359 
L 615.079646 146.492378 
Q 612.439963 145.781202 609.879076 145.450568 
Q 607.318189 145.119934 604.489395 145.119934 
Q 599.414899 145.119934 596.507308 146.408159 
Q 593.607596 147.693266 593.607596 149.954679 
Q 593.607596 152.206734 596.507308 153.49496 
Q 599.414899 154.780066 604.489395 154.780066 
Q 607.318189 154.780066 609.879076 154.449432 
Q 612.439963 154.115679 615.079646 153.404503 
z
" style="fill:#0000ff;"/>
   </g>
   <g id="patch_44">
    <path clip-path="url(#p89302c3515)" d="M 615.079646 141.033795 
Q 611.925578 141.716897 608.533203 142.060008 
Q 605.140827 142.4 601.524163 142.4 
Q 593.351622 142.4 588.578466 140.366288 
Q 583.80531 138.332576 583.80531 134.854679 
Q 583.80531 131.336232 588.662574 129.318116 
Q 593.526848 127.3 601.986759 127.3 
Q 605.245963 127.3 608.231814 127.574489 
Q 611.224674 127.845858 613.874091 128.382359 
L 613.874091 131.392378 
Q 611.140566 130.703037 608.435076 130.363045 
Q 605.729587 130.019934 603.010079 130.019934 
Q 597.977589 130.019934 595.251072 131.273848 
Q 592.524555 132.524644 592.524555 134.854679 
Q 592.524555 137.16288 595.152945 138.423032 
Q 597.781335 139.680066 602.617573 139.680066 
Q 603.935272 139.680066 605.063728 139.608325 
Q 606.192183 139.533464 607.08934 139.377505 
L 607.08934 136.551518 
L 601.937696 136.551518 
L 601.937696 134.034332 
L 615.079646 134.034332 
z
" style="fill:#ffa600;"/>
   </g>
   <g id="patch_45">
    <path clip-path="url(#p89302c3515)" d="M 583.80531 97.1 
L 615.079646 97.1 
L 615.079646 102.989841 
L 603.828158 102.989841 
L 603.828158 127.3 
L 595.078617 127.3 
L 595.078617 102.989841 
L 583.80531 102.989841 
z
" style="fill:#ff0000;"/>
   </g>
   <g id="patch_46">
    <path clip-path="url(#p89302c3515)" d="M 605.46907 83.346249 
L 593.441463 83.346249 
L 591.542367 97.1 
L 583.80531 97.1 
L 594.854595 21.6 
L 604.030361 21.6 
L 615.079646 97.1 
L 607.348983 97.1 
z
M 595.359741 69.333605 
L 603.531609 69.333605 
L 599.452069 39.301886 
z
" style="fill:#008000;"/>
   </g>
   <g id="patch_47">
    <path clip-path="url(#p89302c3515)" d="M 638.389424 154.74925 
L 626.361817 154.74925 
L 624.462721 157.5 
L 616.725664 157.5 
L 627.774949 142.4 
L 636.950715 142.4 
L 648 157.5 
L 640.269337 157.5 
z
M 628.280095 151.946721 
L 636.451963 151.946721 
L 632.372423 145.940377 
z
" style="fill:#008000;"/>
   </g>
   <g id="patch_48">
    <path clip-path="url(#p89302c3515)" d="M 616.725664 127.3 
L 648 127.3 
L 648 130.244921 
L 636.748512 130.244921 
L 636.748512 142.4 
L 627.998971 142.4 
L 627.998971 130.244921 
L 616.725664 130.244921 
z
" style="fill:#ff0000;"/>
   </g>
   <g id="patch_49">
    <path clip-path="url(#p89302c3515)" d="M 648 123.201384 
Q 644.845932 125.250692 641.453557 126.280025 
Q 638.061181 127.3 634.444517 127.3 
Q 626.271976 127.3 621.49882 121.198864 
Q 616.725664 115.097728 616.725664 104.664036 
Q 616.725664 94.108697 621.582928 88.054348 
Q 626.447202 82 634.907113 82 
Q 638.166317 82 641.152168 82.823466 
Q 644.145028 83.637575 646.794445 85.247077 
L 646.794445 94.277133 
Q 644.06092 92.20911 641.35543 91.189134 
Q 638.649941 90.159802 635.930433 90.159802 
Q 630.897943 90.159802 628.171426 93.921545 
Q 625.444909 97.673931 625.444909 104.664036 
Q 625.444909 111.588639 628.073299 115.369097 
Q 630.701689 119.140198 635.537927 119.140198 
Q 636.855626 119.140198 637.984082 118.924974 
Q 639.112537 118.700392 640.009694 118.232514 
L 640.009694 109.754555 
L 634.85805 109.754555 
L 634.85805 102.202995 
L 648 102.202995 
z
" style="fill:#ffa600;"/>
   </g>
   <g id="patch_50">
    <path clip-path="url(#p89302c3515)" d="M 648 77.670564 
Q 645.383956 79.816567 642.555161 80.902045 
Q 639.726366 82 636.645422 82 
Q 627.457749 82 622.091706 73.865152 
Q 616.725664 65.730304 616.725664 51.818715 
Q 616.725664 37.85722 622.091706 29.734848 
Q 627.457749 21.6 636.645422 21.6 
Q 639.726366 21.6 642.555161 22.697955 
Q 645.383956 23.783433 648 25.929436 
L 648 37.96951 
Q 645.360317 35.124809 642.79943 33.802272 
Q 640.238543 32.479736 637.409749 32.479736 
Q 632.335253 32.479736 629.427662 37.632638 
Q 626.52795 42.773063 626.52795 51.818715 
Q 626.52795 60.826937 629.427662 65.979839 
Q 632.335253 71.120264 637.409749 71.120264 
Q 640.238543 71.120264 642.79943 69.797728 
Q 645.360317 68.462714 648 65.618013 
z
" style="fill:#0000ff;"/>
   </g>
  </g>
 </g>
 <defs>
  <clipPath id="p89302c3515">
   <rect height="135.9" width="558" x="90" y="21.6"/>
  </clipPath>
 </defs>
</svg>
