<?xml version="1.0" encoding="utf-8" standalone="no"?>
<!DOCTYPE svg PUBLIC "-//W3C//DTD SVG 1.1//EN"
  "http://www.w3.org/Graphics/SVG/1.1/DTD/svg11.dtd">
<!-- Created with matplotlib (https://matplotlib.org/) -->
<svg height="180pt" version="1.1" viewBox="0 0 720 180" width="720pt" xmlns="http://www.w3.org/2000/svg" xmlns:xlink="http://www.w3.org/1999/xlink">
 <metadata>
  <rdf:RDF xmlns:cc="http://creativecommons.org/ns#" xmlns:dc="http://purl.org/dc/elements/1.1/" xmlns:rdf="http://www.w3.org/1999/02/22-rdf-syntax-ns#">
   <cc:Work>
    <dc:type rdf:resource="http://purl.org/dc/dcmitype/StillImage"/>
    <dc:date>2021-08-04T23:33:26.468900</dc:date>
    <dc:format>image/svg+xml</dc:format>
    <dc:creator>
     <cc:Agent>
      <dc:title>Matplotlib v3.3.2, https://matplotlib.org/</dc:title>
     </cc:Agent>
    </dc:creator>
   </cc:Work>
  </rdf:RDF>
 </metadata>
 <defs>
  <style type="text/css">*{stroke-linecap:butt;stroke-linejoin:round;}</style>
 </defs>
 <g id="figure_1">
  <g id="patch_1">
   <path d="M 0 180 
L 720 180 
L 720 0 
L 0 0 
z
" style="fill:none;"/>
  </g>
  <g id="axes_1">
   <g id="line2d_1">
    <path clip-path="url(#pe8104cd37e)" d="M 90 157.5 
L 648 157.5 
" style="fill:none;stroke:#000000;stroke-linecap:square;stroke-width:0.5;"/>
   </g>
   <g id="patch_2">
    <path clip-path="url(#pe8104cd37e)" d="M 111.66376 154.74925 
L 99.636153 154.74925 
L 97.737057 157.5 
L 90 157.5 
L 101.049285 142.4 
L 110.225051 142.4 
L 121.274336 157.5 
L 113.543673 157.5 
z
M 101.554432 151.946721 
L 109.726299 151.946721 
L 105.64676 145.940377 
z
" style="fill:#008000;"/>
   </g>
   <g id="patch_3">
    <path clip-path="url(#pe8104cd37e)" d="M 121.274336 140.235282 
Q 118.658292 141.308283 115.829497 141.851023 
Q 113.000702 142.4 109.919759 142.4 
Q 100.732085 142.4 95.366043 138.332576 
Q 90 134.265152 90 127.309358 
Q 90 120.32861 95.366043 116.267424 
Q 100.732085 112.2 109.919759 112.2 
Q 113.000702 112.2 115.829497 112.748977 
Q 118.658292 113.291717 121.274336 114.364718 
L 121.274336 120.384755 
Q 118.634653 118.962404 116.073766 118.301136 
Q 113.51288 117.639868 110.684085 117.639868 
Q 105.609589 117.639868 102.701998 120.216319 
Q 99.802286 122.786532 99.802286 127.309358 
Q 99.802286 131.813468 102.701998 134.389919 
Q 105.609589 136.960132 110.684085 136.960132 
Q 113.51288 136.960132 116.073766 136.298864 
Q 118.634653 135.631357 121.274336 134.209006 
z
" style="fill:#0000ff;"/>
   </g>
   <g id="patch_4">
    <path clip-path="url(#pe8104cd37e)" d="M 90 51.8 
L 121.274336 51.8 
L 121.274336 63.579683 
L 110.022848 63.579683 
L 110.022848 112.2 
L 101.273307 112.2 
L 101.273307 63.579683 
L 90 63.579683 
z
" style="fill:#ff0000;"/>
   </g>
   <g id="patch_5">
    <path clip-path="url(#pe8104cd37e)" d="M 122.920354 142.4 
L 154.19469 142.4 
L 154.19469 145.344921 
L 142.943202 145.344921 
L 142.943202 157.5 
L 134.193661 157.5 
L 134.193661 145.344921 
L 122.920354 145.344921 
z
" style="fill:#ff0000;"/>
   </g>
   <g id="patch_6">
    <path clip-path="url(#pe8104cd37e)" d="M 144.584114 136.8985 
L 132.556507 136.8985 
L 130.657411 142.4 
L 122.920354 142.4 
L 133.969639 112.2 
L 143.145405 112.2 
L 154.19469 142.4 
L 146.464027 142.4 
z
M 134.474786 131.293442 
L 142.646653 131.293442 
L 138.567114 119.280754 
z
" style="fill:#008000;"/>
   </g>
   <g id="patch_7">
    <path clip-path="url(#pe8104cd37e)" d="M 154.19469 106.735179 
Q 151.040622 109.467589 147.648247 110.840033 
Q 144.255872 112.2 140.639207 112.2 
Q 132.466666 112.2 127.69351 104.065152 
Q 122.920354 95.930304 122.920354 82.018715 
Q 122.920354 67.944929 127.777619 59.872464 
Q 132.641892 51.8 141.101804 51.8 
Q 144.361007 51.8 147.346858 52.897955 
Q 150.339718 53.983433 152.989135 56.129436 
L 152.989135 68.16951 
Q 150.25561 65.412146 147.55012 64.052179 
Q 144.844631 62.679736 142.125123 62.679736 
Q 137.092633 62.679736 134.366116 67.695394 
Q 131.6396 72.698575 131.6396 82.018715 
Q 131.6396 91.251518 134.26799 96.29213 
Q 136.89638 101.320264 141.732617 101.320264 
Q 143.050317 101.320264 144.178772 101.033299 
Q 145.307228 100.733857 146.204385 100.110019 
L 146.204385 88.806073 
L 141.05274 88.806073 
L 141.05274 78.737327 
L 154.19469 78.737327 
z
" style="fill:#ffa600;"/>
   </g>
   <g id="patch_8">
    <path clip-path="url(#pe8104cd37e)" d="M 187.115044 156.417641 
Q 184.499 156.954142 181.670205 157.225511 
Q 178.84141 157.5 175.760467 157.5 
Q 166.572793 157.5 161.206751 155.466288 
Q 155.840708 153.432576 155.840708 149.954679 
Q 155.840708 146.464305 161.206751 144.433712 
Q 166.572793 142.4 175.760467 142.4 
Q 178.84141 142.4 181.670205 142.674489 
Q 184.499 142.945858 187.115044 143.482359 
L 187.115044 146.492378 
Q 184.475361 145.781202 181.914474 145.450568 
Q 179.353588 145.119934 176.524793 145.119934 
Q 171.450297 145.119934 168.542706 146.408159 
Q 165.642994 147.693266 165.642994 149.954679 
Q 165.642994 152.206734 168.542706 153.49496 
Q 171.450297 154.780066 176.524793 154.780066 
Q 179.353588 154.780066 181.914474 154.449432 
Q 184.475361 154.115679 187.115044 153.404503 
z
" style="fill:#0000ff;"/>
   </g>
   <g id="patch_9">
    <path clip-path="url(#pe8104cd37e)" d="M 187.115044 141.033795 
Q 183.960976 141.716897 180.568601 142.060008 
Q 177.176226 142.4 173.559561 142.4 
Q 165.38702 142.4 160.613864 140.366288 
Q 155.840708 138.332576 155.840708 134.854679 
Q 155.840708 131.336232 160.697973 129.318116 
Q 165.562246 127.3 174.022158 127.3 
Q 177.281361 127.3 180.267212 127.574489 
Q 183.260072 127.845858 185.909489 128.382359 
L 185.909489 131.392378 
Q 183.175964 130.703037 180.470474 130.363045 
Q 177.764985 130.019934 175.045477 130.019934 
Q 170.012987 130.019934 167.28647 131.273848 
Q 164.559954 132.524644 164.559954 134.854679 
Q 164.559954 137.16288 167.188344 138.423032 
Q 169.816734 139.680066 174.652971 139.680066 
Q 175.970671 139.680066 177.099126 139.608325 
Q 178.227582 139.533464 179.124739 139.377505 
L 179.124739 136.551518 
L 173.973094 136.551518 
L 173.973094 134.034332 
L 187.115044 134.034332 
z
" style="fill:#ffa600;"/>
   </g>
   <g id="patch_10">
    <path clip-path="url(#pe8104cd37e)" d="M 155.840708 51.8 
L 187.115044 51.8 
L 187.115044 66.524604 
L 175.863556 66.524604 
L 175.863556 127.3 
L 167.114015 127.3 
L 167.114015 66.524604 
L 155.840708 66.524604 
z
" style="fill:#ff0000;"/>
   </g>
   <g id="patch_11">
    <path clip-path="url(#pe8104cd37e)" d="M 220.035398 156.417641 
Q 217.419354 156.954142 214.590559 157.225511 
Q 211.761764 157.5 208.680821 157.5 
Q 199.493147 157.5 194.127105 155.466288 
Q 188.761062 153.432576 188.761062 149.954679 
Q 188.761062 146.464305 194.127105 144.433712 
Q 199.493147 142.4 208.680821 142.4 
Q 211.761764 142.4 214.590559 142.674489 
Q 217.419354 142.945858 220.035398 143.482359 
L 220.035398 146.492378 
Q 217.395715 145.781202 214.834828 145.450568 
Q 212.273942 145.119934 209.445147 145.119934 
Q 204.370651 145.119934 201.46306 146.408159 
Q 198.563348 147.693266 198.563348 149.954679 
Q 198.563348 152.206734 201.46306 153.49496 
Q 204.370651 154.780066 209.445147 154.780066 
Q 212.273942 154.780066 214.834828 154.449432 
Q 217.395715 154.115679 220.035398 153.404503 
z
" style="fill:#0000ff;"/>
   </g>
   <g id="patch_12">
    <path clip-path="url(#pe8104cd37e)" d="M 210.424822 136.8985 
L 198.397215 136.8985 
L 196.498119 142.4 
L 188.761062 142.4 
L 199.810347 112.2 
L 208.986113 112.2 
L 220.035398 142.4 
L 212.304735 142.4 
z
M 200.315494 131.293442 
L 208.487361 131.293442 
L 204.407821 119.280754 
z
" style="fill:#008000;"/>
   </g>
   <g id="patch_13">
    <path clip-path="url(#pe8104cd37e)" d="M 188.761062 51.8 
L 220.035398 51.8 
L 220.035398 63.579683 
L 208.78391 63.579683 
L 208.78391 112.2 
L 200.034369 112.2 
L 200.034369 63.579683 
L 188.761062 63.579683 
z
" style="fill:#ff0000;"/>
   </g>
   <g id="patch_14">
    <path clip-path="url(#pe8104cd37e)" d="M 252.955752 156.133795 
Q 249.801684 156.816897 246.409309 157.160008 
Q 243.016934 157.5 239.400269 157.5 
Q 231.227728 157.5 226.454572 155.466288 
Q 221.681416 153.432576 221.681416 149.954679 
Q 221.681416 146.436232 226.538681 144.418116 
Q 231.402954 142.4 239.862866 142.4 
Q 243.122069 142.4 246.10792 142.674489 
Q 249.10078 142.945858 251.750197 143.482359 
L 251.750197 146.492378 
Q 249.016672 145.803037 246.311182 145.463045 
Q 243.605693 145.119934 240.886185 145.119934 
Q 235.853695 145.119934 233.127178 146.373848 
Q 230.400662 147.624644 230.400662 149.954679 
Q 230.400662 152.26288 233.029052 153.523032 
Q 235.657442 154.780066 240.493679 154.780066 
Q 241.811379 154.780066 242.939834 154.708325 
Q 244.06829 154.633464 244.965447 154.477505 
L 244.965447 151.651518 
L 239.813802 151.651518 
L 239.813802 149.134332 
L 252.955752 149.134332 
z
" style="fill:#ffa600;"/>
   </g>
   <g id="patch_15">
    <path clip-path="url(#pe8104cd37e)" d="M 243.345176 136.8985 
L 231.317569 136.8985 
L 229.418473 142.4 
L 221.681416 142.4 
L 232.730701 112.2 
L 241.906467 112.2 
L 252.955752 142.4 
L 245.225089 142.4 
z
M 233.235848 131.293442 
L 241.407715 131.293442 
L 237.328175 119.280754 
z
" style="fill:#008000;"/>
   </g>
   <g id="patch_16">
    <path clip-path="url(#pe8104cd37e)" d="M 221.681416 51.8 
L 252.955752 51.8 
L 252.955752 63.579683 
L 241.704264 63.579683 
L 241.704264 112.2 
L 232.954723 112.2 
L 232.954723 63.579683 
L 221.681416 63.579683 
z
" style="fill:#ff0000;"/>
   </g>
   <g id="patch_17">
    <path clip-path="url(#pe8104cd37e)" d="M 276.26553 151.9985 
L 264.237923 151.9985 
L 262.338827 157.5 
L 254.60177 157.5 
L 265.651055 127.3 
L 274.826821 127.3 
L 285.876106 157.5 
L 278.145443 157.5 
z
M 266.156202 146.393442 
L 274.328069 146.393442 
L 270.248529 134.380754 
z
" style="fill:#008000;"/>
   </g>
   <g id="patch_18">
    <path clip-path="url(#pe8104cd37e)" d="M 285.876106 120.468973 
Q 282.722038 123.884487 279.329663 125.600041 
Q 275.937288 127.3 272.320623 127.3 
Q 264.148082 127.3 259.374926 117.13144 
Q 254.60177 106.96288 254.60177 89.573394 
Q 254.60177 71.981161 259.459035 61.89058 
Q 264.323308 51.8 272.78322 51.8 
Q 276.042423 51.8 279.028274 53.172444 
Q 282.021134 54.529291 284.670551 57.211795 
L 284.670551 72.261888 
Q 281.937026 68.815183 279.231536 67.115224 
Q 276.526047 65.399669 273.806539 65.399669 
Q 268.774049 65.399669 266.047532 71.669242 
Q 263.321016 77.923218 263.321016 89.573394 
Q 263.321016 101.114398 265.949406 107.415162 
Q 268.577796 113.700331 273.414033 113.700331 
Q 274.731733 113.700331 275.860188 113.341624 
Q 276.988644 112.967321 277.885801 112.187523 
L 277.885801 98.057591 
L 272.734156 98.057591 
L 272.734156 85.471659 
L 285.876106 85.471659 
z
" style="fill:#ffa600;"/>
   </g>
   <g id="patch_19">
    <path clip-path="url(#pe8104cd37e)" d="M 287.522124 142.4 
L 318.79646 142.4 
L 318.79646 145.344921 
L 307.544972 145.344921 
L 307.544972 157.5 
L 298.795431 157.5 
L 298.795431 145.344921 
L 287.522124 145.344921 
z
" style="fill:#ff0000;"/>
   </g>
   <g id="patch_20">
    <path clip-path="url(#pe8104cd37e)" d="M 309.185884 134.14775 
L 297.158277 134.14775 
L 295.259181 142.4 
L 287.522124 142.4 
L 298.571409 97.1 
L 307.747175 97.1 
L 318.79646 142.4 
L 311.065797 142.4 
z
M 299.076556 125.740163 
L 307.248423 125.740163 
L 303.168883 107.721132 
z
" style="fill:#008000;"/>
   </g>
   <g id="patch_21">
    <path clip-path="url(#pe8104cd37e)" d="M 318.79646 93.001384 
Q 315.642392 95.050692 312.250017 96.080025 
Q 308.857642 97.1 305.240977 97.1 
Q 297.068436 97.1 292.29528 90.998864 
Q 287.522124 84.897728 287.522124 74.464036 
Q 287.522124 63.908697 292.379389 57.854348 
Q 297.243662 51.8 305.703574 51.8 
Q 308.962777 51.8 311.948628 52.623466 
Q 314.941488 53.437575 317.590905 55.047077 
L 317.590905 64.077133 
Q 314.85738 62.00911 312.15189 60.989134 
Q 309.446401 59.959802 306.726893 59.959802 
Q 301.694403 59.959802 298.967886 63.721545 
Q 296.24137 67.473931 296.24137 74.464036 
Q 296.24137 81.388639 298.86976 85.169097 
Q 301.49815 88.940198 306.334387 88.940198 
Q 307.652087 88.940198 308.780542 88.724974 
Q 309.908998 88.500392 310.806155 88.032514 
L 310.806155 79.554555 
L 305.65451 79.554555 
L 305.65451 72.002995 
L 318.79646 72.002995 
z
" style="fill:#ffa600;"/>
   </g>
   <g id="patch_22">
    <path clip-path="url(#pe8104cd37e)" d="M 342.106238 146.497 
L 330.078631 146.497 
L 328.179535 157.5 
L 320.442478 157.5 
L 331.491763 97.1 
L 340.667529 97.1 
L 351.716814 157.5 
L 343.986151 157.5 
z
M 331.99691 135.286884 
L 340.168777 135.286884 
L 336.089237 111.261509 
z
" style="fill:#008000;"/>
   </g>
   <g id="patch_23">
    <path clip-path="url(#pe8104cd37e)" d="M 351.716814 91.688205 
Q 349.10077 94.370709 346.271975 95.727556 
Q 343.44318 97.1 340.362237 97.1 
Q 331.174563 97.1 325.80852 86.93144 
Q 320.442478 76.76288 320.442478 59.373394 
Q 320.442478 41.921524 325.80852 31.76856 
Q 331.174563 21.6 340.362237 21.6 
Q 343.44318 21.6 346.271975 22.972444 
Q 349.10077 24.329291 351.716814 27.011795 
L 351.716814 42.061888 
Q 349.077131 38.506011 346.516244 36.85284 
Q 343.955358 35.199669 341.126563 35.199669 
Q 336.052067 35.199669 333.144476 41.640797 
Q 330.244764 48.066329 330.244764 59.373394 
Q 330.244764 70.633671 333.144476 77.074799 
Q 336.052067 83.500331 341.126563 83.500331 
Q 343.955358 83.500331 346.516244 81.84716 
Q 349.077131 80.178393 351.716814 76.622516 
z
" style="fill:#0000ff;"/>
   </g>
   <g id="patch_24">
    <path clip-path="url(#pe8104cd37e)" d="M 375.026592 132.743249 
L 362.998985 132.743249 
L 361.099889 157.5 
L 353.362832 157.5 
L 364.412117 21.6 
L 373.587883 21.6 
L 384.637168 157.5 
L 376.906505 157.5 
z
M 364.917264 107.520489 
L 373.089131 107.520489 
L 369.009591 53.463395 
z
" style="fill:#008000;"/>
   </g>
   <g id="patch_25">
    <path clip-path="url(#pe8104cd37e)" d="M 386.283186 127.3 
L 417.557522 127.3 
L 417.557522 133.189841 
L 406.306034 133.189841 
L 406.306034 157.5 
L 397.556493 157.5 
L 397.556493 133.189841 
L 386.283186 133.189841 
z
" style="fill:#ff0000;"/>
   </g>
   <g id="patch_26">
    <path clip-path="url(#pe8104cd37e)" d="M 417.557522 124.052923 
Q 414.941478 125.662425 412.112683 126.476534 
Q 409.283888 127.3 406.202945 127.3 
Q 397.015271 127.3 391.649228 121.198864 
Q 386.283186 115.097728 386.283186 104.664036 
Q 386.283186 94.192915 391.649228 88.101136 
Q 397.015271 82 406.202945 82 
Q 409.283888 82 412.112683 82.823466 
Q 414.941478 83.637575 417.557522 85.247077 
L 417.557522 94.277133 
Q 414.917839 92.143607 412.356952 91.151704 
Q 409.796066 90.159802 406.967271 90.159802 
Q 401.892775 90.159802 398.985184 94.024478 
Q 396.085472 97.879798 396.085472 104.664036 
Q 396.085472 111.420202 398.985184 115.284879 
Q 401.892775 119.140198 406.967271 119.140198 
Q 409.796066 119.140198 412.356952 118.148296 
Q 414.917839 117.147036 417.557522 115.01351 
z
" style="fill:#0000ff;"/>
   </g>
   <g id="patch_27">
    <path clip-path="url(#pe8104cd37e)" d="M 407.946946 70.997 
L 395.919339 70.997 
L 394.020243 82 
L 386.283186 82 
L 397.332471 21.6 
L 406.508237 21.6 
L 417.557522 82 
L 409.826859 82 
z
M 397.837618 59.786884 
L 406.009485 59.786884 
L 401.929945 35.761509 
z
" style="fill:#008000;"/>
   </g>
   <g id="patch_28">
    <path clip-path="url(#pe8104cd37e)" d="M 440.8673 151.9985 
L 428.839693 151.9985 
L 426.940597 157.5 
L 419.20354 157.5 
L 430.252825 127.3 
L 439.428591 127.3 
L 450.477876 157.5 
L 442.747213 157.5 
z
M 430.757972 146.393442 
L 438.929839 146.393442 
L 434.850299 134.380754 
z
" style="fill:#008000;"/>
   </g>
   <g id="patch_29">
    <path clip-path="url(#pe8104cd37e)" d="M 450.477876 119.723487 
Q 447.861832 123.478992 445.033037 125.378579 
Q 442.204242 127.3 439.123298 127.3 
Q 429.935625 127.3 424.569582 113.064016 
Q 419.20354 98.828031 419.20354 74.482751 
Q 419.20354 50.050134 424.569582 35.835984 
Q 429.935625 21.6 439.123298 21.6 
Q 442.204242 21.6 445.033037 23.521421 
Q 447.861832 25.421008 450.477876 29.176513 
L 450.477876 50.246643 
Q 447.838193 45.268416 445.277306 42.953976 
Q 442.71642 40.639537 439.887625 40.639537 
Q 434.813129 40.639537 431.905538 49.657116 
Q 429.005826 58.652861 429.005826 74.482751 
Q 429.005826 90.247139 431.905538 99.264718 
Q 434.813129 108.260463 439.887625 108.260463 
Q 442.71642 108.260463 445.277306 105.946024 
Q 447.838193 103.60975 450.477876 98.631522 
z
" style="fill:#0000ff;"/>
   </g>
   <g id="patch_30">
    <path clip-path="url(#pe8104cd37e)" d="M 473.787654 132.743249 
L 461.760047 132.743249 
L 459.860951 157.5 
L 452.123894 157.5 
L 463.173179 21.6 
L 472.348945 21.6 
L 483.39823 157.5 
L 475.667567 157.5 
z
M 463.678326 107.520489 
L 471.850193 107.520489 
L 467.770653 53.463395 
z
" style="fill:#008000;"/>
   </g>
   <g id="patch_31">
    <path clip-path="url(#pe8104cd37e)" d="M 485.044248 21.6 
L 516.318584 21.6 
L 516.318584 48.104286 
L 505.067096 48.104286 
L 505.067096 157.5 
L 496.317555 157.5 
L 496.317555 48.104286 
L 485.044248 48.104286 
z
" style="fill:#ff0000;"/>
   </g>
   <g id="patch_32">
    <path clip-path="url(#pe8104cd37e)" d="M 549.238938 145.204152 
Q 546.08487 151.352076 542.692495 154.440074 
Q 539.300119 157.5 535.683455 157.5 
Q 527.510914 157.5 522.737758 139.196592 
Q 517.964602 120.893183 517.964602 89.592109 
Q 517.964602 57.92609 522.821866 39.763045 
Q 527.68614 21.6 536.146051 21.6 
Q 539.405255 21.6 542.391106 24.070399 
Q 545.383966 26.512725 548.033383 31.341231 
L 548.033383 58.431398 
Q 545.299858 52.227329 542.594368 49.167403 
Q 539.888879 46.079405 537.169371 46.079405 
Q 532.136881 46.079405 529.410364 57.364635 
Q 526.683847 68.621793 526.683847 89.592109 
Q 526.683847 110.365916 529.312237 121.707292 
Q 531.940627 133.020595 536.776865 133.020595 
Q 538.094565 133.020595 539.22302 132.374923 
Q 540.351475 131.701177 541.248633 130.297542 
L 541.248633 104.863665 
L 536.096988 104.863665 
L 536.096988 82.208986 
L 549.238938 82.208986 
z
" style="fill:#ffa600;"/>
   </g>
   <g id="patch_33">
    <path clip-path="url(#pe8104cd37e)" d="M 582.159292 145.204152 
Q 579.005224 151.352076 575.612849 154.440074 
Q 572.220473 157.5 568.603809 157.5 
Q 560.431268 157.5 555.658112 139.196592 
Q 550.884956 120.893183 550.884956 89.592109 
Q 550.884956 57.92609 555.74222 39.763045 
Q 560.606494 21.6 569.066405 21.6 
Q 572.325609 21.6 575.31146 24.070399 
Q 578.30432 26.512725 580.953737 31.341231 
L 580.953737 58.431398 
Q 578.220212 52.227329 575.514722 49.167403 
Q 572.809233 46.079405 570.089725 46.079405 
Q 565.057235 46.079405 562.330718 57.364635 
Q 559.604201 68.621793 559.604201 89.592109 
Q 559.604201 110.365916 562.232591 121.707292 
Q 564.860981 133.020595 569.697219 133.020595 
Q 571.014919 133.020595 572.143374 132.374923 
Q 573.271829 131.701177 574.168986 130.297542 
L 574.168986 104.863665 
L 569.017342 104.863665 
L 569.017342 82.208986 
L 582.159292 82.208986 
z
" style="fill:#ffa600;"/>
   </g>
   <g id="patch_34">
    <path clip-path="url(#pe8104cd37e)" d="M 605.46907 146.497 
L 593.441463 146.497 
L 591.542367 157.5 
L 583.80531 157.5 
L 594.854595 97.1 
L 604.030361 97.1 
L 615.079646 157.5 
L 607.348983 157.5 
z
M 595.359741 135.286884 
L 603.531609 135.286884 
L 599.452069 111.261509 
z
" style="fill:#008000;"/>
   </g>
   <g id="patch_35">
    <path clip-path="url(#pe8104cd37e)" d="M 615.079646 91.688205 
Q 612.463602 94.370709 609.634807 95.727556 
Q 606.806012 97.1 603.725068 97.1 
Q 594.537395 97.1 589.171352 86.93144 
Q 583.80531 76.76288 583.80531 59.373394 
Q 583.80531 41.921524 589.171352 31.76856 
Q 594.537395 21.6 603.725068 21.6 
Q 606.806012 21.6 609.634807 22.972444 
Q 612.463602 24.329291 615.079646 27.011795 
L 615.079646 42.061888 
Q 612.439963 38.506011 609.879076 36.85284 
Q 607.318189 35.199669 604.489395 35.199669 
Q 599.414899 35.199669 596.507308 41.640797 
Q 593.607596 48.066329 593.607596 59.373394 
Q 593.607596 70.633671 596.507308 77.074799 
Q 599.414899 83.500331 604.489395 83.500331 
Q 607.318189 83.500331 609.879076 81.84716 
Q 612.439963 80.178393 615.079646 76.622516 
z
" style="fill:#0000ff;"/>
   </g>
   <g id="patch_36">
    <path clip-path="url(#pe8104cd37e)" d="M 648 154.767589 
Q 644.845932 156.133795 641.453557 156.820017 
Q 638.061181 157.5 634.444517 157.5 
Q 626.271976 157.5 621.49882 153.432576 
Q 616.725664 149.365152 616.725664 142.409358 
Q 616.725664 135.372464 621.582928 131.336232 
Q 626.447202 127.3 634.907113 127.3 
Q 638.166317 127.3 641.152168 127.848977 
Q 644.145028 128.391717 646.794445 129.464718 
L 646.794445 135.484755 
Q 644.06092 134.106073 641.35543 133.42609 
Q 638.649941 132.739868 635.930433 132.739868 
Q 630.897943 132.739868 628.171426 135.247697 
Q 625.444909 137.749287 625.444909 142.409358 
Q 625.444909 147.025759 628.073299 149.546065 
Q 630.701689 152.060132 635.537927 152.060132 
Q 636.855626 152.060132 637.984082 151.916649 
Q 639.112537 151.766928 640.009694 151.455009 
L 640.009694 145.803037 
L 634.85805 145.803037 
L 634.85805 140.768663 
L 648 140.768663 
z
" style="fill:#ffa600;"/>
   </g>
   <g id="patch_37">
    <path clip-path="url(#pe8104cd37e)" d="M 638.389424 119.04775 
L 626.361817 119.04775 
L 624.462721 127.3 
L 616.725664 127.3 
L 627.774949 82 
L 636.950715 82 
L 648 127.3 
L 640.269337 127.3 
z
M 628.280095 110.640163 
L 636.451963 110.640163 
L 632.372423 92.621132 
z
" style="fill:#008000;"/>
   </g>
   <g id="patch_38">
    <path clip-path="url(#pe8104cd37e)" d="M 616.725664 21.6 
L 648 21.6 
L 648 33.379683 
L 636.748512 33.379683 
L 636.748512 82 
L 627.998971 82 
L 627.998971 33.379683 
L 616.725664 33.379683 
z
" style="fill:#ff0000;"/>
   </g>
  </g>
 </g>
 <defs>
  <clipPath id="pe8104cd37e">
   <rect height="135.9" width="558" x="90" y="21.6"/>
  </clipPath>
 </defs>
</svg>
