<?xml version="1.0" encoding="utf-8" standalone="no"?>
<!DOCTYPE svg PUBLIC "-//W3C//DTD SVG 1.1//EN"
  "http://www.w3.org/Graphics/SVG/1.1/DTD/svg11.dtd">
<!-- Created with matplotlib (https://matplotlib.org/) -->
<svg height="180pt" version="1.1" viewBox="0 0 720 180" width="720pt" xmlns="http://www.w3.org/2000/svg" xmlns:xlink="http://www.w3.org/1999/xlink">
 <metadata>
  <rdf:RDF xmlns:cc="http://creativecommons.org/ns#" xmlns:dc="http://purl.org/dc/elements/1.1/" xmlns:rdf="http://www.w3.org/1999/02/22-rdf-syntax-ns#">
   <cc:Work>
    <dc:type rdf:resource="http://purl.org/dc/dcmitype/StillImage"/>
    <dc:date>2021-08-04T23:33:38.377582</dc:date>
    <dc:format>image/svg+xml</dc:format>
    <dc:creator>
     <cc:Agent>
      <dc:title>Matplotlib v3.3.2, https://matplotlib.org/</dc:title>
     </cc:Agent>
    </dc:creator>
   </cc:Work>
  </rdf:RDF>
 </metadata>
 <defs>
  <style type="text/css">*{stroke-linecap:butt;stroke-linejoin:round;}</style>
 </defs>
 <g id="figure_1">
  <g id="patch_1">
   <path d="M 0 180 
L 720 180 
L 720 0 
L 0 0 
z
" style="fill:none;"/>
  </g>
  <g id="axes_1">
   <g id="line2d_1">
    <path clip-path="url(#p884e61de4a)" d="M 90 157.5 
L 648 157.5 
" style="fill:none;stroke:#000000;stroke-linecap:square;stroke-width:0.5;"/>
   </g>
   <g id="patch_2">
    <path clip-path="url(#p884e61de4a)" d="M 121.274336 156.417641 
Q 118.658292 156.954142 115.829497 157.225511 
Q 113.000702 157.5 109.919759 157.5 
Q 100.732085 157.5 95.366043 155.466288 
Q 90 153.432576 90 149.954679 
Q 90 146.464305 95.366043 144.433712 
Q 100.732085 142.4 109.919759 142.4 
Q 113.000702 142.4 115.829497 142.674489 
Q 118.658292 142.945858 121.274336 143.482359 
L 121.274336 146.492378 
Q 118.634653 145.781202 116.073766 145.450568 
Q 113.51288 145.119934 110.684085 145.119934 
Q 105.609589 145.119934 102.701998 146.408159 
Q 99.802286 147.693266 99.802286 149.954679 
Q 99.802286 152.206734 102.701998 153.49496 
Q 105.609589 154.780066 110.684085 154.780066 
Q 113.51288 154.780066 116.073766 154.449432 
Q 118.634653 154.115679 121.274336 153.404503 
z
" style="fill:#0000ff;"/>
   </g>
   <g id="patch_3">
    <path clip-path="url(#p884e61de4a)" d="M 122.920354 142.4 
L 154.19469 142.4 
L 154.19469 145.344921 
L 142.943202 145.344921 
L 142.943202 157.5 
L 134.193661 157.5 
L 134.193661 145.344921 
L 122.920354 145.344921 
z
" style="fill:#ff0000;"/>
   </g>
   <g id="patch_4">
    <path clip-path="url(#p884e61de4a)" d="M 155.840708 142.4 
L 187.115044 142.4 
L 187.115044 145.344921 
L 175.863556 145.344921 
L 175.863556 157.5 
L 167.114015 157.5 
L 167.114015 145.344921 
L 155.840708 145.344921 
z
" style="fill:#ff0000;"/>
   </g>
   <g id="patch_5">
    <path clip-path="url(#p884e61de4a)" d="M 210.424822 154.74925 
L 198.397215 154.74925 
L 196.498119 157.5 
L 188.761062 157.5 
L 199.810347 142.4 
L 208.986113 142.4 
L 220.035398 157.5 
L 212.304735 157.5 
z
M 200.315494 151.946721 
L 208.487361 151.946721 
L 204.407821 145.940377 
z
" style="fill:#008000;"/>
   </g>
   <g id="patch_6">
    <path clip-path="url(#p884e61de4a)" d="M 221.681416 142.4 
L 252.955752 142.4 
L 252.955752 145.344921 
L 241.704264 145.344921 
L 241.704264 157.5 
L 232.954723 157.5 
L 232.954723 145.344921 
L 221.681416 145.344921 
z
" style="fill:#ff0000;"/>
   </g>
   <g id="patch_7">
    <path clip-path="url(#p884e61de4a)" d="M 276.26553 154.74925 
L 264.237923 154.74925 
L 262.338827 157.5 
L 254.60177 157.5 
L 265.651055 142.4 
L 274.826821 142.4 
L 285.876106 157.5 
L 278.145443 157.5 
z
M 266.156202 151.946721 
L 274.328069 151.946721 
L 270.248529 145.940377 
z
" style="fill:#008000;"/>
   </g>
   <g id="patch_8">
    <path clip-path="url(#p884e61de4a)" d="M 309.185884 154.74925 
L 297.158277 154.74925 
L 295.259181 157.5 
L 287.522124 157.5 
L 298.571409 142.4 
L 307.747175 142.4 
L 318.79646 157.5 
L 311.065797 157.5 
z
M 299.076556 151.946721 
L 307.248423 151.946721 
L 303.168883 145.940377 
z
" style="fill:#008000;"/>
   </g>
   <g id="patch_9">
    <path clip-path="url(#p884e61de4a)" d="M 320.442478 21.6 
L 351.716814 21.6 
L 351.716814 48.104286 
L 340.465326 48.104286 
L 340.465326 157.5 
L 331.715785 157.5 
L 331.715785 48.104286 
L 320.442478 48.104286 
z
" style="fill:#ff0000;"/>
   </g>
   <g id="patch_10">
    <path clip-path="url(#p884e61de4a)" d="M 375.026592 132.743249 
L 362.998985 132.743249 
L 361.099889 157.5 
L 353.362832 157.5 
L 364.412117 21.6 
L 373.587883 21.6 
L 384.637168 157.5 
L 376.906505 157.5 
z
M 364.917264 107.520489 
L 373.089131 107.520489 
L 369.009591 53.463395 
z
" style="fill:#008000;"/>
   </g>
   <g id="patch_11">
    <path clip-path="url(#p884e61de4a)" d="M 417.557522 153.401384 
Q 414.403454 155.450692 411.011079 156.480025 
Q 407.618703 157.5 404.002039 157.5 
Q 395.829498 157.5 391.056342 151.398864 
Q 386.283186 145.297728 386.283186 134.864036 
Q 386.283186 124.308697 391.140451 118.254348 
Q 396.004724 112.2 404.464635 112.2 
Q 407.723839 112.2 410.70969 113.023466 
Q 413.70255 113.837575 416.351967 115.447077 
L 416.351967 124.477133 
Q 413.618442 122.40911 410.912952 121.389134 
Q 408.207463 120.359802 405.487955 120.359802 
Q 400.455465 120.359802 397.728948 124.121545 
Q 395.002432 127.873931 395.002432 134.864036 
Q 395.002432 141.788639 397.630822 145.569097 
Q 400.259212 149.340198 405.095449 149.340198 
Q 406.413149 149.340198 407.541604 149.124974 
Q 408.670059 148.900392 409.567217 148.432514 
L 409.567217 139.954555 
L 404.415572 139.954555 
L 404.415572 132.402995 
L 417.557522 132.402995 
z
" style="fill:#ffa600;"/>
   </g>
   <g id="patch_12">
    <path clip-path="url(#p884e61de4a)" d="M 407.946946 95.695499 
L 395.919339 95.695499 
L 394.020243 112.2 
L 386.283186 112.2 
L 397.332471 21.6 
L 406.508237 21.6 
L 417.557522 112.2 
L 409.826859 112.2 
z
M 397.837618 78.880326 
L 406.009485 78.880326 
L 401.929945 42.842263 
z
" style="fill:#008000;"/>
   </g>
   <g id="patch_13">
    <path clip-path="url(#p884e61de4a)" d="M 419.20354 21.6 
L 450.477876 21.6 
L 450.477876 48.104286 
L 439.226388 48.104286 
L 439.226388 157.5 
L 430.476847 157.5 
L 430.476847 48.104286 
L 419.20354 48.104286 
z
" style="fill:#ff0000;"/>
   </g>
   <g id="patch_14">
    <path clip-path="url(#p884e61de4a)" d="M 473.787654 132.743249 
L 461.760047 132.743249 
L 459.860951 157.5 
L 452.123894 157.5 
L 463.173179 21.6 
L 472.348945 21.6 
L 483.39823 157.5 
L 475.667567 157.5 
z
M 463.678326 107.520489 
L 471.850193 107.520489 
L 467.770653 53.463395 
z
" style="fill:#008000;"/>
   </g>
   <g id="patch_15">
    <path clip-path="url(#p884e61de4a)" d="M 506.708008 146.497 
L 494.680401 146.497 
L 492.781305 157.5 
L 485.044248 157.5 
L 496.093533 97.1 
L 505.269299 97.1 
L 516.318584 157.5 
L 508.587921 157.5 
z
M 496.59868 135.286884 
L 504.770547 135.286884 
L 500.691007 111.261509 
z
" style="fill:#008000;"/>
   </g>
   <g id="patch_16">
    <path clip-path="url(#p884e61de4a)" d="M 516.318584 90.268973 
Q 513.164516 93.684487 509.772141 95.400041 
Q 506.379765 97.1 502.763101 97.1 
Q 494.59056 97.1 489.817404 86.93144 
Q 485.044248 76.76288 485.044248 59.373394 
Q 485.044248 41.781161 489.901512 31.69058 
Q 494.765786 21.6 503.225697 21.6 
Q 506.484901 21.6 509.470752 22.972444 
Q 512.463612 24.329291 515.113029 27.011795 
L 515.113029 42.061888 
Q 512.379504 38.615183 509.674014 36.915224 
Q 506.968525 35.199669 504.249017 35.199669 
Q 499.216527 35.199669 496.49001 41.469242 
Q 493.763493 47.723218 493.763493 59.373394 
Q 493.763493 70.914398 496.391883 77.215162 
Q 499.020273 83.500331 503.856511 83.500331 
Q 505.174211 83.500331 506.302666 83.141624 
Q 507.431121 82.767321 508.328279 81.987523 
L 508.328279 67.857591 
L 503.176634 67.857591 
L 503.176634 55.271659 
L 516.318584 55.271659 
z
" style="fill:#ffa600;"/>
   </g>
   <g id="patch_17">
    <path clip-path="url(#p884e61de4a)" d="M 539.628362 154.74925 
L 527.600755 154.74925 
L 525.701659 157.5 
L 517.964602 157.5 
L 529.013887 142.4 
L 538.189653 142.4 
L 549.238938 157.5 
L 541.508275 157.5 
z
M 529.519034 151.946721 
L 537.690901 151.946721 
L 533.611361 145.940377 
z
" style="fill:#008000;"/>
   </g>
   <g id="patch_18">
    <path clip-path="url(#p884e61de4a)" d="M 517.964602 21.6 
L 549.238938 21.6 
L 549.238938 45.159366 
L 537.98745 45.159366 
L 537.98745 142.4 
L 529.237909 142.4 
L 529.237909 45.159366 
L 517.964602 45.159366 
z
" style="fill:#ff0000;"/>
   </g>
   <g id="patch_19">
    <path clip-path="url(#p884e61de4a)" d="M 582.159292 156.417641 
Q 579.543248 156.954142 576.714453 157.225511 
Q 573.885658 157.5 570.804714 157.5 
Q 561.617041 157.5 556.250998 155.466288 
Q 550.884956 153.432576 550.884956 149.954679 
Q 550.884956 146.464305 556.250998 144.433712 
Q 561.617041 142.4 570.804714 142.4 
Q 573.885658 142.4 576.714453 142.674489 
Q 579.543248 142.945858 582.159292 143.482359 
L 582.159292 146.492378 
Q 579.519609 145.781202 576.958722 145.450568 
Q 574.397835 145.119934 571.569041 145.119934 
Q 566.494545 145.119934 563.586954 146.408159 
Q 560.687242 147.693266 560.687242 149.954679 
Q 560.687242 152.206734 563.586954 153.49496 
Q 566.494545 154.780066 571.569041 154.780066 
Q 574.397835 154.780066 576.958722 154.449432 
Q 579.519609 154.115679 582.159292 153.404503 
z
" style="fill:#0000ff;"/>
   </g>
   <g id="patch_20">
    <path clip-path="url(#p884e61de4a)" d="M 572.548716 120.393999 
L 560.521109 120.393999 
L 558.622013 142.4 
L 550.884956 142.4 
L 561.934241 21.6 
L 571.110007 21.6 
L 582.159292 142.4 
L 574.428629 142.4 
z
M 562.439387 97.973768 
L 570.611255 97.973768 
L 566.531715 49.923018 
z
" style="fill:#008000;"/>
   </g>
   <g id="patch_21">
    <path clip-path="url(#p884e61de4a)" d="M 605.46907 146.497 
L 593.441463 146.497 
L 591.542367 157.5 
L 583.80531 157.5 
L 594.854595 97.1 
L 604.030361 97.1 
L 615.079646 157.5 
L 607.348983 157.5 
z
M 595.359741 135.286884 
L 603.531609 135.286884 
L 599.452069 111.261509 
z
" style="fill:#008000;"/>
   </g>
   <g id="patch_22">
    <path clip-path="url(#p884e61de4a)" d="M 615.079646 90.268973 
Q 611.925578 93.684487 608.533203 95.400041 
Q 605.140827 97.1 601.524163 97.1 
Q 593.351622 97.1 588.578466 86.93144 
Q 583.80531 76.76288 583.80531 59.373394 
Q 583.80531 41.781161 588.662574 31.69058 
Q 593.526848 21.6 601.986759 21.6 
Q 605.245963 21.6 608.231814 22.972444 
Q 611.224674 24.329291 613.874091 27.011795 
L 613.874091 42.061888 
Q 611.140566 38.615183 608.435076 36.915224 
Q 605.729587 35.199669 603.010079 35.199669 
Q 597.977589 35.199669 595.251072 41.469242 
Q 592.524555 47.723218 592.524555 59.373394 
Q 592.524555 70.914398 595.152945 77.215162 
Q 597.781335 83.500331 602.617573 83.500331 
Q 603.935272 83.500331 605.063728 83.141624 
Q 606.192183 82.767321 607.08934 81.987523 
L 607.08934 67.857591 
L 601.937696 67.857591 
L 601.937696 55.271659 
L 615.079646 55.271659 
z
" style="fill:#ffa600;"/>
   </g>
   <g id="patch_23">
    <path clip-path="url(#p884e61de4a)" d="M 648 155.335282 
Q 645.383956 156.408283 642.555161 156.951023 
Q 639.726366 157.5 636.645422 157.5 
Q 627.457749 157.5 622.091706 153.432576 
Q 616.725664 149.365152 616.725664 142.409358 
Q 616.725664 135.42861 622.091706 131.367424 
Q 627.457749 127.3 636.645422 127.3 
Q 639.726366 127.3 642.555161 127.848977 
Q 645.383956 128.391717 648 129.464718 
L 648 135.484755 
Q 645.360317 134.062404 642.79943 133.401136 
Q 640.238543 132.739868 637.409749 132.739868 
Q 632.335253 132.739868 629.427662 135.316319 
Q 626.52795 137.886532 626.52795 142.409358 
Q 626.52795 146.913468 629.427662 149.489919 
Q 632.335253 152.060132 637.409749 152.060132 
Q 640.238543 152.060132 642.79943 151.398864 
Q 645.360317 150.731357 648 149.309006 
z
" style="fill:#0000ff;"/>
   </g>
   <g id="patch_24">
    <path clip-path="url(#p884e61de4a)" d="M 648 124.567589 
Q 644.845932 125.933795 641.453557 126.620017 
Q 638.061181 127.3 634.444517 127.3 
Q 626.271976 127.3 621.49882 123.232576 
Q 616.725664 119.165152 616.725664 112.209358 
Q 616.725664 105.172464 621.582928 101.136232 
Q 626.447202 97.1 634.907113 97.1 
Q 638.166317 97.1 641.152168 97.648977 
Q 644.145028 98.191717 646.794445 99.264718 
L 646.794445 105.284755 
Q 644.06092 103.906073 641.35543 103.22609 
Q 638.649941 102.539868 635.930433 102.539868 
Q 630.897943 102.539868 628.171426 105.047697 
Q 625.444909 107.549287 625.444909 112.209358 
Q 625.444909 116.825759 628.073299 119.346065 
Q 630.701689 121.860132 635.537927 121.860132 
Q 636.855626 121.860132 637.984082 121.716649 
Q 639.112537 121.566928 640.009694 121.255009 
L 640.009694 115.603037 
L 634.85805 115.603037 
L 634.85805 110.568663 
L 648 110.568663 
z
" style="fill:#ffa600;"/>
   </g>
   <g id="patch_25">
    <path clip-path="url(#p884e61de4a)" d="M 616.725664 66.9 
L 648 66.9 
L 648 72.789841 
L 636.748512 72.789841 
L 636.748512 97.1 
L 627.998971 97.1 
L 627.998971 72.789841 
L 616.725664 72.789841 
z
" style="fill:#ff0000;"/>
   </g>
   <g id="patch_26">
    <path clip-path="url(#p884e61de4a)" d="M 638.389424 58.64775 
L 626.361817 58.64775 
L 624.462721 66.9 
L 616.725664 66.9 
L 627.774949 21.6 
L 636.950715 21.6 
L 648 66.9 
L 640.269337 66.9 
z
M 628.280095 50.240163 
L 636.451963 50.240163 
L 632.372423 32.221132 
z
" style="fill:#008000;"/>
   </g>
  </g>
 </g>
 <defs>
  <clipPath id="p884e61de4a">
   <rect height="135.9" width="558" x="90" y="21.6"/>
  </clipPath>
 </defs>
</svg>
