<?xml version="1.0" encoding="utf-8" standalone="no"?>
<!DOCTYPE svg PUBLIC "-//W3C//DTD SVG 1.1//EN"
  "http://www.w3.org/Graphics/SVG/1.1/DTD/svg11.dtd">
<!-- Created with matplotlib (https://matplotlib.org/) -->
<svg height="180pt" version="1.1" viewBox="0 0 720 180" width="720pt" xmlns="http://www.w3.org/2000/svg" xmlns:xlink="http://www.w3.org/1999/xlink">
 <metadata>
  <rdf:RDF xmlns:cc="http://creativecommons.org/ns#" xmlns:dc="http://purl.org/dc/elements/1.1/" xmlns:rdf="http://www.w3.org/1999/02/22-rdf-syntax-ns#">
   <cc:Work>
    <dc:type rdf:resource="http://purl.org/dc/dcmitype/StillImage"/>
    <dc:date>2021-08-04T23:33:28.397916</dc:date>
    <dc:format>image/svg+xml</dc:format>
    <dc:creator>
     <cc:Agent>
      <dc:title>Matplotlib v3.3.2, https://matplotlib.org/</dc:title>
     </cc:Agent>
    </dc:creator>
   </cc:Work>
  </rdf:RDF>
 </metadata>
 <defs>
  <style type="text/css">*{stroke-linecap:butt;stroke-linejoin:round;}</style>
 </defs>
 <g id="figure_1">
  <g id="patch_1">
   <path d="M 0 180 
L 720 180 
L 720 0 
L 0 0 
z
" style="fill:none;"/>
  </g>
  <g id="axes_1">
   <g id="line2d_1">
    <path clip-path="url(#pc485e40ba7)" d="M 90 157.5 
L 648 157.5 
" style="fill:none;stroke:#000000;stroke-linecap:square;stroke-width:0.5;"/>
   </g>
   <g id="patch_2">
    <path clip-path="url(#pc485e40ba7)" d="M 90 112.2 
L 143.276382 112.2 
L 143.276382 121.034762 
L 124.109274 121.034762 
L 124.109274 157.5 
L 109.204277 157.5 
L 109.204277 121.034762 
L 90 121.034762 
z
" style="fill:#ff0000;"/>
   </g>
   <g id="patch_3">
    <path clip-path="url(#pc485e40ba7)" d="M 143.276382 105.705846 
Q 138.819905 108.92485 134.001003 110.553068 
Q 129.182101 112.2 123.933659 112.2 
Q 108.282296 112.2 99.141148 99.997728 
Q 90 87.795455 90 66.928073 
Q 90 45.985829 99.141148 33.802272 
Q 108.282296 21.6 123.933659 21.6 
Q 129.182101 21.6 134.001003 23.246932 
Q 138.819905 24.87515 143.276382 28.094154 
L 143.276382 46.154266 
Q 138.779635 41.887213 134.41712 39.903408 
Q 130.054604 37.919603 125.235702 37.919603 
Q 116.59121 37.919603 111.638077 45.648957 
Q 106.698367 53.359595 106.698367 66.928073 
Q 106.698367 80.440405 111.638077 88.169758 
Q 116.59121 95.880397 125.235702 95.880397 
Q 130.054604 95.880397 134.41712 93.896592 
Q 138.779635 91.894071 143.276382 87.627019 
z
" style="fill:#0000ff;"/>
   </g>
   <g id="patch_4">
    <path clip-path="url(#pc485e40ba7)" d="M 146.080402 21.6 
L 199.356784 21.6 
L 199.356784 48.104286 
L 180.189676 48.104286 
L 180.189676 157.5 
L 165.284679 157.5 
L 165.284679 48.104286 
L 146.080402 48.104286 
z
" style="fill:#ff0000;"/>
   </g>
   <g id="patch_5">
    <path clip-path="url(#pc485e40ba7)" d="M 239.065401 132.743249 
L 218.57616 132.743249 
L 215.341017 157.5 
L 202.160804 157.5 
L 220.983455 21.6 
L 236.614535 21.6 
L 255.437186 157.5 
L 242.267866 157.5 
z
M 221.843982 107.520489 
L 235.764901 107.520489 
L 228.815334 53.463395 
z
" style="fill:#008000;"/>
   </g>
   <g id="patch_6">
    <path clip-path="url(#pc485e40ba7)" d="M 311.517588 145.204152 
Q 306.144578 151.352076 300.365607 154.440074 
Q 294.586636 157.5 288.425584 157.5 
Q 274.503517 157.5 266.372362 139.196592 
Q 258.241206 120.893183 258.241206 89.592109 
Q 258.241206 57.92609 266.515642 39.763045 
Q 274.802018 21.6 289.213625 21.6 
Q 294.765736 21.6 299.852186 24.070399 
Q 304.950575 26.512725 309.463904 31.341231 
L 309.463904 58.431398 
Q 304.807295 52.227329 300.198446 49.167403 
Q 295.589597 46.079405 290.956869 46.079405 
Q 282.383932 46.079405 277.739263 57.364635 
Q 273.094594 68.621793 273.094594 89.592109 
Q 273.094594 110.365916 277.572103 121.707292 
Q 282.049612 133.020595 290.288227 133.020595 
Q 292.532952 133.020595 294.455295 132.374923 
Q 296.377639 131.701177 297.905962 130.297542 
L 297.905962 104.863665 
L 289.130045 104.863665 
L 289.130045 82.208986 
L 311.517588 82.208986 
z
" style="fill:#ffa600;"/>
   </g>
   <g id="patch_7">
    <path clip-path="url(#pc485e40ba7)" d="M 314.321608 21.6 
L 367.59799 21.6 
L 367.59799 48.104286 
L 348.430882 48.104286 
L 348.430882 157.5 
L 333.525885 157.5 
L 333.525885 48.104286 
L 314.321608 48.104286 
z
" style="fill:#ff0000;"/>
   </g>
   <g id="patch_8">
    <path clip-path="url(#pc485e40ba7)" d="M 423.678392 145.204152 
Q 418.305382 151.352076 412.526411 154.440074 
Q 406.74744 157.5 400.586388 157.5 
Q 386.664321 157.5 378.533166 139.196592 
Q 370.40201 120.893183 370.40201 89.592109 
Q 370.40201 57.92609 378.676446 39.763045 
Q 386.962822 21.6 401.374429 21.6 
Q 406.92654 21.6 412.01299 24.070399 
Q 417.111379 26.512725 421.624708 31.341231 
L 421.624708 58.431398 
Q 416.968099 52.227329 412.35925 49.167403 
Q 407.750401 46.079405 403.117673 46.079405 
Q 394.544736 46.079405 389.900067 57.364635 
Q 385.255398 68.621793 385.255398 89.592109 
Q 385.255398 110.365916 389.732907 121.707292 
Q 394.210416 133.020595 402.449031 133.020595 
Q 404.693756 133.020595 406.616099 132.374923 
Q 408.538443 131.701177 410.066766 130.297542 
L 410.066766 104.863665 
L 401.290849 104.863665 
L 401.290849 82.208986 
L 423.678392 82.208986 
z
" style="fill:#ffa600;"/>
   </g>
   <g id="patch_9">
    <path clip-path="url(#pc485e40ba7)" d="M 463.387009 132.743249 
L 442.897768 132.743249 
L 439.662625 157.5 
L 426.482412 157.5 
L 445.305063 21.6 
L 460.936143 21.6 
L 479.758794 157.5 
L 466.589474 157.5 
z
M 446.16559 107.520489 
L 460.086509 107.520489 
L 453.136942 53.463395 
z
" style="fill:#008000;"/>
   </g>
   <g id="patch_10">
    <path clip-path="url(#pc485e40ba7)" d="M 535.839196 155.335282 
Q 531.382719 156.408283 526.563817 156.951023 
Q 521.744915 157.5 516.496473 157.5 
Q 500.84511 157.5 491.703962 153.432576 
Q 482.562814 149.365152 482.562814 142.409358 
Q 482.562814 135.42861 491.703962 131.367424 
Q 500.84511 127.3 516.496473 127.3 
Q 521.744915 127.3 526.563817 127.848977 
Q 531.382719 128.391717 535.839196 129.464718 
L 535.839196 135.484755 
Q 531.342449 134.062404 526.979934 133.401136 
Q 522.617418 132.739868 517.798516 132.739868 
Q 509.154024 132.739868 504.200891 135.316319 
Q 499.261181 137.886532 499.261181 142.409358 
Q 499.261181 146.913468 504.200891 149.489919 
Q 509.154024 152.060132 517.798516 152.060132 
Q 522.617418 152.060132 526.979934 151.398864 
Q 531.342449 150.731357 535.839196 149.309006 
z
" style="fill:#0000ff;"/>
   </g>
   <g id="patch_11">
    <path clip-path="url(#pc485e40ba7)" d="M 482.562814 97.1 
L 535.839196 97.1 
L 535.839196 102.989841 
L 516.672088 102.989841 
L 516.672088 127.3 
L 501.767091 127.3 
L 501.767091 102.989841 
L 482.562814 102.989841 
z
" style="fill:#ff0000;"/>
   </g>
   <g id="patch_12">
    <path clip-path="url(#pc485e40ba7)" d="M 519.467411 83.346249 
L 498.97817 83.346249 
L 495.743027 97.1 
L 482.562814 97.1 
L 501.385465 21.6 
L 517.016545 21.6 
L 535.839196 97.1 
L 522.669876 97.1 
z
M 502.245992 69.333605 
L 516.166911 69.333605 
L 509.217344 39.301886 
z
" style="fill:#008000;"/>
   </g>
   <g id="patch_13">
    <path clip-path="url(#pc485e40ba7)" d="M 591.919598 156.133795 
Q 586.546588 156.816897 580.767617 157.160008 
Q 574.988646 157.5 568.827594 157.5 
Q 554.905527 157.5 546.774372 155.466288 
Q 538.643216 153.432576 538.643216 149.954679 
Q 538.643216 146.436232 546.917652 144.418116 
Q 555.204028 142.4 569.615635 142.4 
Q 575.167746 142.4 580.254196 142.674489 
Q 585.352585 142.945858 589.865914 143.482359 
L 589.865914 146.492378 
Q 585.209305 145.803037 580.600456 145.463045 
Q 575.991608 145.119934 571.358879 145.119934 
Q 562.785942 145.119934 558.141273 146.373848 
Q 553.496604 147.624644 553.496604 149.954679 
Q 553.496604 152.26288 557.974113 153.523032 
Q 562.451622 154.780066 570.690237 154.780066 
Q 572.934962 154.780066 574.857305 154.708325 
Q 576.779649 154.633464 578.307972 154.477505 
L 578.307972 151.651518 
L 569.532055 151.651518 
L 569.532055 149.134332 
L 591.919598 149.134332 
z
" style="fill:#ffa600;"/>
   </g>
   <g id="patch_14">
    <path clip-path="url(#pc485e40ba7)" d="M 591.919598 139.152923 
Q 587.463121 140.762425 582.644219 141.576534 
Q 577.825317 142.4 572.576875 142.4 
Q 556.925512 142.4 547.784364 136.298864 
Q 538.643216 130.197728 538.643216 119.764036 
Q 538.643216 109.292915 547.784364 103.201136 
Q 556.925512 97.1 572.576875 97.1 
Q 577.825317 97.1 582.644219 97.923466 
Q 587.463121 98.737575 591.919598 100.347077 
L 591.919598 109.377133 
Q 587.422851 107.243607 583.060336 106.251704 
Q 578.69782 105.259802 573.878918 105.259802 
Q 565.234426 105.259802 560.281293 109.124478 
Q 555.341583 112.979798 555.341583 119.764036 
Q 555.341583 126.520202 560.281293 130.384879 
Q 565.234426 134.240198 573.878918 134.240198 
Q 578.69782 134.240198 583.060336 133.248296 
Q 587.422851 132.247036 591.919598 130.11351 
z
" style="fill:#0000ff;"/>
   </g>
   <g id="patch_15">
    <path clip-path="url(#pc485e40ba7)" d="M 575.547813 83.346249 
L 555.058572 83.346249 
L 551.823429 97.1 
L 538.643216 97.1 
L 557.465867 21.6 
L 573.096947 21.6 
L 591.919598 97.1 
L 578.750278 97.1 
z
M 558.326394 69.333605 
L 572.247313 69.333605 
L 565.297746 39.301886 
z
" style="fill:#008000;"/>
   </g>
   <g id="patch_16">
    <path clip-path="url(#pc485e40ba7)" d="M 631.628215 154.74925 
L 611.138974 154.74925 
L 607.903831 157.5 
L 594.723618 157.5 
L 613.546269 142.4 
L 629.177349 142.4 
L 648 157.5 
L 634.83068 157.5 
z
M 614.406796 151.946721 
L 628.327715 151.946721 
L 621.378148 145.940377 
z
" style="fill:#008000;"/>
   </g>
   <g id="patch_17">
    <path clip-path="url(#pc485e40ba7)" d="M 594.723618 127.3 
L 648 127.3 
L 648 130.244921 
L 628.832892 130.244921 
L 628.832892 142.4 
L 613.927895 142.4 
L 613.927895 130.244921 
L 594.723618 130.244921 
z
" style="fill:#ff0000;"/>
   </g>
   <g id="patch_18">
    <path clip-path="url(#pc485e40ba7)" d="M 648 123.201384 
Q 642.62699 125.250692 636.848019 126.280025 
Q 631.069048 127.3 624.907996 127.3 
Q 610.985929 127.3 602.854774 121.198864 
Q 594.723618 115.097728 594.723618 104.664036 
Q 594.723618 94.108697 602.998054 88.054348 
Q 611.28443 82 625.696037 82 
Q 631.248148 82 636.334598 82.823466 
Q 641.432987 83.637575 645.946316 85.247077 
L 645.946316 94.277133 
Q 641.289707 92.20911 636.680858 91.189134 
Q 632.07201 90.159802 627.439281 90.159802 
Q 618.866344 90.159802 614.221675 93.921545 
Q 609.577007 97.673931 609.577007 104.664036 
Q 609.577007 111.588639 614.054515 115.369097 
Q 618.532024 119.140198 626.770639 119.140198 
Q 629.015364 119.140198 630.937707 118.924974 
Q 632.860051 118.700392 634.388374 118.232514 
L 634.388374 109.754555 
L 625.612457 109.754555 
L 625.612457 102.202995 
L 648 102.202995 
z
" style="fill:#ffa600;"/>
   </g>
   <g id="patch_19">
    <path clip-path="url(#pc485e40ba7)" d="M 648 77.670564 
Q 643.543523 79.816567 638.724621 80.902045 
Q 633.905719 82 628.657277 82 
Q 613.005914 82 603.864766 73.865152 
Q 594.723618 65.730304 594.723618 51.818715 
Q 594.723618 37.85722 603.864766 29.734848 
Q 613.005914 21.6 628.657277 21.6 
Q 633.905719 21.6 638.724621 22.697955 
Q 643.543523 23.783433 648 25.929436 
L 648 37.96951 
Q 643.503253 35.124809 639.140738 33.802272 
Q 634.778222 32.479736 629.95932 32.479736 
Q 621.314828 32.479736 616.361695 37.632638 
Q 611.421985 42.773063 611.421985 51.818715 
Q 611.421985 60.826937 616.361695 65.979839 
Q 621.314828 71.120264 629.95932 71.120264 
Q 634.778222 71.120264 639.140738 69.797728 
Q 643.503253 68.462714 648 65.618013 
z
" style="fill:#0000ff;"/>
   </g>
  </g>
 </g>
 <defs>
  <clipPath id="pc485e40ba7">
   <rect height="135.9" width="558" x="90" y="21.6"/>
  </clipPath>
 </defs>
</svg>
